<?xml version="1.0" encoding="UTF-8" standalone="no"?>
<svg
   width="16"
   height="16"
   version="1.1"
   id="svg1"
   sodipodi:docname="start-here-symbolic.svg"
   inkscape:version="1.4.4 (dcaf3e7d9e, 2026-05-05)"
   xmlns:inkscape="http://www.inkscape.org/namespaces/inkscape"
   xmlns:sodipodi="http://sodipodi.sourceforge.net/DTD/sodipodi-0.dtd"
   xmlns="http://www.w3.org/2000/svg"
   xmlns:svg="http://www.w3.org/2000/svg">
  <sodipodi:namedview
     id="namedview1"
     pagecolor="#ffffff"
     bordercolor="#999999"
     borderopacity="1"
     inkscape:showpageshadow="2"
     inkscape:pageopacity="0"
     inkscape:pagecheckerboard="0"
     inkscape:deskcolor="#d1d1d1"
     inkscape:zoom="72.375"
     inkscape:cx="8"
     inkscape:cy="8"
     inkscape:window-width="2560"
     inkscape:window-height="1371"
     inkscape:window-x="0"
     inkscape:window-y="0"
     inkscape:window-maximized="1"
     inkscape:current-layer="svg1" />
  <defs
     id="defs1">
    <style
       id="current-color-scheme"
       type="text/css">.ColorScheme-Text { color:#f2f2f2; }</style>
  </defs>
  <path
     style="baseline-shift:baseline;display:inline;overflow:visible;fill:#f2f2f2;stroke:#f2f2f2;stroke-width:0.2;stroke-linecap:round;stroke-linejoin:round;stroke-dasharray:none;stroke-opacity:1;enable-background:accumulate;stop-color:#000000;fill-opacity:1"
     d="m 8.426749,3.9203424 c 0.02734,0.013668 0.04922,0.046486 0.08203,0.046486 0.03008,0 0.07656,-0.010939 0.07929,-0.041013 0.0055,-0.038284 -0.05195,-0.062892 -0.0875,-0.079295 -0.04648,-0.019141 -0.106638,-0.027345 -0.150387,-0.00276 -0.01094,0.00546 -0.02188,0.019141 -0.01641,0.030074 0.0082,0.035547 0.06289,0.030074 0.09297,0.046486 m -0.59881,0.046487 c 0.03281,0 0.05469,-0.032811 0.08203,-0.046486 0.03008,-0.016406 0.08476,-0.010939 0.0957,-0.043749 0.0055,-0.010939 -0.0055,-0.024608 -0.01641,-0.030074 -0.04375,-0.024608 -0.103904,-0.016406 -0.150387,0.00276 -0.03555,0.016405 -0.09297,0.041013 -0.0875,0.079295 0.0027,0.027345 0.04922,0.041013 0.07656,0.038284 m 6.045266,7.6226736 C 13.774751,11.480139 13.728273,11.272332 13.67632,11.050854 13.62711,10.829375 13.569683,10.591492 13.389219,10.43837 13.353669,10.4083 13.318129,10.38095 13.279847,10.35908 13.244297,10.3372 13.206027,10.31807 13.167741,10.30439 13.419295,9.5579211 13.320861,8.814192 13.066571,8.1418268 12.754875,7.3188028 12.210749,6.5996816 11.795135,6.1077809 11.32757,5.5199061 10.873676,4.9621088 10.881878,4.1393576 10.895548,2.8840402 11.021327,0.5519546 8.809551,0.5492202 6.0099,0.5437612 6.709881,3.3762138 6.679804,4.245722 6.633324,4.8855482 6.504809,5.3886596 6.064586,6.0145413 5.547804,6.6297589 4.82048,7.6223097 4.475958,8.6583364 4.3119,9.1477761 4.235339,9.6454193 4.306431,10.115719 c -0.17773,0.15859 -0.31171,0.401943 -0.453894,0.552329 -0.114841,0.117574 -0.281633,0.161323 -0.464831,0.226946 -0.183198,0.06562 -0.382802,0.164059 -0.505846,0.396475 -0.05742,0.106637 -0.07656,0.221478 -0.07656,0.339052 0,0.106638 0.01641,0.21601 0.03281,0.322648 0.03281,0.221479 0.06836,0.429285 0.02187,0.568734 -0.142184,0.39374 -0.161324,0.66717 -0.06015,0.866775 0.103904,0.199604 0.31171,0.287101 0.549595,0.336318 0.473034,0.09844 1.115594,0.07382 1.62144,0.341787 0.541392,0.284368 1.090986,0.385537 1.528474,0.284368 0.317179,-0.07109 0.576938,-0.262492 0.708184,-0.552329 0.341788,-0.0028 0.719121,-0.147653 1.320668,-0.180464 0.40741,-0.03281 0.918725,0.144918 1.506599,0.112107 0.0164,0.06289 0.03828,0.125777 0.06836,0.183198 v 0.0028 c 0.226948,0.456628 0.650764,0.664435 1.101923,0.628889 0.453894,-0.03555 0.932398,-0.300772 1.320668,-0.76287 0.371865,-0.448425 0.984348,-0.634358 1.391759,-0.880444 0.202339,-0.123044 0.366396,-0.276165 0.380068,-0.500378 0.01012,-0.224486 -0.12113,-0.473034 -0.424363,-0.812088 M 8.506044,2.9359943 C 8.774005,2.3289793 9.441175,2.3399169 9.709136,2.9250573 9.886865,3.3133281 9.807576,3.7699562 9.591561,4.0297149 9.547811,4.0078399 9.430237,3.9586229 9.247039,3.8957339 9.277119,3.8629219 9.331799,3.8219079 9.353677,3.7699562 9.484924,3.4473083 9.348177,3.0316946 9.104856,3.023492 8.905252,3.009821 8.724788,3.3187963 8.782208,3.6523811 8.670102,3.5976951 8.525184,3.5566811 8.426749,3.5320716 8.399409,3.3434054 8.418549,3.1328638 8.506049,2.9359943 M 7.393457,2.6215497 c 0.276164,0 0.568734,0.3882708 0.522251,0.9159908 -0.0957,0.027344 -0.194135,0.068357 -0.278899,0.1257776 C 7.669619,3.4199654 7.546579,3.1137241 7.374317,3.1273956 7.144635,3.1465376 7.106355,3.7070671 7.325097,3.8957339 7.352437,3.9176049 7.377047,3.8902739 7.163773,4.0461207 6.737222,3.6469123 6.876671,2.6215497 7.393454,2.6215497 M 7.021589,4.2812702 C 7.191116,4.1554926 7.393454,4.0078401 7.407126,3.9941686 7.535638,3.8738598 7.776256,3.6058978 8.169996,3.6058978 c 0.194135,0 0.426551,0.062892 0.708184,0.2433528 0.172261,0.1121063 0.308976,0.1203095 0.617952,0.2542905 0.229681,0.0957 0.374599,0.2652269 0.287102,0.4976426 C 9.712144,4.7953187 9.48246,4.9949226 9.162547,5.0960918 8.85904,5.1945268 8.621155,5.5335803 8.118044,5.5035029 8.011406,5.4980429 7.926643,5.4761589 7.855551,5.4460849 7.636809,5.3503823 7.521969,5.1617154 7.308693,5.0359378 7.073543,4.9046912 6.947766,4.7515698 6.906751,4.6175895 Q 6.849331,4.4166181 7.021592,4.2812702 m 0.09023,9.1317448 c -0.07383,0.95974 -1.200358,0.9406 -2.058655,0.492174 C 4.235611,13.47317 3.17771,13.727459 2.9617,13.306377 2.89608,13.177866 2.89608,12.959122 3.03279,12.584522 v -0.0054 C 3.09841,12.371315 3.0492,12.141634 3.01638,11.925624 2.98357,11.712349 2.96716,11.515479 3.04099,11.378764 c 0.0957,-0.183199 0.232415,-0.248822 0.404676,-0.308976 0.281633,-0.101169 0.322648,-0.09296 0.535923,-0.270696 0.150387,-0.155855 0.259759,-0.352725 0.391005,-0.492174 0.13945,-0.150387 0.27343,-0.221479 0.483971,-0.188667 0.221479,0.03281 0.41288,0.185932 0.598812,0.437488 L 5.9913,11.529151 c 0.259212,0.544398 1.177937,1.323401 1.120517,1.883932 M 7.073537,12.704831 C 6.961431,12.524367 6.811045,12.332967 6.679798,12.168908 c 0.194136,0 0.388271,-0.06015 0.456628,-0.243353 0.06289,-0.169526 0,-0.40741 -0.202338,-0.680841 C 6.564958,10.747072 5.886851,10.356066 5.886851,10.356066 5.51772,10.126385 5.309913,9.8447523 5.214213,9.5385111 5.118513,9.2322693 5.132183,8.9014189 5.206013,8.5760373 5.348197,7.9498818 5.714593,7.340133 5.949743,6.9573304 6.012633,6.9108514 5.971613,7.0448284 5.711859,7.5260655 5.479443,7.9662877 5.044689,8.9834473 5.640769,9.7788563 5.657179,9.2128557 5.791155,8.6359184 6.018102,8.0975343 6.346218,7.3483356 7.037996,6.0498159 7.092683,5.0162508 7.122763,5.0381228 7.21846,5.1037468 7.262209,5.128357 7.387987,5.202183 7.483688,5.311555 7.606731,5.4099898 7.945784,5.6834199 8.386007,5.6615458 8.766075,5.4428008 8.935601,5.3470988 9.072316,5.2377275 9.200829,5.196713 9.471524,5.11195 9.687534,4.9615629 9.810577,4.7865682 c 0.210542,0.8312274 0.702716,2.0313117 1.017161,2.616452 0.166792,0.3117108 0.500378,0.9706772 0.645295,1.7660854 0.09023,-0.00277 0.191401,0.01094 0.298039,0.038281 C 12.148406,8.2312429 11.45116,7.1788104 11.133981,6.8862399 11.005469,6.7604623 10.999999,6.7057764 11.062889,6.7085108 c 0.344522,0.3062413 0.798416,0.9214596 0.962474,1.6132372 0.07656,0.3171791 0.09023,0.6480298 0.01094,0.9761461 0.448425,0.1859323 0.981614,0.4894402 0.83943,0.9515369 -0.06015,-0.0028 -0.08749,0 -0.11484,0 0.08749,-0.2761647 -0.106638,-0.4812377 -0.623421,-0.7136531 -0.535923,-0.2351497 -0.984348,-0.2351497 -1.047237,0.3417874 -0.330851,0.114842 -0.500377,0.4019427 -0.585141,0.7464637 -0.07656,0.306242 -0.09844,0.675374 -0.12031,1.090987 -0.01367,0.210541 -0.09844,0.492173 -0.185932,0.792947 -0.877984,0.626155 -2.097482,0.899585 -3.125306,0.196869 m 7.037269,-0.314445 c -0.02461,0.459362 -1.126532,0.544126 -1.727805,1.27145 -0.360927,0.429285 -0.803883,0.667168 -1.192154,0.697246 -0.388271,0.03007 -0.724591,-0.131246 -0.921461,-0.52772 -0.128511,-0.303507 -0.06562,-0.631624 0.03007,-0.992551 0.10117,-0.388271 0.251556,-0.787479 0.270696,-1.110126 0.02187,-0.415614 0.04648,-0.779276 0.114842,-1.058175 0.07109,-0.281633 0.180463,-0.4703 0.374598,-0.576937 0.0082,-0.0054 0.01914,-0.0082 0.02734,-0.01367 0.02187,0.360927 0.199604,0.727325 0.514049,0.806619 0.344521,0.09023 0.83943,-0.205073 1.049971,-0.445692 0.246087,-0.0082 0.429286,-0.02461 0.617952,0.13945 0.270696,0.232416 0.194135,0.828494 0.467565,1.137469 0.289563,0.317452 0.38253,0.533188 0.374326,0.672638 M 7.128229,4.6148552 c 0.05469,0.051952 0.128513,0.1230432 0.218745,0.194135 0.180463,0.1421836 0.432019,0.2898361 0.746464,0.2898361 0.317179,0 0.615217,-0.161324 0.869507,-0.2953043 C 9.096926,4.73243 9.260984,4.6121207 9.367622,4.5191548 9.47426,4.4261878 9.528946,4.3468939 9.452382,4.3386905 9.375822,4.3304905 9.381292,4.4097825 9.288324,4.4781397 9.168015,4.5656377 9.023097,4.680478 8.908256,4.7461017 8.705918,4.8609423 8.375068,5.025 8.0907,5.025 7.806333,5.025 7.579386,4.8937535 7.409859,4.7597732 7.325099,4.6914162 7.254004,4.6230578 7.199318,4.5711063 7.158308,4.5328233 7.147368,4.4453286 7.081743,4.4371253 c -0.03828,-0.00276 -0.04922,0.1011692 0.04648,0.1777299"
     id="path2" />
</svg>
