<?xml version="1.0" encoding="UTF-8" standalone="no"?>
<svg
   width="16"
   height="16"
   version="1.1"
   id="svg4"
   sodipodi:docname="org.gnome.Software-symbolic.svg"
   inkscape:version="1.4.2 (ebf0e940d0, 2025-05-08)"
   xmlns:inkscape="http://www.inkscape.org/namespaces/inkscape"
   xmlns:sodipodi="http://sodipodi.sourceforge.net/DTD/sodipodi-0.dtd"
   xmlns="http://www.w3.org/2000/svg"
   xmlns:svg="http://www.w3.org/2000/svg">
  <defs
     id="defs4" />
  <sodipodi:namedview
     id="namedview4"
     pagecolor="#ffffff"
     bordercolor="#111111"
     borderopacity="1"
     inkscape:showpageshadow="0"
     inkscape:pageopacity="0"
     inkscape:pagecheckerboard="1"
     inkscape:deskcolor="#d1d1d1"
     inkscape:zoom="25.588427"
     inkscape:cx="15.065404"
     inkscape:cy="14.420582"
     inkscape:window-width="2560"
     inkscape:window-height="1371"
     inkscape:window-x="0"
     inkscape:window-y="0"
     inkscape:window-maximized="1"
     inkscape:current-layer="svg4" />
  <path
     id="path1-3"
     d="m 1.0000001,2.000286 v 2 6 2 c 0,1.109375 0.890625,2 2,2 H 13 c 1.109375,0 2,-0.890625 2,-2 v -2 -6 -2 z m 3.048828,2.046875 a 0.75,0.75 0 0 1 0.75,0.75 c 0,1.145014 0.607861,2.200904 1.599609,2.773437 0.991749,0.572536 2.211377,0.572536 3.203125,0 C 10.593311,6.998064 11.203125,5.942175 11.203125,4.797161 a 0.75,0.75 0 0 1 0.75,-0.75 0.75,0.75 0 0 1 0.75,0.75 c 0,1.678556 -0.897804,3.233015 -2.351563,4.072266 -1.4537569,0.8392513 -3.2493679,0.8392513 -4.7031249,0 -1.453757,-0.839251 -2.349609,-2.39371 -2.349609,-4.072266 a 0.75,0.75 0 0 1 0.75,-0.75 z"
     style="fill:#2e3436;fill-opacity:1" />
</svg>
