<?xml version="1.0" encoding="UTF-8"?>
<svg version="1.1" viewBox="0 0 32 32" xmlns="http://www.w3.org/2000/svg">
 <defs>
  <style id="current-color-scheme" type="text/css">.ColorScheme-Text {
        color:#dedede;
      }</style>
 </defs>
 <path class="ColorScheme-Text" d="m16 3a13 13 0 0 0-13 13 13 13 0 0 0 13 13 13 13 0 0 0 13-13 13 13 0 0 0-13-13zm0 1a12 12 0 0 1 12 12 12 12 0 0 1-12 12 12 12 0 0 1-12-12 12 12 0 0 1 12-12z" fill="currentColor"/>
 <circle class="ColorScheme-Text" cx="10" cy="16" r="1" fill="currentColor"/>
 <circle class="ColorScheme-Text" cx="16" cy="16" r="1" fill="currentColor"/>
 <circle class="ColorScheme-Text" cx="22" cy="16" r="1" fill="currentColor"/>
</svg>
