<?xml version="1.0" encoding="UTF-8"?>
<svg width="32" height="32" xmlns="http://www.w3.org/2000/svg">
 <style id="current-color-scheme" type="text/css">.ColorScheme-Text {
                color:#dedede;
            }</style>
 <g id="view-history" transform="translate(-22 0)">
  <path id="path22" class="ColorScheme-Text" d="m38 4a12 12 0 0 0-12 12 12 12 0 0 0 12 12 12 12 0 0 0 12-12 12 12 0 0 0-12-12zm0 1a11 11 0 0 1 11 11 11 11 0 0 1-11 11 11 11 0 0 1-11-11 11 11 0 0 1 11-11zm-1 2v10h9v-1h-8v-9h-1z" fill="currentColor"/>
  <path id="path24" d="m22 0v32h32v-32h-32z" fill="none"/>
 </g>
</svg>
