<?xml version="1.0" encoding="UTF-8"?>
<svg id="svg1" width="16" height="16" version="1.1" viewBox="0 0 16 16" xmlns="http://www.w3.org/2000/svg">
 <defs id="defs1">
  <style id="current-color-scheme" type="text/css">.ColorScheme-Text { color:#363636; } .ColorScheme-Text { color:#363636; }</style>
 </defs>
 <path id="path6" d="m1.9238 1.4863c-1.0683 0-1.9434 0.87656-1.9434 1.9453v7.9648 1.1523c0 0.20046 0.030847 0.39378 0.087891 0.57617 0.01901 0.060789 0.041725 0.11962 0.066406 0.17773 2.3558e-4 5.56e-4 -2.3608e-4 0.001398 0 0.001954 0.024502 0.057549 0.052291 0.11337 0.082031 0.16797 0.33002 0.60709 0.97209 1.0215 1.707 1.0215h12.152c0.80091 0 1.4926-0.4929 1.7891-1.1895 2.36e-4 -5.56e-4 -2.35e-4 -0.001398 0-0.001954 0.024675-0.058117 0.047403-0.11694 0.066407-0.17773 0.057024-0.18239 0.08789-0.37571 0.08789-0.57617v-2.3086-4.791c0-1.2281-1.0034-2.2363-2.2305-2.2363h-6.6562c-0.16632 0-0.3174-0.092368-0.39258-0.24219l-0.2168-0.43164c-0.32366-0.6435-0.9847-1.0527-1.7051-1.0527h-2.8945zm0 1h2.8945c0.34387 0 0.65518 0.19306 0.81055 0.50195l0.21875 0.43164c0.24342 0.48511 0.74198 0.79297 1.2852 0.79297h6.6562c0.68563 0 1.2305 0.54721 1.2305 1.2363v3.0938c-0.28-0.15717-0.60128-0.24805-0.94336-0.24805h-5.791c-0.53083 0-1.0167 0.21431-1.3672 0.5625-0.31683 0.31411-0.71937 0.59375-0.89648 0.59375h-4.0977c-0.34196 0-0.66337 0.090872-0.94336 0.24805v-6.2676c0-0.53326 0.41307-0.94531 0.94336-0.94531zm6.3613 6.8086h5.791c0.53105 0 0.94336 0.41205 0.94336 0.94531v2.3086c0 0.066752-0.007226 0.13101-0.019531 0.19336-0.012305 0.062353-0.029268 0.12286-0.052734 0.17969-0.023467 0.056827-0.052454 0.10998-0.085938 0.16016-0.024999 0.037461-0.053958 0.072266-0.083984 0.10547-0.020112 0.022247-0.042266 0.042335-0.064453 0.0625-0.033428 0.030363-0.067734 0.060709-0.10547 0.085938-0.050087 0.033486-0.10348 0.062485-0.16016 0.085937-0.056672 0.023452-0.11562 0.040445-0.17774 0.052734-0.062113 0.01229-0.12695 0.019532-0.19336 0.019532h-12.152c-0.066316 0-0.1313-0.007242-0.19336-0.019532-0.062062-0.012289-0.12108-0.029283-0.17773-0.052734s-0.11006-0.052451-0.16016-0.085937c-0.042328-0.028296-0.080303-0.060986-0.11719-0.095704-0.0070616-0.006632-0.014637-0.012678-0.021484-0.019531-0.0055463-0.00555-0.010222-0.011886-0.015625-0.017578-0.035558-0.037543-0.070705-0.077822-0.099609-0.12109-0.033515-0.050174-0.062441-0.10333-0.085938-0.16016-0.023496-0.056828-0.04041-0.11733-0.052734-0.17969-0.012325-0.062354-0.019531-0.12661-0.019531-0.19336v-1.1523c0-0.53326 0.41307-0.94531 0.94336-0.94531h4.0977c0.76285 0 1.2589-0.547 1.5996-0.88477 0.17035-0.16924 0.40066-0.27148 0.66406-0.27148z" color="#000000" fill="#363636" style="-inkscape-stroke:none"/>
</svg>
