<?xml version="1.0" encoding="UTF-8" standalone="no"?>
<svg
   width="16"
   height="16"
   version="1.1"
   viewBox="0 0 16 16"
   id="svg1"
   sodipodi:docname="folder-symbolic.svg"
   inkscape:version="1.3.2 (091e20ef0f, 2023-11-25)"
   xmlns:inkscape="http://www.inkscape.org/namespaces/inkscape"
   xmlns:sodipodi="http://sodipodi.sourceforge.net/DTD/sodipodi-0.dtd"
   xmlns="http://www.w3.org/2000/svg"
   xmlns:svg="http://www.w3.org/2000/svg">
  <sodipodi:namedview
     id="namedview1"
     pagecolor="#ffffff"
     bordercolor="#111111"
     borderopacity="1"
     inkscape:showpageshadow="0"
     inkscape:pageopacity="0"
     inkscape:pagecheckerboard="1"
     inkscape:deskcolor="#d1d1d1"
     inkscape:zoom="25.09375"
     inkscape:cx="3.6463263"
     inkscape:cy="3.0087173"
     inkscape:window-width="1920"
     inkscape:window-height="1011"
     inkscape:window-x="0"
     inkscape:window-y="0"
     inkscape:window-maximized="1"
     inkscape:current-layer="svg1" />
  <defs
     id="defs1">
    <style
       id="current-color-scheme"
       type="text/css">.ColorScheme-Text { color:#363636; } .ColorScheme-Text { color:#363636; }</style>
  </defs>
  <path
     id="path6"
     style="color:#000000;fill:#363636;-inkscape-stroke:none"
     d="M 1.9238281 1.4863281 C 0.85549224 1.4863281 -0.01953125 2.3628846 -0.01953125 3.4316406 L -0.01953125 8.515625 L -0.01953125 12.548828 C -0.01953125 12.749291 0.01131616 12.942608 0.068359375 13.125 C 0.087369797 13.185789 0.11008413 13.244617 0.13476562 13.302734 C 0.1350012 13.30329 0.13452954 13.304132 0.13476562 13.304688 C 0.15926787 13.362237 0.187057 13.418058 0.21679688 13.472656 C 0.54681665 14.079744 1.1888873 14.494141 1.9238281 14.494141 L 14.076172 14.494141 C 14.877082 14.494141 15.568759 14.001241 15.865234 13.304688 C 15.86547 13.304132 15.864999 13.30329 15.865234 13.302734 C 15.889909 13.244617 15.912637 13.185789 15.931641 13.125 C 15.988665 12.942608 16.019531 12.749291 16.019531 12.548828 L 16.019531 7.359375 L 16.019531 5.4492188 C 16.019531 4.2211117 15.016137 3.2128906 13.789062 3.2128906 L 7.1328125 3.2128906 C 6.9664922 3.2128906 6.8154106 3.1205225 6.7402344 2.9707031 L 6.5234375 2.5390625 C 6.1997786 1.8955612 5.5387337 1.4863281 4.8183594 1.4863281 L 1.9238281 1.4863281 z M 1.9238281 2.4863281 L 4.8183594 2.4863281 C 5.1622304 2.4863281 5.4735417 2.6793842 5.6289062 2.9882812 L 5.8476562 3.4199219 C 6.091077 3.9050354 6.5896356 4.2128906 7.1328125 4.2128906 L 13.789062 4.2128906 C 14.474693 4.2128906 15.019531 4.7601021 15.019531 5.4492188 L 15.019531 5.6601562 C 14.739535 5.5027097 14.418254 5.4121094 14.076172 5.4121094 L 8.2851562 5.4121094 C 7.7543294 5.4121094 7.2684419 5.6283706 6.9179688 5.9765625 L 6.9179688 5.9746094 C 6.6011351 6.2887213 6.1986015 6.5683594 6.0214844 6.5683594 L 1.9238281 6.5683594 C 1.5818657 6.5683594 1.2604616 6.6589596 0.98046875 6.8164062 L 0.98046875 3.4316406 C 0.98046875 2.8983796 1.3935361 2.4863281 1.9238281 2.4863281 z M 8.2851562 6.4121094 L 14.076172 6.4121094 C 14.607219 6.4121094 15.019531 6.8261143 15.019531 7.359375 L 15.019531 12.548828 C 15.019531 12.61558 15.012305 12.679834 15 12.742188 C 14.987695 12.804541 14.970732 12.865048 14.947266 12.921875 C 14.923799 12.978702 14.894812 13.031857 14.861328 13.082031 C 14.794341 13.182395 14.7076 13.268903 14.607422 13.335938 C 14.557333 13.369455 14.503932 13.398394 14.447266 13.421875 C 14.390594 13.445327 14.331644 13.46232 14.269531 13.474609 C 14.207418 13.486899 14.142582 13.494141 14.076172 13.494141 L 1.9238281 13.494141 C 1.8575121 13.494141 1.7925303 13.486899 1.7304688 13.474609 C 1.6684072 13.46232 1.6093886 13.445326 1.5527344 13.421875 C 1.4960802 13.398424 1.4426721 13.369424 1.3925781 13.335938 C 1.3424818 13.30242 1.2962945 13.263121 1.2539062 13.220703 C 1.211518 13.178285 1.1721965 13.132213 1.1386719 13.082031 C 1.1051569 13.031857 1.0762305 12.978703 1.0527344 12.921875 C 1.0292382 12.865047 1.0123245 12.804541 1 12.742188 C 0.98767549 12.679834 0.98046875 12.61558 0.98046875 12.548828 L 0.98046875 8.515625 C 0.98046875 7.9823637 1.3935361 7.5683594 1.9238281 7.5683594 L 6.0214844 7.5683594 C 6.7843377 7.5683594 7.2804003 7.0233136 7.6210938 6.6855469 C 7.7914467 6.5163027 8.0217544 6.4121094 8.2851562 6.4121094 z " />
</svg>
