<?xml version="1.0" encoding="UTF-8" standalone="no"?>
<svg
   width="16"
   height="16"
   version="1.1"
   viewBox="0 0 16 16"
   id="svg1"
   sodipodi:docname="folder-remote-symbolic.svg"
   inkscape:version="1.3.2 (091e20ef0f, 2023-11-25)"
   xmlns:inkscape="http://www.inkscape.org/namespaces/inkscape"
   xmlns:sodipodi="http://sodipodi.sourceforge.net/DTD/sodipodi-0.dtd"
   xmlns="http://www.w3.org/2000/svg"
   xmlns:svg="http://www.w3.org/2000/svg">
  <sodipodi:namedview
     id="namedview1"
     pagecolor="#ffffff"
     bordercolor="#111111"
     borderopacity="1"
     inkscape:showpageshadow="0"
     inkscape:pageopacity="0"
     inkscape:pagecheckerboard="1"
     inkscape:deskcolor="#d1d1d1"
     inkscape:zoom="17.743961"
     inkscape:cx="6.002042"
     inkscape:cy="3.9731828"
     inkscape:window-width="1920"
     inkscape:window-height="1011"
     inkscape:window-x="0"
     inkscape:window-y="0"
     inkscape:window-maximized="1"
     inkscape:current-layer="svg1" />
  <defs
     id="defs1">
    <style
       id="current-color-scheme"
       type="text/css">.ColorScheme-Text { color:#363636; } .ColorScheme-Text { color:#363636; }</style>
  </defs>
  <path
     id="path6"
     style="color:#000000;fill:#363636;-inkscape-stroke:none"
     d="M 1.9238281 0.76953125 C 0.85549224 0.76953125 -0.01953125 1.6480407 -0.01953125 2.7167969 L -0.01953125 11.832031 C -0.01953125 12.032494 0.01131616 12.225812 0.068359375 12.408203 C 0.087369797 12.468992 0.11008413 12.52782 0.13476562 12.585938 L 0.13476562 12.587891 C 0.15926787 12.64544 0.187057 12.701261 0.21679688 12.755859 L 0.21679688 12.757812 C 0.5470677 13.36406 1.1895096 13.777344 1.9238281 13.777344 L 7.5 13.777344 L 7.5 14.992188 L 0.515625 14.992188 A 0.50732499 0.50732499 0 0 0 0.0078125 15.5 A 0.50732499 0.50732499 0 0 0 0.515625 16.007812 L 15.484375 16.007812 A 0.50732499 0.50732499 0 0 0 15.992188 15.5 A 0.50732499 0.50732499 0 0 0 15.484375 14.992188 L 8.5 14.992188 L 8.5 13.777344 L 14.076172 13.777344 C 14.81032 13.777344 15.452835 13.361301 15.783203 12.755859 C 15.812935 12.701261 15.840739 12.64544 15.865234 12.587891 L 15.865234 12.585938 C 15.889909 12.52782 15.912637 12.468992 15.931641 12.408203 C 15.988665 12.225811 16.019531 12.032494 16.019531 11.832031 L 16.019531 6.6425781 L 16.019531 4.7324219 C 16.019531 3.5043148 15.016137 2.4980469 13.789062 2.4980469 L 7.1328125 2.4980469 C 6.9664922 2.4980469 6.8154106 2.4056787 6.7402344 2.2558594 L 6.7402344 2.2539062 L 6.5234375 1.8222656 C 6.1997786 1.1787645 5.5387337 0.76953125 4.8183594 0.76953125 L 1.9238281 0.76953125 z M 1.9238281 1.7695312 L 4.8183594 1.7695312 C 5.1622304 1.7695312 5.4735417 1.9625873 5.6289062 2.2714844 L 5.8476562 2.703125 C 6.091077 3.1882385 6.5896356 3.4980469 7.1328125 3.4980469 L 13.789062 3.4980469 C 14.474693 3.4980469 15.019531 4.0433052 15.019531 4.7324219 L 15.019531 4.9433594 C 14.739535 4.7859128 14.418254 4.6953125 14.076172 4.6953125 L 8.2851562 4.6953125 C 7.7543294 4.6953125 7.2684419 4.9115738 6.9179688 5.2597656 C 6.6011351 5.5738776 6.1986015 5.8535156 6.0214844 5.8535156 L 1.9238281 5.8535156 C 1.5818657 5.8535156 1.2604616 5.944388 0.98046875 6.1015625 L 0.98046875 2.7167969 C 0.98046875 2.1835357 1.3935361 1.7695312 1.9238281 1.7695312 z M 8.2851562 5.6953125 L 14.076172 5.6953125 C 14.607219 5.6953125 15.019531 6.1093175 15.019531 6.6425781 L 15.019531 11.832031 C 15.019531 12.032287 14.96178 12.214711 14.861328 12.365234 C 14.760847 12.51578 14.617265 12.634635 14.447266 12.705078 C 14.333922 12.751981 14.208993 12.777344 14.076172 12.777344 L 1.9238281 12.777344 C 1.72488 12.777344 1.54286 12.7196 1.3925781 12.619141 C 1.2923856 12.552106 1.2057212 12.465598 1.1386719 12.365234 C 1.038127 12.214711 0.98046875 12.032287 0.98046875 11.832031 L 0.98046875 7.7988281 C 0.98046875 7.265567 1.3935361 6.8535156 1.9238281 6.8535156 L 6.0214844 6.8535156 C 6.7843377 6.8535156 7.2804003 6.3065168 7.6210938 5.96875 C 7.7914467 5.7995059 8.0217544 5.6953125 8.2851562 5.6953125 z " />
</svg>
