<?xml version="1.0" encoding="UTF-8" standalone="no"?>
<svg
   width="16"
   height="16"
   version="1.1"
   viewBox="0 0 16 16"
   id="svg1"
   sodipodi:docname="folder-new-symbolic.svg"
   inkscape:version="1.3.2 (091e20ef0f, 2023-11-25)"
   xmlns:inkscape="http://www.inkscape.org/namespaces/inkscape"
   xmlns:sodipodi="http://sodipodi.sourceforge.net/DTD/sodipodi-0.dtd"
   xmlns="http://www.w3.org/2000/svg"
   xmlns:svg="http://www.w3.org/2000/svg">
  <sodipodi:namedview
     id="namedview1"
     pagecolor="#ffffff"
     bordercolor="#111111"
     borderopacity="1"
     inkscape:showpageshadow="0"
     inkscape:pageopacity="0"
     inkscape:pagecheckerboard="1"
     inkscape:deskcolor="#d1d1d1"
     inkscape:zoom="35.487922"
     inkscape:cx="9.7075282"
     inkscape:cy="7.9604549"
     inkscape:window-width="1920"
     inkscape:window-height="1011"
     inkscape:window-x="0"
     inkscape:window-y="0"
     inkscape:window-maximized="1"
     inkscape:current-layer="svg1" />
  <defs
     id="defs1">
    <style
       id="current-color-scheme"
       type="text/css">.ColorScheme-Text { color:#363636; } .ColorScheme-Text { color:#363636; }</style>
  </defs>
  <path
     d="M 2,2 C 0.892,2 0,2.892 0,4 v 9 c 0,1.108 0.892,2 2,2 h 12 c 1.108,0 2,-0.892 2,-2 V 5 C 16,3.892 15.108,3 14,3 H 12 6.3711 C 5.79125,2.9771 5.76636,3.076886 5.332,2.64258 4.89819,2.20877 4.71903,2.00045 4,2 Z m 0,1 h 2 c 0.31116,-1.7e-6 0.52033,1.383e-4 0.99805,0.4707 C 5.47682,3.94231 5.63685,4 5.99805,4 h 6.002 2 c 0.554,0 1,0.446 1,1 v 1 h -14 V 4 c 0,-0.554 0.446,-1 1,-1 z M 1,7 h 14 v 6 c 0,0.554 -0.446,1 -1,1 H 2 C 1.446,14 1,13.554 1,13 Z"
     style="display:none;fill:#ff0303;fill-opacity:1"
     class="ColorScheme-Text"
     id="path1" />
  <path
     id="path6"
     style="color:#000000;fill:#363636;-inkscape-stroke:none"
     d="M 1.9238281 1.4863281 C 0.85549333 1.4863281 -0.01953125 2.3628857 -0.01953125 3.4316406 L -0.01953125 8.515625 L -0.01953125 12.548828 C -0.01953125 12.816017 0.036039729 13.070265 0.13476562 13.302734 L 0.13476562 13.304688 C 0.15926785 13.362236 0.18705702 13.418058 0.21679688 13.472656 L 0.21679688 13.474609 C 0.54725037 14.080051 1.1899381 14.494141 1.9238281 14.494141 L 8.4824219 14.494141 A 4.5024595 4.5024595 0 0 1 8.125 13.494141 L 1.9238281 13.494141 C 1.8575122 13.494141 1.7925302 13.486899 1.7304688 13.474609 C 1.6684072 13.46232 1.6093885 13.445326 1.5527344 13.421875 C 1.4960857 13.398394 1.4426744 13.369454 1.3925781 13.335938 C 1.3424819 13.30242 1.2962945 13.263121 1.2539062 13.220703 C 1.1691298 13.135868 1.0997451 13.035495 1.0527344 12.921875 C 1.0292382 12.865047 1.0123245 12.80454 1 12.742188 C 0.9876755 12.679834 0.98046875 12.61558 0.98046875 12.548828 L 0.98046875 8.515625 C 0.98046875 7.9823642 1.3935367 7.5683594 1.9238281 7.5683594 L 6.0214844 7.5683594 C 6.7843369 7.5683594 7.2804006 7.0233132 7.6210938 6.6855469 C 7.7914465 6.5163028 8.0217547 6.4121094 8.2851562 6.4121094 L 14.076172 6.4121094 C 14.607218 6.4121094 15.019531 6.8261148 15.019531 7.359375 L 15.019531 8.7519531 A 4.5024595 4.5024595 0 0 1 16.019531 9.6738281 L 16.019531 7.359375 L 16.019531 5.4492188 C 16.019531 4.2211129 15.016136 3.2128906 13.789062 3.2128906 L 7.1328125 3.2128906 C 6.9664924 3.2128906 6.8154105 3.1205224 6.7402344 2.9707031 L 6.5234375 2.5390625 C 6.1997789 1.8955618 5.538733 1.4863281 4.8183594 1.4863281 L 1.9238281 1.4863281 z M 1.9238281 2.4863281 L 4.8183594 2.4863281 C 5.16223 2.4863281 5.4735419 2.6793846 5.6289062 2.9882812 L 5.8476562 3.4199219 C 6.0910768 3.9050349 6.5896361 4.2128906 7.1328125 4.2128906 L 13.789062 4.2128906 C 14.474693 4.2128906 15.019531 4.7601027 15.019531 5.4492188 L 15.019531 5.6601562 C 14.739536 5.5027099 14.418254 5.4121094 14.076172 5.4121094 L 8.2851562 5.4121094 C 7.75433 5.4121094 7.2684415 5.6283709 6.9179688 5.9765625 L 6.9179688 5.9746094 C 6.6011354 6.288721 6.1986013 6.5683594 6.0214844 6.5683594 L 1.9238281 6.5683594 C 1.5818661 6.5683594 1.2604613 6.6589598 0.98046875 6.8164062 L 0.98046875 3.4316406 C 0.98046875 2.8983802 1.3935367 2.4863281 1.9238281 2.4863281 z " />
  <path
     d="m 12.50246,8.9658585 a 3.5,3.5 0 0 0 -3.5000005,3.5000005 3.5,3.5 0 0 0 3.5000005,3.5 3.5,3.5 0 0 0 3.5,-3.5 3.5,3.5 0 0 0 -3.5,-3.5000005 z m 0,1 c 0.277,0 0.5,0.2229995 0.5,0.4999995 v 1.500001 h 1.5 c 0.277,0 0.5,0.223 0.5,0.5 0,0.277 -0.223,0.5 -0.5,0.5 h -1.5 v 1.5 c 0,0.277 -0.223,0.5 -0.5,0.5 -0.277,0 -0.5,-0.223 -0.5,-0.5 v -1.5 h -1.5 c -0.277,0 -0.5,-0.223 -0.5,-0.5 0,-0.277 0.223,-0.5 0.5,-0.5 h 1.5 v -1.500001 c 0,-0.277 0.223,-0.4999995 0.5,-0.4999995 z"
     style="color:#363636;display:inline;fill:currentColor"
     class="ColorScheme-Text"
     id="path2" />
  <path
     d="m 12.50246,8.9658585 c -1.933,0 -3.5,1.5670005 -3.5,3.5000005 0,1.932999 1.567,3.5 3.5,3.5 1.933,0 3.5,-1.567001 3.5,-3.5 0,-1.933 -1.567,-3.5000005 -3.5,-3.5000005 z m -1,1 c 0.277,0 0.5,0.2230005 0.5,0.5000005 v 2.5 h 2.5 c 0.277,0 0.5,0.223 0.5,0.5 0,0.276999 -0.223,0.5 -0.5,0.5 h -3 c -0.277,0 -0.5,-0.223001 -0.5,-0.5 v -3 c 0,-0.277 0.223,-0.5000005 0.5,-0.5000005 z"
     style="color:#363636;display:none;fill:currentColor"
     class="ColorScheme-Text"
     id="path2-7" />
  <path
     d="m 10.966398,6.7633317 a 2.8914714,2.8914714 0 0 0 -1.8378198,0.8390225 2.8914714,2.8914714 0 0 0 0,4.0887058 2.8914714,2.8914714 0 0 0 3.7756838,0.271072 h 0.0016 l 1.187569,1.18922 0.584101,-0.584102 -1.189222,-1.189221 A 2.8914714,2.8914714 0 0 0 13.217292,7.6023459 2.8914714,2.8914714 0 0 0 10.966407,6.7633235 Z m 0.02743,0.8212935 a 2.0549274,2.0549274 0 0 1 1.632936,0.5953953 2.0549274,2.0549274 0 0 1 -0.0016,2.9060115 2.0549274,2.0549274 0 0 1 -2.9043597,0 2.0549274,2.0549274 0 0 1 -0.00165,-2.9060115 2.0549274,2.0549274 0 0 1 1.2747267,-0.5953953 z"
     fill="#363636"
     id="path1-2"
     style="display:none;stroke-width:0.963589;stroke-dasharray:none" />
  <g
     id="g5"
     transform="translate(6.2982476,-8.9833884)"
     style="display:none">
    <circle
       style="fill:none;stroke:#363636;stroke-width:1;stroke-linecap:round;stroke-linejoin:round;stroke-dasharray:none"
       id="path3"
       cx="11.159636"
       cy="9.6449251"
       r="2.383873" />
    <path
       style="fill:none;stroke:#363636;stroke-width:1;stroke-linecap:round;stroke-linejoin:round;stroke-dasharray:none"
       d="m 12.850411,11.32544 1.222026,1.222027"
       id="path4" />
  </g>
</svg>
