<?xml version="1.0" encoding="UTF-8"?>
<svg id="svg1" version="1.1" viewBox="0 0 32 32" xmlns="http://www.w3.org/2000/svg">
 <defs id="defs1">
  <style id="current-color-scheme" type="text/css">.ColorScheme-Text {
        color:#363636;
      }
      .ColorScheme-Highlight {
        color:#3daee9;
      }</style>
 </defs>
 <path id="path1-5" d="m16 11.505a4.4947 4.4947 0 0 0-4.4947 4.4947 4.4947 4.4947 0 0 0 4.4947 4.4947 4.4947 4.4947 0 0 0 4.4947-4.4947 4.4947 4.4947 0 0 0-4.4947-4.4947zm0 1.4982a2.9965 2.9965 0 0 1 2.9965 2.9965 2.9965 2.9965 0 0 1-2.9965 2.9965 2.9965 2.9965 0 0 1-2.9965-2.9965 2.9965 2.9965 0 0 1 2.9965-2.9965z" fill="#363636" stroke-width="1.4982" style="paint-order:fill markers stroke"/>
 <path id="path2" d="m15.131 4.0142c-0.33391 0-0.80227 0.092405-1.191 0.41846-0.3887 0.32605-0.57453 0.80593-0.62036 1.15l0.02926-0.15216-0.5121 2.1303c-0.20884 0.076665-0.4055 0.15923-0.6028 0.24874l-1.8553-1.1354a1.4984 1.4984 0 0 0-0.01169-0.00586c-0.26756-0.1607-0.71056-0.32772-1.188-0.26922-0.47749 0.058512-0.83155 0.30702-1.0359 0.49454a1.4984 1.4984 0 0 0-0.03804 0.035116l-1.229 1.2085a1.4984 1.4984 0 0 0-0.055599 0.055599c-0.23179 0.25313-0.46451 0.68327-0.4916 1.1354-0.027088 0.45211 0.12268 0.82088 0.26044 1.0622a1.4984 1.4984 0 0 0 0.02926 0.04682l1.1529 1.8581c-0.082897 0.18109-0.14852 0.37351-0.22532 0.57648l-2.1098 0.49746a1.4984 1.4984 0 0 0-0.020481 0.0028c-0.24255 0.06072-0.65873 0.20244-0.99199 0.6028-0.33327 0.40043-0.40967 0.8896-0.40967 1.1881v1.7206c0 0.33349 0.09295 0.79913 0.41846 1.1881 0.32551 0.38892 0.80263 0.57433 1.1471 0.62036l-0.14924-0.02634 2.1332 0.50916c0.070147 0.18771 0.14002 0.36819 0.21946 0.54428l-1.1559 1.8845c-0.15426 0.2508-0.32124 0.64207-0.28092 1.1266 0.040317 0.48453 0.31861 0.93184 0.58818 1.1793l1.1734 1.1734c0.23134 0.23166 0.61303 0.48627 1.0856 0.54428 0.4726 0.05801 0.91361-0.10019 1.1881-0.26922l1.8758-1.1559c0.18604 0.08612 0.37234 0.16689 0.56769 0.23996l0.5238 2.1449-0.02926-0.15802c0.04641 0.34846 0.25262 0.85805 0.6584 1.1764 0.40578 0.3183 0.84854 0.38042 1.1529 0.38042h1.7499c0.30441 0 0.76819-0.07542 1.1646-0.39504 0.39645-0.31962 0.57032-0.77116 0.62914-1.0652l-0.01169 0.06144 0.5238-2.142c0.19565-0.07395 0.38364-0.15432 0.5677-0.23996l1.8611 1.1529a1.4984 1.4984 0 0 0 3e-3 0c0.27457 0.1692 0.71547 0.32721 1.1881 0.26922 0.47259-0.05801 0.85428-0.31267 1.0856-0.54428a1.4984 1.4984 0 0 0 0.0058-3e-3l1.1676-1.1822c0.25296-0.23211 0.54616-0.67981 0.58818-1.1734 0.04201-0.49361-0.12434-0.86339-0.25458-1.0915a1.4984 1.4984 0 0 0-0.02634-0.0439l-1.1529-1.8669c0.08057-0.17577 0.1511-0.35614 0.2224-0.54428l2.139-0.5121-0.14924 0.02634c0.34886-0.04662 0.85573-0.25248 1.1734-0.6584s0.38042-0.84596 0.38042-1.15v-1.7206c0-0.27072-0.046-0.7278-0.37164-1.1471-0.32564-0.4193-0.76862-0.58125-1.0183-0.64378a1.4984 1.4984 0 0 0-0.02048-3e-3l-2.1098-0.49746c-0.07902-0.20518-0.14235-0.39959-0.22532-0.5794l1.1295-1.8347c0.15739-0.24504 0.34084-0.62938 0.31022-1.1295-0.030624-0.50014-0.32149-0.96705-0.5911-1.2144l-1.1851-1.1646c-0.21667-0.21687-0.60523-0.48576-1.0827-0.54428-0.47747-0.058522-0.87951 0.094914-1.1237 0.22532a1.4984 1.4984 0 0 0-0.07608 0.043894l-1.8494 1.1354c-0.18786-0.086762-0.38397-0.16158-0.58818-0.23996l-0.50332-2.0659c-0.054535-0.29073-0.21444-0.743-0.61453-1.0768-0.40007-0.33378-0.88062-0.4126-1.1851-0.4126h-1.7499zm0 1.4982h1.7499c0.19721 0 0.28997 0.080471 0.32482 0.26628l0.69644 2.8706c0.7541 0.18583 1.4391 0.49707 2.0192 0.82227l2.4844-1.5216c0.17398-0.09292 0.29968-0.080844 0.43894 0.058521l1.229 1.2085c0.13926 0.12775 0.13953 0.26755 0.03512 0.43016l-1.5304 2.4844c0.27839 0.52264 0.62768 1.2438 0.80179 2.022l2.8531 0.67304c0.18559 0.04646 0.25458 0.12745 0.25458 0.33652v1.7206c0 0.19742-0.0806 0.30156-0.25458 0.32482l-2.8648 0.68474c-0.17411 0.73168-0.48865 1.4411-0.8135 1.987l1.5421 2.4961c0.0928 0.16253 0.09244 0.29067-0.04682 0.41846l-1.2173 1.2319c-0.13926 0.13941-0.2794 0.14849-0.43016 0.0556l-2.4932-1.5421c-0.58 0.36008-1.2417 0.64805-2.0073 0.83398l-0.69644 2.8589c-0.03485 0.17417-0.1276 0.25458-0.32482 0.25458h-1.7499c-0.19721 0-0.30161-0.08041-0.32482-0.25458l-0.69644-2.8589c-0.73088-0.17429-1.439-0.47389-2.0073-0.83398l-2.5049 1.5421c-0.15083 0.09289-0.29093 0.08381-0.43016-0.0556l-1.2173-1.2202c-0.13922-0.12778-0.13964-0.26752-0.04682-0.41846l1.5421-2.5077c-0.32483-0.55737-0.62777-1.2552-0.80179-1.987l-2.8648-0.68474c-0.17404-0.023252-0.26629-0.12739-0.26629-0.32482v-1.7206c0-0.20905 0.08065-0.29004 0.26628-0.33652l2.8559-0.67304c0.17402-0.77815 0.50884-1.4994 0.79886-2.022l-1.5421-2.4844c-0.092816-0.1626-0.092501-0.30251 0.035118-0.44186l1.229-1.2085c0.13922-0.12775 0.26784-0.15135 0.44186-0.04682l2.4814 1.5216c0.52207-0.32519 1.3-0.64815 2.0425-0.83398l0.68474-2.8589c0.02321-0.1742 0.1276-0.26628 0.32482-0.26628z" color="#000000" fill="#363636" stroke-linecap="round" stroke-linejoin="round" stroke-width="1.4982" style="-inkscape-stroke:none"/>
</svg>
