<?xml version="1.0" encoding="UTF-8"?>
<svg viewBox="0 0 32 32" xmlns="http://www.w3.org/2000/svg">
 <radialGradient id="a" cx="9.875" cy="15.125" r="14" gradientTransform="matrix(0 2.1429 -2.1429 0 42.411 -11.161)" gradientUnits="userSpaceOnUse">
  <stop stop-color="#fc9" offset="0"/>
  <stop stop-color="#feb01b" offset="1"/>
 </radialGradient>
 <radialGradient id="b" cx="9.875" cy="15.125" r="14" gradientTransform="matrix(0 2.1429 -2.1429 0 42.411 -11.161)" gradientUnits="userSpaceOnUse">
  <stop stop-color="#f9917f" offset="0"/>
  <stop stop-color="#fa3033" offset="1"/>
 </radialGradient>
 <radialGradient id="c" cx="9.875" cy="15.125" r="14" gradientTransform="matrix(0 2.1429 -2.1429 0 42.411 -11.161)" gradientUnits="userSpaceOnUse">
  <stop stop-color="#7dd89b" offset="0"/>
  <stop stop-color="#0ddb6e" offset="1"/>
 </radialGradient>
 <radialGradient id="d" cx="9.875" cy="15.125" r="14" gradientTransform="matrix(0 2.1429 -2.1429 0 42.411 -10.161)" gradientUnits="userSpaceOnUse">
  <stop stop-color="#81c6d6" offset="0"/>
  <stop stop-color="#279dd8" offset="1"/>
 </radialGradient>
 <g transform="matrix(1 0 0 .97754 0 .35179)" stroke-linejoin="round">
  <path d="m16 2c-7.732 0-14 6.268-14 14 4.675e-4 5.0013 2.6688 9.6224 7 12.123l7.0002-11.123 7-12.123-2.5e-4 -0.99955c-2.1281-1.2292-4.5424-1.8766-7-1.877z" fill="url(#c)"/>
  <path d="m3.877 9c-1.2292 2.1281-1.8766 4.5424-1.877 7 0 7.732 6.268 14 14 14 4.7275-4.42e-4 9.1154-2.3847 11.694-6.3038 0.0184-0.03629-0.02708-0.95998-0.02708-0.95998z" fill="url(#b)"/>
  <path d="m12.377 2.4785a14 14 0 0 0-10.377 13.521 14 14 0 0 0 14 14 14 14 0 0 0 3.623-0.47852z" fill="url(#a)"/>
  <path d="m24.66 5-5.9297 10.27v1l10.268 5.9277c0.66141-1.653 1.0015-3.4169 1.002-5.1973v-1c-2.4e-5 -4.2913-1.9681-8.3455-5.3398-11z" fill="url(#d)"/>
  <path d="m23 3.877-7 12.123 0.43359 0.25 6.5664-11.373zm-4.2695 11.393v1l10.268 5.9277c0.66141-1.653 1.0015-3.4169 1.002-5.1973-1e-6 -0.15362-0.02037-0.30408-0.02539-0.45703-0.06249 1.5948-0.38264 3.17-0.97656 4.6543zm-16.711 0.26172c-0.00605 0.16139-0.0093 0.32287-0.00977 0.48438 0 7.732 6.268 14 14 14 5.1875 0 9.5316-2.9009 11.702-6.3558l-0.0184 0.03629-0.02708-0.95998c-2.522 3.7147-6.8478 6.279-11.657 6.2794-7.5312-1.44e-4 -13.713-5.9583-13.99-13.484z" fill-opacity=".14902"/>
 </g>
</svg>
