<?xml version="1.0" encoding="UTF-8"?>
<svg width="32px" height="32px" viewBox="0 0 32 32" xmlns="http://www.w3.org/2000/svg">
 <path d="m7.9883 6c-1.1094 0-2 0.89062-2 2s0.89062 2 2 2 2-0.89062 2-2-0.89062-2-2-2zm8 0c-1.1094 0-2 0.89062-2 2s0.89062 2 2 2 2-0.89062 2-2-0.89062-2-2-2zm8 0c-1.1094 0-2 0.89062-2 2s0.89062 2 2 2 2-0.89062 2-2-0.89062-2-2-2zm-16 8c-1.1094 0-2 0.89062-2 2s0.89062 2 2 2 2-0.89062 2-2-0.89062-2-2-2zm8 0c-1.1094 0-2 0.89062-2 2s0.89062 2 2 2 2-0.89062 2-2-0.89062-2-2-2zm8 0c-1.1094 0-2 0.89062-2 2s0.89062 2 2 2 2-0.89062 2-2-0.89062-2-2-2zm-16 8c-1.1094 0-2 0.89062-2 2s0.89062 2 2 2 2-0.89062 2-2-0.89062-2-2-2zm8 0c-1.1094 0-2 0.89062-2 2s0.89062 2 2 2 2-0.89062 2-2-0.89062-2-2-2zm8 0c-1.1094 0-2 0.89062-2 2s0.89062 2 2 2 2-0.89062 2-2-0.89062-2-2-2z" fill="#363636"/>
</svg>
