<?xml version="1.0" encoding="UTF-8" standalone="no"?>
<svg
   width="16"
   height="16"
   version="1.1"
   id="svg2"
   sodipodi:docname="am-system-monitor-symbolic.svg"
   inkscape:version="1.4.2 (ebf0e940d0, 2025-05-08)"
   xmlns:inkscape="http://www.inkscape.org/namespaces/inkscape"
   xmlns:sodipodi="http://sodipodi.sourceforge.net/DTD/sodipodi-0.dtd"
   xmlns="http://www.w3.org/2000/svg"
   xmlns:svg="http://www.w3.org/2000/svg">
  <defs
     id="defs2" />
  <sodipodi:namedview
     id="namedview2"
     pagecolor="#ffffff"
     bordercolor="#111111"
     borderopacity="1"
     inkscape:showpageshadow="0"
     inkscape:pageopacity="0"
     inkscape:pagecheckerboard="1"
     inkscape:deskcolor="#d1d1d1"
     inkscape:zoom="72.375"
     inkscape:cx="8"
     inkscape:cy="8"
     inkscape:window-width="2560"
     inkscape:window-height="1371"
     inkscape:window-x="0"
     inkscape:window-y="0"
     inkscape:window-maximized="1"
     inkscape:current-layer="svg2" />
  <path
     d="m 9.528333,4.0232868 c 0.303334,-0.093333 0.653334,0.105 0.735,0.3966667 l 1.668334,5.4716666 H 15 V 11.058287 H 11.5 C 11.2536,11.04977 11.036857,10.892982 10.951667,10.66162 L 9.715,6.6132868 7.93,12.948287 c -0.1283333,0.408333 -0.77,0.525 -1.0266667,0.186666 L 5.375,11.058287 H 1 V 9.8916201 h 4.6666667 c 0.1866666,0 0.3733333,0.105 0.4783333,0.2566669 L 7.16,11.53662 9.131667,4.4199535 C 9.19,4.2332868 9.341667,4.0816201 9.528333,4.0232868 Z"
     fill="#363636"
     id="path1"
     style="stroke-width:1.16667" />
  <path
     d="M 2.2857143,0 C 1.0194286,0 0,1.0194286 0,2.2857143 V 13.714286 C 0,14.980571 1.0194286,16 2.2857143,16 H 13.714286 C 14.980571,16 16,14.980571 16,13.714286 V 2.2857143 C 16,1.0194286 14.980571,0 13.714286,0 Z m 0,1.1428571 H 13.714286 c 0.633143,0 1.142857,0.5097143 1.142857,1.1428572 V 13.714286 c 0,0.633143 -0.509714,1.142857 -1.142857,1.142857 H 2.2857143 c -0.6331429,0 -1.1428572,-0.509714 -1.1428572,-1.142857 V 2.2857143 c 0,-0.6331429 0.5097143,-1.1428572 1.1428572,-1.1428572 z"
     fill="#363636"
     id="path2"
     style="stroke-width:1.14286" />
</svg>
