<?xml version="1.0" encoding="UTF-8" standalone="no"?>
<svg
   width="16px"
   height="16px"
   version="1.1"
   viewBox="0 0 16 16"
   id="svg1"
   sodipodi:docname="application-exit-rtl-symbolic.svg"
   inkscape:version="1.4.2 (ebf0e940d0, 2025-05-08)"
   xmlns:inkscape="http://www.inkscape.org/namespaces/inkscape"
   xmlns:sodipodi="http://sodipodi.sourceforge.net/DTD/sodipodi-0.dtd"
   xmlns="http://www.w3.org/2000/svg"
   xmlns:svg="http://www.w3.org/2000/svg">
  <defs
     id="defs1" />
  <sodipodi:namedview
     id="namedview1"
     pagecolor="#ffffff"
     bordercolor="#111111"
     borderopacity="1"
     inkscape:showpageshadow="0"
     inkscape:pageopacity="0"
     inkscape:pagecheckerboard="1"
     inkscape:deskcolor="#d1d1d1"
     showguides="true"
     inkscape:zoom="72.375"
     inkscape:cx="8"
     inkscape:cy="8"
     inkscape:window-width="2560"
     inkscape:window-height="1371"
     inkscape:window-x="0"
     inkscape:window-y="0"
     inkscape:window-maximized="1"
     inkscape:current-layer="svg1" />
  <path
     d="M 8.5332047,0.5 C 6.760435,0.5 5.3332593,1.9271756 5.3332593,3.6999454 V 5.8332423 H 6.3999078 V 3.6999454 c 0,-1.1818465 0.9514504,-2.1332969 2.1332969,-2.1332969 h 4.2665943 c 1.181846,0 2.133296,0.9514504 2.133296,2.1332969 v 8.5331876 c 0,1.181846 -0.95145,2.133297 -2.133296,2.133297 H 8.5332047 c -1.1818465,0 -2.1332969,-0.951451 -2.1332969,-2.133297 V 10.099836 H 5.3332593 v 2.133297 c 0,1.77277 1.4271757,3.199945 3.1999454,3.199945 h 4.2665943 c 1.772769,0 3.199945,-1.427175 3.199945,-3.199945 V 3.6999454 C 15.999744,1.9271756 14.572568,0.5 12.799799,0.5 Z M 3.5499298,4.4144932 c -0.1363284,0 -0.272614,0.053869 -0.3770816,0.1583333 L 0.15625974,7.5894149 c -0.0130579,0.013058 -0.0239911,0.025591 -0.0354159,0.039582 v 0.00208 c -0.002792,0.00344 -0.005632,0.00693 -0.008333,0.010416 -0.01323391,0.017131 -0.02431639,0.035457 -0.03541593,0.054165 -0.0021378,0.00352 -0.0041976,0.00686 -0.0062499,0.010416 -0.01117954,0.019871 -0.02264602,0.039054 -0.0312496,0.060416 -0.0021989,0.00546 -0.0042278,0.011118 -0.0062499,0.016666 -0.00856,0.02255 -0.0155432,0.045451 -0.02083271,0.068749 -0.00422308,0.019488 -0.00837405,0.040184 -0.01041646,0.060416 -6.87e-5,6.846e-4 6.583e-5,0.0014 0,0.00208 v 0.00208 c -0.003071952,0.033289 -0.00319995,0.066719 0,0.099998 v 0.00208 c 0.00203292,0.020947 0.00604928,0.042346 0.01041646,0.062499 0.006637,0.029614 0.01525094,0.059115 0.02708327,0.087498 0.0047428,0.011651 0.01114221,0.022115 0.01666638,0.033333 0.0078457,0.015635 0.01555387,0.030848 0.02500011,0.045833 0.0089948,0.014462 0.01886687,0.028181 0.02916643,0.041666 0.003343,0.00435 0.006929,0.00823 0.0104165,0.0125 v 0.00208 c 0.0111401,0.01356 0.0227377,0.026904 0.0354159,0.039582 L 3.1728496,11.360157 c 0.2089244,0.208924 0.545228,0.208924 0.7541525,0 0.2089244,-0.208925 0.2089244,-0.545228 0,-0.754153 L 1.820798,8.4998001 h 8.312391 c 0.295462,0 0.533325,-0.2378626 0.533325,-0.5333242 0,-0.2954616 -0.237863,-0.5333242 -0.533325,-0.5333242 H 1.820798 l 2.1062041,-2.106204 c 0.2089244,-0.2089245 0.2089244,-0.5452281 0,-0.7541525 C 3.8225409,4.4683341 3.6862488,4.4144619 3.5499205,4.4144619 Z"
     fill="#363636"
     id="path1"
     style="stroke-width:1.06665" />
</svg>
