<?xml version="1.0" encoding="UTF-8"?>
<svg id="svg1" width="16" height="16" version="1.1" xmlns="http://www.w3.org/2000/svg" xmlns:xlink="http://www.w3.org/1999/xlink">
 <style id="s2">@import "../../highlights.css";</style>
 <g id="distribute-vertical-center" transform="translate(-721.33 -497.58) scale(.66667)">
  <use id="use18859" transform="matrix(0 1 .54162 0 698.34 -285.64)" width="1250" height="1250" xlink:href="#path5265"/>
  <g id="g872" transform="translate(-.278 -.814)">
   <path id="path6" d="m1106.3 756.18-3-4.5-3 4.5zm0 6h-6l3 4.5zm-4.5-10.5h-3v-4.5h-10.5v4.5h-6v1.5h6v4.5h10.5v-4.5h3zm0 13.5h-3v-4.5h-13.5v4.5h-3v1.5h3v4.5h13.5v-4.5h3zm-4.5-16.5v7.5h-7.5v-7.5zm0 13.5v7.5h-10.5v-7.5z" fill="#363636"/>
  </g>
 </g>
</svg>
