<?xml version="1.0" encoding="UTF-8"?>
<svg width="16" height="16" xmlns="http://www.w3.org/2000/svg">
 <path d="M0 0v.334C4.49 1.792-.65 7.975.594 13c1.403 5.667 4.184 1.334 4.184 1.334s-.119-1.667-.28-1c0 0-1.836 2.666-2.501-.667C.88 7.082 10.383 0 0 0Z" fill="#363636" stroke-width=".66615"/>
 <path class="ColorScheme-Text" d="M12.988 2.333 6.33 9l-.665.667-.666.666V13h2.664l.665-.667.666-.666 1.997-2L15.65 5zm0 .938L14.714 5l-1.331 1.333-4.535 4.521-.52-.52-1.186-1.188 4.514-4.542Zm-5.68 6.958.459.458-1.644 1.646h-.457v-.458z" color="#363636" fill="currentColor"/>
</svg>
