<?xml version="1.0" encoding="UTF-8"?>
<svg width="16" height="16" xmlns="http://www.w3.org/2000/svg">
 <path d="M12 1.969V6H8V5h3V2z" fill="#363636"/>
 <path d="m11 0a5 5 0 0 0-5 5 5 5 0 0 0 5 5 5 5 0 0 0 5-5 5 5 0 0 0-5-5zm0 1a4 4 0 0 1 4 4 4 4 0 0 1-4 4 4 4 0 0 1-4-4 4 4 0 0 1 4-4z" fill="#363636" stroke-linecap="round" stroke-linejoin="round" style="paint-order:stroke fill markers"/>
 <rect transform="rotate(-45)" x="-7.071" y="7.071" width="6" height="1" rx="0" ry="0" fill="#363636" stroke-linecap="round" stroke-linejoin="round" stroke-width=".86602" style="paint-order:stroke fill markers"/>
 <rect transform="scale(1 -1) rotate(-45)" x="7.071" y="-7.071" width="6" height="1" rx="0" ry="0" fill="#363636" stroke-linecap="round" stroke-linejoin="round" stroke-width=".86602" style="paint-order:stroke fill markers"/>
 <path d="M1 9.5v1h7.623a6 6 0 0 1-1.588-1H1zm9 1.408V16.5h1V11a6 6 0 0 1-1-.092z" fill="#363636" stroke-linecap="round" stroke-linejoin="round" stroke-width="1.0541" style="paint-order:stroke fill markers"/>
</svg>
