<?xml version="1.0" encoding="UTF-8"?>
<svg width="16" height="16" xmlns="http://www.w3.org/2000/svg">
 <path d="M1 13h14v1H1z" fill="#363636" stroke-linecap="round" stroke-linejoin="round"/>
 <path d="m5.879 3.172-.707.707L7.293 6 5.172 8.121l.707.707L8 6.707l2.121 2.121.707-.707L8.707 6l2.121-2.121-.707-.707L8 5.293Z" fill="#363636" stroke-linecap="square" stroke-width="2" style="paint-order:stroke fill markers"/>
 <path d="m8 0a6 6 0 0 0-6 6 6 6 0 0 0 6 6 6 6 0 0 0 6-6 6 6 0 0 0-6-6zm0 1a5 5 0 0 1 5 5 5 5 0 0 1-5 5 5 5 0 0 1-5-5 5 5 0 0 1 5-5z" fill="#363636" stroke-linecap="round" stroke-linejoin="round" stroke-width="1.2"/>
</svg>
