<?xml version="1.0" encoding="UTF-8"?>
<svg id="svg1" width="16" height="16" version="1.1" viewBox="0 0 16 16" xmlns="http://www.w3.org/2000/svg">
 <defs id="defs1">
  <style id="current-color-scheme" type="text/css">.ColorScheme-Text { color:#363636; } .ColorScheme-Text { color:#363636; }</style>
 </defs>
 <path id="path6" d="m1.9238 0c-1.0683 0-1.9434 0.87656-1.9434 1.9453v9.1172c0 0.26719 0.055571 0.52144 0.1543 0.75391v2e-3c0.024502 0.05755 0.052291 0.11337 0.082031 0.16797v2e-3c0.33045 0.60544 0.97314 1.0195 1.707 1.0195h6.5586a4.5025 4.5025 0 0 1-0.35742-1h-6.2012c-0.066316 0-0.1313-0.0072-0.19336-0.01953-0.062062-0.01229-0.12108-0.02928-0.17773-0.05273-0.056649-0.02348-0.11006-0.05242-0.16016-0.08594-0.050096-0.03352-0.096284-0.07282-0.13867-0.11524-0.084776-0.084931-0.15416-0.1853-0.20117-0.29892-0.023496-0.056828-0.04041-0.11734-0.052734-0.17969-0.012324-0.062354-0.019531-0.12661-0.019531-0.19336v-4.0332c0-0.53326 0.41307-0.94727 0.94336-0.94727h4.0977c0.76285 0 1.2589-0.54505 1.5996-0.88281 0.17035-0.16924 0.40066-0.27344 0.66406-0.27344h5.791c0.53105 0 0.94336 0.41401 0.94336 0.94727v1.3926a4.5025 4.5025 0 0 1 1 0.92188v-4.2246c0-1.2281-1.0034-2.2363-2.2305-2.2363h-6.6562c-0.16632 0-0.3174-0.092368-0.39258-0.24219l-0.2168-0.43164c-0.32366-0.6435-0.9847-1.0527-1.7051-1.0527zm0 1h2.8945c0.34387 0 0.65518 0.19306 0.81055 0.50195l0.21875 0.43164c0.24342 0.48511 0.74198 0.79297 1.2852 0.79297h6.6562c0.68563 0 1.2305 0.54721 1.2305 1.2363v0.21094c-0.28-0.15745-0.60128-0.24805-0.94336-0.24805h-5.791c-0.53083 0-1.0167 0.21626-1.3672 0.56445v-0.00195c-0.31683 0.31411-0.71937 0.59375-0.89648 0.59375h-4.0977c-0.34196 0-0.66337 0.0906-0.94336 0.24805v-3.3848c0-0.53326 0.41307-0.94531 0.94336-0.94531z" color="#000000" fill="#363636" style="-inkscape-stroke:none"/>
 <path id="path2" class="ColorScheme-Text" d="m12.502 8.9659a3.5 3.5 0 0 0-3.5 3.5 3.5 3.5 0 0 0 3.5 3.5 3.5 3.5 0 0 0 3.5-3.5 3.5 3.5 0 0 0-3.5-3.5zm0 1c0.277 0 0.5 0.223 0.5 0.5v1.5h1.5c0.277 0 0.5 0.223 0.5 0.5s-0.223 0.5-0.5 0.5h-1.5v1.5c0 0.277-0.223 0.5-0.5 0.5s-0.5-0.223-0.5-0.5v-1.5h-1.5c-0.277 0-0.5-0.223-0.5-0.5s0.223-0.5 0.5-0.5h1.5v-1.5c0-0.277 0.223-0.5 0.5-0.5z" color="#363636" display="none" fill="currentColor"/>
 <path id="path2-7" class="ColorScheme-Text" d="m12.502 8.9659c-1.933 0-3.5 1.567-3.5 3.5 0 1.933 1.567 3.5 3.5 3.5s3.5-1.567 3.5-3.5c0-1.933-1.567-3.5-3.5-3.5zm-1 1c0.277 0 0.5 0.223 0.5 0.5v2.5h2.5c0.277 0 0.5 0.223 0.5 0.5 0 0.277-0.223 0.5-0.5 0.5h-3c-0.277 0-0.5-0.223-0.5-0.5v-3c0-0.277 0.223-0.5 0.5-0.5z" color="#363636" display="none" fill="currentColor"/>
 <path id="path1-2" d="m10.966 6.7633a2.8915 2.8915 0 0 0-1.8378 0.83902 2.8915 2.8915 0 0 0 0 4.0887 2.8915 2.8915 0 0 0 3.7757 0.27107h0.0016l1.1876 1.1892 0.5841-0.5841-1.1892-1.1892a2.8915 2.8915 0 0 0-0.27102-3.7757 2.8915 2.8915 0 0 0-2.2509-0.83902zm0.02743 0.82129a2.0549 2.0549 0 0 1 1.6329 0.5954 2.0549 2.0549 0 0 1-0.0016 2.906 2.0549 2.0549 0 0 1-2.9044 0 2.0549 2.0549 0 0 1-0.00165-2.906 2.0549 2.0549 0 0 1 1.2747-0.5954z" display="none" fill="#363636" stroke-width=".96359"/>
 <g id="g5" transform="translate(6.2982 -10.47)">
  <circle id="path3" cx="6.3126" cy="21.533" r="2.8911" fill="none" stroke="#363636" stroke-linecap="round" stroke-linejoin="round"/>
 </g>
 <path id="path4" d="m14.24 13.987 0.87357 1.5131" fill="none" stroke="#363636" stroke-linecap="round" stroke-linejoin="round"/>
</svg>
