<?xml version="1.0" encoding="UTF-8"?>
<svg id="svg1" width="16" height="16" version="1.1" xmlns="http://www.w3.org/2000/svg">
 <style id="s0">.success{fill:#009909}.warning{fill:#ff1990}.error{fill:#0af}</style>
 <g id="path-division" transform="translate(-165 -667.36)">
  <g id="g15972" fill="#363636">
   <path id="circle15932" d="m170 675.17a2.81 2.81 0 0 1-2.805-2.805 2.81 2.81 0 0 1 2.805-2.805 2.81 2.81 0 0 1 2.805 2.805 2.81 2.81 0 0 1-2.805 2.805zm0-6.805c-2.212 0-4 1.788-4 4s1.788 4 4 4 4-1.788 4-4-1.788-4-4-4z"/>
   <path id="path15828" d="m176 681.17a2.81 2.81 0 0 1-2.805-2.805 2.81 2.81 0 0 1 2.805-2.805 2.81 2.81 0 0 1 2.805 2.805 2.81 2.81 0 0 1-2.805 2.805zm0-6.805c-2.212 0-4 1.788-4 4s1.788 4 4 4 4-1.788 4-4-1.788-4-4-4z"/>
  </g>
 </g>
</svg>
