<?xml version="1.0" encoding="UTF-8"?>
<svg width="16" height="16" xmlns="http://www.w3.org/2000/svg">
 <path d="M5 5v3.96c.164.024.33.04.5.04.17 0 .336-.016.5-.04V6h2.96c.024-.164.04-.33.04-.5 0-.17-.016-.336-.04-.5H5zm6.979 0c.012.165.021.332.021.5 0 .168-.009.335-.021.5H15v9H6v-3.021a6.508 6.508 0 0 1-.5.021c-.168 0-.335-.009-.5-.021V16h11V5h-4.021z" fill="#363636" stroke-linecap="round" stroke-linejoin="round"/>
 <path d="M5.5 0A5.5 5.5 0 0 0 0 5.5 5.5 5.5 0 0 0 5.5 11 5.5 5.5 0 0 0 11 5.5 5.5 5.5 0 0 0 5.5 0Zm0 1A4.5 4.5 0 0 1 10 5.5 4.5 4.5 0 0 1 5.5 10 4.5 4.5 0 0 1 1 5.5 4.5 4.5 0 0 1 5.5 1Z" fill="#363636" opacity=".5" stroke-linecap="round" stroke-linejoin="round" stroke-width="2" style="-inkscape-stroke:none"/>
</svg>
