<?xml version="1.0" encoding="UTF-8"?>
<svg width="16" height="16" xmlns="http://www.w3.org/2000/svg">
 <path d="M0 9h1v1H0Zm2 0h1v1H2Zm2 0h1v1H4Zm8 0h1v1h-1zm2 0h1v1h-1zM0 15h1v1H0Zm2 0h1v1H2Zm-2-4h1v1H0Zm0 2h1v1H0Zm4 2h1v1H4Zm2 0h1v1H6Zm2 0h1v1H8Zm2 0h1v1h-1zm2 0h1v1h-1zm2 0h1v1h-1zm0-2h1v1h-1zm0-2h1v1h-1z" fill="#363636"/>
 <path transform="scale(1 -1)" d="m7.5-11h1v7h-1z" fill="#363636" stroke-linecap="square" stroke-width="1.8708" style="paint-order:stroke fill markers"/>
 <path transform="scale(1 -1) rotate(45)" d="m-1.465-8.778h5v1h-5z" fill="#363636" stroke-linecap="square" stroke-width="2" style="paint-order:stroke fill markers"/>
 <path transform="rotate(225)" d="m-12.778 2.535h5v1h-5z" fill="#363636" stroke-linecap="square" stroke-width="2" style="paint-order:stroke fill markers"/>
 <path transform="scale(1 -1)" d="M3-2h10v1H3zm0-11h10v1H3z" fill="#363636" stroke-linecap="square" stroke-width="1.6903" style="paint-order:stroke fill markers"/>
</svg>
