<?xml version="1.0" encoding="UTF-8"?>
<svg width="16" height="16" xmlns="http://www.w3.org/2000/svg">
 <path d="M1.025 4v2H2V5h1V4ZM4 4v1h2V4Zm3 0v1h2V4ZM1.025 7v2H2V7ZM11 7v2h1V7Zm-9.975 3v2H2v-2ZM11 10v2h1v-2zm-9.975 3v2H3v-1H2v-1ZM11 13v1h-1v1h2v-2zm-7 1v1h2v-1zm3 0v1h2v-1z" fill="#363636" stroke-linecap="round" stroke-linejoin="round"/>
 <path d="M10 1v5h5V1h-5zm1 1h3v3h-3V2z" fill="#363636" stroke-width=".66667"/>
 <path d="m11 2h3v3h-3z" fill="#363636" opacity=".35" stroke-linecap="round" stroke-linejoin="round"/>
</svg>
