<?xml version="1.0" encoding="UTF-8"?>
<svg width="16" height="16" xmlns="http://www.w3.org/2000/svg">
 <path d="M1 10.005h1v-1H1Zm2 0h1v-1H3Zm2 0h1v-1H5Zm2-.01h1v-1H7Zm2 0h1v-1H9ZM1 4h1V3H1Zm2 0h1V3H3Zm2 0h1V3H5Zm2 0h1V3H7Zm2 0h1V3H9Zm0 1.998h1v-1H9Zm0 1.998h1v-1H9Z" fill="#363636" stroke-width=".99964"/>
 <path transform="matrix(0 1 1 0 0 0)" d="m5.5 11h1v4h-1z" fill="#363636" stroke-linecap="square" stroke-width="1.4142" style="paint-order:stroke fill markers"/>
 <path transform="scale(1 -1) rotate(-45)" d="m10.556 6.071h5v1h-5z" fill="#363636" stroke-linecap="square" stroke-width="2" style="paint-order:stroke fill markers"/>
 <path transform="rotate(-45)" d="m2.071 14.556h5v1h-5z" fill="#363636" stroke-linecap="square" stroke-width="2" style="paint-order:stroke fill markers"/>
 <rect y="6" width="8" height="1" rx="0" ry="0" fill="#363636" stroke-linecap="round" stroke-linejoin="round"/>
 <path d="M2 14h12v1H2z" fill="#363636" stroke-linecap="round" stroke-linejoin="round"/>
</svg>
