<?xml version="1.0" encoding="UTF-8"?>
<svg id="svg1" width="16" height="16" version="1.1" xmlns="http://www.w3.org/2000/svg">
 <path id="path15068" d="M12.5 9A3.5 3.5 0 0 0 9 12.5a3.5 3.5 0 0 0 3.5 3.5 3.5 3.5 0 0 0 3.5-3.5A3.5 3.5 0 0 0 12.5 9zm0 1a2.5 2.5 0 0 1 2.5 2.5 2.5 2.5 0 0 1-2.5 2.5 2.5 2.5 0 0 1-2.5-2.5 2.5 2.5 0 0 1 2.5-2.5z" fill="#363636" fill-rule="evenodd"/>
 <style id="s0">.base{fill:#000}.success{fill:#009909}.warning{fill:#ff1990}.error{fill:#0af}</style>
 <path id="rect14580" d="M3 2h10v1H3z" fill="#363636" fill-rule="evenodd"/>
 <path id="rect15062" d="m7.5 3h1v9h-1z" fill="#363636" fill-rule="evenodd"/>
 <path id="rect15064" d="m12 11h1v3h-1z" fill="#363636" fill-rule="evenodd"/>
 <path id="rect15066" d="m11 12h3v1h-3z" fill="#363636" fill-rule="evenodd"/>
</svg>
