<?xml version="1.0" encoding="UTF-8"?>
<svg width="16" height="16" xmlns="http://www.w3.org/2000/svg">
 <path d="M0 14h3.992v1.004H0zm6 0h4v1H6zm8-8h1v4h-1zm0-6h1v4h-1zm-.293 10.172a.998.998 0 0 0-1.414 0l-2.121 2.12a.998.998 0 0 0 0 1.415l2.12 2.121a.998.998 0 0 0 1.415 0l2.121-2.12a.998.998 0 0 0 0-1.415zm-.707.707L15.121 13 13 15.121 10.879 13Z" fill="#363636" fill-rule="evenodd" stroke-linecap="round" stroke-linejoin="round"/>
 <path transform="rotate(45)" d="m16.885-1.5h3v3h-3z" fill="#363636" fill-rule="evenodd" opacity=".35" stroke-linecap="round" stroke-linejoin="round" stroke-width=".6"/>
 <path d="M9 4h1v6H9z" fill="#363636" fill-rule="evenodd" stroke-linecap="round" stroke-linejoin="round"/>
 <path d="M4 9h6v1H4z" fill="#363636" fill-rule="evenodd" stroke-linecap="round" stroke-linejoin="round"/>
</svg>
