<?xml version="1.0" encoding="UTF-8"?>
<svg width="16" height="16" xmlns="http://www.w3.org/2000/svg">
 <path d="M12 9v3h1V9Zm0 4v3h1v-3zm-3-1v1h3v-1zm4 0v1h3v-1z" fill="#363636" style="-inkscape-stroke:none"/>
 <path d="M.501 0a.5.5 0 0 0-.5.5v4.018a.5.5 0 0 0 .5.5h4.01a.5.5 0 0 0 .5-.5V.5a.5.5 0 0 0-.5-.5zm.5 1h3.01v3.018H1z" color-rendering="auto" dominant-baseline="auto" fill="#363636" fill-rule="evenodd" image-rendering="auto" shape-rendering="auto" style="font-feature-settings:normal;font-variant-alternates:normal;font-variant-caps:normal;font-variant-ligatures:normal;font-variant-numeric:normal;font-variant-position:normal;isolation:auto;mix-blend-mode:normal;shape-padding:0;text-decoration-color:#000;text-decoration-line:none;text-decoration-style:solid;text-indent:0;text-orientation:mixed;text-transform:none;white-space:normal"/>
 <path d="M2 4h1v7H2z" fill="#363636" fill-rule="evenodd" opacity=".35" stroke-linecap="round" stroke-linejoin="round"/>
 <path d="M10.75 3.335a2.5 2.5 0 0 0-3.415.915 2.5 2.5 0 0 0 .915 3.415 2.5 2.5 0 0 0 3.415-.915 2.5 2.5 0 0 0-.915-3.415Zm-.5.866a1.5 1.5 0 0 1 .549 2.049 1.5 1.5 0 0 1-2.049.549 1.5 1.5 0 0 1-.549-2.049 1.5 1.5 0 0 1 2.049-.549Z" fill="#363636" fill-rule="evenodd" stroke-linecap="round" stroke-linejoin="round"/>
 <path transform="rotate(30)" d="m10.477-5.487h1v11h-1z" fill="#363636" fill-rule="evenodd" opacity=".35" stroke-linecap="round" stroke-linejoin="round"/>
 <path d="M5.75 11.335a2.5 2.5 0 0 0-3.415.915 2.5 2.5 0 0 0 .915 3.415 2.5 2.5 0 0 0 3.415-.915 2.5 2.5 0 0 0-.915-3.415Zm-.5.866a1.5 1.5 0 0 1 .549 2.049 1.5 1.5 0 0 1-2.049.549 1.5 1.5 0 0 1-.549-2.049 1.5 1.5 0 0 1 2.049-.549Z" fill="#363636" fill-rule="evenodd" stroke-linecap="round" stroke-linejoin="round"/>
</svg>
