<?xml version="1.0" encoding="UTF-8"?>
<svg width="16" height="16" xmlns="http://www.w3.org/2000/svg">
 <path d="M14.5 10a4.5 4.5 0 0 1-4.5 4.5A4.5 4.5 0 0 1 5.5 10 4.5 4.5 0 0 1 10 5.5a4.5 4.5 0 0 1 4.5 4.5Z" fill="#363636" opacity=".5"/>
 <path d="m10 5c-2.756 0-5 2.244-5 5s2.244 5 5 5 5-2.244 5-5-2.244-5-5-5zm0 1c2.215 0 4 1.785 4 4s-1.785 4-4 4-4-1.785-4-4 1.785-4 4-4z" fill="#363636"/>
 <path d="M2 10h9v1H2z" fill="#363636" fill-rule="evenodd" stroke-linecap="round" stroke-linejoin="round"/>
 <path d="m10 1h1v10h-1z" fill="#363636" fill-rule="evenodd" stroke-linecap="round" stroke-linejoin="round" stroke-width="1.118"/>
 <path d="m10.5 0-2.828 2.828 0.707 0.707 2.121-2.12 2.121 2.12 0.707-0.707-2.121-2.121z" fill="#363636" fill-rule="evenodd" stroke-linecap="round" stroke-linejoin="round"/>
</svg>
