<?xml version="1.0" encoding="UTF-8" standalone="no"?>
<svg
   width="16"
   height="16"
   version="1.1"
   id="svg2"
   sodipodi:docname="system-shutdown-symbolic.svg"
   inkscape:version="1.4 (e7c3feb100, 2024-10-09)"
   xmlns:inkscape="http://www.inkscape.org/namespaces/inkscape"
   xmlns:sodipodi="http://sodipodi.sourceforge.net/DTD/sodipodi-0.dtd"
   xmlns="http://www.w3.org/2000/svg"
   xmlns:svg="http://www.w3.org/2000/svg">
  <defs
     id="defs2" />
  <sodipodi:namedview
     id="namedview2"
     pagecolor="#ffffff"
     bordercolor="#111111"
     borderopacity="1"
     inkscape:showpageshadow="0"
     inkscape:pageopacity="0"
     inkscape:pagecheckerboard="1"
     inkscape:deskcolor="#d1d1d1"
     inkscape:zoom="49.875"
     inkscape:cx="8"
     inkscape:cy="8"
     inkscape:window-width="1920"
     inkscape:window-height="1011"
     inkscape:window-x="0"
     inkscape:window-y="0"
     inkscape:window-maximized="1"
     inkscape:current-layer="svg2" />
  <g
     transform="matrix(1.2306759,0,0,1.2303717,-65.22492,-394.94933)"
     fill="#363636"
     id="g2">
    <path
       d="m 53,327.43 c -0.0103,0.6801 0.08756,1.3691 0.30078,2.043 0.8529,2.6956 3.365,4.5312 6.1992,4.5312 2.8342,0 5.3463,-1.8357 6.1992,-4.5312 0.8529,-2.6956 -0.1484,-5.6355 -2.4707,-7.2559 l -0.57227,0.82031 c 1.9682,1.3733 2.8119,3.8526 2.0898,6.1348 -0.7221,2.2822 -2.8427,3.832 -5.2461,3.832 -2.4034,0 -4.524,-1.5498 -5.2461,-3.832 -0.7221,-2.2822 0.12169,-4.7615 2.0898,-6.1348 l -0.57227,-0.82031 c -1.7417,1.2153 -2.7406,3.1726 -2.7715,5.2129 z"
       id="path1" />
    <path
       d="m 59,321 v 7 h 1 v -7 z"
       id="path2" />
  </g>
</svg>
