<?xml version="1.0" encoding="UTF-8"?>
<svg width="16" height="16" xmlns="http://www.w3.org/2000/svg">
 <path transform="translate(-195 -627.36)" d="m196 633.36h1v8h-1zm7 0h1v8h-1z" fill="#363636"/>
 <path transform="translate(-195 -627.36)" d="m198 640.36h4v1h-4z" fill="#363636" opacity=".5"/>
 <path d="M1 2v2l1-1h2.5v6l-1 1h3l-1-1V3H8l1 1V2Z" fill="#363636"/>
 <path d="m10.525 9.818-.707.707 2.121 2.121-2.12 2.122.706.707 2.121-2.121 2.122 2.12.707-.706-2.121-2.122 2.12-2.12-.706-.708-2.122 2.121z" fill="#363636" fill-rule="evenodd" stroke-linecap="round" stroke-linejoin="round"/>
</svg>
