<?xml version="1.0" encoding="UTF-8"?>
<svg width="16" height="16" xmlns="http://www.w3.org/2000/svg">
 <path d="M1 3c0-.554.446-1 1-1h5c.554 0 1 .446 1 1v5c0 .554-.446 1-1 1H2c-.554 0-1-.446-1-1Zm1 0v5h5V3Z" fill="#363636" fill-rule="evenodd" stroke-linecap="square"/>
 <path d="m10 5h1v5h-1z" fill="#363636" fill-rule="evenodd" stroke-linecap="square"/>
 <path d="m10 9h5v1h-5z" fill="#363636" fill-rule="evenodd" stroke-linecap="square"/>
 <path d="m10 0v1a4 4 0 0 1 4 4 4 4 0 0 1-4 4v1a5 5 0 0 0 5-5 5 5 0 0 0-5-5z" fill="#363636" fill-rule="evenodd" stroke-linecap="square"/>
 <path transform="rotate(90)" d="m11-5h1v5h-1z" fill="#363636" fill-rule="evenodd" stroke-linecap="square"/>
 <path transform="rotate(90)" d="m11-1h5v1h-5z" fill="#363636" fill-rule="evenodd" stroke-linecap="square"/>
 <path d="M10 11H9a4 4 0 0 1-4 4 4 4 0 0 1-4-4H0a5 5 0 0 0 5 5 5 5 0 0 0 5-5z" fill="#363636" fill-rule="evenodd" stroke-linecap="square"/>
</svg>
