<?xml version="1.0" encoding="UTF-8"?>
<svg width="16" height="16" xmlns="http://www.w3.org/2000/svg">
 <path d="M12.803 2.197a7.5 7.5 0 0 0-10.606 0 7.5 7.5 0 0 0 0 10.606 7.5 7.5 0 0 0 10.606 0 7.5 7.5 0 0 0 0-10.606zm-.707.707a6.5 6.5 0 0 1 0 9.192 6.5 6.5 0 0 1-9.192 0 6.5 6.5 0 0 1 0-9.192 6.5 6.5 0 0 1 9.192 0z" fill="#363636" fill-rule="evenodd" stroke-linecap="square" stroke-width="2"/>
 <path transform="rotate(45)" d="M17.107-.5h6v1h-6z" fill="#363636" fill-rule="evenodd" stroke-linecap="square" stroke-width="2"/>
</svg>
