<?xml version="1.0" encoding="UTF-8"?>
<svg viewBox="0 0 16 16" xmlns="http://www.w3.org/2000/svg">
 <defs id="defs3051">
  <style id="current-color-scheme" type="text/css">.ColorScheme-Text {
        color:#dedede;
      }
      .ColorScheme-Highlight {
        color:#3daee9;
      }</style>
 </defs>
 <path class="ColorScheme-Text" d="m2 2v7 1 1 1h2v2h7v-1h-6v-1h6v-1-2-4h2v2h1v-3h-3v-2h-8-1zm1 1h7v7 1h-7v-1-1-6zm1 1v1h5v-1h-5zm0 2v1h3v-1h-3z" fill="currentColor"/>
 <path class="ColorScheme-Highlight" d="m13 8v1h1v-1h-1zm-9 1v1h4v-1h-4zm9 1v4h1v-4h-1z" fill="currentColor"/>
</svg>
