<?xml version="1.0" encoding="UTF-8"?>
<svg viewBox="0 0 16 16" xmlns="http://www.w3.org/2000/svg">
 <defs id="defs3051">
  <style id="current-color-scheme" type="text/css">.ColorScheme-Text {
        color:#dedede;
      }
      .ColorScheme-PositiveText {
        color:#27ae60;
      }</style>
 </defs>
 <path class="ColorScheme-Text" d="m4 2v2h-2v1h2v6h-2v1h2v2h1v-2h6v2h1v-2h2v-1h-2v-6h2.3105v-1h-2.3105v-2h-1v2h-6v-2h-1zm1 3h6v6h-6v-6z" fill="currentColor"/>
 <path class="ColorScheme-PositiveText" d="m10.5 7c1.939 0 3.5 1.561 3.5 3.5 0 1.939-1.561 3.5-3.5 3.5s-3.5-1.561-3.5-3.5c0-1.939 1.561-3.5 3.5-3.5z" fill="currentColor"/>
</svg>
