<?xml version="1.0" encoding="UTF-8"?>
<svg version="1.1" viewBox="0 0 16 16" xmlns="http://www.w3.org/2000/svg">
 <defs>
  <style id="current-color-scheme" type="text/css">.ColorScheme-Text {
        color:#dedede;
      }</style>
 </defs>
 <path class="ColorScheme-Text" d="m5 3v1h2v1.0508c-2.238 0.25375-4 2.1467-4 4.4492 0 2.4734 2.0266 4.5 4.5 4.5 2.4734 0 4.5-2.0266 4.5-4.5 0-1.0591-0.3854-2.021-1.0059-2.7871l0.75586-0.75586 0.39648 0.39648 0.70703-0.70703-1.5-1.5-0.70703 0.70703 0.39648 0.39648-0.75195 0.75195c-0.64602-0.51083-1.4321-0.85378-2.291-0.95117v-1.0508h2v-1zm2.5 3c1.933 0 3.5 1.567 3.5 3.5 0 1.933-1.567 3.5-3.5 3.5-1.933 0-3.5-1.567-3.5-3.5 0-1.933 1.567-3.5 3.5-3.5z" fill="currentColor"/>
</svg>
