<?xml version="1.0" encoding="UTF-8"?>
<svg version="1.1" viewBox="0 0 16 16" xmlns="http://www.w3.org/2000/svg">
 <defs>
  <style id="current-color-scheme" type="text/css">.ColorScheme-Text {
        color:#dedede;
      }</style>
 </defs>
 <path class="ColorScheme-Text" d="m4 3v1h1v1.0508c-1.6854 0.2474-3 1.6993-3 3.4492 0 1.9212 1.5788 3.5 3.5 3.5s3.5-1.5788 3.5-3.5c0-0.78264-0.27142-1.4978-0.71289-2.0801l0.55742-0.55742 0.44453 0.44453 0.70898-0.70508-1.5922-1.6-0.70898 0.70703 0.44258 0.44453-0.56133 0.56133c-0.45673-0.33923-0.99202-0.57803-1.5781-0.66406v-1.0508h1v-1zm7 1v8l3-4zm-5.5 2c1.3807 0 2.5 1.1193 2.5 2.5s-1.1193 2.5-2.5 2.5c-1.3807 0-2.5-1.1193-2.5-2.5s1.1193-2.5 2.5-2.5z" fill="currentColor"/>
</svg>
