<?xml version="1.0" encoding="UTF-8"?>
<svg version="1.1" viewBox="0 0 16 16" xmlns="http://www.w3.org/2000/svg">
 <defs>
  <style id="current-color-scheme" type="text/css">.ColorScheme-Text {
        color:#dedede;
      }
      .ColorScheme-NegativeText {
          color:#da4453;
      }</style>
 </defs>
 <path class="ColorScheme-Text" d="m5 3v1h2v1.0508c-2.238 0.25375-4 2.1467-4 4.4492 0 2.3139 1.7794 4.2146 4.0332 4.4531-0.33398-0.33949-0.59517-0.74357-0.76758-1.1875-1.322-0.50002-2.2656-1.7685-2.2656-3.2656 0-1.933 1.567-3.5 3.5-3.5 1.4805 0 2.7385 0.92185 3.25 2.2207 0.44748 0.16612 0.85624 0.42202 1.2012 0.75195-0.10518-0.84919-0.44208-1.6239-0.95703-2.2598l0.7543-0.7543 0.39805 0.39492 0.70703-0.70703-1.5-1.5-0.70703 0.70703 0.39648 0.39648-0.75195 0.75195c-0.64603-0.51083-1.4321-0.85378-2.291-0.95117v-1.0508h2v-1z" fill="currentColor"/>
 <path class="ColorScheme-NegativeText" d="m12 11.5a2.5 2.5 0 0 1-2.5 2.5 2.5 2.5 0 0 1-2.5-2.5 2.5 2.5 0 0 1 2.5-2.5 2.5 2.5 0 0 1 2.5 2.5z" fill="currentColor"/>
</svg>
