<?xml version="1.0" encoding="UTF-8"?>
<svg version="1.1" viewBox="0 0 16 16" xmlns="http://www.w3.org/2000/svg">
 <defs>
  <style id="current-color-scheme" type="text/css">.ColorScheme-Text {
        color:#dedede;
      }</style>
 </defs>
 <path class="ColorScheme-Text" d="m5 3v1h2v1.0508c-2.238 0.25375-4 2.1467-4 4.4492 0 2.3031 1.7631 4.1964 4.002 4.4492v-0.99805c-1.6956-0.24314-3.002-1.6884-3.002-3.4512 0-1.933 1.567-3.5 3.5-3.5 1.7609 0 3.1963 1.307 3.4414 3h1.0078c-0.10055-0.85946-0.43497-1.6449-0.95508-2.2871l0.75586-0.75586 0.39648 0.39648 0.70703-0.70703-1.5-1.5-0.70703 0.70703 0.39648 0.39648-0.75195 0.75195c-0.64603-0.51083-1.4321-0.85378-2.291-0.95117v-1.0508h2v-1zm4 6v2h-2v1h2v2h1v-2h2v-1h-2v-2z" fill="currentColor"/>
</svg>
