<?xml version="1.0" encoding="UTF-8"?>
<svg viewBox="0 0 16 16" xmlns="http://www.w3.org/2000/svg">
 <defs id="defs3051">
  <style id="current-color-scheme" type="text/css">.ColorScheme-Text {
        color:#dedede;
      }
      .ColorScheme-Highlight {
        color:#3daee9;
      }</style>
 </defs>
 <path class="ColorScheme-Text" d="m2 2v1h5v-1h-5zm7 0v1h5v-1h-5zm-7 3v1h5v-1h-5zm7 0v1h5v-1h-5zm3 3v1h2v-1h-2zm-5 3-2 1.5 2 1.5v-1h2v-1h-2v-1z" fill="currentColor"/>
 <path class="ColorScheme-Highlight" d="m7 7-2 1.5 2 1.5v-1h2c0.554 0 1 0.446 1 1v1c0 1.108 0.892 2 2 2h2v-1h-2c-0.554 0-1-0.446-1-1v-1c0-1.108-0.892-2-2-2h-2z" fill="currentColor"/>
</svg>
