<?xml version="1.0" encoding="UTF-8"?>
<svg viewBox="0 0 16 16" xmlns="http://www.w3.org/2000/svg">
 <defs id="defs3051">
  <style id="current-color-scheme" type="text/css">.ColorScheme-Text {
        color:#dedede;
      }
      .ColorScheme-Highlight {
        color:#3daee9;
      }</style>
 </defs>
 <path class="ColorScheme-Text" d="m2 2v1h5v-1h-5zm7 0v1h5v-1h-5zm-7 3v1h5v-1h-5zm7 0v1h5v-1h-5zm-4 3v1h2v-1h-2zm7 3v1h-2v1h2v1l2-1.5-2-1.5z" fill="currentColor"/>
 <path class="ColorScheme-Highlight" d="m12 7v1h-2c-1.108 0-2 0.892-2 2v1c0 0.554-0.446 1-1 1h-2v1h2c1.108 0 2-0.892 2-2v-1c0-0.554 0.446-1 1-1h2v1l2-1.5z" fill="currentColor"/>
</svg>
