<?xml version="1.0" encoding="UTF-8"?>
<svg viewBox="0 0 16 16" xmlns="http://www.w3.org/2000/svg">
 <defs id="defs3051">
  <style id="current-color-scheme" type="text/css">.ColorScheme-Text {
        color:#dedede;
      }
      .ColorScheme-Highlight {
        color:#3daee9;
      }</style>
 </defs>
 <path class="ColorScheme-Text" d="m5.5 4a2.5 2.5 0 0 0-2.5 2.5 2.5 2.5 0 0 0 2.5 2.5 2.5 2.5 0 0 0 2.5-2.5 2.5 2.5 0 0 0-2.5-2.5zm0 6a3.5 4 0 0 0-3.5 4h7a3.5 4 0 0 0-3.5-4zm0 1a2.5 3 0 0 1 2.3535 2h-4.707a2.5 3 0 0 1 2.3535-2z" fill="currentColor"/>
 <path class="ColorScheme-Highlight" d="m11.5 2a2.5 2.5 0 0 0-2.5 2.5 2.5 2.5 0 0 0 2.5 2.5 2.5 2.5 0 0 0 2.5-2.5 2.5 2.5 0 0 0-2.5-2.5zm0.14648 6a3.5 4 0 0 0-3.1543 2.2734 4.5 5 0 0 1 1.125 1.7266h5.5332a3.5 4 0 0 0-3.5039-4zm0 1a2.5 3 0 0 1 2.3535 2h-4.707a2.5 3 0 0 1 2.3535-2z" fill="currentColor"/>
</svg>
