<?xml version="1.0" encoding="UTF-8"?>
<svg width="16" height="16" fill="none" viewBox="0 0 16 16" xmlns="http://www.w3.org/2000/svg">
 <style id="current-color-scheme" type="text/css">.ColorScheme-Text { color: #dedede; }</style>
 <path class="ColorScheme-Text" d="M2 2H14V9.70711L9.70711 14H2V2ZM3 3V13H9V9H13V3H3ZM12.2929 10H10V12.2929L12.2929 10Z" clip-rule="evenodd" fill="currentColor" fill-rule="evenodd"/>
 <path class="ColorScheme-Text" d="m7 6.5c0 0.27614-0.22386 0.5-0.5 0.5s-0.5-0.22386-0.5-0.5 0.22386-0.5 0.5-0.5 0.5 0.22386 0.5 0.5z" fill="currentColor"/>
 <path class="ColorScheme-Text" d="m10 6.5c0 0.27614-0.22386 0.5-0.5 0.5s-0.5-0.22386-0.5-0.5 0.22386-0.5 0.5-0.5 0.5 0.22386 0.5 0.5z" fill="currentColor"/>
 <path class="ColorScheme-Text" d="m11.354 8.8536c-1.8522 1.8521-4.855 1.8521-6.7072 0l0.70711-0.70711c1.4616 1.4616 3.8313 1.4616 5.2929 0l0.7071 0.70711z" clip-rule="evenodd" fill="currentColor" fill-rule="evenodd"/>
</svg>
