<?xml version="1.0" encoding="UTF-8"?>
<svg viewBox="0 0 16 16" xmlns="http://www.w3.org/2000/svg">
 <defs id="defs3051">
  <style id="current-color-scheme" type="text/css">.ColorScheme-Text {
        color:#dedede;
      }</style>
 </defs>
 <path class="ColorScheme-Text" d="m2 3v1h1v2h-1v1h3v-1h-1v-2h1v-1h-3zm6 0v1h6v-1h-6zm-2 2v1h1v-1h-1zm2 0v1h1v-1h-1zm2 0v1h1v-1h-1zm-8 4v1h1v2h-1v1h2 1 2v-1h-1v-2h1v-1h-2-1-2zm8 0v1h4v-1h-4zm-6 1h1v2h-1v-2zm4 1v1h1v-1h-1zm2 0v1h1v-1h-1zm2 0v1h1v-1h-1z" fill="currentColor"/>
</svg>
