<?xml version="1.0" encoding="UTF-8" standalone="no"?>
<svg
   width="16"
   height="16"
   version="1.1"
   id="svg1"
   sodipodi:docname="start-here.svg"
   inkscape:version="1.4.4 (dcaf3e7d9e, 2026-05-05)"
   xmlns:inkscape="http://www.inkscape.org/namespaces/inkscape"
   xmlns:sodipodi="http://sodipodi.sourceforge.net/DTD/sodipodi-0.dtd"
   xmlns="http://www.w3.org/2000/svg"
   xmlns:svg="http://www.w3.org/2000/svg">
  <sodipodi:namedview
     id="namedview1"
     pagecolor="#ffffff"
     bordercolor="#999999"
     borderopacity="1"
     inkscape:showpageshadow="2"
     inkscape:pageopacity="0"
     inkscape:pagecheckerboard="0"
     inkscape:deskcolor="#d1d1d1"
     inkscape:zoom="32"
     inkscape:cx="4.6875"
     inkscape:cy="8.03125"
     inkscape:window-width="2560"
     inkscape:window-height="1371"
     inkscape:window-x="0"
     inkscape:window-y="0"
     inkscape:window-maximized="1"
     inkscape:current-layer="svg1" />
  <defs
     id="defs1">
    <style
       id="current-color-scheme"
       type="text/css">.ColorScheme-Text { color:#363636; }</style>
  </defs>
  <path
     style="baseline-shift:baseline;display:inline;overflow:visible;fill:#363636;stroke-width:0.2;stroke-dasharray:none;enable-background:accumulate;stop-color:#000000;stroke:#363636;stroke-opacity:1;stroke-linejoin:round;stroke-linecap:round"
     d="m 7.9095803,4.3711301 c 0.027343,0.013668 0.049217,0.046486 0.082029,0.046486 0.030078,0 0.07656,-0.010939 0.079295,-0.041013 0.00547,-0.038284 -0.051952,-0.062892 -0.087498,-0.079295 -0.046483,-0.019141 -0.1066378,-0.027345 -0.1503866,-0.00276 -0.010937,0.00546 -0.021875,0.019141 -0.016406,0.030074 0.0082,0.035547 0.062889,0.030074 0.092967,0.046486 M 7.31077,4.4175953 c 0.032812,0 0.054686,-0.032811 0.082029,-0.046486 C 7.422877,4.3547033 7.477562,4.3601703 7.4885,4.3273603 7.49397,4.3164213 7.48303,4.3027523 7.472094,4.2972863 7.428345,4.2726783 7.3681905,4.2808803 7.3217074,4.3000463 c -0.035546,0.016405 -0.092967,0.041013 -0.087497,0.079295 0.00274,0.027345 0.049217,0.041013 0.07656,0.038284 m 6.0452656,7.6226737 c -0.09844,-0.109372 -0.144918,-0.317179 -0.196871,-0.538657 -0.04921,-0.221479 -0.106637,-0.459362 -0.287101,-0.612484 -0.03555,-0.03007 -0.07109,-0.05742 -0.109372,-0.07929 -0.03555,-0.02188 -0.07382,-0.04101 -0.112106,-0.05469 0.251554,-0.746469 0.15312,-1.4901981 -0.10117,-2.1625633 C 12.237706,7.7695905 11.69358,7.0504693 11.277966,6.5585686 10.810401,5.9706938 10.356507,5.4128965 10.364709,4.5901453 10.378378,3.3348279 10.504158,1.0027423 8.2923825,1.0000079 5.4927317,0.99454847 6.1927127,3.8270015 6.1626355,4.6965097 6.1161522,5.3363359 5.9876402,5.8394473 5.5474177,6.465329 5.0306348,7.0805466 4.3033108,8.0730974 3.9587889,9.1091241 3.7947308,9.5985638 3.7181704,10.096207 3.7892622,10.566507 3.6115326,10.725097 3.4775519,10.96845 3.3353683,11.118836 3.2205277,11.23641 3.0537352,11.280159 2.8705371,11.345782 2.687339,11.411404 2.487735,11.509841 2.3646914,11.742257 c -0.057421,0.106637 -0.07656,0.221478 -0.07656,0.339052 0,0.106638 0.016406,0.21601 0.032812,0.322648 0.032812,0.221479 0.068358,0.429285 0.021875,0.568734 -0.1421837,0.39374 -0.1613237,0.66717 -0.060155,0.866775 0.1039034,0.199604 0.3117103,0.287101 0.5495944,0.336318 0.4730341,0.09844 1.1155949,0.07382 1.6214405,0.341787 0.5413916,0.284368 1.0909861,0.385537 1.5284742,0.284368 0.317179,-0.07109 0.5769376,-0.262492 0.708184,-0.552329 0.3417876,-0.0028 0.7191211,-0.147653 1.3206674,-0.180464 0.4074108,-0.03281 0.9187251,0.144918 1.5065997,0.112107 0.016405,0.06289 0.038283,0.125777 0.068358,0.183198 v 0.0028 c 0.2269474,0.456628 0.6507634,0.664435 1.1019224,0.628889 0.453894,-0.03555 0.932398,-0.300772 1.320668,-0.76287 0.371865,-0.448425 0.984348,-0.634358 1.391759,-0.880444 0.202339,-0.123044 0.366396,-0.276165 0.380068,-0.500378 0.01012,-0.224486 -0.12113,-0.473034 -0.424363,-0.812088 M 7.988875,3.386782 C 8.2568365,2.779767 8.9240059,2.7907046 9.1919676,3.375845 9.3696968,3.7641158 9.2904023,4.2207439 9.0743925,4.4805026 9.0306437,4.4586278 8.9130687,4.4094108 8.7298706,4.3465216 8.7599478,4.3137098 8.8146339,4.2726954 8.8365083,4.2207439 8.9677548,3.898096 8.8310397,3.4824823 8.5876869,3.4742797 8.388083,3.4606082 8.2076191,3.769584 8.2650394,4.1031688 8.1529331,4.048483 8.0080151,4.0074685 7.9095803,3.9828593 7.8822373,3.7941931 7.9013774,3.5836515 7.988875,3.386782 M 6.876288,3.0723374 c 0.2761644,0 0.5687346,0.3882708 0.5222515,0.9159908 C 7.3028389,4.0156725 7.2044041,4.0566855 7.1196408,4.1141058 7.1524525,3.8707531 7.0294088,3.5645118 6.8571479,3.5781833 6.6274666,3.597325 6.5891863,4.1578548 6.8079301,4.3465216 6.8352731,4.368393 6.8598816,4.3410622 6.6466064,4.4969084 6.2200555,4.0977 6.3595048,3.0723374 6.8762877,3.0723374 M 6.5044228,4.7320579 C 6.6739495,4.6062803 6.8762877,4.4586278 6.8899593,4.4449563 7.0184713,4.3246475 7.2590898,4.0566855 7.6528292,4.0566855 c 0.1941353,0 0.4265508,0.062892 0.7081839,0.2433528 0.172261,0.1121063 0.308976,0.1203095 0.617952,0.2542905 0.2296814,0.0957 0.3745994,0.2652269 0.2871017,0.4976426 C 9.194975,5.2461064 8.9652936,5.4457103 8.6453804,5.5468795 8.341873,5.6453143 8.1039888,5.984368 7.6008775,5.9542906 7.4942397,5.9488312 7.4094764,5.9269463 7.3383846,5.8968723 7.1196408,5.80117 7.0048001,5.6125031 6.7915246,5.4867255 6.5563747,5.3554789 6.4305969,5.2023575 6.3895824,5.0683772 Q 6.3321621,4.8674058 6.504423,4.7320579 m 0.090232,9.1317451 c -0.073826,0.95974 -1.2003577,0.9406 -2.0586548,0.492174 C 3.7184439,13.923958 2.6605428,14.178247 2.444533,13.757165 2.3789098,13.628654 2.3789098,13.40991 2.5156248,13.03531 v -0.0054 c 0.065623,-0.207807 0.016406,-0.437488 -0.016405,-0.653498 -0.032812,-0.213275 -0.049217,-0.410145 0.024609,-0.54686 0.0957,-0.183199 0.2324156,-0.248822 0.4046766,-0.308976 0.281633,-0.101169 0.3226474,-0.09296 0.535923,-0.270696 0.1503865,-0.155855 0.2597586,-0.352725 0.391005,-0.492174 0.1394494,-0.150387 0.2734301,-0.221479 0.4839713,-0.188667 0.2214783,0.03281 0.4128794,0.185932 0.5988119,0.437488 l 0.535923,0.973412 c 0.2592116,0.544398 1.1779368,1.323401 1.1205165,1.883932 M 6.5563742,13.155619 C 6.4442684,12.975155 6.2938819,12.783755 6.1626355,12.619696 c 0.1941354,0 0.3882707,-0.06015 0.4566282,-0.243353 0.062889,-0.169526 0,-0.40741 -0.2023382,-0.680841 C 6.0477948,11.19786 5.3696881,10.806854 5.3696881,10.806854 5.0005575,10.577173 4.7927507,10.29554 4.6970502,9.9892988 4.6013496,9.683057 4.615021,9.3522066 4.6888472,9.026825 4.8310309,8.4006695 5.1974272,7.7909207 5.4325771,7.4081181 5.4954663,7.3616389 5.4544518,7.4956158 5.1946929,7.9768532 4.9622773,8.4170754 4.5275235,9.434235 5.1236011,10.229644 5.140007,9.6636434 5.2739876,9.0867061 5.5009345,8.548322 5.8290507,7.7991233 6.5208288,6.5006036 6.5755149,5.4670385 c 0.030077,0.021872 0.1257778,0.087496 0.1695267,0.1121062 0.1257777,0.073826 0.2214783,0.183198 0.3445218,0.2816328 0.3390533,0.2734301 0.7792758,0.251556 1.1593436,0.032811 C 8.4184337,5.797887 8.5551487,5.6885152 8.6836609,5.6475007 8.9543567,5.5627375 9.1703665,5.4123506 9.2934097,5.2373559 c 0.2105417,0.8312274 0.7027159,2.0313117 1.0171603,2.616452 0.166792,0.3117108 0.500378,0.9706772 0.645295,1.7660854 0.09023,-0.00277 0.191401,0.01094 0.298039,0.038281 C 11.631237,8.6820306 10.933991,7.6295981 10.616812,7.3370276 10.4883,7.21125 10.48283,7.1565641 10.54572,7.1592985 c 0.344522,0.3062413 0.798416,0.9214596 0.962474,1.6132372 0.07656,0.3171791 0.09023,0.6480298 0.01094,0.9761461 0.448425,0.1859323 0.981614,0.4894402 0.83943,0.9515372 -0.06015,-0.0028 -0.08749,0 -0.11484,0 0.08749,-0.276165 -0.106638,-0.481238 -0.623421,-0.7136534 -0.535923,-0.2351497 -0.984348,-0.2351497 -1.047237,0.3417874 -0.330851,0.114842 -0.500377,0.401943 -0.5851408,0.746464 -0.076562,0.306242 -0.098435,0.675374 -0.1203096,1.090987 -0.01367,0.210541 -0.098435,0.492173 -0.1859323,0.792947 -0.8779836,0.626155 -2.097482,0.899585 -3.1253057,0.196869 m 7.0372684,-0.314445 c -0.02461,0.459362 -1.126532,0.544126 -1.727805,1.27145 -0.360927,0.429285 -0.803883,0.667168 -1.192154,0.697246 -0.388271,0.03007 -0.7245908,-0.131246 -0.9214606,-0.52772 -0.1285116,-0.303507 -0.065622,-0.631624 0.030071,-0.992551 0.1011698,-0.388271 0.2515556,-0.787479 0.2706956,-1.110126 0.02187,-0.415614 0.04648,-0.779276 0.114842,-1.058175 0.07109,-0.281633 0.180463,-0.4703 0.374598,-0.576937 0.0082,-0.0054 0.01914,-0.0082 0.02734,-0.01367 0.02187,0.360927 0.199604,0.727325 0.514049,0.806619 0.344521,0.09023 0.83943,-0.205073 1.049971,-0.445692 0.246087,-0.0082 0.429286,-0.02461 0.617952,0.13945 0.270696,0.232416 0.194135,0.828494 0.467565,1.137469 0.289563,0.317452 0.38253,0.533188 0.374326,0.672638 M 6.6110608,5.0656429 c 0.054686,0.051952 0.1285122,0.1230432 0.2187441,0.194135 0.1804639,0.1421836 0.4320195,0.2898361 0.7464641,0.2898361 0.317179,0 0.6152177,-0.161324 0.8695077,-0.2953043 C 8.5797574,5.1832179 8.7438155,5.0629084 8.8504532,4.9699425 8.957091,4.8769759 9.011777,4.7976816 8.9352166,4.7894782 8.8586562,4.7812757 8.8641248,4.8605701 8.7711585,4.9289274 8.6508493,5.0164252 8.5059313,5.1312657 8.3910907,5.1968894 8.1887524,5.31173 7.8579021,5.4757877 7.5735347,5.4757877 7.2891674,5.4757877 7.0622204,5.3445412 6.8926938,5.2105609 6.8079304,5.1422035 6.7368386,5.0738455 6.6821527,5.021894 6.6411382,4.9836106 6.6302012,4.8961163 6.5645776,4.887913 c -0.03828,-0.00276 -0.049217,0.1011692 0.046483,0.1777299"
     id="path2" />
</svg>
