<?xml version="1.0" encoding="UTF-8" standalone="no"?>
<svg
   width="16"
   height="16"
   version="1.1"
   id="svg4"
   sodipodi:docname="caffeine-cup-full-symbolic.svg"
   inkscape:version="1.4.2 (ebf0e940d0, 2025-05-08)"
   xmlns:inkscape="http://www.inkscape.org/namespaces/inkscape"
   xmlns:sodipodi="http://sodipodi.sourceforge.net/DTD/sodipodi-0.dtd"
   xmlns="http://www.w3.org/2000/svg"
   xmlns:svg="http://www.w3.org/2000/svg">
  <defs
     id="defs4" />
  <sodipodi:namedview
     id="namedview4"
     pagecolor="#ffffff"
     bordercolor="#111111"
     borderopacity="1"
     inkscape:showpageshadow="0"
     inkscape:pageopacity="0"
     inkscape:pagecheckerboard="1"
     inkscape:deskcolor="#d1d1d1"
     inkscape:zoom="25.588427"
     inkscape:cx="12.564274"
     inkscape:cy="8.0114343"
     inkscape:window-width="2560"
     inkscape:window-height="1371"
     inkscape:window-x="0"
     inkscape:window-y="0"
     inkscape:window-maximized="1"
     inkscape:current-layer="svg4" />
  <g
     id="path1-3"
     style="opacity:1;stroke:none;fill:#2e3436;fill-opacity:1">
    <path
       style="baseline-shift:baseline;display:inline;overflow:visible;vector-effect:none;fill:#2e3436;enable-background:accumulate;stop-color:#000000;stop-opacity:1;stroke:none;fill-opacity:1"
       d="m 12.973802,8.9340164 -1.01048,0.00395 H 1.8585304 V 12.833296 C 1.8585304,14.033073 2.8255904,15 4.0255345,15 h 5.7747311 c 0.9078514,0 1.6775524,-0.556477 2.0012224,-1.341858 0.359193,0.197333 0.761806,0.303892 1.172314,0.311785 1.397303,0 2.526198,-1.132685 2.526198,-2.525847 0,-1.393162 -1.128895,-2.510061 -2.526198,-2.510061 z m 0,1.0300726 c 0.817067,0 1.480194,0.663034 1.480194,1.479988 0,0.816954 -0.663127,1.479989 -1.480194,1.479989 -0.382877,-0.01973 -0.746018,-0.185493 -1.01048,-0.465704 v -2.02857 c 0.264462,-0.280212 0.627603,-0.445969 1.01048,-0.465703 z m 0,0"
       id="path1" />
    <path
       style="baseline-shift:baseline;display:inline;overflow:visible;vector-effect:none;fill:#2e3436;enable-background:accumulate;stop-color:#000000;stop-opacity:1;stroke:none;fill-opacity:1"
       d="M 12.972656,8.4335938 11.962891,8.4375 H 1.359375 v 4.396484 c 0,1.468455 1.1974682,2.666016 2.6660156,2.666016 h 5.7753907 c 0.9451047,0 1.7012927,-0.551237 2.1738277,-1.292969 0.322394,0.120862 0.644283,0.25702 0.990235,0.263672 h 0.0039 0.0059 C 14.64212,14.470703 16,13.106625 16,11.443359 16,9.7800936 14.638354,8.4335938 12.974609,8.4335938 Z m 0.002,1 h 0.002 C 14.106488,9.4346284 15,10.320957 15,11.443359 c 0,1.121483 -0.89661,2.022863 -2.021484,2.025391 -0.328133,-0.0073 -0.649791,-0.09106 -0.935547,-0.248047 l -0.490235,-0.269531 -0.21289,0.515625 C 11.090873,14.07092 10.504313,14.5 9.8007813,14.5 H 4.0253906 C 3.0940499,14.5 2.359375,13.765084 2.359375,12.833984 V 9.4375 h 9.605469 z m -0.02734,0.03125 c -0.510382,0.026306 -0.993934,0.2463048 -1.347657,0.6210942 l -0.136718,0.144531 v 2.425781 l 0.136718,0.144531 c 0.353721,0.374785 0.837266,0.596746 1.347657,0.623047 h 0.01367 0.01367 c 1.087561,0 1.978516,-0.892946 1.978516,-1.980469 0,-1.087523 -0.890955,-1.9785152 -1.978516,-1.9785152 h -0.01367 z m 0.03906,1.0039062 c 0.540218,0.007 0.966797,0.432715 0.966797,0.974609 0,0.540966 -0.425942,0.966124 -0.964844,0.97461 -0.198674,-0.01294 -0.369406,-0.119938 -0.52539,-0.240235 v -1.466796 c 0.155533,-0.119992 0.325357,-0.228923 0.523437,-0.242188 z"
       id="path2" />
  </g>
  <g
     id="path2-6"
     style="opacity:1;stroke:none;fill:#2e3436;fill-opacity:1">
    <path
       style="baseline-shift:baseline;display:inline;overflow:visible;vector-effect:none;fill:#2e3436;enable-background:accumulate;stop-color:#000000;stop-opacity:1;stroke:none;fill-opacity:1"
       d="M 5.8649231,0.80000001 V 1.3209559 c 0,0.8287941 0.6828628,1.5155082 1.515719,1.5155082 h 3.0314369 c 0.284197,0 0.50524,0.2170653 0.50524,0.5051694 0,0.2841578 -0.221043,0.5051694 -0.50524,0.5051694 H 3.3387249 c -0.8328562,0 -1.515719,0.6827678 -1.515719,1.5155082 0,0.8287941 0.6828628,1.5155082 1.515719,1.5155082 h 4.0419172 c 0.2841973,0 0.5052396,0.2170653 0.5052396,0.5051694 V 7.8723716 H 8.896361 V 7.3829887 c 0,-0.8327404 -0.6868106,-1.5155082 -1.5157189,-1.5155082 H 3.3387249 c -0.2881442,0 -0.5052397,-0.2210116 -0.5052397,-0.5051694 0,-0.2881041 0.2170955,-0.5051694 0.5052397,-0.5051694 h 7.0733541 c 0.828908,0 1.515719,-0.6867141 1.515719,-1.5155082 0,-0.8327404 -0.686811,-1.5155082 -1.515719,-1.5155082 H 7.3806421 c -0.2881442,0 -0.5052397,-0.2210116 -0.5052397,-0.5051694 V 0.80000001 Z m 0,0"
       id="path3" />
    <path
       style="baseline-shift:baseline;display:inline;overflow:visible;vector-effect:none;fill:#2e3436;enable-background:accumulate;stop-color:#000000;stop-opacity:1;stroke:none;fill-opacity:1"
       d="m 5.5644531,0.5 v 0.8203125 c 0,0.9935788 0.8186443,1.8164062 1.8164063,1.8164063 h 3.0312496 c 0.13144,0 0.205078,0.070421 0.205079,0.2050781 0,0.1285801 -0.07642,0.2050781 -0.205079,0.2050781 H 3.3378906 c -0.9968143,0 -1.8144531,0.8196621 -1.8144531,1.8164062 0,0.9935788 0.8166911,1.8144532 1.8144531,1.8144532 h 4.0429688 c 0.1314405,0 0.2050781,0.07042 0.2050781,0.2050781 V 8.171875 H 9.1972656 V 7.3828125 c 0,-0.9976923 -0.8227589,-1.8144531 -1.8164062,-1.8144531 H 3.3378906 c -0.1347407,0 -0.2050781,-0.07372 -0.2050781,-0.2050782 0,-0.1373978 0.067598,-0.2070312 0.2050781,-0.2070312 h 7.0742184 c 0.9946,0 1.816407,-0.8199216 1.816407,-1.8144531 0,-0.9976924 -0.82276,-1.8164063 -1.816407,-1.8164063 H 7.3808594 c -0.1347407,0 -0.2050782,-0.07372 -0.2050782,-0.2050781 V 0.5 Z m 0.5996094,0.5996094 h 0.4121094 v 0.2207031 c 0,0.4369571 0.3631398,0.8066406 0.8046875,0.8066406 h 3.0312496 c 0.664169,0 1.214844,0.5470554 1.214844,1.2148438 0,0.6630566 -0.551627,1.2148437 -1.214844,1.2148437 H 3.3378906 c -0.4388085,0 -0.8046875,0.3678303 -0.8046875,0.8066406 0,0.4369571 0.3631398,0.8046876 0.8046875,0.8046875 h 4.0429688 c 0.6641692,0 1.2148437,0.5470553 1.2148437,1.2148438 V 7.5722656 H 8.1855469 V 7.3828125 c 0,-0.4415502 -0.3677335,-0.8046875 -0.8046875,-0.8046875 H 3.3378906 c -0.6679504,0 -1.2148437,-0.5508343 -1.2148437,-1.2148438 0,-0.6687366 0.5459457,-1.2167968 1.2148437,-1.2167968 h 7.0742184 c 0.439731,0 0.804688,-0.3649521 0.804688,-0.8046875 0,-0.4415507 -0.367734,-0.8046875 -0.804688,-0.8046875 H 7.3808594 c -0.6679504,0 -1.2167969,-0.5527875 -1.2167969,-1.2167969 z"
       id="path4" />
  </g>
</svg>
