<?xml version="1.0" encoding="UTF-8"?>
<svg id="svg1" version="1.1" viewBox="0 0 24 24" xmlns="http://www.w3.org/2000/svg">
 <defs id="defs1">
  <style id="current-color-scheme" type="text/css">.ColorScheme-Text {
        color:#363636;
      }</style>
 </defs>
 <path id="path1-5" d="m12 8.6289a3.3712 3.3712 0 0 0-3.3712 3.3712 3.3712 3.3712 0 0 0 3.3712 3.3712 3.3712 3.3712 0 0 0 3.3712-3.3712 3.3712 3.3712 0 0 0-3.3712-3.3712zm0 1.1237a2.2475 2.2475 0 0 1 2.2475 2.2475 2.2475 2.2475 0 0 1-2.2475 2.2475 2.2475 2.2475 0 0 1-2.2475-2.2475 2.2475 2.2475 0 0 1 2.2475-2.2475z" fill="#363636" stroke-width="1.1237" style="paint-order:fill markers stroke"/>
 <path id="path2" d="m11.348 3.0102c-0.25045 0-0.60174 0.069307-0.89328 0.31386-0.29154 0.24455-0.43092 0.60448-0.46529 0.86256l0.021946-0.11413-0.38409 1.5978c-0.15664 0.057503-0.30414 0.11943-0.45212 0.18656l-1.3915-0.85158a1.1238 1.1238 0 0 0-0.00877-0.00439c-0.20068-0.12054-0.53295-0.24581-0.89108-0.20193-0.35813 0.043886-0.6237 0.23028-0.77696 0.37092a1.1238 1.1238 0 0 0-0.028532 0.026338l-0.92181 0.90645a1.1238 1.1238 0 0 0-0.041702 0.041701c-0.17385 0.18986-0.3484 0.51248-0.36872 0.85158-0.020317 0.3391 0.092012 0.6157 0.19534 0.79671a1.1238 1.1238 0 0 0 0.021947 0.035117l0.86475 1.3937c-0.062176 0.13583-0.1114 0.28015-0.169 0.43238l-1.5824 0.37311a1.1238 1.1238 0 0 0-0.015361 0.0022c-0.18192 0.045592-0.49407 0.15189-0.74404 0.45217-0.24996 0.30028-0.30727 0.66718-0.30727 0.89109v1.2905c0 0.25013 0.069717 0.59938 0.31386 0.89109 0.24414 0.29171 0.60201 0.43077 0.86037 0.4653l-0.11194-0.01976 1.6 0.38189c0.052613 0.14079 0.10502 0.27616 0.1646 0.40823l-0.86694 1.4134c-0.1157 0.18811-0.24094 0.48158-0.2107 0.84499 0.03024 0.36342 0.23897 0.69892 0.44116 0.8845l0.88011 0.88011c0.17352 0.17375 0.4598 0.36472 0.81427 0.40823 0.35447 0.04351 0.68524-0.07514 0.89109-0.20192l1.4069-0.86694c0.13953 0.06459 0.27927 0.12517 0.42579 0.17998l0.39287 1.6087-0.021947-0.11852c0.034814 0.26136 0.18947 0.64357 0.49383 0.88231s0.63644 0.28533 0.86475 0.28533h1.3125c0.22832 0 0.57617-0.05657 0.87352-0.2963 0.29735-0.23973 0.42776-0.5784 0.47188-0.79891l-0.0088 0.04608 0.39287-1.6066c0.14675-0.05547 0.28774-0.11574 0.4258-0.17998l1.3959 0.86475a1.1238 1.1238 0 0 0 0.0022 0c0.20594 0.1269 0.53663 0.24542 0.89109 0.20192 0.35446-0.04351 0.64074-0.23451 0.81427-0.40823a1.1238 1.1238 0 0 0 0.0044-0.0022l0.87573-0.8867c0.18973-0.17409 0.40965-0.50988 0.44116-0.88011s-0.09326-0.64758-0.19094-0.81866a1.1238 1.1238 0 0 0-0.01976-0.03292l-0.86475-1.4003c0.06043-0.13184 0.11333-0.26712 0.16681-0.40823l1.6044-0.38409-0.11194 0.01976c0.26166-0.03497 0.64183-0.18937 0.88011-0.49383s0.28533-0.63451 0.28533-0.86256v-1.2905c0-0.20305-0.0345-0.54588-0.27874-0.86036-0.24424-0.31449-0.5765-0.43596-0.76379-0.48286a1.1238 1.1238 0 0 0-0.01536-0.0022l-1.5824-0.37321c-0.059266-0.1539-0.10677-0.29971-0.169-0.43457l0.8472-1.3761c0.11802-0.1838 0.25562-0.47207 0.23265-0.8472-0.022969-0.37513-0.24113-0.72533-0.44335-0.91084l-0.8889-0.87352c-0.16252-0.16266-0.45394-0.36434-0.81208-0.40823-0.35812-0.043894-0.65967 0.07119-0.8428 0.169a1.1238 1.1238 0 0 0-0.05706 0.032922l-1.3871 0.85158c-0.14091-0.065072-0.28799-0.12119-0.44116-0.17998l-0.37751-1.5495c-0.040904-0.21812-0.16084-0.55734-0.46092-0.80769-0.30007-0.25035-0.6605-0.30947-0.8889-0.30947h-1.3125zm0 1.1237h1.3125c0.14792 0 0.21749 0.060357 0.24363 0.19972l0.52236 2.1531c0.56561 0.13938 1.0794 0.37282 1.5145 0.61674l1.8634-1.1413c0.13049-0.069695 0.22477-0.060639 0.32922 0.043895l0.92181 0.90645c0.10445 0.095823 0.10465 0.20068 0.02634 0.32264l-1.1479 1.8634c0.2088 0.392 0.47079 0.93294 0.60138 1.5166l2.1399 0.5048c0.1392 0.03485 0.19095 0.0956 0.19095 0.2524v1.2905c0 0.14808-0.06046 0.22619-0.19095 0.24363l-2.1487 0.51358c-0.13059 0.54879-0.36651 1.0809-0.61016 1.4903l1.1567 1.8721c0.0696 0.1219 0.06933 0.21802-0.03512 0.31386l-0.91303 0.92401c-0.10445 0.10456-0.20957 0.11137-0.32264 0.0417l-1.87-1.1567c-0.43502 0.27008-0.93135 0.48606-1.5056 0.62552l-0.52236 2.1443c-0.02614 0.13063-0.09571 0.19094-0.24363 0.19094h-1.3125c-0.14792 0-0.22622-0.06031-0.24363-0.19094l-0.52236-2.1443c-0.54819-0.13072-1.0793-0.35544-1.5056-0.62552l-1.8788 1.1567c-0.11313 0.06967-0.21821 0.06286-0.32264-0.0417l-0.91304-0.91523c-0.10442-0.095843-0.10473-0.20065-0.035117-0.31386l1.1567-1.8809c-0.24364-0.41805-0.47086-0.94144-0.60138-1.4903l-2.1487-0.51358c-0.13054-0.01744-0.19972-0.095551-0.19972-0.24363v-1.2905c0-0.1568 0.060491-0.21754 0.19972-0.2524l2.1421-0.5048c0.13052-0.58365 0.38165-1.1246 0.59918-1.5166l-1.1567-1.8634c-0.069615-0.12196-0.069379-0.22689 0.02634-0.33141l0.92181-0.90645c0.10442-0.095823 0.20089-0.11352 0.33141-0.035117l1.8611 1.1413c0.39158-0.24391 0.97508-0.48614 1.532-0.62552l0.51358-2.1443c0.01741-0.13066 0.09571-0.19972 0.24363-0.19972z" color="#000000" fill="#363636" stroke-linecap="round" stroke-linejoin="round" stroke-width="1.1237" style="-inkscape-stroke:none"/>
</svg>
