<?xml version="1.0" encoding="UTF-8"?>
<svg viewBox="0 0 24 24" xmlns="http://www.w3.org/2000/svg">
 <defs id="defs3051">
  <style id="current-color-scheme" type="text/css">.ColorScheme-Text {
        color:#363636;
      }
      .ColorScheme-Highlight {
        color:#3daee9;
      }</style>
 </defs>
 <g transform="translate(1,1)" fill="currentColor">
  <path class="ColorScheme-Text" d="m4 3v1 2 3 4 3h1 1v2 1h8v-1h-1-6v-2h4 3 1v-1-2-1-1.4062-4.5938h2v2 1 3h1v-3.5938-1.4062-1-1h-1-2v-1-1h-1-10zm1 1h8 1v1 1 4 1 2 2h-2-2-5v-6-5zm1 2v1h6v-1h-6zm0 2v1h3v-1h-3z"/>
  <path class="ColorScheme-Highlight" d="m6 13v1h5v-1h-5zm11 0v1h1v-1h-1zm0 2v4h1v-4h-1z"/>
 </g>
</svg>
