<?xml version="1.0" encoding="UTF-8"?>
<svg width="24" height="24" version="1.1" viewBox="0 0 24 24" xmlns="http://www.w3.org/2000/svg">
 <defs>
  <style id="current-color-scheme" type="text/css">.ColorScheme-Text {
            color:#363636;
        }</style>
 </defs>
 <g transform="translate(1,1)">
  <path class="ColorScheme-Text" d="m7 3v1h3v2.0254c-3.3453 0.258-6 3.0655-6 6.4746 0 3.578 2.922 6.5 6.5 6.5 3.578 0 6.5-2.922 6.5-6.5 0-1.6099-0.59702-3.0823-1.5742-4.2188l1.0762-1.0762 0.79883 0.79492 0.70508-0.70898-2.2988-2.2891-0.70508 0.70898 0.79102 0.78906-1.0742 1.0742c-1.0187-0.87213-2.3055-1.4398-3.7188-1.5488v-2.0254h3v-1h-7zm3.5 4c3.0376 0 5.5 2.4624 5.5 5.5 0 3.0376-2.4624 5.5-5.5 5.5-3.0376 0-5.5-2.4624-5.5-5.5 0-3.0376 2.4624-5.5 5.5-5.5z" fill="currentColor"/>
 </g>
</svg>
