<?xml version="1.0" encoding="UTF-8"?>
<svg width="24" height="24" version="1.1" viewBox="0 0 24 24" xmlns="http://www.w3.org/2000/svg">
 <defs>
  <style id="current-color-scheme" type="text/css">.ColorScheme-Text {
        color:#363636;
      }</style>
 </defs>
 <g transform="translate(1,1)">
  <path class="ColorScheme-Text" d="m10 3v1h2v1.9941c0.16642-0.018659 0.3286-0.050781 0.5-0.050781 2.4853 0 4.5 2.0147 4.5 4.5 0 1.5833-0.82248 2.9694-2.0586 3.7715-0.055687 0.43688-0.14118 0.86884-0.28516 1.2852 1.9617-0.84248 3.3438-2.7951 3.3438-5.0566 0-1.3179-0.48556-2.5176-1.2656-3.4668l0.76953-0.76172 0.78711 0.78516 0.70703-0.70703-2.2949-2.291-0.70703 0.70703 0.79883 0.79883-0.76172 0.75586c-0.83924-0.71021-1.88-1.1897-3.0332-1.2949v-0.96875h2v-1zm-4 3.0312v1h2v0.96875c-2.7934 0.25484-5 2.6176-5 5.4746 0 3.0257 2.4743 5.5 5.5 5.5 3.0257 0 5.5-2.4743 5.5-5.5 0-1.3179-0.48556-2.5176-1.2656-3.4668l0.76953-0.76172 0.78711 0.78516 0.70703-0.70703-2.2949-2.291-0.70703 0.70703 0.79883 0.79883-0.76172 0.75586c-0.83924-0.71021-1.88-1.1897-3.0332-1.2949v-0.96875h2v-1zm2.5 2.9434c2.4853 0 4.5 2.0147 4.5 4.5s-2.0147 4.5-4.5 4.5c-2.4853 0-4.5-2.0147-4.5-4.5s2.0147-4.5 4.5-4.5z" fill="currentColor"/>
 </g>
</svg>
