<?xml version="1.0" encoding="UTF-8"?>
<svg viewBox="0 0 24 24" xmlns="http://www.w3.org/2000/svg">
 <defs id="defs3051">
  <style id="current-color-scheme" type="text/css">.ColorScheme-Text {
        color:#363636;
      }</style>
 </defs>
 <g transform="translate(1,1)">
  <path class="ColorScheme-Text" d="m11 3c-0.48646 1.7025-1.6626 3.172-2.1875 4.3438-0.1837 0.3484-0.3125 0.73355-0.3125 1.1562 0 1.385 1.115 2.5 2.5 2.5s2.5-1.115 2.5-2.5c0-0.4227-0.09754-0.80785-0.28125-1.1562-0.52491-1.1718-1.7323-2.6412-2.2188-4.3438zm-4.5 8c-0.48646 1.7025-1.6626 3.172-2.1875 4.3438-0.1837 0.3484-0.3125 0.73355-0.3125 1.1562 0 1.385 1.115 2.5 2.5 2.5s2.5-1.115 2.5-2.5c0-0.4227-0.09754-0.80785-0.28125-1.1562-0.52491-1.1718-1.7323-2.6412-2.2188-4.3438zm9 0c-0.48646 1.7025-1.6626 3.172-2.1875 4.3438-0.1837 0.3484-0.3125 0.73355-0.3125 1.1562 0 1.385 1.115 2.5 2.5 2.5s2.5-1.115 2.5-2.5c0-0.4227-0.09754-0.80785-0.28125-1.1562-0.52491-1.1718-1.7323-2.6412-2.2188-4.3438z" fill="currentColor"/>
 </g>
</svg>
