<?xml version="1.0" encoding="UTF-8"?>
<svg viewBox="0 0 24 24" xmlns="http://www.w3.org/2000/svg">
 <defs id="defs3051">
  <style id="current-color-scheme" type="text/css">.ColorScheme-Text {
        color:#363636;
      }</style>
 </defs>
 <path class="ColorScheme-Text" d="m9 5v1h12v-1h-12zm0 2v1h5v-1h-5zm0 4v1h12v-1h-12zm0 2v1h6v-1h-6zm0 4v1h12v-1h-12zm0 2v1h9v-1h-9z" fill="currentColor"/>
 <path id="path10" d="m6.5 5c-0.82842 0-1.5 0.67157-1.5 1.5 1e-5 0.82843 0.67158 1.5 1.5 1.5s1.5-0.67157 1.5-1.5c-1e-5 -0.82843-0.67158-1.5-1.5-1.5zm0 6c-0.82843 0-1.5 0.67157-1.5 1.5s0.67157 1.5 1.5 1.5 1.5-0.67157 1.5-1.5-0.67157-1.5-1.5-1.5z" fill="#27ae60"/>
 <path id="path12" d="m6.5 17c-0.82843 0-1.5 0.67157-1.5 1.5s0.67157 1.5 1.5 1.5 1.5-0.67157 1.5-1.5-0.67157-1.5-1.5-1.5zm12.5 3v1h2v-1h-2z" fill="#da4453"/>
</svg>
