<?xml version="1.0" encoding="UTF-8"?>
<svg viewBox="0 0 24 24" xmlns="http://www.w3.org/2000/svg">
 <defs id="defs3051">
  <style id="current-color-scheme" type="text/css">.ColorScheme-Text {
        color:#363636;
      }
      .ColorScheme-PositiveText {
        color:#27ae60;
      }</style>
 </defs>
 <path class="ColorScheme-Text" d="m7 4s-1-3e-5 -1 1h-2v3 11 1h16v-1-11-3h-2c0-1-1-1-1-1h-3s-1-3e-5 -1 1h-2c0-1-1-1-1-1h-3zm0 1h3v1h-3v-1zm7 0h3v1h-3v-1zm-9 3h14v11h-14v-11zm1 1v2h2v-2h-2zm5 0v2h2v-2h-2zm4 0v2h2v-2h-2zm-9 3v2h2v-2h-2zm5 0v2h2v-2h-2z" fill="currentColor"/>
 <path class="ColorScheme-PositiveText" d="m15 12v2h2v-2h-2zm0 3v2h2v-2h-2z" fill="currentColor"/>
</svg>
