<?xml version="1.0" encoding="UTF-8"?>
<svg id="svg8162" width="24" height="24" version="1.1" xmlns="http://www.w3.org/2000/svg">
 <path id="rect8170" transform="rotate(45)" d="m9.1924-1.4639v3.9996 0.99989h4.9995v-0.99989h-3.9996v-3.9996h-0.99989zm6.3142-6.3142v0.99989h3.9996v3.9996h0.99989v-3.9996-0.99989h-0.99989-3.9996z" fill="#363636" fill-rule="evenodd" stop-color="#000000" stroke-linecap="square" stroke-width=".91287"/>
 <rect id="rect8174" transform="rotate(15)" x="13.42" y="1.5875" width="1" height="8" fill="#363636" fill-rule="evenodd" stop-color="#000000" stroke-linecap="square"/>
 <path id="path8181" d="m15.5 14a3.5 3.5 0 0 0-3.5 3.5 3.5 3.5 0 0 0 3.5 3.5 3.5 3.5 0 0 0 3.5-3.5 3.5 3.5 0 0 0-3.5-3.5zm-0.5 1h1v2h2v1h-2v2h-1v-2h-2v-1h2z" fill="#363636" fill-rule="evenodd" stop-color="#000000" stroke-linecap="square" stroke-width=".875"/>
</svg>
