<?xml version="1.0" encoding="UTF-8"?>
<svg id="svg8801" width="24" height="24" version="1.1" xmlns="http://www.w3.org/2000/svg">
 <path id="rect8817" d="m6 6c-0.554 0-1 0.446-1 1v4c0 0.554 0.446 1 1 1h10c0.554 0 1-0.446 1-1v-4c0-0.554-0.446-1-1-1h-10zm0 1h10v4h-10v-4z" fill="#363636" fill-rule="evenodd" stop-color="#000000" stroke-linecap="square" stroke-width="2"/>
 <rect id="rect8822" x="8" y="5" width="1" height="8" fill="#363636" fill-rule="evenodd" stop-color="#000000" stroke-linecap="square" stroke-width="2"/>
 <path id="rect8824" d="m7 4v1c0.554 0 1 0.446 1 1h1c0-1.108-0.892-2-2-2z" fill="#363636" fill-rule="evenodd" stop-color="#000000" stroke-linecap="square" stroke-width="2"/>
 <path id="path8835" d="m10 4v1c-0.554 0-1 0.446-1 1h-1c0-1.108 0.892-2 2-2z" fill="#363636" fill-rule="evenodd" stop-color="#000000" stroke-linecap="square" stroke-width="2"/>
 <path id="path8837" d="m7 14v-1c0.554 0 1-0.446 1-1h1c0 1.108-0.892 2-2 2z" fill="#363636" fill-rule="evenodd" stop-color="#000000" stroke-linecap="square" stroke-width="2"/>
 <path id="path8839" d="m10 14v-1c-0.554 0-1-0.446-1-1h-1c0 1.108 0.892 2 2 2z" fill="#363636" fill-rule="evenodd" stop-color="#000000" stroke-linecap="square" stroke-width="2"/>
 <path id="path8181" d="m15.5 14a3.5 3.5 0 0 0-3.5 3.5 3.5 3.5 0 0 0 3.5 3.5 3.5 3.5 0 0 0 3.5-3.5 3.5 3.5 0 0 0-3.5-3.5zm-0.5 1h1v2h2v1h-2v2h-1v-2h-2v-1h2z" fill="#363636" fill-rule="evenodd" stop-color="#000000" stroke-linecap="square" stroke-width=".875"/>
</svg>
