<?xml version="1.0" encoding="UTF-8" standalone="no"?>
<svg
   width="22"
   height="22"
   version="1.1"
   id="svg1"
   sodipodi:docname="start-here.svg"
   inkscape:version="1.3.2 (091e20ef0f, 2023-11-25)"
   xmlns:inkscape="http://www.inkscape.org/namespaces/inkscape"
   xmlns:sodipodi="http://sodipodi.sourceforge.net/DTD/sodipodi-0.dtd"
   xmlns="http://www.w3.org/2000/svg"
   xmlns:svg="http://www.w3.org/2000/svg">
  <sodipodi:namedview
     id="namedview1"
     pagecolor="#ffffff"
     bordercolor="#111111"
     borderopacity="1"
     inkscape:showpageshadow="0"
     inkscape:pageopacity="0"
     inkscape:pagecheckerboard="1"
     inkscape:deskcolor="#d1d1d1"
     inkscape:zoom="36.5"
     inkscape:cx="11"
     inkscape:cy="11"
     inkscape:window-width="1920"
     inkscape:window-height="1011"
     inkscape:window-x="0"
     inkscape:window-y="0"
     inkscape:window-maximized="1"
     inkscape:current-layer="svg1" />
  <defs
     id="defs1">
    <style
       id="current-color-scheme"
       type="text/css">.ColorScheme-Text { color:#363636; }</style>
  </defs>
  <path
     id="path28-7"
     style="display:inline;fill:#363636;fill-opacity:1;fill-rule:nonzero;stroke:none;stroke-width:0.0851227"
     d="m 11.000064,3.8523749 c -3.9472829,0 -7.1473693,3.1985543 -7.1503872,7.1454601 v 5.53353 c 0.0022,0.895844 0.7288137,1.621698 1.6255519,1.621698 0.00224,0 0.00561,-2.34e-4 0.00768,-2.34e-4 v 2.34e-4 H 11.00249 c 3.947729,-0.0018 7.147852,-3.202124 7.147852,-7.150249 0,-3.9490112 -3.201319,-7.1503445 -7.150384,-7.1503445 z m 1.449493,2.9420324 v 6.3e-5 c 1.2008,0 2.334772,0.920741 2.334772,2.1888567 0,0.1176358 -0.0015,0.2345751 -0.0201,0.3683861 -0.03322,0.3372697 -0.341277,0.578984 -0.676886,0.531347 -0.335942,-0.04811 -0.564062,-0.3662252 -0.501637,-0.6995857 0.0053,-0.037582 0.0077,-0.097526 0.0077,-0.2001474 0,-0.7188624 -0.587271,-0.996751 -1.143927,-0.996751 -0.556326,0 -1.0578,0.4665915 -1.059702,0.9953979 v 1.8305431 l 1.032168,-0.0075 c 0.805786,-0.0169 0.814032,1.197819 0.0083,1.192105 l -1.04041,0.0056 -0.0075,1.707668 c -0.124511,1.340274 -1.265603,2.412211 -2.6364416,2.412211 -1.4529466,0 -2.6515641,-1.188589 -2.6515641,-2.645111 0.043743,-1.49835 1.2410466,-2.67655 2.7451207,-2.662436 l 0.8378142,-0.0056 v 1.190301 l -0.8447894,0.0075 c -0.8268176,0.02442 -1.5337634,0.585106 -1.5473049,1.470425 0,0.807127 0.6523715,1.453023 1.4611783,1.453023 0.8080249,0 1.4531148,-0.587796 1.4531148,-1.451296 V 8.9768315 c 3.91e-4,-0.083431 0.0043,-0.1503288 0.01389,-0.2425022 0.135808,-1.1016634 1.120836,-1.9411862 2.236051,-1.9411862 z" />
</svg>
