<?xml version="1.0" encoding="UTF-8"?>
<svg id="svg1" width="22" height="22" version="1.1" xmlns="http://www.w3.org/2000/svg">
 <defs id="defs1">
  <style id="current-color-scheme" type="text/css">.ColorScheme-Text { color:#363636; }</style>
 </defs>
 <path id="path28-7" d="m11 3.8524c-3.9473 0-7.1474 3.1986-7.1504 7.1455v5.5335c0.0022 0.89584 0.72881 1.6217 1.6256 1.6217 0.00224 0 0.00561-2.34e-4 0.00768-2.34e-4v2.34e-4h5.5196c3.9477-0.0018 7.1479-3.2021 7.1479-7.1502 0-3.949-3.2013-7.1503-7.1504-7.1503zm1.4495 2.942v6.3e-5c1.2008 0 2.3348 0.92074 2.3348 2.1889 0 0.11764-0.0015 0.23458-0.0201 0.36839-0.03322 0.33727-0.34128 0.57898-0.67689 0.53135-0.33594-0.04811-0.56406-0.36623-0.50164-0.69959 0.0053-0.037582 0.0077-0.097526 0.0077-0.20015 0-0.71886-0.58727-0.99675-1.1439-0.99675-0.55633 0-1.0578 0.46659-1.0597 0.9954v1.8305l1.0322-0.0075c0.80579-0.0169 0.81403 1.1978 0.0083 1.1921l-1.0404 0.0056-0.0075 1.7077c-0.12451 1.3403-1.2656 2.4122-2.6364 2.4122-1.4529 0-2.6516-1.1886-2.6516-2.6451 0.043743-1.4984 1.241-2.6766 2.7451-2.6624l0.83781-0.0056v1.1903l-0.84479 0.0075c-0.82682 0.02442-1.5338 0.58511-1.5473 1.4704 0 0.80713 0.65237 1.453 1.4612 1.453 0.80802 0 1.4531-0.5878 1.4531-1.4513v-4.5026c3.91e-4 -0.083431 0.0043-0.15033 0.01389-0.2425 0.13581-1.1017 1.1208-1.9412 2.2361-1.9412z" fill="#363636"/>
</svg>
