<?xml version="1.0" encoding="UTF-8"?>
<svg viewBox="0 0 22 22" xmlns="http://www.w3.org/2000/svg">
 <defs id="defs3051">
  <style id="current-color-scheme" type="text/css">.ColorScheme-Text {
        color:#dedede;
      }
      .ColorScheme-Highlight {
        color:#3daee9;
      }</style>
 </defs>
 <path class="ColorScheme-Text" d="m3 3v7h8v-7h-8zm1 1h6v5h-6v-5zm8 0.078125v1.0117 2.9102h1v-2.6445a6 6 0 0 1 4 5.6445h1a7 7 0 0 0-6-6.9219zm-8 6.9219a7 7 0 0 0 6 6.9219v-1.0117-2.9102h-1v2.6445a6 6 0 0 1-4-5.6445h-1z" fill="currentColor"/>
 <path class="ColorScheme-Highlight" d="m15.5 12a3.5 3.5 0 0 0-3.5 3.5 3.5 3.5 0 0 0 0.69922 2.0938l0.7168-0.7168a2.5 2.5 0 0 1-0.41602-1.377 2.5 2.5 0 0 1 2.5-2.5 2.5 2.5 0 0 1 1.377 0.416l0.7168-0.7168a3.5 3.5 0 0 0-2.0938-0.6992m2.8008 1.4063-0.7168 0.7167a2.5 2.5 0 0 1 0.41602 1.377 2.5 2.5 0 0 1-2.5 2.5 2.5 2.5 0 0 1-1.377-0.416l-0.7168 0.7168a3.5 3.5 0 0 0 2.0938 0.6992 3.5 3.5 0 0 0 3.5-3.5 3.5 3.5 0 0 0-0.69922-2.0937z" fill="currentColor"/>
</svg>
