<?xml version="1.0" encoding="UTF-8"?>
<svg viewBox="0 0 22 22" xmlns="http://www.w3.org/2000/svg">
 <defs id="defs3051">
  <style id="current-color-scheme" type="text/css">.ColorScheme-Text {
        color:#dedede;
      }</style>
 </defs>
 <path class="ColorScheme-Text" d="m3 2v1 7 1 7 1h1 15 1v-1-7-1-7-1h-1-15-1zm1 1h15v7h-15v-7zm0 8h15v7h-15v-7z" fill="currentColor" fill-opacity=".1"/>
 <path class="ColorScheme-Text" d="m4 3v7h7v-7h-7zm8 0v7h7v-7h-7zm-8 8v7h7v-7h-7zm8 0v7h7v-7h-7z" fill="currentColor" fill-opacity=".5"/>
 <path class="ColorScheme-Text" d="m11 2v17h1v-17h-1z" fill="currentColor"/>
</svg>
