<?xml version="1.0" encoding="UTF-8"?>
<svg viewBox="0 0 22 22" xmlns="http://www.w3.org/2000/svg">
 <defs id="defs3051">
  <style id="current-color-scheme" type="text/css">.ColorScheme-Text {
        color:#dedede;
      }</style>
 </defs>
 <path class="ColorScheme-Text" d="m3 4v3 3h1v-3a2 2 0 0 1 2-2 2 2 0 0 1 2 2v3h1v-3a3 3 0 0 0-3-3 3 3 0 0 0-2 0.76953v-0.76953h-1zm13.516 1.9961v0.0039062l-5.1953 9.002-2.3164-4.0059h-0.0039062l-6 0.003906v1l5.416-0.003906 2.9063 5s5.7825-9.9915 5.7715-10h2.9062v-1h-3.4844z" fill="currentColor"/>
</svg>
