<?xml version="1.0" encoding="UTF-8"?>
<svg viewBox="0 0 22 22" xmlns="http://www.w3.org/2000/svg">
 <defs id="defs3051">
  <style id="current-color-scheme" type="text/css">.ColorScheme-Text {
        color:#dedede;
      }
      .ColorScheme-Highlight {
        color:#3daee9;
      }</style>
 </defs>
 <path class="ColorScheme-Text" d="m3 3v1h9v-1h-9zm0 2v1h8v-1h-8zm0 3v1h9v-1h-9zm0 2v1h4v-1h-4zm0 3v1h9v-1h-9zm0 2v1h6v-1h-6zm7 1v1h2v-1h-2z" fill="currentColor"/>
 <path class="ColorScheme-Highlight" d="m16 3-3 4h2v1 5 2h-2l3 4 3-4h-2v-3-1-3-1h2l-3-4z" fill="currentColor"/>
</svg>
