<?xml version="1.0" encoding="UTF-8"?>
<svg viewBox="0 0 22 22" xmlns="http://www.w3.org/2000/svg">
 <defs id="defs3051">
  <style id="current-color-scheme" type="text/css">.ColorScheme-Text {
        color:#dedede;
      }</style>
 </defs>
 <path class="ColorScheme-Text" d="m3 3v1h1v-1h-1zm5 0v1h1v-1h-1zm5 0v1h1v-1h-1zm5 0v1h1v-1h-1zm-15 3v1h1v-1h-1zm5 0v1h1v-1h-1zm5 0v1h1v-1h-1zm5 0v1h1v-1h-1zm-15 3v1h1v-1h-1zm5 0v1h1v-1h-1zm5 0v1h1v-1h-1zm5 0v1h1v-1h-1zm-15 3v1h1v-1h-1zm5 0v1h1v-1h-1zm5 0v1h1v-1h-1zm5 0v1h1v-1h-1zm-15 3v1h1v-1h-1zm5 0v1h1v-1h-1zm5 0v1h1v-1h-1zm5 0v1h1v-1h-1zm-15 3v1h1v-1h-1zm5 0v1h1v-1h-1zm5 0v1h1v-1h-1zm5 0v1h1v-1h-1z" fill="currentColor"/>
</svg>
