<?xml version="1.0" encoding="UTF-8"?>
<svg id="svg1" width="16" height="16" version="1.1" xmlns="http://www.w3.org/2000/svg">
 <defs id="defs1">
  <style id="current-color-scheme" type="text/css">.ColorScheme-Text { color:#ffffff; }</style>
 </defs>
 <path id="path28-7" d="m7.9996 0.85807c-3.9426 0-7.139 3.1948-7.142 7.1371v5.527c0.002198 0.89479 0.72796 1.6198 1.6236 1.6198 0.00221 0 0.00564-2.35e-4 0.00769-2.35e-4v2.35e-4h5.5131c3.9431-0.0018 7.1394-3.1984 7.1394-7.1418 0-3.9444-3.1976-7.1419-7.142-7.1419zm1.4478 2.9386v6.29e-5c1.1994 0 2.332 0.91966 2.332 2.1863 0 0.1175-0.0015 0.2343-0.02008 0.36795-0.03318 0.33687-0.34087 0.5783-0.67609 0.53072-0.33555-0.048053-0.5634-0.36579-0.50105-0.69876 0.0053-0.037538 0.0077-0.097411 0.0077-0.19991 0-0.71802-0.58658-0.99558-1.1426-0.99558-0.55567 0-1.0566 0.46604-1.0585 0.99423v1.8284l1.031-0.0075c0.80484-0.016885 0.81307 1.1964 0.00827 1.1907l-1.0392 0.0056-0.0075 1.7057c-0.12438 1.3387-1.2641 2.4094-2.6334 2.4094-1.4512 0-2.6484-1.1872-2.6484-2.642 0.043692-1.4966 1.2396-2.6734 2.7419-2.6593l0.83683-0.0056v1.1889l-0.8438 0.0075c-0.82584 0.024393-1.532 0.58442-1.5455 1.4687 0 0.80618 0.6516 1.4513 1.4595 1.4513 0.80707 0 1.4514-0.5871 1.4514-1.4496v-4.4973c3.904e-4 -0.083333 0.00431-0.15015 0.013877-0.24222 0.13565-1.1004 1.1195-1.9389 2.2334-1.9389z" fill="#fff"/>
</svg>
