<?xml version="1.0" encoding="UTF-8" standalone="no"?>
<svg
   width="16"
   height="16"
   version="1.1"
   id="svg1"
   sodipodi:docname="start-here-symbolic.svg"
   inkscape:version="1.3.2 (091e20ef0f, 2023-11-25)"
   xmlns:inkscape="http://www.inkscape.org/namespaces/inkscape"
   xmlns:sodipodi="http://sodipodi.sourceforge.net/DTD/sodipodi-0.dtd"
   xmlns="http://www.w3.org/2000/svg"
   xmlns:svg="http://www.w3.org/2000/svg">
  <sodipodi:namedview
     id="namedview1"
     pagecolor="#ffffff"
     bordercolor="#111111"
     borderopacity="1"
     inkscape:showpageshadow="0"
     inkscape:pageopacity="0"
     inkscape:pagecheckerboard="1"
     inkscape:deskcolor="#d1d1d1"
     inkscape:zoom="35.487922"
     inkscape:cx="4.6072013"
     inkscape:cy="9.5948138"
     inkscape:window-width="1920"
     inkscape:window-height="1011"
     inkscape:window-x="0"
     inkscape:window-y="0"
     inkscape:window-maximized="1"
     inkscape:current-layer="svg1" />
  <defs
     id="defs1">
    <style
       id="current-color-scheme"
       type="text/css">.ColorScheme-Text { color:#ffffff; }</style>
  </defs>
  <path
     id="path28-7"
     style="display:inline;fill:#ffffff;fill-opacity:1;fill-rule:nonzero;stroke:none;stroke-width:0.0850226"
     d="m 7.9996139,0.85806817 c -3.9426391,0 -7.13896068,3.19479113 -7.14197498,7.13705283 v 5.527021 c 0.002198,0.89479 0.72795618,1.61979 1.62363898,1.61979 0.00221,0 0.00564,-2.35e-4 0.00769,-2.35e-4 v 2.35e-4 H 8.002054 c 3.943084,-0.0018 7.139442,-3.198358 7.139442,-7.1418376 0,-3.9443648 -3.197552,-7.14193167 -7.1419709,-7.14193167 z M 9.4474015,3.7966393 v 6.29e-5 c 1.1993865,0 2.3320245,0.9196577 2.3320245,2.1862815 0,0.1174973 -0.0015,0.2342991 -0.02008,0.3679527 -0.03318,0.3368728 -0.340874,0.5783028 -0.676089,0.5307218 -0.335546,-0.048053 -0.563398,-0.3657944 -0.501047,-0.6987626 0.0053,-0.037538 0.0077,-0.097411 0.0077,-0.1999119 0,-0.7180167 -0.58658,-0.9955784 -1.142581,-0.9955784 -0.5556708,0 -1.0565547,0.4660426 -1.0584545,0.9942269 v 1.8283893 l 1.0309534,-0.0075 c 0.8048371,-0.016885 0.8130741,1.1964092 0.00827,1.1907022 l -1.0391857,0.0056 -0.0075,1.7056573 c -0.1243828,1.338703 -1.2641322,2.409377 -2.633358,2.409377 -1.4512372,0 -2.6484445,-1.187191 -2.6484445,-2.641998 0.043692,-1.4965868 1.2395864,-2.6734006 2.7418911,-2.6593035 l 0.8368285,-0.0056 v 1.1889007 l -0.8437956,0.0075 c -0.8258448,0.024393 -1.5319589,0.5844174 -1.5454845,1.4686958 0,0.806178 0.6516041,1.451314 1.4594592,1.451314 0.8070743,0 1.4514052,-0.587104 1.4514052,-1.449589 V 5.9764958 c 3.904e-4,-0.083333 0.00431,-0.150152 0.013877,-0.2422169 0.135649,-1.1003672 1.1195179,-1.9389024 2.2334211,-1.9389024 z" />
</svg>
