<?xml version="1.0" encoding="UTF-8" standalone="no"?>
<svg
   width="24"
   height="24"
   version="1.1"
   id="svg1"
   sodipodi:docname="start-here.svg"
   inkscape:version="1.3.2 (091e20ef0f, 2023-11-25)"
   xmlns:inkscape="http://www.inkscape.org/namespaces/inkscape"
   xmlns:sodipodi="http://sodipodi.sourceforge.net/DTD/sodipodi-0.dtd"
   xmlns="http://www.w3.org/2000/svg"
   xmlns:svg="http://www.w3.org/2000/svg">
  <sodipodi:namedview
     id="namedview1"
     pagecolor="#ffffff"
     bordercolor="#111111"
     borderopacity="1"
     inkscape:showpageshadow="0"
     inkscape:pageopacity="0"
     inkscape:pagecheckerboard="1"
     inkscape:deskcolor="#d1d1d1"
     inkscape:zoom="33.458333"
     inkscape:cx="12"
     inkscape:cy="12"
     inkscape:window-width="1920"
     inkscape:window-height="1011"
     inkscape:window-x="0"
     inkscape:window-y="0"
     inkscape:window-maximized="1"
     inkscape:current-layer="svg1" />
  <defs
     id="defs1">
    <style
       id="current-color-scheme"
       type="text/css">.ColorScheme-Text { color:#363636; }</style>
  </defs>
  <path
     id="path28-7"
     style="display:inline;fill:#363636;fill-opacity:1;fill-rule:nonzero;stroke:none;stroke-width:0.0851227"
     d="m 12.000064,4.8523752 c -3.9472826,0 -7.1473688,3.198554 -7.1503865,7.1454588 v 5.533531 c 0.00216,0.895844 0.7288139,1.621698 1.6255516,1.621698 0.00224,0 0.00561,-2.36e-4 0.00768,-2.36e-4 v 2.36e-4 H 12.00249 c 3.947728,-0.0018 7.147852,-3.202125 7.147852,-7.15025 0,-3.9490101 -3.201319,-7.1503431 -7.150384,-7.1503431 z m 1.449493,2.9420322 v 6.3e-5 c 1.2008,0 2.334772,0.9207409 2.334772,2.1888565 0,0.1176361 -0.0015,0.2345751 -0.0201,0.3683861 -0.03322,0.337269 -0.341276,0.578984 -0.676885,0.531347 -0.335942,-0.04811 -0.564062,-0.366226 -0.501637,-0.699586 0.0053,-0.03758 0.0077,-0.09753 0.0077,-0.2001471 0,-0.7188623 -0.587271,-0.996751 -1.143927,-0.996751 -0.556326,0 -1.0578,0.4665915 -1.059702,0.9953979 v 1.8305422 l 1.032168,-0.0075 c 0.805785,-0.01691 0.814032,1.197818 0.0083,1.192104 l -1.040409,0.0056 -0.0075,1.707668 c -0.124511,1.340275 -1.265603,2.41221 -2.6364414,2.41221 -1.4529464,0 -2.6515638,-1.188589 -2.6515638,-2.64511 0.043743,-1.49835 1.2410464,-2.676549 2.7451204,-2.662436 l 0.8378138,-0.0056 v 1.190301 l -0.844789,0.0075 c -0.8268175,0.02442 -1.5337633,0.585106 -1.5473048,1.470425 0,0.807128 0.6523715,1.453024 1.4611782,1.453024 0.8080246,0 1.4531146,-0.587796 1.4531146,-1.451296 V 9.9768314 c 3.91e-4,-0.083431 0.0043,-0.1503288 0.01389,-0.2425022 0.135808,-1.1016632 1.120836,-1.941186 2.236051,-1.941186 z" />
</svg>
