<?xml version="1.0" encoding="UTF-8" standalone="no"?>
<svg
   width="22"
   height="22"
   version="1.1"
   id="svg1"
   sodipodi:docname="start-here.svg"
   inkscape:version="1.4.4 (dcaf3e7d9e, 2026-05-05)"
   xmlns:inkscape="http://www.inkscape.org/namespaces/inkscape"
   xmlns:sodipodi="http://sodipodi.sourceforge.net/DTD/sodipodi-0.dtd"
   xmlns="http://www.w3.org/2000/svg"
   xmlns:svg="http://www.w3.org/2000/svg">
  <sodipodi:namedview
     id="namedview1"
     pagecolor="#ffffff"
     bordercolor="#999999"
     borderopacity="1"
     inkscape:showpageshadow="2"
     inkscape:pageopacity="0"
     inkscape:pagecheckerboard="0"
     inkscape:deskcolor="#d1d1d1"
     inkscape:zoom="52.636364"
     inkscape:cx="11"
     inkscape:cy="11"
     inkscape:window-width="2560"
     inkscape:window-height="1371"
     inkscape:window-x="0"
     inkscape:window-y="0"
     inkscape:window-maximized="1"
     inkscape:current-layer="svg1" />
  <defs
     id="defs1">
    <style
       id="current-color-scheme"
       type="text/css">.ColorScheme-Text { color:#363636; }</style>
  </defs>
  <path
     style="baseline-shift:baseline;display:inline;overflow:visible;fill:#363636;stroke:#363636;stroke-width:0.281691;stroke-linecap:round;stroke-linejoin:round;stroke-dasharray:none;stroke-opacity:1;enable-background:accumulate;stop-color:#000000"
     d="m 10.872861,5.888969 c 0.03851,0.019251 0.06933,0.065474 0.115535,0.065474 0.04237,0 0.107833,-0.015407 0.111692,-0.057765 0.0078,-0.053921 -0.07317,-0.088581 -0.123241,-0.1116838 -0.06546,-0.026959 -0.150195,-0.038514 -0.211814,-0.00388 -0.0154,0.00769 -0.0308,0.026959 -0.02311,0.042358 0.01155,0.050066 0.08858,0.042358 0.130945,0.065473 m -0.843401,0.065475 c 0.04622,0 0.07703,-0.046213 0.115536,-0.065473 0.04237,-0.023107 0.119382,-0.015407 0.13479,-0.061619 0.0078,-0.015407 -0.0078,-0.03466 -0.02311,-0.042358 -0.06162,-0.03466 -0.146344,-0.023107 -0.211814,0.00388 -0.05007,0.023105 -0.1309444,0.057765 -0.1232404,0.1116838 0.0038,0.038514 0.06932,0.057765 0.1078314,0.053921 m 8.514515,10.736228 c -0.13865,-0.154046 -0.204112,-0.446734 -0.277286,-0.758677 -0.06931,-0.311944 -0.150193,-0.646992 -0.40437,-0.862659 -0.05007,-0.04235 -0.100127,-0.08088 -0.154046,-0.111677 C 17.658203,14.92685 17.6043,14.8999 17.550376,14.88065 17.90468,13.829276 17.76604,12.781763 17.407883,11.834764 16.968846,10.675564 16.202467,9.6627105 15.617092,8.9698888 14.95855,8.1418905 14.319259,7.356255 14.330812,6.1974431 14.350063,4.4293792 14.52722,1.1447305 11.412022,1.1408792 7.4688266,1.1331898 8.4547216,5.1225858 8.4123591,6.3472531 8.3468892,7.2484226 8.1658853,7.9570346 7.5458496,8.838564 6.8179818,9.7050742 5.7935751,11.103041 5.3083299,12.562243 5.0772607,13.2516 4.9694285,13.95251 5.0695584,14.614909 c -0.250325,0.223367 -0.4390314,0.56612 -0.6392912,0.777933 -0.1617484,0.165598 -0.3966689,0.227217 -0.654696,0.319644 -0.2580272,0.09242 -0.5391614,0.23107 -0.7124633,0.558419 -0.080875,0.150194 -0.1078317,0.311943 -0.1078317,0.477541 0,0.150196 0.023107,0.304242 0.046215,0.454437 0.046215,0.311944 0.096279,0.60463 0.03081,0.801038 -0.20026,0.554568 -0.227218,0.939683 -0.084726,1.220818 0.1463438,0.281135 0.4390314,0.40437 0.7740816,0.473691 0.6662495,0.138649 1.5712705,0.103972 2.2837336,0.481393 0.7625282,0.400521 1.53661,0.543013 2.1527944,0.400521 0.4467338,-0.100127 0.8125933,-0.36971 0.9974485,-0.777933 0.4813944,-0.0039 1.0128537,-0.207963 1.8601087,-0.254177 0.57382,-0.04622 1.293986,0.204112 2.121984,0.157899 0.0231,0.08858 0.05391,0.177151 0.09628,0.258027 v 0.0039 c 0.319647,0.643142 0.916575,0.935829 1.552014,0.885764 0.639291,-0.05007 1.313244,-0.423625 1.860107,-1.074471 0.523757,-0.631588 1.386415,-0.893468 1.960236,-1.24007 0.284987,-0.173303 0.516055,-0.388968 0.535311,-0.704763 0.01425,-0.316179 -0.170607,-0.666248 -0.597698,-1.143793 M 10.984545,4.5025544 c 0.377412,-0.8549562 1.317095,-0.839551 1.694507,-0.015404 0.250323,0.5468637 0.138648,1.190006 -0.1656,1.5558657 -0.06162,-0.03081 -0.227218,-0.10013 -0.485246,-0.1887068 0.04237,-0.046215 0.119381,-0.1039809 0.150195,-0.1771529 0.184855,-0.4544369 -0.0077,-1.0398121 -0.350454,-1.0513651 -0.281134,-0.019256 -0.53531,0.4159242 -0.454437,0.8857649 -0.157897,-0.077023 -0.362007,-0.1347894 -0.500649,-0.169451 -0.03851,-0.2657287 -0.01155,-0.562268 0.111691,-0.8395508 M 9.4175099,4.0596718 c 0.3889663,0 0.8010391,0.5468639 0.7355701,1.2901362 C 10.01829,5.388321 9.8796485,5.446086 9.7602618,5.5269607 9.8064762,5.1842082 9.6331737,4.7528796 9.3905518,4.7721355 9.067055,4.7990958 9.0131387,5.5885794 9.3212306,5.854309 9.3597421,5.885114 9.3944021,5.8466196 9.0940127,6.0661227 8.4932329,5.5038538 8.6896416,4.0596718 9.4175095,4.0596718 M 8.8937527,6.3973213 C 9.1325243,6.2201686 9.4175095,6.012206 9.4367654,5.9929503 9.6177693,5.8235002 9.9566706,5.4460865 10.511238,5.4460865 c 0.273431,0 0.600779,0.088581 0.997448,0.3427526 0.242623,0.1578973 0.43518,0.169451 0.87036,0.3581579 0.323497,0.1347897 0.527608,0.3735615 0.404371,0.7009096 C 12.68329,7.1213379 12.35979,7.402472 11.909206,7.5449647 11.481728,7.6836064 11.146677,8.1611497 10.438065,8.1187875 10.28787,8.1110975 10.168485,8.0802735 10.068354,8.0379155 9.7602618,7.9031227 9.5985143,7.6373929 9.298124,7.4602402 8.9669249,7.2753847 8.789772,7.0597193 8.7320047,6.8710135 Q 8.6511305,6.5879534 8.893753,6.3973213 M 9.0208412,19.259017 C 8.9168602,20.610773 7.3301857,20.583815 6.1213088,19.952224 4.9698137,19.343743 3.4798026,19.701899 3.1755615,19.108822 3.083134,18.92782 3.083134,18.619728 3.2756914,18.092118 v -0.0076 c 0.092427,-0.292688 0.023107,-0.616185 -0.023105,-0.920426 -0.046215,-0.300389 -0.06932,-0.577672 0.03466,-0.77023 0.1347897,-0.258029 0.3273481,-0.350456 0.5699707,-0.43518 0.3966687,-0.142493 0.4544359,-0.130931 0.754826,-0.381265 0.2118133,-0.219515 0.3658595,-0.496799 0.5507148,-0.693207 0.1964089,-0.211814 0.3851152,-0.311944 0.681654,-0.26573 0.3119434,0.04622 0.5815241,0.261877 0.8434025,0.616184 l 0.7548258,1.370993 c 0.3650891,0.766762 1.6590766,1.863956 1.5782024,2.653442 m -0.053918,-0.99753 C 8.809028,18.007393 8.5972147,17.737813 8.4123594,17.506742 c 0.2734319,0 0.5468636,-0.08472 0.6431424,-0.342753 0.088577,-0.23877 0,-0.57382 -0.2849851,-0.958937 C 8.2506106,15.504144 7.2955247,14.953428 7.2955247,14.953428 6.7756191,14.629932 6.4829316,14.233263 6.3481412,13.801934 6.2133502,13.370605 6.2326067,12.904616 6.3365919,12.446328 c 0.20026,-0.881914 0.7163144,-1.740721 1.0475136,-2.279883 0.088577,-0.06546 0.03081,0.12324 -0.3350503,0.801041 -0.3273481,0.620034 -0.9396813,2.052664 -0.1001299,3.172965 0.023107,-0.79719 0.2118133,-1.609782 0.5314589,-2.368074 0.4621381,-1.055218 1.4364797,-2.8841296 1.5135029,-4.3398651 0.042362,0.030806 0.1771529,0.1232345 0.2387715,0.157897 0.1771528,0.103981 0.3119433,0.2580271 0.4852452,0.3966685 0.4775432,0.385116 1.0975792,0.3543059 1.6328882,0.046213 0.238772,-0.1347924 0.43133,-0.2888375 0.612334,-0.3466048 0.381264,-0.1193853 0.685505,-0.3311994 0.858806,-0.5776724 0.29654,1.17075 0.989748,2.8610216 1.43263,3.6851678 0.234919,0.439033 0.704762,1.36716 0.908872,2.48746 0.127084,-0.0039 0.26958,0.0154 0.419776,0.05391 0.531457,-1.37486 -0.450585,-2.857168 -0.897319,-3.269243 -0.181004,-0.1771512 -0.188708,-0.2541744 -0.100127,-0.2503237 0.485246,0.4313297 1.124537,1.2978387 1.355607,2.2721807 0.107831,0.446734 0.127085,0.912723 0.0154,1.374862 0.63159,0.261879 1.382566,0.689357 1.182306,1.340202 -0.08472,-0.0039 -0.123226,0 -0.161748,0 0.123226,-0.388967 -0.150195,-0.677805 -0.878065,-1.005151 -0.754825,-0.3312 -1.386415,-0.3312 -1.47499,0.481392 -0.465991,0.161751 -0.704761,0.566121 -0.824147,1.051365 -0.107831,0.43133 -0.138648,0.951238 -0.169452,1.536611 -0.01926,0.296539 -0.138648,0.693206 -0.261877,1.116834 -1.236605,0.881915 -2.954219,1.26703 -4.4018682,0.277283 m 9.9117082,-0.442884 c -0.03466,0.646993 -1.586676,0.76638 -2.433546,1.790786 -0.508351,0.604632 -1.132237,0.93968 -1.679101,0.982043 -0.546864,0.04235 -1.020556,-0.184854 -1.297839,-0.743271 -0.181005,-0.427478 -0.09242,-0.889618 0.04235,-1.397969 0.142494,-0.546864 0.354305,-1.109132 0.381264,-1.563568 0.0308,-0.585376 0.06546,-1.097578 0.161749,-1.490397 0.100127,-0.396669 0.254175,-0.662399 0.527607,-0.812592 0.01155,-0.0076 0.02696,-0.01155 0.03851,-0.01926 0.0308,0.508351 0.281134,1.024408 0.724017,1.136091 0.485244,0.127085 1.182303,-0.288838 1.478843,-0.62774 0.346604,-0.01155 0.604632,-0.03466 0.870361,0.19641 0.381265,0.327348 0.273431,1.166901 0.658546,1.602079 0.407839,0.447119 0.538779,0.750974 0.527223,0.947384 M 9.0439481,6.8671624 c 0.077023,0.073173 0.1810042,0.1733013 0.3080922,0.2734313 0.2541754,0.2002599 0.6084823,0.4082224 1.0513657,0.4082224 0.446734,0 0.866508,-0.2272183 1.224666,-0.4159241 0.188706,-0.1001299 0.419775,-0.2695811 0.56997,-0.4005198 0.150196,-0.1309402 0.227219,-0.2426225 0.119382,-0.2541767 -0.107832,-0.011549 -0.100127,0.1001299 -0.231069,0.1964086 -0.169451,0.1232374 -0.373561,0.2849853 -0.535311,0.3774137 -0.284985,0.1617483 -0.750974,0.392817 -1.151495,0.392817 -0.4005194,0 -0.7201652,-0.1848554 -0.9589364,-0.3735613 C 9.321231,6.9749948 9.2211011,6.8787153 9.1440781,6.8055438 9.0863109,6.7516232 9.0709065,6.628391 8.9784783,6.616837 c -0.053916,-0.00388 -0.06932,0.1424927 0.065469,0.2503254"
     id="path2" />
</svg>
