<?xml version="1.0" encoding="UTF-8"?>
<svg id="svg1" width="32" height="32" version="1.1" xmlns="http://www.w3.org/2000/svg">
 <defs id="defs1">
  <style id="current-color-scheme" type="text/css">.ColorScheme-Text { color:#363636; }</style>
 </defs>
 <path id="path28-7" d="m16 7.7176c-4.5741 0-8.2824 3.7065-8.2859 8.2802v6.4123c0.00255 1.0381 0.84455 1.8792 1.8837 1.8792 0.00256 0 0.00654-2.72e-4 0.00892-2.72e-4v2.72e-4h6.3961c4.5747-0.0021 8.283-3.7106 8.283-8.2858 0-4.5761-3.7097-8.2859-8.2859-8.2859zm1.6797 3.4092v7.3e-5c1.3915 0 2.7055 1.067 2.7055 2.5365 0 0.13632-0.0017 0.27183-0.02329 0.42689-0.0385 0.39083-0.39547 0.67093-0.78438 0.61573-0.38929-0.05575-0.65364-0.42438-0.5813-0.81068 0.0061-0.04355 0.0089-0.11301 0.0089-0.23193 0-0.83302-0.68053-1.155-1.3256-1.155-0.64467 0-1.2258 0.54069-1.228 1.1535v2.1212l1.1961-0.0087c0.93375-0.01959 0.9433 1.388 0.0096 1.3814l-1.2056 0.0065-0.0087 1.9789c-0.14428 1.5531-1.4666 2.7953-3.0551 2.7953-1.6837 0-3.0726-1.3773-3.0726-3.0652 0.05069-1.7363 1.4381-3.1016 3.1811-3.0852l0.97086-0.0065v1.3793l-0.97895 0.0087c-0.95812 0.0283-1.7773 0.67802-1.793 1.7039 0 0.9353 0.75597 1.6838 1.6932 1.6838 0.93634 0 1.6839-0.68114 1.6839-1.6818v-5.2176c4.53e-4 -0.09668 5e-3 -0.1742 0.0161-0.28101 0.15738-1.2766 1.2988-2.2495 2.5912-2.2495z" fill="#363636"/>
</svg>
