<?xml version="1.0" encoding="UTF-8" standalone="no"?>
<svg
   width="32"
   height="32"
   version="1.1"
   id="svg1"
   sodipodi:docname="start-here-symbolic.svg"
   inkscape:version="1.3.2 (091e20ef0f, 2023-11-25)"
   xmlns:inkscape="http://www.inkscape.org/namespaces/inkscape"
   xmlns:sodipodi="http://sodipodi.sourceforge.net/DTD/sodipodi-0.dtd"
   xmlns="http://www.w3.org/2000/svg"
   xmlns:svg="http://www.w3.org/2000/svg">
  <sodipodi:namedview
     id="namedview1"
     pagecolor="#ffffff"
     bordercolor="#111111"
     borderopacity="1"
     inkscape:showpageshadow="0"
     inkscape:pageopacity="0"
     inkscape:pagecheckerboard="1"
     inkscape:deskcolor="#d1d1d1"
     inkscape:zoom="25.09375"
     inkscape:cx="16"
     inkscape:cy="16"
     inkscape:window-width="1920"
     inkscape:window-height="1011"
     inkscape:window-x="0"
     inkscape:window-y="0"
     inkscape:window-maximized="1"
     inkscape:current-layer="svg1" />
  <defs
     id="defs1">
    <style
       id="current-color-scheme"
       type="text/css">.ColorScheme-Text { color:#363636; }</style>
  </defs>
  <path
     id="path28-7"
     style="display:inline;fill:#363636;fill-opacity:1;fill-rule:nonzero;stroke:none;stroke-width:0.0986407"
     d="m 16.000063,7.7176335 c -4.574135,0 -8.282414,3.7065035 -8.2859111,8.2802005 v 6.412288 c 0.00255,1.038109 0.8445535,1.879233 1.8836985,1.879233 0.00256,0 0.00654,-2.72e-4 0.00892,-2.72e-4 v 2.72e-4 h 6.3961236 c 4.574651,-0.0021 8.282973,-3.710641 8.282973,-8.285751 0,-4.576137 -3.709707,-8.2858608 -8.285907,-8.2858608 z m 1.679681,3.4092445 v 7.3e-5 c 1.391494,0 2.705547,1.06696 2.705547,2.53646 0,0.136317 -0.0017,0.271827 -0.02329,0.426888 -0.0385,0.39083 -0.395473,0.67093 -0.784379,0.615728 -0.389291,-0.05575 -0.653638,-0.424384 -0.5813,-0.810684 0.0061,-0.04355 0.0089,-0.113014 0.0089,-0.231932 0,-0.833022 -0.680533,-1.155041 -1.32559,-1.155041 -0.644673,0 -1.225784,0.540689 -1.227988,1.153473 v 2.121244 l 1.196082,-0.0087 c 0.933749,-0.01959 0.943305,1.388039 0.0096,1.381418 l -1.205633,0.0065 -0.0087,1.978855 c -0.144284,1.553118 -1.466588,2.795284 -3.055124,2.795284 -1.683683,0 -3.072648,-1.377344 -3.072648,-3.06517 0.05069,-1.736296 1.438132,-3.101601 3.181062,-3.085246 l 0.970864,-0.0065 v 1.379328 l -0.978947,0.0087 c -0.958121,0.0283 -1.777334,0.678024 -1.793026,1.703937 0,0.935304 0.755972,1.683772 1.693222,1.683772 0.936344,0 1.683878,-0.681141 1.683878,-1.68177 v -5.217611 c 4.53e-4,-0.09668 0.005,-0.174202 0.0161,-0.281013 0.157376,-1.276614 1.298832,-2.249458 2.59115,-2.249458 z" />
</svg>
