<?xml version="1.0" encoding="UTF-8" standalone="no"?>
<svg
   width="22"
   height="22"
   version="1.1"
   id="svg1"
   sodipodi:docname="start-here-symbolic.svg"
   inkscape:version="1.4.4 (dcaf3e7d9e, 2026-05-05)"
   xmlns:inkscape="http://www.inkscape.org/namespaces/inkscape"
   xmlns:sodipodi="http://sodipodi.sourceforge.net/DTD/sodipodi-0.dtd"
   xmlns="http://www.w3.org/2000/svg"
   xmlns:svg="http://www.w3.org/2000/svg">
  <sodipodi:namedview
     id="namedview1"
     pagecolor="#ffffff"
     bordercolor="#999999"
     borderopacity="1"
     inkscape:showpageshadow="2"
     inkscape:pageopacity="0"
     inkscape:pagecheckerboard="0"
     inkscape:deskcolor="#d1d1d1"
     inkscape:zoom="52.636364"
     inkscape:cx="11"
     inkscape:cy="11"
     inkscape:window-width="2560"
     inkscape:window-height="1371"
     inkscape:window-x="0"
     inkscape:window-y="0"
     inkscape:window-maximized="1"
     inkscape:current-layer="svg1" />
  <defs
     id="defs1">
    <style
       id="current-color-scheme"
       type="text/css">
   .ColorScheme-Text { color:#f2f2f2; } .ColorScheme-Highlight { color:#4285f4; }
  </style>
  </defs>
  <path
     style="baseline-shift:baseline;display:inline;overflow:visible;fill:#f2f2f2;fill-opacity:1;stroke:#f2f2f2;stroke-width:0.281692;stroke-linecap:round;stroke-linejoin:round;stroke-dasharray:none;stroke-opacity:1;enable-background:accumulate;stop-color:#000000"
     d="m 10.872858,5.888971 c 0.03851,0.019251 0.06932,0.065474 0.115537,0.065474 0.04237,0 0.10783,-0.015407 0.111677,-0.057765 0.0077,-0.053921 -0.07317,-0.088581 -0.123241,-0.1116838 -0.06546,-0.026959 -0.150195,-0.038514 -0.211814,-0.00389 -0.01541,0.00769 -0.03082,0.026959 -0.02311,0.042358 0.01155,0.050066 0.08858,0.042358 0.130945,0.065474 m -0.8434,0.065475 c 0.04621,0 0.07703,-0.046213 0.115536,-0.065474 0.04237,-0.023107 0.119382,-0.015407 0.134791,-0.061619 0.0077,-0.015407 -0.0077,-0.034659 -0.02311,-0.042358 -0.06162,-0.034659 -0.146345,-0.023107 -0.211814,0.00389 -0.05007,0.023106 -0.1309446,0.057765 -0.1232396,0.1116838 0.0038,0.038514 0.06932,0.057765 0.1078306,0.053921 m 8.514514,10.73623 c -0.138649,-0.154046 -0.204111,-0.446734 -0.277285,-0.758677 -0.06931,-0.311944 -0.150194,-0.646993 -0.40437,-0.862659 -0.05007,-0.04235 -0.100127,-0.08087 -0.154046,-0.111677 -0.05007,-0.03082 -0.103972,-0.05776 -0.157897,-0.07703 0.354304,-1.051372 0.215664,-2.098884 -0.142494,-3.045885 C 16.968857,10.675563 16.202478,9.6627103 15.617102,8.9698881 14.958555,8.1418901 14.319264,7.3562551 14.330816,6.1974427 14.350066,4.4293787 14.527225,1.14473 11.412027,1.1408787 7.4688324,1.1331887 8.4547274,5.1225854 8.4123644,6.3472527 8.3468944,7.2484221 8.1658914,7.9570351 7.5458554,8.8385641 6.8179884,9.7050743 5.7935824,11.10304 5.308337,12.562243 5.0772679,13.251599 4.9694348,13.95251 5.069565,14.614908 4.8192395,14.838276 4.630534,15.181029 4.4302736,15.392841 4.2685247,15.55844 4.0336048,15.620058 3.7755778,15.712486 c -0.258027,0.09242 -0.5391612,0.23107 -0.7124637,0.558419 -0.080874,0.150194 -0.1078317,0.311943 -0.1078317,0.477541 0,0.150195 0.023113,0.304241 0.046212,0.454437 0.046212,0.311944 0.096282,0.60463 0.030803,0.801038 -0.2002604,0.554567 -0.2272184,0.939683 -0.084719,1.220818 0.1463446,0.281134 0.439031,0.40437 0.7740825,0.473691 0.6662493,0.138648 1.5712692,0.103972 2.2837325,0.481393 0.762529,0.400521 1.53661,0.543013 2.152794,0.400521 0.446734,-0.100128 0.812594,-0.36971 0.997448,-0.777934 0.481395,-0.0039 1.0128526,-0.207963 1.8601076,-0.254176 0.57382,-0.04621 1.293987,0.204111 2.121984,0.157898 0.0231,0.08858 0.05392,0.177152 0.09628,0.258027 v 0.0039 c 0.319647,0.643142 0.916575,0.93583 1.552014,0.885765 0.639292,-0.05007 1.313245,-0.423625 1.860108,-1.074472 0.523757,-0.631588 1.386415,-0.893467 1.960237,-1.24007 0.284986,-0.173302 0.516054,-0.388967 0.53531,-0.704762 0.01425,-0.316179 -0.170607,-0.666249 -0.597698,-1.143793 M 10.984542,4.5025563 c 0.377412,-0.8549562 1.317094,-0.839551 1.694506,-0.015404 0.250324,0.5468638 0.138649,1.1900061 -0.165599,1.5558658 C 12.451829,6.0122077 12.28623,5.9428876 12.028203,5.8543109 12.07057,5.8080966 12.147584,5.75033 12.178399,5.6771581 12.363255,5.2227215 12.170652,4.6373464 11.827944,4.6257933 11.54681,4.6065383 11.292634,5.0417176 11.373507,5.5115583 11.215611,5.4345353 11.0115,5.3767687 10.872858,5.3421072 10.834351,5.0763785 10.861309,4.7798391 10.984549,4.5025563 M 9.4175084,4.0596738 c 0.388965,0 0.8010386,0.5468638 0.7355686,1.2901362 -0.134789,0.038513 -0.2734306,0.096278 -0.3928176,0.1771526 0.04621,-0.3427524 -0.127085,-0.774081 -0.369709,-0.7548252 -0.323498,0.026961 -0.377414,0.8164439 -0.06932,1.0821735 0.03851,0.030804 0.07317,-0.00769 -0.227219,0.2118138 -0.60078,-0.562269 -0.404371,-2.0064509 0.323497,-2.0064509 m -0.523757,2.3376495 c 0.238772,-0.1771527 0.523757,-0.3851153 0.543013,-0.404371 0.181004,-0.1694501 0.519905,-0.5468638 1.0744716,-0.5468638 0.273431,0 0.600779,0.088581 0.997448,0.3427526 0.242623,0.1578972 0.43518,0.1694511 0.870361,0.3581579 0.323497,0.1347896 0.527607,0.3735614 0.404371,0.7009096 -0.100127,0.2734315 -0.423628,0.5545655 -0.874212,0.6970585 -0.427478,0.138641 -0.762529,0.616185 -1.47114,0.573822 -0.150195,-0.0077 -0.26958,-0.03851 -0.369712,-0.08087 C 9.7602604,7.9031251 9.5985134,7.6373951 9.2981214,7.4602421 8.9669224,7.2753871 8.7897704,7.0597211 8.7320024,6.8710155 Q 8.6511284,6.5879554 8.8937514,6.3973233 m 0.127086,12.8616957 c -0.103987,1.351755 -1.690656,1.324797 -2.899533,0.693207 C 4.9698099,19.343745 3.4797989,19.701901 3.1755575,19.108824 3.0831344,18.927821 3.0831344,18.619729 3.2756849,18.09212 v -0.0076 c 0.092423,-0.292688 0.023113,-0.616184 -0.023113,-0.920426 -0.046212,-0.300389 -0.069324,-0.577672 0.034662,-0.77023 0.1347896,-0.258028 0.3273472,-0.350456 0.5699699,-0.43518 0.3966687,-0.142493 0.4544367,-0.13093 0.7548259,-0.381265 0.2118141,-0.219515 0.3658601,-0.496798 0.5507148,-0.693207 0.1964098,-0.211814 0.3851149,-0.311944 0.6816539,-0.26573 0.311944,0.04621 0.581525,0.261878 0.843402,0.616185 l 0.754826,1.371011 c 0.36509,0.766763 1.659077,1.863957 1.578203,2.653443 m -0.05391,-0.997545 c -0.157897,-0.254176 -0.36971,-0.523755 -0.554566,-0.754826 0.273433,0 0.546864,-0.08472 0.643142,-0.342753 0.08858,-0.23877 0,-0.57382 -0.284985,-0.958937 -0.519909,-0.700915 -1.474995,-1.251631 -1.474995,-1.251631 -0.519907,-0.323496 -0.812594,-0.720165 -0.947384,-1.151493 -0.13479,-0.43133 -0.115536,-0.89732 -0.01155,-1.355606 0.20026,-0.881916 0.716314,-1.740721 1.047513,-2.279884 0.08858,-0.06547 0.0308,0.123241 -0.33505,0.801041 -0.327348,0.620035 -0.939682,2.052664 -0.100127,3.172965 0.02311,-0.797189 0.211813,-1.609782 0.531458,-2.368074 0.462139,-1.055217 1.436481,-2.8841289 1.513504,-4.3398639 0.04237,0.03081 0.177152,0.123234 0.238771,0.157897 0.177154,0.103981 0.311945,0.258027 0.485246,0.396668 0.4775416,0.385116 1.0975776,0.354307 1.6328886,0.04621 0.23877,-0.134792 0.431327,-0.288837 0.612332,-0.346604 0.381263,-0.119386 0.685505,-0.3312 0.858807,-0.577673 0.29654,1.17075 0.989746,2.8610202 1.432629,3.6851679 0.23492,0.439032 0.704762,1.367159 0.908872,2.487459 0.127086,-0.0039 0.269581,0.01541 0.419776,0.05392 0.53146,-1.374859 -0.450583,-2.857167 -0.897317,-3.269242 -0.181004,-0.1771517 -0.188708,-0.2541747 -0.100127,-0.2503237 0.485245,0.4313287 1.124537,1.2978387 1.355606,2.2721807 0.107831,0.446734 0.127085,0.912723 0.01541,1.374862 0.631589,0.261878 1.382564,0.689357 1.182304,1.340202 -0.08472,-0.0039 -0.123227,0 -0.161748,0 0.123226,-0.388968 -0.150195,-0.677805 -0.878063,-1.005153 -0.754826,-0.331198 -1.386415,-0.331198 -1.474992,0.481394 -0.46599,0.161751 -0.70476,0.566121 -0.824147,1.051365 -0.107832,0.431329 -0.138649,0.951237 -0.169452,1.536611 -0.01925,0.296539 -0.138649,0.693206 -0.261878,1.116834 -1.236605,0.881914 -2.954219,1.267029 -4.4018666,0.277282 M 18.87864,17.818688 c -0.03466,0.646993 -1.586675,0.76638 -2.433544,1.790786 -0.508351,0.604631 -1.132237,0.93968 -1.679101,0.982043 -0.546864,0.04235 -1.020557,-0.184855 -1.297841,-0.743272 -0.181002,-0.427478 -0.09242,-0.889617 0.04235,-1.397968 0.142494,-0.546864 0.354306,-1.109133 0.381264,-1.563568 0.0308,-0.585376 0.06546,-1.097579 0.161751,-1.490397 0.100127,-0.396669 0.254174,-0.662399 0.527606,-0.812593 0.01155,-0.0076 0.02696,-0.01155 0.03851,-0.01925 0.0308,0.508351 0.281134,1.024408 0.724017,1.13609 0.485244,0.127085 1.182304,-0.288837 1.478842,-0.627739 0.346604,-0.01155 0.604632,-0.03466 0.870361,0.19641 0.381264,0.327348 0.273431,1.1669 0.658546,1.602079 0.407838,0.447118 0.538778,0.750974 0.527223,0.947383 M 9.0439454,6.8671644 c 0.07703,0.073172 0.181006,0.1733017 0.308095,0.2734317 0.254174,0.200259 0.60848,0.408222 1.0513626,0.408222 0.446734,0 0.866508,-0.227218 1.224665,-0.415924 0.188707,-0.10013 0.419776,-0.2695812 0.569972,-0.4005199 0.150195,-0.1309403 0.227218,-0.2426226 0.119382,-0.2541767 -0.107833,-0.011549 -0.100129,0.1001302 -0.23107,0.1964086 -0.16945,0.1232374 -0.373562,0.2849853 -0.535311,0.377414 -0.284985,0.161748 -0.750973,0.392817 -1.151495,0.392817 -0.4005176,0 -0.7201636,-0.184856 -0.9589346,-0.373562 -0.119382,-0.096278 -0.219517,-0.1925577 -0.296539,-0.2657293 -0.05776,-0.05392 -0.07317,-0.1771528 -0.1656,-0.1887069 -0.05391,-0.00389 -0.06932,0.1424928 0.06547,0.2503255"
     id="path2" />
</svg>
