<?xml version="1.0" encoding="UTF-8"?>
<svg viewBox="0 0 16 16" xmlns="http://www.w3.org/2000/svg">
 <defs id="defs3051">
  <style id="current-color-scheme" type="text/css">.ColorScheme-Highlight {
        color:#3daee9;
      }</style>
 </defs>
 <path class="ColorScheme-Highlight" d="m8 1a7 7 0 0 0-7 7 7 7 0 0 0 7 7 7 7 0 0 0 7-7 7 7 0 0 0-7-7z" fill="currentColor"/>
 <path d="m8 2v1a5 5 0 0 0-5 5 5 5 0 0 0 5 5 5 5 0 0 0 5-5h-2a3 3 0 0 1-3 3 3 3 0 0 1-3-3 3 3 0 0 1 3-3v1l3-2-3-2z" fill="#fff"/>
</svg>
