<?xml version="1.0" encoding="UTF-8" standalone="no"?>
<svg
   width="32"
   height="32"
   version="1.1"
   id="svg1"
   sodipodi:docname="start-here.svg"
   inkscape:version="1.4.4 (dcaf3e7d9e, 2026-05-05)"
   xmlns:inkscape="http://www.inkscape.org/namespaces/inkscape"
   xmlns:sodipodi="http://sodipodi.sourceforge.net/DTD/sodipodi-0.dtd"
   xmlns="http://www.w3.org/2000/svg"
   xmlns:svg="http://www.w3.org/2000/svg">
  <sodipodi:namedview
     id="namedview1"
     pagecolor="#ffffff"
     bordercolor="#999999"
     borderopacity="1"
     inkscape:showpageshadow="2"
     inkscape:pageopacity="0"
     inkscape:pagecheckerboard="0"
     inkscape:deskcolor="#d1d1d1"
     inkscape:zoom="36.1875"
     inkscape:cx="16"
     inkscape:cy="16"
     inkscape:window-width="2560"
     inkscape:window-height="1371"
     inkscape:window-x="0"
     inkscape:window-y="0"
     inkscape:window-maximized="1"
     inkscape:current-layer="svg1" />
  <defs
     id="defs1">
    <style
       id="current-color-scheme"
       type="text/css">.ColorScheme-Text { color:#f2f2f2; }</style>
  </defs>
  <path
     style="baseline-shift:baseline;display:inline;overflow:visible;fill:#f2f2f2;fill-opacity:1;stroke:#f2f2f2;stroke-width:0.394369;stroke-linecap:round;stroke-linejoin:round;stroke-dasharray:none;stroke-opacity:1;enable-background:accumulate;stop-color:#000000"
     d="m 15.822012,8.8445258 c 0.05391,0.026955 0.09705,0.091671 0.161751,0.091671 0.05931,0 0.150964,-0.021572 0.156347,-0.080866 0.01085,-0.075482 -0.102437,-0.1240092 -0.172536,-0.1563673 -0.09166,-0.037741 -0.210272,-0.05393 -0.296539,-0.00553 -0.02157,0.010845 -0.04312,0.037741 -0.03236,0.059294 0.01617,0.070099 0.124009,0.059293 0.183322,0.091671 m -1.180762,0.091671 c 0.0647,0 0.107841,-0.064696 0.161751,-0.091671 0.05931,-0.032358 0.167133,-0.021572 0.188705,-0.086268 0.01085,-0.021572 -0.01084,-0.048527 -0.03236,-0.059294 -0.08627,-0.048527 -0.20488,-0.032358 -0.296539,0.00553 -0.0701,0.032358 -0.183323,0.080865 -0.172537,0.1563673 0.0053,0.05393 0.09705,0.080865 0.150965,0.075482 M 26.561547,23.96694 c -0.194109,-0.215664 -0.285757,-0.625427 -0.388199,-1.062147 -0.09703,-0.436722 -0.210272,-0.905791 -0.566119,-1.207723 -0.0701,-0.05929 -0.140179,-0.113224 -0.215664,-0.156348 -0.0701,-0.04314 -0.145562,-0.08086 -0.221056,-0.10784 0.496025,-1.47192 0.301928,-2.93844 -0.199491,-4.264238 -0.614617,-1.622875 -1.687548,-3.04087 -2.507074,-4.010822 -0.921966,-1.159198 -1.816973,-2.259087 -1.800801,-3.8814229 0.02696,-2.4752913 0.274972,-7.0737994 -4.086305,-7.0791912 -5.520473,-0.010766 -4.14022,5.5743902 -4.199529,7.2889244 -0.09165,1.2616367 -0.345063,2.2536957 -1.213112,3.4878367 -1.019015,1.213112 -2.4531853,3.170268 -3.1325289,5.213151 -0.3234968,0.965098 -0.4744632,1.946374 -0.3342809,2.873732 -0.3504538,0.312714 -0.6146434,0.792569 -0.8950081,1.089107 -0.2264466,0.231837 -0.5553363,0.318104 -0.9165742,0.447502 -0.3612379,0.129392 -0.7548258,0.323499 -0.9974494,0.781786 -0.1132233,0.210272 -0.1509644,0.436721 -0.1509644,0.668559 0,0.210273 0.032358,0.425938 0.064696,0.636211 0.064696,0.436722 0.1347953,0.846483 0.043124,1.121454 -0.2803627,0.776394 -0.3181037,1.315556 -0.1186064,1.709146 0.2048825,0.393588 0.6146454,0.566119 1.0837156,0.663166 0.9327492,0.194109 2.1997793,0.145562 3.1972267,0.673951 1.06754,0.560729 2.151254,0.760219 3.013914,0.560729 0.625426,-0.140178 1.13763,-0.517592 1.396427,-1.089106 0.673952,-0.0055 1.417996,-0.291149 2.604151,-0.355847 0.803351,-0.0647 1.811583,0.285755 2.97078,0.221057 0.03236,0.12401 0.07548,0.248013 0.134795,0.361238 v 0.0055 c 0.447504,0.900399 1.283203,1.310161 2.172819,1.240071 0.895008,-0.07009 1.838543,-0.593076 2.604151,-1.504262 0.733259,-0.884223 1.94098,-1.250854 2.744331,-1.736097 0.398981,-0.242624 0.722477,-0.544555 0.749436,-0.986668 0.01995,-0.442651 -0.23885,-0.932749 -0.836778,-1.601311 M 15.97837,6.9035451 C 16.506748,5.7066062 17.822302,5.7281723 18.350681,6.8819731 18.701135,7.647581 18.54477,8.5479801 18.118839,9.0601844 18.032569,9.0170404 17.800736,8.920006 17.439498,8.7959947 17.498808,8.7312987 17.606632,8.6504136 17.64977,8.5479801 17.908568,7.9117707 17.638924,7.0922446 17.159134,7.0760696 16.765546,7.0491145 16.409699,7.658365 16.522921,8.3161406 16.301866,8.2083201 16.016111,8.1274351 15.822012,8.07891 15.768102,7.7068901 15.805843,7.2917341 15.97838,6.9035392 M 13.784532,6.2835026 c 0.544551,0 1.121456,0.7656099 1.029799,1.8061914 -0.188705,0.05391 -0.382806,0.1347953 -0.549945,0.2480127 0.0647,-0.4798522 -0.17792,-1.0837137 -0.517596,-1.0567547 -0.452895,0.037741 -0.528379,1.1430209 -0.09705,1.5150427 0.05391,0.043124 0.102438,-0.010845 -0.318106,0.2965398 C 12.49054,8.3053586 12.765512,6.2835026 13.784528,6.2835026 m -0.73326,3.272709 c 0.334279,-0.2480126 0.73326,-0.5391613 0.760217,-0.5661184 0.253405,-0.2372306 0.727868,-0.7656098 1.50426,-0.7656098 0.382806,0 0.841092,0.1240093 1.396428,0.4798542 0.339673,0.2210555 0.609253,0.2372306 1.218505,0.5014202 0.452897,0.1887054 0.738653,0.5229862 0.566121,0.9812742 -0.140179,0.382804 -0.593078,0.776392 -1.223898,0.975881 -0.598469,0.194109 -1.067538,0.86266 -2.059597,0.803351 -0.210271,-0.01084 -0.377413,-0.05391 -0.517594,-0.113224 -0.431334,-0.188705 -0.657783,-0.56073 -1.078328,-0.808746 -0.463679,-0.258798 -0.711694,-0.560728 -0.792569,-0.824917 Q 12.711589,9.8230928 13.051262,9.5562077 M 13.229181,27.562585 C 13.083599,29.455044 10.862262,29.417303 9.1698341,28.533076 7.5577413,27.681202 5.4717255,28.182621 5.0457875,27.352312 4.9163951,27.098909 4.9163951,26.66758 5.1859659,25.928926 v -0.01065 c 0.1293924,-0.409763 0.032358,-0.862658 -0.032358,-1.288596 -0.064696,-0.420545 -0.097054,-0.808742 0.048527,-1.078323 0.1887055,-0.361239 0.4582861,-0.490638 0.797958,-0.609253 0.5553363,-0.199489 0.6362115,-0.183302 1.0567565,-0.533769 0.2965397,-0.307323 0.5122042,-0.69552 0.7710009,-0.970491 0.2749736,-0.29654 0.5391613,-0.436722 0.9543173,-0.372022 0.4367201,0.0647 0.8141329,0.366629 1.1807638,0.862658 l 1.0567576,1.919417 c 0.511123,1.073468 2.322706,2.609541 2.209482,3.71482 m -0.07548,-1.396562 c -0.221055,-0.355847 -0.517593,-0.733258 -0.776392,-1.056757 0.382806,0 0.76561,-0.118606 0.900401,-0.479854 0.12401,-0.334279 0,-0.803349 -0.398979,-1.342513 -0.72787,-0.98126 -2.064992,-1.752262 -2.064992,-1.752262 -0.727868,-0.452896 -1.1376298,-1.008232 -1.3263373,-1.612093 -0.1887054,-0.60386 -0.1617503,-1.256247 -0.016169,-1.897848 0.2803646,-1.234682 1.0028413,-2.437012 1.4665203,-3.191837 0.124009,-0.09165 0.04314,0.172536 -0.469071,1.121457 -0.458288,0.868048 -1.3155531,2.873729 -0.140178,4.442152 0.03236,-1.116065 0.29654,-2.253695 0.744042,-3.315304 0.646996,-1.477305 2.011073,-4.037784 2.118906,-6.075813 0.05931,0.04313 0.248015,0.172537 0.33428,0.221057 0.248014,0.145581 0.436721,0.361237 0.679343,0.555336 0.668561,0.539161 1.53661,0.496029 2.286045,0.0647 0.334281,-0.188705 0.603861,-0.404372 0.857267,-0.485247 0.53377,-0.167134 0.959706,-0.463679 1.20233,-0.808742 0.415154,1.639052 1.385646,4.00543 2.005681,5.159235 0.328888,0.614646 0.986667,1.914025 1.272421,3.482446 0.177919,-0.0055 0.377413,0.02157 0.587686,0.07548 0.744044,-1.924804 -0.630816,-4.000036 -1.256244,-4.57694 -0.253405,-0.248013 -0.264191,-0.355845 -0.140178,-0.350454 0.679344,0.603859 1.574352,1.816975 1.897849,3.181052 0.150963,0.625427 0.177919,1.277813 0.02157,1.924807 0.884224,0.366631 1.935589,0.965101 1.655225,1.876284 -0.118607,-0.0055 -0.172517,0 -0.226447,0 0.172517,-0.544554 -0.210273,-0.948926 -1.229289,-1.407213 -1.056757,-0.46368 -1.940981,-0.46368 -2.064988,0.673952 -0.652387,0.22645 -0.986665,0.792569 -1.153807,1.47191 -0.150964,0.603862 -0.194108,1.331733 -0.23723,2.151257 -0.02695,0.415154 -0.194089,0.970488 -0.366631,1.563567 -1.731245,1.234681 -4.135907,1.773841 -6.162615,0.388195 m 13.876396,-0.620037 c -0.04853,0.905791 -2.221345,1.072933 -3.406962,2.507102 -0.711692,0.846483 -1.585132,1.315551 -2.350742,1.374861 -0.76561,0.0593 -1.42878,-0.258798 -1.816978,-1.040583 -0.253403,-0.598468 -0.129392,-1.245464 0.0593,-1.957155 0.199492,-0.76561 0.496029,-1.552786 0.53377,-2.188995 0.04313,-0.819526 0.09165,-1.536611 0.22645,-2.086556 0.140179,-0.555337 0.355846,-0.927359 0.73865,-1.13763 0.01616,-0.01065 0.03774,-0.01616 0.05391,-0.02695 0.04313,0.711691 0.393588,1.434171 1.013625,1.590527 0.679342,0.177919 1.655225,-0.404372 2.07038,-0.878836 0.485244,-0.01617 0.846485,-0.04853 1.218505,0.274974 0.533769,0.458288 0.382803,1.633661 0.921964,2.242912 0.570973,0.625966 0.75429,1.051363 0.738113,1.326336 M 13.261539,10.21399 c 0.10784,0.102438 0.253405,0.242624 0.431329,0.382805 0.355847,0.280364 0.851874,0.571513 1.47191,0.571513 0.625429,0 1.213114,-0.318106 1.714535,-0.582295 0.264187,-0.140179 0.587684,-0.377414 0.797958,-0.560728 0.210273,-0.1833216 0.318105,-0.3396711 0.167134,-0.3558462 -0.150965,-0.016169 -0.140179,0.1401785 -0.323498,0.2749717 -0.237232,0.1725365 -0.522987,0.3989785 -0.749434,0.5283785 -0.398981,0.226449 -1.051366,0.549943 -1.612093,0.549943 -0.560729,0 -1.008233,-0.258796 -1.342512,-0.522985 -0.167134,-0.134796 -0.307323,-0.269582 -0.415154,-0.37202 -0.08089,-0.07548 -0.102438,-0.2480147 -0.23184,-0.2641896 -0.07548,-0.00553 -0.09706,0.1994886 0.09165,0.3504526"
     id="path2" />
</svg>
