<?xml version="1.0" encoding="UTF-8" standalone="no"?>
<svg
   height="16px"
   viewBox="0 0 16 16"
   width="16px"
   version="1.1"
   id="svg1"
   sodipodi:docname="x-office-presentation-symbolic.svg"
   inkscape:version="1.4.2 (ebf0e940d0, 2025-05-08)"
   xmlns:inkscape="http://www.inkscape.org/namespaces/inkscape"
   xmlns:sodipodi="http://sodipodi.sourceforge.net/DTD/sodipodi-0.dtd"
   xmlns="http://www.w3.org/2000/svg"
   xmlns:svg="http://www.w3.org/2000/svg">
  <defs
     id="defs1" />
  <sodipodi:namedview
     id="namedview1"
     pagecolor="#ffffff"
     bordercolor="#111111"
     borderopacity="1"
     inkscape:showpageshadow="0"
     inkscape:pageopacity="0"
     inkscape:pagecheckerboard="1"
     inkscape:deskcolor="#d1d1d1"
     inkscape:zoom="72.375"
     inkscape:cx="7.9930915"
     inkscape:cy="8"
     inkscape:window-width="2560"
     inkscape:window-height="1371"
     inkscape:window-x="0"
     inkscape:window-y="0"
     inkscape:window-maximized="1"
     inkscape:current-layer="svg1" />
  <path
     d="m 1.6855473,1.9385771 c -0.554687,0 -0.99999981,0.445313 -0.99999981,1 0.003906,0.507813 0.39453081,0.933594 0.90624981,0.984375 l 0.011719,8.0273429 h 6 l -0.011719,1.742188 -1.804687,1.378906 c -0.222656,0.167968 -0.261719,0.480468 -0.09375,0.703125 0.167968,0.21875 0.480468,0.257812 0.703125,0.08984 l 1.6875,-1.292968 1.695312,1.324218 c 0.21875,0.167969 0.5351567,0.128907 0.7070307,-0.08594 0.167969,-0.21875 0.128907,-0.535156 -0.08984,-0.703125 l -1.8046907,-1.414056 0.011719,-1.742188 h 5.9999997 l -0.01172,-8.0546869 c 0.425781,-0.125 0.722657,-0.515624 0.722657,-0.957031 0,-0.554687 -0.449219,-1 -1,-1 z m 6.90625,2 c 1.101563,0 1.9999997,0.894531 1.9999997,2 H 8.5917973 Z m -1,1 v 2 h 2 c 0,1.101563 -0.898437,2 -2,2 -1.105469,0 -2,-0.898437 -2,-2 0,-1.105469 0.894531,-2 2,-2 z m 0,0"
     fill="#2e3436"
     id="path1" />
</svg>
