<?xml version="1.0" encoding="UTF-8" standalone="no"?>
<svg
   width="16"
   height="16"
   version="1.1"
   id="svg1"
   sodipodi:docname="configure.svg"
   inkscape:version="1.3.2 (091e20ef0f, 2023-11-25)"
   xmlns:inkscape="http://www.inkscape.org/namespaces/inkscape"
   xmlns:sodipodi="http://sodipodi.sourceforge.net/DTD/sodipodi-0.dtd"
   xmlns="http://www.w3.org/2000/svg"
   xmlns:svg="http://www.w3.org/2000/svg">
  <sodipodi:namedview
     id="namedview1"
     pagecolor="#ffffff"
     bordercolor="#111111"
     borderopacity="1"
     inkscape:showpageshadow="0"
     inkscape:pageopacity="0"
     inkscape:pagecheckerboard="1"
     inkscape:deskcolor="#d1d1d1"
     inkscape:zoom="50.1875"
     inkscape:cx="8"
     inkscape:cy="8"
     inkscape:window-width="1920"
     inkscape:window-height="1011"
     inkscape:window-x="0"
     inkscape:window-y="0"
     inkscape:window-maximized="1"
     inkscape:current-layer="svg1" />
  <defs
     id="defs1">
    <style
       id="current-color-scheme"
       type="text/css">.ColorScheme-Text { color:#363636; }</style>
  </defs>
  <path
     d="m 8.0000031,4.9997444 a 3,3 0 0 0 -3,3 3,3 0 0 0 3,3.0000006 3,3 0 0 0 2.9999999,-3.0000006 3,3 0 0 0 -2.9999999,-3 z m 0,1 a 2,2 0 0 1 1.9999999,2 2,2 0 0 1 -1.9999999,2.0000004 2,2 0 0 1 -2,-2.0000004 2,2 0 0 1 2,-2 z"
     fill="#363636"
     style="paint-order:fill markers stroke"
     id="path1-5" />
  <path
     d="m 7.4199031,-2.5557405e-4 c -0.22287,0 -0.53548,0.061676004 -0.79492,0.27930000405 -0.25944,0.21762 -0.38347,0.53792 -0.41406,0.76757997 l 0.019531,-0.10155997 -0.3418,1.42189997 c -0.13939,0.051171 -0.27065,0.10628 -0.40234,0.16602 l -1.2383,-0.75781 a 1.0001,1.0001 0 0 0 -0.0078,-0.00391 c -0.17859,-0.10726 -0.47427,-0.21874 -0.79297,-0.17969 -0.3187,0.039054 -0.55502,0.20492 -0.69141,0.33008 a 1.0001,1.0001 0 0 0 -0.02539,0.023438 l -0.82031,0.80664 a 1.0001,1.0001 0 0 0 -0.03711,0.037109 c -0.15471,0.16895 -0.31004,0.45605 -0.32812,0.75781 -0.01808,0.30176 0.08188,0.5479 0.17383,0.70898 a 1.0001,1.0001 0 0 0 0.01953,0.03125 l 0.76953,1.2402 c -0.05533,0.12087 -0.09913,0.2493 -0.15039,0.38477 l -1.40819999,0.33203 a 1.0001,1.0001 0 0 0 -0.01367,0.00195 c -0.16189,0.040528 -0.43967,0.13512 -0.66211,0.40234 -0.22244,0.26722 -0.273439995005,0.59372 -0.273439995005,0.79297 v 1.1484 c 0,0.22259 0.06203999501,0.53338 0.279299995005,0.79297 0.21726,0.25959 0.53572,0.38334 0.76562999,0.41406 l -0.09961,-0.017578 1.42379999,0.3398406 c 0.04682,0.12529 0.09346,0.24575 0.14648,0.36328 l -0.77148,1.2578 c -0.10296,0.1674 -0.21441,0.42855 -0.1875,0.75195 0.02691,0.3234 0.21266,0.621959 0.39258,0.787109 l 0.7832,0.7832 c 0.15441,0.15462 0.40917,0.32456 0.72461,0.36328 0.31544,0.03872 0.60979,-0.06687 0.79297,-0.17969 l 1.252,-0.77148 c 0.12417,0.05748 0.24852,0.11139 0.37891,0.16016 l 0.34961,1.4316 -0.019531,-0.10547 c 0.030979,0.23258 0.16861,0.57271 0.43945,0.78516 0.27084,0.21245 0.56636,0.25391 0.76953,0.25391 h 1.168 c 0.20318,0 0.51273,-0.05034 0.77734,-0.26367 0.26461,-0.21333 0.38066,-0.51471 0.41992,-0.71094 l -0.00781,0.04101 0.3496099,-1.4297 c 0.13059,-0.04936 0.25606,-0.103 0.37891,-0.16016 l 1.2422,0.76953 a 1.0001,1.0001 0 0 0 0.002,0 c 0.18326,0.11293 0.47754,0.2184 0.79297,0.17969 0.31543,-0.03872 0.57019,-0.20869 0.72461,-0.36328 a 1.0001,1.0001 0 0 0 0.0039,-0.002 l 0.7793,-0.78906 c 0.16884,-0.15492 0.36454,-0.453739 0.39258,-0.783199 0.02804,-0.32946 -0.08299,-0.57627 -0.16992,-0.72852 a 1.0001,1.0001 0 0 0 -0.01758,-0.0293 l -0.76953,-1.2461 c 0.05378,-0.11732 0.10085,-0.23771 0.14844,-0.36328 l 1.4277,-0.3418006 -0.09961,0.017578 c 0.23285,-0.031118 0.57116,-0.16852 0.7832,-0.43945 0.21204,-0.27093 0.25391,-0.56464 0.25391,-0.76758 v -1.1484 c 0,-0.18069 -0.0307,-0.48577 -0.24805,-0.76562 -0.21735,-0.27986 -0.51302,-0.38796 -0.67969,-0.42969 a 1.0001,1.0001 0 0 0 -0.01367,-0.00195 l -1.4082,-0.33203 c -0.05274,-0.13695 -0.09501,-0.26671 -0.15039,-0.38672 l 0.75391,-1.2246 c 0.10502,-0.16356 0.22747,-0.42009 0.20703,-0.75391 -0.02044,-0.33382 -0.21458,-0.64546 -0.39453,-0.81055 l -0.79102,-0.77734 c -0.14462,-0.14475 -0.40396,-0.32422 -0.72266,-0.36328 -0.31869,-0.039061 -0.58703,0.063351 -0.75,0.15039 a 1.0001,1.0001 0 0 0 -0.05078,0.029297 l -1.2344,0.75781 c -0.12539,-0.057907 -0.25628,-0.10785 -0.39258,-0.16016 L 9.7891031,0.99375843 c -0.036391,-0.1941 -0.14312,-0.49597 -0.41016,-0.71875 -0.26703,-0.22278 -0.58777,-0.27539000405 -0.79102,-0.27539000405 h -1.168 z m 0,1.00000000405 h 1.168 c 0.13163,0 0.19354,0.053711 0.2168,0.17772997 l 0.46484,1.916 c 0.50333,0.12403 0.9605399,0.33177 1.3476999,0.54883 l 1.6582,-1.0156 c 0.11612,-0.062021 0.20002,-0.053962 0.29297,0.039062 l 0.82031,0.80664 c 0.09295,0.085272 0.09313,0.17858 0.02344,0.28711 l -1.0215,1.6582 c 0.18581,0.34884 0.41895,0.83021 0.53516,1.3496 l 1.9043,0.44922 c 0.12387,0.031011 0.16992,0.085074 0.16992,0.22461 v 1.1484 c 0,0.13177 -0.0538,0.20128 -0.16992,0.2168 l -1.9121,0.45703 c -0.11621,0.48836 -0.32615,0.9618706 -0.54297,1.3262006 l 1.0293,1.666 c 0.06194,0.10848 0.0617,0.19401 -0.03125,0.2793 l -0.8125,0.822269 c -0.09295,0.09305 -0.18649,0.09911 -0.28711,0.03711 l -1.6641,-1.029299 c -0.38712,0.24034 -0.8287999,0.43254 -1.3397999,0.55664 l -0.46484,1.908199 c -0.023259,0.11625 -0.085174,0.16992 -0.2168,0.16992 h -1.168 c -0.13163,0 -0.20131,-0.05367 -0.2168,-0.16992 l -0.46484,-1.908199 c -0.48783,-0.11633 -0.96046,-0.3163 -1.3398,-0.55664 l -1.6719,1.029299 c -0.10067,0.062 -0.19418,0.05594 -0.28711,-0.03711 l -0.8125,-0.814449 c -0.09292,-0.08529 -0.0932,-0.17856 -0.03125,-0.2793 l 1.0293,-1.6738 c -0.21681,-0.37202 -0.41901,-0.8377806 -0.53516,-1.3262006 l -1.9121,-0.45703 c -0.116163,-0.015523 -0.177733,-0.085029 -0.177733,-0.2168 v -1.1484 c 0,-0.13953 0.05383,-0.19359 0.17773,-0.22461 l 1.9062,-0.44922 c 0.11615,-0.51938 0.33963,-1.0008 0.5332,-1.3496 l -1.0293,-1.6582 c -0.06195,-0.10853 -0.06174,-0.20191 0.02344,-0.29492 l 0.82031,-0.80664 c 0.09292,-0.085272 0.17877,-0.10102 0.29492,-0.03125 l 1.6562,1.0156 c 0.34846,-0.21705 0.86771,-0.43261 1.3633,-0.55664 l 0.45703,-1.9082 c 0.015488,-0.11627 0.085167,-0.17772997 0.2168,-0.17772997 z"
     color="#000000"
     fill="#363636"
     stroke-linecap="round"
     stroke-linejoin="round"
     style="-inkscape-stroke:none"
     id="path2" />
</svg>
