<?xml version="1.0" encoding="UTF-8"?>
<svg viewBox="0 0 16 16" xmlns="http://www.w3.org/2000/svg">
 <defs id="defs3051">
  <style id="current-color-scheme" type="text/css">.ColorScheme-Text {
        color:#363636;
      }</style>
 </defs>
 <path class="ColorScheme-Text" d="m3 2v1h1v2h-1v1h3v-1h-1v-2h1v-1h-3zm5 0v1h6v-1h-6zm0 2v1h4v-1h-4zm-6 4v1h1v2h-1v1h3 2v-1h-1v-2h1v-1h-5zm6 0v1h6v-1h-6zm-4 1h1v2h-1v-2zm4 1v1h2v-1h-2zm3 0v1h1.875 0.125 1v-1h-1-0.125-1.875zm1 3v1h2v-1h-2z" fill="currentColor"/>
</svg>
