<?xml version="1.0" encoding="UTF-8"?>
<svg viewBox="0 0 16 16" xmlns="http://www.w3.org/2000/svg">
 <defs id="defs3051">
  <style id="current-color-scheme" type="text/css">.ColorScheme-Text {
        color:#363636;
      }
      .ColorScheme-NegativeText {
        color:#da4453;
      }</style>
 </defs>
 <path class="ColorScheme-NegativeText" d="m8 2a6 6 0 0 0-6 6 6 6 0 0 0 6 6 6 6 0 0 0 6-6 6 6 0 0 0-6-6m0 1a5 5 0 0 1 5 5 5 5 0 0 1-5 5 5 5 0 0 1-5-5 5 5 0 0 1 5-5m-2.4512 1.8418a4 4 0 0 0-0.70508 0.70898l2.4492 2.4492-2.451 2.451a4 4 0 0 0 0.70878 0.70525l2.4492-2.4492 2.451 2.451a4 4 0 0 0 0.70525-0.70878l-2.4492-2.4492 2.451-2.451a4 4 0 0 0-0.70878-0.70525l-2.4492 2.4492z" fill="currentColor"/>
</svg>
