<?xml version="1.0" encoding="UTF-8"?>
<svg viewBox="0 0 16 16" xmlns="http://www.w3.org/2000/svg">
 <defs id="defs3051">
  <style id="current-color-scheme" type="text/css">.ColorScheme-Text {
        color:#363636;
      }
      .ColorScheme-Highlight {
        color:#3daee9;
      }</style>
 </defs>
 <path class="ColorScheme-Text" d="m2 3v1h6v-1h-6zm0 6v1h4v-1h-4z" fill="currentColor"/>
 <path class="ColorScheme-Highlight" d="m11 3v1h1v2h-1v1h3v-1h-1v-2h1v-1h-3zm-6 2v1h1v-1h-1zm2 0v1h1v-1h-1zm2 0v1h1v-1h-1zm0 4v1h1v2h-1v1h5v-1h-1v-2h1v-1h-3-2zm2 1h1v2h-1v-2zm-8 1v1h1v-1h-1zm2 0v1h1v-1h-1zm2 0v1h1v-1h-1z" fill="currentColor"/>
</svg>
