<?xml version="1.0" encoding="UTF-8"?>
<svg version="1.1" viewBox="0 0 16 16" xmlns="http://www.w3.org/2000/svg">
 <defs>
  <style id="current-color-scheme" type="text/css">.ColorScheme-Text {
        color:#363636;
      }</style>
 </defs>
 <path class="ColorScheme-Text" d="m4 5v1h1v1.0508c-1.6854 0.2474-3 1.6993-3 3.4492 0 1.9212 1.5788 3.5 3.5 3.5s3.5-1.5788 3.5-3.5c0-0.78264-0.27142-1.4978-0.71289-2.0801l0.55742-0.55742 0.44453 0.44453 0.70898-0.70508-1.5922-1.6-0.70898 0.70703 0.44258 0.44453-0.56133 0.56133c-0.45673-0.33923-0.99202-0.57803-1.5781-0.66406v-1.0508h1v-1zm1.5 3c1.3807 0 2.5 1.1193 2.5 2.5s-1.1193 2.5-2.5 2.5c-1.3807 0-2.5-1.1193-2.5-2.5s1.1193-2.5 2.5-2.5zm2.5-5v1h1v1.0508c-0.036338 0.00533-0.069986 0.017831-0.10547 0.025391 0.31847 0.31955 0.63685 0.6392 0.95508 0.95898 1.2142 0.17164 2.1523 1.2055 2.1523 2.4668 0 1.2205-0.87672 2.2333-2.0332 2.4531-0.00404 0.0376-0.014559 0.07388-0.019531 0.11133-0.015319 0.11414-0.030683 0.22711-0.054688 0.33984-0.019053 0.09019-0.045742 0.17865-0.070312 0.26758-0.028183 0.10176-0.048886 0.20506-0.083984 0.30469 1.8095-0.12689 3.2617-1.637 3.2617-3.4766 0-0.78283-0.27131-1.4996-0.71289-2.082l0.55664-0.55664 0.44531 0.44336 0.70898-0.70508-1.5918-1.5996-0.70898 0.70703 0.44141 0.44531-0.56055 0.56055c-0.45684-0.33931-0.99188-0.57801-1.5781-0.66406v-1.0508h1v-1z" fill="currentColor"/>
</svg>
