<?xml version="1.0" encoding="UTF-8"?>
<svg version="1.1" viewBox="0 0 16 16" xmlns="http://www.w3.org/2000/svg">
 <defs>
  <style id="current-color-scheme" type="text/css">.ColorScheme-Text {
        color:#363636;
      }</style>
 </defs>
 <path class="ColorScheme-Text" d="m13.293 2-11.293 11.268 0.70703 0.73242 11.293-11.293zm-8.293 1v1h2v1.0508c-2.238 0.25375-4 2.1467-4 4.4492 0 0.41029 0.073419 0.8012 0.17773 1.1797 0.28516-0.2845 0.57031-0.56901 0.85547-0.85352-0.010251-0.10912-0.033203-0.21437-0.033203-0.32617 0-1.933 1.567-3.5 3.5-3.5 0.11445 0 0.22235 0.022466 0.33398 0.033203 0.28287-0.28224 0.56674-0.56346 0.84961-0.8457-0.22231-0.061632-0.44904-0.11012-0.68359-0.13672v-1.0508h1.873c0.042365-0.04227 0.084588-0.084683 0.12695-0.12695v-0.87305zm6.1621 3.959c-0.23276 0.23273-0.4645 0.46649-0.69726 0.69922 0.33373 0.53611 0.53516 1.1638 0.53516 1.8418 0 1.933-1.567 3.5-3.5 3.5-0.67799 0-1.3057-0.20143-1.8418-0.53516-0.2402 0.24027-0.48053 0.48041-0.7207 0.7207 0.72924 0.50971 1.6112 0.81445 2.5625 0.81445 2.4734 0 4.5-2.0266 4.5-4.5 0-0.95233-0.32396-1.8175-0.83789-2.541z" fill="currentColor"/>
</svg>
