<?xml version="1.0" encoding="UTF-8"?>
<svg viewBox="0 0 16 16" xmlns="http://www.w3.org/2000/svg">
 <defs id="defs3051">
  <style id="current-color-scheme" type="text/css">.ColorScheme-Text {
        color:#363636;
      }</style>
 </defs>
 <path class="ColorScheme-Text" d="m2 2v12h12v-12h-12zm1 1h10v4h-10v-4zm2.0391 1a1 1 0 0 0-0.72852 0.27539 1 1 0 0 0-0.18555 1.209 1 1 0 0 0 1.125 0.48438 1 1 0 0 0 0.75-0.96875h-1l0.5293-0.84766a1 1 0 0 0-0.49023-0.15234zm-2.0391 4h10v5h-10v-5zm8 1v3h1v-3h-1zm-2 2v1h1v-1h-1z" fill="currentColor"/>
</svg>
