<?xml version="1.0" encoding="UTF-8"?>
<!DOCTYPE svg>
<svg version="1.1" viewBox="0 0 16 16" xmlns="http://www.w3.org/2000/svg">
 <defs>
  <style id="current-color-scheme" type="text/css">.ColorScheme-Text {
                color:#363636;
            }</style>
 </defs>
 <path class="ColorScheme-Text" d="m9 13h4v-7h-3v-3h-4v-1h5l3 3v9h-5v-1z" fill="currentColor"/>
 <path class="ColorScheme-Text" d="m5.0039 2.0293c-0.56243 1.9627-1.7028 3.6747-2.819 5.3578-0.64227 1.0072-1.3722 2.1535-1.1348 3.4054 0.25905 1.7615 1.8918 3.1314 3.6462 3.2257 1.7979 0.167 3.6551-1.0044 4.156-2.7622 0.264-0.8208 0.16611-1.6839-0.21644-2.4512-0.76766-1.547-1.8905-2.8856-2.6692-4.428-0.39056-0.75086-0.7193-1.5368-0.96266-2.3476zm2.7676 6.2246c0.39592 0.66586 0.74179 1.4131 0.65017 2.2088-0.10143 1.582-1.5099 2.8867-3.0671 3.0048-0.83274 0.0856-1.6916-0.141-2.374-0.6257 1.8249 0.4459 3.8997-0.5563 4.6029-2.3153 0.30266-0.71534 0.34416-1.5166 0.18812-2.2726z" fill="currentColor"/>
</svg>
