<?xml version="1.0" encoding="UTF-8"?>
<svg viewBox="0 0 16 16" xmlns="http://www.w3.org/2000/svg">
 <defs id="defs3051">
  <style id="current-color-scheme" type="text/css">.ColorScheme-Text {
        color:#363636;
      }
      .ColorScheme-NegativeText {
        color:#da4453;
      }
      .ColorScheme-PositiveText {
        color:#27ae60;
      }</style>
 </defs>
 <path class="ColorScheme-Text" d="m6 2v1h8v-1h-8zm0 2v1h6v-1h-6zm0 4v1h8v-1h-8zm0 2v1h5v-1h-5z" fill="currentColor"/>
 <path class="ColorScheme-PositiveText" d="m3.5 2c-0.828 0-1.5 0.672-1.5 1.5s0.672 1.5 1.5 1.5 1.5-0.672 1.5-1.5-0.672-1.5-1.5-1.5" fill="currentColor"/>
 <path class="ColorScheme-NegativeText" d="m3.5 8c-0.828 0-1.5 0.672-1.5 1.5s0.672 1.5 1.5 1.5 1.5-0.672 1.5-1.5-0.672-1.5-1.5-1.5zm8.5 5v1h2v-1h-2z" fill="currentColor"/>
</svg>
