<?xml version="1.0" encoding="UTF-8"?>
<svg viewBox="0 0 16 16" xmlns="http://www.w3.org/2000/svg">
 <defs id="defs3051">
  <style id="current-color-scheme" type="text/css">.ColorScheme-Text {
        color:#363636;
      }
      .ColorScheme-Highlight {
        color:#3daee9;
      }</style>
 </defs>
 <path class="ColorScheme-Text" d="m2 2v2l1-1 2 2 2-2 2 2 2-2 2 2-2 2 2 2-2 2h3v-9h-12zm9 9-2-2v2h2zm-2-2 2-2-2-2-2 2h2v2zm-2-2-2-2-2 2h4zm-4 0-1-1v1h1z" fill="currentColor"/>
 <path class="ColorScheme-Highlight" d="m5.17 14.33-0.707-0.707 1.621-1.621h-4.076v-1h4.076l-1.621-1.621 0.707-0.707 2.828 2.828-0.707 0.707z" fill="currentColor"/>
</svg>
