<?xml version="1.0" encoding="UTF-8"?>
<svg viewBox="0 0 16 16" xmlns="http://www.w3.org/2000/svg">
 <defs id="defs3051">
  <style id="current-color-scheme" type="text/css">.ColorScheme-Text {
        color:#363636;
      }
      .ColorScheme-Highlight {
        color:#3daee9;
      }</style>
 </defs>
 <path class="ColorScheme-Text" d="m2 2v1h6a5 5 0 0 1 5 5v3h1v-3a6 6 0 0 0-6-6h-6zm0 4v1h6a1 1 0 0 1 1 1v3h1v-3a2 2 0 0 0-2-2h-6z" fill="currentColor"/>
 <path class="ColorScheme-Highlight" d="m5.17 14.33-0.707-0.707 1.621-1.621h-4.076v-1h4.076l-1.621-1.621 0.707-0.707 2.828 2.828-0.707 0.707z" fill="currentColor"/>
</svg>
