<?xml version="1.0" encoding="UTF-8"?>
<svg width="22" height="22" viewBox="0 0 5.821 5.821" xmlns="http://www.w3.org/2000/svg">
 <g transform="translate(0 -291.18)">
  <rect transform="matrix(0 -1 -1 0 0 0)" x="-296.21" y="-5.027" width="4.233" height="4.233" rx="2.117" ry="2.117" fill="#3f51b5"/>
  <path d="M3.241 292.767l.03.348a1.04 1.04 0 0 1 .303.176l.317-.15.33.574-.287.2a1.04 1.04 0 0 1 .016.175 1.04 1.04 0 0 1-.015.176l.287.199-.331.572-.316-.148a1.04 1.04 0 0 1-.305.174l-.029.35H2.58l-.03-.349a1.04 1.04 0 0 1-.303-.176l-.317.15-.33-.573.287-.2a1.04 1.04 0 0 1-.016-.175 1.04 1.04 0 0 1 .015-.176l-.287-.2.331-.572.316.148a1.04 1.04 0 0 1 .305-.174l.029-.35h.661zm-.33.882a.441.441 0 0 0-.442.44.441.441 0 0 0 .441.442.441.441 0 0 0 .441-.441.441.441 0 0 0-.44-.441z" fill="#fff"/>
 </g>
</svg>
