<?xml version="1.0" encoding="UTF-8" standalone="no"?>
<svg
   width="16"
   height="16"
   version="1.1"
   id="svg1"
   sodipodi:docname="input-keyboard-symbolic.svg"
   inkscape:version="1.3.2 (091e20ef0f, 2023-11-25)"
   xmlns:inkscape="http://www.inkscape.org/namespaces/inkscape"
   xmlns:sodipodi="http://sodipodi.sourceforge.net/DTD/sodipodi-0.dtd"
   xmlns="http://www.w3.org/2000/svg"
   xmlns:svg="http://www.w3.org/2000/svg">
  <defs
     id="defs1" />
  <sodipodi:namedview
     id="namedview1"
     pagecolor="#ffffff"
     bordercolor="#111111"
     borderopacity="1"
     inkscape:showpageshadow="0"
     inkscape:pageopacity="0"
     inkscape:pagecheckerboard="1"
     inkscape:deskcolor="#d1d1d1"
     inkscape:zoom="50.1875"
     inkscape:cx="7.9900374"
     inkscape:cy="8"
     inkscape:window-width="1920"
     inkscape:window-height="1011"
     inkscape:window-x="0"
     inkscape:window-y="0"
     inkscape:window-maximized="1"
     inkscape:current-layer="svg1" />
  <g
     style="color:#363636;fill:currentColor"
     class="ColorScheme-Text"
     id="g2"
     transform="matrix(0.8735439,0,0,0.8735439,1.0116487,2.3219645)">
    <path
       d="M 3,4 V 5 H 4 V 4 Z M 5,4 V 5 H 6 V 4 Z M 7,4 V 5 H 8 V 4 Z m 2,0 v 1 h 1 V 4 Z m 2,0 v 1 h 2 V 4 Z M 3,6 V 7 H 5 V 6 Z M 6,6 V 7 H 7 V 6 Z M 8,6 V 7 H 9 V 6 Z m 2,0 v 1 h 3 V 6 Z M 3,8 V 9 H 4 V 8 Z m 2,0 v 1 h 6 V 8 Z m 7,0 v 1 h 1 V 8 Z"
       style="color:#363636;fill:currentColor"
       class="ColorScheme-Text"
       id="path1-5" />
  </g>
  <rect
     style="fill:none;stroke:#363636;stroke-width:0.790989;stroke-linecap:round;stroke-linejoin:round;stroke-dasharray:none;stroke-opacity:1;paint-order:fill markers stroke"
     id="rect2"
     width="13.185714"
     height="8.4527493"
     x="1.4071431"
     y="3.7736254"
     ry="1.957044" />
</svg>
