<?xml version="1.0" encoding="UTF-8"?>
<svg id="svg2" width="64" height="64" version="1.1" xmlns="http://www.w3.org/2000/svg" xmlns:xlink="http://www.w3.org/1999/xlink">
 <defs id="defs2">
  <linearGradient id="d" x1="45" x2="60.076" y1="19" y2="3.924" gradientTransform="translate(.012852 -.0011262)" gradientUnits="userSpaceOnUse">
   <stop id="stop5" stop-color="#fff" offset="0"/>
   <stop id="stop6" stop-color="#b3b3b3" offset="1"/>
  </linearGradient>
  <linearGradient id="linearGradient5" x1="7.9373" x2="7.9373" y1="15.081" y2="1.852" gradientTransform="matrix(3.7796 0 0 3.7796 -.0009765 .030274)" gradientUnits="userSpaceOnUse">
   <stop id="stop1" stop-color="#f1efeb" offset="0"/>
   <stop id="stop2" stop-color="#fdfcfc" offset="1"/>
  </linearGradient>
  <filter id="filter95" x="-.14695" y="-.14705" width="1.2939" height="1.2941" color-interpolation-filters="sRGB">
   <feGaussianBlur id="feGaussianBlur95" stdDeviation="1.5300537"/>
  </filter>
  <filter id="filter94" x="-.06912" y="-.06912" width="1.1382" height="1.1382" color-interpolation-filters="sRGB">
   <feGaussianBlur id="feGaussianBlur94" stdDeviation="1.6128562"/>
  </filter>
  <style id="current-color-scheme" type="text/css">.ColorScheme-Text { color:#363636; }</style>
  <filter id="filter1" x="-.147" y="-.147" width="1.294" height="1.294" color-interpolation-filters="sRGB">
   <feGaussianBlur id="feGaussianBlur1" stdDeviation="2.0034064"/>
  </filter>
  <filter id="filter2" x="-.15328" y="-.14121" width="1.3066" height="1.2824" color-interpolation-filters="sRGB">
   <feGaussianBlur id="feGaussianBlur2" stdDeviation="2.022818"/>
  </filter>
 </defs>
 <path id="path3-9-5" d="m17.001 3.999c-7.2031 0-13.002 5.7989-13.002 13.002v29.998c0 7.2031 5.7989 13.002 13.002 13.002h29.998c7.2031 0 13.002-5.7989 13.002-13.002v-18.027c-0.12523-0.33309-0.25816-0.6432-0.39844-0.93359-0.14027-0.2904-0.28901-0.5594-0.44336-0.81055-0.15435-0.25114-0.31496-0.48389-0.48242-0.69922-0.16746-0.21532-0.34189-0.41471-0.52148-0.59766-0.1796-0.18294-0.36392-0.34991-0.55469-0.50391-0.19076-0.154-0.38693-0.29339-0.58789-0.42188-0.20096-0.12849-0.407-0.24515-0.61719-0.35156 0.21019 0.10641 0.41623 0.22308 0.61719 0.35156 0.20096 0.12849 0.39713 0.26788 0.58789 0.42188 0.19076 0.154 0.37509 0.32096 0.55469 0.50391 0.1796 0.18294 0.35402 0.38233 0.52148 0.59766 0.16746 0.21532 0.32807 0.44808 0.48242 0.69922 0.15435 0.25114 0.30308 0.52015 0.44336 0.81055 0.14028 0.2904 0.27321 0.6005 0.39844 0.93359v-0.13867c-0.24891-7.0487-16.63-23.649-24.201-24.799-0.265-0.02-0.52811-0.035156-0.78711-0.035156 0.25 0.0625 0.48755 0.14624 0.71484 0.24609 0.2273 0.099853 0.44434 0.21582 0.65039 0.34961 0.20605 0.13379 0.40161 0.28491 0.58789 0.44922s0.36328 0.3418 0.53125 0.5332c0.16797 0.19141 0.32739 0.39624 0.47852 0.61133 0.15112 0.21509 0.29395 0.44043 0.42969 0.67578-0.13574-0.23535-0.27856-0.46069-0.42969-0.67578s-0.31055-0.41992-0.47852-0.61133c-0.16797-0.19141-0.34497-0.3689-0.53125-0.5332-0.18628-0.16431-0.38184-0.31543-0.58789-0.44922-0.20605-0.13379-0.4231-0.24976-0.65039-0.34961-0.22729-0.099854-0.46484-0.18359-0.71484-0.24609zm22.729 6.0254c0.17774 0.56445 0.33789 1.1387 0.48633 1.709 0.29688 1.1406 0.54688 2.2656 0.79688 3.2656-0.25-1-0.5-2.125-0.79688-3.2656-0.14844-0.57031-0.30859-1.1445-0.48633-1.709zm13.246 13.58c0.48351 0.09518 0.95975 0.19674 1.4238 0.31836-0.46408-0.12162-0.94032-0.22318-1.4238-0.31836z" filter="url(#filter94)" opacity=".25" stroke-width="3.7796"/>
 <path id="path3-9" d="m17.001 3.999c-7.2031 0-13.002 5.7989-13.002 13.002v29.998c0 7.2031 5.7989 13.002 13.002 13.002h29.998c7.2031 0 13.002-5.7989 13.002-13.002v-18.027c-2.0036-5.3294-5.9956-4.9745-9.9883-5.9727-5.82-1.455-8.03-4.12-9-8-1-4-2-10-6-11z" fill="url(#linearGradient5)" stroke-width="3.7796"/>
 <rect id="rect1" x="16.189" y="16.189" width="31.623" height="31.623" display="none" fill="none" opacity=".25" stroke="#f0e" stroke-linecap="square" stroke-linejoin="round" stroke-width=".1"/>
 <path id="path6" d="m32 14.811-15.836 7.9942v18.185l15.836 8.199 15.836-8.199v-18.185zm0 2.3649 12.457 6.2891-12.455 6.4074-12.438-6.419zm-13.725 7.9889 12.669 6.5383v14.562l-12.669-6.5594zm27.45 0.02217v14.519l-12.669 6.5594v-14.56z" color="#000000" display="none" filter="url(#filter2)" opacity=".25" stroke-width="1.0558" style="font-feature-settings:normal;font-variant-alternates:normal;font-variant-caps:normal;font-variant-ligatures:normal;font-variant-numeric:normal;font-variant-position:normal;isolation:auto;mix-blend-mode:normal;shape-padding:0;text-decoration-color:#000000;text-decoration-line:none;text-decoration-style:solid;text-indent:0;text-orientation:mixed;text-transform:none;white-space:normal"/>
 <path id="path6-3" d="m32 14.811-15.836 7.9942v18.185l15.836 8.199 15.836-8.199v-18.185zm0 2.3649 12.457 6.2891-12.455 6.4074-12.438-6.419zm-13.725 7.9889 12.669 6.5383v14.562l-12.669-6.5594zm27.45 0.02217v14.519l-12.669 6.5594v-14.56z" color="#000000" fill="#212121" stroke-width="1.0558" style="font-feature-settings:normal;font-variant-alternates:normal;font-variant-caps:normal;font-variant-ligatures:normal;font-variant-numeric:normal;font-variant-position:normal;isolation:auto;mix-blend-mode:normal;shape-padding:0;text-decoration-color:#000000;text-decoration-line:none;text-decoration-style:solid;text-indent:0;text-orientation:mixed;text-transform:none;white-space:normal"/>
 <path id="path1" class="ColorScheme-Text" d="m32 15.646a16.354 16.354 0 0 0-16.354 16.354 16.354 16.354 0 0 0 16.354 16.354 16.354 16.354 0 0 0 10.788-4.0886h-10.788a12.266 12.266 0 0 1-12.266-12.266 12.266 12.266 0 0 1 12.266-12.266v2.0443a10.221 10.221 0 0 0-10.221 10.221 10.221 10.221 0 0 0 10.221 10.221h12.749a16.354 16.354 0 0 0 1.3975-2.0443h-14.146c-4.5161 0-8.1772-3.661-8.1772-8.1772s3.661-8.1772 8.1772-8.1772c0.68999 0.0027 1.3769 0.09246 2.0443 0.26751v2.1361c-0.65606-0.23506-1.3474-0.35649-2.0443-0.35935-3.3871 0-6.1329 2.7458-6.1329 6.1329s2.7458 6.1329 6.1329 6.1329h15.149a16.354 16.354 0 0 0 0.6628-2.0443h-15.811a4.0886 4.0886 0 0 1-4.0886-4.0886 4.0886 4.0886 0 0 1 4.0886-4.0886 4.0886 4.0886 0 0 1 3.5376 2.0443h-3.5376a2.0443 2.0443 0 0 0-2.0443 2.0443 2.0443 2.0443 0 0 0 2.0443 2.0443h16.211a16.354 16.354 0 0 0 0.14373-2.0443 16.354 16.354 0 0 0-16.354-16.354z" display="none" fill="#212121" filter="url(#filter1)" opacity=".05" stroke-width="2.0443"/>
 <path id="path5-6" d="m33.301 4.654c4 1 5 7 6 11 0.97 3.88 3.18 6.545 9 8 3.9927 0.99818 7.9847 0.64321 9.9883 5.9727v-0.13867c-0.24891-7.0487-16.63-23.649-24.201-24.799-0.265-0.02-0.52811-0.03516-0.78711-0.03516z" filter="url(#filter95)" opacity=".25"/>
 <path id="path5" d="m35.013 3.999c4 1 5 7 6 11 0.97 3.88 3.18 6.545 9 8 3.9927 0.99818 7.9847 0.64321 9.9883 5.9727v-0.13867c-0.24891-7.0487-16.63-23.649-24.201-24.799-0.265-0.02-0.52811-0.035156-0.78711-0.035156z" fill="url(#d)"/>
</svg>
