<?xml version="1.0" encoding="UTF-8"?>
<svg id="svg6" width="24" height="24" version="1.1" xmlns="http://www.w3.org/2000/svg" xmlns:cc="http://creativecommons.org/ns#" xmlns:dc="http://purl.org/dc/elements/1.1/" xmlns:rdf="http://www.w3.org/1999/02/22-rdf-syntax-ns#">
 <metadata id="metadata12">
  <rdf:RDF>
   <cc:Work rdf:about="">
    <dc:format>image/svg+xml</dc:format>
    <dc:type rdf:resource="http://purl.org/dc/dcmitype/StillImage"/>
    <dc:title/>
   </cc:Work>
  </rdf:RDF>
 </metadata>
 <path id="path2" d="m6.3535 4.7363-0.94141 0.94141 1.3496 1.3496 0.94141-0.94141-1.3496-1.3496zm5.1465 0.26367c-0.277 0-0.5 0.223-0.5 0.5v4.875l-1.7188-1.5c-0.313-0.273-0.7573-0.22025-1.0293 0.09375a0.753 0.753 0 0 0 0.060547 1.0625l2.25 1.9688-2.25 1.9688a0.753 0.753 0 0 0-0.0625 1.0625c0.273 0.313 0.71825 0.36675 1.0312 0.09375l1.7207-1.5v4.875c0 0.277 0.222 0.5 0.5 0.5 0.282 0 0.4363-0.0195 0.6543-0.1875l3.5312-3.1562a0.78 0.78 0 0 0 0.21875-0.375 0.745 0.745 0 0 0 0.03125-0.28125 0.723 0.723 0 0 0-0.03125-0.15625 0.78 0.78 0 0 0-0.21875-0.375l-2.8125-2.4707 2.8125-2.4668a0.78 0.78 0 0 0 0.21875-0.375 0.71 0.71 0 0 0 0-0.4375 0.78 0.78 0 0 0-0.21875-0.375l-3.5312-3.1562c-0.199-0.16-0.42725-0.1875-0.65625-0.1875zm0.5 2.0625 2.0938 1.875-2.0938 1.8125v-3.6875zm0 6.1875 2.0938 1.8125-2.0938 1.875v-3.6875z" color="#bebebe" fill="#fff"/>
</svg>
