<?xml version="1.0" encoding="UTF-8"?>
<svg id="svg6" width="24" height="24" version="1.1" xmlns="http://www.w3.org/2000/svg" xmlns:cc="http://creativecommons.org/ns#" xmlns:dc="http://purl.org/dc/elements/1.1/" xmlns:rdf="http://www.w3.org/1999/02/22-rdf-syntax-ns#">
 <metadata id="metadata12">
  <rdf:RDF>
   <cc:Work rdf:about="">
    <dc:format>image/svg+xml</dc:format>
    <dc:type rdf:resource="http://purl.org/dc/dcmitype/StillImage"/>
    <dc:title/>
   </cc:Work>
  </rdf:RDF>
 </metadata>
 <path id="path2" d="m6.3516 4.7363-0.93945 0.94141 2.709 2.707 0.93945-0.93945-2.709-2.709zm5.6484 0.26367c-1.108 0-2 0.892-2 2v6c0 1.108 0.892 2 2 2s2-0.892 2-2v-6c0-1.108-0.892-2-2-2zm-5 5v1h1v2a3.981 3.981 0 0 0 3 3.8613v2.1387h-1v1h4v-1h-1v-2.1387a3.981 3.981 0 0 0 3-3.8613v-2h1v-1h-2v3c0 1.662-1.338 3-3 3s-3-1.338-3-3v-3h-2z" color="#bebebe" fill="#fff" style="isolation:auto;mix-blend-mode:normal"/>
</svg>
