<?xml version="1.0" encoding="UTF-8"?>
<svg id="svg4031" width="24" height="24" version="1.1" xmlns="http://www.w3.org/2000/svg" xmlns:cc="http://creativecommons.org/ns#" xmlns:dc="http://purl.org/dc/elements/1.1/" xmlns:rdf="http://www.w3.org/1999/02/22-rdf-syntax-ns#">
 <metadata id="metadata4036">
  <rdf:RDF>
   <cc:Work rdf:about="">
    <dc:format>image/svg+xml</dc:format>
    <dc:type rdf:resource="http://purl.org/dc/dcmitype/StillImage"/>
    <dc:title/>
   </cc:Work>
  </rdf:RDF>
 </metadata>
 <path id="path28" d="m11.25 3c-0.13807 0-0.25 0.11193-0.25 0.25v1.5c0 0.139 0.112 0.25 0.25 0.25h0.5c0.13807 0 0.25-0.11193 0.25-0.25v-1.5c0-0.13807-0.11193-0.25-0.25-0.25zm6.6113 2.5312c-0.0085 2.193e-4 -0.01696 8.712e-4 -0.02539 0.00195-0.05623 0.00658-0.10857 0.032063-0.14844 0.072266l-1.0605 1.0605c-0.09829 0.098288-0.09758 0.25594 0 0.35352l0.35352 0.35352c0.09763 0.097605 0.25589 0.097605 0.35352 0l1.0605-1.0605c0.09761-0.097627 0.09761-0.25589 0-0.35352l-0.35352-0.35352c-0.04743-0.047969-0.11223-0.074735-0.17969-0.074219zm-6.3613 1.4688c-3.0347 0-5.5 2.4653-5.5 5.5 0 3.0347 2.4653 5.5 5.5 5.5 3.0347 0 5.5-2.4653 5.5-5.5 0-3.0347-2.4653-5.5-5.5-5.5zm-0.09961 1.0625h2e-3c0.02799-2.639e-4 0.05599-2.639e-4 0.08398 0h0.0059c-0.93601 0.69926-1.4881 1.7984-1.4902 2.9668-0.0018 2.0509 1.6601 3.7145 3.7109 3.7148 0.66424-0.0019 1.3158-0.18196 1.8867-0.52148-1.3566 3.2692-5.8003 3.7261-7.7939 0.80158-1.9937-2.9246 0.055724-6.8938 3.5946-6.9617zm-9.1504 3.9375c-0.13807 0-0.25 0.11193-0.25 0.25v0.5c0 0.139 0.112 0.25 0.25 0.25h1.5c0.13807 0 0.25-0.11193 0.25-0.25v-0.5c0-0.13807-0.11193-0.25-0.25-0.25zm17 0c-0.13807 0-0.25 0.11193-0.25 0.25v0.5c0 0.139 0.112 0.25 0.25 0.25h1.5c0.13807 0 0.25-0.11193 0.25-0.25v-0.5c0-0.13807-0.11193-0.25-0.25-0.25zm-13.41 5.5527c-0.065423 1e-3 -0.12783 0.02768-0.17383 0.07422l-1.0605 1.0605c-0.098288 0.09829-0.097581 0.25594 0 0.35352l0.35352 0.35352c0.097627 0.09761 0.25589 0.09761 0.35352 0l1.0605-1.0605c0.097605-0.09763 0.097605-0.25589 0-0.35352l-0.35352-0.35352c-0.047429-0.04797-0.11223-0.07474-0.17969-0.07422zm11.313 0c-0.06474 0.0015-0.12636 0.02815-0.17188 0.07422l-0.35352 0.35352c-0.09829 0.09829-0.09758 0.25593 0 0.35352l1.0605 1.0605c0.09763 0.09761 0.25589 0.09761 0.35352 0l0.35352-0.35352c0.09761-0.09763 0.09761-0.25589 0-0.35352l-1.0605-1.0605c-0.0479-0.04846-0.11351-0.07527-0.18164-0.07422zm-5.9023 2.4473c-0.13807 0-0.25 0.11193-0.25 0.25v1.5c0 0.139 0.112 0.25 0.25 0.25h0.5c0.13807 0 0.25-0.11193 0.25-0.25v-1.5c0-0.13807-0.11193-0.25-0.25-0.25z" color="#000000" fill="#fff"/>
 <path id="path2" d="m5.3535 5.2363-0.94141 0.94141 1.3496 1.3496 0.94141-0.94141z" color="#bebebe" fill="#fff" style="isolation:auto;mix-blend-mode:normal"/>
</svg>
