<?xml version="1.0" encoding="UTF-8"?>
<svg id="svg4031" width="24" height="24" version="1.1" xmlns="http://www.w3.org/2000/svg" xmlns:cc="http://creativecommons.org/ns#" xmlns:dc="http://purl.org/dc/elements/1.1/" xmlns:rdf="http://www.w3.org/1999/02/22-rdf-syntax-ns#">
 <metadata id="metadata4036">
  <rdf:RDF>
   <cc:Work rdf:about="">
    <dc:format>image/svg+xml</dc:format>
    <dc:type rdf:resource="http://purl.org/dc/dcmitype/StillImage"/>
    <dc:title/>
   </cc:Work>
  </rdf:RDF>
 </metadata>
 <path id="path28" d="m11.25 3c-0.13807 0-0.25 0.11193-0.25 0.25v1.5c0 0.139 0.112 0.25 0.25 0.25h0.5c0.13807 0 0.25-0.11193 0.25-0.25v-1.5c0-0.13807-0.11193-0.25-0.25-0.25h-0.5zm-5.8984 2.2363-0.93945 0.94141 13.543 13.543 0.93945-0.94141-2.9961-2.9961c0.6878-0.91708 1.1016-2.0499 1.1016-3.2832 0-3.0347-2.4653-5.5-5.5-5.5-1.2636 0-2.3661 0.41373-3.2832 1.1016l-2.8652-2.8652zm12.51 0.29492c-0.0085 2.193e-4 -0.01696 8.743e-4 -0.02539 0.0019531-0.05623 0.00658-0.10857 0.032063-0.14844 0.072266l-1.0605 0.75817c-0.09829 0.40067-0.09758 0.55831 0 0.6559l0.35352 0.35352c0.09763 0.097605 0.25589 0.097605 0.35352 0l1.0605-1.0605c0.09761-0.097627 0.09761-0.25589 0-0.35352l-0.35352-0.35352c-0.04743-0.047969-0.11223-0.074735-0.17969-0.074219zm-6.4609 2.5312h0.001953c0.02799-2.639e-4 0.055994-2.639e-4 0.083984 0h0.00586c-0.66276 0.49512-1.121 1.1959-1.3398 1.9746l-1.1855-1.1855c0.71213-0.49008 1.556-0.77136 2.4336-0.78906zm-4.6797 1.7246c-0.45627 0.80127-0.7207 1.726-0.7207 2.7129 0 3.0347 2.4653 5.5 5.5 5.5 0.98693 0 1.9116-0.26444 2.7129-0.7207l-0.76758-0.76758c-3.8087 1.8609-7.8179-2.1483-5.957-5.957l-0.76758-0.76758zm-4.4707 2.2129c-0.13807 0-0.25 0.11193-0.25 0.25v0.5c0 0.139 0.112 0.25 0.25 0.25h1.5c0.13807 0 0.25-0.11193 0.25-0.25v-0.5c0-0.13807-0.11193-0.25-0.25-0.25h-1.5zm17 0c-0.13807 0-0.25 0.11193-0.25 0.25v0.5c0 0.139 0.112 0.25 0.25 0.25h1.5c0.13807 0 0.25-0.11193 0.25-0.25v-0.5c0-0.13807-0.11193-0.25-0.25-0.25h-1.5zm-3.6504 2.2227c-0.12031 0.28763-0.26884 0.56143-0.44531 0.81641l-0.4375-0.4375c0.30815-0.087542 0.60502-0.2137 0.88281-0.37891zm-9.7598 3.3301c-0.065423 1e-3 -0.12783 0.027679-0.47621 0.074219l-0.75817 1.0605c-0.098288 0.09829-0.097581 0.25594 0 0.35352l0.35352 0.35352c0.097627 0.09761 0.25589 0.09761 0.35352 0l1.0605-1.0605c0.097605-0.09763 0.097605-0.25589 0-0.35352l-0.35352-0.35352c-0.047429-0.04797-0.11223-0.074739-0.17969-0.074219zm5.4102 2.4473c-0.13807 0-0.25 0.11193-0.25 0.25v1.5c0 0.139 0.112 0.25 0.25 0.25h0.5c0.13807 0 0.25-0.11193 0.25-0.25v-1.5c0-0.13807-0.11193-0.25-0.25-0.25h-0.5z" color="#000000" fill="#fff" opacity=".4" style="font-variation-settings:normal"/>
</svg>
