<?xml version="1.0" encoding="UTF-8"?>
<svg id="svg4031" width="24" height="24" version="1.1" xmlns="http://www.w3.org/2000/svg" xmlns:cc="http://creativecommons.org/ns#" xmlns:dc="http://purl.org/dc/elements/1.1/" xmlns:rdf="http://www.w3.org/1999/02/22-rdf-syntax-ns#">
 <metadata id="metadata4036">
  <rdf:RDF>
   <cc:Work rdf:about="">
    <dc:format>image/svg+xml</dc:format>
    <dc:type rdf:resource="http://purl.org/dc/dcmitype/StillImage"/>
    <dc:title/>
   </cc:Work>
  </rdf:RDF>
 </metadata>
 <path id="path28" d="m11.25 3c-0.13807 0-0.25 0.11193-0.25 0.25v1.5c0 0.139 0.112 0.25 0.25 0.25h0.5c0.13807 0 0.25-0.11193 0.25-0.25v-1.5c0-0.13807-0.11193-0.25-0.25-0.25h-0.5zm-5.8965 2.2363-0.94141 0.94141 12.148 12.148 0.044922-0.044922c0.009316 0.016987 0.006925 0.038175 0.021484 0.052734l1.0605 1.0605c0.09763 0.09761 0.25589 0.09761 0.35352 0l0.35352-0.35352c0.09761-0.09763 0.09761-0.25589 0-0.35352l-1.0605-1.0605c-0.0139-0.014063-0.036222-0.01122-0.052734-0.021484l0.2207-0.2207-1.6016-1.6016c0.68705-0.91703 1.0996-2.0505 1.0996-3.2832 0-3.0347-2.4653-5.5-5.5-5.5-1.2326 0-2.3645 0.41442-3.2812 1.1016l-2.8652-2.8652zm12.508 0.29492c-0.0085 2.193e-4 -0.01696 8.743e-4 -0.02539 0.0019531-0.05623 0.00658-0.10857 0.032063-0.14844 0.072266l-1.0605 0.75817c-0.09829 0.40067-0.09758 0.55831 0 0.6559l0.35352 0.35352c0.09763 0.097605 0.25589 0.097605 0.35352 0l1.0605-1.0605c0.09761-0.097627 0.09761-0.25589 0-0.35352l-0.35352-0.35352c-0.04743-0.047969-0.11223-0.074735-0.17969-0.074219zm-6.4609 2.5312h0.001953c0.02799-2.639e-4 0.055994-2.639e-4 0.083984 0h0.00586c-0.66226 0.49474-1.1208 1.1947-1.3398 1.9727l-1.1875-1.1875c0.67783-0.47138 1.5021-0.76725 2.4355-0.78516zm-4.6719 1.7109c-0.46111 0.8044-0.72852 1.734-0.72852 2.7266 0 3.0347 2.4653 5.5 5.5 5.5 0.99316 0 1.9238-0.26689 2.7285-0.72852l-0.29492-0.29492-0.47266-0.47266c-1.8723 0.91635-4.3145 0.48501-5.6543-1.4805-0.9802-1.4379-0.97953-3.1253-0.30859-4.4805l-0.38867-0.38867-0.38086-0.38086zm-4.4785 2.2266c-0.13807 0-0.25 0.11193-0.25 0.25v0.5c0 0.139 0.112 0.25 0.25 0.25h1.5c0.13807 0 0.25-0.11193 0.25-0.25v-0.5c0-0.13807-0.11193-0.25-0.25-0.25h-1.5zm17 0c-0.13807 0-0.25 0.11193-0.25 0.25v0.5c0 0.139 0.112 0.25 0.25 0.25h1.5c0.13807 0 0.25-0.11193 0.25-0.25v-0.5c0-0.13807-0.11193-0.25-0.25-0.25h-1.5zm-3.6504 2.2227c-0.12272 0.29574-0.2735 0.56769-0.44336 0.81641l-0.43945-0.43945c0.30793-0.087537 0.60521-0.21186 0.88281-0.37695zm-9.7598 3.3301c-0.065423 1e-3 -0.12783 0.027679-0.47621 0.074219l-0.75817 1.0605c-0.098288 0.09829-0.097581 0.25594 0 0.35352l0.35352 0.35352c0.097627 0.09761 0.25589 0.09761 0.35352 0l1.0605-1.0605c0.097605-0.09763 0.097605-0.25589 0-0.35352l-0.35352-0.35352c-0.047429-0.04797-0.11223-0.074739-0.17969-0.074219zm5.4102 2.4473c-0.13807 0-0.25 0.11193-0.25 0.25v1.5c0 0.139 0.112 0.25 0.25 0.25h0.5c0.13807 0 0.25-0.11193 0.25-0.25v-1.5c0-0.13807-0.11193-0.25-0.25-0.25h-0.5z" color="#000000" fill="#fff"/>
</svg>
