<?xml version="1.0" encoding="UTF-8"?>
<svg id="svg8" width="24" height="24" version="1.1" xmlns="http://www.w3.org/2000/svg" xmlns:cc="http://creativecommons.org/ns#" xmlns:dc="http://purl.org/dc/elements/1.1/" xmlns:rdf="http://www.w3.org/1999/02/22-rdf-syntax-ns#">
 <metadata id="metadata14">
  <rdf:RDF>
   <cc:Work rdf:about="">
    <dc:format>image/svg+xml</dc:format>
    <dc:type rdf:resource="http://purl.org/dc/dcmitype/StillImage"/>
    <dc:title/>
   </cc:Work>
  </rdf:RDF>
 </metadata>
 <path id="path2-3-5-2-2-5-8" d="m12.861 5.0098c-0.38597 0.053742-0.72287 0.33037-0.83008 0.73047l-0.001953 0.0097656c-1.8219-0.016095-3.4581 1.3187-3.9316 3.0781 0 0-1.2925 4.8298-3.0566 5-0.0183 0.0065-0.031181 0.02406-0.050781 0.03125-0.0736 0.0314-0.14168 0.075333-0.20117 0.12891-0.0244 0.02142-0.049512 0.035174-0.070312 0.058594-0.0794 0.08534-0.13791 0.18868-0.16992 0.30078-0.10767 0.40182 0.13038 0.81056 0.53125 0.91797l10.141 2.7188c0.40182 0.10767 0.81225-0.12942 0.91992-0.53125 0.0282-0.11311 0.028453-0.23015 0.001953-0.34375-6e-3 -0.03067-0.019597-0.058381-0.029297-0.087891-0.025-0.0763-0.062798-0.14692-0.11133-0.21094-0.0123-0.01573-0.013744-0.037705-0.027344-0.052735-1.443-1.0285-0.14844-5.8594-0.14844-5.8594 0.4699-1.7614-0.27814-3.7345-1.8652-4.6309l0.001953-0.0097656c0.14293-0.53347-0.17356-1.0817-0.70703-1.2246-0.13336-0.035735-0.26587-0.041351-0.39453-0.023438zm-3.9961 12.309c0.0104 0.95902 0.70062 1.7754 1.6445 1.9453 0.82116 0.14706 1.6473-0.23136 2.0723-0.94922l-3.7168-0.99609z" color="#bebebe" fill="#fff" style="isolation:auto;mix-blend-mode:normal"/>
</svg>
