<?xml version="1.0" encoding="UTF-8"?>
<svg id="svg8" width="24" height="24" version="1.1" xmlns="http://www.w3.org/2000/svg" xmlns:cc="http://creativecommons.org/ns#" xmlns:dc="http://purl.org/dc/elements/1.1/" xmlns:rdf="http://www.w3.org/1999/02/22-rdf-syntax-ns#">
 <metadata id="metadata14">
  <rdf:RDF>
   <cc:Work rdf:about="">
    <dc:format>image/svg+xml</dc:format>
    <dc:type rdf:resource="http://purl.org/dc/dcmitype/StillImage"/>
    <dc:title/>
   </cc:Work>
  </rdf:RDF>
 </metadata>
 <path id="path2-3-5-2-2-5-3" d="m12.631 5.0078c-0.54756-0.072087-1.049 0.31377-1.1211 0.86133l-0.001954 0.0097656c-1.8084 0.22186-3.2543 1.7583-3.4941 3.5645 0 0-0.65205 4.9584-2.3789 5.3574-0.0173 0.0088-0.028475 0.02743-0.046875 0.03711-0.0689 0.04074-0.12965 0.091464-0.18164 0.15234-0.0214 0.02442-0.0449 0.04243-0.0625 0.06836-0.0676 0.09497-0.11181 0.205-0.12891 0.32031-0.0543 0.41244 0.23308 0.78763 0.64453 0.8418l10.41 1.3711c0.41244 0.0543 0.7875-0.23404 0.8418-0.64648 0.0132-0.11583-2.95e-4 -0.23257-0.041016-0.3418-0.0102-0.02959-0.027615-0.054032-0.041015-0.082032-0.0348-0.07239-0.082222-0.13817-0.13867-0.19531-0.0143-0.01399-0.017803-0.035708-0.033203-0.048828-1.5649-0.83137-0.91211-5.7891-0.91211-5.7891 0.23597-1.8077-0.76261-3.6662-2.4531-4.3477v-0.0097656c0.0721-0.54756-0.31378-1.051-0.86133-1.123zm-2.2695 12.795c0.15467 0.9688 0.98963 1.6821 1.9707 1.6836 0.78756-0.0011 1.5011-0.4645 1.8223-1.1836l-3.793-0.5z" color="#bebebe" fill="#fff" style="isolation:auto;mix-blend-mode:normal"/>
</svg>
