<?xml version="1.0" encoding="UTF-8"?>
<svg id="svg1" width="24" height="24" version="1.1" xmlns="http://www.w3.org/2000/svg">
 <defs id="defs1">
  <style id="current-color-scheme" type="text/css">.ColorScheme-Text { color:#ffffff; }</style>
 </defs>
 <path id="path28-7" d="m12 5.5582c-3.5577 0-6.4419 2.8828-6.4446 6.4402v4.9873c0.00198 0.80742 0.65688 1.4616 1.4651 1.4616 0.00199 0 0.00508-2.12e-4 0.00694-2.12e-4v2.12e-4h4.9748c3.5581-0.0017 6.4423-2.8861 6.4423-6.4445 0-3.5592-2.8853-6.4446-6.4446-6.4446zm1.3064 2.6516v5.68e-5c1.0823 0 2.1043 0.82986 2.1043 1.9728 0 0.10602-0.0014 0.21142-0.01812 0.33202-0.02994 0.30398-0.30759 0.52184-0.61007 0.4789-0.30278-0.04337-0.50838-0.33008-0.45212-0.63053 0.0047-0.03387 0.0069-0.08789 0.0069-0.18039 0-0.64791-0.5293-0.89837-1.031-0.89837-0.50141 0-0.95339 0.42054-0.9551 0.89715v1.6499l0.93029-0.0068c0.72625-0.01524 0.73368 1.0796 0.0074 1.0744l-0.93772 5e-3 -0.0068 1.5391c-0.11222 1.208-1.1407 2.1741-2.3762 2.1741-1.3095 0-2.3898-1.0713-2.3898-2.384 0.039425-1.3505 1.1185-2.4124 2.4742-2.3996l0.75512-5e-3v1.0728l-0.7614 0.0068c-0.7452 0.02201-1.3824 0.52735-1.3946 1.3253 0 0.72746 0.58798 1.3096 1.317 1.3096 0.72827 0 1.3097-0.52978 1.3097-1.308v-4.0581c3.52e-4 -0.07519 0.0039-0.13549 0.01252-0.21857 0.1224-0.99292 1.0102-1.7496 2.0153-1.7496z" fill="#fff"/>
</svg>
