<?xml version="1.0" encoding="UTF-8" standalone="no"?>
<svg
   width="24"
   height="24"
   version="1.1"
   id="svg1"
   sodipodi:docname="start-here-symbolic.svg"
   inkscape:version="1.3.2 (091e20ef0f, 2023-11-25)"
   xmlns:inkscape="http://www.inkscape.org/namespaces/inkscape"
   xmlns:sodipodi="http://sodipodi.sourceforge.net/DTD/sodipodi-0.dtd"
   xmlns="http://www.w3.org/2000/svg"
   xmlns:svg="http://www.w3.org/2000/svg">
  <sodipodi:namedview
     id="namedview1"
     pagecolor="#ffffff"
     bordercolor="#111111"
     borderopacity="1"
     inkscape:showpageshadow="0"
     inkscape:pageopacity="0"
     inkscape:pagecheckerboard="1"
     inkscape:deskcolor="#d1d1d1"
     inkscape:zoom="33.458333"
     inkscape:cx="12"
     inkscape:cy="12"
     inkscape:window-width="1920"
     inkscape:window-height="1011"
     inkscape:window-x="0"
     inkscape:window-y="0"
     inkscape:window-maximized="1"
     inkscape:current-layer="svg1" />
  <defs
     id="defs1">
    <style
       id="current-color-scheme"
       type="text/css">.ColorScheme-Text { color:#ffffff; }</style>
  </defs>
  <path
     id="path28-7"
     style="display:inline;fill:#ffffff;fill-opacity:1;fill-rule:nonzero;stroke:none;stroke-width:0.0767206"
     d="m 12.000051,5.5581602 c -3.5576607,0 -6.4418777,2.8828361 -6.4445977,6.4401558 v 4.987336 c 0.00198,0.807418 0.656875,1.461626 1.465099,1.461626 0.00199,0 0.00508,-2.12e-4 0.00694,-2.12e-4 v 2.12e-4 h 4.9747627 c 3.558062,-0.0017 6.442312,-2.886054 6.442312,-6.444473 0,-3.5592187 -2.885327,-6.4445595 -6.444594,-6.4445595 z m 1.306419,2.6516347 v 5.68e-5 c 1.082273,0 2.104314,0.8298577 2.104314,1.9728023 0,0.106024 -0.0014,0.211421 -0.01812,0.332023 -0.02994,0.30398 -0.30759,0.521835 -0.610072,0.4789 -0.302782,-0.04337 -0.508385,-0.330076 -0.452123,-0.630532 0.0047,-0.03387 0.0069,-0.08789 0.0069,-0.180391 0,-0.6479061 -0.529302,-0.8983653 -1.031014,-0.8983653 -0.501412,0 -0.953388,0.4205361 -0.955102,0.8971453 v 1.649857 l 0.930286,-0.0068 c 0.726249,-0.01524 0.733681,1.079586 0.0074,1.074437 l -0.937715,0.005 -0.0068,1.539108 c -0.11222,1.207981 -1.140679,2.17411 -2.3762069,2.17411 -1.3095316,0 -2.3898378,-1.071268 -2.3898378,-2.38402 0.039425,-1.350453 1.1185472,-2.412358 2.4741587,-2.399636 l 0.755117,-0.005 v 1.072812 l -0.761404,0.0068 c -0.7452043,0.02201 -1.38237,0.527352 -1.3945749,1.325285 0,0.727458 0.5879783,1.309601 1.3169508,1.309601 0.7282671,0 1.3096821,-0.529777 1.3096821,-1.308044 V 10.1768 c 3.52e-4,-0.07519 0.0039,-0.13549 0.01252,-0.2185652 0.122404,-0.9929218 1.010203,-1.7495783 2.015338,-1.7495783 z" />
</svg>
