<?xml version="1.0" encoding="UTF-8" standalone="no"?>
<svg
   id="svg1"
   width="16"
   height="16"
   version="1.1"
   sodipodi:docname="applications-system-symbolic.svg"
   inkscape:version="1.4 (e7c3feb100, 2024-10-09)"
   xmlns:inkscape="http://www.inkscape.org/namespaces/inkscape"
   xmlns:sodipodi="http://sodipodi.sourceforge.net/DTD/sodipodi-0.dtd"
   xmlns="http://www.w3.org/2000/svg"
   xmlns:svg="http://www.w3.org/2000/svg">
  <defs
     id="defs1" />
  <sodipodi:namedview
     id="namedview1"
     pagecolor="#ffffff"
     bordercolor="#111111"
     borderopacity="1"
     inkscape:showpageshadow="0"
     inkscape:pageopacity="0"
     inkscape:pagecheckerboard="1"
     inkscape:deskcolor="#d1d1d1"
     inkscape:zoom="72.375"
     inkscape:cx="8.0069085"
     inkscape:cy="8"
     inkscape:window-width="2560"
     inkscape:window-height="1371"
     inkscape:window-x="0"
     inkscape:window-y="0"
     inkscape:window-maximized="1"
     inkscape:current-layer="svg1" />
  <path
     id="path1-5"
     style="paint-order:fill markers stroke;fill:#363636;fill-opacity:1"
     d="M 7.4199219 0 C 7.1970519 0 6.88444 0.061672875 6.625 0.27929688 C 6.36556 0.49691688 6.2415275 0.81721498 6.2109375 1.046875 L 6.2304688 0.9453125 L 5.8886719 2.3671875 C 5.7492819 2.4183585 5.6180181 2.4734631 5.4863281 2.5332031 L 4.2480469 1.7753906 A 1.0001 1.0001 0 0 0 4.2402344 1.7714844 C 4.0616444 1.6642244 3.7659656 1.5527469 3.4472656 1.5917969 C 3.1285656 1.6308509 2.8922494 1.796715 2.7558594 1.921875 A 1.0001 1.0001 0 0 0 2.7304688 1.9453125 L 1.9101562 2.7519531 A 1.0001 1.0001 0 0 0 1.8730469 2.7890625 C 1.7183369 2.9580125 1.5630019 3.245115 1.5449219 3.546875 C 1.5268419 3.848635 1.6268 4.0947794 1.71875 4.2558594 A 1.0001 1.0001 0 0 0 1.7382812 4.2871094 L 2.5078125 5.5273438 C 2.4524825 5.6482138 2.4086819 5.7766394 2.3574219 5.9121094 L 0.94921875 6.2441406 A 1.0001 1.0001 0 0 0 0.93554688 6.2460938 C 0.77365688 6.2866218 0.4958775 6.3812175 0.2734375 6.6484375 C 0.0509975 6.9156575 0 7.2421562 0 7.4414062 L 0 8.5898438 C 0 8.8124338 0.062036875 9.1232225 0.27929688 9.3828125 C 0.49655688 9.6424025 0.81501188 9.766155 1.0449219 9.796875 L 0.9453125 9.7792969 L 2.3691406 10.119141 C 2.4159606 10.244431 2.462605 10.364892 2.515625 10.482422 L 1.7441406 11.740234 C 1.6411806 11.907634 1.5297306 12.168788 1.5566406 12.492188 C 1.5835506 12.815587 1.7692987 13.114147 1.9492188 13.279297 L 2.7324219 14.0625 C 2.8868319 14.21712 3.1415913 14.387061 3.4570312 14.425781 C 3.7724713 14.464501 4.06682 14.358914 4.25 14.246094 L 5.5019531 13.474609 C 5.6261231 13.532089 5.7504694 13.585996 5.8808594 13.634766 L 6.2304688 15.066406 L 6.2109375 14.960938 C 6.2419165 15.193518 6.3795506 15.533644 6.6503906 15.746094 C 6.9212306 15.958544 7.2167519 16 7.4199219 16 L 8.5878906 16 C 8.7910706 16 9.1006244 15.949658 9.3652344 15.736328 C 9.6298444 15.522998 9.7458963 15.221621 9.7851562 15.025391 L 9.7773438 15.066406 L 10.126953 13.636719 C 10.257543 13.587359 10.383009 13.533722 10.505859 13.476562 L 11.748047 14.246094 A 1.0001 1.0001 0 0 0 11.75 14.246094 C 11.93326 14.359024 12.227539 14.464491 12.542969 14.425781 C 12.858399 14.387061 13.113158 14.21709 13.267578 14.0625 A 1.0001 1.0001 0 0 0 13.271484 14.060547 L 14.050781 13.271484 C 14.219621 13.116564 14.415319 12.817741 14.443359 12.488281 C 14.471399 12.158821 14.360367 11.912016 14.273438 11.759766 A 1.0001 1.0001 0 0 0 14.255859 11.730469 L 13.486328 10.484375 C 13.540108 10.367055 13.587176 10.246664 13.634766 10.121094 L 15.0625 9.7792969 L 14.962891 9.796875 C 15.195741 9.765757 15.534054 9.6283519 15.746094 9.3574219 C 15.958134 9.0864919 16 8.7927837 16 8.5898438 L 16 7.4414062 C 16 7.2607162 15.969303 6.9556313 15.751953 6.6757812 C 15.534603 6.3959212 15.238936 6.2878238 15.072266 6.2460938 A 1.0001 1.0001 0 0 0 15.058594 6.2441406 L 13.650391 5.9121094 C 13.597651 5.7751594 13.55538 5.6454006 13.5 5.5253906 L 14.253906 4.3007812 C 14.358926 4.1372212 14.481377 3.880695 14.460938 3.546875 C 14.440497 3.213055 14.246356 2.9014181 14.066406 2.7363281 L 13.275391 1.9589844 C 13.130771 1.8142344 12.871434 1.6347631 12.552734 1.5957031 C 12.234044 1.5566421 11.965704 1.6590547 11.802734 1.7460938 A 1.0001 1.0001 0 0 0 11.751953 1.7753906 L 10.517578 2.5332031 C 10.392188 2.4752961 10.2613 2.4253569 10.125 2.3730469 L 9.7890625 0.99414062 C 9.7526715 0.80004062 9.6459462 0.49817062 9.3789062 0.27539062 C 9.1118762 0.052610625 8.7911406 -7.4014868e-17 8.5878906 0 L 7.4199219 0 z M 7.4199219 1 L 8.5878906 1 C 8.7195206 1 8.7814275 1.0537154 8.8046875 1.1777344 L 9.2695312 3.09375 C 9.7728613 3.21778 10.230028 3.4255181 10.617188 3.6425781 L 12.275391 2.6269531 C 12.391511 2.5649321 12.475409 2.5729916 12.568359 2.6660156 L 13.388672 3.4726562 C 13.481622 3.5579282 13.481799 3.6512356 13.412109 3.7597656 L 12.390625 5.4179688 C 12.576435 5.7668088 12.809571 6.2481881 12.925781 6.7675781 L 14.830078 7.2167969 C 14.953948 7.2478079 15 7.3018703 15 7.4414062 L 15 8.5898438 C 15 8.7216137 14.946198 8.7911206 14.830078 8.8066406 L 12.917969 9.2636719 C 12.801759 9.7520319 12.59182 10.225514 12.375 10.589844 L 13.404297 12.255859 C 13.466237 12.364339 13.465997 12.449866 13.373047 12.535156 L 12.560547 13.357422 C 12.467597 13.450472 12.374057 13.456531 12.273438 13.394531 L 10.609375 12.365234 C 10.222255 12.605574 9.7805312 12.797775 9.2695312 12.921875 L 8.8046875 14.830078 C 8.7814285 14.946328 8.7195166 15 8.5878906 15 L 7.4199219 15 C 7.2882919 15 7.218615 14.946328 7.203125 14.830078 L 6.7382812 12.921875 C 6.2504513 12.805545 5.7777775 12.605574 5.3984375 12.365234 L 3.7265625 13.394531 C 3.6258925 13.456531 3.5323831 13.450472 3.4394531 13.357422 L 2.6269531 12.542969 C 2.5340331 12.457679 2.5337531 12.364412 2.5957031 12.263672 L 3.625 10.589844 C 3.40819 10.217824 3.2059938 9.7520919 3.0898438 9.2636719 L 1.1777344 8.8066406 C 1.0615744 8.7911176 1 8.7216148 1 8.5898438 L 1 7.4414062 C 1 7.3018763 1.0538344 7.2478169 1.1777344 7.2167969 L 3.0839844 6.7675781 C 3.2001344 6.2481981 3.4236175 5.7667687 3.6171875 5.4179688 L 2.5878906 3.7597656 C 2.5259406 3.6512356 2.5261481 3.5578537 2.6113281 3.4648438 L 3.4316406 2.6582031 C 3.5245606 2.5729311 3.6104125 2.5571831 3.7265625 2.6269531 L 5.3828125 3.6425781 C 5.7312725 3.4255281 6.2505038 3.2099675 6.7460938 3.0859375 L 7.203125 1.1777344 C 7.218613 1.0614644 7.2882889 1 7.4199219 1 z M 8 5 A 3 3 0 0 0 5 8 A 3 3 0 0 0 8 11 A 3 3 0 0 0 11 8 A 3 3 0 0 0 8 5 z M 8 6 A 2 2 0 0 1 10 8 A 2 2 0 0 1 8 10 A 2 2 0 0 1 6 8 A 2 2 0 0 1 8 6 z " />
</svg>
