<?xml version="1.0" encoding="UTF-8" standalone="no"?>
<svg
   width="16"
   height="16"
   version="1.1"
   id="svg1"
   sodipodi:docname="preferences-system-symbolic.svg"
   inkscape:version="1.3.2 (091e20ef0f, 2023-11-25)"
   xmlns:inkscape="http://www.inkscape.org/namespaces/inkscape"
   xmlns:sodipodi="http://sodipodi.sourceforge.net/DTD/sodipodi-0.dtd"
   xmlns="http://www.w3.org/2000/svg"
   xmlns:svg="http://www.w3.org/2000/svg">
  <defs
     id="defs1" />
  <sodipodi:namedview
     id="namedview1"
     pagecolor="#ffffff"
     bordercolor="#111111"
     borderopacity="1"
     inkscape:showpageshadow="0"
     inkscape:pageopacity="0"
     inkscape:pagecheckerboard="1"
     inkscape:deskcolor="#d1d1d1"
     inkscape:zoom="12.546875"
     inkscape:cx="12.473225"
     inkscape:cy="10.879203"
     inkscape:window-width="1920"
     inkscape:window-height="1011"
     inkscape:window-x="0"
     inkscape:window-y="0"
     inkscape:window-maximized="1"
     inkscape:current-layer="svg1" />
  <path
     class="ColorScheme-Text"
     d="M 10.248,0.36014 C 10.196711,0.320272 10.13721,0.291269 10.07032,0.273345 9.80276,0.201653 9.53019,0.358454 9.4585,0.626015 L 9.32202,1.135845 A 7,7 0 0 0 8.04252,1.008285 C 8.027721,1.006985 8.01531,0.999619 8.000163,0.999617 7.984666,0.9996187 7.971888,1.007021 7.95676,1.008387 a 7,7 0 0 0 -1.2789,0.12538 L 6.54203,0.626847 C 6.470337,0.359287 6.19729,0.201637 5.92972,0.273327 5.66216,0.34502 5.50451,0.618067 5.5762,0.885637 l 0.13511,0.50425 a 7,7 0 0 0 -1.2116,0.5477 7,7 0 0 0 -1.0808,0.77426 L 3.0499,2.343177 c -0.19587,-0.19587 -0.51032,-0.19538 -0.70619,4.923e-4 -0.19587,0.19587 -0.19538,0.51032 4.923e-4,0.70619 l 0.36973,0.37133 a 7,7 0 0 0 -1.3249,2.291 l -0.50378,-0.13524 c -0.26756,-0.071692 -0.54013,0.085109 -0.61182,0.35267 -0.071692,0.26756 0.085109,0.54013 0.35267,0.61182 l 0.50983,0.13648 a 7,7 0 0 0 -0.00209,2.6442 l -0.50692,0.13583 c -0.26756,0.071693 -0.42521,0.34474 -0.35352,0.6123097 0.071693,0.26756 0.34474,0.42521 0.61231,0.35352 l 0.50425,-0.13512 a 7,7 0 0 0 0.5477,1.2116 7,7 0 0 0 0.77426,1.0808 l -0.36867,0.36901 c -0.19587,0.19587 -0.19538,0.51032 4.923e-4,0.70619 0.19587,0.19586 0.51032,0.19538 0.70619,-4.93e-4 l 0.37133,-0.36973 a 7,7 0 0 0 2.2909,1.325 l -0.13524,0.50378 c -0.071692,0.26756 0.085109,0.54013 0.35267,0.61182 0.26756,0.0717 0.54013,-0.08511 0.61182,-0.35267 l 0.13648,-0.50982 a 7,7 0 0 0 2.6442,0.0021 l 0.13583,0.50692 c 0.071693,0.26756 0.34474,0.42521 0.6123104,0.35352 0.26756,-0.07169 0.42521,-0.34474 0.35352,-0.61231 l -0.13511,-0.50426 a 7,7 0 0 0 1.2116,-0.5477 7,7 0 0 0 1.0808,-0.77426 l 0.36901,0.36867 c 0.19587,0.19586 0.51032,0.19538 0.70619,-4.92e-4 0.19586,-0.19587 0.19538,-0.51031 -4.92e-4,-0.70619 l -0.36973,-0.37133 a 7,7 0 0 0 0.75739,-1.0579 c 0.0053,-0.008 0.01392,-0.01231 0.01878,-0.02073 0.0063,-0.01084 0.0055,-0.02326 0.01082,-0.03435 a 7,7 0 0 0 0.53798,-1.1779 l 0.50378,0.13524 c 0.26756,0.07169 0.54013,-0.08511 0.61182,-0.35267 0.0717,-0.2675597 -0.08511,-0.5401297 -0.35267,-0.6118197 l -0.50982,-0.13648 a 7,7 0 0 0 0.0021,-2.6442 l 0.50691,-0.13584 c 0.26756,-0.071693 0.42521,-0.34474 0.35352,-0.61231 -0.07169,-0.26757 -0.34474,-0.42521 -0.61231,-0.35352 l -0.50426,0.13511 a 7,7 0 0 0 -0.5477,-1.2116 7,7 0 0 0 -0.77426,-1.0808 l 0.36867,-0.36901 c 0.19586,-0.19587 0.19538,-0.51032 -4.93e-4,-0.70619 -0.1959,-0.19594 -0.51034,-0.19545 -0.70621,4.19e-4 l -0.37133,0.36973 a 7,7 0 0 0 -2.291,-1.3249 l 0.13524,-0.50378 c 0.05377,-0.20067 -0.02113,-0.40542 -0.17499,-0.52503 z m 0.50376,2.3071 a 6,6 0 0 1 2.4439,2.3334 6,6 0 0 1 0.22678,5.5526 l -3.498,-2.0195 A 2,2 0 0 0 8.99989,6.26794 2,2 0 0 0 8.50102,6.06562 L 8.5003496,2.02382 A 6,6 0 0 1 10.75175,2.66736 Z m -3.2526,-0.63971 8.883e-4,4.0375 A 2,2 0 0 0 6.2678483,7 2,2 0 0 0 6.0725383,8.5336 l -3.4979,2.0196 a 6,6 0 0 1 2.4261,-7.7489 6,6 0 0 1 2.4985,-0.77671 z m 1.0008,5.1064 a 1,1 0 0 1 0.36603,1.366 1,1 0 0 1 -1.366,0.36603 1,1 0 0 1 -0.36603,-1.366 1,1 0 0 1 1.366,-0.36603 z m 0.92619,2.2668 3.4962,2.0185 a 6,6 0 0 1 -1.9232,1.7764 6,6 0 0 1 -7.9236,-1.7759 l 3.497,-2.018 A 2,2 0 0 0 6.99988,9.73189 2,2 0 0 0 9.42608,9.4006 Z"
     color="#363636"
     fill="currentColor"
     id="path1"
     style="display:none" />
  <path
     d="m 7.99993,5.0001016 a 3,3 0 0 0 -3,3 3,3 0 0 0 3,3.0000004 3,3 0 0 0 3,-3.0000004 3,3 0 0 0 -3,-3 z m 0,1 a 2,2 0 0 1 2,2 2,2 0 0 1 -2,2.0000004 2,2 0 0 1 -2,-2.0000004 2,2 0 0 1 2,-2 z"
     fill="#363636"
     style="paint-order:fill markers stroke"
     id="path1-5" />
  <path
     d="m 7.41983,1.0158e-4 c -0.22287,0 -0.53548,0.061676 -0.79492,0.2793 -0.25944,0.21762 -0.38347,0.53792 -0.41406,0.76758002 L 6.230381,0.94542158 5.888581,2.3673216 c -0.13939,0.051171 -0.27065,0.10628 -0.40234,0.16602 l -1.2383,-0.75781 a 1.0001,1.0001 0 0 0 -0.0078,-0.00391 c -0.17859,-0.10726 -0.47427,-0.21874 -0.79297,-0.17969 -0.3187,0.039054 -0.55502,0.20492 -0.69141,0.33008 a 1.0001,1.0001 0 0 0 -0.02539,0.023438 l -0.82031,0.80664 a 1.0001,1.0001 0 0 0 -0.03711,0.037109 c -0.15471,0.16895 -0.31004,0.45605 -0.32812,0.75781 -0.01808,0.30176 0.08188,0.5479 0.17383,0.70898 a 1.0001,1.0001 0 0 0 0.01953,0.03125 l 0.76953,1.2402 c -0.05533,0.12087 -0.09913,0.2493 -0.15039,0.38477 l -1.4082,0.33203 a 1.0001,1.0001 0 0 0 -0.01367,0.00195 c -0.16189,0.040528 -0.43967,0.13512 -0.66211,0.40234 -0.22244,0.26722 -0.27344,0.59372 -0.27344,0.79297 v 1.1484 c 0,0.22259 0.06204,0.53338 0.2793,0.79297 0.21726,0.25959 0.53572,0.38334 0.76563,0.41406 l -0.09961,-0.017578 1.4238,0.3398404 c 0.04682,0.12529 0.09346,0.24575 0.14648,0.36328 l -0.77148,1.2578 c -0.10296,0.1674 -0.21441,0.42855 -0.1875,0.75195 0.02691,0.3234 0.21266,0.621959 0.39258,0.787109 l 0.7832,0.7832 c 0.15441,0.15462 0.40917,0.32456 0.72461,0.36328 0.31544,0.03872 0.60979,-0.06687 0.79297,-0.17969 l 1.252,-0.77148 c 0.12417,0.05748 0.24852,0.11139 0.37891,0.16016 l 0.34961,1.4316 -0.019531,-0.10547 c 0.030979,0.23258 0.16861,0.57271 0.43945,0.78516 C 6.92117,15.95854 7.21669,16 7.41986,16 h 1.168 C 8.79104,16 9.10059,15.94966 9.3652,15.73633 9.62981,15.523 9.74586,15.22162 9.78512,15.02539 l -0.00781,0.04101 0.34961,-1.4297 c 0.13059,-0.04936 0.25606,-0.103 0.37891,-0.16016 l 1.2422,0.76953 a 1.0001,1.0001 0 0 0 0.002,0 c 0.18326,0.11293 0.47754,0.2184 0.79297,0.17969 0.31543,-0.03872 0.57019,-0.20869 0.72461,-0.36328 a 1.0001,1.0001 0 0 0 0.0039,-0.002 l 0.7793,-0.78906 c 0.16884,-0.15492 0.36454,-0.453739 0.39258,-0.783199 0.02804,-0.32946 -0.08299,-0.57627 -0.16992,-0.72852 a 1.0001,1.0001 0 0 0 -0.01758,-0.0293 l -0.76953,-1.2461 c 0.05378,-0.11732 0.10085,-0.23771 0.14844,-0.36328 l 1.4277,-0.3418004 -0.09961,0.017578 c 0.23285,-0.031118 0.57116,-0.16852 0.7832,-0.43945 C 15.95813,9.0864186 16,8.7927086 16,8.5897686 v -1.1484 c 0,-0.18069 -0.0307,-0.48577 -0.24805,-0.76562 -0.21735,-0.27986 -0.51302,-0.38796 -0.67969,-0.42969 a 1.0001,1.0001 0 0 0 -0.01367,-0.00195 l -1.4082,-0.33203 C 13.59765,5.7751286 13.55538,5.6453686 13.5,5.5253586 l 0.75391,-1.2246 c 0.10502,-0.16356 0.22747,-0.42009 0.20703,-0.75391 -0.02044,-0.33382 -0.21458,-0.64546 -0.39453,-0.81055 l -0.79102,-0.77734 c -0.14462,-0.14475 -0.40396,-0.32422 -0.72266,-0.36328 -0.31869,-0.039061 -0.58703,0.063351 -0.75,0.15039 a 1.0001,1.0001 0 0 0 -0.05078,0.029297 l -1.2344,0.75781 c -0.12539,-0.057907 -0.25628,-0.10785 -0.39258,-0.16016 L 9.78903,0.99411558 c -0.036391,-0.1941 -0.14312,-0.49597 -0.41016,-0.71875 -0.26703,-0.22278 -0.58777,-0.27539 -0.79102,-0.27539 h -1.168 z m 0,1.00000002 h 1.168 c 0.13163,0 0.19354,0.053711 0.2168,0.17773 l 0.46484,1.916 c 0.50333,0.12403 0.96054,0.33177 1.3477,0.54883 l 1.6582,-1.0156 c 0.11612,-0.062021 0.20002,-0.053962 0.29297,0.039062 l 0.82031,0.80664 c 0.09295,0.085272 0.09313,0.17858 0.02344,0.28711 l -1.0215,1.6582 c 0.18581,0.34884 0.41895,0.83021 0.53516,1.3496 l 1.9043,0.44922 c 0.12387,0.031011 0.16992,0.085074 0.16992,0.22461 v 1.1484 c 0,0.13177 -0.0538,0.20128 -0.16992,0.2168 l -1.9121,0.45703 c -0.11621,0.48836 -0.32615,0.9618704 -0.54297,1.3262004 l 1.0293,1.666 c 0.06194,0.10848 0.0617,0.19401 -0.03125,0.2793 l -0.8125,0.822269 c -0.09295,0.09305 -0.18649,0.09911 -0.28711,0.03711 l -1.6641,-1.029299 c -0.38712,0.24034 -0.8288,0.43254 -1.3398,0.55664 l -0.46484,1.908199 c -0.023259,0.11625 -0.085174,0.16992 -0.2168,0.16992 h -1.168 c -0.13163,0 -0.20131,-0.05367 -0.2168,-0.16992 L 6.73824,12.921954 c -0.48783,-0.11633 -0.96046,-0.3163 -1.3398,-0.55664 l -1.6719,1.029299 c -0.10067,0.062 -0.19418,0.05594 -0.28711,-0.03711 l -0.8125,-0.814449 c -0.09292,-0.08529 -0.0932,-0.17856 -0.03125,-0.2793 l 1.0293,-1.6738 C 3.40817,10.217934 3.20597,9.7521736 3.08982,9.2637536 l -1.9121,-0.45703 C 1.061557,8.7912006 0.999987,8.7216946 0.999987,8.5899236 v -1.1484 c 0,-0.13953 0.05383,-0.19359 0.17773,-0.22461 l 1.9062,-0.44922 c 0.11615,-0.51938 0.33963,-1.0008 0.5332,-1.3496 l -1.0293,-1.6582 c -0.06195,-0.10853 -0.06174,-0.20191 0.02344,-0.29492 l 0.82031,-0.80664 c 0.09292,-0.085272 0.17877,-0.10102 0.29492,-0.03125 l 1.6562,1.0156 c 0.34846,-0.21705 0.86771,-0.43261 1.3633,-0.55664 l 0.45703,-1.9082 c 0.015488,-0.11627 0.085167,-0.17773 0.2168,-0.17773 z"
     color="#000000"
     fill="#363636"
     stroke-linecap="round"
     stroke-linejoin="round"
     style="-inkscape-stroke:none"
     id="path2" />
</svg>
