<?xml version="1.0" encoding="UTF-8"?>
<svg id="svg1" width="16" height="16" version="1.1" xmlns="http://www.w3.org/2000/svg">
 <path id="path1" class="ColorScheme-Text" d="m10.248 0.36014c-0.051289-0.039868-0.11079-0.068871-0.17768-0.086795-0.26756-0.071692-0.54013 0.085109-0.61182 0.35267l-0.13648 0.50983a7 7 0 0 0-1.2795-0.12756c-0.014799-0.0013-0.02721-0.008666-0.042357-0.008668-0.015497 1.7e-6 -0.028275 0.007404-0.043403 0.00877a7 7 0 0 0-1.2789 0.12538l-0.13583-0.50692c-0.071693-0.26756-0.34474-0.42521-0.61231-0.35352-0.26756 0.071693-0.42521 0.34474-0.35352 0.61231l0.13511 0.50425a7 7 0 0 0-1.2116 0.5477 7 7 0 0 0-1.0808 0.77426l-0.36901-0.36867c-0.19587-0.19587-0.51032-0.19538-0.70619 4.923e-4 -0.19587 0.19587-0.19538 0.51032 4.923e-4 0.70619l0.36973 0.37133a7 7 0 0 0-1.3249 2.291l-0.50378-0.13524c-0.26756-0.071692-0.54013 0.085109-0.61182 0.35267-0.071692 0.26756 0.085109 0.54013 0.35267 0.61182l0.50983 0.13648a7 7 0 0 0-0.00209 2.6442l-0.50692 0.13583c-0.26756 0.071693-0.42521 0.34474-0.35352 0.61231 0.071693 0.26756 0.34474 0.42521 0.61231 0.35352l0.50425-0.13512a7 7 0 0 0 0.5477 1.2116 7 7 0 0 0 0.77426 1.0808l-0.36867 0.36901c-0.19587 0.19587-0.19538 0.51032 4.923e-4 0.70619 0.19587 0.19586 0.51032 0.19538 0.70619-4.93e-4l0.37133-0.36973a7 7 0 0 0 2.2909 1.325l-0.13524 0.50378c-0.071692 0.26756 0.085109 0.54013 0.35267 0.61182 0.26756 0.0717 0.54013-0.08511 0.61182-0.35267l0.13648-0.50982a7 7 0 0 0 2.6442 0.0021l0.13583 0.50692c0.071693 0.26756 0.34474 0.42521 0.61231 0.35352 0.26756-0.07169 0.42521-0.34474 0.35352-0.61231l-0.13511-0.50426a7 7 0 0 0 1.2116-0.5477 7 7 0 0 0 1.0808-0.77426l0.36901 0.36867c0.19587 0.19586 0.51032 0.19538 0.70619-4.92e-4 0.19586-0.19587 0.19538-0.51031-4.92e-4 -0.70619l-0.36973-0.37133a7 7 0 0 0 0.75739-1.0579c0.0053-8e-3 0.01392-0.01231 0.01878-0.02073 0.0063-0.01084 0.0055-0.02326 0.01082-0.03435a7 7 0 0 0 0.53798-1.1779l0.50378 0.13524c0.26756 0.07169 0.54013-0.08511 0.61182-0.35267 0.0717-0.26756-0.08511-0.54013-0.35267-0.61182l-0.50982-0.13648a7 7 0 0 0 0.0021-2.6442l0.50691-0.13584c0.26756-0.071693 0.42521-0.34474 0.35352-0.61231s-0.34474-0.42521-0.61231-0.35352l-0.50426 0.13511a7 7 0 0 0-0.5477-1.2116 7 7 0 0 0-0.77426-1.0808l0.36867-0.36901c0.19586-0.19587 0.19538-0.51032-4.93e-4 -0.70619-0.1959-0.19594-0.51034-0.19545-0.70621 4.19e-4l-0.37133 0.36973a7 7 0 0 0-2.291-1.3249l0.13524-0.50378c0.05377-0.20067-0.02113-0.40542-0.17499-0.52503zm0.50376 2.3071a6 6 0 0 1 2.4439 2.3334 6 6 0 0 1 0.22678 5.5526l-3.498-2.0195a2 2 0 0 0-0.92455-2.2658 2 2 0 0 0-0.49887-0.20232l-6.704e-4 -4.0418a6 6 0 0 1 2.2514 0.64354zm-3.2526-0.63971 8.883e-4 4.0375a2 2 0 0 0-1.2322 0.93497 2 2 0 0 0-0.19531 1.5336l-3.4979 2.0196a6 6 0 0 1 2.4261-7.7489 6 6 0 0 1 2.4985-0.77671zm1.0008 5.1064a1 1 0 0 1 0.36603 1.366 1 1 0 0 1-1.366 0.36603 1 1 0 0 1-0.36603-1.366 1 1 0 0 1 1.366-0.36603zm0.92619 2.2668 3.4962 2.0185a6 6 0 0 1-1.9232 1.7764 6 6 0 0 1-7.9236-1.7759l3.497-2.018a2 2 0 0 0 0.42733 0.33016 2 2 0 0 0 2.4262-0.33129z" color="#363636" display="none" fill="currentColor"/>
 <path id="path1-5" d="m7.9999 5.0001a3 3 0 0 0-3 3 3 3 0 0 0 3 3 3 3 0 0 0 3-3 3 3 0 0 0-3-3zm0 1a2 2 0 0 1 2 2 2 2 0 0 1-2 2 2 2 0 0 1-2-2 2 2 0 0 1 2-2z" fill="#363636" style="paint-order:fill markers stroke"/>
 <path id="path2" d="m7.4198 1.0158e-4c-0.22287 0-0.53548 0.061676-0.79492 0.2793-0.25944 0.21762-0.38347 0.53792-0.41406 0.76758l0.019531-0.10156-0.3418 1.4219c-0.13939 0.051171-0.27065 0.10628-0.40234 0.16602l-1.2383-0.75781a1.0001 1.0001 0 0 0-0.0078-0.00391c-0.17859-0.10726-0.47427-0.21874-0.79297-0.17969-0.3187 0.039054-0.55502 0.20492-0.69141 0.33008a1.0001 1.0001 0 0 0-0.02539 0.023438l-0.82031 0.80664a1.0001 1.0001 0 0 0-0.03711 0.037109c-0.15471 0.16895-0.31004 0.45605-0.32812 0.75781s0.08188 0.5479 0.17383 0.70898a1.0001 1.0001 0 0 0 0.01953 0.03125l0.76953 1.2402c-0.05533 0.12087-0.09913 0.2493-0.15039 0.38477l-1.4082 0.33203a1.0001 1.0001 0 0 0-0.01367 0.00195c-0.16189 0.040528-0.43967 0.13512-0.66211 0.40234s-0.27344 0.59372-0.27344 0.79297v1.1484c0 0.22259 0.06204 0.53338 0.2793 0.79297s0.53572 0.38334 0.76563 0.41406l-0.09961-0.017578 1.4238 0.33984c0.04682 0.12529 0.09346 0.24575 0.14648 0.36328l-0.77148 1.2578c-0.10296 0.1674-0.21441 0.42855-0.1875 0.75195s0.21266 0.62196 0.39258 0.78711l0.7832 0.7832c0.15441 0.15462 0.40917 0.32456 0.72461 0.36328s0.60979-0.06687 0.79297-0.17969l1.252-0.77148c0.12417 0.05748 0.24852 0.11139 0.37891 0.16016l0.34961 1.4316-0.019531-0.10547c0.030979 0.23258 0.16861 0.57271 0.43945 0.78516s0.56636 0.25391 0.76953 0.25391h1.168c0.20318 0 0.51273-0.05034 0.77734-0.26367s0.38066-0.51471 0.41992-0.71094l-0.00781 0.04101 0.34961-1.4297c0.13059-0.04936 0.25606-0.103 0.37891-0.16016l1.2422 0.76953a1.0001 1.0001 0 0 0 2e-3 0c0.18326 0.11293 0.47754 0.2184 0.79297 0.17969 0.31543-0.03872 0.57019-0.20869 0.72461-0.36328a1.0001 1.0001 0 0 0 0.0039-2e-3l0.7793-0.78906c0.16884-0.15492 0.36454-0.45374 0.39258-0.7832s-0.08299-0.57627-0.16992-0.72852a1.0001 1.0001 0 0 0-0.01758-0.0293l-0.76953-1.2461c0.05378-0.11732 0.10085-0.23771 0.14844-0.36328l1.4277-0.3418-0.09961 0.017578c0.23285-0.031118 0.57116-0.16852 0.7832-0.43945s0.25391-0.56464 0.25391-0.76758v-1.1484c0-0.18069-0.0307-0.48577-0.24805-0.76562-0.21735-0.27986-0.51302-0.38796-0.67969-0.42969a1.0001 1.0001 0 0 0-0.01367-0.00195l-1.4082-0.33203c-0.05274-0.13695-0.09501-0.26671-0.15039-0.38672l0.75391-1.2246c0.10502-0.16356 0.22747-0.42009 0.20703-0.75391s-0.21458-0.64546-0.39453-0.81055l-0.79102-0.77734c-0.14462-0.14475-0.40396-0.32422-0.72266-0.36328-0.31869-0.039061-0.58703 0.063351-0.75 0.15039a1.0001 1.0001 0 0 0-0.05078 0.029297l-1.2344 0.75781c-0.12539-0.057907-0.25628-0.10785-0.39258-0.16016l-0.33594-1.3789c-0.036391-0.1941-0.14312-0.49597-0.41016-0.71875-0.26703-0.22278-0.58777-0.27539-0.79102-0.27539h-1.168zm0 1h1.168c0.13163 0 0.19354 0.053711 0.2168 0.17773l0.46484 1.916c0.50333 0.12403 0.96054 0.33177 1.3477 0.54883l1.6582-1.0156c0.11612-0.062021 0.20002-0.053962 0.29297 0.039062l0.82031 0.80664c0.09295 0.085272 0.09313 0.17858 0.02344 0.28711l-1.0215 1.6582c0.18581 0.34884 0.41895 0.83021 0.53516 1.3496l1.9043 0.44922c0.12387 0.031011 0.16992 0.085074 0.16992 0.22461v1.1484c0 0.13177-0.0538 0.20128-0.16992 0.2168l-1.9121 0.45703c-0.11621 0.48836-0.32615 0.96187-0.54297 1.3262l1.0293 1.666c0.06194 0.10848 0.0617 0.19401-0.03125 0.2793l-0.8125 0.82227c-0.09295 0.09305-0.18649 0.09911-0.28711 0.03711l-1.6641-1.0293c-0.38712 0.24034-0.8288 0.43254-1.3398 0.55664l-0.46484 1.9082c-0.023259 0.11625-0.085174 0.16992-0.2168 0.16992h-1.168c-0.13163 0-0.20131-0.05367-0.2168-0.16992l-0.46484-1.9082c-0.48783-0.11633-0.96046-0.3163-1.3398-0.55664l-1.6719 1.0293c-0.10067 0.062-0.19418 0.05594-0.28711-0.03711l-0.8125-0.81445c-0.09292-0.08529-0.0932-0.17856-0.03125-0.2793l1.0293-1.6738c-0.21681-0.37202-0.41901-0.83778-0.53516-1.3262l-1.9121-0.45703c-0.11616-0.015523-0.17773-0.085029-0.17773-0.2168v-1.1484c0-0.13953 0.05383-0.19359 0.17773-0.22461l1.9062-0.44922c0.11615-0.51938 0.33963-1.0008 0.5332-1.3496l-1.0293-1.6582c-0.06195-0.10853-0.06174-0.20191 0.02344-0.29492l0.82031-0.80664c0.09292-0.085272 0.17877-0.10102 0.29492-0.03125l1.6562 1.0156c0.34846-0.21705 0.86771-0.43261 1.3633-0.55664l0.45703-1.9082c0.015488-0.11627 0.085167-0.17773 0.2168-0.17773z" color="#000000" fill="#363636" stroke-linecap="round" stroke-linejoin="round" style="-inkscape-stroke:none"/>
</svg>
