<?xml version="1.0" encoding="UTF-8"?>
<svg width="16" height="16" xmlns="http://www.w3.org/2000/svg">
 <path d="M10 2v1h1V2h-1zm2 0v1h1V2h-1zm2 0v1h1V2h-1zM8 4v1h1V4H8zm6 0v1h1V4h-1zM8 6v1h1V6H8zm6 0v1h1V6h-1zM4 8v1h1V8H4zm2 0v1h1V8H6zm2 0v1h1V8H8zm2 0v1h1V8h-1zm2 0v1h1V8h-1zm2 0v1h1V8h-1zM2 10v1h1v-1H2zm6 0v1h1v-1H8zm6 0v1h1v-1h-1zM2 12v1h1v-1H2zm6 0v1h1v-1H8zm6 0v1h1v-1h-1zM2 14v1h1v-1H2zm2 0v1h1v-1H4zm2 0v1h1v-1H6zm2 0v1h1v-1H8zm2 0v1h1v-1h-1zm2 0v1h1v-1h-1zm2 0v1h1v-1h-1z" fill="#363636" opacity=".35" stroke-linecap="round" stroke-linejoin="round" stroke-width="2" style="paint-order:stroke fill markers"/>
 <path d="M1 1v3h3V1H1zm1 1h1v1H2V2zm5-1v3h3V1Zm1 1h1v1H8ZM1 7v3h3V7Zm1 1h1v1H2Zm0-4h1v3H2zm2-2h3v1H4z" fill="#363636" stroke-linecap="round" stroke-linejoin="round" stroke-width="2" style="paint-order:stroke fill markers"/>
</svg>
