<?xml version="1.0" encoding="UTF-8"?>
<svg width="16" height="16" xmlns="http://www.w3.org/2000/svg">
 <path d="M5.879 7 4 8v5l1 2V9l1.03-1h.94l-.943-1H5.88zm4.094 0-.944 1h.942L11 9v6l1-2V8l-1.879-1h-.148z" fill="#363636"/>
 <path d="M2 0C.892 0 0 .892 0 2v12c0 1.108.892 2 2 2h12c1.108 0 2-.892 2-2V2c0-1.108-.892-2-2-2H2zm0 1h12c.554 0 1 .446 1 1v12c0 .554-.446 1-1 1H2c-.554 0-1-.446-1-1V2c0-.554.446-1 1-1z" fill="#363636" stroke-width="0" style="paint-order:stroke fill markers"/>
 <rect x="3" y="11" width="10" height="1" rx="0" ry="0" fill="#363636" stroke-width="0" style="paint-order:stroke fill markers"/>
 <rect x="7" y="10" width="2" height="3" rx="1" ry="1" fill="#363636" stroke-width="0" style="paint-order:stroke fill markers"/>
 <rect x="2" y="2" width="12" height="1" rx="0" ry="0" fill="#363636" stroke-width="0" style="paint-order:stroke fill markers"/>
 <path d="m8 5a2 2 0 0 0-2 2 2 2 0 0 0 2 2 2 2 0 0 0 2-2 2 2 0 0 0-2-2zm0 1a1 1 0 0 1 1 1 1 1 0 0 1-1 1 1 1 0 0 1-1-1 1 1 0 0 1 1-1z" fill="#363636" stroke-width="0" style="paint-order:stroke fill markers"/>
 <rect x="7" y="4" width="2" height="2" rx="1" ry="1" fill="#363636" stroke-width="0" style="paint-order:stroke fill markers"/>
</svg>
