<?xml version="1.0" encoding="UTF-8"?>
<svg width="16" height="16" xmlns="http://www.w3.org/2000/svg">
 <path d="M7 1.07A7 7 0 0 0 1.07 7h1.02A6 6 0 0 1 7 2.088V1.07zm2 0v1.018A6 6 0 0 1 13.916 7h1.012A7 7 0 0 0 9 1.07zM1.07 9A7 7 0 0 0 8 15a7 7 0 0 0 6.93-6h-1.018A6 6 0 0 1 8 14a6 6 0 0 1-5.912-5H1.07z" fill="#363636" stroke-linecap="round" stroke-linejoin="round" style="paint-order:stroke fill markers"/>
 <path d="M1 6c-.554 0-1 .446-1 1v2c0 .554.446 1 1 1h2c.554 0 1-.446 1-1V7c0-.554-.446-1-1-1H1zm0 1h2v2H1V7z" fill="#363636" stroke-linecap="round" stroke-linejoin="round" style="paint-order:stroke fill markers"/>
 <rect x="1" y="7" width="2" height="2" rx="0" ry="0" fill="#363636" opacity=".35" stroke-linecap="round" stroke-linejoin="round" style="paint-order:stroke fill markers"/>
 <path d="M7 0c-.554 0-1 .446-1 1v2c0 .554.446 1 1 1h2c.554 0 1-.446 1-1V1c0-.554-.446-1-1-1Zm0 1h2v2H7Z" fill="#363636" stroke-linecap="round" stroke-linejoin="round" style="paint-order:stroke fill markers"/>
 <rect x="7" y="1" width="2" height="2" rx="0" ry="0" fill="#363636" opacity=".35" stroke-linecap="round" stroke-linejoin="round" style="paint-order:stroke fill markers"/>
 <path d="M13 6c-.554 0-1 .446-1 1v2c0 .554.446 1 1 1h2c.554 0 1-.446 1-1V7c0-.554-.446-1-1-1Zm0 1h2v2h-2z" fill="#363636" stroke-linecap="round" stroke-linejoin="round" style="paint-order:stroke fill markers"/>
 <rect x="13" y="7" width="2" height="2" rx="0" ry="0" fill="#363636" opacity=".35" stroke-linecap="round" stroke-linejoin="round" style="paint-order:stroke fill markers"/>
</svg>
