<?xml version="1.0" encoding="UTF-8"?>
<svg width="16" height="16" xmlns="http://www.w3.org/2000/svg">
 <path d="m14.78 11.555-.971.244A13 13 0 0 1 14 14a13 13 0 0 1-.072 1h1A14 14 0 0 0 15 14a14 14 0 0 0-.22-2.445z" fill="#363636" stroke-linecap="round" stroke-linejoin="round" stroke-width="2.1538" style="paint-order:stroke fill markers"/>
 <path d="M1.5 14a.499.499 0 1 0 0 1h12.697v-1H1.5z" fill="#363636" stroke-linecap="round" stroke-linejoin="round" stroke-width="2" style="paint-order:stroke fill markers"/>
 <rect transform="rotate(-64.623)" x="-12.953" y="7.064" width="14" height="1" rx=".5" ry=".5" fill="#363636" stroke-linecap="round" stroke-linejoin="round" stroke-width="2" style="paint-order:stroke fill markers"/>
 <path d="m6.832 2.027-.41.913a13 13 0 0 1 1.845 1.215 13 13 0 0 1 .74.677l.62-.784a14 14 0 0 0-.74-.677 14 14 0 0 0-2.055-1.344Z" fill="#363636" stroke-linecap="round" stroke-linejoin="round" stroke-width="2.1538" style="paint-order:stroke fill markers"/>
 <path d="m4.885 8.01-.487.873A7 7 0 0 1 8 15h1a8 8 0 0 0-4.115-6.99z" fill="#363636" stroke-linecap="round" stroke-linejoin="round" stroke-width="1.8824" style="paint-order:stroke fill markers"/>
</svg>
