<?xml version="1.0" encoding="UTF-8"?>
<svg width="16" height="16" xmlns="http://www.w3.org/2000/svg">
 <path transform="translate(-45.07 -567.36)" d="m48.07 570.36h1v1h-1z" fill="#363636" opacity=".999" style="paint-order:stroke fill markers"/>
 <path d="M3 1c-1.108 0-2 .892-2 2v11c0 1.108.892 2 2 2h10c1.108 0 2-.892 2-2V3c0-1.108-.892-2-2-2h-2v1l-.002.033H13c.554 0 1 .446 1 1v10.934c0 .554-.446 1-1 1H3c-.554 0-1-.446-1-1V3.033c0-.554.446-1 1-1h2.002L5 2V1H3z" fill="#363636"/>
 <path d="M6 0c-.554 0-1 .446-1 1v1c0 .554.446 1 1 1h4c.554 0 1-.446 1-1V1c0-.554-.446-1-1-1zm0 1h4v1H6z" fill="#363636"/>
 <path transform="translate(-45.07 -567.36)" d="m57.07 570.36h1v1h-1zm-9 10h1v1h-1zm9 0h1v1h-1z" fill="#363636" opacity=".999" style="paint-order:stroke fill markers"/>
 <path transform="translate(-45.07 -567.36)" d="m50.07 572.36v3h1v-1.2l3.36 4.2h-1.36v1h3v-3h-1v1.2l-3.359-4.2h1.36v-1h-3z" fill="#363636" stroke-linecap="round" stroke-linejoin="round" style="paint-order:stroke fill markers"/>
</svg>
