<?xml version="1.0" encoding="UTF-8" standalone="no"?>
<svg
   width="16"
   height="16"
   version="1.1"
   viewBox="0 0 16 16"
   id="svg1"
   sodipodi:docname="nautilus-folder-search-symbolic.svg"
   inkscape:version="1.3.2 (091e20ef0f, 2023-11-25)"
   xmlns:inkscape="http://www.inkscape.org/namespaces/inkscape"
   xmlns:sodipodi="http://sodipodi.sourceforge.net/DTD/sodipodi-0.dtd"
   xmlns="http://www.w3.org/2000/svg"
   xmlns:svg="http://www.w3.org/2000/svg">
  <sodipodi:namedview
     id="namedview1"
     pagecolor="#ffffff"
     bordercolor="#111111"
     borderopacity="1"
     inkscape:showpageshadow="0"
     inkscape:pageopacity="0"
     inkscape:pagecheckerboard="1"
     inkscape:deskcolor="#d1d1d1"
     inkscape:zoom="35.487922"
     inkscape:cx="9.7075282"
     inkscape:cy="9.0312418"
     inkscape:window-width="1920"
     inkscape:window-height="1011"
     inkscape:window-x="0"
     inkscape:window-y="0"
     inkscape:window-maximized="1"
     inkscape:current-layer="svg1" />
  <defs
     id="defs1">
    <style
       id="current-color-scheme"
       type="text/css">.ColorScheme-Text { color:#363636; } .ColorScheme-Text { color:#363636; }</style>
  </defs>
  <path
     id="path6"
     style="color:#000000;fill:#363636;-inkscape-stroke:none"
     d="M 1.9238281,0 C 0.85549333,0 -0.01953125,0.8765576 -0.01953125,1.9453125 V 7.0292969 11.0625 c 0,0.267189 0.05557098,0.521437 0.15429687,0.753906 v 0.002 c 0.0245022,0.05755 0.0522914,0.11337 0.0820313,0.167968 v 0.002 c 0.33045349,0.605442 0.97314122,1.019532 1.70703122,1.019532 h 6.5585938 a 4.5024595,4.5024595 0 0 1 -0.3574219,-1 H 1.9238281 c -0.066316,0 -0.1312979,-0.0072 -0.1933593,-0.01953 -0.062062,-0.01229 -0.1210803,-0.02928 -0.1777344,-0.05273 -0.056649,-0.02348 -0.11006,-0.05242 -0.1601563,-0.08594 -0.050096,-0.03352 -0.096284,-0.07282 -0.1386719,-0.115235 C 1.1691298,11.64954 1.0997451,11.549167 1.0527344,11.435547 1.0292382,11.378719 1.0123245,11.318212 1,11.25586 0.9876755,11.193506 0.98046875,11.129252 0.98046875,11.0625 V 7.0292969 c 0,-0.5332608 0.41306795,-0.9472656 0.94335935,-0.9472656 h 4.0976563 c 0.7628525,0 1.2589162,-0.5450462 1.5996094,-0.8828125 C 7.7914465,5.0299747 8.0217547,4.9257813 8.2851562,4.9257813 h 5.7910158 c 0.531046,0 0.943359,0.4140054 0.943359,0.9472656 V 7.265625 a 4.5024595,4.5024595 0 0 1 1,0.921875 V 5.8730469 3.9628907 c 0,-1.2281059 -1.003395,-2.2363282 -2.230469,-2.2363282 H 7.1328125 c -0.1663201,0 -0.317402,-0.092368 -0.3925781,-0.2421875 L 6.5234375,1.0527344 C 6.1997789,0.4092337 5.538733,0 4.8183594,0 Z m 0,1 H 4.8183594 C 5.16223,1 5.4735419,1.1930565 5.6289062,1.5019531 l 0.21875,0.4316407 c 0.2434206,0.485113 0.7419799,0.7929687 1.2851563,0.7929687 h 6.6562495 c 0.685631,0 1.230469,0.5472121 1.230469,1.2363282 V 4.1738281 C 14.739536,4.0163818 14.418254,3.9257813 14.076172,3.9257813 H 8.2851562 c -0.5308262,0 -1.0167147,0.2162615 -1.3671874,0.5644531 v -0.00195 c -0.3168334,0.3141116 -0.7193675,0.59375 -0.8964844,0.59375 H 1.9238281 c -0.341962,0 -0.6633668,0.0906 -0.94335935,0.2480468 V 1.9453125 C 0.98046875,1.4120521 1.3935367,1 1.9238281,1 Z" />
  <path
     d="m 12.50246,8.9658585 a 3.5,3.5 0 0 0 -3.5000005,3.5000005 3.5,3.5 0 0 0 3.5000005,3.5 3.5,3.5 0 0 0 3.5,-3.5 3.5,3.5 0 0 0 -3.5,-3.5000005 z m 0,1 c 0.277,0 0.5,0.2229995 0.5,0.4999995 v 1.500001 h 1.5 c 0.277,0 0.5,0.223 0.5,0.5 0,0.277 -0.223,0.5 -0.5,0.5 h -1.5 v 1.5 c 0,0.277 -0.223,0.5 -0.5,0.5 -0.277,0 -0.5,-0.223 -0.5,-0.5 v -1.5 h -1.5 c -0.277,0 -0.5,-0.223 -0.5,-0.5 0,-0.277 0.223,-0.5 0.5,-0.5 h 1.5 v -1.500001 c 0,-0.277 0.223,-0.4999995 0.5,-0.4999995 z"
     style="color:#363636;display:none;fill:currentColor"
     class="ColorScheme-Text"
     id="path2" />
  <path
     d="m 12.50246,8.9658585 c -1.933,0 -3.5,1.5670005 -3.5,3.5000005 0,1.932999 1.567,3.5 3.5,3.5 1.933,0 3.5,-1.567001 3.5,-3.5 0,-1.933 -1.567,-3.5000005 -3.5,-3.5000005 z m -1,1 c 0.277,0 0.5,0.2230005 0.5,0.5000005 v 2.5 h 2.5 c 0.277,0 0.5,0.223 0.5,0.5 0,0.276999 -0.223,0.5 -0.5,0.5 h -3 c -0.277,0 -0.5,-0.223001 -0.5,-0.5 v -3 c 0,-0.277 0.223,-0.5000005 0.5,-0.5000005 z"
     style="color:#363636;display:none;fill:currentColor"
     class="ColorScheme-Text"
     id="path2-7" />
  <path
     d="m 10.966398,6.7633317 a 2.8914714,2.8914714 0 0 0 -1.8378198,0.8390225 2.8914714,2.8914714 0 0 0 0,4.0887058 2.8914714,2.8914714 0 0 0 3.7756838,0.271072 h 0.0016 l 1.187569,1.18922 0.584101,-0.584102 -1.189222,-1.189221 A 2.8914714,2.8914714 0 0 0 13.217292,7.6023459 2.8914714,2.8914714 0 0 0 10.966407,6.7633235 Z m 0.02743,0.8212935 a 2.0549274,2.0549274 0 0 1 1.632936,0.5953953 2.0549274,2.0549274 0 0 1 -0.0016,2.9060115 2.0549274,2.0549274 0 0 1 -2.9043597,0 2.0549274,2.0549274 0 0 1 -0.00165,-2.9060115 2.0549274,2.0549274 0 0 1 1.2747267,-0.5953953 z"
     fill="#363636"
     id="path1-2"
     style="display:none;stroke-width:0.963589;stroke-dasharray:none" />
  <g
     id="g5"
     transform="translate(6.2982476,-10.469717)"
     style="display:inline">
    <circle
       style="fill:none;stroke:#363636;stroke-width:1;stroke-linecap:round;stroke-linejoin:round;stroke-dasharray:none"
       id="path3"
       cx="6.3125596"
       cy="21.532572"
       r="2.8911436" />
  </g>
  <path
     style="display:inline;fill:none;stroke:#363636;stroke-width:1;stroke-linecap:round;stroke-linejoin:round;stroke-dasharray:none"
     d="M 14.239701,13.98693 15.113272,15.5"
     id="path4" />
</svg>
