<?xml version="1.0" encoding="UTF-8"?>
<svg width="16.016" height="16" xmlns="http://www.w3.org/2000/svg">
 <path d="M.535-.002A.5.5 0 0 0 .25.934s.78.439 1.602 1.554c.674.915 1.356 2.265 1.58 4.178h1.004c-.233-2.15-1.002-3.716-1.78-4.771C1.725.63.748.066.748.066a.5.5 0 0 0-.213-.068Zm2.899 9.336c-.222 1.92-.907 3.272-1.582 4.186-.822 1.11-1.6 1.544-1.6 1.544a.5.5 0 0 0-.26.44.5.5 0 0 0 .754.432s.978-.563 1.91-1.823c.78-1.054 1.55-2.622 1.781-4.779Z" color-rendering="auto" dominant-baseline="auto" fill="#363636" image-rendering="auto" opacity=".75" shape-rendering="auto" style="font-feature-settings:normal;font-variant-alternates:normal;font-variant-caps:normal;font-variant-ligatures:normal;font-variant-numeric:normal;font-variant-position:normal;isolation:auto;mix-blend-mode:normal;shape-padding:0;text-decoration-color:#000;text-decoration-line:none;text-decoration-style:solid;text-indent:0;text-orientation:mixed;text-transform:none;white-space:normal"/>
 <path d="M2.666 5.334c-.739 0-1.332.593-1.332 1.332v2.668c0 .739.593 1.332 1.332 1.332h2.668c.739 0 1.332-.593 1.332-1.332V6.666c0-.739-.593-1.332-1.332-1.332H2.666zm0 1.332h2.668v2.668H2.666V6.666z" fill="#363636" stroke-linecap="round" stroke-linejoin="round"/>
 <rect x="2.667" y="6.667" width="2.667" height="2.667" rx="0" ry="0" fill="#363636" opacity=".5" stroke-linecap="round" stroke-linejoin="round"/>
 <path d="M8 7.333h8v1.333H8z" fill="#363636" stroke-linecap="round" stroke-linejoin="round"/>
 <path d="m11.333 4h1.333v8h-1.333z" fill="#363636" stroke-linecap="round" stroke-linejoin="round"/>
</svg>
