<?xml version="1.0" encoding="UTF-8"?>
<svg id="svg1" width="16" height="16" version="1.1" xmlns="http://www.w3.org/2000/svg">
 <g id="snap-page" transform="translate(-979 -527.36)">
  <g id="snap-page-7" fill="#363636">
   <path id="rect8149" d="M983 527.362c-1.108 0-2 .892-2 2v12c0 1.108.892 2 2 2h8c1.108 0 2-.892 2-2v-1h-1v1c0 .554-.446 1-1 1h-8c-.554 0-1-.446-1-1v-12c0-.554.446-1 1-1h5v-1h-5z" stroke-linecap="round" stroke-linejoin="round"/>
   <path id="rect8154" d="M988 531.362c0 .554.446 1 1 1h4v-1h-4v-4h-1z" stroke-linecap="round" stroke-linejoin="round"/>
   <path id="path8171" d="m988.293 528.07 4 4 .707-.708-4-4z" style="-inkscape-stroke:none"/>
   <path id="rect8529" transform="scale(-1 1) rotate(-45)" d="m-1082.8-324.31h5v1h-5z" stroke-linecap="round" stroke-linejoin="round" stroke-width=".91287"/>
   <path id="rect8531" transform="rotate(135)" d="m-324.31-1082.8h5v1h-5z" stroke-linecap="round" stroke-linejoin="round" stroke-width=".91287"/>
   <path id="rect8533" transform="scale(-1 1)" d="m-994 535.86h7v1h-7z" stroke-linecap="round" stroke-linejoin="round"/>
  </g>
 </g>
 <style id="s2">@import "../../highlights.css";.success{fill:#009909}.warning{fill:#ff1990}.error{fill:#0af}</style>
</svg>
