<?xml version="1.0" encoding="UTF-8"?>
<svg width="16" height="16" xmlns="http://www.w3.org/2000/svg">
 <path d="M7 7v9h9V7Z" fill="#363636" opacity=".65" stroke-linecap="round" stroke-linejoin="round" stroke-width="1.2857"/>
 <path d="M10.898 5A5 5 0 0 1 11 6a5 5 0 0 1-.125 1.043A5 5 0 0 0 10.887 7H16V5Zm-.173 2.59a5 5 0 0 1-.03.08 5 5 0 0 0 .03-.08zM7.67 10.695a5 5 0 0 1-.08.03 5 5 0 0 0 .08-.03zm-.627.18A5 5 0 0 1 6 11a5 5 0 0 1-1-.113V16h2v-5.113a5 5 0 0 0 .043-.012Z" fill="#363636" opacity=".35" stroke-linecap="round" stroke-linejoin="round"/>
 <path d="M10.58 4a5 5 0 0 1 .318 1H16V4ZM4 10.576V16h1v-5.113a5 5 0 0 1-1-.31ZM6 12h1v1H6zm0 2h1v1H6zm6-8h1v1h-1zm2 0h1v1h-1z" fill="#363636" stroke-linecap="round" stroke-linejoin="round"/>
 <path d="M6 1a5 5 0 0 0-5 5 5 5 0 0 0 5 5 5 5 0 0 0 1-.113V7h3.887A5 5 0 0 0 11 6a5 5 0 0 0-5-5z" fill="#363636" opacity=".15" stroke-linecap="round" stroke-linejoin="round"/>
 <path d="M6 0a6 6 0 0 0-6 6 6 6 0 0 0 6 6 6 6 0 0 0 1-.092v-1.023A5 5 0 0 1 6 11a5 5 0 0 1-5-5 5 5 0 0 1 5-5 5 5 0 0 1 5 5 5 5 0 0 1-.115 1h1.023A6 6 0 0 0 12 6a6 6 0 0 0-6-6z" fill="#363636" stroke-linecap="round" stroke-linejoin="round" stroke-width="1.2"/>
</svg>
