<?xml version="1.0" encoding="UTF-8"?>
<svg width="16" height="16" xmlns="http://www.w3.org/2000/svg">
 <path transform="matrix(1 0 0 .99805 -859 -556.28)" d="M870.018 558.642c-4.605 1.26-8.572 4.436-9.752 9.741a1.5 1.5 0 0 1 .234-.021 1.5 1.5 0 0 1 .748.2c1.095-4.897 4.677-7.76 8.963-8.938a1.5 1.5 0 0 1-.211-.761 1.5 1.5 0 0 1 .018-.221z" fill="#363636" stroke-linecap="round"/>
 <path transform="matrix(1.5 0 0 1.4971 -1250.5 -71.86)" d="M842 48a1 1 0 0 0-1 1 1 1 0 0 0 1 1 1 1 0 0 0 1-1 1 1 0 0 0-1-1zm0 .668a.333.334 0 0 1 .333.334.333.334 0 0 1-.333.334.333.334 0 0 1-.333-.334.333.334 0 0 1 .333-.334z" fill="#363636"/>
 <path transform="matrix(1.5 0 0 1.4971 -1261.5 -60.881)" d="M842 48a1 1 0 0 0-1 1 1 1 0 0 0 1 1 1 1 0 0 0 1-1 1 1 0 0 0-1-1zm0 .682a.333.334 0 0 1 .333.334.333.334 0 0 1-.333.334.333.334 0 0 1-.333-.334.333.334 0 0 1 .333-.334z" fill="#363636"/>
 <path transform="matrix(1 0 0 .99805 -859 -556.28)" d="m866 564.36v4.844c0 1.72 2 3.156 4.469 4.187 2.531-1.03 4.5-2.195 4.5-4.125v-4.906zm1 2h3v2l-2-1zm4 0h3l-1 1-2 1zm-3 3h5c-2.475 4.49-5 0-5 0z" fill="#363636"/>
</svg>
