<?xml version="1.0" encoding="UTF-8"?>
<svg width="16" height="16" xmlns="http://www.w3.org/2000/svg">
 <path d="M0 7h1V6H0Zm2 0h1V6H2Zm2 0h1V6H4Zm8 0h1V6h-1zm2 0h1V6h-1zM0 1h1V0H0Zm2 0h1V0H2ZM0 5h1V4H0Zm0-2h1V2H0Zm4-2h1V0H4Zm2 0h1V0H6Zm2 0h1V0H8Zm2 0h1V0h-1zm2 0h1V0h-1zm2 0h1V0h-1zm0 2h1V2h-1zm0 2h1V4h-1z" fill="#363636"/>
 <path d="m7.5 4.999h1v7h-1z" fill="#363636" stroke-linecap="square" stroke-width="1.8708" style="paint-order:stroke fill markers"/>
 <path transform="rotate(45)" d="m9.849 2.535h5v1h-5z" fill="#363636" stroke-linecap="square" stroke-width="2" style="paint-order:stroke fill markers"/>
 <path transform="scale(-1 1) rotate(45)" d="m-1.465 13.849h5v1h-5z" fill="#363636" stroke-linecap="square" stroke-width="2" style="paint-order:stroke fill markers"/>
 <path d="M3 13.999h10v1H3zM3 3h10v1H3z" fill="#363636" stroke-linecap="square" stroke-width="1.6903" style="paint-order:stroke fill markers"/>
</svg>
