<?xml version="1.0" encoding="UTF-8"?>
<svg id="svg1" width="16" height="16" version="1.1" xmlns="http://www.w3.org/2000/svg">
 <style id="s0">.base{fill:#000}.success{fill:#009909}.warning{fill:#ff1990}.error{fill:#0af}</style>
 <g id="g0" fill="#363636" stroke-linecap="round" stroke-linejoin="round">
  <path id="path11103" d="m8 1a2 2 0 0 0-2 2 2 2 0 0 0 2 2 2 2 0 0 0 2-2 2 2 0 0 0-2-2zm0 1a1 1 0 0 1 1 1 1 1 0 0 1-1 1 1 1 0 0 1-1-1 1 1 0 0 1 1-1z"/>
  <path id="rect11108" d="m7.5 4h1v10h-1z" stroke-width=".95346"/>
  <path id="rect11110" d="M5 6h6v1H5z"/>
  <path id="path11112" d="M1 8a7 7 0 0 0 7 7 7 7 0 0 0 7-7h-1a6 6 0 0 1-6 6 6 6 0 0 1-6-6H1z"/>
  <path id="rect11120" transform="rotate(30)" d="m4.866 5.428h4v1h-4z"/>
  <path id="rect11122" transform="scale(-1 1) rotate(30)" d="m-8.99 13.428h4v1h-4z"/>
 </g>
</svg>
