<?xml version="1.0" encoding="UTF-8"?>
<svg width="16" height="16" xmlns="http://www.w3.org/2000/svg">
 <path transform="translate(-75 -215)" d="m75 215h1v16h-1z" fill="#363636"/>
 <path transform="translate(-75 -215)" d="M75 215h16v1H75Z" fill="#363636"/>
 <path transform="translate(-75 -215)" d="m90 215h1v16h-1z" fill="#363636"/>
 <path transform="translate(-75 -215)" d="M75 230h16v1H75Zm0-12h16v1H75Zm0 3h16v1H75Zm0 3h16v1H75Z" fill="#363636"/>
 <path transform="translate(-75 -727.36)" d="m75 739.36h16v1h-16z" fill="#363636"/>
 <path transform="translate(-75 -215)" d="m78 215h1v16h-1zm3 0h1v16h-1zm3 0h1v16h-1zm3 0h1v16h-1z" fill="#363636"/>
</svg>
