<?xml version="1.0" encoding="UTF-8"?>
<svg width="16" height="16" xmlns="http://www.w3.org/2000/svg">
 <path transform="scale(-1)" d="M-16-2h3.992v1.004H-16zm6 0h4v1h-4zm8-8h1v4h-1zm0-6h1v4h-1z" fill="#363636" fill-rule="evenodd" stroke-linecap="round" stroke-linejoin="round"/>
 <path d="M2.293 5.828a.998.998 0 0 0 1.414 0l2.121-2.12a.998.998 0 0 0 0-1.415L3.708.172a.998.998 0 0 0-1.415 0L.172 2.292a.998.998 0 0 0 0 1.415zM3 5.121.879 3 3 .879 5.121 3z" fill="#363636" fill-rule="evenodd" stroke-linecap="round" stroke-linejoin="round"/>
 <path transform="rotate(225)" d="m-5.743-1.5h3v3h-3z" fill="#363636" fill-rule="evenodd" opacity=".35" stroke-linecap="round" stroke-linejoin="round" stroke-width=".6"/>
 <path transform="scale(-1)" d="m-7-12h1v6h-1z" fill="#363636" fill-rule="evenodd" stroke-linecap="round" stroke-linejoin="round"/>
 <path transform="scale(-1)" d="m-12-7h6v1h-6z" fill="#363636" fill-rule="evenodd" stroke-linecap="round" stroke-linejoin="round"/>
</svg>
