<?xml version="1.0" encoding="UTF-8"?>
<svg width="16" height="16" xmlns="http://www.w3.org/2000/svg">
 <path d="M13 0v6.066a1.5 1.494 0 0 1 .5-.09 1.5 1.494 0 0 1 .5.087V0h-1zm0 8.875v7.063h1V8.875a1.5 1.494 0 0 1-.5.09 1.5 1.494 0 0 1-.5-.09z" fill="#363636" stroke-width=".99805"/>
 <path d="M13.5 4.98A2.5 2.49 0 0 0 11 7.47a2.5 2.49 0 0 0 2.5 2.49A2.5 2.49 0 0 0 16 7.47a2.5 2.49 0 0 0-2.5-2.49zm0 .997A1.5 1.494 0 0 1 15 7.47a1.5 1.494 0 0 1-1.5 1.494A1.5 1.494 0 0 1 12 7.47a1.5 1.494 0 0 1 1.5-1.494z" fill="#363636" stroke-width=".99805"/>
 <path transform="rotate(45)" d="m2.121-2.121h4v1h-4z" fill="#363636" fill-rule="evenodd" stroke-linecap="round" stroke-linejoin="round"/>
 <path transform="scale(-1 1) rotate(45)" d="m-2.121 2.121h4v1h-4z" fill="#363636" fill-rule="evenodd" stroke-linecap="round" stroke-linejoin="round"/>
 <path transform="rotate(135)" d="m-1.414-12.728h4v1h-4z" fill="#363636" fill-rule="evenodd" stroke-linecap="round" stroke-linejoin="round"/>
 <path transform="scale(-1 1) rotate(-45)" d="m-12.728-1.414h4v1h-4z" fill="#363636" fill-rule="evenodd" stroke-linecap="round" stroke-linejoin="round"/>
 <path transform="scale(1 -1) rotate(45)" d="m-9.192-13.435h4v1h-4z" fill="#363636" fill-rule="evenodd" stroke-linecap="round" stroke-linejoin="round"/>
 <path transform="rotate(225)" d="m-13.435-9.192h4v1h-4z" fill="#363636" fill-rule="evenodd" stroke-linecap="round" stroke-linejoin="round"/>
 <path d="m2.5 1h1v14h-1z" fill="#363636" fill-rule="evenodd" stroke-linecap="round" stroke-linejoin="round"/>
 <path d="M3 7.5h6v1H3z" fill="#363636" fill-rule="evenodd" stroke-linecap="round" stroke-linejoin="round"/>
 <path d="M15 7.47a1.5 1.494 0 0 1-1.5 1.495A1.5 1.494 0 0 1 12 7.47a1.5 1.494 0 0 1 1.5-1.495A1.5 1.494 0 0 1 15 7.471Z" fill="#363636" opacity=".35" stroke-width=".59883"/>
</svg>
