<?xml version="1.0" encoding="UTF-8"?>
<svg width="16" height="16" xmlns="http://www.w3.org/2000/svg">
 <path d="M4 0h1v16H4z" fill="#363636" fill-rule="evenodd" stroke-linecap="round" stroke-linejoin="round"/>
 <path d="M4 15h8v1H4zM8 0v1h2c.554 0 1 .446 1 1v2h1V2c0-1.108-.892-2-2-2H8z" fill="#363636" fill-rule="evenodd" stroke-linecap="round" stroke-linejoin="round"/>
 <rect x="4" width="4" height="1" rx="0" ry="0" fill="#363636" fill-rule="evenodd" stroke-linecap="round" stroke-linejoin="round"/>
 <path d="M11 4h1v12h-1zM5 2h2v1H5zM5 4h1v1H5zM5 6h1v1H5zM5 8h2v1H5zM5 10h1v1H5zM5 12h1v1H5z" fill="#363636" fill-rule="evenodd" stroke-linecap="round" stroke-linejoin="round"/>
</svg>
