<?xml version="1.0" encoding="UTF-8"?>
<svg width="16" height="16" version="1.1" xmlns="http://www.w3.org/2000/svg">
 <path d="m1.5 2.5h13l-3.5 6.5 2.5 5.5-10-2z" fill="#363636" opacity=".3"/>
 <path d="m1.5 2a0.50005 0.50005 0 0 0-0.4902 0.5977l2 10a0.50005 0.50005 0 0 0 0.3925 0.392l9.9997 2a0.50005 0.50005 0 0 0 0.553-0.697l-2.396-5.2735 3.38-6.2832a0.50005 0.50005 0 0 0-0.439-0.7363zm0.6094 1h11.555l-3.103 5.7637a0.50005 0.50005 0 0 0-0.016 0.4433l2.096 4.611-8.7152-1.744z" fill="#363636"/>
</svg>
