<?xml version="1.0" encoding="UTF-8"?>
<svg width="16" height="16" xmlns="http://www.w3.org/2000/svg">
 <path d="M2 1v1h7c2.77 0 5 2.23 5 5v1h1v-.994A5.993 5.993 0 0 0 8.994 1H2z" fill="#363636" fill-rule="evenodd" stroke-linecap="square"/>
 <path d="M2 12h2v1H2zM5 12h2v1H5zM9 12h5v1H9z" fill="#363636" fill-rule="evenodd"/>
 <path d="m12.172 9.672-0.707 0.707 2.12 2.121-2.12 2.121 0.707 0.707 2.828-2.828-0.707-0.707z" fill="#363636" fill-rule="evenodd"/>
 <path d="M2 5v1h6.043C9.127 6 10 6.873 10 7.957V8h1c0-1.662-1.338-3-3-3H2z" fill="#363636" fill-rule="evenodd" stroke-linecap="square"/>
</svg>
