<?xml version="1.0" encoding="UTF-8"?>
<svg width="16" height="16" xmlns="http://www.w3.org/2000/svg">
 <rect transform="rotate(-90)" x="-14" y="2" width="6" height="12" rx="0" ry="0" fill="#363636" opacity=".5" stroke-linecap="square" stroke-width="2" style="paint-order:stroke fill markers"/>
 <path d="M1 13c0 1.108.892 2 2 2h10c1.108 0 2-.892 2-2V3c0-1.108-.892-2-2-2H3c-1.108 0-2 .892-2 2Zm1 0V3c0-.554.446-1 1-1h10c.554 0 1 .446 1 1v10c0 .554-.446 1-1 1H3c-.554 0-1-.446-1-1Z" fill="#363636" stroke-linecap="square" stroke-width="2" style="paint-order:stroke fill markers"/>
</svg>
