<?xml version="1.0" encoding="UTF-8"?>
<svg id="svg2" width="64" height="64" version="1.1" xmlns="http://www.w3.org/2000/svg">
 <path id="rect2-7" d="m17.002 3.998c-7.2031 0-13.004 5.8008-13.004 13.004v29.996c0 7.2031 5.8008 13.004 13.004 13.004h29.996c7.2031 0 13.004-5.8008 13.004-13.004v-29.996c0-7.2031-5.8008-13.004-13.004-13.004h-29.996zm0.064453 3.7539h29.867c5.1602 0 9.3145 4.1542 9.3145 9.3145v29.867c0 5.1602-4.1542 9.3145-9.3145 9.3145h-29.867c-5.1602 0-9.3145-4.1542-9.3145-9.3145v-29.867c0-5.1602 4.1542-9.3145 9.3145-9.3145z" fill="#373737"/>
 <g id="g26" transform="rotate(90 32 32.024)" fill="#373737">
  <rect id="rect4" x="10.568" y="26.124" width="12.022" height="11.751" ry="2.1656" stroke-linecap="round" stroke-linejoin="bevel" stroke-width="2"/>
  <rect id="rect4-0" x="25.989" y="26.148" width="12.022" height="11.751" ry="2.1656" stroke-linecap="round" stroke-linejoin="bevel" stroke-width="2"/>
  <rect id="rect4-0-3-6" x="25.989" y="41.805" width="12.022" height="11.751" ry="2.1656" stroke-linecap="round" stroke-linejoin="bevel" stroke-width="2"/>
  <rect id="rect4-0-3-6-0-6-2-6" x="41.486" y="26.124" width="12.022" height="11.751" ry="2.1656" stroke-linecap="round" stroke-linejoin="bevel" stroke-width="2"/>
  <rect id="rect4-9" x="25.989" y="10.492" width="12.022" height="11.751" ry="2.1656" stroke-linecap="round" stroke-linejoin="bevel" stroke-width="2"/>
  <path id="rect2-5-9" d="m43.629 41.758c-1.1998 0-2.1641 0.96431-2.1641 2.1641v7.4219c0 1.1998 0.9643 2.1641 2.1641 2.1641h3.3086c3.4932 0 6.3251-2.7 6.5488-6.1348v-3.4512c0-1.1998-0.96626-2.1641-2.166-2.1641z"/>
  <path id="rect2-5-9-5" d="m12.68 41.805c-1.1998 0-2.166 0.96626-2.166 2.166v3.4023c0.22374 3.4347 3.0556 6.1348 6.5488 6.1348h3.7617c0.98061-0.20735 1.7109-1.0731 1.7109-2.1172v-7.4199c0-1.1998-0.9643-2.166-2.1641-2.166z"/>
  <path id="rect2-5-9-2" d="m17.062 10.492c-3.6403 0-6.5703 2.93-6.5703 6.5703v3.0156c0 1.1998 0.9643 2.1641 2.1641 2.1641h7.6914c1.1998 0 2.166-0.96431 2.166-2.1641v-7.4219c0-1.1998-0.96626-2.1641-2.166-2.1641z"/>
  <path id="rect2-5-9-7" d="m43.652 10.492c-1.1998 0-2.166 0.9643-2.166 2.1641v7.4219c0 1.1998 0.96626 2.1641 2.166 2.1641h7.6914c1.1998 0 2.1641-0.96431 2.1641-2.1641v-3.0156c0-3.6403-2.93-6.5703-6.5703-6.5703z"/>
 </g>
</svg>
