<?xml version="1.0" encoding="UTF-8" standalone="no"?>
<svg
   width="64"
   height="64"
   version="1.1"
   id="svg2"
   sodipodi:docname="view-app-grid-symbolic.svg"
   inkscape:version="1.3.2 (091e20ef0f, 2023-11-25)"
   xmlns:inkscape="http://www.inkscape.org/namespaces/inkscape"
   xmlns:sodipodi="http://sodipodi.sourceforge.net/DTD/sodipodi-0.dtd"
   xmlns="http://www.w3.org/2000/svg"
   xmlns:svg="http://www.w3.org/2000/svg">
  <sodipodi:namedview
     id="namedview2"
     pagecolor="#ffffff"
     bordercolor="#111111"
     borderopacity="1"
     inkscape:showpageshadow="0"
     inkscape:pageopacity="0"
     inkscape:pagecheckerboard="1"
     inkscape:deskcolor="#d1d1d1"
     inkscape:zoom="12.546875"
     inkscape:cx="32"
     inkscape:cy="32"
     inkscape:window-width="1920"
     inkscape:window-height="1011"
     inkscape:window-x="0"
     inkscape:window-y="0"
     inkscape:window-maximized="1"
     inkscape:current-layer="svg2" />
  <defs
     id="defs2">
    <linearGradient
       id="linearGradient1040"
       x1="7.9373"
       x2="7.9373"
       y1="15.081"
       y2="1.852"
       gradientTransform="matrix(3.7796,0,0,3.7796,-9.9945068e-4,0.03040051)"
       gradientUnits="userSpaceOnUse">
      <stop
         stop-color="#363636"
         offset="0"
         id="stop1" />
      <stop
         stop-color="#6c6c6c"
         offset="1"
         id="stop2" />
    </linearGradient>
  </defs>
  <path
     id="rect2-7"
     style="fill:#373737;fill-opacity:1"
     d="M 17.001953 3.9980469 C 9.7988524 3.9980469 3.9980469 9.7988524 3.9980469 17.001953 L 3.9980469 46.998047 C 3.9980469 54.201148 9.7988524 60.001953 17.001953 60.001953 L 46.998047 60.001953 C 54.201148 60.001953 60.001953 54.201148 60.001953 46.998047 L 60.001953 17.001953 C 60.001953 9.7988524 54.201148 3.9980469 46.998047 3.9980469 L 17.001953 3.9980469 z M 17.066406 7.7519531 L 46.933594 7.7519531 C 52.093836 7.7519531 56.248047 11.906164 56.248047 17.066406 L 56.248047 46.933594 C 56.248047 52.093836 52.093836 56.248047 46.933594 56.248047 L 17.066406 56.248047 C 11.906164 56.248047 7.7519531 52.093836 7.7519531 46.933594 L 7.7519531 17.066406 C 7.7519531 11.906164 11.906164 7.7519531 17.066406 7.7519531 z " />
  <g
     id="g26"
     transform="rotate(90,32.000332,32.023676)"
     style="fill:#373737;fill-opacity:1">
    <rect
       style="fill:#373737;stroke-width:2;stroke-linecap:round;stroke-linejoin:bevel;fill-opacity:1"
       id="rect4"
       width="12.02217"
       height="11.75131"
       x="10.567806"
       y="26.124344"
       ry="2.1656289" />
    <rect
       style="fill:#373737;stroke-width:2;stroke-linecap:round;stroke-linejoin:bevel;fill-opacity:1"
       id="rect4-0"
       width="12.02217"
       height="11.75131"
       x="25.988916"
       y="26.148022"
       ry="2.1656289" />
    <rect
       style="fill:#373737;stroke-width:2;stroke-linecap:round;stroke-linejoin:bevel;fill-opacity:1"
       id="rect4-0-3-6"
       width="12.02217"
       height="11.75131"
       x="25.988916"
       y="41.804512"
       ry="2.1656289" />
    <rect
       style="fill:#373737;stroke-width:2;stroke-linecap:round;stroke-linejoin:bevel;fill-opacity:1"
       id="rect4-0-3-6-0-6-2-6"
       width="12.02217"
       height="11.75131"
       x="41.486305"
       y="26.124348"
       ry="2.1656289" />
    <rect
       style="fill:#373737;stroke-width:2;stroke-linecap:round;stroke-linejoin:bevel;fill-opacity:1"
       id="rect4-9"
       width="12.02217"
       height="11.75131"
       x="25.988914"
       y="10.491529"
       ry="2.1656289" />
    <path
       id="rect2-5-9"
       style="display:inline;fill:#373737;fill-opacity:1"
       d="m 43.628906,41.757812 c -1.199757,0 -2.164062,0.964306 -2.164062,2.164063 v 7.421875 c 0,1.199757 0.964305,2.164062 2.164062,2.164062 H 46.9375 c 3.493239,0 6.325084,-2.700027 6.548828,-6.134765 v -3.451172 c 0,-1.199757 -0.966258,-2.164063 -2.166016,-2.164063 z" />
    <path
       id="rect2-5-9-5"
       style="display:inline;fill:#373737;fill-opacity:1"
       d="m 12.679688,41.804688 c -1.199758,0 -2.166016,0.966258 -2.166016,2.166015 v 3.402344 c 0.223744,3.434738 3.055589,6.134765 6.548828,6.134765 h 3.761719 c 0.980611,-0.207349 1.710937,-1.073052 1.710937,-2.117187 v -7.419922 c 0,-1.199757 -0.964305,-2.166015 -2.164062,-2.166015 z" />
    <path
       id="rect2-5-9-2"
       style="display:inline;fill:#373737;fill-opacity:1"
       d="m 17.0625,10.492188 c -3.640302,0 -6.570312,2.93001 -6.570312,6.570312 v 3.015625 c 0,1.199757 0.964305,2.164063 2.164062,2.164063 h 7.691406 c 1.199757,0 2.166016,-0.964306 2.166016,-2.164063 V 12.65625 c 0,-1.199757 -0.966259,-2.164062 -2.166016,-2.164062 z" />
    <path
       id="rect2-5-9-7"
       style="display:inline;fill:#373737;fill-opacity:1"
       d="m 43.652344,10.492188 c -1.199757,0 -2.166016,0.964305 -2.166016,2.164062 v 7.421875 c 0,1.199757 0.966259,2.164063 2.166016,2.164063 h 7.691406 c 1.199757,0 2.164062,-0.964306 2.164062,-2.164063 V 17.0625 c 0,-3.640302 -2.93001,-6.570312 -6.570312,-6.570312 z" />
  </g>
</svg>
