<?xml version="1.0" encoding="UTF-8" standalone="no"?>
<svg
   width="64"
   height="64"
   version="1.1"
   id="svg67"
   sodipodi:docname="view-app-grid-symbolic.svg"
   inkscape:version="1.3.2 (091e20ef0f, 2023-11-25)"
   xmlns:inkscape="http://www.inkscape.org/namespaces/inkscape"
   xmlns:sodipodi="http://sodipodi.sourceforge.net/DTD/sodipodi-0.dtd"
   xmlns="http://www.w3.org/2000/svg"
   xmlns:svg="http://www.w3.org/2000/svg">
  <sodipodi:namedview
     id="namedview67"
     pagecolor="#ffffff"
     bordercolor="#111111"
     borderopacity="1"
     inkscape:showpageshadow="0"
     inkscape:pageopacity="0"
     inkscape:pagecheckerboard="1"
     inkscape:deskcolor="#d1d1d1"
     inkscape:zoom="12.546875"
     inkscape:cx="32"
     inkscape:cy="32"
     inkscape:window-width="1920"
     inkscape:window-height="1011"
     inkscape:window-x="0"
     inkscape:window-y="0"
     inkscape:window-maximized="1"
     inkscape:current-layer="svg67" />
  <defs
     id="defs41">
    <linearGradient
       id="linearGradient1372"
       x1="34.705"
       x2="34.705"
       y1="-30.727"
       y2="-38.74"
       gradientTransform="translate(.515 15.046) scale(.26484)"
       gradientUnits="userSpaceOnUse">
      <stop
         offset="0"
         stop-color="#efb63f"
         id="stop1" />
      <stop
         offset="1"
         stop-color="#f8d650"
         id="stop2" />
    </linearGradient>
    <linearGradient
       id="linearGradient1380"
       x1="32.125"
       x2="32.125"
       y1="-29.828"
       y2="-39.838"
       gradientTransform="translate(.515 15.046) scale(.26484)"
       gradientUnits="userSpaceOnUse">
      <stop
         offset="0"
         stop-color="#a88a47"
         id="stop3" />
      <stop
         offset="1"
         stop-color="#d7cfa7"
         id="stop4" />
    </linearGradient>
    <linearGradient
       id="linearGradient1384"
       x1="34.705"
       x2="34.705"
       y1="-30.727"
       y2="-38.74"
       gradientTransform="translate(-3.276 15.046) scale(.26484)"
       gradientUnits="userSpaceOnUse">
      <stop
         offset="0"
         stop-color="#68d848"
         id="stop5" />
      <stop
         offset="1"
         stop-color="#99f27b"
         id="stop6" />
    </linearGradient>
    <linearGradient
       id="linearGradient1386"
       x1="32.125"
       x2="32.125"
       y1="-29.828"
       y2="-39.838"
       gradientTransform="translate(-3.276 15.046) scale(.26484)"
       gradientUnits="userSpaceOnUse">
      <stop
         offset="0"
         stop-color="#5a9555"
         id="stop7" />
      <stop
         offset="1"
         stop-color="#ccf4bd"
         id="stop8" />
    </linearGradient>
    <linearGradient
       id="linearGradient1402"
       x1="34.705"
       x2="34.705"
       y1="-30.727"
       y2="-38.74"
       gradientTransform="translate(4.198 15.046) scale(.26484)"
       gradientUnits="userSpaceOnUse">
      <stop
         offset="0"
         stop-color="#e07f3e"
         id="stop9" />
      <stop
         offset="1"
         stop-color="#f1a73e"
         id="stop10" />
    </linearGradient>
    <linearGradient
       id="linearGradient1404"
       x1="32.125"
       x2="32.125"
       y1="-29.828"
       y2="-39.838"
       gradientTransform="translate(4.198 15.046) scale(.26484)"
       gradientUnits="userSpaceOnUse">
      <stop
         offset="0"
         stop-color="#ae714f"
         id="stop11" />
      <stop
         offset="1"
         stop-color="#ffdc8f"
         id="stop12" />
    </linearGradient>
    <linearGradient
       id="linearGradient1514"
       x1="34.705"
       x2="34.705"
       y1="-30.727"
       y2="-38.74"
       gradientTransform="translate(-3.276 18.745) scale(.26484)"
       gradientUnits="userSpaceOnUse">
      <stop
         offset="0"
         stop-color="#b9281b"
         id="stop13" />
      <stop
         offset="1"
         stop-color="#e54e3b"
         id="stop14" />
    </linearGradient>
    <linearGradient
       id="linearGradient1516"
       x1="32.125"
       x2="32.125"
       y1="-29.828"
       y2="-39.838"
       gradientTransform="translate(-3.276 18.745) scale(.26484)"
       gradientUnits="userSpaceOnUse">
      <stop
         offset="0"
         stop-color="#84281e"
         id="stop15" />
      <stop
         offset="1"
         stop-color="#df8881"
         id="stop16" />
    </linearGradient>
    <linearGradient
       id="linearGradient1560"
       x1="34.705"
       x2="34.705"
       y1="-30.727"
       y2="-38.74"
       gradientTransform="translate(.515 18.745) scale(.26484)"
       gradientUnits="userSpaceOnUse">
      <stop
         offset="0"
         stop-color="#878887"
         id="stop17" />
      <stop
         offset="1"
         stop-color="#d8e3e9"
         id="stop18" />
    </linearGradient>
    <linearGradient
       id="linearGradient1562"
       x1="32.125"
       x2="32.125"
       y1="-29.828"
       y2="-39.838"
       gradientTransform="translate(.515 18.745) scale(.26484)"
       gradientUnits="userSpaceOnUse">
      <stop
         offset="0"
         stop-color="#6c6c6a"
         id="stop19" />
      <stop
         offset="1"
         stop-color="#e3ebef"
         id="stop20" />
    </linearGradient>
    <linearGradient
       id="linearGradient1590"
       x1="34.705"
       x2="34.705"
       y1="-30.727"
       y2="-38.74"
       gradientTransform="translate(4.198 18.745) scale(.26484)"
       gradientUnits="userSpaceOnUse">
      <stop
         offset="0"
         stop-color="#e76872"
         id="stop21" />
      <stop
         offset="1"
         stop-color="#ea4f66"
         id="stop22" />
    </linearGradient>
    <linearGradient
       id="linearGradient1592"
       x1="32.125"
       x2="32.125"
       y1="-29.828"
       y2="-39.838"
       gradientTransform="translate(4.198 18.745) scale(.26484)"
       gradientUnits="userSpaceOnUse">
      <stop
         offset="0"
         stop-color="#ab5863"
         id="stop23" />
      <stop
         offset="1"
         stop-color="#d7798a"
         id="stop24" />
    </linearGradient>
    <linearGradient
       id="linearGradient1620"
       x1="34.705"
       x2="34.705"
       y1="-30.727"
       y2="-38.74"
       gradientTransform="translate(-3.276 22.445) scale(.26484)"
       gradientUnits="userSpaceOnUse">
      <stop
         offset="0"
         stop-color="#783bb3"
         id="stop25" />
      <stop
         offset="1"
         stop-color="#b76de6"
         id="stop26" />
    </linearGradient>
    <linearGradient
       id="linearGradient1622"
       x1="32.125"
       x2="32.125"
       y1="-29.828"
       y2="-39.838"
       gradientTransform="translate(-3.276 22.445) scale(.26484)"
       gradientUnits="userSpaceOnUse">
      <stop
         offset="0"
         stop-color="#4b2677"
         id="stop27" />
      <stop
         offset=".946"
         stop-color="#b481d5"
         id="stop28" />
      <stop
         offset="1"
         stop-color="#ddc9ec"
         id="stop29" />
    </linearGradient>
    <linearGradient
       id="linearGradient1653"
       x1="34.705"
       x2="34.705"
       y1="-30.727"
       y2="-38.74"
       gradientTransform="translate(.515 22.445) scale(.26484)"
       gradientUnits="userSpaceOnUse">
      <stop
         offset="0"
         stop-color="#3468e0"
         id="stop30" />
      <stop
         offset="1"
         stop-color="#61dafc"
         id="stop31" />
    </linearGradient>
    <linearGradient
       id="linearGradient1655"
       x1="32.125"
       x2="32.125"
       y1="-29.828"
       y2="-39.838"
       gradientTransform="translate(.515 22.445) scale(.26484)"
       gradientUnits="userSpaceOnUse">
      <stop
         offset="0"
         stop-color="#29438e"
         id="stop32" />
      <stop
         offset=".946"
         stop-color="#90dcec"
         id="stop33" />
      <stop
         offset="1"
         stop-color="#abe2eb"
         id="stop34" />
    </linearGradient>
    <linearGradient
       id="linearGradient1685"
       x1="34.705"
       x2="34.705"
       y1="-30.727"
       y2="-38.74"
       gradientTransform="translate(4.198 22.445) scale(.26484)"
       gradientUnits="userSpaceOnUse">
      <stop
         offset="0"
         stop-color="#5bc18f"
         id="stop35" />
      <stop
         offset="1"
         stop-color="#84e4dd"
         id="stop36" />
    </linearGradient>
    <linearGradient
       id="linearGradient1687"
       x1="32.125"
       x2="32.125"
       y1="-29.828"
       y2="-39.838"
       gradientTransform="translate(4.198 22.445) scale(.26484)"
       gradientUnits="userSpaceOnUse">
      <stop
         offset="0"
         stop-color="#3f8264"
         id="stop37" />
      <stop
         offset=".946"
         stop-color="#a2e1e0"
         id="stop38" />
      <stop
         offset="1"
         stop-color="#b8e4e2"
         id="stop39" />
    </linearGradient>
    <linearGradient
       id="linearGradient862-3-3"
       x1="7.937"
       x2="7.937"
       y1="15.081"
       y2="1.852"
       gradientTransform="scale(3.7796)"
       gradientUnits="userSpaceOnUse">
      <stop
         offset="0"
         stop-color="#f1efeb"
         id="stop40" />
      <stop
         offset="1"
         stop-color="#fdfcfc"
         id="stop41" />
    </linearGradient>
    <filter
       id="filter1766"
       width="1.8861493"
       height="1.9285604"
       x="-0.44307463"
       y="-0.46428018"
       color-interpolation-filters="sRGB">
      <feGaussianBlur
         stdDeviation=".453"
         id="feGaussianBlur41" />
    </filter>
  </defs>
  <path
     id="rect41"
     style="display:inline;fill:#353535;fill-opacity:1"
     d="M 17.205078 3.9980469 C 10.001977 3.9980469 4.203125 9.7988524 4.203125 17.001953 L 4.203125 46.998047 C 4.203125 54.201148 10.001977 60.001953 17.205078 60.001953 L 47.203125 60.001953 C 54.406226 60.001953 60.205078 54.201148 60.205078 46.998047 L 60.205078 17.001953 C 60.205078 9.7988524 54.406226 3.9980469 47.203125 3.9980469 L 17.205078 3.9980469 z M 16.316406 7.7460938 L 47.683594 7.7460938 C 52.317573 7.7460938 56.048828 11.477349 56.048828 16.111328 L 56.048828 47.478516 C 56.048828 52.112495 52.317573 55.84375 47.683594 55.84375 L 16.316406 55.84375 C 11.682427 55.84375 7.9511719 52.112495 7.9511719 47.478516 L 7.9511719 16.111328 C 7.9511719 11.477349 11.682427 7.7460938 16.316406 7.7460938 z " />
  <path
     id="path50"
     style="display:inline;font-variant-ligatures:normal;font-variant-position:normal;font-variant-caps:normal;font-variant-numeric:normal;font-variant-alternates:normal;font-variant-east-asian:normal;font-feature-settings:normal;font-variation-settings:normal;text-indent:0;text-decoration-line:none;text-decoration-style:solid;text-decoration-color:#000000;text-transform:none;text-orientation:mixed;white-space:normal;shape-padding:0;shape-margin:0;inline-size:0;isolation:auto;mix-blend-mode:normal;fill:#363636;fill-opacity:1"
     d="M 4.8239025,4.4398754 A 0.49,0.49 0 0 0 4.3360863,4.9297586 v 1.8060567 c 0,0.2679997 0.2198165,0.4862659 0.4878162,0.4862659 H 6.7498462 A 0.488,0.488 0 0 0 7.2392126,6.7358153 V 4.9292419 A 0.49,0.49 0 0 0 6.7498462,4.4409089 Z m 3.7898769,0 A 0.49,0.49 0 0 0 8.1259632,4.9297586 v 1.8060567 c 0,0.2679997 0.2198165,0.4862659 0.4878162,0.4862659 H 10.543857 A 0.488,0.488 0 0 0 11.03219,6.7358153 V 4.9292419 a 0.49,0.49 0 0 0 -0.488333,-0.488333 z m 3.6823916,0 a 0.488,0.488 0 0 0 -0.486266,0.4898832 v 1.8060567 c 0,0.2679997 0.218267,0.4862659 0.486266,0.4862659 h 1.930078 A 0.488,0.488 0 0 0 14.714065,6.7358153 V 4.9292419 A 0.49,0.49 0 0 0 14.226249,4.4409089 Z M 4.8239025,8.1419041 A 0.49,0.49 0 0 0 4.3360863,8.630237 v 1.804506 c 0,0.268 0.2198165,0.488333 0.4878162,0.488333 H 6.7498462 A 0.49,0.49 0 0 0 7.2392126,10.434743 V 8.630237 A 0.49,0.49 0 0 0 6.7498462,8.1419041 Z m 3.7898769,0 A 0.49,0.49 0 0 0 8.1259632,8.630237 v 1.804506 c 0,0.268 0.2198165,0.488333 0.4878162,0.488333 H 10.543857 A 0.49,0.49 0 0 0 11.03219,10.434743 V 8.630237 A 0.49,0.49 0 0 0 10.543857,8.1419041 Z m 3.6823916,0 A 0.488,0.488 0 0 0 11.809905,8.630237 v 1.804506 c 0,0.268 0.218267,0.488333 0.486266,0.488333 h 1.930078 a 0.49,0.49 0 0 0 0.487816,-0.488333 V 8.630237 A 0.49,0.49 0 0 0 14.226249,8.1419041 Z M 4.8239025,11.842899 a 0.488,0.488 0 0 0 -0.4878162,0.486266 v 1.80709 c 0,0.268 0.2198165,0.487816 0.4878162,0.487816 h 1.9259437 a 0.49,0.49 0 0 0 0.4893664,-0.487816 v -1.80709 A 0.488,0.488 0 0 0 6.7498462,11.842899 Z m 3.7898769,0 a 0.488,0.488 0 0 0 -0.4878162,0.486266 v 1.80709 c 0,0.268 0.2198165,0.487816 0.4878162,0.487816 h 1.9300776 a 0.49,0.49 0 0 0 0.488333,-0.487816 v -1.80709 a 0.488,0.488 0 0 0 -0.488333,-0.486266 z m 3.6823916,0 a 0.487,0.487 0 0 0 -0.486266,0.486266 v 1.80709 c 0,0.268 0.218267,0.487816 0.486266,0.487816 h 1.930078 a 0.49,0.49 0 0 0 0.487816,-0.487816 v -1.80709 a 0.488,0.488 0 0 0 -0.487816,-0.486266 z"
     transform="matrix(3.7796,0,0,3.7796,-4,-4.029)" />
  <style
     id="style67">.B{clip-path:url(#C)}.C{fill:#3e2723}.D{fill-opacity:.15}.E{fill-opacity:.2}</style>
</svg>
