<?xml version="1.0" encoding="UTF-8"?>
<svg width="16" height="16" xmlns="http://www.w3.org/2000/svg">
 <path d="M2 0C.892 0 0 .892 0 2v12c0 1.108.892 2 2 2h12c1.108 0 2-.892 2-2V2c0-1.108-.892-2-2-2Zm0 1h12c.554 0 1 .446 1 1v12c0 .554-.446 1-1 1H2c-.554 0-1-.446-1-1V2c0-.554.446-1 1-1Z" fill="#363636" fill-rule="evenodd"/>
 <rect x="2" y="2" width="12" height="1" rx="0" ry="0" fill="#363636" fill-rule="evenodd"/>
 <path transform="scale(-1 1)" d="m-6 6h1v6h-1z" fill="#363636" fill-rule="evenodd"/>
 <path transform="scale(-1 1) rotate(45)" d="m-3.586 11.314h5v1h-5z" fill="#363636" fill-rule="evenodd"/>
 <path transform="rotate(225)" d="m-16.314-1.414h5v1h-5z" fill="#363636" fill-rule="evenodd"/>
</svg>
