<?xml version="1.0" encoding="UTF-8"?>
<svg id="svg1" width="16" height="16" version="1.1" viewBox="0 0 16 16" xmlns="http://www.w3.org/2000/svg">
 <defs id="defs1">
  <style id="current-color-scheme" type="text/css">.ColorScheme-Text { color:#dedede; } .ColorScheme-Text { color:#dedede; }</style>
 </defs>
 <path id="path6" d="m1.9238 1.4863c-1.0683 0-1.9434 0.87656-1.9434 1.9453v5.084 4.0332c0 0.20046 0.030847 0.39378 0.087891 0.57617 0.01901 0.060789 0.041725 0.11962 0.066406 0.17773 2.3558e-4 5.56e-4 -2.3608e-4 0.001398 0 0.001954 0.024502 0.057549 0.052291 0.11337 0.082031 0.16797 0.33002 0.60709 0.97209 1.0215 1.707 1.0215h12.152c0.80091 0 1.4926-0.4929 1.7891-1.1895 2.36e-4 -5.56e-4 -2.35e-4 -0.001398 0-0.001954 0.024675-0.058117 0.047403-0.11694 0.066407-0.17773 0.057024-0.18239 0.08789-0.37571 0.08789-0.57617v-5.1895-1.9102c0-1.2281-1.0034-2.2363-2.2305-2.2363h-6.6562c-0.16632 0-0.3174-0.092368-0.39258-0.24219l-0.2168-0.43164c-0.32366-0.6435-0.9847-1.0527-1.7051-1.0527h-2.8945zm0 1h2.8945c0.34387 0 0.65518 0.19306 0.81055 0.50195l0.21875 0.43164c0.24342 0.48511 0.74198 0.79297 1.2852 0.79297h6.6562c0.68563 0 1.2305 0.54721 1.2305 1.2363v0.21094c-0.28-0.15745-0.60128-0.24805-0.94336-0.24805h-5.791c-0.53083 0-1.0167 0.21626-1.3672 0.56445v-0.0019531c-0.31683 0.31411-0.71937 0.59375-0.89648 0.59375h-4.0977c-0.34196 0-0.66337 0.0906-0.94336 0.24805v-3.3848c0-0.53326 0.41307-0.94531 0.94336-0.94531zm6.3613 3.9258h5.791c0.53105 0 0.94336 0.414 0.94336 0.94727v5.1895c0 0.066752-0.007226 0.13101-0.019531 0.19336-0.012305 0.062353-0.029268 0.12286-0.052734 0.17969-0.023467 0.056827-0.052454 0.10998-0.085938 0.16016-0.066987 0.10036-0.15373 0.18687-0.25391 0.25391-0.050089 0.033517-0.10349 0.062456-0.16016 0.085937-0.056672 0.023452-0.11562 0.040445-0.17774 0.052734-0.062113 0.01229-0.12695 0.019532-0.19336 0.019532h-12.152c-0.066316 0-0.1313-0.007242-0.19336-0.019532-0.062062-0.012289-0.12108-0.029283-0.17773-0.052734s-0.11006-0.052451-0.16016-0.085937c-0.050096-0.033518-0.096284-0.072817-0.13867-0.11524-0.042388-0.042418-0.08171-0.08849-0.11523-0.13867-0.033515-0.050174-0.062441-0.10333-0.085938-0.16016-0.023496-0.056828-0.04041-0.11733-0.052734-0.17969-0.012325-0.062354-0.019531-0.12661-0.019531-0.19336v-4.0332c0-0.53326 0.41307-0.94727 0.94336-0.94727h4.0977c0.76285 0 1.2589-0.54505 1.5996-0.88281 0.17035-0.16924 0.40066-0.27344 0.66406-0.27344z" color="#000000" fill="#dedede" style="-inkscape-stroke:none"/>
</svg>
