<?xml version="1.0" encoding="UTF-8"?>
<svg id="svg1" width="16" height="16" version="1.1" viewBox="0 0 16 16" xmlns="http://www.w3.org/2000/svg">
 <defs id="defs1">
  <style id="current-color-scheme" type="text/css">.ColorScheme-Text { color:#dedede; } .ColorScheme-Text { color:#dedede; }</style>
 </defs>
 <path id="path6" d="m1.9238 0.76953c-1.0683 0-1.9434 0.87851-1.9434 1.9473v9.1152c0 0.20046 0.030847 0.39378 0.087891 0.57617 0.01901 0.060789 0.041725 0.11962 0.066406 0.17774v0.001953c0.024502 0.057549 0.052291 0.11337 0.082031 0.16797v0.001953c0.33027 0.60625 0.97271 1.0195 1.707 1.0195h5.5762v1.2148h-6.9844a0.50732 0.50732 0 0 0-0.50781 0.50781 0.50732 0.50732 0 0 0 0.50781 0.50781h14.969a0.50732 0.50732 0 0 0 0.50781-0.50781 0.50732 0.50732 0 0 0-0.50781-0.50781h-6.9844v-1.2148h5.5762c0.73415 0 1.3767-0.41604 1.707-1.0215 0.029732-0.054598 0.057536-0.11042 0.082031-0.16797v-0.001953c0.024675-0.058118 0.047403-0.11695 0.066407-0.17774 0.057024-0.18239 0.08789-0.37571 0.08789-0.57617v-5.1895-1.9102c0-1.2281-1.0034-2.2344-2.2305-2.2344h-6.6562c-0.16632 0-0.3174-0.092368-0.39258-0.24219v-0.0019532l-0.2168-0.43164c-0.32366-0.6435-0.9847-1.0527-1.7051-1.0527h-2.8945zm0 1h2.8945c0.34387 0 0.65518 0.19306 0.81055 0.50195l0.21875 0.43164c0.24342 0.48511 0.74198 0.79492 1.2852 0.79492h6.6562c0.68563 0 1.2305 0.54526 1.2305 1.2344v0.21094c-0.28-0.15745-0.60128-0.24805-0.94336-0.24805h-5.791c-0.53083 0-1.0167 0.21626-1.3672 0.56445-0.31683 0.31411-0.71937 0.59375-0.89648 0.59375h-4.0977c-0.34196 0-0.66337 0.090872-0.94336 0.24805v-3.3848c0-0.53326 0.41307-0.94727 0.94336-0.94727zm6.3613 3.9258h5.791c0.53105 0 0.94336 0.414 0.94336 0.94727v5.1895c0 0.20026-0.057751 0.38268-0.1582 0.5332-0.10048 0.15055-0.24406 0.2694-0.41406 0.33984-0.11334 0.046903-0.23827 0.072266-0.37109 0.072266h-12.152c-0.19895 0-0.38097-0.057744-0.53125-0.1582-0.10019-0.067035-0.18686-0.15354-0.25391-0.25391-0.10054-0.15052-0.1582-0.33295-0.1582-0.5332v-4.0332c0-0.53326 0.41307-0.94531 0.94336-0.94531h4.0977c0.76285 0 1.2589-0.547 1.5996-0.88477 0.17035-0.16924 0.40066-0.27344 0.66406-0.27344z" color="#000000" fill="#dedede" style="-inkscape-stroke:none"/>
</svg>
