<?xml version="1.0" encoding="UTF-8" standalone="no"?>
<svg
   width="16"
   height="16"
   version="1.1"
   id="svg1"
   sodipodi:docname="gimp-symbolic.svg"
   inkscape:version="1.3 (0e150ed6c4, 2023-07-21)"
   xmlns:inkscape="http://www.inkscape.org/namespaces/inkscape"
   xmlns:sodipodi="http://sodipodi.sourceforge.net/DTD/sodipodi-0.dtd"
   xmlns="http://www.w3.org/2000/svg"
   xmlns:svg="http://www.w3.org/2000/svg">
  <defs
     id="defs1" />
  <sodipodi:namedview
     id="namedview1"
     pagecolor="#ffffff"
     bordercolor="#111111"
     borderopacity="1"
     inkscape:showpageshadow="0"
     inkscape:pageopacity="0"
     inkscape:pagecheckerboard="1"
     inkscape:deskcolor="#d1d1d1"
     inkscape:zoom="36.1875"
     inkscape:cx="-0.17962003"
     inkscape:cy="6.8255613"
     inkscape:window-width="2560"
     inkscape:window-height="1364"
     inkscape:window-x="0"
     inkscape:window-y="0"
     inkscape:window-maximized="1"
     inkscape:current-layer="svg1" />
  <g
     id="g2"
     transform="matrix(6.1940605e-4,0,0,6.1940605e-4,0.25756446,2.2501602)"
     style="fill:#363636;fill-opacity:1;stroke:#363636;stroke-opacity:1">
    <path
       d="m 20295.088,656.13086 -0.09,0.10937 -499.881,333.25 -1266.398,1732.90037 -2666,1932.8985 -2366.102,533.2109 466.561,766.4902 399.9,1732.9004 -766.48,1399.6992 c 0,0 -933.11,733.1607 -1099.7,833.1407 -166.63,99.9755 -1799.6,-99.9782 -1999.5,-199.9512 -199.9,-99.973 -933.1109,-1066.3984 -933.1109,-1066.3984 l -366.5782,-1666.3008 633.1797,-1399.6992 -466.5605,-266.6016 -633.1797,-99.9746 -166.6309,366.5801 566.5313,733.1601 -66.6524,566.5293 V 8254.373 l -933.1113,933.1114 -1366.2988,99.9765 -1066.4004,-433.2304 -66.6504,166.6308 166.6309,1399.6997 -533.211,1299.701 -799.8086,533.209 1133.0996,1066.4 2466.0996,966.44 2366.1,666.509 2899.3,199.951 3199.2,-733.16 149.961,-133.3 -2649.401,-1782.901 949.78,-949.779 c 0,0 1482.999,299.929 3182.599,1099.699 1699.6,799.77 2399.401,-8464.6991 2399.401,-8464.6991 z M 5420,2810.8398 l -0.065,0.02 0.065,0.053 z m 0,0.072 -23.5645,2874.8281 1060.4004,-683.3711 1131.0996,-117.8183 -801.1992,-942.5899 z m 8688.119,7506.0372 c 775.3,235.6 1818.391,665.991 1968.301,1452.401 -224.05,-142.86 -644.97,-338.205 -1199.6,-262.08 -726.29,99.66 -851.197,817.51 -871.939,1014.9 -970.9,443.03 -3498.702,110.391 -5054.6017,-403.279 3446.1997,147.6 4217.4017,24.599 5885.1017,-1024.901 L 14108,10317 Z"
       id="path4"
       style="fill:#363636;fill-opacity:1;stroke:#363636;stroke-opacity:1" />
    <path
       d="M 11694,4497.6 A 2843.4,2843.4 0 0 0 8850.6,7341 2843.4,2843.4 0 0 0 11694,10184.4 2843.4,2843.4 0 0 0 14537.4,7341 2843.4,2843.4 0 0 0 11694,4497.6 Z m 0,529.02 A 2314.4,2314.4 0 0 1 14008.4,7341.02 2314.4,2314.4 0 0 1 11694,9655.42 2314.4,2314.4 0 0 1 9379.6,7341.02 2314.4,2314.4 0 0 1 11694,5026.62 Z"
       style="paint-order:markers fill stroke;fill:#363636;fill-opacity:1;stroke:#363636;stroke-opacity:1"
       id="path6" />
    <path
       d="m 7098.4,4662.9 a 2479.7,2479.7 0 0 0 -2479.7,2479.7 2479.7,2479.7 0 0 0 2479.7,2479.7 2479.7,2479.7 0 0 0 2030.9,-1062 2843.4,2843.4 0 0 1 -225.9,-680.78 1950.7,1950.7 0 0 1 -1805,1213.8 1950.7,1950.7 0 0 1 -1950.7,-1950.7 1950.7,1950.7 0 0 1 1950.7,-1950.7 1950.7,1950.7 0 0 1 1861.1,1373 2843.4,2843.4 0 0 1 284.83,-660.53 2479.7,2479.7 0 0 0 -2145.9,-1241.5 z"
       style="paint-order:markers fill stroke;fill:#363636;fill-opacity:1;stroke:#363636;stroke-opacity:1"
       id="path8" />
    <path
       d="m 7610.9,6150.8 a 1330.8,1330.8 0 0 0 -553.68,122.4 743.91,743.91 0 0 1 181.75,-23.216 743.91,743.91 0 0 1 743.9,743.9 743.91,743.91 0 0 1 -743.9,743.9 743.91,743.91 0 0 1 -743.95,-743.9 743.91,743.91 0 0 1 101.04,-372.86 1330.8,1330.8 0 0 0 -315.92,860.54 1330.8,1330.8 0 0 0 1330.8,1330.8 1330.8,1330.8 0 0 0 1330.8,-1330.8 1330.8,1330.8 0 0 0 -1330.8,-1330.8 z"
       style="paint-order:markers fill stroke;fill:#363636;fill-opacity:1;stroke:#363636;stroke-opacity:1"
       id="path10" />
    <path
       d="m 12273,6233.4 a 1520.9,1520.9 0 0 0 -685.99,163.7 867.9,867.9 0 0 1 231.36,-31.478 867.9,867.9 0 0 1 867.91,867.91 867.9,867.9 0 0 1 -867.91,867.91 867.9,867.9 0 0 1 -867.91,-867.91 867.9,867.9 0 0 1 70.709,-342.49 1520.9,1520.9 0 0 0 -269.07,863.25 1520.9,1520.9 0 0 0 1520.9,1520.9 1520.9,1520.9 0 0 0 1520.9,-1520.9 1520.9,1520.9 0 0 0 -1520.9,-1520.9 z"
       style="paint-order:markers fill stroke;fill:#363636;fill-opacity:1;stroke:#363636;stroke-opacity:1"
       id="path12" />
    <path
       d="m 2100.6,6033.5 a 3615.5,2625.8 50.92 0 0 -557.88,71.514 3615.5,2625.8 50.92 0 0 -1141,3866.4 3615.5,2625.8 50.92 0 0 4171.1,2507 3615.5,2625.8 50.92 0 0 1141,-3866.4 3615.5,2625.8 50.92 0 0 -99.306,-189.97 1963.8,1963.8 0 0 1 -324.78,-525.93 3615.5,2625.8 50.92 0 0 -3189.1,-1862.6 z m 155.4,528.98 a 3028.5,2199.5 50.92 0 1 3026.6,2159.9 3028.5,2199.5 50.92 0 1 -955.78,3238.7 3028.5,2199.5 50.92 0 1 -3493.9,-2100 3028.5,2199.5 50.92 0 1 955.78,-3238.7 3028.5,2199.5 50.92 0 1 467.3,-59.905 z"
       style="paint-order:markers fill stroke;fill:#363636;fill-opacity:1;stroke:#363636;stroke-opacity:1"
       id="path14" />
    <path
       d="m 19966,0.082146 c -6.165,-0.174 -12.36,-0.07 -18.599,0.297 -156.26,9.092 -335.84,189.290004 -529.24,675.270004 -1073.8,2698.29995 -4133.2,4051.59995 -7071.9,4407.49995 325.2,92.161 626.56,253.74 883.29,473.61 2491.2,-454.57 5301,-1692.1 6742.3,-4375.5 197.16,-367.08995 187.05,1566.4 187.05,1566.4 0,0 607.82,6686.4 -2057.4,9865.8999 -447.82,534.24 -1098.8,1042.9 -1874.5,1493 -5756.6,2493.8 -11270,-1731.9 -11270,-1731.9 0,0 -33.008,-21.045 -36.265,-23.132 -110.36,52.085 -226.53,94.48 -347.7,126.89 -73.733,18.228 -149.15,32.787 -226.06,43.637 17.887,12.926 32.707,23.754 50.797,36.817 4.8979,5.794 9.9058,11.261 15.04,16.395 150.93,87.138 656.84,447.77 656.84,447.77 3512.4,2319.3 7533.2,2860.3 11055,1724 1468,-473.61 2734.7,-1959.4 3293.4,-3250.7 1896.1,-4576.7999 1111.5,-10460.9999 1111.5,-10460.9999 63.077,35.554 -175.31,-1024.199954 -563.68,-1035.199954 z M 5197,1329.4821 l -163.45,4544.1 c 100.87,-310.26 543.85,-648.58 543.85,-648.58 l 33.046,-1950.7 c 0,0 1438.3,2000.3 3835.3,2397.1 167.85,27.782 353.03,50.517 552.07,67.701 223.29,-239.98 494.56,-430.33 796.18,-558.68 -291.62,1.096 -578.03,-7.605 -856.77,-26.013 -3465.3,-228.84 -4740.2,-3824.9 -4740.2,-3824.9 z"
       id="path16"
       style="fill:#363636;fill-opacity:1;stroke:#363636;stroke-opacity:1" />
    <path
       d="m 14057,12497 c 0,0 3740.6,2454.8 4932.9,2758.7 211.19,53.833 841.64,-1636.5 841.64,-1636.5 0,0 -2030.6,-1258 -4675.8,-2010.6 -602.88,-171.53 -1022.9,593.79 -1098.8,888.4 z"
       stroke="#000000"
       stroke-width="21.691px"
       id="path18"
       style="fill:#363636;fill-opacity:1;stroke:#363636;stroke-opacity:1" />
    <path
       d="m 20042,13474 c -376.64,201.34 -1578.1,970.14 -925.74,2066.4 l 224.33,-85.961 c 4.745,-60.471 87.445,-971 808.43,-1706.9 z m 148.79,380.24 c 0,0 -564.3,451.23 -757.42,1564.7 1514.5,574.32 1893.7,724.71 1893.7,724.71 116.9,724.75 631.22,1192.4 1215.7,1356 2032,614.4 2388.5,908.37 2446.2,1009.5 -985.68,-4998.4 -3112,-3580.4 -3112,-3580.4 z m 4798.2,4654.9 c 2.831,14.36 5.788,28.069 8.601,42.535 0,0 8.117,-13.251 -8.601,-42.535 z"
       id="path20"
       style="fill:#363636;fill-opacity:1;stroke:#363636;stroke-opacity:1" />
  </g>
</svg>
