<?xml version="1.0" encoding="UTF-8"?>
<svg id="svg1" version="1.1" viewBox="0 0 22 22" xmlns="http://www.w3.org/2000/svg">
 <defs id="defs1">
  <style id="current-color-scheme" type="text/css">.ColorScheme-Text { color:#363636; }</style>
 </defs>
 <path id="path1-5" d="m11 7.6288a3.3712 3.3712 0 0 0-3.3712 3.3712 3.3712 3.3712 0 0 0 3.3712 3.3712 3.3712 3.3712 0 0 0 3.3712-3.3712 3.3712 3.3712 0 0 0-3.3712-3.3712zm0 1.1237a2.2475 2.2475 0 0 1 2.2475 2.2475 2.2475 2.2475 0 0 1-2.2475 2.2475 2.2475 2.2475 0 0 1-2.2475-2.2475 2.2475 2.2475 0 0 1 2.2475-2.2475z" fill="#363636" stroke-width="1.1238" style="paint-order:fill markers stroke"/>
 <path id="path2" d="m10.348 2.0101c-0.25045 0-0.60175 0.069308-0.89329 0.31386-0.29155 0.24455-0.43092 0.60449-0.4653 0.86257l0.021948-0.11413-0.3841 1.5979c-0.15664 0.057503-0.30414 0.11943-0.45213 0.18656l-1.3915-0.85159a1.1239 1.1239 0 0 0-0.00877-0.00439c-0.20069-0.12054-0.53296-0.24581-0.89109-0.20193-0.35814 0.043887-0.6237 0.23028-0.77697 0.37093a1.1239 1.1239 0 0 0-0.028532 0.026338l-0.92182 0.90646a1.1239 1.1239 0 0 0-0.041702 0.041701c-0.17386 0.18986-0.34841 0.51249-0.36872 0.85159-0.020317 0.3391 0.092013 0.6157 0.19534 0.79672a1.1239 1.1239 0 0 0 0.021947 0.035117l0.86476 1.3937c-0.062177 0.13583-0.1114 0.28015-0.169 0.43238l-1.5825 0.37312a1.1239 1.1239 0 0 0-0.015362 0.00219c-0.18192 0.045545-0.49408 0.15184-0.74404 0.45213-0.24997 0.30029-0.30728 0.66719-0.30728 0.8911v1.2905c0 0.25014 0.069717 0.59938 0.31386 0.8911 0.24415 0.29171 0.60201 0.43078 0.86038 0.4653l-0.11194-0.01976 1.6 0.3819c0.052614 0.14079 0.10503 0.27616 0.16461 0.40824l-0.86695 1.4134c-0.1157 0.18812-0.24094 0.48158-0.2107 0.845s0.23898 0.69892 0.44116 0.88451l0.88012 0.88012c0.17352 0.17375 0.4598 0.36472 0.81428 0.40824 0.35448 0.04351 0.68525-0.07514 0.8911-0.20193l1.4069-0.86695c0.13954 0.06459 0.27927 0.12518 0.4258 0.17998l0.39287 1.6088-0.021948-0.11852c0.034813 0.26136 0.18948 0.64358 0.49383 0.88232 0.30436 0.23874 0.63645 0.28533 0.86476 0.28533h1.3125c0.22832 0 0.57618-0.05657 0.87353-0.2963 0.29736-0.23973 0.42777-0.5784 0.47188-0.79892l-0.0088 0.04608 0.39287-1.6066c0.14675-0.05547 0.28775-0.11575 0.4258-0.17998l1.3959 0.86476a1.1239 1.1239 0 0 0 0.0022 0c0.20594 0.1269 0.53664 0.24543 0.8911 0.20193 0.35446-0.04351 0.64075-0.23452 0.81428-0.40824a1.1239 1.1239 0 0 0 0.0044-0.0022l0.87574-0.8867c0.18973-0.17409 0.40965-0.50989 0.44116-0.88012 0.03151-0.37023-0.09326-0.64758-0.19095-0.81867a1.1239 1.1239 0 0 0-0.01975-0.03293l-0.86476-1.4003c0.06044-0.13184 0.11333-0.26713 0.16681-0.40824l1.6044-0.3841-0.11194 0.01975c0.26166-0.03497 0.64184-0.18937 0.88012-0.49383 0.23828-0.30446 0.28533-0.63451 0.28533-0.86256v-1.2905c0-0.20305-0.0345-0.54588-0.27875-0.86036-0.24419-0.31453-0.57644-0.436-0.76374-0.4829a1.1239 1.1239 0 0 0-0.01536-0.00219l-1.5825-0.37312c-0.05927-0.1539-0.10677-0.29971-0.169-0.43458l0.8472-1.3761c0.11802-0.1838 0.25562-0.47208 0.23265-0.8472-0.022969-0.37513-0.24113-0.72533-0.44335-0.91085l-0.88891-0.87353c-0.16252-0.16266-0.45395-0.36434-0.81209-0.40824-0.35813-0.043895-0.65967 0.071191-0.84281 0.169a1.1239 1.1239 0 0 0-0.05706 0.032922l-1.3872 0.85159c-0.14091-0.065073-0.288-0.1212-0.44116-0.17998l-0.37751-1.5495c-0.040893-0.21812-0.16083-0.55735-0.46092-0.80769-0.30008-0.25035-0.66051-0.30947-0.88891-0.30947h-1.3125zm0 1.1237h1.3125c0.14792 0 0.21749 0.060358 0.24363 0.19972l0.52236 2.1531c0.56562 0.13938 1.0794 0.37283 1.5145 0.61675l1.8634-1.1413c0.13049-0.069696 0.22477-0.06064 0.32922 0.043896l0.92182 0.90646c0.10445 0.095824 0.10466 0.20068 0.02634 0.32264l-1.1479 1.8634c0.2088 0.39201 0.47079 0.93295 0.60138 1.5166l2.14 0.50481c0.1392 0.03485 0.19095 0.0956 0.19095 0.25241v1.2905c0 0.14808-0.06046 0.22619-0.19095 0.24363l-2.1487 0.51359c-0.13059 0.54879-0.36651 1.0809-0.61016 1.4903l1.1567 1.8722c0.0696 0.1219 0.06933 0.21802-0.03512 0.31386l-0.91304 0.92402c-0.10445 0.10456-0.20957 0.11138-0.32264 0.0417l-1.87-1.1567c-0.43503 0.27008-0.93136 0.48607-1.5056 0.62552l-0.52236 2.1443c-0.02614 0.13064-0.09571 0.19095-0.24363 0.19095h-1.3125c-0.14792 0-0.22622-0.06031-0.24363-0.19095l-0.52236-2.1443c-0.5482-0.13073-1.0793-0.35544-1.5056-0.62552l-1.8788 1.1567c-0.11313 0.06967-0.21821 0.06286-0.32264-0.0417l-0.91305-0.91524c-0.10442-0.095845-0.10473-0.20066-0.035117-0.31386l1.1567-1.8809c-0.24364-0.41806-0.47086-0.94146-0.60139-1.4903l-2.1487-0.51359c-0.13054-0.01744-0.19973-0.09555-0.19973-0.24363v-1.2905c0-0.1568 0.060491-0.21755 0.19972-0.25241l2.1421-0.50481c0.13052-0.58365 0.38166-1.1246 0.59918-1.5166l-1.1567-1.8634c-0.069616-0.12196-0.06938-0.2269 0.026341-0.33142l0.92182-0.90646c0.10442-0.095824 0.20089-0.11352 0.33142-0.035117l1.8612 1.1413c0.39158-0.24391 0.97509-0.48614 1.532-0.62552l0.51359-2.1443c0.01741-0.13066 0.09571-0.19972 0.24363-0.19972z" color="#000000" fill="#363636" stroke-linecap="round" stroke-linejoin="round" stroke-width="1.1238" style="-inkscape-stroke:none"/>
</svg>
