<?xml version="1.0" encoding="UTF-8" standalone="no"?>
<svg
   version="1.1"
   viewBox="0 0 22 22"
   id="svg1"
   sodipodi:docname="configure.svg"
   inkscape:version="1.3.2 (091e20ef0f, 2023-11-25)"
   xmlns:inkscape="http://www.inkscape.org/namespaces/inkscape"
   xmlns:sodipodi="http://sodipodi.sourceforge.net/DTD/sodipodi-0.dtd"
   xmlns="http://www.w3.org/2000/svg"
   xmlns:svg="http://www.w3.org/2000/svg">
  <sodipodi:namedview
     id="namedview1"
     pagecolor="#ffffff"
     bordercolor="#111111"
     borderopacity="1"
     inkscape:showpageshadow="0"
     inkscape:pageopacity="0"
     inkscape:pagecheckerboard="1"
     inkscape:deskcolor="#d1d1d1"
     inkscape:zoom="36.5"
     inkscape:cx="11"
     inkscape:cy="11"
     inkscape:window-width="1920"
     inkscape:window-height="1011"
     inkscape:window-x="0"
     inkscape:window-y="0"
     inkscape:window-maximized="1"
     inkscape:current-layer="svg1" />
  <defs
     id="defs1">
    <style
       id="current-color-scheme"
       type="text/css">.ColorScheme-Text { color:#363636; }</style>
  </defs>
  <path
     d="m 10.999605,7.628838 a 3.3712448,3.3712448 0 0 0 -3.371245,3.371245 3.3712448,3.3712448 0 0 0 3.371245,3.371245 3.3712448,3.3712448 0 0 0 3.371245,-3.371245 3.3712448,3.3712448 0 0 0 -3.371245,-3.371245 z m 0,1.1237483 A 2.2474965,2.2474965 0 0 1 13.247102,11.000083 2.2474965,2.2474965 0 0 1 10.999605,13.24758 2.2474965,2.2474965 0 0 1 8.7521083,11.000083 2.2474965,2.2474965 0 0 1 10.999605,8.7525863 Z"
     fill="#363636"
     style="stroke-width:1.12375;paint-order:fill markers stroke"
     id="path1-5" />
  <path
     d="m 10.347719,2.0100967 c -0.25045,0 -0.6017453,0.069308 -0.8932905,0.3138629 C 9.1628832,2.5685097 9.0235047,2.9284463 8.9891293,3.1865263 L 9.0110772,3.0723984 8.62698,4.6702561 C 8.4703408,4.7277594 8.3228376,4.789688 8.1748512,4.8568208 L 6.7833137,4.0052331 a 1.1238606,1.1238606 0 0 0 -0.00877,-0.00439 C 6.5738583,3.880306 6.2415884,3.7550305 5.8834498,3.7989129 5.5253112,3.8427998 5.2597471,4.0291914 5.106479,4.1698397 A 1.1238606,1.1238606 0 0 0 5.077947,4.1961777 L 4.156125,5.102638 A 1.1238606,1.1238606 0 0 0 4.114423,5.144339 C 3.9405677,5.3341969 3.7660159,5.656825 3.7456986,5.9959273 c -0.020317,0.3391022 0.092013,0.6157016 0.1953411,0.796715 a 1.1238606,1.1238606 0 0 0 0.021947,0.035117 L 4.8277445,8.221432 C 4.7655675,8.3572595 4.7163474,8.5015825 4.658744,8.6538166 L 3.0762817,9.0269348 a 1.1238606,1.1238606 0 0 0 -0.015362,0.00219 C 2.8789965,9.0746694 2.5668417,9.180967 2.3168751,9.481255 2.0669086,9.781543 2.0095974,10.148447 2.0095974,10.372354 v 1.290513 c 0,0.250135 0.069717,0.599385 0.3138629,0.891098 0.2441455,0.291714 0.6020144,0.430778 0.8603754,0.4653 L 3.0718991,12.999505 4.6718919,13.3814 c 0.052614,0.140794 0.1050255,0.276161 0.1646066,0.408235 l -0.8669493,1.41345 c -0.1157011,0.188116 -0.2409428,0.481583 -0.2107028,0.845003 0.03024,0.36342 0.2389763,0.698924 0.4411611,0.884511 l 0.8801196,0.880121 c 0.173518,0.173753 0.4598041,0.364723 0.8142793,0.408235 0.3544751,0.04351 0.6852504,-0.07514 0.8910986,-0.201927 l 1.4069328,-0.86695 c 0.1395359,0.06459 0.2792739,0.125175 0.4257995,0.17998 L 9.0111109,18.94082 8.989163,18.822298 c 0.034813,0.261362 0.1894752,0.643582 0.4938312,0.882322 0.3043559,0.238741 0.6364468,0.285331 0.8647588,0.285331 h 1.312538 c 0.228323,0 0.576179,-0.05657 0.873534,-0.296298 0.297355,-0.23973 0.427766,-0.578405 0.471884,-0.798918 l -0.0088,0.04608 0.392874,-1.606623 c 0.14675,-0.05547 0.287747,-0.115746 0.425799,-0.179979 l 1.39592,0.864758 a 1.1238606,1.1238606 0 0 0 0.0022,0 c 0.205938,0.126904 0.536635,0.245426 0.891098,0.201926 0.354464,-0.04351 0.64075,-0.234515 0.81428,-0.408235 a 1.1238606,1.1238606 0 0 0 0.0044,-0.0022 l 0.875737,-0.886705 c 0.189734,-0.174091 0.409652,-0.509887 0.441161,-0.880117 0.03151,-0.37023 -0.09326,-0.647582 -0.190947,-0.818673 a 1.1238606,1.1238606 0 0 0 -0.01975,-0.03293 l -0.864758,-1.400303 c 0.06044,-0.131838 0.11333,-0.267126 0.166809,-0.408235 l 1.604375,-0.384098 -0.111936,0.01975 c 0.261664,-0.03497 0.64184,-0.189374 0.880119,-0.493831 0.23828,-0.304457 0.285331,-0.634513 0.285331,-0.862565 v -1.290514 c 0,-0.20305 -0.0345,-0.5458827 -0.278746,-0.8603636 C 19.466689,9.1973512 19.13443,9.075874 18.947135,9.02898 A 1.1238606,1.1238606 0 0 0 18.931775,9.02679 L 17.349311,8.6536706 c -0.05927,-0.1538974 -0.106767,-0.2997149 -0.169,-0.434576 L 18.027516,6.8429525 C 18.145532,6.6591523 18.283135,6.3708771 18.260165,5.9957475 18.237196,5.6206178 18.019031,5.2704129 17.816813,5.0848933 L 16.927905,4.2113589 C 16.765389,4.0486963 16.473956,3.8470172 16.115818,3.8031236 15.75769,3.7592289 15.456144,3.8743142 15.273006,3.9721241 a 1.1238606,1.1238606 0 0 0 -0.05706,0.032922 L 13.828788,4.8566342 C 13.687881,4.7915613 13.540793,4.735438 13.387626,4.6766547 L 13.010114,3.1271182 C 12.969221,2.9089987 12.849284,2.5697728 12.549198,2.3194242 12.249123,2.0690755 11.888692,2.0099551 11.660291,2.0099551 h -1.312538 z m 0,1.1237483 h 1.312538 c 0.147919,0 0.21749,0.060358 0.243628,0.1997238 l 0.522364,2.1531016 c 0.565616,0.1393785 1.079405,0.372826 1.514475,0.6167468 l 1.863399,-1.1412788 c 0.13049,-0.069696 0.224773,-0.06064 0.329225,0.043896 l 0.921822,0.9064603 c 0.104452,0.095824 0.104655,0.2006789 0.02634,0.3226393 l -1.147909,1.8633994 c 0.208803,0.3920083 0.470794,0.932947 0.601385,1.5166106 l 2.139954,0.50481 c 0.139198,0.03485 0.190947,0.0956 0.190947,0.252406 v 1.290512 c 0,0.148077 -0.06046,0.226188 -0.190947,0.243629 l -2.148719,0.513587 c -0.130591,0.548793 -0.366511,1.080899 -0.610162,1.490315 l 1.156674,1.872164 c 0.0696,0.121904 0.06933,0.218019 -0.03512,0.313863 l -0.913045,0.924022 c -0.104453,0.104565 -0.209568,0.111375 -0.32264,0.0417 L 13.931899,15.90548 c -0.435026,0.270081 -0.931363,0.486066 -1.505598,0.625523 l -0.522363,2.144334 c -0.02614,0.130636 -0.09571,0.190947 -0.243629,0.190947 h -1.312538 c -0.147919,0 -0.226222,-0.06031 -0.243629,-0.190947 L 9.5817829,16.531006 C 9.0335848,16.40028 8.5024676,16.175564 8.076185,15.905483 l -1.8787948,1.156673 c -0.1131277,0.06967 -0.2182094,0.06286 -0.3226393,-0.0417 L 4.9617054,16.105219 C 4.8572867,16.009374 4.8569721,15.904562 4.9265883,15.791356 l 1.1566741,-1.88093 C 5.8396225,13.492369 5.6124006,12.968971 5.4818773,12.420111 L 3.3331582,11.906525 c -0.130538,-0.01744 -0.1997271,-0.09555 -0.1997271,-0.24363 v -1.290512 c 0,-0.156796 0.060491,-0.217546 0.1997237,-0.252406 L 5.4752438,9.6151675 C 5.6057671,9.0315152 5.8569024,8.4905203 6.0744263,8.0985569 L 4.9177523,6.2351575 C 4.8481361,6.1131971 4.848372,6.0082615 4.9440929,5.9037417 L 5.8659149,4.9972814 C 5.9703335,4.9014572 6.0668073,4.8837604 6.1973307,4.9621643 L 8.0584825,6.103443 C 8.4500639,5.8595335 9.0335701,5.6172983 9.5904885,5.4779198 L 10.104076,3.3335834 c 0.01741,-0.1306582 0.09571,-0.1997238 0.243628,-0.1997238 z"
     color="#000000"
     fill="#363636"
     stroke-linecap="round"
     stroke-linejoin="round"
     style="stroke-width:1.12375;-inkscape-stroke:none"
     id="path2" />
</svg>
