<?xml version="1.0" encoding="UTF-8"?>
<svg version="1.1" viewBox="0 0 22 22" xmlns="http://www.w3.org/2000/svg">
 <defs>
  <style id="current-color-scheme" type="text/css">.ColorScheme-Text {
                color:#363636;
            }
            .ColorScheme-NegativeText {
                color:#da4453;
            }</style>
 </defs>
 <path class="ColorScheme-NegativeText" d="M 16.707,15 16,15.707 17.793,17.5 16,19.293 16.707,20 18.5,18.207 20.293,20 21,19.293 19.207,17.5 21,15.707 20.293,15 18.5,16.793 Z" fill="currentColor"/>
 <path class="ColorScheme-Text" d="m4 2c-1.662 0-3 1.338-3 3v10c0 1.662 1.338 3 3 3h8c1.662 0 3-1.338 3-3v-8l-5-5h-1zm0 1h5v5h5v7c0 1.108-0.892 2-2 2h-8c-1.108 0-2-0.892-2-2v-10c0-1.108 0.892-2 2-2zm6 0.41406 3.5859 3.5859h-3.5859z" fill="currentColor"/>
 <path class="ColorScheme-NegativeText" d="m12 4 1 1h2v5h5v4h1v-5l-5-5h-4zm4 1.4141 3.5859 3.5859h-3.5859v-3.5859zm-8.8262 12.586c0.41051 1.1666 1.5157 2 2.8262 2h5v-1h-5c-0.74277 0-1.3874-0.40192-1.7324-1h-1.0938z" fill="currentColor"/>
</svg>
