<?xml version="1.0" encoding="UTF-8"?>
<svg viewBox="0 0 22 22" xmlns="http://www.w3.org/2000/svg">
 <defs id="defs3051">
  <style id="current-color-scheme" type="text/css">.ColorScheme-Text {
        color:#363636;
      }</style>
 </defs>
 <path class="ColorScheme-Text" d="m4 3c-0.55228 0-1 0.44772-1 1s0.44772 1 1 1 1-0.44772 1-1-0.44772-1-1-1zm6 0v1h9v-1h-9zm0 2v1h6v-1h-6zm-6 4c-0.55228 0-1 0.44772-1 1 0 0.55228 0.44772 1 1 1s1-0.44772 1-1c0-0.55228-0.44772-1-1-1zm6 0v1h9v-1h-9zm0 2v1h2v-1h-2zm-6 4c-0.55228 0-1 0.44772-1 1s0.44772 1 1 1 1-0.44772 1-1-0.44772-1-1-1zm6 0v1h9v-1h-9zm0 2v1h6v-1h-6zm7 1v1h2v-1h-2z" fill="currentColor"/>
</svg>
