<?xml version="1.0" encoding="UTF-8"?>
<svg version="1.1" viewBox="0 0 22 22" xmlns="http://www.w3.org/2000/svg">
 <defs>
  <style id="current-color-scheme" type="text/css">.ColorScheme-Text {
        color:#363636;
      }</style>
 </defs>
 <path class="ColorScheme-Text" d="m7 3v1h3v2.0254c-3.3453 0.258-6 3.0655-6 6.4746 0 0.98513 0.22733 1.9175 0.62305 2.7559l0.75781-0.75781c-0.24235-0.62016-0.38086-1.292-0.38086-1.998 0-3.0376 2.4624-5.5 5.5-5.5 0.706 0 1.3779 0.13851 1.998 0.38086l0.74414-0.74414c-0.69257-0.32698-1.4432-0.54971-2.2422-0.61133v-2.0254h3v-1h-7zm11.293 0-15.293 15.293 0.70703 0.70703 15.293-15.293-0.70703-0.70703zm-0.87695 3.7051-0.70703 0.70703 0.5918 0.58789 0.70508-0.70898-0.58984-0.58594zm-1.8164 1.8164-0.69531 0.69531c0.68498 0.91715 1.0957 2.0505 1.0957 3.2832 0 3.0376-2.4624 5.5-5.5 5.5-1.2327 0-2.3661-0.41072-3.2832-1.0957l-0.70898 0.70898c1.104 0.86474 2.4877 1.3867 3.9922 1.3867 3.578 0 6.5-2.922 6.5-6.5 0-1.5038-0.53528-2.8764-1.4004-3.9785z" fill="currentColor"/>
</svg>
