<?xml version="1.0" encoding="UTF-8"?>
<svg viewBox="0 0 22 22" xmlns="http://www.w3.org/2000/svg">
 <defs id="defs3051">
  <style id="current-color-scheme" type="text/css">.ColorScheme-Text {
        color:#363636;
      }
      .ColorScheme-Highlight {
        color:#3daee9;
      }</style>
 </defs>
 <path class="ColorScheme-Text" d="m3 11v8h1v-8h-1zm2 0v8h1v-7h1a2 2 0 0 1 2 2v5h1v-5a3 3 0 0 0-3-3h-1-1zm8 0v8h1v-8h-1zm2 0v4 4h1v-4a3 3 0 0 1 3-3v-1a4 4 0 0 0-3 1.3613v-1.3613h-1z" fill="currentColor"/>
 <path class="ColorScheme-Highlight" d="m10 3-4 3 4 3v-6zm3 0v6l4-3-4-3z" fill="currentColor"/>
</svg>
