<?xml version="1.0" encoding="UTF-8"?>
<svg viewBox="0 0 22 22" xmlns="http://www.w3.org/2000/svg">
 <defs id="defs3051">
  <style id="current-color-scheme" type="text/css">.ColorScheme-Text {
        color:#363636;
      }</style>
 </defs>
 <path class="ColorScheme-Text" d="m3 3v2 1 13h1 8 2 2 2 1v-3-2-9-2h-1v1h-2v-1h-1v1h-2v-1h-1v1h-2v-1h-1v1h-2v-1h-1v1h-2v-1h-1zm1 3h14v1 1 1 1 5 2 1h-1-2-3-8v-8-1-1-1-1zm2 2v1h10v-1h-10zm0 3v1h6v-1h-6zm0 3v1h8v-1h-8zm8 2v1h2v-1h-2z" fill="currentColor"/>
</svg>
