<?xml version="1.0" encoding="UTF-8"?>
<svg viewBox="0 0 24 24" xmlns="http://www.w3.org/2000/svg">
 <defs id="defs3051">
  <style id="current-color-scheme" type="text/css">.ColorScheme-Text {
        color:#dedede;
      }
      .ColorScheme-Highlight {
        color:#3daee9;
      }</style>
 </defs>
 <path class="ColorScheme-Text" d="m4 4v5h1v-4h2v3 1h1v-1-3h2v4h1v-4h2v4h1v-4h2v3 1h1v-1-3h2v4h1v-4-1h-15-1zm11 6 2.5 5 2.5-5h-5zm-11 5v5h1 8 1 2 1 2 1v-1-4h-1v4h-2v-4h-1v4h-2v-4h-1v4h-2v-4h-1v4h-2v-4h-1v4h-2v-4h-1z" fill="currentColor"/>
 <path class="ColorScheme-Highlight" d="m4 9v1h1 3.2812l-3.2812 3.2812v0.011719l-0.70703 0.70703h-0.29297v1h1 7 2v-1h-0.28125l0.28125-0.28125v-1.4375l-1.7188 1.7188h-0.28125-2.2812l4-4h0.28125v-1h-2-2.707-4.293-1zm5.7188 1h2.2812 0.28125l-4 4h-2.5625l4-4z" fill="currentColor"/>
</svg>
