<?xml version="1.0" encoding="UTF-8"?>
<svg viewBox="0 0 24 24" xmlns="http://www.w3.org/2000/svg">
 <defs id="defs3051">
  <style id="current-color-scheme" type="text/css">.ColorScheme-Text {
        color:#dedede;
      }</style>
 </defs>
 <g transform="translate(1,1)" fill="currentColor">
  <path class="ColorScheme-Text" d="m4 4v14h14v-14h-14zm1 1h12v12h-12v-12zm3 3v6h6v-6h-6zm1 1h4v4h-4v-4z"/>
  <path class="ColorScheme-Text" d="m3 3v1 14 1h15 1v-1-14-1h-1-14-1zm1 1h14v14h-14v-14zm3 3v1 6 1h8v-1-6-1h-1-6-1zm1 1h6v6h-6v-6z" fill-opacity=".5"/>
 </g>
</svg>
