<?xml version="1.0" encoding="UTF-8"?>
<svg width="24" height="24" version="1.1" viewBox="0 0 24 24" xmlns="http://www.w3.org/2000/svg">
 <defs>
  <style id="current-color-scheme" type="text/css">.ColorScheme-Text {
                color:#dedede;
            }</style>
 </defs>
 <g transform="translate(1,1)">
  <g fill="currentColor" shape-rendering="auto">
   <path class="ColorScheme-Text" d="m11 7c-2.2032 0-4 1.7968-4 4 0 2.2032 1.7968 4 4 4 2.2032 0 4-1.7968 4-4 0-2.2032-1.7968-4-4-4zm0 1c1.6628 0 3 1.3372 3 3 0 1.6628-1.3372 3-3 3-1.6628 0-3-1.3372-3-3 0-1.6628 1.3372-3 3-3z" color-rendering="auto" dominant-baseline="auto" image-rendering="auto"/>
   <path class="ColorScheme-Text" d="m10.5 3v3h1v-3h-1z" color-rendering="auto" dominant-baseline="auto" image-rendering="auto"/>
   <path class="ColorScheme-Text" d="m10.5 16v3h1v-3h-1z" color-rendering="auto" dominant-baseline="auto" image-rendering="auto"/>
   <path class="ColorScheme-Text" d="m3 10.5v1h3v-1h-3z" color-rendering="auto" dominant-baseline="auto" image-rendering="auto"/>
   <path class="ColorScheme-Text" d="m16 10.5v1h3v-1h-3z" color-rendering="auto" dominant-baseline="auto" image-rendering="auto"/>
   <path class="ColorScheme-Text" d="m14.707 14-0.70703 0.70703 2.1211 2.1211 0.70703-0.70703-2.1211-2.1211z" color-rendering="auto" dominant-baseline="auto" image-rendering="auto"/>
   <path class="ColorScheme-Text" d="m5.707 5-0.70703 0.70703 2.1211 2.1211 0.70703-0.70703-2.1211-2.1211z" color-rendering="auto" dominant-baseline="auto" image-rendering="auto"/>
   <path class="ColorScheme-Text" d="m7.1211 14-2.1211 2.1211 0.70703 0.70703 2.1211-2.1211-0.70703-0.70703z" color-rendering="auto" dominant-baseline="auto" image-rendering="auto"/>
   <path class="ColorScheme-Text" d="m16.121 5-2.1211 2.1211 0.70703 0.70703 2.1211-2.1211-0.70703-0.70703z" color-rendering="auto" dominant-baseline="auto" image-rendering="auto"/>
   <path class="ColorScheme-Text" d="m11 7.75v6.5h2.1667l1.0833-2.1667v-2.1667l-1.0833-2.1667z" color-rendering="auto" dominant-baseline="auto" image-rendering="auto"/>
   <path class="ColorScheme-Text" d="m10.984 7.7344v6.5312h2.1914l1.0898-2.1777v-2.1758l-1.0898-2.1777h-2.1914zm0.03125 0.03125h2.1406l1.0781 2.1543v2.1602l-1.0781 2.1543h-2.1406v-6.4688z" color-rendering="auto" dominant-baseline="auto" image-rendering="auto"/>
  </g>
 </g>
</svg>
