<?xml version="1.0" encoding="UTF-8"?>
<svg width="24" height="24" version="1.1" viewBox="0 0 24 24" xmlns="http://www.w3.org/2000/svg">
 <defs>
  <style id="current-color-scheme" type="text/css">.ColorScheme-Text {
        color:#dedede;
      }</style>
 </defs>
 <g transform="translate(1,1)">
  <path class="ColorScheme-Text" d="m7 3v1h3v2.0254c-3.3453 0.258-6 3.0655-6 6.4746 0 3.4091 2.6547 6.2166 6 6.4746v-1c-2.803-0.25289-5-2.6058-5-5.4746 0-3.0376 2.4624-5.5 5.5-5.5 2.8688 0 5.2217 2.197 5.4746 5h1.002c-0.10969-1.4139-0.67578-2.7012-1.5508-3.7188l1.0762-1.0762 0.79883 0.79492 0.70508-0.70898-2.2988-2.2891-0.70508 0.70898 0.79102 0.78906-1.0742 1.0742c-1.0187-0.87213-2.3055-1.4398-3.7188-1.5488v-2.0254h3v-1h-7zm6 9v3h-3v1h3v3h1v-3h3v-1h-3v-3h-1z" fill="currentColor"/>
 </g>
</svg>
