<?xml version="1.0" encoding="UTF-8"?>
<svg viewBox="0 0 24 24" xmlns="http://www.w3.org/2000/svg">
 <defs id="defs3051">
  <style id="current-color-scheme" type="text/css">.ColorScheme-Text {
        color:#dedede;
      }</style>
 </defs>
 <g transform="translate(1,1)">
  <path id="rect4161" class="ColorScheme-Text" d="m3 7c-0.55401 0-1 0.44599-1 1v6c0 0.55401 0.44599 1 1 1h6c0.55401 0 1-0.44599 1-1v-1h2v1c0 0.554 0.44599 1 1 1h6c0.55401 0 1-0.446 1-1v-6c0-0.554-0.44599-1-1-1h-6c-0.55401 0-1 0.446-1 1v1h-2v-1c0-0.55401-0.44599-1-1-1h-6zm0 1h4 2v1c-0.55401 0-1 0.44599-1 1v2c0 0.55401 0.44599 1 1 1v1h-2-4v-6zm10 0h3 3v6h-3-3v-1c0.55401 0 1-0.44599 1-1v-2c0-0.55401-0.44599-1-1-1v-1zm-4 2h4v2h-4v-2z" fill="currentColor"/>
 </g>
</svg>
