<?xml version="1.0" encoding="UTF-8"?>
<svg viewBox="0 0 24 24" xmlns="http://www.w3.org/2000/svg">
 <defs id="defs3051">
  <style id="current-color-scheme" type="text/css">.ColorScheme-Text {
        color:#dedede;
      }
      .ColorScheme-NegativeText {
        color:#da4453;
      }</style>
 </defs>
 <path class="ColorScheme-Text" d="m19.293 4-3.5 3.5-1.5-1.5-3.793 3.793 3.707 3.707 3.793-3.793-1.5-1.5 3.5-3.5-0.70703-0.70703zm-9.5 6.5-2.793 2.793 1.5 1.5-4.5 4.5 0.70703 0.70703 4.5-4.5 1.5 1.5 2.793-2.793-3.707-3.707z" fill="currentColor"/>
 <path class="ColorScheme-NegativeText" d="m14.99 14-0.99023 0.99023 2.0098 2.0098-2.0098 2.0098 0.99023 0.99023 2.0098-2.0098 2.0098 2.0098 0.99023-0.99023-2.0098-2.0098 2.0098-2.0098-0.99023-0.99023-2.0098 2.0098-2.0098-2.0098z" fill="currentColor"/>
</svg>
