<?xml version="1.0" encoding="UTF-8"?>
<svg id="svg2" version="1.1" viewBox="0 0 24 24" xmlns="http://www.w3.org/2000/svg" xmlns:cc="http://creativecommons.org/ns#" xmlns:dc="http://purl.org/dc/elements/1.1/" xmlns:rdf="http://www.w3.org/1999/02/22-rdf-syntax-ns#" xmlns:xlink="http://www.w3.org/1999/xlink">
 <metadata id="metadata20">
  <rdf:RDF>
   <cc:Work rdf:about="">
    <dc:format>image/svg+xml</dc:format>
    <dc:type rdf:resource="http://purl.org/dc/dcmitype/StillImage"/>
   </cc:Work>
  </rdf:RDF>
 </metadata>a
 <defs id="defs3762">
  <style id="current-color-scheme" type="text/css">.ColorScheme-Text {
        color:#dedede;
      }</style>
  <linearGradient id="linearGradient4154" x1="425.71" x2="433.71" y1="543.79" y2="535.79" gradientTransform="matrix(1.5 0 0 1.5 -632.57 -797.69)" gradientUnits="userSpaceOnUse">
   <stop id="stop4174-2" stop-color="#1d99f3" offset="0"/>
   <stop id="stop4176-0" stop-color="#cae7fc" offset="1"/>
  </linearGradient>
 </defs>
 <path class="ColorScheme-Text" d="m4 5v14h16v-14h-16zm7.9414 1a6 6 0 0 1 6.0586 5.9219v0.078125a6 6 0 0 1-5.9805 6 6 6 0 0 1-6.0195-5.9609 6 6 0 0 1 5.9414-6.0391z" fill="currentColor"/>
 <path id="path16" d="m18 12a6 6 0 0 1-5.9804 6 6 6 0 0 1-6.0195-5.9607 6 6 0 0 1 5.941-6.039 6 6 0 0 1 6.0584 5.9212" fill="url(#linearGradient4154)"/>
</svg>
