<?xml version="1.0" encoding="UTF-8"?>
<svg viewBox="0 0 24 24" xmlns="http://www.w3.org/2000/svg">
 <defs id="defs3051">
  <style id="current-color-scheme" type="text/css">.ColorScheme-Text {
        color:#dedede;
      }</style>
 </defs>
 <g transform="translate(1,1)">
  <path class="ColorScheme-Text" d="m6 3v2h-3v1h3v2h4v-1h-3v-3h3v-1h-4zm6 0v1h3v3h-3v1h4v-2h3v-1h-3v-2h-4zm-2 2v1h2v-1h-2z" fill="currentColor"/>
  <path d="m14.707 14.033-0.70703 0.70703 1.793 1.793-1.793 1.793 0.70703 0.70703 1.793-1.793 1.793 1.793 0.70703-0.70703-1.793-1.793 1.793-1.793-0.70703-0.70703-1.793 1.793-1.793-1.793z" fill="#da4453"/>
 </g>
</svg>
