<?xml version="1.0" encoding="UTF-8"?>
<svg id="svg15" width="24" height="24" version="1.1" viewBox="0 0 24 24" xmlns="http://www.w3.org/2000/svg">
 <style id="current-color-scheme" type="text/css">.ColorScheme-Text {
            color:#dedede;
        }</style>
 <g transform="translate(1,1)" fill="currentColor">
  <path id="path3" class="ColorScheme-Text" d="m5.5 4a2.5 2.5 0 0 0-2.5 2.5 2.5 2.5 0 0 0 2.5 2.5 2.5 2.5 0 0 0 2.5-2.5 2.5 2.5 0 0 0-2.5-2.5zm0 1a1.5 1.5 0 0 1 1.5 1.5 1.5 1.5 0 0 1-1.5 1.5 1.5 1.5 0 0 1-1.5-1.5 1.5 1.5 0 0 1 1.5-1.5z"/>
  <path id="path5" class="ColorScheme-Text" d="m5 8v6a2 2 0 0 0 1.9512 2 2 2 0 0 0 0.048828 0h4v-1h-4a1 1 0 0 1-1-1v-6z"/>
  <path id="path7" class="ColorScheme-Text" d="m8.5 11.793-0.70703 0.70703 3 3-3 3 0.70703 0.70703 3.707-3.707-3.707-3.707z"/>
  <path id="path9" class="ColorScheme-Text" d="m15.5 18a2.5 2.5 0 0 0 2.5-2.5 2.5 2.5 0 0 0-2.5-2.5 2.5 2.5 0 0 0-2.5 2.5 2.5 2.5 0 0 0 2.5 2.5zm0-1a1.5 1.5 0 0 1-1.5-1.5 1.5 1.5 0 0 1 1.5-1.5 1.5 1.5 0 0 1 1.5 1.5 1.5 1.5 0 0 1-1.5 1.5z"/>
  <path id="path11" class="ColorScheme-Text" d="m16 14v-6a2 2 0 0 0-1.9512-2 2 2 0 0 0-0.04883 0h-4v1h4a1 1 0 0 1 1 1v6z"/>
  <path id="path13" class="ColorScheme-Text" d="m12.5 2.793-3.707 3.707 3.707 3.707 0.70703-0.70703-3-3 3-3-0.70703-0.70703z"/>
 </g>
</svg>
