<?xml version="1.0" encoding="UTF-8"?>
<svg id="svg24" width="24" height="24" version="1.1" viewBox="0 0 24 24" xmlns="http://www.w3.org/2000/svg">
 <style id="current-color-scheme" type="text/css">.ColorScheme-Text {
            color:#dedede;
        }
        .ColorScheme-NegativeText {
            color:#da4453;
        }</style>
 <g transform="translate(1,1)">
  <g stroke-linecap="square">
   <g id="g10" class="ColorScheme-Text" fill="currentColor">
    <path id="path2" d="M 5.5,3 A 2.5,2.5 0 0 0 3,5.5 2.5,2.5 0 0 0 5.5,8 2.5,2.5 0 0 0 8,5.5 2.5,2.5 0 0 0 5.5,3 Z m 0,1 A 1.5,1.5 0 0 1 7,5.5 1.5,1.5 0 0 1 5.5,7 1.5,1.5 0 0 1 4,5.5 1.5,1.5 0 0 1 5.5,4 Z"/>
    <path id="path4" d="m5.5 14a2.5 2.5 0 0 0-2.5 2.5 2.5 2.5 0 0 0 2.5 2.5 2.5 2.5 0 0 0 2.5-2.5 2.5 2.5 0 0 0-2.5-2.5zm0 1a1.5 1.5 0 0 1 1.5 1.5 1.5 1.5 0 0 1-1.5 1.5 1.5 1.5 0 0 1-1.5-1.5 1.5 1.5 0 0 1 1.5-1.5z"/>
    <path id="path6" d="m5 7h1v8h-1z"/>
    <path id="path8" d="m15 7v2a1 1 0 0 1-1 1h-7a2 2 0 0 0-0.048828 0 2 2 0 0 0-1.9512 2h1a1 1 0 0 1 1-1h7a2 2 0 0 0 0.04883 0 2 2 0 0 0 1.9512-2v-2z"/>
   </g>
   <path id="path12" class="ColorScheme-NegativeText" d="m15.5 3a2.5 2.5 0 0 0-2.5 2.5 2.5 2.5 0 0 0 2.5 2.5 2.5 2.5 0 0 0 2.5-2.5 2.5 2.5 0 0 0-2.5-2.5zm0 1a1.5 1.5 0 0 1 1.5 1.5 1.5 1.5 0 0 1-1.5 1.5 1.5 1.5 0 0 1-1.5-1.5 1.5 1.5 0 0 1 1.5-1.5z" fill="currentColor"/>
   <g id="g18" shape-rendering="auto">
    <g id="path14">
     <path id="path871" d="m11.5 12.5 6 6" color="#da4453" color-rendering="auto" dominant-baseline="auto" image-rendering="auto" solid-color="#000000" stop-color="#da4453"/>
     <path id="path873" class="ColorScheme-NegativeText" d="m11.5 11.793-0.70703 0.70703 6.707 6.707 0.70703-0.70703-6.707-6.707z" color="#da4453" color-rendering="auto" dominant-baseline="auto" fill="currentColor" image-rendering="auto" solid-color="#000000" stop-color="#000000"/>
    </g>
    <g id="path16">
     <path id="path877" d="m17.5 12.5-6 6" color="#da4453" color-rendering="auto" dominant-baseline="auto" image-rendering="auto" solid-color="#000000" stop-color="#da4453"/>
     <path id="path879" class="ColorScheme-NegativeText" d="m17.5 11.793-6.707 6.707 0.70703 0.70703 6.707-6.707-0.70703-0.70703z" color="#da4453" color-rendering="auto" dominant-baseline="auto" fill="currentColor" image-rendering="auto" solid-color="#da4453" stop-color="#000000"/>
    </g>
   </g>
  </g>
 </g>
</svg>
