<?xml version="1.0" encoding="UTF-8"?>
<svg id="svg13" width="24" height="24" version="1.1" viewBox="0 0 24 24" xmlns="http://www.w3.org/2000/svg">
 <style id="current-color-scheme" type="text/css">.ColorScheme-Text {
            color:#dedede;
        }
        .ColorScheme-Highlight {
            color:#3daee9;
        }</style>
 <g transform="translate(1,1)" fill="currentColor">
  <path id="path3" class="ColorScheme-Text" d="m3 10v9h7v-9h-1v4h-5v-4zm1 6h5v1h-5z" stroke-linecap="square"/>
  <path id="path5" class="ColorScheme-Highlight" d="m4 11h5v2h-5z" stroke-linecap="square"/>
  <path id="path7" class="ColorScheme-Text" d="m12.5 11.793-0.70703 0.70703 3.707 3.707 3.707-3.707-0.70703-0.70703-3 3-3-3z"/>
  <path id="path11" class="ColorScheme-Text" d="m7.9512 3a2 2 0 0 0-1.9512 2v5h1v-5a1 1 0 0 1 1-1h6a1 1 0 0 1 1 1v10h1v-10a2 2 0 0 0-1.9512-2 2 2 0 0 0-0.048828 0h-6a2 2 0 0 0-0.048828 0z"/>
 </g>
</svg>
