<?xml version="1.0" encoding="UTF-8"?>
<svg id="svg19" width="24" height="24" version="1.1" viewBox="0 0 24 24" xmlns="http://www.w3.org/2000/svg">
 <style id="current-color-scheme" type="text/css">.ColorScheme-Text {
            color:#dedede;
        }</style>
 <g transform="translate(1,1)" fill="currentColor">
  <g id="g13" class="ColorScheme-Text" stroke-linecap="square">
   <path id="path3" d="M 5.5,4 A 2.5,2.5 0 0 0 3,6.5 2.5,2.5 0 0 0 5.5,9 2.5,2.5 0 0 0 8,6.5 2.5,2.5 0 0 0 5.5,4 Z m 0,1 A 1.5,1.5 0 0 1 7,6.5 1.5,1.5 0 0 1 5.5,8 1.5,1.5 0 0 1 4,6.5 1.5,1.5 0 0 1 5.5,5 Z"/>
   <path id="path5" d="m5.5 14a2.5 2.5 0 0 0-2.5 2.5 2.5 2.5 0 0 0 2.5 2.5 2.5 2.5 0 0 0 2.5-2.5 2.5 2.5 0 0 0-2.5-2.5zm0 1a1.5 1.5 0 0 1 1.5 1.5 1.5 1.5 0 0 1-1.5 1.5 1.5 1.5 0 0 1-1.5-1.5 1.5 1.5 0 0 1 1.5-1.5z"/>
   <path id="path7" d="m15.5 14a2.5 2.5 0 0 0-2.5 2.5 2.5 2.5 0 0 0 2.5 2.5 2.5 2.5 0 0 0 2.5-2.5 2.5 2.5 0 0 0-2.5-2.5zm0 1a1.5 1.5 0 0 1 1.5 1.5 1.5 1.5 0 0 1-1.5 1.5 1.5 1.5 0 0 1-1.5-1.5 1.5 1.5 0 0 1 1.5-1.5z"/>
   <path id="path9" d="m5 8h1v7h-1z"/>
   <path id="path11" d="m10 6v1h4a1 1 0 0 1 1 1v7h1v-7a2 2 0 0 0-1.9512-2 2 2 0 0 0-0.048828 0z"/>
  </g>
  <path id="path15" class="ColorScheme-Text" d="m12.5 2.793-3.707 3.707 3.707 3.707 0.70703-0.70703-3-3 3-3-0.70703-0.70703z"/>
 </g>
</svg>
