<?xml version="1.0" encoding="UTF-8"?>
<svg viewBox="0 0 24 24" xmlns="http://www.w3.org/2000/svg">
 <defs id="defs3051">
  <style id="current-color-scheme" type="text/css">.ColorScheme-Text {
        color:#dedede;
      }
      .ColorScheme-PositiveText {
        color:#27ae60;
      }</style>
 </defs>
 <path class="ColorScheme-Text" d="m4 4v1 2h1v-2h14v5h1v-6h-16zm0 4v1 11h1 5v-1h-5v-10h8v1h1v-2h-10zm2 3v1h4v-1h-4zm0 3v1h2v-1h-2zm0 2v1h4v-1h-4z" fill="currentColor"/>
 <path class="ColorScheme-PositiveText" d="m11 11v1 8h1 7 1v-8-1h-9zm1 1h7v7h-7v-7zm1 1v2h5v-2h-5zm2 3v1h1v-1h-1zm2 0v1h1v-1h-1z" fill="currentColor"/>
</svg>
