<?xml version="1.0" encoding="UTF-8"?>
<svg id="svg8214" width="24" height="24" version="1.1" xmlns="http://www.w3.org/2000/svg">
 <path id="rect8170" d="m12.553 5.0078-1.5527 5.9922h0.98047l1.5371-5.7344-0.96484-0.25781zm-5.0176 0.45703-3.5352 3.5352 3.5352 3.5352 0.70703-0.70703-2.8281-2.8281 2.8281-2.8281-0.70703-0.70703zm8.9297 0-0.70703 0.70703 2.8281 2.8281-0.58594 0.58594v0.41406 1l2-2-3.5352-3.5352z" fill="#dedede" fill-rule="evenodd" stop-color="#000000" stroke-linecap="square" stroke-width=".91287"/>
 <path id="path8746" d="m15 11v1h-3v1h8v-1h-3v-1zm-2 3v5c0 0.554 0.446 1 1 1h4c0.554 0 1-0.446 1-1v-5h-5zm1 1h4v4h-4z" color="#000000" fill="#dedede" fill-rule="evenodd" stroke-linecap="square" stroke-width="2" style="-inkscape-stroke:none"/>
</svg>
