<?xml version="1.0" encoding="UTF-8"?>
<svg id="svg8765" width="24" height="24" version="1.1" xmlns="http://www.w3.org/2000/svg">
 <path id="rect8773" d="m10.863 9c-1.0324 0-1.8633 0.83086-1.8633 1.8633v7.2734c0 1.0324 0.83086 1.8633 1.8633 1.8633h7.2734c1.0324 0 1.8633-0.83086 1.8633-1.8633v-7.2734c0-1.0324-0.83086-1.8633-1.8633-1.8633h-7.2734zm0.13672 1h7c0.554 0 1 0.446 1 1v7c0 0.554-0.446 1-1 1h-7c-0.554 0-1-0.446-1-1v-7c0-0.554 0.446-1 1-1z" fill="#dedede" fill-rule="evenodd" stop-color="#000000" stroke-linecap="square" stroke-width="2"/>
 <rect id="rect8778" x="14" y="11" width="1" height="7" rx="0" ry="0" fill="#dedede" fill-rule="evenodd" stop-color="#000000" stroke-linecap="square" stroke-width="2"/>
 <rect id="rect8780" x="11" y="14" width="7" height="1" fill="#dedede" fill-rule="evenodd" stop-color="#000000" stroke-linecap="square" stroke-width="2"/>
 <path id="path8782" d="m5.8633 4c-1.0324 0-1.8633 0.83086-1.8633 1.8633v7.2734c0 1.0324 0.83086 1.8633 1.8633 1.8633h2.1367v-1h-2c-0.554 0-1-0.446-1-1v-7c0-0.554 0.446-1 1-1h7c0.554 0 1 0.446 1 1v2h1v-2.1367c0-1.0324-0.83086-1.8633-1.8633-1.8633h-7.2734z" fill="#dedede" fill-rule="evenodd" stop-color="#000000" stroke-linecap="square" stroke-width="2"/>
</svg>
