<?xml version="1.0" encoding="UTF-8" standalone="no"?>
<svg
   width="22"
   height="22"
   version="1.1"
   id="svg1"
   sodipodi:docname="start-here-symbolic.svg"
   inkscape:version="1.3.2 (091e20ef0f, 2023-11-25)"
   xmlns:inkscape="http://www.inkscape.org/namespaces/inkscape"
   xmlns:sodipodi="http://sodipodi.sourceforge.net/DTD/sodipodi-0.dtd"
   xmlns="http://www.w3.org/2000/svg"
   xmlns:svg="http://www.w3.org/2000/svg">
  <sodipodi:namedview
     id="namedview1"
     pagecolor="#ffffff"
     bordercolor="#111111"
     borderopacity="1"
     inkscape:showpageshadow="0"
     inkscape:pageopacity="0"
     inkscape:pagecheckerboard="1"
     inkscape:deskcolor="#d1d1d1"
     inkscape:zoom="36.5"
     inkscape:cx="11"
     inkscape:cy="11"
     inkscape:window-width="1920"
     inkscape:window-height="1011"
     inkscape:window-x="0"
     inkscape:window-y="0"
     inkscape:window-maximized="1"
     inkscape:current-layer="svg1" />
  <defs
     id="defs1">
    <style
       id="current-color-scheme"
       type="text/css">
   .ColorScheme-Text { color:#ffffff; } .ColorScheme-Highlight { color:#4285f4; }
  </style>
  </defs>
  <path
     id="path28-7"
     style="display:inline;fill:#ffffff;fill-opacity:1;fill-rule:nonzero;stroke:none;stroke-width:0.0851226"
     d="m 11.000057,3.8523868 c -3.9472772,0 -7.1473584,3.1985489 -7.1503762,7.1454472 v 5.533522 c 0.0022,0.895842 0.7288124,1.621695 1.6255487,1.621695 0.00221,0 0.00564,-2.35e-4 0.0077,-2.35e-4 v 2.35e-4 h 5.5195725 c 3.947722,-0.0018 7.14784,-3.202119 7.14784,-7.150237 0,-3.9490047 -3.201314,-7.1503326 -7.150373,-7.1503326 z m 1.44949,2.9420275 v 6.3e-5 c 1.200798,0 2.334768,0.9207394 2.334768,2.188853 0,0.1176356 -0.0015,0.2345747 -0.0201,0.3683856 -0.03322,0.3372689 -0.341276,0.5789831 -0.676885,0.5313463 -0.335941,-0.048106 -0.564061,-0.3662249 -0.501636,-0.6995848 0.0052,-0.037581 0.0077,-0.097526 0.0077,-0.2001471 0,-0.7188612 -0.587269,-0.9967493 -1.143925,-0.9967493 -0.556324,0 -1.057798,0.4665907 -1.0597,0.9953963 v 1.8305397 l 1.032166,-0.0076 c 0.805784,-0.0169 0.814031,1.197818 0.0083,1.192103 l -1.040407,0.0056 -0.0076,1.707663 c -0.12451,1.340273 -1.2656,2.412207 -2.6364366,2.412207 -1.4529441,0 -2.6515596,-1.188587 -2.6515596,-2.645106 0.043743,-1.498347 1.2410445,-2.676545 2.7451161,-2.662431 l 0.8378124,-0.0056 v 1.1903 l -0.8447876,0.0076 c -0.8268162,0.02442 -1.5337609,0.585105 -1.5473024,1.470422 0,0.807127 0.6523705,1.453021 1.4611759,1.453021 0.8080236,0 1.4531118,-0.587794 1.4531118,-1.451293 V 8.9768348 c 3.92e-4,-0.083431 0.0044,-0.1503286 0.01389,-0.2425017 0.135808,-1.1016615 1.120834,-1.941183 2.236047,-1.941183 z" />
</svg>
