<?xml version="1.0" encoding="UTF-8" standalone="no"?>
<svg
   width="64"
   height="64"
   version="1.1"
   id="svg12"
   sodipodi:docname="emblem-shared.svg"
   xml:space="preserve"
   inkscape:version="1.4.2 (ebf0e940d0, 2025-05-08)"
   xmlns:inkscape="http://www.inkscape.org/namespaces/inkscape"
   xmlns:sodipodi="http://sodipodi.sourceforge.net/DTD/sodipodi-0.dtd"
   xmlns="http://www.w3.org/2000/svg"
   xmlns:svg="http://www.w3.org/2000/svg"><sodipodi:namedview
     id="namedview12"
     pagecolor="#ffffff"
     bordercolor="#111111"
     borderopacity="1"
     inkscape:showpageshadow="0"
     inkscape:pageopacity="0"
     inkscape:pagecheckerboard="1"
     inkscape:deskcolor="#d1d1d1"
     inkscape:zoom="9.046875"
     inkscape:cx="45.982729"
     inkscape:cy="36.034542"
     inkscape:window-width="2560"
     inkscape:window-height="1371"
     inkscape:window-x="0"
     inkscape:window-y="0"
     inkscape:window-maximized="1"
     inkscape:current-layer="svg12" /><defs
     id="defs8"><linearGradient
       id="linearGradient1040"
       x1="7.9373"
       x2="7.9373"
       y1="15.081"
       y2="1.852"
       gradientTransform="scale(3.7796)"
       gradientUnits="userSpaceOnUse"><stop
         stop-color="#363636"
         offset="0"
         id="stop1" /><stop
         stop-color="#6c6c6c"
         offset="1"
         id="stop2" /></linearGradient><linearGradient
       id="linearGradient1042"
       x1="399.57"
       x2="399.57"
       y1="545.8"
       y2="517.8"
       gradientTransform="matrix(2.1429,0,0,2.1429,-826.36,-1107.5)"
       gradientUnits="userSpaceOnUse"><stop
         stop-color="#3889e9"
         offset="0"
         id="stop3" /><stop
         stop-color="#5ea5fb"
         offset="1"
         id="stop4" /></linearGradient><radialGradient
       id="radialGradient1042"
       cx="12.171"
       cy="12.171"
       r="4.7624"
       gradientTransform="matrix(6.719289,0,0,6.719289,-49.781331,-49.781327)"
       gradientUnits="userSpaceOnUse"><stop
         offset="0"
         id="stop5" /><stop
         stop-opacity="0"
         offset="1"
         id="stop6" /></radialGradient><linearGradient
       id="linearGradient1033"
       x1="11.993"
       x2="11.993"
       y1="15.289"
       y2="8.3841"
       gradientTransform="matrix(6.719289,0,0,6.719289,-49.781331,-48.003802)"
       gradientUnits="userSpaceOnUse"><stop
         stop-color="#dbdbdb"
         offset="0"
         id="stop7"
         style="stop-color:#8f8f8f;stop-opacity:1;" /><stop
         stop-color="#f5f5f5"
         offset="1"
         id="stop8"
         style="stop-color:#c2c2c2;stop-opacity:1;" /></linearGradient></defs><circle
     cx="32"
     cy="32"
     r="32"
     fill="url(#radialGradient1042)"
     stroke-width="7.55911"
     id="circle11"
     style="fill:url(#radialGradient1042)" /><circle
     cx="32"
     cy="32"
     r="28.444445"
     fill="url(#linearGradient1033)"
     stroke-width="6.71929"
     id="circle12"
     style="fill:url(#linearGradient1033)" /><path
     d="m 43.258826,14 c -3.705882,0 -6.705882,3 -6.705882,6.705882 0,0.32647 0.02647,0.661766 0.07059,0.988236 l -11.241177,5.461765 c -1.244119,-1.191177 -2.911766,-1.861765 -4.641178,-1.861765 -3.705882,0 -6.705882,3 -6.705882,6.705882 0,3.70588 3,6.70588 6.705882,6.70588 1.74706,0 3.42353,-0.67941 4.67647,-1.88823 l 11.188237,5.62941 c -0.03531,0.28235 -0.05295,0.5647 -0.05295,0.84706 0,3.70588 3,6.70588 6.705882,6.70588 3.705882,0 6.705882,-3 6.705882,-6.70588 5e-6,-3.70588 -2.999995,-6.70588 -6.705878,-6.70588 -1.711763,0 -3.361764,0.65294 -4.605881,1.83529 l -11.25,-5.664705 c 0.02647,-0.255884 0.04411,-0.502943 0.04411,-0.758825 0,-0.264707 -0.01762,-0.529412 -0.05295,-0.794117 L 38.758819,25.67353 c 1.226471,1.120587 2.832354,1.738235 4.500001,1.738235 3.705882,0 6.705882,-3 6.705882,-6.705883 C 49.964709,17 46.964709,14 43.258826,14 Z m 0,0"
     fill="#222222"
     id="path1"
     style="stroke-width:2.25882;fill:#ffffff;fill-opacity:1" /></svg>
