<?xml version="1.0" encoding="UTF-8" standalone="no"?>
<svg
   width="64"
   height="64"
   version="1.1"
   id="svg12"
   sodipodi:docname="emblem-synchronizing.svg"
   xml:space="preserve"
   inkscape:version="1.4.2 (ebf0e940d0, 2025-05-08)"
   xmlns:inkscape="http://www.inkscape.org/namespaces/inkscape"
   xmlns:sodipodi="http://sodipodi.sourceforge.net/DTD/sodipodi-0.dtd"
   xmlns="http://www.w3.org/2000/svg"
   xmlns:svg="http://www.w3.org/2000/svg"><sodipodi:namedview
     id="namedview12"
     pagecolor="#ffffff"
     bordercolor="#111111"
     borderopacity="1"
     inkscape:showpageshadow="0"
     inkscape:pageopacity="0"
     inkscape:pagecheckerboard="1"
     inkscape:deskcolor="#d1d1d1"
     inkscape:zoom="4.5234375"
     inkscape:cx="41.782383"
     inkscape:cy="70.74266"
     inkscape:window-width="2560"
     inkscape:window-height="1371"
     inkscape:window-x="0"
     inkscape:window-y="0"
     inkscape:window-maximized="1"
     inkscape:current-layer="svg12" /><defs
     id="defs8"><linearGradient
       id="linearGradient1040"
       x1="7.9373"
       x2="7.9373"
       y1="15.081"
       y2="1.852"
       gradientTransform="scale(3.7796)"
       gradientUnits="userSpaceOnUse"><stop
         stop-color="#363636"
         offset="0"
         id="stop1" /><stop
         stop-color="#6c6c6c"
         offset="1"
         id="stop2" /></linearGradient><linearGradient
       id="linearGradient1042"
       x1="399.57"
       x2="399.57"
       y1="545.8"
       y2="517.8"
       gradientTransform="matrix(2.1429,0,0,2.1429,-826.36,-1107.5)"
       gradientUnits="userSpaceOnUse"><stop
         stop-color="#3889e9"
         offset="0"
         id="stop3" /><stop
         stop-color="#5ea5fb"
         offset="1"
         id="stop4" /></linearGradient><radialGradient
       id="radialGradient1042"
       cx="12.171"
       cy="12.171"
       r="4.7624"
       gradientTransform="matrix(6.719289,0,0,6.719289,-49.781331,-49.781327)"
       gradientUnits="userSpaceOnUse"><stop
         offset="0"
         id="stop5" /><stop
         stop-opacity="0"
         offset="1"
         id="stop6" /></radialGradient><linearGradient
       id="linearGradient1033"
       x1="11.993"
       x2="11.993"
       y1="15.289"
       y2="8.3841"
       gradientTransform="matrix(6.719289,0,0,6.719289,-49.781331,-48.003802)"
       gradientUnits="userSpaceOnUse"><stop
         stop-color="#dbdbdb"
         offset="0"
         id="stop7"
         style="stop-color:#8f8f8f;stop-opacity:1;" /><stop
         stop-color="#f5f5f5"
         offset="1"
         id="stop8"
         style="stop-color:#c2c2c2;stop-opacity:1;" /></linearGradient></defs><circle
     cx="32"
     cy="32"
     r="32"
     fill="url(#radialGradient1042)"
     stroke-width="7.55911"
     id="circle11"
     style="fill:url(#radialGradient1042)" /><circle
     cx="32"
     cy="32"
     r="28.444445"
     fill="url(#linearGradient1033)"
     stroke-width="6.71929"
     id="circle12"
     style="fill:url(#linearGradient1033)" /><g
     fill="#222222"
     id="g2"
     transform="matrix(2.5714286,0,0,2.5714286,11.428571,10.142857)"
     style="fill:#ffffff;fill-opacity:1"><path
       d="M 7.960938,1.992188 C 7.882812,1.992188 7.800781,1.996094 7.71875,2 7.53125,2.011719 7.34375,2.03125 7.15625,2.0625 5.574219,2.289062 4.148438,3.128906 3.1875,4.40625 2.382812,5.480469 2.003906,6.738281 2.007812,7.992188 h 2.003907 c 0,-0.832032 0.253906,-1.675782 0.796875,-2.398438 C 6.144531,3.816406 8.628906,3.480469 10.40625,4.8125 10.835938,5.132812 11.175781,5.546875 11.4375,6 H 10 C 9.449219,6 9,6.449219 9,7 v 1 h 6 V 2 H 14 C 13.449219,2 13,2.449219 13,3 V 4.6875 C 11.886719,2.992188 9.992188,1.976562 7.960938,1.992188 Z m 0,0"
       id="path1"
       style="fill:#ffffff;fill-opacity:1" /><path
       d="m 8.035156,15.007812 c 0.082032,0 0.164063,-0.0039 0.246094,-0.0078 0.1875,-0.01172 0.375,-0.03125 0.5625,-0.0625 1.582031,-0.226562 3.007812,-1.066406 3.96875,-2.34375 0.804688,-1.074219 1.183594,-2.332031 1.179688,-3.585938 h -2.003907 c -0.0039,0.83202 -0.257812,1.67577 -0.800781,2.398426 C 9.855469,13.183594 7.371094,13.519531 5.59375,12.191406 5.164062,11.867188 4.824219,11.453125 4.5625,11 H 6 c 0.550781,0 1,-0.449219 1,-1 V 9 H 1 v 6 h 1 c 0.550781,0 1,-0.449219 1,-1 v -1.6875 c 1.113281,1.695312 3.007812,2.710938 5.035156,2.695312 z m 0,0"
       id="path2"
       style="fill:#ffffff;fill-opacity:1" /></g></svg>
