<?xml version="1.0" encoding="UTF-8" standalone="no"?>
<svg
   width="64"
   height="64"
   version="1.1"
   id="svg12"
   sodipodi:docname="emblem-symbolic-link.svg"
   xml:space="preserve"
   inkscape:version="1.4.2 (ebf0e940d0, 2025-05-08)"
   xmlns:inkscape="http://www.inkscape.org/namespaces/inkscape"
   xmlns:sodipodi="http://sodipodi.sourceforge.net/DTD/sodipodi-0.dtd"
   xmlns="http://www.w3.org/2000/svg"
   xmlns:svg="http://www.w3.org/2000/svg"><sodipodi:namedview
     id="namedview12"
     pagecolor="#ffffff"
     bordercolor="#111111"
     borderopacity="1"
     inkscape:showpageshadow="0"
     inkscape:pageopacity="0"
     inkscape:pagecheckerboard="1"
     inkscape:deskcolor="#d1d1d1"
     inkscape:zoom="9.046875"
     inkscape:cx="45.982729"
     inkscape:cy="36.034542"
     inkscape:window-width="2560"
     inkscape:window-height="1371"
     inkscape:window-x="0"
     inkscape:window-y="0"
     inkscape:window-maximized="1"
     inkscape:current-layer="svg12" /><defs
     id="defs8"><linearGradient
       id="linearGradient1040"
       x1="7.9373"
       x2="7.9373"
       y1="15.081"
       y2="1.852"
       gradientTransform="scale(3.7796)"
       gradientUnits="userSpaceOnUse"><stop
         stop-color="#363636"
         offset="0"
         id="stop1" /><stop
         stop-color="#6c6c6c"
         offset="1"
         id="stop2" /></linearGradient><linearGradient
       id="linearGradient1042"
       x1="399.57"
       x2="399.57"
       y1="545.8"
       y2="517.8"
       gradientTransform="matrix(2.1429,0,0,2.1429,-826.36,-1107.5)"
       gradientUnits="userSpaceOnUse"><stop
         stop-color="#3889e9"
         offset="0"
         id="stop3" /><stop
         stop-color="#5ea5fb"
         offset="1"
         id="stop4" /></linearGradient><radialGradient
       id="radialGradient1042"
       cx="12.171"
       cy="12.171"
       r="4.7624"
       gradientTransform="matrix(6.719289,0,0,6.719289,-49.781331,-49.781327)"
       gradientUnits="userSpaceOnUse"><stop
         offset="0"
         id="stop5" /><stop
         stop-opacity="0"
         offset="1"
         id="stop6" /></radialGradient><linearGradient
       id="linearGradient1033"
       x1="11.993"
       x2="11.993"
       y1="15.289"
       y2="8.3841"
       gradientTransform="matrix(6.719289,0,0,6.719289,-49.781331,-48.003802)"
       gradientUnits="userSpaceOnUse"><stop
         stop-color="#dbdbdb"
         offset="0"
         id="stop7"
         style="stop-color:#8f8f8f;stop-opacity:1;" /><stop
         stop-color="#f5f5f5"
         offset="1"
         id="stop8"
         style="stop-color:#c2c2c2;stop-opacity:1;" /></linearGradient></defs><circle
     cx="32"
     cy="32"
     r="32"
     fill="url(#radialGradient1042)"
     stroke-width="7.55911"
     id="circle11"
     style="fill:url(#radialGradient1042)" /><circle
     cx="32"
     cy="32"
     r="28.444445"
     fill="url(#linearGradient1033)"
     stroke-width="6.71929"
     id="circle12"
     style="fill:url(#linearGradient1033)" /><g
     fill="#222222"
     id="g2"
     transform="matrix(3.2715656,0,0,3.2715656,4.1980822,7.463258)"
     style="fill:#ffffff;fill-opacity:1"><path
       d="M 12,10 V 3 l 1,1 H 6 C 5.449219,4 5,3.550781 5,3 5,2.449219 5.449219,2 6,2 h 7 c 0.550781,0 1,0.449219 1,1 v 7 c 0,0.550781 -0.449219,1 -1,1 -0.550781,0 -1,-0.449219 -1,-1 z m 0,0"
       id="path1"
       style="fill:#ffffff;fill-opacity:1" /><path
       d="m 13.707031,3.707031 -9.003906,9 c -0.390625,0.390625 -1.023437,0.390625 -1.414063,0 -0.390624,-0.390625 -0.390624,-1.023437 0,-1.414062 l 9.003907,-9 c 0.390625,-0.390625 1.023437,-0.390625 1.414062,0 0.390625,0.390625 0.390625,1.023437 0,1.414062 z m 0,0"
       id="path2"
       style="fill:#ffffff;fill-opacity:1" /></g></svg>
