<?xml version="1.0" encoding="UTF-8"?>
<svg id="svg1" width="22" height="22" version="1.1" xmlns="http://www.w3.org/2000/svg">
 <defs id="defs1">
  <style id="current-color-scheme" type="text/css">.ColorScheme-Text { color:#363636; }</style>
 </defs>
 <path id="path28-7" d="m11 4.8735c-3.3834 0-6.1263 2.7416-6.1289 6.1247v4.743c0.00189 0.76786 0.6247 1.39 1.3933 1.39 0.00189 0 0.00484-2.02e-4 0.0066-2.02e-4v2.02e-4h4.7311c3.3838-0.0016 6.1267-2.7447 6.1267-6.1288 0-3.3849-2.744-6.1289-6.1289-6.1289zm1.2424 2.5217v5.4e-5c1.0293 0 2.0012 0.78921 2.0012 1.8762 0 0.10083-0.0013 0.20106-0.01723 0.31576-0.02848 0.28909-0.29252 0.49627-0.58019 0.45544-0.28795-0.04124-0.48348-0.31391-0.42997-0.59964 0.0045-0.032213 0.0066-0.083594 0.0066-0.17155 0-0.61617-0.50337-0.85436-0.98051-0.85436-0.47685 0-0.90668 0.39993-0.90831 0.8532v1.569l0.88471-0.0064c0.69067-0.01449 0.69774 1.0267 0.0071 1.0218l-0.89178 0.0048-0.0064 1.4637c-0.10672 1.1488-1.0848 2.0676-2.2598 2.0676-1.2454 0-2.2728-1.0188-2.2728-2.2672 0.037494-1.2843 1.0638-2.2942 2.353-2.2821l0.71813-0.0048v1.0203l-0.7241 0.0064c-0.7087 0.02093-1.3147 0.50152-1.3263 1.2604 0 0.69182 0.55917 1.2454 1.2524 1.2454 0.69259 0 1.2455-0.50382 1.2455-1.244v-3.8593c3.36e-4 -0.071512 0.0037-0.12885 0.01191-0.20786 0.11641-0.94428 0.96072-1.6639 1.9166-1.6639z" fill="#363636"/>
</svg>
