<?xml version="1.0" encoding="UTF-8" standalone="no"?>
<svg
   width="22"
   height="22"
   version="1.1"
   id="svg1"
   sodipodi:docname="start-here-symbolic.svg"
   inkscape:version="1.3.2 (091e20ef0f, 2023-11-25)"
   xmlns:inkscape="http://www.inkscape.org/namespaces/inkscape"
   xmlns:sodipodi="http://sodipodi.sourceforge.net/DTD/sodipodi-0.dtd"
   xmlns="http://www.w3.org/2000/svg"
   xmlns:svg="http://www.w3.org/2000/svg">
  <sodipodi:namedview
     id="namedview1"
     pagecolor="#ffffff"
     bordercolor="#111111"
     borderopacity="1"
     inkscape:showpageshadow="0"
     inkscape:pageopacity="0"
     inkscape:pagecheckerboard="1"
     inkscape:deskcolor="#d1d1d1"
     inkscape:zoom="36.5"
     inkscape:cx="11"
     inkscape:cy="11"
     inkscape:window-width="1920"
     inkscape:window-height="1011"
     inkscape:window-x="0"
     inkscape:window-y="0"
     inkscape:window-maximized="1"
     inkscape:current-layer="svg1" />
  <defs
     id="defs1">
    <style
       id="current-color-scheme"
       type="text/css">.ColorScheme-Text { color:#363636; }</style>
  </defs>
  <path
     id="path28-7"
     style="display:inline;fill:#363636;fill-opacity:1;fill-rule:nonzero;stroke:none;stroke-width:0.0729622"
     d="m 11.000048,4.8734749 c -3.3833797,0 -6.1263061,2.7416131 -6.1288928,6.1246691 v 4.743018 c 0.00189,0.767865 0.6246963,1.390025 1.3933273,1.390025 0.00189,0 0.00484,-2.02e-4 0.0066,-2.02e-4 v 2.02e-4 h 4.7310615 c 3.383761,-0.0016 6.12672,-2.744674 6.12672,-6.128775 0,-3.3848609 -2.743983,-6.1288559 -6.12889,-6.1288559 z m 1.24242,2.5217376 v 5.4e-5 c 1.029256,0 2.00123,0.7892051 2.00123,1.8761596 0,0.1008304 -0.0013,0.201064 -0.01723,0.3157589 -0.02848,0.2890878 -0.292523,0.496271 -0.580187,0.45544 -0.287949,-0.04124 -0.483481,-0.3139073 -0.429974,-0.5996443 0.0045,-0.032213 0.0066,-0.083594 0.0066,-0.1715546 0,-0.6161667 -0.503374,-0.8543566 -0.980507,-0.8543566 -0.47685,0 -0.906684,0.3999349 -0.908314,0.8531968 V 10.8393 l 0.884713,-0.0064 c 0.690673,-0.01449 0.697741,1.026701 0.0071,1.021803 l -0.891778,0.0048 -0.0064,1.463712 c -0.106724,1.148805 -1.084801,2.067605 -2.2598033,2.067605 -1.2453806,0 -2.2727651,-1.018789 -2.2727651,-2.267233 0.037494,-1.284297 1.0637522,-2.294182 2.3529564,-2.282084 l 0.7181251,-0.0048 v 1.020257 l -0.7241039,0.0064 c -0.7086995,0.02093 -1.314652,0.501518 -1.326259,1.260362 0,0.691822 0.5591746,1.245446 1.2524363,1.245446 0.6925915,0 1.2455245,-0.503824 1.2455245,-1.243965 V 9.2658585 c 3.36e-4,-0.071512 0.0037,-0.1288531 0.01191,-0.2078586 0.116408,-0.9442813 0.960716,-1.663871 1.916613,-1.663871 z" />
</svg>
