<?xml version="1.0" encoding="UTF-8"?>
<svg id="svg1" width="16" height="16" version="1.1" xmlns="http://www.w3.org/2000/svg">
 <path id="path1" d="m7.1858 0.078496a0.56953 0.56953 0 0 0-0.3359 0.51831v6.0196l-3.1143-1.9465a0.56947 0.56947 0 0 0-0.78525 0.18018 0.56947 0.56947 0 0 0 0.18018 0.78525l3.7194 2.3246v0.080083l-3.7194 2.3246a0.56947 0.56947 0 0 0-0.18018 0.78525 0.56947 0.56947 0 0 0 0.78525 0.18018l3.1143-1.9465v6.0196a0.56953 0.56953 0 0 0 0.94764 0.42488l5.1253-4.5558a0.56953 0.56953 0 0 0-0.07563-0.9076l-3.7839-2.3647 3.7839-2.3647a0.56953 0.56953 0 0 0 0.07564-0.90761l-5.1253-4.5558a0.56953 0.56953 0 0 0-0.61174-0.093429zm0.80305 1.7863 3.6104 3.2077-3.6104 2.2557zm0 6.807 3.6104 2.2557-3.6104 3.2077z" fill="#dedede" opacity=".35" stroke-width="1.1389"/>
 <rect id="rect1" transform="rotate(45)" x=".53056" y="-.53062" width="21.55" height="1.0775" rx=".53875" ry=".53875" fill="#dedede" stroke-linecap="round" stroke-linejoin="round" stroke-width=".52051" style="paint-order:markers stroke fill"/>
</svg>
