<?xml version="1.0" encoding="UTF-8"?>
<svg id="svg3" width="16px" height="16px" version="1.1" viewBox="0 0 16 16" xmlns="http://www.w3.org/2000/svg">
 <path id="path1" d="m7.4061 0a0.57165 0.57165 0 0 0-0.21212 0.049121 0.57165 0.57165 0 0 0-0.33715 0.52024v5.1443h1.1432v-3.8716l3.6238 3.2196-1.0427 0.65196h2.1568l0.13843-0.087078a0.57165 0.57165 0 0 0 0.07592-0.91097l-5.1443-4.5727a0.57165 0.57165 0 0 0-0.4019-0.1429zm-3.8828 4.5772a0.57159 0.57159 0 0 0-0.58052 0.26124 0.57159 0.57159 0 0 0 0.18085 0.78816l0.13843 0.087078h2.1591l-1.6902-1.0561a0.57159 0.57159 0 0 0-0.20765-0.080379zm-0.26124 5.7091-0.13843 0.087077a0.57159 0.57159 0 0 0-0.18085 0.78816 0.57159 0.57159 0 0 0 0.78816 0.18085l1.6902-1.0561h-2.1591zm3.5947 0v5.1443a0.57165 0.57165 0 0 0 0.95116 0.42646l5.1443-4.5727a0.57165 0.57165 0 0 0-0.07591-0.91097l-0.13842-0.087075h-2.1568l1.0427 0.65196-3.6238 3.2196v-3.8716h-1.1432z" fill="#dedede" opacity=".35" stroke-width="1.1432"/>
 <circle id="circle1" cx="8" cy="7.9999" r="1.1432" fill="#dedede" stop-color="#000000" stroke-linecap="round" stroke-linejoin="round" stroke-width="2.2864"/>
 <circle id="circle2" cx="3.4273" cy="7.9999" r="1.1432" fill="#dedede" stop-color="#000000" stroke-linecap="round" stroke-linejoin="round" stroke-width="2.2864"/>
 <circle id="circle3" cx="12.573" cy="7.9999" r="1.1432" fill="#dedede" stop-color="#000000" stroke-linecap="round" stroke-linejoin="round" stroke-width="2.2864"/>
</svg>
