<?xml version="1.0" encoding="UTF-8"?>
<svg width="16" height="16" version="1.1" xmlns="http://www.w3.org/2000/svg">
 <g transform="translate(-833 115)" fill="#dedede" fill-rule="evenodd">
  <path d="M841.5-114a.5.5 0 1 0 0 1h3.793l-4.793 4.793-4.646-4.647a.5.5 0 1 0-.707.708l5.353 5.353 5.5-5.5v3.793a.5.5 0 1 0 1 0v-5.5z" font-family="sans-serif" font-weight="400" overflow="visible" style="font-feature-settings:normal;font-variant-alternates:normal;font-variant-caps:normal;font-variant-ligatures:normal;font-variant-numeric:normal;font-variant-position:normal;isolation:auto;mix-blend-mode:normal;shape-padding:0;text-decoration-color:#000;text-decoration-line:none;text-decoration-style:solid;text-indent:0;text-orientation:mixed;text-transform:none" white-space="normal"/>
  <path d="M834-101c0 1 1 1 1 1h2s1 0 1-1v-.5c0-1.5 2-1.5 2-1.5h2s2 0 2 1.5v.5c0 1 1 1 1 1h2s1 0 1-1v-1c0-3.5-5.5-3-5.5-3h-3s-5.5-.5-5.5 3z" opacity=".4"/>
 </g>
</svg>
