<?xml version="1.0" encoding="UTF-8"?>
<svg id="svg2" width="16" height="16" version="1.1" xmlns="http://www.w3.org/2000/svg">
 <path id="path1" d="m4.667 7.5c-0.553 0-0.667 0.22414-0.667 0.5s0.114 0.5 0.667 0.5c0.035 0 0.07-0.0015 0.105-0.00375 0.026 7.496e-4 0.05 0.00375 0.077 0.00375h6.302c0.026 0 0.05-3e-3 0.074-0.00375 0.036 0.00225 0.072 0.00375 0.108 0.00375 0.553 0 0.667-0.22414 0.667-0.5s-0.114-0.5-0.667-0.5c-0.035 0-0.07 0.0015-0.105 0.00375-0.026-7.496e-4 -0.05-0.00375-0.077-0.00375h-6.301c-0.026 0-0.05 3e-3 -0.074 0.00375a1.49 1.1169 0 0 0-0.108-0.00375z" display="none" fill="#dedede" stroke-width=".86581"/>
 <path id="path2" d="m0.14153 8.3799 2.9889 3.4517c0.18936 0.21992 0.49832 0.22092 0.69067 3e-3a0.61592 0.61778 0 0 0 0.00199-0.79171l-2.6441-3.0539 2.665-3.0319a0.61692 0.61877 0 0 0 0.00199-0.79171 0.44649 0.44784 0 0 0-0.69067-3e-3l-3.0108 3.4278a0.59898 0.60078 0 0 0-0.14451 0.39486c0 0.14295 0.046842 0.2869 0.14152 0.39686zm15.717-0.75972-2.9889-3.4517a0.44649 0.44784 0 0 0-0.69067-3e-3 0.61592 0.61778 0 0 0-2e-3 0.79171l2.6441 3.0539-2.664 3.0319a0.61692 0.61877 0 0 0-2e-3 0.79171c0.18936 0.21992 0.49832 0.21992 0.69067 3e-3l3.0098-3.4268a0.59898 0.60078 0 0 0 0.14451-0.39486 0.59997 0.60178 0 0 0-0.14152-0.39686z" display="none" fill="#dedede" stroke-width="1.4972"/>
 <path id="path1-3" d="m6.2857 0c-0.63314 0-1.1429 0.50971-1.1429 1.1429v3.4286c0 0.63314 0.50971 1.1429 1.1429 1.1429h1.1429v1.1429h-2.8571c-1.2663 0-2.2857 1.0194-2.2857 2.2857v1.1429h-1.1429c-0.63314 0-1.1429 0.50972-1.1429 1.1429v3.4286c0 0.63314 0.50971 1.1429 1.1429 1.1429h3.4286c0.63314 0 1.1429-0.50971 1.1429-1.1429v-3.4286c0-0.63314-0.50971-1.1429-1.1429-1.1429h-1.1429v-1.1429c0-0.63314 0.50971-1.1429 1.1429-1.1429h6.8571c0.63314 0 1.1429 0.50971 1.1429 1.1429v1.1429h-1.1429c-0.63314 0-1.1429 0.50972-1.1429 1.1429v3.4286c0 0.63314 0.50972 1.1429 1.1429 1.1429h3.4286c0.63314 0 1.1429-0.50971 1.1429-1.1429v-3.4286c0-0.63314-0.50971-1.1429-1.1429-1.1429h-1.1429v-1.1429c0-1.2663-1.0194-2.2857-2.2857-2.2857h-2.8571v-1.1429h1.1429c0.63314 0 1.1429-0.50971 1.1429-1.1429v-3.4286c0-0.63314-0.50971-1.1429-1.1429-1.1429zm0 1.1429h3.4286v3.4286h-3.4286zm-5.1429 10.286h3.4286v3.4286h-3.4286zm10.286 0h3.4286v3.4286h-3.4286z" fill="#dedede" stroke-width="1.1429"/>
</svg>
