<?xml version="1.0" encoding="UTF-8"?>
<svg id="svg8" width="16" height="16" version="1.1" xmlns="http://www.w3.org/2000/svg">
 <path id="path1" d="m4.5714 6.8571a1.1429 1.1429 0 1 0 0 2.2857 1.1429 1.1429 0 0 0 0-2.2857zm3.4286 0a1.1429 1.1429 0 1 0 0 2.2857 1.1429 1.1429 0 0 0 0-2.2857zm3.4286 0a1.1429 1.1429 0 1 0 0 2.2857 1.1429 1.1429 0 0 0 0-2.2857z" fill="#dedede" stroke-width="1.1429"/>
 <g id="g8" transform="translate(0,2)" display="none" fill="#dedede" stroke-width="1.5">
  <g id="g4" transform="matrix(.43738 0 0 .5 -145.4 -266.68)">
   <g id="g3" transform="matrix(0,-1.0825,-1.0825,0,1464.7,557.15)" fill="#dedede" stroke-width="1.5">
    <g id="g2" transform="matrix(.00011827 .032712 -.032712 .00011827 18.269 1034.4)" fill="#dedede" stroke-width="1.5">
     <path id="path2" d="m345.44 248.29-194.29 194.28c-12.359 12.365-32.397 12.365-44.75 0-12.354-12.354-12.354-32.391 0-44.744l171.91-171.91-171.91-171.9c-12.354-12.359-12.354-32.394 0-44.748 12.354-12.359 32.391-12.359 44.75 0l194.29 194.28c6.177 6.18 9.262 14.271 9.262 22.366 0 8.099-3.091 16.196-9.267 22.373z" fill="#dedede" stroke-width="1.5"/>
    </g>
   </g>
  </g>
  <g id="g7" transform="matrix(-.43738 0 0 -.5 161.4 278.68)">
   <g id="g6" transform="matrix(0,-1.0825,-1.0825,0,1464.7,557.15)" fill="#dedede" stroke-width="1.5">
    <g id="g5" transform="matrix(.00011827 .032712 -.032712 .00011827 18.269 1034.4)" fill="#dedede" stroke-width="1.5">
     <path id="path4" d="m345.44 248.29-194.29 194.28c-12.359 12.365-32.397 12.365-44.75 0-12.354-12.354-12.354-32.391 0-44.744l171.91-171.91-171.91-171.9c-12.354-12.359-12.354-32.394 0-44.748 12.354-12.359 32.391-12.359 44.75 0l194.29 194.28c6.177 6.18 9.262 14.271 9.262 22.366 0 8.099-3.091 16.196-9.267 22.373z" fill="#dedede" stroke-width="1.5"/>
    </g>
   </g>
  </g>
 </g>
 <path id="path1-3" d="m6.2857 0c-0.63314 0-1.1429 0.50971-1.1429 1.1429v3.4286c0 0.63314 0.50972 1.1429 1.1429 1.1429h3.4286c0.63314 0 1.1429-0.50972 1.1429-1.1429v-3.4286c0-0.63314-0.50972-1.1429-1.1429-1.1429zm0 1.1429h3.4286v3.4286h-3.4286zm-5.1429 9.1429c-0.63314 0-1.1429 0.50972-1.1429 1.1429v3.4286c0 0.63314 0.50971 1.1429 1.1429 1.1429h3.4286c0.63314 0 1.1429-0.50972 1.1429-1.1429v-3.4286c0-0.63314-0.50972-1.1429-1.1429-1.1429h-2.2857zm10.286 0c-0.63314 0-1.1429 0.50972-1.1429 1.1429v3.4286c0 0.63314 0.50972 1.1429 1.1429 1.1429h3.4286c0.63314 0 1.1429-0.50972 1.1429-1.1429v-3.4286c0-0.63314-0.50972-1.1429-1.1429-1.1429h-2.2857zm-10.286 1.1429h3.4286v3.4286h-3.4286zm10.286 0h3.4286v3.4286h-3.4286z" fill="#dedede" stroke-width="1.1429"/>
</svg>
