<?xml version="1.0" encoding="UTF-8"?>
<svg width="16" height="16" version="1" xmlns="http://www.w3.org/2000/svg">
 <path d="m1.6347 7.1666s1.478-2.4192 4.3663-2.6695v-0.8776c-3.1991 0.291-6.001 3.3623-6.001 3.3623s1.6006 5.1422 6.001 5.6122v-0.933c-3.2292-0.461-4.3663-4.4952-4.3663-4.4952zm4.3663 2.6393v0.8541c-2.4406-0.493-3.1495-3.3691-3.1495-3.3691s1.2033-1.4717 3.1496-1.7103v0.9375c-0.0012 0-2e-3 -4e-4 -3e-3 -4e-4 -1.0215-0.139-1.851 0.9429-1.851 0.9429s0.4788 1.8207 1.8547 2.3444m0-7.805v1.6188c0.0939-0.0081 0.1563-0.015 0.2507-0.0187 3.637-0.1389 6.0075 3.3812 6.0075 3.3812s-2.7225 3.7507-5.5581 3.7507c-0.2599 0-0.4716-0.026-0.7001-0.072v1.001c0.1953 0.028 0.3665 0.044 0.5779 0.044 2.6385 0 4.5473-1.527 6.3943-3.3349 0.307 0.2777 1.561 0.9549 1.819 1.2506-1.757 1.6673-5.8513 3.0113-8.1729 3.0113-0.2238 0-0.4072-0.015-0.6184-0.039v1.407h9.9983v-12h-9.9983zm0 3.5807v-1.0842c0.0929-0.0063 0.155-0.013 0.2507-0.0164 2.6153-0.0932 4.3315 2.5476 4.3315 2.5476s-1.8534 2.9179-3.8407 2.9179c-0.286 0-0.5109-0.0523-0.7417-0.1406v-3.2868c1.0182 0.1394 1.1916 0.6493 1.8041 1.8056l1.3615-1.301s-0.9943-1.4774-2.6694-1.4774c-0.1821-1e-4 -0.3248 0.0145-0.4959 0.0351" fill="#dedede"/>
</svg>
