<?xml version="1.0" encoding="UTF-8"?>
<svg width="16" height="16" xmlns="http://www.w3.org/2000/svg">
 <g transform="translate(-773 195)" fill="#dedede">
  <rect x="780.5" y="-195" width="1" height="5" rx=".5" ry=".5" overflow="visible"/>
  <rect transform="rotate(-90)" x="186.5" y="773" width="1" height="5" rx=".5" ry=".5" opacity=".578" overflow="visible"/>
  <rect transform="scale(-1)" x="-781.5" y="179" width="1" height="5" rx=".5" ry=".5" opacity=".335" overflow="visible"/>
  <rect transform="rotate(90)" x="-187.5" y="-789" width="1" height="5" rx=".5" ry=".5" opacity=".19" overflow="visible"/>
  <rect transform="rotate(-30)" x="769.37" y="220.55" width="1" height="5" rx=".5" ry=".5" opacity=".833" overflow="visible"/>
  <rect transform="rotate(-60)" x="551.95" y="574.87" width="1" height="5" rx=".5" ry=".5" opacity=".694" overflow="visible"/>
  <rect transform="rotate(240)" x="-229.05" y="761.87" width="1" height="5" rx=".5" ry=".5" opacity=".482" overflow="visible"/>
  <rect transform="rotate(210)" x="-583.37" y="544.45" width="1" height="5" rx=".5" ry=".5" opacity=".402" overflow="visible"/>
  <rect transform="rotate(150)" x="-770.37" y="-236.55" width="1" height="5" rx=".5" ry=".5" opacity=".28" overflow="visible"/>
  <rect transform="rotate(120)" x="-552.95" y="-590.87" width="1" height="5" rx=".5" ry=".5" opacity=".23" overflow="visible"/>
  <rect transform="rotate(60)" x="228.05" y="-777.87" width="1" height="5" rx=".5" ry=".5" opacity=".16" overflow="visible"/>
  <rect transform="rotate(30)" x="582.37" y="-560.45" width="1" height="5" rx=".5" ry=".5" opacity=".13" overflow="visible"/>
 </g>
</svg>
