<?xml version="1.0" encoding="UTF-8"?>
<svg width="16" height="16" xmlns="http://www.w3.org/2000/svg">
 <g transform="translate(-933 171)" color="#bebebe">
  <path d="m940.99-169.99c-3.857 0-7 3.142-7 7 0 3.857 3.143 7 7 7 3.858 0 7-3.143 7-7 0-3.858-3.142-7-7-7zm0 0.998a5.999 5.999 0 0 1 6.002 6.002 5.999 5.999 0 0 1-6.002 6.002 5.999 5.999 0 0 1-6.002-6.002 5.999 5.999 0 0 1 6.002-6.002z" fill="#dedede" font-family="Andale Mono" font-weight="400" overflow="visible" style="font-feature-settings:normal;font-variant-alternates:normal;font-variant-caps:normal;font-variant-ligatures:normal;font-variant-numeric:normal;font-variant-position:normal;isolation:auto;mix-blend-mode:normal;shape-padding:0;text-decoration-color:#000;text-decoration-line:none;text-decoration-style:solid;text-indent:0;text-orientation:mixed;text-transform:none" white-space="normal"/>
 </g>
</svg>
