<?xml version="1.0" encoding="UTF-8"?>
<svg width="16" height="16" xmlns="http://www.w3.org/2000/svg">
 <g transform="translate(-933 131)" fill="#dedede" font-weight="400">
  <path d="m940.98-129.94c-3.857 0-7 3.143-7 7 0 3.858 3.143 7 7 7 3.858 0 7-3.142 7-7 0-3.857-3.142-7-7-7zm0 0.99a6.005 6.005 0 0 1 6.008 6.01 6.005 6.005 0 0 1-6.008 6.01 6.007 6.007 0 0 1-6.01-6.01 6.007 6.007 0 0 1 6.01-6.01z" color="#bebebe" font-family="Andale Mono" overflow="visible" style="font-feature-settings:normal;font-variant-alternates:normal;font-variant-caps:normal;font-variant-ligatures:normal;font-variant-numeric:normal;font-variant-position:normal;isolation:auto;mix-blend-mode:normal;shape-padding:0;text-decoration-color:#000;text-decoration-line:none;text-decoration-style:solid;text-indent:0;text-orientation:mixed;text-transform:none" white-space="normal"/>
  <path d="m936.9-123.95v2h8.13v-2h-7.13z" font-family="sans-serif" overflow="visible" style="font-feature-settings:normal;font-variant-alternates:normal;font-variant-caps:normal;font-variant-ligatures:normal;font-variant-numeric:normal;font-variant-position:normal;isolation:auto;mix-blend-mode:normal;shape-padding:0;text-decoration-color:#000;text-decoration-line:none;text-decoration-style:solid;text-indent:0;text-orientation:mixed;text-transform:none" white-space="normal"/>
 </g>
</svg>
