<?xml version="1.0" encoding="UTF-8" standalone="no"?>
<svg
   width="16"
   height="16"
   version="1.1"
   id="svg4"
   sodipodi:docname="screenshot-window-symbolic.svg"
   inkscape:version="1.4.2 (ebf0e940d0, 2025-05-08)"
   xmlns:inkscape="http://www.inkscape.org/namespaces/inkscape"
   xmlns:sodipodi="http://sodipodi.sourceforge.net/DTD/sodipodi-0.dtd"
   xmlns="http://www.w3.org/2000/svg"
   xmlns:svg="http://www.w3.org/2000/svg">
  <defs
     id="defs4" />
  <sodipodi:namedview
     id="namedview4"
     pagecolor="#ffffff"
     bordercolor="#111111"
     borderopacity="1"
     inkscape:showpageshadow="0"
     inkscape:pageopacity="0"
     inkscape:pagecheckerboard="1"
     inkscape:deskcolor="#d1d1d1"
     inkscape:zoom="72.375"
     inkscape:cx="8"
     inkscape:cy="8"
     inkscape:window-width="2560"
     inkscape:window-height="1371"
     inkscape:window-x="0"
     inkscape:window-y="0"
     inkscape:window-maximized="1"
     inkscape:current-layer="svg4" />
  <g
     id="g4"
     transform="matrix(1.1428571,0,0,1.1428571,-1.1428571,-1.1428571)">
    <path
       d="M 3,1 C 1.892,1 1,1.892 1,3 v 10 c 0,1.108 0.892,2 2,2 h 10 c 1.108,0 2,-0.892 2,-2 V 3 C 15,1.892 14.108,1 13,1 Z m 0,1 h 10 c 0.55403,0 1,0.44597 1,1 v 10 c 0,0.55403 -0.44597,1 -1,1 H 3 C 2.44597,14 2,13.55403 2,13 V 3 C 2,2.44597 2.44597,2 3,2 Z"
       fill="#dedede"
       stroke-linecap="round"
       stroke-linejoin="round"
       id="path1" />
    <path
       d="M 4,5 C 3.44597,5 3,5.44597 3,6 V 8 H 4 V 6 H 6 V 5 Z m 6,0 v 1 h 2 v 2 h 1 V 6 C 13,5.44597 12.55402,5 12,5 Z m -7,5 v 2 c 0,0.55402 0.44597,1 1,1 H 6 V 12 H 4 v -2 z m 9,0 v 2 h -2 v 1 h 2 c 0.55402,0 1,-0.44598 1,-1 v -2 z"
       fill="#dedede"
       stroke-linecap="round"
       stroke-linejoin="round"
       id="path2" />
    <circle
       cx="3.5"
       cy="3.5"
       r="0.5"
       fill="#dedede"
       stroke-linecap="round"
       stroke-linejoin="round"
       id="circle2" />
    <circle
       cx="5.5"
       cy="3.5"
       r="0.5"
       fill="#dedede"
       stroke-linecap="round"
       stroke-linejoin="round"
       id="circle3" />
    <circle
       cx="7.5"
       cy="3.5"
       r="0.5"
       fill="#dedede"
       stroke-linecap="round"
       stroke-linejoin="round"
       id="circle4" />
  </g>
</svg>
