<?xml version="1.0" encoding="UTF-8"?>
<svg id="svg1" width="16" height="16" version="1.1" xmlns="http://www.w3.org/2000/svg">
 <defs id="defs1">
  <style id="current-color-scheme" type="text/css">.ColorScheme-Text { color:#dedede; }</style>
 </defs>
 <g id="layer1-3" transform="matrix(.070537 0 0 .070537 -26.261 -23.502)" fill="#dedede">
  <path id="path28-7" d="m485.71 355.28c-50.437 0-91.326 40.87-91.364 91.301v70.705c0.0281 11.447 9.3124 20.721 20.771 20.721 0.0282 0 0.0721-3e-3 0.0984-3e-3v3e-3h70.527c50.442-0.0234 91.332-40.915 91.332-91.363 0-50.459-40.905-91.364-91.364-91.364zm18.521 37.592v8.1e-4c15.343 0 29.833 11.765 29.833 27.968 0 1.5031-0.0188 2.9973-0.25677 4.7071-0.42449 4.3095-4.3607 7.398-8.6489 6.7893-4.2925-0.61471-7.2073-4.6795-6.4097-8.939 0.0675-0.4802 0.0984-1.2462 0.0984-2.5574 0-9.1853-7.5039-12.736-14.617-12.736-7.1085 0-13.516 5.9619-13.54 12.719v23.39l13.189-0.0961c10.296-0.21599 10.401 15.305 0.10541 15.232l-13.294 0.0722-0.0961 21.82c-1.591 17.125-16.171 30.822-33.687 30.822-18.565 0-33.88-15.187-33.88-33.798 0.55895-19.145 15.858-34.2 35.076-34.019l10.705-0.0721v15.209l-10.794 0.0961c-10.565 0.31203-19.598 7.4762-19.771 18.788 0 10.313 8.3357 18.566 18.67 18.566 10.325 0 18.567-7.5106 18.567-18.544v-57.532c5e-3 -1.0661 0.0553-1.9208 0.17757-3.0986 1.7353-14.077 14.322-24.804 28.571-24.804z" fill="#dedede"/>
 </g>
</svg>
