<?xml version="1.0" encoding="UTF-8" standalone="no"?>
<svg
   version="1.1"
   viewBox="0 0 32 32"
   id="svg1"
   sodipodi:docname="configure.svg"
   inkscape:version="1.3.2 (091e20ef0f, 2023-11-25)"
   xmlns:inkscape="http://www.inkscape.org/namespaces/inkscape"
   xmlns:sodipodi="http://sodipodi.sourceforge.net/DTD/sodipodi-0.dtd"
   xmlns="http://www.w3.org/2000/svg"
   xmlns:svg="http://www.w3.org/2000/svg">
  <sodipodi:namedview
     id="namedview1"
     pagecolor="#ffffff"
     bordercolor="#111111"
     borderopacity="1"
     inkscape:showpageshadow="0"
     inkscape:pageopacity="0"
     inkscape:pagecheckerboard="1"
     inkscape:deskcolor="#d1d1d1"
     inkscape:zoom="25.09375"
     inkscape:cx="16"
     inkscape:cy="16"
     inkscape:window-width="1920"
     inkscape:window-height="1011"
     inkscape:window-x="0"
     inkscape:window-y="0"
     inkscape:window-maximized="1"
     inkscape:current-layer="svg1" />
  <defs
     id="defs1">
    <style
       id="current-color-scheme"
       type="text/css">.ColorScheme-Text {
        color:#363636;
      }
      .ColorScheme-Highlight {
        color:#3daee9;
      }</style>
  </defs>
  <path
     d="m 15.99998,11.505407 a 4.4946949,4.4946949 0 0 0 -4.494695,4.494695 4.4946949,4.4946949 0 0 0 4.494695,4.494695 4.4946949,4.4946949 0 0 0 4.494694,-4.494695 4.4946949,4.4946949 0 0 0 -4.494694,-4.494695 z m 0,1.498232 a 2.9964633,2.9964633 0 0 1 2.996463,2.996463 2.9964633,2.9964633 0 0 1 -2.996463,2.996463 2.9964633,2.9964633 0 0 1 -2.996464,-2.996463 2.9964633,2.9964633 0 0 1 2.996464,-2.996463 z"
     fill="#363636"
     style="stroke-width:1.49823;paint-order:fill markers stroke"
     id="path1-5" />
  <path
     d="m 15.130855,4.0142488 c -0.33391,0 -0.802273,0.092405 -1.190974,0.4184561 C 13.55118,4.75875 13.365354,5.2386336 13.319523,5.5827175 l 0.02926,-0.1521604 -0.512096,2.1303355 C 12.62785,7.6375572 12.431192,7.7201247 12.23389,7.8096291 L 10.378629,6.6742542 a 1.4983815,1.4983815 0 0 0 -0.01169,-0.00586 C 10.099374,6.5076957 9.6563769,6.3406729 9.1788905,6.3991788 8.7014041,6.4576908 8.347342,6.7061965 8.1429982,6.8937151 a 1.4983815,1.4983815 0 0 0 -0.03804,0.035116 L 6.8759437,8.1373642 a 1.4983815,1.4983815 0 0 0 -0.055599,0.055599 C 6.5885529,8.4460898 6.3558326,8.8762321 6.3287446,9.3283385 6.3016565,9.7804449 6.4514198,10.14922 6.5891822,10.390555 a 1.4983815,1.4983815 0 0 0 0.02926,0.04682 l 1.1529342,1.858106 c -0.082897,0.181092 -0.1485197,0.37351 -0.225319,0.576475 L 5.436248,13.369414 a 1.4983815,1.4983815 0 0 0 -0.020481,0.0028 c -0.2425488,0.06072 -0.6587275,0.202442 -0.9919942,0.602799 -0.3332651,0.400432 -0.4096749,0.889605 -0.4096749,1.188128 v 1.720569 c 0,0.333491 0.09295,0.799127 0.4184561,1.188053 0.3255058,0.388925 0.8026326,0.574332 1.147091,0.620357 l -0.1492388,-0.02634 2.1331822,0.509159 c 0.070147,0.187714 0.1400247,0.368191 0.2194609,0.544278 L 6.6271938,21.60374 c -0.1542579,0.250804 -0.3212358,0.642067 -0.2809184,1.126595 0.040317,0.484528 0.3186139,0.931839 0.5881758,1.179272 l 1.173415,1.173415 c 0.2313419,0.231656 0.6130314,0.486266 1.0856336,0.544277 0.4726022,0.05801 0.9136062,-0.100186 1.1880532,-0.269217 l 1.875786,-1.155856 c 0.186035,0.08612 0.37234,0.166888 0.567694,0.239957 l 0.523797,2.144868 -0.02926,-0.158018 c 0.04641,0.348459 0.252617,0.858052 0.658398,1.176352 0.405781,0.318299 0.848538,0.380416 1.152934,0.380416 h 1.749934 c 0.304411,0 0.768189,-0.07542 1.164636,-0.395039 0.396447,-0.319618 0.570317,-0.771155 0.629137,-1.065153 l -0.01169,0.06144 0.523797,-2.142021 c 0.195654,-0.07395 0.383637,-0.154318 0.567695,-0.239957 l 1.861103,1.152934 a 1.4983815,1.4983815 0 0 0 0.003,0 c 0.274566,0.169195 0.715466,0.327214 1.188053,0.269217 0.472587,-0.05801 0.854277,-0.312666 1.085634,-0.544277 a 1.4983815,1.4983815 0 0 0 0.0058,-0.003 l 1.167572,-1.182194 c 0.252961,-0.232106 0.546165,-0.679806 0.588176,-1.173414 0.04201,-0.493607 -0.124339,-0.863386 -0.25458,-1.091492 a 1.4983815,1.4983815 0 0 0 -0.02634,-0.0439 l -1.152934,-1.866946 c 0.08057,-0.175773 0.151097,-0.356145 0.222397,-0.544278 l 2.139026,-0.512095 -0.149239,0.02634 c 0.348863,-0.04662 0.85573,-0.252482 1.173415,-0.658398 0.317685,-0.405916 0.380416,-0.845962 0.380416,-1.150013 v -1.720569 c 0,-0.270716 -0.046,-0.727796 -0.371636,-1.147076 -0.325641,-0.419295 -0.768623,-0.581254 -1.018333,-0.643775 a 1.4983815,1.4983815 0 0 0 -0.02048,-0.003 l -2.10981,-0.497458 c -0.07902,-0.205183 -0.142347,-0.399593 -0.225319,-0.579396 l 1.129532,-1.834734 C 25.527251,10.212505 25.710709,9.8281636 25.680086,9.3280239 25.649462,8.8278842 25.358595,8.3609753 25.088988,8.1136322 L 23.903857,6.9489969 C 23.687183,6.7321278 23.298631,6.4632402 22.821145,6.4047193 c -0.477471,-0.058522 -0.879507,0.094914 -1.123674,0.225319 a 1.4983815,1.4983815 0 0 0 -0.07608,0.043894 L 19.771974,7.8093069 C 19.584111,7.7225444 19.388007,7.6477227 19.183798,7.5693502 L 18.680482,5.5034386 C 18.625947,5.2127067 18.466039,4.7604355 18.065951,4.4266595 17.665878,4.0928835 17.185335,4.0140615 16.88082,4.0140615 h -1.749935 z m 0,1.4982316 h 1.749935 c 0.197212,0 0.289968,0.080471 0.324817,0.2662807 l 0.696438,2.8706118 c 0.754104,0.1858257 1.439111,0.4970683 2.019166,0.8222745 l 2.484368,-1.5216041 c 0.173975,-0.09292 0.299676,-0.080844 0.438937,0.058521 l 1.229014,1.2085335 c 0.139261,0.1277542 0.139531,0.2675542 0.03512,0.4301573 l -1.530444,2.4843679 c 0.278387,0.522643 0.627684,1.243847 0.801794,2.022013 l 2.853082,0.673036 c 0.185586,0.04646 0.25458,0.127454 0.25458,0.336518 v 1.720569 c 0,0.197422 -0.0806,0.301564 -0.25458,0.324816 l -2.864768,0.684737 c -0.17411,0.731677 -0.488649,1.441104 -0.813495,1.986955 l 1.54213,2.496054 c 0.0928,0.162528 0.09244,0.290672 -0.04682,0.418456 l -1.217313,1.231949 c -0.139261,0.139411 -0.279405,0.14849 -0.430158,0.0556 L 19.90945,22.540197 c -0.579995,0.360085 -1.241734,0.648046 -2.007331,0.833976 l -0.696438,2.858924 c -0.03485,0.17417 -0.127604,0.25458 -0.324816,0.25458 H 15.13093 c -0.197212,0 -0.301609,-0.08041 -0.324816,-0.25458 l -0.696438,-2.858924 c -0.730883,-0.174289 -1.438992,-0.473891 -2.007331,-0.833976 l -2.5048935,1.542129 c -0.150827,0.09289 -0.2909266,0.08381 -0.4301573,-0.0556 L 7.949981,22.806493 C 7.8107653,22.678709 7.8103458,22.538969 7.9031613,22.388037 l 1.5421298,-2.50774 C 9.1204595,19.322925 8.8175171,18.625108 8.6434975,17.893342 L 5.7787288,17.208605 C 5.6046897,17.185353 5.5124436,17.081211 5.5124436,16.883789 V 15.16322 c 0,-0.209049 0.08065,-0.290043 0.2662807,-0.336518 L 8.6346534,14.153666 C 8.808673,13.375515 9.1434978,12.654236 9.4335105,12.131653 L 7.8913807,9.6472851 C 7.7985652,9.484682 7.7988799,9.3447771 7.9264992,9.2054266 L 9.1555136,7.996893 C 9.2947293,7.8691388 9.4233525,7.8455417 9.5973721,7.9500733 l 2.4813709,1.521604 c 0.522074,-0.3251911 1.300031,-0.6481499 2.042539,-0.8339756 l 0.684737,-2.8589256 c 0.02321,-0.1741994 0.127605,-0.2662807 0.324817,-0.2662807 z"
     color="#000000"
     fill="#363636"
     stroke-linecap="round"
     stroke-linejoin="round"
     style="stroke-width:1.49823;-inkscape-stroke:none"
     id="path2" />
</svg>
