<?xml version="1.0" encoding="UTF-8"?>
<!-- Created with Inkscape (http://www.inkscape.org/) -->
<svg width="32" height="32" version="1.1" xmlns="http://www.w3.org/2000/svg" xmlns:xlink="http://www.w3.org/1999/xlink">
 <defs id="defs5455">
  <linearGradient id="linearGradient3028" x2="0" y1="545.8" y2="517.8" gradientTransform="translate(-1e-5 3e-5)" gradientUnits="userSpaceOnUse">
   <stop id="stop4145" stop-color="#197cf1" offset="0"/>
   <stop id="stop4147" stop-color="#20bcfa" offset="1"/>
  </linearGradient>
  <linearGradient id="linearGradient4211" x2="0" y1="537.8" y2="523.8" gradientTransform="translate(-385.57 -514.8)" gradientUnits="userSpaceOnUse">
   <stop id="stop4292" stop-color="#7cbaf8" offset="0"/>
   <stop id="stop4294" stop-color="#f4fcff" offset="1"/>
  </linearGradient>
  <linearGradient id="linearGradient4309" x1="9" x2="23" y1="9" y2="23" gradientUnits="userSpaceOnUse">
   <stop id="stop4229" stop-color="#292c2f" offset="0"/>
   <stop id="stop4231" stop-opacity="0" offset="1"/>
  </linearGradient>
 </defs>
 <g id="layer1" transform="translate(-384.57 -515.8)">
  <rect id="rect4130" x="386.57" y="517.8" width="28" height="28" rx="14" fill="url(#linearGradient3028)"/>
  <path id="path4297" transform="translate(384.57 515.8)" d="m18 10-1 1v2l2 2v1l-4-4h-1-2l-1 1v2l2 2v1h-2l-1 1-2 4 6.9473 6.9473c0.34867 0.025777 0.69726 0.052734 1.0527 0.052734 6.8204 0 12.466-4.8304 13.73-11.27l-8.7305-8.7305h-1-2z" fill="url(#linearGradient4309)" fill-rule="evenodd" opacity=".2"/>
  <path id="path4202" transform="translate(384.57 515.8)" d="m19 9.0996c-1.662 0-3 1.338-3 3 0 1.4542 1.025 2.6606 2.3945 2.9395-1.1642 0.14028-2.2016 0.67682-2.9766 1.4727a6 6 0 0 1 0.92969 0.51172c0.70627-0.62922 1.6277-1.0234 2.6523-1.0234 2.216 0 4 1.784 4 4h-4.3496a6 6 0 0 1 0.26367 1h5.0859v-1c0-2.5643-1.9131-4.663-4.3945-4.9609 1.3695-0.27882 2.3945-1.4852 2.3945-2.9395 0-1.662-1.338-3-3-3zm0 1c1.108 0 2 0.892 2 2s-0.892 2-2 2-2-0.892-2-2 0.892-2 2-2zm-6 0.90039c-1.662 0-3 1.338-3 3s1.338 3 3 3 3-1.338 3-3-1.338-3-3-3zm0 6c-2.77 0-5 2.23-5 5v1h10v-1c0-2.77-2.23-5-5-5zm0-5c1.108 0 2 0.892 2 2s-0.892 2-2 2-2-0.892-2-2 0.892-2 2-2zm0 6c2.216 0 4 1.784 4 4h-8c0-2.216 1.784-4 4-4z" fill="url(#linearGradient4211)"/>
 </g>
</svg>
