<?xml version="1.0" encoding="UTF-8"?>
<svg width="32" height="32" xmlns="http://www.w3.org/2000/svg" xmlns:xlink="http://www.w3.org/1999/xlink">
 <linearGradient id="a" x1="32" x2="-8" y1="-6" y2="32" gradientTransform="matrix(0 -.7 .64516 0 8.3548 24.4)" gradientUnits="userSpaceOnUse">
  <stop stop-color="#d8dcde" offset="0"/>
  <stop stop-color="#f9fafb" offset="1"/>
 </linearGradient>
 <linearGradient id="b" x1="8" x2="19" y1="8" y2="19" gradientUnits="userSpaceOnUse">
  <stop offset="0"/>
  <stop stop-opacity="0" offset="1"/>
 </linearGradient>
 <linearGradient id="c" x1="8" x2="13" y1="8" y2="13" gradientTransform="matrix(0 1 1 0 -2 -3)" gradientUnits="userSpaceOnUse" xlink:href="#b"/>
 <linearGradient id="d" x1="44.177" x2="44.106" y1="18.554" y2="1.8678" gradientTransform="matrix(-.0017625 .69563 .41203 -.002961 3.3081 -.6761)" gradientUnits="userSpaceOnUse">
  <stop stop-color="#c9963c" offset="0"/>
  <stop stop-color="#f6cd7b" offset="1"/>
 </linearGradient>
 <linearGradient id="e" x2="0" y1="8" y2="4" gradientTransform="matrix(0 -1 1 0 -2 44)" gradientUnits="userSpaceOnUse">
  <stop stop-color="#2f3943" offset="0"/>
  <stop stop-color="#4d5662" offset="1"/>
 </linearGradient>
 <linearGradient id="f" x1="8" x2="13" y1="8" y2="13" gradientTransform="matrix(0 1 1 0 -2 14)" gradientUnits="userSpaceOnUse" xlink:href="#b"/>
 <g stroke-linejoin="bevel" stroke-width="2">
  <path d="m9 30h20v-28h-20z" fill="url(#a)"/>
  <path d="m4 30v-28h5v28z" fill="url(#d)"/>
  <g stroke-linecap="round">
   <path d="m8 2v28h1v-28zm-3 2v7h1v-7zm0 17v7h1v-7z" fill="#c9963c"/>
   <path d="m2 5v5h4v-5zm0 17v5h4v-5z" fill="url(#e)"/>
  </g>
 </g>
 <path d="m6 5 3 3v5l-3-3z" fill="url(#c)" fill-rule="evenodd" opacity=".2"/>
 <path d="m11 6v1h3v-1zm4 0v1h1v-1zm-4 2v1h8v-1zm0 2v1h7v-1zm0 4v1h3v-1zm4 0v1h2v-1zm-4 2v1h8v-1zm0 2v1h7v-1zm0 3v1h3v-1zm4 0v1h1v-1zm-4 2v1h8v-1zm0 2v1h7v-1z" fill="#626363"/>
 <path d="m24 14v1h3v-1z" fill="#da4453"/>
 <path d="m6 22 3 3v5l-3-3z" fill="url(#f)" fill-rule="evenodd" opacity=".2"/>
 <g fill="#27ae60">
  <path d="m22 6v1h-1v1h1v1h1v-1h1v-1h-1v-1z"/>
  <path d="m22 21v1h-1v1h1v1h1v-1h1v-1h-1v-1z"/>
 </g>
</svg>
