<?xml version="1.0" encoding="UTF-8"?>
<svg width="32" height="32" viewBox="0 0 32 32" xmlns="http://www.w3.org/2000/svg" xmlns:xlink="http://www.w3.org/1999/xlink">
 <linearGradient id="a" x1="9" x2="9" y1="37" y2="40" gradientTransform="matrix(.88842 0 0 1 -3.9958 -1)" gradientUnits="userSpaceOnUse">
  <stop stop-color="#fcfcfc" stop-opacity=".8" offset="0"/>
  <stop stop-color="#fcfcfc" stop-opacity=".45" offset="1"/>
 </linearGradient>
 <linearGradient id="b" x1="2" x2="24" y1="38" y2="38" gradientUnits="userSpaceOnUse">
  <stop stop-color="#3daee9" offset="0"/>
  <stop stop-color="#2a7aaf" offset="1"/>
 </linearGradient>
 <linearGradient id="c" x1="14" x2="15" y1="43" y2="47" gradientUnits="userSpaceOnUse">
  <stop stop-color="#318bba" offset="0"/>
  <stop stop-color="#115c92" offset="1"/>
 </linearGradient>
 <linearGradient id="d" x1="23" x2="32.8" y1="16.7" y2="30" gradientUnits="userSpaceOnUse">
  <stop offset="0"/>
  <stop stop-opacity="0" offset="1"/>
 </linearGradient>
 <linearGradient id="e">
  <stop stop-opacity=".102" offset="0"/>
  <stop stop-opacity=".03" offset="1"/>
 </linearGradient>
 <linearGradient id="f" x1="30" x2="30" y1="4" y2="44" gradientTransform="matrix(.71429 0 0 .7 -1.4286 -.8)" gradientUnits="userSpaceOnUse">
  <stop stop-color="#fcfcfc" offset="0"/>
  <stop stop-color="#cacaca" offset="1"/>
 </linearGradient>
 <linearGradient id="g" x1="20" x2="20" y1="26" y2="30" gradientTransform="matrix(.6875 0 0 .75 -.75 12.5)" gradientUnits="userSpaceOnUse">
  <stop stop-color="#194d6f" offset="0"/>
  <stop stop-color="#0c3d61" offset="1"/>
 </linearGradient>
 <linearGradient id="h" x1="16" x2="16" y1="43" y2="4" gradientTransform="matrix(1 0 0 .69231 -6 -.76923)" gradientUnits="userSpaceOnUse" xlink:href="#e"/>
 <linearGradient id="i" x1="43" x2="43" y1="43" y2="4" gradientTransform="matrix(1 0 0 .69231 -14 -.76923)" gradientUnits="userSpaceOnUse" xlink:href="#e"/>
 <g stroke-linejoin="round">
  <path d="m10 2h20v28h-20z" fill="url(#f)"/>
  <g stroke-width="1.4286">
   <path d="m10 29h20v1h-20z" fill="#979797"/>
   <path d="m12 6v1h10v-1zm0 2v1h9v-1zm0 2v1h10v-1z" fill="#4d4d4d"/>
   <path d="m24 6v1h4v-1zm0 4v1h4v-1z" fill="#da4453"/>
   <path d="m24 8h4v1h-4z" fill="#27ae60"/>
  </g>
  <path d="m10 2h1v27h-1z" fill="url(#h)"/>
  <path d="m29 2h1v27h-1z" fill="url(#i)"/>
 </g>
 <path d="m23 16v14h7v-7.4102l-6.2949-6.2949z" fill="url(#d)" opacity=".1"/>
 <g transform="translate(0 -15)">
  <path d="m3 31c-.554 0-1 .446-1 1v8a1 1.5 0 0 1 1 1.5 1 1.5 0 0 1 -1 1.5v1c0 .554.446 1 1 1h20c.554 0 1-.446 1-1v-12c0-.554-.446-1-1-1z" fill="url(#b)" stroke-linejoin="round"/>
  <path d="m2 32h22v3h-22z" fill="url(#g)" stroke-width="1.4286"/>
  <g stroke-linejoin="round">
   <path d="m2 43v1c0 .554.446 1 1 1h20c.554 0 1-.446 1-1v-1c0 .554-.446 1-1 1h-20c-.554 0-1-.446-1-1z" fill="url(#c)"/>
   <rect x="4" y="36" width="4" height="3" rx=".5" fill="url(#a)"/>
   <path d="m6 41v1h3v-1zm4 0v1h3v-1zm4 0v1h3v-1zm4 0v1h3v-1z" fill="#1f5b83"/>
  </g>
 </g>
</svg>
