<?xml version="1.0" encoding="UTF-8"?>
<svg width="32" height="32" xmlns="http://www.w3.org/2000/svg">
 <style id="current-color-scheme" type="text/css">.ColorScheme-Text {
            color:#363636;
        }</style>
 <g id="system-search" transform="translate(-22 0)">
  <path id="path66" class="ColorScheme-Text" d="m35 4a9 9 0 0 0-9 9 9 9 0 0 0 9 9 9 9 0 0 0 5.9941-2.2988l8.2988 8.2988 0.70703-0.70703-8.3008-8.3008a9 9 0 0 0 2.3008-5.9922 9 9 0 0 0-9-9zm0 1a8 8 0 0 1 8 8 8 8 0 0 1-8 8 8 8 0 0 1-8-8 8 8 0 0 1 8-8z" fill="currentColor"/>
  <path id="path68" d="m22 0v32h32v-32z" fill="none"/>
 </g>
</svg>
