<?xml version="1.0" encoding="UTF-8"?>
<svg width="16" height="16" version="1.1" xmlns="http://www.w3.org/2000/svg">
 <defs>
  <style id="current-color-scheme" type="text/css">.ColorScheme-Text { color:#363636; } .ColorScheme-Highlight { color:#4285f4; }</style>
 </defs>
 <path class="ColorScheme-Text" d="m3.4629 0c0.79989-0.010607 1.5915 0.36267 2.084 1.0664 0.20076 0.28687 0.33321 0.60649 0.40039 0.93945h1.7324c2.0928 0 3.791 1.3955 3.791 3.4883 0 0.93932-0.34735 1.7332-0.91602 2.3262a2.5002 2.5002 0 0 1 0.19336 0.24609l0.79688 1.1387c0.89906-0.9737 1.4551-2.2662 1.4551-3.6934 0-3.0242-2.4624-5.4766-5.5-5.4766h-3.5957c-0.14581-0.024641-0.29352-0.036509-0.44141-0.035156zm-2.459 2.5195-0.0039062 0.0039063v0.035156c-2.756e-4 -0.012969 0.0039763-0.026075 0.0039062-0.039063zm-0.0039062 0.039063v9.916c-0.047813 3.3659 5.0478 3.3659 5 0v-1.4883h0.67969l-0.048828-0.070312c-0.0243-0.033778-0.038068-0.07265-0.060547-0.10742a2.5002 2.5002 0 0 1-0.066406-0.11524c-0.29597-0.51644-0.41215-1.1189-0.29883-1.709h-2.4121v3.6875c0.0076299 0.53942-0.80646 0.53942-0.79883 0v-7.7305c-0.60223-0.12509-1.1612-0.46501-1.541-1.0078-0.28718-0.41035-0.44273-0.88558-0.45312-1.375zm4.9707 0.24414c-0.00539 0.043712-0.0020556 0.087156-0.0097656 0.13086-0.116 0.65798-0.48055 1.2321-1.0273 1.6152-0.35052 0.24561-0.74278 0.37765-1.1406 0.42383v3.2129h0.79688 1.9141c0.011375-0.019294 0.046836-0.034458 0.064453-0.052734a2.5002 2.5002 0 0 1 2.0469-1.1621 2.5002 2.5002 0 0 1 1.3301 0.34766c0.4521-0.45411 0.72656-1.0738 0.72656-1.8242 0-1.6617-1.3305-2.6914-2.9922-2.6914h-1.0957-0.61328zm0.029297 1.2148h1.5c0.87581 0 1.5 0.6222 1.5 1.4941 0 0.72723-0.43949 1.3059-1.0918 1.4707-0.014557-0.0076334-0.035615-0.0073744-0.044922-0.021484l-1.8633 0.042969v-2.9863z" fill="currentColor" opacity=".3"/>
 <path class="ColorScheme-Text" d="m3.4551 0c-0.48153 0.0078845-0.96533 0.15474-1.3887 0.45117-0.54694 0.38274-0.91148 0.9559-1.0273 1.6133-0.11601 0.65738 0.031161 1.3204 0.41406 1.8672 0.79048 1.1289 2.3516 1.4057 3.4805 0.61523 0.54679-0.38289 0.91134-0.95771 1.0273-1.6152 0.11586-0.65708-0.031161-1.3185-0.41406-1.8652-0.49405-0.70554-1.2893-1.0795-2.0918-1.0664zm5.1602 6.9707a2.5002 2.5002 0 0 0-1.9629 3.9629l2.0996 3a2.5002 2.5002 0 1 0 4.0957-2.8672l-2.0996-3a2.5002 2.5002 0 0 0-2.1328-1.0957z" fill="currentColor"/>
</svg>
