<?xml version="1.0" encoding="UTF-8"?>
<svg viewBox="0 0 16 16" xmlns="http://www.w3.org/2000/svg">
 <defs id="defs3051">
  <style id="current-color-scheme" type="text/css">.ColorScheme-Text {
        color:#363636;
      }</style>
 </defs>
 <path class="ColorScheme-Text" transform="translate(-421.71-531.79)" d="m429.71 533.79a3 3 0 0 0-3 3 3 3 0 0 0 3 3 3 3 0 0 0 3-3 3 3 0 0 0-3-3m0 1a2 2 0 0 1 2 2 2 2 0 0 1-2 2 2 2 0 0 1-2-2 2 2 0 0 1 2-2m0 6a5 4.5 0 0 0-5 4.5 5 4.5 0 0 0 0.0332 0.5h9.93a5 4.5 0 0 0 0.0371-0.5 5 4.5 0 0 0-5-4.5m5e-5 1a4 3.5 0 0 1 3.9551 3h-7.91a4 3.5 0 0 1 3.9551-3" fill="currentColor"/>
</svg>
