<?xml version="1.0" encoding="UTF-8"?>
<svg viewBox="0 0 16 16" xmlns="http://www.w3.org/2000/svg">
 <defs id="defs3051">
  <style id="current-color-scheme" type="text/css">.ColorScheme-Text {
        color:#363636;
      }</style>
 </defs>
 <path class="ColorScheme-Text" d="m8 2a6 2 0 0 0-6 2v8a6 2 0 0 0 6 2 6 2 0 0 0 6-2v-8a6 2 0 0 0-6-2zm0 1a5 1 0 0 1 5 1 5 1 0 0 1-5 1 5 1 0 0 1-5-1 5 1 0 0 1 5-1zm-5 2.1a6 2 0 0 0 5 0.9 6 2 0 0 0 5-0.9v2.9a5 1 0 0 1-5 1 5 1 0 0 1-5-1v-2.9zm0 4a6 2 0 0 0 5 0.9 6 2 0 0 0 5-0.9v2.9a5 1 0 0 1-5 1 5 1 0 0 1-5-1v-2.9z" fill="currentColor"/>
</svg>
