<?xml version="1.0" encoding="UTF-8"?>
<svg viewBox="0 0 16 16" xmlns="http://www.w3.org/2000/svg">
 <g transform="translate(-421.71-531.79)">
  <path d="m425.71 535.79h2v2h-2z" fill="#f47750"/>
  <path d="m423.71 539.79h2v2h-2z" fill="#2ecc71"/>
  <path d="m431.71 535.79h2v2h-2z" fill="#fdbc4b"/>
  <path d="m423.71 535.79h2v2h-2z" fill="#1d99f3"/>
  <path d="m429.71 535.79h2v2h-2z" fill="#da4453"/>
  <path d="m427.71 535.79h2v2h-2z" fill="#2ecc71"/>
  <path d="m427.71 537.79h2v2h-2z" fill="#fdbc4b"/>
  <path d="m425.71 537.79h2v2h-2z" fill="#1d99f3"/>
  <path d="m423.71 537.79h2v2h-2z" fill="#da4453"/>
  <path d="m431.71 537.79h2v2h-2z" fill="#2ecc71"/>
  <path d="m429.71 537.79h2v2h-2z" fill="#f47750"/>
  <path d="m431.71 539.79h2v2h-2z" fill="#fdbc4b"/>
  <path d="m429.71 539.79h2v2h-2z" fill="#1d99f3"/>
  <path d="m427.71 539.79h2v2h-2z" fill="#da4453"/>
  <path d="m425.71 539.79h2v2h-2z" fill="#f47750"/>
  <path d="m429.71 541.79h2v2h-2z" fill="#fdbc4b"/>
  <path d="m427.71 541.79h2v2h-2z" fill="#1d99f3"/>
  <path d="m425.71 541.79h2v2h-2z" fill="#da4453"/>
  <path d="m431.71 541.79h2v2h-2z" fill="#2ecc71"/>
  <path d="m425.71 543.79h2v2h-2z" fill="#fdbc4b"/>
  <path d="m423.71 543.79h2v2h-2z" fill="#1d99f3"/>
  <path d="m433.71 537.79h2v2h-2z" fill="#da4453"/>
  <path d="m433.71 539.79h2v2h-2z" fill="#1d99f3"/>
  <path d="m423.71 541.79h2v2h-2z" fill="#f47750"/>
  <path d="m433.71 535.79h2v2h-2z" fill="#2ecc71"/>
  <path d="m423.71 533.79h2v2h-2z" fill="#fdbc4b"/>
  <path d="m427.71 533.79h2v2h-2z" fill="#1d99f3"/>
  <path d="m425.71 533.79h2v2h-2z" fill="#da4453"/>
  <path d="m431.71 533.79h2v2h-2z" fill="#2ecc71"/>
  <path d="m433.71 533.79h2v2h-2z" fill="#f47750"/>
  <path d="m429.71 533.79h2v2h-2z" fill="#fdbc4b"/>
  <path d="m433.71 541.79h2v2h-2z" fill="#da4453"/>
  <path d="m431.71 543.79h2v2h-2z" fill="#fdbc4b"/>
  <path d="m429.71 543.79h2v2h-2z" fill="#da4453"/>
  <g fill="#2ecc71">
   <path d="m427.71 543.79h2v2h-2z"/>
   <path d="m433.71 543.79h2v2h-2z"/>
  </g>
 </g>
</svg>
