<?xml version="1.0" encoding="UTF-8"?>
<svg viewBox="0 0 22 22" xmlns="http://www.w3.org/2000/svg">
 <defs id="defs3051">
  <style id="current-color-scheme" type="text/css">.ColorScheme-Text {
        color:#363636;
      }
      .ColorScheme-Highlight {
        color:#3daee9;
      }</style>
 </defs>
 <path class="ColorScheme-Text" d="m9 3v1h-6v1h6v2h4v-2h6v-1h-6v-1h-4zm1 1h2v1 1h-2v-2zm-7 12v3h3v-1h3v-1h-3v-1h-3zm13 0v1h-3v1h3v1h3v-3h-3zm-12 1h1v1h-1v-1zm13 0h1v1h-1v-1z" fill="currentColor"/>
 <path class="ColorScheme-Highlight" d="m9 9.5 2 3 2-3h-4z" fill="currentColor"/>
</svg>
