<?xml version="1.0" encoding="UTF-8"?>
<svg viewBox="0 0 22 22" xmlns="http://www.w3.org/2000/svg">
 <defs id="defs3051">
  <style id="current-color-scheme" type="text/css">.ColorScheme-Text {
        color:#363636;
      }
      .ColorScheme-Highlight {
        color:#3daee9;
      }</style>
 </defs>
 <path class="ColorScheme-Text" d="m8 3c-1.6569 0-3 1.3431-3 3v3h-2v6h10v-6h-2v-3c0-1.6569-1.3431-3-3-3zm0 1c1.1046 0 2 0.89543 2 2v3h-4v-3c0-1.1046 0.89543-2 2-2zm4 2v1h7v7h-3-1v1 3h-4v-2h-1v1 1 1h6l4-4v-1-7-1h-8zm-8 4h8v4h-8v-4z" fill="currentColor"/>
</svg>
