<?xml version="1.0" encoding="UTF-8"?>
<svg viewBox="0 0 22 22" xmlns="http://www.w3.org/2000/svg">
 <defs id="defs3051">
  <style id="current-color-scheme" type="text/css">.ColorScheme-Text {
        color:#363636;
      }
      .ColorScheme-Highlight {
        color:#3daee9;
      }</style>
 </defs>
 <path class="ColorScheme-Text" d="m3 3v1h1v-1h-1zm15.293 0-6 6h0.70703v0.70703l6-6-0.70703-0.70703zm-13.293 2v1h1v-1h-1zm2 2v1h1v-1h-1zm2 5.293-6 6 0.70703 0.70703 6-6h-0.70703v-0.70703zm5 1.707v1h1v-1h-1zm2 2v1h1v-1h-1zm2 2v1h1v-1h-1z" fill="currentColor"/>
 <path class="ColorScheme-Highlight" d="m9 9v4h4v-4h-4zm1 1h2v2h-2v-2z" fill="currentColor"/>
</svg>
