<?xml version="1.0" encoding="UTF-8"?>
<svg id="svg2" width="64" height="64" version="1.1" xmlns="http://www.w3.org/2000/svg" xmlns:xlink="http://www.w3.org/1999/xlink">
 <defs id="defs2">
  <linearGradient id="d" x1="45" x2="60.076" y1="19" y2="3.924" gradientTransform="translate(.012852 -.0011262)" gradientUnits="userSpaceOnUse">
   <stop id="stop5" stop-color="#fff" offset="0"/>
   <stop id="stop6" stop-color="#b3b3b3" offset="1"/>
  </linearGradient>
  <linearGradient id="linearGradient5" x1="7.9373" x2="7.9373" y1="15.081" y2="1.852" gradientTransform="matrix(3.7796 0 0 3.7796 -.0009765 .030274)" gradientUnits="userSpaceOnUse">
   <stop id="stop1" stop-color="#f1efeb" offset="0"/>
   <stop id="stop2" stop-color="#fdfcfc" offset="1"/>
  </linearGradient>
  <filter id="filter95" x="-.14695" y="-.14705" width="1.2939" height="1.2941" color-interpolation-filters="sRGB">
   <feGaussianBlur id="feGaussianBlur95" stdDeviation="1.5300537"/>
  </filter>
  <filter id="filter2" x="-.147" y="-.147" width="1.294" height="1.294" color-interpolation-filters="sRGB">
   <feGaussianBlur id="feGaussianBlur2" stdDeviation="1.9368873"/>
  </filter>
  <filter id="filter94" x="-.06912" y="-.06912" width="1.1382" height="1.1382" color-interpolation-filters="sRGB">
   <feGaussianBlur id="feGaussianBlur94" stdDeviation="1.6128562"/>
  </filter>
 </defs>
 <path id="path3-9-5" d="m17.001 3.999c-7.2031 0-13.002 5.7989-13.002 13.002v29.998c0 7.2031 5.7989 13.002 13.002 13.002h29.998c7.2031 0 13.002-5.7989 13.002-13.002v-18.027c-0.12523-0.33309-0.25816-0.6432-0.39844-0.93359-0.14027-0.2904-0.28901-0.5594-0.44336-0.81055-0.15435-0.25114-0.31496-0.48389-0.48242-0.69922-0.16746-0.21532-0.34189-0.41471-0.52148-0.59766-0.1796-0.18294-0.36392-0.34991-0.55469-0.50391-0.19076-0.154-0.38693-0.29339-0.58789-0.42188-0.20096-0.12849-0.407-0.24515-0.61719-0.35156 0.21019 0.10641 0.41623 0.22308 0.61719 0.35156 0.20096 0.12849 0.39713 0.26788 0.58789 0.42188 0.19076 0.154 0.37509 0.32096 0.55469 0.50391 0.1796 0.18294 0.35402 0.38233 0.52148 0.59766 0.16746 0.21532 0.32807 0.44808 0.48242 0.69922 0.15435 0.25114 0.30308 0.52015 0.44336 0.81055 0.14028 0.2904 0.27321 0.6005 0.39844 0.93359v-0.13867c-0.24891-7.0487-16.63-23.649-24.201-24.799-0.265-0.02-0.52811-0.035156-0.78711-0.035156 0.25 0.0625 0.48755 0.14624 0.71484 0.24609 0.2273 0.099853 0.44434 0.21582 0.65039 0.34961 0.20605 0.13379 0.40161 0.28491 0.58789 0.44922s0.36328 0.3418 0.53125 0.5332c0.16797 0.19141 0.32739 0.39624 0.47852 0.61133 0.15112 0.21509 0.29395 0.44043 0.42969 0.67578-0.13574-0.23535-0.27856-0.46069-0.42969-0.67578s-0.31055-0.41992-0.47852-0.61133c-0.16797-0.19141-0.34497-0.3689-0.53125-0.5332-0.18628-0.16431-0.38184-0.31543-0.58789-0.44922-0.20605-0.13379-0.4231-0.24976-0.65039-0.34961-0.22729-0.099854-0.46484-0.18359-0.71484-0.24609zm22.729 6.0254c0.17774 0.56445 0.33789 1.1387 0.48633 1.709 0.29688 1.1406 0.54688 2.2656 0.79688 3.2656-0.25-1-0.5-2.125-0.79688-3.2656-0.14844-0.57031-0.30859-1.1445-0.48633-1.709zm13.246 13.58c0.48351 0.09518 0.95975 0.19674 1.4238 0.31836-0.46408-0.12162-0.94032-0.22318-1.4238-0.31836z" filter="url(#filter94)" opacity=".25" stroke-width="3.7796"/>
 <path id="path3-9" d="m17.001 3.999c-7.2031 0-13.002 5.7989-13.002 13.002v29.998c0 7.2031 5.7989 13.002 13.002 13.002h29.998c7.2031 0 13.002-5.7989 13.002-13.002v-18.027c-2.0036-5.3294-5.9956-4.9745-9.9883-5.9727-5.82-1.455-8.03-4.12-9-8-1-4-2-10-6-11z" fill="url(#linearGradient5)" stroke-width="3.7796"/>
 <rect id="rect1" x="16.189" y="16.189" width="31.623" height="31.623" display="none" opacity=".25" stroke-linecap="square" stroke-linejoin="round" stroke-width=".26124"/>
 <g id="g2" display="none" fill="#010101" filter="url(#filter2)" opacity=".25">
  <path id="path1" d="m22.187 25.114a0.98425 0.98425 0 0 0-1.0495 1.1147l0.13835 1.0238a13.835 13.835 0 0 0-2.512 0.76685 13.835 13.835 0 0 0-0.59885 0.28658v2.2235a11.858 11.858 0 0 1 1.3637-0.68384 11.858 11.858 0 0 1 10.939 0.95856l-4.8422 6.3443a3.9528 3.9528 0 0 0-4.6742 1.2451 3.9528 3.9528 0 0 0-0.52375 0.92496l-2.263-0.28856v1.9903l2.012 0.25891a3.9528 3.9528 0 0 0 1.5218 2.6524 3.9528 3.9528 0 0 0 2.9547 0.76883l0.47434 1.1345h2.1484l-0.79057-1.8954a3.9528 3.9528 0 0 0 0.75104-0.75104 3.9528 3.9528 0 0 0-0.0336-4.8422l4.8363-6.3463a11.858 11.858 0 0 1 2.9982 4.2196 11.858 11.858 0 0 1-0.22334 9.6153h3.7829a0.98623 0.98623 0 0 0-0.41702-0.32808l-0.96449-0.39528a13.835 13.835 0 0 0 0.67198-5.1822l1.0258-0.13835a0.98821 0.98821 0 1 0-0.26286-1.9567l-1.0218 0.1344a13.835 13.835 0 0 0-0.76883-2.514 13.835 13.835 0 0 0-1.2432-2.3124l0.81428-0.6285a0.98771 0.98771 0 1 0-1.2076-1.5633l-0.81824 0.63245a13.835 13.835 0 0 0-1.8835-1.7531c-0.01581-0.01186-0.01976-0.02965-0.03558-0.04151-0.01976-0.01581-0.04546-0.01779-0.06522-0.03162a13.835 13.835 0 0 0-2.1741-1.3499l0.39528-0.95461a0.98425 0.98425 0 0 0-0.53758-1.2886 0.98425 0.98425 0 0 0-1.2886 0.53561l-0.39924 0.96647a13.835 13.835 0 0 0-5.1782-0.67198l-0.13835-1.0277a0.98425 0.98425 0 0 0-0.9131-0.85184zm1.6444 13.716a1.9764 1.9764 0 0 1 1.4625 0.38342 1.9764 1.9764 0 0 1 0.37157 2.7729 1.9764 1.9764 0 0 1-2.767 0.37552 1.9764 1.9764 0 0 1-0.37552-2.7729 1.9764 1.9764 0 0 1 1.3084-0.76092zm7.5697-20.665a13.835 13.835 0 0 0 0.09289 0.9724l-1.008 0.22136a0.98228 0.98228 0 0 0-0.75104 1.172c0.11463 0.53561 0.63641 0.86962 1.172 0.75301l1.0119-0.2174a13.835 13.835 0 0 0 2.3855 4.6564l-0.76487 0.69174a0.98425 0.98425 0 0 0-0.06918 1.3934c0.36761 0.40517 0.98821 0.43679 1.3934 0.06917l0.7708-0.69768a13.835 13.835 0 0 0 4.3936 2.8362l-0.32018 0.98426a0.98821 0.98821 0 0 0 0.64234 1.2432 0.98425 0.98425 0 0 0 1.2432-0.63641l0.31623-0.9803a13.835 13.835 0 0 0 2.597 0.3854 13.835 13.835 0 0 0 1.3282 0v-2.012a11.858 11.858 0 0 1-1.2313 0.03558 11.858 11.858 0 0 1-11.194-10.87zm9.975 0a3.9528 3.9528 0 0 0 0.29449 0.83405 3.9528 3.9528 0 0 0 4.1643 2.0693v-0.79057c0-0.42888-0.12649-0.82416-0.3439-1.1562a1.9764 1.9764 0 0 1-2.0061-0.95658z" stroke-width="1.9764"/>
  <path id="path2" d="m20.142 16.189c-2.1899 0-3.9528 1.763-3.9528 3.9528v23.717c0 2.1899 1.763 3.9528 3.9528 3.9528h23.717c2.1899 0 3.9528-1.763 3.9528-3.9528v-23.717c0-2.1899-1.763-3.9528-3.9528-3.9528zm0.1344 1.9764h23.448c1.1681 0 2.1108 0.94275 2.1108 2.1108v23.448c0 1.1681-0.94275 2.1108-2.1108 2.1108h-23.448a2.1069 2.1069 0 0 1-2.1108-2.1108v-23.448c0-1.1681 0.94275-2.1108 2.1108-2.1108z" stop-color="#000000" stroke-linecap="square" stroke-width="3.9528" style="paint-order:stroke fill markers"/>
 </g>
 <g id="g1" fill="#212121">
  <path id="path1-6" d="m22.187 25.114a0.98425 0.98425 0 0 0-1.0495 1.1147l0.13835 1.0238a13.835 13.835 0 0 0-2.512 0.76685 13.835 13.835 0 0 0-0.59885 0.28658v2.2235a11.858 11.858 0 0 1 1.3637-0.68384 11.858 11.858 0 0 1 10.939 0.95856l-4.8422 6.3443a3.9528 3.9528 0 0 0-4.6742 1.2451 3.9528 3.9528 0 0 0-0.52375 0.92496l-2.263-0.28856v1.9903l2.012 0.25891a3.9528 3.9528 0 0 0 1.5218 2.6524 3.9528 3.9528 0 0 0 2.9547 0.76883l0.47434 1.1345h2.1484l-0.79057-1.8954a3.9528 3.9528 0 0 0 0.75104-0.75104 3.9528 3.9528 0 0 0-0.0336-4.8422l4.8363-6.3463a11.858 11.858 0 0 1 2.9982 4.2196 11.858 11.858 0 0 1-0.22334 9.6153h3.7829a0.98623 0.98623 0 0 0-0.41702-0.32808l-0.96449-0.39528a13.835 13.835 0 0 0 0.67198-5.1822l1.0258-0.13835a0.98821 0.98821 0 1 0-0.26286-1.9567l-1.0218 0.1344a13.835 13.835 0 0 0-0.76883-2.514 13.835 13.835 0 0 0-1.2432-2.3124l0.81428-0.6285a0.98771 0.98771 0 1 0-1.2076-1.5633l-0.81824 0.63245a13.835 13.835 0 0 0-1.8835-1.7531c-0.01581-0.01186-0.01976-0.02965-0.03558-0.04151-0.01976-0.01581-0.04546-0.01779-0.06522-0.03162a13.835 13.835 0 0 0-2.1741-1.3499l0.39528-0.95461a0.98425 0.98425 0 0 0-0.53758-1.2886 0.98425 0.98425 0 0 0-1.2886 0.53561l-0.39924 0.96647a13.835 13.835 0 0 0-5.1782-0.67198l-0.13835-1.0277a0.98425 0.98425 0 0 0-0.9131-0.85184zm1.6444 13.716a1.9764 1.9764 0 0 1 1.4625 0.38342 1.9764 1.9764 0 0 1 0.37157 2.7729 1.9764 1.9764 0 0 1-2.767 0.37552 1.9764 1.9764 0 0 1-0.37552-2.7729 1.9764 1.9764 0 0 1 1.3084-0.76092zm7.5697-20.665a13.835 13.835 0 0 0 0.09289 0.9724l-1.008 0.22136a0.98228 0.98228 0 0 0-0.75104 1.172c0.11463 0.53561 0.63641 0.86962 1.172 0.75301l1.0119-0.2174a13.835 13.835 0 0 0 2.3855 4.6564l-0.76487 0.69174a0.98425 0.98425 0 0 0-0.06918 1.3934c0.36761 0.40517 0.98821 0.43679 1.3934 0.06917l0.7708-0.69768a13.835 13.835 0 0 0 4.3936 2.8362l-0.32018 0.98426a0.98821 0.98821 0 0 0 0.64234 1.2432 0.98425 0.98425 0 0 0 1.2432-0.63641l0.31623-0.9803a13.835 13.835 0 0 0 2.597 0.3854 13.835 13.835 0 0 0 1.3282 0v-2.012a11.858 11.858 0 0 1-1.2313 0.03558 11.858 11.858 0 0 1-11.194-10.87zm9.975 0a3.9528 3.9528 0 0 0 0.29449 0.83405 3.9528 3.9528 0 0 0 4.1643 2.0693v-0.79057c0-0.42888-0.12649-0.82416-0.3439-1.1562a1.9764 1.9764 0 0 1-2.0061-0.95658z" stroke-width="1.9764"/>
  <path id="path2-3" d="m20.142 16.189c-2.1899 0-3.9528 1.763-3.9528 3.9528v23.717c0 2.1899 1.763 3.9528 3.9528 3.9528h23.717c2.1899 0 3.9528-1.763 3.9528-3.9528v-23.717c0-2.1899-1.763-3.9528-3.9528-3.9528zm0.1344 1.9764h23.448c1.1681 0 2.1108 0.94275 2.1108 2.1108v23.448c0 1.1681-0.94275 2.1108-2.1108 2.1108h-23.448a2.1069 2.1069 0 0 1-2.1108-2.1108v-23.448c0-1.1681 0.94275-2.1108 2.1108-2.1108z" stop-color="#000000" stroke-linecap="square" stroke-width="3.9528" style="paint-order:stroke fill markers"/>
 </g>
 <path id="path5-6" d="m33.301 4.654c4 1 5 7 6 11 0.97 3.88 3.18 6.545 9 8 3.9927 0.99818 7.9847 0.64321 9.9883 5.9727v-0.13867c-0.24891-7.0487-16.63-23.649-24.201-24.799-0.265-0.02-0.52811-0.03516-0.78711-0.03516z" filter="url(#filter95)" opacity=".25"/>
 <path id="path5" d="m35.013 3.999c4 1 5 7 6 11 0.97 3.88 3.18 6.545 9 8 3.9927 0.99818 7.9847 0.64321 9.9883 5.9727v-0.13867c-0.24891-7.0487-16.63-23.649-24.201-24.799-0.265-0.02-0.52811-0.035156-0.78711-0.035156z" fill="url(#d)"/>
</svg>
