<?xml version="1.0" encoding="UTF-8"?>
<svg id="svg2" width="64" height="64" version="1.1" xml:space="preserve" xmlns="http://www.w3.org/2000/svg" xmlns:cc="http://creativecommons.org/ns#" xmlns:dc="http://purl.org/dc/elements/1.1/" xmlns:rdf="http://www.w3.org/1999/02/22-rdf-syntax-ns#" xmlns:xlink="http://www.w3.org/1999/xlink"><defs id="defs2"><linearGradient id="d" x1="45" x2="60.076" y1="19" y2="3.924" gradientTransform="translate(.012852 -.0011262)" gradientUnits="userSpaceOnUse"><stop id="stop5" stop-color="#fff" offset="0"/><stop id="stop6" stop-color="#b3b3b3" offset="1"/></linearGradient><linearGradient id="linearGradient5" x1="7.9373" x2="7.9373" y1="15.081" y2="1.852" gradientTransform="matrix(3.7796 0 0 3.7796 -.0009765 .030274)" gradientUnits="userSpaceOnUse"><stop id="stop1" stop-color="#f1efeb" offset="0"/><stop id="stop2" stop-color="#fdfcfc" offset="1"/></linearGradient><filter id="filter95" x="-.14695" y="-.14705" width="1.2939" height="1.2941" color-interpolation-filters="sRGB"><feGaussianBlur id="feGaussianBlur95" stdDeviation="1.5300537"/></filter><style id="current-color-scheme" type="text/css">.ColorScheme-Text { color:#363636; } .ColorScheme-Text { color:#363636; }</style><filter id="filter94" x="-.06912" y="-.06912" width="1.1382" height="1.1382" color-interpolation-filters="sRGB"><feGaussianBlur id="feGaussianBlur94" stdDeviation="1.6128562"/></filter><filter id="c-3" x="-.12" y="-.1238" width="1.24" height="1.3164"><feOffset id="feOffset4" dy="2" in="SourceAlpha" result="shadowOffsetOuter1"/><feGaussianBlur id="feGaussianBlur4" in="shadowOffsetOuter1" result="shadowBlurOuter1" stdDeviation="1.5"/><feColorMatrix id="feColorMatrix4" in="shadowBlurOuter1" values="0 0 0 0 0 0 0 0 0 0 0 0 0 0 0 0 0 0 0.2 0"/></filter><path id="d-5" d="M47.096 38.496c-.966-1.047-2.818-1.53-5.475-1.53-1.45 0-2.98.161-4.428.403-.966-.886-1.772-1.933-2.577-2.98-.563-.804-1.127-1.61-1.61-2.495a26.41 26.41 0 0 0 1.45-7.086c0-2.174-.886-4.509-3.302-4.509-.805 0-1.61.484-2.013 1.208-1.047 1.771-.644 5.395 1.047 9.179-.564 1.69-1.208 3.381-1.933 5.233-.644 1.61-1.368 3.14-2.254 4.59-2.496.966-7.73 3.381-8.213 6.038-.16.806.081 1.61.725 2.094.564.483 1.369.805 2.174.724 3.14 0 6.28-4.347 8.454-8.132 1.208-.402 2.416-.805 3.704-1.127 1.369-.322 2.657-.644 3.865-.885 3.381 2.898 6.36 3.381 7.81 3.381 2.012 0 2.818-.886 3.06-1.61.321-.886.16-1.852-.484-2.496zm-2.174 1.53c-.08.563-.725.966-1.53.966-.241 0-.483 0-.724-.08-1.61-.403-3.14-1.208-4.429-2.255a21.682 21.682 0 0 1 3.221-.241c.725 0 1.45.08 2.174.16.724.162 1.53.484 1.288 1.45zM30.51 22.232c.161-.242.403-.403.725-.483.805 0 .966.885.966 1.69a20.535 20.535 0 0 1-.966 5.395c-1.37-3.462-1.208-5.797-.725-6.602zM35.02 37.69c-.886.16-1.771.402-2.657.644-.644.161-1.288.403-2.013.564.322-.725.644-1.45.966-2.094.403-.886.725-1.771 1.047-2.657.322.483.564.886.886 1.288.563.805 1.207 1.53 1.77 2.255zm-9.742 4.67c-2.013 3.22-4.026 5.314-5.153 5.314-.161 0-.403-.08-.483-.161-.242-.161-.323-.483-.242-.725.161-1.208 2.496-2.899 5.878-4.428z"/></defs><path id="path3-9-5" d="m17.001 3.9992c-7.2031 0-13.002 5.7989-13.002 13.002v29.998c0 7.2031 5.7989 13.002 13.002 13.002h29.998c7.2031 0 13.002-5.7989 13.002-13.002v-18.027c-0.12523-0.33309-0.25816-0.6432-0.39844-0.93359-0.14027-0.2904-0.28901-0.5594-0.44336-0.81055-0.15435-0.25114-0.31496-0.48389-0.48242-0.69922-0.16746-0.21532-0.34189-0.41471-0.52148-0.59766-0.1796-0.18294-0.36392-0.34991-0.55469-0.50391-0.19076-0.154-0.38693-0.29339-0.58789-0.42188-0.20096-0.12849-0.407-0.24515-0.61719-0.35156 0.21019 0.10641 0.41623 0.22308 0.61719 0.35156 0.20096 0.12849 0.39713 0.26788 0.58789 0.42188 0.19076 0.154 0.37509 0.32096 0.55469 0.50391 0.1796 0.18294 0.35402 0.38233 0.52148 0.59766 0.16746 0.21532 0.32807 0.44808 0.48242 0.69922 0.15435 0.25114 0.30308 0.52015 0.44336 0.81055 0.14028 0.2904 0.27321 0.6005 0.39844 0.93359v-0.13867c-0.24891-7.0487-16.63-23.649-24.201-24.799-0.265-0.02-0.52811-0.03516-0.78711-0.03516 0.25 0.0625 0.48755 0.14624 0.71484 0.24609 0.2273 0.09985 0.44434 0.21582 0.65039 0.34961s0.40161 0.28491 0.58789 0.44922c0.18628 0.16431 0.36328 0.3418 0.53125 0.5332 0.16797 0.19141 0.32739 0.39624 0.47852 0.61133 0.15112 0.21509 0.29395 0.44043 0.42969 0.67578-0.13574-0.23535-0.27856-0.46069-0.42969-0.67578s-0.31055-0.41992-0.47852-0.61133c-0.16797-0.19141-0.34497-0.3689-0.53125-0.5332-0.18628-0.16431-0.38184-0.31543-0.58789-0.44922s-0.4231-0.24976-0.65039-0.34961c-0.22729-0.099854-0.46484-0.18359-0.71484-0.24609zm22.729 6.0254c0.17774 0.56445 0.33789 1.1387 0.48633 1.709 0.29688 1.1406 0.54688 2.2656 0.79688 3.2656-0.25-1-0.5-2.125-0.79688-3.2656-0.14844-0.57031-0.30859-1.1445-0.48633-1.709zm13.246 13.58c0.48351 0.09518 0.95975 0.19674 1.4238 0.31836-0.46408-0.12162-0.94032-0.22318-1.4238-0.31836z" filter="url(#filter94)" opacity=".25" stroke-width="3.7796"/><path id="path3-9" d="m17.001 3.999c-7.2031 0-13.002 5.7989-13.002 13.002v29.998c0 7.2031 5.7989 13.002 13.002 13.002h29.998c7.2031 0 13.002-5.7989 13.002-13.002v-18.027c-2.0036-5.3294-5.9956-4.9745-9.9883-5.9727-5.82-1.455-8.03-4.12-9-8-1-4-2-10-6-11z" fill="url(#linearGradient5)" stroke-width="3.7796"/><path id="path5-6" d="m33.301 4.654c4 1 5 7 6 11 0.97 3.88 3.18 6.545 9 8 3.9927 0.99818 7.9847 0.64321 9.9883 5.9727v-0.13867c-0.24891-7.0487-16.63-23.649-24.201-24.799-0.265-0.02-0.52811-0.03516-0.78711-0.03516z" filter="url(#filter95)" opacity=".25"/><g id="g1" transform="translate(-.73708 -3.8864)"><use id="use5" transform="matrix(.99416 0 0 1.0052 .188 -.138)" width="100%" height="100%" filter="url(#c-3)" opacity=".35" xlink:href="#d-5"/><use id="use6" transform="matrix(.99416 0 0 1.0052 .188 -.138)" width="100%" height="100%" fill="#212121" xlink:href="#d-5"/></g><path id="path5" d="m35.013 3.999c4 1 5 7 6 11 0.97 3.88 3.18 6.545 9 8 3.9927 0.99818 7.9847 0.64321 9.9883 5.9727v-0.13867c-0.24891-7.0487-16.63-23.649-24.201-24.799-0.265-0.02-0.52811-0.035156-0.78711-0.035156z" fill="url(#d)"/><title id="title1">Gnome Symbolic Icons</title><metadata id="metadata2"><rdf:RDF><cc:Work rdf:about=""><dc:title>Gnome Symbolic Icons</dc:title></cc:Work></rdf:RDF></metadata></svg>
