<?xml version="1.0" encoding="UTF-8" standalone="no"?>
<svg
   width="64"
   height="64"
   version="1.1"
   id="svg2"
   sodipodi:docname="text-rust.svg"
   inkscape:version="1.3.2 (091e20ef0f, 2023-11-25)"
   xmlns:inkscape="http://www.inkscape.org/namespaces/inkscape"
   xmlns:sodipodi="http://sodipodi.sourceforge.net/DTD/sodipodi-0.dtd"
   xmlns:xlink="http://www.w3.org/1999/xlink"
   xmlns="http://www.w3.org/2000/svg"
   xmlns:svg="http://www.w3.org/2000/svg"
   xmlns:rdf="http://www.w3.org/1999/02/22-rdf-syntax-ns#"
   xmlns:cc="http://creativecommons.org/ns#"
   xmlns:dc="http://purl.org/dc/elements/1.1/">
  <sodipodi:namedview
     id="namedview2"
     pagecolor="#ffffff"
     bordercolor="#111111"
     borderopacity="1"
     inkscape:showpageshadow="0"
     inkscape:pageopacity="0"
     inkscape:pagecheckerboard="1"
     inkscape:deskcolor="#d1d1d1"
     inkscape:zoom="6.2734375"
     inkscape:cx="38.495641"
     inkscape:cy="22.236613"
     inkscape:window-width="1920"
     inkscape:window-height="1011"
     inkscape:window-x="0"
     inkscape:window-y="0"
     inkscape:window-maximized="1"
     inkscape:current-layer="svg2" />
  <defs
     id="defs2">
    <linearGradient
       id="linearGradient92"
       x1="7.9373002"
       x2="7.9373002"
       y1="15.081"
       y2="1.852"
       gradientTransform="scale(3.7796)"
       gradientUnits="userSpaceOnUse"
       spreadMethod="pad">
      <stop
         stop-color="#f1efeb"
         offset="0"
         id="stop91"
         style="stop-color:#695e49;stop-opacity:1;" />
      <stop
         stop-color="#fdfcfc"
         offset="1"
         id="stop92" />
    </linearGradient>
    <linearGradient
       id="linearGradient90"
       x1="7.9373002"
       x2="7.9373002"
       y1="15.081"
       y2="1.852"
       gradientTransform="scale(3.7796)"
       gradientUnits="userSpaceOnUse"
       spreadMethod="pad">
      <stop
         stop-color="#f1efeb"
         offset="0"
         id="stop89"
         style="stop-color:#6a5f4a;stop-opacity:1;" />
      <stop
         stop-color="#fdfcfc"
         offset="1"
         id="stop90" />
    </linearGradient>
    <linearGradient
       id="linearGradient88"
       x1="7.9373002"
       x2="7.9373002"
       y1="15.081"
       y2="1.852"
       gradientTransform="scale(3.7796)"
       gradientUnits="userSpaceOnUse"
       spreadMethod="pad">
      <stop
         stop-color="#f1efeb"
         offset="0"
         id="stop87"
         style="stop-color:#70654e;stop-opacity:1;" />
      <stop
         stop-color="#fdfcfc"
         offset="1"
         id="stop88" />
    </linearGradient>
    <linearGradient
       id="linearGradient86"
       x1="7.9373002"
       x2="7.9373002"
       y1="15.081"
       y2="1.852"
       gradientTransform="scale(3.7796)"
       gradientUnits="userSpaceOnUse"
       spreadMethod="pad">
      <stop
         stop-color="#f1efeb"
         offset="0"
         id="stop85"
         style="stop-color:#948567;stop-opacity:1;" />
      <stop
         stop-color="#fdfcfc"
         offset="1"
         id="stop86" />
    </linearGradient>
    <linearGradient
       id="linearGradient84"
       x1="7.9373002"
       x2="7.9373002"
       y1="15.081"
       y2="1.852"
       gradientTransform="scale(3.7796)"
       gradientUnits="userSpaceOnUse"
       spreadMethod="pad">
      <stop
         stop-color="#f1efeb"
         offset="0"
         id="stop83"
         style="stop-color:#aca189;stop-opacity:1;" />
      <stop
         stop-color="#fdfcfc"
         offset="1"
         id="stop84" />
    </linearGradient>
    <linearGradient
       id="linearGradient82"
       x1="7.9373002"
       x2="7.9373002"
       y1="15.081"
       y2="1.852"
       gradientTransform="scale(3.7796)"
       gradientUnits="userSpaceOnUse"
       spreadMethod="pad">
      <stop
         stop-color="#f1efeb"
         offset="0"
         id="stop81"
         style="stop-color:#c1b9a7;stop-opacity:1;" />
      <stop
         stop-color="#fdfcfc"
         offset="1"
         id="stop82" />
    </linearGradient>
    <linearGradient
       id="linearGradient80"
       x1="7.9373002"
       x2="7.9373002"
       y1="15.081"
       y2="1.852"
       gradientTransform="scale(3.7796)"
       gradientUnits="userSpaceOnUse"
       spreadMethod="pad">
      <stop
         stop-color="#f1efeb"
         offset="0"
         id="stop79"
         style="stop-color:#d0c9bb;stop-opacity:1;" />
      <stop
         stop-color="#fdfcfc"
         offset="1"
         id="stop80" />
    </linearGradient>
    <linearGradient
       id="linearGradient78"
       x1="7.9373002"
       x2="7.9373002"
       y1="15.081"
       y2="1.852"
       gradientTransform="scale(3.7796)"
       gradientUnits="userSpaceOnUse"
       spreadMethod="pad">
      <stop
         stop-color="#f1efeb"
         offset="0"
         id="stop77"
         style="stop-color:#dcd7cd;stop-opacity:1;" />
      <stop
         stop-color="#fdfcfc"
         offset="1"
         id="stop78" />
    </linearGradient>
    <linearGradient
       id="linearGradient76"
       x1="7.9373002"
       x2="7.9373002"
       y1="15.081"
       y2="1.852"
       gradientTransform="scale(3.7796)"
       gradientUnits="userSpaceOnUse"
       spreadMethod="pad">
      <stop
         stop-color="#f1efeb"
         offset="0"
         id="stop75"
         style="stop-color:#e2ddd5;stop-opacity:1;" />
      <stop
         stop-color="#fdfcfc"
         offset="1"
         id="stop76" />
    </linearGradient>
    <linearGradient
       id="linearGradient74"
       x1="7.9373002"
       x2="7.9373002"
       y1="15.081"
       y2="1.852"
       gradientTransform="scale(3.7796)"
       gradientUnits="userSpaceOnUse"
       spreadMethod="pad">
      <stop
         stop-color="#f1efeb"
         offset="0"
         id="stop73"
         style="stop-color:#e2ded5;stop-opacity:1;" />
      <stop
         stop-color="#fdfcfc"
         offset="1"
         id="stop74" />
    </linearGradient>
    <linearGradient
       id="linearGradient72"
       x1="7.9373002"
       x2="7.9373002"
       y1="15.081"
       y2="1.852"
       gradientTransform="scale(3.7796)"
       gradientUnits="userSpaceOnUse"
       spreadMethod="pad">
      <stop
         stop-color="#f1efeb"
         offset="0"
         id="stop71"
         style="stop-color:#9a8b6e;stop-opacity:1;" />
      <stop
         stop-color="#fdfcfc"
         offset="1"
         id="stop72" />
    </linearGradient>
    <linearGradient
       id="linearGradient70"
       x1="7.9373002"
       x2="7.9373002"
       y1="15.081"
       y2="1.852"
       gradientTransform="scale(3.7796)"
       gradientUnits="userSpaceOnUse"
       spreadMethod="pad">
      <stop
         stop-color="#f1efeb"
         offset="0"
         id="stop69"
         style="stop-color:#756a52;stop-opacity:1;" />
      <stop
         stop-color="#fdfcfc"
         offset="1"
         id="stop70" />
    </linearGradient>
    <linearGradient
       id="linearGradient68"
       x1="7.9373002"
       x2="7.9373002"
       y1="15.081"
       y2="1.852"
       gradientTransform="scale(3.7796)"
       gradientUnits="userSpaceOnUse"
       spreadMethod="pad">
      <stop
         stop-color="#f1efeb"
         offset="0"
         id="stop67"
         style="stop-color:#574e3d;stop-opacity:1;" />
      <stop
         stop-color="#fdfcfc"
         offset="1"
         id="stop68" />
    </linearGradient>
    <linearGradient
       id="linearGradient66"
       x1="7.9373002"
       x2="7.9373002"
       y1="15.081"
       y2="1.852"
       gradientTransform="scale(3.7796)"
       gradientUnits="userSpaceOnUse"
       spreadMethod="pad">
      <stop
         stop-color="#f1efeb"
         offset="0"
         id="stop65"
         style="stop-color:#4d4536;stop-opacity:1;" />
      <stop
         stop-color="#fdfcfc"
         offset="1"
         id="stop66" />
    </linearGradient>
    <linearGradient
       id="linearGradient64"
       x1="7.9373002"
       x2="7.9373002"
       y1="15.081"
       y2="1.852"
       gradientTransform="scale(3.7796)"
       gradientUnits="userSpaceOnUse"
       spreadMethod="pad">
      <stop
         stop-color="#f1efeb"
         offset="0"
         id="stop63"
         style="stop-color:#4d4536;stop-opacity:1;" />
      <stop
         stop-color="#fdfcfc"
         offset="1"
         id="stop64" />
    </linearGradient>
    <linearGradient
       id="linearGradient62"
       x1="7.9373002"
       x2="7.9373002"
       y1="15.081"
       y2="1.852"
       gradientTransform="scale(3.7796)"
       gradientUnits="userSpaceOnUse"
       spreadMethod="pad">
      <stop
         stop-color="#f1efeb"
         offset="0"
         id="stop61"
         style="stop-color:#0c0b08;stop-opacity:1;" />
      <stop
         stop-color="#fdfcfc"
         offset="1"
         id="stop62" />
    </linearGradient>
    <linearGradient
       id="linearGradient60"
       x1="7.9373002"
       x2="7.9373002"
       y1="15.081"
       y2="1.852"
       gradientTransform="scale(3.7796)"
       gradientUnits="userSpaceOnUse"
       spreadMethod="pad">
      <stop
         stop-color="#f1efeb"
         offset="0"
         id="stop59"
         style="stop-color:#0b0a08;stop-opacity:1;" />
      <stop
         stop-color="#fdfcfc"
         offset="1"
         id="stop60" />
    </linearGradient>
    <linearGradient
       id="linearGradient58"
       x1="7.9373002"
       x2="7.9373002"
       y1="15.081"
       y2="1.852"
       gradientTransform="scale(3.7796)"
       gradientUnits="userSpaceOnUse"
       spreadMethod="pad">
      <stop
         stop-color="#f1efeb"
         offset="0"
         id="stop57"
         style="stop-color:#0b0a08;stop-opacity:1;" />
      <stop
         stop-color="#fdfcfc"
         offset="1"
         id="stop58" />
    </linearGradient>
    <linearGradient
       id="linearGradient56"
       x1="7.9373002"
       x2="7.9373002"
       y1="15.081"
       y2="1.852"
       gradientTransform="scale(3.7796)"
       gradientUnits="userSpaceOnUse"
       spreadMethod="pad">
      <stop
         stop-color="#f1efeb"
         offset="0"
         id="stop55"
         style="stop-color:#171410;stop-opacity:1;" />
      <stop
         stop-color="#fdfcfc"
         offset="1"
         id="stop56" />
    </linearGradient>
    <linearGradient
       id="linearGradient54"
       x1="7.9373002"
       x2="7.9373002"
       y1="15.081"
       y2="1.852"
       gradientTransform="scale(3.7796)"
       gradientUnits="userSpaceOnUse"
       spreadMethod="pad">
      <stop
         stop-color="#f1efeb"
         offset="0"
         id="stop53"
         style="stop-color:#2d281f;stop-opacity:1;" />
      <stop
         stop-color="#fdfcfc"
         offset="1"
         id="stop54" />
    </linearGradient>
    <linearGradient
       id="linearGradient52"
       x1="7.9373002"
       x2="7.9373002"
       y1="15.081"
       y2="1.852"
       gradientTransform="scale(3.7796)"
       gradientUnits="userSpaceOnUse"
       spreadMethod="pad">
      <stop
         stop-color="#f1efeb"
         offset="0"
         id="stop51"
         style="stop-color:#3a3428;stop-opacity:1;" />
      <stop
         stop-color="#fdfcfc"
         offset="1"
         id="stop52" />
    </linearGradient>
    <linearGradient
       id="linearGradient50"
       x1="7.9373002"
       x2="7.9373002"
       y1="15.081"
       y2="1.852"
       gradientTransform="scale(3.7796)"
       gradientUnits="userSpaceOnUse"
       spreadMethod="pad">
      <stop
         stop-color="#f1efeb"
         offset="0"
         id="stop49"
         style="stop-color:#473f31;stop-opacity:1;" />
      <stop
         stop-color="#fdfcfc"
         offset="1"
         id="stop50" />
    </linearGradient>
    <linearGradient
       id="linearGradient48"
       x1="7.9373002"
       x2="7.9373002"
       y1="15.081"
       y2="1.852"
       gradientTransform="scale(3.7796)"
       gradientUnits="userSpaceOnUse"
       spreadMethod="pad">
      <stop
         stop-color="#f1efeb"
         offset="0"
         id="stop47"
         style="stop-color:#4e4737;stop-opacity:1;" />
      <stop
         stop-color="#fdfcfc"
         offset="1"
         id="stop48" />
    </linearGradient>
    <linearGradient
       id="linearGradient46"
       x1="7.9373002"
       x2="7.9373002"
       y1="15.081"
       y2="1.852"
       gradientTransform="scale(3.7796)"
       gradientUnits="userSpaceOnUse"
       spreadMethod="pad">
      <stop
         stop-color="#f1efeb"
         offset="0"
         id="stop45"
         style="stop-color:#534b3a;stop-opacity:1;" />
      <stop
         stop-color="#fdfcfc"
         offset="1"
         id="stop46" />
    </linearGradient>
    <linearGradient
       id="linearGradient44"
       x1="7.9373002"
       x2="7.9373002"
       y1="15.081"
       y2="1.852"
       gradientTransform="scale(3.7796)"
       gradientUnits="userSpaceOnUse"
       spreadMethod="pad">
      <stop
         stop-color="#f1efeb"
         offset="0"
         id="stop43"
         style="stop-color:#544c3b;stop-opacity:1;" />
      <stop
         stop-color="#fdfcfc"
         offset="1"
         id="stop44" />
    </linearGradient>
    <linearGradient
       id="linearGradient42"
       x1="7.9373002"
       x2="7.9373002"
       y1="15.081"
       y2="1.852"
       gradientTransform="scale(3.7796)"
       gradientUnits="userSpaceOnUse"
       spreadMethod="pad">
      <stop
         stop-color="#f1efeb"
         offset="0"
         id="stop41"
         style="stop-color:#554c3b;stop-opacity:1;" />
      <stop
         stop-color="#fdfcfc"
         offset="1"
         id="stop42" />
    </linearGradient>
    <linearGradient
       id="linearGradient40"
       x1="7.9373002"
       x2="7.9373002"
       y1="15.081"
       y2="1.852"
       gradientTransform="scale(3.7796)"
       gradientUnits="userSpaceOnUse"
       spreadMethod="pad">
      <stop
         stop-color="#f1efeb"
         offset="0"
         id="stop39"
         style="stop-color:#564d3c;stop-opacity:1;" />
      <stop
         stop-color="#fdfcfc"
         offset="1"
         id="stop40" />
    </linearGradient>
    <linearGradient
       id="linearGradient38"
       x1="7.9373002"
       x2="7.9373002"
       y1="15.081"
       y2="1.852"
       gradientTransform="scale(3.7796)"
       gradientUnits="userSpaceOnUse"
       spreadMethod="pad">
      <stop
         stop-color="#f1efeb"
         offset="0"
         id="stop37"
         style="stop-color:#000000;stop-opacity:1;" />
      <stop
         stop-color="#fdfcfc"
         offset="1"
         id="stop38" />
    </linearGradient>
    <linearGradient
       id="linearGradient36"
       x1="7.9373002"
       x2="7.9373002"
       y1="15.081"
       y2="1.852"
       gradientTransform="scale(3.7796)"
       gradientUnits="userSpaceOnUse"
       spreadMethod="pad">
      <stop
         stop-color="#f1efeb"
         offset="0"
         id="stop35"
         style="stop-color:#000000;stop-opacity:1;" />
      <stop
         stop-color="#fdfcfc"
         offset="1"
         id="stop36" />
    </linearGradient>
    <linearGradient
       id="linearGradient34"
       x1="7.9373002"
       x2="7.9373002"
       y1="15.081"
       y2="1.852"
       gradientTransform="scale(3.7796)"
       gradientUnits="userSpaceOnUse"
       spreadMethod="pad">
      <stop
         stop-color="#f1efeb"
         offset="0"
         id="stop33"
         style="stop-color:#000000;stop-opacity:1;" />
      <stop
         stop-color="#fdfcfc"
         offset="1"
         id="stop34" />
    </linearGradient>
    <linearGradient
       id="linearGradient32"
       x1="7.9373002"
       x2="7.9373002"
       y1="15.081"
       y2="1.852"
       gradientTransform="scale(3.7796)"
       gradientUnits="userSpaceOnUse"
       spreadMethod="pad">
      <stop
         stop-color="#f1efeb"
         offset="0"
         id="stop31"
         style="stop-color:#000000;stop-opacity:1;" />
      <stop
         stop-color="#fdfcfc"
         offset="1"
         id="stop32" />
    </linearGradient>
    <linearGradient
       id="linearGradient30"
       x1="7.9373002"
       x2="7.9373002"
       y1="15.081"
       y2="1.852"
       gradientTransform="scale(3.7796)"
       gradientUnits="userSpaceOnUse"
       spreadMethod="pad">
      <stop
         stop-color="#f1efeb"
         offset="0"
         id="stop29"
         style="stop-color:#000000;stop-opacity:1;" />
      <stop
         stop-color="#fdfcfc"
         offset="1"
         id="stop30" />
    </linearGradient>
    <linearGradient
       id="linearGradient28"
       x1="7.9373002"
       x2="7.9373002"
       y1="15.081"
       y2="1.852"
       gradientTransform="scale(3.7796)"
       gradientUnits="userSpaceOnUse"
       spreadMethod="pad">
      <stop
         stop-color="#f1efeb"
         offset="0"
         id="stop27"
         style="stop-color:#000000;stop-opacity:1;" />
      <stop
         stop-color="#fdfcfc"
         offset="1"
         id="stop28" />
    </linearGradient>
    <linearGradient
       id="linearGradient26"
       x1="7.9373002"
       x2="7.9373002"
       y1="15.081"
       y2="1.852"
       gradientTransform="scale(3.7796)"
       gradientUnits="userSpaceOnUse"
       spreadMethod="pad">
      <stop
         stop-color="#f1efeb"
         offset="0"
         id="stop25"
         style="stop-color:#000000;stop-opacity:1;" />
      <stop
         stop-color="#fdfcfc"
         offset="1"
         id="stop26" />
    </linearGradient>
    <linearGradient
       id="linearGradient24"
       x1="7.9373002"
       x2="7.9373002"
       y1="15.081"
       y2="1.852"
       gradientTransform="scale(3.7796)"
       gradientUnits="userSpaceOnUse"
       spreadMethod="pad">
      <stop
         stop-color="#f1efeb"
         offset="0"
         id="stop23"
         style="stop-color:#000000;stop-opacity:1;" />
      <stop
         stop-color="#fdfcfc"
         offset="1"
         id="stop24" />
    </linearGradient>
    <linearGradient
       id="linearGradient22"
       x1="7.9373002"
       x2="7.9373002"
       y1="15.081"
       y2="1.852"
       gradientTransform="scale(3.7796)"
       gradientUnits="userSpaceOnUse"
       spreadMethod="pad">
      <stop
         stop-color="#f1efeb"
         offset="0"
         id="stop21"
         style="stop-color:#040403;stop-opacity:1;" />
      <stop
         stop-color="#fdfcfc"
         offset="1"
         id="stop22" />
    </linearGradient>
    <linearGradient
       id="linearGradient20"
       x1="7.9373002"
       x2="7.9373002"
       y1="15.081"
       y2="1.852"
       gradientTransform="scale(3.7796)"
       gradientUnits="userSpaceOnUse"
       spreadMethod="pad">
      <stop
         stop-color="#f1efeb"
         offset="0"
         id="stop19"
         style="stop-color:#1d1a15;stop-opacity:1;" />
      <stop
         stop-color="#fdfcfc"
         offset="1"
         id="stop20" />
    </linearGradient>
    <linearGradient
       id="linearGradient18"
       x1="7.9373002"
       x2="7.9373002"
       y1="15.081"
       y2="1.852"
       gradientTransform="scale(3.7796)"
       gradientUnits="userSpaceOnUse"
       spreadMethod="pad">
      <stop
         stop-color="#f1efeb"
         offset="0"
         id="stop17"
         style="stop-color:#4b4435;stop-opacity:1;" />
      <stop
         stop-color="#fdfcfc"
         offset="1"
         id="stop18" />
    </linearGradient>
    <linearGradient
       id="linearGradient16"
       x1="7.9373002"
       x2="7.9373002"
       y1="15.081"
       y2="1.852"
       gradientTransform="scale(3.7796)"
       gradientUnits="userSpaceOnUse"
       spreadMethod="pad">
      <stop
         stop-color="#f1efeb"
         offset="0"
         id="stop15"
         style="stop-color:#635945;stop-opacity:1;" />
      <stop
         stop-color="#fdfcfc"
         offset="1"
         id="stop16" />
    </linearGradient>
    <linearGradient
       id="linearGradient14"
       x1="7.9373002"
       x2="7.9373002"
       y1="15.081"
       y2="1.852"
       gradientTransform="scale(3.7796)"
       gradientUnits="userSpaceOnUse"
       spreadMethod="pad">
      <stop
         stop-color="#f1efeb"
         offset="0"
         id="stop13"
         style="stop-color:#746851;stop-opacity:1;" />
      <stop
         stop-color="#fdfcfc"
         offset="1"
         id="stop14" />
    </linearGradient>
    <linearGradient
       id="linearGradient12"
       x1="7.9373002"
       x2="7.9373002"
       y1="15.081"
       y2="1.852"
       gradientTransform="scale(3.7796)"
       gradientUnits="userSpaceOnUse"
       spreadMethod="pad">
      <stop
         stop-color="#f1efeb"
         offset="0"
         id="stop11"
         style="stop-color:#7d7057;stop-opacity:1;" />
      <stop
         stop-color="#fdfcfc"
         offset="1"
         id="stop12" />
    </linearGradient>
    <linearGradient
       id="linearGradient10"
       x1="7.9373002"
       x2="7.9373002"
       y1="15.081"
       y2="1.852"
       gradientTransform="scale(3.7796)"
       gradientUnits="userSpaceOnUse"
       spreadMethod="pad">
      <stop
         stop-color="#f1efeb"
         offset="0"
         id="stop9"
         style="stop-color:#7f7259;stop-opacity:1;" />
      <stop
         stop-color="#fdfcfc"
         offset="1"
         id="stop10" />
    </linearGradient>
    <linearGradient
       id="linearGradient8"
       x1="7.9373"
       x2="7.9373"
       y1="15.081"
       y2="1.852"
       gradientTransform="scale(3.7796)"
       gradientUnits="userSpaceOnUse">
      <stop
         stop-color="#f1efeb"
         offset="0"
         id="stop7"
         style="stop-color:#7f7259;stop-opacity:1;" />
      <stop
         stop-color="#fdfcfc"
         offset="1"
         id="stop8" />
    </linearGradient>
    <linearGradient
       id="linearGradient862-3"
       x1="7.9373"
       x2="7.9373"
       y1="15.081"
       y2="1.852"
       gradientTransform="scale(3.7796)"
       gradientUnits="userSpaceOnUse"
       xlink:href="#linearGradient92">
      <stop
         stop-color="#f1efeb"
         offset="0"
         id="stop1" />
      <stop
         stop-color="#fdfcfc"
         offset="1"
         id="stop2" />
    </linearGradient>
    <linearGradient
       id="d"
       x1="45"
       x2="60.076"
       y1="19"
       y2="3.924"
       gradientTransform="translate(0.01285182,-0.00112622)"
       gradientUnits="userSpaceOnUse">
      <stop
         offset="0"
         stop-color="#fff"
         id="stop5" />
      <stop
         offset="1"
         stop-color="#b3b3b3"
         id="stop6" />
    </linearGradient>
    <linearGradient
       inkscape:collect="always"
       xlink:href="#linearGradient862-3"
       id="linearGradient5"
       gradientUnits="userSpaceOnUse"
       gradientTransform="matrix(3.7796,0,0,3.7796,-9.765e-4,0.0302735)"
       x1="7.9373"
       y1="15.081"
       x2="7.9373"
       y2="1.852" />
    <filter
       inkscape:collect="always"
       style="color-interpolation-filters:sRGB"
       id="filter95"
       x="-0.14695404"
       y="-0.14704597"
       width="1.2939081"
       height="1.2940919">
      <feGaussianBlur
         inkscape:collect="always"
         stdDeviation="1.5300537"
         id="feGaussianBlur95" />
    </filter>
    <linearGradient
       id="c"
       x1="32"
       x2="32"
       y1="11"
       y2="53"
       gradientUnits="userSpaceOnUse">
      <stop
         stop-color="#f7bd39"
         offset="0"
         id="stop3" />
      <stop
         stop-color="#f9e657"
         offset="1"
         id="stop4" />
    </linearGradient>
    <filter
       id="d-2"
       x="-0.059935206"
       y="-0.059935206"
       width="1.1198704"
       height="1.1198704"
       color-interpolation-filters="sRGB">
      <feGaussianBlur
         stdDeviation=".185"
         id="feGaussianBlur10" />
    </filter>
    <linearGradient
       id="e"
       x1="8.467"
       x2="8.467"
       y1="284.82999"
       y2="292.23999"
       gradientUnits="userSpaceOnUse">
      <stop
         stop-color="#525252"
         offset="0"
         id="stop5-0" />
      <stop
         stop-color="#1f1f1f"
         offset="1"
         id="stop6-2" />
    </linearGradient>
    <style
       id="current-color-scheme"
       type="text/css">.ColorScheme-Text { color:#363636; } .ColorScheme-Text { color:#363636; }</style>
    <filter
       inkscape:collect="always"
       style="color-interpolation-filters:sRGB"
       id="filter94"
       x="-0.069119996"
       y="-0.069119996"
       width="1.13824"
       height="1.13824">
      <feGaussianBlur
         inkscape:collect="always"
         stdDeviation="1.6128562"
         id="feGaussianBlur94" />
    </filter>
  </defs>
  <path
     id="path3-9-5"
     style="opacity:0.25;fill:#000000;fill-opacity:1;stroke-width:3.7796;filter:url(#filter94)"
     d="m 17.000976,3.9990228 c -7.2030942,0 -13.0019532,5.798859 -13.0019532,13.0019532 v 29.998047 c 0,7.203095 5.798859,13.001953 13.0019532,13.001953 h 29.998047 c 7.203095,0 13.001953,-5.798858 13.001953,-13.001953 V 28.971679 c -0.125226,-0.33309 -0.258163,-0.643195 -0.398438,-0.933593 -0.140274,-0.290399 -0.289006,-0.559404 -0.443359,-0.810547 -0.154353,-0.251144 -0.314961,-0.483894 -0.482422,-0.699219 -0.16746,-0.215325 -0.341887,-0.414714 -0.521484,-0.597656 -0.179598,-0.182943 -0.363924,-0.34991 -0.554688,-0.503907 -0.190764,-0.153996 -0.38693,-0.293388 -0.58789,-0.421875 -0.200961,-0.128487 -0.407002,-0.245149 -0.617188,-0.351562 0.210186,0.106413 0.416227,0.223075 0.617188,0.351562 0.20096,0.128487 0.397126,0.267879 0.58789,0.421875 0.190764,0.153997 0.37509,0.320964 0.554688,0.503907 0.179597,0.182942 0.354024,0.382331 0.521484,0.597656 0.167461,0.215325 0.328069,0.448075 0.482422,0.699219 0.154353,0.251143 0.303085,0.520148 0.443359,0.810547 0.140275,0.290398 0.273212,0.600503 0.398438,0.933593 V 28.833007 C 59.752064,21.784286 43.371199,5.1842266 35.799804,4.034179 c -0.264999,-0.02 -0.52811,-0.035156 -0.787109,-0.035156 0.249999,0.0625 0.487549,0.1462404 0.714843,0.2460938 0.227295,0.099853 0.444337,0.2158204 0.650391,0.3496093 0.206054,0.133789 0.401612,0.2849123 0.587891,0.4492188 0.186279,0.1643065 0.363281,0.341797 0.53125,0.5332031 0.167968,0.1914061 0.327392,0.3962404 0.478515,0.6113281 0.151123,0.2150878 0.293946,0.4404299 0.429688,0.6757813 C 38.269531,6.6289057 38.126708,6.4035637 37.975585,6.1884759 37.824462,5.9733881 37.665038,5.7685539 37.49707,5.5771478 37.329101,5.3857417 37.152099,5.2082512 36.96582,5.0439447 36.779541,4.8796381 36.583983,4.7285149 36.377929,4.5947259 36.171875,4.460937 35.954833,4.34497 35.727538,4.2451166 35.500244,4.1452631 35.262694,4.0615227 35.012695,3.9990228 Z m 22.728515,6.0253912 c 0.177735,0.564452 0.337891,1.138672 0.486329,1.708984 0.296875,1.140624 0.546875,2.265627 0.796875,3.265625 -0.25,-0.999998 -0.500001,-2.125001 -0.796875,-3.265625 -0.148438,-0.570312 -0.308594,-1.144532 -0.486329,-1.708984 z m 13.246094,13.580078 c 0.483513,0.09518 0.959749,0.196737 1.423828,0.318359 -0.464079,-0.121622 -0.940315,-0.223178 -1.423828,-0.318359 z"
     inkscape:label="Shadow" />
  <path
     d="m 17.000976,3.9990235 c -7.2031005,0 -13.0019525,5.798852 -13.0019525,13.0019525 v 29.998047 c 0,7.203102 5.798852,13.001953 13.0019525,13.001953 h 29.998047 c 7.203102,0 13.001953,-5.798851 13.001953,-13.001953 V 28.971679 c -2.003622,-5.329445 -5.995573,-4.974479 -9.988281,-5.972656 -5.819994,-1.454999 -8.030001,-4.120004 -9,-7.999999 -0.999999,-3.999997 -2.000003,-10.0000015 -6,-11.0000005 z"
     style="fill:url(#linearGradient5);stroke-width:3.7796"
     id="path3-9" />
  <path
     d="m 32.001503,15.989202 a 0.45588493,0.45588493 0 0 0 -0.395368,0.201719 l -0.831084,1.347483 -0.391334,0.04035 -1.081214,-1.157867 c -0.217856,-0.233994 -0.661638,-0.149272 -0.770567,0.153306 l -0.55271,1.476583 -0.383265,0.116998 -1.278899,-0.919839 c -0.262235,-0.189616 -0.677776,-0.01614 -0.726188,0.298544 l -0.258201,1.561305 -0.350991,0.185582 -1.436239,-0.65357 c -0.290475,-0.133135 -0.665673,0.116997 -0.653569,0.435713 l 0.05245,1.581477 -0.302579,0.250132 -1.541132,-0.363095 c -0.310648,-0.07262 -0.629364,0.242063 -0.556746,0.556745 l 0.363095,1.541132 -0.250132,0.30258 -1.581477,-0.05244 c -0.318715,-0.01211 -0.568848,0.363094 -0.435713,0.653569 l 0.65357,1.440274 -0.185582,0.346956 -1.561305,0.254166 c -0.314681,0.05244 -0.484125,0.467989 -0.302578,0.726188 l 0.927907,1.282934 -0.121032,0.383266 -1.476582,0.552709 c -0.298544,0.108929 -0.387301,0.552711 -0.153307,0.770567 l 1.157867,1.07718 -0.04035,0.395369 -1.343449,0.831082 c -0.274336,0.169444 -0.274336,0.621295 0,0.786705 l 1.343449,0.835116 0.04035,0.391335 -1.157867,1.077179 c -0.233994,0.217857 -0.145237,0.661638 0.153307,0.774601 l 1.476582,0.55271 0.121032,0.379232 -0.927907,1.282932 c -0.185582,0.258201 -0.0121,0.677776 0.302578,0.726189 l 1.561305,0.254166 0.185582,0.350991 -0.65357,1.436239 c -0.133135,0.29451 0.116998,0.669707 0.435713,0.657604 l 1.581477,-0.05648 0.250132,0.302578 -0.363095,1.541133 c -0.07262,0.310647 0.242064,0.629364 0.556746,0.556745 l 1.541132,-0.363094 0.302579,0.250131 -0.05245,1.581477 c -0.01211,0.32275 0.363094,0.572882 0.653569,0.435713 l 1.436239,-0.653569 0.350991,0.189616 0.254166,1.55727 c 0.05244,0.314681 0.467988,0.484126 0.726188,0.302579 l 1.282934,-0.927908 0.383265,0.121032 0.55271,1.476583 c 0.108929,0.298544 0.552711,0.3873 0.770567,0.153306 l 1.077179,-1.157866 0.395369,0.04035 0.831084,1.347482 c 0.16944,0.270304 0.621296,0.270304 0.786701,0 l 0.835119,-1.347482 0.391334,-0.04035 1.077175,1.157866 c 0.217858,0.233994 0.661644,0.145238 0.774608,-0.153306 l 0.552704,-1.476583 0.37924,-0.121032 1.282929,0.927908 c 0.258195,0.185581 0.673738,0.0121 0.72619,-0.302579 l 0.254161,-1.55727 0.350996,-0.189616 1.436241,0.653569 c 0.294509,0.137169 0.665668,-0.112963 0.657598,-0.435713 l -0.05647,-1.581477 0.302579,-0.250131 1.541135,0.363094 c 0.314672,0.07262 0.629355,-0.242063 0.556739,-0.556745 l -0.36309,-1.541133 0.250126,-0.302578 1.581483,0.05648 c 0.322742,0.0121 0.572879,-0.363094 0.435706,-0.657604 l -0.653564,-1.436239 0.189615,-0.350991 1.557264,-0.254166 c 0.318717,-0.04842 0.488168,-0.467988 0.302578,-0.726189 l -0.923864,-1.282932 0.116988,-0.379232 1.476589,-0.55271 c 0.302579,-0.112963 0.387299,-0.556744 0.153302,-0.774601 l -1.157861,-1.077179 0.04035,-0.391335 1.347486,-0.835116 c 0.2703,-0.16541 0.2703,-0.617261 0,-0.786705 l -1.347486,-0.831082 -0.04035,-0.395369 1.157861,-1.07718 c 0.233997,-0.217856 0.149277,-0.661638 -0.153302,-0.770567 l -1.476589,-0.552709 -0.116988,-0.383266 0.923864,-1.278899 c 0.18559,-0.262234 0.01206,-0.677775 -0.302578,-0.726188 l -1.561299,-0.258201 -0.18558,-0.346956 0.653564,-1.440274 c 0.137173,-0.290475 -0.112964,-0.665672 -0.435706,-0.653569 l -1.581483,0.05244 -0.250126,-0.30258 0.36309,-1.541132 c 0.07258,-0.310648 -0.242067,-0.629363 -0.556739,-0.556745 l -1.541135,0.363095 -0.302579,-0.250132 0.05647,-1.581477 c 0.01206,-0.322751 -0.363089,-0.568848 -0.657598,-0.435713 l -1.436241,0.65357 -0.350996,-0.185582 -0.254161,-1.561305 c -0.05241,-0.314682 -0.467995,-0.48816 -0.72619,-0.302578 l -1.282929,0.923873 -0.37924,-0.116998 -0.552704,-1.476583 c -0.112964,-0.302578 -0.552715,-0.3873 -0.774608,-0.153306 l -1.077175,1.157867 -0.391334,-0.04035 -0.835119,-1.347483 a 0.45588493,0.45588493 0 0 0 -0.391333,-0.201719 z m -0.05241,2.820032 c 0.476054,0 0.952107,0.318715 0.952107,0.952114 0,1.266795 -1.904225,1.266795 -1.904225,0 0,-0.633399 0.476054,-0.952114 0.952118,-0.952114 z m 2.210838,1.569374 a 11.715839,11.715839 0 0 1 8.020349,5.712681 l -1.121559,2.533591 a 0.87142605,0.87142605 0 0 0 0.443776,1.149798 l 2.158396,0.956149 c 0.06863,0.677775 0.07664,1.359585 0.02423,2.037361 h -1.202244 c -0.121033,0 -0.169451,0.08069 -0.169451,0.197685 v 0.548675 c 0,1.303105 -0.730225,1.585511 -1.371684,1.654096 -0.613226,0.07262 -1.290999,-0.254166 -1.371695,-0.629363 -0.363089,-2.029293 -0.968246,-2.460972 -1.916329,-3.211366 1.178045,-0.746361 2.404498,-1.851781 2.404498,-3.328364 0,-1.59358 -1.089291,-2.598141 -1.839679,-3.09437 A 4.8735308,4.8735308 0 0 0 35.705112,24.154787 H 23.271105 a 11.828802,11.828802 0 0 1 6.555868,-3.776179 l 1.464479,1.537098 c 0.330822,0.346957 0.879491,0.363094 1.226453,0.02824 z m -13.563588,7.048061 c 0.476057,0 0.952114,0.318716 0.952114,0.952114 0,1.266795 -1.904228,1.266795 -1.904228,0 0,-0.633398 0.476057,-0.952114 0.952114,-0.952114 z m 22.705495,0.04438 c 0.476054,0 0.952107,0.318717 0.952107,0.952114 0,1.266795 -1.90019,1.266795 -1.90019,0 0,-0.633397 0.472019,-0.952114 0.948083,-0.952114 z m -20.708477,0.375198 h 1.39993 v 7.419224 h -3.267879 a 12.526749,12.526749 0 0 1 -0.375197,-4.627437 l 2.049464,-0.91177 A 0.86739167,0.86739167 0 0 0 22.843461,28.5805 Z m 6.325908,0 h 4.328893 c 0.205753,0 1.444299,0.08068 1.444299,1.008595 0,0.766532 -0.948072,1.149798 -1.730739,1.149798 h -4.042453 z m 0,4.925977 h 3.45746 c 0.274345,0 1.476589,0.387301 1.859853,1.924399 0.121033,0.472024 0.387298,2.009122 0.564809,2.501317 0.181555,0.552709 0.915804,1.734782 1.694447,1.734782 h 4.946147 c -0.330822,0.443783 -0.693911,0.78267 -1.08928,1.178039 l -2.00913,-0.435713 a 0.86739167,0.86739167 0 0 0 -1.028757,0.669707 l -0.480099,2.226978 c -3.106469,1.412033 -6.676896,1.391861 -9.771265,-0.04437 l -0.476057,-2.231012 a 0.86739167,0.86739167 0 0 0 -1.032801,-0.665673 l -1.968778,0.42361 C 23.222724,39.675056 22.879802,39.352305 22.569155,38.93273 h 9.43238 v -3.695492 h -3.082266 z m -4.022277,8.06876 c 0.476057,0 0.952114,0.314682 0.952114,0.94808 0,1.270829 -1.900193,1.270829 -1.904227,0 0,-0.633398 0.476056,-0.952114 0.952113,-0.952114 z m 14.104193,0.04035 c 0.476053,0 0.952117,0.318717 0.952117,0.952114 0,1.27083 -1.904235,1.27083 -1.904235,0 0,-0.633397 0.476064,-0.952114 0.952118,-0.952114 z"
     fill="#666666"
     id="path6"
     style="fill:#212121;fill-opacity:1;stroke-width:4.03438" />
  <path
     d="m 33.300709,4.6539948 c 3.999996,0.999999 5.000001,7.0000042 6,11.0000002 0.969999,3.879996 3.180006,6.545001 9,8 3.992708,0.998177 7.984659,0.64321 9.988281,5.972656 V 29.487979 C 58.040078,22.439251 41.659221,5.8391998 34.087818,4.6891508 c -0.264999,-0.02 -0.528109,-0.03516 -0.787109,-0.03516 z"
     style="display:inline;opacity:0.25;fill:#000000;fill-opacity:1;filter:url(#filter95)"
     id="path5-6" />
  <path
     d="m 35.012695,3.9990237 c 3.999996,0.999999 5.000001,7.0000043 6,11.0000003 0.969999,3.879996 3.180006,6.545001 9,8 3.992708,0.998177 7.984659,0.64321 9.988281,5.972656 V 28.833008 C 59.752064,21.78428 43.371207,5.1842286 35.799804,4.0341799 c -0.264999,-0.02 -0.528109,-0.035156 -0.787109,-0.035156 z"
     style="display:inline;fill:url(#d)"
     id="path5" />
  <title
     id="title1">Gnome Symbolic Icons</title>
  <metadata
     id="metadata2">
    <rdf:RDF>
      <cc:Work
         rdf:about="">
        <dc:title>Gnome Symbolic Icons</dc:title>
      </cc:Work>
    </rdf:RDF>
  </metadata>
</svg>
