<?xml version="1.0" encoding="UTF-8" standalone="no"?>
<svg
   width="224"
   height="224"
   id="svg2951"
   version="1.1"
   inkscape:version="1.2.2 (b0a8486541, 2022-12-01)"
   sodipodi:docname="activities.svg"
   xmlns:inkscape="http://www.inkscape.org/namespaces/inkscape"
   xmlns:sodipodi="http://sodipodi.sourceforge.net/DTD/sodipodi-0.dtd"
   xmlns="http://www.w3.org/2000/svg"
   xmlns:svg="http://www.w3.org/2000/svg"
   xmlns:rdf="http://www.w3.org/1999/02/22-rdf-syntax-ns#"
   xmlns:cc="http://creativecommons.org/ns#"
   xmlns:dc="http://purl.org/dc/elements/1.1/">
  <defs
     id="defs2953">
    <inkscape:perspective
       sodipodi:type="inkscape:persp3d"
       inkscape:vp_x="0 : 526.18109 : 1"
       inkscape:vp_y="0 : 1000 : 0"
       inkscape:vp_z="744.09448 : 526.18109 : 1"
       inkscape:persp3d-origin="372.04724 : 350.78739 : 1"
       id="perspective2959" />
    <inkscape:perspective
       id="perspective2943"
       inkscape:persp3d-origin="0.5 : 0.33333333 : 1"
       inkscape:vp_z="1 : 0.5 : 1"
       inkscape:vp_y="0 : 1000 : 0"
       inkscape:vp_x="0 : 0.5 : 1"
       sodipodi:type="inkscape:persp3d" />
  </defs>
  <sodipodi:namedview
     id="base"
     pagecolor="#ffffff"
     bordercolor="#666666"
     borderopacity="1.0"
     inkscape:pageopacity="0.0"
     inkscape:pageshadow="2"
     inkscape:zoom="1.4"
     inkscape:cx="-407.14286"
     inkscape:cy="168.92857"
     inkscape:document-units="px"
     inkscape:current-layer="layer1"
     showgrid="false"
     inkscape:window-width="2560"
     inkscape:window-height="1379"
     inkscape:window-x="0"
     inkscape:window-y="0"
     inkscape:window-maximized="1"
     inkscape:document-rotation="0"
     inkscape:showpageshadow="2"
     inkscape:pagecheckerboard="0"
     inkscape:deskcolor="#d1d1d1" />
  <metadata
     id="metadata2956">
    <rdf:RDF>
      <cc:Work
         rdf:about="">
        <dc:format>image/svg+xml</dc:format>
        <dc:type
           rdf:resource="http://purl.org/dc/dcmitype/StillImage" />
        <dc:title />
      </cc:Work>
    </rdf:RDF>
  </metadata>
  <g
     inkscape:label="Layer 1"
     inkscape:groupmode="layer"
     id="layer1"
     transform="translate(-373.71429,-334.64487)">
    <g
       id="g11328"
       transform="matrix(1.8680254,0,0,1.8680254,-911.5585,147.87472)"
       style="opacity:0.71600001" />
    <path
       id="path28"
       style="fill:#333333;fill-opacity:1;fill-rule:nonzero;stroke:none;stroke-width:1.08766"
       d="m 485.71486,355.28101 c -50.4366,0 -91.32586,40.86968 -91.36442,91.30145 v 70.70495 c 0.0281,11.44669 9.31245,20.72132 20.77056,20.72132 0.0282,0 0.0721,-0.003 0.0984,-0.003 v 0.003 h 70.52672 c 50.44229,-0.0234 91.33201,-40.9153 91.33201,-91.36265 0,-50.45867 -40.905,-91.36386 -91.36437,-91.36386 z m 18.52096,37.59196 v 8.1e-4 c 15.34328,0 29.83266,11.76481 29.83266,27.96822 0,1.50309 -0.0188,2.99729 -0.25677,4.70707 -0.42449,4.30947 -4.36067,7.39799 -8.64893,6.78931 -4.29251,-0.61471 -7.20733,-4.67946 -6.4097,-8.93899 0.0675,-0.4802 0.0984,-1.24615 0.0984,-2.55739 0,-9.1853 -7.50388,-12.73604 -14.61658,-12.73604 -7.10848,0 -13.51609,5.9619 -13.54039,12.71875 v 23.38985 l 13.18858,-0.0961 c 10.29596,-0.21599 10.40133,15.30518 0.10541,15.23217 l -13.29389,0.0722 -0.0961,21.8198 c -1.59095,17.12542 -16.17131,30.82213 -33.68726,30.82213 -18.5651,0 -33.88049,-15.18725 -33.88049,-33.79802 0.55895,-19.14523 15.85753,-34.19974 35.07591,-34.0194 l 10.70521,-0.0721 v 15.20913 l -10.79433,0.0961 c -10.56471,0.31203 -19.59774,7.47622 -19.77077,18.78843 0,10.31311 8.33571,18.56607 18.67028,18.56607 10.32458,0 18.56724,-7.51058 18.56724,-18.544 V 420.7591 c 0.005,-1.06609 0.0553,-1.92084 0.17757,-3.09859 1.73531,-14.07655 14.32155,-24.8036 28.57126,-24.8036 z" />
  </g>
</svg>
