<?xml version="1.0" encoding="UTF-8"?>
<svg id="svg2" width="64" height="64" version="1.1" xmlns="http://www.w3.org/2000/svg" xmlns:xlink="http://www.w3.org/1999/xlink">
 <defs id="defs2">
  <linearGradient id="d" x1="45" x2="60.076" y1="19" y2="3.924" gradientTransform="translate(.012852 -.0011262)" gradientUnits="userSpaceOnUse">
   <stop id="stop5" stop-color="#fff" offset="0"/>
   <stop id="stop6" stop-color="#b3b3b3" offset="1"/>
  </linearGradient>
  <linearGradient id="linearGradient5" x1="7.9373" x2="7.9373" y1="15.081" y2="1.852" gradientTransform="matrix(3.7796 0 0 3.7796 -.0009765 .030274)" gradientUnits="userSpaceOnUse">
   <stop id="stop1" stop-color="#f1efeb" offset="0"/>
   <stop id="stop2" stop-color="#fdfcfc" offset="1"/>
  </linearGradient>
  <filter id="filter95" x="-.14695" y="-.14705" width="1.2939" height="1.2941" color-interpolation-filters="sRGB">
   <feGaussianBlur id="feGaussianBlur95" stdDeviation="1.5300537"/>
  </filter>
  <filter id="filter1" x="-.147" y="-.147" width="1.294" height="1.294" color-interpolation-filters="sRGB">
   <feGaussianBlur id="feGaussianBlur1" stdDeviation="2.1129663"/>
  </filter>
  <filter id="filter94" x="-.06912" y="-.06912" width="1.1382" height="1.1382" color-interpolation-filters="sRGB">
   <feGaussianBlur id="feGaussianBlur94" stdDeviation="1.6128562"/>
  </filter>
 </defs>
 <path id="path3-9-5" d="m17.001 3.999c-7.2031 0-13.002 5.7989-13.002 13.002v29.998c0 7.2031 5.7989 13.002 13.002 13.002h29.998c7.2031 0 13.002-5.7989 13.002-13.002v-18.027c-0.12523-0.33309-0.25816-0.6432-0.39844-0.93359-0.14027-0.2904-0.28901-0.5594-0.44336-0.81055-0.15435-0.25114-0.31496-0.48389-0.48242-0.69922-0.16746-0.21532-0.34189-0.41471-0.52148-0.59766-0.1796-0.18294-0.36392-0.34991-0.55469-0.50391-0.19076-0.154-0.38693-0.29339-0.58789-0.42188-0.20096-0.12849-0.407-0.24515-0.61719-0.35156 0.21019 0.10641 0.41623 0.22308 0.61719 0.35156 0.20096 0.12849 0.39713 0.26788 0.58789 0.42188 0.19076 0.154 0.37509 0.32096 0.55469 0.50391 0.1796 0.18294 0.35402 0.38233 0.52148 0.59766 0.16746 0.21532 0.32807 0.44808 0.48242 0.69922 0.15435 0.25114 0.30308 0.52015 0.44336 0.81055 0.14028 0.2904 0.27321 0.6005 0.39844 0.93359v-0.13867c-0.24891-7.0487-16.63-23.649-24.201-24.799-0.265-0.02-0.52811-0.035156-0.78711-0.035156 0.25 0.0625 0.48755 0.14624 0.71484 0.24609 0.2273 0.099853 0.44434 0.21582 0.65039 0.34961 0.20605 0.13379 0.40161 0.28491 0.58789 0.44922s0.36328 0.3418 0.53125 0.5332c0.16797 0.19141 0.32739 0.39624 0.47852 0.61133 0.15112 0.21509 0.29395 0.44043 0.42969 0.67578-0.13574-0.23535-0.27856-0.46069-0.42969-0.67578s-0.31055-0.41992-0.47852-0.61133c-0.16797-0.19141-0.34497-0.3689-0.53125-0.5332-0.18628-0.16431-0.38184-0.31543-0.58789-0.44922-0.20605-0.13379-0.4231-0.24976-0.65039-0.34961-0.22729-0.099854-0.46484-0.18359-0.71484-0.24609zm22.729 6.0254c0.17774 0.56445 0.33789 1.1387 0.48633 1.709 0.29688 1.1406 0.54688 2.2656 0.79688 3.2656-0.25-1-0.5-2.125-0.79688-3.2656-0.14844-0.57031-0.30859-1.1445-0.48633-1.709zm13.246 13.58c0.48351 0.09518 0.95975 0.19674 1.4238 0.31836-0.46408-0.12162-0.94032-0.22318-1.4238-0.31836z" filter="url(#filter94)" opacity=".25" stroke-width="3.7796"/>
 <path id="path3-9" d="m17.001 3.999c-7.2031 0-13.002 5.7989-13.002 13.002v29.998c0 7.2031 5.7989 13.002 13.002 13.002h29.998c7.2031 0 13.002-5.7989 13.002-13.002v-18.027c-2.0036-5.3294-5.9956-4.9745-9.9883-5.9727-5.82-1.455-8.03-4.12-9-8-1-4-2-10-6-11z" fill="url(#linearGradient5)" stroke-width="3.7796"/>
 <g id="g1" transform="rotate(-90 31.063 32)" display="none" filter="url(#filter1)" opacity=".25" stroke-width="2.8748">
  <path id="path1-4" d="m21.001 17.126c-3.1853 0-5.7496 2.5643-5.7496 5.7496v20.124c0 3.1853 2.5643 5.7496 5.7496 5.7496h20.124c3.1853 0 5.7496-2.5643 5.7496-5.7496v-8.6244h-2.8748v8.6244c0 1.5926-1.2822 2.8748-2.8748 2.8748h-20.124c-1.5926 0-2.8748-1.2822-2.8748-2.8748v-20.124c0-1.5926 1.2822-2.8748 2.8748-2.8748h8.6244v-2.8748z" style="paint-order:stroke fill markers"/>
  <path id="path2" d="m33.937 14.251c-0.79632 0-1.4374 0.64108-1.4374 1.4374 0 0.79632 0.64108 1.4374 1.4374 1.4374h10.904l-11.78 11.774c-0.56308 0.56308-0.56308 1.4751 0 2.0382 0.56308 0.56306 1.4751 0.56308 2.0382 0l11.774-11.78v10.904c0 0.79632 0.64108 1.4374 1.4374 1.4374s1.4374-0.64108 1.4374-1.4374v-14.374c0-0.04594-0.0014-0.08992-0.0058-0.13474-3.42e-4 -0.0035 3.71e-4 -0.0077 0-0.01121-0.0044-0.04298-0.01437-0.08739-0.02242-0.12914-0.01754-0.09191-0.04447-0.17922-0.07859-0.26391-0.01179-0.029-0.02587-0.0562-0.0393-0.08423-0.0069-0.01437-0.0095-0.03073-0.01696-0.04494-0.0032-0.0058-0.0081-0.01093-0.01121-0.01696-0.01955-0.03619-0.03921-0.07245-0.06175-0.10668-0.0028-0.0044-0.0084-0.0069-0.01121-0.01121-0.0052-0.0077-0.0115-0.01466-0.01696-0.02242-0.04757-0.06764-0.09892-0.13261-0.15722-0.19092-0.0583-0.0583-0.12327-0.10962-0.19091-0.15722-0.06387-0.04496-0.13112-0.08371-0.20213-0.11792-0.02789-0.01351-0.05522-0.02759-0.08423-0.0393-0.08469-0.03415-0.172-0.06098-0.2639-0.07859-0.04171-0.0081-0.08696-0.01811-0.12914-0.02242-0.0037-3.77e-4 -0.0075 3.48e-4 -0.01121 0-0.04577-0.0044-0.08883-0.0054-0.13474-0.0054h-14.374z"/>
 </g>
 <g id="g2" transform="rotate(-90 31.063 32)" fill="#202020" stroke-width="2.8748">
  <path id="path1-4-0" d="m21.001 17.126c-3.1853 0-5.7496 2.5643-5.7496 5.7496v20.124c0 3.1853 2.5643 5.7496 5.7496 5.7496h20.124c3.1853 0 5.7496-2.5643 5.7496-5.7496v-8.6244h-2.8748v8.6244c0 1.5926-1.2822 2.8748-2.8748 2.8748h-20.124c-1.5926 0-2.8748-1.2822-2.8748-2.8748v-20.124c0-1.5926 1.2822-2.8748 2.8748-2.8748h8.6244v-2.8748z" style="paint-order:stroke fill markers"/>
  <path id="path2-3" d="m33.937 14.251c-0.79632 0-1.4374 0.64108-1.4374 1.4374 0 0.79632 0.64108 1.4374 1.4374 1.4374h10.904l-11.78 11.774c-0.56308 0.56308-0.56308 1.4751 0 2.0382 0.56308 0.56306 1.4751 0.56308 2.0382 0l11.774-11.78v10.904c0 0.79632 0.64108 1.4374 1.4374 1.4374s1.4374-0.64108 1.4374-1.4374v-14.374c0-0.04594-0.0014-0.08992-0.0058-0.13474-3.42e-4 -0.0035 3.71e-4 -0.0077 0-0.01121-0.0044-0.04298-0.01437-0.08739-0.02242-0.12914-0.01754-0.09191-0.04447-0.17922-0.07859-0.26391-0.01179-0.029-0.02587-0.0562-0.0393-0.08423-0.0069-0.01437-0.0095-0.03073-0.01696-0.04494-0.0032-0.0058-0.0081-0.01093-0.01121-0.01696-0.01955-0.03619-0.03921-0.07245-0.06175-0.10668-0.0028-0.0044-0.0084-0.0069-0.01121-0.01121-0.0052-0.0077-0.0115-0.01466-0.01696-0.02242-0.04757-0.06764-0.09892-0.13261-0.15722-0.19092-0.0583-0.0583-0.12327-0.10962-0.19091-0.15722-0.06387-0.04496-0.13112-0.08371-0.20213-0.11792-0.02789-0.01351-0.05522-0.02759-0.08423-0.0393-0.08469-0.03415-0.172-0.06098-0.2639-0.07859-0.04171-0.0081-0.08696-0.01811-0.12914-0.02242-0.0037-3.77e-4 -0.0075 3.48e-4 -0.01121 0-0.04577-0.0044-0.08883-0.0054-0.13474-0.0054h-14.374z"/>
 </g>
 <path id="path5-6" d="m33.301 4.654c4 1 5 7 6 11 0.97 3.88 3.18 6.545 9 8 3.9927 0.99818 7.9847 0.64321 9.9883 5.9727v-0.13867c-0.24891-7.0487-16.63-23.649-24.201-24.799-0.265-0.02-0.52811-0.03516-0.78711-0.03516z" filter="url(#filter95)" opacity=".25"/>
 <path id="path5" d="m35.013 3.999c4 1 5 7 6 11 0.97 3.88 3.18 6.545 9 8 3.9927 0.99818 7.9847 0.64321 9.9883 5.9727v-0.13867c-0.24891-7.0487-16.63-23.649-24.201-24.799-0.265-0.02-0.52811-0.035156-0.78711-0.035156z" fill="url(#d)"/>
</svg>
