<?xml version="1.0" encoding="UTF-8"?>
<svg id="svg1" width="22" height="22" version="1.1" xmlns="http://www.w3.org/2000/svg">
 <defs id="defs1">
  <style id="current-color-scheme" type="text/css">.ColorScheme-Text { color:#363636; } .ColorScheme-Highlight { color:#4285f4; }</style>
 </defs>
 <path id="path28-7" d="m11 3.8524c-3.9473 0-7.1474 3.1985-7.1504 7.1454v5.5335c0.0022 0.89584 0.72881 1.6217 1.6255 1.6217 0.00221 0 0.00564-2.35e-4 0.0077-2.35e-4v2.35e-4h5.5196c3.9477-0.0018 7.1478-3.2021 7.1478-7.1502 0-3.949-3.2013-7.1503-7.1504-7.1503zm1.4495 2.942v6.3e-5c1.2008 0 2.3348 0.92074 2.3348 2.1889 0 0.11764-0.0015 0.23457-0.0201 0.36839-0.03322 0.33727-0.34128 0.57898-0.67688 0.53135-0.33594-0.048106-0.56406-0.36622-0.50164-0.69958 0.0052-0.037581 0.0077-0.097526 0.0077-0.20015 0-0.71886-0.58727-0.99675-1.1439-0.99675-0.55632 0-1.0578 0.46659-1.0597 0.9954v1.8305l1.0322-0.0076c0.80578-0.0169 0.81403 1.1978 0.0083 1.1921l-1.0404 0.0056-0.0076 1.7077c-0.12451 1.3403-1.2656 2.4122-2.6364 2.4122-1.4529 0-2.6516-1.1886-2.6516-2.6451 0.043743-1.4983 1.241-2.6765 2.7451-2.6624l0.83781-0.0056v1.1903l-0.84479 0.0076c-0.82682 0.02442-1.5338 0.5851-1.5473 1.4704 0 0.80713 0.65237 1.453 1.4612 1.453 0.80802 0 1.4531-0.58779 1.4531-1.4513v-4.5026c3.92e-4 -0.083431 0.0044-0.15033 0.01389-0.2425 0.13581-1.1017 1.1208-1.9412 2.236-1.9412z" fill="#fff"/>
</svg>
