<?xml version="1.0" encoding="UTF-8" standalone="no"?>
<svg
   width="22"
   height="22"
   version="1.1"
   id="svg2"
   sodipodi:docname="system-shutdown.svg"
   inkscape:version="1.4 (e7c3feb100, 2024-10-09)"
   xmlns:inkscape="http://www.inkscape.org/namespaces/inkscape"
   xmlns:sodipodi="http://sodipodi.sourceforge.net/DTD/sodipodi-0.dtd"
   xmlns="http://www.w3.org/2000/svg"
   xmlns:svg="http://www.w3.org/2000/svg">
  <defs
     id="defs2" />
  <sodipodi:namedview
     id="namedview2"
     pagecolor="#363636"
     bordercolor="#111111"
     borderopacity="1"
     inkscape:showpageshadow="0"
     inkscape:pageopacity="0"
     inkscape:pagecheckerboard="1"
     inkscape:deskcolor="#d1d1d1"
     inkscape:zoom="36.272727"
     inkscape:cx="11"
     inkscape:cy="11"
     inkscape:window-width="1920"
     inkscape:window-height="1011"
     inkscape:window-x="0"
     inkscape:window-y="0"
     inkscape:window-maximized="1"
     inkscape:current-layer="svg2" />
  <g
     transform="matrix(1.6922284,0,0,1.6917871,-1.6910542,-1.6917871)"
     fill="#363636"
     id="g2">
    <path
       d="m 1,7.43 c -0.01,0.68 0.088,1.37 0.3,2.043 0.854,2.696 3.366,4.531 6.2,4.531 2.834,0 5.346,-1.835 6.2,-4.531 A 6.47,6.47 0 0 0 11.228,2.217 l -0.572,0.82 c 1.968,1.374 2.812,3.853 2.09,6.135 -0.722,2.282 -2.843,3.832 -5.246,3.832 -2.403,0 -4.524,-1.55 -5.246,-3.832 C 1.532,6.89 2.376,4.411 4.344,3.037 L 3.771,2.217 A 6.477,6.477 0 0 0 1,7.43 Z"
       id="path1" />
    <path
       d="M 7,1 V 8 H 8 V 1 Z"
       id="path2" />
  </g>
</svg>
