<?xml version="1.0" encoding="UTF-8"?>
<svg id="svg1" width="16" height="16" version="1.1" xmlns="http://www.w3.org/2000/svg">
 <defs id="defs1">
  <style id="current-color-scheme" type="text/css">.ColorScheme-Text { color:#363636; }</style>
 </defs>
 <path id="path28-7" d="m8.0001 0.8556c-3.9455 0-7.1441 3.1971-7.1472 7.1422v5.531c0.0022 0.89544 0.72848 1.621 1.6248 1.621 0.00221 0 0.00564-2.34e-4 0.00769-2.34e-4v2.34e-4h5.5171c3.9459-0.0018 7.1446-3.2007 7.1446-7.147 0-3.9472-3.1999-7.1471-7.1472-7.1471zm1.4488 2.9407v6.3e-5c1.2003 0 2.3337 0.92033 2.3337 2.1879 0 0.11758-0.0015 0.23447-0.02009 0.36822-0.03321 0.33712-0.34112 0.57872-0.67658 0.53111-0.33579-0.048088-0.56381-0.36606-0.50141-0.69927 0.0053-0.037565 0.0077-0.097482 0.0077-0.20006 0-0.71854-0.587-0.9963-1.1434-0.9963-0.55607 0-1.0573 0.46638-1.0592 0.99495v1.8297l1.0317-0.0075c0.80542-0.016898 0.81366 1.1973 0.00828 1.1916l-1.0399 0.00561-0.0075 1.7069c-0.12445 1.3397-1.265 2.4111-2.6353 2.4111-1.4523 0-2.6504-1.1881-2.6504-2.6439 0.043724-1.4977 1.2405-2.6753 2.7439-2.6612l0.83744-0.00561v1.1898l-0.84441 0.0075c-0.82647 0.024411-1.5331 0.58484-1.5466 1.4698 0 0.80676 0.65208 1.4524 1.4605 1.4524 0.80766 0 1.4525-0.58753 1.4525-1.4506v-4.5005c3.908e-4 -0.083393 0.00431-0.15026 0.013887-0.24239 0.13575-1.1012 1.1203-1.9403 2.235-1.9403z" fill="#363636"/>
</svg>
