<?xml version="1.0" encoding="UTF-8" standalone="no"?>
<svg
   width="16"
   height="16"
   version="1.1"
   id="svg1"
   sodipodi:docname="start-here.svg"
   inkscape:version="1.3.2 (091e20ef0f, 2023-11-25)"
   xmlns:inkscape="http://www.inkscape.org/namespaces/inkscape"
   xmlns:sodipodi="http://sodipodi.sourceforge.net/DTD/sodipodi-0.dtd"
   xmlns="http://www.w3.org/2000/svg"
   xmlns:svg="http://www.w3.org/2000/svg">
  <sodipodi:namedview
     id="namedview1"
     pagecolor="#ffffff"
     bordercolor="#111111"
     borderopacity="1"
     inkscape:showpageshadow="0"
     inkscape:pageopacity="0"
     inkscape:pagecheckerboard="1"
     inkscape:deskcolor="#d1d1d1"
     inkscape:zoom="25.09375"
     inkscape:cx="5.3200498"
     inkscape:cy="10.381071"
     inkscape:window-width="1920"
     inkscape:window-height="1011"
     inkscape:window-x="0"
     inkscape:window-y="0"
     inkscape:window-maximized="1"
     inkscape:current-layer="svg1" />
  <defs
     id="defs1">
    <style
       id="current-color-scheme"
       type="text/css">.ColorScheme-Text { color:#363636; }</style>
  </defs>
  <path
     id="path28-7"
     style="display:inline;fill:#363636;fill-opacity:1;fill-rule:nonzero;stroke:none;stroke-width:0.0850843"
     d="m 8.0000556,0.85560403 c -3.9455005,0 -7.14414174,3.19710977 -7.14715823,7.14223257 v 5.5310324 c 0.0022,0.895439 0.72848453,1.620965 1.62481723,1.620965 0.00221,0 0.00564,-2.34e-4 0.00769,-2.34e-4 v 2.34e-4 h 5.5170889 c 3.9459455,-0.0018 7.1446245,-3.200678 7.1446245,-7.1470204 0,-3.9472274 -3.199873,-7.14711494 -7.1471553,-7.14711494 z M 9.448894,3.7963078 v 6.3e-5 c 1.200258,0 2.333717,0.9203251 2.333717,2.1878682 0,0.1175826 -0.0015,0.2344692 -0.02009,0.3682198 -0.03321,0.3371172 -0.341122,0.5787224 -0.67658,0.531107 -0.33579,-0.048088 -0.563807,-0.3660599 -0.50141,-0.6992698 0.0053,-0.037565 0.0077,-0.097482 0.0077,-0.200057 0,-0.7185378 -0.587005,-0.9963009 -1.1434106,-0.9963009 -0.556074,0 -1.0573215,0.4663808 -1.0592226,0.9949484 v 1.8297163 l 1.0317016,-0.0075 c 0.8054216,-0.016898 0.8136646,1.1972774 0.00828,1.1915664 l -1.03994,0.00561 -0.0075,1.7068968 c -0.1244547,1.339669 -1.2650312,2.411121 -2.6352508,2.411121 -1.4522904,0 -2.6503666,-1.188052 -2.6503666,-2.643916 C 3.140246,8.9787078 4.337008,7.8010399 5.840403,7.8151472 l 0.8374358,-0.00561 v 1.1897637 l -0.844408,0.0075 C 5.00696,9.0312116 4.3003334,9.5916424 4.286798,10.476562 c 0,0.806763 0.652077,1.452367 1.4605184,1.452367 0.80766,0 1.4524586,-0.58753 1.4524586,-1.45064 V 5.9777465 C 7.2001658,5.8943535 7.204085,5.8274855 7.213662,5.7353537 7.3494098,4.6341879 8.3339927,3.7950442 9.4487043,3.7950442 Z" />
</svg>
