<?xml version="1.0" encoding="UTF-8"?>
<svg viewBox="0 0 24 24" xmlns="http://www.w3.org/2000/svg">
 <defs id="defs3051">
  <style id="current-color-scheme" type="text/css">.ColorScheme-Text {
        color:#363636;
      }
      .ColorScheme-Highlight {
        color:#3daee9;
      }</style>
 </defs>
 <g transform="translate(1,1)" fill="currentColor">
  <path class="ColorScheme-Text" d="m3 3v16h9v-1h-8v-11h14v5h1v-9h-2v3h-2v-3h-8v3h-2v-3h-2zm10 10v1 5h6v-5-1h-1v1h-1v-1h-2v1h-1v-1h-1zm1 2h4v3h-4v-3z"/>
  <path class="ColorScheme-Highlight" d="m6 9v1 5h6v-5-1h-1v1h-1v-1h-2v1h-1v-1h-1zm1 2h4v3h-4v-3z"/>
 </g>
</svg>
