<?xml version="1.0" encoding="UTF-8" standalone="no"?>
<svg
   version="1.1"
   viewBox="0 0 24 24"
   id="svg1"
   sodipodi:docname="configure.svg"
   inkscape:version="1.3.2 (091e20ef0f, 2023-11-25)"
   xmlns:inkscape="http://www.inkscape.org/namespaces/inkscape"
   xmlns:sodipodi="http://sodipodi.sourceforge.net/DTD/sodipodi-0.dtd"
   xmlns="http://www.w3.org/2000/svg"
   xmlns:svg="http://www.w3.org/2000/svg">
  <sodipodi:namedview
     id="namedview1"
     pagecolor="#ffffff"
     bordercolor="#111111"
     borderopacity="1"
     inkscape:showpageshadow="0"
     inkscape:pageopacity="0"
     inkscape:pagecheckerboard="1"
     inkscape:deskcolor="#d1d1d1"
     inkscape:zoom="33.458333"
     inkscape:cx="12"
     inkscape:cy="12"
     inkscape:window-width="1920"
     inkscape:window-height="1011"
     inkscape:window-x="0"
     inkscape:window-y="0"
     inkscape:window-maximized="1"
     inkscape:current-layer="svg1" />
  <defs
     id="defs1">
    <style
       id="current-color-scheme"
       type="text/css">.ColorScheme-Text {
        color:#363636;
      }</style>
  </defs>
  <path
     d="m 11.999574,8.6288866 a 3.3712082,3.3712082 0 0 0 -3.3712078,3.3712084 3.3712082,3.3712082 0 0 0 3.3712078,3.371208 3.3712082,3.3712082 0 0 0 3.371208,-3.371208 3.3712082,3.3712082 0 0 0 -3.371208,-3.3712084 z m 0,1.1237364 a 2.2474721,2.2474721 0 0 1 2.247472,2.247472 2.2474721,2.2474721 0 0 1 -2.247472,2.247472 2.2474721,2.2474721 0 0 1 -2.2474717,-2.247472 2.2474721,2.2474721 0 0 1 2.2474717,-2.247472 z"
     fill="#363636"
     style="stroke-width:1.12374;paint-order:fill markers stroke"
     id="path1-5" />
  <path
     d="m 11.347695,3.0102063 c -0.250447,0 -0.601738,0.069307 -0.89328,0.3138595 -0.291542,0.2445474 -0.430919,0.6044801 -0.4652944,0.8625573 L 10.011067,4.0724965 9.6269742,5.6703368 C 9.4703367,5.7278395 9.3228351,5.7897674 9.1748503,5.8568994 L 7.7833279,5.005321 a 1.1238484,1.1238484 0 0 0 -0.00877,-0.00439 C 7.5738747,4.8803953 7.2416085,4.7551212 6.8834738,4.7990031 6.5253391,4.8428895 6.2597778,5.0292791 6.1065114,5.1699259 A 1.1238484,1.1238484 0 0 0 6.0779798,5.196264 L 5.1561678,6.1027145 A 1.1238484,1.1238484 0 0 0 5.114466,6.1444152 C 4.9406128,6.3342704 4.7660629,6.656895 4.7457457,6.9959936 4.7254286,7.3350922 4.8377572,7.6116886 4.9410847,7.7927 a 1.1238484,1.1238484 0 0 0 0.021947,0.035117 L 5.8277799,9.2214742 C 5.7656036,9.3573002 5.716384,9.5016216 5.6587813,9.6538541 L 4.0763361,10.026969 a 1.1238484,1.1238484 0 0 0 -0.015361,0.0022 C 3.879053,10.074761 3.5669016,10.181055 3.3169378,10.48134 3.0669739,10.781625 3.0096634,11.148525 3.0096634,11.372429 v 1.290499 c 0,0.250132 0.069717,0.599378 0.3138595,0.891088 0.2441429,0.291711 0.6020079,0.430773 0.860366,0.465295 l -0.1119353,-0.01976 1.5999754,0.381891 c 0.052613,0.140793 0.1050243,0.276158 0.1646048,0.408231 l -0.8669399,1.413435 c -0.1156998,0.188113 -0.2409402,0.481577 -0.2107005,0.844993 0.03024,0.363416 0.2389737,0.698918 0.4411563,0.884503 l 0.8801101,0.88011 c 0.1735161,0.173752 0.4597991,0.36472 0.8142704,0.408231 0.3544713,0.04351 0.685243,-0.07514 0.891089,-0.201924 l 1.4069175,-0.86694 c 0.1395344,0.06459 0.2792709,0.125173 0.4257949,0.179977 l 0.3928694,1.608741 -0.021947,-0.11852 c 0.034814,0.261358 0.189473,0.643574 0.493826,0.882312 0.304353,0.238738 0.636439,0.285328 0.864749,0.285328 h 1.312523 c 0.228321,0 0.576174,-0.05657 0.873525,-0.296295 0.297352,-0.239727 0.427762,-0.578399 0.47188,-0.798909 l -0.0088,0.04608 0.392869,-1.606605 c 0.146749,-0.05547 0.287744,-0.115745 0.425795,-0.179978 l 1.395905,0.864749 a 1.1238484,1.1238484 0 0 0 0.0022,0 c 0.205936,0.126903 0.536629,0.245424 0.891089,0.201924 0.35446,-0.04351 0.640743,-0.234513 0.814271,-0.408231 a 1.1238484,1.1238484 0 0 0 0.0044,-0.0022 l 0.875728,-0.886695 c 0.189731,-0.174089 0.409646,-0.509883 0.441156,-0.880109 0.03151,-0.370226 -0.09326,-0.647575 -0.190945,-0.818664 a 1.1238484,1.1238484 0 0 0 -0.01976,-0.03292 l -0.864748,-1.400288 c 0.06043,-0.131837 0.113329,-0.267123 0.166807,-0.408231 l 1.604358,-0.384093 -0.111935,0.01976 c 0.261662,-0.03497 0.641833,-0.189372 0.88011,-0.493826 0.238277,-0.304454 0.285328,-0.634507 0.285328,-0.862558 v -1.290498 c 0,-0.203048 -0.0345,-0.545877 -0.278743,-0.860355 -0.244244,-0.314489 -0.576499,-0.435965 -0.763792,-0.482858 a 1.1238484,1.1238484 0 0 0 -0.01536,-0.0022 L 18.349211,9.6537081 C 18.289945,9.4998124 18.242445,9.3539964 18.180213,9.2191369 L 19.027408,7.8430097 C 19.145423,7.6592114 19.283025,7.3709394 19.260055,6.9958138 19.237086,6.6206882 19.018924,6.2704871 18.816708,6.0849695 L 17.92781,5.2114445 C 17.765295,5.0487837 17.473866,4.8471068 17.115731,4.8032137 c -0.358123,-0.043894 -0.659667,0.07119 -0.842802,0.1689987 a 1.1238484,1.1238484 0 0 0 -0.05706,0.032922 l -1.38714,0.8515784 C 14.687821,5.7916407 14.540735,5.735518 14.38757,5.6767353 L 14.010062,4.1272157 C 13.969158,3.9090985 13.849221,3.5698763 13.549139,3.3195304 13.249068,3.0691844 12.888641,3.0100647 12.660241,3.0100647 h -1.312524 z m 0,1.123736 h 1.312524 c 0.147917,0 0.217488,0.060357 0.243626,0.1997217 l 0.522357,2.1530783 c 0.56561,0.1393769 1.079394,0.3728219 1.514459,0.61674 L 16.80404,5.962216 c 0.130489,-0.069695 0.22477,-0.060639 0.329221,0.043895 l 0.921812,0.9064504 c 0.104452,0.095823 0.104654,0.2006768 0.02634,0.3226359 l -1.147897,1.8633791 c 0.208802,0.3920041 0.47079,0.9329376 0.601379,1.5165946 l 2.13993,0.504805 c 0.139198,0.03485 0.190946,0.0956 0.190946,0.252402 v 1.290499 c 0,0.148075 -0.06046,0.226186 -0.190946,0.243626 l -2.148695,0.513581 c -0.13059,0.548788 -0.366507,1.080888 -0.610155,1.490299 l 1.156661,1.872144 c 0.0696,0.121903 0.06933,0.218016 -0.03512,0.31386 L 17.124485,18.0204 c -0.104451,0.104564 -0.209566,0.111373 -0.322636,0.0417 L 14.93184,16.905441 c -0.435021,0.270079 -0.931353,0.486061 -1.505582,0.625517 l -0.522357,2.144312 c -0.02614,0.130634 -0.09571,0.190945 -0.243626,0.190945 h -1.312524 c -0.147917,0 -0.226219,-0.06031 -0.243626,-0.190945 L 10.581768,17.530958 C 10.033576,17.400234 9.5024643,17.17552 9.0761863,16.905441 l -1.8787744,1.156661 c -0.1131265,0.06967 -0.218207,0.06286 -0.3226358,-0.0417 L 5.9617405,17.105174 C 5.857323,17.009331 5.8570083,16.90452 5.9266238,16.791315 l 1.1566615,-1.88091 C 6.8396481,14.492353 6.6124286,13.968962 6.4819067,13.420106 L 4.333211,12.906525 C 4.2026744,12.889085 4.133486,12.810974 4.133486,12.662899 v -1.290498 c 0,-0.156795 0.060491,-0.217544 0.1997216,-0.252402 L 6.4752733,10.615194 C 6.6057952,10.031548 6.8569278,9.4905584 7.0744494,9.0985993 L 5.9177878,7.2352202 C 5.8481724,7.1132611 5.8484084,7.0083266 5.9441282,6.9038079 L 6.8659401,5.9973575 C 6.9703577,5.9015342 7.0668304,5.8838376 7.1973524,5.9622407 L 9.058484,7.1035071 c 0.3915771,-0.243907 0.975077,-0.4861395 1.531989,-0.6255165 l 0.513581,-2.1443132 c 0.01741,-0.1306567 0.09571,-0.1997216 0.243626,-0.1997216 z"
     color="#000000"
     fill="#363636"
     stroke-linecap="round"
     stroke-linejoin="round"
     style="stroke-width:1.12374;-inkscape-stroke:none"
     id="path2" />
</svg>
