<?xml version="1.0" encoding="UTF-8"?>
<svg id="svg757" width="24" height="24" version="1.1" viewBox="0 0 24 24" xmlns="http://www.w3.org/2000/svg">
 <style id="current-color-scheme" type="text/css">.ColorScheme-Text {
            color:#363636;
        }</style>
 <path id="path725" class="ColorScheme-Text" d="m5 3c-1.108 0-2 0.892-2 2v7c0 1.108 0.892 2 2 2h14c1.108 0 2-0.892 2-2v-7c0-1.108-0.892-2-2-2zm0 1h14c0.554 0 1 0.446 1 1h-16c0-0.554 0.446-1 1-1zm-1 2h16v6c0 0.554-0.446 1-1 1h-14c-0.554 0-1-0.446-1-1zm1 1v1h2v-1zm3 0v1h2v-1zm3 0v1h2v-1zm3 0v1h2v-1zm3 0v1h2v-1zm-12 2v1h2v-1zm3 0v1h2v-1zm3 0v1h2v-1zm3 0v1h2v-1zm3 0v1h2v-1zm-12 2v1h2v-1zm3 0v1h8v-1zm9 0v1h2v-1zm-9.293 4.293-0.70703 0.70703 5 5 5-5-0.70703-0.70703-4.293 4.293-4.293-4.293z" fill="currentColor"/>
</svg>
