<?xml version="1.0" encoding="UTF-8"?>
<svg width="24" height="24" viewBox="0 0 24 24" xmlns="http://www.w3.org/2000/svg">
 <style id="current-color-scheme" type="text/css">.ColorScheme-Text {
            color:#363636;
        }</style>
 <g transform="translate(1,1)">
  <path class="ColorScheme-Text" d="M13 2.293L2.293 13l.353.354L9 19.707 19.707 9zm0 1.414L18.293 9 9 18.293 3.707 13zm-2.127-.701a8 8 0 0 0-7.87 7.869L4.12 9.76a7 7 0 0 1 5.643-5.643zm8.123 8.119l-1.115 1.115a7 7 0 0 1-5.643 5.643l-1.111 1.111a8 8 0 0 0 7.87-7.869z" fill="currentColor"/>
 </g>
</svg>
