<?xml version="1.0" encoding="UTF-8"?>
<svg viewBox="0 0 24 24" xmlns="http://www.w3.org/2000/svg">
 <defs id="defs3051">
  <style id="current-color-scheme" type="text/css">.ColorScheme-Text {
        color:#363636;
      }
      .ColorScheme-NegativeText {
        color:#da4453;
      }</style>
 </defs>
 <path class="ColorScheme-Text" d="m4 4v16h9v-1h-8v-14h14v8h1v-9h-16zm2 2v1h12v-1h-12zm0 2v1h9v-1h-9zm0 3v1h12v-1h-12zm0 2v1h4v-1h-4zm0 3v1h7v-1h-7z" fill="currentColor"/>
 <path class="ColorScheme-NegativeText" d="m14.98 14-0.99024 0.99023 2.0098 2.0098-2.0098 2.0098 0.99024 0.99023 2.0098-2.0098 2.0098 2.0098 0.99023-0.99023-2.0098-2.0098 2.0098-2.0098-0.99023-0.99023-2.0098 2.0098-2.0098-2.0098z" fill="currentColor"/>
</svg>
