<?xml version="1.0" encoding="UTF-8"?>
<svg id="svg4031" width="24" height="24" version="1.1" xmlns="http://www.w3.org/2000/svg" xmlns:cc="http://creativecommons.org/ns#" xmlns:dc="http://purl.org/dc/elements/1.1/" xmlns:rdf="http://www.w3.org/1999/02/22-rdf-syntax-ns#">
 <metadata id="metadata4036">
  <rdf:RDF>
   <cc:Work rdf:about="">
    <dc:format>image/svg+xml</dc:format>
    <dc:type rdf:resource="http://purl.org/dc/dcmitype/StillImage"/>
    <dc:title/>
   </cc:Work>
  </rdf:RDF>
 </metadata>
 <path id="path28" d="m11.25 3a0.25 0.25 0 0 0-0.25 0.25v1.5c0 0.139 0.112 0.25 0.25 0.25h0.5a0.25 0.25 0 0 0 0.25-0.25v-1.5a0.25 0.25 0 0 0-0.25-0.25h-0.5zm-6.1172 2.5312a0.25 0.25 0 0 0-0.025391 0.0019531 0.25 0.25 0 0 0-0.14844 0.072266l-0.35352 0.35352c-0.098288 0.098288-0.097581 0.25593 0 0.35352l0.75817 1.0605a0.25 0.25 0 0 0 0.6559 0l0.35352-0.35352a0.25 0.25 0 0 0 0-0.6559l-1.0605-0.75817a0.25 0.25 0 0 0-0.17969-0.074219zm12.729 0a0.25 0.25 0 0 0-0.02539 0.0019531 0.25 0.25 0 0 0-0.14844 0.072266l-1.0605 0.75817c-0.09829 0.40067-0.09758 0.55831 0 0.6559l0.35352 0.35352a0.25 0.25 0 0 0 0.35352 0l1.0605-1.0605a0.25 0.25 0 0 0 0-0.35352l-0.35352-0.35352a0.25 0.25 0 0 0-0.17969-0.074219zm-6.3613 1.4688c-3.0347 0-5.5 2.4653-5.5 5.5 0 3.0347 2.4653 5.5 5.5 5.5 3.0347 0 5.5-2.4653 5.5-5.5 0-3.0347-2.4653-5.5-5.5-5.5zm-0.099609 1.0625a4.4539 4.4539 0 0 1 0.001953 0 4.4539 4.4539 0 0 1 0.083984 0h0.00586a3.7116 3.7116 0 0 0-1.4902 2.9668 3.7116 3.7116 0 0 0 3.7109 3.7148 3.7116 3.7116 0 0 0 1.8867-0.52148 4.4539 4.4539 0 1 1-4.1992-6.1602zm-9.1504 3.9375a0.25 0.25 0 0 0-0.25 0.25v0.5c0 0.139 0.112 0.25 0.25 0.25h1.5a0.25 0.25 0 0 0 0.25-0.25v-0.5a0.25 0.25 0 0 0-0.25-0.25h-1.5zm17 0a0.25 0.25 0 0 0-0.25 0.25v0.5c0 0.139 0.112 0.25 0.25 0.25h1.5a0.25 0.25 0 0 0 0.25-0.25v-0.5a0.25 0.25 0 0 0-0.25-0.25h-1.5zm-13.41 5.5527a0.25 0.25 0 0 0-0.47621 0.074219l-0.75817 1.0605c-0.098288 0.09829-0.097581 0.25594 0 0.35352l0.35352 0.35352a0.25 0.25 0 0 0 0.35352 0l1.0605-1.0605a0.25 0.25 0 0 0 0-0.35352l-0.35352-0.35352a0.25 0.25 0 0 0-0.17969-0.074219zm11.313 0a0.25 0.25 0 0 0-0.17188 0.074219l-0.35352 0.35352c-0.09829 0.09829-0.09758 0.25593 0 0.35352l1.0605 1.0605a0.25 0.25 0 0 0 0.35352 0l0.35352-0.35352a0.25 0.25 0 0 0 0-0.35352l-1.0605-1.0605a0.25 0.25 0 0 0-0.18164-0.074219zm-5.9023 2.4473a0.25 0.25 0 0 0-0.25 0.25v1.5c0 0.139 0.112 0.25 0.25 0.25h0.5a0.25 0.25 0 0 0 0.25-0.25v-1.5a0.25 0.25 0 0 0-0.25-0.25h-0.5z" color="#000000" fill="#fff"/>
</svg>
