<?xml version="1.0" encoding="UTF-8"?>
<svg id="svg8" width="24" height="24" version="1.1" xmlns="http://www.w3.org/2000/svg" xmlns:cc="http://creativecommons.org/ns#" xmlns:dc="http://purl.org/dc/elements/1.1/" xmlns:rdf="http://www.w3.org/1999/02/22-rdf-syntax-ns#">
 <metadata id="metadata14">
  <rdf:RDF>
   <cc:Work rdf:about="">
    <dc:format>image/svg+xml</dc:format>
    <dc:type rdf:resource="http://purl.org/dc/dcmitype/StillImage"/>
    <dc:title/>
   </cc:Work>
  </rdf:RDF>
 </metadata>
 <path id="path2-3-5-2-2-5-1-0" d="m14.123 5.0078c-0.38673-0.047987-0.78312 0.13347-0.99024 0.49219l-0.005859 0.0078125c-1.7557-0.48709-3.6791 0.37818-4.5918 1.9551 0 0-2.4999 4.3313-4.248 4.0391-0.0194 0.0015-0.035941 0.015688-0.056641 0.017578-0.0793 0.01127-0.15719 0.033963-0.22852 0.070313-0.0291 0.01438-0.057884 0.023765-0.083984 0.041015-0.0988 0.06188-0.1803 0.1461-0.24023 0.24609-0.208 0.36027-0.085982 0.81594 0.27344 1.0234l9.0938 5.25c0.36027 0.208 0.81739 0.086831 1.0254-0.27344 0.0566-0.10195 0.087597-0.21555 0.091797-0.33203 2e-3 -0.03125-0.005812-0.060777-0.007812-0.091797-4e-3 -0.08017-0.020481-0.15999-0.050781-0.23438-8e-3 -0.01839-0.004572-0.038611-0.013672-0.056641-1.1276-1.3669 1.373-5.6992 1.373-5.6992 0.90977-1.5798 0.69752-3.6785-0.60352-4.9551l0.005859-0.0078125c0.27612-0.47829 0.1111-1.091-0.36719-1.3672-0.11957-0.069035-0.24609-0.109-0.375-0.125zm-9.2734 9.5312c-0.14411 0.69653 0.079279 1.4461 0.66211 1.9355 0.76568 0.64215 1.8668 0.60589 2.5957-0.033203l-3.1133-1.7969c-0.06024-0.03478-0.089609-0.06963-0.14453-0.10547z" color="#bebebe" fill="#fff" style="isolation:auto;mix-blend-mode:normal"/>
</svg>
