<?xml version="1.0" encoding="UTF-8"?>
<svg width="24" height="24" viewBox="0 0 24 24" xmlns="http://www.w3.org/2000/svg">
 <defs id="defs3051">
  <style id="current-color-scheme" type="text/css">.ColorScheme-Text {
        color:#363636;
      }</style>
 </defs>
 <g transform="translate(1,1)" fill="currentColor">
  <path class="ColorScheme-Text" d="m7 10c-2.7614 0-5 2.2386-5 5 0 2.7614 2.2386 5 5 5 2.7614 0 5-2.2386 5-5 0-2.7614-2.2386-5-5-5zm2.0059 1.5625c0.00317 0.04833-0.040268 0.04562-0.052734 0.07813 0.0075 0.02083 0.049434 0.02773 0.052734 0.05273-0.00408 0.02667-0.062751 0.02328-0.052734 0.05078 0.045008 0.035 0.088363 0.0083 0.13086 0 0.093326-0.01167 0.17688-0.0033 0.23438-0.05078 0.3386-0.15487 0 0.04427 0 0.07811-0.019158 0.01333-0.058125 0.07813-0.078125 0.07813-0.024158 0-0.060625-0.03234-0.078125-0.02734-0.025025 0.0083-0.024451 0.04273-0.052734 0.05273-0.054992 0.02-0.16248-0.02977-0.18164 0.05273 0.023333 0.0475 0.11459 0.02412 0.15625 0.05078 0.02585 0.01667 0.071458 0.07713 0.078125 0.10547 0.00667 0.02333 0.00999 0.13125 0 0.15625-0.02585 0.06667-0.10694 0.05161-0.18359 0.05078h-0.050781c-0.12915-0.0083-0.25417-0.06516-0.3125 0.02734 0.00413 0.07083 0.015858 0.11997 0 0.18164-0.011642 0.045-0.080623 0.09203-0.078125 0.13086 9.166e-4 0.02 0.045785 0.04979 0.050781 0.07813 0.00321 0.015-0.00672 0.03662 0 0.05078 0.021679 0.04083 0.067139-0.0083 0.10547 0 0.036667 0.0083 0.078125 0.06447 0.078125 0.10547 0 0.02917-0.00897 0.07527-0.027344 0.10352-0.036667 0.055-0.10375 0.04813-0.15625 0.07813-0.043312 0.025-0.05229 0.08786-0.078125 0.13086-0.0275 0.04667-0.061629 0.06216-0.050781 0.12891-0.037492 0.07417-0.07876 0.12042-0.15625 0.15625-0.022504 0.01-0.057294 0.01234-0.078125 0.02734-0.016683 0.01167-0.029383 0.05146-0.052734 0.07813-0.02915 0.0325-0.062294 0.05313-0.078125 0.07813-0.011688 0.01917-0.012924 0.05146-0.025391 0.07813-0.018333 0.035-0.054797 0.04296-0.078125 0.07813-0.010817 0.01667-0.015702 0.05646-0.027344 0.07813-0.026675 0.04833-0.055782 0.08641-0.050781 0.12891 0.00412 0.04 0.048283 0.04146 0.050781 0.07813 0.00229 0.02-0.026216 0.03023-0.025391 0.05273 9.167e-4 0.03167 0.022916 0.05312 0.025391 0.07813 0.00583 0.06167-0.03914 0.08869-0.050781 0.13086-0.00583 0.02 5e-3 0.03412 0 0.05078-0.00999 0.03083-0.0519 0.06863-0.052734 0.10547-9.167e-4 0.02583 0.050259 0.04146 0.052734 0.07813 0.00183 0.02417-0.03234 0.05479-0.027344 0.07813 0.00917 0.045 0.095866 0.09391 0.13086 0.12891 0.047498 0.0475 0.11003 0.08086 0.13086 0.13086 0.017508 0.0425 0.018309 0.1245 0.050781 0.15625 0.024154 0.02333 0.074641 0.02773 0.10547 0.05273 0.02915 0.0225 0.047294 0.02578 0.078125 0.05078 0.050829 0.04 0.1262 0.13669 0.20703 0.13086 0.042488-0.0083 0.083363-0.0444 0.13086-0.05273 0.049167-0.0083 0.10626-0.02956 0.15625-0.02539 0.038317 0.0083 0.090862 0.02789 0.13086 0.02539 0.041658-0.0083 0.081415-0.0046 0.12891-0.02539 0.0825-0.03583 0.21986-0.09538 0.33984-0.07813 0.091658 0.01333 0.092087 0.11542 0.15625 0.15625 0.073325 0.0083 0.12331-0.01417 0.18164 0 0.044183 0.01083 0.09935 0.06885 0.10352 0.10352 0.00417 0.03583-0.04579 0.0828-0.050781 0.10547-0.011642 0.04833 0.00833 0.09807 0 0.12891-0.00667 0.02417-0.028169 0.05396-0.027344 0.07813 0 0.02167 0.030218 0.07697 0.052734 0.10547 0.0275 0.035 0.070182 0.06585 0.10352 0.10352 0.060825 0.07 0.088362 0.14188 0.13086 0.23438 0.01082 0.02333-0.01 0.04812 0 0.07813-0.01833 0.13992-0.06459 0.23571-0.15625 0.39062-0.043317 0.05-0.10435 0.09383-0.10352 0.15625-0.00317 0.15 0.084792 0.24562 0.078125 0.39062-0.014983 0.19492 0.015033 0.20842 0 0.3125 0.065834 0.03333 0.019158 0.13973 0 0.20898-0.3325 1.1509-3.3032 1.6205-4.3242 0.96287 0.014988-0.02 0.10003-0.01956 0.13086-0.02539 0.044183-0.0083 0.10586-0.01568 0.13086-0.02734 0.0275-0.0175 0.055782-0.07757 0.050781-0.12891-0.00229-0.02417-0.031669-0.03107-0.050781-0.05273-0.015813-0.01833 0.010817-0.03523 0-0.05273-0.019983-0.02917-0.069793-0.03562-0.078125-0.07813 0.059996-0.01167 0.14772 0.05151 0.23438 0.02734 0.040837-0.01167 0.10974-0.09244 0.12891-0.13086 0.00583-0.01167-0.00665-0.03773 0-0.05273 0.00752-0.015 0.024823-0.04245 0.027344-0.05078 0.00582-0.0225-5e-3 -0.01234 0-0.02734 0.014987-0.0425 0.053122-0.07327 0.078125-0.10352 0.019158-0.02333 0.060602-0.05396 0.078125-0.07813 0.019983-0.02583 0.012099-0.0294 0.025391-0.05273 0.012512-0.07583-0.043724-0.14045-0.025391-0.20703 0.019983-0.075 0.13454-0.12208 0.20703-0.15625 0.024979-0.01167 0.057293-0.01984 0.078125-0.02734 0.049995-0.0175 0.10959-0.03411 0.15625-0.05078 0.078329-0.02833 0.092524-0.08467 0.13086-0.15625 0.018333-0.03333 0.049389-0.08105 0.052734-0.10547 0.00321-0.02167-0.00413-0.02495 0-0.05078 0.00412-0.02417-0.00665-0.04979 0-0.07813 0.009167-0.035854 0.025391-0.11635 0.025391-0.15627 0-0.03333-0.024566-0.04813-0.025391-0.07813-0.00583-0.10833 0.038135-0.09708 0.078125-0.15625 0.019983-0.02917 0.036665-0.08455 0.050781-0.10547 0.067494-0.1 0.19193-0.13349 0.18359-0.28516-0.00321-0.05-0.041477-0.16776-0.078125-0.18359-0.020854-0.0092-0.047293-0.01456-0.078125-0.02539-0.098326-0.03667-0.18462-0.14792-0.28711-0.15625h-0.052734c-0.040012 0-0.083912-0.01956-0.12891-0.02539-0.028325-0.0083-0.088803 0.0083-0.10547 0-0.02585-0.0125-0.029973-0.06396-0.050781-0.07813-0.016683-0.01167-0.052297-0.01818-0.078125-0.02734-0.040838-0.015-0.057972-0.04745-0.10547-0.05078-0.014987 0-0.03413 0.0083-0.050781 0-0.02585-0.0083-0.053962-0.01234-0.078125-0.02734-0.029975-0.01833-0.065627-0.02495-0.078125-0.05078 0.0275-0.08992-0.059792-0.10375-0.078125-0.15625-0.00834-0.02417 0.00834-0.0838 0-0.10547-0.010817-0.03083-0.043957-0.05229-0.078125-0.07813-0.059996-0.04667-0.097766-0.06738-0.18359-0.07813-0.038317-0.0083-0.083077 0.0083-0.12891 0-0.048327-0.0083-0.11959-0.03646-0.15625-0.07813-0.035017-0.040821-0.047297-0.084253-0.078125-0.1035-0.02915-0.01833-0.058128-0.03357-0.078125-0.05273-0.00917-0.0083-0.019002-0.0062-0.027344-0.02539-0.014987-0.03083-0.043724-0.04063-0.025391-0.07813-0.033321-0.01667-0.016907 0.03122-0.052734 0.02539-0.032496-0.04583-0.055582-0.09146-0.12891-0.07813-0.033321 0.0083-0.066305 0.07729-0.10547 0.07813-0.032496 0-0.061019-0.07146-0.10352-0.07813-0.032496-0.0083-0.081016 0.03151-0.10352 0.02734-0.035842-0.0083-0.045648-0.03107-0.078125-0.05273-0.024154-0.01583-0.064792-0.05357-0.078125-0.05273-0.041663 0-0.073367 0.08307-0.13086 0.05273-0.028325-0.03583 0.058739-0.04479 0.025391-0.07813-0.024979-0.02417-0.03077 0.01372-0.050781 0.02539-0.023329 0.015-0.052297 0.01818-0.078125 0.02734-0.057498 0.02167-0.11126 0.02662-0.15625 0.05078-0.041663 0.02167-0.053961 0.03537-0.078125 0.07813-0.019158 0.035-0.048961 0.1038-0.078125 0.10547-0.035017 0-0.046459-0.03857-0.078125-0.05273-0.095824-0.04167-0.15522 0.02372-0.23438 0.02539-0.073328 0-0.18693-0.11247-0.18359-0.18164 0.00229-0.0425 0.022348-0.10375 0.027344-0.15625 0.00413-0.04167 0.050002-0.09286 0.050781-0.13086 9.167e-4 -0.05167-0.095576-0.07221-0.12891-0.07813-0.078329-0.01417-0.17256 0.035-0.26172 0-0.016683-0.02833 0.017352-0.04979 0.027344-0.07813 0.00582-0.015-0.00582-0.03328 0-0.05078 0.00999-0.02667 0.065631-0.04979 0.078125-0.07813 0.00917-0.02167-0.00917-0.05062 0-0.07813 0.010817-0.03 0.04826-0.05646 0.050781-0.07813 0.00321-0.02833-0.028323-0.05979-0.050781-0.07813-0.069163 0.0083-0.11625 0.0054-0.15625 0.02539-0.089989 0.04083-0.065422 0.15331-0.15625 0.18164-0.17625-0.38631 0.20818-0.6347 0.39063-0.88477 0.064997 0.0092 0.097088-0.0083 0.15625 0 0.040013 0.0083 0.097245 0.0494 0.12891 0.05273 0.026675 0 0.027733-0.03068 0.052734-0.02734 0.024979 0.0083 0.073958 0.04812 0.078125 0.07813 0.00413 0.0375-0.036253 0.08953-0.025391 0.13086 0.039188 0.04 0.12581 0.05479 0.18164 0.07813 0.036667-0.03083 0.00582-0.08753 0-0.13086-9.167e-4 -0.01917 0.00229-0.06063 0-0.07813-0.00413-0.03-0.025391-0.05229-0.025391-0.07813 0-0.11917 0.10165-0.16045 0.18164-0.20703 0.034146-0.02 0.073518-0.06312 0.10352-0.07813 0.042488-0.02083 0.070471-0.0073 0.10547-0.02734 0.063323-0.03583 0.10708-0.08832 0.15625-0.12891 0.022504-0.05417-0.00229-0.13026 0-0.18359 0.022504-0.01417 0.053985 0 0.078125 0 0.038317-0.0083 0.056455-0.05646 0.078125-0.07813 0.012512-0.0125 0.035766-0.01289 0.050781-0.02539 0.038317-0.03 0.044781-0.06479 0.078125-0.07813 0.011687-0.0083 0.034379-0.01956 0.052734-0.02539 0.025025-0.0083 0.063522-0.01234 0.10352-0.02734 0.02585-0.0092 0.095468-0.01456 0.10547-0.02539 0.012512-0.0125-0.00321-0.05896 0-0.07813 0.019983-0.09408 0.15022-0.09911 0.23438-0.13086 0.058327-0.02167 0.11664-0.08979 0.18164-0.07813-0.012512 0.045-0.063568 0.05122-0.052734 0.10547 0.014163 0.07583 0.10419-0.01651 0.13086-0.02734 0.050829-0.02167 0.14232-0.05313 0.20898-0.07813 0.058327-0.02083 0.15851-0.03635 0.10352-0.10352-0.045833-0.0083-0.063521 0.03607-0.10352 0.05273-0.0275 0.0083-0.029419-0.02484-0.052734-0.02734-0.022504 0-0.030212 0.03151-0.052734 0.02734-0.022504-0.0083-0.04745-0.05062-0.050781-0.07813-0.00917-0.07 0.0498-0.07928 0.078125-0.13086-0.019158-0.06333-0.10292-0.02773-0.15625-0.05273 0.00582-0.0375 0.033964-0.06979 0.078125-0.07813 0.035842-0.0083 0.13458 0.0082 0.15625 0.02734 0.012512 0.01083-0.019117 0.03328 0 0.05078 0.021679 0.01917 0.049795 0.0083 0.078125 0 0.00999-0.0475-0.061067-0.01995-0.052734-0.05078 0.056659-0.03667 0.16521-0.01818 0.23438-0.02734 0.040012-0.0083 0.095027-0.03162 0.13086-0.05078 0.033321-0.01917 0.043126-0.05901 0.078125-0.02734 0.00999 0.03417-0.00823 0.05979-0.027344 0.07813-0.064162 0.05667-0.13165 0.11784-0.18164 0.18359 0.030846 0.03 0.079196 0.01956 0.13086 0.02539 0.019983 0.0083 0.057289-0.0042 0.078125 0 0.025025 0.0083 0.058123-0.0083 0.078125 0 0.035017 0.0083 0.043131 0.07813 0.078125 0.07813 0.056663 0 0.032519-0.06585 0-0.10352 0.00999-0.03917 0.039599-0.0778 0.025391-0.10547-0.02585-0.05167-0.12586 0.01672-0.13086-0.05078-0.00321-0.04167 0.037729-0.04646 0.052734-0.07813-0.00665-0.08 0.061067-0.08375 0.052734-0.15625-0.00413-0.03-0.031894-0.0244-0.052734-0.05273-0.010817-0.015-0.012924-0.06646-0.025391-0.07813-0.043312-0.03667-0.12586-8e-3 -0.13086-0.07813-0.00229-0.04167 0.00582-0.08619 0-0.13086 1.0904-0.46195 2.2061 0.0588 2.7871 0.36529zm-0.20898-0.18164c-0.015358 0.0083-0.011874 0.01706-0.025391 0.02539-0.031675 0.01917-0.05395 0.04357-0.078125 0.05273-0.034142 0.0125-0.073122 0.01995-0.078125 0.05078-0.00413 0.02583 0.026261 0.02857 0.025391 0.05273-0.012512 0.03083-0.018699 0.04063-0.025391 0.07813 0.042488 0.06917 0.12915-0.01456 0.18164-0.02539 0.023333-0.0083 0.040234-0.0073 0.052734-0.02734 0.014158-0.0225 0.014607-0.04629 0.025391-0.07813 0.14493-0.09717-0.056353-0.09298-0.078125-0.1289zm-4.4004 0.67578c0.019983 0 0.027434 0.05107 0.050781 0.05273 0.022504 0 0.039379-0.02872 0.052734-0.02539 0.035017 0.0092 0.058739 0.07752 0.025391 0.10352-0.0275 0.0083-0.030812-0.02872-0.050781-0.02539-0.056663 0.01-0.088363 0.13224-0.13086 0.12891-0.040012-0.0083-0.066242-0.09974-0.025391-0.12891 9.166e-4 -0.025-0.0017-0.0269 0-0.05273 0.012512-0.015 0.044777-0.05523 0.078125-0.05274zm5.4414 0.15625c0.22775 0.07851 0.32933 0.34854 0.46876 0.49609 0.29849-0.25608 0.23327 0.39762 0.28712 0.57226-0.04414 0.0083-0.09543-0.03857-0.15625-0.05273-0.02498-0.0083-0.05813 0.0083-0.07813 0-0.04583-0.015-0.03896-0.07577-0.07813-0.10352-0.02251-0.01583-0.09502-0.04857-0.13086-0.05273-0.02251 0-0.02747 0.0083-0.05078 0-0.02832-0.0083-0.08213 0.01167-0.10547 0-0.022508-0.01417-0.072283-0.05896-0.078125-0.07813-0.00917-0.03083 0.076458-0.05204 0.078125-0.07813 0.00183-0.02-0.021224-0.04729-0.025391-0.07813-0.00317-0.01833 0.00408-0.03828 0-0.05078-0.00583-0.02167-0.043967-0.02651-0.078125-0.02734h-0.078125c-0.036667 0-0.11042-0.0033-0.15625 0-0.0275 0-0.052292-0.0025-0.078125 0-0.072492 0.0083-0.12498-0.0083-0.18164 0-0.040842 0-0.11792 0.03523-0.15625 0.05273-0.019158 0.0092-0.027726 0.01289-0.052734 0.02539-0.011642 0.0083-0.037701 0.02068-0.052734 0.02734-0.023325 0.01083-0.055625 0.04412-0.078125 0.05078-0.032492 0.0083-0.069748-0.0083-0.12891 0-0.042483 0-0.10463-0.02729-0.10547-0.07813-9.166e-4 -0.0775 0.13566-0.03662 0.20898-0.05078 0.0275-0.0083 0.044775-0.03273 0.078125-0.05273 0.015858-0.0092 0.010399-0.01539 0.025391-0.02539 0.024975-0.0175 0.073958-0.05812 0.078125-0.07813 0.00317-0.01833-0.0025-0.03857 0-0.05273 0.00317-0.0175 0.030234-0.0294 0.052734-0.05273 0.035017-0.035 0.060182-0.08085 0.10352-0.10352 0.02915-0.015 0.064792-0.02857 0.078125-0.05273 0.00317-0.02667-9.166e-4 -0.02578 0-0.05078 0.018333-0.01667 0.037751-0.02401 0.052734-0.02734 0.045008-0.01 0.078368 0.0025 0.13086 0 0.0225 0 0.053958 0.01083 0.078125 0 0.019983-0.01333 0.030781-0.04078 0.050781-0.05078 0.021675-0.01167 0.051433-0.02568 0.078125-0.02734zm0.46875 0.49609h-0.10352c-0.03667 0-0.08185-0.01917-0.10352 0 0.03085 0.05 0.08709 0.06563 0.15625 0.07813 0.02498-0.01833 0.03914-0.04621 0.05078-0.07813zm-5.7031-0.46875h0.078125c0.020854 0 0.044402-0.0083 0.052734 0-0.013337 0.055-0.13831 0.04539-0.18164 0.02539 0.00229-0.02083 0.024088-0.02206 0.050782-0.02539zm-0.18164 0.10352c-0.036402 0.02648-0.073083 0.06007-0.13086 0.07813-0.031671 0.01-0.07229 0.0096-0.078125-0.02539-0.00669-0.04333 0.049782-0.02318 0.078125-0.02734 0.036667-0.0083 0.088363-0.02372 0.13086-0.0254zm5.416 0c-0.0275 0.0092-0.040842 0.06979 0 0.07813 0.019158-0.01167 0.032385-0.04229 0.027344-0.07813-0.010817-0.01167-0.019044-0.0083-0.027344 0zm-0.050781 0.13086c9.166e-4 0.04667 0.00917 0.08841 0 0.12891 0.026675 0.05167 0.090187 0.0096 0.10352-0.02539 0.015858-0.08667-0.012734-0.11435-0.052734-0.10352-0.013333 0.0083-0.036665-0.01083-0.050782-1e-6zm-6.7715 2.082c0.020854 0.01083 0.051459 0.02068 0.078125 0.02734 0.021679 0.0083 0.031912-0.0067 0.052734 0 0.044183 0.015 0.093913 0.03495 0.12891 0.05078 0.053332 0.02333 0.11042 0.10419 0.15625 0.13086 0.00229 0.02667-0.00834 0.05813 0 0.07813 0.021679 0.02917 0.043122 0.05813 0.078125 0.07813 0.042488 0.02333 0.065474 0.05963 0.10547 0.07813 0.014163 0.0083 0.029084-0.0083 0.050781 0 0.054995 0.01667 0.083362 0.09212 0.13086 0.07813 0.030846-0.0092 0.020395-0.04813 0.025391-0.07813 0.020854-0.0225 0.045602-0.05273 0.078125-0.05273 0.051658 0 0.058957 0.08036 0.078125 0.13086 0.010817 0.02833 0.045264 0.04813 0.052734 0.07813 0.012512 0.05167 0.010817 0.20354 0 0.23438-0.013337 0.03833-0.07185 0.03621-0.10352 0.07813-0.014987 0.02-0.015702 0.06396-0.027344 0.07813-0.019983 0.02417-0.035762 0.0294-0.050781 0.05273-0.00834 0.0125-0.019873 0.03328-0.027344 0.05078-0.025025 0.05333-0.071626 0.09208-0.050781 0.15625 0.00834 0.02583 0.050781 0.04729 0.050781 0.07813 0 0.03667-0.072291 0.0653-0.078125 0.10547-0.00413 0.02917 0.018223 0.0646 0.027344 0.10352 0.00665 0.02917 0.060626 0.05896 0.078125 0.07813 0.02915 0.0325 0.051459 0.08961 0.078125 0.13086 0.052493 0.08083 0.077252 0.1806 0.12891 0.25977 0.0275 0.04083 0.087135 0.06052 0.10547 0.10352 0.00917 0.02167-0.00834 0.05813 0 0.07813 0.029975 0.0675 0.16688 0.15034 0.23438 0.18359 0.031671 0.01583 0.074356 0.0087 0.10352 0.02539 0.044183 0.025 0.13376 0.09203 0.15625 0.13086 0.019983 0.035 0.015399 0.12589 0.025391 0.18164 0.012513 0.07333-0.00321 0.12973 0 0.20898 0.00229 0.04333 0.027344 0.06052 0.027344 0.10352 0 0.015 9.166e-4 0.06229 0 0.07813-9.167e-4 0.05167 0.00412 0.10375 0 0.15625-0.00229 0.02833-0.00183 0.05396 0 0.07813 0.00229 0.02583 0.023741 0.0294 0.025391 0.05273 0.00183 0.02417-0.027912 0.05896-0.025391 0.07813 0.00582 0.0525 0.04078 0.08049 0.050781 0.12891 0.00834 0.03833 0.03234 0.13776 0.027344 0.18359-0.89943 0.17587-1.7838-2.8496-1.7715-3.7774zm1.4844 0.3125c0.040012-0.01833 0.032496 0.0469 0 0.05273-0.030846 0.0083-0.029975-0.03773 0-0.05273z"/>
  <path class="ColorScheme-Text" d="m14 3-2 2 3 3-3 3 2 2 5-5z"/>
  <path class="ColorScheme-Text" d="m6.5 3c-0.831 0-1.5 0.669-1.5 1.5s0.669 1.5 1.5 1.5 1.5-0.669 1.5-1.5-0.669-1.5-1.5-1.5z"/>
  <path class="ColorScheme-Text" d="m3 8c-0.554 0-1 0.446-1 1s0.446 1 1 1 1-0.446 1-1-0.446-1-1-1z"/>
 </g>
</svg>
