<?xml version="1.0" encoding="UTF-8"?>
<svg id="svg1" width="16" height="16" version="1.1" xmlns="http://www.w3.org/2000/svg">
 <g id="g2" transform="matrix(.00061941 0 0 .00061941 .25756 2.2502)" fill="#dedede" stroke="#dedede">
  <path id="path4" d="m20295 656.13-0.09 0.10937-499.88 333.25-1266.4 1732.9-2666 1932.9-2366.1 533.21 466.56 766.49 399.9 1732.9-766.48 1399.7s-933.11 733.16-1099.7 833.14c-166.63 99.976-1799.6-99.978-1999.5-199.95s-933.11-1066.4-933.11-1066.4l-366.58-1666.3 633.18-1399.7-466.56-266.6-633.18-99.975-166.63 366.58 566.53 733.16-66.652 566.53v1366.3l-933.11 933.11-1366.3 99.976-1066.4-433.23-66.65 166.63 166.63 1399.7-533.21 1299.7-799.81 533.21 1133.1 1066.4 2466.1 966.44 2366.1 666.51 2899.3 199.95 3199.2-733.16 149.96-133.3-2649.4-1782.9 949.78-949.78s1483 299.93 3182.6 1099.7 2399.4-8464.7 2399.4-8464.7zm-14875 2154.7-0.065 0.02 0.065 0.053zm0 0.072-23.564 2874.8 1060.4-683.37 1131.1-117.82-801.2-942.59zm8688.1 7506c775.3 235.6 1818.4 665.99 1968.3 1452.4-224.05-142.86-644.97-338.2-1199.6-262.08-726.29 99.66-851.2 817.51-871.94 1014.9-970.9 443.03-3498.7 110.39-5054.6-403.28 3446.2 147.6 4217.4 24.599 5885.1-1024.9l-727.38-776.99z"/>
  <path id="path6" d="m11694 4497.6a2843.4 2843.4 0 0 0-2843.4 2843.4 2843.4 2843.4 0 0 0 2843.4 2843.4 2843.4 2843.4 0 0 0 2843.4-2843.4 2843.4 2843.4 0 0 0-2843.4-2843.4zm0 529.02a2314.4 2314.4 0 0 1 2314.4 2314.4 2314.4 2314.4 0 0 1-2314.4 2314.4 2314.4 2314.4 0 0 1-2314.4-2314.4 2314.4 2314.4 0 0 1 2314.4-2314.4z" style="paint-order:markers fill stroke"/>
  <path id="path8" d="m7098.4 4662.9a2479.7 2479.7 0 0 0-2479.7 2479.7 2479.7 2479.7 0 0 0 2479.7 2479.7 2479.7 2479.7 0 0 0 2030.9-1062 2843.4 2843.4 0 0 1-225.9-680.78 1950.7 1950.7 0 0 1-1805 1213.8 1950.7 1950.7 0 0 1-1950.7-1950.7 1950.7 1950.7 0 0 1 1950.7-1950.7 1950.7 1950.7 0 0 1 1861.1 1373 2843.4 2843.4 0 0 1 284.83-660.53 2479.7 2479.7 0 0 0-2145.9-1241.5z" style="paint-order:markers fill stroke"/>
  <path id="path10" d="m7610.9 6150.8a1330.8 1330.8 0 0 0-553.68 122.4 743.91 743.91 0 0 1 181.75-23.216 743.91 743.91 0 0 1 743.9 743.9 743.91 743.91 0 0 1-743.9 743.9 743.91 743.91 0 0 1-743.95-743.9 743.91 743.91 0 0 1 101.04-372.86 1330.8 1330.8 0 0 0-315.92 860.54 1330.8 1330.8 0 0 0 1330.8 1330.8 1330.8 1330.8 0 0 0 1330.8-1330.8 1330.8 1330.8 0 0 0-1330.8-1330.8z" style="paint-order:markers fill stroke"/>
  <path id="path12" d="m12273 6233.4a1520.9 1520.9 0 0 0-685.99 163.7 867.9 867.9 0 0 1 231.36-31.478 867.9 867.9 0 0 1 867.91 867.91 867.9 867.9 0 0 1-867.91 867.91 867.9 867.9 0 0 1-867.91-867.91 867.9 867.9 0 0 1 70.709-342.49 1520.9 1520.9 0 0 0-269.07 863.25 1520.9 1520.9 0 0 0 1520.9 1520.9 1520.9 1520.9 0 0 0 1520.9-1520.9 1520.9 1520.9 0 0 0-1520.9-1520.9z" style="paint-order:markers fill stroke"/>
  <path id="path14" d="m2100.6 6033.5a3615.5 2625.8 50.92 0 0-557.88 71.514 3615.5 2625.8 50.92 0 0-1141 3866.4 3615.5 2625.8 50.92 0 0 4171.1 2507 3615.5 2625.8 50.92 0 0 1141-3866.4 3615.5 2625.8 50.92 0 0-99.306-189.97 1963.8 1963.8 0 0 1-324.78-525.93 3615.5 2625.8 50.92 0 0-3189.1-1862.6zm155.4 528.98a3028.5 2199.5 50.92 0 1 3026.6 2159.9 3028.5 2199.5 50.92 0 1-955.78 3238.7 3028.5 2199.5 50.92 0 1-3493.9-2100 3028.5 2199.5 50.92 0 1 955.78-3238.7 3028.5 2199.5 50.92 0 1 467.3-59.905z" style="paint-order:markers fill stroke"/>
  <path id="path16" d="m19966 0.082146c-6.165-0.174-12.36-0.07-18.599 0.297-156.26 9.092-335.84 189.29-529.24 675.27-1073.8 2698.3-4133.2 4051.6-7071.9 4407.5 325.2 92.161 626.56 253.74 883.29 473.61 2491.2-454.57 5301-1692.1 6742.3-4375.5 197.16-367.09 187.05 1566.4 187.05 1566.4s607.82 6686.4-2057.4 9865.9c-447.82 534.24-1098.8 1042.9-1874.5 1493-5756.6 2493.8-11270-1731.9-11270-1731.9s-33.008-21.045-36.265-23.132c-110.36 52.085-226.53 94.48-347.7 126.89-73.733 18.228-149.15 32.787-226.06 43.637 17.887 12.926 32.707 23.754 50.797 36.817 4.8979 5.794 9.9058 11.261 15.04 16.395 150.93 87.138 656.84 447.77 656.84 447.77 3512.4 2319.3 7533.2 2860.3 11055 1724 1468-473.61 2734.7-1959.4 3293.4-3250.7 1896.1-4576.8 1111.5-10461 1111.5-10461 63.077 35.554-175.31-1024.2-563.68-1035.2zm-14769 1329.4-163.45 4544.1c100.87-310.26 543.85-648.58 543.85-648.58l33.046-1950.7s1438.3 2000.3 3835.3 2397.1c167.85 27.782 353.03 50.517 552.07 67.701 223.29-239.98 494.56-430.33 796.18-558.68-291.62 1.096-578.03-7.605-856.77-26.013-3465.3-228.84-4740.2-3824.9-4740.2-3824.9z"/>
  <path id="path18" d="m14057 12497s3740.6 2454.8 4932.9 2758.7c211.19 53.833 841.64-1636.5 841.64-1636.5s-2030.6-1258-4675.8-2010.6c-602.88-171.53-1022.9 593.79-1098.8 888.4z" stroke-width="21.691px"/>
  <path id="path20" d="m20042 13474c-376.64 201.34-1578.1 970.14-925.74 2066.4l224.33-85.961c4.745-60.471 87.445-971 808.43-1706.9zm148.79 380.24s-564.3 451.23-757.42 1564.7c1514.5 574.32 1893.7 724.71 1893.7 724.71 116.9 724.75 631.22 1192.4 1215.7 1356 2032 614.4 2388.5 908.37 2446.2 1009.5-985.68-4998.4-3112-3580.4-3112-3580.4zm4798.2 4654.9c2.831 14.36 5.788 28.069 8.601 42.535 0 0 8.117-13.251-8.601-42.535z"/>
 </g>
</svg>
