<?xml version="1.0" encoding="UTF-8"?>
<svg width="16" height="16" version="1.1" viewBox="0 0 4.2333 4.2333" xmlns="http://www.w3.org/2000/svg" xmlns:osb="http://www.openswatchbook.org/uri/2009/osb" xmlns:xlink="http://www.w3.org/1999/xlink">
 <path transform="scale(.26458)" d="m2 0c-1.108 0-2 0.892-2 2v2h1v-2c0-0.554 0.446-1 1-1h2v-1h-2zm10 0v1h2c0.554 0 1 0.446 1 1v2h1v-2c0-1.108-0.892-2-2-2h-2zm-6 4c-1.108 0-2 0.892-2 2v4c0 1.108 0.892 2 2 2h6c1.108 0 2-0.892 2-2v-4c0-1.108-0.892-2-2-2h-6zm-2 4-2-2v4l2-2zm4.9473-3a3 3 0 0 1 0.0019532 0 3 3 0 0 1 0.050781 0 3 3 0 0 1 3 3 3 3 0 0 1-3 3 3 3 0 0 1-3-3 3 3 0 0 1 2.9473-3zm0.0039063 1a2 2 0 0 0-1.9512 2 2 2 0 0 0 2 2 2 2 0 0 0 2-2 2 2 0 0 0-2-2 2 2 0 0 0-0.048828 0zm-8.9512 6v2c0 1.108 0.892 2 2 2h2v-1h-2c-0.554 0-1-0.446-1-1v-2h-1zm15 0v2c0 0.554-0.446 1-1 1h-2v1h2c1.108 0 2-0.892 2-2v-2h-1z" fill="#dedede" stroke-linecap="round" stroke-linejoin="round" stroke-width=".80126"/>
</svg>
