<?xml version="1.0" encoding="UTF-8" standalone="no"?>
<svg
   width="16"
   height="16"
   version="1.1"
   id="svg1"
   sodipodi:docname="audio-headset.svg"
   inkscape:version="1.4.2 (ebf0e940d0, 2025-05-08)"
   xmlns:inkscape="http://www.inkscape.org/namespaces/inkscape"
   xmlns:sodipodi="http://sodipodi.sourceforge.net/DTD/sodipodi-0.dtd"
   xmlns="http://www.w3.org/2000/svg"
   xmlns:svg="http://www.w3.org/2000/svg">
  <sodipodi:namedview
     id="namedview1"
     pagecolor="#ffffff"
     bordercolor="#111111"
     borderopacity="1"
     inkscape:showpageshadow="0"
     inkscape:pageopacity="0"
     inkscape:pagecheckerboard="1"
     inkscape:deskcolor="#d1d1d1"
     inkscape:zoom="25.588427"
     inkscape:cx="1.0942447"
     inkscape:cy="9.8482022"
     inkscape:window-width="2560"
     inkscape:window-height="1371"
     inkscape:window-x="0"
     inkscape:window-y="0"
     inkscape:window-maximized="1"
     inkscape:current-layer="svg1" />
  <defs
     id="defs1">
    <style
       id="current-color-scheme"
       type="text/css">.ColorScheme-Text { color:#363636; } .ColorScheme-Highlight { color:#5294e2; }</style>
  </defs>
  <path
     class="ColorScheme-Text"
     d="m 8,1.004 c -3.315,0 -6,2.685 -6,6 v 5 h 1 v -5 c 0,-2.779 2.222,-5 5,-5 2.779,0 5,2.221 5,5 V 16 h 1 V 7.004 c 0,-3.315 -2.684,-6 -6,-6 z m -4,8 v 6 h 1 c 0,0 1,0 1,-1 v -4 c 0,-1 -1,-1 -1,-1 z m 7,0 c 0,0 -1,0 -1,1 v 4 c 0,1 1,1 1,1 h 1 v -6 z"
     fill="currentColor"
     id="path1"
     sodipodi:nodetypes="ssccsssccsscccsscccsscccc" />
  <circle
     style="opacity:1;fill:#363636;fill-opacity:1;stroke-width:0.978047;paint-order:markers fill stroke"
     id="path3"
     cx="13"
     cy="15.5"
     r="0.5" />
</svg>
