<?xml version="1.0" encoding="UTF-8" standalone="no"?>
<svg
   width="24"
   height="24"
   version="1.1"
   id="svg1"
   sodipodi:docname="start-here.svg"
   inkscape:version="1.4.4 (dcaf3e7d9e, 2026-05-05)"
   xmlns:inkscape="http://www.inkscape.org/namespaces/inkscape"
   xmlns:sodipodi="http://sodipodi.sourceforge.net/DTD/sodipodi-0.dtd"
   xmlns="http://www.w3.org/2000/svg"
   xmlns:svg="http://www.w3.org/2000/svg">
  <sodipodi:namedview
     id="namedview1"
     pagecolor="#ffffff"
     bordercolor="#999999"
     borderopacity="1"
     inkscape:showpageshadow="2"
     inkscape:pageopacity="0"
     inkscape:pagecheckerboard="0"
     inkscape:deskcolor="#d1d1d1"
     inkscape:zoom="48.25"
     inkscape:cx="12"
     inkscape:cy="12"
     inkscape:window-width="2560"
     inkscape:window-height="1371"
     inkscape:window-x="0"
     inkscape:window-y="0"
     inkscape:window-maximized="1"
     inkscape:current-layer="svg1" />
  <defs
     id="defs1">
    <style
       id="current-color-scheme"
       type="text/css">.ColorScheme-Text { color:#363636; }</style>
  </defs>
  <path
     style="baseline-shift:baseline;display:inline;overflow:visible;fill:#363636;stroke:#363636;stroke-width:0.281692;stroke-linecap:round;stroke-linejoin:round;stroke-dasharray:none;stroke-opacity:1;enable-background:accumulate;stop-color:#000000"
     d="m 11.872859,6.8889609 c 0.03851,0.019253 0.06932,0.06548 0.115536,0.06548 0.04237,0 0.107832,-0.015409 0.111692,-0.057761 0.0078,-0.053916 -0.07317,-0.088578 -0.12324,-0.1116908 -0.06547,-0.026958 -0.150196,-0.038521 -0.211814,-0.00394 -0.01541,0.00775 -0.03082,0.026958 -0.02311,0.042352 0.01155,0.050071 0.08858,0.042352 0.130945,0.065479 m -0.8434,0.06548 c 0.04621,0 0.07703,-0.046212 0.115536,-0.06548 0.04237,-0.023113 0.119381,-0.015409 0.134789,-0.06162 0.0078,-0.015409 -0.0078,-0.034662 -0.02311,-0.042352 -0.06162,-0.034662 -0.146345,-0.023113 -0.211814,0.00394 -0.05007,0.023113 -0.130945,0.057761 -0.12324,0.1116909 0.0038,0.038521 0.06932,0.057761 0.107831,0.053916 m 8.514512,10.736233 c -0.138648,-0.154046 -0.204111,-0.446734 -0.277285,-0.758677 -0.06931,-0.311944 -0.150194,-0.646992 -0.40437,-0.862659 -0.05007,-0.04235 -0.100127,-0.08087 -0.154046,-0.111676 -0.05007,-0.03082 -0.103972,-0.05776 -0.157897,-0.07703 0.354304,-1.051371 0.215664,-2.098884 -0.142494,-3.045883 -0.439033,-1.1592 -1.205414,-2.172052 -1.790789,-2.8648743 C 15.95855,9.1418898 15.319259,8.3562537 15.330811,7.1974419 15.350061,5.4293779 15.527219,2.1447287 12.412021,2.1408774 8.4688256,2.1331872 9.4547203,6.1225847 9.412358,7.3472527 9.3468928,8.248422 9.1658845,8.9570337 8.5458487,9.8385639 7.8179807,10.705074 6.793574,12.103041 6.3083286,13.562244 6.0772593,14.2516 5.9694271,14.95251 6.0695571,15.61491 5.819232,15.838277 5.6305256,16.18103 5.4302657,16.392843 c -0.1617484,0.165598 -0.396669,0.227217 -0.6546962,0.319644 -0.2580271,0.09243 -0.5391613,0.23107 -0.7124634,0.558419 -0.080875,0.150194 -0.1078316,0.311943 -0.1078316,0.477541 0,0.150196 0.023107,0.304241 0.046215,0.454437 0.046215,0.311944 0.096279,0.604631 0.03081,0.801039 -0.20026,0.554567 -0.227218,0.939682 -0.084726,1.220818 0.1463438,0.281134 0.4390315,0.404371 0.7740817,0.473691 0.6662496,0.138648 1.5712708,0.103972 2.283734,0.481393 0.7625284,0.40052 1.5366102,0.543013 2.1527947,0.40052 0.4467336,-0.100127 0.8125938,-0.369709 0.9974491,-0.777933 0.481394,-0.0039 1.012853,-0.207962 1.860107,-0.254176 0.57382,-0.04621 1.293987,0.204111 2.121984,0.157898 0.02311,0.08858 0.05391,0.177152 0.09628,0.258027 v 0.0039 c 0.319647,0.643143 0.916575,0.93583 1.552015,0.885765 0.639291,-0.05007 1.313245,-0.423626 1.860108,-1.074472 0.523756,-0.631588 1.386415,-0.893467 1.960237,-1.24007 0.284986,-0.173303 0.516054,-0.388967 0.53531,-0.704762 0.01426,-0.316179 -0.170607,-0.666249 -0.597698,-1.143794 M 11.984543,5.5025461 c 0.377413,-0.8549563 1.317095,-0.8395511 1.694508,-0.015404 0.250325,0.546864 0.138635,1.1900066 -0.1656,1.5558668 -0.06162,-0.03081 -0.227219,-0.1001303 -0.485245,-0.1887084 0.04237,-0.046213 0.119381,-0.1039809 0.150195,-0.1771518 0.184855,-0.4544373 -0.0077,-1.0398125 -0.350455,-1.0513656 -0.281134,-0.019255 -0.53531,0.4159243 -0.454436,0.8857655 -0.157897,-0.077023 -0.362008,-0.134791 -0.500651,-0.1694518 -0.03851,-0.2657285 -0.01155,-0.5622679 0.111692,-0.8395507 M 10.41751,5.0596634 c 0.388965,0 0.801038,0.546864 0.735569,1.2901362 -0.13479,0.038507 -0.273431,0.096282 -0.392818,0.1771534 0.04621,-0.342753 -0.127085,-0.7740816 -0.36971,-0.7548258 -0.323497,0.02696 -0.377413,0.8164445 -0.06932,1.082173 0.03851,0.030803 0.07317,-0.00775 -0.227218,0.2118141 C 9.4932317,6.5038458 9.6896401,5.0596634 10.417508,5.0596634 M 9.8937513,7.3973136 C 10.132524,7.2201603 10.417508,7.0121984 10.436765,6.9929419 c 0.181004,-0.1694503 0.519904,-0.5468641 1.074471,-0.5468641 0.273432,0 0.60078,0.088578 0.997449,0.342753 0.242623,0.1578982 0.435181,0.1694518 0.87036,0.3581586 0.323497,0.1347896 0.527608,0.3735617 0.404373,0.7009089 -0.100128,0.2734314 -0.423629,0.5545656 -0.874213,0.697058 -0.427478,0.1386489 -0.762529,0.6161858 -1.471141,0.5738236 -0.150195,-0.00775 -0.269581,-0.038507 -0.369711,-0.080874 C 10.760261,8.9031151 10.598514,8.6373851 10.298123,8.4602319 9.9669237,8.2753771 9.7897718,8.0597109 9.7320038,7.8710055 Q 9.65113,7.5879459 9.8937527,7.3973136 M 10.020838,20.259012 C 9.9168515,21.610767 8.3301819,21.583809 7.1213048,20.952219 5.9698095,20.343738 4.4797981,20.701894 4.175557,20.108817 4.0831297,19.927814 4.0831297,19.619722 4.2756872,19.092112 v -0.0076 c 0.092428,-0.292687 0.023107,-0.616184 -0.023105,-0.920426 -0.046215,-0.300389 -0.06932,-0.577673 0.034661,-0.77023 0.1347896,-0.258028 0.327348,-0.350455 0.5699707,-0.435181 0.3966688,-0.142491 0.454436,-0.13093 0.7548261,-0.381264 0.2118134,-0.219515 0.3658595,-0.496799 0.5507148,-0.693207 0.1964089,-0.211815 0.3851154,-0.311945 0.6816543,-0.26573 0.3119433,0.04621 0.5815241,0.261878 0.8434026,0.616185 l 0.754826,1.371012 c 0.3650892,0.766762 1.6590773,1.863957 1.5782033,2.653442 m -0.053917,-0.99755 C 9.8090271,19.007387 9.5972145,18.737807 9.4123583,18.506737 c 0.2734327,0 0.5468641,-0.08472 0.6431417,-0.342753 0.08858,-0.238771 0,-0.573821 -0.2849844,-0.958937 C 9.250609,16.504138 8.2955236,15.953422 8.2955236,15.953422 7.775618,15.629925 7.4829305,15.233256 7.3481401,14.801928 7.213349,14.370599 7.2326056,13.90461 7.3365907,13.446322 7.5368508,12.564406 8.0529053,11.7056 8.3841045,11.166438 c 0.088576,-0.06547 0.03081,0.12324 -0.3350504,0.80104 -0.327348,0.620036 -0.9396814,2.052665 -0.1001302,3.172966 0.023107,-0.797189 0.2118134,-1.609783 0.531459,-2.368074 0.4621385,-1.055217 1.4364799,-2.8841298 1.5135028,-4.3398665 0.042366,0.030803 0.1771533,0.1232402 0.2387723,0.1578982 0.177153,0.1039866 0.311942,0.2580271 0.485245,0.3966674 0.477543,0.385117 1.097579,0.354307 1.632888,0.046212 0.238772,-0.1347896 0.43133,-0.2888372 0.612334,-0.3466037 0.381264,-0.119381 0.685505,-0.3311994 0.858807,-0.5776728 0.29654,1.1707503 0.989747,2.8610224 1.43263,3.6851684 0.23492,0.439032 0.704762,1.36716 0.908873,2.48746 0.127085,-0.0039 0.26958,0.01541 0.419775,0.05391 0.531459,-1.374859 -0.450584,-2.857167 -0.897318,-3.269241 -0.181004,-0.177152 -0.188708,-0.254176 -0.100127,-0.250325 0.485245,0.43133 1.124537,1.29784 1.355606,2.272181 0.107831,0.446734 0.127085,0.912724 0.01541,1.374863 0.631589,0.261877 1.382564,0.689356 1.182303,1.340202 -0.08471,-0.0039 -0.123226,0 -0.161747,0 0.123226,-0.388968 -0.150196,-0.677805 -0.878064,-1.005153 -0.754826,-0.331198 -1.386414,-0.331198 -1.474991,0.481394 -0.46599,0.161751 -0.704761,0.56612 -0.824147,1.051365 -0.107833,0.43133 -0.138649,0.951237 -0.169452,1.536611 -0.01926,0.296539 -0.138649,0.693206 -0.261878,1.116835 -1.236606,0.881914 -2.95422,1.267028 -4.4018682,0.277281 m 9.9117082,-0.44288 c -0.03467,0.646992 -1.586675,0.766379 -2.433544,1.790786 -0.508351,0.604631 -1.132237,0.939679 -1.679101,0.982043 -0.546865,0.04235 -1.020557,-0.184855 -1.297841,-0.743272 -0.181003,-0.427478 -0.09243,-0.889618 0.04235,-1.397969 0.142495,-0.546864 0.354307,-1.109132 0.381265,-1.563568 0.0308,-0.585375 0.06547,-1.097579 0.16175,-1.490397 0.100128,-0.396669 0.254175,-0.662399 0.527607,-0.812593 0.01155,-0.0076 0.02696,-0.01155 0.0385,-0.01926 0.0308,0.508352 0.281135,1.024408 0.724018,1.136091 0.485244,0.127086 1.182303,-0.288837 1.478841,-0.627739 0.346604,-0.01155 0.604633,-0.03467 0.870361,0.19641 0.381265,0.327348 0.273432,1.1669 0.658547,1.602079 0.407838,0.447119 0.538778,0.750974 0.527223,0.947384 M 10.043947,7.8671547 c 0.07703,0.07317 0.181005,0.1733011 0.308093,0.2734314 0.254175,0.2002591 0.608482,0.4082224 1.051364,0.4082224 0.446735,0 0.866509,-0.2272184 1.224667,-0.4159239 0.188706,-0.1001274 0.419775,-0.269582 0.56997,-0.4005209 0.150196,-0.1309446 0.227219,-0.2426213 0.119382,-0.2541763 -0.107832,-0.01155 -0.100127,0.1001274 -0.231069,0.1964083 -0.169451,0.1232402 -0.373562,0.2849864 -0.535311,0.3774137 -0.284985,0.161749 -0.750975,0.3928181 -1.151495,0.3928181 -0.400519,0 -0.720165,-0.1848561 -0.958937,-0.3735615 C 10.32123,7.974984 10.221095,7.878707 10.144073,7.805536 10.086314,7.751621 10.070903,7.6283827 9.978473,7.6168292 9.924557,7.6128892 9.909149,7.7593216 10.043938,7.8671547"
     id="path2" />
</svg>
