<?xml version="1.0" encoding="UTF-8" standalone="no"?>
<svg
   width="64"
   height="64"
   version="1.1"
   id="svg9"
   sodipodi:docname="folder-templates.svg"
   inkscape:version="1.4.2 (ebf0e940d0, 2025-05-08)"
   xmlns:inkscape="http://www.inkscape.org/namespaces/inkscape"
   xmlns:sodipodi="http://sodipodi.sourceforge.net/DTD/sodipodi-0.dtd"
   xmlns:xlink="http://www.w3.org/1999/xlink"
   xmlns="http://www.w3.org/2000/svg"
   xmlns:svg="http://www.w3.org/2000/svg">
  <sodipodi:namedview
     id="namedview9"
     pagecolor="#ffffff"
     bordercolor="#111111"
     borderopacity="1"
     inkscape:showpageshadow="0"
     inkscape:pageopacity="0"
     inkscape:pagecheckerboard="1"
     inkscape:deskcolor="#d1d1d1"
     inkscape:zoom="18.09375"
     inkscape:cx="32"
     inkscape:cy="32"
     inkscape:window-width="2560"
     inkscape:window-height="1371"
     inkscape:window-x="0"
     inkscape:window-y="0"
     inkscape:window-maximized="1"
     inkscape:current-layer="svg9" />
  <defs
     id="defs7">
    <linearGradient
       id="d"
       x1="7.937"
       x2="7.937"
       y1="15.081"
       y2="1.852"
       gradientTransform="matrix(7.0188 0 0 7.1159 -27.424 -28.057)"
       gradientUnits="userSpaceOnUse">
      <stop
         stop-color="#f1efeb"
         offset="0"
         id="stop1" />
      <stop
         stop-color="#fdfcfc"
         offset="1"
         id="stop2" />
    </linearGradient>
    <linearGradient
       id="g"
       x1="33.977"
       x2="33.977"
       y1="1.219"
       y2="84.848"
       gradientUnits="userSpaceOnUse">
      <stop
         stop-color="#f66151"
         offset="0"
         id="stop3" />
      <stop
         stop-color="#ed333b"
         offset="1"
         id="stop4" />
    </linearGradient>
    <linearGradient
       id="f"
       x1="31.265"
       x2="31.265"
       y1="-1.466"
       y2="20.86"
       gradientUnits="userSpaceOnUse">
      <stop
         stop-color="#e01b24"
         offset="0"
         id="stop5" />
      <stop
         stop-color="#c01c28"
         offset=".832"
         id="stop6" />
      <stop
         stop-color="#e01b24"
         offset="1"
         id="stop7" />
    </linearGradient>
    <clipPath
       id="e">
      <rect
         x="-19.996"
         y="-20.586"
         width="104"
         height="105.44"
         rx="24.145"
         ry="24.479"
         fill="url(#d)"
         stroke-width="7.067"
         id="rect7" />
    </clipPath>
    <linearGradient
       inkscape:collect="always"
       xlink:href="#linearGradient18"
       id="linearGradient19"
       x1="31.999998"
       y1="63.897808"
       x2="31.999998"
       y2="2.7223105"
       gradientUnits="userSpaceOnUse" />
    <linearGradient
       id="linearGradient18"
       inkscape:collect="always">
      <stop
         style="stop-color:#000000;stop-opacity:1;"
         offset="0"
         id="stop18" />
      <stop
         style="stop-color:#000000;stop-opacity:0;"
         offset="1"
         id="stop19" />
    </linearGradient>
    <clipPath
       clipPathUnits="userSpaceOnUse"
       id="clipPath4">
      <path
         id="path4"
         style="fill:#af8643;fill-opacity:1;stroke-linecap:round;paint-order:markers fill stroke"
         d="M 0,0 V 64 H 64 V 0 Z m 16.951172,4 h 4.33789 c 1.538951,0.336414 2.841889,1.3355691 3.548829,2.7207031 l 0.810547,1.5839844 c 0.592059,1.160454 1.800363,1.8935315 3.121093,1.8945315 h 24.785157 c 3.560879,0 6.445312,2.84486 6.445312,6.353515 v 4.341797 26.3125 C 59.88957,54.312643 54.13338,60 47,60 H 17 C 9.79711,60 4,54.200395 4,46.998047 V 25.009766 15.417969 C 4,10.199401 10.261892,4 16.951172,4 Z" />
    </clipPath>
    <filter
       inkscape:collect="always"
       style="color-interpolation-filters:sRGB"
       id="filter19"
       x="-0.048083155"
       y="-0.047917137"
       width="1.0961663"
       height="1.0958343">
      <feGaussianBlur
         inkscape:collect="always"
         stdDeviation="1.1181055"
         id="feGaussianBlur19" />
    </filter>
    <linearGradient
       inkscape:collect="always"
       xlink:href="#linearGradient9"
       id="linearGradient2"
       gradientUnits="userSpaceOnUse"
       gradientTransform="matrix(0.5384855,0,0,0.53109863,14.767286,14.935017)"
       x1="33.977001"
       y1="1.219"
       x2="33.977001"
       y2="84.848" />
    <linearGradient
       id="linearGradient9"
       x1="33.977001"
       x2="33.977001"
       y1="1.219"
       y2="84.848"
       gradientUnits="userSpaceOnUse"
       gradientTransform="matrix(0.5385,0,0,0.53115,14.768,14.903)">
      <stop
         stop-color="#f66151"
         offset="0"
         id="stop7-9"
         style="stop-color:#ffffff;stop-opacity:1;" />
      <stop
         stop-color="#ed333b"
         offset="0.75131708"
         id="stop8"
         style="stop-color:#ffffff;stop-opacity:0;" />
    </linearGradient>
    <filter
       inkscape:collect="always"
       style="color-interpolation-filters:sRGB"
       id="filter34"
       x="-0.016254905"
       y="-0.079654739"
       width="1.0325098"
       height="1.1593095">
      <feGaussianBlur
         inkscape:collect="always"
         stdDeviation="0.3792811"
         id="feGaussianBlur34" />
    </filter>
    <linearGradient
       inkscape:collect="always"
       xlink:href="#linearGradient12"
       id="linearGradient1"
       gradientUnits="userSpaceOnUse"
       gradientTransform="matrix(0.5384855,0,0,0.53109863,14.767284,14.935017)"
       x1="33.977001"
       y1="1.219"
       x2="33.977001"
       y2="84.848" />
    <linearGradient
       id="linearGradient12"
       x1="33.977001"
       x2="33.977001"
       y1="1.219"
       y2="84.848"
       gradientUnits="userSpaceOnUse"
       gradientTransform="matrix(0.5385,0,0,0.53115,14.768,14.903)">
      <stop
         stop-color="#f66151"
         offset="0"
         id="stop11"
         style="stop-color:#f66151;stop-opacity:0.80000001;" />
      <stop
         stop-color="#ed333b"
         offset="1"
         id="stop12"
         style="stop-color:#ed333b;stop-opacity:0.80000001;" />
    </linearGradient>
    <clipPath
       clipPathUnits="userSpaceOnUse"
       id="clipPath27">
      <path
         id="path27"
         clip-path="none"
         style="display:inline;fill:#000000;fill-opacity:0.35;stroke-width:0.53478"
         d="m 97.405554,12.312654 a 5.3471609,5.2738092 0 0 0 -3.783335,1.535102 c -1.224516,1.197097 -2.898522,2.71475 -4.6486,2.71475 H 73.711368 c -2.931503,0 -5.298841,2.296834 -5.369328,5.177552 v 21.989469 c 0,7.202348 5.797563,13.001495 13.000454,13.001495 h 29.999096 c 7.13338,0 12.89002,-5.686911 13.00045,-12.792523 v -26.31353 c 0,-2.942287 -2.39487,-5.310362 -5.37323,-5.310362 z" />
    </clipPath>
    <filter
       inkscape:collect="always"
       style="color-interpolation-filters:sRGB"
       id="filter27"
       x="-0.043037109"
       y="-0.21089709"
       width="1.0860742"
       height="1.4217942">
      <feGaussianBlur
         inkscape:collect="always"
         stdDeviation="1.0041994"
         id="feGaussianBlur27" />
    </filter>
    <linearGradient
       inkscape:collect="always"
       xlink:href="#linearGradient35"
       id="linearGradient20"
       gradientUnits="userSpaceOnUse"
       gradientTransform="matrix(1.0034296,0,0,0.99996509,-2.4616268,-70.466772)"
       x1="34.34481"
       y1="74.566055"
       x2="34.34481"
       y2="130.37465" />
    <linearGradient
       id="linearGradient35"
       inkscape:collect="always">
      <stop
         style="stop-color:#e01b24;stop-opacity:1;"
         offset="0"
         id="stop34" />
      <stop
         style="stop-color:#a51d2d;stop-opacity:0.80000001;"
         offset="0.24196626"
         id="stop35" />
    </linearGradient>
    <clipPath
       clipPathUnits="userSpaceOnUse"
       id="clipPath31">
      <path
         id="path32"
         style="display:inline;mix-blend-mode:normal;fill:url(#linearGradient32);stroke:none;stroke-width:1.00169;stroke-dasharray:none;stroke-opacity:1"
         d="m 91.189453,6.27539 c -6.689277,0 -12.951172,6.199401 -12.951172,11.417969 v 9.591797 c 0.07049,-2.880718 2.437636,-5.177735 5.36914,-5.177735 H 98.86914 c 1.75008,0 3.42392,-1.517747 4.64844,-2.714843 a 5.3471609,5.2738092 0 0 1 3.78515,-1.535157 l 21.5625,0.002 c 2.97837,0 5.37305,2.36826 5.37305,5.310547 v -4.341797 c 0,-3.508655 -2.88443,-6.353515 -6.44531,-6.353515 h -24.78516 c -1.32073,-10e-4 -2.52903,-0.734125 -3.121092,-1.894579 L 99.076171,8.996093 C 98.369235,7.610959 97.066294,6.611804 95.527343,6.27539 Z" />
    </clipPath>
    <linearGradient
       inkscape:collect="always"
       xlink:href="#linearGradient16"
       id="linearGradient32"
       gradientUnits="userSpaceOnUse"
       gradientTransform="matrix(1.0034296,0,0,0.99996509,71.776654,-68.191382)"
       x1="34.34481"
       y1="74.566055"
       x2="34.34481"
       y2="130.37465" />
    <linearGradient
       id="linearGradient16"
       inkscape:collect="always">
      <stop
         style="stop-color:#e01b24;stop-opacity:0.89999998;"
         offset="0"
         id="stop16" />
      <stop
         style="stop-color:#a51d2d;stop-opacity:0.80000001;"
         offset="0.24196626"
         id="stop17" />
    </linearGradient>
    <filter
       inkscape:collect="always"
       style="color-interpolation-filters:sRGB"
       id="filter33"
       x="-0.030236888"
       y="-0.11635378"
       width="1.0604738"
       height="1.2327076">
      <feGaussianBlur
         inkscape:collect="always"
         stdDeviation="0.70552734"
         id="feGaussianBlur33" />
    </filter>
  </defs>
  <g
     id="g3">
    <path
       d="m 17.001953,5.3085937 c -6.666414,0 -12.1290198,4.9678453 -12.9062499,11.4179683 v 33.169922 c 0.7658438,6.35563 6.0819429,11.271403 12.6152339,11.414063 h 30.583985 c 6.521169,-0.142395 11.82811,-5.040415 12.609375,-11.378906 V 17.861328 c 0,-3.508777 -2.875113,-6.353516 -6.423828,-6.353515 H 28.779297 A 3.4814025,3.4338847 0 0 1 25.669922,9.6132813 L 24.861328,8.0292969 A 5.226681,5.1553419 0 0 0 21.324219,5.3085937 Z"
       style="display:inline;opacity:0.25;fill:url(#linearGradient19);filter:url(#filter19)"
       id="path28"
       sodipodi:insensitive="true"
       clip-path="url(#clipPath4)" />
    <g
       id="g1"
       style="display:inline">
      <path
         id="path1-5"
         clip-path="none"
         style="display:inline;fill:url(#linearGradient2);stroke-width:0.53478"
         d="m 33.063517,15.581632 a 5.3471609,5.2738092 0 0 0 -3.783336,1.535102 c -1.224516,1.197097 -2.898522,2.71475 -4.6486,2.71475 H 9.3693315 c -2.931504,0 -5.298842,2.296834 -5.369329,5.177552 V 46.998505 C 4.0000025,54.200853 9.7975665,60 17.000456,60 h 29.999092 c 7.13339,0 12.89003,-5.686911 13.00045,-12.792523 v -26.31353 c 0,-2.942287 -2.39487,-5.310362 -5.373231,-5.310362 z" />
      <path
         d="m 60.00072,18.89403 c 0,-2.942286 -2.39468,-5.310546 -5.37305,-5.310546 l -21.5625,-0.002 a 5.3471609,5.2738092 0 0 0 -3.78515,1.535157 c -1.22452,1.197096 -2.89836,2.714843 -4.648439,2.714843 H 9.369862 c -2.931504,0 -5.298651,2.297017 -5.369141,5.177735 v 2 c 0.07049,-2.880718 2.437637,-5.177735 5.369141,-5.177735 h 15.261719 c 1.750079,0 3.423919,-1.517747 4.648439,-2.714843 a 5.3471609,5.2738092 0 0 1 3.78515,-1.535157 l 21.5625,0.002 c 2.97837,0 5.37305,2.368259 5.37305,5.310546 z"
         style="display:inline;mix-blend-mode:normal;fill:#000000;fill-opacity:0.0955279;stroke-width:1.00169;filter:url(#filter34)"
         id="path31"
         transform="matrix(0.96797687,0,0,1.0023848,1.0085195,0.29858989)" />
      <path
         id="path1"
         clip-path="none"
         style="display:inline;fill:url(#linearGradient1);stroke-width:0.53478"
         d="m 33.063514,15.581632 a 5.3471609,5.2738092 0 0 0 -3.783335,1.535102 c -1.224516,1.197097 -2.898522,2.71475 -4.6486,2.71475 H 9.3693287 C 6.437825,19.831484 4.0704875,22.128318 4,25.009036 V 46.998505 C 4,54.200853 9.7975636,60 17.000454,60 H 46.999547 C 54.132931,60 59.889572,54.313089 60,47.207477 v -26.31353 c 0,-2.942287 -2.39487,-5.310362 -5.373234,-5.310362 z" />
      <g
         id="g26"
         clip-path="url(#clipPath27)"
         style="mix-blend-mode:normal;filter:url(#filter27)"
         transform="translate(-64.34204,3.268978)">
        <path
           d="m 97.405263,12.312506 a 5.3471609,5.2738092 0 0 0 -3.783206,1.535156 c -1.224516,1.197097 -2.89836,2.714844 -4.648438,2.714844 H 73.7119 c -2.931504,0 -5.298653,2.297016 -5.36914,5.177734 v 2 c 0.07049,-2.880718 2.437636,-5.177734 5.36914,-5.177734 h 15.261719 c 1.750078,0 3.423922,-1.517747 4.648438,-2.714844 a 5.3471609,5.2738092 0 0 1 3.783206,-1.535156 l 21.562507,0.002 c 2.97836,0 5.375,2.36826 5.375,5.310547 v -2 c 0,-2.942287 -2.39664,-5.310547 -5.375,-5.310547 z"
           style="display:inline;fill:#ffffff;fill-opacity:0.2;stroke-width:0.53478"
           id="path17" />
        <path
           d="m 124.34082,41.937506 c -0.11043,7.105612 -5.86858,12.792969 -13.00196,12.792969 H 81.34081 c -7.20289,0 -13,-5.799606 -13,-13.001954 v 2 c 0,7.202348 5.79711,13.001954 13,13.001954 h 29.99805 c 7.13338,0 12.89153,-5.687357 13.00196,-12.792969 z"
           style="display:none;fill:#e01b24;fill-opacity:0.2;stroke-width:0.53478"
           id="path19" />
      </g>
    </g>
    <g
       id="g2">
      <path
         id="path9-5"
         style="display:inline;mix-blend-mode:normal;fill:url(#linearGradient20);stroke:none;stroke-width:1.00169;stroke-dasharray:none;stroke-opacity:1"
         d="M 16.951172,4 C 10.261895,4 3.9999999,10.199401 4,15.417969 v 9.591797 C 4.070487,22.129048 6.4376369,19.832031 9.3691406,19.832031 H 24.630859 c 1.750078,0 3.423922,-1.517747 4.648438,-2.714843 a 5.3471609,5.2738092 0 0 1 3.785156,-1.535157 l 21.5625,0.002 c 2.978364,0 5.373047,2.36826 5.373047,5.310547 v -4.341797 c 0,-3.508655 -2.884428,-6.353515 -6.445312,-6.353515 H 28.769531 c -1.320727,-10e-4 -2.529034,-0.7341253 -3.121093,-1.8945785 L 24.837891,6.7207031 C 24.130954,5.335569 22.828014,4.3364138 21.289062,4 Z" />
      <path
         d="m 91.189453,6.275437 c -6.689277,0 -12.951172,6.199401 -12.951172,11.417969 v 2 c 0,-5.218568 6.261895,-11.417969 12.951172,-11.417969 h 4.337891 c 1.538952,0.336414 2.841891,1.335569 3.548828,2.720703 l 0.810547,1.583985 c 0.592061,1.160454 1.800371,1.893531 3.121091,1.894531 h 24.78516 c 3.56088,0 6.44531,2.844861 6.44531,6.353516 v -2 c 0,-3.508655 -2.88443,-6.353516 -6.44531,-6.353516 h -24.78516 c -1.32072,-10e-4 -2.52903,-0.734077 -3.121091,-1.894531 L 99.076172,8.99614 C 98.369235,7.611006 97.066296,6.611851 95.527344,6.275437 Z"
         style="display:inline;fill:#ffffff;fill-opacity:0.1;stroke-width:1.00169;filter:url(#filter33)"
         id="path29"
         clip-path="url(#clipPath31)"
         transform="translate(-74.238281,-2.275437)" />
    </g>
  </g>
  <path
     d="m 28.999999,30 c -1.644531,0 -3,1.356131 -3,3.001466 v 8 h 1 v -0.996581 h 1 v -7.003419 c 0,-0.570592 0.429688,-1.000489 1,-1.000489 h 4 v 1.500733 c 0,1.000488 0.5,1.500733 1.5,1.500733 h 1.5 v 8.003908 h 1 v 1.000488 h 1 v -9.504641 c 0,-0.265754 -0.105469,-0.519784 -0.292969,-0.707376 l -3.5,-3.50171 C 34.01953,30.105521 33.765624,30 33.499999,30 Z m 8,14.006839 h -1 v 0.992672 h -1 V 46 h 1 v -0.992672 h 1 z m -2,0.992672 v -1.000488 h -1 v 1.000488 z m -1,0 h -1 V 46 h 1 z m -1,0 v -1.000488 h -1 v 1.000488 z m -1,0 h -1 V 46 h 1 z m -1,0 v -1.000488 h -1 v 1.000488 z m -1,0 h -1 V 46 h 1 z m -1,0 v -1.000488 h -1 v 1.000488 z m -1,0 h -1 V 46 h 1 z m -1,0 v -1.000488 h -1 v 1.000488 z m 0,-1.000488 h 1 v -1.000489 h -1 z m 0,-1.000489 v -1.000488 h -1 v 1.000488 z m 0,-1.000488 h 1 v -1.000489 h -1 z m 0,0"
     fill="#c01c28"
     id="path9-9"
     style="opacity:0.5;stroke-width:0.500122;fill:#a51d2d" />
</svg>
