<?xml version="1.0" encoding="UTF-8" standalone="no"?>
<svg
   width="64"
   height="64"
   version="1.1"
   id="svg2"
   sodipodi:docname="application-pdf.svg"
   inkscape:version="1.3.2 (091e20ef0f, 2023-11-25)"
   xml:space="preserve"
   xmlns:inkscape="http://www.inkscape.org/namespaces/inkscape"
   xmlns:sodipodi="http://sodipodi.sourceforge.net/DTD/sodipodi-0.dtd"
   xmlns:xlink="http://www.w3.org/1999/xlink"
   xmlns="http://www.w3.org/2000/svg"
   xmlns:svg="http://www.w3.org/2000/svg"
   xmlns:rdf="http://www.w3.org/1999/02/22-rdf-syntax-ns#"
   xmlns:cc="http://creativecommons.org/ns#"
   xmlns:dc="http://purl.org/dc/elements/1.1/"><sodipodi:namedview
     id="namedview2"
     pagecolor="#ffffff"
     bordercolor="#111111"
     borderopacity="1"
     inkscape:showpageshadow="0"
     inkscape:pageopacity="0"
     inkscape:pagecheckerboard="1"
     inkscape:deskcolor="#d1d1d1"
     inkscape:zoom="12.546875"
     inkscape:cx="29.449564"
     inkscape:cy="31.681196"
     inkscape:window-width="1920"
     inkscape:window-height="1011"
     inkscape:window-x="0"
     inkscape:window-y="0"
     inkscape:window-maximized="1"
     inkscape:current-layer="svg2" /><defs
     id="defs2"><linearGradient
       id="linearGradient92"
       x1="7.9373002"
       x2="7.9373002"
       y1="15.081"
       y2="1.852"
       gradientTransform="scale(3.7796)"
       gradientUnits="userSpaceOnUse"
       spreadMethod="pad"><stop
         stop-color="#f1efeb"
         offset="0"
         id="stop91"
         style="stop-color:#695e49;stop-opacity:1;" /><stop
         stop-color="#fdfcfc"
         offset="1"
         id="stop92" /></linearGradient><linearGradient
       id="linearGradient90"
       x1="7.9373002"
       x2="7.9373002"
       y1="15.081"
       y2="1.852"
       gradientTransform="scale(3.7796)"
       gradientUnits="userSpaceOnUse"
       spreadMethod="pad"><stop
         stop-color="#f1efeb"
         offset="0"
         id="stop89"
         style="stop-color:#6a5f4a;stop-opacity:1;" /><stop
         stop-color="#fdfcfc"
         offset="1"
         id="stop90" /></linearGradient><linearGradient
       id="linearGradient88"
       x1="7.9373002"
       x2="7.9373002"
       y1="15.081"
       y2="1.852"
       gradientTransform="scale(3.7796)"
       gradientUnits="userSpaceOnUse"
       spreadMethod="pad"><stop
         stop-color="#f1efeb"
         offset="0"
         id="stop87"
         style="stop-color:#70654e;stop-opacity:1;" /><stop
         stop-color="#fdfcfc"
         offset="1"
         id="stop88" /></linearGradient><linearGradient
       id="linearGradient86"
       x1="7.9373002"
       x2="7.9373002"
       y1="15.081"
       y2="1.852"
       gradientTransform="scale(3.7796)"
       gradientUnits="userSpaceOnUse"
       spreadMethod="pad"><stop
         stop-color="#f1efeb"
         offset="0"
         id="stop85"
         style="stop-color:#948567;stop-opacity:1;" /><stop
         stop-color="#fdfcfc"
         offset="1"
         id="stop86" /></linearGradient><linearGradient
       id="linearGradient84"
       x1="7.9373002"
       x2="7.9373002"
       y1="15.081"
       y2="1.852"
       gradientTransform="scale(3.7796)"
       gradientUnits="userSpaceOnUse"
       spreadMethod="pad"><stop
         stop-color="#f1efeb"
         offset="0"
         id="stop83"
         style="stop-color:#aca189;stop-opacity:1;" /><stop
         stop-color="#fdfcfc"
         offset="1"
         id="stop84" /></linearGradient><linearGradient
       id="linearGradient82"
       x1="7.9373002"
       x2="7.9373002"
       y1="15.081"
       y2="1.852"
       gradientTransform="scale(3.7796)"
       gradientUnits="userSpaceOnUse"
       spreadMethod="pad"><stop
         stop-color="#f1efeb"
         offset="0"
         id="stop81"
         style="stop-color:#c1b9a7;stop-opacity:1;" /><stop
         stop-color="#fdfcfc"
         offset="1"
         id="stop82" /></linearGradient><linearGradient
       id="linearGradient80"
       x1="7.9373002"
       x2="7.9373002"
       y1="15.081"
       y2="1.852"
       gradientTransform="scale(3.7796)"
       gradientUnits="userSpaceOnUse"
       spreadMethod="pad"><stop
         stop-color="#f1efeb"
         offset="0"
         id="stop79"
         style="stop-color:#d0c9bb;stop-opacity:1;" /><stop
         stop-color="#fdfcfc"
         offset="1"
         id="stop80" /></linearGradient><linearGradient
       id="linearGradient78"
       x1="7.9373002"
       x2="7.9373002"
       y1="15.081"
       y2="1.852"
       gradientTransform="scale(3.7796)"
       gradientUnits="userSpaceOnUse"
       spreadMethod="pad"><stop
         stop-color="#f1efeb"
         offset="0"
         id="stop77"
         style="stop-color:#dcd7cd;stop-opacity:1;" /><stop
         stop-color="#fdfcfc"
         offset="1"
         id="stop78" /></linearGradient><linearGradient
       id="linearGradient76"
       x1="7.9373002"
       x2="7.9373002"
       y1="15.081"
       y2="1.852"
       gradientTransform="scale(3.7796)"
       gradientUnits="userSpaceOnUse"
       spreadMethod="pad"><stop
         stop-color="#f1efeb"
         offset="0"
         id="stop75"
         style="stop-color:#e2ddd5;stop-opacity:1;" /><stop
         stop-color="#fdfcfc"
         offset="1"
         id="stop76" /></linearGradient><linearGradient
       id="linearGradient74"
       x1="7.9373002"
       x2="7.9373002"
       y1="15.081"
       y2="1.852"
       gradientTransform="scale(3.7796)"
       gradientUnits="userSpaceOnUse"
       spreadMethod="pad"><stop
         stop-color="#f1efeb"
         offset="0"
         id="stop73"
         style="stop-color:#e2ded5;stop-opacity:1;" /><stop
         stop-color="#fdfcfc"
         offset="1"
         id="stop74" /></linearGradient><linearGradient
       id="linearGradient72"
       x1="7.9373002"
       x2="7.9373002"
       y1="15.081"
       y2="1.852"
       gradientTransform="scale(3.7796)"
       gradientUnits="userSpaceOnUse"
       spreadMethod="pad"><stop
         stop-color="#f1efeb"
         offset="0"
         id="stop71"
         style="stop-color:#9a8b6e;stop-opacity:1;" /><stop
         stop-color="#fdfcfc"
         offset="1"
         id="stop72" /></linearGradient><linearGradient
       id="linearGradient70"
       x1="7.9373002"
       x2="7.9373002"
       y1="15.081"
       y2="1.852"
       gradientTransform="scale(3.7796)"
       gradientUnits="userSpaceOnUse"
       spreadMethod="pad"><stop
         stop-color="#f1efeb"
         offset="0"
         id="stop69"
         style="stop-color:#756a52;stop-opacity:1;" /><stop
         stop-color="#fdfcfc"
         offset="1"
         id="stop70" /></linearGradient><linearGradient
       id="linearGradient68"
       x1="7.9373002"
       x2="7.9373002"
       y1="15.081"
       y2="1.852"
       gradientTransform="scale(3.7796)"
       gradientUnits="userSpaceOnUse"
       spreadMethod="pad"><stop
         stop-color="#f1efeb"
         offset="0"
         id="stop67"
         style="stop-color:#574e3d;stop-opacity:1;" /><stop
         stop-color="#fdfcfc"
         offset="1"
         id="stop68" /></linearGradient><linearGradient
       id="linearGradient66"
       x1="7.9373002"
       x2="7.9373002"
       y1="15.081"
       y2="1.852"
       gradientTransform="scale(3.7796)"
       gradientUnits="userSpaceOnUse"
       spreadMethod="pad"><stop
         stop-color="#f1efeb"
         offset="0"
         id="stop65"
         style="stop-color:#4d4536;stop-opacity:1;" /><stop
         stop-color="#fdfcfc"
         offset="1"
         id="stop66" /></linearGradient><linearGradient
       id="linearGradient64"
       x1="7.9373002"
       x2="7.9373002"
       y1="15.081"
       y2="1.852"
       gradientTransform="scale(3.7796)"
       gradientUnits="userSpaceOnUse"
       spreadMethod="pad"><stop
         stop-color="#f1efeb"
         offset="0"
         id="stop63"
         style="stop-color:#4d4536;stop-opacity:1;" /><stop
         stop-color="#fdfcfc"
         offset="1"
         id="stop64" /></linearGradient><linearGradient
       id="linearGradient62"
       x1="7.9373002"
       x2="7.9373002"
       y1="15.081"
       y2="1.852"
       gradientTransform="scale(3.7796)"
       gradientUnits="userSpaceOnUse"
       spreadMethod="pad"><stop
         stop-color="#f1efeb"
         offset="0"
         id="stop61"
         style="stop-color:#0c0b08;stop-opacity:1;" /><stop
         stop-color="#fdfcfc"
         offset="1"
         id="stop62" /></linearGradient><linearGradient
       id="linearGradient60"
       x1="7.9373002"
       x2="7.9373002"
       y1="15.081"
       y2="1.852"
       gradientTransform="scale(3.7796)"
       gradientUnits="userSpaceOnUse"
       spreadMethod="pad"><stop
         stop-color="#f1efeb"
         offset="0"
         id="stop59"
         style="stop-color:#0b0a08;stop-opacity:1;" /><stop
         stop-color="#fdfcfc"
         offset="1"
         id="stop60" /></linearGradient><linearGradient
       id="linearGradient58"
       x1="7.9373002"
       x2="7.9373002"
       y1="15.081"
       y2="1.852"
       gradientTransform="scale(3.7796)"
       gradientUnits="userSpaceOnUse"
       spreadMethod="pad"><stop
         stop-color="#f1efeb"
         offset="0"
         id="stop57"
         style="stop-color:#0b0a08;stop-opacity:1;" /><stop
         stop-color="#fdfcfc"
         offset="1"
         id="stop58" /></linearGradient><linearGradient
       id="linearGradient56"
       x1="7.9373002"
       x2="7.9373002"
       y1="15.081"
       y2="1.852"
       gradientTransform="scale(3.7796)"
       gradientUnits="userSpaceOnUse"
       spreadMethod="pad"><stop
         stop-color="#f1efeb"
         offset="0"
         id="stop55"
         style="stop-color:#171410;stop-opacity:1;" /><stop
         stop-color="#fdfcfc"
         offset="1"
         id="stop56" /></linearGradient><linearGradient
       id="linearGradient54"
       x1="7.9373002"
       x2="7.9373002"
       y1="15.081"
       y2="1.852"
       gradientTransform="scale(3.7796)"
       gradientUnits="userSpaceOnUse"
       spreadMethod="pad"><stop
         stop-color="#f1efeb"
         offset="0"
         id="stop53"
         style="stop-color:#2d281f;stop-opacity:1;" /><stop
         stop-color="#fdfcfc"
         offset="1"
         id="stop54" /></linearGradient><linearGradient
       id="linearGradient52"
       x1="7.9373002"
       x2="7.9373002"
       y1="15.081"
       y2="1.852"
       gradientTransform="scale(3.7796)"
       gradientUnits="userSpaceOnUse"
       spreadMethod="pad"><stop
         stop-color="#f1efeb"
         offset="0"
         id="stop51"
         style="stop-color:#3a3428;stop-opacity:1;" /><stop
         stop-color="#fdfcfc"
         offset="1"
         id="stop52" /></linearGradient><linearGradient
       id="linearGradient50"
       x1="7.9373002"
       x2="7.9373002"
       y1="15.081"
       y2="1.852"
       gradientTransform="scale(3.7796)"
       gradientUnits="userSpaceOnUse"
       spreadMethod="pad"><stop
         stop-color="#f1efeb"
         offset="0"
         id="stop49"
         style="stop-color:#473f31;stop-opacity:1;" /><stop
         stop-color="#fdfcfc"
         offset="1"
         id="stop50" /></linearGradient><linearGradient
       id="linearGradient48"
       x1="7.9373002"
       x2="7.9373002"
       y1="15.081"
       y2="1.852"
       gradientTransform="scale(3.7796)"
       gradientUnits="userSpaceOnUse"
       spreadMethod="pad"><stop
         stop-color="#f1efeb"
         offset="0"
         id="stop47"
         style="stop-color:#4e4737;stop-opacity:1;" /><stop
         stop-color="#fdfcfc"
         offset="1"
         id="stop48" /></linearGradient><linearGradient
       id="linearGradient46"
       x1="7.9373002"
       x2="7.9373002"
       y1="15.081"
       y2="1.852"
       gradientTransform="scale(3.7796)"
       gradientUnits="userSpaceOnUse"
       spreadMethod="pad"><stop
         stop-color="#f1efeb"
         offset="0"
         id="stop45"
         style="stop-color:#534b3a;stop-opacity:1;" /><stop
         stop-color="#fdfcfc"
         offset="1"
         id="stop46" /></linearGradient><linearGradient
       id="linearGradient44"
       x1="7.9373002"
       x2="7.9373002"
       y1="15.081"
       y2="1.852"
       gradientTransform="scale(3.7796)"
       gradientUnits="userSpaceOnUse"
       spreadMethod="pad"><stop
         stop-color="#f1efeb"
         offset="0"
         id="stop43"
         style="stop-color:#544c3b;stop-opacity:1;" /><stop
         stop-color="#fdfcfc"
         offset="1"
         id="stop44" /></linearGradient><linearGradient
       id="linearGradient42"
       x1="7.9373002"
       x2="7.9373002"
       y1="15.081"
       y2="1.852"
       gradientTransform="scale(3.7796)"
       gradientUnits="userSpaceOnUse"
       spreadMethod="pad"><stop
         stop-color="#f1efeb"
         offset="0"
         id="stop41"
         style="stop-color:#554c3b;stop-opacity:1;" /><stop
         stop-color="#fdfcfc"
         offset="1"
         id="stop42" /></linearGradient><linearGradient
       id="linearGradient40"
       x1="7.9373002"
       x2="7.9373002"
       y1="15.081"
       y2="1.852"
       gradientTransform="scale(3.7796)"
       gradientUnits="userSpaceOnUse"
       spreadMethod="pad"><stop
         stop-color="#f1efeb"
         offset="0"
         id="stop39"
         style="stop-color:#564d3c;stop-opacity:1;" /><stop
         stop-color="#fdfcfc"
         offset="1"
         id="stop40" /></linearGradient><linearGradient
       id="linearGradient38"
       x1="7.9373002"
       x2="7.9373002"
       y1="15.081"
       y2="1.852"
       gradientTransform="scale(3.7796)"
       gradientUnits="userSpaceOnUse"
       spreadMethod="pad"><stop
         stop-color="#f1efeb"
         offset="0"
         id="stop37"
         style="stop-color:#000000;stop-opacity:1;" /><stop
         stop-color="#fdfcfc"
         offset="1"
         id="stop38" /></linearGradient><linearGradient
       id="linearGradient36"
       x1="7.9373002"
       x2="7.9373002"
       y1="15.081"
       y2="1.852"
       gradientTransform="scale(3.7796)"
       gradientUnits="userSpaceOnUse"
       spreadMethod="pad"><stop
         stop-color="#f1efeb"
         offset="0"
         id="stop35"
         style="stop-color:#000000;stop-opacity:1;" /><stop
         stop-color="#fdfcfc"
         offset="1"
         id="stop36" /></linearGradient><linearGradient
       id="linearGradient34"
       x1="7.9373002"
       x2="7.9373002"
       y1="15.081"
       y2="1.852"
       gradientTransform="scale(3.7796)"
       gradientUnits="userSpaceOnUse"
       spreadMethod="pad"><stop
         stop-color="#f1efeb"
         offset="0"
         id="stop33"
         style="stop-color:#000000;stop-opacity:1;" /><stop
         stop-color="#fdfcfc"
         offset="1"
         id="stop34" /></linearGradient><linearGradient
       id="linearGradient32"
       x1="7.9373002"
       x2="7.9373002"
       y1="15.081"
       y2="1.852"
       gradientTransform="scale(3.7796)"
       gradientUnits="userSpaceOnUse"
       spreadMethod="pad"><stop
         stop-color="#f1efeb"
         offset="0"
         id="stop31"
         style="stop-color:#000000;stop-opacity:1;" /><stop
         stop-color="#fdfcfc"
         offset="1"
         id="stop32" /></linearGradient><linearGradient
       id="linearGradient30"
       x1="7.9373002"
       x2="7.9373002"
       y1="15.081"
       y2="1.852"
       gradientTransform="scale(3.7796)"
       gradientUnits="userSpaceOnUse"
       spreadMethod="pad"><stop
         stop-color="#f1efeb"
         offset="0"
         id="stop29"
         style="stop-color:#000000;stop-opacity:1;" /><stop
         stop-color="#fdfcfc"
         offset="1"
         id="stop30" /></linearGradient><linearGradient
       id="linearGradient28"
       x1="7.9373002"
       x2="7.9373002"
       y1="15.081"
       y2="1.852"
       gradientTransform="scale(3.7796)"
       gradientUnits="userSpaceOnUse"
       spreadMethod="pad"><stop
         stop-color="#f1efeb"
         offset="0"
         id="stop27"
         style="stop-color:#000000;stop-opacity:1;" /><stop
         stop-color="#fdfcfc"
         offset="1"
         id="stop28" /></linearGradient><linearGradient
       id="linearGradient26"
       x1="7.9373002"
       x2="7.9373002"
       y1="15.081"
       y2="1.852"
       gradientTransform="scale(3.7796)"
       gradientUnits="userSpaceOnUse"
       spreadMethod="pad"><stop
         stop-color="#f1efeb"
         offset="0"
         id="stop25"
         style="stop-color:#000000;stop-opacity:1;" /><stop
         stop-color="#fdfcfc"
         offset="1"
         id="stop26" /></linearGradient><linearGradient
       id="linearGradient24"
       x1="7.9373002"
       x2="7.9373002"
       y1="15.081"
       y2="1.852"
       gradientTransform="scale(3.7796)"
       gradientUnits="userSpaceOnUse"
       spreadMethod="pad"><stop
         stop-color="#f1efeb"
         offset="0"
         id="stop23"
         style="stop-color:#000000;stop-opacity:1;" /><stop
         stop-color="#fdfcfc"
         offset="1"
         id="stop24" /></linearGradient><linearGradient
       id="linearGradient22"
       x1="7.9373002"
       x2="7.9373002"
       y1="15.081"
       y2="1.852"
       gradientTransform="scale(3.7796)"
       gradientUnits="userSpaceOnUse"
       spreadMethod="pad"><stop
         stop-color="#f1efeb"
         offset="0"
         id="stop21"
         style="stop-color:#040403;stop-opacity:1;" /><stop
         stop-color="#fdfcfc"
         offset="1"
         id="stop22" /></linearGradient><linearGradient
       id="linearGradient20"
       x1="7.9373002"
       x2="7.9373002"
       y1="15.081"
       y2="1.852"
       gradientTransform="scale(3.7796)"
       gradientUnits="userSpaceOnUse"
       spreadMethod="pad"><stop
         stop-color="#f1efeb"
         offset="0"
         id="stop19"
         style="stop-color:#1d1a15;stop-opacity:1;" /><stop
         stop-color="#fdfcfc"
         offset="1"
         id="stop20" /></linearGradient><linearGradient
       id="linearGradient18"
       x1="7.9373002"
       x2="7.9373002"
       y1="15.081"
       y2="1.852"
       gradientTransform="scale(3.7796)"
       gradientUnits="userSpaceOnUse"
       spreadMethod="pad"><stop
         stop-color="#f1efeb"
         offset="0"
         id="stop17"
         style="stop-color:#4b4435;stop-opacity:1;" /><stop
         stop-color="#fdfcfc"
         offset="1"
         id="stop18" /></linearGradient><linearGradient
       id="linearGradient16"
       x1="7.9373002"
       x2="7.9373002"
       y1="15.081"
       y2="1.852"
       gradientTransform="scale(3.7796)"
       gradientUnits="userSpaceOnUse"
       spreadMethod="pad"><stop
         stop-color="#f1efeb"
         offset="0"
         id="stop15"
         style="stop-color:#635945;stop-opacity:1;" /><stop
         stop-color="#fdfcfc"
         offset="1"
         id="stop16" /></linearGradient><linearGradient
       id="linearGradient14"
       x1="7.9373002"
       x2="7.9373002"
       y1="15.081"
       y2="1.852"
       gradientTransform="scale(3.7796)"
       gradientUnits="userSpaceOnUse"
       spreadMethod="pad"><stop
         stop-color="#f1efeb"
         offset="0"
         id="stop13"
         style="stop-color:#746851;stop-opacity:1;" /><stop
         stop-color="#fdfcfc"
         offset="1"
         id="stop14" /></linearGradient><linearGradient
       id="linearGradient12"
       x1="7.9373002"
       x2="7.9373002"
       y1="15.081"
       y2="1.852"
       gradientTransform="scale(3.7796)"
       gradientUnits="userSpaceOnUse"
       spreadMethod="pad"><stop
         stop-color="#f1efeb"
         offset="0"
         id="stop11"
         style="stop-color:#7d7057;stop-opacity:1;" /><stop
         stop-color="#fdfcfc"
         offset="1"
         id="stop12" /></linearGradient><linearGradient
       id="linearGradient10"
       x1="7.9373002"
       x2="7.9373002"
       y1="15.081"
       y2="1.852"
       gradientTransform="scale(3.7796)"
       gradientUnits="userSpaceOnUse"
       spreadMethod="pad"><stop
         stop-color="#f1efeb"
         offset="0"
         id="stop9"
         style="stop-color:#7f7259;stop-opacity:1;" /><stop
         stop-color="#fdfcfc"
         offset="1"
         id="stop10" /></linearGradient><linearGradient
       id="linearGradient8"
       x1="7.9373"
       x2="7.9373"
       y1="15.081"
       y2="1.852"
       gradientTransform="scale(3.7796)"
       gradientUnits="userSpaceOnUse"><stop
         stop-color="#f1efeb"
         offset="0"
         id="stop7"
         style="stop-color:#7f7259;stop-opacity:1;" /><stop
         stop-color="#fdfcfc"
         offset="1"
         id="stop8" /></linearGradient><linearGradient
       id="linearGradient862-3"
       x1="7.9373"
       x2="7.9373"
       y1="15.081"
       y2="1.852"
       gradientTransform="scale(3.7796)"
       gradientUnits="userSpaceOnUse"
       xlink:href="#linearGradient92"><stop
         stop-color="#f1efeb"
         offset="0"
         id="stop1" /><stop
         stop-color="#fdfcfc"
         offset="1"
         id="stop2" /></linearGradient><linearGradient
       id="d"
       x1="45"
       x2="60.076"
       y1="19"
       y2="3.924"
       gradientTransform="translate(0.01285182,-0.00112622)"
       gradientUnits="userSpaceOnUse"><stop
         offset="0"
         stop-color="#fff"
         id="stop5" /><stop
         offset="1"
         stop-color="#b3b3b3"
         id="stop6" /></linearGradient><linearGradient
       inkscape:collect="always"
       xlink:href="#linearGradient862-3"
       id="linearGradient5"
       gradientUnits="userSpaceOnUse"
       gradientTransform="matrix(3.7796,0,0,3.7796,-9.765e-4,0.0302735)"
       x1="7.9373"
       y1="15.081"
       x2="7.9373"
       y2="1.852" /><filter
       inkscape:collect="always"
       style="color-interpolation-filters:sRGB"
       id="filter95"
       x="-0.14695404"
       y="-0.14704597"
       width="1.2939081"
       height="1.2940919"><feGaussianBlur
         inkscape:collect="always"
         stdDeviation="1.5300537"
         id="feGaussianBlur95" /></filter><linearGradient
       id="c"
       x1="32"
       x2="32"
       y1="11"
       y2="53"
       gradientUnits="userSpaceOnUse"><stop
         stop-color="#f7bd39"
         offset="0"
         id="stop3" /><stop
         stop-color="#f9e657"
         offset="1"
         id="stop4" /></linearGradient><filter
       id="d-2"
       x="-0.059935206"
       y="-0.059935206"
       width="1.1198704"
       height="1.1198704"
       color-interpolation-filters="sRGB"><feGaussianBlur
         stdDeviation=".185"
         id="feGaussianBlur10" /></filter><linearGradient
       id="e"
       x1="8.467"
       x2="8.467"
       y1="284.82999"
       y2="292.23999"
       gradientUnits="userSpaceOnUse"><stop
         stop-color="#525252"
         offset="0"
         id="stop5-0" /><stop
         stop-color="#1f1f1f"
         offset="1"
         id="stop6-2" /></linearGradient><style
       id="current-color-scheme"
       type="text/css">.ColorScheme-Text { color:#363636; } .ColorScheme-Text { color:#363636; }</style><filter
       inkscape:collect="always"
       style="color-interpolation-filters:sRGB"
       id="filter94"
       x="-0.069119996"
       y="-0.069119991"
       width="1.13824"
       height="1.13824"><feGaussianBlur
         inkscape:collect="always"
         stdDeviation="1.6128562"
         id="feGaussianBlur94" /></filter><linearGradient
       id="b"
       x1="40"
       x2="46"
       y1="17"
       y2="11"
       gradientTransform="translate(-.02 -1)"
       gradientUnits="userSpaceOnUse"><stop
         stop-color="#fefefe"
         offset="0"
         id="stop1-3" /><stop
         stop-color="#e9e9e9"
         offset="1"
         id="stop2-6" /></linearGradient><linearGradient
       id="a"
       x1="21.039"
       x2="21.039"
       y1="2"
       y2="62"
       gradientTransform="translate(0 -1)"
       gradientUnits="userSpaceOnUse"><stop
         stop-color="#f55"
         offset="0"
         id="stop3-7" /><stop
         stop-color="#d40000"
         offset="1"
         id="stop4-5" /></linearGradient><filter
       id="c-3"
       x="-0.11999936"
       y="-0.12380295"
       width="1.2399987"
       height="1.3163853"><feOffset
         dy="2"
         in="SourceAlpha"
         result="shadowOffsetOuter1"
         id="feOffset4" /><feGaussianBlur
         in="shadowOffsetOuter1"
         result="shadowBlurOuter1"
         stdDeviation="1.5"
         id="feGaussianBlur4" /><feColorMatrix
         in="shadowBlurOuter1"
         values="0 0 0 0 0 0 0 0 0 0 0 0 0 0 0 0 0 0 0.2 0"
         id="feColorMatrix4" /></filter><path
       id="d-5"
       d="M47.096 38.496c-.966-1.047-2.818-1.53-5.475-1.53-1.45 0-2.98.161-4.428.403-.966-.886-1.772-1.933-2.577-2.98-.563-.804-1.127-1.61-1.61-2.495a26.41 26.41 0 0 0 1.45-7.086c0-2.174-.886-4.509-3.302-4.509-.805 0-1.61.484-2.013 1.208-1.047 1.771-.644 5.395 1.047 9.179-.564 1.69-1.208 3.381-1.933 5.233-.644 1.61-1.368 3.14-2.254 4.59-2.496.966-7.73 3.381-8.213 6.038-.16.806.081 1.61.725 2.094.564.483 1.369.805 2.174.724 3.14 0 6.28-4.347 8.454-8.132 1.208-.402 2.416-.805 3.704-1.127 1.369-.322 2.657-.644 3.865-.885 3.381 2.898 6.36 3.381 7.81 3.381 2.012 0 2.818-.886 3.06-1.61.321-.886.16-1.852-.484-2.496zm-2.174 1.53c-.08.563-.725.966-1.53.966-.241 0-.483 0-.724-.08-1.61-.403-3.14-1.208-4.429-2.255a21.682 21.682 0 0 1 3.221-.241c.725 0 1.45.08 2.174.16.724.162 1.53.484 1.288 1.45zM30.51 22.232c.161-.242.403-.403.725-.483.805 0 .966.885.966 1.69a20.535 20.535 0 0 1-.966 5.395c-1.37-3.462-1.208-5.797-.725-6.602zM35.02 37.69c-.886.16-1.771.402-2.657.644-.644.161-1.288.403-2.013.564.322-.725.644-1.45.966-2.094.403-.886.725-1.771 1.047-2.657.322.483.564.886.886 1.288.563.805 1.207 1.53 1.77 2.255zm-9.742 4.67c-2.013 3.22-4.026 5.314-5.153 5.314-.161 0-.403-.08-.483-.161-.242-.161-.323-.483-.242-.725.161-1.208 2.496-2.899 5.878-4.428z" /></defs><path
     id="path3-9-5"
     style="opacity:0.25;fill:#000000;fill-opacity:1;stroke-width:3.7796;filter:url(#filter94)"
     d="m 17.000911,3.999178 c -7.2030941,0 -13.0019531,5.798859 -13.0019531,13.001953 v 29.998047 c 0,7.203095 5.798859,13.001953 13.0019531,13.001953 h 29.998047 c 7.203095,0 13.001953,-5.798858 13.001953,-13.001953 V 28.971834 C 59.875685,28.638744 59.742748,28.328639 59.602473,28.038241 59.462199,27.747842 59.313467,27.478837 59.159114,27.227694 59.004761,26.97655 58.844153,26.7438 58.676692,26.528475 58.509232,26.31315 58.334805,26.113761 58.155208,25.930819 57.97561,25.747876 57.791284,25.580909 57.60052,25.426912 57.409756,25.272916 57.21359,25.133524 57.01263,25.005037 56.811669,24.87655 56.605628,24.759888 56.395442,24.653475 c 0.210186,0.106413 0.416227,0.223075 0.617188,0.351562 0.20096,0.128487 0.397126,0.267879 0.58789,0.421875 0.190764,0.153997 0.37509,0.320964 0.554688,0.503907 0.179597,0.182942 0.354024,0.382331 0.521484,0.597656 0.167461,0.215325 0.328069,0.448075 0.482422,0.699219 0.154353,0.251143 0.303085,0.520148 0.443359,0.810547 0.140275,0.290398 0.273212,0.600503 0.398438,0.933593 V 28.833162 C 59.751999,21.784441 43.371134,5.184382 35.799739,4.034334 c -0.264999,-0.02 -0.52811,-0.03516 -0.787109,-0.03516 0.249999,0.0625 0.487549,0.146241 0.714843,0.246094 0.227295,0.09985 0.444337,0.21582 0.650391,0.349609 0.206054,0.133789 0.401612,0.284913 0.587891,0.449219 0.186279,0.164307 0.363281,0.341797 0.53125,0.533203 0.167968,0.191406 0.327392,0.396241 0.478515,0.611328 0.151123,0.215088 0.293946,0.44043 0.429688,0.675782 C 38.269466,6.629061 38.126643,6.403719 37.97552,6.188631 37.824397,5.973543 37.664973,5.768709 37.497005,5.577303 37.329036,5.385897 37.152034,5.208406 36.965755,5.0441 36.779476,4.879793 36.583918,4.72867 36.377864,4.594881 36.17181,4.461092 35.954768,4.345125 35.727473,4.245272 35.500179,4.145418 35.262629,4.061678 35.01263,3.999178 Z m 22.728515,6.025391 c 0.177735,0.564452 0.337891,1.138672 0.486329,1.708984 0.296875,1.140624 0.546875,2.265627 0.796875,3.265625 -0.25,-0.999998 -0.500001,-2.125001 -0.796875,-3.265625 -0.148438,-0.570312 -0.308594,-1.144532 -0.486329,-1.708984 z M 52.97552,23.604647 c 0.483513,0.09518 0.959749,0.196737 1.423828,0.318359 -0.464079,-0.121622 -0.940315,-0.223178 -1.423828,-0.318359 z"
     inkscape:label="Shadow" /><path
     d="m 17.000976,3.9990235 c -7.2031005,0 -13.0019525,5.798852 -13.0019525,13.0019525 v 29.998047 c 0,7.203102 5.798852,13.001953 13.0019525,13.001953 h 29.998047 c 7.203102,0 13.001953,-5.798851 13.001953,-13.001953 V 28.971679 c -2.003622,-5.329445 -5.995573,-4.974479 -9.988281,-5.972656 -5.819994,-1.454999 -8.030001,-4.120004 -9,-7.999999 -0.999999,-3.999997 -2.000003,-10.0000015 -6,-11.0000005 z"
     style="fill:url(#linearGradient5);stroke-width:3.7796"
     id="path3-9" /><path
     d="m 33.300709,4.6539948 c 3.999996,0.999999 5.000001,7.0000042 6,11.0000002 0.969999,3.879996 3.180006,6.545001 9,8 3.992708,0.998177 7.984659,0.64321 9.988281,5.972656 V 29.487979 C 58.040078,22.439251 41.659221,5.8391998 34.087818,4.6891508 c -0.264999,-0.02 -0.528109,-0.03516 -0.787109,-0.03516 z"
     style="display:inline;opacity:0.25;fill:#000000;fill-opacity:1;filter:url(#filter95)"
     id="path5-6" /><g
     id="g1"
     transform="translate(-0.73707897,-3.8864395)"><use
       transform="matrix(0.99416,0,0,1.0052,0.188,-0.138)"
       width="100%"
       height="100%"
       filter="url(#c)"
       opacity="0.35"
       xlink:href="#d-5"
       id="use5"
       style="filter:url(#c-3)" /><use
       transform="matrix(0.99416,0,0,1.0052,0.188,-0.138)"
       width="100%"
       height="100%"
       fill="#ffffff"
       xlink:href="#d-5"
       id="use6"
       style="fill:#212121;fill-opacity:1" /></g><path
     d="m 35.012695,3.9990237 c 3.999996,0.999999 5.000001,7.0000043 6,11.0000003 0.969999,3.879996 3.180006,6.545001 9,8 3.992708,0.998177 7.984659,0.64321 9.988281,5.972656 V 28.833008 C 59.752064,21.78428 43.371207,5.1842286 35.799804,4.0341799 c -0.264999,-0.02 -0.528109,-0.035156 -0.787109,-0.035156 z"
     style="display:inline;fill:url(#d)"
     id="path5" /><title
     id="title1">Gnome Symbolic Icons</title><metadata
     id="metadata2"><rdf:RDF><cc:Work
         rdf:about=""><dc:title>Gnome Symbolic Icons</dc:title></cc:Work></rdf:RDF></metadata></svg>
