<?xml version="1.0" encoding="UTF-8"?>
<svg id="svg2" width="64" height="64" version="1.1" xmlns="http://www.w3.org/2000/svg" xmlns:xlink="http://www.w3.org/1999/xlink">
 <defs id="defs2">
  <linearGradient id="d" x1="45" x2="60.076" y1="19" y2="3.924" gradientTransform="translate(.013 -.001)" gradientUnits="userSpaceOnUse">
   <stop id="stop5" stop-color="#fff" offset="0"/>
   <stop id="stop6" stop-color="#b3b3b3" offset="1"/>
  </linearGradient>
  <linearGradient id="linearGradient5" x1="7.937" x2="7.937" y1="15.081" y2="1.852" gradientTransform="translate(-.001 .03) scale(3.7796)" gradientUnits="userSpaceOnUse">
   <stop id="stop1" stop-color="#f1efeb" offset="0"/>
   <stop id="stop2" stop-color="#fdfcfc" offset="1"/>
  </linearGradient>
  <filter id="filter95" x="-.147" y="-.147" width="1.294" height="1.294" color-interpolation-filters="sRGB">
   <feGaussianBlur id="feGaussianBlur95" stdDeviation="1.53"/>
  </filter>
  <filter id="filter94" x="-.069" y="-.069" width="1.138" height="1.138" color-interpolation-filters="sRGB">
   <feGaussianBlur id="feGaussianBlur94" stdDeviation="1.613"/>
  </filter>
  <style id="current-color-scheme" type="text/css">.ColorScheme-Text{color:#363636}</style>
 </defs>
 <path id="path3-9-5" d="M17.001 3.999A12.973 12.973 0 0 0 3.999 17.001v29.998a12.973 12.973 0 0 0 13.002 13.002h29.998a12.973 12.973 0 0 0 13.002-13.002V28.972a11.223 11.223 0 0 0-.398-.934 9.03 9.03 0 0 0-.444-.81 7.73 7.73 0 0 0-.482-.7 6.894 6.894 0 0 0-.522-.597 6.475 6.475 0 0 0-1.142-.926 7.086 7.086 0 0 0 .588.422 6.894 6.894 0 0 1 1.076 1.102c.167.215.328.447.482.699.155.25.303.52.444.81.14.29.273.6.398.934v-.139C59.752 21.784 43.371 5.184 35.8 4.034A10.5 10.5 0 0 0 35.013 4a4.557 4.557 0 0 1 1.953 1.045c.186.164.363.342.531.533a5.89 5.89 0 0 0-.531-.533A4.557 4.557 0 0 0 35.013 4zm22.728 6.025c.178.565.338 1.14.487 1.71.297 1.14.547 2.265.797 3.265-.25-1-.5-2.125-.797-3.266a35.341 35.341 0 0 0-.487-1.709zm13.247 13.58z" filter="url(#filter94)" opacity=".25" stroke-width="3.7796"/>
 <path id="path3-9" d="M17.001 3.999A12.973 12.973 0 0 0 3.999 17.001v29.998a12.973 12.973 0 0 0 13.002 13.002h29.998a12.973 12.973 0 0 0 13.002-13.002V28.972c-2.004-5.33-5.996-4.975-9.988-5.973-5.82-1.455-8.03-4.12-9-8-1-4-2-10-6-11z" fill="url(#linearGradient5)" stroke-width="3.7796"/>
 <path id="text1" d="M16.187 16.19v1.976h31.624v-1.977H16.187zm0 5.93v1.976h31.624v-1.977H16.187zm0 5.929v1.974h31.624V28.05H16.187zm10.747 5.928c-.483 0-1.083.259-1.8.779-.715.52-1.542 1.467-2.478 2.84-.241-1.373-.485-2.262-.734-2.668-.173-.287-.403-.432-.69-.432-.195 0-.492.11-.892.328-.595.317-1.294.816-2.094 1.494l.328.452a6.498 6.498 0 0 1 1.155-.827c.203-.12.36-.18.474-.18.151 0 .286.083.406.249.129.158.253.524.373 1.097l.465 2.116-1.402 2.07c-.24.355-.588.776-1.041 1.266-.317.347-.57.573-.758.68a.755.755 0 0 1-.35.1c-.158 0-.324-.112-.498-.339-.203-.257-.403-.385-.6-.385a.654.654 0 0 0-.497.238.76.76 0 0 0-.215.543c0 .256.11.475.328.657.219.188.494.283.826.283.476 0 .972-.194 1.492-.578.52-.385 1.255-1.248 2.205-2.59a49.7 49.7 0 0 1 .725-1.018c.407 2.194.848 3.793 1.322 4.795.483 1.01 1.053 1.743 1.71 2.196.662.46 1.355.689 2.08.689.655 0 1.192-.155 1.607-.465.423-.31.633-.648.633-1.017a.696.696 0 0 0-.17-.477.53.53 0 0 0-.397-.18c-.316 0-.546.194-.69.578-.218.588-.57.881-1.052.881-.34 0-.647-.108-.926-.328-.49-.384-.905-.934-1.244-1.65-.34-.717-.663-1.818-.973-3.303l-.724-3.38c.619-1.057 1.26-1.86 1.924-2.41a2.43 2.43 0 0 1 1.447-.556c.67-.045 1.081-.119 1.232-.224.211-.152.317-.345.317-.578a.704.704 0 0 0-.227-.532c-.15-.143-.349-.214-.597-.214zm5.066 0v1.976h15.81v-1.976H32zm0 5.93v1.976h15.81v-1.977H32zm0 5.929v1.977h15.81v-1.977H32z" fill="#212121" stroke-linecap="square" stroke-linejoin="round" stroke-width=".60322"/>
 <path id="path5-6" d="M33.3 4.654c4 1 5 7 6 11 .97 3.88 3.18 6.545 9 8 3.993.998 7.985.643 9.989 5.973v-.139c-.249-7.049-16.63-23.649-24.201-24.799a10.5 10.5 0 0 0-.787-.035z" filter="url(#filter95)" opacity=".25"/>
 <path id="path5" d="M35.013 3.999c4 1 5 7 6 11 .97 3.88 3.18 6.545 9 8 3.992.998 7.984.643 9.988 5.973v-.139C59.752 21.784 43.371 5.184 35.8 4.034A10.5 10.5 0 0 0 35.013 4z" fill="url(#d)"/>
</svg>
