<?xml version="1.0" encoding="UTF-8" standalone="no"?>
<svg
   width="64"
   height="64"
   version="1.1"
   id="svg2"
   sodipodi:docname="application-x-java.svg"
   inkscape:version="1.3.2 (091e20ef0f, 2023-11-25)"
   xmlns:inkscape="http://www.inkscape.org/namespaces/inkscape"
   xmlns:sodipodi="http://sodipodi.sourceforge.net/DTD/sodipodi-0.dtd"
   xmlns:xlink="http://www.w3.org/1999/xlink"
   xmlns="http://www.w3.org/2000/svg"
   xmlns:svg="http://www.w3.org/2000/svg">
  <sodipodi:namedview
     id="namedview2"
     pagecolor="#ffffff"
     bordercolor="#111111"
     borderopacity="1"
     inkscape:showpageshadow="0"
     inkscape:pageopacity="0"
     inkscape:pagecheckerboard="1"
     inkscape:deskcolor="#d1d1d1"
     inkscape:zoom="6.2734375"
     inkscape:cx="48.537983"
     inkscape:cy="51.566625"
     inkscape:window-width="1920"
     inkscape:window-height="1011"
     inkscape:window-x="0"
     inkscape:window-y="0"
     inkscape:window-maximized="1"
     inkscape:current-layer="svg2" />
  <defs
     id="defs2">
    <linearGradient
       id="linearGradient94"
       x1="7.9373002"
       x2="7.9373002"
       y1="15.081"
       y2="1.852"
       gradientTransform="scale(3.7796)"
       gradientUnits="userSpaceOnUse"
       spreadMethod="pad">
      <stop
         stop-color="#f1efeb"
         offset="0"
         id="stop93"
         style="stop-color:#000000;stop-opacity:1;" />
      <stop
         stop-color="#fdfcfc"
         offset="1"
         id="stop94" />
    </linearGradient>
    <linearGradient
       id="linearGradient92"
       x1="7.9373002"
       x2="7.9373002"
       y1="15.081"
       y2="1.852"
       gradientTransform="scale(3.7796)"
       gradientUnits="userSpaceOnUse"
       spreadMethod="pad">
      <stop
         stop-color="#f1efeb"
         offset="0"
         id="stop91"
         style="stop-color:#695e49;stop-opacity:1;" />
      <stop
         stop-color="#fdfcfc"
         offset="1"
         id="stop92" />
    </linearGradient>
    <linearGradient
       id="linearGradient90"
       x1="7.9373002"
       x2="7.9373002"
       y1="15.081"
       y2="1.852"
       gradientTransform="scale(3.7796)"
       gradientUnits="userSpaceOnUse"
       spreadMethod="pad">
      <stop
         stop-color="#f1efeb"
         offset="0"
         id="stop89"
         style="stop-color:#6a5f4a;stop-opacity:1;" />
      <stop
         stop-color="#fdfcfc"
         offset="1"
         id="stop90" />
    </linearGradient>
    <linearGradient
       id="linearGradient88"
       x1="7.9373002"
       x2="7.9373002"
       y1="15.081"
       y2="1.852"
       gradientTransform="scale(3.7796)"
       gradientUnits="userSpaceOnUse"
       spreadMethod="pad">
      <stop
         stop-color="#f1efeb"
         offset="0"
         id="stop87"
         style="stop-color:#70654e;stop-opacity:1;" />
      <stop
         stop-color="#fdfcfc"
         offset="1"
         id="stop88" />
    </linearGradient>
    <linearGradient
       id="linearGradient86"
       x1="7.9373002"
       x2="7.9373002"
       y1="15.081"
       y2="1.852"
       gradientTransform="scale(3.7796)"
       gradientUnits="userSpaceOnUse"
       spreadMethod="pad">
      <stop
         stop-color="#f1efeb"
         offset="0"
         id="stop85"
         style="stop-color:#948567;stop-opacity:1;" />
      <stop
         stop-color="#fdfcfc"
         offset="1"
         id="stop86" />
    </linearGradient>
    <linearGradient
       id="linearGradient84"
       x1="7.9373002"
       x2="7.9373002"
       y1="15.081"
       y2="1.852"
       gradientTransform="scale(3.7796)"
       gradientUnits="userSpaceOnUse"
       spreadMethod="pad">
      <stop
         stop-color="#f1efeb"
         offset="0"
         id="stop83"
         style="stop-color:#aca189;stop-opacity:1;" />
      <stop
         stop-color="#fdfcfc"
         offset="1"
         id="stop84" />
    </linearGradient>
    <linearGradient
       id="linearGradient82"
       x1="7.9373002"
       x2="7.9373002"
       y1="15.081"
       y2="1.852"
       gradientTransform="scale(3.7796)"
       gradientUnits="userSpaceOnUse"
       spreadMethod="pad">
      <stop
         stop-color="#f1efeb"
         offset="0"
         id="stop81"
         style="stop-color:#c1b9a7;stop-opacity:1;" />
      <stop
         stop-color="#fdfcfc"
         offset="1"
         id="stop82" />
    </linearGradient>
    <linearGradient
       id="linearGradient80"
       x1="7.9373002"
       x2="7.9373002"
       y1="15.081"
       y2="1.852"
       gradientTransform="scale(3.7796)"
       gradientUnits="userSpaceOnUse"
       spreadMethod="pad">
      <stop
         stop-color="#f1efeb"
         offset="0"
         id="stop79"
         style="stop-color:#d0c9bb;stop-opacity:1;" />
      <stop
         stop-color="#fdfcfc"
         offset="1"
         id="stop80" />
    </linearGradient>
    <linearGradient
       id="linearGradient78"
       x1="7.9373002"
       x2="7.9373002"
       y1="15.081"
       y2="1.852"
       gradientTransform="scale(3.7796)"
       gradientUnits="userSpaceOnUse"
       spreadMethod="pad">
      <stop
         stop-color="#f1efeb"
         offset="0"
         id="stop77"
         style="stop-color:#dcd7cd;stop-opacity:1;" />
      <stop
         stop-color="#fdfcfc"
         offset="1"
         id="stop78" />
    </linearGradient>
    <linearGradient
       id="linearGradient76"
       x1="7.9373002"
       x2="7.9373002"
       y1="15.081"
       y2="1.852"
       gradientTransform="scale(3.7796)"
       gradientUnits="userSpaceOnUse"
       spreadMethod="pad">
      <stop
         stop-color="#f1efeb"
         offset="0"
         id="stop75"
         style="stop-color:#e2ddd5;stop-opacity:1;" />
      <stop
         stop-color="#fdfcfc"
         offset="1"
         id="stop76" />
    </linearGradient>
    <linearGradient
       id="linearGradient74"
       x1="7.9373002"
       x2="7.9373002"
       y1="15.081"
       y2="1.852"
       gradientTransform="scale(3.7796)"
       gradientUnits="userSpaceOnUse"
       spreadMethod="pad">
      <stop
         stop-color="#f1efeb"
         offset="0"
         id="stop73"
         style="stop-color:#e2ded5;stop-opacity:1;" />
      <stop
         stop-color="#fdfcfc"
         offset="1"
         id="stop74" />
    </linearGradient>
    <linearGradient
       id="linearGradient72"
       x1="7.9373002"
       x2="7.9373002"
       y1="15.081"
       y2="1.852"
       gradientTransform="scale(3.7796)"
       gradientUnits="userSpaceOnUse"
       spreadMethod="pad">
      <stop
         stop-color="#f1efeb"
         offset="0"
         id="stop71"
         style="stop-color:#9a8b6e;stop-opacity:1;" />
      <stop
         stop-color="#fdfcfc"
         offset="1"
         id="stop72" />
    </linearGradient>
    <linearGradient
       id="linearGradient70"
       x1="7.9373002"
       x2="7.9373002"
       y1="15.081"
       y2="1.852"
       gradientTransform="scale(3.7796)"
       gradientUnits="userSpaceOnUse"
       spreadMethod="pad">
      <stop
         stop-color="#f1efeb"
         offset="0"
         id="stop69"
         style="stop-color:#756a52;stop-opacity:1;" />
      <stop
         stop-color="#fdfcfc"
         offset="1"
         id="stop70" />
    </linearGradient>
    <linearGradient
       id="linearGradient68"
       x1="7.9373002"
       x2="7.9373002"
       y1="15.081"
       y2="1.852"
       gradientTransform="scale(3.7796)"
       gradientUnits="userSpaceOnUse"
       spreadMethod="pad">
      <stop
         stop-color="#f1efeb"
         offset="0"
         id="stop67"
         style="stop-color:#574e3d;stop-opacity:1;" />
      <stop
         stop-color="#fdfcfc"
         offset="1"
         id="stop68" />
    </linearGradient>
    <linearGradient
       id="linearGradient66"
       x1="7.9373002"
       x2="7.9373002"
       y1="15.081"
       y2="1.852"
       gradientTransform="scale(3.7796)"
       gradientUnits="userSpaceOnUse"
       spreadMethod="pad">
      <stop
         stop-color="#f1efeb"
         offset="0"
         id="stop65"
         style="stop-color:#4d4536;stop-opacity:1;" />
      <stop
         stop-color="#fdfcfc"
         offset="1"
         id="stop66" />
    </linearGradient>
    <linearGradient
       id="linearGradient64"
       x1="7.9373002"
       x2="7.9373002"
       y1="15.081"
       y2="1.852"
       gradientTransform="scale(3.7796)"
       gradientUnits="userSpaceOnUse"
       spreadMethod="pad">
      <stop
         stop-color="#f1efeb"
         offset="0"
         id="stop63"
         style="stop-color:#4d4536;stop-opacity:1;" />
      <stop
         stop-color="#fdfcfc"
         offset="1"
         id="stop64" />
    </linearGradient>
    <linearGradient
       id="linearGradient62"
       x1="7.9373002"
       x2="7.9373002"
       y1="15.081"
       y2="1.852"
       gradientTransform="scale(3.7796)"
       gradientUnits="userSpaceOnUse"
       spreadMethod="pad">
      <stop
         stop-color="#f1efeb"
         offset="0"
         id="stop61"
         style="stop-color:#0c0b08;stop-opacity:1;" />
      <stop
         stop-color="#fdfcfc"
         offset="1"
         id="stop62" />
    </linearGradient>
    <linearGradient
       id="linearGradient60"
       x1="7.9373002"
       x2="7.9373002"
       y1="15.081"
       y2="1.852"
       gradientTransform="scale(3.7796)"
       gradientUnits="userSpaceOnUse"
       spreadMethod="pad">
      <stop
         stop-color="#f1efeb"
         offset="0"
         id="stop59"
         style="stop-color:#0b0a08;stop-opacity:1;" />
      <stop
         stop-color="#fdfcfc"
         offset="1"
         id="stop60" />
    </linearGradient>
    <linearGradient
       id="linearGradient58"
       x1="7.9373002"
       x2="7.9373002"
       y1="15.081"
       y2="1.852"
       gradientTransform="scale(3.7796)"
       gradientUnits="userSpaceOnUse"
       spreadMethod="pad">
      <stop
         stop-color="#f1efeb"
         offset="0"
         id="stop57"
         style="stop-color:#0b0a08;stop-opacity:1;" />
      <stop
         stop-color="#fdfcfc"
         offset="1"
         id="stop58" />
    </linearGradient>
    <linearGradient
       id="linearGradient56"
       x1="7.9373002"
       x2="7.9373002"
       y1="15.081"
       y2="1.852"
       gradientTransform="scale(3.7796)"
       gradientUnits="userSpaceOnUse"
       spreadMethod="pad">
      <stop
         stop-color="#f1efeb"
         offset="0"
         id="stop55"
         style="stop-color:#171410;stop-opacity:1;" />
      <stop
         stop-color="#fdfcfc"
         offset="1"
         id="stop56" />
    </linearGradient>
    <linearGradient
       id="linearGradient54"
       x1="7.9373002"
       x2="7.9373002"
       y1="15.081"
       y2="1.852"
       gradientTransform="scale(3.7796)"
       gradientUnits="userSpaceOnUse"
       spreadMethod="pad">
      <stop
         stop-color="#f1efeb"
         offset="0"
         id="stop53"
         style="stop-color:#2d281f;stop-opacity:1;" />
      <stop
         stop-color="#fdfcfc"
         offset="1"
         id="stop54" />
    </linearGradient>
    <linearGradient
       id="linearGradient52"
       x1="7.9373002"
       x2="7.9373002"
       y1="15.081"
       y2="1.852"
       gradientTransform="scale(3.7796)"
       gradientUnits="userSpaceOnUse"
       spreadMethod="pad">
      <stop
         stop-color="#f1efeb"
         offset="0"
         id="stop51"
         style="stop-color:#3a3428;stop-opacity:1;" />
      <stop
         stop-color="#fdfcfc"
         offset="1"
         id="stop52" />
    </linearGradient>
    <linearGradient
       id="linearGradient50"
       x1="7.9373002"
       x2="7.9373002"
       y1="15.081"
       y2="1.852"
       gradientTransform="scale(3.7796)"
       gradientUnits="userSpaceOnUse"
       spreadMethod="pad">
      <stop
         stop-color="#f1efeb"
         offset="0"
         id="stop49"
         style="stop-color:#473f31;stop-opacity:1;" />
      <stop
         stop-color="#fdfcfc"
         offset="1"
         id="stop50" />
    </linearGradient>
    <linearGradient
       id="linearGradient48"
       x1="7.9373002"
       x2="7.9373002"
       y1="15.081"
       y2="1.852"
       gradientTransform="scale(3.7796)"
       gradientUnits="userSpaceOnUse"
       spreadMethod="pad">
      <stop
         stop-color="#f1efeb"
         offset="0"
         id="stop47"
         style="stop-color:#4e4737;stop-opacity:1;" />
      <stop
         stop-color="#fdfcfc"
         offset="1"
         id="stop48" />
    </linearGradient>
    <linearGradient
       id="linearGradient46"
       x1="7.9373002"
       x2="7.9373002"
       y1="15.081"
       y2="1.852"
       gradientTransform="scale(3.7796)"
       gradientUnits="userSpaceOnUse"
       spreadMethod="pad">
      <stop
         stop-color="#f1efeb"
         offset="0"
         id="stop45"
         style="stop-color:#534b3a;stop-opacity:1;" />
      <stop
         stop-color="#fdfcfc"
         offset="1"
         id="stop46" />
    </linearGradient>
    <linearGradient
       id="linearGradient44"
       x1="7.9373002"
       x2="7.9373002"
       y1="15.081"
       y2="1.852"
       gradientTransform="scale(3.7796)"
       gradientUnits="userSpaceOnUse"
       spreadMethod="pad">
      <stop
         stop-color="#f1efeb"
         offset="0"
         id="stop43"
         style="stop-color:#544c3b;stop-opacity:1;" />
      <stop
         stop-color="#fdfcfc"
         offset="1"
         id="stop44" />
    </linearGradient>
    <linearGradient
       id="linearGradient42"
       x1="7.9373002"
       x2="7.9373002"
       y1="15.081"
       y2="1.852"
       gradientTransform="scale(3.7796)"
       gradientUnits="userSpaceOnUse"
       spreadMethod="pad">
      <stop
         stop-color="#f1efeb"
         offset="0"
         id="stop41"
         style="stop-color:#554c3b;stop-opacity:1;" />
      <stop
         stop-color="#fdfcfc"
         offset="1"
         id="stop42" />
    </linearGradient>
    <linearGradient
       id="linearGradient40"
       x1="7.9373002"
       x2="7.9373002"
       y1="15.081"
       y2="1.852"
       gradientTransform="scale(3.7796)"
       gradientUnits="userSpaceOnUse"
       spreadMethod="pad">
      <stop
         stop-color="#f1efeb"
         offset="0"
         id="stop39"
         style="stop-color:#564d3c;stop-opacity:1;" />
      <stop
         stop-color="#fdfcfc"
         offset="1"
         id="stop40" />
    </linearGradient>
    <linearGradient
       id="linearGradient38"
       x1="7.9373002"
       x2="7.9373002"
       y1="15.081"
       y2="1.852"
       gradientTransform="scale(3.7796)"
       gradientUnits="userSpaceOnUse"
       spreadMethod="pad">
      <stop
         stop-color="#f1efeb"
         offset="0"
         id="stop37"
         style="stop-color:#000000;stop-opacity:1;" />
      <stop
         stop-color="#fdfcfc"
         offset="1"
         id="stop38" />
    </linearGradient>
    <linearGradient
       id="linearGradient36"
       x1="7.9373002"
       x2="7.9373002"
       y1="15.081"
       y2="1.852"
       gradientTransform="scale(3.7796)"
       gradientUnits="userSpaceOnUse"
       spreadMethod="pad">
      <stop
         stop-color="#f1efeb"
         offset="0"
         id="stop35"
         style="stop-color:#000000;stop-opacity:1;" />
      <stop
         stop-color="#fdfcfc"
         offset="1"
         id="stop36" />
    </linearGradient>
    <linearGradient
       id="linearGradient34"
       x1="7.9373002"
       x2="7.9373002"
       y1="15.081"
       y2="1.852"
       gradientTransform="scale(3.7796)"
       gradientUnits="userSpaceOnUse"
       spreadMethod="pad">
      <stop
         stop-color="#f1efeb"
         offset="0"
         id="stop33"
         style="stop-color:#000000;stop-opacity:1;" />
      <stop
         stop-color="#fdfcfc"
         offset="1"
         id="stop34" />
    </linearGradient>
    <linearGradient
       id="linearGradient32"
       x1="7.9373002"
       x2="7.9373002"
       y1="15.081"
       y2="1.852"
       gradientTransform="scale(3.7796)"
       gradientUnits="userSpaceOnUse"
       spreadMethod="pad">
      <stop
         stop-color="#f1efeb"
         offset="0"
         id="stop31"
         style="stop-color:#000000;stop-opacity:1;" />
      <stop
         stop-color="#fdfcfc"
         offset="1"
         id="stop32" />
    </linearGradient>
    <linearGradient
       id="linearGradient30"
       x1="7.9373002"
       x2="7.9373002"
       y1="15.081"
       y2="1.852"
       gradientTransform="scale(3.7796)"
       gradientUnits="userSpaceOnUse"
       spreadMethod="pad">
      <stop
         stop-color="#f1efeb"
         offset="0"
         id="stop29"
         style="stop-color:#000000;stop-opacity:1;" />
      <stop
         stop-color="#fdfcfc"
         offset="1"
         id="stop30" />
    </linearGradient>
    <linearGradient
       id="linearGradient28"
       x1="7.9373002"
       x2="7.9373002"
       y1="15.081"
       y2="1.852"
       gradientTransform="scale(3.7796)"
       gradientUnits="userSpaceOnUse"
       spreadMethod="pad">
      <stop
         stop-color="#f1efeb"
         offset="0"
         id="stop27"
         style="stop-color:#000000;stop-opacity:1;" />
      <stop
         stop-color="#fdfcfc"
         offset="1"
         id="stop28" />
    </linearGradient>
    <linearGradient
       id="linearGradient26"
       x1="7.9373002"
       x2="7.9373002"
       y1="15.081"
       y2="1.852"
       gradientTransform="scale(3.7796)"
       gradientUnits="userSpaceOnUse"
       spreadMethod="pad">
      <stop
         stop-color="#f1efeb"
         offset="0"
         id="stop25"
         style="stop-color:#000000;stop-opacity:1;" />
      <stop
         stop-color="#fdfcfc"
         offset="1"
         id="stop26" />
    </linearGradient>
    <linearGradient
       id="linearGradient24"
       x1="7.9373002"
       x2="7.9373002"
       y1="15.081"
       y2="1.852"
       gradientTransform="scale(3.7796)"
       gradientUnits="userSpaceOnUse"
       spreadMethod="pad">
      <stop
         stop-color="#f1efeb"
         offset="0"
         id="stop23"
         style="stop-color:#000000;stop-opacity:1;" />
      <stop
         stop-color="#fdfcfc"
         offset="1"
         id="stop24" />
    </linearGradient>
    <linearGradient
       id="linearGradient22"
       x1="7.9373002"
       x2="7.9373002"
       y1="15.081"
       y2="1.852"
       gradientTransform="scale(3.7796)"
       gradientUnits="userSpaceOnUse"
       spreadMethod="pad">
      <stop
         stop-color="#f1efeb"
         offset="0"
         id="stop21"
         style="stop-color:#040403;stop-opacity:1;" />
      <stop
         stop-color="#fdfcfc"
         offset="1"
         id="stop22" />
    </linearGradient>
    <linearGradient
       id="linearGradient20"
       x1="7.9373002"
       x2="7.9373002"
       y1="15.081"
       y2="1.852"
       gradientTransform="scale(3.7796)"
       gradientUnits="userSpaceOnUse"
       spreadMethod="pad">
      <stop
         stop-color="#f1efeb"
         offset="0"
         id="stop19"
         style="stop-color:#1d1a15;stop-opacity:1;" />
      <stop
         stop-color="#fdfcfc"
         offset="1"
         id="stop20" />
    </linearGradient>
    <linearGradient
       id="linearGradient18"
       x1="7.9373002"
       x2="7.9373002"
       y1="15.081"
       y2="1.852"
       gradientTransform="scale(3.7796)"
       gradientUnits="userSpaceOnUse"
       spreadMethod="pad">
      <stop
         stop-color="#f1efeb"
         offset="0"
         id="stop17"
         style="stop-color:#4b4435;stop-opacity:1;" />
      <stop
         stop-color="#fdfcfc"
         offset="1"
         id="stop18" />
    </linearGradient>
    <linearGradient
       id="linearGradient16"
       x1="7.9373002"
       x2="7.9373002"
       y1="15.081"
       y2="1.852"
       gradientTransform="scale(3.7796)"
       gradientUnits="userSpaceOnUse"
       spreadMethod="pad">
      <stop
         stop-color="#f1efeb"
         offset="0"
         id="stop15"
         style="stop-color:#635945;stop-opacity:1;" />
      <stop
         stop-color="#fdfcfc"
         offset="1"
         id="stop16" />
    </linearGradient>
    <linearGradient
       id="linearGradient14"
       x1="7.9373002"
       x2="7.9373002"
       y1="15.081"
       y2="1.852"
       gradientTransform="scale(3.7796)"
       gradientUnits="userSpaceOnUse"
       spreadMethod="pad">
      <stop
         stop-color="#f1efeb"
         offset="0"
         id="stop13"
         style="stop-color:#746851;stop-opacity:1;" />
      <stop
         stop-color="#fdfcfc"
         offset="1"
         id="stop14" />
    </linearGradient>
    <linearGradient
       id="linearGradient12"
       x1="7.9373002"
       x2="7.9373002"
       y1="15.081"
       y2="1.852"
       gradientTransform="scale(3.7796)"
       gradientUnits="userSpaceOnUse"
       spreadMethod="pad">
      <stop
         stop-color="#f1efeb"
         offset="0"
         id="stop11"
         style="stop-color:#7d7057;stop-opacity:1;" />
      <stop
         stop-color="#fdfcfc"
         offset="1"
         id="stop12" />
    </linearGradient>
    <linearGradient
       id="linearGradient10"
       x1="7.9373002"
       x2="7.9373002"
       y1="15.081"
       y2="1.852"
       gradientTransform="scale(3.7796)"
       gradientUnits="userSpaceOnUse"
       spreadMethod="pad">
      <stop
         stop-color="#f1efeb"
         offset="0"
         id="stop9"
         style="stop-color:#7f7259;stop-opacity:1;" />
      <stop
         stop-color="#fdfcfc"
         offset="1"
         id="stop10" />
    </linearGradient>
    <linearGradient
       id="linearGradient8"
       x1="7.9373"
       x2="7.9373"
       y1="15.081"
       y2="1.852"
       gradientTransform="scale(3.7796)"
       gradientUnits="userSpaceOnUse">
      <stop
         stop-color="#f1efeb"
         offset="0"
         id="stop7"
         style="stop-color:#7f7259;stop-opacity:1;" />
      <stop
         stop-color="#fdfcfc"
         offset="1"
         id="stop8" />
    </linearGradient>
    <linearGradient
       id="linearGradient862-3"
       x1="7.9373"
       x2="7.9373"
       y1="15.081"
       y2="1.852"
       gradientTransform="scale(3.7796)"
       gradientUnits="userSpaceOnUse"
       xlink:href="#linearGradient92">
      <stop
         stop-color="#f1efeb"
         offset="0"
         id="stop1" />
      <stop
         stop-color="#fdfcfc"
         offset="1"
         id="stop2" />
    </linearGradient>
    <linearGradient
       id="d"
       x1="45"
       x2="60.076"
       y1="19"
       y2="3.924"
       gradientTransform="translate(0.01285182,-0.00112622)"
       gradientUnits="userSpaceOnUse">
      <stop
         offset="0"
         stop-color="#fff"
         id="stop5" />
      <stop
         offset="1"
         stop-color="#b3b3b3"
         id="stop6" />
    </linearGradient>
    <linearGradient
       inkscape:collect="always"
       xlink:href="#linearGradient862-3"
       id="linearGradient5"
       gradientUnits="userSpaceOnUse"
       gradientTransform="matrix(3.7796,0,0,3.7796,-9.765e-4,0.0302735)"
       x1="7.9373"
       y1="15.081"
       x2="7.9373"
       y2="1.852" />
    <filter
       inkscape:collect="always"
       style="color-interpolation-filters:sRGB"
       id="filter95"
       x="-0.14695404"
       y="-0.14704597"
       width="1.2939081"
       height="1.2940919">
      <feGaussianBlur
         inkscape:collect="always"
         stdDeviation="1.5300537"
         id="feGaussianBlur95" />
    </filter>
    <linearGradient
       id="c"
       x1="32"
       x2="32"
       y1="11"
       y2="53"
       gradientUnits="userSpaceOnUse">
      <stop
         stop-color="#f7bd39"
         offset="0"
         id="stop3" />
      <stop
         stop-color="#f9e657"
         offset="1"
         id="stop4" />
    </linearGradient>
    <filter
       id="d-2"
       x="-0.059935206"
       y="-0.059935206"
       width="1.1198704"
       height="1.1198704"
       color-interpolation-filters="sRGB">
      <feGaussianBlur
         stdDeviation=".185"
         id="feGaussianBlur10" />
    </filter>
    <linearGradient
       id="e"
       x1="8.467"
       x2="8.467"
       y1="284.82999"
       y2="292.23999"
       gradientUnits="userSpaceOnUse">
      <stop
         stop-color="#525252"
         offset="0"
         id="stop5-0" />
      <stop
         stop-color="#1f1f1f"
         offset="1"
         id="stop6-2" />
    </linearGradient>
    <filter
       inkscape:collect="always"
       style="color-interpolation-filters:sRGB"
       id="filter94"
       x="-0.069119996"
       y="-0.069119996"
       width="1.13824"
       height="1.13824">
      <feGaussianBlur
         inkscape:collect="always"
         stdDeviation="1.6128562"
         id="feGaussianBlur94" />
    </filter>
    <style
       id="current-color-scheme"
       type="text/css">
   .ColorScheme-Text { color:#363636; }
  </style>
    <style
       id="current-color-scheme-4"
       type="text/css">.ColorScheme-Text { color:#363636; } .ColorScheme-Text { color:#363636; }</style>
    <style
       id="current-color-scheme-1"
       type="text/css">.ColorScheme-Text { color:#363636; } .ColorScheme-Text { color:#363636; }</style>
    <filter
       inkscape:collect="always"
       style="color-interpolation-filters:sRGB"
       id="filter1"
       x="-0.17315019"
       y="-0.12771214"
       width="1.3463004"
       height="1.2554243">
      <feGaussianBlur
         inkscape:collect="always"
         stdDeviation="2.2375095"
         id="feGaussianBlur1" />
    </filter>
  </defs>
  <path
     id="path3-9-5"
     style="fill:#000000;fill-opacity:1;stroke-width:3.7796;filter:url(#filter94);opacity:0.25"
     d="m 17.000976,3.999023 c -7.203094,0 -13.001953,5.798859 -13.001953,13.001953 v 29.998047 c 0,7.203095 5.798859,13.001953 13.001953,13.001953 h 29.998047 c 7.203095,0 13.001953,-5.798858 13.001953,-13.001953 V 28.971679 c -0.125226,-0.33309 -0.258163,-0.643195 -0.398438,-0.933593 -0.140274,-0.290399 -0.289006,-0.559404 -0.443359,-0.810547 -0.154353,-0.251144 -0.314961,-0.483894 -0.482422,-0.699219 -0.16746,-0.215325 -0.341887,-0.414714 -0.521484,-0.597656 -0.179598,-0.182943 -0.363924,-0.34991 -0.554688,-0.503907 -0.190764,-0.153996 -0.38693,-0.293388 -0.58789,-0.421875 -0.200961,-0.128487 -0.407002,-0.245149 -0.617188,-0.351562 0.210186,0.106413 0.416227,0.223075 0.617188,0.351562 0.20096,0.128487 0.397126,0.267879 0.58789,0.421875 0.190764,0.153997 0.37509,0.320964 0.554688,0.503907 0.179597,0.182942 0.354024,0.382331 0.521484,0.597656 0.167461,0.215325 0.328069,0.448075 0.482422,0.699219 0.154353,0.251143 0.303085,0.520148 0.443359,0.810547 0.140275,0.290398 0.273212,0.600503 0.398438,0.933593 V 28.833007 C 59.752064,21.784286 43.371199,5.1842268 35.799804,4.0341792 c -0.264999,-0.02 -0.52811,-0.035156 -0.787109,-0.035156 0.249999,0.0625 0.487549,0.1462404 0.714843,0.2460938 0.227295,0.099853 0.444337,0.2158204 0.650391,0.3496093 0.206054,0.133789 0.401612,0.2849123 0.587891,0.4492188 0.186279,0.1643065 0.363281,0.341797 0.53125,0.5332031 0.167968,0.1914061 0.327392,0.3962404 0.478515,0.6113281 0.151123,0.2150878 0.293946,0.4404299 0.429688,0.6757813 C 38.269531,6.6289059 38.126708,6.4035639 37.975585,6.1884761 37.824462,5.9733883 37.665038,5.7685541 37.49707,5.577148 37.329101,5.3857419 37.152099,5.2082514 36.96582,5.0439449 36.779541,4.8796383 36.583983,4.7285151 36.377929,4.5947261 36.171875,4.4609372 35.954833,4.3449702 35.727538,4.2451168 35.500244,4.1452633 35.262694,4.0615229 35.012695,3.999023 Z m 22.728515,6.025391 c 0.177735,0.564452 0.337891,1.138672 0.486329,1.708984 0.296875,1.140624 0.546875,2.265627 0.796875,3.265625 -0.25,-0.999998 -0.500001,-2.125001 -0.796875,-3.265625 -0.148438,-0.570312 -0.308594,-1.144532 -0.486329,-1.708984 z m 13.246094,13.580078 c 0.483513,0.09518 0.959749,0.196737 1.423828,0.318359 -0.464079,-0.121622 -0.940315,-0.223178 -1.423828,-0.318359 z"
     inkscape:label="Shadow" />
  <path
     d="m 17.000976,3.9990235 c -7.2031005,0 -13.0019525,5.798852 -13.0019525,13.0019525 v 29.998047 c 0,7.203102 5.798852,13.001953 13.0019525,13.001953 h 29.998047 c 7.203102,0 13.001953,-5.798851 13.001953,-13.001953 V 28.971679 c -2.003622,-5.329445 -5.995573,-4.974479 -9.988281,-5.972656 -5.819994,-1.454999 -8.030001,-4.120004 -9,-7.999999 -0.999999,-3.999997 -2.000003,-10.0000015 -6,-11.0000005 z"
     style="display:inline;fill:url(#linearGradient5);stroke-width:3.7796"
     id="path3-9"
     inkscape:label="Sheet" />
  <rect
     style="display:none;opacity:0.25;fill:none;fill-opacity:1;stroke:#ff00ee;stroke-width:0.1;stroke-linecap:square;stroke-linejoin:round;stroke-dasharray:none;stroke-opacity:1"
     id="rect1"
     width="31.62265"
     height="31.622654"
     x="16.188675"
     y="16.188673" />
  <path
     d="m 36.202613,10.976067 c 1.763968,6.939329 -6.213613,9.037021 -9.089992,13.364832 -1.959963,2.945242 0.96409,6.10767 4.947584,9.704468 -1.55208,-3.512044 -6.822792,-6.589715 0,-11.976967 8.512598,-6.722145 4.147706,-11.092333 4.147706,-11.092333 z m 5.270713,8.592056 c 0,0 -14.392488,3.5915 -7.522022,11.510812 2.034125,2.336065 -0.52972,4.439053 -0.52972,4.439053 0,0 5.148877,-2.659193 2.786327,-5.985834 -2.208932,-3.109456 -3.904036,-4.650941 5.265415,-9.969328 z m 2.547953,14.143521 a 4.8522338,4.8522338 0 0 0 -1.58916,0.286048 c -0.444964,0.158916 -0.678041,0.519125 -0.678041,0.519125 0,0 0.280751,-0.111239 0.900524,-0.243671 2.547952,-0.52972 6.197722,3.411396 -1.695104,7.511428 -0.03179,0.09535 -0.158916,0.206591 -0.158916,0.206591 9.386637,-2.468495 7.341917,-8.284819 3.220697,-8.274225 z M 27.123216,34.11423 a 14.826859,14.826859 0 0 0 -6.489069,1.567972 c -4.311919,2.087096 10.679153,3.040591 18.434251,1.001169 0.810471,-0.550908 1.922883,-1.032953 1.922883,-1.032953 0,0 -3.173022,0.5668 -6.33545,0.836957 -3.866954,0.317832 -8.025254,0.386696 -10.107054,0.105941 -4.936989,-0.656853 2.701571,-2.473791 2.701571,-2.473791 h -0.13243 z m -1.64743,4.778073 c -7.119434,2.362551 3.962306,5.042933 13.910444,2.129474 a 4.9687723,4.9687723 0 0 1 -1.726886,-1.054142 c -4.862829,0.937604 -7.675641,0.90582 -11.230061,0.540314 C 23.67474,40.2219 25.475786,38.892303 25.475786,38.892303 Z m 1.006469,4.597969 c -6.462583,1.806344 3.930522,5.54087 12.162368,2.012936 -1.345489,-0.524424 -2.314876,-1.128305 -2.314876,-1.128305 -3.670958,0.693933 -5.371359,0.746905 -8.703297,0.370805 -2.754543,-0.317833 -1.144195,-1.255436 -1.144195,-1.255436 z m -4.492025,3.056483 c -2.902865,0.08475 -8.581461,2.701571 -3.390207,3.538528 16.781525,2.722761 30.591321,-1.223652 26.242321,-3.188913 0,0 1.186573,0.979982 -1.313704,1.737481 -4.746291,1.440838 -19.774442,1.875209 -23.943338,0.05828 -1.499107,-0.651555 1.313705,-1.557376 2.198338,-1.748076 0.921713,-0.201292 1.446135,-0.158916 1.446135,-0.158916 -0.259563,-0.185402 -0.704528,-0.259562 -1.239545,-0.238374 z m 25.516605,2.489683 c 0,0 -0.529719,1.361381 -6.261289,2.436712 -6.462581,1.218356 -14.434865,1.075331 -19.159966,0.296643 0,0 0.969387,0.799877 5.943457,1.123005 7.574993,0.482046 19.202345,-0.270156 19.477798,-3.851062 z"
     clip-rule="evenodd"
     fill="#ffffff"
     fill-rule="evenodd"
     id="path6"
     style="display:none;opacity:0.25;fill:#000000;fill-opacity:1;stroke-width:5.2972;filter:url(#filter1)" />
  <path
     d="m 36.202613,10.976067 c 1.763968,6.939329 -6.213613,9.037021 -9.089992,13.364832 -1.959963,2.945242 0.96409,6.10767 4.947584,9.704468 -1.55208,-3.512044 -6.822792,-6.589715 0,-11.976967 8.512598,-6.722145 4.147706,-11.092333 4.147706,-11.092333 z m 5.270713,8.592056 c 0,0 -14.392488,3.5915 -7.522022,11.510812 2.034125,2.336065 -0.52972,4.439053 -0.52972,4.439053 0,0 5.148877,-2.659193 2.786327,-5.985834 -2.208932,-3.109456 -3.904036,-4.650941 5.265415,-9.969328 z m 2.547953,14.143521 a 4.8522338,4.8522338 0 0 0 -1.58916,0.286048 c -0.444964,0.158916 -0.678041,0.519125 -0.678041,0.519125 0,0 0.280751,-0.111239 0.900524,-0.243671 2.547952,-0.52972 6.197722,3.411396 -1.695104,7.511428 -0.03179,0.09535 -0.158916,0.206591 -0.158916,0.206591 9.386637,-2.468495 7.341917,-8.284819 3.220697,-8.274225 z M 27.123216,34.11423 a 14.826859,14.826859 0 0 0 -6.489069,1.567972 c -4.311919,2.087096 10.679153,3.040591 18.434251,1.001169 0.810471,-0.550908 1.922883,-1.032953 1.922883,-1.032953 0,0 -3.173022,0.5668 -6.33545,0.836957 -3.866954,0.317832 -8.025254,0.386696 -10.107054,0.105941 -4.936989,-0.656853 2.701571,-2.473791 2.701571,-2.473791 h -0.13243 z m -1.64743,4.778073 c -7.119434,2.362551 3.962306,5.042933 13.910444,2.129474 a 4.9687723,4.9687723 0 0 1 -1.726886,-1.054142 c -4.862829,0.937604 -7.675641,0.90582 -11.230061,0.540314 C 23.67474,40.2219 25.475786,38.892303 25.475786,38.892303 Z m 1.006469,4.597969 c -6.462583,1.806344 3.930522,5.54087 12.162368,2.012936 -1.345489,-0.524424 -2.314876,-1.128305 -2.314876,-1.128305 -3.670958,0.693933 -5.371359,0.746905 -8.703297,0.370805 -2.754543,-0.317833 -1.144195,-1.255436 -1.144195,-1.255436 z m -4.492025,3.056483 c -2.902865,0.08475 -8.581461,2.701571 -3.390207,3.538528 16.781525,2.722761 30.591321,-1.223652 26.242321,-3.188913 0,0 1.186573,0.979982 -1.313704,1.737481 -4.746291,1.440838 -19.774442,1.875209 -23.943338,0.05828 -1.499107,-0.651555 1.313705,-1.557376 2.198338,-1.748076 0.921713,-0.201292 1.446135,-0.158916 1.446135,-0.158916 -0.259563,-0.185402 -0.704528,-0.259562 -1.239545,-0.238374 z m 25.516605,2.489683 c 0,0 -0.529719,1.361381 -6.261289,2.436712 -6.462581,1.218356 -14.434865,1.075331 -19.159966,0.296643 0,0 0.969387,0.799877 5.943457,1.123005 7.574993,0.482046 19.202345,-0.270156 19.477798,-3.851062 z"
     clip-rule="evenodd"
     fill="#ffffff"
     fill-rule="evenodd"
     id="path6-0"
     style="fill:#212121;fill-opacity:1;stroke-width:5.2972" />
  <path
     d="m 33.300709,4.6539948 c 3.999996,0.999999 5.000001,7.0000042 6,11.0000002 0.969999,3.879996 3.180006,6.545001 9,8 3.992708,0.998177 7.984659,0.64321 9.988281,5.972656 V 29.487979 C 58.040078,22.439251 41.659221,5.8391998 34.087818,4.6891508 c -0.264999,-0.02 -0.528109,-0.03516 -0.787109,-0.03516 z"
     style="display:inline;opacity:0.25;fill:#000000;fill-opacity:1;filter:url(#filter95)"
     id="path5-6"
     inkscape:label="Cornershadow" />
  <path
     d="m 35.012695,3.9990237 c 3.999996,0.999999 5.000001,7.0000043 6,11.0000003 0.969999,3.879996 3.180006,6.545001 9,8 3.992708,0.998177 7.984659,0.64321 9.988281,5.972656 V 28.833008 C 59.752064,21.78428 43.371207,5.1842286 35.799804,4.0341799 c -0.264999,-0.02 -0.528109,-0.035156 -0.787109,-0.035156 z"
     style="display:inline;fill:url(#d)"
     id="path5"
     inkscape:label="Corner" />
</svg>
