<?xml version="1.0" encoding="UTF-8"?>
<svg id="svg2" width="64" height="64" version="1.1" xmlns="http://www.w3.org/2000/svg" xmlns:xlink="http://www.w3.org/1999/xlink">
 <defs id="defs2">
  <linearGradient id="d" x1="45" x2="60.076" y1="19" y2="3.924" gradientTransform="translate(.013 -.001)" gradientUnits="userSpaceOnUse">
   <stop id="stop5" stop-color="#fff" offset="0"/>
   <stop id="stop6" stop-color="#b3b3b3" offset="1"/>
  </linearGradient>
  <linearGradient id="linearGradient5" x1="7.937" x2="7.937" y1="15.081" y2="1.852" gradientTransform="translate(-.001 .03) scale(3.7796)" gradientUnits="userSpaceOnUse">
   <stop id="stop1" stop-color="#f1efeb" offset="0"/>
   <stop id="stop2" stop-color="#fdfcfc" offset="1"/>
  </linearGradient>
  <filter id="filter95" x="-.147" y="-.147" width="1.294" height="1.294" color-interpolation-filters="sRGB">
   <feGaussianBlur id="feGaussianBlur95" stdDeviation="1.53"/>
  </filter>
  <filter id="filter94" x="-.069" y="-.069" width="1.138" height="1.138" color-interpolation-filters="sRGB">
   <feGaussianBlur id="feGaussianBlur94" stdDeviation="1.613"/>
  </filter>
  <style id="current-color-scheme" type="text/css">.ColorScheme-Text{color:#363636}</style>
 </defs>
 <path id="path3-9-5" d="M17 4A12.973 12.973 0 0 0 4 17v30a12.973 12.973 0 0 0 13.002 13.002H47A12.973 12.973 0 0 0 60.001 47V28.972a11.223 11.223 0 0 0-.399-.934c-.14-.29-.289-.56-.443-.81a7.73 7.73 0 0 0-.482-.7 6.894 6.894 0 0 0-.522-.597 6.475 6.475 0 0 0-1.142-.926 7.086 7.086 0 0 0 .588.422 6.894 6.894 0 0 1 1.076 1.102c.167.215.328.448.482.699.154.25.303.52.443.81.14.29.274.6.399.934v-.139C59.752 21.784 43.37 5.184 35.8 4.034A10.5 10.5 0 0 0 35.013 4a4.557 4.557 0 0 1 1.953 1.045c.186.164.363.342.531.533a5.89 5.89 0 0 0-.531-.533A4.557 4.557 0 0 0 35.013 4Zm22.73 6.025c.177.564.337 1.138.486 1.709.297 1.14.547 2.265.797 3.265-.25-1-.5-2.125-.797-3.265a35.341 35.341 0 0 0-.487-1.71zm13.246 13.58z" filter="url(#filter94)" opacity=".25" stroke-width="3.7796"/>
 <path id="path3-9" d="M17.001 3.999A12.973 12.973 0 0 0 3.999 17.001v29.998a12.973 12.973 0 0 0 13.002 13.002h29.998a12.973 12.973 0 0 0 13.002-13.002V28.972c-2.004-5.33-5.996-4.975-9.988-5.973-5.82-1.455-8.03-4.12-9-8-1-4-2-10-6-11z" fill="url(#linearGradient5)" stroke-width="3.7796"/>
 <path id="path1-1" d="M32 26.07A5.93 5.93 0 0 0 26.07 32 5.93 5.93 0 0 0 32 37.93 5.93 5.93 0 0 0 37.93 32 5.93 5.93 0 0 0 32 26.07zm0 1.977A3.953 3.953 0 0 1 35.953 32 3.953 3.953 0 0 1 32 35.953 3.953 3.953 0 0 1 28.047 32 3.953 3.953 0 0 1 32 28.047z" fill="#212121" stroke-width="1.9764" style="paint-order:fill markers stroke"/>
 <path id="path2-4" d="M30.853 16.189c-.44 0-1.058.122-1.57.552-.513.43-.759 1.063-.819 1.517l.039-.2-.676 2.81c-.275.1-.535.21-.795.328l-2.448-1.498a1.977 1.977 0 0 0-.015-.008c-.353-.212-.937-.432-1.567-.355-.63.077-1.097.405-1.367.652a1.977 1.977 0 0 0-.05.047l-1.621 1.594a1.977 1.977 0 0 0-.073.073c-.306.334-.613.902-.649 1.498a2.522 2.522 0 0 0 .344 1.401 1.977 1.977 0 0 0 .038.062l1.521 2.451c-.11.24-.196.493-.297.76l-2.783.657a1.977 1.977 0 0 0-.027.004c-.32.08-.87.267-1.309.795-.44.528-.54 1.173-.54 1.567v2.27c0 .44.122 1.054.552 1.567.43.513 1.058.758 1.513.819l-.197-.035 2.814.671c.093.248.185.486.29.718l-1.525 2.486a2.438 2.438 0 0 0-.37 1.487c.052.639.42 1.229.775 1.555l1.548 1.548c.305.306.809.642 1.432.718.624.077 1.205-.132 1.567-.355l2.475-1.525c.245.114.491.22.749.317l.69 2.83-.038-.21c.061.46.333 1.133.869 1.552a2.43 2.43 0 0 0 1.52.502h2.309c.401 0 1.013-.1 1.536-.52.523-.422.753-1.018.83-1.406l-.015.081.69-2.826c.259-.097.507-.203.75-.316l2.455 1.52a1.977 1.977 0 0 0 .004 0c.362.224.944.432 1.567.356.623-.077 1.127-.412 1.432-.718a1.977 1.977 0 0 0 .008-.004l1.54-1.56c.334-.306.72-.896.776-1.547a2.429 2.429 0 0 0-.336-1.44 1.977 1.977 0 0 0-.035-.058l-1.52-2.463c.106-.232.199-.47.293-.718l2.821-.675-.196.034c.46-.061 1.128-.333 1.548-.868a2.426 2.426 0 0 0 .501-1.517v-2.27c0-.357-.06-.96-.49-1.513-.43-.553-1.014-.767-1.343-.85a1.977 1.977 0 0 0-.027-.003l-2.783-.657c-.105-.27-.188-.527-.298-.764l1.49-2.42c.208-.323.45-.83.41-1.49-.04-.66-.425-1.276-.78-1.602l-1.564-1.537c-.285-.286-.798-.64-1.428-.718-.63-.077-1.16.126-1.482.298a1.977 1.977 0 0 0-.1.058l-2.44 1.497c-.248-.114-.507-.213-.776-.316l-.664-2.726c-.072-.383-.283-.98-.81-1.42-.528-.44-1.162-.544-1.564-.544h-2.309zm0 1.976h2.309c.26 0 .382.106.428.352l.92 3.786c.994.245 1.897.656 2.663 1.085l3.277-2.007c.23-.123.395-.107.579.077l1.621 1.594c.184.169.184.353.047.568l-2.02 3.277c.368.69.829 1.64 1.058 2.667l3.764.888c.245.061.336.168.336.444v2.27c0 .26-.106.398-.336.428l-3.78.904a9.693 9.693 0 0 1-1.072 2.62l2.034 3.293c.123.215.122.384-.062.552l-1.605 1.626c-.184.183-.37.195-.568.073l-3.289-2.034a9 9 0 0 1-2.648 1.1l-.919 3.771c-.046.23-.168.336-.428.336h-2.308c-.26 0-.398-.106-.429-.336l-.919-3.771a8.932 8.932 0 0 1-2.648-1.1l-3.304 2.034c-.199.122-.384.11-.567-.073l-1.606-1.61c-.184-.169-.184-.353-.062-.552l2.034-3.308a9.88 9.88 0 0 1-1.057-2.621l-3.78-.904c-.23-.03-.35-.168-.35-.428v-2.27c0-.276.106-.382.35-.444l3.768-.888c.23-1.026.671-1.978 1.054-2.667l-2.035-3.277c-.122-.215-.122-.4.047-.583l1.621-1.594c.184-.169.353-.2.583-.062l3.273 2.007c.689-.429 1.715-.855 2.695-1.1l.903-3.771c.03-.23.168-.352.428-.352z" fill="#212121" stroke-linecap="round" stroke-linejoin="round" stroke-width="1.9764" style="-inkscape-stroke:none"/>
 <path id="path5-6" d="M33.3 4.654c4 1 5 7 6 11 .97 3.88 3.18 6.545 9 8 3.993.998 7.985.643 9.989 5.973v-.139c-.249-7.049-16.63-23.649-24.201-24.799a10.5 10.5 0 0 0-.787-.035z" filter="url(#filter95)" opacity=".25"/>
 <path id="path5" d="M35.013 3.999c4 1 5 7 6 11 .97 3.88 3.18 6.545 9 8 3.992.998 7.984.643 9.988 5.973v-.139C59.752 21.784 43.371 5.184 35.8 4.034A10.5 10.5 0 0 0 35.013 4z" fill="url(#d)"/>
</svg>
