<?xml version="1.0" encoding="UTF-8"?>
<svg width="64" height="64" xmlns="http://www.w3.org/2000/svg" xmlns:xlink="http://www.w3.org/1999/xlink">
 <defs>
  <linearGradient id="f" x1="45" x2="60.076" y1="19" y2="3.924" gradientTransform="translate(.013 -.001)" gradientUnits="userSpaceOnUse">
   <stop stop-color="#fff" offset="0"/>
   <stop stop-color="#b3b3b3" offset="1"/>
  </linearGradient>
  <linearGradient id="d" x1="7.937" x2="7.937" y1="15.081" y2="1.852" gradientTransform="translate(-.001 .03) scale(3.7796)" gradientUnits="userSpaceOnUse">
   <stop stop-color="#f1efeb" offset="0"/>
   <stop stop-color="#fdfcfc" offset="1"/>
  </linearGradient>
  <filter id="e" x="-.147" y="-.147" width="1.294" height="1.294" color-interpolation-filters="sRGB">
   <feGaussianBlur stdDeviation="1.53"/>
  </filter>
  <filter id="c" x="-.069" y="-.069" width="1.138" height="1.138" color-interpolation-filters="sRGB">
   <feGaussianBlur stdDeviation="1.613"/>
  </filter>
 </defs>
 <path d="M17.001 3.999A12.973 12.973 0 0 0 3.999 17.001v29.998a12.973 12.973 0 0 0 13.002 13.002h29.998a12.973 12.973 0 0 0 13.002-13.002V28.972a11.223 11.223 0 0 0-.398-.934 9.03 9.03 0 0 0-.444-.81 7.73 7.73 0 0 0-.482-.7 6.894 6.894 0 0 0-.522-.597 6.475 6.475 0 0 0-1.142-.926 7.086 7.086 0 0 0 .588.422 6.894 6.894 0 0 1 1.076 1.102c.167.215.328.447.482.699.155.25.303.52.444.81.14.29.273.6.398.934v-.139C59.752 21.784 43.371 5.184 35.8 4.034A10.5 10.5 0 0 0 35.013 4a4.557 4.557 0 0 1 1.953 1.045c.186.164.363.342.531.533a5.89 5.89 0 0 0-.531-.533A4.557 4.557 0 0 0 35.013 4Zm22.728 6.025c.178.565.338 1.14.487 1.71.297 1.14.547 2.265.797 3.265-.25-1-.5-2.125-.797-3.266a35.341 35.341 0 0 0-.487-1.709zm13.247 13.58z" filter="url(#c)" opacity=".25" stroke-width="3.7796"/>
 <path d="M17.001 3.999A12.973 12.973 0 0 0 3.999 17.001v29.998a12.973 12.973 0 0 0 13.002 13.002h29.998a12.973 12.973 0 0 0 13.002-13.002V28.972c-2.004-5.33-5.996-4.975-9.988-5.973-5.82-1.455-8.03-4.12-9-8-1-4-2-10-6-11z" fill="url(#d)" stroke-width="3.7796"/>
 <path d="M22.187 25.114a.984.984 0 0 0-1.05 1.115l.139 1.024a13.835 13.835 0 0 0-2.512.766 13.835 13.835 0 0 0-.599.287v2.224a11.858 11.858 0 0 1 1.364-.684 11.858 11.858 0 0 1 10.94.958l-4.843 6.345a3.953 3.953 0 0 0-4.674 1.245 3.953 3.953 0 0 0-.524.925l-2.263-.289v1.99l2.012.26a3.953 3.953 0 0 0 1.522 2.652 3.953 3.953 0 0 0 2.955.768l.474 1.135h2.148l-.79-1.895a3.953 3.953 0 0 0 .75-.752 3.953 3.953 0 0 0-.033-4.842L32.04 32a11.858 11.858 0 0 1 2.998 4.22 11.858 11.858 0 0 1-.224 9.615h3.783a.986.986 0 0 0-.417-.328l-.964-.395a13.835 13.835 0 0 0 .672-5.183l1.026-.138a.988.988 0 1 0-.263-1.957l-1.022.135a13.835 13.835 0 0 0-.769-2.514 13.835 13.835 0 0 0-1.243-2.313l.814-.628a.988.988 0 1 0-1.207-1.563l-.819.632a13.835 13.835 0 0 0-1.883-1.753c-.016-.012-.02-.03-.036-.042-.02-.015-.045-.017-.065-.031a13.835 13.835 0 0 0-2.174-1.35l.395-.955a.984.984 0 0 0-.537-1.288.984.984 0 0 0-1.289.535l-.4.967a13.835 13.835 0 0 0-5.177-.672l-.139-1.028a.984.984 0 0 0-.913-.852zm1.644 13.716a1.976 1.976 0 0 1 1.463.384 1.976 1.976 0 0 1 .372 2.773 1.976 1.976 0 0 1-2.767.375 1.976 1.976 0 0 1-.376-2.773 1.976 1.976 0 0 1 1.308-.76zm7.57-20.665a13.835 13.835 0 0 0 .093.972l-1.008.222a.982.982 0 0 0-.751 1.172.979.979 0 0 0 1.172.753l1.012-.218a13.835 13.835 0 0 0 2.385 4.657l-.764.692a.984.984 0 0 0-.07 1.393.984.984 0 0 0 1.394.07l.77-.698a13.835 13.835 0 0 0 4.394 2.836l-.32.984a.988.988 0 0 0 .642 1.243.984.984 0 0 0 1.244-.636l.316-.98a13.835 13.835 0 0 0 2.597.385 13.835 13.835 0 0 0 1.328 0V29a11.858 11.858 0 0 1-1.231.035 11.858 11.858 0 0 1-11.195-10.87Zm9.975 0a3.953 3.953 0 0 0 .295.834 3.953 3.953 0 0 0 4.164 2.07v-.791c0-.429-.127-.824-.344-1.156a1.976 1.976 0 0 1-2.006-.957z" fill="#212121" stroke-width="1.9764"/>
 <path d="M20.142 16.189a3.944 3.944 0 0 0-3.953 3.953v23.716a3.944 3.944 0 0 0 3.953 3.953h23.716a3.944 3.944 0 0 0 3.953-3.953V20.142a3.944 3.944 0 0 0-3.953-3.953zm.134 1.976h23.448c1.168 0 2.11.943 2.11 2.11v23.45c0 1.167-.942 2.11-2.11 2.11H20.276a2.107 2.107 0 0 1-2.11-2.11v-23.45c0-1.167.942-2.11 2.11-2.11z" fill="#212121" stroke-linecap="square" stroke-width="3.9528" style="paint-order:stroke fill markers"/>
 <path d="M33.3 4.654c4 1 5 7 6 11 .97 3.88 3.18 6.545 9 8 3.993.998 7.985.643 9.989 5.973v-.139c-.249-7.049-16.63-23.649-24.201-24.799a10.5 10.5 0 0 0-.787-.035z" filter="url(#e)" opacity=".25"/>
 <path d="M35.013 3.999c4 1 5 7 6 11 .97 3.88 3.18 6.545 9 8 3.992.998 7.984.643 9.988 5.973v-.139C59.752 21.784 43.371 5.184 35.8 4.034A10.5 10.5 0 0 0 35.013 4z" fill="url(#f)"/>
</svg>
