<?xml version="1.0" encoding="UTF-8"?>
<svg id="svg2" width="64" height="64" version="1.1" xml:space="preserve" xmlns="http://www.w3.org/2000/svg" xmlns:xlink="http://www.w3.org/1999/xlink"><defs id="defs2"><linearGradient id="d" x1="45" x2="60.076" y1="19" y2="3.924" gradientTransform="translate(.013 -.001)" gradientUnits="userSpaceOnUse"><stop id="stop5" stop-color="#fff" offset="0"/><stop id="stop6" stop-color="#b3b3b3" offset="1"/></linearGradient><linearGradient id="linearGradient5" x1="7.937" x2="7.937" y1="15.081" y2="1.852" gradientTransform="translate(-.001 .03) scale(3.7796)" gradientUnits="userSpaceOnUse"><stop id="stop1" stop-color="#f1efeb" offset="0"/><stop id="stop2" stop-color="#fdfcfc" offset="1"/></linearGradient><filter id="filter95" x="-.147" y="-.147" width="1.294" height="1.294" color-interpolation-filters="sRGB"><feGaussianBlur id="feGaussianBlur95" stdDeviation="1.53"/></filter><filter id="filter94" x="-.069" y="-.069" width="1.138" height="1.138" color-interpolation-filters="sRGB"><feGaussianBlur id="feGaussianBlur94" stdDeviation="1.613"/></filter><filter id="c-3" x="-.12" y="-.124" width="1.24" height="1.316"><feOffset id="feOffset4" dy="2" in="SourceAlpha" result="shadowOffsetOuter1"/><feGaussianBlur id="feGaussianBlur4" in="shadowOffsetOuter1" result="shadowBlurOuter1" stdDeviation="1.5"/><feColorMatrix id="feColorMatrix4" in="shadowBlurOuter1" values="0 0 0 0 0 0 0 0 0 0 0 0 0 0 0 0 0 0 0.2 0"/></filter><style id="current-color-scheme" type="text/css">.ColorScheme-Text{color:#363636}</style><path id="d-5" d="M47.096 38.496c-.966-1.047-2.818-1.53-5.475-1.53-1.45 0-2.98.161-4.428.403-.966-.886-1.772-1.933-2.577-2.98-.563-.804-1.127-1.61-1.61-2.495a26.41 26.41 0 0 0 1.45-7.086c0-2.174-.886-4.509-3.302-4.509-.805 0-1.61.484-2.013 1.208-1.047 1.771-.644 5.395 1.047 9.179-.564 1.69-1.208 3.381-1.933 5.233-.644 1.61-1.368 3.14-2.254 4.59-2.496.966-7.73 3.381-8.213 6.038-.16.806.081 1.61.725 2.094.564.483 1.369.805 2.174.724 3.14 0 6.28-4.347 8.454-8.132 1.208-.402 2.416-.805 3.704-1.127 1.369-.322 2.657-.644 3.865-.885 3.381 2.898 6.36 3.381 7.81 3.381 2.012 0 2.818-.886 3.06-1.61.321-.886.16-1.852-.484-2.496zm-2.174 1.53c-.08.563-.725.966-1.53.966-.241 0-.483 0-.724-.08-1.61-.403-3.14-1.208-4.429-2.255a21.682 21.682 0 0 1 3.221-.241c.725 0 1.45.08 2.174.16.724.162 1.53.484 1.288 1.45zM30.51 22.232c.161-.242.403-.403.725-.483.805 0 .966.885.966 1.69a20.535 20.535 0 0 1-.966 5.395c-1.37-3.462-1.208-5.797-.725-6.602zm4.51 15.458c-.886.16-1.771.402-2.657.644-.644.161-1.288.403-2.013.564.322-.725.644-1.45.966-2.094.403-.886.725-1.771 1.047-2.657.322.483.564.886.886 1.288.563.805 1.207 1.53 1.77 2.255zm-9.742 4.67c-2.013 3.22-4.026 5.314-5.153 5.314-.161 0-.403-.08-.483-.161-.242-.161-.323-.483-.242-.725.161-1.208 2.496-2.899 5.878-4.428z"/></defs><path id="path3-9-5" d="M17 4A12.973 12.973 0 0 0 4 17v30a12.973 12.973 0 0 0 13.002 13.002H47A12.973 12.973 0 0 0 60.001 47V28.972a11.223 11.223 0 0 0-.399-.934c-.14-.29-.289-.56-.443-.81a7.73 7.73 0 0 0-.482-.7 6.894 6.894 0 0 0-.522-.597 6.475 6.475 0 0 0-1.142-.926 7.086 7.086 0 0 0 .588.422 6.894 6.894 0 0 1 1.076 1.102c.167.215.328.448.482.699.154.25.303.52.443.81.14.29.274.6.399.934v-.139C59.752 21.784 43.37 5.184 35.8 4.034A10.5 10.5 0 0 0 35.013 4a4.557 4.557 0 0 1 1.953 1.045c.186.164.363.342.531.533a5.89 5.89 0 0 0-.531-.533A4.557 4.557 0 0 0 35.013 4Zm22.73 6.025c.177.564.337 1.138.486 1.709.297 1.14.547 2.265.797 3.265-.25-1-.5-2.125-.797-3.265a35.341 35.341 0 0 0-.487-1.71zm13.246 13.58z" filter="url(#filter94)" opacity=".25" stroke-width="3.7796"/><path id="path3-9" d="M17.001 3.999A12.973 12.973 0 0 0 3.999 17.001v29.998a12.973 12.973 0 0 0 13.002 13.002h29.998a12.973 12.973 0 0 0 13.002-13.002V28.972c-2.004-5.33-5.996-4.975-9.988-5.973-5.82-1.455-8.03-4.12-9-8-1-4-2-10-6-11z" fill="url(#linearGradient5)" stroke-width="3.7796"/><path id="path5-6" d="M33.3 4.654c4 1 5 7 6 11 .97 3.88 3.18 6.545 9 8 3.993.998 7.985.643 9.989 5.973v-.139c-.249-7.049-16.63-23.649-24.201-24.799a10.5 10.5 0 0 0-.787-.035z" filter="url(#filter95)" opacity=".25"/><g id="g1" transform="translate(-.737 -3.886)"><use id="use5" transform="matrix(.99416 0 0 1.0052 .188 -.138)" width="100%" height="100%" filter="url(#c-3)" opacity=".35" xlink:href="#d-5"/><use id="use6" transform="matrix(.99416 0 0 1.0052 .188 -.138)" width="100%" height="100%" fill="#212121" xlink:href="#d-5"/></g><path id="path5" d="M35.013 3.999c4 1 5 7 6 11 .97 3.88 3.18 6.545 9 8 3.992.998 7.984.643 9.988 5.973v-.139C59.752 21.784 43.371 5.184 35.8 4.034A10.5 10.5 0 0 0 35.013 4z" fill="url(#d)"/></svg>
