<?xml version="1.0" encoding="UTF-8"?>
<svg id="svg2" width="64" height="64" version="1.1" xmlns="http://www.w3.org/2000/svg" xmlns:xlink="http://www.w3.org/1999/xlink">
 <defs id="defs2">
  <linearGradient id="d" x1="45" x2="60.076" y1="19" y2="3.924" gradientTransform="translate(.013 -.001)" gradientUnits="userSpaceOnUse">
   <stop id="stop5" stop-color="#fff" offset="0"/>
   <stop id="stop6" stop-color="#b3b3b3" offset="1"/>
  </linearGradient>
  <linearGradient id="linearGradient5" x1="7.937" x2="7.937" y1="15.081" y2="1.852" gradientTransform="translate(-.001 .03) scale(3.7796)" gradientUnits="userSpaceOnUse">
   <stop id="stop1" stop-color="#f1efeb" offset="0"/>
   <stop id="stop2" stop-color="#fdfcfc" offset="1"/>
  </linearGradient>
  <filter id="filter95" x="-.147" y="-.147" width="1.294" height="1.294" color-interpolation-filters="sRGB">
   <feGaussianBlur id="feGaussianBlur95" stdDeviation="1.53"/>
  </filter>
  <filter id="filter94" x="-.069" y="-.069" width="1.138" height="1.138" color-interpolation-filters="sRGB">
   <feGaussianBlur id="feGaussianBlur94" stdDeviation="1.613"/>
  </filter>
  <style id="current-color-scheme" type="text/css">.ColorScheme-Text{color:#363636}</style>
 </defs>
 <path id="path3-9-5" d="M17.001 3.999A12.973 12.973 0 0 0 3.999 17.001v29.998a12.973 12.973 0 0 0 13.002 13.002h29.998a12.973 12.973 0 0 0 13.002-13.002V28.972a11.223 11.223 0 0 0-.398-.934 9.03 9.03 0 0 0-.444-.81 7.73 7.73 0 0 0-.482-.7 6.894 6.894 0 0 0-.522-.597 6.475 6.475 0 0 0-1.142-.926 7.086 7.086 0 0 0 .588.422 6.894 6.894 0 0 1 1.076 1.102c.167.215.328.447.482.699.155.25.303.52.444.81.14.29.273.6.398.934v-.139C59.752 21.784 43.371 5.184 35.8 4.034A10.5 10.5 0 0 0 35.013 4a4.557 4.557 0 0 1 1.953 1.045c.186.164.363.342.531.533a5.89 5.89 0 0 0-.531-.533A4.557 4.557 0 0 0 35.013 4Zm22.728 6.025c.178.565.338 1.14.487 1.71.297 1.14.547 2.265.797 3.265-.25-1-.5-2.125-.797-3.266a35.341 35.341 0 0 0-.487-1.709zm13.247 13.58z" filter="url(#filter94)" opacity=".25" stroke-width="3.7796"/>
 <path id="path3-9" d="M17.001 3.999A12.973 12.973 0 0 0 3.999 17.001v29.998a12.973 12.973 0 0 0 13.002 13.002h29.998a12.973 12.973 0 0 0 13.002-13.002V28.972c-2.004-5.33-5.996-4.975-9.988-5.973-5.82-1.455-8.03-4.12-9-8-1-4-2-10-6-11z" fill="url(#linearGradient5)" stroke-width="3.7796"/>
 <path id="path6-0" d="M36.203 10.976c1.764 6.94-6.214 9.037-9.09 13.365-1.96 2.945.964 6.108 4.947 9.704-1.552-3.512-6.823-6.59 0-11.977 8.513-6.722 4.148-11.092 4.148-11.092zm5.27 8.592s-14.392 3.592-7.522 11.51c2.034 2.337-.53 4.44-.53 4.44s5.15-2.66 2.787-5.986c-2.209-3.11-3.904-4.65 5.265-9.97zm2.548 14.144a4.852 4.852 0 0 0-1.589.286c-.445.159-.678.519-.678.519s.28-.111.9-.244c2.549-.53 6.198 3.412-1.695 7.512a.643.643 0 0 1-.158.206c9.386-2.468 7.341-8.285 3.22-8.274zm-16.898.402a14.827 14.827 0 0 0-6.489 1.568c-4.312 2.087 10.68 3.04 18.434 1.001.81-.55 1.923-1.033 1.923-1.033s-3.173.567-6.335.837c-3.867.318-8.025.387-10.107.106-4.937-.657 2.701-2.473 2.701-2.473h-.132zm-1.647 4.778c-7.12 2.363 3.962 5.043 13.91 2.13a4.969 4.969 0 0 1-1.727-1.054c-4.862.937-7.675.905-11.23.54-2.754-.286-.953-1.616-.953-1.616Zm1.006 4.598c-6.462 1.807 3.93 5.541 12.163 2.013-1.346-.524-2.315-1.128-2.315-1.128-3.671.694-5.372.747-8.704.37-2.754-.317-1.144-1.255-1.144-1.255zm-4.492 3.057c-2.903.085-8.581 2.701-3.39 3.538 16.782 2.723 30.591-1.223 26.242-3.189 0 0 1.187.98-1.313 1.738-4.747 1.44-19.775 1.875-23.944.058-1.499-.651 1.314-1.557 2.199-1.748.921-.201 1.446-.159 1.446-.159-.26-.185-.705-.26-1.24-.238zm25.517 2.49s-.53 1.36-6.261 2.436c-6.463 1.219-14.435 1.075-19.16.297 0 0 .969.8 5.943 1.123 7.575.482 19.202-.27 19.478-3.851z" clip-rule="evenodd" fill="#212121" fill-rule="evenodd" stroke-width="5.2972"/>
 <path id="path5-6" d="M33.3 4.654c4 1 5 7 6 11 .97 3.88 3.18 6.545 9 8 3.993.998 7.985.643 9.989 5.973v-.139c-.249-7.049-16.63-23.649-24.201-24.799a10.5 10.5 0 0 0-.787-.035z" filter="url(#filter95)" opacity=".25"/>
 <path id="path5" d="M35.013 3.999c4 1 5 7 6 11 .97 3.88 3.18 6.545 9 8 3.992.998 7.984.643 9.988 5.973v-.139C59.752 21.784 43.371 5.184 35.8 4.034A10.5 10.5 0 0 0 35.013 4z" fill="url(#d)"/>
</svg>
