<?xml version="1.0" encoding="UTF-8"?>
<svg width="64" height="64" xmlns="http://www.w3.org/2000/svg" xmlns:xlink="http://www.w3.org/1999/xlink">
 <defs>
  <linearGradient id="f" x1="45" x2="60.076" y1="19" y2="3.924" gradientTransform="translate(.013 -.001)" gradientUnits="userSpaceOnUse">
   <stop stop-color="#fff" offset="0"/>
   <stop stop-color="#b3b3b3" offset="1"/>
  </linearGradient>
  <linearGradient id="d" x1="7.937" x2="7.937" y1="15.081" y2="1.852" gradientTransform="translate(-.001 .03) scale(3.7796)" gradientUnits="userSpaceOnUse">
   <stop stop-color="#f1efeb" offset="0"/>
   <stop stop-color="#fdfcfc" offset="1"/>
  </linearGradient>
  <filter id="e" x="-.147" y="-.147" width="1.294" height="1.294" color-interpolation-filters="sRGB">
   <feGaussianBlur stdDeviation="1.53"/>
  </filter>
  <filter id="c" x="-.069" y="-.069" width="1.138" height="1.138" color-interpolation-filters="sRGB">
   <feGaussianBlur stdDeviation="1.613"/>
  </filter>
 </defs>
 <path d="M17.001 3.999A12.973 12.973 0 0 0 3.999 17.001v29.998a12.973 12.973 0 0 0 13.002 13.002h29.998a12.973 12.973 0 0 0 13.002-13.002V28.972a11.223 11.223 0 0 0-.398-.934 9.03 9.03 0 0 0-.444-.81 7.73 7.73 0 0 0-.482-.7 6.894 6.894 0 0 0-.522-.597 6.475 6.475 0 0 0-1.142-.926 7.086 7.086 0 0 0 .588.422 6.894 6.894 0 0 1 1.076 1.102c.167.215.328.447.482.699.155.25.303.52.444.81.14.29.273.6.398.934v-.139C59.752 21.784 43.371 5.184 35.8 4.034A10.5 10.5 0 0 0 35.013 4a4.557 4.557 0 0 1 1.953 1.045c.186.164.363.342.531.533a5.89 5.89 0 0 0-.531-.533A4.557 4.557 0 0 0 35.013 4zm22.728 6.025c.178.565.338 1.14.487 1.71.297 1.14.547 2.265.797 3.265-.25-1-.5-2.125-.797-3.266a35.341 35.341 0 0 0-.487-1.709zm13.247 13.58z" filter="url(#c)" opacity=".25" stroke-width="3.7796"/>
 <path d="M17.001 3.999A12.973 12.973 0 0 0 3.999 17.001v29.998a12.973 12.973 0 0 0 13.002 13.002h29.998a12.973 12.973 0 0 0 13.002-13.002V28.972c-2.004-5.33-5.996-4.975-9.988-5.973-5.82-1.455-8.03-4.12-9-8-1-4-2-10-6-11z" fill="url(#d)" stroke-width="3.7796"/>
 <path d="M17.405 16.189a4.854 4.854 0 0 0-4.865 4.865v21.892a4.854 4.854 0 0 0 4.865 4.865h29.19a4.854 4.854 0 0 0 4.865-4.865V21.054a4.854 4.854 0 0 0-4.865-4.865zm0 2.432h2.432v2.433h-4.865a2.427 2.427 0 0 1 2.433-2.433zm4.865 0h19.46v12.163H22.27Zm21.893 0h2.432a2.427 2.427 0 0 1 2.433 2.433h-4.865Zm-29.19 4.865h4.864v2.433h-4.865zm29.19 0h4.865v2.433h-4.865zm-29.19 4.865h4.864v2.433h-4.865zm29.19 0h4.865v2.433h-4.865zm-29.19 4.865h4.864v2.433h-4.865zm7.297 0h19.46V45.38H22.27Zm21.893 0h4.865v2.433h-4.865zm-29.19 4.865h4.864v2.433h-4.865zm29.19 0h4.865v2.433h-4.865zm-29.19 4.865h4.864v2.433h-2.432a2.427 2.427 0 0 1-2.433-2.433zm29.19 0h4.865a2.427 2.427 0 0 1-2.433 2.433h-2.432z" color="#363636" fill="#212121" stroke-width="2.4325"/>
 <path d="M33.3 4.654c4 1 5 7 6 11 .97 3.88 3.18 6.545 9 8 3.993.998 7.985.643 9.989 5.973v-.139c-.249-7.049-16.63-23.649-24.201-24.799a10.5 10.5 0 0 0-.787-.035z" filter="url(#e)" opacity=".25"/>
 <path d="M35.013 3.999c4 1 5 7 6 11 .97 3.88 3.18 6.545 9 8 3.992.998 7.984.643 9.988 5.973v-.139C59.752 21.784 43.371 5.184 35.8 4.034A10.5 10.5 0 0 0 35.013 4z" fill="url(#f)"/>
 <rect x="17.405" y="49.138" width="29.19" height="2.433" ry="1.216" fill="#212121"/>
 <rect x="17.405" y="52.947" width="29.19" height="2.433" ry="1.216" fill="#212121"/>
</svg>
