<?xml version="1.0" encoding="UTF-8"?>
<svg width="64" height="64" xmlns="http://www.w3.org/2000/svg" xmlns:xlink="http://www.w3.org/1999/xlink">
 <defs>
  <linearGradient id="f" x1="45" x2="60.076" y1="19" y2="3.924" gradientTransform="translate(.013 -.001)" gradientUnits="userSpaceOnUse">
   <stop stop-color="#fff" offset="0"/>
   <stop stop-color="#b3b3b3" offset="1"/>
  </linearGradient>
  <linearGradient id="d" x1="7.937" x2="7.937" y1="15.081" y2="1.852" gradientTransform="translate(-.001 .03) scale(3.7796)" gradientUnits="userSpaceOnUse">
   <stop stop-color="#f1efeb" offset="0"/>
   <stop stop-color="#fdfcfc" offset="1"/>
  </linearGradient>
  <filter id="e" x="-.147" y="-.147" width="1.294" height="1.294" color-interpolation-filters="sRGB">
   <feGaussianBlur stdDeviation="1.53"/>
  </filter>
  <filter id="c" x="-.069" y="-.069" width="1.138" height="1.138" color-interpolation-filters="sRGB">
   <feGaussianBlur stdDeviation="1.613"/>
  </filter>
 </defs>
 <path d="M17.001 3.999A12.973 12.973 0 0 0 3.999 17.001v29.998a12.973 12.973 0 0 0 13.002 13.002h29.998a12.973 12.973 0 0 0 13.002-13.002V28.972a11.223 11.223 0 0 0-.398-.934 9.03 9.03 0 0 0-.444-.81 7.73 7.73 0 0 0-.482-.7 6.894 6.894 0 0 0-.522-.597 6.475 6.475 0 0 0-1.142-.926 7.086 7.086 0 0 0 .588.422 6.894 6.894 0 0 1 1.076 1.102c.167.215.328.447.482.699.155.25.303.52.444.81.14.29.273.6.398.934v-.139C59.752 21.784 43.371 5.184 35.8 4.034A10.5 10.5 0 0 0 35.013 4a4.557 4.557 0 0 1 1.953 1.045c.186.164.363.342.531.533a5.89 5.89 0 0 0-.531-.533A4.557 4.557 0 0 0 35.013 4Zm22.728 6.025c.178.565.338 1.14.487 1.71.297 1.14.547 2.265.797 3.265-.25-1-.5-2.125-.797-3.266a35.341 35.341 0 0 0-.487-1.709zm13.247 13.58z" filter="url(#c)" opacity=".25" stroke-width="3.7796"/>
 <path d="M17.001 3.999A12.973 12.973 0 0 0 3.999 17.001v29.998a12.973 12.973 0 0 0 13.002 13.002h29.998a12.973 12.973 0 0 0 13.002-13.002V28.972c-2.004-5.33-5.996-4.975-9.988-5.973-5.82-1.455-8.03-4.12-9-8-1-4-2-10-6-11z" fill="url(#d)" stroke-width="3.7796"/>
 <path d="M25.224 13.93a4.508 4.508 0 0 0-4.518 4.517v18.07a4.508 4.508 0 0 0 4.518 4.518h5.647v6.776H16.189v2.26H47.81v-2.26H33.13v-6.776h5.647a4.508 4.508 0 0 0 4.518-4.517v-18.07a4.508 4.508 0 0 0-4.518-4.518zm0 2.259h13.552a2.254 2.254 0 0 1 2.259 2.258v18.07a2.254 2.254 0 0 1-2.259 2.26H25.224a2.254 2.254 0 0 1-2.259-2.26v-18.07a2.254 2.254 0 0 1 2.259-2.258zm2.258 4.517v2.259h9.036v-2.259zm6.777 4.518v2.258h2.259v-2.258z" fill="#212121" stroke-width="2.2588"/>
 <path d="M33.3 4.654c4 1 5 7 6 11 .97 3.88 3.18 6.545 9 8 3.993.998 7.985.643 9.989 5.973v-.139c-.249-7.049-16.63-23.649-24.201-24.799a10.5 10.5 0 0 0-.787-.035z" filter="url(#e)" opacity=".25"/>
 <path d="M35.013 3.999c4 1 5 7 6 11 .97 3.88 3.18 6.545 9 8 3.992.998 7.984.643 9.988 5.973v-.139C59.752 21.784 43.371 5.184 35.8 4.034A10.5 10.5 0 0 0 35.013 4z" fill="url(#f)"/>
</svg>
