<?xml version="1.0" encoding="UTF-8"?>
<svg width="64" height="64" xmlns="http://www.w3.org/2000/svg" xmlns:xlink="http://www.w3.org/1999/xlink">
 <defs>
  <linearGradient id="f" x1="45" x2="60.076" y1="19" y2="3.924" gradientTransform="translate(.013 -.001)" gradientUnits="userSpaceOnUse">
   <stop stop-color="#fff" offset="0"/>
   <stop stop-color="#b3b3b3" offset="1"/>
  </linearGradient>
  <linearGradient id="d" x1="7.937" x2="7.937" y1="15.081" y2="1.852" gradientTransform="translate(-.001 .03) scale(3.7796)" gradientUnits="userSpaceOnUse">
   <stop stop-color="#f1efeb" offset="0"/>
   <stop stop-color="#fdfcfc" offset="1"/>
  </linearGradient>
  <filter id="e" x="-.147" y="-.147" width="1.294" height="1.294" color-interpolation-filters="sRGB">
   <feGaussianBlur stdDeviation="1.53"/>
  </filter>
  <filter id="c" x="-.069" y="-.069" width="1.138" height="1.138" color-interpolation-filters="sRGB">
   <feGaussianBlur stdDeviation="1.613"/>
  </filter>
 </defs>
 <path d="M17.001 3.999A12.973 12.973 0 0 0 3.999 17.001v29.998a12.973 12.973 0 0 0 13.002 13.002h29.998a12.973 12.973 0 0 0 13.002-13.002V28.972a11.223 11.223 0 0 0-.398-.934 9.03 9.03 0 0 0-.444-.81 7.73 7.73 0 0 0-.482-.7 6.894 6.894 0 0 0-.522-.597 6.475 6.475 0 0 0-1.142-.926 7.086 7.086 0 0 0 .588.422 6.894 6.894 0 0 1 1.076 1.102c.167.215.328.447.482.699.155.25.303.52.444.81.14.29.273.6.398.934v-.139C59.752 21.784 43.371 5.184 35.8 4.034A10.5 10.5 0 0 0 35.013 4a4.557 4.557 0 0 1 1.953 1.045c.186.164.363.342.531.533a5.89 5.89 0 0 0-.531-.533A4.557 4.557 0 0 0 35.013 4Zm22.728 6.025c.178.565.338 1.14.487 1.71.297 1.14.547 2.265.797 3.265-.25-1-.5-2.125-.797-3.266a35.341 35.341 0 0 0-.487-1.709zm13.247 13.58z" filter="url(#c)" opacity=".25" stroke-width="3.7796"/>
 <path d="M17.001 3.999A12.973 12.973 0 0 0 3.999 17.001v29.998a12.973 12.973 0 0 0 13.002 13.002h29.998a12.973 12.973 0 0 0 13.002-13.002V28.972c-2.004-5.33-5.996-4.975-9.988-5.973-5.82-1.455-8.03-4.12-9-8-1-4-2-10-6-11z" fill="url(#d)" stroke-width="3.7796"/>
 <g fill="#202020" stroke-width="2.8748">
  <path transform="rotate(-90 31.063 32)" d="M21 17.126a5.737 5.737 0 0 0-5.749 5.75v20.123a5.737 5.737 0 0 0 5.75 5.75h20.123a5.737 5.737 0 0 0 5.75-5.75v-8.624h-2.875v8.624a2.868 2.868 0 0 1-2.875 2.875H21.001a2.868 2.868 0 0 1-2.875-2.875V22.876A2.868 2.868 0 0 1 21.001 20h8.624v-2.875z" style="paint-order:stroke fill markers"/>
  <path transform="rotate(-90 31.063 32)" d="M33.937 14.251c-.796 0-1.437.641-1.437 1.438 0 .796.641 1.437 1.437 1.437h10.904L33.061 28.9a1.44 1.44 0 1 0 2.039 2.038l11.774-11.78v10.905c0 .796.641 1.437 1.437 1.437.797 0 1.438-.641 1.438-1.437V15.689c0-.046-.002-.09-.006-.135v-.011a1.413 1.413 0 0 0-.023-.13 1.411 1.411 0 0 0-.078-.263c-.012-.03-.026-.057-.04-.085-.006-.014-.009-.03-.016-.045l-.012-.017a1.42 1.42 0 0 0-.061-.106c-.003-.005-.009-.007-.012-.011l-.017-.023a1.436 1.436 0 0 0-.157-.19 1.44 1.44 0 0 0-.393-.276l-.084-.04a1.414 1.414 0 0 0-.264-.078c-.042-.008-.087-.018-.13-.022h-.01a1.378 1.378 0 0 0-.135-.006H33.937Z"/>
 </g>
 <path d="M33.3 4.654c4 1 5 7 6 11 .97 3.88 3.18 6.545 9 8 3.993.998 7.985.643 9.989 5.973v-.139c-.249-7.049-16.63-23.649-24.201-24.799a10.5 10.5 0 0 0-.787-.035z" filter="url(#e)" opacity=".25"/>
 <path d="M35.013 3.999c4 1 5 7 6 11 .97 3.88 3.18 6.545 9 8 3.992.998 7.984.643 9.988 5.973v-.139C59.752 21.784 43.371 5.184 35.8 4.034A10.5 10.5 0 0 0 35.013 4z" fill="url(#f)"/>
</svg>
