<?xml version="1.0" encoding="UTF-8" standalone="no"?>
<svg
   width="64"
   height="64"
   version="1.1"
   id="svg2"
   sodipodi:docname="text-x-script.svg"
   inkscape:version="1.3.2 (091e20ef0f, 2023-11-25)"
   xmlns:inkscape="http://www.inkscape.org/namespaces/inkscape"
   xmlns:sodipodi="http://sodipodi.sourceforge.net/DTD/sodipodi-0.dtd"
   xmlns:xlink="http://www.w3.org/1999/xlink"
   xmlns="http://www.w3.org/2000/svg"
   xmlns:svg="http://www.w3.org/2000/svg"
   xmlns:rdf="http://www.w3.org/1999/02/22-rdf-syntax-ns#"
   xmlns:cc="http://creativecommons.org/ns#"
   xmlns:dc="http://purl.org/dc/elements/1.1/">
  <sodipodi:namedview
     id="namedview2"
     pagecolor="#ffffff"
     bordercolor="#111111"
     borderopacity="1"
     inkscape:showpageshadow="0"
     inkscape:pageopacity="0"
     inkscape:pagecheckerboard="1"
     inkscape:deskcolor="#d1d1d1"
     inkscape:zoom="12.546875"
     inkscape:cx="29.449564"
     inkscape:cy="31.681196"
     inkscape:window-width="1920"
     inkscape:window-height="1011"
     inkscape:window-x="0"
     inkscape:window-y="0"
     inkscape:window-maximized="1"
     inkscape:current-layer="svg2" />
  <defs
     id="defs2">
    <linearGradient
       id="linearGradient92"
       x1="7.9373002"
       x2="7.9373002"
       y1="15.081"
       y2="1.852"
       gradientTransform="scale(3.7796)"
       gradientUnits="userSpaceOnUse"
       spreadMethod="pad">
      <stop
         stop-color="#f1efeb"
         offset="0"
         id="stop91"
         style="stop-color:#695e49;stop-opacity:1;" />
      <stop
         stop-color="#fdfcfc"
         offset="1"
         id="stop92" />
    </linearGradient>
    <linearGradient
       id="linearGradient90"
       x1="7.9373002"
       x2="7.9373002"
       y1="15.081"
       y2="1.852"
       gradientTransform="scale(3.7796)"
       gradientUnits="userSpaceOnUse"
       spreadMethod="pad">
      <stop
         stop-color="#f1efeb"
         offset="0"
         id="stop89"
         style="stop-color:#6a5f4a;stop-opacity:1;" />
      <stop
         stop-color="#fdfcfc"
         offset="1"
         id="stop90" />
    </linearGradient>
    <linearGradient
       id="linearGradient88"
       x1="7.9373002"
       x2="7.9373002"
       y1="15.081"
       y2="1.852"
       gradientTransform="scale(3.7796)"
       gradientUnits="userSpaceOnUse"
       spreadMethod="pad">
      <stop
         stop-color="#f1efeb"
         offset="0"
         id="stop87"
         style="stop-color:#70654e;stop-opacity:1;" />
      <stop
         stop-color="#fdfcfc"
         offset="1"
         id="stop88" />
    </linearGradient>
    <linearGradient
       id="linearGradient86"
       x1="7.9373002"
       x2="7.9373002"
       y1="15.081"
       y2="1.852"
       gradientTransform="scale(3.7796)"
       gradientUnits="userSpaceOnUse"
       spreadMethod="pad">
      <stop
         stop-color="#f1efeb"
         offset="0"
         id="stop85"
         style="stop-color:#948567;stop-opacity:1;" />
      <stop
         stop-color="#fdfcfc"
         offset="1"
         id="stop86" />
    </linearGradient>
    <linearGradient
       id="linearGradient84"
       x1="7.9373002"
       x2="7.9373002"
       y1="15.081"
       y2="1.852"
       gradientTransform="scale(3.7796)"
       gradientUnits="userSpaceOnUse"
       spreadMethod="pad">
      <stop
         stop-color="#f1efeb"
         offset="0"
         id="stop83"
         style="stop-color:#aca189;stop-opacity:1;" />
      <stop
         stop-color="#fdfcfc"
         offset="1"
         id="stop84" />
    </linearGradient>
    <linearGradient
       id="linearGradient82"
       x1="7.9373002"
       x2="7.9373002"
       y1="15.081"
       y2="1.852"
       gradientTransform="scale(3.7796)"
       gradientUnits="userSpaceOnUse"
       spreadMethod="pad">
      <stop
         stop-color="#f1efeb"
         offset="0"
         id="stop81"
         style="stop-color:#c1b9a7;stop-opacity:1;" />
      <stop
         stop-color="#fdfcfc"
         offset="1"
         id="stop82" />
    </linearGradient>
    <linearGradient
       id="linearGradient80"
       x1="7.9373002"
       x2="7.9373002"
       y1="15.081"
       y2="1.852"
       gradientTransform="scale(3.7796)"
       gradientUnits="userSpaceOnUse"
       spreadMethod="pad">
      <stop
         stop-color="#f1efeb"
         offset="0"
         id="stop79"
         style="stop-color:#d0c9bb;stop-opacity:1;" />
      <stop
         stop-color="#fdfcfc"
         offset="1"
         id="stop80" />
    </linearGradient>
    <linearGradient
       id="linearGradient78"
       x1="7.9373002"
       x2="7.9373002"
       y1="15.081"
       y2="1.852"
       gradientTransform="scale(3.7796)"
       gradientUnits="userSpaceOnUse"
       spreadMethod="pad">
      <stop
         stop-color="#f1efeb"
         offset="0"
         id="stop77"
         style="stop-color:#dcd7cd;stop-opacity:1;" />
      <stop
         stop-color="#fdfcfc"
         offset="1"
         id="stop78" />
    </linearGradient>
    <linearGradient
       id="linearGradient76"
       x1="7.9373002"
       x2="7.9373002"
       y1="15.081"
       y2="1.852"
       gradientTransform="scale(3.7796)"
       gradientUnits="userSpaceOnUse"
       spreadMethod="pad">
      <stop
         stop-color="#f1efeb"
         offset="0"
         id="stop75"
         style="stop-color:#e2ddd5;stop-opacity:1;" />
      <stop
         stop-color="#fdfcfc"
         offset="1"
         id="stop76" />
    </linearGradient>
    <linearGradient
       id="linearGradient74"
       x1="7.9373002"
       x2="7.9373002"
       y1="15.081"
       y2="1.852"
       gradientTransform="scale(3.7796)"
       gradientUnits="userSpaceOnUse"
       spreadMethod="pad">
      <stop
         stop-color="#f1efeb"
         offset="0"
         id="stop73"
         style="stop-color:#e2ded5;stop-opacity:1;" />
      <stop
         stop-color="#fdfcfc"
         offset="1"
         id="stop74" />
    </linearGradient>
    <linearGradient
       id="linearGradient72"
       x1="7.9373002"
       x2="7.9373002"
       y1="15.081"
       y2="1.852"
       gradientTransform="scale(3.7796)"
       gradientUnits="userSpaceOnUse"
       spreadMethod="pad">
      <stop
         stop-color="#f1efeb"
         offset="0"
         id="stop71"
         style="stop-color:#9a8b6e;stop-opacity:1;" />
      <stop
         stop-color="#fdfcfc"
         offset="1"
         id="stop72" />
    </linearGradient>
    <linearGradient
       id="linearGradient70"
       x1="7.9373002"
       x2="7.9373002"
       y1="15.081"
       y2="1.852"
       gradientTransform="scale(3.7796)"
       gradientUnits="userSpaceOnUse"
       spreadMethod="pad">
      <stop
         stop-color="#f1efeb"
         offset="0"
         id="stop69"
         style="stop-color:#756a52;stop-opacity:1;" />
      <stop
         stop-color="#fdfcfc"
         offset="1"
         id="stop70" />
    </linearGradient>
    <linearGradient
       id="linearGradient68"
       x1="7.9373002"
       x2="7.9373002"
       y1="15.081"
       y2="1.852"
       gradientTransform="scale(3.7796)"
       gradientUnits="userSpaceOnUse"
       spreadMethod="pad">
      <stop
         stop-color="#f1efeb"
         offset="0"
         id="stop67"
         style="stop-color:#574e3d;stop-opacity:1;" />
      <stop
         stop-color="#fdfcfc"
         offset="1"
         id="stop68" />
    </linearGradient>
    <linearGradient
       id="linearGradient66"
       x1="7.9373002"
       x2="7.9373002"
       y1="15.081"
       y2="1.852"
       gradientTransform="scale(3.7796)"
       gradientUnits="userSpaceOnUse"
       spreadMethod="pad">
      <stop
         stop-color="#f1efeb"
         offset="0"
         id="stop65"
         style="stop-color:#4d4536;stop-opacity:1;" />
      <stop
         stop-color="#fdfcfc"
         offset="1"
         id="stop66" />
    </linearGradient>
    <linearGradient
       id="linearGradient64"
       x1="7.9373002"
       x2="7.9373002"
       y1="15.081"
       y2="1.852"
       gradientTransform="scale(3.7796)"
       gradientUnits="userSpaceOnUse"
       spreadMethod="pad">
      <stop
         stop-color="#f1efeb"
         offset="0"
         id="stop63"
         style="stop-color:#4d4536;stop-opacity:1;" />
      <stop
         stop-color="#fdfcfc"
         offset="1"
         id="stop64" />
    </linearGradient>
    <linearGradient
       id="linearGradient62"
       x1="7.9373002"
       x2="7.9373002"
       y1="15.081"
       y2="1.852"
       gradientTransform="scale(3.7796)"
       gradientUnits="userSpaceOnUse"
       spreadMethod="pad">
      <stop
         stop-color="#f1efeb"
         offset="0"
         id="stop61"
         style="stop-color:#0c0b08;stop-opacity:1;" />
      <stop
         stop-color="#fdfcfc"
         offset="1"
         id="stop62" />
    </linearGradient>
    <linearGradient
       id="linearGradient60"
       x1="7.9373002"
       x2="7.9373002"
       y1="15.081"
       y2="1.852"
       gradientTransform="scale(3.7796)"
       gradientUnits="userSpaceOnUse"
       spreadMethod="pad">
      <stop
         stop-color="#f1efeb"
         offset="0"
         id="stop59"
         style="stop-color:#0b0a08;stop-opacity:1;" />
      <stop
         stop-color="#fdfcfc"
         offset="1"
         id="stop60" />
    </linearGradient>
    <linearGradient
       id="linearGradient58"
       x1="7.9373002"
       x2="7.9373002"
       y1="15.081"
       y2="1.852"
       gradientTransform="scale(3.7796)"
       gradientUnits="userSpaceOnUse"
       spreadMethod="pad">
      <stop
         stop-color="#f1efeb"
         offset="0"
         id="stop57"
         style="stop-color:#0b0a08;stop-opacity:1;" />
      <stop
         stop-color="#fdfcfc"
         offset="1"
         id="stop58" />
    </linearGradient>
    <linearGradient
       id="linearGradient56"
       x1="7.9373002"
       x2="7.9373002"
       y1="15.081"
       y2="1.852"
       gradientTransform="scale(3.7796)"
       gradientUnits="userSpaceOnUse"
       spreadMethod="pad">
      <stop
         stop-color="#f1efeb"
         offset="0"
         id="stop55"
         style="stop-color:#171410;stop-opacity:1;" />
      <stop
         stop-color="#fdfcfc"
         offset="1"
         id="stop56" />
    </linearGradient>
    <linearGradient
       id="linearGradient54"
       x1="7.9373002"
       x2="7.9373002"
       y1="15.081"
       y2="1.852"
       gradientTransform="scale(3.7796)"
       gradientUnits="userSpaceOnUse"
       spreadMethod="pad">
      <stop
         stop-color="#f1efeb"
         offset="0"
         id="stop53"
         style="stop-color:#2d281f;stop-opacity:1;" />
      <stop
         stop-color="#fdfcfc"
         offset="1"
         id="stop54" />
    </linearGradient>
    <linearGradient
       id="linearGradient52"
       x1="7.9373002"
       x2="7.9373002"
       y1="15.081"
       y2="1.852"
       gradientTransform="scale(3.7796)"
       gradientUnits="userSpaceOnUse"
       spreadMethod="pad">
      <stop
         stop-color="#f1efeb"
         offset="0"
         id="stop51"
         style="stop-color:#3a3428;stop-opacity:1;" />
      <stop
         stop-color="#fdfcfc"
         offset="1"
         id="stop52" />
    </linearGradient>
    <linearGradient
       id="linearGradient50"
       x1="7.9373002"
       x2="7.9373002"
       y1="15.081"
       y2="1.852"
       gradientTransform="scale(3.7796)"
       gradientUnits="userSpaceOnUse"
       spreadMethod="pad">
      <stop
         stop-color="#f1efeb"
         offset="0"
         id="stop49"
         style="stop-color:#473f31;stop-opacity:1;" />
      <stop
         stop-color="#fdfcfc"
         offset="1"
         id="stop50" />
    </linearGradient>
    <linearGradient
       id="linearGradient48"
       x1="7.9373002"
       x2="7.9373002"
       y1="15.081"
       y2="1.852"
       gradientTransform="scale(3.7796)"
       gradientUnits="userSpaceOnUse"
       spreadMethod="pad">
      <stop
         stop-color="#f1efeb"
         offset="0"
         id="stop47"
         style="stop-color:#4e4737;stop-opacity:1;" />
      <stop
         stop-color="#fdfcfc"
         offset="1"
         id="stop48" />
    </linearGradient>
    <linearGradient
       id="linearGradient46"
       x1="7.9373002"
       x2="7.9373002"
       y1="15.081"
       y2="1.852"
       gradientTransform="scale(3.7796)"
       gradientUnits="userSpaceOnUse"
       spreadMethod="pad">
      <stop
         stop-color="#f1efeb"
         offset="0"
         id="stop45"
         style="stop-color:#534b3a;stop-opacity:1;" />
      <stop
         stop-color="#fdfcfc"
         offset="1"
         id="stop46" />
    </linearGradient>
    <linearGradient
       id="linearGradient44"
       x1="7.9373002"
       x2="7.9373002"
       y1="15.081"
       y2="1.852"
       gradientTransform="scale(3.7796)"
       gradientUnits="userSpaceOnUse"
       spreadMethod="pad">
      <stop
         stop-color="#f1efeb"
         offset="0"
         id="stop43"
         style="stop-color:#544c3b;stop-opacity:1;" />
      <stop
         stop-color="#fdfcfc"
         offset="1"
         id="stop44" />
    </linearGradient>
    <linearGradient
       id="linearGradient42"
       x1="7.9373002"
       x2="7.9373002"
       y1="15.081"
       y2="1.852"
       gradientTransform="scale(3.7796)"
       gradientUnits="userSpaceOnUse"
       spreadMethod="pad">
      <stop
         stop-color="#f1efeb"
         offset="0"
         id="stop41"
         style="stop-color:#554c3b;stop-opacity:1;" />
      <stop
         stop-color="#fdfcfc"
         offset="1"
         id="stop42" />
    </linearGradient>
    <linearGradient
       id="linearGradient40"
       x1="7.9373002"
       x2="7.9373002"
       y1="15.081"
       y2="1.852"
       gradientTransform="scale(3.7796)"
       gradientUnits="userSpaceOnUse"
       spreadMethod="pad">
      <stop
         stop-color="#f1efeb"
         offset="0"
         id="stop39"
         style="stop-color:#564d3c;stop-opacity:1;" />
      <stop
         stop-color="#fdfcfc"
         offset="1"
         id="stop40" />
    </linearGradient>
    <linearGradient
       id="linearGradient38"
       x1="7.9373002"
       x2="7.9373002"
       y1="15.081"
       y2="1.852"
       gradientTransform="scale(3.7796)"
       gradientUnits="userSpaceOnUse"
       spreadMethod="pad">
      <stop
         stop-color="#f1efeb"
         offset="0"
         id="stop37"
         style="stop-color:#000000;stop-opacity:1;" />
      <stop
         stop-color="#fdfcfc"
         offset="1"
         id="stop38" />
    </linearGradient>
    <linearGradient
       id="linearGradient36"
       x1="7.9373002"
       x2="7.9373002"
       y1="15.081"
       y2="1.852"
       gradientTransform="scale(3.7796)"
       gradientUnits="userSpaceOnUse"
       spreadMethod="pad">
      <stop
         stop-color="#f1efeb"
         offset="0"
         id="stop35"
         style="stop-color:#000000;stop-opacity:1;" />
      <stop
         stop-color="#fdfcfc"
         offset="1"
         id="stop36" />
    </linearGradient>
    <linearGradient
       id="linearGradient34"
       x1="7.9373002"
       x2="7.9373002"
       y1="15.081"
       y2="1.852"
       gradientTransform="scale(3.7796)"
       gradientUnits="userSpaceOnUse"
       spreadMethod="pad">
      <stop
         stop-color="#f1efeb"
         offset="0"
         id="stop33"
         style="stop-color:#000000;stop-opacity:1;" />
      <stop
         stop-color="#fdfcfc"
         offset="1"
         id="stop34" />
    </linearGradient>
    <linearGradient
       id="linearGradient32"
       x1="7.9373002"
       x2="7.9373002"
       y1="15.081"
       y2="1.852"
       gradientTransform="scale(3.7796)"
       gradientUnits="userSpaceOnUse"
       spreadMethod="pad">
      <stop
         stop-color="#f1efeb"
         offset="0"
         id="stop31"
         style="stop-color:#000000;stop-opacity:1;" />
      <stop
         stop-color="#fdfcfc"
         offset="1"
         id="stop32" />
    </linearGradient>
    <linearGradient
       id="linearGradient30"
       x1="7.9373002"
       x2="7.9373002"
       y1="15.081"
       y2="1.852"
       gradientTransform="scale(3.7796)"
       gradientUnits="userSpaceOnUse"
       spreadMethod="pad">
      <stop
         stop-color="#f1efeb"
         offset="0"
         id="stop29"
         style="stop-color:#000000;stop-opacity:1;" />
      <stop
         stop-color="#fdfcfc"
         offset="1"
         id="stop30" />
    </linearGradient>
    <linearGradient
       id="linearGradient28"
       x1="7.9373002"
       x2="7.9373002"
       y1="15.081"
       y2="1.852"
       gradientTransform="scale(3.7796)"
       gradientUnits="userSpaceOnUse"
       spreadMethod="pad">
      <stop
         stop-color="#f1efeb"
         offset="0"
         id="stop27"
         style="stop-color:#000000;stop-opacity:1;" />
      <stop
         stop-color="#fdfcfc"
         offset="1"
         id="stop28" />
    </linearGradient>
    <linearGradient
       id="linearGradient26"
       x1="7.9373002"
       x2="7.9373002"
       y1="15.081"
       y2="1.852"
       gradientTransform="scale(3.7796)"
       gradientUnits="userSpaceOnUse"
       spreadMethod="pad">
      <stop
         stop-color="#f1efeb"
         offset="0"
         id="stop25"
         style="stop-color:#000000;stop-opacity:1;" />
      <stop
         stop-color="#fdfcfc"
         offset="1"
         id="stop26" />
    </linearGradient>
    <linearGradient
       id="linearGradient24"
       x1="7.9373002"
       x2="7.9373002"
       y1="15.081"
       y2="1.852"
       gradientTransform="scale(3.7796)"
       gradientUnits="userSpaceOnUse"
       spreadMethod="pad">
      <stop
         stop-color="#f1efeb"
         offset="0"
         id="stop23"
         style="stop-color:#000000;stop-opacity:1;" />
      <stop
         stop-color="#fdfcfc"
         offset="1"
         id="stop24" />
    </linearGradient>
    <linearGradient
       id="linearGradient22"
       x1="7.9373002"
       x2="7.9373002"
       y1="15.081"
       y2="1.852"
       gradientTransform="scale(3.7796)"
       gradientUnits="userSpaceOnUse"
       spreadMethod="pad">
      <stop
         stop-color="#f1efeb"
         offset="0"
         id="stop21"
         style="stop-color:#040403;stop-opacity:1;" />
      <stop
         stop-color="#fdfcfc"
         offset="1"
         id="stop22" />
    </linearGradient>
    <linearGradient
       id="linearGradient20"
       x1="7.9373002"
       x2="7.9373002"
       y1="15.081"
       y2="1.852"
       gradientTransform="scale(3.7796)"
       gradientUnits="userSpaceOnUse"
       spreadMethod="pad">
      <stop
         stop-color="#f1efeb"
         offset="0"
         id="stop19"
         style="stop-color:#1d1a15;stop-opacity:1;" />
      <stop
         stop-color="#fdfcfc"
         offset="1"
         id="stop20" />
    </linearGradient>
    <linearGradient
       id="linearGradient18"
       x1="7.9373002"
       x2="7.9373002"
       y1="15.081"
       y2="1.852"
       gradientTransform="scale(3.7796)"
       gradientUnits="userSpaceOnUse"
       spreadMethod="pad">
      <stop
         stop-color="#f1efeb"
         offset="0"
         id="stop17"
         style="stop-color:#4b4435;stop-opacity:1;" />
      <stop
         stop-color="#fdfcfc"
         offset="1"
         id="stop18" />
    </linearGradient>
    <linearGradient
       id="linearGradient16"
       x1="7.9373002"
       x2="7.9373002"
       y1="15.081"
       y2="1.852"
       gradientTransform="scale(3.7796)"
       gradientUnits="userSpaceOnUse"
       spreadMethod="pad">
      <stop
         stop-color="#f1efeb"
         offset="0"
         id="stop15"
         style="stop-color:#635945;stop-opacity:1;" />
      <stop
         stop-color="#fdfcfc"
         offset="1"
         id="stop16" />
    </linearGradient>
    <linearGradient
       id="linearGradient14"
       x1="7.9373002"
       x2="7.9373002"
       y1="15.081"
       y2="1.852"
       gradientTransform="scale(3.7796)"
       gradientUnits="userSpaceOnUse"
       spreadMethod="pad">
      <stop
         stop-color="#f1efeb"
         offset="0"
         id="stop13"
         style="stop-color:#746851;stop-opacity:1;" />
      <stop
         stop-color="#fdfcfc"
         offset="1"
         id="stop14" />
    </linearGradient>
    <linearGradient
       id="linearGradient12"
       x1="7.9373002"
       x2="7.9373002"
       y1="15.081"
       y2="1.852"
       gradientTransform="scale(3.7796)"
       gradientUnits="userSpaceOnUse"
       spreadMethod="pad">
      <stop
         stop-color="#f1efeb"
         offset="0"
         id="stop11"
         style="stop-color:#7d7057;stop-opacity:1;" />
      <stop
         stop-color="#fdfcfc"
         offset="1"
         id="stop12" />
    </linearGradient>
    <linearGradient
       id="linearGradient10"
       x1="7.9373002"
       x2="7.9373002"
       y1="15.081"
       y2="1.852"
       gradientTransform="scale(3.7796)"
       gradientUnits="userSpaceOnUse"
       spreadMethod="pad">
      <stop
         stop-color="#f1efeb"
         offset="0"
         id="stop9"
         style="stop-color:#7f7259;stop-opacity:1;" />
      <stop
         stop-color="#fdfcfc"
         offset="1"
         id="stop10" />
    </linearGradient>
    <linearGradient
       id="linearGradient8"
       x1="7.9373"
       x2="7.9373"
       y1="15.081"
       y2="1.852"
       gradientTransform="scale(3.7796)"
       gradientUnits="userSpaceOnUse">
      <stop
         stop-color="#f1efeb"
         offset="0"
         id="stop7"
         style="stop-color:#7f7259;stop-opacity:1;" />
      <stop
         stop-color="#fdfcfc"
         offset="1"
         id="stop8" />
    </linearGradient>
    <linearGradient
       id="linearGradient862-3"
       x1="7.9373"
       x2="7.9373"
       y1="15.081"
       y2="1.852"
       gradientTransform="scale(3.7796)"
       gradientUnits="userSpaceOnUse"
       xlink:href="#linearGradient92">
      <stop
         stop-color="#f1efeb"
         offset="0"
         id="stop1" />
      <stop
         stop-color="#fdfcfc"
         offset="1"
         id="stop2" />
    </linearGradient>
    <linearGradient
       id="d"
       x1="45"
       x2="60.076"
       y1="19"
       y2="3.924"
       gradientTransform="translate(0.01285182,-0.00112622)"
       gradientUnits="userSpaceOnUse">
      <stop
         offset="0"
         stop-color="#fff"
         id="stop5" />
      <stop
         offset="1"
         stop-color="#b3b3b3"
         id="stop6" />
    </linearGradient>
    <linearGradient
       inkscape:collect="always"
       xlink:href="#linearGradient862-3"
       id="linearGradient5"
       gradientUnits="userSpaceOnUse"
       gradientTransform="matrix(3.7796,0,0,3.7796,-9.765e-4,0.0302735)"
       x1="7.9373"
       y1="15.081"
       x2="7.9373"
       y2="1.852" />
    <filter
       inkscape:collect="always"
       style="color-interpolation-filters:sRGB"
       id="filter95"
       x="-0.14695404"
       y="-0.14704597"
       width="1.2939081"
       height="1.2940919">
      <feGaussianBlur
         inkscape:collect="always"
         stdDeviation="1.5300537"
         id="feGaussianBlur95" />
    </filter>
    <linearGradient
       id="c"
       x1="32"
       x2="32"
       y1="11"
       y2="53"
       gradientUnits="userSpaceOnUse">
      <stop
         stop-color="#f7bd39"
         offset="0"
         id="stop3" />
      <stop
         stop-color="#f9e657"
         offset="1"
         id="stop4" />
    </linearGradient>
    <filter
       id="d-2"
       x="-0.059935206"
       y="-0.059935206"
       width="1.1198704"
       height="1.1198704"
       color-interpolation-filters="sRGB">
      <feGaussianBlur
         stdDeviation=".185"
         id="feGaussianBlur10" />
    </filter>
    <linearGradient
       id="e"
       x1="8.467"
       x2="8.467"
       y1="284.82999"
       y2="292.23999"
       gradientUnits="userSpaceOnUse">
      <stop
         stop-color="#525252"
         offset="0"
         id="stop5-0" />
      <stop
         stop-color="#1f1f1f"
         offset="1"
         id="stop6-2" />
    </linearGradient>
    <style
       id="current-color-scheme"
       type="text/css">.ColorScheme-Text { color:#363636; } .ColorScheme-Text { color:#363636; }</style>
    <filter
       inkscape:collect="always"
       style="color-interpolation-filters:sRGB"
       id="filter94"
       x="-0.069119996"
       y="-0.069119991"
       width="1.13824"
       height="1.13824">
      <feGaussianBlur
         inkscape:collect="always"
         stdDeviation="1.6128562"
         id="feGaussianBlur94" />
    </filter>
  </defs>
  <path
     id="path3-9-5"
     style="opacity:0.25;fill:#000000;fill-opacity:1;stroke-width:3.7796;filter:url(#filter94)"
     d="m 17.000977,3.9990253 c -7.2030941,0 -13.0019531,5.798859 -13.0019531,13.0019527 v 29.998047 c 0,7.203095 5.798859,13.001953 13.0019531,13.001953 h 29.998047 c 7.203095,0 13.001953,-5.798858 13.001953,-13.001953 V 28.971681 c -0.125226,-0.33309 -0.258163,-0.643195 -0.398438,-0.933593 -0.140274,-0.290399 -0.289006,-0.559404 -0.443359,-0.810547 -0.154353,-0.251144 -0.314961,-0.483894 -0.482422,-0.699219 -0.16746,-0.215325 -0.341887,-0.414714 -0.521484,-0.597656 -0.179598,-0.182943 -0.363924,-0.34991 -0.554688,-0.503907 -0.190764,-0.153996 -0.38693,-0.293388 -0.58789,-0.421875 -0.200961,-0.128487 -0.407002,-0.245149 -0.617188,-0.351562 0.210186,0.106413 0.416227,0.223075 0.617188,0.351562 0.20096,0.128487 0.397126,0.267879 0.58789,0.421875 0.190764,0.153997 0.37509,0.320964 0.554688,0.503907 0.179597,0.182942 0.354024,0.382331 0.521484,0.597656 0.167461,0.215325 0.328069,0.448075 0.482422,0.699219 0.154353,0.251143 0.303085,0.520148 0.443359,0.810547 0.140275,0.290398 0.273212,0.600503 0.398438,0.933593 V 28.833009 C 59.752065,21.784288 43.3712,5.1842293 35.799805,4.0341813 c -0.264999,-0.02 -0.52811,-0.03516 -0.787109,-0.03516 0.249999,0.0625 0.487549,0.146241 0.714843,0.246094 0.227295,0.09985 0.444337,0.21582 0.650391,0.349609 0.206054,0.133789 0.401612,0.284913 0.587891,0.449219 0.186279,0.164307 0.363281,0.341797 0.53125,0.533203 0.167968,0.191406 0.327392,0.396241 0.478515,0.611328 0.151123,0.215088 0.293946,0.44043 0.429688,0.675782 -0.135742,-0.235348 -0.278565,-0.46069 -0.429688,-0.675778 -0.151123,-0.215088 -0.310547,-0.419922 -0.478515,-0.611328 -0.167969,-0.191406 -0.344971,-0.368897 -0.53125,-0.533203 -0.186279,-0.164307 -0.381837,-0.31543 -0.587891,-0.449219 -0.206054,-0.133789 -0.423096,-0.249756 -0.650391,-0.349609 -0.227294,-0.099854 -0.464844,-0.183594 -0.714843,-0.246094 z m 22.728515,6.0253907 c 0.177735,0.564452 0.337891,1.138672 0.486329,1.708984 0.296875,1.140624 0.546875,2.265627 0.796875,3.265625 -0.25,-0.999998 -0.500001,-2.125001 -0.796875,-3.265625 -0.148438,-0.570312 -0.308594,-1.144532 -0.486329,-1.708984 z m 13.246094,13.580078 c 0.483513,0.09518 0.959749,0.196737 1.423828,0.318359 -0.464079,-0.121622 -0.940315,-0.223178 -1.423828,-0.318359 z"
     inkscape:label="Shadow" />
  <path
     d="m 17.000976,3.9990235 c -7.2031005,0 -13.0019525,5.798852 -13.0019525,13.0019525 v 29.998047 c 0,7.203102 5.798852,13.001953 13.0019525,13.001953 h 29.998047 c 7.203102,0 13.001953,-5.798851 13.001953,-13.001953 V 28.971679 c -2.003622,-5.329445 -5.995573,-4.974479 -9.988281,-5.972656 -5.819994,-1.454999 -8.030001,-4.120004 -9,-7.999999 -0.999999,-3.999997 -2.000003,-10.0000015 -6,-11.0000005 z"
     style="fill:url(#linearGradient5);stroke-width:3.7796"
     id="path3-9" />
  <rect
     fill="#363636"
     height="1.9764158"
     overflow="visible"
     style="color:#363636;fill:#212121;fill-opacity:1;stroke-width:1.49398;marker:none"
     width="15.810364"
     x="32.000969"
     y="33.976418"
     id="rect1-6-9-7" />
  <rect
     fill="#363636"
     height="1.9764158"
     overflow="visible"
     style="color:#363636;fill:#212121;fill-opacity:1;stroke-width:1.49398;marker:none"
     width="15.810364"
     x="32.000969"
     y="39.905663"
     id="rect2-5-1" />
  <rect
     fill="#363636"
     height="1.9764158"
     overflow="visible"
     style="color:#363636;fill:#212121;fill-opacity:1;stroke-width:1.49398;marker:none"
     width="15.810364"
     x="32.000969"
     y="45.834911"
     id="rect3-4-7" />
  <rect
     fill="#363636"
     height="1.9764158"
     overflow="visible"
     style="color:#363636;fill:#212121;fill-opacity:1;stroke-width:2.11288;marker:none"
     width="31.622673"
     x="16.188667"
     y="16.188675"
     id="rect1-6-2" />
  <rect
     fill="#363636"
     height="1.9764158"
     overflow="visible"
     style="color:#363636;fill:#212121;fill-opacity:1;stroke-width:2.11288;marker:none"
     width="31.622673"
     x="16.188667"
     y="22.117922"
     id="rect2-7" />
  <rect
     fill="#363636"
     height="1.9764158"
     overflow="visible"
     style="color:#363636;fill:#212121;fill-opacity:1;stroke-width:2.11288;marker:none"
     width="31.622673"
     x="16.188667"
     y="28.047171"
     id="rect3-2" />
  <path
     d="m 33.300709,4.6539948 c 3.999996,0.999999 5.000001,7.0000042 6,11.0000002 0.969999,3.879996 3.180006,6.545001 9,8 3.992708,0.998177 7.984659,0.64321 9.988281,5.972656 V 29.487979 C 58.040078,22.439251 41.659221,5.8391998 34.087818,4.6891508 c -0.264999,-0.02 -0.528109,-0.03516 -0.787109,-0.03516 z"
     style="display:inline;opacity:0.25;fill:#000000;fill-opacity:1;filter:url(#filter95)"
     id="path5-6" />
  <path
     d="m 35.012695,3.9990237 c 3.999996,0.999999 5.000001,7.0000043 6,11.0000003 0.969999,3.879996 3.180006,6.545001 9,8 3.992708,0.998177 7.984659,0.64321 9.988281,5.972656 V 28.833008 C 59.752064,21.78428 43.371207,5.1842286 35.799804,4.0341799 c -0.264999,-0.02 -0.528109,-0.035156 -0.787109,-0.035156 z"
     style="display:inline;fill:url(#d)"
     id="path5" />
  <title
     id="title1">Gnome Symbolic Icons</title>
  <metadata
     id="metadata2">
    <rdf:RDF>
      <cc:Work
         rdf:about="">
        <dc:title>Gnome Symbolic Icons</dc:title>
      </cc:Work>
    </rdf:RDF>
  </metadata>
  <path
     d="m 23.146756,38.329319 a 2.6117359,2.6117359 0 0 0 -2.611736,2.611736 2.6117359,2.6117359 0 0 0 2.611736,2.611736 2.6117359,2.6117359 0 0 0 2.611736,-2.611736 2.6117359,2.6117359 0 0 0 -2.611736,-2.611736 z m 0,0.870578 a 1.7411573,1.7411573 0 0 1 1.741158,1.741158 1.7411573,1.7411573 0 0 1 -1.741158,1.741157 1.7411573,1.7411573 0 0 1 -1.741157,-1.741157 1.7411573,1.7411573 0 0 1 1.741157,-1.741158 z"
     fill="#363636"
     style="fill:#212121;fill-opacity:1;stroke-width:0.870579;paint-order:fill markers stroke"
     id="path1-1" />
  <path
     d="m 22.641734,33.976426 c -0.194026,0 -0.466178,0.0537 -0.692041,0.243152 -0.225863,0.189456 -0.33384,0.468302 -0.360471,0.668239 l 0.017,-0.08842 -0.297564,1.237876 c -0.12135,0.04455 -0.235622,0.09252 -0.350268,0.144533 l -1.078038,-0.659733 a 0.8706657,0.8706657 0 0 0 -0.0068,-0.0034 c -0.155477,-0.09338 -0.41289,-0.190431 -0.690343,-0.156434 -0.277454,0.034 -0.483189,0.178399 -0.601927,0.28736 a 0.8706657,0.8706657 0 0 0 -0.0221,0.02041 l -0.714144,0.702243 a 0.8706657,0.8706657 0 0 0 -0.03231,0.03231 c -0.134687,0.147085 -0.269914,0.397028 -0.285654,0.659733 -0.01574,0.262706 0.07128,0.47699 0.151333,0.617223 a 0.8706657,0.8706657 0 0 0 0.017,0.02721 l 0.669937,1.079691 c -0.04817,0.105227 -0.0863,0.217036 -0.130927,0.334973 l -1.225948,0.289058 a 0.8706657,0.8706657 0 0 0 -0.0119,0.0017 c -0.140938,0.03529 -0.382768,0.117633 -0.576419,0.350269 -0.193652,0.232636 -0.238051,0.51688 -0.238051,0.690343 v 0.999772 c 0,0.193782 0.05401,0.46435 0.243152,0.690343 0.189142,0.225994 0.466387,0.333728 0.666542,0.360472 l -0.08672,-0.0153 1.23953,0.295857 c 0.04076,0.109075 0.08136,0.213945 0.127523,0.316264 l -0.671635,1.095014 c -0.08963,0.145735 -0.18666,0.373087 -0.163233,0.654632 0.02343,0.281545 0.185137,0.541465 0.341772,0.685241 l 0.681837,0.681837 c 0.134426,0.134609 0.356215,0.282555 0.63083,0.316264 0.274615,0.03371 0.53087,-0.05822 0.690343,-0.156434 l 1.089964,-0.671634 c 0.1081,0.05004 0.216356,0.09697 0.329871,0.139431 l 0.304363,1.246321 -0.017,-0.09182 c 0.02697,0.202479 0.146788,0.498589 0.382575,0.683543 0.235788,0.184955 0.493061,0.221049 0.669937,0.221049 h 1.016836 c 0.176884,0 0.446371,-0.04382 0.676735,-0.229545 0.230364,-0.185721 0.331395,-0.448096 0.365574,-0.61893 l -0.0068,0.0357 0.304363,-1.244666 c 0.113689,-0.04297 0.222921,-0.08967 0.329871,-0.139432 l 1.081433,0.669936 a 0.8706657,0.8706657 0 0 0 0.0017,0 c 0.159542,0.09831 0.415736,0.190134 0.690343,0.156434 0.274606,-0.03371 0.496395,-0.181681 0.63083,-0.316263 a 0.8706657,0.8706657 0 0 0 0.0034,-0.0017 l 0.678442,-0.686938 c 0.146988,-0.13487 0.317361,-0.395017 0.341772,-0.681838 0.02441,-0.28682 -0.07225,-0.501688 -0.147929,-0.634234 a 0.8706657,0.8706657 0 0 0 -0.0153,-0.02551 l -0.669936,-1.084829 c 0.04682,-0.102136 0.0878,-0.206945 0.129229,-0.316263 l 1.242925,-0.297564 -0.08672,0.01531 c 0.202715,-0.02709 0.49724,-0.14671 0.681838,-0.382576 0.184597,-0.235866 0.221048,-0.491564 0.221048,-0.668239 v -0.999772 c 0,-0.157305 -0.02673,-0.422901 -0.215947,-0.666533 -0.18922,-0.24364 -0.446624,-0.33775 -0.591723,-0.374079 a 0.8706657,0.8706657 0 0 0 -0.0119,-0.0017 l -1.225949,-0.289058 c -0.04591,-0.119226 -0.08271,-0.232192 -0.130926,-0.33667 l 0.656338,-1.066111 c 0.09143,-0.142392 0.19803,-0.365721 0.180235,-0.656338 -0.01779,-0.290616 -0.186808,-0.561923 -0.343469,-0.705647 l -0.688645,-0.676736 c -0.125903,-0.126016 -0.351679,-0.282259 -0.629132,-0.316264 -0.277445,-0.03401 -0.511056,0.05515 -0.652934,0.130927 a 0.8706657,0.8706657 0 0 0 -0.04421,0.02551 l -1.074643,0.659733 c -0.109162,-0.05042 -0.223112,-0.09389 -0.341771,-0.139432 l -0.292463,-1.200441 c -0.03168,-0.168979 -0.124597,-0.431781 -0.357076,-0.625728 -0.232471,-0.193948 -0.5117,-0.239749 -0.688645,-0.239749 H 22.64176 Z m 0,0.870578 h 1.016836 c 0.114594,0 0.168491,0.04676 0.188741,0.154728 l 0.40468,1.668029 c 0.438188,0.107978 0.836225,0.288832 1.173279,0.4778 l 1.443593,-0.88416 c 0.101092,-0.05399 0.174133,-0.04698 0.255054,0.03401 l 0.714144,0.702243 c 0.08092,0.07424 0.08108,0.155468 0.02041,0.249952 L 26.969175,38.6932 c 0.161762,0.303692 0.364729,0.722763 0.465899,1.174933 l 1.657843,0.391081 c 0.107839,0.027 0.147929,0.07406 0.147929,0.195541 v 0.999772 c 0,0.114716 -0.04684,0.17523 -0.147929,0.188742 l -1.664633,0.39788 c -0.10117,0.425156 -0.28394,0.837384 -0.472699,1.154561 l 0.896087,1.450384 c 0.05392,0.09444 0.05372,0.168901 -0.0272,0.243153 l -0.707346,0.715851 c -0.08092,0.08101 -0.162354,0.08628 -0.249951,0.03231 l -1.44873,-0.896087 c -0.337019,0.209235 -0.721536,0.37656 -1.166402,0.484599 l -0.404679,1.661238 c -0.02025,0.101205 -0.07415,0.147929 -0.188742,0.147929 h -1.016836 c -0.114594,0 -0.175256,-0.04672 -0.188741,-0.147929 L 22.048365,45.22592 C 21.623662,45.124638 21.2122,44.950548 20.881955,44.741313 L 19.426434,45.6374 c -0.08764,0.05398 -0.169049,0.0487 -0.249951,-0.03231 l -0.707346,-0.70904 c -0.08089,-0.07425 -0.08114,-0.155451 -0.0272,-0.243153 l 0.896086,-1.457174 C 19.149268,42.87185 18.973237,42.466369 18.87212,42.041161 l -1.664634,-0.39788 c -0.101129,-0.01351 -0.15473,-0.07402 -0.15473,-0.188742 v -0.999772 c 0,-0.121472 0.04686,-0.168535 0.154727,-0.195541 l 1.659497,-0.391081 c 0.101118,-0.452161 0.295675,-0.871275 0.464193,-1.174933 l -0.896087,-1.443593 c -0.05393,-0.09448 -0.05375,-0.175779 0.02041,-0.256752 l 0.714144,-0.702243 c 0.08089,-0.07423 0.155634,-0.08795 0.256751,-0.02721 l 1.441853,0.88416 c 0.303361,-0.188959 0.755409,-0.376621 1.186859,-0.484599 l 0.397881,-1.661238 c 0.01348,-0.101222 0.07415,-0.154728 0.188741,-0.154728 z"
     color="#000000"
     fill="#363636"
     stroke-linecap="round"
     stroke-linejoin="round"
     style="fill:#212121;fill-opacity:1;stroke-width:0.870579;-inkscape-stroke:none"
     id="path2-5" />
</svg>
