<?xml version="1.0" encoding="UTF-8"?>
<svg id="svg2" width="64" height="64" version="1.1" xmlns="http://www.w3.org/2000/svg" xmlns:xlink="http://www.w3.org/1999/xlink">
 <defs id="defs2">
  <linearGradient id="d" x1="45" x2="60.076" y1="19" y2="3.924" gradientTransform="translate(.013 -.001)" gradientUnits="userSpaceOnUse">
   <stop id="stop5" stop-color="#fff" offset="0"/>
   <stop id="stop6" stop-color="#b3b3b3" offset="1"/>
  </linearGradient>
  <linearGradient id="linearGradient5" x1="7.937" x2="7.937" y1="15.081" y2="1.852" gradientTransform="translate(-.001 .03) scale(3.7796)" gradientUnits="userSpaceOnUse">
   <stop id="stop1" stop-color="#f1efeb" offset="0"/>
   <stop id="stop2" stop-color="#fdfcfc" offset="1"/>
  </linearGradient>
  <filter id="filter95" x="-.147" y="-.147" width="1.294" height="1.294" color-interpolation-filters="sRGB">
   <feGaussianBlur id="feGaussianBlur95" stdDeviation="1.53"/>
  </filter>
  <filter id="filter94" x="-.069" y="-.069" width="1.138" height="1.138" color-interpolation-filters="sRGB">
   <feGaussianBlur id="feGaussianBlur94" stdDeviation="1.613"/>
  </filter>
  <style id="current-color-scheme" type="text/css">.ColorScheme-Text{color:#363636}</style>
 </defs>
 <path id="path3-9-5" d="M17.001 3.999A12.973 12.973 0 0 0 3.999 17.001v29.998a12.973 12.973 0 0 0 13.002 13.002h29.998a12.973 12.973 0 0 0 13.002-13.002V28.972a11.223 11.223 0 0 0-.398-.934 9.03 9.03 0 0 0-.444-.81 7.73 7.73 0 0 0-.482-.7 6.894 6.894 0 0 0-.522-.597 6.475 6.475 0 0 0-1.142-.926 7.086 7.086 0 0 0 .588.422 6.894 6.894 0 0 1 1.076 1.102c.167.215.328.447.482.699.155.25.303.52.444.81.14.29.273.6.398.934v-.139C59.752 21.784 43.371 5.184 35.8 4.034A10.5 10.5 0 0 0 35.013 4a4.557 4.557 0 0 1 1.953 1.045c.186.164.363.342.531.533a5.89 5.89 0 0 0-.531-.533A4.557 4.557 0 0 0 35.013 4zm22.728 6.025c.178.565.338 1.14.487 1.71.297 1.14.547 2.265.797 3.265-.25-1-.5-2.125-.797-3.266a35.341 35.341 0 0 0-.487-1.709zm13.247 13.58z" filter="url(#filter94)" opacity=".25" stroke-width="3.7796"/>
 <path id="path3-9" d="M17.001 3.999A12.973 12.973 0 0 0 3.999 17.001v29.998a12.973 12.973 0 0 0 13.002 13.002h29.998a12.973 12.973 0 0 0 13.002-13.002V28.972c-2.004-5.33-5.996-4.975-9.988-5.973-5.82-1.455-8.03-4.12-9-8-1-4-2-10-6-11z" fill="url(#linearGradient5)" stroke-width="3.7796"/>
 <path id="rect1-6-9-7" d="m32.001 33.976h15.81v1.976h-15.81z" color="#363636" fill="#212121" overflow="visible" stroke-width="1.494"/>
 <path id="rect2-5-1" d="m32.001 39.906h15.81v1.976h-15.81z" color="#363636" fill="#212121" overflow="visible" stroke-width="1.494"/>
 <path id="rect3-4-7" d="m32.001 45.835h15.81v1.976h-15.81z" color="#363636" fill="#212121" overflow="visible" stroke-width="1.494"/>
 <path id="rect1-6-2" d="M16.189 16.189h31.623v1.976H16.189z" color="#363636" fill="#212121" overflow="visible" stroke-width="2.1129"/>
 <path id="rect2-7" d="M16.189 22.118h31.623v1.976H16.189z" color="#363636" fill="#212121" overflow="visible" stroke-width="2.1129"/>
 <path id="rect3-2" d="M16.189 28.047h31.623v1.976H16.189z" color="#363636" fill="#212121" overflow="visible" stroke-width="2.1129"/>
 <path id="path5-6" d="M33.3 4.654c4 1 5 7 6 11 .97 3.88 3.18 6.545 9 8 3.993.998 7.985.643 9.989 5.973v-.139c-.249-7.049-16.63-23.649-24.201-24.799a10.5 10.5 0 0 0-.787-.035z" filter="url(#filter95)" opacity=".25"/>
 <path id="path5" d="M35.013 3.999c4 1 5 7 6 11 .97 3.88 3.18 6.545 9 8 3.992.998 7.984.643 9.988 5.973v-.139C59.752 21.784 43.371 5.184 35.8 4.034A10.5 10.5 0 0 0 35.013 4z" fill="url(#d)"/>
 <path id="path1-1" d="M23.147 38.33a2.612 2.612 0 0 0-2.612 2.611 2.612 2.612 0 0 0 2.612 2.612 2.612 2.612 0 0 0 2.611-2.612 2.612 2.612 0 0 0-2.611-2.612zm0 .87a1.741 1.741 0 0 1 1.74 1.741 1.741 1.741 0 0 1-1.74 1.741 1.741 1.741 0 0 1-1.741-1.74 1.741 1.741 0 0 1 1.74-1.742z" fill="#212121" stroke-width=".87058" style="paint-order:fill markers stroke"/>
 <path id="path2-5" d="M22.642 33.976c-.194 0-.466.054-.692.244a1.086 1.086 0 0 0-.36.668l.016-.089-.297 1.238a5.063 5.063 0 0 0-.35.145l-1.079-.66a.87.87 0 0 0-.006-.003 1.123 1.123 0 0 0-.69-.157 1.1 1.1 0 0 0-.603.288.87.87 0 0 0-.022.02l-.714.702a.87.87 0 0 0-.032.033c-.135.147-.27.397-.286.66-.016.262.071.476.151.617a.87.87 0 0 0 .017.027l.67 1.08c-.048.105-.086.216-.13.334l-1.227.29a.87.87 0 0 0-.011.001 1.076 1.076 0 0 0-.577.35 1.1 1.1 0 0 0-.238.69v1c0 .194.054.465.243.69.19.227.467.335.667.361l-.087-.015 1.24.296c.04.109.081.214.127.316l-.672 1.095c-.09.146-.186.373-.163.655.024.281.185.541.342.685l.682.682c.134.135.356.282.63.316.275.034.532-.058.691-.156l1.09-.672c.108.05.216.097.33.14l.304 1.246L21.59 47a1.1 1.1 0 0 0 .383.684c.236.185.493.22.67.22h1.017c.176 0 .446-.043.676-.229.23-.186.332-.448.366-.619l-.007.036.304-1.245c.114-.043.223-.09.33-.14l1.082.67a.87.87 0 0 0 .001 0c.16.099.416.19.69.157.275-.034.497-.182.632-.316a.87.87 0 0 0 .003-.002l.678-.687c.147-.135.318-.395.342-.682a1.07 1.07 0 0 0-.148-.634.87.87 0 0 0-.015-.025l-.67-1.085a5.05 5.05 0 0 0 .13-.316l1.242-.298-.086.015c.202-.027.497-.146.681-.382.185-.236.221-.492.221-.669v-1c0-.157-.026-.422-.216-.666a1.08 1.08 0 0 0-.591-.374.87.87 0 0 0-.012-.002l-1.226-.289c-.046-.119-.083-.232-.131-.336l.656-1.066a1.08 1.08 0 0 0 .18-.657 1.116 1.116 0 0 0-.343-.705l-.689-.677a1.118 1.118 0 0 0-.629-.316 1.11 1.11 0 0 0-.653.13.87.87 0 0 0-.044.026l-1.075.66c-.109-.05-.223-.094-.341-.14l-.293-1.2a1.082 1.082 0 0 0-.357-.626 1.091 1.091 0 0 0-.688-.24h-1.017Zm0 .871h1.017c.114 0 .168.047.188.155l.405 1.668c.438.108.836.289 1.173.478l1.444-.885c.101-.054.174-.047.255.034l.714.703c.081.074.081.155.02.25l-.889 1.443c.162.304.365.723.466 1.175l1.658.391c.108.027.148.074.148.196v1c0 .114-.047.175-.148.188l-1.665.398a4.27 4.27 0 0 1-.472 1.155l.896 1.45c.054.095.053.169-.028.243l-.707.716c-.08.081-.162.086-.25.032l-1.449-.896a3.94 3.94 0 0 1-1.166.485l-.405 1.661c-.02.101-.074.148-.188.148h-1.017c-.115 0-.175-.047-.189-.148l-.405-1.661a3.935 3.935 0 0 1-1.166-.485l-1.456.896c-.087.054-.169.05-.25-.032l-.707-.709c-.08-.074-.081-.155-.027-.243l.896-1.457a4.352 4.352 0 0 1-.466-1.155l-1.665-.398c-.1-.013-.154-.074-.154-.188v-1c0-.122.047-.169.154-.196l1.66-.39c.101-.453.296-.872.464-1.176l-.896-1.443c-.054-.095-.054-.176.02-.257l.715-.702c.08-.075.155-.088.256-.028l1.442.885a4.451 4.451 0 0 1 1.187-.485l.398-1.661c.013-.101.074-.155.189-.155z" fill="#212121" stroke-linecap="round" stroke-linejoin="round" stroke-width=".87058" style="-inkscape-stroke:none"/>
</svg>
