<?xml version="1.0" encoding="UTF-8"?>
<svg id="svg2" width="64" height="64" version="1.1" xmlns="http://www.w3.org/2000/svg" xmlns:xlink="http://www.w3.org/1999/xlink">
 <defs id="defs2">
  <linearGradient id="d" x1="45" x2="60.076" y1="19" y2="3.924" gradientTransform="translate(.013 -.001)" gradientUnits="userSpaceOnUse">
   <stop id="stop5" stop-color="#fff" offset="0"/>
   <stop id="stop6" stop-color="#b3b3b3" offset="1"/>
  </linearGradient>
  <linearGradient id="linearGradient5" x1="7.937" x2="7.937" y1="15.081" y2="1.852" gradientTransform="translate(-.001 .03) scale(3.7796)" gradientUnits="userSpaceOnUse">
   <stop id="stop1" stop-color="#f1efeb" offset="0"/>
   <stop id="stop2" stop-color="#fdfcfc" offset="1"/>
  </linearGradient>
  <filter id="filter95" x="-.147" y="-.147" width="1.294" height="1.294" color-interpolation-filters="sRGB">
   <feGaussianBlur id="feGaussianBlur95" stdDeviation="1.53"/>
  </filter>
  <filter id="filter94" x="-.069" y="-.069" width="1.138" height="1.138" color-interpolation-filters="sRGB">
   <feGaussianBlur id="feGaussianBlur94" stdDeviation="1.613"/>
  </filter>
  <style id="current-color-scheme" type="text/css">.ColorScheme-Text{color:#363636}</style>
 </defs>
 <path id="path3-9-5" d="M17.001 3.999A12.973 12.973 0 0 0 3.999 17.001v29.998a12.973 12.973 0 0 0 13.002 13.002h29.998a12.973 12.973 0 0 0 13.002-13.002V28.972a11.223 11.223 0 0 0-.398-.934 9.03 9.03 0 0 0-.444-.81 7.73 7.73 0 0 0-.482-.7 6.894 6.894 0 0 0-.522-.597 6.475 6.475 0 0 0-1.142-.926 7.086 7.086 0 0 0 .588.422 6.894 6.894 0 0 1 1.076 1.102c.167.215.328.447.482.699.155.25.303.52.444.81.14.29.273.6.398.934v-.139C59.752 21.784 43.371 5.184 35.8 4.034A10.5 10.5 0 0 0 35.013 4a4.557 4.557 0 0 1 1.953 1.045c.186.164.363.342.531.533a5.89 5.89 0 0 0-.531-.533A4.557 4.557 0 0 0 35.013 4Zm22.728 6.025c.178.565.338 1.14.487 1.71.297 1.14.547 2.265.797 3.265-.25-1-.5-2.125-.797-3.266a35.341 35.341 0 0 0-.487-1.709zm13.247 13.58z" filter="url(#filter94)" opacity=".25" stroke-width="3.7796"/>
 <path id="path3-9" d="M17.001 3.999A12.973 12.973 0 0 0 3.999 17.001v29.998a12.973 12.973 0 0 0 13.002 13.002h29.998a12.973 12.973 0 0 0 13.002-13.002V28.972c-2.004-5.33-5.996-4.975-9.988-5.973-5.82-1.455-8.03-4.12-9-8-1-4-2-10-6-11z" fill="url(#linearGradient5)" stroke-width="3.7796"/>
 <path id="path6" d="M32.002 15.99a.456.456 0 0 0-.396.2l-.83 1.348-.392.04-1.081-1.157c-.218-.234-.662-.15-.771.153l-.553 1.477-.383.117-1.279-.92c-.262-.19-.678-.016-.726.298l-.258 1.562-.351.185-1.437-.653c-.29-.133-.665.117-.653.436l.052 1.581-.302.25-1.541-.363c-.311-.073-.63.242-.557.557l.363 1.54-.25.303-1.582-.052c-.318-.012-.568.363-.435.654l.653 1.44-.185.347-1.562.254c-.314.052-.484.468-.302.726l.928 1.283-.121.383-1.477.553c-.299.109-.387.553-.153.77l1.158 1.078-.04.395-1.344.831c-.275.17-.275.622 0 .787l1.343.835.04.391-1.157 1.078c-.234.217-.146.661.153.774l1.477.553.12.38-.927 1.282c-.186.258-.012.678.302.726l1.562.254.185.351-.653 1.437c-.133.294.117.67.435.657l1.582-.056.25.302-.363 1.542c-.073.31.242.629.557.556l1.54-.363.303.25-.052 1.582c-.012.323.363.573.653.436l1.437-.654.35.19.255 1.557c.052.314.468.484.726.302l1.283-.928.383.122.553 1.476c.109.299.553.387.77.153l1.078-1.157.395.04.831 1.347c.17.27.621.27.787 0l.835-1.347.391-.04 1.077 1.157c.218.234.662.146.775-.153l.553-1.476.379-.122 1.283.928c.258.186.674.012.726-.302l.254-1.557.351-.19 1.437.654c.294.137.665-.113.657-.436l-.056-1.582.302-.25 1.541.363c.315.073.63-.242.557-.556l-.363-1.542.25-.302 1.582.056c.322.012.573-.363.435-.657l-.653-1.437.19-.35 1.557-.255c.318-.048.488-.468.302-.726l-.924-1.283.117-.38 1.477-.552c.303-.113.387-.557.153-.774l-1.158-1.078.04-.39 1.348-.836c.27-.165.27-.617 0-.787l-1.347-.83-.04-.396 1.157-1.077c.234-.218.15-.662-.153-.77l-1.477-.554-.117-.383.924-1.279c.186-.262.012-.678-.302-.726l-1.562-.258-.185-.347.653-1.44c.138-.29-.113-.666-.435-.654l-1.582.052-.25-.302.363-1.541c.073-.31-.242-.63-.557-.557l-1.54.363-.303-.25.056-1.581c.012-.323-.363-.57-.657-.436l-1.437.653-.35-.185-.255-1.562c-.052-.314-.468-.488-.726-.302l-1.283.924-.38-.117-.552-1.477c-.113-.302-.553-.387-.775-.153l-1.077 1.158-.391-.04-.835-1.348a.456.456 0 0 0-.391-.202zm-.053 2.82c.476 0 .952.318.952.951 0 1.267-1.904 1.267-1.904 0 0-.633.476-.952.952-.952zm2.21 1.569a11.716 11.716 0 0 1 8.021 5.712l-1.121 2.534a.871.871 0 0 0 .443 1.15l2.159.956c.069.678.077 1.36.024 2.037h-1.202c-.121 0-.17.08-.17.198v.549c0 1.303-.73 1.585-1.371 1.654-.613.072-1.291-.255-1.372-.63-.363-2.029-.968-2.46-1.916-3.211 1.178-.746 2.404-1.852 2.404-3.328 0-1.594-1.09-2.599-1.84-3.095a4.874 4.874 0 0 0-2.513-.75H23.271a11.829 11.829 0 0 1 6.556-3.776l1.464 1.537a.864.864 0 0 0 1.227.028zm-13.563 7.048c.476 0 .952.318.952.952 0 1.267-1.904 1.267-1.904 0 0-.634.476-.952.952-.952zm22.706.044c.476 0 .952.319.952.952 0 1.267-1.9 1.267-1.9 0 0-.633.472-.952.948-.952zm-20.709.375h1.4v7.42h-3.268a12.527 12.527 0 0 1-.375-4.628l2.05-.912a.867.867 0 0 0 .443-1.145Zm6.326 0h4.33c.205 0 1.443.08 1.443 1.009 0 .766-.948 1.15-1.73 1.15h-4.043zm0 4.926h3.458c.274 0 1.476.388 1.86 1.925.12.472.387 2.009.564 2.5.182.554.916 1.736 1.695 1.736h4.946c-.33.444-.694.782-1.09 1.178l-2.008-.436a.867.867 0 0 0-1.03.67l-.48 2.227a11.708 11.708 0 0 1-9.77-.045l-.477-2.23a.867.867 0 0 0-1.032-.666l-1.97.423c-.362-.379-.705-.702-1.016-1.121h9.433v-3.696h-3.083zm-4.022 8.069c.476 0 .952.315.952.948 0 1.27-1.9 1.27-1.904 0 0-.633.476-.952.952-.952zm14.104.04c.476 0 .952.32.952.952 0 1.271-1.904 1.271-1.904 0 0-.633.476-.952.952-.952z" fill="#212121" stroke-width="4.0344"/>
 <path id="path5-6" d="M33.3 4.654c4 1 5 7 6 11 .97 3.88 3.18 6.545 9 8 3.993.998 7.985.643 9.989 5.973v-.139c-.249-7.049-16.63-23.649-24.201-24.799a10.5 10.5 0 0 0-.787-.035z" filter="url(#filter95)" opacity=".25"/>
 <path id="path5" d="M35.013 3.999c4 1 5 7 6 11 .97 3.88 3.18 6.545 9 8 3.992.998 7.984.643 9.988 5.973v-.139C59.752 21.784 43.371 5.184 35.8 4.034A10.5 10.5 0 0 0 35.013 4z" fill="url(#d)"/>
</svg>
