<svg width="64" height="64" version="1.1" id="svg2" xmlns:xlink="http://www.w3.org/1999/xlink" xmlns="http://www.w3.org/2000/svg"><defs id="defs2"><linearGradient id="linearGradient92" x1="7.937" x2="7.937" y1="15.081" y2="1.852" gradientTransform="scale(3.7796)" gradientUnits="userSpaceOnUse" spreadMethod="pad"><stop stop-color="#f1efeb" offset="0" id="stop91" style="stop-color:#695e49;stop-opacity:1"/><stop stop-color="#fdfcfc" offset="1" id="stop92"/></linearGradient><linearGradient id="linearGradient90" x1="7.937" x2="7.937" y1="15.081" y2="1.852" gradientTransform="scale(3.7796)" gradientUnits="userSpaceOnUse" spreadMethod="pad"><stop stop-color="#f1efeb" offset="0" id="stop89" style="stop-color:#6a5f4a;stop-opacity:1"/><stop stop-color="#fdfcfc" offset="1" id="stop90"/></linearGradient><linearGradient id="linearGradient88" x1="7.937" x2="7.937" y1="15.081" y2="1.852" gradientTransform="scale(3.7796)" gradientUnits="userSpaceOnUse" spreadMethod="pad"><stop stop-color="#f1efeb" offset="0" id="stop87" style="stop-color:#70654e;stop-opacity:1"/><stop stop-color="#fdfcfc" offset="1" id="stop88"/></linearGradient><linearGradient id="linearGradient86" x1="7.937" x2="7.937" y1="15.081" y2="1.852" gradientTransform="scale(3.7796)" gradientUnits="userSpaceOnUse" spreadMethod="pad"><stop stop-color="#f1efeb" offset="0" id="stop85" style="stop-color:#948567;stop-opacity:1"/><stop stop-color="#fdfcfc" offset="1" id="stop86"/></linearGradient><linearGradient id="linearGradient84" x1="7.937" x2="7.937" y1="15.081" y2="1.852" gradientTransform="scale(3.7796)" gradientUnits="userSpaceOnUse" spreadMethod="pad"><stop stop-color="#f1efeb" offset="0" id="stop83" style="stop-color:#aca189;stop-opacity:1"/><stop stop-color="#fdfcfc" offset="1" id="stop84"/></linearGradient><linearGradient id="linearGradient82" x1="7.937" x2="7.937" y1="15.081" y2="1.852" gradientTransform="scale(3.7796)" gradientUnits="userSpaceOnUse" spreadMethod="pad"><stop stop-color="#f1efeb" offset="0" id="stop81" style="stop-color:#c1b9a7;stop-opacity:1"/><stop stop-color="#fdfcfc" offset="1" id="stop82"/></linearGradient><linearGradient id="linearGradient80" x1="7.937" x2="7.937" y1="15.081" y2="1.852" gradientTransform="scale(3.7796)" gradientUnits="userSpaceOnUse" spreadMethod="pad"><stop stop-color="#f1efeb" offset="0" id="stop79" style="stop-color:#d0c9bb;stop-opacity:1"/><stop stop-color="#fdfcfc" offset="1" id="stop80"/></linearGradient><linearGradient id="linearGradient78" x1="7.937" x2="7.937" y1="15.081" y2="1.852" gradientTransform="scale(3.7796)" gradientUnits="userSpaceOnUse" spreadMethod="pad"><stop stop-color="#f1efeb" offset="0" id="stop77" style="stop-color:#dcd7cd;stop-opacity:1"/><stop stop-color="#fdfcfc" offset="1" id="stop78"/></linearGradient><linearGradient id="linearGradient76" x1="7.937" x2="7.937" y1="15.081" y2="1.852" gradientTransform="scale(3.7796)" gradientUnits="userSpaceOnUse" spreadMethod="pad"><stop stop-color="#f1efeb" offset="0" id="stop75" style="stop-color:#e2ddd5;stop-opacity:1"/><stop stop-color="#fdfcfc" offset="1" id="stop76"/></linearGradient><linearGradient id="linearGradient74" x1="7.937" x2="7.937" y1="15.081" y2="1.852" gradientTransform="scale(3.7796)" gradientUnits="userSpaceOnUse" spreadMethod="pad"><stop stop-color="#f1efeb" offset="0" id="stop73" style="stop-color:#e2ded5;stop-opacity:1"/><stop stop-color="#fdfcfc" offset="1" id="stop74"/></linearGradient><linearGradient id="linearGradient72" x1="7.937" x2="7.937" y1="15.081" y2="1.852" gradientTransform="scale(3.7796)" gradientUnits="userSpaceOnUse" spreadMethod="pad"><stop stop-color="#f1efeb" offset="0" id="stop71" style="stop-color:#9a8b6e;stop-opacity:1"/><stop stop-color="#fdfcfc" offset="1" id="stop72"/></linearGradient><linearGradient id="linearGradient70" x1="7.937" x2="7.937" y1="15.081" y2="1.852" gradientTransform="scale(3.7796)" gradientUnits="userSpaceOnUse" spreadMethod="pad"><stop stop-color="#f1efeb" offset="0" id="stop69" style="stop-color:#756a52;stop-opacity:1"/><stop stop-color="#fdfcfc" offset="1" id="stop70"/></linearGradient><linearGradient id="linearGradient68" x1="7.937" x2="7.937" y1="15.081" y2="1.852" gradientTransform="scale(3.7796)" gradientUnits="userSpaceOnUse" spreadMethod="pad"><stop stop-color="#f1efeb" offset="0" id="stop67" style="stop-color:#574e3d;stop-opacity:1"/><stop stop-color="#fdfcfc" offset="1" id="stop68"/></linearGradient><linearGradient id="linearGradient66" x1="7.937" x2="7.937" y1="15.081" y2="1.852" gradientTransform="scale(3.7796)" gradientUnits="userSpaceOnUse" spreadMethod="pad"><stop stop-color="#f1efeb" offset="0" id="stop65" style="stop-color:#4d4536;stop-opacity:1"/><stop stop-color="#fdfcfc" offset="1" id="stop66"/></linearGradient><linearGradient id="linearGradient64" x1="7.937" x2="7.937" y1="15.081" y2="1.852" gradientTransform="scale(3.7796)" gradientUnits="userSpaceOnUse" spreadMethod="pad"><stop stop-color="#f1efeb" offset="0" id="stop63" style="stop-color:#4d4536;stop-opacity:1"/><stop stop-color="#fdfcfc" offset="1" id="stop64"/></linearGradient><linearGradient id="linearGradient62" x1="7.937" x2="7.937" y1="15.081" y2="1.852" gradientTransform="scale(3.7796)" gradientUnits="userSpaceOnUse" spreadMethod="pad"><stop stop-color="#f1efeb" offset="0" id="stop61" style="stop-color:#0c0b08;stop-opacity:1"/><stop stop-color="#fdfcfc" offset="1" id="stop62"/></linearGradient><linearGradient id="linearGradient60" x1="7.937" x2="7.937" y1="15.081" y2="1.852" gradientTransform="scale(3.7796)" gradientUnits="userSpaceOnUse" spreadMethod="pad"><stop stop-color="#f1efeb" offset="0" id="stop59" style="stop-color:#0b0a08;stop-opacity:1"/><stop stop-color="#fdfcfc" offset="1" id="stop60"/></linearGradient><linearGradient id="linearGradient58" x1="7.937" x2="7.937" y1="15.081" y2="1.852" gradientTransform="scale(3.7796)" gradientUnits="userSpaceOnUse" spreadMethod="pad"><stop stop-color="#f1efeb" offset="0" id="stop57" style="stop-color:#0b0a08;stop-opacity:1"/><stop stop-color="#fdfcfc" offset="1" id="stop58"/></linearGradient><linearGradient id="linearGradient56" x1="7.937" x2="7.937" y1="15.081" y2="1.852" gradientTransform="scale(3.7796)" gradientUnits="userSpaceOnUse" spreadMethod="pad"><stop stop-color="#f1efeb" offset="0" id="stop55" style="stop-color:#171410;stop-opacity:1"/><stop stop-color="#fdfcfc" offset="1" id="stop56"/></linearGradient><linearGradient id="linearGradient54" x1="7.937" x2="7.937" y1="15.081" y2="1.852" gradientTransform="scale(3.7796)" gradientUnits="userSpaceOnUse" spreadMethod="pad"><stop stop-color="#f1efeb" offset="0" id="stop53" style="stop-color:#2d281f;stop-opacity:1"/><stop stop-color="#fdfcfc" offset="1" id="stop54"/></linearGradient><linearGradient id="linearGradient52" x1="7.937" x2="7.937" y1="15.081" y2="1.852" gradientTransform="scale(3.7796)" gradientUnits="userSpaceOnUse" spreadMethod="pad"><stop stop-color="#f1efeb" offset="0" id="stop51" style="stop-color:#3a3428;stop-opacity:1"/><stop stop-color="#fdfcfc" offset="1" id="stop52"/></linearGradient><linearGradient id="linearGradient50" x1="7.937" x2="7.937" y1="15.081" y2="1.852" gradientTransform="scale(3.7796)" gradientUnits="userSpaceOnUse" spreadMethod="pad"><stop stop-color="#f1efeb" offset="0" id="stop49" style="stop-color:#473f31;stop-opacity:1"/><stop stop-color="#fdfcfc" offset="1" id="stop50"/></linearGradient><linearGradient id="linearGradient48" x1="7.937" x2="7.937" y1="15.081" y2="1.852" gradientTransform="scale(3.7796)" gradientUnits="userSpaceOnUse" spreadMethod="pad"><stop stop-color="#f1efeb" offset="0" id="stop47" style="stop-color:#4e4737;stop-opacity:1"/><stop stop-color="#fdfcfc" offset="1" id="stop48"/></linearGradient><linearGradient id="linearGradient46" x1="7.937" x2="7.937" y1="15.081" y2="1.852" gradientTransform="scale(3.7796)" gradientUnits="userSpaceOnUse" spreadMethod="pad"><stop stop-color="#f1efeb" offset="0" id="stop45" style="stop-color:#534b3a;stop-opacity:1"/><stop stop-color="#fdfcfc" offset="1" id="stop46"/></linearGradient><linearGradient id="linearGradient44" x1="7.937" x2="7.937" y1="15.081" y2="1.852" gradientTransform="scale(3.7796)" gradientUnits="userSpaceOnUse" spreadMethod="pad"><stop stop-color="#f1efeb" offset="0" id="stop43" style="stop-color:#544c3b;stop-opacity:1"/><stop stop-color="#fdfcfc" offset="1" id="stop44"/></linearGradient><linearGradient id="linearGradient42" x1="7.937" x2="7.937" y1="15.081" y2="1.852" gradientTransform="scale(3.7796)" gradientUnits="userSpaceOnUse" spreadMethod="pad"><stop stop-color="#f1efeb" offset="0" id="stop41" style="stop-color:#554c3b;stop-opacity:1"/><stop stop-color="#fdfcfc" offset="1" id="stop42"/></linearGradient><linearGradient id="linearGradient40" x1="7.937" x2="7.937" y1="15.081" y2="1.852" gradientTransform="scale(3.7796)" gradientUnits="userSpaceOnUse" spreadMethod="pad"><stop stop-color="#f1efeb" offset="0" id="stop39" style="stop-color:#564d3c;stop-opacity:1"/><stop stop-color="#fdfcfc" offset="1" id="stop40"/></linearGradient><linearGradient id="linearGradient38" x1="7.937" x2="7.937" y1="15.081" y2="1.852" gradientTransform="scale(3.7796)" gradientUnits="userSpaceOnUse" spreadMethod="pad"><stop stop-color="#f1efeb" offset="0" id="stop37" style="stop-color:#000;stop-opacity:1"/><stop stop-color="#fdfcfc" offset="1" id="stop38"/></linearGradient><linearGradient id="linearGradient36" x1="7.937" x2="7.937" y1="15.081" y2="1.852" gradientTransform="scale(3.7796)" gradientUnits="userSpaceOnUse" spreadMethod="pad"><stop stop-color="#f1efeb" offset="0" id="stop35" style="stop-color:#000;stop-opacity:1"/><stop stop-color="#fdfcfc" offset="1" id="stop36"/></linearGradient><linearGradient id="linearGradient34" x1="7.937" x2="7.937" y1="15.081" y2="1.852" gradientTransform="scale(3.7796)" gradientUnits="userSpaceOnUse" spreadMethod="pad"><stop stop-color="#f1efeb" offset="0" id="stop33" style="stop-color:#000;stop-opacity:1"/><stop stop-color="#fdfcfc" offset="1" id="stop34"/></linearGradient><linearGradient id="linearGradient32" x1="7.937" x2="7.937" y1="15.081" y2="1.852" gradientTransform="scale(3.7796)" gradientUnits="userSpaceOnUse" spreadMethod="pad"><stop stop-color="#f1efeb" offset="0" id="stop31" style="stop-color:#000;stop-opacity:1"/><stop stop-color="#fdfcfc" offset="1" id="stop32"/></linearGradient><linearGradient id="linearGradient30" x1="7.937" x2="7.937" y1="15.081" y2="1.852" gradientTransform="scale(3.7796)" gradientUnits="userSpaceOnUse" spreadMethod="pad"><stop stop-color="#f1efeb" offset="0" id="stop29" style="stop-color:#000;stop-opacity:1"/><stop stop-color="#fdfcfc" offset="1" id="stop30"/></linearGradient><linearGradient id="linearGradient28" x1="7.937" x2="7.937" y1="15.081" y2="1.852" gradientTransform="scale(3.7796)" gradientUnits="userSpaceOnUse" spreadMethod="pad"><stop stop-color="#f1efeb" offset="0" id="stop27" style="stop-color:#000;stop-opacity:1"/><stop stop-color="#fdfcfc" offset="1" id="stop28"/></linearGradient><linearGradient id="linearGradient26" x1="7.937" x2="7.937" y1="15.081" y2="1.852" gradientTransform="scale(3.7796)" gradientUnits="userSpaceOnUse" spreadMethod="pad"><stop stop-color="#f1efeb" offset="0" id="stop25" style="stop-color:#000;stop-opacity:1"/><stop stop-color="#fdfcfc" offset="1" id="stop26"/></linearGradient><linearGradient id="linearGradient24" x1="7.937" x2="7.937" y1="15.081" y2="1.852" gradientTransform="scale(3.7796)" gradientUnits="userSpaceOnUse" spreadMethod="pad"><stop stop-color="#f1efeb" offset="0" id="stop23" style="stop-color:#000;stop-opacity:1"/><stop stop-color="#fdfcfc" offset="1" id="stop24"/></linearGradient><linearGradient id="linearGradient22" x1="7.937" x2="7.937" y1="15.081" y2="1.852" gradientTransform="scale(3.7796)" gradientUnits="userSpaceOnUse" spreadMethod="pad"><stop stop-color="#f1efeb" offset="0" id="stop21" style="stop-color:#040403;stop-opacity:1"/><stop stop-color="#fdfcfc" offset="1" id="stop22"/></linearGradient><linearGradient id="linearGradient20" x1="7.937" x2="7.937" y1="15.081" y2="1.852" gradientTransform="scale(3.7796)" gradientUnits="userSpaceOnUse" spreadMethod="pad"><stop stop-color="#f1efeb" offset="0" id="stop19" style="stop-color:#1d1a15;stop-opacity:1"/><stop stop-color="#fdfcfc" offset="1" id="stop20"/></linearGradient><linearGradient id="linearGradient18" x1="7.937" x2="7.937" y1="15.081" y2="1.852" gradientTransform="scale(3.7796)" gradientUnits="userSpaceOnUse" spreadMethod="pad"><stop stop-color="#f1efeb" offset="0" id="stop17" style="stop-color:#4b4435;stop-opacity:1"/><stop stop-color="#fdfcfc" offset="1" id="stop18"/></linearGradient><linearGradient id="linearGradient16" x1="7.937" x2="7.937" y1="15.081" y2="1.852" gradientTransform="scale(3.7796)" gradientUnits="userSpaceOnUse" spreadMethod="pad"><stop stop-color="#f1efeb" offset="0" id="stop15" style="stop-color:#635945;stop-opacity:1"/><stop stop-color="#fdfcfc" offset="1" id="stop16"/></linearGradient><linearGradient id="linearGradient14" x1="7.937" x2="7.937" y1="15.081" y2="1.852" gradientTransform="scale(3.7796)" gradientUnits="userSpaceOnUse" spreadMethod="pad"><stop stop-color="#f1efeb" offset="0" id="stop13" style="stop-color:#746851;stop-opacity:1"/><stop stop-color="#fdfcfc" offset="1" id="stop14"/></linearGradient><linearGradient id="linearGradient12" x1="7.937" x2="7.937" y1="15.081" y2="1.852" gradientTransform="scale(3.7796)" gradientUnits="userSpaceOnUse" spreadMethod="pad"><stop stop-color="#f1efeb" offset="0" id="stop11" style="stop-color:#7d7057;stop-opacity:1"/><stop stop-color="#fdfcfc" offset="1" id="stop12"/></linearGradient><linearGradient id="linearGradient10" x1="7.937" x2="7.937" y1="15.081" y2="1.852" gradientTransform="scale(3.7796)" gradientUnits="userSpaceOnUse" spreadMethod="pad"><stop stop-color="#f1efeb" offset="0" id="stop9" style="stop-color:#7f7259;stop-opacity:1"/><stop stop-color="#fdfcfc" offset="1" id="stop10"/></linearGradient><linearGradient id="linearGradient8" x1="7.937" x2="7.937" y1="15.081" y2="1.852" gradientTransform="scale(3.7796)" gradientUnits="userSpaceOnUse"><stop stop-color="#f1efeb" offset="0" id="stop7" style="stop-color:#7f7259;stop-opacity:1"/><stop stop-color="#fdfcfc" offset="1" id="stop8"/></linearGradient><linearGradient id="linearGradient862-3" x1="7.937" x2="7.937" y1="15.081" y2="1.852" gradientTransform="scale(3.7796)" gradientUnits="userSpaceOnUse" xlink:href="#linearGradient92"><stop stop-color="#f1efeb" offset="0" id="stop1"/><stop stop-color="#fdfcfc" offset="1" id="stop2"/></linearGradient><linearGradient id="d" x1="45" x2="60.076" y1="19" y2="3.924" gradientTransform="translate(.013 -.001)" gradientUnits="userSpaceOnUse"><stop offset="0" stop-color="#fff" id="stop5"/><stop offset="1" stop-color="#b3b3b3" id="stop6"/></linearGradient><linearGradient xlink:href="#linearGradient862-3" id="linearGradient5" gradientUnits="userSpaceOnUse" gradientTransform="translate(-.001 .03) scale(3.7796)" x1="7.937" y1="15.081" x2="7.937" y2="1.852"/><linearGradient id="c" x1="32" x2="32" y1="11" y2="53" gradientUnits="userSpaceOnUse"><stop stop-color="#f7bd39" offset="0" id="stop3"/><stop stop-color="#f9e657" offset="1" id="stop4"/></linearGradient><linearGradient id="e" x1="8.467" x2="8.467" y1="284.83" y2="292.24" gradientUnits="userSpaceOnUse"><stop stop-color="#525252" offset="0" id="stop5-0"/><stop stop-color="#1f1f1f" offset="1" id="stop6-2"/></linearGradient><filter style="color-interpolation-filters:sRGB" id="filter95" x="-.147" y="-.147" width="1.294" height="1.294"><feGaussianBlur stdDeviation="1.53" id="feGaussianBlur95"/></filter><filter id="d-2" x="-.06" y="-.06" width="1.12" height="1.12" color-interpolation-filters="sRGB"><feGaussianBlur stdDeviation=".185" id="feGaussianBlur10"/></filter><filter style="color-interpolation-filters:sRGB" id="filter94" x="-.069" y="-.069" width="1.138" height="1.138"><feGaussianBlur stdDeviation="1.613" id="feGaussianBlur94"/></filter><filter style="color-interpolation-filters:sRGB" id="filter1" x="-.233" y="-.107" width="1.466" height="1.215"><feGaussianBlur stdDeviation="1.611" id="feGaussianBlur1"/></filter><style id="current-color-scheme" type="text/css">.ColorScheme-Text{color:#363636}</style></defs><path id="path3-9-5" style="opacity:.25;fill:#000;fill-opacity:1;stroke-width:3.7796;filter:url(#filter94)" d="M17 4A12.973 12.973 0 0 0 4 17v30a12.973 12.973 0 0 0 13.002 13.002H47A12.973 12.973 0 0 0 60.001 47V28.972a11.223 11.223 0 0 0-.399-.934c-.14-.29-.289-.56-.443-.81a7.73 7.73 0 0 0-.482-.7 6.894 6.894 0 0 0-.522-.597 6.475 6.475 0 0 0-1.142-.926 7.086 7.086 0 0 0 .588.422 6.894 6.894 0 0 1 1.076 1.102c.167.215.328.448.482.699.154.25.303.52.443.81.14.29.274.6.399.934v-.139C59.752 21.784 43.37 5.184 35.8 4.034A10.5 10.5 0 0 0 35.013 4a4.557 4.557 0 0 1 1.953 1.045c.186.164.363.342.531.533a5.89 5.89 0 0 0-.531-.533A4.557 4.557 0 0 0 35.013 4Zm22.73 6.025c.177.564.337 1.138.486 1.709.297 1.14.547 2.265.797 3.265-.25-1-.5-2.125-.797-3.265a35.341 35.341 0 0 0-.487-1.71zm13.246 13.58z"/><path d="M17.001 3.999A12.973 12.973 0 0 0 3.999 17.001v29.998a12.973 12.973 0 0 0 13.002 13.002h29.998a12.973 12.973 0 0 0 13.002-13.002V28.972c-2.004-5.33-5.996-4.975-9.988-5.973-5.82-1.455-8.03-4.12-9-8-1-4-2-10-6-11z" style="fill:url(#linearGradient5);stroke-width:3.7796" id="path3-9"/><path d="M31.099 14.002c-1.6 0-3.066.181-4.4.548a13.81 13.81 0 0 0-2.997 1.149l.945 2.702a12.53 12.53 0 0 1 6.104-1.5c.797 0 1.565.064 2.298.2.733.132 1.368.382 1.9.748a3.93 3.93 0 0 1 1.35 1.5c.333.602.5 1.369.5 2.303 0 1.031-.197 1.965-.598 2.797a12.36 12.36 0 0 1-1.5 2.301c-.601.7-1.248 1.399-1.95 2.102a19.907 19.907 0 0 0-1.951 2.147 11.845 11.845 0 0 0-1.5 2.502c-.401.869-.602 1.867-.602 3 0 .398.02.798.053 1.199.03.366.084.718.152 1.05h2.596a2.551 2.551 0 0 1-.049-.498v-.85c0-1.1.215-2.102.65-3.002.435-.9.983-1.735 1.648-2.502a34.357 34.357 0 0 1 2.101-2.298c.768-.733 1.486-1.5 2.151-2.302a11.848 11.848 0 0 0 1.652-2.596c.434-.934.646-2.003.646-3.202 0-.869-.151-1.75-.45-2.65a6.081 6.081 0 0 0-1.5-2.4 7.28 7.28 0 0 0-2.85-1.75c-1.164-.468-2.63-.698-4.4-.698zm-.65 30.501c-.866 0-1.55.265-2.05.794a2.857 2.857 0 0 0-.698 1.954c0 .767.234 1.417.699 1.95.499.53 1.183.798 2.048.798.866 0 1.535-.265 2.004-.798a2.744 2.744 0 0 0 .748-1.95 2.744 2.744 0 0 0-.748-1.95c-.47-.533-1.134-.802-2.004-.802Z" fill="#999" id="path6-3" style="fill:#212121;fill-opacity:1;stroke-width:3.7796"/><path d="M33.3 4.654c4 1 5 7 6 11 .97 3.88 3.18 6.545 9 8 3.993.998 7.985.643 9.989 5.973v-.139c-.249-7.049-16.63-23.649-24.201-24.799a10.5 10.5 0 0 0-.787-.035z" style="display:inline;opacity:.25;fill:#000;fill-opacity:1;filter:url(#filter95)" id="path5-6"/><path d="M35.013 3.999c4 1 5 7 6 11 .97 3.88 3.18 6.545 9 8 3.992.998 7.984.643 9.988 5.973v-.139C59.752 21.784 43.371 5.184 35.8 4.034A10.5 10.5 0 0 0 35.013 4z" style="display:inline;fill:url(#d)" id="path5"/></svg>