<?xml version="1.0" encoding="UTF-8"?>
<svg id="svg2" width="64" height="64" version="1.1" xmlns="http://www.w3.org/2000/svg" xmlns:xlink="http://www.w3.org/1999/xlink">
 <defs id="defs2">
  <linearGradient id="d" x1="45" x2="60.076" y1="19" y2="3.924" gradientTransform="translate(.013 -.001)" gradientUnits="userSpaceOnUse">
   <stop id="stop5" stop-color="#fff" offset="0"/>
   <stop id="stop6" stop-color="#b3b3b3" offset="1"/>
  </linearGradient>
  <linearGradient id="linearGradient5" x1="7.937" x2="7.937" y1="15.081" y2="1.852" gradientTransform="translate(-.001 .03) scale(3.7796)" gradientUnits="userSpaceOnUse">
   <stop id="stop1" stop-color="#f1efeb" offset="0"/>
   <stop id="stop2" stop-color="#fdfcfc" offset="1"/>
  </linearGradient>
  <filter id="filter95" x="-.147" y="-.147" width="1.294" height="1.294" color-interpolation-filters="sRGB">
   <feGaussianBlur id="feGaussianBlur95" stdDeviation="1.53"/>
  </filter>
  <filter id="filter94" x="-.069" y="-.069" width="1.138" height="1.138" color-interpolation-filters="sRGB">
   <feGaussianBlur id="feGaussianBlur94" stdDeviation="1.613"/>
  </filter>
  <style id="current-color-scheme" type="text/css">.ColorScheme-Text{color:#363636}</style>
 </defs>
 <path id="path3-9-5" d="M17 4A12.973 12.973 0 0 0 4 17v30a12.973 12.973 0 0 0 13.002 13.002H47A12.973 12.973 0 0 0 60.001 47V28.972a11.223 11.223 0 0 0-.399-.934c-.14-.29-.289-.56-.443-.81a7.73 7.73 0 0 0-.482-.7 6.894 6.894 0 0 0-.522-.597 6.475 6.475 0 0 0-1.142-.926 7.086 7.086 0 0 0 .588.422 6.894 6.894 0 0 1 1.076 1.102c.167.215.328.448.482.699.154.25.303.52.443.81.14.29.274.6.399.934v-.139C59.752 21.784 43.37 5.184 35.8 4.034A10.5 10.5 0 0 0 35.013 4a4.557 4.557 0 0 1 1.953 1.045c.186.164.363.342.531.533a5.89 5.89 0 0 0-.531-.533A4.557 4.557 0 0 0 35.013 4Zm22.73 6.025c.177.564.337 1.138.486 1.709.297 1.14.547 2.265.797 3.265-.25-1-.5-2.125-.797-3.265a35.341 35.341 0 0 0-.487-1.71zm13.246 13.58z" filter="url(#filter94)" opacity=".25" stroke-width="3.7796"/>
 <path id="path3-9" d="M17.001 3.999A12.973 12.973 0 0 0 3.999 17.001v29.998a12.973 12.973 0 0 0 13.002 13.002h29.998a12.973 12.973 0 0 0 13.002-13.002V28.972c-2.004-5.33-5.996-4.975-9.988-5.973-5.82-1.455-8.03-4.12-9-8-1-4-2-10-6-11z" fill="url(#linearGradient5)" stroke-width="3.7796"/>
 <path id="path6-3" d="M31.099 14.002c-1.6 0-3.066.181-4.4.548a13.81 13.81 0 0 0-2.997 1.149l.945 2.702a12.53 12.53 0 0 1 6.104-1.5c.797 0 1.565.064 2.298.2.733.132 1.368.382 1.9.748a3.93 3.93 0 0 1 1.35 1.5c.333.602.5 1.369.5 2.303 0 1.031-.197 1.965-.598 2.797a12.36 12.36 0 0 1-1.5 2.301c-.601.7-1.248 1.399-1.95 2.102a19.907 19.907 0 0 0-1.951 2.147 11.845 11.845 0 0 0-1.5 2.502c-.401.869-.602 1.867-.602 3 0 .398.02.798.053 1.199.03.366.084.718.152 1.05h2.596a2.551 2.551 0 0 1-.049-.498v-.85c0-1.1.215-2.102.65-3.002.435-.9.983-1.735 1.648-2.502a34.357 34.357 0 0 1 2.101-2.298c.768-.733 1.486-1.5 2.151-2.302a11.848 11.848 0 0 0 1.652-2.596c.434-.934.646-2.003.646-3.202 0-.869-.151-1.75-.45-2.65a6.081 6.081 0 0 0-1.5-2.4 7.28 7.28 0 0 0-2.85-1.75c-1.164-.468-2.63-.698-4.4-.698zm-.65 30.501c-.866 0-1.55.265-2.05.794a2.857 2.857 0 0 0-.698 1.954c0 .767.234 1.417.699 1.95.499.53 1.183.798 2.048.798.866 0 1.535-.265 2.004-.798a2.744 2.744 0 0 0 .748-1.95 2.744 2.744 0 0 0-.748-1.95c-.47-.533-1.134-.802-2.004-.802Z" fill="#212121" stroke-width="3.7796"/>
 <path id="path5-6" d="M33.3 4.654c4 1 5 7 6 11 .97 3.88 3.18 6.545 9 8 3.993.998 7.985.643 9.989 5.973v-.139c-.249-7.049-16.63-23.649-24.201-24.799a10.5 10.5 0 0 0-.787-.035z" filter="url(#filter95)" opacity=".25"/>
 <path id="path5" d="M35.013 3.999c4 1 5 7 6 11 .97 3.88 3.18 6.545 9 8 3.992.998 7.984.643 9.988 5.973v-.139C59.752 21.784 43.371 5.184 35.8 4.034A10.5 10.5 0 0 0 35.013 4z" fill="url(#d)"/>
</svg>
