<?xml version="1.0" encoding="UTF-8" standalone="no"?>
<svg
   width="16"
   height="16"
   version="1.1"
   id="svg2"
   sodipodi:docname="input-keyboard.svg"
   inkscape:version="1.3.2 (091e20ef0f, 2023-11-25)"
   xmlns:inkscape="http://www.inkscape.org/namespaces/inkscape"
   xmlns:sodipodi="http://sodipodi.sourceforge.net/DTD/sodipodi-0.dtd"
   xmlns="http://www.w3.org/2000/svg"
   xmlns:svg="http://www.w3.org/2000/svg">
  <defs
     id="defs2" />
  <sodipodi:namedview
     id="namedview2"
     pagecolor="#ffffff"
     bordercolor="#111111"
     borderopacity="1"
     inkscape:showpageshadow="0"
     inkscape:pageopacity="0"
     inkscape:pagecheckerboard="1"
     inkscape:deskcolor="#d1d1d1"
     inkscape:zoom="50.1875"
     inkscape:cx="9.6637609"
     inkscape:cy="8"
     inkscape:window-width="1920"
     inkscape:window-height="1011"
     inkscape:window-x="0"
     inkscape:window-y="0"
     inkscape:window-maximized="1"
     inkscape:current-layer="svg2" />
  <style
     id="current-color-scheme"
     type="text/css">.ColorScheme-Text {
            color:#363636;
        }</style>
  <g
     style="fill:currentColor"
     class="ColorScheme-Text"
     id="g1"
     transform="matrix(0.89686369,0,0,0.89686369,0.82509044,2.170386)">
    <path
       d="M 3,4 V 5 H 4 V 4 Z M 5,4 V 5 H 6 V 4 Z M 7,4 V 5 H 8 V 4 Z m 2,0 v 1 h 1 V 4 Z m 2,0 v 1 h 2 V 4 Z M 3,6 V 7 H 5 V 6 Z M 6,6 V 7 H 7 V 6 Z M 8,6 V 7 H 9 V 6 Z m 2,0 v 1 h 3 V 6 Z M 3,8 V 9 H 4 V 8 Z m 2,0 v 1 h 6 V 8 Z m 7,0 v 1 h 1 V 8 Z"
       style="fill:currentColor"
       class="ColorScheme-Text"
       id="path1" />
  </g>
  <path
     d="M 3,1 C 1.338,1 0,2.338 0,4 v 5 c 0,1.5695 1.198,2.835 2.7305,2.9727 L 5,15 v -3 h 8 c 1.662,0 3,-1.338 3,-3 V 4 C 16,2.338 14.662,1 13,1 Z m 0,1 h 10 c 1.108,0 2,0.892 2,2 v 5 c 0,1.108 -0.892,2 -2,2 H 5 3 C 1.892,11 1,10.108 1,9 V 4 C 1,2.892 1.892,2 3,2 Z"
     style="display:none;fill:currentColor"
     class="ColorScheme-Text"
     id="path2" />
  <rect
     style="opacity:1;fill:none;stroke:#363636;stroke-width:0.812105;stroke-linecap:round;stroke-linejoin:round;stroke-dasharray:none;stroke-opacity:1;paint-order:fill markers stroke"
     id="rect2"
     width="13.537715"
     height="8.6784"
     x="1.2311426"
     y="3.6608"
     ry="2.0092885" />
</svg>
