<?xml version="1.0" encoding="UTF-8"?>
<svg id="svg2" width="64" height="64" version="1.1" xmlns="http://www.w3.org/2000/svg" xmlns:cc="http://creativecommons.org/ns#" xmlns:dc="http://purl.org/dc/elements/1.1/" xmlns:rdf="http://www.w3.org/1999/02/22-rdf-syntax-ns#" xmlns:xlink="http://www.w3.org/1999/xlink">
 <defs id="defs2">
  <linearGradient id="d" x1="45" x2="60.076" y1="19" y2="3.924" gradientTransform="translate(.012852 -.0011262)" gradientUnits="userSpaceOnUse">
   <stop id="stop5" stop-color="#fff" offset="0"/>
   <stop id="stop6" stop-color="#b3b3b3" offset="1"/>
  </linearGradient>
  <linearGradient id="linearGradient5" x1="7.9373" x2="7.9373" y1="15.081" y2="1.852" gradientTransform="matrix(3.7796 0 0 3.7796 -.0009765 .030274)" gradientUnits="userSpaceOnUse">
   <stop id="stop1" stop-color="#f1efeb" offset="0"/>
   <stop id="stop2" stop-color="#fdfcfc" offset="1"/>
  </linearGradient>
  <filter id="filter95" x="-.14695" y="-.14705" width="1.2939" height="1.2941" color-interpolation-filters="sRGB">
   <feGaussianBlur id="feGaussianBlur95" stdDeviation="1.5300537"/>
  </filter>
  <style id="current-color-scheme" type="text/css">.ColorScheme-Text { color:#363636; } .ColorScheme-Text { color:#363636; }</style>
  <filter id="filter94" x="-.06912" y="-.06912" width="1.1382" height="1.1382" color-interpolation-filters="sRGB">
   <feGaussianBlur id="feGaussianBlur94" stdDeviation="1.6128562"/>
  </filter>
 </defs>
 <path id="path3-9-5" d="m17.001 3.999c-7.2031 0-13.002 5.7989-13.002 13.002v29.998c0 7.2031 5.7989 13.002 13.002 13.002h29.998c7.2031 0 13.002-5.7989 13.002-13.002v-18.027c-0.12523-0.33309-0.25816-0.6432-0.39844-0.93359-0.14027-0.2904-0.28901-0.5594-0.44336-0.81055-0.15435-0.25114-0.31496-0.48389-0.48242-0.69922-0.16746-0.21532-0.34189-0.41471-0.52148-0.59766-0.1796-0.18294-0.36392-0.34991-0.55469-0.50391-0.19076-0.154-0.38693-0.29339-0.58789-0.42188-0.20096-0.12849-0.407-0.24515-0.61719-0.35156 0.21019 0.10641 0.41623 0.22308 0.61719 0.35156 0.20096 0.12849 0.39713 0.26788 0.58789 0.42188 0.19076 0.154 0.37509 0.32096 0.55469 0.50391 0.1796 0.18294 0.35402 0.38233 0.52148 0.59766 0.16746 0.21532 0.32807 0.44808 0.48242 0.69922 0.15435 0.25114 0.30308 0.52015 0.44336 0.81055 0.14028 0.2904 0.27321 0.6005 0.39844 0.93359v-0.13867c-0.24891-7.0487-16.63-23.649-24.201-24.799-0.265-0.02-0.52811-0.035156-0.78711-0.035156 0.25 0.0625 0.48755 0.14624 0.71484 0.24609 0.2273 0.099853 0.44434 0.21582 0.65039 0.34961 0.20605 0.13379 0.40161 0.28491 0.58789 0.44922s0.36328 0.3418 0.53125 0.5332c0.16797 0.19141 0.32739 0.39624 0.47852 0.61133 0.15112 0.21509 0.29395 0.44043 0.42969 0.67578-0.13574-0.23535-0.27856-0.46069-0.42969-0.67578s-0.31055-0.41992-0.47852-0.61133c-0.16797-0.19141-0.34497-0.3689-0.53125-0.5332-0.18628-0.16431-0.38184-0.31543-0.58789-0.44922-0.20605-0.13379-0.4231-0.24976-0.65039-0.34961-0.22729-0.099854-0.46484-0.18359-0.71484-0.24609zm22.729 6.0254c0.17774 0.56445 0.33789 1.1387 0.48633 1.709 0.29688 1.1406 0.54688 2.2656 0.79688 3.2656-0.25-1-0.5-2.125-0.79688-3.2656-0.14844-0.57031-0.30859-1.1445-0.48633-1.709zm13.246 13.58c0.48351 0.09518 0.95975 0.19674 1.4238 0.31836-0.46408-0.12162-0.94032-0.22318-1.4238-0.31836z" filter="url(#filter94)" opacity=".25" stroke-width="3.7796"/>
 <path id="path3-9" d="m17.001 3.999c-7.2031 0-13.002 5.7989-13.002 13.002v29.998c0 7.2031 5.7989 13.002 13.002 13.002h29.998c7.2031 0 13.002-5.7989 13.002-13.002v-18.027c-2.0036-5.3294-5.9956-4.9745-9.9883-5.9727-5.82-1.455-8.03-4.12-9-8-1-4-2-10-6-11z" fill="url(#linearGradient5)" stroke-width="3.7796"/>
 <path id="path6" d="m32.002 15.989a0.45588 0.45588 0 0 0-0.39537 0.20172l-0.83108 1.3475-0.39133 0.04035-1.0812-1.1579c-0.21786-0.23399-0.66164-0.14927-0.77057 0.15331l-0.55271 1.4766-0.38326 0.117-1.2789-0.91984c-0.26224-0.18962-0.67778-0.01614-0.72619 0.29854l-0.2582 1.5613-0.35099 0.18558-1.4362-0.65357c-0.29048-0.13314-0.66567 0.117-0.65357 0.43571l0.05245 1.5815-0.30258 0.25013-1.5411-0.3631c-0.31065-0.07262-0.62936 0.24206-0.55675 0.55674l0.3631 1.5411-0.25013 0.30258-1.5815-0.05244c-0.31872-0.01211-0.56885 0.36309-0.43571 0.65357l0.65357 1.4403-0.18558 0.34696-1.5613 0.25417c-0.31468 0.05244-0.48412 0.46799-0.30258 0.72619l0.92791 1.2829-0.12103 0.38327-1.4766 0.55271c-0.29854 0.10893-0.3873 0.55271-0.15331 0.77057l1.1579 1.0772-0.04035 0.39537-1.3434 0.83108c-0.27434 0.16944-0.27434 0.6213 0 0.7867l1.3434 0.83512 0.04035 0.39134-1.1579 1.0772c-0.23399 0.21786-0.14524 0.66164 0.15331 0.7746l1.4766 0.55271 0.12103 0.37923-0.92791 1.2829c-0.18558 0.2582-0.0121 0.67778 0.30258 0.72619l1.5613 0.25417 0.18558 0.35099-0.65357 1.4362c-0.13314 0.29451 0.117 0.66971 0.43571 0.6576l1.5815-0.05648 0.25013 0.30258-0.3631 1.5411c-0.07262 0.31065 0.24206 0.62936 0.55675 0.55674l1.5411-0.36309 0.30258 0.25013-0.05245 1.5815c-0.01211 0.32275 0.36309 0.57288 0.65357 0.43571l1.4362-0.65357 0.35099 0.18962 0.25417 1.5573c0.05244 0.31468 0.46799 0.48413 0.72619 0.30258l1.2829-0.92791 0.38326 0.12103 0.55271 1.4766c0.10893 0.29854 0.55271 0.3873 0.77057 0.15331l1.0772-1.1579 0.39537 0.04035 0.83108 1.3475c0.16944 0.2703 0.6213 0.2703 0.7867 0l0.83512-1.3475 0.39133-0.04035 1.0772 1.1579c0.21786 0.23399 0.66164 0.14524 0.77461-0.15331l0.5527-1.4766 0.37924-0.12103 1.2829 0.92791c0.2582 0.18558 0.67374 0.0121 0.72619-0.30258l0.25416-1.5573 0.351-0.18962 1.4362 0.65357c0.29451 0.13717 0.66567-0.11296 0.6576-0.43571l-0.05647-1.5815 0.30258-0.25013 1.5411 0.36309c0.31467 0.07262 0.62936-0.24206 0.55674-0.55674l-0.36309-1.5411 0.25013-0.30258 1.5815 0.05648c0.32274 0.0121 0.57288-0.36309 0.43571-0.6576l-0.65356-1.4362 0.18962-0.35099 1.5573-0.25417c0.31872-0.04842 0.48817-0.46799 0.30258-0.72619l-0.92386-1.2829 0.11699-0.37923 1.4766-0.55271c0.30258-0.11296 0.3873-0.55674 0.1533-0.7746l-1.1579-1.0772 0.04035-0.39134 1.3475-0.83512c0.2703-0.16541 0.2703-0.61726 0-0.7867l-1.3475-0.83108-0.04035-0.39537 1.1579-1.0772c0.234-0.21786 0.14928-0.66164-0.1533-0.77057l-1.4766-0.55271-0.11699-0.38327 0.92386-1.2789c0.18559-0.26223 0.01206-0.67778-0.30258-0.72619l-1.5613-0.2582-0.18558-0.34696 0.65356-1.4403c0.13717-0.29048-0.11296-0.66567-0.43571-0.65357l-1.5815 0.05244-0.25013-0.30258 0.36309-1.5411c0.07258-0.31065-0.24207-0.62936-0.55674-0.55674l-1.5411 0.3631-0.30258-0.25013 0.05647-1.5815c0.01206-0.32275-0.36309-0.56885-0.6576-0.43571l-1.4362 0.65357-0.351-0.18558-0.25416-1.5613c-0.05241-0.31468-0.468-0.48816-0.72619-0.30258l-1.2829 0.92387-0.37924-0.117-0.5527-1.4766c-0.11296-0.30258-0.55272-0.3873-0.77461-0.15331l-1.0772 1.1579-0.39133-0.04035-0.83512-1.3475a0.45588 0.45588 0 0 0-0.39133-0.20172zm-0.05241 2.82c0.47605 0 0.95211 0.31872 0.95211 0.95211 0 1.2668-1.9042 1.2668-1.9042 0 0-0.6334 0.47605-0.95211 0.95212-0.95211zm2.2108 1.5694a11.716 11.716 0 0 1 8.0203 5.7127l-1.1216 2.5336a0.87143 0.87143 0 0 0 0.44378 1.1498l2.1584 0.95615c0.06863 0.67778 0.07664 1.3596 0.02423 2.0374h-1.2022c-0.12103 0-0.16945 0.08069-0.16945 0.19768v0.54868c0 1.3031-0.73022 1.5855-1.3717 1.6541-0.61323 0.07262-1.291-0.25417-1.3717-0.62936-0.36309-2.0293-0.96825-2.461-1.9163-3.2114 1.178-0.74636 2.4045-1.8518 2.4045-3.3284 0-1.5936-1.0893-2.5981-1.8397-3.0944a4.8735 4.8735 0 0 0-2.5134-0.75039h-12.434a11.829 11.829 0 0 1 6.5559-3.7762l1.4645 1.5371c0.33082 0.34696 0.87949 0.36309 1.2265 0.02824zm-13.564 7.0481c0.47606 0 0.95211 0.31872 0.95211 0.95211 0 1.2668-1.9042 1.2668-1.9042 0 0-0.6334 0.47606-0.95211 0.95211-0.95211zm22.705 0.04438c0.47605 0 0.95211 0.31872 0.95211 0.95211 0 1.2668-1.9002 1.2668-1.9002 0 0-0.6334 0.47202-0.95211 0.94808-0.95211zm-20.708 0.3752h1.3999v7.4192h-3.2679a12.527 12.527 0 0 1-0.3752-4.6274l2.0495-0.91177a0.86739 0.86739 0 0 0 0.44378-1.1458zm6.3259 0h4.3289c0.20575 0 1.4443 0.08068 1.4443 1.0086 0 0.76653-0.94807 1.1498-1.7307 1.1498h-4.0425zm0 4.926h3.4575c0.27434 0 1.4766 0.3873 1.8599 1.9244 0.12103 0.47202 0.3873 2.0091 0.56481 2.5013 0.18156 0.55271 0.9158 1.7348 1.6944 1.7348h4.9461c-0.33082 0.44378-0.69391 0.78267-1.0893 1.178l-2.0091-0.43571a0.86739 0.86739 0 0 0-1.0288 0.66971l-0.4801 2.227c-3.1065 1.412-6.6769 1.3919-9.7713-0.04437l-0.47606-2.231a0.86739 0.86739 0 0 0-1.0328-0.66567l-1.9688 0.42361c-0.36309-0.37923-0.70602-0.70198-1.0167-1.1216h9.4324v-3.6955h-3.0823zm-4.0223 8.0688c0.47606 0 0.95211 0.31468 0.95211 0.94808 0 1.2708-1.9002 1.2708-1.9042 0 0-0.6334 0.47606-0.95211 0.95211-0.95211zm14.104 0.04035c0.47605 0 0.95212 0.31872 0.95212 0.95211 0 1.2708-1.9042 1.2708-1.9042 0 0-0.6334 0.47606-0.95211 0.95212-0.95211z" fill="#212121" stroke-width="4.0344"/>
 <path id="path5-6" d="m33.301 4.654c4 1 5 7 6 11 0.97 3.88 3.18 6.545 9 8 3.9927 0.99818 7.9847 0.64321 9.9883 5.9727v-0.13867c-0.24891-7.0487-16.63-23.649-24.201-24.799-0.265-0.02-0.52811-0.03516-0.78711-0.03516z" filter="url(#filter95)" opacity=".25"/>
 <path id="path5" d="m35.013 3.999c4 1 5 7 6 11 0.97 3.88 3.18 6.545 9 8 3.9927 0.99818 7.9847 0.64321 9.9883 5.9727v-0.13867c-0.24891-7.0487-16.63-23.649-24.201-24.799-0.265-0.02-0.52811-0.035156-0.78711-0.035156z" fill="url(#d)"/>
 <title id="title1">Gnome Symbolic Icons</title>
 <metadata id="metadata2">
  <rdf:RDF>
   <cc:Work rdf:about="">
    <dc:title>Gnome Symbolic Icons</dc:title>
   </cc:Work>
  </rdf:RDF>
 </metadata>
</svg>
