<?xml version="1.0" encoding="UTF-8"?>
<svg id="svg8" width="64" height="64" version="1.1" viewBox="0 0 16.933 16.933" xmlns="http://www.w3.org/2000/svg" xmlns:cc="http://creativecommons.org/ns#" xmlns:dc="http://purl.org/dc/elements/1.1/" xmlns:rdf="http://www.w3.org/1999/02/22-rdf-syntax-ns#" xmlns:xlink="http://www.w3.org/1999/xlink">
 <metadata id="metadata5">
  <rdf:RDF>
   <cc:Work rdf:about="">
    <dc:format>image/svg+xml</dc:format>
    <dc:type rdf:resource="http://purl.org/dc/dcmitype/StillImage"/>
    <dc:title/>
   </cc:Work>
  </rdf:RDF>
 </metadata>
 <g id="layer1">
  <g id="g1113">
   <path id="path887" d="m4.6302 1.1906c-1.9055 0-3.4396 1.534-3.4396 3.4396v7.6729c0 1.9055 1.534 3.4396 3.4396 3.4396h7.6729c1.9055 0 3.4396-1.534 3.4396-3.4396v-7.6729c0-1.9055-1.534-3.4396-3.4396-3.4396h-5.4891z" fill="#f0f0f5" image-rendering="optimizeSpeed" stroke-width=".26458"/>
   <g id="g18" transform="matrix(.27561 0 0 .27561 -.35278 -.15985)" stroke-width="1.4">
    <path id="path14" d="m15.2 14.5v7h4.2v4.2h-4.2v2.8h15.34l8.2359-14zm0 15.4v2.8h12.871l1.6461-2.8zm0 4.2v2.8h10.399l1.6488-2.8zm0 4.2v9.8h23.8v-2.8h-14v-7z" fill="#012369" style="paint-order:normal"/>
    <path id="path16" d="m40.4 14.5-14 23.8v5.6h14v4.2h5.6v-4.2h2.8v-5.6h-2.8v-23.8zm0 9.1v14.7h-8.4z" fill="#ff960f" style="paint-order:normal"/>
   </g>
  </g>
 </g>
</svg>
