<?xml version="1.0" encoding="UTF-8"?>
<svg id="svg1614" width="128" height="128" version="1.1" viewBox="0 0 33.867 33.867" xmlns="http://www.w3.org/2000/svg" xmlns:cc="http://creativecommons.org/ns#" xmlns:dc="http://purl.org/dc/elements/1.1/" xmlns:rdf="http://www.w3.org/1999/02/22-rdf-syntax-ns#" xmlns:xlink="http://www.w3.org/1999/xlink">
 <defs id="defs1608">
  <radialGradient id="radialGradient1506" cx="17.081" cy="3.8306" r="14.544" gradientTransform="matrix(7.4203 0 0 2.9718 -109.59 -7.6061)" gradientUnits="userSpaceOnUse">
   <stop id="stop4671" stop-color="#ffc64c" offset="0"/>
   <stop id="stop4673" stop-color="#e52600" offset="1"/>
  </radialGradient>
 </defs>
 <metadata id="metadata1611">
  <rdf:RDF>
   <cc:Work rdf:about="">
    <dc:format>image/svg+xml</dc:format>
    <dc:type rdf:resource="http://purl.org/dc/dcmitype/StillImage"/>
   </cc:Work>
  </rdf:RDF>
 </metadata>
 <g id="layer1">
  <g id="g1702" transform="matrix(.97573 0 0 .97573 -65.671 -37.256)" fill="none" opacity=".295" stroke="#000" stroke-linecap="round" stroke-linejoin="round" stroke-opacity=".02">
   <rect id="rect1634" x="69.84" y="40.71" width="29.811" height="29.811" rx="6.6099" ry="6.6099" stroke-width=".1"/>
   <rect id="rect1638" x="69.84" y="40.71" width="29.811" height="29.811" rx="6.6099" ry="6.6099" stroke-width=".2"/>
   <rect id="rect1640" x="69.84" y="40.71" width="29.811" height="29.811" rx="6.6099" ry="6.6099" stroke-width=".3"/>
   <rect id="rect1642" x="69.84" y="40.71" width="29.811" height="29.811" rx="6.6099" ry="6.6099" stroke-width=".4"/>
   <rect id="rect1644" x="69.84" y="40.71" width="29.811" height="29.811" rx="6.6099" ry="6.6099" stroke-width=".5"/>
   <rect id="rect1646" x="69.84" y="40.71" width="29.811" height="29.811" rx="6.6099" ry="6.6099" stroke-width=".6"/>
   <rect id="rect1648" x="69.84" y="40.71" width="29.811" height="29.811" rx="6.6099" ry="6.6099" stroke-width=".7"/>
   <rect id="rect1650" x="69.84" y="40.71" width="29.811" height="29.811" rx="6.6099" ry="6.6099" stroke-width=".8"/>
   <rect id="rect1652" x="69.84" y="40.71" width="29.811" height="29.811" rx="6.6099" ry="6.6099"/>
   <rect id="rect1654" x="69.84" y="40.71" width="29.811" height="29.811" rx="6.6099" ry="6.6099" stroke-width="1.2"/>
   <rect id="rect1656" x="69.84" y="40.71" width="29.811" height="29.811" rx="6.6099" ry="6.6099" stroke-width="1.4"/>
   <rect id="rect1658" x="69.84" y="40.71" width="29.811" height="29.811" rx="6.6099" ry="6.6099" stroke-width="1.6"/>
   <rect id="rect1660" x="69.84" y="40.71" width="29.811" height="29.811" rx="6.6099" ry="6.6099" stroke-width="1.8"/>
   <rect id="rect1662" x="69.84" y="40.71" width="29.811" height="29.811" rx="6.6099" ry="6.6099" stroke-width="2"/>
   <rect id="rect1664" x="69.84" y="40.71" width="29.811" height="29.811" rx="6.6099" ry="6.6099" stroke-width="2.2"/>
   <rect id="rect1666" x="69.84" y="40.71" width="29.811" height="29.811" rx="6.6099" ry="6.6099" stroke-width="2.6"/>
   <rect id="rect1668" x="69.84" y="40.71" width="29.811" height="29.811" rx="6.6099" ry="6.6099" stroke-width="3"/>
   <rect id="rect1670" x="69.84" y="40.71" width="29.811" height="29.811" rx="6.6099" ry="6.6099" stroke-width="3.4"/>
   <rect id="rect1672" x="69.84" y="40.71" width="29.811" height="29.811" rx="6.6099" ry="6.6099" stroke-width="3.8"/>
   <rect id="rect1674" x="69.84" y="40.71" width="29.811" height="29.811" rx="6.6099" ry="6.6099" stroke-width="4.2"/>
   <rect id="rect1676" x="69.84" y="40.71" width="29.811" height="29.811" rx="6.6099" ry="6.6099" stroke-width="4.6"/>
   <rect id="rect1678" x="69.84" y="40.71" width="29.811" height="29.811" rx="6.6099" ry="6.6099" stroke-width="5"/>
  </g>
  <rect id="rect849" x="2.4737" y="2.4656" width="29.087" height="29.087" rx="6.4495" ry="6.4495" fill="url(#radialGradient1506)" stroke-linecap="round" stroke-linejoin="round" stroke-width="2.688"/>
  <g id="g953" transform="matrix(2.2212 0 0 2.2212 -61.157 -13.088)" fill-opacity=".8">
   <path id="path949" d="m35.156 9.2822c-0.76017 0-1.4647 0.20483-2.0814 0.55562h-1.5875v1.5699c-0.35739 0.62089-0.56444 1.34-0.56444 2.1078 0 0.76784 0.20705 1.487 0.56444 2.1078v1.5522h1.5522c0.62434 0.36286 1.3425 0.57326 2.1167 0.57326s1.5011-0.21041 2.1255-0.57326h1.5434v-1.5434c0.36078-0.62304 0.56444-1.3449 0.56444-2.1167 0-0.77176-0.20366-1.4936-0.56444-2.1167v-1.561h-1.5787c-0.61665-0.3508-1.33-0.55562-2.0902-0.55562zm0.01764 0.71437c1.94 0 3.5101 1.5701 3.5101 3.5101s-1.5701 3.519-3.5101 3.519-3.5101-1.5789-3.5101-3.519 1.5701-3.5101 3.5101-3.5101z"/>
   <path id="path951" d="m35.978 11.878 0.15685 0.2166-0.35105 2.3229c-0.25831-1.0459-0.59628-2.4318-0.59753-2.4349l-0.56765 2.4275-0.44068-2.1138 0.08963-0.4108-1.2772-0.01494c0.10218 0.07806 0.18006 0.20946 0.26142 0.3137l0.80666 3.2789c-0.06637 0.12313-0.16608 0.23927-0.24648 0.34358 0.43074 0.0023 0.87079 0.0052 1.2399 0.0075l-0.08963-0.38838 0.24648-1.1278 0.20914 1.2249-0.03735 0.2913 1.2175-0.0075-0.0075-0.0075-0.16432-0.3137 0.49296-3.0773 0.37345-0.54524c-0.43819 0.0048-0.87637 0.0099-1.3146 0.01494z"/>
  </g>
 </g>
</svg>
