<?xml version="1.0" encoding="UTF-8" standalone="no"?>
<svg
   id="svg1443"
   width="512"
   height="512"
   version="1.1"
   viewBox="0 0 33.867 33.867"
   sodipodi:docname="7-days-to-die.svg"
   inkscape:version="1.4.4 (dcaf3e7d9e, 2026-05-05)"
   xmlns:inkscape="http://www.inkscape.org/namespaces/inkscape"
   xmlns:sodipodi="http://sodipodi.sourceforge.net/DTD/sodipodi-0.dtd"
   xmlns="http://www.w3.org/2000/svg"
   xmlns:svg="http://www.w3.org/2000/svg"
   xmlns:rdf="http://www.w3.org/1999/02/22-rdf-syntax-ns#"
   xmlns:cc="http://creativecommons.org/ns#"
   xmlns:dc="http://purl.org/dc/elements/1.1/">
  <sodipodi:namedview
     id="namedview1"
     pagecolor="#ffffff"
     bordercolor="#999999"
     borderopacity="1"
     inkscape:showpageshadow="2"
     inkscape:pageopacity="0"
     inkscape:pagecheckerboard="0"
     inkscape:deskcolor="#d1d1d1"
     inkscape:zoom="2.3242188"
     inkscape:cx="256"
     inkscape:cy="256"
     inkscape:window-width="2560"
     inkscape:window-height="1403"
     inkscape:window-x="0"
     inkscape:window-y="0"
     inkscape:window-maximized="1"
     inkscape:current-layer="svg1443" />
  <defs
     id="defs1437">
    <linearGradient
       id="linearGradient1632"
       x1="132.21"
       x2="132.21"
       y1="42.152"
       y2="70.68"
       gradientTransform="matrix(.97573 0 0 .97573 -111.77 -37.183)"
       gradientUnits="userSpaceOnUse">
      <stop
         id="stop1626"
         stop-color="#e55a34"
         offset="0" />
      <stop
         id="stop1628"
         stop-color="#a13711"
         offset="1" />
    </linearGradient>
    <filter
       id="filter1"
       x="-0.077557016"
       y="-0.07260621"
       width="1.155114"
       height="1.1452124"
       color-interpolation-filters="sRGB">
      <feGaussianBlur
         id="feGaussianBlur1"
         stdDeviation="0.57411969" />
    </filter>
  </defs>
  <metadata
     id="metadata1440">
    <rdf:RDF>
      <cc:Work
         rdf:about="">
        <dc:format>image/svg+xml</dc:format>
        <dc:type
           rdf:resource="http://purl.org/dc/dcmitype/StillImage" />
        <dc:title />
      </cc:Work>
    </rdf:RDF>
  </metadata>
  <g
     id="layer1">
    <g
       id="g1702"
       transform="matrix(.97573 0 0 .97573 -65.737 -37.183)"
       fill="none"
       opacity=".295"
       stroke="#000"
       stroke-linecap="round"
       stroke-linejoin="round"
       stroke-opacity=".02">
      <rect
         id="rect1634"
         x="69.84"
         y="40.71"
         width="29.811"
         height="29.811"
         rx="6.6099"
         ry="6.6099"
         stroke-width=".1" />
      <rect
         id="rect1638"
         x="69.84"
         y="40.71"
         width="29.811"
         height="29.811"
         rx="6.6099"
         ry="6.6099"
         stroke-width=".2" />
      <rect
         id="rect1640"
         x="69.84"
         y="40.71"
         width="29.811"
         height="29.811"
         rx="6.6099"
         ry="6.6099"
         stroke-width=".3" />
      <rect
         id="rect1642"
         x="69.84"
         y="40.71"
         width="29.811"
         height="29.811"
         rx="6.6099"
         ry="6.6099"
         stroke-width=".4" />
      <rect
         id="rect1644"
         x="69.84"
         y="40.71"
         width="29.811"
         height="29.811"
         rx="6.6099"
         ry="6.6099"
         stroke-width=".5" />
      <rect
         id="rect1646"
         x="69.84"
         y="40.71"
         width="29.811"
         height="29.811"
         rx="6.6099"
         ry="6.6099"
         stroke-width=".6" />
      <rect
         id="rect1648"
         x="69.84"
         y="40.71"
         width="29.811"
         height="29.811"
         rx="6.6099"
         ry="6.6099"
         stroke-width=".7" />
      <rect
         id="rect1650"
         x="69.84"
         y="40.71"
         width="29.811"
         height="29.811"
         rx="6.6099"
         ry="6.6099"
         stroke-width=".8" />
      <rect
         id="rect1652"
         x="69.84"
         y="40.71"
         width="29.811"
         height="29.811"
         rx="6.6099"
         ry="6.6099" />
      <rect
         id="rect1654"
         x="69.84"
         y="40.71"
         width="29.811"
         height="29.811"
         rx="6.6099"
         ry="6.6099"
         stroke-width="1.2" />
      <rect
         id="rect1656"
         x="69.84"
         y="40.71"
         width="29.811"
         height="29.811"
         rx="6.6099"
         ry="6.6099"
         stroke-width="1.4" />
      <rect
         id="rect1658"
         x="69.84"
         y="40.71"
         width="29.811"
         height="29.811"
         rx="6.6099"
         ry="6.6099"
         stroke-width="1.6" />
      <rect
         id="rect1660"
         x="69.84"
         y="40.71"
         width="29.811"
         height="29.811"
         rx="6.6099"
         ry="6.6099"
         stroke-width="1.8" />
      <rect
         id="rect1662"
         x="69.84"
         y="40.71"
         width="29.811"
         height="29.811"
         rx="6.6099"
         ry="6.6099"
         stroke-width="2" />
      <rect
         id="rect1664"
         x="69.84"
         y="40.71"
         width="29.811"
         height="29.811"
         rx="6.6099"
         ry="6.6099"
         stroke-width="2.2" />
      <rect
         id="rect1666"
         x="69.84"
         y="40.71"
         width="29.811"
         height="29.811"
         rx="6.6099"
         ry="6.6099"
         stroke-width="2.6" />
      <rect
         id="rect1668"
         x="69.84"
         y="40.71"
         width="29.811"
         height="29.811"
         rx="6.6099"
         ry="6.6099"
         stroke-width="3" />
      <rect
         id="rect1670"
         x="69.84"
         y="40.71"
         width="29.811"
         height="29.811"
         rx="6.6099"
         ry="6.6099"
         stroke-width="3.4" />
      <rect
         id="rect1672"
         x="69.84"
         y="40.71"
         width="29.811"
         height="29.811"
         rx="6.6099"
         ry="6.6099"
         stroke-width="3.8" />
      <rect
         id="rect1674"
         x="69.84"
         y="40.71"
         width="29.811"
         height="29.811"
         rx="6.6099"
         ry="6.6099"
         stroke-width="4.2" />
      <rect
         id="rect1676"
         x="69.84"
         y="40.71"
         width="29.811"
         height="29.811"
         rx="6.6099"
         ry="6.6099"
         stroke-width="4.6" />
      <rect
         id="rect1678"
         x="69.84"
         y="40.71"
         width="29.811"
         height="29.811"
         rx="6.6099"
         ry="6.6099"
         stroke-width="5" />
    </g>
    <rect
       id="rect849"
       x="2.4074"
       y="2.5392"
       width="29.087"
       height="29.087"
       rx="6.4495"
       ry="6.4495"
       fill="url(#linearGradient1632)"
       stroke-linecap="round"
       stroke-linejoin="round"
       stroke-width="2.6877" />
    <path
       id="path8"
       d="m 9.1755,9.998765 2.0189,3.634 h 8.8832 l -2.0189,2.4227 1.2113,-0.80756 -0.40378,0.80756 1.2113,-0.80756 -2.8265,2.4227 v -0.40378 l -0.40378,0.80756 0.40378,0.80756 -2.8265,3.2302 -1.2113,1.2113 v 1.2113 l 0.80756,0.80756 -1.2113,0.80756 h 0.80756 l -0.80756,1.2113 2.8265,-2.8265 -2.8265,4.4416 3.634,-3.2302 0.40378,-1.2113 v -0.80756 l 1.2113,-1.2113 v 0.40378 l 1.6151,-0.40378 1.6151,-1.6151 -0.40378,-0.40378 -0.80756,0.80756 v -0.80756 l 1.2113,-1.2306 v -1.1921 l 5.6529,-8.0756 z"
       filter="url(#filter1)"
       opacity="0.35"
       stroke-width="0.40378" />
    <path
       id="path8-7"
       d="m9.1755 9.3373 2.0189 3.634h8.8832l-2.0189 2.4227 1.2113-0.80756-0.40378 0.80756 1.2113-0.80756-2.8265 2.4227v-0.40378l-0.40378 0.80756 0.40378 0.80756-2.8265 3.2302-1.2113 1.2113v1.2113l0.80756 0.80756-1.2113 0.80756h0.80756l-0.80756 1.2113 2.8265-2.8265-2.8265 4.4416 3.634-3.2302 0.40378-1.2113v-0.80756l1.2113-1.2113v0.40378l1.6151-0.40378 1.6151-1.6151-0.40378-0.40378-0.80756 0.80756v-0.80756l1.2113-1.2306v-1.1921l5.6529-8.0756z"
       fill="#fff"
       stroke-width=".40378" />
  </g>
</svg>
