<?xml version="1.0" encoding="UTF-8"?>
<svg id="svg1443" width="128" height="128" version="1.1" viewBox="0 0 33.867 33.867" xmlns="http://www.w3.org/2000/svg" xmlns:cc="http://creativecommons.org/ns#" xmlns:dc="http://purl.org/dc/elements/1.1/" xmlns:rdf="http://www.w3.org/1999/02/22-rdf-syntax-ns#" xmlns:xlink="http://www.w3.org/1999/xlink">
 <defs id="defs1437">
  <linearGradient id="linearGradient1632" x1="132.21" x2="132.21" y1="42.152" y2="70.68" gradientTransform="matrix(.97573 0 0 .97573 -111.77 -37.183)" gradientUnits="userSpaceOnUse">
   <stop id="stop1626" stop-color="#fafafc" offset="0"/>
   <stop id="stop1628" stop-color="#e2e6ea" offset="1"/>
  </linearGradient>
 </defs>
 <metadata id="metadata1440">
  <rdf:RDF>
   <cc:Work rdf:about="">
    <dc:format>image/svg+xml</dc:format>
    <dc:type rdf:resource="http://purl.org/dc/dcmitype/StillImage"/>
    <dc:title/>
   </cc:Work>
  </rdf:RDF>
 </metadata>
 <g id="layer1">
  <g id="g1702" transform="matrix(.97573 0 0 .97573 -65.737 -37.183)" fill="none" opacity=".295" stroke="#000" stroke-linecap="round" stroke-linejoin="round" stroke-opacity=".02">
   <rect id="rect1634" x="69.84" y="40.71" width="29.811" height="29.811" rx="6.6099" ry="6.6099" stroke-width=".1"/>
   <rect id="rect1638" x="69.84" y="40.71" width="29.811" height="29.811" rx="6.6099" ry="6.6099" stroke-width=".2"/>
   <rect id="rect1640" x="69.84" y="40.71" width="29.811" height="29.811" rx="6.6099" ry="6.6099" stroke-width=".3"/>
   <rect id="rect1642" x="69.84" y="40.71" width="29.811" height="29.811" rx="6.6099" ry="6.6099" stroke-width=".4"/>
   <rect id="rect1644" x="69.84" y="40.71" width="29.811" height="29.811" rx="6.6099" ry="6.6099" stroke-width=".5"/>
   <rect id="rect1646" x="69.84" y="40.71" width="29.811" height="29.811" rx="6.6099" ry="6.6099" stroke-width=".6"/>
   <rect id="rect1648" x="69.84" y="40.71" width="29.811" height="29.811" rx="6.6099" ry="6.6099" stroke-width=".7"/>
   <rect id="rect1650" x="69.84" y="40.71" width="29.811" height="29.811" rx="6.6099" ry="6.6099" stroke-width=".8"/>
   <rect id="rect1652" x="69.84" y="40.71" width="29.811" height="29.811" rx="6.6099" ry="6.6099"/>
   <rect id="rect1654" x="69.84" y="40.71" width="29.811" height="29.811" rx="6.6099" ry="6.6099" stroke-width="1.2"/>
   <rect id="rect1656" x="69.84" y="40.71" width="29.811" height="29.811" rx="6.6099" ry="6.6099" stroke-width="1.4"/>
   <rect id="rect1658" x="69.84" y="40.71" width="29.811" height="29.811" rx="6.6099" ry="6.6099" stroke-width="1.6"/>
   <rect id="rect1660" x="69.84" y="40.71" width="29.811" height="29.811" rx="6.6099" ry="6.6099" stroke-width="1.8"/>
   <rect id="rect1662" x="69.84" y="40.71" width="29.811" height="29.811" rx="6.6099" ry="6.6099" stroke-width="2"/>
   <rect id="rect1664" x="69.84" y="40.71" width="29.811" height="29.811" rx="6.6099" ry="6.6099" stroke-width="2.2"/>
   <rect id="rect1666" x="69.84" y="40.71" width="29.811" height="29.811" rx="6.6099" ry="6.6099" stroke-width="2.6"/>
   <rect id="rect1668" x="69.84" y="40.71" width="29.811" height="29.811" rx="6.6099" ry="6.6099" stroke-width="3"/>
   <rect id="rect1670" x="69.84" y="40.71" width="29.811" height="29.811" rx="6.6099" ry="6.6099" stroke-width="3.4"/>
   <rect id="rect1672" x="69.84" y="40.71" width="29.811" height="29.811" rx="6.6099" ry="6.6099" stroke-width="3.8"/>
   <rect id="rect1674" x="69.84" y="40.71" width="29.811" height="29.811" rx="6.6099" ry="6.6099" stroke-width="4.2"/>
   <rect id="rect1676" x="69.84" y="40.71" width="29.811" height="29.811" rx="6.6099" ry="6.6099" stroke-width="4.6"/>
   <rect id="rect1678" x="69.84" y="40.71" width="29.811" height="29.811" rx="6.6099" ry="6.6099" stroke-width="5"/>
  </g>
  <rect id="rect849" x="2.4074" y="2.5392" width="29.087" height="29.087" rx="6.4495" ry="6.4495" fill="url(#linearGradient1632)" stroke-linecap="round" stroke-linejoin="round" stroke-width="2.6877"/>
  <g id="g28" transform="matrix(.34294 0 0 .34294 5.8779 -147.69)">
   <rect id="rect2" x="4" y="488" width="56" height="22" rx="5.6" ry="5.5" opacity=".2"/>
   <rect id="rect4" x="4" y="487" width="56" height="22" rx="5.6" ry="5.5" fill="#4a4a4a"/>
   <path id="path6" d="m9.5996 487c-3.1024 0-5.5996 2.453-5.5996 5.5v1c0-3.047 2.4972-5.5 5.5996-5.5h44.801c3.1024 0 5.5996 2.453 5.5996 5.5v-1c0-3.047-2.4972-5.5-5.5996-5.5z" fill="#fff" opacity=".1"/>
   <path id="path8" d="m24.67 453-1.649 4.8229-3.8728-3.3614-1.356 3.957-2.9297-2.5452-1.4425 4.2135-2.846-1.3898-0.3125 4.765-3.9732-1.9413-0.32924 5.0407-3.9593-0.78313 1.01 4.9911 6.99 16.231h44l6.99-16.231 1.01-4.9911-3.9593 0.78313-0.32924-5.0407-3.9732 1.9413-0.3125-4.765-2.846 1.3898-1.4425-4.2135-2.9297 2.5452-1.356-3.957-3.8728 3.3614-1.649-4.8229-3.8728 3.3614-0.58873 2.1702v-1.2464l-2.8571-4.2355-0.0112 0.0165-0.0112-0.0165-2.8571 4.2355v1.2464l-0.58865-2.1702z" fill="#353a4a"/>
   <path id="path10" d="m24.67 453-1.6484 4.8223-3.873-3.3613-1.3555 3.957-2.9297-2.5449-1.4434 4.2129-2.8457-1.3887-0.3125 4.7656-3.9727-1.9414-0.33008 5.0391-3.959-0.78321 0.21094 1.041 3.748 0.74219 0.33008-5.0391 3.9727 1.9414 0.3125-4.7656 2.8457 1.3887 1.4434-4.2129 2.9297 2.5449 1.3555-3.957 3.873 3.3613 1.6484-4.8223 3.873 3.3613 0.58789 2.1699v-1l-0.58789-2.1699zm14.66 0-3.873 3.3613-0.58789 2.1699v1l0.58789-2.1699 3.873-3.3613 1.6484 4.8223 3.873-3.3613 1.3555 3.957 2.9297-2.5449 1.4434 4.2129 2.8457-1.3887 0.3125 4.7656 3.9727-1.9414 0.33008 5.0391 3.748-0.74219 0.21094-1.041-3.959 0.78321-0.33008-5.0391-3.9727 1.9414-0.3125-4.7656-2.8457 1.3887-1.4434-4.2129-2.9297 2.5449-1.3555-3.957-3.873 3.3613zm-7.3418 0.0488-2.8574 4.2363v1l2.8574-4.2363 0.01172 0.0176 0.01172-0.0176 2.8574 4.2363v-1l-2.8574-4.2363-0.011719 0.01758z" fill="#fff" opacity=".1"/>
   <path id="path12" d="m38.957 473.96a3.0003 3.0003 0 0 0-2.957 3.043v8.2695a3.0003 3.0003 0 0 0 0 0.8164v2.0234a3.0003 3.0003 0 0 0 0 1.0586v7.832a3.0003 3.0003 0 1 0 6 0v-3.3789l4.7539 5.3672a3.0003 3.0003 0 1 0 4.4922-3.9766l-7.0117-7.9102 7.0352-8.1406a3.0003 3.0003 0 0 0-2.25-4.9922 3.0003 3.0003 0 0 0-2.2891 1.0703l-4.7305 5.4726v-3.5117a3.0003 3.0003 0 0 0-3.043-3.043zm-23.957 0.04297a3.0003 3.0003 0 1 0 0 6h5.6523c-3.4859 5.0842-4.6523 10.07-4.6523 17a3.0003 3.0003 0 1 0 6 0c0-8.5238 0.92361-11.397 7.168-17.926a3.0003 3.0003 0 0 0-2.168-5.0742z" opacity=".2"/>
   <path id="path14" d="m15 476h12c-6.5255 6.8232-8 11.143-8 20" fill="none" stroke="#ffc72e" stroke-linecap="round" stroke-linejoin="round" stroke-width="6"/>
   <path id="path16" d="m39 476v20" fill="none" stroke="#ffc72e" stroke-linecap="round" stroke-linejoin="round" stroke-width="6"/>
   <path id="path18" d="m32 472-12-20h24z" opacity=".2"/>
   <path id="path20" d="m49 476-10 11.571" fill="none" stroke="#ffc72e" stroke-linecap="round" stroke-linejoin="round" stroke-width="6"/>
   <path id="path22" d="m49 496-10-11.286" fill="none" stroke="#ffc72e" stroke-linecap="round" stroke-linejoin="round" stroke-width="6"/>
   <path id="path24" d="m32 471-12-20h24z" fill="#fd3333"/>
   <path id="path26" d="m20 451 0.59961 1h22.801l0.59961-1z" fill="#fff" opacity=".1"/>
  </g>
 </g>
</svg>
