<?xml version="1.0" encoding="UTF-8"?>
<svg id="svg1829" width="128" height="128" version="1.1" viewBox="0 0 33.867 33.867" xmlns="http://www.w3.org/2000/svg" xmlns:cc="http://creativecommons.org/ns#" xmlns:dc="http://purl.org/dc/elements/1.1/" xmlns:rdf="http://www.w3.org/1999/02/22-rdf-syntax-ns#" xmlns:xlink="http://www.w3.org/1999/xlink">
 <defs id="defs1823">
  <radialGradient id="radialGradient886" cx="17.31" cy="2.5296" r="14.544" gradientTransform="matrix(7.1618 0 0 1.7511 -106.66 -1.9)" gradientUnits="userSpaceOnUse">
   <stop id="stop880" stop-color="#f5fafe" offset="0"/>
   <stop id="stop882" stop-color="#e7e9eb" offset="1"/>
  </radialGradient>
  <linearGradient id="linearGradient880" x1="18.634" x2="14.74" y1="14.078" y2="16.868" gradientUnits="userSpaceOnUse">
   <stop id="stop874" stop-color="#e01f1f" offset="0"/>
   <stop id="stop876" stop-color="#ff6300" offset="1"/>
  </linearGradient>
  <linearGradient id="linearGradient889" x1="20.065" x2="20.065" y1="3.5927" y2="22.306" gradientUnits="userSpaceOnUse">
   <stop id="stop883" stop-color="#44dc30" offset="0"/>
   <stop id="stop885" stop-color="#41b790" offset="1"/>
  </linearGradient>
  <linearGradient id="linearGradient897" x1="31.113" x2="19.289" y1="19.897" y2="9.7825" gradientUnits="userSpaceOnUse">
   <stop id="stop891" stop-color="#4a82de" offset="0"/>
   <stop id="stop893" stop-color="#723fe9" stop-opacity=".99996" offset="1"/>
  </linearGradient>
 </defs>
 <metadata id="metadata1826">
  <rdf:RDF>
   <cc:Work rdf:about="">
    <dc:format>image/svg+xml</dc:format>
    <dc:type rdf:resource="http://purl.org/dc/dcmitype/StillImage"/>
    <dc:title/>
   </cc:Work>
  </rdf:RDF>
 </metadata>
 <g id="layer1">
  <g id="g1702" transform="matrix(.97573 0 0 .97573 -65.587 -37.192)" fill="none" opacity=".29676" stroke="#000" stroke-linecap="round" stroke-linejoin="round" stroke-opacity=".02">
   <rect id="rect1634" x="69.84" y="40.71" width="29.811" height="29.811" rx="6.6099" ry="6.6099" stroke-width=".1"/>
   <rect id="rect1638" x="69.84" y="40.71" width="29.811" height="29.811" rx="6.6099" ry="6.6099" stroke-width=".2"/>
   <rect id="rect1640" x="69.84" y="40.71" width="29.811" height="29.811" rx="6.6099" ry="6.6099" stroke-width=".3"/>
   <rect id="rect1642" x="69.84" y="40.71" width="29.811" height="29.811" rx="6.6099" ry="6.6099" stroke-width=".4"/>
   <rect id="rect1644" x="69.84" y="40.71" width="29.811" height="29.811" rx="6.6099" ry="6.6099" stroke-width=".5"/>
   <rect id="rect1646" x="69.84" y="40.71" width="29.811" height="29.811" rx="6.6099" ry="6.6099" stroke-width=".6"/>
   <rect id="rect1648" x="69.84" y="40.71" width="29.811" height="29.811" rx="6.6099" ry="6.6099" stroke-width=".7"/>
   <rect id="rect1650" x="69.84" y="40.71" width="29.811" height="29.811" rx="6.6099" ry="6.6099" stroke-width=".8"/>
   <rect id="rect1652" x="69.84" y="40.71" width="29.811" height="29.811" rx="6.6099" ry="6.6099"/>
   <rect id="rect1654" x="69.84" y="40.71" width="29.811" height="29.811" rx="6.6099" ry="6.6099" stroke-width="1.2"/>
   <rect id="rect1656" x="69.84" y="40.71" width="29.811" height="29.811" rx="6.6099" ry="6.6099" stroke-width="1.4"/>
   <rect id="rect1658" x="69.84" y="40.71" width="29.811" height="29.811" rx="6.6099" ry="6.6099" stroke-width="1.6"/>
   <rect id="rect1660" x="69.84" y="40.71" width="29.811" height="29.811" rx="6.6099" ry="6.6099" stroke-width="1.8"/>
   <rect id="rect1662" x="69.84" y="40.71" width="29.811" height="29.811" rx="6.6099" ry="6.6099" stroke-width="2"/>
   <rect id="rect1664" x="69.84" y="40.71" width="29.811" height="29.811" rx="6.6099" ry="6.6099" stroke-width="2.2"/>
   <rect id="rect1666" x="69.84" y="40.71" width="29.811" height="29.811" rx="6.6099" ry="6.6099" stroke-width="2.6"/>
   <rect id="rect1668" x="69.84" y="40.71" width="29.811" height="29.811" rx="6.6099" ry="6.6099" stroke-width="3"/>
   <rect id="rect1670" x="69.84" y="40.71" width="29.811" height="29.811" rx="6.6099" ry="6.6099" stroke-width="3.4"/>
   <rect id="rect1672" x="69.84" y="40.71" width="29.811" height="29.811" rx="6.6099" ry="6.6099" stroke-width="3.8"/>
   <rect id="rect1674" x="69.84" y="40.71" width="29.811" height="29.811" rx="6.6099" ry="6.6099" stroke-width="4.2"/>
   <rect id="rect1676" x="69.84" y="40.71" width="29.811" height="29.811" rx="6.6099" ry="6.6099" stroke-width="4.6"/>
   <rect id="rect1678" x="69.84" y="40.71" width="29.811" height="29.811" rx="6.6099" ry="6.6099" stroke-width="5"/>
  </g>
  <rect id="rect849-5" x="2.5579" y="2.5293" width="29.087" height="29.087" rx="6.4495" ry="6.4495" fill="url(#radialGradient886)" stroke-linecap="round" stroke-linejoin="round" stroke-width="2.6877"/>
  <g id="g902" transform="matrix(1.531 0 0 1.531 -13.183 -9.3493)" stroke-width=".26458">
   <path id="path4" d="m21.365 9.7019h1.7651c0.35459-0.044575 0.32648 0.056279 0.32839 0.35502 0.05312 4.8381 0.98906 9.5166 3.9677 11.747 0.33029 0.21439 0.36667 0.2144 0.16278 0.57266l-1.0331 1.8156c-0.18907 0.44702-0.28164 0.33088-0.58631 0.12581-2.0558-1.4266-3.368-3.3063-4.0266-5.6123-0.6976-2.4427-0.57803-5.2974-0.57803-9.0042z" fill="url(#linearGradient897)"/>
   <path id="path6" d="m18.19 9.7121h-1.7651c-0.35459-0.044575-0.32648 0.056279-0.32839 0.35502-0.05312 4.8381-0.98906 9.5166-3.9677 11.747-0.33029 0.21439-0.36667 0.2144-0.16278 0.57266l1.0331 1.8156c0.18907 0.44702 0.28164 0.33088 0.58631 0.12581 2.0558-1.4266 3.368-3.3063 4.0266-5.6123 0.6976-2.4427 0.57803-5.2974 0.57803-9.0042z" fill="url(#linearGradient880)"/>
   <path id="path8" d="m18.19 9.702v14.374c-0.02054 0.42184-0.0033 0.43383 0.39102 0.43383h2.4679c0.40902 0.04486 0.31606-0.0841 0.31606-0.46058v-14.348z" fill="url(#linearGradient889)"/>
  </g>
 </g>
</svg>
