<?xml version="1.0" encoding="UTF-8"?>
<svg id="svg1829" width="128" height="128" version="1.1" viewBox="0 0 33.867 33.867" xmlns="http://www.w3.org/2000/svg" xmlns:cc="http://creativecommons.org/ns#" xmlns:dc="http://purl.org/dc/elements/1.1/" xmlns:rdf="http://www.w3.org/1999/02/22-rdf-syntax-ns#" xmlns:xlink="http://www.w3.org/1999/xlink">
 <defs id="defs1823">
  <radialGradient id="radialGradient908" cx="16.937" cy="3.2428" r="14.544" gradientTransform="matrix(4.4792 0 0 2.0392 -58.927 -3.3698)" gradientUnits="userSpaceOnUse">
   <stop id="stop930" stop-color="#47d2ff" offset="0"/>
   <stop id="stop932" stop-color="#027aff" offset="1"/>
  </radialGradient>
  <linearGradient id="linearGradient1405" x1="16.04" x2="16.04" y1="10.062" y2="49.031" gradientUnits="userSpaceOnUse">
   <stop id="stop1399" stop-color="#fff" offset="0"/>
   <stop id="stop1401" stop-color="#087eff" offset="1"/>
  </linearGradient>
  <radialGradient id="radialGradient1415" cx="17.102" cy="17.073" r="10.92" gradientTransform="matrix(.93775 0 0 .93775 .99383 1.7593)" gradientUnits="userSpaceOnUse">
   <stop id="stop1409" stop-color="#121b43" offset="0"/>
   <stop id="stop1417" stop-color="#121b43" stop-opacity=".94118" offset=".69076"/>
   <stop id="stop1463" stop-color="#121b43" stop-opacity=".76863" offset=".81711"/>
   <stop id="stop1465" stop-color="#121b43" stop-opacity=".60392" offset=".87384"/>
   <stop id="stop1469" stop-color="#121b43" stop-opacity=".40392" offset=".91858"/>
   <stop id="stop1471" stop-color="#121b43" stop-opacity=".07451" offset=".98518"/>
   <stop id="stop1411" stop-color="#121b43" stop-opacity="0" offset="1"/>
  </radialGradient>
 </defs>
 <metadata id="metadata1826">
  <rdf:RDF>
   <cc:Work rdf:about="">
    <dc:format>image/svg+xml</dc:format>
    <dc:type rdf:resource="http://purl.org/dc/dcmitype/StillImage"/>
    <dc:title/>
   </cc:Work>
  </rdf:RDF>
 </metadata>
 <g id="layer1">
  <g id="g1702" transform="matrix(.97573 0 0 .97573 -65.587 -37.192)" fill="none" opacity=".29676" stroke="#000" stroke-linecap="round" stroke-linejoin="round" stroke-opacity=".02">
   <rect id="rect1634" x="69.84" y="40.71" width="29.811" height="29.811" rx="6.6099" ry="6.6099" stroke-width=".1"/>
   <rect id="rect1638" x="69.84" y="40.71" width="29.811" height="29.811" rx="6.6099" ry="6.6099" stroke-width=".2"/>
   <rect id="rect1640" x="69.84" y="40.71" width="29.811" height="29.811" rx="6.6099" ry="6.6099" stroke-width=".3"/>
   <rect id="rect1642" x="69.84" y="40.71" width="29.811" height="29.811" rx="6.6099" ry="6.6099" stroke-width=".4"/>
   <rect id="rect1644" x="69.84" y="40.71" width="29.811" height="29.811" rx="6.6099" ry="6.6099" stroke-width=".5"/>
   <rect id="rect1646" x="69.84" y="40.71" width="29.811" height="29.811" rx="6.6099" ry="6.6099" stroke-width=".6"/>
   <rect id="rect1648" x="69.84" y="40.71" width="29.811" height="29.811" rx="6.6099" ry="6.6099" stroke-width=".7"/>
   <rect id="rect1650" x="69.84" y="40.71" width="29.811" height="29.811" rx="6.6099" ry="6.6099" stroke-width=".8"/>
   <rect id="rect1652" x="69.84" y="40.71" width="29.811" height="29.811" rx="6.6099" ry="6.6099"/>
   <rect id="rect1654" x="69.84" y="40.71" width="29.811" height="29.811" rx="6.6099" ry="6.6099" stroke-width="1.2"/>
   <rect id="rect1656" x="69.84" y="40.71" width="29.811" height="29.811" rx="6.6099" ry="6.6099" stroke-width="1.4"/>
   <rect id="rect1658" x="69.84" y="40.71" width="29.811" height="29.811" rx="6.6099" ry="6.6099" stroke-width="1.6"/>
   <rect id="rect1660" x="69.84" y="40.71" width="29.811" height="29.811" rx="6.6099" ry="6.6099" stroke-width="1.8"/>
   <rect id="rect1662" x="69.84" y="40.71" width="29.811" height="29.811" rx="6.6099" ry="6.6099" stroke-width="2"/>
   <rect id="rect1664" x="69.84" y="40.71" width="29.811" height="29.811" rx="6.6099" ry="6.6099" stroke-width="2.2"/>
   <rect id="rect1666" x="69.84" y="40.71" width="29.811" height="29.811" rx="6.6099" ry="6.6099" stroke-width="2.6"/>
   <rect id="rect1668" x="69.84" y="40.71" width="29.811" height="29.811" rx="6.6099" ry="6.6099" stroke-width="3"/>
   <rect id="rect1670" x="69.84" y="40.71" width="29.811" height="29.811" rx="6.6099" ry="6.6099" stroke-width="3.4"/>
   <rect id="rect1672" x="69.84" y="40.71" width="29.811" height="29.811" rx="6.6099" ry="6.6099" stroke-width="3.8"/>
   <rect id="rect1674" x="69.84" y="40.71" width="29.811" height="29.811" rx="6.6099" ry="6.6099" stroke-width="4.2"/>
   <rect id="rect1676" x="69.84" y="40.71" width="29.811" height="29.811" rx="6.6099" ry="6.6099" stroke-width="4.6"/>
   <rect id="rect1678" x="69.84" y="40.71" width="29.811" height="29.811" rx="6.6099" ry="6.6099" stroke-width="5"/>
  </g>
  <rect id="rect849-5" x="2.5579" y="2.5293" width="29.087" height="29.087" rx="6.4495" ry="6.4495" fill="url(#radialGradient908)" stroke-linecap="round" stroke-linejoin="round" stroke-width="2.6877"/>
  <circle id="path1407" cx="17.031" cy="17.77" r="10.24" fill="url(#radialGradient1415)" opacity=".16866"/>
  <path id="path1165-8-6" d="m17.102 8.2916c-4.8532 0-8.7801 3.9239-8.7801 8.7683 0 4.8444 3.9269 8.7947 8.7801 8.7947s8.7801-3.9474 8.7801-8.7947c0-4.8444-3.9269-8.7683-8.7801-8.7683zm4.7873 3.6386c2.1064 0.63718 2.6581 3.6525 1.0258 4.8275l1.3236 5.0047-1.8349 0.45134-1.309-4.9672c-2.3297-0.57441-2.8638-2.6069-1.4706-4.6871l1.4948 2.7752 0.86924-0.2575m-4.8875 0.37463c0.89997 0 1.6118 0.71698 1.6118 1.6089 0 0.89184-0.71479 1.6315-1.6118 1.6315-0.89494 0-1.6061-0.74036-1.6061-1.6315a1.6026 1.6026 0 0 1 1.6061-1.6089z" fill="url(#linearGradient1405)" stroke-width=".12914" style="isolation:isolate"/>
 </g>
</svg>
