<?xml version="1.0" encoding="UTF-8"?>
<svg id="svg30" width="64" height="64" version="1.1" viewBox="0 0 16.933 16.933" xmlns="http://www.w3.org/2000/svg" xmlns:cc="http://creativecommons.org/ns#" xmlns:dc="http://purl.org/dc/elements/1.1/" xmlns:rdf="http://www.w3.org/1999/02/22-rdf-syntax-ns#" xmlns:xlink="http://www.w3.org/1999/xlink">
 <metadata id="metadata2">
  <rdf:RDF>
   <cc:Work rdf:about="">
    <dc:format>image/svg+xml</dc:format>
    <dc:type rdf:resource="http://purl.org/dc/dcmitype/StillImage"/>
    <dc:title/>
   </cc:Work>
  </rdf:RDF>
 </metadata>
 <defs id="defs12">
  <filter id="filter917" x="-.083994" y="-.084006" width="1.168" height="1.168" color-interpolation-filters="sRGB">
   <feGaussianBlur id="feGaussianBlur4" stdDeviation="0.22223482"/>
  </filter>
  <linearGradient id="linearGradient2116" x1="59.5" x2="4.5" y1="4.5" y2="59.5" gradientTransform="scale(.26458)" gradientUnits="userSpaceOnUse">
   <stop id="stop2110" stop-color="#37beff" offset="0"/>
   <stop id="stop2112" stop-color="#00a0ff" offset="1"/>
  </linearGradient>
 </defs>
 <rect id="rect2106" x="1.1906" y="1.1906" width="14.552" height="14.552" ry="3.4395" fill="url(#linearGradient2116)" stroke-width=".56196"/>
 <path id="path16" transform="matrix(1.1772 0 0 1.1772 -1.5003 -1.5002)" d="m5.2915 11.239c-4e-3 -1.524 2.2-5.925 3.226-5.947 0.513-0.013 1.282 0.962 1.928 2.222 0.647 1.259 1.17 2.804 1.196 3.932 0 0-2.483-4.849-3.102-4.863-0.63-0.017-2.342 3.416-2.138 3.798 0.2 0.373 3.888-0.83 3.888-0.83-0.08 0.123-2.487 1.715-4.293 2.09-0.273-0.012-0.682 0-0.705-0.402" fill="#157ce0" fill-rule="evenodd" filter="url(#filter917)"/>
 <path id="path18" d="m4.7289 11.73c-0.00471-1.7941 2.5898-6.9749 3.7977-7.0008 0.6039-0.015304 1.5092 1.1325 2.2696 2.6157 0.76165 1.4821 1.3773 3.3009 1.4079 4.6288 0 0-2.923-5.7083-3.6517-5.7247-0.74164-0.020012-2.757 4.0213-2.5169 4.471 0.23544 0.4391 4.577-0.97708 4.577-0.97708-0.09418 0.1448-2.9277 2.0189-5.0537 2.4604-0.32138-0.01413-0.80285 0-0.82993-0.47324" fill="#fff" fill-rule="evenodd" stroke-width="1.1772"/>
 <g id="g28" transform="translate(-41.067 -6.4906)" fill="#5e4aa6" stroke-width=".26458">
  <circle id="circle20" cx="-330.35" cy="-328.38" r="0"/>
  <circle id="circle22" cx="-312.11" cy="-326.25" r="0"/>
  <circle id="circle24" cx="-306.02" cy="-333.07" r="0"/>
  <circle id="circle26" cx="-308.84" cy="-326.01" r="0"/>
 </g>
</svg>
