<?xml version="1.0" encoding="UTF-8"?>
<svg id="svg1811" width="128" height="128" version="1.1" viewBox="0 0 33.867 33.867" xmlns="http://www.w3.org/2000/svg" xmlns:cc="http://creativecommons.org/ns#" xmlns:dc="http://purl.org/dc/elements/1.1/" xmlns:rdf="http://www.w3.org/1999/02/22-rdf-syntax-ns#" xmlns:xlink="http://www.w3.org/1999/xlink">
 <defs id="defs1805">
  <linearGradient id="linearGradient1803" x1="-230.59" x2="-128.89" y1="205.2" y2="247.06" gradientTransform="matrix(.53841 0 0 .53841 113.93 -103.89)" gradientUnits="userSpaceOnUse" xlink:href="#linearGradient1197"/>
  <linearGradient id="linearGradient1197">
   <stop id="stop1193" stop-color="#fcfcfc" offset="0"/>
   <stop id="stop1195" stop-color="#e3e3e3" offset="1"/>
  </linearGradient>
 </defs>
 <metadata id="metadata1808">
  <rdf:RDF>
   <cc:Work rdf:about="">
    <dc:format>image/svg+xml</dc:format>
    <dc:type rdf:resource="http://purl.org/dc/dcmitype/StillImage"/>
    <dc:title/>
   </cc:Work>
  </rdf:RDF>
 </metadata>
 <g id="layer1">
  <g id="g1702" transform="matrix(.97573 0 0 .97573 -65.752 -37.265)" fill="none" opacity=".295" stroke="#000" stroke-linecap="round" stroke-linejoin="round" stroke-opacity=".02">
   <rect id="rect1634" x="69.84" y="40.71" width="29.811" height="29.811" rx="6.6099" ry="6.6099" stroke-width=".1"/>
   <rect id="rect1638" x="69.84" y="40.71" width="29.811" height="29.811" rx="6.6099" ry="6.6099" stroke-width=".2"/>
   <rect id="rect1640" x="69.84" y="40.71" width="29.811" height="29.811" rx="6.6099" ry="6.6099" stroke-width=".3"/>
   <rect id="rect1642" x="69.84" y="40.71" width="29.811" height="29.811" rx="6.6099" ry="6.6099" stroke-width=".4"/>
   <rect id="rect1644" x="69.84" y="40.71" width="29.811" height="29.811" rx="6.6099" ry="6.6099" stroke-width=".5"/>
   <rect id="rect1646" x="69.84" y="40.71" width="29.811" height="29.811" rx="6.6099" ry="6.6099" stroke-width=".6"/>
   <rect id="rect1648" x="69.84" y="40.71" width="29.811" height="29.811" rx="6.6099" ry="6.6099" stroke-width=".7"/>
   <rect id="rect1650" x="69.84" y="40.71" width="29.811" height="29.811" rx="6.6099" ry="6.6099" stroke-width=".8"/>
   <rect id="rect1652" x="69.84" y="40.71" width="29.811" height="29.811" rx="6.6099" ry="6.6099"/>
   <rect id="rect1654" x="69.84" y="40.71" width="29.811" height="29.811" rx="6.6099" ry="6.6099" stroke-width="1.2"/>
   <rect id="rect1656" x="69.84" y="40.71" width="29.811" height="29.811" rx="6.6099" ry="6.6099" stroke-width="1.4"/>
   <rect id="rect1658" x="69.84" y="40.71" width="29.811" height="29.811" rx="6.6099" ry="6.6099" stroke-width="1.6"/>
   <rect id="rect1660" x="69.84" y="40.71" width="29.811" height="29.811" rx="6.6099" ry="6.6099" stroke-width="1.8"/>
   <rect id="rect1662" x="69.84" y="40.71" width="29.811" height="29.811" rx="6.6099" ry="6.6099" stroke-width="2"/>
   <rect id="rect1664" x="69.84" y="40.71" width="29.811" height="29.811" rx="6.6099" ry="6.6099" stroke-width="2.2"/>
   <rect id="rect1666" x="69.84" y="40.71" width="29.811" height="29.811" rx="6.6099" ry="6.6099" stroke-width="2.6"/>
   <rect id="rect1668" x="69.84" y="40.71" width="29.811" height="29.811" rx="6.6099" ry="6.6099" stroke-width="3"/>
   <rect id="rect1670" x="69.84" y="40.71" width="29.811" height="29.811" rx="6.6099" ry="6.6099" stroke-width="3.4"/>
   <rect id="rect1672" x="69.84" y="40.71" width="29.811" height="29.811" rx="6.6099" ry="6.6099" stroke-width="3.8"/>
   <rect id="rect1674" x="69.84" y="40.71" width="29.811" height="29.811" rx="6.6099" ry="6.6099" stroke-width="4.2"/>
   <rect id="rect1676" x="69.84" y="40.71" width="29.811" height="29.811" rx="6.6099" ry="6.6099" stroke-width="4.6"/>
   <rect id="rect1678" x="69.84" y="40.71" width="29.811" height="29.811" rx="6.6099" ry="6.6099" stroke-width="5"/>
  </g>
  <rect id="rect849" x="2.3926" y="2.4569" width="29.087" height="29.087" rx="6.4495" ry="6.4495" fill="#cacaca" stroke-linecap="round" stroke-linejoin="round" stroke-width="2.688"/>
  <rect id="rect1497" x="6.3087" y="4.9699" width="3.5369" height="2.0211" ry=".29598" opacity=".25"/>
  <rect id="rect1499" x="10.415" y="4.9699" width="3.5369" height="2.0211" ry=".29598" opacity=".25"/>
  <rect id="rect1501" x="14.571" y="4.9699" width="3.5369" height="2.0211" ry=".29598" opacity=".25"/>
  <rect id="rect1503" x="18.678" y="4.9699" width="3.5369" height="2.0211" ry=".29598" opacity=".25"/>
  <rect id="rect1505" x="22.833" y="4.9699" width="3.5369" height="2.0211" ry=".29598" opacity=".25"/>
  <rect id="rect1507" x="26.94" y="4.9699" width="3.5369" height="2.0211" ry=".29598" opacity=".25"/>
  <rect id="rect1521" x="3.4597" y="7.6055" width="3.8211" height="3.9474" ry=".42019" opacity=".25"/>
  <rect id="rect1523" x="8.0181" y="7.6055" width="3.8211" height="3.9474" ry=".42019" opacity=".25"/>
  <rect id="rect1525" x="12.577" y="7.6055" width="3.8211" height="3.9474" ry=".42019" opacity=".25"/>
  <rect id="rect1527" x="17.135" y="7.6055" width="3.8211" height="3.9474" ry=".42019" opacity=".25"/>
  <rect id="rect1529" x="21.693" y="7.6055" width="3.8211" height="3.9474" ry=".42019" opacity=".25"/>
  <rect id="rect1531" x="26.084" y="7.6055" width="3.8211" height="3.9474" ry=".42019" opacity=".25"/>
  <rect id="rect1547" x="5.2603" y="12.152" width="3.6507" height="3.8841" ry=".41344" opacity=".25"/>
  <rect id="rect1549" x="9.6323" y="12.152" width="3.6507" height="3.8841" ry=".41344" opacity=".25"/>
  <rect id="rect1551" x="14.229" y="12.152" width="3.6507" height="3.8841" ry=".41344" opacity=".25"/>
  <rect id="rect1553" x="18.601" y="12.152" width="3.6507" height="3.8841" ry=".41344" opacity=".25"/>
  <rect id="rect1555" x="23.197" y="12.152" width="3.6507" height="3.8841" ry=".41344" opacity=".25"/>
  <rect id="rect1557" x="27.569" y="12.152" width="3.6507" height="3.8841" ry=".41344" opacity=".25"/>
  <rect id="rect1571" x="6.4912" y="16.674" width="3.6507" height="3.8841" ry=".41344" opacity=".25"/>
  <rect id="rect1573" x="10.863" y="16.674" width="3.6507" height="3.8841" ry=".41344" opacity=".25"/>
  <rect id="rect1575" x="15.46" y="16.674" width="3.6507" height="3.8841" ry=".41344" opacity=".25"/>
  <rect id="rect1577" x="19.832" y="16.674" width="3.6507" height="3.8841" ry=".41344" opacity=".25"/>
  <rect id="rect1579" x="24.428" y="16.674" width="3.6507" height="3.8841" ry=".41344" opacity=".25"/>
  <rect id="rect1591" x="3.3078" y="21.128" width="3.6507" height="3.8841" ry=".41344" opacity=".25"/>
  <rect id="rect1593" x="7.9044" y="21.128" width="3.6507" height="3.8841" ry=".41344" opacity=".25"/>
  <rect id="rect1595" x="12.276" y="21.128" width="3.6507" height="3.8841" ry=".41344" opacity=".25"/>
  <rect id="rect1597" x="16.873" y="21.128" width="3.6507" height="3.8841" ry=".41344" opacity=".25"/>
  <rect id="rect1599" x="21.245" y="21.128" width="3.6507" height="3.8841" ry=".41344" opacity=".25"/>
  <rect id="rect1601" x="25.756" y="21.128" width="3.6507" height="3.8841" ry=".41344" opacity=".25"/>
  <rect id="rect1613" x="3.3078" y="25.647" width="3.6507" height="3.8841" ry=".41344" opacity=".25"/>
  <rect id="rect1615" x="7.8131" y="25.647" width="17.368" height="3.8841" ry=".41344" opacity=".25"/>
  <rect id="rect1617" x="25.756" y="25.647" width="3.6507" height="3.8841" ry=".41344" opacity=".25"/>
  <rect id="rect3667" x="6.3087" y="4.5644" width="3.5369" height="2.0211" ry=".29598" fill="url(#linearGradient1803)" stroke="#808080" stroke-linecap="round" stroke-linejoin="round" stroke-width=".17678"/>
  <rect id="rect3669" x="10.415" y="4.5644" width="3.5369" height="2.0211" ry=".29598" fill="url(#linearGradient1803)" stroke="#808080" stroke-linecap="round" stroke-linejoin="round" stroke-width=".17678"/>
  <rect id="rect3671" x="14.571" y="4.5644" width="3.5369" height="2.0211" ry=".29598" fill="url(#linearGradient1803)" stroke="#808080" stroke-linecap="round" stroke-linejoin="round" stroke-width=".17678"/>
  <rect id="rect3673" x="18.678" y="4.5644" width="3.5369" height="2.0211" ry=".29598" fill="url(#linearGradient1803)" stroke="#808080" stroke-linecap="round" stroke-linejoin="round" stroke-width=".17678"/>
  <rect id="rect3675" x="22.833" y="4.5644" width="3.5369" height="2.0211" ry=".29598" fill="url(#linearGradient1803)" stroke="#808080" stroke-linecap="round" stroke-linejoin="round" stroke-width=".17678"/>
  <rect id="rect3677" x="26.94" y="4.5644" width="3.5369" height="2.0211" ry=".29598" fill="url(#linearGradient1803)" stroke="#808080" stroke-linecap="round" stroke-linejoin="round" stroke-width=".17678"/>
  <rect id="rect3691" x="3.4597" y="7.2" width="3.8211" height="3.9474" ry=".42019" fill="url(#linearGradient1803)" stroke="#808080" stroke-linecap="round" stroke-linejoin="round" stroke-width=".17678"/>
  <rect id="rect3693" x="8.0181" y="7.2" width="3.8211" height="3.9474" ry=".42019" fill="url(#linearGradient1803)" stroke="#808080" stroke-linecap="round" stroke-linejoin="round" stroke-width=".17678"/>
  <rect id="rect3695" x="12.577" y="7.2" width="3.8211" height="3.9474" ry=".42019" fill="url(#linearGradient1803)" stroke="#808080" stroke-linecap="round" stroke-linejoin="round" stroke-width=".17678"/>
  <rect id="rect3697" x="17.135" y="7.2" width="3.8211" height="3.9474" ry=".42019" fill="url(#linearGradient1803)" stroke="#808080" stroke-linecap="round" stroke-linejoin="round" stroke-width=".17678"/>
  <rect id="rect3699" x="21.693" y="7.2" width="3.8211" height="3.9474" ry=".42019" fill="url(#linearGradient1803)" stroke="#808080" stroke-linecap="round" stroke-linejoin="round" stroke-width=".17678"/>
  <rect id="rect3701" x="26.084" y="7.2" width="3.8211" height="3.9474" ry=".42019" fill="url(#linearGradient1803)" stroke="#808080" stroke-linecap="round" stroke-linejoin="round" stroke-width=".17678"/>
  <rect id="rect3717" x="5.2603" y="11.747" width="3.6507" height="3.8841" ry=".41344" fill="url(#linearGradient1803)" stroke="#808080" stroke-linecap="round" stroke-linejoin="round" stroke-width=".17678"/>
  <rect id="rect3719" x="9.6323" y="11.747" width="3.6507" height="3.8841" ry=".41344" fill="url(#linearGradient1803)" stroke="#808080" stroke-linecap="round" stroke-linejoin="round" stroke-width=".17678"/>
  <rect id="rect3721" x="14.229" y="11.747" width="3.6507" height="3.8841" ry=".41344" fill="url(#linearGradient1803)" stroke="#808080" stroke-linecap="round" stroke-linejoin="round" stroke-width=".17678"/>
  <rect id="rect3723" x="18.601" y="11.747" width="3.6507" height="3.8841" ry=".41344" fill="url(#linearGradient1803)" stroke="#808080" stroke-linecap="round" stroke-linejoin="round" stroke-width=".17678"/>
  <rect id="rect3725" x="23.197" y="11.747" width="3.6507" height="3.8841" ry=".41344" fill="url(#linearGradient1803)" stroke="#808080" stroke-linecap="round" stroke-linejoin="round" stroke-width=".17678"/>
  <rect id="rect3727" x="27.569" y="11.747" width="3.6507" height="3.8841" ry=".41344" fill="url(#linearGradient1803)" stroke="#808080" stroke-linecap="round" stroke-linejoin="round" stroke-width=".17678"/>
  <rect id="rect3741" x="6.4912" y="16.268" width="3.6507" height="3.8841" ry=".41344" fill="url(#linearGradient1803)" stroke="#808080" stroke-linecap="round" stroke-linejoin="round" stroke-width=".17678"/>
  <rect id="rect3743" x="10.863" y="16.268" width="3.6507" height="3.8841" ry=".41344" fill="url(#linearGradient1803)" stroke="#808080" stroke-linecap="round" stroke-linejoin="round" stroke-width=".17678"/>
  <rect id="rect3745" x="15.46" y="16.268" width="3.6507" height="3.8841" ry=".41344" fill="url(#linearGradient1803)" stroke="#808080" stroke-linecap="round" stroke-linejoin="round" stroke-width=".17678"/>
  <rect id="rect3747" x="19.832" y="16.268" width="3.6507" height="3.8841" ry=".41344" fill="url(#linearGradient1803)" stroke="#808080" stroke-linecap="round" stroke-linejoin="round" stroke-width=".17678"/>
  <rect id="rect3749" x="24.428" y="16.268" width="3.6507" height="3.8841" ry=".41344" fill="url(#linearGradient1803)" stroke="#808080" stroke-linecap="round" stroke-linejoin="round" stroke-width=".17678"/>
  <rect id="rect3761" x="3.3078" y="20.722" width="3.6507" height="3.8841" ry=".41344" fill="url(#linearGradient1803)" stroke="#808080" stroke-linecap="round" stroke-linejoin="round" stroke-width=".17678"/>
  <rect id="rect3763" x="7.9044" y="20.722" width="3.6507" height="3.8841" ry=".41344" fill="url(#linearGradient1803)" stroke="#808080" stroke-linecap="round" stroke-linejoin="round" stroke-width=".17678"/>
  <rect id="rect3765" x="12.276" y="20.722" width="3.6507" height="3.8841" ry=".41344" fill="url(#linearGradient1803)" stroke="#808080" stroke-linecap="round" stroke-linejoin="round" stroke-width=".17678"/>
  <rect id="rect3767" x="16.873" y="20.722" width="3.6507" height="3.8841" ry=".41344" fill="url(#linearGradient1803)" stroke="#808080" stroke-linecap="round" stroke-linejoin="round" stroke-width=".17678"/>
  <rect id="rect3769" x="21.245" y="20.722" width="3.6507" height="3.8841" ry=".41344" fill="url(#linearGradient1803)" stroke="#808080" stroke-linecap="round" stroke-linejoin="round" stroke-width=".17678"/>
  <rect id="rect3771" x="25.756" y="20.722" width="3.6507" height="3.8841" ry=".41344" fill="url(#linearGradient1803)" stroke="#808080" stroke-linecap="round" stroke-linejoin="round" stroke-width=".17678"/>
  <rect id="rect3783" x="3.3078" y="25.241" width="3.6507" height="3.8841" ry=".41344" fill="url(#linearGradient1803)" stroke="#808080" stroke-linecap="round" stroke-linejoin="round" stroke-width=".17678"/>
  <rect id="rect3785" x="7.8131" y="25.241" width="17.368" height="3.8841" ry=".41344" fill="url(#linearGradient1803)" stroke="#808080" stroke-linecap="round" stroke-linejoin="round" stroke-width=".17678"/>
  <rect id="rect3787" x="25.756" y="25.241" width="3.6507" height="3.8841" ry=".41344" fill="url(#linearGradient1803)" stroke="#808080" stroke-linecap="round" stroke-linejoin="round" stroke-width=".17678"/>
 </g>
</svg>
