<?xml version="1.0" encoding="UTF-8"?>
<svg id="svg1576" width="128" height="128" version="1.1" viewBox="0 0 33.867 33.867" xmlns="http://www.w3.org/2000/svg" xmlns:cc="http://creativecommons.org/ns#" xmlns:dc="http://purl.org/dc/elements/1.1/" xmlns:rdf="http://www.w3.org/1999/02/22-rdf-syntax-ns#" xmlns:xlink="http://www.w3.org/1999/xlink">
 <defs id="defs1570">
  <radialGradient id="radialGradient1506" cx="17.081" cy="3.8306" r="14.544" gradientTransform="matrix(2.7895 0 0 1.8353 -30.612 -3.2437)" gradientUnits="userSpaceOnUse">
   <stop id="stop4671" stop-color="#7376fa" offset="0"/>
   <stop id="stop4673" stop-color="#5a2bd2" offset="1"/>
  </radialGradient>
  <linearGradient id="linearGradient2894" x1="16.932" x2="16.932" y1="5.8012" y2="29.238" gradientTransform="translate(-.045638 -.044004)" gradientUnits="userSpaceOnUse">
   <stop id="stop2888" stop-color="#151515" offset="0"/>
   <stop id="stop2890" stop-color="#262626" offset="1"/>
  </linearGradient>
 </defs>
 <metadata id="metadata1573">
  <rdf:RDF>
   <cc:Work rdf:about="">
    <dc:format>image/svg+xml</dc:format>
    <dc:type rdf:resource="http://purl.org/dc/dcmitype/StillImage"/>
    <dc:title/>
   </cc:Work>
  </rdf:RDF>
 </metadata>
 <g id="layer1">
  <g id="g1702" transform="matrix(.97573 0 0 .97573 -65.794 -37.247)" fill="none" opacity=".295" stroke="#000" stroke-linecap="round" stroke-linejoin="round" stroke-opacity=".02">
   <rect id="rect1634" x="69.84" y="40.71" width="29.811" height="29.811" rx="6.6099" ry="6.6099" stroke-width=".1"/>
   <rect id="rect1638" x="69.84" y="40.71" width="29.811" height="29.811" rx="6.6099" ry="6.6099" stroke-width=".2"/>
   <rect id="rect1640" x="69.84" y="40.71" width="29.811" height="29.811" rx="6.6099" ry="6.6099" stroke-width=".3"/>
   <rect id="rect1642" x="69.84" y="40.71" width="29.811" height="29.811" rx="6.6099" ry="6.6099" stroke-width=".4"/>
   <rect id="rect1644" x="69.84" y="40.71" width="29.811" height="29.811" rx="6.6099" ry="6.6099" stroke-width=".5"/>
   <rect id="rect1646" x="69.84" y="40.71" width="29.811" height="29.811" rx="6.6099" ry="6.6099" stroke-width=".6"/>
   <rect id="rect1648" x="69.84" y="40.71" width="29.811" height="29.811" rx="6.6099" ry="6.6099" stroke-width=".7"/>
   <rect id="rect1650" x="69.84" y="40.71" width="29.811" height="29.811" rx="6.6099" ry="6.6099" stroke-width=".8"/>
   <rect id="rect1652" x="69.84" y="40.71" width="29.811" height="29.811" rx="6.6099" ry="6.6099"/>
   <rect id="rect1654" x="69.84" y="40.71" width="29.811" height="29.811" rx="6.6099" ry="6.6099" stroke-width="1.2"/>
   <rect id="rect1656" x="69.84" y="40.71" width="29.811" height="29.811" rx="6.6099" ry="6.6099" stroke-width="1.4"/>
   <rect id="rect1658" x="69.84" y="40.71" width="29.811" height="29.811" rx="6.6099" ry="6.6099" stroke-width="1.6"/>
   <rect id="rect1660" x="69.84" y="40.71" width="29.811" height="29.811" rx="6.6099" ry="6.6099" stroke-width="1.8"/>
   <rect id="rect1662" x="69.84" y="40.71" width="29.811" height="29.811" rx="6.6099" ry="6.6099" stroke-width="2"/>
   <rect id="rect1664" x="69.84" y="40.71" width="29.811" height="29.811" rx="6.6099" ry="6.6099" stroke-width="2.2"/>
   <rect id="rect1666" x="69.84" y="40.71" width="29.811" height="29.811" rx="6.6099" ry="6.6099" stroke-width="2.6"/>
   <rect id="rect1668" x="69.84" y="40.71" width="29.811" height="29.811" rx="6.6099" ry="6.6099" stroke-width="3"/>
   <rect id="rect1670" x="69.84" y="40.71" width="29.811" height="29.811" rx="6.6099" ry="6.6099" stroke-width="3.4"/>
   <rect id="rect1672" x="69.84" y="40.71" width="29.811" height="29.811" rx="6.6099" ry="6.6099" stroke-width="3.8"/>
   <rect id="rect1674" x="69.84" y="40.71" width="29.811" height="29.811" rx="6.6099" ry="6.6099" stroke-width="4.2"/>
   <rect id="rect1676" x="69.84" y="40.71" width="29.811" height="29.811" rx="6.6099" ry="6.6099" stroke-width="4.6"/>
   <rect id="rect1678" x="69.84" y="40.71" width="29.811" height="29.811" rx="6.6099" ry="6.6099" stroke-width="5"/>
  </g>
  <rect id="rect849" x="2.3506" y="2.4746" width="29.087" height="29.087" rx="6.4495" ry="6.4495" fill="url(#radialGradient1506)" stroke-linecap="round" stroke-linejoin="round" stroke-width="2.688"/>
  <rect id="rect2886" x="4.3037" y="4.4277" width="25.181" height="25.181" rx="5.0418" ry="5.0418" fill="url(#linearGradient2894)" opacity=".95" stroke-linecap="round" stroke-linejoin="round" stroke-width="2.688"/>
  <g id="text866" transform="scale(.84187 1.1878)" fill="#644ae2" stroke-width=".05893" aria-label="RU">
   <path id="path873" d="m15.26 13.972q0.69634 0 0.99559-0.25897 0.30501-0.25897 0.30501-0.85172 0-0.587-0.30501-0.84021-0.29925-0.25321-0.99559-0.25321h-0.93229v2.2041zm-0.93229 1.5308v3.2515h-2.2156v-8.592h3.3839q1.6977 0 2.4861 0.56973 0.79417 0.56973 0.79417 1.8013 0 0.85172-0.41435 1.3984-0.4086 0.54671-1.2373 0.80568 0.45464 0.10359 0.81144 0.4719 0.36256 0.36256 0.73087 1.1049l1.2028 2.4401h-2.3595l-1.0474-2.1351q-0.31652-0.64455-0.64455-0.8805-0.32227-0.23595-0.86323-0.23595z"/>
   <path id="path875" d="m21.188 10.162h2.2156v5.1506q0 1.0647 0.34529 1.525 0.35105 0.45464 1.1395 0.45464 0.79417 0 1.1395-0.45464 0.35105-0.46039 0.35105-1.525v-5.1506h2.2156v5.1506q0 1.8243-0.91503 2.7163-0.91503 0.89201-2.7911 0.89201-1.8703 0-2.7854-0.89201t-0.91503-2.7163z"/>
  </g>
 </g>
</svg>
