<?xml version="1.0" encoding="UTF-8"?>
<svg id="svg1443" width="128" height="128" version="1.1" viewBox="0 0 33.867 33.867" xmlns="http://www.w3.org/2000/svg" xmlns:cc="http://creativecommons.org/ns#" xmlns:dc="http://purl.org/dc/elements/1.1/" xmlns:rdf="http://www.w3.org/1999/02/22-rdf-syntax-ns#" xmlns:xlink="http://www.w3.org/1999/xlink">
 <defs id="defs1437">
  <linearGradient id="linearGradient1632" x1="132.21" x2="132.21" y1="42.152" y2="70.68" gradientTransform="matrix(.97573 0 0 .97573 -111.77 -37.183)" gradientUnits="userSpaceOnUse">
   <stop id="stop1626" stop-color="#6cd5ff" offset="0"/>
   <stop id="stop1628" stop-color="#0444f1" offset="1"/>
  </linearGradient>
  <linearGradient id="linearGradient886" x1="8.2261" x2="8.2261" y1="10.131" y2="41.151" gradientTransform="translate(.46105 -.37616)" gradientUnits="userSpaceOnUse">
   <stop id="stop880" stop-color="#fff" offset="0"/>
   <stop id="stop882" stop-color="#216cf5" offset="1"/>
  </linearGradient>
 </defs>
 <metadata id="metadata1440">
  <rdf:RDF>
   <cc:Work rdf:about="">
    <dc:format>image/svg+xml</dc:format>
    <dc:type rdf:resource="http://purl.org/dc/dcmitype/StillImage"/>
    <dc:title/>
   </cc:Work>
  </rdf:RDF>
 </metadata>
 <g id="layer1">
  <g id="g1702" transform="matrix(.97573 0 0 .97573 -65.737 -37.183)" fill="none" opacity=".295" stroke="#000" stroke-linecap="round" stroke-linejoin="round" stroke-opacity=".02">
   <rect id="rect1634" x="69.84" y="40.71" width="29.811" height="29.811" rx="6.6099" ry="6.6099" stroke-width=".1"/>
   <rect id="rect1638" x="69.84" y="40.71" width="29.811" height="29.811" rx="6.6099" ry="6.6099" stroke-width=".2"/>
   <rect id="rect1640" x="69.84" y="40.71" width="29.811" height="29.811" rx="6.6099" ry="6.6099" stroke-width=".3"/>
   <rect id="rect1642" x="69.84" y="40.71" width="29.811" height="29.811" rx="6.6099" ry="6.6099" stroke-width=".4"/>
   <rect id="rect1644" x="69.84" y="40.71" width="29.811" height="29.811" rx="6.6099" ry="6.6099" stroke-width=".5"/>
   <rect id="rect1646" x="69.84" y="40.71" width="29.811" height="29.811" rx="6.6099" ry="6.6099" stroke-width=".6"/>
   <rect id="rect1648" x="69.84" y="40.71" width="29.811" height="29.811" rx="6.6099" ry="6.6099" stroke-width=".7"/>
   <rect id="rect1650" x="69.84" y="40.71" width="29.811" height="29.811" rx="6.6099" ry="6.6099" stroke-width=".8"/>
   <rect id="rect1652" x="69.84" y="40.71" width="29.811" height="29.811" rx="6.6099" ry="6.6099"/>
   <rect id="rect1654" x="69.84" y="40.71" width="29.811" height="29.811" rx="6.6099" ry="6.6099" stroke-width="1.2"/>
   <rect id="rect1656" x="69.84" y="40.71" width="29.811" height="29.811" rx="6.6099" ry="6.6099" stroke-width="1.4"/>
   <rect id="rect1658" x="69.84" y="40.71" width="29.811" height="29.811" rx="6.6099" ry="6.6099" stroke-width="1.6"/>
   <rect id="rect1660" x="69.84" y="40.71" width="29.811" height="29.811" rx="6.6099" ry="6.6099" stroke-width="1.8"/>
   <rect id="rect1662" x="69.84" y="40.71" width="29.811" height="29.811" rx="6.6099" ry="6.6099" stroke-width="2"/>
   <rect id="rect1664" x="69.84" y="40.71" width="29.811" height="29.811" rx="6.6099" ry="6.6099" stroke-width="2.2"/>
   <rect id="rect1666" x="69.84" y="40.71" width="29.811" height="29.811" rx="6.6099" ry="6.6099" stroke-width="2.6"/>
   <rect id="rect1668" x="69.84" y="40.71" width="29.811" height="29.811" rx="6.6099" ry="6.6099" stroke-width="3"/>
   <rect id="rect1670" x="69.84" y="40.71" width="29.811" height="29.811" rx="6.6099" ry="6.6099" stroke-width="3.4"/>
   <rect id="rect1672" x="69.84" y="40.71" width="29.811" height="29.811" rx="6.6099" ry="6.6099" stroke-width="3.8"/>
   <rect id="rect1674" x="69.84" y="40.71" width="29.811" height="29.811" rx="6.6099" ry="6.6099" stroke-width="4.2"/>
   <rect id="rect1676" x="69.84" y="40.71" width="29.811" height="29.811" rx="6.6099" ry="6.6099" stroke-width="4.6"/>
   <rect id="rect1678" x="69.84" y="40.71" width="29.811" height="29.811" rx="6.6099" ry="6.6099" stroke-width="5"/>
  </g>
  <rect id="rect849" x="2.4074" y="2.5392" width="29.087" height="29.087" rx="6.4495" ry="6.4495" fill="url(#linearGradient1632)" stroke-linecap="round" stroke-linejoin="round" stroke-width="2.6877"/>
  <path id="path888" d="m16.629 28.073c-0.9183-1.702-0.95436-2.6466-0.15242-3.993l0.45509-0.76406-0.98919-0.80276c-1.5199-1.2335-2.0245-1.5545-2.0245-2.7103 0-0.95048 0.53358-2.1728 0.94848-2.1728 0.0995 0 0.18089-0.10811 0.18089-0.24026 0-0.13214-0.48704-0.32781-1.0823-0.4348-1.3634-0.24506-2.1028-0.78556-2.1147-1.5459-8e-3 -0.50728 0.73812-1.0978 2.199-1.7407 1.1258-0.49542 1.5365-0.78353 1.354-0.94999-0.14403-0.13141-0.53718-0.16626-0.87364-0.07742-0.35208 0.09296-0.61175 0.0479-0.61175-0.1061 0-0.14718-0.40234-0.27164-0.8941-0.27654-1.6636-0.01651-1.9523-0.04779-2.1602-0.2332-0.11412-0.10176-0.45668-0.21328-0.76125-0.24785-0.30457-0.03455-0.67922-0.24385-0.83257-0.46507-0.24626-0.35527-0.1725-0.42472 0.63178-0.59485 1.2286-0.25988 2.4121-1.5146 3.2725-2.6359 1.5336-1.9989 2.0046-2.1357 2.3822-0.69212 0.18404 0.70341 0.94743 1.4775 1.1683 1.1847 0.04252-0.05637-0.07833-0.51942-0.26855-1.029-0.32707-0.87617-0.32848-0.96475-0.02591-1.6309 0.38465-0.84692 1.228-0.95041 1.6938-0.20784 0.39789 0.63429 0.39643 1.3619-0.0041 2.0003-0.48333 0.77049-0.04681 1.2603 0.58822 0.66007 0.26413-0.24968 0.48024-0.57334 0.48024-0.71925 0-0.14591 0.17134-0.51249 0.38078-0.81462 0.45742-0.65991 0.77111-0.48198 2.0662 1.172 1.0008 1.2782 2.0089 2.4344 3.272 2.6927 0.82519 0.16871 0.88969 0.23041 0.63103 0.60358-0.15847 0.22861-0.52972 0.44344-0.82503 0.47742-0.2953 0.03396-0.68533 0.15568-0.86674 0.27046-0.1814 0.11478-0.5362 0.13397-0.78844 0.04263-0.25224-0.09134-0.51486-0.03478-0.58359 0.12565-0.0761 0.17763-0.40428 0.22363-0.83926 0.11762-0.44315-0.108-0.76291-0.06059-0.84239 0.12494-0.07692 0.17953-0.37691 0.23171-0.75069 0.13056-0.35739-0.09672-0.67406-0.0483-0.74346 0.11371-0.07268 0.16969 0.42532 0.51369 1.249 0.86278 1.648 0.69845 2.2169 1.1837 2.2169 1.8909 0 0.73865-0.67165 1.2921-1.8352 1.5123-0.54352 0.10283-0.98821 0.24677-0.98821 0.31982 0 0.07306 0.25411 0.55036 0.56469 1.0607 0.61502 1.0105 0.67938 1.4474 0.34659 2.3525-0.2528 0.6875-0.61437 0.62123-1.9941 1.766l-1.0007 0.83026 0.38804 0.64547c0.21342 0.35501 0.43516 0.95898 0.49275 1.3422 0.05758 0.38318 0.13806 0.85218 0.17882 1.0422 0.10012 0.46692-1.2007 2.5096-1.5862 2.4908-0.16913-0.0083-0.48516-0.34431-0.70231-0.74677zm1.9948-1.9327c0-0.60606-0.70673-2.1935-0.97655-2.1935-0.08407 0-0.15282 1.0429-0.15282 2.3176v2.3176l0.56469-0.92785c0.31058-0.51031 0.56469-1.1916 0.56469-1.514zm-1.3308 0.30237c-0.0074-0.84997-0.07978-1.7898-0.16115-2.0885-0.13524-0.49655-0.18288-0.46163-0.55557 0.40733-0.43399 1.0118-0.40885 1.8106 0.09216 2.9278 0.41597 0.92761 0.63936 0.48171 0.62456-1.2467zm-0.175-5.9613c0-2.5651-0.0027-2.5798-0.46677-2.5798-0.82759 0-1.9748 0.82456-2.0931 1.5044-0.1916 1.1013 0.10548 1.2446 1.3005 2.2218 0.64086 0.52406 1.1864 0.95472 1.2123 0.95703 0.02588 0.0023 0.04708-0.68462 0.04708-2.1035zm1.8072 1.1311c1.2465-0.95299 1.3927-0.68314 1.3927-1.4537 0-1.067-0.33193-1.6706-1.0845-1.9722-1.5319-0.61376-1.5507-0.58759-1.5507 2.159 0 1.3442 0.07208 1.9719 0.16019 1.9719 0.0881 0 0.57516-0.31726 1.0823-0.70502zm-1.8778-5.6457c-0.0647-0.46673-0.11764-1.4443-0.11764-2.1724s-0.0837-1.3238-0.18602-1.3238c-0.10232 0-0.16583 0.26357-0.14118 0.58571 0.04021 0.52528-0.14939 0.65889-1.8375 1.2948-2.5239 0.95085-2.5239 1.3616 0 1.9606 2.5896 0.61462 2.4189 0.64042 2.2823-0.34491zm3.6315 0.21442c0.66444-0.17393 1.2415-0.46153 1.2824-0.6391 0.07338-0.31867-1.7066-1.2048-3.1963-1.5912-0.73701-0.19115-0.91718-0.5658-0.40774-0.84783 0.24004-0.13288 0.24921-0.20978 0.04705-0.39465-0.4769-0.43612-0.53342-0.2294-0.53342 1.9511v2.1891l0.79998-0.1756c0.43999-0.09658 1.3436-0.31792 2.008-0.49186z" fill="#0002c9" fill-opacity=".16223" stroke-width=".59028"/>
  <path id="path8" d="m16.171 28.142c-0.9183-1.702-0.95436-2.6466-0.15242-3.993l0.45509-0.76406-0.98919-0.80276c-1.5199-1.2335-2.0245-1.5545-2.0245-2.7103 0-0.95048 0.53358-2.1728 0.94848-2.1728 0.0995 0 0.18089-0.10811 0.18089-0.24026 0-0.13214-0.48704-0.32781-1.0823-0.4348-1.3634-0.24506-2.1028-0.78556-2.1147-1.5459-8e-3 -0.50728 0.73812-1.0978 2.199-1.7407 1.1258-0.49542 1.5365-0.78353 1.354-0.94999-0.14403-0.13141-0.53718-0.16626-0.87364-0.07742-0.35208 0.09296-0.61175 0.0479-0.61175-0.1061 0-0.14718-0.40234-0.27164-0.8941-0.27654-1.6636-0.01651-1.9523-0.04779-2.1602-0.2332-0.11412-0.10176-0.45669-0.21328-0.76125-0.24785-0.30457-0.03455-0.67922-0.24385-0.83257-0.46507-0.24626-0.35527-0.1725-0.42472 0.63178-0.59485 1.2286-0.25988 2.4121-1.5146 3.2725-2.6359 1.5336-1.9989 2.0046-2.1357 2.3822-0.69212 0.18404 0.70341 0.94743 1.4775 1.1683 1.1847 0.04252-0.05637-0.07833-0.51942-0.26855-1.029-0.32707-0.87617-0.32848-0.96475-0.02591-1.6309 0.38465-0.84692 1.228-0.95041 1.6938-0.20784 0.39789 0.63429 0.39643 1.3619-0.0041 2.0003-0.48333 0.77049-0.04681 1.2603 0.58822 0.66007 0.26413-0.24968 0.48024-0.57334 0.48024-0.71925 0-0.14591 0.17134-0.51249 0.38078-0.81462 0.45742-0.65991 0.77111-0.48198 2.0662 1.172 1.0008 1.2782 2.0089 2.4344 3.272 2.6927 0.82519 0.16871 0.88969 0.23041 0.63103 0.60358-0.15847 0.22861-0.52972 0.44344-0.82503 0.47742-0.2953 0.03396-0.68533 0.15568-0.86674 0.27046-0.1814 0.11478-0.5362 0.13397-0.78844 0.04263-0.25224-0.09134-0.51486-0.03478-0.58359 0.12565-0.0761 0.17763-0.40428 0.22363-0.83926 0.11762-0.44315-0.108-0.76291-0.06059-0.84239 0.12494-0.07692 0.17953-0.37691 0.23171-0.75069 0.13056-0.35739-0.09672-0.67406-0.0483-0.74346 0.11371-0.07268 0.16969 0.42532 0.51369 1.249 0.86278 1.648 0.69845 2.2169 1.1837 2.2169 1.8909 0 0.73865-0.67165 1.2921-1.8352 1.5123-0.54352 0.10283-0.98821 0.24677-0.98821 0.31982 0 0.07306 0.25411 0.55036 0.56469 1.0607 0.61502 1.0105 0.67938 1.4474 0.34659 2.3525-0.2528 0.6875-0.61437 0.62123-1.9941 1.766l-1.0007 0.83026 0.38804 0.64547c0.21342 0.35501 0.43516 0.95898 0.49275 1.3422 0.05758 0.38318 0.13806 0.85218 0.17882 1.0422 0.10012 0.46692-1.2007 2.5096-1.5862 2.4908-0.16913-0.0083-0.48516-0.34431-0.70231-0.74677zm1.9948-1.9327c0-0.60606-0.70673-2.1935-0.97655-2.1935-0.08407 0-0.15282 1.0429-0.15282 2.3176v2.3176l0.56469-0.92785c0.31058-0.51031 0.56469-1.1916 0.56469-1.514zm-1.3308 0.30237c-0.0074-0.84997-0.07978-1.7898-0.16115-2.0885-0.13524-0.49655-0.18288-0.46163-0.55557 0.40733-0.43399 1.0118-0.40885 1.8106 0.09216 2.9278 0.41597 0.92761 0.63936 0.48171 0.62456-1.2467zm-0.175-5.9613c0-2.5651-0.0027-2.5798-0.46677-2.5798-0.82759 0-1.9748 0.82456-2.0931 1.5044-0.1916 1.1013 0.10548 1.2446 1.3005 2.2218 0.64086 0.52406 1.1864 0.95472 1.2123 0.95703 0.02588 0.0023 0.04708-0.68462 0.04708-2.1035zm1.8072 1.1311c1.2465-0.95299 1.3927-0.68314 1.3927-1.4537 0-1.067-0.33193-1.6706-1.0845-1.9722-1.5319-0.61376-1.5507-0.58759-1.5507 2.159 0 1.3442 0.07208 1.9719 0.16019 1.9719 0.0881 0 0.57516-0.31726 1.0823-0.70502zm-1.8778-5.6457c-0.0647-0.46673-0.11764-1.4443-0.11764-2.1724s-0.0837-1.3238-0.18602-1.3238c-0.10232 0-0.16583 0.26357-0.14118 0.58571 0.04021 0.52528-0.14939 0.65889-1.8375 1.2948-2.5239 0.95085-2.5239 1.3616 0 1.9606 2.5896 0.61462 2.4189 0.64042 2.2823-0.34491zm3.6315 0.21442c0.66444-0.17393 1.2415-0.46153 1.2824-0.6391 0.07338-0.31867-1.7066-1.2048-3.1963-1.5912-0.73701-0.19115-0.91718-0.5658-0.40774-0.84783 0.24004-0.13288 0.24921-0.20978 0.04705-0.39465-0.4769-0.43612-0.53342-0.2294-0.53342 1.9511v2.1891l0.79998-0.1756c0.43999-0.09658 1.3436-0.31792 2.008-0.49186z" fill="url(#linearGradient886)" stroke-width=".59028"/>
 </g>
</svg>
