<?xml version="1.0" encoding="UTF-8"?>
<svg id="svg1443" width="128" height="128" version="1.1" viewBox="0 0 33.867 33.867" xmlns="http://www.w3.org/2000/svg" xmlns:cc="http://creativecommons.org/ns#" xmlns:dc="http://purl.org/dc/elements/1.1/" xmlns:rdf="http://www.w3.org/1999/02/22-rdf-syntax-ns#" xmlns:xlink="http://www.w3.org/1999/xlink">
 <defs id="defs1437">
  <linearGradient id="linearGradient1408">
   <stop id="stop1404" stop-color="#fff" offset="0"/>
   <stop id="stop5390" stop-color="#fff" offset=".3846"/>
   <stop id="stop5388" stop-color="#fff" stop-opacity=".96471" offset=".45261"/>
   <stop id="stop5130" stop-color="#fff" stop-opacity=".90588" offset=".52286"/>
   <stop id="stop4804" stop-color="#fff" stop-opacity=".8549" offset=".55173"/>
   <stop id="stop4410" stop-color="#fff" stop-opacity=".76078" offset=".58356"/>
   <stop id="stop3039" stop-color="#fff" stop-opacity=".66275" offset=".6066"/>
   <stop id="stop3107" stop-color="#fff" stop-opacity=".50588" offset=".64555"/>
   <stop id="stop3367" stop-color="#fff" stop-opacity=".36863" offset=".69"/>
   <stop id="stop3889" stop-color="#fff" stop-opacity=".3098" offset=".71667"/>
   <stop id="stop3823" stop-color="#fff" stop-opacity=".21961" offset=".7666"/>
   <stop id="stop3629" stop-color="#fff" stop-opacity=".17255" offset=".79698"/>
   <stop id="stop2513" stop-color="#fff" stop-opacity=".13333" offset=".82415"/>
   <stop id="stop2383" stop-color="#fff" stop-opacity=".10196" offset=".85252"/>
   <stop id="stop2253" stop-color="#fff" stop-opacity=".078431" offset=".87625"/>
   <stop id="stop2187" stop-color="#fff" stop-opacity=".058824" offset=".9087"/>
   <stop id="stop2057" stop-color="#fff" stop-opacity=".035294" offset=".93649"/>
   <stop id="stop1926" stop-color="#fff" stop-opacity=".015686" offset=".96965"/>
   <stop id="stop1406" stop-color="#fff" stop-opacity="0" offset="1"/>
  </linearGradient>
  <radialGradient id="radialGradient1402" cx="17.832" cy="22.47" r="14.544" gradientTransform="matrix(3.7859 0 0 2.0691 -49.678 -24.022)" gradientUnits="userSpaceOnUse">
   <stop id="stop1626" stop-color="#181741" stop-opacity=".94118" offset="0"/>
   <stop id="stop1628" stop-color="#090f4b" offset="1"/>
  </radialGradient>
  <radialGradient id="radialGradient1410" cx="14.066" cy="15.736" r="6.9263" gradientTransform="matrix(1 0 0 .59661 7.3659 5.9573)" gradientUnits="userSpaceOnUse" xlink:href="#linearGradient1408"/>
  <radialGradient id="radialGradient5652" cx="14.066" cy="15.736" r="6.9263" gradientTransform="matrix(.35241 0 0 .34591 7.6137 11.938)" gradientUnits="userSpaceOnUse" xlink:href="#linearGradient1408"/>
  <radialGradient id="radialGradient5710" cx="14.066" cy="15.736" r="6.9263" gradientTransform="matrix(1.0886 0 0 .38744 -1.2942 14.089)" gradientUnits="userSpaceOnUse" xlink:href="#linearGradient1408"/>
  <linearGradient id="linearGradient7764" x1="16.131" x2="15.525" y1="22.376" y2="33.788" gradientTransform="scale(3.7795)" gradientUnits="userSpaceOnUse">
   <stop id="stop7758" stop-color="#a6b9c4" offset="0"/>
   <stop id="stop7760" stop-color="#a6b9c4" stop-opacity="0" offset="1"/>
  </linearGradient>
  <radialGradient id="radialGradient8037" cx="16.951" cy="17.083" r="14.544" gradientTransform="matrix(3.7795 0 0 3.7795 .84107 16.477)" gradientUnits="userSpaceOnUse">
   <stop id="stop8031" stop-color="#fff" offset="0"/>
   <stop id="stop8033" stop-color="#fff" stop-opacity="0" offset="1"/>
  </radialGradient>
  <radialGradient id="radialGradient1170" cx="14.066" cy="15.736" r="6.9263" gradientTransform="matrix(.35241 0 0 .34591 6.697 13.441)" gradientUnits="userSpaceOnUse" xlink:href="#linearGradient1408"/>
  <radialGradient id="radialGradient1174" cx="14.066" cy="15.736" r="6.9263" gradientTransform="matrix(.40827 0 0 .40074 10.756 10.505)" gradientUnits="userSpaceOnUse" xlink:href="#linearGradient1408"/>
 </defs>
 <metadata id="metadata1440">
  <rdf:RDF>
   <cc:Work rdf:about="">
    <dc:format>image/svg+xml</dc:format>
    <dc:type rdf:resource="http://purl.org/dc/dcmitype/StillImage"/>
   </cc:Work>
  </rdf:RDF>
 </metadata>
 <g id="layer1">
  <g id="g1702" transform="matrix(.97573 0 0 .97573 -65.737 -37.183)" fill="none" opacity=".295" stroke="#000" stroke-linecap="round" stroke-linejoin="round" stroke-opacity=".02">
   <rect id="rect1634" x="69.84" y="40.71" width="29.811" height="29.811" rx="6.6099" ry="6.6099" stroke-width=".1"/>
   <rect id="rect1638" x="69.84" y="40.71" width="29.811" height="29.811" rx="6.6099" ry="6.6099" stroke-width=".2"/>
   <rect id="rect1640" x="69.84" y="40.71" width="29.811" height="29.811" rx="6.6099" ry="6.6099" stroke-width=".3"/>
   <rect id="rect1642" x="69.84" y="40.71" width="29.811" height="29.811" rx="6.6099" ry="6.6099" stroke-width=".4"/>
   <rect id="rect1644" x="69.84" y="40.71" width="29.811" height="29.811" rx="6.6099" ry="6.6099" stroke-width=".5"/>
   <rect id="rect1646" x="69.84" y="40.71" width="29.811" height="29.811" rx="6.6099" ry="6.6099" stroke-width=".6"/>
   <rect id="rect1648" x="69.84" y="40.71" width="29.811" height="29.811" rx="6.6099" ry="6.6099" stroke-width=".7"/>
   <rect id="rect1650" x="69.84" y="40.71" width="29.811" height="29.811" rx="6.6099" ry="6.6099" stroke-width=".8"/>
   <rect id="rect1652" x="69.84" y="40.71" width="29.811" height="29.811" rx="6.6099" ry="6.6099"/>
   <rect id="rect1654" x="69.84" y="40.71" width="29.811" height="29.811" rx="6.6099" ry="6.6099" stroke-width="1.2"/>
   <rect id="rect1656" x="69.84" y="40.71" width="29.811" height="29.811" rx="6.6099" ry="6.6099" stroke-width="1.4"/>
   <rect id="rect1658" x="69.84" y="40.71" width="29.811" height="29.811" rx="6.6099" ry="6.6099" stroke-width="1.6"/>
   <rect id="rect1660" x="69.84" y="40.71" width="29.811" height="29.811" rx="6.6099" ry="6.6099" stroke-width="1.8"/>
   <rect id="rect1662" x="69.84" y="40.71" width="29.811" height="29.811" rx="6.6099" ry="6.6099" stroke-width="2"/>
   <rect id="rect1664" x="69.84" y="40.71" width="29.811" height="29.811" rx="6.6099" ry="6.6099" stroke-width="2.2"/>
   <rect id="rect1666" x="69.84" y="40.71" width="29.811" height="29.811" rx="6.6099" ry="6.6099" stroke-width="2.6"/>
   <rect id="rect1668" x="69.84" y="40.71" width="29.811" height="29.811" rx="6.6099" ry="6.6099" stroke-width="3"/>
   <rect id="rect1670" x="69.84" y="40.71" width="29.811" height="29.811" rx="6.6099" ry="6.6099" stroke-width="3.4"/>
   <rect id="rect1672" x="69.84" y="40.71" width="29.811" height="29.811" rx="6.6099" ry="6.6099" stroke-width="3.8"/>
   <rect id="rect1674" x="69.84" y="40.71" width="29.811" height="29.811" rx="6.6099" ry="6.6099" stroke-width="4.2"/>
   <rect id="rect1676" x="69.84" y="40.71" width="29.811" height="29.811" rx="6.6099" ry="6.6099" stroke-width="4.6"/>
   <rect id="rect1678" x="69.84" y="40.71" width="29.811" height="29.811" rx="6.6099" ry="6.6099" stroke-width="5"/>
  </g>
  <rect id="rect849" x="2.4074" y="2.5392" width="29.087" height="29.087" rx="6.4495" ry="6.4495" fill="url(#radialGradient1402)" stroke-linecap="round" stroke-linejoin="round" stroke-width="2.6877"/>
  <ellipse id="path1147" cx="21.432" cy="15.345" rx="6.9263" ry="4.1323" fill="url(#radialGradient1410)" opacity=".13255" stroke-linecap="round" stroke-linejoin="round" stroke-width="1.8521"/>
  <ellipse id="ellipse5708" cx="14.018" cy="20.186" rx="7.5398" ry="2.6835" fill="url(#radialGradient5710)" opacity=".13255" stroke-linecap="round" stroke-linejoin="round" stroke-width="1.5572"/>
  <path id="path4" d="m13.643 5.6363c-0.46613 1.536e-4 -0.86084 0.34387-0.92506 0.80555l-1.1066 7.9698 3.7641 7.125 7.8138-3.4685-1.6148-11.626c-0.064225-0.46169-0.45893-0.8054-0.92506-0.80555z" fill="#d8e0e5" stroke-width=".46709"/>
  <path id="path6" d="m11.611 14.411-1.2289 8.8465c-0.07801 0.56157 0.3581 1.0626 0.92506 1.0628h11.677c0.56696-2.03e-4 1.0031-0.50125 0.92506-1.0628l-0.72071-5.1891c-1.7451 0.2726-3.8722 0.45648-5.8095 0.17972-2.7622-0.39461-5.0811-2.9998-5.7684-3.8371z" fill="#a6b9c4" stroke-width=".46709"/>
  <path id="path8" d="m18.328 23.851c0.4998-0.22024 0.93388-0.19532 1.3827-0.01677l-0.90884-3.5436 0.10077-0.3023-0.36947-1.7298s0.14776-0.01536 0.26871-0.15115c-0.12834-0.69622-0.48703-2.368-0.48703-2.368s0.24793 0.13978 0.36947 0.10077c0.29552-0.09489 0.68495-0.25041 0.58779-0.72215-0.21468-1.0424-0.23521-1.8169-0.49106-2.0081-0.45503-0.34017-1.3395-0.64534-1.3395-0.64534s0.14151-0.53009 0.09512-0.80612c-0.06255-0.37222-0.27955-0.88467-0.65497-0.92368-0.40977-0.04256-0.92286 0.47014-0.90688 0.8397 0.02187 0.50599 0.74459 1.3939 0.74459 1.3939l-0.62215 0.15339-0.03282 0.36722-0.36947 0.15115-0.36947 2.9222-0.62858 1.8474-0.5542 0.30229-0.01677 0.97406 0.21832-0.01677 0.05039-0.26871h0.18474l0.13435-0.43665s0.25758 0.06995 0.46148-0.05529c0.08737-0.05367 0.06142-0.35268 0.06142-0.35268l0.2748-0.01183v2.4687l-0.26988 0.41985 0.13435 0.571-0.18474 0.21832-0.13048 1.3435c0.45074-0.17953 0.74338-0.17953 1.3849 0.18474l-0.12924-0.65497-0.18473-0.25191 0.23512-0.60459 0.10077-1.4275 0.58765-2.0962 0.65511 1.3573 0.52062 2.1832-0.01677 0.571 0.31909 0.571z" opacity=".1" stroke-width=".46709"/>
  <path id="path10" d="m18.328 23.384c0.4998-0.22024 0.93388-0.19532 1.3827-0.01677l-0.90884-3.5436 0.10077-0.3023-0.36947-1.7298s0.14776-0.01536 0.26871-0.15115c-0.12834-0.69622-0.48703-2.368-0.48703-2.368s0.24793 0.13978 0.36947 0.10077c0.29552-0.09489 0.68495-0.25041 0.58779-0.72215-0.21468-1.0424-0.23521-1.8169-0.49106-2.0081-0.45503-0.34017-1.3395-0.64534-1.3395-0.64534s0.14151-0.53009 0.09512-0.80612c-0.06255-0.37222-0.27955-0.88467-0.65497-0.92368-0.40977-0.04256-0.92286 0.47014-0.90688 0.8397 0.02187 0.50599 0.74459 1.3939 0.74459 1.3939l-0.62215 0.1534-0.03282 0.36722-0.36947 0.15115-0.36947 2.9222-0.62858 1.8474-0.5542 0.3023-0.01677 0.97406 0.21832-0.01677 0.05039-0.26871h0.18474l0.13435-0.43665s0.25758 0.06995 0.46148-0.05531c0.08737-0.05367 0.06142-0.35268 0.06142-0.35268l0.2748-0.01183v2.4687l-0.26988 0.41985 0.13435 0.571-0.18474 0.21832-0.13048 1.3435c0.45074-0.17953 0.74338-0.17953 1.3849 0.18474l-0.12924-0.65497-0.18473-0.25191 0.23512-0.60459 0.10077-1.4275 0.58765-2.0962 0.65511 1.3573 0.52062 2.1832-0.01677 0.571 0.31909 0.571z" fill="#173545" stroke-width=".46709"/>
  <path id="rect7867" transform="scale(.26458)" d="m34.316 26.074c-13.504 0-24.377 10.871-24.377 24.375v51.084c2.7898 10.392 12.239 18 23.535 18h61.186c13.504 0 24.375-10.871 24.375-24.375v-51.084c-2.7898-10.391-12.239-18-23.535-18h-61.184z" fill="url(#radialGradient8037)" opacity=".64959" stroke-linecap="round" stroke-linejoin="round" stroke-width="10.158"/>
  <circle id="circle12" cx="17.847" cy="14.511" r=".46709" fill="#fff" stroke-width=".46709"/>
  <path id="path14" d="m13.643 5.6363c-0.46613 1.536e-4 -0.86084 0.34387-0.92506 0.80555l-2.3355 16.815c-0.01606 0.11523-0.0056 0.22665 0.01824 0.33299l2.3172-16.681c0.06423-0.46169 0.45893-0.8054 0.92506-0.80555h7.0064c0.46613 1.519e-4 0.86084 0.34386 0.92506 0.80555l2.3172 16.681c0.02397-0.10633 0.03425-0.21775 0.01825-0.33299l-2.3355-16.815c-0.064225-0.46169-0.45893-0.8054-0.92506-0.80555z" fill="#fff" opacity=".2" stroke-width=".46709"/>
  <ellipse id="ellipse5646" cx="12.571" cy="17.381" rx="2.4409" ry="2.3959" fill="url(#radialGradient5652)" opacity=".13255" stroke-linecap="round" stroke-linejoin="round" stroke-width=".83718"/>
  <path id="rect6182" transform="scale(.26458)" d="m44.418 91.859c-3.0055 0-6.2667 2.5404-5.4258 5.4258l6.4844 22.248h40.998l5.3691-22.248c0.70517-2.9216-2.4184-5.4258-5.4238-5.4258h-42.002z" fill="url(#linearGradient7764)" opacity=".64999" stroke-linecap="round" stroke-linejoin="round" stroke-width="7"/>
  <ellipse id="ellipse1168" cx="11.654" cy="18.884" rx="2.4409" ry="2.3959" fill="url(#radialGradient1170)" opacity=".13255" stroke-linecap="round" stroke-linejoin="round" stroke-width=".83718"/>
  <ellipse id="ellipse1172" cx="16.499" cy="16.811" rx="2.8278" ry="2.7756" fill="url(#radialGradient1174)" opacity=".13255" stroke-linecap="round" stroke-linejoin="round" stroke-width=".96989"/>
 </g>
</svg>
