<?xml version="1.0" encoding="UTF-8" standalone="no"?>
<svg
   id="svg1414"
   width="512"
   height="512"
   version="1.1"
   viewBox="0 0 33.867 33.867"
   sodipodi:docname="alchemy.svg"
   inkscape:version="1.4.4 (dcaf3e7d9e, 2026-05-05)"
   xmlns:inkscape="http://www.inkscape.org/namespaces/inkscape"
   xmlns:sodipodi="http://sodipodi.sourceforge.net/DTD/sodipodi-0.dtd"
   xmlns="http://www.w3.org/2000/svg"
   xmlns:svg="http://www.w3.org/2000/svg"
   xmlns:rdf="http://www.w3.org/1999/02/22-rdf-syntax-ns#"
   xmlns:cc="http://creativecommons.org/ns#"
   xmlns:dc="http://purl.org/dc/elements/1.1/">
  <sodipodi:namedview
     id="namedview1"
     pagecolor="#ffffff"
     bordercolor="#999999"
     borderopacity="1"
     inkscape:showpageshadow="2"
     inkscape:pageopacity="0"
     inkscape:pagecheckerboard="0"
     inkscape:deskcolor="#d1d1d1"
     inkscape:zoom="2.2617188"
     inkscape:cx="256"
     inkscape:cy="256"
     inkscape:window-width="2560"
     inkscape:window-height="1371"
     inkscape:window-x="0"
     inkscape:window-y="0"
     inkscape:window-maximized="1"
     inkscape:current-layer="svg1414" />
  <defs
     id="defs1408">
    <linearGradient
       id="linearGradient1441"
       x1="16.61"
       x2="16.61"
       y1="30.626"
       y2="3.4048"
       gradientTransform="translate(-0.00829,-0.032745)"
       gradientUnits="userSpaceOnUse">
      <stop
         id="stop1435"
         stop-color="#02bb41"
         offset="0" />
      <stop
         id="stop1437"
         stop-color="#71e680"
         offset="1" />
    </linearGradient>
    <filter
       inkscape:collect="always"
       style="color-interpolation-filters:sRGB"
       id="filter1"
       x="-0.078483901"
       y="-0.071812258"
       width="1.1569678"
       height="1.1436245">
      <feGaussianBlur
         inkscape:collect="always"
         stdDeviation="0.5531082"
         id="feGaussianBlur1" />
    </filter>
  </defs>
  <metadata
     id="metadata1411">
    <rdf:RDF>
      <cc:Work
         rdf:about="">
        <dc:format>image/svg+xml</dc:format>
        <dc:type
           rdf:resource="http://purl.org/dc/dcmitype/StillImage" />
        <dc:title />
      </cc:Work>
    </rdf:RDF>
  </metadata>
  <g
     id="g1702"
     transform="matrix(0.97573,0,0,0.97573,-65.757,-37.236)"
     fill="none"
     opacity="0.29676"
     stroke="#000000"
     stroke-linecap="round"
     stroke-linejoin="round"
     stroke-opacity="0.02">
    <rect
       id="rect1634"
       x="69.839996"
       y="40.709999"
       width="29.811001"
       height="29.811001"
       rx="6.6099"
       ry="6.6099"
       stroke-width="0.1" />
    <rect
       id="rect1638"
       x="69.839996"
       y="40.709999"
       width="29.811001"
       height="29.811001"
       rx="6.6099"
       ry="6.6099"
       stroke-width="0.2" />
    <rect
       id="rect1640"
       x="69.839996"
       y="40.709999"
       width="29.811001"
       height="29.811001"
       rx="6.6099"
       ry="6.6099"
       stroke-width="0.3" />
    <rect
       id="rect1642"
       x="69.839996"
       y="40.709999"
       width="29.811001"
       height="29.811001"
       rx="6.6099"
       ry="6.6099"
       stroke-width="0.4" />
    <rect
       id="rect1644"
       x="69.839996"
       y="40.709999"
       width="29.811001"
       height="29.811001"
       rx="6.6099"
       ry="6.6099"
       stroke-width="0.5" />
    <rect
       id="rect1646"
       x="69.839996"
       y="40.709999"
       width="29.811001"
       height="29.811001"
       rx="6.6099"
       ry="6.6099"
       stroke-width="0.6" />
    <rect
       id="rect1648"
       x="69.839996"
       y="40.709999"
       width="29.811001"
       height="29.811001"
       rx="6.6099"
       ry="6.6099"
       stroke-width="0.7" />
    <rect
       id="rect1650"
       x="69.839996"
       y="40.709999"
       width="29.811001"
       height="29.811001"
       rx="6.6099"
       ry="6.6099"
       stroke-width="0.8" />
    <rect
       id="rect1652"
       x="69.839996"
       y="40.709999"
       width="29.811001"
       height="29.811001"
       rx="6.6099"
       ry="6.6099" />
    <rect
       id="rect1654"
       x="69.839996"
       y="40.709999"
       width="29.811001"
       height="29.811001"
       rx="6.6099"
       ry="6.6099"
       stroke-width="1.2" />
    <rect
       id="rect1656"
       x="69.839996"
       y="40.709999"
       width="29.811001"
       height="29.811001"
       rx="6.6099"
       ry="6.6099"
       stroke-width="1.4" />
    <rect
       id="rect1658"
       x="69.839996"
       y="40.709999"
       width="29.811001"
       height="29.811001"
       rx="6.6099"
       ry="6.6099"
       stroke-width="1.6" />
    <rect
       id="rect1660"
       x="69.839996"
       y="40.709999"
       width="29.811001"
       height="29.811001"
       rx="6.6099"
       ry="6.6099"
       stroke-width="1.8" />
    <rect
       id="rect1662"
       x="69.839996"
       y="40.709999"
       width="29.811001"
       height="29.811001"
       rx="6.6099"
       ry="6.6099"
       stroke-width="2" />
    <rect
       id="rect1664"
       x="69.839996"
       y="40.709999"
       width="29.811001"
       height="29.811001"
       rx="6.6099"
       ry="6.6099"
       stroke-width="2.2" />
    <rect
       id="rect1666"
       x="69.839996"
       y="40.709999"
       width="29.811001"
       height="29.811001"
       rx="6.6099"
       ry="6.6099"
       stroke-width="2.6" />
    <rect
       id="rect1668"
       x="69.839996"
       y="40.709999"
       width="29.811001"
       height="29.811001"
       rx="6.6099"
       ry="6.6099"
       stroke-width="3" />
    <rect
       id="rect1670"
       x="69.839996"
       y="40.709999"
       width="29.811001"
       height="29.811001"
       rx="6.6099"
       ry="6.6099"
       stroke-width="3.4" />
    <rect
       id="rect1672"
       x="69.839996"
       y="40.709999"
       width="29.811001"
       height="29.811001"
       rx="6.6099"
       ry="6.6099"
       stroke-width="3.8" />
    <rect
       id="rect1674"
       x="69.839996"
       y="40.709999"
       width="29.811001"
       height="29.811001"
       rx="6.6099"
       ry="6.6099"
       stroke-width="4.2" />
    <rect
       id="rect1676"
       x="69.839996"
       y="40.709999"
       width="29.811001"
       height="29.811001"
       rx="6.6099"
       ry="6.6099"
       stroke-width="4.6" />
    <rect
       id="rect1678"
       x="69.839996"
       y="40.709999"
       width="29.811001"
       height="29.811001"
       rx="6.6099"
       ry="6.6099"
       stroke-width="5" />
  </g>
  <rect
     id="rect849"
     x="2.388"
     y="2.4858"
     width="29.087"
     height="29.087"
     rx="6.4495001"
     ry="6.4495001"
     fill="url(#linearGradient1441)"
     stroke-linecap="round"
     stroke-linejoin="round"
     stroke-width="2.6877"
     style="fill:url(#linearGradient1441)" />
  <path
     id="path1060-3-2"
     d="m 13.195,8.448465 -0.39326,1.1798 0.39326,0.022741 v 6.8709 l -4.6364,9.2733 c -0.26146,0.52306 0.11855,1.1384 0.70332,1.1384 h 15.339 c 0.58476,-1.8e-5 0.96478,-0.61537 0.70332,-1.1384 l -4.6364,-9.2733 v -6.8709 l 0.39326,-0.022741 -0.39326,-1.1798 h -1.573 v 8.2594 c -2.9e-5,0.12212 0.02809,0.24267 0.08268,0.35192 l 4.1512,8.3008 h -12.795 l 4.1512,-8.3008 c 0.05459,-0.10924 0.08323,-0.22979 0.0832,-0.35192 v -8.2594 z m 2.9729,5.3108 a 0.93657,0.93657 0 0 0 -0.93689,0.93638 0.93657,0.93657 0 0 0 0.93689,0.93638 0.93657,0.93657 0 0 0 0.93638,-0.93638 0.93657,0.93657 0 0 0 -0.93638,-0.93638 z m 1.6511,1.0082 a 0.53679,0.53679 0 0 0 -0.53692,0.5364 0.53679,0.53679 0 0 0 0.53692,0.53692 0.53679,0.53679 0 0 0 0.53692,-0.53692 0.53679,0.53679 0 0 0 -0.53692,-0.5364 z m -0.39998,1.4252 a 0.72799,0.72799 0 0 0 -0.7276,0.7276 0.72799,0.72799 0 0 0 0.7276,0.72812 0.72799,0.72799 0 0 0 0.72812,-0.72812 0.72799,0.72799 0 0 0 -0.72812,-0.7276 z m -3.2344,2.8748 -2.9228,5.8436 h 11.339 l -2.9223,-5.8436 z"
     fill="#ffffff"
     fill-rule="evenodd"
     style="fill:#000000;fill-opacity:1;filter:url(#filter1);opacity:0.35" />
  <path
     id="path1060-3-2-7"
     d="m 13.187223,7.6729926 -0.39326,1.1798 0.39326,0.022741 v 6.8709004 l -4.6364005,9.2733 c -0.26146,0.52306 0.11855,1.1384 0.70332,1.1384 H 24.593143 c 0.58476,-1.8e-5 0.96478,-0.61537 0.70332,-1.1384 l -4.6364,-9.2733 V 8.8755336 l 0.393259,-0.022741 -0.393259,-1.1798 h -1.573 v 8.2594004 c -3e-5,0.12212 0.02809,0.24267 0.08268,0.35192 l 4.151199,8.3008 H 10.525943 l 4.1512,-8.3008 c 0.05459,-0.10924 0.08323,-0.22979 0.0832,-0.35192 V 7.6729926 Z m 2.972899,5.3108004 a 0.93657,0.93657 0 0 0 -0.936889,0.93638 0.93657,0.93657 0 0 0 0.936889,0.93638 0.93657,0.93657 0 0 0 0.93638,-0.93638 0.93657,0.93657 0 0 0 -0.93638,-0.93638 z m 1.6511,1.0082 a 0.53679,0.53679 0 0 0 -0.53692,0.5364 0.53679,0.53679 0 0 0 0.53692,0.53692 0.53679,0.53679 0 0 0 0.536921,-0.53692 0.53679,0.53679 0 0 0 -0.536921,-0.5364 z m -0.39998,1.4252 a 0.72799,0.72799 0 0 0 -0.727599,0.7276 0.72799,0.72799 0 0 0 0.727599,0.72812 0.72799,0.72799 0 0 0 0.72812,-0.72812 0.72799,0.72799 0 0 0 -0.72812,-0.7276 z m -3.2344,2.8748 -2.9228,5.8436 h 11.339 l -2.9223,-5.8436 z"
     fill="#ffffff"
     fill-rule="evenodd" />
</svg>
