<?xml version="1.0" encoding="UTF-8"?>
<svg id="svg1443" width="128" height="128" version="1.1" viewBox="0 0 33.867 33.867" xmlns="http://www.w3.org/2000/svg" xmlns:cc="http://creativecommons.org/ns#" xmlns:dc="http://purl.org/dc/elements/1.1/" xmlns:rdf="http://www.w3.org/1999/02/22-rdf-syntax-ns#" xmlns:xlink="http://www.w3.org/1999/xlink">
 <defs id="defs1437">
  <radialGradient id="radialGradient963" cx="16.951" cy="2.5104" r="14.544" gradientTransform="matrix(7.1386 0 0 2.2345 -104.06 -3.0991)" gradientUnits="userSpaceOnUse">
   <stop id="stop957" stop-color="#ff9c38" offset="0"/>
   <stop id="stop959" stop-color="#ea3d1c" stop-opacity=".96863" offset="1"/>
  </radialGradient>
  <linearGradient id="linearGradient2548" x1="9.5046" x2="9.5046" y1="7.9633" y2="70.505" gradientUnits="userSpaceOnUse">
   <stop id="stop2542" stop-color="#fff" offset="0"/>
   <stop id="stop2544" stop-color="#ee4f22" stop-opacity=".97647" offset="1"/>
  </linearGradient>
 </defs>
 <metadata id="metadata1440">
  <rdf:RDF>
   <cc:Work rdf:about="">
    <dc:format>image/svg+xml</dc:format>
    <dc:type rdf:resource="http://purl.org/dc/dcmitype/StillImage"/>
   </cc:Work>
  </rdf:RDF>
 </metadata>
 <g id="layer1" stroke-linecap="round" stroke-linejoin="round">
  <g id="g1702" transform="matrix(.97573 0 0 .97573 -65.737 -37.183)" fill="none" opacity=".295" stroke="#000" stroke-opacity=".02">
   <rect id="rect1634" x="69.84" y="40.71" width="29.811" height="29.811" rx="6.6099" ry="6.6099" stroke-width=".1"/>
   <rect id="rect1638" x="69.84" y="40.71" width="29.811" height="29.811" rx="6.6099" ry="6.6099" stroke-width=".2"/>
   <rect id="rect1640" x="69.84" y="40.71" width="29.811" height="29.811" rx="6.6099" ry="6.6099" stroke-width=".3"/>
   <rect id="rect1642" x="69.84" y="40.71" width="29.811" height="29.811" rx="6.6099" ry="6.6099" stroke-width=".4"/>
   <rect id="rect1644" x="69.84" y="40.71" width="29.811" height="29.811" rx="6.6099" ry="6.6099" stroke-width=".5"/>
   <rect id="rect1646" x="69.84" y="40.71" width="29.811" height="29.811" rx="6.6099" ry="6.6099" stroke-width=".6"/>
   <rect id="rect1648" x="69.84" y="40.71" width="29.811" height="29.811" rx="6.6099" ry="6.6099" stroke-width=".7"/>
   <rect id="rect1650" x="69.84" y="40.71" width="29.811" height="29.811" rx="6.6099" ry="6.6099" stroke-width=".8"/>
   <rect id="rect1652" x="69.84" y="40.71" width="29.811" height="29.811" rx="6.6099" ry="6.6099"/>
   <rect id="rect1654" x="69.84" y="40.71" width="29.811" height="29.811" rx="6.6099" ry="6.6099" stroke-width="1.2"/>
   <rect id="rect1656" x="69.84" y="40.71" width="29.811" height="29.811" rx="6.6099" ry="6.6099" stroke-width="1.4"/>
   <rect id="rect1658" x="69.84" y="40.71" width="29.811" height="29.811" rx="6.6099" ry="6.6099" stroke-width="1.6"/>
   <rect id="rect1660" x="69.84" y="40.71" width="29.811" height="29.811" rx="6.6099" ry="6.6099" stroke-width="1.8"/>
   <rect id="rect1662" x="69.84" y="40.71" width="29.811" height="29.811" rx="6.6099" ry="6.6099" stroke-width="2"/>
   <rect id="rect1664" x="69.84" y="40.71" width="29.811" height="29.811" rx="6.6099" ry="6.6099" stroke-width="2.2"/>
   <rect id="rect1666" x="69.84" y="40.71" width="29.811" height="29.811" rx="6.6099" ry="6.6099" stroke-width="2.6"/>
   <rect id="rect1668" x="69.84" y="40.71" width="29.811" height="29.811" rx="6.6099" ry="6.6099" stroke-width="3"/>
   <rect id="rect1670" x="69.84" y="40.71" width="29.811" height="29.811" rx="6.6099" ry="6.6099" stroke-width="3.4"/>
   <rect id="rect1672" x="69.84" y="40.71" width="29.811" height="29.811" rx="6.6099" ry="6.6099" stroke-width="3.8"/>
   <rect id="rect1674" x="69.84" y="40.71" width="29.811" height="29.811" rx="6.6099" ry="6.6099" stroke-width="4.2"/>
   <rect id="rect1676" x="69.84" y="40.71" width="29.811" height="29.811" rx="6.6099" ry="6.6099" stroke-width="4.6"/>
   <rect id="rect1678" x="69.84" y="40.71" width="29.811" height="29.811" rx="6.6099" ry="6.6099" stroke-width="5"/>
  </g>
  <rect id="rect849" x="2.4074" y="2.5392" width="29.087" height="29.087" rx="6.4495" ry="6.4495" fill="url(#radialGradient963)" stroke-width="2.6877"/>
  <g id="g3904" fill="#200000" fill-opacity=".05596" stroke-width="2.2091">
   <path id="path3661" d="m12.898 8.5124c-1.3119-0.0013-2.3763 1.0612-2.3774 2.3731v14.226c-0.0014 1.3136 1.0638 2.3788 2.3774 2.3774 1.3119-9.52e-4 2.3745-1.0655 2.3731-2.3774v-11.064s-0.19264-1.1912 1.7237-1.1912c1.9164 0 1.7237 1.1912 1.7237 1.1912v11.025c-0.0013 1.3119 1.0612 2.3763 2.3731 2.3774h3.5985c1.3119-9.53e-4 2.3745-1.0655 2.3731-2.3774-9.52e-4 -1.3102-1.0629-2.3721-2.3731-2.3731h-1.2211v-11.814c-0.001084-1.3119-1.0655-2.3744-2.3774-2.3731z" color="#000000" style="-inkscape-stroke:none"/>
   <path id="path3897" d="m13.157 8.769c-1.3119-0.0013-2.3763 1.0612-2.3774 2.3731v14.226c-0.0014 1.3136 1.0638 2.3788 2.3774 2.3774 1.3119-9.52e-4 2.3745-1.0655 2.3731-2.3774v-11.064s-0.19264-1.1912 1.7237-1.1912c1.9164 0 1.7237 1.1912 1.7237 1.1912v11.025c-0.0013 1.3119 1.0612 2.3763 2.3731 2.3774h3.5985c1.3119-9.53e-4 2.3745-1.0655 2.3731-2.3774-9.52e-4 -1.3102-1.0629-2.3721-2.3731-2.3731h-1.2211v-11.814c-0.001084-1.3119-1.0655-2.3744-2.3774-2.3731z" color="#000000" style="-inkscape-stroke:none"/>
   <path id="path3899" d="m13.477 9.1949c-1.3119-0.0013-2.3763 1.0612-2.3774 2.3731v14.226c-0.0014 1.3136 1.0638 2.3788 2.3774 2.3774 1.3119-9.52e-4 2.3745-1.0655 2.3731-2.3774v-11.064s-0.19264-1.1912 1.7237-1.1912c1.9164 0 1.7237 1.1912 1.7237 1.1912v11.025c-0.0013 1.3119 1.0612 2.3763 2.3731 2.3774h3.5985c1.3119-9.53e-4 2.3745-1.0655 2.3731-2.3774-9.52e-4 -1.3102-1.0629-2.3721-2.3731-2.3731h-1.2211v-11.814c-0.0011-1.3119-1.0655-2.3744-2.3774-2.3731z" color="#000000" style="-inkscape-stroke:none"/>
  </g>
  <path id="path1074" d="m12.61 8.2859c-1.3119-0.0013-2.3763 1.0612-2.3774 2.3731v14.226c-0.0014 1.3136 1.0638 2.3788 2.3774 2.3774 1.3119-9.52e-4 2.3745-1.0655 2.3731-2.3774v-11.064s-0.19264-1.1912 1.7237-1.1912c1.9164 0 1.7237 1.1912 1.7237 1.1912v11.025c-0.0013 1.3119 1.0612 2.3763 2.3731 2.3774h3.5985c1.3119-9.53e-4 2.3745-1.0655 2.3731-2.3774-9.52e-4 -1.3102-1.0629-2.3721-2.3731-2.3731h-1.2211v-11.814c-0.001084-1.3119-1.0655-2.3744-2.3774-2.3731z" color="#000000" fill="url(#linearGradient2548)" stroke-width="2.2091" style="-inkscape-stroke:none"/>
 </g>
</svg>
