<?xml version="1.0" encoding="UTF-8"?>
<svg id="svg1538" width="128" height="128" version="1.1" viewBox="0 0 33.867 33.867" xmlns="http://www.w3.org/2000/svg" xmlns:cc="http://creativecommons.org/ns#" xmlns:dc="http://purl.org/dc/elements/1.1/" xmlns:rdf="http://www.w3.org/1999/02/22-rdf-syntax-ns#" xmlns:xlink="http://www.w3.org/1999/xlink">
 <defs id="defs1532">
  <filter id="filter2299" x="-.1109" y="-.14587" width="1.2218" height="1.2917" color-interpolation-filters="sRGB">
   <feGaussianBlur id="feGaussianBlur2301" stdDeviation="3.8421904"/>
  </filter>
  <linearGradient id="linearGradient1441" x1="16.61" x2="16.61" y1="30.626" y2="3.4048" gradientTransform="translate(-.093219 -.012739)" gradientUnits="userSpaceOnUse">
   <stop id="stop1435" stop-color="#f5f5f5" offset="0"/>
   <stop id="stop1437" stop-color="#e7e9e9" offset="1"/>
  </linearGradient>
 </defs>
 <metadata id="metadata1535">
  <rdf:RDF>
   <cc:Work rdf:about="">
    <dc:format>image/svg+xml</dc:format>
    <dc:type rdf:resource="http://purl.org/dc/dcmitype/StillImage"/>
    <dc:title/>
   </cc:Work>
  </rdf:RDF>
 </metadata>
 <g id="layer1">
  <path id="path2274" transform="matrix(.26458 0 0 .26458 -.13629 .066515)" d="m55.61 36.066a8.2257 8.2257 0 0 0-0.10156 1.2617 8.2257 8.2257 0 0 0 3.9609 7.0098l0.33789-2.2695a8.2257 8.2257 0 0 1-4.1973-6.002zm16.248 0.0332a8.2257 8.2257 0 0 1-5.7031 6.6113l-1.8594 12.502a21.789 21.789 0 0 1 0.3418 0.17578l1.5176-10.209a8.2257 8.2257 0 0 0 5.8047-7.8691 8.2257 8.2257 0 0 0-0.10156-1.2109zm-43.838 6.6602a5.0755 5.0755 0 0 0-0.1582 1.248 5.0755 5.0755 0 0 0 3.7891 4.9004l6.6758 12.518a21.789 21.789 0 0 1 0.79688-0.97656l-7.4727-14.012a5.0755 5.0755 0 0 1-3.6309-3.6777zm9.8359 0.01367a5.0755 5.0755 0 0 1-0.38281 1.0352l0.48438 0.9082a5.0755 5.0755 0 0 0 0.05664-0.7207 5.0755 5.0755 0 0 0-0.1582-1.2227zm73.072 17.143a10.238 10.238 0 0 1-10.143 9.0215 10.238 10.238 0 0 1-7.2656-3.0254l-16.707 5.918a21.789 21.789 0 0 1 0.2168 2.3926l16.49-5.8398a10.238 10.238 0 0 0 7.2656 3.0254 10.238 10.238 0 0 0 10.229-10.25 10.238 10.238 0 0 0-0.0859-1.2422zm-20.305 0.01367a10.238 10.238 0 0 0-0.03125 0.25781l0.0625-0.02148a10.238 10.238 0 0 1-0.03125-0.23633zm-57.064 16.293a21.789 21.789 0 0 0-0.06055 1.293 21.789 21.789 0 0 0 21.812 21.768 21.789 21.789 0 0 0 21.766-21.812 21.789 21.789 0 0 0-0.05469-0.91016 21.789 21.789 0 0 1-21.711 20.254 21.789 21.789 0 0 1-21.752-20.592z" fill="#003b82" filter="url(#filter2299)" style="paint-order:fill markers stroke"/>
  <g id="g1702" transform="matrix(.97573 0 0 .97573 -65.842 -37.216)" fill="none" opacity=".29676" stroke="#000" stroke-linecap="round" stroke-linejoin="round" stroke-opacity=".02">
   <rect id="rect1634" x="69.84" y="40.71" width="29.811" height="29.811" rx="6.6099" ry="6.6099" stroke-width=".1"/>
   <rect id="rect1638" x="69.84" y="40.71" width="29.811" height="29.811" rx="6.6099" ry="6.6099" stroke-width=".2"/>
   <rect id="rect1640" x="69.84" y="40.71" width="29.811" height="29.811" rx="6.6099" ry="6.6099" stroke-width=".3"/>
   <rect id="rect1642" x="69.84" y="40.71" width="29.811" height="29.811" rx="6.6099" ry="6.6099" stroke-width=".4"/>
   <rect id="rect1644" x="69.84" y="40.71" width="29.811" height="29.811" rx="6.6099" ry="6.6099" stroke-width=".5"/>
   <rect id="rect1646" x="69.84" y="40.71" width="29.811" height="29.811" rx="6.6099" ry="6.6099" stroke-width=".6"/>
   <rect id="rect1648" x="69.84" y="40.71" width="29.811" height="29.811" rx="6.6099" ry="6.6099" stroke-width=".7"/>
   <rect id="rect1650" x="69.84" y="40.71" width="29.811" height="29.811" rx="6.6099" ry="6.6099" stroke-width=".8"/>
   <rect id="rect1652" x="69.84" y="40.71" width="29.811" height="29.811" rx="6.6099" ry="6.6099"/>
   <rect id="rect1654" x="69.84" y="40.71" width="29.811" height="29.811" rx="6.6099" ry="6.6099" stroke-width="1.2"/>
   <rect id="rect1656" x="69.84" y="40.71" width="29.811" height="29.811" rx="6.6099" ry="6.6099" stroke-width="1.4"/>
   <rect id="rect1658" x="69.84" y="40.71" width="29.811" height="29.811" rx="6.6099" ry="6.6099" stroke-width="1.6"/>
   <rect id="rect1660" x="69.84" y="40.71" width="29.811" height="29.811" rx="6.6099" ry="6.6099" stroke-width="1.8"/>
   <rect id="rect1662" x="69.84" y="40.71" width="29.811" height="29.811" rx="6.6099" ry="6.6099" stroke-width="2"/>
   <rect id="rect1664" x="69.84" y="40.71" width="29.811" height="29.811" rx="6.6099" ry="6.6099" stroke-width="2.2"/>
   <rect id="rect1666" x="69.84" y="40.71" width="29.811" height="29.811" rx="6.6099" ry="6.6099" stroke-width="2.6"/>
   <rect id="rect1668" x="69.84" y="40.71" width="29.811" height="29.811" rx="6.6099" ry="6.6099" stroke-width="3"/>
   <rect id="rect1670" x="69.84" y="40.71" width="29.811" height="29.811" rx="6.6099" ry="6.6099" stroke-width="3.4"/>
   <rect id="rect1672" x="69.84" y="40.71" width="29.811" height="29.811" rx="6.6099" ry="6.6099" stroke-width="3.8"/>
   <rect id="rect1674" x="69.84" y="40.71" width="29.811" height="29.811" rx="6.6099" ry="6.6099" stroke-width="4.2"/>
   <rect id="rect1676" x="69.84" y="40.71" width="29.811" height="29.811" rx="6.6099" ry="6.6099" stroke-width="4.6"/>
   <rect id="rect1678" x="69.84" y="40.71" width="29.811" height="29.811" rx="6.6099" ry="6.6099" stroke-width="5"/>
  </g>
  <rect id="rect849" x="2.303" y="2.5058" width="29.087" height="29.087" rx="6.4495" ry="6.4495" fill="url(#linearGradient1441)" stroke-linecap="round" stroke-linejoin="round" stroke-width="2.6877"/>
  <path id="path862-9" d="m11.484 9.2267a1.5877 1.5877 0 0 0-1.6247 1.587v12.472a1.5877 1.5877 0 0 0 2.3812 1.3746l5.4007-3.1182 5.4002-3.1176a1.5877 1.5877 0 0 0 0-2.7497l-5.4002-3.1182-5.4007-3.1182a1.5877 1.5877 0 0 0-0.75654-0.21187zm1.5503 4.3362 3.0195 1.7436 3.0189 1.7436-3.0189 1.743-3.0195 1.743v-3.4866z" color="#000000" color-rendering="auto" dominant-baseline="auto" fill="#1a1a1a" image-rendering="auto" shape-rendering="auto" solid-color="#000000" style="font-feature-settings:normal;font-variant-alternates:normal;font-variant-caps:normal;font-variant-ligatures:normal;font-variant-numeric:normal;font-variant-position:normal;isolation:auto;mix-blend-mode:normal;paint-order:stroke markers fill;shape-padding:0;text-decoration-color:#000000;text-decoration-line:none;text-decoration-style:solid;text-indent:0;text-orientation:mixed;text-transform:none;white-space:normal"/>
 </g>
</svg>
