<?xml version="1.0" encoding="UTF-8" standalone="no"?>
<svg
   width="512"
   height="512"
   version="1.1"
   id="svg8"
   sodipodi:docname="org.fedoraproject.AnacondaInstaller.svg"
   inkscape:version="1.4.4 (dcaf3e7d9e, 2026-05-05)"
   viewBox="0 0 64 64"
   xml:space="preserve"
   xmlns:inkscape="http://www.inkscape.org/namespaces/inkscape"
   xmlns:sodipodi="http://sodipodi.sourceforge.net/DTD/sodipodi-0.dtd"
   xmlns:xlink="http://www.w3.org/1999/xlink"
   xmlns="http://www.w3.org/2000/svg"
   xmlns:svg="http://www.w3.org/2000/svg"><sodipodi:namedview
     id="namedview8"
     pagecolor="#ffffff"
     bordercolor="#111111"
     borderopacity="1"
     inkscape:showpageshadow="0"
     inkscape:pageopacity="0"
     inkscape:pagecheckerboard="1"
     inkscape:deskcolor="#d1d1d1"
     inkscape:zoom="1.1089976"
     inkscape:cx="181.69562"
     inkscape:cy="198.37735"
     inkscape:window-width="2560"
     inkscape:window-height="1371"
     inkscape:window-x="0"
     inkscape:window-y="0"
     inkscape:window-maximized="1"
     inkscape:current-layer="svg8" /><defs
     id="defs6"><linearGradient
       id="linearGradient1"
       inkscape:collect="always"><stop
         style="stop-color:#757576;stop-opacity:1;"
         offset="0"
         id="stop22" /><stop
         style="stop-color:#929496;stop-opacity:1;"
         offset="1"
         id="stop29" /></linearGradient><linearGradient
       id="linearGradient31"
       x1="21"
       x2="45"
       y1="6"
       y2="6"
       gradientTransform="matrix(0.27558,0,0,0.68889966,23.527072,11.640831)"
       gradientUnits="userSpaceOnUse"><stop
         stop-color="#d0d0d0"
         offset="0"
         id="stop30"
         style="stop-color:#cbd0d5;stop-opacity:1;" /><stop
         stop-color="#6d6d6d"
         offset="1"
         id="stop31" /></linearGradient><linearGradient
       id="linearGradient28"
       x1="21"
       x2="45"
       y1="6"
       y2="6"
       gradientTransform="matrix(0.27558,0,0,0.68889966,23.527072,11.640831)"
       gradientUnits="userSpaceOnUse"><stop
         stop-color="#d0d0d0"
         offset="0"
         id="stop28" /><stop
         stop-color="#6d6d6d"
         offset="1"
         id="stop23" /></linearGradient><linearGradient
       id="linearGradient21"><stop
         stop-color="#6f6f6f"
         offset="0"
         id="stop13"
         style="stop-color:#2c2c2c;stop-opacity:1;" /><stop
         stop-color="#cecfce"
         offset="0.1185151"
         id="stop14" /><stop
         stop-color="#848484"
         offset="0.16901018"
         id="stop15" /><stop
         stop-color="#2d2d2d"
         offset="0.22695906"
         id="stop16" /><stop
         stop-color="#565656"
         offset="0.39787403"
         id="stop17" /><stop
         stop-color="silver"
         offset="0.8130579"
         id="stop18" /><stop
         stop-color="#3e3e3e"
         offset="0.90254509"
         id="stop19" /><stop
         stop-color="#848585"
         offset="0.96660447"
         id="stop20" /><stop
         stop-color="#969596"
         offset="1"
         id="stop21" /></linearGradient><linearGradient
       id="linearGradient862-3"
       x1="7.9373"
       x2="7.9373"
       y1="15.081"
       y2="1.852"
       gradientTransform="scale(3.7796)"
       gradientUnits="userSpaceOnUse"><stop
         stop-color="#f1efeb"
         offset="0"
         id="stop1"
         style="stop-color:#8c6060;stop-opacity:1;" /><stop
         stop-color="#fdfcfc"
         offset="1"
         id="stop2" /></linearGradient><radialGradient
       id="radialGradient1042"
       cx="12.171"
       cy="12.171"
       r="4.7624"
       gradientTransform="matrix(3.7796,0,0,3.7796,0,2e-6)"
       gradientUnits="userSpaceOnUse"><stop
         offset="0"
         id="stop3" /><stop
         stop-opacity="0"
         offset="1"
         id="stop4" /></radialGradient><linearGradient
       id="linearGradient1033"
       x1="11.993"
       x2="11.993"
       y1="15.289"
       y2="8.3841"
       gradientTransform="matrix(3.7796 0 0 3.7796 0 .99986)"
       gradientUnits="userSpaceOnUse"><stop
         stop-color="#2e2e2e"
         offset="0"
         id="stop5" /><stop
         stop-color="#5c5c5c"
         offset="1"
         id="stop6" /></linearGradient><linearGradient
       id="linearGradient862-3-5"
       x1="1.058313"
       x2="15.875225"
       y1="8.4584608"
       y2="8.4584608"
       gradientTransform="matrix(-3.7796,0,0,-3.7796,-7.7211878,62.939957)"
       gradientUnits="userSpaceOnUse"><stop
         stop-color="#f1efeb"
         offset="0"
         id="stop1-3"
         style="stop-color:#666666;stop-opacity:1;" /><stop
         stop-color="#f1efeb"
         offset="0.06293157"
         id="stop9"
         style="stop-color:#a5a7a8;stop-opacity:1;" /><stop
         stop-color="#f1efeb"
         offset="0.22869453"
         id="stop6-5"
         style="stop-color:#c7ccd1;stop-opacity:1;" /><stop
         stop-color="#f1efeb"
         offset="0.76031214"
         id="stop3-6"
         style="stop-color:#c7ccd1;stop-opacity:1;" /><stop
         stop-color="#f1efeb"
         offset="0.93540853"
         id="stop10"
         style="stop-color:#a1a2a2;stop-opacity:1;" /><stop
         stop-color="#fdfcfc"
         offset="1"
         id="stop2-2"
         style="stop-color:#666666;stop-opacity:1;" /></linearGradient><linearGradient
       id="linearGradient45"><stop
         stop-color="#6f6f6f"
         offset="0"
         id="stop24" /><stop
         stop-color="#cecfce"
         offset="0.1185151"
         id="stop25" /><stop
         stop-color="#848484"
         offset="0.16901018"
         id="stop26" /><stop
         stop-color="#2d2d2d"
         offset="0.22695906"
         id="stop27" /><stop
         stop-color="#565656"
         offset="0.39787403"
         id="stop41" /><stop
         stop-color="silver"
         offset="0.8130579"
         id="stop42" /><stop
         stop-color="#3e3e3e"
         offset="0.90254509"
         id="stop43" /><stop
         stop-color="#848585"
         offset="0.96660447"
         id="stop44" /><stop
         stop-color="#969596"
         offset="1"
         id="stop45" /></linearGradient><linearGradient
       id="linearGradient48"
       x1="21"
       x2="45"
       y1="6"
       y2="6"
       gradientTransform="matrix(0.27558,0,0,0.68889966,23.527072,11.640831)"
       gradientUnits="userSpaceOnUse"><stop
         stop-color="#6d6d6d"
         offset="0"
         id="stop48" /><stop
         stop-color="#d0d0d0"
         offset="1"
         id="stop47" /></linearGradient><linearGradient
       inkscape:collect="always"
       xlink:href="#linearGradient862-3-5"
       id="linearGradient29"
       gradientUnits="userSpaceOnUse"
       x1="4"
       y1="31.969599"
       x2="60.001999"
       y2="31.969599"
       gradientTransform="translate(-9.9945068e-4,0.03040131)" /><linearGradient
       inkscape:collect="always"
       xlink:href="#linearGradient31"
       id="linearGradient30"
       gradientUnits="userSpaceOnUse"
       x1="4"
       y1="47.10561"
       x2="60.001999"
       y2="47.10561"
       gradientTransform="translate(-9.9945068e-4,-0.00100269)" /><linearGradient
       id="c"
       x1="10.094"
       x2="122.72"
       y1="107.36"
       y2="107.36"
       gradientTransform="matrix(0.24842,0,0,0.24428,433.38,517.17)"
       gradientUnits="userSpaceOnUse"><stop
         stop-color="#1a1a1a"
         offset="0"
         id="stop1-36" /><stop
         stop-color="#2c2c2e"
         offset=".111"
         id="stop2-7" /><stop
         stop-color="#2b2b2d"
         offset=".29"
         id="stop3-5" /><stop
         stop-color="#2a2b2d"
         offset=".512"
         id="stop4-3" /><stop
         stop-color="#2b2b2d"
         offset=".752"
         id="stop5-5" /><stop
         stop-color="#323232"
         offset=".897"
         id="stop6-6" /><stop
         stop-color="#171717"
         offset="1"
         id="stop7" /></linearGradient><linearGradient
       id="d"
       x1="449.43"
       x2="449.55"
       y1="540.75"
       y2="518.41"
       gradientUnits="userSpaceOnUse"><stop
         stop-color="#ececec"
         offset="0"
         id="stop8" /><stop
         stop-color="#fff"
         offset="1"
         id="stop9-2" /></linearGradient><linearGradient
       id="e"
       x1="451.02"
       x2="451.02"
       y1="544.15"
       y2="543.09"
       gradientTransform="matrix(0.5054,0,0,1,229.15,2.167)"
       gradientUnits="userSpaceOnUse"><stop
         stop-color="#5ebdff"
         offset="0"
         id="stop10-9" /><stop
         stop-color="#1c55ee"
         offset="1"
         id="stop11" /></linearGradient><linearGradient
       id="f"
       x1="467.17"
       x2="467.17"
       y1="546.85"
       y2="544.72"
       gradientTransform="translate(0,0.106)"
       gradientUnits="userSpaceOnUse"><stop
         stop-color="#040404"
         offset="0"
         id="stop12" /><stop
         stop-color="#121212"
         stop-opacity=".908"
         offset="1"
         id="stop13-1" /></linearGradient><linearGradient
       id="a"
       x1="7.937"
       x2="7.937"
       y1="15.081"
       y2="1.852"
       gradientTransform="scale(3.7796)"
       gradientUnits="userSpaceOnUse"><stop
         stop-color="#363636"
         offset="0"
         id="stop14-2" /><stop
         stop-color="#6c6c6c"
         offset="1"
         id="stop15-7" /></linearGradient><filter
       id="b"
       x="-0.059623138"
       y="-0.060452259"
       width="1.1192463"
       height="1.1209045"
       color-interpolation-filters="sRGB"><feGaussianBlur
         stdDeviation=".795"
         id="feGaussianBlur15" /></filter><linearGradient
       inkscape:collect="always"
       xlink:href="#linearGradient1"
       id="linearGradient32"
       x1="7.3579408"
       y1="95.741096"
       x2="23.386696"
       y2="95.741096"
       gradientUnits="userSpaceOnUse"
       gradientTransform="matrix(0.4936951,0,0,0.4936951,39.744192,-0.16230518)" /></defs><rect
     x="3.9990005"
     y="3.9990005"
     width="56.001999"
     height="56.001999"
     rx="13.002"
     ry="13.002"
     fill="url(#linearGradient862-3)"
     stroke-width="3.7796"
     id="rect7-6"
     style="fill:url(#linearGradient29);fill-opacity:1" /><rect
     x="3.9990005"
     y="34.208214"
     width="56.001999"
     height="25.792784"
     rx="13.002"
     ry="12.882071"
     fill="url(#linearGradient862-3)"
     stroke-width="3.7796"
     id="rect7-7-1"
     style="fill:url(#linearGradient30);fill-opacity:1" /><rect
     x="5.4279375"
     y="35.579319"
     width="53.144127"
     height="23.050579"
     rx="12.338487"
     ry="11.51249"
     fill="url(#linearGradient862-3)"
     stroke-width="3.7796"
     id="rect7-7-1-9"
     style="fill:none;fill-opacity:1;stroke:#000000;stroke-width:0.920911;stroke-dasharray:none;stroke-opacity:1;paint-order:normal" /><circle
     style="fill:url(#linearGradient32);stroke:#000000;stroke-width:0.111205;stroke-linecap:round;stroke-opacity:1"
     id="path1"
     cx="47.333431"
     cy="47.104607"
     r="3.9010565" /><path
     d="m 47.333431,47.104604 c 0.115369,0 0.216317,-0.04326 0.302844,-0.12979 a 0.41460833,0.41460833 0 0 0 0.126185,-0.299239 v -2.148753 a 0.41100304,0.41100304 0 0 0 -0.126185,-0.302845 0.41460833,0.41460833 0 0 0 -0.605689,0 0.41460833,0.41460833 0 0 0 -0.126185,0.302845 v 2.148753 c 0,0.115369 0.04326,0.216317 0.126185,0.299239 a 0.41460833,0.41460833 0 0 0 0.302845,0.12979 z"
     fill="#e3e8ea"
     opacity="0.668"
     stroke-width="0.104553"
     id="path18" /><path
     d="m 49.640816,45.950911 a 2.5309135,2.5309135 0 0 0 -0.757111,-0.904927 c -0.09734,-0.07211 -0.201896,-0.100949 -0.324476,-0.08292 -0.122579,0.01803 -0.209106,0.07211 -0.277607,0.165843 a 0.40739775,0.40739775 0 0 0 -0.08292,0.317266 c 0.01442,0.118974 0.07211,0.216317 0.165843,0.284817 a 1.7125127,1.7125127 0 0 1 -1.694486,2.956338 1.7305391,1.7305391 0 0 1 -1.05635,-1.586327 1.6872756,1.6872756 0 0 1 0.688611,-1.370011 0.41821362,0.41821362 0 0 0 0.165843,-0.284817 0.40739775,0.40739775 0 0 0 -0.08292,-0.317266 c -0.0685,-0.09374 -0.162238,-0.151422 -0.277607,-0.165843 -0.115369,-0.01442 -0.227133,0.01082 -0.324476,0.08292 a 2.5273082,2.5273082 0 0 0 -1.027507,2.055015 2.6030193,2.6030193 0 0 0 1.579116,2.372278 2.5092817,2.5092817 0 0 0 2.000936,0.0035 2.599414,2.599414 0 0 0 1.370011,-1.370012 2.5417294,2.5417294 0 0 0 -0.0649,-2.152357 z"
     fill="#e3e8ea"
     opacity="0.668"
     stroke-width="0.104553"
     id="path19" /><path
     d="m 32,9.6669928 c -6.81862,0 -12.346958,4.1945012 -12.352573,9.3711312 v 7.257681 a 2.8074029,2.1313524 0 0 0 2.807403,2.126237 h 9.548539 c 6.821989,-0.0017 12.349204,-4.199616 12.349204,-9.377098 0,-5.179187 -5.530584,-9.3779512 -12.352573,-9.3779512 z m 2.504203,3.8586002 c 2.07411,0 4.033677,1.208051 4.033677,2.870505 a 4.3795486,3.3249099 0 0 1 -0.03481,0.483391 1.0297554,0.7817801 0 1 1 -2.035928,-0.220807 c 0.009,-0.04859 0.01347,-0.127882 0.01347,-0.262584 0,-0.942057 -1.015157,-1.306945 -1.976412,-1.306945 -0.961254,0 -1.827057,0.612125 -1.830426,1.305241 v 2.400755 l 1.783262,-0.0094 c 1.392472,-0.02217 1.405947,1.571234 0.01348,1.563561 l -1.796738,0.0076 -0.01348,2.239624 c -0.214485,1.75794 -2.186405,3.162927 -4.55473,3.162927 -2.509819,0 -4.580559,-1.558444 -4.580559,-3.468989 0.07524,-1.965106 2.144856,-3.509911 4.742265,-3.492008 l 1.44862,-0.0069 v 1.56015 l -1.45985,0.01022 c -1.429529,0.0324 -2.650188,0.767287 -2.672647,1.928448 a 2.5098182,1.9054292 0 0 0 2.523294,1.906282 c 1.39584,0 2.509818,-0.770698 2.509818,-1.903725 V 16.38744 c 0.0011,-0.109129 0.0079,-0.196084 0.02471,-0.317998 0.234699,-1.444204 1.935985,-2.545687 3.862986,-2.545687 z"
     fill="#51a2da"
     id="path20"
     style="stroke-width:0.978453;fill:#000000;fill-opacity:1;opacity:0.2" /></svg>
