<?xml version="1.0" encoding="UTF-8"?>
<svg id="svg1443" width="128" height="128" version="1.1" viewBox="0 0 33.867 33.867" xmlns="http://www.w3.org/2000/svg" xmlns:cc="http://creativecommons.org/ns#" xmlns:dc="http://purl.org/dc/elements/1.1/" xmlns:rdf="http://www.w3.org/1999/02/22-rdf-syntax-ns#" xmlns:xlink="http://www.w3.org/1999/xlink">
 <defs id="defs1437">
  <radialGradient id="radialGradient1999" cx="17.046" cy="3.9921" r="14.544" gradientTransform="matrix(6.2216 0 0 1.6998 -89.005 -2.7937)" gradientUnits="userSpaceOnUse">
   <stop id="stop1993" stop-color="#80ea9d" offset="0"/>
   <stop id="stop1995" stop-color="#77d94c" offset="1"/>
  </radialGradient>
  <linearGradient id="linearGradient2612" x1="21.668" x2="21.668" y1="41.595" y2="223.35" gradientTransform="matrix(.26458 0 0 .26458 8.2232 -.91119)" gradientUnits="userSpaceOnUse">
   <stop id="stop2606" stop-color="#fdfdfd" offset="0"/>
   <stop id="stop2608" stop-color="#78db56" offset="1"/>
  </linearGradient>
 </defs>
 <metadata id="metadata1440">
  <rdf:RDF>
   <cc:Work rdf:about="">
    <dc:format>image/svg+xml</dc:format>
    <dc:type rdf:resource="http://purl.org/dc/dcmitype/StillImage"/>
   </cc:Work>
  </rdf:RDF>
 </metadata>
 <g id="layer1">
  <g id="g1702" transform="matrix(.97573 0 0 .96361 -65.737 -36.328)" fill="none" opacity=".18754" stroke="#000" stroke-linecap="round" stroke-linejoin="round" stroke-opacity=".02">
   <rect id="rect1634" x="69.84" y="40.71" width="29.811" height="29.811" rx="6.6099" ry="6.6099" stroke-width=".1"/>
   <rect id="rect1638" x="69.84" y="40.71" width="29.811" height="29.811" rx="6.6099" ry="6.6099" stroke-width=".2"/>
   <rect id="rect1640" x="69.84" y="40.71" width="29.811" height="29.811" rx="6.6099" ry="6.6099" stroke-width=".3"/>
   <rect id="rect1642" x="69.84" y="40.71" width="29.811" height="29.811" rx="6.6099" ry="6.6099" stroke-width=".4"/>
   <rect id="rect1644" x="69.84" y="40.71" width="29.811" height="29.811" rx="6.6099" ry="6.6099" stroke-width=".5"/>
   <rect id="rect1646" x="69.84" y="40.71" width="29.811" height="29.811" rx="6.6099" ry="6.6099" stroke-width=".6"/>
   <rect id="rect1648" x="69.84" y="40.71" width="29.811" height="29.811" rx="6.6099" ry="6.6099" stroke-width=".7"/>
   <rect id="rect1650" x="69.84" y="40.71" width="29.811" height="29.811" rx="6.6099" ry="6.6099" stroke-width=".8"/>
   <rect id="rect1652" x="69.84" y="40.71" width="29.811" height="29.811" rx="6.6099" ry="6.6099"/>
   <rect id="rect1654" x="69.84" y="40.71" width="29.811" height="29.811" rx="6.6099" ry="6.6099" stroke-width="1.2"/>
   <rect id="rect1656" x="69.84" y="40.71" width="29.811" height="29.811" rx="6.6099" ry="6.6099" stroke-width="1.4"/>
   <rect id="rect1658" x="69.84" y="40.71" width="29.811" height="29.811" rx="6.6099" ry="6.6099" stroke-width="1.6"/>
   <rect id="rect1660" x="69.84" y="40.71" width="29.811" height="29.811" rx="6.6099" ry="6.6099" stroke-width="1.8"/>
   <rect id="rect1662" x="69.84" y="40.71" width="29.811" height="29.811" rx="6.6099" ry="6.6099" stroke-width="2"/>
   <rect id="rect1664" x="69.84" y="40.71" width="29.811" height="29.811" rx="6.6099" ry="6.6099" stroke-width="2.2"/>
   <rect id="rect1666" x="69.84" y="40.71" width="29.811" height="29.811" rx="6.6099" ry="6.6099" stroke-width="2.6"/>
   <rect id="rect1668" x="69.84" y="40.71" width="29.811" height="29.811" rx="6.6099" ry="6.6099" stroke-width="3"/>
   <rect id="rect1670" x="69.84" y="40.71" width="29.811" height="29.811" rx="6.6099" ry="6.6099" stroke-width="3.4"/>
   <rect id="rect1672" x="69.84" y="40.71" width="29.811" height="29.811" rx="6.6099" ry="6.6099" stroke-width="3.8"/>
   <rect id="rect1674" x="69.84" y="40.71" width="29.811" height="29.811" rx="6.6099" ry="6.6099" stroke-width="4.2"/>
   <rect id="rect1676" x="69.84" y="40.71" width="29.811" height="29.811" rx="6.6099" ry="6.6099" stroke-width="4.6"/>
   <rect id="rect1678" x="69.84" y="40.71" width="29.811" height="29.811" rx="6.6099" ry="6.6099" stroke-width="5"/>
  </g>
  <rect id="rect849" x="2.4074" y="2.5392" width="29.087" height="29.087" rx="6.4495" ry="6.4495" fill="url(#radialGradient1999)" stroke-linecap="round" stroke-linejoin="round" stroke-width="2.6877"/>
  <g id="g5054" fill="#002d0a" fill-opacity=".032218" opacity=".4227">
   <g id="g4857" transform="translate(-5.2457 .33228)">
    <path id="path4855" d="m14.882 9.1611a1.0001 1.0001 0 0 0-0.35915 0.09612 1.0001 1.0001 0 0 0-0.56637 0.9002v11.353a1.0001 1.0001 0 0 0 0.293 0.70745l2.3652 2.3632a1.0001 1.0001 0 0 0 1.7074-0.70693v-6.4787l1.9317 1.5782a1.0001 1.0001 0 0 0 1.6325-0.77566v-3.3104a1.0001 1.0001 0 0 0-0.37672-0.78135l-5.9299-4.7305a1.0001 1.0001 0 0 0-0.69763-0.21497zm15.275 0a1.0001 1.0001 0 0 0-0.69815 0.21497l-5.9314 4.7305a1.0001 1.0001 0 0 0-0.37517 0.78135v3.3104a1.0001 1.0001 0 0 0 1.6309 0.77566l1.9337-1.5782v6.4787a1.0001 1.0001 0 0 0 1.7069 0.70693l2.3652-2.3632a1.0001 1.0001 0 0 0 0.293-0.70745v-11.353a1.0001 1.0001 0 0 0-0.56637-0.9002 1.0001 1.0001 0 0 0-0.35864-0.09612z" color="#000000" fill="#002d0a" fill-opacity=".032218" stroke-linecap="round" stroke-linejoin="round" stroke-width="2" style="-inkscape-stroke:none"/>
   </g>
   <g id="g5023" transform="translate(-4.8741 .90316)">
    <path id="path5021" d="m14.882 9.1611a1.0001 1.0001 0 0 0-0.35915 0.09612 1.0001 1.0001 0 0 0-0.56637 0.9002v11.353a1.0001 1.0001 0 0 0 0.293 0.70745l2.3652 2.3632a1.0001 1.0001 0 0 0 1.7074-0.70693v-6.4787l1.9317 1.5782a1.0001 1.0001 0 0 0 1.6325-0.77566v-3.3104a1.0001 1.0001 0 0 0-0.37672-0.78135l-5.9299-4.7305a1.0001 1.0001 0 0 0-0.69763-0.21497zm15.275 0a1.0001 1.0001 0 0 0-0.69815 0.21497l-5.9314 4.7305a1.0001 1.0001 0 0 0-0.37517 0.78135v3.3104a1.0001 1.0001 0 0 0 1.6309 0.77566l1.9337-1.5782v6.4787a1.0001 1.0001 0 0 0 1.7069 0.70693l2.3652-2.3632a1.0001 1.0001 0 0 0 0.293-0.70745v-11.353a1.0001 1.0001 0 0 0-0.56637-0.9002 1.0001 1.0001 0 0 0-0.35864-0.09612z" color="#000000" fill="#002d0a" fill-opacity=".032218" stroke-linecap="round" stroke-linejoin="round" stroke-width="2" style="-inkscape-stroke:none"/>
   </g>
   <g id="g5027" transform="translate(-4.5267 1.5665)">
    <path id="path5025" d="m14.882 9.1611a1.0001 1.0001 0 0 0-0.35915 0.09612 1.0001 1.0001 0 0 0-0.56637 0.9002v11.353a1.0001 1.0001 0 0 0 0.293 0.70745l2.3652 2.3632a1.0001 1.0001 0 0 0 1.7074-0.70693v-6.4787l1.9317 1.5782a1.0001 1.0001 0 0 0 1.6325-0.77566v-3.3104a1.0001 1.0001 0 0 0-0.37672-0.78135l-5.9299-4.7305a1.0001 1.0001 0 0 0-0.69763-0.21497zm15.275 0a1.0001 1.0001 0 0 0-0.69815 0.21497l-5.9314 4.7305a1.0001 1.0001 0 0 0-0.37517 0.78135v3.3104a1.0001 1.0001 0 0 0 1.6309 0.77566l1.9337-1.5782v6.4787a1.0001 1.0001 0 0 0 1.7069 0.70693l2.3652-2.3632a1.0001 1.0001 0 0 0 0.293-0.70745v-11.353a1.0001 1.0001 0 0 0-0.56637-0.9002 1.0001 1.0001 0 0 0-0.35864-0.09612z" color="#000000" fill="#002d0a" fill-opacity=".032218" stroke-linecap="round" stroke-linejoin="round" stroke-width="2" style="-inkscape-stroke:none"/>
   </g>
   <g id="g5031" transform="translate(-4.0791 2.2873)">
    <path id="path5029" d="m14.882 9.1611a1.0001 1.0001 0 0 0-0.35915 0.09612 1.0001 1.0001 0 0 0-0.56637 0.9002v11.353a1.0001 1.0001 0 0 0 0.293 0.70745l2.3652 2.3632a1.0001 1.0001 0 0 0 1.7074-0.70693v-6.4787l1.9317 1.5782a1.0001 1.0001 0 0 0 1.6325-0.77566v-3.3104a1.0001 1.0001 0 0 0-0.37672-0.78135l-5.9299-4.7305a1.0001 1.0001 0 0 0-0.69763-0.21497zm15.275 0a1.0001 1.0001 0 0 0-0.69815 0.21497l-5.9314 4.7305a1.0001 1.0001 0 0 0-0.37517 0.78135v3.3104a1.0001 1.0001 0 0 0 1.6309 0.77566l1.9337-1.5782v6.4787a1.0001 1.0001 0 0 0 1.7069 0.70693l2.3652-2.3632a1.0001 1.0001 0 0 0 0.293-0.70745v-11.353a1.0001 1.0001 0 0 0-0.56637-0.9002 1.0001 1.0001 0 0 0-0.35864-0.09612z" color="#000000" fill="#002d0a" fill-opacity=".032218" stroke-linecap="round" stroke-linejoin="round" stroke-width="2" style="-inkscape-stroke:none"/>
   </g>
   <g id="g5035" transform="translate(-3.4555 3.1556)">
    <path id="path5033" d="m14.882 9.1611a1.0001 1.0001 0 0 0-0.35915 0.09612 1.0001 1.0001 0 0 0-0.56637 0.9002v11.353a1.0001 1.0001 0 0 0 0.293 0.70745l2.3652 2.3632a1.0001 1.0001 0 0 0 1.7074-0.70693v-6.4787l1.9317 1.5782a1.0001 1.0001 0 0 0 1.6325-0.77566v-3.3104a1.0001 1.0001 0 0 0-0.37672-0.78135l-5.9299-4.7305a1.0001 1.0001 0 0 0-0.69763-0.21497zm15.275 0a1.0001 1.0001 0 0 0-0.69815 0.21497l-5.9314 4.7305a1.0001 1.0001 0 0 0-0.37517 0.78135v3.3104a1.0001 1.0001 0 0 0 1.6309 0.77566l1.9337-1.5782v6.4787a1.0001 1.0001 0 0 0 1.7069 0.70693l2.3652-2.3632a1.0001 1.0001 0 0 0 0.293-0.70745v-11.353a1.0001 1.0001 0 0 0-0.56637-0.9002 1.0001 1.0001 0 0 0-0.35864-0.09612z" color="#000000" fill="#002d0a" fill-opacity=".032218" stroke-linecap="round" stroke-linejoin="round" stroke-width="2" style="-inkscape-stroke:none"/>
   </g>
   <g id="g5039" transform="translate(-2.5922 4.1167)">
    <path id="path5037" d="m14.882 9.1611a1.0001 1.0001 0 0 0-0.35915 0.09612 1.0001 1.0001 0 0 0-0.56637 0.9002v11.353a1.0001 1.0001 0 0 0 0.293 0.70745l2.3652 2.3632a1.0001 1.0001 0 0 0 1.7074-0.70693v-6.4787l1.9317 1.5782a1.0001 1.0001 0 0 0 1.6325-0.77566v-3.3104a1.0001 1.0001 0 0 0-0.37672-0.78135l-5.9299-4.7305a1.0001 1.0001 0 0 0-0.69763-0.21497zm15.275 0a1.0001 1.0001 0 0 0-0.69815 0.21497l-5.9314 4.7305a1.0001 1.0001 0 0 0-0.37517 0.78135v3.3104a1.0001 1.0001 0 0 0 1.6309 0.77566l1.9337-1.5782v6.4787a1.0001 1.0001 0 0 0 1.7069 0.70693l2.3652-2.3632a1.0001 1.0001 0 0 0 0.293-0.70745v-11.353a1.0001 1.0001 0 0 0-0.56637-0.9002 1.0001 1.0001 0 0 0-0.35864-0.09612z" color="#000000" fill="#002d0a" fill-opacity=".032218" stroke-linecap="round" stroke-linejoin="round" stroke-width="2" style="-inkscape-stroke:none"/>
   </g>
  </g>
  <g id="path10" transform="translate(-5.5676 .066592)" fill="#ababab">
   <path id="path1527" d="m14.882 9.1611a1.0001 1.0001 0 0 0-0.35915 0.09612 1.0001 1.0001 0 0 0-0.56637 0.9002v11.353a1.0001 1.0001 0 0 0 0.293 0.70745l2.3652 2.3632a1.0001 1.0001 0 0 0 1.7074-0.70693v-6.4787l1.9317 1.5782a1.0001 1.0001 0 0 0 1.6325-0.77566v-3.3104a1.0001 1.0001 0 0 0-0.37672-0.78135l-5.9299-4.7305a1.0001 1.0001 0 0 0-0.69763-0.21497zm15.275 0a1.0001 1.0001 0 0 0-0.69815 0.21497l-5.9314 4.7305a1.0001 1.0001 0 0 0-0.37517 0.78135v3.3104a1.0001 1.0001 0 0 0 1.6309 0.77566l1.9337-1.5782v6.4787a1.0001 1.0001 0 0 0 1.7069 0.70693l2.3652-2.3632a1.0001 1.0001 0 0 0 0.293-0.70745v-11.353a1.0001 1.0001 0 0 0-0.56637-0.9002 1.0001 1.0001 0 0 0-0.35864-0.09612z" color="#000000" fill="url(#linearGradient2612)" stroke-linecap="round" stroke-linejoin="round" stroke-width="2" style="-inkscape-stroke:none"/>
  </g>
 </g>
</svg>
