<?xml version="1.0" encoding="UTF-8"?>
<svg id="svg1443" width="128" height="128" version="1.1" viewBox="0 0 33.867 33.867" xmlns="http://www.w3.org/2000/svg" xmlns:cc="http://creativecommons.org/ns#" xmlns:dc="http://purl.org/dc/elements/1.1/" xmlns:rdf="http://www.w3.org/1999/02/22-rdf-syntax-ns#" xmlns:xlink="http://www.w3.org/1999/xlink">
 <defs id="defs1437">
  <linearGradient id="linearGradient1632" x1="132.21" x2="132.21" y1="42.152" y2="70.68" gradientTransform="matrix(.97573 0 0 .97573 -111.77 -37.183)" gradientUnits="userSpaceOnUse">
   <stop id="stop1626" stop-color="#fafafc" offset="0"/>
   <stop id="stop1628" stop-color="#e2e6ea" offset="1"/>
  </linearGradient>
  <linearGradient id="linearGradient1013" x1="9.8192" x2="7.7289" y1="13.979" y2="10.798" gradientUnits="userSpaceOnUse">
   <stop id="stop1007" stop-color="#ff5597" offset="0"/>
   <stop id="stop1009" stop-color="#ff9044" offset="1"/>
  </linearGradient>
  <linearGradient id="linearGradient1211" x1="11.577" x2="16.877" y1="21.414" y2="18.354" gradientUnits="userSpaceOnUse">
   <stop id="stop1205" stop-color="#0d55d3" offset="0"/>
   <stop id="stop1207" stop-color="#083ebd" offset="1"/>
  </linearGradient>
 </defs>
 <metadata id="metadata1440">
  <rdf:RDF>
   <cc:Work rdf:about="">
    <dc:format>image/svg+xml</dc:format>
    <dc:type rdf:resource="http://purl.org/dc/dcmitype/StillImage"/>
   </cc:Work>
  </rdf:RDF>
 </metadata>
 <g id="layer1">
  <g id="g1702" transform="matrix(.97573 0 0 .97573 -65.737 -37.183)" fill="none" opacity=".295" stroke="#000" stroke-linecap="round" stroke-linejoin="round" stroke-opacity=".02">
   <rect id="rect1634" x="69.84" y="40.71" width="29.811" height="29.811" rx="6.6099" ry="6.6099" stroke-width=".1"/>
   <rect id="rect1638" x="69.84" y="40.71" width="29.811" height="29.811" rx="6.6099" ry="6.6099" stroke-width=".2"/>
   <rect id="rect1640" x="69.84" y="40.71" width="29.811" height="29.811" rx="6.6099" ry="6.6099" stroke-width=".3"/>
   <rect id="rect1642" x="69.84" y="40.71" width="29.811" height="29.811" rx="6.6099" ry="6.6099" stroke-width=".4"/>
   <rect id="rect1644" x="69.84" y="40.71" width="29.811" height="29.811" rx="6.6099" ry="6.6099" stroke-width=".5"/>
   <rect id="rect1646" x="69.84" y="40.71" width="29.811" height="29.811" rx="6.6099" ry="6.6099" stroke-width=".6"/>
   <rect id="rect1648" x="69.84" y="40.71" width="29.811" height="29.811" rx="6.6099" ry="6.6099" stroke-width=".7"/>
   <rect id="rect1650" x="69.84" y="40.71" width="29.811" height="29.811" rx="6.6099" ry="6.6099" stroke-width=".8"/>
   <rect id="rect1652" x="69.84" y="40.71" width="29.811" height="29.811" rx="6.6099" ry="6.6099"/>
   <rect id="rect1654" x="69.84" y="40.71" width="29.811" height="29.811" rx="6.6099" ry="6.6099" stroke-width="1.2"/>
   <rect id="rect1656" x="69.84" y="40.71" width="29.811" height="29.811" rx="6.6099" ry="6.6099" stroke-width="1.4"/>
   <rect id="rect1658" x="69.84" y="40.71" width="29.811" height="29.811" rx="6.6099" ry="6.6099" stroke-width="1.6"/>
   <rect id="rect1660" x="69.84" y="40.71" width="29.811" height="29.811" rx="6.6099" ry="6.6099" stroke-width="1.8"/>
   <rect id="rect1662" x="69.84" y="40.71" width="29.811" height="29.811" rx="6.6099" ry="6.6099" stroke-width="2"/>
   <rect id="rect1664" x="69.84" y="40.71" width="29.811" height="29.811" rx="6.6099" ry="6.6099" stroke-width="2.2"/>
   <rect id="rect1666" x="69.84" y="40.71" width="29.811" height="29.811" rx="6.6099" ry="6.6099" stroke-width="2.6"/>
   <rect id="rect1668" x="69.84" y="40.71" width="29.811" height="29.811" rx="6.6099" ry="6.6099" stroke-width="3"/>
   <rect id="rect1670" x="69.84" y="40.71" width="29.811" height="29.811" rx="6.6099" ry="6.6099" stroke-width="3.4"/>
   <rect id="rect1672" x="69.84" y="40.71" width="29.811" height="29.811" rx="6.6099" ry="6.6099" stroke-width="3.8"/>
   <rect id="rect1674" x="69.84" y="40.71" width="29.811" height="29.811" rx="6.6099" ry="6.6099" stroke-width="4.2"/>
   <rect id="rect1676" x="69.84" y="40.71" width="29.811" height="29.811" rx="6.6099" ry="6.6099" stroke-width="4.6"/>
   <rect id="rect1678" x="69.84" y="40.71" width="29.811" height="29.811" rx="6.6099" ry="6.6099" stroke-width="5"/>
  </g>
  <rect id="rect849" x="2.4074" y="2.5392" width="29.087" height="29.087" rx="6.4495" ry="6.4495" fill="url(#linearGradient1632)" stroke-linecap="round" stroke-linejoin="round" stroke-width="2.6877"/>
  <path id="path6" d="m7.7289 10.798c-1.6618 0-2.7697 1.6618-2.7697 3.3237 0 1.1079 0.74788 2.7697 1.6618 2.7697 1.6081-1.9297 2.2886-2.7354 3.764-3.0748-1.5834 1.7953-2.6561 4.7367-2.6561 4.7367s1.2618-1.2592 4.5127-1.585l-1.189 1.585s0.59932 0.12623 1.6088 0.46307c-0.15692 0.85855-0.78147 2.7239-3.2707 3.9685 3.2056 0 6.164-1.1396 7.8808-1.9572 2.6858 1.4281 5.9653 3.6164 9.2916 6.9427l-3.9328-8.7387c3.4443 1.5123 6.1486 3.1993 6.1486 3.1993s-6.1209-6.1199-11.702-8.7701c4.9803 0.49423 11.702 2.9537 11.702 2.9537s-9.4171-5.8165-21.05-5.8165z" opacity=".1" stroke-width=".55395"/>
  <path id="path8" d="m12.714 17.999s0 2.7697-3.3237 4.4316c4.9855 0 9.4171-2.7697 9.4171-2.7697z" fill="url(#linearGradient1211)" stroke-width=".55395"/>
  <path id="path10" d="m12.714 17.999s0 2.7697-3.3237 4.4316c0.33052 0 0.65788-0.01403 0.98239-0.03679 2.3351-1.6535 2.3413-3.8408 2.3413-3.8408l5.4291 1.4812c0.37312-0.20198 0.66431-0.37326 0.66431-0.37326z" fill="#fff" opacity=".1" stroke-width=".55395"/>
  <path id="path12" d="m12.714 17.999s-0.0013 0.39486-0.17959 0.97482c0.99395 0.32552 2.4347 0.87736 4.1643 1.756 1.2883-0.57062 2.1087-1.0689 2.1087-1.0689z" opacity=".2" stroke-width=".55395"/>
  <path id="path14" d="m11.053 17.999s7.6445 1.5511 15.511 9.4171l-4.9855-11.079-8.8632-0.55395z" fill="#15a5ff" stroke-width=".55395"/>
  <path id="path16" d="m12.714 15.783-1.6618 2.2158s0.12386 0.02564 0.35163 0.0844l1.3102-1.7462 8.8632 0.55395 4.5484 10.108c0.14591 0.14178 0.291 0.27044 0.4371 0.41654l-4.9855-11.079z" fill="#fff" opacity=".2" stroke-width=".55395"/>
  <path id="path18" d="m12.714 15.783-0.93046 1.241c0.60334-0.08122 1.2772-0.13307 2.0384-0.13307 2.8337 0 6.2589 1.1991 9.1207 2.4809l-1.3405-2.9786c-0.02864-0.02031-0.05785-0.04028-0.08656-0.06059z" opacity=".2" stroke-width=".55395"/>
  <path id="path20" d="m7.7289 17.999s2.2158-6.0934 4.9855-6.0934c6.0934 0 16.064 9.9711 16.064 9.9711s-8.8632-5.5395-14.957-5.5395c-4.4316 0-6.0934 1.6618-6.0934 1.6618z" fill="#9c2bff" stroke-width=".55395"/>
  <path id="path22" d="m12.714 11.906c-2.7697 0-4.9855 6.0934-4.9855 6.0934s0.10636-0.1055 0.33432-0.26291c0.68662-1.6129 2.4756-5.2766 4.6512-5.2766 4.6422 0 11.506 5.7636 14.526 8.5202 0.95594 0.53473 1.5385 0.89692 1.5385 0.89692s-9.9711-9.9711-16.064-9.9711z" fill="#fff" opacity=".2" stroke-width=".55395"/>
  <path id="path24" d="m12.714 11.906c-1.0842 0-2.0805 0.93658-2.8952 2.073 1.1069-0.41083 2.6296-0.41114 5.665-0.41114 0.90344 0 1.9174 0.10232 2.9699 0.26615-2.0146-1.1297-4.0297-1.928-5.7396-1.928z" opacity=".2" stroke-width=".55395"/>
  <path id="path26" d="m6.621 16.337c-0.91397 0-1.6618-1.6618-1.6618-2.7697 0-1.6618 1.1079-3.3237 2.7697-3.3237 11.633 0 21.05 5.8165 21.05 5.8165s-8.3092-3.0467-13.295-3.0467c-6.0934 0-6.0934 0-8.8632 3.3237z" fill="url(#linearGradient1013)" stroke-width=".55395"/>
  <path id="path30" d="m7.7289 10.244c-1.6618 0-2.7697 1.6618-2.7697 3.3237 0 0.09082 0.01193 0.18966 0.021629 0.28671 0.11142-1.5677 1.1758-3.0565 2.7481-3.0565 7.7364 0 14.474 2.5676 18.132 4.2909 1.7365 0.53899 2.918 0.97157 2.918 0.97157s-9.4171-5.8165-21.05-5.8165z" fill="#fff" opacity=".2" stroke-width=".55395"/>
 </g>
</svg>
