<?xml version="1.0" encoding="UTF-8" standalone="no"?>
<svg
   width="512"
   height="512"
   version="1.1"
   viewBox="0 0 16.933 16.933"
   id="svg3"
   sodipodi:docname="appimagekit-fontbase.svg"
   inkscape:version="1.4.4 (dcaf3e7d9e, 2026-05-05)"
   xmlns:inkscape="http://www.inkscape.org/namespaces/inkscape"
   xmlns:sodipodi="http://sodipodi.sourceforge.net/DTD/sodipodi-0.dtd"
   xmlns="http://www.w3.org/2000/svg"
   xmlns:svg="http://www.w3.org/2000/svg"
   xmlns:rdf="http://www.w3.org/1999/02/22-rdf-syntax-ns#"
   xmlns:cc="http://creativecommons.org/ns#"
   xmlns:dc="http://purl.org/dc/elements/1.1/">
  <sodipodi:namedview
     id="namedview3"
     pagecolor="#ffffff"
     bordercolor="#000000"
     borderopacity="0.25"
     inkscape:showpageshadow="2"
     inkscape:pageopacity="0.0"
     inkscape:pagecheckerboard="0"
     inkscape:deskcolor="#d1d1d1"
     inkscape:zoom="1.5625"
     inkscape:cx="255.68"
     inkscape:cy="256"
     inkscape:window-width="1920"
     inkscape:window-height="1011"
     inkscape:window-x="0"
     inkscape:window-y="0"
     inkscape:window-maximized="1"
     inkscape:current-layer="svg3" />
  <defs
     id="defs2">
    <filter
       id="filter1057"
       x="-0.0804972"
       y="-0.0804972"
       width="1.1609944"
       height="1.1609944"
       color-interpolation-filters="sRGB">
      <feGaussianBlur
         stdDeviation="1.878268"
         id="feGaussianBlur1" />
    </filter>
    <linearGradient
       id="linearGradient1053"
       x1="-127"
       x2="-127"
       y1="5"
       y2="60"
       gradientTransform="matrix(0.26458,0,0,0.26458,34.7928,-0.1348)"
       gradientUnits="userSpaceOnUse">
      <stop
         stop-color="#a53cff"
         offset="0"
         id="stop1"
         style="stop-color:#c061cb;stop-opacity:1" />
      <stop
         stop-color="#b496ff"
         offset="1"
         id="stop2"
         style="stop-color:#613583;stop-opacity:1" />
    </linearGradient>
    <filter
       inkscape:collect="always"
       style="color-interpolation-filters:sRGB"
       id="filter3"
       x="-0.0603854"
       y="-0.098947466"
       width="1.1207708"
       height="1.1978949">
      <feGaussianBlur
         inkscape:collect="always"
         stdDeviation="0.286254"
         id="feGaussianBlur3" />
    </filter>
  </defs>
  <metadata
     id="metadata2">
    <rdf:RDF>
      <cc:Work
         rdf:about="">
        <dc:format>image/svg+xml</dc:format>
        <dc:type
           rdf:resource="http://purl.org/dc/dcmitype/StillImage" />
        <dc:title />
      </cc:Work>
    </rdf:RDF>
  </metadata>
  <rect
     transform="matrix(0.26458,0,0,0.26458,0,0.33072265)"
     x="4"
     y="4"
     width="56"
     height="56"
     ry="13"
     fill="#141414"
     filter="url(#filter1057)"
     image-rendering="optimizeSpeed"
     opacity="0.3"
     stroke-linecap="round"
     stroke-width="2.7444"
     id="rect2"
     style="opacity:0.25;filter:url(#filter1057)" />
  <rect
     x="1.1906999"
     y="1.19063"
     width="14.552"
     height="14.552"
     ry="3.9688001"
     fill="url(#linearGradient1053)"
     image-rendering="optimizeSpeed"
     stroke-linecap="round"
     stroke-width="0.72612"
     id="rect3"
     style="fill:url(#linearGradient1053)" />
  <path
     d="m 8.4744,5.3257525 c -0.50996,0 -1.0221,0.19251 -1.4154,0.57671 l -0.69506,0.69506 -2.1038,2.0857 -1.0428,1.0428 c -0.58547,0.5854225 -0.58547,1.5183025 0,2.1038025 0.58542,0.58547 1.5183,0.58547 2.1038,0 l 1.0428,-1.0428 1.0428,1.0428 c 0.58542,0.58547 1.5183,0.58547 2.1038,0 0.58547,-0.58542 0.58547,-1.5183 0,-2.1038025 l 2.0857,2.0857025 c 0.58542,0.58542 1.5183,0.58542 2.1038,0 0.60373,-0.54882 0.60407,-1.5004 0.0186,-2.0676025 l -1.0428,-1.0609 -2.1043,-2.0857 -0.69506,-0.69506 c -0.3842,-0.3842 -0.89202,-0.57671 -1.402,-0.57671 z"
     fill="#ffffff"
     stroke-width="0.52917"
     id="path3"
     style="fill:#000000;fill-opacity:1;filter:url(#filter3);opacity:0.35" />
  <path
     d="m 8.4742328,4.9939121 c -0.50996,0 -1.0221,0.19251 -1.4154,0.57671 l -0.69506,0.69506 -2.1038,2.0857 -1.0428,1.0428 c -0.58547,0.58542 -0.58547,1.5182999 0,2.1037999 0.58542,0.58547 1.5183,0.58547 2.1038,0 l 1.0428,-1.0428 1.0428,1.0428 c 0.58542,0.58547 1.5183,0.58547 2.1038,0 0.5854702,-0.58542 0.5854702,-1.5182999 0,-2.1037999 l 2.0857002,2.0856999 c 0.58542,0.58542 1.5183,0.58542 2.1038,0 0.60373,-0.54882 0.60407,-1.5003999 0.0186,-2.0675999 l -1.0428,-1.0609 -2.1043,-2.0857 -0.6950602,-0.69506 c -0.3842,-0.3842 -0.89202,-0.57671 -1.402,-0.57671 z"
     fill="#ffffff"
     stroke-width="0.52917"
     id="path3-6" />
</svg>
