<?xml version="1.0" encoding="UTF-8"?>
<svg id="svg6" width="128" height="128" version="1.1" viewBox="0 0 33.867 33.867" xmlns="http://www.w3.org/2000/svg" xmlns:cc="http://creativecommons.org/ns#" xmlns:dc="http://purl.org/dc/elements/1.1/" xmlns:rdf="http://www.w3.org/1999/02/22-rdf-syntax-ns#" xmlns:xlink="http://www.w3.org/1999/xlink">
 <metadata id="metadata112">
  <rdf:RDF>
   <cc:Work rdf:about="">
    <dc:format>image/svg+xml</dc:format>
    <dc:type rdf:resource="http://purl.org/dc/dcmitype/StillImage"/>
   </cc:Work>
  </rdf:RDF>
 </metadata>
 <defs id="defs2">
  <radialGradient id="radialGradient1003" cx="16.933" cy="14.76" r="14.543" gradientTransform="matrix(-1.6731 0 0 -1.7356 45.264 32.022)" gradientUnits="userSpaceOnUse">
   <stop id="stop48" stop-color="#08bcfe" offset="0"/>
   <stop id="stop46" stop-color="#0d6be6" offset="1"/>
  </radialGradient>
  <linearGradient id="linearGradient26126" x1="-40.911" x2="-40.911" y1="10.924" y2="34.363" gradientUnits="userSpaceOnUse">
   <stop id="stop26120" stop-color="#fff" offset="0"/>
   <stop id="stop26122" stop-color="#0c77ea" offset="1"/>
  </linearGradient>
 </defs>
 <g id="layer1">
  <g id="g1702" transform="matrix(.97573 0 0 .97573 -65.748 -37.203)" fill="none" opacity=".29677" stroke="#000" stroke-linecap="round" stroke-linejoin="round" stroke-opacity=".02">
   <rect id="rect1634" x="69.84" y="40.71" width="29.811" height="29.811" rx="6.6099" ry="6.6099" stroke-width=".1"/>
   <rect id="rect1638" x="69.84" y="40.71" width="29.811" height="29.811" rx="6.6099" ry="6.6099" stroke-width=".2"/>
   <rect id="rect1640" x="69.84" y="40.71" width="29.811" height="29.811" rx="6.6099" ry="6.6099" stroke-width=".3"/>
   <rect id="rect1642" x="69.84" y="40.71" width="29.811" height="29.811" rx="6.6099" ry="6.6099" stroke-width=".4"/>
   <rect id="rect1644" x="69.84" y="40.71" width="29.811" height="29.811" rx="6.6099" ry="6.6099" stroke-width=".5"/>
   <rect id="rect1646" x="69.84" y="40.71" width="29.811" height="29.811" rx="6.6099" ry="6.6099" stroke-width=".6"/>
   <rect id="rect1648" x="69.84" y="40.71" width="29.811" height="29.811" rx="6.6099" ry="6.6099" stroke-width=".7"/>
   <rect id="rect1650" x="69.84" y="40.71" width="29.811" height="29.811" rx="6.6099" ry="6.6099" stroke-width=".8"/>
   <rect id="rect1652" x="69.84" y="40.71" width="29.811" height="29.811" rx="6.6099" ry="6.6099"/>
   <rect id="rect1654" x="69.84" y="40.71" width="29.811" height="29.811" rx="6.6099" ry="6.6099" stroke-width="1.2"/>
   <rect id="rect1656" x="69.84" y="40.71" width="29.811" height="29.811" rx="6.6099" ry="6.6099" stroke-width="1.4"/>
   <rect id="rect1658" x="69.84" y="40.71" width="29.811" height="29.811" rx="6.6099" ry="6.6099" stroke-width="1.6"/>
   <rect id="rect1660" x="69.84" y="40.71" width="29.811" height="29.811" rx="6.6099" ry="6.6099" stroke-width="1.8"/>
   <rect id="rect1662" x="69.84" y="40.71" width="29.811" height="29.811" rx="6.6099" ry="6.6099" stroke-width="2"/>
   <rect id="rect1664" x="69.84" y="40.71" width="29.811" height="29.811" rx="6.6099" ry="6.6099" stroke-width="2.2"/>
   <rect id="rect1666" x="69.84" y="40.71" width="29.811" height="29.811" rx="6.6099" ry="6.6099" stroke-width="2.6"/>
   <rect id="rect1668" x="69.84" y="40.71" width="29.811" height="29.811" rx="6.6099" ry="6.6099" stroke-width="3"/>
   <rect id="rect1670" x="69.84" y="40.71" width="29.811" height="29.811" rx="6.6099" ry="6.6099" stroke-width="3.4"/>
   <rect id="rect1672" x="69.84" y="40.71" width="29.811" height="29.811" rx="6.6099" ry="6.6099" stroke-width="3.8"/>
   <rect id="rect1674" x="69.84" y="40.71" width="29.811" height="29.811" rx="6.6099" ry="6.6099" stroke-width="4.2"/>
   <rect id="rect1676" x="69.84" y="40.71" width="29.811" height="29.811" rx="6.6099" ry="6.6099" stroke-width="4.6"/>
   <rect id="rect1678" x="69.84" y="40.71" width="29.811" height="29.811" rx="6.6099" ry="6.6099" stroke-width="5"/>
  </g>
  <rect id="rect51" x="2.39" y="2.39" width="29.087" height="29.087" rx="6.4489" fill="url(#radialGradient1003)" stroke-width=".99999"/>
  <g id="g28207" transform="translate(46.658 3.5855)" stroke-width=".6586">
   <g id="g27658" fill="#06002b" fill-opacity=".036972" opacity=".3892">
    <path id="path27336" d="m-27.116 7.2457c-0.96652 0-1.7446 0.77807-1.7446 1.7446v8.7235c0 0.96652 0.77807 1.7446 1.7446 1.7446h5.16e-4c0.96652 0 1.7446-0.77807 1.7446-1.7446v-2.9342c0.46233-2.045 3.2732-1.6823 3.4892-0.0832v3.0174c0 0.96652 0.77807 1.7446 1.7446 1.7446h5.17e-4c0.96652 0 1.7446-0.77807 1.7446-1.7446v-4.0096c-0.1719-2.1306-1.7077-3.7092-3.4938-3.8416-1.1578-0.08628-2.4214 0.57024-3.4851 1.6273v-2.4996c-2e-6 -0.96652-0.77807-1.7446-1.7446-1.7446zm-11.899 1.8324c-0.96652 0-1.7446 0.77807-1.7446 1.7446 0 0.96652 0.77807 1.7446 1.7446 1.7446h1.7456v5.1465c0 0.96652 0.77807 1.7446 1.7446 1.7446s1.7446-0.77807 1.7446-1.7446v-5.1465h1.7451c0.96653 0 1.7446-0.77807 1.7446-1.7446 0-0.96652-0.77807-1.7446-1.7446-1.7446z"/>
    <path id="path27627" d="m-26.874 7.5137c-0.96652 0-1.7446 0.77807-1.7446 1.7446v8.7235c0 0.96652 0.77807 1.7446 1.7446 1.7446h5.16e-4c0.96652 0 1.7446-0.77807 1.7446-1.7446v-2.9342c0.46233-2.045 3.2732-1.6823 3.4892-0.0832v3.0174c0 0.96652 0.77807 1.7446 1.7446 1.7446h5.17e-4c0.96652 0 1.7446-0.77807 1.7446-1.7446v-4.0096c-0.1719-2.1306-1.7077-3.7092-3.4938-3.8416-1.1578-0.08628-2.4214 0.57024-3.4851 1.6273v-2.4996c-2e-6 -0.96652-0.77807-1.7446-1.7446-1.7446zm-11.899 1.8324c-0.96652 0-1.7446 0.77807-1.7446 1.7446 0 0.96652 0.77807 1.7446 1.7446 1.7446h1.7456v5.1465c0 0.96652 0.77807 1.7446 1.7446 1.7446s1.7446-0.77807 1.7446-1.7446v-5.1465h1.7451c0.96653 0 1.7446-0.77807 1.7446-1.7446 0-0.96652-0.77807-1.7446-1.7446-1.7446z"/>
    <path id="path27629" d="m-26.78 7.8231c-0.96652 0-1.7446 0.77807-1.7446 1.7446v8.7235c0 0.96652 0.77807 1.7446 1.7446 1.7446h5.16e-4c0.96652 0 1.7446-0.77807 1.7446-1.7446v-2.9342c0.46233-2.045 3.2732-1.6823 3.4892-0.0832v3.0174c0 0.96652 0.77807 1.7446 1.7446 1.7446h5.17e-4c0.96652 0 1.7446-0.77807 1.7446-1.7446v-4.0096c-0.1719-2.1306-1.7077-3.7092-3.4938-3.8416-1.1578-0.08628-2.4214 0.57024-3.4851 1.6273v-2.4996c-2e-6 -0.96652-0.77807-1.7446-1.7446-1.7446zm-11.899 1.8324c-0.96652 0-1.7446 0.77807-1.7446 1.7446 0 0.96652 0.77807 1.7446 1.7446 1.7446h1.7456v5.1465c0 0.96652 0.77807 1.7446 1.7446 1.7446s1.7446-0.77807 1.7446-1.7446v-5.1465h1.7451c0.96653 0 1.7446-0.77807 1.7446-1.7446 0-0.96652-0.77807-1.7446-1.7446-1.7446z"/>
    <path id="path27631" d="m-26.691 8.1838c-0.96652 0-1.7446 0.77807-1.7446 1.7446v8.7235c0 0.96652 0.77807 1.7446 1.7446 1.7446h5.16e-4c0.96652 0 1.7446-0.77807 1.7446-1.7446v-2.9342c0.46233-2.045 3.2732-1.6823 3.4892-0.0832v3.0174c0 0.96652 0.77807 1.7446 1.7446 1.7446h5.17e-4c0.96652 0 1.7446-0.77807 1.7446-1.7446v-4.0096c-0.1719-2.1306-1.7077-3.7092-3.4938-3.8416-1.1578-0.08628-2.4214 0.57024-3.4851 1.6273v-2.4996c-2e-6 -0.96652-0.77807-1.7446-1.7446-1.7446zm-11.899 1.8324c-0.96652 0-1.7446 0.77807-1.7446 1.7446 0 0.96652 0.77807 1.7446 1.7446 1.7446h1.7456v5.1465c0 0.96652 0.77807 1.7446 1.7446 1.7446s1.7446-0.77807 1.7446-1.7446v-5.1465h1.7451c0.96653 0 1.7446-0.77807 1.7446-1.7446 0-0.96652-0.77807-1.7446-1.7446-1.7446z"/>
    <path id="path27633" d="m-26.592 8.7019c-0.96652 0-1.7446 0.77807-1.7446 1.7446v8.7235c0 0.96652 0.77807 1.7446 1.7446 1.7446h5.16e-4c0.96652 0 1.7446-0.77807 1.7446-1.7446v-2.9342c0.46233-2.045 3.2732-1.6823 3.4892-0.0832v3.0174c0 0.96652 0.77807 1.7446 1.7446 1.7446h5.17e-4c0.96652 0 1.7446-0.77807 1.7446-1.7446v-4.0096c-0.1719-2.1306-1.7077-3.7092-3.4938-3.8416-1.1578-0.08628-2.4214 0.57024-3.4851 1.6273v-2.4996c-2e-6 -0.96652-0.77807-1.7446-1.7446-1.7446zm-11.899 1.8324c-0.96652 0-1.7446 0.77807-1.7446 1.7446 0 0.96652 0.77807 1.7446 1.7446 1.7446h1.7456v5.1465c0 0.96652 0.77807 1.7446 1.7446 1.7446s1.7446-0.77807 1.7446-1.7446v-5.1465h1.7451c0.96653 0 1.7446-0.77807 1.7446-1.7446 0-0.96652-0.77807-1.7446-1.7446-1.7446z"/>
   </g>
   <path id="path9" d="m-27.268 7.0691c-0.96652 0-1.7446 0.77807-1.7446 1.7446v8.7235c0 0.96652 0.77807 1.7446 1.7446 1.7446h5.16e-4c0.96652 0 1.7446-0.77807 1.7446-1.7446v-2.9342c0.46233-2.045 3.2732-1.6823 3.4892-0.0832v3.0174c0 0.96652 0.77807 1.7446 1.7446 1.7446h5.17e-4c0.96652 0 1.7446-0.77807 1.7446-1.7446v-4.0096c-0.1719-2.1306-1.7077-3.7092-3.4938-3.8416-1.1578-0.08628-2.4214 0.57024-3.4851 1.6273v-2.4996c-2e-6 -0.96652-0.77807-1.7446-1.7446-1.7446zm-11.899 1.8324c-0.96652 0-1.7446 0.77807-1.7446 1.7446 0 0.96652 0.77807 1.7446 1.7446 1.7446h1.7456v5.1465c0 0.96652 0.77807 1.7446 1.7446 1.7446s1.7446-0.77807 1.7446-1.7446v-5.1465h1.7451c0.96653 0 1.7446-0.77807 1.7446-1.7446 0-0.96652-0.77807-1.7446-1.7446-1.7446z" fill="url(#linearGradient26126)"/>
  </g>
 </g>
</svg>
