<?xml version="1.0" encoding="UTF-8"?>
<svg id="svg1443" width="128" height="128" version="1.1" viewBox="0 0 33.867 33.867" xmlns="http://www.w3.org/2000/svg" xmlns:cc="http://creativecommons.org/ns#" xmlns:dc="http://purl.org/dc/elements/1.1/" xmlns:rdf="http://www.w3.org/1999/02/22-rdf-syntax-ns#" xmlns:xlink="http://www.w3.org/1999/xlink">
 <defs id="defs1437">
  <linearGradient id="linearGradient1632" x1="132.21" x2="132.21" y1="42.152" y2="70.68" gradientTransform="matrix(.97573 0 0 .97573 -111.77 -37.183)" gradientUnits="userSpaceOnUse">
   <stop id="stop1626" stop-color="#181719" offset="0"/>
   <stop id="stop1628" stop-color="#3e3e40" offset="1"/>
  </linearGradient>
 </defs>
 <metadata id="metadata1440">
  <rdf:RDF>
   <cc:Work rdf:about="">
    <dc:format>image/svg+xml</dc:format>
    <dc:type rdf:resource="http://purl.org/dc/dcmitype/StillImage"/>
   </cc:Work>
  </rdf:RDF>
 </metadata>
 <g id="layer1">
  <g id="g1702" transform="matrix(.97573 0 0 .97573 -65.737 -37.183)" fill="none" opacity=".295" stroke="#000" stroke-linecap="round" stroke-linejoin="round" stroke-opacity=".02">
   <rect id="rect1634" x="69.84" y="40.71" width="29.811" height="29.811" rx="6.6099" ry="6.6099" stroke-width=".1"/>
   <rect id="rect1638" x="69.84" y="40.71" width="29.811" height="29.811" rx="6.6099" ry="6.6099" stroke-width=".2"/>
   <rect id="rect1640" x="69.84" y="40.71" width="29.811" height="29.811" rx="6.6099" ry="6.6099" stroke-width=".3"/>
   <rect id="rect1642" x="69.84" y="40.71" width="29.811" height="29.811" rx="6.6099" ry="6.6099" stroke-width=".4"/>
   <rect id="rect1644" x="69.84" y="40.71" width="29.811" height="29.811" rx="6.6099" ry="6.6099" stroke-width=".5"/>
   <rect id="rect1646" x="69.84" y="40.71" width="29.811" height="29.811" rx="6.6099" ry="6.6099" stroke-width=".6"/>
   <rect id="rect1648" x="69.84" y="40.71" width="29.811" height="29.811" rx="6.6099" ry="6.6099" stroke-width=".7"/>
   <rect id="rect1650" x="69.84" y="40.71" width="29.811" height="29.811" rx="6.6099" ry="6.6099" stroke-width=".8"/>
   <rect id="rect1652" x="69.84" y="40.71" width="29.811" height="29.811" rx="6.6099" ry="6.6099"/>
   <rect id="rect1654" x="69.84" y="40.71" width="29.811" height="29.811" rx="6.6099" ry="6.6099" stroke-width="1.2"/>
   <rect id="rect1656" x="69.84" y="40.71" width="29.811" height="29.811" rx="6.6099" ry="6.6099" stroke-width="1.4"/>
   <rect id="rect1658" x="69.84" y="40.71" width="29.811" height="29.811" rx="6.6099" ry="6.6099" stroke-width="1.6"/>
   <rect id="rect1660" x="69.84" y="40.71" width="29.811" height="29.811" rx="6.6099" ry="6.6099" stroke-width="1.8"/>
   <rect id="rect1662" x="69.84" y="40.71" width="29.811" height="29.811" rx="6.6099" ry="6.6099" stroke-width="2"/>
   <rect id="rect1664" x="69.84" y="40.71" width="29.811" height="29.811" rx="6.6099" ry="6.6099" stroke-width="2.2"/>
   <rect id="rect1666" x="69.84" y="40.71" width="29.811" height="29.811" rx="6.6099" ry="6.6099" stroke-width="2.6"/>
   <rect id="rect1668" x="69.84" y="40.71" width="29.811" height="29.811" rx="6.6099" ry="6.6099" stroke-width="3"/>
   <rect id="rect1670" x="69.84" y="40.71" width="29.811" height="29.811" rx="6.6099" ry="6.6099" stroke-width="3.4"/>
   <rect id="rect1672" x="69.84" y="40.71" width="29.811" height="29.811" rx="6.6099" ry="6.6099" stroke-width="3.8"/>
   <rect id="rect1674" x="69.84" y="40.71" width="29.811" height="29.811" rx="6.6099" ry="6.6099" stroke-width="4.2"/>
   <rect id="rect1676" x="69.84" y="40.71" width="29.811" height="29.811" rx="6.6099" ry="6.6099" stroke-width="4.6"/>
   <rect id="rect1678" x="69.84" y="40.71" width="29.811" height="29.811" rx="6.6099" ry="6.6099" stroke-width="5"/>
  </g>
  <rect id="rect849" x="2.4074" y="2.5392" width="29.087" height="29.087" rx="6.4495" ry="6.4495" fill="url(#linearGradient1632)" stroke-linecap="round" stroke-linejoin="round" stroke-width="2.6877"/>
  <path id="path9" d="m20.716 8.5677c-0.37283 0.017507-0.71176 0.22426-0.89817 0.54738-0.09659 0.16721-0.14744 0.35644-0.14744 0.54907 0 0.39147 0.20957 0.75413 0.54851 0.94958 0.16664 0.09659 0.35588 0.14744 0.54907 0.14744 0.39147 0 0.75413-0.20957 0.94958-0.54851 0.09659-0.16664 0.14744-0.35588 0.14744-0.54851 0-0.39147-0.20957-0.75413-0.54851-0.95014-0.18246-0.10564-0.3909-0.1559-0.60048-0.14631zm-7.0588 1.715h-5.64e-4c-0.3796 0-0.69142 0.31238-0.69142 0.69199v5.66e-4c0 0.37904 0.31295 0.69086 0.69199 0.69086 0.37904-5.63e-4 0.69086-0.31238 0.69086-0.69086 5.64e-4 -0.3796-0.31125-0.69199-0.69086-0.69255zm1.7421 0.17624h-5.63e-4c-0.33102 0-0.60387 0.27228-0.60387 0.60386 5.66e-4 0.33159 0.2734 0.6033 0.60443 0.6033 0.33046-5.63e-4 0.60274-0.27228 0.60274-0.6033 5.64e-4 -0.33102-0.27171-0.60386-0.60274-0.60386zm-3.7661 0.06947c-0.44739 0-0.81513 0.36774-0.81513 0.81514v5.65e-4c0 0.44683 0.36774 0.81513 0.81513 0.81513s0.81513-0.36831 0.81513-0.81513v-5.65e-4c0-0.44739-0.36774-0.81514-0.81513-0.81514zm5.1998 0.42367c-0.28753-5.66e-4 -0.52478 0.23556-0.52535 0.52365v5.63e-4c0 0.28809 0.23725 0.52478 0.52478 0.52478h5.66e-4c0.28809 0 0.52478-0.23725 0.52478-0.52534-5.65e-4 -0.28753-0.23725-0.52365-0.52478-0.52365zm4.1853 0.56941c-0.3186 0.01473-0.60839 0.19149-0.76825 0.46773-0.25702 0.44626-0.10169 1.0247 0.34402 1.2817 0.4457 0.25703 1.0241 0.10225 1.2817-0.34289 0.08248-0.14292 0.12541-0.30504 0.12541-0.46999 0-0.33498-0.17906-0.6451-0.46886-0.81287-0.1559-0.08982-0.33441-0.13276-0.51405-0.1237zm-3.0939 0.0983h-0.0011c-0.24912 0-0.45417 0.20505-0.45473 0.45417v0.0011c0 0.24912 0.20562 0.45417 0.45473 0.45417h0.0011c0.24912 0 0.45417-0.20505 0.45417-0.45417v-0.0011c0-0.24912-0.20505-0.45417-0.45417-0.45417zm5.4794 0.23782c-0.3186 0.01516-0.60782 0.19262-0.76712 0.46886-0.25759 0.44513-0.1028 1.0236 0.34232 1.2812 0.14292 0.08248 0.30504 0.12596 0.47055 0.12596 0.33442 0 0.64454-0.17906 0.81231-0.46942 0.25702-0.4457 0.10169-1.0241-0.34402-1.2812-0.15592-0.09037-0.33442-0.13389-0.51405-0.12541zm-9.4302 0.43101c-0.3796 5.66e-4 -0.69142 0.31295-0.69142 0.69199 5.63e-4 0.3796 0.31182 0.69086 0.69142 0.69142 0.37904 0 0.69142-0.31182 0.69199-0.69142 0-0.3796-0.31238-0.69199-0.69199-0.69199zm4.7597 0.12257h-5.66e-4c-0.2107 0-0.38356 0.17398-0.38356 0.38469 0 0.21126 0.17285 0.38469 0.38356 0.38469h5.66e-4c0.2107 0 0.38412-0.17343 0.38412-0.38469 0-0.2107-0.17343-0.38469-0.38412-0.38469zm-3.0182 0.05367c-0.33102 5.66e-4 -0.6033 0.27341-0.60274 0.60387 0 0.33102 0.27228 0.60274 0.60274 0.6033 0.33102 0 0.60387-0.27171 0.60443-0.6033v-5.66e-4c0-0.33102-0.27284-0.6033-0.60386-0.6033zm-3.765 0.07005c-0.44739 0-0.81513 0.36774-0.81513 0.81514 0 0.44683 0.36774 0.81457 0.81513 0.81457 0.44739 0 0.8157-0.36774 0.8157-0.81457 0-0.44796-0.36831-0.8157-0.8157-0.8157zm5.1992 0.4231c-0.28809 5.66e-4 -0.52365 0.23669-0.52422 0.52422-5.65e-4 0.28809 0.23612 0.52534 0.52422 0.52534 0.28809 0 0.52535-0.23669 0.52535-0.52478v-5.63e-4c-5.65e-4 -0.28809-0.23782-0.52422-0.52535-0.52422zm-7.4159 0.38751c-0.51518 0-0.93828 0.42367-0.93828 0.93772 0 0.51461 0.4231 0.93828 0.93828 0.93828 0.51461 0 0.93828-0.42367 0.93828-0.93828 0-0.51405-0.42367-0.93772-0.93828-0.93772zm8.5067 0.28075c-0.24912 0-0.45417 0.20505-0.45417 0.45417 0 0.24912 0.20505 0.45417 0.45417 0.45417 0.24912 0 0.45417-0.20505 0.45417-0.45417 0-0.24912-0.20505-0.45417-0.45417-0.45417zm2.4832 0.40503c-0.2768 0.01238-0.52874 0.16608-0.6677 0.40615-0.07118 0.12428-0.10904 0.26493-0.10904 0.40785 0 0.29148 0.15592 0.56093 0.40785 0.70668 0.38751 0.22313 0.8897 0.08756 1.1128-0.29939 0.2237-0.38695 0.08982-0.88857-0.29713-1.1128-0.13557-0.07795-0.29035-0.11636-0.44683-0.10846zm2.3855 0.33611c-0.27679 0.01302-0.52817 0.16664-0.66657 0.40672-0.07174 0.1237-0.10959 0.26493-0.10959 0.40841 0 0.29092 0.15534 0.56037 0.40728 0.70555 0.1237 0.07174 0.26437 0.10959 0.40785 0.10959 0.29092 0 0.56093-0.15592 0.70611-0.40841 0.22313-0.38751 0.08811-0.8897-0.29883-1.1128-0.13557-0.07853-0.29035-0.11636-0.44626-0.10901zm-8.2338 0.15703c-0.3796-5.66e-4 -0.69142 0.31125-0.69255 0.69086v5.66e-4c0 0.3796 0.31295 0.69199 0.69255 0.69199h5.63e-4c0.3796 0 0.69199-0.31238 0.69199-0.69199v-5.66e-4c-5.65e-4 -0.3796-0.31295-0.69142-0.69255-0.69086zm1.7421 0.17456c-0.33215 0-0.60443 0.27284-0.60443 0.60387v5.63e-4c0 0.33159 0.27228 0.60443 0.60443 0.60443 0.33102-5.64e-4 0.6033-0.27341 0.6033-0.60443s-0.27228-0.60386-0.6033-0.60443zm-3.7661 0.07118c-0.44739 0-0.81513 0.36831-0.81513 0.81513v5.66e-4c0 0.44682 0.36774 0.81457 0.81513 0.81457h5.64e-4c0.44683 0 0.81513-0.36774 0.81513-0.81457v-5.66e-4c0-0.44683-0.36831-0.81513-0.81513-0.81513zm12.154 0.32594c-0.2768 0.01302-0.5293 0.16608-0.6677 0.40672-0.07174 0.1237-0.10904 0.26437-0.10904 0.40785 0 0.29092 0.15592 0.56094 0.40785 0.70611 0.38751 0.22313 0.8897 0.08811 1.1128-0.29883 0.2237-0.38695 0.08924-0.88913-0.29713-1.1134-0.13557-0.07795-0.29035-0.1158-0.44683-0.10846zm-6.9538 0.09603c-0.28809 0-0.52534 0.23669-0.52534 0.52478v5.66e-4c5.63e-4 0.28809 0.23725 0.52422 0.52534 0.52422 0.28753-5.63e-4 0.52365-0.23725 0.52422-0.52422 5.63e-4 -0.28753-0.23612-0.52535-0.52422-0.52535zm-7.417 0.38638c-0.51405 0-0.93771 0.42367-0.93771 0.93885 0 0.51461 0.42367 0.93771 0.93771 0.93828 0.51462-5.65e-4 0.93828-0.42367 0.93828-0.93828 0-0.51518-0.42366-0.93885-0.93828-0.93885zm9.4037 0.51292c-0.23499 0.01068-0.44909 0.14123-0.56658 0.34514-0.1898 0.32877-0.07513 0.75526 0.25364 0.94506 0.32876 0.18925 0.75469 0.07455 0.94449-0.25364 0.1898-0.3282 0.07569-0.75412-0.25251-0.94449-0.11467-0.06665-0.24629-0.0983-0.37904-0.09208zm2.3855 0.33611c-0.23499 0.01196-0.44852 0.14236-0.56602 0.34571-0.1898 0.32877-0.07569 0.75469 0.2525 0.94506 0.10506 0.06044 0.22482 0.09264 0.34628 0.09264 0.24742 0 0.4762-0.13276 0.59991-0.34628 0.18925-0.32876 0.07456-0.75526-0.25364-0.94506-0.11523-0.0661-0.24686-0.0983-0.37904-0.09151zm-7.4599 0.54851c-0.08813 0.0023-0.17456 0.02654-0.25081 0.07118-0.24912 0.14405-0.33554 0.46773-0.19149 0.71684 0.14405 0.24912 0.46773 0.33554 0.71684 0.19149 0.24912-0.14405 0.33554-0.46773 0.19149-0.71684-0.09548-0.16608-0.27454-0.26663-0.46603-0.26267zm-6.6019 0.09659c-0.60104 5.65e-4 -1.0959 0.49541-1.0959 1.097v0.0011c5.64e-4 0.60104 0.49484 1.0959 1.0959 1.0959h0.0011c0.6016 0 1.0964-0.49484 1.0964-1.0959v-0.0011c0-0.6016-0.49484-1.097-1.0964-1.097zm15.958 0.08361c-0.235 0.01068-0.44909 0.14121-0.56715 0.34515-0.18925 0.32877-0.07456 0.75526 0.2542 0.94449 0.32876 0.18925 0.75469 0.07513 0.94449-0.25307 0.18925-0.3282 0.07569-0.75469-0.2525-0.94506-0.11467-0.0661-0.24629-0.0983-0.37904-0.09151zm-5.2247 0.48637c-0.20505 0.01025-0.39203 0.1237-0.49428 0.30165-0.0531 0.09151-0.08134 0.19602-0.08134 0.30222 0 0.21579 0.11523 0.41576 0.30278 0.52309 0.09151 0.05367 0.19602 0.08134 0.30222 0.08134 0.21522 0 0.41519-0.11523 0.52309-0.30222 0.0531-0.09208 0.08134-0.19602 0.08134-0.30278 0-0.21522-0.1158-0.41519-0.30278-0.52309-0.09998-0.05818-0.21522-0.08587-0.33102-0.08021zm-5.641 0.05818c-0.07682 0.0017-0.15139 0.02259-0.21805 0.06044-0.1401 0.08134-0.22652 0.23161-0.22652 0.39373 0 0.08021 0.02092 0.15874 0.06102 0.22822 0.08134 0.1401 0.23104 0.22652 0.39373 0.22652 0.07966 0 0.15816-0.02146 0.22765-0.06102 0.21466-0.12484 0.28979-0.40446 0.16551-0.62025-0.08303-0.14405-0.23782-0.2316-0.40333-0.22765zm8.0276 0.27962c-0.20505 9e-3 -0.39147 0.12257-0.49484 0.29995-0.0531 0.09208-0.08134 0.19657-0.08134 0.30278 0 0.21579 0.11523 0.41519 0.30165 0.52309 0.09151 0.0531 0.19602 0.08134 0.30222 0.08134 0.21579 0 0.41576-0.1158 0.52309-0.30278 0.16551-0.2864 0.06552-0.65866-0.22087-0.82417-0.09998-0.05762-0.21466-0.08587-0.3299-0.08021zm-9.3856 0.0062c-0.06384 0.0017-0.12654 0.01985-0.18246 0.05197-0.18246 0.10506-0.24573 0.34176-0.14065 0.52422 0.06779 0.11862 0.19488 0.19262 0.33272 0.19262 0.06723 0 0.13389-0.01815 0.19262-0.05197 0.11807-0.06834 0.19149-0.19546 0.19149-0.33215 0-0.06779-0.01815-0.13444-0.05197-0.1932-0.07005-0.12088-0.20167-0.19488-0.34176-0.19149zm3.2255 0.35984c-0.10167 0.0023-0.2011 0.02938-0.28922 0.08021-0.18698 0.1079-0.30222 0.30786-0.30222 0.52365 0 0.10564 0.02825 0.21013 0.08134 0.30165 0.1079 0.18641 0.3073 0.30165 0.52252 0.30165 0.1062 0 0.21126-0.02767 0.30278-0.08077 0.2864-0.16608 0.38638-0.53778 0.22144-0.82474-0.11015-0.19093-0.31634-0.30674-0.53664-0.30165zm8.0547 0.36209c-0.20505 0.0096-0.39147 0.12315-0.49484 0.30052-0.05254 0.09208-0.08079 0.19602-0.08079 0.30222 0 0.21579 0.11523 0.41576 0.30278 0.52365 0.09151 0.05254 0.19602 0.08134 0.30165 0.08134 0.21578 0 0.41576-0.1158 0.52365-0.30278 0.16495-0.28696 0.06552-0.65866-0.22144-0.82417-0.10056-0.05818-0.21579-0.08587-0.33102-0.08079zm-5.3529 0.04802c-0.17851 9e-3 -0.34063 0.1079-0.42932 0.26324-0.04633 0.07966-0.0706 0.16948-0.0706 0.26154 0 0.18754 0.10056 0.36153 0.26324 0.4553 0.07966 0.04575 0.17003 0.06947 0.26154 0.06947 0.18812 0 0.36153-0.09998 0.4553-0.26267 0.04633-0.07966 0.07005-0.17003 0.07005-0.26211 0-0.18754-0.10056-0.36153-0.26267-0.45474-0.08756-0.05028-0.18698-0.07456-0.28753-0.07005zm-4.544 0.11749c-0.08813 0.0023-0.17456 0.02656-0.25081 0.07005-0.24912 0.1446-0.33554 0.46829-0.19149 0.71741 0.14405 0.24912 0.46773 0.33554 0.71684 0.19149 0.24912-0.14405 0.33554-0.46773 0.19149-0.71684-0.09603-0.16551-0.27454-0.26606-0.46603-0.26211zm-1.6048 0.10393c-0.07626 0.0017-0.15026 0.02316-0.21579 0.06044-0.14123 0.08134-0.22822 0.23217-0.22822 0.39429 0 0.08021 0.02092 0.15816 0.06102 0.22765 0.08134 0.1401 0.2316 0.22652 0.39316 0.22652 0.08021 0 0.15929-0.02146 0.22822-0.06102 0.1401-0.08134 0.22652-0.2316 0.22652-0.39373 0-0.08021-0.02092-0.15816-0.06102-0.22765-0.08303-0.14347-0.23782-0.23047-0.4039-0.22652zm8.5355 0.11525c-0.17906 0.0085-0.34063 0.10788-0.42988 0.26267-0.14405 0.24912-0.05762 0.5728 0.19149 0.71684 0.07966 0.04633 0.17003 0.07061 0.26211 0.07061 0.18754 0 0.36153-0.10056 0.45474-0.26324 0.14405-0.24912 0.05762-0.5728-0.19149-0.71684-0.087-0.05028-0.18641-0.07456-0.28696-0.07005zm-4.2971 0.71684c-0.1158 0.0028-0.22934 0.03501-0.32989 0.09322-0.32764 0.19038-0.44174 0.61629-0.25251 0.94506 0.1898 0.3282 0.61629 0.44287 0.94506 0.25364 0.21409-0.1237 0.34628-0.35249 0.34628-0.59991 0-0.12146-0.03164-0.24121-0.09264-0.34628-0.12654-0.21918-0.36322-0.35192-0.6163-0.34571zm3.2368 0c-0.15421 0.0073-0.29487 0.09264-0.37283 0.22652-0.03954 0.06947-0.06102 0.14744-0.06102 0.22708 0 0.16269 0.08756 0.31351 0.22821 0.39429 0.21579 0.1237 0.49541 0.04857 0.61968-0.16721 0.04012-0.06947 0.06157-0.14744 0.06157-0.22765 0-0.16213-0.087-0.31238-0.22709-0.39316-0.07569-0.04349-0.16156-0.06384-0.24855-0.05989zm2.9561 0.01196c-0.17851 0.0079-0.34176 0.10733-0.43101 0.26268-0.04575 0.07966-0.07005 0.17003-0.07005 0.26211 0 0.18754 0.10056 0.36096 0.26324 0.45474 0.07966 0.04575 0.16946 0.07005 0.26154 0.07005 0.18754 0 0.36153-0.10056 0.4553-0.26267 0.04575-0.07966 0.07005-0.17059 0.07005-0.26211 0-0.18754-0.10054-0.36153-0.26324-0.4553-0.08643-0.0497-0.18585-0.074-0.28584-0.06947zm-10.405 0.3299c-0.08756 0.0017-0.17343 0.02598-0.24968 0.06947-0.16269 0.09377-0.26268 0.26776-0.26268 0.4553 0 0.09208 0.02372 0.18246 0.06947 0.26211 0.14405 0.24912 0.46773 0.33554 0.71741 0.19149 0.16211-0.09377 0.26267-0.26719 0.26267-0.45473 0-0.09208-0.0243-0.18246-0.07005-0.26211-0.09603-0.16608-0.27567-0.26663-0.46716-0.26154zm1.9347 0.09151c-0.10111 0.0028-0.19996 0.03051-0.28696 0.08079-0.18754 0.10733-0.30278 0.3073-0.30278 0.52309 0 0.1062 0.02825 0.2107 0.08134 0.30278 0.10733 0.18641 0.3073 0.30165 0.52309 0.30165 0.1062 0 0.2107-0.02767 0.30222-0.08079 0.18698-0.10733 0.30278-0.3073 0.30278-0.52309 0-0.1062-0.02825-0.2107-0.08134-0.30278-0.11014-0.19093-0.31747-0.30674-0.53834-0.30165zm7.4091 0.29544c-0.15421 0.0073-0.29431 0.09264-0.37113 0.22652-0.0401 0.06947-0.06102 0.14744-0.06102 0.22765 0 0.16213 0.08643 0.31238 0.22652 0.39373 0.06892 0.03954 0.14744 0.06044 0.22765 0.06044 0.16211 0 0.31238-0.087 0.39316-0.22765 0.04067-0.06947 0.06157-0.14744 0.06157-0.22765 0-0.16213-0.08642-0.31238-0.22709-0.39373-0.07513-0.04293-0.16213-0.06384-0.24968-0.05931zm-1.0258 0.41011c-0.13049 0.0062-0.24968 0.07853-0.31464 0.19149-0.10506 0.18246-0.04125 0.41915 0.14066 0.52422 0.05931 0.03446 0.12541 0.05197 0.1932 0.05197 0.13726 0 0.26437-0.07344 0.33215-0.19149 0.03388-0.05818 0.05197-0.12483 0.05197-0.19262 0-0.13726-0.07342-0.26437-0.19262-0.33328-0.06439-0.03615-0.13726-0.05423-0.2107-0.05028zm-2.7764 0.3056c-0.13615 0.0034-0.27002 0.04123-0.38808 0.11015-0.38695 0.22313-0.52196 0.72588-0.29882 1.1128 0.14518 0.25194 0.41519 0.40841 0.70611 0.40841 0.14347 0 0.28414-0.03785 0.40785-0.10959 0.2525-0.14518 0.40785-0.41463 0.40785-0.70611 0-0.14292-0.03841-0.28414-0.10959-0.40842-0.14913-0.25759-0.42762-0.41406-0.72532-0.40728zm-5.1845 0.26663c-0.10111 0.0017-0.20054 0.02938-0.28809 0.08021-0.18698 0.10788-0.30278 0.30786-0.30278 0.52309 0 0.10677 0.02825 0.2107 0.08077 0.30278 0.10846 0.18698 0.30843 0.30222 0.52365 0.30222 0.1062 0 0.21015-0.02825 0.30222-0.08134 0.18698-0.10733 0.30278-0.3073 0.30278-0.52309 0-0.1062-0.02825-0.2107-0.08134-0.30222-0.11014-0.19093-0.3169-0.30673-0.53721-0.30165zm2.3708 0.18754c-0.11523 0.0023-0.22878 0.03446-0.32989 0.09208-0.21353 0.1237-0.34571 0.35249-0.34571 0.59878 0 0.12202 0.0322 0.24177 0.09377 0.34684 0.1898 0.32877 0.61573 0.44231 0.9445 0.25251 0.32876-0.1898 0.44287-0.61573 0.25364-0.94449-0.12654-0.21918-0.36322-0.35193-0.61629-0.34571zm4.7264 0.87614c-0.15648 0.0041-0.31012 0.04688-0.44626 0.12596-0.29035 0.16664-0.46999 0.4779-0.46999 0.81288 0 0.16495 0.04349 0.3265 0.12597 0.46942 0.16721 0.28979 0.47733 0.46886 0.81231 0.46886 0.16495 0 0.32707-0.04349 0.46999-0.12596 0.44513-0.25759 0.59991-0.83547 0.34289-1.2812-0.17116-0.29713-0.49202-0.4779-0.8349-0.46999zm-6.3047 0.39994c-0.11636 0.0028-0.22991 0.03502-0.32989 0.09322-0.32877 0.19036-0.44231 0.61629-0.25251 0.94449 0.1898 0.32876 0.61573 0.44344 0.94449 0.2542 0.3282-0.1898 0.44344-0.61629 0.25364-0.94506-0.12597-0.21918-0.36266-0.35306-0.61573-0.34684zm2.9075 0.16835c-0.13615 0.0034-0.27002 0.04067-0.38808 0.10846-0.38695 0.2237-0.52196 0.72588-0.29882 1.1134 0.14518 0.25251 0.41519 0.40842 0.70667 0.40842 0.14292 0 0.28357-0.03785 0.40728-0.10959 0.25194-0.14574 0.40785-0.41519 0.40785-0.70555 0-0.14405-0.03785-0.2847-0.11014-0.40841-0.14913-0.25759-0.42706-0.4135-0.72475-0.40672zm5.9613 0.41519c-0.18359 0.0051-0.36266 0.05591-0.52196 0.14744-0.52026 0.30109-0.70159 0.97669-0.40107 1.4975 0.30109 0.52082 0.97669 0.70159 1.4975 0.40107 0.52026-0.30052 0.70159-0.97669 0.40164-1.497-0.20054-0.34741-0.57562-0.55811-0.97613-0.54907zm-7.5396 0.86202c-0.1367 0.0034-0.27058 0.04067-0.38864 0.10901-0.38751 0.22313-0.52196 0.72532-0.29883 1.1128 0.14518 0.25251 0.41519 0.40842 0.70611 0.40842 0.14347 0 0.28414-0.03785 0.40842-0.10959 0.25138-0.14574 0.40672-0.41519 0.40672-0.70554 0-0.14347-0.03728-0.2847-0.10959-0.40842-0.14858-0.25759-0.42762-0.4135-0.72419-0.40672zm3.491 0.0531c-0.15648 0.0041-0.31012 0.04744-0.44626 0.12541-0.4457 0.25759-0.60104 0.83547-0.34402 1.2812 0.16721 0.29092 0.47789 0.47055 0.81287 0.47055 0.16495 0 0.32651-0.04349 0.46942-0.12597 0.28979-0.16777 0.46886-0.47789 0.46886-0.81231 0-0.16551-0.04293-0.32707-0.12541-0.47055-0.17172-0.29657-0.49258-0.47677-0.83547-0.46829z" fill="#fff" stroke-width=".56489"/>
 </g>
</svg>
