<?xml version="1.0" encoding="UTF-8"?>
<svg id="svg1443" width="128" height="128" version="1.1" viewBox="0 0 33.867 33.867" xmlns="http://www.w3.org/2000/svg" xmlns:cc="http://creativecommons.org/ns#" xmlns:dc="http://purl.org/dc/elements/1.1/" xmlns:rdf="http://www.w3.org/1999/02/22-rdf-syntax-ns#" xmlns:xlink="http://www.w3.org/1999/xlink">
 <defs id="defs1437">
  <linearGradient id="linearGradient1632" x1="132.21" x2="132.21" y1="42.152" y2="70.68" gradientTransform="matrix(.97573 0 0 .97573 -111.77 -37.183)" gradientUnits="userSpaceOnUse">
   <stop id="stop1626" stop-color="#fafafc" offset="0"/>
   <stop id="stop1628" stop-color="#e2e6ea" offset="1"/>
  </linearGradient>
 </defs>
 <metadata id="metadata1440">
  <rdf:RDF>
   <cc:Work rdf:about="">
    <dc:format>image/svg+xml</dc:format>
    <dc:type rdf:resource="http://purl.org/dc/dcmitype/StillImage"/>
    <dc:title/>
   </cc:Work>
  </rdf:RDF>
 </metadata>
 <g id="layer1">
  <g id="g1702" transform="matrix(.97573 0 0 .97573 -65.737 -37.183)" fill="none" opacity=".295" stroke="#000" stroke-linecap="round" stroke-linejoin="round" stroke-opacity=".02">
   <rect id="rect1634" x="69.84" y="40.71" width="29.811" height="29.811" rx="6.6099" ry="6.6099" stroke-width=".1"/>
   <rect id="rect1638" x="69.84" y="40.71" width="29.811" height="29.811" rx="6.6099" ry="6.6099" stroke-width=".2"/>
   <rect id="rect1640" x="69.84" y="40.71" width="29.811" height="29.811" rx="6.6099" ry="6.6099" stroke-width=".3"/>
   <rect id="rect1642" x="69.84" y="40.71" width="29.811" height="29.811" rx="6.6099" ry="6.6099" stroke-width=".4"/>
   <rect id="rect1644" x="69.84" y="40.71" width="29.811" height="29.811" rx="6.6099" ry="6.6099" stroke-width=".5"/>
   <rect id="rect1646" x="69.84" y="40.71" width="29.811" height="29.811" rx="6.6099" ry="6.6099" stroke-width=".6"/>
   <rect id="rect1648" x="69.84" y="40.71" width="29.811" height="29.811" rx="6.6099" ry="6.6099" stroke-width=".7"/>
   <rect id="rect1650" x="69.84" y="40.71" width="29.811" height="29.811" rx="6.6099" ry="6.6099" stroke-width=".8"/>
   <rect id="rect1652" x="69.84" y="40.71" width="29.811" height="29.811" rx="6.6099" ry="6.6099"/>
   <rect id="rect1654" x="69.84" y="40.71" width="29.811" height="29.811" rx="6.6099" ry="6.6099" stroke-width="1.2"/>
   <rect id="rect1656" x="69.84" y="40.71" width="29.811" height="29.811" rx="6.6099" ry="6.6099" stroke-width="1.4"/>
   <rect id="rect1658" x="69.84" y="40.71" width="29.811" height="29.811" rx="6.6099" ry="6.6099" stroke-width="1.6"/>
   <rect id="rect1660" x="69.84" y="40.71" width="29.811" height="29.811" rx="6.6099" ry="6.6099" stroke-width="1.8"/>
   <rect id="rect1662" x="69.84" y="40.71" width="29.811" height="29.811" rx="6.6099" ry="6.6099" stroke-width="2"/>
   <rect id="rect1664" x="69.84" y="40.71" width="29.811" height="29.811" rx="6.6099" ry="6.6099" stroke-width="2.2"/>
   <rect id="rect1666" x="69.84" y="40.71" width="29.811" height="29.811" rx="6.6099" ry="6.6099" stroke-width="2.6"/>
   <rect id="rect1668" x="69.84" y="40.71" width="29.811" height="29.811" rx="6.6099" ry="6.6099" stroke-width="3"/>
   <rect id="rect1670" x="69.84" y="40.71" width="29.811" height="29.811" rx="6.6099" ry="6.6099" stroke-width="3.4"/>
   <rect id="rect1672" x="69.84" y="40.71" width="29.811" height="29.811" rx="6.6099" ry="6.6099" stroke-width="3.8"/>
   <rect id="rect1674" x="69.84" y="40.71" width="29.811" height="29.811" rx="6.6099" ry="6.6099" stroke-width="4.2"/>
   <rect id="rect1676" x="69.84" y="40.71" width="29.811" height="29.811" rx="6.6099" ry="6.6099" stroke-width="4.6"/>
   <rect id="rect1678" x="69.84" y="40.71" width="29.811" height="29.811" rx="6.6099" ry="6.6099" stroke-width="5"/>
  </g>
  <rect id="rect849" x="2.4074" y="2.5392" width="29.087" height="29.087" rx="6.4495" ry="6.4495" fill="url(#linearGradient1632)" stroke-linecap="round" stroke-linejoin="round" stroke-width="2.6877"/>
  <path id="path2" d="m19.625 18.723-1.1701 0.6747v5.1256l1.1701 0.67774 1.1701 0.6747 1.1701-0.6747v-1.3191l-1.1701-0.67622v-3.8081zm-3.8902 2.5727-1.1701 0.6747v5.1257l1.1701 0.6777 1.1701 0.6747 1.1701-0.6747v-1.3176l-1.1701-0.67774v-3.8081z" opacity=".2" stroke-width=".38902"/>
  <path id="path4" d="m19.625 22.143-1.1702 0.67536v1.3172l1.1702 0.6765 1.1702 0.67536 1.1702-0.67536v-1.3172l-1.1702-0.6765z" fill="#ba2c00" stroke-width=".38902"/>
  <path id="path6" d="m19.625 22.142-1.1702 0.67536 1.1702 0.6765 1.1702 0.67536 1.1702-0.67536-1.1702-0.6765z" fill="#ff7900" stroke-width=".38902"/>
  <path id="path8" d="m19.625 18.334 1.1702 0.67559v3.8087l-1.1702 0.67559-1.1702-0.67559v-3.8087z" fill="#ff4200" stroke-width=".38902"/>
  <path id="path10" d="m20.795 25.487 1.1702-0.67536v-1.3176l-1.1702 0.67536z" fill="#ff4200" stroke-width=".38902"/>
  <path id="path12" d="m19.625 18.334v5.1599l-1.1702-0.67559v-3.8087z" fill="#ba2c00" stroke-width=".38902"/>
  <path id="path14" d="m15.735 24.715-1.1702 0.67536v1.3172l1.1702 0.6765 1.1702 0.67536 1.1702-0.67536v-1.3172l-1.1702-0.6765z" fill="#ba2c00" stroke-width=".38902"/>
  <path id="path16" d="m16.905 28.06 1.1702-0.67536v-1.3176l-1.1702 0.67536z" fill="#ff4200" stroke-width=".38902"/>
  <path id="path18" d="m15.735 24.715-1.1702 0.67536 1.1702 0.6765 1.1702 0.67536 1.1702-0.67536-1.1702-0.6765z" fill="#ff7900" stroke-width=".38902"/>
  <path id="path20" d="m15.735 20.906 1.1702 0.67559v3.8087l-1.1702 0.67559-1.1702-0.67559v-3.8087z" fill="#ff4200" stroke-width=".38902"/>
  <path id="path22" d="m15.735 20.906v5.1599l-1.1702-0.67559v-3.8087z" fill="#ba2c00" stroke-width=".38902"/>
  <path id="path24" d="m16.121 9.9844 6.2243 3.5936v7.1872l-6.2243 3.5936-6.2243-3.5936v-7.1872z" opacity=".2" stroke-width=".38902"/>
  <path id="path26" d="m16.121 9.5954 6.2243 3.5936v7.1872l-6.2243 3.5936-6.2243-3.5936v-7.1872z" fill="#ffce00" stroke-width=".38902"/>
  <path id="path28" d="m9.8963 13.189v7.1877l6.2243 3.5933v-7.1867z" fill="#ff6700" stroke-width=".38902"/>
  <path id="path30" d="m16.121 9.5952-6.2243 3.5933 6.2243 3.5944 6.2243-3.5944z" fill="#ffc200" stroke-width=".38902"/>
  <path id="path32" d="m20.011 7.2507 5.4462 3.1444v6.2888l-5.4462 3.1444-5.4462-3.1444 1e-6 -6.2888z" opacity=".2" stroke-width=".38902"/>
  <path id="path34" d="m20.011 6.4726 5.4462 3.1444v6.2888l-5.4462 3.1444-5.4462-3.1444 1e-6 -6.2888z" fill="#ff9e02" stroke-width=".38902"/>
  <path id="path36" d="m20.789 14.151 1.167-0.70023v1.5755l-1.167 0.70023z" fill="#3f3f3f" stroke-width=".38902"/>
  <path id="path38" d="m14.564 9.6165v6.2887l5.4462 3.1454v-6.2898z" fill="#ff6700" stroke-width=".38902"/>
  <path id="path40" d="m20.011 6.4722-5.4462 3.1443 5.4462 3.1443 5.4462-3.1443z" fill="#ffc200" stroke-width=".38902"/>
  <path id="path42" d="m23.512 12.694 1.167-0.70023v1.5755l-1.167 0.70023z" fill="#3f3f3f" stroke-width=".38902"/>
  <path id="path44" d="m24.29 16.23-3.1121 0.51818v1.0379l3.1121 1.5561 3.1121-1.5561v-1.0379z" opacity=".2" stroke-width=".38902"/>
  <path id="path46" d="m24.29 15.84v3.1121l-3.1121-1.5561-4e-6 -1.0374z" fill="#ba2c00" stroke-width=".38902"/>
  <path id="path48" d="m24.29 15.84v3.1121l3.1121-1.5561 5e-6 -1.0374z" fill="#ff7900" stroke-width=".38902"/>
  <rect id="rect50" transform="matrix(.89443 .44721 -.89443 .44721 0 0)" x="30.13" y="2.9729" width="3.4794" height="3.4794" fill="#ff4200" stroke-width=".38902"/>
  <path id="path52" d="m11.841 7.9566 1.9451 1.123v2.246l-1.9451 1.123-1.9451-1.123v-2.246z" opacity=".2" stroke-width=".38902"/>
  <path id="path54" d="m11.841 7.5676 1.9451 1.123v2.246l-1.9451 1.123-1.9451-1.123v-2.246z" fill="#ff9e02" stroke-width=".38902"/>
  <path id="path56" d="m9.8963 8.6905v2.2462l1.9451 1.1226v-2.2452z" fill="#ff6700" stroke-width=".38902"/>
  <path id="path58" d="m11.841 7.5679-1.9451 1.1226 1.9451 1.1236 1.9451-1.1236z" fill="#ffc200" stroke-width=".38902"/>
  <path id="path60" d="m20.011 6.4724-5.4462 3.144 0.33659 0.19451 5.1096-2.9495 5.1096 2.9495 0.33659-0.19451z" fill="#fff" opacity=".2" stroke-width=".38902"/>
  <path id="path62" d="m11.841 7.5681-1.9451 1.1222 0.33659 0.19451 1.6085-0.92771 1.6085 0.92771 0.33659-0.19451z" fill="#fff" opacity=".2" stroke-width=".38902"/>
 </g>
</svg>
