<?xml version="1.0" encoding="UTF-8"?>
<svg id="svg1443" width="128" height="128" version="1.1" viewBox="0 0 33.867 33.867" xmlns="http://www.w3.org/2000/svg" xmlns:cc="http://creativecommons.org/ns#" xmlns:dc="http://purl.org/dc/elements/1.1/" xmlns:rdf="http://www.w3.org/1999/02/22-rdf-syntax-ns#" xmlns:xlink="http://www.w3.org/1999/xlink">
 <defs id="defs1437">
  <linearGradient id="linearGradient1632" x1="132.21" x2="132.21" y1="42.152" y2="70.68" gradientTransform="matrix(.97573 0 0 .97573 -111.77 -37.183)" gradientUnits="userSpaceOnUse">
   <stop id="stop1626" stop-color="#282635" offset="0"/>
   <stop id="stop1628" stop-color="#1e2429" offset="1"/>
  </linearGradient>
 </defs>
 <metadata id="metadata1440">
  <rdf:RDF>
   <cc:Work rdf:about="">
    <dc:format>image/svg+xml</dc:format>
    <dc:type rdf:resource="http://purl.org/dc/dcmitype/StillImage"/>
   </cc:Work>
  </rdf:RDF>
 </metadata>
 <g id="layer1">
  <g id="g1702" transform="matrix(.97573 0 0 .97573 -65.737 -37.183)" fill="none" opacity=".295" stroke="#000" stroke-linecap="round" stroke-linejoin="round" stroke-opacity=".02">
   <rect id="rect1634" x="69.84" y="40.71" width="29.811" height="29.811" rx="6.6099" ry="6.6099" stroke-width=".1"/>
   <rect id="rect1638" x="69.84" y="40.71" width="29.811" height="29.811" rx="6.6099" ry="6.6099" stroke-width=".2"/>
   <rect id="rect1640" x="69.84" y="40.71" width="29.811" height="29.811" rx="6.6099" ry="6.6099" stroke-width=".3"/>
   <rect id="rect1642" x="69.84" y="40.71" width="29.811" height="29.811" rx="6.6099" ry="6.6099" stroke-width=".4"/>
   <rect id="rect1644" x="69.84" y="40.71" width="29.811" height="29.811" rx="6.6099" ry="6.6099" stroke-width=".5"/>
   <rect id="rect1646" x="69.84" y="40.71" width="29.811" height="29.811" rx="6.6099" ry="6.6099" stroke-width=".6"/>
   <rect id="rect1648" x="69.84" y="40.71" width="29.811" height="29.811" rx="6.6099" ry="6.6099" stroke-width=".7"/>
   <rect id="rect1650" x="69.84" y="40.71" width="29.811" height="29.811" rx="6.6099" ry="6.6099" stroke-width=".8"/>
   <rect id="rect1652" x="69.84" y="40.71" width="29.811" height="29.811" rx="6.6099" ry="6.6099"/>
   <rect id="rect1654" x="69.84" y="40.71" width="29.811" height="29.811" rx="6.6099" ry="6.6099" stroke-width="1.2"/>
   <rect id="rect1656" x="69.84" y="40.71" width="29.811" height="29.811" rx="6.6099" ry="6.6099" stroke-width="1.4"/>
   <rect id="rect1658" x="69.84" y="40.71" width="29.811" height="29.811" rx="6.6099" ry="6.6099" stroke-width="1.6"/>
   <rect id="rect1660" x="69.84" y="40.71" width="29.811" height="29.811" rx="6.6099" ry="6.6099" stroke-width="1.8"/>
   <rect id="rect1662" x="69.84" y="40.71" width="29.811" height="29.811" rx="6.6099" ry="6.6099" stroke-width="2"/>
   <rect id="rect1664" x="69.84" y="40.71" width="29.811" height="29.811" rx="6.6099" ry="6.6099" stroke-width="2.2"/>
   <rect id="rect1666" x="69.84" y="40.71" width="29.811" height="29.811" rx="6.6099" ry="6.6099" stroke-width="2.6"/>
   <rect id="rect1668" x="69.84" y="40.71" width="29.811" height="29.811" rx="6.6099" ry="6.6099" stroke-width="3"/>
   <rect id="rect1670" x="69.84" y="40.71" width="29.811" height="29.811" rx="6.6099" ry="6.6099" stroke-width="3.4"/>
   <rect id="rect1672" x="69.84" y="40.71" width="29.811" height="29.811" rx="6.6099" ry="6.6099" stroke-width="3.8"/>
   <rect id="rect1674" x="69.84" y="40.71" width="29.811" height="29.811" rx="6.6099" ry="6.6099" stroke-width="4.2"/>
   <rect id="rect1676" x="69.84" y="40.71" width="29.811" height="29.811" rx="6.6099" ry="6.6099" stroke-width="4.6"/>
   <rect id="rect1678" x="69.84" y="40.71" width="29.811" height="29.811" rx="6.6099" ry="6.6099" stroke-width="5"/>
  </g>
  <rect id="rect849" x="2.4074" y="2.5392" width="29.087" height="29.087" rx="6.4495" ry="6.4495" fill="url(#linearGradient1632)" stroke-linecap="round" stroke-linejoin="round" stroke-width="2.6877"/>
  <path id="path2" d="m17.233 5.0258v0.00124a2.8487 2.8603 0 0 0-1.4916 0.38079l-8.3818 4.8595a2.8487 2.8603 0 0 0-1.4246 2.4776v9.719a2.8487 2.8603 0 0 0 1.4246 2.4764l8.3818 4.8595a2.8487 2.8603 0 0 0 2.8492 0l8.3818-4.8595a2.8487 2.8603 0 0 0 1.4246-2.4764v-9.719a2.8487 2.8603 0 0 0-1.4246-2.4776l-8.3818-4.8595a2.8487 2.8603 0 0 0-1.3576-0.38203z" opacity=".2" stroke-width=".44924"/>
  <path id="path4" d="m17.233 4.5766v0.00124a2.8487 2.8603 0 0 0-1.4916 0.38079l-8.3818 4.8595a2.8487 2.8603 0 0 0-1.4246 2.4777v9.719a2.8487 2.8603 0 0 0 1.4246 2.4764l8.3818 4.8595a2.8487 2.8603 0 0 0 2.8492 0l8.3818-4.8595a2.8487 2.8603 0 0 0 1.4246-2.4764v-9.719a2.8487 2.8603 0 0 0-1.4246-2.4777l-8.3818-4.8595a2.8487 2.8603 0 0 0-1.3576-0.38203z" fill="#fff" stroke-width=".44924"/>
  <polygon id="polygon6" transform="matrix(.20964 0 0 .20964 7.7322 6.2642)" points="0 26 0 60.6 30 77.9 60 60.6 45 69.3 30 60.6 30 43.3 45 34.6 60 43.3 60 26 30 8.7" fill="#009741" opacity=".6"/>
  <polygon id="polygon8" transform="matrix(.20964 0 0 .20964 7.7322 6.2642)" points="45 69.3 30 60.6 30 43.3 45 34.6 30 26 0 43.3 0 77.9 30 95.3 60 77.9 60 60.6" fill="#dedc0a" opacity=".6"/>
  <polygon id="polygon10" transform="matrix(.20964 0 0 .20964 7.7322 6.2642)" points="75 52 45 34.6 60 43.3 60 60.6 45 69.3 30 60.6 30 43.3 45 34.6 15 52 15 86.6 45 103.9 75 86.6" fill="#f39208" opacity=".6"/>
  <polygon id="polygon12" transform="matrix(.20964 0 0 .20964 7.7322 6.2642)" points="90 43.3 60 26 45 34.6 60 43.3 60 60.6 45 69.3 30 60.6 30 77.9 60 95.3 90 77.9" fill="#e72174" opacity=".6"/>
  <polygon id="polygon14" transform="matrix(.20964 0 0 .20964 7.7322 6.2642)" points="60 43.3 60 60.6 45 69.3 30 60.6 60 77.9 90 60.6 90 26 60 8.7 30 26 30 43.3 45 34.6" fill="#253887" opacity=".6"/>
  <polygon id="polygon16" transform="matrix(.20964 0 0 .20964 7.7322 6.2642)" points="75 17.3 45 0 15 17.3 15 52 30 60.6 30 43.3 45 34.6 60 43.3 60 60.6 75 52" fill="#3ba9e0" opacity=".6"/>
  <path id="path18" d="m17.233 4.5766v0.0017a2.8487 2.8603 0 0 0-1.4916 0.3808l-8.3811 4.8592a2.8487 2.8603 0 0 0-1.4249 2.4778v0.44924a2.8487 2.8603 0 0 1 1.4249-2.4778l8.3811-4.8591a2.8487 2.8603 0 0 1 1.4916-0.3808v-0.0017a2.8487 2.8603 0 0 1 1.3582 0.38256l8.3811 4.8592a2.8487 2.8603 0 0 1 1.4249 2.4778v-0.4493a2.8487 2.8603 0 0 0-1.4249-2.4778l-8.3811-4.8591a2.8487 2.8603 0 0 0-1.3582-0.38255z" fill="#fff" opacity=".2" stroke-width=".44924"/>
  <path id="path20" d="m17.166 13.517-3.1447 1.825v0.44924l3.1447-1.825 3.1447 1.825v-0.44924zm-9.434 9.0778v0.44924l3.1447 1.825 0.24217 0.13864 2.9025 1.6846 0.0088-0.0052 3.1359 1.8075 3.1359-1.8075 0.0088 0.0052 6.2893-3.6483v-0.44924l-6.2893 3.6483-0.0088-0.0052-3.1359 1.8075-3.1359-1.8075-0.0088 0.0052-2.9025-1.6846-0.24217-0.13863z" opacity=".1" stroke-width=".44924"/>
 </g>
</svg>
