<?xml version="1.0" encoding="UTF-8"?>
<svg id="svg1522" width="128" height="128" version="1.1" viewBox="0 0 33.867 33.867" xmlns="http://www.w3.org/2000/svg" xmlns:cc="http://creativecommons.org/ns#" xmlns:dc="http://purl.org/dc/elements/1.1/" xmlns:rdf="http://www.w3.org/1999/02/22-rdf-syntax-ns#" xmlns:xlink="http://www.w3.org/1999/xlink">
 <defs id="defs1516">
  <linearGradient id="linearGradient4677" x1="17.821" x2="17.821" y1="22.699" y2="4.0044" gradientTransform="translate(.083974 -.0043476)" gradientUnits="userSpaceOnUse">
   <stop id="stop4671" stop-color="#367df8" offset="0"/>
   <stop id="stop4673" stop-color="#aecff6" offset="1"/>
  </linearGradient>
  <linearGradient id="linearGradient1683" x1="65.087" x2="65.087" y1="55.705" y2="117.65" gradientTransform="matrix(.26458 0 0 .26458 .083974 -.0043476)" gradientUnits="userSpaceOnUse">
   <stop id="stop1677" stop-color="#2dcaf8" offset="0"/>
   <stop id="stop1679" stop-color="#1089f7" offset="1"/>
  </linearGradient>
 </defs>
 <metadata id="metadata1519">
  <rdf:RDF>
   <cc:Work rdf:about="">
    <dc:format>image/svg+xml</dc:format>
    <dc:type rdf:resource="http://purl.org/dc/dcmitype/StillImage"/>
    <dc:title/>
   </cc:Work>
  </rdf:RDF>
 </metadata>
 <g id="layer1">
  <g id="g1702" transform="matrix(.97573 0 0 .97573 -65.664 -37.207)" fill="none" opacity=".295" stroke="#000" stroke-linecap="round" stroke-linejoin="round" stroke-opacity=".02">
   <rect id="rect1634" x="69.84" y="40.71" width="29.811" height="29.811" rx="6.6099" ry="6.6099" stroke-width=".1"/>
   <rect id="rect1638" x="69.84" y="40.71" width="29.811" height="29.811" rx="6.6099" ry="6.6099" stroke-width=".2"/>
   <rect id="rect1640" x="69.84" y="40.71" width="29.811" height="29.811" rx="6.6099" ry="6.6099" stroke-width=".3"/>
   <rect id="rect1642" x="69.84" y="40.71" width="29.811" height="29.811" rx="6.6099" ry="6.6099" stroke-width=".4"/>
   <rect id="rect1644" x="69.84" y="40.71" width="29.811" height="29.811" rx="6.6099" ry="6.6099" stroke-width=".5"/>
   <rect id="rect1646" x="69.84" y="40.71" width="29.811" height="29.811" rx="6.6099" ry="6.6099" stroke-width=".6"/>
   <rect id="rect1648" x="69.84" y="40.71" width="29.811" height="29.811" rx="6.6099" ry="6.6099" stroke-width=".7"/>
   <rect id="rect1650" x="69.84" y="40.71" width="29.811" height="29.811" rx="6.6099" ry="6.6099" stroke-width=".8"/>
   <rect id="rect1652" x="69.84" y="40.71" width="29.811" height="29.811" rx="6.6099" ry="6.6099"/>
   <rect id="rect1654" x="69.84" y="40.71" width="29.811" height="29.811" rx="6.6099" ry="6.6099" stroke-width="1.2"/>
   <rect id="rect1656" x="69.84" y="40.71" width="29.811" height="29.811" rx="6.6099" ry="6.6099" stroke-width="1.4"/>
   <rect id="rect1658" x="69.84" y="40.71" width="29.811" height="29.811" rx="6.6099" ry="6.6099" stroke-width="1.6"/>
   <rect id="rect1660" x="69.84" y="40.71" width="29.811" height="29.811" rx="6.6099" ry="6.6099" stroke-width="1.8"/>
   <rect id="rect1662" x="69.84" y="40.71" width="29.811" height="29.811" rx="6.6099" ry="6.6099" stroke-width="2"/>
   <rect id="rect1664" x="69.84" y="40.71" width="29.811" height="29.811" rx="6.6099" ry="6.6099" stroke-width="2.2"/>
   <rect id="rect1666" x="69.84" y="40.71" width="29.811" height="29.811" rx="6.6099" ry="6.6099" stroke-width="2.6"/>
   <rect id="rect1668" x="69.84" y="40.71" width="29.811" height="29.811" rx="6.6099" ry="6.6099" stroke-width="3"/>
   <rect id="rect1670" x="69.84" y="40.71" width="29.811" height="29.811" rx="6.6099" ry="6.6099" stroke-width="3.4"/>
   <rect id="rect1672" x="69.84" y="40.71" width="29.811" height="29.811" rx="6.6099" ry="6.6099" stroke-width="3.8"/>
   <rect id="rect1674" x="69.84" y="40.71" width="29.811" height="29.811" rx="6.6099" ry="6.6099" stroke-width="4.2"/>
   <rect id="rect1676" x="69.84" y="40.71" width="29.811" height="29.811" rx="6.6099" ry="6.6099" stroke-width="4.6"/>
   <rect id="rect1678" x="69.84" y="40.71" width="29.811" height="29.811" rx="6.6099" ry="6.6099" stroke-width="5"/>
  </g>
  <rect id="rect849" x="2.4802" y="2.5142" width="29.087" height="29.087" rx="6.4495" ry="6.4495" fill="url(#linearGradient4677)" stroke-linecap="round" stroke-linejoin="round" stroke-width="2.688"/>
  <path id="path1671" d="m9.9397 14.419c-2.6704-6e-3 -5.2119 0.53036-7.4595 1.2795v9.4542c0 3.573 2.8767 6.4492 6.4497 6.4492h16.188c3.573 0 6.4497-2.8762 6.4497-6.4492v-7.6311c-3.9082 0.34096-9.4459 0.18561-15.379-2.0025-2.1075-0.77724-4.2154-1.0956-6.2492-1.1002z" fill="url(#linearGradient1683)"/>
  <circle id="path1685" cx="25.459" cy="21.352" r="1.8453" fill="#fff" fill-opacity=".60819"/>
  <circle id="circle1687" cx="7.2483" cy="18.541" r="1.2114" fill="#fff" fill-opacity=".60819"/>
  <circle id="circle1689" cx="18.657" cy="26.724" r="2.4925" fill="#fff" fill-opacity=".60819"/>
 </g>
</svg>
