<?xml version="1.0" encoding="UTF-8"?>
<svg id="svg2117" width="128" height="128" version="1.1" viewBox="0 0 33.867 33.867" xmlns="http://www.w3.org/2000/svg" xmlns:cc="http://creativecommons.org/ns#" xmlns:dc="http://purl.org/dc/elements/1.1/" xmlns:rdf="http://www.w3.org/1999/02/22-rdf-syntax-ns#" xmlns:xlink="http://www.w3.org/1999/xlink">
 <defs id="defs2111">
  <linearGradient id="linearGradient912" x1="132.21" x2="132.21" y1="42.152" y2="70.68" gradientTransform="matrix(.97573 0 0 .97573 -111.89 -37.234)" gradientUnits="userSpaceOnUse">
   <stop id="stop1626" stop-color="#fc5d2b" offset="0"/>
   <stop id="stop1628" stop-color="#e82570" offset="1"/>
  </linearGradient>
  <linearGradient id="linearGradient917" x1="11.582" x2="56.218" y1="9.7887" y2="87.102" gradientUnits="userSpaceOnUse">
   <stop id="stop908" stop-color="#fff" offset="0"/>
   <stop id="stop910" stop-color="#ec3063" stop-opacity="0" offset="1"/>
  </linearGradient>
  <linearGradient id="linearGradient927" x1="22.126" x2="27.796" y1="8.4617" y2="17.02" gradientUnits="userSpaceOnUse">
   <stop id="stop921" stop-color="#fff" offset="0"/>
   <stop id="stop923" stop-color="#fff" stop-opacity="0" offset="1"/>
  </linearGradient>
 </defs>
 <metadata id="metadata2114">
  <rdf:RDF>
   <cc:Work rdf:about="">
    <dc:format>image/svg+xml</dc:format>
    <dc:type rdf:resource="http://purl.org/dc/dcmitype/StillImage"/>
    <dc:title/>
   </cc:Work>
  </rdf:RDF>
 </metadata>
 <g id="layer1">
  <g id="g1702" transform="matrix(.97573 0 0 .97573 -65.83 -36.915)" fill="none" opacity=".13962" stroke="#000" stroke-linecap="round" stroke-linejoin="round" stroke-opacity=".02">
   <rect id="rect1634" x="69.84" y="40.71" width="29.811" height="29.811" rx="6.6099" ry="6.6099" stroke-width=".1"/>
   <rect id="rect1638" x="69.84" y="40.71" width="29.811" height="29.811" rx="6.6099" ry="6.6099" stroke-width=".2"/>
   <rect id="rect1640" x="69.84" y="40.71" width="29.811" height="29.811" rx="6.6099" ry="6.6099" stroke-width=".3"/>
   <rect id="rect1642" x="69.84" y="40.71" width="29.811" height="29.811" rx="6.6099" ry="6.6099" stroke-width=".4"/>
   <rect id="rect1644" x="69.84" y="40.71" width="29.811" height="29.811" rx="6.6099" ry="6.6099" stroke-width=".5"/>
   <rect id="rect1646" x="69.84" y="40.71" width="29.811" height="29.811" rx="6.6099" ry="6.6099" stroke-width=".6"/>
   <rect id="rect1648" x="69.84" y="40.71" width="29.811" height="29.811" rx="6.6099" ry="6.6099" stroke-width=".7"/>
   <rect id="rect1650" x="69.84" y="40.71" width="29.811" height="29.811" rx="6.6099" ry="6.6099" stroke-width=".8"/>
   <rect id="rect1652" x="69.84" y="40.71" width="29.811" height="29.811" rx="6.6099" ry="6.6099"/>
   <rect id="rect1654" x="69.84" y="40.71" width="29.811" height="29.811" rx="6.6099" ry="6.6099" stroke-width="1.2"/>
   <rect id="rect1656" x="69.84" y="40.71" width="29.811" height="29.811" rx="6.6099" ry="6.6099" stroke-width="1.4"/>
   <rect id="rect1658" x="69.84" y="40.71" width="29.811" height="29.811" rx="6.6099" ry="6.6099" stroke-width="1.6"/>
   <rect id="rect1660" x="69.84" y="40.71" width="29.811" height="29.811" rx="6.6099" ry="6.6099" stroke-width="1.8"/>
   <rect id="rect1662" x="69.84" y="40.71" width="29.811" height="29.811" rx="6.6099" ry="6.6099" stroke-width="2"/>
   <rect id="rect1664" x="69.84" y="40.71" width="29.811" height="29.811" rx="6.6099" ry="6.6099" stroke-width="2.2"/>
   <rect id="rect1666" x="69.84" y="40.71" width="29.811" height="29.811" rx="6.6099" ry="6.6099" stroke-width="2.6"/>
   <rect id="rect1668" x="69.84" y="40.71" width="29.811" height="29.811" rx="6.6099" ry="6.6099" stroke-width="3"/>
   <rect id="rect1670" x="69.84" y="40.71" width="29.811" height="29.811" rx="6.6099" ry="6.6099" stroke-width="3.4"/>
   <rect id="rect1672" x="69.84" y="40.71" width="29.811" height="29.811" rx="6.6099" ry="6.6099" stroke-width="3.8"/>
   <rect id="rect1674" x="69.84" y="40.71" width="29.811" height="29.811" rx="6.6099" ry="6.6099" stroke-width="4.2"/>
   <rect id="rect1676" x="69.84" y="40.71" width="29.811" height="29.811" rx="6.6099" ry="6.6099" stroke-width="4.6"/>
   <rect id="rect1678" x="69.84" y="40.71" width="29.811" height="29.811" rx="6.6099" ry="6.6099" stroke-width="5"/>
  </g>
  <rect id="rect910" x="2.2835" y="2.4875" width="29.087" height="29.087" rx="6.4495" ry="6.4495" fill="url(#linearGradient912)" stroke-linecap="round" stroke-linejoin="round" stroke-width="2.6877"/>
  <path id="path8" d="m20.117 9.373c-0.98266 0.05511-1.7147 0.77322-2.5692 1.1645-0.7304 0.41325-1.4608 0.82809-2.1989 1.2281-0.88362-0.60929-1.6751-1.3547-2.623-1.8676-0.3746-0.10332-0.76263-0.28538-1.1443-0.10933-0.91014 0.11751-1.3496 0.98598-1.3018 1.8472-0.01601 1.3264-0.01584 2.6529 0 3.9792-0.82206 0.87353-1.7875 1.719-2.5103 2.671-0.5193 0.92032-0.10053 2.2108 0.91492 2.6011 0.75662 0.39274 1.5326 0.74849 2.3014 1.1175 0.40077 1.5301 0.71293 3.0846 1.1609 4.6009 0.47924 1.0723 2.0919 1.3396 2.9075 0.48564 1.0587-1.132 2.2911-3.5063 2.2911-3.5063s3.546 0.65972 4.9654 0.61786c0.84835-0.05597 1.5581-0.72224 1.621-1.5574 0.15929-1.1408-0.84265-1.9479-1.3942-2.8325-0.6839-0.98171-1.4279-1.9223-2.0951-2.9151 0.50415-1.8869 1.1697-3.7351 1.5582-5.6497 0.01171-0.86149-0.58603-1.7406-1.5082-1.8282-0.12402-0.02108-0.24922-0.04365-0.37545-0.04703zm-0.22296 2.1282c-0.36613 1.5485-0.88215 3.133-1.3532 4.8958l-0.22809 0.85178 0.49206 0.73228c0.72305 1.076 1.4739 2.0257 2.113 2.9431l-0.05381-0.0839c0.41549 0.6664 0.81042 1.09 0.98924 1.3616 9e-3 0.01378-0.0014-0.0033 0.0065 9e-3 -0.51353-0.02401-1.3951-0.10016-2.2693-0.23138-1.0258-0.15397-1.8824-0.31274-1.8824-0.31274l-1.4416-0.26825-0.67145 1.2929s-1.0436 1.7632-1.7312 2.6825c-0.32974-1.2257-0.61571-2.4972-0.97258-3.8597l-0.22942-0.8747-0.81881-0.39284c-0.785-0.37678-1.5365-0.72262-2.2322-1.0832 0.5766-0.70973 1.246-1.4158 1.999-2.2159l0.53816-0.57209-9e-3 -0.78313c-0.01481-1.2421-0.01343-2.4835 0-3.725 0.58208 0.37715 1.1914 0.88362 2.0874 1.5014l0.9982 0.68905 1.0687-0.57845c0.7592-0.41143 1.4968-0.83051 2.2219-1.2408-0.0633 0.02971-0.07352 0.03914-0.14352 0.07119l0.1512-0.07629c0.88951-0.41802 1.1912-0.62773 1.3712-0.73232z" fill="url(#linearGradient917)" stroke-width=".45563"/>
  <circle id="circle10" cx="23.949" cy="8.4617" r="1.8225" fill="url(#linearGradient927)" stroke-width=".45563"/>
  <path id="path8-3" transform="scale(.26458)" d="m95.463 27.189a6.8882 6.8882 0 0 1 1.9395 4.791 6.8882 6.8882 0 0 1-6.8887 6.8887 6.8882 6.8882 0 0 1-4.1016-1.3535 6.8882 6.8882 0 0 0 4.9512 2.0977 6.8882 6.8882 0 0 0 6.8887-6.8887 6.8882 6.8882 0 0 0-2.7891-5.5352zm-14.309 10.234c1.2877 1.3343 2.0234 3.2217 1.998 5.0898-1.4682 7.2365-3.9852 14.22-5.8906 21.352 2.5216 3.7524 5.3351 7.3091 7.9199 11.02 2.0845 3.3433 5.8696 6.3932 5.2676 10.705-0.23763 3.1564-2.9187 5.6732-6.125 5.8848-5.3647 0.15822-18.768-2.334-18.768-2.334s-4.6586 8.9737-8.6602 13.252c-2.3269 2.4362-6.3666 2.4553-8.9883 0.57617 2.5091 2.5859 7.2393 2.8867 9.8379 0.16602 4.0015-4.2783 8.6602-13.252 8.6602-13.252 0 0 13.401 2.4942 18.766 2.3359 3.2063-0.21154 5.8893-2.7304 6.127-5.8867 0.60204-4.3118-3.1851-7.3618-5.2695-10.705-2.5848-3.7104-5.3964-7.2652-7.918-11.018 1.9054-7.1317 4.4205-14.117 5.8887-21.354 0.030544-2.2471-1.0365-4.5266-2.8457-5.832zm-5.9648 6.0449c-0.68017 0.39531-1.8197 1.1876-5.1816 2.7676l-0.57226 0.28906c0.26456-0.12113 0.30372-0.15724 0.54297-0.26953-2.7408 1.5507-5.529 3.1344-8.3984 4.6895l-4.0391 2.1875-3.7715-2.6055c-3.3864-2.335-5.6906-4.2484-7.8906-5.6738-0.050759 4.692-0.055975 9.3837 0 14.078l0.035156 2.959-2.0352 2.1621c-2.846 3.0242-5.3754 5.6945-7.5547 8.377 0.33382 0.17301 0.69861 0.3421 1.0391 0.51367 2.137-2.6061 4.5997-5.2078 7.3652-8.1465l2.0332-2.1621-0.033203-2.9609c-0.055975-4.6944-0.050759-9.3861 0-14.078 2.2 1.4254 4.5023 3.3408 7.8887 5.6758l3.7734 2.6035 4.0391-2.1855c2.8694-1.555 5.6557-3.1387 8.3965-4.6895-0.23924 0.11229-0.27647 0.14644-0.54102 0.26758l0.57031-0.28711c2.064-0.96996 3.1598-1.5763 3.957-2.043 0.12226-0.48804 0.26208-0.98289 0.37695-1.4688zm-43.838 34.662c0.63793 0.6648 1.4139 1.2082 2.3203 1.5566 2.6135 1.3566 5.2863 2.5974 7.9453 3.8652-0.033173-0.12795-0.062213-0.2569-0.095704-0.38476-2.9057-1.3946-5.8395-2.7402-8.6992-4.2246-0.53767-0.20667-1.0251-0.48548-1.4707-0.8125zm16.604 0.25977 0.76758 2.9219c1.3488 5.1496 2.4295 9.9552 3.6758 14.588 0.15246-0.20385 0.32176-0.44805 0.48242-0.67188-1.0945-4.1984-2.0958-8.5416-3.3086-13.172l-0.86719-3.3066-0.75-0.35938z" fill="#b60000" fill-opacity=".295" stroke-width="1.7221"/>
  <path id="path974" transform="scale(.26458)" d="m96.596 28.748a6.8882 6.8882 0 0 1 0.80664 3.2324 6.8882 6.8882 0 0 1-6.8887 6.8887 6.8882 6.8882 0 0 1-4.4707-1.6484 6.8882 6.8882 0 0 0 6.082 3.6562 6.8882 6.8882 0 0 0 6.8887-6.8887 6.8882 6.8882 0 0 0-2.418-5.2402zm-14.309 10.236c0.5739 1.0781 0.88182 2.3089 0.86524 3.5293-1.4682 7.2365-3.9852 14.22-5.8906 21.352 2.5216 3.7524 5.3351 7.3091 7.9199 11.02 2.0845 3.3433 5.8696 6.3932 5.2676 10.705-0.23763 3.1564-2.9187 5.6732-6.125 5.8848-5.3647 0.15822-18.768-2.334-18.768-2.334s-4.6586 8.9737-8.6602 13.252c-2.4187 2.5324-6.6837 2.4463-9.2871 0.33789 1.9052 3.908 7.8602 4.8489 10.898 1.668 4.0015-4.2783 8.6602-13.252 8.6602-13.252 0 0 13.401 2.4942 18.766 2.3359 3.2063-0.21154 5.8893-2.7304 6.127-5.8867 0.60204-4.3118-3.1851-7.3618-5.2695-10.705-2.5848-3.7104-5.3964-7.2652-7.918-11.018 1.9054-7.1317 4.4205-14.117 5.8887-21.354 0.028378-2.0878-0.8932-4.1987-2.4746-5.5352zm-7.0977 4.4844c-0.68017 0.39531-1.8197 1.1876-5.1816 2.7676l-0.57226 0.28906c0.26456-0.12113 0.30372-0.15724 0.54297-0.26953-2.7408 1.5507-5.529 3.1344-8.3984 4.6895l-4.0391 2.1875-3.7715-2.6055c-3.3864-2.335-5.6906-4.2484-7.8906-5.6738-0.050759 4.692-0.055975 9.3837 0 14.078l0.035156 2.959-2.0352 2.1621c-2.846 3.0242-5.3754 5.6945-7.5547 8.377 0.74864 0.388 1.5492 0.76938 2.3301 1.1523 2.0148-2.3995 4.2913-4.8175 6.8359-7.5215l2.0332-2.1621-0.033204-2.9609c-0.055974-4.6944-0.050759-9.3861 0-14.078 2.2 1.4254 4.5023 3.3408 7.8887 5.6758l3.7734 2.6035 4.0391-2.1855c2.8694-1.555 5.6557-3.1387 8.3965-4.6895-0.23924 0.11229-0.27647 0.14644-0.54102 0.26758l0.57031-0.28711c1.1622-0.54617 1.9892-0.96969 2.6934-1.3438 0.3056-1.1492 0.61054-2.2966 0.87891-3.4316zm-44.184 34.393c0.73152 1.367 1.8965 2.5013 3.4277 3.0898 2.4476 1.2705 4.9478 2.4386 7.4395 3.623-0.11851-0.46854-0.22912-0.93879-0.35156-1.4062-2.9057-1.3946-5.8395-2.7402-8.6992-4.2246-0.68022-0.26147-1.2851-0.63355-1.8164-1.082zm17.221 1.5566 0.49609 1.8945c1.3488 5.1496 2.4295 9.9552 3.6758 14.588 0.25337-0.33877 0.52672-0.7269 0.80078-1.1172-0.92826-3.6679-1.8167-7.4595-2.8652-11.463l-0.86719-3.3066-1.2402-0.5957z" fill="#b60000" fill-opacity=".1497" stroke-width="1.7221"/>
  <path id="path976" transform="scale(.26458)" d="m97.053 29.814a6.8882 6.8882 0 0 1 0.34961 2.166 6.8882 6.8882 0 0 1-6.8887 6.8887 6.8882 6.8882 0 0 1-3.9941-1.2754 6.8882 6.8882 0 0 0 6.541 4.7227 6.8882 6.8882 0 0 0 6.8887-6.8887 6.8882 6.8882 0 0 0-2.8965-5.6133zm-14.299 10.248c0.001061 0.003097 8.97e-4 0.006667 0.001953 0.009766 0.066076 0.19371 0.1259 0.38936 0.17578 0.58789 0.040132 0.15972 0.070266 0.32242 0.099609 0.48438 0.007756 0.042593 0.020345 0.08424 0.027344 0.12695 5.33e-4 0.00327 0.001425 0.006496 0.001953 0.009766 0.01497 0.092662 0.021839 0.18618 0.033203 0.2793 0.014004 0.1139 0.030559 0.22747 0.039062 0.3418 0.014967 0.20327 0.022298 0.40783 0.019532 0.61133-0.36692 1.8085-0.79947 3.6016-1.2715 5.3848v0.001953c-0.47193 1.7833-0.98465 3.5576-1.5098 5.3281-0.52548 1.7709-1.0649 3.5379-1.5918 5.3086-0.52691 1.7714-1.0411 3.5446-1.5176 5.3281 1.2608 1.8762 2.5942 3.7038 3.9355 5.5254 1.3417 1.822 2.692 3.6389 3.9844 5.4941 0.2418 0.38783 0.51095 0.76997 0.78906 1.1523 0.070956 0.097564 0.1423 0.19556 0.21484 0.29297 0.25596 0.34367 0.51639 0.68726 0.7832 1.0312 0.28909 0.3727 0.57834 0.74363 0.86328 1.1211-0.032863-0.051319-0.073389-0.10089-0.10547-0.15234-2.5848-3.7104-5.3964-7.2652-7.918-11.018 1.9054-7.1317 4.4205-14.117 5.8887-21.354 0.031077-2.2863-1.0763-4.6031-2.9434-5.8965zm-7.5645 3.4062c-0.68017 0.39531-1.8197 1.1876-5.1816 2.7676l-0.57226 0.28906c0.26456-0.12113 0.30372-0.15724 0.54297-0.26953-2.7408 1.5507-5.529 3.1344-8.3984 4.6895l-4.0391 2.1875-3.7715-2.6055c-0.84612-0.58343-1.6254-1.142-2.3516-1.6719h-0.001953c-0.72649-0.53009-1.4001-1.0316-2.0371-1.5059-1.2744-0.9484-2.4-1.7834-3.5-2.4961-0.050759 4.692-0.055975 9.3837 0 14.078l0.035156 2.959-2.0352 2.1621c-2.846 3.0242-5.3754 5.6945-7.5547 8.377 1.2357 0.64041 2.5256 1.2686 3.8457 1.9023 1.8701-2.1757 3.9546-4.3866 6.2559-6.832l2.0332-2.1621-0.035156-2.9609c-0.055975-4.6944-0.050759-9.3861 0-14.078 2.2 1.4254 4.5023 3.3408 7.8887 5.6758l3.7734 2.6035 4.0391-2.1855c2.8694-1.555 5.6557-3.1387 8.3965-4.6895-0.23924 0.11229-0.27647 0.14644-0.54102 0.26758l0.57031-0.28711c0.4578-0.21514 0.78221-0.38144 1.1621-0.56836 0.007636-0.027417 0.013857-0.054621 0.021484-0.082031 0.17571-0.63148 0.3448-1.2576 0.51367-1.8848 0.33011-1.2336 0.65366-2.4627 0.94141-3.6797zm-43.729 34.748c0.6292 1.8421 1.9866 3.4352 3.9082 4.1738 2.2336 1.1594 4.5103 2.2335 6.7852 3.3125-0.20911-0.84583-0.4121-1.6925-0.63281-2.5352-2.9057-1.3946-5.8395-2.7402-8.6992-4.2246-0.49244-0.18928-0.94587-0.4354-1.3613-0.72656zm57.424 1.7617c0.68273 1.0528 1.2386 2.1516 1.4863 3.3418 6.82e-4 0.003257 0.001275 0.006508 0.001953 0.009766 0.008999 0.043551 0.011355 0.089016 0.019531 0.13281 0.081596 0.4371 0.12885 0.88374 0.11914 1.3477-0.005338 0.25506-0.025615 0.51512-0.0625 0.7793-0.029705 0.39454-0.096865 0.77905-0.19922 1.1504s-0.23875 0.72869-0.40625 1.0703-0.36665 0.66727-0.5918 0.97266c-0.67543 0.91616-1.5932 1.6542-2.6523 2.127-0.17649 0.078756-0.35519 0.1493-0.53906 0.21289-0.18467 0.063963-0.37134 0.12013-0.5625 0.16797-0.19034 0.047633-0.38424 0.086352-0.58008 0.11719-0.19582 0.030825-0.39335 0.053185-0.59375 0.066406-0.67007 0.019762-1.4666-0.001739-2.3457-0.054687h-0.001954c-2.6397-0.15911-6.033-0.60005-9.0488-1.0527-4.0211-0.60358-7.3711-1.2266-7.3711-1.2266s-0.29182 0.5606-0.79102 1.4688c-0.7488 1.3622-1.9642 3.5048-3.3691 5.709l-0.001953 0.001953c-0.73841 1.1584-1.5325 2.3094-2.334 3.3965-0.21472 0.29122-0.42703 0.60037-0.64258 0.87695v0.00195c-0.114 0.14627-0.2279 0.28056-0.3418 0.42188-0.39564 0.49086-0.79155 0.96001-1.1797 1.375-0.17294 0.18106-0.3583 0.34356-0.54883 0.49804-0.053289 0.04322-0.10757 0.08384-0.16211 0.125-0.14758 0.11137-0.29912 0.21607-0.45508 0.3125-0.059276 0.03668-0.11736 0.07483-0.17774 0.10938-0.19926 0.11396-0.40347 0.21768-0.61328 0.30859-0.068762 0.02986-0.13924 0.05463-0.20898 0.08203-0.15247 0.05978-0.30634 0.11394-0.46289 0.16211-0.087539 0.02707-0.17505 0.05269-0.26367 0.07618-0.090356 0.02382-0.18211 0.04043-0.27344 0.06054-0.32343 0.07173-0.65101 0.12435-0.98242 0.15039-0.019023 0.00146-0.037603 0.00456-0.056641 0.00586-0.38285 0.02709-0.76696 0.02237-1.1504-0.00976-0.00258-2.2e-4 -0.005233 2.2e-4 -0.007813 0-0.004588-4e-4 -0.009085-0.00155-0.013672-0.00196-0.3869-0.03353-0.76967-0.09734-1.1465-0.18945-0.76305-0.18653-1.4901-0.49215-2.1465-0.9082 0.079039 0.27584 0.14721 0.55488 0.22852 0.83008 1.8113 4.0528 7.9058 5.0613 10.988 1.834 4.0015-4.2783 8.6602-13.252 8.6602-13.252 0 0 13.401 2.4942 18.766 2.3359 3.2063-0.21154 5.8893-2.7304 6.127-5.8867 0.50202-3.5955-2.0416-6.3143-4.1113-9.0566zm-40.361 0.57422 0.19922 0.75977c1.3488 5.1496 2.4295 9.9552 3.6758 14.588 0.37852-0.5061 0.7896-1.09 1.209-1.7012 0.004896-0.007135 0.010726-0.01434 0.015625-0.021485-0.75067-3.0339-1.4978-6.1507-2.3535-9.418l-0.86719-3.3066-1.8789-0.90039zm33.463 2.5332c0.19211 0.2872 0.38712 0.59811 0.57227 0.85742 0.015719 7.52e-4 0.045005 0.00318 0.060547 0.003907-0.029859-0.046489 0.010578 0.016925-0.023438-0.035157-0.15819-0.24021-0.37117-0.51858-0.60938-0.82617z" fill="#b60000" fill-opacity=".075049" stroke-width="1.7221"/>
  <path id="path8-2" transform="scale(.26458)" d="m97.123 30.039a6.8882 6.8882 0 0 1 0.2793 1.9414 6.8882 6.8882 0 0 1-6.8887 6.8887 6.8882 6.8882 0 0 1-2.9883-0.68359 6.8882 6.8882 0 0 0 6.6055 4.9473 6.8882 6.8882 0 0 0 6.8887-6.8887 6.8882 6.8882 0 0 0-3.8965-6.2051zm-14.289 10.285c0.21423 0.70943 0.32839 1.4512 0.31836 2.1895-1.4682 7.2365-3.9852 14.22-5.8906 21.352 2.5216 3.7524 5.3351 7.3091 7.9199 11.02 2.0845 3.3433 5.8696 6.3932 5.2676 10.705-0.23763 3.1564-2.9187 5.6732-6.125 5.8848-5.3647 0.15822-18.768-2.334-18.768-2.334s-4.6586 8.9737-8.6602 13.252c-1.9667 2.0591-5.1554 2.387-7.6797 1.3066 0.10572 0.37283 0.19878 0.74942 0.30859 1.1211 1.8113 4.0528 7.9077 5.0633 10.99 1.8359 4.0015-4.2783 8.6582-13.254 8.6582-13.254s13.403 2.4942 18.768 2.3359c3.2063-0.21154 5.8893-2.7304 6.127-5.8867 0.60205-4.3118-3.1851-7.3618-5.2695-10.705-2.5848-3.7104-5.3964-7.2652-7.918-11.018 1.9055-7.1317 4.4205-14.117 5.8887-21.354 0.036242-2.6663-1.4739-5.3747-3.9355-6.4512zm-7.6445 3.1445c-0.68017 0.39531-1.8197 1.1876-5.1816 2.7676l-0.57226 0.28906c0.26456-0.12113 0.30372-0.15724 0.54297-0.26953-2.7408 1.5507-5.529 3.1344-8.3984 4.6895l-4.0391 2.1875-3.7715-2.6055c-3.3864-2.335-5.6906-4.2484-7.8906-5.6738-0.050759 4.692-0.055975 9.3837 0 14.078l0.035156 2.959-2.0352 2.1621c-2.846 3.0242-5.3754 5.6945-7.5547 8.377 1.6196 0.83938 3.3396 1.6664 5.0996 2.5039 1.8222-2.1065 3.8469-4.2525 6.0723-6.6172l2.0352-2.1621-0.035156-2.959c-0.055975-4.6944-0.050759-9.3881 0-14.08 2.2 1.4254 4.5043 3.3408 7.8906 5.6758l3.7715 2.6035 4.0391-2.1855c2.7546-1.4928 5.4316-3.0108 8.0664-4.502 0.002432-0.008545 0.005382-0.016846 0.007812-0.02539-0.061145 0.031686-0.11239 0.058724-0.21875 0.10742l0.21875-0.11133c0.69515-2.4435 1.3591-4.8453 1.918-7.209zm-42.73 35.311c0.58758 1.9483 1.971 3.6553 3.9805 4.4277 1.9113 0.99209 3.8557 1.9202 5.8027 2.8438-0.23647-0.96227-0.46971-1.9245-0.7207-2.8828-2.9057-1.3946-5.8395-2.7402-8.6992-4.2246-0.12559-0.048274-0.24257-0.10867-0.36328-0.16406zm16.154 2.1191 0.10938 0.41406c1.3488 5.1496 2.4295 9.9552 3.6758 14.588 0.57279-0.76585 1.2144-1.6957 1.8613-2.666-0.60806-2.4785-1.2295-5.0224-1.9199-7.6582l-0.86719-3.3066-2.8594-1.3711z" fill="#7b0000" fill-opacity=".072015" stroke-width="1.7221"/>
 </g>
</svg>
