<?xml version="1.0" encoding="UTF-8"?>
<svg id="svg46" width="64" height="64" version="1.1" viewBox="0 0 16.933 16.933" xmlns="http://www.w3.org/2000/svg" xmlns:cc="http://creativecommons.org/ns#" xmlns:dc="http://purl.org/dc/elements/1.1/" xmlns:rdf="http://www.w3.org/1999/02/22-rdf-syntax-ns#" xmlns:xlink="http://www.w3.org/1999/xlink">
 <metadata id="metadata2">
  <rdf:RDF>
   <cc:Work rdf:about="">
    <dc:format>image/svg+xml</dc:format>
    <dc:type rdf:resource="http://purl.org/dc/dcmitype/StillImage"/>
    <dc:title/>
   </cc:Work>
  </rdf:RDF>
 </metadata>
 <defs id="defs14">
  <style id="style4" type="text/css"/>
  <style id="style4-6" type="text/css"/>
  <style id="style6" type="text/css"/>
  <style id="style8" type="text/css"/>
  <filter id="filter1057" x="-.027" y="-.027" width="1.054" height="1.054" color-interpolation-filters="sRGB">
   <feGaussianBlur id="feGaussianBlur1059" stdDeviation="0.61875"/>
  </filter>
  <linearGradient id="linearGradient1053" x1="-127" x2="-127" y1="60" y2="5" gradientTransform="matrix(.26458 0 0 .26458 34.792 -.13493)" gradientUnits="userSpaceOnUse">
   <stop id="stop1047" stop-color="#02db96" offset="0"/>
   <stop id="stop1049" stop-color="#13d39b" offset="1"/>
  </linearGradient>
  <style id="style872" type="text/css"/>
  <style id="style874" type="text/css"/>
  <style id="style876" type="text/css"/>
 </defs>
 <rect id="rect1055" transform="scale(.26458)" x="4.5" y="4.5" width="55" height="55" ry="15" fill="#141414" filter="url(#filter1057)" opacity=".3" stroke-linecap="round" stroke-width="2.7444"/>
 <rect id="rect1045" x="1.1906" y="1.1906" width="14.552" height="14.552" ry="3.9687" fill="url(#linearGradient1053)" stroke-linecap="round" stroke-width=".7261"/>
 <g id="g24" transform="translate(-.0272 .0065001)" fill="#5e4aa6" stroke-width=".26458">
  <circle id="circle16" cx="-330.35" cy="-328.38" r="0"/>
  <circle id="circle18" cx="-312.11" cy="-326.25" r="0"/>
  <circle id="circle20" cx="-306.02" cy="-333.07" r="0"/>
  <circle id="circle22" cx="-308.84" cy="-326.01" r="0"/>
 </g>
 <g id="g44" transform="matrix(.92457 0 0 .92457 .63861 .63874)" stroke-width=".013791">
  <path id="path30" d="m4.8884 6.8012h7.1534v3.1002h-7.1534z" fill="#c8ffe6" p-id="849"/>
  <path id="path32" d="m4.8884 9.9014c0 0.79022 1.6011 1.4301 3.5774 1.4301 1.9762 0 3.5774-0.6399 3.5774-1.4301 0-0.79022-1.6011-1.4301-3.5774-1.4301-1.9762 0-3.5774 0.6399-3.5774 1.4301z" fill="#c8ffe6" p-id="850"/>
  <path id="path34" d="m8.2507 3.9865-5.3647 2.361c-0.19032 0.095158-0.19032 0.35719 0 0.45372l5.3661 2.361c0.14343 0.048268 0.28547 0.048268 0.4289 0l5.3661-2.361c0.19032-0.095158 0.19032-0.35719 0-0.45372l-5.3661-2.361c-0.14343-0.071713-0.28685-0.071713-0.43028 0z" fill="#fff" p-id="851"/>
  <g id="g42" fill="#28aa78">
   <path id="path36" d="m13.044 6.8964-4.7689-0.81091c-0.1186-0.023445-0.26203 0.071713-0.28547 0.19032-0.023445 0.1186 0.071713 0.26203 0.19032 0.28547l4.5786 0.76264v3.5291c0 0.14343 0.09516 0.23858 0.23858 0.23858 0.14343 0 0.23858-0.09516 0.23858-0.23858v-3.718c-0.0014-0.11998-0.09654-0.21514-0.1917-0.23858z" p-id="852"/>
   <path id="path38" d="m12.52 10.854c0 0.26341 0.21376 0.47717 0.47717 0.47717s0.47717-0.21376 0.47717-0.47717v-0.0014c0-0.26341-0.21376-0.47717-0.47717-0.47717-0.26341 0.0014-0.47717 0.21514-0.47717 0.47855z" p-id="853"/>
   <path id="path40" d="m13.712 11.57c0 0.40545-0.71575 1.4301-0.71575 1.4301s-0.71575-1.026-0.71575-1.4301 0.3103-0.71575 0.71575-0.71575 0.71575 0.3103 0.71575 0.71575z" p-id="854"/>
  </g>
 </g>
 <g id="g64" transform="matrix(.26458 0 0 .26458 -20.863 2.4476e-8)" fill="#5e4aa6">
  <circle id="circle20-3" cx="-1248.7" cy="-1241.6" r="0"/>
  <circle id="circle22-5" cx="-149.15" cy="23.855" r="0" fill-rule="evenodd"/>
  <circle id="circle24" cx="-1248.7" cy="-1241.6" r="0"/>
  <circle id="circle26" cx="-149.15" cy="23.855" r="0" fill-rule="evenodd"/>
  <circle id="circle28" cx="-1150.9" cy="-1256.6" r="0"/>
  <circle id="circle30" cx="-51.327" cy="8.8744" r="0" fill-rule="evenodd"/>
  <g id="g62" transform="matrix(3.7796,0,0,3.7796,167.86,4.61)" stroke-width=".26458">
   <g id="g40" transform="translate(-.0272 .0065001)">
    <circle id="circle32" cx="-330.35" cy="-328.38" r="0"/>
    <circle id="circle34" cx="-312.11" cy="-326.25" r="0"/>
    <circle id="circle36" cx="-306.02" cy="-333.07" r="0"/>
    <circle id="circle38" cx="-308.84" cy="-326.01" r="0"/>
   </g>
   <g id="g50" transform="translate(-.0272 .0065001)">
    <circle id="circle42" cx="-330.35" cy="-328.38" r="0"/>
    <circle id="circle44" cx="-312.11" cy="-326.25" r="0"/>
    <circle id="circle46" cx="-306.02" cy="-333.07" r="0"/>
    <circle id="circle48" cx="-308.84" cy="-326.01" r="0"/>
   </g>
   <g id="g60" transform="translate(-.02705 .0064503)">
    <circle id="circle52" cx="-330.35" cy="-328.38" r="0"/>
    <circle id="circle54" cx="-312.11" cy="-326.25" r="0"/>
    <circle id="circle56" cx="-306.02" cy="-333.07" r="0"/>
    <circle id="circle58" cx="-308.84" cy="-326.01" r="0"/>
   </g>
  </g>
 </g>
</svg>
