<?xml version="1.0" encoding="UTF-8" standalone="no"?>
<svg
   id="svg1991"
   width="512"
   height="512"
   version="1.1"
   viewBox="0 0 33.867 33.867"
   sodipodi:docname="applications-education.svg"
   inkscape:version="1.4.4 (dcaf3e7d9e, 2026-05-05)"
   xmlns:inkscape="http://www.inkscape.org/namespaces/inkscape"
   xmlns:sodipodi="http://sodipodi.sourceforge.net/DTD/sodipodi-0.dtd"
   xmlns="http://www.w3.org/2000/svg"
   xmlns:svg="http://www.w3.org/2000/svg"
   xmlns:rdf="http://www.w3.org/1999/02/22-rdf-syntax-ns#"
   xmlns:cc="http://creativecommons.org/ns#"
   xmlns:dc="http://purl.org/dc/elements/1.1/">
  <sodipodi:namedview
     id="namedview1"
     pagecolor="#ffffff"
     bordercolor="#999999"
     borderopacity="1"
     inkscape:showpageshadow="2"
     inkscape:pageopacity="0"
     inkscape:pagecheckerboard="0"
     inkscape:deskcolor="#d1d1d1"
     inkscape:zoom="2.2617188"
     inkscape:cx="255.77893"
     inkscape:cy="256"
     inkscape:window-width="2560"
     inkscape:window-height="1371"
     inkscape:window-x="0"
     inkscape:window-y="0"
     inkscape:window-maximized="1"
     inkscape:current-layer="svg1991" />
  <defs
     id="defs1985">
    <filter
       id="filter861"
       x="-0.027"
       y="-0.027"
       width="1.054"
       height="1.054"
       color-interpolation-filters="sRGB">
      <feGaussianBlur
         id="feGaussianBlur876"
         stdDeviation="0.16371" />
    </filter>
    <linearGradient
       id="linearGradient3171"
       x1="5.8117"
       x2="5.8117"
       y1="2.9776"
       y2="15.749"
       gradientTransform="matrix(2.0522,0,0,2.0522,-0.36028,-0.081535)"
       gradientUnits="userSpaceOnUse">
      <stop
         id="stop3165"
         stop-color="#f5a00a"
         offset="0"
         style="stop-color:#ffa348;stop-opacity:1" />
      <stop
         id="stop3167"
         stop-color="#fa6419"
         offset="1"
         style="stop-color:#c64600;stop-opacity:1" />
    </linearGradient>
    <linearGradient
       id="linearGradient1982"
       x1="8.6676"
       x2="8.6676"
       y1="2.7493"
       y2="12.609"
       gradientTransform="matrix(2.0522,0,0,2.0522,-0.36028,-0.081535)"
       gradientUnits="userSpaceOnUse">
      <stop
         id="stop1976"
         offset="0" />
      <stop
         id="stop1984"
         stop-color="#fff"
         offset=".48408" />
      <stop
         id="stop1978"
         stop-color="#fff"
         offset="1" />
    </linearGradient>
    <filter
       inkscape:collect="always"
       style="color-interpolation-filters:sRGB"
       id="filter1"
       x="-0.068400569"
       y="-0.083008869"
       width="1.1368011"
       height="1.1660177">
      <feGaussianBlur
         inkscape:collect="always"
         stdDeviation="0.58805425"
         id="feGaussianBlur1" />
    </filter>
  </defs>
  <metadata
     id="metadata1988">
    <rdf:RDF>
      <cc:Work
         rdf:about="">
        <dc:format>image/svg+xml</dc:format>
        <dc:type
           rdf:resource="http://purl.org/dc/dcmitype/StillImage" />
        <dc:title />
      </cc:Work>
    </rdf:RDF>
  </metadata>
  <rect
     id="rect881"
     transform="matrix(2.0522,0,0,2.0522,-0.36028,-0.081534)"
     x="1.1905"
     y="1.1905"
     width="14.552"
     height="14.552"
     ry="3.4395001"
     filter="url(#filter861)"
     image-rendering="optimizeSpeed"
     opacity="0.3"
     stroke-opacity="0.95294"
     stroke-width="0.083153" />
  <rect
     id="rect3121"
     x="2.0827999"
     y="2.3615"
     width="29.864"
     height="29.864"
     ry="7.0585999"
     fill="url(#linearGradient3171)"
     image-rendering="optimizeSpeed"
     stroke-opacity="0.95294"
     stroke-width="0.17064"
     style="fill:url(#linearGradient3171)" />
  <path
     id="path1449-7"
     d="m 12.069,9.4556653 c -1.542,-0.036015 -3.1738996,0.5827497 -4.6817996,1.5163997 -0.53459,0.30865 -0.63232,0.70733 -0.63232,1.0096 l -0.056541,11.947 c 0,0.62079 0.52974,0.42705 0.81174,0.26424 4.4954996,-2.4913 7.2227996,-1.0652 9.0921996,2.2634 l -0.1468,-13.795 c 0.0036,-0.39491 -0.04942,-0.54956 -0.24521,-0.79271 -1.1474,-1.686 -2.5994,-2.3768997 -4.1413,-2.4128997 z m 9.892,0 c -1.542,0.036015 -2.9934,0.7269197 -4.1408,2.4128997 -0.19578,0.24315 -0.2493,0.3978 -0.24575,0.79271 l -0.1468,13.795 c 1.8694,-3.3286 4.5973,-4.7547 9.0928,-2.2634 0.282,0.16282 0.81119,0.35655 0.8112,-0.26424 l -0.05654,-11.947 c 0,-0.30232 -0.09772,-0.701 -0.63232,-1.0096 -1.5078,-0.93362 -3.1398,-1.5523997 -4.6818,-1.5163997 z"
     fill="#f5f5f5"
     stroke="url(#linearGradient1982)"
     stroke-width="0.27148"
     style="display:inline;stroke:none;fill:#000000;fill-opacity:1;filter:url(#filter1);opacity:0.35" />
  <path
     id="path1449"
     d="M 12.069,8.7942 C 10.527,8.758185 8.8951,9.37695 7.3872,10.3106 6.85261,10.61925 6.75488,11.01793 6.75488,11.3202 l -0.056541,11.947 c 0,0.62079 0.52974,0.42705 0.81174,0.26424 4.4955,-2.4913 7.2228,-1.0652 9.0922,2.2634 l -0.1468,-13.795 c 0.0036,-0.39491 -0.04942,-0.54956 -0.24521,-0.79271 -1.1474,-1.686 -2.5994,-2.3769 -4.1413,-2.4129 z m 9.892,0 c -1.542,0.036015 -2.9934,0.72692 -4.1408,2.4129 -0.19578,0.24315 -0.2493,0.3978 -0.24575,0.79271 l -0.1468,13.795 c 1.8694,-3.3286 4.5973,-4.7547 9.0928,-2.2634 0.282,0.16282 0.81119,0.35655 0.8112,-0.26424 l -0.05654,-11.947 c 0,-0.30232 -0.09772,-0.701 -0.63232,-1.0096 -1.5078,-0.93362 -3.1398,-1.5524 -4.6818,-1.5164 z"
     fill="#f5f5f5"
     stroke="url(#linearGradient1982)"
     stroke-width="0.27148"
     style="display:inline;stroke:none" />
</svg>
