<?xml version="1.0" encoding="UTF-8" standalone="no"?>
<svg
   id="svg1443"
   width="512"
   height="512"
   version="1.1"
   viewBox="0 0 33.867 33.867"
   sodipodi:docname="arkclient.svg"
   inkscape:version="1.4.4 (dcaf3e7d9e, 2026-05-05)"
   xmlns:inkscape="http://www.inkscape.org/namespaces/inkscape"
   xmlns:sodipodi="http://sodipodi.sourceforge.net/DTD/sodipodi-0.dtd"
   xmlns="http://www.w3.org/2000/svg"
   xmlns:svg="http://www.w3.org/2000/svg"
   xmlns:rdf="http://www.w3.org/1999/02/22-rdf-syntax-ns#"
   xmlns:cc="http://creativecommons.org/ns#"
   xmlns:dc="http://purl.org/dc/elements/1.1/">
  <sodipodi:namedview
     id="namedview1"
     pagecolor="#ffffff"
     bordercolor="#999999"
     borderopacity="1"
     inkscape:showpageshadow="2"
     inkscape:pageopacity="0"
     inkscape:pagecheckerboard="0"
     inkscape:deskcolor="#d1d1d1"
     inkscape:zoom="2.2617188"
     inkscape:cx="256"
     inkscape:cy="256"
     inkscape:window-width="2560"
     inkscape:window-height="1371"
     inkscape:window-x="0"
     inkscape:window-y="0"
     inkscape:window-maximized="1"
     inkscape:current-layer="svg1443" />
  <defs
     id="defs1437">
    <radialGradient
       id="radialGradient963"
       cx="16.951"
       cy="2.5104"
       r="14.544"
       gradientTransform="matrix(7.1386,0,0,2.2345,-104.06,-3.0991)"
       gradientUnits="userSpaceOnUse">
      <stop
         id="stop957"
         stop-color="#ff8848"
         offset="0" />
      <stop
         id="stop959"
         stop-color="#df2e27"
         stop-opacity=".96863"
         offset="1" />
    </radialGradient>
    <filter
       inkscape:collect="always"
       style="color-interpolation-filters:sRGB"
       id="filter1"
       x="-0.066345899"
       y="-0.086250429"
       width="1.1326918"
       height="1.1725009">
      <feGaussianBlur
         inkscape:collect="always"
         stdDeviation="0.62696875"
         id="feGaussianBlur1" />
    </filter>
  </defs>
  <metadata
     id="metadata1440">
    <rdf:RDF>
      <cc:Work
         rdf:about="">
        <dc:format>image/svg+xml</dc:format>
        <dc:type
           rdf:resource="http://purl.org/dc/dcmitype/StillImage" />
      </cc:Work>
    </rdf:RDF>
  </metadata>
  <g
     id="g1702"
     transform="matrix(0.97573,0,0,0.97573,-65.737,-37.183)"
     fill="none"
     opacity="0.295"
     stroke="#000000"
     stroke-linecap="round"
     stroke-linejoin="round"
     stroke-opacity="0.02">
    <rect
       id="rect1634"
       x="69.839996"
       y="40.709999"
       width="29.811001"
       height="29.811001"
       rx="6.6099"
       ry="6.6099"
       stroke-width="0.1" />
    <rect
       id="rect1638"
       x="69.839996"
       y="40.709999"
       width="29.811001"
       height="29.811001"
       rx="6.6099"
       ry="6.6099"
       stroke-width="0.2" />
    <rect
       id="rect1640"
       x="69.839996"
       y="40.709999"
       width="29.811001"
       height="29.811001"
       rx="6.6099"
       ry="6.6099"
       stroke-width="0.3" />
    <rect
       id="rect1642"
       x="69.839996"
       y="40.709999"
       width="29.811001"
       height="29.811001"
       rx="6.6099"
       ry="6.6099"
       stroke-width="0.4" />
    <rect
       id="rect1644"
       x="69.839996"
       y="40.709999"
       width="29.811001"
       height="29.811001"
       rx="6.6099"
       ry="6.6099"
       stroke-width="0.5" />
    <rect
       id="rect1646"
       x="69.839996"
       y="40.709999"
       width="29.811001"
       height="29.811001"
       rx="6.6099"
       ry="6.6099"
       stroke-width="0.6" />
    <rect
       id="rect1648"
       x="69.839996"
       y="40.709999"
       width="29.811001"
       height="29.811001"
       rx="6.6099"
       ry="6.6099"
       stroke-width="0.7" />
    <rect
       id="rect1650"
       x="69.839996"
       y="40.709999"
       width="29.811001"
       height="29.811001"
       rx="6.6099"
       ry="6.6099"
       stroke-width="0.8" />
    <rect
       id="rect1652"
       x="69.839996"
       y="40.709999"
       width="29.811001"
       height="29.811001"
       rx="6.6099"
       ry="6.6099" />
    <rect
       id="rect1654"
       x="69.839996"
       y="40.709999"
       width="29.811001"
       height="29.811001"
       rx="6.6099"
       ry="6.6099"
       stroke-width="1.2" />
    <rect
       id="rect1656"
       x="69.839996"
       y="40.709999"
       width="29.811001"
       height="29.811001"
       rx="6.6099"
       ry="6.6099"
       stroke-width="1.4" />
    <rect
       id="rect1658"
       x="69.839996"
       y="40.709999"
       width="29.811001"
       height="29.811001"
       rx="6.6099"
       ry="6.6099"
       stroke-width="1.6" />
    <rect
       id="rect1660"
       x="69.839996"
       y="40.709999"
       width="29.811001"
       height="29.811001"
       rx="6.6099"
       ry="6.6099"
       stroke-width="1.8" />
    <rect
       id="rect1662"
       x="69.839996"
       y="40.709999"
       width="29.811001"
       height="29.811001"
       rx="6.6099"
       ry="6.6099"
       stroke-width="2" />
    <rect
       id="rect1664"
       x="69.839996"
       y="40.709999"
       width="29.811001"
       height="29.811001"
       rx="6.6099"
       ry="6.6099"
       stroke-width="2.2" />
    <rect
       id="rect1666"
       x="69.839996"
       y="40.709999"
       width="29.811001"
       height="29.811001"
       rx="6.6099"
       ry="6.6099"
       stroke-width="2.6" />
    <rect
       id="rect1668"
       x="69.839996"
       y="40.709999"
       width="29.811001"
       height="29.811001"
       rx="6.6099"
       ry="6.6099"
       stroke-width="3" />
    <rect
       id="rect1670"
       x="69.839996"
       y="40.709999"
       width="29.811001"
       height="29.811001"
       rx="6.6099"
       ry="6.6099"
       stroke-width="3.4" />
    <rect
       id="rect1672"
       x="69.839996"
       y="40.709999"
       width="29.811001"
       height="29.811001"
       rx="6.6099"
       ry="6.6099"
       stroke-width="3.8" />
    <rect
       id="rect1674"
       x="69.839996"
       y="40.709999"
       width="29.811001"
       height="29.811001"
       rx="6.6099"
       ry="6.6099"
       stroke-width="4.2" />
    <rect
       id="rect1676"
       x="69.839996"
       y="40.709999"
       width="29.811001"
       height="29.811001"
       rx="6.6099"
       ry="6.6099"
       stroke-width="4.6" />
    <rect
       id="rect1678"
       x="69.839996"
       y="40.709999"
       width="29.811001"
       height="29.811001"
       rx="6.6099"
       ry="6.6099"
       stroke-width="5" />
  </g>
  <rect
     id="rect849"
     x="2.4073999"
     y="2.5392001"
     width="29.087"
     height="29.087"
     rx="6.4495001"
     ry="6.4495001"
     fill="url(#radialGradient963)"
     stroke-linecap="round"
     stroke-linejoin="round"
     stroke-width="2.6877"
     style="fill:url(#radialGradient963)" />
  <path
     id="path9"
     d="m 17.008,9.021365 -11.397,17.446 c 0,0 7.0839,-6.8951 11.34,-10.904 4.3015,3.6661 11.34,10.904 11.34,10.904 z m -0.05649,8.7226 -1.496,1.745 h 2.992 z m -2.9898,3.4899 -2.2444,2.6167 h 10.468 l -2.2444,-2.6167 z"
     fill="#ffffff"
     stroke-width="0.74317"
     style="fill:#000000;fill-opacity:1;filter:url(#filter1);opacity:0.35" />
  <path
     id="path9-7"
     d="M 17.008,8.3599005 5.6110004,25.8059 c 0,0 7.0838996,-6.8951 11.3399996,-10.904 4.3015,3.6661 11.34,10.904 11.34,10.904 z m -0.05649,8.7225995 -1.496,1.745 h 2.992 z m -2.9898,3.4899 -2.2444,2.6167 h 10.468 l -2.2444,-2.6167 z"
     fill="#ffffff"
     stroke-width="0.74317" />
</svg>
