<?xml version="1.0" encoding="UTF-8"?>
<svg id="svg1443" width="128" height="128" version="1.1" viewBox="0 0 33.867 33.867" xmlns="http://www.w3.org/2000/svg" xmlns:cc="http://creativecommons.org/ns#" xmlns:dc="http://purl.org/dc/elements/1.1/" xmlns:rdf="http://www.w3.org/1999/02/22-rdf-syntax-ns#" xmlns:xlink="http://www.w3.org/1999/xlink">
 <defs id="defs1437">
  <linearGradient id="linearGradient1632" x1="132.21" x2="132.21" y1="42.152" y2="70.68" gradientTransform="matrix(.97573 0 0 .97573 -111.77 -37.183)" gradientUnits="userSpaceOnUse">
   <stop id="stop1626" stop-color="#fafafc" offset="0"/>
   <stop id="stop1628" stop-color="#e2e6ea" offset="1"/>
  </linearGradient>
  <linearGradient id="linearGradient901" x1="19.256" x2="19.256" y1="25.298" y2="5.1175" gradientUnits="userSpaceOnUse">
   <stop id="stop895" stop-color="#2769ff" offset="0"/>
   <stop id="stop897" stop-color="#07b2ff" offset="1"/>
  </linearGradient>
 </defs>
 <metadata id="metadata1440">
  <rdf:RDF>
   <cc:Work rdf:about="">
    <dc:format>image/svg+xml</dc:format>
    <dc:type rdf:resource="http://purl.org/dc/dcmitype/StillImage"/>
    <dc:title/>
   </cc:Work>
  </rdf:RDF>
 </metadata>
 <g id="layer1">
  <g id="g1702" transform="matrix(.97573 0 0 .97573 -65.737 -37.183)" fill="none" opacity=".295" stroke="#000" stroke-linecap="round" stroke-linejoin="round" stroke-opacity=".02">
   <rect id="rect1634" x="69.84" y="40.71" width="29.811" height="29.811" rx="6.6099" ry="6.6099" stroke-width=".1"/>
   <rect id="rect1638" x="69.84" y="40.71" width="29.811" height="29.811" rx="6.6099" ry="6.6099" stroke-width=".2"/>
   <rect id="rect1640" x="69.84" y="40.71" width="29.811" height="29.811" rx="6.6099" ry="6.6099" stroke-width=".3"/>
   <rect id="rect1642" x="69.84" y="40.71" width="29.811" height="29.811" rx="6.6099" ry="6.6099" stroke-width=".4"/>
   <rect id="rect1644" x="69.84" y="40.71" width="29.811" height="29.811" rx="6.6099" ry="6.6099" stroke-width=".5"/>
   <rect id="rect1646" x="69.84" y="40.71" width="29.811" height="29.811" rx="6.6099" ry="6.6099" stroke-width=".6"/>
   <rect id="rect1648" x="69.84" y="40.71" width="29.811" height="29.811" rx="6.6099" ry="6.6099" stroke-width=".7"/>
   <rect id="rect1650" x="69.84" y="40.71" width="29.811" height="29.811" rx="6.6099" ry="6.6099" stroke-width=".8"/>
   <rect id="rect1652" x="69.84" y="40.71" width="29.811" height="29.811" rx="6.6099" ry="6.6099"/>
   <rect id="rect1654" x="69.84" y="40.71" width="29.811" height="29.811" rx="6.6099" ry="6.6099" stroke-width="1.2"/>
   <rect id="rect1656" x="69.84" y="40.71" width="29.811" height="29.811" rx="6.6099" ry="6.6099" stroke-width="1.4"/>
   <rect id="rect1658" x="69.84" y="40.71" width="29.811" height="29.811" rx="6.6099" ry="6.6099" stroke-width="1.6"/>
   <rect id="rect1660" x="69.84" y="40.71" width="29.811" height="29.811" rx="6.6099" ry="6.6099" stroke-width="1.8"/>
   <rect id="rect1662" x="69.84" y="40.71" width="29.811" height="29.811" rx="6.6099" ry="6.6099" stroke-width="2"/>
   <rect id="rect1664" x="69.84" y="40.71" width="29.811" height="29.811" rx="6.6099" ry="6.6099" stroke-width="2.2"/>
   <rect id="rect1666" x="69.84" y="40.71" width="29.811" height="29.811" rx="6.6099" ry="6.6099" stroke-width="2.6"/>
   <rect id="rect1668" x="69.84" y="40.71" width="29.811" height="29.811" rx="6.6099" ry="6.6099" stroke-width="3"/>
   <rect id="rect1670" x="69.84" y="40.71" width="29.811" height="29.811" rx="6.6099" ry="6.6099" stroke-width="3.4"/>
   <rect id="rect1672" x="69.84" y="40.71" width="29.811" height="29.811" rx="6.6099" ry="6.6099" stroke-width="3.8"/>
   <rect id="rect1674" x="69.84" y="40.71" width="29.811" height="29.811" rx="6.6099" ry="6.6099" stroke-width="4.2"/>
   <rect id="rect1676" x="69.84" y="40.71" width="29.811" height="29.811" rx="6.6099" ry="6.6099" stroke-width="4.6"/>
   <rect id="rect1678" x="69.84" y="40.71" width="29.811" height="29.811" rx="6.6099" ry="6.6099" stroke-width="5"/>
  </g>
  <rect id="rect849" x="2.4074" y="2.5392" width="29.087" height="29.087" rx="6.4495" ry="6.4495" fill="url(#linearGradient1632)" stroke-linecap="round" stroke-linejoin="round" stroke-width="2.6877"/>
  <path id="circle8-7" d="m18.315 7.2577c-0.12898-0.00503-0.25898-0.00367-0.39067 0.00413-2.3551-0.14001-4.2604 1.8173-4.9429 3.9264-2.2259 5.8687-4.3885 11.761-6.4895 17.676 1.3926-0.48813 2.7849-0.97638 4.1775-1.4645 1.9763-5.0975 3.8936-10.22 5.8844-15.31 0.3173-0.78112 1.3496-1.6378 2.1058-0.84388 0.98265 0.97625 1.1664 2.4336 1.7281 3.6525 1.5895 4.17 3.1895 8.3361 4.7909 12.502 1.3926 0.48813 2.7849 0.97638 4.1775 1.4645-2.1888-6.129-4.4027-12.251-6.7531-18.32-0.74236-1.7314-2.3535-3.2112-4.2881-3.2866zm-0.39842 12.337a2.7394 2.7394 0 0 0-2.7316 2.7394 2.7394 2.7394 0 0 0 2.7394 2.7394 2.7394 2.7394 0 0 0 2.7394-2.7394 2.7394 2.7394 0 0 0-2.7394-2.7394 2.7394 2.7394 0 0 0-0.0078 0z" fill="#11158b" fill-opacity=".27417" stroke-width=".68484"/>
  <circle id="circle8" cx="17.315" cy="21.258" r="2.7394" fill="#2078ff" stroke-width=".68484"/>
  <path id="path10" d="m17.315 6.1861c-2.3551-0.14001-4.2599 1.8174-4.9424 3.9265-2.2259 5.8687-4.389 11.761-6.4899 17.676 1.3926-0.48813 2.7852-0.97626 4.1778-1.4644 1.9763-5.0975 3.8932-10.22 5.884-15.311 0.3173-0.78112 1.3499-1.6378 2.1062-0.84381 0.98265 0.97625 1.1664 2.434 1.7281 3.6528 1.5895 4.17 3.1893 8.3361 4.7907 12.502 1.3926 0.48813 2.7852 0.97626 4.1778 1.4644-2.1888-6.129-4.403-12.251-6.7534-18.32-0.79185-1.8469-2.5719-3.4076-4.6789-3.2828z" fill="url(#linearGradient901)" stroke-width=".68484"/>
 </g>
</svg>
