<?xml version="1.0" encoding="UTF-8" standalone="no"?>
<svg
   id="svg2837"
   width="512"
   height="512"
   version="1.1"
   viewBox="0 0 33.867 33.867"
   sodipodi:docname="org.gnome.atomix.svg"
   inkscape:version="1.4.4 (dcaf3e7d9e, 2026-05-05)"
   xmlns:inkscape="http://www.inkscape.org/namespaces/inkscape"
   xmlns:sodipodi="http://sodipodi.sourceforge.net/DTD/sodipodi-0.dtd"
   xmlns:xlink="http://www.w3.org/1999/xlink"
   xmlns="http://www.w3.org/2000/svg"
   xmlns:svg="http://www.w3.org/2000/svg"
   xmlns:rdf="http://www.w3.org/1999/02/22-rdf-syntax-ns#"
   xmlns:cc="http://creativecommons.org/ns#"
   xmlns:dc="http://purl.org/dc/elements/1.1/">
  <sodipodi:namedview
     id="namedview1"
     pagecolor="#ffffff"
     bordercolor="#000000"
     borderopacity="0.25"
     inkscape:showpageshadow="2"
     inkscape:pageopacity="0.0"
     inkscape:pagecheckerboard="0"
     inkscape:deskcolor="#d1d1d1"
     inkscape:zoom="1.5625"
     inkscape:cx="255.68"
     inkscape:cy="256"
     inkscape:window-width="1920"
     inkscape:window-height="1011"
     inkscape:window-x="0"
     inkscape:window-y="0"
     inkscape:window-maximized="1"
     inkscape:current-layer="svg2837" />
  <defs
     id="defs2831">
    <linearGradient
       id="linearGradient1940"
       x1="16.938"
       x2="16.938"
       y1="5.6268"
       y2="30.152"
       gradientTransform="translate(-0.022115,0.088029)"
       gradientUnits="userSpaceOnUse">
      <stop
         id="stop1934"
         stop-color="#ebeeef"
         offset="0" />
      <stop
         id="stop1936"
         stop-color="#fefefe"
         offset="1" />
    </linearGradient>
    <linearGradient
       id="linearGradient3174"
       x1="15.138"
       x2="16.822"
       y1="10.386"
       y2="22.126"
       gradientTransform="translate(2.4681,0.041398)"
       gradientUnits="userSpaceOnUse">
      <stop
         id="stop3168"
         stop-color="#be1ad6"
         offset="0" />
      <stop
         id="stop3170"
         stop-color="#f44eb8"
         offset="1" />
    </linearGradient>
    <linearGradient
       inkscape:collect="always"
       xlink:href="#linearGradient3174"
       id="linearGradient1"
       gradientUnits="userSpaceOnUse"
       gradientTransform="translate(2.4832849,-0.17534751)"
       x1="15.138"
       y1="10.386"
       x2="16.822"
       y2="22.126" />
    <filter
       inkscape:collect="always"
       style="color-interpolation-filters:sRGB"
       id="filter1"
       x="-0.074494671"
       y="-0.075512226"
       width="1.1489893"
       height="1.1510245">
      <feGaussianBlur
         inkscape:collect="always"
         stdDeviation="0.53660532"
         id="feGaussianBlur1" />
    </filter>
  </defs>
  <metadata
     id="metadata2834">
    <rdf:RDF>
      <cc:Work
         rdf:about="">
        <dc:format>image/svg+xml</dc:format>
        <dc:type
           rdf:resource="http://purl.org/dc/dcmitype/StillImage" />
        <dc:title />
      </cc:Work>
    </rdf:RDF>
  </metadata>
  <g
     id="g1702"
     transform="matrix(0.97573,0,0,0.97573,-65.77,-37.115)"
     fill="none"
     opacity="0.29676"
     stroke="#000000"
     stroke-linecap="round"
     stroke-linejoin="round"
     stroke-opacity="0.02">
    <rect
       id="rect1634"
       x="69.839996"
       y="40.709999"
       width="29.811001"
       height="29.811001"
       rx="6.6099"
       ry="6.6099"
       stroke-width="0.1" />
    <rect
       id="rect1638"
       x="69.839996"
       y="40.709999"
       width="29.811001"
       height="29.811001"
       rx="6.6099"
       ry="6.6099"
       stroke-width="0.2" />
    <rect
       id="rect1640"
       x="69.839996"
       y="40.709999"
       width="29.811001"
       height="29.811001"
       rx="6.6099"
       ry="6.6099"
       stroke-width="0.3" />
    <rect
       id="rect1642"
       x="69.839996"
       y="40.709999"
       width="29.811001"
       height="29.811001"
       rx="6.6099"
       ry="6.6099"
       stroke-width="0.4" />
    <rect
       id="rect1644"
       x="69.839996"
       y="40.709999"
       width="29.811001"
       height="29.811001"
       rx="6.6099"
       ry="6.6099"
       stroke-width="0.5" />
    <rect
       id="rect1646"
       x="69.839996"
       y="40.709999"
       width="29.811001"
       height="29.811001"
       rx="6.6099"
       ry="6.6099"
       stroke-width="0.6" />
    <rect
       id="rect1648"
       x="69.839996"
       y="40.709999"
       width="29.811001"
       height="29.811001"
       rx="6.6099"
       ry="6.6099"
       stroke-width="0.7" />
    <rect
       id="rect1650"
       x="69.839996"
       y="40.709999"
       width="29.811001"
       height="29.811001"
       rx="6.6099"
       ry="6.6099"
       stroke-width="0.8" />
    <rect
       id="rect1652"
       x="69.839996"
       y="40.709999"
       width="29.811001"
       height="29.811001"
       rx="6.6099"
       ry="6.6099" />
    <rect
       id="rect1654"
       x="69.839996"
       y="40.709999"
       width="29.811001"
       height="29.811001"
       rx="6.6099"
       ry="6.6099"
       stroke-width="1.2" />
    <rect
       id="rect1656"
       x="69.839996"
       y="40.709999"
       width="29.811001"
       height="29.811001"
       rx="6.6099"
       ry="6.6099"
       stroke-width="1.4" />
    <rect
       id="rect1658"
       x="69.839996"
       y="40.709999"
       width="29.811001"
       height="29.811001"
       rx="6.6099"
       ry="6.6099"
       stroke-width="1.6" />
    <rect
       id="rect1660"
       x="69.839996"
       y="40.709999"
       width="29.811001"
       height="29.811001"
       rx="6.6099"
       ry="6.6099"
       stroke-width="1.8" />
    <rect
       id="rect1662"
       x="69.839996"
       y="40.709999"
       width="29.811001"
       height="29.811001"
       rx="6.6099"
       ry="6.6099"
       stroke-width="2" />
    <rect
       id="rect1664"
       x="69.839996"
       y="40.709999"
       width="29.811001"
       height="29.811001"
       rx="6.6099"
       ry="6.6099"
       stroke-width="2.2" />
    <rect
       id="rect1666"
       x="69.839996"
       y="40.709999"
       width="29.811001"
       height="29.811001"
       rx="6.6099"
       ry="6.6099"
       stroke-width="2.6" />
    <rect
       id="rect1668"
       x="69.839996"
       y="40.709999"
       width="29.811001"
       height="29.811001"
       rx="6.6099"
       ry="6.6099"
       stroke-width="3" />
    <rect
       id="rect1670"
       x="69.839996"
       y="40.709999"
       width="29.811001"
       height="29.811001"
       rx="6.6099"
       ry="6.6099"
       stroke-width="3.4" />
    <rect
       id="rect1672"
       x="69.839996"
       y="40.709999"
       width="29.811001"
       height="29.811001"
       rx="6.6099"
       ry="6.6099"
       stroke-width="3.8" />
    <rect
       id="rect1674"
       x="69.839996"
       y="40.709999"
       width="29.811001"
       height="29.811001"
       rx="6.6099"
       ry="6.6099"
       stroke-width="4.2" />
    <rect
       id="rect1676"
       x="69.839996"
       y="40.709999"
       width="29.811001"
       height="29.811001"
       rx="6.6099"
       ry="6.6099"
       stroke-width="4.6" />
    <rect
       id="rect1678"
       x="69.839996"
       y="40.709999"
       width="29.811001"
       height="29.811001"
       rx="6.6099"
       ry="6.6099"
       stroke-width="5" />
  </g>
  <rect
     id="rect849"
     x="2.3742001"
     y="2.6066"
     width="29.087"
     height="29.087"
     rx="6.4495001"
     ry="6.4495001"
     fill="url(#linearGradient1940)"
     stroke-linecap="round"
     stroke-linejoin="round"
     stroke-width="2.6877"
     style="fill:url(#linearGradient1940)" />
  <path
     id="circle881-8"
     d="m 24.08,9.152072 a 1.4821,1.4821 0 0 0 -1.4821,1.4821 1.4821,1.4821 0 0 0 0.2689,0.84657 l -3.7324,4.9765 a 3.2246,3.2246 0 0 0 -1.9736,-0.67932 3.2246,3.2246 0 0 0 -0.34995,0.02187 l -1.3175,-3.2937 a 1.2784,1.2784 0 0 0 0.51978,-1.028 1.2784,1.2784 0 0 0 -1.2776,-1.2776 1.2784,1.2784 0 0 0 -1.2789,1.2776 1.2784,1.2784 0 0 0 1.2789,1.2789 1.2784,1.2784 0 0 0 0.14538,-0.01029 l 1.2776,3.1946 a 3.2246,3.2246 0 0 0 -2.2219,3.0608 3.2246,3.2246 0 0 0 0.05918,0.60469 l -3.0325,1.2994 a 1.453,1.453 0 0 0 -1.2351,-0.69218 1.453,1.453 0 0 0 -1.4538,1.4538 1.453,1.453 0 0 0 1.4538,1.4526 1.453,1.453 0 0 0 1.4526,-1.4526 1.453,1.453 0 0 0 -0.0077,-0.13638 l 3.0132,-1.2917 a 3.2246,3.2246 0 0 0 2.9746,1.9865 3.2246,3.2246 0 0 0 1.8025,-0.55323 l 2.0855,2.6066 a 1.453,1.453 0 0 0 -0.08105,0.47346 1.453,1.453 0 0 0 1.4526,1.4538 1.453,1.453 0 0 0 1.4538,-1.4538 1.453,1.453 0 0 0 -1.4538,-1.4526 1.453,1.453 0 0 0 -0.99453,0.39498 l -1.9569,-2.4458 a 3.2246,3.2246 0 0 0 0.91605,-2.2477 3.2246,3.2246 0 0 0 -0.76938,-2.0855 l 3.7414,-4.9894 a 1.4821,1.4821 0 0 0 0.72306,0.18913 1.4821,1.4821 0 0 0 1.4821,-1.4821 1.4821,1.4821 0 0 0 -1.4821,-1.4821 z"
     fill="url(#linearGradient3174)"
     stroke-width="0.65873"
     style="fill:#000000;fill-opacity:1;filter:url(#filter1);opacity:0.35" />
  <path
     id="circle881-8-3"
     d="m 24.095185,8.4061549 a 1.4821,1.4821 0 0 0 -1.4821,1.4821 1.4821,1.4821 0 0 0 0.2689,0.8465701 l -3.7324,4.9765 a 3.2246,3.2246 0 0 0 -1.9736,-0.67932 3.2246,3.2246 0 0 0 -0.34995,0.02187 l -1.3175,-3.2937 a 1.2784,1.2784 0 0 0 0.51978,-1.028 1.2784,1.2784 0 0 0 -1.2776,-1.2776001 1.2784,1.2784 0 0 0 -1.2789,1.2776001 1.2784,1.2784 0 0 0 1.2789,1.2789 1.2784,1.2784 0 0 0 0.14538,-0.01029 l 1.2776,3.1946 a 3.2246,3.2246 0 0 0 -2.2219,3.0608 3.2246,3.2246 0 0 0 0.05918,0.60469 l -3.0325,1.2994 a 1.453,1.453 0 0 0 -1.2350997,-0.69218 1.453,1.453 0 0 0 -1.4538004,1.4538 1.453,1.453 0 0 0 1.4538004,1.4526 1.453,1.453 0 0 0 1.4525997,-1.4526 1.453,1.453 0 0 0 -0.0077,-0.13638 l 3.0132,-1.2917 a 3.2246,3.2246 0 0 0 2.9746,1.9865 3.2246,3.2246 0 0 0 1.8025,-0.55323 l 2.0855,2.6066 a 1.453,1.453 0 0 0 -0.08105,0.47346 1.453,1.453 0 0 0 1.4526,1.4538 1.453,1.453 0 0 0 1.4538,-1.4538 1.453,1.453 0 0 0 -1.4538,-1.4526 1.453,1.453 0 0 0 -0.99453,0.39498 l -1.9569,-2.4458 a 3.2246,3.2246 0 0 0 0.91605,-2.2477 3.2246,3.2246 0 0 0 -0.76938,-2.0855 l 3.7414,-4.9894 a 1.4821,1.4821 0 0 0 0.72306,0.18913 1.4821,1.4821 0 0 0 1.4821,-1.4821001 1.4821,1.4821 0 0 0 -1.4821,-1.4821 z"
     fill="url(#linearGradient3174)"
     stroke-width="0.65873"
     style="fill:url(#linearGradient1)" />
</svg>
