<?xml version="1.0" encoding="UTF-8"?>
<svg id="svg2117" width="128" height="128" version="1.1" viewBox="0 0 33.867 33.867" xmlns="http://www.w3.org/2000/svg" xmlns:cc="http://creativecommons.org/ns#" xmlns:dc="http://purl.org/dc/elements/1.1/" xmlns:rdf="http://www.w3.org/1999/02/22-rdf-syntax-ns#" xmlns:xlink="http://www.w3.org/1999/xlink">
 <defs id="defs2111">
  <linearGradient id="linearGradient912" x1="132.21" x2="132.21" y1="42.152" y2="70.68" gradientTransform="matrix(.97573 0 0 .97573 -111.89 -37.234)" gradientUnits="userSpaceOnUse">
   <stop id="stop1626" stop-color="#f8fcfc" offset="0"/>
   <stop id="stop1628" stop-color="#e3e5e8" offset="1"/>
  </linearGradient>
 </defs>
 <metadata id="metadata2114">
  <rdf:RDF>
   <cc:Work rdf:about="">
    <dc:format>image/svg+xml</dc:format>
    <dc:type rdf:resource="http://purl.org/dc/dcmitype/StillImage"/>
   </cc:Work>
  </rdf:RDF>
 </metadata>
 <g id="layer1">
  <g id="g1702" transform="matrix(.97573 0 0 .97573 -65.83 -36.915)" fill="none" opacity=".13962" stroke="#000" stroke-linecap="round" stroke-linejoin="round" stroke-opacity=".02">
   <rect id="rect1634" x="69.84" y="40.71" width="29.811" height="29.811" rx="6.6099" ry="6.6099" stroke-width=".1"/>
   <rect id="rect1638" x="69.84" y="40.71" width="29.811" height="29.811" rx="6.6099" ry="6.6099" stroke-width=".2"/>
   <rect id="rect1640" x="69.84" y="40.71" width="29.811" height="29.811" rx="6.6099" ry="6.6099" stroke-width=".3"/>
   <rect id="rect1642" x="69.84" y="40.71" width="29.811" height="29.811" rx="6.6099" ry="6.6099" stroke-width=".4"/>
   <rect id="rect1644" x="69.84" y="40.71" width="29.811" height="29.811" rx="6.6099" ry="6.6099" stroke-width=".5"/>
   <rect id="rect1646" x="69.84" y="40.71" width="29.811" height="29.811" rx="6.6099" ry="6.6099" stroke-width=".6"/>
   <rect id="rect1648" x="69.84" y="40.71" width="29.811" height="29.811" rx="6.6099" ry="6.6099" stroke-width=".7"/>
   <rect id="rect1650" x="69.84" y="40.71" width="29.811" height="29.811" rx="6.6099" ry="6.6099" stroke-width=".8"/>
   <rect id="rect1652" x="69.84" y="40.71" width="29.811" height="29.811" rx="6.6099" ry="6.6099"/>
   <rect id="rect1654" x="69.84" y="40.71" width="29.811" height="29.811" rx="6.6099" ry="6.6099" stroke-width="1.2"/>
   <rect id="rect1656" x="69.84" y="40.71" width="29.811" height="29.811" rx="6.6099" ry="6.6099" stroke-width="1.4"/>
   <rect id="rect1658" x="69.84" y="40.71" width="29.811" height="29.811" rx="6.6099" ry="6.6099" stroke-width="1.6"/>
   <rect id="rect1660" x="69.84" y="40.71" width="29.811" height="29.811" rx="6.6099" ry="6.6099" stroke-width="1.8"/>
   <rect id="rect1662" x="69.84" y="40.71" width="29.811" height="29.811" rx="6.6099" ry="6.6099" stroke-width="2"/>
   <rect id="rect1664" x="69.84" y="40.71" width="29.811" height="29.811" rx="6.6099" ry="6.6099" stroke-width="2.2"/>
   <rect id="rect1666" x="69.84" y="40.71" width="29.811" height="29.811" rx="6.6099" ry="6.6099" stroke-width="2.6"/>
   <rect id="rect1668" x="69.84" y="40.71" width="29.811" height="29.811" rx="6.6099" ry="6.6099" stroke-width="3"/>
   <rect id="rect1670" x="69.84" y="40.71" width="29.811" height="29.811" rx="6.6099" ry="6.6099" stroke-width="3.4"/>
   <rect id="rect1672" x="69.84" y="40.71" width="29.811" height="29.811" rx="6.6099" ry="6.6099" stroke-width="3.8"/>
   <rect id="rect1674" x="69.84" y="40.71" width="29.811" height="29.811" rx="6.6099" ry="6.6099" stroke-width="4.2"/>
   <rect id="rect1676" x="69.84" y="40.71" width="29.811" height="29.811" rx="6.6099" ry="6.6099" stroke-width="4.6"/>
   <rect id="rect1678" x="69.84" y="40.71" width="29.811" height="29.811" rx="6.6099" ry="6.6099" stroke-width="5"/>
  </g>
  <rect id="rect910" x="2.2835" y="2.4875" width="29.087" height="29.087" rx="6.4495" ry="6.4495" fill="url(#linearGradient912)" stroke-linecap="round" stroke-linejoin="round" stroke-width="2.6877"/>
  <path id="path6" d="m14.263 9.6359-1.8824 0.052423-1.9629 0.1341-1.2046 1.6325-0.75955 1.9275-0.85587 4.4622 1.7227 2.9553-0.69616 3.5259 3.7027 0.74858 4.1574-0.69494 3.0602 1.257 3.4344-1.5935 2.097-2.7566-1.1863-2.5006-1.5532 2.0531 1.9275-2.5688-0.88391-4.3939-1.0704-3.1431-3.0333 1.1095-1.6325 0.09876zm6.4141 3.1089-3.1138 0.54254 1.6325-0.28773z" opacity=".1" stroke-width=".62422"/>
  <g id="g128" transform="matrix(.091787 0 0 .091787 4.8087 26.128)">
   <path id="path10" d="m51.475-125.33 44.712 13.916-33.049 28.574z" fill="#006fef"/>
   <path id="path12" d="m96.187-111.42 35.382 24.121-25.177 4.6652z" fill="#005bc3"/>
   <path id="path14" d="m131.57-87.296 25.468 15.957-28.092 13.704z" fill="#005bc3"/>
   <path id="path16" d="m157.04-71.339 33.924 6.9185-36.548 28.866z" fill="#0050ac"/>
   <path id="path18" d="m190.96-64.42 29.842 4.8775-22.844 30.032z" fill="#006fef"/>
   <path id="path20" d="m163.16-111.79 18.179 27.912-24.302 12.538z" fill="#006fef"/>
   <path id="path22" d="m146.25-115.5 49.377-16.116-32.466 19.827z" fill="#003776"/>
   <path id="path24" d="m81.317-149.83 29.842 10.709-14.972 27.699z" fill="#006fef"/>
   <path id="path26" d="m111.45-169.07 27.509 22.372-27.801 7.5809z" fill="#006fef"/>
   <path id="path28" d="m138.96-146.7 33.924-5.9107-26.634 37.109z" fill="#0050ac"/>
   <path id="path30" d="m63.138-82.843 30.425 36.367-44.42-18.369z" fill="#003d82"/>
   <path id="path32" d="m93.563-46.476 33.632 20.622-45.295 7.5809z" fill="#003776"/>
   <path id="path34" d="m49.143-64.845 32.758 46.572-40.338-8.164z" fill="#006fef"/>
   <path id="path36" d="m39.711-145.66 11.764 20.331-21.095 28.283z" fill="#00234b"/>
   <path id="path38" d="m47.976-166.66 33.341 16.832-29.842 24.492z" fill="#006fef"/>
   <path id="path40" d="m82.483-185.9 28.967 16.832-30.133 19.244z" fill="#006fef"/>
   <path id="path42" d="m103-186.48 53.751 36.659-45.295-19.244z" fill="#153153"/>
   <path id="path44" d="m190.67-174.53-33.924 24.704 16.138-2.7826z" fill="#00234b"/>
   <path id="path46" d="m154.41-35.555-27.218 9.7011 33.341 13.704z" fill="#003d82"/>
   <path id="path48" d="m154.41-35.555 43.546 6.0438-37.423 17.361z" fill="#003776"/>
   <path id="path50" d="m128.94-57.635 25.468 22.08-27.218 9.7011z" fill="#006fef"/>
   <path id="path52" d="m106.39-82.631 22.553 24.996-35.382 11.159z" fill="#0050ac"/>
   <path id="path54" d="m96.187-111.42 10.205 28.786-43.254-0.21236z" fill="#0050ac"/>
   <path id="path56" d="m81.317-149.83 14.87 38.408-44.712-13.916z" fill="#258bff"/>
   <path id="path58" d="m51.475-125.33 11.663 42.49-32.758-14.208z" fill="#003d82"/>
   <path id="path60" d="m49.143-64.845 44.42 18.369-31.11 0.58314z" fill="#003776"/>
   <path id="path62" d="m111.16-139.12 27.801-7.5809-11.283 28.574z" fill="#258bff"/>
   <path id="path64" d="m127.68-118.12 18.572 2.6241-14.68 28.203z" fill="#003776"/>
   <path id="path66" d="m96.187-111.42 31.49-6.7062 3.8919 30.828z" fill="#258bff"/>
   <path id="path68" d="m131.57-87.296 31.591-24.492-6.123 40.449z" fill="#0050ac"/>
   <path id="path70" d="m163.16-111.79 32.466-19.827 7.5809 29.37z" fill="#006fef"/>
   <path id="path72" d="m172.88-152.61 29.449 12.325-6.7062 8.668z" fill="#00234b"/>
   <path id="path74" d="m82.483-185.9-1.1663 36.076-20.22-34.618z" fill="#003d82"/>
   <path id="path76" d="m181.34-83.877 21.868-18.369 8.7472 9.8343z" fill="#153153"/>
   <path id="path78" d="m190.96-64.42 16.911-22.372 12.931 27.249z" fill="#003776"/>
   <path id="path80" d="m157.04-71.339 24.302-12.538 9.6219 19.456z" fill="#003776"/>
   <path id="path82" d="m172.88-152.61 17.786-21.922 11.663 34.247z" fill="#003776"/>
   <path id="path84" d="m195.63-131.62 6.7062-8.668 9.6219 47.872z" fill="#153153"/>
   <path id="path86" d="m195.63-131.62 7.5809 29.37 8.7472 9.8343z" fill="#00234b"/>
   <path id="path88" d="m181.34-83.877 30.615-8.5348-20.993 27.991z" fill="#003d82"/>
   <path id="path90" d="m154.41-35.555 36.548-28.866 6.9977 34.91z" fill="#005bc3"/>
   <path id="path92" d="m62.454-45.893 31.11-0.58314-11.663 28.203z" fill="#003d82"/>
   <path id="path94" d="m30.381-97.051 32.758 14.208-13.995 17.998z" fill="#003776"/>
   <path id="path96" d="m63.138-82.843 43.254 0.21236-12.829 36.155z" fill="#005bc3"/>
   <path id="path98" d="m106.39-82.631 25.177-4.6652-2.6242 29.661z" fill="#0050ac"/>
   <path id="path100" d="m146.25-115.5 16.911 3.7112-31.591 24.492z" fill="#003d82"/>
   <path id="path102" d="m138.96-146.7 7.2894 31.198-18.572-2.6241z" fill="#003d82"/>
   <path id="path104" d="m157.62-162.44 33.049-12.088-33.924 24.704z" fill="#153153"/>
   <path id="path106" d="m138.57-161.28 19.054-1.1663-0.87469 12.617z" fill="#00234b"/>
   <path id="path108" d="m111.45-169.07 45.295 19.244-17.786 3.1281z" fill="#003776"/>
   <path id="path110" d="m81.317-149.83 30.133-19.244-0.29159 29.953z" fill="#258bff"/>
   <path id="path112" d="m96.187-111.42 14.972-27.699 16.518 20.993z" fill="#006fef"/>
   <path id="path114" d="m47.976-166.66 13.121-17.786 20.22 34.618z" fill="#003776"/>
   <path id="path116" d="m39.711-145.66 8.2655-20.993 3.4989 41.324z" fill="#153153"/>
   <path id="path118" d="m82.483-185.9 20.512-0.58316 8.4556 17.415z" fill="#00234b"/>
   <path id="path120" d="m146.25-115.5 26.634-37.109 22.743 20.993z" fill="#005bc3"/>
   <path id="path122" d="m181.34-83.877-18.179-27.912 40.047 9.5427z" fill="#258bff"/>
   <path id="path124" d="m154.41-35.555-25.468-22.08 28.092-13.704z" fill="#258bff"/>
   <path id="path126" d="m127.2-25.853-33.632-20.622 35.382-11.159z" fill="#258bff"/>
  </g>
 </g>
</svg>
