<?xml version="1.0" encoding="UTF-8"?>
<svg id="svg1443" width="128" height="128" version="1.1" viewBox="0 0 33.867 33.867" xmlns="http://www.w3.org/2000/svg" xmlns:cc="http://creativecommons.org/ns#" xmlns:dc="http://purl.org/dc/elements/1.1/" xmlns:rdf="http://www.w3.org/1999/02/22-rdf-syntax-ns#" xmlns:xlink="http://www.w3.org/1999/xlink">
 <defs id="defs1437">
  <radialGradient id="radialGradient870" cx="16.951" cy="2.8905" r="14.544" gradientTransform="matrix(7.6697 0 0 2.6553 -113.06 -4.7848)" gradientUnits="userSpaceOnUse">
   <stop id="stop1626" stop-color="#aa5fff" offset="0"/>
   <stop id="stop1628" stop-color="#5100ea" offset="1"/>
  </radialGradient>
  <linearGradient id="linearGradient887" x1="11.968" x2="26.539" y1="10.327" y2="35.565" gradientUnits="userSpaceOnUse">
   <stop id="stop881" stop-color="#fff" offset="0"/>
   <stop id="stop883" stop-color="#c3a6f2" offset="1"/>
  </linearGradient>
 </defs>
 <metadata id="metadata1440">
  <rdf:RDF>
   <cc:Work rdf:about="">
    <dc:format>image/svg+xml</dc:format>
    <dc:type rdf:resource="http://purl.org/dc/dcmitype/StillImage"/>
    <dc:title/>
   </cc:Work>
  </rdf:RDF>
 </metadata>
 <g id="layer1">
  <g id="g1702" transform="matrix(.97573 0 0 .97573 -65.737 -37.183)" fill="none" opacity=".295" stroke="#000" stroke-linecap="round" stroke-linejoin="round" stroke-opacity=".02">
   <rect id="rect1634" x="69.84" y="40.71" width="29.811" height="29.811" rx="6.6099" ry="6.6099" stroke-width=".1"/>
   <rect id="rect1638" x="69.84" y="40.71" width="29.811" height="29.811" rx="6.6099" ry="6.6099" stroke-width=".2"/>
   <rect id="rect1640" x="69.84" y="40.71" width="29.811" height="29.811" rx="6.6099" ry="6.6099" stroke-width=".3"/>
   <rect id="rect1642" x="69.84" y="40.71" width="29.811" height="29.811" rx="6.6099" ry="6.6099" stroke-width=".4"/>
   <rect id="rect1644" x="69.84" y="40.71" width="29.811" height="29.811" rx="6.6099" ry="6.6099" stroke-width=".5"/>
   <rect id="rect1646" x="69.84" y="40.71" width="29.811" height="29.811" rx="6.6099" ry="6.6099" stroke-width=".6"/>
   <rect id="rect1648" x="69.84" y="40.71" width="29.811" height="29.811" rx="6.6099" ry="6.6099" stroke-width=".7"/>
   <rect id="rect1650" x="69.84" y="40.71" width="29.811" height="29.811" rx="6.6099" ry="6.6099" stroke-width=".8"/>
   <rect id="rect1652" x="69.84" y="40.71" width="29.811" height="29.811" rx="6.6099" ry="6.6099"/>
   <rect id="rect1654" x="69.84" y="40.71" width="29.811" height="29.811" rx="6.6099" ry="6.6099" stroke-width="1.2"/>
   <rect id="rect1656" x="69.84" y="40.71" width="29.811" height="29.811" rx="6.6099" ry="6.6099" stroke-width="1.4"/>
   <rect id="rect1658" x="69.84" y="40.71" width="29.811" height="29.811" rx="6.6099" ry="6.6099" stroke-width="1.6"/>
   <rect id="rect1660" x="69.84" y="40.71" width="29.811" height="29.811" rx="6.6099" ry="6.6099" stroke-width="1.8"/>
   <rect id="rect1662" x="69.84" y="40.71" width="29.811" height="29.811" rx="6.6099" ry="6.6099" stroke-width="2"/>
   <rect id="rect1664" x="69.84" y="40.71" width="29.811" height="29.811" rx="6.6099" ry="6.6099" stroke-width="2.2"/>
   <rect id="rect1666" x="69.84" y="40.71" width="29.811" height="29.811" rx="6.6099" ry="6.6099" stroke-width="2.6"/>
   <rect id="rect1668" x="69.84" y="40.71" width="29.811" height="29.811" rx="6.6099" ry="6.6099" stroke-width="3"/>
   <rect id="rect1670" x="69.84" y="40.71" width="29.811" height="29.811" rx="6.6099" ry="6.6099" stroke-width="3.4"/>
   <rect id="rect1672" x="69.84" y="40.71" width="29.811" height="29.811" rx="6.6099" ry="6.6099" stroke-width="3.8"/>
   <rect id="rect1674" x="69.84" y="40.71" width="29.811" height="29.811" rx="6.6099" ry="6.6099" stroke-width="4.2"/>
   <rect id="rect1676" x="69.84" y="40.71" width="29.811" height="29.811" rx="6.6099" ry="6.6099" stroke-width="4.6"/>
   <rect id="rect1678" x="69.84" y="40.71" width="29.811" height="29.811" rx="6.6099" ry="6.6099" stroke-width="5"/>
  </g>
  <rect id="rect849" x="2.4074" y="2.5392" width="29.087" height="29.087" rx="6.4495" ry="6.4495" fill="url(#radialGradient870)" stroke-linecap="round" stroke-linejoin="round" stroke-width="2.6877"/>
  <path id="path889" d="m17.626 5.8788c-0.14583-5.339e-4 -0.28207 0.072725-0.36064 0.19581a0.16562 0.16573 0 0 0 0 0.00159l-10.517 16.682a0.16562 0.16573 0 0 0-0.00158 0.0016c-0.12073 0.19711-0.052441 0.45948 0.14878 0.57288l10.517 6.0201a0.16562 0.16573 0 0 0 0 0.0016c0.13227 0.07488 0.29468 0.07488 0.42695 0l10.494-5.9537c0.09706-0.05498 0.1695-0.14637 0.19893-0.25408 0.01709-0.06386-0.01474-0.12454-0.02911-0.18772a0.16562 0.16573 0 0 0-0.02093-0.13269v-0.0016a0.16562 0.16573 0 0 0-0.01122-0.01624l-10.481-16.732a0.16562 0.16573 0 0 0-0.0016-0.00159c-0.078538-0.12306-0.21481-0.19634-0.36064-0.1958zm0.42372 1.8821 9.0695 14.476-3.773-1.6555a0.16562 0.16573 0 0 0-0.0016 0l-0.0031-0.0016c-0.46026-0.20253-0.74041-0.38129-0.92018-0.61169-0.18035-0.23115-0.27636-0.53281-0.33801-1.0195a0.16562 0.16573 0 0 0-0.0016-0.0049c1.43e-4 9.04e-4 -0.0014-0.01285-0.0031-0.02589-0.0012-0.0092-0.0026-0.02174-0.0049-0.03398l-0.0016-0.0031c-0.25516-1.6631-1.5046-2.9948-3.1391-3.4599h-0.0016l-0.01623-0.0049-0.50135 0.73148 0.14556 0.03239c1.3586 0.32995 2.4051 1.3901 2.6523 2.7252a0.16562 0.16573 0 0 0 0.0031 0.01623l0.03234 0.19743 0.01299 0.08253c0.08066 0.62302 0.24997 1.057 0.56118 1.3901 0.31122 0.33308 0.7438 0.55758 1.3342 0.81725a0.16562 0.16573 0 0 0 0.0031 0.0016c5.5e-5 2.2e-5 0.0027-1.26e-4 0.0031 0 6.21e-4 2.11e-4 0.0035 0.0011 0.0049 0.0016l3.9364 1.7284-9.0469 5.1333v-2.8288c0-0.56727 0.02351-0.87404 0.14232-1.0907 0.11882-0.2167 0.35685-0.39345 0.86037-0.66998 0.20124-0.11048 0.40557-0.22549 0.62749-0.35118l0.13424-0.07605 0.0031-0.0016c0.65991-0.3513 1.1966-0.86898 1.5914-1.4808 0.0049-0.0074 0.03264-0.04953 0.05983-0.09062l-0.66145-0.56156c-0.31923 0.58119-0.78186 1.0735-1.3714 1.3966a0.16562 0.16573 0 0 0-0.0016 0l-0.1585 0.09062v-0.0016c-0.21713 0.12266-0.43868 0.24515-0.63881 0.35441-0.63597 0.34921-1.0078 0.64479-1.2113 1.0325-0.20354 0.38769-0.2248 0.83174-0.2248 1.4516v2.8271l-9.134-5.2271 3.8329-1.6669 0.26846-0.1149a0.16562 0.16573 0 0 0 0.0081-0.0031c0.08604-0.04156 0.42286-0.17054 0.62426-0.1764a0.16562 0.16573 0 0 0 0.0049 0c0.24359-0.01495 0.57587 0.01299 0.72938 0.20715l0.59191 0.7428c0.46746 0.60271 1.0795 1.0969 1.8113 1.3982 0.0057 0.0039 0.01158 0.0082 0.01773 0.01122a0.16562 0.16573 0 0 0 0.01122 0.0049c0.14336 0.05826 0.28619 0.08712 0.42857 0.12137l0.49488-0.72177c-0.26987-0.05807-0.5632-0.14083-0.7876-0.2476a0.16562 0.16573 0 0 0-0.0031 0c-0.52081-0.2463-0.9676-0.59021-1.31-1.0293a0.16562 0.16573 0 0 0-0.0064-0.0081c-0.0117-0.01328-0.02115-0.02709-0.03074-0.04208a0.16562 0.16573 0 0 0-0.0099-0.01122c-0.03744-0.04866-0.0715-0.09276-0.10027-0.13595a0.16562 0.16573 0 0 0-0.0049-0.0081c-0.09656-0.12934-0.24366-0.3215-0.44797-0.57774-0.16145-0.20406-0.38097-0.33332-0.60485-0.41429a0.16562 0.16573 0 0 0-0.07116-0.0096c-0.22647-0.07115-0.47149-0.11209-0.73762-0.11006a0.16562 0.16573 0 0 0-0.0031 0c-0.2373 0.0079-0.47095 0.07174-0.65013 0.1327-0.08961 0.03049-0.16546 0.06125-0.21995 0.08415-0.02725 0.01158-0.0491 0.0205-0.06467 0.02753-0.0156 7e-3 -0.03936 0.01878-0.02264 0.01122l-0.1407 0.0599-0.0081 0.0031a0.16562 0.16573 0 0 0-0.0065 0.0016l-0.37682 0.16183 0.03234-0.0098c-5.17e-4 1.01e-4 -0.0383 0.01795-0.05823 0.02753 0.0043-0.0035 0.01087-0.0094 0.01122-0.0098l-3.1147 1.3559 9.0388-14.338v5.8939c0 0.55462-0.02633 0.86505-0.1504 1.0907-0.12407 0.22569-0.36798 0.41109-0.87493 0.6894-0.078 0.04187-0.15724 0.08122-0.23774 0.11814a0.16562 0.16573 0 0 0-0.0031 0.0016l-0.13424 0.06636c-0.03579 0.01623-0.06551 0.03118-0.09056 0.0437a0.16562 0.16573 0 0 0-0.0064 0.0031c-1.3569 0.64779-2.3138 1.9463-2.4501 3.4697l0.82156 0.29453c0.02877-1.3247 0.83665-2.4662 2.007-3.0214a0.16562 0.16573 0 0 0 0.0049-0.0031c3e-3 -0.0012 0.0035-4.4e-5 0.0064-0.0016a0.16562 0.16573 0 0 0 0.0016 0c0.06976-0.03548 0.14099-0.07033 0.21185-0.10357 0.26937-0.12476 0.52794-0.27134 0.77304-0.43856l0.0031-0.0016c0.04564-0.02979 0.07795-0.0569 0.10513-0.07605a0.16562 0.16573 0 0 0 0.0016-0.0016c0.07906-0.05714 0.15342-0.11649 0.21994-0.17477 0.03384-0.0293 0.06934-0.06146 0.1035-0.10197 0.22178-0.2248 0.36406-0.47509 0.44151-0.77355 0.07789-0.30015 0.09703-0.64432 0.09703-1.0794zm-2.3046 7.8925h0.01123a0.16562 0.16573 0 0 0-0.01623 0.0031z" fill="#100aa9" fill-opacity=".21198" fill-rule="evenodd" stroke-width=".5651"/>
  <path id="path8" d="m16.965 5.3172c-0.14583-5.339e-4 -0.28207 0.072725-0.36064 0.19581a0.16562 0.16573 0 0 0 0 0.00159l-10.517 16.682a0.16562 0.16573 0 0 0-0.00158 0.0016c-0.12073 0.19711-0.052441 0.45948 0.14878 0.57288l10.517 6.0201a0.16562 0.16573 0 0 0 0 0.0016c0.13227 0.07488 0.29468 0.07488 0.42695 0l10.494-5.9537c0.09706-0.05498 0.1695-0.14637 0.19893-0.25408 0.01709-0.06386-0.01474-0.12454-0.02911-0.18772a0.16562 0.16573 0 0 0-0.02093-0.13269v-0.0016a0.16562 0.16573 0 0 0-0.01122-0.01624l-10.481-16.732a0.16562 0.16573 0 0 0-0.0016-0.00159c-0.078538-0.12306-0.21481-0.19634-0.36064-0.1958zm0.42372 1.8821 9.0695 14.476-3.773-1.6555a0.16562 0.16573 0 0 0-0.0016 0l-0.0031-0.0016c-0.46026-0.20253-0.74041-0.38129-0.92018-0.61169-0.18035-0.23115-0.27636-0.53281-0.33801-1.0195a0.16562 0.16573 0 0 0-0.0016-0.0049c1.43e-4 9.04e-4 -0.0014-0.01285-0.0031-0.02589-0.0012-0.0092-0.0026-0.02174-0.0049-0.03398l-0.0016-0.0031c-0.25516-1.6631-1.5046-2.9948-3.1391-3.4599h-0.0016l-0.01623-0.0049-0.50135 0.73148 0.14556 0.03239c1.3586 0.32995 2.4051 1.3901 2.6523 2.7252a0.16562 0.16573 0 0 0 0.0031 0.01623l0.03234 0.19743 0.01299 0.08253c0.08066 0.62302 0.24997 1.057 0.56118 1.3901 0.31122 0.33308 0.7438 0.55758 1.3342 0.81725a0.16562 0.16573 0 0 0 0.0031 0.0016c5.5e-5 2.2e-5 0.0027-1.26e-4 0.0031 0 6.21e-4 2.11e-4 0.0035 0.0011 0.0049 0.0016l3.9364 1.7284-9.0469 5.1333v-2.8288c0-0.56727 0.02351-0.87404 0.14232-1.0907 0.11882-0.2167 0.35685-0.39345 0.86037-0.66998 0.20124-0.11048 0.40557-0.22549 0.62749-0.35118l0.13424-0.07605 0.0031-0.0016c0.65991-0.3513 1.1966-0.86898 1.5914-1.4808 0.0049-0.0074 0.03264-0.04953 0.05983-0.09062l-0.66145-0.56156c-0.31923 0.58119-0.78186 1.0735-1.3714 1.3966a0.16562 0.16573 0 0 0-0.0016 0l-0.1585 0.09062v-0.0016c-0.21713 0.12266-0.43868 0.24515-0.63881 0.35441-0.63597 0.34921-1.0078 0.64479-1.2113 1.0325-0.20354 0.38769-0.2248 0.83174-0.2248 1.4516v2.8271l-9.134-5.2271 3.8329-1.6669 0.26846-0.1149a0.16562 0.16573 0 0 0 0.0081-0.0031c0.08604-0.04156 0.42286-0.17054 0.62426-0.1764a0.16562 0.16573 0 0 0 0.0049 0c0.24359-0.01495 0.57587 0.01299 0.72938 0.20715l0.59191 0.7428c0.46746 0.60271 1.0795 1.0969 1.8113 1.3982 0.0057 0.0039 0.01158 0.0082 0.01773 0.01122a0.16562 0.16573 0 0 0 0.01122 0.0049c0.14336 0.05826 0.28619 0.08712 0.42857 0.12137l0.49488-0.72177c-0.26987-0.05807-0.5632-0.14083-0.7876-0.2476a0.16562 0.16573 0 0 0-0.0031 0c-0.52081-0.2463-0.9676-0.59021-1.31-1.0293a0.16562 0.16573 0 0 0-0.0064-0.0081c-0.0117-0.01328-0.02115-0.02709-0.03074-0.04208a0.16562 0.16573 0 0 0-0.0099-0.01122c-0.03744-0.04866-0.0715-0.09276-0.10027-0.13595a0.16562 0.16573 0 0 0-0.0049-0.0081c-0.09656-0.12934-0.24366-0.3215-0.44797-0.57774-0.16145-0.20406-0.38097-0.33332-0.60485-0.41429a0.16562 0.16573 0 0 0-0.07116-0.0096c-0.22647-0.07115-0.47149-0.11209-0.73762-0.11006a0.16562 0.16573 0 0 0-0.0031 0c-0.2373 0.0079-0.47095 0.07174-0.65013 0.1327-0.08961 0.03049-0.16546 0.06125-0.21995 0.08415-0.02725 0.01158-0.0491 0.0205-0.06467 0.02753-0.0156 7e-3 -0.03936 0.01878-0.02264 0.01122l-0.1407 0.0599-0.0081 0.0031a0.16562 0.16573 0 0 0-0.0065 0.0016l-0.37682 0.16183 0.03234-0.0098c-5.17e-4 1.01e-4 -0.0383 0.01795-0.05823 0.02753 0.0043-0.0035 0.01087-0.0094 0.01122-0.0098l-3.1147 1.3559 9.0388-14.338v5.8939c0 0.55462-0.02633 0.86505-0.1504 1.0907-0.12407 0.22569-0.36798 0.41109-0.87493 0.6894-0.078 0.04187-0.15724 0.08122-0.23774 0.11814a0.16562 0.16573 0 0 0-0.0031 0.0016l-0.13424 0.06636c-0.03579 0.01623-0.06551 0.03118-0.09056 0.0437a0.16562 0.16573 0 0 0-0.0064 0.0031c-1.3569 0.64779-2.3138 1.9463-2.4501 3.4697l0.82156 0.29453c0.02877-1.3247 0.83665-2.4662 2.007-3.0214a0.16562 0.16573 0 0 0 0.0049-0.0031c3e-3 -0.0012 0.0035-4.4e-5 0.0064-0.0016a0.16562 0.16573 0 0 0 0.0016 0c0.06976-0.03548 0.14099-0.07033 0.21185-0.10357 0.26937-0.12476 0.52794-0.27134 0.77304-0.43856l0.0031-0.0016c0.04564-0.02979 0.07795-0.0569 0.10513-0.07605a0.16562 0.16573 0 0 0 0.0016-0.0016c0.07906-0.05714 0.15342-0.11649 0.21994-0.17477 0.03384-0.0293 0.06934-0.06146 0.1035-0.10197 0.22178-0.2248 0.36406-0.47509 0.44151-0.77355 0.07789-0.30015 0.09703-0.64432 0.09703-1.0794zm-2.3046 7.8925h0.01123a0.16562 0.16573 0 0 0-0.01623 0.0031z" fill="url(#linearGradient887)" fill-rule="evenodd" stroke-width=".5651"/>
 </g>
</svg>
