<?xml version="1.0" encoding="UTF-8" standalone="no"?>
<svg
   width="512"
   height="512"
   viewBox="0 0 64 64"
   version="1.1"
   id="svg5"
   sodipodi:docname="authy.svg"
   inkscape:version="1.4.4 (dcaf3e7d9e, 2026-05-05)"
   xmlns:inkscape="http://www.inkscape.org/namespaces/inkscape"
   xmlns:sodipodi="http://sodipodi.sourceforge.net/DTD/sodipodi-0.dtd"
   xmlns="http://www.w3.org/2000/svg"
   xmlns:svg="http://www.w3.org/2000/svg">
  <sodipodi:namedview
     id="namedview5"
     pagecolor="#ffffff"
     bordercolor="#999999"
     borderopacity="1"
     inkscape:showpageshadow="2"
     inkscape:pageopacity="0"
     inkscape:pagecheckerboard="0"
     inkscape:deskcolor="#d1d1d1"
     inkscape:zoom="2.2617188"
     inkscape:cx="255.77892"
     inkscape:cy="255.99999"
     inkscape:window-width="2560"
     inkscape:window-height="1371"
     inkscape:window-x="0"
     inkscape:window-y="0"
     inkscape:window-maximized="1"
     inkscape:current-layer="svg5" />
  <defs
     id="defs4">
    <linearGradient
       id="b"
       x1="7.937"
       x2="7.937"
       y1="15.081"
       y2="1.852"
       gradientTransform="translate(-.001 .03) scale(3.7796)"
       gradientUnits="userSpaceOnUse">
      <stop
         stop-color="#ec1c24"
         offset="0"
         id="stop1" />
      <stop
         stop-color="#f25a5f"
         offset="1"
         id="stop2" />
    </linearGradient>
    <linearGradient
       id="c"
       x1="31.736"
       x2="31.736"
       y1="45.776"
       y2="18.189"
       gradientUnits="userSpaceOnUse">
      <stop
         stop-color="#fad1d3"
         offset="0"
         id="stop3" />
      <stop
         stop-color="#fff"
         stop-opacity=".979"
         offset="1"
         id="stop4" />
    </linearGradient>
    <filter
       id="a"
       x="-0.026998249"
       y="-0.026998249"
       width="1.0539965"
       height="1.0539965"
       color-interpolation-filters="sRGB">
      <feGaussianBlur
         stdDeviation=".636"
         id="feGaussianBlur4" />
    </filter>
    <filter
       inkscape:collect="always"
       style="color-interpolation-filters:sRGB"
       id="filter1"
       x="-0.06698333"
       y="-0.085196457"
       width="1.1339667"
       height="1.1703929">
      <feGaussianBlur
         inkscape:collect="always"
         stdDeviation="1.0605715"
         id="feGaussianBlur1" />
    </filter>
  </defs>
  <rect
     x="3.732"
     y="3.732"
     width="56.537"
     height="56.537"
     rx="13.126"
     ry="13.126"
     filter="url(#a)"
     opacity=".15"
     id="rect4" />
  <rect
     x="3.999"
     y="3.999"
     width="56.002"
     height="56.002"
     rx="13.002"
     ry="13.002"
     fill="url(#b)"
     id="rect5" />
  <path
     d="m 39.155,18.312 c -0.413,0 -0.829,0.082 -1.22,0.24 h -0.001 a 3.23,3.23 0 0 0 -1.483,1.218 v 0.001 a 3.21,3.21 0 0 0 -0.162,0.275 v 0.002 a 3.218,3.218 0 0 0 -0.133,0.286 v 0.002 a 3.27,3.27 0 0 0 -0.22,1.532 l 0.005,0.04 c 0.02,0.174 0.052,0.346 0.099,0.515 l 0.014,0.058 v 0.002 c 0.03,0.1 0.065,0.198 0.104,0.295 v 0.002 c 0.04,0.097 0.084,0.192 0.133,0.285 0.029,0.056 0.064,0.11 0.096,0.164 0.023,0.037 0.042,0.076 0.066,0.113 l 0.002,0.002 a 3.2,3.2 0 0 0 0.41,0.504 l 0.003,0.002 5.983,5.986 0.002,0.002 c 0.138,0.138 0.268,0.282 0.389,0.43 v 0.002 c 0.121,0.148 0.235,0.3 0.338,0.456 0.062,0.093 0.114,0.192 0.17,0.288 0.038,0.066 0.08,0.13 0.116,0.196 l 0.002,0.002 a 5.67,5.67 0 0 1 0.637,3.18 5.739,5.739 0 0 1 -0.2,1.07 v 0.003 a 5.701,5.701 0 0 1 -1.02,1.974 v 0.002 c -0.118,0.15 -0.247,0.293 -0.383,0.433 a 5.699,5.699 0 0 1 -1.887,1.225 h -0.002 a 5.709,5.709 0 0 1 -3.148,0.3 c -0.023,-0.004 -0.046,-0.006 -0.07,-0.011 h -0.001 c -0.036,-0.007 -0.07,-0.018 -0.106,-0.025 a 5.68,5.68 0 0 1 -1.284,-0.452 c -0.053,-0.026 -0.108,-0.047 -0.16,-0.074 h -0.002 c -0.061,-0.033 -0.119,-0.073 -0.179,-0.108 a 5.7,5.7 0 0 1 -0.567,-0.375 c -0.065,-0.048 -0.132,-0.092 -0.195,-0.143 h -0.002 a 5.84,5.84 0 0 1 -0.39,-0.353 c -0.012,-0.013 -0.027,-0.024 -0.04,-0.037 l -5.99,-5.99 a 3.195,3.195 0 0 0 -0.78,-0.573 l -0.002,-0.002 a 3.21,3.21 0 0 0 -0.286,-0.131 l -0.002,-0.002 a 3.293,3.293 0 0 0 -1.206,-0.235 h -0.017 c -0.312,0 -0.623,0.045 -0.924,0.133 a 3.21,3.21 0 0 0 -2.255,2.484 v 0.002 A 3.294,3.294 0 0 0 23.4,34.704 l 0.007,0.044 c 0.005,0.025 0.013,0.05 0.019,0.074 a 3.231,3.231 0 0 0 0.158,0.528 l 0.002,0.002 c 0.039,0.097 0.082,0.192 0.13,0.286 l 0.003,0.001 c 0.049,0.094 0.103,0.186 0.162,0.275 0.025,0.039 0.055,0.074 0.081,0.111 0.1,0.138 0.207,0.271 0.332,0.395 l 0.002,0.002 5.983,5.985 0.001,0.002 a 12.12,12.12 0 0 0 2.895,2.142 l 0.002,10e-4 c 0.173,0.092 0.348,0.18 0.524,0.262 l 0.002,0.002 a 12.146,12.146 0 0 0 1.081,0.444 c 1.274,0.455 2.61,0.692 3.947,0.712 h 0.022 a 12.33,12.33 0 0 0 2.294,-0.186 h 0.002 a 12.143,12.143 0 0 0 5.323,-2.347 h 0.002 c 0.318,-0.246 0.627,-0.51 0.926,-0.792 0.031,-0.027 0.067,-0.057 0.118,-0.105 a 1.026,1.026 0 0 0 0.026,-0.026 c 0.018,-0.018 0.019,-0.022 0.03,-0.034 l 0.033,-0.033 0.011,-0.013 0.004,-0.003 c 0.09,-0.085 0.136,-0.144 0.17,-0.186 0.141,-0.15 0.277,-0.3 0.408,-0.455 V 41.79 c 0.132,-0.154 0.258,-0.31 0.38,-0.47 v -10e-4 a 12.131,12.131 0 0 0 0.983,-1.492 v -0.002 c 0.192,-0.344 0.365,-0.693 0.52,-1.05 v -0.002 a 12.146,12.146 0 0 0 0.581,-1.643 v -0.002 c 0.153,-0.558 0.266,-1.125 0.339,-1.696 V 35.43 A 12.331,12.331 0 0 0 50.864,32.064 L 50.855,31.987 A 10.97,10.97 0 0 0 50.753,31.422 V 31.42 c -0.008,-0.043 -0.02,-0.085 -0.029,-0.128 -0.06,-0.28 -0.13,-0.56 -0.21,-0.837 -0.016,-0.052 -0.029,-0.104 -0.044,-0.156 A 12.18,12.18 0 0 0 49.844,28.67 L 49.842,28.668 C 49.8,28.58 49.754,28.494 49.711,28.406 49.667,28.319 49.626,28.229 49.58,28.142 a 12.083,12.083 0 0 0 -0.29,-0.513 v -0.002 c -0.1,-0.169 -0.207,-0.337 -0.316,-0.502 v -0.002 c -0.11,-0.165 -0.226,-0.327 -0.344,-0.487 v -0.002 a 11.88,11.88 0 0 0 -0.37,-0.475 l -10e-4,-0.002 c -0.128,-0.156 -0.26,-0.31 -0.395,-0.46 l -0.002,-0.002 c -0.136,-0.151 -0.277,-0.3 -0.422,-0.444 l -0.002,-0.002 -5.987,-5.985 -0.002,-0.002 a 3.2,3.2 0 0 0 -0.396,-0.331 c -0.037,-0.027 -0.072,-0.057 -0.11,-0.082 h -10e-4 a 3.232,3.232 0 0 0 -0.275,-0.164 h -0.002 c -0.03,-0.015 -0.061,-0.027 -0.091,-0.042 a 3.256,3.256 0 0 0 -1.42,-0.331 z m -13.908,2.222 a 12.194,12.194 0 0 0 -8.54,3.324 L 16.7,23.864 c -0.046,0.04 -0.091,0.08 -0.135,0.124 a 1.026,1.026 0 0 0 -0.003,0.003 c -0.07,0.07 -0.074,0.075 -0.038,0.042 a 2.402,2.402 0 0 0 -0.198,0.206 c -0.004,0.003 -0.005,0.007 -0.008,0.01 -4.505,4.776 -4.423,12.342 0.246,17.01 l 5.986,5.987 a 3.263,3.263 0 0 0 4.588,0 3.256,3.256 0 0 0 10e-4,-4.585 l -5.988,-5.989 a 5.717,5.717 0 0 1 -0.055,-8.037 5.715,5.715 0 0 1 8.036,0.054 l 5.988,5.987 a 3.26,3.26 0 0 0 4.588,0 3.258,3.258 0 0 0 0,-4.586 l -5.989,-5.988 a 12.174,12.174 0 0 0 -8.472,-3.568 z"
     fill="url(#c)"
     id="path5"
     style="opacity:0.35;fill:#000000;fill-opacity:1;filter:url(#filter1)" />
  <path
     d="m 39.15535,17 c -0.413,0 -0.829,0.082 -1.22,0.24 h -10e-4 a 3.23,3.23 0 0 0 -1.483,1.218 v 0.001 a 3.21,3.21 0 0 0 -0.162,0.275 v 0.002 a 3.218,3.218 0 0 0 -0.133,0.286 v 0.002 a 3.27,3.27 0 0 0 -0.22,1.532 l 0.005,0.04 c 0.02,0.174 0.052,0.346 0.099,0.515 l 0.014,0.058 v 0.002 c 0.03,0.1 0.065,0.198 0.104,0.295 v 0.002 c 0.04,0.097 0.084,0.192 0.133,0.285 0.029,0.056 0.064,0.11 0.096,0.164 0.023,0.037 0.042,0.076 0.066,0.113 l 0.002,0.002 a 3.2,3.2 0 0 0 0.41,0.504 l 0.003,0.002 5.983,5.986 0.002,0.002 c 0.138,0.138 0.268,0.282 0.389,0.43 v 0.002 c 0.121,0.148 0.235,0.3 0.338,0.456 0.062,0.093 0.114,0.192 0.17,0.288 0.038,0.066 0.08,0.13 0.116,0.196 l 0.002,0.002 a 5.67,5.67 0 0 1 0.637,3.18 5.739,5.739 0 0 1 -0.2,1.07 v 0.003 a 5.701,5.701 0 0 1 -1.02,1.974 v 0.002 c -0.118,0.15 -0.247,0.293 -0.383,0.433 a 5.699,5.699 0 0 1 -1.887,1.225 h -0.002 a 5.709,5.709 0 0 1 -3.148,0.3 c -0.023,-0.004 -0.046,-0.006 -0.07,-0.011 h -10e-4 c -0.036,-0.007 -0.07,-0.018 -0.106,-0.025 a 5.68,5.68 0 0 1 -1.284,-0.452 c -0.053,-0.026 -0.108,-0.047 -0.16,-0.074 h -0.002 c -0.061,-0.033 -0.119,-0.073 -0.179,-0.108 a 5.7,5.7 0 0 1 -0.567,-0.375 c -0.065,-0.048 -0.132,-0.092 -0.195,-0.143 h -0.002 a 5.84,5.84 0 0 1 -0.39,-0.353 c -0.012,-0.013 -0.027,-0.024 -0.04,-0.037 l -5.99,-5.99 a 3.195,3.195 0 0 0 -0.78,-0.573 l -0.002,-0.002 a 3.21,3.21 0 0 0 -0.286,-0.131 l -0.002,-0.002 a 3.293,3.293 0 0 0 -1.206,-0.235 h -0.017 c -0.312,0 -0.623,0.045 -0.924,0.133 a 3.21,3.21 0 0 0 -2.255,2.484 v 0.002 a 3.294,3.294 0 0 0 -0.007,1.197 l 0.007,0.044 c 0.005,0.025 0.013,0.05 0.019,0.074 a 3.231,3.231 0 0 0 0.158,0.528 l 0.002,0.002 c 0.039,0.097 0.082,0.192 0.13,0.286 l 0.003,10e-4 c 0.049,0.094 0.103,0.186 0.162,0.275 0.025,0.039 0.055,0.074 0.081,0.111 0.1,0.138 0.207,0.271 0.332,0.395 l 0.002,0.002 5.983,5.985 10e-4,0.002 a 12.12,12.12 0 0 0 2.895,2.142 l 0.002,0.001 c 0.173,0.092 0.348,0.18 0.524,0.262 l 0.002,0.002 a 12.146,12.146 0 0 0 1.081,0.444 c 1.274,0.455 2.61,0.692 3.947,0.712 h 0.022 a 12.33,12.33 0 0 0 2.294,-0.186 h 0.002 a 12.143,12.143 0 0 0 5.323,-2.347 h 0.002 c 0.318,-0.246 0.627,-0.51 0.926,-0.792 0.031,-0.027 0.067,-0.057 0.118,-0.105 a 1.026,1.026 0 0 0 0.026,-0.026 c 0.018,-0.018 0.019,-0.022 0.03,-0.034 l 0.033,-0.033 0.011,-0.013 0.004,-0.003 c 0.09,-0.085 0.136,-0.144 0.17,-0.186 0.141,-0.15 0.277,-0.3 0.408,-0.455 v -0.002 c 0.132,-0.154 0.258,-0.31 0.38,-0.47 v -0.001 a 12.131,12.131 0 0 0 0.983,-1.492 v -0.002 c 0.192,-0.344 0.365,-0.693 0.52,-1.05 v -0.002 a 12.146,12.146 0 0 0 0.581,-1.643 v -0.002 c 0.153,-0.558 0.266,-1.125 0.339,-1.696 v -0.002 a 12.331,12.331 0 0 0 -0.039,-3.366 l -0.009,-0.077 a 10.97,10.97 0 0 0 -0.102,-0.565 v -0.002 c -0.008,-0.043 -0.02,-0.085 -0.029,-0.128 -0.06,-0.28 -0.13,-0.56 -0.21,-0.837 -0.016,-0.052 -0.029,-0.104 -0.044,-0.156 a 12.18,12.18 0 0 0 -0.626,-1.629 l -0.002,-0.002 c -0.042,-0.088 -0.088,-0.174 -0.131,-0.262 -0.044,-0.087 -0.085,-0.177 -0.131,-0.264 a 12.083,12.083 0 0 0 -0.29,-0.513 v -0.002 c -0.1,-0.169 -0.207,-0.337 -0.316,-0.502 v -0.002 c -0.11,-0.165 -0.226,-0.327 -0.344,-0.487 v -0.002 a 11.88,11.88 0 0 0 -0.37,-0.475 l -0.001,-0.002 c -0.128,-0.156 -0.26,-0.31 -0.395,-0.46 l -0.002,-0.002 c -0.136,-0.151 -0.277,-0.3 -0.422,-0.444 l -0.002,-0.002 -5.987,-5.985 -0.002,-0.002 a 3.2,3.2 0 0 0 -0.396,-0.331 c -0.037,-0.027 -0.072,-0.057 -0.11,-0.082 h -0.001 a 3.232,3.232 0 0 0 -0.275,-0.164 h -0.002 c -0.03,-0.015 -0.061,-0.027 -0.091,-0.042 A 3.256,3.256 0 0 0 39.15435,17 Z m -13.908,2.222 a 12.194,12.194 0 0 0 -8.54,3.324 l -0.007,0.006 c -0.046,0.04 -0.091,0.08 -0.135,0.124 a 1.026,1.026 0 0 0 -0.003,0.003 c -0.07,0.07 -0.074,0.075 -0.038,0.042 a 2.402,2.402 0 0 0 -0.198,0.206 c -0.004,0.003 -0.005,0.007 -0.008,0.01 -4.505,4.776 -4.423,12.342 0.246,17.01 l 5.986,5.987 a 3.263,3.263 0 0 0 4.588,0 3.256,3.256 0 0 0 0.001,-4.585 l -5.988,-5.989 a 5.717,5.717 0 0 1 -0.055,-8.037 5.715,5.715 0 0 1 8.036,0.054 l 5.988,5.987 a 3.26,3.26 0 0 0 4.588,0 3.258,3.258 0 0 0 0,-4.586 l -5.989,-5.988 a 12.174,12.174 0 0 0 -8.472,-3.568 z"
     fill="url(#c)"
     id="path5-6"
     style="fill:#ffffff;fill-opacity:1" />
</svg>
