<?xml version="1.0" encoding="UTF-8"?>
<svg id="svg30" width="64" height="64" version="1.1" xmlns="http://www.w3.org/2000/svg" xmlns:cc="http://creativecommons.org/ns#" xmlns:dc="http://purl.org/dc/elements/1.1/" xmlns:rdf="http://www.w3.org/1999/02/22-rdf-syntax-ns#">
 <metadata id="metadata36">
  <rdf:RDF>
   <cc:Work rdf:about="">
    <dc:format>image/svg+xml</dc:format>
    <dc:type rdf:resource="http://purl.org/dc/dcmitype/StillImage"/>
    <dc:title/>
   </cc:Work>
  </rdf:RDF>
 </metadata>
 <defs id="defs34">
  <style id="style863" type="text/css"/>
  <filter id="filter1057" x="-.027" y="-.027" width="1.054" height="1.054" color-interpolation-filters="sRGB">
   <feGaussianBlur id="feGaussianBlur865" stdDeviation="0.61875"/>
  </filter>
  <linearGradient id="linearGradient1053" x1="-127" x2="-127" y1="5.01" y2="60.01" gradientTransform="translate(131.5 -.51)" gradientUnits="userSpaceOnUse">
   <stop id="stop868" stop-color="#32d7ff" offset="0"/>
   <stop id="stop870" stop-color="#329bff" offset="1"/>
  </linearGradient>
  <style id="style873" type="text/css"/>
  <style id="style875" type="text/css"/>
  <style id="style877" type="text/css"/>
  <style id="style879" type="text/css"/>
  <style id="style881" type="text/css"/>
  <style id="style883" type="text/css"/>
  <style id="style885" type="text/css"/>
  <style id="style4" type="text/css"/>
  <style id="style6" type="text/css"/>
  <style id="style8" type="text/css"/>
 </defs>
 <circle id="circle889" cx="-1124.8" cy="-1279.3" r="0" fill="#5e4aa6"/>
 <circle id="circle891" cx="-1006.3" cy="-1318.6" r="0" fill="#5e4aa6"/>
 <circle id="circle893" cx="93.192" cy="-53.109" r="0" fill="#5e4aa6" fill-rule="evenodd"/>
 <circle id="circle895" cx="-927.84" cy="-1390.1" r="0" fill="#5e4aa6"/>
 <circle id="circle897" cx="171.69" cy="-124.58" r="0" fill="#5e4aa6" fill-rule="evenodd"/>
 <rect id="rect901" x="4.5" y="4.5" width="55" height="55" ry="15" fill="#141414" filter="url(#filter1057)" opacity=".3" stroke-linecap="round" stroke-width="2.7444"/>
 <rect id="rect903" x="4.5" y="4.5" width="55" height="55" ry="15" fill="url(#linearGradient1053)" stroke-linecap="round" stroke-width="2.7444"/>
 <path id="path982" d="m32.076 13c-0.71326-0.002046-1.4269 0.036254-2.1387 0.11523-0.55085 0.0608-0.95993 0.53606-0.94141 1.0879 0.06193 1.7618-0.98197 3.3893-2.6016 4.0527-1.5531 0.6344-3.5729 0.17277-4.7031-1.0703-0.37355-0.40946-0.9984-0.46028-1.4336-0.12109-1.1387 0.89343-2.1749 1.9167-3.0742 3.0391-0.35078 0.43632-0.29929 1.068 0.11328 1.4434 1.3224 1.1976 1.7495 3.1041 1.0625 4.7422-0.6559 1.5618-2.2782 2.5684-4.1348 2.5684-0.60245-0.01937-1.0318 0.3839-1.0977 0.93164-0.16712 1.4274-0.16871 2.8832-0.007812 4.3223 0.05966 0.53642 0.70161 0.93359 1.2461 0.93359 1.6545-0.04228 3.2438 0.98194 3.9102 2.6035 0.66424 1.6194 0.23713 3.5059-1.0625 4.6973-0.40649 0.3734-0.45782 0.9994-0.11524 1.4336 0.88282 1.1245 1.896 2.1458 3.0059 3.0391 0.43533 0.35078 1.068 0.30254 1.4453-0.11328 1.1368-1.2574 3.1706-1.7236 4.7363-1.0664 1.64 0.68601 2.6713 2.3446 2.5703 4.125-0.03294 0.55919 0.37865 1.0455 0.93359 1.1094 0.72601 0.08469 1.4551 0.12695 2.1875 0.12695 0.6952 0 1.3907-0.037884 2.0859-0.11523 0.55099-0.0608 0.95993-0.53506 0.94141-1.0879-0.06376-1.7608 0.98214-3.3905 2.5996-4.0527 1.5636-0.63865 3.5747-0.17149 4.7051 1.0703 0.37567 0.40861 0.996 0.45915 1.4336 0.12109 1.1366-0.89131 2.1706-1.9136 3.0742-3.0391 0.35064-0.43533 0.3014-1.0701-0.11328-1.4453-1.3224-1.1976-1.7515-3.1013-1.0645-4.7383 0.64586-1.541 2.2072-2.5762 3.8867-2.5762l0.23438 0.005859c0.54476 0.04425 1.0473-0.37556 1.1133-0.93164 0.1674-1.4287 0.1688-2.8813 0.007812-4.3203-0.06009-0.53416-0.68411-0.93555-1.2227-0.93555-1.7412 0-3.2856-1.0224-3.9336-2.6035-0.66197-1.6195-0.23515-3.5089 1.0625-4.6992 0.40848-0.3734 0.45779-0.99744 0.11524-1.4316-0.89117-1.1317-1.9038-2.1551-3.0098-3.041-0.43307-0.34753-1.0678-0.29864-1.4434 0.11719-1.1325 1.2542-3.1663 1.7204-4.7383 1.0645-1.6359-0.68814-2.6674-2.3456-2.5664-4.125 0.03322-0.5589-0.37639-1.0445-0.93359-1.1094-0.70962-0.082076-1.4215-0.12491-2.1348-0.12695zm4.3672 8.7363c0.48743 0 0.834 0.056041 1.2852 0.17383 0.65796 0.1726 1.197 0.7124 1.1973 1.3398 2.85e-4 0.75855-0.55212 1.3086-1.375 1.3086-0.39203 0-0.53345-0.074219-1.1074-0.074219-1.694 0-3.0675 1.3724-3.0703 3.0664v2.6543c0 0.23974 0.19405 0.43359 0.43359 0.43359h2.0176c0.75144 0 1.3588 0.60209 1.3594 1.3555 0 0.75375-0.60823 1.3535-1.3594 1.3535h-2.4512v3.0977c0 3.2128-2.6037 5.8184-5.8164 5.8184-0.48753 0-0.83399-0.055968-1.2852-0.17383-0.65796-0.17247-1.197-0.71258-1.1973-1.3398 0-0.7583 0.55178-1.3086 1.375-1.3086 0.39163 0 0.53375 0.074219 1.1074 0.074219 1.694 0 3.0676-1.371 3.0703-3.0645v-2.6699c0-0.2392-0.19406-0.43164-0.43359-0.43164h-2.0176c-0.75163 0-1.3594-0.59958-1.3594-1.3535-2.02e-4 -0.75812 0.61341-1.3555 1.373-1.3555h2.4375v-3.0859c0-3.2131 2.6032-5.8184 5.8164-5.8184z" fill="#fff"/>
 <g id="g70" transform="translate(77.274)" fill="#5e4aa6">
  <g id="g32" transform="translate(-80.134,-57.985)" image-rendering="optimizeSpeed">
   <circle id="circle24" cx="-1248.7" cy="-1241.6" r="0"/>
   <circle id="circle26" cx="-149.15" cy="23.855" r="0" fill-rule="evenodd"/>
   <circle id="circle28" cx="-1248.7" cy="-1241.6" r="0"/>
   <circle id="circle30" cx="-149.15" cy="23.855" r="0" fill-rule="evenodd"/>
  </g>
  <circle id="circle34" cx="-1248.7" cy="-1241.6" r="0"/>
  <circle id="circle36" cx="-149.15" cy="23.855" r="0" fill-rule="evenodd"/>
  <g id="g68" transform="matrix(3.7796,0,0,3.7796,5.8415e-4,-1.7177e-4)" stroke-width=".26458">
   <g id="g46" transform="translate(-.0272 .0065001)">
    <circle id="circle38" cx="-330.35" cy="-328.38" r="0"/>
    <circle id="circle40" cx="-312.11" cy="-326.25" r="0"/>
    <circle id="circle42" cx="-306.02" cy="-333.07" r="0"/>
    <circle id="circle44" cx="-308.84" cy="-326.01" r="0"/>
   </g>
   <g id="g56" transform="translate(-.0272 .0065001)">
    <circle id="circle48" cx="-330.35" cy="-328.38" r="0"/>
    <circle id="circle50" cx="-312.11" cy="-326.25" r="0"/>
    <circle id="circle52" cx="-306.02" cy="-333.07" r="0"/>
    <circle id="circle54" cx="-308.84" cy="-326.01" r="0"/>
   </g>
   <g id="g66" transform="translate(-.02705 .0064503)">
    <circle id="circle58" cx="-330.35" cy="-328.38" r="0"/>
    <circle id="circle60" cx="-312.11" cy="-326.25" r="0"/>
    <circle id="circle62" cx="-306.02" cy="-333.07" r="0"/>
    <circle id="circle64" cx="-308.84" cy="-326.01" r="0"/>
   </g>
  </g>
 </g>
 <g id="g30" transform="translate(-1.9244 -30.995)" fill="#5e4aa6">
  <circle id="circle24-6" cx="-1248.7" cy="-1241.6" r="0"/>
  <circle id="circle26-7" cx="-1140.3" cy="-1301.8" r="0"/>
  <circle id="circle28-5" cx="-1158.1" cy="-1246" r="0"/>
 </g>
 <circle id="circle36-3" cx="-1159.2" cy="-1298.7" r="0" fill="#5e4aa6"/>
 <circle id="circle38-5" cx="-59.68" cy="-33.178" r="0" fill="#5e4aa6" fill-rule="evenodd"/>
</svg>
