<?xml version="1.0" encoding="UTF-8"?>
<svg id="svg1443" width="128" height="128" version="1.1" viewBox="0 0 33.867 33.867" xmlns="http://www.w3.org/2000/svg" xmlns:cc="http://creativecommons.org/ns#" xmlns:dc="http://purl.org/dc/elements/1.1/" xmlns:rdf="http://www.w3.org/1999/02/22-rdf-syntax-ns#" xmlns:xlink="http://www.w3.org/1999/xlink">
 <defs id="defs1437">
  <linearGradient id="linearGradient1632" x1="132.21" x2="132.21" y1="42.152" y2="70.68" gradientTransform="matrix(.97573 0 0 .97573 -111.77 -37.183)" gradientUnits="userSpaceOnUse">
   <stop id="stop1626" stop-color="#fafafc" offset="0"/>
   <stop id="stop1628" stop-color="#e2e6ea" offset="1"/>
  </linearGradient>
  <radialGradient id="radialGradient885" cx="19.466" cy="15.308" r="3.5434" gradientTransform="matrix(3.4491 0 0 3.4487 -50.155 -35.004)" gradientUnits="userSpaceOnUse">
   <stop id="stop877" stop-color="#402dbb" offset="0"/>
   <stop id="stop879" stop-color="#055ccb" offset="1"/>
  </radialGradient>
  <linearGradient id="linearGradient895" x1="31.252" x2="13.065" y1="41.13" y2="10.003" gradientUnits="userSpaceOnUse">
   <stop id="stop889" stop-color="#e6e9ed" offset="0"/>
   <stop id="stop891" stop-color="#e6e9ed" stop-opacity="0" offset="1"/>
  </linearGradient>
 </defs>
 <metadata id="metadata1440">
  <rdf:RDF>
   <cc:Work rdf:about="">
    <dc:format>image/svg+xml</dc:format>
    <dc:type rdf:resource="http://purl.org/dc/dcmitype/StillImage"/>
    <dc:title/>
   </cc:Work>
  </rdf:RDF>
 </metadata>
 <g id="layer1">
  <g id="g1702" transform="matrix(.97573 0 0 .97573 -65.737 -37.183)" fill="none" opacity=".295" stroke="#000" stroke-linecap="round" stroke-linejoin="round" stroke-opacity=".02">
   <rect id="rect1634" x="69.84" y="40.71" width="29.811" height="29.811" rx="6.6099" ry="6.6099" stroke-width=".1"/>
   <rect id="rect1638" x="69.84" y="40.71" width="29.811" height="29.811" rx="6.6099" ry="6.6099" stroke-width=".2"/>
   <rect id="rect1640" x="69.84" y="40.71" width="29.811" height="29.811" rx="6.6099" ry="6.6099" stroke-width=".3"/>
   <rect id="rect1642" x="69.84" y="40.71" width="29.811" height="29.811" rx="6.6099" ry="6.6099" stroke-width=".4"/>
   <rect id="rect1644" x="69.84" y="40.71" width="29.811" height="29.811" rx="6.6099" ry="6.6099" stroke-width=".5"/>
   <rect id="rect1646" x="69.84" y="40.71" width="29.811" height="29.811" rx="6.6099" ry="6.6099" stroke-width=".6"/>
   <rect id="rect1648" x="69.84" y="40.71" width="29.811" height="29.811" rx="6.6099" ry="6.6099" stroke-width=".7"/>
   <rect id="rect1650" x="69.84" y="40.71" width="29.811" height="29.811" rx="6.6099" ry="6.6099" stroke-width=".8"/>
   <rect id="rect1652" x="69.84" y="40.71" width="29.811" height="29.811" rx="6.6099" ry="6.6099"/>
   <rect id="rect1654" x="69.84" y="40.71" width="29.811" height="29.811" rx="6.6099" ry="6.6099" stroke-width="1.2"/>
   <rect id="rect1656" x="69.84" y="40.71" width="29.811" height="29.811" rx="6.6099" ry="6.6099" stroke-width="1.4"/>
   <rect id="rect1658" x="69.84" y="40.71" width="29.811" height="29.811" rx="6.6099" ry="6.6099" stroke-width="1.6"/>
   <rect id="rect1660" x="69.84" y="40.71" width="29.811" height="29.811" rx="6.6099" ry="6.6099" stroke-width="1.8"/>
   <rect id="rect1662" x="69.84" y="40.71" width="29.811" height="29.811" rx="6.6099" ry="6.6099" stroke-width="2"/>
   <rect id="rect1664" x="69.84" y="40.71" width="29.811" height="29.811" rx="6.6099" ry="6.6099" stroke-width="2.2"/>
   <rect id="rect1666" x="69.84" y="40.71" width="29.811" height="29.811" rx="6.6099" ry="6.6099" stroke-width="2.6"/>
   <rect id="rect1668" x="69.84" y="40.71" width="29.811" height="29.811" rx="6.6099" ry="6.6099" stroke-width="3"/>
   <rect id="rect1670" x="69.84" y="40.71" width="29.811" height="29.811" rx="6.6099" ry="6.6099" stroke-width="3.4"/>
   <rect id="rect1672" x="69.84" y="40.71" width="29.811" height="29.811" rx="6.6099" ry="6.6099" stroke-width="3.8"/>
   <rect id="rect1674" x="69.84" y="40.71" width="29.811" height="29.811" rx="6.6099" ry="6.6099" stroke-width="4.2"/>
   <rect id="rect1676" x="69.84" y="40.71" width="29.811" height="29.811" rx="6.6099" ry="6.6099" stroke-width="4.6"/>
   <rect id="rect1678" x="69.84" y="40.71" width="29.811" height="29.811" rx="6.6099" ry="6.6099" stroke-width="5"/>
  </g>
  <rect id="rect849" x="2.4074" y="2.5392" width="29.087" height="29.087" rx="6.4495" ry="6.4495" fill="url(#linearGradient1632)" stroke-linecap="round" stroke-linejoin="round" stroke-width="2.6877"/>
  <path id="path897" d="m15.27 5.8143c-1.2934 0.19567-1.9481 1.9314-2.0168 4.4258-0.41697-0.62048-0.92557-1.0667-1.5327-0.98711-1.0894 0.20074-1.5548 1.78-1.4849 3.7916-1.8708 0.12127-3.6724 0.46004-5.2851 1.0894 1.6289-0.29638 3.455-0.37448 5.3311-0.29152 0.14152 1.3975 0.51762 2.9302 1.1252 4.3525-1.3911 1.8501-3.2981 5.299-2.0646 7.0922 0.84254 1.077 2.8093 0.71502 5.147-0.58988-0.45636 0.79816-0.7051 1.623-0.25571 2.1924 0.71266 0.81435 2.2461 0.44637 3.8888-0.58136 1.0121 1.518 2.1706 2.8749 3.4796 3.9382-1.0343-1.2377-1.9827-2.7406-2.8232-4.3644 1.1711-0.84774 2.3492-2.003 3.2938-3.304 2.2868 0.25609 6.305 0.1421 7.2184-1.86 0.46979-1.2197-0.71214-2.6482-2.842-3.9416 0.80956-0.02346 1.5165-0.23295 1.7714-0.83708 0.37761-1.0345-0.72673-2.2262-2.472-3.183 0.82996-1.6378 1.4459-3.3253 1.7287-5.0003-0.57255 1.5196-1.4193 3.0955-2.426 4.6355-1.357-0.63118-2.9905-1.1115-4.6304-1.2906-0.92609-2.1243-2.9882-5.4794-5.1504-5.2868zm12.207 1.9418c1e-3 -0.00274 0.0023-0.00548 0.0034-0.00868h-0.0017c-4.72e-4 0.00274-0.0012 0.00548-0.0017 0.00868zm-10.785 0.84391c0.89295 0.010063 1.7982 1.3412 2.7363 2.426-1.6363-0.05179-3.2059 0.23919-4.4292 1.0076 0.06452-1.7865 0.51138-3.0581 1.4253-3.3944 0.08923-0.027247 0.17825-0.04021 0.26765-0.039214zm-4.2212 2.1856c0.26458 0.02759 0.52802 0.25099 0.78935 0.54214 0.01931 0.54406 0.06264 1.1151 0.12957 1.7066-0.61761-0.03573-1.2325-0.04397-1.8447-0.03754 0.03732-1.1281 0.26247-1.9703 0.65808-2.1686 0.0895-0.03936 0.17852-0.05194 0.26765-0.04262zm6.5808 1.1695c0.54275 0.02724 1.0856 0.1104 1.623 0.21653 0.06467 0.03691 0.12924 0.07598 0.19436 0.10399-5e-3 -0.01793-0.01829-0.04759-0.02382-0.06649 1.2839 0.27175 2.4952 0.72479 3.483 1.2411-0.33666 0.47431-0.69754 0.93272-1.0587 1.3929-0.49846-0.7782-1.2575-1.4952-2.3476-2.1072v0.0017c0.90294 0.7399 1.5088 1.5191 1.8805 2.3135-2.1341-0.8004-4.6017-1.4404-7.1451-1.7731 0 0-0.11133 1.1934-0.0716 1.1252 2.9196 0.57799 5.6871 1.5029 7.677 2.5624 0.1172 3.1462-2.7006 6.2102-5.0566 7.7571-0.23716-0.50505-0.44837-1.0228-0.66319-1.5412 0.89041-0.04901 1.8539-0.33046 2.8914-0.92744-1.1085 0.40044-2.0966 0.51821-2.975 0.42451 1.8042-1.4319 3.6455-3.2461 5.2561-5.2885 0 0-0.96546-0.7072-0.92574-0.63591-2.0221 2.2397-4.2684 4.1619-6.2159 5.3226-1.6646-0.93146-2.7434-2.772-3.3671-4.7054-0.0017-0.04628 0.0015-0.09517-0.0034-0.13979-9e-3 9e-3 -0.02174 0.02657-0.03069 0.0358-0.36109-1.1518-0.55896-2.3144-0.61545-3.3449 0.5418 0.04467 1.0812 0.11818 1.623 0.18752-0.34724 0.7563-0.55583 1.6623-0.56602 2.7602 0.19039-1.0226 0.52496-1.8461 0.95984-2.5164 0.36469 2.2294 1.0258 4.6617 1.9828 7.0087 0 0 1.0904-0.49782 1.011-0.49782v-0.0034c-0.94528-2.8333-1.5104-5.706-1.5719-7.9634 1.1589-0.76724 2.5931-1.0166 4.0559-0.94279zm6.0727 1.9538c0.93263 0.59825 1.5274 1.2114 1.4969 1.6486-0.0498 0.42174-0.53729 0.58304-1.1184 0.68536-0.44265-0.23185-0.91739-0.45477-1.415-0.67172 0.36875-0.54374 0.71183-1.0997 1.0366-1.6622zm-1.0996 3.495c1.5216 0.94048 2.4064 1.9597 2.247 2.9238-0.23153 1.0219-2.0949 1.1284-3.662 1.4525 0.87098-1.402 1.4335-2.9209 1.415-4.3764zm-12.195 1.6895c0.7459 1.4392 1.7386 2.6816 2.9682 3.4114-1.5462 0.78635-2.8383 1.0067-3.5683 0.38871-0.74451-0.70739 0.07057-2.3119 0.60011-3.8001zm4.6338 4.3389c0.29772 0.60238 0.62055 1.1874 0.95813 1.7594-0.937 0.49982-1.726 0.71038-2.085 0.48077-0.37982-0.27044-0.22805-0.85525 0-1.4798 0.37019-0.23368 0.74586-0.4862 1.1269-0.76037z" enable-background="new" fill="#031f70" fill-opacity=".1727" stroke-width=".87289"/>
  <path id="path899" d="m15.444 6.1791c-1.2934 0.19567-1.9481 1.9314-2.0168 4.4258-0.41697-0.62048-0.92557-1.0667-1.5327-0.98711-1.0894 0.20074-1.5548 1.78-1.4849 3.7916-1.8708 0.12127-3.6724 0.46004-5.2851 1.0894 1.6289-0.29638 3.455-0.37448 5.3311-0.29152 0.14152 1.3975 0.51762 2.9302 1.1252 4.3525-1.3911 1.8501-3.2981 5.299-2.0646 7.0922 0.84254 1.077 2.8093 0.71502 5.147-0.58988-0.45636 0.79816-0.7051 1.623-0.25571 2.1924 0.71266 0.81435 2.2461 0.44637 3.8888-0.58136 1.0121 1.518 2.1706 2.8749 3.4796 3.9382-1.0343-1.2377-1.9827-2.7406-2.8232-4.3644 1.1711-0.84774 2.3492-2.003 3.2938-3.304 2.2868 0.25609 6.305 0.1421 7.2184-1.86 0.46979-1.2197-0.71214-2.6482-2.842-3.9416 0.80956-0.02346 1.5165-0.23295 1.7714-0.83708 0.37761-1.0345-0.72673-2.2262-2.472-3.183 0.82996-1.6378 1.4459-3.3253 1.7287-5.0003-0.57255 1.5196-1.4193 3.0955-2.426 4.6355-1.357-0.63118-2.9905-1.1115-4.6304-1.2906-0.92609-2.1243-2.9882-5.4794-5.1504-5.2868zm12.207 1.9418c1e-3 -0.00274 0.0023-0.00548 0.0034-0.00868h-0.0017c-4.72e-4 0.00274-0.0012 0.00548-0.0017 0.00868zm-10.785 0.84391c0.89295 0.010063 1.7982 1.3412 2.7363 2.426-1.6363-0.05179-3.2059 0.23919-4.4292 1.0076 0.06452-1.7865 0.51138-3.0581 1.4253-3.3944 0.08923-0.027247 0.17825-0.04021 0.26765-0.039214zm-4.2212 2.1856c0.26458 0.02759 0.52802 0.25099 0.78935 0.54214 0.01931 0.54406 0.06264 1.1151 0.12957 1.7066-0.61761-0.03573-1.2325-0.04397-1.8447-0.03754 0.03732-1.1281 0.26247-1.9703 0.65808-2.1686 0.0895-0.03936 0.17852-0.05194 0.26765-0.04262zm6.5808 1.1695c0.54275 0.02724 1.0856 0.1104 1.623 0.21653 0.06467 0.03691 0.12924 0.07598 0.19436 0.10399-5e-3 -0.01793-0.01829-0.04759-0.02382-0.06649 1.2839 0.27175 2.4952 0.72479 3.483 1.2411-0.33666 0.47431-0.69754 0.93272-1.0587 1.3929-0.49846-0.7782-1.2575-1.4952-2.3476-2.1072v0.0017c0.90294 0.7399 1.5088 1.5191 1.8805 2.3135-2.1341-0.8004-4.6017-1.4404-7.1451-1.7731 0 0-0.11133 1.1934-0.0716 1.1252 2.9196 0.57799 5.6871 1.5029 7.677 2.5624 0.1172 3.1462-2.7006 6.2102-5.0566 7.7571-0.23716-0.50505-0.44837-1.0228-0.66319-1.5412 0.89041-0.04901 1.8539-0.33046 2.8914-0.92744-1.1085 0.40044-2.0966 0.51821-2.975 0.42451 1.8042-1.4319 3.6455-3.2461 5.2561-5.2885 0 0-0.96546-0.7072-0.92574-0.63591-2.0221 2.2397-4.2684 4.1619-6.2159 5.3226-1.6646-0.93146-2.7434-2.772-3.3671-4.7054-0.0017-0.04628 0.0015-0.09517-0.0034-0.13979-9e-3 9e-3 -0.02174 0.02657-0.03069 0.0358-0.36109-1.1518-0.55896-2.3144-0.61545-3.3449 0.5418 0.04467 1.0812 0.11818 1.623 0.18752-0.34724 0.7563-0.55583 1.6623-0.56602 2.7602 0.19039-1.0226 0.52496-1.8461 0.95984-2.5164 0.36469 2.2294 1.0258 4.6617 1.9828 7.0087 0 0 1.0904-0.49782 1.011-0.49782v-0.0034c-0.94528-2.8333-1.5104-5.706-1.5719-7.9634 1.1589-0.76724 2.5931-1.0166 4.0559-0.94279zm6.0727 1.9538c0.93263 0.59825 1.5274 1.2114 1.4969 1.6486-0.0498 0.42174-0.53729 0.58304-1.1184 0.68536-0.44265-0.23185-0.91739-0.45477-1.415-0.67172 0.36875-0.54374 0.71183-1.0997 1.0366-1.6622zm-1.0996 3.495c1.5216 0.94048 2.4064 1.9597 2.247 2.9238-0.23153 1.0219-2.0949 1.1284-3.662 1.4525 0.87098-1.402 1.4335-2.9209 1.415-4.3764zm-12.195 1.6895c0.7459 1.4392 1.7386 2.6816 2.9682 3.4114-1.5462 0.78635-2.8383 1.0067-3.5683 0.38871-0.74451-0.70739 0.07057-2.3119 0.60011-3.8001zm4.6338 4.3389c0.29772 0.60238 0.62055 1.1874 0.95813 1.7594-0.937 0.49982-1.726 0.71038-2.085 0.48077-0.37982-0.27044-0.22805-0.85525 0-1.4798 0.37019-0.23368 0.74586-0.4862 1.1269-0.76037z" enable-background="new" fill="#031f70" fill-opacity=".1727" stroke-width=".87289"/>
  <path id="path901" d="m15.486 6.5426c-1.2934 0.19567-1.9481 1.9314-2.0168 4.4258-0.41697-0.62048-0.92557-1.0667-1.5327-0.98711-1.0894 0.20073-1.5548 1.78-1.4849 3.7916-1.8708 0.12127-3.6724 0.46004-5.2851 1.0894 1.6289-0.29638 3.455-0.37448 5.3311-0.29152 0.14152 1.3975 0.51762 2.9302 1.1252 4.3525-1.3911 1.8501-3.2981 5.299-2.0646 7.0922 0.84254 1.077 2.8093 0.71502 5.147-0.58988-0.45636 0.79816-0.7051 1.623-0.25571 2.1924 0.71266 0.81435 2.2461 0.44637 3.8888-0.58136 1.0121 1.518 2.1706 2.8749 3.4796 3.9382-1.0343-1.2377-1.9827-2.7406-2.8232-4.3644 1.1711-0.84774 2.3492-2.003 3.2938-3.304 2.2868 0.25609 6.305 0.1421 7.2184-1.86 0.46979-1.2197-0.71214-2.6482-2.842-3.9416 0.80956-0.02346 1.5165-0.23295 1.7714-0.83708 0.37761-1.0345-0.72673-2.2262-2.472-3.183 0.82996-1.6378 1.4459-3.3253 1.7287-5.0003-0.57255 1.5196-1.4193 3.0955-2.426 4.6355-1.357-0.63118-2.9905-1.1115-4.6304-1.2906-0.92609-2.1243-2.9882-5.4794-5.1504-5.2868zm12.207 1.9418c1e-3 -0.00274 0.0023-0.00548 0.0034-0.00868h-0.0017c-4.72e-4 0.00274-0.0012 0.00548-0.0017 0.00868zm-10.785 0.84391c0.89295 0.010063 1.7982 1.3411 2.7363 2.426-1.6363-0.05179-3.2059 0.23919-4.4292 1.0076 0.06452-1.7865 0.51138-3.0581 1.4253-3.3944 0.08923-0.027247 0.17825-0.04021 0.26765-0.039214zm-4.2212 2.1856c0.26458 0.02759 0.52802 0.25099 0.78935 0.54214 0.01931 0.54406 0.06264 1.1151 0.12957 1.7066-0.61761-0.03573-1.2325-0.04397-1.8447-0.03754 0.03732-1.1281 0.26247-1.9703 0.65808-2.1686 0.0895-0.03936 0.17852-0.05194 0.26765-0.04262zm6.5808 1.1695c0.54275 0.02724 1.0856 0.1104 1.623 0.21653 0.06467 0.03691 0.12924 0.07598 0.19436 0.10399-5e-3 -0.01793-0.01829-0.04759-0.02382-0.06649 1.2839 0.27175 2.4952 0.72479 3.483 1.2411-0.33666 0.47431-0.69754 0.93272-1.0587 1.3929-0.49846-0.7782-1.2575-1.4952-2.3476-2.1072v0.0017c0.90294 0.7399 1.5088 1.5191 1.8805 2.3135-2.1341-0.8004-4.6017-1.4404-7.1451-1.7731 0 0-0.11133 1.1934-0.0716 1.1252 2.9196 0.57799 5.6871 1.5029 7.677 2.5624 0.1172 3.1462-2.7006 6.2102-5.0566 7.7571-0.23716-0.50505-0.44837-1.0228-0.66319-1.5412 0.89041-0.04901 1.8539-0.33046 2.8914-0.92744-1.1085 0.40044-2.0966 0.51821-2.975 0.42451 1.8042-1.4319 3.6455-3.2461 5.2561-5.2885 0 0-0.96546-0.7072-0.92574-0.63591-2.0221 2.2397-4.2684 4.1619-6.2159 5.3226-1.6646-0.93146-2.7434-2.772-3.3671-4.7054-0.0017-0.04628 0.0015-0.09517-0.0034-0.13979-9e-3 9e-3 -0.02174 0.02657-0.03069 0.0358-0.36109-1.1518-0.55896-2.3144-0.61545-3.3449 0.5418 0.04467 1.0812 0.11818 1.623 0.18752-0.34724 0.7563-0.55583 1.6623-0.56602 2.7602 0.19039-1.0226 0.52496-1.8461 0.95984-2.5164 0.36469 2.2294 1.0258 4.6617 1.9828 7.0087 0 0 1.0904-0.49782 1.011-0.49782v-0.0034c-0.94528-2.8333-1.5104-5.706-1.5719-7.9634 1.1589-0.76724 2.5931-1.0166 4.0559-0.94279zm6.0727 1.9538c0.93263 0.59825 1.5274 1.2114 1.4969 1.6486-0.0498 0.42174-0.53729 0.58304-1.1184 0.68536-0.44265-0.23185-0.91739-0.45477-1.415-0.67172 0.36875-0.54374 0.71183-1.0997 1.0366-1.6622zm-1.0996 3.495c1.5216 0.94048 2.4064 1.9597 2.247 2.9238-0.23153 1.0219-2.0949 1.1284-3.662 1.4525 0.87098-1.402 1.4335-2.9209 1.415-4.3764zm-12.195 1.6895c0.7459 1.4392 1.7386 2.6816 2.9682 3.4114-1.5462 0.78635-2.8383 1.0067-3.5683 0.38871-0.74451-0.70739 0.07057-2.3119 0.60011-3.8001zm4.6338 4.3389c0.29772 0.60238 0.62055 1.1874 0.95813 1.7594-0.937 0.49982-1.726 0.71038-2.085 0.48077-0.37982-0.27044-0.22805-0.85525 0-1.4798 0.37019-0.23368 0.74586-0.4862 1.1269-0.76037z" enable-background="new" fill="#031f70" fill-opacity=".1727" stroke-width=".87289"/>
  <path id="path862" d="m15.082 5.5775c-1.2934 0.19567-1.9481 1.9314-2.0168 4.4258-0.41697-0.62048-0.92557-1.0667-1.5327-0.98711-1.0894 0.20074-1.5548 1.78-1.4849 3.7916-1.8708 0.12127-3.6724 0.46004-5.2851 1.0894 1.6289-0.29638 3.455-0.37448 5.3311-0.29152 0.14152 1.3975 0.51762 2.9302 1.1252 4.3525-1.3911 1.8501-3.2981 5.299-2.0646 7.0922 0.84254 1.077 2.8093 0.71502 5.147-0.58988-0.45636 0.79816-0.7051 1.623-0.25571 2.1924 0.71266 0.81435 2.2461 0.44637 3.8888-0.58136 1.0121 1.518 2.1706 2.8749 3.4796 3.9382-1.0343-1.2377-1.9827-2.7406-2.8232-4.3644 1.1711-0.84774 2.3492-2.003 3.2938-3.304 2.2868 0.25609 6.305 0.1421 7.2184-1.86 0.46979-1.2197-0.71214-2.6482-2.842-3.9416 0.80956-0.02346 1.5165-0.23295 1.7714-0.83708 0.37761-1.0345-0.72673-2.2262-2.472-3.183 0.82996-1.6378 1.4459-3.3253 1.7287-5.0004-0.57255 1.5196-1.4193 3.0955-2.426 4.6355-1.357-0.63118-2.9905-1.1115-4.6304-1.2906-0.92609-2.1243-2.9882-5.4794-5.1504-5.2868zm12.207 1.9418c1e-3 -0.00274 0.0023-0.00548 0.0034-0.00868h-0.0017c-4.72e-4 0.00274-0.0012 0.00548-0.0017 0.00868zm-10.785 0.84391c0.89295 0.010063 1.7982 1.3412 2.7363 2.426-1.6363-0.05179-3.2059 0.23919-4.4292 1.0076 0.06452-1.7865 0.51138-3.0581 1.4253-3.3944 0.08923-0.027247 0.17825-0.04021 0.26765-0.039214zm-4.2212 2.1856c0.26458 0.02759 0.52802 0.25099 0.78935 0.54214 0.01931 0.54406 0.06264 1.1151 0.12957 1.7066-0.61761-0.03573-1.2325-0.04397-1.8447-0.03754 0.03732-1.1281 0.26247-1.9703 0.65808-2.1686 0.0895-0.03936 0.17852-0.05194 0.26765-0.04262zm6.5808 1.1695c0.54275 0.02724 1.0856 0.1104 1.623 0.21653 0.06467 0.03691 0.12924 0.07598 0.19436 0.10399-5e-3 -0.01793-0.01829-0.04759-0.02382-0.06649 1.2839 0.27175 2.4952 0.72479 3.483 1.2411-0.33666 0.47431-0.69754 0.93272-1.0587 1.3929-0.49846-0.7782-1.2575-1.4952-2.3476-2.1072v0.0017c0.90294 0.7399 1.5088 1.5191 1.8805 2.3135-2.1341-0.8004-4.6017-1.4404-7.1451-1.7731 0 0-0.11133 1.1934-0.0716 1.1252 2.9196 0.57799 5.6871 1.5029 7.677 2.5624 0.1172 3.1462-2.7006 6.2102-5.0566 7.7571-0.23716-0.50505-0.44837-1.0228-0.66319-1.5412 0.89041-0.04901 1.8539-0.33046 2.8914-0.92744-1.1085 0.40044-2.0966 0.51821-2.975 0.42451 1.8042-1.4319 3.6455-3.2461 5.2561-5.2885 0 0-0.96546-0.7072-0.92574-0.63591-2.0221 2.2397-4.2684 4.1619-6.2159 5.3226-1.6646-0.93146-2.7434-2.772-3.3671-4.7054-0.0017-0.04628 0.0015-0.09517-0.0034-0.13979-9e-3 9e-3 -0.02174 0.02657-0.03069 0.0358-0.36109-1.1518-0.55896-2.3144-0.61545-3.3449 0.5418 0.04467 1.0812 0.11818 1.623 0.18752-0.34724 0.7563-0.55583 1.6623-0.56602 2.7602 0.19039-1.0226 0.52496-1.8461 0.95984-2.5164 0.36469 2.2294 1.0258 4.6617 1.9828 7.0087 0 0 1.0904-0.49782 1.011-0.49782v-0.0034c-0.94528-2.8333-1.5104-5.706-1.5719-7.9634 1.1589-0.76724 2.5931-1.0166 4.0559-0.94279zm6.0727 1.9538c0.93263 0.59825 1.5274 1.2114 1.4969 1.6486-0.0498 0.42174-0.53729 0.58304-1.1184 0.68536-0.44265-0.23185-0.91739-0.45477-1.415-0.67172 0.36875-0.54374 0.71183-1.0997 1.0366-1.6622zm-1.0996 3.495c1.5216 0.94048 2.4064 1.9597 2.247 2.9238-0.23153 1.0219-2.0949 1.1284-3.662 1.4525 0.87098-1.402 1.4335-2.9209 1.415-4.3764zm-12.195 1.6895c0.7459 1.4392 1.7386 2.6816 2.9682 3.4114-1.5462 0.78635-2.8383 1.0067-3.5683 0.38871-0.74451-0.70739 0.07057-2.3119 0.60011-3.8001zm4.6338 4.3389c0.29772 0.60238 0.62055 1.1874 0.95813 1.7594-0.937 0.49982-1.726 0.71038-2.085 0.48077-0.37982-0.27044-0.22805-0.85525 0-1.4798 0.37019-0.23368 0.74586-0.4862 1.1269-0.76037z" enable-background="new" fill="url(#radialGradient885)" stroke-width=".87289"/>
  <path id="path887" d="m15.082 5.5775c-1.2934 0.19567-1.9481 1.9314-2.0168 4.4258-0.41697-0.62048-0.92557-1.0667-1.5327-0.98711-1.0894 0.20074-1.5548 1.78-1.4849 3.7916-1.8708 0.12127-3.6724 0.46004-5.2851 1.0894 1.6289-0.29638 3.455-0.37448 5.3311-0.29152 0.14152 1.3975 0.51762 2.9302 1.1252 4.3525-1.3911 1.8501-3.2981 5.299-2.0646 7.0922 0.84254 1.077 2.8093 0.71502 5.147-0.58988-0.45636 0.79816-0.7051 1.623-0.25571 2.1924 0.71266 0.81435 2.2461 0.44637 3.8888-0.58136 1.0121 1.518 2.1706 2.8749 3.4796 3.9382-1.0343-1.2377-1.9827-2.7406-2.8232-4.3644 1.1711-0.84774 2.3492-2.003 3.2938-3.304 2.2868 0.25609 6.305 0.1421 7.2184-1.86 0.46979-1.2197-0.71214-2.6482-2.842-3.9416 0.80956-0.02346 1.5165-0.23295 1.7714-0.83708 0.37761-1.0345-0.72673-2.2262-2.472-3.183 0.82996-1.6378 1.4459-3.3253 1.7287-5.0004-0.57255 1.5196-1.4193 3.0955-2.426 4.6355-1.357-0.63118-2.9905-1.1115-4.6304-1.2906-0.92609-2.1243-2.9882-5.4794-5.1504-5.2868zm12.207 1.9418c1e-3 -0.00274 0.0023-0.00548 0.0034-0.00868h-0.0017c-4.72e-4 0.00274-0.0012 0.00548-0.0017 0.00868zm-10.785 0.84391c0.89295 0.010063 1.7982 1.3412 2.7363 2.426-1.6363-0.05179-3.2059 0.23919-4.4292 1.0076 0.06452-1.7865 0.51138-3.0581 1.4253-3.3944 0.08923-0.027247 0.17825-0.04021 0.26765-0.039214zm-4.2212 2.1856c0.26458 0.02759 0.52802 0.25099 0.78935 0.54214 0.01931 0.54406 0.06264 1.1151 0.12957 1.7066-0.61761-0.03573-1.2325-0.04397-1.8447-0.03754 0.03732-1.1281 0.26247-1.9703 0.65808-2.1686 0.0895-0.03936 0.17852-0.05194 0.26765-0.04262zm6.5808 1.1695c0.54275 0.02724 1.0856 0.1104 1.623 0.21653 0.06467 0.03691 0.12924 0.07598 0.19436 0.10399-5e-3 -0.01793-0.01829-0.04759-0.02382-0.06649 1.2839 0.27175 2.4952 0.72479 3.483 1.2411-0.33666 0.47431-0.69754 0.93272-1.0587 1.3929-0.49846-0.7782-1.2575-1.4952-2.3476-2.1072v0.0017c0.90294 0.7399 1.5088 1.5191 1.8805 2.3135-2.1341-0.8004-4.6017-1.4404-7.1451-1.7731 0 0-0.11133 1.1934-0.0716 1.1252 2.9196 0.57799 5.6871 1.5029 7.677 2.5624 0.1172 3.1462-2.7006 6.2102-5.0566 7.7571-0.23716-0.50505-0.44837-1.0228-0.66319-1.5412 0.89041-0.04901 1.8539-0.33046 2.8914-0.92744-1.1085 0.40044-2.0966 0.51821-2.975 0.42451 1.8042-1.4319 3.6455-3.2461 5.2561-5.2885 0 0-0.96546-0.7072-0.92574-0.63591-2.0221 2.2397-4.2684 4.1619-6.2159 5.3226-1.6646-0.93146-2.7434-2.772-3.3671-4.7054-0.0017-0.04628 0.0015-0.09517-0.0034-0.13979-9e-3 9e-3 -0.02174 0.02657-0.03069 0.0358-0.36109-1.1518-0.55896-2.3144-0.61545-3.3449 0.5418 0.04467 1.0812 0.11818 1.623 0.18752-0.34724 0.7563-0.55583 1.6623-0.56602 2.7602 0.19039-1.0226 0.52496-1.8461 0.95984-2.5164 0.36469 2.2294 1.0258 4.6617 1.9828 7.0087 0 0 1.0904-0.49782 1.011-0.49782v-0.0034c-0.94528-2.8333-1.5104-5.706-1.5719-7.9634 1.1589-0.76724 2.5931-1.0166 4.0559-0.94279zm6.0727 1.9538c0.93263 0.59825 1.5274 1.2114 1.4969 1.6486-0.0498 0.42174-0.53729 0.58304-1.1184 0.68536-0.44265-0.23185-0.91739-0.45477-1.415-0.67172 0.36875-0.54374 0.71183-1.0997 1.0366-1.6622zm-1.0996 3.495c1.5216 0.94048 2.4064 1.9597 2.247 2.9238-0.23153 1.0219-2.0949 1.1284-3.662 1.4525 0.87098-1.402 1.4335-2.9209 1.415-4.3764zm-12.195 1.6895c0.7459 1.4392 1.7386 2.6816 2.9682 3.4114-1.5462 0.78635-2.8383 1.0067-3.5683 0.38871-0.74451-0.70739 0.07057-2.3119 0.60011-3.8001zm4.6338 4.3389c0.29772 0.60238 0.62055 1.1874 0.95813 1.7594-0.937 0.49982-1.726 0.71038-2.085 0.48077-0.37982-0.27044-0.22805-0.85525 0-1.4798 0.37019-0.23368 0.74586-0.4862 1.1269-0.76037z" enable-background="new" fill="url(#linearGradient895)" stroke-width=".87289"/>
 </g>
</svg>
