<?xml version="1.0" encoding="UTF-8"?>
<svg id="svg1" width="64" height="64" version="1.1" xmlns="http://www.w3.org/2000/svg">
 <defs id="defs1">
  <filter id="filter2076-3" x="-.048" y="-.048" width="1.096" height="1.096" color-interpolation-filters="sRGB">
   <feGaussianBlur id="feGaussianBlur1041" stdDeviation="1.1"/>
  </filter>
 </defs>
 <rect id="rect1050" x="4.5" y="4.5" width="55" height="55" rx="13.002" ry="13.002" filter="url(#filter2076-3)" opacity=".3"/>
 <rect id="rect1052" x="4.5" y="4.5" width="55" height="55" rx="13.002" ry="13.002" fill="#ffbe37"/>
 <path id="path1" d="m23.795 32-3.366 3.39-3.39-3.39 3.39-3.39ZM32 23.795l5.797 5.797 3.39-3.39-5.798-5.773L32 17.039l-3.39 3.39-5.773 5.774 3.39 3.39zm11.571 4.816L40.205 32l3.39 3.39L46.96 32ZM32 40.205l-5.797-5.797-3.366 3.39 5.797 5.796L32 46.96l3.39-3.389 5.797-5.797-3.39-3.366Zm0-4.816L35.39 32 32 28.61 28.61 32Z" fill="#814b13" stroke-width=".45835"/>
</svg>
