<?xml version="1.0" encoding="UTF-8"?>
<svg id="svg2" width="64" height="64" version="1.1" xmlns="http://www.w3.org/2000/svg">
 <defs id="defs2">
  <filter id="filter1057-1" x="-.027" y="-.027" width="1.054" height="1.054" color-interpolation-filters="sRGB">
   <feGaussianBlur id="feGaussianBlur4" stdDeviation="0.61875"/>
  </filter>
  <linearGradient id="linearGradient848-7" x1="145" x2="200" y1="59" y2="4" gradientTransform="matrix(1 0 0 1 -140.5 .49834)" gradientUnits="userSpaceOnUse">
   <stop id="stop1" stop-color="#e1e1e1" offset="0"/>
   <stop id="stop2" stop-color="#f5f5f5" offset="1"/>
  </linearGradient>
  <linearGradient id="linearGradient2070" x1="145" x2="200" y1="59" y2="4" gradientTransform="translate(-140.5 .5)" gradientUnits="userSpaceOnUse">
   <stop id="stop1034" stop-color="#ffc841" offset="0"/>
   <stop id="stop1036" stop-color="#ffbe37" offset=".4925"/>
   <stop id="stop1038" stop-color="#ffc841" offset="1"/>
  </linearGradient>
 </defs>
 <rect id="rect4" transform="matrix(1 0 0 1 -.0002277 -.0002277)" x="4.5" y="4.5" width="55" height="55" ry="15" fill="#141414" filter="url(#filter1057-1)" opacity=".3" stroke-linecap="round" stroke-width="2.7444"/>
 <rect id="rect1052" x="4.5" y="4.5" width="55" height="55" rx="13.002" ry="13.002" fill="url(#linearGradient2070)"/>
 <rect id="rect6" x="7.4996" y="7.4996" width="48.999" height="48.999" ry="12" fill="#262626" stroke-linecap="round" stroke-width="2.445"/>
 <rect id="rect7" x="6.9985" y="6.9981" width="50" height="50" rx="11.82" ry="11.82" fill="url(#linearGradient848-7)" fill-opacity="0" stroke-width=".90907"/>
 <path id="path3" d="m42.865 13.789a7.27 7.27 0 0 0-4.0667 1.3667c-1.3611 0.99445-2.3267 2.4256-3.3889 3.7367-0.53112 0.65556-1.0956 1.2889-1.7478 1.8256-0.65111 0.53445-1.38 1.0811-2.21 1.19-1.6722 0.22222-3.4145-0.63-4.9278-1.1589-1.5733-0.60334-3.1233-1.3589-4.7978-1.5367-2.3111-0.24445-4.7167 0.71889-6.2256 2.4922-1.51 1.7745-2.0811 4.8445-1.48 7.0989 0.60222 2.2533 2.3589 4.1622 4.55 4.94 2.1889 0.77778 4.7511 0.40334 6.6311-0.96889 1.3622-0.99445 2.3267-2.4256 3.3889-3.7367 1.1367-1.4144 2.33-2.8067 3.9578-3.4445 0.77778-0.30556 1.6756-0.21667 2.5067-0.08 0.83112 0.13667 1.6344 0.40445 2.4222 0.70556 1.5722 0.60222 3.1222 1.3556 4.7978 1.5333 2.3111 0.24444 4.7156-0.71556 6.2256-2.4889 1.5089-1.7744 2.08-3.8833 1.4789-6.1367-0.60112-2.2533-2.3589-4.1622-4.5489-4.94a7.0889 7.0889 0 0 0-2.5667-0.39778zm0.87222 16.071a5.3334 5.3334 0 0 0-2.9889 1.0067c-1 0.73334-1.7111 1.7867-2.4933 2.7533-0.39111 0.48334-0.80556 0.95112-1.2844 1.3456-0.48 0.39444-1.0267 0.71556-1.6244 0.87778-0.59778 0.16-1.23 0.15556-1.8411 0.05556-0.61112-0.1-1.2044-0.29444-1.7833-0.51667-1.1567-0.44445-2.2945-1.0011-3.5256-1.1322a5.3667 5.3667 0 0 0-4.5767 1.8356 5.4445 5.4445 0 0 0-1.0889 4.8356c0.44334 1.6611 1.7333 3.0667 3.3445 3.6411a5.3556 5.3556 0 0 0 4.8756-0.71334c1.0022-0.73334 1.7133-1.7878 2.4944-2.7533 0.39112-0.48334 0.80556-0.95111 1.2856-1.3456 0.47778-0.39445 1.0256-0.71556 1.6233-0.87778 0.59778-0.16111 1.23-0.15556 1.8411-0.05555 0.61111 0.1 1.2044 0.29444 1.7833 0.51667 1.1567 0.44445 2.2944 1.0011 3.5256 1.1322a5.3667 5.3667 0 0 0 4.5778-1.8356 5.4445 5.4445 0 0 0 1.0867-4.8356c-0.44222-1.6611-1.7333-3.0678-3.3444-3.6411a5.2078 5.2078 0 0 0-1.8867-0.29333zm-11.447 16.076c-0.24445 0.01555-0.48889 0.05556-0.72556 0.11889a3.7967 3.7967 0 0 0-2.2789 1.7478 3.7989 3.7989 0 0 0-0.37444 2.8478 3.7967 3.7967 0 0 0 1.7467 2.2789c0.85111 0.49111 1.9 0.62889 2.8489 0.37445a3.7967 3.7967 0 0 0 2.2778-1.7467c0.49223-0.85111 0.62889-1.9 0.37556-2.8489a3.7967 3.7967 0 0 0-1.7478-2.2778 3.8022 3.8022 0 0 0-2.1222-0.49445z" fill="#ffc33c" stroke-width="1.1111"/>
</svg>
