<?xml version="1.0" encoding="UTF-8"?>
<svg id="svg1542" width="128" height="128" version="1.1" viewBox="0 0 33.867 33.867" xmlns="http://www.w3.org/2000/svg" xmlns:cc="http://creativecommons.org/ns#" xmlns:dc="http://purl.org/dc/elements/1.1/" xmlns:rdf="http://www.w3.org/1999/02/22-rdf-syntax-ns#" xmlns:xlink="http://www.w3.org/1999/xlink">
 <defs id="defs1536">
  <filter id="filter2299" x="-.1109" y="-.14587" width="1.2218" height="1.2917" color-interpolation-filters="sRGB">
   <feGaussianBlur id="feGaussianBlur2301" stdDeviation="3.8421904"/>
  </filter>
  <linearGradient id="linearGradient1441" x1="16.61" x2="16.61" y1="30.626" y2="3.4048" gradientTransform="translate(.18456 .076827)" gradientUnits="userSpaceOnUse">
   <stop id="stop1435" stop-color="#fd7570" offset="0"/>
   <stop id="stop1437" stop-color="#ed225a" offset="1"/>
  </linearGradient>
 </defs>
 <metadata id="metadata1539">
  <rdf:RDF>
   <cc:Work rdf:about="">
    <dc:format>image/svg+xml</dc:format>
    <dc:type rdf:resource="http://purl.org/dc/dcmitype/StillImage"/>
   </cc:Work>
  </rdf:RDF>
 </metadata>
 <g id="layer1">
  <path id="path2274" transform="matrix(.26458 0 0 .26458 .14149 .15608)" d="m55.61 36.066a8.2257 8.2257 0 0 0-0.10156 1.2617 8.2257 8.2257 0 0 0 3.9609 7.0098l0.33789-2.2695a8.2257 8.2257 0 0 1-4.1973-6.002zm16.248 0.0332a8.2257 8.2257 0 0 1-5.7031 6.6113l-1.8594 12.502a21.789 21.789 0 0 1 0.3418 0.17578l1.5176-10.209a8.2257 8.2257 0 0 0 5.8047-7.8691 8.2257 8.2257 0 0 0-0.10156-1.2109zm-43.838 6.6602a5.0755 5.0755 0 0 0-0.1582 1.248 5.0755 5.0755 0 0 0 3.7891 4.9004l6.6758 12.518a21.789 21.789 0 0 1 0.79688-0.97656l-7.4727-14.012a5.0755 5.0755 0 0 1-3.6309-3.6777zm9.8359 0.01367a5.0755 5.0755 0 0 1-0.38281 1.0352l0.48438 0.9082a5.0755 5.0755 0 0 0 0.05664-0.7207 5.0755 5.0755 0 0 0-0.1582-1.2227zm73.072 17.143a10.238 10.238 0 0 1-10.143 9.0215 10.238 10.238 0 0 1-7.2656-3.0254l-16.707 5.918a21.789 21.789 0 0 1 0.2168 2.3926l16.49-5.8398a10.238 10.238 0 0 0 7.2656 3.0254 10.238 10.238 0 0 0 10.229-10.25 10.238 10.238 0 0 0-0.0859-1.2422zm-20.305 0.01367a10.238 10.238 0 0 0-0.03125 0.25781l0.0625-0.02148a10.238 10.238 0 0 1-0.03125-0.23633zm-57.064 16.293a21.789 21.789 0 0 0-0.06055 1.293 21.789 21.789 0 0 0 21.812 21.768 21.789 21.789 0 0 0 21.766-21.812 21.789 21.789 0 0 0-0.05469-0.91016 21.789 21.789 0 0 1-21.711 20.254 21.789 21.789 0 0 1-21.752-20.592z" fill="#003b82" filter="url(#filter2299)" style="paint-order:fill markers stroke"/>
  <g id="g1702" transform="matrix(.97573 0 0 .97573 -65.564 -37.126)" fill="none" opacity=".29676" stroke="#000" stroke-linecap="round" stroke-linejoin="round" stroke-opacity=".02">
   <rect id="rect1634" x="69.84" y="40.71" width="29.811" height="29.811" rx="6.6099" ry="6.6099" stroke-width=".1"/>
   <rect id="rect1638" x="69.84" y="40.71" width="29.811" height="29.811" rx="6.6099" ry="6.6099" stroke-width=".2"/>
   <rect id="rect1640" x="69.84" y="40.71" width="29.811" height="29.811" rx="6.6099" ry="6.6099" stroke-width=".3"/>
   <rect id="rect1642" x="69.84" y="40.71" width="29.811" height="29.811" rx="6.6099" ry="6.6099" stroke-width=".4"/>
   <rect id="rect1644" x="69.84" y="40.71" width="29.811" height="29.811" rx="6.6099" ry="6.6099" stroke-width=".5"/>
   <rect id="rect1646" x="69.84" y="40.71" width="29.811" height="29.811" rx="6.6099" ry="6.6099" stroke-width=".6"/>
   <rect id="rect1648" x="69.84" y="40.71" width="29.811" height="29.811" rx="6.6099" ry="6.6099" stroke-width=".7"/>
   <rect id="rect1650" x="69.84" y="40.71" width="29.811" height="29.811" rx="6.6099" ry="6.6099" stroke-width=".8"/>
   <rect id="rect1652" x="69.84" y="40.71" width="29.811" height="29.811" rx="6.6099" ry="6.6099"/>
   <rect id="rect1654" x="69.84" y="40.71" width="29.811" height="29.811" rx="6.6099" ry="6.6099" stroke-width="1.2"/>
   <rect id="rect1656" x="69.84" y="40.71" width="29.811" height="29.811" rx="6.6099" ry="6.6099" stroke-width="1.4"/>
   <rect id="rect1658" x="69.84" y="40.71" width="29.811" height="29.811" rx="6.6099" ry="6.6099" stroke-width="1.6"/>
   <rect id="rect1660" x="69.84" y="40.71" width="29.811" height="29.811" rx="6.6099" ry="6.6099" stroke-width="1.8"/>
   <rect id="rect1662" x="69.84" y="40.71" width="29.811" height="29.811" rx="6.6099" ry="6.6099" stroke-width="2"/>
   <rect id="rect1664" x="69.84" y="40.71" width="29.811" height="29.811" rx="6.6099" ry="6.6099" stroke-width="2.2"/>
   <rect id="rect1666" x="69.84" y="40.71" width="29.811" height="29.811" rx="6.6099" ry="6.6099" stroke-width="2.6"/>
   <rect id="rect1668" x="69.84" y="40.71" width="29.811" height="29.811" rx="6.6099" ry="6.6099" stroke-width="3"/>
   <rect id="rect1670" x="69.84" y="40.71" width="29.811" height="29.811" rx="6.6099" ry="6.6099" stroke-width="3.4"/>
   <rect id="rect1672" x="69.84" y="40.71" width="29.811" height="29.811" rx="6.6099" ry="6.6099" stroke-width="3.8"/>
   <rect id="rect1674" x="69.84" y="40.71" width="29.811" height="29.811" rx="6.6099" ry="6.6099" stroke-width="4.2"/>
   <rect id="rect1676" x="69.84" y="40.71" width="29.811" height="29.811" rx="6.6099" ry="6.6099" stroke-width="4.6"/>
   <rect id="rect1678" x="69.84" y="40.71" width="29.811" height="29.811" rx="6.6099" ry="6.6099" stroke-width="5"/>
  </g>
  <rect id="rect849" x="2.5808" y="2.5954" width="29.087" height="29.087" rx="6.4495" ry="6.4495" fill="url(#linearGradient1441)" stroke-linecap="round" stroke-linejoin="round" stroke-width="2.6877"/>
  <path id="path8" d="m17.125 8.5391c-0.48034 4.934e-4 -0.95979 0.041231-1.4333 0.12178v11.703a1.075 1.075 0 0 1-1.075 1.075 1.075 1.075 0 0 1-1.075-1.075v-11.031c-3.0531 1.3994-5.0123 4.4478-5.0167 7.8063 0 4.7496 3.8503 8.6 8.6 8.6 4.7496 0 8.6-3.8503 8.6-8.6 0-4.7496-3.8503-8.6-8.6-8.6zm-0.35553 4.3c0.05977 5.37e-4 0.11848 0.01734 0.17078 0.049l6.45 3.9095c0.2453 0.14906 0.2453 0.534 0 0.68307l-6.45 3.9095c-0.2385 0.14386-0.5312-0.04424-0.5319-0.34154v-7.8189c1.78e-4 -0.21699 0.16222-0.39224 0.36113-0.39053z" fill="#fff" stroke-width=".71666"/>
 </g>
</svg>
