<?xml version="1.0" encoding="UTF-8"?>
<svg width="128" height="128" viewBox="0 0 33.867 33.867" xmlns="http://www.w3.org/2000/svg" xmlns:xlink="http://www.w3.org/1999/xlink">
 <defs>
  <linearGradient id="r" x1="132.21" x2="132.21" y1="42.152" y2="70.68" gradientTransform="translate(-111.76 -37.183) scale(.97573)" gradientUnits="userSpaceOnUse">
   <stop stop-color="#ffcd48" offset="0"/>
   <stop stop-color="#ffc547" offset="1"/>
  </linearGradient>
  <linearGradient id="t" x1="575.88" x2="605.79" y1="318.28" y2="350.96" gradientTransform="translate(-12.113 -8.901) scale(.21598)" gradientUnits="userSpaceOnUse">
   <stop stop-color="#756692" offset="0"/>
   <stop stop-color="#5a4e74" offset="1"/>
  </linearGradient>
  <linearGradient id="u" x1="-172.68" x2="-172.68" y1="442.51" y2="117.17" gradientUnits="userSpaceOnUse">
   <stop stop-color="#1d1d24" offset="0"/>
   <stop stop-color="#2e2c37" offset="1"/>
  </linearGradient>
  <linearGradient id="j">
   <stop stop-color="#ffc847" offset="0"/>
   <stop stop-color="#ffc847" offset=".346"/>
   <stop stop-color="#e35400" offset="1"/>
  </linearGradient>
  <linearGradient id="aa" x1="254.99" x2="254.99" y1="100.77" y2="193.6" gradientUnits="userSpaceOnUse" xlink:href="#d"/>
  <linearGradient id="d">
   <stop stop-color="#010101" offset="0"/>
   <stop stop-color="#4b4a52" offset="1"/>
  </linearGradient>
  <linearGradient id="k">
   <stop stop-color="#7c6b8d" offset="0"/>
   <stop stop-color="#54425c" offset=".567"/>
   <stop stop-color="#655674" offset=".567"/>
   <stop stop-color="#655674" offset=".595"/>
   <stop stop-color="#5c5076" offset=".595"/>
   <stop stop-color="#5d5074" offset=".711"/>
   <stop stop-color="#594b6d" offset=".711"/>
   <stop stop-color="#584a6b" offset=".738"/>
   <stop stop-color="#5c4f75" offset=".738"/>
   <stop stop-color="#827091" offset=".738"/>
   <stop stop-color="#837192" offset=".769"/>
   <stop stop-color="#5e5177" offset=".769"/>
   <stop stop-color="#584c72" offset=".868"/>
   <stop stop-color="#837192" offset=".868"/>
   <stop stop-color="#847293" offset=".942"/>
   <stop stop-color="#857292" stop-opacity="0" offset=".942"/>
   <stop stop-color="#f9c445" stop-opacity="0" offset="1"/>
  </linearGradient>
  <linearGradient id="l">
   <stop stop-color="#cf5700" stop-opacity="0" offset="0"/>
   <stop stop-color="#cf5700" stop-opacity="0" offset=".5"/>
   <stop stop-color="#cf5700" stop-opacity=".90829" offset="1"/>
  </linearGradient>
  <linearGradient id="m">
   <stop stop-color="#b84b00" stop-opacity="0" offset="0"/>
   <stop stop-color="#b84b00" stop-opacity="0" offset=".5"/>
   <stop stop-color="#b84b00" stop-opacity=".035294" offset=".556"/>
   <stop stop-color="#b84b00" stop-opacity=".070588" offset=".612"/>
   <stop stop-color="#b84b00" stop-opacity=".10588" offset=".661"/>
   <stop stop-color="#b84b00" stop-opacity=".12941" offset=".72"/>
   <stop stop-color="#b84b00" offset="1"/>
  </linearGradient>
  <linearGradient id="W" x1="254.99" x2="254.99" y1="100.77" y2="193.6" gradientUnits="userSpaceOnUse" xlink:href="#e"/>
  <linearGradient id="e">
   <stop stop-color="#444349" offset="0"/>
   <stop stop-color="#010101" offset="1"/>
  </linearGradient>
  <linearGradient id="R" x1="293.56" x2="211.86" y1="122.1" y2="148.17" gradientUnits="userSpaceOnUse">
   <stop stop-color="#010000" offset="0"/>
   <stop stop-color="#49484f" offset="1"/>
  </linearGradient>
  <linearGradient id="ab" x1="350.68" x2="350.68" y1="227.1" y2="286.85" gradientTransform="translate(-95.208 -.87)" gradientUnits="userSpaceOnUse">
   <stop stop-color="#492728" offset="0"/>
   <stop stop-color="#544768" offset="1"/>
  </linearGradient>
  <linearGradient id="ad" x1="207.36" x2="207.67" y1="355.14" y2="386.46" gradientTransform="rotate(-19.618 -109.88 58.277)" gradientUnits="userSpaceOnUse" xlink:href="#h"/>
  <linearGradient id="h">
   <stop stop-opacity="0" offset="0"/>
   <stop stop-opacity=".20784" offset=".083"/>
   <stop stop-opacity=".37647" offset=".176"/>
   <stop offset=".307"/>
   <stop offset=".572"/>
   <stop stop-opacity=".21176" offset=".826"/>
   <stop stop-opacity=".086275" offset=".907"/>
   <stop stop-opacity="0" offset="1"/>
  </linearGradient>
  <linearGradient id="ae" x1="210.39" x2="210.31" y1="363.36" y2="371.76" gradientTransform="translate(-13.188 -40.277)" gradientUnits="userSpaceOnUse" xlink:href="#i"/>
  <linearGradient id="i">
   <stop stop-color="#fef7e2" offset="0"/>
   <stop stop-color="#f9e0ba" offset="1"/>
  </linearGradient>
  <linearGradient id="o">
   <stop stop-color="#b64c00" offset="0"/>
   <stop stop-color="#b64c00" stop-opacity="0" offset="1"/>
  </linearGradient>
  <linearGradient id="p">
   <stop stop-color="#fff" offset="0"/>
   <stop stop-color="#fbe1b0" offset="1"/>
  </linearGradient>
  <linearGradient id="ah" x1="207.36" x2="207.67" y1="355.14" y2="386.46" gradientTransform="matrix(-.92386 -1.306 .81762 -.57576 110.49 691.66)" gradientUnits="userSpaceOnUse" xlink:href="#h"/>
  <linearGradient id="ai" x1="210.39" x2="210.31" y1="363.36" y2="371.76" gradientTransform="matrix(1.5997 0 0 1 -629.14 -309.24)" gradientUnits="userSpaceOnUse" xlink:href="#i"/>
  <radialGradient id="v" cx="274.03" cy="80.799" r="4.376" gradientTransform="matrix(2.9011 0 0 1.4797 -520.95 -41.384)" gradientUnits="userSpaceOnUse" xlink:href="#j"/>
  <radialGradient id="E" cx="350.35" cy="224.77" r="42.649" gradientTransform="matrix(3.1037 .00458 -.0046 3.1243 -735.7 -447.03)" gradientUnits="userSpaceOnUse" xlink:href="#k"/>
  <radialGradient id="F" cx="350.64" cy="158.37" r="42.649" gradientTransform="matrix(1.9866 0 0 1.9225 -345.91 -126.92)" gradientUnits="userSpaceOnUse" xlink:href="#l"/>
  <radialGradient id="G" cx="350.62" cy="145.16" r="42.649" gradientTransform="matrix(1.347 .00213 -.00219 1.3811 -121.33 -56.074)" gradientUnits="userSpaceOnUse" xlink:href="#m"/>
  <radialGradient id="ac" cx="297.65" cy="268.07" r="24.297" gradientTransform="translate(-654.05 -144.98) scale(1.5011)" gradientUnits="userSpaceOnUse">
   <stop offset="0"/>
   <stop stop-opacity=".098039" offset=".794"/>
   <stop stop-opacity=".05098" offset=".872"/>
   <stop stop-opacity="0" offset="1"/>
  </radialGradient>
  <radialGradient id="af" cx="297.65" cy="268.07" r="24.297" gradientTransform="translate(109.6 12.853) scale(.79874)" gradientUnits="userSpaceOnUse" xlink:href="#o"/>
  <radialGradient id="ag" cx="301.89" cy="265.11" r="18.34" gradientTransform="matrix(1.1474 0 0 1.3253 .677 -130.01)" gradientUnits="userSpaceOnUse" xlink:href="#p"/>
  <radialGradient id="aj" cx="297.65" cy="268.07" r="24.297" gradientTransform="translate(-42.553 -12.064)" gradientUnits="userSpaceOnUse" xlink:href="#o"/>
  <radialGradient id="ak" cx="301.89" cy="265.11" r="18.34" gradientTransform="matrix(1.4364 0 0 1.6592 -178.92 -190.92)" gradientUnits="userSpaceOnUse" xlink:href="#p"/>
  <radialGradient id="al" cx="297.65" cy="268.07" r="24.297" gradientTransform="translate(-73.853 -83.765) scale(.79947)" gradientUnits="userSpaceOnUse" xlink:href="#o"/>
  <radialGradient id="am" cx="301.89" cy="265.11" r="18.34" gradientTransform="matrix(1.1484 0 0 1.3265 -182.87 -226.76)" gradientUnits="userSpaceOnUse" xlink:href="#p"/>
  <radialGradient id="s" cx="-571.09" cy="434.78" r="229.44" gradientTransform="translate(51.79 -8.894) scale(.06065)" gradientUnits="userSpaceOnUse">
   <stop stop-color="#6a2b0c" offset="0"/>
   <stop stop-color="#6a2b0c" stop-opacity=".82353" offset=".46"/>
   <stop stop-color="#6a2b0c" stop-opacity=".61961" offset=".56"/>
   <stop stop-color="#6a2b0c" stop-opacity=".55294" offset=".597"/>
   <stop stop-color="#6a2b0c" stop-opacity=".45882" offset=".66"/>
   <stop stop-color="#6a2b0c" stop-opacity=".35294" offset=".733"/>
   <stop stop-color="#6a2b0c" stop-opacity=".25882" offset=".793"/>
   <stop stop-color="#6a2b0c" stop-opacity=".19216" offset=".832"/>
   <stop stop-color="#6a2b0c" stop-opacity=".11373" offset=".892"/>
   <stop stop-color="#6a2b0c" stop-opacity=".062745" offset=".938"/>
   <stop stop-color="#6a2b0c" stop-opacity=".039216" offset=".963"/>
   <stop stop-color="#6a2b0c" stop-opacity="0" offset="1"/>
  </radialGradient>
 </defs>
 <g transform="translate(-65.737 -37.183) scale(.97573)" fill="none" opacity=".295" stroke="#000" stroke-linecap="round" stroke-linejoin="round" stroke-opacity=".02">
  <rect x="69.84" y="40.71" width="29.811" height="29.811" rx="6.61" ry="6.61" stroke-width=".1"/>
  <rect x="69.84" y="40.71" width="29.811" height="29.811" rx="6.61" ry="6.61" stroke-width=".2"/>
  <rect x="69.84" y="40.71" width="29.811" height="29.811" rx="6.61" ry="6.61" stroke-width=".3"/>
  <rect x="69.84" y="40.71" width="29.811" height="29.811" rx="6.61" ry="6.61" stroke-width=".4"/>
  <rect x="69.84" y="40.71" width="29.811" height="29.811" rx="6.61" ry="6.61" stroke-width=".5"/>
  <rect x="69.84" y="40.71" width="29.811" height="29.811" rx="6.61" ry="6.61" stroke-width=".6"/>
  <rect x="69.84" y="40.71" width="29.811" height="29.811" rx="6.61" ry="6.61" stroke-width=".7"/>
  <rect x="69.84" y="40.71" width="29.811" height="29.811" rx="6.61" ry="6.61" stroke-width=".8"/>
  <rect x="69.84" y="40.71" width="29.811" height="29.811" rx="6.61" ry="6.61"/>
  <rect x="69.84" y="40.71" width="29.811" height="29.811" rx="6.61" ry="6.61" stroke-width="1.2"/>
  <rect x="69.84" y="40.71" width="29.811" height="29.811" rx="6.61" ry="6.61" stroke-width="1.4"/>
  <rect x="69.84" y="40.71" width="29.811" height="29.811" rx="6.61" ry="6.61" stroke-width="1.6"/>
  <rect x="69.84" y="40.71" width="29.811" height="29.811" rx="6.61" ry="6.61" stroke-width="1.8"/>
  <rect x="69.84" y="40.71" width="29.811" height="29.811" rx="6.61" ry="6.61" stroke-width="2"/>
  <rect x="69.84" y="40.71" width="29.811" height="29.811" rx="6.61" ry="6.61" stroke-width="2.2"/>
  <rect x="69.84" y="40.71" width="29.811" height="29.811" rx="6.61" ry="6.61" stroke-width="2.6"/>
  <rect x="69.84" y="40.71" width="29.811" height="29.811" rx="6.61" ry="6.61" stroke-width="3"/>
  <rect x="69.84" y="40.71" width="29.811" height="29.811" rx="6.61" ry="6.61" stroke-width="3.4"/>
  <rect x="69.84" y="40.71" width="29.811" height="29.811" rx="6.61" ry="6.61" stroke-width="3.8"/>
  <rect x="69.84" y="40.71" width="29.811" height="29.811" rx="6.61" ry="6.61" stroke-width="4.2"/>
  <rect x="69.84" y="40.71" width="29.811" height="29.811" rx="6.61" ry="6.61" stroke-width="4.6"/>
  <rect x="69.84" y="40.71" width="29.811" height="29.811" rx="6.61" ry="6.61" stroke-width="5"/>
 </g>
 <rect x="2.407" y="2.539" width="29.087" height="29.087" rx="6.449" ry="6.449" fill="url(#r)" stroke-linecap="round" stroke-linejoin="round" stroke-width="2.6877"/>
 <circle cx="17.155" cy="17.475" r="13.915" fill="url(#s)"/>
 <path transform="scale(.26458)" d="M119.035 57.08c-9.711 11.948-20.589 17.19-33.826 22.238-7.628.315-13.613 1.447-10.914 6.897 14.139-2.275 27.602-5.053 44.74-21.975v-7.16z" fill="url(#t)"/>
 <g transform="translate(-19.72 2.944) scale(.05714)">
  <circle cx="644.18" cy="257.2" r="201.17" fill="#38353a"/>
  <circle cx="644.18" cy="257.2" r="196.29" fill="#76737c"/>
  <circle cx="644.18" cy="257.2" r="193.01" fill="#504f57"/>
 </g>
 <g transform="translate(28.953 2.985) scale(.05714)">
  <circle cx="-207.57" cy="256.48" r="189.18" fill="url(#u)" stroke="url(#linearGradient845)" stroke-linecap="round" stroke-linejoin="round" stroke-width="4.5"/>
  <path transform="translate(-463.52 -.376)" d="m199.74 84.069 2.634 8.099m107.14 329.38 2.635 8.1m-84.077-352.34 1.306 8.417m53.129 342.26 1.306 8.417m0.089-359.08-1.31 8.416m-53.299 342.24-1.31 8.415m84.553-352.2-2.653 8.094m-107.88 329.14-2.653 8.094m138.79-334.7-3.853 7.596m-156.69 308.9-3.854 7.596m189.17-308.92-5.015 6.885m-203.91 279.98-5.014 6.885m253.47-254.35-6.868 5.038m-279.27 204.88-6.867 5.038m308.2-190.36-7.58 3.884m-308.24 157.99-7.58 3.885m341.25-55.025-8.416-1.305m-342.27-53.097-8.417-1.306m352.58 83.311-8.11-2.6m-329.84-105.71-8.111-2.6m335.56 136.69-7.618-3.808m-309.82-154.86-7.618-3.808m310.02 187.35-6.913-4.974m-281.16-202.29-6.913-4.975m254.25 253.14-5.004-6.892m-203.52-280.27-5.004-6.892m190.38 308.34-3.92-7.562m-159.38-307.51-3.919-7.562" fill="none" stroke="#6d6c72" stroke-linecap="round" stroke-width="5"/>
  <g transform="translate(-481.72 2.592)">
   <rect x="269.65" y="71.76" width="8.752" height="20.972" rx="4.376" ry="4.376" fill="#ffc847"/>
   <path d="m274.02 71.76a4.365 4.365 0 0 0-4.375 4.375v1.842h8.752v-1.842a4.366 4.366 0 0 0-4.377-4.375z" fill="url(#v)"/>
   <g fill="#a73c00" opacity=".18586">
    <path d="M274.025 71.76a4.365 4.365 0 0 0-4.375 4.375v12.22c0 1.633.896 3.035 2.215 3.788a4.35 4.35 0 0 1-1.203-3.004V76.918a4.365 4.365 0 0 1 4.375-4.375c.792 0 1.523.223 2.162.588a4.353 4.353 0 0 0-3.174-1.371z" fill-opacity=".15144" opacity="1"/>
    <path d="M274.025 71.76a4.365 4.365 0 0 0-4.375 4.375v12.22a4.35 4.35 0 0 0 1.522 3.3 4.345 4.345 0 0 1-1.078-2.856V76.58a4.366 4.366 0 0 1 4.377-4.375c1.098 0 2.086.413 2.853 1.076a4.346 4.346 0 0 0-3.299-1.521z" fill-opacity=".38026" opacity="1"/>
   </g>
  </g>
  <g transform="translate(-481.48 350.47)">
   <rect x="269.65" y="71.76" width="8.752" height="20.972" rx="4.376" ry="4.376" fill="#ffc847"/>
   <path d="m274.02 71.76a4.365 4.365 0 0 0-4.375 4.375v1.842h8.752v-1.842a4.366 4.366 0 0 0-4.377-4.375z" fill="url(#v)"/>
   <g fill="#a73c00" opacity=".18586">
    <path d="M274.025 71.76a4.365 4.365 0 0 0-4.375 4.375v12.22c0 1.633.896 3.035 2.215 3.788a4.35 4.35 0 0 1-1.203-3.004V76.918a4.365 4.365 0 0 1 4.375-4.375c.792 0 1.523.223 2.162.588a4.353 4.353 0 0 0-3.174-1.371z" fill-opacity=".15144" opacity="1"/>
    <path d="M274.025 71.76a4.365 4.365 0 0 0-4.375 4.375v12.22a4.35 4.35 0 0 0 1.522 3.3 4.345 4.345 0 0 1-1.078-2.856V76.58a4.366 4.366 0 0 1 4.377-4.375c1.098 0 2.086.413 2.853 1.076a4.346 4.346 0 0 0-3.299-1.521z" fill-opacity=".38026" opacity="1"/>
   </g>
  </g>
  <g transform="rotate(45.329 30.185 -319.31)">
   <rect x="269.65" y="71.76" width="8.752" height="20.972" rx="4.376" ry="4.376" fill="#ffc847"/>
   <path d="m274.02 71.76a4.365 4.365 0 0 0-4.375 4.375v1.842h8.752v-1.842a4.366 4.366 0 0 0-4.377-4.375z" fill="url(#v)"/>
   <g fill="#a73c00" opacity=".18586">
    <path d="M274.025 71.76a4.365 4.365 0 0 0-4.375 4.375v12.22c0 1.633.896 3.035 2.215 3.788a4.35 4.35 0 0 1-1.203-3.004V76.918a4.365 4.365 0 0 1 4.375-4.375c.792 0 1.523.223 2.162.588a4.353 4.353 0 0 0-3.174-1.371z" fill-opacity=".15144" opacity="1"/>
    <path d="M274.025 71.76a4.365 4.365 0 0 0-4.375 4.375v12.22a4.35 4.35 0 0 0 1.522 3.3 4.345 4.345 0 0 1-1.078-2.856V76.58a4.366 4.366 0 0 1 4.377-4.375c1.098 0 2.086.413 2.853 1.076a4.346 4.346 0 0 0-3.299-1.521z" fill-opacity=".38026" opacity="1"/>
   </g>
  </g>
  <g transform="rotate(45.329 -386.47 -492.96)">
   <rect x="269.65" y="71.76" width="8.752" height="20.972" rx="4.376" ry="4.376" fill="#ffc847"/>
   <path d="m274.02 71.76a4.365 4.365 0 0 0-4.375 4.375v1.842h8.752v-1.842a4.366 4.366 0 0 0-4.377-4.375z" fill="url(#v)"/>
   <g fill="#a73c00" opacity=".18586">
    <path d="M274.025 71.76a4.365 4.365 0 0 0-4.375 4.375v12.22c0 1.633.896 3.035 2.215 3.788a4.35 4.35 0 0 1-1.203-3.004V76.918a4.365 4.365 0 0 1 4.375-4.375c.792 0 1.523.223 2.162.588a4.353 4.353 0 0 0-3.174-1.371z" fill-opacity=".15144" opacity="1"/>
    <path d="M274.025 71.76a4.365 4.365 0 0 0-4.375 4.375v12.22a4.35 4.35 0 0 0 1.522 3.3 4.345 4.345 0 0 1-1.078-2.856V76.58a4.366 4.366 0 0 1 4.377-4.375c1.098 0 2.086.413 2.853 1.076a4.346 4.346 0 0 0-3.299-1.521z" fill-opacity=".38026" opacity="1"/>
   </g>
  </g>
  <g transform="rotate(89.957 31.991 16.436)">
   <rect x="269.65" y="71.76" width="8.752" height="20.972" rx="4.376" ry="4.376" fill="#ffc847"/>
   <path d="m274.02 71.76a4.365 4.365 0 0 0-4.375 4.375v1.842h8.752v-1.842a4.366 4.366 0 0 0-4.377-4.375z" fill="url(#v)"/>
   <g fill="#a73c00" opacity=".18586">
    <path d="M274.025 71.76a4.365 4.365 0 0 0-4.375 4.375v12.22c0 1.633.896 3.035 2.215 3.788a4.35 4.35 0 0 1-1.203-3.004V76.918a4.365 4.365 0 0 1 4.375-4.375c.792 0 1.523.223 2.162.588a4.353 4.353 0 0 0-3.174-1.371z" fill-opacity=".15144" opacity="1"/>
    <path d="M274.025 71.76a4.365 4.365 0 0 0-4.375 4.375v12.22a4.35 4.35 0 0 0 1.522 3.3 4.345 4.345 0 0 1-1.078-2.856V76.58a4.366 4.366 0 0 1 4.377-4.375c1.098 0 2.086.413 2.853 1.076a4.346 4.346 0 0 0-3.299-1.521z" fill-opacity=".38026" opacity="1"/>
   </g>
  </g>
  <g transform="rotate(89.957 -142.2 -157.38)">
   <rect x="269.65" y="71.76" width="8.752" height="20.972" rx="4.376" ry="4.376" fill="#ffc847"/>
   <path d="m274.02 71.76a4.365 4.365 0 0 0-4.375 4.375v1.842h8.752v-1.842a4.366 4.366 0 0 0-4.377-4.375z" fill="url(#v)"/>
   <g fill="#a73c00" opacity=".18586">
    <path d="M274.025 71.76a4.365 4.365 0 0 0-4.375 4.375v12.22c0 1.633.896 3.035 2.215 3.788a4.35 4.35 0 0 1-1.203-3.004V76.918a4.365 4.365 0 0 1 4.375-4.375c.792 0 1.523.223 2.162.588a4.353 4.353 0 0 0-3.174-1.371z" fill-opacity=".15144" opacity="1"/>
    <path d="M274.025 71.76a4.365 4.365 0 0 0-4.375 4.375v12.22a4.35 4.35 0 0 0 1.522 3.3 4.345 4.345 0 0 1-1.078-2.856V76.58a4.366 4.366 0 0 1 4.377-4.375c1.098 0 2.086.413 2.853 1.076a4.346 4.346 0 0 0-3.299-1.521z" fill-opacity=".38026" opacity="1"/>
   </g>
  </g>
  <g transform="rotate(135.09 32.753 157.94)">
   <rect x="269.65" y="71.76" width="8.752" height="20.972" rx="4.376" ry="4.376" fill="#ffc847"/>
   <path d="m274.02 71.76a4.365 4.365 0 0 0-4.375 4.375v1.842h8.752v-1.842a4.366 4.366 0 0 0-4.377-4.375z" fill="url(#v)"/>
   <g fill="#a73c00" opacity=".18586">
    <path d="M274.025 71.76a4.365 4.365 0 0 0-4.375 4.375v12.22c0 1.633.896 3.035 2.215 3.788a4.35 4.35 0 0 1-1.203-3.004V76.918a4.365 4.365 0 0 1 4.375-4.375c.792 0 1.523.223 2.162.588a4.353 4.353 0 0 0-3.174-1.371z" fill-opacity=".15144" opacity="1"/>
    <path d="M274.025 71.76a4.365 4.365 0 0 0-4.375 4.375v12.22a4.35 4.35 0 0 0 1.522 3.3 4.345 4.345 0 0 1-1.078-2.856V76.58a4.366 4.366 0 0 1 4.377-4.375c1.098 0 2.086.413 2.853 1.076a4.346 4.346 0 0 0-3.299-1.521z" fill-opacity=".38026" opacity="1"/>
   </g>
  </g>
  <g transform="rotate(135.09 -39.252 -15.947)">
   <rect x="269.65" y="71.76" width="8.752" height="20.972" rx="4.376" ry="4.376" fill="#ffc847"/>
   <path d="m274.02 71.76a4.365 4.365 0 0 0-4.375 4.375v1.842h8.752v-1.842a4.366 4.366 0 0 0-4.377-4.375z" fill="url(#v)"/>
   <g fill="#a73c00" opacity=".18586">
    <path d="M274.025 71.76a4.365 4.365 0 0 0-4.375 4.375v12.22c0 1.633.896 3.035 2.215 3.788a4.35 4.35 0 0 1-1.203-3.004V76.918a4.365 4.365 0 0 1 4.375-4.375c.792 0 1.523.223 2.162.588a4.353 4.353 0 0 0-3.174-1.371z" fill-opacity=".15144" opacity="1"/>
    <path d="M274.025 71.76a4.365 4.365 0 0 0-4.375 4.375v12.22a4.35 4.35 0 0 0 1.522 3.3 4.345 4.345 0 0 1-1.078-2.856V76.58a4.366 4.366 0 0 1 4.377-4.375c1.098 0 2.086.413 2.853 1.076a4.346 4.346 0 0 0-3.299-1.521z" fill-opacity=".38026" opacity="1"/>
   </g>
  </g>
  <g transform="translate(-558.28 11.138)">
   <g transform="translate(94.643)">
    <circle cx="255.55" cy="144.73" r="49.865" fill="#fff" fill-opacity=".083779"/>
    <circle cx="255.98" cy="145.16" r="49.434" fill="url(#aa)"/>
   </g>
   <circle cx="350.62" cy="145.16" r="43.535" fill="#37353d"/>
   <circle cx="350.62" cy="145.16" r="42.649" fill="#fec842"/>
   <circle cx="350.62" cy="145.16" r="42.649" fill="url(#E)"/>
   <circle cx="350.62" cy="145.16" r="42.649" fill="url(#F)"/>
   <circle cx="350.62" cy="145.16" r="42.649" fill="url(#G)"/>
  </g>
  <g transform="rotate(69.449 61.176 -137.29)">
   <g transform="translate(94.643)">
    <circle cx="255.55" cy="144.73" r="49.865" fill="#fff" fill-opacity=".083779"/>
    <circle cx="255.98" cy="145.16" r="49.434" fill="url(#aa)"/>
   </g>
   <circle cx="350.62" cy="145.16" r="43.535" fill="#37353d"/>
   <circle cx="350.62" cy="145.16" r="42.649" fill="#fec842"/>
   <circle cx="350.62" cy="145.16" r="42.649" fill="url(#E)"/>
   <circle cx="350.62" cy="145.16" r="42.649" fill="url(#F)"/>
   <circle cx="350.62" cy="145.16" r="42.649" fill="url(#G)"/>
  </g>
  <g transform="rotate(219.45 77.054 362.49)">
   <g transform="translate(94.643)">
    <circle cx="255.55" cy="144.73" r="49.865" fill="#fff" fill-opacity=".083779"/>
    <circle cx="255.98" cy="145.16" r="49.434" fill="url(#W)"/>
    <circle cx="255.98" cy="145.16" r="49.434" fill="url(#W)"/>
   </g>
   <circle cx="350.62" cy="145.16" r="43.535" fill="#37353d"/>
   <circle cx="350.62" cy="145.16" r="42.649" fill="#fec842"/>
   <circle cx="350.62" cy="145.16" r="42.649" fill="url(#E)"/>
   <circle cx="350.62" cy="145.16" r="42.649" fill="url(#F)"/>
   <circle cx="350.62" cy="145.16" r="42.649" fill="url(#G)"/>
  </g>
  <g transform="rotate(-72.302 79.713 644)">
   <g transform="translate(94.643)">
    <circle cx="255.55" cy="144.73" r="49.865" fill="#fff" fill-opacity=".083779"/>
    <circle cx="255.98" cy="145.16" r="49.434" fill="url(#W)"/>
    <circle cx="255.98" cy="145.16" r="49.434" fill="url(#R)"/>
   </g>
   <circle cx="350.62" cy="145.16" r="43.535" fill="#37353d"/>
   <circle cx="350.62" cy="145.16" r="42.649" fill="#fec842"/>
   <circle cx="350.62" cy="145.16" r="42.649" fill="url(#E)"/>
   <circle cx="350.62" cy="145.16" r="42.649" fill="url(#F)"/>
   <circle cx="350.62" cy="145.16" r="42.649" fill="url(#G)"/>
  </g>
  <g transform="rotate(142.85 68.091 167.44)">
   <g transform="translate(94.643)">
    <circle cx="255.55" cy="144.73" r="49.865" fill="#fff" fill-opacity=".083779"/>
    <circle cx="255.98" cy="145.16" r="49.434" fill="url(#W)"/>
    <circle cx="255.98" cy="145.16" r="49.434" fill="url(#W)"/>
   </g>
   <circle cx="350.62" cy="145.16" r="43.535" fill="#37353d"/>
   <circle cx="350.62" cy="145.16" r="42.649" fill="#fec842"/>
   <circle cx="350.62" cy="145.16" r="42.649" fill="url(#E)"/>
   <circle cx="350.62" cy="145.16" r="42.649" fill="url(#F)"/>
   <circle cx="350.62" cy="145.16" r="42.649" fill="url(#G)"/>
  </g>
  <g transform="translate(-462.53 1.212)">
   <g transform="translate(37.742 132.25) scale(.84998)">
    <circle cx="255.55" cy="144.73" r="49.865" fill="#fff" fill-opacity=".083779"/>
    <circle cx="255.98" cy="145.16" r="49.434" fill="url(#aa)"/>
   </g>
   <circle cx="255.32" cy="255.64" r="34.531" fill="url(#ab)"/>
  </g>
  <circle cx="-207.25" cy="257.41" r="36.471" fill="url(#ac)"/>
  <g transform="translate(-462.88 1.336)">
   <path d="m248.71 245.42 99.712-35.542 5.193 32.378-99.712 35.542z" fill="url(#ad)" opacity=".30875"/>
   <rect transform="rotate(-19.618)" x="149.58" y="321.09" width="105.86" height="15.467" rx="0" ry="0" fill="url(#ae)"/>
   <circle cx="347.34" cy="226.97" r="19.407" fill="url(#af)"/>
   <circle cx="347.74" cy="226.99" r="14.649" fill="url(#ag)"/>
   <path d="m248.22 271.74-97.797-138.25 31.885-10.755 97.797 138.25z" fill="url(#ah)" opacity=".30875"/>
   <rect transform="rotate(234.72) skewX(-.123)" x="-368.75" y="52.123" width="169.34" height="15.467" rx="0" ry="0" fill="url(#ai)"/>
   <circle cx="255.1" cy="256" r="24.297" fill="url(#aj)"/>
   <circle cx="255.6" cy="256.03" r="18.34" fill="url(#ak)"/>
   <circle cx="164.11" cy="130.55" r="19.425" fill="url(#al)"/>
   <circle cx="164.51" cy="130.57" r="14.662" fill="url(#am)"/>
  </g>
 </g>
</svg>
