<?xml version="1.0" encoding="UTF-8"?>
<svg id="svg1443" width="128" height="128" version="1.1" viewBox="0 0 33.867 33.867" xmlns="http://www.w3.org/2000/svg" xmlns:cc="http://creativecommons.org/ns#" xmlns:dc="http://purl.org/dc/elements/1.1/" xmlns:rdf="http://www.w3.org/1999/02/22-rdf-syntax-ns#" xmlns:xlink="http://www.w3.org/1999/xlink">
 <defs id="defs1437">
  <radialGradient id="radialGradient963" cx="16.951" cy="2.5104" r="14.544" gradientTransform="matrix(7.1386 0 0 2.2345 -104.06 -3.0991)" gradientUnits="userSpaceOnUse">
   <stop id="stop957" stop-color="#ff9c38" offset="0"/>
   <stop id="stop959" stop-color="#ea3d1c" stop-opacity=".96863" offset="1"/>
  </radialGradient>
  <linearGradient id="linearGradient1131" x1="3.7828" x2="3.7828" y1="10.725" y2="55.017" gradientUnits="userSpaceOnUse">
   <stop id="stop1125" stop-color="#fff" offset="0"/>
   <stop id="stop1127" stop-color="#f15a25" stop-opacity=".97647" offset="1"/>
  </linearGradient>
  <linearGradient id="linearGradient3356" x1="22.975" x2="22.975" y1="31.525" y2="20.222" gradientUnits="userSpaceOnUse">
   <stop id="stop3350" stop-color="#ee4d21" offset="0"/>
   <stop id="stop3352" stop-color="#ee4d21" stop-opacity="0" offset="1"/>
  </linearGradient>
 </defs>
 <metadata id="metadata1440">
  <rdf:RDF>
   <cc:Work rdf:about="">
    <dc:format>image/svg+xml</dc:format>
    <dc:type rdf:resource="http://purl.org/dc/dcmitype/StillImage"/>
   </cc:Work>
  </rdf:RDF>
 </metadata>
 <g id="layer1">
  <g id="g1702" transform="matrix(.97573 0 0 .97573 -65.737 -37.183)" fill="none" opacity=".295" stroke="#000" stroke-linecap="round" stroke-linejoin="round" stroke-opacity=".02">
   <rect id="rect1634" x="69.84" y="40.71" width="29.811" height="29.811" rx="6.6099" ry="6.6099" stroke-width=".1"/>
   <rect id="rect1638" x="69.84" y="40.71" width="29.811" height="29.811" rx="6.6099" ry="6.6099" stroke-width=".2"/>
   <rect id="rect1640" x="69.84" y="40.71" width="29.811" height="29.811" rx="6.6099" ry="6.6099" stroke-width=".3"/>
   <rect id="rect1642" x="69.84" y="40.71" width="29.811" height="29.811" rx="6.6099" ry="6.6099" stroke-width=".4"/>
   <rect id="rect1644" x="69.84" y="40.71" width="29.811" height="29.811" rx="6.6099" ry="6.6099" stroke-width=".5"/>
   <rect id="rect1646" x="69.84" y="40.71" width="29.811" height="29.811" rx="6.6099" ry="6.6099" stroke-width=".6"/>
   <rect id="rect1648" x="69.84" y="40.71" width="29.811" height="29.811" rx="6.6099" ry="6.6099" stroke-width=".7"/>
   <rect id="rect1650" x="69.84" y="40.71" width="29.811" height="29.811" rx="6.6099" ry="6.6099" stroke-width=".8"/>
   <rect id="rect1652" x="69.84" y="40.71" width="29.811" height="29.811" rx="6.6099" ry="6.6099"/>
   <rect id="rect1654" x="69.84" y="40.71" width="29.811" height="29.811" rx="6.6099" ry="6.6099" stroke-width="1.2"/>
   <rect id="rect1656" x="69.84" y="40.71" width="29.811" height="29.811" rx="6.6099" ry="6.6099" stroke-width="1.4"/>
   <rect id="rect1658" x="69.84" y="40.71" width="29.811" height="29.811" rx="6.6099" ry="6.6099" stroke-width="1.6"/>
   <rect id="rect1660" x="69.84" y="40.71" width="29.811" height="29.811" rx="6.6099" ry="6.6099" stroke-width="1.8"/>
   <rect id="rect1662" x="69.84" y="40.71" width="29.811" height="29.811" rx="6.6099" ry="6.6099" stroke-width="2"/>
   <rect id="rect1664" x="69.84" y="40.71" width="29.811" height="29.811" rx="6.6099" ry="6.6099" stroke-width="2.2"/>
   <rect id="rect1666" x="69.84" y="40.71" width="29.811" height="29.811" rx="6.6099" ry="6.6099" stroke-width="2.6"/>
   <rect id="rect1668" x="69.84" y="40.71" width="29.811" height="29.811" rx="6.6099" ry="6.6099" stroke-width="3"/>
   <rect id="rect1670" x="69.84" y="40.71" width="29.811" height="29.811" rx="6.6099" ry="6.6099" stroke-width="3.4"/>
   <rect id="rect1672" x="69.84" y="40.71" width="29.811" height="29.811" rx="6.6099" ry="6.6099" stroke-width="3.8"/>
   <rect id="rect1674" x="69.84" y="40.71" width="29.811" height="29.811" rx="6.6099" ry="6.6099" stroke-width="4.2"/>
   <rect id="rect1676" x="69.84" y="40.71" width="29.811" height="29.811" rx="6.6099" ry="6.6099" stroke-width="4.6"/>
   <rect id="rect1678" x="69.84" y="40.71" width="29.811" height="29.811" rx="6.6099" ry="6.6099" stroke-width="5"/>
  </g>
  <rect id="rect849" x="2.4074" y="2.5392" width="29.087" height="29.087" rx="6.4495" ry="6.4495" fill="url(#radialGradient963)" stroke-linecap="round" stroke-linejoin="round" stroke-width="2.6877"/>
  <g id="g3656" fill="#2e0006" fill-opacity=".082396" opacity=".50024" stroke-width=".5611">
   <path id="path3649" d="m4.5529 18.611c-0.056194 0-0.1008 0.0437-0.10805 0.10612l-0.19696 1.5058 0.19696 1.4798c0.0073 0.06237 0.051846 0.10582 0.10805 0.10582 0.054425 0 0.098765-0.04316 0.10745-0.10526l0.23346-1.4804-0.23346-1.5061c-0.00835-0.06209-0.053303-0.10584-0.10745-0.10584zm1.1076-0.8227c-0.00927-0.06473-0.055325-0.10933-0.11209-0.10933-0.057047 0-0.10427 0.04607-0.11209 0.10933 0 4.94e-4 -0.26474 2.4346-0.26474 2.4346l0.26474 2.3807c0.00753 0.06386 0.054707 0.10989 0.11209 0.10989 0.056497 0 0.10254-0.04489 0.1118-0.1093l0.30124-2.3813zm4.1721-2.2457c-0.10863 0-0.19841 0.0895-0.20363 0.20318l-0.21086 4.4791 0.21086 2.8946c0.0055 0.11314 0.095 0.20234 0.20363 0.20234 0.10803 0 0.19754-0.08947 0.2039-0.20289v0.0023l0.23838-2.8949-0.23838-4.4791c-0.0064-0.11372-0.09587-0.20318-0.2039-0.20318zm-2.1593 1.5568c-0.083429 0-0.15148 0.06706-0.15816 0.15655l-0.23751 2.9678 0.23751 2.8713c0.00638 0.08892 0.074735 0.15598 0.15816 0.15598 0.082534 0 0.15061-0.06706 0.15784-0.15598l0.26995-2.8713-0.26995-2.9684c-0.0072-0.08892-0.07531-0.15598-0.15784-0.15598zm4.3537 6.2222c0.13469 0 0.24417-0.10932 0.24967-0.24925l0.20681-2.846-0.20651-5.9633c-0.0055-0.13992-0.115-0.24926-0.24968-0.24926-0.13585 0-0.24562 0.10962-0.24996 0.24956 0 3.71e-4 -0.18335 5.9627-0.18335 5.9627l0.18335 2.8471c0.0044 0.1388 0.11412 0.24842 0.24968 0.24842zm4.4924 0.01315c0.18537 0 0.33831-0.15364 0.34179-0.34256v0.0023-0.0023l0.14423-2.7643-0.14423-6.8872c-0.0027-0.18861-0.15642-0.34254-0.34179-0.34254-0.18567 0-0.33888 0.15364-0.34178 0.34284l-0.1289 6.8845c0 0.0044 0.1289 2.7684 0.1289 2.7684 0.0027 0.18717 0.1564 0.34081 0.34178 0.34081zm-2.2633-0.01079c0.16134 0 0.29139-0.13032 0.29573-0.29651v0.0023l0.17553-2.8028-0.1758-6.0065c-0.0044-0.16618-0.13439-0.2962-0.29573-0.2962-0.16249 0-0.29254 0.13002-0.29602 0.2962l-0.15613 6.0067 0.15642 2.8022c0.0034 0.1644 0.13354 0.29472 0.29601 0.29472zm-5.5073-0.02622c0.09587 0 0.17349-0.07724 0.18075-0.17896l0.25431-2.8952-0.25431-2.7541c-7e-3 -0.10172-0.08457-0.17841-0.18075-0.17841-0.09732 0-0.17494 0.07726-0.18102 0.17958l-0.2239 2.7529 0.2239 2.8949c0.0064 0.10203 0.0837 0.17926 0.18102 0.17926zm-2.1422-0.15856c0.0701 0 0.12687-0.05572 0.13498-0.13265l0.28559-2.7836-0.28531-2.8885c-0.00846-0.07726-0.065171-0.13294-0.13526-0.13294-0.070959 0-0.12773 0.05601-0.13497 0.13294 0 3.78e-4 -0.25141 2.8885-0.25141 2.8885l0.25141 2.783c0.00699 0.07726 0.063724 0.13322 0.13497 0.13322zm8.7769-9.0187c-0.17523 0-0.31572 0.14024-0.31919 0.31982l-0.14251 5.7872 0.14251 2.7847c0.0034 0.17727 0.14368 0.31748 0.31919 0.31748 0.17496 0 0.31455-0.13992 0.31862-0.31951v0.0023l0.15988-2.7848-0.15988-5.7878c-0.0044-0.17901-0.14366-0.31922-0.31862-0.31922zm-4.4577 9.2069c0.12107 0 0.221-0.09939 0.22679-0.22623l0.22245-2.8754-0.22245-5.5036c-0.0061-0.12711-0.10572-0.22623-0.22679-0.22623-0.12224 0-0.22187 0.09942-0.22708 0.22623 0 3.82e-4 -0.19695 5.5036-0.19695 5.5036l0.19725 2.8766c0.0051 0.12565 0.10454 0.22506 0.22679 0.22506zm2.484-0.27139v-0.0023l0.19116-2.8279-0.19116-6.1642c-0.0051-0.15305-0.12455-0.27317-0.27256-0.27317-0.14887 0-0.26879 0.11985-0.27285 0.27317l-0.16974 6.1639 0.17002 2.8293c0.0044 0.15161 0.12398 0.27141 0.27256 0.27141 0.1483 0 0.26763-0.1198 0.27256-0.27231v0.0023zm14.459-6.3826c-0.45388 0-0.8869 0.09242-1.2814 0.25888-0.26358-3.0051-2.7673-5.3625-5.8213-5.3625-0.74729 0-1.4757 0.14809-2.1191 0.39852-0.24996 0.09738-0.31658 0.19767-0.3189 0.39212v10.583c0.0023 0.20407 0.1599 0.37402 0.35772 0.39412 0.0085 0.0023 9.1236 0.0055 9.1827 0.0055 1.8294 0 3.3127-1.4929 3.3127-3.3346 0-1.8416-1.483-3.3348-3.3124-3.3348zm-10.218-4.3221c-0.19898 0-0.36235 0.16442-0.36525 0.36646l-0.14947 7.5114 0.14974 2.7261c0.0023 0.19911 0.16596 0.36326 0.36496 0.36326 0.19841 0 0.36176-0.16414 0.36466-0.36618v0.0027l0.16249-2.7264-0.16249-7.5119c-0.0027-0.20144-0.16626-0.36586-0.36466-0.36586z" enable-background="new"/>
   <path id="path3358" d="m4.369 17.868c-0.056194 0-0.1008 0.0437-0.10805 0.10612l-0.19696 1.5058 0.19696 1.4798c0.0073 0.06237 0.051846 0.10582 0.10805 0.10582 0.054425 0 0.098765-0.04316 0.10745-0.10526l0.23346-1.4804-0.23346-1.5061c-0.00835-0.06209-0.053303-0.10584-0.10745-0.10584zm1.1076-0.8227c-0.00927-0.06473-0.055325-0.10933-0.11209-0.10933-0.057047 0-0.10427 0.04607-0.11209 0.10933 0 4.94e-4 -0.26474 2.4346-0.26474 2.4346l0.26474 2.3807c0.00753 0.06386 0.054707 0.10989 0.11209 0.10989 0.056497 0 0.10254-0.04489 0.1118-0.1093l0.30124-2.3813zm4.1721-2.2457c-0.10863 0-0.19841 0.0895-0.20363 0.20318l-0.21086 4.4791 0.21086 2.8946c0.0055 0.11314 0.095 0.20234 0.20363 0.20234 0.10803 0 0.19754-0.08947 0.2039-0.20289v0.0023l0.23838-2.8949-0.23838-4.4791c-0.0064-0.11372-0.09587-0.20318-0.2039-0.20318zm-2.1593 1.5568c-0.083429 0-0.15148 0.06706-0.15816 0.15655l-0.23751 2.9678 0.23751 2.8713c0.00638 0.08892 0.074735 0.15598 0.15816 0.15598 0.082534 0 0.15061-0.06706 0.15784-0.15598l0.26995-2.8713-0.26995-2.9684c-0.0072-0.08892-0.07531-0.15598-0.15784-0.15598zm4.3537 6.2222c0.13469 0 0.24417-0.10932 0.24967-0.24925l0.20681-2.846-0.20651-5.9633c-0.0055-0.13992-0.115-0.24926-0.24968-0.24926-0.13585 0-0.24562 0.10962-0.24996 0.24956 0 3.71e-4 -0.18335 5.9627-0.18335 5.9627l0.18335 2.8471c0.0044 0.1388 0.11412 0.24842 0.24968 0.24842zm4.4924 0.01315c0.18537 0 0.33831-0.15364 0.34179-0.34256v0.0023-0.0023l0.14423-2.7643-0.14423-6.8872c-0.0027-0.18861-0.15642-0.34254-0.34179-0.34254-0.18567 0-0.33888 0.15364-0.34178 0.34284l-0.1289 6.8845c0 0.0044 0.1289 2.7684 0.1289 2.7684 0.0027 0.18717 0.1564 0.34081 0.34178 0.34081zm-2.2633-0.01079c0.16134 0 0.29139-0.13032 0.29573-0.29651v0.0023l0.17553-2.8028-0.1758-6.0065c-0.0044-0.16618-0.13439-0.2962-0.29573-0.2962-0.16249 0-0.29254 0.13002-0.29602 0.2962l-0.15613 6.0067 0.15642 2.8022c0.0034 0.1644 0.13354 0.29472 0.29601 0.29472zm-5.5073-0.02622c0.09587 0 0.17349-0.07724 0.18075-0.17896l0.25431-2.8952-0.25431-2.7541c-7e-3 -0.10172-0.08457-0.17841-0.18075-0.17841-0.09732 0-0.17494 0.07726-0.18102 0.17958l-0.2239 2.7529 0.2239 2.8949c0.0064 0.10203 0.0837 0.17926 0.18102 0.17926zm-2.1422-0.15856c0.0701 0 0.12687-0.05572 0.13498-0.13265l0.28559-2.7836-0.28531-2.8885c-0.00846-0.07726-0.065171-0.13294-0.13526-0.13294-0.070959 0-0.12773 0.05601-0.13497 0.13294 0 3.78e-4 -0.25141 2.8885-0.25141 2.8885l0.25141 2.783c0.00699 0.07726 0.063724 0.13322 0.13497 0.13322zm8.7769-9.0187c-0.17523 0-0.31572 0.14024-0.31919 0.31982l-0.14251 5.7872 0.14251 2.7847c0.0034 0.17727 0.14368 0.31748 0.31919 0.31748 0.17496 0 0.31455-0.13992 0.31862-0.31951v0.0023l0.15988-2.7848-0.15988-5.7878c-0.0044-0.17901-0.14366-0.31922-0.31862-0.31922zm-4.4577 9.2069c0.12107 0 0.221-0.09939 0.22679-0.22623l0.22245-2.8754-0.22245-5.5036c-0.0061-0.12711-0.10572-0.22623-0.22679-0.22623-0.12224 0-0.22187 0.09942-0.22708 0.22623 0 3.82e-4 -0.19695 5.5036-0.19695 5.5036l0.19725 2.8766c0.0051 0.12565 0.10454 0.22506 0.22679 0.22506zm2.484-0.27139v-0.0023l0.19116-2.8279-0.19116-6.1642c-0.0051-0.15305-0.12455-0.27317-0.27256-0.27317-0.14887 0-0.26879 0.11985-0.27285 0.27317l-0.16974 6.1639 0.17002 2.8293c0.0044 0.15161 0.12398 0.27141 0.27256 0.27141 0.1483 0 0.26763-0.1198 0.27256-0.27231v0.0023zm14.459-6.3826c-0.45388 0-0.8869 0.09242-1.2814 0.25888-0.26358-3.0051-2.7673-5.3625-5.8213-5.3625-0.74729 0-1.4757 0.14809-2.1191 0.39852-0.24996 0.09738-0.31658 0.19767-0.3189 0.39212v10.583c0.0023 0.20407 0.1599 0.37402 0.35772 0.39412 0.0085 0.0023 9.1236 0.0055 9.1827 0.0055 1.8294 0 3.3127-1.4929 3.3127-3.3346 0-1.8416-1.483-3.3348-3.3124-3.3348zm-10.218-4.3221c-0.19898 0-0.36235 0.16442-0.36525 0.36646l-0.14947 7.5114 0.14974 2.7261c0.0023 0.19911 0.16596 0.36326 0.36496 0.36326 0.19841 0 0.36176-0.16414 0.36466-0.36618v0.0027l0.16249-2.7264-0.16249-7.5119c-0.0027-0.20144-0.16626-0.36586-0.36466-0.36586z" enable-background="new"/>
   <path id="path3651" d="m4.8651 20.102c-0.056194 0-0.1008 0.0437-0.10805 0.10612l-0.19696 1.5058 0.19696 1.4798c0.0073 0.06237 0.051846 0.10582 0.10805 0.10582 0.054425 0 0.098765-0.04316 0.10745-0.10526l0.23346-1.4804-0.23346-1.5061c-0.00835-0.06209-0.053303-0.10584-0.10745-0.10584zm1.1076-0.8227c-0.00927-0.06473-0.055325-0.10933-0.11209-0.10933-0.057047 0-0.10427 0.04607-0.11209 0.10933 0 4.94e-4 -0.26474 2.4346-0.26474 2.4346l0.26474 2.3807c0.00753 0.06386 0.054707 0.10989 0.11209 0.10989 0.056497 0 0.10254-0.04489 0.1118-0.1093l0.30124-2.3813zm4.1721-2.2457c-0.10863 0-0.19841 0.0895-0.20363 0.20318l-0.21086 4.4791 0.21086 2.8946c0.0055 0.11314 0.095 0.20234 0.20363 0.20234 0.10803 0 0.19754-0.08947 0.2039-0.20289v0.0023l0.23838-2.8949-0.23838-4.4791c-0.0064-0.11372-0.09587-0.20318-0.2039-0.20318zm-2.1593 1.5568c-0.083429 0-0.15148 0.06706-0.15816 0.15655l-0.23751 2.9678 0.23751 2.8713c0.00638 0.08892 0.074735 0.15598 0.15816 0.15598 0.082534 0 0.15061-0.06706 0.15784-0.15598l0.26995-2.8713-0.26995-2.9684c-0.0072-0.08892-0.07531-0.15598-0.15784-0.15598zm4.3537 6.2222c0.13469 0 0.24417-0.10932 0.24967-0.24925l0.20681-2.846-0.20651-5.9633c-0.0055-0.13992-0.115-0.24926-0.24968-0.24926-0.13585 0-0.24562 0.10962-0.24996 0.24956 0 3.71e-4 -0.18335 5.9627-0.18335 5.9627l0.18335 2.8471c0.0044 0.1388 0.11412 0.24842 0.24968 0.24842zm4.4924 0.01315c0.18537 0 0.33831-0.15364 0.34179-0.34256v0.0023-0.0023l0.14423-2.7643-0.14423-6.8872c-0.0027-0.18861-0.15642-0.34254-0.34179-0.34254-0.18567 0-0.33888 0.15364-0.34178 0.34284l-0.1289 6.8845c0 0.0044 0.1289 2.7684 0.1289 2.7684 0.0027 0.18717 0.1564 0.34081 0.34178 0.34081zm-2.2633-0.01079c0.16134 0 0.29139-0.13032 0.29573-0.29651v0.0023l0.17553-2.8028-0.1758-6.0065c-0.0044-0.16618-0.13439-0.2962-0.29573-0.2962-0.16249 0-0.29254 0.13002-0.29602 0.2962l-0.15613 6.0067 0.15642 2.8022c0.0034 0.1644 0.13354 0.29472 0.29601 0.29472zm-5.5073-0.02622c0.09587 0 0.17349-0.07724 0.18075-0.17896l0.25431-2.8952-0.25431-2.7541c-7e-3 -0.10172-0.08457-0.17841-0.18075-0.17841-0.09732 0-0.17494 0.07726-0.18102 0.17958l-0.2239 2.7529 0.2239 2.8949c0.0064 0.10203 0.0837 0.17926 0.18102 0.17926zm-2.1422-0.15856c0.0701 0 0.12687-0.05572 0.13498-0.13265l0.28559-2.7836-0.28531-2.8885c-0.00846-0.07726-0.065171-0.13294-0.13526-0.13294-0.070959 0-0.12773 0.05601-0.13497 0.13294 0 3.78e-4 -0.25141 2.8885-0.25141 2.8885l0.25141 2.783c0.00699 0.07726 0.063724 0.13322 0.13497 0.13322zm8.7769-9.0187c-0.17523 0-0.31572 0.14024-0.31919 0.31982l-0.14251 5.7872 0.14251 2.7847c0.0034 0.17727 0.14368 0.31748 0.31919 0.31748 0.17496 0 0.31455-0.13992 0.31862-0.31951v0.0023l0.15988-2.7848-0.15988-5.7878c-0.0044-0.17901-0.14366-0.31922-0.31862-0.31922zm-4.4577 9.2069c0.12107 0 0.221-0.09939 0.22679-0.22623l0.22245-2.8754-0.22245-5.5036c-0.0061-0.12711-0.10572-0.22623-0.22679-0.22623-0.12224 0-0.22187 0.09942-0.22708 0.22623 0 3.82e-4 -0.19695 5.5036-0.19695 5.5036l0.19725 2.8766c0.0051 0.12565 0.10454 0.22506 0.22679 0.22506zm2.484-0.27139v-0.0023l0.19116-2.8279-0.19116-6.1642c-0.0051-0.15305-0.12455-0.27317-0.27256-0.27317-0.14887 0-0.26879 0.11985-0.27285 0.27317l-0.16974 6.1639 0.17002 2.8293c0.0044 0.15161 0.12398 0.27141 0.27256 0.27141 0.1483 0 0.26763-0.1198 0.27256-0.27231v0.0023zm14.459-6.3826c-0.45388 0-0.8869 0.09242-1.2814 0.25888-0.26358-3.0051-2.7673-5.3625-5.8213-5.3625-0.74729 0-1.4757 0.14809-2.1191 0.39852-0.24996 0.09738-0.31658 0.19767-0.3189 0.39212v10.583c0.0023 0.20407 0.1599 0.37402 0.35772 0.39412 0.0085 0.0023 9.1236 0.0055 9.1827 0.0055 1.8294 0 3.3127-1.4929 3.3127-3.3346 0-1.8416-1.483-3.3348-3.3124-3.3348zm-10.218-4.3221c-0.19898 0-0.36235 0.16442-0.36525 0.36646l-0.14947 7.5114 0.14974 2.7261c0.0023 0.19911 0.16596 0.36326 0.36496 0.36326 0.19841 0 0.36176-0.16414 0.36466-0.36618v0.0027l0.16249-2.7264-0.16249-7.5119c-0.0027-0.20144-0.16626-0.36586-0.36466-0.36586z" enable-background="new"/>
  </g>
  <path id="path3850" d="m4.0878 17.41c-0.056194 0-0.1008 0.0437-0.10805 0.10612l-0.19696 1.5058 0.19696 1.4798c0.0073 0.06237 0.051846 0.10582 0.10805 0.10582 0.054425 0 0.098765-0.04316 0.10745-0.10526l0.23346-1.4804-0.23346-1.5061c-0.00835-0.06209-0.053303-0.10584-0.10745-0.10584zm1.1076-0.8227c-0.00927-0.06473-0.055325-0.10933-0.11209-0.10933-0.057047 0-0.10427 0.04607-0.11209 0.10933 0 4.94e-4 -0.26474 2.4346-0.26474 2.4346l0.26474 2.3807c0.00753 0.06386 0.054707 0.10989 0.11209 0.10989 0.056497 0 0.10254-0.04489 0.1118-0.1093l0.30124-2.3813zm4.1721-2.2457c-0.10863 0-0.19841 0.0895-0.20363 0.20318l-0.21086 4.4791 0.21086 2.8946c0.0055 0.11314 0.095 0.20234 0.20363 0.20234 0.10803 0 0.19754-0.08947 0.2039-0.20289v0.0023l0.23838-2.8949-0.23838-4.4791c-0.0064-0.11372-0.09587-0.20318-0.2039-0.20318zm-2.1593 1.5568c-0.083429 0-0.15148 0.06706-0.15816 0.15655l-0.23751 2.9678 0.23751 2.8713c0.00638 0.08892 0.074735 0.15598 0.15816 0.15598 0.082534 0 0.15061-0.06706 0.15784-0.15598l0.26995-2.8713-0.26995-2.9684c-0.0072-0.08892-0.07531-0.15598-0.15784-0.15598zm4.3537 6.2222c0.13469 0 0.24417-0.10932 0.24967-0.24925l0.20681-2.846-0.20651-5.9633c-0.0055-0.13992-0.115-0.24926-0.24968-0.24926-0.13585 0-0.24562 0.10962-0.24996 0.24956 0 3.71e-4 -0.18335 5.9627-0.18335 5.9627l0.18335 2.8471c0.0044 0.1388 0.11412 0.24842 0.24968 0.24842zm4.4924 0.01315c0.18537 0 0.33831-0.15364 0.34179-0.34256v0.0023-0.0023l0.14423-2.7643-0.14423-6.8872c-0.0027-0.18861-0.15642-0.34254-0.34179-0.34254-0.18567 0-0.33888 0.15364-0.34178 0.34284l-0.1289 6.8845c0 0.0044 0.1289 2.7684 0.1289 2.7684 0.0027 0.18717 0.1564 0.34081 0.34178 0.34081zm-2.2633-0.01079c0.16134 0 0.29139-0.13032 0.29573-0.29651v0.0023l0.17553-2.8028-0.1758-6.0065c-0.0044-0.16618-0.13439-0.2962-0.29573-0.2962-0.16249 0-0.29254 0.13002-0.29602 0.2962l-0.15613 6.0067 0.15642 2.8022c0.0034 0.1644 0.13354 0.29472 0.29601 0.29472zm-5.5073-0.02622c0.09587 0 0.17349-0.07724 0.18075-0.17896l0.25431-2.8952-0.25431-2.7541c-7e-3 -0.10172-0.08457-0.17841-0.18075-0.17841-0.09732 0-0.17494 0.07726-0.18102 0.17958l-0.2239 2.7529 0.2239 2.8949c0.0064 0.10203 0.0837 0.17926 0.18102 0.17926zm-2.1422-0.15856c0.0701 0 0.12687-0.05572 0.13498-0.13265l0.28559-2.7836-0.28531-2.8885c-0.00846-0.07726-0.065171-0.13294-0.13526-0.13294-0.070959 0-0.12773 0.05601-0.13497 0.13294 0 3.78e-4 -0.25141 2.8885-0.25141 2.8885l0.25141 2.783c0.00699 0.07726 0.063724 0.13322 0.13497 0.13322zm8.7769-9.0187c-0.17523 0-0.31572 0.14024-0.31919 0.31982l-0.14251 5.7872 0.14251 2.7847c0.0034 0.17727 0.14368 0.31748 0.31919 0.31748 0.17496 0 0.31455-0.13992 0.31862-0.31951v0.0023l0.15988-2.7848-0.15988-5.7878c-0.0044-0.17901-0.14366-0.31922-0.31862-0.31922zm-4.4577 9.2069c0.12107 0 0.221-0.09939 0.22679-0.22623l0.22245-2.8754-0.22245-5.5036c-0.0061-0.12711-0.10572-0.22623-0.22679-0.22623-0.12224 0-0.22187 0.09942-0.22708 0.22623 0 3.82e-4 -0.19695 5.5036-0.19695 5.5036l0.19725 2.8766c0.0051 0.12565 0.10454 0.22506 0.22679 0.22506zm2.484-0.27139v-0.0023l0.19116-2.8279-0.19116-6.1642c-0.0051-0.15305-0.12455-0.27317-0.27256-0.27317-0.14887 0-0.26879 0.11985-0.27285 0.27317l-0.16974 6.1639 0.17002 2.8293c0.0044 0.15161 0.12398 0.27141 0.27256 0.27141 0.1483 0 0.26763-0.1198 0.27256-0.27231v0.0023zm14.459-6.3826c-0.45388 0-0.8869 0.09242-1.2814 0.25888-0.26358-3.0051-2.7673-5.3625-5.8213-5.3625-0.74729 0-1.4757 0.14809-2.1191 0.39852-0.24996 0.09738-0.31658 0.19767-0.3189 0.39212v10.583c0.0023 0.20407 0.1599 0.37402 0.35772 0.39412 0.0085 0.0023 9.1236 0.0055 9.1827 0.0055 1.8294 0 3.3127-1.4929 3.3127-3.3346 0-1.8416-1.483-3.3348-3.3124-3.3348zm-10.218-4.3221c-0.19898 0-0.36235 0.16442-0.36525 0.36646l-0.14947 7.5114 0.14974 2.7261c0.0023 0.19911 0.16596 0.36326 0.36496 0.36326 0.19841 0 0.36176-0.16414 0.36466-0.36618v0.0027l0.16249-2.7264-0.16249-7.5119c-0.0027-0.20144-0.16626-0.36586-0.36466-0.36586z" enable-background="new" fill="url(#linearGradient1131)" stroke-width=".5611"/>
  <path id="path2413" d="m4.0878 17.41c-0.056194 0-0.1008 0.0437-0.10805 0.10612l-0.19696 1.5058 0.19696 1.4798c0.0073 0.06237 0.051846 0.10582 0.10805 0.10582 0.054425 0 0.098765-0.04316 0.10745-0.10526l0.23346-1.4804-0.23346-1.5061c-0.00835-0.06209-0.053303-0.10584-0.10745-0.10584zm1.1076-0.8227c-0.00927-0.06473-0.055325-0.10933-0.11209-0.10933-0.057047 0-0.10427 0.04607-0.11209 0.10933 0 4.94e-4 -0.26474 2.4346-0.26474 2.4346l0.26474 2.3807c0.00753 0.06386 0.054707 0.10989 0.11209 0.10989 0.056497 0 0.10254-0.04489 0.1118-0.1093l0.30124-2.3813zm4.1721-2.2457c-0.10863 0-0.19841 0.0895-0.20363 0.20318l-0.21086 4.4791 0.21086 2.8946c0.0055 0.11314 0.095 0.20234 0.20363 0.20234 0.10803 0 0.19754-0.08947 0.2039-0.20289v0.0023l0.23838-2.8949-0.23838-4.4791c-0.0064-0.11372-0.09587-0.20318-0.2039-0.20318zm-2.1593 1.5568c-0.083429 0-0.15148 0.06706-0.15816 0.15655l-0.23751 2.9678 0.23751 2.8713c0.00638 0.08892 0.074735 0.15598 0.15816 0.15598 0.082534 0 0.15061-0.06706 0.15784-0.15598l0.26995-2.8713-0.26995-2.9684c-0.0072-0.08892-0.07531-0.15598-0.15784-0.15598zm4.3537 6.2222c0.13469 0 0.24417-0.10932 0.24967-0.24925l0.20681-2.846-0.20651-5.9633c-0.0055-0.13992-0.115-0.24926-0.24968-0.24926-0.13585 0-0.24562 0.10962-0.24996 0.24956 0 3.71e-4 -0.18335 5.9627-0.18335 5.9627l0.18335 2.8471c0.0044 0.1388 0.11412 0.24842 0.24968 0.24842zm4.4924 0.01315c0.18537 0 0.33831-0.15364 0.34179-0.34256v0.0023-0.0023l0.14423-2.7643-0.14423-6.8872c-0.0027-0.18861-0.15642-0.34254-0.34179-0.34254-0.18567 0-0.33888 0.15364-0.34178 0.34284l-0.1289 6.8845c0 0.0044 0.1289 2.7684 0.1289 2.7684 0.0027 0.18717 0.1564 0.34081 0.34178 0.34081zm-2.2633-0.01079c0.16134 0 0.29139-0.13032 0.29573-0.29651v0.0023l0.17553-2.8028-0.1758-6.0065c-0.0044-0.16618-0.13439-0.2962-0.29573-0.2962-0.16249 0-0.29254 0.13002-0.29602 0.2962l-0.15613 6.0067 0.15642 2.8022c0.0034 0.1644 0.13354 0.29472 0.29601 0.29472zm-5.5073-0.02622c0.09587 0 0.17349-0.07724 0.18075-0.17896l0.25431-2.8952-0.25431-2.7541c-7e-3 -0.10172-0.08457-0.17841-0.18075-0.17841-0.09732 0-0.17494 0.07726-0.18102 0.17958l-0.2239 2.7529 0.2239 2.8949c0.0064 0.10203 0.0837 0.17926 0.18102 0.17926zm-2.1422-0.15856c0.0701 0 0.12687-0.05572 0.13498-0.13265l0.28559-2.7836-0.28531-2.8885c-0.00846-0.07726-0.065171-0.13294-0.13526-0.13294-0.070959 0-0.12773 0.05601-0.13497 0.13294 0 3.78e-4 -0.25141 2.8885-0.25141 2.8885l0.25141 2.783c0.00699 0.07726 0.063724 0.13322 0.13497 0.13322zm8.7769-9.0187c-0.17523 0-0.31572 0.14024-0.31919 0.31982l-0.14251 5.7872 0.14251 2.7847c0.0034 0.17727 0.14368 0.31748 0.31919 0.31748 0.17496 0 0.31455-0.13992 0.31862-0.31951v0.0023l0.15988-2.7848-0.15988-5.7878c-0.0044-0.17901-0.14366-0.31922-0.31862-0.31922zm-4.4577 9.2069c0.12107 0 0.221-0.09939 0.22679-0.22623l0.22245-2.8754-0.22245-5.5036c-0.0061-0.12711-0.10572-0.22623-0.22679-0.22623-0.12224 0-0.22187 0.09942-0.22708 0.22623 0 3.82e-4 -0.19695 5.5036-0.19695 5.5036l0.19725 2.8766c0.0051 0.12565 0.10454 0.22506 0.22679 0.22506zm2.484-0.27139v-0.0023l0.19116-2.8279-0.19116-6.1642c-0.0051-0.15305-0.12455-0.27317-0.27256-0.27317-0.14887 0-0.26879 0.11985-0.27285 0.27317l-0.16974 6.1639 0.17002 2.8293c0.0044 0.15161 0.12398 0.27141 0.27256 0.27141 0.1483 0 0.26763-0.1198 0.27256-0.27231v0.0023zm14.459-6.3826c-0.45388 0-0.8869 0.09242-1.2814 0.25888-0.26358-3.0051-2.7673-5.3625-5.8213-5.3625-0.74729 0-1.4757 0.14809-2.1191 0.39852-0.24996 0.09738-0.31658 0.19767-0.3189 0.39212v10.583c0.0023 0.20407 0.1599 0.37402 0.35772 0.39412 0.0085 0.0023 9.1236 0.0055 9.1827 0.0055 1.8294 0 3.3127-1.4929 3.3127-3.3346 0-1.8416-1.483-3.3348-3.3124-3.3348zm-10.218-4.3221c-0.19898 0-0.36235 0.16442-0.36525 0.36646l-0.14947 7.5114 0.14974 2.7261c0.0023 0.19911 0.16596 0.36326 0.36496 0.36326 0.19841 0 0.36176-0.16414 0.36466-0.36618v0.0027l0.16249-2.7264-0.16249-7.5119c-0.0027-0.20144-0.16626-0.36586-0.36466-0.36586z" enable-background="new" fill="url(#linearGradient3356)" stroke-width=".5611"/>
 </g>
</svg>
