<?xml version="1.0" encoding="UTF-8"?>
<svg id="svg62" width="64" height="64" version="1.1" viewBox="0 0 16.933 16.933" xmlns="http://www.w3.org/2000/svg" xmlns:cc="http://creativecommons.org/ns#" xmlns:dc="http://purl.org/dc/elements/1.1/" xmlns:rdf="http://www.w3.org/1999/02/22-rdf-syntax-ns#" xmlns:xlink="http://www.w3.org/1999/xlink">
 <defs id="defs15">
  <style id="style841" type="text/css"/>
  <style id="style851" type="text/css"/>
  <style id="style853" type="text/css"/>
  <style id="style855" type="text/css"/>
  <style id="style857" type="text/css"/>
  <style id="style859" type="text/css"/>
  <style id="style861" type="text/css"/>
  <style id="style863" type="text/css"/>
  <filter id="filter1057-7" x="-.027" y="-.027" width="1.054" height="1.054" color-interpolation-filters="sRGB">
   <feGaussianBlur id="feGaussianBlur843-0" stdDeviation="0.61875"/>
  </filter>
  <linearGradient id="linearGradient1053-9" x1="-127" x2="-127" y1="60" y2="5" gradientTransform="matrix(.26458 0 0 .26458 34.792 -.13493)" gradientUnits="userSpaceOnUse">
   <stop id="stop846-3" stop-color="#32d7ff" offset="0"/>
   <stop id="stop848-6" stop-color="#329bff" offset="1"/>
  </linearGradient>
  <linearGradient id="linearGradient3443" x1="88.238" x2="116.13" y1="17.146" y2="59.604" gradientTransform="matrix(.20772 0 0 .20772 -13.413 .49538)" gradientUnits="userSpaceOnUse">
   <stop id="stop3437" stop-color="#99dfff" offset="0"/>
   <stop id="stop7511" stop-color="#f1f3f4" offset=".55436"/>
   <stop id="stop3439" stop-color="#fff" offset="1"/>
  </linearGradient>
  <linearGradient id="linearGradient15698" x1="6.4858" x2="9.8147" y1="8.6999" y2="10.622" gradientUnits="userSpaceOnUse">
   <stop id="stop15692" stop-color="#feac5e" offset="0"/>
   <stop id="stop15694" stop-color="#bf7dd0" offset="1"/>
  </linearGradient>
  <linearGradient id="linearGradient24181" x1="7.3585" x2="8.9418" y1="9.7376" y2="9.7376" gradientUnits="userSpaceOnUse">
   <stop id="stop24175" stop-color="#f7ee09" offset="0"/>
   <stop id="stop24177" stop-color="#ffbb24" offset="1"/>
  </linearGradient>
 </defs>
 <metadata id="metadata17">
  <rdf:RDF>
   <cc:Work rdf:about="">
    <dc:format>image/svg+xml</dc:format>
    <dc:type rdf:resource="http://purl.org/dc/dcmitype/StillImage"/>
    <dc:title/>
   </cc:Work>
  </rdf:RDF>
 </metadata>
 <circle id="circle867" cx="-338.24" cy="-338.47" r="0" fill="#5e4aa6" stroke-width=".26458"/>
 <circle id="circle869" cx="-306.9" cy="-348.87" r="0" fill="#5e4aa6" stroke-width=".26458"/>
 <circle id="circle871" cx="-15.99" cy="-14.051" r="0" fill="#5e4aa6" fill-rule="evenodd" stroke-width=".26458"/>
 <circle id="circle873" cx="-286.13" cy="-367.79" r="0" fill="#5e4aa6" stroke-width=".26458"/>
 <circle id="circle875" cx="4.7792" cy="-32.962" r="0" fill="#5e4aa6" fill-rule="evenodd" stroke-width=".26458"/>
 <rect id="rect879-0" transform="scale(.26458)" x="4.5" y="4.5" width="55" height="55" ry="15" fill="#141414" filter="url(#filter1057-7)" opacity=".3" stroke-linecap="round" stroke-width="2.7444" style="isolation:isolate"/>
 <rect id="rect881-6" x="1.1906" y="1.1906" width="14.552" height="14.552" ry="3.9687" fill="url(#linearGradient1053-9)" stroke-linecap="round" stroke-width=".72611" style="isolation:isolate"/>
 <path id="path3373" d="m4.915 4.0569v0.57081l0.13783 0.20386c0.026653 0.039349 0.052513 0.079122 0.077589 0.11927 0.025076 0.040152 0.049538 0.080487 0.073025 0.1214 0.023487 0.040916 0.04627 0.082196 0.068157 0.12384 0.021886 0.041642 0.04271 0.08364 0.062984 0.12597 0.020273 0.042328 0.03977 0.085122 0.05842 0.1281 0.018649 0.042976 0.036538 0.086339 0.053552 0.12992 0.017014 0.043584 0.033317 0.087291 0.048683 0.13144 0.015367 0.044154 0.029805 0.088586 0.043511 0.13327 0.013705 0.044685 0.026608 0.089615 0.038642 0.13479 0.012035 0.045176 0.023119 0.090684 0.03347 0.13631 0.010351 0.045629 0.019947 0.091487 0.028601 0.13753 0.00866 0.046043 0.01648 0.092329 0.023429 0.13875 0.00695 0.046418 0.013028 0.092906 0.018256 0.13966 0.00523 0.046754 0.00959 0.093826 0.013084 0.14088 0.0035 0.047051 0.00616 0.094177 0.00791 0.14149 0.00174 0.047309 0.00274 0.094566 0.00274 0.14209 0 0.064314-0.00236 0.12869-0.00669 0.1926-0.00433 0.06391-0.010868 0.12748-0.019473 0.19078-0.00861 0.063295-0.019128 0.12618-0.031948 0.18865-0.01282 0.062469-0.027754 0.12448-0.044728 0.18591-0.016974 0.061432-0.036133 0.12238-0.057203 0.18256-0.02107 0.060184-0.043963 0.11958-0.069069 0.1783s-0.052462 0.11668-0.081544 0.17374c-0.029083 0.057055-0.060106 0.11339-0.093107 0.16857-0.034585 0.05781-0.067129 0.11645-0.097975 0.17587-0.030853 0.059421-0.059932 0.11958-0.087028 0.18043s-0.05243 0.12229-0.075763 0.18439c-0.023334 0.062101-0.044642 0.12487-0.064201 0.18804-0.019559 0.063169-0.03717 0.12672-0.052943 0.19078-0.015774 0.064057-0.02971 0.12845-0.041685 0.19321-0.011975 0.064763-0.021958 0.13005-0.030123 0.19534-0.00817 0.065288-0.014521 0.13062-0.018865 0.19625-0.00434 0.065631-0.00679 0.13137-0.0073 0.19717-4.985e-4 0.06579 9.14e-4 0.1317 0.00426 0.19747 0.00334 0.06577 0.00863 0.13159 0.015822 0.19717 0.0072 0.06558 0.016318 0.13076 0.027384 0.19595 0.011065 0.06519 0.023999 0.1304 0.038946 0.19504 0.014947 0.06463 0.031972 0.12871 0.050813 0.1926 0.018842 0.06389 0.039628 0.12751 0.062375 0.19047 0.022747 0.06297 0.047272 0.12527 0.073938 0.18713l0.60458 1.4015h5.0049l0.60458-1.4015c0.01882-0.04367 0.03669-0.08751 0.05355-0.13175 0.01687-0.04424 0.03256-0.08884 0.04747-0.13357 0.01491-0.04474 0.02903-0.08962 0.04199-0.13479 0.01296-0.04517 0.02489-0.09047 0.0359-0.13601 0.01101-0.04554 0.02104-0.09138 0.03012-0.13723 0.0091-0.04585 0.01718-0.09175 0.02434-0.13783 0.0071-0.04609 0.01332-0.09218 0.01855-0.13844 0.0052-0.04626 0.0095-0.09268 0.01277-0.13905l1.4806-1.5682c0.0404-0.042789 0.07872-0.087345 0.1144-0.13327 0.03568-0.045925 0.06896-0.093356 0.0998-0.14209 0.03084-0.048739 0.05902-0.098777 0.08489-0.15001 0.02587-0.051229 0.0492-0.10361 0.06998-0.157 0.02078-0.053395 0.03921-0.10785 0.05477-0.16309 0.01556-0.05524 0.02843-0.1112 0.03864-0.16796 0.01022-0.056761 0.01778-0.11426 0.02252-0.17222 0.0047-0.05796 0.0066-0.11642 0.0058-0.17526-8.3e-4 -0.058861-0.0045-0.11714-0.01095-0.17496-0.0064-0.05782-0.01554-0.11515-0.02738-0.17161-0.01184-0.05646-0.02637-0.11226-0.04351-0.16704-0.01714-0.054782-0.03703-0.10848-0.05933-0.16126-0.0223-0.052785-0.04721-0.10471-0.07455-0.15518-0.02733-0.050471-0.05692-0.099732-0.08915-0.14757s-0.06707-0.094162-0.10406-0.13905c-0.03699-0.044889-0.07613-0.088302-0.11776-0.12992-0.04307-0.043075-0.08802-0.083616-0.13448-0.12171-0.04646-0.038092-0.09441-0.073523-0.14392-0.10649-0.04952-0.032971-0.1005-0.063568-0.15274-0.091281-0.05224-0.027713-0.10602-0.052534-0.16066-0.074851-0.05464-0.022316-0.11034-0.041942-0.16704-0.058724-0.0567-0.016781-0.11439-0.03088-0.17282-0.041989-0.05843-0.011109-0.11755-0.019347-0.17739-0.024646-0.05984-0.0053-0.12013-0.00765-0.18104-7e-3 -0.04671 4.778e-4 -0.09333 0.00274-0.13936 0.00669-0.04603 0.00395-0.09172 0.00966-0.13692 0.017039-0.0452 0.00738-0.08996 0.016347-0.13418 0.02708-0.04422 0.010733-0.08773 0.023094-0.13084 0.037121-0.0431 0.014027-0.08566 0.029905-0.12749 0.047162s-0.08311 0.035867-0.12353 0.05629c-0.04042 0.020423-0.08011 0.042503-0.11897 0.066027-0.03886 0.023524-0.07664 0.048593-0.1138 0.075155v-1.3598h-0.69495c-0.088306 0-0.17641-0.00164-0.26441-0.00517-0.088022-0.0035333-0.1759-0.008774-0.26352-0.015824-0.08762-0.0070519-0.17511-0.015913-0.26228-0.026472-0.087168-0.010558-0.17413-0.022764-0.26076-0.036817-0.086638-0.014054-0.1729-0.02993-0.25894-0.047466-0.086029-0.017535-0.17176-0.036805-0.25711-0.057812-0.08535-0.021007-0.17038-0.043691-0.25498-0.068156-0.084592-0.024465-0.16878-0.050894-0.25254-0.078806-0.090356-0.030119-0.18107-0.058188-0.27232-0.084587-0.091258-0.026399-0.18299-0.050966-0.27506-0.073633-0.092077-0.022667-0.18438-0.043454-0.27719-0.062375-0.092811-0.018921-0.18616-0.035954-0.27962-0.051117-0.093465-0.015163-0.18711-0.028468-0.28115-0.039859-0.094037-0.011391-0.18844-0.020994-0.28297-0.028602-0.094528-0.0076086-0.18925-0.013229-0.28419-0.017039-0.094936-0.0038095-0.19014-0.0057807-0.28541-0.0057807zm6.8223 2.2437c0.04339-4.985e-4 0.08638 0.0011 0.12901 0.00487 0.04263 0.00376 0.08494 0.00943 0.12658 0.017344 0.04164 0.00791 0.08251 0.017853 0.12293 0.029818 0.04041 0.011964 0.08033 0.026073 0.11927 0.041989 0.03895 0.015915 0.07686 0.033784 0.1141 0.053551 0.03724 0.019766 0.07362 0.041292 0.10893 0.06481 0.0353 0.023517 0.06972 0.048901 0.10284 0.076068 0.03313 0.027167 0.06513 0.056305 0.09585 0.087021 0.02965 0.029651 0.05762 0.060514 0.08398 0.092498s0.05097 0.065103 0.07394 0.099192 0.04441 0.069006 0.0639 0.10497c0.01948 0.035967 0.03704 0.072834 0.05294 0.11045 0.01591 0.037616 0.03007 0.075977 0.04229 0.11501 0.01223 0.039037 0.02258 0.078739 0.03104 0.11897 0.0085 0.04023 0.01489 0.081121 0.01946 0.12232 0.0046 0.041195 0.0073 0.082818 0.0079 0.12475 6.23e-4 0.041959-8.31e-4 0.083725-0.0043 0.12506-0.0034 0.04133-0.0085 0.082149-0.01583 0.12262-0.0073 0.040472-0.0166 0.080499-0.02769 0.11988-0.01109 0.039383-0.02413 0.078168-0.03895 0.11623-0.01481 0.038063-0.03146 0.075457-0.0499 0.11197-0.01844 0.036514-0.03857 0.072065-0.06055 0.1068-0.02198 0.034734-0.04577 0.068599-0.0712 0.10132s-0.05275 0.06445-0.08154 0.094932l-1.1309 1.1979c-0.0079-0.054291-0.01691-0.10858-0.02739-0.16248-0.01049-0.053901-0.02217-0.10755-0.03529-0.16096-0.01313-0.053405-0.02775-0.10663-0.04351-0.15944-0.01577-0.052804-0.03273-0.10521-0.05112-0.15731-0.01838-0.052097-0.03802-0.10389-0.05903-0.15518-0.02101-0.051285-0.04362-0.10207-0.06724-0.15244-0.02363-0.050368-0.04831-0.10005-0.07455-0.1494-0.02624-0.049345-0.05391-0.098138-0.08276-0.14635-0.033-0.055174-0.06402-0.11151-0.09311-0.16857-0.02908-0.057055-0.05614-0.11501-0.08124-0.17374-0.02511-0.058725-0.0483-0.11812-0.06938-0.1783-0.02107-0.060184-0.04023-0.12113-0.0572-0.18256-0.01697-0.061432-0.0316-0.12344-0.04442-0.18591-0.01282-0.062468-0.02365-0.12535-0.03225-0.18865-0.0086-0.063294-0.01514-0.12687-0.01946-0.19078-0.0043-0.063909-0.0064-0.12829-0.0064-0.1926v-0.13905l0.11806-0.12323c0.03009-0.031287 0.06145-0.060754 0.09402-0.088543s0.0665-0.053706 0.10132-0.077893c0.03482-0.024187 0.07057-0.046761 0.10741-0.067244 0.03684-0.020483 0.07456-0.039006 0.11319-0.055682 0.03862-0.016675 0.07819-0.031354 0.11836-0.044119 0.04017-0.012764 0.08113-0.023501 0.12262-0.032253 0.04149-0.00875 0.08338-0.015448 0.12597-0.020082 0.04258-0.00463 0.08588-0.00719 0.12932-0.00761zm-5.5158 0.6557c0 0.075972-0.00249 0.15178-0.00761 0.22729-0.00512 0.075508-0.012957 0.15098-0.023125 0.22577-0.010168 0.074791-0.022582 0.1489-0.037729 0.22273-0.015149 0.073824-0.032885 0.14708-0.052943 0.21968-0.020057 0.072603-0.04265 0.1446-0.067548 0.21573-0.024897 0.07113-0.052181 0.14146-0.081849 0.21086-0.029667 0.069405-0.061781 0.13796-0.096149 0.20538-0.034368 0.067426-0.070843 0.1338-0.10984 0.19899 0.038998-0.065197 0.075474-0.13157 0.10984-0.19899 0.034368-0.067427 0.066482-0.13598 0.096149-0.20538 0.029668-0.069404 0.056951-0.13973 0.081849-0.21086 0.024897-0.07113 0.047491-0.14312 0.067548-0.21573 0.020057-0.072603 0.037795-0.14586 0.052943-0.21968 0.015149-0.073823 0.027561-0.14793 0.037729-0.22273 0.010168-0.074792 0.018005-0.15026 0.023125-0.22577 0.00512-0.075508 0.00761-0.15132 0.00761-0.22729zm3.9686 0c0 0.075972 0.0025 0.15178 0.0076 0.22729 0.0051 0.075508 0.01296 0.15098 0.02313 0.22577 0.01018 0.074791 0.02288 0.1489 0.03803 0.22273 0.01516 0.073824 0.03258 0.14708 0.05264 0.21968 0.02007 0.072603 0.04264 0.1446 0.06755 0.21573 0.02491 0.07113 0.05217 0.14146 0.08185 0.21086 0.02968 0.069405 0.06176 0.13796 0.09615 0.20538 0.03439 0.067426 0.07112 0.1338 0.11014 0.19899-0.03902-0.065197-0.07576-0.13157-0.11014-0.19899-0.03439-0.067427-0.06647-0.13598-0.09615-0.20538-0.02968-0.069404-0.05694-0.13973-0.08185-0.21086-0.02491-0.07113-0.04748-0.14312-0.06755-0.21573-0.02007-0.072603-0.03749-0.14586-0.05264-0.21968-0.01514-0.073823-0.02786-0.14793-0.03803-0.22273-0.01018-0.074792-0.01801-0.15026-0.02313-0.22577-0.0051-0.075508-0.0076-0.15132-0.0076-0.22729z" fill="url(#linearGradient3443)" fill-rule="evenodd" style="isolation:isolate;paint-order:stroke fill markers"/>
 <path id="path2886" d="m7.4081 8.6937c-0.046113-0.035104-0.091394-0.068754-0.12733-0.089525-0.30638-0.17697-0.71496-0.042997-0.79493 0.095757-0.080178 0.13875 0.0081 0.55958 0.31448 0.73635 0.035935 0.020771 0.087864 0.043205 0.14125 0.065638-0.057745 0.00769-0.11341 0.015786-0.15329 0.026587-0.3419 0.091395-0.5359 0.47504-0.49457 0.62979 0.041543 0.15475 0.40151 0.38988 0.7432 0.29828 0.040089-0.01059 0.092433-0.03157 0.14623-0.05359-0.035311 0.04632-0.068961 0.09139-0.089733 0.12733-0.17697 0.30638-0.042789 0.71496 0.095757 0.79513 0.13875 0.07997 0.55958-0.0083 0.73656-0.31469 0.020564-0.03593 0.042789-0.08745 0.065222-0.14125 0.00789 0.05754 0.015994 0.1132 0.026795 0.15329 0.091602 0.3419 0.47525 0.5359 0.62979 0.49457 0.15475-0.04154 0.38988-0.40151 0.29849-0.7432-0.011424-0.04217-0.034065-0.09825-0.056914-0.15433 0.052552 0.0457 0.095757 0.07789 0.13045 0.09783 0.30638 0.17697 0.71496 0.043 0.79513-0.09576 0.07997-0.13875-0.0081-0.55958-0.31469-0.73656-0.035935-0.020564-0.087656-0.042997-0.14145-0.06543 0.057745-0.00769 0.11362-0.015786 0.15371-0.026587 0.34169-0.091597 0.53591-0.47525 0.49436-0.62979-0.041335-0.15475-0.40131-0.38988-0.7432-0.29849-0.038635 0.010386-0.088694 0.030326-0.15101 0.060653 0.036558-0.048398 0.0727-0.09638 0.09451-0.13418 0.17697-0.30638 0.042997-0.71496-0.095756-0.79513-0.13875-0.07997-0.55958 0.0081009-0.73635 0.31469-0.020772 0.035935-0.043205 0.087656-0.065638 0.14125-0.0076855-0.057745-0.015786-0.11341-0.02638-0.1535-0.091602-0.34169-0.47525-0.5359-0.63-0.49436-0.15475 0.041335-0.38988 0.40131-0.29828 0.7432 0.010593 0.039881 0.031572 0.092225 0.05359 0.14602z" fill="url(#linearGradient15698)"/>
 <path id="path2888" d="m7.4646 9.3418c0.21852-0.37846 0.70312-0.50828 1.0814-0.28976 0.37846 0.21852 0.50828 0.70291 0.28976 1.0814-0.21831 0.37846-0.70291 0.50828-1.0814 0.28976-0.37846-0.21852-0.50828-0.70291-0.28976-1.0814z" fill="url(#linearGradient24181)"/>
</svg>
