<?xml version="1.0" encoding="UTF-8"?>
<svg id="svg9" width="64" height="64" version="1.1" viewBox="0 0 16.933 16.933" xmlns="http://www.w3.org/2000/svg" xmlns:cc="http://creativecommons.org/ns#" xmlns:dc="http://purl.org/dc/elements/1.1/" xmlns:rdf="http://www.w3.org/1999/02/22-rdf-syntax-ns#">
 <defs id="defs2">
  <filter id="filter1057-2" x="-.026518" y="-.026518" width="1.053" height="1.053" color-interpolation-filters="sRGB">
   <feGaussianBlur id="feGaussianBlur1" stdDeviation="0.61875"/>
  </filter>
  <linearGradient id="linearGradient1053-9" x1="-127" x2="-127" y1="5" y2="60" gradientTransform="matrix(.26939 0 0 .26939 24.7 2.5341)" gradientUnits="userSpaceOnUse">
   <stop id="stop1" stop-color="#c337c3" offset="0"/>
   <stop id="stop2" stop-color="#f5378c" offset="1"/>
  </linearGradient>
 </defs>
 <metadata id="metadata2">
  <rdf:RDF>
   <cc:Work rdf:about="">
    <dc:format>image/svg+xml</dc:format>
    <dc:type rdf:resource="http://purl.org/dc/dcmitype/StillImage"/>
    <dc:title/>
   </cc:Work>
  </rdf:RDF>
 </metadata>
 <g id="g9" transform="translate(10.571 -2.8255)">
  <rect id="rect2" transform="matrix(.26458 0 0 .26458 -10.571 2.8255)" x="4" y="4" width="56" height="56" ry="15.092" fill="#141414" filter="url(#filter1057-2)" opacity=".3" stroke-linecap="round" stroke-width="2.7444"/>
  <rect id="rect3" x="-9.5127" y="3.8838" width="14.816" height="14.816" rx="3.435" ry="3.435" fill="url(#linearGradient1053-9)" stroke-linecap="round" stroke-width=".7393"/>
  <g id="g8" fill="#fff" stroke-width=".33777">
   <path id="path3" d="m-2.1047 6.9012-4.391 7.4309h8.7819m-4.391-4.391c0.56069 0 1.0133 0.33506 1.0133 0.7495v1.879c0 0.41444-0.45261 0.7495-1.0133 0.7495s-1.0133-0.33506-1.0133-0.7495v-1.879c0-0.41444 0.45261-0.7495 1.0133-0.7495"/>
   <path id="path4" d="m-4.1313 12.981h0.00135c0.37222 0 0.67553 0.26785 0.67553 0.59785v1.5054c0 0.33101-0.30331 0.59886-0.67553 0.59886h-0.00135c-0.37323 0-0.67553-0.26785-0.67553-0.59886v-1.5054c0-0.33 0.3023-0.59785 0.67553-0.59785"/>
   <path id="path5" d="m-0.079503 12.981h0.0013494c0.37323 0 0.67553 0.26785 0.67553 0.59785v1.5054c0 0.33101-0.3023 0.59886-0.67553 0.59886h-0.0013494c-0.37222 0-0.67418-0.26785-0.67418-0.59886v-1.5054c0-0.33 0.3023-0.59785 0.67418-0.59785"/>
   <path id="path6" d="m-2.1047 10.279h0.00135c0.37222 0 0.67418 0.26785 0.67418 0.59886v1.5054c0 0.33-0.3023 0.59886-0.67418 0.59886h-0.00135c-0.37323 0-0.67553-0.2692-0.67553-0.59886v-1.5054c0-0.33101 0.3023-0.59886 0.67553-0.59886"/>
   <path id="path7" d="m-4.9758 9.2655h0.00135c0.27832 0 0.5053 0.26785 0.5053 0.59886v2.8565c0 0.33-0.22698 0.59784-0.5053 0.59784h-0.00135c-0.27967 0-0.50665-0.26785-0.50665-0.59784v-2.8565c0-0.33101 0.22698-0.59886 0.50665-0.59886"/>
   <path id="path8" d="m0.76626 9.2655h0.001349c0.27967 0 0.5053 0.26785 0.5053 0.59886v2.8565c0 0.33-0.22563 0.59784-0.5053 0.59784h-0.001349c-0.27967 0-0.50665-0.26785-0.50665-0.59784v-2.8565c0-0.33101 0.22698-0.59886 0.50665-0.59886"/>
  </g>
 </g>
</svg>
