<?xml version="1.0" encoding="UTF-8"?>
<svg id="svg37" width="64" height="64" version="1.1" viewBox="0 0 16.933 16.933" xmlns="http://www.w3.org/2000/svg" xmlns:cc="http://creativecommons.org/ns#" xmlns:dc="http://purl.org/dc/elements/1.1/" xmlns:rdf="http://www.w3.org/1999/02/22-rdf-syntax-ns#" xmlns:xlink="http://www.w3.org/1999/xlink">
 <metadata id="metadata41">
  <rdf:RDF>
   <cc:Work rdf:about="">
    <dc:format>image/svg+xml</dc:format>
    <dc:type rdf:resource="http://purl.org/dc/dcmitype/StillImage"/>
    <dc:title/>
   </cc:Work>
  </rdf:RDF>
 </metadata>
 <defs id="defs9">
  <linearGradient id="linearGradient1114" x1="4.4429" x2="59.203" y1="59.095" y2="4.9329" gradientUnits="userSpaceOnUse">
   <stop id="stop1108" stop-color="#0061e5" offset="0"/>
   <stop id="stop1110" stop-color="#007af1" offset="1"/>
  </linearGradient>
 </defs>
 <path id="rect1103" transform="scale(.26458)" d="m17.5 4.5c-7.202 0-13 5.798-13 13v29c0 7.202 5.798 13 13 13h29c7.202 0 13-5.798 13-13v-29c0-7.202-5.798-13-13-13h-29z" fill="url(#linearGradient1114)" stroke-linecap="round" stroke-linejoin="round" stroke-width="3" style="paint-order:stroke fill markers"/>
 <path id="path948" transform="scale(.26458)" d="m17.5 4.5c-5.2475 0-9.7378 3.0845-11.795 7.541h52.59c-2.0571-4.4565-6.5474-7.541-11.795-7.541h-29z" fill="#fff" opacity=".35" style="paint-order:stroke fill markers"/>
 <rect id="rect950" x="7.1436" y="2.3102" width="2.6458" height=".52918" ry=".26459" fill="#fff" style="paint-order:stroke markers fill"/>
 <rect id="rect952" x="2.5763" y="2.3102" width="1.0583" height=".52918" ry=".26459" fill="#fff" style="paint-order:stroke markers fill"/>
 <rect id="rect954" x="13.827" y="2.3102" width=".52917" height=".52918" ry=".26459" fill="#fff" style="paint-order:stroke markers fill"/>
 <rect id="rect956" x="12.769" y="2.3102" width=".79375" height=".52918" ry=".26459" fill="#fff" style="paint-order:stroke markers fill"/>
 <rect id="rect958" x="11.975" y="2.3102" width=".52917" height=".52918" ry=".26459" fill="#fff" style="paint-order:stroke markers fill"/>
 <path id="path969" transform="scale(.26458)" d="m15 53c-1.108 0-2 0.89201-2 2v3.6895c1.4028 0.51532 2.9142 0.81055 4.5 0.81055h29c1.5858 0 3.0972-0.29523 4.5-0.81055v-3.6895c0-1.108-0.89201-2-2-2h-34z" fill="#fff" opacity=".35" style="paint-order:stroke markers fill"/>
 <rect id="rect971" x="4.4979" y="13.516" width="1.3229" height="1.3229" ry=".13229" fill="#fff" style="paint-order:stroke markers fill"/>
 <rect id="rect973" x="6.7028" y="13.516" width="1.3229" height="1.3229" ry=".13229" fill="#fff" style="paint-order:stroke markers fill"/>
 <rect id="rect975" x="8.9076" y="13.516" width="1.3229" height="1.3229" ry=".13229" fill="#fff" style="paint-order:stroke markers fill"/>
 <rect id="rect977" x="11.112" y="13.516" width="1.3229" height="1.3229" ry=".13229" fill="#fff" style="paint-order:stroke markers fill"/>
</svg>
