<?xml version="1.0" encoding="UTF-8"?>
<svg id="svg1576" width="128" height="128" version="1.1" viewBox="0 0 33.867 33.867" xmlns="http://www.w3.org/2000/svg" xmlns:cc="http://creativecommons.org/ns#" xmlns:dc="http://purl.org/dc/elements/1.1/" xmlns:rdf="http://www.w3.org/1999/02/22-rdf-syntax-ns#" xmlns:xlink="http://www.w3.org/1999/xlink">
 <defs id="defs1570">
  <radialGradient id="radialGradient1506" cx="16.914" cy="3.8159" r="14.544" gradientTransform="matrix(2.7895 0 0 1.8353 -30.612 -3.2437)" gradientUnits="userSpaceOnUse">
   <stop id="stop4671" stop-color="#ffe445" offset="0"/>
   <stop id="stop4673" stop-color="#fb7e15" offset="1"/>
  </radialGradient>
  <linearGradient id="linearGradient896" x1="21.179" x2="21.179" y1="6.1026" y2="95.093" gradientUnits="userSpaceOnUse">
   <stop id="stop890" offset="0"/>
   <stop id="stop892" stop-opacity="0" offset="1"/>
  </linearGradient>
  <radialGradient id="radialGradient1986" cx="16.894" cy="17.018" r="14.544" gradientTransform="matrix(1.729 0 0 .56566 -12.315 7.3917)" gradientUnits="userSpaceOnUse">
   <stop id="stop1980" stop-color="#40fb15" offset="0"/>
   <stop id="stop1982" stop-color="#40fb15" stop-opacity="0" offset="1"/>
  </radialGradient>
  <linearGradient id="linearGradient5157" x1="19.345" x2="31.063" y1="-3.2661" y2="8.4522" gradientUnits="userSpaceOnUse">
   <stop id="stop5151" stop-color="#d1c629" offset="0"/>
   <stop id="stop11850" stop-color="#afce22" offset=".20906"/>
   <stop id="stop9648" stop-color="#a6cc1f" offset=".52484"/>
   <stop id="stop13662" stop-color="#e69f1d" offset=".78783"/>
   <stop id="stop5153" stop-color="#fc8d1c" offset="1"/>
  </linearGradient>
  <linearGradient id="linearGradient17552" x1="21.812" x2="25.821" y1="-7.6867" y2="-3.6779" gradientUnits="userSpaceOnUse">
   <stop id="stop17546" stop-color="#fbba30" offset="0"/>
   <stop id="stop17548" stop-color="#a5cf1f" offset="1"/>
  </linearGradient>
  <radialGradient id="radialGradient24674" cx="24.78" cy="2.6082" r="7.0193" gradientTransform="matrix(1.279 0 0 1.2553 -6.9144 -.66589)" gradientUnits="userSpaceOnUse">
   <stop id="stop24647" stop-color="#faf69b" stop-opacity=".0009877" offset="0"/>
   <stop id="stop24804" stop-color="#faf69b" stop-opacity=".32549" offset=".63328"/>
   <stop id="stop24649" stop-color="#faf69b" offset="1"/>
  </radialGradient>
 </defs>
 <metadata id="metadata1573">
  <rdf:RDF>
   <cc:Work rdf:about="">
    <dc:format>image/svg+xml</dc:format>
    <dc:type rdf:resource="http://purl.org/dc/dcmitype/StillImage"/>
   </cc:Work>
  </rdf:RDF>
 </metadata>
 <g id="layer1">
  <g id="g1702" transform="matrix(.97573 0 0 .97573 -65.794 -37.247)" fill="none" opacity=".295" stroke="#000" stroke-linecap="round" stroke-linejoin="round" stroke-opacity=".02">
   <rect id="rect1634" x="69.84" y="40.71" width="29.811" height="29.811" rx="6.6099" ry="6.6099" stroke-width=".1"/>
   <rect id="rect1638" x="69.84" y="40.71" width="29.811" height="29.811" rx="6.6099" ry="6.6099" stroke-width=".2"/>
   <rect id="rect1640" x="69.84" y="40.71" width="29.811" height="29.811" rx="6.6099" ry="6.6099" stroke-width=".3"/>
   <rect id="rect1642" x="69.84" y="40.71" width="29.811" height="29.811" rx="6.6099" ry="6.6099" stroke-width=".4"/>
   <rect id="rect1644" x="69.84" y="40.71" width="29.811" height="29.811" rx="6.6099" ry="6.6099" stroke-width=".5"/>
   <rect id="rect1646" x="69.84" y="40.71" width="29.811" height="29.811" rx="6.6099" ry="6.6099" stroke-width=".6"/>
   <rect id="rect1648" x="69.84" y="40.71" width="29.811" height="29.811" rx="6.6099" ry="6.6099" stroke-width=".7"/>
   <rect id="rect1650" x="69.84" y="40.71" width="29.811" height="29.811" rx="6.6099" ry="6.6099" stroke-width=".8"/>
   <rect id="rect1652" x="69.84" y="40.71" width="29.811" height="29.811" rx="6.6099" ry="6.6099"/>
   <rect id="rect1654" x="69.84" y="40.71" width="29.811" height="29.811" rx="6.6099" ry="6.6099" stroke-width="1.2"/>
   <rect id="rect1656" x="69.84" y="40.71" width="29.811" height="29.811" rx="6.6099" ry="6.6099" stroke-width="1.4"/>
   <rect id="rect1658" x="69.84" y="40.71" width="29.811" height="29.811" rx="6.6099" ry="6.6099" stroke-width="1.6"/>
   <rect id="rect1660" x="69.84" y="40.71" width="29.811" height="29.811" rx="6.6099" ry="6.6099" stroke-width="1.8"/>
   <rect id="rect1662" x="69.84" y="40.71" width="29.811" height="29.811" rx="6.6099" ry="6.6099" stroke-width="2"/>
   <rect id="rect1664" x="69.84" y="40.71" width="29.811" height="29.811" rx="6.6099" ry="6.6099" stroke-width="2.2"/>
   <rect id="rect1666" x="69.84" y="40.71" width="29.811" height="29.811" rx="6.6099" ry="6.6099" stroke-width="2.6"/>
   <rect id="rect1668" x="69.84" y="40.71" width="29.811" height="29.811" rx="6.6099" ry="6.6099" stroke-width="3"/>
   <rect id="rect1670" x="69.84" y="40.71" width="29.811" height="29.811" rx="6.6099" ry="6.6099" stroke-width="3.4"/>
   <rect id="rect1672" x="69.84" y="40.71" width="29.811" height="29.811" rx="6.6099" ry="6.6099" stroke-width="3.8"/>
   <rect id="rect1674" x="69.84" y="40.71" width="29.811" height="29.811" rx="6.6099" ry="6.6099" stroke-width="4.2"/>
   <rect id="rect1676" x="69.84" y="40.71" width="29.811" height="29.811" rx="6.6099" ry="6.6099" stroke-width="4.6"/>
   <rect id="rect1678" x="69.84" y="40.71" width="29.811" height="29.811" rx="6.6099" ry="6.6099" stroke-width="5"/>
  </g>
  <rect id="rect849" x="2.3506" y="2.4746" width="29.087" height="29.087" rx="6.4495" ry="6.4495" fill="url(#radialGradient1506)" stroke-linecap="round" stroke-linejoin="round" stroke-width="2.688"/>
  <rect id="rect1921" x="2.3506" y="2.4746" width="29.087" height="29.087" rx="6.4495" ry="6.4495" fill="url(#radialGradient1986)" stroke-linecap="round" stroke-linejoin="round" stroke-width="2.688"/>
  <rect id="rect2886" x="4.3037" y="4.4277" width="25.181" height="25.181" rx="5.0418" ry="5.0418" fill="url(#linearGradient896)" opacity=".95" stroke-linecap="round" stroke-linejoin="round" stroke-width="2.688"/>
  <path id="path1500" d="m27.15 8.1309a0.5 0.5 0 0 0-0.54492 0.45117s-0.04641 0.50749-0.1875 1.0332c-0.07054 0.26286-0.1658 0.52539-0.26953 0.70898-0.10373 0.18359-0.20674 0.25912-0.23828 0.26953-0.02559 0.0084-0.01182 0.02058-0.11914-0.05469-0.10732-0.07527-0.26649-0.23989-0.4375-0.42969-0.17101-0.1898-0.35557-0.40394-0.60156-0.58203-0.246-0.17809-0.61621-0.32481-0.99609-0.2207-0.44548 0.12209-0.75295 0.44287-0.99414 0.78711-0.24119 0.34424-0.42241 0.73536-0.56836 1.1113-0.29189 0.75194-0.43555 1.4551-0.43555 1.4551a0.5 0.5 0 0 0 0.38867 0.58984 0.5 0.5 0 0 0 0.5918-0.38867s0.13105-0.63435 0.38672-1.293c0.12783-0.32931 0.28833-0.66156 0.45703-0.90234 0.1687-0.24078 0.33946-0.36713 0.43945-0.39453 0.02615-0.0072 0.03098-0.0158 0.14453 0.06641 0.11355 0.08221 0.2733 0.25049 0.44531 0.44141 0.17201 0.19091 0.35636 0.40538 0.60547 0.58008 0.2491 0.1747 0.63167 0.30905 1.0059 0.18555 0.38826-0.12815 0.62537-0.42843 0.79492-0.72852s0.2813-0.62864 0.36523-0.94141c0.16788-0.62552 0.21875-1.2012 0.21875-1.2012a0.5 0.5 0 0 0-0.45117-0.54297z" color="#000000" fill="#f1bc2e" stroke-linecap="round" style="-inkscape-stroke:none"/>
  <rect id="rect1385" transform="rotate(45)" x="21.812" y="-7.6867" width="5.9355" height="9.6038" rx="1.0671" ry="1.0671" fill="url(#linearGradient17552)"/>
  <g id="g17454" fill-opacity=".31197" opacity=".1486">
   <circle id="circle17355" transform="rotate(45)" cx="24.75" cy="2.2685" r="7.0193"/>
   <circle id="circle17447" transform="rotate(45)" cx="24.92" cy="1.7565" r="7.0193"/>
   <circle id="circle17449" transform="rotate(45)" cx="24.953" cy="1.2939" r="7.0193"/>
  </g>
  <circle id="path1039" transform="rotate(45)" cx="24.78" cy="2.6082" r="7.0193" fill="url(#linearGradient5157)"/>
  <circle id="path23815" cx="14.135" cy="15.466" r="1.4118" fill="#fff" fill-opacity=".56516"/>
  <circle id="path24325" cx="16.575" cy="13.806" r=".7239" fill="#fff" fill-opacity=".11814"/>
  <circle id="circle24429" transform="rotate(45)" cx="24.78" cy="2.6082" r="7.0193" fill="url(#radialGradient24674)"/>
 </g>
</svg>
