<?xml version="1.0" encoding="UTF-8"?>
<svg id="svg1443" width="128" height="128" version="1.1" viewBox="0 0 33.867 33.867" xmlns="http://www.w3.org/2000/svg" xmlns:cc="http://creativecommons.org/ns#" xmlns:dc="http://purl.org/dc/elements/1.1/" xmlns:rdf="http://www.w3.org/1999/02/22-rdf-syntax-ns#" xmlns:xlink="http://www.w3.org/1999/xlink">
 <defs id="defs1437">
  <linearGradient id="linearGradient1632" x1="132.21" x2="132.21" y1="42.152" y2="70.68" gradientTransform="matrix(.97573 0 0 .97573 -111.77 -37.183)" gradientUnits="userSpaceOnUse">
   <stop id="stop1626" stop-color="#fafafc" offset="0"/>
   <stop id="stop1628" stop-color="#e2e6ea" offset="1"/>
  </linearGradient>
 </defs>
 <metadata id="metadata1440">
  <rdf:RDF>
   <cc:Work rdf:about="">
    <dc:format>image/svg+xml</dc:format>
    <dc:type rdf:resource="http://purl.org/dc/dcmitype/StillImage"/>
   </cc:Work>
  </rdf:RDF>
 </metadata>
 <g id="layer1">
  <g id="g1702" transform="matrix(.97573 0 0 .97573 -65.737 -37.183)" fill="none" opacity=".295" stroke="#000" stroke-linecap="round" stroke-linejoin="round" stroke-opacity=".02">
   <rect id="rect1634" x="69.84" y="40.71" width="29.811" height="29.811" rx="6.6099" ry="6.6099" stroke-width=".1"/>
   <rect id="rect1638" x="69.84" y="40.71" width="29.811" height="29.811" rx="6.6099" ry="6.6099" stroke-width=".2"/>
   <rect id="rect1640" x="69.84" y="40.71" width="29.811" height="29.811" rx="6.6099" ry="6.6099" stroke-width=".3"/>
   <rect id="rect1642" x="69.84" y="40.71" width="29.811" height="29.811" rx="6.6099" ry="6.6099" stroke-width=".4"/>
   <rect id="rect1644" x="69.84" y="40.71" width="29.811" height="29.811" rx="6.6099" ry="6.6099" stroke-width=".5"/>
   <rect id="rect1646" x="69.84" y="40.71" width="29.811" height="29.811" rx="6.6099" ry="6.6099" stroke-width=".6"/>
   <rect id="rect1648" x="69.84" y="40.71" width="29.811" height="29.811" rx="6.6099" ry="6.6099" stroke-width=".7"/>
   <rect id="rect1650" x="69.84" y="40.71" width="29.811" height="29.811" rx="6.6099" ry="6.6099" stroke-width=".8"/>
   <rect id="rect1652" x="69.84" y="40.71" width="29.811" height="29.811" rx="6.6099" ry="6.6099"/>
   <rect id="rect1654" x="69.84" y="40.71" width="29.811" height="29.811" rx="6.6099" ry="6.6099" stroke-width="1.2"/>
   <rect id="rect1656" x="69.84" y="40.71" width="29.811" height="29.811" rx="6.6099" ry="6.6099" stroke-width="1.4"/>
   <rect id="rect1658" x="69.84" y="40.71" width="29.811" height="29.811" rx="6.6099" ry="6.6099" stroke-width="1.6"/>
   <rect id="rect1660" x="69.84" y="40.71" width="29.811" height="29.811" rx="6.6099" ry="6.6099" stroke-width="1.8"/>
   <rect id="rect1662" x="69.84" y="40.71" width="29.811" height="29.811" rx="6.6099" ry="6.6099" stroke-width="2"/>
   <rect id="rect1664" x="69.84" y="40.71" width="29.811" height="29.811" rx="6.6099" ry="6.6099" stroke-width="2.2"/>
   <rect id="rect1666" x="69.84" y="40.71" width="29.811" height="29.811" rx="6.6099" ry="6.6099" stroke-width="2.6"/>
   <rect id="rect1668" x="69.84" y="40.71" width="29.811" height="29.811" rx="6.6099" ry="6.6099" stroke-width="3"/>
   <rect id="rect1670" x="69.84" y="40.71" width="29.811" height="29.811" rx="6.6099" ry="6.6099" stroke-width="3.4"/>
   <rect id="rect1672" x="69.84" y="40.71" width="29.811" height="29.811" rx="6.6099" ry="6.6099" stroke-width="3.8"/>
   <rect id="rect1674" x="69.84" y="40.71" width="29.811" height="29.811" rx="6.6099" ry="6.6099" stroke-width="4.2"/>
   <rect id="rect1676" x="69.84" y="40.71" width="29.811" height="29.811" rx="6.6099" ry="6.6099" stroke-width="4.6"/>
   <rect id="rect1678" x="69.84" y="40.71" width="29.811" height="29.811" rx="6.6099" ry="6.6099" stroke-width="5"/>
  </g>
  <rect id="rect849" x="2.4074" y="2.5392" width="29.087" height="29.087" rx="6.4495" ry="6.4495" fill="url(#linearGradient1632)" stroke-linecap="round" stroke-linejoin="round" stroke-width="2.6877"/>
  <path id="path2" d="m8.6163 15.593h2.1069v2.6179l3.6525 1.5707v2.6179l-5.7594-3.1415z" opacity=".2" stroke-width=".35114"/>
  <path id="path4" d="m20.998 14.195-3.6651 8.9009" fill="none" stroke="#b8b8b8" stroke-width="1.5707"/>
  <rect id="rect6" x="19.151" y="10.117" width="3.5114" height="6.283" rx="1.7557" ry="1.5707" opacity=".2" stroke-width=".35114"/>
  <rect id="rect8" transform="rotate(-36.716)" x="4.2713" y="15.719" width="5.2359" height="5.7594" fill="#e98300" stroke-width=".35114"/>
  <path id="path10" d="m8.6163 15.242h2.1069v2.6179l3.6525 1.5707v2.6179l-5.7594-3.1415z" fill="#e98300" stroke-width=".35114"/>
  <rect id="rect12" transform="rotate(-90)" x="-16.399" y="6.5094" width="3.5114" height="9.4243" rx="1.7557" ry="1.5707" opacity=".2" stroke-width=".35114"/>
  <rect id="rect14" transform="rotate(-90)" x="-16.048" y="6.5094" width="3.5114" height="9.4243" rx="1.7557" ry="1.5707" fill="#e9a400" stroke-width=".35114"/>
  <path id="path16" d="m8.0799 12.536c-0.87019 0-1.5705 0.78305-1.5705 1.7557 0 0.05939 0.010378 0.11561 0.015775 0.17351 0.080269-0.88732 0.73907-1.5781 1.5548-1.5781h6.2835c0.8157 0 1.4745 0.69077 1.5548 1.5781 0.0054-0.0579 0.01578-0.11412 0.01578-0.17351 0-0.97267-0.70035-1.7557-1.5705-1.7557z" fill="#fff" opacity=".2" stroke-width=".35114"/>
  <rect id="rect18" x="19.151" y="9.7658" width="3.5114" height="6.283" rx="1.7557" ry="1.5707" fill="#e9a400" stroke-width=".35114"/>
  <rect id="rect20" transform="rotate(21.359)" x="22.929" y="9.292" width="3.2962" height="6.592" rx="1.6479" ry="1.6479" fill="#e98300" stroke-width=".35114"/>
  <circle id="circle22" cx="20.906" cy="14.292" r="1.0534" opacity=".3" stroke-width=".35114"/>
  <path id="path24" d="m21.231 7.9714c-4.9006 0-8.9518 3.7367-9.6976 8.4274h5.0148a4.916 4.916 0 0 1 4.7089-3.5114 4.916 4.916 0 0 1 2.7776 0.86003l-0.83259-5.5648c-0.64816-0.13662-1.3087-0.20739-1.9711-0.21123zm-9.8059 10.534c0.27066 5.188 4.5505 9.1297 9.8059 9.1297 0.64516-4.91e-4 1.2891-0.0641 1.9217-0.19066l0.83122-5.5552a4.916 4.916 0 0 1-2.7268 0.82985 4.916 4.916 0 0 1-4.8611-4.2137z" opacity=".2" stroke-width=".35114"/>
  <path id="path26" d="m21.231 7.6203c-4.9006 0-8.9518 3.7367-9.6976 8.4274h5.0148a4.916 4.916 0 0 1 4.7089-3.5114 4.916 4.916 0 0 1 2.7776 0.86002l-0.83259-5.5648c-0.64816-0.13662-1.3087-0.20739-1.9711-0.21124zm-9.8059 10.534c0.27066 5.188 4.5505 9.1297 9.8059 9.1297 0.64516-4.91e-4 1.2891-0.0641 1.9217-0.19066l0.83122-5.5552a4.916 4.916 0 0 1-2.7268 0.82985 4.916 4.916 0 0 1-4.8611-4.2137z" fill="#f5c700" stroke-width=".35114"/>
  <path id="path28" d="m14.937 11.834a1.7557 1.7557 0 0 0-1.7557 1.7557 1.7557 1.7557 0 0 0 1.7557 1.7557 1.7557 1.7557 0 0 0 1.7557-1.7557 1.7557 1.7557 0 0 0-1.7557-1.7557zm0 0.50163a1.2541 1.2541 0 0 1 1.2541 1.2541 1.2541 1.2541 0 0 1-1.2541 1.2541 1.2541 1.2541 0 0 1-1.2541-1.2541 1.2541 1.2541 0 0 1 1.2541-1.2541z" opacity=".3" stroke-width=".35114"/>
  <circle id="circle30" cx="8.2651" cy="14.292" r="1.0534" opacity=".3" stroke-width=".35114"/>
  <circle id="circle32" cx="17.395" cy="23.422" r="1.0534" opacity=".3" stroke-width=".35114"/>
  <path id="path34" d="m21.231 7.6203c-4.9006 0-8.9518 3.7367-9.6976 8.4274h0.06378c0.88739-4.5245 4.8563-8.0763 9.6338-8.0763 0.66239 0.00385 1.3229 0.074613 1.9711 0.21123l0.77499 5.178a4.916 4.916 0 0 1 0.05761 0.03566l-0.83259-5.5648c-0.64816-0.13662-1.3087-0.20739-1.9711-0.21123zm-9.8059 10.534c0.0061 0.1179 0.0165 0.23456 0.02674 0.35114h4.9441a4.916 4.916 0 0 0 4.8611 4.2137 4.916 4.916 0 0 0 2.6692-0.79556l0.05761-0.38543a4.916 4.916 0 0 1-2.7268 0.82985 4.916 4.916 0 0 1-4.8611-4.2137z" fill="#fff" opacity=".2" stroke-width=".35114"/>
 </g>
</svg>
