<?xml version="1.0" encoding="UTF-8"?>
<svg id="svg2547" width="128" height="128" version="1.1" viewBox="0 0 33.867 33.867" xmlns="http://www.w3.org/2000/svg" xmlns:cc="http://creativecommons.org/ns#" xmlns:dc="http://purl.org/dc/elements/1.1/" xmlns:rdf="http://www.w3.org/1999/02/22-rdf-syntax-ns#" xmlns:xlink="http://www.w3.org/1999/xlink">
 <defs id="defs2541">
  <linearGradient id="linearGradient936" x1="-22.219" x2="-41.635" y1="9.544" y2="9.544" gradientTransform="translate(43.842 5.6325)" gradientUnits="userSpaceOnUse">
   <stop id="stop930" stop-color="#b142ff" offset="0"/>
   <stop id="stop932" stop-color="#3500f1" offset="1"/>
  </linearGradient>
  <linearGradient id="linearGradient1395" x1="5.0461" x2="12.222" y1="7.7586" y2="26.651" gradientTransform="matrix(-1 0 0 1 33.822 0)" gradientUnits="userSpaceOnUse">
   <stop id="stop1389" stop-color="#ff5a55" offset="0"/>
   <stop id="stop1391" stop-color="#f7318f" stop-opacity=".99543" offset="1"/>
  </linearGradient>
  <linearGradient id="linearGradient1892" x1="8.6674" x2="8.6674" y1="11.328" y2="82.329" gradientTransform="matrix(1.0914 0 0 1.0914 -2.5631 -1.2234)" gradientUnits="userSpaceOnUse">
   <stop id="stop1886" stop-color="#fefefe" offset="0"/>
   <stop id="stop1888" stop-color="#8128fa" offset="1"/>
  </linearGradient>
  <linearGradient id="linearGradient4589" x1="27.662" x2="16.429" y1="16.706" y2="16.706" gradientTransform="matrix(1.0914 0 0 1.0914 -2.5631 -1.2234)" gradientUnits="userSpaceOnUse">
   <stop id="stop4583" stop-color="#f7318f" offset="0"/>
   <stop id="stop4585" stop-color="#f7318f" stop-opacity="0" offset="1"/>
  </linearGradient>
  <linearGradient id="linearGradient4866" x1="14.174" x2="14.174" y1="10.28" y2="63.262" gradientTransform="matrix(1.0914 0 0 1.0914 -2.5631 -1.2234)" gradientUnits="userSpaceOnUse">
   <stop id="stop4860" stop-color="#fdfdfd" offset="0"/>
   <stop id="stop4862" stop-color="#f83689" offset="1"/>
  </linearGradient>
  <linearGradient id="linearGradient10660" x1="13.909" x2="17.915" y1="22.517" y2="22.517" gradientUnits="userSpaceOnUse">
   <stop id="stop10654" stop-color="#872cfa" offset="0"/>
   <stop id="stop12324" stop-color="#8e2ffb" offset=".75198"/>
   <stop id="stop14136" stop-color="#fa3f7b" offset=".75198"/>
   <stop id="stop10656" stop-color="#f7318f" offset="1"/>
  </linearGradient>
  <linearGradient id="linearGradient15974" x1="-19.918" x2="-15.912" y1="-11.502" y2="-11.502" gradientUnits="userSpaceOnUse">
   <stop id="stop15968" stop-color="#fe565b" offset="0"/>
   <stop id="stop17404" stop-color="#fe555b" offset=".74802"/>
   <stop id="stop23276" stop-color="#9332fc" offset=".74802"/>
   <stop id="stop15970" stop-color="#8f30fb" offset="1"/>
  </linearGradient>
 </defs>
 <metadata id="metadata2544">
  <rdf:RDF>
   <cc:Work rdf:about="">
    <dc:format>image/svg+xml</dc:format>
    <dc:type rdf:resource="http://purl.org/dc/dcmitype/StillImage"/>
   </cc:Work>
  </rdf:RDF>
 </metadata>
 <g id="layer1">
  <g id="g1702" transform="matrix(.97573 0 0 .97573 -65.777 -37.256)" fill="none" opacity=".29676" stroke="#000" stroke-linecap="round" stroke-linejoin="round" stroke-opacity=".02">
   <rect id="rect1634" x="69.84" y="40.71" width="29.811" height="29.811" rx="6.6099" ry="6.6099" stroke-width=".1"/>
   <rect id="rect1638" x="69.84" y="40.71" width="29.811" height="29.811" rx="6.6099" ry="6.6099" stroke-width=".2"/>
   <rect id="rect1640" x="69.84" y="40.71" width="29.811" height="29.811" rx="6.6099" ry="6.6099" stroke-width=".3"/>
   <rect id="rect1642" x="69.84" y="40.71" width="29.811" height="29.811" rx="6.6099" ry="6.6099" stroke-width=".4"/>
   <rect id="rect1644" x="69.84" y="40.71" width="29.811" height="29.811" rx="6.6099" ry="6.6099" stroke-width=".5"/>
   <rect id="rect1646" x="69.84" y="40.71" width="29.811" height="29.811" rx="6.6099" ry="6.6099" stroke-width=".6"/>
   <rect id="rect1648" x="69.84" y="40.71" width="29.811" height="29.811" rx="6.6099" ry="6.6099" stroke-width=".7"/>
   <rect id="rect1650" x="69.84" y="40.71" width="29.811" height="29.811" rx="6.6099" ry="6.6099" stroke-width=".8"/>
   <rect id="rect1652" x="69.84" y="40.71" width="29.811" height="29.811" rx="6.6099" ry="6.6099"/>
   <rect id="rect1654" x="69.84" y="40.71" width="29.811" height="29.811" rx="6.6099" ry="6.6099" stroke-width="1.2"/>
   <rect id="rect1656" x="69.84" y="40.71" width="29.811" height="29.811" rx="6.6099" ry="6.6099" stroke-width="1.4"/>
   <rect id="rect1658" x="69.84" y="40.71" width="29.811" height="29.811" rx="6.6099" ry="6.6099" stroke-width="1.6"/>
   <rect id="rect1660" x="69.84" y="40.71" width="29.811" height="29.811" rx="6.6099" ry="6.6099" stroke-width="1.8"/>
   <rect id="rect1662" x="69.84" y="40.71" width="29.811" height="29.811" rx="6.6099" ry="6.6099" stroke-width="2"/>
   <rect id="rect1664" x="69.84" y="40.71" width="29.811" height="29.811" rx="6.6099" ry="6.6099" stroke-width="2.2"/>
   <rect id="rect1666" x="69.84" y="40.71" width="29.811" height="29.811" rx="6.6099" ry="6.6099" stroke-width="2.6"/>
   <rect id="rect1668" x="69.84" y="40.71" width="29.811" height="29.811" rx="6.6099" ry="6.6099" stroke-width="3"/>
   <rect id="rect1670" x="69.84" y="40.71" width="29.811" height="29.811" rx="6.6099" ry="6.6099" stroke-width="3.4"/>
   <rect id="rect1672" x="69.84" y="40.71" width="29.811" height="29.811" rx="6.6099" ry="6.6099" stroke-width="3.8"/>
   <rect id="rect1674" x="69.84" y="40.71" width="29.811" height="29.811" rx="6.6099" ry="6.6099" stroke-width="4.2"/>
   <rect id="rect1676" x="69.84" y="40.71" width="29.811" height="29.811" rx="6.6099" ry="6.6099" stroke-width="4.6"/>
   <rect id="rect1678" x="69.84" y="40.71" width="29.811" height="29.811" rx="6.6099" ry="6.6099" stroke-width="5"/>
  </g>
  <rect id="rect849-5" x="2.3673" y="2.4659" width="29.087" height="29.087" rx="6.4495" ry="6.4495" fill="url(#linearGradient936)" stroke-linecap="round" stroke-linejoin="round" stroke-width="2.6877"/>
  <path id="rect1076" d="m25.005 2.4659h-8.0943v29.087h8.0943c3.573 0 6.4495-2.8765 6.4495-6.4495v-16.189c0-3.573-2.8765-6.4495-6.4495-6.4495z" fill="url(#linearGradient1395)" stroke-linecap="round" stroke-linejoin="round" stroke-width="2.6877"/>
  <path id="path2" d="m17.655 27.024c5.1197 0 9.2711-4.4839 9.2711-10.014 0-5.5302-4.1512-10.014-9.2711-10.014-2.6228 0-4.7487 1.7413-4.7487 4.5064 0 2.7651 2.3021 4.3276 4.5064 5.0071 2.1553 0.66434 4.991 2.7427 4.991 5.5078 0 2.7651-2.1259 5.0071-4.7487 5.0071z" fill="url(#linearGradient4866)" stroke-width=".50071"/>
  <path id="path4" d="m16.167 6.9954c-5.1197 0-9.2711 4.4838-9.2711 10.014 0 5.5303 4.1512 10.014 9.2711 10.014 2.6228 0 4.7487-1.7413 4.7487-4.5064 0-2.7651-2.3021-4.3276-4.5064-5.0071-2.1554-0.66434-4.991-2.7427-4.991-5.5078 0-2.7651 2.1259-5.0071 4.7487-5.0071z" fill="url(#linearGradient1892)" stroke-width=".50071"/>
  <path id="path2866" d="m16.167 6.9954c-5.1197 0-9.2711 4.4838-9.2711 10.014 0 5.5303 4.1512 10.014 9.2711 10.014 2.6228 0 4.7487-1.7413 4.7487-4.5064 0-2.7651-2.3021-4.3276-4.5064-5.0071-2.1554-0.66434-4.991-2.7427-4.991-5.5078 0-2.7651 2.1259-5.0071 4.7487-5.0071z" fill="url(#linearGradient4589)" stroke-width=".50071"/>
  <circle id="circle14" transform="scale(-1)" cx="-17.915" cy="-11.502" r="2.0028" fill="url(#linearGradient15974)" stroke-width=".50071"/>
  <circle id="circle12" cx="15.912" cy="22.517" r="2.0028" fill="url(#linearGradient10660)" stroke-width=".50071"/>
 </g>
</svg>
