<?xml version="1.0" encoding="UTF-8"?>
<svg id="svg1829" width="128" height="128" version="1.1" viewBox="0 0 33.867 33.867" xmlns="http://www.w3.org/2000/svg" xmlns:cc="http://creativecommons.org/ns#" xmlns:dc="http://purl.org/dc/elements/1.1/" xmlns:rdf="http://www.w3.org/1999/02/22-rdf-syntax-ns#" xmlns:xlink="http://www.w3.org/1999/xlink">
 <defs id="defs1823">
  <radialGradient id="radialGradient886" cx="17.31" cy="2.5296" r="14.544" gradientTransform="matrix(7.1618 0 0 1.7511 -106.66 -1.9)" gradientUnits="userSpaceOnUse">
   <stop id="stop880" stop-color="#f2e05d" offset="0"/>
   <stop id="stop882" stop-color="#ff8a28" offset="1"/>
  </radialGradient>
 </defs>
 <metadata id="metadata1826">
  <rdf:RDF>
   <cc:Work rdf:about="">
    <dc:format>image/svg+xml</dc:format>
    <dc:type rdf:resource="http://purl.org/dc/dcmitype/StillImage"/>
    <dc:title/>
   </cc:Work>
  </rdf:RDF>
 </metadata>
 <g id="layer1">
  <g id="g1702" transform="matrix(.97573 0 0 .97573 -65.587 -37.192)" fill="none" opacity=".29676" stroke="#000" stroke-linecap="round" stroke-linejoin="round" stroke-opacity=".02">
   <rect id="rect1634" x="69.84" y="40.71" width="29.811" height="29.811" rx="6.6099" ry="6.6099" stroke-width=".1"/>
   <rect id="rect1638" x="69.84" y="40.71" width="29.811" height="29.811" rx="6.6099" ry="6.6099" stroke-width=".2"/>
   <rect id="rect1640" x="69.84" y="40.71" width="29.811" height="29.811" rx="6.6099" ry="6.6099" stroke-width=".3"/>
   <rect id="rect1642" x="69.84" y="40.71" width="29.811" height="29.811" rx="6.6099" ry="6.6099" stroke-width=".4"/>
   <rect id="rect1644" x="69.84" y="40.71" width="29.811" height="29.811" rx="6.6099" ry="6.6099" stroke-width=".5"/>
   <rect id="rect1646" x="69.84" y="40.71" width="29.811" height="29.811" rx="6.6099" ry="6.6099" stroke-width=".6"/>
   <rect id="rect1648" x="69.84" y="40.71" width="29.811" height="29.811" rx="6.6099" ry="6.6099" stroke-width=".7"/>
   <rect id="rect1650" x="69.84" y="40.71" width="29.811" height="29.811" rx="6.6099" ry="6.6099" stroke-width=".8"/>
   <rect id="rect1652" x="69.84" y="40.71" width="29.811" height="29.811" rx="6.6099" ry="6.6099"/>
   <rect id="rect1654" x="69.84" y="40.71" width="29.811" height="29.811" rx="6.6099" ry="6.6099" stroke-width="1.2"/>
   <rect id="rect1656" x="69.84" y="40.71" width="29.811" height="29.811" rx="6.6099" ry="6.6099" stroke-width="1.4"/>
   <rect id="rect1658" x="69.84" y="40.71" width="29.811" height="29.811" rx="6.6099" ry="6.6099" stroke-width="1.6"/>
   <rect id="rect1660" x="69.84" y="40.71" width="29.811" height="29.811" rx="6.6099" ry="6.6099" stroke-width="1.8"/>
   <rect id="rect1662" x="69.84" y="40.71" width="29.811" height="29.811" rx="6.6099" ry="6.6099" stroke-width="2"/>
   <rect id="rect1664" x="69.84" y="40.71" width="29.811" height="29.811" rx="6.6099" ry="6.6099" stroke-width="2.2"/>
   <rect id="rect1666" x="69.84" y="40.71" width="29.811" height="29.811" rx="6.6099" ry="6.6099" stroke-width="2.6"/>
   <rect id="rect1668" x="69.84" y="40.71" width="29.811" height="29.811" rx="6.6099" ry="6.6099" stroke-width="3"/>
   <rect id="rect1670" x="69.84" y="40.71" width="29.811" height="29.811" rx="6.6099" ry="6.6099" stroke-width="3.4"/>
   <rect id="rect1672" x="69.84" y="40.71" width="29.811" height="29.811" rx="6.6099" ry="6.6099" stroke-width="3.8"/>
   <rect id="rect1674" x="69.84" y="40.71" width="29.811" height="29.811" rx="6.6099" ry="6.6099" stroke-width="4.2"/>
   <rect id="rect1676" x="69.84" y="40.71" width="29.811" height="29.811" rx="6.6099" ry="6.6099" stroke-width="4.6"/>
   <rect id="rect1678" x="69.84" y="40.71" width="29.811" height="29.811" rx="6.6099" ry="6.6099" stroke-width="5"/>
  </g>
  <rect id="rect849-5" x="2.5579" y="2.5293" width="29.087" height="29.087" rx="6.4495" ry="6.4495" fill="url(#radialGradient886)" stroke-linecap="round" stroke-linejoin="round" stroke-width="2.6877"/>
  <path id="path4" d="m16.963 9.6872c-2.3705 0.05358-5.4357 0.78953-9.6011 1.9903 0.10788 1.1346 0.43527 1.5431 0.58711 2.5151 0.4137 2.6483 0.55462 4.783 1.3854 6.3605 2.5355 4.8141 7.0143 5.2165 17.508 1.0135-2.8112-8.8115-4.6642-11.997-9.8792-11.879zm-7.37 2.6837c0.075721-0.0017 0.15179 0.0064 0.225 0.02362h6.714e-4c0.07322 0.0173 0.14395 0.04397 0.21123 0.07938l6.72e-4 6.7e-4 3.5345 1.7961-0.05904 0.12136 7.4789 3.9254 2.0992 1.4451-0.0066 0.01377c0.18769 0.03083 0.36592 0.06908 0.52742 0.11808 0.13436 0.04079 0.26068 0.08687 0.38047 0.13776 0.23959 0.10174 0.45328 0.22159 0.65402 0.3503 0.10036 0.06437 0.19706 0.13102 0.29257 0.19876 0.19088 0.13536 0.37528 0.27524 0.56612 0.41065l6.71e-4 6.71e-4 -1.7843 0.11083-0.98464-0.56743-6e-3 0.01311-2.4029-0.97414-7.5157-3.7424-0.0492 0.10036-3.5364-1.8099c-0.4384-0.21478-0.57854-0.66102-0.48529-1.0496l-6.716e-4 -6.71e-4c0.00279-0.01155 0.00736-0.02265 0.010536-0.03411 0.00876-0.03156 0.01762-0.0633 0.029527-0.09381 0.0019-5e-3 0.00457-0.0095 0.0066-0.01443 0.074946-0.18314 0.20596-0.34143 0.38507-0.44279 0.013176-0.0075 0.026962-0.01412 0.040672-0.021 0.041002-0.02039 0.084327-0.03709 0.12989-0.05117 0.019803-0.0062 0.039035-0.01285 0.059701-0.01771 0.062493-0.01461 0.12751-0.0253 0.19745-0.0269z" fill="#fff9f2" stroke-width=".33587"/>
 </g>
</svg>
