<?xml version="1.0" encoding="UTF-8"?>
<svg id="svg1500" width="128" height="128" version="1.1" viewBox="0 0 33.867 33.867" xmlns="http://www.w3.org/2000/svg" xmlns:cc="http://creativecommons.org/ns#" xmlns:dc="http://purl.org/dc/elements/1.1/" xmlns:rdf="http://www.w3.org/1999/02/22-rdf-syntax-ns#" xmlns:xlink="http://www.w3.org/1999/xlink">
 <defs id="defs1494">
  <linearGradient id="b-3" x1="32.228" x2="32.228" y1="4.61" y2="59.593" gradientTransform="matrix(.52884 0 0 .52884 .073954 -.040532)" gradientUnits="userSpaceOnUse">
   <stop id="stop2-6" stop-color="#525252" offset="0"/>
   <stop id="stop4-7" offset="1"/>
  </linearGradient>
  <linearGradient id="linearGradient1728" x1="8.2215" x2="27.789" y1="16.091" y2="16.091" gradientUnits="userSpaceOnUse">
   <stop id="stop1722" stop-color="#0f0" stop-opacity="0" offset="0"/>
   <stop id="stop1724" stop-opacity="0" offset="1"/>
  </linearGradient>
  <linearGradient id="linearGradient1793" x1="76.496" x2="76.496" y1="36.939" y2="95.031" gradientUnits="userSpaceOnUse">
   <stop id="stop1787" stop-color="#fdffff" stop-opacity=".96078" offset="0"/>
   <stop id="stop1789" stop-color="#d8d8dc" offset="1"/>
  </linearGradient>
  <linearGradient id="linearGradient1954" x1="64.897" x2="64.897" y1="95.788" y2="36.115" gradientUnits="userSpaceOnUse">
   <stop id="stop1948" stop-color="#0f0f0f" offset="0"/>
   <stop id="stop1950" stop-color="#3c3c3c" offset="1"/>
  </linearGradient>
 </defs>
 <metadata id="metadata1497">
  <rdf:RDF>
   <cc:Work rdf:about="">
    <dc:format>image/svg+xml</dc:format>
    <dc:type rdf:resource="http://purl.org/dc/dcmitype/StillImage"/>
   </cc:Work>
  </rdf:RDF>
 </metadata>
 <g id="layer1">
  <g id="g1702" transform="matrix(.97573 0 0 .97573 -65.685 -37.254)" fill="none" opacity=".295" stroke="#000" stroke-linecap="round" stroke-linejoin="round" stroke-opacity=".02">
   <rect id="rect1634" x="69.84" y="40.71" width="29.811" height="29.811" rx="6.6099" ry="6.6099" stroke-width=".1"/>
   <rect id="rect1638" x="69.84" y="40.71" width="29.811" height="29.811" rx="6.6099" ry="6.6099" stroke-width=".2"/>
   <rect id="rect1640" x="69.84" y="40.71" width="29.811" height="29.811" rx="6.6099" ry="6.6099" stroke-width=".3"/>
   <rect id="rect1642" x="69.84" y="40.71" width="29.811" height="29.811" rx="6.6099" ry="6.6099" stroke-width=".4"/>
   <rect id="rect1644" x="69.84" y="40.71" width="29.811" height="29.811" rx="6.6099" ry="6.6099" stroke-width=".5"/>
   <rect id="rect1646" x="69.84" y="40.71" width="29.811" height="29.811" rx="6.6099" ry="6.6099" stroke-width=".6"/>
   <rect id="rect1648" x="69.84" y="40.71" width="29.811" height="29.811" rx="6.6099" ry="6.6099" stroke-width=".7"/>
   <rect id="rect1650" x="69.84" y="40.71" width="29.811" height="29.811" rx="6.6099" ry="6.6099" stroke-width=".8"/>
   <rect id="rect1652" x="69.84" y="40.71" width="29.811" height="29.811" rx="6.6099" ry="6.6099"/>
   <rect id="rect1654" x="69.84" y="40.71" width="29.811" height="29.811" rx="6.6099" ry="6.6099" stroke-width="1.2"/>
   <rect id="rect1656" x="69.84" y="40.71" width="29.811" height="29.811" rx="6.6099" ry="6.6099" stroke-width="1.4"/>
   <rect id="rect1658" x="69.84" y="40.71" width="29.811" height="29.811" rx="6.6099" ry="6.6099" stroke-width="1.6"/>
   <rect id="rect1660" x="69.84" y="40.71" width="29.811" height="29.811" rx="6.6099" ry="6.6099" stroke-width="1.8"/>
   <rect id="rect1662" x="69.84" y="40.71" width="29.811" height="29.811" rx="6.6099" ry="6.6099" stroke-width="2"/>
   <rect id="rect1664" x="69.84" y="40.71" width="29.811" height="29.811" rx="6.6099" ry="6.6099" stroke-width="2.2"/>
   <rect id="rect1666" x="69.84" y="40.71" width="29.811" height="29.811" rx="6.6099" ry="6.6099" stroke-width="2.6"/>
   <rect id="rect1668" x="69.84" y="40.71" width="29.811" height="29.811" rx="6.6099" ry="6.6099" stroke-width="3"/>
   <rect id="rect1670" x="69.84" y="40.71" width="29.811" height="29.811" rx="6.6099" ry="6.6099" stroke-width="3.4"/>
   <rect id="rect1672" x="69.84" y="40.71" width="29.811" height="29.811" rx="6.6099" ry="6.6099" stroke-width="3.8"/>
   <rect id="rect1674" x="69.84" y="40.71" width="29.811" height="29.811" rx="6.6099" ry="6.6099" stroke-width="4.2"/>
   <rect id="rect1676" x="69.84" y="40.71" width="29.811" height="29.811" rx="6.6099" ry="6.6099" stroke-width="4.6"/>
   <rect id="rect1678" x="69.84" y="40.71" width="29.811" height="29.811" rx="6.6099" ry="6.6099" stroke-width="5"/>
  </g>
  <path id="path79" d="m9.328 2.3392c-3.8087 0-6.8749 3.0662-6.8749 6.8749v15.336c0 3.8087 3.0662 6.8749 6.8749 6.8749h15.337c3.8087 0 6.8749-3.0662 6.8749-6.8749v-15.336c0-3.8087-3.0662-6.8749-6.8749-6.8749z" fill="url(#b-3)" stroke-width=".52884"/>
  <g id="g988" transform="translate(-1.0085 .79165)" fill="url(#linearGradient1728)">
   <path id="path9" transform="matrix(.26458 0 0 .26458 1.0085 -.79165)" d="m35.701 26.828c-4.6756 0-8.4395 3.7638-8.4395 8.4395v4.8965 48.469 3.7129c0 4.6756 3.7638 8.4395 8.4395 8.4395h0.52148c4.6756 0 8.4395-3.7638 8.4395-8.4395v-19.838h39.045v19.838c0 4.6756 3.7638 8.4395 8.4395 8.4395h0.52148c4.6756 0 8.4395-3.7638 8.4395-8.4395v-3.7129h0.11133v-48.469h-0.11133v-4.8965c0-4.6756-3.7638-8.4395-8.4395-8.4395h-0.52148c-4.6756 0-8.4395 3.7638-8.4395 8.4395v19.838h-39.045v-14.941-4.8965c0-4.6756-3.7638-8.4395-8.4395-8.4395h-0.52148z" fill="url(#linearGradient1793)" stroke-width="2.1752"/>
  </g>
  <path id="rect1436" transform="scale(.26458)" d="m34.107 37.705c-1.3891 0.034959-2.4961 1.1647-2.4961 2.5625v3.5742c0 1.42 1.1425 2.5625 2.5625 2.5625h3.5742c1.42 0 2.5645-1.1425 2.5645-2.5625v-3.5742c0-1.42-1.1444-2.5625-2.5645-2.5625h-3.5742c-0.022188 0-0.044357-5.55e-4 -0.066406 0zm56.594 0c-1.3891 0.034961-2.4961 1.1647-2.4961 2.5625v3.5742c0 1.42 1.1425 2.5625 2.5625 2.5625h3.5742c1.42 0 2.5645-1.1425 2.5645-2.5625v-3.5742c0-1.42-1.1444-2.5625-2.5645-2.5625h-3.5742c-0.022299 0-0.044371-5.55e-4 -0.066406 0zm-56.527 21.723c-1.42 0-2.5625 1.1444-2.5625 2.5645v3.5742c0 1.42 1.1425 2.5625 2.5625 2.5625h3.5742c1.42 0 2.5645-1.1425 2.5645-2.5625v-3.5742c0-1.42-1.1444-2.5645-2.5645-2.5645h-3.5742zm56.594 0c-1.42 0-2.5625 1.1444-2.5625 2.5645v3.5742c0 1.42 1.1425 2.5625 2.5625 2.5625h3.5742c1.42 0 2.5645-1.1425 2.5645-2.5625v-3.5742c0-1.42-1.1444-2.5645-2.5645-2.5645h-3.5742zm-56.66 21.725c-1.3891 0.034958-2.4961 1.1647-2.4961 2.5625v3.5742c0 1.42 1.1425 2.5645 2.5625 2.5645h3.5742c1.42 0 2.5645-1.1444 2.5645-2.5645v-3.5742c0-1.42-1.1444-2.5625-2.5645-2.5625h-3.5742c-0.022188 0-0.044357-5.55e-4 -0.066406 0zm56.594 0c-1.3891 0.034771-2.4961 1.1647-2.4961 2.5625v3.5742c0 1.42 1.1425 2.5645 2.5625 2.5645h3.5742c1.42 0 2.5645-1.1444 2.5645-2.5645v-3.5742c0-1.42-1.1444-2.5625-2.5645-2.5625h-3.5742c-0.022299 0-0.044371-5.52e-4 -0.066406 0z" fill="url(#linearGradient1954)" stroke-linecap="round" stroke-linejoin="round" stroke-width="3.7795"/>
 </g>
</svg>
