<?xml version="1.0" encoding="UTF-8"?>
<svg id="svg1535" width="128" height="128" version="1.1" viewBox="0 0 33.867 33.867" xmlns="http://www.w3.org/2000/svg" xmlns:cc="http://creativecommons.org/ns#" xmlns:dc="http://purl.org/dc/elements/1.1/" xmlns:rdf="http://www.w3.org/1999/02/22-rdf-syntax-ns#" xmlns:xlink="http://www.w3.org/1999/xlink">
 <defs id="defs1529">
  <linearGradient id="linearGradient2042" x1="26.124" x2="4.9738" y1="6.4082" y2="28.952" gradientTransform="translate(-.036573 -.061895)" gradientUnits="userSpaceOnUse">
   <stop id="stop2036" offset="0"/>
   <stop id="stop2038" offset="1"/>
  </linearGradient>
  <linearGradient id="linearGradient7784" x1="17.585" x2="17.585" y1="25.475" y2="4.3134" gradientTransform="translate(-.036573 -.061895)" gradientUnits="userSpaceOnUse">
   <stop id="stop7778" stop-color="#0b95ff" offset="0"/>
   <stop id="stop7780" stop-color="#03caf1" offset="1"/>
  </linearGradient>
  <linearGradient id="linearGradient7756" x1="66.464" x2="79.515" y1="96.282" y2="21.265" gradientTransform="matrix(.26458 0 0 .26458 -.036573 -.061899)" gradientUnits="userSpaceOnUse">
   <stop id="stop7750" stop-color="#0b95ff" offset="0"/>
   <stop id="stop7752" stop-color="#5dc3ef" offset="1"/>
  </linearGradient>
 </defs>
 <metadata id="metadata1532">
  <rdf:RDF>
   <cc:Work rdf:about="">
    <dc:format>image/svg+xml</dc:format>
    <dc:type rdf:resource="http://purl.org/dc/dcmitype/StillImage"/>
    <dc:title/>
   </cc:Work>
  </rdf:RDF>
 </metadata>
 <g id="layer1">
  <g id="g1702" transform="matrix(.97573 0 0 .97573 -65.785 -37.265)" fill="none" opacity=".295" stroke="#000" stroke-linecap="round" stroke-linejoin="round" stroke-opacity=".02">
   <rect id="rect1634" x="69.84" y="40.71" width="29.811" height="29.811" rx="6.6099" ry="6.6099" stroke-width=".1"/>
   <rect id="rect1638" x="69.84" y="40.71" width="29.811" height="29.811" rx="6.6099" ry="6.6099" stroke-width=".2"/>
   <rect id="rect1640" x="69.84" y="40.71" width="29.811" height="29.811" rx="6.6099" ry="6.6099" stroke-width=".3"/>
   <rect id="rect1642" x="69.84" y="40.71" width="29.811" height="29.811" rx="6.6099" ry="6.6099" stroke-width=".4"/>
   <rect id="rect1644" x="69.84" y="40.71" width="29.811" height="29.811" rx="6.6099" ry="6.6099" stroke-width=".5"/>
   <rect id="rect1646" x="69.84" y="40.71" width="29.811" height="29.811" rx="6.6099" ry="6.6099" stroke-width=".6"/>
   <rect id="rect1648" x="69.84" y="40.71" width="29.811" height="29.811" rx="6.6099" ry="6.6099" stroke-width=".7"/>
   <rect id="rect1650" x="69.84" y="40.71" width="29.811" height="29.811" rx="6.6099" ry="6.6099" stroke-width=".8"/>
   <rect id="rect1652" x="69.84" y="40.71" width="29.811" height="29.811" rx="6.6099" ry="6.6099"/>
   <rect id="rect1654" x="69.84" y="40.71" width="29.811" height="29.811" rx="6.6099" ry="6.6099" stroke-width="1.2"/>
   <rect id="rect1656" x="69.84" y="40.71" width="29.811" height="29.811" rx="6.6099" ry="6.6099" stroke-width="1.4"/>
   <rect id="rect1658" x="69.84" y="40.71" width="29.811" height="29.811" rx="6.6099" ry="6.6099" stroke-width="1.6"/>
   <rect id="rect1660" x="69.84" y="40.71" width="29.811" height="29.811" rx="6.6099" ry="6.6099" stroke-width="1.8"/>
   <rect id="rect1662" x="69.84" y="40.71" width="29.811" height="29.811" rx="6.6099" ry="6.6099" stroke-width="2"/>
   <rect id="rect1664" x="69.84" y="40.71" width="29.811" height="29.811" rx="6.6099" ry="6.6099" stroke-width="2.2"/>
   <rect id="rect1666" x="69.84" y="40.71" width="29.811" height="29.811" rx="6.6099" ry="6.6099" stroke-width="2.6"/>
   <rect id="rect1668" x="69.84" y="40.71" width="29.811" height="29.811" rx="6.6099" ry="6.6099" stroke-width="3"/>
   <rect id="rect1670" x="69.84" y="40.71" width="29.811" height="29.811" rx="6.6099" ry="6.6099" stroke-width="3.4"/>
   <rect id="rect1672" x="69.84" y="40.71" width="29.811" height="29.811" rx="6.6099" ry="6.6099" stroke-width="3.8"/>
   <rect id="rect1674" x="69.84" y="40.71" width="29.811" height="29.811" rx="6.6099" ry="6.6099" stroke-width="4.2"/>
   <rect id="rect1676" x="69.84" y="40.71" width="29.811" height="29.811" rx="6.6099" ry="6.6099" stroke-width="4.6"/>
   <rect id="rect1678" x="69.84" y="40.71" width="29.811" height="29.811" rx="6.6099" ry="6.6099" stroke-width="5"/>
  </g>
  <rect id="rect849" x="2.3597" y="2.4567" width="29.087" height="29.087" rx="6.4495" ry="6.4495" fill="url(#linearGradient2042)" stroke-linecap="round" stroke-linejoin="round" stroke-width="2.688"/>
  <path id="rect901" d="m8.8094 2.4568c-3.573 0-6.4497 2.8762-6.4497 6.4492v16.189c0 3.573 2.8767 6.4492 6.4497 6.4492h16.188c3.573 0 6.4497-2.8762 6.4497-6.4492v-16.189c0-3.573-2.8767-6.4492-6.4497-6.4492z" fill="#dbdbde" stroke="#808080" stroke-width=".23368"/>
  <path id="rect897" d="m8.8094 2.4568c-3.573 0-6.4497 2.8762-6.4497 6.4492v16.189c0 0.42247 0.041513 0.83464 0.11834 1.234h28.851c0.07682-0.39939 0.11834-0.81157 0.11834-1.234v-16.189c0-3.573-2.8767-6.4492-6.4497-6.4492z"/>
  <path id="rect1848" d="m8.8094 2.4568c-3.4613 0-6.2694 2.6993-6.4415 6.1164-0.00427 0.11836-0.00827 0.23497-0.00827 0.3328v15.586h29.088v-15.586c0-0.11166-0.0027-0.22257-0.0083-0.3328-0.17208-3.4171-2.9801-6.1164-6.4414-6.1164z" fill="url(#linearGradient7784)" stroke="url(#linearGradient7756)" stroke-dasharray="0.0377164, 0.0377164" stroke-width=".15087"/>
  <path id="rect1413" d="m7.5805 2.5736c-2.8756 0.55055-5.0614 2.9977-5.2126 5.9996-0.00427 0.11836-0.00827 0.23497-0.00827 0.3328v15.586h5.2209z" fill="#afe1fe" opacity=".373"/>
  <path id="rect1415" d="m8.8094 2.4568c-3.4613 0-6.2694 2.6993-6.4415 6.1164-0.00427 0.11836-0.00827 0.23497-0.00827 0.3328v15.586h10.433v-22.035z" fill="#afe1fe" opacity=".373"/>
  <path id="rect1417" d="m8.8094 2.4568c-3.4613 0-6.2694 2.6993-6.4415 6.1164-0.00427 0.11836-0.00827 0.23497-0.00827 0.3328v15.586h15.31v-22.035z" fill="#afe1fe" opacity=".373"/>
 </g>
</svg>
