<?xml version="1.0" encoding="UTF-8"?>
<svg id="svg2117" width="128" height="128" version="1.1" viewBox="0 0 33.867 33.867" xmlns="http://www.w3.org/2000/svg" xmlns:cc="http://creativecommons.org/ns#" xmlns:dc="http://purl.org/dc/elements/1.1/" xmlns:rdf="http://www.w3.org/1999/02/22-rdf-syntax-ns#" xmlns:xlink="http://www.w3.org/1999/xlink">
 <defs id="defs2111">
  <linearGradient id="linearGradient912" x1="132.21" x2="132.21" y1="42.152" y2="70.68" gradientTransform="matrix(.97573 0 0 .97573 -111.89 -37.234)" gradientUnits="userSpaceOnUse">
   <stop id="stop1626" stop-color="#f8fcfc" offset="0"/>
   <stop id="stop1628" stop-color="#e3e5e8" offset="1"/>
  </linearGradient>
 </defs>
 <metadata id="metadata2114">
  <rdf:RDF>
   <cc:Work rdf:about="">
    <dc:format>image/svg+xml</dc:format>
    <dc:type rdf:resource="http://purl.org/dc/dcmitype/StillImage"/>
   </cc:Work>
  </rdf:RDF>
 </metadata>
 <g id="layer1">
  <g id="g1702" transform="matrix(.97573 0 0 .97573 -65.83 -36.915)" fill="none" opacity=".13962" stroke="#000" stroke-linecap="round" stroke-linejoin="round" stroke-opacity=".02">
   <rect id="rect1634" x="69.84" y="40.71" width="29.811" height="29.811" rx="6.6099" ry="6.6099" stroke-width=".1"/>
   <rect id="rect1638" x="69.84" y="40.71" width="29.811" height="29.811" rx="6.6099" ry="6.6099" stroke-width=".2"/>
   <rect id="rect1640" x="69.84" y="40.71" width="29.811" height="29.811" rx="6.6099" ry="6.6099" stroke-width=".3"/>
   <rect id="rect1642" x="69.84" y="40.71" width="29.811" height="29.811" rx="6.6099" ry="6.6099" stroke-width=".4"/>
   <rect id="rect1644" x="69.84" y="40.71" width="29.811" height="29.811" rx="6.6099" ry="6.6099" stroke-width=".5"/>
   <rect id="rect1646" x="69.84" y="40.71" width="29.811" height="29.811" rx="6.6099" ry="6.6099" stroke-width=".6"/>
   <rect id="rect1648" x="69.84" y="40.71" width="29.811" height="29.811" rx="6.6099" ry="6.6099" stroke-width=".7"/>
   <rect id="rect1650" x="69.84" y="40.71" width="29.811" height="29.811" rx="6.6099" ry="6.6099" stroke-width=".8"/>
   <rect id="rect1652" x="69.84" y="40.71" width="29.811" height="29.811" rx="6.6099" ry="6.6099"/>
   <rect id="rect1654" x="69.84" y="40.71" width="29.811" height="29.811" rx="6.6099" ry="6.6099" stroke-width="1.2"/>
   <rect id="rect1656" x="69.84" y="40.71" width="29.811" height="29.811" rx="6.6099" ry="6.6099" stroke-width="1.4"/>
   <rect id="rect1658" x="69.84" y="40.71" width="29.811" height="29.811" rx="6.6099" ry="6.6099" stroke-width="1.6"/>
   <rect id="rect1660" x="69.84" y="40.71" width="29.811" height="29.811" rx="6.6099" ry="6.6099" stroke-width="1.8"/>
   <rect id="rect1662" x="69.84" y="40.71" width="29.811" height="29.811" rx="6.6099" ry="6.6099" stroke-width="2"/>
   <rect id="rect1664" x="69.84" y="40.71" width="29.811" height="29.811" rx="6.6099" ry="6.6099" stroke-width="2.2"/>
   <rect id="rect1666" x="69.84" y="40.71" width="29.811" height="29.811" rx="6.6099" ry="6.6099" stroke-width="2.6"/>
   <rect id="rect1668" x="69.84" y="40.71" width="29.811" height="29.811" rx="6.6099" ry="6.6099" stroke-width="3"/>
   <rect id="rect1670" x="69.84" y="40.71" width="29.811" height="29.811" rx="6.6099" ry="6.6099" stroke-width="3.4"/>
   <rect id="rect1672" x="69.84" y="40.71" width="29.811" height="29.811" rx="6.6099" ry="6.6099" stroke-width="3.8"/>
   <rect id="rect1674" x="69.84" y="40.71" width="29.811" height="29.811" rx="6.6099" ry="6.6099" stroke-width="4.2"/>
   <rect id="rect1676" x="69.84" y="40.71" width="29.811" height="29.811" rx="6.6099" ry="6.6099" stroke-width="4.6"/>
   <rect id="rect1678" x="69.84" y="40.71" width="29.811" height="29.811" rx="6.6099" ry="6.6099" stroke-width="5"/>
  </g>
  <rect id="rect910" x="2.2835" y="2.4875" width="29.087" height="29.087" rx="6.4495" ry="6.4495" fill="url(#linearGradient912)" stroke-linecap="round" stroke-linejoin="round" stroke-width="2.6877"/>
  <g id="g8" transform="matrix(.48347 0 0 .48347 5.1661 6.2796)" opacity=".2">
   <g id="g6" transform="matrix(.090632 0 0 .098526 4 2.2582)">
    <g id="g4">
     <path id="path2" transform="matrix(11.034 0 0 10.15 -44.139 -22.918)" d="m15.541 4c-6.3734 0-11.541 5.8798-11.541 13.133 0 1.9487 0.3022 3.8244 0.83203 5.6152 0 0 0.48064 1.6144 0.90625 2.5039 4.8643 11.373 18.262 18.748 18.262 18.748s13.397-7.3752 18.262-18.748c0.42561-0.88949 0.90625-2.5039 0.90625-2.5039 0.52983-1.7908 0.83203-3.6665 0.83203-5.6152 0-7.253-5.1676-13.133-11.541-13.133-3.3425 0-6.3509 1.4158-8.459 4-2.1081-2.5842-5.1165-4-8.459-4z"/>
    </g>
   </g>
  </g>
  <path id="path10" d="m12.68 7.7301c-3.0814 0-5.5798 2.8427-5.5798 6.3494 0 0.94216 0.14611 1.849 0.40226 2.7148 0 0 0.23238 0.78052 0.43815 1.2106 2.3518 5.4985 8.829 9.0642 8.829 9.0642s6.4773-3.5657 8.829-9.0642c0.20577-0.43005 0.43815-1.2106 0.43815-1.2106 0.25616-0.86581 0.40227-1.7726 0.40227-2.7148 0-3.5066-2.4984-6.3494-5.5798-6.3494-1.616 0-3.0705 0.68448-4.0897 1.9339-1.0192-1.2494-2.4737-1.9339-4.0897-1.9339z" fill="#ffbd4a" stroke-width=".48347"/>
  <path id="path12" d="m24.292 14.984c0.15728-0.0088 0.29548 0.02238 0.43508 0.08585 0.68111 0.31843 0.84735 1.3015 0.69046 1.8768-0.32426 1.0908-1.2577 2.9083-2.5074 4.1928-0.55137 0.54546-1.2729 1.2312-2.0544 1.0718-0.61655-0.19047-0.96077-0.33781-1.131-0.69687-0.27235-0.93143 0.54602-1.3111 1.0208-1.7982 1.0409-1.0827 2.1288-2.723 2.6531-3.8208 0.28904-0.55985 0.3425-0.77672 0.89337-0.91141z" opacity=".1" stroke-width=".48347"/>
  <path id="path14" d="m24.292 14.5c0.15728-0.0088 0.29548 0.02238 0.43508 0.08585 0.68111 0.31843 0.84735 1.3015 0.69046 1.8768-0.32426 1.0908-1.2577 2.9083-2.5074 4.1928-0.55137 0.54546-1.2729 1.2312-2.0544 1.0718-0.61655-0.19047-0.96077-0.33781-1.131-0.69687-0.27235-0.93143 0.54602-1.3111 1.0208-1.7982 1.0409-1.0827 2.1288-2.723 2.6531-3.8207 0.28904-0.55985 0.3425-0.77672 0.89337-0.91142z" fill="#ee6d51" stroke-width=".48347"/>
  <path id="path16" d="m20.84 15.479c-0.27084 0.03536-0.53494 0.18922-0.75543 0.51558-0.14231 0.20877-0.26535 0.45994-0.35316 0.73749-0.11061 0.47033-0.10277 0.66093 0.28234 1.0821 0.17323 0.16985 0.3448 0.33647 0.51464 0.49952 1.1975 1.1497 2.3108 2.1303 3.389 3.0415 0.51844-0.69459 0.98884-1.4384 1.3805-2.2247-0.52509-0.4398-1.0512-0.87798-1.5552-1.3494-0.57206-0.53692-1.104-1.154-1.6563-1.7498-0.32366-0.34205-0.79505-0.61134-1.2465-0.55241z" opacity=".1" stroke-width=".48347"/>
  <path id="path18" d="m20.84 14.995c-0.27084 0.03536-0.53494 0.18922-0.75543 0.51558-0.14231 0.20877-0.26535 0.45994-0.35316 0.73748-0.11061 0.47033-0.10277 0.66093 0.28234 1.0821 0.17323 0.16985 0.3448 0.33648 0.51464 0.49953 1.1975 1.1497 2.3108 2.1303 3.389 3.0415 0.51844-0.69459 0.98884-1.4384 1.3805-2.2247-0.52509-0.4398-1.0512-0.87798-1.5552-1.3494-0.57206-0.53692-1.104-1.154-1.6563-1.7498-0.32366-0.34205-0.79505-0.61134-1.2465-0.55241z" fill="#ff7d5f" stroke-width=".48347"/>
  <g id="g26" transform="matrix(.48347 0 0 .48347 5.1661 5.7961)" fill="#fff" opacity=".2">
   <g id="g24" transform="matrix(.090632 0 0 .098526 4 2.2582)" fill="#fff">
    <g id="g22" fill="#fff">
     <path id="path20" transform="matrix(11.034 0 0 10.15 -44.139 -22.918)" d="m15.541 4c-6.3734 0-11.541 5.8798-11.541 13.133 0 0.18345 0.016191 0.36278 0.021484 0.54492 0.21271-7.0403 5.2812-12.678 11.52-12.678 3.3425 0 6.3509 1.4158 8.459 4 2.1081-2.5842 5.1165-4 8.459-4 6.2383 0 11.307 5.6375 11.52 12.678 0.005293-0.18214 0.021484-0.36148 0.021484-0.54492 0-7.253-5.1676-13.133-11.541-13.133-3.3425 0-6.3509 1.4158-8.459 4-2.1081-2.5842-5.1165-4-8.459-4z" fill="#fff"/>
    </g>
   </g>
  </g>
 </g>
</svg>
