<?xml version="1.0" encoding="UTF-8"?>
<svg id="svg1443" width="128" height="128" version="1.1" viewBox="0 0 33.867 33.867" xmlns="http://www.w3.org/2000/svg" xmlns:cc="http://creativecommons.org/ns#" xmlns:dc="http://purl.org/dc/elements/1.1/" xmlns:rdf="http://www.w3.org/1999/02/22-rdf-syntax-ns#" xmlns:xlink="http://www.w3.org/1999/xlink">
 <defs id="defs1437">
  <radialGradient id="radialGradient948" cx="16.951" cy="6.0443" r="14.544" gradientTransform="matrix(3.1335 0 0 1.9874 -36.165 -5.9684)" gradientUnits="userSpaceOnUse">
   <stop id="stop1626" stop-color="#00c4fc" offset="0"/>
   <stop id="stop1628" stop-color="#006cea" offset="1"/>
  </radialGradient>
  <linearGradient id="linearGradient963" x1="14.324" x2="14.324" y1="13.464" y2="23.481" gradientUnits="userSpaceOnUse">
   <stop id="stop957" stop-color="#fff" offset="0"/>
   <stop id="stop959" stop-color="#c2e4ff" offset="1"/>
  </linearGradient>
 </defs>
 <metadata id="metadata1440">
  <rdf:RDF>
   <cc:Work rdf:about="">
    <dc:format>image/svg+xml</dc:format>
    <dc:type rdf:resource="http://purl.org/dc/dcmitype/StillImage"/>
   </cc:Work>
  </rdf:RDF>
 </metadata>
 <g id="layer1">
  <g id="g1702" transform="matrix(.97573 0 0 .96361 -65.737 -36.328)" fill="none" opacity=".18754" stroke="#000" stroke-linecap="round" stroke-linejoin="round" stroke-opacity=".02">
   <rect id="rect1634" x="69.84" y="40.71" width="29.811" height="29.811" rx="6.6099" ry="6.6099" stroke-width=".1"/>
   <rect id="rect1638" x="69.84" y="40.71" width="29.811" height="29.811" rx="6.6099" ry="6.6099" stroke-width=".2"/>
   <rect id="rect1640" x="69.84" y="40.71" width="29.811" height="29.811" rx="6.6099" ry="6.6099" stroke-width=".3"/>
   <rect id="rect1642" x="69.84" y="40.71" width="29.811" height="29.811" rx="6.6099" ry="6.6099" stroke-width=".4"/>
   <rect id="rect1644" x="69.84" y="40.71" width="29.811" height="29.811" rx="6.6099" ry="6.6099" stroke-width=".5"/>
   <rect id="rect1646" x="69.84" y="40.71" width="29.811" height="29.811" rx="6.6099" ry="6.6099" stroke-width=".6"/>
   <rect id="rect1648" x="69.84" y="40.71" width="29.811" height="29.811" rx="6.6099" ry="6.6099" stroke-width=".7"/>
   <rect id="rect1650" x="69.84" y="40.71" width="29.811" height="29.811" rx="6.6099" ry="6.6099" stroke-width=".8"/>
   <rect id="rect1652" x="69.84" y="40.71" width="29.811" height="29.811" rx="6.6099" ry="6.6099"/>
   <rect id="rect1654" x="69.84" y="40.71" width="29.811" height="29.811" rx="6.6099" ry="6.6099" stroke-width="1.2"/>
   <rect id="rect1656" x="69.84" y="40.71" width="29.811" height="29.811" rx="6.6099" ry="6.6099" stroke-width="1.4"/>
   <rect id="rect1658" x="69.84" y="40.71" width="29.811" height="29.811" rx="6.6099" ry="6.6099" stroke-width="1.6"/>
   <rect id="rect1660" x="69.84" y="40.71" width="29.811" height="29.811" rx="6.6099" ry="6.6099" stroke-width="1.8"/>
   <rect id="rect1662" x="69.84" y="40.71" width="29.811" height="29.811" rx="6.6099" ry="6.6099" stroke-width="2"/>
   <rect id="rect1664" x="69.84" y="40.71" width="29.811" height="29.811" rx="6.6099" ry="6.6099" stroke-width="2.2"/>
   <rect id="rect1666" x="69.84" y="40.71" width="29.811" height="29.811" rx="6.6099" ry="6.6099" stroke-width="2.6"/>
   <rect id="rect1668" x="69.84" y="40.71" width="29.811" height="29.811" rx="6.6099" ry="6.6099" stroke-width="3"/>
   <rect id="rect1670" x="69.84" y="40.71" width="29.811" height="29.811" rx="6.6099" ry="6.6099" stroke-width="3.4"/>
   <rect id="rect1672" x="69.84" y="40.71" width="29.811" height="29.811" rx="6.6099" ry="6.6099" stroke-width="3.8"/>
   <rect id="rect1674" x="69.84" y="40.71" width="29.811" height="29.811" rx="6.6099" ry="6.6099" stroke-width="4.2"/>
   <rect id="rect1676" x="69.84" y="40.71" width="29.811" height="29.811" rx="6.6099" ry="6.6099" stroke-width="4.6"/>
   <rect id="rect1678" x="69.84" y="40.71" width="29.811" height="29.811" rx="6.6099" ry="6.6099" stroke-width="5"/>
  </g>
  <rect id="rect849" x="2.4074" y="2.5392" width="29.087" height="29.087" rx="6.4495" ry="6.4495" fill="url(#radialGradient948)" stroke-linecap="round" stroke-linejoin="round" stroke-width="2.6877"/>
  <path id="path950" d="m17.876 9.1507c-2.998 0.0032-5.4907 2.4069-5.6037 5.4029-1.9326 0.4531-3.3104 2.1896-3.3131 4.1744 0 2.3553 1.9379 4.2933 4.2933 4.2933 0 0 0.28864 0.32893 0.16908 1.2437-0.1037 0.79524-2.4504 1.4757-2.4504 1.4757s4.0475 1.2357 6.0224-0.19298c1.716-1.2411 1.8745-2.5277 1.8745-2.5277l4.9524 0.0013c1.9927 0 3.6328-1.64 3.6328-3.6328 0-1.9927-1.64-3.6328-3.6328-3.6328-0.14332 0.0013-0.286 0.01123-0.428 0.02973 0.06341-0.3362 0.09643-0.67833 0.09776-1.0205 0-3.0799-2.5343-5.6143-5.6143-5.6143z" fill="#001e6e" fill-opacity=".26971" stroke-width=".6605"/>
  <path id="path9" d="m17.091 8.7043c-2.998 0.0032-5.4907 2.4069-5.6037 5.4029-1.9326 0.4531-3.3104 2.1896-3.3131 4.1744 0 2.3553 1.9379 4.2933 4.2933 4.2933 0 0 0.28864 0.32893 0.16908 1.2437-0.1037 0.79524-1.6651 1.9221-1.6651 1.9221s3.2622 0.7893 5.2371-0.63936c1.716-1.2411 1.8745-2.5277 1.8745-2.5277l4.9524 0.0013c1.9927 0 3.6328-1.64 3.6328-3.6328 0-1.9927-1.64-3.6328-3.6328-3.6328-0.14332 0.0013-0.286 0.01123-0.428 0.02973 0.06341-0.3362 0.09643-0.67833 0.09776-1.0205 0-3.0799-2.5343-5.6143-5.6143-5.6143z" fill="url(#linearGradient963)" stroke-width=".6605"/>
  <path id="path952" transform="scale(.26458)" d="m64.596 32.898c-1.4537 0.001551-2.876 0.15366-4.252 0.43945 0.37792-0.020827 0.75808-0.032795 1.1406-0.033203 11.641-1e-6 21.219 9.5801 21.219 21.221-0.005027 1.2931-0.12948 2.5848-0.36914 3.8555 0.53673-0.069921 1.0755-0.10641 1.6172-0.11133 7.5316 0 13.73 6.1989 13.73 13.73 0 6.4039-4.4873 11.829-10.459 13.314 7.4584-0.087961 13.57-6.2451 13.57-13.723 0-7.5316-6.1989-13.73-13.73-13.73-0.54167 0.004914-1.0805 0.04336-1.6172 0.11328 0.23966-1.2707 0.36411-2.5643 0.36914-3.8574 0-11.641-9.5781-21.219-21.219-21.219zm0.63672 52.826s-0.5984 4.862-7.084 9.5527c-2.0102 1.4542-4.3738 2.2878-6.7539 2.748 3.3532-0.23616 6.9726-1.0618 9.8652-3.1543 5.6919-4.1167 6.7921-8.1681 6.9902-9.1465h-3.0176z" fill="#0075ff" fill-opacity=".09734" stroke-width="2.4964"/>
 </g>
</svg>
