<?xml version="1.0" encoding="UTF-8"?>
<svg width="128" height="128" viewBox="0 0 33.867 33.867" xmlns="http://www.w3.org/2000/svg" xmlns:xlink="http://www.w3.org/1999/xlink">
 <defs>
  <linearGradient id="i">
   <stop stop-color="#141414" stop-opacity=".93725" offset="0"/>
   <stop stop-color="#141414" stop-opacity=".93725" offset=".42"/>
   <stop stop-color="#141414" stop-opacity=".92157" offset=".465"/>
   <stop stop-color="#141414" stop-opacity=".8549" offset=".534"/>
   <stop stop-color="#141414" stop-opacity=".80392" offset=".571"/>
   <stop stop-color="#141414" stop-opacity=".70588" offset=".62"/>
   <stop stop-color="#141414" stop-opacity=".38039" offset=".77"/>
   <stop stop-color="#141414" stop-opacity=".14902" offset=".885"/>
   <stop stop-color="#141414" stop-opacity=".082353" offset=".93"/>
   <stop stop-color="#141414" stop-opacity=".027451" offset=".971"/>
   <stop stop-color="#141414" stop-opacity="0" offset="1"/>
  </linearGradient>
  <linearGradient id="j" x1="6.744" x2="23.008" y1="28.111" y2="9.819" gradientTransform="translate(.07 -.048)" gradientUnits="userSpaceOnUse">
   <stop stop-color="#dbdadb" offset="0"/>
   <stop stop-color="#ebeaeb" offset="1"/>
  </linearGradient>
  <linearGradient id="f">
   <stop stop-color="#5b5b5b" offset="0"/>
   <stop stop-color="#6d6d6d" stop-opacity="0" offset="1"/>
  </linearGradient>
  <linearGradient id="e">
   <stop stop-color="#fff" offset="0"/>
   <stop stop-color="#fff" stop-opacity=".97255" offset=".063"/>
   <stop stop-color="#fff" stop-opacity=".67451" offset=".325"/>
   <stop stop-color="#fff" stop-opacity=".50196" offset=".477"/>
   <stop stop-color="#fff" stop-opacity=".2" offset=".761"/>
   <stop stop-color="#fff" stop-opacity=".023529" offset=".955"/>
   <stop stop-color="#fff" stop-opacity="0" offset="1"/>
  </linearGradient>
  <linearGradient id="g">
   <stop stop-color="#fff" offset="0"/>
   <stop stop-color="#fff" stop-opacity="0" offset="1"/>
  </linearGradient>
  <linearGradient id="h">
   <stop stop-color="#fff" stop-opacity="0" offset="0"/>
   <stop stop-color="#fff" stop-opacity="0" offset=".962"/>
   <stop stop-color="#fff" stop-opacity=".39216" offset="1"/>
  </linearGradient>
  <linearGradient id="E" x1="816.49" x2="816.49" y1="155.14" y2="276.63" gradientTransform="matrix(.08368 0 0 .07135 -53.452 -7.05)" gradientUnits="userSpaceOnUse">
   <stop stop-color="#707070" offset="0"/>
   <stop stop-color="#d0d0d0" offset="1"/>
  </linearGradient>
  <linearGradient id="F" x1="832.96" x2="832.96" y1="221.05" y2="132.96" gradientTransform="matrix(.08368 0 0 .07135 -53.295 -7.05)" gradientUnits="userSpaceOnUse">
   <stop stop-color="#e7eaf0" offset="0"/>
   <stop stop-color="#bbbec6" offset="1"/>
  </linearGradient>
  <linearGradient id="G" x1="7.104" x2="6.634" y1="23.876" y2="23.338" gradientTransform="translate(12.687 -1.966)" gradientUnits="userSpaceOnUse" xlink:href="#d"/>
  <linearGradient id="d">
   <stop stop-color="#fafbfb" offset="0"/>
   <stop stop-color="#7e7e7e" offset="1"/>
  </linearGradient>
  <linearGradient id="H" x1="7.104" x2="6.634" y1="23.876" y2="23.338" gradientTransform="translate(11.44 -1.966)" gradientUnits="userSpaceOnUse" xlink:href="#d"/>
  <linearGradient id="I" x1="7.104" x2="6.634" y1="23.876" y2="23.338" gradientTransform="translate(10.194 -1.966)" gradientUnits="userSpaceOnUse" xlink:href="#d"/>
  <linearGradient id="J" x1="7.104" x2="6.634" y1="23.876" y2="23.338" gradientTransform="translate(8.948 -1.966)" gradientUnits="userSpaceOnUse" xlink:href="#d"/>
  <linearGradient id="K" x1="7.104" x2="6.634" y1="23.876" y2="23.338" gradientTransform="translate(7.701 -1.966)" gradientUnits="userSpaceOnUse" xlink:href="#d"/>
  <linearGradient id="L" x1="7.104" x2="6.634" y1="23.876" y2="23.338" gradientTransform="translate(6.454 -1.966)" gradientUnits="userSpaceOnUse" xlink:href="#d"/>
  <linearGradient id="M" x1="7.104" x2="6.634" y1="23.876" y2="23.338" gradientTransform="translate(13.934 -1.966)" gradientUnits="userSpaceOnUse" xlink:href="#d"/>
  <linearGradient id="N" x1="7.104" x2="6.634" y1="23.876" y2="23.338" gradientTransform="translate(12.687 -.992)" gradientUnits="userSpaceOnUse" xlink:href="#d"/>
  <linearGradient id="O" x1="7.104" x2="6.634" y1="23.876" y2="23.338" gradientTransform="translate(11.44 -.992)" gradientUnits="userSpaceOnUse" xlink:href="#d"/>
  <linearGradient id="P" x1="7.104" x2="6.634" y1="23.876" y2="23.338" gradientTransform="translate(10.194 -.992)" gradientUnits="userSpaceOnUse" xlink:href="#d"/>
  <linearGradient id="Q" x1="7.104" x2="6.634" y1="23.876" y2="23.338" gradientTransform="translate(8.948 -.992)" gradientUnits="userSpaceOnUse" xlink:href="#d"/>
  <linearGradient id="R" x1="7.104" x2="6.634" y1="23.876" y2="23.338" gradientTransform="translate(7.701 -.992)" gradientUnits="userSpaceOnUse" xlink:href="#d"/>
  <linearGradient id="S" x1="7.104" x2="6.634" y1="23.876" y2="23.338" gradientTransform="translate(6.454 -.992)" gradientUnits="userSpaceOnUse" xlink:href="#d"/>
  <linearGradient id="T" x1="7.104" x2="6.634" y1="23.876" y2="23.338" gradientTransform="translate(5.208 -.992)" gradientUnits="userSpaceOnUse" xlink:href="#d"/>
  <linearGradient id="U" x1="7.104" x2="6.634" y1="23.876" y2="23.338" gradientTransform="translate(13.934 -.992)" gradientUnits="userSpaceOnUse" xlink:href="#d"/>
  <linearGradient id="V" x1="7.104" x2="6.634" y1="23.876" y2="23.338" gradientTransform="translate(15.18 -.992)" gradientUnits="userSpaceOnUse" xlink:href="#d"/>
  <linearGradient id="W" x1="7.104" x2="6.634" y1="23.876" y2="23.338" gradientTransform="translate(12.687 .173)" gradientUnits="userSpaceOnUse" xlink:href="#d"/>
  <linearGradient id="X" x1="7.104" x2="6.634" y1="23.876" y2="23.338" gradientTransform="translate(11.44 .173)" gradientUnits="userSpaceOnUse" xlink:href="#d"/>
  <linearGradient id="Y" x1="7.104" x2="6.634" y1="23.876" y2="23.338" gradientTransform="translate(10.194 .173)" gradientUnits="userSpaceOnUse" xlink:href="#d"/>
  <linearGradient id="Z" x1="7.104" x2="6.634" y1="23.876" y2="23.338" gradientTransform="translate(8.948 .173)" gradientUnits="userSpaceOnUse" xlink:href="#d"/>
  <linearGradient id="aa" x1="7.104" x2="6.634" y1="23.876" y2="23.338" gradientTransform="translate(7.701 .173)" gradientUnits="userSpaceOnUse" xlink:href="#d"/>
  <linearGradient id="ab" x1="7.104" x2="6.634" y1="23.876" y2="23.338" gradientTransform="translate(6.454 .173)" gradientUnits="userSpaceOnUse" xlink:href="#d"/>
  <linearGradient id="ac" x1="7.104" x2="6.634" y1="23.876" y2="23.338" gradientTransform="translate(5.208 .173)" gradientUnits="userSpaceOnUse" xlink:href="#d"/>
  <linearGradient id="ad" x1="7.104" x2="6.634" y1="23.876" y2="23.338" gradientTransform="translate(3.961 .173)" gradientUnits="userSpaceOnUse" xlink:href="#d"/>
  <linearGradient id="ae" x1="7.104" x2="6.634" y1="23.876" y2="23.338" gradientTransform="translate(13.934 .173)" gradientUnits="userSpaceOnUse" xlink:href="#d"/>
  <linearGradient id="af" x1="7.104" x2="6.634" y1="23.876" y2="23.338" gradientTransform="translate(16.427 .173)" gradientUnits="userSpaceOnUse" xlink:href="#d"/>
  <linearGradient id="ag" x1="7.104" x2="6.634" y1="23.876" y2="23.338" gradientTransform="translate(15.18 .173)" gradientUnits="userSpaceOnUse" xlink:href="#d"/>
  <linearGradient id="ah" x1="7.104" x2="6.634" y1="23.876" y2="23.338" gradientTransform="translate(12.687 1.551)" gradientUnits="userSpaceOnUse" xlink:href="#d"/>
  <linearGradient id="ai" x1="7.104" x2="6.634" y1="23.876" y2="23.338" gradientTransform="translate(11.44 1.551)" gradientUnits="userSpaceOnUse" xlink:href="#d"/>
  <linearGradient id="aj" x1="7.104" x2="6.634" y1="23.876" y2="23.338" gradientTransform="translate(10.194 1.551)" gradientUnits="userSpaceOnUse" xlink:href="#d"/>
  <linearGradient id="ak" x1="7.104" x2="6.634" y1="23.876" y2="23.338" gradientTransform="translate(8.948 1.551)" gradientUnits="userSpaceOnUse" xlink:href="#d"/>
  <linearGradient id="al" x1="7.104" x2="6.634" y1="23.876" y2="23.338" gradientTransform="translate(7.701 1.551)" gradientUnits="userSpaceOnUse" xlink:href="#d"/>
  <linearGradient id="am" x1="7.104" x2="6.634" y1="23.876" y2="23.338" gradientTransform="translate(6.454 1.551)" gradientUnits="userSpaceOnUse" xlink:href="#d"/>
  <linearGradient id="an" x1="7.104" x2="6.634" y1="23.876" y2="23.338" gradientTransform="translate(5.208 1.551)" gradientUnits="userSpaceOnUse" xlink:href="#d"/>
  <linearGradient id="ao" x1="7.104" x2="6.634" y1="23.876" y2="23.338" gradientTransform="translate(3.961 1.551)" gradientUnits="userSpaceOnUse" xlink:href="#d"/>
  <linearGradient id="ap" x1="7.104" x2="6.634" y1="23.876" y2="23.338" gradientTransform="translate(13.934 1.551)" gradientUnits="userSpaceOnUse" xlink:href="#d"/>
  <linearGradient id="aq" x1="7.104" x2="6.634" y1="23.876" y2="23.338" gradientTransform="translate(16.427 1.551)" gradientUnits="userSpaceOnUse" xlink:href="#d"/>
  <linearGradient id="ar" x1="7.104" x2="6.634" y1="23.876" y2="23.338" gradientTransform="translate(15.18 1.551)" gradientUnits="userSpaceOnUse" xlink:href="#d"/>
  <linearGradient id="as" x1="7.104" x2="6.634" y1="23.876" y2="23.338" gradientTransform="translate(12.687 3.12)" gradientUnits="userSpaceOnUse" xlink:href="#d"/>
  <linearGradient id="at" x1="7.104" x2="6.634" y1="23.876" y2="23.338" gradientTransform="translate(11.44 3.12)" gradientUnits="userSpaceOnUse" xlink:href="#d"/>
  <linearGradient id="au" x1="7.104" x2="6.634" y1="23.876" y2="23.338" gradientTransform="translate(10.194 3.12)" gradientUnits="userSpaceOnUse" xlink:href="#d"/>
  <linearGradient id="av" x1="7.104" x2="6.634" y1="23.876" y2="23.338" gradientTransform="translate(8.948 3.12)" gradientUnits="userSpaceOnUse" xlink:href="#d"/>
  <linearGradient id="aw" x1="7.104" x2="6.634" y1="23.876" y2="23.338" gradientTransform="translate(7.701 3.12)" gradientUnits="userSpaceOnUse" xlink:href="#d"/>
  <linearGradient id="ax" x1="7.104" x2="6.634" y1="23.876" y2="23.338" gradientTransform="translate(6.454 3.12)" gradientUnits="userSpaceOnUse" xlink:href="#d"/>
  <linearGradient id="ay" x1="7.104" x2="6.634" y1="23.876" y2="23.338" gradientTransform="translate(5.208 3.12)" gradientUnits="userSpaceOnUse" xlink:href="#d"/>
  <linearGradient id="az" x1="7.104" x2="6.634" y1="23.876" y2="23.338" gradientTransform="translate(13.934 3.12)" gradientUnits="userSpaceOnUse" xlink:href="#d"/>
  <linearGradient id="aA" x1="7.104" x2="6.634" y1="23.876" y2="23.338" gradientTransform="translate(15.18 3.12)" gradientUnits="userSpaceOnUse" xlink:href="#d"/>
  <linearGradient id="aB" x1="7.104" x2="6.634" y1="23.876" y2="23.338" gradientTransform="translate(12.687 4.83)" gradientUnits="userSpaceOnUse" xlink:href="#d"/>
  <linearGradient id="aC" x1="7.104" x2="6.634" y1="23.876" y2="23.338" gradientTransform="translate(11.44 4.83)" gradientUnits="userSpaceOnUse" xlink:href="#d"/>
  <linearGradient id="aD" x1="7.104" x2="6.634" y1="23.876" y2="23.338" gradientTransform="translate(10.194 4.83)" gradientUnits="userSpaceOnUse" xlink:href="#d"/>
  <linearGradient id="aE" x1="7.104" x2="6.634" y1="23.876" y2="23.338" gradientTransform="translate(8.948 4.83)" gradientUnits="userSpaceOnUse" xlink:href="#d"/>
  <linearGradient id="aF" x1="7.104" x2="6.634" y1="23.876" y2="23.338" gradientTransform="translate(7.701 4.83)" gradientUnits="userSpaceOnUse" xlink:href="#d"/>
  <linearGradient id="aG" x1="7.104" x2="6.634" y1="23.876" y2="23.338" gradientTransform="translate(6.454 4.83)" gradientUnits="userSpaceOnUse" xlink:href="#d"/>
  <linearGradient id="aH" x1="7.104" x2="6.634" y1="23.876" y2="23.338" gradientTransform="translate(13.934 4.83)" gradientUnits="userSpaceOnUse" xlink:href="#d"/>
  <linearGradient id="aI" x1="7.104" x2="6.634" y1="23.876" y2="23.338" gradientTransform="translate(12.687 6.114)" gradientUnits="userSpaceOnUse" xlink:href="#d"/>
  <linearGradient id="aJ" x1="7.104" x2="6.634" y1="23.876" y2="23.338" gradientTransform="translate(11.44 6.114)" gradientUnits="userSpaceOnUse" xlink:href="#d"/>
  <linearGradient id="aK" x1="7.104" x2="6.634" y1="23.876" y2="23.338" gradientTransform="translate(10.194 6.114)" gradientUnits="userSpaceOnUse" xlink:href="#d"/>
  <linearGradient id="aL" x1="7.104" x2="6.634" y1="23.876" y2="23.338" gradientTransform="translate(8.948 6.114)" gradientUnits="userSpaceOnUse" xlink:href="#d"/>
  <linearGradient id="aM" x1="7.104" x2="6.634" y1="23.876" y2="23.338" gradientTransform="translate(7.701 6.114)" gradientUnits="userSpaceOnUse" xlink:href="#d"/>
  <linearGradient id="m" x1="254.88" x2="252.4" y1="251.44" y2="258.82" gradientTransform="translate(342.78 -75.932)" gradientUnits="userSpaceOnUse" xlink:href="#e"/>
  <linearGradient id="n" x1="254.88" x2="249.47" y1="251.44" y2="271.62" gradientTransform="translate(342.78 -75.932)" gradientUnits="userSpaceOnUse" xlink:href="#e"/>
  <radialGradient id="l" cx="711.55" cy="56.356" r="56.185" gradientUnits="userSpaceOnUse" xlink:href="#f"/>
  <radialGradient id="C" cx="711.55" cy="56.355" r="51.77" gradientTransform="matrix(.29623 0 0 .31104 500.77 38.827)" gradientUnits="userSpaceOnUse" xlink:href="#g"/>
  <radialGradient id="D" cx="711.55" cy="56.356" r="56.185" gradientUnits="userSpaceOnUse" xlink:href="#h"/>
  <radialGradient id="k" cx="9.336" cy="26.007" r="4.409" gradientTransform="translate(.368 .212) scale(.98341)" gradientUnits="userSpaceOnUse" xlink:href="#i"/>
 </defs>
 <g transform="translate(-65.678 -37.252) scale(.97573)" fill="none" opacity=".29676" stroke="#000" stroke-linecap="round" stroke-linejoin="round" stroke-opacity=".02">
  <rect x="69.84" y="40.71" width="29.811" height="29.811" rx="6.61" ry="6.61" stroke-width=".1"/>
  <rect x="69.84" y="40.71" width="29.811" height="29.811" rx="6.61" ry="6.61" stroke-width=".2"/>
  <rect x="69.84" y="40.71" width="29.811" height="29.811" rx="6.61" ry="6.61" stroke-width=".3"/>
  <rect x="69.84" y="40.71" width="29.811" height="29.811" rx="6.61" ry="6.61" stroke-width=".4"/>
  <rect x="69.84" y="40.71" width="29.811" height="29.811" rx="6.61" ry="6.61" stroke-width=".5"/>
  <rect x="69.84" y="40.71" width="29.811" height="29.811" rx="6.61" ry="6.61" stroke-width=".6"/>
  <rect x="69.84" y="40.71" width="29.811" height="29.811" rx="6.61" ry="6.61" stroke-width=".7"/>
  <rect x="69.84" y="40.71" width="29.811" height="29.811" rx="6.61" ry="6.61" stroke-width=".8"/>
  <rect x="69.84" y="40.71" width="29.811" height="29.811" rx="6.61" ry="6.61"/>
  <rect x="69.84" y="40.71" width="29.811" height="29.811" rx="6.61" ry="6.61" stroke-width="1.2"/>
  <rect x="69.84" y="40.71" width="29.811" height="29.811" rx="6.61" ry="6.61" stroke-width="1.4"/>
  <rect x="69.84" y="40.71" width="29.811" height="29.811" rx="6.61" ry="6.61" stroke-width="1.6"/>
  <rect x="69.84" y="40.71" width="29.811" height="29.811" rx="6.61" ry="6.61" stroke-width="1.8"/>
  <rect x="69.84" y="40.71" width="29.811" height="29.811" rx="6.61" ry="6.61" stroke-width="2"/>
  <rect x="69.84" y="40.71" width="29.811" height="29.811" rx="6.61" ry="6.61" stroke-width="2.2"/>
  <rect x="69.84" y="40.71" width="29.811" height="29.811" rx="6.61" ry="6.61" stroke-width="2.6"/>
  <rect x="69.84" y="40.71" width="29.811" height="29.811" rx="6.61" ry="6.61" stroke-width="3"/>
  <rect x="69.84" y="40.71" width="29.811" height="29.811" rx="6.61" ry="6.61" stroke-width="3.4"/>
  <rect x="69.84" y="40.71" width="29.811" height="29.811" rx="6.61" ry="6.61" stroke-width="3.8"/>
  <rect x="69.84" y="40.71" width="29.811" height="29.811" rx="6.61" ry="6.61" stroke-width="4.2"/>
  <rect x="69.84" y="40.71" width="29.811" height="29.811" rx="6.61" ry="6.61" stroke-width="4.6"/>
  <rect x="69.84" y="40.71" width="29.811" height="29.811" rx="6.61" ry="6.61" stroke-width="5"/>
 </g>
 <rect x="2.477" y="2.47" width="29.087" height="29.087" rx="6.449" ry="6.449" fill="url(#j)" stroke-linecap="round" stroke-linejoin="round" stroke-width="2.6877"/>
 <circle cx="9.549" cy="25.788" r="4.336" fill="url(#k)" opacity=".56483" stroke-linecap="round" stroke-linejoin="bevel" stroke-width=".17111"/>
 <path transform="translate(-34.156 21.869) scale(.06124)" d="M767.732 56.356c0 15.515-6.29 29.561-16.457 39.728-10.167 10.168-24.213 16.457-39.728 16.457s-29.562-6.289-39.73-16.457c-10.167-10.167-16.455-24.213-16.455-39.728s6.288-29.562 16.456-39.73C681.985 6.46 696.032.172 711.547.172s29.56 6.288 39.728 16.456c10.168 10.167 16.457 24.214 16.457 39.729z" fill="#d0d0d0" fill-rule="evenodd"/>
 <path transform="translate(-34.156 21.869) scale(.06124)" d="M767.732 56.356c0 15.515-6.29 29.561-16.457 39.728-10.167 10.168-24.213 16.457-39.728 16.457s-29.562-6.289-39.73-16.457c-10.167-10.167-16.455-24.213-16.455-39.728s6.288-29.562 16.456-39.73C681.985 6.46 696.032.172 711.547.172s29.56 6.288 39.728 16.456c10.168 10.167 16.457 24.214 16.457 39.729z" fill="url(#l)" fill-rule="evenodd"/>
 <g fill-rule="evenodd" opacity=".636">
  <path transform="translate(-27.978 13.964) scale(.06124)" d="m650.39 225.17c-10.167 10.167-24.214 16.455-39.729 16.455s-29.561-6.288-39.729-16.456c-10.167-10.167-16.456-24.214-16.456-39.729s6.289-29.56 16.456-39.728z" fill="url(#m)" opacity="1"/>
  <path transform="translate(-27.978 13.964) scale(.06124)" d="m650.39 225.17c-10.167 10.167-24.214 16.455-39.729 16.455s-29.561-6.288-39.729-16.456c-10.167-10.167-16.456-24.214-16.456-39.729s6.289-29.56 16.456-39.728z" fill="url(#n)" opacity=".591"/>
  <path transform="matrix(0 .06124 .06124 0 -1.937 -12.077)" d="m650.39 225.17c-10.167 10.167-24.214 16.455-39.729 16.455s-29.561-6.288-39.729-16.456c-10.167-10.167-16.456-24.214-16.456-39.729s6.289-29.56 16.456-39.728z" fill="url(#m)" opacity="1"/>
  <path transform="matrix(0 .06124 .06124 0 -1.937 -12.077)" d="m650.39 225.17c-10.167 10.167-24.214 16.455-39.729 16.455s-29.561-6.288-39.729-16.456c-10.167-10.167-16.456-24.214-16.456-39.729s6.289-29.56 16.456-39.728z" fill="url(#n)" opacity=".591"/>
  <path transform="rotate(180 23.408 18.338) scale(.06124)" d="m650.39 225.17c-10.167 10.167-24.214 16.455-39.729 16.455s-29.561-6.288-39.729-16.456c-10.167-10.167-16.456-24.214-16.456-39.729s6.289-29.56 16.456-39.728z" fill="url(#m)" opacity="1"/>
  <path transform="rotate(180 23.408 18.338) scale(.06124)" d="m650.39 225.17c-10.167 10.167-24.214 16.455-39.729 16.455s-29.561-6.288-39.729-16.456c-10.167-10.167-16.456-24.214-16.456-39.729s6.289-29.56 16.456-39.728z" fill="url(#n)" opacity=".591"/>
  <path transform="matrix(0 -.06124 -.06124 0 20.776 62.717)" d="m650.39 225.17c-10.167 10.167-24.214 16.455-39.729 16.455s-29.561-6.288-39.729-16.456c-10.167-10.167-16.456-24.214-16.456-39.729s6.289-29.56 16.456-39.728z" fill="url(#m)" opacity="1"/>
  <path transform="matrix(0 -.06124 -.06124 0 20.776 62.717)" d="m650.39 225.17c-10.167 10.167-24.214 16.455-39.729 16.455s-29.561-6.288-39.729-16.456c-10.167-10.167-16.456-24.214-16.456-39.729s6.289-29.56 16.456-39.728z" fill="url(#n)" opacity=".591"/>
  <path transform="rotate(90 16.426 4.35) scale(.06124)" d="m650.39 225.17c-10.167 10.167-24.214 16.455-39.729 16.455s-29.561-6.288-39.729-16.456c-10.167-10.167-16.456-24.214-16.456-39.729s6.289-29.56 16.456-39.728z" fill="url(#m)" opacity="1"/>
  <path transform="rotate(90 16.426 4.35) scale(.06124)" d="m650.39 225.17c-10.167 10.167-24.214 16.455-39.729 16.455s-29.561-6.288-39.729-16.456c-10.167-10.167-16.456-24.214-16.456-39.729s6.289-29.56 16.456-39.728z" fill="url(#n)" opacity=".591"/>
  <path transform="matrix(-.06124 0 0 .06124 46.816 13.964)" d="m650.39 225.17c-10.167 10.167-24.214 16.455-39.729 16.455s-29.561-6.288-39.729-16.456c-10.167-10.167-16.456-24.214-16.456-39.729s6.289-29.56 16.456-39.728z" fill="url(#m)" opacity="1"/>
  <path transform="matrix(-.06124 0 0 .06124 46.816 13.964)" d="m650.39 225.17c-10.167 10.167-24.214 16.455-39.729 16.455s-29.561-6.288-39.729-16.456c-10.167-10.167-16.456-24.214-16.456-39.729s6.289-29.56 16.456-39.728z" fill="url(#n)" opacity=".591"/>
  <path transform="rotate(-90 30.39 32.327) scale(.06124)" d="m650.39 225.17c-10.167 10.167-24.214 16.455-39.729 16.455s-29.561-6.288-39.729-16.456c-10.167-10.167-16.456-24.214-16.456-39.729s6.289-29.56 16.456-39.728z" fill="url(#m)" opacity="1"/>
  <path transform="rotate(-90 30.39 32.327) scale(.06124)" d="m650.39 225.17c-10.167 10.167-24.214 16.455-39.729 16.455s-29.561-6.288-39.729-16.456c-10.167-10.167-16.456-24.214-16.456-39.729s6.289-29.56 16.456-39.728z" fill="url(#n)" opacity=".591"/>
  <path transform="matrix(.06124 0 0 -.06124 -27.978 36.676)" d="m650.39 225.17c-10.167 10.167-24.214 16.455-39.729 16.455s-29.561-6.288-39.729-16.456c-10.167-10.167-16.456-24.214-16.456-39.729s6.289-29.56 16.456-39.728z" fill="url(#m)" opacity="1"/>
  <path transform="matrix(.06124 0 0 -.06124 -27.978 36.676)" d="m650.39 225.17c-10.167 10.167-24.214 16.455-39.729 16.455s-29.561-6.288-39.729-16.456c-10.167-10.167-16.456-24.214-16.456-39.729s6.289-29.56 16.456-39.728z" fill="url(#n)" opacity=".591"/>
 </g>
 <path transform="translate(-34.156 21.869) scale(.06124)" d="m689.68 4.586a56.277 56.277 0 0 0-17.86 12.041 56.277 56.277 0 0 0-12.04 17.86l51.769 21.868zm21.869 51.77 51.77-21.87a56.277 56.277 0 0 0-12.042-17.859 56.277 56.277 0 0 0-17.859-12.041zm0 0 21.869 51.769a56.277 56.277 0 0 0 17.86-12.041 56.277 56.277 0 0 0 12.04-17.86zm0 0-51.77 21.869a56.277 56.277 0 0 0 12.041 17.859 56.277 56.277 0 0 0 17.86 12.041z" fill="url(#C)" fill-rule="evenodd" opacity=".668"/>
 <path transform="translate(-34.156 21.869) scale(.06124)" d="M767.732 56.356c0 15.515-6.29 29.561-16.457 39.728-10.167 10.168-24.213 16.457-39.728 16.457s-29.562-6.289-39.73-16.457c-10.167-10.167-16.455-24.213-16.455-39.728s6.288-29.562 16.456-39.73C681.985 6.46 696.032.172 711.547.172s29.56 6.288 39.728 16.456c10.168 10.167 16.457 24.214 16.457 39.729z" fill="url(#D)" fill-rule="evenodd"/>
 <rect x="4.163" y="4.717" width="25.716" height="8.357" rx="1.895" ry="1.616" fill="#707070" fill-rule="evenodd" stroke="#fff" stroke-opacity=".3913" stroke-width=".5"/>
 <rect x="4.163" y="4.717" width="25.716" height="8.357" rx="1.895" ry="1.616" fill="url(#E)" fill-rule="evenodd"/>
 <rect x="4.927" y="5.412" width="24.186" height="6.966" rx="1.124" ry=".958" fill="url(#F)" fill-rule="evenodd"/>
 <path d="M4.927 9.497v1.67h.116v-1.67Zm1.484 0v1.67h.556v-1.67Zm1.926 0v1.67h.556v-1.67Zm1.925 0v1.67h.557v-1.67Zm1.926 0v1.67h.557v-1.67Zm1.926 0v1.67h.556v-1.67Zm1.926 0v1.67h.556v-1.67Zm1.925 0v1.67h.557v-1.67Zm1.926 0v1.67h.557v-1.67Zm1.926 0v1.67h.556v-1.67Zm1.926 0v1.67h.556v-1.67Zm1.925 0v1.67h.557v-1.67Zm1.926 0v1.67h.557v-1.67Zm-22.146.678v.993h.557v-.993zm1.926 0v.993h.557v-.993zm1.926 0v.993h.556v-.993zm1.926 0v.993h.556v-.993zm1.925 0v.993h.557v-.993zm1.926 0v.993h.557v-.993zm1.926 0v.993h.556v-.993zm1.925 0v.993h.557v-.993zm1.926 0v.993h.557v-.993zm1.925 0v.993h.557v-.993zm1.926 0v.993h.557v-.993zm1.926 0v.993h.557v-.993zm1.926 0v.993h.557v-.993z" fill-rule="evenodd" opacity=".542"/>
 <path d="M14.347 5.412V8.95h.323V5.412Z" fill="#ff3537" fill-rule="evenodd"/>
 <g transform="translate(.07 -7.207)" fill-opacity=".20652" fill-rule="evenodd" stroke-width=".11">
  <circle cx="19.46" cy="21.633" r=".319" stroke="url(#G)"/>
  <circle cx="18.213" cy="21.633" r=".319" stroke="url(#H)"/>
  <circle cx="16.967" cy="21.633" r=".319" stroke="url(#I)"/>
  <circle cx="15.72" cy="21.633" r=".319" stroke="url(#J)"/>
  <circle cx="14.473" cy="21.633" r=".319" stroke="url(#K)"/>
  <circle cx="13.227" cy="21.633" r=".319" stroke="url(#L)"/>
  <circle cx="20.706" cy="21.633" r=".319" stroke="url(#M)"/>
 </g>
 <g transform="translate(.07 -6.835)" fill-opacity=".20652" fill-rule="evenodd" stroke-width=".11">
  <circle cx="19.46" cy="22.607" r=".319" stroke="url(#N)"/>
  <circle cx="18.213" cy="22.607" r=".319" stroke="url(#O)"/>
  <circle cx="16.967" cy="22.607" r=".319" stroke="url(#P)"/>
  <circle cx="15.72" cy="22.607" r=".319" stroke="url(#Q)"/>
  <circle cx="14.473" cy="22.607" r=".319" stroke="url(#R)"/>
  <circle cx="13.227" cy="22.607" r=".319" stroke="url(#S)"/>
  <circle cx="11.98" cy="22.607" r=".319" stroke="url(#T)"/>
  <circle cx="20.706" cy="22.607" r=".319" stroke="url(#U)"/>
  <circle cx="21.953" cy="22.607" r=".319" stroke="url(#V)"/>
 </g>
 <g transform="translate(.07 -6.653)" fill-opacity=".20652" fill-rule="evenodd" stroke-width=".11">
  <circle cx="19.46" cy="23.771" r=".319" stroke="url(#W)"/>
  <circle cx="18.213" cy="23.771" r=".319" stroke="url(#X)"/>
  <circle cx="16.967" cy="23.771" r=".319" stroke="url(#Y)"/>
  <circle cx="15.72" cy="23.771" r=".319" stroke="url(#Z)"/>
  <circle cx="14.473" cy="23.771" r=".319" stroke="url(#aa)"/>
  <circle cx="13.227" cy="23.771" r=".319" stroke="url(#ab)"/>
  <circle cx="11.98" cy="23.771" r=".319" stroke="url(#ac)"/>
  <circle cx="10.734" cy="23.771" r=".319" stroke="url(#ad)"/>
  <circle cx="20.706" cy="23.771" r=".319" stroke="url(#ae)"/>
  <circle cx="23.199" cy="23.771" r=".319" stroke="url(#af)"/>
  <circle cx="21.953" cy="23.771" r=".319" stroke="url(#ag)"/>
 </g>
 <g transform="translate(.07 -6.685)" fill-opacity=".20652" fill-rule="evenodd" stroke-width=".11">
  <circle cx="19.46" cy="25.15" r=".319" stroke="url(#ah)"/>
  <circle cx="18.213" cy="25.15" r=".319" stroke="url(#ai)"/>
  <circle cx="16.967" cy="25.15" r=".319" stroke="url(#aj)"/>
  <circle cx="15.72" cy="25.15" r=".319" stroke="url(#ak)"/>
  <circle cx="14.473" cy="25.15" r=".319" stroke="url(#al)"/>
  <circle cx="13.227" cy="25.15" r=".319" stroke="url(#am)"/>
  <circle cx="11.98" cy="25.15" r=".319" stroke="url(#an)"/>
  <circle cx="10.734" cy="25.15" r=".319" stroke="url(#ao)"/>
  <circle cx="20.706" cy="25.15" r=".319" stroke="url(#ap)"/>
  <circle cx="23.199" cy="25.15" r=".319" stroke="url(#aq)"/>
  <circle cx="21.953" cy="25.15" r=".319" stroke="url(#ar)"/>
 </g>
 <g transform="translate(.07 -6.906)" fill-opacity=".20652" fill-rule="evenodd" stroke-width=".11">
  <circle cx="19.46" cy="26.718" r=".319" stroke="url(#as)"/>
  <circle cx="18.213" cy="26.718" r=".319" stroke="url(#at)"/>
  <circle cx="16.967" cy="26.718" r=".319" stroke="url(#au)"/>
  <circle cx="15.72" cy="26.718" r=".319" stroke="url(#av)"/>
  <circle cx="14.473" cy="26.718" r=".319" stroke="url(#aw)"/>
  <circle cx="13.227" cy="26.718" r=".319" stroke="url(#ax)"/>
  <circle cx="11.98" cy="26.718" r=".319" stroke="url(#ay)"/>
  <circle cx="20.706" cy="26.718" r=".319" stroke="url(#az)"/>
  <circle cx="21.953" cy="26.718" r=".319" stroke="url(#aA)"/>
 </g>
 <g transform="translate(.07 -7.27)" fill-opacity=".20652" fill-rule="evenodd" stroke-width=".11">
  <circle cx="19.46" cy="28.43" r=".319" stroke="url(#aB)"/>
  <circle cx="18.213" cy="28.43" r=".319" stroke="url(#aC)"/>
  <circle cx="16.967" cy="28.43" r=".319" stroke="url(#aD)"/>
  <circle cx="15.72" cy="28.43" r=".319" stroke="url(#aE)"/>
  <circle cx="14.473" cy="28.43" r=".319" stroke="url(#aF)"/>
  <circle cx="13.227" cy="28.43" r=".319" stroke="url(#aG)"/>
  <circle cx="20.706" cy="28.43" r=".319" stroke="url(#aH)"/>
 </g>
 <g transform="translate(.07 -7.207)" fill-opacity=".20652" fill-rule="evenodd" stroke-width=".11">
  <circle cx="19.46" cy="29.713" r=".319" stroke="url(#aI)"/>
  <circle cx="18.213" cy="29.713" r=".319" stroke="url(#aJ)"/>
  <circle cx="16.967" cy="29.713" r=".319" stroke="url(#aK)"/>
  <circle cx="15.72" cy="29.713" r=".319" stroke="url(#aL)"/>
  <circle cx="14.473" cy="29.713" r=".319" stroke="url(#aM)"/>
 </g>
 <g transform="translate(14.774)">
  <circle cx="9.549" cy="25.788" r="4.336" fill="url(#k)" opacity=".56483" stroke-linecap="round" stroke-linejoin="bevel" stroke-width=".17111"/>
  <path transform="translate(-34.156 21.869) scale(.06124)" d="M767.732 56.356c0 15.515-6.29 29.561-16.457 39.728-10.167 10.168-24.213 16.457-39.728 16.457s-29.562-6.289-39.73-16.457c-10.167-10.167-16.455-24.213-16.455-39.728s6.288-29.562 16.456-39.73C681.985 6.46 696.032.172 711.547.172s29.56 6.288 39.728 16.456c10.168 10.167 16.457 24.214 16.457 39.729z" fill="#d0d0d0" fill-rule="evenodd"/>
  <path transform="translate(-34.156 21.869) scale(.06124)" d="M767.732 56.356c0 15.515-6.29 29.561-16.457 39.728-10.167 10.168-24.213 16.457-39.728 16.457s-29.562-6.289-39.73-16.457c-10.167-10.167-16.455-24.213-16.455-39.728s6.288-29.562 16.456-39.73C681.985 6.46 696.032.172 711.547.172s29.56 6.288 39.728 16.456c10.168 10.167 16.457 24.214 16.457 39.729z" fill="url(#l)" fill-rule="evenodd"/>
  <g fill-rule="evenodd" opacity=".636">
   <path transform="translate(-27.978 13.964) scale(.06124)" d="m650.39 225.17c-10.167 10.167-24.214 16.455-39.729 16.455s-29.561-6.288-39.729-16.456c-10.167-10.167-16.456-24.214-16.456-39.729s6.289-29.56 16.456-39.728z" fill="url(#m)" opacity="1"/>
   <path transform="translate(-27.978 13.964) scale(.06124)" d="m650.39 225.17c-10.167 10.167-24.214 16.455-39.729 16.455s-29.561-6.288-39.729-16.456c-10.167-10.167-16.456-24.214-16.456-39.729s6.289-29.56 16.456-39.728z" fill="url(#n)" opacity=".591"/>
   <path transform="matrix(0 .06124 .06124 0 -1.937 -12.077)" d="m650.39 225.17c-10.167 10.167-24.214 16.455-39.729 16.455s-29.561-6.288-39.729-16.456c-10.167-10.167-16.456-24.214-16.456-39.729s6.289-29.56 16.456-39.728z" fill="url(#m)" opacity="1"/>
   <path transform="matrix(0 .06124 .06124 0 -1.937 -12.077)" d="m650.39 225.17c-10.167 10.167-24.214 16.455-39.729 16.455s-29.561-6.288-39.729-16.456c-10.167-10.167-16.456-24.214-16.456-39.729s6.289-29.56 16.456-39.728z" fill="url(#n)" opacity=".591"/>
   <path transform="rotate(180 23.408 18.338) scale(.06124)" d="m650.39 225.17c-10.167 10.167-24.214 16.455-39.729 16.455s-29.561-6.288-39.729-16.456c-10.167-10.167-16.456-24.214-16.456-39.729s6.289-29.56 16.456-39.728z" fill="url(#m)" opacity="1"/>
   <path transform="rotate(180 23.408 18.338) scale(.06124)" d="m650.39 225.17c-10.167 10.167-24.214 16.455-39.729 16.455s-29.561-6.288-39.729-16.456c-10.167-10.167-16.456-24.214-16.456-39.729s6.289-29.56 16.456-39.728z" fill="url(#n)" opacity=".591"/>
   <path transform="matrix(0 -.06124 -.06124 0 20.776 62.717)" d="m650.39 225.17c-10.167 10.167-24.214 16.455-39.729 16.455s-29.561-6.288-39.729-16.456c-10.167-10.167-16.456-24.214-16.456-39.729s6.289-29.56 16.456-39.728z" fill="url(#m)" opacity="1"/>
   <path transform="matrix(0 -.06124 -.06124 0 20.776 62.717)" d="m650.39 225.17c-10.167 10.167-24.214 16.455-39.729 16.455s-29.561-6.288-39.729-16.456c-10.167-10.167-16.456-24.214-16.456-39.729s6.289-29.56 16.456-39.728z" fill="url(#n)" opacity=".591"/>
   <path transform="rotate(90 16.426 4.35) scale(.06124)" d="m650.39 225.17c-10.167 10.167-24.214 16.455-39.729 16.455s-29.561-6.288-39.729-16.456c-10.167-10.167-16.456-24.214-16.456-39.729s6.289-29.56 16.456-39.728z" fill="url(#m)" opacity="1"/>
   <path transform="rotate(90 16.426 4.35) scale(.06124)" d="m650.39 225.17c-10.167 10.167-24.214 16.455-39.729 16.455s-29.561-6.288-39.729-16.456c-10.167-10.167-16.456-24.214-16.456-39.729s6.289-29.56 16.456-39.728z" fill="url(#n)" opacity=".591"/>
   <path transform="matrix(-.06124 0 0 .06124 46.816 13.964)" d="m650.39 225.17c-10.167 10.167-24.214 16.455-39.729 16.455s-29.561-6.288-39.729-16.456c-10.167-10.167-16.456-24.214-16.456-39.729s6.289-29.56 16.456-39.728z" fill="url(#m)" opacity="1"/>
   <path transform="matrix(-.06124 0 0 .06124 46.816 13.964)" d="m650.39 225.17c-10.167 10.167-24.214 16.455-39.729 16.455s-29.561-6.288-39.729-16.456c-10.167-10.167-16.456-24.214-16.456-39.729s6.289-29.56 16.456-39.728z" fill="url(#n)" opacity=".591"/>
   <path transform="rotate(-90 30.39 32.327) scale(.06124)" d="m650.39 225.17c-10.167 10.167-24.214 16.455-39.729 16.455s-29.561-6.288-39.729-16.456c-10.167-10.167-16.456-24.214-16.456-39.729s6.289-29.56 16.456-39.728z" fill="url(#m)" opacity="1"/>
   <path transform="rotate(-90 30.39 32.327) scale(.06124)" d="m650.39 225.17c-10.167 10.167-24.214 16.455-39.729 16.455s-29.561-6.288-39.729-16.456c-10.167-10.167-16.456-24.214-16.456-39.729s6.289-29.56 16.456-39.728z" fill="url(#n)" opacity=".591"/>
   <path transform="matrix(.06124 0 0 -.06124 -27.978 36.676)" d="m650.39 225.17c-10.167 10.167-24.214 16.455-39.729 16.455s-29.561-6.288-39.729-16.456c-10.167-10.167-16.456-24.214-16.456-39.729s6.289-29.56 16.456-39.728z" fill="url(#m)" opacity="1"/>
   <path transform="matrix(.06124 0 0 -.06124 -27.978 36.676)" d="m650.39 225.17c-10.167 10.167-24.214 16.455-39.729 16.455s-29.561-6.288-39.729-16.456c-10.167-10.167-16.456-24.214-16.456-39.729s6.289-29.56 16.456-39.728z" fill="url(#n)" opacity=".591"/>
  </g>
  <path transform="translate(-34.156 21.869) scale(.06124)" d="m689.68 4.586a56.277 56.277 0 0 0-17.86 12.041 56.277 56.277 0 0 0-12.04 17.86l51.769 21.868zm21.869 51.77 51.77-21.87a56.277 56.277 0 0 0-12.042-17.859 56.277 56.277 0 0 0-17.859-12.041zm0 0 21.869 51.769a56.277 56.277 0 0 0 17.86-12.041 56.277 56.277 0 0 0 12.04-17.86zm0 0-51.77 21.869a56.277 56.277 0 0 0 12.041 17.859 56.277 56.277 0 0 0 17.86 12.041z" fill="url(#C)" fill-rule="evenodd" opacity=".668"/>
  <path transform="translate(-34.156 21.869) scale(.06124)" d="M767.732 56.356c0 15.515-6.29 29.561-16.457 39.728-10.167 10.168-24.213 16.457-39.728 16.457s-29.562-6.289-39.73-16.457c-10.167-10.167-16.455-24.213-16.455-39.728s6.288-29.562 16.456-39.73C681.985 6.46 696.032.172 711.547.172s29.56 6.288 39.728 16.456c10.168 10.167 16.457 24.214 16.457 39.729z" fill="url(#D)" fill-rule="evenodd"/>
 </g>
</svg>
