<?xml version="1.0" encoding="UTF-8"?>
<svg id="svg6" width="128" height="128" version="1.1" viewBox="0 0 33.867 33.867" xmlns="http://www.w3.org/2000/svg" xmlns:cc="http://creativecommons.org/ns#" xmlns:dc="http://purl.org/dc/elements/1.1/" xmlns:rdf="http://www.w3.org/1999/02/22-rdf-syntax-ns#" xmlns:xlink="http://www.w3.org/1999/xlink">
 <metadata id="metadata99">
  <rdf:RDF>
   <cc:Work rdf:about="">
    <dc:format>image/svg+xml</dc:format>
    <dc:type rdf:resource="http://purl.org/dc/dcmitype/StillImage"/>
    <dc:title/>
   </cc:Work>
  </rdf:RDF>
 </metadata>
 <defs id="defs2">
  <linearGradient id="linearGradient909" x1="318.56" x2="338.95" y1="43.832" y2="38.408" gradientTransform="matrix(.25 0 0 .25 -66.295 .29931)" gradientUnits="userSpaceOnUse">
   <stop id="stop903" stop-color="#f4587a" offset="0"/>
   <stop id="stop905" stop-color="#f15c7c" offset="1"/>
  </linearGradient>
  <linearGradient id="linearGradient936" x1="-27.206" x2="-27.206" y1="-1.3796" y2="25.268" gradientTransform="translate(43.871 5.6852)" gradientUnits="userSpaceOnUse">
   <stop id="stop930" stop-color="#f5f9fb" offset="0"/>
   <stop id="stop932" stop-color="#f9fafc" offset="1"/>
  </linearGradient>
  <linearGradient id="linearGradient906" x1="305.77" x2="361.42" y1="94.627" y2="35.21" gradientTransform="matrix(.94487 0 0 .94487 -250.56 1.1313)" gradientUnits="userSpaceOnUse">
   <stop id="stop895" stop-color="#f05c7c" offset="0"/>
   <stop id="stop908" stop-color="#ebc65e" offset=".4158"/>
   <stop id="stop910" stop-color="#eabd61" offset=".55425"/>
   <stop id="stop912" stop-color="#e9b365" offset=".6563"/>
   <stop id="stop897" stop-color="#d561e4" offset="1"/>
  </linearGradient>
 </defs>
 <g id="layer1">
  <g id="g1702" transform="matrix(.97573 0 0 .97573 -65.748 -37.203)" fill="none" opacity=".29677" stroke="#000" stroke-linecap="round" stroke-linejoin="round" stroke-opacity=".02">
   <rect id="rect1634" x="69.84" y="40.71" width="29.811" height="29.811" rx="6.6099" ry="6.6099" stroke-width=".1"/>
   <rect id="rect1638" x="69.84" y="40.71" width="29.811" height="29.811" rx="6.6099" ry="6.6099" stroke-width=".2"/>
   <rect id="rect1640" x="69.84" y="40.71" width="29.811" height="29.811" rx="6.6099" ry="6.6099" stroke-width=".3"/>
   <rect id="rect1642" x="69.84" y="40.71" width="29.811" height="29.811" rx="6.6099" ry="6.6099" stroke-width=".4"/>
   <rect id="rect1644" x="69.84" y="40.71" width="29.811" height="29.811" rx="6.6099" ry="6.6099" stroke-width=".5"/>
   <rect id="rect1646" x="69.84" y="40.71" width="29.811" height="29.811" rx="6.6099" ry="6.6099" stroke-width=".6"/>
   <rect id="rect1648" x="69.84" y="40.71" width="29.811" height="29.811" rx="6.6099" ry="6.6099" stroke-width=".7"/>
   <rect id="rect1650" x="69.84" y="40.71" width="29.811" height="29.811" rx="6.6099" ry="6.6099" stroke-width=".8"/>
   <rect id="rect1652" x="69.84" y="40.71" width="29.811" height="29.811" rx="6.6099" ry="6.6099"/>
   <rect id="rect1654" x="69.84" y="40.71" width="29.811" height="29.811" rx="6.6099" ry="6.6099" stroke-width="1.2"/>
   <rect id="rect1656" x="69.84" y="40.71" width="29.811" height="29.811" rx="6.6099" ry="6.6099" stroke-width="1.4"/>
   <rect id="rect1658" x="69.84" y="40.71" width="29.811" height="29.811" rx="6.6099" ry="6.6099" stroke-width="1.6"/>
   <rect id="rect1660" x="69.84" y="40.71" width="29.811" height="29.811" rx="6.6099" ry="6.6099" stroke-width="1.8"/>
   <rect id="rect1662" x="69.84" y="40.71" width="29.811" height="29.811" rx="6.6099" ry="6.6099" stroke-width="2"/>
   <rect id="rect1664" x="69.84" y="40.71" width="29.811" height="29.811" rx="6.6099" ry="6.6099" stroke-width="2.2"/>
   <rect id="rect1666" x="69.84" y="40.71" width="29.811" height="29.811" rx="6.6099" ry="6.6099" stroke-width="2.6"/>
   <rect id="rect1668" x="69.84" y="40.71" width="29.811" height="29.811" rx="6.6099" ry="6.6099" stroke-width="3"/>
   <rect id="rect1670" x="69.84" y="40.71" width="29.811" height="29.811" rx="6.6099" ry="6.6099" stroke-width="3.4"/>
   <rect id="rect1672" x="69.84" y="40.71" width="29.811" height="29.811" rx="6.6099" ry="6.6099" stroke-width="3.8"/>
   <rect id="rect1674" x="69.84" y="40.71" width="29.811" height="29.811" rx="6.6099" ry="6.6099" stroke-width="4.2"/>
   <rect id="rect1676" x="69.84" y="40.71" width="29.811" height="29.811" rx="6.6099" ry="6.6099" stroke-width="4.6"/>
   <rect id="rect1678" x="69.84" y="40.71" width="29.811" height="29.811" rx="6.6099" ry="6.6099" stroke-width="5"/>
  </g>
  <rect id="rect849-5" x="2.3963" y="2.5186" width="29.087" height="29.087" rx="6.4495" ry="6.4495" fill="url(#linearGradient936)" stroke-linecap="round" stroke-linejoin="round" stroke-width="2.6877"/>
  <g id="g1066" transform="matrix(.25 0 0 .25 -71.447 26.604)" fill="none" opacity=".538" stroke="#111214" stroke-linecap="round" stroke-linejoin="round" stroke-opacity=".011765">
   <path id="path863-2" d="m377.51-79.329c-0.7-0.01403-1.5775 0.10917-2.6758 0.35742l-18.199 3.6934-17.342 3.4258c-3.0722 0.65674-3.6682 2.3716-3.5957 5.082l0.0469 42.307c-0.13962 2.9735-0.46207 4.6051-3.8828 5.1523-12.106 1.8019-14.454 5.5523-14.381 10.883 0.0733 5.3088 4.3757 9.5625 10.307 8.9648 5.2013-0.57853 9.0759-2.0936 11.457-6.9043 0.92183-1.8119 1.2358-5.5812 1.0078-9.3965l-0.0488-33.652c0.01-2.3558-0.38947-3.667 2.7324-4.3145l16.35-3.2949 2.4434-0.49219v-0.0039l11.158-2.25c1.8145-0.36598 2.6677 0.2539 2.6953 2.3008l0.0488 25.145c-0.13962 2.9735-0.42887 4.3355-3.8496 4.8828-12.106 1.8019-14.49 5.8218-14.416 11.152 0.0733 5.3088 4.4441 9.293 10.375 8.6953 5.2013-0.57853 8.9412-1.9237 11.322-6.7344 0.92183-1.8119 0.9971-5.4118 1.0742-9.2949l-0.0312-51.482c-2e-3 -2.8955-0.4957-4.1786-2.5957-4.2207z" stroke-width=".1"/>
   <path id="path976" d="m377.51-79.329c-0.7-0.01403-1.5775 0.10917-2.6758 0.35742l-18.199 3.6934-17.342 3.4258c-3.0722 0.65674-3.6682 2.3716-3.5957 5.082l0.0469 42.307c-0.13962 2.9735-0.46207 4.6051-3.8828 5.1523-12.106 1.8019-14.454 5.5523-14.381 10.883 0.0733 5.3088 4.3757 9.5625 10.307 8.9648 5.2013-0.57853 9.0759-2.0936 11.457-6.9043 0.92183-1.8119 1.2358-5.5812 1.0078-9.3965l-0.0488-33.652c0.01-2.3558-0.38947-3.667 2.7324-4.3145l16.35-3.2949 2.4434-0.49219v-0.0039l11.158-2.25c1.8145-0.36598 2.6677 0.2539 2.6953 2.3008l0.0488 25.145c-0.13962 2.9735-0.42887 4.3355-3.8496 4.8828-12.106 1.8019-14.49 5.8218-14.416 11.152 0.0733 5.3088 4.4441 9.293 10.375 8.6953 5.2013-0.57853 8.9412-1.9237 11.322-6.7344 0.92183-1.8119 0.9971-5.4118 1.0742-9.2949l-0.0312-51.482c-2e-3 -2.8955-0.4957-4.1786-2.5957-4.2207z" stroke-width=".2"/>
   <path id="path978" d="m377.51-79.329c-0.7-0.01403-1.5775 0.10917-2.6758 0.35742l-18.199 3.6934-17.342 3.4258c-3.0722 0.65674-3.6682 2.3716-3.5957 5.082l0.0469 42.307c-0.13962 2.9735-0.46207 4.6051-3.8828 5.1523-12.106 1.8019-14.454 5.5523-14.381 10.883 0.0733 5.3088 4.3757 9.5625 10.307 8.9648 5.2013-0.57853 9.0759-2.0936 11.457-6.9043 0.92183-1.8119 1.2358-5.5812 1.0078-9.3965l-0.0488-33.652c0.01-2.3558-0.38947-3.667 2.7324-4.3145l16.35-3.2949 2.4434-0.49219v-0.0039l11.158-2.25c1.8145-0.36598 2.6677 0.2539 2.6953 2.3008l0.0488 25.145c-0.13962 2.9735-0.42887 4.3355-3.8496 4.8828-12.106 1.8019-14.49 5.8218-14.416 11.152 0.0733 5.3088 4.4441 9.293 10.375 8.6953 5.2013-0.57853 8.9412-1.9237 11.322-6.7344 0.92183-1.8119 0.9971-5.4118 1.0742-9.2949l-0.0312-51.482c-2e-3 -2.8955-0.4957-4.1786-2.5957-4.2207z" stroke-width=".3"/>
   <path id="path980" d="m377.51-79.329c-0.7-0.01403-1.5775 0.10917-2.6758 0.35742l-18.199 3.6934-17.342 3.4258c-3.0722 0.65674-3.6682 2.3716-3.5957 5.082l0.0469 42.307c-0.13962 2.9735-0.46207 4.6051-3.8828 5.1523-12.106 1.8019-14.454 5.5523-14.381 10.883 0.0733 5.3088 4.3757 9.5625 10.307 8.9648 5.2013-0.57853 9.0759-2.0936 11.457-6.9043 0.92183-1.8119 1.2358-5.5812 1.0078-9.3965l-0.0488-33.652c0.01-2.3558-0.38947-3.667 2.7324-4.3145l16.35-3.2949 2.4434-0.49219v-0.0039l11.158-2.25c1.8145-0.36598 2.6677 0.2539 2.6953 2.3008l0.0488 25.145c-0.13962 2.9735-0.42887 4.3355-3.8496 4.8828-12.106 1.8019-14.49 5.8218-14.416 11.152 0.0733 5.3088 4.4441 9.293 10.375 8.6953 5.2013-0.57853 8.9412-1.9237 11.322-6.7344 0.92183-1.8119 0.9971-5.4118 1.0742-9.2949l-0.0312-51.482c-2e-3 -2.8955-0.4957-4.1786-2.5957-4.2207z" stroke-width=".5"/>
   <path id="path982" d="m377.51-79.329c-0.7-0.01403-1.5775 0.10917-2.6758 0.35742l-18.199 3.6934-17.342 3.4258c-3.0722 0.65674-3.6682 2.3716-3.5957 5.082l0.0469 42.307c-0.13962 2.9735-0.46207 4.6051-3.8828 5.1523-12.106 1.8019-14.454 5.5523-14.381 10.883 0.0733 5.3088 4.3757 9.5625 10.307 8.9648 5.2013-0.57853 9.0759-2.0936 11.457-6.9043 0.92183-1.8119 1.2358-5.5812 1.0078-9.3965l-0.0488-33.652c0.01-2.3558-0.38947-3.667 2.7324-4.3145l16.35-3.2949 2.4434-0.49219v-0.0039l11.158-2.25c1.8145-0.36598 2.6677 0.2539 2.6953 2.3008l0.0488 25.145c-0.13962 2.9735-0.42887 4.3355-3.8496 4.8828-12.106 1.8019-14.49 5.8218-14.416 11.152 0.0733 5.3088 4.4441 9.293 10.375 8.6953 5.2013-0.57853 8.9412-1.9237 11.322-6.7344 0.92183-1.8119 0.9971-5.4118 1.0742-9.2949l-0.0312-51.482c-2e-3 -2.8955-0.4957-4.1786-2.5957-4.2207z" stroke-width=".7"/>
   <path id="path984" d="m377.51-79.329c-0.7-0.01403-1.5775 0.10917-2.6758 0.35742l-18.199 3.6934-17.342 3.4258c-3.0722 0.65674-3.6682 2.3716-3.5957 5.082l0.0469 42.307c-0.13962 2.9735-0.46207 4.6051-3.8828 5.1523-12.106 1.8019-14.454 5.5523-14.381 10.883 0.0733 5.3088 4.3757 9.5625 10.307 8.9648 5.2013-0.57853 9.0759-2.0936 11.457-6.9043 0.92183-1.8119 1.2358-5.5812 1.0078-9.3965l-0.0488-33.652c0.01-2.3558-0.38947-3.667 2.7324-4.3145l16.35-3.2949 2.4434-0.49219v-0.0039l11.158-2.25c1.8145-0.36598 2.6677 0.2539 2.6953 2.3008l0.0488 25.145c-0.13962 2.9735-0.42887 4.3355-3.8496 4.8828-12.106 1.8019-14.49 5.8218-14.416 11.152 0.0733 5.3088 4.4441 9.293 10.375 8.6953 5.2013-0.57853 8.9412-1.9237 11.322-6.7344 0.92183-1.8119 0.9971-5.4118 1.0742-9.2949l-0.0312-51.482c-2e-3 -2.8955-0.4957-4.1786-2.5957-4.2207z" stroke-width=".9"/>
   <path id="path986" d="m377.51-79.329c-0.7-0.01403-1.5775 0.10917-2.6758 0.35742l-18.199 3.6934-17.342 3.4258c-3.0722 0.65674-3.6682 2.3716-3.5957 5.082l0.0469 42.307c-0.13962 2.9735-0.46207 4.6051-3.8828 5.1523-12.106 1.8019-14.454 5.5523-14.381 10.883 0.0733 5.3088 4.3757 9.5625 10.307 8.9648 5.2013-0.57853 9.0759-2.0936 11.457-6.9043 0.92183-1.8119 1.2358-5.5812 1.0078-9.3965l-0.0488-33.652c0.01-2.3558-0.38947-3.667 2.7324-4.3145l16.35-3.2949 2.4434-0.49219v-0.0039l11.158-2.25c1.8145-0.36598 2.6677 0.2539 2.6953 2.3008l0.0488 25.145c-0.13962 2.9735-0.42887 4.3355-3.8496 4.8828-12.106 1.8019-14.49 5.8218-14.416 11.152 0.0733 5.3088 4.4441 9.293 10.375 8.6953 5.2013-0.57853 8.9412-1.9237 11.322-6.7344 0.92183-1.8119 0.9971-5.4118 1.0742-9.2949l-0.0312-51.482c-2e-3 -2.8955-0.4957-4.1786-2.5957-4.2207z" stroke-width="1.1"/>
   <path id="path988" d="m377.51-79.329c-0.7-0.01403-1.5775 0.10917-2.6758 0.35742l-18.199 3.6934-17.342 3.4258c-3.0722 0.65674-3.6682 2.3716-3.5957 5.082l0.0469 42.307c-0.13962 2.9735-0.46207 4.6051-3.8828 5.1523-12.106 1.8019-14.454 5.5523-14.381 10.883 0.0733 5.3088 4.3757 9.5625 10.307 8.9648 5.2013-0.57853 9.0759-2.0936 11.457-6.9043 0.92183-1.8119 1.2358-5.5812 1.0078-9.3965l-0.0488-33.652c0.01-2.3558-0.38947-3.667 2.7324-4.3145l16.35-3.2949 2.4434-0.49219v-0.0039l11.158-2.25c1.8145-0.36598 2.6677 0.2539 2.6953 2.3008l0.0488 25.145c-0.13962 2.9735-0.42887 4.3355-3.8496 4.8828-12.106 1.8019-14.49 5.8218-14.416 11.152 0.0733 5.3088 4.4441 9.293 10.375 8.6953 5.2013-0.57853 8.9412-1.9237 11.322-6.7344 0.92183-1.8119 0.9971-5.4118 1.0742-9.2949l-0.0312-51.482c-2e-3 -2.8955-0.4957-4.1786-2.5957-4.2207z" stroke-width="1.6"/>
   <path id="path990" d="m377.51-79.329c-0.7-0.01403-1.5775 0.10917-2.6758 0.35742l-18.199 3.6934-17.342 3.4258c-3.0722 0.65674-3.6682 2.3716-3.5957 5.082l0.0469 42.307c-0.13962 2.9735-0.46207 4.6051-3.8828 5.1523-12.106 1.8019-14.454 5.5523-14.381 10.883 0.0733 5.3088 4.3757 9.5625 10.307 8.9648 5.2013-0.57853 9.0759-2.0936 11.457-6.9043 0.92183-1.8119 1.2358-5.5812 1.0078-9.3965l-0.0488-33.652c0.01-2.3558-0.38947-3.667 2.7324-4.3145l16.35-3.2949 2.4434-0.49219v-0.0039l11.158-2.25c1.8145-0.36598 2.6677 0.2539 2.6953 2.3008l0.0488 25.145c-0.13962 2.9735-0.42887 4.3355-3.8496 4.8828-12.106 1.8019-14.49 5.8218-14.416 11.152 0.0733 5.3088 4.4441 9.293 10.375 8.6953 5.2013-0.57853 8.9412-1.9237 11.322-6.7344 0.92183-1.8119 0.9971-5.4118 1.0742-9.2949l-0.0312-51.482c-2e-3 -2.8955-0.4957-4.1786-2.5957-4.2207z" stroke-width="2.1"/>
   <path id="path992" d="m377.51-79.329c-0.7-0.01403-1.5775 0.10917-2.6758 0.35742l-18.199 3.6934-17.342 3.4258c-3.0722 0.65674-3.6682 2.3716-3.5957 5.082l0.0469 42.307c-0.13962 2.9735-0.46207 4.6051-3.8828 5.1523-12.106 1.8019-14.454 5.5523-14.381 10.883 0.0733 5.3088 4.3757 9.5625 10.307 8.9648 5.2013-0.57853 9.0759-2.0936 11.457-6.9043 0.92183-1.8119 1.2358-5.5812 1.0078-9.3965l-0.0488-33.652c0.01-2.3558-0.38947-3.667 2.7324-4.3145l16.35-3.2949 2.4434-0.49219v-0.0039l11.158-2.25c1.8145-0.36598 2.6677 0.2539 2.6953 2.3008l0.0488 25.145c-0.13962 2.9735-0.42887 4.3355-3.8496 4.8828-12.106 1.8019-14.49 5.8218-14.416 11.152 0.0733 5.3088 4.4441 9.293 10.375 8.6953 5.2013-0.57853 8.9412-1.9237 11.322-6.7344 0.92183-1.8119 0.9971-5.4118 1.0742-9.2949l-0.0312-51.482c-2e-3 -2.8955-0.4957-4.1786-2.5957-4.2207z" stroke-width="2.6"/>
   <path id="path994" d="m377.51-79.329c-0.7-0.01403-1.5775 0.10917-2.6758 0.35742l-18.199 3.6934-17.342 3.4258c-3.0722 0.65674-3.6682 2.3716-3.5957 5.082l0.0469 42.307c-0.13962 2.9735-0.46207 4.6051-3.8828 5.1523-12.106 1.8019-14.454 5.5523-14.381 10.883 0.0733 5.3088 4.3757 9.5625 10.307 8.9648 5.2013-0.57853 9.0759-2.0936 11.457-6.9043 0.92183-1.8119 1.2358-5.5812 1.0078-9.3965l-0.0488-33.652c0.01-2.3558-0.38947-3.667 2.7324-4.3145l16.35-3.2949 2.4434-0.49219v-0.0039l11.158-2.25c1.8145-0.36598 2.6677 0.2539 2.6953 2.3008l0.0488 25.145c-0.13962 2.9735-0.42887 4.3355-3.8496 4.8828-12.106 1.8019-14.49 5.8218-14.416 11.152 0.0733 5.3088 4.4441 9.293 10.375 8.6953 5.2013-0.57853 8.9412-1.9237 11.322-6.7344 0.92183-1.8119 0.9971-5.4118 1.0742-9.2949l-0.0312-51.482c-2e-3 -2.8955-0.4957-4.1786-2.5957-4.2207z" stroke-width="3.1"/>
   <path id="path996" d="m377.51-79.329c-0.7-0.01403-1.5775 0.10917-2.6758 0.35742l-18.199 3.6934-17.342 3.4258c-3.0722 0.65674-3.6682 2.3716-3.5957 5.082l0.0469 42.307c-0.13962 2.9735-0.46207 4.6051-3.8828 5.1523-12.106 1.8019-14.454 5.5523-14.381 10.883 0.0733 5.3088 4.3757 9.5625 10.307 8.9648 5.2013-0.57853 9.0759-2.0936 11.457-6.9043 0.92183-1.8119 1.2358-5.5812 1.0078-9.3965l-0.0488-33.652c0.01-2.3558-0.38947-3.667 2.7324-4.3145l16.35-3.2949 2.4434-0.49219v-0.0039l11.158-2.25c1.8145-0.36598 2.6677 0.2539 2.6953 2.3008l0.0488 25.145c-0.13962 2.9735-0.42887 4.3355-3.8496 4.8828-12.106 1.8019-14.49 5.8218-14.416 11.152 0.0733 5.3088 4.4441 9.293 10.375 8.6953 5.2013-0.57853 8.9412-1.9237 11.322-6.7344 0.92183-1.8119 0.9971-5.4118 1.0742-9.2949l-0.0312-51.482c-2e-3 -2.8955-0.4957-4.1786-2.5957-4.2207z" stroke-width="3.9"/>
   <path id="path998" d="m377.51-79.329c-0.7-0.01403-1.5775 0.10917-2.6758 0.35742l-18.199 3.6934-17.342 3.4258c-3.0722 0.65674-3.6682 2.3716-3.5957 5.082l0.0469 42.307c-0.13962 2.9735-0.46207 4.6051-3.8828 5.1523-12.106 1.8019-14.454 5.5523-14.381 10.883 0.0733 5.3088 4.3757 9.5625 10.307 8.9648 5.2013-0.57853 9.0759-2.0936 11.457-6.9043 0.92183-1.8119 1.2358-5.5812 1.0078-9.3965l-0.0488-33.652c0.01-2.3558-0.38947-3.667 2.7324-4.3145l16.35-3.2949 2.4434-0.49219v-0.0039l11.158-2.25c1.8145-0.36598 2.6677 0.2539 2.6953 2.3008l0.0488 25.145c-0.13962 2.9735-0.42887 4.3355-3.8496 4.8828-12.106 1.8019-14.49 5.8218-14.416 11.152 0.0733 5.3088 4.4441 9.293 10.375 8.6953 5.2013-0.57853 8.9412-1.9237 11.322-6.7344 0.92183-1.8119 0.9971-5.4118 1.0742-9.2949l-0.0312-51.482c-2e-3 -2.8955-0.4957-4.1786-2.5957-4.2207z" stroke-width="4.7"/>
   <path id="path1000" d="m377.51-79.329c-0.7-0.01403-1.5775 0.10917-2.6758 0.35742l-18.199 3.6934-17.342 3.4258c-3.0722 0.65674-3.6682 2.3716-3.5957 5.082l0.0469 42.307c-0.13962 2.9735-0.46207 4.6051-3.8828 5.1523-12.106 1.8019-14.454 5.5523-14.381 10.883 0.0733 5.3088 4.3757 9.5625 10.307 8.9648 5.2013-0.57853 9.0759-2.0936 11.457-6.9043 0.92183-1.8119 1.2358-5.5812 1.0078-9.3965l-0.0488-33.652c0.01-2.3558-0.38947-3.667 2.7324-4.3145l16.35-3.2949 2.4434-0.49219v-0.0039l11.158-2.25c1.8145-0.36598 2.6677 0.2539 2.6953 2.3008l0.0488 25.145c-0.13962 2.9735-0.42887 4.3355-3.8496 4.8828-12.106 1.8019-14.49 5.8218-14.416 11.152 0.0733 5.3088 4.4441 9.293 10.375 8.6953 5.2013-0.57853 8.9412-1.9237 11.322-6.7344 0.92183-1.8119 0.9971-5.4118 1.0742-9.2949l-0.0312-51.482c-2e-3 -2.8955-0.4957-4.1786-2.5957-4.2207z" stroke-width="5.5"/>
   <path id="path1002" d="m377.51-79.329c-0.7-0.01403-1.5775 0.10917-2.6758 0.35742l-18.199 3.6934-17.342 3.4258c-3.0722 0.65674-3.6682 2.3716-3.5957 5.082l0.0469 42.307c-0.13962 2.9735-0.46207 4.6051-3.8828 5.1523-12.106 1.8019-14.454 5.5523-14.381 10.883 0.0733 5.3088 4.3757 9.5625 10.307 8.9648 5.2013-0.57853 9.0759-2.0936 11.457-6.9043 0.92183-1.8119 1.2358-5.5812 1.0078-9.3965l-0.0488-33.652c0.01-2.3558-0.38947-3.667 2.7324-4.3145l16.35-3.2949 2.4434-0.49219v-0.0039l11.158-2.25c1.8145-0.36598 2.6677 0.2539 2.6953 2.3008l0.0488 25.145c-0.13962 2.9735-0.42887 4.3355-3.8496 4.8828-12.106 1.8019-14.49 5.8218-14.416 11.152 0.0733 5.3088 4.4441 9.293 10.375 8.6953 5.2013-0.57853 8.9412-1.9237 11.322-6.7344 0.92183-1.8119 0.9971-5.4118 1.0742-9.2949l-0.0312-51.482c-2e-3 -2.8955-0.4957-4.1786-2.5957-4.2207z" stroke-width="6.5"/>
   <path id="path1004" d="m377.51-79.329c-0.7-0.01403-1.5775 0.10917-2.6758 0.35742l-18.199 3.6934-17.342 3.4258c-3.0722 0.65674-3.6682 2.3716-3.5957 5.082l0.0469 42.307c-0.13962 2.9735-0.46207 4.6051-3.8828 5.1523-12.106 1.8019-14.454 5.5523-14.381 10.883 0.0733 5.3088 4.3757 9.5625 10.307 8.9648 5.2013-0.57853 9.0759-2.0936 11.457-6.9043 0.92183-1.8119 1.2358-5.5812 1.0078-9.3965l-0.0488-33.652c0.01-2.3558-0.38947-3.667 2.7324-4.3145l16.35-3.2949 2.4434-0.49219v-0.0039l11.158-2.25c1.8145-0.36598 2.6677 0.2539 2.6953 2.3008l0.0488 25.145c-0.13962 2.9735-0.42887 4.3355-3.8496 4.8828-12.106 1.8019-14.49 5.8218-14.416 11.152 0.0733 5.3088 4.4441 9.293 10.375 8.6953 5.2013-0.57853 8.9412-1.9237 11.322-6.7344 0.92183-1.8119 0.9971-5.4118 1.0742-9.2949l-0.0312-51.482c-2e-3 -2.8955-0.4957-4.1786-2.5957-4.2207z" stroke-width="7.5"/>
   <path id="path1006" d="m377.51-79.329c-0.7-0.01403-1.5775 0.10917-2.6758 0.35742l-18.199 3.6934-17.342 3.4258c-3.0722 0.65674-3.6682 2.3716-3.5957 5.082l0.0469 42.307c-0.13962 2.9735-0.46207 4.6051-3.8828 5.1523-12.106 1.8019-14.454 5.5523-14.381 10.883 0.0733 5.3088 4.3757 9.5625 10.307 8.9648 5.2013-0.57853 9.0759-2.0936 11.457-6.9043 0.92183-1.8119 1.2358-5.5812 1.0078-9.3965l-0.0488-33.652c0.01-2.3558-0.38947-3.667 2.7324-4.3145l16.35-3.2949 2.4434-0.49219v-0.0039l11.158-2.25c1.8145-0.36598 2.6677 0.2539 2.6953 2.3008l0.0488 25.145c-0.13962 2.9735-0.42887 4.3355-3.8496 4.8828-12.106 1.8019-14.49 5.8218-14.416 11.152 0.0733 5.3088 4.4441 9.293 10.375 8.6953 5.2013-0.57853 8.9412-1.9237 11.322-6.7344 0.92183-1.8119 0.9971-5.4118 1.0742-9.2949l-0.0312-51.482c-2e-3 -2.8955-0.4957-4.1786-2.5957-4.2207z" stroke-width="9"/>
   <path id="path1008" d="m377.51-79.329c-0.7-0.01403-1.5775 0.10917-2.6758 0.35742l-18.199 3.6934-17.342 3.4258c-3.0722 0.65674-3.6682 2.3716-3.5957 5.082l0.0469 42.307c-0.13962 2.9735-0.46207 4.6051-3.8828 5.1523-12.106 1.8019-14.454 5.5523-14.381 10.883 0.0733 5.3088 4.3757 9.5625 10.307 8.9648 5.2013-0.57853 9.0759-2.0936 11.457-6.9043 0.92183-1.8119 1.2358-5.5812 1.0078-9.3965l-0.0488-33.652c0.01-2.3558-0.38947-3.667 2.7324-4.3145l16.35-3.2949 2.4434-0.49219v-0.0039l11.158-2.25c1.8145-0.36598 2.6677 0.2539 2.6953 2.3008l0.0488 25.145c-0.13962 2.9735-0.42887 4.3355-3.8496 4.8828-12.106 1.8019-14.49 5.8218-14.416 11.152 0.0733 5.3088 4.4441 9.293 10.375 8.6953 5.2013-0.57853 8.9412-1.9237 11.322-6.7344 0.92183-1.8119 0.9971-5.4118 1.0742-9.2949l-0.0312-51.482c-2e-3 -2.8955-0.4957-4.1786-2.5957-4.2207z" stroke-width="10.5"/>
  </g>
  <path id="path863" d="m18.168 7.6943-4.7939 0.94679c-0.76804 0.16418-0.91698 0.59278-0.89885 1.2704l0.012 10.576c-0.03491 0.74336-0.11559 1.1515-0.97076 1.2884-3.0265 0.45047-3.6139 1.3879-3.5954 2.7205 0.018325 1.3272 1.094 2.3906 2.5767 2.2411 1.3003-0.14463 2.2691-0.52314 2.8643-1.7258 0.23045-0.45297 0.30867-1.3952 0.25168-2.349l-0.01197-8.4132c0.0025-0.58893-0.09733-0.91677 0.68313-1.0786l4.698-0.94679z" fill="url(#linearGradient909)"/>
  <path id="path865" transform="scale(.26458)" d="m86.658 25.594c-0.66141-0.013255-1.4915 0.10528-2.5293 0.33984l-17.275 3.5059-16.305 3.2188c-2.9028 0.62053-3.467 2.2417-3.3984 4.8027l0.046875 39.975c-0.13194 2.8096-0.43778 4.352-3.6699 4.8691-11.439 1.7025-13.657 5.2446-13.588 10.281 0.06926 5.0161 4.1343 9.0355 9.7383 8.4707 4.9146-0.54664 8.5763-1.978 10.826-6.5234 0.87101-1.712 1.1666-5.272 0.95117-8.877l-0.044922-31.799c0.009449-2.2259-0.36968-3.4644 2.5801-4.0762l15.447-3.1133 2.3105-0.46484v-0.003906l10.541-2.127c1.7145-0.34579 2.5227 0.24175 2.5488 2.1758l0.044921 23.758c-0.1319 2.8096-0.40457 4.0962-3.6367 4.6133-11.439 1.7025-13.691 5.5024-13.621 10.539 0.069279 5.0161 4.1988 8.7776 9.8027 8.2129 4.9146-0.54663 8.4474-1.8159 10.697-6.3613 0.87101-1.712 0.94276-5.1142 1.0156-8.7832l-0.029297-48.643c-0.001417-2.7358-0.4689-3.9505-2.4531-3.9902z" fill="url(#linearGradient906)"/>
  <path id="path949" transform="scale(.26458)" d="m82.891 43.361c-0.18623 0.013251-0.38726 0.040761-0.60156 0.083984l-10.541 2.127v0.003906l-2.3105 0.46484-15.447 3.1133c-2.5042 0.51933-2.6036 1.5323-2.584 3.1758 0.041473-1.2928 0.39388-2.0946 2.584-2.5488l15.447-3.1133 2.3105-0.46484v-0.003906l10.541-2.127c1.7145-0.34579 2.5227 0.24175 2.5488 2.1758l0.042968 23.148c2.97e-4 -0.006275 0.001658-0.011288 0.001953-0.017578l-0.044921-23.758c-0.022836-1.6923-0.64365-2.3525-1.9473-2.2598zm6.25 34.254c-0.072762 3.6629-0.14589 7.0581-1.0156 8.7676-2.2498 4.5455-5.7827 5.8147-10.697 6.3613-5.5552 0.55983-9.6564-3.1334-9.7949-8.084-0.003132 0.16583-0.010142 0.32941-0.007812 0.49805 0.069279 5.0161 4.1988 8.7776 9.8027 8.2129 4.9146-0.54663 8.4474-1.8159 10.697-6.3613 0.87101-1.712 0.94276-5.1142 1.0156-8.7832v-0.61133zm-37.629 10.352c-0.052128 2.4907-0.3776 4.7007-1.0078 5.9395-2.2498 4.5455-5.9116 5.9768-10.826 6.5234-5.5538 0.5597-9.5912-3.3846-9.7305-8.3379-0.003011 0.16434-0.010129 0.32648-0.007813 0.49414 0.06926 5.0161 4.1343 9.0355 9.7383 8.4707 4.9146-0.54664 8.5763-1.978 10.826-6.5234 0.68243-1.3413 1.0009-3.8234 1.0078-6.5664z" fill-opacity=".15745"/>
  <path id="path963" transform="scale(.26458)" d="m86.658 25.594c-0.66141-0.013255-1.4915 0.10528-2.5293 0.33984l-17.275 3.5059-16.305 3.2188c-2.9028 0.62053-3.467 2.2417-3.3984 4.8027v0.35352c-0.059625-2.5315 0.51496-4.1375 3.3984-4.7539l16.305-3.2188 17.275-3.5059c1.0377-0.23457 1.8679-0.35311 2.5293-0.33984 1.9842 0.039765 2.4517 1.2544 2.4531 3.9902v-0.40234c-0.001417-2.7358-0.4689-3.9505-2.4531-3.9902zm-35.254 27.154c-0.013431 0.44485 0.008266 0.94468 0.005859 1.5117v-0.40234c0.001759-0.41425-0.004663-0.76119-0.005859-1.1094zm33.479 17.27c-0.13213 2.8009-0.40936 4.0852-3.6367 4.6016-11.439 1.7025-13.691 5.5024-13.621 10.539 3.84e-4 0.02779 0.005227 0.054319 0.005859 0.082031 0.032863-4.8757 2.423-8.5529 13.615-10.219 3.2321-0.5171 3.5048-1.8037 3.6367-4.6133v-0.39062zm-37.686 7.4258c-0.13216 2.8043-0.44094 4.3447-3.6699 4.8613-11.439 1.7025-13.657 5.2446-13.588 10.281 3.92e-4 0.028392 0.005212 0.055656 0.005859 0.083984 0.031299-4.8654 2.3893-8.2969 13.582-9.9629 3.2321-0.5171 3.538-2.0596 3.6699-4.8691v-0.39453zm4.2578 8.2129v0.40234c0.049196 0.82339 0.063477 1.6403 0.058594 2.4375 0.016524-0.92139-0.001112-1.8778-0.058594-2.8398z" fill-opacity=".12194"/>
  <path id="path970" transform="scale(.26458)" d="m86.658 25.594c-0.66141-0.013255-1.4915 0.10528-2.5293 0.33984l-17.275 3.5059-16.305 3.2188c-2.9028 0.62053-3.467 2.2417-3.3984 4.8027v0.77344c-0.04889-2.4963 0.53816-4.0839 3.3984-4.6953l16.305-3.2188 17.275-3.5059c1.0377-0.23456 1.8679-0.35311 2.5293-0.33984 1.9842 0.039766 2.4517 1.2544 2.4531 3.9902v-0.88086c-0.001417-2.7358-0.4689-3.9505-2.4531-3.9902zm-35.252 27.604c-0.015502 0.45243 0.006369 0.96079 0.003906 1.541l0.044922 31.799c0.043678 0.73103 0.051616 1.4518 0.052734 2.1641 0.023881-0.98459 0.009084-2.0103-0.052734-3.0449l-0.044922-31.799c0.001047-0.24651-4.7e-4 -0.43738-0.003906-0.66016zm33.475 16.834c-0.13241 2.7907-0.41305 4.0725-3.6348 4.5879-11.439 1.7025-13.691 5.5024-13.621 10.539 8.4e-4 0.060849 0.009688 0.11921 0.011719 0.17969 0.15727-4.6856 2.7111-8.2158 13.609-9.8379 3.2321-0.5171 3.5048-1.8037 3.6367-4.6133l-0.001953-0.85547zm-37.686 7.4199c-0.13238 2.799-0.4422 4.3374-3.668 4.8535-11.439 1.7025-13.657 5.2446-13.588 10.281 8.66e-4 0.062701 0.009609 0.12316 0.011719 0.18555 0.153-4.6658 2.6745-7.9633 13.576-9.5859 3.2321-0.5171 3.538-2.0596 3.6699-4.8691l-0.001954-0.86523z" fill-opacity=".18674"/>
  <path id="path968" transform="scale(.26458)" d="m86.658 25.594c-0.66141-0.013255-1.4915 0.10528-2.5293 0.33984l-17.275 3.5059-16.305 3.2188c-2.9028 0.62053-3.467 2.2417-3.3984 4.8027l0.001953 1.3984c-0.03342-2.4462 0.56948-4.007 3.3965-4.6113l16.305-3.2188 17.275-3.5059c1.0377-0.23457 1.8679-0.35311 2.5293-0.33984 1.9842 0.039765 2.4517 1.2544 2.4531 3.9902v-1.5898c-0.001417-2.7358-0.4689-3.9505-2.4531-3.9902zm-35.248 28.268c-0.018819 0.46337 0.002546 0.98633 0 1.5859l0.044922 31.799c0.035518 0.59446 0.035527 1.1758 0.042969 1.7598 0.036423-1.076 0.025291-2.2072-0.042969-3.3496l-0.044922-31.795zm33.471 16.191c-0.13288 2.7749-0.42183 4.0524-3.6348 4.5664-11.439 1.7025-13.691 5.5024-13.621 10.539 0.002256 0.16336 0.02047 0.32183 0.03125 0.48242 0.29281-4.4838 3.0076-7.8566 13.59-9.4316 3.2321-0.5171 3.5048-1.8037 3.6367-4.6133l-0.001953-1.543zm-37.686 7.4121c-0.13277 2.7899-0.44774 4.3246-3.668 4.8398-11.439 1.7025-13.657 5.2446-13.588 10.281 0.002288 0.16567 0.020334 0.32687 0.03125 0.49023 0.28763-4.4522 2.9722-7.6062 13.557-9.1816 3.2321-0.5171 3.538-2.0596 3.6699-4.8691l-0.001954-1.5605z" fill-opacity=".19949"/>
 </g>
</svg>
