<?xml version="1.0" encoding="UTF-8"?>
<svg id="svg6" width="128" height="128" version="1.1" viewBox="0 0 33.867 33.867" xmlns="http://www.w3.org/2000/svg" xmlns:cc="http://creativecommons.org/ns#" xmlns:dc="http://purl.org/dc/elements/1.1/" xmlns:rdf="http://www.w3.org/1999/02/22-rdf-syntax-ns#" xmlns:xlink="http://www.w3.org/1999/xlink">
 <metadata id="metadata170">
  <rdf:RDF>
   <cc:Work rdf:about="">
    <dc:format>image/svg+xml</dc:format>
    <dc:type rdf:resource="http://purl.org/dc/dcmitype/StillImage"/>
    <dc:title/>
   </cc:Work>
  </rdf:RDF>
 </metadata>
 <defs id="defs2">
  <linearGradient id="linearGradient1632" x1="132.21" x2="132.21" y1="42.152" y2="70.68" gradientUnits="userSpaceOnUse">
   <stop id="stop1626" stop-color="#f8fcfc" offset="0"/>
   <stop id="stop1628" stop-color="#d7e1f4" offset="1"/>
  </linearGradient>
  <linearGradient id="linearGradient4564" x1="179.01" x2="178.91" y1="86.676" y2="106.81" gradientTransform="translate(31.394 -1.7627)" gradientUnits="userSpaceOnUse">
   <stop id="stop4558" stop-color="#fff" offset="0"/>
   <stop id="stop4560" stop-color="#eae9e9" offset="1"/>
  </linearGradient>
  <linearGradient id="linearGradient4159" x1="68.619" x2="68.619" y1="123.62" y2="7.4113" gradientTransform="matrix(.25827 0 0 .25827 52.554 44.68)" gradientUnits="userSpaceOnUse">
   <stop id="stop4548" stop-color="#121419" offset="0"/>
   <stop id="stop4550" stop-color="#1c2225" offset="1"/>
  </linearGradient>
 </defs>
 <g id="layer1">
  <g id="g1792" transform="matrix(.97573 0 0 .97573 -111.78 -37.203)">
   <g id="g1702" transform="translate(47.173)" fill="none" opacity=".20513" stroke="#000" stroke-linecap="round" stroke-linejoin="round" stroke-opacity=".02">
    <rect id="rect1634" x="69.84" y="40.71" width="29.811" height="29.811" rx="6.6099" ry="6.6099" stroke-width=".1"/>
    <rect id="rect1638" x="69.84" y="40.71" width="29.811" height="29.811" rx="6.6099" ry="6.6099" stroke-width=".2"/>
    <rect id="rect1640" x="69.84" y="40.71" width="29.811" height="29.811" rx="6.6099" ry="6.6099" stroke-width=".3"/>
    <rect id="rect1642" x="69.84" y="40.71" width="29.811" height="29.811" rx="6.6099" ry="6.6099" stroke-width=".4"/>
    <rect id="rect1644" x="69.84" y="40.71" width="29.811" height="29.811" rx="6.6099" ry="6.6099" stroke-width=".5"/>
    <rect id="rect1646" x="69.84" y="40.71" width="29.811" height="29.811" rx="6.6099" ry="6.6099" stroke-width=".6"/>
    <rect id="rect1648" x="69.84" y="40.71" width="29.811" height="29.811" rx="6.6099" ry="6.6099" stroke-width=".7"/>
    <rect id="rect1650" x="69.84" y="40.71" width="29.811" height="29.811" rx="6.6099" ry="6.6099" stroke-width=".8"/>
    <rect id="rect1652" x="69.84" y="40.71" width="29.811" height="29.811" rx="6.6099" ry="6.6099"/>
    <rect id="rect1654" x="69.84" y="40.71" width="29.811" height="29.811" rx="6.6099" ry="6.6099" stroke-width="1.2"/>
    <rect id="rect1656" x="69.84" y="40.71" width="29.811" height="29.811" rx="6.6099" ry="6.6099" stroke-width="1.4"/>
    <rect id="rect1658" x="69.84" y="40.71" width="29.811" height="29.811" rx="6.6099" ry="6.6099" stroke-width="1.6"/>
    <rect id="rect1660" x="69.84" y="40.71" width="29.811" height="29.811" rx="6.6099" ry="6.6099" stroke-width="1.8"/>
    <rect id="rect1662" x="69.84" y="40.71" width="29.811" height="29.811" rx="6.6099" ry="6.6099" stroke-width="2"/>
    <rect id="rect1664" x="69.84" y="40.71" width="29.811" height="29.811" rx="6.6099" ry="6.6099" stroke-width="2.2"/>
    <rect id="rect1666" x="69.84" y="40.71" width="29.811" height="29.811" rx="6.6099" ry="6.6099" stroke-width="2.6"/>
    <rect id="rect1668" x="69.84" y="40.71" width="29.811" height="29.811" rx="6.6099" ry="6.6099" stroke-width="3"/>
    <rect id="rect1670" x="69.84" y="40.71" width="29.811" height="29.811" rx="6.6099" ry="6.6099" stroke-width="3.4"/>
    <rect id="rect1672" x="69.84" y="40.71" width="29.811" height="29.811" rx="6.6099" ry="6.6099" stroke-width="3.8"/>
    <rect id="rect1674" x="69.84" y="40.71" width="29.811" height="29.811" rx="6.6099" ry="6.6099" stroke-width="4.2"/>
    <rect id="rect1676" x="69.84" y="40.71" width="29.811" height="29.811" rx="6.6099" ry="6.6099" stroke-width="4.6"/>
    <rect id="rect1678" x="69.84" y="40.71" width="29.811" height="29.811" rx="6.6099" ry="6.6099" stroke-width="5"/>
   </g>
   <rect id="rect849" x="117.01" y="40.71" width="29.811" height="29.811" rx="6.6099" ry="6.6099" fill="url(#linearGradient1632)" stroke-linecap="round" stroke-linejoin="round" stroke-width="2.7545"/>
   <g id="g1809" transform="matrix(.752 0 0 .752 80.768 10.472)">
    <g id="g1771" transform="matrix(.29261 0 0 .29261 49.111 41.253)">
     <circle id="circle1753" cx="64.614" cy="64.171" r="57.029"/>
     <g id="g1763" transform="translate(-143.05 -4.9857)">
      <g id="g1759" transform="translate(-24.407 -3.7966)">
       <path id="path1755" d="m224.95 94.78-3.3898-42.034 18.983 40.407z"/>
       <path id="path1757" d="m221.56 52.746 18.983 40.407-8.4244 1.1868z"/>
      </g>
      <circle id="circle1761" cx="209.44" cy="95.077" r="11.122" style="paint-order:fill markers stroke"/>
     </g>
     <path id="path1765" d="m72.976 12.681-11.697 2.4941s-0.15287 10.168-0.17774 12.049a3.4996 2.9003 0 0 0-1.5488-0.30469 3.4996 2.9003 0 0 0-3.5 2.9004 3.4996 2.9003 0 0 0 3.5 2.9004 3.4996 2.9003 0 0 0 3.498-2.8789l2e-3 2e-3v-0.02344l0.09571-9.5645 7.3828-1.6777 0.11523 6.6426a3.4996 2.9003 0 0 0-1.1699-0.16992 3.4996 2.9003 0 0 0-3.5 2.9004 3.4996 2.9003 0 0 0 3.5 2.9004 3.4996 2.9003 0 0 0 3.498-2.877h0.0019zm21.955 16.146c-5.444-2e-6 -9.8848 4.4407-9.8848 9.8848 0 5.444 4.4408 9.8848 9.8848 9.8848 5.444 2e-6 9.8867-4.4407 9.8867-9.8848 0-5.444-4.4427-9.8848-9.8867-9.8848zm-61.961 0.20508c-0.92432 0-1.807 0.12322-2.6465 0.36914-0.83952 0.23744-1.6242 0.57662-2.3535 1.0176-0.72928 0.43248-1.3888 0.9539-1.9824 1.5645-0.5851 0.60208-1.0864 1.2688-1.502 1.998-0.41551 0.72928-0.73784 1.5056-0.9668 2.3281-0.22896 0.82256-0.34375 1.6695-0.34375 2.543 0 1.5688 0.26007 2.9813 0.77734 4.2363 0.52576 1.255 1.2495 2.318 2.1738 3.1914 0.92432 0.88192 2.0229 1.557 3.2949 2.0234 1.272 0.47488 2.654 0.71289 4.1465 0.71289 1.467 0 2.7732-0.179 3.918-0.53516 1.1448-0.35616 2.1318-0.81013 2.9629-1.3613l-0.43164-1.1562c-0.07632-0.19504-0.20278-0.31826-0.38086-0.36914-0.16959-0.05935-0.36546-0.02564-0.58594 0.10156-0.27985 0.16112-0.6054 0.31287-0.97851 0.45703-0.36464 0.15264-0.77646 0.28429-1.2344 0.39453-0.44943 0.11873-0.95076 0.21342-1.502 0.28125-0.54272 0.07632-1.1316 0.11328-1.7676 0.11328-1.1363 0-2.196-0.17381-3.1797-0.52148-0.98368-0.3392-1.8358-0.84376-2.5566-1.5137-0.7208-0.6784-1.2896-1.5221-1.7051-2.5312-0.40704-1.0091-0.60937-2.1836-0.60937-3.5234 0-1.0854 0.18548-2.0978 0.55859-3.0391 0.3816-0.94976 0.90303-1.7734 1.5644-2.4688 0.66144-0.70384 1.4462-1.2538 2.3535-1.6523 0.91583-0.39856 1.9081-0.59961 2.9766-0.59961 0.98368 0 1.8832 0.13684 2.6973 0.4082 0.81408 0.27136 1.5125 0.67798 2.0976 1.2207 0.58513 0.53424 1.0391 1.2042 1.3613 2.0098 0.33073 0.79712 0.4961 1.7219 0.4961 2.7734 0 0.62752-0.06421 1.2028-0.19141 1.7285-0.12721 0.52576-0.30101 0.97973-0.52148 1.3613-0.22049 0.3816-0.4786 0.68382-0.77539 0.9043-0.29681 0.212-0.61069 0.31836-0.94141 0.31836-0.22047 0-0.41958-0.03568-0.59766-0.10352-0.1696-0.07632-0.30125-0.20278-0.39453-0.38086-0.09328-0.18656-0.13867-0.43624-0.13867-0.75 0-0.32224 0.06225-0.73406 0.18945-1.2344l1.1836-4.5918c-0.43249-0.18656-0.87803-0.32664-1.3359-0.41992-0.44943-0.10176-1.0046-0.15234-1.666-0.15234-0.73775-1e-6 -1.4129 0.08431-2.0234 0.25391-0.60208 0.1696-1.1436 0.39918-1.627 0.6875-0.47488 0.28832-0.89512 0.63074-1.2598 1.0293-0.35616 0.39008-0.65319 0.81033-0.89063 1.2598-0.23743 0.44096-0.41447 0.90336-0.5332 1.3867-0.11872 0.47488-0.17969 0.94571-0.17969 1.4121 0 0.5088 0.06421 0.98287 0.19141 1.4238 0.1272 0.43248 0.31786 0.81058 0.57226 1.1328 0.26288 0.31376 0.5904 0.56344 0.98047 0.75 0.39008 0.17808 0.84404 0.26758 1.3613 0.26758 0.61903 0 1.1995-0.12322 1.7422-0.36914s1.0557-0.65774 1.5391-1.2344c0.18656 0.57664 0.49526 0.99365 0.92774 1.248 0.43248 0.24592 0.9286 0.36914 1.4883 0.36914 0.74623 0 1.4382-0.16214 2.0742-0.48438 0.63599-0.33072 1.1827-0.7795 1.6406-1.3477 0.4664-0.56816 0.83087-1.2349 1.0938-1.998s0.39453-1.5849 0.39453-2.4668c0-0.87344-0.1148-1.6886-0.34375-2.4434-0.22048-0.7632-0.53437-1.4584-0.94141-2.0859-0.39855-0.62752-0.87781-1.1827-1.4375-1.666-0.55966-0.49184-1.1706-0.9069-1.832-1.2461-0.66144-0.3392-1.3651-0.59407-2.1113-0.76367-0.74624-0.17808-1.5089-0.26758-2.2891-0.26758zm61.961 2.3945c4.0389-1e-6 7.2852 3.2463 7.2852 7.2852 0 4.0389-3.2463 7.2852-7.2852 7.2852-4.0389 0-7.2852-3.2463-7.2852-7.2852 0-4.0389 3.2463-7.2852 7.2852-7.2852zm-1.2383 1.7188v6.9023h5.3144v-2h-3.3144v-4.9023zm-59.795 3.0488c0.1272 0 0.25041 0.0084 0.36914 0.02539 0.1272 0.0085 0.25043 0.02211 0.36914 0.03906l-0.87695 3.4336c-0.10177 0.39856-0.23018 0.72931-0.38282 0.99219-0.15264 0.2544-0.32125 0.46193-0.50781 0.62305-0.18656 0.15265-0.38242 0.26225-0.58594 0.33008-0.20352 0.05936-0.40586 0.08984-0.60937 0.08984-0.40704 0-0.72093-0.14008-0.94141-0.41992-0.21201-0.27984-0.31836-0.6748-0.31836-1.1836 0-0.51728 0.0895-1.0134 0.26758-1.4883 0.18657-0.47488 0.43624-0.88994 0.75-1.2461 0.31375-0.36464 0.68343-0.65324 1.1074-0.86524 0.42401-0.22048 0.87603-0.33008 1.3594-0.33008zm-14.895 20.053c-1.0237 8.51e-4 -2.1944 1.0924-1.5898 2.4082l3.5215 6.5898h-4.9824c-0.37605-0.01127-0.88671-0.83465-0.88671-1.1172 0-0.571-0.46025-1.0312-1.0312-1.0312h-1.1035c-0.571 0-1.0293 0.46024-1.0293 1.0312v8.1973c0 0.57101 0.4583 1.0312 1.0293 1.0312h1.1035c0.571 0 1.0312-0.46024 1.0312-1.0312 3e-3 -0.3659 0.64496-1.1184 0.88671-1.1172h4.9824l-3.5215 6.5898c-0.80608 1.7544 1.5434 3.1106 2.4941 2.0137l7.0781-8.6035h4.6856c1.6333 0 2.9492-1.3159 2.9492-2.9492v-0.06445c0-1.6333-1.3159-2.9492-2.9492-2.9492h-4.6856l-7.0781-8.6035c-0.23768-0.27423-0.56305-0.39482-0.90429-0.39453zm85.867 2.2188c-3.4686-6.53e-4 -6.2808 2.8107-6.2812 6.2793 3e-3 0.2023 0.01501 0.40436 0.03711 0.60547-2.1474 0.36928-3.7754 2.2207-3.7754 4.4766 0 2.5231 2.0316 4.5547 4.5547 4.5547h12.225c3.0808 0 5.5606-2.4798 5.5606-5.5605 0-3.0808-2.4798-5.5605-5.5606-5.5605h-0.66602c-0.68421-2.8112-3.2005-4.7912-6.0938-4.7949z" fill-opacity=".81439" style="paint-order:fill markers stroke"/>
    </g>
    <g id="g1789" transform="translate(-1.2233 -1.2233)">
     <circle id="circle4157" cx="69.241" cy="61.253" r="15.464" fill="url(#linearGradient4159)"/>
     <g id="g4578" transform="matrix(.27116 0 0 .27116 12.93 42.501)">
      <g id="g4572" transform="translate(-24.407 -3.7966)">
       <path id="path4566" d="m224.95 94.78-3.3898-42.034 18.983 40.407z" fill="#cc1414"/>
       <path id="path4568" d="m221.56 52.746 18.983 40.407-8.4244 1.1868z" fill="#fc4d4a"/>
      </g>
      <circle id="path4556" cx="209.44" cy="95.077" r="11.122" fill="url(#linearGradient4564)" style="paint-order:fill markers stroke"/>
     </g>
     <path id="rect4580" d="m71.509 47.291-3.1719 0.67632s-0.04145 2.7572-0.0482 3.2672a0.94896 0.78647 0 0 0-0.41999-0.08262 0.94896 0.78647 0 0 0-0.94907 0.78648 0.94896 0.78647 0 0 0 0.94907 0.78648 0.94896 0.78647 0 0 0 0.94854-0.78066l5.42e-4 5.42e-4v-0.0064l0.02595-2.5935 2.002-0.45494 0.03125 1.8012a0.94896 0.78647 0 0 0-0.31724-0.04608 0.94896 0.78647 0 0 0-0.94907 0.78648 0.94896 0.78647 0 0 0 0.94907 0.78648 0.94896 0.78647 0 0 0 0.94854-0.78013h5.15e-4zm5.9534 4.3783c-1.4762 0-2.6804 1.2042-2.6804 2.6804 0 1.4762 1.2042 2.6804 2.6804 2.6804 1.4762 0 2.6809-1.2042 2.6809-2.6804s-1.2047-2.6804-2.6809-2.6804zm-16.802 0.05561c-0.25064 0-0.48998 0.03341-0.71763 0.1001-0.22765 0.06439-0.44044 0.15636-0.63819 0.27593-0.19775 0.11727-0.3766 0.25866-0.53756 0.42422-0.15866 0.16326-0.2946 0.34404-0.40728 0.5418-0.11267 0.19775-0.20008 0.40826-0.26216 0.6313-0.06209 0.22305-0.09321 0.45272-0.09321 0.68956 0 0.4254 0.07052 0.80842 0.21079 1.1487 0.14257 0.34032 0.33882 0.62855 0.58946 0.86539 0.25064 0.23914 0.54855 0.42221 0.89347 0.54868 0.34492 0.12877 0.71967 0.19331 1.1244 0.19331 0.39781 0 0.75198-0.04854 1.0624-0.14512 0.31043-0.09658 0.57808-0.21968 0.80343-0.36914l-0.11704-0.31353c-0.0207-0.05289-0.05499-0.0863-0.10328-0.1001-0.04599-0.01609-0.0991-7e-3 -0.15889 0.02754-0.07588 0.04369-0.16416 0.08484-0.26534 0.12393-0.09888 0.04139-0.21055 0.07709-0.33472 0.10698-0.12187 0.03219-0.25781 0.05787-0.40727 0.07626-0.14717 0.0207-0.30684 0.03072-0.4793 0.03072-0.30813 0-0.59548-0.04713-0.86222-0.14141-0.26674-0.09198-0.49781-0.2288-0.69327-0.41045-0.19546-0.18396-0.34968-0.41275-0.46236-0.68638-0.11038-0.27364-0.16524-0.59212-0.16524-0.95543 0-0.29433 0.05029-0.56884 0.15147-0.82408 0.10348-0.25754 0.24487-0.48088 0.42422-0.66944 0.17936-0.19086 0.39215-0.33998 0.63819-0.44806 0.24834-0.10807 0.5174-0.16259 0.80714-0.16259 0.26674 0 0.51066 0.03711 0.7314 0.11069 0.22075 0.07358 0.41015 0.18384 0.56881 0.33101 0.15867 0.14486 0.28177 0.32653 0.36914 0.54498 0.08968 0.21615 0.13452 0.46692 0.13452 0.75206 0 0.17016-0.01741 0.32614-0.0519 0.46871-0.03449 0.14257-0.08162 0.26567-0.14141 0.36914-0.05979 0.10348-0.12978 0.18543-0.21026 0.24521-0.08048 0.05749-0.1656 0.08633-0.25528 0.08633-0.05978 0-0.11378-0.0097-0.16206-0.02807-0.04599-0.02069-0.08169-0.05499-0.10698-0.10328-0.02529-0.05059-0.0376-0.11829-0.0376-0.20337 0-0.08738 0.01688-0.19905 0.05137-0.33472l0.32095-1.2451c-0.11728-0.05059-0.23809-0.08857-0.36226-0.11387-0.12187-0.02759-0.2724-0.04131-0.45176-0.04131-0.20005 0-0.38312 0.02286-0.54868 0.06885-0.16326 0.04599-0.3101 0.10824-0.44117 0.18642-0.12877 0.07818-0.24272 0.17103-0.3416 0.27911-0.09658 0.10578-0.17712 0.21973-0.24151 0.3416-0.06438 0.11957-0.11239 0.24496-0.14458 0.37603-0.03219 0.12877-0.04872 0.25644-0.04872 0.38291 0 0.13797 0.01741 0.26652 0.0519 0.38609 0.03449 0.11727 0.08619 0.2198 0.15518 0.30718 0.07128 0.08508 0.1601 0.15278 0.26587 0.20337 0.10578 0.04829 0.22887 0.07256 0.36914 0.07256 0.16786 0 0.32525-0.03341 0.47242-0.1001 0.14717-0.06668 0.28627-0.17836 0.41734-0.33472 0.05059 0.15636 0.1343 0.26944 0.25157 0.33842 0.11727 0.06668 0.2518 0.1001 0.40357 0.1001 0.20235 0 0.38999-0.04397 0.56245-0.13134 0.17246-0.08968 0.3207-0.21137 0.44488-0.36544 0.12647-0.15406 0.2253-0.33485 0.29658-0.5418 0.07128-0.20695 0.10698-0.42976 0.10698-0.66891 0-0.23684-0.03113-0.4579-0.09321-0.66255-0.05979-0.20695-0.1449-0.39547-0.25528-0.56563-0.10807-0.17016-0.23803-0.32069-0.3898-0.45176-0.15176-0.13337-0.31742-0.24592-0.49678-0.3379-0.17936-0.09198-0.37017-0.16109-0.57251-0.20708-0.20235-0.04829-0.40916-0.07256-0.62071-0.07256zm16.802 0.64931c1.0952 0 1.9755 0.88028 1.9755 1.9755s-0.88027 1.9755-1.9755 1.9755c-1.0952 0-1.9755-0.88028-1.9755-1.9755s0.88028-1.9755 1.9755-1.9755zm-0.33578 0.46606v1.8717h1.4411v-0.54233h-0.89876v-1.3293zm-16.214 0.82673c0.03449 0 0.0679 0.0023 0.1001 0.0069 0.03449 0.0023 0.06791 6e-3 0.1001 0.01059l-0.2378 0.93107c-0.0276 0.10807-0.06242 0.19776-0.10381 0.26904-0.04139 0.06898-0.08711 0.12526-0.1377 0.16895-0.05059 0.04139-0.1037 0.07111-0.15889 0.0895-0.05519 0.0161-0.11006 0.02436-0.16524 0.02436-0.11038 0-0.19549-0.03799-0.25528-0.11387-0.05749-0.07588-0.08633-0.18298-0.08633-0.32095 0-0.14027 0.02427-0.2748 0.07256-0.40357 0.05059-0.12877 0.11829-0.24132 0.20337-0.3379 0.08508-0.09888 0.18532-0.17713 0.30029-0.23462 0.11498-0.05979 0.23755-0.08951 0.36862-0.08951zm-4.0389 5.4376c-0.2776 2.31e-4 -0.59504 0.29623-0.43111 0.65302l0.9549 1.7869h-1.3511c-0.10197-0.0031-0.24044-0.22633-0.24044-0.30294 0-0.15484-0.1248-0.27964-0.27964-0.27964h-0.29924c-0.15484 0-0.27911 0.1248-0.27911 0.27964v2.2228c0 0.15484 0.12427 0.27964 0.27911 0.27964h0.29924c0.15483 0 0.27964-0.1248 0.27964-0.27964 8.13e-4 -0.09922 0.17489-0.30326 0.24044-0.30294h1.3511l-0.9549 1.7869c-0.21858 0.47572 0.41851 0.84348 0.67632 0.54604l1.9193-2.333h1.2706c0.4429 0 0.79972-0.35682 0.79972-0.79972v-0.01748c0-0.4429-0.35682-0.79972-0.79972-0.79972h-1.2706l-1.9193-2.333c-0.06445-0.07436-0.15268-0.10706-0.24521-0.10698zm23.284 0.60164c-0.94054-1.77e-4 -1.7031 0.76217-1.7032 1.7027 8.14e-4 0.05486 0.0041 0.10965 0.01006 0.16418-0.58229 0.10013-1.0237 0.60217-1.0237 1.2139 0 0.68416 0.55091 1.2351 1.2351 1.2351h3.3149c0.8354 0 1.5078-0.67242 1.5078-1.5078 0-0.8354-0.67242-1.5078-1.5078-1.5078h-0.1806c-0.18553-0.7623-0.86786-1.2992-1.6524-1.3002z" fill="#fff" fill-opacity=".81439" style="paint-order:fill markers stroke"/>
    </g>
   </g>
  </g>
 </g>
</svg>
