<?xml version="1.0" encoding="UTF-8"?>
<svg id="svg6" width="128" height="128" version="1.1" viewBox="0 0 33.867 33.867" xmlns="http://www.w3.org/2000/svg" xmlns:cc="http://creativecommons.org/ns#" xmlns:dc="http://purl.org/dc/elements/1.1/" xmlns:rdf="http://www.w3.org/1999/02/22-rdf-syntax-ns#" xmlns:xlink="http://www.w3.org/1999/xlink">
 <metadata id="metadata170">
  <rdf:RDF>
   <cc:Work rdf:about="">
    <dc:format>image/svg+xml</dc:format>
    <dc:type rdf:resource="http://purl.org/dc/dcmitype/StillImage"/>
    <dc:title/>
   </cc:Work>
  </rdf:RDF>
 </metadata>
 <defs id="defs2">
  <linearGradient id="linearGradient1632" x1="132.21" x2="132.21" y1="42.152" y2="70.68" gradientTransform="matrix(.97573 0 0 .97573 -111.78 -37.203)" gradientUnits="userSpaceOnUse">
   <stop id="stop1626" stop-color="#a8e47b" offset="0"/>
   <stop id="stop1628" stop-color="#20b597" offset="1"/>
  </linearGradient>
  <linearGradient id="linearGradient1092" x1="18.567" x2="18.567" y1="57.795" y2="13.448" gradientUnits="userSpaceOnUse">
   <stop id="stop1086" stop-color="#2bb995" offset="0"/>
   <stop id="stop1088" stop-color="#fff" offset="1"/>
  </linearGradient>
 </defs>
 <g id="layer1">
  <g id="g1702" transform="matrix(.97573 0 0 .97573 -65.748 -37.203)" fill="none" opacity=".20513" stroke="#000" stroke-linecap="round" stroke-linejoin="round" stroke-opacity=".02">
   <rect id="rect1634" x="69.84" y="40.71" width="29.811" height="29.811" rx="6.6099" ry="6.6099" stroke-width=".1"/>
   <rect id="rect1638" x="69.84" y="40.71" width="29.811" height="29.811" rx="6.6099" ry="6.6099" stroke-width=".2"/>
   <rect id="rect1640" x="69.84" y="40.71" width="29.811" height="29.811" rx="6.6099" ry="6.6099" stroke-width=".3"/>
   <rect id="rect1642" x="69.84" y="40.71" width="29.811" height="29.811" rx="6.6099" ry="6.6099" stroke-width=".4"/>
   <rect id="rect1644" x="69.84" y="40.71" width="29.811" height="29.811" rx="6.6099" ry="6.6099" stroke-width=".5"/>
   <rect id="rect1646" x="69.84" y="40.71" width="29.811" height="29.811" rx="6.6099" ry="6.6099" stroke-width=".6"/>
   <rect id="rect1648" x="69.84" y="40.71" width="29.811" height="29.811" rx="6.6099" ry="6.6099" stroke-width=".7"/>
   <rect id="rect1650" x="69.84" y="40.71" width="29.811" height="29.811" rx="6.6099" ry="6.6099" stroke-width=".8"/>
   <rect id="rect1652" x="69.84" y="40.71" width="29.811" height="29.811" rx="6.6099" ry="6.6099"/>
   <rect id="rect1654" x="69.84" y="40.71" width="29.811" height="29.811" rx="6.6099" ry="6.6099" stroke-width="1.2"/>
   <rect id="rect1656" x="69.84" y="40.71" width="29.811" height="29.811" rx="6.6099" ry="6.6099" stroke-width="1.4"/>
   <rect id="rect1658" x="69.84" y="40.71" width="29.811" height="29.811" rx="6.6099" ry="6.6099" stroke-width="1.6"/>
   <rect id="rect1660" x="69.84" y="40.71" width="29.811" height="29.811" rx="6.6099" ry="6.6099" stroke-width="1.8"/>
   <rect id="rect1662" x="69.84" y="40.71" width="29.811" height="29.811" rx="6.6099" ry="6.6099" stroke-width="2"/>
   <rect id="rect1664" x="69.84" y="40.71" width="29.811" height="29.811" rx="6.6099" ry="6.6099" stroke-width="2.2"/>
   <rect id="rect1666" x="69.84" y="40.71" width="29.811" height="29.811" rx="6.6099" ry="6.6099" stroke-width="2.6"/>
   <rect id="rect1668" x="69.84" y="40.71" width="29.811" height="29.811" rx="6.6099" ry="6.6099" stroke-width="3"/>
   <rect id="rect1670" x="69.84" y="40.71" width="29.811" height="29.811" rx="6.6099" ry="6.6099" stroke-width="3.4"/>
   <rect id="rect1672" x="69.84" y="40.71" width="29.811" height="29.811" rx="6.6099" ry="6.6099" stroke-width="3.8"/>
   <rect id="rect1674" x="69.84" y="40.71" width="29.811" height="29.811" rx="6.6099" ry="6.6099" stroke-width="4.2"/>
   <rect id="rect1676" x="69.84" y="40.71" width="29.811" height="29.811" rx="6.6099" ry="6.6099" stroke-width="4.6"/>
   <rect id="rect1678" x="69.84" y="40.71" width="29.811" height="29.811" rx="6.6099" ry="6.6099" stroke-width="5"/>
  </g>
  <rect id="rect849" x="2.3963" y="2.5186" width="29.087" height="29.087" rx="6.4495" ry="6.4495" fill="url(#linearGradient1632)" stroke-linecap="round" stroke-linejoin="round" stroke-width="2.6877"/>
  <g id="g1096" transform="matrix(1.0248 0 0 1.0248 .10434 .25512)" fill="#0e6400" fill-opacity=".29635">
   <path id="path1094" d="m16.916 7.5996a0.69084 0.69084 0 0 0-0.37838 0.12922l-10.235 7.31a0.69084 0.69084 0 0 0 0.40194 1.2522h0.77176v8.8207c0 0.34944 0.11937 0.67227 0.34269 0.93882 0.22331 0.26656 0.58609 0.47477 0.99879 0.47477h16.243c0.8254 0 1.3469-0.71348 1.3415-1.4193v-8.8149h0.77176a0.69084 0.69084 0 0 0 0.40194-1.2522l-10.235-7.31a0.69084 0.69084 0 0 0-0.38338-0.12922 0.69084 0.69084 0 0 0-0.04213 0zm0.83673 9.384a1.0966 1.0966 0 0 1 1.0966 1.0966 1.0966 1.0966 0 0 1-1.0966 1.0966 1.0966 1.0966 0 0 1-1.0966-1.0966 1.0966 1.0966 0 0 1 1.0966-1.0966zm2.9243 0a1.0966 1.0966 0 0 1 1.0966 1.0966 1.0966 1.0966 0 0 1-1.0966 1.0966 1.0966 1.0966 0 0 1-1.0966-1.0966 1.0966 1.0966 0 0 1 1.0966-1.0966zm2.9243 0a1.0966 1.0966 0 0 1 1.0966 1.0966 1.0966 1.0966 0 0 1-1.0966 1.0966 1.0966 1.0966 0 0 1-1.0966-1.0966 1.0966 1.0966 0 0 1 1.0966-1.0966zm-5.8485 2.9243a1.0966 1.0966 0 0 1 1.0966 1.0966 1.0966 1.0966 0 0 1-1.0966 1.0966 1.0966 1.0966 0 0 1-1.0966-1.0966 1.0966 1.0966 0 0 1 1.0966-1.0966zm2.9243 0a1.0966 1.0966 0 0 1 1.0966 1.0966 1.0966 1.0966 0 0 1-1.0966 1.0966 1.0966 1.0966 0 0 1-1.0966-1.0966 1.0966 1.0966 0 0 1 1.0966-1.0966zm2.9243 0a1.0966 1.0966 0 0 1 1.0966 1.0966 1.0966 1.0966 0 0 1-1.0966 1.0966 1.0966 1.0966 0 0 1-1.0966-1.0966 1.0966 1.0966 0 0 1 1.0966-1.0966zm-5.8485 2.9243a1.0966 1.0966 0 0 1 1.0966 1.0966 1.0966 1.0966 0 0 1-1.0966 1.0966 1.0966 1.0966 0 0 1-1.0966-1.0966 1.0966 1.0966 0 0 1 1.0966-1.0966zm2.9243 0a1.0966 1.0966 0 0 1 1.0966 1.0966 1.0966 1.0966 0 0 1-1.0966 1.0966 1.0966 1.0966 0 0 1-1.0966-1.0966 1.0966 1.0966 0 0 1 1.0966-1.0966zm2.9243 0a1.0966 1.0966 0 0 1 1.0966 1.0966 1.0966 1.0966 0 0 1-1.0966 1.0966 1.0966 1.0966 0 0 1-1.0966-1.0966 1.0966 1.0966 0 0 1 1.0966-1.0966z" color="#000000" color-rendering="auto" dominant-baseline="auto" fill="#0e6400" fill-opacity=".29635" image-rendering="auto" shape-rendering="auto" solid-color="#000000" stop-color="#000000" style="font-feature-settings:normal;font-variant-alternates:normal;font-variant-caps:normal;font-variant-east-asian:normal;font-variant-ligatures:normal;font-variant-numeric:normal;font-variant-position:normal;font-variation-settings:normal;inline-size:0;isolation:auto;mix-blend-mode:normal;shape-margin:0;shape-padding:0;text-decoration-color:#000000;text-decoration-line:none;text-decoration-style:solid;text-indent:0;text-orientation:mixed;text-transform:none;white-space:normal"/>
  </g>
  <g id="path4" fill="url(#linearGradient1092)">
   <path id="path1080" d="m16.916 7.5996a0.69084 0.69084 0 0 0-0.37838 0.12922l-10.235 7.31a0.69084 0.69084 0 0 0 0.40194 1.2522h0.77176v8.8207c0 0.34944 0.11937 0.67227 0.34269 0.93882 0.22331 0.26656 0.58609 0.47477 0.99879 0.47477h16.243c0.8254 0 1.3469-0.71348 1.3415-1.4193v-8.8149h0.77176a0.69084 0.69084 0 0 0 0.40194-1.2522l-10.235-7.31a0.69084 0.69084 0 0 0-0.38338-0.12922 0.69084 0.69084 0 0 0-0.04213 0zm0.83673 9.384a1.0966 1.0966 0 0 1 1.0966 1.0966 1.0966 1.0966 0 0 1-1.0966 1.0966 1.0966 1.0966 0 0 1-1.0966-1.0966 1.0966 1.0966 0 0 1 1.0966-1.0966zm2.9243 0a1.0966 1.0966 0 0 1 1.0966 1.0966 1.0966 1.0966 0 0 1-1.0966 1.0966 1.0966 1.0966 0 0 1-1.0966-1.0966 1.0966 1.0966 0 0 1 1.0966-1.0966zm2.9243 0a1.0966 1.0966 0 0 1 1.0966 1.0966 1.0966 1.0966 0 0 1-1.0966 1.0966 1.0966 1.0966 0 0 1-1.0966-1.0966 1.0966 1.0966 0 0 1 1.0966-1.0966zm-5.8485 2.9243a1.0966 1.0966 0 0 1 1.0966 1.0966 1.0966 1.0966 0 0 1-1.0966 1.0966 1.0966 1.0966 0 0 1-1.0966-1.0966 1.0966 1.0966 0 0 1 1.0966-1.0966zm2.9243 0a1.0966 1.0966 0 0 1 1.0966 1.0966 1.0966 1.0966 0 0 1-1.0966 1.0966 1.0966 1.0966 0 0 1-1.0966-1.0966 1.0966 1.0966 0 0 1 1.0966-1.0966zm2.9243 0a1.0966 1.0966 0 0 1 1.0966 1.0966 1.0966 1.0966 0 0 1-1.0966 1.0966 1.0966 1.0966 0 0 1-1.0966-1.0966 1.0966 1.0966 0 0 1 1.0966-1.0966zm-5.8485 2.9243a1.0966 1.0966 0 0 1 1.0966 1.0966 1.0966 1.0966 0 0 1-1.0966 1.0966 1.0966 1.0966 0 0 1-1.0966-1.0966 1.0966 1.0966 0 0 1 1.0966-1.0966zm2.9243 0a1.0966 1.0966 0 0 1 1.0966 1.0966 1.0966 1.0966 0 0 1-1.0966 1.0966 1.0966 1.0966 0 0 1-1.0966-1.0966 1.0966 1.0966 0 0 1 1.0966-1.0966zm2.9243 0a1.0966 1.0966 0 0 1 1.0966 1.0966 1.0966 1.0966 0 0 1-1.0966 1.0966 1.0966 1.0966 0 0 1-1.0966-1.0966 1.0966 1.0966 0 0 1 1.0966-1.0966z" color="#000000" color-rendering="auto" dominant-baseline="auto" fill="url(#linearGradient1092)" image-rendering="auto" shape-rendering="auto" solid-color="#000000" stop-color="#000000" style="font-feature-settings:normal;font-variant-alternates:normal;font-variant-caps:normal;font-variant-east-asian:normal;font-variant-ligatures:normal;font-variant-numeric:normal;font-variant-position:normal;font-variation-settings:normal;inline-size:0;isolation:auto;mix-blend-mode:normal;shape-margin:0;shape-padding:0;text-decoration-color:#000000;text-decoration-line:none;text-decoration-style:solid;text-indent:0;text-orientation:mixed;text-transform:none;white-space:normal"/>
  </g>
 </g>
</svg>
