<?xml version="1.0" encoding="UTF-8"?>
<svg id="svg40" width="64" height="64" version="1.1" viewBox="0 0 16.933 16.933" xmlns="http://www.w3.org/2000/svg" xmlns:cc="http://creativecommons.org/ns#" xmlns:dc="http://purl.org/dc/elements/1.1/" xmlns:rdf="http://www.w3.org/1999/02/22-rdf-syntax-ns#" xmlns:xlink="http://www.w3.org/1999/xlink">
 <metadata id="metadata2">
  <rdf:RDF>
   <cc:Work rdf:about="">
    <dc:format>image/svg+xml</dc:format>
    <dc:type rdf:resource="http://purl.org/dc/dcmitype/StillImage"/>
    <dc:title/>
   </cc:Work>
  </rdf:RDF>
 </metadata>
 <defs id="defs8">
  <style id="style4" type="text/css"/>
  <style id="style6" type="text/css"/>
  <style id="style14" type="text/css"/>
  <style id="style16" type="text/css"/>
  <filter id="filter1057" x="-.027" y="-.027" width="1.054" height="1.054" color-interpolation-filters="sRGB">
   <feGaussianBlur id="feGaussianBlur1059" stdDeviation="0.61875"/>
  </filter>
  <linearGradient id="linearGradient1053" x1="-127" x2="-127" y1="60" y2="5" gradientTransform="matrix(.26458 0 0 .26458 34.792 -.13493)" gradientUnits="userSpaceOnUse">
   <stop id="stop1047" stop-color="#dee0e2" offset="0"/>
   <stop id="stop1049" stop-color="#f1f3f5" stop-opacity=".99608" offset="1"/>
  </linearGradient>
 </defs>
 <rect id="rect1055" transform="scale(.26458)" x="4.5" y="4.5" width="55" height="55" ry="15" fill="#141414" filter="url(#filter1057)" opacity=".3" stroke-linecap="round" stroke-width="2.7444"/>
 <rect id="rect1045" x="1.1906" y="1.1906" width="14.552" height="14.552" ry="3.9687" fill="url(#linearGradient1053)" stroke-linecap="round" stroke-width=".7261"/>
 <circle id="circle10" cx="-330.38" cy="-328.5" r="0" fill="#5e4aa6" stroke-width=".26458"/>
 <circle id="circle16" cx="-39.462" cy="6.3115" r="0" fill="#5e4aa6" fill-rule="evenodd" stroke-width=".26458"/>
 <g id="g38" transform="matrix(.33072 0 0 .33072 .1985 .52922)" stroke-width=".8">
  <rect id="rect18" x="21" y="20" width="5" height="8" fill="#e9e9f8"/>
  <path id="path20" d="m17 16v2h2v-2zm0 2h-2v2h2zm-2 2h-2v8h2zm0 8v2h2v-2zm2 2v2h2v-2zm0 2h-2v2h2zm-2 2h-2v2h2zm13-18v2h2v-2zm2 2v2h2v-2zm2 2v6h-9v2h12v-2h-1v-6zm3 8v4h2v-4zm0 4h-12v2h4v2h4v-2h4zm-12 0v-4h-2v4z" fill="#351135"/>
  <path id="path22" d="m19 12v2h-2v2h2v2h9v-4h-2v-2z" fill="#684fc9"/>
  <rect id="rect24" x="20" y="14" width="6" height="2" fill="#e9e9f8"/>
  <path id="path26" d="m17 18v2h2v-2zm0 2h-2v8h2v2h2v2h-2v2h5v2h5v-2h-4v-2h-2v-5h-2v-2h-2zm6 12h12v-2h-9v-2h-3v2zm-6 2h-2v2h2zm11-16v2h2v-2z" fill="#996000"/>
  <path id="path28" d="m19 18v2h-2v5h2v2h2v-7h5v6h2v-8h-2zm-2 16v2h5v-2z" fill="#f8c123"/>
  <rect id="rect30" x="26" y="28" width="9" height="2" fill="#f88107"/>
  <rect id="rect32" x="24" y="21" width="2" height="4" fill="#684fc9"/>
  <rect id="rect34" x="28" y="20" width="4" height="6" fill="#e9e9f8"/>
  <rect id="rect36" x="28" y="21" width="2" height="4" fill="#684fc9"/>
 </g>
 <circle id="circle41" cx="-353.42" cy="-342.27" r="0" fill="#5e4aa6" stroke-width=".26458"/>
 <circle id="circle43" cx="-62.507" cy="-7.4552" r="0" fill="#5e4aa6" fill-rule="evenodd" stroke-width=".26458"/>
</svg>
