<?xml version="1.0" encoding="UTF-8"?>
<svg id="svg35" width="64" height="64" version="1.1" viewBox="0 0 16.933 16.933" xmlns="http://www.w3.org/2000/svg" xmlns:cc="http://creativecommons.org/ns#" xmlns:dc="http://purl.org/dc/elements/1.1/" xmlns:rdf="http://www.w3.org/1999/02/22-rdf-syntax-ns#" xmlns:xlink="http://www.w3.org/1999/xlink">
 <metadata id="metadata2">
  <rdf:RDF>
   <cc:Work rdf:about="">
    <dc:format>image/svg+xml</dc:format>
    <dc:type rdf:resource="http://purl.org/dc/dcmitype/StillImage"/>
    <dc:title/>
   </cc:Work>
  </rdf:RDF>
 </metadata>
 <defs id="defs11">
  <style id="style9" type="text/css"/>
  <filter id="filter1057" x="-.027" y="-.027" width="1.054" height="1.054" color-interpolation-filters="sRGB">
   <feGaussianBlur id="feGaussianBlur1059" stdDeviation="0.61875"/>
  </filter>
  <linearGradient id="linearGradient1053" x1="-127" x2="-127" y1="60" y2="5" gradientTransform="matrix(.26458 0 0 .26458 34.792 -.13493)" gradientUnits="userSpaceOnUse">
   <stop id="stop1047" stop-color="#ff8021" offset="0"/>
   <stop id="stop1049" stop-color="#ffa53c" offset="1"/>
  </linearGradient>
 </defs>
 <rect id="rect1055" transform="scale(.26458)" x="4.5" y="4.5" width="55" height="55" ry="15" fill="#141414" filter="url(#filter1057)" opacity=".3" stroke-linecap="round" stroke-width="2.7444"/>
 <rect id="rect1045" x="1.1906" y="1.1906" width="14.552" height="14.552" ry="3.9687" fill="url(#linearGradient1053)" stroke-linecap="round" stroke-width=".7261"/>
 <circle id="circle23" cx="-349.36" cy="-343.81" r="0" fill="#5e4aa6" stroke-width=".26458"/>
 <g id="g33" transform="translate(-18.998 -15.44)" fill="#5e4aa6" stroke-width=".26458">
  <circle id="circle25" cx="-299.02" cy="-338.77" r="0"/>
  <circle id="circle27" cx="-8.1062" cy="-3.9487" r="0" fill-rule="evenodd"/>
  <circle id="circle29" cx="-278.25" cy="-357.69" r="0"/>
  <circle id="circle31" cx="12.663" cy="-22.859" r="0" fill-rule="evenodd"/>
 </g>
 <circle id="circle860" cx="-330.35" cy="-328.38" r="0" fill="#5e4aa6" stroke-width=".26458"/>
 <circle id="circle866" cx="-39.434" cy="6.44" r="0" fill="#5e4aa6" fill-rule="evenodd" stroke-width=".26458"/>
 <g id="g876" transform="translate(-40.279 -8.6753)" fill="#5e4aa6" stroke-width=".26458">
  <circle id="circle868" cx="-330.35" cy="-328.38" r="0"/>
  <circle id="circle870" cx="-312.11" cy="-326.25" r="0"/>
  <circle id="circle872" cx="-306.02" cy="-333.07" r="0"/>
  <circle id="circle874" cx="-308.84" cy="-326.01" r="0"/>
 </g>
 <g id="g952" transform="translate(-19.174 1.3596)" fill="#fff">
  <path id="path948" transform="scale(.26458)" d="m106.4 30.598h-13.217c-0.62325 0-1.125 0.50175-1.125 1.125v3.1875c0 0.62325 0.50175 1.125 1.125 1.125h8.002z"/>
  <path id="path950" transform="scale(.26458)" d="m106.4 30.598-5.2148 5.4375h14.561c0.62325 0 1.125-0.50175 1.125-1.125v-3.1875c0-0.62325-0.50175-1.125-1.125-1.125z" opacity=".8"/>
 </g>
 <path id="path21" d="m8.4665 5.0132 3.175 3.175h-6.35z" fill="#fff"/>
 <circle id="circle14" cx="-331.45" cy="-343.15" r="0" fill="#5e4aa6" stroke-width=".26458"/>
 <circle id="circle16" cx="-40.537" cy="-8.3256" r="0" fill="#5e4aa6" fill-rule="evenodd" stroke-width=".26458"/>
</svg>
