<?xml version="1.0" encoding="UTF-8"?>
<svg id="svg6" width="128" height="128" version="1.1" viewBox="0 0 33.867 33.867" xmlns="http://www.w3.org/2000/svg" xmlns:cc="http://creativecommons.org/ns#" xmlns:dc="http://purl.org/dc/elements/1.1/" xmlns:rdf="http://www.w3.org/1999/02/22-rdf-syntax-ns#" xmlns:xlink="http://www.w3.org/1999/xlink">
 <metadata id="metadata170">
  <rdf:RDF>
   <cc:Work rdf:about="">
    <dc:format>image/svg+xml</dc:format>
    <dc:type rdf:resource="http://purl.org/dc/dcmitype/StillImage"/>
   </cc:Work>
  </rdf:RDF>
 </metadata>
 <defs id="defs2">
  <linearGradient id="linearGradient1632" x1="132.21" x2="132.21" y1="42.152" y2="70.68" gradientTransform="matrix(.97573 0 0 .97573 -111.78 -37.203)" gradientUnits="userSpaceOnUse">
   <stop id="stop1626" stop-color="#a8e47b" offset="0"/>
   <stop id="stop1628" stop-color="#20b597" offset="1"/>
  </linearGradient>
 </defs>
 <g id="layer1">
  <g id="g1702" transform="matrix(.97573 0 0 .97573 -65.748 -37.203)" fill="none" opacity=".20513" stroke="#000" stroke-linecap="round" stroke-linejoin="round" stroke-opacity=".02">
   <rect id="rect1634" x="69.84" y="40.71" width="29.811" height="29.811" rx="6.6099" ry="6.6099" stroke-width=".1"/>
   <rect id="rect1638" x="69.84" y="40.71" width="29.811" height="29.811" rx="6.6099" ry="6.6099" stroke-width=".2"/>
   <rect id="rect1640" x="69.84" y="40.71" width="29.811" height="29.811" rx="6.6099" ry="6.6099" stroke-width=".3"/>
   <rect id="rect1642" x="69.84" y="40.71" width="29.811" height="29.811" rx="6.6099" ry="6.6099" stroke-width=".4"/>
   <rect id="rect1644" x="69.84" y="40.71" width="29.811" height="29.811" rx="6.6099" ry="6.6099" stroke-width=".5"/>
   <rect id="rect1646" x="69.84" y="40.71" width="29.811" height="29.811" rx="6.6099" ry="6.6099" stroke-width=".6"/>
   <rect id="rect1648" x="69.84" y="40.71" width="29.811" height="29.811" rx="6.6099" ry="6.6099" stroke-width=".7"/>
   <rect id="rect1650" x="69.84" y="40.71" width="29.811" height="29.811" rx="6.6099" ry="6.6099" stroke-width=".8"/>
   <rect id="rect1652" x="69.84" y="40.71" width="29.811" height="29.811" rx="6.6099" ry="6.6099"/>
   <rect id="rect1654" x="69.84" y="40.71" width="29.811" height="29.811" rx="6.6099" ry="6.6099" stroke-width="1.2"/>
   <rect id="rect1656" x="69.84" y="40.71" width="29.811" height="29.811" rx="6.6099" ry="6.6099" stroke-width="1.4"/>
   <rect id="rect1658" x="69.84" y="40.71" width="29.811" height="29.811" rx="6.6099" ry="6.6099" stroke-width="1.6"/>
   <rect id="rect1660" x="69.84" y="40.71" width="29.811" height="29.811" rx="6.6099" ry="6.6099" stroke-width="1.8"/>
   <rect id="rect1662" x="69.84" y="40.71" width="29.811" height="29.811" rx="6.6099" ry="6.6099" stroke-width="2"/>
   <rect id="rect1664" x="69.84" y="40.71" width="29.811" height="29.811" rx="6.6099" ry="6.6099" stroke-width="2.2"/>
   <rect id="rect1666" x="69.84" y="40.71" width="29.811" height="29.811" rx="6.6099" ry="6.6099" stroke-width="2.6"/>
   <rect id="rect1668" x="69.84" y="40.71" width="29.811" height="29.811" rx="6.6099" ry="6.6099" stroke-width="3"/>
   <rect id="rect1670" x="69.84" y="40.71" width="29.811" height="29.811" rx="6.6099" ry="6.6099" stroke-width="3.4"/>
   <rect id="rect1672" x="69.84" y="40.71" width="29.811" height="29.811" rx="6.6099" ry="6.6099" stroke-width="3.8"/>
   <rect id="rect1674" x="69.84" y="40.71" width="29.811" height="29.811" rx="6.6099" ry="6.6099" stroke-width="4.2"/>
   <rect id="rect1676" x="69.84" y="40.71" width="29.811" height="29.811" rx="6.6099" ry="6.6099" stroke-width="4.6"/>
   <rect id="rect1678" x="69.84" y="40.71" width="29.811" height="29.811" rx="6.6099" ry="6.6099" stroke-width="5"/>
  </g>
  <rect id="rect849" x="2.3963" y="2.5186" width="29.087" height="29.087" rx="6.4495" ry="6.4495" fill="url(#linearGradient1632)" stroke-linecap="round" stroke-linejoin="round" stroke-width="2.6877"/>
  <path id="path4" d="m16.94 6.7022c-7.2504 0-9.8051 3.4788-9.8051 7.77s4.3899 12.95 9.8051 12.95c5.4152 0 9.8051-8.6588 9.8051-12.95s-2.5547-7.77-9.8051-7.77zm-2.895 2.6796c0.08638-6.02e-4 0.17299 0.0011 0.25944 0.0043 0.69153 0.02588 1.3819 0.17322 2.0292 0.44227 0.73257 0.30447 1.569 0.87593 2.0184 1.3955 0.03265 0.03773 0.06299 0.06518 0.0925 0.09322 0.01323-0.0057 0.02048-0.0072 0.03541-0.01373 0.09526-0.04181 0.22426-0.10156 0.35555-0.16694 1.4131-0.70362 2.9388-1.1772 3.9464-1.1772 0.39299 0 0.82896 0.10869 1.1281 0.32014 0.45993 0.32515 0.6184 0.96031 0.4784 1.5566-0.10367 0.44157-0.40861 0.97246-0.7653 1.3875-1.3014 1.5144-4.2822 3.0701-6.9021 3.6624-0.53682 0.12136-1.5854 0.29091-2.0206 0.3252-4.62e-4 0.0043-0.02531 0.03863-0.08238 0.1532-0.18379 0.36894-0.47576 1.2667-0.60342 1.8926-0.19897 0.97563-0.1741 1.8347 0.01879 2.3465 0.08319 0.22078 0.42624 0.59558 0.63666 0.69592 0.09823 0.04683 0.23767 0.08815 0.35483 0.1149 0.0028-0.13267 0.0051-0.30163 0.0029-0.48635-0.02067-1.7424 0.48321-3.0638 1.5899-4.1156 0.65863-0.62597 1.3791-0.92731 2.1795-0.88815 0.45541 0.02228 0.85404 0.16136 1.1526 0.42348 0.29861 0.26212 0.483 0.63885 0.55428 1.0818 0.17002 1.0567-0.3549 2.1541-1.4287 3.1898-0.87848 0.84736-1.8671 1.3889-2.9492 1.5978-0.05876 0.01134-0.11451 0.02502-0.16404 0.0383 9.79e-4 0.02449-8.85e-4 0.03547 0.0029 0.06865 0.01646 0.14346 0.061 0.35631 0.1308 0.59547 0.0643 0.2203 0.09915 0.32231 0.11201 0.44516 0.0064 0.06143 0.01445 0.17789-0.09033 0.28401-0.10478 0.10615-0.20675 0.0925-0.24281 0.0925-0.16811 0-0.19651-0.06813-0.22981-0.10117-0.0333-0.03305-0.05627-0.06252-0.07877-0.09539-0.04499-0.06575-0.08507-0.1421-0.12285-0.22692-0.07792-0.17493-0.16282-0.43809-0.2103-0.64678-0.03584-0.1575-0.05881-0.27027-0.0766-0.33604-0.0083-0.03058 0.0027-0.01308 0-0.01951-0.04629-0.0053-0.13162-0.0074-0.25944-0.0159-1.0037-0.06673-1.78-0.50455-2.3111-1.3116-0.74009-1.1248-0.75494-2.6913-0.12502-4.5202 0.05232-0.1519 0.09257-0.28194 0.12791-0.39313-0.04153-0.01168-0.07358-0.02007-0.11996-0.03252-1.0744-0.28911-2.0055-0.95096-2.5235-1.8189-0.38528-0.6456-0.56867-1.5384-0.4784-2.3031 0.10276-0.87059 0.42723-1.5193 1.076-2.16 0.53387-0.52727 1.0518-0.85248 1.7264-1.0818 0.56966-0.19364 1.1709-0.29207 1.7756-0.29629zm-0.13803 0.92428c-0.29442-5e-6 -0.56886 0.01476-0.75518 0.04697-1.2549 0.21695-2.2645 0.9689-2.5842 1.8435-0.41094 1.124 0.13307 2.3246 1.3824 2.9441 0.20903 0.10365 0.52665 0.22562 0.82167 0.31725 0.27983 0.0869 0.55531 0.14302 0.6475 0.15031 0.0012-0.0012 0.0015-0.0016 0.0029-0.0029 0.04792-0.04585 0.1573-0.1788 0.34399-0.41842 1.0435-1.3394 2.2197-2.3202 3.9168-3.4001-0.07076-0.06183-0.12038-0.10843-0.3252-0.27028-0.7629-0.60283-1.3518-0.9054-2.1275-1.0984-0.28643-0.07128-0.83249-0.112-1.3232-0.11201zm8.8894 0.43793c-0.35927 0.0062-0.85034 0.08819-1.3687 0.25871-0.33281 0.10948-0.97542 0.4063-1.5133 0.6887-0.26892 0.1412-0.51694 0.27996-0.6887 0.38735-0.04366 0.02728-0.06278 0.04346-0.09539 0.06576 0.05777 0.10318 0.13594 0.23986 0.22402 0.38518 0.22738 0.37511 0.37697 0.63096 0.46973 0.8195 0.09281 0.18854 0.17601 0.30864 0.10695 0.52465-0.01688 0.05274-0.038 0.09741-0.07371 0.14453-0.03571 0.04714-0.07559 0.13658-0.26016 0.13658-0.18136 0-0.2207-0.07917-0.27028-0.12863-0.04957-0.04946-0.09338-0.10444-0.14453-0.17488-0.1023-0.14089-0.22755-0.33944-0.39024-0.61137-0.15557-0.26004-0.3311-0.52131-0.38301-0.5933-0.7307 0.52278-1.9748 1.693-2.4303 2.2923-0.15094 0.19859-0.34293 0.47185-0.49213 0.7017-0.01375 0.02117-0.01951 0.03387-0.03252 0.0542 0.08991-0.0015 0.16215-7.24e-4 0.26738-0.0051 0.4016-0.01649 0.88249-0.05369 1.1447-0.09322 2.2357-0.33689 4.5865-1.3892 5.8398-2.5835 0.69199-0.65944 0.94937-1.144 0.94741-1.579-0.0012-0.29318-0.2239-0.58777-0.45889-0.65256-0.09888-0.02726-0.23488-0.04038-0.39819-0.03758zm-3.8005 7.1955c-0.06306-0.0011-0.13804 0.0082-0.24498 0.02529-0.35236 0.05648-0.75124 0.27138-1.123 0.63377-0.71113 0.69317-1.3077 1.7661-1.5732 2.8458-0.05369 0.21828-0.10126 0.51134-0.12791 0.75157-0.0096 0.0866-0.01587 0.15232-0.01951 0.21824 0.10043-0.01208 0.23046-0.03232 0.42637-0.08166 0.80426-0.20256 1.4937-0.59565 2.1738-1.2488 0.82245-0.7898 1.1722-1.4844 1.1722-2.2121 0-0.45694-0.12492-0.68295-0.38012-0.82745-0.12744-0.07216-0.19842-0.10302-0.30352-0.10479z" fill-opacity=".78125" stroke-width=".37"/>
 </g>
</svg>
