<?xml version="1.0" encoding="UTF-8"?>
<svg id="svg17" width="64" height="64" version="1.1" viewBox="0 0 16.933 16.933" xml:space="preserve" xmlns="http://www.w3.org/2000/svg" xmlns:cc="http://creativecommons.org/ns#" xmlns:dc="http://purl.org/dc/elements/1.1/" xmlns:rdf="http://www.w3.org/1999/02/22-rdf-syntax-ns#" xmlns:xlink="http://www.w3.org/1999/xlink"><defs id="defs7"><filter id="filter1057" x="-.027" y="-.027" width="1.054" height="1.054" color-interpolation-filters="sRGB"><feGaussianBlur id="feGaussianBlur1059" stdDeviation="0.61875"/></filter><linearGradient id="linearGradient687" x2="1" gradientTransform="matrix(13.746 0 0 16.483 -44.434 6.5763)" gradientUnits="userSpaceOnUse"><stop id="stop328" stop-color="#b1007f" offset="0"/><stop id="stop330" stop-color="#ff00e1" offset=".3"/><stop id="stop332" stop-color="#ffa400" offset=".81"/><stop id="stop334" stop-color="#ff8b00" offset="1"/></linearGradient><radialGradient id="radialGradient689" cx="0" cy="0" r="1" gradientTransform="matrix(11.705 0 0 11.705 -45.638 2.7369)" gradientUnits="userSpaceOnUse"><stop id="stop337" stop-color="#00a9ff" offset="0"/><stop id="stop339" stop-color="#00afff" offset=".9"/><stop id="stop341" offset="1"/></radialGradient><linearGradient id="linearGradient2447" x1="31.738" x2="31.738" y1="6.2139" y2="58.771" gradientTransform="scale(.26458)" gradientUnits="userSpaceOnUse"><stop id="stop694" stop-color="#1e1e1e" offset="0"/><stop id="stop696" stop-color="#3c3c3c" offset="1"/></linearGradient></defs><metadata id="metadata9"><rdf:RDF><cc:Work rdf:about=""><dc:format>image/svg+xml</dc:format><dc:type rdf:resource="http://purl.org/dc/dcmitype/StillImage"/></cc:Work></rdf:RDF></metadata><rect id="rect1055" transform="scale(.26458)" x="4.5" y="4.5" width="55" height="55" ry="15" fill="#141414" filter="url(#filter1057)" opacity=".3" stroke-linecap="round" stroke-width="2.7444"/><path id="path703" d="m5.1593 1.1906c-2.1986 0-3.9687 1.77-3.9687 3.9687v6.6145c0 2.1986 1.77 3.9687 3.9687 3.9687h6.6145c2.1986 0 3.9687-1.77 3.9687-3.9687v-6.6145c0-2.1986-1.77-3.9687-3.9687-3.9687z" fill="url(#linearGradient2447)" stroke-linecap="round" stroke-linejoin="round" stroke-width=".265" style="paint-order:stroke fill markers"/><g id="g685" transform="matrix(.61682 0 0 .61682 32.687 4.6243)" clip-rule="evenodd" fill-rule="evenodd" stroke-linejoin="round" stroke-miterlimit="1.4142" stroke-width=".037753"><path id="path669" d="m-31.158 3.4226c0.30437 0.87961 0.46972 1.8239 0.46972 2.8065 0 4.7403-3.8485 8.5888-8.5888 8.5888-4.5412 0-8.264-3.5321-8.5687-7.9966l9.667-1.6112h-9.6273c0.11318-0.95587 0.38361-1.8638 0.78462-2.6972l10.63-1.7717h-9.4911c1.576-1.8943 3.9508-3.101 6.6051-3.101 3.1985 0 5.991 1.7522 7.4692 4.3482l-8.6053 1.4342z" fill="#00a9ff"/><path id="path671" d="m-31.158 3.4226c0.30437 0.87961 0.46972 1.8239 0.46972 2.8065 0 4.7403-3.8485 8.5888-8.5888 8.5888-1.9344 0-3.7203-0.64086-5.1567-1.7217 5.2858-0.14675 9.5539-4.3954 9.7317-9.6736zm-3.5565-0.94979c-0.08921-1.4902-0.50476-2.8931-1.1761-4.1381 1.7256 0.742 3.1601 2.0335 4.0827 3.6537z" fill="url(#linearGradient687)"/><path id="path673" d="m-44.434 13.096c0.66196 0.49808 0.29364 0.21923 0.02782 0.02088-1.9512-1.4558-3.2641-3.7206-3.4398-6.2957l9.667-1.6112h-9.6273c0.11318-0.95587 0.38361-1.8638 0.78462-2.6972l10.63-1.7717h-9.4911c1.576-1.8943 3.9508-3.101 6.6051-3.101 1.2023 0 2.3472 0.24759 3.3865 0.69447 0.67133 1.245 1.0869 2.6479 1.1761 4.1381l-5.6987 0.94979h5.711c-0.17778 5.2781-4.4458 9.5268-9.7317 9.6736z" fill="url(#radialGradient689)"/><path id="path675" d="m-36.879-2.0201c2.1648 0.62893 3.978 2.0877 5.0717 4.0085l-8.6053 1.4342h9.2552c0.30437 0.87965 0.46972 1.8239 0.46972 2.8065 0 3.8977-2.6019 7.1925-6.1622 8.2406l-8.1265-8.1265 6.7982-1.133h-5.9312l3.819-3.819 3.8998-0.64996h-3.2499z" fill="#fff" fill-opacity=".10196"/><path id="path677" d="m-31.126 3.515c0.28436 0.85322 0.43835 1.7658 0.43835 2.714 0 0.93775-0.1506 1.8406-0.42895 2.6857l-2.7046-2.7046z" fill="#fff" fill-opacity=".10196"/><path id="path679" d="m-34.809 3.4226h3.6515c0.30437 0.87965 0.46972 1.8239 0.46972 2.8065 0 1.9373-0.64282 3.7257-1.7266 5.1633l-5.1822-5.1822zm2.3783-2.3783c0.22761 0.29991 0.43597 0.61526 0.62323 0.94413l-1.8808 0.31346z" fill="#fff" fill-opacity=".10196"/><path id="path681" d="m-40.3-2.2993c0.33555-0.039905 0.67695-0.060443 1.0231-0.060443 3.1985 0 5.991 1.7522 7.4692 4.3482l-8.6053 1.4342h9.2552c0.30437 0.87965 0.46972 1.8239 0.46972 2.8065 0 4.7403-3.8485 8.5888-8.5888 8.5888-0.33151 0-0.65864-0.01884-0.98041-0.05546l-7.553-7.553c-0.01461-0.12855-0.02643-0.25793-0.0353-0.38814l9.667-1.6112h-9.6273l5.28e-4 -0.00427 3.0747-3.0747 8.3396-1.3899h-6.9497z" fill="#fff" fill-opacity=".10196"/><path id="path683" d="m-40.372 5.2102 1.7876-1.7876h7.4268c0.30437 0.87965 0.46972 1.8239 0.46972 2.8065 0 2.8999-1.4402 5.466-3.6438 7.0214l-7.0403-7.0403 0.56128-0.56128 2.6324-0.43873zm6.0182-6.0182c1.0418 0.73045 1.9142 1.6862 2.5463 2.7964l-6.4112 1.0685z" fill="#fff" fill-opacity=".10196"/></g></svg>
