<?xml version="1.0" encoding="UTF-8"?>
<svg id="svg1443" width="128" height="128" version="1.1" viewBox="0 0 33.867 33.867" xmlns="http://www.w3.org/2000/svg" xmlns:cc="http://creativecommons.org/ns#" xmlns:dc="http://purl.org/dc/elements/1.1/" xmlns:rdf="http://www.w3.org/1999/02/22-rdf-syntax-ns#" xmlns:xlink="http://www.w3.org/1999/xlink">
 <defs id="defs1437">
  <radialGradient id="radialGradient1999" cx="17.076" cy="4.6282" r="14.544" gradientTransform="matrix(4.7283 0 0 1.6998 -63.506 -2.7937)" gradientUnits="userSpaceOnUse">
   <stop id="stop1993" stop-color="#5ed7ec" offset="0"/>
   <stop id="stop1995" stop-color="#3de1bf" offset="1"/>
  </radialGradient>
  <linearGradient id="linearGradient1047" x1="41.032" x2="41.032" y1="42.064" y2="177.3" gradientUnits="userSpaceOnUse">
   <stop id="stop1041" stop-color="#fff" offset="0"/>
   <stop id="stop1043" stop-color="#41e0c5" offset="1"/>
  </linearGradient>
 </defs>
 <metadata id="metadata1440">
  <rdf:RDF>
   <cc:Work rdf:about="">
    <dc:format>image/svg+xml</dc:format>
    <dc:type rdf:resource="http://purl.org/dc/dcmitype/StillImage"/>
   </cc:Work>
  </rdf:RDF>
 </metadata>
 <g id="layer1">
  <g id="g1702" transform="matrix(.97573 0 0 .96361 -65.737 -36.328)" fill="none" opacity=".18754" stroke="#000" stroke-linecap="round" stroke-linejoin="round" stroke-opacity=".02">
   <rect id="rect1634" x="69.84" y="40.71" width="29.811" height="29.811" rx="6.6099" ry="6.6099" stroke-width=".1"/>
   <rect id="rect1638" x="69.84" y="40.71" width="29.811" height="29.811" rx="6.6099" ry="6.6099" stroke-width=".2"/>
   <rect id="rect1640" x="69.84" y="40.71" width="29.811" height="29.811" rx="6.6099" ry="6.6099" stroke-width=".3"/>
   <rect id="rect1642" x="69.84" y="40.71" width="29.811" height="29.811" rx="6.6099" ry="6.6099" stroke-width=".4"/>
   <rect id="rect1644" x="69.84" y="40.71" width="29.811" height="29.811" rx="6.6099" ry="6.6099" stroke-width=".5"/>
   <rect id="rect1646" x="69.84" y="40.71" width="29.811" height="29.811" rx="6.6099" ry="6.6099" stroke-width=".6"/>
   <rect id="rect1648" x="69.84" y="40.71" width="29.811" height="29.811" rx="6.6099" ry="6.6099" stroke-width=".7"/>
   <rect id="rect1650" x="69.84" y="40.71" width="29.811" height="29.811" rx="6.6099" ry="6.6099" stroke-width=".8"/>
   <rect id="rect1652" x="69.84" y="40.71" width="29.811" height="29.811" rx="6.6099" ry="6.6099"/>
   <rect id="rect1654" x="69.84" y="40.71" width="29.811" height="29.811" rx="6.6099" ry="6.6099" stroke-width="1.2"/>
   <rect id="rect1656" x="69.84" y="40.71" width="29.811" height="29.811" rx="6.6099" ry="6.6099" stroke-width="1.4"/>
   <rect id="rect1658" x="69.84" y="40.71" width="29.811" height="29.811" rx="6.6099" ry="6.6099" stroke-width="1.6"/>
   <rect id="rect1660" x="69.84" y="40.71" width="29.811" height="29.811" rx="6.6099" ry="6.6099" stroke-width="1.8"/>
   <rect id="rect1662" x="69.84" y="40.71" width="29.811" height="29.811" rx="6.6099" ry="6.6099" stroke-width="2"/>
   <rect id="rect1664" x="69.84" y="40.71" width="29.811" height="29.811" rx="6.6099" ry="6.6099" stroke-width="2.2"/>
   <rect id="rect1666" x="69.84" y="40.71" width="29.811" height="29.811" rx="6.6099" ry="6.6099" stroke-width="2.6"/>
   <rect id="rect1668" x="69.84" y="40.71" width="29.811" height="29.811" rx="6.6099" ry="6.6099" stroke-width="3"/>
   <rect id="rect1670" x="69.84" y="40.71" width="29.811" height="29.811" rx="6.6099" ry="6.6099" stroke-width="3.4"/>
   <rect id="rect1672" x="69.84" y="40.71" width="29.811" height="29.811" rx="6.6099" ry="6.6099" stroke-width="3.8"/>
   <rect id="rect1674" x="69.84" y="40.71" width="29.811" height="29.811" rx="6.6099" ry="6.6099" stroke-width="4.2"/>
   <rect id="rect1676" x="69.84" y="40.71" width="29.811" height="29.811" rx="6.6099" ry="6.6099" stroke-width="4.6"/>
   <rect id="rect1678" x="69.84" y="40.71" width="29.811" height="29.811" rx="6.6099" ry="6.6099" stroke-width="5"/>
  </g>
  <rect id="rect849" x="2.4074" y="2.5392" width="29.087" height="29.087" rx="6.4495" ry="6.4495" fill="url(#radialGradient1999)" stroke-linecap="round" stroke-linejoin="round" stroke-width="2.6877"/>
  <g id="g2936" fill="#000d35" fill-opacity=".1011" opacity=".61664" stroke-width=".52518">
   <path id="path2765" d="m16.48 7.7046c-0.06263 0.00338-0.17674 0.021292-0.38706 0.054777-2.6351 0.41964-4.5413 2.5521-5.1082 5.1842-0.10926 0.50723-0.15056 1.4651-0.08475 1.9885 0.0553 0.43988 0.19344 1.0573 0.2434 1.0873 0.01846 0.01113 0.19397 0.04688 0.38861 0.07958 0.8587 0.14419 1.8111 0.45222 2.3074 0.74517 0.13184 0.07784 0.37605 0.27492 0.54157 0.4377 0.9355 0.92002 1.3238 1.7022 1.2816 2.8179-0.02071 0.54726-0.11158 1.0903-0.36949 1.3482-0.28662 0.28661-0.86883 0.429-1.4309 0.48317l-0.27905 0.02739-0.03411 0.17467c-0.0472 0.24478-0.0041 1.061 0.0708 1.4702 0.08962 0.48905 0.27249 1.0163 0.47336 1.3581 0.41562 0.70707 1.3724 1.4912 1.9725 1.879 0.59558 0.3848 1.3563 0.66305 2.0898 0.76326 0.35521 0.04852 1.3214 0.01654 1.6635-0.05581 2.0627-0.43567 3.4013-1.974 3.6282-4.1677 0.02533-0.24494 0.03334-0.62036 0.01809-0.87643-0.12146-2.0282-0.93854-3.4766-2.6246-4.6514-1.0044-0.69984-1.5878-1.1307-1.819-1.3431-0.42659-0.39179-0.64828-0.97364-0.74569-1.5813-0.02394-0.14931-0.0493-0.27526-0.05581-0.28164-0.0066-0.0064-0.1158 0.04893-0.24236 0.12299-0.56405 0.33009-1.4586 0.3381-2.0045 0.01912-0.61065-0.35672-1.1759-1.199-1.4294-2.1322-0.1186-0.43669-0.14561-1.4104-0.05633-1.8386 0.18101-0.86813 0.77511-1.8205 1.6619-2.6644 0.22253-0.21178 0.40359-0.40011 0.40359-0.41858 0-0.022469-0.01027-0.033247-0.07286-0.029972zm3.884 5.2167c-0.05295 0-0.21478 0.25272-0.30799 0.48059-0.14298 0.3495-0.22985 0.7986-0.2527 1.3064-0.02523 0.56069 0.01315 0.78035 0.21342 1.2258 0.24592 0.54694 0.65398 0.95884 1.1198 1.1302 0.66685 0.24524 1.3427-0.31152 1.2821-1.0563-0.02347-0.28812-0.15098-0.55215-0.37724-0.78238-0.18769-0.19098-0.27121-0.23648-0.7121-0.38551-0.60411-0.20419-0.87389-0.65375-0.91932-1.5327-0.01096-0.21207-0.0319-0.38602-0.04599-0.38602zm-1.448 6.3019c0.02683-0.0065 0.053 0.12734 0.12041 0.59531 0.14113 0.97975 0.36478 1.8857 0.54312 2.1968 0.20609 0.35944 0.71862 0.59445 1.6821 0.77153 0.22128 0.04067 0.40984 0.08068 0.42013 0.08992 0.02718 0.02444-0.04442 0.04113-0.51832 0.1111-0.72123 0.10649-1.2236 0.27586-1.4934 0.50436-0.31889 0.27-0.55771 0.95758-0.71675 2.0614-0.07918 0.54956-0.12114 0.73087-0.15038 0.65629-0.01174-0.03005-0.06018-0.35425-0.108-0.72089-0.14012-1.0743-0.29958-1.6685-0.51728-1.9296-0.17557-0.21053-0.92281-0.48823-1.7343-0.64544-0.38663-0.0749-0.44975-0.11367-0.23771-0.14521 1.0258-0.15252 1.7315-0.38614 2.0009-0.66198 0.21913-0.22439 0.40984-0.93501 0.58549-2.1745 0.05354-0.37788 0.1076-0.69579 0.11886-0.7059 0.0018-0.0016 0.0034-0.0027 0.0052-0.0031z"/>
   <path id="path2929" d="m16.717 8.5164c-0.06263 0.00338-0.17674 0.021292-0.38706 0.054777-2.6351 0.41964-4.5413 2.5521-5.1082 5.1842-0.10926 0.50723-0.15056 1.4651-0.08475 1.9885 0.0553 0.43988 0.19344 1.0573 0.2434 1.0873 0.01846 0.01113 0.19397 0.04688 0.38861 0.07958 0.8587 0.14419 1.8111 0.45222 2.3074 0.74517 0.13184 0.07784 0.37605 0.27492 0.54157 0.4377 0.9355 0.92002 1.3238 1.7022 1.2816 2.8179-0.02071 0.54726-0.11158 1.0903-0.36949 1.3482-0.28662 0.28661-0.86883 0.429-1.4309 0.48317l-0.27905 0.02739-0.03411 0.17467c-0.0472 0.24478-0.0041 1.061 0.0708 1.4702 0.08962 0.48905 0.27249 1.0163 0.47336 1.3581 0.41562 0.70707 1.3724 1.4912 1.9725 1.879 0.59558 0.3848 1.3563 0.66305 2.0898 0.76326 0.35521 0.04852 1.3214 0.01654 1.6635-0.05581 2.0627-0.43567 3.4013-1.974 3.6282-4.1677 0.02533-0.24494 0.03334-0.62036 0.01809-0.87643-0.12146-2.0282-0.93854-3.4766-2.6246-4.6514-1.0044-0.69984-1.5878-1.1307-1.819-1.3431-0.42659-0.39179-0.64828-0.97364-0.74569-1.5813-0.02394-0.14931-0.0493-0.27526-0.05581-0.28164-0.0066-0.0064-0.1158 0.04893-0.24236 0.12299-0.56405 0.33009-1.4586 0.3381-2.0045 0.01912-0.61065-0.35672-1.1759-1.199-1.4294-2.1322-0.1186-0.43669-0.14561-1.4104-0.05633-1.8386 0.18101-0.86813 0.77511-1.8205 1.6619-2.6644 0.22253-0.21178 0.40359-0.40011 0.40359-0.41858 0-0.022469-0.01027-0.033247-0.07286-0.029972zm3.884 5.2167c-0.05295 0-0.21478 0.25272-0.30799 0.48059-0.14298 0.3495-0.22985 0.7986-0.2527 1.3064-0.02523 0.56069 0.01315 0.78035 0.21342 1.2258 0.24592 0.54694 0.65398 0.95884 1.1198 1.1302 0.66685 0.24524 1.3427-0.31152 1.2821-1.0563-0.02347-0.28812-0.15098-0.55215-0.37724-0.78238-0.18769-0.19098-0.27121-0.23648-0.7121-0.38551-0.60411-0.20419-0.87389-0.65375-0.91932-1.5327-0.01096-0.21207-0.0319-0.38602-0.04599-0.38602zm-1.448 6.3019c0.02683-0.0065 0.053 0.12734 0.12041 0.59531 0.14113 0.97975 0.36478 1.8857 0.54312 2.1968 0.20609 0.35944 0.71862 0.59445 1.6821 0.77153 0.22128 0.04067 0.40984 0.08068 0.42013 0.08992 0.02718 0.02444-0.04442 0.04113-0.51832 0.1111-0.72123 0.10649-1.2236 0.27586-1.4934 0.50436-0.31889 0.27-0.55771 0.95758-0.71675 2.0614-0.07918 0.54956-0.12114 0.73087-0.15038 0.65629-0.01174-0.03005-0.06018-0.35425-0.108-0.72089-0.14012-1.0743-0.29958-1.6685-0.51728-1.9296-0.17557-0.21053-0.92281-0.48823-1.7343-0.64544-0.38663-0.0749-0.44975-0.11367-0.23771-0.14521 1.0258-0.15252 1.7315-0.38614 2.0009-0.66198 0.21913-0.22439 0.40984-0.93501 0.58549-2.1745 0.05354-0.37788 0.1076-0.69579 0.11886-0.7059 0.0018-0.0016 0.0034-0.0027 0.0052-0.0031z"/>
   <path id="path2931" d="m17.258 9.7566c-0.06263 0.00338-0.17674 0.021292-0.38706 0.054777-2.6351 0.41963-4.5413 2.5521-5.1082 5.1842-0.10926 0.50723-0.15056 1.4651-0.08475 1.9885 0.0553 0.43988 0.19344 1.0573 0.2434 1.0873 0.01846 0.01113 0.19397 0.04688 0.38861 0.07958 0.8587 0.14419 1.8111 0.45222 2.3074 0.74517 0.13184 0.07784 0.37605 0.27492 0.54157 0.4377 0.9355 0.92002 1.3238 1.7022 1.2816 2.8179-0.02071 0.54726-0.11158 1.0903-0.36949 1.3482-0.28662 0.28661-0.86883 0.429-1.4309 0.48317l-0.27905 0.02739-0.03411 0.17467c-0.0472 0.24478-0.0041 1.061 0.0708 1.4702 0.08962 0.48905 0.27249 1.0163 0.47336 1.3581 0.41562 0.70707 1.3724 1.4912 1.9725 1.879 0.59558 0.3848 1.3563 0.66305 2.0898 0.76326 0.35521 0.04852 1.3214 0.01654 1.6635-0.05581 2.0627-0.43567 3.4013-1.974 3.6282-4.1677 0.02533-0.24494 0.03334-0.62036 0.01809-0.87643-0.12146-2.0282-0.93854-3.4766-2.6246-4.6514-1.0044-0.69984-1.5878-1.1307-1.819-1.3431-0.42659-0.39179-0.64828-0.97364-0.74569-1.5813-0.02394-0.14931-0.0493-0.27526-0.05581-0.28164-0.0066-0.0064-0.1158 0.04893-0.24236 0.12299-0.56405 0.33009-1.4586 0.3381-2.0045 0.01912-0.61065-0.35672-1.1759-1.199-1.4294-2.1322-0.1186-0.43669-0.14561-1.4104-0.05633-1.8386 0.18101-0.86813 0.77511-1.8205 1.6619-2.6644 0.22253-0.21178 0.40359-0.40011 0.40359-0.41858 0-0.022469-0.01027-0.033247-0.07286-0.029972zm3.884 5.2167c-0.05295 0-0.21478 0.25272-0.30799 0.48059-0.14298 0.3495-0.22985 0.7986-0.2527 1.3064-0.02523 0.56069 0.01315 0.78035 0.21342 1.2258 0.24592 0.54694 0.65398 0.95884 1.1198 1.1302 0.66685 0.24524 1.3427-0.31152 1.2821-1.0563-0.02347-0.28812-0.15098-0.55215-0.37724-0.78238-0.18769-0.19098-0.27121-0.23648-0.7121-0.38551-0.60411-0.20419-0.87389-0.65375-0.91932-1.5327-0.01096-0.21207-0.0319-0.38602-0.04599-0.38602zm-1.448 6.3019c0.02683-0.0065 0.053 0.12734 0.12041 0.59531 0.14113 0.97975 0.36478 1.8857 0.54312 2.1968 0.20609 0.35944 0.71862 0.59445 1.6821 0.77153 0.22128 0.04067 0.40984 0.08068 0.42013 0.08992 0.02718 0.02444-0.04442 0.04113-0.51832 0.1111-0.72123 0.10649-1.2236 0.27586-1.4934 0.50436-0.31889 0.27-0.55771 0.95758-0.71675 2.0614-0.07918 0.54956-0.12114 0.73087-0.15038 0.65629-0.01174-0.03005-0.06018-0.35425-0.108-0.72089-0.14012-1.0743-0.29958-1.6685-0.51728-1.9296-0.17557-0.21053-0.92281-0.48823-1.7343-0.64544-0.38663-0.0749-0.44975-0.11367-0.23771-0.14521 1.0258-0.15252 1.7315-0.38614 2.0009-0.66198 0.21913-0.22439 0.40984-0.93501 0.58549-2.1745 0.05354-0.37788 0.1076-0.69579 0.11886-0.7059 0.0018-0.0016 0.0034-0.0027 0.0052-0.0031z"/>
  </g>
  <path id="path8" transform="scale(.26458)" d="m60.795 27.799c-0.23671 0.012775-0.668 0.080474-1.4629 0.20703-9.9595 1.586-17.164 9.6457-19.307 19.594-0.41294 1.9171-0.56904 5.5374-0.32031 7.5156 0.20901 1.6626 0.73111 3.996 0.91992 4.1094 0.06977 0.042067 0.73312 0.17719 1.4688 0.30078 3.2455 0.54496 6.8452 1.7092 8.7207 2.8164 0.49829 0.2942 1.4213 1.0391 2.0469 1.6543 3.5357 3.4772 5.0033 6.4334 4.8438 10.65-0.078274 2.0684-0.42174 4.121-1.3965 5.0957-1.0833 1.0832-3.2838 1.6214-5.4082 1.8262l-1.0547 0.10352-0.12891 0.66016c-0.17839 0.92513-0.015584 4.0101 0.26758 5.5566 0.33872 1.8484 1.0299 3.8412 1.7891 5.1328 1.5708 2.6724 5.187 5.6362 7.4551 7.1016 2.251 1.4544 5.1261 2.506 7.8984 2.8848 1.3425 0.18339 4.9941 0.06251 6.2871-0.21093 7.7959-1.6466 12.855-7.4608 13.713-15.752 0.095736-0.92576 0.126-2.3447 0.068359-3.3125-0.45908-7.6656-3.5472-13.14-9.9199-17.58-3.7962-2.6451-6.0012-4.2736-6.875-5.0762-1.6123-1.4808-2.4502-3.6799-2.8184-5.9766-0.090482-0.56431-0.18633-1.0404-0.21094-1.0645-0.024945-0.024189-0.43768 0.18495-0.91602 0.46484-2.1318 1.2476-5.513 1.2778-7.5762 0.072266-2.308-1.3483-4.4444-4.5318-5.4023-8.0586-0.44826-1.6505-0.55035-5.3307-0.21289-6.9492 0.68412-3.2811 2.9296-6.8806 6.2812-10.07 0.84107-0.80043 1.5254-1.5122 1.5254-1.582 0-0.084922-0.038829-0.12566-0.27539-0.11328zm14.68 19.717c-0.20014 0-0.81177 0.95516-1.1641 1.8164-0.54038 1.3209-0.86872 3.0183-0.95508 4.9375-0.095343 2.1192 0.049703 2.9494 0.80664 4.6328 0.92947 2.0672 2.4717 3.624 4.2324 4.2715 2.5204 0.92688 5.0749-1.1774 4.8457-3.9922-0.08869-1.0889-0.57061-2.0869-1.4258-2.957-0.70938-0.72183-1.0251-0.89377-2.6914-1.457-2.2832-0.77175-3.3029-2.4709-3.4746-5.793-0.041424-0.80151-0.12058-1.459-0.17383-1.459zm-5.4727 23.818c0.10139-0.024578 0.20033 0.4813 0.45508 2.25 0.5334 3.703 1.3787 7.1272 2.0527 8.3027 0.77893 1.3585 2.716 2.2467 6.3574 2.916 0.83634 0.15371 1.549 0.30492 1.5879 0.33984 0.10273 0.092372-0.16789 0.15545-1.959 0.41992-2.7259 0.40249-4.6245 1.0426-5.6445 1.9062-1.2052 1.0205-2.1079 3.6192-2.709 7.791-0.29926 2.0771-0.45784 2.7623-0.56836 2.4805-0.044372-0.11357-0.22744-1.3389-0.4082-2.7246-0.52958-4.0604-1.1323-6.3063-1.9551-7.293-0.66356-0.79569-3.4878-1.8453-6.5547-2.4395-1.4613-0.28309-1.6998-0.42962-0.89844-0.54883 3.8772-0.57646 6.5444-1.4594 7.5625-2.502 0.8282-0.84809 1.549-3.5339 2.2129-8.2188 0.20236-1.4282 0.40668-2.6298 0.44922-2.668 0.006827-0.006137 0.012772-0.01008 0.019531-0.011719z" fill="url(#linearGradient1047)" stroke-width="1.9849"/>
 </g>
</svg>
