<?xml version="1.0" encoding="UTF-8"?>
<svg id="svg45" width="64" height="64" version="1.1" viewBox="0 0 64 64" xmlns="http://www.w3.org/2000/svg" xmlns:cc="http://creativecommons.org/ns#" xmlns:dc="http://purl.org/dc/elements/1.1/" xmlns:rdf="http://www.w3.org/1999/02/22-rdf-syntax-ns#" xmlns:xlink="http://www.w3.org/1999/xlink">
 <metadata id="metadata49">
  <rdf:RDF>
   <cc:Work rdf:about="">
    <dc:format>image/svg+xml</dc:format>
    <dc:type rdf:resource="http://purl.org/dc/dcmitype/StillImage"/>
    <dc:title/>
   </cc:Work>
  </rdf:RDF>
 </metadata>
 <defs id="defs7">
  <filter id="filter1057" x="-.027" y="-.027" width="1.054" height="1.054" color-interpolation-filters="sRGB">
   <feGaussianBlur id="feGaussianBlur1059" stdDeviation="0.61875"/>
  </filter>
  <linearGradient id="linearGradient1053" x1="-127" x2="-72" y1="60" y2="5" gradientTransform="translate(131.5 -.51)" gradientUnits="userSpaceOnUse">
   <stop id="stop1047" stop-color="#32d7ff" offset="0"/>
   <stop id="stop1049" stop-color="#329bff" offset="1"/>
  </linearGradient>
  <style id="style872" type="text/css"/>
  <style id="style4" type="text/css"/>
  <style id="style6" type="text/css"/>
  <style id="style8" type="text/css"/>
  <style id="style872-0" type="text/css"/>
  <style id="style874" type="text/css"/>
  <style id="style876" type="text/css"/>
 </defs>
 <rect id="rect1055" x="4.5" y="4.5" width="55" height="55" ry="15" fill="#141414" filter="url(#filter1057)" opacity=".3" stroke-linecap="round" stroke-width="2.7444"/>
 <rect id="rect1045" x="4.5" y="4.5" width="55" height="55" ry="15" fill="url(#linearGradient1053)" stroke-linecap="round" stroke-width="2.7444"/>
 <g id="g39" transform="matrix(1.4583 0 0 1.4583 -3 -2.9975)">
  <g id="g37">
   <!-- color: #245395 -->
   <g id="g35">
    <path id="path33" d="m29.984 21.262c-1.473-1.711-2.797-2.816-4.758 0.063-1.172 1.711-8.176 11.527-9.461 13.09-0.375 0.453-0.594 0.766-0.879 0.953 0-0.621 4.84-8.512 6.191-10.797 1.629-2.746 1.578-2.586 1.383-2.586-0.277 0-0.836 0.418-1.691 1.355-1.555 1.707-6.164 8.07-6.484 7.973 0.109-0.461 3.719-6.156 5.355-8.512 1.41-2.031 0.871-2.188 0.063-1.988-3.445 0.848-7.57 2.891-7.703 2.816 0.051-0.105 13.887-10.117 15.738-10.309 0.215-0.023 0.668-0.418 1.477-0.75 0.879-0.355 1.469-0.648 1.617-0.555-0.645 0.926-0.98 1.113-0.988 1.41-8e-3 0.488-0.176 1.277-0.363 1.531 3.578 2.453 4.973 10.809 5.992 17.535 0.242 1.594 0.469 2.797 0.527 3.508-0.301-0.801-3.16-11.422-6.02-14.738" fill="#f9f9f9"/>
   </g>
  </g>
 </g>
</svg>
