<?xml version="1.0" encoding="UTF-8"?>
<svg id="svg45" width="64" height="64" version="1.1" viewBox="0 0 64 64" xmlns="http://www.w3.org/2000/svg" xmlns:cc="http://creativecommons.org/ns#" xmlns:dc="http://purl.org/dc/elements/1.1/" xmlns:rdf="http://www.w3.org/1999/02/22-rdf-syntax-ns#">
 <metadata id="metadata49">
  <rdf:RDF>
   <cc:Work rdf:about="">
    <dc:format>image/svg+xml</dc:format>
    <dc:type rdf:resource="http://purl.org/dc/dcmitype/StillImage"/>
    <dc:title/>
   </cc:Work>
  </rdf:RDF>
 </metadata>
 <defs id="defs7">
  <style id="style856" type="text/css"/>
  <filter id="filter1057" x="-.027" y="-.027" width="1.054" height="1.054" color-interpolation-filters="sRGB">
   <feGaussianBlur id="feGaussianBlur858" stdDeviation="0.61875"/>
  </filter>
  <linearGradient id="linearGradient1053" x1="-127" x2="-127" y1="60" y2="5" gradientTransform="translate(131.5 -.51)" gradientUnits="userSpaceOnUse">
   <stop id="stop861" stop-color="#32d7ff" offset="0"/>
   <stop id="stop863" stop-color="#329bff" offset="1"/>
  </linearGradient>
  <style id="style866" type="text/css"/>
  <style id="style868" type="text/css"/>
  <style id="style870" type="text/css"/>
  <style id="style872" type="text/css"/>
  <style id="style874" type="text/css"/>
  <style id="style876" type="text/css"/>
  <style id="style878" type="text/css"/>
 </defs>
 <circle id="circle882" cx="-1124.8" cy="-1279.3" r="0" fill="#5e4aa6"/>
 <circle id="circle884" cx="-1006.3" cy="-1318.6" r="0" fill="#5e4aa6"/>
 <circle id="circle886" cx="93.192" cy="-53.109" r="0" fill="#5e4aa6" fill-rule="evenodd"/>
 <circle id="circle888" cx="-927.84" cy="-1390.1" r="0" fill="#5e4aa6"/>
 <circle id="circle890" cx="171.69" cy="-124.58" r="0" fill="#5e4aa6" fill-rule="evenodd"/>
 <rect id="rect894" x="4.5" y="4.5" width="55" height="55" ry="15" fill="#141414" filter="url(#filter1057)" opacity=".3" stroke-linecap="round" stroke-width="2.7444"/>
 <rect id="rect896" x="4.5" y="4.5" width="55" height="55" ry="15" fill="url(#linearGradient1053)" stroke-linecap="round" stroke-width="2.7444"/>
 <g id="g39" transform="matrix(1.2767 0 0 1.2767 1.3636 .089492)">
  <g id="g37">
   <!-- color: #722953 -->
   <g id="g35">
    <path id="path33" d="m14 13v13.219c0 1.602 0.188 3.051 0.535 4.375 0.352 1.297 0.922 2.441 1.715 3.402 0.793 0.965 1.809 1.695 3.109 2.238 1.305 0.512 2.922 0.762 4.828 0.762 2.191 0 4.137-0.086 5.789-0.355 1.684-0.273 3-0.574 4.02-0.813v-22.832h-4v19.793c-0.156 0.063-0.875 0.18-1.254 0.242-0.352 0.031-0.73 0.09-1.18 0.152-0.445 0.027-0.887 0.07-1.391 0.102-0.508 0.027-1.023 0.051-1.504 0.051-2.254 0-3.871-0.645-4.824-1.883-0.953-1.234-1.848-3.203-1.848-6.06v-12.398" fill="#f9f9f9"/>
   </g>
  </g>
 </g>
</svg>
