<?xml version="1.0" encoding="UTF-8"?>
<svg id="svg1829" width="128" height="128" version="1.1" viewBox="0 0 33.867 33.867" xmlns="http://www.w3.org/2000/svg" xmlns:cc="http://creativecommons.org/ns#" xmlns:dc="http://purl.org/dc/elements/1.1/" xmlns:rdf="http://www.w3.org/1999/02/22-rdf-syntax-ns#" xmlns:xlink="http://www.w3.org/1999/xlink">
 <defs id="defs1823">
  <radialGradient id="radialGradient886" cx="17.31" cy="2.5296" r="14.544" gradientTransform="matrix(7.1618 0 0 1.7511 -106.66 -1.9)" gradientUnits="userSpaceOnUse">
   <stop id="stop880" stop-color="#50ceff" offset="0"/>
   <stop id="stop882" stop-color="#3471fc" offset="1"/>
  </radialGradient>
  <linearGradient id="linearGradient1088" x1="7.1996" x2="14.016" y1="17.073" y2="42.511" gradientUnits="userSpaceOnUse">
   <stop id="stop1082" stop-color="#fff" offset="0"/>
   <stop id="stop1084" stop-color="#3471fc" offset="1"/>
  </linearGradient>
 </defs>
 <metadata id="metadata1826">
  <rdf:RDF>
   <cc:Work rdf:about="">
    <dc:format>image/svg+xml</dc:format>
    <dc:type rdf:resource="http://purl.org/dc/dcmitype/StillImage"/>
   </cc:Work>
  </rdf:RDF>
 </metadata>
 <g id="layer1">
  <g id="g1702" transform="matrix(.97573 0 0 .97573 -65.587 -37.192)" fill="none" opacity=".29676" stroke="#000" stroke-linecap="round" stroke-linejoin="round" stroke-opacity=".02">
   <rect id="rect1634" x="69.84" y="40.71" width="29.811" height="29.811" rx="6.6099" ry="6.6099" stroke-width=".1"/>
   <rect id="rect1638" x="69.84" y="40.71" width="29.811" height="29.811" rx="6.6099" ry="6.6099" stroke-width=".2"/>
   <rect id="rect1640" x="69.84" y="40.71" width="29.811" height="29.811" rx="6.6099" ry="6.6099" stroke-width=".3"/>
   <rect id="rect1642" x="69.84" y="40.71" width="29.811" height="29.811" rx="6.6099" ry="6.6099" stroke-width=".4"/>
   <rect id="rect1644" x="69.84" y="40.71" width="29.811" height="29.811" rx="6.6099" ry="6.6099" stroke-width=".5"/>
   <rect id="rect1646" x="69.84" y="40.71" width="29.811" height="29.811" rx="6.6099" ry="6.6099" stroke-width=".6"/>
   <rect id="rect1648" x="69.84" y="40.71" width="29.811" height="29.811" rx="6.6099" ry="6.6099" stroke-width=".7"/>
   <rect id="rect1650" x="69.84" y="40.71" width="29.811" height="29.811" rx="6.6099" ry="6.6099" stroke-width=".8"/>
   <rect id="rect1652" x="69.84" y="40.71" width="29.811" height="29.811" rx="6.6099" ry="6.6099"/>
   <rect id="rect1654" x="69.84" y="40.71" width="29.811" height="29.811" rx="6.6099" ry="6.6099" stroke-width="1.2"/>
   <rect id="rect1656" x="69.84" y="40.71" width="29.811" height="29.811" rx="6.6099" ry="6.6099" stroke-width="1.4"/>
   <rect id="rect1658" x="69.84" y="40.71" width="29.811" height="29.811" rx="6.6099" ry="6.6099" stroke-width="1.6"/>
   <rect id="rect1660" x="69.84" y="40.71" width="29.811" height="29.811" rx="6.6099" ry="6.6099" stroke-width="1.8"/>
   <rect id="rect1662" x="69.84" y="40.71" width="29.811" height="29.811" rx="6.6099" ry="6.6099" stroke-width="2"/>
   <rect id="rect1664" x="69.84" y="40.71" width="29.811" height="29.811" rx="6.6099" ry="6.6099" stroke-width="2.2"/>
   <rect id="rect1666" x="69.84" y="40.71" width="29.811" height="29.811" rx="6.6099" ry="6.6099" stroke-width="2.6"/>
   <rect id="rect1668" x="69.84" y="40.71" width="29.811" height="29.811" rx="6.6099" ry="6.6099" stroke-width="3"/>
   <rect id="rect1670" x="69.84" y="40.71" width="29.811" height="29.811" rx="6.6099" ry="6.6099" stroke-width="3.4"/>
   <rect id="rect1672" x="69.84" y="40.71" width="29.811" height="29.811" rx="6.6099" ry="6.6099" stroke-width="3.8"/>
   <rect id="rect1674" x="69.84" y="40.71" width="29.811" height="29.811" rx="6.6099" ry="6.6099" stroke-width="4.2"/>
   <rect id="rect1676" x="69.84" y="40.71" width="29.811" height="29.811" rx="6.6099" ry="6.6099" stroke-width="4.6"/>
   <rect id="rect1678" x="69.84" y="40.71" width="29.811" height="29.811" rx="6.6099" ry="6.6099" stroke-width="5"/>
  </g>
  <rect id="rect849-5" x="2.5579" y="2.5293" width="29.087" height="29.087" rx="6.4495" ry="6.4495" fill="url(#radialGradient886)" stroke-linecap="round" stroke-linejoin="round" stroke-width="2.6877"/>
  <g id="g2916" fill="#002496">
   <path id="path2634" d="m17.3 9.2414v0.00969l-3.5232 3.0533-4.4308-0.42136-1.9437 6.5279 4.729 4.0969 0.20096 0.45918 4.9678 2.5077 0.0087 0.0097v-0.0097l4.9678-2.5077 0.20096-0.45918 4.729-4.0969-1.9437-6.5279-4.4308 0.42136-3.5232-3.0533zm0.0087 1.5796c0.01534 0.0055 0.72172 0.613 1.5698 1.3494 1.0862 0.94316 1.5781 1.3423 1.6466 1.3494 0.05348 0.0056 0.94731-0.08179 1.9912-0.19124 1.0439-0.10944 1.9004-0.19562 1.9048-0.19123 0.02592 0.02592 1.4624 4.8671 1.4542 4.9008-0.0055 0.02249-0.89164 0.78575-1.9718 1.7038l-1.962 1.6746-0.69903-0.0097c-0.38282-0.0017-0.77362-0.016-0.87082-0.02918l-0.18151-0.01837 2.0863-1.733c1.1471-0.95152 2.0863-1.7392 2.0863-1.7514 0-0.02281-1.091-3.3825-1.1096-3.4174-0.0059-0.01096-0.7541 0.07969-1.666 0.19232l-1.6553 0.20094-0.3641-0.30684c-0.19903-0.17128-0.78665-0.68451-1.3116-1.1388l-0.95617-0.82328-0.09615 0.08643c-0.05224 0.04801-0.64306 0.56118-1.3116 1.1388l-1.2155 1.0437-1.5504-0.19232c-0.85409-0.10602-1.6109-0.1905-1.6746-0.19124-0.11504-0.0013-0.11838 0.0042-0.23013 0.35438-0.06192 0.19406-0.29832 0.94742-0.53589 1.6746-0.23757 0.72723-0.43231 1.3398-0.43109 1.3689 0.0011 0.02912 0.93455 0.82536 2.0776 1.7708l2.0766 1.7233-0.17179 0.01837c-0.09429 0.01321-0.48269 0.02825-0.87082 0.02918h-0.70876l-1.9718-1.6746c-1.3988-1.1906-1.9704-1.6985-1.962-1.7427 0.019709-0.10319 1.4477-4.8261 1.464-4.8424 0.0083-0.0083 0.86085 0.07305 1.8951 0.18151 1.0342 0.10848 1.9169 0.19109 1.9718 0.19124 0.0794 2.17e-4 0.42124-0.27743 1.666-1.3592 0.85941-0.74686 1.573-1.3452 1.5882-1.3397zm-0.01837 2.9193 0.89891 0.89026 0.89999 0.89999-0.01944 0.94753c-0.02659 1.308-0.1424 2.0979-0.43973 3.0046-0.18322 0.55871-0.42331 1.0325-0.70875 1.4175-0.19191 0.25883-0.55984 0.62124-0.63097 0.62124-0.01769 0-0.15273-0.12341-0.30684-0.27767-0.45922-0.45967-0.76346-1.0012-1.0242-1.8086-0.28365-0.87826-0.42408-1.9121-0.42136-3.13v-0.77466l0.8719-0.89999zm5.3718 1.8183c0.01606-7.31e-4 0.02481-0.0011 0.02593 0 0.01684 0.01684 0.54729 1.9116 0.56506 2.0193 0.01627 0.09809-3.9175 3.4266-4.4697 3.7815-0.0827 0.05314-0.06354-0.0028 0.13397-0.29712 0.85257-1.2703 1.4262-3.1913 1.4262-4.7852 0-0.30251 0.01335-0.4689 0.03782-0.4689 0.02085 0 0.54954-0.0633 1.1679-0.13397 0.54109-0.06185 1.0004-0.11048 1.1128-0.11561zm-10.723 0.01621c0.11759-0.0018 0.58208 0.03763 1.1204 0.0994 0.61522 0.07056 1.1271 0.13397 1.1388 0.13397 0.01166 0 0.03436 0.22857 0.04754 0.51644 0.08066 1.7751 0.58244 3.4407 1.4175 4.7095 0.13005 0.1976 0.22518 0.35717 0.21932 0.36302-0.0059 0.0059-0.18433-0.11612-0.39219-0.27767-0.59908-0.46563-3.1342-2.5889-4.0581-3.3979l-0.09616-0.09507 0.27767-1.0048c0.15155-0.55731 0.28227-1.0278 0.29712-1.0437 0.0018-2e-3 0.01124-3e-3 0.0281-0.0032zm5.3708 6.5268c0.75276 0 1.5053 0.0017 2.0766 0.0044l2.0766 0.0097-2.0668 1.0523c-1.1368 0.57722-2.0767 1.0496-2.0874 1.0534-0.01068 0.0038-0.94792-0.46266-2.0863-1.0437l-2.0766-1.0621 2.0863-0.0097c0.57167-0.0027 1.3249-0.0044 2.0776-0.0044z" enable-background="new" fill-opacity=".033858"/>
   <path id="path2906" d="m17.481 9.4843v0.00969l-3.5232 3.0533-4.4308-0.42136-1.9437 6.5279 4.729 4.0969 0.20096 0.45918 4.9678 2.5077 0.0087 0.0097v-0.0097l4.9678-2.5077 0.20096-0.45918 4.729-4.0969-1.9437-6.5279-4.4308 0.42136-3.5232-3.0533zm0.0087 1.5796c0.01534 0.0055 0.72172 0.613 1.5698 1.3494 1.0862 0.94316 1.5781 1.3423 1.6466 1.3494 0.05348 0.0056 0.94731-0.08179 1.9912-0.19124 1.0439-0.10944 1.9004-0.19562 1.9048-0.19123 0.02592 0.02592 1.4624 4.8671 1.4542 4.9008-0.0055 0.02249-0.89164 0.78575-1.9718 1.7038l-1.962 1.6746-0.69903-0.0097c-0.38282-0.0017-0.77362-0.016-0.87082-0.02918l-0.18151-0.01837 2.0863-1.733c1.1471-0.95152 2.0863-1.7392 2.0863-1.7514 0-0.02281-1.091-3.3825-1.1096-3.4174-0.0059-0.01096-0.7541 0.07969-1.666 0.19232l-1.6553 0.20094-0.3641-0.30684c-0.19903-0.17128-0.78665-0.68451-1.3116-1.1388l-0.95617-0.82328-0.09615 0.08643c-0.05224 0.04801-0.64306 0.56118-1.3116 1.1388l-1.2155 1.0437-1.5504-0.19232c-0.85409-0.10602-1.6109-0.1905-1.6746-0.19124-0.11504-0.0013-0.11838 0.0042-0.23013 0.35438-0.06192 0.19406-0.29832 0.94742-0.53589 1.6746-0.23757 0.72723-0.43231 1.3398-0.43109 1.3689 0.0011 0.02912 0.93455 0.82536 2.0776 1.7708l2.0766 1.7233-0.17179 0.01837c-0.09429 0.01321-0.48269 0.02825-0.87082 0.02918h-0.70876l-1.9718-1.6746c-1.3988-1.1906-1.9704-1.6985-1.962-1.7427 0.019709-0.10319 1.4477-4.8261 1.464-4.8424 0.0083-0.0083 0.86085 0.07305 1.8951 0.18151 1.0342 0.10848 1.9169 0.19109 1.9718 0.19124 0.0794 2.17e-4 0.42124-0.27743 1.666-1.3592 0.85941-0.74686 1.573-1.3452 1.5882-1.3397zm-0.01837 2.9193 0.89891 0.89026 0.89999 0.89999-0.01944 0.94753c-0.02659 1.308-0.1424 2.0979-0.43973 3.0046-0.18322 0.55871-0.42331 1.0325-0.70875 1.4175-0.19191 0.25883-0.55984 0.62124-0.63097 0.62124-0.01769 0-0.15273-0.12341-0.30684-0.27767-0.45922-0.45967-0.76346-1.0012-1.0242-1.8086-0.28365-0.87826-0.42408-1.9121-0.42136-3.13v-0.77466l0.8719-0.89999zm5.3718 1.8183c0.01606-7.31e-4 0.02481-0.0011 0.02593 0 0.01684 0.01684 0.54729 1.9116 0.56506 2.0193 0.01627 0.09809-3.9175 3.4266-4.4697 3.7815-0.0827 0.05314-0.06354-0.0028 0.13397-0.29712 0.85257-1.2703 1.4262-3.1913 1.4262-4.7852 0-0.30251 0.01335-0.4689 0.03782-0.4689 0.02085 0 0.54954-0.0633 1.1679-0.13397 0.54109-0.06185 1.0004-0.11048 1.1128-0.11561zm-10.723 0.01621c0.11759-0.0018 0.58208 0.03763 1.1204 0.0994 0.61522 0.07056 1.1271 0.13397 1.1388 0.13397 0.01166 0 0.03436 0.22857 0.04754 0.51644 0.08066 1.7751 0.58244 3.4407 1.4175 4.7095 0.13005 0.1976 0.22518 0.35717 0.21932 0.36302-0.0059 0.0059-0.18433-0.11612-0.39219-0.27767-0.59908-0.46563-3.1342-2.5889-4.0581-3.3979l-0.09616-0.09507 0.27767-1.0048c0.15155-0.55731 0.28227-1.0278 0.29712-1.0437 0.0018-2e-3 0.01124-3e-3 0.0281-0.0032zm5.3708 6.5268c0.75276 0 1.5053 0.0017 2.0766 0.0044l2.0766 0.0097-2.0668 1.0523c-1.1368 0.57722-2.0767 1.0496-2.0874 1.0534-0.01068 0.0038-0.94792-0.46266-2.0863-1.0437l-2.0766-1.0621 2.0863-0.0097c0.57167-0.0027 1.3249-0.0044 2.0776-0.0044z" enable-background="new" fill-opacity=".033858"/>
   <path id="path2908" d="m17.613 9.6609v0.00969l-3.5232 3.0533-4.4308-0.42136-1.9437 6.5279 4.729 4.0969 0.20096 0.45918 4.9678 2.5077 0.0087 0.0097v-0.0097l4.9678-2.5077 0.20096-0.45918 4.729-4.0969-1.9437-6.5279-4.4308 0.42136-3.5232-3.0533zm0.0087 1.5796c0.01534 0.0055 0.72172 0.613 1.5698 1.3494 1.0862 0.94316 1.5781 1.3423 1.6466 1.3494 0.05348 0.0056 0.94731-0.08179 1.9912-0.19124 1.0439-0.10944 1.9004-0.19562 1.9048-0.19123 0.02592 0.02592 1.4624 4.8671 1.4542 4.9008-0.0055 0.02249-0.89164 0.78575-1.9718 1.7038l-1.962 1.6746-0.69903-0.0097c-0.38282-0.0017-0.77362-0.016-0.87082-0.02918l-0.18151-0.01837 2.0863-1.733c1.1471-0.95152 2.0863-1.7392 2.0863-1.7514 0-0.02281-1.091-3.3825-1.1096-3.4174-0.0059-0.01096-0.7541 0.07969-1.666 0.19232l-1.6553 0.20094-0.3641-0.30684c-0.19903-0.17128-0.78665-0.68451-1.3116-1.1388l-0.95617-0.82328-0.09615 0.08643c-0.05224 0.04801-0.64306 0.56118-1.3116 1.1388l-1.2155 1.0437-1.5504-0.19232c-0.85409-0.10602-1.6109-0.1905-1.6746-0.19124-0.11504-0.0013-0.11838 0.0042-0.23013 0.35438-0.06192 0.19406-0.29832 0.94742-0.53589 1.6746-0.23757 0.72723-0.43231 1.3398-0.43109 1.3689 0.0011 0.02912 0.93455 0.82536 2.0776 1.7708l2.0766 1.7233-0.17179 0.01837c-0.09429 0.01321-0.48269 0.02825-0.87082 0.02918h-0.70876l-1.9718-1.6746c-1.3988-1.1906-1.9704-1.6985-1.962-1.7427 0.019709-0.10319 1.4477-4.8261 1.464-4.8424 0.0083-0.0083 0.86085 0.07305 1.8951 0.18151 1.0342 0.10848 1.9169 0.19109 1.9718 0.19124 0.0794 2.17e-4 0.42124-0.27743 1.666-1.3592 0.85941-0.74686 1.573-1.3452 1.5882-1.3397zm-0.01837 2.9193 0.89891 0.89026 0.89999 0.89999-0.01944 0.94753c-0.02659 1.308-0.1424 2.0979-0.43973 3.0046-0.18322 0.55871-0.42331 1.0325-0.70875 1.4175-0.19191 0.25883-0.55984 0.62124-0.63097 0.62124-0.01769 0-0.15273-0.12341-0.30684-0.27767-0.45922-0.45967-0.76346-1.0012-1.0242-1.8086-0.28365-0.87826-0.42408-1.9121-0.42136-3.13v-0.77466l0.8719-0.89999zm5.3718 1.8183c0.01606-7.31e-4 0.02481-0.0011 0.02593 0 0.01684 0.01684 0.54729 1.9116 0.56506 2.0193 0.01627 0.09809-3.9175 3.4266-4.4697 3.7815-0.0827 0.05314-0.06354-0.0028 0.13397-0.29712 0.85257-1.2703 1.4262-3.1913 1.4262-4.7852 0-0.30251 0.01335-0.4689 0.03782-0.4689 0.02085 0 0.54954-0.0633 1.1679-0.13397 0.54109-0.06185 1.0004-0.11048 1.1128-0.11561zm-10.723 0.01621c0.11759-0.0018 0.58208 0.03763 1.1204 0.0994 0.61522 0.07056 1.1271 0.13397 1.1388 0.13397 0.01166 0 0.03436 0.22857 0.04754 0.51644 0.08066 1.7751 0.58244 3.4407 1.4175 4.7095 0.13005 0.1976 0.22518 0.35717 0.21932 0.36302-0.0059 0.0059-0.18433-0.11612-0.39219-0.27767-0.59908-0.46563-3.1342-2.5889-4.0581-3.3979l-0.09616-0.09507 0.27767-1.0048c0.15155-0.55731 0.28227-1.0278 0.29712-1.0437 0.0018-2e-3 0.01124-3e-3 0.0281-0.0032zm5.3708 6.5268c0.75276 0 1.5053 0.0017 2.0766 0.0044l2.0766 0.0097-2.0668 1.0523c-1.1368 0.57722-2.0767 1.0496-2.0874 1.0534-0.01068 0.0038-0.94792-0.46266-2.0863-1.0437l-2.0766-1.0621 2.0863-0.0097c0.57167-0.0027 1.3249-0.0044 2.0776-0.0044z" enable-background="new" fill-opacity=".033858"/>
   <path id="path2910" d="m17.776 9.8841v0.00969l-3.5232 3.0533-4.4308-0.42136-1.9437 6.5279 4.729 4.0969 0.20096 0.45918 4.9678 2.5077 0.0087 0.0097v-0.0097l4.9678-2.5077 0.20096-0.45918 4.729-4.0969-1.9437-6.5279-4.4308 0.42136-3.5232-3.0533zm0.0087 1.5796c0.01534 0.0055 0.72172 0.613 1.5698 1.3494 1.0862 0.94316 1.5781 1.3423 1.6466 1.3494 0.05348 0.0056 0.94731-0.08179 1.9912-0.19124 1.0439-0.10944 1.9004-0.19562 1.9048-0.19123 0.02592 0.02592 1.4624 4.8671 1.4542 4.9008-0.0055 0.02249-0.89164 0.78575-1.9718 1.7038l-1.962 1.6746-0.69903-0.0097c-0.38282-0.0017-0.77362-0.016-0.87082-0.02918l-0.18151-0.01837 2.0863-1.733c1.1471-0.95152 2.0863-1.7392 2.0863-1.7514 0-0.02281-1.091-3.3825-1.1096-3.4174-0.0059-0.01096-0.7541 0.07969-1.666 0.19232l-1.6553 0.20094-0.3641-0.30684c-0.19903-0.17128-0.78665-0.68451-1.3116-1.1388l-0.95617-0.82328-0.09615 0.08643c-0.05224 0.04801-0.64306 0.56118-1.3116 1.1388l-1.2155 1.0437-1.5504-0.19232c-0.85409-0.10602-1.6109-0.1905-1.6746-0.19124-0.11504-0.0013-0.11838 0.0042-0.23013 0.35438-0.06192 0.19406-0.29832 0.94742-0.53589 1.6746-0.23757 0.72723-0.43231 1.3398-0.43109 1.3689 0.0011 0.02912 0.93455 0.82536 2.0776 1.7708l2.0766 1.7233-0.17179 0.01837c-0.09429 0.01321-0.48269 0.02825-0.87082 0.02918h-0.70876l-1.9718-1.6746c-1.3988-1.1906-1.9704-1.6985-1.962-1.7427 0.019709-0.10319 1.4477-4.8261 1.464-4.8424 0.0083-0.0083 0.86085 0.07305 1.8951 0.18151 1.0342 0.10848 1.9169 0.19109 1.9718 0.19124 0.0794 2.17e-4 0.42124-0.27743 1.666-1.3592 0.85941-0.74686 1.573-1.3452 1.5882-1.3397zm-0.01837 2.9193 0.89891 0.89026 0.89999 0.89999-0.01944 0.94753c-0.02659 1.308-0.1424 2.0979-0.43973 3.0046-0.18322 0.55871-0.42331 1.0325-0.70875 1.4175-0.19191 0.25883-0.55984 0.62124-0.63097 0.62124-0.01769 0-0.15273-0.12341-0.30684-0.27767-0.45922-0.45967-0.76346-1.0012-1.0242-1.8086-0.28365-0.87826-0.42408-1.9121-0.42136-3.13v-0.77466l0.8719-0.89999zm5.3718 1.8183c0.01606-7.31e-4 0.02481-0.0011 0.02593 0 0.01684 0.01684 0.54729 1.9116 0.56506 2.0193 0.01627 0.09809-3.9175 3.4266-4.4697 3.7815-0.0827 0.05314-0.06354-0.0028 0.13397-0.29712 0.85257-1.2703 1.4262-3.1913 1.4262-4.7852 0-0.30251 0.01335-0.4689 0.03782-0.4689 0.02085 0 0.54954-0.0633 1.1679-0.13397 0.54109-0.06185 1.0004-0.11048 1.1128-0.11561zm-10.723 0.01621c0.11759-0.0018 0.58208 0.03763 1.1204 0.0994 0.61522 0.07056 1.1271 0.13397 1.1388 0.13397 0.01166 0 0.03436 0.22857 0.04754 0.51644 0.08066 1.7751 0.58244 3.4407 1.4175 4.7095 0.13005 0.1976 0.22518 0.35717 0.21932 0.36302-0.0059 0.0059-0.18433-0.11612-0.39219-0.27767-0.59908-0.46563-3.1342-2.5889-4.0581-3.3979l-0.09616-0.09507 0.27767-1.0048c0.15155-0.55731 0.28227-1.0278 0.29712-1.0437 0.0018-2e-3 0.01124-3e-3 0.0281-0.0032zm5.3708 6.5268c0.75276 0 1.5053 0.0017 2.0766 0.0044l2.0766 0.0097-2.0668 1.0523c-1.1368 0.57722-2.0767 1.0496-2.0874 1.0534-0.01068 0.0038-0.94792-0.46266-2.0863-1.0437l-2.0766-1.0621 2.0863-0.0097c0.57167-0.0027 1.3249-0.0044 2.0776-0.0044z" enable-background="new" fill-opacity=".033858"/>
  </g>
  <path id="path5646" d="m17.097 8.9516v0.00969l-3.5232 3.0533-4.4308-0.42136-1.9437 6.5279 4.729 4.0969 0.20096 0.45918 4.9678 2.5077 0.0087 0.0097v-0.0097l4.9678-2.5077 0.20096-0.45918 4.729-4.0969-1.9437-6.5279-4.4308 0.42136-3.5232-3.0533zm0.0087 1.5796c0.01534 0.0055 0.72172 0.613 1.5698 1.3494 1.0862 0.94316 1.5781 1.3423 1.6466 1.3494 0.05348 0.0056 0.94731-0.08179 1.9912-0.19124 1.0439-0.10944 1.9004-0.19562 1.9048-0.19123 0.02592 0.02592 1.4624 4.8671 1.4542 4.9008-0.0055 0.02249-0.89164 0.78575-1.9718 1.7038l-1.962 1.6746-0.69903-0.0097c-0.38282-0.0017-0.77362-0.016-0.87082-0.02918l-0.18151-0.01837 2.0863-1.733c1.1471-0.95152 2.0863-1.7392 2.0863-1.7514 0-0.02281-1.091-3.3825-1.1096-3.4174-0.0059-0.01096-0.7541 0.07969-1.666 0.19232l-1.6553 0.20094-0.3641-0.30684c-0.19903-0.17128-0.78665-0.68451-1.3116-1.1388l-0.95617-0.82328-0.09615 0.08643c-0.05224 0.04801-0.64306 0.56118-1.3116 1.1388l-1.2155 1.0437-1.5504-0.19232c-0.85409-0.10602-1.6109-0.1905-1.6746-0.19124-0.11504-0.0013-0.11838 0.0042-0.23013 0.35438-0.06192 0.19406-0.29832 0.94742-0.53589 1.6746-0.23757 0.72723-0.43231 1.3398-0.43109 1.3689 0.0011 0.02912 0.93455 0.82536 2.0776 1.7708l2.0766 1.7233-0.17179 0.01837c-0.09429 0.01321-0.48269 0.02825-0.87082 0.02918h-0.70876l-1.9718-1.6746c-1.3988-1.1906-1.9704-1.6985-1.962-1.7427 0.019709-0.10319 1.4477-4.8261 1.464-4.8424 0.0083-0.0083 0.86085 0.07305 1.8951 0.18151 1.0342 0.10848 1.9169 0.19109 1.9718 0.19124 0.0794 2.17e-4 0.42124-0.27743 1.666-1.3592 0.85941-0.74686 1.573-1.3452 1.5882-1.3397zm-0.01837 2.9193 0.89891 0.89026 0.89999 0.89999-0.01944 0.94753c-0.02659 1.308-0.1424 2.0979-0.43973 3.0046-0.18322 0.55871-0.42331 1.0325-0.70875 1.4175-0.19191 0.25883-0.55984 0.62124-0.63097 0.62124-0.01769 0-0.15273-0.12341-0.30684-0.27767-0.45922-0.45967-0.76346-1.0012-1.0242-1.8086-0.28365-0.87826-0.42408-1.9121-0.42136-3.13v-0.77466l0.8719-0.89999zm5.3718 1.8183c0.01606-7.31e-4 0.02481-0.0011 0.02593 0 0.01684 0.01684 0.54729 1.9116 0.56506 2.0193 0.01627 0.09809-3.9175 3.4266-4.4697 3.7815-0.0827 0.05314-0.06354-0.0028 0.13397-0.29712 0.85257-1.2703 1.4262-3.1913 1.4262-4.7852 0-0.30251 0.01335-0.4689 0.03782-0.4689 0.02085 0 0.54954-0.0633 1.1679-0.13397 0.54109-0.06185 1.0004-0.11048 1.1128-0.11561zm-10.723 0.01621c0.11759-0.0018 0.58208 0.03763 1.1204 0.0994 0.61522 0.07056 1.1271 0.13397 1.1388 0.13397 0.01166 0 0.03436 0.22857 0.04754 0.51644 0.08066 1.7751 0.58244 3.4407 1.4175 4.7095 0.13005 0.1976 0.22518 0.35717 0.21932 0.36302-0.0059 0.0059-0.18433-0.11612-0.39219-0.27767-0.59908-0.46563-3.1342-2.5889-4.0581-3.3979l-0.09616-0.09507 0.27767-1.0048c0.15155-0.55731 0.28227-1.0278 0.29712-1.0437 0.0018-2e-3 0.01124-3e-3 0.0281-0.0032zm5.3708 6.5268c0.75276 0 1.5053 0.0017 2.0766 0.0044l2.0766 0.0097-2.0668 1.0523c-1.1368 0.57722-2.0767 1.0496-2.0874 1.0534-0.01068 0.0038-0.94792-0.46266-2.0863-1.0437l-2.0766-1.0621 2.0863-0.0097c0.57167-0.0027 1.3249-0.0044 2.0776-0.0044z" enable-background="new" fill="url(#linearGradient1088)"/>
 </g>
</svg>
