<?xml version="1.0" encoding="UTF-8"?>
<svg id="svg17" width="64" height="64" version="1.1" viewBox="0 0 16.933 16.933" xmlns="http://www.w3.org/2000/svg" xmlns:cc="http://creativecommons.org/ns#" xmlns:dc="http://purl.org/dc/elements/1.1/" xmlns:rdf="http://www.w3.org/1999/02/22-rdf-syntax-ns#" xmlns:xlink="http://www.w3.org/1999/xlink">
 <metadata id="metadata21">
  <rdf:RDF>
   <cc:Work rdf:about="">
    <dc:format>image/svg+xml</dc:format>
    <dc:type rdf:resource="http://purl.org/dc/dcmitype/StillImage"/>
    <dc:title/>
   </cc:Work>
  </rdf:RDF>
 </metadata>
 <defs id="defs7">
  <style id="style4" type="text/css"/>
  <style id="style6" type="text/css"/>
  <style id="style8" type="text/css"/>
  <filter id="filter1057" x="-.027" y="-.027" width="1.054" height="1.054" color-interpolation-filters="sRGB">
   <feGaussianBlur id="feGaussianBlur1059" stdDeviation="0.61875"/>
  </filter>
  <linearGradient id="linearGradient1053" x1="-127" x2="-127" y1="60" y2="5" gradientTransform="matrix(.26458 0 0 .26458 34.792 -.13493)" gradientUnits="userSpaceOnUse">
   <stop id="stop1047" stop-color="#02db96" offset="0"/>
   <stop id="stop1049" stop-color="#13d39b" offset="1"/>
  </linearGradient>
  <style id="style872" type="text/css"/>
  <style id="style874" type="text/css"/>
  <style id="style876" type="text/css"/>
 </defs>
 <rect id="rect1055" transform="scale(.26458)" x="4.5" y="4.5" width="55" height="55" ry="15" fill="#141414" filter="url(#filter1057)" opacity=".3" stroke-linecap="round" stroke-width="2.7444"/>
 <rect id="rect1045" x="1.1906" y="1.1906" width="14.552" height="14.552" ry="3.9687" fill="url(#linearGradient1053)" stroke-linecap="round" stroke-width=".7261"/>
 <circle id="circle855" cx="-330.38" cy="-328.5" r="0" fill="#5e4aa6" stroke-width=".26458"/>
 <g id="g867" transform="scale(.26458)" fill="#5e4aa6">
  <circle id="circle861" cx="-149.15" cy="23.855" r="0" fill-rule="evenodd"/>
  <circle id="circle863" cx="-1150.9" cy="-1256.6" r="0"/>
  <circle id="circle865" cx="-51.327" cy="8.8744" r="0" fill-rule="evenodd"/>
 </g>
 <path id="path896" d="m4.233 4.6715v2.426h0.999v0.487l1e-3 1.91c0 1.573 1.366 2.767 2.94 2.767h4.527v-4.802c0-1.575-1.365-2.767-2.94-2.767l-1.317-3e-3zm0.643 0.645 3.565 0.016v3e-3h1.319c1.27 0 2.3 0.951 2.3 2.125v3.513c0 0.39-0.352 0.645-0.753 0.645h-3.133c-1.269 0-2.298-0.951-2.298-2.125l-3e-3 -2.408a0.635 0.635 0 0 0-0.597-0.629h-0.4zm1.615 0.714v3.49c0 0.37 0.135 0.695 0.399 0.957 0.225 0.223 0.496 0.367 0.8 0.4h0.861v-0.685l-0.74-3e-3c-0.358 0-0.666-0.35-0.666-0.799v-3.36zm2.468 0.574c-0.298 0-0.562 0.11-0.775 0.325a1.087 1.087 0 0 0-0.323 0.784v1.526h0.692v-1.526c0-0.116 0.038-0.207 0.12-0.29a0.375 0.375 0 0 1 0.286-0.122c0.116 0 0.203 0.038 0.286 0.122 0.083 0.083 0.12 0.174 0.12 0.29v1.526h0.693v-1.526c0-0.116 0.038-0.207 0.12-0.29a0.374 0.374 0 0 1 0.286-0.122c0.114 0 0.202 0.038 0.285 0.122 0.083 0.083 0.12 0.174 0.12 0.29l5e-3 1.518h0.69l-2e-3 -1.518c0-0.302-0.11-0.57-0.323-0.784a1.062 1.062 0 0 0-0.775-0.325c-0.292 0-0.547 0.108-0.753 0.307a1.057 1.057 0 0 0-0.752-0.307z" fill="#fff" fill-rule="evenodd" overflow="visible"/>
 <g id="g64" transform="matrix(.26458 0 0 .26458 -17.633 2.4476e-8)" fill="#5e4aa6">
  <circle id="circle20" cx="-1248.7" cy="-1241.6" r="0"/>
  <circle id="circle22" cx="-149.15" cy="23.855" r="0" fill-rule="evenodd"/>
  <circle id="circle24" cx="-1248.7" cy="-1241.6" r="0"/>
  <circle id="circle26" cx="-149.15" cy="23.855" r="0" fill-rule="evenodd"/>
  <circle id="circle28" cx="-1150.9" cy="-1256.6" r="0"/>
  <circle id="circle30" cx="-51.327" cy="8.8744" r="0" fill-rule="evenodd"/>
  <g id="g62" transform="matrix(3.7796,0,0,3.7796,167.86,4.61)" stroke-width=".26458">
   <g id="g40" transform="translate(-.0272 .0065001)">
    <circle id="circle32" cx="-330.35" cy="-328.38" r="0"/>
    <circle id="circle34" cx="-312.11" cy="-326.25" r="0"/>
    <circle id="circle36" cx="-306.02" cy="-333.07" r="0"/>
    <circle id="circle38" cx="-308.84" cy="-326.01" r="0"/>
   </g>
   <g id="g50" transform="translate(-.0272 .0065001)">
    <circle id="circle42" cx="-330.35" cy="-328.38" r="0"/>
    <circle id="circle44" cx="-312.11" cy="-326.25" r="0"/>
    <circle id="circle46" cx="-306.02" cy="-333.07" r="0"/>
    <circle id="circle48" cx="-308.84" cy="-326.01" r="0"/>
   </g>
   <g id="g60" transform="translate(-.02705 .0064503)">
    <circle id="circle52" cx="-330.35" cy="-328.38" r="0"/>
    <circle id="circle54" cx="-312.11" cy="-326.25" r="0"/>
    <circle id="circle56" cx="-306.02" cy="-333.07" r="0"/>
    <circle id="circle58" cx="-308.84" cy="-326.01" r="0"/>
   </g>
  </g>
 </g>
</svg>
