<?xml version="1.0" encoding="UTF-8" standalone="no"?>
<svg
   id="svg47"
   width="512"
   height="512"
   version="1.1"
   viewBox="0 0 16.933 16.933"
   sodipodi:docname="distributor-logo-lfs.svg"
   inkscape:version="1.4.4 (dcaf3e7d9e, 2026-05-05)"
   xmlns:inkscape="http://www.inkscape.org/namespaces/inkscape"
   xmlns:sodipodi="http://sodipodi.sourceforge.net/DTD/sodipodi-0.dtd"
   xmlns="http://www.w3.org/2000/svg"
   xmlns:svg="http://www.w3.org/2000/svg"
   xmlns:rdf="http://www.w3.org/1999/02/22-rdf-syntax-ns#"
   xmlns:cc="http://creativecommons.org/ns#"
   xmlns:dc="http://purl.org/dc/elements/1.1/">
  <sodipodi:namedview
     id="namedview1"
     pagecolor="#ffffff"
     bordercolor="#999999"
     borderopacity="1"
     inkscape:showpageshadow="2"
     inkscape:pageopacity="0"
     inkscape:pagecheckerboard="0"
     inkscape:deskcolor="#d1d1d1"
     inkscape:zoom="2.3242188"
     inkscape:cx="255.78487"
     inkscape:cy="256"
     inkscape:window-width="2560"
     inkscape:window-height="1403"
     inkscape:window-x="0"
     inkscape:window-y="0"
     inkscape:window-maximized="1"
     inkscape:current-layer="svg47" />
  <metadata
     id="metadata51">
    <rdf:RDF>
      <cc:Work
         rdf:about="">
        <dc:format>image/svg+xml</dc:format>
        <dc:type
           rdf:resource="http://purl.org/dc/dcmitype/StillImage" />
        <dc:title />
      </cc:Work>
    </rdf:RDF>
  </metadata>
  <defs
     id="defs7">
    <style
       id="style14"
       type="text/css" />
    <style
       id="style16"
       type="text/css" />
    <filter
       id="filter1057"
       x="-0.058079999"
       y="-0.058079999"
       width="1.11616"
       height="1.11616"
       color-interpolation-filters="sRGB">
      <feGaussianBlur
         id="feGaussianBlur1059"
         stdDeviation="1.331" />
    </filter>
    <linearGradient
       id="linearGradient1053"
       x1="-127"
       x2="-127"
       y1="60"
       y2="5"
       gradientTransform="matrix(.26458 0 0 .26458 34.792 -.13493)"
       gradientUnits="userSpaceOnUse">
      <stop
         id="stop1047"
         stop-color="#dee0e2"
         offset="0" />
      <stop
         id="stop1049"
         stop-color="#f1f3f5"
         stop-opacity=".99608"
         offset="1" />
    </linearGradient>
    <filter
       inkscape:collect="always"
       style="color-interpolation-filters:sRGB"
       id="filter1"
       x="-0.079359978"
       y="-0.071094141"
       width="1.15872"
       height="1.1421883">
      <feGaussianBlur
         inkscape:collect="always"
         stdDeviation="0.34672517"
         id="feGaussianBlur1" />
    </filter>
  </defs>
  <rect
     id="rect1055"
     transform="matrix(0.26458,0,0,0.26458,0,0.33072265)"
     x="4.5"
     y="4.5"
     width="55"
     height="55"
     ry="15"
     fill="#141414"
     filter="url(#filter1057)"
     opacity="0.3"
     stroke-linecap="round"
     stroke-width="2.7444"
     style="opacity:0.15;filter:url(#filter1057)" />
  <rect
     id="rect1045"
     x="1.1906"
     y="1.1906"
     width="14.552"
     height="14.552"
     ry="3.9687"
     fill="url(#linearGradient1053)"
     stroke-linecap="round"
     stroke-width=".7261" />
  <path
     id="path918-5"
     style="stroke-width:0.418025;filter:url(#filter1);opacity:0.35"
     d="M 8.2612194,2.9449172 C 7.9830835,2.9552309 7.6682529,3.020489 7.3331936,3.1830762 6.393506,3.6380149 6.5135643,4.6242314 6.6700042,6.5941058 6.7100531,7.1243588 6.1632314,7.4785719 5.6923699,8.1742108 5.2215185,8.8662876 5.167155,9.4326453 4.8127252,10.005135 c -0.3590454,0.570457 -0.2928831,0.506851 -0.1564473,1.035578 0.00307,0.01159 0.00689,0.02425 0.011433,0.03798 -0.1175133,0.137399 -0.2593468,0.394402 -0.4557126,0.526378 h -5.168e-4 c -0.2167829,0.147066 -0.7714343,0.135347 -0.912394,0.307857 -0.1373976,0.173019 0.00607,0.423377 0.002,0.888494 0,0.198972 -0.035639,0.348098 -0.059556,0.469212 -0.035622,0.153173 -0.057451,0.260522 0.011756,0.369932 0.1251844,0.192865 0.3221198,0.242762 1.4609932,0.465143 0.6081116,0.119078 1.1846534,0.42539 1.5683489,0.45694 0.385731,0.02595 0.4691609,-0.09564 0.7037545,-0.290028 0.066453,-0.05628 0.120076,-0.0916 0.1625838,-0.123375 0.3783838,-0.158321 0.2920731,-0.104866 1.045975,-0.146888 0.831459,-0.04376 1.0555899,-0.07986 1.8572791,0.119112 0.0054,0.0013 0.0107,0.0026 0.01595,0.0039 0.04445,0.129952 0.109546,0.222335 0.170529,0.272458 0.109409,0.09312 0.274279,0.250368 0.634058,0.250368 0.361813,0 0.586268,-0.161341 0.824933,-0.385757 0.153173,-0.143504 0.315956,-0.278363 0.785143,-0.580638 0.374027,-0.238156 0.936339,-0.50075 1.047784,-0.606088 0.05547,-0.0514 0.154742,-0.101265 0.162842,-0.292095 0.0061,-0.164877 -0.135312,-0.21877 -0.234542,-0.27627 -0.138924,-0.07531 -0.524716,-0.333322 -0.705369,-0.601502 -0.109438,-0.162842 0.04578,-0.431554 -0.105353,-0.636124 v 0.0025 c -0.08184,-0.112535 -0.180518,-0.08436 -0.213613,-0.07868 0.108374,-0.164688 0.187402,-0.315931 0.220718,-0.443439 l -0.001,5.16e-4 C 12.838949,10.048873 12.25784,8.8342255 11.698733,8.0988939 11.141662,7.3635623 10.685186,6.9060421 10.460525,5.9758094 10.232275,5.0435413 10.516906,5.3122455 10.316351,4.4990553 10.218382,4.0934779 10.044006,3.7734061 9.8516595,3.5606943 9.659313,3.3439114 9.3987376,3.2187169 9.2705049,3.1551069 9.0864811,3.0631905 8.7247793,2.9277276 8.2612194,2.9449172 Z" />
  <circle
     id="circle885"
     cx="-330.38"
     cy="-328.5"
     r="0"
     fill="#5e4aa6"
     stroke-width=".26458" />
  <circle
     id="circle891"
     cx="-39.462"
     cy="6.3115"
     r="0"
     fill="#5e4aa6"
     fill-rule="evenodd"
     stroke-width=".26458" />
  <g
     id="g946"
     transform="matrix(.50888 0 0 .50888 -3.5791 -3.492)"
     stroke-width=".82146">
    <path
       id="path918"
       d="m31.933 27.34c-0.31851 1.219-2.7642 3.539-3.6229 4.66-0.85474 1.125 0.08706 2.36-1.4924 1.965-1.5754-0.391-2.0159-0.32-3.6498-0.234-1.6147 0.09-1.268-0.043-2.28 0.383-1.0079 0.422-4.3977-5.16-4.6738-6.203-0.26811-1.039-0.39814-0.914 0.30742-2.035 0.69649-1.125 0.80333-2.238 1.7286-3.598 0.92529-1.367 1.9998-2.063 1.9211-3.105-0.30742-3.871-0.54328-5.809 1.3033-6.703 1.7558-0.852 3.2284-0.344 3.807-0.055 0.25199 0.125 0.76402 0.371 1.142 0.797 0.37798 0.418 0.72068 1.047 0.9132 1.844 0.39411 1.598-0.1653 1.07 0.28323 2.902 0.44148 1.828 1.3385 2.727 2.4332 4.172 1.0987 1.445 2.2407 3.832 1.8778 5.211"
       fill="#181818" />
    <path
       id="path920"
       d="m21.695 17.859c0.19508-0.03632 0.29508-0.21891 0.36813-0.38918 0.12935-0.30151 0.33031-0.58124 0.34265-0.92295 0.01161-0.32164-0.10075-0.62841-0.29656-0.884-0.16476-0.21506-0.40019-0.35794-0.67225-0.36727-0.30318-0.0104-0.51919 0.24106-0.61375 0.49739-0.15529 0.42096-0.11673 0.89372-0.0019 1.3194 0.08711 0.3229 0.27608 0.67999 0.63114 0.75903 0.07999 0.01781 0.16497 0.01354 0.24249-0.01341"
       fill="#f9f9f9" />
    <path
       id="path922"
       d="m21.43 16.03c0.141 0 0.32 0.086 0.41 0.207 0.094 0.121 0.156 0.293 0.156 0.488 0 0.285-0.031 0.602-0.215 0.699-0.059 0.023-0.184 0.059-0.254 0.059-0.16 0-0.176-0.102-0.328-0.25-0.055-0.051-0.211-0.313-0.211-0.527 0-0.133-0.031-0.324 0.094-0.496 0.086-0.125 0.195-0.184 0.348-0.184"
       fill="#181818" />
    <path
       id="path924"
       d="m24.652 17.895c0.33516-0.02746 0.7121-0.1118 0.91714-0.39879 0.34472-0.48248 0.32077-1.1632 0.03862-1.6709-0.14507-0.26108-0.32084-0.54955-0.61882-0.64697-0.38487-0.12584-0.85707-0.08383-1.1634 0.20411-0.28117 0.2643-0.45487 0.64812-0.43384 1.0414 0.01283 0.23987 0.06147 0.4856 0.2201 0.67479 0.182 0.21708 0.33061 0.47537 0.58582 0.61699 0.14256 0.07911 0.29332 0.14399 0.45141 0.18339"
       fill="#f9f9f9" />
    <path
       id="path926"
       d="m24.594 16.01c0.359 0 0.566 0.301 0.637 0.684 0.027 0.176-0.012 0.375-0.125 0.516-0.129 0.164-0.359 0.258-0.543 0.258-0.18 0-0.375 0.027-0.484-0.105-0.105-0.141-0.125-0.445-0.125-0.668 0-0.246 0.078-0.422 0.207-0.559 0.102-0.102 0.281-0.125 0.434-0.125"
       fill="#181818" />
    <path
       id="path928"
       d="m24.758 16.221c-0.03612-0.01563-0.06644-0.01555-0.08594 2e-3h-0.0039c-0.074 0.067-4e-3 0.1055 0.08203 0.1875 0.047 0.051 0.08234 0.19572 0.15234 0.13672 0.079-0.054 0.07456-0.13238-0.02344-0.23438-0.043-0.045-0.08497-0.07617-0.12109-0.0918zm-3.166 0.09375c-0.05345-0.01453-0.10294-5e-3 -0.125 0.02539-0.043 0.062 0.0095 0.121 0.10352 0.25 0.098 0.133 0.06287 0.285 0.17188 0.25 0.043-0.012 0.05119-0.28516-0.0078-0.41016-0.0315-0.0625-0.08833-0.10048-0.14258-0.11524zm1.418 0.12109c-0.04937-0.0072-0.09177-0.0017-0.13477 0.0098-0.164 0.039-0.13684 0.10581 0.03516 0.13281 0.102 0.02 0.07403 0.01597 0.20703 0.04297 0.14 0.031 0.19931-0.05109 0.07031-0.12109-0.0725-0.0375-0.12836-0.0572-0.17773-0.06445z"
       fill="#676767" />
    <path
       id="path930"
       d="m22.461 19.977c-0.621 0.023-1.4339-1.656-1.4609-0.977v1.164c0 0.371-0.33207 0.402-0.72207 0.961-0.39327 0.61303-0.57374 1.216-0.781 1.829-0.191 0.676-0.891 1.512-1.051 2.188-0.164 0.672-0.44593 0.96-0.44593 1.858 0 0.38081 0.14893 0.783 0.43793 1.009 0.289 0.223 0.582 0.434 1.035 0.809 0.48 0.398 1.469 1.07 1.602 1.285 0.141 0.215 0.141 0.695 0.055 0.852-0.086 0.152-1.0319 0.238-1.0319 0.238s0.85193 0.9555 0.98493 1.0735c0.125 0.117 0.66 0.684 2.832 0.301 1.227-0.223 2.172-0.9635 2.859-1.5805 0.887-0.816 0.438-1.047 0.551-1.453 0.168-0.59 0.711-0.809 0.832-1.473 0.016-0.094 0.047-0.164 0.141-0.313 0.137-0.188 0.105-0.586 0.105-0.938 0-0.938-0.113-1.879-0.344-2.578-0.211-0.656-0.543-1.113-0.828-1.703-0.57-1.176-0.543-1.707-1.055-2.457-0.578-0.867-0.293-1.445-1.066-1.41-0.961 0.051-1.738 1.289-2.648 1.324"
       fill="#f9f9f9" />
    <path
       id="path932"
       d="m22.789 16.906c0.348-0.039 0.828 0.039 1.047 0.191 0.203 0.141 0.348 0.219 0.535 0.273 0.621 0.191 1.445 0.285 1.406 0.813-0.043 0.633-0.238 0.914-0.797 1.082-0.449 0.129-1.25 0.75883-1.867 0.75883-0.277 0-0.664 0.016-0.887-0.063-0.215-0.07-0.516-0.30983-0.867-0.58383-0.355-0.273-0.68-0.566-0.691-0.941-0.016-0.395 0.262-0.527 0.652-0.848 0.203-0.168 0.578-0.453 0.832-0.574 0.238-0.113 0.391-0.09 0.637-0.117"
       fill="#ffcf33" />
    <path
       id="path934"
       d="m21.988 17.371c-0.02 0.047 0.129 0.145 0.207 0.078 0.082-0.066 0.176-0.125 0.207-0.145 0.145-0.09 0.094-0.156-0.152-0.117-0.238 0.039-0.238 0.133-0.266 0.184"
       fill="#995900" />
    <path
       id="path936"
       d="m31.919 28.361c0.297 0.402-8e-3 0.93 0.207 1.25 0.355 0.527 1.1131 1.034 1.3861 1.182 0.195 0.113 0.473 0.219 0.461 0.543-0.016 0.375-0.211 0.473-0.32 0.574-0.219 0.207-1.324 0.723-2.059 1.191-0.922 0.594-1.242 0.859-1.543 1.141-0.469 0.441-0.91 0.758-1.621 0.758-0.707 0-1.031-0.309-1.246-0.492-0.219-0.18-0.465-0.637-0.441-1.316 0.02-0.68 0.25-1.293 0.359-2.348 0.047-0.453 0.043-1.012 0.043-1.508 0-0.629 0.012-1.06 0.152-1.142 0.258-0.152 0.316-0.16 0.621-0.16s0.441 0.016 0.543 0.113c0.094 0.086 0.055 0.193 0.023 0.486-0.027 0.293 0.121 0.387 0.266 0.508 0.148 0.117 0.28076 0.26933 0.746 0.301 0.6783 0.04618 1.072-0.24165 1.5543-0.655 0.12824-0.1099 0.383-0.574 0.434-0.574 0.043 0 0.25857-0.089 0.43457 0.153"
       fill="#ffcf33" />
    <path
       id="path938"
       d="m15.34 29.02c-0.426 0.289-1.516 0.266-1.793 0.605-0.27 0.34 0.012 0.832 4e-3 1.746 0 0.391-0.07 0.684-0.117 0.922-0.07 0.301-0.113 0.512 0.023 0.727 0.246 0.379 0.633 0.477 2.871 0.914 1.195 0.234 2.328 0.836 3.082 0.898 0.758 0.051 0.922-0.188 1.383-0.57 0.457-0.387 0.605-0.27 0.59-1.113-0.016-0.844-0.59-1.094-1.242-2.066-0.652-0.973-0.758-1.152-1.191-1.797-0.434-0.637-1.293-1.793-1.781-1.805-0.391-8e-3 -0.609 0.188-0.855 0.422s-0.543 0.828-0.973 1.117"
       fill="#ffcf33" />
    <path
       id="path940"
       d="m28.097 22.656c-0.07824-0.0026-0.11235 0.02428-0.08984 0.09375 0.01334 0.04117 0.78401 0.26491 1.25 1.0312 0.64914 1.0676 0.65144 1.6104 0.40625 2.7812-0.08356 0.399-0.26536 0.64231-0.24219 0.75195-0.0418 0.0046-0.0597 0.0022-0.11523 0.0098-0.285 0.039-0.47684 0.17764-0.58984 0.30664-0.10831 0.11626-0.23109 0.28568-0.17969 0.3418 0.102 0.094 0.18806-0.14075 0.28906-0.21875 0.098-0.074 0.26203-0.23828 0.58203-0.23828 0.324 0 0.30506-0.012 0.28906-0.125-0.0071-0.0669-0.06131-0.08518-0.14844-0.08594 0.17488-0.17516 0.42333-0.93813 0.48517-1.2734 0.07131-0.38663 0.08451-1.2782-0.233-1.9043-0.36646-0.72256-1.0375-1.1319-1.7033-1.4707zm2.0293 4.6641c-0.328-0.016-0.29688 0.0625-0.29688 0.0625 0 0.141 0.30547 0.19138 0.60547 0.23438 0.289 0.039 0.52306 0.09391 0.53906 0.37891 0.012 0.281-0.06269 0.48394 0.07031 0.46094 0.285-0.051 0.38672-0.33956 0.38672-0.47656 0-0.133-0.21094-0.37481-0.58594-0.50781-0.277-0.102-0.47975-0.14534-0.71875-0.15234z"
       fill="#676767" />
    <path
       id="path942"
       d="m20.988 18.797c0.133 0.086 0.137 0.098 0.328 0.219 0.309 0.234 0.852 0.289 1.117 0.297 0.613 0.09 1.707-0.449 2.137-0.691 0.219-0.152 0.621-0.473 0.773-0.477 0.094 0.094-0.043 0.109-0.238 0.234-0.258 0.176-0.477 0.324-0.871 0.531-0.418 0.207-1.063 0.547-1.887 0.5-0.434-0.059-0.438-0.063-0.703-0.191-0.16-0.105-0.523-0.285-0.656-0.422"
       fill="#995900" />
    <path
       id="path944"
       d="m23.691 17.395c0.02 0.051-0.129 0.145-0.207 0.082-0.082-0.066-0.176-0.129-0.211-0.145-0.145-0.094-0.09-0.156 0.152-0.117s0.242 0.129 0.266 0.18"
       fill="#995900" />
  </g>
  <circle
     id="circle41"
     cx="-351.96"
     cy="-333.28"
     r="0"
     fill="#5e4aa6"
     stroke-width=".26458" />
  <circle
     id="circle43"
     cx="-61.047"
     cy="1.5324"
     r="0"
     fill="#5e4aa6"
     fill-rule="evenodd"
     stroke-width=".26458" />
</svg>
