<?xml version="1.0" encoding="UTF-8"?>
<svg id="svg30" width="64" height="64" version="1.1" viewBox="0 0 64 64" xmlns="http://www.w3.org/2000/svg" xmlns:cc="http://creativecommons.org/ns#" xmlns:dc="http://purl.org/dc/elements/1.1/" xmlns:rdf="http://www.w3.org/1999/02/22-rdf-syntax-ns#" xmlns:xlink="http://www.w3.org/1999/xlink">
 <metadata id="metadata34">
  <rdf:RDF>
   <cc:Work rdf:about="">
    <dc:format>image/svg+xml</dc:format>
    <dc:type rdf:resource="http://purl.org/dc/dcmitype/StillImage"/>
    <dc:title/>
   </cc:Work>
  </rdf:RDF>
 </metadata>
 <defs id="defs12">
  <style id="style840" type="text/css"/>
  <style id="style842" type="text/css"/>
  <filter id="filter1057" x="-.027" y="-.027" width="1.054" height="1.054" color-interpolation-filters="sRGB">
   <feGaussianBlur id="feGaussianBlur844" stdDeviation="0.61875"/>
  </filter>
  <linearGradient id="linearGradient908" x1="-15.512" x2="-70.005" y1="4.6203" y2="59.113" gradientTransform="translate(75.076)" gradientUnits="userSpaceOnUse">
   <stop id="stop902" stop-color="#8792d0" offset="0"/>
   <stop id="stop904" stop-color="#6775c3" offset="1"/>
  </linearGradient>
 </defs>
 <rect id="rect854" x="4.5" y="4.5" width="55" height="55" ry="15" fill="#141414" filter="url(#filter1057)" opacity=".3" stroke-linecap="round" stroke-width="2.7444"/>
 <path id="rect898" d="m19.5 4.5c-8.31 0-15 6.69-15 15v25c0 8.31 6.69 15 15 15h25c8.31 0 15-6.69 15-15v-25c0-8.31-6.69-15-15-15z" fill="url(#linearGradient908)" stroke-width="2"/>
 <path id="path877" d="m33.14 14.525c-4.1402 3.1016-14.292 7.8334-16.566 9.1987s-2.0713 5.3713-2.0736 8.25c0.0063 1.3905 0.17827 2.7752 0.51227 4.125 6.0465-4.3982 18.576-13.759 18.128-21.574zm3.524 0.59512c-1.5963 9.1007-6.2324 21.673-14.548 31.299 2.911 1.9911 6.3557 3.0563 9.8825 3.0561 0.93551-0.0027 1.8693-0.08031 2.7924-0.23221 4.999-10.389 6.5253-22.594 1.8799-34.12l-7e-3 -0.0023zm4.412 1.9102c4.7026 11.013 4.915 16.121 4.9232 25.412 2.2659-3.0212 3.4939-6.6941 3.5007-10.471-0.0083-6.11-3.202-11.774-8.4262-14.942" fill="#fff" stroke-width="1.1669"/>
 <circle id="circle858" cx="-1411.6" cy="-1241.6" r="0" fill="#5e4aa6"/>
 <circle id="circle860" cx="-311.97" cy="23.855" r="0" fill="#5e4aa6" fill-rule="evenodd"/>
</svg>
