<?xml version="1.0" encoding="UTF-8"?>
<svg id="svg12" width="64" height="64" version="1.1" xmlns="http://www.w3.org/2000/svg" xmlns:cc="http://creativecommons.org/ns#" xmlns:dc="http://purl.org/dc/elements/1.1/" xmlns:rdf="http://www.w3.org/1999/02/22-rdf-syntax-ns#">
 <metadata id="metadata18">
  <rdf:RDF>
   <cc:Work rdf:about="">
    <dc:format>image/svg+xml</dc:format>
    <dc:type rdf:resource="http://purl.org/dc/dcmitype/StillImage"/>
    <dc:title/>
   </cc:Work>
  </rdf:RDF>
 </metadata>
 <defs id="defs16">
  <style id="style845" type="text/css"/>
  <style id="style847" type="text/css"/>
  <filter id="filter1057-9" x="-.027" y="-.027" width="1.054" height="1.054" color-interpolation-filters="sRGB">
   <feGaussianBlur id="feGaussianBlur849" stdDeviation="0.61875"/>
  </filter>
  <linearGradient id="linearGradient1053-6" x1="-127" x2="-127" y1="60" y2="5" gradientTransform="translate(131.5 -.51)" gradientUnits="userSpaceOnUse">
   <stop id="stop852" stop-color="#dee0e2" offset="0"/>
   <stop id="stop854" stop-color="#f1f3f5" stop-opacity=".99608" offset="1"/>
  </linearGradient>
 </defs>
 <rect id="rect859" x="4.5" y="4.5" width="55" height="55" ry="15" fill="#141414" filter="url(#filter1057-9)" image-rendering="optimizeSpeed" opacity=".3" stroke-linecap="round" stroke-width="2.7444"/>
 <rect id="rect861" x="4.5" y="4.5" width="55" height="55" ry="15" fill="url(#linearGradient1053-6)" image-rendering="optimizeSpeed" stroke-linecap="round" stroke-width="2.7444"/>
 <g id="g10" transform="matrix(.81818 0 0 .81818 5.8182 5.8182)">
  <path id="path4" d="m32 10a22 22 0 0 0-12.92 4.219l4.9414 4.9414a15.125 15.125 0 0 1 7.9788-2.2854 15.125 15.125 0 0 1 15.125 15.125 15.125 15.125 0 0 1-2.2935 7.9707l4.9441 4.9441a22 22 0 0 0 4.2244-12.915 22 22 0 0 0-22-22z" fill="#91cd91"/>
  <path id="path6" d="m14.224 19.085a22 22 0 0 0-4.2244 12.915 22 22 0 0 0 22 22 22 22 0 0 0 12.92-4.219l-4.9414-4.9414a15.125 15.125 0 0 1-7.9788 2.2854 15.125 15.125 0 0 1-15.125-15.125 15.125 15.125 0 0 1 2.2935-7.9707z" fill="#33855a"/>
  <circle id="circle8" cx="32" cy="32" r="8" fill="#91cd91"/>
 </g>
</svg>
