<?xml version="1.0" encoding="UTF-8"?>
<svg id="svg19" width="64" height="64" version="1.1" viewBox="0 0 16.933 16.933" xmlns="http://www.w3.org/2000/svg" xmlns:cc="http://creativecommons.org/ns#" xmlns:dc="http://purl.org/dc/elements/1.1/" xmlns:rdf="http://www.w3.org/1999/02/22-rdf-syntax-ns#" xmlns:xlink="http://www.w3.org/1999/xlink">
 <metadata id="metadata23">
  <rdf:RDF>
   <cc:Work rdf:about="">
    <dc:format>image/svg+xml</dc:format>
    <dc:type rdf:resource="http://purl.org/dc/dcmitype/StillImage"/>
    <dc:title/>
   </cc:Work>
  </rdf:RDF>
 </metadata>
 <defs id="defs7">
  <linearGradient id="b-3" x1="399.57" x2="399.57" y1="545.8" y2="517.8" gradientTransform="matrix(.56696 0 0 .56696 -218.64 -293.15)" gradientUnits="userSpaceOnUse">
   <stop id="stop850" stop-color="#3889e9" offset="0"/>
   <stop id="stop852" stop-color="#5ea5fb" offset="1"/>
  </linearGradient>
  <style id="style14" type="text/css"/>
  <style id="style16" type="text/css"/>
  <filter id="filter1057" x="-.027" y="-.027" width="1.054" height="1.054" color-interpolation-filters="sRGB">
   <feGaussianBlur id="feGaussianBlur1059" stdDeviation="0.61875"/>
  </filter>
  <linearGradient id="linearGradient1053" x1="-127" x2="-127" y1="60" y2="5" gradientTransform="matrix(.26458 0 0 .26458 34.792 -.13493)" gradientUnits="userSpaceOnUse">
   <stop id="stop1047" stop-color="#1d2123" offset="0"/>
   <stop id="stop1049" stop-color="#33393e" stop-opacity=".99608" offset="1"/>
  </linearGradient>
 </defs>
 <rect id="rect1055" transform="scale(.26458)" x="4.5" y="4.5" width="55" height="55" ry="15" fill="#141414" filter="url(#filter1057)" opacity=".3" stroke-linecap="round" stroke-width="2.7444"/>
 <rect id="rect1045" x="1.1906" y="1.1906" width="14.552" height="14.552" ry="3.9687" fill="url(#linearGradient1053)" stroke-linecap="round" stroke-width=".7261"/>
 <g id="g884" transform="translate(.00013258 1.1082e-5)" fill="#5e4aa6" stroke-width=".26458">
  <circle id="circle862" cx="-330.35" cy="-328.37" r="0" image-rendering="optimizeSpeed"/>
  <circle id="circle864" cx="-330.35" cy="-328.38" r="0" image-rendering="optimizeSpeed"/>
  <circle id="circle866" cx="-330.35" cy="-328.38" r="0" image-rendering="optimizeSpeed"/>
  <circle id="circle868" cx="-352.63" cy="-336.84" r="0" image-rendering="optimizeSpeed"/>
  <circle id="circle870" cx="-330.35" cy="-328.37" r="0" image-rendering="optimizeSpeed"/>
  <circle id="circle872" cx="-305.84" cy="-328.27" r="0" image-rendering="optimizeSpeed"/>
  <circle id="circle874" cx="-305.84" cy="-328.28" r="0" image-rendering="optimizeSpeed"/>
  <circle id="circle876" cx="-305.84" cy="-328.28" r="0" image-rendering="optimizeSpeed"/>
  <circle id="circle878" cx="-328.12" cy="-336.74" r="0" image-rendering="optimizeSpeed"/>
  <circle id="circle880" cx="-305.84" cy="-328.27" r="0" image-rendering="optimizeSpeed"/>
  <circle id="circle882" cx="-305.03" cy="-328.69" r="0"/>
 </g>
 <circle id="circle890" cx="8.469" cy="8.3459" r="7.9376" fill-opacity="0" stroke-width=".41578"/>
 <circle id="circle892" cx="8.469" cy="8.3459" r="0" fill="url(#b-3)" stroke-width=".41578"/>
 <path id="path15" d="m8.4679 3.8364a4.6301 4.6301 0 1 0 0 9.2602 4.6301 4.6301 0 0 0 0-9.2602zm0 0.38607a4.2457 4.2457 0 0 1 4.0849 3.0908 7.3638 7.3638 0 0 1-1.7991 2.346c-0.36092 0.3117-0.75355 0.59059-1.1877 0.78636-0.43529 0.19577-0.91323 0.30623-1.389 0.27889a2.4028 2.4028 0 0 1-1.0237-0.29311 7.7225 7.7225 0 0 0 2.1917-1.7674c0.40248-0.47028 0.75464-1.0062 0.88917-1.611a2.1874 2.1874 0 0 0 0.016405-0.92198 1.704 1.704 0 0 0-0.4156-0.81808 1.669 1.669 0 0 0-0.77105-0.45716 2.0277 2.0277 0 0 0-0.9001-0.03281c-0.59606 0.10937-1.1265 0.45497-1.553 0.88479-0.75246 0.75683-1.2173 1.8265-1.132 2.8895 0.043747 0.53153 0.22092 1.0543 0.52716 1.4918 0.067808 0.09734 0.14218 0.1903 0.22311 0.27889a6.9427 6.9427 0 0 1-1.3726 0.32811 4.2435 4.2435 0 0 1 3.6113-6.4746zm0.026249 0.85745c0.29858 0 0.59934 0.090776 0.83667 0.27014 0.21546 0.16187 0.37404 0.39373 0.46372 0.64527 0.09078 0.25374 0.11374 0.52934 0.08312 0.7962-0.06234 0.53372-0.33139 1.0237-0.65621 1.4513a6.2592 6.2592 0 0 1-2.4608 1.9139 2.1917 2.1917 0 0 1-0.46482-0.56981c-0.25264-0.44841-0.33576-0.98104-0.28655-1.4929 0.048122-0.51184 0.22421-1.0062 0.46044-1.4634 0.27342-0.53044 0.64746-1.0324 1.1702-1.3201 0.2603-0.14437 0.55669-0.23186 0.85417-0.23077zm4.179 2.8184a4.2435 4.2435 0 0 1-7.4775 3.2723c0.48122-0.10937 0.95151-0.26576 1.401-0.46591 0.19686 0.15093 0.4156 0.27342 0.64527 0.36201 0.66715 0.25592 1.4218 0.21874 2.0966-0.01531 0.67371-0.23296 1.272-0.65184 1.7936-1.1385a7.717 7.717 0 0 0 1.5421-2.0146z" fill="#fff" stroke-width="1.4262"/>
 <circle id="circle41" cx="-349.92" cy="-328.5" r="0" fill="#5e4aa6" stroke-width=".26458"/>
 <circle id="circle43" cx="-59.004" cy="6.3115" r="0" fill="#5e4aa6" fill-rule="evenodd" stroke-width=".26458"/>
</svg>
