<?xml version="1.0" encoding="UTF-8" standalone="no"?>
<svg
   id="svg19"
   width="512"
   height="512"
   version="1.1"
   viewBox="0 0 16.933 16.933"
   sodipodi:docname="distributor-logo-elementary.svg"
   inkscape:version="1.4.4 (dcaf3e7d9e, 2026-05-05)"
   xmlns:inkscape="http://www.inkscape.org/namespaces/inkscape"
   xmlns:sodipodi="http://sodipodi.sourceforge.net/DTD/sodipodi-0.dtd"
   xmlns="http://www.w3.org/2000/svg"
   xmlns:svg="http://www.w3.org/2000/svg"
   xmlns:rdf="http://www.w3.org/1999/02/22-rdf-syntax-ns#"
   xmlns:cc="http://creativecommons.org/ns#"
   xmlns:dc="http://purl.org/dc/elements/1.1/">
  <sodipodi:namedview
     id="namedview1"
     pagecolor="#ffffff"
     bordercolor="#999999"
     borderopacity="1"
     inkscape:showpageshadow="2"
     inkscape:pageopacity="0"
     inkscape:pagecheckerboard="0"
     inkscape:deskcolor="#d1d1d1"
     inkscape:zoom="2.3242188"
     inkscape:cx="255.78487"
     inkscape:cy="256"
     inkscape:window-width="2560"
     inkscape:window-height="1403"
     inkscape:window-x="0"
     inkscape:window-y="0"
     inkscape:window-maximized="1"
     inkscape:current-layer="svg19" />
  <metadata
     id="metadata23">
    <rdf:RDF>
      <cc:Work
         rdf:about="">
        <dc:format>image/svg+xml</dc:format>
        <dc:type
           rdf:resource="http://purl.org/dc/dcmitype/StillImage" />
        <dc:title />
      </cc:Work>
    </rdf:RDF>
  </metadata>
  <defs
     id="defs7">
    <linearGradient
       id="b-3"
       x1="399.57"
       x2="399.57"
       y1="545.8"
       y2="517.8"
       gradientTransform="matrix(.56696 0 0 .56696 -218.64 -293.15)"
       gradientUnits="userSpaceOnUse">
      <stop
         id="stop850"
         stop-color="#3889e9"
         offset="0" />
      <stop
         id="stop852"
         stop-color="#5ea5fb"
         offset="1" />
    </linearGradient>
    <style
       id="style14"
       type="text/css" />
    <style
       id="style16"
       type="text/css" />
    <filter
       id="filter1057"
       x="-0.058079999"
       y="-0.058079999"
       width="1.11616"
       height="1.11616"
       color-interpolation-filters="sRGB">
      <feGaussianBlur
         id="feGaussianBlur1059"
         stdDeviation="1.331" />
    </filter>
    <linearGradient
       id="linearGradient1053"
       x1="-127"
       x2="-127"
       y1="60"
       y2="5"
       gradientTransform="matrix(.26458 0 0 .26458 34.792 -.13493)"
       gradientUnits="userSpaceOnUse">
      <stop
         id="stop1047"
         stop-color="#1d2123"
         offset="0"
         style="stop-color:#3d3846;stop-opacity:1" />
      <stop
         id="stop1049"
         stop-color="#33393e"
         stop-opacity=".99608"
         offset="1"
         style="stop-color:#9a9996;stop-opacity:1" />
    </linearGradient>
    <filter
       inkscape:collect="always"
       style="color-interpolation-filters:sRGB"
       id="filter1"
       x="-0.074999976"
       y="-0.074999976"
       width="1.15"
       height="1.15">
      <feGaussianBlur
         inkscape:collect="always"
         stdDeviation="0.28938125"
         id="feGaussianBlur1" />
    </filter>
  </defs>
  <rect
     id="rect1055"
     transform="matrix(0.26458,0,0,0.26458,0,0.33072265)"
     x="4.5"
     y="4.5"
     width="55"
     height="55"
     ry="15"
     fill="#141414"
     filter="url(#filter1057)"
     opacity=".3"
     stroke-linecap="round"
     stroke-width="2.7444"
     style="opacity:0.15;filter:url(#filter1057)" />
  <rect
     id="rect1045"
     x="1.1906"
     y="1.1906"
     width="14.552"
     height="14.552"
     ry="3.9687"
     fill="url(#linearGradient1053)"
     stroke-linecap="round"
     stroke-width=".7261" />
  <g
     id="g884"
     transform="translate(.00013258 1.1082e-5)"
     fill="#5e4aa6"
     stroke-width=".26458">
    <circle
       id="circle862"
       cx="-330.35"
       cy="-328.37"
       r="0"
       image-rendering="optimizeSpeed" />
    <circle
       id="circle864"
       cx="-330.35"
       cy="-328.38"
       r="0"
       image-rendering="optimizeSpeed" />
    <circle
       id="circle866"
       cx="-330.35"
       cy="-328.38"
       r="0"
       image-rendering="optimizeSpeed" />
    <circle
       id="circle868"
       cx="-352.63"
       cy="-336.84"
       r="0"
       image-rendering="optimizeSpeed" />
    <circle
       id="circle870"
       cx="-330.35"
       cy="-328.37"
       r="0"
       image-rendering="optimizeSpeed" />
    <circle
       id="circle872"
       cx="-305.84"
       cy="-328.27"
       r="0"
       image-rendering="optimizeSpeed" />
    <circle
       id="circle874"
       cx="-305.84"
       cy="-328.28"
       r="0"
       image-rendering="optimizeSpeed" />
    <circle
       id="circle876"
       cx="-305.84"
       cy="-328.28"
       r="0"
       image-rendering="optimizeSpeed" />
    <circle
       id="circle878"
       cx="-328.12"
       cy="-336.74"
       r="0"
       image-rendering="optimizeSpeed" />
    <circle
       id="circle880"
       cx="-305.84"
       cy="-328.27"
       r="0"
       image-rendering="optimizeSpeed" />
    <circle
       id="circle882"
       cx="-305.03"
       cy="-328.69"
       r="0" />
  </g>
  <path
     id="path15"
     d="m 8.4679,4.1671225 a 4.630101,4.630101 0 1 0 0,9.2602025 4.630101,4.630101 0 0 0 0,-9.2602025 z m 0,0.38607 a 4.2457,4.2457 0 0 1 4.0849,3.0908 7.3638,7.3638 0 0 1 -1.7991,2.346 c -0.36092,0.3117025 -0.75355,0.5905925 -1.1877,0.7863625 -0.43529,0.19577 -0.91323,0.30623 -1.389,0.27889 A 2.4028,2.4028 0 0 1 7.1533,10.762135 7.7225,7.7225 0 0 0 9.345,8.9947325 c 0.40248,-0.47028 0.75464,-1.0062 0.88917,-1.611 a 2.1874,2.1874 0 0 0 0.0164,-0.92198 1.704,1.704 0 0 0 -0.4156,-0.81808 1.669,1.669 0 0 0 -0.77105,-0.45716 2.0277,2.0277 0 0 0 -0.9001,-0.03281 c -0.59606,0.10937 -1.1265,0.45497 -1.553,0.88479 -0.75246,0.75683 -1.2173,1.8265 -1.132,2.8895 0.043747,0.53153 0.22092,1.0543 0.52716,1.4918025 0.067808,0.09734 0.14218,0.1903 0.22311,0.27889 a 6.9427,6.9427 0 0 1 -1.3726,0.32811 4.2435,4.2435 0 0 1 3.6113,-6.4746025 z m 0.026249,0.85745 c 0.29858,0 0.59934,0.090776 0.83667,0.27014 0.21546,0.16187 0.37404,0.39373 0.46372,0.64527 0.09078,0.25374 0.11374,0.52934 0.08312,0.7962 -0.06234,0.53372 -0.33139,1.0237 -0.65621,1.4513 a 6.2592,6.2592 0 0 1 -2.4608,1.9139025 2.1917,2.1917 0 0 1 -0.46482,-0.5698125 c -0.25264,-0.44841 -0.33576,-0.98104 -0.28655,-1.4929 0.048122,-0.51184 0.22421,-1.0062 0.46044,-1.4634 0.27342,-0.53044 0.64746,-1.0324 1.1702,-1.3201 0.2603,-0.14437 0.55669,-0.23186 0.85417,-0.23077 z m 4.179,2.8184 a 4.2435,4.2435 0 0 1 -7.4775,3.2723025 c 0.48122,-0.10937 0.95151,-0.26576 1.401,-0.46591 0.19686,0.15093 0.4156,0.27342 0.64527,0.36201 0.66715,0.25592 1.4218,0.21874 2.0966,-0.01531 0.67371,-0.23296 1.272,-0.65184 1.7936,-1.138501 a 7.717,7.717 0 0 0 1.5421,-2.0146015 z"
     fill="#fff"
     stroke-width="1.4262"
     style="opacity:0.35;fill:#000000;fill-opacity:1;filter:url(#filter1)" />
  <path
     id="path15-7"
     d="m 8.4679,3.8364003 a 4.6301,4.6301 0 1 0 0,9.2601997 4.6301,4.6301 0 0 0 0,-9.2601997 z m 0,0.38607 a 4.2457,4.2457 0 0 1 4.0849,3.0908 7.3638,7.3638 0 0 1 -1.7991,2.346 C 10.39278,9.9709703 10.00015,10.24986 9.566,10.44563 9.13071,10.6414 8.65277,10.75186 8.177,10.72452 A 2.4028,2.4028 0 0 1 7.1533,10.43141 7.7225,7.7225 0 0 0 9.345,8.6640103 c 0.40248,-0.47028 0.75464,-1.0062 0.88917,-1.611 a 2.1874,2.1874 0 0 0 0.0164,-0.92198 1.704,1.704 0 0 0 -0.4156,-0.81808 1.669,1.669 0 0 0 -0.77105,-0.45716 2.0277,2.0277 0 0 0 -0.9001,-0.03281 c -0.59606,0.10937 -1.1265,0.45497 -1.553,0.88479 -0.75246,0.75683 -1.2173,1.8265 -1.132,2.8895 0.043747,0.53153 0.22092,1.0543 0.52716,1.4917997 0.067808,0.09734 0.14218,0.1903 0.22311,0.27889 a 6.9427,6.9427 0 0 1 -1.3726,0.32811 4.2435,4.2435 0 0 1 3.6113,-6.4745997 z m 0.026249,0.85745 c 0.29858,0 0.59934,0.090776 0.83667,0.27014 0.21546,0.16187 0.37404,0.39373 0.46372,0.64527 0.09078,0.25374 0.11374,0.52934 0.08312,0.7962 -0.06234,0.53372 -0.33139,1.0237 -0.65621,1.4513 A 6.2592,6.2592 0 0 1 6.760649,10.15673 2.1917,2.1917 0 0 1 6.295829,9.5869203 c -0.25264,-0.44841 -0.33576,-0.98104 -0.28655,-1.4929 0.048122,-0.51184 0.22421,-1.0062 0.46044,-1.4634 0.27342,-0.53044 0.64746,-1.0324 1.1702,-1.3201 0.2603,-0.14437 0.55669,-0.23186 0.85417,-0.23077 z m 4.179,2.8184 a 4.2435,4.2435 0 0 1 -7.4775,3.2722997 c 0.48122,-0.10937 0.95151,-0.26576 1.401,-0.46591 0.19686,0.15093 0.4156,0.27342 0.64527,0.36201 0.66715,0.25592 1.4218,0.21874 2.0966,-0.01531 0.67371,-0.23296 1.272,-0.65184 1.7936,-1.1384997 a 7.717,7.717 0 0 0 1.5421,-2.0146 z"
     fill="#ffffff"
     stroke-width="1.4262" />
</svg>
