<?xml version="1.0" encoding="UTF-8"?>
<svg id="svg8" width="64" height="64" version="1.1" viewBox="0 0 16.933 16.933" xmlns="http://www.w3.org/2000/svg" xmlns:cc="http://creativecommons.org/ns#" xmlns:dc="http://purl.org/dc/elements/1.1/" xmlns:rdf="http://www.w3.org/1999/02/22-rdf-syntax-ns#">
 <metadata id="metadata14">
  <rdf:RDF>
   <cc:Work rdf:about="">
    <dc:format>image/svg+xml</dc:format>
    <dc:type rdf:resource="http://purl.org/dc/dcmitype/StillImage"/>
    <dc:title/>
   </cc:Work>
  </rdf:RDF>
 </metadata>
 <defs id="defs12">
  <style id="style841" type="text/css"/>
  <style id="style843" type="text/css"/>
  <style id="style845" type="text/css"/>
  <style id="style850" type="text/css"/>
  <filter id="filter1057" x="-.027" y="-.027" width="1.054" height="1.054" color-interpolation-filters="sRGB">
   <feGaussianBlur id="feGaussianBlur852" stdDeviation="0.61875"/>
  </filter>
  <linearGradient id="linearGradient1053" x1="-127" x2="-127" y1="60" y2="5" gradientTransform="matrix(.26458 0 0 .26458 34.792 -.13493)" gradientUnits="userSpaceOnUse">
   <stop id="stop855" stop-color="#32d7ff" offset="0"/>
   <stop id="stop857" stop-color="#329bff" offset="1"/>
  </linearGradient>
  <style id="style860" type="text/css"/>
  <style id="style862" type="text/css"/>
  <style id="style864" type="text/css"/>
  <style id="style866" type="text/css"/>
  <style id="style868" type="text/css"/>
  <style id="style870" type="text/css"/>
  <style id="style872" type="text/css"/>
 </defs>
 <rect id="rect902" transform="scale(.26458)" x="4.5" y="4.5" width="55" height="55" ry="15" fill="#141414" filter="url(#filter1057)" opacity=".3" stroke-linecap="round" stroke-width="2.7444"/>
 <rect id="rect904" x="1.1906" y="1.1906" width="14.552" height="14.552" ry="3.9687" fill="url(#linearGradient1053)" stroke-linecap="round" stroke-width=".72611"/>
 <path id="path6" d="M7.648 4.154a12.69 12.69 0 0 0-.776.517c-.31.218-.639.502-.989.852-.304.304-.517.603-.639.897-.116.3-.157.594-.121.883.035.289.134.57.296.844a4.3 4.3 0 0 0 .654.821l2.221 2.22.708-.706-2.07-2.07c-.48-.48-.75-.902-.805-1.262-.056-.36.096-.72.456-1.08.076-.076.157-.152.243-.228l.244-.213a5.34 5.34 0 0 0 .213-.167.988.988 0 0 1 .16-.099l4.55 4.55.707-.707zM7.428 6.4l-.708.708 3.34 3.338a.985.985 0 0 1-.1.16 5.38 5.38 0 0 0-.167.213l-.213.243a5.362 5.362 0 0 1-.228.244c-.36.36-.72.512-1.08.456-.36-.056-.781-.324-1.263-.806L4.941 8.888l-.708.708 2.221 2.22a4.3 4.3 0 0 0 .822.654c.273.163.555.262.844.297.289.036.583-.005.882-.122.294-.121.593-.334.897-.638.35-.35.634-.68.852-.99.223-.314.396-.572.517-.775z" fill="#fff"/>
 <g id="g900" transform="matrix(.26458 0 0 .26458 -24.948 2.4476e-8)" fill="#5e4aa6">
  <circle id="circle876" cx="-1202" cy="-1306.3" r="0"/>
  <g id="g886" transform="matrix(3.7796,0,0,3.7796,46.634,-65.215)" stroke-width=".26458">
   <circle id="circle878" cx="-299.02" cy="-338.77" r="0"/>
   <circle id="circle880" cx="-8.1062" cy="-3.9487" r="0" fill-rule="evenodd"/>
   <circle id="circle882" cx="-278.25" cy="-357.69" r="0"/>
   <circle id="circle884" cx="12.663" cy="-22.859" r="0" fill-rule="evenodd"/>
  </g>
  <circle id="circle888" cx="-1124.8" cy="-1279.3" r="0"/>
  <g id="g898">
   <circle id="circle890" cx="-1006.3" cy="-1318.6" r="0"/>
   <circle id="circle892" cx="93.192" cy="-53.109" r="0" fill-rule="evenodd"/>
   <circle id="circle894" cx="-927.84" cy="-1390.1" r="0"/>
   <circle id="circle896" cx="171.69" cy="-124.58" r="0" fill-rule="evenodd"/>
  </g>
 </g>
 <text id="text908" x="-26.250616" y="4.3444581" font-size="3.1749px" stroke-width=".26458"><tspan id="tspan906" x="-26.250616" y="4.3444581" stroke-width=".26458"/></text>
 <g id="g952" transform="matrix(.26458 0 0 .26458 -24.948 2.4476e-8)" fill="#5e4aa6">
  <g id="g918" transform="matrix(3.7796 0 0 3.7796 .019246 -.0012424)" stroke-width=".26458">
   <circle id="circle910" cx="-330.35" cy="-328.38" r="0"/>
   <circle id="circle912" cx="-39.434" cy="6.44" r="0" fill-rule="evenodd"/>
   <circle id="circle914" cx="-330.38" cy="-328.5" r="0"/>
   <circle id="circle916" cx="-301.7" cy="-344.43" r="0"/>
  </g>
  <circle id="circle920" cx="-1274.8" cy="-1318.1" r="0"/>
  <g id="g930" transform="matrix(3.7796,0,0,3.7796,-112.84,-73.605)" image-rendering="optimizeSpeed" stroke-width=".26458">
   <circle id="circle922" cx="-330.35" cy="-328.38" r="0"/>
   <circle id="circle924" cx="-312.11" cy="-326.25" r="0"/>
   <circle id="circle926" cx="-306.02" cy="-333.07" r="0"/>
   <circle id="circle928" cx="-308.84" cy="-326.01" r="0"/>
  </g>
  <g id="g938" image-rendering="optimizeSpeed">
   <circle id="circle932" cx="-1160" cy="-1257.6" r="0"/>
   <circle id="circle934" cx="-1160" cy="-1257.6" r="0"/>
   <circle id="circle936" cx="-1244.2" cy="-1289.6" r="0"/>
  </g>
  <circle id="circle940" cx="-1124.8" cy="-1279.3" r="0" image-rendering="optimizeSpeed"/>
  <g id="g950" transform="matrix(3.7796,0,0,3.7796,123.83,-38.184)" image-rendering="optimizeSpeed" stroke-width=".26458">
   <circle id="circle942" cx="-299.02" cy="-338.77" r="0"/>
   <circle id="circle944" cx="-8.1062" cy="-3.9487" r="0" fill-rule="evenodd"/>
   <circle id="circle946" cx="-278.25" cy="-357.69" r="0"/>
   <circle id="circle948" cx="12.663" cy="-22.859" r="0" fill-rule="evenodd"/>
  </g>
 </g>
</svg>
