<?xml version="1.0" encoding="UTF-8"?>
<svg id="svg2" width="64" height="64" version="1.1" viewBox="0 0 16.933 16.933" xmlns="http://www.w3.org/2000/svg">
 <defs id="defs2">
  <filter id="filter1057-9" x="-.027" y="-.027" width="1.054" height="1.054" color-interpolation-filters="sRGB">
   <feGaussianBlur id="feGaussianBlur1" stdDeviation="0.61875"/>
  </filter>
  <linearGradient id="linearGradient1053-1" x1="-127" x2="-127" y1="60" y2="5" gradientTransform="matrix(.26458 0 0 .26458 34.791 -.13503)" gradientUnits="userSpaceOnUse">
   <stop id="stop1" stop-color="#1d2123" offset="0"/>
   <stop id="stop2" stop-color="#33393e" stop-opacity=".99608" offset="1"/>
  </linearGradient>
 </defs>
 <rect id="rect2" transform="matrix(.26458 0 0 .26458 -26.675 -.16794)" x="105.32" y="5.1345" width="55" height="55" ry="15" fill="#141414" filter="url(#filter1057-9)" opacity=".3" stroke-linecap="round" stroke-width="2.7444"/>
 <rect id="rect3" x="1.1905" y="1.1905" width="14.552" height="14.552" ry="3.9688" fill="url(#linearGradient1053-1)" stroke-linecap="round" stroke-width=".72612"/>
 <path id="path2" d="M5.773 12.546h.359c.068-.137.154-.205.256-.205.069 0 .223.034.462.102.753.171 1.352.257 1.796.257 1.745-.068 2.686-.855 2.822-2.36 0-.616-.256-1.198-.77-1.745-.41-.41-1.094-.855-2.052-1.334-1.06-.582-1.59-1.095-1.59-1.54.068-.581.496-.889 1.282-.923 1.06.034 1.78.616 2.156 1.744h.513L10.75 4.44h-.256c-.069.034-.086.05-.052.05a.499.499 0 0 1-.256.104c-.035 0-.154-.035-.36-.103-.615-.171-1.163-.257-1.642-.257-1.676.103-2.565.821-2.668 2.155.205 1.266.975 2.121 2.31 2.566 1.128.445 1.761 1.078 1.898 1.899-.069.82-.565 1.248-1.488 1.283-1.095 0-1.848-.65-2.258-1.95h-.513l.308 2.36" fill="#fff" font-family="刘德华字体叶根友仿版" font-size="62.261" font-weight="700" letter-spacing="0" word-spacing="0"/>
</svg>
