<?xml version="1.0" encoding="UTF-8"?>
<svg id="svg17" width="64" height="64" version="1.1" viewBox="0 0 16.933 16.933" xmlns="http://www.w3.org/2000/svg" xmlns:cc="http://creativecommons.org/ns#" xmlns:dc="http://purl.org/dc/elements/1.1/" xmlns:rdf="http://www.w3.org/1999/02/22-rdf-syntax-ns#" xmlns:xlink="http://www.w3.org/1999/xlink">
 <metadata id="metadata21">
  <rdf:RDF>
   <cc:Work rdf:about="">
    <dc:format>image/svg+xml</dc:format>
    <dc:type rdf:resource="http://purl.org/dc/dcmitype/StillImage"/>
    <dc:title/>
   </cc:Work>
  </rdf:RDF>
 </metadata>
 <defs id="defs7">
  <linearGradient id="d" x1="399.57" x2="399.57" y1="545.8" y2="517.8" gradientTransform="matrix(.56696 0 0 .56696 -218.64 -293.03)" gradientUnits="userSpaceOnUse">
   <stop id="stop851-3" stop-color="#3889e9" offset="0"/>
   <stop id="stop853" stop-color="#5ea5fb" offset="1"/>
  </linearGradient>
  <linearGradient id="linearGradient956" x1="399.57" x2="399.57" y1="545.8" y2="517.8" gradientTransform="matrix(.56696 0 0 .56696 -218.64 -293.16)" gradientUnits="userSpaceOnUse" xlink:href="#d"/>
  <style id="style4" type="text/css"/>
  <filter id="filter1057" x="-.027" y="-.027" width="1.054" height="1.054" color-interpolation-filters="sRGB">
   <feGaussianBlur id="feGaussianBlur1059" stdDeviation="0.61875"/>
  </filter>
  <linearGradient id="linearGradient1053" x1="-127" x2="-127" y1="60" y2="5" gradientTransform="matrix(.26458 0 0 .26458 34.792 -.13493)" gradientUnits="userSpaceOnUse">
   <stop id="stop1047" stop-color="#32d7ff" offset="0"/>
   <stop id="stop1049" stop-color="#329bff" offset="1"/>
  </linearGradient>
  <style id="style872" type="text/css"/>
  <style id="style4-5" type="text/css"/>
  <style id="style6" type="text/css"/>
  <style id="style8" type="text/css"/>
  <style id="style872-0" type="text/css"/>
  <style id="style874" type="text/css"/>
  <style id="style876" type="text/css"/>
 </defs>
 <rect id="rect1055" transform="scale(.26458)" x="4.5" y="4.5" width="55" height="55" ry="15" fill="#141414" filter="url(#filter1057)" opacity=".3" stroke-linecap="round" stroke-width="2.7444"/>
 <rect id="rect1045" x="1.1906" y="1.1906" width="14.552" height="14.552" ry="3.9687" fill="url(#linearGradient1053)" stroke-linecap="round" stroke-width=".7261"/>
 <circle id="circle870" cx="-308.78" cy="-318.95" r="0" fill="#5e4aa6" stroke-width=".26458"/>
 <circle id="circle872" cx="-17.864" cy="15.866" r="0" fill="#5e4aa6" fill-rule="evenodd" stroke-width=".26458"/>
 <circle id="circle873" cx="8.4665" cy="8.3344" r="7.9376" fill-opacity="0" stroke-width=".41578"/>
 <circle id="circle875" cx="8.4665" cy="8.3344" r="0" fill="url(#linearGradient956)" stroke-width=".41578"/>
 <circle id="circle910" cx="8.4665" cy="8.3344" r="0" fill="url(#linearGradient956)" stroke-width=".41578"/>
 <path id="path924" d="m8.4665 4.233a4.2335 4.2335 0 1 0 0 8.467 4.2335 4.2335 0 0 0 0-8.467zm-0.257 0.85c0.02 2e-3 0.037 0.014 0.046 0.032l0.418 0.879c0.203 6e-3 0.408 0.041 0.607 0.105l0.671-0.671a0.056 0.056 0 0 1 0.07-8e-3l0.534 0.325a0.057 0.057 0 0 1 0.024 0.068l-0.324 0.914c0.122 0.136 0.226 0.285 0.31 0.444h0.997c0.027 0 0.05 0.019 0.056 0.044l0.148 0.608a0.057 0.057 0 0 1-0.03 0.065l-1.25 0.273a2.044 2.044 0 0 0-2.67-1.631l-0.01-6e-3 -0.268-1.236c0-0.026 0.019-0.049 0.044-0.055l0.607-0.148c7e-3 -2e-3 0.013-2e-3 0.02-2e-3zm-1.98 0.894a0.056 0.056 0 0 1 0.037 0.01l0.95 0.865a2.038 2.038 0 0 0-0.137 3.113v0.014l-0.854 0.943a0.058 0.058 0 0 1-0.07-8e-3l-0.442-0.441a0.057 0.057 0 0 1-7e-3 -0.072l0.534-0.814a2.21 2.21 0 0 1-0.227-0.573l-0.922-0.226a0.057 0.057 0 0 1-0.043-0.055v-0.625c0-0.027 0.019-0.05 0.045-0.056l0.95-0.198c0.053-0.175 0.127-0.342 0.218-0.496l-0.517-0.852a0.057 0.057 0 0 1 8e-3 -0.07l0.442-0.442a0.055 0.055 0 0 1 0.035-0.017zm4.232 2.93 1.24 0.278c0.022 0.012 0.034 0.04 0.027 0.065l-0.162 0.603a0.057 0.057 0 0 1-0.059 0.043l-0.972-0.057a2.21 2.21 0 0 1-0.383 0.483l0.265 0.911a0.057 0.057 0 0 1-0.026 0.065l-0.542 0.312a0.057 0.057 0 0 1-0.071-0.011l-0.646-0.725c-0.178 0.042-0.359 0.062-0.538 0.06l-0.48 0.873a0.057 0.057 0 0 1-0.065 0.028l-0.604-0.163a0.057 0.057 0 0 1-0.042-0.058l0.326-1.235 6e-3 -3e-3a2.044 2.044 0 0 0 2.726-1.468z" fill="#fff"/>
 <circle id="circle869" cx="-330.94" cy="-318.95" r="0" fill="#5e4aa6" stroke-width=".26458"/>
 <circle id="circle871" cx="-40.021" cy="15.866" r="0" fill="#5e4aa6" fill-rule="evenodd" stroke-width=".26458"/>
 <circle id="circle16" cx="-341.36" cy="-341.43" r="0" fill="#5e4aa6" stroke-width=".26458"/>
 <g id="g26" transform="translate(-10.997 -13.055)" fill="#5e4aa6" stroke-width=".26458">
  <circle id="circle18" cx="-299.02" cy="-338.77" r="0"/>
  <circle id="circle20" cx="-8.1062" cy="-3.9487" r="0" fill-rule="evenodd"/>
  <circle id="circle22" cx="-278.25" cy="-357.69" r="0"/>
  <circle id="circle24" cx="12.663" cy="-22.859" r="0" fill-rule="evenodd"/>
 </g>
</svg>
