<?xml version="1.0" encoding="UTF-8" standalone="no"?>
<svg
   id="svg1443"
   width="128"
   height="128"
   version="1.1"
   viewBox="0 0 33.867 33.867"
   sodipodi:docname="distributor-logo-raspbian.svg"
   inkscape:version="1.4.2 (ebf0e940d0, 2025-05-08)"
   xmlns:inkscape="http://www.inkscape.org/namespaces/inkscape"
   xmlns:sodipodi="http://sodipodi.sourceforge.net/DTD/sodipodi-0.dtd"
   xmlns="http://www.w3.org/2000/svg"
   xmlns:svg="http://www.w3.org/2000/svg"
   xmlns:rdf="http://www.w3.org/1999/02/22-rdf-syntax-ns#"
   xmlns:cc="http://creativecommons.org/ns#"
   xmlns:dc="http://purl.org/dc/elements/1.1/">
  <sodipodi:namedview
     id="namedview1"
     pagecolor="#ffffff"
     bordercolor="#111111"
     borderopacity="1"
     inkscape:showpageshadow="0"
     inkscape:pageopacity="0"
     inkscape:pagecheckerboard="1"
     inkscape:deskcolor="#d1d1d1"
     inkscape:zoom="9.046875"
     inkscape:cx="63.944732"
     inkscape:cy="64"
     inkscape:window-width="2560"
     inkscape:window-height="1371"
     inkscape:window-x="0"
     inkscape:window-y="0"
     inkscape:window-maximized="1"
     inkscape:current-layer="svg1443" />
  <defs
     id="defs1437">
    <radialGradient
       id="radialGradient2037"
       cx="16.811"
       cy="2.5144"
       r="14.544"
       gradientTransform="matrix(37.826,0,0,2.094,-619.1,-2.7507)"
       gradientUnits="userSpaceOnUse">
      <stop
         id="stop2029"
         stop-color="#e53001"
         offset="0"
         style="stop-color:#ffffff;stop-opacity:1;" />
      <stop
         id="stop2031"
         stop-color="#c74c00"
         offset="1"
         style="stop-color:#e3ddc1;stop-opacity:1;" />
    </radialGradient>
    <linearGradient
       id="linearGradient2556"
       x1="35.256"
       x2="35.256"
       y1="62.444"
       y2="159.31"
       gradientUnits="userSpaceOnUse"
       gradientTransform="scale(0.26458)">
      <stop
         id="stop2550"
         stop-color="#fef9fa"
         offset="0"
         style="stop-color:#de4d85;stop-opacity:1;" />
      <stop
         id="stop2552"
         stop-color="#ca4a00"
         offset="1"
         style="stop-color:#ca0042;stop-opacity:1;" />
    </linearGradient>
    <linearGradient
       id="linearGradient3713"
       x1="9.989"
       x2="9.989"
       y1="5.7487"
       y2="14.78"
       gradientTransform="scale(0.99998011)"
       gradientUnits="userSpaceOnUse">
      <stop
         id="stop3707"
         stop-color="#2fa417"
         offset="0" />
      <stop
         id="stop3709"
         stop-color="#92cf35"
         stop-opacity=".96863"
         offset="1" />
    </linearGradient>
    <filter
       inkscape:collect="always"
       style="color-interpolation-filters:sRGB"
       id="filter1"
       x="-0.031765278"
       y="-0.023477949"
       width="1.0635306"
       height="1.0469559">
      <feGaussianBlur
         inkscape:collect="always"
         stdDeviation="0.21033309"
         id="feGaussianBlur1" />
    </filter>
  </defs>
  <metadata
     id="metadata1440">
    <rdf:RDF>
      <cc:Work
         rdf:about="">
        <dc:format>image/svg+xml</dc:format>
        <dc:type
           rdf:resource="http://purl.org/dc/dcmitype/StillImage" />
      </cc:Work>
    </rdf:RDF>
  </metadata>
  <g
     id="g1702"
     transform="matrix(0.97573,0,0,0.97573,-65.737,-37.183)"
     fill="none"
     opacity="0.295"
     stroke="#000000"
     stroke-linecap="round"
     stroke-linejoin="round"
     stroke-opacity="0.02">
    <rect
       id="rect1634"
       x="69.839996"
       y="40.709999"
       width="29.811001"
       height="29.811001"
       rx="6.6099"
       ry="6.6099"
       stroke-width="0.1" />
    <rect
       id="rect1638"
       x="69.839996"
       y="40.709999"
       width="29.811001"
       height="29.811001"
       rx="6.6099"
       ry="6.6099"
       stroke-width="0.2" />
    <rect
       id="rect1640"
       x="69.839996"
       y="40.709999"
       width="29.811001"
       height="29.811001"
       rx="6.6099"
       ry="6.6099"
       stroke-width="0.3" />
    <rect
       id="rect1642"
       x="69.839996"
       y="40.709999"
       width="29.811001"
       height="29.811001"
       rx="6.6099"
       ry="6.6099"
       stroke-width="0.4" />
    <rect
       id="rect1644"
       x="69.839996"
       y="40.709999"
       width="29.811001"
       height="29.811001"
       rx="6.6099"
       ry="6.6099"
       stroke-width="0.5" />
    <rect
       id="rect1646"
       x="69.839996"
       y="40.709999"
       width="29.811001"
       height="29.811001"
       rx="6.6099"
       ry="6.6099"
       stroke-width="0.6" />
    <rect
       id="rect1648"
       x="69.839996"
       y="40.709999"
       width="29.811001"
       height="29.811001"
       rx="6.6099"
       ry="6.6099"
       stroke-width="0.7" />
    <rect
       id="rect1650"
       x="69.839996"
       y="40.709999"
       width="29.811001"
       height="29.811001"
       rx="6.6099"
       ry="6.6099"
       stroke-width="0.8" />
    <rect
       id="rect1652"
       x="69.839996"
       y="40.709999"
       width="29.811001"
       height="29.811001"
       rx="6.6099"
       ry="6.6099" />
    <rect
       id="rect1654"
       x="69.839996"
       y="40.709999"
       width="29.811001"
       height="29.811001"
       rx="6.6099"
       ry="6.6099"
       stroke-width="1.2" />
    <rect
       id="rect1656"
       x="69.839996"
       y="40.709999"
       width="29.811001"
       height="29.811001"
       rx="6.6099"
       ry="6.6099"
       stroke-width="1.4" />
    <rect
       id="rect1658"
       x="69.839996"
       y="40.709999"
       width="29.811001"
       height="29.811001"
       rx="6.6099"
       ry="6.6099"
       stroke-width="1.6" />
    <rect
       id="rect1660"
       x="69.839996"
       y="40.709999"
       width="29.811001"
       height="29.811001"
       rx="6.6099"
       ry="6.6099"
       stroke-width="1.8" />
    <rect
       id="rect1662"
       x="69.839996"
       y="40.709999"
       width="29.811001"
       height="29.811001"
       rx="6.6099"
       ry="6.6099"
       stroke-width="2" />
    <rect
       id="rect1664"
       x="69.839996"
       y="40.709999"
       width="29.811001"
       height="29.811001"
       rx="6.6099"
       ry="6.6099"
       stroke-width="2.2" />
    <rect
       id="rect1666"
       x="69.839996"
       y="40.709999"
       width="29.811001"
       height="29.811001"
       rx="6.6099"
       ry="6.6099"
       stroke-width="2.6" />
    <rect
       id="rect1668"
       x="69.839996"
       y="40.709999"
       width="29.811001"
       height="29.811001"
       rx="6.6099"
       ry="6.6099"
       stroke-width="3" />
    <rect
       id="rect1670"
       x="69.839996"
       y="40.709999"
       width="29.811001"
       height="29.811001"
       rx="6.6099"
       ry="6.6099"
       stroke-width="3.4" />
    <rect
       id="rect1672"
       x="69.839996"
       y="40.709999"
       width="29.811001"
       height="29.811001"
       rx="6.6099"
       ry="6.6099"
       stroke-width="3.8" />
    <rect
       id="rect1674"
       x="69.839996"
       y="40.709999"
       width="29.811001"
       height="29.811001"
       rx="6.6099"
       ry="6.6099"
       stroke-width="4.2" />
    <rect
       id="rect1676"
       x="69.839996"
       y="40.709999"
       width="29.811001"
       height="29.811001"
       rx="6.6099"
       ry="6.6099"
       stroke-width="4.6" />
    <rect
       id="rect1678"
       x="69.839996"
       y="40.709999"
       width="29.811001"
       height="29.811001"
       rx="6.6099"
       ry="6.6099"
       stroke-width="5" />
  </g>
  <rect
     id="rect849"
     x="2.4073999"
     y="2.5392001"
     width="29.087"
     height="29.087"
     rx="6.4495001"
     ry="6.4495001"
     fill="url(#radialGradient2037)"
     stroke-linecap="round"
     stroke-linejoin="round"
     stroke-width="2.6877"
     style="fill:url(#radialGradient2037)" />
  <path
     id="path6"
     d="m 13.394,7.0701 c 0.11126,0.13998 0.2671,0.27739 0.10225,0.4382 -0.22722,-0.14659 -0.45723,-0.29384 -0.9969,-0.39803 0.12161,0.14007 0.37336,0.27988 0.22092,0.41994 C 12.43495,7.41763 12.12015,7.33666 11.77084,7.2892 11.9381,7.43132 12.07773,7.56984 11.94064,7.67993 11.63532,7.582892 11.21419,7.45229 10.80314,7.56491 l 0.26109,0.27022 c 0.02888,0.036197 -0.60896,0.028336 -1.0298,0.034696 0.15359,0.22038 0.31025,0.43399 0.40168,0.81249 -0.04171,0.043652 -0.25071,0.019397 -0.44732,0 0.2016,0.43847 0.55183,0.54817 0.63356,0.7358 -0.12315,0.09633 -0.29342,0.07098 -0.48019,0.0055 0.14514,0.30893 0.44964,0.52163 0.69016,0.77232 -0.0608,0.04459 -0.16839,0.07107 -0.41994,0.04018 0.22221,0.24401 0.49064,0.46765 0.80884,0.66825 -0.05634,0.06727 -0.24932,0.06309 -0.42907,0.06756 0.28822,0.29144 0.65838,0.44291 1.006,0.63356 -0.1733,0.1223 -0.29637,0.09478 -0.42907,0.09311 0.24588,0.20869 0.66354,0.31588 1.0517,0.44185 -0.07382,0.11852 -0.1471,0.15113 -0.30491,0.18441 0.41082,0.23486 0.99891,0.12829 1.1649,0.24831 -0.04007,0.11804 -0.15306,0.19512 -0.28848,0.25926 0.66137,0.03967 2.4705,-0.02459 2.8172,-1.4387 -0.67704,-0.76841 -1.9129,-1.6709 -4.0387,-2.7862 1.6538,0.57184 3.1458,1.3337 4.3947,2.3827 1.4683,-0.70624 0.45522,-2.488 -0.26109,-3.1952 -0.03632,0.18673 -0.07716,0.30479 -0.12416,0.3396 -0.23324,-0.25828 -0.42278,-0.52196 -0.72303,-0.7705 -9.34e-4,0.14597 0.07104,0.30412 -0.10772,0.41994 -0.16095,-0.22374 -0.37934,-0.42395 -0.66825,-0.59341 0.13915,0.2479 0.02369,0.32267 -0.05112,0.42542 -0.22066,-0.19549 -0.42933,-0.39257 -0.83623,-0.54593 z m 8.0336,0 C 21.0207,7.22346 20.8102,7.42054 20.58955,7.61602 20.51473,7.51328 20.39927,7.4385 20.538427,7.1906 c -0.28891,0.16947 -0.50547,0.36968 -0.66643,0.59339 -0.17875,-0.11582 -0.10675,-0.27396 -0.10772,-0.41994 -0.30025,0.24854 -0.49162,0.51221 -0.72485,0.7705 -0.04699,-0.034819 -0.08783,-0.15286 -0.12416,-0.3396 -0.71632,0.70717 -1.7275,2.4889 -0.25927,3.1952 1.2489,-1.049 2.7409,-1.8109 4.3947,-2.3827 -2.1258,1.1153 -3.3617,2.0178 -4.0387,2.7862 0.34673,1.4141 2.1559,1.4784 2.8172,1.4387 -0.13542,-0.06415 -0.24841,-0.14122 -0.28848,-0.25926 0.16595,-0.12002 0.75406,-0.01343 1.1649,-0.24831 -0.15781,-0.03327 -0.23292,-0.0659 -0.30674,-0.18441 0.38813,-0.12598 0.80761,-0.23316 1.0535,-0.44185 -0.13269,0.0016 -0.25759,0.02919 -0.43089,-0.09312 0.34765,-0.19065 0.71963,-0.34212 1.0079,-0.63356 -0.17975,-0.0044 -0.37455,-2.87e-4 -0.43089,-0.06756 0.3182,-0.2006 0.58663,-0.42424 0.80884,-0.66825 -0.25154,0.03089 -0.35731,0.0044 -0.41811,-0.04018 0.24052,-0.2507 0.54501,-0.46339 0.69016,-0.77232 -0.18677,0.0655 -0.35704,0.09086 -0.48019,-0.0055 0.08174,-0.18763 0.43196,-0.29734 0.63356,-0.7358 -0.19662,0.019397 -0.40562,0.043652 -0.44733,0 0.09142,-0.3785 0.2481,-0.59211 0.40168,-0.81249 -0.4208,-0.00636 -1.0586,0.0015 -1.0298,-0.034696 l 0.26109,-0.27019 c -0.41103,-0.11262 -0.83216,0.018002 -1.1375,0.11502 -0.13709,-0.11008 0.0025,-0.2486 0.1698,-0.39073 -0.34931,0.047451 -0.66593,0.12843 -0.95125,0.24101 -0.15244,-0.14007 0.09931,-0.27988 0.22092,-0.41994 -0.53967,0.10419 -0.76785,0.25145 -0.99507,0.39803 -0.16486,-0.16081 -0.009,-0.29821 0.10225,-0.4382 z m -4.0497,5.8262 c -1.1733,-0.03106 -2.2997,0.88482 -2.3024,1.4168 -0.0034,0.64644 0.92724,1.3087 2.3097,1.3255 1.4117,0.01028 2.3124,-0.5288 2.317,-1.1959 0.0051,-0.75582 -1.2831,-1.5581 -2.3243,-1.5465 z m -3.5421,0.44915 c -1.6292,0.03086 -2.8749,1.1784 -2.8172,3.0765 0.06466,0.83163 4.259,-2.8961 3.5348,-3.0199 -0.24574,-0.04222 -0.48481,-0.061 -0.71755,-0.0566 z m 6.8687,0.0639 c -0.23274,-0.0044 -0.47364,0.01431 -0.71937,0.0566 -0.7242,0.12382 3.4719,3.8515 3.5366,3.0199 0.05761,-1.8981 -1.1881,-3.0456 -2.8172,-3.0765 z m -0.69198,2.3151 a 2.7282,2.2955 58.681 0 0 -1.1996,0.32865 2.7282,2.2955 58.681 1 0 2.9706,4.5755 2.7282,2.2955 58.681 0 0 -1.771,-4.9042 z m -5.2474,0.12781 a 2.2955,2.7282 31.319 0 0 -1.771,4.9042 2.2955,2.7282 31.319 1 0 2.9706,-4.5755 2.2955,2.7282 31.319 0 0 -1.1996,-0.32865 z m 9.0908,1.415 c -1.1393,-0.31064 -0.38459,4.7955 0.54227,4.3765 1.0195,-0.83455 1.348,-3.2781 -0.54227,-4.3765 z m -13.164,0.0639 c -1.8902,1.0984 -1.5618,3.5419 -0.54227,4.3765 0.92686,0.419 1.6815,-4.6871 0.54227,-4.3765 z m 6.8213,3.2883 a 2.5464,2.3895 0 0 0 -2.6219,2.3882 2.547,2.39 0 0 0 5.094,0 2.5464,2.3895 0 0 0 -2.4722,-2.3882 z m 5.5541,0.88735 c -0.59671,0.0159 -1.3084,0.59047 -1.9847,1.3675 -0.78801,0.93926 -1.2267,2.6525 -0.65182,3.2043 0.54965,0.42865 2.0249,0.36859 3.1148,-1.1704 0.79142,-1.0336 0.52692,-2.7589 0.07486,-3.2171 -0.16788,-0.13214 -0.35432,-0.18968 -0.55322,-0.18441 z m -11.431,0.36698 c -0.2137,-0.0094 -0.41403,0.03531 -0.58974,0.14424 -0.46998,0.36399 -0.55618,1.6034 0.1132,2.8209 0.99253,1.4509 2.3901,1.5964 2.9651,1.2434 0.6078,-0.46242 0.27552,-2.0321 -0.4528,-2.925 -0.62687,-0.74018 -1.3947,-1.2556 -2.0358,-1.2836 z m 5.8134,4.2779 c -1.0166,-0.02588 -2.5751,0.41461 -2.5561,0.97864 -0.01625,0.38469 1.2238,1.4943 2.4886,1.4387 1.2213,0.02142 2.4837,-1.087 2.4667,-1.5775 -0.0026,-0.50507 -1.3761,-0.88531 -2.3991,-0.83988 z"
     opacity="0.2"
     stroke-width="0.46741"
     style="filter:url(#filter1)" />
  <path
     id="path8"
     d="m 13.393833,6.6025939 c 0.111206,0.1399893 0.266671,0.276883 0.1018,0.4376947 C 13.268412,6.893706 13.040026,6.747081 12.500363,6.6428894 12.621974,6.7829528 12.873447,6.9229474 12.721017,7.063016 12.435694,6.9504372 12.119997,6.8686238 11.770699,6.821174 11.937895,6.9632958 12.077294,7.102793 11.940194,7.2128847 11.634868,7.1158474 11.214345,6.9850284 10.80332,7.0976469 l 0.260447,0.2707712 c 0.02888,0.036197 -0.609089,0.027746 -1.029904,0.034107 0.153584,0.2203739 0.310617,0.4333291 0.402029,0.8118372 -0.04171,0.043653 -0.250382,0.019396 -0.4470075,0 0.2015945,0.438462 0.5518345,0.5492681 0.6335365,0.7369083 -0.123151,0.096402 -0.294345,0.071188 -0.481112,0.00568 0.145149,0.3089236 0.449865,0.5208258 0.690395,0.7715153 -0.06081,0.0446 -0.167035,0.071196 -0.418565,0.040306 0.222202,0.2440091 0.490531,0.4670631 0.808715,0.6676411 -0.05634,0.06737 -0.250198,0.06433 -0.429943,0.06873 0.288207,0.291435 0.659519,0.442907 1.007151,0.633537 -0.1733,0.1223 -0.297256,0.09358 -0.429943,0.09198 0.245882,0.208682 0.66399,0.316887 1.052129,0.442854 -0.07382,0.118513 -0.147596,0.151213 -0.305405,0.184481 0.410814,0.234786 0.998816,0.127506 1.164761,0.247528 -0.04007,0.118047 -0.152925,0.194747 -0.28834,0.258897 0.661371,0.03967 2.470119,-0.02504 2.816719,-1.439183 -0.677034,-0.768394 -1.912649,-1.6705321 -4.038549,-2.7857633 1.65381,0.5718368 3.146121,1.3343563 4.394938,2.3832843 1.468234,-0.7062175 0.455872,-2.4874494 -0.260447,-3.1945395 -0.03632,0.1867247 -0.07757,0.3046903 -0.124538,0.3395091 -0.23323,-0.2582777 -0.423725,-0.5229953 -0.72397,-0.7715153 -10e-4,0.1459714 0.07127,0.3043199 -0.107486,0.4201266 -0.160949,-0.2237104 -0.378243,-0.4232487 -0.667138,-0.5927121 0.139153,0.2478955 0.02366,0.3230521 -0.05116,0.425815 -0.220652,-0.195477 -0.43026,-0.3933775 -0.837158,-0.5467281 z m 8.032914,0 C 21.019849,6.7559498 20.810249,6.9538503 20.589589,7.149322 20.514779,7.0465777 20.399795,6.9714078 20.538946,6.723507 20.250051,6.8929731 20.032249,7.0925167 19.871305,7.3162191 19.692554,7.2004018 19.764809,7.0420613 19.763819,6.8960925 19.463574,7.1446284 19.273076,7.4093248 19.039849,7.6676078 18.992859,7.632789 18.951627,7.5148234 18.915311,7.3280987 18.199014,8.0352681 17.187154,9.8164736 18.655382,10.522638 19.904279,9.4736838 21.396696,8.7111907 23.050321,8.1393539 20.9245,9.2546644 19.688303,10.156776 19.011242,10.925117 c 0.346733,1.414127 2.155481,1.478843 2.816719,1.439183 -0.135425,-0.06415 -0.248284,-0.14085 -0.288339,-0.258897 0.16595,-0.120022 0.754476,-0.01274 1.16529,-0.247528 -0.157807,-0.03327 -0.231587,-0.06597 -0.305405,-0.184481 0.388139,-0.125975 0.806228,-0.234177 1.052129,-0.442854 -0.132687,0.0016 -0.256643,0.03032 -0.429943,-0.09198 0.347632,-0.190648 0.718441,-0.342102 1.006648,-0.633537 -0.179745,-0.0044 -0.373587,-0.0013 -0.429943,-0.06873 0.318184,-0.200594 0.58705,-0.423645 0.809245,-0.6676409 -0.251539,0.03089 -0.357765,0.00429 -0.418566,-0.040306 0.240522,-0.2506922 0.544717,-0.4625917 0.689866,-0.7715153 -0.186767,0.065505 -0.357448,0.090717 -0.480583,-0.00568 0.08174,-0.1876296 0.431953,-0.2984463 0.633537,-0.7369083 -0.196615,0.019396 -0.405284,0.043653 -0.447008,0 0.09142,-0.3785081 0.24794,-0.5914421 0.401526,-0.8118372 -0.420788,-0.00636 -1.058267,0.00209 -1.029375,-0.034107 l 0.259929,-0.2707712 c -0.411025,-0.1126185 -0.831548,0.018198 -1.136874,0.1152378 -0.137084,-0.1100759 0.0028,-0.2495809 0.170014,-0.3917107 -0.349298,0.04745 -0.664995,0.1292632 -0.950318,0.241842 -0.152438,-0.1400528 0.09905,-0.2800579 0.220654,-0.4201266 -0.539664,0.1041916 -0.768578,0.2508034 -0.9958,0.3973992 -0.164854,-0.1608117 -0.0094,-0.2977054 0.101803,-0.4376947 z"
     fill="url(#linearGradient3713)"
     stroke-width="0.0315591"
     style="fill:url(#linearGradient3713)" />
  <path
     id="path12"
     d="m 17.322846,12.427587 c -1.153277,-0.0017 -2.24422,0.895312 -2.246866,1.419022 -0.0034,0.646422 0.927485,1.308163 2.309916,1.324964 1.411719,0.01028 2.312588,-0.529716 2.317138,-1.196801 0.0051,-0.7558 -1.283742,-1.558324 -2.32489,-1.546656 -0.01833,-4.76e-4 -0.03699,-4.76e-4 -0.05529,-5.29e-4 z m -3.400382,0.450104 c -1.671907,-0.0093 -2.962767,1.144784 -2.904294,3.0768 0.06466,0.831628 4.259738,-2.896092 3.535582,-3.019916 -0.215016,-0.03695 -0.426159,-0.0557 -0.631473,-0.05684 z m 6.694668,0.06356 c -0.205322,0.0011 -0.416449,0.0199 -0.631473,0.05684 -0.724182,0.12381 3.471025,3.851491 3.535582,3.019916 0.05864,-1.931989 -1.232281,-3.086061 -2.904294,-3.076801 z m -0.679018,2.314546 a 2.7280844,2.2954961 58.681 0 0 -1.124994,0.330725 2.7281542,2.2955549 58.681 1 0 2.970968,4.575382 2.7280844,2.2954961 58.681 0 0 -1.845868,-4.906107 z m -5.098457,0.127122 a 2.2954961,2.7280844 31.319 0 0 -1.845869,4.906636 2.295555,2.7281543 31.319 1 0 2.970969,-4.575382 2.2954961,2.7280844 31.319 0 0 -1.124994,-0.331254 z m 8.915023,1.404021 c -0.990614,0.01671 -0.25452,4.796306 0.643353,4.39044 1.019506,-0.834538 1.348115,-3.278675 -0.542071,-4.376947 -0.0356,-0.0097 -0.06933,-0.01398 -0.101284,-0.01344 z M 10.792906,16.8505 c -0.03196,-5.3e-4 -0.06568,0.0037 -0.101284,0.01344 -1.8901857,1.098404 -1.5616038,3.542462 -0.542071,4.376947 0.897878,0.405919 1.633966,-4.373772 0.643352,-4.390441 z m 6.645456,3.298518 a 2.5463708,2.389422 0 0 0 -2.546583,2.391036 2.5465825,2.3896206 0 1 0 5.093165,0 2.5463708,2.389422 0 0 0 -2.546582,-2.391036 z m 5.627881,0.890894 c -0.596707,0.01583 -1.308057,0.590807 -1.98435,1.367852 -0.787998,0.939259 -1.226487,2.652679 -0.651634,3.204329 0.549639,0.428646 2.025122,0.368454 3.1149,-1.170449 0.791412,-1.033582 0.525959,-2.75957 0.0739,-3.217822 -0.167882,-0.132142 -0.354035,-0.189241 -0.55292,-0.183965 z m -11.510288,0.365861 c -0.183777,0.0038 -0.355781,0.04991 -0.509528,0.14521 -0.469974,0.363983 -0.5562,1.602958 0.113171,2.820423 0.992519,1.45093 2.388602,1.596317 2.963561,1.243314 0.607793,-0.462433 0.276142,-2.030916 -0.452168,-2.923874 -0.652983,-0.771012 -1.458735,-1.298902 -2.115079,-1.28517 z m 6.089044,4.274555 c -0.06625,-4.23e-4 -0.131914,7.67e-4 -0.19585,0.0036 -1.016569,-0.02588 -2.575316,0.4142 -2.556399,0.978231 -0.01625,0.384699 1.223895,1.494692 2.488693,1.439183 1.221301,0.02143 2.482924,-1.086683 2.465965,-1.577135 -0.0025,-0.473492 -1.208707,-0.837633 -2.202417,-0.843878 z"
     fill="url(#linearGradient2556)"
     stroke-width="0.0356495"
     style="fill:url(#linearGradient2556)" />
</svg>
