<?xml version="1.0" encoding="UTF-8"?>
<svg id="svg3" width="64" height="64" version="1.1" viewBox="0 0 16.933 16.933" xmlns="http://www.w3.org/2000/svg">
 <defs id="defs3">
  <filter id="filter1057" x="-.027" y="-.027" width="1.054" height="1.054" color-interpolation-filters="sRGB">
   <feGaussianBlur id="feGaussianBlur1" stdDeviation="0.61875"/>
  </filter>
  <linearGradient id="linearGradient1053" x1="-127" x2="-127" y1="60" y2="5" gradientTransform="matrix(.26458 0 0 .26458 34.793 -.13499)" gradientUnits="userSpaceOnUse">
   <stop id="stop1" stop-color="#323741" offset="0"/>
   <stop id="stop2" stop-color="#465064" offset="1"/>
  </linearGradient>
 </defs>
 <rect id="rect2" transform="matrix(.26458 0 0 .26458 -6.016e-5 -6.016e-5)" x="4.5" y="4.5" width="55" height="55" ry="15" fill="#141414" filter="url(#filter1057)" opacity=".3" stroke-linecap="round" stroke-width="2.7444"/>
 <path id="rect3" d="m15.742 11.293c-1.4272 1.2341-3.6131 2.6252-5.8497 2.9512-2.6707 0.38841-5.522-0.4219-8.2727-0.6754 0.6534 1.2911 1.988 2.174 3.5392 2.174h6.6145c2.1987 0 3.9687-1.77 3.9687-3.9687v-0.4811z" fill="#5294e2"/>
 <path id="path10" d="m15.742 10.499c-1.3022 1.3121-3.3611 2.0475-5.7608 2.3967-2.6939 0.39077-5.7903 0.29889-8.6081 0.074929 0.065208 0.20765 0.14973 0.40617 0.24649 0.59737 2.7507 0.2535 5.602 1.0638 8.2727 0.6754 2.2365-0.32603 4.4224-1.717 5.8497-2.9512v-0.79322z" fill="#fff"/>
 <path id="path9" d="m5.1593 1.1906c-2.1987 0-3.9687 1.77-3.9687 3.9687v6.6145c0 0.41768 0.064368 0.81977 0.18293 1.1973 2.8178 0.22396 5.9142 0.31584 8.6081-0.074929 2.3997-0.34925 4.4586-1.0846 5.7608-2.3967v-5.3401c0-2.1987-1.77-3.9687-3.9687-3.9687h-6.6145z" fill="url(#linearGradient1053)"/>
 <path id="path8" d="m6.0715 3.1707c-0.663 2.705-2.57 6.031-3.771 8.154 2.093 0.503 4.416 0.65 6.216 0.814-0.03-0.408-0.334-4.85-0.408-5.707-0.74-1.342-1.342-2.036-2.037-3.261zm2.547 3.464c0.983 2.023 0.983 4.025 0.408 5.503 0.81 5e-3 2.133 0.096 3.567-0.612-1.179-2.69-3.975-4.891-3.975-4.891zm1.937 1.224c0.609 0.408 1.19 0.78 1.63 1.222 0.596 0.597 0.9 1.405 0.816 2.243 0.798-0.402 1.327-1.071 1.631-1.631-0.532-0.49-1.454-0.973-2.447-1.325a23.68 23.68 0 0 0-1.631-0.51z" fill="#fff" fill-rule="evenodd"/>
</svg>
