<?xml version="1.0" encoding="UTF-8"?>
<svg id="svg9" width="64" height="64" version="1.1" viewBox="0 0 16.933 16.933" xmlns="http://www.w3.org/2000/svg">
 <defs id="defs9">
  <filter id="filter1057" x="-.027" y="-.027" width="1.054" height="1.054" color-interpolation-filters="sRGB">
   <feGaussianBlur id="feGaussianBlur1" stdDeviation="0.61875"/>
  </filter>
  <linearGradient id="linearGradient1053" x1="-127" x2="-127" y1="60" y2="5" gradientTransform="matrix(.26458 0 0 .26458 34.793 -.13505)" gradientUnits="userSpaceOnUse">
   <stop id="stop1" stop-color="#dee0e2" offset="0"/>
   <stop id="stop2" stop-color="#f1f3f5" stop-opacity=".99608" offset="1"/>
  </linearGradient>
 </defs>
 <rect id="rect2" transform="matrix(.26458 0 0 .26458 -6.0163e-5 -6.0163e-5)" x="4.5" y="4.5" width="55" height="55" ry="15" fill="#141414" filter="url(#filter1057)" opacity=".3" stroke-linecap="round" stroke-width="2.7444"/>
 <rect id="rect3" x="1.1905" y="1.1905" width="14.552" height="14.552" ry="3.9687" fill="url(#linearGradient1053)" stroke-linecap="round" stroke-width=".72611"/>
 <path id="path2" d="m8.4655 2.4568-1.3708 1.3722h0.98578v3.1527l0.38498 0.38644 0.38644-0.38644v-3.1527h0.98578z" fill="#efa724" stroke-width="1.4582"/>
 <path id="path3" d="m13.095 7.0868v0.98724h-3.1513l-0.38644 0.38498 0.38644 0.38644h3.1527v0.98578l1.3722-1.3708" fill="#262577" stroke-width="1.4582"/>
 <path id="path4" d="m8.4655 9.5498-0.38498 0.38644v3.1527h-0.98724l1.3722 1.3722 1.3722-1.3708h-0.98578v-3.1557" fill="#9ccd2a" stroke-width="1.4582"/>
 <path id="path5" d="m3.8356 7.0868-1.3708 1.3722 1.3708 1.3722v-0.98578h3.1527l0.38644-0.38644-0.38644-0.38498h-3.1527" fill="#932279" stroke-width="1.4582"/>
 <path id="path6" d="m9.237 9.2319v0.54539l2.2297 2.2297-0.69704 0.69704h1.9395v-1.9409l-0.69559 0.69704-2.2311-2.2282zm1.0922 0 1.6843 1.6828 0.69704-0.69704v-0.98724h-2.3813zm-1.0922 1.0908v2.3813h0.98724l0.69704-0.69704-1.6828-1.6843z" fill="#efa724" stroke-width="1.4582"/>
 <path id="path7" d="m4.222 9.2319v0.98578l0.69704 0.69704 1.6843-1.6814h-2.3813zm2.9267 0-2.2311 2.2282-0.69559-0.69704v1.9395h1.9395l-0.69559-0.69559 2.2282-2.2311v-0.54247zm0.54539 1.0908-1.6828 1.6843 0.69704 0.69704h0.98578z" fill="#262577" stroke-width="1.4582"/>
 <path id="path8" d="m9.237 4.2155v2.3813l1.6843-1.6843-0.69704-0.69704zm1.5326 0 0.69704 0.69704-2.2282 2.2297v0.54539h0.54539l2.2297-2.2282 0.69704 0.69704v-1.9409zm1.2439 1.7893-1.6843 1.6828h2.3813v-0.98578l-0.69704-0.6985z" fill="#932279" stroke-width="1.4582"/>
 <path id="path9" d="m4.222 4.2155v1.9395l0.69704-0.69559 2.2297 2.2282h0.54539v-0.54539l-2.2268-2.2297 0.69704-0.69704zm2.4863 0-0.6985 0.69704 1.6843 1.6843v-2.3813h-0.98724zm-1.7893 1.7893-0.69704 0.69704v0.98578h2.3813z" fill="#9ccd2a" stroke-width="1.4582"/>
</svg>
