<?xml version="1.0" encoding="UTF-8"?>
<svg id="svg2" width="64" height="64" version="1.1" viewBox="0 0 16.933 16.933" xmlns="http://www.w3.org/2000/svg" xmlns:xlink="http://www.w3.org/1999/xlink">
 <defs id="defs2">
  <filter id="filter1057" x="-.027" y="-.027" width="1.054" height="1.054" color-interpolation-filters="sRGB">
   <feGaussianBlur id="feGaussianBlur1059" stdDeviation="0.61875"/>
  </filter>
  <linearGradient id="linearGradient1053" x1="-127" x2="-127" y1="60" y2="5" gradientTransform="matrix(.26458 0 0 .26458 34.792 -.13493)" gradientUnits="userSpaceOnUse">
   <stop id="stop1047" stop-color="#8cd750" offset="0"/>
   <stop id="stop989" stop-color="#7dcd32" stop-opacity=".99608" offset=".49585"/>
   <stop id="stop1049" stop-color="#87d241" stop-opacity=".99608" offset="1"/>
  </linearGradient>
 </defs>
 <rect id="rect1055" transform="scale(.26458)" x="4.5" y="4.5" width="55" height="55" ry="15" fill="#141414" filter="url(#filter1057)" opacity=".3" stroke-linecap="round" stroke-width="2.7444"/>
 <rect id="rect1045" x="1.1906" y="1.1906" width="14.552" height="14.552" ry="3.9687" fill="url(#linearGradient1053)" stroke-linecap="round" stroke-width=".7261"/>
 <path id="path2" d="m8.4679 3.7041a4.7624 4.7624 0 1 0 0 9.5248 4.7624 4.7624 0 0 0 0-9.5248zm0 1.0586a3.7044 3.7044 0 1 1 0 7.4077 3.6763 3.6763 0 0 1-2.5142-0.99219c0.21374-0.02925 0.55122-0.03375 0.99219 0.01687 0.64459 0.07312 0.99782 0.09787 1.4219 0.06637 0.96744-0.07312 1.6064-0.23286 2.3151-0.57934 0.37123-0.17999 0.44997-0.26211 0.52872-0.47922 0.07762-0.20586 0.10574-0.3971 0.0675-0.3971-0.01462 0-0.13612 0.04725-0.28123 0.11587-0.54559 0.25874-1.0237 0.38585-1.4399 0.36448-0.43085-0.0225-1.1272-0.27448-1.9664-0.67834l-0.39711-0.18223-0.29811-0.74358 0.28123 0.18111a8.3526 8.3526 0 0 0 1.7369 0.8437c0.72221 0.22836 1.2858 0.19686 1.8674-0.09899 0.20586-0.10462 0.59621-0.35998 0.59621-0.3971 0-0.067496-0.20024-0.73796-0.31498-1.0417-0.28573-0.75821-0.4871-1.0147-0.95844-1.2397-0.52422-0.24974-1.1047-0.4196-2.1666-0.66146-0.50622-0.10799-1.0057-0.21711-1.5209-0.28123l-0.016874 0.62771a17.121 17.121 0 0 0-0.97532-0.26436 3.7123 3.7123 0 0 1 3.0429-1.5862zm0.87632 2.6785a0.78745 0.78745 0 0 1 0.7762 0.61196c0.05062 0.19686 0.03487 0.33748-0.06525 0.54559a0.76046 0.76046 0 0 1-0.82682 0.41398 0.77283 0.77283 0 0 1-0.57934-0.4466c-0.13724-0.29811-0.073121-0.69408 0.16537-0.91007a0.81783 0.81783 0 0 1 0.52872-0.21374zm0.18111 0.41398c-0.27673 0-0.44997 0.20249-0.29698 0.34648 0.12374 0.11699 0.33073 0.13499 0.49497 0.050622 0.10799-0.055122 0.14399-0.13837 0.11699-0.24749-0.02025-0.08212-0.17999-0.14962-0.31498-0.14962z" fill="#fff" overflow="visible" stroke-width="1.1249"/>
</svg>
