<?xml version="1.0" encoding="UTF-8"?>
<svg id="svg1443" width="128" height="128" version="1.1" viewBox="0 0 33.867 33.867" xmlns="http://www.w3.org/2000/svg" xmlns:cc="http://creativecommons.org/ns#" xmlns:dc="http://purl.org/dc/elements/1.1/" xmlns:rdf="http://www.w3.org/1999/02/22-rdf-syntax-ns#">
 <defs id="defs1437">
  <radialGradient id="radialGradient2037" cx="16.811" cy="2.5144" r="14.544" gradientTransform="matrix(37.826,0,0,2.094,-619.1,-2.7507)" gradientUnits="userSpaceOnUse">
   <stop id="stop2029" stop-color="#fff" offset="0"/>
   <stop id="stop2031" stop-color="#e3ddc1" offset="1"/>
  </radialGradient>
  <linearGradient id="linearGradient2556" x1="35.256" x2="35.256" y1="62.444" y2="159.31" gradientTransform="scale(.26458)" gradientUnits="userSpaceOnUse">
   <stop id="stop2550" stop-color="#de4d85" offset="0"/>
   <stop id="stop2552" stop-color="#ca0042" offset="1"/>
  </linearGradient>
  <linearGradient id="linearGradient3713" x1="9.989" x2="9.989" y1="5.7487" y2="14.78" gradientTransform="scale(.99998)" gradientUnits="userSpaceOnUse">
   <stop id="stop3707" stop-color="#2fa417" offset="0"/>
   <stop id="stop3709" stop-color="#92cf35" stop-opacity=".96863" offset="1"/>
  </linearGradient>
  <filter id="filter1" x="-.031765" y="-.023478" width="1.0635" height="1.047" color-interpolation-filters="sRGB">
   <feGaussianBlur id="feGaussianBlur1" stdDeviation="0.21033309"/>
  </filter>
 </defs>
 <metadata id="metadata1440">
  <rdf:RDF>
   <cc:Work rdf:about="">
    <dc:format>image/svg+xml</dc:format>
    <dc:type rdf:resource="http://purl.org/dc/dcmitype/StillImage"/>
   </cc:Work>
  </rdf:RDF>
 </metadata>
 <g id="g1702" transform="matrix(.97573 0 0 .97573 -65.737 -37.183)" fill="none" opacity=".295" stroke="#000" stroke-linecap="round" stroke-linejoin="round" stroke-opacity=".02">
  <rect id="rect1634" x="69.84" y="40.71" width="29.811" height="29.811" rx="6.6099" ry="6.6099" stroke-width=".1"/>
  <rect id="rect1638" x="69.84" y="40.71" width="29.811" height="29.811" rx="6.6099" ry="6.6099" stroke-width=".2"/>
  <rect id="rect1640" x="69.84" y="40.71" width="29.811" height="29.811" rx="6.6099" ry="6.6099" stroke-width=".3"/>
  <rect id="rect1642" x="69.84" y="40.71" width="29.811" height="29.811" rx="6.6099" ry="6.6099" stroke-width=".4"/>
  <rect id="rect1644" x="69.84" y="40.71" width="29.811" height="29.811" rx="6.6099" ry="6.6099" stroke-width=".5"/>
  <rect id="rect1646" x="69.84" y="40.71" width="29.811" height="29.811" rx="6.6099" ry="6.6099" stroke-width=".6"/>
  <rect id="rect1648" x="69.84" y="40.71" width="29.811" height="29.811" rx="6.6099" ry="6.6099" stroke-width=".7"/>
  <rect id="rect1650" x="69.84" y="40.71" width="29.811" height="29.811" rx="6.6099" ry="6.6099" stroke-width=".8"/>
  <rect id="rect1652" x="69.84" y="40.71" width="29.811" height="29.811" rx="6.6099" ry="6.6099"/>
  <rect id="rect1654" x="69.84" y="40.71" width="29.811" height="29.811" rx="6.6099" ry="6.6099" stroke-width="1.2"/>
  <rect id="rect1656" x="69.84" y="40.71" width="29.811" height="29.811" rx="6.6099" ry="6.6099" stroke-width="1.4"/>
  <rect id="rect1658" x="69.84" y="40.71" width="29.811" height="29.811" rx="6.6099" ry="6.6099" stroke-width="1.6"/>
  <rect id="rect1660" x="69.84" y="40.71" width="29.811" height="29.811" rx="6.6099" ry="6.6099" stroke-width="1.8"/>
  <rect id="rect1662" x="69.84" y="40.71" width="29.811" height="29.811" rx="6.6099" ry="6.6099" stroke-width="2"/>
  <rect id="rect1664" x="69.84" y="40.71" width="29.811" height="29.811" rx="6.6099" ry="6.6099" stroke-width="2.2"/>
  <rect id="rect1666" x="69.84" y="40.71" width="29.811" height="29.811" rx="6.6099" ry="6.6099" stroke-width="2.6"/>
  <rect id="rect1668" x="69.84" y="40.71" width="29.811" height="29.811" rx="6.6099" ry="6.6099" stroke-width="3"/>
  <rect id="rect1670" x="69.84" y="40.71" width="29.811" height="29.811" rx="6.6099" ry="6.6099" stroke-width="3.4"/>
  <rect id="rect1672" x="69.84" y="40.71" width="29.811" height="29.811" rx="6.6099" ry="6.6099" stroke-width="3.8"/>
  <rect id="rect1674" x="69.84" y="40.71" width="29.811" height="29.811" rx="6.6099" ry="6.6099" stroke-width="4.2"/>
  <rect id="rect1676" x="69.84" y="40.71" width="29.811" height="29.811" rx="6.6099" ry="6.6099" stroke-width="4.6"/>
  <rect id="rect1678" x="69.84" y="40.71" width="29.811" height="29.811" rx="6.6099" ry="6.6099" stroke-width="5"/>
 </g>
 <rect id="rect849" x="2.4074" y="2.5392" width="29.087" height="29.087" rx="6.4495" ry="6.4495" fill="url(#radialGradient2037)" stroke-linecap="round" stroke-linejoin="round" stroke-width="2.6877"/>
 <path id="path6" d="m13.394 7.0701c0.11126 0.13998 0.2671 0.27739 0.10225 0.4382-0.22722-0.14659-0.45723-0.29384-0.9969-0.39803 0.12161 0.14007 0.37336 0.27988 0.22092 0.41994-0.28532-0.11258-0.60012-0.19355-0.94943-0.24101 0.16726 0.14212 0.30689 0.28064 0.1698 0.39073-0.30532-0.097038-0.72645-0.22764-1.1375-0.11502l0.26109 0.27022c0.02888 0.036197-0.60896 0.028336-1.0298 0.034696 0.15359 0.22038 0.31025 0.43399 0.40168 0.81249-0.04171 0.043652-0.25071 0.019397-0.44732 0 0.2016 0.43847 0.55183 0.54817 0.63356 0.7358-0.12315 0.09633-0.29342 0.07098-0.48019 0.0055 0.14514 0.30893 0.44964 0.52163 0.69016 0.77232-0.0608 0.04459-0.16839 0.07107-0.41994 0.04018 0.22221 0.24401 0.49064 0.46765 0.80884 0.66825-0.05634 0.06727-0.24932 0.06309-0.42907 0.06756 0.28822 0.29144 0.65838 0.44291 1.006 0.63356-0.1733 0.1223-0.29637 0.09478-0.42907 0.09311 0.24588 0.20869 0.66354 0.31588 1.0517 0.44185-0.07382 0.11852-0.1471 0.15113-0.30491 0.18441 0.41082 0.23486 0.99891 0.12829 1.1649 0.24831-0.04007 0.11804-0.15306 0.19512-0.28848 0.25926 0.66137 0.03967 2.4705-0.02459 2.8172-1.4387-0.67704-0.76841-1.9129-1.6709-4.0387-2.7862 1.6538 0.57184 3.1458 1.3337 4.3947 2.3827 1.4683-0.70624 0.45522-2.488-0.26109-3.1952-0.03632 0.18673-0.07716 0.30479-0.12416 0.3396-0.23324-0.25828-0.42278-0.52196-0.72303-0.7705-9.34e-4 0.14597 0.07104 0.30412-0.10772 0.41994-0.16095-0.22374-0.37934-0.42395-0.66825-0.59341 0.13915 0.2479 0.02369 0.32267-0.05112 0.42542-0.22066-0.19549-0.42933-0.39257-0.83623-0.54593zm8.0336 0c-0.4069 0.15336-0.6174 0.35044-0.83805 0.54592-0.07482-0.10274-0.19028-0.17752-0.051123-0.42542-0.28891 0.16947-0.50547 0.36968-0.66643 0.59339-0.17875-0.11582-0.10675-0.27396-0.10772-0.41994-0.30025 0.24854-0.49162 0.51221-0.72485 0.7705-0.04699-0.034819-0.08783-0.15286-0.12416-0.3396-0.71632 0.70717-1.7275 2.4889-0.25927 3.1952 1.2489-1.049 2.7409-1.8109 4.3947-2.3827-2.1258 1.1153-3.3617 2.0178-4.0387 2.7862 0.34673 1.4141 2.1559 1.4784 2.8172 1.4387-0.13542-0.06415-0.24841-0.14122-0.28848-0.25926 0.16595-0.12002 0.75406-0.01343 1.1649-0.24831-0.15781-0.03327-0.23292-0.0659-0.30674-0.18441 0.38813-0.12598 0.80761-0.23316 1.0535-0.44185-0.13269 0.0016-0.25759 0.02919-0.43089-0.09312 0.34765-0.19065 0.71963-0.34212 1.0079-0.63356-0.17975-0.0044-0.37455-2.87e-4 -0.43089-0.06756 0.3182-0.2006 0.58663-0.42424 0.80884-0.66825-0.25154 0.03089-0.35731 0.0044-0.41811-0.04018 0.24052-0.2507 0.54501-0.46339 0.69016-0.77232-0.18677 0.0655-0.35704 0.09086-0.48019-0.0055 0.08174-0.18763 0.43196-0.29734 0.63356-0.7358-0.19662 0.019397-0.40562 0.043652-0.44733 0 0.09142-0.3785 0.2481-0.59211 0.40168-0.81249-0.4208-0.00636-1.0586 0.0015-1.0298-0.034696l0.26109-0.27019c-0.41103-0.11262-0.83216 0.018002-1.1375 0.11502-0.13709-0.11008 0.0025-0.2486 0.1698-0.39073-0.34931 0.047451-0.66593 0.12843-0.95125 0.24101-0.15244-0.14007 0.09931-0.27988 0.22092-0.41994-0.53967 0.10419-0.76785 0.25145-0.99507 0.39803-0.16486-0.16081-9e-3 -0.29821 0.10225-0.4382zm-4.0497 5.8262c-1.1733-0.03106-2.2997 0.88482-2.3024 1.4168-0.0034 0.64644 0.92724 1.3087 2.3097 1.3255 1.4117 0.01028 2.3124-0.5288 2.317-1.1959 0.0051-0.75582-1.2831-1.5581-2.3243-1.5465zm-3.5421 0.44915c-1.6292 0.03086-2.8749 1.1784-2.8172 3.0765 0.06466 0.83163 4.259-2.8961 3.5348-3.0199-0.24574-0.04222-0.48481-0.061-0.71755-0.0566zm6.8687 0.0639c-0.23274-0.0044-0.47364 0.01431-0.71937 0.0566-0.7242 0.12382 3.4719 3.8515 3.5366 3.0199 0.05761-1.8981-1.1881-3.0456-2.8172-3.0765zm-0.69198 2.3151a2.7282 2.2955 58.681 0 0-1.1996 0.32865 2.7282 2.2955 58.681 1 0 2.9706 4.5755 2.7282 2.2955 58.681 0 0-1.771-4.9042zm-5.2474 0.12781a2.2955 2.7282 31.319 0 0-1.771 4.9042 2.2955 2.7282 31.319 1 0 2.9706-4.5755 2.2955 2.7282 31.319 0 0-1.1996-0.32865zm9.0908 1.415c-1.1393-0.31064-0.38459 4.7955 0.54227 4.3765 1.0195-0.83455 1.348-3.2781-0.54227-4.3765zm-13.164 0.0639c-1.8902 1.0984-1.5618 3.5419-0.54227 4.3765 0.92686 0.419 1.6815-4.6871 0.54227-4.3765zm6.8213 3.2883a2.5464 2.3895 0 0 0-2.6219 2.3882 2.547 2.39 0 0 0 5.094 0 2.5464 2.3895 0 0 0-2.4722-2.3882zm5.5541 0.88735c-0.59671 0.0159-1.3084 0.59047-1.9847 1.3675-0.78801 0.93926-1.2267 2.6525-0.65182 3.2043 0.54965 0.42865 2.0249 0.36859 3.1148-1.1704 0.79142-1.0336 0.52692-2.7589 0.07486-3.2171-0.16788-0.13214-0.35432-0.18968-0.55322-0.18441zm-11.431 0.36698c-0.2137-0.0094-0.41403 0.03531-0.58974 0.14424-0.46998 0.36399-0.55618 1.6034 0.1132 2.8209 0.99253 1.4509 2.3901 1.5964 2.9651 1.2434 0.6078-0.46242 0.27552-2.0321-0.4528-2.925-0.62687-0.74018-1.3947-1.2556-2.0358-1.2836zm5.8134 4.2779c-1.0166-0.02588-2.5751 0.41461-2.5561 0.97864-0.01625 0.38469 1.2238 1.4943 2.4886 1.4387 1.2213 0.02142 2.4837-1.087 2.4667-1.5775-0.0026-0.50507-1.3761-0.88531-2.3991-0.83988z" filter="url(#filter1)" opacity=".2" stroke-width=".46741"/>
 <path id="path8" d="m13.394 6.6026c0.11121 0.13999 0.26667 0.27688 0.1018 0.43769-0.22722-0.14658-0.45561-0.29321-0.99527-0.3974 0.12161 0.14006 0.37308 0.28006 0.22065 0.42013-0.28532-0.11258-0.60102-0.19439-0.95032-0.24184 0.1672 0.14212 0.3066 0.28162 0.1695 0.39171-0.30533-0.097037-0.72585-0.22786-1.1369-0.11524l0.26045 0.27077c0.02888 0.036197-0.60909 0.027746-1.0299 0.034107 0.15358 0.22037 0.31062 0.43333 0.40203 0.81184-0.04171 0.043653-0.25038 0.019396-0.44701 0 0.20159 0.43846 0.55183 0.54927 0.63354 0.73691-0.12315 0.096402-0.29434 0.071188-0.48111 0.00568 0.14515 0.30892 0.44986 0.52083 0.6904 0.77152-0.06081 0.0446-0.16704 0.071196-0.41856 0.040306 0.2222 0.24401 0.49053 0.46706 0.80872 0.66764-0.05634 0.06737-0.2502 0.06433-0.42994 0.06873 0.28821 0.29144 0.65952 0.44291 1.0072 0.63354-0.1733 0.1223-0.29726 0.09358-0.42994 0.09198 0.24588 0.20868 0.66399 0.31689 1.0521 0.44285-0.07382 0.11851-0.1476 0.15121-0.3054 0.18448 0.41081 0.23479 0.99882 0.12751 1.1648 0.24753-0.04007 0.11805-0.15292 0.19475-0.28834 0.2589 0.66137 0.03967 2.4701-0.02504 2.8167-1.4392-0.67703-0.76839-1.9126-1.6705-4.0385-2.7858 1.6538 0.57184 3.1461 1.3344 4.3949 2.3833 1.4682-0.70622 0.45587-2.4874-0.26045-3.1945-0.03632 0.18672-0.07757 0.30469-0.12454 0.33951-0.23323-0.25828-0.42372-0.523-0.72397-0.77152-1e-3 0.14597 0.07127 0.30432-0.10749 0.42013-0.16095-0.22371-0.37824-0.42325-0.66714-0.59271 0.13915 0.2479 0.02366 0.32305-0.05116 0.42582-0.22065-0.19548-0.43026-0.39338-0.83716-0.54673zm8.0329 0c-0.4069 0.15336-0.6165 0.35126-0.83716 0.54673-0.07481-0.10274-0.18979-0.17791-0.050643-0.42582-0.2889 0.16947-0.5067 0.36901-0.66764 0.59271-0.17875-0.11582-0.1065-0.27416-0.10749-0.42013-0.30024 0.24854-0.49074 0.51323-0.72397 0.77152-0.04699-0.034819-0.088222-0.15278-0.12454-0.33951-0.7163 0.70717-1.7282 2.4884-0.25993 3.1945 1.2489-1.049 2.7413-1.8114 4.3949-2.3833-2.1258 1.1153-3.362 2.0174-4.0391 2.7858 0.34673 1.4141 2.1555 1.4788 2.8167 1.4392-0.13542-0.06415-0.24828-0.14085-0.28834-0.2589 0.16595-0.12002 0.75448-0.01274 1.1653-0.24753-0.15781-0.03327-0.23159-0.06597-0.3054-0.18448 0.38814-0.12598 0.80623-0.23418 1.0521-0.44285-0.13269 0.0016-0.25664 0.03032-0.42994-0.09198 0.34763-0.19065 0.71844-0.3421 1.0066-0.63354-0.17974-0.0044-0.37359-0.0013-0.42994-0.06873 0.31818-0.20059 0.58705-0.42364 0.80924-0.66764-0.25154 0.03089-0.35776 0.00429-0.41857-0.040306 0.24052-0.25069 0.54472-0.46259 0.68987-0.77152-0.18677 0.065505-0.35745 0.090717-0.48058-0.00568 0.08174-0.18763 0.43195-0.29845 0.63354-0.73691-0.19662 0.019396-0.40528 0.043653-0.44701 0 0.09142-0.37851 0.24794-0.59144 0.40153-0.81184-0.42079-0.00636-1.0583 0.00209-1.0294-0.034107l0.25993-0.27077c-0.41102-0.11262-0.83155 0.018198-1.1369 0.11524-0.13708-0.11008 0.0028-0.24958 0.17001-0.39171-0.3493 0.04745-0.665 0.12926-0.95032 0.24184-0.15244-0.14005 0.09905-0.28006 0.22065-0.42013-0.53966 0.10419-0.76858 0.2508-0.9958 0.3974-0.16485-0.16081-0.0094-0.29771 0.1018-0.43769z" fill="url(#linearGradient3713)" stroke-width=".031559"/>
 <path id="path12" d="m17.323 12.428c-1.1533-0.0017-2.2442 0.89531-2.2469 1.419-0.0034 0.64642 0.92748 1.3082 2.3099 1.325 1.4117 0.01028 2.3126-0.52972 2.3171-1.1968 0.0051-0.7558-1.2837-1.5583-2.3249-1.5467-0.01833-4.76e-4 -0.03699-4.76e-4 -0.05529-5.29e-4zm-3.4004 0.4501c-1.6719-0.0093-2.9628 1.1448-2.9043 3.0768 0.06466 0.83163 4.2597-2.8961 3.5356-3.0199-0.21502-0.03695-0.42616-0.0557-0.63147-0.05684zm6.6947 0.06356c-0.20532 0.0011-0.41645 0.0199-0.63147 0.05684-0.72418 0.12381 3.471 3.8515 3.5356 3.0199 0.05864-1.932-1.2323-3.0861-2.9043-3.0768zm-0.67902 2.3145a2.7281 2.2955 58.681 0 0-1.125 0.33072 2.7282 2.2956 58.681 1 0 2.971 4.5754 2.7281 2.2955 58.681 0 0-1.8459-4.9061zm-5.0985 0.12712a2.2955 2.7281 31.319 0 0-1.8459 4.9066 2.2956 2.7282 31.319 1 0 2.971-4.5754 2.2955 2.7281 31.319 0 0-1.125-0.33125zm8.915 1.404c-0.99061 0.01671-0.25452 4.7963 0.64335 4.3904 1.0195-0.83454 1.3481-3.2787-0.54207-4.3769-0.0356-0.0097-0.06933-0.01398-0.10128-0.01344zm-12.962 0.06356c-0.03196-5.3e-4 -0.06568 0.0037-0.10128 0.01344-1.8902 1.0984-1.5616 3.5425-0.54207 4.3769 0.89788 0.40592 1.634-4.3738 0.64335-4.3904zm6.6455 3.2985a2.5464 2.3894 0 0 0-2.5466 2.391 2.5466 2.3896 0 1 0 5.0932 0 2.5464 2.3894 0 0 0-2.5466-2.391zm5.6279 0.89089c-0.59671 0.01583-1.3081 0.59081-1.9844 1.3679-0.788 0.93926-1.2265 2.6527-0.65163 3.2043 0.54964 0.42865 2.0251 0.36845 3.1149-1.1704 0.79141-1.0336 0.52596-2.7596 0.0739-3.2178-0.16788-0.13214-0.35404-0.18924-0.55292-0.18396zm-11.51 0.36586c-0.18378 0.0038-0.35578 0.04991-0.50953 0.14521-0.46997 0.36398-0.5562 1.603 0.11317 2.8204 0.99252 1.4509 2.3886 1.5963 2.9636 1.2433 0.60779-0.46243 0.27614-2.0309-0.45217-2.9239-0.65298-0.77101-1.4587-1.2989-2.1151-1.2852zm6.089 4.2746c-0.06625-4.23e-4 -0.13191 7.67e-4 -0.19585 0.0036-1.0166-0.02588-2.5753 0.4142-2.5564 0.97823-0.01625 0.3847 1.2239 1.4947 2.4887 1.4392 1.2213 0.02143 2.4829-1.0867 2.466-1.5771-0.0025-0.47349-1.2087-0.83763-2.2024-0.84388z" fill="url(#linearGradient2556)" stroke-width=".03565"/>
</svg>
