<?xml version="1.0" encoding="UTF-8"?>
<svg id="svg10" width="63.987" height="63.987" version="1.1" viewBox="0 0 16.9 16.9" xmlns="http://www.w3.org/2000/svg">
 <defs id="defs10">
  <filter id="filter1057" x="-.027" y="-.027" width="1.054" height="1.054" color-interpolation-filters="sRGB">
   <feGaussianBlur id="feGaussianBlur1" stdDeviation="0.61875"/>
  </filter>
  <linearGradient id="linearGradient1053" x1="-127" x2="-127" y1="60" y2="5" gradientTransform="matrix(.26412 0 0 .26412 34.73 -.13658)" gradientUnits="userSpaceOnUse">
   <stop id="stop1" stop-color="#32d7ff" offset="0"/>
   <stop id="stop2" stop-color="#329bff" offset="1"/>
  </linearGradient>
 </defs>
 <rect id="rect2-3" transform="matrix(.26412 0 0 .26412 -.0017768 -.0017768)" x="4.5" y="4.5" width="55" height="55" ry="15" fill="#141414" filter="url(#filter1057)" opacity=".3" stroke-linecap="round" stroke-width="2.7444"/>
 <rect id="rect3-6" x="1.1867" y="1.1867" width="14.527" height="14.527" ry="3.9618" fill="url(#linearGradient1053)" stroke-linecap="round" stroke-width=".72484"/>
 <g id="g10" fill="#fff" stroke-width=".264">
  <path id="path1" d="M7.2 12.674c-.617-.04-1.034-.108-1.44-.238-.583-.185-.958-.437-1.291-.87-.414-.535-.684-1.447-.751-2.302-.024-.3-.027-.478-.008-.55a.343.343 0 0 1 .206-.238c.05-.022.056-.022 3.734-.022 2.417 0 3.724-.004 3.8-.011.126-.012.324-.046.418-.072.131-.036.288-.097.288-.112 0-.004-.025-.053-.055-.109-.116-.216-.169-.3-.168-.564 0-.29.068-.556.214-.843.06-.118.207-.34.224-.34.018 0 .197.108.28.167.331.24.59.686.655 1.05.014.077.015.08.043.074a3.08 3.08 0 0 1 .726-.018c.274.038.479.113.644.235.044.033.08.063.08.068a1.31 1.31 0 0 1-.37.6c-.306.296-.743.458-1.235.46h-.107l-.025.062c-.48 1.176-1.087 1.948-1.913 2.545-.83.6-1.893.949-3.119 1.023-.14.009-.719.012-.83.005z"/>
  <rect id="rect2" x="4.754" y="7.131" width="1.056" height="1.056" ry=".211"/>
  <rect id="rect3" x="6.075" y="7.131" width="1.056" height="1.056" ry=".211"/>
  <rect id="rect4" x="7.395" y="7.131" width="1.056" height="1.056" ry=".211"/>
  <rect id="rect5" x="8.716" y="7.131" width="1.056" height="1.056" ry=".211"/>
  <rect id="rect6" x="10.036" y="7.131" width="1.056" height="1.056" ry=".211"/>
  <rect id="rect7" x="6.075" y="5.811" width="1.056" height="1.056" ry=".211"/>
  <rect id="rect8" x="7.395" y="5.811" width="1.056" height="1.056" ry=".211"/>
  <rect id="rect9" x="8.716" y="5.811" width="1.056" height="1.056" ry=".211"/>
  <rect id="rect10" x="8.716" y="4.49" width="1.056" height="1.056" ry=".211"/>
 </g>
</svg>
