<?xml version="1.0" encoding="UTF-8" standalone="no"?>
<svg
   id="svg10"
   width="512"
   height="512"
   version="1.1"
   viewBox="0 0 16.9 16.9"
   sodipodi:docname="docker.svg"
   inkscape:version="1.4.4 (dcaf3e7d9e, 2026-05-05)"
   xmlns:inkscape="http://www.inkscape.org/namespaces/inkscape"
   xmlns:sodipodi="http://sodipodi.sourceforge.net/DTD/sodipodi-0.dtd"
   xmlns="http://www.w3.org/2000/svg"
   xmlns:svg="http://www.w3.org/2000/svg">
  <sodipodi:namedview
     id="namedview1"
     pagecolor="#ffffff"
     bordercolor="#999999"
     borderopacity="1"
     inkscape:showpageshadow="2"
     inkscape:pageopacity="0"
     inkscape:pagecheckerboard="0"
     inkscape:deskcolor="#d1d1d1"
     inkscape:zoom="2.2617188"
     inkscape:cx="255.77893"
     inkscape:cy="256"
     inkscape:window-width="2560"
     inkscape:window-height="1371"
     inkscape:window-x="0"
     inkscape:window-y="0"
     inkscape:window-maximized="1"
     inkscape:current-layer="svg10" />
  <defs
     id="defs10">
    <filter
       id="filter1057"
       x="-0.026999999"
       y="-0.026999999"
       width="1.054"
       height="1.054"
       color-interpolation-filters="sRGB">
      <feGaussianBlur
         id="feGaussianBlur1"
         stdDeviation="0.61875" />
    </filter>
    <linearGradient
       id="linearGradient1053"
       x1="-127"
       x2="-127"
       y1="5"
       y2="60"
       gradientTransform="matrix(0.26412,0,0,0.26412,34.73,-0.13658)"
       gradientUnits="userSpaceOnUse">
      <stop
         id="stop1"
         stop-color="#32d7ff"
         offset="0"
         style="stop-color:#62a0ea;stop-opacity:1" />
      <stop
         id="stop2"
         stop-color="#329bff"
         offset="1"
         style="stop-color:#1a5fb4;stop-opacity:1" />
    </linearGradient>
    <filter
       inkscape:collect="always"
       style="color-interpolation-filters:sRGB"
       id="filter1"
       x="-0.065158171"
       y="-0.088343901"
       width="1.1303163"
       height="1.1766878">
      <feGaussianBlur
         inkscape:collect="always"
         stdDeviation="0.30139292"
         id="feGaussianBlur2" />
    </filter>
  </defs>
  <rect
     id="rect2-3"
     transform="matrix(.26412 0 0 .26412 -.0017768 -.0017768)"
     x="4.5"
     y="4.5"
     width="55"
     height="55"
     ry="15"
     fill="#141414"
     filter="url(#filter1057)"
     opacity=".3"
     stroke-linecap="round"
     stroke-width="2.7444" />
  <rect
     id="rect3-6"
     x="1.1867"
     y="1.1867"
     width="14.527"
     height="14.527"
     ry="3.9618"
     fill="url(#linearGradient1053)"
     stroke-linecap="round"
     stroke-width=".72484" />
  <path
     id="path1"
     d="m 8.9270016,4.8201075 c -0.116894,0 -0.211005,0.094047 -0.211005,0.2109406 v 0.6340465 c 0,0.116894 0.094111,0.2110051 0.211005,0.2110051 h 0.6339821 c 0.116894,0 0.211005,-0.094111 0.211005,-0.2110051 V 5.0310481 c 0,-0.116894 -0.094111,-0.2109406 -0.211005,-0.2109406 z M 6.2859898,6.1410647 c -0.116894,0 -0.2110051,0.094111 -0.2110051,0.211005 v 0.6339821 c 0,0.116894 0.094111,0.211005 0.2110051,0.211005 h 0.633982 c 0.116894,0 0.2110051,-0.094111 0.2110051,-0.211005 V 6.3520697 c 0,-0.116894 -0.094111,-0.211005 -0.2110051,-0.211005 z m 1.3199901,0 c -0.116894,0 -0.211005,0.094111 -0.211005,0.211005 v 0.6339821 c 0,0.116894 0.094111,0.211005 0.211005,0.211005 h 0.6340466 c 0.116894,0 0.211005,-0.094111 0.211005,-0.211005 V 6.3520697 c 0,-0.116894 -0.094111,-0.211005 -0.211005,-0.211005 z m 1.3210217,0 c -0.116894,0 -0.211005,0.094111 -0.211005,0.211005 v 0.6339821 c 0,0.116894 0.094111,0.211005 0.211005,0.211005 h 0.6339821 c 0.116894,0 0.211005,-0.094111 0.211005,-0.211005 V 6.3520697 c 0,-0.116894 -0.094111,-0.211005 -0.211005,-0.211005 z m 3.4437724,0.5920132 c -0.01794,0.00172 -0.164004,0.2224672 -0.22377,0.3400062 -0.146,0.287 -0.214035,0.5529886 -0.214035,0.8429886 -10e-4,0.264 0.052,0.3480339 0.168005,0.5640339 0.03,0.056 0.05506,0.1049516 0.05506,0.1089516 0,0.015 -0.157045,0.076046 -0.288045,0.112046 -0.094,0.026 -0.292013,0.059947 -0.418013,0.071947 -0.076,0.007 -1.38296,0.011024 -3.7999602,0.011024 -3.678,0 -3.6840088,-1.62e-5 -3.7340088,0.021984 A 0.343,0.343 0 0 0 3.7100266,9.044076 c -0.019,0.072 -0.016006,0.2499798 0.00799,0.5499798 0.067,0.8550022 0.3369922,1.7670392 0.7509922,2.3020392 0.333,0.433 0.7079794,0.685001 1.2909794,0.870001 0.406,0.13 0.8230303,0.197953 1.4400303,0.237953 0.111,0.007 0.689966,0.004 0.829966,-0.005 1.226,-0.074 2.2889805,-0.422984 3.1189805,-1.022984 0.826,-0.597 1.433035,-1.369018 1.913035,-2.5450203 l 0.02501,-0.062018 h 0.106953 c 0.492,-0.002 0.929021,-0.163982 1.235021,-0.459982 A 1.31,1.31 0 0 0 14.798975,8.309072 c 0,-0.005 -0.03601,-0.035014 -0.08,-0.068014 C 14.553975,8.119058 14.349,8.0440708 14.075,8.0060708 a 3.08,3.08 0 0 0 -0.725978,0.017987 c -0.028,0.006 -0.029,0.00299 -0.043,-0.07401 -0.065,-0.364 -0.323999,-0.8099966 -0.654999,-1.0499966 -0.083,-0.059 -0.261986,-0.1669731 -0.279986,-0.1669731 -6.7e-5,0 -1.88e-4,-6.8e-6 -2.58e-4,0 z m -7.4058059,0.727977 c -0.116894,0 -0.2109405,0.094111 -0.2109405,0.211005 v 0.6340465 c 0,0.116894 0.094047,0.2109406 0.2109405,0.2109406 h 0.6340466 c 0.116894,0 0.211005,-0.094047 0.211005,-0.2109406 V 7.6720599 c 0,-0.116894 -0.094111,-0.211005 -0.211005,-0.211005 z m 1.3210217,0 c -0.116894,0 -0.2110051,0.094111 -0.2110051,0.211005 v 0.6340465 c 0,0.116894 0.094111,0.2109406 0.2110051,0.2109406 h 0.633982 c 0.116894,0 0.2110051,-0.094047 0.2110051,-0.2109406 V 7.6720599 c 0,-0.116894 -0.094111,-0.211005 -0.2110051,-0.211005 z m 1.3199901,0 c -0.116894,0 -0.211005,0.094111 -0.211005,0.211005 v 0.6340465 c 0,0.116894 0.094111,0.2109406 0.211005,0.2109406 h 0.6340466 c 0.116894,0 0.211005,-0.094047 0.211005,-0.2109406 V 7.6720599 c 0,-0.116894 -0.094111,-0.211005 -0.211005,-0.211005 z m 1.3210217,0 c -0.116894,0 -0.211005,0.094111 -0.211005,0.211005 v 0.6340465 c 0,0.116894 0.094111,0.2109406 0.211005,0.2109406 h 0.6339821 c 0.116894,0 0.211005,-0.094047 0.211005,-0.2109406 V 7.6720599 c 0,-0.116894 -0.094111,-0.211005 -0.211005,-0.211005 z m 1.3199904,0 c -0.116894,0 -0.211005,0.094111 -0.211005,0.211005 v 0.6340465 c 0,0.116894 0.09411,0.2109406 0.211005,0.2109406 h 0.633982 c 0.116894,0 0.211005,-0.094047 0.211005,-0.2109406 V 7.6720599 c 0,-0.116894 -0.09411,-0.211005 -0.211005,-0.211005 z"
     style="opacity:0.35;fill:#000000;fill-opacity:1;stroke-width:0.264;filter:url(#filter1)" />
  <path
     id="path1-7"
     d="m 8.9270016,4.4900291 c -0.116894,0 -0.211005,0.094047 -0.211005,0.2109406 v 0.6340465 c 0,0.1168941 0.094111,0.2110052 0.211005,0.2110052 h 0.6339821 c 0.116894,0 0.211005,-0.094111 0.211005,-0.2110052 V 4.7009697 c 0,-0.116894 -0.094111,-0.2109406 -0.211005,-0.2109406 z M 6.2859898,5.8109863 c -0.116894,0 -0.2110051,0.094111 -0.2110051,0.211005 v 0.6339821 c 0,0.116894 0.094111,0.211005 0.2110051,0.211005 h 0.633982 c 0.116894,0 0.2110051,-0.094111 0.2110051,-0.211005 V 6.0219913 c 0,-0.116894 -0.094111,-0.211005 -0.2110051,-0.211005 z m 1.3199901,0 c -0.116894,0 -0.211005,0.094111 -0.211005,0.211005 v 0.6339821 c 0,0.116894 0.094111,0.211005 0.211005,0.211005 h 0.6340466 c 0.116894,0 0.211005,-0.094111 0.211005,-0.211005 V 6.0219913 c 0,-0.116894 -0.094111,-0.211005 -0.211005,-0.211005 z m 1.3210217,0 c -0.116894,0 -0.211005,0.094111 -0.211005,0.211005 v 0.6339821 c 0,0.116894 0.094111,0.211005 0.211005,0.211005 h 0.6339821 c 0.116894,0 0.211005,-0.094111 0.211005,-0.211005 V 6.0219913 c 0,-0.116894 -0.094111,-0.211005 -0.211005,-0.211005 z m 3.4437724,0.5920132 c -0.01794,0.00172 -0.164004,0.2224672 -0.22377,0.3400062 -0.146,0.287 -0.214035,0.5529886 -0.214035,0.8429886 -10e-4,0.2640001 0.052,0.3480339 0.168005,0.5640341 0.03,0.056 0.05506,0.1049516 0.05506,0.1089516 0,0.015 -0.157045,0.076046 -0.288045,0.112046 -0.094,0.026 -0.292013,0.059947 -0.418013,0.071947 -0.076,0.007 -1.38296,0.011024 -3.7999602,0.011024 -3.678,0 -3.6840088,-1.62e-5 -3.7340088,0.021984 A 0.343,0.343 0 0 0 3.7100266,8.7139977 c -0.019,0.072 -0.016006,0.2499798 0.00799,0.5499798 0.067,0.8550005 0.3369922,1.7670375 0.7509922,2.3020375 0.333,0.433 0.7079794,0.685001 1.2909794,0.870001 0.406,0.13 0.8230303,0.197953 1.4400303,0.237953 0.111,0.007 0.689966,0.004 0.829966,-0.005 1.226,-0.074 2.2889805,-0.422984 3.1189805,-1.022984 0.826,-0.597 1.433035,-1.369018 1.913035,-2.5450186 l 0.02501,-0.062018 h 0.106953 c 0.492,-0.002 0.929021,-0.1639821 1.235021,-0.4599821 a 1.31,1.31 0 0 0 0.369991,-0.5999727 c 0,-0.005 -0.03601,-0.035014 -0.08,-0.068014 -0.165,-0.122 -0.369975,-0.1969872 -0.643975,-0.2349872 a 3.08,3.08 0 0 0 -0.725978,0.017987 c -0.028,0.006 -0.029,0.00299 -0.043,-0.07401 -0.065,-0.364 -0.323999,-0.8099966 -0.654999,-1.0499966 -0.083,-0.059 -0.261986,-0.1669731 -0.279986,-0.1669731 -6.7e-5,0 -1.88e-4,-6.8e-6 -2.58e-4,0 z m -7.4058059,0.727977 c -0.116894,0 -0.2109405,0.094111 -0.2109405,0.211005 v 0.6340466 c 0,0.1168941 0.094047,0.2109407 0.2109405,0.2109407 h 0.6340466 c 0.116894,0 0.211005,-0.094047 0.211005,-0.2109407 V 7.3419815 c 0,-0.116894 -0.094111,-0.211005 -0.211005,-0.211005 z m 1.3210217,0 c -0.116894,0 -0.2110051,0.094111 -0.2110051,0.211005 v 0.6340466 c 0,0.1168941 0.094111,0.2109407 0.2110051,0.2109407 h 0.633982 c 0.116894,0 0.2110051,-0.094047 0.2110051,-0.2109407 V 7.3419815 c 0,-0.116894 -0.094111,-0.211005 -0.2110051,-0.211005 z m 1.3199901,0 c -0.116894,0 -0.211005,0.094111 -0.211005,0.211005 v 0.6340466 c 0,0.1168941 0.094111,0.2109407 0.211005,0.2109407 h 0.6340466 c 0.116894,0 0.211005,-0.094047 0.211005,-0.2109407 V 7.3419815 c 0,-0.116894 -0.094111,-0.211005 -0.211005,-0.211005 z m 1.3210217,0 c -0.116894,0 -0.211005,0.094111 -0.211005,0.211005 v 0.6340466 c 0,0.1168941 0.094111,0.2109407 0.211005,0.2109407 h 0.6339821 c 0.116894,0 0.211005,-0.094047 0.211005,-0.2109407 V 7.3419815 c 0,-0.116894 -0.094111,-0.211005 -0.211005,-0.211005 z m 1.3199904,0 c -0.116894,0 -0.211005,0.094111 -0.211005,0.211005 v 0.6340466 c 0,0.1168941 0.09411,0.2109407 0.211005,0.2109407 h 0.633982 c 0.116894,0 0.211005,-0.094047 0.211005,-0.2109407 V 7.3419815 c 0,-0.116894 -0.09411,-0.211005 -0.211005,-0.211005 z"
     style="fill:#ffffff;stroke-width:0.264" />
</svg>
