<?xml version="1.0" encoding="UTF-8"?>
<svg id="svg6" width="64" height="64" version="1.1" xmlns="http://www.w3.org/2000/svg" xmlns:xlink="http://www.w3.org/1999/xlink">
 <defs id="defs4">
  <linearGradient id="linearGradient10" x1="7.9373" x2="7.9373" y1="15.081" y2="1.852" gradientTransform="matrix(3.7796 0 0 3.7796 -2.266e-5 .030401)" gradientUnits="userSpaceOnUse">
   <stop id="stop1-3" stop-color="#ffc30d" offset="0"/>
   <stop id="stop2-6" stop-color="#fff63f" offset="1"/>
  </linearGradient>
  <filter id="filter10" x="-.069121" y="-.069119" width="1.1382" height="1.1382" color-interpolation-filters="sRGB">
   <feGaussianBlur id="feGaussianBlur10" stdDeviation="1.6128844"/>
  </filter>
  <linearGradient id="linearGradient7-5" x1="30.439" x2="30.439" y1="17.753" y2="48.027" gradientTransform="rotate(45 22.771 25.857)" gradientUnits="userSpaceOnUse">
   <stop id="stop5" stop-color="#956f00" offset="0"/>
   <stop id="stop6" stop-color="#503e00" offset="1"/>
  </linearGradient>
  <filter id="filter11" x="-.13438" y="-.16223" width="1.2688" height="1.3245" color-interpolation-filters="sRGB">
   <feGaussianBlur id="feGaussianBlur11" stdDeviation="2.1907088"/>
  </filter>
  <radialGradient id="radialGradient12" cx="46.944" cy="16.859" r="8.9072" gradientTransform="matrix(1.007 0 0 1.0072 -.33079 -.12073)" gradientUnits="userSpaceOnUse">
   <stop id="stop11" offset=".9149"/>
   <stop id="stop12" stop-opacity="0" offset="1"/>
  </radialGradient>
 </defs>
 <path id="rect2" transform="matrix(.97754 0 0 .94229 .0028988 2.9961)" d="m17.002 3.998c-7.2031 0-13.002 5.8008-13.002 13.004v29.996c0 7.2031 5.7989 13.004 13.002 13.004h29.998c7.2031 0 13.002-5.8008 13.002-13.004v-29.996c0-7.2031-5.7989-13.004-13.002-13.004zm29.943 4.6602a8.2009 8.2009 0 0 1 8.1992 8.2012 8.2009 8.2009 0 0 1-8.1992 8.2012 8.2009 8.2009 0 0 1-8.2012-8.2012 8.2009 8.2009 0 0 1 8.2012-8.2012z" filter="url(#filter10)" opacity=".26" style="mix-blend-mode:normal"/>
 <path id="rect2-3" d="m17.002 3.998c-7.2031 0-13.002 5.8008-13.002 13.004v29.996c0 7.2031 5.7989 13.004 13.002 13.004h29.998c7.2031 0 13.002-5.8008 13.002-13.004v-29.996c0-7.2031-5.7989-13.004-13.002-13.004zm29.943 4.6602a8.2009 8.2009 0 0 1 8.1992 8.2012 8.2009 8.2009 0 0 1-8.1992 8.2012 8.2009 8.2009 0 0 1-8.2012-8.2012 8.2009 8.2009 0 0 1 8.2012-8.2012z" fill="url(#linearGradient10)"/>
 <g id="g1" transform="translate(.98137 1.0465)">
  <path id="path5" d="m30.71 22.336-9.7967 9.7967a7.4626 7.4626 0 0 0-1.2143-1.6191 7.4626 7.4626 0 0 0-10.529-0.069271 7.4626 7.4626 0 0 0-0.11619 10.531 7.4626 7.4626 0 0 0 10.531 0.16118l11.125-11.125 7.6754 7.6754-5.9589 5.9589a7.4626 7.4626 0 0 0-1.2143-1.6191 7.4626 7.4626 0 0 0-10.529-0.06927 7.4626 7.4626 0 0 0-0.11619 10.531 7.4626 7.4626 0 0 0 10.531 0.16118l14.963-14.963z" filter="url(#filter11)" opacity=".25" stroke-width="1.3568"/>
  <path id="path5-9" d="m30.71 22.336-9.7967 9.7967a7.4626 7.4626 0 0 0-1.2143-1.6191 7.4626 7.4626 0 0 0-10.529-0.06927 7.4626 7.4626 0 0 0-0.11619 10.531 7.4626 7.4626 0 0 0 10.531 0.16118l11.125-11.125 7.6754 7.6754-5.9589 5.9589a7.4626 7.4626 0 0 0-1.2143-1.6191 7.4626 7.4626 0 0 0-10.529-0.06927 7.4626 7.4626 0 0 0-0.11619 10.531 7.4626 7.4626 0 0 0 10.531 0.16118l14.963-14.963z" fill="url(#linearGradient7-5)"/>
 </g>
 <ellipse id="path11" cx="46.944" cy="16.859" rx="8.5792" ry="8.5803" fill="none" opacity=".25" stroke="url(#radialGradient12)" stroke-linecap="round" stroke-linejoin="bevel" stroke-width=".78147"/>
</svg>
