<?xml version="1.0" encoding="UTF-8"?>
<svg id="svg76" width="64" height="64" version="1.1" xmlns="http://www.w3.org/2000/svg" xmlns:cc="http://creativecommons.org/ns#" xmlns:dc="http://purl.org/dc/elements/1.1/" xmlns:rdf="http://www.w3.org/1999/02/22-rdf-syntax-ns#" xmlns:xlink="http://www.w3.org/1999/xlink">
 <metadata id="metadata2">
  <rdf:RDF>
   <cc:Work rdf:about="">
    <dc:format>image/svg+xml</dc:format>
    <dc:type rdf:resource="http://purl.org/dc/dcmitype/StillImage"/>
    <dc:title/>
   </cc:Work>
  </rdf:RDF>
 </metadata>
 <defs id="defs18">
  <style id="style4" type="text/css"/>
  <style id="style6" type="text/css"/>
  <style id="style8" type="text/css"/>
  <filter id="filter1057" x="-.027" y="-.027" width="1.054" height="1.054" color-interpolation-filters="sRGB">
   <feGaussianBlur id="feGaussianBlur1059" stdDeviation="0.61875"/>
  </filter>
  <linearGradient id="linearGradient1053" x1="-127" x2="-127" y1="60" y2="5" gradientTransform="translate(131.5 -.51)" gradientUnits="userSpaceOnUse">
   <stop id="stop7" stop-color="#a0b9cd" offset="0"/>
   <stop id="stop9" stop-color="#96b4c8" offset=".47728"/>
   <stop id="stop11" stop-color="#a0b9cd" offset="1"/>
  </linearGradient>
 </defs>
 <rect id="rect1055" x="4.5" y="4.5" width="55" height="55" ry="15" fill="#141414" filter="url(#filter1057)" opacity=".3" stroke-linecap="round" stroke-width="2.7444"/>
 <rect id="rect1045" x="4.5" y="4.5" width="55" height="55" ry="15" fill="url(#linearGradient1053)" stroke-linecap="round" stroke-width="2.7444"/>
 <rect id="rect1045-5" x="5.7925" y="5.823" width="52.396" height="52.352" ry="14.278" fill="none" stroke="#73228e" stroke-linecap="round" stroke-opacity=".17303" stroke-width="2.6133"/>
 <g id="g70" fill="#5e4aa6">
  <g id="g32" transform="translate(-80.134 -57.985)" image-rendering="optimizeSpeed">
   <circle id="circle24" cx="-1248.7" cy="-1241.6" r="0"/>
   <circle id="circle26" cx="-149.15" cy="23.855" r="0" fill-rule="evenodd"/>
   <circle id="circle28" cx="-1248.7" cy="-1241.6" r="0"/>
   <circle id="circle30" cx="-149.15" cy="23.855" r="0" fill-rule="evenodd"/>
  </g>
  <circle id="circle34" cx="-1248.7" cy="-1241.6" r="0"/>
  <circle id="circle36" cx="-149.15" cy="23.855" r="0" fill-rule="evenodd"/>
  <g id="g68" transform="matrix(3.7796 0 0 3.7796 .00058415 -.00017177)" stroke-width=".26458">
   <g id="g46" transform="translate(-.0272 .0065001)">
    <circle id="circle38" cx="-330.35" cy="-328.38" r="0"/>
    <circle id="circle40" cx="-312.11" cy="-326.25" r="0"/>
    <circle id="circle42" cx="-306.02" cy="-333.07" r="0"/>
    <circle id="circle44" cx="-308.84" cy="-326.01" r="0"/>
   </g>
   <g id="g56" transform="translate(-.0272 .0065001)">
    <circle id="circle48" cx="-330.35" cy="-328.38" r="0"/>
    <circle id="circle50" cx="-312.11" cy="-326.25" r="0"/>
    <circle id="circle52" cx="-306.02" cy="-333.07" r="0"/>
    <circle id="circle54" cx="-308.84" cy="-326.01" r="0"/>
   </g>
   <g id="g66" transform="translate(-.02705 .0064503)">
    <circle id="circle58" cx="-330.35" cy="-328.38" r="0"/>
    <circle id="circle60" cx="-312.11" cy="-326.25" r="0"/>
    <circle id="circle62" cx="-306.02" cy="-333.07" r="0"/>
    <circle id="circle64" cx="-308.84" cy="-326.01" r="0"/>
   </g>
  </g>
 </g>
 <g id="g30" transform="translate(-79.199 -30.995)" fill="#5e4aa6">
  <circle id="circle24-6" cx="-1248.7" cy="-1241.6" r="0"/>
  <circle id="circle26-7" cx="-1140.3" cy="-1301.8" r="0"/>
  <circle id="circle28-5" cx="-1158.1" cy="-1246" r="0"/>
 </g>
 <circle id="circle36-3" cx="-1236.5" cy="-1298.7" r="0" fill="#5e4aa6"/>
 <circle id="circle38-5" cx="-136.95" cy="-33.178" r="0" fill="#5e4aa6" fill-rule="evenodd"/>
 <path id="text2160" d="m43.142 42.195h0.88544c-2.5e-5 2.5907-0.42225 4.4764-1.2667 5.657-0.84447 1.1806-1.898 1.7709-3.1605 1.7709-1.033 0-2.025-0.38943-2.976-1.1683-0.95104-0.77885-1.8037-2.8654-2.5579-6.2595l-2.1152-9.543-7.3294 16.627h-4.6485l10.527-22.677c-0.5575-2.935-1.2298-5.1076-2.0168-6.5178-0.78706-1.4101-1.7627-2.1152-2.9269-2.1152-0.93463 3.4e-5 -1.7504 0.35666-2.4472 1.0699-0.69687 0.7133-1.0863 1.816-1.1683 3.3081h-0.88544c0.04919-2.4103 0.5329-4.3411 1.4511-5.7922 0.91822-1.4511 2.066-2.1767 3.4434-2.1767 0.88543 3.4e-5 1.7258 0.36486 2.521 1.0945 0.79524 0.7297 1.4839 1.9759 2.066 3.7385 0.58208 1.7627 1.488 5.4151 2.7178 10.957l1.7463 7.7968c0.70505 3.2302 1.447 5.3905 2.2259 6.4809 0.77884 1.0904 1.7094 1.6356 2.7916 1.6356 1.8364 0 2.8776-1.2954 3.1236-3.8861z" fill="#fff"/>
</svg>
