<?xml version="1.0" encoding="UTF-8"?>
<svg id="svg5" width="64" height="64" version="1.1" viewBox="0 0 16.933 16.933" xmlns="http://www.w3.org/2000/svg">
 <defs id="defs5">
  <filter id="filter1057" x="-.027" y="-.027" width="1.054" height="1.054" color-interpolation-filters="sRGB">
   <feGaussianBlur id="feGaussianBlur1" stdDeviation="0.61875"/>
  </filter>
  <linearGradient id="linearGradient1053" x1="-127" x2="-127" y1="60" y2="5" gradientTransform="matrix(.26458 0 0 .26458 34.793 -.1351)" gradientUnits="userSpaceOnUse">
   <stop id="stop1" stop-color="#323741" offset="0"/>
   <stop id="stop2" stop-color="#465064" offset="1"/>
  </linearGradient>
 </defs>
 <rect id="rect8" transform="matrix(.26458 0 0 .26458 -6.0163e-5 -6.0163e-5)" x="4.5" y="4.5" width="55" height="55" ry="15" fill="#141414" filter="url(#filter1057)" opacity=".3" stroke-linecap="round" stroke-width="2.7444"/>
 <rect id="rect9" x="1.1905" y="1.1905" width="14.552" height="14.552" ry="3.9687" fill="url(#linearGradient1053)" stroke-linecap="round" stroke-width=".72611"/>
 <path id="path1" d="m8.5316 4.233a4.234 4.234 0 1 0 0 8.467 4.234 4.234 0 0 0 0-8.467zm0 0.353a3.882 3.882 0 0 1 3.735 2.826 6.733 6.733 0 0 1-1.645 2.145c-0.33 0.285-0.689 0.54-1.086 0.719-0.398 0.179-0.835 0.28-1.27 0.255a2.197 2.197 0 0 1-0.936-0.268 7.061 7.061 0 0 0 2.004-1.616c0.368-0.43 0.69-0.92 0.813-1.473a2 2 0 0 0 0.015-0.843 1.558 1.558 0 0 0-0.38-0.748 1.526 1.526 0 0 0-0.705-0.418 1.854 1.854 0 0 0-0.823-0.03c-0.545 0.1-1.03 0.416-1.42 0.809-0.688 0.692-1.113 1.67-1.035 2.642 0.04 0.486 0.202 0.964 0.482 1.364 0.062 0.089 0.13 0.174 0.204 0.255a6.348 6.348 0 0 1-1.255 0.3 3.88 3.88 0 0 1 3.302-5.92zm0.024 0.784c0.273 0 0.548 0.083 0.765 0.247 0.197 0.148 0.342 0.36 0.424 0.59 0.083 0.232 0.104 0.484 0.076 0.728-0.057 0.488-0.303 0.936-0.6 1.327a5.723 5.723 0 0 1-2.25 1.75 2.004 2.004 0 0 1-0.425-0.521c-0.231-0.41-0.307-0.897-0.262-1.365 0.044-0.468 0.205-0.92 0.421-1.338 0.25-0.485 0.592-0.944 1.07-1.207 0.238-0.132 0.509-0.212 0.781-0.211zm3.821 2.577a3.88 3.88 0 0 1-6.837 2.992c0.44-0.1 0.87-0.243 1.281-0.426 0.18 0.138 0.38 0.25 0.59 0.331 0.61 0.234 1.3 0.2 1.917-0.014 0.616-0.213 1.163-0.596 1.64-1.041a7.056 7.056 0 0 0 1.41-1.842z" fill="#fff"/>
 <g id="g5">
  <circle id="circle5" cx="12.7" cy="12.7" r="4.2333" fill="#f55" stroke-linecap="round" stroke-width=".60496"/>
  <circle id="circle6" cx="12.7" cy="12.7" r="3.1514" opacity=".15" stroke-width=".91605" style="paint-order:stroke markers fill"/>
  <path id="path6" d="m12.588 8.9957c-0.20666 0.00769-0.32024 0.077069-0.39427 0.22608-0.0475 0.095621-0.08632 0.25491-0.08636 0.35403-1.52e-4 0.36366-0.36731 0.69542-0.77003 0.69542-0.1976 0-0.30614-0.0544-0.70629-0.35403-0.18212-0.13639-0.2971-0.10091-0.57966 0.17725-0.26847 0.26431-0.27524 0.39089-0.03753 0.70629 0.09824 0.13038 0.19777 0.30416 0.22111 0.3866 0.05772 0.20386-0.03678 0.57702-0.18856 0.74291-0.1244 0.13597-0.4333 0.2419-0.70267 0.2419-0.25614 0-0.34816 0.14582-0.34816 0.54937 0 0.31424 0.012062 0.35715 0.11982 0.42867 0.065856 0.04373 0.25609 0.09905 0.42322 0.12299 0.16713 0.02393 0.36006 0.08049 0.42819 0.1257 0.14384 0.09547 0.31056 0.43719 0.31199 0.6398 0.0012 0.1471-0.11209 0.40718-0.2288 0.5254-0.1272 0.12884-0.22025 0.36332-0.18674 0.47024 0.042925 0.13699 0.33369 0.42991 0.48426 0.48788 0.08624 0.03322 0.1489 0.02354 0.23241-0.03572 0.24477-0.17365 0.66354-0.36218 0.80485-0.36218 0.21303 0 0.56638 0.188 0.64388 0.34273 0.03648 0.07289 0.08197 0.24278 0.10128 0.3771 0.04683 0.32575 0.12086 0.47904 0.24507 0.50553 0.05646 0.01197 0.14733 0.03228 0.20166 0.04476 0.05433 0.01282 0.17666 0.01282 0.27175 0 0.24801-0.0333 0.3802-0.21822 0.42187-0.59006 0.03809-0.33998 0.06931-0.3947 0.31969-0.55479 0.25424-0.16258 0.45325-0.19432 0.64885-0.10355 0.16218 0.07528 0.22773 0.11428 0.49376 0.29164 0.19492 0.12998 0.31638 0.1085 0.54167-0.09767 0.33879-0.31001 0.34562-0.44481 0.04205-0.79897-0.28895-0.33705-0.29223-0.75172-0.0081-1.0702 0.10879-0.12198 0.20633-0.1644 0.52857-0.2288 0.48653-0.09721 0.56559-0.17666 0.56699-0.57154 0.0013-0.39441-0.06134-0.45886-0.51818-0.53037-0.4347-0.06807-0.57387-0.16628-0.72664-0.5105-0.12699-0.28622-0.09195-0.45394 0.17906-0.84689 0.13898-0.2015 0.20816-0.34856 0.19217-0.41055-0.03572-0.13836-0.48603-0.5512-0.60139-0.5512-0.05342 0-0.19566 0.076929-0.31606 0.17001-0.33212 0.25683-0.52992 0.31485-0.8139 0.23873-0.33366-0.08938-0.45243-0.23032-0.53672-0.63755-0.09678-0.46769-0.15919-0.55186-0.43454-0.58329-0.09173-0.010543-0.17077-0.014771-0.23966-0.012208v-8.996e-4zm0.11169 2.3151a1.3891 1.3891 0 0 1 1.3891 1.3891 1.3891 1.3891 0 0 1-1.3891 1.3891 1.3891 1.3891 0 0 1-1.3891-1.3891 1.3891 1.3891 0 0 1 1.3891-1.3891z" fill="#fff" stroke-width=".23151"/>
 </g>
</svg>
