<?xml version="1.0" encoding="UTF-8"?>
<svg id="svg3" width="64" height="64" version="1.1" xml:space="preserve" xmlns="http://www.w3.org/2000/svg"><defs id="defs3"><filter id="filter1057" x="-.027" y="-.027" width="1.054" height="1.054" color-interpolation-filters="sRGB"><feGaussianBlur id="feGaussianBlur1" stdDeviation="0.61875"/></filter><linearGradient id="linearGradient1053" x1="-127" x2="-71.94" y1="60" y2="4.9403" gradientTransform="translate(131.5 -.51)" gradientUnits="userSpaceOnUse"><stop id="stop1" stop-color="#524084" offset="0"/><stop id="stop2" stop-color="#b768e6" offset="1"/></linearGradient></defs><rect id="rect5" x="4.5" y="4.5" width="55" height="55" ry="15" fill="#141414" filter="url(#filter1057)" opacity=".3" stroke-linecap="round" stroke-width="2.7444"/><rect id="rect6" x="4.5" y="4.5" width="55" height="55" ry="15" fill="url(#linearGradient1053)" stroke-linecap="round" stroke-width="2.7444"/><g id="g18" transform="matrix(.6207 0 0 .6207 22.31 21.028)"><path id="path10" d="m3.4219-1.4463a6.7044 6.7044 0 0 1-6.7044 6.7044 6.7044 6.7044 0 0 1 6.7044 6.7025 6.7044 6.7044 0 0 1 6.7044-6.7025 6.7044 6.7044 0 0 1-6.7044-6.7044zm44.692 11.174a6.7044 6.7044 0 0 1-6.7044 6.7025 6.7044 6.7044 0 0 1 6.7044 6.7044 6.7044 6.7044 0 0 1 6.7044-6.7044 6.7044 6.7044 0 0 1-6.7044-6.7025z" fill="#f9f9f9" stroke-width="1.9036" style="paint-order:normal"/></g><g id="g17" transform="matrix(.73572 .19714 -.19714 .73572 107.28 38.653)" stroke-linecap="round" stroke-linejoin="round"><path id="path11" d="m-82.053-28.83c-1.5505 0-2.7988 1.3071-2.7988 2.9297v58.693c0 1.6226 1.2483 2.9277 2.7988 2.9277z" fill="#fff" stroke-width=".48877"/><path id="path12" d="m-82.053-28.83v64.551c1.5505 0 2.7988-1.3051 2.7988-2.9277v-58.693c0-1.6226-1.2483-2.9297-2.7988-2.9297z" fill="#dfdfe0" stroke-width=".48877"/><path id="path13" d="m-82.052 14.128s-12.405-0.48311-14.029 13.649c-1.6244 14.132-2.599 22.579-2.599 22.579h16.628z" fill="#f8d057" stroke-width=".5"/><path id="path14" d="m-82.052 50.355v-36.228" fill="#5abbf9" stroke-width=".5"/><path id="path15" d="m-82.052 14.128s12.405-0.48311 14.029 13.649c1.6244 14.132 2.599 22.579 2.599 22.579h-16.628z" fill="#f2b55a" stroke-width=".5"/><path id="path16" d="m-82.053 27.533v3.8164h14.441c-0.22319-1.9404-0.1551-1.3363-0.41211-3.5723-0.0097-0.08403-0.02474-0.16114-0.03516-0.24414z" fill="#a15439" stroke-width=".5"/><path id="path17" d="m-96.047 27.533c-0.01042 0.083-0.0255 0.16011-0.03516 0.24414-0.257 2.2359-0.18698 1.632-0.41016 3.5723h14.439v-3.8164z" fill="#e97043" stroke-width=".5"/></g></svg>
