<?xml version="1.0" encoding="UTF-8"?>
<svg id="svg1829" width="128" height="128" version="1.1" viewBox="0 0 33.867 33.867" xmlns="http://www.w3.org/2000/svg" xmlns:cc="http://creativecommons.org/ns#" xmlns:dc="http://purl.org/dc/elements/1.1/" xmlns:rdf="http://www.w3.org/1999/02/22-rdf-syntax-ns#" xmlns:xlink="http://www.w3.org/1999/xlink">
 <defs id="defs1823">
  <radialGradient id="radialGradient886" cx="17.31" cy="2.5296" r="14.544" gradientTransform="matrix(7.1618 0 0 1.7511 -106.66 -1.9)" gradientUnits="userSpaceOnUse">
   <stop id="stop880" stop-color="#5d5f61" offset="0"/>
   <stop id="stop882" stop-color="#343637" offset="1"/>
  </radialGradient>
  <linearGradient id="linearGradient894" x1="58.123" x2="58.123" y1="31.302" y2="114.21" gradientUnits="userSpaceOnUse">
   <stop id="stop888" stop-color="#f3f2f1" offset="0"/>
   <stop id="stop890" stop-color="#d5d6d7" offset="1"/>
  </linearGradient>
 </defs>
 <metadata id="metadata1826">
  <rdf:RDF>
   <cc:Work rdf:about="">
    <dc:format>image/svg+xml</dc:format>
    <dc:type rdf:resource="http://purl.org/dc/dcmitype/StillImage"/>
    <dc:title/>
   </cc:Work>
  </rdf:RDF>
 </metadata>
 <g id="layer1" stroke-linejoin="round">
  <g id="g1702" transform="matrix(.97573 0 0 .97573 -65.587 -37.192)" fill="none" opacity=".29676" stroke="#000" stroke-linecap="round" stroke-opacity=".02">
   <rect id="rect1634" x="69.84" y="40.71" width="29.811" height="29.811" rx="6.6099" ry="6.6099" stroke-width=".1"/>
   <rect id="rect1638" x="69.84" y="40.71" width="29.811" height="29.811" rx="6.6099" ry="6.6099" stroke-width=".2"/>
   <rect id="rect1640" x="69.84" y="40.71" width="29.811" height="29.811" rx="6.6099" ry="6.6099" stroke-width=".3"/>
   <rect id="rect1642" x="69.84" y="40.71" width="29.811" height="29.811" rx="6.6099" ry="6.6099" stroke-width=".4"/>
   <rect id="rect1644" x="69.84" y="40.71" width="29.811" height="29.811" rx="6.6099" ry="6.6099" stroke-width=".5"/>
   <rect id="rect1646" x="69.84" y="40.71" width="29.811" height="29.811" rx="6.6099" ry="6.6099" stroke-width=".6"/>
   <rect id="rect1648" x="69.84" y="40.71" width="29.811" height="29.811" rx="6.6099" ry="6.6099" stroke-width=".7"/>
   <rect id="rect1650" x="69.84" y="40.71" width="29.811" height="29.811" rx="6.6099" ry="6.6099" stroke-width=".8"/>
   <rect id="rect1652" x="69.84" y="40.71" width="29.811" height="29.811" rx="6.6099" ry="6.6099"/>
   <rect id="rect1654" x="69.84" y="40.71" width="29.811" height="29.811" rx="6.6099" ry="6.6099" stroke-width="1.2"/>
   <rect id="rect1656" x="69.84" y="40.71" width="29.811" height="29.811" rx="6.6099" ry="6.6099" stroke-width="1.4"/>
   <rect id="rect1658" x="69.84" y="40.71" width="29.811" height="29.811" rx="6.6099" ry="6.6099" stroke-width="1.6"/>
   <rect id="rect1660" x="69.84" y="40.71" width="29.811" height="29.811" rx="6.6099" ry="6.6099" stroke-width="1.8"/>
   <rect id="rect1662" x="69.84" y="40.71" width="29.811" height="29.811" rx="6.6099" ry="6.6099" stroke-width="2"/>
   <rect id="rect1664" x="69.84" y="40.71" width="29.811" height="29.811" rx="6.6099" ry="6.6099" stroke-width="2.2"/>
   <rect id="rect1666" x="69.84" y="40.71" width="29.811" height="29.811" rx="6.6099" ry="6.6099" stroke-width="2.6"/>
   <rect id="rect1668" x="69.84" y="40.71" width="29.811" height="29.811" rx="6.6099" ry="6.6099" stroke-width="3"/>
   <rect id="rect1670" x="69.84" y="40.71" width="29.811" height="29.811" rx="6.6099" ry="6.6099" stroke-width="3.4"/>
   <rect id="rect1672" x="69.84" y="40.71" width="29.811" height="29.811" rx="6.6099" ry="6.6099" stroke-width="3.8"/>
   <rect id="rect1674" x="69.84" y="40.71" width="29.811" height="29.811" rx="6.6099" ry="6.6099" stroke-width="4.2"/>
   <rect id="rect1676" x="69.84" y="40.71" width="29.811" height="29.811" rx="6.6099" ry="6.6099" stroke-width="4.6"/>
   <rect id="rect1678" x="69.84" y="40.71" width="29.811" height="29.811" rx="6.6099" ry="6.6099" stroke-width="5"/>
  </g>
  <rect id="rect849-5" x="2.5579" y="2.5293" width="29.087" height="29.087" rx="6.4495" ry="6.4495" fill="url(#radialGradient886)" stroke-linecap="round" stroke-width="2.6877"/>
  <path id="path870" transform="scale(.26458)" d="m31.112 9.5605v29.789h29.009c2.9373 0 5.3027-2.3654 5.3027-5.3027v-24.486z" fill-opacity=".26911" stroke-linecap="square" stroke-width="11.339"/>
  <path id="rect859" transform="scale(.26458)" d="m49.086 9.5605v29.789h36.836c2.9373 0 5.3027-2.3654 5.3027-5.3027v-24.486h-42.139zm-15.926 65.83c-4.698 0-8.4785 3.7825-8.4785 8.4805v33.771c2.8801 1.1925 6.0402 1.8535 9.3613 1.8535h61.186c3.3217 0 6.4828-0.66061 9.3633-1.8535v-33.771c0-4.698-3.7825-8.4805-8.4805-8.4805h-62.951zm-16.264 17.227c-1.6417-1e-6 -2.9648 1.3212-2.9648 2.9629v5.9277c0 1.6417 1.3231 2.9629 2.9648 2.9629 1.6417 0 2.9629-1.3212 2.9629-2.9629v-5.9277c0-1.6417-1.3212-2.9629-2.9629-2.9629zm95.23 0c-1.6417-1e-6 -2.9629 1.3212-2.9629 2.9629v5.9277c0 1.6417 1.3212 2.9629 2.9629 2.9629 1.6417 0 2.9629-1.3212 2.9629-2.9629v-5.9277c0-1.6417-1.3212-2.9629-2.9629-2.9629z" fill="url(#linearGradient894)" stroke-linecap="square" stroke-width="11.339"/>
  <rect id="rect872" x="20.441" y="4.5183" width="2.1629" height="4.5595" rx="0" ry="0" fill="#545658" stroke-linecap="square" stroke-width="3"/>
 </g>
</svg>
