<?xml version="1.0" encoding="UTF-8"?>
<svg id="svg6" width="128" height="128" version="1.1" viewBox="0 0 33.867 33.867" xmlns="http://www.w3.org/2000/svg" xmlns:cc="http://creativecommons.org/ns#" xmlns:dc="http://purl.org/dc/elements/1.1/" xmlns:rdf="http://www.w3.org/1999/02/22-rdf-syntax-ns#" xmlns:xlink="http://www.w3.org/1999/xlink">
 <metadata id="metadata102">
  <rdf:RDF>
   <cc:Work rdf:about="">
    <dc:format>image/svg+xml</dc:format>
    <dc:type rdf:resource="http://purl.org/dc/dcmitype/StillImage"/>
    <dc:title/>
   </cc:Work>
  </rdf:RDF>
 </metadata>
 <defs id="defs2">
  <linearGradient id="linearGradient5229" x1="15.56" x2="15.56" y1="3.6425" y2="13.907" gradientTransform="translate(.010281)" gradientUnits="userSpaceOnUse">
   <stop id="stop5219" stop-color="#f54142" offset="0"/>
   <stop id="stop5221" stop-color="#c16969" offset="1"/>
  </linearGradient>
 </defs>
 <g id="layer1">
  <g id="g1702" transform="matrix(.97573 0 0 .97573 -65.748 -37.203)" fill="none" opacity=".29677" stroke="#000" stroke-linecap="round" stroke-linejoin="round" stroke-opacity=".02">
   <rect id="rect1634" x="69.84" y="40.71" width="29.811" height="29.811" rx="6.6099" ry="6.6099" stroke-width=".1"/>
   <rect id="rect1638" x="69.84" y="40.71" width="29.811" height="29.811" rx="6.6099" ry="6.6099" stroke-width=".2"/>
   <rect id="rect1640" x="69.84" y="40.71" width="29.811" height="29.811" rx="6.6099" ry="6.6099" stroke-width=".3"/>
   <rect id="rect1642" x="69.84" y="40.71" width="29.811" height="29.811" rx="6.6099" ry="6.6099" stroke-width=".4"/>
   <rect id="rect1644" x="69.84" y="40.71" width="29.811" height="29.811" rx="6.6099" ry="6.6099" stroke-width=".5"/>
   <rect id="rect1646" x="69.84" y="40.71" width="29.811" height="29.811" rx="6.6099" ry="6.6099" stroke-width=".6"/>
   <rect id="rect1648" x="69.84" y="40.71" width="29.811" height="29.811" rx="6.6099" ry="6.6099" stroke-width=".7"/>
   <rect id="rect1650" x="69.84" y="40.71" width="29.811" height="29.811" rx="6.6099" ry="6.6099" stroke-width=".8"/>
   <rect id="rect1652" x="69.84" y="40.71" width="29.811" height="29.811" rx="6.6099" ry="6.6099"/>
   <rect id="rect1654" x="69.84" y="40.71" width="29.811" height="29.811" rx="6.6099" ry="6.6099" stroke-width="1.2"/>
   <rect id="rect1656" x="69.84" y="40.71" width="29.811" height="29.811" rx="6.6099" ry="6.6099" stroke-width="1.4"/>
   <rect id="rect1658" x="69.84" y="40.71" width="29.811" height="29.811" rx="6.6099" ry="6.6099" stroke-width="1.6"/>
   <rect id="rect1660" x="69.84" y="40.71" width="29.811" height="29.811" rx="6.6099" ry="6.6099" stroke-width="1.8"/>
   <rect id="rect1662" x="69.84" y="40.71" width="29.811" height="29.811" rx="6.6099" ry="6.6099" stroke-width="2"/>
   <rect id="rect1664" x="69.84" y="40.71" width="29.811" height="29.811" rx="6.6099" ry="6.6099" stroke-width="2.2"/>
   <rect id="rect1666" x="69.84" y="40.71" width="29.811" height="29.811" rx="6.6099" ry="6.6099" stroke-width="2.6"/>
   <rect id="rect1668" x="69.84" y="40.71" width="29.811" height="29.811" rx="6.6099" ry="6.6099" stroke-width="3"/>
   <rect id="rect1670" x="69.84" y="40.71" width="29.811" height="29.811" rx="6.6099" ry="6.6099" stroke-width="3.4"/>
   <rect id="rect1672" x="69.84" y="40.71" width="29.811" height="29.811" rx="6.6099" ry="6.6099" stroke-width="3.8"/>
   <rect id="rect1674" x="69.84" y="40.71" width="29.811" height="29.811" rx="6.6099" ry="6.6099" stroke-width="4.2"/>
   <rect id="rect1676" x="69.84" y="40.71" width="29.811" height="29.811" rx="6.6099" ry="6.6099" stroke-width="4.6"/>
   <rect id="rect1678" x="69.84" y="40.71" width="29.811" height="29.811" rx="6.6099" ry="6.6099" stroke-width="5"/>
  </g>
  <rect id="rect849" x="2.4065" y="2.5186" width="29.087" height="29.087" rx="6.4495" ry="6.4495" fill="#fff" stroke-linecap="round" stroke-linejoin="round" stroke-width="2.6877"/>
  <path id="rect5227" d="m8.856 2.5186h16.189c3.573 0 6.4494 2.8765 6.4494 6.4495v2.0236h-29.087v-2.0236c0-3.573 2.8765-6.4495 6.4495-6.4495z" fill="url(#linearGradient5229)" stroke-linecap="round" stroke-linejoin="round" stroke-width="2.6877"/>
  <path id="path856-1" d="m13.452 2.7533 0.10676 3.319c7e-3 0.2427 0.04573 0.44123 0.11516 0.59544 0.06943 0.1542 0.19616 0.26896 0.38092 0.34316 0.18476 0.0742 0.45564 0.11254 0.81304 0.11526 0.14119 0.00107 0.26752-0.010552 0.37802-0.033979 0.1149-0.023395 0.2235-0.076648 0.32563-0.1608 0.10657-0.088163 0.21788-0.22483 0.33401-0.40998 0.15725 0.21149 0.35014 0.38256 0.5786 0.51371 0.22849 0.1271 0.4527 0.19127 0.67331 0.19294 0.11704 8.882e-4 0.22541-0.024386 0.32851-0.065418l0.08351 2.5819c7e-3 0.2427 0.04501 0.44123 0.11444 0.59543 0.06943 0.15421 0.19688 0.26897 0.38164 0.34316 0.18476 0.0742 0.45564 0.11254 0.81304 0.11526l0.60193 0.0046c0.38828 0.0029 0.69782-0.02334 0.92768-0.07821 0.2299-0.05891 0.40247-0.13439 0.51789-0.22653 0.11542-0.09214 0.19106-0.19032 0.22716-0.2952 0.0361-0.10487 0.05488-0.20175 0.05551-0.29073 0.0024-0.31138-0.13468-0.62025-0.41035-0.92566-0.27123-0.30941-0.6632-0.65825-1.1765-1.0463 0.14187-0.087896 0.29439-0.17364 0.45829-0.25733 0.16834-0.087695 0.37854-0.18732 0.6309-0.29864 0.24499-0.11003 0.56601-0.25123 0.94394-0.41547 0.05098 0.050564 0.11151 0.092303 0.18361 0.12493 0.14076 0.057688 0.33265 0.087769 0.57534 0.089563 0.35298 0.00267 0.63177-0.086303 0.83612-0.26674 0.20438-0.18448 0.30775-0.46464 0.3106-0.84073 9.28e-4 -0.12132-0.01533-0.26314-0.0494-0.42517-0.034071-0.16207-0.077234-0.32434-0.12896-0.4865-0.051691-0.1662-0.10326-0.31596-0.15519-0.44981l-0.53771 0.17798c0.09532 0.23124 0.17956 0.46395 0.25279 0.69907 0.07764 0.23515 0.11571 0.42775 0.11457 0.57737-0.0016 0.21028-0.05948 0.34909-0.17474 0.41697-0.11524 0.067873-0.26809 0.10128-0.45782 0.099837-0.17208-0.00131-0.30164-0.016605-0.38967-0.045583-0.08362-0.028945-0.1409-0.067406-0.17142-0.11617-0.02608-0.052777-0.03883-0.10767-0.03841-0.16428 5.14e-4 -0.068747 0.0074-0.15386 0.0214-0.25486 0.01403-0.10504 0.03081-0.2096 0.04928-0.3146 0.02283-0.10498 0.04086-0.1942 0.05466-0.26689l-0.50253-0.088304c-0.04937 0.29032-0.09646 0.5141-0.1407 0.68236l-0.15335-0.31254c-0.41605 0.19419-0.77805 0.37376-1.1144 0.5471-2.7e-5 -0.00213-0.0014-0.00358-0.0014-0.0058 8.53e-4 -0.11323 0.01915-0.24048 0.0555-0.38175 0.03637-0.14127 0.06853-0.26422 0.0958-0.36916l-0.4957-0.1309c-0.07281 0.29063-0.13624 0.51629-0.19041 0.67765-0.05417 0.16136-0.11265 0.27991-0.175 0.35628-0.05791 0.072358-0.13037 0.11894-0.21876 0.13849-0.08837 0.015511-0.20356 0.022291-0.34476 0.021225-2.65e-4 -1.8e-6 -4.55e-4 -3.5e-6 -7.23e-4 -6.8e-6 -0.11472-8.726e-4 -0.21864-0.017713-0.31105-0.050762-0.087974-0.037064-0.17341-0.1103-0.25642-0.22012-0.078592-0.10979-0.16746-0.27833-0.26723-0.50557-0.10847-0.24347-0.21314-0.43484-0.31358-0.5731-0.095998-0.14227-0.20064-0.24183-0.31493-0.29931-0.11426-0.061533-0.24442-0.092885-0.39002-0.093983-0.10589-8.09e-4 -0.22538 0.024461-0.35815 0.07603-0.12836 0.051604-0.26569 0.14585-0.41234 0.28224-0.14224 0.13642-0.28522 0.33358-0.42838 0.59132-0.10736 0.19331-0.1966 0.34619-0.26806 0.45888-0.06702 0.10868-0.13835 0.18666-0.21373 0.23462-0.07097 0.047992-0.16824 0.071685-0.29178 0.070753-0.2515-0.00191-0.43651-0.023548-0.55533-0.064893-0.11441-0.041313-0.18876-0.11446-0.22326-0.21987-0.030056-0.10942-0.049015-0.26312-0.056337-0.46134l-0.10897-3.1254zm8.1246 0.4864c-0.09266-7.033e-4 -0.17194 0.029059-0.23858 0.089218-0.06223 0.06019-0.094 0.1308-0.09461 0.21168-6.13e-4 0.080879 0.03008 0.15196 0.09138 0.21309 0.06575 0.057116 0.14459 0.085622 0.23725 0.086324 0.08825 6.713e-4 0.16407-0.026662 0.22627-0.082809 0.06665-0.060157 0.09976-0.13076 0.10037-0.21164 6.22e-4 -0.080877-0.03142-0.15197-0.09715-0.21313-0.06131-0.061128-0.1367-0.092064-0.22494-0.092734zm-0.45488 0.66408c-0.09266-7.034e-4 -0.17193 0.029059-0.23858 0.089218-0.06223 0.06019-0.09399 0.1308-0.09461 0.21168-6.12e-4 0.080878 0.03008 0.15124 0.09139 0.21237 0.06575 0.057116 0.14458 0.086343 0.23724 0.087046 0.08825 6.713e-4 0.16336-0.027391 0.22556-0.083537 0.06665-0.060157 0.10048-0.13003 0.10109-0.21091 6.12e-4 -0.080879-0.03215-0.15198-0.09787-0.21314-0.06131-0.061128-0.13598-0.092058-0.22422-0.092727zm0.90037 0.00683c-0.09266-7.023e-4 -0.17266 0.029053-0.2393 0.089213-0.06223 0.06019-0.09327 0.13081-0.09388 0.21168-6.23e-4 0.080877 0.02935 0.15123 0.09067 0.21236 0.06575 0.057116 0.1453 0.086349 0.23796 0.087052 0.08825 6.682e-4 0.16336-0.027392 0.22556-0.083537 0.06665-0.060157 0.10047-0.13003 0.10108-0.21091 6.13e-4 -0.080879-0.03214-0.15198-0.09787-0.21314-0.06131-0.061128-0.13598-0.092059-0.22422-0.092728zm-9.9721 1.107-0.48469 0.221c0.11763 0.19906 0.2086 0.36516 0.27377 0.49911 0.06517 0.13395 0.11074 0.25402 0.13641 0.35936 0.02568 0.10534 0.03802 0.21432 0.03717 0.32755-0.0013 0.17793-0.04852 0.36569-0.14268 0.56314-0.08971 0.19344-0.25689 0.37855-0.50091 0.55464-0.23961 0.17613-0.58267 0.32708-1.0293 0.45311l0.18826 0.46234c0.13703-0.031311 0.29208-0.082482 0.46472-0.15397 0.17704-0.071452 0.35181-0.16368 0.52475-0.2756 0.17735-0.11189 0.33928-0.24817 0.48611-0.40883 0.15121-0.15658 0.27188-0.33713 0.36169-0.5427 0.09422-0.20554 0.14244-0.43623 0.14437-0.691 0.0014-0.17793-0.03453-0.38411-0.10777-0.61922-0.06882-0.23508-0.18622-0.48482-0.35189-0.74895zm4.8171 0.38258c0.10148 7.672e-4 0.18927 0.039441 0.26369 0.11687 0.07445 0.073358 0.1396 0.16914 0.19608 0.28685 0.05647 0.11771 0.11106 0.23712 0.16309 0.35884 0.04301 0.10063 0.06011 0.18769 0.0564 0.2634l-0.08434-6.408e-4 0.0058 0.18932c-0.07168 0.080686-0.17466 0.12293-0.31308 0.12188-0.14564-0.0011075-0.311-0.054669-0.49552-0.16125-0.18449-0.11059-0.35031-0.28218-0.49858-0.51382 0.14312-0.2537 0.27204-0.42652 0.38746-0.51866 0.11542-0.092141 0.2219-0.13948 0.319-0.14279zm4.4138 0.80359c-0.04003 0.12833-0.08373 0.23202-0.13274 0.29664-0.05353 0.076438-0.12184 0.12406-0.20583 0.14365-0.08399 0.019591-0.19225 0.028882-0.32462 0.02788-0.09324-7.064e-4 -0.16758-0.0085-0.23631-0.019133 0.28151-0.14305 0.54628-0.28001 0.8995-0.44904zm-1.4307 0.7152c0.03094 0.038089 0.06427 0.072657 0.10306 0.099756 0.05853 0.038179 0.12081 0.065319 0.18533 0.087374-0.02233 0.01004-0.0593 0.027192-0.08102 0.036957-0.37636 0.17105-0.65299 0.34275-0.83079 0.5153-0.04888 0.044115-0.08472 0.10631-0.10739 0.18702-0.02271 0.080703-0.03447 0.16752-0.03518 0.26053-2.73e-4 0.036392 0.05197 0.095786 0.15726 0.17747 0.10528 0.081679 0.23907 0.18145 0.40144 0.29997 0.16236 0.11852 0.32502 0.25552 0.48711 0.41043 0.23661 0.22018 0.39199 0.39935 0.46596 0.53741 0.07838 0.1381 0.11703 0.25392 0.11632 0.34693-3.84e-4 0.05258-0.01399 0.10481-0.04084 0.15718-0.02243 0.04836-0.07133 0.0944-0.14667 0.13832-0.0709 0.03991-0.18351 0.07361-0.33815 0.10074-0.15461 0.02309-0.35998 0.03339-0.6159 0.03145l-0.62211-0.0047c-0.2515-0.0019-0.43723-0.02355-0.55605-0.0649-0.11441-0.04131-0.18875-0.11446-0.22326-0.21987-0.03006-0.10942-0.0483-0.26312-0.05562-0.46134l-0.09-2.5812c0.0572 0.041468 0.12132 0.077146 0.19385 0.10478 0.14524 0.049633 0.30386 0.075272 0.47594 0.076562 2.55e-4 2.1e-6 4.81e-4 4.7e-6 7.22e-4 7.5e-6 0.0026 2.76e-5 0.0046-6.72e-4 0.0072-6.474e-4l0.19615 0.27674c0.26007-0.14588 0.58189-0.3185 0.95261-0.51221zm-4.3537 0.96612-0.3467 0.37304 0.19055 0.15966c-0.3153 0.26452-0.53776 0.51761-0.66756 0.75928-0.12535 0.23766-0.18859 0.43715-0.18982 0.59891-0.0025 0.32756 0.10314 0.57128 0.31815 0.73063 0.21504 0.15531 0.48633 0.23414 0.81284 0.23662 0.22503 0.0017 0.41252-0.03143 0.56306-0.09904 0.15057-0.07165 0.26848-0.16185 0.35314-0.2704 0.08469-0.1126 0.14521-0.22766 0.1814-0.34467 0.03618-0.11701 0.0543-0.22156 0.05505-0.31456 0.0018-0.23859-0.05612-0.4659-0.17362-0.68113-0.1175-0.21523-0.27271-0.41811-0.46541-0.60965-0.1927-0.19154-0.40286-0.37112-0.63104-0.53867zm0.15919 0.77783c0.18421 0.14699 0.32261 0.28135 0.41435 0.40337 0.09177 0.11798 0.15266 0.22732 0.18278 0.32865 0.03012 0.10133 0.04464 0.19846 0.04393 0.29148-0.0013 0.16984-0.05917 0.30691-0.17469 0.41119-0.11549 0.10023-0.28371 0.14956-0.50432 0.14789-0.17649-0.0013-0.32388-0.04472-0.44237-0.1305-0.11408-0.08579-0.17068-0.21361-0.16939-0.38345 0.0011-0.14558 0.05713-0.31549 0.16894-0.50876 0.11619-0.19324 0.27642-0.37942 0.48077-0.55986z" fill="#fff" stroke-width=".40018"/>
  <path id="path892" d="m20.064 15.66-7.7358 6.677 8.4518 6.331 0.79303-1.059-4.9942-3.7409 0.04684-3.2821 4.2655-3.8938z" color="#000000" color-rendering="auto" dominant-baseline="auto" fill="#22292d" image-rendering="auto" shape-rendering="auto" solid-color="#000000" style="font-feature-settings:normal;font-variant-alternates:normal;font-variant-caps:normal;font-variant-ligatures:normal;font-variant-numeric:normal;font-variant-position:normal;isolation:auto;mix-blend-mode:normal;shape-padding:0;text-decoration-color:#000000;text-decoration-line:none;text-decoration-style:solid;text-indent:0;text-orientation:mixed;text-transform:none;white-space:normal"/>
 </g>
</svg>
