<?xml version="1.0" encoding="UTF-8"?>
<svg id="svg49" width="64" height="64" version="1.1" viewBox="0 0 16.933 16.933" xmlns="http://www.w3.org/2000/svg" xmlns:cc="http://creativecommons.org/ns#" xmlns:dc="http://purl.org/dc/elements/1.1/" xmlns:rdf="http://www.w3.org/1999/02/22-rdf-syntax-ns#" xmlns:xlink="http://www.w3.org/1999/xlink">
 <metadata id="metadata2">
  <rdf:RDF>
   <cc:Work rdf:about="">
    <dc:format>image/svg+xml</dc:format>
    <dc:type rdf:resource="http://purl.org/dc/dcmitype/StillImage"/>
   </cc:Work>
  </rdf:RDF>
 </metadata>
 <defs id="defs19">
  <filter id="filter1057" x="-.027" y="-.027" width="1.054" height="1.054" color-interpolation-filters="sRGB">
   <feGaussianBlur id="feGaussianBlur9" stdDeviation="0.61875"/>
  </filter>
  <linearGradient id="linearGradient983" x1="4.3595" x2="12.026" y1="4.2999" y2="11.966" gradientUnits="userSpaceOnUse">
   <stop id="stop977" stop-color="#171c54" offset="0"/>
   <stop id="stop979" stop-color="#2e3585" offset="1"/>
  </linearGradient>
 </defs>
 <rect id="rect21" transform="scale(.26458)" x="4.5" y="4.5" width="55" height="55" ry="15" fill="#141414" filter="url(#filter1057)" opacity=".3" stroke-linecap="round" stroke-width="2.7444"/>
 <rect id="rect23" x="1.1906" y="1.1906" width="14.552" height="14.552" ry="3.9687" fill="url(#linearGradient983)" stroke-linecap="round" stroke-width=".72611"/>
 <g id="text31974" transform="matrix(1.2383 0 0 1.2383 -1.2869 -2.4343)" fill="#d4da46" stroke-width=".26458" aria-label="GAP ">
  <path id="path2624" d="m5.3059 7.2321h1.0748v1.6123q-0.5016 0.16123-1.0928 0.16123-0.66282 0-1.0569-0.42994-0.39411-0.42994-0.39411-1.254 0-0.78822 0.41203-1.2182 0.42994-0.44785 1.1823-0.44785 0.5016 0 0.89571 0.17914l-0.16123 0.3762q-0.39411-0.19706-0.77031-0.19706-0.51951 0-0.82405 0.34037-0.30454 0.34037-0.30454 0.98528 0 0.64491 0.26871 0.98528 0.28663 0.32245 0.85988 0.32245 0.26871 0 0.57325-0.071656v-0.96736h-0.66282z"/>
  <path id="path2626" d="m9.0858 8.9697-0.35828-1.0211h-1.2182l-0.35828 1.0211h-0.42994l1.2002-3.2962h0.3762l1.2182 3.2962zm-0.48368-1.3794-0.34037-0.94945q-0.10748-0.30454-0.14331-0.51951-0.053742 0.2508-0.16123 0.51951l-0.32245 0.94945z"/>
  <path id="path2628" d="m10.376 7.6978v1.2719h-0.41203v-3.2783h0.80614q0.57325 0 0.85988 0.2508 0.28663 0.23288 0.28663 0.71657t-0.30454 0.77031q-0.30454 0.26871-0.89571 0.26871zm0-0.35828h0.28663q0.44785 0 0.627-0.16123 0.19706-0.16123 0.19706-0.5016 0-0.30454-0.19706-0.46577-0.17914-0.16123-0.55534-0.16123h-0.35828z"/>
 </g>
 <g id="text31974-2" transform="matrix(1.2383 0 0 1.2383 -1.7844 -2.8688)" fill="#d4da46" stroke-width=".26458" aria-label="4">
  <path id="path2637" d="m9.4697 12.831h-0.48368v0.73448h-0.39411v-0.73448h-1.5048v-0.35828l1.4869-2.2034h0.41203v2.1855h0.48368zm-0.87779-0.3762v-0.78822q0-0.39411 0.035828-0.96736h-0.017914q-0.089571 0.23288-0.19706 0.39411l-0.93154 1.3615z"/>
 </g>
 <g id="g2622" transform="matrix(1.2383 0 0 1.2383 17.413 -2.8688)" fill="#d4da46" font-family="sans-serif" font-size="10.583px" stroke-width=".26458">
  <text id="text2616" x="3.5502942" y="8.9697266" style="line-height:1.25" xml:space="preserve"><tspan id="tspan2614" x="3.5502942" y="8.9697266" fill="#d4da46" font-family="'TeX Gyre Bonum Math'" font-size="4.586px" stroke-width=".26458" style="font-variant-caps:normal;font-variant-east-asian:normal;font-variant-ligatures:normal;font-variant-numeric:normal">GAP </tspan></text>
  <text id="text2620" x="7.0333686" y="12.652628" style="line-height:1.25" xml:space="preserve"><tspan id="tspan2618" x="7.0333686" y="12.652628" fill="#d4da46" font-family="'TeX Gyre Bonum Math'" font-size="4.586px" stroke-width=".26458" style="font-variant-caps:normal;font-variant-east-asian:normal;font-variant-ligatures:normal;font-variant-numeric:normal">4</tspan></text>
 </g>
</svg>
