<?xml version="1.0" encoding="UTF-8"?>
<svg id="svg21" width="64" height="64" version="1.1" viewBox="0 0 16.933 16.933" xmlns="http://www.w3.org/2000/svg" xmlns:cc="http://creativecommons.org/ns#" xmlns:dc="http://purl.org/dc/elements/1.1/" xmlns:rdf="http://www.w3.org/1999/02/22-rdf-syntax-ns#" xmlns:xlink="http://www.w3.org/1999/xlink">
 <metadata id="metadata25">
  <rdf:RDF>
   <cc:Work rdf:about="">
    <dc:format>image/svg+xml</dc:format>
    <dc:type rdf:resource="http://purl.org/dc/dcmitype/StillImage"/>
    <dc:title/>
   </cc:Work>
  </rdf:RDF>
 </metadata>
 <defs id="defs7">
  <filter id="filter1057" x="-.027" y="-.027" width="1.054" height="1.054" color-interpolation-filters="sRGB">
   <feGaussianBlur id="feGaussianBlur1059" stdDeviation="0.61875"/>
  </filter>
  <linearGradient id="linearGradient1053" x1="-127" x2="-127" y1="60" y2="5" gradientTransform="matrix(.26458 0 0 .26458 34.792 -.13493)" gradientUnits="userSpaceOnUse">
   <stop id="stop1047" stop-color="#02db96" offset="0"/>
   <stop id="stop1049" stop-color="#13d39b" offset="1"/>
  </linearGradient>
  <style id="style872" type="text/css"/>
  <style id="style874" type="text/css"/>
  <style id="style876" type="text/css"/>
 </defs>
 <rect id="rect1055" transform="matrix(.26458 0 0 .26458 .7977 .7977)" x="1.485" y="1.485" width="55" height="55" ry="15" fill="#141414" filter="url(#filter1057)" opacity=".3" stroke-linecap="round" stroke-width="2.7444"/>
 <rect id="rect1045" x="1.1906" y="1.1906" width="14.552" height="14.552" ry="3.9687" fill="url(#linearGradient1053)" stroke-linecap="round" stroke-width=".7261"/>
 <g id="g19" transform="matrix(.24908 0 0 .24908 7.0189 5.7887)" stroke-width="1.1618">
  <path id="path13" d="m5.8116 2.7599c2.2456 0 4.0688 1.8232 4.0688 4.0688v18.442c0 2.2456-1.8232 4.0688-4.0688 4.0688s-4.0688-1.8232-4.0688-4.0688v-18.442c0-2.2456 1.8232-4.0688 4.0688-4.0688z" fill="#f0f0f0" style="isolation:isolate"/>
  <path id="path15" d="m5.8116 5.845c0.96242 0 1.7438 0.78136 1.7438 1.7438v16.447c0 0.96241-0.78136 1.7438-1.7438 1.7438s-1.7438-0.78136-1.7438-1.7438v-16.447c0-0.96242 0.78136-1.7438 1.7438-1.7438z" fill="#fa3232" style="isolation:isolate"/>
  <path id="path17" d="m9.2992-7.8381v5.5992l-3.4875 2.325-3.4875-2.325v-5.5912c-2.8274 1.3423-4.646 4.1898-4.6501 7.335 0 4.4943 3.6433 8.1376 8.1376 8.1376s8.1376-3.6433 8.1376-8.1376c-0.0016-3.1478-1.8202-5.9998-4.6501-7.3429z" fill="#fff" style="isolation:isolate"/>
 </g>
</svg>
