<?xml version="1.0" encoding="UTF-8"?>
<svg id="svg10" width="512" height="512" version="1.1" viewBox="0 0 64 64" xmlns="http://www.w3.org/2000/svg">
 <defs id="defs4">
  <linearGradient id="c" x1="33.821" x2="33.821" y1="43.692" y2="20.308" gradientUnits="userSpaceOnUse">
   <stop id="stop1" stop-color="#d11628" offset="0"/>
   <stop id="stop2" stop-color="#ff2919" offset="1"/>
  </linearGradient>
  <linearGradient id="a" x1="7.937" x2="7.937" y1="15.081" y2="1.852" gradientTransform="translate(0 .032) scale(3.7795)" gradientUnits="userSpaceOnUse">
   <stop id="stop3" stop-color="#e5a50a" offset="0"/>
   <stop id="stop4" stop-color="#f8e45c" offset="1"/>
  </linearGradient>
  <filter id="b" x="-.060576" y="-.098439" width="1.1212" height="1.1969" color-interpolation-filters="sRGB">
   <feGaussianBlur id="feGaussianBlur4" stdDeviation="0.95912118"/>
  </filter>
 </defs>
 <path id="path4" transform="scale(3.7796)" d="M4.37.53C2.254.53.53 2.312.53 4.496v8.468c0 2.184 1.725 3.968 3.84 3.968h8.194c2.114 0 3.84-1.783 3.84-3.968V4.497c0-2.184-1.726-3.968-3.84-3.968zm.256.52h7.681c1.844 0 3.33 1.534 3.33 3.44v7.937c0 1.906-1.485 3.44-3.33 3.44h-7.68c-1.845 0-3.33-1.534-3.33-3.44V4.49c0-1.906 1.485-3.44 3.33-3.44z" opacity=".01" style="font-feature-settings:normal;font-variant-alternates:normal;font-variant-caps:normal;font-variant-east-asian:normal;font-variant-ligatures:normal;font-variant-numeric:normal;font-variant-position:normal;font-variation-settings:normal;inline-size:0;isolation:auto;mix-blend-mode:normal;shape-margin:0;shape-padding:0;text-decoration-color:#000;text-decoration-line:none;text-decoration-style:solid;text-indent:0;text-orientation:mixed;text-transform:none;white-space:normal"/>
 <path id="path5" transform="scale(3.7796)" d="M4.359.794C2.392.794.795 2.447.795 4.48v8.5c0 2.035 1.597 3.688 3.564 3.688h8.216c1.967 0 3.564-1.653 3.564-3.688v-8.5c0-2.034-1.597-3.687-3.564-3.687zm.272.256h7.672c1.842 0 3.325 1.534 3.325 3.44v7.937c0 1.906-1.483 3.44-3.325 3.44H4.63c-1.842 0-3.325-1.534-3.325-3.44V4.49c0-1.906 1.483-3.44 3.325-3.44z" opacity=".01" style="font-feature-settings:normal;font-variant-alternates:normal;font-variant-caps:normal;font-variant-east-asian:normal;font-variant-ligatures:normal;font-variant-numeric:normal;font-variant-position:normal;font-variation-settings:normal;inline-size:0;isolation:auto;mix-blend-mode:normal;shape-margin:0;shape-padding:0;text-decoration-color:#000;text-decoration-line:none;text-decoration-style:solid;text-indent:0;text-orientation:mixed;text-transform:none;white-space:normal"/>
 <path id="path6" transform="scale(3.7796)" d="M4.31 1.058c-1.866 0-3.375 1.539-3.375 3.44v8.467c0 1.9 1.57 3.439 3.435 3.439h8.2c1.866 0 3.427-1.538 3.427-3.44V4.498c0-1.9-1.51-3.439-3.375-3.439h-.097c1.794.087 3.214 1.582 3.214 3.432v7.937c0 1.906-1.506 3.44-3.377 3.44h-7.79c-1.871 0-3.377-1.534-3.377-3.44V4.49c0-1.85 1.42-3.345 3.214-3.432z" opacity=".03" style="font-feature-settings:normal;font-variant-alternates:normal;font-variant-caps:normal;font-variant-east-asian:normal;font-variant-ligatures:normal;font-variant-numeric:normal;font-variant-position:normal;font-variation-settings:normal;inline-size:0;isolation:auto;mix-blend-mode:normal;shape-margin:0;shape-padding:0;text-decoration-color:#000;text-decoration-line:none;text-decoration-style:solid;text-indent:0;text-orientation:mixed;text-transform:none;white-space:normal"/>
 <path id="path7" d="M4 46.969V49c0 6.648 5.896 12 12.544 12h30.961C54.153 61 60 55.648 60 49v-1.992a12.972 12.972 0 0 1-13 12.963H17.002A12.973 12.973 0 0 1 4 46.969z" opacity=".03" style="font-feature-settings:normal;font-variant-alternates:normal;font-variant-caps:normal;font-variant-east-asian:normal;font-variant-ligatures:normal;font-variant-numeric:normal;font-variant-position:normal;font-variation-settings:normal;inline-size:0;isolation:auto;mix-blend-mode:normal;shape-margin:0;shape-padding:0;text-decoration-color:#000;text-decoration-line:none;text-decoration-style:solid;text-indent:0;text-orientation:mixed;text-transform:none;white-space:normal"/>
 <path id="path8" transform="scale(3.7796)" d="M1.058 11.906v.592c0 1.939 1.573 3.5 3.332 3.5h8.16c1.76 0 3.325-1.561 3.325-3.5v-.58c-.006 2.095-1.537 3.78-3.44 3.78H4.498c-1.905 0-3.44-1.692-3.44-3.792z" opacity=".05" style="font-feature-settings:normal;font-variant-alternates:normal;font-variant-caps:normal;font-variant-east-asian:normal;font-variant-ligatures:normal;font-variant-numeric:normal;font-variant-position:normal;font-variation-settings:normal;inline-size:0;isolation:auto;mix-blend-mode:normal;shape-margin:0;shape-padding:0;text-decoration-color:#000;text-decoration-line:none;text-decoration-style:solid;text-indent:0;text-orientation:mixed;text-transform:none;white-space:normal"/>
 <rect id="rect8" x="4" y="4" width="56" height="56" rx="13.002" ry="13.002" fill="url(#a)"/>
 <path id="path9" d="m25 44.942c0.331-1.357 1.403-2.34 2.335-3.133 0.611-0.393 0.642-0.72 0.15-0.947-2.485-1.145-4.53-1.854-6.586-2.978-3.48-1.931-5.473-4.732-6.001-8.43-0.109-0.885-0.109-1.806 0.046-2.454 0.213-0.46 0.658-0.735 1.186-0.735 0.337 0 0.533 0.078 1.476 0.6 2.149 1.187 4.251 2.129 5.349 2.403 0.45 0.11 0.497 0.11 0.75-0.03 1.212-0.669 2.15-1.684 2.569-1.834h9.63c3.361 3.589 8.068 4.567 12.143 2.387 1.082-0.637 1.73-1.29 2.081-2.387h2.693c0 0.202-0.56 1.688-0.958 2.222-1.284 1.719-3.283 3.106-6.317 4.38-4.355 2.165-7.286 5.126-11.045 6.856-0.73 0.367-0.125 0.58 0.191 0.942 1.015 0.917 1.745 1.89 2.082 3.133m-14.048-9.631-0.663-3.298a4.714 4.714 0 0 0-0.627-0.239c-0.574-0.186-2.081-0.813-2.739-1.144-0.486-0.243-0.75-0.27-0.75-0.072 0 0.258 0.605 1.46 1.05 2.091 0.493 0.694 1.036 1.248 1.782 1.823 0.689 0.523 1.595 1.062 1.802 1.062 0.155 0 0.17-0.032 0.14-0.218zm4.039-9.362c0.03-0.057 0.357-0.678 0.725-1.274 1.532-2.46 2.242-3.112 3.391-3.112 1.098 0 1.875 0.694 3.33 2.998 0.455 0.715 0.823 1.362 0.823 1.388z" filter="url(#b)" opacity=".35"/>
 <path id="path10" d="M25 43.692c.331-1.357 1.403-2.34 2.335-3.133.611-.393.642-.72.15-.947-2.485-1.145-4.53-1.854-6.586-2.978-3.48-1.931-5.473-4.732-6.001-8.43-.109-.885-.109-1.806.046-2.454.213-.46.658-.735 1.186-.735.337 0 .533.078 1.476.6 2.149 1.187 4.251 2.129 5.349 2.403.45.11.497.11.75-.03 1.212-.669 2.15-1.684 2.569-1.834h9.63c3.361 3.589 8.068 4.567 12.143 2.387 1.082-.637 1.73-1.29 2.081-2.387h2.693c0 .202-.56 1.688-.958 2.222-1.284 1.719-3.283 3.106-6.317 4.38-4.355 2.165-7.286 5.126-11.045 6.856-.73.367-.125.58.191.942 1.015.917 1.745 1.89 2.082 3.133m-14.048-9.631-.663-3.298a4.714 4.714 0 0 0-.627-.239c-.574-.186-2.081-.813-2.739-1.144-.486-.243-.75-.27-.75-.072 0 .258.605 1.46 1.05 2.091.493.694 1.036 1.248 1.782 1.823.689.523 1.595 1.062 1.802 1.062.155 0 .17-.032.14-.218zm4.039-9.362c.03-.057.357-.678.725-1.274 1.532-2.46 2.242-3.112 3.391-3.112 1.098 0 1.875.694 3.33 2.998.455.715.823 1.362.823 1.388z" fill="url(#c)"/>
</svg>
