<?xml version="1.0" encoding="UTF-8"?>
<svg id="svg6" width="128" height="128" version="1.1" viewBox="0 0 33.867 33.867" xmlns="http://www.w3.org/2000/svg" xmlns:cc="http://creativecommons.org/ns#" xmlns:dc="http://purl.org/dc/elements/1.1/" xmlns:rdf="http://www.w3.org/1999/02/22-rdf-syntax-ns#" xmlns:xlink="http://www.w3.org/1999/xlink">
 <metadata id="metadata252">
  <rdf:RDF>
   <cc:Work rdf:about="">
    <dc:format>image/svg+xml</dc:format>
    <dc:type rdf:resource="http://purl.org/dc/dcmitype/StillImage"/>
   </cc:Work>
  </rdf:RDF>
 </metadata>
 <defs id="defs2">
  <linearGradient id="linearGradient14855" x1="15.132" x2="15.132" y1="27.778" y2="4.734" gradientUnits="userSpaceOnUse">
   <stop id="stop14849" stop-color="#489af4" offset="0"/>
   <stop id="stop14851" stop-color="#316ff8" offset="1"/>
  </linearGradient>
 </defs>
 <g id="layer1">
  <g id="g1702" transform="matrix(.97573 0 0 .97573 -65.748 -37.203)" fill="none" opacity=".29676" stroke="#000" stroke-linecap="round" stroke-linejoin="round" stroke-opacity=".02">
   <path id="rect1634" d="m76.449 40.71h16.591c3.6619 0 6.6099 2.948 6.6099 6.6099v16.591c0 3.6619-2.948 6.6099-6.6099 6.6099h-16.591c-3.6619 0-6.6099-2.948-6.6099-6.6099v-16.591c0-3.6619 2.948-6.6099 6.6099-6.6099z" stroke-width=".1"/>
   <path id="rect1638" d="m76.449 40.71h16.591c3.6619 0 6.6099 2.948 6.6099 6.6099v16.591c0 3.6619-2.948 6.6099-6.6099 6.6099h-16.591c-3.6619 0-6.6099-2.948-6.6099-6.6099v-16.591c0-3.6619 2.948-6.6099 6.6099-6.6099z" stroke-width=".2"/>
   <path id="rect1640" d="m76.449 40.71h16.591c3.6619 0 6.6099 2.948 6.6099 6.6099v16.591c0 3.6619-2.948 6.6099-6.6099 6.6099h-16.591c-3.6619 0-6.6099-2.948-6.6099-6.6099v-16.591c0-3.6619 2.948-6.6099 6.6099-6.6099z" stroke-width=".3"/>
   <path id="rect1642" d="m76.449 40.71h16.591c3.6619 0 6.6099 2.948 6.6099 6.6099v16.591c0 3.6619-2.948 6.6099-6.6099 6.6099h-16.591c-3.6619 0-6.6099-2.948-6.6099-6.6099v-16.591c0-3.6619 2.948-6.6099 6.6099-6.6099z" stroke-width=".4"/>
   <path id="rect1644" d="m76.449 40.71h16.591c3.6619 0 6.6099 2.948 6.6099 6.6099v16.591c0 3.6619-2.948 6.6099-6.6099 6.6099h-16.591c-3.6619 0-6.6099-2.948-6.6099-6.6099v-16.591c0-3.6619 2.948-6.6099 6.6099-6.6099z" stroke-width=".5"/>
   <path id="rect1646" d="m76.449 40.71h16.591c3.6619 0 6.6099 2.948 6.6099 6.6099v16.591c0 3.6619-2.948 6.6099-6.6099 6.6099h-16.591c-3.6619 0-6.6099-2.948-6.6099-6.6099v-16.591c0-3.6619 2.948-6.6099 6.6099-6.6099z" stroke-width=".6"/>
   <path id="rect1648" d="m76.449 40.71h16.591c3.6619 0 6.6099 2.948 6.6099 6.6099v16.591c0 3.6619-2.948 6.6099-6.6099 6.6099h-16.591c-3.6619 0-6.6099-2.948-6.6099-6.6099v-16.591c0-3.6619 2.948-6.6099 6.6099-6.6099z" stroke-width=".7"/>
   <path id="rect1650" d="m76.449 40.71h16.591c3.6619 0 6.6099 2.948 6.6099 6.6099v16.591c0 3.6619-2.948 6.6099-6.6099 6.6099h-16.591c-3.6619 0-6.6099-2.948-6.6099-6.6099v-16.591c0-3.6619 2.948-6.6099 6.6099-6.6099z" stroke-width=".8"/>
   <path id="rect1652" d="m76.449 40.71h16.591c3.6619 0 6.6099 2.948 6.6099 6.6099v16.591c0 3.6619-2.948 6.6099-6.6099 6.6099h-16.591c-3.6619 0-6.6099-2.948-6.6099-6.6099v-16.591c0-3.6619 2.948-6.6099 6.6099-6.6099z"/>
   <path id="rect1654" d="m76.449 40.71h16.591c3.6619 0 6.6099 2.948 6.6099 6.6099v16.591c0 3.6619-2.948 6.6099-6.6099 6.6099h-16.591c-3.6619 0-6.6099-2.948-6.6099-6.6099v-16.591c0-3.6619 2.948-6.6099 6.6099-6.6099z" stroke-width="1.2"/>
   <path id="rect1656" d="m76.449 40.71h16.591c3.6619 0 6.6099 2.948 6.6099 6.6099v16.591c0 3.6619-2.948 6.6099-6.6099 6.6099h-16.591c-3.6619 0-6.6099-2.948-6.6099-6.6099v-16.591c0-3.6619 2.948-6.6099 6.6099-6.6099z" stroke-width="1.4"/>
   <path id="rect1658" d="m76.449 40.71h16.591c3.6619 0 6.6099 2.948 6.6099 6.6099v16.591c0 3.6619-2.948 6.6099-6.6099 6.6099h-16.591c-3.6619 0-6.6099-2.948-6.6099-6.6099v-16.591c0-3.6619 2.948-6.6099 6.6099-6.6099z" stroke-width="1.6"/>
   <path id="rect1660" d="m76.449 40.71h16.591c3.6619 0 6.6099 2.948 6.6099 6.6099v16.591c0 3.6619-2.948 6.6099-6.6099 6.6099h-16.591c-3.6619 0-6.6099-2.948-6.6099-6.6099v-16.591c0-3.6619 2.948-6.6099 6.6099-6.6099z" stroke-width="1.8"/>
   <path id="rect1662" d="m76.449 40.71h16.591c3.6619 0 6.6099 2.948 6.6099 6.6099v16.591c0 3.6619-2.948 6.6099-6.6099 6.6099h-16.591c-3.6619 0-6.6099-2.948-6.6099-6.6099v-16.591c0-3.6619 2.948-6.6099 6.6099-6.6099z" stroke-width="2"/>
   <path id="rect1664" d="m76.449 40.71h16.591c3.6619 0 6.6099 2.948 6.6099 6.6099v16.591c0 3.6619-2.948 6.6099-6.6099 6.6099h-16.591c-3.6619 0-6.6099-2.948-6.6099-6.6099v-16.591c0-3.6619 2.948-6.6099 6.6099-6.6099z" stroke-width="2.2"/>
   <path id="rect1666" d="m76.449 40.71h16.591c3.6619 0 6.6099 2.948 6.6099 6.6099v16.591c0 3.6619-2.948 6.6099-6.6099 6.6099h-16.591c-3.6619 0-6.6099-2.948-6.6099-6.6099v-16.591c0-3.6619 2.948-6.6099 6.6099-6.6099z" stroke-width="2.6"/>
   <path id="rect1668" d="m76.449 40.71h16.591c3.6619 0 6.6099 2.948 6.6099 6.6099v16.591c0 3.6619-2.948 6.6099-6.6099 6.6099h-16.591c-3.6619 0-6.6099-2.948-6.6099-6.6099v-16.591c0-3.6619 2.948-6.6099 6.6099-6.6099z" stroke-width="3"/>
   <path id="rect1670" d="m76.449 40.71h16.591c3.6619 0 6.6099 2.948 6.6099 6.6099v16.591c0 3.6619-2.948 6.6099-6.6099 6.6099h-16.591c-3.6619 0-6.6099-2.948-6.6099-6.6099v-16.591c0-3.6619 2.948-6.6099 6.6099-6.6099z" stroke-width="3.4"/>
   <path id="rect1672" d="m76.449 40.71h16.591c3.6619 0 6.6099 2.948 6.6099 6.6099v16.591c0 3.6619-2.948 6.6099-6.6099 6.6099h-16.591c-3.6619 0-6.6099-2.948-6.6099-6.6099v-16.591c0-3.6619 2.948-6.6099 6.6099-6.6099z" stroke-width="3.8"/>
   <path id="rect1674" d="m76.449 40.71h16.591c3.6619 0 6.6099 2.948 6.6099 6.6099v16.591c0 3.6619-2.948 6.6099-6.6099 6.6099h-16.591c-3.6619 0-6.6099-2.948-6.6099-6.6099v-16.591c0-3.6619 2.948-6.6099 6.6099-6.6099z" stroke-width="4.2"/>
   <path id="rect1676" d="m76.449 40.71h16.591c3.6619 0 6.6099 2.948 6.6099 6.6099v16.591c0 3.6619-2.948 6.6099-6.6099 6.6099h-16.591c-3.6619 0-6.6099-2.948-6.6099-6.6099v-16.591c0-3.6619 2.948-6.6099 6.6099-6.6099z" stroke-width="4.6"/>
   <path id="rect1678" d="m76.449 40.71h16.591c3.6619 0 6.6099 2.948 6.6099 6.6099v16.591c0 3.6619-2.948 6.6099-6.6099 6.6099h-16.591c-3.6619 0-6.6099-2.948-6.6099-6.6099v-16.591c0-3.6619 2.948-6.6099 6.6099-6.6099z" stroke-width="5"/>
  </g>
  <rect id="rect849" x="2.4065" y="2.5186" width="29.087" height="29.087" rx="6.4495" ry="6.4495" fill="url(#linearGradient14855)" stroke-linecap="round" stroke-linejoin="round" stroke-width="2.6877"/>
  <path id="path8" d="m7.893 11.043c-0.60112 0-1.0604 0.17315-1.3781 0.51752-0.31774 0.33532-0.47626 0.81016-0.47626 1.4264v2.366c0 0.37157-0.06889 0.6553-0.20629 0.85468-0.1374 0.19938-0.49196 0.34555-0.72382 0.43618-0.22326 0.08156-0.4758 0.1265-0.75919 0.13558v0.57057c0.28339 0.01802 0.53591 0.06814 0.75919 0.14972 0.23186 0.08155 0.58642 0.22774 0.72382 0.43618 0.1374 0.19938 0.20629 0.48428 0.20629 0.85586v2.366c0 0.59814 0.15852 1.073 0.47626 1.4264 0.31774 0.35345 0.77697 0.53049 1.3781 0.53049h0.68138v-0.58472h-0.38549c-0.37785 0-0.64907-0.12193-0.81224-0.36663-0.16316-0.2447-0.24403-0.59878-0.24403-1.061v-2.3507c0-0.44407-0.11707-0.81223-0.34894-1.1022-0.23186-0.29907-0.59153-0.49291-1.081-0.58354v-0.01414c0.47231-0.08158 0.8276-0.26759 1.0681-0.5576 0.24045-0.29907 0.36191-0.66995 0.36191-1.114v-2.3247c0-0.47126 0.08087-0.82534 0.24403-1.061 0.16315-0.2447 0.43439-0.36663 0.81224-0.36663h0.38549v-0.58473zm17.401 0v0.58472h0.38549c0.37785 0 0.64908 0.12193 0.81224 0.36663 0.16315 0.23563 0.24402 0.58972 0.24402 1.061v2.3247c0 0.44408 0.12145 0.81496 0.36191 1.114 0.24045 0.29001 0.59574 0.47604 1.068 0.5576v0.01414c-0.48949 0.09063-0.84915 0.28447-1.081 0.58354-0.23186 0.29001-0.34894 0.65816-0.34894 1.1022v2.3507c0 0.4622-0.08087 0.81628-0.24402 1.061-0.16316 0.24469-0.43439 0.36662-0.81224 0.36662h-0.38549v0.58472h0.68138c0.60112 0 1.0604-0.17705 1.3781-0.53049 0.31774-0.35345 0.47744-0.82828 0.47744-1.4264v-2.366c0-0.37157 0.06889-0.65648 0.20629-0.85586 0.1374-0.20844 0.49078-0.35461 0.72264-0.43618 0.22329-0.08155 0.4758-0.13158 0.75919-0.14972v-0.57057c-0.28339-0.0091-0.53591-0.054-0.75919-0.13557-0.23186-0.09063-0.58525-0.2368-0.72264-0.43618-0.1374-0.19938-0.20629-0.48311-0.20629-0.85468v-2.366c0-0.61627-0.15971-1.0911-0.47744-1.4264-0.31774-0.34438-0.77697-0.51752-1.3781-0.51752zm-8.1012 1.2072c-1.1605 0-1.9537 0.20547-2.7409 0.61773-0.78711 0.40348-1.3823 0.96954-1.786 1.6976-0.39356 0.71925-0.59061 1.5531-0.59061 2.5004 0 0.97362 0.18658 1.8254 0.55996 2.5534 0.38347 0.71925 0.95893 1.2799 1.7259 1.6834 0.77702 0.40348 1.7506 0.60476 2.9212 0.60476 0.65593 0 1.2511-0.04852 1.786-0.145 0.53483-0.10526 1.3545-0.25802 1.8591-0.45976v-2.6913c0.03417-0.70268 0.42589-0.95315 0.80516-0.94663v-0.55289h-3.2195s0.02872 0.51738 0.03066 0.55289c0.58298 0.02459 0.77451 0.69688 0.77451 0.89476v2.4391c-0.2119 0.05263-0.67417 0.09392-0.94663 0.12024-0.27246 0.02633-0.55378 0.0389-0.84642 0.0389-1.3825 0-2.3573-0.35102-2.9224-1.0527-0.5651-0.71048-0.91833-1.7234-0.91833-3.0391 0-1.3157 0.34394-2.3286 0.88886-3.0391 0.54492-0.71925 1.2766-1.0787 2.5581-1.0787 0.49447 0 0.8874 0.08746 1.18 0.26289 0.29264 0.16667 0.50017 0.38052 0.62126 0.64366 0.1312 0.25437 0.19687 0.51793 0.19687 0.78984 0.0027 0 0.0041-0.0023 0.0071-0.0023v0.02236h0.80516v-2.4143h-0.80516v0.21574c-0.50926-0.14039-1.152-0.21574-1.944-0.21574z" fill="#fff" stroke-width=".60358"/>
 </g>
 <style id="style15307"><![CDATA[.B{clip-path:url(#C)}.C{fill:#3e2723}.D{fill-opacity:.15}.E{fill-opacity:.2}]]></style>
</svg>
