<?xml version="1.0" encoding="UTF-8"?>
<svg id="svg6" width="128" height="128" version="1.1" viewBox="0 0 33.867 33.867" xmlns="http://www.w3.org/2000/svg" xmlns:cc="http://creativecommons.org/ns#" xmlns:dc="http://purl.org/dc/elements/1.1/" xmlns:rdf="http://www.w3.org/1999/02/22-rdf-syntax-ns#" xmlns:xlink="http://www.w3.org/1999/xlink">
 <metadata id="metadata156">
  <rdf:RDF>
   <cc:Work rdf:about="">
    <dc:format>image/svg+xml</dc:format>
    <dc:type rdf:resource="http://purl.org/dc/dcmitype/StillImage"/>
   </cc:Work>
  </rdf:RDF>
 </metadata>
 <defs id="defs2">
  <linearGradient id="linearGradient1632" x1="132.21" x2="132.21" y1="42.152" y2="70.68" gradientTransform="matrix(.97573 0 0 .97573 -111.77 -37.203)" gradientUnits="userSpaceOnUse">
   <stop id="stop1626" stop-color="#f37373" offset="0"/>
   <stop id="stop1628" stop-color="#e84ba8" offset="1"/>
  </linearGradient>
  <linearGradient id="linearGradient1151" x1="8.1056" x2="8.1056" y1="8.6618" y2="42.132" gradientUnits="userSpaceOnUse">
   <stop id="stop1145" stop-color="#fff" offset="0"/>
   <stop id="stop1147" stop-color="#ea51a0" offset="1"/>
  </linearGradient>
 </defs>
 <g id="layer1">
  <g id="g1702" transform="matrix(.97573 0 0 .97573 -65.748 -37.203)" fill="none" opacity=".29677" stroke="#000" stroke-linecap="round" stroke-linejoin="round" stroke-opacity=".02">
   <rect id="rect1634" x="69.84" y="40.71" width="29.811" height="29.811" rx="6.6099" ry="6.6099" stroke-width=".1"/>
   <rect id="rect1638" x="69.84" y="40.71" width="29.811" height="29.811" rx="6.6099" ry="6.6099" stroke-width=".2"/>
   <rect id="rect1640" x="69.84" y="40.71" width="29.811" height="29.811" rx="6.6099" ry="6.6099" stroke-width=".3"/>
   <rect id="rect1642" x="69.84" y="40.71" width="29.811" height="29.811" rx="6.6099" ry="6.6099" stroke-width=".4"/>
   <rect id="rect1644" x="69.84" y="40.71" width="29.811" height="29.811" rx="6.6099" ry="6.6099" stroke-width=".5"/>
   <rect id="rect1646" x="69.84" y="40.71" width="29.811" height="29.811" rx="6.6099" ry="6.6099" stroke-width=".6"/>
   <rect id="rect1648" x="69.84" y="40.71" width="29.811" height="29.811" rx="6.6099" ry="6.6099" stroke-width=".7"/>
   <rect id="rect1650" x="69.84" y="40.71" width="29.811" height="29.811" rx="6.6099" ry="6.6099" stroke-width=".8"/>
   <rect id="rect1652" x="69.84" y="40.71" width="29.811" height="29.811" rx="6.6099" ry="6.6099"/>
   <rect id="rect1654" x="69.84" y="40.71" width="29.811" height="29.811" rx="6.6099" ry="6.6099" stroke-width="1.2"/>
   <rect id="rect1656" x="69.84" y="40.71" width="29.811" height="29.811" rx="6.6099" ry="6.6099" stroke-width="1.4"/>
   <rect id="rect1658" x="69.84" y="40.71" width="29.811" height="29.811" rx="6.6099" ry="6.6099" stroke-width="1.6"/>
   <rect id="rect1660" x="69.84" y="40.71" width="29.811" height="29.811" rx="6.6099" ry="6.6099" stroke-width="1.8"/>
   <rect id="rect1662" x="69.84" y="40.71" width="29.811" height="29.811" rx="6.6099" ry="6.6099" stroke-width="2"/>
   <rect id="rect1664" x="69.84" y="40.71" width="29.811" height="29.811" rx="6.6099" ry="6.6099" stroke-width="2.2"/>
   <rect id="rect1666" x="69.84" y="40.71" width="29.811" height="29.811" rx="6.6099" ry="6.6099" stroke-width="2.6"/>
   <rect id="rect1668" x="69.84" y="40.71" width="29.811" height="29.811" rx="6.6099" ry="6.6099" stroke-width="3"/>
   <rect id="rect1670" x="69.84" y="40.71" width="29.811" height="29.811" rx="6.6099" ry="6.6099" stroke-width="3.4"/>
   <rect id="rect1672" x="69.84" y="40.71" width="29.811" height="29.811" rx="6.6099" ry="6.6099" stroke-width="3.8"/>
   <rect id="rect1674" x="69.84" y="40.71" width="29.811" height="29.811" rx="6.6099" ry="6.6099" stroke-width="4.2"/>
   <rect id="rect1676" x="69.84" y="40.71" width="29.811" height="29.811" rx="6.6099" ry="6.6099" stroke-width="4.6"/>
   <rect id="rect1678" x="69.84" y="40.71" width="29.811" height="29.811" rx="6.6099" ry="6.6099" stroke-width="5"/>
  </g>
  <rect id="rect849" x="2.4065" y="2.5186" width="29.087" height="29.087" rx="6.4495" ry="6.4495" fill="url(#linearGradient1632)" stroke-linecap="round" stroke-linejoin="round" stroke-width="2.6877"/>
  <g id="g2562" fill="#000f37" fill-opacity=".045956" stroke-width=".98273">
   <path id="path2460" d="m9.923 6.9079c-0.81665 0-1.4743 0.65768-1.4743 1.4743v10.81c0 0.81665 0.65768 1.4743 1.4743 1.4743 0.81665 0 1.4738-0.65768 1.4738-1.4743v-10.81c0-0.81665-0.65716-1.4743-1.4738-1.4743zm4.9134 3.931c-0.81665 0-1.4738 0.65768-1.4738 1.4743v13.758c0 0.81665 0.65716 1.4743 1.4738 1.4743s1.4743-0.65768 1.4743-1.4743v-13.758c0-0.81665-0.65768-1.4743-1.4743-1.4743zm4.9139 0c-0.81665 0-1.4743 0.65768-1.4743 1.4743v13.758c0 0.81665 0.65768 1.4743 1.4743 1.4743s1.4738-0.65768 1.4738-1.4743v-13.758c0-0.81665-0.65716-1.4743-1.4738-1.4743zm4.9134 0c-0.81665 0-1.4738 0.65768-1.4738 1.4743v6.8786c0 0.81665 0.65716 1.4743 1.4738 1.4743s1.4743-0.65768 1.4743-1.4743v-6.8786c0-0.81665-0.65768-1.4743-1.4743-1.4743z"/>
   <path id="path2552" d="m10.286 7.3055c-0.81665 0-1.4743 0.65768-1.4743 1.4743v10.81c0 0.81665 0.65768 1.4743 1.4743 1.4743 0.81665 0 1.4738-0.65768 1.4738-1.4743v-10.81c0-0.81665-0.65716-1.4743-1.4738-1.4743zm4.9134 3.931c-0.81665 0-1.4738 0.65768-1.4738 1.4743v13.758c0 0.81665 0.65716 1.4743 1.4738 1.4743s1.4743-0.65768 1.4743-1.4743v-13.758c0-0.81665-0.65768-1.4743-1.4743-1.4743zm4.9139 0c-0.81665 0-1.4743 0.65768-1.4743 1.4743v13.758c0 0.81665 0.65768 1.4743 1.4743 1.4743s1.4738-0.65768 1.4738-1.4743v-13.758c0-0.81665-0.65716-1.4743-1.4738-1.4743zm4.9134 0c-0.81665 0-1.4738 0.65768-1.4738 1.4743v6.8786c0 0.81665 0.65716 1.4743 1.4738 1.4743s1.4743-0.65768 1.4743-1.4743v-6.8786c0-0.81665-0.65768-1.4743-1.4743-1.4743z"/>
   <path id="path2554" d="m10.777 7.7498c-0.81665 0-1.4743 0.65768-1.4743 1.4743v10.81c0 0.81665 0.65768 1.4743 1.4743 1.4743 0.81665 0 1.4738-0.65768 1.4738-1.4743v-10.81c0-0.81665-0.65716-1.4743-1.4738-1.4743zm4.9134 3.931c-0.81665 0-1.4738 0.65768-1.4738 1.4743v13.758c0 0.81665 0.65716 1.4743 1.4738 1.4743s1.4743-0.65768 1.4743-1.4743v-13.758c0-0.81665-0.65768-1.4743-1.4743-1.4743zm4.9139 0c-0.81665 0-1.4743 0.65768-1.4743 1.4743v13.758c0 0.81665 0.65768 1.4743 1.4743 1.4743s1.4738-0.65768 1.4738-1.4743v-13.758c0-0.81665-0.65716-1.4743-1.4738-1.4743zm4.9134 0c-0.81665 0-1.4738 0.65768-1.4738 1.4743v6.8786c0 0.81665 0.65716 1.4743 1.4738 1.4743s1.4743-0.65768 1.4743-1.4743v-6.8786c0-0.81665-0.65768-1.4743-1.4743-1.4743z"/>
   <path id="path2556" d="m11.385 8.7554c-0.81665 0-1.4743 0.65768-1.4743 1.4743v10.81c0 0.81665 0.65768 1.4743 1.4743 1.4743 0.81665 0 1.4738-0.65768 1.4738-1.4743v-10.81c0-0.81665-0.65716-1.4743-1.4738-1.4743zm4.9134 3.931c-0.81665 0-1.4738 0.65768-1.4738 1.4743v13.758c0 0.81665 0.65716 1.4743 1.4738 1.4743s1.4743-0.65768 1.4743-1.4743v-13.758c0-0.81665-0.65768-1.4743-1.4743-1.4743zm4.9139 0c-0.81665 0-1.4743 0.65768-1.4743 1.4743v13.758c0 0.81665 0.65768 1.4743 1.4743 1.4743s1.4738-0.65768 1.4738-1.4743v-13.758c0-0.81665-0.65716-1.4743-1.4738-1.4743zm4.9134 0c-0.81665 0-1.4738 0.65768-1.4738 1.4743v6.8786c0 0.81665 0.65716 1.4743 1.4738 1.4743s1.4743-0.65768 1.4743-1.4743v-6.8786c0-0.81665-0.65768-1.4743-1.4743-1.4743z"/>
  </g>
  <path id="rect16" d="m9.5799 6.7436c-0.81665 0-1.4743 0.65768-1.4743 1.4743v10.81c0 0.81665 0.65768 1.4743 1.4743 1.4743 0.81665 0 1.4738-0.65768 1.4738-1.4743v-10.81c0-0.81665-0.65716-1.4743-1.4738-1.4743zm4.9134 3.931c-0.81665 0-1.4738 0.65768-1.4738 1.4743v13.758c0 0.81665 0.65716 1.4743 1.4738 1.4743s1.4743-0.65768 1.4743-1.4743v-13.758c0-0.81665-0.65768-1.4743-1.4743-1.4743zm4.9139 0c-0.81665 0-1.4743 0.65768-1.4743 1.4743v13.758c0 0.81665 0.65768 1.4743 1.4743 1.4743s1.4738-0.65768 1.4738-1.4743v-13.758c0-0.81665-0.65716-1.4743-1.4738-1.4743zm4.9134 0c-0.81665 0-1.4738 0.65768-1.4738 1.4743v6.8786c0 0.81665 0.65716 1.4743 1.4738 1.4743s1.4743-0.65768 1.4743-1.4743v-6.8786c0-0.81665-0.65768-1.4743-1.4743-1.4743z" fill="url(#linearGradient1151)" stroke-width=".98273"/>
 </g>
</svg>
