<?xml version="1.0" encoding="UTF-8"?>
<svg id="svg1443" width="128" height="128" version="1.1" viewBox="0 0 33.867 33.867" xmlns="http://www.w3.org/2000/svg" xmlns:cc="http://creativecommons.org/ns#" xmlns:dc="http://purl.org/dc/elements/1.1/" xmlns:rdf="http://www.w3.org/1999/02/22-rdf-syntax-ns#" xmlns:xlink="http://www.w3.org/1999/xlink">
 <defs id="defs1437">
  <radialGradient id="radialGradient948" cx="16.951" cy="6.0443" r="14.544" gradientTransform="matrix(3.1335 0 0 1.9874 -36.165 -5.9684)" gradientUnits="userSpaceOnUse">
   <stop id="stop1626" stop-color="#ff53f9" offset="0"/>
   <stop id="stop1628" stop-color="#8400ea" offset="1"/>
  </radialGradient>
  <linearGradient id="b" x1="-1.2256" x2="1" y1=".013014" y2="1.1102e-16" gradientTransform="matrix(.10138 -17.338 17.338 .10138 15.549 26.598)" gradientUnits="userSpaceOnUse">
   <stop id="stop7" stop-color="#c22aff" offset="0"/>
   <stop id="stop9" stop-color="#fff" offset="1"/>
  </linearGradient>
 </defs>
 <metadata id="metadata1440">
  <rdf:RDF>
   <cc:Work rdf:about="">
    <dc:format>image/svg+xml</dc:format>
    <dc:type rdf:resource="http://purl.org/dc/dcmitype/StillImage"/>
   </cc:Work>
  </rdf:RDF>
 </metadata>
 <g id="layer1">
  <g id="g1702" transform="matrix(.97573 0 0 .96361 -65.737 -36.328)" fill="none" opacity=".18754" stroke="#000" stroke-linecap="round" stroke-linejoin="round" stroke-opacity=".02">
   <rect id="rect1634" x="69.84" y="40.71" width="29.811" height="29.811" rx="6.6099" ry="6.6099" stroke-width=".1"/>
   <rect id="rect1638" x="69.84" y="40.71" width="29.811" height="29.811" rx="6.6099" ry="6.6099" stroke-width=".2"/>
   <rect id="rect1640" x="69.84" y="40.71" width="29.811" height="29.811" rx="6.6099" ry="6.6099" stroke-width=".3"/>
   <rect id="rect1642" x="69.84" y="40.71" width="29.811" height="29.811" rx="6.6099" ry="6.6099" stroke-width=".4"/>
   <rect id="rect1644" x="69.84" y="40.71" width="29.811" height="29.811" rx="6.6099" ry="6.6099" stroke-width=".5"/>
   <rect id="rect1646" x="69.84" y="40.71" width="29.811" height="29.811" rx="6.6099" ry="6.6099" stroke-width=".6"/>
   <rect id="rect1648" x="69.84" y="40.71" width="29.811" height="29.811" rx="6.6099" ry="6.6099" stroke-width=".7"/>
   <rect id="rect1650" x="69.84" y="40.71" width="29.811" height="29.811" rx="6.6099" ry="6.6099" stroke-width=".8"/>
   <rect id="rect1652" x="69.84" y="40.71" width="29.811" height="29.811" rx="6.6099" ry="6.6099"/>
   <rect id="rect1654" x="69.84" y="40.71" width="29.811" height="29.811" rx="6.6099" ry="6.6099" stroke-width="1.2"/>
   <rect id="rect1656" x="69.84" y="40.71" width="29.811" height="29.811" rx="6.6099" ry="6.6099" stroke-width="1.4"/>
   <rect id="rect1658" x="69.84" y="40.71" width="29.811" height="29.811" rx="6.6099" ry="6.6099" stroke-width="1.6"/>
   <rect id="rect1660" x="69.84" y="40.71" width="29.811" height="29.811" rx="6.6099" ry="6.6099" stroke-width="1.8"/>
   <rect id="rect1662" x="69.84" y="40.71" width="29.811" height="29.811" rx="6.6099" ry="6.6099" stroke-width="2"/>
   <rect id="rect1664" x="69.84" y="40.71" width="29.811" height="29.811" rx="6.6099" ry="6.6099" stroke-width="2.2"/>
   <rect id="rect1666" x="69.84" y="40.71" width="29.811" height="29.811" rx="6.6099" ry="6.6099" stroke-width="2.6"/>
   <rect id="rect1668" x="69.84" y="40.71" width="29.811" height="29.811" rx="6.6099" ry="6.6099" stroke-width="3"/>
   <rect id="rect1670" x="69.84" y="40.71" width="29.811" height="29.811" rx="6.6099" ry="6.6099" stroke-width="3.4"/>
   <rect id="rect1672" x="69.84" y="40.71" width="29.811" height="29.811" rx="6.6099" ry="6.6099" stroke-width="3.8"/>
   <rect id="rect1674" x="69.84" y="40.71" width="29.811" height="29.811" rx="6.6099" ry="6.6099" stroke-width="4.2"/>
   <rect id="rect1676" x="69.84" y="40.71" width="29.811" height="29.811" rx="6.6099" ry="6.6099" stroke-width="4.6"/>
   <rect id="rect1678" x="69.84" y="40.71" width="29.811" height="29.811" rx="6.6099" ry="6.6099" stroke-width="5"/>
  </g>
  <rect id="rect849" x="2.4074" y="2.5392" width="29.087" height="29.087" rx="6.4495" ry="6.4495" fill="url(#radialGradient948)" stroke-linecap="round" stroke-linejoin="round" stroke-width="2.6877"/>
  <path id="path1292" d="m10.512 9.7586-0.56675 2.8338v12.469h2.8338v1.7003h2.267l1.7003-1.7003h2.267l5.6675-5.6675v-9.6348zm1.7003 1.1335h11.335v7.8881l-2.267 2.3135h-3.9673l-2.267 2.267v-2.267h-2.8338zm3.4005 2.8338v4.534h1.7003v-4.534zm3.9673 0v4.534h1.7003v-4.534z" fill="#22005c" fill-opacity=".039538" stroke-width=".56675"/>
  <path id="path1456" d="m10.895 10.265-0.56675 2.8338v12.469h2.8338v1.7003h2.267l1.7003-1.7003h2.267l5.6675-5.6675v-9.6348zm1.7003 1.1335h11.335v7.8881l-2.267 2.3135h-3.9673l-2.267 2.267v-2.267h-2.8338zm3.4005 2.8338v4.534h1.7003v-4.534zm3.9673 0v4.534h1.7003v-4.534z" fill="#22005c" fill-opacity=".039538" stroke-width=".56675"/>
  <path id="path1458" d="m10.895 10.265-0.13255 3.298v12.469h2.8338v1.7003h2.267l1.7003-1.7003h2.267l5.6675-5.6675v-9.6348l-2.313-0.33662zm2.1345 1.5977h11.335v7.8881l-2.267 2.3135h-3.9673l-2.267 2.267v-2.267h-2.8338zm3.4005 2.8338v4.534h1.7003v-4.534zm3.9673 0v4.534h1.7003v-4.534z" fill="#22005c" fill-opacity=".025764" stroke-width=".56675"/>
  <path id="path14" d="m10.15 9.2591-0.56675 2.8338v12.469h2.8338v1.7003h2.267l1.7003-1.7003h2.267l5.6675-5.6675v-9.6348zm1.7003 1.1335h11.335v7.8881l-2.267 2.3135h-3.9673l-2.267 2.267v-2.267h-2.8338zm3.4005 2.8338v4.534h1.7003v-4.534zm3.9673 0v4.534h1.7003v-4.534z" fill="url(#b)" stroke-width=".56675"/>
 </g>
</svg>
