<?xml version="1.0" encoding="UTF-8"?>
<svg id="svg8" width="128" height="128" version="1.1" viewBox="0 0 33.867 33.867" xmlns="http://www.w3.org/2000/svg" xmlns:cc="http://creativecommons.org/ns#" xmlns:dc="http://purl.org/dc/elements/1.1/" xmlns:rdf="http://www.w3.org/1999/02/22-rdf-syntax-ns#" xmlns:xlink="http://www.w3.org/1999/xlink">
 <defs id="defs2">
  <linearGradient id="linearGradient932" x1="16.206" x2="16.206" y1="280.12" y2="276.66" gradientTransform="translate(7.7822 .030401)" gradientUnits="userSpaceOnUse">
   <stop id="stop906" stop-color="#1dd033" offset="0"/>
   <stop id="stop908" stop-color="#70eb6d" offset="1"/>
  </linearGradient>
  <linearGradient id="linearGradient1116" x1="16.206" x2="16.206" y1="280.12" y2="276.66" gradientTransform="translate(7.7822 .030401)" gradientUnits="userSpaceOnUse">
   <stop id="stop1118" stop-color="#8e46c5" offset="0"/>
   <stop id="stop1120" stop-color="#ba6be5" offset="1"/>
  </linearGradient>
  <linearGradient id="linearGradient1192" x1="16.206" x2="16.206" y1="280.12" y2="276.66" gradientTransform="translate(7.7822 .030401)" gradientUnits="userSpaceOnUse">
   <stop id="stop1194" stop-color="#296eea" offset="0"/>
   <stop id="stop1196" stop-color="#26cff6" offset="1"/>
  </linearGradient>
 </defs>
 <metadata id="metadata5">
  <rdf:RDF>
   <cc:Work rdf:about="">
    <dc:format>image/svg+xml</dc:format>
    <dc:type rdf:resource="http://purl.org/dc/dcmitype/StillImage"/>
   </cc:Work>
  </rdf:RDF>
 </metadata>
 <g id="layer1" transform="translate(0 -263.13)">
  <g id="g1312" transform="matrix(1.0739 0 0 1.0739 -1.6274 -20.642)">
   <rect id="rect871" x="1.9558" y="268.25" width="30.357" height="23.681" rx="3.8664" ry="3.8664"/>
   <g id="g880" transform="translate(-17.172 .076809)">
    <rect id="rect873" x="21.854" y="270.89" width="12.413" height="7.7998" rx=".50062" ry=".50062" fill="#d6d6d6"/>
    <path id="rect875" d="m22.355 270.89h11.412c0.27734 0 0.50062 0.22327 0.50062 0.50062v0.63896h-12.413v-0.63896c0-0.27735 0.22328-0.50062 0.50062-0.50062z" fill="#ececec"/>
   </g>
   <g id="g892" transform="translate(-2.2928 3.4433)">
    <rect id="rect888" x="21.854" y="270.89" width="9.9637" height="11.8" rx=".50062" ry=".50062" fill="#d6d6d6"/>
    <path id="path890" d="m22.355 270.89h8.9812c0.27734 0 0.50062 0.22327 0.50062 0.50062v0.63896h-9.9825v-0.63896c0-0.27735 0.22328-0.50062 0.50062-0.50062z" fill="#ececec"/>
   </g>
   <g id="g902" transform="translate(-15.711 10.087)">
    <rect id="rect898" x="21.854" y="270.89" width="10.915" height="8.3343" rx=".50062" ry=".50062" fill="#d6d6d6"/>
    <path id="path900" d="m22.355 270.89h9.8951c0.27734 0 0.50062 0.22327 0.50062 0.50062v0.63896h-10.896v-0.63896c0-0.27735 0.22328-0.50062 0.50062-0.50062z" fill="#ececec"/>
   </g>
   <g id="g1046" transform="translate(-13.023 -.019849)">
    <g id="g979" transform="translate(7.8076)" fill-opacity=".03" opacity=".41984">
     <rect id="rect928" x="14.321" y="276.87" width="3.5211" height="3.5112" rx=".87548" ry=".87548"/>
     <rect id="rect936" x="14.298" y="276.87" width="3.5211" height="3.5112" rx=".87548" ry=".87548"/>
     <rect id="rect938" x="14.274" y="276.87" width="3.5211" height="3.5112" rx=".87548" ry=".87548"/>
     <rect id="rect940" x="14.251" y="276.87" width="3.5211" height="3.5112" rx=".87548" ry=".87548"/>
     <rect id="rect942" x="14.228" y="276.87" width="3.5211" height="3.5112" rx=".87548" ry=".87548"/>
     <rect id="rect944" x="14.208" y="276.87" width="3.5211" height="3.5112" rx=".87548" ry=".87548"/>
     <rect id="rect946" x="14.183" y="276.87" width="3.5211" height="3.5112" rx=".87548" ry=".87548"/>
     <rect id="rect948" x="14.16" y="276.87" width="3.5211" height="3.5112" rx=".87548" ry=".87548"/>
     <rect id="rect950" x="14.135" y="276.87" width="3.5211" height="3.5112" rx=".87548" ry=".87548"/>
     <rect id="rect952" x="14.112" y="276.87" width="3.5211" height="3.5112" rx=".87548" ry=".87548"/>
     <rect id="rect954" x="14.091" y="276.87" width="3.5211" height="3.5112" rx=".87548" ry=".87548"/>
     <rect id="rect956" x="14.063" y="276.87" width="3.5211" height="3.5112" rx=".87548" ry=".87548"/>
     <rect id="rect958" x="14.03" y="276.87" width="3.5211" height="3.5112" rx=".87548" ry=".87548"/>
     <rect id="rect960" x="14.003" y="276.87" width="3.5211" height="3.5112" rx=".87548" ry=".87548"/>
     <rect id="rect962" x="13.969" y="276.87" width="3.5211" height="3.5112" rx=".87548" ry=".87548"/>
    </g>
    <g id="g1011" transform="matrix(-1 0 0 1 39.956 -.020783)" fill-opacity=".03" opacity=".32004">
     <rect id="rect981" x="14.321" y="276.87" width="3.5211" height="3.5112" rx=".87548" ry=".87548"/>
     <rect id="rect983" x="14.298" y="276.87" width="3.5211" height="3.5112" rx=".87548" ry=".87548"/>
     <rect id="rect985" x="14.274" y="276.87" width="3.5211" height="3.5112" rx=".87548" ry=".87548"/>
     <rect id="rect987" x="14.251" y="276.87" width="3.5211" height="3.5112" rx=".87548" ry=".87548"/>
     <rect id="rect989" x="14.228" y="276.87" width="3.5211" height="3.5112" rx=".87548" ry=".87548"/>
     <rect id="rect991" x="14.208" y="276.87" width="3.5211" height="3.5112" rx=".87548" ry=".87548"/>
     <rect id="rect993" x="14.183" y="276.87" width="3.5211" height="3.5112" rx=".87548" ry=".87548"/>
     <rect id="rect995" x="14.16" y="276.87" width="3.5211" height="3.5112" rx=".87548" ry=".87548"/>
     <rect id="rect997" x="14.135" y="276.87" width="3.5211" height="3.5112" rx=".87548" ry=".87548"/>
     <rect id="rect999" x="14.112" y="276.87" width="3.5211" height="3.5112" rx=".87548" ry=".87548"/>
     <rect id="rect1001" x="14.091" y="276.87" width="3.5211" height="3.5112" rx=".87548" ry=".87548"/>
     <rect id="rect1003" x="14.063" y="276.87" width="3.5211" height="3.5112" rx=".87548" ry=".87548"/>
     <rect id="rect1005" x="14.03" y="276.87" width="3.5211" height="3.5112" rx=".87548" ry=".87548"/>
     <rect id="rect1007" x="14.003" y="276.87" width="3.5211" height="3.5112" rx=".87548" ry=".87548"/>
     <rect id="rect1009" x="13.969" y="276.87" width="3.5211" height="3.5112" rx=".87548" ry=".87548"/>
    </g>
    <rect id="rect930" x="22.126" y="276.62" width="3.5211" height="3.5112" rx=".87548" ry=".87548" fill="url(#linearGradient932)"/>
   </g>
   <g id="g1114" transform="translate(.71385 7.3058)">
    <g id="g1078" transform="translate(7.8076)" fill-opacity=".03" opacity=".41984">
     <rect id="rect1048" x="14.321" y="276.87" width="3.5211" height="3.5112" rx=".87548" ry=".87548"/>
     <rect id="rect1050" x="14.298" y="276.87" width="3.5211" height="3.5112" rx=".87548" ry=".87548"/>
     <rect id="rect1052" x="14.274" y="276.87" width="3.5211" height="3.5112" rx=".87548" ry=".87548"/>
     <rect id="rect1054" x="14.251" y="276.87" width="3.5211" height="3.5112" rx=".87548" ry=".87548"/>
     <rect id="rect1056" x="14.228" y="276.87" width="3.5211" height="3.5112" rx=".87548" ry=".87548"/>
     <rect id="rect1058" x="14.208" y="276.87" width="3.5211" height="3.5112" rx=".87548" ry=".87548"/>
     <rect id="rect1060" x="14.183" y="276.87" width="3.5211" height="3.5112" rx=".87548" ry=".87548"/>
     <rect id="rect1062" x="14.16" y="276.87" width="3.5211" height="3.5112" rx=".87548" ry=".87548"/>
     <rect id="rect1064" x="14.135" y="276.87" width="3.5211" height="3.5112" rx=".87548" ry=".87548"/>
     <rect id="rect1066" x="14.112" y="276.87" width="3.5211" height="3.5112" rx=".87548" ry=".87548"/>
     <rect id="rect1068" x="14.091" y="276.87" width="3.5211" height="3.5112" rx=".87548" ry=".87548"/>
     <rect id="rect1070" x="14.063" y="276.87" width="3.5211" height="3.5112" rx=".87548" ry=".87548"/>
     <rect id="rect1072" x="14.03" y="276.87" width="3.5211" height="3.5112" rx=".87548" ry=".87548"/>
     <rect id="rect1074" x="14.003" y="276.87" width="3.5211" height="3.5112" rx=".87548" ry=".87548"/>
     <rect id="rect1076" x="13.969" y="276.87" width="3.5211" height="3.5112" rx=".87548" ry=".87548"/>
    </g>
    <g id="g1110" transform="matrix(-1 0 0 1 39.956 -.020783)" fill-opacity=".03" opacity=".32004">
     <rect id="rect1080" x="14.321" y="276.87" width="3.5211" height="3.5112" rx=".87548" ry=".87548"/>
     <rect id="rect1082" x="14.298" y="276.87" width="3.5211" height="3.5112" rx=".87548" ry=".87548"/>
     <rect id="rect1084" x="14.274" y="276.87" width="3.5211" height="3.5112" rx=".87548" ry=".87548"/>
     <rect id="rect1086" x="14.251" y="276.87" width="3.5211" height="3.5112" rx=".87548" ry=".87548"/>
     <rect id="rect1088" x="14.228" y="276.87" width="3.5211" height="3.5112" rx=".87548" ry=".87548"/>
     <rect id="rect1090" x="14.208" y="276.87" width="3.5211" height="3.5112" rx=".87548" ry=".87548"/>
     <rect id="rect1092" x="14.183" y="276.87" width="3.5211" height="3.5112" rx=".87548" ry=".87548"/>
     <rect id="rect1094" x="14.16" y="276.87" width="3.5211" height="3.5112" rx=".87548" ry=".87548"/>
     <rect id="rect1096" x="14.135" y="276.87" width="3.5211" height="3.5112" rx=".87548" ry=".87548"/>
     <rect id="rect1098" x="14.112" y="276.87" width="3.5211" height="3.5112" rx=".87548" ry=".87548"/>
     <rect id="rect1100" x="14.091" y="276.87" width="3.5211" height="3.5112" rx=".87548" ry=".87548"/>
     <rect id="rect1102" x="14.063" y="276.87" width="3.5211" height="3.5112" rx=".87548" ry=".87548"/>
     <rect id="rect1104" x="14.03" y="276.87" width="3.5211" height="3.5112" rx=".87548" ry=".87548"/>
     <rect id="rect1106" x="14.003" y="276.87" width="3.5211" height="3.5112" rx=".87548" ry=".87548"/>
     <rect id="rect1108" x="13.969" y="276.87" width="3.5211" height="3.5112" rx=".87548" ry=".87548"/>
    </g>
    <rect id="rect1112" x="22.126" y="276.62" width="3.5211" height="3.5112" rx=".87548" ry=".87548" fill="url(#linearGradient1116)"/>
   </g>
   <g id="g1190" transform="translate(-12.188 10.659)">
    <g id="g1154" transform="translate(7.8076)" fill-opacity=".03" opacity=".41984">
     <rect id="rect1124" x="14.321" y="276.87" width="3.5211" height="3.5112" rx=".87548" ry=".87548"/>
     <rect id="rect1126" x="14.298" y="276.87" width="3.5211" height="3.5112" rx=".87548" ry=".87548"/>
     <rect id="rect1128" x="14.274" y="276.87" width="3.5211" height="3.5112" rx=".87548" ry=".87548"/>
     <rect id="rect1130" x="14.251" y="276.87" width="3.5211" height="3.5112" rx=".87548" ry=".87548"/>
     <rect id="rect1132" x="14.228" y="276.87" width="3.5211" height="3.5112" rx=".87548" ry=".87548"/>
     <rect id="rect1134" x="14.208" y="276.87" width="3.5211" height="3.5112" rx=".87548" ry=".87548"/>
     <rect id="rect1136" x="14.183" y="276.87" width="3.5211" height="3.5112" rx=".87548" ry=".87548"/>
     <rect id="rect1138" x="14.16" y="276.87" width="3.5211" height="3.5112" rx=".87548" ry=".87548"/>
     <rect id="rect1140" x="14.135" y="276.87" width="3.5211" height="3.5112" rx=".87548" ry=".87548"/>
     <rect id="rect1142" x="14.112" y="276.87" width="3.5211" height="3.5112" rx=".87548" ry=".87548"/>
     <rect id="rect1144" x="14.091" y="276.87" width="3.5211" height="3.5112" rx=".87548" ry=".87548"/>
     <rect id="rect1146" x="14.063" y="276.87" width="3.5211" height="3.5112" rx=".87548" ry=".87548"/>
     <rect id="rect1148" x="14.03" y="276.87" width="3.5211" height="3.5112" rx=".87548" ry=".87548"/>
     <rect id="rect1150" x="14.003" y="276.87" width="3.5211" height="3.5112" rx=".87548" ry=".87548"/>
     <rect id="rect1152" x="13.969" y="276.87" width="3.5211" height="3.5112" rx=".87548" ry=".87548"/>
    </g>
    <g id="g1186" transform="matrix(-1 0 0 1 39.956 -.020783)" fill-opacity=".03" opacity=".32004">
     <rect id="rect1156" x="14.321" y="276.87" width="3.5211" height="3.5112" rx=".87548" ry=".87548"/>
     <rect id="rect1158" x="14.298" y="276.87" width="3.5211" height="3.5112" rx=".87548" ry=".87548"/>
     <rect id="rect1160" x="14.274" y="276.87" width="3.5211" height="3.5112" rx=".87548" ry=".87548"/>
     <rect id="rect1162" x="14.251" y="276.87" width="3.5211" height="3.5112" rx=".87548" ry=".87548"/>
     <rect id="rect1164" x="14.228" y="276.87" width="3.5211" height="3.5112" rx=".87548" ry=".87548"/>
     <rect id="rect1166" x="14.208" y="276.87" width="3.5211" height="3.5112" rx=".87548" ry=".87548"/>
     <rect id="rect1168" x="14.183" y="276.87" width="3.5211" height="3.5112" rx=".87548" ry=".87548"/>
     <rect id="rect1170" x="14.16" y="276.87" width="3.5211" height="3.5112" rx=".87548" ry=".87548"/>
     <rect id="rect1172" x="14.135" y="276.87" width="3.5211" height="3.5112" rx=".87548" ry=".87548"/>
     <rect id="rect1174" x="14.112" y="276.87" width="3.5211" height="3.5112" rx=".87548" ry=".87548"/>
     <rect id="rect1176" x="14.091" y="276.87" width="3.5211" height="3.5112" rx=".87548" ry=".87548"/>
     <rect id="rect1178" x="14.063" y="276.87" width="3.5211" height="3.5112" rx=".87548" ry=".87548"/>
     <rect id="rect1180" x="14.03" y="276.87" width="3.5211" height="3.5112" rx=".87548" ry=".87548"/>
     <rect id="rect1182" x="14.003" y="276.87" width="3.5211" height="3.5112" rx=".87548" ry=".87548"/>
     <rect id="rect1184" x="13.969" y="276.87" width="3.5211" height="3.5112" rx=".87548" ry=".87548"/>
    </g>
    <rect id="rect1188" x="22.126" y="276.62" width="3.5211" height="3.5112" rx=".87548" ry=".87548" fill="url(#linearGradient1192)"/>
   </g>
  </g>
 </g>
</svg>
