<?xml version="1.0" encoding="UTF-8" standalone="no"?>
<svg
   id="svg1443"
   width="512"
   height="512"
   version="1.1"
   viewBox="0 0 33.867 33.867"
   sodipodi:docname="GPU_Viewer.svg"
   inkscape:version="1.4.4 (dcaf3e7d9e, 2026-05-05)"
   xmlns:inkscape="http://www.inkscape.org/namespaces/inkscape"
   xmlns:sodipodi="http://sodipodi.sourceforge.net/DTD/sodipodi-0.dtd"
   xmlns:xlink="http://www.w3.org/1999/xlink"
   xmlns="http://www.w3.org/2000/svg"
   xmlns:svg="http://www.w3.org/2000/svg"
   xmlns:rdf="http://www.w3.org/1999/02/22-rdf-syntax-ns#"
   xmlns:cc="http://creativecommons.org/ns#"
   xmlns:dc="http://purl.org/dc/elements/1.1/">
  <sodipodi:namedview
     id="namedview1"
     pagecolor="#ffffff"
     bordercolor="#999999"
     borderopacity="1"
     inkscape:showpageshadow="2"
     inkscape:pageopacity="0"
     inkscape:pagecheckerboard="0"
     inkscape:deskcolor="#d1d1d1"
     inkscape:zoom="2.2617188"
     inkscape:cx="255.77893"
     inkscape:cy="256"
     inkscape:window-width="2560"
     inkscape:window-height="1371"
     inkscape:window-x="0"
     inkscape:window-y="0"
     inkscape:window-maximized="1"
     inkscape:current-layer="svg1443" />
  <defs
     id="defs1437">
    <radialGradient
       id="radialGradient1676"
       cx="16.951"
       cy="4.2649"
       r="14.544"
       gradientTransform="matrix(5.031,0,0,1.4825,-68.33,-2.0576)"
       gradientUnits="userSpaceOnUse">
      <stop
         id="stop1668"
         stop-color="#ff5e48"
         offset="0"
         style="stop-color:#ed333b;stop-opacity:1" />
      <stop
         id="stop1670"
         stop-color="#ff1f4b"
         offset="1"
         style="stop-color:#a51d2d;stop-opacity:1" />
    </radialGradient>
    <linearGradient
       id="linearGradient1722"
       x1="22.838"
       x2="22.838"
       y1="51.253"
       y2="222.88"
       gradientUnits="userSpaceOnUse"
       gradientTransform="scale(0.26458)">
      <stop
         id="stop1716"
         stop-color="#fff"
         offset="0" />
      <stop
         id="stop1718"
         stop-color="#ff1f4b"
         offset="1" />
    </linearGradient>
    <filter
       inkscape:collect="always"
       style="color-interpolation-filters:sRGB"
       id="filter1"
       x="-0.065624704"
       y="-0.087500527"
       width="1.1312494"
       height="1.1750011">
      <feGaussianBlur
         inkscape:collect="always"
         stdDeviation="0.59772897"
         id="feGaussianBlur1" />
    </filter>
    <linearGradient
       inkscape:collect="always"
       xlink:href="#radialGradient1676"
       id="linearGradient1"
       x1="16.950899"
       y1="2.5392008"
       x2="16.950899"
       y2="31.626202"
       gradientUnits="userSpaceOnUse" />
  </defs>
  <metadata
     id="metadata1440">
    <rdf:RDF>
      <cc:Work
         rdf:about="">
        <dc:format>image/svg+xml</dc:format>
        <dc:type
           rdf:resource="http://purl.org/dc/dcmitype/StillImage" />
      </cc:Work>
    </rdf:RDF>
  </metadata>
  <g
     id="g1702"
     transform="matrix(0.97573,0,0,0.96361,-65.737,-36.328)"
     fill="none"
     opacity="0.18754"
     stroke="#000000"
     stroke-linecap="round"
     stroke-linejoin="round"
     stroke-opacity="0.02">
    <rect
       id="rect1634"
       x="69.839996"
       y="40.709999"
       width="29.811001"
       height="29.811001"
       rx="6.6099"
       ry="6.6099"
       stroke-width="0.1" />
    <rect
       id="rect1638"
       x="69.839996"
       y="40.709999"
       width="29.811001"
       height="29.811001"
       rx="6.6099"
       ry="6.6099"
       stroke-width="0.2" />
    <rect
       id="rect1640"
       x="69.839996"
       y="40.709999"
       width="29.811001"
       height="29.811001"
       rx="6.6099"
       ry="6.6099"
       stroke-width="0.3" />
    <rect
       id="rect1642"
       x="69.839996"
       y="40.709999"
       width="29.811001"
       height="29.811001"
       rx="6.6099"
       ry="6.6099"
       stroke-width="0.4" />
    <rect
       id="rect1644"
       x="69.839996"
       y="40.709999"
       width="29.811001"
       height="29.811001"
       rx="6.6099"
       ry="6.6099"
       stroke-width="0.5" />
    <rect
       id="rect1646"
       x="69.839996"
       y="40.709999"
       width="29.811001"
       height="29.811001"
       rx="6.6099"
       ry="6.6099"
       stroke-width="0.6" />
    <rect
       id="rect1648"
       x="69.839996"
       y="40.709999"
       width="29.811001"
       height="29.811001"
       rx="6.6099"
       ry="6.6099"
       stroke-width="0.7" />
    <rect
       id="rect1650"
       x="69.839996"
       y="40.709999"
       width="29.811001"
       height="29.811001"
       rx="6.6099"
       ry="6.6099"
       stroke-width="0.8" />
    <rect
       id="rect1652"
       x="69.839996"
       y="40.709999"
       width="29.811001"
       height="29.811001"
       rx="6.6099"
       ry="6.6099" />
    <rect
       id="rect1654"
       x="69.839996"
       y="40.709999"
       width="29.811001"
       height="29.811001"
       rx="6.6099"
       ry="6.6099"
       stroke-width="1.2" />
    <rect
       id="rect1656"
       x="69.839996"
       y="40.709999"
       width="29.811001"
       height="29.811001"
       rx="6.6099"
       ry="6.6099"
       stroke-width="1.4" />
    <rect
       id="rect1658"
       x="69.839996"
       y="40.709999"
       width="29.811001"
       height="29.811001"
       rx="6.6099"
       ry="6.6099"
       stroke-width="1.6" />
    <rect
       id="rect1660"
       x="69.839996"
       y="40.709999"
       width="29.811001"
       height="29.811001"
       rx="6.6099"
       ry="6.6099"
       stroke-width="1.8" />
    <rect
       id="rect1662"
       x="69.839996"
       y="40.709999"
       width="29.811001"
       height="29.811001"
       rx="6.6099"
       ry="6.6099"
       stroke-width="2" />
    <rect
       id="rect1664"
       x="69.839996"
       y="40.709999"
       width="29.811001"
       height="29.811001"
       rx="6.6099"
       ry="6.6099"
       stroke-width="2.2" />
    <rect
       id="rect1666"
       x="69.839996"
       y="40.709999"
       width="29.811001"
       height="29.811001"
       rx="6.6099"
       ry="6.6099"
       stroke-width="2.6" />
    <rect
       id="rect1668"
       x="69.839996"
       y="40.709999"
       width="29.811001"
       height="29.811001"
       rx="6.6099"
       ry="6.6099"
       stroke-width="3" />
    <rect
       id="rect1670"
       x="69.839996"
       y="40.709999"
       width="29.811001"
       height="29.811001"
       rx="6.6099"
       ry="6.6099"
       stroke-width="3.4" />
    <rect
       id="rect1672"
       x="69.839996"
       y="40.709999"
       width="29.811001"
       height="29.811001"
       rx="6.6099"
       ry="6.6099"
       stroke-width="3.8" />
    <rect
       id="rect1674"
       x="69.839996"
       y="40.709999"
       width="29.811001"
       height="29.811001"
       rx="6.6099"
       ry="6.6099"
       stroke-width="4.2" />
    <rect
       id="rect1676"
       x="69.839996"
       y="40.709999"
       width="29.811001"
       height="29.811001"
       rx="6.6099"
       ry="6.6099"
       stroke-width="4.6" />
    <rect
       id="rect1678"
       x="69.839996"
       y="40.709999"
       width="29.811001"
       height="29.811001"
       rx="6.6099"
       ry="6.6099"
       stroke-width="5" />
  </g>
  <rect
     id="rect849"
     x="2.4073999"
     y="2.5392001"
     width="29.087"
     height="29.087"
     rx="6.4495001"
     ry="6.4495001"
     fill="url(#radialGradient1676)"
     stroke-linecap="round"
     stroke-linejoin="round"
     stroke-width="2.6877"
     style="fill:url(#linearGradient1)" />
  <path
     id="rect4"
     d="m 7.4997847,9.2772481 c -0.8073659,0 -1.4572537,0.6852887 -1.4572537,1.5368399 v 13.321073 c 0,0.851551 0.6498878,1.53684 1.4572537,1.53684 0.8073658,0 1.4577829,-0.685289 1.4577829,-1.53684 V 23.4794 c 0.05154,0.004 0.1034613,0.0067 0.1560598,0.0067 h 2.0298316 v 1.275354 c 0,0.504607 0.405918,0.910526 0.910525,0.910526 0.504607,0 0.911055,-0.405919 0.911055,-0.910526 V 23.4861 h 1.092954 v 1.275354 c 0,0.504607 0.406447,0.910526 0.911054,0.910526 0.504607,0 0.910526,-0.405919 0.910526,-0.910526 V 23.4861 h 1.092954 v 1.275354 c -1e-6,0.504607 0.406447,0.910526 0.911054,0.910526 0.504607,0 0.910526,-0.405919 0.910526,-0.910526 V 23.4861 h 7.130696 c 1.095784,0 1.977629,-0.893858 1.977629,-2.003982 v -8.014922 c 0,-1.110125 -0.881845,-2.003982 -1.977629,-2.003982 H 9.1136539 c -0.052598,0 -0.1045197,0.0027 -0.1560599,0.0067 v -0.655762 c 0,-0.8515507 -0.650417,-1.5368393 -1.4577829,-1.5368393 z m 6.0115223,4.3716549 a 3.8255622,3.8255622 0 0 1 3.825562,3.825563 3.8255622,3.8255622 0 0 1 -3.825562,3.825562 3.8255622,3.8255622 0 0 1 -3.8250332,-3.825562 3.8255622,3.8255622 0 0 1 3.8250332,-3.825563 z m 0,0.728627 c -0.302759,0 -0.546226,0.243972 -0.546226,0.546728 v 1.008183 a 1.6394964,1.6394964 0 0 0 -0.158644,0.06408 l -0.711588,-0.711588 c -0.214085,-0.214082 -0.558978,-0.214082 -0.773077,0 -0.214082,0.214083 -0.214082,0.558476 0,0.772547 l 0.711588,0.711588 a 1.6394964,1.6394964 0 0 0 -0.06408,0.158645 H 10.9611 c -0.302759,0 -0.546226,0.243969 -0.546226,0.546728 0,0.302759 0.243453,0.546728 0.546226,0.546728 h 1.008182 a 1.6394964,1.6394964 0 0 0 0.06408,0.158645 l -0.711588,0.711588 c -0.214082,0.214082 -0.214082,0.558476 0,0.772547 0.214083,0.214082 0.558979,0.214082 0.773077,0 l 0.711588,-0.711588 a 1.6394964,1.6394964 0 0 0 0.158644,0.06408 v 1.008182 c 0,0.302759 0.243454,0.546728 0.546226,0.546728 0.302759,0 0.546728,-0.243969 0.546728,-0.546728 v -1.008182 a 1.6394964,1.6394964 0 0 0 0.158645,-0.06408 l 0.711588,0.711588 c 0.214082,0.214082 0.558978,0.214082 0.773076,0 0.214082,-0.214082 0.214082,-0.558475 0,-0.772547 l -0.711588,-0.711588 a 1.6394964,1.6394964 0 0 0 0.06408,-0.158645 h 1.008182 c 0.302759,0 0.546225,-0.243972 0.546225,-0.546728 0,-0.302759 -0.243453,-0.546728 -0.546225,-0.546728 h -1.00509 a 1.6394964,1.6394964 0 0 0 -0.06614,-0.159679 l 0.71053,-0.71053 c 0.214082,-0.214082 0.214082,-0.558475 0,-0.772547 -0.214082,-0.214082 -0.558978,-0.214082 -0.773076,0 l -0.710027,0.710027 a 1.6394964,1.6394964 0 0 0 -0.160196,-0.06615 V 14.92425 c 0,-0.302759 -0.243971,-0.546728 -0.546728,-0.546728 z m 8.744104,0 a 3.0969089,3.0969089 0 0 1 3.096909,3.096909 3.0969089,3.0969089 0 0 1 -3.096909,3.096909 3.0969089,3.0969089 0 0 1 -3.096379,-3.096909 3.0969089,3.0969089 0 0 1 3.096379,-3.096909 z m 0,0.728627 c -0.302759,0 -0.546225,0.243969 -0.546225,0.546728 V 16.1531 l -0.355014,-0.355013 c -0.214084,-0.214082 -0.559507,-0.214082 -0.773579,0 -0.214082,0.214082 -0.214082,0.558475 0,0.772547 l 0.357078,0.357077 h -0.50384 c -0.302759,0 -0.546226,0.243969 -0.546226,0.546728 0,0.302759 0.243454,0.546728 0.546226,0.546728 h 0.499712 l -0.35295,0.35295 c -0.214082,0.214082 -0.214082,0.558476 0,0.772547 0.214083,0.214082 0.559508,0.214082 0.773579,0 l 0.355014,-0.355013 v 0.504342 c 0,0.302759 0.243456,0.546728 0.546225,0.546728 0.302759,0 0.546728,-0.243969 0.546728,-0.546728 v -0.504342 l 0.355014,0.355013 c 0.214082,0.214082 0.558475,0.214082 0.772547,0 0.214082,-0.214082 0.214082,-0.558475 0,-0.772547 l -0.35295,-0.35295 h 0.500215 c 0.302759,0 0.546728,-0.243969 0.546728,-0.546728 0,-0.302759 -0.243969,-0.546728 -0.546728,-0.546728 H 23.572623 L 23.9297,16.570634 c 0.214082,-0.214082 0.214082,-0.558476 0,-0.772547 -0.214085,-0.214082 -0.558475,-0.214082 -0.772547,0 L 22.802139,16.1531 v -0.500215 c 0,-0.302759 -0.243969,-0.546728 -0.546728,-0.546728 z"
     fill="url(#linearGradient1722)"
     stroke-width="0.364327"
     style="opacity:0.35;fill:#000000;fill-opacity:1;filter:url(#filter1)" />
  <path
     id="rect4-7"
     d="m 7.499785,8.6157833 c -0.8073659,0 -1.4572537,0.6852887 -1.4572537,1.5368397 v 13.321073 c 0,0.851551 0.6498878,1.53684 1.4572537,1.53684 0.8073658,0 1.4577829,-0.685289 1.4577829,-1.53684 v -0.655761 c 0.05154,0.004 0.1034613,0.0067 0.1560598,0.0067 h 2.0298313 v 1.275354 c 0,0.504607 0.405918,0.910526 0.910525,0.910526 0.504607,0 0.911055,-0.405919 0.911055,-0.910526 v -1.275354 h 1.092954 v 1.275354 c 0,0.504607 0.406447,0.910526 0.911054,0.910526 0.504607,0 0.910526,-0.405919 0.910526,-0.910526 v -1.275354 h 1.092954 v 1.275354 c -1e-6,0.504607 0.406447,0.910526 0.911054,0.910526 0.504607,0 0.910526,-0.405919 0.910526,-0.910526 v -1.275354 h 7.130696 c 1.095784,0 1.977629,-0.893858 1.977629,-2.003982 v -8.014922 c 0,-1.110125 -0.881845,-2.003982 -1.977629,-2.003982 H 9.1136542 c -0.052598,0 -0.1045197,0.0027 -0.1560599,0.0067 v -0.655762 c 0,-0.8515505 -0.650417,-1.5368391 -1.4577829,-1.5368391 z m 6.011522,4.3716547 a 3.8255622,3.8255622 0 0 1 3.825562,3.825563 3.8255622,3.8255622 0 0 1 -3.825562,3.825562 3.8255622,3.8255622 0 0 1 -3.8250329,-3.825562 3.8255622,3.8255622 0 0 1 3.8250329,-3.825563 z m 0,0.728627 c -0.302759,0 -0.546226,0.243972 -0.546226,0.546728 v 1.008183 a 1.6394964,1.6394964 0 0 0 -0.158644,0.06408 l -0.711588,-0.711588 c -0.214085,-0.214082 -0.558978,-0.214082 -0.773077,0 -0.214082,0.214083 -0.214082,0.558476 0,0.772547 l 0.711588,0.711588 a 1.6394964,1.6394964 0 0 0 -0.06408,0.158645 H 10.9611 c -0.302759,0 -0.546226,0.243969 -0.546226,0.546728 0,0.302759 0.243453,0.546728 0.546226,0.546728 h 1.008182 a 1.6394964,1.6394964 0 0 0 0.06408,0.158645 l -0.711588,0.711588 c -0.214082,0.214082 -0.214082,0.558476 0,0.772547 0.214083,0.214082 0.558979,0.214082 0.773077,0 l 0.711588,-0.711588 a 1.6394964,1.6394964 0 0 0 0.158644,0.06408 v 1.008182 c 0,0.302759 0.243454,0.546728 0.546226,0.546728 0.302759,0 0.546728,-0.243969 0.546728,-0.546728 v -1.008182 a 1.6394964,1.6394964 0 0 0 0.158645,-0.06408 l 0.711588,0.711588 c 0.214082,0.214082 0.558978,0.214082 0.773076,0 0.214082,-0.214082 0.214082,-0.558475 0,-0.772547 l -0.711588,-0.711588 a 1.6394964,1.6394964 0 0 0 0.06408,-0.158645 h 1.008182 c 0.302759,0 0.546225,-0.243972 0.546225,-0.546728 0,-0.302759 -0.243453,-0.546728 -0.546225,-0.546728 h -1.00509 a 1.6394964,1.6394964 0 0 0 -0.06614,-0.159679 l 0.71053,-0.71053 c 0.214082,-0.214082 0.214082,-0.558475 0,-0.772547 -0.214082,-0.214082 -0.558978,-0.214082 -0.773076,0 l -0.710027,0.710027 a 1.6394964,1.6394964 0 0 0 -0.160196,-0.06615 v -1.004584 c 0,-0.302759 -0.243971,-0.546728 -0.546728,-0.546728 z m 8.744104,0 a 3.0969089,3.0969089 0 0 1 3.096909,3.096909 3.0969089,3.0969089 0 0 1 -3.096909,3.096909 3.0969089,3.0969089 0 0 1 -3.096379,-3.096909 3.0969089,3.0969089 0 0 1 3.096379,-3.096909 z m 0,0.728627 c -0.302759,0 -0.546225,0.243969 -0.546225,0.546728 v 0.500215 l -0.355014,-0.355013 c -0.214084,-0.214082 -0.559507,-0.214082 -0.773579,0 -0.214082,0.214082 -0.214082,0.558475 0,0.772547 l 0.357078,0.357077 h -0.50384 c -0.302759,0 -0.546226,0.243969 -0.546226,0.546728 0,0.302759 0.243454,0.546728 0.546226,0.546728 h 0.499712 l -0.35295,0.35295 c -0.214082,0.214082 -0.214082,0.558476 0,0.772547 0.214083,0.214082 0.559508,0.214082 0.773579,0 l 0.355014,-0.355013 v 0.504342 c 0,0.302759 0.243456,0.546728 0.546225,0.546728 0.302759,0 0.546728,-0.243969 0.546728,-0.546728 v -0.504342 l 0.355014,0.355013 c 0.214082,0.214082 0.558475,0.214082 0.772547,0 0.214082,-0.214082 0.214082,-0.558475 0,-0.772547 l -0.35295,-0.35295 h 0.500215 c 0.302759,0 0.546728,-0.243969 0.546728,-0.546728 0,-0.302759 -0.243969,-0.546728 -0.546728,-0.546728 H 23.572623 L 23.9297,15.909169 c 0.214082,-0.214082 0.214082,-0.558476 0,-0.772547 -0.214085,-0.214082 -0.558475,-0.214082 -0.772547,0 l -0.355014,0.355013 V 14.99142 c 0,-0.302759 -0.243969,-0.546728 -0.546728,-0.546728 z"
     fill="url(#linearGradient1722)"
     stroke-width="0.364327"
     style="fill:#ffffff;fill-opacity:1" />
</svg>
