<?xml version="1.0" encoding="UTF-8"?>
<svg id="svg1083" width="128" height="128" version="1.1" viewBox="0 0 33.867 33.867" xmlns="http://www.w3.org/2000/svg" xmlns:cc="http://creativecommons.org/ns#" xmlns:dc="http://purl.org/dc/elements/1.1/" xmlns:rdf="http://www.w3.org/1999/02/22-rdf-syntax-ns#" xmlns:xlink="http://www.w3.org/1999/xlink">
 <defs id="defs1077">
  <radialGradient id="radialGradient999" cx="16.922" cy="3.5764" r="14.544" gradientTransform="matrix(3.2123 0 0 1.9628 -37.297 -3.4312)" gradientUnits="userSpaceOnUse">
   <stop id="stop1626" stop-color="#496c7e" offset="0"/>
   <stop id="stop1628" stop-color="#19587a" offset="1"/>
  </radialGradient>
  <linearGradient id="linearGradient1019" x1="10.332" x2="14.459" y1="17.337" y2="24.486" gradientTransform="translate(.13824 .012087)" gradientUnits="userSpaceOnUse">
   <stop id="stop1013" stop-color="#fff" offset="0"/>
   <stop id="stop1015" stop-color="#fff" stop-opacity="0" offset="1"/>
  </linearGradient>
  <linearGradient id="linearGradient1021" x1="22.467" x2="22.467" y1="17.985" y2="20.053" gradientTransform="translate(.13824 .012087)" gradientUnits="userSpaceOnUse">
   <stop id="stop1023" stop-color="#fff" offset="0"/>
   <stop id="stop1025" stop-color="#bcb9c0" offset="1"/>
  </linearGradient>
  <radialGradient id="radialGradient3771-9" cx="24.249" cy="24.25" r="9.6332" gradientTransform="matrix(.90099 0 0 .90099 2.913 3.1153)" gradientUnits="userSpaceOnUse">
   <stop id="stop1444-0" offset="0"/>
   <stop id="stop1452-4" stop-opacity=".87843" offset=".59155"/>
   <stop id="stop3720" stop-opacity=".56471" offset=".64784"/>
   <stop id="stop3811" stop-opacity=".52549" offset=".6818"/>
   <stop id="stop3809" stop-opacity=".44314" offset=".7275"/>
   <stop id="stop3805" stop-opacity=".28627" offset=".79465"/>
   <stop id="stop3801" stop-opacity=".18431" offset=".84312"/>
   <stop id="stop3797" stop-opacity=".078431" offset=".90335"/>
   <stop id="stop3787" stop-opacity=".062745" offset=".91996"/>
   <stop id="stop3785" stop-opacity=".054902" offset=".93104"/>
   <stop id="stop3783" stop-opacity=".031373" offset=".95596"/>
   <stop id="stop3781" stop-opacity=".027451" offset=".96081"/>
   <stop id="stop3779" stop-opacity="0" offset=".99197"/>
   <stop id="stop1446-8" stop-opacity="0" offset="1"/>
  </radialGradient>
  <radialGradient id="radialGradient3815-1" cx="24.249" cy="24.25" r="9.6332" gradientTransform="matrix(1.0025 0 0 1.0025 -.21702 .034857)" gradientUnits="userSpaceOnUse">
   <stop id="stop5461" offset="0"/>
   <stop id="stop5463" stop-opacity=".78764" offset=".71616"/>
   <stop id="stop5515" stop-opacity=".67451" offset=".74621"/>
   <stop id="stop5517" stop-opacity=".61961" offset=".76305"/>
   <stop id="stop5513" stop-opacity=".5451" offset=".78595"/>
   <stop id="stop5509" stop-opacity=".48627" offset=".80683"/>
   <stop id="stop5505" stop-opacity=".29804" offset=".86207"/>
   <stop id="stop5503" stop-opacity=".18824" offset=".89036"/>
   <stop id="stop5495" stop-opacity=".082353" offset=".92404"/>
   <stop id="stop5493" stop-opacity=".043137" offset=".9429"/>
   <stop id="stop5481" stop-opacity=".031373" offset=".95596"/>
   <stop id="stop5483" stop-opacity=".027451" offset=".96081"/>
   <stop id="stop5485" stop-opacity="0" offset=".99197"/>
   <stop id="stop5487" stop-opacity="0" offset="1"/>
  </radialGradient>
  <linearGradient id="linearGradient2050" x1="43.569" x2="61.676" y1="5.8034" y2="25.448" gradientTransform="translate(-32.246 5.5004)" gradientUnits="userSpaceOnUse">
   <stop id="stop2044" stop-color="#bdc3c6" offset="0"/>
   <stop id="stop2046" stop-color="#fff" offset="1"/>
  </linearGradient>
 </defs>
 <metadata id="metadata1080">
  <rdf:RDF>
   <cc:Work rdf:about="">
    <dc:format>image/svg+xml</dc:format>
    <dc:type rdf:resource="http://purl.org/dc/dcmitype/StillImage"/>
    <dc:title/>
   </cc:Work>
  </rdf:RDF>
 </metadata>
 <g id="layer1">
  <g id="g1702" transform="matrix(.97573 0 0 .97573 -65.61 -37.191)" fill="none" opacity=".29676" stroke="#000" stroke-linecap="round" stroke-linejoin="round" stroke-opacity=".02">
   <rect id="rect1634" x="69.84" y="40.71" width="29.811" height="29.811" rx="6.6099" ry="6.6099" stroke-width=".1"/>
   <rect id="rect1638" x="69.84" y="40.71" width="29.811" height="29.811" rx="6.6099" ry="6.6099" stroke-width=".2"/>
   <rect id="rect1640" x="69.84" y="40.71" width="29.811" height="29.811" rx="6.6099" ry="6.6099" stroke-width=".3"/>
   <rect id="rect1642" x="69.84" y="40.71" width="29.811" height="29.811" rx="6.6099" ry="6.6099" stroke-width=".4"/>
   <rect id="rect1644" x="69.84" y="40.71" width="29.811" height="29.811" rx="6.6099" ry="6.6099" stroke-width=".5"/>
   <rect id="rect1646" x="69.84" y="40.71" width="29.811" height="29.811" rx="6.6099" ry="6.6099" stroke-width=".6"/>
   <rect id="rect1648" x="69.84" y="40.71" width="29.811" height="29.811" rx="6.6099" ry="6.6099" stroke-width=".7"/>
   <rect id="rect1650" x="69.84" y="40.71" width="29.811" height="29.811" rx="6.6099" ry="6.6099" stroke-width=".8"/>
   <rect id="rect1652" x="69.84" y="40.71" width="29.811" height="29.811" rx="6.6099" ry="6.6099"/>
   <rect id="rect1654" x="69.84" y="40.71" width="29.811" height="29.811" rx="6.6099" ry="6.6099" stroke-width="1.2"/>
   <rect id="rect1656" x="69.84" y="40.71" width="29.811" height="29.811" rx="6.6099" ry="6.6099" stroke-width="1.4"/>
   <rect id="rect1658" x="69.84" y="40.71" width="29.811" height="29.811" rx="6.6099" ry="6.6099" stroke-width="1.6"/>
   <rect id="rect1660" x="69.84" y="40.71" width="29.811" height="29.811" rx="6.6099" ry="6.6099" stroke-width="1.8"/>
   <rect id="rect1662" x="69.84" y="40.71" width="29.811" height="29.811" rx="6.6099" ry="6.6099" stroke-width="2"/>
   <rect id="rect1664" x="69.84" y="40.71" width="29.811" height="29.811" rx="6.6099" ry="6.6099" stroke-width="2.2"/>
   <rect id="rect1666" x="69.84" y="40.71" width="29.811" height="29.811" rx="6.6099" ry="6.6099" stroke-width="2.6"/>
   <rect id="rect1668" x="69.84" y="40.71" width="29.811" height="29.811" rx="6.6099" ry="6.6099" stroke-width="3"/>
   <rect id="rect1670" x="69.84" y="40.71" width="29.811" height="29.811" rx="6.6099" ry="6.6099" stroke-width="3.4"/>
   <rect id="rect1672" x="69.84" y="40.71" width="29.811" height="29.811" rx="6.6099" ry="6.6099" stroke-width="3.8"/>
   <rect id="rect1674" x="69.84" y="40.71" width="29.811" height="29.811" rx="6.6099" ry="6.6099" stroke-width="4.2"/>
   <rect id="rect1676" x="69.84" y="40.71" width="29.811" height="29.811" rx="6.6099" ry="6.6099" stroke-width="4.6"/>
   <rect id="rect1678" x="69.84" y="40.71" width="29.811" height="29.811" rx="6.6099" ry="6.6099" stroke-width="5"/>
  </g>
  <rect id="rect849" x="2.5448" y="2.5307" width="29.087" height="29.087" rx="6.4495" ry="6.4495" fill="url(#radialGradient999)" stroke-linecap="round" stroke-linejoin="round" stroke-width="2.6877"/>
  <path id="path1009" d="m11.154 11.812c-0.27431 0.0074-0.5257 0.15481-0.66602 0.39062-0.22518 0.37973-0.10018 0.8701 0.2793 1.0957l5.1309 3.043-5.1133 2.8711c-0.38589 0.21607-0.52325 0.70426-0.30664 1.0898 0.21675 0.38518 0.70477 0.52161 1.0898 0.30469l6.3203-3.5488c0.53622-0.30137 0.25084-1.6882-0.27756-2.0031l-6.4568-3.243c-0.12986-0.0769 0.15086-0.0042 0 0z" color="#000000" color-rendering="auto" dominant-baseline="auto" fill-opacity=".14093" image-rendering="auto" shape-rendering="auto" solid-color="#000000" stop-color="#000000" style="font-feature-settings:normal;font-variant-alternates:normal;font-variant-caps:normal;font-variant-east-asian:normal;font-variant-ligatures:normal;font-variant-numeric:normal;font-variant-position:normal;font-variation-settings:normal;inline-size:0;isolation:auto;mix-blend-mode:normal;shape-margin:0;shape-padding:0;text-decoration-color:#000000;text-decoration-line:none;text-decoration-style:solid;text-indent:0;text-orientation:mixed;text-transform:none;white-space:normal"/>
  <path id="path1003" d="m10.039 10.745a0.8 0.8 0 0 0-0.66602 0.39062 0.8 0.8 0 0 0 0.2793 1.0957l5.1309 3.043-5.1133 2.8711a0.8 0.8 0 0 0-0.30664 1.0898 0.8 0.8 0 0 0 1.0898 0.30469l6.3203-3.5488a0.80008 0.80008 0 0 0 0.01758-1.3848l-6.3223-3.75a0.8 0.8 0 0 0-0.42969-0.11133z" color="#000000" color-rendering="auto" dominant-baseline="auto" fill="url(#linearGradient1019)" image-rendering="auto" shape-rendering="auto" solid-color="#000000" stop-color="#000000" style="font-feature-settings:normal;font-variant-alternates:normal;font-variant-caps:normal;font-variant-east-asian:normal;font-variant-ligatures:normal;font-variant-numeric:normal;font-variant-position:normal;font-variation-settings:normal;inline-size:0;isolation:auto;mix-blend-mode:normal;shape-margin:0;shape-padding:0;text-decoration-color:#000000;text-decoration-line:none;text-decoration-style:solid;text-indent:0;text-orientation:mixed;text-transform:none;white-space:normal"/>
  <path id="path1011" d="m19.87 18.578c-0.49736-2.16e-4 -0.90061 0.40303-0.90039 0.90039-2.16e-4 0.49736 0.40303 1.6419 0.90039 1.6417h5.9746c0.49736 2.16e-4 0.90061-1.1443 0.90039-1.6417 2.17e-4 -0.49736-0.40303-0.90061-0.90039-0.90039z" color="#000000" color-rendering="auto" dominant-baseline="auto" fill-opacity=".14093" image-rendering="auto" shape-rendering="auto" solid-color="#000000" stop-color="#000000" style="font-feature-settings:normal;font-variant-alternates:normal;font-variant-caps:normal;font-variant-east-asian:normal;font-variant-ligatures:normal;font-variant-numeric:normal;font-variant-position:normal;font-variation-settings:normal;inline-size:0;isolation:auto;mix-blend-mode:normal;shape-margin:0;shape-padding:0;text-decoration-color:#000000;text-decoration-line:none;text-decoration-style:solid;text-indent:0;text-orientation:mixed;text-transform:none;white-space:normal"/>
  <path id="path1007" d="m18.568 18.11a0.9 0.9 0 0 0-0.90039 0.90039 0.9 0.9 0 0 0 0.90039 0.90039h5.9746a0.9 0.9 0 0 0 0.90039-0.90039 0.9 0.9 0 0 0-0.90039-0.90039z" color="#000000" color-rendering="auto" dominant-baseline="auto" fill="url(#linearGradient1021)" image-rendering="auto" shape-rendering="auto" solid-color="#000000" stop-color="#000000" style="font-feature-settings:normal;font-variant-alternates:normal;font-variant-caps:normal;font-variant-east-asian:normal;font-variant-ligatures:normal;font-variant-numeric:normal;font-variant-position:normal;font-variation-settings:normal;inline-size:0;isolation:auto;mix-blend-mode:normal;shape-margin:0;shape-padding:0;text-decoration-color:#000000;text-decoration-line:none;text-decoration-style:solid;text-indent:0;text-orientation:mixed;text-transform:none;white-space:normal"/>
  <path id="path3767-8" d="m24.761 16.285a8.6794 8.6794 0 0 0-8.6793 8.6793 8.6794 8.6794 0 0 0 8.6793 8.6795 8.6794 8.6794 0 0 0 8.6795-8.6795 8.6794 8.6794 0 0 0-8.6795-8.6793z" fill="url(#radialGradient3771-9)" stroke-width="2.0503"/>
  <path id="path3813-6" d="m24.093 14.688a9.6575 9.6575 0 0 0-9.6573 9.6573 9.6575 9.6575 0 0 0 9.6573 9.6575 9.6575 9.6575 0 0 0 9.6575-9.6575 9.6575 9.6575 0 0 0-9.6575-9.6573z" fill="url(#radialGradient3815-1)" opacity=".172" stroke-width="2.2813"/>
  <path id="circle2973-0-2-9" d="m32.451 24.333a7.6912 7.6912 0 0 1-7.6912 7.6912 7.6912 7.6912 0 0 1-7.6912-7.6912 7.6912 7.6912 0 0 1 7.6912-7.6912 7.6912 7.6912 0 0 1 7.6912 7.6912z" fill="url(#linearGradient2050)" stroke-width="1.938"/>
  <path id="rect916-1-7-0" d="m24.516 19.621c-0.10256 0-0.18513 0.0826-0.18513 0.18513v0.93046a3.6268 3.6268 0 0 0-0.998 0.26673l-0.46489-0.80533c-0.05128-0.0888-0.16419-0.11881-0.25301-0.0675l-0.42272 0.24375c-0.08882 0.0513-0.11882 0.1642-0.06754 0.25302l0.46489 0.80498a3.6268 3.6268 0 0 0-0.73024 0.73126l-0.80566-0.46523c-0.08882-0.0513-0.20139-0.0213-0.25267 0.0675l-0.2441 0.42272c-0.05128 0.0888-0.02128 0.20172 0.06754 0.25301l0.80258 0.46351a3.6268 3.6268 0 0 0-0.2657 0.99903h-0.92874c-0.10256 0-0.18513 0.0826-0.18513 0.18513v0.4882c0 0.10255 0.08257 0.18512 0.18513 0.18512h0.93046a3.6268 3.6268 0 0 0 0.26707 0.99766l-0.80566 0.46523c-0.08882 0.0513-0.11882 0.16385-0.06754 0.25267l0.2441 0.42272c0.05128 0.0888 0.16385 0.11916 0.25267 0.0679l0.80532-0.46489a3.6268 3.6268 0 0 0 0.73093 0.7299l-0.46523 0.80567c-0.05128 0.0888-0.02128 0.20173 0.06754 0.25301l0.42272 0.24409c0.08882 0.0513 0.20173 0.021 0.25301-0.0679l0.46317-0.80258a3.6268 3.6268 0 0 0 0.99971 0.26604v0.9284c0 0.10256 0.08257 0.18513 0.18513 0.18513h0.48786c0.10256 0 0.18513-0.0826 0.18513-0.18513v-0.93046a3.6268 3.6268 0 0 0 0.998-0.26672l0.46489 0.80532c0.05128 0.0888 0.16419 0.11916 0.25301 0.0679l0.42237-0.24409c0.08882-0.0513 0.11916-0.16419 0.06788-0.25301l-0.46489-0.80498a3.6268 3.6268 0 0 0 0.73024-0.73093l0.80566 0.46523c0.08882 0.0513 0.20139 0.021 0.25267-0.0679l0.2441-0.42272c0.05128-0.0888 0.02093-0.20139-0.06788-0.25267l-0.80258-0.46317a3.6268 3.6268 0 0 0 0.26604-0.99972h0.92874c0.10256 0 0.18513-0.0826 0.18513-0.18512v-0.4882c0-0.10256-0.08257-0.18513-0.18513-0.18513h-0.93046a3.6268 3.6268 0 0 0-0.26707-0.99766l0.80532-0.46488c0.08882-0.0513 0.11916-0.1642 0.06788-0.25301l-0.2441-0.42272c-0.05128-0.0888-0.16385-0.11882-0.25267-0.0675l-0.80498 0.4649a3.6268 3.6268 0 0 0-0.73127-0.73025l0.46523-0.80566c0.05128-0.0888 0.02093-0.20173-0.06788-0.25302l-0.42237-0.24375c-0.08882-0.0513-0.20174-0.0213-0.25301 0.0675l-0.46317 0.80259a3.6268 3.6268 0 0 0-0.99971-0.26605v-0.9284c0-0.10256-0.08257-0.18513-0.18513-0.18513zm0.24376 2.6926a2.0196 2.0196 0 0 1 2.0196 2.0196 2.0196 2.0196 0 0 1-2.0196 2.0196 2.0196 2.0196 0 0 1-2.0193-2.0196 2.0196 2.0196 0 0 1 2.0193-2.0196z" fill="#1e5a7a" style="paint-order:fill markers stroke"/>
 </g>
</svg>
