<?xml version="1.0" encoding="UTF-8"?>
<svg width="128" height="128" viewBox="0 0 33.867 33.867" xmlns="http://www.w3.org/2000/svg" xmlns:xlink="http://www.w3.org/1999/xlink">
 <defs>
  <linearGradient id="g" x1="26.02" x2="7.86" y1="7.046" y2="28.024" gradientTransform="translate(-.025 .006)" gradientUnits="userSpaceOnUse">
   <stop stop-color="#4a5055" offset="0"/>
   <stop stop-color="#17191b" offset="1"/>
  </linearGradient>
  <linearGradient id="c">
   <stop stop-color="#fff" offset="0"/>
   <stop stop-color="#fff" stop-opacity=".44015" offset=".884"/>
   <stop stop-color="#fff" stop-opacity=".16863" offset=".944"/>
   <stop stop-color="#fff" stop-opacity=".054902" offset=".97"/>
   <stop stop-color="#fff" stop-opacity=".027451" offset=".977"/>
   <stop stop-color="#fff" stop-opacity=".0078431" offset=".984"/>
   <stop stop-color="#fff" stop-opacity="0" offset=".993"/>
   <stop stop-color="#fff" stop-opacity="0" offset="1"/>
  </linearGradient>
  <linearGradient id="i" x1="-20.445" x2="-24.487" y1="-21.247" y2="-18.081" gradientUnits="userSpaceOnUse" xlink:href="#b"/>
  <linearGradient id="b">
   <stop stop-color="#252525" offset="0"/>
   <stop stop-color="#747474" offset="1"/>
  </linearGradient>
  <linearGradient id="k" x1="-22.981" x2="-20.51" y1="-17.65" y2="-20.12" gradientUnits="userSpaceOnUse" xlink:href="#b"/>
  <linearGradient id="d">
   <stop stop-opacity="0" offset="0"/>
   <stop stop-opacity="0" offset=".6"/>
   <stop stop-opacity=".19608" offset="1"/>
  </linearGradient>
  <linearGradient id="e">
   <stop offset="0"/>
   <stop stop-opacity=".78764" offset=".716"/>
   <stop stop-opacity=".67451" offset=".746"/>
   <stop stop-opacity=".61961" offset=".763"/>
   <stop stop-opacity=".5451" offset=".786"/>
   <stop stop-opacity=".48627" offset=".807"/>
   <stop stop-opacity=".29804" offset=".862"/>
   <stop stop-opacity=".18824" offset=".89"/>
   <stop stop-opacity=".082353" offset=".924"/>
   <stop stop-opacity=".043137" offset=".943"/>
   <stop stop-opacity=".031373" offset=".956"/>
   <stop stop-opacity=".027451" offset=".961"/>
   <stop stop-opacity="0" offset=".992"/>
   <stop stop-opacity="0" offset="1"/>
  </linearGradient>
  <linearGradient id="f">
   <stop stop-color="#2e2e2e" offset="0"/>
   <stop stop-color="#2e2e2e" stop-opacity=".85882" offset=".135"/>
   <stop stop-color="#2e2e2e" stop-opacity=".81176" offset=".179"/>
   <stop stop-color="#2e2e2e" stop-opacity=".76078" offset=".232"/>
   <stop stop-color="#2e2e2e" stop-opacity=".70588" offset=".287"/>
   <stop stop-color="#2e2e2e" stop-opacity=".66667" offset=".327"/>
   <stop stop-color="#e5e5e5" stop-opacity=".61176" offset=".383"/>
   <stop stop-color="#2e2e2e" stop-opacity=".56863" offset=".421"/>
   <stop stop-color="#2e2e2e" stop-opacity=".54902" offset=".443"/>
   <stop stop-color="#2e2e2e" stop-opacity=".4902" offset=".504"/>
   <stop stop-color="#2e2e2e" stop-opacity=".45098" offset=".541"/>
   <stop stop-color="#dbdbdb" stop-opacity=".41961" offset=".573"/>
   <stop stop-color="#2e2e2e" stop-opacity=".38431" offset=".609"/>
   <stop stop-color="#2e2e2e" stop-opacity=".35686" offset=".639"/>
   <stop stop-color="#2e2e2e" stop-opacity=".3098" offset=".686"/>
   <stop stop-color="#2e2e2e" stop-opacity=".25098" offset=".746"/>
   <stop stop-color="#e5e5e5" stop-opacity=".21961" offset=".774"/>
   <stop stop-color="#2e2e2e" stop-opacity=".18824" offset=".806"/>
   <stop stop-color="#2e2e2e" stop-opacity=".16863" offset=".828"/>
   <stop stop-color="#ccc" stop-opacity=".12157" offset=".873"/>
   <stop stop-color="#2e2e2e" stop-opacity=".094118" offset=".905"/>
   <stop stop-color="#2e2e2e" stop-opacity=".054902" offset=".941"/>
   <stop stop-color="#2e2e2e" stop-opacity="0" offset="1"/>
  </linearGradient>
  <radialGradient id="h" cx="-22.537" cy="-19.381" r="3.152" gradientTransform="translate(.438 .785) scale(1.0179)" gradientUnits="userSpaceOnUse" xlink:href="#c"/>
  <radialGradient id="p" cx="10.856" cy="17.245" r="1.756" gradientTransform="translate(12.283 1.55)" gradientUnits="userSpaceOnUse" xlink:href="#d"/>
  <radialGradient id="q" cx="10.856" cy="17.245" r="1.756" gradientTransform="translate(-.38 1.318)" gradientUnits="userSpaceOnUse" xlink:href="#d"/>
  <radialGradient id="r" cx="24.249" cy="24.25" r="9.633" gradientTransform="translate(18.97 -5.156) scale(2.9131)" gradientUnits="userSpaceOnUse" xlink:href="#e"/>
  <radialGradient id="s" cx="24.249" cy="24.25" r="9.633" gradientTransform="translate(-7.699 -1.075) scale(.77075)" gradientUnits="userSpaceOnUse" xlink:href="#e"/>
  <radialGradient id="t" cx="100.05" cy="-16.228" r="29.308" gradientTransform="scale(3.7795)" gradientUnits="userSpaceOnUse" xlink:href="#f"/>
 </defs>
 <g transform="translate(-65.774 -37.197) scale(.97573)" fill="none" opacity=".29676" stroke="#000" stroke-linecap="round" stroke-linejoin="round" stroke-opacity=".02">
  <rect x="69.84" y="40.71" width="29.811" height="29.811" rx="6.61" ry="6.61" stroke-width=".1"/>
  <rect x="69.84" y="40.71" width="29.811" height="29.811" rx="6.61" ry="6.61" stroke-width=".2"/>
  <rect x="69.84" y="40.71" width="29.811" height="29.811" rx="6.61" ry="6.61" stroke-width=".3"/>
  <rect x="69.84" y="40.71" width="29.811" height="29.811" rx="6.61" ry="6.61" stroke-width=".4"/>
  <rect x="69.84" y="40.71" width="29.811" height="29.811" rx="6.61" ry="6.61" stroke-width=".5"/>
  <rect x="69.84" y="40.71" width="29.811" height="29.811" rx="6.61" ry="6.61" stroke-width=".6"/>
  <rect x="69.84" y="40.71" width="29.811" height="29.811" rx="6.61" ry="6.61" stroke-width=".7"/>
  <rect x="69.84" y="40.71" width="29.811" height="29.811" rx="6.61" ry="6.61" stroke-width=".8"/>
  <rect x="69.84" y="40.71" width="29.811" height="29.811" rx="6.61" ry="6.61"/>
  <rect x="69.84" y="40.71" width="29.811" height="29.811" rx="6.61" ry="6.61" stroke-width="1.2"/>
  <rect x="69.84" y="40.71" width="29.811" height="29.811" rx="6.61" ry="6.61" stroke-width="1.4"/>
  <rect x="69.84" y="40.71" width="29.811" height="29.811" rx="6.61" ry="6.61" stroke-width="1.6"/>
  <rect x="69.84" y="40.71" width="29.811" height="29.811" rx="6.61" ry="6.61" stroke-width="1.8"/>
  <rect x="69.84" y="40.71" width="29.811" height="29.811" rx="6.61" ry="6.61" stroke-width="2"/>
  <rect x="69.84" y="40.71" width="29.811" height="29.811" rx="6.61" ry="6.61" stroke-width="2.2"/>
  <rect x="69.84" y="40.71" width="29.811" height="29.811" rx="6.61" ry="6.61" stroke-width="2.6"/>
  <rect x="69.84" y="40.71" width="29.811" height="29.811" rx="6.61" ry="6.61" stroke-width="3"/>
  <rect x="69.84" y="40.71" width="29.811" height="29.811" rx="6.61" ry="6.61" stroke-width="3.4"/>
  <rect x="69.84" y="40.71" width="29.811" height="29.811" rx="6.61" ry="6.61" stroke-width="3.8"/>
  <rect x="69.84" y="40.71" width="29.811" height="29.811" rx="6.61" ry="6.61" stroke-width="4.2"/>
  <rect x="69.84" y="40.71" width="29.811" height="29.811" rx="6.61" ry="6.61" stroke-width="4.6"/>
  <rect x="69.84" y="40.71" width="29.811" height="29.811" rx="6.61" ry="6.61" stroke-width="5"/>
 </g>
 <rect x="2.371" y="2.524" width="29.087" height="29.087" rx="6.449" ry="6.449" fill="url(#g)" stroke-linecap="round" stroke-linejoin="round" stroke-width="2.6877"/>
 <g transform="translate(34.646 11.462) scale(.3008)">
  <path d="m-22.503-22.152a3.211 3.211 0 0 0-3.209 3.209 3.211 3.211 0 0 0 3.209 3.209 3.211 3.211 0 0 0 3.209-3.21 3.211 3.211 0 0 0-3.21-3.208z" color-rendering="auto" dominant-baseline="auto" fill="url(#h)" image-rendering="auto" shape-rendering="auto" style="font-feature-settings:normal;font-variant-alternates:normal;font-variant-caps:normal;font-variant-ligatures:normal;font-variant-numeric:normal;font-variant-position:normal;isolation:auto;mix-blend-mode:normal;shape-padding:0;text-decoration-color:#000;text-decoration-line:none;text-decoration-style:solid;text-indent:0;text-orientation:mixed;text-transform:none;white-space:normal"/>
  <circle cx="-22.537" cy="-19.381" r="2.953" fill="url(#i)" stroke="#1b1a1a" stroke-linecap="round" stroke-linejoin="round" stroke-width=".4"/>
 </g>
 <path transform="translate(20.132 3.607) scale(.3008)" d="M25.048 5.02a.197.197 0 0 0-.074.025l-.357.206a.195.195 0 0 0-.072.267l.622 1.077-1.077.622a.195.195 0 0 0-.071.267l.206.357a.195.195 0 0 0 .267.072l1.077-.622.621 1.076a.195.195 0 0 0 .268.072l.357-.206a.195.195 0 0 0 .07-.267l-.62-1.077 1.076-.622a.195.195 0 0 0 .071-.266l-.205-.358a.195.195 0 0 0-.267-.071l-1.077.621-.622-1.076a.195.195 0 0 0-.193-.097z" fill-opacity=".71042"/>
 <g transform="translate(12.827 11.462) scale(.3008)">
  <path d="m-22.503-22.152a3.211 3.211 0 0 0-3.209 3.209 3.211 3.211 0 0 0 3.209 3.209 3.211 3.211 0 0 0 3.209-3.21 3.211 3.211 0 0 0-3.21-3.208z" color-rendering="auto" dominant-baseline="auto" fill="url(#h)" image-rendering="auto" shape-rendering="auto" style="font-feature-settings:normal;font-variant-alternates:normal;font-variant-caps:normal;font-variant-ligatures:normal;font-variant-numeric:normal;font-variant-position:normal;isolation:auto;mix-blend-mode:normal;shape-padding:0;text-decoration-color:#000;text-decoration-line:none;text-decoration-style:solid;text-indent:0;text-orientation:mixed;text-transform:none;white-space:normal"/>
  <circle cx="-22.537" cy="-19.381" r="2.953" fill="url(#k)" stroke="#1b1a1a" stroke-linecap="round" stroke-linejoin="round" stroke-width=".4"/>
 </g>
 <path transform="translate(-1.686 3.607) scale(.3008)" d="M25.048 5.02a.197.197 0 0 0-.074.025l-.357.206a.195.195 0 0 0-.072.267l.622 1.077-1.077.622a.195.195 0 0 0-.071.267l.206.357a.195.195 0 0 0 .267.072l1.077-.622.621 1.076a.195.195 0 0 0 .268.072l.357-.206a.195.195 0 0 0 .07-.267l-.62-1.077 1.076-.622a.195.195 0 0 0 .071-.266l-.205-.358a.195.195 0 0 0-.267-.071l-1.077.621-.622-1.076a.195.195 0 0 0-.193-.097z" fill-opacity=".71042"/>
 <g transform="translate(34.646 33.564) scale(.3008)">
  <path d="m-22.503-22.152a3.211 3.211 0 0 0-3.209 3.209 3.211 3.211 0 0 0 3.209 3.209 3.211 3.211 0 0 0 3.209-3.21 3.211 3.211 0 0 0-3.21-3.208z" color-rendering="auto" dominant-baseline="auto" fill="url(#h)" image-rendering="auto" shape-rendering="auto" style="font-feature-settings:normal;font-variant-alternates:normal;font-variant-caps:normal;font-variant-ligatures:normal;font-variant-numeric:normal;font-variant-position:normal;isolation:auto;mix-blend-mode:normal;shape-padding:0;text-decoration-color:#000;text-decoration-line:none;text-decoration-style:solid;text-indent:0;text-orientation:mixed;text-transform:none;white-space:normal"/>
  <circle cx="-22.537" cy="-19.381" r="2.953" fill="url(#i)" stroke="#1b1a1a" stroke-linecap="round" stroke-linejoin="round" stroke-width=".4"/>
 </g>
 <path transform="translate(20.132 25.71) scale(.3008)" d="M25.048 5.02a.197.197 0 0 0-.074.025l-.357.206a.195.195 0 0 0-.072.267l.622 1.077-1.077.622a.195.195 0 0 0-.071.267l.206.357a.195.195 0 0 0 .267.072l1.077-.622.621 1.076a.195.195 0 0 0 .268.072l.357-.206a.195.195 0 0 0 .07-.267l-.62-1.077 1.076-.622a.195.195 0 0 0 .071-.266l-.205-.358a.195.195 0 0 0-.267-.071l-1.077.621-.622-1.076a.195.195 0 0 0-.193-.097z" fill-opacity=".71042"/>
 <g transform="translate(12.827 33.564) scale(.3008)">
  <path d="m-22.503-22.152a3.211 3.211 0 0 0-3.209 3.209 3.211 3.211 0 0 0 3.209 3.209 3.211 3.211 0 0 0 3.209-3.21 3.211 3.211 0 0 0-3.21-3.208z" color-rendering="auto" dominant-baseline="auto" fill="url(#h)" image-rendering="auto" shape-rendering="auto" style="font-feature-settings:normal;font-variant-alternates:normal;font-variant-caps:normal;font-variant-ligatures:normal;font-variant-numeric:normal;font-variant-position:normal;isolation:auto;mix-blend-mode:normal;shape-padding:0;text-decoration-color:#000;text-decoration-line:none;text-decoration-style:solid;text-indent:0;text-orientation:mixed;text-transform:none;white-space:normal"/>
  <circle cx="-22.537" cy="-19.381" r="2.953" fill="url(#k)" stroke="#1b1a1a" stroke-linecap="round" stroke-linejoin="round" stroke-width=".4"/>
 </g>
 <path transform="translate(-1.686 25.71) scale(.3008)" d="M25.048 5.02a.197.197 0 0 0-.074.025l-.357.206a.195.195 0 0 0-.072.267l.622 1.077-1.077.622a.195.195 0 0 0-.071.267l.206.357a.195.195 0 0 0 .267.072l1.077-.622.621 1.076a.195.195 0 0 0 .268.072l.357-.206a.195.195 0 0 0 .07-.267l-.62-1.077 1.076-.622a.195.195 0 0 0 .071-.266l-.205-.358a.195.195 0 0 0-.267-.071l-1.077.621-.622-1.076a.195.195 0 0 0-.193-.097z" fill-opacity=".71042"/>
 <rect x="4.587" y="12.018" width="25.118" height="11.313" rx=".239" ry=".239" fill="#f3f3f3" fill-opacity=".96196"/>
 <circle cx="23.14" cy="18.796" r="1.756" fill="url(#p)"/>
 <circle cx="10.476" cy="18.564" r="1.756" fill="url(#q)"/>
 <path transform="translate(-.38 1.567) scale(.26458)" d="m89.61 37.422a28.062 28.062 0 0 0-28.063 28.062 28.062 28.062 0 0 0 28.062 28.063 28.062 28.062 0 0 0 28.06-28.063 28.062 28.062 0 0 0-28.06-28.062zm-1.243 17.476a10.05 10.05 0 0 1 10.051 10.05 10.05 10.05 0 0 1-10.05 10.05 10.05 10.05 0 0 1-10.052-10.05 10.05 10.05 0 0 1 10.051-10.05z" fill="url(#r)" stroke-width="6.6289"/>
 <path transform="translate(-.38 1.567)" d="M10.991 10.19a7.425 7.425 0 0 0-7.425 7.425 7.425 7.425 0 0 0 7.425 7.425 7.425 7.425 0 0 0 7.425-7.425 7.425 7.425 0 0 0-7.425-7.425zm-.328 4.624a2.66 2.66 0 0 1 2.659 2.659 2.66 2.66 0 0 1-2.66 2.66 2.66 2.66 0 0 1-2.659-2.66 2.66 2.66 0 0 1 2.66-2.659z" fill="url(#s)" stroke-width="1.7539"/>
 <path transform="translate(2.25 22.195) scale(.05544)" d="m378.13-170.21a108.88 108.88 0 0 0-108.88 108.88 108.88 108.88 0 0 0 108.88 108.88 108.88 108.88 0 0 0 108.88-108.88 108.88 108.88 0 0 0-108.88-108.88zm-2.852 65.348a42.667 42.667 0 0 1 42.666 42.665 42.667 42.667 0 0 1-42.666 42.668 42.667 42.667 0 0 1-42.666-42.668 42.667 42.667 0 0 1 42.666-42.666z" fill="#2e2e2e"/>
 <path transform="translate(2.25 22.195) scale(.05544)" d="m378.13-170.21a108.88 108.88 0 0 0-108.88 108.88 108.88 108.88 0 0 0 108.88 108.88 108.88 108.88 0 0 0 108.88-108.88 108.88 108.88 0 0 0-108.88-108.88zm-0.955 68.762a41.15 41.15 0 0 1 41.148 41.148 41.15 41.15 0 0 1-41.148 41.15 41.15 41.15 0 0 1-41.15-41.15 41.15 41.15 0 0 1 41.15-41.148z" fill="url(#t)" opacity=".301" stroke="#1b1a1a" stroke-linecap="round" stroke-linejoin="round" stroke-width="3.7795"/>
 <path transform="translate(19.912 23.18) scale(.20953)" d="M15.753-34.449A13.517 13.517 0 0 0 2.236-20.932 13.517 13.517 0 0 0 15.753-7.415 13.517 13.517 0 0 0 29.27-20.932a13.517 13.517 0 0 0-13.517-13.517Zm-.538 5.927v1.534a6.049 6.049 0 0 1 .585-.035 6.049 6.049 0 0 1 1.047.098v-1.528a7.727 7.727 0 0 1 3.949 1.79l-1.08 1.08a6.049 6.049 0 0 1 1.088 1.22l1.107-1.106a7.727 7.727 0 0 1 1.525 3.91h-1.621a6.049 6.049 0 0 1 .034.585 6.049 6.049 0 0 1-.097 1.047h1.671a7.727 7.727 0 0 1-1.575 3.847l-1.238-1.238a6.049 6.049 0 0 1-1.152 1.156l1.26 1.26a7.727 7.727 0 0 1-3.871 1.73v-1.845a6.049 6.049 0 0 1-1.047.092 6.049 6.049 0 0 1-.585-.029v1.84a7.727 7.727 0 0 1-4.116-1.543l1.31-1.31a6.049 6.049 0 0 1-1.213-1.095l-1.288 1.287a7.727 7.727 0 0 1-1.821-4.152h1.757a6.049 6.049 0 0 1-.092-1.047 6.049 6.049 0 0 1 .029-.585H8.063a7.727 7.727 0 0 1 1.774-4.224l1.153 1.153a6.049 6.049 0 0 1 1.153-1.155l-1.127-1.128a7.727 7.727 0 0 1 4.199-1.609z" fill="none" stroke="#1b1a1a" stroke-linecap="round" stroke-linejoin="round" stroke-opacity=".011765" stroke-width=".1"/>
 <path transform="translate(19.912 23.18) scale(.20953)" d="M15.753-34.449A13.517 13.517 0 0 0 2.236-20.932 13.517 13.517 0 0 0 15.753-7.415 13.517 13.517 0 0 0 29.27-20.932a13.517 13.517 0 0 0-13.517-13.517Zm-.538 5.927v1.534a6.049 6.049 0 0 1 .585-.035 6.049 6.049 0 0 1 1.047.098v-1.528a7.727 7.727 0 0 1 3.949 1.79l-1.08 1.08a6.049 6.049 0 0 1 1.088 1.22l1.107-1.106a7.727 7.727 0 0 1 1.525 3.91h-1.621a6.049 6.049 0 0 1 .034.585 6.049 6.049 0 0 1-.097 1.047h1.671a7.727 7.727 0 0 1-1.575 3.847l-1.238-1.238a6.049 6.049 0 0 1-1.152 1.156l1.26 1.26a7.727 7.727 0 0 1-3.871 1.73v-1.845a6.049 6.049 0 0 1-1.047.092 6.049 6.049 0 0 1-.585-.029v1.84a7.727 7.727 0 0 1-4.116-1.543l1.31-1.31a6.049 6.049 0 0 1-1.213-1.095l-1.288 1.287a7.727 7.727 0 0 1-1.821-4.152h1.757a6.049 6.049 0 0 1-.092-1.047 6.049 6.049 0 0 1 .029-.585H8.063a7.727 7.727 0 0 1 1.774-4.224l1.153 1.153a6.049 6.049 0 0 1 1.153-1.155l-1.127-1.128a7.727 7.727 0 0 1 4.199-1.609z" fill="none" stroke="#1b1a1a" stroke-linecap="round" stroke-linejoin="round" stroke-opacity=".011765" stroke-width=".2"/>
 <path transform="translate(19.912 23.18) scale(.20953)" d="M15.753-34.449A13.517 13.517 0 0 0 2.236-20.932 13.517 13.517 0 0 0 15.753-7.415 13.517 13.517 0 0 0 29.27-20.932a13.517 13.517 0 0 0-13.517-13.517Zm-.538 5.927v1.534a6.049 6.049 0 0 1 .585-.035 6.049 6.049 0 0 1 1.047.098v-1.528a7.727 7.727 0 0 1 3.949 1.79l-1.08 1.08a6.049 6.049 0 0 1 1.088 1.22l1.107-1.106a7.727 7.727 0 0 1 1.525 3.91h-1.621a6.049 6.049 0 0 1 .034.585 6.049 6.049 0 0 1-.097 1.047h1.671a7.727 7.727 0 0 1-1.575 3.847l-1.238-1.238a6.049 6.049 0 0 1-1.152 1.156l1.26 1.26a7.727 7.727 0 0 1-3.871 1.73v-1.845a6.049 6.049 0 0 1-1.047.092 6.049 6.049 0 0 1-.585-.029v1.84a7.727 7.727 0 0 1-4.116-1.543l1.31-1.31a6.049 6.049 0 0 1-1.213-1.095l-1.288 1.287a7.727 7.727 0 0 1-1.821-4.152h1.757a6.049 6.049 0 0 1-.092-1.047 6.049 6.049 0 0 1 .029-.585H8.063a7.727 7.727 0 0 1 1.774-4.224l1.153 1.153a6.049 6.049 0 0 1 1.153-1.155l-1.127-1.128a7.727 7.727 0 0 1 4.199-1.609z" fill="none" stroke="#1b1a1a" stroke-linecap="round" stroke-linejoin="round" stroke-opacity=".011765" stroke-width=".3"/>
 <path transform="translate(19.912 23.18) scale(.20953)" d="M15.753-34.449A13.517 13.517 0 0 0 2.236-20.932 13.517 13.517 0 0 0 15.753-7.415 13.517 13.517 0 0 0 29.27-20.932a13.517 13.517 0 0 0-13.517-13.517Zm-.538 5.927v1.534a6.049 6.049 0 0 1 .585-.035 6.049 6.049 0 0 1 1.047.098v-1.528a7.727 7.727 0 0 1 3.949 1.79l-1.08 1.08a6.049 6.049 0 0 1 1.088 1.22l1.107-1.106a7.727 7.727 0 0 1 1.525 3.91h-1.621a6.049 6.049 0 0 1 .034.585 6.049 6.049 0 0 1-.097 1.047h1.671a7.727 7.727 0 0 1-1.575 3.847l-1.238-1.238a6.049 6.049 0 0 1-1.152 1.156l1.26 1.26a7.727 7.727 0 0 1-3.871 1.73v-1.845a6.049 6.049 0 0 1-1.047.092 6.049 6.049 0 0 1-.585-.029v1.84a7.727 7.727 0 0 1-4.116-1.543l1.31-1.31a6.049 6.049 0 0 1-1.213-1.095l-1.288 1.287a7.727 7.727 0 0 1-1.821-4.152h1.757a6.049 6.049 0 0 1-.092-1.047 6.049 6.049 0 0 1 .029-.585H8.063a7.727 7.727 0 0 1 1.774-4.224l1.153 1.153a6.049 6.049 0 0 1 1.153-1.155l-1.127-1.128a7.727 7.727 0 0 1 4.199-1.609z" fill="none" stroke="#1b1a1a" stroke-linecap="round" stroke-linejoin="round" stroke-opacity=".011765" stroke-width=".4"/>
 <path transform="translate(19.912 23.18) scale(.20953)" d="M15.753-34.449A13.517 13.517 0 0 0 2.236-20.932 13.517 13.517 0 0 0 15.753-7.415 13.517 13.517 0 0 0 29.27-20.932a13.517 13.517 0 0 0-13.517-13.517Zm-.538 5.927v1.534a6.049 6.049 0 0 1 .585-.035 6.049 6.049 0 0 1 1.047.098v-1.528a7.727 7.727 0 0 1 3.949 1.79l-1.08 1.08a6.049 6.049 0 0 1 1.088 1.22l1.107-1.106a7.727 7.727 0 0 1 1.525 3.91h-1.621a6.049 6.049 0 0 1 .034.585 6.049 6.049 0 0 1-.097 1.047h1.671a7.727 7.727 0 0 1-1.575 3.847l-1.238-1.238a6.049 6.049 0 0 1-1.152 1.156l1.26 1.26a7.727 7.727 0 0 1-3.871 1.73v-1.845a6.049 6.049 0 0 1-1.047.092 6.049 6.049 0 0 1-.585-.029v1.84a7.727 7.727 0 0 1-4.116-1.543l1.31-1.31a6.049 6.049 0 0 1-1.213-1.095l-1.288 1.287a7.727 7.727 0 0 1-1.821-4.152h1.757a6.049 6.049 0 0 1-.092-1.047 6.049 6.049 0 0 1 .029-.585H8.063a7.727 7.727 0 0 1 1.774-4.224l1.153 1.153a6.049 6.049 0 0 1 1.153-1.155l-1.127-1.128a7.727 7.727 0 0 1 4.199-1.609z" fill="none" stroke="#1b1a1a" stroke-linecap="round" stroke-linejoin="round" stroke-opacity=".011765" stroke-width=".5"/>
 <path transform="translate(19.912 23.18) scale(.20953)" d="M15.753-34.449A13.517 13.517 0 0 0 2.236-20.932 13.517 13.517 0 0 0 15.753-7.415 13.517 13.517 0 0 0 29.27-20.932a13.517 13.517 0 0 0-13.517-13.517Zm-.538 5.927v1.534a6.049 6.049 0 0 1 .585-.035 6.049 6.049 0 0 1 1.047.098v-1.528a7.727 7.727 0 0 1 3.949 1.79l-1.08 1.08a6.049 6.049 0 0 1 1.088 1.22l1.107-1.106a7.727 7.727 0 0 1 1.525 3.91h-1.621a6.049 6.049 0 0 1 .034.585 6.049 6.049 0 0 1-.097 1.047h1.671a7.727 7.727 0 0 1-1.575 3.847l-1.238-1.238a6.049 6.049 0 0 1-1.152 1.156l1.26 1.26a7.727 7.727 0 0 1-3.871 1.73v-1.845a6.049 6.049 0 0 1-1.047.092 6.049 6.049 0 0 1-.585-.029v1.84a7.727 7.727 0 0 1-4.116-1.543l1.31-1.31a6.049 6.049 0 0 1-1.213-1.095l-1.288 1.287a7.727 7.727 0 0 1-1.821-4.152h1.757a6.049 6.049 0 0 1-.092-1.047 6.049 6.049 0 0 1 .029-.585H8.063a7.727 7.727 0 0 1 1.774-4.224l1.153 1.153a6.049 6.049 0 0 1 1.153-1.155l-1.127-1.128a7.727 7.727 0 0 1 4.199-1.609z" fill="none" stroke="#1b1a1a" stroke-linecap="round" stroke-linejoin="round" stroke-opacity=".011765" stroke-width=".6"/>
 <path transform="translate(19.912 23.18) scale(.20953)" d="M15.753-34.449A13.517 13.517 0 0 0 2.236-20.932 13.517 13.517 0 0 0 15.753-7.415 13.517 13.517 0 0 0 29.27-20.932a13.517 13.517 0 0 0-13.517-13.517Zm-.538 5.927v1.534a6.049 6.049 0 0 1 .585-.035 6.049 6.049 0 0 1 1.047.098v-1.528a7.727 7.727 0 0 1 3.949 1.79l-1.08 1.08a6.049 6.049 0 0 1 1.088 1.22l1.107-1.106a7.727 7.727 0 0 1 1.525 3.91h-1.621a6.049 6.049 0 0 1 .034.585 6.049 6.049 0 0 1-.097 1.047h1.671a7.727 7.727 0 0 1-1.575 3.847l-1.238-1.238a6.049 6.049 0 0 1-1.152 1.156l1.26 1.26a7.727 7.727 0 0 1-3.871 1.73v-1.845a6.049 6.049 0 0 1-1.047.092 6.049 6.049 0 0 1-.585-.029v1.84a7.727 7.727 0 0 1-4.116-1.543l1.31-1.31a6.049 6.049 0 0 1-1.213-1.095l-1.288 1.287a7.727 7.727 0 0 1-1.821-4.152h1.757a6.049 6.049 0 0 1-.092-1.047 6.049 6.049 0 0 1 .029-.585H8.063a7.727 7.727 0 0 1 1.774-4.224l1.153 1.153a6.049 6.049 0 0 1 1.153-1.155l-1.127-1.128a7.727 7.727 0 0 1 4.199-1.609z" fill="none" stroke="#1b1a1a" stroke-linecap="round" stroke-linejoin="round" stroke-opacity=".011765" stroke-width=".7"/>
 <path transform="translate(19.912 23.18) scale(.20953)" d="M15.753-34.449A13.517 13.517 0 0 0 2.236-20.932 13.517 13.517 0 0 0 15.753-7.415 13.517 13.517 0 0 0 29.27-20.932a13.517 13.517 0 0 0-13.517-13.517Zm-.538 5.927v1.534a6.049 6.049 0 0 1 .585-.035 6.049 6.049 0 0 1 1.047.098v-1.528a7.727 7.727 0 0 1 3.949 1.79l-1.08 1.08a6.049 6.049 0 0 1 1.088 1.22l1.107-1.106a7.727 7.727 0 0 1 1.525 3.91h-1.621a6.049 6.049 0 0 1 .034.585 6.049 6.049 0 0 1-.097 1.047h1.671a7.727 7.727 0 0 1-1.575 3.847l-1.238-1.238a6.049 6.049 0 0 1-1.152 1.156l1.26 1.26a7.727 7.727 0 0 1-3.871 1.73v-1.845a6.049 6.049 0 0 1-1.047.092 6.049 6.049 0 0 1-.585-.029v1.84a7.727 7.727 0 0 1-4.116-1.543l1.31-1.31a6.049 6.049 0 0 1-1.213-1.095l-1.288 1.287a7.727 7.727 0 0 1-1.821-4.152h1.757a6.049 6.049 0 0 1-.092-1.047 6.049 6.049 0 0 1 .029-.585H8.063a7.727 7.727 0 0 1 1.774-4.224l1.153 1.153a6.049 6.049 0 0 1 1.153-1.155l-1.127-1.128a7.727 7.727 0 0 1 4.199-1.609z" fill="none" stroke="#1b1a1a" stroke-linecap="round" stroke-linejoin="round" stroke-opacity=".011765" stroke-width=".8"/>
 <path transform="translate(19.912 23.18) scale(.20953)" d="M15.753-34.449A13.517 13.517 0 0 0 2.236-20.932 13.517 13.517 0 0 0 15.753-7.415 13.517 13.517 0 0 0 29.27-20.932a13.517 13.517 0 0 0-13.517-13.517Zm-.538 5.927v1.534a6.049 6.049 0 0 1 .585-.035 6.049 6.049 0 0 1 1.047.098v-1.528a7.727 7.727 0 0 1 3.949 1.79l-1.08 1.08a6.049 6.049 0 0 1 1.088 1.22l1.107-1.106a7.727 7.727 0 0 1 1.525 3.91h-1.621a6.049 6.049 0 0 1 .034.585 6.049 6.049 0 0 1-.097 1.047h1.671a7.727 7.727 0 0 1-1.575 3.847l-1.238-1.238a6.049 6.049 0 0 1-1.152 1.156l1.26 1.26a7.727 7.727 0 0 1-3.871 1.73v-1.845a6.049 6.049 0 0 1-1.047.092 6.049 6.049 0 0 1-.585-.029v1.84a7.727 7.727 0 0 1-4.116-1.543l1.31-1.31a6.049 6.049 0 0 1-1.213-1.095l-1.288 1.287a7.727 7.727 0 0 1-1.821-4.152h1.757a6.049 6.049 0 0 1-.092-1.047 6.049 6.049 0 0 1 .029-.585H8.063a7.727 7.727 0 0 1 1.774-4.224l1.153 1.153a6.049 6.049 0 0 1 1.153-1.155l-1.127-1.128a7.727 7.727 0 0 1 4.199-1.609z" fill="none" stroke="#1b1a1a" stroke-linecap="round" stroke-linejoin="round" stroke-opacity=".011765" stroke-width=".9"/>
 <path transform="translate(19.912 23.18) scale(.20953)" d="M15.753-34.449A13.517 13.517 0 0 0 2.236-20.932 13.517 13.517 0 0 0 15.753-7.415 13.517 13.517 0 0 0 29.27-20.932a13.517 13.517 0 0 0-13.517-13.517Zm-.538 5.927v1.534a6.049 6.049 0 0 1 .585-.035 6.049 6.049 0 0 1 1.047.098v-1.528a7.727 7.727 0 0 1 3.949 1.79l-1.08 1.08a6.049 6.049 0 0 1 1.088 1.22l1.107-1.106a7.727 7.727 0 0 1 1.525 3.91h-1.621a6.049 6.049 0 0 1 .034.585 6.049 6.049 0 0 1-.097 1.047h1.671a7.727 7.727 0 0 1-1.575 3.847l-1.238-1.238a6.049 6.049 0 0 1-1.152 1.156l1.26 1.26a7.727 7.727 0 0 1-3.871 1.73v-1.845a6.049 6.049 0 0 1-1.047.092 6.049 6.049 0 0 1-.585-.029v1.84a7.727 7.727 0 0 1-4.116-1.543l1.31-1.31a6.049 6.049 0 0 1-1.213-1.095l-1.288 1.287a7.727 7.727 0 0 1-1.821-4.152h1.757a6.049 6.049 0 0 1-.092-1.047 6.049 6.049 0 0 1 .029-.585H8.063a7.727 7.727 0 0 1 1.774-4.224l1.153 1.153a6.049 6.049 0 0 1 1.153-1.155l-1.127-1.128a7.727 7.727 0 0 1 4.199-1.609z" fill="none" stroke="#1b1a1a" stroke-linecap="round" stroke-linejoin="round" stroke-opacity=".011765"/>
 <path transform="translate(19.912 23.18) scale(.20953)" d="M15.753-34.449A13.517 13.517 0 0 0 2.236-20.932 13.517 13.517 0 0 0 15.753-7.415 13.517 13.517 0 0 0 29.27-20.932a13.517 13.517 0 0 0-13.517-13.517Zm-.538 5.927v1.534a6.049 6.049 0 0 1 .585-.035 6.049 6.049 0 0 1 1.047.098v-1.528a7.727 7.727 0 0 1 3.949 1.79l-1.08 1.08a6.049 6.049 0 0 1 1.088 1.22l1.107-1.106a7.727 7.727 0 0 1 1.525 3.91h-1.621a6.049 6.049 0 0 1 .034.585 6.049 6.049 0 0 1-.097 1.047h1.671a7.727 7.727 0 0 1-1.575 3.847l-1.238-1.238a6.049 6.049 0 0 1-1.152 1.156l1.26 1.26a7.727 7.727 0 0 1-3.871 1.73v-1.845a6.049 6.049 0 0 1-1.047.092 6.049 6.049 0 0 1-.585-.029v1.84a7.727 7.727 0 0 1-4.116-1.543l1.31-1.31a6.049 6.049 0 0 1-1.213-1.095l-1.288 1.287a7.727 7.727 0 0 1-1.821-4.152h1.757a6.049 6.049 0 0 1-.092-1.047 6.049 6.049 0 0 1 .029-.585H8.063a7.727 7.727 0 0 1 1.774-4.224l1.153 1.153a6.049 6.049 0 0 1 1.153-1.155l-1.127-1.128a7.727 7.727 0 0 1 4.199-1.609z" fill="none" stroke="#1b1a1a" stroke-linecap="round" stroke-linejoin="round" stroke-opacity=".011765" stroke-width="1.2"/>
 <path transform="translate(19.912 23.18) scale(.20953)" d="M15.753-34.449A13.517 13.517 0 0 0 2.236-20.932 13.517 13.517 0 0 0 15.753-7.415 13.517 13.517 0 0 0 29.27-20.932a13.517 13.517 0 0 0-13.517-13.517Zm-.538 5.927v1.534a6.049 6.049 0 0 1 .585-.035 6.049 6.049 0 0 1 1.047.098v-1.528a7.727 7.727 0 0 1 3.949 1.79l-1.08 1.08a6.049 6.049 0 0 1 1.088 1.22l1.107-1.106a7.727 7.727 0 0 1 1.525 3.91h-1.621a6.049 6.049 0 0 1 .034.585 6.049 6.049 0 0 1-.097 1.047h1.671a7.727 7.727 0 0 1-1.575 3.847l-1.238-1.238a6.049 6.049 0 0 1-1.152 1.156l1.26 1.26a7.727 7.727 0 0 1-3.871 1.73v-1.845a6.049 6.049 0 0 1-1.047.092 6.049 6.049 0 0 1-.585-.029v1.84a7.727 7.727 0 0 1-4.116-1.543l1.31-1.31a6.049 6.049 0 0 1-1.213-1.095l-1.288 1.287a7.727 7.727 0 0 1-1.821-4.152h1.757a6.049 6.049 0 0 1-.092-1.047 6.049 6.049 0 0 1 .029-.585H8.063a7.727 7.727 0 0 1 1.774-4.224l1.153 1.153a6.049 6.049 0 0 1 1.153-1.155l-1.127-1.128a7.727 7.727 0 0 1 4.199-1.609z" fill="none" stroke="#1b1a1a" stroke-linecap="round" stroke-linejoin="round" stroke-opacity=".011765" stroke-width="1.4"/>
 <path transform="translate(19.912 23.18) scale(.20953)" d="M15.753-34.449A13.517 13.517 0 0 0 2.236-20.932 13.517 13.517 0 0 0 15.753-7.415 13.517 13.517 0 0 0 29.27-20.932a13.517 13.517 0 0 0-13.517-13.517Zm-.538 5.927v1.534a6.049 6.049 0 0 1 .585-.035 6.049 6.049 0 0 1 1.047.098v-1.528a7.727 7.727 0 0 1 3.949 1.79l-1.08 1.08a6.049 6.049 0 0 1 1.088 1.22l1.107-1.106a7.727 7.727 0 0 1 1.525 3.91h-1.621a6.049 6.049 0 0 1 .034.585 6.049 6.049 0 0 1-.097 1.047h1.671a7.727 7.727 0 0 1-1.575 3.847l-1.238-1.238a6.049 6.049 0 0 1-1.152 1.156l1.26 1.26a7.727 7.727 0 0 1-3.871 1.73v-1.845a6.049 6.049 0 0 1-1.047.092 6.049 6.049 0 0 1-.585-.029v1.84a7.727 7.727 0 0 1-4.116-1.543l1.31-1.31a6.049 6.049 0 0 1-1.213-1.095l-1.288 1.287a7.727 7.727 0 0 1-1.821-4.152h1.757a6.049 6.049 0 0 1-.092-1.047 6.049 6.049 0 0 1 .029-.585H8.063a7.727 7.727 0 0 1 1.774-4.224l1.153 1.153a6.049 6.049 0 0 1 1.153-1.155l-1.127-1.128a7.727 7.727 0 0 1 4.199-1.609z" fill="none" stroke="#1b1a1a" stroke-linecap="round" stroke-linejoin="round" stroke-opacity=".011765" stroke-width="1.6"/>
 <path transform="translate(19.912 23.18) scale(.20953)" d="M15.753-34.449A13.517 13.517 0 0 0 2.236-20.932 13.517 13.517 0 0 0 15.753-7.415 13.517 13.517 0 0 0 29.27-20.932a13.517 13.517 0 0 0-13.517-13.517Zm-.538 5.927v1.534a6.049 6.049 0 0 1 .585-.035 6.049 6.049 0 0 1 1.047.098v-1.528a7.727 7.727 0 0 1 3.949 1.79l-1.08 1.08a6.049 6.049 0 0 1 1.088 1.22l1.107-1.106a7.727 7.727 0 0 1 1.525 3.91h-1.621a6.049 6.049 0 0 1 .034.585 6.049 6.049 0 0 1-.097 1.047h1.671a7.727 7.727 0 0 1-1.575 3.847l-1.238-1.238a6.049 6.049 0 0 1-1.152 1.156l1.26 1.26a7.727 7.727 0 0 1-3.871 1.73v-1.845a6.049 6.049 0 0 1-1.047.092 6.049 6.049 0 0 1-.585-.029v1.84a7.727 7.727 0 0 1-4.116-1.543l1.31-1.31a6.049 6.049 0 0 1-1.213-1.095l-1.288 1.287a7.727 7.727 0 0 1-1.821-4.152h1.757a6.049 6.049 0 0 1-.092-1.047 6.049 6.049 0 0 1 .029-.585H8.063a7.727 7.727 0 0 1 1.774-4.224l1.153 1.153a6.049 6.049 0 0 1 1.153-1.155l-1.127-1.128a7.727 7.727 0 0 1 4.199-1.609z" fill="none" stroke="#1b1a1a" stroke-linecap="round" stroke-linejoin="round" stroke-opacity=".011765" stroke-width="1.8"/>
 <path transform="translate(19.912 23.18) scale(.20953)" d="M15.753-34.449A13.517 13.517 0 0 0 2.236-20.932 13.517 13.517 0 0 0 15.753-7.415 13.517 13.517 0 0 0 29.27-20.932a13.517 13.517 0 0 0-13.517-13.517Zm-.538 5.927v1.534a6.049 6.049 0 0 1 .585-.035 6.049 6.049 0 0 1 1.047.098v-1.528a7.727 7.727 0 0 1 3.949 1.79l-1.08 1.08a6.049 6.049 0 0 1 1.088 1.22l1.107-1.106a7.727 7.727 0 0 1 1.525 3.91h-1.621a6.049 6.049 0 0 1 .034.585 6.049 6.049 0 0 1-.097 1.047h1.671a7.727 7.727 0 0 1-1.575 3.847l-1.238-1.238a6.049 6.049 0 0 1-1.152 1.156l1.26 1.26a7.727 7.727 0 0 1-3.871 1.73v-1.845a6.049 6.049 0 0 1-1.047.092 6.049 6.049 0 0 1-.585-.029v1.84a7.727 7.727 0 0 1-4.116-1.543l1.31-1.31a6.049 6.049 0 0 1-1.213-1.095l-1.288 1.287a7.727 7.727 0 0 1-1.821-4.152h1.757a6.049 6.049 0 0 1-.092-1.047 6.049 6.049 0 0 1 .029-.585H8.063a7.727 7.727 0 0 1 1.774-4.224l1.153 1.153a6.049 6.049 0 0 1 1.153-1.155l-1.127-1.128a7.727 7.727 0 0 1 4.199-1.609z" fill="none" stroke="#1b1a1a" stroke-linecap="round" stroke-linejoin="round" stroke-opacity=".011765" stroke-width="2"/>
 <path transform="translate(2.323 21.963) scale(.20953)" d="M99.697-28.637A13.517 13.517 0 0 0 86.18-15.12 13.517 13.517 0 0 0 99.697-1.603a13.517 13.517 0 0 0 13.517-13.517 13.517 13.517 0 0 0-13.517-13.517Zm-.538 5.927v1.534a6.049 6.049 0 0 1 .586-.035 6.049 6.049 0 0 1 1.046.098v-1.528a7.727 7.727 0 0 1 3.95 1.79l-1.08 1.08a6.049 6.049 0 0 1 1.088 1.22l1.106-1.106a7.727 7.727 0 0 1 1.526 3.91h-1.621a6.049 6.049 0 0 1 .034.585 6.049 6.049 0 0 1-.097 1.047h1.67a7.727 7.727 0 0 1-1.574 3.847l-1.239-1.238a6.049 6.049 0 0 1-1.151 1.156l1.259 1.26a7.727 7.727 0 0 1-3.87 1.73v-1.845a6.049 6.049 0 0 1-1.047.092 6.049 6.049 0 0 1-.586-.029v1.84a7.727 7.727 0 0 1-4.115-1.543l1.31-1.31a6.049 6.049 0 0 1-1.214-1.095l-1.287 1.287a7.727 7.727 0 0 1-1.822-4.152h1.757a6.049 6.049 0 0 1-.092-1.047 6.049 6.049 0 0 1 .03-.585h-1.718a7.727 7.727 0 0 1 1.773-4.224l1.154 1.153a6.049 6.049 0 0 1 1.153-1.155l-1.128-1.128a7.727 7.727 0 0 1 4.2-1.609z" fill="#f3f3f3"/>
 <path transform="translate(-10.522 22.195) scale(.05544)" d="m378.13-170.21a108.88 108.88 0 0 0-108.88 108.88 108.88 108.88 0 0 0 108.88 108.88 108.88 108.88 0 0 0 108.88-108.88 108.88 108.88 0 0 0-108.88-108.88zm-2.852 65.348a42.667 42.667 0 0 1 42.666 42.665 42.667 42.667 0 0 1-42.666 42.668 42.667 42.667 0 0 1-42.666-42.668 42.667 42.667 0 0 1 42.666-42.666z" fill="#2e2e2e"/>
 <path transform="translate(-10.522 22.195) scale(.05544)" d="m378.13-170.21a108.88 108.88 0 0 0-108.88 108.88 108.88 108.88 0 0 0 108.88 108.88 108.88 108.88 0 0 0 108.88-108.88 108.88 108.88 0 0 0-108.88-108.88zm-0.955 68.762a41.15 41.15 0 0 1 41.148 41.148 41.15 41.15 0 0 1-41.148 41.15 41.15 41.15 0 0 1-41.15-41.15 41.15 41.15 0 0 1 41.15-41.148z" fill="url(#t)" opacity=".318" stroke="#1b1a1a" stroke-linecap="round" stroke-linejoin="round" stroke-width="3.7795"/>
 <path transform="translate(7.14 23.18) scale(.20953)" d="M15.753-34.449A13.517 13.517 0 0 0 2.236-20.932 13.517 13.517 0 0 0 15.753-7.415 13.517 13.517 0 0 0 29.27-20.932a13.517 13.517 0 0 0-13.517-13.517Zm-.538 5.927v1.534a6.049 6.049 0 0 1 .585-.035 6.049 6.049 0 0 1 1.047.098v-1.528a7.727 7.727 0 0 1 3.949 1.79l-1.08 1.08a6.049 6.049 0 0 1 1.088 1.22l1.107-1.106a7.727 7.727 0 0 1 1.525 3.91h-1.621a6.049 6.049 0 0 1 .034.585 6.049 6.049 0 0 1-.097 1.047h1.671a7.727 7.727 0 0 1-1.575 3.847l-1.238-1.238a6.049 6.049 0 0 1-1.152 1.156l1.26 1.26a7.727 7.727 0 0 1-3.871 1.73v-1.845a6.049 6.049 0 0 1-1.047.092 6.049 6.049 0 0 1-.585-.029v1.84a7.727 7.727 0 0 1-4.116-1.543l1.31-1.31a6.049 6.049 0 0 1-1.213-1.095l-1.288 1.287a7.727 7.727 0 0 1-1.821-4.152h1.757a6.049 6.049 0 0 1-.092-1.047 6.049 6.049 0 0 1 .029-.585H8.063a7.727 7.727 0 0 1 1.774-4.224l1.153 1.153a6.049 6.049 0 0 1 1.153-1.155l-1.127-1.128a7.727 7.727 0 0 1 4.199-1.609z" fill="none" stroke="#1b1a1a" stroke-linecap="round" stroke-linejoin="round" stroke-opacity=".011765" stroke-width=".1"/>
 <path transform="translate(7.14 23.18) scale(.20953)" d="M15.753-34.449A13.517 13.517 0 0 0 2.236-20.932 13.517 13.517 0 0 0 15.753-7.415 13.517 13.517 0 0 0 29.27-20.932a13.517 13.517 0 0 0-13.517-13.517Zm-.538 5.927v1.534a6.049 6.049 0 0 1 .585-.035 6.049 6.049 0 0 1 1.047.098v-1.528a7.727 7.727 0 0 1 3.949 1.79l-1.08 1.08a6.049 6.049 0 0 1 1.088 1.22l1.107-1.106a7.727 7.727 0 0 1 1.525 3.91h-1.621a6.049 6.049 0 0 1 .034.585 6.049 6.049 0 0 1-.097 1.047h1.671a7.727 7.727 0 0 1-1.575 3.847l-1.238-1.238a6.049 6.049 0 0 1-1.152 1.156l1.26 1.26a7.727 7.727 0 0 1-3.871 1.73v-1.845a6.049 6.049 0 0 1-1.047.092 6.049 6.049 0 0 1-.585-.029v1.84a7.727 7.727 0 0 1-4.116-1.543l1.31-1.31a6.049 6.049 0 0 1-1.213-1.095l-1.288 1.287a7.727 7.727 0 0 1-1.821-4.152h1.757a6.049 6.049 0 0 1-.092-1.047 6.049 6.049 0 0 1 .029-.585H8.063a7.727 7.727 0 0 1 1.774-4.224l1.153 1.153a6.049 6.049 0 0 1 1.153-1.155l-1.127-1.128a7.727 7.727 0 0 1 4.199-1.609z" fill="none" stroke="#1b1a1a" stroke-linecap="round" stroke-linejoin="round" stroke-opacity=".011765" stroke-width=".2"/>
 <path transform="translate(7.14 23.18) scale(.20953)" d="M15.753-34.449A13.517 13.517 0 0 0 2.236-20.932 13.517 13.517 0 0 0 15.753-7.415 13.517 13.517 0 0 0 29.27-20.932a13.517 13.517 0 0 0-13.517-13.517Zm-.538 5.927v1.534a6.049 6.049 0 0 1 .585-.035 6.049 6.049 0 0 1 1.047.098v-1.528a7.727 7.727 0 0 1 3.949 1.79l-1.08 1.08a6.049 6.049 0 0 1 1.088 1.22l1.107-1.106a7.727 7.727 0 0 1 1.525 3.91h-1.621a6.049 6.049 0 0 1 .034.585 6.049 6.049 0 0 1-.097 1.047h1.671a7.727 7.727 0 0 1-1.575 3.847l-1.238-1.238a6.049 6.049 0 0 1-1.152 1.156l1.26 1.26a7.727 7.727 0 0 1-3.871 1.73v-1.845a6.049 6.049 0 0 1-1.047.092 6.049 6.049 0 0 1-.585-.029v1.84a7.727 7.727 0 0 1-4.116-1.543l1.31-1.31a6.049 6.049 0 0 1-1.213-1.095l-1.288 1.287a7.727 7.727 0 0 1-1.821-4.152h1.757a6.049 6.049 0 0 1-.092-1.047 6.049 6.049 0 0 1 .029-.585H8.063a7.727 7.727 0 0 1 1.774-4.224l1.153 1.153a6.049 6.049 0 0 1 1.153-1.155l-1.127-1.128a7.727 7.727 0 0 1 4.199-1.609z" fill="none" stroke="#1b1a1a" stroke-linecap="round" stroke-linejoin="round" stroke-opacity=".011765" stroke-width=".3"/>
 <path transform="translate(7.14 23.18) scale(.20953)" d="M15.753-34.449A13.517 13.517 0 0 0 2.236-20.932 13.517 13.517 0 0 0 15.753-7.415 13.517 13.517 0 0 0 29.27-20.932a13.517 13.517 0 0 0-13.517-13.517Zm-.538 5.927v1.534a6.049 6.049 0 0 1 .585-.035 6.049 6.049 0 0 1 1.047.098v-1.528a7.727 7.727 0 0 1 3.949 1.79l-1.08 1.08a6.049 6.049 0 0 1 1.088 1.22l1.107-1.106a7.727 7.727 0 0 1 1.525 3.91h-1.621a6.049 6.049 0 0 1 .034.585 6.049 6.049 0 0 1-.097 1.047h1.671a7.727 7.727 0 0 1-1.575 3.847l-1.238-1.238a6.049 6.049 0 0 1-1.152 1.156l1.26 1.26a7.727 7.727 0 0 1-3.871 1.73v-1.845a6.049 6.049 0 0 1-1.047.092 6.049 6.049 0 0 1-.585-.029v1.84a7.727 7.727 0 0 1-4.116-1.543l1.31-1.31a6.049 6.049 0 0 1-1.213-1.095l-1.288 1.287a7.727 7.727 0 0 1-1.821-4.152h1.757a6.049 6.049 0 0 1-.092-1.047 6.049 6.049 0 0 1 .029-.585H8.063a7.727 7.727 0 0 1 1.774-4.224l1.153 1.153a6.049 6.049 0 0 1 1.153-1.155l-1.127-1.128a7.727 7.727 0 0 1 4.199-1.609z" fill="none" stroke="#1b1a1a" stroke-linecap="round" stroke-linejoin="round" stroke-opacity=".011765" stroke-width=".4"/>
 <path transform="translate(7.14 23.18) scale(.20953)" d="M15.753-34.449A13.517 13.517 0 0 0 2.236-20.932 13.517 13.517 0 0 0 15.753-7.415 13.517 13.517 0 0 0 29.27-20.932a13.517 13.517 0 0 0-13.517-13.517Zm-.538 5.927v1.534a6.049 6.049 0 0 1 .585-.035 6.049 6.049 0 0 1 1.047.098v-1.528a7.727 7.727 0 0 1 3.949 1.79l-1.08 1.08a6.049 6.049 0 0 1 1.088 1.22l1.107-1.106a7.727 7.727 0 0 1 1.525 3.91h-1.621a6.049 6.049 0 0 1 .034.585 6.049 6.049 0 0 1-.097 1.047h1.671a7.727 7.727 0 0 1-1.575 3.847l-1.238-1.238a6.049 6.049 0 0 1-1.152 1.156l1.26 1.26a7.727 7.727 0 0 1-3.871 1.73v-1.845a6.049 6.049 0 0 1-1.047.092 6.049 6.049 0 0 1-.585-.029v1.84a7.727 7.727 0 0 1-4.116-1.543l1.31-1.31a6.049 6.049 0 0 1-1.213-1.095l-1.288 1.287a7.727 7.727 0 0 1-1.821-4.152h1.757a6.049 6.049 0 0 1-.092-1.047 6.049 6.049 0 0 1 .029-.585H8.063a7.727 7.727 0 0 1 1.774-4.224l1.153 1.153a6.049 6.049 0 0 1 1.153-1.155l-1.127-1.128a7.727 7.727 0 0 1 4.199-1.609z" fill="none" stroke="#1b1a1a" stroke-linecap="round" stroke-linejoin="round" stroke-opacity=".011765" stroke-width=".5"/>
 <path transform="translate(7.14 23.18) scale(.20953)" d="M15.753-34.449A13.517 13.517 0 0 0 2.236-20.932 13.517 13.517 0 0 0 15.753-7.415 13.517 13.517 0 0 0 29.27-20.932a13.517 13.517 0 0 0-13.517-13.517Zm-.538 5.927v1.534a6.049 6.049 0 0 1 .585-.035 6.049 6.049 0 0 1 1.047.098v-1.528a7.727 7.727 0 0 1 3.949 1.79l-1.08 1.08a6.049 6.049 0 0 1 1.088 1.22l1.107-1.106a7.727 7.727 0 0 1 1.525 3.91h-1.621a6.049 6.049 0 0 1 .034.585 6.049 6.049 0 0 1-.097 1.047h1.671a7.727 7.727 0 0 1-1.575 3.847l-1.238-1.238a6.049 6.049 0 0 1-1.152 1.156l1.26 1.26a7.727 7.727 0 0 1-3.871 1.73v-1.845a6.049 6.049 0 0 1-1.047.092 6.049 6.049 0 0 1-.585-.029v1.84a7.727 7.727 0 0 1-4.116-1.543l1.31-1.31a6.049 6.049 0 0 1-1.213-1.095l-1.288 1.287a7.727 7.727 0 0 1-1.821-4.152h1.757a6.049 6.049 0 0 1-.092-1.047 6.049 6.049 0 0 1 .029-.585H8.063a7.727 7.727 0 0 1 1.774-4.224l1.153 1.153a6.049 6.049 0 0 1 1.153-1.155l-1.127-1.128a7.727 7.727 0 0 1 4.199-1.609z" fill="none" stroke="#1b1a1a" stroke-linecap="round" stroke-linejoin="round" stroke-opacity=".011765" stroke-width=".6"/>
 <path transform="translate(7.14 23.18) scale(.20953)" d="M15.753-34.449A13.517 13.517 0 0 0 2.236-20.932 13.517 13.517 0 0 0 15.753-7.415 13.517 13.517 0 0 0 29.27-20.932a13.517 13.517 0 0 0-13.517-13.517Zm-.538 5.927v1.534a6.049 6.049 0 0 1 .585-.035 6.049 6.049 0 0 1 1.047.098v-1.528a7.727 7.727 0 0 1 3.949 1.79l-1.08 1.08a6.049 6.049 0 0 1 1.088 1.22l1.107-1.106a7.727 7.727 0 0 1 1.525 3.91h-1.621a6.049 6.049 0 0 1 .034.585 6.049 6.049 0 0 1-.097 1.047h1.671a7.727 7.727 0 0 1-1.575 3.847l-1.238-1.238a6.049 6.049 0 0 1-1.152 1.156l1.26 1.26a7.727 7.727 0 0 1-3.871 1.73v-1.845a6.049 6.049 0 0 1-1.047.092 6.049 6.049 0 0 1-.585-.029v1.84a7.727 7.727 0 0 1-4.116-1.543l1.31-1.31a6.049 6.049 0 0 1-1.213-1.095l-1.288 1.287a7.727 7.727 0 0 1-1.821-4.152h1.757a6.049 6.049 0 0 1-.092-1.047 6.049 6.049 0 0 1 .029-.585H8.063a7.727 7.727 0 0 1 1.774-4.224l1.153 1.153a6.049 6.049 0 0 1 1.153-1.155l-1.127-1.128a7.727 7.727 0 0 1 4.199-1.609z" fill="none" stroke="#1b1a1a" stroke-linecap="round" stroke-linejoin="round" stroke-opacity=".011765" stroke-width=".7"/>
 <path transform="translate(7.14 23.18) scale(.20953)" d="M15.753-34.449A13.517 13.517 0 0 0 2.236-20.932 13.517 13.517 0 0 0 15.753-7.415 13.517 13.517 0 0 0 29.27-20.932a13.517 13.517 0 0 0-13.517-13.517Zm-.538 5.927v1.534a6.049 6.049 0 0 1 .585-.035 6.049 6.049 0 0 1 1.047.098v-1.528a7.727 7.727 0 0 1 3.949 1.79l-1.08 1.08a6.049 6.049 0 0 1 1.088 1.22l1.107-1.106a7.727 7.727 0 0 1 1.525 3.91h-1.621a6.049 6.049 0 0 1 .034.585 6.049 6.049 0 0 1-.097 1.047h1.671a7.727 7.727 0 0 1-1.575 3.847l-1.238-1.238a6.049 6.049 0 0 1-1.152 1.156l1.26 1.26a7.727 7.727 0 0 1-3.871 1.73v-1.845a6.049 6.049 0 0 1-1.047.092 6.049 6.049 0 0 1-.585-.029v1.84a7.727 7.727 0 0 1-4.116-1.543l1.31-1.31a6.049 6.049 0 0 1-1.213-1.095l-1.288 1.287a7.727 7.727 0 0 1-1.821-4.152h1.757a6.049 6.049 0 0 1-.092-1.047 6.049 6.049 0 0 1 .029-.585H8.063a7.727 7.727 0 0 1 1.774-4.224l1.153 1.153a6.049 6.049 0 0 1 1.153-1.155l-1.127-1.128a7.727 7.727 0 0 1 4.199-1.609z" fill="none" stroke="#1b1a1a" stroke-linecap="round" stroke-linejoin="round" stroke-opacity=".011765" stroke-width=".8"/>
 <path transform="translate(7.14 23.18) scale(.20953)" d="M15.753-34.449A13.517 13.517 0 0 0 2.236-20.932 13.517 13.517 0 0 0 15.753-7.415 13.517 13.517 0 0 0 29.27-20.932a13.517 13.517 0 0 0-13.517-13.517Zm-.538 5.927v1.534a6.049 6.049 0 0 1 .585-.035 6.049 6.049 0 0 1 1.047.098v-1.528a7.727 7.727 0 0 1 3.949 1.79l-1.08 1.08a6.049 6.049 0 0 1 1.088 1.22l1.107-1.106a7.727 7.727 0 0 1 1.525 3.91h-1.621a6.049 6.049 0 0 1 .034.585 6.049 6.049 0 0 1-.097 1.047h1.671a7.727 7.727 0 0 1-1.575 3.847l-1.238-1.238a6.049 6.049 0 0 1-1.152 1.156l1.26 1.26a7.727 7.727 0 0 1-3.871 1.73v-1.845a6.049 6.049 0 0 1-1.047.092 6.049 6.049 0 0 1-.585-.029v1.84a7.727 7.727 0 0 1-4.116-1.543l1.31-1.31a6.049 6.049 0 0 1-1.213-1.095l-1.288 1.287a7.727 7.727 0 0 1-1.821-4.152h1.757a6.049 6.049 0 0 1-.092-1.047 6.049 6.049 0 0 1 .029-.585H8.063a7.727 7.727 0 0 1 1.774-4.224l1.153 1.153a6.049 6.049 0 0 1 1.153-1.155l-1.127-1.128a7.727 7.727 0 0 1 4.199-1.609z" fill="none" stroke="#1b1a1a" stroke-linecap="round" stroke-linejoin="round" stroke-opacity=".011765" stroke-width=".9"/>
 <path transform="translate(7.14 23.18) scale(.20953)" d="M15.753-34.449A13.517 13.517 0 0 0 2.236-20.932 13.517 13.517 0 0 0 15.753-7.415 13.517 13.517 0 0 0 29.27-20.932a13.517 13.517 0 0 0-13.517-13.517Zm-.538 5.927v1.534a6.049 6.049 0 0 1 .585-.035 6.049 6.049 0 0 1 1.047.098v-1.528a7.727 7.727 0 0 1 3.949 1.79l-1.08 1.08a6.049 6.049 0 0 1 1.088 1.22l1.107-1.106a7.727 7.727 0 0 1 1.525 3.91h-1.621a6.049 6.049 0 0 1 .034.585 6.049 6.049 0 0 1-.097 1.047h1.671a7.727 7.727 0 0 1-1.575 3.847l-1.238-1.238a6.049 6.049 0 0 1-1.152 1.156l1.26 1.26a7.727 7.727 0 0 1-3.871 1.73v-1.845a6.049 6.049 0 0 1-1.047.092 6.049 6.049 0 0 1-.585-.029v1.84a7.727 7.727 0 0 1-4.116-1.543l1.31-1.31a6.049 6.049 0 0 1-1.213-1.095l-1.288 1.287a7.727 7.727 0 0 1-1.821-4.152h1.757a6.049 6.049 0 0 1-.092-1.047 6.049 6.049 0 0 1 .029-.585H8.063a7.727 7.727 0 0 1 1.774-4.224l1.153 1.153a6.049 6.049 0 0 1 1.153-1.155l-1.127-1.128a7.727 7.727 0 0 1 4.199-1.609z" fill="none" stroke="#1b1a1a" stroke-linecap="round" stroke-linejoin="round" stroke-opacity=".011765"/>
 <path transform="translate(7.14 23.18) scale(.20953)" d="M15.753-34.449A13.517 13.517 0 0 0 2.236-20.932 13.517 13.517 0 0 0 15.753-7.415 13.517 13.517 0 0 0 29.27-20.932a13.517 13.517 0 0 0-13.517-13.517Zm-.538 5.927v1.534a6.049 6.049 0 0 1 .585-.035 6.049 6.049 0 0 1 1.047.098v-1.528a7.727 7.727 0 0 1 3.949 1.79l-1.08 1.08a6.049 6.049 0 0 1 1.088 1.22l1.107-1.106a7.727 7.727 0 0 1 1.525 3.91h-1.621a6.049 6.049 0 0 1 .034.585 6.049 6.049 0 0 1-.097 1.047h1.671a7.727 7.727 0 0 1-1.575 3.847l-1.238-1.238a6.049 6.049 0 0 1-1.152 1.156l1.26 1.26a7.727 7.727 0 0 1-3.871 1.73v-1.845a6.049 6.049 0 0 1-1.047.092 6.049 6.049 0 0 1-.585-.029v1.84a7.727 7.727 0 0 1-4.116-1.543l1.31-1.31a6.049 6.049 0 0 1-1.213-1.095l-1.288 1.287a7.727 7.727 0 0 1-1.821-4.152h1.757a6.049 6.049 0 0 1-.092-1.047 6.049 6.049 0 0 1 .029-.585H8.063a7.727 7.727 0 0 1 1.774-4.224l1.153 1.153a6.049 6.049 0 0 1 1.153-1.155l-1.127-1.128a7.727 7.727 0 0 1 4.199-1.609z" fill="none" stroke="#1b1a1a" stroke-linecap="round" stroke-linejoin="round" stroke-opacity=".011765" stroke-width="1.2"/>
 <path transform="translate(7.14 23.18) scale(.20953)" d="M15.753-34.449A13.517 13.517 0 0 0 2.236-20.932 13.517 13.517 0 0 0 15.753-7.415 13.517 13.517 0 0 0 29.27-20.932a13.517 13.517 0 0 0-13.517-13.517Zm-.538 5.927v1.534a6.049 6.049 0 0 1 .585-.035 6.049 6.049 0 0 1 1.047.098v-1.528a7.727 7.727 0 0 1 3.949 1.79l-1.08 1.08a6.049 6.049 0 0 1 1.088 1.22l1.107-1.106a7.727 7.727 0 0 1 1.525 3.91h-1.621a6.049 6.049 0 0 1 .034.585 6.049 6.049 0 0 1-.097 1.047h1.671a7.727 7.727 0 0 1-1.575 3.847l-1.238-1.238a6.049 6.049 0 0 1-1.152 1.156l1.26 1.26a7.727 7.727 0 0 1-3.871 1.73v-1.845a6.049 6.049 0 0 1-1.047.092 6.049 6.049 0 0 1-.585-.029v1.84a7.727 7.727 0 0 1-4.116-1.543l1.31-1.31a6.049 6.049 0 0 1-1.213-1.095l-1.288 1.287a7.727 7.727 0 0 1-1.821-4.152h1.757a6.049 6.049 0 0 1-.092-1.047 6.049 6.049 0 0 1 .029-.585H8.063a7.727 7.727 0 0 1 1.774-4.224l1.153 1.153a6.049 6.049 0 0 1 1.153-1.155l-1.127-1.128a7.727 7.727 0 0 1 4.199-1.609z" fill="none" stroke="#1b1a1a" stroke-linecap="round" stroke-linejoin="round" stroke-opacity=".011765" stroke-width="1.4"/>
 <path transform="translate(7.14 23.18) scale(.20953)" d="M15.753-34.449A13.517 13.517 0 0 0 2.236-20.932 13.517 13.517 0 0 0 15.753-7.415 13.517 13.517 0 0 0 29.27-20.932a13.517 13.517 0 0 0-13.517-13.517Zm-.538 5.927v1.534a6.049 6.049 0 0 1 .585-.035 6.049 6.049 0 0 1 1.047.098v-1.528a7.727 7.727 0 0 1 3.949 1.79l-1.08 1.08a6.049 6.049 0 0 1 1.088 1.22l1.107-1.106a7.727 7.727 0 0 1 1.525 3.91h-1.621a6.049 6.049 0 0 1 .034.585 6.049 6.049 0 0 1-.097 1.047h1.671a7.727 7.727 0 0 1-1.575 3.847l-1.238-1.238a6.049 6.049 0 0 1-1.152 1.156l1.26 1.26a7.727 7.727 0 0 1-3.871 1.73v-1.845a6.049 6.049 0 0 1-1.047.092 6.049 6.049 0 0 1-.585-.029v1.84a7.727 7.727 0 0 1-4.116-1.543l1.31-1.31a6.049 6.049 0 0 1-1.213-1.095l-1.288 1.287a7.727 7.727 0 0 1-1.821-4.152h1.757a6.049 6.049 0 0 1-.092-1.047 6.049 6.049 0 0 1 .029-.585H8.063a7.727 7.727 0 0 1 1.774-4.224l1.153 1.153a6.049 6.049 0 0 1 1.153-1.155l-1.127-1.128a7.727 7.727 0 0 1 4.199-1.609z" fill="none" stroke="#1b1a1a" stroke-linecap="round" stroke-linejoin="round" stroke-opacity=".011765" stroke-width="1.6"/>
 <path transform="translate(7.14 23.18) scale(.20953)" d="M15.753-34.449A13.517 13.517 0 0 0 2.236-20.932 13.517 13.517 0 0 0 15.753-7.415 13.517 13.517 0 0 0 29.27-20.932a13.517 13.517 0 0 0-13.517-13.517Zm-.538 5.927v1.534a6.049 6.049 0 0 1 .585-.035 6.049 6.049 0 0 1 1.047.098v-1.528a7.727 7.727 0 0 1 3.949 1.79l-1.08 1.08a6.049 6.049 0 0 1 1.088 1.22l1.107-1.106a7.727 7.727 0 0 1 1.525 3.91h-1.621a6.049 6.049 0 0 1 .034.585 6.049 6.049 0 0 1-.097 1.047h1.671a7.727 7.727 0 0 1-1.575 3.847l-1.238-1.238a6.049 6.049 0 0 1-1.152 1.156l1.26 1.26a7.727 7.727 0 0 1-3.871 1.73v-1.845a6.049 6.049 0 0 1-1.047.092 6.049 6.049 0 0 1-.585-.029v1.84a7.727 7.727 0 0 1-4.116-1.543l1.31-1.31a6.049 6.049 0 0 1-1.213-1.095l-1.288 1.287a7.727 7.727 0 0 1-1.821-4.152h1.757a6.049 6.049 0 0 1-.092-1.047 6.049 6.049 0 0 1 .029-.585H8.063a7.727 7.727 0 0 1 1.774-4.224l1.153 1.153a6.049 6.049 0 0 1 1.153-1.155l-1.127-1.128a7.727 7.727 0 0 1 4.199-1.609z" fill="none" stroke="#1b1a1a" stroke-linecap="round" stroke-linejoin="round" stroke-opacity=".011765" stroke-width="1.8"/>
 <path transform="translate(7.14 23.18) scale(.20953)" d="M15.753-34.449A13.517 13.517 0 0 0 2.236-20.932 13.517 13.517 0 0 0 15.753-7.415 13.517 13.517 0 0 0 29.27-20.932a13.517 13.517 0 0 0-13.517-13.517Zm-.538 5.927v1.534a6.049 6.049 0 0 1 .585-.035 6.049 6.049 0 0 1 1.047.098v-1.528a7.727 7.727 0 0 1 3.949 1.79l-1.08 1.08a6.049 6.049 0 0 1 1.088 1.22l1.107-1.106a7.727 7.727 0 0 1 1.525 3.91h-1.621a6.049 6.049 0 0 1 .034.585 6.049 6.049 0 0 1-.097 1.047h1.671a7.727 7.727 0 0 1-1.575 3.847l-1.238-1.238a6.049 6.049 0 0 1-1.152 1.156l1.26 1.26a7.727 7.727 0 0 1-3.871 1.73v-1.845a6.049 6.049 0 0 1-1.047.092 6.049 6.049 0 0 1-.585-.029v1.84a7.727 7.727 0 0 1-4.116-1.543l1.31-1.31a6.049 6.049 0 0 1-1.213-1.095l-1.288 1.287a7.727 7.727 0 0 1-1.821-4.152h1.757a6.049 6.049 0 0 1-.092-1.047 6.049 6.049 0 0 1 .029-.585H8.063a7.727 7.727 0 0 1 1.774-4.224l1.153 1.153a6.049 6.049 0 0 1 1.153-1.155l-1.127-1.128a7.727 7.727 0 0 1 4.199-1.609z" fill="none" stroke="#1b1a1a" stroke-linecap="round" stroke-linejoin="round" stroke-opacity=".011765" stroke-width="2"/>
 <path transform="translate(-10.45 21.963) scale(.20953)" d="M99.697-28.637A13.517 13.517 0 0 0 86.18-15.12 13.517 13.517 0 0 0 99.697-1.603a13.517 13.517 0 0 0 13.517-13.517 13.517 13.517 0 0 0-13.517-13.517Zm-.538 5.927v1.534a6.049 6.049 0 0 1 .586-.035 6.049 6.049 0 0 1 1.046.098v-1.528a7.727 7.727 0 0 1 3.95 1.79l-1.08 1.08a6.049 6.049 0 0 1 1.088 1.22l1.106-1.106a7.727 7.727 0 0 1 1.526 3.91h-1.621a6.049 6.049 0 0 1 .034.585 6.049 6.049 0 0 1-.097 1.047h1.67a7.727 7.727 0 0 1-1.574 3.847l-1.239-1.238a6.049 6.049 0 0 1-1.151 1.156l1.259 1.26a7.727 7.727 0 0 1-3.87 1.73v-1.845a6.049 6.049 0 0 1-1.047.092 6.049 6.049 0 0 1-.586-.029v1.84a7.727 7.727 0 0 1-4.115-1.543l1.31-1.31a6.049 6.049 0 0 1-1.214-1.095l-1.287 1.287a7.727 7.727 0 0 1-1.822-4.152h1.757a6.049 6.049 0 0 1-.092-1.047 6.049 6.049 0 0 1 .03-.585h-1.718a7.727 7.727 0 0 1 1.773-4.224l1.154 1.153a6.049 6.049 0 0 1 1.153-1.155l-1.128-1.128a7.727 7.727 0 0 1 4.2-1.609z" fill="#f3f3f3"/>
 <path d="m14.674 13.783-6.899 9.332 1.207.893 6.899-9.332zm7.55.15-6.898 9.332.805.594 6.899-9.332zm6.073 0-6.898 9.332.802.594 6.9-9.332zm-16.908.149L4.49 23.414l.403.297 6.898-9.332zm6.397 0-6.9 9.332.403.297 6.899-9.332zm2.333 0-6.898 9.332.4.297 6.9-9.332zm5.194 0-6.9 9.332.401.297 6.9-9.332z" color-rendering="auto" dominant-baseline="auto" fill="#fff" fill-opacity=".76019" image-rendering="auto" opacity=".059" shape-rendering="auto" style="font-feature-settings:normal;font-variant-alternates:normal;font-variant-caps:normal;font-variant-ligatures:normal;font-variant-numeric:normal;font-variant-position:normal;isolation:auto;mix-blend-mode:normal;shape-padding:0;text-decoration-color:#000;text-decoration-line:none;text-decoration-style:solid;text-indent:0;text-orientation:mixed;text-transform:none;white-space:normal"/>
 <path d="M6.44 8.234A2.433 2.433 0 0 0 4 10.673v12.293a2.434 2.434 0 0 0 2.44 2.44h20.95a2.434 2.434 0 0 0 2.439-2.44V10.673a2.434 2.434 0 0 0-2.44-2.439zm1.667 6.74h17.686a2.01 2.01 0 0 1 2.013 2.014v3.424a2.009 2.009 0 0 1-2.013 2.013H8.107a2.008 2.008 0 0 1-2.013-2.013v-3.424c0-1.115.898-2.013 2.013-2.013z" fill="#494948"/>
 <rect x="6.004" y="14.943" width="21.819" height="7.486" rx="2.013" ry="2.013" fill="none" fill-opacity="0"/>
 <path d="M7.167 12.742a2.434 2.434 0 0 0-2.44 2.44v6.895a2.434 2.434 0 0 0 2.44 2.439h19.496a2.433 2.433 0 0 0 2.438-2.439v-6.896a2.434 2.434 0 0 0-2.438-2.439zm.94 2.232h17.686a2.01 2.01 0 0 1 2.013 2.014v3.424a2.009 2.009 0 0 1-2.013 2.013H8.107a2.008 2.008 0 0 1-2.013-2.013v-3.424a2.01 2.01 0 0 1 2.013-2.014z" fill="#97cdff"/>
 <rect x="4.906" y="9.287" width="24.089" height="2.661" rx=".854" ry=".854" fill="#97cdff"/>
 <path d="M7.168 17.784a.133.133 0 0 0-.133.132v1.738a.133.133 0 1 0 .265 0v-1.738a.133.133 0 0 0-.132-.132zm1.123 0a.133.133 0 0 0-.133.132v1.738a.133.133 0 1 0 .266 0v-1.738a.133.133 0 0 0-.133-.132zm1.123 0a.133.133 0 0 0-.133.132v1.738a.133.133 0 1 0 .266 0v-1.738a.133.133 0 0 0-.133-.132zm1.124 0a.133.133 0 0 0-.133.132v1.738a.133.133 0 1 0 .265 0v-1.738a.133.133 0 0 0-.132-.132zm12.612 0a.133.133 0 0 0-.132.132v1.738a.133.133 0 1 0 .265 0v-1.738a.133.133 0 0 0-.133-.132zm1.124 0a.133.133 0 0 0-.133.132v1.738a.133.133 0 1 0 .266 0v-1.738a.133.133 0 0 0-.133-.132zm1.123 0a.133.133 0 0 0-.133.132v1.738a.133.133 0 1 0 .266 0v-1.738a.133.133 0 0 0-.133-.132zm1.123 0a.133.133 0 0 0-.133.132v1.738a.133.133 0 1 0 .266 0v-1.738a.133.133 0 0 0-.133-.132z" fill-opacity=".30435"/>
 <path d="M9.249 27.145s-.753 3.742-1.009 4.44c.192.017.385.027.58.027h16.19c.122 0 .243-.004.363-.01l-1.036-4.457z" fill="#fff" fill-opacity=".092391"/>
 <g transform="translate(23.715 34.016) scale(.3008)">
  <path d="m-22.503-22.152a3.211 3.211 0 0 0-3.209 3.209 3.211 3.211 0 0 0 3.209 3.209 3.211 3.211 0 0 0 3.209-3.21 3.211 3.211 0 0 0-3.21-3.208z" color-rendering="auto" dominant-baseline="auto" fill="url(#h)" image-rendering="auto" shape-rendering="auto" style="font-feature-settings:normal;font-variant-alternates:normal;font-variant-caps:normal;font-variant-ligatures:normal;font-variant-numeric:normal;font-variant-position:normal;isolation:auto;mix-blend-mode:normal;shape-padding:0;text-decoration-color:#000;text-decoration-line:none;text-decoration-style:solid;text-indent:0;text-orientation:mixed;text-transform:none;white-space:normal"/>
  <circle cx="-22.537" cy="-19.381" r="2.953" fill="url(#k)" stroke="#1b1a1a" stroke-linecap="round" stroke-linejoin="round" stroke-width=".4"/>
 </g>
 <path transform="translate(9.201 26.161) scale(.3008)" d="M25.048 5.02a.197.197 0 0 0-.074.025l-.357.206a.195.195 0 0 0-.072.267l.622 1.077-1.077.622a.195.195 0 0 0-.071.267l.206.357a.195.195 0 0 0 .267.072l1.077-.622.621 1.076a.195.195 0 0 0 .268.072l.357-.206a.195.195 0 0 0 .07-.267l-.62-1.077 1.076-.622a.195.195 0 0 0 .071-.266l-.205-.358a.195.195 0 0 0-.267-.071l-1.077.621-.622-1.076a.195.195 0 0 0-.193-.097z" fill-opacity=".71042"/>
 <path d="M12.64 28.444a.639.639 0 0 0-.639.64.639.639 0 0 0 .64.638.639.639 0 0 0 .638-.639.639.639 0 0 0-.639-.639zm-2.696 1.207a.639.639 0 0 0-.639.638.639.639 0 0 0 .64.639.639.639 0 0 0 .637-.639.639.639 0 0 0-.638-.638zm11.211-1.207a.639.639 0 0 1 .639.64.639.639 0 0 1-.639.638.639.639 0 0 1-.639-.639.639.639 0 0 1 .64-.639zm2.696 1.207a.639.639 0 0 1 .639.638.639.639 0 0 1-.639.639.639.639 0 0 1-.638-.639.639.639 0 0 1 .638-.638z" fill-opacity=".38044"/>
</svg>
