<?xml version="1.0" encoding="UTF-8"?>
<svg id="svg29" width="64" height="64" version="1.1" viewBox="0 0 64 64" xml:space="preserve" xmlns="http://www.w3.org/2000/svg" xmlns:xlink="http://www.w3.org/1999/xlink"><defs id="defs7"><filter id="filter1057" x="-.027" y="-.027" width="1.054" height="1.054" color-interpolation-filters="sRGB"><feGaussianBlur id="feGaussianBlur1059" stdDeviation="0.61875"/></filter><linearGradient id="linearGradient1053" x1="-127" x2="-127" y1="60" y2="5" gradientTransform="translate(131.5 -.054157)" gradientUnits="userSpaceOnUse"><stop id="stop1047" stop-color="#1d2123" offset="0"/><stop id="stop1049" stop-color="#33393e" stop-opacity=".99608" offset="1"/></linearGradient></defs><rect id="rect1055" x="4.4905" y="4.9558" width="55" height="55" ry="15" fill="#141414" filter="url(#filter1057)" opacity=".3" stroke-linecap="round" stroke-width="2.7444"/><rect id="rect1045" x="4.5" y="4.9558" width="55" height="55" ry="15" fill="url(#linearGradient1053)" stroke-linecap="round" stroke-width="2.7444"/><circle id="circle890" cx="32" cy="32" r="30.001" fill-opacity="0" stroke-width="1.5715"/><path id="rect805" d="m16.033 15v34h9.2479v-13.3h13.438v13.3h9.2479v-34h-9.2479v13.3h-13.438v-13.3zm3.0193 5.2179h3.2185v3.2185h-3.2185zm22.677 0h3.2185v3.2185h-3.2185zm-22.677 10.174h3.2185v3.2167h-3.2185zm22.677 0h3.2185v3.2167h-3.2185zm-22.677 10.172h3.2185v3.2185h-3.2185zm22.677 0h3.2185v3.2185h-3.2185z" fill="#e5e7e7" fill-rule="evenodd" style="paint-order:stroke fill markers"/></svg>
