<?xml version="1.0" encoding="UTF-8"?>
<svg id="svg1526" width="128" height="128" version="1.1" viewBox="0 0 33.867 33.867" xmlns="http://www.w3.org/2000/svg" xmlns:cc="http://creativecommons.org/ns#" xmlns:dc="http://purl.org/dc/elements/1.1/" xmlns:rdf="http://www.w3.org/1999/02/22-rdf-syntax-ns#" xmlns:xlink="http://www.w3.org/1999/xlink">
 <defs id="defs1520">
  <linearGradient id="linearGradient4677" x1="13.478" x2="4.3909" y1="30.914" y2="4.8062" gradientTransform="translate(-.013264 -.032969)" gradientUnits="userSpaceOnUse">
   <stop id="stop4671" stop-color="#f8d35a" offset="0"/>
   <stop id="stop4673" stop-color="#f13934" offset="1"/>
  </linearGradient>
  <linearGradient id="linearGradient1651" x1="38.21" x2="12.24" y1="2.0952" y2="15.993" gradientTransform="translate(-.013264 -.032969)" gradientUnits="userSpaceOnUse">
   <stop id="stop1645" stop-color="#b345f1" offset="0"/>
   <stop id="stop1647" stop-color="#f8c917" stop-opacity="0" offset="1"/>
  </linearGradient>
  <linearGradient id="linearGradient1458" x1="17.202" x2="17.202" y1="28.288" y2="6.3047" gradientTransform="translate(-.013264 -.032969)" gradientUnits="userSpaceOnUse">
   <stop id="stop1452" stop-color="#0d0d0d" offset="0"/>
   <stop id="stop1454" stop-color="#3c3c3c" offset="1"/>
  </linearGradient>
  <linearGradient id="linearGradient1466" x1="17.267" x2="17.267" y1="26.283" y2="7.6411" gradientTransform="translate(-.013264 -.032969)" gradientUnits="userSpaceOnUse">
   <stop id="stop1460" stop-color="#343434" offset="0"/>
   <stop id="stop1462" stop-color="#0d0d0d" offset="1"/>
  </linearGradient>
 </defs>
 <metadata id="metadata1523">
  <rdf:RDF>
   <cc:Work rdf:about="">
    <dc:format>image/svg+xml</dc:format>
    <dc:type rdf:resource="http://purl.org/dc/dcmitype/StillImage"/>
    <dc:title/>
   </cc:Work>
  </rdf:RDF>
 </metadata>
 <g id="layer1">
  <g id="g1702" transform="matrix(.97573 0 0 .97573 -65.762 -37.236)" fill="none" opacity=".295" stroke="#000" stroke-linecap="round" stroke-linejoin="round" stroke-opacity=".02">
   <rect id="rect1634" x="69.84" y="40.71" width="29.811" height="29.811" rx="6.6099" ry="6.6099" stroke-width=".1"/>
   <rect id="rect1638" x="69.84" y="40.71" width="29.811" height="29.811" rx="6.6099" ry="6.6099" stroke-width=".2"/>
   <rect id="rect1640" x="69.84" y="40.71" width="29.811" height="29.811" rx="6.6099" ry="6.6099" stroke-width=".3"/>
   <rect id="rect1642" x="69.84" y="40.71" width="29.811" height="29.811" rx="6.6099" ry="6.6099" stroke-width=".4"/>
   <rect id="rect1644" x="69.84" y="40.71" width="29.811" height="29.811" rx="6.6099" ry="6.6099" stroke-width=".5"/>
   <rect id="rect1646" x="69.84" y="40.71" width="29.811" height="29.811" rx="6.6099" ry="6.6099" stroke-width=".6"/>
   <rect id="rect1648" x="69.84" y="40.71" width="29.811" height="29.811" rx="6.6099" ry="6.6099" stroke-width=".7"/>
   <rect id="rect1650" x="69.84" y="40.71" width="29.811" height="29.811" rx="6.6099" ry="6.6099" stroke-width=".8"/>
   <rect id="rect1652" x="69.84" y="40.71" width="29.811" height="29.811" rx="6.6099" ry="6.6099"/>
   <rect id="rect1654" x="69.84" y="40.71" width="29.811" height="29.811" rx="6.6099" ry="6.6099" stroke-width="1.2"/>
   <rect id="rect1656" x="69.84" y="40.71" width="29.811" height="29.811" rx="6.6099" ry="6.6099" stroke-width="1.4"/>
   <rect id="rect1658" x="69.84" y="40.71" width="29.811" height="29.811" rx="6.6099" ry="6.6099" stroke-width="1.6"/>
   <rect id="rect1660" x="69.84" y="40.71" width="29.811" height="29.811" rx="6.6099" ry="6.6099" stroke-width="1.8"/>
   <rect id="rect1662" x="69.84" y="40.71" width="29.811" height="29.811" rx="6.6099" ry="6.6099" stroke-width="2"/>
   <rect id="rect1664" x="69.84" y="40.71" width="29.811" height="29.811" rx="6.6099" ry="6.6099" stroke-width="2.2"/>
   <rect id="rect1666" x="69.84" y="40.71" width="29.811" height="29.811" rx="6.6099" ry="6.6099" stroke-width="2.6"/>
   <rect id="rect1668" x="69.84" y="40.71" width="29.811" height="29.811" rx="6.6099" ry="6.6099" stroke-width="3"/>
   <rect id="rect1670" x="69.84" y="40.71" width="29.811" height="29.811" rx="6.6099" ry="6.6099" stroke-width="3.4"/>
   <rect id="rect1672" x="69.84" y="40.71" width="29.811" height="29.811" rx="6.6099" ry="6.6099" stroke-width="3.8"/>
   <rect id="rect1674" x="69.84" y="40.71" width="29.811" height="29.811" rx="6.6099" ry="6.6099" stroke-width="4.2"/>
   <rect id="rect1676" x="69.84" y="40.71" width="29.811" height="29.811" rx="6.6099" ry="6.6099" stroke-width="4.6"/>
   <rect id="rect1678" x="69.84" y="40.71" width="29.811" height="29.811" rx="6.6099" ry="6.6099" stroke-width="5"/>
  </g>
  <rect id="rect849" x="2.383" y="2.4856" width="29.087" height="29.087" rx="6.4495" ry="6.4495" fill="url(#linearGradient4677)" stroke-linecap="round" stroke-linejoin="round" stroke-width="2.688"/>
  <rect id="rect1643" x="2.383" y="2.4856" width="29.087" height="29.087" rx="6.4495" ry="6.4495" fill="url(#linearGradient1651)" stroke-linecap="round" stroke-linejoin="round" stroke-width="2.688"/>
  <rect id="rect1448" x="4.5708" y="5.0479" width="24.712" height="23.963" rx="4.0601" ry="4.0601" fill="url(#linearGradient1458)"/>
  <rect id="rect1450" x="6.9115" y="7.3176" width="20.031" height="19.424" rx="2.6569" ry="2.6569" fill="url(#linearGradient1466)"/>
  <path id="path13" d="m14.818 9.6317-4.937 4.388 2.1159 1.1398-1.4106 4.1447 4.937-4.3872-2.1159-1.1398zm2.3175 8.0603v1.6122h5.6423v-1.6122z" fill="#fff" stroke-width=".74398"/>
 </g>
</svg>
