<?xml version="1.0" encoding="UTF-8" standalone="no"?>
<svg
   width="64"
   height="64"
   version="1.1"
   viewBox="0 0 64 64"
   id="svg15"
   sodipodi:docname="io.github.shonebinu.Brief.svg"
   inkscape:version="1.4.3 (0d15f75042, 2025-12-25)"
   xmlns:inkscape="http://www.inkscape.org/namespaces/inkscape"
   xmlns:sodipodi="http://sodipodi.sourceforge.net/DTD/sodipodi-0.dtd"
   xmlns="http://www.w3.org/2000/svg"
   xmlns:svg="http://www.w3.org/2000/svg">
  <sodipodi:namedview
     id="namedview15"
     pagecolor="#ffffff"
     bordercolor="#111111"
     borderopacity="1"
     inkscape:showpageshadow="0"
     inkscape:pageopacity="0"
     inkscape:pagecheckerboard="1"
     inkscape:deskcolor="#d1d1d1"
     inkscape:zoom="2.8284272"
     inkscape:cx="-34.825009"
     inkscape:cy="33.941125"
     inkscape:window-width="2560"
     inkscape:window-height="1371"
     inkscape:window-x="0"
     inkscape:window-y="0"
     inkscape:window-maximized="1"
     inkscape:current-layer="svg15"
     showguides="false" />
  <defs
     id="defs9">
    <linearGradient
       id="linearGradient902"
       x1="136"
       x2="189"
       y1="30.5"
       y2="30.5"
       gradientTransform="matrix(1 0 0 1 -130.5 .4991)"
       gradientUnits="userSpaceOnUse">
      <stop
         stop-color="#543c2c"
         offset="0"
         id="stop1" />
      <stop
         stop-color="#766356"
         offset=".076733"
         id="stop2" />
      <stop
         stop-color="#d1d1c7"
         offset=".15604"
         id="stop3" />
      <stop
         stop-color="#d3cfc5"
         offset=".92868"
         id="stop4" />
      <stop
         stop-color="#7e5a4e"
         offset="1"
         id="stop5" />
    </linearGradient>
    <linearGradient
       id="linearGradient880"
       x1="150"
       x2="150"
       y1="9"
       y2="50.983"
       gradientTransform="matrix(1 0 0 1 -130.5 .4991)"
       gradientUnits="userSpaceOnUse">
      <stop
         stop-color="#66cdff"
         offset="0"
         id="stop6"
         style="stop-color:#32c57f;stop-opacity:1;" />
      <stop
         stop-color="#0080cc"
         offset="1"
         id="stop7"
         style="stop-color:#55e188;stop-opacity:1;" />
    </linearGradient>
    <linearGradient
       id="linearGradient59957"
       x1="21.923"
       x2="21.923"
       y1="16.221"
       y2="2.7081"
       gradientTransform="matrix(1.9248 0 0 1.9248 -1.6767 -.35221)"
       gradientUnits="userSpaceOnUse">
      <stop
         stop-color="#99deff"
         offset="0"
         id="stop8" />
      <stop
         stop-color="#fff"
         offset="1"
         id="stop9" />
    </linearGradient>
    <linearGradient
       id="a"
       gradientTransform="matrix(0.10885716,0,0,0.13461608,66.22403,22.625)"
       gradientUnits="userSpaceOnUse"
       x1="384"
       x2="416"
       y1="120"
       y2="120">
      <stop
         offset="0"
         stop-color="#e8e7e4"
         id="stop1-6" />
      <stop
         offset="0.511049"
         stop-color="#ffffff"
         id="stop2-7" />
      <stop
         offset="1"
         stop-color="#c2bfba"
         id="stop3-5" />
    </linearGradient>
    <linearGradient
       id="b"
       gradientTransform="matrix(0.40633372,0,0,0.53846536,64.394419,-96.424976)"
       gradientUnits="userSpaceOnUse"
       x1="11.698766"
       x2="115.94962"
       y1="231.04643"
       y2="231.09125">
      <stop
         offset="0"
         stop-color="#2ec27e"
         id="stop4-3" />
      <stop
         offset="1"
         stop-color="#57e389"
         id="stop5-5" />
    </linearGradient>
  </defs>
  <g
     stroke-opacity="0.95294"
     id="g10"
     style="mix-blend-mode:exclusion">
    <rect
       x="4.4986"
       y="4.4990001"
       width="55.000999"
       height="55.000999"
       ry="13"
       fill="#0070b2"
       stroke-width="0.31428"
       id="rect9"
       style="display:inline;fill:#26a269;fill-opacity:1" />
    <rect
       x="5.4995999"
       y="5.4991002"
       width="53.000999"
       height="51.001999"
       ry="10"
       fill="url(#linearGradient902)"
       stroke-width="0.29708"
       id="rect10"
       style="display:inline" />
    <path
       d="m 17.499,4.499 c -7.202,0 -13,5.7983 -13,13 v 26.003 c 0,4.432 3.5681,8.0003 8.0003,8.0003 h 39.002 c 4.432,0 8.0003,-3.5681 8.0003,-8.0003 V 17.499 c 0,-7.202 -5.7983,-13 -13,-13 z"
       fill="url(#linearGradient880)"
       stroke-width="0.31428"
       id="path10"
       style="display:inline" />
  </g>
  <path
     d="m 9.4988,7.2532 c -1.13,0.88216 -2.1086,1.9473 -2.8946,3.1504 -0.031201,0.04798 -0.0592,0.09806 -0.089803,0.14649 -0.2161,0.34062 -0.41731,0.69148 -0.60156,1.0528 -0.045,0.08866 -0.085903,0.17971 -0.1289,0.26953 -0.15437,0.32083 -0.29574,0.64941 -0.42384,0.9844 -0.048802,0.12807 -0.095802,0.25672 -0.14063,0.38673 -0.10626,0.307 -0.19783,0.62038 -0.28126,0.93753 -0.039402,0.15069 -0.081103,0.30033 -0.11523,0.45314 -0.072602,0.3232 -0.12579,0.65429 -0.17383,0.98636 -0.020599,0.14288 -0.050503,0.28337 -0.0664,0.42774 -0.052869,0.47687 -0.084043,0.9596 -0.084043,1.4512 v 26.003 c 0,3.3689 2.0645,6.2333 5,7.4163 z"
     opacity="0.5"
     id="path11"
     style="fill:#004066;stroke-width:0.31428;stroke-opacity:0.95294" />
  <path
     d="m 4.4986,42.501 v 1.002 c 0,4.432 3.5681,8.0003 8.0003,8.0003 h 39.002 c 4.432,0 8.0003,-3.5681 8.0003,-8.0003 v -1.002 c 0,4.432 -3.5681,8.0003 -8.0003,8.0003 h -39.002 c -4.432,0 -8.0003,-3.5681 -8.0003,-8.0003 z"
     id="path12"
     style="display:inline;fill:#228975;stroke-width:0.31428;stroke-opacity:0.95294;fill-opacity:1" />
  <path
     d="m 4.4986,45.499 v 1.002 c 0,7.202 5.7983,13 13,13 h 29.002 c 7.202,0 13,-5.7983 13,-13 v -1.002 c 0,7.202 -5.7983,13 -13,13 h -29.002 c -7.202,0 -13,-5.7983 -13,-13 z"
     id="path13"
     style="fill:#248b75;stroke-width:0.31428;stroke-opacity:0.95294;fill-opacity:1"
     inkscape:label="path13" />
  <path
     d="m 58.495,47.43 c -0.07177,0.05953 -0.149393,0.11358 -0.222441,0.1719 -2.281567,3.3923 -7.124929,4.2736 -12.193415,4.2736 H 16.151248 c -4.17741,0 -8.630029,-0.61642 -10.9295197,-3.0606 -0.010928,0.02306 -0.023982,0.06202 -0.035673,0.08788 2.2880193,2.4771 6.7652207,3.0997 10.9643437,3.0997 h 29.927896 c 5.092863,0 9.953944,-0.92778 12.228238,-4.3397 -0.02632,0.05907 -0.0564,0.11566 -0.08393,0.17382 -2.153231,3.7223 -6.942513,5.0393 -12.144252,5.0393 h -29.92789 c -4.385635,0 -8.8870081,-0.98617 -11.0360399,-3.7989 -0.010638,0.02608 -0.01876,0.04853 -0.029375,0.07616 2.1341805,2.8493 6.6560379,3.8495 11.0657419,3.8495 h 29.927896 c 5.036735,0 9.676379,-1.2706 11.926092,-4.7109 -2.094646,3.8522 -6.706839,5.584 -11.926092,5.584 H 16.150788 c -4.636877,0 -9.1649824,-1.3523 -11.1282195,-4.5665 -0.00978,0.02948 -0.011753,0.0635 -0.020985,0.09373 1.9523804,3.2384 6.4965655,4.5998 11.1497285,4.5998 h 29.927895 c 5.218741,0 9.828169,-1.7573 11.926092,-5.5938 -2.049169,4.0831 -6.649482,6.4669 -11.926092,6.4669 H 16.151312 c -4.703862,0 -9.2501986,-2.0697 -11.1650923,-5.4082 -0.00871,0.03061 -0.013076,0.06248 -0.020985,0.09377 1.9028078,3.3586 6.4656333,5.4415 11.1845523,5.4415 h 29.927895 c 5.137417,0 9.630698,-2.2718 11.758119,-6.1524 -2.049579,4.153 -6.523708,7.0255 -11.758119,7.0255 H 16.149787 c -4.784776,0 -9.3205631,-2.5483 -11.1743104,-5.9884 -0.024509,-0.04547 -0.034488,-0.09657 -0.048262,-0.1465 -0.0044,0.02381 -0.011068,0.04641 -0.014687,0.0703 0.015922,0.06966 0.029406,0.1409 0.062953,0.20312 1.8540546,3.4402 6.3901484,5.9884 11.1743104,5.9884 h 29.927895 c 5.711496,0 10.518805,-3.4201 12.256917,-8.1915 0.04278,-0.10424 0.0864,-0.20826 0.125929,-0.31446 0.01084,-0.02192 0.02051,-0.04464 0.03136,-0.06641 z"
     opacity="0.15"
     stroke-width="1.03653"
     id="path14"
     style="display:inline" />
  <path
     id="path1"
     style="display:inline;fill:#228a75;fill-opacity:1;stroke-width:0.824;stroke-linecap:square;stroke-linejoin:bevel;paint-order:markers fill stroke"
     d="m 4.4980469,43.503906 v 3.779297 l 0.2421875,1.738281 1.4433594,3.904297 3.3144531,3.800781 0.00781,-0.939453 C 9.4598544,55.798679 9.3510444,55.628768 9.3046875,55.628908 8.7020815,55.105471 8.21875,54.511535 8.21875,53.234377 c 0,-1.277158 0.5184877,-2.367187 1.1484375,-2.367187 0.4883296,0.178444 0.5205325,0.01758 0.1308594,-0.109378 L 8.5136719,50.09375 5.0742188,46.496094 Z"
     sodipodi:nodetypes="cccccccsccccc" />
  <path
     d="m 14.859208,32.9189 c -0.491745,-0.01219 -0.971297,0.178817 -1.320802,0.503937 -0.690881,0.672594 -0.690881,1.771908 0,2.444501 l 4.726441,4.521209 -4.726441,4.519178 c -0.690881,0.674625 -0.690881,1.773939 0,2.446533 0.701041,0.660401 1.836931,0.660401 2.537973,0 l 5.990348,-5.742444 c 0.701042,-0.674625 0.701042,-1.77394 0,-2.446533 L 16.076379,33.422837 C 15.761418,33.120069 15.316409,32.941252 14.859208,32.9189 Z M 25.29355,44.696396 v 2.871223 h 8.985522 v -2.871223 z m 0,0"
     fill="#3d3846"
     id="path12-9"
     style="stroke-width:0.999998" />
  <path
     d="m 14.853112,31.313617 c -0.491744,-0.01219 -0.971297,0.178817 -1.320802,0.503937 -0.690881,0.672593 -0.690881,1.771908 0,2.444501 l 4.724409,4.521209 -4.724409,4.519177 c -0.690881,0.672594 -0.690881,1.771908 0,2.446534 0.701041,0.660401 1.836932,0.660401 2.537973,0 l 5.988316,-5.744476 c 0.703073,-0.672594 0.703073,-1.771908 0,-2.444501 l -5.988316,-5.742444 c -0.316993,-0.302769 -0.75997,-0.481585 -1.217171,-0.503937 z m 10.434342,11.775464 v 2.871223 h 8.985522 v -2.871223 z m 0,0"
     fill="#5e5c64"
     id="path13-1"
     style="stroke-width:0.999998" />
</svg>
