<?xml version="1.0" encoding="UTF-8"?>
<svg id="svg1443" width="128" height="128" version="1.1" viewBox="0 0 33.867 33.867" xmlns="http://www.w3.org/2000/svg" xmlns:cc="http://creativecommons.org/ns#" xmlns:dc="http://purl.org/dc/elements/1.1/" xmlns:rdf="http://www.w3.org/1999/02/22-rdf-syntax-ns#" xmlns:xlink="http://www.w3.org/1999/xlink">
 <defs id="defs1437">
  <linearGradient id="linearGradient1632" x1="139.9" x2="139.9" y1="69.221" y2="44.211" gradientTransform="matrix(.97573 0 0 .97573 -111.77 -37.183)" gradientUnits="userSpaceOnUse">
   <stop id="stop1626" stop-color="#73c5b4" offset="0"/>
   <stop id="stop1628" stop-color="#daf3d2" offset="1"/>
  </linearGradient>
  <linearGradient id="linearGradient1019" x1="20.566" x2="20.566" y1="51.028" y2="4.51" gradientUnits="userSpaceOnUse">
   <stop id="stop1013" stop-color="#7ac8b6" offset="0"/>
   <stop id="stop1015" stop-color="#fff" offset="1"/>
  </linearGradient>
  <filter id="filter3878" x="-.13536" y="-.17073" width="1.2707" height="1.3415" color-interpolation-filters="sRGB">
   <feGaussianBlur id="feGaussianBlur3880" stdDeviation="2.8518385"/>
  </filter>
  <linearGradient id="linearGradient3988" x1="20.566" x2="20.566" y1="70.074" y2="4.51" gradientTransform="scale(3.7795)" gradientUnits="userSpaceOnUse">
   <stop id="stop5681" stop-color="#80cbb8" offset="0"/>
   <stop id="stop5683" stop-color="#fff" offset="1"/>
  </linearGradient>
 </defs>
 <metadata id="metadata1440">
  <rdf:RDF>
   <cc:Work rdf:about="">
    <dc:format>image/svg+xml</dc:format>
    <dc:type rdf:resource="http://purl.org/dc/dcmitype/StillImage"/>
   </cc:Work>
  </rdf:RDF>
 </metadata>
 <g id="layer1">
  <g id="g1702" transform="matrix(.97573 0 0 .96361 -65.737 -36.328)" fill="none" opacity=".18754" stroke="#000" stroke-linecap="round" stroke-linejoin="round" stroke-opacity=".02">
   <rect id="rect1634" x="69.84" y="40.71" width="29.811" height="29.811" rx="6.6099" ry="6.6099" stroke-width=".1"/>
   <rect id="rect1638" x="69.84" y="40.71" width="29.811" height="29.811" rx="6.6099" ry="6.6099" stroke-width=".2"/>
   <rect id="rect1640" x="69.84" y="40.71" width="29.811" height="29.811" rx="6.6099" ry="6.6099" stroke-width=".3"/>
   <rect id="rect1642" x="69.84" y="40.71" width="29.811" height="29.811" rx="6.6099" ry="6.6099" stroke-width=".4"/>
   <rect id="rect1644" x="69.84" y="40.71" width="29.811" height="29.811" rx="6.6099" ry="6.6099" stroke-width=".5"/>
   <rect id="rect1646" x="69.84" y="40.71" width="29.811" height="29.811" rx="6.6099" ry="6.6099" stroke-width=".6"/>
   <rect id="rect1648" x="69.84" y="40.71" width="29.811" height="29.811" rx="6.6099" ry="6.6099" stroke-width=".7"/>
   <rect id="rect1650" x="69.84" y="40.71" width="29.811" height="29.811" rx="6.6099" ry="6.6099" stroke-width=".8"/>
   <rect id="rect1652" x="69.84" y="40.71" width="29.811" height="29.811" rx="6.6099" ry="6.6099"/>
   <rect id="rect1654" x="69.84" y="40.71" width="29.811" height="29.811" rx="6.6099" ry="6.6099" stroke-width="1.2"/>
   <rect id="rect1656" x="69.84" y="40.71" width="29.811" height="29.811" rx="6.6099" ry="6.6099" stroke-width="1.4"/>
   <rect id="rect1658" x="69.84" y="40.71" width="29.811" height="29.811" rx="6.6099" ry="6.6099" stroke-width="1.6"/>
   <rect id="rect1660" x="69.84" y="40.71" width="29.811" height="29.811" rx="6.6099" ry="6.6099" stroke-width="1.8"/>
   <rect id="rect1662" x="69.84" y="40.71" width="29.811" height="29.811" rx="6.6099" ry="6.6099" stroke-width="2"/>
   <rect id="rect1664" x="69.84" y="40.71" width="29.811" height="29.811" rx="6.6099" ry="6.6099" stroke-width="2.2"/>
   <rect id="rect1666" x="69.84" y="40.71" width="29.811" height="29.811" rx="6.6099" ry="6.6099" stroke-width="2.6"/>
   <rect id="rect1668" x="69.84" y="40.71" width="29.811" height="29.811" rx="6.6099" ry="6.6099" stroke-width="3"/>
   <rect id="rect1670" x="69.84" y="40.71" width="29.811" height="29.811" rx="6.6099" ry="6.6099" stroke-width="3.4"/>
   <rect id="rect1672" x="69.84" y="40.71" width="29.811" height="29.811" rx="6.6099" ry="6.6099" stroke-width="3.8"/>
   <rect id="rect1674" x="69.84" y="40.71" width="29.811" height="29.811" rx="6.6099" ry="6.6099" stroke-width="4.2"/>
   <rect id="rect1676" x="69.84" y="40.71" width="29.811" height="29.811" rx="6.6099" ry="6.6099" stroke-width="4.6"/>
   <rect id="rect1678" x="69.84" y="40.71" width="29.811" height="29.811" rx="6.6099" ry="6.6099" stroke-width="5"/>
  </g>
  <rect id="rect849" x="2.4074" y="2.5392" width="29.087" height="29.087" rx="6.4495" ry="6.4495" fill="url(#linearGradient1632)" stroke-linecap="round" stroke-linejoin="round" stroke-width="2.6877"/>
  <path id="path4" d="m17.017 4.7789v0.0012a2.7865 2.7979 0 0 0-1.459 0.37249l-8.1988 4.7534a2.7865 2.7979 0 0 0-1.3935 2.4236v9.5068a2.7865 2.7979 0 0 0 1.3935 2.4224l8.1988 4.7534a2.7865 2.7979 0 0 0 2.787 0l8.1988-4.7534a2.7865 2.7979 0 0 0 1.3935-2.4224v-9.5068a2.7865 2.7979 0 0 0-1.3935-2.4236l-8.1988-4.7534a2.7865 2.7979 0 0 0-1.3279-0.37369z" fill="url(#linearGradient1019)" stroke-width=".43943"/>
  <path id="path8" d="m12.788 11.372c-0.17533 0.0038-0.3453 0.01512-0.44715 0.03004-0.48839 0.07178-0.90034 0.21999-1.2471 0.44887-0.64694 0.42707-1.0239 1.0937-1.1484 2.0298-0.03287 0.24731-0.03294 0.75225 0 0.98872 0.14941 1.0733 0.72996 2.0072 1.7328 2.7885 0.41735 0.32512 0.92304 0.63032 1.3921 0.83938 0.29584 0.13185 0.3014 0.13401 0.31756 0.17509 0.0084 0.02098 0.01693 0.24259 0.02059 0.52182 0.0047 0.34016 0.01262 0.52263 0.02747 0.61108 0.09613 0.57042 0.26127 0.99446 0.55873 1.4342 0.49796 0.73607 1.246 1.2534 2.1165 1.4633 0.09135 0.02198 0.23766 0.05009 0.32442 0.0618 0.08676 0.01179 0.17674 0.02259 0.19997 0.02574 0.10319 0.01412 0.71123-4e-3 0.84539-0.02489 1.0104-0.16027 1.8682-0.70094 2.4263-1.526 0.29746-0.4397 0.46432-0.86374 0.56045-1.4342 0.01495-0.08845 0.02216-0.27092 0.02661-0.61108 4e-3 -0.27924 0.01412-0.50083 0.02232-0.52182 0.01611-0.04104 0.02257-0.04321 0.31842-0.17508 0.34818-0.15519 0.77943-0.39969 1.1037-0.62567 0.97003-0.67597 1.6077-1.49 1.8899-2.41 0.11234-0.36629 0.15398-0.65885 0.15363-1.0831-0.0013-1.687-0.86405-2.7479-2.4194-2.9764-0.2037-0.02992-0.68089-0.04173-0.92349-0.02146-1.2376 0.1034-2.5014 0.64582-3.4794 1.4917-0.13124 0.11352-0.17427 0.14247-0.2077 0.14247-0.03345 0-0.07732-0.02893-0.20856-0.14247-0.97797-0.84584-2.2418-1.3882-3.4794-1.4917-0.12129-0.01019-0.301-0.01245-0.47634-0.0086zm7.1356 3.0691c0.05396-0.0019 0.11312 1.2e-4 0.17423 0.0078 0.1222 0.01528 0.2528 0.04976 0.36905 0.09784 0.17759 0.07347 0.3488 0.20628 0.40596 0.31498 0.03423 0.06514 0.03636 0.16617 6e-3 0.22315-0.0667 0.12503-0.21501 0.20762-0.58877 0.32528-0.42463 0.13368-0.64786 0.23344-0.94323 0.42484-0.17525 0.11357-0.35618 0.2629-0.51753 0.42398-0.10855 0.10837-0.12448 0.11759-0.17337 0.11759-0.03829 0-0.06464-0.0093-0.08925-0.03346-0.04162-0.0409-0.04265-0.0962-0.01196-0.30812 0.09045-0.62533 0.33261-1.0574 0.74669-1.332 0.14619-0.09696 0.37797-0.21299 0.47805-0.24117 0.04141-0.01163 0.09023-0.01852 0.14419-0.0206zm-6.0379 0.0017c0.09232-0.0038 0.1793 0.0033 0.2343 0.01888 0.10008 0.02819 0.33187 0.14423 0.47805 0.24117 0.41407 0.27461 0.65625 0.70669 0.74669 1.332 0.03065 0.21193 0.02704 0.26721-0.01461 0.30812-0.02462 0.02418-0.04924 0.03519-0.08754 0.03519-0.04889 0-0.06484-0.01099-0.17337-0.1193-0.30289-0.30238-0.64536-0.53309-1.0299-0.69519-0.08769-0.03699-0.28158-0.10666-0.43085-0.15363-0.29622-0.09323-0.4319-0.15464-0.51496-0.23345-0.072-0.06831-0.09699-0.12018-0.09699-0.1974 0-0.19088 0.25461-0.39368 0.62396-0.49779 0.0742-0.02091 0.17287-0.03474 0.2652-0.03861zm2.1843 3.5223c0.08326 0 0.10832 0.02653 0.15449 0.16135 0.18038 0.52677 0.12348 1.0238-0.1605 1.405-0.12973 0.1741-0.20825 0.2155-0.29267 0.1562-0.11242-0.07898-0.17012-0.4713-0.11586-0.79389 0.03915-0.23288 0.15745-0.5863 0.26864-0.80247 0.05597-0.10881 0.07598-0.12617 0.1459-0.12617zm1.7612 0.0017c0.03014-7.91e-4 0.06107 0.0037 0.07725 0.01462 0.05216 0.03508 0.21223 0.40825 0.28494 0.6643 0.10081 0.35496 0.10264 0.71604 0.0052 0.94924-0.05026 0.12008-0.13876 0.15052-0.23001 0.07896h-8.8e-4c-0.02749-0.0215-0.08588-0.08495-0.12873-0.14247-0.28398-0.38115-0.34002-0.87821-0.15964-1.405 0.02853-0.0833 0.0526-0.12833 0.0738-0.14162 0.01872-0.01179 0.04796-0.01733 0.07811-0.01803z" fill="#abdec4" stroke-width=".43943"/>
  <path id="path3671" transform="scale(.26458)" d="m48.828 42.975c-0.16403 6.44e-4 -0.33043 0.002222-0.49609 0.00586-0.66267 0.014362-1.3065 0.058844-1.6914 0.11523-1.8459 0.2713-3.4025 0.83026-4.7129 1.6953-2.4451 1.6141-3.8696 4.1339-4.3398 7.6719-0.12423 0.93472-0.1245 2.8426 0 3.7363 0.51214 3.679 2.3691 6.9242 5.5371 9.6992-2.433-2.5099-3.8831-5.3663-4.3262-8.5488-0.1245-0.89372-0.12423-2.8036 0-3.7383 0.4702-3.5379 1.8947-6.0558 4.3398-7.6699 1.3104-0.86505 2.8689-1.426 4.7148-1.6973 0.38494-0.056391 1.0268-0.098919 1.6895-0.11328 0.66267-0.014551 1.3424-0.007263 1.8008 0.03125 4.6774 0.39083 9.4541 2.4418 13.15 5.6387 0.49601 0.42911 0.66068 0.53906 0.78711 0.53906 0.12635 0 0.28914-0.11003 0.78516-0.53906 3.6963-3.1969 8.473-5.2479 13.15-5.6387 0.9169-0.076611 2.7203-0.031052 3.4902 0.082032 2.1427 0.31491 3.9373 1.0491 5.3535 2.1621-1.544-1.7655-3.7542-2.8975-6.5645-3.3105-0.76989-0.11308-2.5733-0.15864-3.4902-0.082031-4.6774 0.3908-9.4541 2.4418-13.15 5.6387-0.49602 0.42904-0.65881 0.53711-0.78516 0.53711-0.12642 0-0.29305-0.108-0.78906-0.53711-3.6963-3.1969-8.473-5.2478-13.15-5.6387-0.34382-0.028885-0.81065-0.040994-1.3027-0.039063zm30.117 13.34c0.070958 0.23428 0.059228 0.5221-0.035156 0.69922-0.25209 0.47254-0.81198 0.78577-2.2246 1.2305-1.6049 0.50525-2.4481 0.88206-3.5645 1.6055-0.56704 0.36747-1.1469 0.83708-1.6855 1.3457-0.035361 0.18235-0.069898 0.36668-0.097656 0.55859-0.11599 0.80094-0.11238 1.0114 0.044921 1.166 0.093015 0.091313 0.19317 0.125 0.33789 0.125 0.18478 0 0.24598-0.033783 0.65625-0.44336 0.60985-0.60879 1.2927-1.1743 1.9551-1.6035 1.1163-0.7234 1.9596-1.1002 3.5645-1.6055 1.4126-0.4447 1.9745-0.75597 2.2266-1.2285 0.11475-0.21534 0.10594-0.59755-0.023438-0.84375-0.17456-0.33195-0.6316-0.7213-1.1543-1.0059zm-22.418 0.50586c0.75711 0.96552 1.2395 2.2133 1.4668 3.7852 0.11584 0.80099 0.10273 1.0094-0.054688 1.1641-0.093052 0.091389-0.18728 0.13281-0.33203 0.13281-0.18478 0-0.24411-0.041819-0.6543-0.45117-1.1448-1.1428-2.4391-2.0143-3.8926-2.627-0.33143-0.1398-1.0647-0.40256-1.6289-0.58008-0.45942-0.14459-0.81245-0.26978-1.0957-0.38672 0.019577 0.24222 0.11945 0.42286 0.36133 0.65234 0.31389 0.29785 0.82768 0.53045 1.9473 0.88281 0.56416 0.17752 1.2955 0.44027 1.627 0.58008 1.4534 0.61266 2.7478 1.4861 3.8926 2.6289 0.41019 0.40935 0.47147 0.44922 0.65625 0.44922 0.14476 0 0.23703-0.041423 0.33008-0.13281 0.15742-0.15462 0.17248-0.36308 0.05664-1.1641-0.33118-2.2898-1.2026-3.892-2.6797-4.9336zm5.4199 12.229c-0.19596 0-0.28932 0.038287-0.41016 0.22461 0.39289 1.7042 0.11068 3.2921-0.82422 4.5469-0.13567 0.18208-0.25463 0.32185-0.36524 0.42969 0.073938 0.63003 0.23962 1.1482 0.4707 1.3105 0.31904 0.22413 0.61516 0.066238 1.1055-0.5918 1.0733-1.4406 1.2892-3.3177 0.60742-5.3086-0.1745-0.50956-0.2693-0.61133-0.58398-0.61133zm6.6562 0.007813c-0.11395 0.002645-0.22417 0.023798-0.29492 0.068359-0.005722 0.003586-0.011744 0.012759-0.017578 0.017578 0.17823 0.43698 0.35269 0.92141 0.46875 1.3301 0.38102 1.3416 0.38978 2.7065 0.021484 3.5879-0.11162 0.26668-0.27476 0.4123-0.45898 0.43555 0.094519 0.16249 0.19655 0.31966 0.31055 0.47266 0.16196 0.21739 0.38243 0.4578 0.48633 0.53906h0.003906c0.34488 0.27048 0.67918 0.15501 0.86914-0.29883 0.36829-0.88138 0.36149-2.2463-0.019532-3.5879-0.27484-0.96774-0.87903-2.3772-1.0762-2.5098-0.061152-0.041272-0.17905-0.057677-0.29297-0.054687zm-17.965 2.0176c0.016332 0.35993 0.02923 0.86953 0.037109 1.4707 0.017764 1.2857 0.04739 1.9762 0.10352 2.3105 0.36333 2.1559 0.98902 3.7581 2.1133 5.4199 0.71345 1.0546 1.5627 1.9903 2.5215 2.7891-0.47463-0.5086-0.91495-1.0559-1.3105-1.6406-1.1243-1.6618-1.748-3.264-2.1113-5.4199-0.056126-0.33431-0.085752-1.0229-0.10352-2.3086-0.013833-1.0554-0.046377-1.8934-0.078125-1.9727-0.060383-0.15348-0.090761-0.1666-1.1719-0.64844z" fill="#264624" filter="url(#filter3878)" stroke-width="1.6608"/>
  <path id="path3982" transform="scale(.26458)" d="m64.314 18.062v0.003906a10.532 10.575 0 0 0-5.5137 1.4082l-30.988 17.965a10.532 10.575 0 0 0-5.2656 9.1602v35.932a10.532 10.575 0 0 0 5.2656 9.1543l30.988 17.967a10.532 10.575 0 0 0 10.533 0l30.988-17.967a10.532 10.575 0 0 0 5.2656-9.1543v-35.932a10.532 10.575 0 0 0-5.2656-9.1602l-30.988-17.965a10.532 10.575 0 0 0-5.0195-1.4121zm-15.486 24.912c0.49208-0.001931 0.95892 0.010178 1.3027 0.039063 4.6774 0.39083 9.4541 2.4418 13.15 5.6387 0.49601 0.42911 0.66264 0.53711 0.78906 0.53711 0.12635 0 0.28914-0.10807 0.78516-0.53711 3.6963-3.1969 8.473-5.2479 13.15-5.6387 0.9169-0.076611 2.7203-0.031052 3.4902 0.082031 5.8786 0.86396 9.1396 4.8718 9.1445 11.248 0.001315 1.6036-0.1555 2.7093-0.58008 4.0938-1.0665 3.4773-3.4783 6.5545-7.1445 9.1094-1.2257 0.85412-2.854 1.7787-4.1699 2.3652-1.1182 0.49843-1.1442 0.50504-1.2051 0.66016-0.030993 0.079343-0.068867 0.91728-0.083985 1.9727-0.016819 1.2857-0.043105 1.9762-0.099609 2.3105-0.36333 2.1559-0.99488 3.7581-2.1191 5.4199-2.1096 3.1183-5.351 5.1618-9.1699 5.7676-0.50706 0.078954-2.8053 0.14712-3.1953 0.09375-0.087795-0.011906-0.42795-0.053096-0.75586-0.097657-0.32792-0.044258-0.8813-0.14935-1.2266-0.23242-3.2899-0.79331-6.116-2.7493-7.998-5.5312-1.1243-1.6618-1.75-3.264-2.1133-5.4199-0.056126-0.33431-0.085752-1.0249-0.10352-2.3105-0.013833-1.0554-0.046377-1.8934-0.078125-1.9727-0.061073-0.15524-0.081094-0.16181-1.1992-0.66016-1.7728-0.79015-3.6843-1.945-5.2617-3.1738-3.7904-2.9528-5.9841-6.4826-6.5488-10.539-0.1245-0.89372-0.12423-2.8016 0-3.7363 0.4702-3.5379 1.8947-6.0577 4.3398-7.6719 1.3104-0.86506 2.867-1.424 4.7129-1.6953 0.38494-0.05639 1.0287-0.10087 1.6914-0.11523 0.16567-0.003638 0.33207-0.005216 0.49609-0.00586zm26.473 11.607c-0.20396 0.007862-0.38841 0.034169-0.54492 0.078125-0.37825 0.1065-1.2541 0.54369-1.8066 0.91016-1.565 1.0379-2.4804 2.6717-2.8223 5.0352-0.11599 0.80094-0.11238 1.0095 0.044922 1.1641 0.093014 0.091314 0.19317 0.12695 0.33789 0.12695 0.18478 0 0.24403-0.035736 0.6543-0.44531 0.60985-0.6088 1.2947-1.1723 1.957-1.6016 1.1163-0.7234 1.9596-1.1002 3.5645-1.6055 1.4126-0.4447 1.9725-0.75793 2.2246-1.2305 0.11475-0.21534 0.10789-0.5956-0.021484-0.8418-0.21605-0.41085-0.86394-0.91372-1.5352-1.1914-0.43937-0.18172-0.93266-0.31139-1.3945-0.36914-0.23097-0.029027-0.45426-0.036478-0.6582-0.029297zm-22.564 0.001953c-0.083134-0.001416-0.16863 3.16e-4 -0.25586 0.003907-0.34896 0.014626-0.72347 0.067454-1.0039 0.14648-1.3959 0.39349-2.3574 1.1594-2.3574 1.8809 0 0.29186 0.095061 0.48792 0.36719 0.74609 0.31389 0.29785 0.82573 0.53045 1.9453 0.88281 0.56416 0.17752 1.2975 0.44027 1.6289 0.58008 1.4534 0.61266 2.7478 1.4841 3.8926 2.627 0.41019 0.40935 0.46952 0.45117 0.6543 0.45117 0.14476 0 0.23898-0.041424 0.33203-0.13281 0.15742-0.15462 0.17053-0.36308 0.054688-1.1641-0.34182-2.3634-1.2573-3.9972-2.8223-5.0352-0.55251-0.36641-1.4284-0.80556-1.8066-0.91211-0.15593-0.044164-0.3795-0.06997-0.62891-0.074219zm8 13.316c-0.26428 0-0.34119 0.065304-0.55273 0.47656-0.42025 0.81704-0.86766 2.153-1.0156 3.0332-0.20509 1.2192 0.014566 2.7015 0.43945 3 0.31904 0.22413 0.61516 0.068191 1.1055-0.58984 1.0733-1.4406 1.2892-3.3196 0.60742-5.3105-0.1745-0.50956-0.2693-0.60938-0.58398-0.60938zm6.6562 0.005859c-0.11395 0.002646-0.22417 0.023799-0.29492 0.068359-0.080126 0.050215-0.17147 0.22032-0.2793 0.53516-0.68176 1.9909-0.46981 3.87 0.60352 5.3105 0.16196 0.21739 0.38243 0.4578 0.48633 0.53906h0.001953c0.34488 0.27047 0.68114 0.15501 0.87109-0.29883 0.36829-0.88138 0.35954-2.2463-0.021484-3.5879-0.27484-0.96774-0.87903-2.3772-1.0762-2.5098-0.061153-0.041273-0.1771-0.059631-0.29102-0.056641z" fill="url(#linearGradient3988)" stroke-width="1.6608"/>
  <path id="path4263" transform="scale(.26458)" d="m86.994 45.373c2.3757 1.9469 3.6434 4.9987 3.6465 8.9707 0.001315 1.6036-0.1555 2.7093-0.58008 4.0938-1.0665 3.4773-3.4783 6.5545-7.1445 9.1094-1.2257 0.85412-2.854 1.7787-4.1699 2.3652-1.1182 0.49843-1.1442 0.50504-1.2051 0.66016-0.030993 0.079343-0.068867 0.91728-0.083985 1.9727-0.016819 1.2857-0.043105 1.9762-0.099609 2.3105-0.36333 2.1559-0.99488 3.7581-2.1191 5.4199-2.1096 3.1183-5.351 5.1618-9.1699 5.7676-0.50706 0.078954-2.8053 0.14712-3.1953 0.09375-0.087795-0.011906-0.42795-0.053096-0.75586-0.097657-0.32792-0.044258-0.8813-0.14935-1.2266-0.23242-1.5094-0.36398-2.9194-0.97604-4.1875-1.7969 1.5049 1.1804 3.2578 2.037 5.1699 2.498 0.34526 0.083075 0.89864 0.18816 1.2266 0.23242 0.32791 0.044561 0.66806 0.085751 0.75586 0.097657 0.39002 0.053367 2.6883-0.014796 3.1953-0.09375 3.8189-0.60575 7.0604-2.6493 9.1699-5.7676 1.1243-1.6618 1.7558-3.264 2.1191-5.4199 0.056504-0.3343 0.08279-1.0249 0.099609-2.3105 0.015118-1.0554 0.052992-1.8933 0.083985-1.9727 0.060888-0.15511 0.086923-0.16368 1.2051-0.66211 1.316-0.58654 2.9442-1.5092 4.1699-2.3633 3.6662-2.5548 6.078-5.6321 7.1445-9.1094 0.42458-1.3844 0.58139-2.4902 0.58008-4.0938-0.003458-4.4877-1.6222-7.8005-4.6289-9.6719zm-24.975 2.2676c0.43204 0.32379 0.85435 0.65938 1.2617 1.0117 0.49601 0.42911 0.66264 0.53711 0.78906 0.53711-0.65324-0.55246-1.3389-1.0699-2.0508-1.5488zm13.281 6.9414c-0.20396 0.007862-0.38841 0.034169-0.54492 0.078125-0.37825 0.1065-1.2541 0.54369-1.8066 0.91016-1.565 1.0379-2.4804 2.6717-2.8223 5.0352-0.11599 0.80094-0.11238 1.0095 0.044922 1.1641 0.093014 0.091314 0.19317 0.12695 0.33789 0.12695 0.1692 0 0.2456-0.043893 0.57031-0.36328 0.010041-0.076566 0.016106-0.13548 0.029297-0.22656 0.34186-2.3635 1.2573-3.9972 2.8223-5.0352 0.55252-0.36646 1.4284-0.80561 1.8066-0.91211 0.15651-0.043956 0.34096-0.070264 0.54492-0.078125 0.20394-0.007181 0.42723 2.7e-4 0.6582 0.029297 0.46187 0.057751 0.95516 0.18937 1.3945 0.37109 0.090553 0.037462 0.18086 0.078195 0.26953 0.12305-0.30652-0.31245-0.77223-0.62576-1.252-0.82422-0.43937-0.18172-0.93266-0.31139-1.3945-0.36914-0.23097-0.029027-0.45426-0.036478-0.6582-0.029297zm-22.564 0.001953c-0.083134-0.001416-0.16863 3.16e-4 -0.25586 0.003907-0.34896 0.014626-0.72347 0.067454-1.0039 0.14648-1.3959 0.39349-2.3574 1.1594-2.3574 1.8809 0 0.29186 0.095061 0.48792 0.36719 0.74609 0.17322 0.16436 0.41053 0.30926 0.77344 0.46484-0.11272-0.15898-0.1582-0.31192-0.1582-0.50977 0-0.72145 0.96343-1.4893 2.3594-1.8828 0.28044-0.07903 0.65299-0.1299 1.002-0.14453 0.34893-0.014362 0.67686 0.011428 0.88476 0.070313 0.30399 0.085626 0.92853 0.38474 1.4492 0.68945-0.19573-0.17118-0.40344-0.33158-0.625-0.47852-0.55251-0.36641-1.4284-0.80556-1.8066-0.91211-0.15593-0.044164-0.3795-0.06997-0.62891-0.074219zm3.125 5.8984c0.37762 0.29873 0.74232 0.61987 1.0918 0.96875 0.41019 0.40935 0.46952 0.45117 0.6543 0.45117 0.021554 0 0.041115-0.002034 0.060547-0.003906-0.56672-0.53454-1.168-1.0073-1.8066-1.416zm-10.379 7.2305c1.503 1.1248 3.2584 2.1675 4.8984 2.8984 0.10141 0.0452 0.15212 0.067859 0.23633 0.10547-0.005847-0.064303-0.013596-0.12971-0.019532-0.14453-0.061073-0.15524-0.081094-0.16181-1.1992-0.66016-1.2933-0.5764-2.6588-1.3479-3.916-2.1992zm15.254 0.1875c-0.26428 0-0.34119 0.065304-0.55273 0.47656-0.42025 0.81704-0.86766 2.153-1.0156 3.0332-0.20509 1.2192 0.014566 2.7015 0.43945 3 0.1942 0.13642 0.3791 0.12992 0.60547-0.042968-0.15289-0.61537-0.1918-1.4872-0.0625-2.2559 0.14797-0.88019 0.59538-2.2162 1.0156-3.0332 0.089467-0.17393 0.1553-0.284 0.2207-0.35547-0.022025-0.070666-0.042105-0.14192-0.066407-0.21289-0.1745-0.50956-0.2693-0.60938-0.58398-0.60938zm6.6562 0.005859c-0.11395 0.002646-0.22417 0.023799-0.29492 0.068359-0.080126 0.050215-0.17147 0.22032-0.2793 0.53516-0.68176 1.9909-0.46981 3.87 0.60352 5.3105 0.16196 0.21739 0.38243 0.4578 0.48633 0.53906h0.001953c0.16315 0.12795 0.32445 0.16465 0.46875 0.125-1.05-1.4358-1.2542-3.2992-0.57812-5.2734 0.10783-0.31484 0.19917-0.48494 0.2793-0.53516 0.00283-0.001782 0.006811-0.002199 0.009766-0.003906-0.17004-0.37355-0.32424-0.65383-0.40625-0.70898-0.061153-0.041273-0.1771-0.059631-0.29102-0.056641z" fill="#fff" fill-opacity=".28743" stroke-width="1.6608"/>
 </g>
</svg>
