<?xml version="1.0" encoding="UTF-8"?>
<svg id="svg1829" width="128" height="128" version="1.1" viewBox="0 0 33.867 33.867" xmlns="http://www.w3.org/2000/svg" xmlns:cc="http://creativecommons.org/ns#" xmlns:dc="http://purl.org/dc/elements/1.1/" xmlns:rdf="http://www.w3.org/1999/02/22-rdf-syntax-ns#" xmlns:xlink="http://www.w3.org/1999/xlink">
 <defs id="defs1823">
  <radialGradient id="radialGradient908" cx="16.937" cy="3.2428" r="14.544" gradientTransform="matrix(4.4792 0 0 2.0392 -58.927 -3.3698)" gradientUnits="userSpaceOnUse">
   <stop id="stop930" stop-color="#0dbbff" offset="0"/>
   <stop id="stop932" stop-color="#0245ff" offset="1"/>
  </radialGradient>
  <linearGradient id="linearGradient2792" x1="6.6812" x2="6.6812" y1="8.0922" y2="24.878" gradientUnits="userSpaceOnUse">
   <stop id="stop2786" stop-color="#0ba3ff" offset="0"/>
   <stop id="stop2788" stop-color="#0567ff" offset="1"/>
  </linearGradient>
 </defs>
 <metadata id="metadata1826">
  <rdf:RDF>
   <cc:Work rdf:about="">
    <dc:format>image/svg+xml</dc:format>
    <dc:type rdf:resource="http://purl.org/dc/dcmitype/StillImage"/>
   </cc:Work>
  </rdf:RDF>
 </metadata>
 <g id="layer1">
  <g id="g1702" transform="matrix(.97573 0 0 .97573 -65.587 -37.192)" fill="none" opacity=".29676" stroke="#000" stroke-linecap="round" stroke-linejoin="round" stroke-opacity=".02">
   <rect id="rect1634" x="69.84" y="40.71" width="29.811" height="29.811" rx="6.6099" ry="6.6099" stroke-width=".1"/>
   <rect id="rect1638" x="69.84" y="40.71" width="29.811" height="29.811" rx="6.6099" ry="6.6099" stroke-width=".2"/>
   <rect id="rect1640" x="69.84" y="40.71" width="29.811" height="29.811" rx="6.6099" ry="6.6099" stroke-width=".3"/>
   <rect id="rect1642" x="69.84" y="40.71" width="29.811" height="29.811" rx="6.6099" ry="6.6099" stroke-width=".4"/>
   <rect id="rect1644" x="69.84" y="40.71" width="29.811" height="29.811" rx="6.6099" ry="6.6099" stroke-width=".5"/>
   <rect id="rect1646" x="69.84" y="40.71" width="29.811" height="29.811" rx="6.6099" ry="6.6099" stroke-width=".6"/>
   <rect id="rect1648" x="69.84" y="40.71" width="29.811" height="29.811" rx="6.6099" ry="6.6099" stroke-width=".7"/>
   <rect id="rect1650" x="69.84" y="40.71" width="29.811" height="29.811" rx="6.6099" ry="6.6099" stroke-width=".8"/>
   <rect id="rect1652" x="69.84" y="40.71" width="29.811" height="29.811" rx="6.6099" ry="6.6099"/>
   <rect id="rect1654" x="69.84" y="40.71" width="29.811" height="29.811" rx="6.6099" ry="6.6099" stroke-width="1.2"/>
   <rect id="rect1656" x="69.84" y="40.71" width="29.811" height="29.811" rx="6.6099" ry="6.6099" stroke-width="1.4"/>
   <rect id="rect1658" x="69.84" y="40.71" width="29.811" height="29.811" rx="6.6099" ry="6.6099" stroke-width="1.6"/>
   <rect id="rect1660" x="69.84" y="40.71" width="29.811" height="29.811" rx="6.6099" ry="6.6099" stroke-width="1.8"/>
   <rect id="rect1662" x="69.84" y="40.71" width="29.811" height="29.811" rx="6.6099" ry="6.6099" stroke-width="2"/>
   <rect id="rect1664" x="69.84" y="40.71" width="29.811" height="29.811" rx="6.6099" ry="6.6099" stroke-width="2.2"/>
   <rect id="rect1666" x="69.84" y="40.71" width="29.811" height="29.811" rx="6.6099" ry="6.6099" stroke-width="2.6"/>
   <rect id="rect1668" x="69.84" y="40.71" width="29.811" height="29.811" rx="6.6099" ry="6.6099" stroke-width="3"/>
   <rect id="rect1670" x="69.84" y="40.71" width="29.811" height="29.811" rx="6.6099" ry="6.6099" stroke-width="3.4"/>
   <rect id="rect1672" x="69.84" y="40.71" width="29.811" height="29.811" rx="6.6099" ry="6.6099" stroke-width="3.8"/>
   <rect id="rect1674" x="69.84" y="40.71" width="29.811" height="29.811" rx="6.6099" ry="6.6099" stroke-width="4.2"/>
   <rect id="rect1676" x="69.84" y="40.71" width="29.811" height="29.811" rx="6.6099" ry="6.6099" stroke-width="4.6"/>
   <rect id="rect1678" x="69.84" y="40.71" width="29.811" height="29.811" rx="6.6099" ry="6.6099" stroke-width="5"/>
  </g>
  <rect id="rect849-5" x="2.5579" y="2.5293" width="29.087" height="29.087" rx="6.4495" ry="6.4495" fill="url(#radialGradient908)" stroke-linecap="round" stroke-linejoin="round" stroke-width="2.6877"/>
  <path id="path4" d="m21.734 27.929c-1.5389-0.2402-2.9029-1.0914-3.7252-2.3247-0.35159-0.52731-0.25039-0.50608-0.90995-0.19087-0.66568 0.31814-1.336 0.54337-2.0231 0.67977-0.67128 0.13327-1.8261 0.16477-2.5406 0.06931-3.568-0.47668-6.3326-3.1445-6.97-6.7262-0.1128-0.63378-0.11223-2.0234 0.00108-2.6474 0.61218-3.3713 3.1117-5.9475 6.4214-6.6181 0.27706-0.05614 0.51923-0.12738 0.53815-0.15831 0.01891-0.030933 0.12064-0.20921 0.22605-0.39618 0.2986-0.52967 0.66344-1.0119 1.1524-1.5233 0.74434-0.77846 1.4007-1.2633 2.3106-1.7069 1.9535-0.95233 4.0818-1.089 6.1574-0.39527 1.1842 0.39577 2.2274 1.045 3.1315 1.9487 0.67052 0.67028 1.1068 1.2764 1.5381 2.1369 1.2838 2.5613 1.0879 5.6717-0.50754 8.0567-0.1706 0.25503-0.31018 0.47712-0.31018 0.49354 0 0.01642 0.11562 0.15599 0.25693 0.31015 0.46426 0.50647 0.89843 1.2409 1.122 1.8979 0.20294 0.59645 0.26176 0.98569 0.26176 1.7323 0 0.51148-0.02132 0.79867-0.07895 1.0639-0.23856 1.0975-0.7101 1.9653-1.4934 2.7483-0.78002 0.77973-1.6552 1.2554-2.7404 1.4895-0.3879 0.08368-1.4433 0.11857-1.8179 0.06011z" fill="#f8fcfe" stroke-width=".40005"/>
  <path id="path8" d="m19.989 6.7554c-4.4872 0.31233-5.4751 2.5996-6.9673 4.4084-3.3984 0.55207-6.1818 3.2558-6.3406 6.511 0.38337 2.4752 2.6211 4.3404 5.0053 4.8717 2.0784 0.47545 4.3356 0.09269 6.1781-0.97044 0 0 1.0068 1.2625 1.9229 1.9542 1.977 1.4571 5.1907 0.95032 6.4352-1.2095 0.56523-0.7078 0.13418-1.5971-0.34067-2.2222-0.37593-0.50402-0.85099-0.92174-1.2986-1.3611 1.0825-1.3607 2.0256-2.9313 2.0862-4.7084 0.15351-2.3175-0.99096-4.6372-2.8972-5.9867-1.0948-0.78719-2.4338-1.2262-3.7833-1.2869zm-1.9792 2.8027c0.16523-0.014218 0.33533 0.042708 0.47272 0.19768 0.34514 0.36722-0.0397 0.78475-0.15158 1.1611-0.35307 0.87777-0.77534 1.7311-1.0853 2.6238 0.31198 0.05884 0.87143-0.29233 1.2681-0.38052 1.0577-0.37374 2.1078-0.77013 3.1762-1.115 0.49783 0.01134 0.76838 0.55212 0.46725 0.9298-0.75281 1.4998-1.6677 2.9217-2.4026 4.4295l1.0619 0.65164-3.209 1.901-0.13204-3.6614 1.1666 0.51256c0.51097-0.8042 0.9545-1.6576 1.4283-2.4863 0.08692-0.19703 0.51087-0.71206 0.0133-0.48522-1.3198 0.42916-2.6001 0.96899-3.9349 1.3549-0.41022 0.08336-0.82353-0.37884-0.60711-0.74619 0.60034-1.4577 1.21-2.9131 1.8729-4.3459 0.0607-0.29632 0.32-0.51775 0.59539-0.54147z" fill="url(#linearGradient2792)" stroke-width=".40005"/>
 </g>
</svg>
