<?xml version="1.0" encoding="UTF-8"?>
<svg id="svg1711" width="128" height="128" version="1.1" viewBox="0 0 33.867 33.867" xmlns="http://www.w3.org/2000/svg" xmlns:cc="http://creativecommons.org/ns#" xmlns:dc="http://purl.org/dc/elements/1.1/" xmlns:rdf="http://www.w3.org/1999/02/22-rdf-syntax-ns#" xmlns:xlink="http://www.w3.org/1999/xlink">
 <defs id="defs1705">
  <linearGradient id="linearGradient4677" x1="17.821" x2="17.821" y1="29.11" y2="4.0044" gradientTransform="translate(-.070804 .0003299)" gradientUnits="userSpaceOnUse">
   <stop id="stop4671" stop-color="#5aaf33" offset="0"/>
   <stop id="stop4673" stop-color="#98d742" offset="1"/>
  </linearGradient>
 </defs>
 <metadata id="metadata1708">
  <rdf:RDF>
   <cc:Work rdf:about="">
    <dc:format>image/svg+xml</dc:format>
    <dc:type rdf:resource="http://purl.org/dc/dcmitype/StillImage"/>
   </cc:Work>
  </rdf:RDF>
 </metadata>
 <g id="layer1">
  <g id="g1702" transform="matrix(.97573 0 0 .97573 -65.819 -37.203)" fill="none" opacity=".295" stroke="#000" stroke-linecap="round" stroke-linejoin="round" stroke-opacity=".02">
   <rect id="rect1634" x="69.84" y="40.71" width="29.811" height="29.811" rx="6.6099" ry="6.6099" stroke-width=".1"/>
   <rect id="rect1638" x="69.84" y="40.71" width="29.811" height="29.811" rx="6.6099" ry="6.6099" stroke-width=".2"/>
   <rect id="rect1640" x="69.84" y="40.71" width="29.811" height="29.811" rx="6.6099" ry="6.6099" stroke-width=".3"/>
   <rect id="rect1642" x="69.84" y="40.71" width="29.811" height="29.811" rx="6.6099" ry="6.6099" stroke-width=".4"/>
   <rect id="rect1644" x="69.84" y="40.71" width="29.811" height="29.811" rx="6.6099" ry="6.6099" stroke-width=".5"/>
   <rect id="rect1646" x="69.84" y="40.71" width="29.811" height="29.811" rx="6.6099" ry="6.6099" stroke-width=".6"/>
   <rect id="rect1648" x="69.84" y="40.71" width="29.811" height="29.811" rx="6.6099" ry="6.6099" stroke-width=".7"/>
   <rect id="rect1650" x="69.84" y="40.71" width="29.811" height="29.811" rx="6.6099" ry="6.6099" stroke-width=".8"/>
   <rect id="rect1652" x="69.84" y="40.71" width="29.811" height="29.811" rx="6.6099" ry="6.6099"/>
   <rect id="rect1654" x="69.84" y="40.71" width="29.811" height="29.811" rx="6.6099" ry="6.6099" stroke-width="1.2"/>
   <rect id="rect1656" x="69.84" y="40.71" width="29.811" height="29.811" rx="6.6099" ry="6.6099" stroke-width="1.4"/>
   <rect id="rect1658" x="69.84" y="40.71" width="29.811" height="29.811" rx="6.6099" ry="6.6099" stroke-width="1.6"/>
   <rect id="rect1660" x="69.84" y="40.71" width="29.811" height="29.811" rx="6.6099" ry="6.6099" stroke-width="1.8"/>
   <rect id="rect1662" x="69.84" y="40.71" width="29.811" height="29.811" rx="6.6099" ry="6.6099" stroke-width="2"/>
   <rect id="rect1664" x="69.84" y="40.71" width="29.811" height="29.811" rx="6.6099" ry="6.6099" stroke-width="2.2"/>
   <rect id="rect1666" x="69.84" y="40.71" width="29.811" height="29.811" rx="6.6099" ry="6.6099" stroke-width="2.6"/>
   <rect id="rect1668" x="69.84" y="40.71" width="29.811" height="29.811" rx="6.6099" ry="6.6099" stroke-width="3"/>
   <rect id="rect1670" x="69.84" y="40.71" width="29.811" height="29.811" rx="6.6099" ry="6.6099" stroke-width="3.4"/>
   <rect id="rect1672" x="69.84" y="40.71" width="29.811" height="29.811" rx="6.6099" ry="6.6099" stroke-width="3.8"/>
   <rect id="rect1674" x="69.84" y="40.71" width="29.811" height="29.811" rx="6.6099" ry="6.6099" stroke-width="4.2"/>
   <rect id="rect1676" x="69.84" y="40.71" width="29.811" height="29.811" rx="6.6099" ry="6.6099" stroke-width="4.6"/>
   <rect id="rect1678" x="69.84" y="40.71" width="29.811" height="29.811" rx="6.6099" ry="6.6099" stroke-width="5"/>
  </g>
  <rect id="rect849" x="2.3255" y="2.5189" width="29.087" height="29.087" rx="6.4495" ry="6.4495" fill="url(#linearGradient4677)" stroke-linecap="round" stroke-linejoin="round" stroke-width="2.688"/>
  <path id="path8" d="m23.837 6.1106c-0.53565 0-0.99196 0.38341-1.0847 0.9115-0.0068 0.038549-0.01147 0.078026-0.01388 0.11762l-2.9457 0.97627c-0.1896-0.24447-0.46177-0.41115-0.76365-0.46443-0.07144-0.012775-0.1448-0.019234-0.21816-0.019234-0.60633 0-1.1225 0.43401-1.2274 1.0318-0.08997 0.50824 0.14958 1.0184 0.58881 1.2825l-2.8075 14.962c-0.37268 0.02123-0.7149 0.20937-0.93379 0.50924l-3.4824-1.9917c0.0052-0.02038 0.0091-0.04024 0.01227-0.05977 0.04704-0.2657-0.01207-0.53248-0.1661-0.75068-0.0818-0.11631-0.18775-0.21372-0.31068-0.28611l0.27592-2.456c0.14801-0.02768 0.28769-0.088 0.40805-0.17684l4.4191 2.1454 0.1287-0.73197-1.9245-1.0793 0.28889-1.6207c0.40242-0.05004 0.71483-0.39461 0.71483-0.8107 0-0.45054-0.36613-0.81716-0.8161-0.81716-0.39729 0-0.73479 0.28509-0.80347 0.685 0 0-0.0068 0.05369-0.0095 0.09098-0.0022 0.01354-3e-3 0.02707-3e-3 0.04114l0.0015 0.02882c1.37e-4 0.0038 4.85e-4 0.0076 6.92e-4 0.01119l-1.7432 0.71133c-0.0078-0.01278-0.0163-0.02494-0.02463-0.03673-0.15361-0.22021-0.38386-0.36699-0.64718-0.41302-0.05561-0.01012-0.1147-0.01505-0.17566-0.01505-0.48799 0-0.90313 0.34884-0.98704 0.8286-0.073936 0.41251 0.12512 0.83015 0.48108 1.0396l-0.27485 2.4524c-0.41169 0.07299-0.73533 0.39144-0.80749 0.81056-0.047722 0.26395 0.011065 0.53056 0.16515 0.75041 0.15379 0.21976 0.38411 0.36649 0.64826 0.41315 0.25387 0.04539 0.53602-0.01589 0.75343-0.17105l3.6402 2.0769c-0.01609 0.27966 0.06072 0.55424 0.22124 0.78392 0.19153 0.2735 0.47758 0.45595 0.80508 0.51328 0.07355 0.01308 0.14483 0.01931 0.21802 0.01931 0.60615 0 1.1223-0.43381 1.2272-1.0303 0.0068-0.03833 0.01127-0.07605 0.01388-0.11142l3.1568-1.3511c0.16316 0.18026 0.38017 0.30116 0.62311 0.34426 0.06301 0.01066 0.12761 0.0165 0.19179 0.0165 0.53564 0 0.99196-0.38346 1.0847-0.91164 0.051-0.28977-0.01388-0.58221-0.18318-0.82429-0.06329-0.08993-0.13769-0.16855-0.22178-0.2347l2.7723-15.018c0.42115-0.10261 0.74385-0.44217 0.81987-0.87664 0.10587-0.59872-0.29495-1.172-0.89358-1.2779l-7.44e-4 -2.81e-4c-0.06209-0.010643-0.12824-0.016276-0.19085-0.016276zm-1.45e-4 0.70128c0.0238 0 0.0475 0.00223 0.0706 0.00608 0.06565 0.011488 0.12703 0.040988 0.1891 0.091779 0.10944 0.0949 0.16041 0.23436 0.13598 0.37318-0.02479 0.13992-0.12212 0.25761-0.25406 0.30657-0.06512 0.024635-0.13892 0.031715-0.21062 0.019012-0.20889-0.036583-0.35201-0.2304-0.32951-0.43913l0.0052-0.02852c0.03489-0.19063 0.2004-0.32904 0.39339-0.32904zm-0.79068 1.164c0.05388 0.055966 0.11377 0.10592 0.17914 0.14966l-2.7621 14.958c-0.45669 0.07643-0.81813 0.42812-0.9003 0.894-0.0046 0.02875-0.0084 0.05788-0.01086 0.08681l-3.1244 1.3398c-0.06072-0.0814-0.13017-0.15405-0.20739-0.21735l2.8281-15.085c0.50297-0.09646 0.90229-0.49429 0.99163-1.0041 0.0076-0.042809 0.01308-0.085977 0.0163-0.12906zm-4.2354 0.35774c0.03291 0 0.06438 0.00308 0.09617 0.00905 0.12918 0.022581 0.24671 0.093804 0.33098 0.20092 0.09568 0.12118 0.13594 0.26952 0.11419 0.41854l-0.0038 0.026392c-0.04156 0.20671-0.19952 0.37093-0.40711 0.42109-0.08904 0.022356-0.1553 0.021676-0.22353 0.00948-0.0741-0.013238-0.14421-0.041595-0.20792-0.084519-0.18006-0.12099-0.27246-0.33671-0.23537-0.54921 0.04666-0.26174 0.27234-0.45165 0.53677-0.45165zm-4.8318 9.046c0.1213 0 0.21989 0.09864 0.21989 0.21963 0 0.12155-0.0986 0.22044-0.21989 0.22044-0.1212 0-0.21989-0.0989-0.21989-0.22044 0-0.12099 0.0987-0.21963 0.21989-0.21963zm-0.6141 0.75404c0.02722 0.03034 0.05927 0.06152 0.10007 0.09622 0.03139 0.02562 0.06301 0.04829 0.09494 0.06799l-0.26106 1.4567-1.7443-0.6459c3e-3 -0.01529 0.0068-0.03056 0.0095-0.04615 0.01107-0.06456 0.01529-0.13218 0.01227-0.202zm-2.7905 0.45321c0.01791 0 0.03664 0.0015 0.05275 0.0046 0.0806 0.0143 0.14824 0.05771 0.19515 0.12448 0.0443 0.06327 0.06285 0.13937 0.05313 0.21277l-0.01006 0.03012c-0.01911 0.08204-0.07182 0.14962-0.14888 0.19097l-0.06939 0.0273c-0.05782 0.01609-0.09403 0.01529-0.12359 0.01026-0.04058-0.0068-0.08116-0.02396-0.11687-0.04822-0.09906-0.06708-0.14968-0.18582-0.12884-0.30213l2.74e-4 -7.45e-4c0.02501-0.14435 0.14957-0.24912 0.29629-0.24912zm-0.6014 4.3022c0.0169 0 0.035027 0.0022 0.052892 0.0052 0.04058 0.0076 0.08116 0.0244 0.11836 0.04935 0.03253 0.02267 0.05768 0.04716 0.07719 0.07498 0.04414 0.06273 0.06233 0.1384 0.05152 0.21439-6e-3 0.01368-0.01187 0.02782-0.01529 0.04022-0.02591 0.08846-0.08404 0.15658-0.16503 0.19232-0.06671 0.02974-0.12367 0.03163-0.17268 0.02396-0.079046-0.01348-0.14783-0.05756-0.19449-0.1249-0.046213-0.06563-0.063917-0.14534-0.049633-0.22583 0.019515-0.11466 0.1059-0.20466 0.23913-0.23846 0.023479-6e-3 0.043839-0.01127 0.057982-0.01127zm10.682 0.87166c0.22577 0 0.40886 0.18312 0.40886 0.40912 0 0.22591-0.18308 0.40912-0.40886 0.40912-0.22587 0-0.409-0.1832-0.409-0.40912 0-0.22601 0.18312-0.40912 0.409-0.40912zm-6e-3 6e-3c0.02517-3.44e-4 0.04802 0.0022 0.06969 0.0052 0.04575 0.0082 0.08901 0.02434 0.12832 0.04722-0.03929-0.02295-0.08259-0.03909-0.12832-0.04738-0.02159-0.0038-0.04452-0.0052-0.06969-0.0052zm-0.08339 0.0097c-0.03762 0.0078-0.07311 0.02106-0.10572 0.03847 0.03267-0.0175 0.0681-0.03058 0.10572-0.03847zm-0.04142 0.77275c0.01811 6e-3 0.03655 0.01086 0.05541 0.01428 0.0203 0.0038 0.04285 0.0052 0.0652 0.0052-0.02241-3.44e-4 -0.04482-0.0022-0.0652-0.0052-0.01891-3e-3 -0.03732-8e-3 -0.05541-0.01408zm-5.0884 1.0584c0.03177 0 0.06438 3e-3 0.09575 0.0087 0.1212 0.02122 0.23008 0.08418 0.31419 0.18101l0.02583 0.02988c0.02881 0.03871 0.05207 0.08001 0.06969 0.12421 0.03442 0.08408 0.04756 0.17033 0.03943 0.25705l-0.0087 0.01006v0.04197c-0.05738 0.28719-0.33298 0.48559-0.63091 0.43267-0.14333-0.02517-0.26823-0.1051-0.35223-0.22556-0.05752-0.08166-0.0909-0.17882-0.09631-0.27952-0.0022-0.05165-6.38e-4 -0.09265 0.0052-0.1284 0.01026-0.0578 0.03086-0.1152 0.06172-0.17051 0.09577-0.1729 0.27761-0.28078 0.47611-0.28141z" fill="#fff" stroke-width=".53231"/>
 </g>
</svg>
