<?xml version="1.0" encoding="UTF-8"?>
<svg id="svg1829" width="128" height="128" version="1.1" viewBox="0 0 33.867 33.867" xmlns="http://www.w3.org/2000/svg" xmlns:cc="http://creativecommons.org/ns#" xmlns:dc="http://purl.org/dc/elements/1.1/" xmlns:rdf="http://www.w3.org/1999/02/22-rdf-syntax-ns#" xmlns:xlink="http://www.w3.org/1999/xlink">
 <defs id="defs1823">
  <radialGradient id="radialGradient886" cx="17.31" cy="2.5296" r="14.544" gradientTransform="matrix(7.1618 0 0 1.7511 -106.66 -1.9)" gradientUnits="userSpaceOnUse">
   <stop id="stop880" stop-color="#ffa72a" offset="0"/>
   <stop id="stop882" stop-color="#ff444d" offset="1"/>
  </radialGradient>
  <linearGradient id="linearGradient11581" x1="68.185" x2="68.185" y1="72.629" y2="59.196" gradientUnits="userSpaceOnUse">
   <stop id="stop11575" stop-color="#ff6541" offset="0"/>
   <stop id="stop11577" stop-color="#ff743c" offset="1"/>
  </linearGradient>
  <linearGradient id="linearGradient33686" x1="18.621" x2="19.263" y1="26.424" y2="9.4595" gradientUnits="userSpaceOnUse">
   <stop id="stop33680" stop-color="#ffc1bf" offset="0"/>
   <stop id="stop33682" stop-color="#fff" stop-opacity=".98127" offset="1"/>
  </linearGradient>
  <linearGradient id="linearGradient35757" x1="55.78" x2="55.78" y1="36.517" y2="94.234" gradientUnits="userSpaceOnUse">
   <stop id="stop35751" stop-color="#fefefe" offset="0"/>
   <stop id="stop35753" stop-color="#ffcece" offset="1"/>
  </linearGradient>
 </defs>
 <metadata id="metadata1826">
  <rdf:RDF>
   <cc:Work rdf:about="">
    <dc:format>image/svg+xml</dc:format>
    <dc:type rdf:resource="http://purl.org/dc/dcmitype/StillImage"/>
   </cc:Work>
  </rdf:RDF>
 </metadata>
 <g id="layer1">
  <g id="g1702" transform="matrix(.97573 0 0 .97573 -65.587 -37.192)" fill="none" opacity=".29676" stroke="#000" stroke-linecap="round" stroke-linejoin="round" stroke-opacity=".02">
   <rect id="rect1634" x="69.84" y="40.71" width="29.811" height="29.811" rx="6.6099" ry="6.6099" stroke-width=".1"/>
   <rect id="rect1638" x="69.84" y="40.71" width="29.811" height="29.811" rx="6.6099" ry="6.6099" stroke-width=".2"/>
   <rect id="rect1640" x="69.84" y="40.71" width="29.811" height="29.811" rx="6.6099" ry="6.6099" stroke-width=".3"/>
   <rect id="rect1642" x="69.84" y="40.71" width="29.811" height="29.811" rx="6.6099" ry="6.6099" stroke-width=".4"/>
   <rect id="rect1644" x="69.84" y="40.71" width="29.811" height="29.811" rx="6.6099" ry="6.6099" stroke-width=".5"/>
   <rect id="rect1646" x="69.84" y="40.71" width="29.811" height="29.811" rx="6.6099" ry="6.6099" stroke-width=".6"/>
   <rect id="rect1648" x="69.84" y="40.71" width="29.811" height="29.811" rx="6.6099" ry="6.6099" stroke-width=".7"/>
   <rect id="rect1650" x="69.84" y="40.71" width="29.811" height="29.811" rx="6.6099" ry="6.6099" stroke-width=".8"/>
   <rect id="rect1652" x="69.84" y="40.71" width="29.811" height="29.811" rx="6.6099" ry="6.6099"/>
   <rect id="rect1654" x="69.84" y="40.71" width="29.811" height="29.811" rx="6.6099" ry="6.6099" stroke-width="1.2"/>
   <rect id="rect1656" x="69.84" y="40.71" width="29.811" height="29.811" rx="6.6099" ry="6.6099" stroke-width="1.4"/>
   <rect id="rect1658" x="69.84" y="40.71" width="29.811" height="29.811" rx="6.6099" ry="6.6099" stroke-width="1.6"/>
   <rect id="rect1660" x="69.84" y="40.71" width="29.811" height="29.811" rx="6.6099" ry="6.6099" stroke-width="1.8"/>
   <rect id="rect1662" x="69.84" y="40.71" width="29.811" height="29.811" rx="6.6099" ry="6.6099" stroke-width="2"/>
   <rect id="rect1664" x="69.84" y="40.71" width="29.811" height="29.811" rx="6.6099" ry="6.6099" stroke-width="2.2"/>
   <rect id="rect1666" x="69.84" y="40.71" width="29.811" height="29.811" rx="6.6099" ry="6.6099" stroke-width="2.6"/>
   <rect id="rect1668" x="69.84" y="40.71" width="29.811" height="29.811" rx="6.6099" ry="6.6099" stroke-width="3"/>
   <rect id="rect1670" x="69.84" y="40.71" width="29.811" height="29.811" rx="6.6099" ry="6.6099" stroke-width="3.4"/>
   <rect id="rect1672" x="69.84" y="40.71" width="29.811" height="29.811" rx="6.6099" ry="6.6099" stroke-width="3.8"/>
   <rect id="rect1674" x="69.84" y="40.71" width="29.811" height="29.811" rx="6.6099" ry="6.6099" stroke-width="4.2"/>
   <rect id="rect1676" x="69.84" y="40.71" width="29.811" height="29.811" rx="6.6099" ry="6.6099" stroke-width="4.6"/>
   <rect id="rect1678" x="69.84" y="40.71" width="29.811" height="29.811" rx="6.6099" ry="6.6099" stroke-width="5"/>
  </g>
  <rect id="rect849-5" x="2.5579" y="2.5293" width="29.087" height="29.087" rx="6.4495" ry="6.4495" fill="url(#radialGradient886)" stroke-linecap="round" stroke-linejoin="round" stroke-width="2.6877"/>
  <path id="path6810" d="m22.605 9.4278-2.6484 4.5878 0.86506 0.49971 2.3595-4.0876h4.0979v-0.99994zm-0.55656 7.1344v1.0005h6.3417v-1.0005zm-0.71675 1.9766-0.86506 0.50023 2.3043 3.9941h1.6402l0.45579 1.6991h2.1848v-0.99994h-1.4174l-0.32091-1.1989 0.28009-1.0454h3.7677v-0.99994h-4.5356l-0.41393 1.5451h-1.0625z" color="#000000" fill="url(#linearGradient33686)" style="-inkscape-stroke:none"/>
  <path id="path7014" transform="scale(.26458)" d="m24.764 35.633v3.7793h12.631l1.2129 4.5312-1.0586 3.9512h-5.5703v3.7793h8.4727l1.5645-5.8398h4.0156l7.625 13.207 3.2695-1.8906-8.709-15.096h-6.1992l-1.7227-6.4219h-15.531zm-2.9727 27.098v3.7812h23.969v-3.7812h-23.969zm28.605 11.518-8.918 15.449h-15.488v3.7793h17.666l10.01-17.34-3.2695-1.8887z" color="#000000" fill="url(#linearGradient35757)" stroke-width="3.7795" style="-inkscape-stroke:none"/>
  <rect id="rect1125" x="8.8207" y="12.828" width="16.562" height="8.4906" rx="4.2453" ry="4.2453" fill="#fff" stroke-linecap="round" stroke-linejoin="round" stroke-width="1.5"/>
  <path id="path8023" transform="scale(.26458)" d="m40.545 59.979a0.48696 0.48696 0 0 0-0.47266 0.59766l2.5098 10.549a0.48696 0.48696 0 0 0 0.47266 0.37695h3.1367a0.48696 0.48696 0 0 0 0.47266-0.37695l1.4238-6.0312 1.4395 6.0312a0.48696 0.48696 0 0 0 0.47266 0.37695h3.1367a0.48696 0.48696 0 0 0 0.47266-0.37695l2.4883-10.549a0.48696 0.48696 0 0 0-0.47266-0.59766h-2.584a0.48696 0.48696 0 0 0-0.47852 0.37695l-1.3438 5.6621-1.3359-5.6621a0.48696 0.48696 0 0 0-0.47266-0.37695h-2.6211a0.48696 0.48696 0 0 0-0.48047 0.37695l-1.3359 5.6543-1.3438-5.6543a0.48696 0.48696 0 0 0-0.4707-0.37695h-2.6133zm18.684 0a0.48696 0.48696 0 0 0-0.48828 0.48828v10.549a0.48696 0.48696 0 0 0 0.48828 0.48633h2.7227a0.48696 0.48696 0 0 0 0.48828-0.48633v-10.549a0.48696 0.48696 0 0 0-0.48828-0.48828h-2.7227zm13.898 0a0.48696 0.48696 0 0 0-0.48633 0.48828v10.549a0.48696 0.48696 0 0 0 0.48633 0.48633h2.7168a0.48696 0.48696 0 0 0 0.48828-0.48633v-3.9863h3.8594a0.48696 0.48696 0 0 0 0.48828-0.48828v-2.0508a0.48696 0.48696 0 0 0-0.48828-0.48828h-3.8594v-0.99609h4.1328a0.48696 0.48696 0 0 0 0.48828-0.48828v-2.0508a0.48696 0.48696 0 0 0-0.48828-0.48828h-7.3379zm11.295 0a0.48696 0.48696 0 0 0-0.48633 0.48828v10.549a0.48696 0.48696 0 0 0 0.48633 0.48633h2.7168a0.48696 0.48696 0 0 0 0.48633-0.48633v-10.549a0.48696 0.48696 0 0 0-0.48633-0.48828h-2.7168zm-19.207 5.3516a0.48696 0.48696 0 0 0-0.48828 0.48828v2.0586a0.48696 0.48696 0 0 0 0.48828 0.48828h4.4355a0.48696 0.48696 0 0 0 0.48828-0.48828v-2.0586a0.48696 0.48696 0 0 0-0.48828-0.48828h-4.4355z" color="#000000" fill="url(#linearGradient11581)" stroke-linecap="round" stroke-linejoin="round" stroke-width=".97382" style="-inkscape-stroke:none"/>
  <circle id="path7092" cx="6.2273" cy="24.232" r="1.3232" fill="#fff" stroke="#000" stroke-linecap="round" stroke-linejoin="round"/>
  <circle id="circle7174" cx="6.2273" cy="24.232" r="1.3232" fill="#ff5148" stroke="#ffd1d1" stroke-linecap="round" stroke-linejoin="round"/>
  <circle id="circle7176" cx="5.6716" cy="17.023" r="1.3232" fill="#ff723d" stroke="#fee7e7" stroke-linecap="round" stroke-linejoin="round"/>
  <circle id="circle7178" cx="5.0089" cy="9.7988" r="1.3232" fill="#ff8c33" stroke="#fefdfd" stroke-linecap="round" stroke-linejoin="round"/>
  <circle id="circle7180" cx="7.6024" cy="13.167" r="1.3232" fill="#ff7a3a" stroke="#fef4f4" stroke-linecap="round" stroke-linejoin="round"/>
  <circle id="circle7785" cx="27.717" cy="24.259" r="1.3232" fill="#ff4f49" stroke="#ffc1be" stroke-linecap="round" stroke-linejoin="round"/>
  <circle id="circle7787" cx="29.416" cy="20.654" r="1.3232" fill="#ff6342" stroke="#ffd1c7" stroke-linecap="round" stroke-linejoin="round"/>
  <circle id="circle7789" cx="27.745" cy="16.807" r="1.3232" fill="#ff6d3f" stroke="#fff2ee" stroke-linecap="round" stroke-linejoin="round"/>
  <circle id="circle7791" cx="27.674" cy="9.8307" r="1.3232" fill="#ff8536" stroke="#fff" stroke-linecap="round" stroke-linejoin="round"/>
 </g>
</svg>
