<?xml version="1.0" encoding="UTF-8"?>
<svg id="svg28" width="64px" height="64px" version="1.1" viewBox="0 0 64 64" xml:space="preserve" xmlns="http://www.w3.org/2000/svg" xmlns:cc="http://creativecommons.org/ns#" xmlns:dc="http://purl.org/dc/elements/1.1/" xmlns:rdf="http://www.w3.org/1999/02/22-rdf-syntax-ns#"><metadata id="metadata2"><rdf:RDF><cc:Work rdf:about=""><dc:format>image/svg+xml</dc:format><dc:type rdf:resource="http://purl.org/dc/dcmitype/StillImage"/><dc:title/></cc:Work></rdf:RDF></metadata><defs id="defs16"><style id="style4" type="text/css"/><style id="style6" type="text/css"/><filter id="filter1057-2" x="-.027" y="-.027" width="1.054" height="1.054" color-interpolation-filters="sRGB"><feGaussianBlur id="feGaussianBlur5377" stdDeviation="0.61875"/></filter><linearGradient id="linearGradient1053-0" x1="-127" x2="-127" y1="60" y2="5" gradientTransform="translate(95.116 50.98)" gradientUnits="userSpaceOnUse"><stop id="stop5380" stop-color="#1d2123" offset="0"/><stop id="stop5382" stop-color="#33393e" stop-opacity=".99608" offset="1"/></linearGradient></defs><circle id="circle22" cx="-1326.3" cy="-1241.6" r="0" fill="#5e4aa6"/><circle id="circle24" cx="-226.72" cy="23.855" r="0" fill="#5e4aa6" fill-rule="evenodd"/><g id="g6369" transform="matrix(.96602 0 0 .96602 36.234 -48.653)" stroke-linecap="round" stroke-width="2.7444"><rect id="rect5387" x="-31.884" y="55.99" width="55" height="55" rx="15.528" ry="15.528" fill="#141414" filter="url(#filter1057-2)" opacity=".3"/><rect id="rect5389" x="-31.884" y="55.99" width="55" height="55" rx="11.971" ry="11.971" fill="url(#linearGradient1053-0)"/></g><g id="g4852" transform="matrix(.87733 0 0 .87733 59.973 3.9253)"><circle id="path1116" cx="-31.884" cy="32" r="25.646" fill="#fccb00" fill-rule="evenodd" style="paint-order:stroke fill markers"/><path id="path400" d="m-44.409 12.989v38.612l3.9583-3.4218v-32.041z" fill="#23272a"/><path id="path402" d="m-48.268 21.582v21.915l-3.9969-3.6049v-14.927z" fill="#23272a"/><path id="path404" d="m-36.66 9.7128v20.168h13.27l11.037-8.8657-2.3634-3.0919-9.8657 7.7716h-8.1378v-16z" fill="#23272a"/><path id="path502" d="m-29.05 10.224v12.312h3.4633l8.226-6.9617-3.2463-2.4601-4.5418 3.5681v-5.5525z" fill="#23272a"/><path id="path504" d="m-11.66 25.283-7.9131 6.717 7.9131 6.6537 2.4811-3.1035-4.2305-3.5501 4.1471-3.6447z" fill="#23272a"/><path id="path506" d="m-36.658 34.308v19.943h3.9129v-15.934h8.324l9.5221 7.6297 2.5604-3.0402-10.909-8.7171z" fill="#23272a"/><path id="path508" d="m-28.936 42.09v12.119l3.9062-1.0467v-5.4105l4.3396 3.5796 3.2629-2.495-8.3106-6.7608z" fill="#23272a"/></g></svg>
