<?xml version="1.0" encoding="UTF-8"?>
<svg id="svg45" width="64" height="64" version="1.1" viewBox="0 0 16.933 16.933" xmlns="http://www.w3.org/2000/svg" xmlns:cc="http://creativecommons.org/ns#" xmlns:dc="http://purl.org/dc/elements/1.1/" xmlns:rdf="http://www.w3.org/1999/02/22-rdf-syntax-ns#">
 <defs id="defs13">
  <filter id="filter1057-4-7" x="-.027" y="-.027" width="1.054" height="1.054" color-interpolation-filters="sRGB">
   <feGaussianBlur id="feGaussianBlur5" stdDeviation="0.61875"/>
  </filter>
 </defs>
 <metadata id="metadata15">
  <rdf:RDF>
   <cc:Work rdf:about="">
    <dc:format>image/svg+xml</dc:format>
    <dc:type rdf:resource="http://purl.org/dc/dcmitype/StillImage"/>
    <dc:title/>
   </cc:Work>
  </rdf:RDF>
 </metadata>
 <rect id="rect17" transform="matrix(.2646 0 0 .2646 -.00038019 -.0003802)" x="4.5" y="4.5" width="55" height="55" ry="15" fill="#141414" filter="url(#filter1057-4-7)" opacity=".3" stroke-linecap="round" stroke-width="2.7444"/>
 <rect id="rect19" x="1.1905" y="1.1902" width="14.552" height="14.552" ry="3.9689" fill="#2c2728" stroke-linecap="round" stroke-width=".72613"/>
 <g id="g961" transform="matrix(1.1464 0 0 1.1464 -1.5573 -1.2392)" fill="#ffc70a">
  <path id="path940" d="m5.4643 3.9046 0.93894 0.81771v7.571l-0.93894 0.81771z"/>
  <path id="path942" d="m4.561 5.9299-0.93894 0.86288v3.5751l0.93894 0.80107z"/>
  <path id="path944" d="m7.3231 3.1582-0.00238 4.7494h3.209l2.591-2.068-0.58714-0.73451-2.3319 1.8636h-1.9397v-3.8104z"/>
  <path id="path946" d="m9.1582 3.2889v2.9095l0.76779 0.0047518 2.0015-1.6473-0.77968-0.57525-1.0507 0.86525v-1.3169z"/>
  <path id="path948" d="m7.3208 9.0248v4.7494h0.93894v-3.8104h1.9421l2.3343 1.8636 0.58476-0.73452-2.591-2.0681z"/>
  <path id="path950" d="m13.263 6.8807-1.9207 1.5855 1.923 1.5879 0.59902-0.72738-1.0459-0.8605 1.0435-0.8605z"/>
  <path id="path952" d="m9.1606 10.862v2.9095l0.93894-0.24008v-1.3169l1.0507 0.86525 0.77968-0.5752-2.0015-1.6473z"/>
 </g>
</svg>
