<?xml version="1.0" encoding="UTF-8" standalone="no"?>
<svg
   id="svg28"
   width="512"
   height="512"
   version="1"
   viewBox="0 0 64 64"
   sodipodi:docname="kile.svg"
   inkscape:version="1.4.4 (dcaf3e7d9e, 2026-05-05)"
   xmlns:inkscape="http://www.inkscape.org/namespaces/inkscape"
   xmlns:sodipodi="http://sodipodi.sourceforge.net/DTD/sodipodi-0.dtd"
   xmlns="http://www.w3.org/2000/svg"
   xmlns:svg="http://www.w3.org/2000/svg"
   xmlns:rdf="http://www.w3.org/1999/02/22-rdf-syntax-ns#"
   xmlns:cc="http://creativecommons.org/ns#"
   xmlns:dc="http://purl.org/dc/elements/1.1/">
  <sodipodi:namedview
     id="namedview1"
     pagecolor="#ffffff"
     bordercolor="#999999"
     borderopacity="1"
     inkscape:showpageshadow="2"
     inkscape:pageopacity="0"
     inkscape:pagecheckerboard="0"
     inkscape:deskcolor="#d1d1d1"
     inkscape:zoom="2.2617188"
     inkscape:cx="256"
     inkscape:cy="256"
     inkscape:window-width="2560"
     inkscape:window-height="1371"
     inkscape:window-x="0"
     inkscape:window-y="0"
     inkscape:window-maximized="1"
     inkscape:current-layer="svg28" />
  <title
     id="title2">Kile Icon</title>
  <defs
     id="defs10">
    <filter
       id="filter1057"
       x="-0.026999999"
       y="-0.026999999"
       width="1.054"
       height="1.054"
       color-interpolation-filters="sRGB">
      <feGaussianBlur
         id="feGaussianBlur858"
         stdDeviation="0.61875" />
    </filter>
    <linearGradient
       id="linearGradient1053"
       x1="-127"
       x2="-127"
       y1="5"
       y2="60"
       gradientTransform="translate(131.5,-0.51)"
       gradientUnits="userSpaceOnUse">
      <stop
         id="stop861"
         stop-color="#32d7ff"
         offset="0"
         style="stop-color:#62a0ea;stop-opacity:1" />
      <stop
         id="stop863"
         stop-color="#329bff"
         offset="1"
         style="stop-color:#1a5fb4;stop-opacity:1" />
    </linearGradient>
    <filter
       inkscape:collect="always"
       style="color-interpolation-filters:sRGB"
       id="filter1"
       x="-0.06681981"
       y="-0.085462454"
       width="1.1336396"
       height="1.1709249">
      <feGaussianBlur
         inkscape:collect="always"
         stdDeviation="0.99581563"
         id="feGaussianBlur1" />
    </filter>
  </defs>
  <metadata
     id="metadata12">
    <rdf:RDF>
      <cc:Work
         rdf:about="">
        <dc:title>Kile Icon</dc:title>
        <dc:date>2022-03-29</dc:date>
        <dc:creator>
          <cc:Agent>
            <dc:title>abu</dc:title>
          </cc:Agent>
        </dc:creator>
        <dc:rights>
          <cc:Agent>
            <dc:title>free</dc:title>
          </cc:Agent>
        </dc:rights>
        <cc:license
           rdf:resource="http://artlibre.org/licence/lal" />
      </cc:Work>
      <cc:License
         rdf:about="http://artlibre.org/licence/lal">
        <cc:permits
           rdf:resource="http://creativecommons.org/ns#Reproduction" />
        <cc:permits
           rdf:resource="http://creativecommons.org/ns#Distribution" />
        <cc:permits
           rdf:resource="http://creativecommons.org/ns#DerivativeWorks" />
        <cc:requires
           rdf:resource="http://creativecommons.org/ns#ShareAlike" />
        <cc:requires
           rdf:resource="http://creativecommons.org/ns#Notice" />
        <cc:requires
           rdf:resource="http://creativecommons.org/ns#Attribution" />
      </cc:License>
    </rdf:RDF>
  </metadata>
  <rect
     id="rect894"
     x="4.5"
     y="4.5"
     width="55"
     height="55"
     ry="15"
     fill="#141414"
     filter="url(#filter1057)"
     opacity=".3"
     stroke-linecap="round"
     stroke-width="2.7444" />
  <rect
     id="rect896"
     x="4.5"
     y="4.5"
     width="55"
     height="55"
     ry="15"
     fill="url(#linearGradient1053)"
     stroke-linecap="round"
     stroke-width="2.7444" />
  <path
     id="path520"
     d="m 14.116,19.268 v 27.965 h 5.0588 V 34.85 l 11.226,12.383 h 6.2464 v -0.31861 l -12.912,-14.103 11.916,-13.381 V 19.26957 H 29.367 l -10.193,11.825 v -11.825 z m 29.189,0.01821 c -3.5594,0.22051 -5.347,2.533 -5.347,5.9777 0,3.8175 2.4727,6.2508 5.9059,6.2508 3.6162,-3e-6 6.0193,-2.41 6.0193,-6.4663 0,-1.7895 -0.59491,-3.8175 -1.8308,-5.0582 l -1.7638,1.86 c 0.66372,0.66807 1.0537,2.076 1.0537,3.1496 0,2.0519 -1.0052,3.3169 -2.4013,3.5078 v -9.185 c -0.58078,-0.05666 -1.1274,-0.0679 -1.6359,-0.03641 z m -0.6782,2.8281 v 6.3449 c -1.4648,-0.42948 -2.1946,-1.7175 -2.1946,-3.2923 0,-1.6701 0.72988,-2.8617 2.1946,-3.0526 z m -9.0409,11.44 v 2.8887 h 16 v -2.8887 z m 1.5339,5.2586 c -2.1743,0 -2.1743,3.438 0,3.438 2.1743,0 2.1743,-3.438 0,-3.438 z m 3.1377,0.26399 v 2.91 h 11.328 v -2.91 z"
     fill="#fff"
     stroke-width="1.5216"
     style="fill:#000000;fill-opacity:1;filter:url(#filter1);opacity:0.35" />
  <path
     id="path520-7"
     d="m 14.116,18.018 v 27.965 h 5.0588 V 33.6 l 11.226,12.383 h 6.2464 v -0.31861 l -12.912,-14.103 11.916,-13.381 V 18.01957 H 29.367 l -10.193,11.825 v -11.825 z m 29.189,0.01821 c -3.5594,0.22051 -5.347,2.533 -5.347,5.9777 0,3.8175 2.4727,6.2508 5.9059,6.2508 3.6162,-3e-6 6.0193,-2.41 6.0193,-6.4663 0,-1.7895 -0.59491,-3.8175 -1.8308,-5.0582 l -1.7638,1.86 c 0.66372,0.66807 1.0537,2.076 1.0537,3.1496 0,2.0519 -1.0052,3.3169 -2.4013,3.5078 v -9.185 c -0.58078,-0.05666 -1.1274,-0.0679 -1.6359,-0.03641 z m -0.6782,2.8281 v 6.3449 c -1.4648,-0.42948 -2.1946,-1.7175 -2.1946,-3.2923 0,-1.6701 0.72988,-2.8617 2.1946,-3.0526 z m -9.0409,11.44 v 2.8887 h 16 v -2.8887 z m 1.5339,5.2586 c -2.1743,0 -2.1743,3.438 0,3.438 2.1743,0 2.1743,-3.438 0,-3.438 z m 3.1377,0.26399 v 2.91 h 11.328 v -2.91 z"
     fill="#ffffff"
     stroke-width="1.5216" />
</svg>
