<?xml version="1.0" encoding="UTF-8"?>
<svg id="svg6" width="128" height="128" version="1.1" viewBox="0 0 33.867 33.867" xmlns="http://www.w3.org/2000/svg" xmlns:osb="http://www.openswatchbook.org/uri/2009/osb" xmlns:xlink="http://www.w3.org/1999/xlink">
 <defs id="defs2">
  <linearGradient id="linearGradient1632" x1="132.21" x2="132.21" y1="42.152" y2="70.68" gradientTransform="translate(-111.78 -37.203) scale(.97573)" gradientUnits="userSpaceOnUse">
   <stop id="stop1626" stop-color="#fcfcfa" offset="0"/>
   <stop id="stop1628" stop-color="#f3f3f2" offset="1"/>
  </linearGradient>
  <linearGradient id="linearGradient4497" x1="515.8" x2="435.52" y1="228.34" y2="309.15" gradientTransform="translate(-52.096 -4.973) scale(.07154)" gradientUnits="userSpaceOnUse">
   <stop id="stop4489" stop-color="#de5f03" offset="0"/>
   <stop id="stop4491" stop-color="#d7301c" offset="1"/>
  </linearGradient>
  <linearGradient id="linearGradient4569" x1="538.43" x2="560.87" y1="258.42" y2="389.14" gradientTransform="translate(-58.11 -11.26) scale(.07154)" gradientUnits="userSpaceOnUse">
   <stop id="stop4561" stop-color="#f9f3ec" offset="0"/>
   <stop id="stop4571" stop-color="#f1c488" offset=".343"/>
   <stop id="stop4613" stop-color="#fcb147" offset=".476"/>
   <stop id="stop4563" stop-color="#ffa725" offset="1"/>
  </linearGradient>
  <linearGradient id="linearGradient4623" x1="552.26" x2="608.26" y1="380.84" y2="368.56" gradientTransform="translate(-67.06 -5.293) scale(.07154)" gradientUnits="userSpaceOnUse">
   <stop id="stop4617" stop-color="#d8a3ba" offset="0"/>
   <stop id="stop4619" stop-color="#8c1826" offset="1"/>
  </linearGradient>
  <linearGradient id="linearGradient4717" x1="725.61" x2="759.36" y1="209.79" y2="296.46" gradientUnits="userSpaceOnUse">
   <stop id="stop4709" stop-color="#dad2e1" offset="0"/>
   <stop id="stop4719" stop-color="#9384a0" offset=".133"/>
   <stop id="stop4711" stop-color="#325a6c" offset="1"/>
  </linearGradient>
  <linearGradient id="linearGradient4729" x1="706.44" x2="729.45" y1="288.03" y2="266.55" gradientUnits="userSpaceOnUse">
   <stop id="stop4723" stop-color="#673353" offset="0"/>
   <stop id="stop4725" stop-color="#673353" stop-opacity="0" offset="1"/>
  </linearGradient>
  <linearGradient id="linearGradient4763" x1="468.27" x2="516.21" y1="449.27" y2="328.47" gradientTransform="translate(-55.534 -4.09) scale(.07154)" gradientUnits="userSpaceOnUse">
   <stop id="stop4757" stop-color="#9986af" offset="0"/>
   <stop id="stop4759" stop-color="#4b142e" offset="1"/>
  </linearGradient>
  <linearGradient id="linearGradient4825" x1="511.46" x2="584.48" y1="364.43" y2="432.22" gradientUnits="userSpaceOnUse">
   <stop id="stop4819" stop-color="#93bd68" offset="0"/>
   <stop id="stop4821" stop-color="#5fab7d" offset="1"/>
  </linearGradient>
  <linearGradient id="linearGradient4861" x1="534.3" x2="520.64" y1="298.34" y2="462.68" gradientTransform="translate(-52.978 -4.75) scale(.07154)" gradientUnits="userSpaceOnUse">
   <stop id="stop4855" stop-color="#1c275e" offset="0"/>
   <stop id="stop4857" stop-color="#6194c2" offset="1"/>
  </linearGradient>
  <linearGradient id="linearGradient4979" x1="463.73" x2="489.22" y1="378.17" y2="378.17" gradientTransform="matrix(1.0644 .3387 -.30322 .95292 701.54 -183.73)" gradientUnits="userSpaceOnUse">
   <stop id="stop4941" stop-color="#69737a" offset="0"/>
   <stop id="stop4949" stop-color="#6b7276" offset=".038"/>
   <stop id="stop4961" stop-color="#58595c" offset=".146"/>
   <stop id="stop4953" stop-color="#f2f3f4" offset=".323"/>
   <stop id="stop4955" stop-color="#f2f3f4" offset=".48"/>
   <stop id="stop4963" stop-color="#7f868b" offset=".602"/>
   <stop id="stop4965" stop-color="#525252" offset=".698"/>
   <stop id="stop4967" stop-color="#5c5c5c" offset=".801"/>
   <stop id="stop4969" stop-color="#484848" offset=".886"/>
   <stop id="stop4943" stop-opacity="0" offset="1"/>
  </linearGradient>
  <linearGradient id="linearGradient4993" x1="487.6" x2="515.04" y1="177.83" y2="187.03" gradientTransform="translate(654.53 -41.726)" gradientUnits="userSpaceOnUse">
   <stop id="stop4985" stop-color="#e3e3e3" offset="0"/>
   <stop id="stop4995" stop-color="#ebebeb" offset=".16"/>
   <stop id="stop4997" stop-color="#c8c8c8" offset=".509"/>
   <stop id="stop4987" stop-color="#9a9a9a" offset="1"/>
  </linearGradient>
  <linearGradient id="linearGradient5012" x1="364.15" x2="356.67" y1="424.37" y2="448.34" gradientTransform="translate(712.38 -44.296)" gradientUnits="userSpaceOnUse">
   <stop id="stop5006" stop-color="#25150f" offset="0"/>
   <stop id="stop5008" stop-color="#3d241b" offset="1"/>
  </linearGradient>
  <linearGradient id="linearGradient5038" x1="347.85" x2="359.01" y1="476.88" y2="455.73" gradientTransform="translate(712.38 -44.296)" gradientUnits="userSpaceOnUse">
   <stop id="stop5032" stop-color="#25150f" offset="0"/>
   <stop id="stop5034" stop-color="#25150f" stop-opacity="0" offset="1"/>
  </linearGradient>
  <radialGradient id="radialGradient3772" cx="-24.12" cy="22.678" r="6.597" gradientTransform="matrix(.83767 -.14922 .10286 .57742 -3.573 5.928)" gradientUnits="userSpaceOnUse">
   <stop id="stop3766" stop-color="#9a52a0" offset="0"/>
   <stop id="stop3768" stop-color="#9a52a0" stop-opacity="0" offset="1"/>
  </radialGradient>
  <radialGradient id="radialGradient3798" cx="-10.198" cy="13.183" r="5.541" gradientTransform="matrix(-.01993 1.2418 -.7775 -.01248 -3.064 26.654)" gradientUnits="userSpaceOnUse">
   <stop id="stop3792" stop-color="#f0e59d" offset="0"/>
   <stop id="stop3800" stop-color="#f0e59d" offset=".42"/>
   <stop id="stop3802" stop-color="#f0e59d" stop-opacity=".17647" offset=".725"/>
   <stop id="stop3794" stop-color="#f0e59d" stop-opacity="0" offset="1"/>
  </radialGradient>
  <radialGradient id="radialGradient3804" cx="-12.984" cy="13.222" r="3.273" gradientTransform="matrix(1 0 0 1.0354 0 -.472)" gradientUnits="userSpaceOnUse">
   <stop id="stop4663" stop-color="#f0e59d" offset="0"/>
   <stop id="stop4665" stop-color="#ebe093" stop-opacity=".54275" offset="1"/>
  </radialGradient>
  <radialGradient id="radialGradient3810" cx="-20.806" cy="12.503" r="6.995" gradientTransform="matrix(1.1722 .13642 -.10436 .89668 5.738 4.183)" gradientUnits="userSpaceOnUse">
   <stop id="stop3812" stop-color="#feac35" offset="0"/>
   <stop id="stop3818" stop-color="#fdad38" stop-opacity="0" offset="1"/>
  </radialGradient>
  <radialGradient id="radialGradient3832" cx="-21.73" cy="19.71" r="8.213" gradientTransform="matrix(.87792 -.05968 .04835 .71126 -3.631 4.912)" gradientUnits="userSpaceOnUse">
   <stop id="stop3826" stop-color="#8e1f36" offset="0"/>
   <stop id="stop3836" stop-color="#8e1f36" stop-opacity=".86083" offset=".773"/>
   <stop id="stop3840" stop-color="#c9879c" offset=".847"/>
   <stop id="stop3838" stop-color="#8e1f36" stop-opacity="0" offset=".937"/>
   <stop id="stop3828" stop-color="#8e1f36" stop-opacity="0" offset="1"/>
  </radialGradient>
  <filter id="filter4935" x="-.2796" y="-.2796" width="1.5592" height="1.5592" color-interpolation-filters="sRGB">
   <feGaussianBlur id="feGaussianBlur4937" stdDeviation="10.902"/>
  </filter>
  <filter id="filter5067" x="-.04729" y="-.016426" width="1.0946" height="1.0329" color-interpolation-filters="sRGB">
   <feGaussianBlur id="feGaussianBlur5069" stdDeviation="2.532"/>
  </filter>
  <filter id="filter1" x="-.23086" y="-.23086" width="1.4617" height="1.4617" color-interpolation-filters="sRGB">
   <feGaussianBlur id="feGaussianBlur1" stdDeviation="1.8259238"/>
  </filter>
 </defs>
 <g id="layer1">
  <rect id="rect1678" transform="matrix(.97573 0 0 .97573 -65.748 -37.203)" x="69.84" y="40.71" width="29.811" height="29.811" rx="6.61" ry="6.61" filter="url(#filter1)" opacity=".25" stroke="#000" stroke-linecap="round" stroke-linejoin="round" stroke-opacity=".02" stroke-width="5"/>
  <rect id="rect849" x="2.396" y="2.519" width="29.087" height="29.087" rx="6.449" ry="6.449" fill="url(#linearGradient1632)" stroke-linecap="round" stroke-linejoin="round" stroke-width="2.688"/>
  <g id="g3869" transform="translate(35.271 -.544)">
   <path id="path3822" d="M-26.447 15.554c-5.844 2.328-2.092 17.003.954 16.007l12.402-13.248-3.156-2.87z" fill="url(#radialGradient3832)"/>
   <path id="path3806" d="M-30.22 15.776s-.198-4.93 1.023-7.233c1.22-2.303 10.5-6.226 12.697-6.11 2.198.115 1.46 4.795 2.472 6.004 1.035 1.236 2.615 1.886 2.76 3.891.145 2.006-3.427 5.837-3.427 5.837z" fill="url(#radialGradient3810)"/>
   <path id="path3786" d="M-16.813 8.499c3.153-1.012 12.454.206 6.77 9.775l-9.28.043z" fill="url(#radialGradient3798)"/>
   <path id="path4661" d="M-14.818 10.43c2.355-.756 4.707-1.504 3.348 5.597l-6.147.713z" fill="url(#radialGradient3804)"/>
   <path id="path4543" d="m-25.244 16.795s-0.172-3.835 0.892-5.626c1.064-1.792 3.478-4.242 5.394-4.152s2.61 1.543 3.492 2.483c0.902 0.961 2.28 1.467 2.406 3.027s-2.988 4.54-2.988 4.54z" fill="url(#linearGradient4569)"/>
   <path id="path4853" d="m-18.435 22.727 3.873-6.601c4.958 1.908 3.285 6.302 2.716 10.283-3.917 5.355-5.58 4.06-6.52.632-.4-1.725-.943-2.825-.07-4.314z" fill="url(#linearGradient4861)"/>
   <path id="path4755" d="M-18.163 19.067c-.098.04-3.591 2.918-5.594 4.571-.959.912-1.044 1.618-.812 2.476.709 1.86 1.157 3.248 4.019 2.666 2.37-.481 1.436-3.058 2.606-4.17s4.047-2.025 4.047-2.025z" fill="url(#linearGradient4763)"/>
   <path id="path4615" d="M-25.244 16.795c-4.37 1.158-1.565 8.452.713 7.957l9.274-6.585-2.36-1.427z" fill="url(#linearGradient4623)"/>
   <path id="path4487" d="m-19.773 14.583c1.046-2.8 2.394-3.283 3.92-4.074 1.524-0.79 5.273 1.512 0.232 6.092s-9.848 0.645-10.826-1.047c1.545-1.293 5.877 1.163 6.674-0.97z" fill="url(#linearGradient4497)"/>
   <g id="g4831" transform="translate(-50.79 -8.916) scale(.07154)">
    <path id="path4817" d="m500.07 348.75 31.507-3.939c15.696-2.877 12.863 0.085 21.332 10.575 25.835 31.983 66.691 79.135 25.262 89.906l-27.118 7.051-38.509-37.424z" fill="url(#linearGradient4825)"/>
    <path id="path4827" d="m500.07 348.75c14.695 0.93 33.185-9.523 43.39 4.881l-17.085 1.356c16.222 2.247 18.884 14.44 24.949 24.136z" fill="#38670c"/>
   </g>
   <g id="g4909" transform="translate(-68.1 1.561) scale(.07154)" fill-opacity=".36364" filter="url(#filter4935)">
    <circle id="circle4905" cx="731.75" cy="255.81" r="46.789" style="paint-order:fill markers stroke"/>
    <circle id="circle4907" cx="731.75" cy="255.81" r="46.789" style="paint-order:fill markers stroke"/>
   </g>
   <g id="g4733" transform="translate(-67.552 1.342) scale(.07154)">
    <circle id="path4707" cx="731.75" cy="255.81" r="46.789" fill="url(#linearGradient4717)" style="paint-order:fill markers stroke"/>
    <circle id="circle4721" cx="731.75" cy="255.81" r="46.789" fill="url(#linearGradient4729)" style="paint-order:fill markers stroke"/>
   </g>
   <path id="path4879" d="M-26.016 25.693c4.195 2.147 8.638.007 12.788.653-.099-3.166 8.742-7.296-2.82-9.28-4.339.151-13.012-1.712-8.978 1.708-1.414 1.656-1.772 3.946-.99 6.92z" fill="url(#radialGradient3772)" style="mix-blend-mode:normal"/>
  </g>
  <g id="g5081" transform="translate(-49.363 1.582) scale(.06442)">
   <path id="path5004" d="m1066.9 378.21c-16.394 20.322-7.057 43.133-9.396 64.814 10.185-18.943 31.939-23.832 29.43-58.858-6.093-7.47-13.488-4.379-20.034-5.956z" fill="url(#linearGradient5012)" stroke="#1d0f0c" stroke-width="1px"/>
   <path id="path5014" d="m1067.4 425.97c6.23-10.3 13.233-20.303 14.069-33.977 0.792 7.31-14.228 34.264-14.069 33.977z" color-rendering="auto" dominant-baseline="auto" fill="#2f1919" image-rendering="auto" shape-rendering="auto" style="font-feature-settings:normal;font-variant-alternates:normal;font-variant-caps:normal;font-variant-ligatures:normal;font-variant-numeric:normal;font-variant-position:normal;isolation:auto;mix-blend-mode:normal;shape-padding:0;text-decoration-color:#000;text-decoration-line:none;text-decoration-style:solid;text-indent:0;text-orientation:mixed;text-transform:none;white-space:normal"/>
   <path id="path5016" d="m1063 425.24c1.51-5.967 4.828-11.112 3.836-18.217-0.182 2.083-5.781 17.57-3.836 18.217z" color-rendering="auto" dominant-baseline="auto" fill="#2f1919" image-rendering="auto" shape-rendering="auto" style="font-feature-settings:normal;font-variant-alternates:normal;font-variant-caps:normal;font-variant-ligatures:normal;font-variant-numeric:normal;font-variant-position:normal;isolation:auto;mix-blend-mode:normal;shape-padding:0;text-decoration-color:#000;text-decoration-line:none;text-decoration-style:solid;text-indent:0;text-orientation:mixed;text-transform:none;white-space:normal"/>
   <path id="path5018" d="m1059.4 427.11 2.875-26.08c-2.117 2.74-5.146 25.83-2.875 26.08z" color-rendering="auto" dominant-baseline="auto" fill="#2f1919" image-rendering="auto" shape-rendering="auto" style="font-feature-settings:normal;font-variant-alternates:normal;font-variant-caps:normal;font-variant-ligatures:normal;font-variant-numeric:normal;font-variant-position:normal;isolation:auto;mix-blend-mode:normal;shape-padding:0;text-decoration-color:#000;text-decoration-line:none;text-decoration-style:solid;text-indent:0;text-orientation:mixed;text-transform:none;white-space:normal"/>
   <path id="path5026" d="M1064.18 404.138c1.464-5.978.945-12.079 5.153-17.888-.816 1.924-3.133 18.23-5.154 17.888z" color-rendering="auto" dominant-baseline="auto" fill="#cc9f9f" fill-opacity=".094697" image-rendering="auto" shape-rendering="auto" style="font-feature-settings:normal;font-variant-alternates:normal;font-variant-caps:normal;font-variant-ligatures:normal;font-variant-numeric:normal;font-variant-position:normal;isolation:auto;mix-blend-mode:normal;shape-padding:0;text-decoration-color:#000;text-decoration-line:none;text-decoration-style:solid;text-indent:0;text-orientation:mixed;text-transform:none;white-space:normal"/>
   <path id="path5028" d="m1064.4 409.7c1.465-5.979 0.946-12.08 5.154-17.889-0.816 1.925-3.133 18.23-5.153 17.889z" color-rendering="auto" dominant-baseline="auto" fill="#cc9f9f" fill-opacity=".094697" image-rendering="auto" shape-rendering="auto" style="font-feature-settings:normal;font-variant-alternates:normal;font-variant-caps:normal;font-variant-ligatures:normal;font-variant-numeric:normal;font-variant-position:normal;isolation:auto;mix-blend-mode:normal;shape-padding:0;text-decoration-color:#000;text-decoration-line:none;text-decoration-style:solid;text-indent:0;text-orientation:mixed;text-transform:none;white-space:normal"/>
   <path id="path5030" d="m1066.9 378.21c-16.394 20.322-7.057 43.133-9.396 64.814 10.185-18.943 31.464-24.036 28.955-59.061-6.092-7.47-13.013-4.176-19.559-5.753z" fill="url(#linearGradient5038)"/>
   <path id="path4999" transform="translate(164.46 26.867)" d="M1018.506 9.803c-33.063 83.258-59.041 168.354-83.399 253.867l-28.205 88.637c.976.19 1.95.384 2.928.572a16.981 16.981 0 0 1-2.353-.381c-7.038 8.723-9.327 17.905-9.84 27.26l28.506-4.596c.968-4.689 1.348-10.12.912-16.576.346.233.685.475 1.015.728l34.17-87.011c23.977-71.586 46.352-143.08 63.897-215.17z" fill="#161111" fill-opacity=".37879" filter="url(#filter5067)"/>
   <path id="path4983" d="m1094.6 289.38c28.123-98.732 58.399-196.91 99.255-292.34 1.248-2.808 5.686-4.19 7.383-3.174 1.41 0.844 2.687 4.428 1.837 8.056-18.517 99.717-48.424 197.82-81.34 296.09z" fill="url(#linearGradient4993)"/>
   <path id="rect4971" d="m1094.6 289.38c10.728-1.162 20.019 1.126 27.134 8.634l-34.17 87.01c-5.588-4.292-13.486-5.506-21.168-7.006z" fill="url(#linearGradient4979)" style="paint-order:fill markers stroke"/>
  </g>
 </g>
 <style id="style15307">.B{clip-path:url(#C)}.C{fill:#3e2723}.D{fill-opacity:.15}.E{fill-opacity:.2}</style>
</svg>
