<?xml version="1.0" encoding="UTF-8"?>
<svg width="64" height="64" fill="none" viewBox="0 0 64 64" xmlns="http://www.w3.org/2000/svg">
 <g fill="#000" xmlns:xlink="http://www.w3.org/1999/xlink">
  <defs>
   <pattern id="a" x="1.559" y="1.999" width="60.882" height="62.001" patternUnits="userSpaceOnUse">
    <image width="60.882" height="62.001" href="http://localhost:6080/assets/by-file-media-id/1c096c09-a10e-80c0-8003-2a94e3380417" preserveAspectRatio="none"/>
   </pattern>
  </defs>
  <rect class="fills" x="1.559" y="1.999" width="60.882" height="62.001" rx="0" ry="0" fill="url(#a)"/>
  <rect class="fills" x="4" y="3.969" width="56.002" height="56.002" rx="13.002" ry="13.002" fill="#fff"/>
  <defs>
   <linearGradient id="c" x1="1" x2=".083" y1=".877" y2="-.002">
    <stop stop-color="#5f5f5f" offset="0"/>
    <stop stop-color="#a9a9a9" offset="1"/>
   </linearGradient>
   <pattern id="d" x="14.788" y="18.454" width="37.963" height="25.109" patternUnits="userSpaceOnUse">
    <path d="M0 0h37.963v25.109H0z" fill="url(#c)"/>
   </pattern>
  </defs>
  <path class="fills" d="M14.788 18.454h37.964v19.109a6 6 0 0 1-6 6H14.788z" fill="url(#d)"/>
  <defs>
   <linearGradient id="e" x1=".993" x2=".004" y1=".005" y2=".997">
    <stop stop-color="#2c2c2c" offset="0"/>
    <stop stop-color="#858585" offset="1"/>
   </linearGradient>
   <pattern id="f" x="25.649" y="43.563" width="17.059" height="3.891" patternUnits="userSpaceOnUse">
    <path d="M0 0h17.059v3.891H0z" fill="url(#e)"/>
   </pattern>
  </defs>
  <path class="fills" d="M25.649 43.563h17.059v.891a3 3 0 0 1-3 3h-14.06z" fill="url(#f)"/>
  <defs>
   <linearGradient id="g" x1="-.207" x2=".498" y1="-.012" y2=".956">
    <stop stop-color="#858585" offset="0"/>
    <stop stop-color="#2c2c2c" offset=".92"/>
   </linearGradient>
   <pattern id="h" x="11.251" y="18.454" width="3.538" height="29.03" patternUnits="userSpaceOnUse">
    <path d="M0 0h3.538v29.03H0z" fill="url(#g)"/>
   </pattern>
  </defs>
  <path class="fills" d="M11.25 18.454h3.538v26.03a3 3 0 0 1-3 3h-.537z" fill="url(#h)"/>
  <defs>
   <linearGradient id="i" x1=".994" x2="-.002" y1=".989" y2=".005">
    <stop stop-color="#282828" offset="0"/>
    <stop stop-color="#858585" offset=".88"/>
   </linearGradient>
   <pattern id="j" x="18.681" y="25.125" width="9.034" height="3.984" patternUnits="userSpaceOnUse">
    <path d="M0 0h9.034v3.984H0z" fill="url(#i)"/>
   </pattern>
  </defs>
  <path class="fills" d="M20.68 25.125h7.035v1.984a2 2 0 0 1-2 2H18.68v-1.984a2 2 0 0 1 2-2" fill="url(#j)"/>
  <defs>
   <pattern id="l" x="18.681" y="32.862" width="9.034" height="3.984" patternUnits="userSpaceOnUse">
    <path d="M0 0h9.034v3.984H0z" fill="url(#i)"/>
   </pattern>
  </defs>
  <path class="fills" d="M20.68 32.862h7.035v1.984a2 2 0 0 1-2 2H18.68v-1.984a2 2 0 0 1 2-2" fill="url(#l)"/>
  <defs>
   <linearGradient id="m" x1=".94" x2=".126" y1=".823" y2=".133">
    <stop stop-color="#181818" offset="0"/>
    <stop stop-color="#787878" offset="1"/>
   </linearGradient>
   <pattern id="n" x="31.655" y="23.226" width="16.146" height="15.565" patternUnits="userSpaceOnUse">
    <path d="M0 0h16.146v15.565H0z" fill="url(#m)"/>
   </pattern>
  </defs>
  <path class="fills" d="M39.729 23.226c4.455 0 8.073 3.487 8.073 7.783 0 4.295-3.618 7.782-8.073 7.782-4.456 0-8.074-3.487-8.074-7.782 0-4.296 3.618-7.783 8.074-7.783m.024 4.91c-1.658 0-3.004 1.298-3.004 2.896s1.346 2.895 3.004 2.895 3.003-1.297 3.003-2.895-1.346-2.895-3.003-2.895" fill="url(#n)"/>
 </g>
</svg>
