<?xml version="1.0" encoding="UTF-8"?>
<svg id="svg46" width="64" height="64" version="1.1" viewBox="0 0 64 64" xmlns="http://www.w3.org/2000/svg" xmlns:xlink="http://www.w3.org/1999/xlink">
 <defs id="defs12">
  <filter id="filter1057" x="-.027" y="-.027" width="1.054" height="1.054" color-interpolation-filters="sRGB">
   <feGaussianBlur id="feGaussianBlur886" stdDeviation="0.61875"/>
  </filter>
  <linearGradient id="linearGradient1053" x1="-127" x2="-127" y1="60" y2="5" gradientTransform="matrix(1 0 0 1 158.28 6.2796)" gradientUnits="userSpaceOnUse">
   <stop id="stop889" stop-color="#ff7d50" offset="0"/>
   <stop id="stop891" stop-color="#ff4b5a" offset=".50594"/>
   <stop id="stop893" stop-color="#ff509b" offset="1"/>
  </linearGradient>
  <linearGradient id="linearGradient1744" x1="14.793" x2="49.25" y1="49.539" y2="14.268" gradientUnits="userSpaceOnUse">
   <stop id="stop1738" stop-color="#fff" offset="0"/>
   <stop id="stop1740" stop-color="#ff99b4" offset="1"/>
  </linearGradient>
 </defs>
 <g id="g32">
  <g id="g30">
   <g id="g28" transform="translate(1,1)">
    <g id="g26" opacity=".1">
     <!-- color: #1d384d --></g>
   </g>
  </g>
 </g>
 <g id="g36">
  <g id="g34">
   <!-- color: #1d384d --></g>
 </g>
 <g id="g890" transform="translate(-26.78 -6.7899)" stroke-linecap="round">
  <rect id="rect898" transform="matrix(1 0 0 1 26.78 6.7896)" x="4.5" y="4.5" width="55" height="55" ry="15" fill="#141414" filter="url(#filter1057)" opacity=".3" stroke-width="2.7444"/>
  <rect id="rect900" x="31.28" y="11.29" width="55.001" height="55.001" ry="15" fill="url(#linearGradient1053)" stroke-width="2.7444"/>
 </g>
 <path id="path892" d="m22.577 14.5a8.0769 8.0769 0 0 0-8.0769 8.0769 8.0769 8.0769 0 0 0 8.0769 8.0769 8.0769 8.0769 0 0 0 0.10769-0.0054 9.4231 9.4231 0 0 1 7.9665-7.9665 8.0769 8.0769 0 0 0 0.0027-0.105 8.0769 8.0769 0 0 0-8.0769-8.0769m18.846 0a8.0769 8.0769 0 0 0-8.0769 8.0769 8.0769 8.0769 0 0 0 0.0054 0.10769 9.4231 9.4231 0 0 1 7.9665 7.9665 8.0769 8.0769 0 0 0 0.105 0.0027 8.0769 8.0769 0 0 0 8.0769-8.0769 8.0769 8.0769 0 0 0-8.0769-8.0769m-10.769 9.5388a8.0769 8.0769 0 0 0-6.6096 6.615h6.6096v-6.6096m2.6923 0.0054v6.6042h6.615a8.0769 8.0769 0 0 0-6.615-6.6096m-10.769 9.3019a8.0769 8.0769 0 0 0-8.0769 8.0769 8.0769 8.0769 0 0 0 8.0769 8.0769 8.0769 8.0769 0 0 0 8.0769-8.0769 8.0769 8.0769 0 0 0-0.0054-0.10769 9.4231 9.4231 0 0 1-7.9638-7.9692 8.0769 8.0769 0 0 0-0.10769 0m1.4619 0a8.0769 8.0769 0 0 0 6.615 6.6096v-6.6096h-6.6096m9.3019 0v6.615a8.0769 8.0769 0 0 0 6.6096-6.615h-6.6096m8.0769 0a8.0769 8.0769 0 0 0-0.10769 0 9.4231 9.4231 0 0 1-7.9692 7.9719 8.0769 8.0769 0 0 0 0 0.105 8.0769 8.0769 0 0 0 8.0769 8.0769 8.0769 8.0769 0 0 0 8.0769-8.0769 8.0769 8.0769 0 0 0-8.0769-8.0769z" fill="url(#linearGradient1744)"/>
</svg>
