<?xml version="1.0" encoding="UTF-8" standalone="no"?>
<svg
   id="svg266"
   width="512"
   height="512"
   version="1.1"
   viewBox="0 0 64 64"
   sodipodi:docname="chrome-apboafhkiegglekeafbckfjldecefkhn-Default.svg"
   inkscape:version="1.4.4 (dcaf3e7d9e, 2026-05-05)"
   xmlns:inkscape="http://www.inkscape.org/namespaces/inkscape"
   xmlns:sodipodi="http://sodipodi.sourceforge.net/DTD/sodipodi-0.dtd"
   xmlns="http://www.w3.org/2000/svg"
   xmlns:svg="http://www.w3.org/2000/svg">
  <sodipodi:namedview
     id="namedview1"
     pagecolor="#ffffff"
     bordercolor="#999999"
     borderopacity="1"
     inkscape:showpageshadow="2"
     inkscape:pageopacity="0"
     inkscape:pagecheckerboard="0"
     inkscape:deskcolor="#d1d1d1"
     inkscape:zoom="2.2617188"
     inkscape:cx="256"
     inkscape:cy="256"
     inkscape:window-width="2560"
     inkscape:window-height="1371"
     inkscape:window-x="0"
     inkscape:window-y="0"
     inkscape:window-maximized="1"
     inkscape:current-layer="svg266" />
  <defs
     id="defs254">
    <linearGradient
       id="linearGradient1092"
       x1="7.9373"
       x2="7.9373"
       y1="15.081"
       y2="1.852"
       gradientTransform="scale(3.7796)"
       gradientUnits="userSpaceOnUse">
      <stop
         id="stop244"
         stop-color="#f4460c"
         offset=".01" />
      <stop
         id="stop246"
         stop-color="#fba31f"
         offset=".99271" />
    </linearGradient>
    <linearGradient
       id="linearGradient1138"
       x1="399.57"
       x2="399.57"
       y1="545.8"
       y2="517.8"
       gradientTransform="matrix(2.1429,0,0,2.1429,-826.36,-1107.5)"
       gradientUnits="userSpaceOnUse">
      <stop
         id="stop249"
         stop-color="#3889e9"
         offset="0" />
      <stop
         id="stop251"
         stop-color="#5ea5fb"
         offset="1" />
    </linearGradient>
    <filter
       id="filter3534"
       x="-0.048000003"
       y="-0.048000003"
       width="1.096"
       height="1.096"
       color-interpolation-filters="sRGB">
      <feGaussianBlur
         id="feGaussianBlur3536"
         stdDeviation="1.12004" />
    </filter>
    <filter
       id="filter1045"
       x="-0.065948182"
       y="-0.086931982"
       width="1.1318964"
       height="1.173864"
       color-interpolation-filters="sRGB">
      <feGaussianBlur
         id="feGaussianBlur1047"
         stdDeviation="0.85334969" />
    </filter>
  </defs>
  <rect
     id="rect256"
     width="64"
     height="64"
     rx="0"
     ry="0"
     fill="none"
     stroke-linecap="round"
     stroke-linejoin="round"
     stroke-width="1.4464"
     style="paint-order:stroke fill markers" />
  <rect
     id="rect260-5"
     x="3.999"
     y="3.999"
     width="56.002"
     height="56.002"
     rx="13.002"
     ry="13.002"
     filter="url(#filter3534)"
     opacity=".3"
     stroke-width="3.7796" />
  <rect
     id="rect260"
     x="4"
     y="3.9686"
     width="56.002"
     height="56.002"
     rx="13.002"
     ry="13.002"
     fill="url(#linearGradient1092)"
     stroke-width="3.7796" />
  <circle
     id="circle262"
     cx="32.02"
     cy="32.044"
     r="30.001"
     fill-opacity="0"
     stroke-width="1.5715" />
  <circle
     id="circle264"
     cx="32.02"
     cy="32.044"
     r="0"
     fill="url(#linearGradient1138)"
     stroke-width="1.5715" />
  <path
     id="path9-3"
     d="m 43.244,21.47 c -2.3495,0 -4.2835,1.934 -4.2835,4.2835 0,2.3495 1.934,4.2835 4.2835,4.2835 2.3495,0 4.2835,-1.934 4.2835,-4.2835 0,-2.3495 -1.934,-4.2835 -4.2835,-4.2835 z m -9.5371,0.0771 c -0.10173,-0.0022 -0.20239,0 -0.30306,0.0042 -1.4553,0.06854 -2.78,0.87597 -3.5082,2.1374 -0.57291,0.99484 -0.72176,2.1803 -0.41442,3.2865 l -5.6692,3.2747 c -0.80529,-0.82028 -1.9072,-1.2829 -3.0563,-1.284 -2.3506,0 -4.2835,1.934 -4.2835,4.2835 0,2.3506 1.9329,4.2835 4.2835,4.2835 1.148,-10e-4 2.2488,-0.46368 3.053,-1.284 l 5.6702,3.2758 c -0.30734,1.1062 -0.15742,2.2906 0.4155,3.2854 0.7646,1.3236 2.1814,2.1428 3.7106,2.1428 0.75175,0 1.4906,-0.19811 2.1417,-0.57398 1.3247,-0.7646 2.1428,-2.1814 2.1428,-3.7106 0,-0.75175 -0.19811,-1.4906 -0.57398,-2.1417 -0.7646,-1.3236 -2.1814,-2.1417 -3.7095,-2.1417 -0.75175,0 -1.4917,0.19811 -2.1428,0.57506 -0.33625,0.19383 -0.64359,0.43156 -0.91559,0.70891 l -5.6702,-3.2736 c 0.10494,-0.37373 0.15956,-0.75924 0.16063,-1.1458 0,-0.38765 -0.05248,-0.77316 -0.15635,-1.1458 l 5.6702,-3.2736 c 0.26986,0.27628 0.5772,0.51509 0.91131,0.70891 0.65108,0.37694 1.3911,0.57506 2.1428,0.57506 1.5281,0 2.9449,-0.81814 3.7095,-2.1417 0.37587,-0.65109 0.57398,-1.39 0.57398,-2.1417 0,-1.5292 -0.81814,-2.946 -2.1428,-3.7105 -0.6211,-0.35874 -1.3236,-0.55578 -2.0411,-0.57291 z m 9.5371,14.915 c -2.3505,0 -4.2835,1.934 -4.2835,4.2835 0,2.3506 1.9329,4.2835 4.2835,4.2835 2.3495,0 4.2835,-1.9329 4.2835,-4.2835 0,-2.3495 -1.934,-4.2835 -4.2835,-4.2835 z"
     fill="#090909"
     filter="url(#filter1045)"
     opacity=".6"
     stroke-width="1.0709"
     style="opacity:0.35;filter:url(#filter1045)"
     transform="matrix(1.3397378,0,0,1.3397378,-10.871562,-11.296129)" />
  <path
     id="path9"
     d="m 47.064059,15.793369 c -3.147714,0 -5.738767,2.591053 -5.738767,5.738767 0,3.147714 2.591053,5.738767 5.738767,5.738767 3.147714,0 5.738767,-2.591053 5.738767,-5.738767 0,-3.147714 -2.591053,-5.738767 -5.738767,-5.738767 z m -12.777213,0.103294 c -0.136292,-0.0029 -0.27115,0 -0.406021,0.0056 -1.94972,0.09183 -3.724471,1.17357 -4.700068,2.863556 -0.767549,1.332824 -0.966969,2.92103 -0.555214,4.403048 l -7.595242,4.387239 c -1.078877,-1.09896 -2.555148,-1.718749 -4.09464,-1.720223 -3.149188,0 -5.738767,2.591053 -5.738767,5.738767 0,3.149187 2.589579,5.738766 5.738767,5.738766 1.538019,-0.0013 3.012802,-0.621209 4.090219,-1.720223 l 7.596581,4.388713 c -0.411755,1.482018 -0.210901,3.068804 0.556661,4.401575 1.024364,1.773277 2.922504,2.87079 4.971231,2.87079 1.007148,0 1.997014,-0.265416 2.869317,-0.768983 1.77475,-1.024363 2.87079,-2.922504 2.87079,-4.971231 0,-1.007148 -0.265415,-1.997013 -0.768983,-2.869316 -1.024363,-1.773277 -2.922504,-2.869317 -4.969757,-2.869317 -1.007148,0 -1.998487,0.265416 -2.87079,0.77043 -0.450487,0.259681 -0.862242,0.578177 -1.226651,0.949753 l -7.596581,-4.385765 c 0.140592,-0.5007 0.213769,-1.017183 0.215202,-1.535072 0,-0.519349 -0.07031,-1.035831 -0.209468,-1.535071 l 7.596581,-4.385766 c 0.361542,0.370143 0.773297,0.690086 1.220917,0.949754 0.872276,0.505 1.863709,0.770429 2.87079,0.770429 2.047253,0 3.945394,-1.096093 4.969757,-2.869316 0.503568,-0.87229 0.768983,-1.862236 0.768983,-2.869317 0,-2.048727 -1.096093,-3.946867 -2.87079,-4.971097 -0.832111,-0.480617 -1.773277,-0.744599 -2.734539,-0.767549 z m 12.777213,19.982189 c -3.149054,0 -5.738767,2.591053 -5.738767,5.738767 0,3.149188 2.58958,5.738767 5.738767,5.738767 3.147714,0 5.738767,-2.589579 5.738767,-5.738767 0,-3.147714 -2.591053,-5.738767 -5.738767,-5.738767 z"
     fill="#ffffff"
     stroke-width="1.0709" />
</svg>
