<?xml version="1.0" encoding="UTF-8"?>
<svg id="svg1443" width="128" height="128" version="1.1" viewBox="0 0 33.867 33.867" xmlns="http://www.w3.org/2000/svg" xmlns:cc="http://creativecommons.org/ns#" xmlns:dc="http://purl.org/dc/elements/1.1/" xmlns:rdf="http://www.w3.org/1999/02/22-rdf-syntax-ns#" xmlns:xlink="http://www.w3.org/1999/xlink">
 <defs id="defs1437">
  <radialGradient id="radialGradient1999" cx="17.076" cy="4.6282" r="14.544" gradientTransform="matrix(4.7283 0 0 1.6998 -63.506 -2.7937)" gradientUnits="userSpaceOnUse">
   <stop id="stop1993" stop-color="#34d7ee" offset="0"/>
   <stop id="stop1995" stop-color="#1f76ff" offset="1"/>
  </radialGradient>
  <linearGradient id="linearGradient1468" x1="7.3713" x2="7.3713" y1="6.527" y2="56.628" gradientTransform="translate(-1.5112 .7848)" gradientUnits="userSpaceOnUse">
   <stop id="stop1462" stop-color="#fffbfc" offset="0"/>
   <stop id="stop1464" stop-color="#1f78ff" offset="1"/>
  </linearGradient>
 </defs>
 <metadata id="metadata1440">
  <rdf:RDF>
   <cc:Work rdf:about="">
    <dc:format>image/svg+xml</dc:format>
    <dc:type rdf:resource="http://purl.org/dc/dcmitype/StillImage"/>
   </cc:Work>
  </rdf:RDF>
 </metadata>
 <g id="layer1">
  <g id="g1702" transform="matrix(.97573 0 0 .96361 -65.737 -36.328)" fill="none" opacity=".18754" stroke="#000" stroke-linecap="round" stroke-linejoin="round" stroke-opacity=".02">
   <rect id="rect1634" x="69.84" y="40.71" width="29.811" height="29.811" rx="6.6099" ry="6.6099" stroke-width=".1"/>
   <rect id="rect1638" x="69.84" y="40.71" width="29.811" height="29.811" rx="6.6099" ry="6.6099" stroke-width=".2"/>
   <rect id="rect1640" x="69.84" y="40.71" width="29.811" height="29.811" rx="6.6099" ry="6.6099" stroke-width=".3"/>
   <rect id="rect1642" x="69.84" y="40.71" width="29.811" height="29.811" rx="6.6099" ry="6.6099" stroke-width=".4"/>
   <rect id="rect1644" x="69.84" y="40.71" width="29.811" height="29.811" rx="6.6099" ry="6.6099" stroke-width=".5"/>
   <rect id="rect1646" x="69.84" y="40.71" width="29.811" height="29.811" rx="6.6099" ry="6.6099" stroke-width=".6"/>
   <rect id="rect1648" x="69.84" y="40.71" width="29.811" height="29.811" rx="6.6099" ry="6.6099" stroke-width=".7"/>
   <rect id="rect1650" x="69.84" y="40.71" width="29.811" height="29.811" rx="6.6099" ry="6.6099" stroke-width=".8"/>
   <rect id="rect1652" x="69.84" y="40.71" width="29.811" height="29.811" rx="6.6099" ry="6.6099"/>
   <rect id="rect1654" x="69.84" y="40.71" width="29.811" height="29.811" rx="6.6099" ry="6.6099" stroke-width="1.2"/>
   <rect id="rect1656" x="69.84" y="40.71" width="29.811" height="29.811" rx="6.6099" ry="6.6099" stroke-width="1.4"/>
   <rect id="rect1658" x="69.84" y="40.71" width="29.811" height="29.811" rx="6.6099" ry="6.6099" stroke-width="1.6"/>
   <rect id="rect1660" x="69.84" y="40.71" width="29.811" height="29.811" rx="6.6099" ry="6.6099" stroke-width="1.8"/>
   <rect id="rect1662" x="69.84" y="40.71" width="29.811" height="29.811" rx="6.6099" ry="6.6099" stroke-width="2"/>
   <rect id="rect1664" x="69.84" y="40.71" width="29.811" height="29.811" rx="6.6099" ry="6.6099" stroke-width="2.2"/>
   <rect id="rect1666" x="69.84" y="40.71" width="29.811" height="29.811" rx="6.6099" ry="6.6099" stroke-width="2.6"/>
   <rect id="rect1668" x="69.84" y="40.71" width="29.811" height="29.811" rx="6.6099" ry="6.6099" stroke-width="3"/>
   <rect id="rect1670" x="69.84" y="40.71" width="29.811" height="29.811" rx="6.6099" ry="6.6099" stroke-width="3.4"/>
   <rect id="rect1672" x="69.84" y="40.71" width="29.811" height="29.811" rx="6.6099" ry="6.6099" stroke-width="3.8"/>
   <rect id="rect1674" x="69.84" y="40.71" width="29.811" height="29.811" rx="6.6099" ry="6.6099" stroke-width="4.2"/>
   <rect id="rect1676" x="69.84" y="40.71" width="29.811" height="29.811" rx="6.6099" ry="6.6099" stroke-width="4.6"/>
   <rect id="rect1678" x="69.84" y="40.71" width="29.811" height="29.811" rx="6.6099" ry="6.6099" stroke-width="5"/>
  </g>
  <rect id="rect849" x="2.4074" y="2.5392" width="29.087" height="29.087" rx="6.4495" ry="6.4495" fill="url(#radialGradient1999)" stroke-linecap="round" stroke-linejoin="round" stroke-width="2.6877"/>
  <g id="g2695" fill="#000d43" opacity=".63818">
   <path id="path2575" d="m10.641 8.3275c-2.4019 0-4.3351 1.9338-4.3351 4.3357v5.8115c0 1.4761 1.1879 2.6644 2.6639 2.6644h2.7487v3.4117c0 1.0703 0.86186 1.9322 1.9322 1.9322h7.4926c1.0703 0 1.9322-0.86186 1.9322-1.9322v-3.4117h2.7482c1.4761 0 2.6644-1.1884 2.6644-2.6644v-5.8115c0-2.4019-1.9338-4.3357-4.3357-4.3357zm1.1436 4.5584a3.2639 3.2639 0 0 1 3.2639 3.2639 3.2639 3.2639 0 0 1-3.2639 3.2639 3.2639 3.2639 0 0 1-3.2639-3.2639 3.2639 3.2639 0 0 1 3.2639-3.2639zm11.225 0a3.2639 3.2639 0 0 1 3.2639 3.2639 3.2639 3.2639 0 0 1-3.2639 3.2639 3.2639 3.2639 0 0 1-3.2639-3.2639 3.2639 3.2639 0 0 1 3.2639-3.2639z" fill-opacity=".047449" opacity="1"/>
   <path id="path2685" d="m12.765 10.388c-2.4019 0-4.3351 1.9338-4.3351 4.3357v5.8115c0 1.4761 1.1879 2.6644 2.6639 2.6644h2.7487v3.4117c0 1.0703 0.86186 1.9322 1.9322 1.9322h7.4926c1.0703 0 1.9322-0.86186 1.9322-1.9322v-3.4117h2.7482c1.4761 0 2.6644-1.1884 2.6644-2.6644v-5.8115c0-2.4019-1.9338-4.3357-4.3357-4.3357zm1.1436 4.5584a3.2639 3.2639 0 0 1 3.2639 3.2639 3.2639 3.2639 0 0 1-3.2639 3.2639 3.2639 3.2639 0 0 1-3.2639-3.2639 3.2639 3.2639 0 0 1 3.2639-3.2639zm11.225 0a3.2639 3.2639 0 0 1 3.2639 3.2639 3.2639 3.2639 0 0 1-3.2639 3.2639 3.2639 3.2639 0 0 1-3.2639-3.2639 3.2639 3.2639 0 0 1 3.2639-3.2639z" fill-opacity=".047449" opacity="1"/>
   <path id="path2687" d="m11.509 9.1057c-2.4019 0-4.3351 1.9338-4.3351 4.3357v5.8115c0 1.4761 1.1879 2.6644 2.6639 2.6644h2.7487v3.4117c0 1.0703 0.86186 1.9322 1.9322 1.9322h7.4926c1.0703 0 1.9322-0.86186 1.9322-1.9322v-3.4117h2.7482c1.4761 0 2.6644-1.1884 2.6644-2.6644v-5.8115c0-2.4019-1.9338-4.3357-4.3357-4.3357zm1.1436 4.5584a3.2639 3.2639 0 0 1 3.2639 3.2639 3.2639 3.2639 0 0 1-3.2639 3.2639 3.2639 3.2639 0 0 1-3.2639-3.2639 3.2639 3.2639 0 0 1 3.2639-3.2639zm11.225 0a3.2639 3.2639 0 0 1 3.2639 3.2639 3.2639 3.2639 0 0 1-3.2639 3.2639 3.2639 3.2639 0 0 1-3.2639-3.2639 3.2639 3.2639 0 0 1 3.2639-3.2639z" fill-opacity=".047449" opacity="1"/>
   <path id="path2689" d="m11.509 9.1057c-2.4019 0-4.3351 1.9338-4.3351 4.3357v5.8115c0 1.4761 1.1879 2.6644 2.6639 2.6644h2.7487v3.4117c0 1.0703 0.86186 1.9322 1.9322 1.9322h7.4926c1.0703 0 1.9322-0.86186 1.9322-1.9322v-3.4117h2.7482c1.4761 0 2.6644-1.1884 2.6644-2.6644v-5.8115c0-2.4019-1.9338-4.3357-4.3357-4.3357zm1.1436 4.5584a3.2639 3.2639 0 0 1 3.2639 3.2639 3.2639 3.2639 0 0 1-3.2639 3.2639 3.2639 3.2639 0 0 1-3.2639-3.2639 3.2639 3.2639 0 0 1 3.2639-3.2639zm11.225 0a3.2639 3.2639 0 0 1 3.2639 3.2639 3.2639 3.2639 0 0 1-3.2639 3.2639 3.2639 3.2639 0 0 1-3.2639-3.2639 3.2639 3.2639 0 0 1 3.2639-3.2639z" fill-opacity=".047449" opacity="1"/>
  </g>
  <path id="rect975" d="m10.195 8.0052c-2.4019 0-4.3351 1.9338-4.3351 4.3357v5.8115c0 1.4761 1.1879 2.6644 2.6639 2.6644h2.7487v3.4117c0 1.0703 0.86186 1.9322 1.9322 1.9322h7.4926c1.0703 0 1.9322-0.86186 1.9322-1.9322v-3.4117h2.7482c1.4761 0 2.6644-1.1884 2.6644-2.6644v-5.8115c0-2.4019-1.9338-4.3357-4.3357-4.3357zm1.1436 4.5584a3.2639 3.2639 0 0 1 3.2639 3.2639 3.2639 3.2639 0 0 1-3.2639 3.2639 3.2639 3.2639 0 0 1-3.2639-3.2639 3.2639 3.2639 0 0 1 3.2639-3.2639zm11.225 0a3.2639 3.2639 0 0 1 3.2639 3.2639 3.2639 3.2639 0 0 1-3.2639 3.2639 3.2639 3.2639 0 0 1-3.2639-3.2639 3.2639 3.2639 0 0 1 3.2639-3.2639z" fill="url(#linearGradient1468)"/>
  <path id="path2751" transform="scale(.26458)" d="m101.17 35.014c1.7246 2.5958 2.7285 5.715 2.7285 9.0781v21.965c0 5.5788-4.4915 10.07-10.07 10.07h-10.387v12.895c0 4.0453-3.2574 7.3027-7.3027 7.3027h-28.318c-1.681 0-3.2253-0.56393-4.457-1.5117 1.1902 2.411 3.6688 4.0625 6.5488 4.0625h28.318c4.0453 0 7.3027-3.2574 7.3027-7.3027v-12.895h10.387c5.5788 0 10.07-4.4915 10.07-10.07v-21.965c0-4.555-1.84-8.6646-4.8203-11.629zm-60.402 9.9199c-6.8129 6e-6 -12.336 5.523-12.336 12.336 0.0077 3.4175 1.4329 6.6786 3.9355 9.0059-1.1995-1.9399-1.8377-4.1743-1.8438-6.4551 7e-6 -6.8129 5.523-12.336 12.336-12.336 3.1205 0.0076 6.1222 1.1975 8.4004 3.3301-2.2401-3.648-6.2113-5.8739-10.492-5.8809zm42.424 0c-6.8129 6e-6 -12.336 5.523-12.336 12.336 0.0077 3.4175 1.4329 6.6786 3.9355 9.0059-1.1995-1.9399-1.8377-4.1743-1.8438-6.4551 7e-6 -6.8129 5.523-12.336 12.336-12.336 3.1205 0.0076 6.1222 1.1975 8.4004 3.3301-2.2401-3.648-6.2113-5.8739-10.492-5.8809zm-59.699 28.705c1.7355 3.0151 4.9859 5.0391 8.7285 5.0391l10.389-1.73e-4 -2.0917-2.5506h-10.389c-2.5479 0-4.8671-0.93882-6.6367-2.4883z" fill="#1f76ff" fill-opacity=".10619"/>
 </g>
</svg>
