<?xml version="1.0" encoding="UTF-8"?>
<svg id="svg29" width="64" height="64" version="1.1" viewBox="0 0 16.933 16.933" xml:space="preserve" xmlns="http://www.w3.org/2000/svg" xmlns:cc="http://creativecommons.org/ns#" xmlns:dc="http://purl.org/dc/elements/1.1/" xmlns:rdf="http://www.w3.org/1999/02/22-rdf-syntax-ns#" xmlns:xlink="http://www.w3.org/1999/xlink"><metadata id="metadata2"><rdf:RDF><cc:Work rdf:about=""><dc:format>image/svg+xml</dc:format><dc:type rdf:resource="http://purl.org/dc/dcmitype/StillImage"/><dc:title/></cc:Work></rdf:RDF></metadata><defs id="defs15"><filter id="filter1057" x="-.027" y="-.027" width="1.054" height="1.054" color-interpolation-filters="sRGB"><feGaussianBlur id="feGaussianBlur1059" stdDeviation="0.61875"/></filter><linearGradient id="linearGradient1053" x1="-127" x2="-127" y1="60" y2="5" gradientTransform="matrix(.26458 0 0 .26458 34.792 -.13493)" gradientUnits="userSpaceOnUse"><stop id="stop1047" stop-color="#df2a2a" offset="0"/><stop id="stop1049" stop-color="#f83f3f" offset="1"/></linearGradient></defs><circle id="circle21" cx="-306.19" cy="-335.4" r="0" fill="#5e4aa6" stroke-width=".26458"/><circle id="circle23" cx="-15.281" cy="-.5775" r="0" fill="#5e4aa6" fill-rule="evenodd" stroke-width=".26458"/><g id="g30" transform="scale(.26458)" fill="#5e4aa6"><circle id="circle24" cx="-1248.7" cy="-1241.6" r="0"/><circle id="circle26" cx="-1140.3" cy="-1301.8" r="0"/><circle id="circle28" cx="-1158.1" cy="-1246" r="0"/></g><circle id="circle36" cx="-306.2" cy="-335.41" r="0" fill="#5e4aa6" stroke-width=".26458"/><circle id="circle38" cx="-15.281" cy="-.57755" r="0" fill="#5e4aa6" fill-rule="evenodd" stroke-width=".26458"/><rect id="rect1055" transform="scale(.26458)" x="4.5" y="4.5" width="55" height="55" ry="15" fill="#141414" filter="url(#filter1057)" opacity=".3" stroke-linecap="round" stroke-width="2.7444"/><rect id="rect1045" x="1.1906" y="1.1906" width="14.552" height="14.552" ry="3.9687" fill="url(#linearGradient1053)" stroke-linecap="round" stroke-width=".7261"/><g id="g1025" transform="matrix(1.3385 0 0 1.3385 -21.739 8.2255)" fill="#fff"><path id="path412" d="m19.909-1.7415-1.789 4.1978h2.1263l0.91802-2.0322-0.96544-2.1554s-0.13054-0.3783-0.28997-0.010221z"/><path id="path968" d="m20.102-2.1307s0.17289 0.13819 0.2885 0.33844c0.11562 0.20025 1.4837 3.3705 1.4837 3.3705s0.11096 0.26631 0.24412 0 0.97927-2.182 0.97927-2.182-0.32562-1.244-0.89448-1.5265z"/><path id="path1017" d="m26.263 0.67385c-0.15258-0.19141-0.61862 0.01942-0.61862 0.01942s-2.9821 1.0568-3.2606 1.1471c-0.27854 0.090232-0.14908-0.21185-0.14908-0.21185l1.0295-2.2212 1.0823-0.36739s0.41056-0.11096 0.53817 0.02774c0.12761 0.1387 1.3706 1.5972 1.3783 1.6062z"/><path id="path1019" d="m24.385 1.3202s-0.03329 0.17754 0.05548 0.33289c0.08877 0.15535 0.40502 0.83777 0.40502 0.83777h2.1693l-0.67688-1.5313s-0.09987-0.27186-0.59365-0.11096c-0.49379 0.1609-1.3593 0.47159-1.3593 0.47159z"/></g></svg>
