<?xml version="1.0" encoding="UTF-8"?>
<svg id="svg2117" width="128" height="128" version="1.1" viewBox="0 0 33.867 33.867" xmlns="http://www.w3.org/2000/svg" xmlns:cc="http://creativecommons.org/ns#" xmlns:dc="http://purl.org/dc/elements/1.1/" xmlns:rdf="http://www.w3.org/1999/02/22-rdf-syntax-ns#" xmlns:xlink="http://www.w3.org/1999/xlink">
 <defs id="defs2111">
  <linearGradient id="linearGradient912" x1="132.21" x2="132.21" y1="42.152" y2="70.68" gradientTransform="matrix(.97573 0 0 .97573 -111.89 -37.234)" gradientUnits="userSpaceOnUse">
   <stop id="stop1626" stop-color="#f8fcfc" offset="0"/>
   <stop id="stop1628" stop-color="#e3e5e8" offset="1"/>
  </linearGradient>
 </defs>
 <metadata id="metadata2114">
  <rdf:RDF>
   <cc:Work rdf:about="">
    <dc:format>image/svg+xml</dc:format>
    <dc:type rdf:resource="http://purl.org/dc/dcmitype/StillImage"/>
   </cc:Work>
  </rdf:RDF>
 </metadata>
 <g id="layer1">
  <g id="g1702" transform="matrix(.97573 0 0 .97573 -65.83 -36.915)" fill="none" opacity=".13962" stroke="#000" stroke-linecap="round" stroke-linejoin="round" stroke-opacity=".02">
   <rect id="rect1634" x="69.84" y="40.71" width="29.811" height="29.811" rx="6.6099" ry="6.6099" stroke-width=".1"/>
   <rect id="rect1638" x="69.84" y="40.71" width="29.811" height="29.811" rx="6.6099" ry="6.6099" stroke-width=".2"/>
   <rect id="rect1640" x="69.84" y="40.71" width="29.811" height="29.811" rx="6.6099" ry="6.6099" stroke-width=".3"/>
   <rect id="rect1642" x="69.84" y="40.71" width="29.811" height="29.811" rx="6.6099" ry="6.6099" stroke-width=".4"/>
   <rect id="rect1644" x="69.84" y="40.71" width="29.811" height="29.811" rx="6.6099" ry="6.6099" stroke-width=".5"/>
   <rect id="rect1646" x="69.84" y="40.71" width="29.811" height="29.811" rx="6.6099" ry="6.6099" stroke-width=".6"/>
   <rect id="rect1648" x="69.84" y="40.71" width="29.811" height="29.811" rx="6.6099" ry="6.6099" stroke-width=".7"/>
   <rect id="rect1650" x="69.84" y="40.71" width="29.811" height="29.811" rx="6.6099" ry="6.6099" stroke-width=".8"/>
   <rect id="rect1652" x="69.84" y="40.71" width="29.811" height="29.811" rx="6.6099" ry="6.6099"/>
   <rect id="rect1654" x="69.84" y="40.71" width="29.811" height="29.811" rx="6.6099" ry="6.6099" stroke-width="1.2"/>
   <rect id="rect1656" x="69.84" y="40.71" width="29.811" height="29.811" rx="6.6099" ry="6.6099" stroke-width="1.4"/>
   <rect id="rect1658" x="69.84" y="40.71" width="29.811" height="29.811" rx="6.6099" ry="6.6099" stroke-width="1.6"/>
   <rect id="rect1660" x="69.84" y="40.71" width="29.811" height="29.811" rx="6.6099" ry="6.6099" stroke-width="1.8"/>
   <rect id="rect1662" x="69.84" y="40.71" width="29.811" height="29.811" rx="6.6099" ry="6.6099" stroke-width="2"/>
   <rect id="rect1664" x="69.84" y="40.71" width="29.811" height="29.811" rx="6.6099" ry="6.6099" stroke-width="2.2"/>
   <rect id="rect1666" x="69.84" y="40.71" width="29.811" height="29.811" rx="6.6099" ry="6.6099" stroke-width="2.6"/>
   <rect id="rect1668" x="69.84" y="40.71" width="29.811" height="29.811" rx="6.6099" ry="6.6099" stroke-width="3"/>
   <rect id="rect1670" x="69.84" y="40.71" width="29.811" height="29.811" rx="6.6099" ry="6.6099" stroke-width="3.4"/>
   <rect id="rect1672" x="69.84" y="40.71" width="29.811" height="29.811" rx="6.6099" ry="6.6099" stroke-width="3.8"/>
   <rect id="rect1674" x="69.84" y="40.71" width="29.811" height="29.811" rx="6.6099" ry="6.6099" stroke-width="4.2"/>
   <rect id="rect1676" x="69.84" y="40.71" width="29.811" height="29.811" rx="6.6099" ry="6.6099" stroke-width="4.6"/>
   <rect id="rect1678" x="69.84" y="40.71" width="29.811" height="29.811" rx="6.6099" ry="6.6099" stroke-width="5"/>
  </g>
  <rect id="rect910" x="2.2835" y="2.4875" width="29.087" height="29.087" rx="6.4495" ry="6.4495" fill="url(#linearGradient912)" stroke-linecap="round" stroke-linejoin="round" stroke-width="2.6877"/>
  <g id="g1000" transform="translate(.74709 -.09499)" stroke-width=".4757">
   <path id="path2" d="m25.594 8.8016c-0.70031 6.38-2.0647 12.158-3.9756 17.6h3.9753zm-3.9756 17.6c-0.04603-5.5095-0.90812-8.6244-1.2571-9.9186v8.9705z" opacity=".2"/>
   <path id="path4" d="m11.059 16.635-4.4931 9.7669c1.5708-0.05299 3.0046 0.26569 5.0074-0.97795z" opacity=".2"/>
   <path id="path6" d="m20.198 16.008 5.3958-7.6817-0.82903 12.723-3.1464 4.8504c-0.63517-5.436-1.0894-8.5956-1.4204-9.8921z" fill="#197279"/>
   <path id="path8" d="m11.059 16.159-4.4931 9.7669c1.5708-0.05298 3.0046 0.26569 5.0074-0.97795z" fill="#197279"/>
   <path id="path10" d="m25.594 8.3259c-0.70031 6.38-2.0647 12.158-3.9756 17.6h3.9753zm-3.9756 17.6c-0.04603-5.5095-0.90812-8.6244-1.2571-9.9186v8.9705z" fill="#029a9b"/>
   <path id="path12" d="m25.594 8.3259c-0.70031 6.38-2.0647 12.158-3.9756 17.601h0.15888c1.825-5.3046 3.1366-10.929 3.8167-17.125zm-3.9756 17.601c-0.04603-5.5095-0.90809-8.6248-1.2571-9.919v0.4757c0.33815 1.2541 1.1516 4.2379 1.2441 9.4331z" fill="#fff" opacity=".2"/>
   <path id="path14" d="m6.5662 8.8742h4.0404l0.91052 7.6137-4.9509 9.9143z" opacity=".2"/>
   <path id="path16" d="m6.5662 8.3985h4.0404l0.91052 7.6137-4.9509 9.9143z" fill="#029a9b"/>
   <path id="path18" d="m12.341 8.3259-5.7753 0.54817 7.5377 13.723h3.9812l7.5089-13.795h-5.7753l-3.6959 8.9212z" opacity=".2"/>
   <path id="path20" d="m25.594 8.3259h-5.775l-5.7153 13.795h3.9816z" fill="#28c4c6"/>
   <path id="path22" d="m19.819 8.3259-5.7149 13.795h0.19697l5.5179-13.319h5.516l0.25922-0.4757z" fill="#fff" opacity=".2"/>
   <path id="path24" d="m6.5662 8.3985 5.7748-0.54828 5.7444 14.271h-3.9816z" fill="#92dbdc"/>
   <path id="path26" d="m12.341 7.8502-5.7753 0.54817 0.24807 0.45247 5.5272-0.52494 5.5523 13.795h0.19139z" fill="#fff" opacity=".2"/>
  </g>
 </g>
</svg>
