<?xml version="1.0" encoding="UTF-8"?>
<svg id="svg27" width="64" height="64" version="1.1" xmlns="http://www.w3.org/2000/svg" xmlns:cc="http://creativecommons.org/ns#" xmlns:dc="http://purl.org/dc/elements/1.1/" xmlns:rdf="http://www.w3.org/1999/02/22-rdf-syntax-ns#" xmlns:xlink="http://www.w3.org/1999/xlink">
 <metadata id="metadata33">
  <rdf:RDF>
   <cc:Work rdf:about="">
    <dc:format>image/svg+xml</dc:format>
    <dc:type rdf:resource="http://purl.org/dc/dcmitype/StillImage"/>
    <dc:title/>
   </cc:Work>
  </rdf:RDF>
 </metadata>
 <defs id="defs31">
  <style id="style862" type="text/css"/>
  <filter id="filter1057" x="-.027" y="-.027" width="1.054" height="1.054" color-interpolation-filters="sRGB">
   <feGaussianBlur id="feGaussianBlur864" stdDeviation="0.61875"/>
  </filter>
  <linearGradient id="linearGradient1053" x1="-127" x2="-127" y1="60" y2="5" gradientTransform="translate(131.5 -.51)" gradientUnits="userSpaceOnUse">
   <stop id="stop867" stop-color="#32d7ff" offset="0"/>
   <stop id="stop869" stop-color="#329bff" offset="1"/>
  </linearGradient>
  <style id="style872" type="text/css"/>
  <style id="style874" type="text/css"/>
  <style id="style876" type="text/css"/>
  <style id="style878" type="text/css"/>
  <style id="style880" type="text/css"/>
  <style id="style882" type="text/css"/>
  <style id="style884" type="text/css"/>
  <linearGradient id="linearGradient1012" x1="111.31" x2="120.84" y1="233.06" y2="-.90457" gradientTransform="matrix(.099753 0 0 .099753 23.116 20.421)" gradientUnits="userSpaceOnUse">
   <stop id="stop14" stop-color="#ff9704" offset="0"/>
   <stop id="stop16" stop-color="#ffbb3a" offset="1"/>
  </linearGradient>
 </defs>
 <linearGradient id="b" x1="399.57" x2="399.57" y1="545.8" y2="517.8" gradientUnits="userSpaceOnUse">
  <stop id="stop2" stop-color="#3889e9" offset="0"/>
  <stop id="stop4" stop-color="#5ea5fb" offset="1"/>
 </linearGradient>
 <circle id="circle19" transform="matrix(1.6375 0 0 1.6375 -644.58 -848.72)" cx="400.57" cy="531.8" r="0" fill="url(#b)"/>
 <rect id="rect900" x="4.5" y="4.5" width="55" height="55" ry="15" fill="#141414" filter="url(#filter1057)" opacity=".3" stroke-linecap="round" stroke-width="2.7444"/>
 <rect id="rect902" x="4.5" y="4.5" width="55" height="55" ry="15" fill="url(#linearGradient1053)" stroke-linecap="round" stroke-width="2.7444"/>
 <circle id="circle888" cx="-1198.2" cy="-1279.3" r="0" fill="#5e4aa6"/>
 <circle id="circle890" cx="-1079.7" cy="-1318.6" r="0" fill="#5e4aa6"/>
 <circle id="circle892" cx="19.795" cy="-53.109" r="0" fill="#5e4aa6" fill-rule="evenodd"/>
 <circle id="circle894" cx="-1001.2" cy="-1390.1" r="0" fill="#5e4aa6"/>
 <circle id="circle896" cx="98.294" cy="-124.58" r="0" fill="#5e4aa6" fill-rule="evenodd"/>
 <circle id="circle1008" cx="32" cy="32" r="20" fill="#fff" opacity=".92" stroke-width=".11531"/>
 <path id="path1010" d="m43.445 30.359-15.41-9.7093c-0.45557-0.27123-1.0213-0.22604-1.4485-0.22604-1.709 0-1.7014 1.3194-1.7014 1.6537v19.845c0 0.2826-0.0075 1.6538 1.7014 1.6538 0.42724 0 0.99304 0.04499 1.4485-0.22614l15.41-9.7092c1.2649-0.75263 1.0463-1.6408 1.0463-1.6408s0.21866-0.8882-1.0462-1.6407z" clip-rule="evenodd" fill="url(#linearGradient1012)" fill-rule="evenodd" opacity=".9" stroke-width=".099752"/>
</svg>
