<?xml version="1.0" encoding="UTF-8"?>
<svg id="svg1443" width="128" height="128" version="1.1" viewBox="0 0 33.867 33.867" xmlns="http://www.w3.org/2000/svg" xmlns:cc="http://creativecommons.org/ns#" xmlns:dc="http://purl.org/dc/elements/1.1/" xmlns:rdf="http://www.w3.org/1999/02/22-rdf-syntax-ns#" xmlns:xlink="http://www.w3.org/1999/xlink">
 <defs id="defs1437">
  <radialGradient id="radialGradient1999" cx="17.076" cy="4.6282" r="14.544" gradientTransform="matrix(4.7283 0 0 1.6998 -63.506 -2.7937)" gradientUnits="userSpaceOnUse">
   <stop id="stop1993" stop-color="#34d7ee" offset="0"/>
   <stop id="stop1995" stop-color="#2b93fa" offset="1"/>
  </radialGradient>
  <linearGradient id="linearGradient2002" x1="9.44" x2="9.44" y1="11.543" y2="58.583" gradientUnits="userSpaceOnUse">
   <stop id="stop1996" stop-color="#fff" stop-opacity=".9891" offset="0"/>
   <stop id="stop1998" stop-color="#2c9af9" offset="1"/>
  </linearGradient>
 </defs>
 <metadata id="metadata1440">
  <rdf:RDF>
   <cc:Work rdf:about="">
    <dc:format>image/svg+xml</dc:format>
    <dc:type rdf:resource="http://purl.org/dc/dcmitype/StillImage"/>
   </cc:Work>
  </rdf:RDF>
 </metadata>
 <g id="layer1">
  <g id="g1702" transform="matrix(.97573 0 0 .96361 -65.737 -36.328)" fill="none" opacity=".18754" stroke="#000" stroke-linecap="round" stroke-linejoin="round" stroke-opacity=".02">
   <rect id="rect1634" x="69.84" y="40.71" width="29.811" height="29.811" rx="6.6099" ry="6.6099" stroke-width=".1"/>
   <rect id="rect1638" x="69.84" y="40.71" width="29.811" height="29.811" rx="6.6099" ry="6.6099" stroke-width=".2"/>
   <rect id="rect1640" x="69.84" y="40.71" width="29.811" height="29.811" rx="6.6099" ry="6.6099" stroke-width=".3"/>
   <rect id="rect1642" x="69.84" y="40.71" width="29.811" height="29.811" rx="6.6099" ry="6.6099" stroke-width=".4"/>
   <rect id="rect1644" x="69.84" y="40.71" width="29.811" height="29.811" rx="6.6099" ry="6.6099" stroke-width=".5"/>
   <rect id="rect1646" x="69.84" y="40.71" width="29.811" height="29.811" rx="6.6099" ry="6.6099" stroke-width=".6"/>
   <rect id="rect1648" x="69.84" y="40.71" width="29.811" height="29.811" rx="6.6099" ry="6.6099" stroke-width=".7"/>
   <rect id="rect1650" x="69.84" y="40.71" width="29.811" height="29.811" rx="6.6099" ry="6.6099" stroke-width=".8"/>
   <rect id="rect1652" x="69.84" y="40.71" width="29.811" height="29.811" rx="6.6099" ry="6.6099"/>
   <rect id="rect1654" x="69.84" y="40.71" width="29.811" height="29.811" rx="6.6099" ry="6.6099" stroke-width="1.2"/>
   <rect id="rect1656" x="69.84" y="40.71" width="29.811" height="29.811" rx="6.6099" ry="6.6099" stroke-width="1.4"/>
   <rect id="rect1658" x="69.84" y="40.71" width="29.811" height="29.811" rx="6.6099" ry="6.6099" stroke-width="1.6"/>
   <rect id="rect1660" x="69.84" y="40.71" width="29.811" height="29.811" rx="6.6099" ry="6.6099" stroke-width="1.8"/>
   <rect id="rect1662" x="69.84" y="40.71" width="29.811" height="29.811" rx="6.6099" ry="6.6099" stroke-width="2"/>
   <rect id="rect1664" x="69.84" y="40.71" width="29.811" height="29.811" rx="6.6099" ry="6.6099" stroke-width="2.2"/>
   <rect id="rect1666" x="69.84" y="40.71" width="29.811" height="29.811" rx="6.6099" ry="6.6099" stroke-width="2.6"/>
   <rect id="rect1668" x="69.84" y="40.71" width="29.811" height="29.811" rx="6.6099" ry="6.6099" stroke-width="3"/>
   <rect id="rect1670" x="69.84" y="40.71" width="29.811" height="29.811" rx="6.6099" ry="6.6099" stroke-width="3.4"/>
   <rect id="rect1672" x="69.84" y="40.71" width="29.811" height="29.811" rx="6.6099" ry="6.6099" stroke-width="3.8"/>
   <rect id="rect1674" x="69.84" y="40.71" width="29.811" height="29.811" rx="6.6099" ry="6.6099" stroke-width="4.2"/>
   <rect id="rect1676" x="69.84" y="40.71" width="29.811" height="29.811" rx="6.6099" ry="6.6099" stroke-width="4.6"/>
   <rect id="rect1678" x="69.84" y="40.71" width="29.811" height="29.811" rx="6.6099" ry="6.6099" stroke-width="5"/>
  </g>
  <rect id="rect849" x="2.4074" y="2.5392" width="29.087" height="29.087" rx="6.4495" ry="6.4495" fill="url(#radialGradient1999)" stroke-linecap="round" stroke-linejoin="round" stroke-width="2.6877"/>
  <g id="g1277" fill="#06028a" fill-opacity=".097653" opacity=".52274" stroke-width=".32763">
   <path id="path1142" d="m17.317 8.9986c-4.7097 0-7.5355 0.98289-7.5355 0.98289v10.025c1.9658 4.7179 7.5355 7.3391 7.5355 7.3391s5.5697-2.621 7.5355-7.2079v-10.157s-2.8258-0.98289-7.5355-0.98289zm-6.5526 1.6382h2.621l3.9316 3.8663 3.9316-3.8663h2.621v9.5013c0 0.65526-2.621 3.2763-2.621 3.2763v-8.846l-2.621 2.621v3.6039h-2.621v-3.6039l-2.621-2.621v8.846s-2.621-2.6211-2.621-3.2763z"/>
   <path id="path1270" d="m17.737 9.4295c-4.7097 0-7.5355 0.98289-7.5355 0.98289v10.025c1.9658 4.7179 7.5355 7.3391 7.5355 7.3391s5.5697-2.621 7.5355-7.2079v-10.157s-2.8258-0.98289-7.5355-0.98289zm-6.5526 1.6382h2.621l3.9316 3.8663 3.9316-3.8663h2.621v9.5013c0 0.65526-2.621 3.2763-2.621 3.2763v-8.846l-2.621 2.621v3.6039h-2.621v-3.6039l-2.621-2.621v8.846s-2.621-2.6211-2.621-3.2763z"/>
   <path id="path1272" d="m18.203 9.8593c-4.7097 0-7.5355 0.98289-7.5355 0.98289v10.025c1.9658 4.7179 7.5355 7.3391 7.5355 7.3391s5.5697-2.621 7.5355-7.2079v-10.157s-2.8258-0.98289-7.5355-0.98289zm-6.5526 1.6382h2.621l3.9316 3.8663 3.9316-3.8663h2.621v9.5013c0 0.65526-2.621 3.2763-2.621 3.2763v-8.846l-2.621 2.621v3.6039h-2.621v-3.6039l-2.621-2.621v8.846s-2.621-2.6211-2.621-3.2763z"/>
  </g>
  <path id="path4" d="m16.975 8.8898c-4.7097 0-7.5355 0.98289-7.5355 0.98289v10.025c1.9658 4.7179 7.5355 7.3391 7.5355 7.3391s5.5697-2.621 7.5355-7.2079v-10.157s-2.8258-0.98289-7.5355-0.98289zm-6.5526 1.6382h2.621l3.9316 3.8663 3.9316-3.8663h2.621v9.5013c0 0.65526-2.621 3.2763-2.621 3.2763v-8.846l-2.621 2.621v3.6039h-2.621v-3.6039l-2.621-2.621v8.846s-2.621-2.6211-2.621-3.2763z" fill="url(#linearGradient2002)" stroke-width=".32763"/>
  <path id="path1510" transform="scale(.26458)" d="m64.16 33.6c-1.6995 0-3.3338 0.034441-4.9004 0.095703 1.4565-0.051372 2.9773-0.080078 4.5605-0.080078 16.918 0 26.692 3.2203 27.541 3.5059v37.389c-7.1444 16.485-26.814 26.052-27.533 26.398-0.7079-0.34106-20.388-9.9031-27.543-26.877v-36.91c-0.38946 0.11968-0.60742 0.19336-0.60742 0.19336v37.891c7.255 17.412 27.445 27.241 28.393 27.695a0.94498 0.94498 0 0 0 0.15625-0.03516s3.4316-1.5998 8.0312-4.6602c0.012159-0.008162 0.024935-0.017208 0.03711-0.02539 6.7545-4.5394 15.942-12.204 20.346-22.479v-38.387s-10.68-3.7148-28.48-3.7148zm-25.1 4.3125a0.94498 0.94498 0 0 0-0.94531 0.94336v35.914c0 0.62453 0.2295 1.12 0.5332 1.6895 0.30368 0.56944 0.71493 1.1852 1.1953 1.8457 0.96076 1.321 2.2111 2.8088 3.4609 4.2148 2.4997 2.8121 4.9902 5.3008 4.9902 5.3008a0.94498 0.94498 0 0 0 0.95703 0.21484c-0.2747-0.2752-9.8594-9.8927-9.8594-12.334v-35.91h9.9082l14.811 14.566a0.94498 0.94498 0 0 0 0.19336-0.095703l14.715-14.471h9.9062v35.91c0 2.3904-9.1445 11.618-9.7871 12.264a0.94498 0.94498 0 0 0 0.21289-0.14453s2.4906-2.4887 4.9902-5.3008c1.2498-1.4061 2.5002-2.8938 3.4609-4.2148 0.48038-0.66053 0.89357-1.2763 1.1973-1.8457 0.30368-0.56944 0.53125-1.0649 0.53125-1.6895v-35.914a0.94498 0.94498 0 0 0-0.94531-0.94336h-9.9062a0.94498 0.94498 0 0 0-0.65625 0.27148l-14.203 13.959-14.195-13.959a0.94498 0.94498 0 0 0-0.66406-0.27148h-9.9004zm10.24 16.738v33.373a0.94498 0.94498 0 0 0 0.60352-0.875v-31.152l8.0176 8.0176v13.229a0.94498 0.94498 0 0 0 0.94531 0.94531h9.9062a0.94498 0.94498 0 0 0 0.048828-0.009766h-9.6152v-13.621l-9.9062-9.9062zm29.719 0-9.9062 9.9062v13.562a0.94498 0.94498 0 0 0 0.60547-0.87695v-13.229l8.0156-8.0098v31.145a0.94498 0.94498 0 0 0 1.2852 0.88476v-33.383z" color="#000000" fill="#052fe4" fill-opacity=".31246" opacity=".1402" stroke-linecap="round" stroke-linejoin="round" stroke-width="3.7795" style="-inkscape-stroke:none"/>
 </g>
</svg>
