<?xml version="1.0" encoding="UTF-8"?>
<svg id="svg6" width="128" height="128" version="1.1" viewBox="0 0 33.867 33.867" xmlns="http://www.w3.org/2000/svg" xmlns:xlink="http://www.w3.org/1999/xlink">
 <g id="layer1">
  <g id="g1702" transform="translate(-65.748 -37.203) scale(.97573)" fill="none" opacity=".295" stroke="#000" stroke-linecap="round" stroke-linejoin="round" stroke-opacity=".02">
   <rect id="rect1634" x="69.84" y="40.71" width="29.811" height="29.811" rx="6.61" ry="6.61" stroke-width=".1"/>
   <rect id="rect1638" x="69.84" y="40.71" width="29.811" height="29.811" rx="6.61" ry="6.61" stroke-width=".2"/>
   <rect id="rect1640" x="69.84" y="40.71" width="29.811" height="29.811" rx="6.61" ry="6.61" stroke-width=".3"/>
   <rect id="rect1642" x="69.84" y="40.71" width="29.811" height="29.811" rx="6.61" ry="6.61" stroke-width=".4"/>
   <rect id="rect1644" x="69.84" y="40.71" width="29.811" height="29.811" rx="6.61" ry="6.61" stroke-width=".5"/>
   <rect id="rect1646" x="69.84" y="40.71" width="29.811" height="29.811" rx="6.61" ry="6.61" stroke-width=".6"/>
   <rect id="rect1648" x="69.84" y="40.71" width="29.811" height="29.811" rx="6.61" ry="6.61" stroke-width=".7"/>
   <rect id="rect1650" x="69.84" y="40.71" width="29.811" height="29.811" rx="6.61" ry="6.61" stroke-width=".8"/>
   <rect id="rect1652" x="69.84" y="40.71" width="29.811" height="29.811" rx="6.61" ry="6.61"/>
   <rect id="rect1654" x="69.84" y="40.71" width="29.811" height="29.811" rx="6.61" ry="6.61" stroke-width="1.2"/>
   <rect id="rect1656" x="69.84" y="40.71" width="29.811" height="29.811" rx="6.61" ry="6.61" stroke-width="1.4"/>
   <rect id="rect1658" x="69.84" y="40.71" width="29.811" height="29.811" rx="6.61" ry="6.61" stroke-width="1.6"/>
   <rect id="rect1660" x="69.84" y="40.71" width="29.811" height="29.811" rx="6.61" ry="6.61" stroke-width="1.8"/>
   <rect id="rect1662" x="69.84" y="40.71" width="29.811" height="29.811" rx="6.61" ry="6.61" stroke-width="2"/>
   <rect id="rect1664" x="69.84" y="40.71" width="29.811" height="29.811" rx="6.61" ry="6.61" stroke-width="2.2"/>
   <rect id="rect1666" x="69.84" y="40.71" width="29.811" height="29.811" rx="6.61" ry="6.61" stroke-width="2.6"/>
   <rect id="rect1668" x="69.84" y="40.71" width="29.811" height="29.811" rx="6.61" ry="6.61" stroke-width="3"/>
   <rect id="rect1670" x="69.84" y="40.71" width="29.811" height="29.811" rx="6.61" ry="6.61" stroke-width="3.4"/>
   <rect id="rect1672" x="69.84" y="40.71" width="29.811" height="29.811" rx="6.61" ry="6.61" stroke-width="3.8"/>
   <rect id="rect1674" x="69.84" y="40.71" width="29.811" height="29.811" rx="6.61" ry="6.61" stroke-width="4.2"/>
   <rect id="rect1676" x="69.84" y="40.71" width="29.811" height="29.811" rx="6.61" ry="6.61" stroke-width="4.6"/>
   <rect id="rect1678" x="69.84" y="40.71" width="29.811" height="29.811" rx="6.61" ry="6.61" stroke-width="5"/>
  </g>
  <rect id="rect849" x="2.396" y="2.519" width="29.087" height="29.087" rx="6.449" ry="6.449" fill="#f4f2f2" stroke-linecap="round" stroke-linejoin="round" stroke-width="2.688"/>
  <g id="g1561" transform="translate(0 7.724)">
   <path id="path1557" d="M-.054 15.686h42.007" fill="none" stroke-width=".5"/>
  </g>
  <g id="g1012" transform="translate(49.64 -2.838) scale(.65296)">
   <path id="path1006" d="m-58.865 16-1.896 1.097-.607.35-2.096 1.211-.008.005.008.006V44.2l3.992 2.8 4-2.8V27.437l6 4.1 6-4.1V44.2l4 2.8 3.991-2.8V18.669l.009-.006-.009-.005-2.096-1.212-.606-.35L-40.08 16l-9.392 5.941z" fill="#8b8b8b"/>
   <path id="path1008" d="m-58.865 16-1.896 1.096-.607.35-2.096 1.212-.008.005.008.006v25.53L-59.472 47l4-2.8V27.437l6 4.1v-9.596z" opacity=".2"/>
  </g>
 </g>
 <style id="style15307">.B{clip-path:url(#C)}.C{fill:#3e2723}.D{fill-opacity:.15}.E{fill-opacity:.2}</style>
</svg>
