<?xml version="1.0" encoding="UTF-8"?>
<svg id="svg1443" width="128" height="128" version="1.1" viewBox="0 0 33.867 33.867" xmlns="http://www.w3.org/2000/svg" xmlns:cc="http://creativecommons.org/ns#" xmlns:dc="http://purl.org/dc/elements/1.1/" xmlns:rdf="http://www.w3.org/1999/02/22-rdf-syntax-ns#" xmlns:xlink="http://www.w3.org/1999/xlink">
 <defs id="defs1437">
  <radialGradient id="radialGradient963" cx="16.951" cy="2.5104" r="14.544" gradientTransform="matrix(7.1386 0 0 2.2345 -104.06 -3.0991)" gradientUnits="userSpaceOnUse">
   <stop id="stop957" stop-color="#ff8848" offset="0"/>
   <stop id="stop959" stop-color="#df2e27" stop-opacity=".96863" offset="1"/>
  </radialGradient>
  <linearGradient id="linearGradient971" x1="7.7691" x2="7.7691" y1="17.565" y2="46.314" gradientUnits="userSpaceOnUse">
   <stop id="stop965" stop-color="#fff" offset="0"/>
   <stop id="stop967" stop-color="#e43c2c" stop-opacity=".97255" offset="1"/>
  </linearGradient>
 </defs>
 <metadata id="metadata1440">
  <rdf:RDF>
   <cc:Work rdf:about="">
    <dc:format>image/svg+xml</dc:format>
    <dc:type rdf:resource="http://purl.org/dc/dcmitype/StillImage"/>
    <dc:title/>
   </cc:Work>
  </rdf:RDF>
 </metadata>
 <g id="layer1">
  <g id="g1702" transform="matrix(.97573 0 0 .97573 -65.737 -37.183)" fill="none" opacity=".295" stroke="#000" stroke-linecap="round" stroke-linejoin="round" stroke-opacity=".02">
   <rect id="rect1634" x="69.84" y="40.71" width="29.811" height="29.811" rx="6.6099" ry="6.6099" stroke-width=".1"/>
   <rect id="rect1638" x="69.84" y="40.71" width="29.811" height="29.811" rx="6.6099" ry="6.6099" stroke-width=".2"/>
   <rect id="rect1640" x="69.84" y="40.71" width="29.811" height="29.811" rx="6.6099" ry="6.6099" stroke-width=".3"/>
   <rect id="rect1642" x="69.84" y="40.71" width="29.811" height="29.811" rx="6.6099" ry="6.6099" stroke-width=".4"/>
   <rect id="rect1644" x="69.84" y="40.71" width="29.811" height="29.811" rx="6.6099" ry="6.6099" stroke-width=".5"/>
   <rect id="rect1646" x="69.84" y="40.71" width="29.811" height="29.811" rx="6.6099" ry="6.6099" stroke-width=".6"/>
   <rect id="rect1648" x="69.84" y="40.71" width="29.811" height="29.811" rx="6.6099" ry="6.6099" stroke-width=".7"/>
   <rect id="rect1650" x="69.84" y="40.71" width="29.811" height="29.811" rx="6.6099" ry="6.6099" stroke-width=".8"/>
   <rect id="rect1652" x="69.84" y="40.71" width="29.811" height="29.811" rx="6.6099" ry="6.6099"/>
   <rect id="rect1654" x="69.84" y="40.71" width="29.811" height="29.811" rx="6.6099" ry="6.6099" stroke-width="1.2"/>
   <rect id="rect1656" x="69.84" y="40.71" width="29.811" height="29.811" rx="6.6099" ry="6.6099" stroke-width="1.4"/>
   <rect id="rect1658" x="69.84" y="40.71" width="29.811" height="29.811" rx="6.6099" ry="6.6099" stroke-width="1.6"/>
   <rect id="rect1660" x="69.84" y="40.71" width="29.811" height="29.811" rx="6.6099" ry="6.6099" stroke-width="1.8"/>
   <rect id="rect1662" x="69.84" y="40.71" width="29.811" height="29.811" rx="6.6099" ry="6.6099" stroke-width="2"/>
   <rect id="rect1664" x="69.84" y="40.71" width="29.811" height="29.811" rx="6.6099" ry="6.6099" stroke-width="2.2"/>
   <rect id="rect1666" x="69.84" y="40.71" width="29.811" height="29.811" rx="6.6099" ry="6.6099" stroke-width="2.6"/>
   <rect id="rect1668" x="69.84" y="40.71" width="29.811" height="29.811" rx="6.6099" ry="6.6099" stroke-width="3"/>
   <rect id="rect1670" x="69.84" y="40.71" width="29.811" height="29.811" rx="6.6099" ry="6.6099" stroke-width="3.4"/>
   <rect id="rect1672" x="69.84" y="40.71" width="29.811" height="29.811" rx="6.6099" ry="6.6099" stroke-width="3.8"/>
   <rect id="rect1674" x="69.84" y="40.71" width="29.811" height="29.811" rx="6.6099" ry="6.6099" stroke-width="4.2"/>
   <rect id="rect1676" x="69.84" y="40.71" width="29.811" height="29.811" rx="6.6099" ry="6.6099" stroke-width="4.6"/>
   <rect id="rect1678" x="69.84" y="40.71" width="29.811" height="29.811" rx="6.6099" ry="6.6099" stroke-width="5"/>
  </g>
  <rect id="rect849" x="2.4074" y="2.5392" width="29.087" height="29.087" rx="6.4495" ry="6.4495" fill="url(#radialGradient963)" stroke-linecap="round" stroke-linejoin="round" stroke-width="2.6877"/>
  <g id="g985" fill="#570404" opacity=".46216" shape-rendering="auto">
   <path id="path973" d="m8.1217 10.481v14.701c0 2.3501 4.6256 2.3501 4.6256 0v-9.9031c0-1.3635 2.3128-1.3635 2.3128 0v9.9031c0 2.3501 4.6256 2.3501 4.6256 0v-9.9031c0-1.3635 2.3128-1.3635 2.3128 0v9.9031c0 2.3501 4.6304 2.3501 4.6256 0v-13.356c0-1.5866-1.1876-2.8332-2.6979-2.8332l-14.301-0.0046c-0.98201 0-1.5039 0.55304-1.5039 1.4934z" color="#000000" color-rendering="auto" dominant-baseline="auto" fill-opacity=".0927" image-rendering="auto" opacity="1" solid-color="#000000" stop-color="#000000" style="font-feature-settings:normal;font-variant-alternates:normal;font-variant-caps:normal;font-variant-east-asian:normal;font-variant-ligatures:normal;font-variant-numeric:normal;font-variant-position:normal;font-variation-settings:normal;inline-size:0;isolation:auto;mix-blend-mode:normal;shape-margin:0;shape-padding:0;text-decoration-color:#000000;text-decoration-line:none;text-decoration-style:solid;text-indent:0;text-orientation:mixed;text-transform:none;white-space:normal"/>
   <path id="path975" d="m8.4547 11.174v14.701c0 2.3501 4.6256 2.3501 4.6256 0v-9.9031c0-1.3635 2.3128-1.3635 2.3128 0v9.9031c0 2.3501 4.6256 2.3501 4.6256 0v-9.9031c0-1.3635 2.3128-1.3635 2.3128 0v9.9031c0 2.3501 4.6304 2.3501 4.6256 0v-13.356c0-1.5866-1.1876-2.8332-2.6979-2.8332l-14.301-0.0046c-0.98201 0-1.5039 0.55304-1.5039 1.4934z" color="#000000" color-rendering="auto" dominant-baseline="auto" fill-opacity=".0927" image-rendering="auto" opacity="1" solid-color="#000000" stop-color="#000000" style="font-feature-settings:normal;font-variant-alternates:normal;font-variant-caps:normal;font-variant-east-asian:normal;font-variant-ligatures:normal;font-variant-numeric:normal;font-variant-position:normal;font-variation-settings:normal;inline-size:0;isolation:auto;mix-blend-mode:normal;shape-margin:0;shape-padding:0;text-decoration-color:#000000;text-decoration-line:none;text-decoration-style:solid;text-indent:0;text-orientation:mixed;text-transform:none;white-space:normal"/>
   <path id="path977" d="m8.768 11.829v14.701c0 2.3501 4.6256 2.3501 4.6256 0v-9.9031c0-1.3635 2.3128-1.3635 2.3128 0v9.9031c0 2.3501 4.6256 2.3501 4.6256 0v-9.9031c0-1.3635 2.3128-1.3635 2.3128 0v9.9031c0 2.3501 4.6304 2.3501 4.6256 0v-13.356c0-1.5866-1.1876-2.8332-2.6979-2.8332l-14.301-0.0046c-0.98201 0-1.5039 0.55304-1.5039 1.4934z" color="#000000" color-rendering="auto" dominant-baseline="auto" fill-opacity=".065779" image-rendering="auto" opacity="1" solid-color="#000000" stop-color="#000000" style="font-feature-settings:normal;font-variant-alternates:normal;font-variant-caps:normal;font-variant-east-asian:normal;font-variant-ligatures:normal;font-variant-numeric:normal;font-variant-position:normal;font-variation-settings:normal;inline-size:0;isolation:auto;mix-blend-mode:normal;shape-margin:0;shape-padding:0;text-decoration-color:#000000;text-decoration-line:none;text-decoration-style:solid;text-indent:0;text-orientation:mixed;text-transform:none;white-space:normal"/>
   <path id="path979" d="m9.0019 12.465v14.701c0 2.3501 4.6256 2.3501 4.6256 0v-9.9031c0-1.3635 2.3128-1.3635 2.3128 0v9.9031c0 2.3501 4.6256 2.3501 4.6256 0v-9.9031c0-1.3635 2.3128-1.3635 2.3128 0v9.9031c0 2.3501 4.6304 2.3501 4.6256 0v-13.356c0-1.5866-1.1876-2.8332-2.6979-2.8332l-14.301-0.0046c-0.98201 0-1.5039 0.55304-1.5039 1.4934z" color="#000000" color-rendering="auto" dominant-baseline="auto" fill-opacity=".065779" image-rendering="auto" opacity="1" solid-color="#000000" stop-color="#000000" style="font-feature-settings:normal;font-variant-alternates:normal;font-variant-caps:normal;font-variant-east-asian:normal;font-variant-ligatures:normal;font-variant-numeric:normal;font-variant-position:normal;font-variation-settings:normal;inline-size:0;isolation:auto;mix-blend-mode:normal;shape-margin:0;shape-padding:0;text-decoration-color:#000000;text-decoration-line:none;text-decoration-style:solid;text-indent:0;text-orientation:mixed;text-transform:none;white-space:normal"/>
  </g>
  <path id="path10" d="m7.7691 10.08v14.701c0 2.3501 4.6256 2.3501 4.6256 0v-9.9031c0-1.3635 2.3128-1.3635 2.3128 0v9.9031c0 2.3501 4.6256 2.3501 4.6256 0v-9.9031c0-1.3635 2.3128-1.3635 2.3128 0v9.9031c0 2.3501 4.6304 2.3501 4.6256 0v-13.356c0-1.5866-1.1876-2.8332-2.6979-2.8332l-14.301-0.0046c-0.98201 0-1.5039 0.55304-1.5039 1.4934z" color="#000000" color-rendering="auto" dominant-baseline="auto" fill="url(#linearGradient971)" image-rendering="auto" shape-rendering="auto" solid-color="#000000" stop-color="#000000" style="font-feature-settings:normal;font-variant-alternates:normal;font-variant-caps:normal;font-variant-east-asian:normal;font-variant-ligatures:normal;font-variant-numeric:normal;font-variant-position:normal;font-variation-settings:normal;inline-size:0;isolation:auto;mix-blend-mode:normal;shape-margin:0;shape-padding:0;text-decoration-color:#000000;text-decoration-line:none;text-decoration-style:solid;text-indent:0;text-orientation:mixed;text-transform:none;white-space:normal"/>
 </g>
</svg>
