<?xml version="1.0" encoding="UTF-8"?>
<svg id="svg24" width="64" height="64" version="1.1" viewBox="0 0 16.933 16.933" xml:space="preserve" xmlns="http://www.w3.org/2000/svg" xmlns:cc="http://creativecommons.org/ns#" xmlns:dc="http://purl.org/dc/elements/1.1/" xmlns:rdf="http://www.w3.org/1999/02/22-rdf-syntax-ns#"><defs id="defs10"><filter id="filter1057-2" x="-.027" y="-.027" width="1.054" height="1.054" color-interpolation-filters="sRGB"><feGaussianBlur id="feGaussianBlur2" stdDeviation="0.61875"/></filter></defs><metadata id="metadata12"><rdf:RDF><cc:Work rdf:about=""><dc:format>image/svg+xml</dc:format><dc:type rdf:resource="http://purl.org/dc/dcmitype/StillImage"/><dc:title/></cc:Work></rdf:RDF></metadata><rect id="rect14" transform="scale(.26458)" x="4.5" y="4.5" width="55" height="55" ry="15" fill="#141414" filter="url(#filter1057-2)" opacity=".3" stroke-linecap="round" stroke-width="2.7444"/><rect id="rect16" x="1.1907" y="1.1906" width="14.552" height="14.552" ry="3.9687" fill="#555c64" stroke-linecap="round" stroke-width=".72611"/><path id="circle18" d="m8.7244 3.1817v4.6622l3.2969-3.2969a5.2916 5.2916 0 0 0-3.2969-1.3653zm-0.51572 0.0031005a5.2916 5.2916 0 0 0-3.2953 1.3637l3.2953 3.2953v-4.6591zm4.1774 1.727-3.2969 3.2969h4.6622a5.2916 5.2916 0 0 0-1.3653-3.2969zm-7.8376 0.0015503a5.2916 5.2916 0 0 0-1.3637 3.2953h4.6591l-3.2953-3.2953zm-1.3637 3.8111a5.2916 5.2916 0 0 0 1.3637 3.2953l3.2953-3.2953h-4.6591zm5.9044 0 3.2953 3.2953a5.2916 5.2916 0 0 0 1.3637-3.2953h-4.6591zm-0.88055 0.36483-3.2953 3.2953a5.2916 5.2916 0 0 0 3.2953 1.3637v-4.6591zm0.51572 0v4.6591a5.2916 5.2916 0 0 0 3.2953-1.3637l-3.2953-3.2953z" fill="#fefefe"/></svg>
