<?xml version="1.0" encoding="UTF-8"?>
<svg id="svg6" width="128" height="128" version="1.1" viewBox="0 0 33.867 33.867" xmlns="http://www.w3.org/2000/svg" xmlns:xlink="http://www.w3.org/1999/xlink">
 <g id="layer1">
  <g id="g1702" transform="translate(-65.748 -37.203) scale(.97573)" fill="none" opacity=".295" stroke="#000" stroke-linecap="round" stroke-linejoin="round" stroke-opacity=".02">
   <rect id="rect1634" x="69.84" y="40.71" width="29.811" height="29.811" rx="6.61" ry="6.61" stroke-width=".1"/>
   <rect id="rect1638" x="69.84" y="40.71" width="29.811" height="29.811" rx="6.61" ry="6.61" stroke-width=".2"/>
   <rect id="rect1640" x="69.84" y="40.71" width="29.811" height="29.811" rx="6.61" ry="6.61" stroke-width=".3"/>
   <rect id="rect1642" x="69.84" y="40.71" width="29.811" height="29.811" rx="6.61" ry="6.61" stroke-width=".4"/>
   <rect id="rect1644" x="69.84" y="40.71" width="29.811" height="29.811" rx="6.61" ry="6.61" stroke-width=".5"/>
   <rect id="rect1646" x="69.84" y="40.71" width="29.811" height="29.811" rx="6.61" ry="6.61" stroke-width=".6"/>
   <rect id="rect1648" x="69.84" y="40.71" width="29.811" height="29.811" rx="6.61" ry="6.61" stroke-width=".7"/>
   <rect id="rect1650" x="69.84" y="40.71" width="29.811" height="29.811" rx="6.61" ry="6.61" stroke-width=".8"/>
   <rect id="rect1652" x="69.84" y="40.71" width="29.811" height="29.811" rx="6.61" ry="6.61"/>
   <rect id="rect1654" x="69.84" y="40.71" width="29.811" height="29.811" rx="6.61" ry="6.61" stroke-width="1.2"/>
   <rect id="rect1656" x="69.84" y="40.71" width="29.811" height="29.811" rx="6.61" ry="6.61" stroke-width="1.4"/>
   <rect id="rect1658" x="69.84" y="40.71" width="29.811" height="29.811" rx="6.61" ry="6.61" stroke-width="1.6"/>
   <rect id="rect1660" x="69.84" y="40.71" width="29.811" height="29.811" rx="6.61" ry="6.61" stroke-width="1.8"/>
   <rect id="rect1662" x="69.84" y="40.71" width="29.811" height="29.811" rx="6.61" ry="6.61" stroke-width="2"/>
   <rect id="rect1664" x="69.84" y="40.71" width="29.811" height="29.811" rx="6.61" ry="6.61" stroke-width="2.2"/>
   <rect id="rect1666" x="69.84" y="40.71" width="29.811" height="29.811" rx="6.61" ry="6.61" stroke-width="2.6"/>
   <rect id="rect1668" x="69.84" y="40.71" width="29.811" height="29.811" rx="6.61" ry="6.61" stroke-width="3"/>
   <rect id="rect1670" x="69.84" y="40.71" width="29.811" height="29.811" rx="6.61" ry="6.61" stroke-width="3.4"/>
   <rect id="rect1672" x="69.84" y="40.71" width="29.811" height="29.811" rx="6.61" ry="6.61" stroke-width="3.8"/>
   <rect id="rect1674" x="69.84" y="40.71" width="29.811" height="29.811" rx="6.61" ry="6.61" stroke-width="4.2"/>
   <rect id="rect1676" x="69.84" y="40.71" width="29.811" height="29.811" rx="6.61" ry="6.61" stroke-width="4.6"/>
   <rect id="rect1678" x="69.84" y="40.71" width="29.811" height="29.811" rx="6.61" ry="6.61" stroke-width="5"/>
  </g>
  <rect id="rect849" x="2.396" y="2.519" width="29.087" height="29.087" rx="6.449" ry="6.449" fill="#f4f2f2" stroke-linecap="round" stroke-linejoin="round" stroke-width="2.688"/>
  <g id="g1561" transform="translate(0 7.724)">
   <path id="path1557" d="M-.054 15.686h42.007" fill="none" stroke-width=".5"/>
  </g>
  <circle id="circle4" cx="17.086" cy="16.429" r="7.581" fill="#056ab6" stroke-width=".79801"/>
  <path id="path8" d="M24.268 14.434a6.069 6.069 0 0 0-1.819.361l-.001.002-5.217 2.177L6.265 21.54a5.97 5.97 0 0 0 4.292 2.443v.028h13.712a4.788 4.788 0 1 0 0-9.576z" fill="#138fe6" stroke-width=".79801"/>
  <path id="path10" d="M11.101 12.04a5.985 5.985 0 0 0-5.254 3.131l-.01.004a5.985 5.985 0 0 0 4.72 8.808v.027h13.602a4.898 4.898 0 0 0 4.321-2.6l-8.397-5.005-6.032-3.595-.02.005a5.985 5.985 0 0 0-2.93-.775z" fill="#1581d9" stroke-width=".79801"/>
  <path id="path12" d="m19.47 16.04-2.239.934L6.265 21.54c.366.503.809.947 1.312 1.316l.037.025c.149.107.302.207.46.3.035.022.072.04.108.06a5.967 5.967 0 0 0 .572.283c.136.059.274.111.416.16.052.017.104.036.157.052.15.047.303.084.457.119.051.012.101.026.153.036.203.04.41.072.62.092v.028h13.602a4.896 4.896 0 0 0 4.32-2.6l-8.396-5.005z" fill="#38afec" stroke-width=".79801"/>
 </g>
 <style id="style15307">.B{clip-path:url(#C)}.C{fill:#3e2723}.D{fill-opacity:.15}.E{fill-opacity:.2}</style>
</svg>
