<?xml version="1.0" encoding="UTF-8"?>
<svg id="svg13" width="64" height="64" version="1.1" xmlns="http://www.w3.org/2000/svg" xmlns:cc="http://creativecommons.org/ns#" xmlns:dc="http://purl.org/dc/elements/1.1/" xmlns:rdf="http://www.w3.org/1999/02/22-rdf-syntax-ns#" xmlns:xlink="http://www.w3.org/1999/xlink">
 <metadata id="metadata19">
  <rdf:RDF>
   <cc:Work rdf:about="">
    <dc:format>image/svg+xml</dc:format>
    <dc:type rdf:resource="http://purl.org/dc/dcmitype/StillImage"/>
    <dc:title/>
   </cc:Work>
  </rdf:RDF>
 </metadata>
 <defs id="defs17">
  <style id="style4" type="text/css"/>
  <style id="style6" type="text/css"/>
  <style id="style8" type="text/css"/>
  <style id="style14" type="text/css"/>
  <style id="style16" type="text/css"/>
  <filter id="filter1057-2" x="-.027" y="-.027" width="1.054" height="1.054" color-interpolation-filters="sRGB">
   <feGaussianBlur id="feGaussianBlur1059-7" stdDeviation="0.61875"/>
  </filter>
  <linearGradient id="linearGradient1182" x1="-127" x2="-127" y1="60" y2="5" gradientTransform="translate(131.5 -.51)" gradientUnits="userSpaceOnUse">
   <stop id="stop1047-3" stop-color="#dee0e2" offset="0"/>
   <stop id="stop1049-6" stop-color="#f1f3f5" stop-opacity=".99608" offset="1"/>
  </linearGradient>
 </defs>
 <rect id="rect1055-1" x="4.5" y="4.5" width="55" height="55" ry="15" fill="#141414" filter="url(#filter1057-2)" opacity=".3" stroke-linecap="round" stroke-width="2.7444"/>
 <rect id="rect1045-8" x="4.5" y="4.5" width="55" height="55" ry="15" fill="url(#linearGradient1182)" stroke-linecap="round" stroke-width="2.7444"/>
 <g id="g70" fill="#5e4aa6">
  <g id="g32" transform="translate(-80.134,-57.985)" image-rendering="optimizeSpeed">
   <circle id="circle24" cx="-1248.7" cy="-1241.6" r="0"/>
   <circle id="circle26" cx="-149.15" cy="23.855" r="0" fill-rule="evenodd"/>
   <circle id="circle28" cx="-1248.7" cy="-1241.6" r="0"/>
   <circle id="circle30" cx="-149.15" cy="23.855" r="0" fill-rule="evenodd"/>
  </g>
  <circle id="circle34" cx="-1248.7" cy="-1241.6" r="0"/>
  <circle id="circle36" cx="-149.15" cy="23.855" r="0" fill-rule="evenodd"/>
  <g id="g68" transform="matrix(3.7796,0,0,3.7796,5.8415e-4,-1.7177e-4)" stroke-width=".26458">
   <g id="g46" transform="translate(-.0272 .0065001)">
    <circle id="circle38" cx="-330.35" cy="-328.38" r="0"/>
    <circle id="circle40" cx="-312.11" cy="-326.25" r="0"/>
    <circle id="circle42" cx="-306.02" cy="-333.07" r="0"/>
    <circle id="circle44" cx="-308.84" cy="-326.01" r="0"/>
   </g>
   <g id="g56" transform="translate(-.0272 .0065001)">
    <circle id="circle48" cx="-330.35" cy="-328.38" r="0"/>
    <circle id="circle50" cx="-312.11" cy="-326.25" r="0"/>
    <circle id="circle52" cx="-306.02" cy="-333.07" r="0"/>
    <circle id="circle54" cx="-308.84" cy="-326.01" r="0"/>
   </g>
   <g id="g66" transform="translate(-.02705 .0064503)">
    <circle id="circle58" cx="-330.35" cy="-328.38" r="0"/>
    <circle id="circle60" cx="-312.11" cy="-326.25" r="0"/>
    <circle id="circle62" cx="-306.02" cy="-333.07" r="0"/>
    <circle id="circle64" cx="-308.84" cy="-326.01" r="0"/>
   </g>
  </g>
 </g>
 <g id="g30" transform="translate(-79.199 -30.995)" fill="#5e4aa6">
  <circle id="circle24-6" cx="-1248.7" cy="-1241.6" r="0"/>
  <circle id="circle26-7" cx="-1140.3" cy="-1301.8" r="0"/>
  <circle id="circle28-5" cx="-1158.1" cy="-1246" r="0"/>
 </g>
 <circle id="circle36-3" cx="-1236.5" cy="-1298.7" r="0" fill="#5e4aa6"/>
 <circle id="circle38-5" cx="-136.95" cy="-33.178" r="0" fill="#5e4aa6" fill-rule="evenodd"/>
 <path id="path1039" d="m20.817 15.905-8.3495 17.726 11.17 16.097-1.41-16.91 11.178 16.107 9.7673-0.81627 8.3604-17.734-11.182-16.101 1.4104 16.916-11.178-16.1z" fill="#444d54" stroke="#444d54" stroke-linecap="round" stroke-linejoin="round" stroke-width=".93426"/>
 <circle id="circle850" cx="-1329.1" cy="-1317.1" r="0" fill="#5e4aa6"/>
 <circle id="circle41" cx="-1317" cy="-1241.6" r="0" fill="#5e4aa6"/>
 <circle id="circle43" cx="-217.47" cy="23.855" r="0" fill="#5e4aa6" fill-rule="evenodd"/>
</svg>
