<?xml version="1.0" encoding="UTF-8"?>
<svg id="svg29" width="64" height="64" version="1.1" viewBox="0 0 64 64" xml:space="preserve" xmlns="http://www.w3.org/2000/svg" xmlns:xlink="http://www.w3.org/1999/xlink"><defs id="defs7"><filter id="filter1057" x="-.027" y="-.027" width="1.054" height="1.054" color-interpolation-filters="sRGB"><feGaussianBlur id="feGaussianBlur1059" stdDeviation="0.61875"/></filter><linearGradient id="linearGradient1053" x1="-127" x2="-127" y1="60" y2="5" gradientTransform="translate(131.5 -.51)" gradientUnits="userSpaceOnUse"><stop id="stop1047" stop-color="#dee0e2" offset="0"/><stop id="stop1049" stop-color="#f1f3f5" stop-opacity=".99608" offset="1"/></linearGradient><linearGradient id="linearGradient659" x1="13" x2="44.667" y1="15.675" y2="41.008" gradientUnits="userSpaceOnUse"><stop id="stop653" stop-color="#44ebd4" offset="0"/><stop id="stop655" stop-color="#3eb9e5" offset="1"/></linearGradient><linearGradient id="linearGradient4482" x1="47.833" x2="47.833" y1="18.842" y2="52.092" gradientUnits="userSpaceOnUse"><stop id="stop5174" stop-color="#67add2" offset="0"/><stop id="stop5176" stop-color="#2b7699" offset="1"/></linearGradient></defs><rect id="rect1055" x="4.5" y="4.5" width="55" height="55" ry="15" fill="#141414" filter="url(#filter1057)" opacity=".3" stroke-linecap="round" stroke-width="2.7444"/><rect id="rect1045" x="4.5" y="4.5" width="55" height="55" ry="15" fill="url(#linearGradient1053)" stroke-linecap="round" stroke-width="2.7444"/><path id="path579" d="m47.833 18.842c1.7543 0 3.1667 1.4123 3.1667 3.1667v19c0 1.7543-1.4123 3.1667-3.1667 3.1667h-4.75c-0.87444 0-1.5833 0.70889-1.5833 1.5833v4.75c0 0.87444-0.70889 1.5833-1.5833 1.5833-0.43722 0-0.81668-0.19459-1.1195-0.46387l-8.3806-7.4528h-11.083c-1.7543 0-3.1667-1.4123-3.1667-3.1667v-19c0-1.7543 1.4123-3.1667 3.1667-3.1667z" fill="url(#linearGradient4482)" stroke-width="1.5833"/><path id="path581" d="m16.167 15.675c-1.7543 0-3.1667 1.4123-3.1667 3.1667v19c0 1.7543 1.4123 3.1667 3.1667 3.1667h4.75c0.87444 0 1.5833 0.70889 1.5833 1.5833v4.75c0 0.87444 0.70889 1.5833 1.5833 1.5833 0.43722 0 0.81668-0.19459 1.1195-0.46387l8.3806-7.4528h11.083c1.7543 0 3.1667-1.4123 3.1667-3.1667v-19c0-1.7543-1.4123-3.1667-3.1667-3.1667z" fill="url(#linearGradient659)" stroke-width="1.5833"/><path id="path583" d="m17.75 20.425c-0.87717 0-1.5833 0.70617-1.5833 1.5833 0 0.87717 0.70617 1.5833 1.5833 1.5833h25.333c0.87717 0 1.5833-0.70617 1.5833-1.5833 0-0.87717-0.70617-1.5833-1.5833-1.5833zm0 6.3333c-0.87717 0-1.5833 0.70617-1.5833 1.5833 0 0.87717 0.70617 1.5833 1.5833 1.5833h19c0.87717 0 1.5833-0.70617 1.5833-1.5833 0-0.87717-0.70617-1.5833-1.5833-1.5833zm0 6.3333c-0.87717 0-1.5833 0.70617-1.5833 1.5833 0 0.87717 0.70617 1.5833 1.5833 1.5833h12.667c0.87717 0 1.5833-0.70617 1.5833-1.5833 0-0.87717-0.70617-1.5833-1.5833-1.5833z" fill="#f9f9f9" stroke-width="1.5833"/></svg>
