<?xml version="1.0" encoding="UTF-8"?>
<svg id="svg2117" width="128" height="128" version="1.1" viewBox="0 0 33.867 33.867" xmlns="http://www.w3.org/2000/svg" xmlns:cc="http://creativecommons.org/ns#" xmlns:dc="http://purl.org/dc/elements/1.1/" xmlns:rdf="http://www.w3.org/1999/02/22-rdf-syntax-ns#" xmlns:xlink="http://www.w3.org/1999/xlink">
 <defs id="defs2111">
  <linearGradient id="linearGradient912" x1="132.21" x2="132.21" y1="42.152" y2="70.68" gradientTransform="matrix(.97573 0 0 .97573 -111.89 -37.234)" gradientUnits="userSpaceOnUse">
   <stop id="stop1626" stop-color="#f8fcfc" offset="0"/>
   <stop id="stop1628" stop-color="#e3e5e8" offset="1"/>
  </linearGradient>
 </defs>
 <metadata id="metadata2114">
  <rdf:RDF>
   <cc:Work rdf:about="">
    <dc:format>image/svg+xml</dc:format>
    <dc:type rdf:resource="http://purl.org/dc/dcmitype/StillImage"/>
   </cc:Work>
  </rdf:RDF>
 </metadata>
 <g id="layer1">
  <g id="g1702" transform="matrix(.97573 0 0 .97573 -65.83 -36.915)" fill="none" opacity=".13962" stroke="#000" stroke-linecap="round" stroke-linejoin="round" stroke-opacity=".02">
   <rect id="rect1634" x="69.84" y="40.71" width="29.811" height="29.811" rx="6.6099" ry="6.6099" stroke-width=".1"/>
   <rect id="rect1638" x="69.84" y="40.71" width="29.811" height="29.811" rx="6.6099" ry="6.6099" stroke-width=".2"/>
   <rect id="rect1640" x="69.84" y="40.71" width="29.811" height="29.811" rx="6.6099" ry="6.6099" stroke-width=".3"/>
   <rect id="rect1642" x="69.84" y="40.71" width="29.811" height="29.811" rx="6.6099" ry="6.6099" stroke-width=".4"/>
   <rect id="rect1644" x="69.84" y="40.71" width="29.811" height="29.811" rx="6.6099" ry="6.6099" stroke-width=".5"/>
   <rect id="rect1646" x="69.84" y="40.71" width="29.811" height="29.811" rx="6.6099" ry="6.6099" stroke-width=".6"/>
   <rect id="rect1648" x="69.84" y="40.71" width="29.811" height="29.811" rx="6.6099" ry="6.6099" stroke-width=".7"/>
   <rect id="rect1650" x="69.84" y="40.71" width="29.811" height="29.811" rx="6.6099" ry="6.6099" stroke-width=".8"/>
   <rect id="rect1652" x="69.84" y="40.71" width="29.811" height="29.811" rx="6.6099" ry="6.6099"/>
   <rect id="rect1654" x="69.84" y="40.71" width="29.811" height="29.811" rx="6.6099" ry="6.6099" stroke-width="1.2"/>
   <rect id="rect1656" x="69.84" y="40.71" width="29.811" height="29.811" rx="6.6099" ry="6.6099" stroke-width="1.4"/>
   <rect id="rect1658" x="69.84" y="40.71" width="29.811" height="29.811" rx="6.6099" ry="6.6099" stroke-width="1.6"/>
   <rect id="rect1660" x="69.84" y="40.71" width="29.811" height="29.811" rx="6.6099" ry="6.6099" stroke-width="1.8"/>
   <rect id="rect1662" x="69.84" y="40.71" width="29.811" height="29.811" rx="6.6099" ry="6.6099" stroke-width="2"/>
   <rect id="rect1664" x="69.84" y="40.71" width="29.811" height="29.811" rx="6.6099" ry="6.6099" stroke-width="2.2"/>
   <rect id="rect1666" x="69.84" y="40.71" width="29.811" height="29.811" rx="6.6099" ry="6.6099" stroke-width="2.6"/>
   <rect id="rect1668" x="69.84" y="40.71" width="29.811" height="29.811" rx="6.6099" ry="6.6099" stroke-width="3"/>
   <rect id="rect1670" x="69.84" y="40.71" width="29.811" height="29.811" rx="6.6099" ry="6.6099" stroke-width="3.4"/>
   <rect id="rect1672" x="69.84" y="40.71" width="29.811" height="29.811" rx="6.6099" ry="6.6099" stroke-width="3.8"/>
   <rect id="rect1674" x="69.84" y="40.71" width="29.811" height="29.811" rx="6.6099" ry="6.6099" stroke-width="4.2"/>
   <rect id="rect1676" x="69.84" y="40.71" width="29.811" height="29.811" rx="6.6099" ry="6.6099" stroke-width="4.6"/>
   <rect id="rect1678" x="69.84" y="40.71" width="29.811" height="29.811" rx="6.6099" ry="6.6099" stroke-width="5"/>
  </g>
  <rect id="rect910" x="2.2835" y="2.4875" width="29.087" height="29.087" rx="6.4495" ry="6.4495" fill="url(#linearGradient912)" stroke-linecap="round" stroke-linejoin="round" stroke-width="2.6877"/>
  <path id="path2" d="m11.012 22.9c0.71155 1.5248 1.5914 2.6811 2.4716 2.6811 2.0108 0 2.681-0.67026 4.0216-0.67026s2.0108 0.67026 4.0216 0.67026c0.87872 0 1.7496-1.1605 2.4585-2.6811z" opacity=".2" stroke-width=".33513"/>
  <path id="path4" d="m11.012 22.565c0.71155 1.5248 1.5914 2.6811 2.4716 2.6811 2.0108 0 2.681-0.67026 4.0216-0.67026s2.0108 0.67026 4.0216 0.67026c0.87872 0 1.7496-1.1605 2.4585-2.6811z" fill="#009bda" stroke-width=".33513"/>
  <path id="path6" d="m10.043 20.219c0.25997 0.91998 0.58212 1.8526 0.96874 2.6811h12.973c0.32738-0.70225 0.62381-1.4743 0.86401-2.2569a4.0216 4.0216 0 0 1-0.83783-0.42415z" opacity=".2" stroke-width=".33513"/>
  <path id="path8" d="m10.043 19.884c0.25997 0.91998 0.58212 1.8526 0.96874 2.6811h12.973c0.32738-0.70225 0.62381-1.4743 0.86401-2.2569a4.0216 4.0216 0 0 1-0.83783-0.42415z" fill="#953c96" stroke-width=".33513"/>
  <path id="path10" d="m9.5891 18.208c0.09687 0.62487 0.2562 1.3099 0.45426 2.0108h13.968a4.0216 4.0216 0 0 1-1.5801-2.0108z" opacity=".2" stroke-width=".33513"/>
  <path id="path12" d="m9.5891 17.873c0.09687 0.62487 0.2562 1.3099 0.45426 2.0108h13.968a4.0216 4.0216 0 0 1-1.5801-2.0108z" fill="#de393d" stroke-width=".33513"/>
  <path id="path14" d="m9.6284 15.527c-0.10451 0.43883-0.16626 0.88888-0.16626 1.3405 0 0.38391 0.05042 0.84673 0.12698 1.3405h12.842a4.0216 4.0216 0 0 1-0.23433-1.3405 4.0216 4.0216 0 0 1 0.23564-1.3405z" opacity=".2" stroke-width=".33513"/>
  <path id="path16" d="m9.6284 15.192c-0.10451 0.43883-0.16626 0.88888-0.16626 1.3405 0 0.38391 0.05042 0.84673 0.12698 1.3405h12.842a4.0216 4.0216 0 0 1-0.23433-1.3405 4.0216 4.0216 0 0 1 0.23564-1.3405z" fill="#f4811e" stroke-width=".33513"/>
  <path id="path18" d="m10.487 13.517c-0.38806 0.59702-0.68619 1.2862-0.85877 2.0108h12.804a4.0216 4.0216 0 0 1 1.5683-2.0108z" opacity=".2" stroke-width=".33513"/>
  <path id="path20" d="m10.487 13.181c-0.38806 0.59702-0.68619 1.2862-0.85877 2.0108h12.804a4.0216 4.0216 0 0 1 1.5683-2.0108z" fill="#fbb625" stroke-width=".33513"/>
  <path id="path22" d="m20.857 6.8139s-1.3405 0-2.681 1.3405c-1.3405 1.3405-1.3405 3.3513-1.3405 3.3513s2.0108 0 3.3513-2.0108c0.5258-0.7887 0.67026-2.6811 0.67026-2.6811zm-7.3729 4.6918c-1.1127 0-2.2246 0.82313-2.9965 2.0108h13.514a4.0216 4.0216 0 0 1 0.37048-0.21993c-0.76225-1.0674-1.8024-1.7909-2.8447-1.7909-2.681 0-2.681 0.67026-4.0216 0.67026s-1.3405-0.67026-4.0216-0.67026z" opacity=".2" stroke-width=".33513"/>
  <path id="path24" d="m20.857 6.4788s-1.3405 0-2.681 1.3405c-1.3405 1.3405-1.3405 3.3513-1.3405 3.3513s2.0108 0 3.3513-2.0108c0.5258-0.7887 0.67026-2.6811 0.67026-2.6811zm-7.3729 4.6918c-1.1127 0-2.2246 0.82313-2.9965 2.0108h13.514a4.0216 4.0216 0 0 1 0.37048-0.21993c-0.76225-1.0674-1.8024-1.7909-2.8447-1.7909-2.681 0-2.681 0.67026-4.0216 0.67026s-1.3405-0.67026-4.0216-0.67026z" fill="#60ba45" stroke-width=".33513"/>
  <path id="path26" d="m20.857 6.4788s-1.3405 0-2.6811 1.3405c-1.3405 1.3405-1.3405 3.3513-1.3405 3.3513s0.01754-6.04e-4 0.02095-6.71e-4c0.06293-0.62861 0.31448-2.0104 1.3196-3.0155 1.2891-1.2891 2.5487-1.3354 2.6457-1.3373 0.02374-0.2035 0.03535-0.3384 0.03535-0.3384zm-7.3729 4.6918c-2.0108 0-4.0216 2.6811-4.0216 5.3621 0 0.05388 0.0056 0.11694 0.0072 0.17346 0.07851-2.626 2.0441-5.2004 4.0144-5.2004 2.681 0 2.6811 0.67026 4.0216 0.67026 1.3405 0 1.3405-0.67026 4.0216-0.67026 0.9638 0 1.9226 0.62274 2.6647 1.5598a4.0216 4.0216 0 0 1 0.18-0.10407c-0.76225-1.0674-1.8024-1.7909-2.8447-1.7909-2.681 0-2.6811 0.67026-4.0216 0.67026-1.3405 0-1.3405-0.67026-4.0216-0.67026zm8.7213 5.5408a4.0216 4.0216 0 0 0-0.0079 0.15644 4.0216 4.0216 0 0 0 2.5541 3.7342c0.03186-0.09834 0.06794-0.19535 0.09818-0.2939a4.0216 4.0216 0 0 1-2.6444-3.5968z" fill="#fff" opacity=".2" stroke-width=".33513"/>
 </g>
</svg>
