<?xml version="1.0" encoding="UTF-8"?>
<svg id="svg1490" width="128" height="128" version="1.1" viewBox="0 0 33.867 33.867" xmlns="http://www.w3.org/2000/svg" xmlns:cc="http://creativecommons.org/ns#" xmlns:dc="http://purl.org/dc/elements/1.1/" xmlns:rdf="http://www.w3.org/1999/02/22-rdf-syntax-ns#" xmlns:xlink="http://www.w3.org/1999/xlink">
 <defs id="defs1484">
  <linearGradient id="linearGradient1632" x1="136.96" x2="136.96" y1="68.977" y2="42.305" gradientTransform="matrix(.97573 0 0 .97573 -111.72 -37.24)" gradientUnits="userSpaceOnUse">
   <stop id="stop1626" stop-color="#333" offset="0"/>
   <stop id="stop1628" stop-color="#1a1a1a" offset="1"/>
  </linearGradient>
  <linearGradient id="linearGradient1465" x1="-113.64" x2="-61.558" y1="-32.371" y2="-57.128" gradientUnits="userSpaceOnUse" xlink:href="#linearGradient1463"/>
  <linearGradient id="linearGradient1463">
   <stop id="stop1459" stop-color="#b1060f" offset="0"/>
   <stop id="stop1461" stop-color="#72040a" stop-opacity="0" offset="1"/>
  </linearGradient>
  <linearGradient id="linearGradient1469" x1="-113.64" x2="-61.558" y1="-32.371" y2="-57.128" gradientTransform="rotate(180 -66.97 4.047)" gradientUnits="userSpaceOnUse" xlink:href="#linearGradient1463"/>
  <linearGradient id="linearGradient1455" x1="-103.48" x2="-37.25" y1="-65.829" y2="73.267" gradientUnits="userSpaceOnUse">
   <stop id="stop1447" stop-color="#e50914" offset="0"/>
   <stop id="stop1449" stop-color="#e50914" offset="1"/>
  </linearGradient>
 </defs>
 <metadata id="metadata1487">
  <rdf:RDF>
   <cc:Work rdf:about="">
    <dc:format>image/svg+xml</dc:format>
    <dc:type rdf:resource="http://purl.org/dc/dcmitype/StillImage"/>
    <dc:title/>
   </cc:Work>
  </rdf:RDF>
 </metadata>
 <g id="layer1">
  <g id="g1702" transform="matrix(.97573 0 0 .97573 -65.693 -37.24)" fill="none" opacity=".295" stroke="#000" stroke-linecap="round" stroke-linejoin="round" stroke-opacity=".02">
   <rect id="rect1634" x="69.84" y="40.71" width="29.811" height="29.811" rx="6.6099" ry="6.6099" stroke-width=".1"/>
   <rect id="rect1638" x="69.84" y="40.71" width="29.811" height="29.811" rx="6.6099" ry="6.6099" stroke-width=".2"/>
   <rect id="rect1640" x="69.84" y="40.71" width="29.811" height="29.811" rx="6.6099" ry="6.6099" stroke-width=".3"/>
   <rect id="rect1642" x="69.84" y="40.71" width="29.811" height="29.811" rx="6.6099" ry="6.6099" stroke-width=".4"/>
   <rect id="rect1644" x="69.84" y="40.71" width="29.811" height="29.811" rx="6.6099" ry="6.6099" stroke-width=".5"/>
   <rect id="rect1646" x="69.84" y="40.71" width="29.811" height="29.811" rx="6.6099" ry="6.6099" stroke-width=".6"/>
   <rect id="rect1648" x="69.84" y="40.71" width="29.811" height="29.811" rx="6.6099" ry="6.6099" stroke-width=".7"/>
   <rect id="rect1650" x="69.84" y="40.71" width="29.811" height="29.811" rx="6.6099" ry="6.6099" stroke-width=".8"/>
   <rect id="rect1652" x="69.84" y="40.71" width="29.811" height="29.811" rx="6.6099" ry="6.6099"/>
   <rect id="rect1654" x="69.84" y="40.71" width="29.811" height="29.811" rx="6.6099" ry="6.6099" stroke-width="1.2"/>
   <rect id="rect1656" x="69.84" y="40.71" width="29.811" height="29.811" rx="6.6099" ry="6.6099" stroke-width="1.4"/>
   <rect id="rect1658" x="69.84" y="40.71" width="29.811" height="29.811" rx="6.6099" ry="6.6099" stroke-width="1.6"/>
   <rect id="rect1660" x="69.84" y="40.71" width="29.811" height="29.811" rx="6.6099" ry="6.6099" stroke-width="1.8"/>
   <rect id="rect1662" x="69.84" y="40.71" width="29.811" height="29.811" rx="6.6099" ry="6.6099" stroke-width="2"/>
   <rect id="rect1664" x="69.84" y="40.71" width="29.811" height="29.811" rx="6.6099" ry="6.6099" stroke-width="2.2"/>
   <rect id="rect1666" x="69.84" y="40.71" width="29.811" height="29.811" rx="6.6099" ry="6.6099" stroke-width="2.6"/>
   <rect id="rect1668" x="69.84" y="40.71" width="29.811" height="29.811" rx="6.6099" ry="6.6099" stroke-width="3"/>
   <rect id="rect1670" x="69.84" y="40.71" width="29.811" height="29.811" rx="6.6099" ry="6.6099" stroke-width="3.4"/>
   <rect id="rect1672" x="69.84" y="40.71" width="29.811" height="29.811" rx="6.6099" ry="6.6099" stroke-width="3.8"/>
   <rect id="rect1674" x="69.84" y="40.71" width="29.811" height="29.811" rx="6.6099" ry="6.6099" stroke-width="4.2"/>
   <rect id="rect1676" x="69.84" y="40.71" width="29.811" height="29.811" rx="6.6099" ry="6.6099" stroke-width="4.6"/>
   <rect id="rect1678" x="69.84" y="40.71" width="29.811" height="29.811" rx="6.6099" ry="6.6099" stroke-width="5"/>
  </g>
  <rect id="rect849" x="2.452" y="2.4816" width="29.087" height="29.087" rx="6.4495" ry="6.4495" fill="url(#linearGradient1632)" stroke-linecap="round" stroke-linejoin="round" stroke-width="2.6877"/>
  <g id="g1476" transform="matrix(.11394 0 0 .11394 24.575 16.429)">
   <path id="path1441" d="m-116.66-86.513 0.62402 183.12 34.774-2.6458 0.24088-180.21z" fill="#b1060f"/>
   <path id="path1445" d="m-51.405-85.704-1.5116 180.05 36.834 2.7646 0.13229-182.28" fill="#b1060f"/>
   <path id="path1457" d="m-116.66-86.513 0.62402 183.12 34.774-2.6458 0.24088-180.21z" fill="url(#linearGradient1465)"/>
   <path id="path1467" d="m-16.083 97.108 0.13229-182.28-35.454-0.52917-1.5116 180.05z" fill="url(#linearGradient1469)"/>
   <path id="path1439" d="m-117.09-86.646 64.173 180.99 36.834 2.7646-64.941-183.36z" fill="url(#linearGradient1455)"/>
  </g>
 </g>
</svg>
