<?xml version="1.0" encoding="UTF-8"?>
<svg id="svg6" width="128" height="128" version="1.1" viewBox="0 0 33.867 33.867" xmlns="http://www.w3.org/2000/svg" xmlns:xlink="http://www.w3.org/1999/xlink">
 <defs id="defs2">
  <linearGradient id="linearGradient1632" x1="132.21" x2="132.21" y1="42.152" y2="47.056" gradientTransform="translate(-111.78 -37.203) scale(.97573)" gradientUnits="userSpaceOnUse">
   <stop id="stop1626" stop-color="#d27aff" offset="0"/>
   <stop id="stop1628" stop-color="#813efd" offset="1"/>
  </linearGradient>
 </defs>
 <g id="layer1">
  <g id="g1702" transform="translate(-65.748 -37.203) scale(.97573)" fill="none" opacity=".295" stroke="#000" stroke-linecap="round" stroke-linejoin="round" stroke-opacity=".02">
   <rect id="rect1634" x="69.84" y="40.71" width="29.811" height="29.811" rx="6.61" ry="6.61" stroke-width=".1"/>
   <rect id="rect1638" x="69.84" y="40.71" width="29.811" height="29.811" rx="6.61" ry="6.61" stroke-width=".2"/>
   <rect id="rect1640" x="69.84" y="40.71" width="29.811" height="29.811" rx="6.61" ry="6.61" stroke-width=".3"/>
   <rect id="rect1642" x="69.84" y="40.71" width="29.811" height="29.811" rx="6.61" ry="6.61" stroke-width=".4"/>
   <rect id="rect1644" x="69.84" y="40.71" width="29.811" height="29.811" rx="6.61" ry="6.61" stroke-width=".5"/>
   <rect id="rect1646" x="69.84" y="40.71" width="29.811" height="29.811" rx="6.61" ry="6.61" stroke-width=".6"/>
   <rect id="rect1648" x="69.84" y="40.71" width="29.811" height="29.811" rx="6.61" ry="6.61" stroke-width=".7"/>
   <rect id="rect1650" x="69.84" y="40.71" width="29.811" height="29.811" rx="6.61" ry="6.61" stroke-width=".8"/>
   <rect id="rect1652" x="69.84" y="40.71" width="29.811" height="29.811" rx="6.61" ry="6.61"/>
   <rect id="rect1654" x="69.84" y="40.71" width="29.811" height="29.811" rx="6.61" ry="6.61" stroke-width="1.2"/>
   <rect id="rect1656" x="69.84" y="40.71" width="29.811" height="29.811" rx="6.61" ry="6.61" stroke-width="1.4"/>
   <rect id="rect1658" x="69.84" y="40.71" width="29.811" height="29.811" rx="6.61" ry="6.61" stroke-width="1.6"/>
   <rect id="rect1660" x="69.84" y="40.71" width="29.811" height="29.811" rx="6.61" ry="6.61" stroke-width="1.8"/>
   <rect id="rect1662" x="69.84" y="40.71" width="29.811" height="29.811" rx="6.61" ry="6.61" stroke-width="2"/>
   <rect id="rect1664" x="69.84" y="40.71" width="29.811" height="29.811" rx="6.61" ry="6.61" stroke-width="2.2"/>
   <rect id="rect1666" x="69.84" y="40.71" width="29.811" height="29.811" rx="6.61" ry="6.61" stroke-width="2.6"/>
   <rect id="rect1668" x="69.84" y="40.71" width="29.811" height="29.811" rx="6.61" ry="6.61" stroke-width="3"/>
   <rect id="rect1670" x="69.84" y="40.71" width="29.811" height="29.811" rx="6.61" ry="6.61" stroke-width="3.4"/>
   <rect id="rect1672" x="69.84" y="40.71" width="29.811" height="29.811" rx="6.61" ry="6.61" stroke-width="3.8"/>
   <rect id="rect1674" x="69.84" y="40.71" width="29.811" height="29.811" rx="6.61" ry="6.61" stroke-width="4.2"/>
   <rect id="rect1676" x="69.84" y="40.71" width="29.811" height="29.811" rx="6.61" ry="6.61" stroke-width="4.6"/>
   <rect id="rect1678" x="69.84" y="40.71" width="29.811" height="29.811" rx="6.61" ry="6.61" stroke-width="5"/>
  </g>
  <rect id="rect849" x="2.396" y="2.519" width="29.087" height="29.087" rx="6.449" ry="6.449" fill="#f4f2f2" stroke-linecap="round" stroke-linejoin="round" stroke-width="2.688"/>
  <g id="g1539" fill-opacity=".04" opacity=".55861">
   <path id="rect1471" transform="scale(.26458)" d="M9.828 27.77a24.576 24.576 0 0 0-.771 6.125v1.17h109.937v-1.17c0-2.118-.269-4.17-.771-6.125H9.828z" opacity="1"/>
   <path id="rect1473" transform="scale(.26458)" d="M9.633 28.615a24.611 24.611 0 0 0-.576 5.28v2.015h109.937v-2.015c0-1.815-.203-3.58-.576-5.28H9.633z" opacity="1"/>
   <path id="rect1475" transform="scale(.26458)" d="M9.486 29.33a24.66 24.66 0 0 0-.43 4.565v2.73h109.938v-2.73a24.66 24.66 0 0 0-.43-4.565H9.486z" opacity="1"/>
   <path id="rect1477" transform="scale(.26458)" d="M9.344 30.13a24.739 24.739 0 0 0-.287 3.765v3.53h109.937v-3.53c0-1.282-.1-2.537-.289-3.764H9.344z" opacity="1"/>
   <path id="rect1479" transform="scale(.26458)" d="M9.238 30.945c-.116.968-.181 1.95-.181 2.95v4.345h109.937v-4.345c0-1-.068-1.982-.183-2.95H9.238z" opacity="1"/>
   <path id="rect1481" transform="scale(.26458)" d="M9.123 32.16c-.04.574-.066 1.15-.066 1.735v5.56h109.937v-5.56c0-.585-.028-1.161-.068-1.735H9.123z" opacity="1"/>
   <path id="rect1483" transform="scale(.26458)" d="M9.068 33.41c-.003.162-.011.322-.011.485v6.81h109.937v-6.81c0-.163-.008-.323-.012-.485H9.068z" opacity="1"/>
  </g>
  <path id="rect1538" d="M8.298 7.311c-.957 0-1.728.77-1.728 1.728v4.218c0 .957.771 1.728 1.728 1.728h2.576c.957 0 1.728-.771 1.728-1.728V9.039c0-.957-.77-1.728-1.728-1.728zm14.708 0c-.958 0-1.729.77-1.729 1.728v4.218c0 .957.771 1.728 1.729 1.728h2.576c.957 0 1.728-.771 1.728-1.728V9.039c0-.957-.771-1.728-1.728-1.728z" fill="#39353f" stroke-linecap="round" stroke-linejoin="round"/>
  <path id="rect1468" d="M8.846 2.519h16.188a6.435 6.435 0 0 1 6.45 6.449H2.396a6.435 6.435 0 0 1 6.45-6.45z" fill="url(#linearGradient1632)" stroke-linecap="round" stroke-linejoin="round" stroke-width="2.688"/>
  <g id="g1561" transform="translate(0 7.724)">
   <path id="path1557" d="M-.054 15.686h42.007" fill="none" stroke-width=".5"/>
  </g>
 </g>
 <style id="style15307">.B{clip-path:url(#C)}.C{fill:#3e2723}.D{fill-opacity:.15}.E{fill-opacity:.2}</style>
</svg>
