<?xml version="1.0" encoding="UTF-8"?>
<svg id="svg2312" width="128" height="128" version="1.1" viewBox="0 0 33.867 33.867" xmlns="http://www.w3.org/2000/svg" xmlns:cc="http://creativecommons.org/ns#" xmlns:dc="http://purl.org/dc/elements/1.1/" xmlns:rdf="http://www.w3.org/1999/02/22-rdf-syntax-ns#" xmlns:xlink="http://www.w3.org/1999/xlink">
 <defs id="defs2306">
  <linearGradient id="linearGradient1632" x1="132.21" x2="132.21" y1="42.152" y2="70.68" gradientTransform="matrix(.97573 0 0 .97573 -111.8 -37.255)" gradientUnits="userSpaceOnUse">
   <stop id="stop1626" stop-color="#ec7115" offset="0"/>
   <stop id="stop1628" stop-color="#ed284c" offset="1"/>
  </linearGradient>
  <linearGradient id="linearGradient5112" x1="14.419" x2="14.419" y1="1.3781" y2="84.327" gradientUnits="userSpaceOnUse">
   <stop id="stop5106" stop-color="#fff" offset="0"/>
   <stop id="stop5108" stop-color="#ed3741" offset="1"/>
  </linearGradient>
 </defs>
 <metadata id="metadata2309">
  <rdf:RDF>
   <cc:Work rdf:about="">
    <dc:format>image/svg+xml</dc:format>
    <dc:type rdf:resource="http://purl.org/dc/dcmitype/StillImage"/>
   </cc:Work>
  </rdf:RDF>
 </metadata>
 <g id="layer1">
  <g id="g1702" transform="matrix(.97573 0 0 .97573 -65.768 -37.255)" fill="none" opacity=".29676" stroke="#000" stroke-linecap="round" stroke-linejoin="round" stroke-opacity=".02">
   <rect id="rect1634" x="69.84" y="40.71" width="29.811" height="29.811" rx="6.6099" ry="6.6099" stroke-width=".1"/>
   <rect id="rect1638" x="69.84" y="40.71" width="29.811" height="29.811" rx="6.6099" ry="6.6099" stroke-width=".2"/>
   <rect id="rect1640" x="69.84" y="40.71" width="29.811" height="29.811" rx="6.6099" ry="6.6099" stroke-width=".3"/>
   <rect id="rect1642" x="69.84" y="40.71" width="29.811" height="29.811" rx="6.6099" ry="6.6099" stroke-width=".4"/>
   <rect id="rect1644" x="69.84" y="40.71" width="29.811" height="29.811" rx="6.6099" ry="6.6099" stroke-width=".5"/>
   <rect id="rect1646" x="69.84" y="40.71" width="29.811" height="29.811" rx="6.6099" ry="6.6099" stroke-width=".6"/>
   <rect id="rect1648" x="69.84" y="40.71" width="29.811" height="29.811" rx="6.6099" ry="6.6099" stroke-width=".7"/>
   <rect id="rect1650" x="69.84" y="40.71" width="29.811" height="29.811" rx="6.6099" ry="6.6099" stroke-width=".8"/>
   <rect id="rect1652" x="69.84" y="40.71" width="29.811" height="29.811" rx="6.6099" ry="6.6099"/>
   <rect id="rect1654" x="69.84" y="40.71" width="29.811" height="29.811" rx="6.6099" ry="6.6099" stroke-width="1.2"/>
   <rect id="rect1656" x="69.84" y="40.71" width="29.811" height="29.811" rx="6.6099" ry="6.6099" stroke-width="1.4"/>
   <rect id="rect1658" x="69.84" y="40.71" width="29.811" height="29.811" rx="6.6099" ry="6.6099" stroke-width="1.6"/>
   <rect id="rect1660" x="69.84" y="40.71" width="29.811" height="29.811" rx="6.6099" ry="6.6099" stroke-width="1.8"/>
   <rect id="rect1662" x="69.84" y="40.71" width="29.811" height="29.811" rx="6.6099" ry="6.6099" stroke-width="2"/>
   <rect id="rect1664" x="69.84" y="40.71" width="29.811" height="29.811" rx="6.6099" ry="6.6099" stroke-width="2.2"/>
   <rect id="rect1666" x="69.84" y="40.71" width="29.811" height="29.811" rx="6.6099" ry="6.6099" stroke-width="2.6"/>
   <rect id="rect1668" x="69.84" y="40.71" width="29.811" height="29.811" rx="6.6099" ry="6.6099" stroke-width="3"/>
   <rect id="rect1670" x="69.84" y="40.71" width="29.811" height="29.811" rx="6.6099" ry="6.6099" stroke-width="3.4"/>
   <rect id="rect1672" x="69.84" y="40.71" width="29.811" height="29.811" rx="6.6099" ry="6.6099" stroke-width="3.8"/>
   <rect id="rect1674" x="69.84" y="40.71" width="29.811" height="29.811" rx="6.6099" ry="6.6099" stroke-width="4.2"/>
   <rect id="rect1676" x="69.84" y="40.71" width="29.811" height="29.811" rx="6.6099" ry="6.6099" stroke-width="4.6"/>
   <rect id="rect1678" x="69.84" y="40.71" width="29.811" height="29.811" rx="6.6099" ry="6.6099" stroke-width="5"/>
  </g>
  <rect id="rect849" x="2.3771" y="2.4667" width="29.087" height="29.087" rx="6.4495" ry="6.4495" fill="url(#linearGradient1632)" stroke-linecap="round" stroke-linejoin="round" stroke-width="2.6877"/>
  <path id="path6674" d="m21.897 11.045a6.8337 6.8337 0 0 0-4.9559 2.132 4.691 4.691 0 0 0-2.0755-0.48435 4.691 4.691 0 0 0-4.4441 3.1981c-2.409 0.03974-4.3364 1.9915-4.3364 4.4103 0 2.4438 1.9674 4.4112 4.4112 4.4112h10.612c0.12534 0 0.24931-0.0055 0.37194-0.01563a6.8337 6.8337 0 0 0 0.41694 0.01563 6.8337 6.8337 0 0 0 6.8337-6.8337 6.8337 6.8337 0 0 0-6.8337-6.8336zm-1.9923 3.9193c0.02932-0.0012 0.05865 2e-3 0.08699 0.0096 0.31124 0.0834 0.50475 0.18072 0.64774 0.24044 0.143 0.05971 0.23185 0.09046 0.44914 0.09062 0.2151-1.75e-4 0.31673-0.03398 0.46414-0.09488 0.1475-0.06094 0.33857-0.15744 0.63243-0.23617 0.02835-0.0076 0.05768-0.01072 0.08699-0.0095 0.93055 0.03814 1.6748 0.80721 1.6748 1.746v0.7813c1.9278 0.26193 3.128 0.76653 3.1279 1.3151-4.6e-5 0.82655-2.6802 1.4966-5.9864 1.4966-3.3063 1.1e-5 -5.9866-0.67004-5.9866-1.4966 0.0013-0.54819 1.2013-1.0523 3.1279-1.3141v-0.78225c0-0.9389 0.74438-1.7082 1.675-1.7462zm-2.1096 5.6047c0.95279 0.15507 2.0801 0.2447 3.2933 0.2447 1.2133-4e-6 2.3404-0.08963 3.2932-0.2447 0.03685 0.12795 0.057 0.26307 0.05699 0.40288-4.7e-5 0.80238-0.6505 1.4528-1.4529 1.4529-0.69027-3.67e-4 -1.285-0.48636-1.4229-1.1627-0.04778-0.1783-0.90205-0.17449-0.9488 0-0.13788 0.6763-0.73252 1.1622-1.4227 1.1627-0.80245 4e-5 -1.453-0.65043-1.453-1.4529-7e-6 -0.13979 0.01999-0.27495 0.05683-0.40288z" fill="#17003b" fill-opacity=".053085"/>
  <path id="path6982" d="m22.163 11.59a6.8337 6.8337 0 0 0-4.9559 2.132 4.691 4.691 0 0 0-2.0755-0.48435 4.691 4.691 0 0 0-4.4441 3.1981c-2.409 0.03974-4.3364 1.9915-4.3364 4.4103 0 2.4438 1.9674 4.4112 4.4112 4.4112h10.612c0.12534 0 0.24931-0.0055 0.37194-0.01563a6.8337 6.8337 0 0 0 0.41694 0.01563 6.8337 6.8337 0 0 0 6.8337-6.8337 6.8337 6.8337 0 0 0-6.8337-6.8336zm-1.9923 3.9193c0.02932-0.0012 0.05865 2e-3 0.08699 0.0096 0.31124 0.0834 0.50475 0.18072 0.64774 0.24044 0.143 0.05971 0.23185 0.09046 0.44914 0.09062 0.2151-1.75e-4 0.31673-0.03398 0.46414-0.09488 0.1475-0.06094 0.33857-0.15744 0.63243-0.23617 0.02835-0.0076 0.05768-0.01072 0.08699-0.0095 0.93055 0.03814 1.6748 0.80721 1.6748 1.746v0.7813c1.9278 0.26193 3.128 0.76653 3.1279 1.3151-4.6e-5 0.82655-2.6802 1.4966-5.9864 1.4966-3.3063 1.1e-5 -5.9866-0.67004-5.9866-1.4966 0.0013-0.54819 1.2013-1.0523 3.1279-1.3141v-0.78225c0-0.9389 0.74438-1.7082 1.675-1.7462zm-2.1096 5.6047c0.95279 0.15507 2.0801 0.2447 3.2933 0.2447 1.2133-4e-6 2.3404-0.08963 3.2932-0.2447 0.03685 0.12795 0.057 0.26307 0.05699 0.40288-4.7e-5 0.80238-0.6505 1.4528-1.4529 1.4529-0.69027-3.67e-4 -1.285-0.48636-1.4229-1.1627-0.04778-0.1783-0.90205-0.17449-0.9488 0-0.13788 0.6763-0.73252 1.1622-1.4227 1.1627-0.80245 4e-5 -1.453-0.65043-1.453-1.4529-7e-6 -0.13979 0.01999-0.27495 0.05683-0.40288z" fill="#17003b" fill-opacity=".053085"/>
  <path id="path6984" d="m22.469 12.421a6.8337 6.8337 0 0 0-4.9559 2.132 4.691 4.691 0 0 0-2.0755-0.48435 4.691 4.691 0 0 0-4.4441 3.1981c-2.409 0.03974-4.3364 1.9915-4.3364 4.4103 0 2.4438 1.9674 4.4112 4.4112 4.4112h10.612c0.12534 0 0.24931-0.0055 0.37194-0.01563a6.8337 6.8337 0 0 0 0.41694 0.01563 6.8337 6.8337 0 0 0 6.8337-6.8337 6.8337 6.8337 0 0 0-6.8337-6.8336zm-1.9923 3.9193c0.02932-0.0012 0.05865 2e-3 0.08699 0.0096 0.31124 0.0834 0.50475 0.18072 0.64774 0.24044 0.143 0.05971 0.23185 0.09046 0.44914 0.09062 0.2151-1.75e-4 0.31673-0.03398 0.46414-0.09488 0.1475-0.06094 0.33857-0.15744 0.63243-0.23617 0.02835-0.0076 0.05768-0.01072 0.08699-0.0095 0.93055 0.03814 1.6748 0.80721 1.6748 1.746v0.7813c1.9278 0.26193 3.128 0.76653 3.1279 1.3151-4.6e-5 0.82655-2.6802 1.4966-5.9864 1.4966-3.3063 1.1e-5 -5.9866-0.67004-5.9866-1.4966 0.0013-0.54819 1.2013-1.0523 3.1279-1.3141v-0.78225c0-0.9389 0.74438-1.7082 1.675-1.7462zm-2.1096 5.6047c0.95279 0.15507 2.0801 0.2447 3.2933 0.2447 1.2133-4e-6 2.3404-0.08963 3.2932-0.2447 0.03685 0.12795 0.057 0.26307 0.05699 0.40288-4.7e-5 0.80238-0.6505 1.4528-1.4529 1.4529-0.69027-3.67e-4 -1.285-0.48636-1.4229-1.1627-0.04778-0.1783-0.90205-0.17449-0.9488 0-0.13788 0.6763-0.73252 1.1622-1.4227 1.1627-0.80245 4e-5 -1.453-0.65043-1.453-1.4529-7e-6 -0.13979 0.01999-0.27495 0.05683-0.40288z" fill="#17003b" fill-opacity=".053085"/>
  <path id="rect1180" d="m21.627 10.458a6.8337 6.8337 0 0 0-4.9559 2.132 4.691 4.691 0 0 0-2.0755-0.48435 4.691 4.691 0 0 0-4.4441 3.1981c-2.409 0.03974-4.3364 1.9915-4.3364 4.4103 0 2.4438 1.9674 4.4112 4.4112 4.4112h10.612c0.12534 0 0.24931-0.0055 0.37194-0.01563a6.8337 6.8337 0 0 0 0.41694 0.01563 6.8337 6.8337 0 0 0 6.8337-6.8337 6.8337 6.8337 0 0 0-6.8337-6.8336zm-1.9923 3.9193c0.02932-0.0012 0.05865 2e-3 0.08699 0.0096 0.31124 0.0834 0.50475 0.18072 0.64774 0.24044 0.143 0.05971 0.23185 0.09046 0.44914 0.09062 0.2151-1.75e-4 0.31673-0.03398 0.46414-0.09488 0.1475-0.06094 0.33857-0.15744 0.63243-0.23617 0.02835-0.0076 0.05768-0.01072 0.08699-0.0095 0.93055 0.03814 1.6748 0.80721 1.6748 1.746v0.7813c1.9278 0.26193 3.128 0.76653 3.1279 1.3151-4.6e-5 0.82655-2.6802 1.4966-5.9864 1.4966-3.3063 1.1e-5 -5.9866-0.67004-5.9866-1.4966 0.0013-0.54819 1.2013-1.0523 3.1279-1.3141v-0.78225c0-0.9389 0.74438-1.7082 1.675-1.7462zm-2.1096 5.6047c0.95279 0.15507 2.0801 0.2447 3.2933 0.2447 1.2133-4e-6 2.3404-0.08963 3.2932-0.2447 0.03685 0.12795 0.057 0.26307 0.05699 0.40288-4.7e-5 0.80238-0.6505 1.4528-1.4529 1.4529-0.69027-3.67e-4 -1.285-0.48636-1.4229-1.1627-0.04778-0.1783-0.90205-0.17449-0.9488 0-0.13788 0.6763-0.73252 1.1622-1.4227 1.1627-0.80245 4e-5 -1.453-0.65043-1.453-1.4529-7e-6 -0.13979 0.01999-0.27495 0.05683-0.40288z" fill="url(#linearGradient5112)"/>
 </g>
</svg>
