<?xml version="1.0" encoding="UTF-8"?>
<svg id="svg2809" width="128" height="128" version="1.1" viewBox="0 0 33.867 33.867" xmlns="http://www.w3.org/2000/svg" xmlns:cc="http://creativecommons.org/ns#" xmlns:dc="http://purl.org/dc/elements/1.1/" xmlns:rdf="http://www.w3.org/1999/02/22-rdf-syntax-ns#" xmlns:xlink="http://www.w3.org/1999/xlink">
 <defs id="defs2803">
  <linearGradient id="linearGradient1940" x1="16.938" x2="16.938" y1="5.6268" y2="30.152" gradientTransform="translate(.0031502 .014448)" gradientUnits="userSpaceOnUse">
   <stop id="stop1934" stop-color="#cbd3d6" offset="0"/>
   <stop id="stop1936" stop-color="#9cabb7" offset="1"/>
  </linearGradient>
 </defs>
 <metadata id="metadata2806">
  <rdf:RDF>
   <cc:Work rdf:about="">
    <dc:format>image/svg+xml</dc:format>
    <dc:type rdf:resource="http://purl.org/dc/dcmitype/StillImage"/>
   </cc:Work>
  </rdf:RDF>
 </metadata>
 <g id="layer1">
  <g id="g1702" transform="matrix(.97573 0 0 .97573 -65.745 -37.189)" fill="none" opacity=".29676" stroke="#000" stroke-linecap="round" stroke-linejoin="round" stroke-opacity=".02">
   <rect id="rect1634" x="69.84" y="40.71" width="29.811" height="29.811" rx="6.6099" ry="6.6099" stroke-width=".1"/>
   <rect id="rect1638" x="69.84" y="40.71" width="29.811" height="29.811" rx="6.6099" ry="6.6099" stroke-width=".2"/>
   <rect id="rect1640" x="69.84" y="40.71" width="29.811" height="29.811" rx="6.6099" ry="6.6099" stroke-width=".3"/>
   <rect id="rect1642" x="69.84" y="40.71" width="29.811" height="29.811" rx="6.6099" ry="6.6099" stroke-width=".4"/>
   <rect id="rect1644" x="69.84" y="40.71" width="29.811" height="29.811" rx="6.6099" ry="6.6099" stroke-width=".5"/>
   <rect id="rect1646" x="69.84" y="40.71" width="29.811" height="29.811" rx="6.6099" ry="6.6099" stroke-width=".6"/>
   <rect id="rect1648" x="69.84" y="40.71" width="29.811" height="29.811" rx="6.6099" ry="6.6099" stroke-width=".7"/>
   <rect id="rect1650" x="69.84" y="40.71" width="29.811" height="29.811" rx="6.6099" ry="6.6099" stroke-width=".8"/>
   <rect id="rect1652" x="69.84" y="40.71" width="29.811" height="29.811" rx="6.6099" ry="6.6099"/>
   <rect id="rect1654" x="69.84" y="40.71" width="29.811" height="29.811" rx="6.6099" ry="6.6099" stroke-width="1.2"/>
   <rect id="rect1656" x="69.84" y="40.71" width="29.811" height="29.811" rx="6.6099" ry="6.6099" stroke-width="1.4"/>
   <rect id="rect1658" x="69.84" y="40.71" width="29.811" height="29.811" rx="6.6099" ry="6.6099" stroke-width="1.6"/>
   <rect id="rect1660" x="69.84" y="40.71" width="29.811" height="29.811" rx="6.6099" ry="6.6099" stroke-width="1.8"/>
   <rect id="rect1662" x="69.84" y="40.71" width="29.811" height="29.811" rx="6.6099" ry="6.6099" stroke-width="2"/>
   <rect id="rect1664" x="69.84" y="40.71" width="29.811" height="29.811" rx="6.6099" ry="6.6099" stroke-width="2.2"/>
   <rect id="rect1666" x="69.84" y="40.71" width="29.811" height="29.811" rx="6.6099" ry="6.6099" stroke-width="2.6"/>
   <rect id="rect1668" x="69.84" y="40.71" width="29.811" height="29.811" rx="6.6099" ry="6.6099" stroke-width="3"/>
   <rect id="rect1670" x="69.84" y="40.71" width="29.811" height="29.811" rx="6.6099" ry="6.6099" stroke-width="3.4"/>
   <rect id="rect1672" x="69.84" y="40.71" width="29.811" height="29.811" rx="6.6099" ry="6.6099" stroke-width="3.8"/>
   <rect id="rect1674" x="69.84" y="40.71" width="29.811" height="29.811" rx="6.6099" ry="6.6099" stroke-width="4.2"/>
   <rect id="rect1676" x="69.84" y="40.71" width="29.811" height="29.811" rx="6.6099" ry="6.6099" stroke-width="4.6"/>
   <rect id="rect1678" x="69.84" y="40.71" width="29.811" height="29.811" rx="6.6099" ry="6.6099" stroke-width="5"/>
  </g>
  <rect id="rect849" x="2.3994" y="2.533" width="29.087" height="29.087" rx="6.4495" ry="6.4495" fill="url(#linearGradient1940)" stroke-linecap="round" stroke-linejoin="round" stroke-width="2.6877"/>
  <rect id="rect2807-7" x="3.7861" y="3.934" width="26.314" height="26.285" rx="5.567" ry="5.567" fill="#030000" stroke-width="1.775"/>
  <rect id="rect2809-5" x="5.3031" y="5.4522" width="23.28" height="23.28" rx="4.0486" ry="4.0486" fill="#262626" stroke-width="1.5711"/>
  <path id="path10" d="m17.264 10.354a0.63255 0.63291 0 0 0-0.53763 0.30157l-4.5137 7.3403-1.3632-2.2717a0.63255 0.63291 0 0 0-0.54258-0.30775h-1.8972a0.63255 0.63291 0 1 0 0 1.2656h1.5387l1.7143 2.8563a0.63255 0.63291 0 0 0 1.0802 0.0062l4.8746-7.9249h7.2364v0.6328a0.6328 0.63316 0 1 0 1.2656 0v-1.2656a0.63255 0.63291 0 0 0-0.6328-0.6328zm3.1603 3.164a3.164 3.164 0 0 0-3.164 3.164 3.164 3.164 0 0 0 3.164 3.164 3.164 3.164 0 0 0 1.8984-0.63774 0.63286 0.6311 0 1 0 1.2656-0.0024v-5.0476a0.63286 0.6311 0 0 0-0.64269-0.64022 0.63286 0.6311 0 0 0-0.62291 0.63774 3.164 3.164 0 0 0-1.8984-0.63774zm0 1.2656a1.8984 1.8984 0 0 1 1.8984 1.8984 1.8984 1.8984 0 0 1-1.8984 1.8984 1.8984 1.8984 0 0 1-1.8984-1.8984 1.8984 1.8984 0 0 1 1.8984-1.8984zm-11.382 6.328a0.63222 0.63286 0 1 0 0 1.2656h16.436a0.63222 0.63286 0 1 0 0-1.2656zm7.5899 2.5312a0.62839 0.63286 0 1 0 0 1.2656h1.2557a0.62839 0.63286 0 1 0 0-1.2656z" fill="#fff" stroke-width=".6328"/>
 </g>
</svg>
