<?xml version="1.0" encoding="UTF-8"?>
<svg width="128" height="128" viewBox="0 0 33.867 33.867" xmlns="http://www.w3.org/2000/svg" xmlns:xlink="http://www.w3.org/1999/xlink">
 <defs>
  <linearGradient id="o" x1="13.521" x2="22.191" y1="20.163" y2="8.089" gradientTransform="translate(-.04 -.025)" gradientUnits="userSpaceOnUse">
   <stop stop-color="#9ccbd1" offset="0"/>
   <stop stop-color="#b3dee4" offset="1"/>
  </linearGradient>
  <linearGradient id="f">
   <stop stop-color="#fff" offset="0"/>
   <stop stop-color="#fff" stop-opacity="0" offset="1"/>
  </linearGradient>
  <linearGradient id="q" x1="119.36" x2="141.49" y1="43.171" y2="69.925" gradientTransform="translate(-111.82 -37.228) scale(.97573)" gradientUnits="userSpaceOnUse">
   <stop stop-color="#b88960" offset="0"/>
   <stop stop-color="#7e2e07" offset="1"/>
  </linearGradient>
  <linearGradient id="r" x1="63.406" x2="62.047" y1="91.513" y2="16.434" gradientTransform="translate(-.04 -.025) scale(.26458)" gradientUnits="userSpaceOnUse">
   <stop stop-color="#fff" offset="0"/>
   <stop stop-color="#1a1a1a" stop-opacity=".62353" offset="1"/>
  </linearGradient>
  <linearGradient id="t" x1="7.104" x2="6.634" y1="23.876" y2="23.338" gradientTransform="translate(12.687 -1.966)" gradientUnits="userSpaceOnUse" xlink:href="#d"/>
  <linearGradient id="d">
   <stop stop-color="#fafbfb" offset="0"/>
   <stop stop-color="#7e7e7e" offset="1"/>
  </linearGradient>
  <linearGradient id="u" x1="7.104" x2="6.634" y1="23.876" y2="23.338" gradientTransform="translate(11.44 -1.966)" gradientUnits="userSpaceOnUse" xlink:href="#d"/>
  <linearGradient id="v" x1="7.104" x2="6.634" y1="23.876" y2="23.338" gradientTransform="translate(10.194 -1.966)" gradientUnits="userSpaceOnUse" xlink:href="#d"/>
  <linearGradient id="am" x1="20.332" x2="21.081" y1="26.344" y2="26.344" gradientUnits="userSpaceOnUse">
   <stop stop-color="#fafbfb" offset="0"/>
   <stop stop-color="#7e7e7e" offset="1"/>
  </linearGradient>
  <linearGradient id="w" x1="7.104" x2="6.634" y1="23.876" y2="23.338" gradientTransform="translate(8.948 -1.966)" gradientUnits="userSpaceOnUse" xlink:href="#d"/>
  <linearGradient id="x" x1="7.104" x2="6.634" y1="23.876" y2="23.338" gradientTransform="translate(7.701 -1.966)" gradientUnits="userSpaceOnUse" xlink:href="#d"/>
  <linearGradient id="y" x1="7.104" x2="6.634" y1="23.876" y2="23.338" gradientTransform="translate(6.454 -1.966)" gradientUnits="userSpaceOnUse" xlink:href="#d"/>
  <linearGradient id="z" x1="7.104" x2="6.634" y1="23.876" y2="23.338" gradientTransform="translate(13.934 -1.966)" gradientUnits="userSpaceOnUse" xlink:href="#d"/>
  <linearGradient id="ao" x1="19.085" x2="19.834" y1="28.055" y2="28.055" gradientUnits="userSpaceOnUse">
   <stop stop-color="#fafbfb" offset="0"/>
   <stop stop-color="#7e7e7e" offset="1"/>
  </linearGradient>
  <linearGradient id="A" x1="7.104" x2="6.634" y1="23.876" y2="23.338" gradientTransform="translate(12.687 -.992)" gradientUnits="userSpaceOnUse" xlink:href="#d"/>
  <linearGradient id="B" x1="7.104" x2="6.634" y1="23.876" y2="23.338" gradientTransform="translate(11.44 -.992)" gradientUnits="userSpaceOnUse" xlink:href="#d"/>
  <linearGradient id="C" x1="7.104" x2="6.634" y1="23.876" y2="23.338" gradientTransform="translate(10.194 -.992)" gradientUnits="userSpaceOnUse" xlink:href="#d"/>
  <linearGradient id="D" x1="7.104" x2="6.634" y1="23.876" y2="23.338" gradientTransform="translate(8.948 -.992)" gradientUnits="userSpaceOnUse" xlink:href="#d"/>
  <linearGradient id="E" x1="7.104" x2="6.634" y1="23.876" y2="23.338" gradientTransform="translate(7.701 -.992)" gradientUnits="userSpaceOnUse" xlink:href="#d"/>
  <linearGradient id="F" x1="7.104" x2="6.634" y1="23.876" y2="23.338" gradientTransform="translate(6.454 -.992)" gradientUnits="userSpaceOnUse" xlink:href="#d"/>
  <linearGradient id="G" x1="7.104" x2="6.634" y1="23.876" y2="23.338" gradientTransform="translate(5.208 -.992)" gradientUnits="userSpaceOnUse" xlink:href="#d"/>
  <linearGradient id="H" x1="7.104" x2="6.634" y1="23.876" y2="23.338" gradientTransform="translate(13.934 -.992)" gradientUnits="userSpaceOnUse" xlink:href="#d"/>
  <linearGradient id="I" x1="7.104" x2="6.634" y1="23.876" y2="23.338" gradientTransform="translate(15.18 -.992)" gradientUnits="userSpaceOnUse" xlink:href="#d"/>
  <linearGradient id="J" x1="7.104" x2="6.634" y1="23.876" y2="23.338" gradientTransform="translate(12.687 .173)" gradientUnits="userSpaceOnUse" xlink:href="#d"/>
  <linearGradient id="K" x1="7.104" x2="6.634" y1="23.876" y2="23.338" gradientTransform="translate(11.44 .173)" gradientUnits="userSpaceOnUse" xlink:href="#d"/>
  <linearGradient id="L" x1="7.104" x2="6.634" y1="23.876" y2="23.338" gradientTransform="translate(10.194 .173)" gradientUnits="userSpaceOnUse" xlink:href="#d"/>
  <linearGradient id="M" x1="7.104" x2="6.634" y1="23.876" y2="23.338" gradientTransform="translate(8.948 .173)" gradientUnits="userSpaceOnUse" xlink:href="#d"/>
  <linearGradient id="N" x1="7.104" x2="6.634" y1="23.876" y2="23.338" gradientTransform="translate(7.701 .173)" gradientUnits="userSpaceOnUse" xlink:href="#d"/>
  <linearGradient id="O" x1="7.104" x2="6.634" y1="23.876" y2="23.338" gradientTransform="translate(6.454 .173)" gradientUnits="userSpaceOnUse" xlink:href="#d"/>
  <linearGradient id="P" x1="7.104" x2="6.634" y1="23.876" y2="23.338" gradientTransform="translate(5.208 .173)" gradientUnits="userSpaceOnUse" xlink:href="#d"/>
  <linearGradient id="Q" x1="7.104" x2="6.634" y1="23.876" y2="23.338" gradientTransform="translate(3.961 .173)" gradientUnits="userSpaceOnUse" xlink:href="#d"/>
  <linearGradient id="R" x1="7.104" x2="6.634" y1="23.876" y2="23.338" gradientTransform="translate(13.934 .173)" gradientUnits="userSpaceOnUse" xlink:href="#d"/>
  <linearGradient id="S" x1="7.104" x2="6.634" y1="23.876" y2="23.338" gradientTransform="translate(16.427 .173)" gradientUnits="userSpaceOnUse" xlink:href="#d"/>
  <linearGradient id="T" x1="7.104" x2="6.634" y1="23.876" y2="23.338" gradientTransform="translate(15.18 .173)" gradientUnits="userSpaceOnUse" xlink:href="#d"/>
  <linearGradient id="U" x1="7.104" x2="6.634" y1="23.876" y2="23.338" gradientTransform="translate(12.687 1.551)" gradientUnits="userSpaceOnUse" xlink:href="#d"/>
  <linearGradient id="V" x1="7.104" x2="6.634" y1="23.876" y2="23.338" gradientTransform="translate(11.44 1.551)" gradientUnits="userSpaceOnUse" xlink:href="#d"/>
  <linearGradient id="W" x1="7.104" x2="6.634" y1="23.876" y2="23.338" gradientTransform="translate(10.194 1.551)" gradientUnits="userSpaceOnUse" xlink:href="#d"/>
  <linearGradient id="X" x1="7.104" x2="6.634" y1="23.876" y2="23.338" gradientTransform="translate(8.948 1.551)" gradientUnits="userSpaceOnUse" xlink:href="#d"/>
  <linearGradient id="Y" x1="7.104" x2="6.634" y1="23.876" y2="23.338" gradientTransform="translate(7.701 1.551)" gradientUnits="userSpaceOnUse" xlink:href="#d"/>
  <linearGradient id="Z" x1="7.104" x2="6.634" y1="23.876" y2="23.338" gradientTransform="translate(6.454 1.551)" gradientUnits="userSpaceOnUse" xlink:href="#d"/>
  <linearGradient id="aa" x1="7.104" x2="6.634" y1="23.876" y2="23.338" gradientTransform="translate(5.208 1.551)" gradientUnits="userSpaceOnUse" xlink:href="#d"/>
  <linearGradient id="ab" x1="7.104" x2="6.634" y1="23.876" y2="23.338" gradientTransform="translate(3.961 1.551)" gradientUnits="userSpaceOnUse" xlink:href="#d"/>
  <linearGradient id="ac" x1="7.104" x2="6.634" y1="23.876" y2="23.338" gradientTransform="translate(13.934 1.551)" gradientUnits="userSpaceOnUse" xlink:href="#d"/>
  <linearGradient id="ad" x1="7.104" x2="6.634" y1="23.876" y2="23.338" gradientTransform="translate(16.427 1.551)" gradientUnits="userSpaceOnUse" xlink:href="#d"/>
  <linearGradient id="ae" x1="7.104" x2="6.634" y1="23.876" y2="23.338" gradientTransform="translate(15.18 1.551)" gradientUnits="userSpaceOnUse" xlink:href="#d"/>
  <linearGradient id="af" x1="7.104" x2="6.634" y1="23.876" y2="23.338" gradientTransform="translate(12.687 3.12)" gradientUnits="userSpaceOnUse" xlink:href="#d"/>
  <linearGradient id="ag" x1="7.104" x2="6.634" y1="23.876" y2="23.338" gradientTransform="translate(11.44 3.12)" gradientUnits="userSpaceOnUse" xlink:href="#d"/>
  <linearGradient id="ah" x1="7.104" x2="6.634" y1="23.876" y2="23.338" gradientTransform="translate(10.194 3.12)" gradientUnits="userSpaceOnUse" xlink:href="#d"/>
  <linearGradient id="ai" x1="7.104" x2="6.634" y1="23.876" y2="23.338" gradientTransform="translate(8.948 3.12)" gradientUnits="userSpaceOnUse" xlink:href="#d"/>
  <linearGradient id="aj" x1="7.104" x2="6.634" y1="23.876" y2="23.338" gradientTransform="translate(7.701 3.12)" gradientUnits="userSpaceOnUse" xlink:href="#d"/>
  <linearGradient id="ak" x1="7.104" x2="6.634" y1="23.876" y2="23.338" gradientTransform="translate(6.454 3.12)" gradientUnits="userSpaceOnUse" xlink:href="#d"/>
  <linearGradient id="al" x1="7.104" x2="6.634" y1="23.876" y2="23.338" gradientTransform="translate(5.208 3.12)" gradientUnits="userSpaceOnUse" xlink:href="#d"/>
  <linearGradient id="an" x1="7.104" x2="6.634" y1="23.876" y2="23.338" gradientTransform="translate(15.18 3.12)" gradientUnits="userSpaceOnUse" xlink:href="#d"/>
  <linearGradient id="ap" x1="7.104" x2="6.634" y1="23.876" y2="23.338" gradientTransform="translate(11.44 4.83)" gradientUnits="userSpaceOnUse" xlink:href="#d"/>
  <linearGradient id="aq" x1="7.104" x2="6.634" y1="23.876" y2="23.338" gradientTransform="translate(10.194 4.83)" gradientUnits="userSpaceOnUse" xlink:href="#d"/>
  <linearGradient id="ar" x1="7.104" x2="6.634" y1="23.876" y2="23.338" gradientTransform="translate(8.948 4.83)" gradientUnits="userSpaceOnUse" xlink:href="#d"/>
  <linearGradient id="as" x1="7.104" x2="6.634" y1="23.876" y2="23.338" gradientTransform="translate(7.701 4.83)" gradientUnits="userSpaceOnUse" xlink:href="#d"/>
  <linearGradient id="at" x1="7.104" x2="6.634" y1="23.876" y2="23.338" gradientTransform="translate(6.454 4.83)" gradientUnits="userSpaceOnUse" xlink:href="#d"/>
  <linearGradient id="au" x1="7.104" x2="6.634" y1="23.876" y2="23.338" gradientTransform="translate(13.934 4.83)" gradientUnits="userSpaceOnUse" xlink:href="#d"/>
  <linearGradient id="av" x1="7.104" x2="6.634" y1="23.876" y2="23.338" gradientTransform="translate(12.687 6.114)" gradientUnits="userSpaceOnUse" xlink:href="#d"/>
  <linearGradient id="aw" x1="7.104" x2="6.634" y1="23.876" y2="23.338" gradientTransform="translate(11.44 6.114)" gradientUnits="userSpaceOnUse" xlink:href="#d"/>
  <linearGradient id="ax" x1="7.104" x2="6.634" y1="23.876" y2="23.338" gradientTransform="translate(10.194 6.114)" gradientUnits="userSpaceOnUse" xlink:href="#d"/>
  <linearGradient id="ay" x1="7.104" x2="6.634" y1="23.876" y2="23.338" gradientTransform="translate(8.948 6.114)" gradientUnits="userSpaceOnUse" xlink:href="#d"/>
  <linearGradient id="az" x1="7.104" x2="6.634" y1="23.876" y2="23.338" gradientTransform="translate(7.701 6.114)" gradientUnits="userSpaceOnUse" xlink:href="#d"/>
  <linearGradient id="h">
   <stop offset="0"/>
   <stop stop-opacity=".78764" offset=".607"/>
   <stop stop-opacity=".67451" offset=".746"/>
   <stop stop-opacity=".61961" offset=".763"/>
   <stop stop-opacity=".5451" offset=".786"/>
   <stop stop-opacity=".48627" offset=".807"/>
   <stop stop-opacity=".29804" offset=".862"/>
   <stop stop-opacity=".18824" offset=".89"/>
   <stop stop-opacity=".082353" offset=".924"/>
   <stop stop-opacity=".043137" offset=".943"/>
   <stop stop-opacity=".031373" offset=".956"/>
   <stop stop-opacity=".027451" offset=".961"/>
   <stop stop-opacity="0" offset=".992"/>
   <stop stop-opacity="0" offset="1"/>
  </linearGradient>
  <linearGradient id="i">
   <stop offset="0"/>
   <stop stop-opacity=".87843" offset=".592"/>
   <stop stop-opacity=".56471" offset=".648"/>
   <stop stop-opacity=".52549" offset=".682"/>
   <stop stop-opacity=".44314" offset=".727"/>
   <stop stop-opacity=".28627" offset=".795"/>
   <stop stop-opacity=".18431" offset=".843"/>
   <stop stop-opacity=".078431" offset=".903"/>
   <stop stop-opacity=".062745" offset=".92"/>
   <stop stop-opacity=".054902" offset=".931"/>
   <stop stop-opacity=".031373" offset=".956"/>
   <stop stop-opacity=".027451" offset=".961"/>
   <stop stop-opacity="0" offset=".992"/>
   <stop stop-opacity="0" offset="1"/>
  </linearGradient>
  <linearGradient id="j">
   <stop offset="0"/>
   <stop stop-opacity=".78764" offset=".716"/>
   <stop stop-opacity=".67451" offset=".746"/>
   <stop stop-opacity=".61961" offset=".763"/>
   <stop stop-opacity=".5451" offset=".786"/>
   <stop stop-opacity=".48627" offset=".807"/>
   <stop stop-opacity=".29804" offset=".862"/>
   <stop stop-opacity=".18824" offset=".89"/>
   <stop stop-opacity=".082353" offset=".924"/>
   <stop stop-opacity=".043137" offset=".943"/>
   <stop stop-opacity=".031373" offset=".956"/>
   <stop stop-opacity=".027451" offset=".961"/>
   <stop stop-opacity="0" offset=".992"/>
   <stop stop-opacity="0" offset="1"/>
  </linearGradient>
  <linearGradient id="k">
   <stop stop-color="#5b5b5b" offset="0"/>
   <stop stop-color="#6d6d6d" stop-opacity="0" offset="1"/>
  </linearGradient>
  <linearGradient id="bo" x1="254.88" x2="252.4" y1="251.44" y2="258.82" gradientTransform="translate(342.78 -75.932)" gradientUnits="userSpaceOnUse" xlink:href="#e"/>
  <linearGradient id="e">
   <stop stop-color="#fff" offset="0"/>
   <stop stop-color="#fff" stop-opacity=".97255" offset=".063"/>
   <stop stop-color="#fff" stop-opacity=".67451" offset=".325"/>
   <stop stop-color="#fff" stop-opacity=".50196" offset=".477"/>
   <stop stop-color="#fff" stop-opacity=".2" offset=".761"/>
   <stop stop-color="#fff" stop-opacity=".023529" offset=".955"/>
   <stop stop-color="#fff" stop-opacity="0" offset="1"/>
  </linearGradient>
  <linearGradient id="bp" x1="254.88" x2="249.47" y1="251.44" y2="271.62" gradientTransform="translate(342.78 -75.932)" gradientUnits="userSpaceOnUse" xlink:href="#e"/>
  <linearGradient id="l">
   <stop stop-color="#fff" stop-opacity="0" offset="0"/>
   <stop stop-color="#fff" stop-opacity="0" offset=".962"/>
   <stop stop-color="#fff" stop-opacity=".39216" offset="1"/>
  </linearGradient>
  <radialGradient id="p" cx="11.246" cy="8.612" r="12.287" gradientTransform="matrix(1 0 0 .73729 -.04 3.647)" gradientUnits="userSpaceOnUse" xlink:href="#f"/>
  <radialGradient id="s" cx="98.141" cy="101.66" r="54.969" gradientTransform="translate(-.04 -.025) scale(.26458)" gradientUnits="userSpaceOnUse">
   <stop stop-color="#270903" offset="0"/>
   <stop stop-color="#270903" stop-opacity="0" offset="1"/>
  </radialGradient>
  <radialGradient id="aA" cx="24.249" cy="24.25" r="9.633" gradientTransform="matrix(7.2515 .05166 -.05147 7.2255 536.82 -97.516)" gradientUnits="userSpaceOnUse" xlink:href="#h"/>
  <radialGradient id="aB" cx="24.249" cy="24.25" r="9.633" gradientTransform="matrix(6.5173 0 0 6.4414 553.32 -94.144)" gradientUnits="userSpaceOnUse" xlink:href="#i"/>
  <radialGradient id="aC" cx="24.249" cy="24.25" r="9.633" gradientTransform="matrix(7.2517 0 0 7.1672 535.56 -116.71)" gradientUnits="userSpaceOnUse" xlink:href="#j"/>
  <radialGradient id="aD" cx="711.55" cy="56.356" r="56.185" gradientUnits="userSpaceOnUse" xlink:href="#k"/>
  <radialGradient id="aU" cx="711.55" cy="56.355" r="51.77" gradientTransform="matrix(.29623 0 0 .31104 500.77 38.827)" gradientUnits="userSpaceOnUse" xlink:href="#f"/>
  <radialGradient id="aV" cx="711.55" cy="56.356" r="56.185" gradientUnits="userSpaceOnUse" xlink:href="#l"/>
  <radialGradient id="bs" cx="17.709" cy="18.594" r="54.969" gradientTransform="matrix(.42666 0 0 .3436 -2.91 -1.494)" gradientUnits="userSpaceOnUse">
   <stop stop-color="#fbf9c9" offset="0"/>
   <stop stop-color="#efe529" stop-opacity="0" offset="1"/>
  </radialGradient>
  <filter id="n" x="-.231" y="-.231" width="1.462" height="1.462" color-interpolation-filters="sRGB">
   <feGaussianBlur stdDeviation="1.826"/>
  </filter>
 </defs>
 <rect transform="translate(-65.788 -37.228) scale(.97573)" x="69.84" y="40.71" width="29.811" height="29.811" rx="6.61" ry="6.61" filter="url(#n)" opacity=".25" stroke="#000" stroke-linecap="round" stroke-linejoin="round" stroke-opacity=".02" stroke-width="5"/>
 <rect x="4.646" y="4.895" width="24.574" height="18.118" rx="4.883" ry="4.883" fill="#94d1d9" fill-rule="evenodd" opacity=".914"/>
 <rect x="4.646" y="4.895" width="24.574" height="18.118" rx="4.883" ry="4.883" fill="url(#o)" fill-rule="evenodd"/>
 <rect x="4.646" y="4.895" width="24.574" height="18.118" rx="4.883" ry="4.883" fill="url(#p)" fill-rule="evenodd" opacity=".741"/>
 <g transform="translate(-28.986 -.025)" fill="none" stroke="#000" stroke-linecap="square" stroke-opacity=".0078431">
  <rect x="33.632" y="4.92" width="24.574" height="18.118" rx="4.883" ry="4.883" opacity=".914" stroke-width=".05"/>
  <rect x="33.632" y="4.92" width="24.574" height="18.118" rx="4.883" ry="4.883" opacity=".914" stroke-width=".1"/>
  <rect x="33.632" y="4.92" width="24.574" height="18.118" rx="4.883" ry="4.883" opacity=".914" stroke-width=".15"/>
  <rect x="33.632" y="4.92" width="24.574" height="18.118" rx="4.883" ry="4.883" opacity=".914" stroke-width=".2"/>
  <rect x="33.632" y="4.92" width="24.574" height="18.118" rx="4.883" ry="4.883" opacity=".914" stroke-width=".25"/>
  <rect x="33.632" y="4.92" width="24.574" height="18.118" rx="4.883" ry="4.883" opacity=".914" stroke-width=".3"/>
  <rect x="33.632" y="4.92" width="24.574" height="18.118" rx="4.883" ry="4.883" opacity=".914" stroke-width=".35"/>
  <rect x="33.632" y="4.92" width="24.574" height="18.118" rx="4.883" ry="4.883" opacity=".914" stroke-width=".4"/>
  <rect x="33.632" y="4.92" width="24.574" height="18.118" rx="4.883" ry="4.883" opacity=".914" stroke-width=".45"/>
  <rect x="33.632" y="4.92" width="24.574" height="18.118" rx="4.883" ry="4.883" opacity=".914" stroke-width=".5"/>
  <rect x="33.632" y="4.92" width="24.574" height="18.118" rx="4.883" ry="4.883" opacity=".914" stroke-width=".55"/>
  <rect x="33.632" y="4.92" width="24.574" height="18.118" rx="4.883" ry="4.883" opacity=".914" stroke-width=".6"/>
  <rect x="33.632" y="4.92" width="24.574" height="18.118" rx="4.883" ry="4.883" opacity=".914" stroke-width=".65"/>
  <rect x="33.632" y="4.92" width="24.574" height="18.118" rx="4.883" ry="4.883" opacity=".914" stroke-width=".7"/>
  <rect x="33.632" y="4.92" width="24.574" height="18.118" rx="4.883" ry="4.883" opacity=".914" stroke-width=".75"/>
  <rect x="33.632" y="4.92" width="24.574" height="18.118" rx="4.883" ry="4.883" opacity=".914" stroke-width=".8"/>
  <rect x="33.632" y="4.92" width="24.574" height="18.118" rx="4.883" ry="4.883" opacity=".914" stroke-width=".85"/>
  <rect x="33.632" y="4.92" width="24.574" height="18.118" rx="4.883" ry="4.883" opacity=".914" stroke-width=".9"/>
  <rect x="33.632" y="4.92" width="24.574" height="18.118" rx="4.883" ry="4.883" opacity=".914" stroke-width=".95"/>
  <rect x="33.632" y="4.92" width="24.574" height="18.118" rx="4.883" ry="4.883" opacity=".914" stroke-width=".1"/>
  <rect x="33.632" y="4.92" width="24.574" height="18.118" rx="4.883" ry="4.883" opacity=".914" stroke-width="1.15"/>
  <rect x="33.632" y="4.92" width="24.574" height="18.118" rx="4.883" ry="4.883" opacity=".914" stroke-width="1.2"/>
  <rect x="33.632" y="4.92" width="24.574" height="18.118" rx="4.883" ry="4.883" opacity=".914" stroke-width="1.25"/>
  <rect x="33.632" y="4.92" width="24.574" height="18.118" rx="4.883" ry="4.883" opacity=".914" stroke-width="1.3"/>
  <rect x="33.632" y="4.92" width="24.574" height="18.118" rx="4.883" ry="4.883" opacity=".914" stroke-width="1.35"/>
  <rect x="33.632" y="4.92" width="24.574" height="18.118" rx="4.883" ry="4.883" opacity=".914" stroke-width="1.4"/>
  <rect x="33.632" y="4.92" width="24.574" height="18.118" rx="4.883" ry="4.883" opacity=".914" stroke-width="1.45"/>
  <rect x="33.632" y="4.92" width="24.574" height="18.118" rx="4.883" ry="4.883" opacity=".914" stroke-width="1.5"/>
  <rect x="33.632" y="4.92" width="24.574" height="18.118" rx="4.883" ry="4.883" opacity=".914" stroke-width="1.55"/>
  <rect x="33.632" y="4.92" width="24.574" height="18.118" rx="4.883" ry="4.883" opacity=".914" stroke-width="1.6"/>
  <rect x="33.632" y="4.92" width="24.574" height="18.118" rx="4.883" ry="4.883" opacity=".914" stroke-width="1.65"/>
  <rect x="33.632" y="4.92" width="24.574" height="18.118" rx="4.883" ry="4.883" opacity=".914" stroke-width="1.7"/>
  <rect x="33.632" y="4.92" width="24.574" height="18.118" rx="4.883" ry="4.883" opacity=".914" stroke-width="1.75"/>
  <rect x="33.632" y="4.92" width="24.574" height="18.118" rx="4.883" ry="4.883" opacity=".914" stroke-width="1.8"/>
  <rect x="33.632" y="4.92" width="24.574" height="18.118" rx="4.883" ry="4.883" opacity=".914" stroke-width="1.85"/>
  <rect x="33.632" y="4.92" width="24.574" height="18.118" rx="4.883" ry="4.883" opacity=".914" stroke-width="1.9"/>
  <rect x="33.632" y="4.92" width="24.574" height="18.118" rx="4.883" ry="4.883" opacity=".914" stroke-width="1.95"/>
  <rect x="33.632" y="4.92" width="24.574" height="18.118" rx="4.883" ry="4.883" opacity=".914" stroke-width="2"/>
  <rect x="33.632" y="4.92" width="24.574" height="18.118" rx="4.883" ry="4.883" opacity=".914" stroke-width="2.1"/>
  <rect x="33.632" y="4.92" width="24.574" height="18.118" rx="4.883" ry="4.883" opacity=".914" stroke-width="2.2"/>
  <rect x="33.632" y="4.92" width="24.574" height="18.118" rx="4.883" ry="4.883" opacity=".914" stroke-width="2.3"/>
  <rect x="33.632" y="4.92" width="24.574" height="18.118" rx="4.883" ry="4.883" opacity=".914" stroke-width="2.4"/>
  <rect x="33.632" y="4.92" width="24.574" height="18.118" rx="4.883" ry="4.883" opacity=".914" stroke-width="2.5"/>
  <rect x="33.632" y="4.92" width="24.574" height="18.118" rx="4.883" ry="4.883" opacity=".914" stroke-width="2.6"/>
  <rect x="33.632" y="4.92" width="24.574" height="18.118" rx="4.883" ry="4.883" opacity=".914" stroke-width="2.7"/>
  <rect x="33.632" y="4.92" width="24.574" height="18.118" rx="4.883" ry="4.883" opacity=".914" stroke-width="2.8"/>
  <rect x="33.632" y="4.92" width="24.574" height="18.118" rx="4.883" ry="4.883" opacity=".914" stroke-width="2.9"/>
  <rect x="33.632" y="4.92" width="24.574" height="18.118" rx="4.883" ry="4.883" opacity=".914" stroke-width="3"/>
 </g>
 <path d="M8.807 2.493a6.435 6.435 0 0 0-6.45 6.45V25.13a6.435 6.435 0 0 0 6.45 6.45h16.188a6.435 6.435 0 0 0 6.45-6.45V8.943a6.435 6.435 0 0 0-6.45-6.45zm.723 2.402h14.807a4.872 4.872 0 0 1 4.883 4.883v8.351a4.873 4.873 0 0 1-4.883 4.884H9.53a4.873 4.873 0 0 1-4.884-4.884V9.778A4.872 4.872 0 0 1 9.53 4.895Z" fill="url(#q)" stroke-linecap="round" stroke-linejoin="round" stroke-width="2.6877"/>
 <path d="M9.53 4.395a5.381 5.381 0 0 0-5.383 5.382v8.352a5.381 5.381 0 0 0 5.382 5.383h14.807a5.383 5.383 0 0 0 5.385-5.383V9.777a5.383 5.383 0 0 0-5.385-5.382Zm0 .5h14.807a4.872 4.872 0 0 1 4.883 4.883v8.351a4.873 4.873 0 0 1-4.883 4.884H9.53a4.873 4.873 0 0 1-4.884-4.884V9.778A4.872 4.872 0 0 1 9.53 4.895Z" color-rendering="auto" dominant-baseline="auto" fill="url(#r)" fill-rule="evenodd" image-rendering="auto" opacity=".741" shape-rendering="auto" style="font-feature-settings:normal;font-variant-alternates:normal;font-variant-caps:normal;font-variant-ligatures:normal;font-variant-numeric:normal;font-variant-position:normal;isolation:auto;mix-blend-mode:normal;shape-padding:0;text-decoration-color:#000;text-decoration-line:none;text-decoration-style:solid;text-indent:0;text-orientation:mixed;text-transform:none;white-space:normal"/>
 <path d="M8.807 2.493a6.435 6.435 0 0 0-6.45 6.45V25.13a6.435 6.435 0 0 0 6.45 6.45h16.188a6.435 6.435 0 0 0 6.45-6.45V8.943a6.435 6.435 0 0 0-6.45-6.45zm.723 2.402h14.807a4.872 4.872 0 0 1 4.883 4.883v8.351a4.873 4.873 0 0 1-4.883 4.884H9.53a4.873 4.873 0 0 1-4.884-4.884V9.778A4.872 4.872 0 0 1 9.53 4.895Z" fill="url(#s)" opacity=".164" stroke-linecap="round" stroke-linejoin="round" stroke-width="2.6877"/>
 <g transform="translate(3.852 7.829) scale(.7691)" fill-opacity=".20652" fill-rule="evenodd" stroke-width=".11">
  <circle cx="19.46" cy="21.633" r=".319" stroke="url(#t)"/>
  <circle cx="18.213" cy="21.633" r=".319" stroke="url(#u)"/>
  <circle cx="16.967" cy="21.633" r=".319" stroke="url(#v)"/>
  <circle cx="15.72" cy="21.633" r=".319" stroke="url(#w)"/>
  <circle cx="14.473" cy="21.633" r=".319" stroke="url(#x)"/>
  <circle cx="13.227" cy="21.633" r=".319" stroke="url(#y)"/>
  <circle cx="20.706" cy="21.633" r=".319" stroke="url(#z)"/>
 </g>
 <g transform="translate(3.852 8.115) scale(.7691)" fill-opacity=".20652" fill-rule="evenodd" stroke-width=".11">
  <circle cx="19.46" cy="22.607" r=".319" stroke="url(#A)"/>
  <circle cx="18.213" cy="22.607" r=".319" stroke="url(#B)"/>
  <circle cx="16.967" cy="22.607" r=".319" stroke="url(#C)"/>
  <circle cx="15.72" cy="22.607" r=".319" stroke="url(#D)"/>
  <circle cx="14.473" cy="22.607" r=".319" stroke="url(#E)"/>
  <circle cx="13.227" cy="22.607" r=".319" stroke="url(#F)"/>
  <circle cx="11.98" cy="22.607" r=".319" stroke="url(#G)"/>
  <circle cx="20.706" cy="22.607" r=".319" stroke="url(#H)"/>
  <circle cx="21.953" cy="22.607" r=".319" stroke="url(#I)"/>
 </g>
 <g transform="translate(3.852 8.255) scale(.7691)" fill-opacity=".20652" fill-rule="evenodd" stroke-width=".11">
  <circle cx="19.46" cy="23.771" r=".319" stroke="url(#J)"/>
  <circle cx="18.213" cy="23.771" r=".319" stroke="url(#K)"/>
  <circle cx="16.967" cy="23.771" r=".319" stroke="url(#L)"/>
  <circle cx="15.72" cy="23.771" r=".319" stroke="url(#M)"/>
  <circle cx="14.473" cy="23.771" r=".319" stroke="url(#N)"/>
  <circle cx="13.227" cy="23.771" r=".319" stroke="url(#O)"/>
  <circle cx="11.98" cy="23.771" r=".319" stroke="url(#P)"/>
  <circle cx="10.734" cy="23.771" r=".319" stroke="url(#Q)"/>
  <circle cx="20.706" cy="23.771" r=".319" stroke="url(#R)"/>
  <circle cx="23.199" cy="23.771" r=".319" stroke="url(#S)"/>
  <circle cx="21.953" cy="23.771" r=".319" stroke="url(#T)"/>
 </g>
 <g transform="translate(3.852 8.231) scale(.7691)" fill-opacity=".20652" fill-rule="evenodd" stroke-width=".11">
  <circle cx="19.46" cy="25.15" r=".319" stroke="url(#U)"/>
  <circle cx="18.213" cy="25.15" r=".319" stroke="url(#V)"/>
  <circle cx="16.967" cy="25.15" r=".319" stroke="url(#W)"/>
  <circle cx="15.72" cy="25.15" r=".319" stroke="url(#X)"/>
  <circle cx="14.473" cy="25.15" r=".319" stroke="url(#Y)"/>
  <circle cx="13.227" cy="25.15" r=".319" stroke="url(#Z)"/>
  <circle cx="11.98" cy="25.15" r=".319" stroke="url(#aa)"/>
  <circle cx="10.734" cy="25.15" r=".319" stroke="url(#ab)"/>
  <circle cx="20.706" cy="25.15" r=".319" stroke="url(#ac)"/>
  <circle cx="23.199" cy="25.15" r=".319" stroke="url(#ad)"/>
  <circle cx="21.953" cy="25.15" r=".319" stroke="url(#ae)"/>
 </g>
 <g transform="translate(3.852 8.06) scale(.7691)" fill-opacity=".20652" fill-rule="evenodd" stroke-width=".11">
  <circle cx="19.46" cy="26.718" r=".319" stroke="url(#af)"/>
  <circle cx="18.213" cy="26.718" r=".319" stroke="url(#ag)"/>
  <circle cx="16.967" cy="26.718" r=".319" stroke="url(#ah)"/>
  <circle cx="15.72" cy="26.718" r=".319" stroke="url(#ai)"/>
  <circle cx="14.473" cy="26.718" r=".319" stroke="url(#aj)"/>
  <circle cx="13.227" cy="26.718" r=".319" stroke="url(#ak)"/>
  <circle cx="11.98" cy="26.718" r=".319" stroke="url(#al)"/>
  <circle cx="20.706" cy="26.718" r=".319" stroke="url(#am)"/>
  <circle cx="21.953" cy="26.718" r=".319" stroke="url(#an)"/>
 </g>
 <g transform="translate(3.852 7.78) scale(.7691)" fill-opacity=".20652" fill-rule="evenodd" stroke-width=".11">
  <circle cx="19.46" cy="28.43" r=".319" stroke="url(#ao)"/>
  <circle cx="18.213" cy="28.43" r=".319" stroke="url(#ap)"/>
  <circle cx="16.967" cy="28.43" r=".319" stroke="url(#aq)"/>
  <circle cx="15.72" cy="28.43" r=".319" stroke="url(#ar)"/>
  <circle cx="14.473" cy="28.43" r=".319" stroke="url(#as)"/>
  <circle cx="13.227" cy="28.43" r=".319" stroke="url(#at)"/>
  <circle cx="20.706" cy="28.43" r=".319" stroke="url(#au)"/>
 </g>
 <g transform="translate(3.852 7.829) scale(.7691)" fill-opacity=".20652" fill-rule="evenodd" stroke-width=".11">
  <circle cx="19.46" cy="29.713" r=".319" stroke="url(#av)"/>
  <circle cx="18.213" cy="29.713" r=".319" stroke="url(#aw)"/>
  <circle cx="16.967" cy="29.713" r=".319" stroke="url(#ax)"/>
  <circle cx="15.72" cy="29.713" r=".319" stroke="url(#ay)"/>
  <circle cx="14.473" cy="29.713" r=".319" stroke="url(#az)"/>
 </g>
 <path transform="translate(-10.675 23.972) scale(.05144)" d="m711.41-11.95a69.857 90.904 0 0 0-69.856 90.903 69.857 90.904 0 0 0 69.856 90.904 69.857 90.904 0 0 0 69.857-90.904 69.857 90.904 0 0 0-69.857-90.902z" fill="url(#aA)" opacity=".357" stroke-width="18.824"/>
 <path transform="translate(-10.675 23.972) scale(.05144)" d="M711.36.007a62.782 62.051 0 0 0-62.78 62.05 62.782 62.051 0 0 0 62.78 62.052 62.782 62.051 0 0 0 62.783-62.052A62.782 62.051 0 0 0 711.36.007Z" fill="url(#aB)" stroke-width="14.744"/>
 <path transform="translate(-10.675 23.972) scale(.05144)" d="m711.41-11.95a69.857 69.043 0 0 0-69.856 69.043 69.857 69.043 0 0 0 69.856 69.043 69.857 69.043 0 0 0 69.857-69.043 69.857 69.043 0 0 0-69.857-69.042z" fill="url(#aC)" opacity=".172" stroke-width="16.405"/>
 <path transform="translate(-10.675 23.972) scale(.05144)" d="M767.732 56.356c0 15.515-6.29 29.561-16.457 39.728-10.167 10.168-24.213 16.457-39.728 16.457s-29.562-6.289-39.73-16.457c-10.167-10.167-16.455-24.213-16.455-39.728s6.288-29.562 16.456-39.73C681.985 6.46 696.032.172 711.547.172s29.56 6.288 39.728 16.456c10.168 10.167 16.457 24.214 16.457 39.729z" fill="#d0d0d0" fill-rule="evenodd"/>
 <path transform="translate(-10.675 23.972) scale(.05144)" d="M767.732 56.356c0 15.515-6.29 29.561-16.457 39.728-10.167 10.168-24.213 16.457-39.728 16.457s-29.562-6.289-39.73-16.457c-10.167-10.167-16.455-24.213-16.455-39.728s6.288-29.562 16.456-39.73C681.985 6.46 696.032.172 711.547.172s29.56 6.288 39.728 16.456c10.168 10.167 16.457 24.214 16.457 39.729z" fill="url(#aD)" fill-rule="evenodd"/>
 <g fill-rule="evenodd" opacity=".636">
  <path transform="translate(-5.486 17.332) scale(.05144)" d="m650.39 225.17c-10.167 10.167-24.214 16.455-39.729 16.455s-29.561-6.288-39.729-16.456c-10.167-10.167-16.456-24.214-16.456-39.729s6.289-29.56 16.456-39.728z" fill="url(#bo)" opacity="1"/>
  <path transform="translate(-5.486 17.332) scale(.05144)" d="m650.39 225.17c-10.167 10.167-24.214 16.455-39.729 16.455s-29.561-6.288-39.729-16.456c-10.167-10.167-16.456-24.214-16.456-39.729s6.289-29.56 16.456-39.728z" fill="url(#bp)" opacity=".591"/>
  <path transform="matrix(0 .05144 .05144 0 16.388 -4.542)" d="m650.39 225.17c-10.167 10.167-24.214 16.455-39.729 16.455s-29.561-6.288-39.729-16.456c-10.167-10.167-16.456-24.214-16.456-39.729s6.289-29.56 16.456-39.728z" fill="url(#bo)" opacity="1"/>
  <path transform="matrix(0 .05144 .05144 0 16.388 -4.542)" d="m650.39 225.17c-10.167 10.167-24.214 16.455-39.729 16.455s-29.561-6.288-39.729-16.456c-10.167-10.167-16.456-24.214-16.456-39.729s6.289-29.56 16.456-39.728z" fill="url(#bp)" opacity=".591"/>
  <path transform="rotate(180 28.67 18.205) scale(.05144)" d="m650.39 225.17c-10.167 10.167-24.214 16.455-39.729 16.455s-29.561-6.288-39.729-16.456c-10.167-10.167-16.456-24.214-16.456-39.729s6.289-29.56 16.456-39.728z" fill="url(#bo)" opacity="1"/>
  <path transform="rotate(180 28.67 18.205) scale(.05144)" d="m650.39 225.17c-10.167 10.167-24.214 16.455-39.729 16.455s-29.561-6.288-39.729-16.456c-10.167-10.167-16.456-24.214-16.456-39.729s6.289-29.56 16.456-39.728z" fill="url(#bp)" opacity=".591"/>
  <path transform="matrix(0 -.05144 -.05144 0 35.466 58.284)" d="m650.39 225.17c-10.167 10.167-24.214 16.455-39.729 16.455s-29.561-6.288-39.729-16.456c-10.167-10.167-16.456-24.214-16.456-39.729s6.289-29.56 16.456-39.728z" fill="url(#bo)" opacity="1"/>
  <path transform="matrix(0 -.05144 -.05144 0 35.466 58.284)" d="m650.39 225.17c-10.167 10.167-24.214 16.455-39.729 16.455s-29.561-6.288-39.729-16.456c-10.167-10.167-16.456-24.214-16.456-39.729s6.289-29.56 16.456-39.728z" fill="url(#bp)" opacity=".591"/>
  <path transform="rotate(90 20.004 15.462) scale(.05144)" d="m650.39 225.17c-10.167 10.167-24.214 16.455-39.729 16.455s-29.561-6.288-39.729-16.456c-10.167-10.167-16.456-24.214-16.456-39.729s6.289-29.56 16.456-39.728z" fill="url(#bo)" opacity="1"/>
  <path transform="rotate(90 20.004 15.462) scale(.05144)" d="m650.39 225.17c-10.167 10.167-24.214 16.455-39.729 16.455s-29.561-6.288-39.729-16.456c-10.167-10.167-16.456-24.214-16.456-39.729s6.289-29.56 16.456-39.728z" fill="url(#bp)" opacity=".591"/>
  <path transform="matrix(-.05144 0 0 .05144 57.34 17.332)" d="m650.39 225.17c-10.167 10.167-24.214 16.455-39.729 16.455s-29.561-6.288-39.729-16.456c-10.167-10.167-16.456-24.214-16.456-39.729s6.289-29.56 16.456-39.728z" fill="url(#bo)" opacity="1"/>
  <path transform="matrix(-.05144 0 0 .05144 57.34 17.332)" d="m650.39 225.17c-10.167 10.167-24.214 16.455-39.729 16.455s-29.561-6.288-39.729-16.456c-10.167-10.167-16.456-24.214-16.456-39.729s6.289-29.56 16.456-39.728z" fill="url(#bp)" opacity=".591"/>
  <path transform="rotate(-90 37.336 20.948) scale(.05144)" d="m650.39 225.17c-10.167 10.167-24.214 16.455-39.729 16.455s-29.561-6.288-39.729-16.456c-10.167-10.167-16.456-24.214-16.456-39.729s6.289-29.56 16.456-39.728z" fill="url(#bo)" opacity="1"/>
  <path transform="rotate(-90 37.336 20.948) scale(.05144)" d="m650.39 225.17c-10.167 10.167-24.214 16.455-39.729 16.455s-29.561-6.288-39.729-16.456c-10.167-10.167-16.456-24.214-16.456-39.729s6.289-29.56 16.456-39.728z" fill="url(#bp)" opacity=".591"/>
  <path transform="matrix(.05144 0 0 -.05144 -5.486 36.41)" d="m650.39 225.17c-10.167 10.167-24.214 16.455-39.729 16.455s-29.561-6.288-39.729-16.456c-10.167-10.167-16.456-24.214-16.456-39.729s6.289-29.56 16.456-39.728z" fill="url(#bo)" opacity="1"/>
  <path transform="matrix(.05144 0 0 -.05144 -5.486 36.41)" d="m650.39 225.17c-10.167 10.167-24.214 16.455-39.729 16.455s-29.561-6.288-39.729-16.456c-10.167-10.167-16.456-24.214-16.456-39.729s6.289-29.56 16.456-39.728z" fill="url(#bp)" opacity=".591"/>
 </g>
 <path transform="translate(-10.675 23.972) scale(.05144)" d="m689.68 4.586a56.277 56.277 0 0 0-17.86 12.041 56.277 56.277 0 0 0-12.04 17.86l51.769 21.868zm21.869 51.77 51.77-21.87a56.277 56.277 0 0 0-12.042-17.859 56.277 56.277 0 0 0-17.859-12.041zm0 0 21.869 51.769a56.277 56.277 0 0 0 17.86-12.041 56.277 56.277 0 0 0 12.04-17.86zm0 0-51.77 21.869a56.277 56.277 0 0 0 12.041 17.859 56.277 56.277 0 0 0 17.86 12.041z" fill="url(#aU)" fill-rule="evenodd" opacity=".668"/>
 <path transform="translate(-10.675 23.972) scale(.05144)" d="M767.732 56.356c0 15.515-6.29 29.561-16.457 39.728-10.167 10.168-24.213 16.457-39.728 16.457s-29.562-6.289-39.73-16.457c-10.167-10.167-16.455-24.213-16.455-39.728s6.288-29.562 16.456-39.73C681.985 6.46 696.032.172 711.547.172s29.56 6.288 39.728 16.456c10.168 10.167 16.457 24.214 16.457 39.729z" fill="url(#aV)" fill-rule="evenodd"/>
 <path transform="translate(-28.714 23.972) scale(.05144)" d="m711.41-11.95a69.857 90.904 0 0 0-69.856 90.903 69.857 90.904 0 0 0 69.856 90.904 69.857 90.904 0 0 0 69.857-90.904 69.857 90.904 0 0 0-69.857-90.902z" fill="url(#aA)" opacity=".357" stroke-width="18.824"/>
 <path transform="translate(-28.714 23.972) scale(.05144)" d="M711.36.007a62.782 62.051 0 0 0-62.78 62.05 62.782 62.051 0 0 0 62.78 62.052 62.782 62.051 0 0 0 62.783-62.052A62.782 62.051 0 0 0 711.36.007Z" fill="url(#aB)" stroke-width="14.744"/>
 <path transform="translate(-28.714 23.972) scale(.05144)" d="m711.41-11.95a69.857 69.043 0 0 0-69.856 69.043 69.857 69.043 0 0 0 69.856 69.043 69.857 69.043 0 0 0 69.857-69.043 69.857 69.043 0 0 0-69.857-69.042z" fill="url(#aC)" opacity=".172" stroke-width="16.405"/>
 <path transform="translate(-28.714 23.972) scale(.05144)" d="M767.732 56.356c0 15.515-6.29 29.561-16.457 39.728-10.167 10.168-24.213 16.457-39.728 16.457s-29.562-6.289-39.73-16.457c-10.167-10.167-16.455-24.213-16.455-39.728s6.288-29.562 16.456-39.73C681.985 6.46 696.032.172 711.547.172s29.56 6.288 39.728 16.456c10.168 10.167 16.457 24.214 16.457 39.729z" fill="#d0d0d0" fill-rule="evenodd"/>
 <path transform="translate(-28.714 23.972) scale(.05144)" d="M767.732 56.356c0 15.515-6.29 29.561-16.457 39.728-10.167 10.168-24.213 16.457-39.728 16.457s-29.562-6.289-39.73-16.457c-10.167-10.167-16.455-24.213-16.455-39.728s6.288-29.562 16.456-39.73C681.985 6.46 696.032.172 711.547.172s29.56 6.288 39.728 16.456c10.168 10.167 16.457 24.214 16.457 39.729z" fill="url(#aD)" fill-rule="evenodd"/>
 <g fill-rule="evenodd" opacity=".636">
  <path transform="translate(-23.524 17.332) scale(.05144)" d="m650.39 225.17c-10.167 10.167-24.214 16.455-39.729 16.455s-29.561-6.288-39.729-16.456c-10.167-10.167-16.456-24.214-16.456-39.729s6.289-29.56 16.456-39.728z" fill="url(#bo)" opacity="1"/>
  <path transform="translate(-23.524 17.332) scale(.05144)" d="m650.39 225.17c-10.167 10.167-24.214 16.455-39.729 16.455s-29.561-6.288-39.729-16.456c-10.167-10.167-16.456-24.214-16.456-39.729s6.289-29.56 16.456-39.728z" fill="url(#bp)" opacity=".591"/>
  <path transform="matrix(0 .05144 .05144 0 -1.65 -4.542)" d="m650.39 225.17c-10.167 10.167-24.214 16.455-39.729 16.455s-29.561-6.288-39.729-16.456c-10.167-10.167-16.456-24.214-16.456-39.729s6.289-29.56 16.456-39.728z" fill="url(#bo)" opacity="1"/>
  <path transform="matrix(0 .05144 .05144 0 -1.65 -4.542)" d="m650.39 225.17c-10.167 10.167-24.214 16.455-39.729 16.455s-29.561-6.288-39.729-16.456c-10.167-10.167-16.456-24.214-16.456-39.729s6.289-29.56 16.456-39.728z" fill="url(#bp)" opacity=".591"/>
  <path transform="rotate(180 19.65 18.205) scale(.05144)" d="m650.39 225.17c-10.167 10.167-24.214 16.455-39.729 16.455s-29.561-6.288-39.729-16.456c-10.167-10.167-16.456-24.214-16.456-39.729s6.289-29.56 16.456-39.728z" fill="url(#bo)" opacity="1"/>
  <path transform="rotate(180 19.65 18.205) scale(.05144)" d="m650.39 225.17c-10.167 10.167-24.214 16.455-39.729 16.455s-29.561-6.288-39.729-16.456c-10.167-10.167-16.456-24.214-16.456-39.729s6.289-29.56 16.456-39.728z" fill="url(#bp)" opacity=".591"/>
  <path transform="matrix(0 -.05144 -.05144 0 17.428 58.284)" d="m650.39 225.17c-10.167 10.167-24.214 16.455-39.729 16.455s-29.561-6.288-39.729-16.456c-10.167-10.167-16.456-24.214-16.456-39.729s6.289-29.56 16.456-39.728z" fill="url(#bo)" opacity="1"/>
  <path transform="matrix(0 -.05144 -.05144 0 17.428 58.284)" d="m650.39 225.17c-10.167 10.167-24.214 16.455-39.729 16.455s-29.561-6.288-39.729-16.456c-10.167-10.167-16.456-24.214-16.456-39.729s6.289-29.56 16.456-39.728z" fill="url(#bp)" opacity=".591"/>
  <path transform="rotate(90 10.985 6.443) scale(.05144)" d="m650.39 225.17c-10.167 10.167-24.214 16.455-39.729 16.455s-29.561-6.288-39.729-16.456c-10.167-10.167-16.456-24.214-16.456-39.729s6.289-29.56 16.456-39.728z" fill="url(#bo)" opacity="1"/>
  <path transform="rotate(90 10.985 6.443) scale(.05144)" d="m650.39 225.17c-10.167 10.167-24.214 16.455-39.729 16.455s-29.561-6.288-39.729-16.456c-10.167-10.167-16.456-24.214-16.456-39.729s6.289-29.56 16.456-39.728z" fill="url(#bp)" opacity=".591"/>
  <path transform="matrix(-.05144 0 0 .05144 39.301 17.332)" d="m650.39 225.17c-10.167 10.167-24.214 16.455-39.729 16.455s-29.561-6.288-39.729-16.456c-10.167-10.167-16.456-24.214-16.456-39.729s6.289-29.56 16.456-39.728z" fill="url(#bo)" opacity="1"/>
  <path transform="matrix(-.05144 0 0 .05144 39.301 17.332)" d="m650.39 225.17c-10.167 10.167-24.214 16.455-39.729 16.455s-29.561-6.288-39.729-16.456c-10.167-10.167-16.456-24.214-16.456-39.729s6.289-29.56 16.456-39.728z" fill="url(#bp)" opacity=".591"/>
  <path transform="rotate(-90 28.317 29.967) scale(.05144)" d="m650.39 225.17c-10.167 10.167-24.214 16.455-39.729 16.455s-29.561-6.288-39.729-16.456c-10.167-10.167-16.456-24.214-16.456-39.729s6.289-29.56 16.456-39.728z" fill="url(#bo)" opacity="1"/>
  <path transform="rotate(-90 28.317 29.967) scale(.05144)" d="m650.39 225.17c-10.167 10.167-24.214 16.455-39.729 16.455s-29.561-6.288-39.729-16.456c-10.167-10.167-16.456-24.214-16.456-39.729s6.289-29.56 16.456-39.728z" fill="url(#bp)" opacity=".591"/>
  <path transform="matrix(.05144 0 0 -.05144 -23.524 36.41)" d="m650.39 225.17c-10.167 10.167-24.214 16.455-39.729 16.455s-29.561-6.288-39.729-16.456c-10.167-10.167-16.456-24.214-16.456-39.729s6.289-29.56 16.456-39.728z" fill="url(#bo)" opacity="1"/>
  <path transform="matrix(.05144 0 0 -.05144 -23.524 36.41)" d="m650.39 225.17c-10.167 10.167-24.214 16.455-39.729 16.455s-29.561-6.288-39.729-16.456c-10.167-10.167-16.456-24.214-16.456-39.729s6.289-29.56 16.456-39.728z" fill="url(#bp)" opacity=".591"/>
 </g>
 <path transform="translate(-28.714 23.972) scale(.05144)" d="m689.68 4.586a56.277 56.277 0 0 0-17.86 12.041 56.277 56.277 0 0 0-12.04 17.86l51.769 21.868zm21.869 51.77 51.77-21.87a56.277 56.277 0 0 0-12.042-17.859 56.277 56.277 0 0 0-17.859-12.041zm0 0 21.869 51.769a56.277 56.277 0 0 0 17.86-12.041 56.277 56.277 0 0 0 12.04-17.86zm0 0-51.77 21.869a56.277 56.277 0 0 0 12.041 17.859 56.277 56.277 0 0 0 17.86 12.041z" fill="url(#aU)" fill-rule="evenodd" opacity=".668"/>
 <path transform="translate(-28.714 23.972) scale(.05144)" d="M767.732 56.356c0 15.515-6.29 29.561-16.457 39.728-10.167 10.168-24.213 16.457-39.728 16.457s-29.562-6.289-39.73-16.457c-10.167-10.167-16.455-24.213-16.455-39.728s6.288-29.562 16.456-39.73C681.985 6.46 696.032.172 711.547.172s29.56 6.288 39.728 16.456c10.168 10.167 16.457 24.214 16.457 39.729z" fill="url(#aV)" fill-rule="evenodd"/>
 <path d="M8.807 2.493a6.435 6.435 0 0 0-6.45 6.45V25.13a6.435 6.435 0 0 0 6.45 6.45h16.188a6.435 6.435 0 0 0 6.45-6.45V8.943a6.435 6.435 0 0 0-6.45-6.45zm.723 2.402h14.807a4.872 4.872 0 0 1 4.883 4.883v8.351a4.873 4.873 0 0 1-4.883 4.884H9.53a4.873 4.873 0 0 1-4.884-4.884V9.778A4.872 4.872 0 0 1 9.53 4.895z" fill="url(#bs)" opacity=".552" stroke-linecap="round" stroke-linejoin="round" stroke-width="2.6877"/>
</svg>
