<?xml version="1.0" encoding="UTF-8"?>
<svg id="svg1443" width="128" height="128" version="1.1" viewBox="0 0 33.867 33.867" xmlns="http://www.w3.org/2000/svg" xmlns:cc="http://creativecommons.org/ns#" xmlns:dc="http://purl.org/dc/elements/1.1/" xmlns:rdf="http://www.w3.org/1999/02/22-rdf-syntax-ns#" xmlns:xlink="http://www.w3.org/1999/xlink">
 <defs id="defs1437">
  <linearGradient id="linearGradient1632" x1="132.21" x2="132.21" y1="42.152" y2="70.68" gradientTransform="matrix(.97573 0 0 .97573 -111.77 -37.183)" gradientUnits="userSpaceOnUse">
   <stop id="stop1626" stop-color="#0dc1e8" offset="0"/>
   <stop id="stop1628" stop-color="#0a70d2" offset="1"/>
  </linearGradient>
 </defs>
 <metadata id="metadata1440">
  <rdf:RDF>
   <cc:Work rdf:about="">
    <dc:format>image/svg+xml</dc:format>
    <dc:type rdf:resource="http://purl.org/dc/dcmitype/StillImage"/>
    <dc:title/>
   </cc:Work>
  </rdf:RDF>
 </metadata>
 <g id="layer1">
  <g id="g1702" transform="matrix(.97573 0 0 .97573 -65.737 -37.183)" fill="none" opacity=".295" stroke="#000" stroke-linecap="round" stroke-linejoin="round" stroke-opacity=".02">
   <rect id="rect1634" x="69.84" y="40.71" width="29.811" height="29.811" rx="6.6099" ry="6.6099" stroke-width=".1"/>
   <rect id="rect1638" x="69.84" y="40.71" width="29.811" height="29.811" rx="6.6099" ry="6.6099" stroke-width=".2"/>
   <rect id="rect1640" x="69.84" y="40.71" width="29.811" height="29.811" rx="6.6099" ry="6.6099" stroke-width=".3"/>
   <rect id="rect1642" x="69.84" y="40.71" width="29.811" height="29.811" rx="6.6099" ry="6.6099" stroke-width=".4"/>
   <rect id="rect1644" x="69.84" y="40.71" width="29.811" height="29.811" rx="6.6099" ry="6.6099" stroke-width=".5"/>
   <rect id="rect1646" x="69.84" y="40.71" width="29.811" height="29.811" rx="6.6099" ry="6.6099" stroke-width=".6"/>
   <rect id="rect1648" x="69.84" y="40.71" width="29.811" height="29.811" rx="6.6099" ry="6.6099" stroke-width=".7"/>
   <rect id="rect1650" x="69.84" y="40.71" width="29.811" height="29.811" rx="6.6099" ry="6.6099" stroke-width=".8"/>
   <rect id="rect1652" x="69.84" y="40.71" width="29.811" height="29.811" rx="6.6099" ry="6.6099"/>
   <rect id="rect1654" x="69.84" y="40.71" width="29.811" height="29.811" rx="6.6099" ry="6.6099" stroke-width="1.2"/>
   <rect id="rect1656" x="69.84" y="40.71" width="29.811" height="29.811" rx="6.6099" ry="6.6099" stroke-width="1.4"/>
   <rect id="rect1658" x="69.84" y="40.71" width="29.811" height="29.811" rx="6.6099" ry="6.6099" stroke-width="1.6"/>
   <rect id="rect1660" x="69.84" y="40.71" width="29.811" height="29.811" rx="6.6099" ry="6.6099" stroke-width="1.8"/>
   <rect id="rect1662" x="69.84" y="40.71" width="29.811" height="29.811" rx="6.6099" ry="6.6099" stroke-width="2"/>
   <rect id="rect1664" x="69.84" y="40.71" width="29.811" height="29.811" rx="6.6099" ry="6.6099" stroke-width="2.2"/>
   <rect id="rect1666" x="69.84" y="40.71" width="29.811" height="29.811" rx="6.6099" ry="6.6099" stroke-width="2.6"/>
   <rect id="rect1668" x="69.84" y="40.71" width="29.811" height="29.811" rx="6.6099" ry="6.6099" stroke-width="3"/>
   <rect id="rect1670" x="69.84" y="40.71" width="29.811" height="29.811" rx="6.6099" ry="6.6099" stroke-width="3.4"/>
   <rect id="rect1672" x="69.84" y="40.71" width="29.811" height="29.811" rx="6.6099" ry="6.6099" stroke-width="3.8"/>
   <rect id="rect1674" x="69.84" y="40.71" width="29.811" height="29.811" rx="6.6099" ry="6.6099" stroke-width="4.2"/>
   <rect id="rect1676" x="69.84" y="40.71" width="29.811" height="29.811" rx="6.6099" ry="6.6099" stroke-width="4.6"/>
   <rect id="rect1678" x="69.84" y="40.71" width="29.811" height="29.811" rx="6.6099" ry="6.6099" stroke-width="5"/>
  </g>
  <rect id="rect849" x="2.4074" y="2.5392" width="29.087" height="29.087" rx="6.4495" ry="6.4495" fill="url(#linearGradient1632)" stroke-linecap="round" stroke-linejoin="round" stroke-width="2.6877"/>
  <path id="path895" d="m15.748 27.778c-0.8064-0.21062 0.35464-1.3098 0.07049-1.9455-0.09443-0.88862 0.32944-2.3508-0.7586-2.7464-0.94339 0.10819-1.294 1.1144-1.8805 1.7657-0.41615 0.47858 0.49892-0.89632-0.25986-0.43696-0.62699 0.22416-0.88403 0.09089-0.11174-0.09527 0.57774 0.0069 0.92459-0.62126 0.3861-0.70669 0.52424-0.48674 2.5373-0.64229 1.5063-1.633-0.25105-0.53705-0.99958-1.2818-1.3329-0.46331-0.62948 0.07281-0.72933 1.8141-1.1068 1.2144-0.37269 0.72055-0.45311 1.586-1.2807 1.9568 0.08618-0.1098 1.0234-1.2753 0.70446-1.5989-0.43351 0.50244-0.72931 0.11347-1.1877 0.4139 0.58813-0.46282 1.8408-0.67057 1.7722-1.5325-0.61079-0.2527-1.3506 1.2611-1.5603 0.74625 0.05554-0.53062-1.4785 1.2066-0.95584 0.34715-0.99344 0.0615 0.96764-0.53402 0.86794-0.84377 0.64104-0.50313 2.0077-0.1916 2.2545-1.0098-0.89919-0.47765-2.0061-0.40895-2.7598 0.30308-0.23328 0.14374-1.0073 0.66609-0.48279 0.11052-1.4998 0.09877 1.6684-0.49656 0.11966-0.58178-0.05004 0.03951 1.7281-0.35108 0.67972-0.67558-0.78938-0.50619-2.2287-0.1614-2.7318-0.47074 0.44568-0.15728 1.8055 0.11732 0.79177-0.43141-0.74281-0.4618 0.74363 0.24642 0.9677 0.31338 0.387 0.22118 1.1688 0.33801 0.50272-0.20024-0.48039-0.67273 0.7943 0.79377 1.1935 0.7927 0.59301-0.04433 1.885 0.04436 2.1135-0.3746-0.72828-0.77532-1.8035-1.0974-2.7235-1.5891-1.0172-0.04762-2.0583 0.18474-3.0906 0.31362-0.10646-0.35954 1.3865-0.3071 1.855-0.43561 0.30305-0.45948-1.3442-0.68662-1.8642-0.74097-0.44728 0.11038-0.46682-0.38641-0.46191-0.36977 0.54762 0.15277 2.442 0.72171 1.2169-0.22515 0.13901-0.69542-2.1413-1.4822-0.60598-1.0121-0.21679-0.30687-0.61456-1.0436 0.013415-0.40238 0.59698 0.76299 1.0899 1.7227 1.9539 2.2069 0.33055 0.25272 1.5315 0.4962 0.68232-0.08962-0.69955-0.34591-0.67758-0.78792-1.2346-1.3183 0.90934 0.29697 1.265 1.3215 2.0218 1.852 0.74667 0.18998 1.4118 0.98089 2.0774 1.0544-0.29079-1.0165-1.4736-1.1559-2.1635-1.817-0.46052-0.23796-0.77398-0.40839-0.0838-0.25892 0.63304 0.2149 1.0025 0.77859 1.7611 1.0066-0.68372-0.72634-1.4839-1.5971-2.4494-1.8862-0.65845-0.04367-2.1059-0.64907-2.1656-0.86356 0.5856 0.17286 2.1133 1.0526 2.2494 0.40349-0.24319-0.5591-1.4224-0.76343-1.4309-1.0545 0.43276 0.27981 1.0703 0.26137 0.3395-0.1953-0.39954-0.22763-1.3696-1.0423-0.40067-0.48029 0.98155 0.63346-1.0501-1.4493-0.05838-0.50895 0.42232 0.36071 1.2049 1.5629 1.3699 1.3889-0.2122-0.44093-0.56281-1.5492-0.07818-0.52974 0.40369 1.0774 1.0411 2.0939 2.0424 2.7052-0.02401-0.71414-0.78447-1.5474-1.2807-2.1914-0.35893-0.4177-0.71784-1.2146-0.07732-0.39182 0.15117 0.52225 0.89586 1.0031 0.39606 0.18973-0.30084-0.72454-1.4675-1.3379-1.5551-1.8704 0.56018 0.62525 0.15893-0.3119 0.35186-0.10269 0.04523 0.54161 0.98492 1.4111 0.8411 0.85535 0.20576 0.36751 0.65234 0.82363 0.30981 0.07011-0.27456-0.53289-0.28656-0.98171 0.05393-0.2087 0.15094 1.1952 1.3361 1.7626 2.0617 2.5988 0.3002 0.37164 1.0455 0.84094 0.4868 0.07198-0.27796-0.76-1.5831-1.5341-1.7054-1.9101 0.3186 0.35051 1.2865 0.88758 0.56263 0.05752-0.76867-0.80348-1.5101-1.6634-2.5001-2.1981-0.48525-0.26564-0.72444-0.74998-0.06134-0.198 0.91485 0.63171-1.2936-1.5242-0.36349-0.82685 0.8336 0.7298 1.4557 1.6819 2.3788 2.3159 0.80149 0.4228-0.19603-1.0246-0.4761-1.2437-0.38517-0.56082-1.6318-1.2825-1.4502-1.6913 0.51813 0.3-0.83618-1.2893-0.05591-0.62268 0.38189 0.48183 0.32561 0.17462 0.15366-0.20331 0.58361 0.61648 0.93558 1.8064 1.5835 2.136-0.16534-0.47138-0.18961-1.0545-0.50703-1.4482-0.31768-0.2847-1.018-1.0817-0.19838-0.44283 0.70628 0.55395 0.78554 1.5765 1.124 2.3719 0.23412 0.63074 0.57097 1.9093 0.8887 2.131 0.16359-0.76461-0.34839-1.4749-0.25008-2.2185 0.16448 0.6786 0.60178 1.2099 1.0871 1.6946 0.28762 0.47517 0.90235 0.80641 0.34394 0.05891-0.90354-1.375-1.9781-2.6699-2.4874-4.2609-0.27249-0.32471-1.138-0.70786-0.20391-0.39234-0.13087-1.156 0.89507 1.7053 0.54492 0.20946-0.16135-0.4574-0.20692-0.95399 2.8e-5 -0.24066 0.3367 1.1708 0.70064 2.4261 1.534 3.3462-0.03545-0.84212-0.73776-1.3634-0.61527-1.9379-0.18085-0.58515-0.57313-1.2868-0.65862-1.7798 0.34054 0.57101 0.27271 0.10672 0.10884-0.22277 0.5874-0.089837 0.64822 1.318 1.0228 1.3556-0.02669-0.36766-0.7165-1.5438-0.41652-1.5071 0.52499 0.94695 0.68417 2.121 1.4716 2.91 0.28484 0.41204 0.88789 1.2316 0.49411 0.26864-0.41424-1.082-0.89236-2.1682-1.739-2.9865-0.59225-0.9092 1.0368 1.0608 0.44507-0.12594-0.52982-0.67639 0.21866-0.44294 0.19789 0.1713 0.091 0.48234 0.47676 0.88724 0.27276 0.082694 0.04768-0.11792 0.5393 2.292 0.47788 0.91454 0.11363-0.97305-0.75621-1.5268-0.85086-2.4116 0.31454 0.9742 0.4629-0.99183 0.48097 0.09475 0.01632 0.44739 0.14069 0.9809 0.35305 0.74641 0.14996 0.96996 0.09905 1.982 0.47929 2.9051-0.02112-0.4921-0.26947-1.9568 0.18965-0.88955 0.34235 1.1616 0.21663-1.0075-0.10833-1.3606 0.11657-0.6607-0.8633-1.3333-0.56738-1.6329 0.45009 0.26208 0.56161 1.1409 0.74573 1.3062 0.13902-0.44405-0.32664-1.9882 0.10463-0.82886 0.41929 1.0849 0.19282-0.14086 0.1058-0.60448 0.27441 0.26731 0.50264 1.9266 0.67188 1.6497 0.01269-0.48658-0.63079-2.0122 0.02576-1.0065 0.19876 0.9748 0.257 1.9759 0.36486 2.9576 0.28951-0.95253 0.20545-1.9833 0.04879-2.9063 0.13957 0.73224 0.21392 0.25998 0.31369-0.12144 0.0021 0.8713 0.18253 0.54763 0.35372 0.32419 0.08022 0.44669-0.8668 2.007 0.09887 1.179 0.45684-0.34976 0.02894-1.4872 0.33081-1.639 0.19413 0.88814 0.0048 1.6438-0.12731 2.5525 0.14514 0.57639-0.41021 1.7673-0.03486 1.5928-0.06869 0.90052-0.55414 1.7131-0.43963 2.6423 0.01047 1.3699-0.01595 2.7483 0.10802 4.1118 0.497-1.0176 0.42085-2.2643 0.71388-3.3676 0.56019-2.4535 0.11808-4.9771 0.26568-7.4595 0.17344 0.31935 0.15088 1.807 0.35746 0.62138 0.23471 0.74064-0.2768 1.9976-0.08256 2.936 0.43424-0.55775 0.55009-1.4334 0.60967-2.1628-0.07094-0.40736 0.47884-1.5124 0.2719-0.48837-0.17275 1.0117-0.28827 2.0511-0.66858 3.0083 0.29524-0.18988 0.85943-1.6719 0.53452-0.47878-0.21638 0.5678-0.69574 1.5021-0.03248 0.83039 0.52788-0.73107 0.98237-1.6586 0.66087-2.5723 0.13919-1.3035 0.17046 1.4104 0.40448 0.18801 0.27777-0.78707 0.27819 0.46637-0.02342 0.69138-0.35776 0.88801-0.87666 1.7244-1.1897 2.6231 0.0025 0.46518-0.13808 1.5515 0.44112 0.65828-0.05989 0.99717-1.1724 1.5614-1.2864 2.5029 0.27945-0.3936 0.72765-1.1022 0.39708-0.18346 0.57004-0.56921 0.88746-1.454 1.2537-2.2005 0.75521-1.4012 0.54688-3.0772 1.1784-4.5105-0.07707 0.458-0.32512 1.6301 0.15177 0.6075 0.13181 0.54021-0.7702 1.8416-0.48287 2.4192 0.31282-0.3971 1.2535-1.4327 0.52543-0.43551-0.49352 0.80809-1.1093 1.5342-1.4159 2.4439-0.22703 0.75334-1.1859 1.8335-0.92872 2.4014 0.97624-0.62898 0.99878-1.959 1.4283-2.9494 0.39702-0.60352-0.62728 1.9967 0.07836 0.61383 0.70253-1.3149 1.6576-2.6521 1.5037-4.22-0.01487-0.62468 0.18786 0.29662 0.35004-0.42307 0.01178 0.4779-0.26671 1.698 0.17804 0.66207 0.0993-0.58524 0.68152-0.95525 0.27067-0.14883-0.27437 0.34549-0.35808 1.0302 0.09223 0.3245 0.74557-1.0898 0.0021 0.3684-0.32965 0.71556-0.60077 0.64641-0.95463 1.5231-1.4665 2.2678-0.41496 0.80999-0.97536 1.8325-1.1697 2.5674 0.80132-0.5859 1.1811-1.5695 1.844-2.294 0.44337-0.48428 0.53345-1.306 0.9412-1.2944 0.40693-0.37961 0.78109-1.7174 0.96379-0.82702-0.62674 0.55535-1.3334 1.3431-1.5537 2.0678 0.69925-0.22232 1.0938-1.1858 1.4382-0.95709 0.48247-0.60663 1.0456-0.59982 1.5827-1.0459-0.34941 0.90298-1.2675 1.3248-1.6073 2.2872-0.34901 0.58953 0.61589-0.05416 0.02082 0.55112-0.21544 0.44308-0.44582 1.0636 0.21271 0.44761 0.44982-0.52695 1.5031-0.35616 1.8348-1.0822 0.10839-0.49166 0.62478-1.3233 0.30036-0.31875-0.17331 0.54512 0.15411 0.51455-0.31961 1.0273-0.74932 1.2229 1.3961-1.2827 0.47772-0.01595-0.77774 0.81254 0.7923-0.40461 0.46606 0.24839-0.9533 0.20826-1.427 1.1488-2.1802 1.7184-0.96079 0.77947 0.72975 0.26529 0.90814 0.24063 0.52898 0.08539 1.5302-0.63199 1.4815-0.13672-0.31942 0.16307-2.0143 0.32007-0.80493 0.41526 0.63574 0.0058 0.27314 0.54766-0.21513 0.16078-0.88776-0.28638-1.7166 0.13471-2.5669 0.23657-0.59833 0.21598-1.0651 1.1894 4e-3 0.9558 0.60312 0.1497 1.6018 0.07223 1.9438-0.18561-0.71579 0.59139 1.0782 0.12815 1.4054 0.28965 1.012 0.14934-0.52348 0.08549-0.87621 0.14343-0.39775 0.40995-2.1996 0.85758-0.85718 0.2503 0.89513-0.35661-0.85593-0.17302-1.1602-0.26118-0.48063-0.35241-2.0104 0.20493-1.1544 0.65618 0.37913 0.30544 1.5852 0.07642 1.5749 0.10349-0.02077 0.79293 1.4831-0.35818 1.6807-0.13018-0.6648 0.2325-0.62128 0.56188 0.08871 0.53552 0.77522-0.2169 0.91154 0.72345 0.1364 0.21585-1.1277-0.15368-2.2806-0.16388-3.3983-0.42612-0.73835-0.15435-1.9942 1.6123-0.52787 1.3436 0.70596 0.20978 1.8429-0.0953 2.3081 0.12548-0.51177-0.01933-1.6685 0.12196-0.49346 0.30041 0.31784 0.11658 1.5628 0.14492 0.60847 0.33245 0.22638 0.35898 1.9313 0.77373 0.76537 0.58353-0.82661-0.4333-1.5005-0.5637-2.2439-0.90838-0.63036-0.20352-2.1714-0.50136-2.3068 0.25396 0.41352 0.988 1.2296 1.658 2.3374 1.2424 0.53669-0.04495 0.02879 0.13172 0.24592 0.49611-0.4621-0.40312-1.8505-0.20627-0.78817 0.35481 0.44208 0.13139 1.4077 1.0589 0.48825 0.39853-0.77387-0.57686-0.42708 0.14954-0.23189 0.57454-0.58897-0.3422-1.0041-1.4824-1.5448-1.665-0.14581 0.62248 0.83642 1.6776 0.66595 1.7859-1.0447-0.55302-0.77638-1.6611-1.1209-2.5997-0.52325-0.96626-2.2441 0.81022-1.2567 1.2967 0.1348 0.40119 1.7658 1.4198 0.63844 0.88735-0.44866-0.43812-0.95404-0.38241-0.50048 0.28744 0.25896 0.39 0.50096 1.2718 0.0211 0.3932-0.28556-0.48878-0.75828-2.4201-1.2373-1.0537-0.35591 1.17-0.83573 2.5967-0.09664 3.7156-0.60305 0.48993-1.6758 0.20888-2.4645 0.17574zm2.0236-4.6632c0.60493-0.53979-0.42615-1.0499-0.26726-0.16789-0.0051 0.23268 0.02166 0.65954 0.26726 0.16789zm-2.2242-1.3231c0.25312-0.70855-1.2002-0.91925-0.43907-0.15284 0.12519 0.14836 0.57486 0.76333 0.43907 0.15284zm2.6442 0.14387c-0.12452-0.37386-0.14249 0.37801-1.18e-4 -7e-6zm1.1331-0.52154c0.47822-0.44276 1.6866-1.2375 1.5897-1.6353-0.89798 0.15264-1.7141 0.83373-1.8399 1.7547 0.08013 0.09575 0.18387-0.16854 0.25022-0.11943zm-1.457-0.15309c0.84124-0.36757 1.094-1.2532 1.0112-2.0995-0.42726 0.16772-1.1271 1.3328-1.2387 2.0582-0.08082 0.21793 0.15875 0.12153 0.22749 0.04135zm-4.308-0.35762c0.67847-0.15536-0.45682-0.5682-0.74358-0.36091-1.2718 0.03508 0.48087 0.48807 0.74358 0.36091zm1.6486-0.09901c0.17141-0.66346-0.93076-1.4753-1.5496-1.7991-0.35942 0.38676 0.53601 1.4292 0.91487 1.7953 0.21028 0.02149 0.42466 0.03441 0.63473 0.0038zm0.74337-0.46518c-0.20009-1.4925-1.2355-2.7348-2.4501-3.5605-0.66998-0.45953-1.2602-1.349-1.9543-1.5833 0.41272 1.0891 0.8587 2.2355 1.6641 3.0977 0.68338 0.15877-0.49864-0.90558-0.61172-1.296-0.29029-0.77948 0.76018 0.66383 0.90472 0.92793 0.67617 0.94559 1.6036 1.6831 2.2822 2.6311 0.16386 0.26407 0.20554-0.16479 0.16515-0.21697zm3.548-0.26024c0.68284-0.64425 1.9395-0.73378 2.3305-1.5347-0.26222-0.48056-1.3637 0.03064-1.7081 0.37695-0.07572 0.21556-1.5458 1.5602-0.62234 1.1577zm-1.2815-1.2841c0.4508-0.56283 1.1461-1.3262 0.96659-2.0495-0.6072 0.5488-1.0925 1.3539-1.1092 2.1679l0.14267-0.11838zm-2.1965-0.34301c0.02758-1.0385-0.40355-2.2341-1.5769-2.4065-0.9035-0.2637 0.36222 0.99725 0.4941 1.3432 0.33008 0.37955 0.84835 1.393 1.1071 1.3463l-0.0093-0.12912-0.01505-0.15386zm5.9066-0.34854c0.09926-0.50187 0.82708-1.7864 0.34214-1.9221-0.48076 0.47644-1.0866 1.2615-1.1346 1.8454 0.23975 0.0409 0.56565 0.24926 0.79248 0.07673zm-1.5153-0.25301c0.68177 0.13781 1.2914-1.3984 0.8389-1.5688-0.52933 0.35438-1.1951 1.1315-1.256 1.5923 0.13806-0.02104 0.27788-0.02201 0.4171-0.02354zm-0.61758-0.69304c0.83222-0.61202 1.6644-1.2927 2.0937-2.2593 0.28353-0.39481 1.1334-1.9866 0.11877-1.0582-0.87021 0.55062-1.175 1.6522-1.907 2.3461-0.07602 0.10757-0.91919 1.2944-0.30548 0.97144zm3.3899-0.45762c0.2489-0.37111 0.49183-0.41957 0.22593 0.09461 0.79632-0.3876 1.8935-1.6598 1.6545-2.3675-0.92406 0.30738-1.9561 0.71668-2.2888 1.7197-0.26589 0.47454-0.31612 1.4842 0.30575 0.66608l0.10265-0.11291zm-6.9825-0.54212c0.28056-1.092-0.61369-2.0143-0.98663-2.9728-0.1668-0.73876-2.0892-1.6431-1.2065-0.32325 0.69125 1.2428 1.3823 2.4858 2.0162 3.7593 0.14708 0.08625 0.1226-0.39192 0.17694-0.46319zm-1.1425-0.40245c-0.528-0.68109-1.2074-1.6526-1.8621-2.0014-0.2335 1.1216 0.50087 2.2264 1.7276 2.0256l0.10601-0.0012 0.02851-0.02299zm1.809-0.16301c0.15654-1.4769-0.20397-2.9533-0.92467-4.2424-0.14805-0.39923-0.37635-1.0417-0.43814-0.23623-0.09923 0.59978-0.1561 1.225 0.14477 1.7751 0.15835 0.41911 0.53443 1.6659 0.52988 0.50069 0.54959 0.05902 0.30314 2.1268 0.68817 2.2028zm5.6716-1.1217c0.28319-0.31839 0.49787-1.1402 0.04535-0.33975-0.20582 0.28916-0.60892 1.2688-0.12372 0.4659l0.07839-0.12615zm1.5094-1.9978c-0.11377-0.29159-1.1778 1.0244-0.25935 0.22855l0.11416-0.09277 0.14517-0.13578zm-7.0189-0.16434c0.057-0.66969 0.18586-1.9871-0.06329-2.2834-0.0048 0.86477-0.37844 1.9993-0.03492 2.7035 0.04724-0.13632 0.0714-0.27886 0.09821-0.42003zm-2.544-0.2877c-0.53928-0.71019-1.0111-1.4719-1.5636-2.1706-0.0038 0.96905 0.75474 1.0863 1.0839 1.9061 0.09183 0.11877 0.32994 0.33741 0.4797 0.26448zm1.7637-1.3592c0.10313-0.61804-0.23442-2.2789-0.70081-2.1627 0.04043 0.90157 0.32809 1.7035 0.65776 2.5923 0.04097-0.13955 0.03378-0.28629 0.04304-0.42958zm1.1951-0.88056c0.07758-1.0929-0.37938 0.60722-0.05416 0.23565l0.02572-0.10387 0.02841-0.13177zm-6.0519 14.91c0.3042-0.45003 0.15911 0.13078 0 0zm9.553-0.56569c0.1643-0.22968 0.10386 0.2115 0 0zm2.9411-2.1023c-0.48538-0.38974 0.3591-0.02741 0 0zm2.0737-0.33583c-1.3867-0.49719 1.5908 0.36417 0.22691 0.0644l-0.11069-0.03111-0.11624-0.0333zm0.76296-1.8911c0.05784-0.29909 0.28249 0.1339 0 0zm-19.39-0.2905c0.00631-0.26597 0.29408 0.18105 0 0zm18.79-0.36916c-0.67678-0.1245 1.4376-0.40077 0.3471-0.02614-0.08026 0.15919-0.23675-0.0045-0.3471 0.02614zm-18.854-0.9122c-0.66133-0.33466 0.83717 0.11627 0 0zm18.466-0.02511c0.35573-0.33788 1.1255 0.16807 0.24407 0.02834l-0.11908-0.0067-0.12498-0.02154zm0.87482-0.84567c0.13812-0.04066 0.0429-0.02299 0 0zm-17.508-0.38186c-0.27998-0.36778 0.55068 0.34695 0 0zm-1.4043-0.15163c-0.94707-0.37601 0.091619-0.21667 0.35359 0.07003-0.12177 0.01522-0.23966-0.0382-0.35359-0.07003zm-0.79291-0.46188c-0.037923-0.20795 0.26928 0.18141 0 0zm1.4431-1.8336c-0.33977-0.28591 0.3735 0.0611 0 0zm15.836-0.52183c0.21762-0.47149 0.14174-0.77093 0.42646-0.47019 0.34251-0.09682-0.91032 1.4394-0.42633 0.47018zm-1.6398-2.1384c0.08026-0.60745 0.4129-0.76868 0.08686-0.07242 0.07229-0.05423-0.10278 0.17346-0.08686 0.07242zm-11.26-1.9261c-0.25892-0.79991 0.278 0.30859 0 0zm11.757-0.44144c0.07007-0.28588 0.16035 0.079-3e-6 -1e-5zm-9.7352-1.4467c-0.29395-0.49126 0.3276 0.3474 0 0z" fill="#1e0078" fill-opacity=".33763" stroke-width=".4797"/>
  <path id="path10" d="m15.424 27.103c-0.8064-0.21062 0.35464-1.3098 0.07049-1.9455-0.09443-0.88862 0.32944-2.3508-0.7586-2.7464-0.94339 0.10819-1.294 1.1144-1.8805 1.7657-0.41615 0.47858 0.49892-0.89632-0.25986-0.43696-0.62699 0.22416-0.88403 0.09089-0.11174-0.09527 0.57774 0.0069 0.92459-0.62126 0.3861-0.70669 0.52424-0.48674 2.5373-0.64229 1.5063-1.633-0.25105-0.53705-0.99958-1.2818-1.3329-0.46331-0.62948 0.07281-0.72933 1.8141-1.1068 1.2144-0.37269 0.72055-0.45311 1.586-1.2807 1.9568 0.08618-0.1098 1.0234-1.2753 0.70446-1.5989-0.43351 0.50244-0.72931 0.11347-1.1877 0.4139 0.58813-0.46282 1.8408-0.67057 1.7722-1.5325-0.61079-0.2527-1.3506 1.2611-1.5603 0.74625 0.05554-0.53062-1.4785 1.2066-0.95584 0.34715-0.99344 0.0615 0.96764-0.53402 0.86794-0.84377 0.64104-0.50313 2.0077-0.1916 2.2545-1.0098-0.89919-0.47765-2.0061-0.40895-2.7598 0.30308-0.23328 0.14374-1.0073 0.66609-0.48279 0.11052-1.4998 0.09877 1.6684-0.49656 0.11966-0.58178-0.05004 0.03951 1.7281-0.35108 0.67972-0.67558-0.78939-0.50619-2.2287-0.1614-2.7318-0.47074 0.44568-0.15728 1.8055 0.11732 0.79177-0.43141-0.74281-0.4618 0.74362 0.24642 0.9677 0.31338 0.387 0.22118 1.1688 0.33801 0.50272-0.20024-0.48039-0.67273 0.7943 0.79377 1.1935 0.7927 0.59301-0.04433 1.885 0.04436 2.1135-0.3746-0.72828-0.77532-1.8035-1.0974-2.7235-1.5891-1.0172-0.047624-2.0583 0.18474-3.0906 0.31362-0.10646-0.35954 1.3865-0.3071 1.855-0.43561 0.30305-0.45948-1.3442-0.68662-1.8642-0.74097-0.44728 0.11038-0.46682-0.38641-0.46191-0.36977 0.54762 0.15277 2.442 0.72171 1.2169-0.22515 0.13901-0.69542-2.1413-1.4822-0.60598-1.0121-0.21679-0.30687-0.61456-1.0436 0.013415-0.40238 0.59698 0.76299 1.0899 1.7227 1.9539 2.2069 0.33055 0.25272 1.5315 0.4962 0.68232-0.08962-0.69955-0.34591-0.67758-0.78792-1.2346-1.3183 0.90934 0.29697 1.265 1.3215 2.0218 1.852 0.74667 0.18998 1.4118 0.98089 2.0774 1.0544-0.29079-1.0165-1.4736-1.1559-2.1635-1.817-0.46052-0.23796-0.77399-0.40839-0.0838-0.25892 0.63304 0.2149 1.0025 0.77859 1.7611 1.0066-0.68372-0.72634-1.4839-1.5971-2.4494-1.8862-0.65845-0.043673-2.1059-0.64907-2.1656-0.86356 0.5856 0.17286 2.1133 1.0526 2.2494 0.40349-0.24319-0.5591-1.4224-0.76343-1.4309-1.0545 0.43276 0.27981 1.0703 0.26137 0.3395-0.1953-0.39954-0.22763-1.3696-1.0423-0.40067-0.48029 0.98155 0.63346-1.0501-1.4493-0.058385-0.50895 0.42232 0.36071 1.2049 1.5629 1.3699 1.3889-0.2122-0.44093-0.56281-1.5492-0.07818-0.52974 0.40369 1.0774 1.0411 2.0939 2.0424 2.7052-0.02401-0.71414-0.78447-1.5474-1.2807-2.1914-0.35893-0.4177-0.71784-1.2146-0.07732-0.39182 0.15117 0.52225 0.89586 1.0031 0.39606 0.18973-0.30084-0.72454-1.4675-1.3379-1.5551-1.8704 0.56018 0.62525 0.15893-0.3119 0.35186-0.10269 0.04523 0.54161 0.98492 1.4111 0.8411 0.85535 0.20576 0.36751 0.65234 0.82363 0.30981 0.07011-0.27456-0.53289-0.28656-0.98171 0.05393-0.2087 0.15094 1.1952 1.3361 1.7626 2.0617 2.5988 0.3002 0.37164 1.0455 0.84094 0.4868 0.07198-0.27796-0.76-1.5831-1.5341-1.7054-1.9101 0.3186 0.35051 1.2865 0.88758 0.56263 0.05752-0.76867-0.80348-1.5101-1.6634-2.5001-2.1981-0.48525-0.26564-0.72444-0.74998-0.06134-0.198 0.91485 0.63171-1.2936-1.5242-0.36349-0.82685 0.8336 0.7298 1.4557 1.6819 2.3788 2.3159 0.80149 0.4228-0.19603-1.0246-0.4761-1.2437-0.38517-0.56082-1.6318-1.2825-1.4502-1.6913 0.51813 0.3-0.83618-1.2893-0.05591-0.62268 0.38189 0.48182 0.32561 0.17462 0.15366-0.20331 0.58361 0.61648 0.93558 1.8064 1.5835 2.136-0.16533-0.47138-0.1896-1.0545-0.50703-1.4482-0.31768-0.2847-1.018-1.0817-0.19838-0.44282 0.70628 0.55395 0.78554 1.5765 1.124 2.3719 0.23412 0.63074 0.57097 1.9093 0.8887 2.131 0.16359-0.76461-0.34839-1.4749-0.25008-2.2185 0.16448 0.6786 0.60178 1.2099 1.0871 1.6946 0.28762 0.47517 0.90235 0.80641 0.34394 0.05891-0.90354-1.375-1.9781-2.6699-2.4874-4.2609-0.27249-0.32471-1.138-0.70786-0.20391-0.39234-0.13087-1.156 0.89507 1.7053 0.54492 0.20946-0.16135-0.4574-0.20692-0.95399 2.8e-5 -0.24066 0.3367 1.1708 0.70064 2.4261 1.534 3.3462-0.03545-0.84212-0.73776-1.3634-0.61527-1.9379-0.18085-0.58515-0.57313-1.2868-0.65862-1.7798 0.34054 0.57101 0.27271 0.10672 0.10884-0.22277 0.5874-0.089837 0.64822 1.318 1.0228 1.3556-0.02669-0.36766-0.7165-1.5438-0.41652-1.5071 0.52499 0.94695 0.68417 2.121 1.4716 2.91 0.28484 0.41204 0.88789 1.2316 0.49411 0.26864-0.41424-1.082-0.89236-2.1682-1.739-2.9865-0.59225-0.9092 1.0368 1.0608 0.44507-0.12594-0.52982-0.67639 0.21866-0.44294 0.19789 0.1713 0.091 0.48234 0.47676 0.88724 0.27276 0.082694 0.04768-0.11792 0.5393 2.292 0.47788 0.91454 0.11363-0.97305-0.75621-1.5268-0.85086-2.4116 0.31454 0.9742 0.4629-0.99183 0.48097 0.09475 0.01632 0.44739 0.14069 0.9809 0.35305 0.74641 0.14996 0.96996 0.09905 1.982 0.47929 2.9051-0.02112-0.4921-0.26947-1.9568 0.18965-0.88955 0.34235 1.1616 0.21663-1.0075-0.10833-1.3606 0.11657-0.6607-0.8633-1.3333-0.56738-1.6329 0.45009 0.26208 0.56161 1.1409 0.74573 1.3062 0.13902-0.44405-0.32664-1.9882 0.10463-0.82886 0.41929 1.0849 0.19282-0.14086 0.1058-0.60448 0.27441 0.26731 0.50264 1.9266 0.67188 1.6497 0.01269-0.48658-0.63079-2.0122 0.02576-1.0065 0.19876 0.9748 0.257 1.9759 0.36486 2.9576 0.28951-0.95252 0.20545-1.9833 0.04879-2.9063 0.13957 0.73224 0.21392 0.25998 0.31369-0.12144 0.0021 0.8713 0.18253 0.54763 0.35372 0.32419 0.08022 0.44669-0.8668 2.007 0.09887 1.179 0.45684-0.34976 0.02894-1.4872 0.33081-1.639 0.19413 0.88814 0.0048 1.6438-0.12731 2.5525 0.14514 0.57639-0.41021 1.7673-0.03486 1.5928-0.06869 0.90052-0.55414 1.7131-0.43963 2.6423 0.01047 1.3699-0.01595 2.7483 0.10802 4.1118 0.497-1.0176 0.42085-2.2643 0.71388-3.3676 0.56019-2.4535 0.11808-4.9771 0.26568-7.4595 0.17344 0.31935 0.15088 1.807 0.35746 0.62138 0.23471 0.74064-0.2768 1.9976-0.08256 2.936 0.43424-0.55775 0.55009-1.4334 0.60967-2.1628-0.07094-0.40736 0.47884-1.5124 0.2719-0.48837-0.17275 1.0117-0.28827 2.0511-0.66858 3.0083 0.29524-0.18988 0.85943-1.6719 0.53452-0.47878-0.21638 0.5678-0.69574 1.5021-0.03248 0.83039 0.52788-0.73107 0.98237-1.6586 0.66087-2.5723 0.13919-1.3035 0.17046 1.4104 0.40448 0.18801 0.27777-0.78707 0.27819 0.46637-0.02342 0.69138-0.35776 0.88801-0.87666 1.7244-1.1897 2.6231 0.0025 0.46518-0.13808 1.5515 0.44112 0.65828-0.05989 0.99717-1.1724 1.5614-1.2864 2.5029 0.27945-0.3936 0.72765-1.1022 0.39708-0.18346 0.57004-0.56921 0.88746-1.454 1.2537-2.2005 0.75521-1.4012 0.54688-3.0772 1.1784-4.5105-0.07707 0.458-0.32512 1.6301 0.15177 0.6075 0.13181 0.54021-0.7702 1.8416-0.48287 2.4192 0.31282-0.3971 1.2535-1.4327 0.52543-0.43551-0.49352 0.80809-1.1093 1.5342-1.4159 2.4439-0.22703 0.75334-1.1859 1.8335-0.92872 2.4014 0.97624-0.62898 0.99878-1.959 1.4283-2.9494 0.39702-0.60352-0.62728 1.9967 0.07836 0.61383 0.70253-1.3149 1.6576-2.6521 1.5037-4.22-0.01487-0.62468 0.18786 0.29662 0.35004-0.42307 0.01178 0.4779-0.26671 1.698 0.17804 0.66207 0.0993-0.58524 0.68152-0.95525 0.27067-0.14883-0.27437 0.34549-0.35808 1.0302 0.09223 0.3245 0.74557-1.0898 0.0021 0.3684-0.32965 0.71556-0.60077 0.64641-0.95463 1.5231-1.4665 2.2678-0.41496 0.80999-0.97536 1.8325-1.1697 2.5674 0.80132-0.5859 1.1811-1.5695 1.844-2.294 0.44337-0.48428 0.53345-1.306 0.9412-1.2944 0.40693-0.37961 0.78109-1.7174 0.96379-0.82702-0.62674 0.55535-1.3334 1.3431-1.5537 2.0678 0.69925-0.22232 1.0938-1.1858 1.4382-0.95709 0.48247-0.60663 1.0456-0.59982 1.5827-1.0459-0.34941 0.90298-1.2675 1.3248-1.6073 2.2872-0.34901 0.58953 0.61589-0.05416 0.02082 0.55112-0.21544 0.44308-0.44582 1.0636 0.21271 0.44761 0.44982-0.52695 1.5031-0.35616 1.8348-1.0822 0.10839-0.49166 0.62478-1.3233 0.30036-0.31875-0.17331 0.54512 0.15411 0.51455-0.31961 1.0273-0.74932 1.2229 1.3961-1.2827 0.47772-0.01595-0.77774 0.81254 0.7923-0.40461 0.46606 0.24839-0.9533 0.20826-1.427 1.1488-2.1802 1.7184-0.96079 0.77947 0.72975 0.26529 0.90814 0.24063 0.52898 0.08539 1.5302-0.63199 1.4815-0.13672-0.31942 0.16307-2.0143 0.32007-0.80493 0.41526 0.63574 0.0058 0.27314 0.54766-0.21513 0.16078-0.88776-0.28638-1.7166 0.13471-2.5669 0.23657-0.59833 0.21598-1.0651 1.1894 4e-3 0.9558 0.60312 0.1497 1.6018 0.07223 1.9438-0.18561-0.71579 0.59139 1.0782 0.12815 1.4054 0.28965 1.012 0.14934-0.52348 0.08549-0.87621 0.14343-0.39775 0.40995-2.1996 0.85758-0.85718 0.2503 0.89513-0.35661-0.85593-0.17302-1.1602-0.26118-0.48063-0.35241-2.0104 0.20493-1.1544 0.65618 0.37913 0.30544 1.5852 0.07642 1.5749 0.10349-0.02077 0.79293 1.4831-0.35818 1.6807-0.13018-0.6648 0.2325-0.62128 0.56188 0.08871 0.53552 0.77522-0.2169 0.91154 0.72345 0.1364 0.21585-1.1277-0.15368-2.2806-0.16388-3.3983-0.42612-0.73835-0.15435-1.9942 1.6123-0.52787 1.3436 0.70596 0.20978 1.8429-0.0953 2.3081 0.12548-0.51177-0.01933-1.6685 0.12196-0.49346 0.30041 0.31784 0.11658 1.5628 0.14492 0.60847 0.33245 0.22638 0.35898 1.9313 0.77373 0.76537 0.58353-0.82661-0.4333-1.5005-0.5637-2.2439-0.90838-0.63036-0.20352-2.1714-0.50136-2.3068 0.25396 0.41352 0.988 1.2296 1.658 2.3374 1.2424 0.53669-0.04495 0.02879 0.13172 0.24592 0.49611-0.4621-0.40312-1.8505-0.20627-0.78817 0.35481 0.44208 0.13139 1.4077 1.0589 0.48825 0.39853-0.77387-0.57686-0.42708 0.14954-0.23189 0.57454-0.58897-0.3422-1.0041-1.4824-1.5448-1.665-0.14581 0.62248 0.83642 1.6776 0.66595 1.7859-1.0447-0.55302-0.77638-1.6611-1.1209-2.5997-0.52325-0.96626-2.2441 0.81022-1.2567 1.2967 0.1348 0.40119 1.7658 1.4198 0.63844 0.88735-0.44866-0.43812-0.95404-0.38241-0.50048 0.28744 0.25896 0.39 0.50096 1.2718 0.0211 0.3932-0.28556-0.48878-0.75828-2.4201-1.2373-1.0537-0.35591 1.17-0.83573 2.5967-0.09664 3.7156-0.60305 0.48993-1.6758 0.20888-2.4645 0.17574zm2.0236-4.6632c0.60493-0.53979-0.42615-1.0499-0.26726-0.16789-0.0051 0.23268 0.02166 0.65954 0.26726 0.16789zm-2.2242-1.3231c0.25312-0.70855-1.2002-0.91925-0.43907-0.15284 0.12519 0.14836 0.57486 0.76333 0.43907 0.15284zm2.6442 0.14387c-0.12452-0.37386-0.14249 0.37801-1.18e-4 -7e-6zm1.1331-0.52154c0.47822-0.44276 1.6866-1.2375 1.5897-1.6353-0.89798 0.15264-1.7141 0.83373-1.8399 1.7547 0.08013 0.09575 0.18387-0.16854 0.25022-0.11943zm-1.457-0.15309c0.84124-0.36757 1.094-1.2532 1.0112-2.0995-0.42726 0.16772-1.1271 1.3328-1.2387 2.0582-0.08082 0.21793 0.15875 0.12153 0.22749 0.04135zm-4.308-0.35762c0.67847-0.15536-0.45682-0.5682-0.74358-0.36091-1.2718 0.03508 0.48087 0.48807 0.74358 0.36091zm1.6486-0.09901c0.17141-0.66346-0.93076-1.4753-1.5496-1.7991-0.35942 0.38676 0.53601 1.4292 0.91487 1.7953 0.21028 0.02149 0.42466 0.03441 0.63473 0.0038zm0.74337-0.46518c-0.20009-1.4925-1.2355-2.7348-2.4501-3.5605-0.66998-0.45953-1.2602-1.349-1.9543-1.5833 0.41272 1.0891 0.8587 2.2355 1.6641 3.0977 0.68338 0.15877-0.49864-0.90558-0.61172-1.296-0.29029-0.77948 0.76018 0.66383 0.90472 0.92793 0.67617 0.94559 1.6036 1.6831 2.2822 2.6311 0.16386 0.26407 0.20554-0.16479 0.16515-0.21697zm3.548-0.26024c0.68284-0.64425 1.9395-0.73378 2.3305-1.5347-0.26222-0.48056-1.3637 0.03064-1.7081 0.37695-0.07572 0.21556-1.5458 1.5602-0.62234 1.1577zm-1.2815-1.2841c0.4508-0.56283 1.1461-1.3262 0.96659-2.0495-0.6072 0.5488-1.0925 1.3539-1.1092 2.1679l0.14267-0.11838zm-2.1965-0.34301c0.02758-1.0385-0.40355-2.2341-1.5769-2.4065-0.9035-0.2637 0.36222 0.99725 0.4941 1.3432 0.33008 0.37955 0.84835 1.393 1.1071 1.3463l-0.0093-0.12912-0.01505-0.15386zm5.9066-0.34854c0.09926-0.50187 0.82708-1.7864 0.34214-1.9221-0.48076 0.47644-1.0866 1.2615-1.1346 1.8454 0.23975 0.0409 0.56565 0.24926 0.79248 0.07673zm-1.5153-0.25301c0.68177 0.13781 1.2914-1.3984 0.8389-1.5688-0.52933 0.35438-1.1951 1.1315-1.256 1.5923 0.13806-0.02104 0.27788-0.02201 0.4171-0.02354zm-0.61758-0.69304c0.83222-0.61202 1.6644-1.2927 2.0937-2.2593 0.28353-0.39481 1.1334-1.9866 0.11877-1.0582-0.87021 0.55062-1.175 1.6522-1.907 2.3461-0.07602 0.10757-0.91919 1.2944-0.30548 0.97144zm3.3899-0.45762c0.2489-0.37111 0.49183-0.41957 0.22593 0.09461 0.79632-0.3876 1.8935-1.6598 1.6545-2.3675-0.92406 0.30738-1.9561 0.71668-2.2888 1.7197-0.26589 0.47454-0.31612 1.4842 0.30575 0.66608l0.10265-0.11291zm-6.9825-0.54212c0.28056-1.092-0.61369-2.0143-0.98663-2.9728-0.1668-0.73876-2.0892-1.6431-1.2065-0.32325 0.69125 1.2428 1.3823 2.4858 2.0162 3.7593 0.14708 0.08625 0.1226-0.39192 0.17694-0.46319zm-1.1425-0.40245c-0.528-0.68109-1.2074-1.6526-1.8621-2.0014-0.2335 1.1216 0.50087 2.2264 1.7276 2.0256l0.10601-0.0012 0.02851-0.02299zm1.809-0.16301c0.15654-1.4769-0.20397-2.9533-0.92467-4.2424-0.14805-0.39923-0.37635-1.0417-0.43814-0.23623-0.09923 0.59978-0.1561 1.225 0.14477 1.7751 0.15835 0.41911 0.53443 1.6659 0.52988 0.50069 0.54959 0.05902 0.30314 2.1268 0.68817 2.2028zm5.6716-1.1217c0.28319-0.31839 0.49787-1.1402 0.04535-0.33975-0.20582 0.28916-0.60892 1.2688-0.12372 0.4659l0.07839-0.12615zm1.5094-1.9978c-0.11377-0.29159-1.1778 1.0244-0.25935 0.22855l0.11416-0.09277 0.14517-0.13578zm-7.0189-0.16434c0.057-0.66969 0.18586-1.9871-0.06329-2.2834-0.0048 0.86477-0.37844 1.9993-0.03492 2.7035 0.04724-0.13632 0.0714-0.27886 0.09821-0.42003zm-2.544-0.2877c-0.53928-0.71019-1.0111-1.4719-1.5636-2.1706-0.0038 0.96905 0.75474 1.0863 1.0839 1.9061 0.09183 0.11877 0.32994 0.33741 0.4797 0.26448zm1.7637-1.3592c0.10313-0.61804-0.23442-2.2789-0.70081-2.1627 0.04043 0.90157 0.32809 1.7035 0.65776 2.5923 0.04097-0.13955 0.03378-0.28629 0.04304-0.42958zm1.1951-0.88056c0.07758-1.0929-0.37938 0.60722-0.05416 0.23565l0.02572-0.10387 0.02841-0.13177zm-6.0519 14.91c0.3042-0.45003 0.15911 0.13078 0 0zm9.553-0.56569c0.1643-0.22968 0.10386 0.2115 0 0zm2.9411-2.1023c-0.48538-0.38974 0.3591-0.02741 0 0zm2.0737-0.33583c-1.3867-0.49719 1.5908 0.36417 0.22691 0.0644l-0.11069-0.03111-0.11624-0.0333zm0.76296-1.8911c0.05784-0.29909 0.28249 0.1339 0 0zm-19.39-0.2905c0.00631-0.26597 0.29408 0.18105 0 0zm18.79-0.36916c-0.67678-0.1245 1.4376-0.40077 0.3471-0.02614-0.08026 0.15919-0.23675-0.0045-0.3471 0.02614zm-18.854-0.9122c-0.66133-0.33466 0.83717 0.11627 0 0zm18.466-0.02511c0.35573-0.33788 1.1255 0.16807 0.24407 0.02834l-0.11908-0.0067-0.12498-0.02154zm0.87482-0.84567c0.13812-0.04066 0.0429-0.02299 0 0zm-17.508-0.38186c-0.27998-0.36778 0.55068 0.34695 0 0zm-1.4043-0.15163c-0.94707-0.37601 0.091619-0.21667 0.35359 0.07003-0.12177 0.01522-0.23966-0.0382-0.35359-0.07003zm-0.79291-0.46188c-0.037923-0.20795 0.26928 0.18141 0 0zm1.4431-1.8336c-0.33977-0.28591 0.3735 0.0611 0 0zm15.836-0.52183c0.21762-0.47149 0.14174-0.77093 0.42646-0.47019 0.34251-0.09682-0.91032 1.4394-0.42633 0.47018zm-1.6398-2.1384c0.08026-0.60745 0.4129-0.76868 0.08686-0.07242 0.07229-0.05423-0.10278 0.17346-0.08686 0.07242zm-11.26-1.9261c-0.25892-0.79991 0.278 0.30858 0 0zm11.757-0.44144c0.07007-0.28588 0.16035 0.079-3e-6 -1e-5zm-9.7352-1.4467c-0.29395-0.49126 0.3276 0.3474 0 0z" fill="#fff" stroke-width=".4797"/>
 </g>
</svg>
