<?xml version="1.0" encoding="UTF-8" standalone="no"?>
<svg
   width="512"
   height="512"
   version="1.1"
   viewBox="0 0 64 64"
   id="svg15"
   sodipodi:docname="org.gnome.ActivityJournal.svg"
   inkscape:version="1.4.4 (dcaf3e7d9e, 2026-05-05)"
   xmlns:inkscape="http://www.inkscape.org/namespaces/inkscape"
   xmlns:sodipodi="http://sodipodi.sourceforge.net/DTD/sodipodi-0.dtd"
   xmlns:xlink="http://www.w3.org/1999/xlink"
   xmlns="http://www.w3.org/2000/svg"
   xmlns:svg="http://www.w3.org/2000/svg">
  <sodipodi:namedview
     id="namedview15"
     pagecolor="#ffffff"
     bordercolor="#111111"
     borderopacity="1"
     inkscape:showpageshadow="0"
     inkscape:pageopacity="0"
     inkscape:pagecheckerboard="1"
     inkscape:deskcolor="#d1d1d1"
     inkscape:zoom="2"
     inkscape:cx="268.25"
     inkscape:cy="291.5"
     inkscape:window-width="2560"
     inkscape:window-height="1371"
     inkscape:window-x="0"
     inkscape:window-y="0"
     inkscape:window-maximized="1"
     inkscape:current-layer="svg15"
     showguides="false" />
  <defs
     id="defs9">
    <linearGradient
       id="linearGradient902"
       x1="136"
       x2="189"
       y1="30.5"
       y2="30.5"
       gradientTransform="matrix(1 0 0 1 -130.5 .4991)"
       gradientUnits="userSpaceOnUse">
      <stop
         stop-color="#543c2c"
         offset="0"
         id="stop1" />
      <stop
         stop-color="#766356"
         offset=".076733"
         id="stop2" />
      <stop
         stop-color="#d1d1c7"
         offset=".15604"
         id="stop3" />
      <stop
         stop-color="#d3cfc5"
         offset=".92868"
         id="stop4" />
      <stop
         stop-color="#7e5a4e"
         offset="1"
         id="stop5" />
    </linearGradient>
    <linearGradient
       id="linearGradient880"
       x1="150"
       x2="150"
       y1="9"
       y2="50.983"
       gradientTransform="matrix(1 0 0 1 -130.5 .4991)"
       gradientUnits="userSpaceOnUse">
      <stop
         stop-color="#66cdff"
         offset="0"
         id="stop6"
         style="stop-color:#e6a33c;stop-opacity:1;" />
      <stop
         stop-color="#0080cc"
         offset="1"
         id="stop7"
         style="stop-color:#a7701b;stop-opacity:1;" />
    </linearGradient>
    <linearGradient
       id="linearGradient59957"
       x1="21.923"
       x2="21.923"
       y1="16.221"
       y2="2.7081"
       gradientTransform="matrix(1.9248 0 0 1.9248 -1.6767 -.35221)"
       gradientUnits="userSpaceOnUse">
      <stop
         stop-color="#99deff"
         offset="0"
         id="stop8" />
      <stop
         stop-color="#fff"
         offset="1"
         id="stop9" />
    </linearGradient>
    <filter
       inkscape:collect="always"
       id="filter4013"
       x="-0.07602274"
       width="1.1520455"
       y="-0.1169515"
       height="1.233903">
      <feGaussianBlur
         inkscape:collect="always"
         stdDeviation="0.55509746"
         id="feGaussianBlur4015" />
    </filter>
    <linearGradient
       inkscape:collect="always"
       xlink:href="#linearGradient3744-2"
       id="linearGradient3750-6"
       x1="198.00774"
       y1="486.90967"
       x2="204.08333"
       y2="486.28015"
       gradientUnits="userSpaceOnUse"
       gradientTransform="matrix(1.2948309,0,0,1.2999861,-204.51567,-604.44315)" />
    <linearGradient
       id="linearGradient3744-2">
      <stop
         style="stop-color:#e6a33c;stop-opacity:1"
         offset="0"
         id="stop3746-5" />
      <stop
         id="stop4315"
         offset="0.61470968"
         style="stop-color:#e5c492;stop-opacity:1" />
      <stop
         style="stop-color:#9c6106;stop-opacity:1"
         offset="1"
         id="stop3748-8" />
    </linearGradient>
    <filter
       inkscape:collect="always"
       id="filter4282"
       x="-0.081259562"
       width="1.1625191"
       y="-0.13044298"
       height="1.260886">
      <feGaussianBlur
         inkscape:collect="always"
         stdDeviation="0.2581684"
         id="feGaussianBlur4284" />
    </filter>
    <linearGradient
       inkscape:collect="always"
       xlink:href="#linearGradient4703"
       id="linearGradient4709"
       x1="-32.125"
       y1="22.75"
       x2="-24.5"
       y2="22.75"
       gradientUnits="userSpaceOnUse"
       gradientTransform="matrix(0.71976341,0,0,0.83073087,68.126054,6.6944997)" />
    <linearGradient
       inkscape:collect="always"
       id="linearGradient4703">
      <stop
         style="stop-color:#b6930c;stop-opacity:1;"
         offset="0"
         id="stop4705" />
      <stop
         style="stop-color:#7e6608;stop-opacity:1"
         offset="1"
         id="stop4707" />
    </linearGradient>
    <linearGradient
       inkscape:collect="always"
       xlink:href="#linearGradient4220"
       id="linearGradient4313"
       gradientUnits="userSpaceOnUse"
       gradientTransform="matrix(0.24551955,0,0,0.25891721,73.725329,8.941751)"
       x1="-65.747032"
       y1="83.574242"
       x2="-133.52255"
       y2="69.78566" />
    <linearGradient
       inkscape:collect="always"
       id="linearGradient4220">
      <stop
         style="stop-color:#553707;stop-opacity:1"
         offset="0"
         id="stop4222" />
      <stop
         style="stop-color:#a1680e;stop-opacity:1"
         offset="1"
         id="stop4224" />
    </linearGradient>
    <radialGradient
       inkscape:collect="always"
       xlink:href="#linearGradient4272"
       id="radialGradient4278"
       cx="44.674927"
       cy="519.52612"
       fx="44.674927"
       fy="519.52612"
       r="35.890625"
       gradientTransform="matrix(0.24324708,0,0,0.18729409,34.068627,-72.472963)"
       gradientUnits="userSpaceOnUse" />
    <linearGradient
       inkscape:collect="always"
       id="linearGradient4272">
      <stop
         style="stop-color:#ffffff;stop-opacity:1;"
         offset="0"
         id="stop4274" />
      <stop
         style="stop-color:#ffffff;stop-opacity:0;"
         offset="1"
         id="stop4276" />
    </linearGradient>
    <linearGradient
       inkscape:collect="always"
       xlink:href="#linearGradient4272"
       id="linearGradient4380"
       x1="-33.729694"
       y1="22.75"
       x2="-22.895304"
       y2="22.75"
       gradientUnits="userSpaceOnUse" />
    <filter
       inkscape:collect="always"
       id="filter4370"
       x="-0.09302588"
       width="1.1860518"
       y="-0.14933102"
       height="1.298662">
      <feGaussianBlur
         inkscape:collect="always"
         stdDeviation="0.29555098"
         id="feGaussianBlur4372" />
    </filter>
    <radialGradient
       r="43.588097"
       fy="628.80255"
       fx="-45.628906"
       cy="628.80255"
       cx="-45.628906"
       gradientTransform="matrix(0.14475788,0,0,0.17269022,-45.603269,-78.120811)"
       gradientUnits="userSpaceOnUse"
       id="radialGradient4531"
       xlink:href="#linearGradient4272"
       inkscape:collect="always" />
    <radialGradient
       inkscape:collect="always"
       xlink:href="#linearGradient4272"
       id="radialGradient4760"
       cx="-30.449205"
       cy="20.532721"
       fx="-30.449205"
       fy="20.532721"
       r="4.0112019"
       gradientTransform="matrix(0.99561223,0,0,0.75319218,76.555464,8.7815369)"
       gradientUnits="userSpaceOnUse" />
    <filter
       inkscape:collect="always"
       id="filter5023"
       x="-0.1227865"
       width="1.245573"
       y="-0.19710465"
       height="1.3942093">
      <feGaussianBlur
         inkscape:collect="always"
         stdDeviation="0.39010294"
         id="feGaussianBlur5025" />
    </filter>
  </defs>
  <g
     stroke-opacity="0.95294"
     id="g10"
     style="mix-blend-mode:exclusion">
    <rect
       x="4.4986"
       y="4.4990001"
       width="55.000999"
       height="55.000999"
       ry="13"
       fill="#0070b2"
       stroke-width="0.31428"
       id="rect9"
       style="display:inline;fill:#e6a33c;fill-opacity:1" />
    <rect
       x="5.4995999"
       y="5.4991002"
       width="53.000999"
       height="51.001999"
       ry="10"
       fill="url(#linearGradient902)"
       stroke-width="0.29708"
       id="rect10"
       style="display:inline" />
    <path
       d="m 17.499,4.499 c -7.202,0 -13,5.7983 -13,13 v 26.003 c 0,4.432 3.5681,8.0003 8.0003,8.0003 h 39.002 c 4.432,0 8.0003,-3.5681 8.0003,-8.0003 V 17.499 c 0,-7.202 -5.7983,-13 -13,-13 z"
       fill="url(#linearGradient880)"
       stroke-width="0.31428"
       id="path10"
       style="display:inline" />
  </g>
  <g
     fill="#004066"
     stroke-opacity=".95294"
     stroke-width=".31428"
     id="g13">
    <path
       d="m9.4988 7.2532c-1.13 0.88216-2.1086 1.9473-2.8946 3.1504-0.031201 0.04798-0.0592 0.09806-0.089803 0.14649-0.2161 0.34062-0.41731 0.69148-0.60156 1.0528-0.045 0.08866-0.085903 0.17971-0.1289 0.26953-0.15437 0.32083-0.29574 0.64941-0.42384 0.9844-0.048802 0.12807-0.095802 0.25672-0.14063 0.38673-0.10626 0.307-0.19783 0.62038-0.28126 0.93753-0.039402 0.15069-0.081103 0.30033-0.11523 0.45314-0.072602 0.3232-0.12579 0.65429-0.17383 0.98636-0.020599 0.14288-0.050503 0.28337-0.0664 0.42774-0.052869 0.47687-0.084043 0.9596-0.084043 1.4512v26.003c0 3.3689 2.0645 6.2333 5 7.4163z"
       opacity=".5"
       id="path11"
       style="fill:#82540b;fill-opacity:1" />
    <path
       d="m4.4986 42.501v1.002c0 4.432 3.5681 8.0003 8.0003 8.0003h39.002c4.432 0 8.0003-3.5681 8.0003-8.0003v-1.002c0 4.432-3.5681 8.0003-8.0003 8.0003h-39.002c-4.432 0-8.0003-3.5681-8.0003-8.0003z"
       id="path12"
       style="fill:#82540b;fill-opacity:1" />
    <path
       d="m4.4986 45.499v1.002c0 7.202 5.7983 13 13 13h29.002c7.202 0 13-5.7983 13-13v-1.002c0 7.202-5.7983 13-13 13h-29.002c-7.202 0-13-5.7983-13-13z"
       id="path13"
       style="fill:#82540b;fill-opacity:1" />
  </g>
  <path
     d="m 58.495,47.43 c -0.07177,0.05953 -0.149393,0.11358 -0.222441,0.1719 -2.281567,3.3923 -7.124929,4.2736 -12.193415,4.2736 H 16.151248 c -4.17741,0 -8.630029,-0.61642 -10.9295197,-3.0606 -0.010928,0.02306 -0.023982,0.06202 -0.035673,0.08788 2.2880193,2.4771 6.7652207,3.0997 10.9643437,3.0997 h 29.927896 c 5.092863,0 9.953944,-0.92778 12.228238,-4.3397 -0.02632,0.05907 -0.0564,0.11566 -0.08393,0.17382 -2.153231,3.7223 -6.942513,5.0393 -12.144252,5.0393 h -29.92789 c -4.385635,0 -8.8870081,-0.98617 -11.0360399,-3.7989 -0.010638,0.02608 -0.01876,0.04853 -0.029375,0.07616 2.1341805,2.8493 6.6560379,3.8495 11.0657419,3.8495 h 29.927896 c 5.036735,0 9.676379,-1.2706 11.926092,-4.7109 -2.094646,3.8522 -6.706839,5.584 -11.926092,5.584 H 16.150788 c -4.636877,0 -9.1649824,-1.3523 -11.1282195,-4.5665 -0.00978,0.02948 -0.011753,0.0635 -0.020985,0.09373 1.9523804,3.2384 6.4965655,4.5998 11.1497285,4.5998 h 29.927895 c 5.218741,0 9.828169,-1.7573 11.926092,-5.5938 -2.049169,4.0831 -6.649482,6.4669 -11.926092,6.4669 H 16.151312 c -4.703862,0 -9.2501986,-2.0697 -11.1650923,-5.4082 -0.00871,0.03061 -0.013076,0.06248 -0.020985,0.09377 1.9028078,3.3586 6.4656333,5.4415 11.1845523,5.4415 h 29.927895 c 5.137417,0 9.630698,-2.2718 11.758119,-6.1524 -2.049579,4.153 -6.523708,7.0255 -11.758119,7.0255 H 16.149787 c -4.784776,0 -9.3205631,-2.5483 -11.1743104,-5.9884 -0.024509,-0.04547 -0.034488,-0.09657 -0.048262,-0.1465 -0.0044,0.02381 -0.011068,0.04641 -0.014687,0.0703 0.015922,0.06966 0.029406,0.1409 0.062953,0.20312 1.8540546,3.4402 6.3901484,5.9884 11.1743104,5.9884 h 29.927895 c 5.711496,0 10.518805,-3.4201 12.256917,-8.1915 0.04278,-0.10424 0.0864,-0.20826 0.125929,-0.31446 0.01084,-0.02192 0.02051,-0.04464 0.03136,-0.06641 z"
     opacity="0.15"
     stroke-width="1.03653"
     id="path14" />
  <path
     id="path1"
     style="fill:#82540b;fill-opacity:1;stroke-width:0.824;stroke-linecap:square;stroke-linejoin:bevel;paint-order:markers fill stroke"
     d="m 4.4980469,43.503906 v 3.779297 l 0.2421875,1.738281 1.4433594,3.904297 3.3144531,3.800781 0.00781,-0.939453 C 9.4598544,55.798679 9.3510444,55.628768 9.3046875,55.628908 8.7020815,55.105471 8.21875,54.511535 8.21875,53.234377 c 0,-1.277158 0.5184877,-2.367187 1.1484375,-2.367187 0.4883296,0.178444 0.5205325,0.01758 0.1308594,-0.109378 L 8.5136719,50.09375 5.0742188,46.496094 Z"
     sodipodi:nodetypes="cccccccsccccc" />
  <path
     inkscape:export-ydpi="90.352943"
     inkscape:export-xdpi="90.352943"
     inkscape:export-filename="/home/hbons/hires.png"
     transform="matrix(1.0027857,0,0,0.9877601,-83.304287,-455.76195)"
     style="display:inline;fill:#120b00;fill-opacity:1;stroke:none;filter:url(#filter4013)"
     d="m 139.09193,484.51098 c 1.21144,-0.021 2.16411,1.0393 2.27697,2.3505 0,0 1.09302,9.04053 1.09302,9.04053 0,0 -0.84167,-0.65088 -0.84167,-0.65088 -0.0295,-0.95322 -1.64738,-1.97571 -3.00662,-1.97571 h -9.42097 c -2.3572,0 -4.25489,-1.62706 -4.25489,-3.95761 0,-2.90395 1.42156,-4.80495 3.68022,-4.80495 h 9.14074 -7e-5 1.3333 l -3e-5,-0.002 z"
     id="path3997"
     sodipodi:nodetypes="ccccccccccccc" />
  <path
     inkscape:export-ydpi="90.352943"
     inkscape:export-xdpi="90.352943"
     inkscape:export-filename="/home/hbons/hires.png"
     sodipodi:nodetypes="ccsczscccccccccc"
     id="rect3607-0"
     d="m 57.612373,22.089197 c 1.176462,-0.02046 2.573729,1.013309 2.683328,2.291715 l -0.127073,7.300004 -0.0324,3.164594 c 0.006,1.676044 -0.579136,2.071553 -0.579136,2.071553 l -0.55799,-3.891364 C 58.867139,32.105363 57.747234,31.099403 56.42724,31.099403 H 46.242753 c -2.28914,0 -4.132037,-1.830117 -4.132037,-4.102383 0,-2.831321 1.424235,-4.882313 4.352325,-4.882313 l 9.854639,-0.02368 h -6.9e-5 1.294803 l -3e-5,-0.0017 v 1.17e-4 z"
     style="display:inline;fill:url(#linearGradient3750-6);fill-opacity:1;stroke:none;stroke-width:0.287427" />
  <path
     inkscape:export-ydpi="90.352943"
     inkscape:export-xdpi="90.352943"
     inkscape:export-filename="/home/hbons/hires.png"
     sodipodi:nodetypes="cccc"
     id="path2826-2-4"
     d="m 43.436546,27.796007 c 0,0 0.701,2.030701 2.258782,1.95088 l 10.550145,0.04095 c 0,0 4.050228,-0.0048 4.050228,3.859372"
     style="fill:none;stroke:none;stroke-width:0.287427" />
  <ellipse
     inkscape:export-ydpi="90.352943"
     inkscape:export-xdpi="90.352943"
     inkscape:export-filename="/home/hbons/hires.png"
     style="fill:#4f3101;fill-opacity:1;stroke:none;filter:url(#filter4282)"
     id="path4280"
     transform="matrix(0.68868872,0,0,0.89789847,67.542128,5.2724801)"
     cx="-28.3125"
     cy="22.75"
     rx="3.8125"
     ry="2.375" />
  <ellipse
     style="fill:url(#linearGradient4709);fill-opacity:1;stroke:none;stroke-width:0.773259"
     id="path4570"
     inkscape:export-filename="/home/hbons/hires.png"
     inkscape:export-xdpi="90.352943"
     inkscape:export-ydpi="90.352943"
     cx="47.747749"
     cy="25.593626"
     rx="2.7440979"
     ry="1.9729859" />
  <ellipse
     inkscape:export-ydpi="90.352943"
     inkscape:export-xdpi="90.352943"
     inkscape:export-filename="/home/hbons/hires.png"
     id="path3995"
     style="fill:#f4d55e;fill-opacity:1;stroke:none;stroke-width:0.778991"
     cx="47.73877"
     cy="25.288235"
     rx="2.7351158"
     ry="2.0089142" />
  <path
     inkscape:export-ydpi="90.352943"
     inkscape:export-xdpi="90.352943"
     inkscape:export-filename="/home/hbons/hires.png"
     sodipodi:nodetypes="ccccccccccccc"
     id="path4209"
     d="m 41.784772,26.952676 c 0,2.41368 1.866551,4.353051 4.181503,4.353051 h 10.296476 c 1.33488,0 2.572002,1.05984 2.600975,2.047057 l 0.0307,0.412651 c 0,0 0.459771,3.094336 0.459771,3.094336 0,0 0.03127,-3.612171 0.03127,-3.612171 l -0.0307,-0.412649 C 59.325796,31.847732 58.088673,30.78789 56.753794,30.78789 H 46.211798 c -2.314953,0 -4.427022,-1.939364 -4.427022,-4.353047 0,0 -1.3e-5,0.517833 -1.3e-5,0.517833 z"
     style="fill:url(#linearGradient4313);fill-opacity:1;stroke:none;stroke-width:0.287427" />
  <path
     inkscape:export-ydpi="90.352943"
     inkscape:export-xdpi="90.352943"
     inkscape:export-filename="/home/hbons/hires.png"
     style="opacity:0.99;fill:url(#radialGradient4278);fill-opacity:1;stroke:none;stroke-width:0.287427"
     d="m 41.829728,26.301654 c 0,2.272266 1.526683,4.55044 4.142802,4.55044 h 10.201174 c 1.322525,0 2.548196,0.997749 2.576895,1.927129 l 0.03042,0.388472 c 0,0 0.509297,1.622447 0.509297,1.622447 0,0 -0.02276,-2.109939 -0.02276,-2.109939 l -0.0304,-0.388473 c -0.02872,-0.92938 -1.254375,-1.927131 -2.5769,-1.927131 h -10.44442 c -2.293527,0 -4.066788,-1.825743 -4.066788,-4.098007 0,-1.589319 1.236267,-3.409307 2.293221,-3.701917 -1.0386,0.08618 -2.612495,1.959353 -2.612495,3.736979 z"
     id="path4270"
     sodipodi:nodetypes="ccccccccccscc" />
  <ellipse
     inkscape:export-ydpi="90.352943"
     inkscape:export-xdpi="90.352943"
     inkscape:export-filename="/home/hbons/hires.png"
     style="fill:url(#linearGradient4380);fill-opacity:1;stroke:none;filter:url(#filter4370)"
     id="path4352"
     transform="matrix(-0.49266753,0,0,0.54895164,33.925442,12.857)"
     cx="-28.3125"
     cy="22.75"
     rx="3.8125"
     ry="2.375" />
  <rect
     inkscape:export-ydpi="90.352943"
     inkscape:export-xdpi="90.352943"
     inkscape:export-filename="/home/hbons/hires.png"
     style="opacity:0.562992;fill:url(#radialGradient4531);fill-opacity:1;stroke:none;stroke-width:0.287427"
     id="rect4191-5"
     width="12.619439"
     height="0.57485396"
     x="-58.518131"
     y="30.179804"
     rx="1.0162078"
     ry="1.0162078"
     transform="scale(-1,1)" />
  <path
     inkscape:export-ydpi="90.352943"
     inkscape:export-xdpi="90.352943"
     inkscape:export-filename="/home/hbons/hires.png"
     id="path4729"
     d="m 47.736124,23.587982 c -1.281326,0 -2.317379,0.756494 -2.317379,1.697615 0,0.941123 1.036053,1.706599 2.317379,1.706599 0.02962,0 0.06048,8.04e-4 0.08982,0 -1.14484,-0.03403 -2.056898,-0.731622 -2.056898,-1.580849 0,-0.870968 0.960905,-1.571866 2.146718,-1.571866 1.156891,0 2.092418,0.667428 2.137739,1.508991 10e-4,-0.02047 0.009,-0.04219 0.009,-0.06287 0,-0.941121 -1.045034,-1.697615 -2.326362,-1.697615 z"
     style="opacity:0.545455;fill:#7e6609;fill-opacity:1;stroke:none;stroke-width:0.287427" />
  <ellipse
     style="fill:none;fill-opacity:1;stroke:url(#radialGradient4760);stroke-width:0.287427;stroke-miterlimit:4;stroke-dasharray:none;stroke-opacity:1"
     id="path4752"
     inkscape:export-filename="/home/hbons/hires.png"
     inkscape:export-xdpi="90.352943"
     inkscape:export-ydpi="90.352943"
     cx="47.73877"
     cy="25.288235"
     rx="2.5394516"
     ry="1.8652008" />
  <ellipse
     transform="matrix(0.29629432,-0.17326394,-0.19060876,-0.33438667,59.970419,27.801696)"
     id="path4991"
     style="opacity:0.710744;fill:#ffffff;fill-opacity:1;stroke:none;filter:url(#filter5023)"
     inkscape:export-filename="/home/hbons/hires.png"
     inkscape:export-xdpi="90.352943"
     inkscape:export-ydpi="90.352943"
     cx="-28.3125"
     cy="22.75"
     rx="3.8125"
     ry="2.375" />
</svg>
