<?xml version="1.0" encoding="UTF-8"?>
<svg id="svg1991" width="128" height="128" version="1.1" viewBox="0 0 33.867 33.867" xmlns="http://www.w3.org/2000/svg" xmlns:cc="http://creativecommons.org/ns#" xmlns:dc="http://purl.org/dc/elements/1.1/" xmlns:rdf="http://www.w3.org/1999/02/22-rdf-syntax-ns#" xmlns:xlink="http://www.w3.org/1999/xlink">
 <defs id="defs1985">
  <filter id="filter861" x="-.027" y="-.027" width="1.054" height="1.054" color-interpolation-filters="sRGB">
   <feGaussianBlur id="feGaussianBlur876" stdDeviation="0.16371"/>
  </filter>
  <linearGradient id="linearGradient3171" x1="5.8117" x2="5.8117" y1="2.9776" y2="15.749" gradientTransform="matrix(2.0522 0 0 2.0522 -.36028 -.081535)" gradientUnits="userSpaceOnUse">
   <stop id="stop3165" stop-color="#f5a00a" offset="0"/>
   <stop id="stop3167" stop-color="#fa6419" offset="1"/>
  </linearGradient>
  <linearGradient id="linearGradient1982" x1="8.6676" x2="8.6676" y1="2.7493" y2="12.609" gradientTransform="matrix(2.0522 0 0 2.0522 -.36028 -.081535)" gradientUnits="userSpaceOnUse">
   <stop id="stop1976" offset="0"/>
   <stop id="stop1984" stop-color="#fff" offset=".48408"/>
   <stop id="stop1978" stop-color="#fff" offset="1"/>
  </linearGradient>
 </defs>
 <metadata id="metadata1988">
  <rdf:RDF>
   <cc:Work rdf:about="">
    <dc:format>image/svg+xml</dc:format>
    <dc:type rdf:resource="http://purl.org/dc/dcmitype/StillImage"/>
    <dc:title/>
   </cc:Work>
  </rdf:RDF>
 </metadata>
 <g id="layer1">
  <rect id="rect881" transform="matrix(2.0522 0 0 2.0522 -.36028 -.081534)" x="1.1905" y="1.1905" width="14.552" height="14.552" ry="3.4395" filter="url(#filter861)" image-rendering="optimizeSpeed" opacity=".3" stroke-opacity=".95294" stroke-width=".083153"/>
  <rect id="rect3121" x="2.0828" y="2.3615" width="29.864" height="29.864" ry="7.0586" fill="url(#linearGradient3171)" image-rendering="optimizeSpeed" stroke-opacity=".95294" stroke-width=".17064"/>
  <g id="g1537" transform="matrix(.27837 0 0 .27837 -41.47 -.60197)" fill="none" opacity=".591" stroke="#000" stroke-linecap="round" stroke-linejoin="round" stroke-opacity=".0078431">
   <path id="path1456" d="m192.33 33.754c-5.5392-0.12938-11.402 2.0934-16.818 5.4473-1.9204 1.1088-2.2715 2.5409-2.2715 3.627l-0.20313 42.916c0 2.2301 1.903 1.5341 2.916 0.94922 16.149-8.9494 25.947-3.8264 32.662 8.1309l-0.52735-49.555c0.0128-1.4186-0.17752-1.9742-0.88086-2.8477-4.1217-6.0566-9.3378-8.5386-14.877-8.668zm35.535 0c-5.5392 0.12938-10.753 2.6113-14.875 8.668-0.70334 0.87346-0.89558 1.429-0.88282 2.8477l-0.52734 49.555c6.7156-11.957 16.515-17.08 32.664-8.1309 1.013 0.58488 2.914 1.2808 2.9141-0.94922l-0.20313-42.916c0-1.086-0.35107-2.5182-2.2715-3.627-5.4166-3.3538-11.279-5.5767-16.818-5.4473z" stroke-width=".1"/>
   <path id="path1458" d="m192.33 33.754c-5.5392-0.12938-11.402 2.0934-16.818 5.4473-1.9204 1.1088-2.2715 2.5409-2.2715 3.627l-0.20313 42.916c0 2.2301 1.903 1.5341 2.916 0.94922 16.149-8.9494 25.947-3.8264 32.662 8.1309l-0.52735-49.555c0.0128-1.4186-0.17752-1.9742-0.88086-2.8477-4.1217-6.0566-9.3378-8.5386-14.877-8.668zm35.535 0c-5.5392 0.12938-10.753 2.6113-14.875 8.668-0.70334 0.87346-0.89558 1.429-0.88282 2.8477l-0.52734 49.555c6.7156-11.957 16.515-17.08 32.664-8.1309 1.013 0.58488 2.914 1.2808 2.9141-0.94922l-0.20313-42.916c0-1.086-0.35107-2.5182-2.2715-3.627-5.4166-3.3538-11.279-5.5767-16.818-5.4473z" stroke-width=".2"/>
   <path id="path1460" d="m192.33 33.754c-5.5392-0.12938-11.402 2.0934-16.818 5.4473-1.9204 1.1088-2.2715 2.5409-2.2715 3.627l-0.20313 42.916c0 2.2301 1.903 1.5341 2.916 0.94922 16.149-8.9494 25.947-3.8264 32.662 8.1309l-0.52735-49.555c0.0128-1.4186-0.17752-1.9742-0.88086-2.8477-4.1217-6.0566-9.3378-8.5386-14.877-8.668zm35.535 0c-5.5392 0.12938-10.753 2.6113-14.875 8.668-0.70334 0.87346-0.89558 1.429-0.88282 2.8477l-0.52734 49.555c6.7156-11.957 16.515-17.08 32.664-8.1309 1.013 0.58488 2.914 1.2808 2.9141-0.94922l-0.20313-42.916c0-1.086-0.35107-2.5182-2.2715-3.627-5.4166-3.3538-11.279-5.5767-16.818-5.4473z" stroke-width=".3"/>
   <path id="path1462" d="m192.33 33.754c-5.5392-0.12938-11.402 2.0934-16.818 5.4473-1.9204 1.1088-2.2715 2.5409-2.2715 3.627l-0.20313 42.916c0 2.2301 1.903 1.5341 2.916 0.94922 16.149-8.9494 25.947-3.8264 32.662 8.1309l-0.52735-49.555c0.0128-1.4186-0.17752-1.9742-0.88086-2.8477-4.1217-6.0566-9.3378-8.5386-14.877-8.668zm35.535 0c-5.5392 0.12938-10.753 2.6113-14.875 8.668-0.70334 0.87346-0.89558 1.429-0.88282 2.8477l-0.52734 49.555c6.7156-11.957 16.515-17.08 32.664-8.1309 1.013 0.58488 2.914 1.2808 2.9141-0.94922l-0.20313-42.916c0-1.086-0.35107-2.5182-2.2715-3.627-5.4166-3.3538-11.279-5.5767-16.818-5.4473z" stroke-width=".4"/>
   <path id="path1464" d="m192.33 33.754c-5.5392-0.12938-11.402 2.0934-16.818 5.4473-1.9204 1.1088-2.2715 2.5409-2.2715 3.627l-0.20313 42.916c0 2.2301 1.903 1.5341 2.916 0.94922 16.149-8.9494 25.947-3.8264 32.662 8.1309l-0.52735-49.555c0.0128-1.4186-0.17752-1.9742-0.88086-2.8477-4.1217-6.0566-9.3378-8.5386-14.877-8.668zm35.535 0c-5.5392 0.12938-10.753 2.6113-14.875 8.668-0.70334 0.87346-0.89558 1.429-0.88282 2.8477l-0.52734 49.555c6.7156-11.957 16.515-17.08 32.664-8.1309 1.013 0.58488 2.914 1.2808 2.9141-0.94922l-0.20313-42.916c0-1.086-0.35107-2.5182-2.2715-3.627-5.4166-3.3538-11.279-5.5767-16.818-5.4473z" stroke-width=".5"/>
   <path id="path1466" d="m192.33 33.754c-5.5392-0.12938-11.402 2.0934-16.818 5.4473-1.9204 1.1088-2.2715 2.5409-2.2715 3.627l-0.20313 42.916c0 2.2301 1.903 1.5341 2.916 0.94922 16.149-8.9494 25.947-3.8264 32.662 8.1309l-0.52735-49.555c0.0128-1.4186-0.17752-1.9742-0.88086-2.8477-4.1217-6.0566-9.3378-8.5386-14.877-8.668zm35.535 0c-5.5392 0.12938-10.753 2.6113-14.875 8.668-0.70334 0.87346-0.89558 1.429-0.88282 2.8477l-0.52734 49.555c6.7156-11.957 16.515-17.08 32.664-8.1309 1.013 0.58488 2.914 1.2808 2.9141-0.94922l-0.20313-42.916c0-1.086-0.35107-2.5182-2.2715-3.627-5.4166-3.3538-11.279-5.5767-16.818-5.4473z" stroke-width=".6"/>
   <path id="path1468" d="m192.33 33.754c-5.5392-0.12938-11.402 2.0934-16.818 5.4473-1.9204 1.1088-2.2715 2.5409-2.2715 3.627l-0.20313 42.916c0 2.2301 1.903 1.5341 2.916 0.94922 16.149-8.9494 25.947-3.8264 32.662 8.1309l-0.52735-49.555c0.0128-1.4186-0.17752-1.9742-0.88086-2.8477-4.1217-6.0566-9.3378-8.5386-14.877-8.668zm35.535 0c-5.5392 0.12938-10.753 2.6113-14.875 8.668-0.70334 0.87346-0.89558 1.429-0.88282 2.8477l-0.52734 49.555c6.7156-11.957 16.515-17.08 32.664-8.1309 1.013 0.58488 2.914 1.2808 2.9141-0.94922l-0.20313-42.916c0-1.086-0.35107-2.5182-2.2715-3.627-5.4166-3.3538-11.279-5.5767-16.818-5.4473z" stroke-width=".7"/>
   <path id="path1470" d="m192.33 33.754c-5.5392-0.12938-11.402 2.0934-16.818 5.4473-1.9204 1.1088-2.2715 2.5409-2.2715 3.627l-0.20313 42.916c0 2.2301 1.903 1.5341 2.916 0.94922 16.149-8.9494 25.947-3.8264 32.662 8.1309l-0.52735-49.555c0.0128-1.4186-0.17752-1.9742-0.88086-2.8477-4.1217-6.0566-9.3378-8.5386-14.877-8.668zm35.535 0c-5.5392 0.12938-10.753 2.6113-14.875 8.668-0.70334 0.87346-0.89558 1.429-0.88282 2.8477l-0.52734 49.555c6.7156-11.957 16.515-17.08 32.664-8.1309 1.013 0.58488 2.914 1.2808 2.9141-0.94922l-0.20313-42.916c0-1.086-0.35107-2.5182-2.2715-3.627-5.4166-3.3538-11.279-5.5767-16.818-5.4473z" stroke-width=".8"/>
   <path id="path1472" d="m192.33 33.754c-5.5392-0.12938-11.402 2.0934-16.818 5.4473-1.9204 1.1088-2.2715 2.5409-2.2715 3.627l-0.20313 42.916c0 2.2301 1.903 1.5341 2.916 0.94922 16.149-8.9494 25.947-3.8264 32.662 8.1309l-0.52735-49.555c0.0128-1.4186-0.17752-1.9742-0.88086-2.8477-4.1217-6.0566-9.3378-8.5386-14.877-8.668zm35.535 0c-5.5392 0.12938-10.753 2.6113-14.875 8.668-0.70334 0.87346-0.89558 1.429-0.88282 2.8477l-0.52734 49.555c6.7156-11.957 16.515-17.08 32.664-8.1309 1.013 0.58488 2.914 1.2808 2.9141-0.94922l-0.20313-42.916c0-1.086-0.35107-2.5182-2.2715-3.627-5.4166-3.3538-11.279-5.5767-16.818-5.4473z" stroke-width=".9"/>
   <path id="path1474" d="m192.33 33.754c-5.5392-0.12938-11.402 2.0934-16.818 5.4473-1.9204 1.1088-2.2715 2.5409-2.2715 3.627l-0.20313 42.916c0 2.2301 1.903 1.5341 2.916 0.94922 16.149-8.9494 25.947-3.8264 32.662 8.1309l-0.52735-49.555c0.0128-1.4186-0.17752-1.9742-0.88086-2.8477-4.1217-6.0566-9.3378-8.5386-14.877-8.668zm35.535 0c-5.5392 0.12938-10.753 2.6113-14.875 8.668-0.70334 0.87346-0.89558 1.429-0.88282 2.8477l-0.52734 49.555c6.7156-11.957 16.515-17.08 32.664-8.1309 1.013 0.58488 2.914 1.2808 2.9141-0.94922l-0.20313-42.916c0-1.086-0.35107-2.5182-2.2715-3.627-5.4166-3.3538-11.279-5.5767-16.818-5.4473z"/>
   <path id="path1476" d="m192.33 33.754c-5.5392-0.12938-11.402 2.0934-16.818 5.4473-1.9204 1.1088-2.2715 2.5409-2.2715 3.627l-0.20313 42.916c0 2.2301 1.903 1.5341 2.916 0.94922 16.149-8.9494 25.947-3.8264 32.662 8.1309l-0.52735-49.555c0.0128-1.4186-0.17752-1.9742-0.88086-2.8477-4.1217-6.0566-9.3378-8.5386-14.877-8.668zm35.535 0c-5.5392 0.12938-10.753 2.6113-14.875 8.668-0.70334 0.87346-0.89558 1.429-0.88282 2.8477l-0.52734 49.555c6.7156-11.957 16.515-17.08 32.664-8.1309 1.013 0.58488 2.914 1.2808 2.9141-0.94922l-0.20313-42.916c0-1.086-0.35107-2.5182-2.2715-3.627-5.4166-3.3538-11.279-5.5767-16.818-5.4473z" stroke-width="1.2"/>
   <path id="path1478" d="m192.33 33.754c-5.5392-0.12938-11.402 2.0934-16.818 5.4473-1.9204 1.1088-2.2715 2.5409-2.2715 3.627l-0.20313 42.916c0 2.2301 1.903 1.5341 2.916 0.94922 16.149-8.9494 25.947-3.8264 32.662 8.1309l-0.52735-49.555c0.0128-1.4186-0.17752-1.9742-0.88086-2.8477-4.1217-6.0566-9.3378-8.5386-14.877-8.668zm35.535 0c-5.5392 0.12938-10.753 2.6113-14.875 8.668-0.70334 0.87346-0.89558 1.429-0.88282 2.8477l-0.52734 49.555c6.7156-11.957 16.515-17.08 32.664-8.1309 1.013 0.58488 2.914 1.2808 2.9141-0.94922l-0.20313-42.916c0-1.086-0.35107-2.5182-2.2715-3.627-5.4166-3.3538-11.279-5.5767-16.818-5.4473z" stroke-width="1.3"/>
   <path id="path1480" d="m192.33 33.754c-5.5392-0.12938-11.402 2.0934-16.818 5.4473-1.9204 1.1088-2.2715 2.5409-2.2715 3.627l-0.20313 42.916c0 2.2301 1.903 1.5341 2.916 0.94922 16.149-8.9494 25.947-3.8264 32.662 8.1309l-0.52735-49.555c0.0128-1.4186-0.17752-1.9742-0.88086-2.8477-4.1217-6.0566-9.3378-8.5386-14.877-8.668zm35.535 0c-5.5392 0.12938-10.753 2.6113-14.875 8.668-0.70334 0.87346-0.89558 1.429-0.88282 2.8477l-0.52734 49.555c6.7156-11.957 16.515-17.08 32.664-8.1309 1.013 0.58488 2.914 1.2808 2.9141-0.94922l-0.20313-42.916c0-1.086-0.35107-2.5182-2.2715-3.627-5.4166-3.3538-11.279-5.5767-16.818-5.4473z" stroke-width="1.5"/>
   <path id="path1482" d="m192.33 33.754c-5.5392-0.12938-11.402 2.0934-16.818 5.4473-1.9204 1.1088-2.2715 2.5409-2.2715 3.627l-0.20313 42.916c0 2.2301 1.903 1.5341 2.916 0.94922 16.149-8.9494 25.947-3.8264 32.662 8.1309l-0.52735-49.555c0.0128-1.4186-0.17752-1.9742-0.88086-2.8477-4.1217-6.0566-9.3378-8.5386-14.877-8.668zm35.535 0c-5.5392 0.12938-10.753 2.6113-14.875 8.668-0.70334 0.87346-0.89558 1.429-0.88282 2.8477l-0.52734 49.555c6.7156-11.957 16.515-17.08 32.664-8.1309 1.013 0.58488 2.914 1.2808 2.9141-0.94922l-0.20313-42.916c0-1.086-0.35107-2.5182-2.2715-3.627-5.4166-3.3538-11.279-5.5767-16.818-5.4473z" stroke-width="1.7"/>
   <path id="path1484" d="m192.33 33.754c-5.5392-0.12938-11.402 2.0934-16.818 5.4473-1.9204 1.1088-2.2715 2.5409-2.2715 3.627l-0.20313 42.916c0 2.2301 1.903 1.5341 2.916 0.94922 16.149-8.9494 25.947-3.8264 32.662 8.1309l-0.52735-49.555c0.0128-1.4186-0.17752-1.9742-0.88086-2.8477-4.1217-6.0566-9.3378-8.5386-14.877-8.668zm35.535 0c-5.5392 0.12938-10.753 2.6113-14.875 8.668-0.70334 0.87346-0.89558 1.429-0.88282 2.8477l-0.52734 49.555c6.7156-11.957 16.515-17.08 32.664-8.1309 1.013 0.58488 2.914 1.2808 2.9141-0.94922l-0.20313-42.916c0-1.086-0.35107-2.5182-2.2715-3.627-5.4166-3.3538-11.279-5.5767-16.818-5.4473z" stroke-width="2"/>
   <path id="path1486" d="m192.33 33.754c-5.5392-0.12938-11.402 2.0934-16.818 5.4473-1.9204 1.1088-2.2715 2.5409-2.2715 3.627l-0.20313 42.916c0 2.2301 1.903 1.5341 2.916 0.94922 16.149-8.9494 25.947-3.8264 32.662 8.1309l-0.52735-49.555c0.0128-1.4186-0.17752-1.9742-0.88086-2.8477-4.1217-6.0566-9.3378-8.5386-14.877-8.668zm35.535 0c-5.5392 0.12938-10.753 2.6113-14.875 8.668-0.70334 0.87346-0.89558 1.429-0.88282 2.8477l-0.52734 49.555c6.7156-11.957 16.515-17.08 32.664-8.1309 1.013 0.58488 2.914 1.2808 2.9141-0.94922l-0.20313-42.916c0-1.086-0.35107-2.5182-2.2715-3.627-5.4166-3.3538-11.279-5.5767-16.818-5.4473z" stroke-width="2.3"/>
   <path id="path1488" d="m192.33 33.754c-5.5392-0.12938-11.402 2.0934-16.818 5.4473-1.9204 1.1088-2.2715 2.5409-2.2715 3.627l-0.20313 42.916c0 2.2301 1.903 1.5341 2.916 0.94922 16.149-8.9494 25.947-3.8264 32.662 8.1309l-0.52735-49.555c0.0128-1.4186-0.17752-1.9742-0.88086-2.8477-4.1217-6.0566-9.3378-8.5386-14.877-8.668zm35.535 0c-5.5392 0.12938-10.753 2.6113-14.875 8.668-0.70334 0.87346-0.89558 1.429-0.88282 2.8477l-0.52734 49.555c6.7156-11.957 16.515-17.08 32.664-8.1309 1.013 0.58488 2.914 1.2808 2.9141-0.94922l-0.20313-42.916c0-1.086-0.35107-2.5182-2.2715-3.627-5.4166-3.3538-11.279-5.5767-16.818-5.4473z" stroke-width="2.6"/>
   <path id="path1490" d="m192.33 33.754c-5.5392-0.12938-11.402 2.0934-16.818 5.4473-1.9204 1.1088-2.2715 2.5409-2.2715 3.627l-0.20313 42.916c0 2.2301 1.903 1.5341 2.916 0.94922 16.149-8.9494 25.947-3.8264 32.662 8.1309l-0.52735-49.555c0.0128-1.4186-0.17752-1.9742-0.88086-2.8477-4.1217-6.0566-9.3378-8.5386-14.877-8.668zm35.535 0c-5.5392 0.12938-10.753 2.6113-14.875 8.668-0.70334 0.87346-0.89558 1.429-0.88282 2.8477l-0.52734 49.555c6.7156-11.957 16.515-17.08 32.664-8.1309 1.013 0.58488 2.914 1.2808 2.9141-0.94922l-0.20313-42.916c0-1.086-0.35107-2.5182-2.2715-3.627-5.4166-3.3538-11.279-5.5767-16.818-5.4473z" stroke-width="2.9"/>
   <path id="path1492" d="m192.33 33.754c-5.5392-0.12938-11.402 2.0934-16.818 5.4473-1.9204 1.1088-2.2715 2.5409-2.2715 3.627l-0.20313 42.916c0 2.2301 1.903 1.5341 2.916 0.94922 16.149-8.9494 25.947-3.8264 32.662 8.1309l-0.52735-49.555c0.0128-1.4186-0.17752-1.9742-0.88086-2.8477-4.1217-6.0566-9.3378-8.5386-14.877-8.668zm35.535 0c-5.5392 0.12938-10.753 2.6113-14.875 8.668-0.70334 0.87346-0.89558 1.429-0.88282 2.8477l-0.52734 49.555c6.7156-11.957 16.515-17.08 32.664-8.1309 1.013 0.58488 2.914 1.2808 2.9141-0.94922l-0.20313-42.916c0-1.086-0.35107-2.5182-2.2715-3.627-5.4166-3.3538-11.279-5.5767-16.818-5.4473z" stroke-width="3.2"/>
   <path id="path1494" d="m192.33 33.754c-5.5392-0.12938-11.402 2.0934-16.818 5.4473-1.9204 1.1088-2.2715 2.5409-2.2715 3.627l-0.20313 42.916c0 2.2301 1.903 1.5341 2.916 0.94922 16.149-8.9494 25.947-3.8264 32.662 8.1309l-0.52735-49.555c0.0128-1.4186-0.17752-1.9742-0.88086-2.8477-4.1217-6.0566-9.3378-8.5386-14.877-8.668zm35.535 0c-5.5392 0.12938-10.753 2.6113-14.875 8.668-0.70334 0.87346-0.89558 1.429-0.88282 2.8477l-0.52734 49.555c6.7156-11.957 16.515-17.08 32.664-8.1309 1.013 0.58488 2.914 1.2808 2.9141-0.94922l-0.20313-42.916c0-1.086-0.35107-2.5182-2.2715-3.627-5.4166-3.3538-11.279-5.5767-16.818-5.4473z" stroke-width="3.7"/>
   <path id="path1496" d="m192.33 33.754c-5.5392-0.12938-11.402 2.0934-16.818 5.4473-1.9204 1.1088-2.2715 2.5409-2.2715 3.627l-0.20313 42.916c0 2.2301 1.903 1.5341 2.916 0.94922 16.149-8.9494 25.947-3.8264 32.662 8.1309l-0.52735-49.555c0.0128-1.4186-0.17752-1.9742-0.88086-2.8477-4.1217-6.0566-9.3378-8.5386-14.877-8.668zm35.535 0c-5.5392 0.12938-10.753 2.6113-14.875 8.668-0.70334 0.87346-0.89558 1.429-0.88282 2.8477l-0.52734 49.555c6.7156-11.957 16.515-17.08 32.664-8.1309 1.013 0.58488 2.914 1.2808 2.9141-0.94922l-0.20313-42.916c0-1.086-0.35107-2.5182-2.2715-3.627-5.4166-3.3538-11.279-5.5767-16.818-5.4473z" stroke-width="4.2"/>
   <path id="path1498" d="m192.33 33.754c-5.5392-0.12938-11.402 2.0934-16.818 5.4473-1.9204 1.1088-2.2715 2.5409-2.2715 3.627l-0.20313 42.916c0 2.2301 1.903 1.5341 2.916 0.94922 16.149-8.9494 25.947-3.8264 32.662 8.1309l-0.52735-49.555c0.0128-1.4186-0.17752-1.9742-0.88086-2.8477-4.1217-6.0566-9.3378-8.5386-14.877-8.668zm35.535 0c-5.5392 0.12938-10.753 2.6113-14.875 8.668-0.70334 0.87346-0.89558 1.429-0.88282 2.8477l-0.52734 49.555c6.7156-11.957 16.515-17.08 32.664-8.1309 1.013 0.58488 2.914 1.2808 2.9141-0.94922l-0.20313-42.916c0-1.086-0.35107-2.5182-2.2715-3.627-5.4166-3.3538-11.279-5.5767-16.818-5.4473z" stroke-width="4.7"/>
   <path id="path1500" d="m192.33 33.754c-5.5392-0.12938-11.402 2.0934-16.818 5.4473-1.9204 1.1088-2.2715 2.5409-2.2715 3.627l-0.20313 42.916c0 2.2301 1.903 1.5341 2.916 0.94922 16.149-8.9494 25.947-3.8264 32.662 8.1309l-0.52735-49.555c0.0128-1.4186-0.17752-1.9742-0.88086-2.8477-4.1217-6.0566-9.3378-8.5386-14.877-8.668zm35.535 0c-5.5392 0.12938-10.753 2.6113-14.875 8.668-0.70334 0.87346-0.89558 1.429-0.88282 2.8477l-0.52734 49.555c6.7156-11.957 16.515-17.08 32.664-8.1309 1.013 0.58488 2.914 1.2808 2.9141-0.94922l-0.20313-42.916c0-1.086-0.35107-2.5182-2.2715-3.627-5.4166-3.3538-11.279-5.5767-16.818-5.4473z" stroke-width="5.2"/>
   <path id="path1502" d="m192.33 33.754c-5.5392-0.12938-11.402 2.0934-16.818 5.4473-1.9204 1.1088-2.2715 2.5409-2.2715 3.627l-0.20313 42.916c0 2.2301 1.903 1.5341 2.916 0.94922 16.149-8.9494 25.947-3.8264 32.662 8.1309l-0.52735-49.555c0.0128-1.4186-0.17752-1.9742-0.88086-2.8477-4.1217-6.0566-9.3378-8.5386-14.877-8.668zm35.535 0c-5.5392 0.12938-10.753 2.6113-14.875 8.668-0.70334 0.87346-0.89558 1.429-0.88282 2.8477l-0.52734 49.555c6.7156-11.957 16.515-17.08 32.664-8.1309 1.013 0.58488 2.914 1.2808 2.9141-0.94922l-0.20313-42.916c0-1.086-0.35107-2.5182-2.2715-3.627-5.4166-3.3538-11.279-5.5767-16.818-5.4473z" stroke-width="5.7"/>
   <path id="path1504" d="m192.33 33.754c-5.5392-0.12938-11.402 2.0934-16.818 5.4473-1.9204 1.1088-2.2715 2.5409-2.2715 3.627l-0.20313 42.916c0 2.2301 1.903 1.5341 2.916 0.94922 16.149-8.9494 25.947-3.8264 32.662 8.1309l-0.52735-49.555c0.0128-1.4186-0.17752-1.9742-0.88086-2.8477-4.1217-6.0566-9.3378-8.5386-14.877-8.668zm35.535 0c-5.5392 0.12938-10.753 2.6113-14.875 8.668-0.70334 0.87346-0.89558 1.429-0.88282 2.8477l-0.52734 49.555c6.7156-11.957 16.515-17.08 32.664-8.1309 1.013 0.58488 2.914 1.2808 2.9141-0.94922l-0.20313-42.916c0-1.086-0.35107-2.5182-2.2715-3.627-5.4166-3.3538-11.279-5.5767-16.818-5.4473z" stroke-width="6.3"/>
   <path id="path1506" d="m192.33 33.754c-5.5392-0.12938-11.402 2.0934-16.818 5.4473-1.9204 1.1088-2.2715 2.5409-2.2715 3.627l-0.20313 42.916c0 2.2301 1.903 1.5341 2.916 0.94922 16.149-8.9494 25.947-3.8264 32.662 8.1309l-0.52735-49.555c0.0128-1.4186-0.17752-1.9742-0.88086-2.8477-4.1217-6.0566-9.3378-8.5386-14.877-8.668zm35.535 0c-5.5392 0.12938-10.753 2.6113-14.875 8.668-0.70334 0.87346-0.89558 1.429-0.88282 2.8477l-0.52734 49.555c6.7156-11.957 16.515-17.08 32.664-8.1309 1.013 0.58488 2.914 1.2808 2.9141-0.94922l-0.20313-42.916c0-1.086-0.35107-2.5182-2.2715-3.627-5.4166-3.3538-11.279-5.5767-16.818-5.4473z" stroke-width="7.3"/>
   <path id="path1508" d="m192.33 33.754c-5.5392-0.12938-11.402 2.0934-16.818 5.4473-1.9204 1.1088-2.2715 2.5409-2.2715 3.627l-0.20313 42.916c0 2.2301 1.903 1.5341 2.916 0.94922 16.149-8.9494 25.947-3.8264 32.662 8.1309l-0.52735-49.555c0.0128-1.4186-0.17752-1.9742-0.88086-2.8477-4.1217-6.0566-9.3378-8.5386-14.877-8.668zm35.535 0c-5.5392 0.12938-10.753 2.6113-14.875 8.668-0.70334 0.87346-0.89558 1.429-0.88282 2.8477l-0.52734 49.555c6.7156-11.957 16.515-17.08 32.664-8.1309 1.013 0.58488 2.914 1.2808 2.9141-0.94922l-0.20313-42.916c0-1.086-0.35107-2.5182-2.2715-3.627-5.4166-3.3538-11.279-5.5767-16.818-5.4473z" stroke-width="7.8"/>
  </g>
  <path id="path1449" d="m12.069 8.7942c-1.542-0.036015-3.1739 0.58275-4.6818 1.5164-0.53459 0.30865-0.63232 0.70733-0.63232 1.0096l-0.056541 11.947c0 0.62079 0.52974 0.42705 0.81174 0.26424 4.4955-2.4913 7.2228-1.0652 9.0922 2.2634l-0.1468-13.795c0.0036-0.39491-0.04942-0.54956-0.24521-0.79271-1.1474-1.686-2.5994-2.3769-4.1413-2.4129zm9.892 0c-1.542 0.036015-2.9934 0.72692-4.1408 2.4129-0.19578 0.24315-0.2493 0.3978-0.24575 0.79271l-0.1468 13.795c1.8694-3.3286 4.5973-4.7547 9.0928-2.2634 0.282 0.16282 0.81119 0.35655 0.8112-0.26424l-0.05654-11.947c0-0.30232-0.09772-0.701-0.63232-1.0096-1.5078-0.93362-3.1398-1.5524-4.6818-1.5164z" fill="#f5f5f5" stroke="url(#linearGradient1982)" stroke-width=".27148"/>
 </g>
</svg>
