<?xml version="1.0" encoding="UTF-8"?>
<svg width="128" height="128" viewBox="0 0 33.867 33.867" xmlns="http://www.w3.org/2000/svg" xmlns:xlink="http://www.w3.org/1999/xlink">
 <defs>
  <linearGradient id="f" x1="132.21" x2="132.21" y1="42.152" y2="70.68" gradientTransform="translate(-111.78 -37.203) scale(.97573)" gradientUnits="userSpaceOnUse">
   <stop stop-color="#ebf3f4" offset="0"/>
   <stop stop-color="#e6e8e9" offset="1"/>
  </linearGradient>
  <linearGradient id="b">
   <stop stop-color="#fff" stop-opacity="0" offset="0"/>
   <stop stop-color="#fff" stop-opacity=".2" offset=".27"/>
   <stop stop-color="#d5e1ee" stop-opacity=".85" offset=".374"/>
   <stop stop-color="#e8edf6" offset=".488"/>
   <stop stop-color="#ebf0f9" stop-opacity=".85" offset=".596"/>
   <stop stop-color="#fff" stop-opacity=".2" offset=".715"/>
   <stop stop-color="#e8e8e8" stop-opacity="0" offset="1"/>
  </linearGradient>
  <linearGradient id="i" x1="-62.747" x2="-33.313" y1="76.556" y2="35.309" gradientTransform="translate(52.064 -10.159) scale(.96123)" gradientUnits="userSpaceOnUse" xlink:href="#b"/>
  <linearGradient id="h" x1="-62.747" x2="-33.313" y1="76.556" y2="35.309" gradientTransform="translate(87.746 -70.643) scale(.96123)" gradientUnits="userSpaceOnUse" xlink:href="#b"/>
  <linearGradient id="k" x1="-62.747" x2="-33.313" y1="76.556" y2="35.309" gradientTransform="translate(44.665 -1.405) scale(.80528)" gradientUnits="userSpaceOnUse" xlink:href="#b"/>
  <linearGradient id="j" x1="-62.747" x2="-33.313" y1="76.556" y2="35.309" gradientTransform="translate(-3.139 -32.172) scale(.80528)" gradientUnits="userSpaceOnUse" xlink:href="#b"/>
  <linearGradient id="m" x1="-62.747" x2="-33.313" y1="76.556" y2="35.309" gradientTransform="translate(36.049 8.574) scale(.62794)" gradientUnits="userSpaceOnUse" xlink:href="#b"/>
  <linearGradient id="l" x1="-62.747" x2="-33.313" y1="76.556" y2="35.309" gradientTransform="translate(-10.251 -21.893) scale(.64884)" gradientUnits="userSpaceOnUse" xlink:href="#b"/>
  <linearGradient id="n" x1="-62.747" x2="-33.313" y1="76.556" y2="35.309" gradientTransform="translate(30.634 14.847) scale(.51648)" gradientUnits="userSpaceOnUse" xlink:href="#b"/>
  <linearGradient id="p" x1="-62.747" x2="-33.313" y1="76.556" y2="35.309" gradientTransform="translate(22.471 24.3) scale(.34847)" gradientUnits="userSpaceOnUse" xlink:href="#b"/>
  <linearGradient id="o" x1="-62.747" x2="-33.313" y1="76.556" y2="35.309" gradientTransform="translate(-25.42 -6.75) scale(.34847)" gradientUnits="userSpaceOnUse" xlink:href="#b"/>
  <linearGradient id="t" x1="48.952" x2="48.952" y1="1032.5" y2="1028" gradientTransform="translate(.42 -332.82) scale(.34956)" gradientUnits="userSpaceOnUse">
   <stop stop-color="#b8c5d3" offset="0"/>
   <stop stop-color="#dfe4e9" offset="1"/>
  </linearGradient>
  <linearGradient id="q" x1="-62.747" x2="-33.313" y1="76.556" y2="35.309" gradientTransform="translate(18.24 29.201) scale(.26139)" gradientUnits="userSpaceOnUse" xlink:href="#b"/>
  <linearGradient id="r" x1="-62.747" x2="-33.313" y1="76.556" y2="35.309" gradientTransform="translate(55.009 -27.7) scale(.26139)" gradientUnits="userSpaceOnUse" xlink:href="#b"/>
  <linearGradient id="s" x1="48.095" x2="48.095" y1="994.35" y2="996.96" gradientTransform="translate(-91.932 -990.28)" gradientUnits="userSpaceOnUse">
   <stop stop-color="#dde2ec" offset="0"/>
   <stop stop-color="#fff" offset="1"/>
  </linearGradient>
  <linearGradient id="g" x1="14.988" x2="14.988" y1="7.046" y2="31.425" gradientUnits="userSpaceOnUse">
   <stop stop-color="#212324" offset="0"/>
   <stop stop-color="#2f2f2f" offset="1"/>
  </linearGradient>
 </defs>
 <g transform="translate(-65.748 -37.203) scale(.97573)" fill="none" opacity=".29677" stroke="#000" stroke-linecap="round" stroke-linejoin="round" stroke-opacity=".02">
  <rect x="69.84" y="40.71" width="29.811" height="29.811" rx="6.61" ry="6.61" stroke-width=".1"/>
  <rect x="69.84" y="40.71" width="29.811" height="29.811" rx="6.61" ry="6.61" stroke-width=".2"/>
  <rect x="69.84" y="40.71" width="29.811" height="29.811" rx="6.61" ry="6.61" stroke-width=".3"/>
  <rect x="69.84" y="40.71" width="29.811" height="29.811" rx="6.61" ry="6.61" stroke-width=".4"/>
  <rect x="69.84" y="40.71" width="29.811" height="29.811" rx="6.61" ry="6.61" stroke-width=".5"/>
  <rect x="69.84" y="40.71" width="29.811" height="29.811" rx="6.61" ry="6.61" stroke-width=".6"/>
  <rect x="69.84" y="40.71" width="29.811" height="29.811" rx="6.61" ry="6.61" stroke-width=".7"/>
  <rect x="69.84" y="40.71" width="29.811" height="29.811" rx="6.61" ry="6.61" stroke-width=".8"/>
  <rect x="69.84" y="40.71" width="29.811" height="29.811" rx="6.61" ry="6.61"/>
  <rect x="69.84" y="40.71" width="29.811" height="29.811" rx="6.61" ry="6.61" stroke-width="1.2"/>
  <rect x="69.84" y="40.71" width="29.811" height="29.811" rx="6.61" ry="6.61" stroke-width="1.4"/>
  <rect x="69.84" y="40.71" width="29.811" height="29.811" rx="6.61" ry="6.61" stroke-width="1.6"/>
  <rect x="69.84" y="40.71" width="29.811" height="29.811" rx="6.61" ry="6.61" stroke-width="1.8"/>
  <rect x="69.84" y="40.71" width="29.811" height="29.811" rx="6.61" ry="6.61" stroke-width="2"/>
  <rect x="69.84" y="40.71" width="29.811" height="29.811" rx="6.61" ry="6.61" stroke-width="2.2"/>
  <rect x="69.84" y="40.71" width="29.811" height="29.811" rx="6.61" ry="6.61" stroke-width="2.6"/>
  <rect x="69.84" y="40.71" width="29.811" height="29.811" rx="6.61" ry="6.61" stroke-width="3"/>
  <rect x="69.84" y="40.71" width="29.811" height="29.811" rx="6.61" ry="6.61" stroke-width="3.4"/>
  <rect x="69.84" y="40.71" width="29.811" height="29.811" rx="6.61" ry="6.61" stroke-width="3.8"/>
  <rect x="69.84" y="40.71" width="29.811" height="29.811" rx="6.61" ry="6.61" stroke-width="4.2"/>
  <rect x="69.84" y="40.71" width="29.811" height="29.811" rx="6.61" ry="6.61" stroke-width="4.6"/>
  <rect x="69.84" y="40.71" width="29.811" height="29.811" rx="6.61" ry="6.61" stroke-width="5"/>
 </g>
 <rect x="2.396" y="2.519" width="29.087" height="29.087" rx="6.449" ry="6.449" fill="url(#f)" stroke-linecap="round" stroke-linejoin="round" stroke-width="2.6877"/>
 <rect x="3.554" y="3.676" width="26.772" height="26.772" rx="5.694" ry="5.694" fill="url(#g)" stroke-linecap="round" stroke-linejoin="round" stroke-width="2.6877"/>
 <path transform="matrix(-.358 -.05326 -.05326 .358 32.953 14.666)" d="M37.462 29.513A25 25 0 0 1 19.778-1.082a25 25 0 0 1 30.577-17.715 25 25 0 0 1 17.744 30.56 25 25 0 0 1-30.542 17.775" fill="#060606"/>
 <path transform="matrix(-.358 -.05326 -.05326 .358 32.953 14.666)" d="M37.591 29.03A24.5 24.5 0 0 1 20.261-.953a24.5 24.5 0 0 1 29.965-17.36 24.5 24.5 0 0 1 17.39 29.948 24.5 24.5 0 0 1-29.931 17.42" fill="#d8e4f4"/>
 <g transform="rotate(8.462 -82.645 230.06) scale(.36194)">
  <path transform="scale(-1 1)" d="M37.723 28.54A23.992 23.992 0 0 1 20.75-.823a23.992 23.992 0 0 1 29.345-17 23.992 23.992 0 0 1 17.03 29.327 23.992 23.992 0 0 1-29.312 17.058" fill="#8193ab"/>
  <circle transform="rotate(195)" cx="41.047" cy="-16.552" r="24" fill="url(#h)"/>
  <circle transform="rotate(90)" cx="5.364" cy="43.932" r="24" fill="url(#i)"/>
  <path transform="scale(-1 1)" d="M38.59 25.304A20.643 20.643 0 0 1 23.986.041a20.643 20.643 0 0 1 25.249-14.627 20.643 20.643 0 0 1 14.652 25.234 20.643 20.643 0 0 1-25.22 14.678" fill="#ced8e7"/>
  <path transform="scale(-1 1)" d="M38.719 24.822A20.143 20.143 0 0 1 24.469.17a20.143 20.143 0 0 1 24.638-14.273A20.143 20.143 0 0 1 63.405 10.52a20.143 20.143 0 0 1-24.61 14.322" fill="#8c98ac"/>
  <path transform="scale(-1 1)" d="M38.848 24.339A19.644 19.644 0 0 1 24.953.299 19.644 19.644 0 0 1 48.979-13.62a19.644 19.644 0 0 1 13.943 24.012A19.644 19.644 0 0 1 38.923 24.36" fill="#8f9eb2"/>
  <circle transform="rotate(10.313)" cx="-42.262" cy="13.143" r="20.106" fill="url(#j)" opacity=".7"/>
  <path transform="scale(-1 1)" d="M39.66 21.31A16.507 16.507 0 0 1 27.983 1.107a16.507 16.507 0 0 1 20.19-11.697A16.507 16.507 0 0 1 59.89 9.59a16.507 16.507 0 0 1-20.167 11.737" fill="#7f8fa5"/>
  <circle transform="rotate(90.23)" cx="5.541" cy="43.91" r="20.106" fill="url(#k)" opacity=".8"/>
  <path transform="scale(-1 1)" d="M39.771 20.893A16.077 16.077 0 0 1 28.4 1.22a16.077 16.077 0 0 1 19.663-11.392A16.077 16.077 0 0 1 59.473 9.48a16.077 16.077 0 0 1-19.64 11.43" fill="#93a0b3"/>
  <circle transform="rotate(12.326)" cx="-41.774" cy="14.619" r="16.2" fill="url(#l)" opacity=".9"/>
  <circle transform="rotate(90.23)" cx="5.541" cy="43.91" r="15.679" fill="url(#m)" opacity=".9"/>
  <path transform="scale(-1 1)" d="M40.597 17.812a12.887 12.887 0 0 1-9.116-15.77A12.887 12.887 0 0 1 47.243-7.09 12.887 12.887 0 0 1 56.39 8.663a12.887 12.887 0 0 1-15.744 9.162" fill="#b9c4d2"/>
  <path transform="scale(-1 1)" d="m40.726 17.33a12.387 12.387 0 0 1-8.762-15.16 12.387 12.387 0 0 1 15.15-8.777 12.387 12.387 0 0 1 8.793 15.142 12.387 12.387 0 0 1-15.133 8.807" fill="#8696a9"/>
  <path transform="scale(-1 1)" d="M41.438 14.674A9.637 9.637 0 0 1 34.62 2.879 9.637 9.637 0 0 1 46.408-3.95a9.637 9.637 0 0 1 6.84 11.781 9.637 9.637 0 0 1-11.773 6.852" fill="#0ff"/>
  <path transform="scale(-1 1)" d="m40.87 16.795a11.833 11.833 0 0 1-8.371-14.482 11.833 11.833 0 0 1 14.473-8.385 11.833 11.833 0 0 1 8.4 14.465 11.833 11.833 0 0 1-14.457 8.414" fill="#a1aec1"/>
  <circle transform="rotate(90.23)" cx="5.541" cy="43.91" r="12.895" fill="url(#n)" opacity=".7"/>
  <path transform="scale(-1 1)" d="M41.567 14.19a9.137 9.137 0 0 1-6.463-11.182A9.137 9.137 0 0 1 46.28-3.466a9.137 9.137 0 0 1 6.485 11.17A9.137 9.137 0 0 1 41.602 14.2" fill="#c0c8d1"/>
  <path transform="scale(-1 1)" d="m42.153 12.006a6.876 6.876 0 0 1-4.864-8.415 6.876 6.876 0 0 1 8.41-4.872 6.876 6.876 0 0 1 4.88 8.405 6.876 6.876 0 0 1-8.4 4.89" fill="#0ff"/>
  <path transform="scale(-1 1)" d="m41.68 13.77a8.702 8.702 0 0 1-6.156-10.65 8.702 8.702 0 0 1 10.644-6.166 8.702 8.702 0 0 1 6.177 10.638 8.702 8.702 0 0 1-10.632 6.187" fill="#8695a6"/>
  <circle transform="rotate(9.928)" cx="-42.349" cy="12.859" r="8.701" fill="url(#o)" opacity=".7"/>
  <circle transform="rotate(90.23)" cx="5.541" cy="43.91" r="8.701" fill="url(#p)" opacity=".7"/>
  <path transform="scale(-1 1)" d="m42.243 11.67a6.528 6.528 0 0 1-4.618-7.989 6.528 6.528 0 0 1 7.984-4.626 6.528 6.528 0 0 1 4.634 7.98 6.528 6.528 0 0 1-7.975 4.642" fill="#5a6878"/>
  <path transform="scale(-1 1)" d="m42.355 11.25a6.093 6.093 0 0 1-4.31-7.457 6.093 6.093 0 0 1 7.453-4.317 6.093 6.093 0 0 1 4.325 7.448 6.093 6.093 0 0 1-7.445 4.332" fill="#99a6b5"/>
  <circle transform="rotate(90.23)" cx="5.541" cy="43.91" r="6.526" fill="url(#q)" opacity=".7"/>
  <circle transform="rotate(190.11)" cx="42.309" cy="-12.99" r="6.526" fill="url(#r)" opacity=".5"/>
  <path d="m-44.318 6.806a1.492 1.492 0 0 1-1.056-1.826 1.492 1.492 0 0 1 1.825-1.058 1.492 1.492 0 0 1 1.06 1.824 1.492 1.492 0 0 1-1.824 1.061" fill="url(#s)" opacity=".75"/>
  <path d="M-44.191 6.33a1 1 0 0 1-.707-1.223 1 1 0 0 1 1.223-.709 1 1 0 0 1 .71 1.222 1 1 0 0 1-1.222.711"/>
 </g>
 <rect transform="rotate(.16)" x="10.222" y="25.508" width="13.586" height="3.354" rx=".328" ry=".328" fill="#020303" opacity=".3"/>
 <rect transform="rotate(.16)" x="10.222" y="25.158" width="13.586" height="3.354" rx=".328" ry=".328" fill="url(#t)"/>
 <path d="M10.144 28.038v.174a.328.328 0 0 0 .326.33l12.931.036a.327.327 0 0 0 .329-.328v-.174a.327.327 0 0 1-.328.327l-12.931-.036a.327.327 0 0 1-.327-.329z" fill="#c4d3e1"/>
 <path d="M10.48 25.188a.327.327 0 0 0-.329.327v.175c0-.182.147-.328.328-.327l12.931.036c.182 0 .327.147.327.328v-.174a.327.327 0 0 0-.326-.329z" fill="#fff"/>
 <path d="M14.066 25.803a1.33 1.33 0 0 0-.48.11 1.31 1.31 0 0 0-.369.239 1.064 1.064 0 0 0-.227.297.845.845 0 0 0-.09.306c-.006.1.008.188.045.266a.362.362 0 0 0 .17.173c.078.039.176.05.293.031a.476.476 0 0 0 .202-.075.577.577 0 0 0 .243-.538c-.004-.018-.013-.028-.027-.03a.049.049 0 0 0-.04.012.06.06 0 0 0-.021.043.4.4 0 0 1-.01.211.46.46 0 0 1-.25.272.317.317 0 0 1-.158.03.19.19 0 0 1-.13-.066.287.287 0 0 1-.058-.177.904.904 0 0 1 .052-.304.954.954 0 0 1 .579-.626 1.33 1.33 0 0 1 .44-.088 1.13 1.13 0 0 1 .182.01c.057.007.113.017.168.028a1.345 1.345 0 0 0 .265.038 1.32 1.32 0 0 0-.163.159 2.707 2.707 0 0 0-.131.166c-.062.084-.144.204-.249.358l-.25.367c-.09.127-.178.25-.265.367a4.028 4.028 0 0 1-.241.298.93.93 0 0 1-.123.114.623.623 0 0 1-.144.084.438.438 0 0 1-.165.035c-.012.005-.02.01-.024.018-.003.008 0 .014.006.02a.187.187 0 0 0 .072.015.852.852 0 0 0 .241-.014.946.946 0 0 1 .301-.007c.094.014.183.037.268.07.086.033.17.07.25.108.079.037.157.07.235.102.08.031.161.053.246.066a.859.859 0 0 0 .267-.002.57.57 0 0 0 .234-.101.88.88 0 0 0 .197-.197c.059-.079.11-.166.154-.262.007-.017.005-.029-.004-.034-.01-.006-.02-.004-.034.006a.542.542 0 0 1-.116.193.447.447 0 0 1-.19.11.833.833 0 0 1-.27.04 1.567 1.567 0 0 1-.288-.03 4.327 4.327 0 0 1-.417-.105 2.01 2.01 0 0 0-.256-.065 1.26 1.26 0 0 0-.303-.01.54.54 0 0 0 .06-.05c.07-.067.143-.153.222-.255.079-.104.16-.217.24-.338.082-.122.162-.242.24-.362a15.059 15.059 0 0 1 .366-.542l.097-.14a1.74 1.74 0 0 1 .114-.144.763.763 0 0 1 .127-.116.327.327 0 0 1 .138-.06c.005-.001.008-.004.007-.01a.014.014 0 0 0-.004-.013c-.003-.005-.009-.008-.016-.009a.657.657 0 0 0-.165.028 1.221 1.221 0 0 1-.314.031 3.086 3.086 0 0 1-.304-.026 4.05 4.05 0 0 0-.279-.025 1.389 1.389 0 0 0-.146 0zm6.53.378a.117.117 0 0 0-.085.037.118.118 0 0 0-.032.085c0 .033.013.061.036.084a.117.117 0 0 0 .087.034.112.112 0 0 0 .082-.038.116.116 0 0 0 .034-.085.115.115 0 0 0-.037-.084.111.111 0 0 0-.085-.033zm-5.538.467a.25.25 0 0 0-.13.039.396.396 0 0 0-.102.097.68.68 0 0 0-.08.133c-.02.048-.039.099-.053.15a1.009 1.009 0 0 0-.04.274c.001.057.01.104.028.141a.17.17 0 0 0 .068.08.18.18 0 0 0 .096.025.13.13 0 0 0 .073-.03.451.451 0 0 0 .08-.078.767.767 0 0 0 .073-.108.23.23 0 0 0 .024.117c.017.03.04.053.07.068a.182.182 0 0 0 .129.018.273.273 0 0 0 .115-.065.972.972 0 0 0 .152-.18c.014-.02.025-.04.037-.059a.339.339 0 0 0-.003.164c.015.052.044.09.087.11a.182.182 0 0 0 .128.019.283.283 0 0 0 .115-.066.766.766 0 0 0 .133-.162l-.09.26a1.58 1.58 0 0 0-.157.086.493.493 0 0 0-.127.117.367.367 0 0 0-.068.17.265.265 0 0 0 .034.177c.031.052.08.086.148.102a.17.17 0 0 0 .137-.036.378.378 0 0 0 .116-.172l.146-.423a.948.948 0 0 0 .12-.072 1.44 1.44 0 0 0 .094-.07c.055-.05.106-.109.153-.177l.043-.068-.11.32.237-.005c.014-.029.034-.075.059-.137a8.71 8.71 0 0 1 .088-.211 3.05 3.05 0 0 1 .108-.225.99.99 0 0 1 .116-.174c.04-.046.077-.069.114-.069.006.001.01.003.014.005a.02.02 0 0 1 .01.01c.011.024.011.058 0 .101a.4.4 0 0 1-.077.14l.28-.069a.584.584 0 0 0 .02-.177.173.173 0 0 0-.024-.073.126.126 0 0 0-.058-.048.227.227 0 0 0-.102-.016.27.27 0 0 0-.139.047.444.444 0 0 0-.088.079.696.696 0 0 0-.086.133l.087-.254-.237.005-.124.361a6.277 6.277 0 0 1-.129.21.98.98 0 0 1-.143.162 1.123 1.123 0 0 1-.182.14l.299-.87-.238.006-.001.003a.663.663 0 0 0-.007.024l-.048.136c-.04.11-.085.21-.133.303s-.095.17-.141.233a.373.373 0 0 1-.125.12c-.023.007-.037-.003-.041-.03a.313.313 0 0 1 .017-.122l.226-.658-.237.005-.13.38-.104.169a1.56 1.56 0 0 1-.131.182c-.044.052-.083.084-.12.094-.023.005-.036-.007-.04-.036a.327.327 0 0 1 .02-.124l.226-.659-.238.006-.032.093a.19.19 0 0 0-.08-.068.268.268 0 0 0-.125-.022zm2.824-.06a.253.253 0 0 0-.121.033.418.418 0 0 0-.105.089.62.62 0 0 0-.083.125.865.865 0 0 0-.088.303.613.613 0 0 0 .004.147c.007.046.02.087.04.123a.21.21 0 0 0 .078.084.23.23 0 0 0 .125.029.24.24 0 0 0 .104-.025.342.342 0 0 0 .09-.064.503.503 0 0 0 .072-.094.848.848 0 0 0 .058-.114.515.515 0 0 0 .23-.139l-.146.428.236-.006a3 3 0 0 0 .059-.137 8.71 8.71 0 0 1 .088-.211c.034-.078.07-.153.108-.225a.99.99 0 0 1 .116-.174c.04-.046.077-.069.115-.069l.012.005a.018.018 0 0 1 .012.01.162.162 0 0 1-.003.084.738.738 0 0 1-.027.09l-.095.274a.383.383 0 0 0-.015.209c.016.052.045.09.088.11a.182.182 0 0 0 .128.019.273.273 0 0 0 .114-.066.972.972 0 0 0 .153-.18 2 2 0 0 0 .2-.382 2.195 2.195 0 0 0 .07-.182l.09.346-.327.46.225-.006.162-.227a.66.66 0 0 0 .038.115c.017.037.04.064.07.082a.163.163 0 0 0 .127.02.296.296 0 0 0 .116-.067.972.972 0 0 0 .152-.18c.018-.025.033-.05.049-.076a.35.35 0 0 0-.008.18c.015.054.044.09.087.111a.18.18 0 0 0 .13.019.274.274 0 0 0 .113-.066.946.946 0 0 0 .154-.179 1.43 1.43 0 0 0 .07-.116c-.001.04 0 .077.006.113.006.046.02.087.039.123a.22.22 0 0 0 .079.084.23.23 0 0 0 .124.029.24.24 0 0 0 .105-.025.342.342 0 0 0 .09-.064.503.503 0 0 0 .072-.094.848.848 0 0 0 .058-.114.515.515 0 0 0 .351-.336c.01-.028.012-.045.006-.05-.004-.008-.01-.004-.02.008a2.92 2.92 0 0 1-.036.06.685.685 0 0 1-.079.105.339.339 0 0 1-.089.074.329.329 0 0 1-.096.034c.014-.052.025-.103.033-.152a.812.812 0 0 0 .01-.134.322.322 0 0 0-.017-.094.222.222 0 0 0-.046-.08.198.198 0 0 0-.077-.054.286.286 0 0 0-.236.017.418.418 0 0 0-.104.088.62.62 0 0 0-.083.126.865.865 0 0 0-.057.148l-.007.026c-.025.043-.05.085-.08.131a1.66 1.66 0 0 1-.132.183.267.267 0 0 1-.118.093c-.024.005-.038-.007-.04-.035a.375.375 0 0 1 .019-.125l.225-.658-.236.005-.124.361a3.446 3.446 0 0 1-.22.337.603.603 0 0 1-.1.104c-.023.018-.043.022-.058.012-.015-.01-.027-.031-.038-.064l-.062-.25.35-.494-.224.005-.183.257-.062-.252-.226.006a1.417 1.417 0 0 1-.136.415l-.082.133c-.043.07-.087.13-.131.182-.043.053-.083.084-.12.094-.023.005-.036-.007-.04-.036a.327.327 0 0 1 .02-.124l.052-.15.013-.037.03-.09a.975.975 0 0 0 .029-.102.5.5 0 0 0 .011-.103.212.212 0 0 0-.017-.088.12.12 0 0 0-.057-.06.218.218 0 0 0-.172-.01.327.327 0 0 0-.081.044.495.495 0 0 0-.09.084.738.738 0 0 0-.088.136l.093-.271-.237.005-.124.362a.755.755 0 0 1-.058.075.339.339 0 0 1-.09.074.328.328 0 0 1-.096.033 1.17 1.17 0 0 0 .033-.15.812.812 0 0 0 .01-.135.322.322 0 0 0-.016-.094.222.222 0 0 0-.046-.08.198.198 0 0 0-.077-.054.288.288 0 0 0-.115-.018zm.062.103c.014 0 .024.011.029.036a.316.316 0 0 1 0 .093 1.66 1.66 0 0 1-.058.276.252.252 0 0 1-.105-.084.142.142 0 0 1-.02-.116.99.99 0 0 1 .051-.103.389.389 0 0 1 .053-.073c.017-.02.034-.03.05-.03zm3.264-.074c.014 0 .024.011.028.036a.316.316 0 0 1 .001.093 1.66 1.66 0 0 1-.058.276.252.252 0 0 1-.105-.084.142.142 0 0 1-.02-.116.899.899 0 0 1 .051-.103.389.389 0 0 1 .053-.073c.017-.02.034-.029.05-.03zm-6.06.138c.01 0 .022.006.033.018a.108.108 0 0 1 .023.058.19.19 0 0 1-.002.078c-.006.026-.02.071-.043.137a1.71 1.71 0 0 1-.18.317.341.341 0 0 1-.059.06c-.017.012-.032.015-.043.01-.01-.007-.017-.026-.017-.058a.664.664 0 0 1 .025-.175 1.52 1.52 0 0 1 .071-.205.838.838 0 0 1 .095-.17c.033-.045.066-.068.097-.07zm2.57.346a.254.254 0 0 0 .151.123.72.72 0 0 1-.046.094.296.296 0 0 1-.05.064.078.078 0 0 1-.048.024c-.016 0-.027-.008-.034-.023a.194.194 0 0 1-.01-.068c0-.03.004-.062.01-.098.006-.036.016-.075.027-.116zm3.264-.073a.254.254 0 0 0 .15.123.718.718 0 0 1-.045.093.296.296 0 0 1-.05.064c-.016.016-.032.024-.048.024s-.028-.007-.035-.023a.194.194 0 0 1-.009-.068.944.944 0 0 1 .037-.213zm-5.066.72-.071.208c-.035.087-.065.124-.093.11a.067.067 0 0 1-.015-.012.086.086 0 0 1-.016-.033.139.139 0 0 1-.003-.057.218.218 0 0 1 .041-.097.376.376 0 0 1 .076-.07.763.763 0 0 1 .08-.048z" fill="#262626"/>
</svg>
