<?xml version="1.0" encoding="UTF-8"?>
<svg id="svg1820" width="128" height="128" version="1.1" viewBox="0 0 33.867 33.867" xmlns="http://www.w3.org/2000/svg" xmlns:cc="http://creativecommons.org/ns#" xmlns:dc="http://purl.org/dc/elements/1.1/" xmlns:rdf="http://www.w3.org/1999/02/22-rdf-syntax-ns#" xmlns:xlink="http://www.w3.org/1999/xlink">
 <defs id="defs1814">
  <linearGradient id="linearGradient2042" x1="26.124" x2="4.9738" y1="6.4082" y2="28.952" gradientTransform="translate(.01014 .093377)" gradientUnits="userSpaceOnUse">
   <stop id="stop2036" offset="0"/>
   <stop id="stop2038" offset="1"/>
  </linearGradient>
  <linearGradient id="linearGradient1522" x1="616.53" x2="663.6" y1="41.62" y2="338.84" gradientTransform="matrix(.28784 .045582 -.045582 .28784 -114.84 -18.935)" gradientUnits="userSpaceOnUse">
   <stop id="stop1516" stop-color="#0193cd" offset="0"/>
   <stop id="stop1524" stop-color="#b4f7f9" offset=".68887"/>
   <stop id="stop1528" stop-color="#1a7bbd" offset=".70104"/>
   <stop id="stop1526" stop-color="#029daf" offset=".78844"/>
   <stop id="stop1518" stop-color="#40c5c2" offset="1"/>
  </linearGradient>
  <radialGradient id="radialGradient1545" cx="673.71" cy="270.53" r="151.12" gradientTransform="matrix(.86846 -.14075 .062193 .38373 79.926 206.89)" gradientUnits="userSpaceOnUse">
   <stop id="stop1868" stop-color="#fff" offset="0"/>
   <stop id="stop1870" stop-color="#fff" stop-opacity="0" offset="1"/>
  </radialGradient>
  <linearGradient id="linearGradient1581" x1="130.77" x2="71.494" y1="229.86" y2="231.29" gradientTransform="matrix(.26133 .041383 -.041383 .26133 -136.02 -53.847)" gradientUnits="userSpaceOnUse">
   <stop id="stop1575" stop-color="#fff" stop-opacity=".48352" offset="0"/>
   <stop id="stop1577" stop-color="#fff" stop-opacity=".18132" offset="1"/>
  </linearGradient>
  <linearGradient id="linearGradient1717" x1="-231.64" x2="-151.11" y1="224.21" y2="224.21" gradientTransform="matrix(.28784 .045582 -.045582 .28784 166.34 -7.4978)" gradientUnits="userSpaceOnUse" xlink:href="#linearGradient1699"/>
  <linearGradient id="linearGradient1699">
   <stop id="stop1695" stop-color="#fff" stop-opacity=".15934" offset="0"/>
   <stop id="stop1697" stop-color="#fff" stop-opacity=".56593" offset="1"/>
  </linearGradient>
  <linearGradient id="linearGradient1741" x1="-222.48" x2="-154.87" y1="261.17" y2="261.17" gradientTransform="matrix(.26133 .041383 -.041383 .26133 8.8025 -52.707)" gradientUnits="userSpaceOnUse" xlink:href="#linearGradient1699"/>
  <linearGradient id="linearGradient1749" x1="-210.17" x2="-163.96" y1="284.06" y2="284.06" gradientTransform="matrix(.26133 .041383 -.041383 .26133 8.8025 -52.707)" gradientUnits="userSpaceOnUse" xlink:href="#linearGradient1699"/>
  <linearGradient id="linearGradient1733" x1="-405.71" x2="-323.72" y1="318.44" y2="318.44" gradientTransform="matrix(.26133 .041383 -.041383 .26133 8.8025 -52.707)" gradientUnits="userSpaceOnUse" xlink:href="#linearGradient1699"/>
  <linearGradient id="linearGradient1701" x1="-345.16" x2="-317.08" y1="245.65" y2="245.65" gradientTransform="matrix(.26133 .041383 -.041383 .26133 8.8025 -52.707)" gradientUnits="userSpaceOnUse" xlink:href="#linearGradient1699"/>
  <linearGradient id="linearGradient1693" x1="-395.99" x2="-388.04" y1="238.74" y2="238.74" gradientTransform="matrix(.26133 .041383 -.041383 .26133 8.8025 -52.707)" gradientUnits="userSpaceOnUse">
   <stop id="stop1687" stop-color="#fff" stop-opacity=".21429" offset="0"/>
   <stop id="stop1689" stop-color="#fff" stop-opacity=".57143" offset="1"/>
  </linearGradient>
  <linearGradient id="linearGradient1709" x1="-279.43" x2="-267.7" y1="215.54" y2="215.54" gradientTransform="matrix(.26133 .041383 -.041383 .26133 8.8025 -52.707)" gradientUnits="userSpaceOnUse" xlink:href="#linearGradient1699"/>
  <linearGradient id="linearGradient1725" x1="-283.57" x2="-266.08" y1="250.73" y2="250.73" gradientTransform="matrix(.26133 .041383 -.041383 .26133 8.8025 -52.707)" gradientUnits="userSpaceOnUse" xlink:href="#linearGradient1699"/>
 </defs>
 <metadata id="metadata1817">
  <rdf:RDF>
   <cc:Work rdf:about="">
    <dc:format>image/svg+xml</dc:format>
    <dc:type rdf:resource="http://purl.org/dc/dcmitype/StillImage"/>
   </cc:Work>
  </rdf:RDF>
 </metadata>
 <g id="layer1">
  <g id="g1702" transform="matrix(.97573 0 0 .97573 -65.738 -37.11)" fill="none" opacity=".295" stroke="#000" stroke-linecap="round" stroke-linejoin="round" stroke-opacity=".02">
   <rect id="rect1634" x="69.84" y="40.71" width="29.811" height="29.811" rx="6.6099" ry="6.6099" stroke-width=".1"/>
   <rect id="rect1638" x="69.84" y="40.71" width="29.811" height="29.811" rx="6.6099" ry="6.6099" stroke-width=".2"/>
   <rect id="rect1640" x="69.84" y="40.71" width="29.811" height="29.811" rx="6.6099" ry="6.6099" stroke-width=".3"/>
   <rect id="rect1642" x="69.84" y="40.71" width="29.811" height="29.811" rx="6.6099" ry="6.6099" stroke-width=".4"/>
   <rect id="rect1644" x="69.84" y="40.71" width="29.811" height="29.811" rx="6.6099" ry="6.6099" stroke-width=".5"/>
   <rect id="rect1646" x="69.84" y="40.71" width="29.811" height="29.811" rx="6.6099" ry="6.6099" stroke-width=".6"/>
   <rect id="rect1648" x="69.84" y="40.71" width="29.811" height="29.811" rx="6.6099" ry="6.6099" stroke-width=".7"/>
   <rect id="rect1650" x="69.84" y="40.71" width="29.811" height="29.811" rx="6.6099" ry="6.6099" stroke-width=".8"/>
   <rect id="rect1652" x="69.84" y="40.71" width="29.811" height="29.811" rx="6.6099" ry="6.6099"/>
   <rect id="rect1654" x="69.84" y="40.71" width="29.811" height="29.811" rx="6.6099" ry="6.6099" stroke-width="1.2"/>
   <rect id="rect1656" x="69.84" y="40.71" width="29.811" height="29.811" rx="6.6099" ry="6.6099" stroke-width="1.4"/>
   <rect id="rect1658" x="69.84" y="40.71" width="29.811" height="29.811" rx="6.6099" ry="6.6099" stroke-width="1.6"/>
   <rect id="rect1660" x="69.84" y="40.71" width="29.811" height="29.811" rx="6.6099" ry="6.6099" stroke-width="1.8"/>
   <rect id="rect1662" x="69.84" y="40.71" width="29.811" height="29.811" rx="6.6099" ry="6.6099" stroke-width="2"/>
   <rect id="rect1664" x="69.84" y="40.71" width="29.811" height="29.811" rx="6.6099" ry="6.6099" stroke-width="2.2"/>
   <rect id="rect1666" x="69.84" y="40.71" width="29.811" height="29.811" rx="6.6099" ry="6.6099" stroke-width="2.6"/>
   <rect id="rect1668" x="69.84" y="40.71" width="29.811" height="29.811" rx="6.6099" ry="6.6099" stroke-width="3"/>
   <rect id="rect1670" x="69.84" y="40.71" width="29.811" height="29.811" rx="6.6099" ry="6.6099" stroke-width="3.4"/>
   <rect id="rect1672" x="69.84" y="40.71" width="29.811" height="29.811" rx="6.6099" ry="6.6099" stroke-width="3.8"/>
   <rect id="rect1674" x="69.84" y="40.71" width="29.811" height="29.811" rx="6.6099" ry="6.6099" stroke-width="4.2"/>
   <rect id="rect1676" x="69.84" y="40.71" width="29.811" height="29.811" rx="6.6099" ry="6.6099" stroke-width="4.6"/>
   <rect id="rect1678" x="69.84" y="40.71" width="29.811" height="29.811" rx="6.6099" ry="6.6099" stroke-width="5"/>
  </g>
  <rect id="rect849" x="2.4064" y="2.612" width="29.087" height="29.087" rx="6.4495" ry="6.4495" fill="url(#linearGradient2042)" stroke-linecap="round" stroke-linejoin="round" stroke-width="2.688"/>
  <g id="g6737" transform="matrix(.29142 0 0 .29142 41.455 13.47)">
   <g id="g1566" transform="matrix(.26133 .041383 -.041383 .26133 -246.48 -63.091)">
    <path id="path1514" transform="matrix(3.3892 -.53671 .53671 3.3892 399.38 2.5379)" d="m34.061 18.033c-9.4315 0-17.025 7.5939-17.025 17.025v59.93c0 7.8483 5.2652 14.406 12.465 16.393l69.725-0.18945c6.8536-2.1992 11.791-8.6004 11.791-16.203v-59.93c0-8.7333-6.5148-15.879-14.967-16.891l-26.479-0.13477z" fill="url(#linearGradient1522)"/>
    <path id="path1530" transform="matrix(3.3892 -.53671 .53671 3.3892 399.38 2.5379)" d="m17.035 47.559v1.5781c0.74623 0.375 1.6 0.41148 2.4082 0.56445 0.74692 0.21349 1.5856 0.08705 2.2246-0.35938 0.0109-0.36049-0.09872-0.7158-0.27539-1.0273-0.1703-0.26761-0.36124-0.57901-0.68359-0.67383-0.0719-0.01915-0.14193-0.03-0.21289-0.03516-0.4968-0.03576-0.97423 0.23285-1.4707 0.25586-0.67182-0.03338-1.3262-0.20411-1.9902-0.30273zm13.703 3.9922c-2.1826 0.24126-4.3685 0.45446-6.5547 0.66016 0.25358 0.30417 0.50618 0.60792 0.75976 0.91211l1.4375 0.12305c0.703 0.13635 1.3866 0.36375 2.082 0.53711 0.6397 0.25322 1.2496 0.5831 1.877 0.86719 0.81403 0.14325 1.6316 0.26138 2.4473 0.39453l0.78516-0.66992c-0.7073-0.40426-1.4182-0.80236-2.1523-1.1562-0.53789-0.36528-0.64788-1.0659-0.68164-1.668zm8.6738 2.7285c-0.54538 0.0143-1.1011 0.1582-1.6191 0.30664-1.3427-0.27558-2.0203 1.4755-3.3379 1.332 2.8152 0.87587 5.7195 1.4277 8.541 2.2812 1.2355 0.22038 2.3214 0.8681 3.375 1.5176 1.0852 0.765 2.4311 0.83185 3.6816 1.1309 2.199 0.38995 3.9425 1.9065 6.0195 2.6113 1.9171 0.60296 3.9426 0.41837 5.9043 0.19141-1.4769-0.11584-2.0717-1.726-3.2871-2.334-1.6531-0.43557-3.0525-1.4539-4.5371-2.2578-1.2637-0.44702-2.1886-1.4503-3.3145-2.1309-1.3435-0.54712-2.9424-0.88535-4.3438-0.35156-0.9085 0.56145-2.2019 1.2592-2.9512 0.04883-0.64981-0.95911-1.8279-1.1901-2.6641-1.9414-0.29066-0.20494-0.60322-0.31922-0.92578-0.37109-0.17741-0.02854-0.35922-0.03797-0.54102-0.0332z" fill="#fff" fill-opacity=".66484"/>
    <path id="path1534" d="m724.61 98.016a80.684 154.03 76.892 0 0-59.877 7.4805 80.684 154.03 76.892 0 0-131.33 113.56 80.684 154.03 76.892 0 0 43.65 41.061l218.17-39.572a80.684 154.03 76.892 0 0 38.189-71.48l-0.0606-0.25391a80.684 154.03 76.892 0 0-108.74-50.791z" fill="url(#radialGradient1545)" style="paint-order:fill markers stroke"/>
   </g>
   <path id="path1570" d="m-128.04 9.9841c0.0314-0.60067 0.89625 0.077718 1.1384-0.43054 1.1507-0.30585 2.2944 0.41804 3.4404 0.15374 0.52014-0.17694 0.4748-0.93475 1.1411-0.68907 0.75297 0.037076 1.4793 0.25318 2.2063 0.43381 0.592-0.27726-0.0427-1.301 0.4518-1.5678 0.5191 0.39615 0.75958 1.0501 1.1892 1.5351 0.36784 0.5565 0.94523 0.85442 1.4994 1.1805 0.57828 0.522 1.3721 0.02186 1.79-0.45907 0.18907-0.63957 0.85406-0.45443 1.3876-0.53232 0.64254-0.093774 1.1935 0.25656 1.6485 0.65458 0.32368 0.09277 0.55387 1.0301 0.13941 0.59049 0.17501-0.61865 0.9148-0.88052 1.4985-0.92506 0.91553 0.058763 0.21807 1.0755-0.073 1.4774-0.35711 0.49608-0.70313 1.1851-0.32467 1.7683 0.70355-0.30524 1.0757 1.2385 0.67281 1.2745-0.96869-0.21772-1.7607-0.87038-2.604-1.3486-0.77849-0.77291-1.792-1.3728-2.9164-1.3769-1.5742-0.2633-3.1675-0.46653-4.7287-0.77466-0.36835-0.09405-1.1182-0.79448-1.3129-0.40105 0.1317 0.58732 1.0594 0.57084 1.2457 0.92129-0.59771 0.11318-1.2513 0.16793-1.7909-0.17964-0.53016-0.2545-0.9524-0.73978-1.5147-0.90481-0.0999 0.37765 0.0186 1.0988-0.65634 0.79826-1.1473-0.0088-1.9372-1.0935-3.0787-1.1277-0.14973-0.02237-0.29937-0.04634-0.44864-0.070779z" fill="url(#linearGradient1581)"/>
   <path id="path1583" transform="matrix(.9079 0 0 .9079 -142.22 -45.9)" d="m108.55 46.08c-3.2276-0.0999-6.5802 0.87191-9.7637 0.02734-2.181 2.8896-7.9924-1.1624-9.7383 2.8457 2.03 0.89568 4.1397 1.6605 6.3418 1.9941 4.4415 0.61386 8.7994-0.20072 12.727-2.3125 0.62788 0.01322 1.8401 0.10763 2.8965 0.07422v-2.2871c-0.80952-0.21713-1.6319-0.31608-2.4629-0.3418z" fill="url(#linearGradient1717)"/>
   <path id="path1585" d="m-60.421 8.1454c5.5029 0.32668 10.782-1.6406 16.004-3.0241 2.6934-0.036705 3.3 4.1818-0.02694 2.4233-4.1517 0.052919-7.7562 2.7544-11.941 2.674-1.5381 0.27447-4.6523 0.37789-4.0359-2.0732z" fill="url(#linearGradient1741)"/>
   <path id="path1587" d="m-57.912 13.063c4.0968 0.04164 8.4569-1.8504 12.34 0.23045-2.1113 2.8855-6.4492-0.77295-8.8318 1.9754-1.4888 0.0011-2.5932-1.1796-3.5086-2.2059z" fill="url(#linearGradient1749)"/>
   <path id="path1589" d="m-107.87 19.74c-2.7747 0.21676-6.9023-0.43575-8.4692 2.3734 3.0027 1.2811 6.0402-0.8145 8.4692-2.3734z" fill="#fff" fill-opacity=".47253"/>
   <path id="path1591" transform="matrix(.9079 0 0 .9079 -142.22 -45.9)" d="m20.678 73.645c-1.1296-0.04585-2.4309 0.60142-3.6426 0.80664v0.94141c1.588 0.66578 3.736-0.64521 5.4062-0.6875-0.4895-0.75939-1.0969-1.0335-1.7637-1.0605z" fill="#fff" fill-opacity=".47253"/>
   <path id="path1593" d="m-107.93 12.334c2.2362-2.4958 8.1542-3.4572 6.6408 1.5929-1.7583 1.6164-6.0012 0.86045-6.6408-1.5929z" fill="#fff" fill-opacity=".47253"/>
   <path id="path1595" d="m-110.24 14.449c3.6981 2.8316 8.8989 2.0342 12.768-0.0077 2.6431-1.2578 10.075-1.9637 8.433 2.5678-3.2037 2.3449-7.4473-0.04542-11.065 0.31725-3.527-0.31023-7.752 1.1755-10.624-1.5352 0.14779-0.45293 0.30754-0.90089 0.4873-1.3422z" fill="url(#linearGradient1733)"/>
   <path id="path1597" d="m-91.667-2.1449c-0.2232 4.3722 6.6578 3.5312 6.0698 0.14277 3.2907-0.57717 1.0429-4.4486-1.434-2.5501-1.5923 0.71039-2.8229 2.2113-4.6357 2.4073z" fill="url(#linearGradient1701)"/>
   <path id="path1599" d="m-104.42-7.2466c-1.0132 2.4606 4.391 0.76864 0.56756 0.086342l-0.27598-0.094419z" fill="url(#linearGradient1693)"/>
   <path id="path1601" d="m-71.607-9.4474c-4.0545 0.48499 1.544 6.3777 1.4834 1.9013-0.31926-0.77993-1.3347-1.0177-1.4834-1.9013z" fill="url(#linearGradient1709)"/>
   <path id="path1603" d="m-72.561 0.46969c-1.9195-1.862-5.3154 2.9787-1.5533 1.9376 1.443 0.24659 5.1839-1.2934 1.5533-1.9376z" fill="url(#linearGradient1725)"/>
   <path id="path1605" d="m-126.04 25.492c0.82895 2.3226 7.4899 2.111 5.8548-0.26797-1.9615-0.11699-3.9302 1.0791-5.8548 0.26797z" fill="#fff" fill-opacity=".47253"/>
  </g>
 </g>
</svg>
