<?xml version="1.0" encoding="UTF-8"?>
<svg id="svg22" width="64" height="64" version="1.1" viewBox="0 0 64 64" xmlns="http://www.w3.org/2000/svg" xmlns:xlink="http://www.w3.org/1999/xlink">
 <defs id="defs10">
  <filter id="filter1057-2" x="-.027" y="-.027" width="1.054" height="1.054" color-interpolation-filters="sRGB">
   <feGaussianBlur id="feGaussianBlur2" stdDeviation="0.61875"/>
  </filter>
  <linearGradient id="linearGradient2549" x1="4.7815" x2="59.782" y1="32.094" y2="32.094" gradientTransform="matrix(1 0 0 1 76.523 38.731)" gradientUnits="userSpaceOnUse">
   <stop id="stop1139" stop-color="#dee0e2" offset="0"/>
   <stop id="stop1141" stop-color="#f1f3f5" stop-opacity=".99608" offset="1"/>
  </linearGradient>
 </defs>
 <rect id="rect12" x="4.7815" y="4.5938" width="55" height="55" ry="15" fill="#141414" filter="url(#filter1057-2)" opacity=".3" stroke-linecap="round" stroke-width="2.7444"/>
 <rect id="rect14" x="4.7815" y="4.5938" width="55" height="55" ry="15" fill="url(#linearGradient2549)" stroke-linecap="round" stroke-width="2.7444"/>
 <g id="logo" transform="matrix(.19798 0 0 .19798 3.8703 16.497)">
  <g id="Base_Rouge" fill="#cd2e32">
   <path id="path912" d="m221.76 39.086v10.528l11.212 2.354v-10.621c0-1.494-0.133-2.798-0.404-3.946-0.279-1.14-0.667-2.118-1.166-2.95-0.501-0.835-1.107-1.515-1.808-2.014-0.707-0.516-1.485-0.863-2.337-1.071-1.79-0.425-3.156-0.01-4.084 1.279-0.944 1.286-1.413 3.428-1.413 6.441z"/>
   <path id="path914" d="m257.22 28.551-28.424-6.792c0.896 0.392 1.775 0.893 2.626 1.54 1.355 1.03 2.554 2.39 3.603 4.08 1.036 1.667 1.857 3.675 2.469 6 0.612 2.319 0.916 4.968 0.916 7.96v11.77l11.565 2.43v9.752l-33.978-6.629v-22.019c0-3.141 0.277-5.789 0.827-7.947 0.549-2.158 1.313-3.873 2.312-5.124 0.984-1.26 2.16-2.075 3.524-2.455 0.757-0.209 1.562-0.286 2.403-0.25l-18.05-4.313v104.7l23.995 2.963c-1.788-0.384-3.46-0.994-4.999-1.861-2.195-1.237-4.074-2.975-5.639-5.196-1.557-2.243-2.774-4.982-3.621-8.214-0.856-3.255-1.279-6.999-1.279-11.246 0-3.089 0.216-5.807 0.658-8.136 0.436-2.341 1.057-4.338 1.867-6.002 0.808-1.668 1.776-3.01 2.91-4.024 1.124-1.023 2.381-1.775 3.769-2.247l2.023 9.652c-0.729 0.305-1.41 0.741-2.064 1.33-0.651 0.59-1.223 1.36-1.712 2.303-0.486 0.95-0.881 2.069-1.171 3.38-0.287 1.3-0.435 2.812-0.435 4.546 0 2.522 0.289 4.756 0.856 6.663 0.575 1.91 1.388 3.528 2.449 4.846 1.053 1.321 2.316 2.348 3.773 3.083 1.462 0.745 3.083 1.213 4.871 1.421 1.763 0.201 3.372 0.101 4.834-0.295 1.45-0.409 2.695-1.144 3.732-2.185 1.033-1.043 1.831-2.416 2.41-4.121 0.573-1.71 0.857-3.769 0.857-6.182 0-1.429-0.077-2.791-0.23-4.133-0.154-1.335-0.36-2.579-0.612-3.737-0.265-1.164-0.552-2.219-0.896-3.172-0.335-0.953-0.675-1.743-1.039-2.385l-4.601-0.725v11.586l-5.23-0.728v-20.85l12.283 2.104c0.762 1.196 1.484 2.604 2.171 4.224 0.682 1.622 1.284 3.407 1.798 5.362 0.508 1.952 0.923 4.067 1.23 6.327 0.303 2.26 0.455 4.631 0.455 7.117 0 4.115-0.414 7.61-1.253 10.484-0.836 2.881-1.999 5.203-3.507 6.968-1.506 1.768-3.314 3.006-5.412 3.713-1.762 0.601-3.68 0.839-5.736 0.767l22.698 2.805v-98.912z"/>
  </g>
  <g id="Base_noir_90_x25_">
   <path id="path917" d="m61.777 80.259c0 3.525-0.326 6.996-0.985 10.393-0.649 3.401-1.645 6.49-2.981 9.257-1.331 2.711-3.012 5.02-5.032 6.83-2.005 1.771-4.36 2.915-7.056 3.349l-10.368 1.685v27.381l-8.403 0.902v-76.449l18.407-4.913c2.733-0.741 5.127-0.773 7.171-0.104 2.06 0.728 3.78 2.046 5.151 3.956 1.382 1.896 2.41 4.41 3.082 7.374 0.675 3.037 1.014 6.494 1.014 10.339zm-9.402 2.304c0-4.16-0.678-7.076-2.03-8.965-1.341-1.854-3.342-2.412-5.981-1.74l-9.009 2.139v25.242l9.251-1.775c1.326-0.226 2.474-0.756 3.441-1.612 0.967-0.835 1.776-1.861 2.423-3.165 0.648-1.303 1.13-2.87 1.436-4.545 0.315-1.712 0.469-3.588 0.469-5.579z" fill="#3d3732"/>
   <path id="path919" d="m158.57 84.896c2.051-1.108 3.957-2.634 5.723-4.534 1.771-1.956 3.313-4.223 4.617-6.885 1.313-2.631 2.341-5.571 3.088-8.833 0.748-3.266 1.126-6.743 1.126-10.484 0-4.59-0.521-8.598-1.555-12.009-1.029-3.408-2.587-6.119-4.658-8.168-2.059-2.007-4.608-3.305-7.63-3.865-2.996-0.573-6.459-0.331-10.378 0.727l-29.602 7.968v91.357l12.042-1.313v-35.418l14.784-2.511 14.692 34.752 15.676-1.675zm-2.116-15.621c-0.921 1.491-2.096 2.708-3.519 3.72-1.419 0.999-3.1 1.654-5.045 2.056l-16.547 3.221v-27.541l16.193-3.924c3.69-0.919 6.564-0.451 8.598 1.355 2.049 1.834 3.077 5.137 3.077 9.904 0 2.174-0.228 4.199-0.687 6.098-0.455 1.912-1.148 3.61-2.07 5.111z" fill="#3d3732"/>
   <g id="g923">
    <polygon id="polygon921" points="187 37.436 202.13 33.813 202.13 16.554 187 20.614" fill="#3d3732"/>
   </g>
   <g id="g927">
    <polygon id="polygon925" points="202.13 121.26 202.13 38.835 187 42.458 187 122.88" fill="#3d3732"/>
   </g>
  </g>
  <g id="Lignes_BX1">
   <path id="path930" d="m89.789 46.828c-0.83 0.156-1.832 0.451-1.832 0.451 1.832 20.309 6.54 57.806 16.473 84.493l5.306-0.547c-11.532-29.729-18.066-64.976-19.947-84.397z" fill="#008d4c"/>
   <path id="path932" d="m87.275 47.479-1.899 0.551c0.615 21.379 1.705 61.175 4.594 85.293l4.276-0.423c-3.764-23.42-6.233-63.815-6.971-85.421z" fill="#008d4c"/>
   <path id="path934" d="m84.757 48.221-1.857 0.503c-0.727 21.772-3.108 62.432-6.679 86.103l4.046-0.471c2.852-24.245 4.04-64.471 4.49-86.135z" fill="#0076b8"/>
   <path id="path936" d="m82.226 48.922-1.78 0.478c-1.803 19.93-7.87 56.305-17.938 86.875l4.512-0.482c8.669-27.581 13.418-65.953 15.206-86.871z" fill="#0076b8"/>
  </g>
 </g>
</svg>
