<?xml version="1.0" encoding="UTF-8"?>
<svg id="svg6" width="128" height="128" version="1.1" viewBox="0 0 33.867 33.867" xmlns="http://www.w3.org/2000/svg" xmlns:cc="http://creativecommons.org/ns#" xmlns:dc="http://purl.org/dc/elements/1.1/" xmlns:rdf="http://www.w3.org/1999/02/22-rdf-syntax-ns#" xmlns:xlink="http://www.w3.org/1999/xlink">
 <metadata id="metadata170">
  <rdf:RDF>
   <cc:Work rdf:about="">
    <dc:format>image/svg+xml</dc:format>
    <dc:type rdf:resource="http://purl.org/dc/dcmitype/StillImage"/>
    <dc:title/>
   </cc:Work>
  </rdf:RDF>
 </metadata>
 <defs id="defs2">
  <linearGradient id="linearGradient1632" x1="132.21" x2="132.21" y1="42.152" y2="70.68" gradientTransform="matrix(.97573 0 0 .97573 -111.78 -37.203)" gradientUnits="userSpaceOnUse">
   <stop id="stop1626" stop-color="#a8e47b" offset="0"/>
   <stop id="stop1628" stop-color="#20b597" offset="1"/>
  </linearGradient>
  <linearGradient id="linearGradient1085" x1="6.0621" x2="6.0621" y1="13.492" y2="35.39" gradientUnits="userSpaceOnUse">
   <stop id="stop1079" stop-color="#f9f9f9" offset="0"/>
   <stop id="stop1081" stop-color="#3bbe91" offset="1"/>
  </linearGradient>
 </defs>
 <g id="layer1">
  <g id="g1702" transform="matrix(.97573 0 0 .97573 -65.748 -37.203)" fill="none" opacity=".20513" stroke="#000" stroke-linecap="round" stroke-linejoin="round" stroke-opacity=".02">
   <rect id="rect1634" x="69.84" y="40.71" width="29.811" height="29.811" rx="6.6099" ry="6.6099" stroke-width=".1"/>
   <rect id="rect1638" x="69.84" y="40.71" width="29.811" height="29.811" rx="6.6099" ry="6.6099" stroke-width=".2"/>
   <rect id="rect1640" x="69.84" y="40.71" width="29.811" height="29.811" rx="6.6099" ry="6.6099" stroke-width=".3"/>
   <rect id="rect1642" x="69.84" y="40.71" width="29.811" height="29.811" rx="6.6099" ry="6.6099" stroke-width=".4"/>
   <rect id="rect1644" x="69.84" y="40.71" width="29.811" height="29.811" rx="6.6099" ry="6.6099" stroke-width=".5"/>
   <rect id="rect1646" x="69.84" y="40.71" width="29.811" height="29.811" rx="6.6099" ry="6.6099" stroke-width=".6"/>
   <rect id="rect1648" x="69.84" y="40.71" width="29.811" height="29.811" rx="6.6099" ry="6.6099" stroke-width=".7"/>
   <rect id="rect1650" x="69.84" y="40.71" width="29.811" height="29.811" rx="6.6099" ry="6.6099" stroke-width=".8"/>
   <rect id="rect1652" x="69.84" y="40.71" width="29.811" height="29.811" rx="6.6099" ry="6.6099"/>
   <rect id="rect1654" x="69.84" y="40.71" width="29.811" height="29.811" rx="6.6099" ry="6.6099" stroke-width="1.2"/>
   <rect id="rect1656" x="69.84" y="40.71" width="29.811" height="29.811" rx="6.6099" ry="6.6099" stroke-width="1.4"/>
   <rect id="rect1658" x="69.84" y="40.71" width="29.811" height="29.811" rx="6.6099" ry="6.6099" stroke-width="1.6"/>
   <rect id="rect1660" x="69.84" y="40.71" width="29.811" height="29.811" rx="6.6099" ry="6.6099" stroke-width="1.8"/>
   <rect id="rect1662" x="69.84" y="40.71" width="29.811" height="29.811" rx="6.6099" ry="6.6099" stroke-width="2"/>
   <rect id="rect1664" x="69.84" y="40.71" width="29.811" height="29.811" rx="6.6099" ry="6.6099" stroke-width="2.2"/>
   <rect id="rect1666" x="69.84" y="40.71" width="29.811" height="29.811" rx="6.6099" ry="6.6099" stroke-width="2.6"/>
   <rect id="rect1668" x="69.84" y="40.71" width="29.811" height="29.811" rx="6.6099" ry="6.6099" stroke-width="3"/>
   <rect id="rect1670" x="69.84" y="40.71" width="29.811" height="29.811" rx="6.6099" ry="6.6099" stroke-width="3.4"/>
   <rect id="rect1672" x="69.84" y="40.71" width="29.811" height="29.811" rx="6.6099" ry="6.6099" stroke-width="3.8"/>
   <rect id="rect1674" x="69.84" y="40.71" width="29.811" height="29.811" rx="6.6099" ry="6.6099" stroke-width="4.2"/>
   <rect id="rect1676" x="69.84" y="40.71" width="29.811" height="29.811" rx="6.6099" ry="6.6099" stroke-width="4.6"/>
   <rect id="rect1678" x="69.84" y="40.71" width="29.811" height="29.811" rx="6.6099" ry="6.6099" stroke-width="5"/>
  </g>
  <rect id="rect849" x="2.3963" y="2.5186" width="29.087" height="29.087" rx="6.4495" ry="6.4495" fill="url(#linearGradient1632)" stroke-linecap="round" stroke-linejoin="round" stroke-width="2.6877"/>
  <path id="path1087" d="m13.951 10.575-5.16e-4 5.17e-4c-0.44538 0-0.8046 0.34805-0.8046 0.77928v12.512c0 0.43088 0.35965 0.78238 0.80512 0.78238 2.4254 0 4.849 0.0031 7.276 0.0031 4.0174-0.0013 7.276-3.1531 7.276-7.0394s-3.2587-7.0378-7.276-7.0378zm-6.351 5.17e-4 5.167e-4 5.17e-4c-0.47021 0-0.85318 0.34805-0.85318 0.77928v12.514c0 0.43124 0.38297 0.78186 0.85266 0.78186h3.4132c0.47013 0 0.85318-0.35089 0.85318-0.78186v-12.515c0-0.43123-0.38272-0.77928-0.85369-0.77928z" fill="#00833a" fill-opacity=".40768" stroke-width="1.2797"/>
  <path id="path10" d="m13.266 10.024-5.16e-4 5.17e-4c-0.44538 0-0.8046 0.34805-0.8046 0.77928v12.512c0 0.43088 0.35965 0.78238 0.80512 0.78238 2.4254 0 4.849 0.0031 7.276 0.0031 4.0174-0.0013 7.276-3.1531 7.276-7.0394s-3.2587-7.0378-7.276-7.0378zm-6.351 5.17e-4 5.167e-4 5.17e-4c-0.47021 0-0.85318 0.34805-0.85318 0.77928v12.514c0 0.43124 0.38297 0.78186 0.85266 0.78186h3.4132c0.47013 0 0.85318-0.35089 0.85318-0.78186v-12.515c0-0.43123-0.38272-0.77928-0.85369-0.77928z" fill="url(#linearGradient1085)" stroke-width="1.2797"/>
 </g>
</svg>
