<?xml version="1.0" encoding="UTF-8"?>
<svg id="svg1443" width="128" height="128" version="1.1" viewBox="0 0 33.867 33.867" xmlns="http://www.w3.org/2000/svg" xmlns:cc="http://creativecommons.org/ns#" xmlns:dc="http://purl.org/dc/elements/1.1/" xmlns:rdf="http://www.w3.org/1999/02/22-rdf-syntax-ns#" xmlns:xlink="http://www.w3.org/1999/xlink">
 <defs id="defs1437">
  <linearGradient id="linearGradient1632" x1="132.21" x2="132.21" y1="42.152" y2="70.68" gradientTransform="matrix(.97573 0 0 .97573 -111.77 -37.183)" gradientUnits="userSpaceOnUse">
   <stop id="stop1626" stop-color="#60748f" stop-opacity=".98431" offset="0"/>
   <stop id="stop1628" stop-color="#3e5073" offset="1"/>
  </linearGradient>
  <linearGradient id="linearGradient1783" x1="8.9037" x2="8.9037" y1="13.043" y2="7.713" gradientUnits="userSpaceOnUse">
   <stop id="stop1777" stop-color="#954261" offset="0"/>
   <stop id="stop1779" stop-color="#ff6322" stop-opacity=".98364" offset="1"/>
  </linearGradient>
 </defs>
 <metadata id="metadata1440">
  <rdf:RDF>
   <cc:Work rdf:about="">
    <dc:format>image/svg+xml</dc:format>
    <dc:type rdf:resource="http://purl.org/dc/dcmitype/StillImage"/>
   </cc:Work>
  </rdf:RDF>
 </metadata>
 <g id="layer1">
  <g id="g1702" transform="matrix(.97573 0 0 .97573 -65.737 -37.183)" fill="none" opacity=".295" stroke="#000" stroke-linecap="round" stroke-linejoin="round" stroke-opacity=".02">
   <rect id="rect1634" x="69.84" y="40.71" width="29.811" height="29.811" rx="6.6099" ry="6.6099" stroke-width=".1"/>
   <rect id="rect1638" x="69.84" y="40.71" width="29.811" height="29.811" rx="6.6099" ry="6.6099" stroke-width=".2"/>
   <rect id="rect1640" x="69.84" y="40.71" width="29.811" height="29.811" rx="6.6099" ry="6.6099" stroke-width=".3"/>
   <rect id="rect1642" x="69.84" y="40.71" width="29.811" height="29.811" rx="6.6099" ry="6.6099" stroke-width=".4"/>
   <rect id="rect1644" x="69.84" y="40.71" width="29.811" height="29.811" rx="6.6099" ry="6.6099" stroke-width=".5"/>
   <rect id="rect1646" x="69.84" y="40.71" width="29.811" height="29.811" rx="6.6099" ry="6.6099" stroke-width=".6"/>
   <rect id="rect1648" x="69.84" y="40.71" width="29.811" height="29.811" rx="6.6099" ry="6.6099" stroke-width=".7"/>
   <rect id="rect1650" x="69.84" y="40.71" width="29.811" height="29.811" rx="6.6099" ry="6.6099" stroke-width=".8"/>
   <rect id="rect1652" x="69.84" y="40.71" width="29.811" height="29.811" rx="6.6099" ry="6.6099"/>
   <rect id="rect1654" x="69.84" y="40.71" width="29.811" height="29.811" rx="6.6099" ry="6.6099" stroke-width="1.2"/>
   <rect id="rect1656" x="69.84" y="40.71" width="29.811" height="29.811" rx="6.6099" ry="6.6099" stroke-width="1.4"/>
   <rect id="rect1658" x="69.84" y="40.71" width="29.811" height="29.811" rx="6.6099" ry="6.6099" stroke-width="1.6"/>
   <rect id="rect1660" x="69.84" y="40.71" width="29.811" height="29.811" rx="6.6099" ry="6.6099" stroke-width="1.8"/>
   <rect id="rect1662" x="69.84" y="40.71" width="29.811" height="29.811" rx="6.6099" ry="6.6099" stroke-width="2"/>
   <rect id="rect1664" x="69.84" y="40.71" width="29.811" height="29.811" rx="6.6099" ry="6.6099" stroke-width="2.2"/>
   <rect id="rect1666" x="69.84" y="40.71" width="29.811" height="29.811" rx="6.6099" ry="6.6099" stroke-width="2.6"/>
   <rect id="rect1668" x="69.84" y="40.71" width="29.811" height="29.811" rx="6.6099" ry="6.6099" stroke-width="3"/>
   <rect id="rect1670" x="69.84" y="40.71" width="29.811" height="29.811" rx="6.6099" ry="6.6099" stroke-width="3.4"/>
   <rect id="rect1672" x="69.84" y="40.71" width="29.811" height="29.811" rx="6.6099" ry="6.6099" stroke-width="3.8"/>
   <rect id="rect1674" x="69.84" y="40.71" width="29.811" height="29.811" rx="6.6099" ry="6.6099" stroke-width="4.2"/>
   <rect id="rect1676" x="69.84" y="40.71" width="29.811" height="29.811" rx="6.6099" ry="6.6099" stroke-width="4.6"/>
   <rect id="rect1678" x="69.84" y="40.71" width="29.811" height="29.811" rx="6.6099" ry="6.6099" stroke-width="5"/>
  </g>
  <rect id="rect849" x="2.4074" y="2.5392" width="29.087" height="29.087" rx="6.4495" ry="6.4495" fill="url(#linearGradient1632)" stroke-linecap="round" stroke-linejoin="round" stroke-width="2.6877"/>
  <path id="path8" d="m15.847 8.0303c-3.8548 0-6.9582 3.1291-6.9582 7.016v2.8064c0 3.8869 3.1035 7.016 6.9582 7.016h1.3912c3.8548 0 6.9582-3.1291 6.9582-7.016v-2.8064c0-3.8869-3.1035-7.016-6.9582-7.016zm0.32489 3.0615h0.74147c2.0559 0 3.7113 1.9913 3.7113 4.4647v1.7859c0 2.4735-1.6554 4.4647-3.7113 4.4647h-0.74147c-2.0559 0-3.7113-1.9913-3.7113-4.4647v-1.7859c0-2.4735 1.6554-4.4647 3.7113-4.4647z" fill="#fff" stroke-width=".51026"/>
  <rect id="rect1177" transform="rotate(46.522)" x="28.406" y="-1.4451" width="7.5575" height="3.3694" rx="1.2164" ry="1.2164" fill="#fff" stroke-linecap="round" stroke-width=".42333"/>
  <g id="g1767" fill="#06062b" fill-opacity=".057721" stroke-linecap="round" stroke-width=".42333">
   <rect id="rect1722" x=".91569" y="6.5898" width="16.847" height="7.0063" rx="3.5031" ry="3.5031"/>
   <rect id="rect1760" x="1.375" y="7.1198" width="16.847" height="7.0063" rx="3.5031" ry="3.5031"/>
   <rect id="rect1762" x="1.8855" y="7.8649" width="16.847" height="7.0063" rx="3.5031" ry="3.5031"/>
  </g>
  <rect id="rect1523" x=".4335" y="6.0541" width="16.847" height="7.0063" rx="3.5031" ry="3.5031" fill="url(#linearGradient1783)" stroke-linecap="round" stroke-width=".42333"/>
  <path id="path18" d="m3.0012 7.2994v4.335h0.61928v-1.8385h0.85151c0.38708 0 0.69842-0.060001 0.93497-0.18143 0.46666-0.233 0.67273-0.6501 0.69065-0.96763 0-0.42905-0.13021-0.76069-0.38826-0.99545-0.25805-0.23476-0.6515-0.35197-1.1805-0.35197zm4.335 0v4.335h1.2374c0.57017 0 1.0229-0.19043 1.3571-0.5709 0.33424-0.38048 0.50196-0.92576 0.50196-1.6341 0-0.70428-0.16349-1.2331-0.48986-1.5893-0.32244-0.36024-0.7573-0.54066-1.3039-0.54066zm4.335 0v4.335h0.61928v-1.8578h1.8578v-0.61928h-1.8578v-1.2386h2.4771v-0.61928zm-8.0507 0.61928h0.87329c0.63723 0.044111 0.99574 0.051361 0.98456 0.6592-0.00991 0.53891-0.78182 0.52089-1.166 0.57937h-0.69186zm4.335 0h0.56123c0.43206 0 0.75523 0.12143 0.97126 0.36407 0.21603 0.23823 0.32537 0.62329 0.32537 1.1527 0 0.53381-0.11331 0.92869-0.33988 1.189-0.2213 0.26029-0.57161 0.39068-1.0511 0.39068h-0.46688z" fill="#fff" stroke-width=".61928"/>
 </g>
</svg>
