<?xml version="1.0" encoding="UTF-8"?>
<svg id="svg6" width="128" height="128" version="1.1" viewBox="0 0 33.867 33.867" xmlns="http://www.w3.org/2000/svg" xmlns:cc="http://creativecommons.org/ns#" xmlns:dc="http://purl.org/dc/elements/1.1/" xmlns:rdf="http://www.w3.org/1999/02/22-rdf-syntax-ns#" xmlns:xlink="http://www.w3.org/1999/xlink">
 <metadata id="metadata112">
  <rdf:RDF>
   <cc:Work rdf:about="">
    <dc:format>image/svg+xml</dc:format>
    <dc:type rdf:resource="http://purl.org/dc/dcmitype/StillImage"/>
   </cc:Work>
  </rdf:RDF>
 </metadata>
 <defs id="defs2">
  <linearGradient id="linearGradient1263" x1="18.405" x2="18.405" y1="31.462" y2="13.076" gradientUnits="userSpaceOnUse">
   <stop id="stop25" stop-color="#ec4001" offset="0"/>
   <stop id="stop27" stop-color="#fb6f01" offset="1"/>
  </linearGradient>
  <linearGradient id="linearGradient1518" x1="16.492" x2="16.492" y1="6.8743" y2="18.2" gradientUnits="userSpaceOnUse">
   <stop id="stop1512" stop-color="#b83201" offset="0"/>
   <stop id="stop1514" stop-color="#8d0159" offset="1"/>
  </linearGradient>
  <linearGradient id="linearGradient3841" x1="15.393" x2="15.393" y1="10.203" y2="14.465" gradientUnits="userSpaceOnUse">
   <stop id="stop3835" stop-color="#fa7816" offset="0"/>
   <stop id="stop3837" stop-color="#dd650a" offset="1"/>
  </linearGradient>
  <linearGradient id="linearGradient4207" x1="12.64" x2="12.64" y1="14.508" y2="44.83" gradientUnits="userSpaceOnUse">
   <stop id="stop4201" stop-color="#fff" offset="0"/>
   <stop id="stop4203" stop-color="#ee4501" offset="1"/>
  </linearGradient>
 </defs>
 <g id="layer1">
  <g id="g1702" transform="matrix(.97573 0 0 .97573 -65.683 -37.233)" fill="none" opacity=".29676" stroke="#000" stroke-linecap="round" stroke-linejoin="round" stroke-opacity=".02">
   <rect id="rect1634" x="69.84" y="40.71" width="29.811" height="29.811" rx="6.6099" ry="6.6099" stroke-width=".1"/>
   <rect id="rect1638" x="69.84" y="40.71" width="29.811" height="29.811" rx="6.6099" ry="6.6099" stroke-width=".2"/>
   <rect id="rect1640" x="69.84" y="40.71" width="29.811" height="29.811" rx="6.6099" ry="6.6099" stroke-width=".3"/>
   <rect id="rect1642" x="69.84" y="40.71" width="29.811" height="29.811" rx="6.6099" ry="6.6099" stroke-width=".4"/>
   <rect id="rect1644" x="69.84" y="40.71" width="29.811" height="29.811" rx="6.6099" ry="6.6099" stroke-width=".5"/>
   <rect id="rect1646" x="69.84" y="40.71" width="29.811" height="29.811" rx="6.6099" ry="6.6099" stroke-width=".6"/>
   <rect id="rect1648" x="69.84" y="40.71" width="29.811" height="29.811" rx="6.6099" ry="6.6099" stroke-width=".7"/>
   <rect id="rect1650" x="69.84" y="40.71" width="29.811" height="29.811" rx="6.6099" ry="6.6099" stroke-width=".8"/>
   <rect id="rect1652" x="69.84" y="40.71" width="29.811" height="29.811" rx="6.6099" ry="6.6099"/>
   <rect id="rect1654" x="69.84" y="40.71" width="29.811" height="29.811" rx="6.6099" ry="6.6099" stroke-width="1.2"/>
   <rect id="rect1656" x="69.84" y="40.71" width="29.811" height="29.811" rx="6.6099" ry="6.6099" stroke-width="1.4"/>
   <rect id="rect1658" x="69.84" y="40.71" width="29.811" height="29.811" rx="6.6099" ry="6.6099" stroke-width="1.6"/>
   <rect id="rect1660" x="69.84" y="40.71" width="29.811" height="29.811" rx="6.6099" ry="6.6099" stroke-width="1.8"/>
   <rect id="rect1662" x="69.84" y="40.71" width="29.811" height="29.811" rx="6.6099" ry="6.6099" stroke-width="2"/>
   <rect id="rect1664" x="69.84" y="40.71" width="29.811" height="29.811" rx="6.6099" ry="6.6099" stroke-width="2.2"/>
   <rect id="rect1666" x="69.84" y="40.71" width="29.811" height="29.811" rx="6.6099" ry="6.6099" stroke-width="2.6"/>
   <rect id="rect1668" x="69.84" y="40.71" width="29.811" height="29.811" rx="6.6099" ry="6.6099" stroke-width="3"/>
   <rect id="rect1670" x="69.84" y="40.71" width="29.811" height="29.811" rx="6.6099" ry="6.6099" stroke-width="3.4"/>
   <rect id="rect1672" x="69.84" y="40.71" width="29.811" height="29.811" rx="6.6099" ry="6.6099" stroke-width="3.8"/>
   <rect id="rect1674" x="69.84" y="40.71" width="29.811" height="29.811" rx="6.6099" ry="6.6099" stroke-width="4.2"/>
   <rect id="rect1676" x="69.84" y="40.71" width="29.811" height="29.811" rx="6.6099" ry="6.6099" stroke-width="4.6"/>
   <rect id="rect1678" x="69.84" y="40.71" width="29.811" height="29.811" rx="6.6099" ry="6.6099" stroke-width="5"/>
  </g>
  <rect id="rect849" x="2.462" y="2.4885" width="29.087" height="29.087" rx="6.4495" ry="6.4495" fill="url(#linearGradient1518)" stroke-linecap="round" stroke-linejoin="round" stroke-width="2.6877"/>
  <path id="path1553" d="m9.5663 14.605s-0.21525-7.3991 7.4394-7.3563c7.6546 0.042734 7.4394 7.5225 7.4394 7.5225" fill="none" stroke="url(#linearGradient3841)" stroke-width="2"/>
  <path id="rect1025" d="m31.549 12.985v12.141c0 3.573-2.8765 6.4495-6.4495 6.4495h-16.189c-3.573 0-6.4495-2.8765-6.4495-6.4495v-12.141z" fill="url(#linearGradient1263)" stroke-linecap="round" stroke-linejoin="round" stroke-width="2.6877"/>
  <path id="path3976" transform="scale(.26458)" d="m9.3047 49.078v2.7598h109.94v-2.7598h-109.94z" fill="#fafafa" fill-opacity=".095284" stroke-linecap="round" stroke-linejoin="round" stroke-width="10.158"/>
  <g id="g5906" fill="#500" fill-opacity=".13096" opacity=".32535" stroke-width=".45957">
   <path id="path5750" d="m17.5 15.463c-0.26539 0.0069-0.53521 0.04061-0.80515 0.10233-0.87472 0.19622-1.7643 0.42427-2.5537 0.62473-0.72004 0.14849-1.4308 0.93552-1.3087 1.5789l2.384 10.595c0.14724 0.65463 0.88734 1.0268 1.6597 0.83297 0.77232-0.19387 1.2764-0.87667 1.1292-1.5313l-0.87875-3.901c0.4092-0.11178 0.86642-0.21699 1.2575-0.29172 2.1848-0.54806 3.5576-2.7597 3.0671-4.9395-0.42425-1.8763-2.0935-3.1198-3.9512-3.0707zm0.12207 2.297a1.5019 1.8284 78.314 0 1 1.5959 1.1032 1.5019 1.8284 78.314 0 1-1.4263 1.8733 1.5019 1.8284 78.314 0 1-0.03052 0.0045l-1.0143 0.23516-0.7109-2.919 1.0439-0.24056a1.5019 1.8284 78.314 0 1 0.54215-0.05656z"/>
   <path id="path5896" d="m17.691 15.651c-0.26539 0.0069-0.53521 0.04061-0.80515 0.10233-0.87472 0.19622-1.7643 0.42427-2.5537 0.62473-0.72004 0.14849-1.4308 0.93552-1.3087 1.5789l2.384 10.595c0.14724 0.65463 0.88734 1.0268 1.6597 0.83297 0.77232-0.19387 1.2764-0.87667 1.1292-1.5313l-0.87875-3.901c0.4092-0.11178 0.86642-0.21699 1.2575-0.29172 2.1848-0.54806 3.5576-2.7597 3.0671-4.9395-0.42425-1.8763-2.0935-3.1198-3.9512-3.0707zm0.12207 2.297a1.5019 1.8284 78.314 0 1 1.5959 1.1032 1.5019 1.8284 78.314 0 1-1.4263 1.8733 1.5019 1.8284 78.314 0 1-0.03052 0.0045l-1.0143 0.23516-0.7109-2.919 1.0439-0.24056a1.5019 1.8284 78.314 0 1 0.54215-0.05656z"/>
   <path id="path5898" d="m17.919 15.951c-0.26539 0.0069-0.53521 0.04061-0.80515 0.10233-0.87472 0.19622-1.7643 0.42427-2.5537 0.62473-0.72004 0.14849-1.4308 0.93552-1.3087 1.5789l2.384 10.595c0.14724 0.65463 0.88734 1.0268 1.6597 0.83297 0.77232-0.19387 1.2764-0.87667 1.1292-1.5313l-0.87875-3.901c0.4092-0.11178 0.86642-0.21699 1.2575-0.29172 2.1848-0.54806 3.5576-2.7597 3.0671-4.9395-0.42425-1.8763-2.0935-3.1198-3.9512-3.0707zm0.12207 2.297a1.5019 1.8284 78.314 0 1 1.5959 1.1032 1.5019 1.8284 78.314 0 1-1.4263 1.8733 1.5019 1.8284 78.314 0 1-0.03052 0.0045l-1.0143 0.23516-0.7109-2.919 1.0439-0.24056a1.5019 1.8284 78.314 0 1 0.54215-0.05656z"/>
   <path id="path5900" d="m18.161 16.297c-0.26539 0.0069-0.53521 0.04061-0.80515 0.10233-0.87472 0.19622-1.7643 0.42427-2.5537 0.62473-0.72004 0.14849-1.4308 0.93552-1.3087 1.5789l2.384 10.595c0.14724 0.65463 0.88734 1.0268 1.6597 0.83297 0.77232-0.19387 1.2764-0.87667 1.1292-1.5313l-0.87875-3.901c0.4092-0.11178 0.86642-0.21699 1.2575-0.29172 2.1848-0.54806 3.5576-2.7597 3.0671-4.9395-0.42425-1.8763-2.0935-3.1198-3.9512-3.0707zm0.12207 2.297a1.5019 1.8284 78.314 0 1 1.5959 1.1032 1.5019 1.8284 78.314 0 1-1.4263 1.8733 1.5019 1.8284 78.314 0 1-0.03052 0.0045l-1.0143 0.23516-0.7109-2.919 1.0439-0.24056a1.5019 1.8284 78.314 0 1 0.54215-0.05656z"/>
  </g>
  <path id="path14" d="m17.321 15.329c-0.26539 0.0069-0.53521 0.04061-0.80515 0.10233-0.87472 0.19622-1.7643 0.42427-2.5537 0.62473-0.72004 0.14849-1.4308 0.93552-1.3087 1.5789l2.384 10.595c0.14724 0.65463 0.88734 1.0268 1.6597 0.83297 0.77232-0.19387 1.2764-0.87667 1.1292-1.5313l-0.87875-3.901c0.4092-0.11178 0.86642-0.21699 1.2575-0.29172 2.1848-0.54806 3.5576-2.7597 3.0671-4.9395-0.42425-1.8763-2.0935-3.1198-3.9512-3.0707zm0.12207 2.297a1.5019 1.8284 78.314 0 1 1.5959 1.1032 1.5019 1.8284 78.314 0 1-1.4263 1.8733 1.5019 1.8284 78.314 0 1-0.03052 0.0045l-1.0143 0.23516-0.7109-2.919 1.0439-0.24056a1.5019 1.8284 78.314 0 1 0.54215-0.05656z" fill="url(#linearGradient4207)" stroke-width=".45957"/>
 </g>
</svg>
