<?xml version="1.0" encoding="UTF-8"?>
<svg id="svg1443" width="128" height="128" version="1.1" viewBox="0 0 33.867 33.867" xmlns="http://www.w3.org/2000/svg" xmlns:cc="http://creativecommons.org/ns#" xmlns:dc="http://purl.org/dc/elements/1.1/" xmlns:rdf="http://www.w3.org/1999/02/22-rdf-syntax-ns#" xmlns:xlink="http://www.w3.org/1999/xlink">
 <defs id="defs1437">
  <radialGradient id="radialGradient963" cx="16.951" cy="2.5104" r="14.544" gradientTransform="matrix(7.1386 0 0 2.2345 -104.06 -3.0991)" gradientUnits="userSpaceOnUse">
   <stop id="stop957" stop-color="#ff9c38" offset="0"/>
   <stop id="stop959" stop-color="#ea3d1c" stop-opacity=".96863" offset="1"/>
  </radialGradient>
 </defs>
 <metadata id="metadata1440">
  <rdf:RDF>
   <cc:Work rdf:about="">
    <dc:format>image/svg+xml</dc:format>
    <dc:type rdf:resource="http://purl.org/dc/dcmitype/StillImage"/>
   </cc:Work>
  </rdf:RDF>
 </metadata>
 <g id="layer1">
  <g id="g1702" transform="matrix(.97573 0 0 .97573 -65.737 -37.183)" fill="none" opacity=".295" stroke="#000" stroke-linecap="round" stroke-linejoin="round" stroke-opacity=".02">
   <rect id="rect1634" x="69.84" y="40.71" width="29.811" height="29.811" rx="6.6099" ry="6.6099" stroke-width=".1"/>
   <rect id="rect1638" x="69.84" y="40.71" width="29.811" height="29.811" rx="6.6099" ry="6.6099" stroke-width=".2"/>
   <rect id="rect1640" x="69.84" y="40.71" width="29.811" height="29.811" rx="6.6099" ry="6.6099" stroke-width=".3"/>
   <rect id="rect1642" x="69.84" y="40.71" width="29.811" height="29.811" rx="6.6099" ry="6.6099" stroke-width=".4"/>
   <rect id="rect1644" x="69.84" y="40.71" width="29.811" height="29.811" rx="6.6099" ry="6.6099" stroke-width=".5"/>
   <rect id="rect1646" x="69.84" y="40.71" width="29.811" height="29.811" rx="6.6099" ry="6.6099" stroke-width=".6"/>
   <rect id="rect1648" x="69.84" y="40.71" width="29.811" height="29.811" rx="6.6099" ry="6.6099" stroke-width=".7"/>
   <rect id="rect1650" x="69.84" y="40.71" width="29.811" height="29.811" rx="6.6099" ry="6.6099" stroke-width=".8"/>
   <rect id="rect1652" x="69.84" y="40.71" width="29.811" height="29.811" rx="6.6099" ry="6.6099"/>
   <rect id="rect1654" x="69.84" y="40.71" width="29.811" height="29.811" rx="6.6099" ry="6.6099" stroke-width="1.2"/>
   <rect id="rect1656" x="69.84" y="40.71" width="29.811" height="29.811" rx="6.6099" ry="6.6099" stroke-width="1.4"/>
   <rect id="rect1658" x="69.84" y="40.71" width="29.811" height="29.811" rx="6.6099" ry="6.6099" stroke-width="1.6"/>
   <rect id="rect1660" x="69.84" y="40.71" width="29.811" height="29.811" rx="6.6099" ry="6.6099" stroke-width="1.8"/>
   <rect id="rect1662" x="69.84" y="40.71" width="29.811" height="29.811" rx="6.6099" ry="6.6099" stroke-width="2"/>
   <rect id="rect1664" x="69.84" y="40.71" width="29.811" height="29.811" rx="6.6099" ry="6.6099" stroke-width="2.2"/>
   <rect id="rect1666" x="69.84" y="40.71" width="29.811" height="29.811" rx="6.6099" ry="6.6099" stroke-width="2.6"/>
   <rect id="rect1668" x="69.84" y="40.71" width="29.811" height="29.811" rx="6.6099" ry="6.6099" stroke-width="3"/>
   <rect id="rect1670" x="69.84" y="40.71" width="29.811" height="29.811" rx="6.6099" ry="6.6099" stroke-width="3.4"/>
   <rect id="rect1672" x="69.84" y="40.71" width="29.811" height="29.811" rx="6.6099" ry="6.6099" stroke-width="3.8"/>
   <rect id="rect1674" x="69.84" y="40.71" width="29.811" height="29.811" rx="6.6099" ry="6.6099" stroke-width="4.2"/>
   <rect id="rect1676" x="69.84" y="40.71" width="29.811" height="29.811" rx="6.6099" ry="6.6099" stroke-width="4.6"/>
   <rect id="rect1678" x="69.84" y="40.71" width="29.811" height="29.811" rx="6.6099" ry="6.6099" stroke-width="5"/>
  </g>
  <rect id="rect849" x="2.4074" y="2.5392" width="29.087" height="29.087" rx="6.4495" ry="6.4495" fill="url(#radialGradient963)" stroke-linecap="round" stroke-linejoin="round" stroke-width="2.6877"/>
  <path id="path8" d="m15.18 7.27-0.25353 0.077919c-0.36073 0.05625-0.40196 0.38505-0.54312 0.67734-0.27572 0.41226-0.29132 0.68928-0.12895 1.0928 0.18009 0.44419 0.43607 0.8251 0.7606 1.2222l0.53212 0.65062v0.31665l-0.31594 0.13904-0.31569 0.13928-0.59535 0.08237c-0.38763 0.03123-0.45105 0.07537-0.6012 0.39384-0.16982 0.25285-0.14717 0.49008-0.14813 0.78026l-0.0014 0.46904-0.19699 0.69664c-0.31471 0.83428-0.18719 1.7241-0.17908 2.5966-0.01329 0.87788-0.12483 1.6583 0.32183 2.4172 0.16274 0.26214 0.1825 0.51728 0.50654 0.51728 0.3383 0.05195 0.15973-0.25456 0.12152-0.48562-0.02738-0.30757-0.2195-0.48562 0.14173-0.48562 0.29137 0.02846 0.20457-0.05552 0.13226-0.28499-0.03413-0.22173-0.1425-0.34303-0.28883-0.50418-0.18129-0.18147-0.22376-0.18878-0.07113-0.37998 0.25261-0.29808 0.22463-0.74098 0.28628-1.1108l0.15835-0.94996 0.09184-0.43367c0.05248-0.22224 0.14711-0.40644 0.37633-0.47894l0.14326-0.04528 0.41342 0.75007c0.29505 0.41009 0.41342 0.73586 0.41342 1.2124 0.0546 0.36566-0.04246 0.52096-0.24866 0.80548-0.27718 0.27984-0.27701 0.56702-0.32363 0.93537l-0.07496 0.59224-0.5815 0.92769c-0.40103 0.49418-0.58316 0.94119-0.66823 1.5392l-0.08698 0.61154-0.45051 0.48215c-0.4523 0.35665-0.4916 0.69712-0.5925 1.2246l-0.14199 0.74215-0.14427 0.25407-0.14456 0.25382-0.0097 0.50664c-0.12822 0.36486 0.07594 0.46396 0.17732 0.7283 0.3111 0.5344 1.1656 1.3245 1.8594 1.0838l-0.08209-0.2605-0.0898-0.28499-0.18675-0.20582-0.18649-0.20607-0.077-0.4589-0.077-0.45915h0.27066l0.2855-0.9183c0.09927-0.5955 0.31328-0.94649 0.7222-1.3616 0.38971-0.29257 0.47254-0.57524 0.59071-1.0133l0.15374-0.56998 0.28065-0.44332 0.28038-0.44332 0.44233-0.47399c0.40631-0.37458 0.67564-0.77942 0.67564 0.02773-0.05187 0.36162 0.12378 0.6414 0.26735 0.96555 0.3346 0.53526 0.20765 0.74618-0.02096 1.2909-0.34735 0.56223-0.24394 0.9667-0.14532 1.583l0.14353 0.89529-0.18778 0.35104c-0.26225 0.42094-0.24639 0.7329 0.02021 1.1014l0.20825 0.28746-0.07266 0.18282c-0.0012 0.50754 0.52379 0.41186 0.8819 0.41412h2.2937c-0.02178-0.47746-1.0634-0.65268-1.5053-0.71544l-0.17318-0.20186-0.17294-0.20162-0.04068-0.85324-0.04042-0.85324 0.1975-0.84606 0.19749-0.8463c0.38359-0.24513 0.32057-0.37178 0.2328-0.81044l-0.10743-0.53707-0.01478-1.33-0.01516-1.3299-0.09235-0.98163c0.06929-0.30385-0.3604-0.98163 0.0829-0.98163l0.07957 0.20038 0.07957 0.20039v0.36564c0.01216 0.2829-0.09409 0.40052 0.20952 0.28796l0.20978-0.07792 0.1159 0.17689 0.11562 0.17663 0.0021 0.29241c0.02144 0.19156-0.08241 0.34321 0.13303 0.21424l0.13099-0.07818 0.0041-0.3409 0.0041-0.3409 0.19238 0.2459c0.1134 0.09538 0.19239 0.37477 0.19239 0.11405 0.01441-0.1877-0.08207-0.35967-0.1448-0.53361-0.06793-0.28742-0.1297-0.39369-0.38068-0.52371l-0.23613-0.12221 0.0683-0.49204c0.16666-0.57818-0.17389-1.0304-0.40938-1.5536l-0.47741-0.9201-0.25148-0.50665-0.25173-0.50664-0.08903-0.48834c-0.03099-0.46159-0.1143-0.49855-0.52599-0.66497-0.2563-0.14521-0.47675-0.17663-0.76134-0.17663h-0.32413l-0.2039-0.42271-0.20389-0.28153v-0.30649l0.26196-0.08039c0.41038-0.06132 0.26197-0.40737 0.26197-0.74414 0.03604-0.38184 0.03583-0.61813-0.19238-0.90988l-0.19239-0.2459-0.0041-0.28499c0.03694-0.27532-0.0654-0.3443-0.25659-0.52916-0.22232-0.29462-0.48508-0.27784-0.8386-0.32902z" fill="#fff" stroke-width=".4951"/>
 </g>
</svg>
