<?xml version="1.0" encoding="UTF-8"?>
<svg id="svg6" width="128" height="128" version="1.1" viewBox="0 0 33.867 33.867" xmlns="http://www.w3.org/2000/svg" xmlns:xlink="http://www.w3.org/1999/xlink">
 <defs id="defs2">
  <linearGradient id="linearGradient1632" x1="132.21" x2="132.21" y1="42.152" y2="70.68" gradientTransform="translate(-111.78 -37.203) scale(.97573)" gradientUnits="userSpaceOnUse">
   <stop id="stop1626" stop-color="#4a5159" offset="0"/>
   <stop id="stop1628" stop-color="#010101" offset="1"/>
  </linearGradient>
  <filter id="filter1" x="-.231" y="-.231" width="1.462" height="1.462" color-interpolation-filters="sRGB">
   <feGaussianBlur id="feGaussianBlur1" stdDeviation="1.826"/>
  </filter>
 </defs>
 <g id="layer1">
  <rect id="rect1678" transform="translate(-65.748 -37.203) scale(.97573)" x="69.84" y="40.71" width="29.811" height="29.811" rx="6.61" ry="6.61" filter="url(#filter1)" opacity=".25" stroke="#000" stroke-linecap="round" stroke-linejoin="round" stroke-opacity=".02" stroke-width="5"/>
  <rect id="rect849" x="2.396" y="2.519" width="29.087" height="29.087" rx="6.449" ry="6.449" fill="url(#linearGradient1632)" stroke-linecap="round" stroke-linejoin="round" stroke-width="2.6877"/>
  <path id="path8" d="M10.46 11.448a1.37 1.37 0 0 0-1.371 1.371 1.37 1.37 0 0 0 1.37 1.371 1.37 1.37 0 0 0 1.372-1.37 1.37 1.37 0 0 0-1.371-1.372zm7.768.457v12.796H19.6v-5.244c.3.543.742.947 1.196 1.212.46.26 1.008.39 1.644.39 1.054 0 1.91-.438 2.566-1.316.661-.879.992-1.942.992-3.374 0-1.432-.33-2.267-.992-3.145-.657-.879-1.512-1.319-2.566-1.319-.636 0-1.184.134-1.644.4a3.16 3.16 0 0 0-1.196 1.203v-1.603zm3.847 1.371c.794 0 1.415.313 1.866.94.456.622.685 1.162.685 2.26 0 1.096-.229 1.64-.685 2.266-.451.622-1.072.932-1.866.932-.793 0-1.418-.31-1.874-.932-.451-.626-.602-.851-.602-1.948s.151-1.956.602-2.578c.456-.627 1.081-.94 1.874-.94zm-9.787 2.742v1.371h4.57v-1.37zm-1.828 3.2a1.37 1.37 0 0 0-1.371 1.37 1.37 1.37 0 0 0 1.37 1.371 1.37 1.37 0 0 0 1.372-1.37 1.37 1.37 0 0 0-1.371-1.372z" fill="#fff" stroke-width=".45698"/>
 </g>
 <style id="style15307">.B{clip-path:url(#C)}.C{fill:#3e2723}.D{fill-opacity:.15}.E{fill-opacity:.2}</style>
</svg>
