<?xml version="1.0" encoding="UTF-8"?>
<svg id="svg2117" width="128" height="128" version="1.1" viewBox="0 0 33.867 33.867" xmlns="http://www.w3.org/2000/svg" xmlns:cc="http://creativecommons.org/ns#" xmlns:dc="http://purl.org/dc/elements/1.1/" xmlns:rdf="http://www.w3.org/1999/02/22-rdf-syntax-ns#" xmlns:xlink="http://www.w3.org/1999/xlink">
 <defs id="defs2111">
  <linearGradient id="linearGradient912" x1="132.21" x2="132.21" y1="42.152" y2="70.68" gradientTransform="matrix(.97573 0 0 .97573 -111.89 -37.234)" gradientUnits="userSpaceOnUse">
   <stop id="stop1626" stop-color="#f8fcfc" offset="0"/>
   <stop id="stop1628" stop-color="#e3e5e8" offset="1"/>
  </linearGradient>
  <linearGradient id="linearGradient6825" x1="87.643" x2="87.643" y1="57.005" y2="20.523" gradientUnits="userSpaceOnUse">
   <stop id="stop6819" stop-color="#e83f3c" offset="0"/>
   <stop id="stop6821" stop-color="#ff4d25" stop-opacity=".96765" offset="1"/>
  </linearGradient>
  <linearGradient id="linearGradient6909" x1="21.333" x2="93.527" y1="30.289" y2="119.35" gradientUnits="userSpaceOnUse">
   <stop id="stop6903" stop-color="#2aaddd" offset="0"/>
   <stop id="stop6905" stop-color="#085eff" stop-opacity=".96846" offset="1"/>
  </linearGradient>
  <linearGradient id="linearGradient7031" x1="73.199" x2="106.01" y1="72.287" y2="129.11" gradientUnits="userSpaceOnUse">
   <stop id="stop7025" stop-color="#9bb013" offset="0"/>
   <stop id="stop7027" stop-color="#0ab941" offset="1"/>
  </linearGradient>
 </defs>
 <metadata id="metadata2114">
  <rdf:RDF>
   <cc:Work rdf:about="">
    <dc:format>image/svg+xml</dc:format>
    <dc:type rdf:resource="http://purl.org/dc/dcmitype/StillImage"/>
   </cc:Work>
  </rdf:RDF>
 </metadata>
 <g id="layer1">
  <g id="g1702" transform="matrix(.97573 0 0 .97573 -65.83 -36.915)" fill="none" opacity=".13962" stroke="#000" stroke-linecap="round" stroke-linejoin="round" stroke-opacity=".02">
   <rect id="rect1634" x="69.84" y="40.71" width="29.811" height="29.811" rx="6.6099" ry="6.6099" stroke-width=".1"/>
   <rect id="rect1638" x="69.84" y="40.71" width="29.811" height="29.811" rx="6.6099" ry="6.6099" stroke-width=".2"/>
   <rect id="rect1640" x="69.84" y="40.71" width="29.811" height="29.811" rx="6.6099" ry="6.6099" stroke-width=".3"/>
   <rect id="rect1642" x="69.84" y="40.71" width="29.811" height="29.811" rx="6.6099" ry="6.6099" stroke-width=".4"/>
   <rect id="rect1644" x="69.84" y="40.71" width="29.811" height="29.811" rx="6.6099" ry="6.6099" stroke-width=".5"/>
   <rect id="rect1646" x="69.84" y="40.71" width="29.811" height="29.811" rx="6.6099" ry="6.6099" stroke-width=".6"/>
   <rect id="rect1648" x="69.84" y="40.71" width="29.811" height="29.811" rx="6.6099" ry="6.6099" stroke-width=".7"/>
   <rect id="rect1650" x="69.84" y="40.71" width="29.811" height="29.811" rx="6.6099" ry="6.6099" stroke-width=".8"/>
   <rect id="rect1652" x="69.84" y="40.71" width="29.811" height="29.811" rx="6.6099" ry="6.6099"/>
   <rect id="rect1654" x="69.84" y="40.71" width="29.811" height="29.811" rx="6.6099" ry="6.6099" stroke-width="1.2"/>
   <rect id="rect1656" x="69.84" y="40.71" width="29.811" height="29.811" rx="6.6099" ry="6.6099" stroke-width="1.4"/>
   <rect id="rect1658" x="69.84" y="40.71" width="29.811" height="29.811" rx="6.6099" ry="6.6099" stroke-width="1.6"/>
   <rect id="rect1660" x="69.84" y="40.71" width="29.811" height="29.811" rx="6.6099" ry="6.6099" stroke-width="1.8"/>
   <rect id="rect1662" x="69.84" y="40.71" width="29.811" height="29.811" rx="6.6099" ry="6.6099" stroke-width="2"/>
   <rect id="rect1664" x="69.84" y="40.71" width="29.811" height="29.811" rx="6.6099" ry="6.6099" stroke-width="2.2"/>
   <rect id="rect1666" x="69.84" y="40.71" width="29.811" height="29.811" rx="6.6099" ry="6.6099" stroke-width="2.6"/>
   <rect id="rect1668" x="69.84" y="40.71" width="29.811" height="29.811" rx="6.6099" ry="6.6099" stroke-width="3"/>
   <rect id="rect1670" x="69.84" y="40.71" width="29.811" height="29.811" rx="6.6099" ry="6.6099" stroke-width="3.4"/>
   <rect id="rect1672" x="69.84" y="40.71" width="29.811" height="29.811" rx="6.6099" ry="6.6099" stroke-width="3.8"/>
   <rect id="rect1674" x="69.84" y="40.71" width="29.811" height="29.811" rx="6.6099" ry="6.6099" stroke-width="4.2"/>
   <rect id="rect1676" x="69.84" y="40.71" width="29.811" height="29.811" rx="6.6099" ry="6.6099" stroke-width="4.6"/>
   <rect id="rect1678" x="69.84" y="40.71" width="29.811" height="29.811" rx="6.6099" ry="6.6099" stroke-width="5"/>
  </g>
  <rect id="rect910" x="2.2835" y="2.4875" width="29.087" height="29.087" rx="6.4495" ry="6.4495" fill="url(#linearGradient912)" stroke-linecap="round" stroke-linejoin="round" stroke-width="2.6877"/>
  <path id="rect1039" transform="scale(.26458)" d="m36.348 15.289c-11.971 0-21.607 9.6369-21.607 21.607v53.857c0 11.971 9.6369 21.607 21.607 21.607h8.0371 6.7999c4.6669 0 8.4238-3.7569 8.4238-8.4238v-80.225c0-4.6669-3.7569-8.4238-8.4238-8.4238h-6.7999-0.18555z" fill="url(#linearGradient6909)" stroke-linecap="round" stroke-linejoin="round" stroke-width="10.158"/>
  <path id="rect1221" transform="scale(.26458)" d="m72.904 15.289c-4.6669 0-8.4238 3.7569-8.4238 8.4238v27.617c0 4.6669 3.7569 8.4258 8.4238 8.4258h29.905c4.6669 0 8.4258-3.7589 8.4258-8.4258v-11.465c0.0122-0.33416 0.0195-0.66961 0.0195-1.0078v-2.7402c0-11.538-7.2064-20.828-16.156-20.828h-2.2539c-0.18579 0-0.37045 0.0057-0.55469 0.01367-0.15493-0.0084-0.3097-0.01367-0.4668-0.01367z" fill="url(#linearGradient6825)" stroke-linecap="round" stroke-linejoin="round" stroke-width="10.158"/>
  <path id="path1366" transform="scale(.26458)" d="m72.904 67.229c-4.6669 0-8.4238 3.7589-8.4238 8.4258v0.085937 12.695 14.836c0 4.6669 3.7569 8.4238 8.4238 8.4238h10.422v-44.467h-10.422zm19.502 0v44.455c0.14548 0.00539 0.29094 0.01172 0.4375 0.01172h2.2539c8.9499 0 16.156-9.2897 16.156-20.828v-2.7402c0-0.3382-0.00744-0.67366-0.01953-1.0078v-11.465c-1e-5 -4.6669-3.7589-8.4258-8.4258-8.4258h-10.402z" fill="url(#linearGradient7031)" stroke-linecap="round" stroke-linejoin="round" stroke-width="10.158"/>
  <rect id="rect6370" x="5.6444" y="8.014" width="8.2824" height="1.5008" rx=".75041" ry=".75041" fill-opacity=".47089" style="paint-order:fill markers stroke"/>
  <rect id="rect6546" x="5.6444" y="11.965" width="8.2824" height="1.5008" rx=".75041" ry=".75041" fill-opacity=".47089" style="paint-order:fill markers stroke"/>
  <rect id="rect6548" x="5.6444" y="15.916" width="8.2824" height="1.5008" rx=".75041" ry=".75041" fill-opacity=".47089" style="paint-order:fill markers stroke"/>
  <rect id="rect6550" x="5.6444" y="19.866" width="8.2824" height="1.5008" rx=".75041" ry=".75041" fill-opacity=".47089" style="paint-order:fill markers stroke"/>
  <rect id="rect6552" x="5.6444" y="23.817" width="8.2824" height="1.5008" rx=".75041" ry=".75041" fill-opacity=".47089" style="paint-order:fill markers stroke"/>
  <path id="path20-3" d="m19.78 11.518 1.6433-1.6433-1.6433-1.6433" fill="none" opacity=".3" stroke="#000" stroke-linecap="round" stroke-linejoin="round" stroke-width=".54776px"/>
  <path id="path22-6" d="m22.518 11.518 1.6433-1.6433-1.6433-1.6433" fill="none" opacity=".3" stroke="#000" stroke-linecap="round" stroke-linejoin="round" stroke-width=".54776px"/>
  <path id="path24-7" d="m25.257 11.518 1.6433-1.6433-1.6433-1.6433" fill="none" opacity=".3" stroke="#000" stroke-linecap="round" stroke-linejoin="round" stroke-width=".54776px"/>
 </g>
</svg>
