<?xml version="1.0" encoding="UTF-8"?>
<svg id="svg6" width="128" height="128" version="1.1" viewBox="0 0 33.867 33.867" xmlns="http://www.w3.org/2000/svg" xmlns:cc="http://creativecommons.org/ns#" xmlns:dc="http://purl.org/dc/elements/1.1/" xmlns:rdf="http://www.w3.org/1999/02/22-rdf-syntax-ns#" xmlns:xlink="http://www.w3.org/1999/xlink">
 <metadata id="metadata102">
  <rdf:RDF>
   <cc:Work rdf:about="">
    <dc:format>image/svg+xml</dc:format>
    <dc:type rdf:resource="http://purl.org/dc/dcmitype/StillImage"/>
    <dc:title/>
   </cc:Work>
  </rdf:RDF>
 </metadata>
 <defs id="defs2">
  <linearGradient id="linearGradient1010">
   <stop id="stop1006" stop-color="#646464" offset="0"/>
   <stop id="stop1008" stop-color="#c9c9c9" stop-opacity=".92941" offset="1"/>
  </linearGradient>
  <linearGradient id="linearGradient951" x1="2.4065" x2="31.494" y1="17.062" y2="17.062" gradientUnits="userSpaceOnUse">
   <stop id="stop945" stop-color="#bac0c3" offset="0"/>
   <stop id="stop959" stop-color="#eaeced" offset=".13492"/>
   <stop id="stop957" stop-color="#d1d6d8" offset=".25187"/>
   <stop id="stop955" stop-color="#c8cbcb" offset=".78465"/>
   <stop id="stop953" stop-color="#d2d7da" offset=".91134"/>
   <stop id="stop947" stop-color="#afb5b8" offset="1"/>
  </linearGradient>
  <linearGradient id="linearGradient977" x1="6.2808" x2="25.549" y1="5.4868" y2="24.755" gradientUnits="userSpaceOnUse">
   <stop id="stop971" stop-color="#dce2e4" offset="0"/>
   <stop id="stop973" stop-color="#acaeae" offset="1"/>
  </linearGradient>
  <radialGradient id="radialGradient992" cx="24.545" cy="29.496" r="1.2993" gradientTransform="translate(.025057 -.0083523)" gradientUnits="userSpaceOnUse">
   <stop id="stop986" stop-color="#9becbc" offset="0"/>
   <stop id="stop994" stop-color="#4ebc87" stop-opacity=".98431" offset=".87273"/>
   <stop id="stop988" stop-color="#328b5f" stop-opacity=".9837" offset="1"/>
  </radialGradient>
  <linearGradient id="linearGradient1012" x1="27.756" x2="27.756" y1="23.969" y2="22.332" gradientUnits="userSpaceOnUse" xlink:href="#linearGradient1010"/>
  <linearGradient id="linearGradient1208" x1="18.431" x2="18.431" y1="22.999" y2="5.6266" gradientUnits="userSpaceOnUse">
   <stop id="stop1202" stop-color="#f26530" offset="0"/>
   <stop id="stop1204" stop-color="#f8b654" offset="1"/>
  </linearGradient>
  <linearGradient id="linearGradient1158" x1="7.3317" x2="7.3317" y1="23.357" y2="28.435" gradientTransform="translate(1.7502 -1.6799)" gradientUnits="userSpaceOnUse">
   <stop id="stop1152" stop-color="#fff" offset="0"/>
   <stop id="stop1154" stop-color="#fcecd0" offset="1"/>
  </linearGradient>
  <radialGradient id="radialGradient1121" cx="-5.646" cy="27.559" r="9.3785" gradientTransform="matrix(.95466 0 0 .95466 -.77571 2.9032)" gradientUnits="userSpaceOnUse">
   <stop id="stop1115" offset="0"/>
   <stop id="stop1123" stop-opacity=".83529" offset=".59194"/>
   <stop id="stop1125" stop-opacity=".60784" offset=".73804"/>
   <stop id="stop1131" stop-opacity=".50196" offset=".80353"/>
   <stop id="stop1129" stop-opacity=".20784" offset=".92947"/>
   <stop id="stop1117" stop-opacity="0" offset="1"/>
  </radialGradient>
  <linearGradient id="linearGradient1107" x1="-5.6025" x2="-5.6025" y1="21.924" y2="36.618" gradientUnits="userSpaceOnUse">
   <stop id="stop1101" stop-color="#e78d0a" offset="0"/>
   <stop id="stop1103" stop-color="#fab219" offset="1"/>
  </linearGradient>
  <linearGradient id="linearGradient1099" x1="-6.4529" x2="-6.4529" y1="23.436" y2="35.862" gradientUnits="userSpaceOnUse">
   <stop id="stop1093" stop-color="#fab219" offset="0"/>
   <stop id="stop1095" stop-color="#e78d0a" offset="1"/>
  </linearGradient>
 </defs>
 <g id="layer1">
  <g id="g1702" transform="matrix(.97573 0 0 .97573 -65.748 -37.203)" fill="none" opacity=".29677" stroke="#000" stroke-linecap="round" stroke-linejoin="round" stroke-opacity=".02">
   <rect id="rect1634" x="69.84" y="40.71" width="29.811" height="29.811" rx="6.6099" ry="6.6099" stroke-width=".1"/>
   <rect id="rect1638" x="69.84" y="40.71" width="29.811" height="29.811" rx="6.6099" ry="6.6099" stroke-width=".2"/>
   <rect id="rect1640" x="69.84" y="40.71" width="29.811" height="29.811" rx="6.6099" ry="6.6099" stroke-width=".3"/>
   <rect id="rect1642" x="69.84" y="40.71" width="29.811" height="29.811" rx="6.6099" ry="6.6099" stroke-width=".4"/>
   <rect id="rect1644" x="69.84" y="40.71" width="29.811" height="29.811" rx="6.6099" ry="6.6099" stroke-width=".5"/>
   <rect id="rect1646" x="69.84" y="40.71" width="29.811" height="29.811" rx="6.6099" ry="6.6099" stroke-width=".6"/>
   <rect id="rect1648" x="69.84" y="40.71" width="29.811" height="29.811" rx="6.6099" ry="6.6099" stroke-width=".7"/>
   <rect id="rect1650" x="69.84" y="40.71" width="29.811" height="29.811" rx="6.6099" ry="6.6099" stroke-width=".8"/>
   <rect id="rect1652" x="69.84" y="40.71" width="29.811" height="29.811" rx="6.6099" ry="6.6099"/>
   <rect id="rect1654" x="69.84" y="40.71" width="29.811" height="29.811" rx="6.6099" ry="6.6099" stroke-width="1.2"/>
   <rect id="rect1656" x="69.84" y="40.71" width="29.811" height="29.811" rx="6.6099" ry="6.6099" stroke-width="1.4"/>
   <rect id="rect1658" x="69.84" y="40.71" width="29.811" height="29.811" rx="6.6099" ry="6.6099" stroke-width="1.6"/>
   <rect id="rect1660" x="69.84" y="40.71" width="29.811" height="29.811" rx="6.6099" ry="6.6099" stroke-width="1.8"/>
   <rect id="rect1662" x="69.84" y="40.71" width="29.811" height="29.811" rx="6.6099" ry="6.6099" stroke-width="2"/>
   <rect id="rect1664" x="69.84" y="40.71" width="29.811" height="29.811" rx="6.6099" ry="6.6099" stroke-width="2.2"/>
   <rect id="rect1666" x="69.84" y="40.71" width="29.811" height="29.811" rx="6.6099" ry="6.6099" stroke-width="2.6"/>
   <rect id="rect1668" x="69.84" y="40.71" width="29.811" height="29.811" rx="6.6099" ry="6.6099" stroke-width="3"/>
   <rect id="rect1670" x="69.84" y="40.71" width="29.811" height="29.811" rx="6.6099" ry="6.6099" stroke-width="3.4"/>
   <rect id="rect1672" x="69.84" y="40.71" width="29.811" height="29.811" rx="6.6099" ry="6.6099" stroke-width="3.8"/>
   <rect id="rect1674" x="69.84" y="40.71" width="29.811" height="29.811" rx="6.6099" ry="6.6099" stroke-width="4.2"/>
   <rect id="rect1676" x="69.84" y="40.71" width="29.811" height="29.811" rx="6.6099" ry="6.6099" stroke-width="4.6"/>
   <rect id="rect1678" x="69.84" y="40.71" width="29.811" height="29.811" rx="6.6099" ry="6.6099" stroke-width="5"/>
  </g>
  <rect id="rect849" x="2.4065" y="2.5186" width="29.087" height="29.087" rx="6.4495" ry="6.4495" fill="url(#linearGradient951)" stroke-linecap="round" stroke-linejoin="round" stroke-width="2.6877"/>
  <rect id="rect969" x="2.4065" y="2.5186" width="29.087" height="24.457" rx="6.4495" ry="6.4495" fill="url(#linearGradient977)" stroke-linecap="round" stroke-linejoin="round" stroke-width="2.6877"/>
  <path id="rect1179" d="m9.1564 3.9885c-3.0918 0-5.5805 2.4893-5.5805 5.5811v10.423c0 2.3511 1.8925 4.2442 4.2437 4.2442h18.261c2.3511 0 4.2442-1.893 4.2442-4.2442v-10.423c-3e-6 -3.0918-2.4893-5.5811-5.5811-5.5811z" fill="url(#linearGradient1208)" stroke-linecap="round" stroke-linejoin="round" stroke-width="2.6877"/>
  <path id="rect979" transform="scale(.26458)" d="m9.0957 75.348v2.2324c0 13.504 10.871 24.375 24.375 24.375h61.186c13.504 0 24.377-10.871 24.377-24.375v-2.2324c0 13.504-10.873 24.377-24.377 24.377h-61.186c-13.504 0-24.375-10.873-24.375-24.377z" fill="#f1f3f4" stroke-linecap="round" stroke-linejoin="round" stroke-width="10.158"/>
  <g id="g1002" transform="translate(.70871 -.33073)" fill-rule="evenodd">
   <circle id="circle996" cx="24.57" cy="29.488" r="1.4413" fill="#fff" fill-opacity=".36413"/>
   <circle id="path984" cx="24.57" cy="29.488" r="1.2993" fill="url(#radialGradient992)"/>
  </g>
  <g id="g1029" transform="translate(0 -.15802)" fill-rule="evenodd">
   <circle id="circle1019" cx="27.436" cy="22.975" r="1.1509" fill="#fff" fill-opacity=".47826"/>
   <g id="g1023" transform="translate(-.10858 -.025057)">
    <circle id="path1004" cx="27.545" cy="23" r=".99219" fill="url(#linearGradient1012)"/>
    <path id="rect1014" d="m27.032 22.55c-0.03216 0.03216-0.03159 0.08395 5.6e-4 0.11611l0.33332 0.33332-0.33332 0.33333c-0.03216 0.03216-0.03272 0.08395-5.6e-4 0.11611l0.06334 0.06334c0.03216 0.03216 0.08451 0.03216 0.11667 0l0.33332-0.33332 0.33332 0.33332c0.03216 0.03216 0.08339 0.03216 0.11555 0l0.06334-0.06334c0.03216-0.03216 0.03272-0.08395 5.6e-4 -0.11611l-0.33332-0.33332 0.33332-0.33332c0.03216-0.03216 0.03159-0.08395-5.6e-4 -0.11611l-0.06334-0.06334c-0.03216-0.03216-0.08339-0.03216-0.11555 0l-0.33332 0.33332-0.33332-0.33332c-0.03216-0.03216-0.08451-0.03216-0.11667 0z" fill="#646464"/>
   </g>
  </g>
  <g id="g1051" transform="translate(0 -16.82)" fill-rule="evenodd">
   <circle id="circle1043" cx="27.436" cy="22.975" r="1.1509" fill="#fff" fill-opacity=".47826"/>
   <g id="g1049" transform="translate(-.10858 -.025057)">
    <circle id="circle1045" cx="27.545" cy="23" r=".99219" fill="url(#linearGradient1012)"/>
    <path id="path1047" d="m27.032 22.55c-0.03216 0.03216-0.03159 0.08395 5.6e-4 0.11611l0.33332 0.33332-0.33332 0.33333c-0.03216 0.03216-0.03272 0.08395-5.6e-4 0.11611l0.06334 0.06334c0.03216 0.03216 0.08451 0.03216 0.11667 0l0.33332-0.33332 0.33332 0.33332c0.03216 0.03216 0.08339 0.03216 0.11555 0l0.06334-0.06334c0.03216-0.03216 0.03272-0.08395 5.6e-4 -0.11611l-0.33332-0.33332 0.33332-0.33332c0.03216-0.03216 0.03159-0.08395-5.6e-4 -0.11611l-0.06334-0.06334c-0.03216-0.03216-0.08339-0.03216-0.11555 0l-0.33332 0.33332-0.33332-0.33332c-0.03216-0.03216-0.08451-0.03216-0.11667 0z" fill="#646464"/>
   </g>
  </g>
  <g id="g1061" transform="translate(-21.072 -16.82)" fill-rule="evenodd">
   <circle id="circle1053" cx="27.436" cy="22.975" r="1.1509" fill="#fff" fill-opacity=".47826"/>
   <g id="g1059" transform="translate(-.10858 -.025057)">
    <circle id="circle1055" cx="27.545" cy="23" r=".99219" fill="url(#linearGradient1012)"/>
    <path id="path1057" d="m27.032 22.55c-0.03216 0.03216-0.03159 0.08395 5.6e-4 0.11611l0.33332 0.33332-0.33332 0.33333c-0.03216 0.03216-0.03272 0.08395-5.6e-4 0.11611l0.06334 0.06334c0.03216 0.03216 0.08451 0.03216 0.11667 0l0.33332-0.33332 0.33332 0.33332c0.03216 0.03216 0.08339 0.03216 0.11555 0l0.06334-0.06334c0.03216-0.03216 0.03272-0.08395 5.6e-4 -0.11611l-0.33332-0.33332 0.33332-0.33332c0.03216-0.03216 0.03159-0.08395-5.6e-4 -0.11611l-0.06334-0.06334c-0.03216-0.03216-0.08339-0.03216-0.11555 0l-0.33332 0.33332-0.33332-0.33332c-0.03216-0.03216-0.08451-0.03216-0.11667 0z" fill="#646464"/>
   </g>
  </g>
  <g id="g1198" transform="translate(-21.072 -.15802)" fill-rule="evenodd">
   <circle id="circle1190" cx="27.436" cy="22.975" r="1.1509" fill="#fff" fill-opacity=".47826"/>
   <g id="g1196" transform="translate(-.10858 -.025057)">
    <circle id="circle1192" cx="27.545" cy="23" r=".99219" fill="url(#linearGradient1012)"/>
    <path id="path1194" d="m27.032 22.55c-0.03216 0.03216-0.03159 0.08395 5.6e-4 0.11611l0.33332 0.33332-0.33332 0.33333c-0.03216 0.03216-0.03272 0.08395-5.6e-4 0.11611l0.06334 0.06334c0.03216 0.03216 0.08451 0.03216 0.11667 0l0.33332-0.33332 0.33332 0.33332c0.03216 0.03216 0.08339 0.03216 0.11555 0l0.06334-0.06334c0.03216-0.03216 0.03272-0.08395 5.6e-4 -0.11611l-0.33332-0.33332 0.33332-0.33332c0.03216-0.03216 0.03159-0.08395-5.6e-4 -0.11611l-0.06334-0.06334c-0.03216-0.03216-0.08339-0.03216-0.11555 0l-0.33332 0.33332-0.33332-0.33332c-0.03216-0.03216-0.08451-0.03216-0.11667 0z" fill="#646464"/>
   </g>
  </g>
  <path id="path1067" d="m17.11 6.4433-0.95343 2.0925h0.72384v7.0361c-0.02323 0.04272-0.04761 0.08683-0.04761 0.17533h0.04761v1.5448l-1.6256-1.6256c-0.25225-0.25225-0.40033-0.43026-0.48244-0.59022-0.08211-0.15996-0.11184-0.31207-0.11184-0.56918v-0.89179a1.2149 1.2149 0 0 0 0.93904-1.1815 1.2149 1.2149 0 0 0-1.2148-1.2151 1.2149 1.2149 0 0 0-1.2148 1.2151 1.2149 1.2149 0 0 0 0.98997 1.193v0.88034c0 0.30219 0.04593 0.55888 0.16868 0.79803 0.12276 0.23916 0.30858 0.44959 0.57324 0.71424l1.956 1.9574 0.02251-0.02251v1.2631a1.2993 1.2993 0 0 0-1.0106 1.265 1.2993 1.2993 0 0 0 1.2993 1.2993 1.2993 1.2993 0 0 0 1.2993-1.2993 1.2993 1.2993 0 0 0-1.0874-1.2805v-3.4867c0.05094-0.06834 0.13041-0.16208 0.22885-0.26909 0.19907-0.21638 0.47139-0.48582 0.74377-0.74636 0.54476-0.52107 1.0907-1.0088 1.0907-1.0088l0.01144-0.0096 0.0081-0.01c0.1918-0.21404 0.43096-0.50078 0.44663-0.9693v-1.2808h0.75927c0.03305 0 0.0598-0.02674 0.0598-0.0598v-1.9393c0-0.03305-0.02674-0.05943-0.0598-0.05943h-1.9393c-0.03305 0-0.0598 0.02638-0.0598 0.05943v1.9393c0 0.03305 0.02674 0.0598 0.0598 0.0598h0.67918v1.2668c-0.01174 0.32211-0.12884 0.43873-0.31818 0.65002-0.02039 0.01819-0.54167 0.48146-1.0841 1.0003-0.22286 0.21317-0.43691 0.42667-0.62639 0.62455v-6.4271h0.6825z" color="#000000" color-rendering="auto" dominant-baseline="auto" fill="#fff" image-rendering="auto" shape-rendering="auto" solid-color="#000000" style="font-feature-settings:normal;font-variant-alternates:normal;font-variant-caps:normal;font-variant-ligatures:normal;font-variant-numeric:normal;font-variant-position:normal;isolation:auto;mix-blend-mode:normal;shape-padding:0;text-decoration-color:#000000;text-decoration-line:none;text-decoration-style:solid;text-indent:0;text-orientation:mixed;text-transform:none;white-space:normal"/>
  <g id="g1039" transform="translate(-21.072 .20087)" fill-rule="evenodd">
   <circle id="circle1031" cx="27.436" cy="22.975" r="1.1509" fill="#fff" fill-opacity=".47826"/>
   <g id="g1037" transform="translate(-.10858 -.025057)">
    <circle id="circle1033" cx="27.545" cy="23" r=".99219" fill="url(#linearGradient1012)"/>
    <path id="path1035" d="m27.032 22.55c-0.03216 0.03216-0.03159 0.08395 5.6e-4 0.11611l0.33332 0.33332-0.33332 0.33333c-0.03216 0.03216-0.03272 0.08395-5.6e-4 0.11611l0.06334 0.06334c0.03216 0.03216 0.08451 0.03216 0.11667 0l0.33332-0.33332 0.33332 0.33332c0.03216 0.03216 0.08339 0.03216 0.11555 0l0.06334-0.06334c0.03216-0.03216 0.03272-0.08395 5.6e-4 -0.11611l-0.33332-0.33332 0.33332-0.33332c0.03216-0.03216 0.03159-0.08395-5.6e-4 -0.11611l-0.06334-0.06334c-0.03216-0.03216-0.08339-0.03216-0.11555 0l-0.33332 0.33332-0.33332-0.33332c-0.03216-0.03216-0.08451-0.03216-0.11667 0z" fill="#646464"/>
   </g>
  </g>
  <g id="g1137" transform="translate(15.592 -4.6183)" fill-rule="evenodd">
   <circle id="path1113" cx="-6.1657" cy="29.213" r="8.9533" fill="url(#radialGradient1121)" opacity=".343"/>
   <g id="g1111">
    <circle id="path1089" cx="-6.4368" cy="29.436" r="7.7174" fill="url(#linearGradient1107)"/>
    <circle id="circle1091" cx="-6.4368" cy="29.436" r="7.1504" fill="url(#linearGradient1099)"/>
   </g>
  </g>
  <path id="rect1139" d="m7.6014 20.846c-0.17583 0-0.31781 0.14146-0.31781 0.31729v2.6732l-1.3679 0.0093a0.50005 0.50005 0 0 0-0.38086 0.8201l3.2732 3.9434a0.50005 0.50005 0 0 0 0.77566-0.0062l3.1972-3.9899a0.50005 0.50005 0 0 0-0.3948-0.81235l-1.3606 0.0093v-2.6469c0-0.17583-0.14146-0.31729-0.31729-0.31729z" fill="url(#linearGradient1158)" fill-rule="evenodd"/>
 </g>
</svg>
