<?xml version="1.0" encoding="UTF-8"?>
<svg id="svg1443" width="128" height="128" version="1.1" viewBox="0 0 33.867 33.867" xmlns="http://www.w3.org/2000/svg" xmlns:cc="http://creativecommons.org/ns#" xmlns:dc="http://purl.org/dc/elements/1.1/" xmlns:rdf="http://www.w3.org/1999/02/22-rdf-syntax-ns#" xmlns:xlink="http://www.w3.org/1999/xlink">
 <defs id="defs1437">
  <linearGradient id="linearGradient1032">
   <stop id="stop1028" stop-color="#242424" offset="0"/>
   <stop id="stop1030" stop-color="#4b4b4b" offset="1"/>
  </linearGradient>
  <linearGradient id="linearGradient976">
   <stop id="stop972" stop-color="#fff" offset="0"/>
   <stop id="stop982" stop-color="#fafafa" offset=".30832"/>
   <stop id="stop974" stop-color="#e5e5e5" offset="1"/>
  </linearGradient>
  <filter id="filter2682" x="-.090522" y="-.13384" width="1.181" height="1.2677" color-interpolation-filters="sRGB">
   <feGaussianBlur id="feGaussianBlur2684" stdDeviation="0.93699396"/>
  </filter>
  <linearGradient id="linearGradient1848" x1="133" x2="132.86" y1="62.064" y2="45.671" gradientTransform="matrix(1.1709 0 0 1.1709 -138.91 -46.085)" gradientUnits="userSpaceOnUse">
   <stop id="stop1842" stop-color="#82cc00" offset="0"/>
   <stop id="stop1844" stop-color="#a3ec23" offset="1"/>
  </linearGradient>
  <radialGradient id="radialGradient980" cx="39.551" cy="19.012" r="4.5437" gradientTransform="matrix(1.3353 -.010862 .014705 1.8078 -15.379 -14.846)" gradientUnits="userSpaceOnUse" xlink:href="#linearGradient976"/>
  <radialGradient id="radialGradient1034" cx="38.449" cy="20.114" r="2.1785" gradientTransform="matrix(1.2397 .010076 -.01907 2.3464 -8.8342 -27.84)" gradientUnits="userSpaceOnUse" xlink:href="#linearGradient1032"/>
  <radialGradient id="radialGradient1066" cx="16.951" cy="5.3092" r="14.544" gradientTransform="matrix(4.6644 0 0 2.2083 -62.116 -6.415)" gradientUnits="userSpaceOnUse">
   <stop id="stop1626" stop-color="#72e845" offset="0"/>
   <stop id="stop1628" stop-color="#1eac10" offset="1"/>
  </radialGradient>
 </defs>
 <metadata id="metadata1440">
  <rdf:RDF>
   <cc:Work rdf:about="">
    <dc:format>image/svg+xml</dc:format>
    <dc:type rdf:resource="http://purl.org/dc/dcmitype/StillImage"/>
    <dc:title/>
   </cc:Work>
  </rdf:RDF>
 </metadata>
 <g id="layer1">
  <g id="g1702" transform="matrix(.97573 0 0 .96361 -65.737 -36.328)" fill="none" opacity=".18754" stroke="#000" stroke-linecap="round" stroke-linejoin="round" stroke-opacity=".02">
   <rect id="rect1634" x="69.84" y="40.71" width="29.811" height="29.811" rx="6.6099" ry="6.6099" stroke-width=".1"/>
   <rect id="rect1638" x="69.84" y="40.71" width="29.811" height="29.811" rx="6.6099" ry="6.6099" stroke-width=".2"/>
   <rect id="rect1640" x="69.84" y="40.71" width="29.811" height="29.811" rx="6.6099" ry="6.6099" stroke-width=".3"/>
   <rect id="rect1642" x="69.84" y="40.71" width="29.811" height="29.811" rx="6.6099" ry="6.6099" stroke-width=".4"/>
   <rect id="rect1644" x="69.84" y="40.71" width="29.811" height="29.811" rx="6.6099" ry="6.6099" stroke-width=".5"/>
   <rect id="rect1646" x="69.84" y="40.71" width="29.811" height="29.811" rx="6.6099" ry="6.6099" stroke-width=".6"/>
   <rect id="rect1648" x="69.84" y="40.71" width="29.811" height="29.811" rx="6.6099" ry="6.6099" stroke-width=".7"/>
   <rect id="rect1650" x="69.84" y="40.71" width="29.811" height="29.811" rx="6.6099" ry="6.6099" stroke-width=".8"/>
   <rect id="rect1652" x="69.84" y="40.71" width="29.811" height="29.811" rx="6.6099" ry="6.6099"/>
   <rect id="rect1654" x="69.84" y="40.71" width="29.811" height="29.811" rx="6.6099" ry="6.6099" stroke-width="1.2"/>
   <rect id="rect1656" x="69.84" y="40.71" width="29.811" height="29.811" rx="6.6099" ry="6.6099" stroke-width="1.4"/>
   <rect id="rect1658" x="69.84" y="40.71" width="29.811" height="29.811" rx="6.6099" ry="6.6099" stroke-width="1.6"/>
   <rect id="rect1660" x="69.84" y="40.71" width="29.811" height="29.811" rx="6.6099" ry="6.6099" stroke-width="1.8"/>
   <rect id="rect1662" x="69.84" y="40.71" width="29.811" height="29.811" rx="6.6099" ry="6.6099" stroke-width="2"/>
   <rect id="rect1664" x="69.84" y="40.71" width="29.811" height="29.811" rx="6.6099" ry="6.6099" stroke-width="2.2"/>
   <rect id="rect1666" x="69.84" y="40.71" width="29.811" height="29.811" rx="6.6099" ry="6.6099" stroke-width="2.6"/>
   <rect id="rect1668" x="69.84" y="40.71" width="29.811" height="29.811" rx="6.6099" ry="6.6099" stroke-width="3"/>
   <rect id="rect1670" x="69.84" y="40.71" width="29.811" height="29.811" rx="6.6099" ry="6.6099" stroke-width="3.4"/>
   <rect id="rect1672" x="69.84" y="40.71" width="29.811" height="29.811" rx="6.6099" ry="6.6099" stroke-width="3.8"/>
   <rect id="rect1674" x="69.84" y="40.71" width="29.811" height="29.811" rx="6.6099" ry="6.6099" stroke-width="4.2"/>
   <rect id="rect1676" x="69.84" y="40.71" width="29.811" height="29.811" rx="6.6099" ry="6.6099" stroke-width="4.6"/>
   <rect id="rect1678" x="69.84" y="40.71" width="29.811" height="29.811" rx="6.6099" ry="6.6099" stroke-width="5"/>
  </g>
  <rect id="rect849" x="2.4074" y="2.5392" width="29.087" height="29.087" rx="6.4495" ry="6.4495" fill="url(#radialGradient1066)" stroke-linecap="round" stroke-linejoin="round" stroke-width="2.6877"/>
  <path id="path4-5" transform="matrix(1.1709 0 0 1.1709 -138.91 -46.085)" d="m145.49 58.705v-7.1851c-0.28138-0.6865-0.69621-1.3051-1.2104-1.8242 0.0461-0.7714-0.12619-1.5525-0.52641-2.2487-0.26201-0.45605-0.89513-0.52155-1.2492-0.12857l-0.80294 0.89026c-5e-3 -0.0025-9e-3 -0.0025-0.0147-0.0048 0.10435-0.81264-0.0339-1.652-0.43182-2.4015-0.2474-0.46575-0.78345-0.54822-1.1522-0.1698l-3.857 3.9079c-0.0437 0.04124-0.0897 0.0849-0.13334 0.12856-2e-3 0.0025-7e-3 0.0048-9e-3 0.0073-1.6762 1.5185-4.2888 1.5816-5.8849 0.18679-0.0994-0.10916-0.20377-0.21348-0.31293-0.31536l-3.8642-3.9128c-0.36872-0.37842-0.90481-0.29594-1.1522 0.16981-0.39539 0.74714-0.53608 1.5816-0.43421 2.3894-7e-3 0.0025-0.0145 0.0025-0.0218 0.0048l-0.79323-0.88056c-0.35416-0.39298-0.98728-0.32748-1.2517 0.12857-0.39297 0.68164-0.5652 1.4458-0.52882 2.2026-0.50699 0.49971-0.91937 1.0965-1.2105 1.7587v7.4107c0.87085 1.9868 2.8551 3.3767 5.162 3.3767h0.24742c2.2875 0 4.2572-1.3657 5.1378-3.3258 0.84665-0.0048 1.4603-0.0073 1.8412-0.0073 0.82469-0.0023 1.4675-0.0023 1.9285-0.0023 0.87814 1.9648 2.8527 3.3354 5.1426 3.3354h0.17468c2.3506 0 4.364-1.4434 5.2081-3.4907z" clip-rule="evenodd" fill-rule="evenodd" filter="url(#filter2682)" opacity=".2" stroke-width=".09936"/>
  <path id="path4" d="m31.437 22.651v-8.4128c-0.32946-0.80379-0.81517-1.5281-1.4172-2.1359 0.05398-0.9032-0.14775-1.8178-0.61636-2.6329-0.30678-0.53397-1.0481-0.61066-1.4627-0.15054l-0.94013 1.0424c-0.0059-0.0029-0.01054-0.0029-0.01721-0.0056 0.12218-0.9515-0.03969-1.9342-0.5056-2.8119-0.28967-0.54535-0.91732-0.64191-1.349-0.19883l-4.5161 4.5756c-0.05117 0.04829-0.10503 0.09941-0.15612 0.15053-0.0023 0.0029-0.0082 0.0056-0.01054 0.0085-1.9626 1.778-5.0216 1.8518-6.8905 0.2187-0.11638-0.12782-0.23859-0.24995-0.3664-0.36924l-4.5245-4.5813c-0.43172-0.44308-1.0594-0.34651-1.3491 0.19882-0.46295 0.87479-0.62768 1.8518-0.5084 2.7976-0.0082 0.0029-0.016978 0.0029-0.025525 0.0056l-0.92877-1.031c-0.41467-0.46012-1.156-0.38344-1.4656 0.15054-0.46012 0.7981-0.66177 1.6928-0.61918 2.5789-0.59362 0.58509-1.0765 1.2838-1.4173 2.0592v8.6769c1.0196 2.3263 3.343 3.9537 6.0441 3.9537h0.2897c2.6784 0 4.9846-1.599 6.0156-3.894 0.99131-0.0056 1.7098-0.0085 2.1558-0.0085 0.9656-0.0027 1.7183-0.0027 2.258-0.0027 1.0282 2.3006 3.3401 3.9053 6.0212 3.9053h0.20453c2.7523 0 5.1096-1.69 6.098-4.0871z" clip-rule="evenodd" fill="url(#linearGradient1848)" fill-rule="evenodd" stroke-width=".11634"/>
  <path id="path10" d="m9.5104 15.133c1.2014 0 2.1785 0.9742 2.1785 2.1785v2.3262c0 1.2014-0.9742 2.1784-2.1785 2.1784-1.2014 0-2.1785-0.9742-2.1785-2.1784v-2.3262c0-1.2043 0.97705-2.1785 2.1785-2.1785z" clip-rule="evenodd" fill="#4b4b4b" fill-rule="evenodd" stroke-width=".11634"/>
  <path id="path12" d="m16.895 20.413c1.3774 0 2.4937 1.1163 2.4937 2.4937v0.86636c0 1.3775-1.1162 2.4937-2.4937 2.4937-1.3775 0-2.4938-1.1161-2.4938-2.4937v-0.86636c0-1.3774 1.1162-2.4937 2.4938-2.4937z" clip-rule="evenodd" fill="#f48000" fill-rule="evenodd" stroke-width=".11634"/>
  <path id="path14" d="m13.453 23.146c0.29823-1.5904 1.7723-2.738 3.5361-2.738 1.6048 0 3.0562 1.1759 3.3486 2.738v0.12786c0 0.09946-0.03407 0.13914-0.12493 0.12786l-3.2208 0.57365h-0.19034l-3.2237-0.57656c-0.09086 0.01136-0.12493-0.02838-0.12493-0.12773z" fill="#ffc200" stroke-width=".11634"/>
  <path id="path16" d="m16.367 20.959c0.16764-0.03968 0.34087-0.06248 0.51409-0.06248 0.18462 0 0.37217 0.0228 0.55678 0.07108 0.37484 0.09656 0.63613 0.43452 0.63613 0.82076 0 0.31248-0.25279 0.56237-0.56237 0.56237h-1.2326c-0.31247 0-0.56237-0.2528-0.56237-0.56237-0.0023-0.39194 0.26699-0.7356 0.65032-0.82936z" clip-rule="evenodd" fill="#ffe747" fill-rule="evenodd" stroke-width=".11634"/>
  <path id="path20" d="m7.6699 17.774c0.77647 0 1.4059-0.62694 1.4059-1.4002 0-0.77329-0.62946-1.4003-1.4059-1.4003s-1.4059 0.62696-1.4059 1.4003c0 0.77329 0.62945 1.4002 1.4059 1.4002z" fill="#fff" stroke-width=".11634"/>
  <g id="g1050" transform="translate(-14.068 -2.5536)">
   <rect id="rect1044" x="35.007" y="14.958" width="9.0874" height="11.96" rx="4.5437" ry="4.5437" fill="#22723c" fill-opacity=".1638" stroke-linecap="round" stroke-linejoin="round"/>
   <rect id="rect966" x="34.514" y="14.633" width="9.0874" height="11.96" rx="4.5437" ry="4.5437" fill="url(#radialGradient980)" stroke-linecap="round" stroke-linejoin="round"/>
   <path id="path10-6" d="m39.128 17.465c1.2014 0 2.1785 0.9742 2.1785 2.1785v2.3262c0 1.2014-0.9742 2.1784-2.1785 2.1784-1.2014 0-2.1785-0.9742-2.1785-2.1784v-2.3262c0-1.2043 0.97705-2.1785 2.1785-2.1785z" clip-rule="evenodd" fill="url(#radialGradient1034)" fill-rule="evenodd" stroke-width=".11634"/>
   <path id="path20-7" d="m37.287 20.107c0.77647 0 1.4059-0.62694 1.4059-1.4002 0-0.77329-0.62946-1.4003-1.4059-1.4003s-1.4059 0.62696-1.4059 1.4003c0 0.77329 0.62945 1.4002 1.4059 1.4002z" fill="#fff" stroke-width=".11634"/>
  </g>
  <g id="g1060" transform="matrix(-1 0 0 1 47.599 -2.3349)">
   <rect id="rect1052" x="35.007" y="14.958" width="9.0874" height="11.96" rx="4.5437" ry="4.5437" fill="#22723c" fill-opacity=".1638" stroke-linecap="round" stroke-linejoin="round"/>
   <rect id="rect1054" x="34.514" y="14.633" width="9.0874" height="11.96" rx="4.5437" ry="4.5437" fill="url(#radialGradient980)" stroke-linecap="round" stroke-linejoin="round"/>
   <path id="path1056" d="m39.128 17.465c1.2014 0 2.1785 0.9742 2.1785 2.1785v2.3262c0 1.2014-0.9742 2.1784-2.1785 2.1784-1.2014 0-2.1785-0.9742-2.1785-2.1784v-2.3262c0-1.2043 0.97705-2.1785 2.1785-2.1785z" clip-rule="evenodd" fill="url(#radialGradient1034)" fill-rule="evenodd" stroke-width=".11634"/>
   <path id="path1058" d="m37.287 20.107c0.77647 0 1.4059-0.62694 1.4059-1.4002 0-0.77329-0.62946-1.4003-1.4059-1.4003s-1.4059 0.62696-1.4059 1.4003c0 0.77329 0.62945 1.4002 1.4059 1.4002z" fill="#fff" stroke-width=".11634"/>
  </g>
 </g>
</svg>
