<?xml version="1.0" encoding="UTF-8"?>
<svg id="svg1829" width="128" height="128" version="1.1" viewBox="0 0 33.867 33.867" xmlns="http://www.w3.org/2000/svg" xmlns:cc="http://creativecommons.org/ns#" xmlns:dc="http://purl.org/dc/elements/1.1/" xmlns:rdf="http://www.w3.org/1999/02/22-rdf-syntax-ns#" xmlns:xlink="http://www.w3.org/1999/xlink">
 <defs id="defs1823">
  <radialGradient id="radialGradient908" cx="16.937" cy="3.2428" r="14.544" gradientTransform="matrix(4.4792 0 0 2.0392 -58.927 -3.3698)" gradientUnits="userSpaceOnUse">
   <stop id="stop930" stop-color="#ffe447" offset="0"/>
   <stop id="stop932" stop-color="#ffb702" offset="1"/>
  </radialGradient>
  <linearGradient id="linearGradient2560" x1="22.794" x2="21.395" y1="63.878" y2="147.81" gradientUnits="userSpaceOnUse">
   <stop id="stop2554" stop-color="#fff" offset="0"/>
   <stop id="stop2556" stop-color="#ffbe0d" offset="1"/>
  </linearGradient>
 </defs>
 <metadata id="metadata1826">
  <rdf:RDF>
   <cc:Work rdf:about="">
    <dc:format>image/svg+xml</dc:format>
    <dc:type rdf:resource="http://purl.org/dc/dcmitype/StillImage"/>
   </cc:Work>
  </rdf:RDF>
 </metadata>
 <g id="layer1" stroke-linecap="round">
  <g id="g1702" transform="matrix(.97573 0 0 .97573 -65.587 -37.192)" fill="none" opacity=".29676" stroke="#000" stroke-linejoin="round" stroke-opacity=".02">
   <rect id="rect1634" x="69.84" y="40.71" width="29.811" height="29.811" rx="6.6099" ry="6.6099" stroke-width=".1"/>
   <rect id="rect1638" x="69.84" y="40.71" width="29.811" height="29.811" rx="6.6099" ry="6.6099" stroke-width=".2"/>
   <rect id="rect1640" x="69.84" y="40.71" width="29.811" height="29.811" rx="6.6099" ry="6.6099" stroke-width=".3"/>
   <rect id="rect1642" x="69.84" y="40.71" width="29.811" height="29.811" rx="6.6099" ry="6.6099" stroke-width=".4"/>
   <rect id="rect1644" x="69.84" y="40.71" width="29.811" height="29.811" rx="6.6099" ry="6.6099" stroke-width=".5"/>
   <rect id="rect1646" x="69.84" y="40.71" width="29.811" height="29.811" rx="6.6099" ry="6.6099" stroke-width=".6"/>
   <rect id="rect1648" x="69.84" y="40.71" width="29.811" height="29.811" rx="6.6099" ry="6.6099" stroke-width=".7"/>
   <rect id="rect1650" x="69.84" y="40.71" width="29.811" height="29.811" rx="6.6099" ry="6.6099" stroke-width=".8"/>
   <rect id="rect1652" x="69.84" y="40.71" width="29.811" height="29.811" rx="6.6099" ry="6.6099"/>
   <rect id="rect1654" x="69.84" y="40.71" width="29.811" height="29.811" rx="6.6099" ry="6.6099" stroke-width="1.2"/>
   <rect id="rect1656" x="69.84" y="40.71" width="29.811" height="29.811" rx="6.6099" ry="6.6099" stroke-width="1.4"/>
   <rect id="rect1658" x="69.84" y="40.71" width="29.811" height="29.811" rx="6.6099" ry="6.6099" stroke-width="1.6"/>
   <rect id="rect1660" x="69.84" y="40.71" width="29.811" height="29.811" rx="6.6099" ry="6.6099" stroke-width="1.8"/>
   <rect id="rect1662" x="69.84" y="40.71" width="29.811" height="29.811" rx="6.6099" ry="6.6099" stroke-width="2"/>
   <rect id="rect1664" x="69.84" y="40.71" width="29.811" height="29.811" rx="6.6099" ry="6.6099" stroke-width="2.2"/>
   <rect id="rect1666" x="69.84" y="40.71" width="29.811" height="29.811" rx="6.6099" ry="6.6099" stroke-width="2.6"/>
   <rect id="rect1668" x="69.84" y="40.71" width="29.811" height="29.811" rx="6.6099" ry="6.6099" stroke-width="3"/>
   <rect id="rect1670" x="69.84" y="40.71" width="29.811" height="29.811" rx="6.6099" ry="6.6099" stroke-width="3.4"/>
   <rect id="rect1672" x="69.84" y="40.71" width="29.811" height="29.811" rx="6.6099" ry="6.6099" stroke-width="3.8"/>
   <rect id="rect1674" x="69.84" y="40.71" width="29.811" height="29.811" rx="6.6099" ry="6.6099" stroke-width="4.2"/>
   <rect id="rect1676" x="69.84" y="40.71" width="29.811" height="29.811" rx="6.6099" ry="6.6099" stroke-width="4.6"/>
   <rect id="rect1678" x="69.84" y="40.71" width="29.811" height="29.811" rx="6.6099" ry="6.6099" stroke-width="5"/>
  </g>
  <rect id="rect849-5" x="2.5579" y="2.5293" width="29.087" height="29.087" rx="6.4495" ry="6.4495" fill="url(#radialGradient908)" stroke-linejoin="round" stroke-width="2.6877"/>
  <g id="g4443" fill="#320000" fill-opacity=".051471" opacity=".50408" stroke-width=".6">
   <path id="path4122" d="m17.375 8.1099c-0.34787 0.00875-0.62528 0.29177-0.62528 0.64182v1.2836c0 0.35561 0.28621 0.64182 0.64182 0.64182 0.35561 0 0.64182-0.28621 0.64182-0.64182v-1.2836c0-0.35561-0.28621-0.64182-0.64182-0.64182-0.0056 0-0.01101-1.39e-4 -0.01654 0zm0.01654 3.8509c-0.35561 0-0.64182 0.28621-0.64182 0.64182v1.2842c0 0.35561 0.28621 0.64182 0.64182 0.64182 0.35561 0 0.64182-0.28621 0.64182-0.64182v-1.2842c0-0.35561-0.28621-0.64182-0.64182-0.64182zm3.6819 0.62167c-1.5881 0-1.5777 2.5683 0 2.5683h2.096v7.4528c0 1.1773 2.5668 1.2178 2.5668 0v-7.4528h2.19c1.3794 0 1.4616-2.5683 0-2.5683zm-11.64 0.04496c-1.0455 0-1.9792 0.39274-2.5549 1.0821-0.56373 0.67501-0.73355 1.4915-0.72657 2.2071 8e-7 6.99e-4 -8e-7 0.0014 0 0.0021 5.8e-6 5.71e-4 -5.9e-6 1e-3 0 0.0016 0.0022 1.241 0.36253 2.3008 1.2072 2.852 0.81677 0.53305 1.6398 0.43365 2.1115 0.416 0.36612 0 0.48662 0.07626 0.55242 0.16175 0.0658 0.08548 0.10564 0.26574 0.10749 0.54105-5.99e-4 0.27284-0.08959 0.47688-0.13849 0.53537-0.0461 0.05513-0.06125 0.07247-0.12712 0.09974-0.06588 0.02727-0.19546 0.05625-0.4315 0.05633-1.4832 4.77e-4 -2.3616 0-2.3616 0-0.32858 0-0.59414 0.21192-0.74001 0.45889-0.14586 0.24697-0.21016 0.53943-0.21497 0.83199-0.00481 0.29256 0.049789 0.58665 0.19534 0.83819 0.14528 0.25107 0.42292 0.46017 0.75809 0.46095 0 0 0.88092 4.78e-4 2.3652 0 1.0414-3.37e-4 1.9722-0.40175 2.5445-1.0862 0.56236-0.67251 0.73846-1.4826 0.73846-2.1973 0-1.2487-0.35943-2.3116-1.2051-2.867-0.82024-0.53881-1.6526-0.43862-2.1249-0.42168h-0.01188c-0.31274 0.022844-0.42515-0.043956-0.50385-0.14117-0.078437-0.096886-0.13073-0.28745-0.13281-0.5488v-0.0156c-0.00334-0.27841 0.08188-0.47178 0.12506-0.52348 0.043975-0.05266 0.057572-0.06989 0.12506-0.09767 0.067485-0.02778 0.20019-0.05839 0.44338-0.05839h2.4159c0.33341 0 0.60593-0.20581 0.75964-0.4532 0.15372-0.2474 0.22383-0.54143 0.22893-0.83612 0.0051-0.29469-0.05345-0.59325-0.20722-0.84543-0.15378-0.25217-0.43886-0.4532-0.78135-0.4532zm7.9582 3.1848c-0.35561 0-0.64182 0.28621-0.64182 0.64182v1.2842c0 0.35561 0.28621 0.64182 0.64182 0.64182 0.35561 0 0.64182-0.28621 0.64182-0.64182v-1.2842c0-0.35561-0.28621-0.64182-0.64182-0.64182zm-0.01654 3.8514c-0.34787 0.0088-0.62528 0.29177-0.62528 0.64182v1.2836c0 0.35561 0.28621 0.64234 0.64182 0.64234 0.35561 0 0.64182-0.28673 0.64182-0.64234v-1.2836c0-0.35561-0.28621-0.64182-0.64182-0.64182-0.0056 0-0.01101-1.39e-4 -0.01654 0zm0 3.8514c-0.34787 0.0088-0.62528 0.29177-0.62528 0.64182v1.2836c0 0.35561 0.28621 0.64182 0.64182 0.64182 0.35561 0 0.64182-0.28621 0.64182-0.64182v-1.2836c0-0.35561-0.28621-0.64182-0.64182-0.64182-0.0056 0-0.01101-1.39e-4 -0.01654 0z" color="#000000" style="-inkscape-stroke:none"/>
   <path id="path4430" d="m17.55 8.3605c-0.34787 0.00875-0.62528 0.29177-0.62528 0.64182v1.2836c0 0.35561 0.28621 0.64182 0.64182 0.64182 0.35561 0 0.64182-0.28621 0.64182-0.64182v-1.2836c0-0.35561-0.28621-0.64182-0.64182-0.64182-0.0056 0-0.01101-1.39e-4 -0.01654 0zm0.01654 3.8509c-0.35561 0-0.64182 0.28621-0.64182 0.64182v1.2842c0 0.35561 0.28621 0.64182 0.64182 0.64182 0.35561 0 0.64182-0.28621 0.64182-0.64182v-1.2842c0-0.35561-0.28621-0.64182-0.64182-0.64182zm3.6819 0.62167c-1.5881 0-1.5777 2.5683 0 2.5683h2.096v7.4528c0 1.1773 2.5668 1.2178 2.5668 0v-7.4528h2.19c1.3794 0 1.4616-2.5683 0-2.5683zm-11.64 0.04496c-1.0455 0-1.9792 0.39274-2.5549 1.0821-0.56373 0.67501-0.73355 1.4915-0.72657 2.2071 8e-7 6.99e-4 -8e-7 0.0014 0 0.0021 5.8e-6 5.71e-4 -5.9e-6 1e-3 0 0.0016 0.0022 1.241 0.36253 2.3008 1.2072 2.852 0.81677 0.53305 1.6398 0.43365 2.1115 0.416 0.36612 0 0.48662 0.07626 0.55242 0.16175 0.0658 0.08548 0.10564 0.26574 0.10749 0.54105-5.99e-4 0.27284-0.08959 0.47688-0.13849 0.53537-0.0461 0.05513-0.06125 0.07247-0.12712 0.09974-0.06588 0.02727-0.19546 0.05625-0.4315 0.05633-1.4832 4.77e-4 -2.3616 0-2.3616 0-0.32858 0-0.59414 0.21192-0.74001 0.45889-0.14586 0.24697-0.21016 0.53943-0.21497 0.83199-0.00481 0.29256 0.049789 0.58665 0.19534 0.83819 0.14528 0.25107 0.42292 0.46017 0.75809 0.46095 0 0 0.88092 4.78e-4 2.3652 0 1.0414-3.37e-4 1.9722-0.40175 2.5445-1.0862 0.56236-0.67251 0.73846-1.4826 0.73846-2.1973 0-1.2487-0.35943-2.3116-1.2051-2.867-0.82024-0.53881-1.6526-0.43862-2.1249-0.42168h-0.01188c-0.31274 0.022844-0.42515-0.043956-0.50385-0.14117-0.078437-0.096886-0.13073-0.28745-0.13281-0.5488v-0.0156c-0.00334-0.27841 0.08188-0.47178 0.12506-0.52348 0.043975-0.05266 0.057572-0.06989 0.12506-0.09767 0.067485-0.02778 0.20019-0.05839 0.44338-0.05839h2.4159c0.33341 0 0.60593-0.20581 0.75964-0.4532 0.15372-0.2474 0.22383-0.54143 0.22893-0.83612 0.0051-0.29469-0.05345-0.59325-0.20722-0.84543-0.15378-0.25217-0.43886-0.4532-0.78135-0.4532zm7.9582 3.1848c-0.35561 0-0.64182 0.28621-0.64182 0.64182v1.2842c0 0.35561 0.28621 0.64182 0.64182 0.64182 0.35561 0 0.64182-0.28621 0.64182-0.64182v-1.2842c0-0.35561-0.28621-0.64182-0.64182-0.64182zm-0.01654 3.8514c-0.34787 0.0088-0.62528 0.29177-0.62528 0.64182v1.2836c0 0.35561 0.28621 0.64234 0.64182 0.64234 0.35561 0 0.64182-0.28673 0.64182-0.64234v-1.2836c0-0.35561-0.28621-0.64182-0.64182-0.64182-0.0056 0-0.01101-1.39e-4 -0.01654 0zm0 3.8514c-0.34787 0.0088-0.62528 0.29177-0.62528 0.64182v1.2836c0 0.35561 0.28621 0.64182 0.64182 0.64182 0.35561 0 0.64182-0.28621 0.64182-0.64182v-1.2836c0-0.35561-0.28621-0.64182-0.64182-0.64182-0.0056 0-0.01101-1.39e-4 -0.01654 0z" color="#000000" style="-inkscape-stroke:none"/>
   <path id="path4432" d="m17.701 8.6528c-0.34787 0.00875-0.62528 0.29177-0.62528 0.64182v1.2836c0 0.35561 0.28621 0.64182 0.64182 0.64182 0.35561 0 0.64182-0.28621 0.64182-0.64182v-1.2836c0-0.35561-0.28621-0.64182-0.64182-0.64182-0.0056 0-0.01101-1.39e-4 -0.01654 0zm0.01654 3.8509c-0.35561 0-0.64182 0.28621-0.64182 0.64182v1.2842c0 0.35561 0.28621 0.64182 0.64182 0.64182 0.35561 0 0.64182-0.28621 0.64182-0.64182v-1.2842c0-0.35561-0.28621-0.64182-0.64182-0.64182zm3.6819 0.62167c-1.5881 0-1.5777 2.5683 0 2.5683h2.096v7.4528c0 1.1773 2.5668 1.2178 2.5668 0v-7.4528h2.19c1.3794 0 1.4616-2.5683 0-2.5683zm-11.64 0.04496c-1.0455 0-1.9792 0.39274-2.5549 1.0821-0.56373 0.67501-0.73355 1.4915-0.72657 2.2071 8e-7 6.99e-4 -8e-7 0.0014 0 0.0021 5.8e-6 5.71e-4 -5.9e-6 1e-3 0 0.0016 0.0022 1.241 0.36253 2.3008 1.2072 2.852 0.81677 0.53305 1.6398 0.43365 2.1115 0.416 0.36612 0 0.48662 0.07626 0.55242 0.16175 0.0658 0.08548 0.10564 0.26574 0.10749 0.54105-5.99e-4 0.27284-0.08959 0.47688-0.13849 0.53537-0.0461 0.05513-0.06125 0.07247-0.12712 0.09974-0.06588 0.02727-0.19546 0.05625-0.4315 0.05633-1.4832 4.77e-4 -2.3616 0-2.3616 0-0.32858 0-0.59414 0.21192-0.74001 0.45889-0.14586 0.24697-0.21016 0.53943-0.21497 0.83199-0.00481 0.29256 0.049789 0.58665 0.19534 0.83819 0.14528 0.25107 0.42292 0.46017 0.75809 0.46095 0 0 0.88092 4.78e-4 2.3652 0 1.0414-3.37e-4 1.9722-0.40175 2.5445-1.0862 0.56236-0.67251 0.73846-1.4826 0.73846-2.1973 0-1.2487-0.35943-2.3116-1.2051-2.867-0.82024-0.53881-1.6526-0.43862-2.1249-0.42168h-0.01188c-0.31274 0.022844-0.42515-0.043956-0.50385-0.14117-0.078437-0.096886-0.13073-0.28745-0.13281-0.5488v-0.0156c-0.00334-0.27841 0.08188-0.47178 0.12506-0.52348 0.043975-0.05266 0.057572-0.06989 0.12506-0.09767 0.067485-0.02778 0.20019-0.05839 0.44338-0.05839h2.4159c0.33341 0 0.60593-0.20581 0.75964-0.4532 0.15372-0.2474 0.22383-0.54143 0.22893-0.83612 0.0051-0.29469-0.05345-0.59325-0.20722-0.84543-0.15378-0.25217-0.43886-0.4532-0.78135-0.4532zm7.9582 3.1848c-0.35561 0-0.64182 0.28621-0.64182 0.64182v1.2842c0 0.35561 0.28621 0.64182 0.64182 0.64182 0.35561 0 0.64182-0.28621 0.64182-0.64182v-1.2842c0-0.35561-0.28621-0.64182-0.64182-0.64182zm-0.01654 3.8514c-0.34787 0.0088-0.62528 0.29177-0.62528 0.64182v1.2836c0 0.35561 0.28621 0.64234 0.64182 0.64234 0.35561 0 0.64182-0.28673 0.64182-0.64234v-1.2836c0-0.35561-0.28621-0.64182-0.64182-0.64182-0.0056 0-0.01101-1.39e-4 -0.01654 0zm0 3.8514c-0.34787 0.0088-0.62528 0.29177-0.62528 0.64182v1.2836c0 0.35561 0.28621 0.64182 0.64182 0.64182 0.35561 0 0.64182-0.28621 0.64182-0.64182v-1.2836c0-0.35561-0.28621-0.64182-0.64182-0.64182-0.0056 0-0.01101-1.39e-4 -0.01654 0z" color="#000000" style="-inkscape-stroke:none"/>
   <path id="path4434" d="m17.913 9.1489c-0.34787 0.00875-0.62528 0.29177-0.62528 0.64182v1.2836c0 0.35561 0.28621 0.64182 0.64182 0.64182 0.35561 0 0.64182-0.28621 0.64182-0.64182v-1.2836c0-0.35561-0.28621-0.64182-0.64182-0.64182-0.0056 0-0.01101-1.39e-4 -0.01654 0zm0.01654 3.8509c-0.35561 0-0.64182 0.28621-0.64182 0.64182v1.2842c0 0.35561 0.28621 0.64182 0.64182 0.64182 0.35561 0 0.64182-0.28621 0.64182-0.64182v-1.2842c0-0.35561-0.28621-0.64182-0.64182-0.64182zm3.6819 0.62167c-1.5881 0-1.5777 2.5683 0 2.5683h2.096v7.4528c0 1.1773 2.5668 1.2178 2.5668 0v-7.4528h2.19c1.3794 0 1.4616-2.5683 0-2.5683zm-11.64 0.04496c-1.0455 0-1.9792 0.39274-2.5549 1.0821-0.56373 0.67501-0.73355 1.4915-0.72657 2.2071 8e-7 6.99e-4 -8e-7 0.0014 0 0.0021 5.8e-6 5.71e-4 -5.9e-6 1e-3 0 0.0016 0.0022 1.241 0.36253 2.3008 1.2072 2.852 0.81677 0.53305 1.6398 0.43365 2.1115 0.416 0.36612 0 0.48662 0.07626 0.55242 0.16175 0.0658 0.08548 0.10564 0.26574 0.10749 0.54105-5.99e-4 0.27284-0.08959 0.47688-0.13849 0.53537-0.0461 0.05513-0.06125 0.07247-0.12712 0.09974-0.06588 0.02727-0.19546 0.05625-0.4315 0.05633-1.4832 4.77e-4 -2.3616 0-2.3616 0-0.32858 0-0.59414 0.21192-0.74001 0.45889-0.14586 0.24697-0.21016 0.53943-0.21497 0.83199-0.00481 0.29256 0.049789 0.58665 0.19534 0.83819 0.14528 0.25107 0.42292 0.46017 0.75809 0.46095 0 0 0.88092 4.78e-4 2.3652 0 1.0414-3.37e-4 1.9722-0.40175 2.5445-1.0862 0.56236-0.67251 0.73846-1.4826 0.73846-2.1973 0-1.2487-0.35943-2.3116-1.2051-2.867-0.82024-0.53881-1.6526-0.43862-2.1249-0.42168h-0.01188c-0.31274 0.022844-0.42515-0.043956-0.50385-0.14117-0.078437-0.096886-0.13073-0.28745-0.13281-0.5488v-0.0156c-0.00334-0.27841 0.08188-0.47178 0.12506-0.52348 0.043975-0.05266 0.057572-0.06989 0.12506-0.09767 0.067485-0.02778 0.20019-0.05839 0.44338-0.05839h2.4159c0.33341 0 0.60593-0.20581 0.75964-0.4532 0.15372-0.2474 0.22383-0.54143 0.22893-0.83612 0.0051-0.29469-0.05345-0.59325-0.20722-0.84543-0.15378-0.25217-0.43886-0.4532-0.78135-0.4532zm7.9582 3.1848c-0.35561 0-0.64182 0.28621-0.64182 0.64182v1.2842c0 0.35561 0.28621 0.64182 0.64182 0.64182 0.35561 0 0.64182-0.28621 0.64182-0.64182v-1.2842c0-0.35561-0.28621-0.64182-0.64182-0.64182zm-0.01654 3.8514c-0.34787 0.0088-0.62528 0.29177-0.62528 0.64182v1.2836c0 0.35561 0.28621 0.64234 0.64182 0.64234 0.35561 0 0.64182-0.28673 0.64182-0.64234v-1.2836c0-0.35561-0.28621-0.64182-0.64182-0.64182-0.0056 0-0.01101-1.39e-4 -0.01654 0zm0 3.8514c-0.34787 0.0088-0.62528 0.29177-0.62528 0.64182v1.2836c0 0.35561 0.28621 0.64182 0.64182 0.64182 0.35561 0 0.64182-0.28621 0.64182-0.64182v-1.2836c0-0.35561-0.28621-0.64182-0.64182-0.64182-0.0056 0-0.01101-1.39e-4 -0.01654 0z" color="#000000" style="-inkscape-stroke:none"/>
   <path id="path4436" d="m18.067 9.5505c-0.34787 0.00875-0.62528 0.29177-0.62528 0.64182v1.2836c0 0.35561 0.28621 0.64182 0.64182 0.64182 0.35561 0 0.64182-0.28621 0.64182-0.64182v-1.2836c0-0.35561-0.28621-0.64182-0.64182-0.64182-0.0056 0-0.01101-1.39e-4 -0.01654 0zm0.01654 3.8509c-0.35561 0-0.64182 0.28621-0.64182 0.64182v1.2842c0 0.35561 0.28621 0.64182 0.64182 0.64182 0.35561 0 0.64182-0.28621 0.64182-0.64182v-1.2842c0-0.35561-0.28621-0.64182-0.64182-0.64182zm3.6819 0.62167c-1.5881 0-1.5777 2.5683 0 2.5683h2.096v7.4528c0 1.1773 2.5668 1.2178 2.5668 0v-7.4528h2.19c1.3794 0 1.4616-2.5683 0-2.5683zm-11.64 0.04496c-1.0455 0-1.9792 0.39274-2.5549 1.0821-0.56373 0.67501-0.73355 1.4915-0.72657 2.2071 8e-7 6.99e-4 -8e-7 0.0014 0 0.0021 5.8e-6 5.71e-4 -5.9e-6 1e-3 0 0.0016 0.0022 1.241 0.36253 2.3008 1.2072 2.852 0.81677 0.53305 1.6398 0.43365 2.1115 0.416 0.36612 0 0.48662 0.07626 0.55242 0.16175 0.0658 0.08548 0.10564 0.26574 0.10749 0.54105-5.99e-4 0.27284-0.08959 0.47688-0.13849 0.53537-0.0461 0.05513-0.06125 0.07247-0.12712 0.09974-0.06588 0.02727-0.19546 0.05625-0.4315 0.05633-1.4832 4.77e-4 -2.3616 0-2.3616 0-0.32858 0-0.59414 0.21192-0.74001 0.45889-0.14586 0.24697-0.21016 0.53943-0.21497 0.83199-0.00481 0.29256 0.049789 0.58665 0.19534 0.83819 0.14528 0.25107 0.42292 0.46017 0.75809 0.46095 0 0 0.88092 4.78e-4 2.3652 0 1.0414-3.37e-4 1.9722-0.40175 2.5445-1.0862 0.56236-0.67251 0.73846-1.4826 0.73846-2.1973 0-1.2487-0.35943-2.3116-1.2051-2.867-0.82024-0.53881-1.6526-0.43862-2.1249-0.42168h-0.0119c-0.31272 0.022844-0.42513-0.043956-0.50384-0.14117-0.078437-0.096886-0.13073-0.28745-0.13281-0.5488v-0.0156c-0.00334-0.27841 0.08188-0.47178 0.12506-0.52348 0.043975-0.05266 0.057572-0.06989 0.12506-0.09767 0.067485-0.02778 0.20019-0.05839 0.44338-0.05839h2.4159c0.33341 0 0.60593-0.20581 0.75964-0.4532 0.15372-0.2474 0.22383-0.54143 0.22893-0.83612 0.0051-0.29469-0.05345-0.59325-0.20722-0.84543-0.15378-0.25217-0.43886-0.4532-0.78135-0.4532zm7.9582 3.1848c-0.35561 0-0.64182 0.28621-0.64182 0.64182v1.2842c0 0.35561 0.28621 0.64182 0.64182 0.64182 0.35561 0 0.64182-0.28621 0.64182-0.64182v-1.2842c0-0.35561-0.28621-0.64182-0.64182-0.64182zm-0.01654 3.8514c-0.34787 0.0088-0.62528 0.29177-0.62528 0.64182v1.2836c0 0.35561 0.28621 0.64234 0.64182 0.64234 0.35561 0 0.64182-0.28673 0.64182-0.64234v-1.2836c0-0.35561-0.28621-0.64182-0.64182-0.64182-0.0056 0-0.01101-1.39e-4 -0.01654 0zm0 3.8514c-0.34787 0.0088-0.62528 0.29177-0.62528 0.64182v1.2836c0 0.35561 0.28621 0.64182 0.64182 0.64182 0.35561 0 0.64182-0.28621 0.64182-0.64182v-1.2836c0-0.35561-0.28621-0.64182-0.64182-0.64182-0.0056 0-0.01101-1.39e-4 -0.01654 0z" color="#000000" style="-inkscape-stroke:none"/>
  </g>
  <path id="path2374" transform="scale(.26458)" d="m65.346 29.914c-1.3148 0.033088-2.3633 1.1027-2.3633 2.4258v4.8516c0 1.344 1.0817 2.4258 2.4258 2.4258s2.4258-1.0817 2.4258-2.4258v-4.8516c0-1.344-1.0817-2.4258-2.4258-2.4258-0.021 0-0.04163-5.25e-4 -0.0625 0zm0.0625 14.555c-1.344 0-2.4258 1.0817-2.4258 2.4258v4.8535c0 1.344 1.0817 2.4258 2.4258 2.4258s2.4258-1.0817 2.4258-2.4258v-4.8535c0-1.344-1.0817-2.4258-2.4258-2.4258zm13.916 2.3496c-6.0024 0-5.9628 9.707 0 9.707h7.9219v28.168c0 4.4495 9.7012 4.6027 9.7012 0v-28.168h8.2773c5.2135 0 5.5243-9.707 0-9.707h-25.9zm-43.994 0.16992c-3.9516 0-7.4803 1.4844-9.6562 4.0898-2.1306 2.5512-2.7725 5.6373-2.7461 8.3418 3e-6 0.002642-3e-6 0.005167 0 0.007812 2.2e-5 0.002158-2.2e-5 0.003781 0 0.00586 0.008315 4.6902 1.3702 8.6959 4.5625 10.779 3.087 2.0147 6.1977 1.639 7.9805 1.5723 1.3837 0 1.8392 0.28823 2.0879 0.61133 0.24869 0.32307 0.39926 1.0044 0.40625 2.0449-0.002264 1.0312-0.33859 1.8024-0.52344 2.0234-0.17424 0.20836-0.23149 0.27388-0.48047 0.37695-0.24898 0.10307-0.73873 0.21259-1.6309 0.21289-5.606 0.001802-8.9258 0-8.9258 0-1.2419 0-2.2456 0.80094-2.7969 1.7344-0.55129 0.93344-0.79431 2.0388-0.8125 3.1445-0.01818 1.1058 0.18818 2.2173 0.73828 3.168 0.54907 0.94892 1.5984 1.7392 2.8652 1.7422 0 0 3.3295 0.001807 8.9395 0 3.9361-0.001277 7.4539-1.5184 9.6172-4.1055 2.1255-2.5418 2.791-5.6034 2.791-8.3047 0-4.7193-1.3585-8.7367-4.5547-10.836-3.1001-2.0365-6.2461-1.6578-8.0312-1.5938h-0.021484-0.023438c-1.182 0.086684-1.6068-0.16579-1.9043-0.5332-0.29646-0.36618-0.49408-1.0864-0.50195-2.0742v-0.021484-0.029297-0.007812c-0.012623-1.0522 0.30947-1.7831 0.47266-1.9785 0.1662-0.19903 0.2176-0.26414 0.47266-0.36914 0.25506-0.105 0.75663-0.2207 1.6758-0.2207h9.1309c1.2601 0 2.2901-0.77785 2.8711-1.7129 0.58097-0.93504 0.84596-2.0464 0.86524-3.1602 0.019275-1.1138-0.20201-2.2422-0.7832-3.1953-0.5812-0.9531-1.6587-1.7129-2.9531-1.7129h-9.1309zm30.078 12.037c-1.344 0-2.4258 1.0817-2.4258 2.4258v4.8535c0 1.344 1.0817 2.4258 2.4258 2.4258s2.4258-1.0817 2.4258-2.4258v-4.8535c0-1.344-1.0817-2.4258-2.4258-2.4258zm-0.0625 14.557c-1.3148 0.033088-2.3633 1.1027-2.3633 2.4258v4.8516c0 1.344 1.0817 2.4277 2.4258 2.4277s2.4258-1.0837 2.4258-2.4277v-4.8516c0-1.344-1.0817-2.4258-2.4258-2.4258-0.021 0-0.04163-5.25e-4 -0.0625 0zm0 14.557c-1.3148 0.033088-2.3633 1.1027-2.3633 2.4258v4.8516c0 1.344 1.0817 2.4258 2.4258 2.4258s2.4258-1.0817 2.4258-2.4258v-4.8516c0-1.344-1.0817-2.4258-2.4258-2.4258-0.021 0-0.04163-5.25e-4 -0.0625 0z" color="#000000" fill="url(#linearGradient2560)" stroke-width="2.2677" style="-inkscape-stroke:none"/>
 </g>
</svg>
