<?xml version="1.0" encoding="UTF-8"?>
<svg id="svg1443" width="128" height="128" version="1.1" viewBox="0 0 33.867 33.867" xmlns="http://www.w3.org/2000/svg" xmlns:cc="http://creativecommons.org/ns#" xmlns:dc="http://purl.org/dc/elements/1.1/" xmlns:rdf="http://www.w3.org/1999/02/22-rdf-syntax-ns#" xmlns:xlink="http://www.w3.org/1999/xlink">
 <defs id="defs1437">
  <linearGradient id="linearGradient1632" x1="132.21" x2="132.21" y1="42.152" y2="70.68" gradientTransform="matrix(.97573 0 0 .97573 -111.77 -37.183)" gradientUnits="userSpaceOnUse">
   <stop id="stop1626" stop-color="#fafafc" offset="0"/>
   <stop id="stop1628" stop-color="#e2e6ea" offset="1"/>
  </linearGradient>
  <linearGradient id="linearGradient861" x1="21.589" x2="24.06" y1="36.7" y2="26.864" gradientTransform="matrix(.55116 0 0 .55116 3.8666 4.136)" gradientUnits="userSpaceOnUse">
   <stop id="stop7" stop-color="#0c8df2" offset="0"/>
   <stop id="stop9" stop-color="#0c8df2" stop-opacity="0" offset="1"/>
  </linearGradient>
  <linearGradient id="linearGradient869" x1="38.323" x2="30.099" y1="27.66" y2="22.787" gradientTransform="matrix(.56245 0 0 .56245 3.991 3.6499)" gradientUnits="userSpaceOnUse" xlink:href="#linearGradient867"/>
  <linearGradient id="linearGradient867">
   <stop id="stop2" stop-color="#00e6ff" offset="0"/>
   <stop id="stop4" stop-color="#00e6ff" stop-opacity="0" offset="1"/>
  </linearGradient>
  <linearGradient id="linearGradient891" x1="27.828" x2="19.208" y1="20.905" y2="23.493" gradientTransform="matrix(.56245 0 0 .56245 3.6858 3.8791)" gradientUnits="userSpaceOnUse" xlink:href="#linearGradient867"/>
 </defs>
 <metadata id="metadata1440">
  <rdf:RDF>
   <cc:Work rdf:about="">
    <dc:format>image/svg+xml</dc:format>
    <dc:type rdf:resource="http://purl.org/dc/dcmitype/StillImage"/>
   </cc:Work>
  </rdf:RDF>
 </metadata>
 <g id="layer1">
  <g id="g1702" transform="matrix(.97573 0 0 .97573 -65.737 -37.183)" fill="none" opacity=".295" stroke="#000" stroke-linecap="round" stroke-linejoin="round" stroke-opacity=".02">
   <rect id="rect1634" x="69.84" y="40.71" width="29.811" height="29.811" rx="6.6099" ry="6.6099" stroke-width=".1"/>
   <rect id="rect1638" x="69.84" y="40.71" width="29.811" height="29.811" rx="6.6099" ry="6.6099" stroke-width=".2"/>
   <rect id="rect1640" x="69.84" y="40.71" width="29.811" height="29.811" rx="6.6099" ry="6.6099" stroke-width=".3"/>
   <rect id="rect1642" x="69.84" y="40.71" width="29.811" height="29.811" rx="6.6099" ry="6.6099" stroke-width=".4"/>
   <rect id="rect1644" x="69.84" y="40.71" width="29.811" height="29.811" rx="6.6099" ry="6.6099" stroke-width=".5"/>
   <rect id="rect1646" x="69.84" y="40.71" width="29.811" height="29.811" rx="6.6099" ry="6.6099" stroke-width=".6"/>
   <rect id="rect1648" x="69.84" y="40.71" width="29.811" height="29.811" rx="6.6099" ry="6.6099" stroke-width=".7"/>
   <rect id="rect1650" x="69.84" y="40.71" width="29.811" height="29.811" rx="6.6099" ry="6.6099" stroke-width=".8"/>
   <rect id="rect1652" x="69.84" y="40.71" width="29.811" height="29.811" rx="6.6099" ry="6.6099"/>
   <rect id="rect1654" x="69.84" y="40.71" width="29.811" height="29.811" rx="6.6099" ry="6.6099" stroke-width="1.2"/>
   <rect id="rect1656" x="69.84" y="40.71" width="29.811" height="29.811" rx="6.6099" ry="6.6099" stroke-width="1.4"/>
   <rect id="rect1658" x="69.84" y="40.71" width="29.811" height="29.811" rx="6.6099" ry="6.6099" stroke-width="1.6"/>
   <rect id="rect1660" x="69.84" y="40.71" width="29.811" height="29.811" rx="6.6099" ry="6.6099" stroke-width="1.8"/>
   <rect id="rect1662" x="69.84" y="40.71" width="29.811" height="29.811" rx="6.6099" ry="6.6099" stroke-width="2"/>
   <rect id="rect1664" x="69.84" y="40.71" width="29.811" height="29.811" rx="6.6099" ry="6.6099" stroke-width="2.2"/>
   <rect id="rect1666" x="69.84" y="40.71" width="29.811" height="29.811" rx="6.6099" ry="6.6099" stroke-width="2.6"/>
   <rect id="rect1668" x="69.84" y="40.71" width="29.811" height="29.811" rx="6.6099" ry="6.6099" stroke-width="3"/>
   <rect id="rect1670" x="69.84" y="40.71" width="29.811" height="29.811" rx="6.6099" ry="6.6099" stroke-width="3.4"/>
   <rect id="rect1672" x="69.84" y="40.71" width="29.811" height="29.811" rx="6.6099" ry="6.6099" stroke-width="3.8"/>
   <rect id="rect1674" x="69.84" y="40.71" width="29.811" height="29.811" rx="6.6099" ry="6.6099" stroke-width="4.2"/>
   <rect id="rect1676" x="69.84" y="40.71" width="29.811" height="29.811" rx="6.6099" ry="6.6099" stroke-width="4.6"/>
   <rect id="rect1678" x="69.84" y="40.71" width="29.811" height="29.811" rx="6.6099" ry="6.6099" stroke-width="5"/>
  </g>
  <rect id="rect849" x="2.4074" y="2.5392" width="29.087" height="29.087" rx="6.4495" ry="6.4495" fill="url(#linearGradient1632)" stroke-linecap="round" stroke-linejoin="round" stroke-width="2.6877"/>
  <path id="path17" d="m22.085 13.169s-0.59566 1.3108-0.6454 4.3136c3.5134 0.03727 4.2698-1.4918 7.2812 1.252-1.1932-3.0136-3.4728-3.9589-6.6358-5.5656zm-0.81084 11.072v1.6873h5.6237s-1.1241-1.6873-5.6237-1.6873z" opacity=".2" stroke-width=".38157"/>
  <path id="path19" d="m15.214 28.174c-1.1051-0.0913-2.3411-0.4355-3.4153-0.95111-2.1838-1.0482-3.94-2.9061-4.8471-5.1278-0.59822-1.4651-0.82609-3.0855-0.65488-4.6569 0.23664-2.1721 1.1753-4.1452 2.7329-5.7447 0.7355-0.75531 1.7558-1.4922 2.6832-1.9379 0.19069-0.09165 0.21782-0.099928 0.14818-0.045284-0.04688 0.03679-0.19268 0.15125-0.32399 0.25436-1.5046 1.1814-2.6156 2.8698-3.1057 4.7195-0.20482 0.77309-0.28895 1.4338-0.28924 2.2715-2.13e-4 0.64094 0.02383 0.94322 0.12093 1.5201 0.32522 1.9322 1.3068 3.722 2.7377 5.0492 0.33759 0.31312 0.70019 0.6005 1.0851 0.85792 0.14028 0.09383 0.15295 0.09485 0.13119 0.01053-0.13119-0.01053-0.26506-0.19725-0.29862-0.41622-0.0763-0.49787-0.37857-0.64534-0.33495-1.1021 0-2.7127 1.7492-4.6062 3.5938-5.8764 0.70428-0.47485 1.4258-0.7937 2.3344-1.0315 0.69076-0.18083 1.0556-0.46657 1.4866-0.82561 0.09094-0.07577 0.15379-0.14508 0.14202-0.15664-0.03497-0.03434-0.6617-0.22914-0.98994-0.3077-0.73599-0.17614-1.2515-0.19754-2.1131-0.19669-0.9222 9.16e-4 -1.6395 0.05356-1.9522 0.20382-0.14586 0.07009-0.81134 0.14666-1.0889 0.48375-0.90895 1.1038-1.2745 2.161-1.5619 3.551-0.06928 0.33516 0.08131-0.07403 0 0-0.15536 0.14145 0.08509 0.19065 0 0-0.08878-0.1989-0.28931-0.41695-0.33907-1.0053-0.03137-0.37098-0.1078-0.9977-0.06459-1.3548 0.20174-1.6674 1.0644-2.8436 2.1189-4.1547 0.28441-0.35363 0.76774-0.92199 1.1203-1.1986 0.76294-0.5987 1.644-0.83729 2.5215-1.1652l-0.05372-0.73199 0.0026-0.24465c0.0022-0.19826 0.01527-0.28126 0.06941-0.43769 0.10422-0.30111 0.27264-0.54478 0.49076-0.71003l0.12942-0.098053 0.13304 0.03839c0.39538 0.11412 0.76928 0.41783 0.94766 0.76979 0.05384 0.10623 0.10474 0.43958 0.11311 0.47101 0.01384 0.052019 0.08393 0.70915 0.16919 0.69223 0.05151-0.010239 0.80689 0.12861 1.1625 0.12694l0.61639-0.24073-0.07209-0.60264c0.31366-0.57465 0.48623-0.85845 1.127-1.0558l0.31383 0.14611c0.21418 0.14259 0.35822 0.12491 0.5067 0.36044 0.1461 0.23175 0.06385 0.36508 0.1263 0.63747 0.06184 0.2697 0.08643 0.5855 0.01885 0.85475-0.07666 0.30544-0.13098 0.60314-0.28043 0.82619-0.5244-0.01139 0.26131 0.32052 0.26131 0.32835 0 0.0078 0.13976 0.13876 0.31059 0.29096 0.87761 0.78195 1.6551 1.8031 2.1953 2.8832 0 0 0.99522 1.9103 1.003 4.5001 0.01882 0.90952-0.1726 1.8797-0.4156 2.6812-0.74766 2.1954-2.1764 3.9214-3.9136 5.2078l-0.19377 0.12778 0.26748 0.06706c0.98465 0.33194 1.7547 0.84666 2.419 1.4879h-7.0165s-1.3886 0.0097-2.0148-0.04231z" opacity=".2" stroke-width=".38157"/>
  <path id="path21" d="m21.274 23.859c4.4996 0 5.6245 1.6873 5.6245 1.6873h-5.6245z" fill="#0c8df2" stroke-width=".38157"/>
  <path id="path23" d="m22.085 12.788c3.163 1.6067 5.4423 2.551 6.6355 5.5647-3.0114-2.7438-3.7679-1.2145-7.2812-1.2517 0.04972-3.0027 0.6457-4.3129 0.6457-4.3129z" fill="#0c8df2" stroke-width=".38157"/>
  <path id="path25" d="m15.214 27.793c-1.1051-0.091304-2.3411-0.4355-3.4153-0.9511-2.1838-1.0482-3.94-2.9061-4.8471-5.1278-0.59822-1.4651-0.82609-3.0855-0.65488-4.6569 0.23664-2.1721 1.1753-4.1452 2.7329-5.7447 0.7355-0.75531 1.7558-1.4922 2.6832-1.9379 0.19069-0.091649 0.21782-0.099927 0.14818-0.045284-0.04688 0.03679-0.19268 0.15125-0.32399 0.25436-1.5046 1.1814-2.6156 2.8698-3.1057 4.7195-0.20482 0.77308-0.28895 1.4338-0.28924 2.2715-2.13e-4 0.64094 0.02383 0.94323 0.12093 1.5201 0.32522 1.9323 1.3068 3.722 2.7377 5.0492 0.33759 0.31312 0.70019 0.6005 1.0851 0.85792 0.14028 0.09383 0.15295 0.09485 0.13119 0.01053-0.13119-0.01053-0.26506-0.19725-0.29862-0.41622-0.0763-0.49787-0.37857-0.64534-0.33495-1.1021 0-2.7127 1.7492-4.6062 3.5938-5.8764 0.70428-0.47485 1.4258-0.7937 2.3344-1.0315 0.69076-0.18083 1.0556-0.46657 1.4866-0.82561 0.09094-0.07577 0.15379-0.14508 0.14202-0.15664-0.03497-0.03434-0.6617-0.22914-0.98994-0.3077-0.73599-0.17614-1.2515-0.19754-2.1131-0.19669-0.9222 9.16e-4 -1.6395 0.05356-1.9522 0.20382-0.14586 0.07009-0.81134 0.14666-1.0889 0.48375-0.90895 1.1038-1.2745 2.161-1.5619 3.551-0.06928 0.33516-0.04807 0.62686-0.12938 0.70089-0.15537 0.14145-0.0029-0.11558-0.08803-0.30622-0.08878-0.1989-0.07191-0.81162-0.12166-1.4-0.03137-0.37098-0.1078-0.9977-0.06459-1.3548 0.20174-1.6674 1.0644-2.8436 2.1189-4.1547 0.28441-0.35363 0.76774-0.92198 1.1203-1.1986 0.76294-0.5987 1.644-0.83729 2.5215-1.1652l-0.05372-0.73199 0.0026-0.24465c0.0022-0.19826 0.01527-0.28126 0.06941-0.43769 0.10423-0.30111 0.27264-0.54478 0.49076-0.71003l0.12942-0.098053 0.13304 0.03839c0.39538 0.11412 0.76928 0.41783 0.94766 0.76979 0.05384 0.10623 0.10474 0.43958 0.11311 0.47101 0.01384 0.052019 0.08393 0.70915 0.16919 0.69224 0.05151-0.010239 0.80689 0.12861 1.1625 0.12694l0.6164-0.24073-0.07209-0.60265c0.31365-0.57465 0.48621-0.85845 1.127-1.0558l0.31382 0.14611c0.21418 0.14259 0.35822 0.12491 0.5067 0.36044 0.14609 0.23175 0.06385 0.36508 0.1263 0.63747 0.06184 0.2697 0.08643 0.5855 0.01885 0.85475-0.07667 0.30544-0.13098 0.60313-0.28043 0.82619-0.5244-0.01139 0.26131 0.32052 0.26131 0.32835 0 0.0078 0.13976 0.13876 0.31059 0.29096 0.87761 0.78195 1.6551 1.8031 2.1953 2.8832 0 0 0.99522 1.9103 1.003 4.5001 0.01882 0.90952-0.1726 1.8797-0.4156 2.6812-0.74766 2.1954-2.1764 3.9214-3.9136 5.2078l-0.19377 0.12778 0.26749 0.06706c0.98465 0.33194 1.7547 0.84666 2.419 1.4879h-7.0165s-1.3886 0.0097-2.0148-0.04233z" fill="#0cb7f2" stroke-width=".38157"/>
  <path id="path27" d="m17.429 7.237-0.12968 0.097635c-0.21812 0.16525-0.3869 0.40912-0.49113 0.71023-0.05414 0.15643-0.06721 0.2392-0.06931 0.43747l-0.0023 0.24519 0.0059 0.081237c0.0045-0.15325 0.01781-0.24432 0.06558-0.38232 0.10422-0.30111 0.273-0.54498 0.49113-0.71023l0.12968-0.097635 0.13265 0.038016c0.39538 0.11412 0.76959 0.41789 0.94797 0.76985 0.05384 0.10623 0.10417 0.43957 0.11253 0.471 0.01384 0.052019 0.08392 0.70926 0.16917 0.69235 0.05151-0.010239 0.807 0.12837 1.1626 0.12669l0.61633-0.24072-0.043222-0.36443-0.5731 0.22358c-0.3556 0.0017306-1.1111-0.13692-1.1626-0.12669-0.085261 0.016917-0.15532-0.64032-0.16917-0.69235-0.008364-0.031425-0.058696-0.36478-0.11253-0.471-0.17838-0.35196-0.55259-0.65574-0.94797-0.76985zm4.1966 0.19898c-0.64078 0.19738-0.81317 0.48138-1.1268 1.056l0.03727 0.31599c0.28963-0.52634 0.47635-0.80156 1.0896-0.99045l0.31375 0.14607c0.21418 0.14259 0.35831 0.12518 0.50678 0.36071 0.14609 0.23175 0.0635 0.36481 0.12594 0.6372 0.02217 0.09664 0.03689 0.19985 0.04696 0.30406 0.02602-0.22686 0.0025-0.4704-0.04696-0.68564-0.062464-0.27239 0.020143-0.40544-0.12595-0.6372-0.14847-0.23553-0.29259-0.21812-0.50678-0.36071zm-9.742 1.8609c-0.02192 0.00663-0.07606 0.031684-0.17141 0.077502-0.92735 0.44567-1.9482 1.1824-2.6837 1.9377-1.5576 1.5995-2.4962 3.5731-2.7329 5.7452-0.045893 0.42124-0.060836 0.84559-0.049932 1.2699 0.00421-0.29699 0.017805-0.59345 0.049932-0.88835 0.23664-2.1721 1.1753-4.1457 2.7329-5.7452 0.47229-0.48501 1.0645-0.95356 1.6716-1.3512 0.26389-0.26915 0.54007-0.52617 0.83618-0.75867 0.13131-0.10311 0.27656-0.21809 0.32344-0.25488 0.03481-0.027329 0.04576-0.038751 0.02385-0.032045zm4.8792 0.17215c-0.8684 0.32272-1.7387 0.56271-2.4936 1.1552-0.35253 0.27664-0.83646 0.84549-1.1209 1.1991-1.0545 1.3111-1.917 2.4866-2.1188 4.1541-0.01608 0.13291-0.01298 0.30689-0.0045 0.4874 2e-3 -0.03399 8e-4 -0.07543 0.0045-0.10583 0.20174-1.6674 1.0643-2.8429 2.1188-4.1541 0.28441-0.35363 0.76834-0.92248 1.1209-1.1991 0.76294-0.5987 1.6437-0.83689 2.5212-1.1648zm5.6275 1.0247c-0.02381 0.05192-0.04885 0.10293-0.07974 0.14905-0.5244-0.01139 0.26159 0.32008 0.26159 0.32791 0 0.0078 0.13995 0.1392 0.31077 0.2914 0.87761 0.78195 1.6547 1.8026 2.1948 2.8827 0 0 0.93897 1.8091 0.9979 4.2905 4.2e-4 -0.05695 0.0063-0.11488 0.0052-0.17141-0.0078-2.5898-1.0031-4.5006-1.0031-4.5006-0.54012-1.0801-1.3172-2.1007-2.1948-2.8827-0.17082-0.1522-0.31077-0.28357-0.31077-0.2914 0-0.0022-0.10544-0.05746-0.18184-0.0954zm-3.5437 4.3873c-0.37086 0.30071-0.72672 0.54565-1.3355 0.70502-0.90856 0.23784-1.6306 0.55659-2.3349 1.0314-1.8446 1.2703-3.5936 3.1637-3.5936 5.8764-0.0074 0.07698-0.0022 0.14312 0.0075 0.20569 0.07455-2.6178 1.7822-4.4582 3.5862-5.7005 0.70428-0.47485 1.4263-0.7936 2.3349-1.0314 0.69076-0.18083 1.0551-0.4667 1.486-0.82575 0.09094-0.07577 0.15411-0.14494 0.14234-0.1565-0.01327-0.01312-0.15748-0.06011-0.29289-0.10434zm-10.7 1.8736c-0.0012 0.068-0.0052 0.1309-0.0052 0.20122-2.12e-4 0.64094 0.02437 0.94342 0.12147 1.5203 0.32522 1.9322 1.3065 3.7219 2.7373 5.0491 0.33759 0.31312 0.70021 0.60037 1.0851 0.85779 0.14028 0.09383 0.15292 0.09472 0.13116 0.01038-0.13119-0.01053-0.26529-0.19688-0.29885-0.41585-0.0065-0.04249-0.01664-0.0792-0.02609-0.117-0.31192-0.22139-0.61209-0.45793-0.89133-0.71694-1.4309-1.3272-2.4121-3.1169-2.7373-5.0491-0.08594-0.51055-0.11095-0.83451-0.11627-1.34zm13.79 9.634c-0.06195 0.04763-0.1213 0.09883-0.18408 0.14533l-0.19377 0.12818 0.26755 0.06708c0.77873 0.26252 1.4205 0.64264 1.9846 1.106h0.43449c-0.6388-0.61659-1.3777-1.1139-2.3088-1.4466z" fill="#fff" opacity=".2" stroke-width=".38157"/>
  <path id="path29" d="m13.507 15.363c-0.89411 1.1519-1.4911 2.4722-1.7738 3.9229-0.06816 0.34977-0.07695 0.37512-0.15693 0.45237-0.15283 0.14762-0.38862 0.09644-0.47232-0.10251-0.08732-0.20757-0.21909-1.002-0.26803-1.6161-0.03085-0.38716-0.01703-1.2893 0.02547-1.662 0.19845-1.7401 0.80966-3.2776 1.8469-4.6459 0.27977-0.36905 0.9629-1.0862 1.3097-1.3749 1.6389-1.448 3.4537-1.9041 5.4443-1.9325l0.63601-0.00317 0.07743-0.22792c0.30854-0.5997 0.83434-1.0509 1.4647-1.2569l0.20379-0.066599 0.13458 0.095039c0.21069 0.1488 0.5304 0.50244 0.67645 0.74825 0.14371 0.24186 0.2705 0.56704 0.33194 0.8513 0.06083 0.28146 0.05533 0.82808-0.01111 1.1091-0.07541 0.31875-0.18819 0.59842-0.33519 0.8312-0.07078 0.11209-0.12868 0.21047-0.12868 0.21864 0 0-0.36952 0.95926-1.7589 1.5523-1.3011 0.55531-2.3968 0.1827-3.5659 0.55695-1.5287 0.38821-2.8081 1.3891-3.6804 2.5505z" opacity=".1" stroke-width=".38157"/>
  <path id="path31" d="m13.507 14.981c-0.89411 1.1519-1.4911 2.4722-1.7738 3.9229-0.06816 0.34977-0.07695 0.37512-0.15693 0.45237-0.15283 0.14762-0.38862 0.09644-0.47232-0.10251-0.08732-0.20757-0.21909-1.002-0.26803-1.6161-0.03085-0.38716-0.01703-1.2893 0.02547-1.662 0.19845-1.7401 0.80966-3.2776 1.8469-4.6459 0.27977-0.36905 0.9629-1.0862 1.3097-1.3749 1.6389-1.448 3.4537-1.9041 5.4443-1.9325l0.63601-0.00317 0.07743-0.22792c0.30854-0.5997 0.83434-1.0509 1.4647-1.2569l0.20379-0.066599 0.13458 0.095053c0.21069 0.1488 0.5304 0.50244 0.67645 0.74825 0.14371 0.24186 0.2705 0.56704 0.33194 0.8513 0.06083 0.28146 0.05533 0.82808-0.01111 1.1091-0.07541 0.31875-0.18819 0.59842-0.33519 0.8312-0.07078 0.11208-0.12868 0.21047-0.12868 0.21864 0 0-0.36952 0.95926-1.7589 1.5523-1.3011 0.55531-2.3968 0.1827-3.5659 0.55695-1.5287 0.38821-2.8081 1.3891-3.6804 2.5505z" fill="#00e6ff" stroke-width=".38157"/>
  <circle id="circle33" cx="16.543" cy="22.875" r="4.9604" fill="url(#linearGradient861)" stroke-width=".38157"/>
  <path id="path35" d="m21.772 15.505c3.163 1.6067 5.303 3.9441 6.4962 6.9577-3.0114-2.7438-4.8823-3.9658-8.3957-4.003 0.04973-3.0027 1.8995-2.9547 1.8995-2.9547z" fill="url(#linearGradient869)" stroke-width=".38157"/>
  <path id="path37" d="m19.064 14.566c1.59e-4 2.92e-4 -3e-3 0.0026-3e-3 3e-3 8.4e-4 6.11e-4 0.01139 0.0039 0.01197 0.0045 5.35e-4 5.35e-4 -0.0062 0.0068-0.0059 0.0075 0.0072 0.0035 0.05809 0.01702 0.06111 0.01938-0.02306-0.01096-0.03989-0.02364-0.06409-0.03428zm0.07453 0.03875c0.01024 0.01255-0.05007 0.08-0.14011 0.15501-0.43097 0.35905-0.79678 0.64492-1.4875 0.82575-0.90856 0.23784-1.6299 0.55659-2.3342 1.0314-0.51136 0.34478-0.97842 0.80076-1.3981 1.3146 0.80602-0.27882 1.5867-0.55362 2.5667-0.68074 1.1481-0.14894 1.8275-0.03226 2.3327-0.15181 0.4428-0.06046 1.2709-0.78893 1.2997-1.4645 0.01566-0.36643-0.23219-0.73986-0.83916-1.0297z" fill="url(#linearGradient891)" stroke-width=".38157"/>
  <path id="path39" d="m21.845 6.4679-0.2042 0.067075c-0.63032 0.20598-1.1566 0.65681-1.4652 1.2565l-0.0775 0.22805-0.63496 0.00303c-1.9906 0.028367-3.806 0.48519-5.4449 1.9332-0.34678 0.2887-1.0304 1.0052-1.3102 1.3743-1.0373 1.3683-1.6483 2.9058-1.8468 4.6459-0.02605 0.22842-0.03334 0.61895-0.03205 0.99119 5e-3 -0.23721 0.01524-0.46227 0.03205-0.60962 0.19845-1.7401 0.8095-3.2777 1.8468-4.6459 0.27977-0.36905 0.96339-1.0856 1.3102-1.3743 1.6389-1.448 3.4542-1.9048 5.4449-1.9332l0.63496-0.00303 0.0775-0.22805c0.30854-0.5997 0.83486-1.0505 1.4652-1.2565l0.2042-0.067075 0.13415 0.095385c0.21069 0.14881 0.53065 0.50244 0.6767 0.74824 0.14371 0.24186 0.27095 0.56682 0.33239 0.85109 0.01211 0.055725 0.02107 0.12075 0.02682 0.19079 0.0079-0.2121 0.0055-0.42276-0.02682-0.57236-0.061436-0.28427-0.18868-0.60923-0.33239-0.85108-0.14605-0.2458-0.46601-0.59944-0.6767-0.74824z" fill="#fff" opacity=".2" stroke-width=".38157"/>
 </g>
</svg>
