<?xml version="1.0" encoding="UTF-8"?>
<svg id="svg2781" width="128" height="128" version="1.1" viewBox="0 0 33.867 33.867" xmlns="http://www.w3.org/2000/svg" xmlns:cc="http://creativecommons.org/ns#" xmlns:dc="http://purl.org/dc/elements/1.1/" xmlns:rdf="http://www.w3.org/1999/02/22-rdf-syntax-ns#" xmlns:xlink="http://www.w3.org/1999/xlink">
 <defs id="defs2775">
  <linearGradient id="linearGradient1940" x1="16.938" x2="16.938" y1="5.6268" y2="30.152" gradientTransform="translate(.078066 -.038951)" gradientUnits="userSpaceOnUse">
   <stop id="stop1934" stop-color="#cbd3d6" offset="0"/>
   <stop id="stop1936" stop-color="#9cabb7" offset="1"/>
  </linearGradient>
 </defs>
 <metadata id="metadata2778">
  <rdf:RDF>
   <cc:Work rdf:about="">
    <dc:format>image/svg+xml</dc:format>
    <dc:type rdf:resource="http://purl.org/dc/dcmitype/StillImage"/>
   </cc:Work>
  </rdf:RDF>
 </metadata>
 <g id="layer1">
  <g id="g1702" transform="matrix(.97573 0 0 .97573 -65.67 -37.242)" fill="none" opacity=".29676" stroke="#000" stroke-linecap="round" stroke-linejoin="round" stroke-opacity=".02">
   <rect id="rect1634" x="69.84" y="40.71" width="29.811" height="29.811" rx="6.6099" ry="6.6099" stroke-width=".1"/>
   <rect id="rect1638" x="69.84" y="40.71" width="29.811" height="29.811" rx="6.6099" ry="6.6099" stroke-width=".2"/>
   <rect id="rect1640" x="69.84" y="40.71" width="29.811" height="29.811" rx="6.6099" ry="6.6099" stroke-width=".3"/>
   <rect id="rect1642" x="69.84" y="40.71" width="29.811" height="29.811" rx="6.6099" ry="6.6099" stroke-width=".4"/>
   <rect id="rect1644" x="69.84" y="40.71" width="29.811" height="29.811" rx="6.6099" ry="6.6099" stroke-width=".5"/>
   <rect id="rect1646" x="69.84" y="40.71" width="29.811" height="29.811" rx="6.6099" ry="6.6099" stroke-width=".6"/>
   <rect id="rect1648" x="69.84" y="40.71" width="29.811" height="29.811" rx="6.6099" ry="6.6099" stroke-width=".7"/>
   <rect id="rect1650" x="69.84" y="40.71" width="29.811" height="29.811" rx="6.6099" ry="6.6099" stroke-width=".8"/>
   <rect id="rect1652" x="69.84" y="40.71" width="29.811" height="29.811" rx="6.6099" ry="6.6099"/>
   <rect id="rect1654" x="69.84" y="40.71" width="29.811" height="29.811" rx="6.6099" ry="6.6099" stroke-width="1.2"/>
   <rect id="rect1656" x="69.84" y="40.71" width="29.811" height="29.811" rx="6.6099" ry="6.6099" stroke-width="1.4"/>
   <rect id="rect1658" x="69.84" y="40.71" width="29.811" height="29.811" rx="6.6099" ry="6.6099" stroke-width="1.6"/>
   <rect id="rect1660" x="69.84" y="40.71" width="29.811" height="29.811" rx="6.6099" ry="6.6099" stroke-width="1.8"/>
   <rect id="rect1662" x="69.84" y="40.71" width="29.811" height="29.811" rx="6.6099" ry="6.6099" stroke-width="2"/>
   <rect id="rect1664" x="69.84" y="40.71" width="29.811" height="29.811" rx="6.6099" ry="6.6099" stroke-width="2.2"/>
   <rect id="rect1666" x="69.84" y="40.71" width="29.811" height="29.811" rx="6.6099" ry="6.6099" stroke-width="2.6"/>
   <rect id="rect1668" x="69.84" y="40.71" width="29.811" height="29.811" rx="6.6099" ry="6.6099" stroke-width="3"/>
   <rect id="rect1670" x="69.84" y="40.71" width="29.811" height="29.811" rx="6.6099" ry="6.6099" stroke-width="3.4"/>
   <rect id="rect1672" x="69.84" y="40.71" width="29.811" height="29.811" rx="6.6099" ry="6.6099" stroke-width="3.8"/>
   <rect id="rect1674" x="69.84" y="40.71" width="29.811" height="29.811" rx="6.6099" ry="6.6099" stroke-width="4.2"/>
   <rect id="rect1676" x="69.84" y="40.71" width="29.811" height="29.811" rx="6.6099" ry="6.6099" stroke-width="4.6"/>
   <rect id="rect1678" x="69.84" y="40.71" width="29.811" height="29.811" rx="6.6099" ry="6.6099" stroke-width="5"/>
  </g>
  <rect id="rect849" x="2.4743" y="2.4796" width="29.087" height="29.087" rx="6.4495" ry="6.4495" fill="url(#linearGradient1940)" stroke-linecap="round" stroke-linejoin="round" stroke-width="2.6877"/>
  <rect id="rect2807-7" x="3.861" y="3.8806" width="26.314" height="26.285" rx="5.567" ry="5.567" fill="#030000" stroke-width="1.775"/>
  <rect id="rect2809-5" x="5.378" y="5.3988" width="23.28" height="23.28" rx="4.0486" ry="4.0486" fill="#1a211f" stroke-width="1.5711"/>
  <path id="path8" d="m19.714 18.197h4.418c1.9947 0.02827 1.9947-2.9852 0-2.9569h-4.418z" fill="#35424a" stroke-width=".73923"/>
  <path id="path10" d="m13.535 10.805h10.596c1.9947 0.02827 1.9947-2.9852 0-2.9569h-10.596z" fill="#35424a" stroke-width=".73923"/>
  <path id="path12" d="m16.757 25.589h7.375c1.9947 0.02827 1.9947-2.9852 0-2.9569h-7.375z" fill="#35424a" stroke-width=".73923"/>
  <path id="path14" d="m7.8859 9.348c0.012063 0.8162 0.68148 1.4683 1.4958 1.4568h7.375v-2.9569h-7.375c-0.83123-0.011686-1.508 0.66695-1.4958 1.5001z" opacity=".15" stroke-width=".73923"/>
  <path id="path16" d="m7.8859 16.74c0.012063 0.8162 0.68148 1.4683 1.4958 1.4568h10.332v-2.9569h-10.332c-0.83123-0.01169-1.508 0.66695-1.4958 1.5001z" opacity=".15" stroke-width=".73923"/>
  <path id="path18" d="m7.8859 24.132c0.012063 0.8162 0.68148 1.4683 1.4958 1.4568h7.375v-2.9569h-7.375c-0.83123-0.01169-1.508 0.66695-1.4958 1.5001z" opacity=".15" stroke-width=".73923"/>
  <path id="path20" d="m13.8 7.1086c-1.6331 0-2.9569 1.3239-2.9569 2.9569 0 1.6331 1.3239 2.9569 2.9569 2.9569 1.6331 0 2.9569-1.3239 2.9569-2.9569 0-1.6331-1.3239-2.9569-2.9569-2.9569zm4.4354 7.3923c-1.6331 0-2.9569 1.3239-2.9569 2.9569 0 1.6331 1.3239 2.9569 2.9569 2.9569 1.6331 0 2.9569-1.3239 2.9569-2.9569 0-1.6331-1.3239-2.9569-2.9569-2.9569zm-2.9569 7.3923c-1.6331 0-2.9569 1.3239-2.9569 2.9569 0 1.6331 1.3239 2.9569 2.9569 2.9569 1.6331 0 2.9569-1.3239 2.9569-2.9569 0-1.6331-1.3239-2.9569-2.9569-2.9569z" opacity=".2" stroke-width=".73923"/>
  <path id="path22" d="m13.8 6.3694c-1.6331 0-2.9569 1.3239-2.9569 2.9569 0 1.6331 1.3239 2.9569 2.9569 2.9569 1.6331 0 2.9569-1.3239 2.9569-2.9569 0-1.6331-1.3239-2.9569-2.9569-2.9569zm4.4354 7.3923c-1.6331 0-2.9569 1.3239-2.9569 2.9569 0 1.6331 1.3239 2.9569 2.9569 2.9569 1.6331 0 2.9569-1.3239 2.9569-2.9569 0-1.6331-1.3239-2.9569-2.9569-2.9569zm-2.9569 7.3923c-1.6331 0-2.9569 1.3239-2.9569 2.9569 0 1.6331 1.3239 2.9569 2.9569 2.9569 1.6331 0 2.9569-1.3239 2.9569-2.9569 0-1.6331-1.3239-2.9569-2.9569-2.9569z" fill="#fff" stroke-width=".73923"/>
 </g>
</svg>
