<?xml version="1.0" encoding="UTF-8"?>
<svg id="svg6" width="128" height="128" version="1.1" viewBox="0 0 33.867 33.867" xmlns="http://www.w3.org/2000/svg" xmlns:cc="http://creativecommons.org/ns#" xmlns:dc="http://purl.org/dc/elements/1.1/" xmlns:rdf="http://www.w3.org/1999/02/22-rdf-syntax-ns#" xmlns:xlink="http://www.w3.org/1999/xlink">
 <metadata id="metadata112">
  <rdf:RDF>
   <cc:Work rdf:about="">
    <dc:format>image/svg+xml</dc:format>
    <dc:type rdf:resource="http://purl.org/dc/dcmitype/StillImage"/>
   </cc:Work>
  </rdf:RDF>
 </metadata>
 <defs id="defs2">
  <linearGradient id="linearGradient1632" x1="132.21" x2="132.21" y1="42.152" y2="70.68" gradientTransform="matrix(.97573 0 0 .97573 -111.53 -36.667)" gradientUnits="userSpaceOnUse">
   <stop id="stop1626" stop-color="#00b9ff" offset="0"/>
   <stop id="stop1628" stop-color="#005cdb" offset="1"/>
  </linearGradient>
  <linearGradient id="linearGradient1176" x1="9.1657" x2="9.1657" y1="10.452" y2="49.292" gradientTransform="translate(.25935 -.10839)" gradientUnits="userSpaceOnUse">
   <stop id="stop1170" stop-color="#fff" offset="0"/>
   <stop id="stop1172" stop-color="#0e66d2" offset="1"/>
  </linearGradient>
 </defs>
 <g id="layer1">
  <g id="g1702" transform="matrix(.97573 0 0 .97573 -65.748 -37.203)" fill="none" opacity=".29677" stroke="#000" stroke-linecap="round" stroke-linejoin="round" stroke-opacity=".02">
   <rect id="rect1634" x="69.84" y="40.71" width="29.811" height="29.811" rx="6.6099" ry="6.6099" stroke-width=".1"/>
   <rect id="rect1638" x="69.84" y="40.71" width="29.811" height="29.811" rx="6.6099" ry="6.6099" stroke-width=".2"/>
   <rect id="rect1640" x="69.84" y="40.71" width="29.811" height="29.811" rx="6.6099" ry="6.6099" stroke-width=".3"/>
   <rect id="rect1642" x="69.84" y="40.71" width="29.811" height="29.811" rx="6.6099" ry="6.6099" stroke-width=".4"/>
   <rect id="rect1644" x="69.84" y="40.71" width="29.811" height="29.811" rx="6.6099" ry="6.6099" stroke-width=".5"/>
   <rect id="rect1646" x="69.84" y="40.71" width="29.811" height="29.811" rx="6.6099" ry="6.6099" stroke-width=".6"/>
   <rect id="rect1648" x="69.84" y="40.71" width="29.811" height="29.811" rx="6.6099" ry="6.6099" stroke-width=".7"/>
   <rect id="rect1650" x="69.84" y="40.71" width="29.811" height="29.811" rx="6.6099" ry="6.6099" stroke-width=".8"/>
   <rect id="rect1652" x="69.84" y="40.71" width="29.811" height="29.811" rx="6.6099" ry="6.6099"/>
   <rect id="rect1654" x="69.84" y="40.71" width="29.811" height="29.811" rx="6.6099" ry="6.6099" stroke-width="1.2"/>
   <rect id="rect1656" x="69.84" y="40.71" width="29.811" height="29.811" rx="6.6099" ry="6.6099" stroke-width="1.4"/>
   <rect id="rect1658" x="69.84" y="40.71" width="29.811" height="29.811" rx="6.6099" ry="6.6099" stroke-width="1.6"/>
   <rect id="rect1660" x="69.84" y="40.71" width="29.811" height="29.811" rx="6.6099" ry="6.6099" stroke-width="1.8"/>
   <rect id="rect1662" x="69.84" y="40.71" width="29.811" height="29.811" rx="6.6099" ry="6.6099" stroke-width="2"/>
   <rect id="rect1664" x="69.84" y="40.71" width="29.811" height="29.811" rx="6.6099" ry="6.6099" stroke-width="2.2"/>
   <rect id="rect1666" x="69.84" y="40.71" width="29.811" height="29.811" rx="6.6099" ry="6.6099" stroke-width="2.6"/>
   <rect id="rect1668" x="69.84" y="40.71" width="29.811" height="29.811" rx="6.6099" ry="6.6099" stroke-width="3"/>
   <rect id="rect1670" x="69.84" y="40.71" width="29.811" height="29.811" rx="6.6099" ry="6.6099" stroke-width="3.4"/>
   <rect id="rect1672" x="69.84" y="40.71" width="29.811" height="29.811" rx="6.6099" ry="6.6099" stroke-width="3.8"/>
   <rect id="rect1674" x="69.84" y="40.71" width="29.811" height="29.811" rx="6.6099" ry="6.6099" stroke-width="4.2"/>
   <rect id="rect1676" x="69.84" y="40.71" width="29.811" height="29.811" rx="6.6099" ry="6.6099" stroke-width="4.6"/>
   <rect id="rect1678" x="69.84" y="40.71" width="29.811" height="29.811" rx="6.6099" ry="6.6099" stroke-width="5"/>
  </g>
  <rect id="rect849" x="2.6431" y="3.0547" width="29.087" height="29.087" rx="6.4495" ry="6.4495" fill="url(#linearGradient1632)" stroke-linecap="round" stroke-linejoin="round" stroke-width="2.6877"/>
  <path id="path2648" d="m12.35 7.6786c-0.05738-0.035439-0.53806 0.28296-0.92302 0.61189-0.535 0.45714-1.0854 1.2305-1.3707 1.9221-0.43853 1.0631-0.51136 2.3728-0.19359 3.4829 0.19762 0.69039 0.82611 1.8273 1.006 1.8201 0.04034-0.0018 0.17567-0.12694 0.30076-0.27829 0.12542-0.15197 0.22989-0.29478 0.22989-0.31804 0-0.0233-0.08844-0.18622-0.19532-0.35953-0.24796-0.40212-0.43124-0.84541-0.5514-1.3292-0.13124-0.5284-0.1338-1.3953-0.0035-1.9238 0.25875-1.0509 0.85158-1.9283 1.7354-2.5703 0.19808-0.14388 0.36126-0.26726 0.36126-0.27311 0-0.047832-0.36087-0.76315-0.39583-0.78474zm6.4024 0.088154c-1.16-0.024836-2.3646 0.39992-3.2392 0.96797-0.4267 0.28198-0.38226 0.36578 0.06568 0.12445 0.74547-0.40163 1.4743-0.56076 2.572-0.56176 1.4043-0.0012 2.1876 0.21772 2.9972 0.83833l0.34224 0.26273 0.43731 0.00351c0.24 0.00234 0.53393 0.021106 0.65338 0.039754 0.31562 0.049153 0.36161 0.049604 0.38892 0.00518 0.057728-0.10303-0.93849-0.83468-1.5176-1.1132-0.88014-0.44748-1.8152-0.54527-2.6999-0.56695zm-5.4707 1.3534c-0.10302 0-0.55499 0.18568-0.87808 0.5272-0.52052 0.5502-0.85141 1.2037-0.99562 1.967-0.14574 0.77144-0.01825 1.7645 0.31113 2.4234 0.16862 0.33732 0.33714 0.59452 0.38892 0.59461 0.02534 4.7e-5 0.13234-0.10279 0.23853-0.22816 0.34764-0.41046 0.333-0.34176 0.15729-0.71733-0.23166-0.49516-0.30748-0.82811-0.30768-1.3569-3.46e-4 -0.96883 0.46516-1.9128 1.2082-2.4528 0.13145-0.09553 0.23926-0.20824 0.24026-0.25063 3e-3 -0.12035-0.29613-0.50645-0.36299-0.50645zm2.05 1.3016c-1.222 0-2.2125 0.99048-2.2125 2.2125s0.99048 2.2125 2.2125 2.2125c1.222 0 2.2125-0.99048 2.2125-2.2125s-0.99048-2.2125-2.2125-2.2125zm6.195 0c-1.222 0-2.2125 0.99048-2.2125 2.2125s0.99048 2.2125 2.2125 2.2125c1.222 0 2.2125-0.99048 2.2125-2.2125s-0.99048-2.2125-2.2125-2.2125zm-6.1958 0.885c0.73263 0 1.3284 0.594 1.3284 1.3266 0 0.73264-0.59573 1.3284-1.3284 1.3284-0.73264 0-1.3266-0.59572-1.3266-1.3284 0-0.73263 0.594-1.3266 1.3266-1.3266zm6.195 0c0.73263 0 1.3284 0.594 1.3284 1.3266 0 0.73264-0.59573 1.3284-1.3284 1.3284-0.73264 0-1.3266-0.59572-1.3266-1.3284 0-0.73263 0.594-1.3266 1.3266-1.3266zm-6.2978 0.503c-0.10986 0.0067-0.20724 0.02057-0.22471 0.03803-0.01221 0.01221-4e-3 0.09043 0.01902 0.17285 0.07942 0.2829-0.08287 0.45875-0.34743 0.37854-0.07094-0.02151-0.13396-0.02504-0.15211-0.0069-0.01708 0.01704-0.02621 0.14784-0.01902 0.29039 0.0107 0.2108 0.03243 0.28664 0.11062 0.40447 0.10702 0.16127 0.31547 0.31367 0.48917 0.3578 0.1705 0.04333 0.45509 0.01121 0.60844-0.06742 0.4165-0.21359 0.5727-0.73351 0.3457-1.1495-0.1102-0.20194-0.33401-0.376-0.53238-0.41311-0.06611-0.01238-0.18744-0.01187-0.2973-0.0052zm6.195 0c-0.10986 0.0067-0.20724 0.02057-0.22471 0.03803-0.01221 0.01221-4e-3 0.09043 0.01902 0.17285 0.07942 0.2829-0.08287 0.45875-0.34743 0.37854-0.07094-0.02151-0.13396-0.02504-0.15211-0.0069-0.01708 0.01704-0.02621 0.14784-0.01902 0.29039 0.0107 0.2108 0.03243 0.28664 0.11063 0.40447 0.10702 0.16127 0.31547 0.31367 0.48917 0.3578 0.1705 0.04333 0.45508 0.01121 0.60844-0.06742 0.4165-0.21359 0.5727-0.73351 0.3457-1.1495-0.1102-0.20194-0.33401-0.376-0.53238-0.41311-0.06611-0.01238-0.18744-0.01187-0.2973-0.0052zm-2.9938 1.267c-0.29597-8.7e-5 -0.46964 0.13003-0.60671 0.45719-0.11682 0.27883-0.04743 0.94593 0.14952 1.4165 0.11215 0.26793 0.41893 0.78129 0.4667 0.78129 0.01639 0 0.08963-0.08141 0.16076-0.18149 0.28397-0.39953 0.48539-1.0829 0.49262-1.6663 0.0038-0.30466-0.0038-0.33915-0.10543-0.49262-0.1486-0.22479-0.30706-0.31451-0.55744-0.31459zm6.2244 0.66894c-0.03295 0.0079-0.34232 0.28791-0.68795 0.62226l-0.62745 0.60844-0.02938 0.65511c-0.12831 2.9827-1.1383 5.4033-3.0439 7.2909-1.4401 1.4265-3.6108 2.6029-5.8355 3.1442-0.67976 0.1654-2.3823 0.41095-2.4407 0.35262-0.02741-0.02741 0.01321-0.12473 0.11408-0.27656 0.37534-0.56512 0.66938-1.304 0.80894-2.0345 0.13726-0.71833 0.15219-1.2126 0.06914-2.2488-0.0916-1.1428-0.0685-1.9155 0.05877-2.5081 0.18172-0.8461 0.54618-1.5143 1.0198-1.8702 0.57864-0.43484 1.1166-0.62745 1.7562-0.62745 1.4516 0 2.9187 1.0163 3.2124 2.3905 0.08996 0.42083 0.05536 1.3525-0.06914 1.9705-0.28918 1.4356-1.2135 2.4696-2.2946 3.3862-0.20699 0.17548-0.4456 0.38357-0.53065 0.46151l-0.15383 0.14174 0.12965-0.0484c0.07166-0.02586 0.32634-0.16338 0.56522-0.30595 1.7988-1.0735 2.9841-2.1617 3.368-3.9808 0.1174-0.55631 0.16589-1.569 0.09162-1.9964-0.12142-0.69873-0.54088-1.4318-1.146-2.0016-1.2499-1.177-3.1767-1.4503-4.7508-0.71388-0.8084 0.37818-1.5082 1.0127-1.8512 1.6784-0.56465 1.0958-0.66005 2.1488-0.29903 4.024 0.12155 0.6314 0.17804 1.1259 0.17804 1.5626 0 1.3944-0.48849 2.7126-1.3638 3.6765-0.13353 0.14704-0.24372 0.27796-0.24372 0.29212 0 0.0436 0.10576 0.02943 0.62572-0.08297 0.27588-0.05962 0.91762-0.16781 1.426-0.24026 1.9489-0.27776 3.342-0.69761 4.9643-1.4986 2.0053-0.99011 3.5748-2.3158 4.7707-3.998 1.2227-1.7199 1.9908-3.9226 2.1779-6.2468 0.08874-1.1024 0.09727-1.5937 0.03111-1.5781z" fill="#002b60" fill-opacity=".092337" stroke-width=".4425"/>
  <path id="path2466" d="m12.246 7.4146c-0.05738-0.035439-0.53806 0.28296-0.92302 0.61189-0.535 0.45714-1.0854 1.2305-1.3707 1.9221-0.43853 1.0631-0.51135 2.3728-0.19359 3.4829 0.19761 0.69039 0.82611 1.8273 1.006 1.8201 0.04034-0.0018 0.17567-0.12694 0.30076-0.27829 0.12542-0.15197 0.22989-0.29478 0.22989-0.31804 0-0.0233-0.08844-0.18622-0.19532-0.35953-0.24796-0.40212-0.43124-0.84541-0.5514-1.3292-0.13124-0.5284-0.1338-1.3953-0.0035-1.9238 0.25875-1.0509 0.85158-1.9283 1.7354-2.5703 0.19808-0.14388 0.36126-0.26726 0.36126-0.27311 0-0.047832-0.36087-0.76315-0.39583-0.78474zm6.4024 0.088154c-1.16-0.024836-2.3646 0.39992-3.2392 0.96797-0.4267 0.28198-0.38226 0.36578 0.06568 0.12445 0.74547-0.40163 1.4743-0.56076 2.572-0.56176 1.4043-0.0012 2.1876 0.21772 2.9972 0.83833l0.34224 0.26273 0.43731 0.00351c0.24 0.00234 0.53393 0.021106 0.65338 0.039754 0.31562 0.049153 0.36161 0.049604 0.38892 0.00518 0.057728-0.10303-0.93849-0.83468-1.5176-1.1132-0.88014-0.44748-1.8152-0.54527-2.6999-0.56695zm-5.4707 1.3534c-0.10302 0-0.55499 0.18568-0.87808 0.5272-0.52052 0.5502-0.85141 1.2037-0.99562 1.967-0.14574 0.77144-0.01825 1.7645 0.31113 2.4234 0.16862 0.33732 0.33714 0.59452 0.38892 0.59461 0.02534 4.7e-5 0.13234-0.10279 0.23853-0.22816 0.34764-0.41046 0.333-0.34176 0.15729-0.71733-0.23166-0.49516-0.30748-0.82811-0.30768-1.3569-3.46e-4 -0.96883 0.46516-1.9128 1.2082-2.4528 0.13145-0.09553 0.23926-0.20824 0.24026-0.25063 3e-3 -0.12035-0.29613-0.50645-0.36299-0.50645zm2.05 1.3016c-1.222 0-2.2125 0.99048-2.2125 2.2125s0.99048 2.2125 2.2125 2.2125c1.222 0 2.2125-0.99048 2.2125-2.2125s-0.99048-2.2125-2.2125-2.2125zm6.195 0c-1.222 0-2.2125 0.99048-2.2125 2.2125s0.99048 2.2125 2.2125 2.2125c1.222 0 2.2125-0.99048 2.2125-2.2125s-0.99048-2.2125-2.2125-2.2125zm-6.1958 0.885c0.73263 0 1.3284 0.594 1.3284 1.3266 0 0.73264-0.59573 1.3284-1.3284 1.3284-0.73264 0-1.3266-0.59572-1.3266-1.3284 0-0.73263 0.594-1.3266 1.3266-1.3266zm6.195 0c0.73263 0 1.3284 0.594 1.3284 1.3266 0 0.73264-0.59573 1.3284-1.3284 1.3284-0.73264 0-1.3266-0.59572-1.3266-1.3284 0-0.73263 0.594-1.3266 1.3266-1.3266zm-6.2978 0.503c-0.10986 0.0067-0.20724 0.02057-0.22471 0.03803-0.01221 0.01221-4e-3 0.09043 0.01902 0.17285 0.07942 0.2829-0.08287 0.45875-0.34743 0.37854-0.07094-0.02151-0.13396-0.02504-0.15211-0.0069-0.01708 0.01704-0.02621 0.14784-0.01902 0.29039 0.0107 0.2108 0.03243 0.28664 0.11062 0.40447 0.10702 0.16127 0.31547 0.31367 0.48917 0.3578 0.1705 0.04333 0.45509 0.01121 0.60844-0.06742 0.4165-0.21359 0.5727-0.73351 0.3457-1.1495-0.1102-0.20194-0.33401-0.376-0.53238-0.41311-0.06611-0.01238-0.18744-0.01187-0.2973-0.0052zm6.195 0c-0.10986 0.0067-0.20724 0.02057-0.22471 0.03803-0.01221 0.01221-4e-3 0.09043 0.01902 0.17285 0.07942 0.2829-0.08287 0.45875-0.34743 0.37854-0.07094-0.02151-0.13396-0.02504-0.15211-0.0069-0.01708 0.01704-0.02621 0.14784-0.01902 0.29039 0.0107 0.2108 0.03243 0.28664 0.11063 0.40447 0.10702 0.16127 0.31547 0.31367 0.48917 0.3578 0.1705 0.04333 0.45508 0.01121 0.60844-0.06742 0.4165-0.21359 0.5727-0.73351 0.3457-1.1495-0.1102-0.20194-0.33401-0.376-0.53238-0.41311-0.06611-0.01238-0.18744-0.01187-0.2973-0.0052zm-2.9938 1.267c-0.29597-8.7e-5 -0.46964 0.13003-0.60671 0.45719-0.11682 0.27883-0.04743 0.94593 0.14952 1.4165 0.11215 0.26793 0.41893 0.78129 0.4667 0.78129 0.01639 0 0.08963-0.08141 0.16076-0.18149 0.28397-0.39953 0.48539-1.0829 0.49262-1.6663 0.0038-0.30466-0.0038-0.33915-0.10543-0.49262-0.1486-0.22479-0.30706-0.31451-0.55744-0.31459zm6.2244 0.66894c-0.03295 0.0079-0.34232 0.28791-0.68795 0.62226l-0.62745 0.60844-0.02938 0.65511c-0.12831 2.9827-1.1383 5.4033-3.0439 7.2909-1.4401 1.4265-3.6108 2.6029-5.8355 3.1442-0.67976 0.1654-2.3823 0.41095-2.4407 0.35262-0.02741-0.02741 0.01321-0.12473 0.11408-0.27656 0.37534-0.56512 0.66938-1.304 0.80894-2.0345 0.13726-0.71833 0.15219-1.2126 0.06914-2.2488-0.0916-1.1428-0.0685-1.9155 0.05877-2.5081 0.18172-0.8461 0.54618-1.5143 1.0198-1.8702 0.57864-0.43484 1.1166-0.62745 1.7562-0.62745 1.4516 0 2.9187 1.0163 3.2124 2.3905 0.08996 0.42083 0.05536 1.3525-0.06914 1.9705-0.28918 1.4356-1.2135 2.4696-2.2946 3.3862-0.20699 0.17548-0.4456 0.38357-0.53065 0.46151l-0.15383 0.14174 0.12965-0.0484c0.07166-0.02586 0.32634-0.16338 0.56522-0.30595 1.7988-1.0735 2.9841-2.1617 3.368-3.9808 0.1174-0.55631 0.16589-1.569 0.09162-1.9964-0.12142-0.69873-0.54088-1.4318-1.146-2.0016-1.2499-1.177-3.1767-1.4503-4.7508-0.71388-0.8084 0.37818-1.5082 1.0127-1.8512 1.6784-0.56465 1.0958-0.66005 2.1488-0.29903 4.024 0.12155 0.6314 0.17804 1.1259 0.17804 1.5626 0 1.3944-0.48849 2.7126-1.3638 3.6765-0.13353 0.14704-0.24372 0.27796-0.24372 0.29212 0 0.0436 0.10576 0.02943 0.62572-0.08297 0.27588-0.05962 0.91762-0.16781 1.426-0.24026 1.9489-0.27776 3.342-0.69761 4.9643-1.4986 2.0053-0.99011 3.5748-2.3158 4.7707-3.998 1.2227-1.7199 1.9908-3.9226 2.1779-6.2468 0.08874-1.1024 0.09727-1.5937 0.03111-1.5781z" fill="#002b60" fill-opacity=".092337" stroke-width=".4425"/>
  <path id="path8" d="m12.108 7.1963c-0.05738-0.035439-0.53806 0.28296-0.92302 0.61189-0.535 0.45714-1.0854 1.2305-1.3707 1.9221-0.43853 1.0631-0.51136 2.3728-0.19359 3.4829 0.19762 0.69039 0.82611 1.8273 1.006 1.8201 0.04034-0.0018 0.17567-0.12694 0.30076-0.27829 0.12542-0.15197 0.22989-0.29478 0.22989-0.31804 0-0.0233-0.08844-0.18622-0.19532-0.35953-0.24796-0.40212-0.43124-0.84541-0.5514-1.3292-0.13124-0.5284-0.1338-1.3953-0.0035-1.9238 0.25875-1.0509 0.85158-1.9283 1.7354-2.5703 0.19808-0.14388 0.36126-0.26726 0.36126-0.27311 0-0.047832-0.36087-0.76315-0.39583-0.78474zm6.4024 0.088154c-1.16-0.024836-2.3646 0.39992-3.2392 0.96797-0.4267 0.28198-0.38226 0.36578 0.06568 0.12445 0.74547-0.40163 1.4743-0.56076 2.572-0.56176 1.4043-0.0012 2.1876 0.21772 2.9972 0.83833l0.34224 0.26273 0.43731 0.00351c0.24 0.00234 0.53393 0.021106 0.65338 0.039754 0.31562 0.049153 0.36161 0.049604 0.38892 0.00518 0.057728-0.10303-0.93849-0.83468-1.5176-1.1132-0.88014-0.44748-1.8152-0.54527-2.6999-0.56695zm-5.4707 1.3534c-0.10302 0-0.55499 0.18568-0.87808 0.5272-0.52052 0.5502-0.85141 1.2037-0.99562 1.967-0.14574 0.77144-0.01825 1.7645 0.31113 2.4234 0.16862 0.33732 0.33714 0.59452 0.38892 0.59461 0.02534 4.7e-5 0.13234-0.10279 0.23853-0.22816 0.34764-0.41046 0.333-0.34176 0.15729-0.71733-0.23166-0.49516-0.30748-0.82811-0.30768-1.3569-3.46e-4 -0.96883 0.46516-1.9128 1.2082-2.4528 0.13145-0.09553 0.23926-0.20824 0.24026-0.25063 3e-3 -0.12035-0.29613-0.50645-0.36299-0.50645zm2.05 1.3016c-1.222 0-2.2125 0.99048-2.2125 2.2125s0.99048 2.2125 2.2125 2.2125c1.222 0 2.2125-0.99048 2.2125-2.2125s-0.99048-2.2125-2.2125-2.2125zm6.195 0c-1.222 0-2.2125 0.99048-2.2125 2.2125s0.99048 2.2125 2.2125 2.2125c1.222 0 2.2125-0.99048 2.2125-2.2125s-0.99048-2.2125-2.2125-2.2125zm-6.1958 0.885c0.73263 0 1.3284 0.594 1.3284 1.3266 0 0.73264-0.59573 1.3284-1.3284 1.3284-0.73264 0-1.3266-0.59572-1.3266-1.3284 0-0.73263 0.594-1.3266 1.3266-1.3266zm6.195 0c0.73263 0 1.3284 0.594 1.3284 1.3266 0 0.73264-0.59573 1.3284-1.3284 1.3284-0.73264 0-1.3266-0.59572-1.3266-1.3284 0-0.73263 0.594-1.3266 1.3266-1.3266zm-6.2978 0.503c-0.10986 0.0067-0.20724 0.02057-0.22471 0.03803-0.01221 0.01221-4e-3 0.09043 0.01902 0.17285 0.07942 0.2829-0.08287 0.45875-0.34743 0.37854-0.07094-0.02151-0.13396-0.02504-0.15211-0.0069-0.01708 0.01704-0.02621 0.14784-0.01902 0.29039 0.0107 0.2108 0.03243 0.28664 0.11062 0.40447 0.10702 0.16127 0.31547 0.31367 0.48917 0.3578 0.1705 0.04333 0.45509 0.01121 0.60844-0.06742 0.4165-0.21359 0.5727-0.73351 0.3457-1.1495-0.1102-0.20194-0.33401-0.376-0.53238-0.41311-0.06611-0.01238-0.18744-0.01187-0.2973-0.0052zm6.195 0c-0.10986 0.0067-0.20724 0.02057-0.22471 0.03803-0.01221 0.01221-4e-3 0.09043 0.01902 0.17285 0.07942 0.2829-0.08287 0.45875-0.34743 0.37854-0.07094-0.02151-0.13396-0.02504-0.15211-0.0069-0.01708 0.01704-0.02621 0.14784-0.01902 0.29039 0.0107 0.2108 0.03243 0.28664 0.11063 0.40447 0.10702 0.16127 0.31547 0.31367 0.48917 0.3578 0.1705 0.04333 0.45508 0.01121 0.60844-0.06742 0.4165-0.21359 0.5727-0.73351 0.3457-1.1495-0.1102-0.20194-0.33401-0.376-0.53238-0.41311-0.06611-0.01238-0.18744-0.01187-0.2973-0.0052zm-2.9938 1.267c-0.29597-8.7e-5 -0.46964 0.13003-0.60671 0.45719-0.11682 0.27883-0.04743 0.94593 0.14952 1.4165 0.11215 0.26793 0.41893 0.78129 0.4667 0.78129 0.01639 0 0.08963-0.08141 0.16076-0.18149 0.28397-0.39953 0.48539-1.0829 0.49262-1.6663 0.0038-0.30466-0.0038-0.33915-0.10543-0.49262-0.1486-0.22479-0.30706-0.31451-0.55744-0.31459zm6.2244 0.66894c-0.03295 0.0079-0.34232 0.28791-0.68795 0.62226l-0.62745 0.60844-0.02938 0.65511c-0.12831 2.9827-1.1383 5.4033-3.0439 7.2909-1.4401 1.4265-3.6108 2.6029-5.8355 3.1442-0.67976 0.1654-2.3823 0.41095-2.4407 0.35262-0.02741-0.02741 0.01321-0.12473 0.11408-0.27656 0.37534-0.56512 0.66938-1.304 0.80894-2.0345 0.13726-0.71833 0.15219-1.2126 0.06914-2.2488-0.0916-1.1428-0.0685-1.9155 0.05877-2.5081 0.18172-0.8461 0.54618-1.5143 1.0198-1.8702 0.57864-0.43484 1.1166-0.62745 1.7562-0.62745 1.4516 0 2.9187 1.0163 3.2124 2.3905 0.08996 0.42083 0.05536 1.3525-0.06914 1.9705-0.28918 1.4356-1.2135 2.4696-2.2946 3.3862-0.20699 0.17548-0.4456 0.38357-0.53065 0.46151l-0.15383 0.14174 0.12965-0.0484c0.07166-0.02586 0.32634-0.16338 0.56522-0.30595 1.7988-1.0735 2.9841-2.1617 3.368-3.9808 0.1174-0.55631 0.16589-1.569 0.09162-1.9964-0.12142-0.69873-0.54088-1.4318-1.146-2.0016-1.2499-1.177-3.1767-1.4503-4.7508-0.71388-0.8084 0.37818-1.5082 1.0127-1.8512 1.6784-0.56465 1.0958-0.66005 2.1488-0.29903 4.024 0.12155 0.6314 0.17804 1.1259 0.17804 1.5626 0 1.3944-0.48849 2.7126-1.3638 3.6765-0.13353 0.14704-0.24372 0.27796-0.24372 0.29212 0 0.0436 0.10576 0.02943 0.62572-0.08297 0.27588-0.05962 0.91762-0.16781 1.426-0.24026 1.9489-0.27776 3.342-0.69761 4.9643-1.4986 2.0053-0.99011 3.5748-2.3158 4.7707-3.998 1.2227-1.7199 1.9908-3.9226 2.1779-6.2468 0.08874-1.1024 0.09727-1.5937 0.03111-1.5781z" fill="url(#linearGradient1176)" stroke-width=".4425"/>
 </g>
</svg>
