<?xml version="1.0" encoding="UTF-8"?>
<svg id="svg1829" width="128" height="128" version="1.1" viewBox="0 0 33.867 33.867" xmlns="http://www.w3.org/2000/svg" xmlns:cc="http://creativecommons.org/ns#" xmlns:dc="http://purl.org/dc/elements/1.1/" xmlns:rdf="http://www.w3.org/1999/02/22-rdf-syntax-ns#" xmlns:xlink="http://www.w3.org/1999/xlink">
 <defs id="defs1823">
  <radialGradient id="radialGradient886" cx="17.31" cy="2.5296" r="14.544" gradientTransform="matrix(7.1618 0 0 1.7511 -106.66 -1.9)" gradientUnits="userSpaceOnUse">
   <stop id="stop880" stop-color="#0ee782" offset="0"/>
   <stop id="stop882" stop-color="#00a9b8" offset="1"/>
  </radialGradient>
  <radialGradient id="radialGradient1318" cx="16.883" cy="18.052" r="10.209" gradientTransform="matrix(1.6149 0 0 1.2713 -10.163 -4.8978)" gradientUnits="userSpaceOnUse">
   <stop id="stop1312" stop-color="#f6fdf2" offset="0"/>
   <stop id="stop1314" stop-color="#b0f1cb" stop-opacity=".9451" offset="1"/>
  </radialGradient>
  <linearGradient id="linearGradient1651" x1="-10.897" x2="14.96" y1="-2.4288" y2="18.764" gradientTransform="translate(.21844)" gradientUnits="userSpaceOnUse">
   <stop id="stop1645" stop-color="#f6fdf2" offset="0"/>
   <stop id="stop1647" stop-color="#f6fdf2" stop-opacity="0" offset="1"/>
  </linearGradient>
  <radialGradient id="radialGradient2580" cx="30.954" cy="28.639" r="10.209" gradientTransform="matrix(2.5321 0 0 1.3671 -47.204 -11.649)" gradientUnits="userSpaceOnUse">
   <stop id="stop2574" stop-color="#01aeb4" offset="0"/>
   <stop id="stop2576" stop-color="#01aeb4" stop-opacity="0" offset="1"/>
  </radialGradient>
 </defs>
 <metadata id="metadata1826">
  <rdf:RDF>
   <cc:Work rdf:about="">
    <dc:format>image/svg+xml</dc:format>
    <dc:type rdf:resource="http://purl.org/dc/dcmitype/StillImage"/>
   </cc:Work>
  </rdf:RDF>
 </metadata>
 <g id="layer1">
  <g id="g1702" transform="matrix(.97573 0 0 .97573 -65.587 -37.192)" fill="none" opacity=".29676" stroke="#000" stroke-linecap="round" stroke-linejoin="round" stroke-opacity=".02">
   <rect id="rect1634" x="69.84" y="40.71" width="29.811" height="29.811" rx="6.6099" ry="6.6099" stroke-width=".1"/>
   <rect id="rect1638" x="69.84" y="40.71" width="29.811" height="29.811" rx="6.6099" ry="6.6099" stroke-width=".2"/>
   <rect id="rect1640" x="69.84" y="40.71" width="29.811" height="29.811" rx="6.6099" ry="6.6099" stroke-width=".3"/>
   <rect id="rect1642" x="69.84" y="40.71" width="29.811" height="29.811" rx="6.6099" ry="6.6099" stroke-width=".4"/>
   <rect id="rect1644" x="69.84" y="40.71" width="29.811" height="29.811" rx="6.6099" ry="6.6099" stroke-width=".5"/>
   <rect id="rect1646" x="69.84" y="40.71" width="29.811" height="29.811" rx="6.6099" ry="6.6099" stroke-width=".6"/>
   <rect id="rect1648" x="69.84" y="40.71" width="29.811" height="29.811" rx="6.6099" ry="6.6099" stroke-width=".7"/>
   <rect id="rect1650" x="69.84" y="40.71" width="29.811" height="29.811" rx="6.6099" ry="6.6099" stroke-width=".8"/>
   <rect id="rect1652" x="69.84" y="40.71" width="29.811" height="29.811" rx="6.6099" ry="6.6099"/>
   <rect id="rect1654" x="69.84" y="40.71" width="29.811" height="29.811" rx="6.6099" ry="6.6099" stroke-width="1.2"/>
   <rect id="rect1656" x="69.84" y="40.71" width="29.811" height="29.811" rx="6.6099" ry="6.6099" stroke-width="1.4"/>
   <rect id="rect1658" x="69.84" y="40.71" width="29.811" height="29.811" rx="6.6099" ry="6.6099" stroke-width="1.6"/>
   <rect id="rect1660" x="69.84" y="40.71" width="29.811" height="29.811" rx="6.6099" ry="6.6099" stroke-width="1.8"/>
   <rect id="rect1662" x="69.84" y="40.71" width="29.811" height="29.811" rx="6.6099" ry="6.6099" stroke-width="2"/>
   <rect id="rect1664" x="69.84" y="40.71" width="29.811" height="29.811" rx="6.6099" ry="6.6099" stroke-width="2.2"/>
   <rect id="rect1666" x="69.84" y="40.71" width="29.811" height="29.811" rx="6.6099" ry="6.6099" stroke-width="2.6"/>
   <rect id="rect1668" x="69.84" y="40.71" width="29.811" height="29.811" rx="6.6099" ry="6.6099" stroke-width="3"/>
   <rect id="rect1670" x="69.84" y="40.71" width="29.811" height="29.811" rx="6.6099" ry="6.6099" stroke-width="3.4"/>
   <rect id="rect1672" x="69.84" y="40.71" width="29.811" height="29.811" rx="6.6099" ry="6.6099" stroke-width="3.8"/>
   <rect id="rect1674" x="69.84" y="40.71" width="29.811" height="29.811" rx="6.6099" ry="6.6099" stroke-width="4.2"/>
   <rect id="rect1676" x="69.84" y="40.71" width="29.811" height="29.811" rx="6.6099" ry="6.6099" stroke-width="4.6"/>
   <rect id="rect1678" x="69.84" y="40.71" width="29.811" height="29.811" rx="6.6099" ry="6.6099" stroke-width="5"/>
  </g>
  <rect id="rect849-5" x="2.5579" y="2.5293" width="29.087" height="29.087" rx="6.4495" ry="6.4495" fill="url(#radialGradient886)" stroke-linecap="round" stroke-linejoin="round" stroke-width="2.6877"/>
  <path id="path2990" d="m7.8391 8.6968c-0.68545 0-1.2373 0.7065-1.2373 1.392v14.317c0 0.6854 0.55183 1.3919 1.2373 1.3919h10.455l2.7839 2.7839 2.7839-2.7839h3.7737c0.6854 0 1.2372-0.70655 1.2372-1.3919v-14.317c0-0.68545-0.55177-1.392-1.2372-1.392z" fill="#000a3a" fill-opacity=".03943" opacity=".65244" stroke-width=".3977"/>
  <path id="path4" d="m8.0272 8.9371c-0.6284 0-1.1343 0.64769-1.1343 1.2761v13.125c0 0.62835 0.50589 1.2761 1.1343 1.2761h9.585l2.5522 2.5522 2.5522-2.5522h3.4596c0.62835 0 1.1342-0.64774 1.1342-1.2761v-13.125c0-0.6284-0.50584-1.2761-1.1342-1.2761z" fill="url(#radialGradient1318)" stroke-width=".3646"/>
  <path id="path2790" d="m7.7692 8.6968c-0.64674 0-1.1674 0.6666-1.1674 1.3133v13.509c0 0.64669 0.52066 1.3133 1.1674 1.3133h9.8648l2.6267 2.6267 2.6267-2.6267h3.5606c0.64669 0 1.1673-0.66665 1.1673-1.3133v-13.509c0-0.64675-0.52061-1.3133-1.1673-1.3133z" fill="#000a3a" fill-opacity=".02571" opacity=".65244" stroke-width=".37524"/>
  <path id="path1624" d="m8.0272 8.9371c-0.6284 0-1.1343 0.64769-1.1343 1.2761v13.125c0 0.62835 0.50589 1.2761 1.1343 1.2761h9.585l2.5522 2.5522 2.5522-2.5522h3.4596c0.62835 0 1.1342-0.64774 1.1342-1.2761v-13.125c0-0.6284-0.50584-1.2761-1.1342-1.2761z" fill="url(#linearGradient1651)" stroke-width=".3646"/>
  <circle id="circle8" cx="13.82" cy="15.135" r="1.0938" fill="#3f3f3f" stroke-width=".3646"/>
  <circle id="circle10" cx="20.383" cy="15.135" r="1.0938" fill="#3f3f3f" stroke-width=".3646"/>
  <path id="path1733" d="m8.0272 8.9371c-0.6284 0-1.1343 0.64769-1.1343 1.2761v13.125c0 0.62835 0.50589 1.2761 1.1343 1.2761h9.585l2.5522 2.5522 2.5522-2.5522h3.4596c0.62835 0 1.1342-0.64774 1.1342-1.2761v-13.125c0-0.6284-0.50584-1.2761-1.1342-1.2761z" fill="url(#radialGradient2580)" opacity=".65244" stroke-width=".3646"/>
  <path id="path12" d="m11.45 17.505s2.0782 2.1876 5.6512 2.1876 5.6512-2.1876 5.6512-2.1876" fill="none" stroke="#3f3f3f" stroke-linecap="round" stroke-linejoin="round" stroke-width="1.0938"/>
 </g>
</svg>
