<?xml version="1.0" encoding="UTF-8"?>
<svg id="svg1711" width="128" height="128" version="1.1" viewBox="0 0 33.867 33.867" xmlns="http://www.w3.org/2000/svg" xmlns:cc="http://creativecommons.org/ns#" xmlns:dc="http://purl.org/dc/elements/1.1/" xmlns:rdf="http://www.w3.org/1999/02/22-rdf-syntax-ns#" xmlns:xlink="http://www.w3.org/1999/xlink">
 <defs id="defs1705">
  <linearGradient id="linearGradient4677" x1="17.821" x2="17.821" y1="29.11" y2="4.0044" gradientTransform="translate(-.070804 .0003299)" gradientUnits="userSpaceOnUse">
   <stop id="stop4671" stop-color="#5aaf33" offset="0"/>
   <stop id="stop4673" stop-color="#98d742" offset="1"/>
  </linearGradient>
  <radialGradient id="radialGradient1686" cx="-120.39" cy="83.949" r="37.231" gradientTransform="matrix(.81253 0 0 .3198 -41.3 62.01)" gradientUnits="userSpaceOnUse">
   <stop id="stop1680" offset="0"/>
   <stop id="stop1698" stop-opacity=".81176" offset=".61419"/>
   <stop id="stop1700" stop-opacity=".45098" offset=".72294"/>
   <stop id="stop1706" stop-opacity=".26667" offset=".79194"/>
   <stop id="stop1704" stop-opacity=".078431" offset=".89859"/>
   <stop id="stop1688" stop-opacity=".054902" offset=".92553"/>
   <stop id="stop1682" stop-opacity="0" offset="1"/>
  </radialGradient>
  <linearGradient id="linearGradient1628" x1="-21.96" x2="-21.96" y1="57.204" y2="94.889" gradientTransform="translate(-118.41 .20798)" gradientUnits="userSpaceOnUse">
   <stop id="stop1620" stop-color="#e2dcd9" offset="0"/>
   <stop id="stop1638" stop-color="#ecefe7" offset=".20819"/>
   <stop id="stop1640" stop-color="#ddebd8" offset=".38371"/>
   <stop id="stop1642" stop-color="#cfe7ca" offset=".50908"/>
   <stop id="stop1622" stop-color="#8bd485" offset="1"/>
  </linearGradient>
  <radialGradient id="radialGradient1670" cx="-119.95" cy="72.973" r="22.283" gradientTransform="matrix(1.3718 -.0059972 .0033987 .77745 25.097 20.807)" gradientUnits="userSpaceOnUse">
   <stop id="stop1662" stop-color="#377b2e" stop-opacity="0" offset="0"/>
   <stop id="stop1672" stop-color="#377b2e" stop-opacity="0" offset=".81312"/>
   <stop id="stop1664" stop-color="#377b2e" stop-opacity=".57273" offset="1"/>
  </radialGradient>
  <radialGradient id="radialGradient1765" cx="-139.2" cy="57.976" r="22.283" gradientTransform="matrix(1.4918 0 0 .77745 68.456 17.416)" gradientUnits="userSpaceOnUse">
   <stop id="stop1738" stop-color="#6b1010" offset="0"/>
   <stop id="stop1740" stop-color="#6b1010" stop-opacity="0" offset="1"/>
  </radialGradient>
  <linearGradient id="linearGradient1775" x1="-137.57" x2="-137.57" y1="56.878" y2="79.729" gradientUnits="userSpaceOnUse">
   <stop id="stop1769" stop-color="#892f2f" offset="0"/>
   <stop id="stop1771" stop-color="#892f2f" stop-opacity="0" offset="1"/>
  </linearGradient>
  <radialGradient id="radialGradient1540" cx="-198.15" cy="-63.313" r="49.42" gradientTransform="matrix(1.7986 0 0 1.4706 52.409 42.238)" gradientUnits="userSpaceOnUse">
   <stop id="stop1534" stop-color="#fe4345" offset="0"/>
   <stop id="stop1542" stop-color="#ad1415" offset=".82174"/>
   <stop id="stop1536" stop-color="#5b0808" offset="1"/>
  </radialGradient>
  <radialGradient id="radialGradient1570" cx="-104" cy="31.288" r="12.348" gradientTransform="matrix(1 0 0 1.1574 0 -4.9249)" gradientUnits="userSpaceOnUse" xlink:href="#linearGradient1568"/>
  <linearGradient id="linearGradient1568">
   <stop id="stop1564" stop-color="#170303" offset="0"/>
   <stop id="stop1566" stop-color="#170303" stop-opacity="0" offset="1"/>
  </linearGradient>
  <radialGradient id="radialGradient1554" cx="-105.06" cy="26.395" r="10.205" gradientTransform="matrix(1 0 0 1.1574 -.95523 -4.3896)" gradientUnits="userSpaceOnUse" xlink:href="#linearGradient1552"/>
  <linearGradient id="linearGradient1552">
   <stop id="stop1548" stop-color="#fef7f7" offset="0"/>
   <stop id="stop1558" stop-color="#fce8e9" offset=".60981"/>
   <stop id="stop1550" stop-color="#f7adb4" offset="1"/>
  </linearGradient>
 </defs>
 <metadata id="metadata1708">
  <rdf:RDF>
   <cc:Work rdf:about="">
    <dc:format>image/svg+xml</dc:format>
    <dc:type rdf:resource="http://purl.org/dc/dcmitype/StillImage"/>
    <dc:title/>
   </cc:Work>
  </rdf:RDF>
 </metadata>
 <g id="layer1">
  <g id="g1702" transform="matrix(.97573 0 0 .97573 -65.819 -37.203)" fill="none" opacity=".295" stroke="#000" stroke-linecap="round" stroke-linejoin="round" stroke-opacity=".02">
   <rect id="rect1634" x="69.84" y="40.71" width="29.811" height="29.811" rx="6.6099" ry="6.6099" stroke-width=".1"/>
   <rect id="rect1638" x="69.84" y="40.71" width="29.811" height="29.811" rx="6.6099" ry="6.6099" stroke-width=".2"/>
   <rect id="rect1640" x="69.84" y="40.71" width="29.811" height="29.811" rx="6.6099" ry="6.6099" stroke-width=".3"/>
   <rect id="rect1642" x="69.84" y="40.71" width="29.811" height="29.811" rx="6.6099" ry="6.6099" stroke-width=".4"/>
   <rect id="rect1644" x="69.84" y="40.71" width="29.811" height="29.811" rx="6.6099" ry="6.6099" stroke-width=".5"/>
   <rect id="rect1646" x="69.84" y="40.71" width="29.811" height="29.811" rx="6.6099" ry="6.6099" stroke-width=".6"/>
   <rect id="rect1648" x="69.84" y="40.71" width="29.811" height="29.811" rx="6.6099" ry="6.6099" stroke-width=".7"/>
   <rect id="rect1650" x="69.84" y="40.71" width="29.811" height="29.811" rx="6.6099" ry="6.6099" stroke-width=".8"/>
   <rect id="rect1652" x="69.84" y="40.71" width="29.811" height="29.811" rx="6.6099" ry="6.6099"/>
   <rect id="rect1654" x="69.84" y="40.71" width="29.811" height="29.811" rx="6.6099" ry="6.6099" stroke-width="1.2"/>
   <rect id="rect1656" x="69.84" y="40.71" width="29.811" height="29.811" rx="6.6099" ry="6.6099" stroke-width="1.4"/>
   <rect id="rect1658" x="69.84" y="40.71" width="29.811" height="29.811" rx="6.6099" ry="6.6099" stroke-width="1.6"/>
   <rect id="rect1660" x="69.84" y="40.71" width="29.811" height="29.811" rx="6.6099" ry="6.6099" stroke-width="1.8"/>
   <rect id="rect1662" x="69.84" y="40.71" width="29.811" height="29.811" rx="6.6099" ry="6.6099" stroke-width="2"/>
   <rect id="rect1664" x="69.84" y="40.71" width="29.811" height="29.811" rx="6.6099" ry="6.6099" stroke-width="2.2"/>
   <rect id="rect1666" x="69.84" y="40.71" width="29.811" height="29.811" rx="6.6099" ry="6.6099" stroke-width="2.6"/>
   <rect id="rect1668" x="69.84" y="40.71" width="29.811" height="29.811" rx="6.6099" ry="6.6099" stroke-width="3"/>
   <rect id="rect1670" x="69.84" y="40.71" width="29.811" height="29.811" rx="6.6099" ry="6.6099" stroke-width="3.4"/>
   <rect id="rect1672" x="69.84" y="40.71" width="29.811" height="29.811" rx="6.6099" ry="6.6099" stroke-width="3.8"/>
   <rect id="rect1674" x="69.84" y="40.71" width="29.811" height="29.811" rx="6.6099" ry="6.6099" stroke-width="4.2"/>
   <rect id="rect1676" x="69.84" y="40.71" width="29.811" height="29.811" rx="6.6099" ry="6.6099" stroke-width="4.6"/>
   <rect id="rect1678" x="69.84" y="40.71" width="29.811" height="29.811" rx="6.6099" ry="6.6099" stroke-width="5"/>
  </g>
  <rect id="rect849" x="2.3255" y="2.5189" width="29.087" height="29.087" rx="6.4495" ry="6.4495" fill="url(#linearGradient4677)" stroke-linecap="round" stroke-linejoin="round" stroke-width="2.688"/>
  <g id="g1808" transform="translate(-.070804 .014796)">
   <g id="g1782" transform="matrix(.18315 0 0 .18315 42.42 9.1655)">
    <ellipse id="path1678" cx="-139.12" cy="88.857" rx="30.251" ry="11.906" fill="url(#radialGradient1686)"/>
    <path id="path1618" d="m-139.2 95.547c6.0982 0.18885 13.735-0.20429 19.137-4.8108 5.2774-5.4089 2.5043-10.519 1.681-12.562s-1.0486-5.3092-1.0723-8.0019c-0.0273-3.101 0.8137-8.7025 1.0723-9.237h-41.636c0.25861 0.53454 1.0996 6.1361 1.0723 9.237-0.0237 2.6926-0.24896 5.9589-1.0723 8.0019s-3.5965 7.1527 1.681 12.562c5.4018 4.6066 13.039 4.9997 19.137 4.8108z" fill="url(#linearGradient1628)"/>
    <path id="path1660" d="m-159.43 76.036c-0.1505 0.79098-0.34397 1.5212-0.59272 2.1384-0.82336 2.0429-3.5964 7.1526 1.681 12.562 5.4018 4.6066 13.039 4.9999 19.137 4.8111 6.0982 0.18885 13.735-0.20452 19.137-4.8111 5.2775-5.4089 2.5044-10.519 1.681-12.562-0.24875-0.61721-0.44222-1.3474-0.59272-2.1384z" fill="url(#radialGradient1670)"/>
    <path id="path1736" d="m-139.2 95.547c6.0982 0.18885 13.735-0.20429 19.137-4.8108 5.2774-5.4089 2.5043-10.519 1.681-12.562s-1.0486-5.3092-1.0723-8.0019c-0.0273-3.101 0.8137-8.7025 1.0723-9.237h-41.636c0.25861 0.53454 1.0996 6.1361 1.0723 9.237-0.0237 2.6926-0.24896 5.9589-1.0723 8.0019s-3.5965 7.1527 1.681 12.562c5.4018 4.6066 13.039 4.9997 19.137 4.8108z" fill="url(#radialGradient1765)" opacity=".574"/>
    <path id="path1767" d="m-139.2 95.547c6.0982 0.18885 13.735-0.20429 19.137-4.8108 5.2774-5.4089 2.5043-10.519 1.681-12.562s-1.0486-5.3092-1.0723-8.0019c-0.0273-3.101 0.8137-8.7025 1.0723-9.237h-41.636c0.25861 0.53454 1.0996 6.1361 1.0723 9.237-0.0237 2.6926-0.24896 5.9589-1.0723 8.0019s-3.5965 7.1527 1.681 12.562c5.4018 4.6066 13.039 4.9997 19.137 4.8108z" fill="url(#linearGradient1775)" opacity=".216"/>
   </g>
   <g id="g1731" transform="matrix(.18315 0 0 .18315 72.687 17.177)">
    <path id="path1544" d="m-304.37-54.554c-27.294 8.2e-5 -49.42 22.126-49.42 49.42 0.30142 5.592 0.93141 8.8759 4.6013 12.543 12.424 10.7 28.14 16.629 44.441 16.655 16.628-0.01455 32.637-6.1698 45.168-17.245 3.5546-3.3947 4.5779-6.5421 4.6305-11.954-8e-5 -27.294-22.126-49.42-49.42-49.42z" fill="#dfbebb"/>
    <path id="path1529" d="m-304.37-58.43c-27.294 8.2e-5 -49.42 22.126-49.42 49.42 0.30142 5.592 0.93141 8.8759 4.6013 12.543 12.424 10.7 28.14 16.629 44.441 16.655 16.628-0.01455 32.637-6.1698 45.168-17.245 3.5546-3.3947 4.5779-6.5421 4.6305-11.954-8e-5 -27.294-22.126-49.42-49.42-49.42z" fill="url(#radialGradient1540)"/>
    <g id="g1574" transform="translate(-223.76 -14.741)">
     <ellipse id="ellipse1560" transform="rotate(15.577)" cx="-104" cy="31.288" rx="12.348" ry="14.291" fill="url(#radialGradient1570)"/>
     <ellipse id="path1546" transform="rotate(15.577)" cx="-104" cy="31.288" rx="10.205" ry="11.812" fill="url(#radialGradient1554)"/>
    </g>
    <g id="g1580" transform="matrix(-.89323 0 0 .89323 -374.7 -12.237)">
     <ellipse id="ellipse1576" transform="rotate(15.577)" cx="-104" cy="31.288" rx="12.348" ry="14.291" fill="url(#radialGradient1570)"/>
     <ellipse id="ellipse1578" transform="rotate(15.577)" cx="-104" cy="31.288" rx="10.205" ry="11.812" fill="url(#radialGradient1554)"/>
    </g>
    <g id="g1590" transform="matrix(-.68055 -.34847 -.3957 .59931 -380.21 -66.054)">
     <ellipse id="ellipse1586" transform="rotate(15.577)" cx="-104" cy="31.288" rx="12.348" ry="14.291" fill="url(#radialGradient1570)"/>
     <ellipse id="ellipse1588" transform="rotate(15.577)" cx="-104" cy="31.288" rx="10.205" ry="11.812" fill="url(#radialGradient1554)"/>
    </g>
    <g id="g1600" transform="matrix(-.61688 -.097989 -.26654 .41571 -382.66 -57.917)">
     <ellipse id="ellipse1596" transform="rotate(15.577)" cx="-104" cy="31.288" rx="12.348" ry="14.291" fill="url(#radialGradient1570)"/>
     <ellipse id="ellipse1598" transform="rotate(15.577)" cx="-104" cy="31.288" rx="10.205" ry="11.812" fill="url(#radialGradient1554)"/>
    </g>
    <g id="g1610" transform="matrix(-.11923 .61688 .50583 .26654 -297.45 24.568)">
     <ellipse id="ellipse1606" transform="rotate(15.577)" cx="-104" cy="31.288" rx="12.348" ry="14.291" fill="url(#radialGradient1570)"/>
     <ellipse id="ellipse1608" transform="rotate(15.577)" cx="-104" cy="31.288" rx="10.205" ry="11.812" fill="url(#radialGradient1554)"/>
    </g>
   </g>
  </g>
 </g>
</svg>
