<?xml version="1.0" encoding="UTF-8" standalone="no"?>
<!-- Created with Inkscape (http://www.inkscape.org/) -->

<svg
   id="svg1"
   width="128"
   height="128"
   version="1.1"
   viewBox="0 0 128 128"
   sodipodi:docname="snes.svg"
   inkscape:version="1.4.4 (dcaf3e7d9e, 2026-05-05)"
   xmlns:inkscape="http://www.inkscape.org/namespaces/inkscape"
   xmlns:sodipodi="http://sodipodi.sourceforge.net/DTD/sodipodi-0.dtd"
   xmlns:xlink="http://www.w3.org/1999/xlink"
   xmlns="http://www.w3.org/2000/svg"
   xmlns:svg="http://www.w3.org/2000/svg">
  <sodipodi:namedview
     id="namedview1"
     pagecolor="#ffffff"
     bordercolor="#999999"
     borderopacity="1"
     inkscape:showpageshadow="2"
     inkscape:pageopacity="0"
     inkscape:pagecheckerboard="0"
     inkscape:deskcolor="#d1d1d1"
     inkscape:zoom="3.1985533"
     inkscape:cx="-5.7838648"
     inkscape:cy="104.10957"
     inkscape:window-width="2560"
     inkscape:window-height="1371"
     inkscape:window-x="0"
     inkscape:window-y="0"
     inkscape:window-maximized="1"
     inkscape:current-layer="svg1" />
  <defs
     id="defs1">
    <linearGradient
       id="linearGradient6"
       inkscape:collect="always">
      <stop
         style="stop-color:#734ebf;stop-opacity:1;"
         offset="0"
         id="stop6" />
      <stop
         style="stop-color:#502297;stop-opacity:1;"
         offset="1"
         id="stop7" />
    </linearGradient>
    <linearGradient
       id="linearGradient4"
       inkscape:collect="always">
      <stop
         style="stop-color:#baacff;stop-opacity:1;"
         offset="0"
         id="stop4" />
      <stop
         style="stop-color:#8f85e0;stop-opacity:0.99607843;"
         offset="1"
         id="stop5" />
    </linearGradient>
    <linearGradient
       id="linearGradient1"
       inkscape:collect="always">
      <stop
         style="stop-color:#e7e6da;stop-opacity:1;"
         offset="0"
         id="stop1" />
      <stop
         style="stop-color:#c9c8ac;stop-opacity:1;"
         offset="1"
         id="stop2" />
    </linearGradient>
    <linearGradient
       id="e"
       x1="7.937"
       x2="7.937"
       y1="15.081"
       y2="1.852"
       gradientTransform="matrix(7.5589 0 0 7.5589 .00028597 .062284)"
       gradientUnits="userSpaceOnUse">
      <stop
         id="stop11"
         stop-color="#f1efeb"
         offset="0" />
      <stop
         id="stop12"
         stop-color="#f7f6f4"
         offset="1" />
    </linearGradient>
    <filter
       id="filter2"
       x="-0.048"
       y="-0.048"
       width="1.096"
       height="1.096"
       color-interpolation-filters="sRGB">
      <feGaussianBlur
         id="feGaussianBlur2"
         stdDeviation="2.24" />
    </filter>
    <linearGradient
       inkscape:collect="always"
       xlink:href="#linearGradient1"
       id="linearGradient2"
       x1="64"
       y1="8"
       x2="64"
       y2="120"
       gradientUnits="userSpaceOnUse" />
    <linearGradient
       inkscape:collect="always"
       xlink:href="#linearGradient4"
       id="linearGradient5"
       x1="59.028191"
       y1="27.68976"
       x2="59.028191"
       y2="64.279877"
       gradientUnits="userSpaceOnUse" />
    <linearGradient
       inkscape:collect="always"
       xlink:href="#linearGradient6"
       id="linearGradient7"
       x1="94.363907"
       y1="46.319271"
       x2="94.363907"
       y2="82.162369"
       gradientUnits="userSpaceOnUse" />
    <linearGradient
       inkscape:collect="always"
       xlink:href="#linearGradient4"
       id="linearGradient9"
       x1="35.299641"
       y1="48.612938"
       x2="35.299641"
       y2="87.798424"
       gradientUnits="userSpaceOnUse" />
    <linearGradient
       inkscape:collect="always"
       xlink:href="#linearGradient6"
       id="linearGradient13"
       x1="71.653839"
       y1="66.083923"
       x2="71.653839"
       y2="106.08545"
       gradientUnits="userSpaceOnUse" />
    <filter
       inkscape:collect="always"
       style="color-interpolation-filters:sRGB"
       id="filter17"
       x="-0.063910054"
       y="-0.090746769"
       width="1.1278201"
       height="1.1814935">
      <feGaussianBlur
         inkscape:collect="always"
         stdDeviation="2.5454278"
         id="feGaussianBlur17" />
    </filter>
  </defs>
  <rect
     id="rect12-7"
     x="8"
     y="10.624"
     width="112"
     height="112"
     rx="26"
     ry="26"
     filter="url(#filter2)"
     opacity=".25"
     stroke-width="1.9999" />
  <rect
     id="rect12"
     x="8"
     y="8"
     width="112"
     height="112"
     rx="26"
     ry="26"
     fill="url(#e)"
     stroke-width="1.9999"
     style="fill:url(#linearGradient2);fill-opacity:1" />
  <path
     id="path4-0"
     style="fill:#000000;fill-opacity:1;stroke:none;stroke-opacity:1;filter:url(#filter17);opacity:0.35"
     d="m 58.891945,32.340309 c -4.016431,-0.0078 -5.542818,0.37292 -8.662109,2.16211 -3.657708,2.09803 -7.282289,6.33917 -8.06836,9.43945 -1.434233,5.65665 -1.528663,5.40022 2.146484,5.81446 7.132363,0.80392 14.170651,7.66285 15.119141,14.73437 0.470584,3.50847 1.779269,3.91261 6.408203,1.97852 11.211043,-4.68427 14.588813,-19.00376 6.666016,-28.25977 -3.546756,-4.14358 -7.52062,-5.85734 -13.609375,-5.86914 z m 34.957031,18.59961 c -6.547867,0.27303 -12.987594,4.06022 -15.794922,10.79101 -2.027473,4.86103 -1.324354,6.58594 2.679688,6.58594 5.753351,0 14.158203,9.1138 14.158203,15.35156 0,2.53853 2.219147,2.51451 7.421875,-0.07812 9.99426,-4.98035 12.59323,-17.91046 5.35547,-26.64453 -3.56827,-4.30597 -8.727529,-6.21821 -13.820314,-6.00586 z m -58.613281,11.73633 c -1.405566,0.0093 -2.821459,0.1082 -4.222656,0.30859 -6.304832,0.90168 -10.714691,2.75904 -12.998051,5.47266 -4.11781,4.89374 -1.13705,9.34119 8.251957,12.31054 4.281137,1.35395 14.339649,1.27615 19.136719,-0.14843 4.991985,-1.48246 8.988281,-5.19018 8.988281,-8.33789 0,-5.30306 -9.317286,-9.67028 -19.15625,-9.60547 z m 38.009765,17.85937 c -12.632344,-0.43873 -25.065135,5.79313 -19.929687,13.125 1.356457,1.93662 5.798625,4.358811 9.876953,5.386721 5.034851,1.26899 16.575791,0.46254 21.039063,-1.470701 8.800326,-3.81183 9.267139,-10.008 1.068359,-14.17188 -3.612314,-1.83456 -7.843906,-2.72289 -12.054688,-2.86914 z" />
  <path
     style="fill:url(#linearGradient5);fill-opacity:1;stroke:#000000;stroke-opacity:1"
     d="m 59.42737,60.491469 c -0.94849,-7.07152 -7.986436,-13.93056 -15.118798,-14.73448 -3.675148,-0.41424 -3.580682,-0.15833 -2.146449,-5.81498 0.786071,-3.10028 4.411468,-7.34124 8.069176,-9.43927 3.119291,-1.78919 4.644653,-2.16999 8.661084,-2.16222 6.088755,0.0118 10.062181,1.72535 13.608937,5.86893 7.922797,9.25601 4.544971,23.57606 -6.666072,28.26033 -4.628934,1.93409 -5.937294,1.53016 -6.407878,-1.97831 z"
     id="path4" />
  <path
     style="fill:url(#linearGradient9);fill-opacity:1;stroke:#000000;stroke-opacity:1"
     d="m 26.267383,76.767889 c -9.389004,-2.96935 -12.370607,-7.41704 -8.252793,-12.31078 2.283357,-2.71362 6.693341,-4.57005 12.998173,-5.47173 11.209579,-1.60313 23.37962,3.23631 23.37962,9.29695 0,3.14771 -3.996131,6.85421 -8.988116,8.33667 -4.79707,1.42458 -14.855747,1.50284 -19.136884,0.14889 z"
     id="path3" />
  <path
     style="fill:url(#linearGradient7);fill-opacity:1;stroke:#000000;stroke-opacity:1"
     d="m 94.892383,79.667919 c 0,-6.23776 -8.40543,-15.35091 -14.158781,-15.35091 -4.004042,0 -4.705681,-1.72556 -2.678208,-6.58659 4.990805,-11.96585 21.457618,-14.62577 29.613656,-4.78356 7.23776,8.73407 4.63902,21.66349 -5.35524,26.64384 -5.202728,2.59263 -7.421427,2.61572 -7.421427,0.0772 z"
     id="path2" />
  <path
     style="fill:url(#linearGradient13);fill-opacity:1;stroke:#000000;stroke-opacity:1"
     d="m 63.193234,95.047419 c -4.078328,-1.02791 -8.519833,-3.45063 -9.87629,-5.38725 -6.847264,-9.77583 17.535067,-17.59398 31.984322,-10.25571 8.19878,4.16388 7.731472,10.35976 -1.068854,14.17159 -4.463272,1.93324 -16.004327,2.74036 -21.039178,1.47137 z"
     id="path1" />
</svg>
