<?xml version="1.0" encoding="UTF-8"?>
<svg id="svg1829" width="128" height="128" version="1.1" viewBox="0 0 33.867 33.867" xmlns="http://www.w3.org/2000/svg" xmlns:cc="http://creativecommons.org/ns#" xmlns:dc="http://purl.org/dc/elements/1.1/" xmlns:rdf="http://www.w3.org/1999/02/22-rdf-syntax-ns#" xmlns:xlink="http://www.w3.org/1999/xlink">
 <defs id="defs1823">
  <radialGradient id="radialGradient886" cx="17.31" cy="2.5296" r="14.544" gradientTransform="matrix(7.1618 0 0 1.7511 -106.66 -1.9)" gradientUnits="userSpaceOnUse">
   <stop id="stop880" stop-color="#50ceff" offset="0"/>
   <stop id="stop882" stop-color="#3471fc" offset="1"/>
  </radialGradient>
  <radialGradient id="radialGradient930" cx="16.507" cy="19.11" r="7.4738" gradientTransform="matrix(1.2457 0 0 1.2209 -4.046 -4.425)" gradientUnits="userSpaceOnUse">
   <stop id="stop924" stop-color="#080026" stop-opacity="0" offset="0"/>
   <stop id="stop932" stop-color="#0a0630" stop-opacity="0" offset=".58135"/>
   <stop id="stop934" stop-color="#0d0f40" stop-opacity=".078431" offset=".7209"/>
   <stop id="stop936" stop-color="#10174e" stop-opacity=".14902" offset=".77645"/>
   <stop id="stop938" stop-color="#152567" stop-opacity=".27451" offset=".83714"/>
   <stop id="stop926" stop-color="#377afc" offset="1"/>
  </radialGradient>
  <linearGradient id="linearGradient946" x1="21.535" x2="21.535" y1="9.5615" y2="103.7" gradientUnits="userSpaceOnUse">
   <stop id="stop940" stop-color="#fff" offset="0"/>
   <stop id="stop942" stop-color="#3575fc" offset="1"/>
  </linearGradient>
 </defs>
 <metadata id="metadata1826">
  <rdf:RDF>
   <cc:Work rdf:about="">
    <dc:format>image/svg+xml</dc:format>
    <dc:type rdf:resource="http://purl.org/dc/dcmitype/StillImage"/>
    <dc:title/>
   </cc:Work>
  </rdf:RDF>
 </metadata>
 <g id="layer1">
  <g id="g1702" transform="matrix(.97573 0 0 .97573 -65.587 -37.192)" fill="none" opacity=".29676" stroke="#000" stroke-linecap="round" stroke-linejoin="round" stroke-opacity=".02">
   <rect id="rect1634" x="69.84" y="40.71" width="29.811" height="29.811" rx="6.6099" ry="6.6099" stroke-width=".1"/>
   <rect id="rect1638" x="69.84" y="40.71" width="29.811" height="29.811" rx="6.6099" ry="6.6099" stroke-width=".2"/>
   <rect id="rect1640" x="69.84" y="40.71" width="29.811" height="29.811" rx="6.6099" ry="6.6099" stroke-width=".3"/>
   <rect id="rect1642" x="69.84" y="40.71" width="29.811" height="29.811" rx="6.6099" ry="6.6099" stroke-width=".4"/>
   <rect id="rect1644" x="69.84" y="40.71" width="29.811" height="29.811" rx="6.6099" ry="6.6099" stroke-width=".5"/>
   <rect id="rect1646" x="69.84" y="40.71" width="29.811" height="29.811" rx="6.6099" ry="6.6099" stroke-width=".6"/>
   <rect id="rect1648" x="69.84" y="40.71" width="29.811" height="29.811" rx="6.6099" ry="6.6099" stroke-width=".7"/>
   <rect id="rect1650" x="69.84" y="40.71" width="29.811" height="29.811" rx="6.6099" ry="6.6099" stroke-width=".8"/>
   <rect id="rect1652" x="69.84" y="40.71" width="29.811" height="29.811" rx="6.6099" ry="6.6099"/>
   <rect id="rect1654" x="69.84" y="40.71" width="29.811" height="29.811" rx="6.6099" ry="6.6099" stroke-width="1.2"/>
   <rect id="rect1656" x="69.84" y="40.71" width="29.811" height="29.811" rx="6.6099" ry="6.6099" stroke-width="1.4"/>
   <rect id="rect1658" x="69.84" y="40.71" width="29.811" height="29.811" rx="6.6099" ry="6.6099" stroke-width="1.6"/>
   <rect id="rect1660" x="69.84" y="40.71" width="29.811" height="29.811" rx="6.6099" ry="6.6099" stroke-width="1.8"/>
   <rect id="rect1662" x="69.84" y="40.71" width="29.811" height="29.811" rx="6.6099" ry="6.6099" stroke-width="2"/>
   <rect id="rect1664" x="69.84" y="40.71" width="29.811" height="29.811" rx="6.6099" ry="6.6099" stroke-width="2.2"/>
   <rect id="rect1666" x="69.84" y="40.71" width="29.811" height="29.811" rx="6.6099" ry="6.6099" stroke-width="2.6"/>
   <rect id="rect1668" x="69.84" y="40.71" width="29.811" height="29.811" rx="6.6099" ry="6.6099" stroke-width="3"/>
   <rect id="rect1670" x="69.84" y="40.71" width="29.811" height="29.811" rx="6.6099" ry="6.6099" stroke-width="3.4"/>
   <rect id="rect1672" x="69.84" y="40.71" width="29.811" height="29.811" rx="6.6099" ry="6.6099" stroke-width="3.8"/>
   <rect id="rect1674" x="69.84" y="40.71" width="29.811" height="29.811" rx="6.6099" ry="6.6099" stroke-width="4.2"/>
   <rect id="rect1676" x="69.84" y="40.71" width="29.811" height="29.811" rx="6.6099" ry="6.6099" stroke-width="4.6"/>
   <rect id="rect1678" x="69.84" y="40.71" width="29.811" height="29.811" rx="6.6099" ry="6.6099" stroke-width="5"/>
  </g>
  <rect id="rect849-5" x="2.5579" y="2.5293" width="29.087" height="29.087" rx="6.4495" ry="6.4495" fill="url(#radialGradient886)" stroke-linecap="round" stroke-linejoin="round" stroke-width="2.6877"/>
  <g id="g957" fill="#083161" opacity=".32997" stroke-width=".53364">
   <path id="path948" d="m17.042 7.1173a2.4014 2.4014 0 0 0-2.4014 2.4014 2.4014 2.4014 0 0 0 1.6009 2.2607v1.7687a7.471 7.471 0 0 0-6.9374 7.4439 7.471 7.471 0 0 0 7.471 7.471 7.471 7.471 0 0 0 7.471-7.471 7.471 7.471 0 0 0-3.1529-6.0859l1.1528-1.4811a2.4014 2.4014 0 0 0 0.66602 0.09588 2.4014 2.4014 0 0 0 2.4014-2.4014 2.4014 2.4014 0 0 0-2.4014-2.4014 2.4014 2.4014 0 0 0-2.4014 2.4014 2.4014 2.4014 0 0 0 0.43359 1.3716l-1.2653 1.626a7.471 7.471 0 0 0-1.8365-0.51176v-1.8261a2.4014 2.4014 0 0 0 1.6009-2.2607 2.4014 2.4014 0 0 0-2.4014-2.4014zm-0.26682 9.6056a4.2692 4.2692 0 0 1 4.2692 4.2692 4.2692 4.2692 0 0 1-4.2692 4.2692 4.2692 4.2692 0 0 1-4.2692-4.2692 4.2692 4.2692 0 0 1 4.2692-4.2692zm0 1.6009a2.6682 2.6682 0 0 0-2.6682 2.6682 2.6682 2.6682 0 0 0 2.6682 2.6682 2.6682 2.6682 0 0 0 2.6682-2.6682 2.6682 2.6682 0 0 0-0.79213-1.8949 1.3341 1.3341 0 0 1 0.12507 0.56074 1.3341 1.3341 0 0 1-1.3341 1.3341 1.3341 1.3341 0 0 1-1.3341-1.3341 1.3341 1.3341 0 0 1 1.0537-1.3028 2.6682 2.6682 0 0 0-0.38669-0.03126z" fill-opacity=".1319"/>
   <path id="path950" d="m17.429 7.1486a2.4014 2.4014 0 0 0-2.4014 2.4014 2.4014 2.4014 0 0 0 1.6009 2.2607v1.7687a7.471 7.471 0 0 0-6.9374 7.4439 7.471 7.471 0 0 0 7.471 7.471 7.471 7.471 0 0 0 7.471-7.471 7.471 7.471 0 0 0-3.1529-6.0859l1.1528-1.4811a2.4014 2.4014 0 0 0 0.66602 0.09588 2.4014 2.4014 0 0 0 2.4014-2.4014 2.4014 2.4014 0 0 0-2.4014-2.4014 2.4014 2.4014 0 0 0-2.4014 2.4014 2.4014 2.4014 0 0 0 0.43359 1.3716l-1.2653 1.626a7.471 7.471 0 0 0-1.8365-0.51176v-1.8261a2.4014 2.4014 0 0 0 1.6009-2.2607 2.4014 2.4014 0 0 0-2.4014-2.4014zm-0.26682 9.6056a4.2692 4.2692 0 0 1 4.2692 4.2692 4.2692 4.2692 0 0 1-4.2692 4.2692 4.2692 4.2692 0 0 1-4.2692-4.2692 4.2692 4.2692 0 0 1 4.2692-4.2692zm0 1.6009a2.6682 2.6682 0 0 0-2.6682 2.6682 2.6682 2.6682 0 0 0 2.6682 2.6682 2.6682 2.6682 0 0 0 2.6682-2.6682 2.6682 2.6682 0 0 0-0.79213-1.8949 1.3341 1.3341 0 0 1 0.12507 0.56074 1.3341 1.3341 0 0 1-1.3341 1.3341 1.3341 1.3341 0 0 1-1.3341-1.3341 1.3341 1.3341 0 0 1 1.0537-1.3028 2.6682 2.6682 0 0 0-0.38669-0.03126z" fill-opacity=".092282"/>
   <path id="path952" d="m17.712 7.8741a2.4014 2.4014 0 0 0-2.4014 2.4014 2.4014 2.4014 0 0 0 1.6009 2.2607v1.7687a7.471 7.471 0 0 0-6.9374 7.4439 7.471 7.471 0 0 0 7.471 7.471 7.471 7.471 0 0 0 7.471-7.471 7.471 7.471 0 0 0-3.1529-6.0859l1.1528-1.4811a2.4014 2.4014 0 0 0 0.66602 0.09588 2.4014 2.4014 0 0 0 2.4014-2.4014 2.4014 2.4014 0 0 0-2.4014-2.4014 2.4014 2.4014 0 0 0-2.4014 2.4014 2.4014 2.4014 0 0 0 0.43359 1.3716l-1.2653 1.626a7.471 7.471 0 0 0-1.8365-0.51176v-1.8261a2.4014 2.4014 0 0 0 1.6009-2.2607 2.4014 2.4014 0 0 0-2.4014-2.4014zm-0.26682 9.6056a4.2692 4.2692 0 0 1 4.2692 4.2692 4.2692 4.2692 0 0 1-4.2692 4.2692 4.2692 4.2692 0 0 1-4.2692-4.2692 4.2692 4.2692 0 0 1 4.2692-4.2692zm0 1.6009a2.6682 2.6682 0 0 0-2.6682 2.6682 2.6682 2.6682 0 0 0 2.6682 2.6682 2.6682 2.6682 0 0 0 2.6682-2.6682 2.6682 2.6682 0 0 0-0.79213-1.8949 1.3341 1.3341 0 0 1 0.12507 0.56074 1.3341 1.3341 0 0 1-1.3341 1.3341 1.3341 1.3341 0 0 1-1.3341-1.3341 1.3341 1.3341 0 0 1 1.0537-1.3028 2.6682 2.6682 0 0 0-0.38669-0.03126z" fill-opacity=".056269"/>
  </g>
  <path id="path8" d="m16.764 6.6107a2.4014 2.4014 0 0 0-2.4014 2.4014 2.4014 2.4014 0 0 0 1.6009 2.2607v1.7687a7.471 7.471 0 0 0-6.9374 7.4439 7.471 7.471 0 0 0 7.471 7.471 7.471 7.471 0 0 0 7.471-7.471 7.471 7.471 0 0 0-3.1529-6.0859l1.1528-1.4811a2.4014 2.4014 0 0 0 0.66602 0.09588 2.4014 2.4014 0 0 0 2.4014-2.4014 2.4014 2.4014 0 0 0-2.4014-2.4014 2.4014 2.4014 0 0 0-2.4014 2.4014 2.4014 2.4014 0 0 0 0.43359 1.3716l-1.2653 1.626a7.471 7.471 0 0 0-1.8365-0.51176v-1.8261a2.4014 2.4014 0 0 0 1.6009-2.2607 2.4014 2.4014 0 0 0-2.4014-2.4014zm-0.26682 9.6056a4.2692 4.2692 0 0 1 4.2692 4.2692 4.2692 4.2692 0 0 1-4.2692 4.2692 4.2692 4.2692 0 0 1-4.2692-4.2692 4.2692 4.2692 0 0 1 4.2692-4.2692zm0 1.6009a2.6682 2.6682 0 0 0-2.6682 2.6682 2.6682 2.6682 0 0 0 2.6682 2.6682 2.6682 2.6682 0 0 0 2.6682-2.6682 2.6682 2.6682 0 0 0-0.79213-1.8949 1.3341 1.3341 0 0 1 0.12507 0.56074 1.3341 1.3341 0 0 1-1.3341 1.3341 1.3341 1.3341 0 0 1-1.3341-1.3341 1.3341 1.3341 0 0 1 1.0537-1.3028 2.6682 2.6682 0 0 0-0.38669-0.03126z" fill="url(#linearGradient946)" stroke-width=".53364"/>
  <circle id="path922" cx="16.476" cy="20.517" r="7.4738" fill="url(#radialGradient930)" opacity=".50101"/>
 </g>
</svg>
