<?xml version="1.0" encoding="UTF-8"?>
<svg width="128" height="128" viewBox="0 0 33.867 33.867" xmlns="http://www.w3.org/2000/svg" xmlns:xlink="http://www.w3.org/1999/xlink">
 <defs>
  <linearGradient id="d" x1="8.575" x2="23.294" y1="17.073" y2="52.14" gradientUnits="userSpaceOnUse">
   <stop stop-color="#fff" offset="0"/>
   <stop stop-color="#a534fb" offset="1"/>
  </linearGradient>
  <radialGradient id="c" cx="17.31" cy="2.53" r="14.544" gradientTransform="matrix(7.1618 0 0 1.7511 -106.66 -1.9)" gradientUnits="userSpaceOnUse">
   <stop stop-color="#ef44c4" stop-opacity=".97" offset="0"/>
   <stop stop-color="#a133ff" offset="1"/>
  </radialGradient>
 </defs>
 <g transform="translate(-65.587 -37.192) scale(.97573)" fill="none" opacity=".29676" stroke="#000" stroke-linecap="round" stroke-linejoin="round" stroke-opacity=".02">
  <rect x="69.84" y="40.71" width="29.811" height="29.811" rx="6.61" ry="6.61" stroke-width=".1"/>
  <rect x="69.84" y="40.71" width="29.811" height="29.811" rx="6.61" ry="6.61" stroke-width=".2"/>
  <rect x="69.84" y="40.71" width="29.811" height="29.811" rx="6.61" ry="6.61" stroke-width=".3"/>
  <rect x="69.84" y="40.71" width="29.811" height="29.811" rx="6.61" ry="6.61" stroke-width=".4"/>
  <rect x="69.84" y="40.71" width="29.811" height="29.811" rx="6.61" ry="6.61" stroke-width=".5"/>
  <rect x="69.84" y="40.71" width="29.811" height="29.811" rx="6.61" ry="6.61" stroke-width=".6"/>
  <rect x="69.84" y="40.71" width="29.811" height="29.811" rx="6.61" ry="6.61" stroke-width=".7"/>
  <rect x="69.84" y="40.71" width="29.811" height="29.811" rx="6.61" ry="6.61" stroke-width=".8"/>
  <rect x="69.84" y="40.71" width="29.811" height="29.811" rx="6.61" ry="6.61"/>
  <rect x="69.84" y="40.71" width="29.811" height="29.811" rx="6.61" ry="6.61" stroke-width="1.2"/>
  <rect x="69.84" y="40.71" width="29.811" height="29.811" rx="6.61" ry="6.61" stroke-width="1.4"/>
  <rect x="69.84" y="40.71" width="29.811" height="29.811" rx="6.61" ry="6.61" stroke-width="1.6"/>
  <rect x="69.84" y="40.71" width="29.811" height="29.811" rx="6.61" ry="6.61" stroke-width="1.8"/>
  <rect x="69.84" y="40.71" width="29.811" height="29.811" rx="6.61" ry="6.61" stroke-width="2"/>
  <rect x="69.84" y="40.71" width="29.811" height="29.811" rx="6.61" ry="6.61" stroke-width="2.2"/>
  <rect x="69.84" y="40.71" width="29.811" height="29.811" rx="6.61" ry="6.61" stroke-width="2.6"/>
  <rect x="69.84" y="40.71" width="29.811" height="29.811" rx="6.61" ry="6.61" stroke-width="3"/>
  <rect x="69.84" y="40.71" width="29.811" height="29.811" rx="6.61" ry="6.61" stroke-width="3.4"/>
  <rect x="69.84" y="40.71" width="29.811" height="29.811" rx="6.61" ry="6.61" stroke-width="3.8"/>
  <rect x="69.84" y="40.71" width="29.811" height="29.811" rx="6.61" ry="6.61" stroke-width="4.2"/>
  <rect x="69.84" y="40.71" width="29.811" height="29.811" rx="6.61" ry="6.61" stroke-width="4.6"/>
  <rect x="69.84" y="40.71" width="29.811" height="29.811" rx="6.61" ry="6.61" stroke-width="5"/>
 </g>
 <rect x="2.558" y="2.529" width="29.087" height="29.087" rx="6.449" ry="6.449" fill="url(#c)" stroke-linecap="round" stroke-linejoin="round" stroke-width="2.6877"/>
 <g fill="#2d024e" fill-rule="evenodd" stroke-width="2.0222">
  <path d="M15.6 8.803c-3.677.174-6.554 3.509-6.407 5.32.142 1.766 4.613 3.315 4.56 3.367a72.557 72.557 0 0 0-2.28 1.992c-1.837 1.679-3.105 2.922-2.462 4.67.743 2.014 2.366 1.93 4.271 1.557 4.918-.97 13.01-7.191 12.599-9.484-.334-1.859-4.858-5.53-7.531-6.844a5.658 5.658 0 0 0-2.75-.578Zm.76 3.185c.46-.042.995.073 1.592.364 1.304.629 2.655 2.303 0 3.256-.722.259-3.038-.623-2.967-1.846.063-1.129.607-1.701 1.375-1.774z" fill-opacity=".076791"/>
  <path d="M16.45 9.998c-3.677.174-6.554 3.508-6.407 5.32.142 1.766 4.613 3.315 4.56 3.367a72.557 72.557 0 0 0-2.28 1.992c-1.837 1.679-3.105 2.922-2.462 4.67.742 2.014 2.366 1.93 4.271 1.557 4.918-.971 13.009-7.191 12.599-9.485-.334-1.858-4.858-5.528-7.531-6.843a5.658 5.658 0 0 0-2.75-.578Zm.76 3.185c.459-.043.995.073 1.591.364 1.305.629 2.656 2.303 0 3.256-.722.258-3.037-.623-2.966-1.847.063-1.128.606-1.7 1.375-1.773z" fill-opacity=".030703"/>
  <path d="M15.795 9.1c-3.676.175-6.554 3.51-6.406 5.321.142 1.766 4.613 3.315 4.56 3.367a72.557 72.557 0 0 0-2.28 1.992c-1.837 1.678-3.105 2.922-2.462 4.67.742 2.013 2.366 1.93 4.271 1.556 4.918-.97 13.009-7.19 12.598-9.484-.333-1.858-4.857-5.529-7.53-6.843a5.658 5.658 0 0 0-2.75-.578Zm.76 3.186c.46-.043.996.072 1.592.364 1.305.629 2.655 2.303 0 3.255-.722.26-3.037-.622-2.966-1.846.062-1.128.606-1.7 1.375-1.773z" fill-opacity=".063652"/>
  <path d="M16.145 9.519c-3.677.174-6.554 3.508-6.407 5.32.142 1.765 4.613 3.314 4.56 3.367a72.557 72.557 0 0 0-2.28 1.992c-1.837 1.678-3.105 2.922-2.462 4.67.743 2.013 2.366 1.93 4.271 1.556 4.918-.97 13.01-7.19 12.599-9.484-.334-1.858-4.858-5.529-7.531-6.843a5.658 5.658 0 0 0-2.75-.578Zm.76 3.185c.46-.043.995.072 1.592.364 1.304.629 2.655 2.303 0 3.255-.722.26-3.038-.622-2.967-1.846.063-1.128.607-1.7 1.375-1.773z" fill-opacity=".063652"/>
  <path d="M16.734 10.53c-3.676.174-6.554 3.509-6.406 5.32.142 1.766 4.613 3.315 4.56 3.367a72.557 72.557 0 0 0-2.281 1.992c-1.836 1.679-3.104 2.922-2.461 4.67.742 2.014 2.366 1.93 4.27 1.557 4.919-.97 13.01-7.191 12.6-9.484-.334-1.859-4.858-5.53-7.531-6.844a5.658 5.658 0 0 0-2.75-.578zm.76 3.185c.46-.042.996.073 1.592.364 1.305.629 2.655 2.303 0 3.256-.722.259-3.037-.623-2.966-1.847.062-1.128.606-1.7 1.375-1.773z" fill-opacity=".030703"/>
 </g>
 <path d="M15.332 8.518c-3.676.174-6.553 3.508-6.406 5.32.142 1.765 4.613 3.314 4.56 3.367a72.557 72.557 0 0 0-2.28 1.992c-1.837 1.678-3.105 2.922-2.462 4.67.742 2.013 2.366 1.93 4.271 1.556 4.918-.97 13.009-7.19 12.598-9.484-.333-1.858-4.857-5.529-7.53-6.843a5.658 5.658 0 0 0-2.75-.578Zm.76 3.185c.46-.043.996.072 1.592.364 1.305.629 2.656 2.303 0 3.255-.722.26-3.037-.622-2.966-1.846.062-1.128.606-1.7 1.375-1.773z" fill="url(#d)" fill-rule="evenodd" stroke-width="2.0222"/>
</svg>
