<?xml version="1.0" encoding="UTF-8"?>
<svg id="svg2117" width="128" height="128" version="1.1" viewBox="0 0 33.867 33.867" xmlns="http://www.w3.org/2000/svg" xmlns:cc="http://creativecommons.org/ns#" xmlns:dc="http://purl.org/dc/elements/1.1/" xmlns:rdf="http://www.w3.org/1999/02/22-rdf-syntax-ns#" xmlns:xlink="http://www.w3.org/1999/xlink">
 <defs id="defs2111">
  <linearGradient id="linearGradient912" x1="132.21" x2="132.21" y1="42.152" y2="70.68" gradientTransform="matrix(.97573 0 0 .97573 -111.89 -37.234)" gradientUnits="userSpaceOnUse">
   <stop id="stop1626" stop-color="#f8fcfc" offset="0"/>
   <stop id="stop1628" stop-color="#e3e5e8" offset="1"/>
  </linearGradient>
 </defs>
 <metadata id="metadata2114">
  <rdf:RDF>
   <cc:Work rdf:about="">
    <dc:format>image/svg+xml</dc:format>
    <dc:type rdf:resource="http://purl.org/dc/dcmitype/StillImage"/>
   </cc:Work>
  </rdf:RDF>
 </metadata>
 <g id="layer1">
  <g id="g1702" transform="matrix(.97573 0 0 .97573 -65.83 -36.915)" fill="none" opacity=".13962" stroke="#000" stroke-linecap="round" stroke-linejoin="round" stroke-opacity=".02">
   <rect id="rect1634" x="69.84" y="40.71" width="29.811" height="29.811" rx="6.6099" ry="6.6099" stroke-width=".1"/>
   <rect id="rect1638" x="69.84" y="40.71" width="29.811" height="29.811" rx="6.6099" ry="6.6099" stroke-width=".2"/>
   <rect id="rect1640" x="69.84" y="40.71" width="29.811" height="29.811" rx="6.6099" ry="6.6099" stroke-width=".3"/>
   <rect id="rect1642" x="69.84" y="40.71" width="29.811" height="29.811" rx="6.6099" ry="6.6099" stroke-width=".4"/>
   <rect id="rect1644" x="69.84" y="40.71" width="29.811" height="29.811" rx="6.6099" ry="6.6099" stroke-width=".5"/>
   <rect id="rect1646" x="69.84" y="40.71" width="29.811" height="29.811" rx="6.6099" ry="6.6099" stroke-width=".6"/>
   <rect id="rect1648" x="69.84" y="40.71" width="29.811" height="29.811" rx="6.6099" ry="6.6099" stroke-width=".7"/>
   <rect id="rect1650" x="69.84" y="40.71" width="29.811" height="29.811" rx="6.6099" ry="6.6099" stroke-width=".8"/>
   <rect id="rect1652" x="69.84" y="40.71" width="29.811" height="29.811" rx="6.6099" ry="6.6099"/>
   <rect id="rect1654" x="69.84" y="40.71" width="29.811" height="29.811" rx="6.6099" ry="6.6099" stroke-width="1.2"/>
   <rect id="rect1656" x="69.84" y="40.71" width="29.811" height="29.811" rx="6.6099" ry="6.6099" stroke-width="1.4"/>
   <rect id="rect1658" x="69.84" y="40.71" width="29.811" height="29.811" rx="6.6099" ry="6.6099" stroke-width="1.6"/>
   <rect id="rect1660" x="69.84" y="40.71" width="29.811" height="29.811" rx="6.6099" ry="6.6099" stroke-width="1.8"/>
   <rect id="rect1662" x="69.84" y="40.71" width="29.811" height="29.811" rx="6.6099" ry="6.6099" stroke-width="2"/>
   <rect id="rect1664" x="69.84" y="40.71" width="29.811" height="29.811" rx="6.6099" ry="6.6099" stroke-width="2.2"/>
   <rect id="rect1666" x="69.84" y="40.71" width="29.811" height="29.811" rx="6.6099" ry="6.6099" stroke-width="2.6"/>
   <rect id="rect1668" x="69.84" y="40.71" width="29.811" height="29.811" rx="6.6099" ry="6.6099" stroke-width="3"/>
   <rect id="rect1670" x="69.84" y="40.71" width="29.811" height="29.811" rx="6.6099" ry="6.6099" stroke-width="3.4"/>
   <rect id="rect1672" x="69.84" y="40.71" width="29.811" height="29.811" rx="6.6099" ry="6.6099" stroke-width="3.8"/>
   <rect id="rect1674" x="69.84" y="40.71" width="29.811" height="29.811" rx="6.6099" ry="6.6099" stroke-width="4.2"/>
   <rect id="rect1676" x="69.84" y="40.71" width="29.811" height="29.811" rx="6.6099" ry="6.6099" stroke-width="4.6"/>
   <rect id="rect1678" x="69.84" y="40.71" width="29.811" height="29.811" rx="6.6099" ry="6.6099" stroke-width="5"/>
  </g>
  <rect id="rect910" x="2.2835" y="2.4875" width="29.087" height="29.087" rx="6.4495" ry="6.4495" fill="url(#linearGradient912)" stroke-linecap="round" stroke-linejoin="round" stroke-width="2.6877"/>
  <g id="g1007" transform="translate(-.45129 .39351)" stroke-width=".44584">
   <path id="path2" d="m13.712 7.9438c-0.40118-1.079e-4 -0.78122 0.17985-1.0354 0.49025l-4.0126 4.9043c-0.30609 0.37434-0.38633 0.88473-0.20986 1.3349l4.0126 10.254c0.2007 0.5125 0.69484 0.84976 1.2452 0.84989h7.1335c0.5504-1.36e-4 1.0445-0.33739 1.2452-0.84989l4.0126-10.254c0.17646-0.4502 0.09624-0.96058-0.20986-1.3349l-4.0126-4.9043c-0.25415-0.31041-0.63419-0.49036-1.0354-0.49025l-3.5668 7.5794z" opacity=".2"/>
   <path id="path4" d="m13.712 7.4979c-0.40118-1.079e-4 -0.78122 0.17985-1.0354 0.49026l-4.0126 4.9043c-0.30609 0.37434-0.38633 0.88472-0.20986 1.3349l4.0126 10.254c0.2007 0.5125 0.69484 0.84975 1.2452 0.84989h7.1335c0.5504-1.39e-4 1.0445-0.33739 1.2452-0.84989l4.0126-10.254c0.17646-0.4502 0.09624-0.96059-0.20986-1.3349l-4.0126-4.9043c-0.25415-0.31041-0.63419-0.49036-1.0354-0.49026l-3.5668 7.5794z" fill="#4f4f4f"/>
   <path id="path6" d="m13.712 7.4979c-0.40118-1.079e-4 -0.78122 0.17985-1.0354 0.49026l-4.0126 4.9043c-0.2462 0.3011-0.34336 0.68996-0.28126 1.065 0.03862-0.22335 0.1327-0.43745 0.28126-0.61913l4.0126-4.9043c0.25415-0.31041 0.63419-0.49036 1.0354-0.49025l3.5668 7.5794 3.5668-7.5794c0.40118-1.079e-4 0.78122 0.17985 1.0354 0.49025l4.0126 4.9043c0.14856 0.18169 0.24264 0.39579 0.28127 0.61913 0.06209-0.37502-0.03507-0.76388-0.28127-1.065l-4.0126-4.9043c-0.25415-0.31041-0.63419-0.49036-1.0354-0.49026l-3.5668 7.5794z" fill="#fff" opacity=".1"/>
   <path id="path8" d="m13.712 7.9438-1.7834 2.6751 1.7834 1.3375-0.89169 0.89169 4.4584 5.3501 4.4585-5.3501-0.89169-0.89169 1.7834-1.3375-1.7834-2.6751h-3.5668z" opacity=".2"/>
   <path id="path10" d="m13.712 7.4979-1.7834 2.6751 1.7834 1.3375-0.89169 0.89169 4.4584 5.3501 4.4585-5.3501-0.89169-0.89169 1.7834-1.3375-1.7834-2.6751h-3.5668z" fill="#696969"/>
   <path id="path12" d="m13.712 7.4979-1.7834 2.6751 0.19854 0.14891 1.5848-2.3781h7.1335l1.5848 2.3781 0.19854-0.14891-1.7834-2.6751h-3.5668zm-0.25514 4.2677-0.63655 0.63655 0.20289 0.24295 0.6888-0.6888zm7.6438 0-0.25514 0.1907 0.6888 0.6888 0.20289-0.24295z" fill="#fff" opacity=".1"/>
   <path id="path14" d="m13.712 7.4979h7.1335l-3.5668 10.254z" fill="#e4e4e4"/>
   <path id="path16" d="m15.495 9.7272 0.89169 2.2292-0.44585 2.2292v6.6877l1.3375 1.3375 1.3375-1.3375v-6.6877l-0.44584-2.2292 0.89169-2.2292z" opacity=".2"/>
   <path id="path18" d="m15.495 9.2813 0.89169 2.2292-0.44585 2.2292v6.6877l1.3375 1.3375 1.3375-1.3375v-6.6877l-0.44584-2.2292 0.89169-2.2292z" fill="#d32a2c"/>
   <path id="path20" d="m15.495 9.2813 0.89169 2.2292h1.7834l0.89169-2.2292z" opacity=".2"/>
   <path id="path22" d="m13.712 7.9438 0.44584 3.5668 3.1209-1.7834 3.1209 1.7834 0.44584-3.5668z" opacity=".2"/>
   <path id="path24" d="m13.712 7.4979 0.44584 3.5668 3.1209-1.7834 3.1209 1.7834 0.44584-3.5668z" fill="#fff"/>
  </g>
 </g>
</svg>
