<?xml version="1.0" encoding="UTF-8"?>
<svg id="svg1614" width="128" height="128" version="1.1" viewBox="0 0 33.867 33.867" xmlns="http://www.w3.org/2000/svg" xmlns:cc="http://creativecommons.org/ns#" xmlns:dc="http://purl.org/dc/elements/1.1/" xmlns:rdf="http://www.w3.org/1999/02/22-rdf-syntax-ns#">
 <defs id="defs1608">
  <radialGradient id="radialGradient1506" cx="17.081" cy="3.8306" r="14.544" gradientTransform="matrix(7.4203 0 0 2.9718 -109.59 -7.6061)" gradientUnits="userSpaceOnUse">
   <stop id="stop4671" stop-color="#22003e" offset="0"/>
   <stop id="stop4673" offset="1"/>
  </radialGradient>
  <linearGradient id="linearGradient1508" x1="7.6892" x2="7.6892" y1="10.895" y2="62.209" gradientUnits="userSpaceOnUse">
   <stop id="stop1502" stop-color="#fff" offset="0"/>
   <stop id="stop1504" stop-color="#8700de" offset="1"/>
  </linearGradient>
 </defs>
 <metadata id="metadata1611">
  <rdf:RDF>
   <cc:Work rdf:about="">
    <dc:format>image/svg+xml</dc:format>
    <dc:type rdf:resource="http://purl.org/dc/dcmitype/StillImage"/>
   </cc:Work>
  </rdf:RDF>
 </metadata>
 <g id="layer1">
  <g id="g1702" transform="matrix(.97573 0 0 .97573 -65.671 -37.256)" fill="none" opacity=".295" stroke="#000" stroke-linecap="round" stroke-linejoin="round" stroke-opacity=".02">
   <rect id="rect1634" x="69.84" y="40.71" width="29.811" height="29.811" rx="6.6099" ry="6.6099" stroke-width=".1"/>
   <rect id="rect1638" x="69.84" y="40.71" width="29.811" height="29.811" rx="6.6099" ry="6.6099" stroke-width=".2"/>
   <rect id="rect1640" x="69.84" y="40.71" width="29.811" height="29.811" rx="6.6099" ry="6.6099" stroke-width=".3"/>
   <rect id="rect1642" x="69.84" y="40.71" width="29.811" height="29.811" rx="6.6099" ry="6.6099" stroke-width=".4"/>
   <rect id="rect1644" x="69.84" y="40.71" width="29.811" height="29.811" rx="6.6099" ry="6.6099" stroke-width=".5"/>
   <rect id="rect1646" x="69.84" y="40.71" width="29.811" height="29.811" rx="6.6099" ry="6.6099" stroke-width=".6"/>
   <rect id="rect1648" x="69.84" y="40.71" width="29.811" height="29.811" rx="6.6099" ry="6.6099" stroke-width=".7"/>
   <rect id="rect1650" x="69.84" y="40.71" width="29.811" height="29.811" rx="6.6099" ry="6.6099" stroke-width=".8"/>
   <rect id="rect1652" x="69.84" y="40.71" width="29.811" height="29.811" rx="6.6099" ry="6.6099"/>
   <rect id="rect1654" x="69.84" y="40.71" width="29.811" height="29.811" rx="6.6099" ry="6.6099" stroke-width="1.2"/>
   <rect id="rect1656" x="69.84" y="40.71" width="29.811" height="29.811" rx="6.6099" ry="6.6099" stroke-width="1.4"/>
   <rect id="rect1658" x="69.84" y="40.71" width="29.811" height="29.811" rx="6.6099" ry="6.6099" stroke-width="1.6"/>
   <rect id="rect1660" x="69.84" y="40.71" width="29.811" height="29.811" rx="6.6099" ry="6.6099" stroke-width="1.8"/>
   <rect id="rect1662" x="69.84" y="40.71" width="29.811" height="29.811" rx="6.6099" ry="6.6099" stroke-width="2"/>
   <rect id="rect1664" x="69.84" y="40.71" width="29.811" height="29.811" rx="6.6099" ry="6.6099" stroke-width="2.2"/>
   <rect id="rect1666" x="69.84" y="40.71" width="29.811" height="29.811" rx="6.6099" ry="6.6099" stroke-width="2.6"/>
   <rect id="rect1668" x="69.84" y="40.71" width="29.811" height="29.811" rx="6.6099" ry="6.6099" stroke-width="3"/>
   <rect id="rect1670" x="69.84" y="40.71" width="29.811" height="29.811" rx="6.6099" ry="6.6099" stroke-width="3.4"/>
   <rect id="rect1672" x="69.84" y="40.71" width="29.811" height="29.811" rx="6.6099" ry="6.6099" stroke-width="3.8"/>
   <rect id="rect1674" x="69.84" y="40.71" width="29.811" height="29.811" rx="6.6099" ry="6.6099" stroke-width="4.2"/>
   <rect id="rect1676" x="69.84" y="40.71" width="29.811" height="29.811" rx="6.6099" ry="6.6099" stroke-width="4.6"/>
   <rect id="rect1678" x="69.84" y="40.71" width="29.811" height="29.811" rx="6.6099" ry="6.6099" stroke-width="5"/>
  </g>
  <rect id="rect849" x="2.3218" y="2.4196" width="29.087" height="29.087" rx="6.4495" ry="6.4495" fill="url(#radialGradient1506)" stroke-linecap="round" stroke-linejoin="round" stroke-width="2.688"/>
  <path id="path8" d="m9.9967 5.015c-0.014649-4.139e-4 -0.02954 1.559e-4 -0.045086 0.00125-0.12437 0.00871-0.27886 0.064679-0.49966 0.17219-1.2389 0.60318-2.6172 2.3535-3.2159 4.0831-0.53388 1.5424-0.58524 3.2333-0.14213 4.6078 0.50861 1.5303 1.4141 2.826 2.6298 3.9046 0.35235 0.76928-0.14216 1.3065 0.084526 3.3586 0.53045 4.9077 1.7116 7.8613 8.2088 7.8613s7.6789-2.9536 8.2088-7.8613c0.2267-2.0521-0.26781-2.5894 0.08453-3.3586 1.2157-1.0787 2.1218-2.3743 2.6304-3.9046 0.4431-1.3745 0.39174-3.0654-0.14214-4.6078-0.59868-1.7296-1.9769-3.4799-3.2159-4.0831-0.2208-0.10751-0.37531-0.16342-0.49966-0.17219-0.12436-0.00871-0.2178 0.030984-0.31808 0.11584 0 0 0.84952 0.87223 0.94423 1.7288-0.17779 0.62505-1.3763 0.52408-1.3763 0.52408s1.8476 1.7018 2.1734 3.0262c0.26235 1.1126 0.12015 3.1688-1.1133 3.6842 0 0-3.0701-1.0644-7.376-1.0644s-7.3754 1.0644-7.3754 1.0644c-1.2335-0.51548-1.3756-2.5716-1.1133-3.6842 0.32574-1.3243 2.1734-3.0262 2.1734-3.0262s-1.1985 0.10097-1.3763-0.52408c0.094716-0.85656 0.9436-1.7288 0.9436-1.7288-0.087737-0.074246-0.16986-0.11419-0.27237-0.11709zm11.452 16.312a2.2586 2.7466 26.323 0 1 0.94736 0.20726 2.2586 2.7466 26.323 0 1 0.76452 3.482 2.2586 2.7466 26.323 0 1-3.2522 1.4157 2.2586 2.7466 26.323 0 1-0.76515-3.4814 2.2586 2.7466 26.323 0 1 2.3055-1.6236zm-8.8625 6.27e-4a2.7466 2.2586 63.677 0 1 2.3055 1.6236 2.7466 2.2586 63.677 0 1-0.76515 3.4814 2.7466 2.2586 63.677 0 1-3.2522-1.4157 2.7466 2.2586 63.677 0 1 0.76515-3.482 2.7466 2.2586 63.677 0 1 0.94673-0.20725z" fill="url(#linearGradient1508)" stroke-width=".59065"/>
 </g>
</svg>
