<?xml version="1.0" encoding="UTF-8"?>
<svg id="svg1443" width="128" height="128" version="1.1" viewBox="0 0 33.867 33.867" xmlns="http://www.w3.org/2000/svg" xmlns:cc="http://creativecommons.org/ns#" xmlns:dc="http://purl.org/dc/elements/1.1/" xmlns:rdf="http://www.w3.org/1999/02/22-rdf-syntax-ns#" xmlns:xlink="http://www.w3.org/1999/xlink">
 <defs id="defs1437">
  <radialGradient id="radialGradient963" cx="16.951" cy="2.5104" r="14.544" gradientTransform="matrix(7.1386 0 0 2.2345 -104.06 -3.0991)" gradientUnits="userSpaceOnUse">
   <stop id="stop957" stop-color="#e3b500" offset="0"/>
   <stop id="stop959" stop-color="#eaa51c" stop-opacity=".96863" offset="1"/>
  </radialGradient>
  <linearGradient id="linearGradient1814" x1="97.174" x2="97.174" y1="222.07" y2="35.637" gradientUnits="userSpaceOnUse">
   <stop id="stop1808" stop-color="#e9a818" stop-opacity=".97255" offset="0"/>
   <stop id="stop1810" stop-color="#fff" stop-opacity=".87638" offset="1"/>
  </linearGradient>
 </defs>
 <metadata id="metadata1440">
  <rdf:RDF>
   <cc:Work rdf:about="">
    <dc:format>image/svg+xml</dc:format>
    <dc:type rdf:resource="http://purl.org/dc/dcmitype/StillImage"/>
   </cc:Work>
  </rdf:RDF>
 </metadata>
 <g id="layer1" stroke-linecap="round" stroke-linejoin="round">
  <g id="g1702" transform="matrix(.97573 0 0 .97573 -65.737 -37.183)" fill="none" opacity=".295" stroke="#000" stroke-opacity=".02">
   <rect id="rect1634" x="69.84" y="40.71" width="29.811" height="29.811" rx="6.6099" ry="6.6099" stroke-width=".1"/>
   <rect id="rect1638" x="69.84" y="40.71" width="29.811" height="29.811" rx="6.6099" ry="6.6099" stroke-width=".2"/>
   <rect id="rect1640" x="69.84" y="40.71" width="29.811" height="29.811" rx="6.6099" ry="6.6099" stroke-width=".3"/>
   <rect id="rect1642" x="69.84" y="40.71" width="29.811" height="29.811" rx="6.6099" ry="6.6099" stroke-width=".4"/>
   <rect id="rect1644" x="69.84" y="40.71" width="29.811" height="29.811" rx="6.6099" ry="6.6099" stroke-width=".5"/>
   <rect id="rect1646" x="69.84" y="40.71" width="29.811" height="29.811" rx="6.6099" ry="6.6099" stroke-width=".6"/>
   <rect id="rect1648" x="69.84" y="40.71" width="29.811" height="29.811" rx="6.6099" ry="6.6099" stroke-width=".7"/>
   <rect id="rect1650" x="69.84" y="40.71" width="29.811" height="29.811" rx="6.6099" ry="6.6099" stroke-width=".8"/>
   <rect id="rect1652" x="69.84" y="40.71" width="29.811" height="29.811" rx="6.6099" ry="6.6099"/>
   <rect id="rect1654" x="69.84" y="40.71" width="29.811" height="29.811" rx="6.6099" ry="6.6099" stroke-width="1.2"/>
   <rect id="rect1656" x="69.84" y="40.71" width="29.811" height="29.811" rx="6.6099" ry="6.6099" stroke-width="1.4"/>
   <rect id="rect1658" x="69.84" y="40.71" width="29.811" height="29.811" rx="6.6099" ry="6.6099" stroke-width="1.6"/>
   <rect id="rect1660" x="69.84" y="40.71" width="29.811" height="29.811" rx="6.6099" ry="6.6099" stroke-width="1.8"/>
   <rect id="rect1662" x="69.84" y="40.71" width="29.811" height="29.811" rx="6.6099" ry="6.6099" stroke-width="2"/>
   <rect id="rect1664" x="69.84" y="40.71" width="29.811" height="29.811" rx="6.6099" ry="6.6099" stroke-width="2.2"/>
   <rect id="rect1666" x="69.84" y="40.71" width="29.811" height="29.811" rx="6.6099" ry="6.6099" stroke-width="2.6"/>
   <rect id="rect1668" x="69.84" y="40.71" width="29.811" height="29.811" rx="6.6099" ry="6.6099" stroke-width="3"/>
   <rect id="rect1670" x="69.84" y="40.71" width="29.811" height="29.811" rx="6.6099" ry="6.6099" stroke-width="3.4"/>
   <rect id="rect1672" x="69.84" y="40.71" width="29.811" height="29.811" rx="6.6099" ry="6.6099" stroke-width="3.8"/>
   <rect id="rect1674" x="69.84" y="40.71" width="29.811" height="29.811" rx="6.6099" ry="6.6099" stroke-width="4.2"/>
   <rect id="rect1676" x="69.84" y="40.71" width="29.811" height="29.811" rx="6.6099" ry="6.6099" stroke-width="4.6"/>
   <rect id="rect1678" x="69.84" y="40.71" width="29.811" height="29.811" rx="6.6099" ry="6.6099" stroke-width="5"/>
  </g>
  <rect id="rect849" x="2.4074" y="2.5392" width="29.087" height="29.087" rx="6.4495" ry="6.4495" fill="url(#radialGradient963)" stroke-width="2.6877"/>
  <g id="g3400" fill="#480000" fill-opacity=".027675" opacity=".21207" stroke-width="1.1462">
   <path id="path3163" d="m23.185 7.7466a3.7251 3.7251 0 0 0-2.5745 1.2268l-1.9766 2.1921-0.82682-1.4883a3.7251 3.7251 0 0 0-2.234-1.773 3.7251 3.7251 0 0 0-2.8319 0.32453 3.7251 3.7251 0 0 0-1.4485 5.0658l2.0665 3.7197-3.6866 4.0881a3.7251 3.7251 0 0 0 0.27078 5.2607 3.7251 3.7251 0 0 0 5.2607-0.27078l1.9797-2.1952 0.82682 1.4888a3.7251 3.7251 0 0 0 5.0664 1.4485 3.7251 3.7251 0 0 0 1.4459-5.0664l-2.0655-3.7186 3.6871-4.0886a3.7251 3.7251 0 0 0-0.27337-5.2607 3.7251 3.7251 0 0 0-2.6861-0.95343z" color="#000000" style="-inkscape-stroke:none"/>
   <path id="path3381" d="m23.858 8.1364a3.7251 3.7251 0 0 0-2.5745 1.2268l-1.9766 2.1921-0.82682-1.4883a3.7251 3.7251 0 0 0-2.234-1.773 3.7251 3.7251 0 0 0-2.8319 0.32453 3.7251 3.7251 0 0 0-1.4485 5.0658l2.0665 3.7197-3.6866 4.0881a3.7251 3.7251 0 0 0 0.27078 5.2607 3.7251 3.7251 0 0 0 5.2607-0.27078l1.9797-2.1952 0.82682 1.4888a3.7251 3.7251 0 0 0 5.0664 1.4485 3.7251 3.7251 0 0 0 1.4459-5.0664l-2.0655-3.7186 3.6871-4.0886a3.7251 3.7251 0 0 0-0.27337-5.2607 3.7251 3.7251 0 0 0-2.6861-0.95343z" color="#000000" style="-inkscape-stroke:none"/>
   <path id="path3383" d="m24.342 8.4317a3.7251 3.7251 0 0 0-2.5745 1.2268l-1.9766 2.1921-0.82682-1.4883a3.7251 3.7251 0 0 0-2.234-1.773 3.7251 3.7251 0 0 0-2.8319 0.32453 3.7251 3.7251 0 0 0-1.4485 5.0658l2.0665 3.7197-3.6866 4.0881a3.7251 3.7251 0 0 0 0.27078 5.2607 3.7251 3.7251 0 0 0 5.2607-0.27078l1.9797-2.1952 0.82682 1.4888a3.7251 3.7251 0 0 0 5.0664 1.4485 3.7251 3.7251 0 0 0 1.4459-5.0664l-2.0655-3.7186 3.6871-4.0886a3.7251 3.7251 0 0 0-0.27337-5.2607 3.7251 3.7251 0 0 0-2.6861-0.95343z" color="#000000" style="-inkscape-stroke:none"/>
   <path id="path3385" d="m24.673 8.6207a3.7251 3.7251 0 0 0-2.5745 1.2268l-1.9766 2.1921-0.82682-1.4883a3.7251 3.7251 0 0 0-2.234-1.773 3.7251 3.7251 0 0 0-2.8319 0.32453 3.7251 3.7251 0 0 0-1.4485 5.0658l2.0665 3.7197-3.6866 4.0881a3.7251 3.7251 0 0 0 0.27078 5.2607 3.7251 3.7251 0 0 0 5.2607-0.27078l1.9797-2.1952 0.82682 1.4888a3.7251 3.7251 0 0 0 5.0664 1.4485 3.7251 3.7251 0 0 0 1.4459-5.0664l-2.0655-3.7186 3.6871-4.0886a3.7251 3.7251 0 0 0-0.27337-5.2607 3.7251 3.7251 0 0 0-2.6861-0.95343z" color="#000000" style="-inkscape-stroke:none"/>
   <path id="path3387" d="m24.921 8.7388a3.7251 3.7251 0 0 0-2.5745 1.2268l-1.9766 2.1921-0.82682-1.4883a3.7251 3.7251 0 0 0-2.234-1.773 3.7251 3.7251 0 0 0-2.8319 0.32453 3.7251 3.7251 0 0 0-1.4485 5.0658l2.0665 3.7197-3.6866 4.0881a3.7251 3.7251 0 0 0 0.27078 5.2607 3.7251 3.7251 0 0 0 5.2607-0.27078l1.9797-2.1952 0.82682 1.4888a3.7251 3.7251 0 0 0 5.0664 1.4485 3.7251 3.7251 0 0 0 1.4459-5.0664l-2.0655-3.7186 3.6871-4.0886a3.7251 3.7251 0 0 0-0.27337-5.2607 3.7251 3.7251 0 0 0-2.6861-0.95343z" color="#000000" style="-inkscape-stroke:none"/>
   <path id="path3389" d="m25.087 8.8037a3.7251 3.7251 0 0 0-2.5745 1.2268l-1.9766 2.1921-0.82682-1.4883a3.7251 3.7251 0 0 0-2.234-1.773 3.7251 3.7251 0 0 0-2.8319 0.32453 3.7251 3.7251 0 0 0-1.4485 5.0658l2.0665 3.7197-3.6866 4.0881a3.7251 3.7251 0 0 0 0.27078 5.2607 3.7251 3.7251 0 0 0 5.2607-0.27078l1.9797-2.1952 0.82682 1.4888a3.7251 3.7251 0 0 0 5.0664 1.4485 3.7251 3.7251 0 0 0 1.4459-5.0664l-2.0655-3.7186 3.6871-4.0886a3.7251 3.7251 0 0 0-0.27337-5.2607 3.7251 3.7251 0 0 0-2.6861-0.95343z" color="#000000" style="-inkscape-stroke:none"/>
   <path id="path3391" d="m25.211 8.8156a3.7251 3.7251 0 0 0-2.5745 1.2268l-1.9766 2.1921-0.82682-1.4883a3.7251 3.7251 0 0 0-2.234-1.773 3.7251 3.7251 0 0 0-2.8319 0.32453 3.7251 3.7251 0 0 0-1.4485 5.0658l2.0665 3.7197-3.6866 4.0881a3.7251 3.7251 0 0 0 0.27078 5.2607 3.7251 3.7251 0 0 0 5.2607-0.27078l1.9797-2.1952 0.82682 1.4888a3.7251 3.7251 0 0 0 5.0664 1.4485 3.7251 3.7251 0 0 0 1.4459-5.0664l-2.0655-3.7186 3.6871-4.0886a3.7251 3.7251 0 0 0-0.27337-5.2607 3.7251 3.7251 0 0 0-2.6861-0.95343z" color="#000000" style="-inkscape-stroke:none"/>
  </g>
  <path id="path1080" transform="scale(.26458)" d="m84.012 27.582a14.079 14.079 0 0 0-9.7305 4.6367l-7.4707 8.2852-3.125-5.625a14.079 14.079 0 0 0-8.4434-6.7012 14.079 14.079 0 0 0-10.703 1.2266 14.079 14.079 0 0 0-5.4746 19.146l7.8105 14.059-13.934 15.451a14.079 14.079 0 0 0 1.0234 19.883 14.079 14.079 0 0 0 19.883-1.0234l7.4824-8.2969 3.125 5.627a14.079 14.079 0 0 0 19.148 5.4746 14.079 14.079 0 0 0 5.4648-19.148l-7.8066-14.055 13.936-15.453a14.079 14.079 0 0 0-1.0332-19.883 14.079 14.079 0 0 0-10.152-3.6035z" color="#000000" fill="url(#linearGradient1814)" stroke-width="4.332" style="-inkscape-stroke:none"/>
 </g>
</svg>
