<?xml version="1.0" encoding="UTF-8"?>
<svg id="svg6" width="128" height="128" version="1.1" viewBox="0 0 33.867 33.867" xmlns="http://www.w3.org/2000/svg" xmlns:cc="http://creativecommons.org/ns#" xmlns:dc="http://purl.org/dc/elements/1.1/" xmlns:rdf="http://www.w3.org/1999/02/22-rdf-syntax-ns#" xmlns:xlink="http://www.w3.org/1999/xlink">
 <metadata id="metadata102">
  <rdf:RDF>
   <cc:Work rdf:about="">
    <dc:format>image/svg+xml</dc:format>
    <dc:type rdf:resource="http://purl.org/dc/dcmitype/StillImage"/>
    <dc:title/>
   </cc:Work>
  </rdf:RDF>
 </metadata>
 <defs id="defs2">
  <radialGradient id="radialGradient930" cx="22.057" cy="21.969" r="6.7108" gradientTransform="matrix(1.4235 1.1984 -2.4827 2.9492 45.199 -69.254)" gradientUnits="userSpaceOnUse">
   <stop id="stop920" stop-color="#fff" offset="0"/>
   <stop id="stop936" stop-color="#fcfcfc" offset=".11389"/>
   <stop id="stop938" stop-color="#eee" offset=".34478"/>
   <stop id="stop922" stop-color="#393939" offset="1"/>
  </radialGradient>
  <linearGradient id="linearGradient946" x1="13.632" x2="11.916" y1="30.96" y2="3.4984" gradientUnits="userSpaceOnUse">
   <stop id="stop940" stop-color="#3533ff" offset="0"/>
   <stop id="stop942" stop-color="#56b0f5" offset="1"/>
  </linearGradient>
  <linearGradient id="linearGradient956" x1="42.363" x2="21.739" y1="35.571" y2="17.73" gradientUnits="userSpaceOnUse">
   <stop id="stop950" stop-opacity=".32407" offset="0"/>
   <stop id="stop952" stop-opacity="0" offset="1"/>
  </linearGradient>
  <radialGradient id="radialGradient1044" cx="26.247" cy="26.912" r="9.6775" gradientTransform="matrix(2.0366 1.7736 -3.4018 3.9062 135.26 -54.564)" gradientUnits="userSpaceOnUse">
   <stop id="stop1038" offset="0"/>
   <stop id="stop1040" stop-opacity="0" offset="1"/>
  </radialGradient>
 </defs>
 <g id="layer1">
  <g id="g1702" transform="matrix(.97573 0 0 .97573 -65.748 -37.203)" fill="none" opacity=".29677" stroke="#000" stroke-linecap="round" stroke-linejoin="round" stroke-opacity=".02">
   <rect id="rect1634" x="69.84" y="40.71" width="29.811" height="29.811" rx="6.6099" ry="6.6099" stroke-width=".1"/>
   <rect id="rect1638" x="69.84" y="40.71" width="29.811" height="29.811" rx="6.6099" ry="6.6099" stroke-width=".2"/>
   <rect id="rect1640" x="69.84" y="40.71" width="29.811" height="29.811" rx="6.6099" ry="6.6099" stroke-width=".3"/>
   <rect id="rect1642" x="69.84" y="40.71" width="29.811" height="29.811" rx="6.6099" ry="6.6099" stroke-width=".4"/>
   <rect id="rect1644" x="69.84" y="40.71" width="29.811" height="29.811" rx="6.6099" ry="6.6099" stroke-width=".5"/>
   <rect id="rect1646" x="69.84" y="40.71" width="29.811" height="29.811" rx="6.6099" ry="6.6099" stroke-width=".6"/>
   <rect id="rect1648" x="69.84" y="40.71" width="29.811" height="29.811" rx="6.6099" ry="6.6099" stroke-width=".7"/>
   <rect id="rect1650" x="69.84" y="40.71" width="29.811" height="29.811" rx="6.6099" ry="6.6099" stroke-width=".8"/>
   <rect id="rect1652" x="69.84" y="40.71" width="29.811" height="29.811" rx="6.6099" ry="6.6099"/>
   <rect id="rect1654" x="69.84" y="40.71" width="29.811" height="29.811" rx="6.6099" ry="6.6099" stroke-width="1.2"/>
   <rect id="rect1656" x="69.84" y="40.71" width="29.811" height="29.811" rx="6.6099" ry="6.6099" stroke-width="1.4"/>
   <rect id="rect1658" x="69.84" y="40.71" width="29.811" height="29.811" rx="6.6099" ry="6.6099" stroke-width="1.6"/>
   <rect id="rect1660" x="69.84" y="40.71" width="29.811" height="29.811" rx="6.6099" ry="6.6099" stroke-width="1.8"/>
   <rect id="rect1662" x="69.84" y="40.71" width="29.811" height="29.811" rx="6.6099" ry="6.6099" stroke-width="2"/>
   <rect id="rect1664" x="69.84" y="40.71" width="29.811" height="29.811" rx="6.6099" ry="6.6099" stroke-width="2.2"/>
   <rect id="rect1666" x="69.84" y="40.71" width="29.811" height="29.811" rx="6.6099" ry="6.6099" stroke-width="2.6"/>
   <rect id="rect1668" x="69.84" y="40.71" width="29.811" height="29.811" rx="6.6099" ry="6.6099" stroke-width="3"/>
   <rect id="rect1670" x="69.84" y="40.71" width="29.811" height="29.811" rx="6.6099" ry="6.6099" stroke-width="3.4"/>
   <rect id="rect1672" x="69.84" y="40.71" width="29.811" height="29.811" rx="6.6099" ry="6.6099" stroke-width="3.8"/>
   <rect id="rect1674" x="69.84" y="40.71" width="29.811" height="29.811" rx="6.6099" ry="6.6099" stroke-width="4.2"/>
   <rect id="rect1676" x="69.84" y="40.71" width="29.811" height="29.811" rx="6.6099" ry="6.6099" stroke-width="4.6"/>
   <rect id="rect1678" x="69.84" y="40.71" width="29.811" height="29.811" rx="6.6099" ry="6.6099" stroke-width="5"/>
  </g>
  <rect id="rect849" x="2.4065" y="2.5186" width="29.087" height="29.087" rx="6.4495" ry="6.4495" fill="url(#linearGradient946)" stroke-linecap="round" stroke-linejoin="round" stroke-width="2.6877"/>
  <rect id="rect948" x="2.4065" y="2.5186" width="29.087" height="29.087" rx="6.4495" ry="6.4495" fill="url(#linearGradient956)" stroke-linecap="round" stroke-linejoin="round" stroke-width="2.6877"/>
  <path id="rect915" d="m9.1277 3.6407h15.645c3.1018 0 5.599 2.4972 5.599 5.599v7.8226c-1.3714 9.6127-5.9148 11.092-13.422 13.422h-7.8226c-3.1018 0-5.599-2.4972-5.599-5.599v-15.645c0-3.1018 2.4972-5.599 5.599-5.599z" fill="#fff" stroke-linecap="round" stroke-linejoin="round" stroke-width="2.6877"/>
  <path id="path1036" transform="scale(.26458)" d="m98.932 39.033a51.623 54.585 0 0 0-51.625 54.584 51.623 54.585 0 0 0 4.2793 21.598h12.479c28.372-8.8061 45.543-14.395 50.727-50.727v-22.783a51.623 54.585 0 0 0-15.859-2.6719z" fill="url(#radialGradient1044)" opacity=".346"/>
  <path id="rect958" transform="scale(.26458)" d="m30.602 20.545c-5.5958 0-10.1 4.5057-10.1 10.102v67.682c0 5.5958 4.5038 10.102 10.1 10.102h66.924c5.5958 0 10.102-4.5057 10.102-10.102v-67.682c0-5.5958-4.5057-10.102-10.102-10.102h-66.924zm0.35156 2.1582h18.387v26.844h-26.701v-18.529c0-4.6065 3.7079-8.3145 8.3145-8.3145zm19.385 0h27.371v26.844h-27.371v-26.844zm28.367 0h18.469c4.6066 0 8.3145 3.7079 8.3145 8.3145v18.529h-26.783v-26.844zm-56.066 27.84h26.701v27.543h-26.701v-27.543zm27.699 0h27.371v27.543h-27.371v-27.543zm28.367 0h26.783v27.543h-26.783v-27.543zm-56.066 28.539h26.701v27.191h-18.387c-4.6065 0-8.3145-3.7099-8.3145-8.3164v-18.875zm27.699 0h27.371v27.191h-27.371v-27.191zm28.367 0h26.783v18.875c0 4.6065-3.7079 8.3164-8.3145 8.3164h-18.469v-27.191z" fill="#0f54a6" fill-opacity=".45"/>
  <path id="path1020" d="m8.0075 10.817h1.791v0.39636c-0.0073 0.34498-0.1468 0.52848-0.41838 0.54316l-0.46976 0.02202v0.27158c0.34498-0.0073 0.65326-0.0073 0.82208-0.01469 0.22754-0.0073 0.38168-0.0073 0.4771-0.0073 0.16148 0 0.50646 0.0073 1.1304 0.02202v-0.27161l-0.26424-0.02202c-0.27892-0.02202-0.41104-0.19818-0.41838-0.54316v-0.39636h0.65326v-0.57986l-0.0073-0.02202h-0.64594v-0.91751c0-0.59454 0.0073-1.0716 0.04404-2.1139l-0.05138-0.08808-0.89548 0.19818c-0.85144 1.2478-1.3799 2.1947-1.7983 3.237zm0.46242-0.60188c0.04404-0.08808 0.05873-0.11744 0.12478-0.26424 0.08074-0.19084 0.16148-0.35232 0.19818-0.41838l0.45508-0.85144c0.09542-0.16148 0.27892-0.46242 0.5505-0.90282v2.4369z" fill="#4a4a4a"/>
  <path id="path1022" d="m8.7338 24.698c-0.57986 0.2936-0.85878 0.68262-0.85878 1.2111 0 0.74134 0.60188 1.2625 1.468 1.2625 0.98356 0 1.7102-0.68996 1.7102-1.6148 0-0.34498-0.10276-0.63124-0.31562-0.87346-0.16148-0.1835-0.2936-0.27158-0.59454-0.39636 0.50646-0.34498 0.68996-0.6239 0.68996-1.0349 0-0.63858-0.50646-1.0496-1.2992-1.0496-0.93218 0-1.5341 0.52848-1.5341 1.3506 0 0.52114 0.20552 0.83676 0.734 1.145zm0.74868 0.3303c0.54316 0.24222 0.76336 0.49912 0.76336 0.9175 0 0.48444-0.33764 0.8441-0.80006 0.8441-0.52848 0-0.9175-0.42572-0.9175-0.99825 0-0.38902 0.12478-0.6239 0.50646-0.96154zm-0.02202-1.0056c-0.5138-0.2202-0.70464-0.43306-0.70464-0.78538 0-0.39636 0.27892-0.65326 0.6973-0.65326 0.45508 0 0.76336 0.31562 0.76336 0.77804 0 0.31562-0.11744 0.52848-0.43306 0.80006z" fill="#4a4a4a"/>
  <path id="path1024" d="m22.853 10.883c0.06606 0.3303 0.08808 0.50646 0.1835 1.0937 0.30094 0.12478 0.5505 0.17616 0.9175 0.17616 1.1597 0 2.0992-0.79272 2.0992-1.7763 0-0.38902-0.15414-0.68996-0.44774-0.88814-0.1835-0.11744-0.33764-0.16148-0.66794-0.19818 0.57252-0.2936 0.82208-0.6239 0.82208-1.0716 0-0.60188-0.55784-1.0349-1.3285-1.0349-0.4037 0-0.6973 0.08808-1.123 0.3303l-0.22754 1.1304h0.2569c0.13946-0.50646 0.41104-0.74134 0.86612-0.74134s0.74134 0.24956 0.74134 0.6606c0 0.46976-0.3303 0.7707-0.82942 0.7707h-0.2569l-0.13946 0.54316 0.05138 0.0367c0.15414-0.04405 0.27892-0.05872 0.44774-0.05872 0.56518 0 0.92484 0.35966 0.92484 0.91016 0 0.57252-0.37434 0.97622-0.91016 0.97622-0.2569 0-0.50646-0.09542-0.6973-0.2569-0.17616-0.15414-0.27158-0.30828-0.43306-0.66794z" fill="#4a4a4a"/>
  <path id="path1026" d="m15.848 19.353v0.27158c0.42572-0.0073 0.8074-0.01469 1.0276-0.01469 0.21286-0.0073 0.37434-0.0073 0.46242-0.0073 0.09542 0 0.26424 0 0.50646 0.0073 0.1101 0 0.43306 0.0073 0.79272 0.01469v-0.27158l-0.45508-0.02202c-0.28626-0.02202-0.41838-0.12478-0.41838-0.34498v-2.3635c0-0.57986 0.02202-1.1157 0.0734-1.8644l-0.08808-0.0734c-0.89548 0.35232-1.7396 0.63858-2.1947 0.74134 0 0.1835 0.02936 0.32296 0.10276 0.5138l1.0276-0.4771c0.01468-0.0073 0.02936-0.0073 0.0367-0.0073 0.05872 0.0073 0.0734 0.05873 0.0734 0.27892v3.2516c0 0.2202-0.13212 0.32296-0.41838 0.34498z" fill="#4a4a4a"/>
  <path id="path1028" d="m23.335 15.58 1.057-0.02202c0.0734 0 0.42572 0.0073 1.0496 0.02202l0.04405-0.08075c-0.0073-0.11744-0.0073-0.22754-0.0073-0.30828 0-0.16148 0.01469-0.24956 0.05138-0.41104l-0.02936-0.05873-1.2992 0.04403c-0.66794-0.01469-0.82208-0.02202-1.2478-0.04403l-0.05138 0.05873c0.02935 0.49912 0.04405 0.74134 0.04405 0.99824v0.74868c0 0.16882-0.0073 0.31562-0.04405 0.91016l0.13946 0.08073c0.24956-0.20552 0.49178-0.2936 0.82208-0.2936 0.59454 0 0.97622 0.39636 0.97622 1.0129 0 0.60922-0.367 0.99824-0.93218 0.99824-0.50646 0-0.88814-0.28626-1.1377-0.85144l-0.2202 0.13212c0.13946 0.56518 0.1835 0.74868 0.22754 0.98356 0.26424 0.11744 0.49912 0.16148 0.82942 0.16148 1.1744 0 2.0992-0.82209 2.0992-1.8644 0-0.81474-0.55784-1.3285-1.446-1.3285-0.32296 0-0.53582 0.05873-0.9542 0.24956z" fill="#4a4a4a"/>
  <path id="path918" d="m16.95 30.484c2.764-0.99278 4.0404-2.7161 3.9484-5.569-0.07175-2.2252 1.7508-4.1006 3.7601-4.0527 2.8354 0.06763 4.974-1.6109 5.7131-3.7999-0.02106 7.9096-6.627 13.438-13.422 13.422z" fill="url(#radialGradient930)" stroke-linecap="round" stroke-linejoin="round" stroke-width="2.6877"/>
 </g>
</svg>
