<?xml version="1.0" encoding="UTF-8"?>
<svg id="svg6" width="128" height="128" version="1.1" viewBox="0 0 33.867 33.867" xmlns="http://www.w3.org/2000/svg" xmlns:xlink="http://www.w3.org/1999/xlink">
 <defs id="defs2">
  <linearGradient id="linearGradient1427" x1="12.32" x2="12.32" y1="30.477" y2="12.795" gradientUnits="userSpaceOnUse">
   <stop id="stop1421" stop-color="#72553c" offset="0"/>
   <stop id="stop1423" stop-color="#a56e34" offset="1"/>
  </linearGradient>
  <linearGradient id="linearGradient3023" x1="2.396" x2="2.396" y1="5.512" y2="43.39" gradientUnits="userSpaceOnUse">
   <stop id="stop3017" stop-color="#f3f5fc" stop-opacity=".99608" offset="0"/>
   <stop id="stop3019" stop-color="#1a95e8" offset="1"/>
  </linearGradient>
  <linearGradient id="linearGradient3099" x1="11.185" x2="11.185" y1="4.14" y2="15.072" gradientUnits="userSpaceOnUse">
   <stop id="stop3093" stop-color="#e44620" offset="0"/>
   <stop id="stop3095" stop-color="#a92749" stop-opacity=".99608" offset="1"/>
  </linearGradient>
  <linearGradient id="linearGradient3315" x1="11.185" x2="11.185" y1="4.14" y2="15.072" gradientTransform="translate(6.432 3.438)" gradientUnits="userSpaceOnUse">
   <stop id="stop3336" stop-color="#06a6dd" stop-opacity=".99655" offset="0"/>
   <stop id="stop3338" stop-color="#274aa9" stop-opacity=".99608" offset="1"/>
  </linearGradient>
 </defs>
 <g id="layer1">
  <g id="g1702" transform="translate(-65.748 -37.203) scale(.97573)" fill="none" opacity=".295" stroke="#000" stroke-linecap="round" stroke-linejoin="round" stroke-opacity=".02">
   <rect id="rect1634" x="69.84" y="40.71" width="29.811" height="29.811" rx="6.61" ry="6.61" stroke-width=".1"/>
   <rect id="rect1638" x="69.84" y="40.71" width="29.811" height="29.811" rx="6.61" ry="6.61" stroke-width=".2"/>
   <rect id="rect1640" x="69.84" y="40.71" width="29.811" height="29.811" rx="6.61" ry="6.61" stroke-width=".3"/>
   <rect id="rect1642" x="69.84" y="40.71" width="29.811" height="29.811" rx="6.61" ry="6.61" stroke-width=".4"/>
   <rect id="rect1644" x="69.84" y="40.71" width="29.811" height="29.811" rx="6.61" ry="6.61" stroke-width=".5"/>
   <rect id="rect1646" x="69.84" y="40.71" width="29.811" height="29.811" rx="6.61" ry="6.61" stroke-width=".6"/>
   <rect id="rect1648" x="69.84" y="40.71" width="29.811" height="29.811" rx="6.61" ry="6.61" stroke-width=".7"/>
   <rect id="rect1650" x="69.84" y="40.71" width="29.811" height="29.811" rx="6.61" ry="6.61" stroke-width=".8"/>
   <rect id="rect1652" x="69.84" y="40.71" width="29.811" height="29.811" rx="6.61" ry="6.61"/>
   <rect id="rect1654" x="69.84" y="40.71" width="29.811" height="29.811" rx="6.61" ry="6.61" stroke-width="1.2"/>
   <rect id="rect1656" x="69.84" y="40.71" width="29.811" height="29.811" rx="6.61" ry="6.61" stroke-width="1.4"/>
   <rect id="rect1658" x="69.84" y="40.71" width="29.811" height="29.811" rx="6.61" ry="6.61" stroke-width="1.6"/>
   <rect id="rect1660" x="69.84" y="40.71" width="29.811" height="29.811" rx="6.61" ry="6.61" stroke-width="1.8"/>
   <rect id="rect1662" x="69.84" y="40.71" width="29.811" height="29.811" rx="6.61" ry="6.61" stroke-width="2"/>
   <rect id="rect1664" x="69.84" y="40.71" width="29.811" height="29.811" rx="6.61" ry="6.61" stroke-width="2.2"/>
   <rect id="rect1666" x="69.84" y="40.71" width="29.811" height="29.811" rx="6.61" ry="6.61" stroke-width="2.6"/>
   <rect id="rect1668" x="69.84" y="40.71" width="29.811" height="29.811" rx="6.61" ry="6.61" stroke-width="3"/>
   <rect id="rect1670" x="69.84" y="40.71" width="29.811" height="29.811" rx="6.61" ry="6.61" stroke-width="3.4"/>
   <rect id="rect1672" x="69.84" y="40.71" width="29.811" height="29.811" rx="6.61" ry="6.61" stroke-width="3.8"/>
   <rect id="rect1674" x="69.84" y="40.71" width="29.811" height="29.811" rx="6.61" ry="6.61" stroke-width="4.2"/>
   <rect id="rect1676" x="69.84" y="40.71" width="29.811" height="29.811" rx="6.61" ry="6.61" stroke-width="4.6"/>
   <rect id="rect1678" x="69.84" y="40.71" width="29.811" height="29.811" rx="6.61" ry="6.61" stroke-width="5"/>
  </g>
  <rect id="rect849" x="2.396" y="2.519" width="29.087" height="29.087" rx="6.449" ry="6.449" fill="url(#linearGradient3023)" stroke-linecap="round" stroke-linejoin="round" stroke-width="2.688"/>
  <g id="g1561" transform="translate(0 7.724)">
   <path id="path1557" d="M-.054 15.686h42.007" fill="none" stroke-width=".5"/>
  </g>
  <rect id="rect3047" x="7.08" y="3.54" width="11.756" height="18.757" rx="1.832" ry="1.832" fill="url(#linearGradient3099)" stroke-linecap="round" stroke-linejoin="round" stroke-width="1.2"/>
  <rect id="rect3313" x="13.513" y="6.978" width="13.774" height="18.817" rx="1.832" ry="1.832" fill="url(#linearGradient3315)" stroke-linecap="round" stroke-linejoin="round" stroke-width="1.2"/>
  <path id="rect1342" d="M31.484 13.015v12.142a6.435 6.435 0 0 1-6.45 6.449H8.846a6.435 6.435 0 0 1-6.45-6.45v-12.14z" fill="url(#linearGradient1427)" stroke-linecap="round" stroke-linejoin="round" stroke-width="2.688"/>
  <rect id="rect3463" x="3.457" y="13.757" width="3.12" height=".78" rx=".39" ry=".39" fill="#fff" stroke-linecap="round" stroke-linejoin="round" stroke-width="1.2"/>
  <rect id="rect3545" x="7.332" y="13.757" width="3.12" height=".78" rx=".39" ry=".39" fill="#fff" stroke-linecap="round" stroke-linejoin="round" stroke-width="1.2"/>
  <rect id="rect3547" x="11.208" y="13.757" width="3.12" height=".78" rx=".39" ry=".39" fill="#fff" stroke-linecap="round" stroke-linejoin="round" stroke-width="1.2"/>
  <rect id="rect3549" x="15.083" y="13.757" width="3.12" height=".78" rx=".39" ry=".39" fill="#fff" stroke-linecap="round" stroke-linejoin="round" stroke-width="1.2"/>
  <rect id="rect4016" x="18.959" y="13.757" width="3.12" height=".78" rx=".39" ry=".39" fill="#fff" stroke-linecap="round" stroke-linejoin="round" stroke-width="1.2"/>
  <rect id="rect4018" x="22.834" y="13.757" width="3.12" height=".78" rx=".39" ry=".39" fill="#fff" stroke-linecap="round" stroke-linejoin="round" stroke-width="1.2"/>
  <rect id="rect4020" x="26.71" y="13.757" width="3.12" height=".78" rx=".39" ry=".39" fill="#fff" stroke-linecap="round" stroke-linejoin="round" stroke-width="1.2"/>
 </g>
 <style id="style15307">.B{clip-path:url(#C)}.C{fill:#3e2723}.D{fill-opacity:.15}.E{fill-opacity:.2}</style>
</svg>
