<?xml version="1.0" encoding="UTF-8"?>
<svg id="svg6" width="128" height="128" version="1.1" viewBox="0 0 33.867 33.867" xmlns="http://www.w3.org/2000/svg" xmlns:cc="http://creativecommons.org/ns#" xmlns:dc="http://purl.org/dc/elements/1.1/" xmlns:rdf="http://www.w3.org/1999/02/22-rdf-syntax-ns#" xmlns:xlink="http://www.w3.org/1999/xlink">
 <metadata id="metadata252">
  <rdf:RDF>
   <cc:Work rdf:about="">
    <dc:format>image/svg+xml</dc:format>
    <dc:type rdf:resource="http://purl.org/dc/dcmitype/StillImage"/>
   </cc:Work>
  </rdf:RDF>
 </metadata>
 <defs id="defs2">
  <linearGradient id="linearGradient14855" x1="15.132" x2="15.132" y1="27.778" y2="4.734" gradientUnits="userSpaceOnUse">
   <stop id="stop14849" stop-color="#489af4" offset="0"/>
   <stop id="stop14851" stop-color="#316ff8" offset="1"/>
  </linearGradient>
 </defs>
 <g id="layer1">
  <g id="g1702" transform="matrix(.97573 0 0 .97573 -65.748 -37.203)" fill="none" opacity=".29676" stroke="#000" stroke-linecap="round" stroke-linejoin="round" stroke-opacity=".02">
   <path id="rect1634" d="m76.449 40.71h16.591c3.6619 0 6.6099 2.948 6.6099 6.6099v16.591c0 3.6619-2.948 6.6099-6.6099 6.6099h-16.591c-3.6619 0-6.6099-2.948-6.6099-6.6099v-16.591c0-3.6619 2.948-6.6099 6.6099-6.6099z" stroke-width=".1"/>
   <path id="rect1638" d="m76.449 40.71h16.591c3.6619 0 6.6099 2.948 6.6099 6.6099v16.591c0 3.6619-2.948 6.6099-6.6099 6.6099h-16.591c-3.6619 0-6.6099-2.948-6.6099-6.6099v-16.591c0-3.6619 2.948-6.6099 6.6099-6.6099z" stroke-width=".2"/>
   <path id="rect1640" d="m76.449 40.71h16.591c3.6619 0 6.6099 2.948 6.6099 6.6099v16.591c0 3.6619-2.948 6.6099-6.6099 6.6099h-16.591c-3.6619 0-6.6099-2.948-6.6099-6.6099v-16.591c0-3.6619 2.948-6.6099 6.6099-6.6099z" stroke-width=".3"/>
   <path id="rect1642" d="m76.449 40.71h16.591c3.6619 0 6.6099 2.948 6.6099 6.6099v16.591c0 3.6619-2.948 6.6099-6.6099 6.6099h-16.591c-3.6619 0-6.6099-2.948-6.6099-6.6099v-16.591c0-3.6619 2.948-6.6099 6.6099-6.6099z" stroke-width=".4"/>
   <path id="rect1644" d="m76.449 40.71h16.591c3.6619 0 6.6099 2.948 6.6099 6.6099v16.591c0 3.6619-2.948 6.6099-6.6099 6.6099h-16.591c-3.6619 0-6.6099-2.948-6.6099-6.6099v-16.591c0-3.6619 2.948-6.6099 6.6099-6.6099z" stroke-width=".5"/>
   <path id="rect1646" d="m76.449 40.71h16.591c3.6619 0 6.6099 2.948 6.6099 6.6099v16.591c0 3.6619-2.948 6.6099-6.6099 6.6099h-16.591c-3.6619 0-6.6099-2.948-6.6099-6.6099v-16.591c0-3.6619 2.948-6.6099 6.6099-6.6099z" stroke-width=".6"/>
   <path id="rect1648" d="m76.449 40.71h16.591c3.6619 0 6.6099 2.948 6.6099 6.6099v16.591c0 3.6619-2.948 6.6099-6.6099 6.6099h-16.591c-3.6619 0-6.6099-2.948-6.6099-6.6099v-16.591c0-3.6619 2.948-6.6099 6.6099-6.6099z" stroke-width=".7"/>
   <path id="rect1650" d="m76.449 40.71h16.591c3.6619 0 6.6099 2.948 6.6099 6.6099v16.591c0 3.6619-2.948 6.6099-6.6099 6.6099h-16.591c-3.6619 0-6.6099-2.948-6.6099-6.6099v-16.591c0-3.6619 2.948-6.6099 6.6099-6.6099z" stroke-width=".8"/>
   <path id="rect1652" d="m76.449 40.71h16.591c3.6619 0 6.6099 2.948 6.6099 6.6099v16.591c0 3.6619-2.948 6.6099-6.6099 6.6099h-16.591c-3.6619 0-6.6099-2.948-6.6099-6.6099v-16.591c0-3.6619 2.948-6.6099 6.6099-6.6099z"/>
   <path id="rect1654" d="m76.449 40.71h16.591c3.6619 0 6.6099 2.948 6.6099 6.6099v16.591c0 3.6619-2.948 6.6099-6.6099 6.6099h-16.591c-3.6619 0-6.6099-2.948-6.6099-6.6099v-16.591c0-3.6619 2.948-6.6099 6.6099-6.6099z" stroke-width="1.2"/>
   <path id="rect1656" d="m76.449 40.71h16.591c3.6619 0 6.6099 2.948 6.6099 6.6099v16.591c0 3.6619-2.948 6.6099-6.6099 6.6099h-16.591c-3.6619 0-6.6099-2.948-6.6099-6.6099v-16.591c0-3.6619 2.948-6.6099 6.6099-6.6099z" stroke-width="1.4"/>
   <path id="rect1658" d="m76.449 40.71h16.591c3.6619 0 6.6099 2.948 6.6099 6.6099v16.591c0 3.6619-2.948 6.6099-6.6099 6.6099h-16.591c-3.6619 0-6.6099-2.948-6.6099-6.6099v-16.591c0-3.6619 2.948-6.6099 6.6099-6.6099z" stroke-width="1.6"/>
   <path id="rect1660" d="m76.449 40.71h16.591c3.6619 0 6.6099 2.948 6.6099 6.6099v16.591c0 3.6619-2.948 6.6099-6.6099 6.6099h-16.591c-3.6619 0-6.6099-2.948-6.6099-6.6099v-16.591c0-3.6619 2.948-6.6099 6.6099-6.6099z" stroke-width="1.8"/>
   <path id="rect1662" d="m76.449 40.71h16.591c3.6619 0 6.6099 2.948 6.6099 6.6099v16.591c0 3.6619-2.948 6.6099-6.6099 6.6099h-16.591c-3.6619 0-6.6099-2.948-6.6099-6.6099v-16.591c0-3.6619 2.948-6.6099 6.6099-6.6099z" stroke-width="2"/>
   <path id="rect1664" d="m76.449 40.71h16.591c3.6619 0 6.6099 2.948 6.6099 6.6099v16.591c0 3.6619-2.948 6.6099-6.6099 6.6099h-16.591c-3.6619 0-6.6099-2.948-6.6099-6.6099v-16.591c0-3.6619 2.948-6.6099 6.6099-6.6099z" stroke-width="2.2"/>
   <path id="rect1666" d="m76.449 40.71h16.591c3.6619 0 6.6099 2.948 6.6099 6.6099v16.591c0 3.6619-2.948 6.6099-6.6099 6.6099h-16.591c-3.6619 0-6.6099-2.948-6.6099-6.6099v-16.591c0-3.6619 2.948-6.6099 6.6099-6.6099z" stroke-width="2.6"/>
   <path id="rect1668" d="m76.449 40.71h16.591c3.6619 0 6.6099 2.948 6.6099 6.6099v16.591c0 3.6619-2.948 6.6099-6.6099 6.6099h-16.591c-3.6619 0-6.6099-2.948-6.6099-6.6099v-16.591c0-3.6619 2.948-6.6099 6.6099-6.6099z" stroke-width="3"/>
   <path id="rect1670" d="m76.449 40.71h16.591c3.6619 0 6.6099 2.948 6.6099 6.6099v16.591c0 3.6619-2.948 6.6099-6.6099 6.6099h-16.591c-3.6619 0-6.6099-2.948-6.6099-6.6099v-16.591c0-3.6619 2.948-6.6099 6.6099-6.6099z" stroke-width="3.4"/>
   <path id="rect1672" d="m76.449 40.71h16.591c3.6619 0 6.6099 2.948 6.6099 6.6099v16.591c0 3.6619-2.948 6.6099-6.6099 6.6099h-16.591c-3.6619 0-6.6099-2.948-6.6099-6.6099v-16.591c0-3.6619 2.948-6.6099 6.6099-6.6099z" stroke-width="3.8"/>
   <path id="rect1674" d="m76.449 40.71h16.591c3.6619 0 6.6099 2.948 6.6099 6.6099v16.591c0 3.6619-2.948 6.6099-6.6099 6.6099h-16.591c-3.6619 0-6.6099-2.948-6.6099-6.6099v-16.591c0-3.6619 2.948-6.6099 6.6099-6.6099z" stroke-width="4.2"/>
   <path id="rect1676" d="m76.449 40.71h16.591c3.6619 0 6.6099 2.948 6.6099 6.6099v16.591c0 3.6619-2.948 6.6099-6.6099 6.6099h-16.591c-3.6619 0-6.6099-2.948-6.6099-6.6099v-16.591c0-3.6619 2.948-6.6099 6.6099-6.6099z" stroke-width="4.6"/>
   <path id="rect1678" d="m76.449 40.71h16.591c3.6619 0 6.6099 2.948 6.6099 6.6099v16.591c0 3.6619-2.948 6.6099-6.6099 6.6099h-16.591c-3.6619 0-6.6099-2.948-6.6099-6.6099v-16.591c0-3.6619 2.948-6.6099 6.6099-6.6099z" stroke-width="5"/>
  </g>
  <rect id="rect849" x="2.4065" y="2.5186" width="29.087" height="29.087" rx="6.4495" ry="6.4495" fill="url(#linearGradient14855)" stroke-linecap="round" stroke-linejoin="round" stroke-width="2.6877"/>
  <path id="path8" d="m17.546 7.6734-0.95617 0.76143-0.98398-0.72537-0.72536 0.98192-1.1396-0.44511-0.44717 1.1375-1.2148-0.13704-0.13704 1.2148-1.2086 0.18339 0.18134 1.2107-1.121 0.48838 0.49045 1.121-0.95616 0.76143 0.76143 0.95616-0.72536 0.98398 0.98192 0.72537-0.44511 1.1396 1.1375 0.44717-0.13704 1.2148 1.2148 0.13704 0.18339 1.2086 1.2107-0.18134 0.48838 1.121 1.121-0.49045 0.76143 0.95616 0.95616-0.76143 0.98398 0.72536 0.72536-0.98192 1.1396 0.44511 0.44717-1.1375 1.2148 0.13704 0.13704-1.2148 1.2086-0.1834-0.18134-1.2107 1.121-0.48839-0.49045-1.121 0.95616-0.76143-0.76143-0.95616 0.72536-0.98398-0.98192-0.72536 0.44511-1.1396-1.1375-0.44717 0.13704-1.2148-1.2148-0.13704-0.18339-1.2086-1.2107 0.18134-0.48838-1.121-1.121 0.49045zm-0.83252 3.6928a3.6928 3.6928 0 0 1 3.6928 3.6928 3.6928 3.6928 0 0 1-3.6928 3.6928 3.6928 3.6928 0 0 1-3.6928-3.6928 3.6928 3.6928 0 0 1 3.6928-3.6928zm-3.6536 10.412-0.03916 0.0062v6.7797l3.6928-2.954 3.6928 2.954v-6.3975l-0.30189 0.76761-1.2993-0.50796-0.8284 1.121-1.122-0.8284-1.0901 0.86962-0.86858-1.0901-1.2797 0.55845z" opacity=".2" stroke-width=".52754"/>
  <path id="path10" d="m17.546 7.1456-0.95617 0.76143-0.98398-0.72537-0.72536 0.98192-1.1396-0.44511-0.44717 1.1375-1.2148-0.13704-0.13704 1.2148-1.2086 0.18339 0.18134 1.2107-1.121 0.48839 0.49045 1.121-0.95616 0.76143 0.76143 0.95616-0.72536 0.98398 0.98192 0.72537-0.44511 1.1396 1.1375 0.44717-0.13704 1.2148 1.2148 0.13704 0.18339 1.2086 1.2107-0.18134 0.48838 1.121 1.121-0.49045 0.76143 0.95616 0.95616-0.76143 0.98398 0.72537 0.72536-0.98192 1.1396 0.44511 0.44717-1.1375 1.2148 0.13704 0.13704-1.2148 1.2086-0.18339-0.18134-1.2107 1.121-0.48839-0.49045-1.121 0.95616-0.76143-0.76143-0.95616 0.72536-0.98398-0.98192-0.72537 0.44511-1.1396-1.1375-0.44717 0.13704-1.2148-1.2148-0.13704-0.18339-1.2086-1.2107 0.18134-0.48838-1.121-1.121 0.49045zm-0.83252 3.6928a3.6928 3.6928 0 0 1 3.6928 3.6928 3.6928 3.6928 0 0 1-3.6928 3.6928 3.6928 3.6928 0 0 1-3.6928-3.6928 3.6928 3.6928 0 0 1 3.6928-3.6928zm-3.6536 10.412-0.03916 0.0062v6.7797l3.6928-2.954 3.6928 2.954v-6.3974l-0.30189 0.76761-1.2993-0.50796-0.8284 1.121-1.122-0.8284-1.0901 0.86962-0.86858-1.0901-1.2797 0.55845z" fill="#fff" stroke-width=".52754"/>
 </g>
 <style id="style15307"><![CDATA[.B{clip-path:url(#C)}.C{fill:#3e2723}.D{fill-opacity:.15}.E{fill-opacity:.2}]]></style>
</svg>
