<?xml version="1.0" encoding="UTF-8"?>
<svg id="svg6" width="128" height="128" version="1.1" viewBox="0 0 33.867 33.867" xmlns="http://www.w3.org/2000/svg" xmlns:cc="http://creativecommons.org/ns#" xmlns:dc="http://purl.org/dc/elements/1.1/" xmlns:rdf="http://www.w3.org/1999/02/22-rdf-syntax-ns#" xmlns:xlink="http://www.w3.org/1999/xlink">
 <metadata id="metadata252">
  <rdf:RDF>
   <cc:Work rdf:about="">
    <dc:format>image/svg+xml</dc:format>
    <dc:type rdf:resource="http://purl.org/dc/dcmitype/StillImage"/>
   </cc:Work>
  </rdf:RDF>
 </metadata>
 <defs id="defs2">
  <linearGradient id="linearGradient14855" x1="15.132" x2="15.132" y1="27.778" y2="4.734" gradientUnits="userSpaceOnUse">
   <stop id="stop14849" stop-color="#489af4" offset="0"/>
   <stop id="stop14851" stop-color="#316ff8" offset="1"/>
  </linearGradient>
 </defs>
 <g id="layer1">
  <g id="g1702" transform="matrix(.97573 0 0 .97573 -65.748 -37.203)" fill="none" opacity=".29676" stroke="#000" stroke-linecap="round" stroke-linejoin="round" stroke-opacity=".02">
   <path id="rect1634" d="m76.449 40.71h16.591c3.6619 0 6.6099 2.948 6.6099 6.6099v16.591c0 3.6619-2.948 6.6099-6.6099 6.6099h-16.591c-3.6619 0-6.6099-2.948-6.6099-6.6099v-16.591c0-3.6619 2.948-6.6099 6.6099-6.6099z" stroke-width=".1"/>
   <path id="rect1638" d="m76.449 40.71h16.591c3.6619 0 6.6099 2.948 6.6099 6.6099v16.591c0 3.6619-2.948 6.6099-6.6099 6.6099h-16.591c-3.6619 0-6.6099-2.948-6.6099-6.6099v-16.591c0-3.6619 2.948-6.6099 6.6099-6.6099z" stroke-width=".2"/>
   <path id="rect1640" d="m76.449 40.71h16.591c3.6619 0 6.6099 2.948 6.6099 6.6099v16.591c0 3.6619-2.948 6.6099-6.6099 6.6099h-16.591c-3.6619 0-6.6099-2.948-6.6099-6.6099v-16.591c0-3.6619 2.948-6.6099 6.6099-6.6099z" stroke-width=".3"/>
   <path id="rect1642" d="m76.449 40.71h16.591c3.6619 0 6.6099 2.948 6.6099 6.6099v16.591c0 3.6619-2.948 6.6099-6.6099 6.6099h-16.591c-3.6619 0-6.6099-2.948-6.6099-6.6099v-16.591c0-3.6619 2.948-6.6099 6.6099-6.6099z" stroke-width=".4"/>
   <path id="rect1644" d="m76.449 40.71h16.591c3.6619 0 6.6099 2.948 6.6099 6.6099v16.591c0 3.6619-2.948 6.6099-6.6099 6.6099h-16.591c-3.6619 0-6.6099-2.948-6.6099-6.6099v-16.591c0-3.6619 2.948-6.6099 6.6099-6.6099z" stroke-width=".5"/>
   <path id="rect1646" d="m76.449 40.71h16.591c3.6619 0 6.6099 2.948 6.6099 6.6099v16.591c0 3.6619-2.948 6.6099-6.6099 6.6099h-16.591c-3.6619 0-6.6099-2.948-6.6099-6.6099v-16.591c0-3.6619 2.948-6.6099 6.6099-6.6099z" stroke-width=".6"/>
   <path id="rect1648" d="m76.449 40.71h16.591c3.6619 0 6.6099 2.948 6.6099 6.6099v16.591c0 3.6619-2.948 6.6099-6.6099 6.6099h-16.591c-3.6619 0-6.6099-2.948-6.6099-6.6099v-16.591c0-3.6619 2.948-6.6099 6.6099-6.6099z" stroke-width=".7"/>
   <path id="rect1650" d="m76.449 40.71h16.591c3.6619 0 6.6099 2.948 6.6099 6.6099v16.591c0 3.6619-2.948 6.6099-6.6099 6.6099h-16.591c-3.6619 0-6.6099-2.948-6.6099-6.6099v-16.591c0-3.6619 2.948-6.6099 6.6099-6.6099z" stroke-width=".8"/>
   <path id="rect1652" d="m76.449 40.71h16.591c3.6619 0 6.6099 2.948 6.6099 6.6099v16.591c0 3.6619-2.948 6.6099-6.6099 6.6099h-16.591c-3.6619 0-6.6099-2.948-6.6099-6.6099v-16.591c0-3.6619 2.948-6.6099 6.6099-6.6099z"/>
   <path id="rect1654" d="m76.449 40.71h16.591c3.6619 0 6.6099 2.948 6.6099 6.6099v16.591c0 3.6619-2.948 6.6099-6.6099 6.6099h-16.591c-3.6619 0-6.6099-2.948-6.6099-6.6099v-16.591c0-3.6619 2.948-6.6099 6.6099-6.6099z" stroke-width="1.2"/>
   <path id="rect1656" d="m76.449 40.71h16.591c3.6619 0 6.6099 2.948 6.6099 6.6099v16.591c0 3.6619-2.948 6.6099-6.6099 6.6099h-16.591c-3.6619 0-6.6099-2.948-6.6099-6.6099v-16.591c0-3.6619 2.948-6.6099 6.6099-6.6099z" stroke-width="1.4"/>
   <path id="rect1658" d="m76.449 40.71h16.591c3.6619 0 6.6099 2.948 6.6099 6.6099v16.591c0 3.6619-2.948 6.6099-6.6099 6.6099h-16.591c-3.6619 0-6.6099-2.948-6.6099-6.6099v-16.591c0-3.6619 2.948-6.6099 6.6099-6.6099z" stroke-width="1.6"/>
   <path id="rect1660" d="m76.449 40.71h16.591c3.6619 0 6.6099 2.948 6.6099 6.6099v16.591c0 3.6619-2.948 6.6099-6.6099 6.6099h-16.591c-3.6619 0-6.6099-2.948-6.6099-6.6099v-16.591c0-3.6619 2.948-6.6099 6.6099-6.6099z" stroke-width="1.8"/>
   <path id="rect1662" d="m76.449 40.71h16.591c3.6619 0 6.6099 2.948 6.6099 6.6099v16.591c0 3.6619-2.948 6.6099-6.6099 6.6099h-16.591c-3.6619 0-6.6099-2.948-6.6099-6.6099v-16.591c0-3.6619 2.948-6.6099 6.6099-6.6099z" stroke-width="2"/>
   <path id="rect1664" d="m76.449 40.71h16.591c3.6619 0 6.6099 2.948 6.6099 6.6099v16.591c0 3.6619-2.948 6.6099-6.6099 6.6099h-16.591c-3.6619 0-6.6099-2.948-6.6099-6.6099v-16.591c0-3.6619 2.948-6.6099 6.6099-6.6099z" stroke-width="2.2"/>
   <path id="rect1666" d="m76.449 40.71h16.591c3.6619 0 6.6099 2.948 6.6099 6.6099v16.591c0 3.6619-2.948 6.6099-6.6099 6.6099h-16.591c-3.6619 0-6.6099-2.948-6.6099-6.6099v-16.591c0-3.6619 2.948-6.6099 6.6099-6.6099z" stroke-width="2.6"/>
   <path id="rect1668" d="m76.449 40.71h16.591c3.6619 0 6.6099 2.948 6.6099 6.6099v16.591c0 3.6619-2.948 6.6099-6.6099 6.6099h-16.591c-3.6619 0-6.6099-2.948-6.6099-6.6099v-16.591c0-3.6619 2.948-6.6099 6.6099-6.6099z" stroke-width="3"/>
   <path id="rect1670" d="m76.449 40.71h16.591c3.6619 0 6.6099 2.948 6.6099 6.6099v16.591c0 3.6619-2.948 6.6099-6.6099 6.6099h-16.591c-3.6619 0-6.6099-2.948-6.6099-6.6099v-16.591c0-3.6619 2.948-6.6099 6.6099-6.6099z" stroke-width="3.4"/>
   <path id="rect1672" d="m76.449 40.71h16.591c3.6619 0 6.6099 2.948 6.6099 6.6099v16.591c0 3.6619-2.948 6.6099-6.6099 6.6099h-16.591c-3.6619 0-6.6099-2.948-6.6099-6.6099v-16.591c0-3.6619 2.948-6.6099 6.6099-6.6099z" stroke-width="3.8"/>
   <path id="rect1674" d="m76.449 40.71h16.591c3.6619 0 6.6099 2.948 6.6099 6.6099v16.591c0 3.6619-2.948 6.6099-6.6099 6.6099h-16.591c-3.6619 0-6.6099-2.948-6.6099-6.6099v-16.591c0-3.6619 2.948-6.6099 6.6099-6.6099z" stroke-width="4.2"/>
   <path id="rect1676" d="m76.449 40.71h16.591c3.6619 0 6.6099 2.948 6.6099 6.6099v16.591c0 3.6619-2.948 6.6099-6.6099 6.6099h-16.591c-3.6619 0-6.6099-2.948-6.6099-6.6099v-16.591c0-3.6619 2.948-6.6099 6.6099-6.6099z" stroke-width="4.6"/>
   <path id="rect1678" d="m76.449 40.71h16.591c3.6619 0 6.6099 2.948 6.6099 6.6099v16.591c0 3.6619-2.948 6.6099-6.6099 6.6099h-16.591c-3.6619 0-6.6099-2.948-6.6099-6.6099v-16.591c0-3.6619 2.948-6.6099 6.6099-6.6099z" stroke-width="5"/>
  </g>
  <rect id="rect849" x="2.4065" y="2.5186" width="29.087" height="29.087" rx="6.4495" ry="6.4495" fill="url(#linearGradient14855)" stroke-linecap="round" stroke-linejoin="round" stroke-width="2.6877"/>
  <path id="path8" d="m16.567 7.2981c-0.02609-4.987e-4 -0.05118 0.00472-0.0736 0.016435-1.2573 0.79923-3.0205 1.9116-3.4552 3.2733-0.13594 0.4509-0.07581 0.61776-0.0017 0.98121 0.12293 0.43731 0.37979 1.0106 0.66573 1.487 0.18521 0.3086 0.79523 1.1229 0.84122 1.1229 0.84494-0.55463 1.6779-1.7101 2.3581-2.4042v-1.8187c0-1.9732-0.02006-2.3629-0.12906-2.5239-0.04101-0.080779-0.12725-0.13281-0.20549-0.13407zm-3.8605 3.9284c-0.04447 0.0011-0.11446 0.17425-0.15566 0.38522-0.10689 0.54705-0.58272 2.4952-0.79424 3.2528-0.17172 0.61503-0.23252 1.2755-0.13303 1.442 0.07373 0.12338 1.3242 0.59108 3.1135 1.1645 0.86826 0.27824 1.0054 0.2727 1.1803-0.04509 0.26644-0.48416 0.3079-0.40013-1.3637-2.761-1.3195-1.8635-1.4945-2.1786-1.6739-3.0121-0.05069-0.23552-0.12874-0.42721-0.17321-0.4262zm9.1192 0.057c-0.06287-0.0013-0.13702 0.0023-0.21455 0.01171-0.5361 0.06391-2.4743 0.19758-3.2364 0.22364-0.61866 0.02114-1.3169 0.16568-1.4393 0.31498-0.09066 0.11063-0.06274 1.9993-0.0371 3.9364 0.01247 0.93998 0.06017 1.0731 0.40646 1.1469 0.52757 0.11246 0.46324-0.03497 2.1178-2.4087 1.306-1.8736 1.5414-2.4431 2.2525-2.8772 0.20093-0.12264 0.3532-0.25865 0.33853-0.3021-0.0093-0.02715-0.08316-0.04339-0.18795-0.04566zm0.87801 0.17446c-0.45666 0.0057-0.59159 0.1163-0.90292 0.3015-0.36417 0.25605-0.81243 0.98566-1.1622 1.4141-0.22654 0.27753-0.78636 1.1292-0.77215 1.1744 0.77114 0.65967 1.64 1.566 2.4886 2.0205l2.1455-0.72127c1.8146-0.60976 2.1665-0.9643 2.2808-1.1213 0.0616-0.06531 0.08303-0.16621 0.06002-0.24354-0.0077-0.02577-0.02014-0.04893-0.03793-0.06733-1.1235-0.98967-2.7132-2.7504-4.0997-2.7571zm-15.547 3.4516c-0.04215 0-0.07464 0.0049-0.10303 0.01398-0.08696 0.0153-0.16148 0.08443-0.18682 0.16099-0.0085 0.02554-0.0119 0.05159-0.0079 0.07728 0.34646 1.4836 0.80234 3.6322 1.9202 4.4805 0.37264 0.27303 0.54465 0.2656 0.90179 0.30502 0.44015 0.01417 1.0467-0.06153 1.5732-0.19555 0.34102-0.08681 1.2788-0.43483 1.293-0.48006-0.24895-1.0025-0.55914-2.0906-0.98727-2.9741l-2.1455-0.72064c-1.531-0.51447-2.03-0.66697-2.2576-0.66741zm15.125 1.5157c-0.25377-0.0011-1.4804 0.37065-3.143 0.95546-0.86058 0.3027-0.96809 0.39065-0.92897 0.75406 0.0596 0.55366-0.02161 0.51068 2.6725 1.4045 2.1266 0.70553 2.4471 0.85445 3.066 1.4197 0.17488 0.15973 0.3467 0.2673 0.38212 0.23945 0.03542-0.02785-0.0062-0.21057-0.09283-0.4063-0.22445-0.50755-0.9469-2.3731-1.2064-3.1146-0.21063-0.60197-0.53648-1.1728-0.71158-1.247-0.0081-0.0036-0.02103-0.0051-0.03793-0.0053zm-6.7586 2.2288c-0.31352-6.99e-4 -0.93014 0.21451-2.5259 0.75756-2.1214 0.72194-2.4654 0.79654-3.2873 0.71542-0.23225-0.02293-0.43269-0.0055-0.44552 0.03863-0.01285 0.04406 0.12498 0.16651 0.30626 0.27224 0.47005 0.27418 2.1142 1.8588 2.7456 2.301 0.51253 0.35896 1.1012 0.62308 1.285 0.57667 0.13624-0.0344 0.95264-1.6345 2.0328-3.2172 0.52418-0.76802 0.56144-0.90478 0.32325-1.175-0.14743-0.16724-0.21968-0.26877-0.4342-0.2693zm2.0555 0.67267c-0.0645 0.0021-0.13177 0.02554-0.21229 0.06323-0.49074 0.22972-0.47647 0.13638-0.4659 3.0625 0.0083 2.3097-0.02919 2.6714-0.35777 3.4547-0.09285 0.22136-0.13902 0.4234-0.10247 0.44963 0.03655 0.02624 0.19208-0.07099 0.34533-0.21662 0.39738-0.3776 1.8891-1.6649 2.4908-2.1492 0.48849-0.39318 0.91313-0.89027 0.92726-1.0854 0.01039-0.14463-0.73511-1.2832-1.8568-2.8347-0.40822-0.56468-0.5747-0.75024-0.76819-0.74412zm3.5941 0.59774c-3e-3 5.01e-4 -0.0049 8.01e-4 -0.0062 0.0018-0.36835 0.96233-0.7358 2.0312-0.8916 3.0063l1.3258 1.8875c1.1215 1.5963 1.3595 1.8991 1.5392 1.963 0.07908 0.04043 0.17828 0.03015 0.24229-0.01644 0.02135-0.01549 0.03895-0.03478 0.05038-0.05796 0.56293-1.4109 1.4152-3.4261 0.99293-4.7919-0.14631-0.44742-0.28995-0.54605-0.55648-0.79504-0.34799-0.27906-0.88144-0.58635-1.3835-0.79797-0.31507-0.13279-1.2225-0.40768-1.3128-0.39928zm-6.0804 3.3882c-0.51698 0.0026-1.0272 0.03193-1.4996 0.10596l-1.3264 1.3728c-1.1215 1.5963-1.3265 1.924-1.3298 2.1205-0.01266 0.09028 0.02743 0.18444 0.09002 0.23302 0.02086 0.01625 0.04423 0.02752 0.06905 0.0316 1.4714 0.11769 3.5878 0.33328 4.7133-0.50408 0.36624-0.28216 0.41269-0.4542 0.55931-0.79329 0.14909-0.42851 0.2668-1.0484 0.30626-1.6076 0.02554-0.36224-0.0053-0.87701-0.04245-0.90497-0.4994-0.03246-1.0228-0.05645-1.5398-0.05386z" opacity=".2" stroke-width=".49983"/>
  <path id="path10" d="m16.567 6.7982c-0.02609-5.006e-4 -0.05118 0.00472-0.0736 0.016435-1.2573 0.79923-3.0205 1.9116-3.4552 3.2733-0.13594 0.4509-0.07581 0.61776-0.0017 0.98121 0.12293 0.43731 0.37979 1.0106 0.66573 1.487 0.18521 0.30859 0.79523 1.1229 0.84122 1.1229 0.84494-0.55463 1.6779-1.7101 2.3581-2.4042v-1.8186c0-1.9732-0.02006-2.3629-0.12906-2.5239-0.04101-0.080798-0.12725-0.13281-0.20549-0.13407zm-3.8605 3.9284c-0.04447 0.0011-0.11446 0.17425-0.15566 0.38522-0.10689 0.54705-0.58272 2.4952-0.79424 3.2528-0.17172 0.61503-0.23252 1.2755-0.13303 1.442 0.07373 0.12338 1.3242 0.59108 3.1135 1.1645 0.86826 0.27824 1.0054 0.2727 1.1803-0.04509 0.26644-0.48416 0.3079-0.40013-1.3637-2.761-1.3195-1.8635-1.4945-2.1786-1.6739-3.0121-0.05069-0.23552-0.12874-0.42721-0.17321-0.4262zm9.1192 0.057c-0.06287-0.0013-0.13702 0.0023-0.21455 0.01171-0.5361 0.06391-2.4743 0.19757-3.2364 0.22364-0.61866 0.02114-1.3169 0.16568-1.4393 0.31498-0.09066 0.11063-0.06274 1.9993-0.0371 3.9364 0.01247 0.93998 0.06017 1.0731 0.40646 1.1469 0.52757 0.11246 0.46324-0.03497 2.1178-2.4087 1.306-1.8736 1.5414-2.4431 2.2525-2.8772 0.20093-0.12264 0.3532-0.25865 0.33853-0.30209-0.0093-0.02715-0.08316-0.04339-0.18795-0.04566zm0.87801 0.17446c-0.45666 0.0057-0.59159 0.11629-0.90292 0.3015-0.36417 0.25605-0.81243 0.98565-1.1622 1.4141-0.22654 0.27753-0.78636 1.1292-0.77215 1.1744 0.77114 0.65967 1.64 1.566 2.4886 2.0205l2.1455-0.72127c1.8146-0.60976 2.1665-0.96431 2.2808-1.1213 0.0616-0.06531 0.08303-0.16621 0.06002-0.24354-0.0077-0.02577-0.02014-0.04893-0.03793-0.06733-1.1235-0.98967-2.7132-2.7504-4.0997-2.7571zm-15.547 3.4516c-0.04215 0-0.07464 0.0049-0.10303 0.01398-0.08696 0.0153-0.16148 0.08443-0.18682 0.16099-0.0085 0.02554-0.0119 0.05159-0.0079 0.07728 0.34646 1.4836 0.80234 3.6322 1.9202 4.4805 0.37264 0.27303 0.54465 0.2656 0.90179 0.30502 0.44015 0.01417 1.0467-0.06151 1.5732-0.19554 0.34102-0.08681 1.2788-0.43483 1.293-0.48006-0.24899-1.0025-0.55918-2.0906-0.98731-2.9741l-2.1455-0.72069c-1.531-0.51447-2.03-0.66697-2.2576-0.6674zm15.125 1.5157c-0.25377-0.0011-1.4804 0.37065-3.143 0.95546-0.86058 0.3027-0.96809 0.39065-0.92897 0.75406 0.0596 0.55366-0.02161 0.51067 2.6725 1.4045 2.1266 0.70553 2.4471 0.85445 3.066 1.4197 0.17488 0.15973 0.3467 0.2673 0.38212 0.23945 0.03542-0.02785-0.0062-0.21057-0.09283-0.4063-0.22445-0.50755-0.9469-2.3731-1.2064-3.1146-0.21063-0.60197-0.53648-1.1728-0.71158-1.247-0.0081-0.0036-0.02103-0.0051-0.03793-0.0053zm-6.7586 2.2288c-0.31352-6.99e-4 -0.93014 0.21451-2.5259 0.75756-2.1214 0.72194-2.4654 0.79654-3.2873 0.71542-0.23225-0.02293-0.43269-0.0055-0.44552 0.03863-0.01285 0.04406 0.12498 0.16651 0.30626 0.27224 0.47005 0.27418 2.1142 1.8588 2.7456 2.301 0.51253 0.35896 1.1012 0.62308 1.285 0.57667 0.13624-0.0344 0.95264-1.6345 2.0328-3.2172 0.52418-0.76802 0.56144-0.90478 0.32325-1.175-0.14743-0.16724-0.21968-0.26877-0.4342-0.2693zm2.0555 0.67267c-0.0645 0.0021-0.13177 0.02554-0.21229 0.06323-0.49074 0.22972-0.47647 0.13638-0.4659 3.0625 0.0083 2.3097-0.02919 2.6714-0.35777 3.4547-0.09285 0.22136-0.13902 0.4234-0.10247 0.44963 0.03655 0.02624 0.19208-0.07099 0.34533-0.21662 0.39738-0.3776 1.8891-1.6649 2.4908-2.1492 0.48849-0.39318 0.91313-0.89027 0.92726-1.0854 0.01039-0.14463-0.73511-1.2832-1.8568-2.8348-0.40822-0.56468-0.5747-0.75024-0.76819-0.74412zm3.5941 0.59774c-3e-3 4.99e-4 -0.0049 7.99e-4 -0.0062 0.0018-0.36835 0.96233-0.7358 2.0312-0.8916 3.0063l1.3258 1.8875c1.1215 1.5963 1.3595 1.8991 1.5392 1.963 0.07908 0.04043 0.17828 0.03015 0.24229-0.01644 0.02135-0.01549 0.03895-0.03478 0.05038-0.05796 0.56293-1.4109 1.4152-3.4261 0.99293-4.7919-0.14631-0.44742-0.28995-0.54605-0.55648-0.79504-0.34799-0.27907-0.88144-0.58636-1.3835-0.79797-0.31507-0.13279-1.2225-0.40768-1.3128-0.39928zm-6.0804 3.3882c-0.51698 0.0026-1.0272 0.03193-1.4996 0.10596l-1.3264 1.3728c-1.1215 1.5963-1.3265 1.924-1.3298 2.1205-0.01266 0.09028 0.02743 0.18444 0.09002 0.23301 0.02086 0.01625 0.04423 0.02753 0.06905 0.03161 1.4714 0.11769 3.5878 0.33328 4.7133-0.50408 0.36624-0.28216 0.41269-0.4542 0.55931-0.79329 0.14909-0.42851 0.2668-1.0484 0.30626-1.6076 0.02554-0.36224-0.0053-0.87701-0.04245-0.90497-0.4994-0.03245-1.0228-0.05645-1.5398-0.05386z" fill="#fff" stroke-width=".49983"/>
 </g>
 <style id="style15307"><![CDATA[.B{clip-path:url(#C)}.C{fill:#3e2723}.D{fill-opacity:.15}.E{fill-opacity:.2}]]></style>
</svg>
