<?xml version="1.0" encoding="UTF-8"?>
<svg id="svg3043" width="128" height="128" version="1.1" viewBox="0 0 33.867 33.867" xmlns="http://www.w3.org/2000/svg" xmlns:cc="http://creativecommons.org/ns#" xmlns:dc="http://purl.org/dc/elements/1.1/" xmlns:rdf="http://www.w3.org/1999/02/22-rdf-syntax-ns#" xmlns:xlink="http://www.w3.org/1999/xlink">
 <defs id="defs3037">
  <linearGradient id="linearGradient1940" x1="16.938" x2="16.938" y1="5.6268" y2="30.152" gradientTransform="translate(.079761 .026062)" gradientUnits="userSpaceOnUse">
   <stop id="stop1934" stop-color="#a2acb0" offset="0"/>
   <stop id="stop1936" stop-color="#9cabb7" offset="1"/>
  </linearGradient>
  <linearGradient id="linearGradient2997" x1="17.751" x2="17.751" y1="4.2904" y2="28.983" gradientTransform="translate(.079761 .026062)" gradientUnits="userSpaceOnUse">
   <stop id="stop2991" stop-color="#bbbfc3" offset="0"/>
   <stop id="stop2993" stop-color="#f1f3f6" stop-opacity=".94091" offset="1"/>
  </linearGradient>
  <radialGradient id="radialGradient3068" cx="16.994" cy="4.3084" r="6.5794" gradientTransform="matrix(1 0 0 2.4364 .079761 -6.1625)" gradientUnits="userSpaceOnUse" xlink:href="#linearGradient3066"/>
  <linearGradient id="linearGradient3066">
   <stop id="stop3062" offset="0"/>
   <stop id="stop3064" stop-opacity="0" offset="1"/>
  </linearGradient>
  <radialGradient id="radialGradient3036" cx="16.993" cy="1.5573" r="19.382" gradientTransform="matrix(.74478 0 0 .31597 3.9996 3.8321)" gradientUnits="userSpaceOnUse">
   <stop id="stop3029" stop-color="#c12b2b" offset="0"/>
   <stop id="stop3031" stop-color="#c12b2b" stop-opacity="0" offset="1"/>
  </radialGradient>
  <linearGradient id="linearGradient2977" x1="103.3" x2="103.3" y1="33.303" y2="61.044" gradientTransform="translate(-34.261 2.3011)" gradientUnits="userSpaceOnUse" xlink:href="#linearGradient961"/>
  <linearGradient id="linearGradient961">
   <stop id="stop957" stop-color="#eee" offset="0"/>
   <stop id="stop967" stop-color="#cacaca" offset=".46788"/>
   <stop id="stop969" stop-color="#b3b3b3" offset=".50475"/>
   <stop id="stop971" stop-color="#b0b0b0" offset=".57848"/>
   <stop id="stop959" stop-color="#454646" offset="1"/>
  </linearGradient>
  <linearGradient id="linearGradient2979" x1="100.34" x2="100.34" y1="56.953" y2="35.604" gradientTransform="translate(-34.261 2.3011)" gradientUnits="userSpaceOnUse" xlink:href="#linearGradient953"/>
  <linearGradient id="linearGradient953">
   <stop id="stop949" stop-color="#484847" offset="0"/>
   <stop id="stop951" stop-color="#828280" offset="1"/>
  </linearGradient>
  <linearGradient id="linearGradient2981" x1="98.436" x2="67.627" y1="50.305" y2="50.305" gradientUnits="userSpaceOnUse" xlink:href="#linearGradient3066"/>
  <linearGradient id="linearGradient2983" x1="13.907" x2="20.312" y1="33.066" y2="57.654" gradientTransform="translate(-63.418 -9.8837)" gradientUnits="userSpaceOnUse" xlink:href="#linearGradient823"/>
  <linearGradient id="linearGradient823">
   <stop id="stop819" stop-color="#b32418" stop-opacity=".99608" offset="0"/>
   <stop id="stop827" stop-color="#d42b1d" offset=".086665"/>
   <stop id="stop821" stop-color="#c72318" offset="1"/>
  </linearGradient>
  <linearGradient id="linearGradient2985" x1="15.715" x2="19.408" y1="78.625" y2="42.829" gradientTransform="translate(-63.418 -9.8837)" gradientUnits="userSpaceOnUse" xlink:href="#linearGradient841"/>
  <linearGradient id="linearGradient841">
   <stop id="stop835" stop-color="#46120e" offset="0"/>
   <stop id="stop837" stop-color="#8b150d" offset=".31078"/>
   <stop id="stop839" stop-color="#c72318" stop-opacity="0" offset="1"/>
  </linearGradient>
  <linearGradient id="linearGradient2987" x1="-31.29" x2="-11.868" y1="56.027" y2="56.027" gradientTransform="translate(-63.418 -9.8837)" gradientUnits="userSpaceOnUse" xlink:href="#linearGradient851"/>
  <linearGradient id="linearGradient851">
   <stop id="stop847" stop-color="#46120e" offset="0"/>
   <stop id="stop849" stop-color="#46120e" stop-opacity="0" offset="1"/>
  </linearGradient>
  <radialGradient id="radialGradient871" cx="3.512" cy="47.23" r="12.017" gradientTransform="matrix(2.5424 4.9277e-8 -2.8668e-8 1.4791 -60.842 -28.344)" gradientUnits="userSpaceOnUse" xlink:href="#linearGradient867"/>
  <linearGradient id="linearGradient867">
   <stop id="stop863" stop-color="#b52117" stop-opacity=".11818" offset="0"/>
   <stop id="stop873" stop-color="#b22117" stop-opacity="0" offset=".81971"/>
   <stop id="stop865" stop-color="#841810" offset="1"/>
  </linearGradient>
  <linearGradient id="linearGradient2989" x1="-.15503" x2="-26.654" y1="45.781" y2="42.527" gradientUnits="userSpaceOnUse" xlink:href="#linearGradient851"/>
  <linearGradient id="linearGradient4978" x1="535.64" x2="535.64" y1="161.77" y2="200.46" gradientTransform="matrix(.10616 0 0 .10616 -39.592 -.80954)" gradientUnits="userSpaceOnUse">
   <stop id="stop4972" stop-color="#0d0d0d" offset="0"/>
   <stop id="stop4974" stop-color="#2c2c2c" stop-opacity="0" offset="1"/>
  </linearGradient>
  <linearGradient id="linearGradient1067" x1="353.61" x2="353.61" y1="34.476" y2="194.3" gradientTransform="matrix(.10616 0 0 .10616 -20.64 -2.6298)" gradientUnits="userSpaceOnUse">
   <stop id="stop1061-6" stop-color="#c3c3c3" stop-opacity=".99608" offset="0"/>
   <stop id="stop1069" stop-color="#c4c4c4" offset=".042199"/>
   <stop id="stop1071" stop-color="#999" offset=".085185"/>
   <stop id="stop1073" stop-color="#9f9f9f" offset=".13948"/>
   <stop id="stop1087" stop-color="#dedede" offset=".20057"/>
   <stop id="stop1075-7" stop-color="#e9e9e9" offset=".22966"/>
   <stop id="stop1085" stop-color="#bebdbd" offset=".27544"/>
   <stop id="stop1077-5" stop-color="#888686" offset=".30917"/>
   <stop id="stop1079" stop-color="#545353" offset=".45623"/>
   <stop id="stop1081" stop-color="#4e4e4e" offset=".53541"/>
   <stop id="stop1083" stop-color="#a1a1a1" offset=".85668"/>
   <stop id="stop1063-3" stop-color="#737373" offset="1"/>
  </linearGradient>
  <clipPath id="clip6">
   <rect id="rect171" width="128" height="128"/>
  </clipPath>
  <linearGradient id="linearGradient2346" x1="300" x2="428" y1="235" y2="235" gradientTransform="matrix(0 .37 -.98462 0 291.75 -44.101)" gradientUnits="userSpaceOnUse">
   <stop id="stop166" stop-color="#f9ef6b" offset="0"/>
   <stop id="stop168" stop-color="#f5c211" offset="1"/>
  </linearGradient>
 </defs>
 <metadata id="metadata3040">
  <rdf:RDF>
   <cc:Work rdf:about="">
    <dc:format>image/svg+xml</dc:format>
    <dc:type rdf:resource="http://purl.org/dc/dcmitype/StillImage"/>
    <dc:title/>
   </cc:Work>
  </rdf:RDF>
 </metadata>
 <g id="layer1">
  <g id="g1702" transform="matrix(.97573 0 0 .97573 -65.669 -37.177)" fill="none" opacity=".29676" stroke="#000" stroke-linecap="round" stroke-linejoin="round" stroke-opacity=".02">
   <rect id="rect1634" x="69.84" y="40.71" width="29.811" height="29.811" rx="6.6099" ry="6.6099" stroke-width=".1"/>
   <rect id="rect1638" x="69.84" y="40.71" width="29.811" height="29.811" rx="6.6099" ry="6.6099" stroke-width=".2"/>
   <rect id="rect1640" x="69.84" y="40.71" width="29.811" height="29.811" rx="6.6099" ry="6.6099" stroke-width=".3"/>
   <rect id="rect1642" x="69.84" y="40.71" width="29.811" height="29.811" rx="6.6099" ry="6.6099" stroke-width=".4"/>
   <rect id="rect1644" x="69.84" y="40.71" width="29.811" height="29.811" rx="6.6099" ry="6.6099" stroke-width=".5"/>
   <rect id="rect1646" x="69.84" y="40.71" width="29.811" height="29.811" rx="6.6099" ry="6.6099" stroke-width=".6"/>
   <rect id="rect1648" x="69.84" y="40.71" width="29.811" height="29.811" rx="6.6099" ry="6.6099" stroke-width=".7"/>
   <rect id="rect1650" x="69.84" y="40.71" width="29.811" height="29.811" rx="6.6099" ry="6.6099" stroke-width=".8"/>
   <rect id="rect1652" x="69.84" y="40.71" width="29.811" height="29.811" rx="6.6099" ry="6.6099"/>
   <rect id="rect1654" x="69.84" y="40.71" width="29.811" height="29.811" rx="6.6099" ry="6.6099" stroke-width="1.2"/>
   <rect id="rect1656" x="69.84" y="40.71" width="29.811" height="29.811" rx="6.6099" ry="6.6099" stroke-width="1.4"/>
   <rect id="rect1658" x="69.84" y="40.71" width="29.811" height="29.811" rx="6.6099" ry="6.6099" stroke-width="1.6"/>
   <rect id="rect1660" x="69.84" y="40.71" width="29.811" height="29.811" rx="6.6099" ry="6.6099" stroke-width="1.8"/>
   <rect id="rect1662" x="69.84" y="40.71" width="29.811" height="29.811" rx="6.6099" ry="6.6099" stroke-width="2"/>
   <rect id="rect1664" x="69.84" y="40.71" width="29.811" height="29.811" rx="6.6099" ry="6.6099" stroke-width="2.2"/>
   <rect id="rect1666" x="69.84" y="40.71" width="29.811" height="29.811" rx="6.6099" ry="6.6099" stroke-width="2.6"/>
   <rect id="rect1668" x="69.84" y="40.71" width="29.811" height="29.811" rx="6.6099" ry="6.6099" stroke-width="3"/>
   <rect id="rect1670" x="69.84" y="40.71" width="29.811" height="29.811" rx="6.6099" ry="6.6099" stroke-width="3.4"/>
   <rect id="rect1672" x="69.84" y="40.71" width="29.811" height="29.811" rx="6.6099" ry="6.6099" stroke-width="3.8"/>
   <rect id="rect1674" x="69.84" y="40.71" width="29.811" height="29.811" rx="6.6099" ry="6.6099" stroke-width="4.2"/>
   <rect id="rect1676" x="69.84" y="40.71" width="29.811" height="29.811" rx="6.6099" ry="6.6099" stroke-width="4.6"/>
   <rect id="rect1678" x="69.84" y="40.71" width="29.811" height="29.811" rx="6.6099" ry="6.6099" stroke-width="5"/>
  </g>
  <rect id="rect849" x="2.476" y="2.5446" width="29.087" height="29.087" rx="6.4495" ry="6.4495" fill="url(#linearGradient1940)" stroke-linecap="round" stroke-linejoin="round" stroke-width="2.6877"/>
  <rect id="rect2807-7" x="3.8627" y="3.9456" width="26.314" height="26.285" rx="5.567" ry="5.567" fill="url(#linearGradient2997)" stroke-width="1.775"/>
  <g id="use2336" transform="matrix(.26458 0 0 .26458 -.96288 -3.6356)" clip-path="url(#clip6)" opacity=".9">
   <path id="path2340" transform="translate(3.6392 13.741)" d="m14.6 66.9v26.318c0 11.656 9.3826 21.041 21.039 21.041h57.375c11.656 0 21.041-9.3846 21.041-21.041v-26.318h-99.455z" fill="url(#linearGradient2346)"/>
   <path id="path2342" transform="translate(3.6392 13.741)" d="m14.6 66.9v4.9297l42.426 42.43h21.215l-47.359-47.359h-16.281zm37.492 0 46.59 46.586c5.1014-1.4148 9.3969-4.7014 12.143-9.0723l-37.518-37.514h-21.215zm42.43 0 19.533 19.533v-19.533h-19.533zm-79.922 26.145v0.17383c0 11.656 9.3826 21.041 21.039 21.041h0.17578l-21.215-21.215z"/>
  </g>
  <path id="path4959" d="m17.03 7.153c-0.15734 0-0.31465 0.0617-0.44312 0.18475l-4.5089 4.3187c-0.49763 0.47668-0.35085 0.92157 0 0.93204h1.7758v9.8548h-1.7758c-0.35085 0.01048-0.49763 0.45536 0 0.93204l4.5089 4.3187c0.12847 0.12306 0.28577 0.18475 0.44312 0.18475s0.31464-0.0617 0.44311-0.18475l4.5086-4.3187c0.49764-0.47668 0.35086-0.92156 0-0.93204h-1.7757v-9.8548h1.7757c0.35086-0.01048 0.49764-0.45536 0-0.93204l-4.5086-4.3187c-0.12847-0.12306-0.28576-0.18475-0.44311-0.18475z" fill="#fff" stroke="#fff" stroke-linecap="round" stroke-linejoin="round" stroke-opacity=".35454" stroke-width=".63698"/>
  <path id="rect4940" d="m17.03 7.153c-0.15734 0-0.31465 0.0617-0.44312 0.18475l-4.5089 4.3187c-0.49763 0.47668-0.35085 0.92157 0 0.93204h1.7758v9.8548h-1.7758c-0.35085 0.01048-0.49763 0.45536 0 0.93204l4.5089 4.3187c0.12847 0.12306 0.28577 0.18475 0.44312 0.18475s0.31464-0.0617 0.44311-0.18475l4.5086-4.3187c0.49764-0.47668 0.35086-0.92156 0-0.93204h-1.7757v-9.8548h1.7757c0.35086-0.01048 0.49764-0.45536 0-0.93204l-4.5086-4.3187c-0.12847-0.12306-0.28576-0.18475-0.44311-0.18475z" fill="#484848"/>
  <path id="path3060" d="m10.539 2.5448a6.5794 16.03 0 0 0-0.044441 1.7896 6.5794 16.03 0 0 0 6.5789 16.03 6.5794 16.03 0 0 0 6.5794-16.03 6.5794 16.03 0 0 0-0.048576-1.7896z" fill="url(#radialGradient3068)" opacity=".735"/>
  <path id="path4952" d="m17.03 7.1529c-0.15735 0-0.31464 0.06169-0.44311 0.18475l-4.5089 4.3187c-0.49763 0.47668-0.35085 0.92156 0 0.93204h1.7758v9.8548h-1.7758c-0.35085 0.01048-0.49763 0.45536 0 0.93204l4.5089 4.3187c0.12847 0.12306 0.28576 0.18475 0.44311 0.18475 0.15734 0 0.31464-0.0617 0.44311-0.18475l4.5086-4.3187c0.49764-0.47668 0.35086-0.92156 0-0.93204h-1.7758v-9.8548h1.7758c0.35086-0.01048 0.49764-0.45536 0-0.93204l-4.5086-4.3187c-0.12847-0.12306-0.28576-0.18475-0.44311-0.18475zm0 0.863 3.9426 3.7763h-0.76658a0.79631 0.79631 0 0 0-0.79623 0.79623v9.8548a0.79631 0.79631 0 0 0 0.79623 0.79623h0.76658l-3.9426 3.7763-3.9426-3.7763h0.76637a0.79631 0.79631 0 0 0 0.79623-0.79623v-9.8548a0.79631 0.79631 0 0 0-0.79623-0.79623h-0.76637z" color="#000000" color-rendering="auto" dominant-baseline="auto" fill-opacity=".12844" image-rendering="auto" shape-rendering="auto" solid-color="#000000" style="font-feature-settings:normal;font-variant-alternates:normal;font-variant-caps:normal;font-variant-ligatures:normal;font-variant-numeric:normal;font-variant-position:normal;isolation:auto;mix-blend-mode:normal;shape-padding:0;text-decoration-color:#000000;text-decoration-line:none;text-decoration-style:solid;text-indent:0;text-orientation:mixed;text-transform:none;white-space:normal"/>
  <path id="path3027" d="m8.9257 2.5448c-3.573 0-6.4497 2.8762-6.4497 6.4492v1.4779a24.564 6.2073 0 0 0 14.28 1.1632 24.564 6.2073 0 0 0 14.807-1.2614v-1.3798c0-3.573-2.8767-6.4492-6.4497-6.4492z" fill="url(#radialGradient3036)" opacity=".747"/>
  <g id="g1111" transform="matrix(.10616 0 0 .10616 -39.592 -.80954)">
   <g id="g997" transform="translate(362.31)">
    <g id="g985" transform="translate(-.51135 -.51135)">
     <path id="rect946" d="m58.934 41.056 15.98-7.0419c0.98086-0.43224 1.9176 0.90597 1.9176 2.0313v25.459c0 1.1254-0.92584 2.4347-1.9176 2.0313l-15.98-6.5002c-0.99173-0.40341-1.9176-0.90597-1.9176-2.0313v-11.917c0-1.1254 0.93672-1.5991 1.9176-2.0313z" fill="url(#linearGradient2977)" stroke="url(#linearGradient2979)" stroke-linecap="round" stroke-linejoin="round"/>
     <path id="path973-56" d="m58.934 41.056 15.98-7.0419c0.98086-0.43224 1.9176 0.90597 1.9176 2.0313v25.459c0 1.1254-0.92584 2.4347-1.9176 2.0313l-15.98-6.5002c-0.99173-0.40341-1.9176-0.90597-1.9176-2.0313v-11.917c0-1.1254 0.93672-1.5991 1.9176-2.0313z" fill="url(#linearGradient2981)" opacity=".654"/>
    </g>
    <g id="g944" transform="translate(152.55 1.5987)">
     <path id="path843" d="m-16.643 74.14c-19.733-0.8446-39.643-4.5861-59.227-10.692-2.5826-0.85766-4.9247-2.0506-5.3957-5.2879-0.77591-7.6776-0.7966-17.273-0.12784-24.95 0.3196-2.486 2.9839-3.4498 5.2523-4.1657 20-6.1449 40.722-10.484 63.589-10.897z" fill="#c72418"/>
     <path id="path817" d="m-16.643 74.14c-19.733-0.8446-39.643-4.5861-59.227-10.692-2.5826-0.85766-4.9247-2.0506-5.3957-5.2879-0.77591-7.6776-0.7966-17.273-0.12784-24.95 0.3196-2.486 2.9839-3.4498 5.2523-4.1657 20-6.1449 40.722-10.484 63.589-10.897z" fill="url(#linearGradient2983)"/>
     <path id="path829" d="m-16.643 74.14c-19.733-0.8446-39.643-4.5861-59.227-10.692-2.5826-0.85766-4.9247-2.0506-5.3957-5.2879-0.77591-7.6776-0.7966-17.273-0.12784-24.95 0.3196-2.486 2.9839-3.4498 5.2523-4.1657 20-6.1449 40.722-10.484 63.589-10.897z" fill="url(#linearGradient2985)"/>
     <path id="path845" d="m-16.643 74.14c-19.733-0.8446-39.643-4.5861-59.227-10.692-2.5826-0.85766-4.9247-2.0506-5.3957-5.2879-0.77591-7.6776-0.7966-17.273-0.12784-24.95 0.3196-2.486 2.9839-3.4498 5.2523-4.1657 20-6.1449 40.722-10.484 63.589-10.897z" fill="url(#linearGradient2987)"/>
     <path id="path861" d="m-67.578 26.548c-2.8706 0.79304-5.7251 1.6243-8.5625 2.4961-2.2684 0.71594-4.9324 1.68-5.252 4.166-0.33645 3.8626-0.4975 8.2097-0.47656 12.555a12.017 12.017 0 0 0 6.4336 1.8828 12.017 12.017 0 0 0 12.018-12.016 12.017 12.017 0 0 0-4.1602-9.084z" fill="url(#radialGradient871)" opacity=".392"/>
     <path id="path928" d="m-16.643 74.14c-19.733-0.8446-39.643-4.5861-59.227-10.692-2.5826-0.85766-4.9247-2.0506-5.3957-5.2879-0.77591-7.6776-0.7966-17.273-0.12784-24.95 0.3196-2.486 2.9839-3.4498 5.2523-4.1657 20-6.1449 40.722-10.484 63.589-10.897z" fill="url(#linearGradient2989)" opacity=".315"/>
    </g>
   </g>
   <g id="g1019" transform="matrix(-1 0 0 1 703.28 2.6323e-7)">
    <g id="g1003" transform="translate(-.51135 -.51135)">
     <path id="path999" d="m58.934 41.056 15.98-7.0419c0.98086-0.43224 1.9176 0.90597 1.9176 2.0313v25.459c0 1.1254-0.92584 2.4347-1.9176 2.0313l-15.98-6.5002c-0.99173-0.40341-1.9176-0.90597-1.9176-2.0313v-11.917c0-1.1254 0.93672-1.5991 1.9176-2.0313z" fill="url(#linearGradient2977)" stroke="url(#linearGradient2979)" stroke-linecap="round" stroke-linejoin="round"/>
     <path id="path1001" d="m58.934 41.056 15.98-7.0419c0.98086-0.43224 1.9176 0.90597 1.9176 2.0313v25.459c0 1.1254-0.92584 2.4347-1.9176 2.0313l-15.98-6.5002c-0.99173-0.40341-1.9176-0.90597-1.9176-2.0313v-11.917c0-1.1254 0.93672-1.5991 1.9176-2.0313z" fill="url(#linearGradient2981)" opacity=".654"/>
    </g>
    <g id="g1017" transform="translate(152.55 1.5987)">
     <path id="path1005" d="m-16.643 74.14c-19.733-0.8446-39.643-4.5861-59.227-10.692-2.5826-0.85766-4.9247-2.0506-5.3957-5.2879-0.77591-7.6776-0.7966-17.273-0.12784-24.95 0.3196-2.486 2.9839-3.4498 5.2523-4.1657 20-6.1449 40.722-10.484 63.589-10.897z" fill="#c72418"/>
     <path id="path1007" d="m-16.643 74.14c-19.733-0.8446-39.643-4.5861-59.227-10.692-2.5826-0.85766-4.9247-2.0506-5.3957-5.2879-0.77591-7.6776-0.7966-17.273-0.12784-24.95 0.3196-2.486 2.9839-3.4498 5.2523-4.1657 20-6.1449 40.722-10.484 63.589-10.897z" fill="url(#linearGradient2983)"/>
     <path id="path1009" d="m-16.643 74.14c-19.733-0.8446-39.643-4.5861-59.227-10.692-2.5826-0.85766-4.9247-2.0506-5.3957-5.2879-0.77591-7.6776-0.7966-17.273-0.12784-24.95 0.3196-2.486 2.9839-3.4498 5.2523-4.1657 20-6.1449 40.722-10.484 63.589-10.897z" fill="url(#linearGradient2985)"/>
     <path id="path1011" d="m-16.643 74.14c-19.733-0.8446-39.643-4.5861-59.227-10.692-2.5826-0.85766-4.9247-2.0506-5.3957-5.2879-0.77591-7.6776-0.7966-17.273-0.12784-24.95 0.3196-2.486 2.9839-3.4498 5.2523-4.1657 20-6.1449 40.722-10.484 63.589-10.897z" fill="url(#linearGradient2987)"/>
     <path id="path1013" d="m-67.578 26.548c-2.8706 0.79304-5.7251 1.6243-8.5625 2.4961-2.2684 0.71594-4.9324 1.68-5.252 4.166-0.33645 3.8626-0.4975 8.2097-0.47656 12.555a12.017 12.017 0 0 0 6.4336 1.8828 12.017 12.017 0 0 0 12.018-12.016 12.017 12.017 0 0 0-4.1602-9.084z" fill="url(#radialGradient871)" opacity=".392"/>
     <path id="path1015" d="m-16.643 74.14c-19.733-0.8446-39.643-4.5861-59.227-10.692-2.5826-0.85766-4.9247-2.0506-5.3957-5.2879-0.77591-7.6776-0.7966-17.273-0.12784-24.95 0.3196-2.486 2.9839-3.4498 5.2523-4.1657 20-6.1449 40.722-10.484 63.589-10.897z" fill="url(#linearGradient2989)" opacity=".315"/>
    </g>
   </g>
  </g>
  <path id="path4969" d="m13.853 15.774v6.6697h-1.7758c-0.35085 0.01048-0.49763 0.45536 0 0.93204l4.5089 4.3187c0.12847 0.12306 0.28576 0.18475 0.44311 0.18475 0.15735 0 0.31464-0.06169 0.44311-0.18475l4.5086-4.3187c0.49764-0.47669 0.35086-0.92156 0-0.93204h-1.7758v-6.6697z" fill="url(#linearGradient4978)"/>
  <path id="path1056" d="m13.898 0.97956c-1.6302 0.55212-0.43012 8.8875-0.10844 14.517v2.0677c0 0.22556 0.18147 0.40703 0.40703 0.40703h5.5373c0.22557 0 0.40724-0.18147 0.40724-0.40703v-1.7372c-0.0403-2.9943 1.8194-14.33-0.2171-14.848z" fill="url(#linearGradient1067)"/>
 </g>
</svg>
