<?xml version="1.0" encoding="UTF-8"?>
<svg width="128" height="128" viewBox="0 0 33.867 33.867" xmlns="http://www.w3.org/2000/svg" xmlns:xlink="http://www.w3.org/1999/xlink">
 <defs>
  <radialGradient id="b" cx="17.31" cy="2.53" r="14.544" gradientTransform="matrix(7.1618 0 0 1.7511 -106.66 -1.9)" gradientUnits="userSpaceOnUse">
   <stop stop-color="#d52aff" offset="0"/>
   <stop stop-color="#c144ff" offset="1"/>
  </radialGradient>
 </defs>
 <g transform="translate(-65.587 -37.192) scale(.97573)" fill="none" opacity=".29676" stroke="#000" stroke-linecap="round" stroke-linejoin="round" stroke-opacity=".02">
  <rect x="69.84" y="40.71" width="29.811" height="29.811" rx="6.61" ry="6.61" stroke-width=".1"/>
  <rect x="69.84" y="40.71" width="29.811" height="29.811" rx="6.61" ry="6.61" stroke-width=".2"/>
  <rect x="69.84" y="40.71" width="29.811" height="29.811" rx="6.61" ry="6.61" stroke-width=".3"/>
  <rect x="69.84" y="40.71" width="29.811" height="29.811" rx="6.61" ry="6.61" stroke-width=".4"/>
  <rect x="69.84" y="40.71" width="29.811" height="29.811" rx="6.61" ry="6.61" stroke-width=".5"/>
  <rect x="69.84" y="40.71" width="29.811" height="29.811" rx="6.61" ry="6.61" stroke-width=".6"/>
  <rect x="69.84" y="40.71" width="29.811" height="29.811" rx="6.61" ry="6.61" stroke-width=".7"/>
  <rect x="69.84" y="40.71" width="29.811" height="29.811" rx="6.61" ry="6.61" stroke-width=".8"/>
  <rect x="69.84" y="40.71" width="29.811" height="29.811" rx="6.61" ry="6.61"/>
  <rect x="69.84" y="40.71" width="29.811" height="29.811" rx="6.61" ry="6.61" stroke-width="1.2"/>
  <rect x="69.84" y="40.71" width="29.811" height="29.811" rx="6.61" ry="6.61" stroke-width="1.4"/>
  <rect x="69.84" y="40.71" width="29.811" height="29.811" rx="6.61" ry="6.61" stroke-width="1.6"/>
  <rect x="69.84" y="40.71" width="29.811" height="29.811" rx="6.61" ry="6.61" stroke-width="1.8"/>
  <rect x="69.84" y="40.71" width="29.811" height="29.811" rx="6.61" ry="6.61" stroke-width="2"/>
  <rect x="69.84" y="40.71" width="29.811" height="29.811" rx="6.61" ry="6.61" stroke-width="2.2"/>
  <rect x="69.84" y="40.71" width="29.811" height="29.811" rx="6.61" ry="6.61" stroke-width="2.6"/>
  <rect x="69.84" y="40.71" width="29.811" height="29.811" rx="6.61" ry="6.61" stroke-width="3"/>
  <rect x="69.84" y="40.71" width="29.811" height="29.811" rx="6.61" ry="6.61" stroke-width="3.4"/>
  <rect x="69.84" y="40.71" width="29.811" height="29.811" rx="6.61" ry="6.61" stroke-width="3.8"/>
  <rect x="69.84" y="40.71" width="29.811" height="29.811" rx="6.61" ry="6.61" stroke-width="4.2"/>
  <rect x="69.84" y="40.71" width="29.811" height="29.811" rx="6.61" ry="6.61" stroke-width="4.6"/>
  <rect x="69.84" y="40.71" width="29.811" height="29.811" rx="6.61" ry="6.61" stroke-width="5"/>
 </g>
 <rect x="2.558" y="2.529" width="29.087" height="29.087" rx="6.449" ry="6.449" fill="url(#b)" stroke-linecap="round" stroke-linejoin="round" stroke-width="2.6877"/>
 <g transform="translate(-75.504 -4.245) scale(.26156)" enable-background="new" fill="#fff">
  <ellipse cx="382" cy="114" rx="5.003" ry="5" enable-background="accumulate" opacity=".5"/>
  <ellipse cx="372" cy="114" rx="5.003" ry="5" enable-background="accumulate" opacity=".5"/>
  <ellipse cx="362" cy="114" rx="5.003" ry="5" enable-background="accumulate" opacity=".5"/>
  <ellipse cx="352" cy="114" rx="5.003" ry="5" enable-background="accumulate"/>
  <ellipse cx="342" cy="114" rx="5.003" ry="5" enable-background="accumulate"/>
  <ellipse cx="332" cy="114" rx="5.003" ry="5" enable-background="accumulate" opacity=".5"/>
  <ellipse cx="322" cy="114" rx="5.003" ry="5" enable-background="accumulate" opacity=".5"/>
  <ellipse cx="382" cy="104" rx="5.003" ry="5" enable-background="accumulate" opacity=".5"/>
  <ellipse cx="372" cy="104" rx="5.003" ry="5" enable-background="accumulate" opacity=".5"/>
  <ellipse cx="362" cy="104" rx="5.003" ry="5" enable-background="accumulate" opacity=".5"/>
  <ellipse cx="352" cy="104" rx="5.003" ry="5" enable-background="accumulate"/>
  <ellipse cx="342" cy="104" rx="5.003" ry="5" enable-background="accumulate" opacity=".5"/>
  <ellipse cx="332" cy="104" rx="5.003" ry="5" enable-background="accumulate" opacity=".5"/>
  <ellipse cx="322" cy="104" rx="5.003" ry="5" enable-background="accumulate" opacity=".5"/>
  <ellipse cx="382" cy="94" rx="5.003" ry="5" enable-background="accumulate" opacity=".5"/>
  <ellipse cx="372" cy="94" rx="5.003" ry="5" enable-background="accumulate" opacity=".5"/>
  <ellipse cx="362" cy="94" rx="5.003" ry="5" enable-background="accumulate" opacity=".5"/>
  <ellipse cx="352" cy="94" rx="5.003" ry="5" enable-background="accumulate"/>
  <ellipse cx="342" cy="94" rx="5.003" ry="5" enable-background="accumulate" opacity=".5"/>
  <ellipse cx="332" cy="94" rx="5.003" ry="5" enable-background="accumulate" opacity=".5"/>
  <ellipse cx="322" cy="94" rx="5.003" ry="5" enable-background="accumulate" opacity=".5"/>
  <ellipse cx="382" cy="84" rx="5.003" ry="5" enable-background="accumulate" opacity=".5"/>
  <ellipse cx="372" cy="84" rx="5.003" ry="5" enable-background="accumulate" opacity=".5"/>
  <ellipse cx="362" cy="84" rx="5.003" ry="5" enable-background="accumulate" opacity=".5"/>
  <ellipse cx="352" cy="84" rx="5.003" ry="5" enable-background="accumulate"/>
  <ellipse cx="342" cy="84" rx="5.003" ry="5" enable-background="accumulate" opacity=".5"/>
  <ellipse cx="332" cy="84" rx="5.003" ry="5" enable-background="accumulate" opacity=".5"/>
  <ellipse cx="322" cy="84" rx="5.003" ry="5" enable-background="accumulate" opacity=".5"/>
  <ellipse cx="382" cy="74" rx="5.003" ry="5" enable-background="accumulate" opacity=".5"/>
  <ellipse cx="372" cy="74" rx="5.003" ry="5" enable-background="accumulate" opacity=".5"/>
  <ellipse cx="362" cy="74" rx="5.003" ry="5" enable-background="accumulate"/>
  <ellipse cx="352" cy="74" rx="5.003" ry="5" enable-background="accumulate"/>
  <ellipse cx="342" cy="74" rx="5.003" ry="5" enable-background="accumulate"/>
  <ellipse cx="332" cy="74" rx="5.003" ry="5" enable-background="accumulate" opacity=".5"/>
  <ellipse cx="322" cy="74" rx="5.003" ry="5" enable-background="accumulate" opacity=".5"/>
  <ellipse cx="382" cy="64" rx="5.003" ry="5" enable-background="accumulate" opacity=".5"/>
  <ellipse cx="372" cy="64" rx="5.003" ry="5" enable-background="accumulate"/>
  <ellipse cx="362" cy="64" rx="5.003" ry="5" enable-background="accumulate" opacity=".5"/>
  <ellipse cx="352" cy="64" rx="5.003" ry="5" enable-background="accumulate" opacity=".5"/>
  <ellipse cx="342" cy="64" rx="5.003" ry="5" enable-background="accumulate" opacity=".5"/>
  <ellipse cx="332" cy="64" rx="5.003" ry="5" enable-background="accumulate"/>
  <ellipse cx="322" cy="64" rx="5.003" ry="5" enable-background="accumulate" opacity=".5"/>
  <ellipse cx="382" cy="54" rx="5.003" ry="5" enable-background="accumulate" opacity=".5"/>
  <ellipse cx="372" cy="54" rx="5.003" ry="5" enable-background="accumulate" opacity=".5"/>
  <ellipse cx="362" cy="54" rx="5.003" ry="5" enable-background="accumulate"/>
  <ellipse cx="352" cy="54" rx="5.003" ry="5" enable-background="accumulate"/>
  <ellipse cx="342" cy="54" rx="5.003" ry="5" enable-background="accumulate"/>
  <ellipse cx="332" cy="54" rx="5.003" ry="5" enable-background="accumulate" opacity=".5"/>
  <ellipse cx="322" cy="54" rx="5.003" ry="5" enable-background="accumulate" opacity=".5"/>
 </g>
</svg>
