<?xml version="1.0" encoding="UTF-8"?>
<svg id="svg1547" width="128" height="128" version="1.1" viewBox="0 0 33.867 33.867" xmlns="http://www.w3.org/2000/svg" xmlns:cc="http://creativecommons.org/ns#" xmlns:dc="http://purl.org/dc/elements/1.1/" xmlns:rdf="http://www.w3.org/1999/02/22-rdf-syntax-ns#" xmlns:xlink="http://www.w3.org/1999/xlink">
 <defs id="defs1541">
  <linearGradient id="linearGradient4677" x1="31.484" x2="2.3963" y1="31.606" y2="2.5186" gradientTransform="translate(-.084583 -.021104)" gradientUnits="userSpaceOnUse">
   <stop id="stop4671" stop-color="#009bff" offset="0"/>
   <stop id="stop3921" stop-color="#5f5f5f" offset=".49389"/>
   <stop id="stop4673" stop-color="#009bff" offset="1"/>
  </linearGradient>
  <linearGradient id="linearGradient1922" x1="31.484" x2="2.3963" y1="2.5186" y2="31.606" gradientTransform="translate(-.084583 -.021104)" gradientUnits="userSpaceOnUse">
   <stop id="stop1916" stop-color="#ff5600" offset="0"/>
   <stop id="stop2913" stop-color="#d83f71" stop-opacity=".012674" offset=".48585"/>
   <stop id="stop1918" stop-color="#b035ff" offset="1"/>
  </linearGradient>
  <linearGradient id="linearGradient1458" x1="17.202" x2="17.202" y1="28.288" y2="6.3047" gradientTransform="translate(-.084585 -.021104)" gradientUnits="userSpaceOnUse">
   <stop id="stop1452" stop-color="#0d0d0d" offset="0"/>
   <stop id="stop1454" stop-color="#3c3c3c" offset="1"/>
  </linearGradient>
  <linearGradient id="linearGradient1466" x1="17.267" x2="17.267" y1="26.283" y2="7.6411" gradientTransform="translate(-.084585 -.021104)" gradientUnits="userSpaceOnUse">
   <stop id="stop1460" stop-color="#343434" offset="0"/>
   <stop id="stop1462" stop-color="#0d0d0d" offset="1"/>
  </linearGradient>
 </defs>
 <metadata id="metadata1544">
  <rdf:RDF>
   <cc:Work rdf:about="">
    <dc:format>image/svg+xml</dc:format>
    <dc:type rdf:resource="http://purl.org/dc/dcmitype/StillImage"/>
   </cc:Work>
  </rdf:RDF>
 </metadata>
 <g id="layer1">
  <g id="g1702" transform="matrix(.97573 0 0 .97573 -65.833 -37.224)" fill="none" opacity=".295" stroke="#000" stroke-linecap="round" stroke-linejoin="round" stroke-opacity=".02">
   <rect id="rect1634" x="69.84" y="40.71" width="29.811" height="29.811" rx="6.6099" ry="6.6099" stroke-width=".1"/>
   <rect id="rect1638" x="69.84" y="40.71" width="29.811" height="29.811" rx="6.6099" ry="6.6099" stroke-width=".2"/>
   <rect id="rect1640" x="69.84" y="40.71" width="29.811" height="29.811" rx="6.6099" ry="6.6099" stroke-width=".3"/>
   <rect id="rect1642" x="69.84" y="40.71" width="29.811" height="29.811" rx="6.6099" ry="6.6099" stroke-width=".4"/>
   <rect id="rect1644" x="69.84" y="40.71" width="29.811" height="29.811" rx="6.6099" ry="6.6099" stroke-width=".5"/>
   <rect id="rect1646" x="69.84" y="40.71" width="29.811" height="29.811" rx="6.6099" ry="6.6099" stroke-width=".6"/>
   <rect id="rect1648" x="69.84" y="40.71" width="29.811" height="29.811" rx="6.6099" ry="6.6099" stroke-width=".7"/>
   <rect id="rect1650" x="69.84" y="40.71" width="29.811" height="29.811" rx="6.6099" ry="6.6099" stroke-width=".8"/>
   <rect id="rect1652" x="69.84" y="40.71" width="29.811" height="29.811" rx="6.6099" ry="6.6099"/>
   <rect id="rect1654" x="69.84" y="40.71" width="29.811" height="29.811" rx="6.6099" ry="6.6099" stroke-width="1.2"/>
   <rect id="rect1656" x="69.84" y="40.71" width="29.811" height="29.811" rx="6.6099" ry="6.6099" stroke-width="1.4"/>
   <rect id="rect1658" x="69.84" y="40.71" width="29.811" height="29.811" rx="6.6099" ry="6.6099" stroke-width="1.6"/>
   <rect id="rect1660" x="69.84" y="40.71" width="29.811" height="29.811" rx="6.6099" ry="6.6099" stroke-width="1.8"/>
   <rect id="rect1662" x="69.84" y="40.71" width="29.811" height="29.811" rx="6.6099" ry="6.6099" stroke-width="2"/>
   <rect id="rect1664" x="69.84" y="40.71" width="29.811" height="29.811" rx="6.6099" ry="6.6099" stroke-width="2.2"/>
   <rect id="rect1666" x="69.84" y="40.71" width="29.811" height="29.811" rx="6.6099" ry="6.6099" stroke-width="2.6"/>
   <rect id="rect1668" x="69.84" y="40.71" width="29.811" height="29.811" rx="6.6099" ry="6.6099" stroke-width="3"/>
   <rect id="rect1670" x="69.84" y="40.71" width="29.811" height="29.811" rx="6.6099" ry="6.6099" stroke-width="3.4"/>
   <rect id="rect1672" x="69.84" y="40.71" width="29.811" height="29.811" rx="6.6099" ry="6.6099" stroke-width="3.8"/>
   <rect id="rect1674" x="69.84" y="40.71" width="29.811" height="29.811" rx="6.6099" ry="6.6099" stroke-width="4.2"/>
   <rect id="rect1676" x="69.84" y="40.71" width="29.811" height="29.811" rx="6.6099" ry="6.6099" stroke-width="4.6"/>
   <rect id="rect1678" x="69.84" y="40.71" width="29.811" height="29.811" rx="6.6099" ry="6.6099" stroke-width="5"/>
  </g>
  <rect id="rect849" x="2.3117" y="2.4975" width="29.087" height="29.087" rx="6.4495" ry="6.4495" fill="url(#linearGradient4677)" stroke-linecap="round" stroke-linejoin="round" stroke-width="2.688"/>
  <rect id="rect1914" x="2.3117" y="2.4975" width="29.087" height="29.087" rx="6.4495" ry="6.4495" fill="url(#linearGradient1922)" stroke-linecap="round" stroke-linejoin="round" stroke-width="2.688"/>
  <rect id="rect1448" x="4.4995" y="5.0597" width="24.712" height="23.963" rx="4.0601" ry="4.0601" fill="url(#linearGradient1458)"/>
  <rect id="rect1450" x="6.8401" y="7.3294" width="20.031" height="19.424" rx="2.6569" ry="2.6569" fill="url(#linearGradient1466)"/>
  <path id="path1879-0" d="m10.162 21.778h5.4284v0.90473h-5.4284z" fill="#fff" stroke-width=".60316"/>
  <g id="g14917" transform="translate(-.93051)" font-family="sans-serif" font-size="8.644px" stroke-width=".23154">
   <text id="text8347-3" transform="scale(.98055 1.0198)" x="16.633274" y="17.156504" style="line-height:1.25" xml:space="preserve"><tspan id="tspan8345-6" x="16.633274" y="17.156504" fill="#ffffff" font-size="8.644px" font-weight="bold" stroke-width=".23154">P</tspan></text>
   <text id="text8347-3-7" transform="scale(.98055 1.0198)" x="10.577837" y="17.113283" style="line-height:1.25" xml:space="preserve"><tspan id="tspan8345-6-5" x="10.577837" y="17.113283" fill="#ffffff" font-size="8.644px" font-weight="bold" stroke-width=".23154">U</tspan></text>
  </g>
 </g>
</svg>
