<?xml version="1.0" encoding="UTF-8"?>
<svg id="svg6" width="128" height="128" version="1.1" viewBox="0 0 33.867 33.867" xmlns="http://www.w3.org/2000/svg" xmlns:cc="http://creativecommons.org/ns#" xmlns:dc="http://purl.org/dc/elements/1.1/" xmlns:rdf="http://www.w3.org/1999/02/22-rdf-syntax-ns#" xmlns:xlink="http://www.w3.org/1999/xlink">
 <metadata id="metadata102">
  <rdf:RDF>
   <cc:Work rdf:about="">
    <dc:format>image/svg+xml</dc:format>
    <dc:type rdf:resource="http://purl.org/dc/dcmitype/StillImage"/>
    <dc:title/>
   </cc:Work>
  </rdf:RDF>
 </metadata>
 <defs id="defs2">
  <linearGradient id="linearGradient1010">
   <stop id="stop1006" stop-color="#646464" offset="0"/>
   <stop id="stop1008" stop-color="#c9c9c9" stop-opacity=".92941" offset="1"/>
  </linearGradient>
  <linearGradient id="linearGradient951" x1="2.4065" x2="31.494" y1="17.062" y2="17.062" gradientUnits="userSpaceOnUse">
   <stop id="stop945" stop-color="#bac0c3" offset="0"/>
   <stop id="stop959" stop-color="#eaeced" offset=".13492"/>
   <stop id="stop957" stop-color="#d1d6d8" offset=".25187"/>
   <stop id="stop955" stop-color="#c8cbcb" offset=".78465"/>
   <stop id="stop953" stop-color="#d2d7da" offset=".91134"/>
   <stop id="stop947" stop-color="#afb5b8" offset="1"/>
  </linearGradient>
  <linearGradient id="linearGradient977" x1="6.2808" x2="25.549" y1="5.4868" y2="24.755" gradientUnits="userSpaceOnUse">
   <stop id="stop971" stop-color="#dce2e4" offset="0"/>
   <stop id="stop973" stop-color="#acaeae" offset="1"/>
  </linearGradient>
  <radialGradient id="radialGradient992" cx="24.545" cy="29.496" r="1.2993" gradientTransform="translate(.025057 -.0083523)" gradientUnits="userSpaceOnUse">
   <stop id="stop986" stop-color="#9becbc" offset="0"/>
   <stop id="stop994" stop-color="#4ebc87" stop-opacity=".98431" offset=".87273"/>
   <stop id="stop988" stop-color="#328b5f" stop-opacity=".9837" offset="1"/>
  </radialGradient>
  <linearGradient id="linearGradient1012" x1="27.756" x2="27.756" y1="23.969" y2="22.332" gradientUnits="userSpaceOnUse" xlink:href="#linearGradient1010"/>
  <linearGradient id="linearGradient1099" x1="-6.4529" x2="-6.4529" y1="23.436" y2="35.862" gradientUnits="userSpaceOnUse">
   <stop id="stop1093" stop-color="#fab219" offset="0"/>
   <stop id="stop1095" stop-color="#e78d0a" offset="1"/>
  </linearGradient>
  <linearGradient id="linearGradient1107" x1="-5.6025" x2="-5.6025" y1="21.924" y2="36.618" gradientUnits="userSpaceOnUse">
   <stop id="stop1101" stop-color="#e78d0a" offset="0"/>
   <stop id="stop1103" stop-color="#fab219" offset="1"/>
  </linearGradient>
  <radialGradient id="radialGradient1121" cx="-5.646" cy="27.559" r="9.3785" gradientTransform="matrix(.95466 0 0 .95466 -.77571 2.9032)" gradientUnits="userSpaceOnUse">
   <stop id="stop1115" offset="0"/>
   <stop id="stop1123" stop-opacity=".83529" offset=".59194"/>
   <stop id="stop1125" stop-opacity=".60784" offset=".73804"/>
   <stop id="stop1131" stop-opacity=".50196" offset=".80353"/>
   <stop id="stop1129" stop-opacity=".20784" offset=".92947"/>
   <stop id="stop1117" stop-opacity="0" offset="1"/>
  </radialGradient>
  <linearGradient id="linearGradient1158" x1="7.3317" x2="7.3317" y1="23.357" y2="28.435" gradientTransform="translate(1.7502 -1.8807)" gradientUnits="userSpaceOnUse">
   <stop id="stop1152" stop-color="#fff" offset="0"/>
   <stop id="stop1154" stop-color="#fcecd0" offset="1"/>
  </linearGradient>
 </defs>
 <g id="layer1">
  <g id="g1702" transform="matrix(.97573 0 0 .97573 -65.748 -37.203)" fill="none" opacity=".29677" stroke="#000" stroke-linecap="round" stroke-linejoin="round" stroke-opacity=".02">
   <rect id="rect1634" x="69.84" y="40.71" width="29.811" height="29.811" rx="6.6099" ry="6.6099" stroke-width=".1"/>
   <rect id="rect1638" x="69.84" y="40.71" width="29.811" height="29.811" rx="6.6099" ry="6.6099" stroke-width=".2"/>
   <rect id="rect1640" x="69.84" y="40.71" width="29.811" height="29.811" rx="6.6099" ry="6.6099" stroke-width=".3"/>
   <rect id="rect1642" x="69.84" y="40.71" width="29.811" height="29.811" rx="6.6099" ry="6.6099" stroke-width=".4"/>
   <rect id="rect1644" x="69.84" y="40.71" width="29.811" height="29.811" rx="6.6099" ry="6.6099" stroke-width=".5"/>
   <rect id="rect1646" x="69.84" y="40.71" width="29.811" height="29.811" rx="6.6099" ry="6.6099" stroke-width=".6"/>
   <rect id="rect1648" x="69.84" y="40.71" width="29.811" height="29.811" rx="6.6099" ry="6.6099" stroke-width=".7"/>
   <rect id="rect1650" x="69.84" y="40.71" width="29.811" height="29.811" rx="6.6099" ry="6.6099" stroke-width=".8"/>
   <rect id="rect1652" x="69.84" y="40.71" width="29.811" height="29.811" rx="6.6099" ry="6.6099"/>
   <rect id="rect1654" x="69.84" y="40.71" width="29.811" height="29.811" rx="6.6099" ry="6.6099" stroke-width="1.2"/>
   <rect id="rect1656" x="69.84" y="40.71" width="29.811" height="29.811" rx="6.6099" ry="6.6099" stroke-width="1.4"/>
   <rect id="rect1658" x="69.84" y="40.71" width="29.811" height="29.811" rx="6.6099" ry="6.6099" stroke-width="1.6"/>
   <rect id="rect1660" x="69.84" y="40.71" width="29.811" height="29.811" rx="6.6099" ry="6.6099" stroke-width="1.8"/>
   <rect id="rect1662" x="69.84" y="40.71" width="29.811" height="29.811" rx="6.6099" ry="6.6099" stroke-width="2"/>
   <rect id="rect1664" x="69.84" y="40.71" width="29.811" height="29.811" rx="6.6099" ry="6.6099" stroke-width="2.2"/>
   <rect id="rect1666" x="69.84" y="40.71" width="29.811" height="29.811" rx="6.6099" ry="6.6099" stroke-width="2.6"/>
   <rect id="rect1668" x="69.84" y="40.71" width="29.811" height="29.811" rx="6.6099" ry="6.6099" stroke-width="3"/>
   <rect id="rect1670" x="69.84" y="40.71" width="29.811" height="29.811" rx="6.6099" ry="6.6099" stroke-width="3.4"/>
   <rect id="rect1672" x="69.84" y="40.71" width="29.811" height="29.811" rx="6.6099" ry="6.6099" stroke-width="3.8"/>
   <rect id="rect1674" x="69.84" y="40.71" width="29.811" height="29.811" rx="6.6099" ry="6.6099" stroke-width="4.2"/>
   <rect id="rect1676" x="69.84" y="40.71" width="29.811" height="29.811" rx="6.6099" ry="6.6099" stroke-width="4.6"/>
   <rect id="rect1678" x="69.84" y="40.71" width="29.811" height="29.811" rx="6.6099" ry="6.6099" stroke-width="5"/>
  </g>
  <rect id="rect849" x="2.4065" y="2.5186" width="29.087" height="29.087" rx="6.4495" ry="6.4495" fill="url(#linearGradient951)" stroke-linecap="round" stroke-linejoin="round" stroke-width="2.6877"/>
  <rect id="rect969" x="2.4065" y="2.5186" width="29.087" height="24.457" rx="6.4495" ry="6.4495" fill="url(#linearGradient977)" stroke-linecap="round" stroke-linejoin="round" stroke-width="2.6877"/>
  <path id="rect979" transform="scale(.26458)" d="m9.0957 75.348v2.2324c0 13.504 10.871 24.375 24.375 24.375h61.186c13.504 0 24.377-10.871 24.377-24.375v-2.2324c0 13.504-10.873 24.377-24.377 24.377h-61.186c-13.504 0-24.375-10.873-24.375-24.377z" fill="#f1f3f4" stroke-linecap="round" stroke-linejoin="round" stroke-width="10.158"/>
  <g id="g1002" transform="translate(.70871 -.33073)" fill-rule="evenodd">
   <circle id="circle996" cx="24.57" cy="29.488" r="1.4413" fill="#fff" fill-opacity=".36413"/>
   <circle id="path984" cx="24.57" cy="29.488" r="1.2993" fill="url(#radialGradient992)"/>
  </g>
  <g id="g1029" fill-rule="evenodd">
   <circle id="circle1019" cx="27.436" cy="22.975" r="1.1509" fill="#fff" fill-opacity=".47826"/>
   <g id="g1023" transform="translate(-.10858 -.025057)">
    <circle id="path1004" cx="27.545" cy="23" r=".99219" fill="url(#linearGradient1012)"/>
    <path id="rect1014" d="m27.032 22.55c-0.03216 0.03216-0.03159 0.08395 5.6e-4 0.11611l0.33332 0.33332-0.33332 0.33333c-0.03216 0.03216-0.03272 0.08395-5.6e-4 0.11611l0.06334 0.06334c0.03216 0.03216 0.08451 0.03216 0.11667 0l0.33332-0.33332 0.33332 0.33332c0.03216 0.03216 0.08339 0.03216 0.11555 0l0.06334-0.06334c0.03216-0.03216 0.03272-0.08395 5.6e-4 -0.11611l-0.33332-0.33332 0.33332-0.33332c0.03216-0.03216 0.03159-0.08395-5.6e-4 -0.11611l-0.06334-0.06334c-0.03216-0.03216-0.08339-0.03216-0.11555 0l-0.33332 0.33332-0.33332-0.33332c-0.03216-0.03216-0.08451-0.03216-0.11667 0z" fill="#646464"/>
   </g>
  </g>
  <g id="g1039" transform="translate(-21.072)" fill-rule="evenodd">
   <circle id="circle1031" cx="27.436" cy="22.975" r="1.1509" fill="#fff" fill-opacity=".47826"/>
   <g id="g1037" transform="translate(-.10858 -.025057)">
    <circle id="circle1033" cx="27.545" cy="23" r=".99219" fill="url(#linearGradient1012)"/>
    <path id="path1035" d="m27.032 22.55c-0.03216 0.03216-0.03159 0.08395 5.6e-4 0.11611l0.33332 0.33332-0.33332 0.33333c-0.03216 0.03216-0.03272 0.08395-5.6e-4 0.11611l0.06334 0.06334c0.03216 0.03216 0.08451 0.03216 0.11667 0l0.33332-0.33332 0.33332 0.33332c0.03216 0.03216 0.08339 0.03216 0.11555 0l0.06334-0.06334c0.03216-0.03216 0.03272-0.08395 5.6e-4 -0.11611l-0.33332-0.33332 0.33332-0.33332c0.03216-0.03216 0.03159-0.08395-5.6e-4 -0.11611l-0.06334-0.06334c-0.03216-0.03216-0.08339-0.03216-0.11555 0l-0.33332 0.33332-0.33332-0.33332c-0.03216-0.03216-0.08451-0.03216-0.11667 0z" fill="#646464"/>
   </g>
  </g>
  <g id="g1051" transform="translate(0 -16.82)" fill-rule="evenodd">
   <circle id="circle1043" cx="27.436" cy="22.975" r="1.1509" fill="#fff" fill-opacity=".47826"/>
   <g id="g1049" transform="translate(-.10858 -.025057)">
    <circle id="circle1045" cx="27.545" cy="23" r=".99219" fill="url(#linearGradient1012)"/>
    <path id="path1047" d="m27.032 22.55c-0.03216 0.03216-0.03159 0.08395 5.6e-4 0.11611l0.33332 0.33332-0.33332 0.33333c-0.03216 0.03216-0.03272 0.08395-5.6e-4 0.11611l0.06334 0.06334c0.03216 0.03216 0.08451 0.03216 0.11667 0l0.33332-0.33332 0.33332 0.33332c0.03216 0.03216 0.08339 0.03216 0.11555 0l0.06334-0.06334c0.03216-0.03216 0.03272-0.08395 5.6e-4 -0.11611l-0.33332-0.33332 0.33332-0.33332c0.03216-0.03216 0.03159-0.08395-5.6e-4 -0.11611l-0.06334-0.06334c-0.03216-0.03216-0.08339-0.03216-0.11555 0l-0.33332 0.33332-0.33332-0.33332c-0.03216-0.03216-0.08451-0.03216-0.11667 0z" fill="#646464"/>
   </g>
  </g>
  <g id="g1061" transform="translate(-21.072 -16.82)" fill-rule="evenodd">
   <circle id="circle1053" cx="27.436" cy="22.975" r="1.1509" fill="#fff" fill-opacity=".47826"/>
   <g id="g1059" transform="translate(-.10858 -.025057)">
    <circle id="circle1055" cx="27.545" cy="23" r=".99219" fill="url(#linearGradient1012)"/>
    <path id="path1057" d="m27.032 22.55c-0.03216 0.03216-0.03159 0.08395 5.6e-4 0.11611l0.33332 0.33332-0.33332 0.33333c-0.03216 0.03216-0.03272 0.08395-5.6e-4 0.11611l0.06334 0.06334c0.03216 0.03216 0.08451 0.03216 0.11667 0l0.33332-0.33332 0.33332 0.33332c0.03216 0.03216 0.08339 0.03216 0.11555 0l0.06334-0.06334c0.03216-0.03216 0.03272-0.08395 5.6e-4 -0.11611l-0.33332-0.33332 0.33332-0.33332c0.03216-0.03216 0.03159-0.08395-5.6e-4 -0.11611l-0.06334-0.06334c-0.03216-0.03216-0.08339-0.03216-0.11555 0l-0.33332 0.33332-0.33332-0.33332c-0.03216-0.03216-0.08451-0.03216-0.11667 0z" fill="#646464"/>
   </g>
  </g>
  <path id="path1067" d="m17.175 4.0104-1.3348 2.9295h1.0134v9.8506c-0.03252 0.0598-0.06666 0.12156-0.06666 0.24546h0.06666v2.1627l-2.2758-2.2758c-0.35315-0.35314-0.56046-0.60236-0.67541-0.82631-0.11495-0.22395-0.15658-0.4369-0.15658-0.79685v-1.2485a1.7009 1.7009 0 0 0 1.3146-1.6542 1.7009 1.7009 0 0 0-1.7007-1.7012 1.7009 1.7009 0 0 0-1.7007 1.7012 1.7009 1.7009 0 0 0 1.386 1.6702v1.2325c0 0.42306 0.0643 0.78242 0.23616 1.1172 0.17186 0.33482 0.43202 0.62942 0.80254 0.99994l2.7383 2.7404 0.03152-0.03152v1.7684a1.819 1.819 0 0 0-1.4149 1.771 1.819 1.819 0 0 0 1.819 1.819 1.819 1.819 0 0 0 1.819-1.819 1.819 1.819 0 0 0-1.5224-1.7927v-4.8814c0.07131-0.09568 0.18257-0.22692 0.32039-0.37672 0.2787-0.30294 0.65995-0.68015 1.0413-1.0449 0.76266-0.7295 1.527-1.4123 1.527-1.4123l0.01602-0.01344 0.01137-0.01395c0.26852-0.29965 0.60334-0.70109 0.62528-1.357v-1.7932h1.063c0.04627 0 0.08372-0.03744 0.08372-0.08372v-2.7151c0-0.046271-0.03744-0.083199-0.08372-0.083199h-2.7151c-0.04627 0-0.08372 0.036928-0.08372 0.083199v2.7151c0 0.04627 0.03744 0.08372 0.08372 0.08372h0.95085v1.7735c-0.01644 0.45096-0.18038 0.61422-0.44545 0.91002-0.02855 0.02546-0.75833 0.67404-1.5177 1.4004-0.312 0.29844-0.61167 0.59734-0.87695 0.87436v-8.9979h0.9555z" color="#000000" color-rendering="auto" dominant-baseline="auto" fill="#3c3c3c" image-rendering="auto" shape-rendering="auto" solid-color="#000000" style="font-feature-settings:normal;font-variant-alternates:normal;font-variant-caps:normal;font-variant-ligatures:normal;font-variant-numeric:normal;font-variant-position:normal;isolation:auto;mix-blend-mode:normal;shape-padding:0;text-decoration-color:#000000;text-decoration-line:none;text-decoration-style:solid;text-indent:0;text-orientation:mixed;text-transform:none;white-space:normal"/>
  <g id="g1137" transform="translate(15.592 -4.8192)" fill-rule="evenodd">
   <circle id="path1113" cx="-6.1657" cy="29.213" r="8.9533" fill="url(#radialGradient1121)" opacity=".343"/>
   <g id="g1111">
    <circle id="path1089" cx="-6.4368" cy="29.436" r="7.7174" fill="url(#linearGradient1107)"/>
    <circle id="circle1091" cx="-6.4368" cy="29.436" r="7.1504" fill="url(#linearGradient1099)"/>
   </g>
  </g>
  <path id="rect1139" d="m7.6014 20.645c-0.17583 0-0.31781 0.14146-0.31781 0.31729v2.6732l-1.3679 0.0093a0.50005 0.50005 0 0 0-0.38086 0.8201l3.2732 3.9434a0.50005 0.50005 0 0 0 0.77566-0.0062l3.1972-3.9899a0.50005 0.50005 0 0 0-0.39481-0.81235l-1.3606 0.0093v-2.6469c0-0.17583-0.14146-0.31729-0.31729-0.31729z" fill="url(#linearGradient1158)" fill-rule="evenodd"/>
 </g>
</svg>
