<?xml version="1.0" encoding="UTF-8"?>
<svg id="svg1443" width="128" height="128" version="1.1" viewBox="0 0 33.867 33.867" xmlns="http://www.w3.org/2000/svg" xmlns:cc="http://creativecommons.org/ns#" xmlns:dc="http://purl.org/dc/elements/1.1/" xmlns:rdf="http://www.w3.org/1999/02/22-rdf-syntax-ns#" xmlns:xlink="http://www.w3.org/1999/xlink">
 <defs id="defs1437">
  <radialGradient id="radialGradient948" cx="16.951" cy="6.0443" r="14.544" gradientTransform="matrix(3.1335 0 0 1.9874 -36.165 -5.9684)" gradientUnits="userSpaceOnUse">
   <stop id="stop1626" stop-color="#229ee1" offset="0"/>
   <stop id="stop1628" stop-color="#0041ea" offset="1"/>
  </radialGradient>
  <linearGradient id="linearGradient1699" x1="28.421" x2="18.449" y1="12.577" y2="22.549" gradientUnits="userSpaceOnUse">
   <stop id="stop1693" stop-color="#fff" offset="0"/>
   <stop id="stop1695" stop-color="#73adf0" offset="1"/>
  </linearGradient>
  <linearGradient id="linearGradient3046" x1="17.867" x2="11.665" y1="24.078" y2="13.336" gradientUnits="userSpaceOnUse">
   <stop id="stop3040" stop-color="#c5daf5" offset="0"/>
   <stop id="stop3042" stop-color="#f5f5f5" offset="1"/>
  </linearGradient>
 </defs>
 <metadata id="metadata1440">
  <rdf:RDF>
   <cc:Work rdf:about="">
    <dc:format>image/svg+xml</dc:format>
    <dc:type rdf:resource="http://purl.org/dc/dcmitype/StillImage"/>
   </cc:Work>
  </rdf:RDF>
 </metadata>
 <g id="layer1">
  <g id="g1702" transform="matrix(.97573 0 0 .96361 -65.737 -36.328)" fill="none" opacity=".18754" stroke="#000" stroke-linecap="round" stroke-linejoin="round" stroke-opacity=".02">
   <rect id="rect1634" x="69.84" y="40.71" width="29.811" height="29.811" rx="6.6099" ry="6.6099" stroke-width=".1"/>
   <rect id="rect1638" x="69.84" y="40.71" width="29.811" height="29.811" rx="6.6099" ry="6.6099" stroke-width=".2"/>
   <rect id="rect1640" x="69.84" y="40.71" width="29.811" height="29.811" rx="6.6099" ry="6.6099" stroke-width=".3"/>
   <rect id="rect1642" x="69.84" y="40.71" width="29.811" height="29.811" rx="6.6099" ry="6.6099" stroke-width=".4"/>
   <rect id="rect1644" x="69.84" y="40.71" width="29.811" height="29.811" rx="6.6099" ry="6.6099" stroke-width=".5"/>
   <rect id="rect1646" x="69.84" y="40.71" width="29.811" height="29.811" rx="6.6099" ry="6.6099" stroke-width=".6"/>
   <rect id="rect1648" x="69.84" y="40.71" width="29.811" height="29.811" rx="6.6099" ry="6.6099" stroke-width=".7"/>
   <rect id="rect1650" x="69.84" y="40.71" width="29.811" height="29.811" rx="6.6099" ry="6.6099" stroke-width=".8"/>
   <rect id="rect1652" x="69.84" y="40.71" width="29.811" height="29.811" rx="6.6099" ry="6.6099"/>
   <rect id="rect1654" x="69.84" y="40.71" width="29.811" height="29.811" rx="6.6099" ry="6.6099" stroke-width="1.2"/>
   <rect id="rect1656" x="69.84" y="40.71" width="29.811" height="29.811" rx="6.6099" ry="6.6099" stroke-width="1.4"/>
   <rect id="rect1658" x="69.84" y="40.71" width="29.811" height="29.811" rx="6.6099" ry="6.6099" stroke-width="1.6"/>
   <rect id="rect1660" x="69.84" y="40.71" width="29.811" height="29.811" rx="6.6099" ry="6.6099" stroke-width="1.8"/>
   <rect id="rect1662" x="69.84" y="40.71" width="29.811" height="29.811" rx="6.6099" ry="6.6099" stroke-width="2"/>
   <rect id="rect1664" x="69.84" y="40.71" width="29.811" height="29.811" rx="6.6099" ry="6.6099" stroke-width="2.2"/>
   <rect id="rect1666" x="69.84" y="40.71" width="29.811" height="29.811" rx="6.6099" ry="6.6099" stroke-width="2.6"/>
   <rect id="rect1668" x="69.84" y="40.71" width="29.811" height="29.811" rx="6.6099" ry="6.6099" stroke-width="3"/>
   <rect id="rect1670" x="69.84" y="40.71" width="29.811" height="29.811" rx="6.6099" ry="6.6099" stroke-width="3.4"/>
   <rect id="rect1672" x="69.84" y="40.71" width="29.811" height="29.811" rx="6.6099" ry="6.6099" stroke-width="3.8"/>
   <rect id="rect1674" x="69.84" y="40.71" width="29.811" height="29.811" rx="6.6099" ry="6.6099" stroke-width="4.2"/>
   <rect id="rect1676" x="69.84" y="40.71" width="29.811" height="29.811" rx="6.6099" ry="6.6099" stroke-width="4.6"/>
   <rect id="rect1678" x="69.84" y="40.71" width="29.811" height="29.811" rx="6.6099" ry="6.6099" stroke-width="5"/>
  </g>
  <rect id="rect849" x="2.4074" y="2.5392" width="29.087" height="29.087" rx="6.4495" ry="6.4495" fill="url(#radialGradient948)" stroke-linecap="round" stroke-linejoin="round" stroke-width="2.6877"/>
  <path id="path6074" d="m6.8796 9.9858a0.83171 0.83243 0 0 0-0.74776 1.1948l7.9199 16.35a0.83171 0.83243 0 0 0 0.74776 0.46871h6.9308a0.83171 0.83243 0 0 0 0.80874-1.0242c0.02643-3.5648 0.70596-6.1584 1.404-7.2109 0.40349-0.60835 0.71196-0.93001 1.1973-1.1581 0.48538-0.22806 1.3438-0.36949 2.5978-0.36949 0.45743-4.5e-5 0.82781-0.36241 0.82786-0.80977v-6.6311c-4.8e-5 -0.44736-0.37043-0.81024-0.82786-0.81029-4.4999 0-8.5849 1.9419-10.837 5.3061l-2.343-4.8369a0.83171 0.83243 0 0 0-0.74879-0.46922z" fill="#030716" fill-opacity=".082637" fill-rule="evenodd" stroke-width=".37529"/>
  <path id="path6076" d="m7.4484 10.918a0.83171 0.83243 0 0 0-0.74776 1.1948l7.9199 16.35a0.83171 0.83243 0 0 0 0.74776 0.46871h6.9308a0.83171 0.83243 0 0 0 0.80874-1.0242c0.02643-3.5648 0.70596-6.1584 1.404-7.2109 0.40349-0.60835 0.71196-0.93001 1.1973-1.1581 0.48538-0.22806 1.3438-0.36949 2.5978-0.36949 0.45743-4.5e-5 0.82781-0.36241 0.82786-0.80977v-6.6311c-4.8e-5 -0.44736-0.37043-0.81024-0.82786-0.81029-4.4999 0-8.5849 1.9419-10.837 5.3061l-2.343-4.8369a0.83171 0.83243 0 0 0-0.74879-0.46922z" fill="#030716" fill-opacity=".082637" fill-rule="evenodd" stroke-width=".37529"/>
  <path id="path5817" d="m6.4511 9.5161a0.83171 0.83243 0 0 0-0.74776 1.1948l7.9199 16.35a0.83171 0.83243 0 0 0 0.74776 0.46871h6.9308a0.83171 0.83243 0 0 0 0.80874-1.0242c0.02643-3.5648 0.70596-6.1584 1.404-7.2109 0.40349-0.60835 0.71196-0.93001 1.1973-1.1581 0.48538-0.22806 1.3438-0.36949 2.5978-0.36949 0.45743-4.5e-5 0.82781-0.36241 0.82786-0.80977v-6.6311c-4.8e-5 -0.44736-0.37043-0.81024-0.82786-0.81029-4.4999 0-8.5849 1.9419-10.837 5.3061l-2.343-4.8369a0.83171 0.83243 0 0 0-0.74879-0.46922z" fill="#030716" fill-opacity=".082637" fill-rule="evenodd" stroke-width=".37529"/>
  <path id="path6" d="m20.928 27.063c0.45743-4.4e-5 0.82824-0.36269 0.82829-0.81005 0-3.6756 0.69376-6.3517 1.4058-7.4253 0.40349-0.60835 0.71176-0.93005 1.1971-1.1581 0.48538-0.22806 1.3436-0.36943 2.5976-0.36943 0.45743-4.5e-5 0.82824-0.36269 0.82829-0.81005v-6.6311c-4.5e-5 -0.44736-0.37086-0.81-0.82829-0.81005-4.5168 0-8.6156 1.9561-10.862 5.3436-2.2064 3.3267-2.785 7.3623-2.785 11.86 4.7e-5 0.44736 0.37086 0.81 0.82829 0.81005z" fill="url(#linearGradient1699)" fill-rule="evenodd" stroke-width=".37529"/>
  <path id="path10" d="m20.949 27.063a0.83171 0.83243 0 0 0 0.74797-1.1957l-7.9199-16.349a0.83171 0.83243 0 0 0-0.74878-0.46901h-6.9299a0.83171 0.83243 0 0 0-0.74797 1.1949l7.9199 16.35a0.83171 0.83243 0 0 0 0.74797 0.46901z" fill="url(#linearGradient3046)" stroke-width=".37529"/>
 </g>
</svg>
