<?xml version="1.0" encoding="UTF-8"?>
<svg id="svg1443" width="128" height="128" version="1.1" viewBox="0 0 33.867 33.867" xmlns="http://www.w3.org/2000/svg" xmlns:cc="http://creativecommons.org/ns#" xmlns:dc="http://purl.org/dc/elements/1.1/" xmlns:rdf="http://www.w3.org/1999/02/22-rdf-syntax-ns#" xmlns:xlink="http://www.w3.org/1999/xlink">
 <defs id="defs1437">
  <linearGradient id="linearGradient1632" x1="132.21" x2="132.21" y1="42.152" y2="70.68" gradientTransform="matrix(.97573 0 0 .97573 -111.77 -37.183)" gradientUnits="userSpaceOnUse">
   <stop id="stop1626" stop-color="#ef5475" offset="0"/>
   <stop id="stop1628" stop-color="#f52b3b" offset="1"/>
  </linearGradient>
  <linearGradient id="linearGradient883" x1="8.0459" x2="8.0459" y1="13.475" y2="42.498" gradientTransform="scale(3.7795)" gradientUnits="userSpaceOnUse">
   <stop id="stop877" stop-color="#fff" offset="0"/>
   <stop id="stop879" stop-color="#f43346" offset="1"/>
  </linearGradient>
 </defs>
 <metadata id="metadata1440">
  <rdf:RDF>
   <cc:Work rdf:about="">
    <dc:format>image/svg+xml</dc:format>
    <dc:type rdf:resource="http://purl.org/dc/dcmitype/StillImage"/>
   </cc:Work>
  </rdf:RDF>
 </metadata>
 <g id="layer1">
  <g id="g1702" transform="matrix(.97573 0 0 .97573 -65.737 -37.183)" fill="none" opacity=".295" stroke="#000" stroke-linecap="round" stroke-linejoin="round" stroke-opacity=".02">
   <rect id="rect1634" x="69.84" y="40.71" width="29.811" height="29.811" rx="6.6099" ry="6.6099" stroke-width=".1"/>
   <rect id="rect1638" x="69.84" y="40.71" width="29.811" height="29.811" rx="6.6099" ry="6.6099" stroke-width=".2"/>
   <rect id="rect1640" x="69.84" y="40.71" width="29.811" height="29.811" rx="6.6099" ry="6.6099" stroke-width=".3"/>
   <rect id="rect1642" x="69.84" y="40.71" width="29.811" height="29.811" rx="6.6099" ry="6.6099" stroke-width=".4"/>
   <rect id="rect1644" x="69.84" y="40.71" width="29.811" height="29.811" rx="6.6099" ry="6.6099" stroke-width=".5"/>
   <rect id="rect1646" x="69.84" y="40.71" width="29.811" height="29.811" rx="6.6099" ry="6.6099" stroke-width=".6"/>
   <rect id="rect1648" x="69.84" y="40.71" width="29.811" height="29.811" rx="6.6099" ry="6.6099" stroke-width=".7"/>
   <rect id="rect1650" x="69.84" y="40.71" width="29.811" height="29.811" rx="6.6099" ry="6.6099" stroke-width=".8"/>
   <rect id="rect1652" x="69.84" y="40.71" width="29.811" height="29.811" rx="6.6099" ry="6.6099"/>
   <rect id="rect1654" x="69.84" y="40.71" width="29.811" height="29.811" rx="6.6099" ry="6.6099" stroke-width="1.2"/>
   <rect id="rect1656" x="69.84" y="40.71" width="29.811" height="29.811" rx="6.6099" ry="6.6099" stroke-width="1.4"/>
   <rect id="rect1658" x="69.84" y="40.71" width="29.811" height="29.811" rx="6.6099" ry="6.6099" stroke-width="1.6"/>
   <rect id="rect1660" x="69.84" y="40.71" width="29.811" height="29.811" rx="6.6099" ry="6.6099" stroke-width="1.8"/>
   <rect id="rect1662" x="69.84" y="40.71" width="29.811" height="29.811" rx="6.6099" ry="6.6099" stroke-width="2"/>
   <rect id="rect1664" x="69.84" y="40.71" width="29.811" height="29.811" rx="6.6099" ry="6.6099" stroke-width="2.2"/>
   <rect id="rect1666" x="69.84" y="40.71" width="29.811" height="29.811" rx="6.6099" ry="6.6099" stroke-width="2.6"/>
   <rect id="rect1668" x="69.84" y="40.71" width="29.811" height="29.811" rx="6.6099" ry="6.6099" stroke-width="3"/>
   <rect id="rect1670" x="69.84" y="40.71" width="29.811" height="29.811" rx="6.6099" ry="6.6099" stroke-width="3.4"/>
   <rect id="rect1672" x="69.84" y="40.71" width="29.811" height="29.811" rx="6.6099" ry="6.6099" stroke-width="3.8"/>
   <rect id="rect1674" x="69.84" y="40.71" width="29.811" height="29.811" rx="6.6099" ry="6.6099" stroke-width="4.2"/>
   <rect id="rect1676" x="69.84" y="40.71" width="29.811" height="29.811" rx="6.6099" ry="6.6099" stroke-width="4.6"/>
   <rect id="rect1678" x="69.84" y="40.71" width="29.811" height="29.811" rx="6.6099" ry="6.6099" stroke-width="5"/>
  </g>
  <rect id="rect849" x="2.4074" y="2.5392" width="29.087" height="29.087" rx="6.4495" ry="6.4495" fill="url(#linearGradient1632)" stroke-linecap="round" stroke-linejoin="round" stroke-width="2.6877"/>
  <g id="g900" fill="#43283f" opacity=".59866" stroke-width=".6418">
   <path id="path885" d="m8.5009 8.8134 5.1286 13.506 1.4325-0.01286 2.4523-5.8769-1.1244 0.01019-3.1005-7.6708zm13.025-0.12002-3.1743 7.7285-0.01674 6.43e-4 -3.2225 7.8408-0.74192 7e-3 0.7278 1.9158 3.6146-0.03338 7.5989-17.502z" fill-opacity=".10544"/>
   <path id="path887" d="m8.6011 9.4341 5.1286 13.506 1.4325-0.01286 2.4523-5.8769-1.1244 0.01019-3.1005-7.6708zm13.025-0.12002-3.1743 7.7285-0.01674 6.43e-4 -3.2225 7.8408-0.74192 7e-3 0.7278 1.9158 3.6146-0.03338 7.5989-17.502z" fill-opacity=".067431"/>
   <path id="path889" d="m8.8083 9.9268 5.1286 13.506 1.4325-0.01286 2.4523-5.8769-1.1244 0.01019-3.1005-7.6708zm13.025-0.12002-3.1743 7.7285-0.01674 6.43e-4 -3.2225 7.8408-0.74192 7e-3 0.7278 1.9158 3.6146-0.03338 7.5989-17.502z" fill-opacity=".067431"/>
   <path id="path891" d="m8.9368 10.43 5.1286 13.506 1.4325-0.01286 2.4523-5.8769-1.1244 0.01019-3.1005-7.6708zm13.025-0.12002-3.1743 7.7285-0.01674 6.43e-4 -3.2225 7.8408-0.74192 7e-3 0.7278 1.9158 3.6146-0.03338 7.5989-17.502z" fill-opacity=".042645"/>
   <path id="path893" d="m9.0295 10.863 5.1286 13.506 1.4325-0.01286 2.4523-5.8769-1.1244 0.01019-3.1005-7.6708zm13.025-0.12002-3.1743 7.7285-0.01674 6.43e-4 -3.2225 7.8408-0.74192 7e-3 0.7278 1.9158 3.6146-0.03338 7.5989-17.502z" fill-opacity=".042645"/>
  </g>
  <path id="path9" transform="scale(.26458)" d="m97.725 31.426-18.088 0.16406-11.998 29.209-0.0625 0.003906-12.18 29.635-2.8047 0.025391 2.752 7.2402 13.66-0.125 28.721-66.152zm-49.217 0.44922-18.098 0.16797 19.383 51.047 5.4141-0.048828 9.2695-22.213-4.25 0.039063-11.719-28.992z" fill="url(#linearGradient883)" stroke-width="2.4257"/>
 </g>
</svg>
