<?xml version="1.0" encoding="UTF-8" standalone="no"?>
<svg
   width="512"
   height="512"
   viewBox="0 0 64 64"
   version="1.1"
   id="svg11"
   sodipodi:docname="vim.svg"
   inkscape:version="1.4.4 (dcaf3e7d9e, 2026-05-05)"
   xmlns:inkscape="http://www.inkscape.org/namespaces/inkscape"
   xmlns:sodipodi="http://sodipodi.sourceforge.net/DTD/sodipodi-0.dtd"
   xmlns="http://www.w3.org/2000/svg"
   xmlns:svg="http://www.w3.org/2000/svg">
  <sodipodi:namedview
     id="namedview11"
     pagecolor="#ffffff"
     bordercolor="#000000"
     borderopacity="0.25"
     inkscape:showpageshadow="2"
     inkscape:pageopacity="0.0"
     inkscape:pagecheckerboard="0"
     inkscape:deskcolor="#d1d1d1"
     inkscape:zoom="1.5625"
     inkscape:cx="255.68"
     inkscape:cy="256"
     inkscape:window-width="1920"
     inkscape:window-height="1011"
     inkscape:window-x="0"
     inkscape:window-y="0"
     inkscape:window-maximized="1"
     inkscape:current-layer="svg11" />
  <defs
     id="defs4">
    <linearGradient
       id="c"
       x1="32"
       x2="32"
       y1="17.652"
       y2="46.348"
       gradientUnits="userSpaceOnUse">
      <stop
         stop-color="#fbfbfb"
         offset="0"
         id="stop1" />
      <stop
         stop-color="#c4e4de"
         offset="1"
         id="stop2" />
    </linearGradient>
    <linearGradient
       id="a"
       x1="7.937"
       x2="7.937"
       y1="15.081"
       y2="1.852"
       gradientTransform="scale(3.7796)"
       gradientUnits="userSpaceOnUse">
      <stop
         stop-color="#15a368"
         offset="0"
         id="stop3"
         style="stop-color:#26a269;stop-opacity:1" />
      <stop
         stop-color="#3fe366"
         offset="1"
         id="stop4"
         style="stop-color:#57e389;stop-opacity:1" />
    </linearGradient>
    <filter
       id="b"
       x="-0.06696605"
       y="-0.085224426"
       width="1.1339321"
       height="1.1704489"
       color-interpolation-filters="sRGB">
      <feGaussianBlur
         stdDeviation="1.019"
         id="feGaussianBlur4" />
    </filter>
  </defs>
  <path
     transform="scale(3.7796)"
     d="M4.37.53C2.254.53.53 2.312.53 4.496v8.468c0 2.184 1.725 3.968 3.84 3.968h8.194c2.114 0 3.84-1.783 3.84-3.968V4.497c0-2.184-1.726-3.968-3.84-3.968zm.256.52h7.681c1.844 0 3.33 1.534 3.33 3.44v7.937c0 1.906-1.485 3.44-3.33 3.44h-7.68c-1.845 0-3.33-1.534-3.33-3.44V4.49c0-1.906 1.485-3.44 3.33-3.44z"
     opacity=".01"
     style="font-feature-settings:normal;font-variant-alternates:normal;font-variant-caps:normal;font-variant-east-asian:normal;font-variant-ligatures:normal;font-variant-numeric:normal;font-variant-position:normal;font-variation-settings:normal;inline-size:0;isolation:auto;mix-blend-mode:normal;shape-margin:0;shape-padding:0;text-decoration-color:#000;text-decoration-line:none;text-decoration-style:solid;text-indent:0;text-orientation:mixed;text-transform:none;white-space:normal"
     id="path4" />
  <path
     transform="scale(3.7796)"
     d="M4.359.794C2.392.794.795 2.447.795 4.48v8.5c0 2.035 1.597 3.688 3.564 3.688h8.216c1.967 0 3.564-1.653 3.564-3.688v-8.5c0-2.034-1.597-3.687-3.564-3.687zm.272.256h7.672c1.842 0 3.325 1.534 3.325 3.44v7.937c0 1.906-1.483 3.44-3.325 3.44H4.63c-1.842 0-3.325-1.534-3.325-3.44V4.49c0-1.906 1.483-3.44 3.325-3.44z"
     opacity=".01"
     style="font-feature-settings:normal;font-variant-alternates:normal;font-variant-caps:normal;font-variant-east-asian:normal;font-variant-ligatures:normal;font-variant-numeric:normal;font-variant-position:normal;font-variation-settings:normal;inline-size:0;isolation:auto;mix-blend-mode:normal;shape-margin:0;shape-padding:0;text-decoration-color:#000;text-decoration-line:none;text-decoration-style:solid;text-indent:0;text-orientation:mixed;text-transform:none;white-space:normal"
     id="path5" />
  <path
     transform="scale(3.7796)"
     d="M4.31 1.058c-1.866 0-3.375 1.539-3.375 3.44v8.467c0 1.9 1.509 3.439 3.375 3.439h8.312c1.865 0 3.375-1.538 3.375-3.44V4.498c0-1.9-1.51-3.439-3.375-3.439h-.097c1.794.087 3.214 1.582 3.214 3.432v7.937c0 1.906-1.506 3.44-3.377 3.44h-7.79c-1.871 0-3.377-1.534-3.377-3.44V4.49c0-1.85 1.42-3.345 3.214-3.432z"
     opacity=".03"
     style="font-feature-settings:normal;font-variant-alternates:normal;font-variant-caps:normal;font-variant-east-asian:normal;font-variant-ligatures:normal;font-variant-numeric:normal;font-variant-position:normal;font-variation-settings:normal;inline-size:0;isolation:auto;mix-blend-mode:normal;shape-margin:0;shape-padding:0;text-decoration-color:#000;text-decoration-line:none;text-decoration-style:solid;text-indent:0;text-orientation:mixed;text-transform:none;white-space:normal"
     id="path6" />
  <path
     d="M4 46.969V49c0 6.648 5.352 12 12 12h32c6.648 0 12-5.352 12-12v-1.992a12.972 12.972 0 0 1-13 12.963H17.002A12.973 12.973 0 0 1 4 46.969z"
     opacity=".03"
     style="font-feature-settings:normal;font-variant-alternates:normal;font-variant-caps:normal;font-variant-east-asian:normal;font-variant-ligatures:normal;font-variant-numeric:normal;font-variant-position:normal;font-variation-settings:normal;inline-size:0;isolation:auto;mix-blend-mode:normal;shape-margin:0;shape-padding:0;text-decoration-color:#000;text-decoration-line:none;text-decoration-style:solid;text-indent:0;text-orientation:mixed;text-transform:none;white-space:normal"
     id="path7" />
  <path
     transform="scale(3.7796)"
     d="M1.058 11.906v.592c0 1.939 1.416 3.5 3.175 3.5H12.7c1.759 0 3.175-1.561 3.175-3.5v-.58c-.006 2.095-1.538 3.78-3.44 3.78H4.498c-1.905 0-3.44-1.692-3.44-3.792z"
     opacity=".05"
     style="font-feature-settings:normal;font-variant-alternates:normal;font-variant-caps:normal;font-variant-east-asian:normal;font-variant-ligatures:normal;font-variant-numeric:normal;font-variant-position:normal;font-variation-settings:normal;inline-size:0;isolation:auto;mix-blend-mode:normal;shape-margin:0;shape-padding:0;text-decoration-color:#000;text-decoration-line:none;text-decoration-style:solid;text-indent:0;text-orientation:mixed;text-transform:none;white-space:normal"
     id="path8" />
  <rect
     x="4"
     y="3.969"
     width="56.002"
     height="56.002"
     rx="13.002"
     ry="13.002"
     fill="url(#a)"
     id="rect8" />
  <path
     d="M32 13.739 50.261 32 32 50.261 13.739 32z"
     opacity=".25"
     id="path9" />
  <path
     d="m 14.391,18.902 -0.652,0.652 v 1.304 l 0.652,0.653 h 1.956 V 46.946 L 17,47.598 h 1.956 L 47.652,20.858 V 19.555 L 47,18.902 H 35.261 l -0.652,0.653 v 1.304 l 0.652,0.652 h 1.957 v 1.304 L 22.87,35.858 V 21.51 h 1.956 l 0.652,-0.652 v -1.304 l -0.652,-0.652 z m 20.08,15.652 -0.925,0.652 -0.438,1.304 0.49,0.653 h 1.41 l 0.925,-0.653 0.436,-1.304 -0.487,-0.652 m -4.795,3.913 -0.392,1.304 h 1.174 l -2.479,6.522 h 3.913 l 0.482,-1.304 H 32.65 l 2.479,-6.522 m 1.563,0 -0.456,1.304 h 0.978 l -2.478,6.522 h 3.327 l 0.457,-1.304 h -0.719 l 1.371,-3.913 h 2.772 l -1.86,5.217 h 3.26 l 0.522,-1.304 H 43.15 l 1.369,-3.913 h 2.608 l -1.826,5.217 h 3.419 l 0.599,-1.304 h -0.912 l 1.852,-5.217 -1.045,-1.305 H 47.65 l -1.304,1.305 h -1.109 l -1.11,-1.305 H 42.89 l -1.239,1.305 h -1.304 l -1.174,-1.305"
     filter="url(#b)"
     opacity=".25"
     id="path10"
     style="opacity:0.35;fill:#000000;fill-opacity:1;filter:url(#b)" />
  <path
     d="m14.391 17.652-.652.652v1.304l.652.653h1.956v25.435l.653.652h1.956l28.696-26.74v-1.303L47 17.652H35.261l-.652.653v1.304l.652.652h1.957v1.304L22.87 34.608V20.26h1.956l.652-.652v-1.304l-.652-.652zm20.08 15.652-.925.652-.438 1.304.49.653h1.41l.925-.653.436-1.304-.487-.652m-4.795 3.913-.392 1.304h1.174l-2.479 6.522h3.913l.482-1.304H32.65l2.479-6.522m1.563 0-.456 1.304h.978l-2.478 6.522h3.327l.457-1.304h-.719l1.371-3.913h2.772l-1.86 5.217h3.26l.522-1.304h-.716l1.369-3.913h2.608l-1.826 5.217h3.419l.599-1.304h-.912l1.852-5.217-1.045-1.305H47.65l-1.304 1.305h-1.109l-1.11-1.305H42.89l-1.239 1.305h-1.304l-1.174-1.305"
     fill="url(#c)"
     id="path11"
     style="fill:#ffffff;fill-opacity:1" />
</svg>
