<?xml version="1.0" encoding="UTF-8"?>
<svg id="svg1443" width="128" height="128" version="1.1" viewBox="0 0 33.867 33.867" xmlns="http://www.w3.org/2000/svg" xmlns:cc="http://creativecommons.org/ns#" xmlns:dc="http://purl.org/dc/elements/1.1/" xmlns:rdf="http://www.w3.org/1999/02/22-rdf-syntax-ns#" xmlns:xlink="http://www.w3.org/1999/xlink">
 <defs id="defs1437">
  <linearGradient id="linearGradient1632" x1="132.21" x2="132.21" y1="42.152" y2="64.966" gradientTransform="matrix(.97573 0 0 .97573 -111.77 -37.183)" gradientUnits="userSpaceOnUse">
   <stop id="stop1626" stop-color="#ff875f" offset="0"/>
   <stop id="stop1628" stop-color="#f052c9" offset="1"/>
  </linearGradient>
 </defs>
 <metadata id="metadata1440">
  <rdf:RDF>
   <cc:Work rdf:about="">
    <dc:format>image/svg+xml</dc:format>
    <dc:type rdf:resource="http://purl.org/dc/dcmitype/StillImage"/>
   </cc:Work>
  </rdf:RDF>
 </metadata>
 <g id="layer1">
  <g id="g1702" transform="matrix(.97573 0 0 .97573 -65.737 -37.183)" fill="none" opacity=".295" stroke="#000" stroke-linecap="round" stroke-linejoin="round" stroke-opacity=".02">
   <rect id="rect1634" x="69.84" y="40.71" width="29.811" height="29.811" rx="6.6099" ry="6.6099" stroke-width=".1"/>
   <rect id="rect1638" x="69.84" y="40.71" width="29.811" height="29.811" rx="6.6099" ry="6.6099" stroke-width=".2"/>
   <rect id="rect1640" x="69.84" y="40.71" width="29.811" height="29.811" rx="6.6099" ry="6.6099" stroke-width=".3"/>
   <rect id="rect1642" x="69.84" y="40.71" width="29.811" height="29.811" rx="6.6099" ry="6.6099" stroke-width=".4"/>
   <rect id="rect1644" x="69.84" y="40.71" width="29.811" height="29.811" rx="6.6099" ry="6.6099" stroke-width=".5"/>
   <rect id="rect1646" x="69.84" y="40.71" width="29.811" height="29.811" rx="6.6099" ry="6.6099" stroke-width=".6"/>
   <rect id="rect1648" x="69.84" y="40.71" width="29.811" height="29.811" rx="6.6099" ry="6.6099" stroke-width=".7"/>
   <rect id="rect1650" x="69.84" y="40.71" width="29.811" height="29.811" rx="6.6099" ry="6.6099" stroke-width=".8"/>
   <rect id="rect1652" x="69.84" y="40.71" width="29.811" height="29.811" rx="6.6099" ry="6.6099"/>
   <rect id="rect1654" x="69.84" y="40.71" width="29.811" height="29.811" rx="6.6099" ry="6.6099" stroke-width="1.2"/>
   <rect id="rect1656" x="69.84" y="40.71" width="29.811" height="29.811" rx="6.6099" ry="6.6099" stroke-width="1.4"/>
   <rect id="rect1658" x="69.84" y="40.71" width="29.811" height="29.811" rx="6.6099" ry="6.6099" stroke-width="1.6"/>
   <rect id="rect1660" x="69.84" y="40.71" width="29.811" height="29.811" rx="6.6099" ry="6.6099" stroke-width="1.8"/>
   <rect id="rect1662" x="69.84" y="40.71" width="29.811" height="29.811" rx="6.6099" ry="6.6099" stroke-width="2"/>
   <rect id="rect1664" x="69.84" y="40.71" width="29.811" height="29.811" rx="6.6099" ry="6.6099" stroke-width="2.2"/>
   <rect id="rect1666" x="69.84" y="40.71" width="29.811" height="29.811" rx="6.6099" ry="6.6099" stroke-width="2.6"/>
   <rect id="rect1668" x="69.84" y="40.71" width="29.811" height="29.811" rx="6.6099" ry="6.6099" stroke-width="3"/>
   <rect id="rect1670" x="69.84" y="40.71" width="29.811" height="29.811" rx="6.6099" ry="6.6099" stroke-width="3.4"/>
   <rect id="rect1672" x="69.84" y="40.71" width="29.811" height="29.811" rx="6.6099" ry="6.6099" stroke-width="3.8"/>
   <rect id="rect1674" x="69.84" y="40.71" width="29.811" height="29.811" rx="6.6099" ry="6.6099" stroke-width="4.2"/>
   <rect id="rect1676" x="69.84" y="40.71" width="29.811" height="29.811" rx="6.6099" ry="6.6099" stroke-width="4.6"/>
   <rect id="rect1678" x="69.84" y="40.71" width="29.811" height="29.811" rx="6.6099" ry="6.6099" stroke-width="5"/>
  </g>
  <rect id="rect849" x="2.4074" y="2.5392" width="29.087" height="29.087" rx="6.4495" ry="6.4495" fill="url(#linearGradient1632)" stroke-linecap="round" stroke-linejoin="round" stroke-width="2.6877"/>
  <g id="g1246" fill="#2d0000" fill-opacity=".032428" stroke-width=".53695">
   <path id="path1138" d="m17.263 5.9674v2.6848s-8.5913 0.32217-8.5913 8.5913c0 2.1478 1.0739 3.7587 1.0739 3.7587v-3.7587c0-3.7587 4.5104-5.9065 7.5174-5.9065h5.3695zm7.5174 7.5174v3.7587c0 3.7587-4.5104 5.9065-7.5174 5.9065h-5.3695l5.3695 5.3695v-2.6848s8.5913-0.32217 8.5913-8.5913c0-2.1478-1.0739-3.7587-1.0739-3.7587zm-9.1282 0.53696v6.4434l4.8326-3.2217z"/>
   <path id="path1230" d="m17.334 6.1909v2.6848s-8.5913 0.32217-8.5913 8.5913c0 2.1478 1.0739 3.7587 1.0739 3.7587v-3.7587c0-3.7587 4.5104-5.9065 7.5174-5.9065h5.3695zm7.5174 7.5174v3.7587c0 3.7587-4.5104 5.9065-7.5174 5.9065h-5.3695l5.3695 5.3695v-2.6848s8.5913-0.32217 8.5913-8.5913c0-2.1478-1.0739-3.7587-1.0739-3.7587zm-9.1282 0.53696v6.4434l4.8326-3.2217z"/>
   <path id="path1232" d="m17.37 6.4366v2.6848s-8.5913 0.32217-8.5913 8.5913c0 2.1478 1.0739 3.7587 1.0739 3.7587v-3.7587c0-3.7587 4.5104-5.9065 7.5174-5.9065h5.3695zm7.5174 7.5174v3.7587c0 3.7587-4.5104 5.9065-7.5174 5.9065h-5.3695l5.3695 5.3695v-2.6848s8.5913-0.32217 8.5913-8.5913c0-2.1478-1.0739-3.7587-1.0739-3.7587zm-9.1282 0.53696v6.4434l4.8326-3.2217z"/>
   <path id="path1234" d="m17.4 6.6039v2.6848s-8.5913 0.32217-8.5913 8.5913c0 2.1478 1.0739 3.7587 1.0739 3.7587v-3.7587c0-3.7587 4.5104-5.9065 7.5174-5.9065h5.3695zm7.5174 7.5174v3.7587c0 3.7587-4.5104 5.9065-7.5174 5.9065h-5.3695l5.3695 5.3695v-2.6848s8.5913-0.32217 8.5913-8.5913c0-2.1478-1.0739-3.7587-1.0739-3.7587zm-9.1282 0.53696v6.4434l4.8326-3.2217z"/>
   <path id="path1236" d="m17.4 6.7823v2.6848s-8.5913 0.32217-8.5913 8.5913c0 2.1478 1.0739 3.7587 1.0739 3.7587v-3.7587c0-3.7587 4.5104-5.9065 7.5174-5.9065h5.3695zm7.5174 7.5174v3.7587c0 3.7587-4.5104 5.9065-7.5174 5.9065h-5.3695l5.3695 5.3695v-2.6848s8.5913-0.32217 8.5913-8.5913c0-2.1478-1.0739-3.7587-1.0739-3.7587zm-9.1282 0.53696v6.4434l4.8326-3.2217z"/>
   <path id="path1238" d="m17.45 6.9172v2.6848s-8.5913 0.32217-8.5913 8.5913c0 2.1478 1.0739 3.7587 1.0739 3.7587v-3.7587c0-3.7587 4.5104-5.9065 7.5174-5.9065h5.3695zm7.5174 7.5174v3.7587c0 3.7587-4.5104 5.9065-7.5174 5.9065h-5.3695l5.3695 5.3695v-2.6848s8.5913-0.32217 8.5913-8.5913c0-2.1478-1.0739-3.7587-1.0739-3.7587zm-9.1282 0.53696v6.4434l4.8326-3.2217z"/>
  </g>
  <path id="path10" d="m16.951 5.8069v2.6848s-8.5913 0.32217-8.5913 8.5913c0 2.1478 1.0739 3.7587 1.0739 3.7587v-3.7587c0-3.7587 4.5104-5.9065 7.5174-5.9065h5.3695zm7.5174 7.5174v3.7587c0 3.7587-4.5104 5.9065-7.5174 5.9065h-5.3695l5.3695 5.3695v-2.6848s8.5913-0.32217 8.5913-8.5913c0-2.1478-1.0739-3.7587-1.0739-3.7587zm-9.1282 0.53696v6.4434l4.8326-3.2217z" fill="#f9f9f9" stroke-width=".53695"/>
 </g>
</svg>
