<?xml version="1.0" encoding="UTF-8"?>
<svg id="svg2547" width="128" height="128" version="1.1" viewBox="0 0 33.867 33.867" xmlns="http://www.w3.org/2000/svg" xmlns:cc="http://creativecommons.org/ns#" xmlns:dc="http://purl.org/dc/elements/1.1/" xmlns:rdf="http://www.w3.org/1999/02/22-rdf-syntax-ns#" xmlns:xlink="http://www.w3.org/1999/xlink">
 <defs id="defs2541">
  <linearGradient id="linearGradient936" x1="-27.206" x2="-27.206" y1="-1.3796" y2="25.268" gradientTransform="translate(43.842 5.6325)" gradientUnits="userSpaceOnUse">
   <stop id="stop930" stop-color="#f5f9fb" offset="0"/>
   <stop id="stop932" stop-color="#f5eeec" offset="1"/>
  </linearGradient>
 </defs>
 <metadata id="metadata2544">
  <rdf:RDF>
   <cc:Work rdf:about="">
    <dc:format>image/svg+xml</dc:format>
    <dc:type rdf:resource="http://purl.org/dc/dcmitype/StillImage"/>
   </cc:Work>
  </rdf:RDF>
 </metadata>
 <g id="layer1">
  <g id="g1702" transform="matrix(.97573 0 0 .97573 -65.777 -37.256)" fill="none" opacity=".29676" stroke="#000" stroke-linecap="round" stroke-linejoin="round" stroke-opacity=".02">
   <rect id="rect1634" x="69.84" y="40.71" width="29.811" height="29.811" rx="6.6099" ry="6.6099" stroke-width=".1"/>
   <rect id="rect1638" x="69.84" y="40.71" width="29.811" height="29.811" rx="6.6099" ry="6.6099" stroke-width=".2"/>
   <rect id="rect1640" x="69.84" y="40.71" width="29.811" height="29.811" rx="6.6099" ry="6.6099" stroke-width=".3"/>
   <rect id="rect1642" x="69.84" y="40.71" width="29.811" height="29.811" rx="6.6099" ry="6.6099" stroke-width=".4"/>
   <rect id="rect1644" x="69.84" y="40.71" width="29.811" height="29.811" rx="6.6099" ry="6.6099" stroke-width=".5"/>
   <rect id="rect1646" x="69.84" y="40.71" width="29.811" height="29.811" rx="6.6099" ry="6.6099" stroke-width=".6"/>
   <rect id="rect1648" x="69.84" y="40.71" width="29.811" height="29.811" rx="6.6099" ry="6.6099" stroke-width=".7"/>
   <rect id="rect1650" x="69.84" y="40.71" width="29.811" height="29.811" rx="6.6099" ry="6.6099" stroke-width=".8"/>
   <rect id="rect1652" x="69.84" y="40.71" width="29.811" height="29.811" rx="6.6099" ry="6.6099"/>
   <rect id="rect1654" x="69.84" y="40.71" width="29.811" height="29.811" rx="6.6099" ry="6.6099" stroke-width="1.2"/>
   <rect id="rect1656" x="69.84" y="40.71" width="29.811" height="29.811" rx="6.6099" ry="6.6099" stroke-width="1.4"/>
   <rect id="rect1658" x="69.84" y="40.71" width="29.811" height="29.811" rx="6.6099" ry="6.6099" stroke-width="1.6"/>
   <rect id="rect1660" x="69.84" y="40.71" width="29.811" height="29.811" rx="6.6099" ry="6.6099" stroke-width="1.8"/>
   <rect id="rect1662" x="69.84" y="40.71" width="29.811" height="29.811" rx="6.6099" ry="6.6099" stroke-width="2"/>
   <rect id="rect1664" x="69.84" y="40.71" width="29.811" height="29.811" rx="6.6099" ry="6.6099" stroke-width="2.2"/>
   <rect id="rect1666" x="69.84" y="40.71" width="29.811" height="29.811" rx="6.6099" ry="6.6099" stroke-width="2.6"/>
   <rect id="rect1668" x="69.84" y="40.71" width="29.811" height="29.811" rx="6.6099" ry="6.6099" stroke-width="3"/>
   <rect id="rect1670" x="69.84" y="40.71" width="29.811" height="29.811" rx="6.6099" ry="6.6099" stroke-width="3.4"/>
   <rect id="rect1672" x="69.84" y="40.71" width="29.811" height="29.811" rx="6.6099" ry="6.6099" stroke-width="3.8"/>
   <rect id="rect1674" x="69.84" y="40.71" width="29.811" height="29.811" rx="6.6099" ry="6.6099" stroke-width="4.2"/>
   <rect id="rect1676" x="69.84" y="40.71" width="29.811" height="29.811" rx="6.6099" ry="6.6099" stroke-width="4.6"/>
   <rect id="rect1678" x="69.84" y="40.71" width="29.811" height="29.811" rx="6.6099" ry="6.6099" stroke-width="5"/>
  </g>
  <rect id="rect849-5" x="2.3673" y="2.4659" width="29.087" height="29.087" rx="6.4495" ry="6.4495" fill="url(#linearGradient936)" stroke-linecap="round" stroke-linejoin="round" stroke-width="2.6877"/>
  <path id="path6" class="st0" d="m12.349 10.552c-0.14768 0-0.29704 0.03737-0.43217 0.11142l-6.0458 3.3178c-0.26253 0.14812-0.42429 0.41457-0.42429 0.7034v6.7099c0 0.28882 0.16175 0.56269 0.42429 0.7034l6.0537 3.3245c0.26253 0.14812 0.58733 0.14812 0.85758 0l2.8023-1.5396c0.09267-0.05183 0.09267-0.18562 0-0.23747l-1.4045-0.7698c-0.04632-0.02222-0.10094-0.02222-0.13956 0l-1.6139 0.88797c-0.04633 0.02221-0.09981 0.02221-0.13842 0l-5.0813-2.7911c-0.05405-0.01481-0.18629-0.11141-0.13281-0.11141v-5.6362c0-0.05183 0.086312-0.09596 0.12492-0.11817l5.0813-2.7922c0.04632-0.02221 0.09981-0.02221 0.13842 0l5.186 2.8147c0.04632 0.02222 0.04388 0.06634 0.04388 0.11817v4.9474c0 0.05183 0.05706 0.09595 0.09567 0.11817l1.3156 0.7698c0.09266 0.05183 0.21608-0.01459 0.21608-0.11817v-6.2574c0-0.28882-0.16175-0.56382-0.42429-0.70452l-6.0774-3.3392c-0.13126-0.07404-0.27774-0.11141-0.42541-0.11141zm9.2466 0c-0.14759 0-0.29599 0.03739-0.43104 0.11142l-2.8012 1.5396c-0.0926 0.0518-0.0926 0.18453 0 0.23634l1.4045 0.7698c0.0463 0.02219 0.09983 0.02219 0.13842 0l1.6128-0.88797c0.0463-0.02221 0.10096-0.02221 0.13956 0l5.078 2.79c0.05403 0.02219 0.13167 0.1193 0.13167 0.1193v5.6328c0 0.05181-0.08636 0.09595-0.12492 0.11817l-5.078 2.7911c-0.0463 0.02222-0.09983 0.02222-0.13842 0l-5.1005-2.8136c-0.0463-0.02221-0.13274-0.06634-0.1328-0.11817l-0.0068-4.944c-6.4e-5 -0.05181-0.03005-0.09709-0.06864-0.1193l-1.3359-0.7698c-0.0926-0.0518-0.21609 0.01567-0.21609 0.1193v6.254c0 0.28868 0.1619 0.56276 0.42429 0.7034l6.074 3.338c0.26239 0.14805 0.58635 0.14805 0.85646 0l6.0503-3.3234c0.26239-0.14805 0.42429-0.41472 0.42429-0.7034v-6.7054c0-0.28868-0.1619-0.56276-0.42429-0.7034l-6.0503-3.3234c-0.13119-0.07402-0.27782-0.11142-0.42542-0.11142zm-11.827 6.9147a0.86433 0.86433 0 0 0-0.86434 0.86434 0.86433 0.86433 0 0 0 0.86434 0.86434 0.86433 0.86433 0 0 0 0.86433-0.86434 0.86433 0.86433 0 0 0-0.86433-0.86434zm2.8811 0a0.86433 0.86433 0 0 0-0.86434 0.86434 0.86433 0.86433 0 0 0 0.86434 0.86434 0.86433 0.86433 0 0 0 0.86434-0.86434 0.86433 0.86433 0 0 0-0.86434-0.86434zm8.6433 0a0.86433 0.86433 0 0 0-0.86433 0.86434 0.86433 0.86433 0 0 0 0.86433 0.86434 0.86433 0.86433 0 0 0 0.86434-0.86434 0.86433 0.86433 0 0 0-0.86434-0.86434zm2.8811 0a0.86433 0.86433 0 0 0-0.86433 0.86434 0.86433 0.86433 0 0 0 0.86433 0.86434 0.86433 0.86433 0 0 0 0.86434-0.86434 0.86433 0.86433 0 0 0-0.86434-0.86434z" opacity=".2" stroke-width=".57622"/>
  <path id="path8" class="st0" d="m26.868 14.654v5.633c0 0.05181-0.08627 0.09621-0.12484 0.11843l-5.078 2.7906c-0.0463 0.02222-0.10031 0.02222-0.1389 0l-5.1008-2.8128c-0.0463-0.02221-0.13285-0.06662-0.13292-0.11843l-0.0059-4.9446c-6.5e-5 -0.0518-0.03086-0.09624-0.06945-0.11843l-1.3355-0.76981c-0.0926-0.05181-0.21609 0.01481-0.21609 0.11843v6.2548c0 0.28868 0.16205 0.56256 0.42445 0.7032l6.0735 3.3383c0.26239 0.14805 0.58651 0.14805 0.85662 0l6.0503-3.3235c0.26239-0.14805 0.42445-0.41452 0.42445-0.70319v-6.7063c0-0.28868-0.16205-0.56256-0.42445-0.7032l-6.0504-3.3235c-0.26239-0.14805-0.58651-0.14805-0.85662 0l-2.8014 1.5396c-0.0926 0.05181-0.0926 0.18505 0 0.23687l1.4045 0.76982c0.0463 0.02219 0.10031 0.02219 0.1389 0l1.6129-0.88825c0.0463-0.02222 0.10031-0.02222 0.1389 0l5.078 2.7906c0.05403 0.02219 0.13254 0.11843 0.13254 0.11843z" fill="#ff9e30" stroke-width=".57622"/>
  <circle id="circle10" class="st1" cx="24.174" cy="17.754" r=".86433" fill="#262c3f" stroke-width=".57622"/>
  <circle id="circle12" class="st1" cx="21.293" cy="17.754" r=".86433" fill="#262c3f" stroke-width=".57622"/>
  <path id="path14" class="st1" d="m7.0735 20.284-2.3e-6 -5.6358c0-0.05184 0.087203-0.09628 0.12582-0.1185l5.0808-2.792c0.04632-0.02222 0.10037-0.02222 0.13899 0l5.1855 2.8142c0.04632 0.02222 0.04427 0.06667 0.04427 0.1185v4.947c0 0.05183 0.0561 0.09628 0.09471 0.1185l1.3161 0.7702c0.09265 0.05183 0.2162-0.01481 0.2162-0.1185v-6.2578c0-0.28882-0.16216-0.56284-0.42469-0.70354l-6.0769-3.34c-0.26253-0.14811-0.58684-0.14811-0.8571 0l-6.046 3.3178c-0.26254 0.14812-0.42469 0.41472-0.42469 0.70354v6.7096c0 0.28883 0.16214 0.56284 0.42469 0.70355l6.0537 3.3252c0.26253 0.14812 0.58684 0.14812 0.8571 0l2.8029-1.5404c0.09267-0.05183 0.09267-0.18514 0-0.23698l-1.4053-0.7702c-0.04632-0.02221-0.10038-0.02221-0.13899 0l-1.6138 0.88869c-0.04632 0.02222-0.10038 0.02222-0.13899 0l-5.0808-2.792c-0.05405-0.01481-0.18701-0.1111-0.13355-0.1111z" fill="#262c3f" stroke-width=".57622"/>
  <circle id="circle16" class="st0" cx="9.7682" cy="17.754" r=".86433" fill="#ff9e30" stroke-width=".57622"/>
  <circle id="circle18" class="st0" cx="12.649" cy="17.754" r=".86433" fill="#ff9e30" stroke-width=".57622"/>
 </g>
</svg>
