<?xml version="1.0" encoding="UTF-8" standalone="no"?>
<svg
   id="svg6"
   width="512"
   height="512"
   version="1.1"
   viewBox="0 0 33.867 33.867"
   sodipodi:docname="com.wiz.Note.svg"
   inkscape:version="1.4.4 (dcaf3e7d9e, 2026-05-05)"
   xmlns:inkscape="http://www.inkscape.org/namespaces/inkscape"
   xmlns:sodipodi="http://sodipodi.sourceforge.net/DTD/sodipodi-0.dtd"
   xmlns="http://www.w3.org/2000/svg"
   xmlns:svg="http://www.w3.org/2000/svg"
   xmlns:rdf="http://www.w3.org/1999/02/22-rdf-syntax-ns#"
   xmlns:cc="http://creativecommons.org/ns#"
   xmlns:dc="http://purl.org/dc/elements/1.1/">
  <sodipodi:namedview
     id="namedview1"
     pagecolor="#ffffff"
     bordercolor="#999999"
     borderopacity="1"
     inkscape:showpageshadow="2"
     inkscape:pageopacity="0"
     inkscape:pagecheckerboard="0"
     inkscape:deskcolor="#d1d1d1"
     inkscape:zoom="2.2617188"
     inkscape:cx="255.77893"
     inkscape:cy="256"
     inkscape:window-width="2560"
     inkscape:window-height="1371"
     inkscape:window-x="0"
     inkscape:window-y="0"
     inkscape:window-maximized="1"
     inkscape:current-layer="svg6" />
  <metadata
     id="metadata170">
    <rdf:RDF>
      <cc:Work
         rdf:about="">
        <dc:format>image/svg+xml</dc:format>
        <dc:type
           rdf:resource="http://purl.org/dc/dcmitype/StillImage" />
        <dc:title />
      </cc:Work>
    </rdf:RDF>
  </metadata>
  <defs
     id="defs2">
    <linearGradient
       id="linearGradient1632"
       x1="132.21"
       x2="132.21"
       y1="42.152"
       y2="70.68"
       gradientTransform="matrix(.97573 0 0 .97573 -111.78 -37.203)"
       gradientUnits="userSpaceOnUse">
      <stop
         id="stop1626"
         stop-color="#00beec"
         offset="0" />
      <stop
         id="stop1628"
         stop-color="#1841e1"
         offset="1" />
    </linearGradient>
    <linearGradient
       id="linearGradient1081"
       x1="6.544"
       x2="6.544"
       y1="17.524"
       y2="43.114"
       gradientUnits="userSpaceOnUse">
      <stop
         id="stop1075"
         stop-color="#fff"
         offset="0" />
      <stop
         id="stop1077"
         stop-color="#004cd7"
         offset="1" />
    </linearGradient>
    <filter
       inkscape:collect="always"
       style="color-interpolation-filters:sRGB"
       id="filter1"
       x="-0.06818206"
       y="-0.08333298"
       width="1.1363641"
       height="1.166666">
      <feGaussianBlur
         inkscape:collect="always"
         stdDeviation="0.60449359"
         id="feGaussianBlur1" />
    </filter>
  </defs>
  <g
     id="layer1">
    <g
       id="g1702"
       transform="matrix(.97573 0 0 .97573 -65.748 -37.203)"
       fill="none"
       opacity=".20513"
       stroke="#000"
       stroke-linecap="round"
       stroke-linejoin="round"
       stroke-opacity=".02">
      <rect
         id="rect1634"
         x="69.84"
         y="40.71"
         width="29.811"
         height="29.811"
         rx="6.6099"
         ry="6.6099"
         stroke-width=".1" />
      <rect
         id="rect1638"
         x="69.84"
         y="40.71"
         width="29.811"
         height="29.811"
         rx="6.6099"
         ry="6.6099"
         stroke-width=".2" />
      <rect
         id="rect1640"
         x="69.84"
         y="40.71"
         width="29.811"
         height="29.811"
         rx="6.6099"
         ry="6.6099"
         stroke-width=".3" />
      <rect
         id="rect1642"
         x="69.84"
         y="40.71"
         width="29.811"
         height="29.811"
         rx="6.6099"
         ry="6.6099"
         stroke-width=".4" />
      <rect
         id="rect1644"
         x="69.84"
         y="40.71"
         width="29.811"
         height="29.811"
         rx="6.6099"
         ry="6.6099"
         stroke-width=".5" />
      <rect
         id="rect1646"
         x="69.84"
         y="40.71"
         width="29.811"
         height="29.811"
         rx="6.6099"
         ry="6.6099"
         stroke-width=".6" />
      <rect
         id="rect1648"
         x="69.84"
         y="40.71"
         width="29.811"
         height="29.811"
         rx="6.6099"
         ry="6.6099"
         stroke-width=".7" />
      <rect
         id="rect1650"
         x="69.84"
         y="40.71"
         width="29.811"
         height="29.811"
         rx="6.6099"
         ry="6.6099"
         stroke-width=".8" />
      <rect
         id="rect1652"
         x="69.84"
         y="40.71"
         width="29.811"
         height="29.811"
         rx="6.6099"
         ry="6.6099" />
      <rect
         id="rect1654"
         x="69.84"
         y="40.71"
         width="29.811"
         height="29.811"
         rx="6.6099"
         ry="6.6099"
         stroke-width="1.2" />
      <rect
         id="rect1656"
         x="69.84"
         y="40.71"
         width="29.811"
         height="29.811"
         rx="6.6099"
         ry="6.6099"
         stroke-width="1.4" />
      <rect
         id="rect1658"
         x="69.84"
         y="40.71"
         width="29.811"
         height="29.811"
         rx="6.6099"
         ry="6.6099"
         stroke-width="1.6" />
      <rect
         id="rect1660"
         x="69.84"
         y="40.71"
         width="29.811"
         height="29.811"
         rx="6.6099"
         ry="6.6099"
         stroke-width="1.8" />
      <rect
         id="rect1662"
         x="69.84"
         y="40.71"
         width="29.811"
         height="29.811"
         rx="6.6099"
         ry="6.6099"
         stroke-width="2" />
      <rect
         id="rect1664"
         x="69.84"
         y="40.71"
         width="29.811"
         height="29.811"
         rx="6.6099"
         ry="6.6099"
         stroke-width="2.2" />
      <rect
         id="rect1666"
         x="69.84"
         y="40.71"
         width="29.811"
         height="29.811"
         rx="6.6099"
         ry="6.6099"
         stroke-width="2.6" />
      <rect
         id="rect1668"
         x="69.84"
         y="40.71"
         width="29.811"
         height="29.811"
         rx="6.6099"
         ry="6.6099"
         stroke-width="3" />
      <rect
         id="rect1670"
         x="69.84"
         y="40.71"
         width="29.811"
         height="29.811"
         rx="6.6099"
         ry="6.6099"
         stroke-width="3.4" />
      <rect
         id="rect1672"
         x="69.84"
         y="40.71"
         width="29.811"
         height="29.811"
         rx="6.6099"
         ry="6.6099"
         stroke-width="3.8" />
      <rect
         id="rect1674"
         x="69.84"
         y="40.71"
         width="29.811"
         height="29.811"
         rx="6.6099"
         ry="6.6099"
         stroke-width="4.2" />
      <rect
         id="rect1676"
         x="69.84"
         y="40.71"
         width="29.811"
         height="29.811"
         rx="6.6099"
         ry="6.6099"
         stroke-width="4.6" />
      <rect
         id="rect1678"
         x="69.84"
         y="40.71"
         width="29.811"
         height="29.811"
         rx="6.6099"
         ry="6.6099"
         stroke-width="5" />
    </g>
    <rect
       id="rect849"
       x="2.3963"
       y="2.5186"
       width="29.087"
       height="29.087"
       rx="6.4495"
       ry="6.4495"
       fill="url(#linearGradient1632)"
       stroke-linecap="round"
       stroke-linejoin="round"
       stroke-width="2.6877" />
    <path
       id="path1083"
       d="m 21.206242,10.328586 -1.9344,7.7375 -0.96718,-3.8687 -4.8359,0.96718 -1.4508,3.8687 -1.4508,-5.8031 -3.8687,0.96718 2.9016,11.675 3.8687,0.60836 1.9344,-2.6114 0.9372,2.9364 5.8331,0.93237 5.8031,-16.442 z"
       fill="#001357"
       fill-opacity="0.33701"
       stroke-width="0.48359"
       style="opacity:0.34;fill:#000000;fill-opacity:0.33701;filter:url(#filter1)" />
    <path
       id="path6"
       d="m21.052 8.8191-1.9344 7.7375-0.96718-3.8687-4.8359 0.96718-1.4508 3.8687-1.4508-5.8031-3.8687 0.96718 2.9016 11.675 3.8687 0.60836 1.9344-2.6114 0.9372 2.9364 5.8331 0.93237 5.8031-16.442z"
       fill="url(#linearGradient1081)"
       stroke-width=".48359"
       style="fill:#ffffff;fill-opacity:1" />
  </g>
</svg>
