<?xml version="1.0" encoding="UTF-8" standalone="no"?>
<svg
   id="svg6"
   width="512"
   height="512"
   version="1.1"
   viewBox="0 0 33.867 33.867"
   sodipodi:docname="x-plane.svg"
   inkscape:version="1.4.4 (dcaf3e7d9e, 2026-05-05)"
   xmlns:inkscape="http://www.inkscape.org/namespaces/inkscape"
   xmlns:sodipodi="http://sodipodi.sourceforge.net/DTD/sodipodi-0.dtd"
   xmlns="http://www.w3.org/2000/svg"
   xmlns:svg="http://www.w3.org/2000/svg"
   xmlns:rdf="http://www.w3.org/1999/02/22-rdf-syntax-ns#"
   xmlns:cc="http://creativecommons.org/ns#"
   xmlns:dc="http://purl.org/dc/elements/1.1/">
  <sodipodi:namedview
     id="namedview1"
     pagecolor="#ffffff"
     bordercolor="#999999"
     borderopacity="1"
     inkscape:showpageshadow="2"
     inkscape:pageopacity="0"
     inkscape:pagecheckerboard="0"
     inkscape:deskcolor="#d1d1d1"
     inkscape:zoom="2.2617188"
     inkscape:cx="255.77893"
     inkscape:cy="256"
     inkscape:window-width="2560"
     inkscape:window-height="1371"
     inkscape:window-x="0"
     inkscape:window-y="0"
     inkscape:window-maximized="1"
     inkscape:current-layer="svg6" />
  <metadata
     id="metadata99">
    <rdf:RDF>
      <cc:Work
         rdf:about="">
        <dc:format>image/svg+xml</dc:format>
        <dc:type
           rdf:resource="http://purl.org/dc/dcmitype/StillImage" />
        <dc:title />
      </cc:Work>
    </rdf:RDF>
  </metadata>
  <defs
     id="defs2">
    <linearGradient
       id="linearGradient1632"
       x1="132.21"
       x2="132.21"
       y1="42.152"
       y2="70.68"
       gradientTransform="matrix(0.97573,0,0,0.97573,-111.78,-37.203)"
       gradientUnits="userSpaceOnUse">
      <stop
         id="stop1626"
         stop-color="#292929"
         offset="0"
         style="stop-color:#77767b;stop-opacity:1" />
      <stop
         id="stop1628"
         stop-color="#080808"
         offset="1"
         style="stop-color:#241f31;stop-opacity:1" />
    </linearGradient>
    <filter
       inkscape:collect="always"
       style="color-interpolation-filters:sRGB"
       id="filter1"
       x="-0.074999171"
       y="-0.075000838"
       width="1.1499983"
       height="1.1500017">
      <feGaussianBlur
         inkscape:collect="always"
         stdDeviation="0.53526345"
         id="feGaussianBlur1" />
    </filter>
  </defs>
  <g
     id="g1702"
     transform="matrix(0.97573,0,0,0.97573,-65.748,-37.203)"
     fill="none"
     opacity="0.29677"
     stroke="#000000"
     stroke-linecap="round"
     stroke-linejoin="round"
     stroke-opacity="0.02">
    <rect
       id="rect1634"
       x="69.839996"
       y="40.709999"
       width="29.811001"
       height="29.811001"
       rx="6.6099"
       ry="6.6099"
       stroke-width="0.1" />
    <rect
       id="rect1638"
       x="69.839996"
       y="40.709999"
       width="29.811001"
       height="29.811001"
       rx="6.6099"
       ry="6.6099"
       stroke-width="0.2" />
    <rect
       id="rect1640"
       x="69.839996"
       y="40.709999"
       width="29.811001"
       height="29.811001"
       rx="6.6099"
       ry="6.6099"
       stroke-width="0.3" />
    <rect
       id="rect1642"
       x="69.839996"
       y="40.709999"
       width="29.811001"
       height="29.811001"
       rx="6.6099"
       ry="6.6099"
       stroke-width="0.4" />
    <rect
       id="rect1644"
       x="69.839996"
       y="40.709999"
       width="29.811001"
       height="29.811001"
       rx="6.6099"
       ry="6.6099"
       stroke-width="0.5" />
    <rect
       id="rect1646"
       x="69.839996"
       y="40.709999"
       width="29.811001"
       height="29.811001"
       rx="6.6099"
       ry="6.6099"
       stroke-width="0.6" />
    <rect
       id="rect1648"
       x="69.839996"
       y="40.709999"
       width="29.811001"
       height="29.811001"
       rx="6.6099"
       ry="6.6099"
       stroke-width="0.7" />
    <rect
       id="rect1650"
       x="69.839996"
       y="40.709999"
       width="29.811001"
       height="29.811001"
       rx="6.6099"
       ry="6.6099"
       stroke-width="0.8" />
    <rect
       id="rect1652"
       x="69.839996"
       y="40.709999"
       width="29.811001"
       height="29.811001"
       rx="6.6099"
       ry="6.6099" />
    <rect
       id="rect1654"
       x="69.839996"
       y="40.709999"
       width="29.811001"
       height="29.811001"
       rx="6.6099"
       ry="6.6099"
       stroke-width="1.2" />
    <rect
       id="rect1656"
       x="69.839996"
       y="40.709999"
       width="29.811001"
       height="29.811001"
       rx="6.6099"
       ry="6.6099"
       stroke-width="1.4" />
    <rect
       id="rect1658"
       x="69.839996"
       y="40.709999"
       width="29.811001"
       height="29.811001"
       rx="6.6099"
       ry="6.6099"
       stroke-width="1.6" />
    <rect
       id="rect1660"
       x="69.839996"
       y="40.709999"
       width="29.811001"
       height="29.811001"
       rx="6.6099"
       ry="6.6099"
       stroke-width="1.8" />
    <rect
       id="rect1662"
       x="69.839996"
       y="40.709999"
       width="29.811001"
       height="29.811001"
       rx="6.6099"
       ry="6.6099"
       stroke-width="2" />
    <rect
       id="rect1664"
       x="69.839996"
       y="40.709999"
       width="29.811001"
       height="29.811001"
       rx="6.6099"
       ry="6.6099"
       stroke-width="2.2" />
    <rect
       id="rect1666"
       x="69.839996"
       y="40.709999"
       width="29.811001"
       height="29.811001"
       rx="6.6099"
       ry="6.6099"
       stroke-width="2.6" />
    <rect
       id="rect1668"
       x="69.839996"
       y="40.709999"
       width="29.811001"
       height="29.811001"
       rx="6.6099"
       ry="6.6099"
       stroke-width="3" />
    <rect
       id="rect1670"
       x="69.839996"
       y="40.709999"
       width="29.811001"
       height="29.811001"
       rx="6.6099"
       ry="6.6099"
       stroke-width="3.4" />
    <rect
       id="rect1672"
       x="69.839996"
       y="40.709999"
       width="29.811001"
       height="29.811001"
       rx="6.6099"
       ry="6.6099"
       stroke-width="3.8" />
    <rect
       id="rect1674"
       x="69.839996"
       y="40.709999"
       width="29.811001"
       height="29.811001"
       rx="6.6099"
       ry="6.6099"
       stroke-width="4.2" />
    <rect
       id="rect1676"
       x="69.839996"
       y="40.709999"
       width="29.811001"
       height="29.811001"
       rx="6.6099"
       ry="6.6099"
       stroke-width="4.6" />
    <rect
       id="rect1678"
       x="69.839996"
       y="40.709999"
       width="29.811001"
       height="29.811001"
       rx="6.6099"
       ry="6.6099"
       stroke-width="5" />
  </g>
  <rect
     id="rect849"
     x="2.3963001"
     y="2.5186"
     width="29.087"
     height="29.087"
     rx="6.4495001"
     ry="6.4495001"
     fill="url(#linearGradient1632)"
     stroke-linecap="round"
     stroke-linejoin="round"
     stroke-width="2.6877"
     style="fill:url(#linearGradient1632)" />
  <path
     id="path869-2-3"
     d="m 24.378,12.617465 c 0.70308,-0.94112 1.1239,-1.9182 1.1259,-2.6163 C 25.5028,9.775115 25.45771,9.598455 25.37144,9.466855 25.36244,9.450742 25.3375,9.408637 25.29366,9.367134 25.25004,9.323885 25.21087,9.30075 25.20239,9.296072 25.06436,9.203937 24.88685,9.159492 24.66074,9.159492 c -0.69634,0.00106 -1.6737,0.42172 -2.6151,1.126 -0.76094,0.56941 -1.5219,1.3713 -2.5754,2.4818 -0.1787,0.18833 -0.36675,0.38634 -0.56564,0.59399 l -2.0405,-0.61154 0.0061,-0.0058 c 0.0848,-0.0857 0.13308,-0.20355 0.13191,-0.31937 0.0012,-0.12225 -0.04825,-0.24011 -0.13336,-0.32491 l -0.36849,-0.36907 c -0.08511,-0.0857 -0.20269,-0.13482 -0.32432,-0.13482 -0.12284,0 -0.23748,0.04737 -0.32318,0.13395 l -0.55128,0.55158 -0.29188,-0.08715 c 0.06289,-0.07985 0.09768,-0.17957 0.0965,-0.27784 0.0012,-0.12402 -0.04679,-0.23952 -0.13306,-0.32522 l -0.37025,-0.37026 c -0.08452,-0.0848 -0.20151,-0.13336 -0.32432,-0.13336 -0.12225,0 -0.23661,0.04769 -0.32141,0.13395 l -0.50594,0.50566 -2.0747,-0.62147 c -0.04649,-0.01376 -0.09563,-0.02104 -0.14828,-0.02104 -0.14738,0.0016 -0.28396,0.05645 -0.38368,0.1553 l -0.72939,0.72967 c -0.08279,0.08276 -0.12928,0.19477 -0.12838,0.30092 -0.0026,0.15645 0.08394,0.30093 0.22256,0.37521 l 4.3629,2.4373 c 0.02135,0.01199 0.08307,0.05762 0.10588,0.08043 l 1.2438,1.2435 c -1.1634,1.2257 -2.1999,2.4128 -3.0076,3.4454 -0.07546,0.09594 -0.14682,0.18951 -0.21702,0.28223 l -3.3752,-0.30652 c -0.01638,-0.0021 -0.03482,-0.0037 -0.05821,-0.0037 -0.15472,0.0032 -0.30591,0.06437 -0.41819,0.17285 l -0.34014,0.33982 c -0.083935,0.08219 -0.13132,0.1933 -0.13014,0.30064 -0.00262,0.16378 0.096502,0.31525 0.24537,0.38164 l 2.3744,1.1277 c 0.02046,0.01022 0.07369,0.04796 0.09096,0.06521 l 0.19712,0.19567 c -0.06171,0.17372 -0.093,0.32432 -0.09477,0.45654 -6.08e-4,0.17691 0.05645,0.32841 0.16555,0.43751 l 0.0085,0.0073 0.0023,0.0016 c 0.11201,0.10851 0.25707,0.16379 0.43664,0.16379 0.12928,-0.0021 0.27842,-0.03276 0.45273,-0.09415 l 0.20003,0.19975 c 0.01551,0.01638 0.05265,0.06843 0.0623,0.0892 l 1.1254,2.3692 c 0.06874,0.15119 0.21699,0.24915 0.37842,0.24915 h 0.0023 c 0.11173,0 0.21847,-0.04475 0.30006,-0.12662 l 0.34831,-0.34948 c 0.10322,-0.10879 0.16406,-0.25881 0.16639,-0.41702 0,-0.01926 -8.73e-4,-0.0342 -0.0015,-0.04245 l -0.30738,-3.3875 c 0.09242,-0.06961 0.18601,-0.14126 0.2822,-0.21612 1.0341,-0.80893 2.2215,-1.8463 3.4448,-3.0079 l 1.2447,1.2459 c 0.02018,0.01927 0.06725,0.08102 0.08103,0.10674 l 2.4326,4.355 c 0.07428,0.14066 0.2173,0.22754 0.37582,0.22754 0.11318,0 0.2208,-0.04475 0.30328,-0.12779 l 0.73462,-0.73409 c 0.09536,-0.09969 0.14887,-0.23513 0.15032,-0.3831 0,-0.04973 -0.007,-0.09796 -0.01987,-0.1433 l -0.62147,-2.0753 0.50563,-0.50652 c 0.08511,-0.08455 0.13339,-0.2021 0.13339,-0.32287 0,-0.12138 -0.0471,-0.23543 -0.13277,-0.32231 l -0.37084,-0.37053 c -0.0848,-0.08511 -0.2021,-0.13364 -0.32287,-0.13364 -0.10235,0 -0.20235,0.0342 -0.28047,0.09594 l -0.08688,-0.29071 0.55187,-0.55187 c 0.0848,-0.08511 0.13308,-0.20268 0.13308,-0.32376 0,-0.12194 -0.0471,-0.23627 -0.13308,-0.32197 l -0.36899,-0.36911 c -0.08509,-0.08629 -0.20322,-0.13513 -0.32461,-0.13513 -0.12194,0 -0.24011,0.0494 -0.32346,0.13454 l -0.0038,0.0037 -0.61126,-2.0402 c 0.21117,-0.20121 0.41148,-0.39278 0.60306,-0.57322 1.1065,-1.05 1.9055,-1.808 2.4734,-2.5672 z"
     fill="#fcfcfc"
     stroke-width="0.61172"
     style="fill:#000000;fill-opacity:1;filter:url(#filter1);opacity:0.35" />
  <path
     id="path869-2-3-7"
     d="M 24.378,11.956 C 25.08108,11.01488 25.5019,10.0378 25.5039,9.3397 25.5028,9.11365 25.45771,8.93699 25.37144,8.80539 25.36244,8.789277 25.3375,8.747172 25.29366,8.705669 25.25004,8.66242 25.21087,8.639285 25.20239,8.634607 25.06436,8.542472 24.88685,8.498027 24.66074,8.498027 c -0.69634,0.00106 -1.6737,0.42172 -2.6151,1.126 -0.76094,0.56941 -1.5219,1.3713 -2.5754,2.4818 -0.1787,0.18833 -0.36675,0.38634 -0.56564,0.59399 l -2.0405,-0.61154 0.0061,-0.0058 c 0.0848,-0.0857 0.13308,-0.20355 0.13191,-0.31937 0.0012,-0.12225 -0.04825,-0.24011 -0.13336,-0.32491 l -0.36849,-0.36907 c -0.08511,-0.0857 -0.20269,-0.13482 -0.32432,-0.13482 -0.12284,0 -0.23748,0.04737 -0.32318,0.13395 l -0.55128,0.55158 -0.29188,-0.08715 c 0.06289,-0.07985 0.09768,-0.17957 0.0965,-0.27784 0.0012,-0.12402 -0.04679,-0.23952 -0.13306,-0.32522 l -0.37025,-0.37026 c -0.08452,-0.0848 -0.20151,-0.13336 -0.32432,-0.13336 -0.12225,0 -0.23661,0.04769 -0.32141,0.13395 l -0.50594,0.50566 -2.0747,-0.62147 c -0.04649,-0.01376 -0.09563,-0.02104 -0.14828,-0.02104 -0.14738,0.0016 -0.28396,0.05645 -0.38368,0.1553 l -0.72939,0.72967 c -0.08279,0.08276 -0.12928,0.19477 -0.12838,0.30092 -0.0026,0.15645 0.08394,0.30093 0.22256,0.37521 l 4.3629,2.4373 c 0.02135,0.01199 0.08307,0.05762 0.10588,0.08043 l 1.2438,1.2435 c -1.1634,1.2257 -2.1999,2.4128 -3.0076,3.4454 -0.07546,0.09594 -0.14682,0.18951 -0.21702,0.28223 l -3.3752,-0.30652 c -0.01638,-0.0021 -0.03482,-0.0037 -0.05821,-0.0037 -0.15472,0.0032 -0.30591,0.06437 -0.41819,0.17285 l -0.34014,0.33982 c -0.083935,0.08219 -0.13132,0.1933 -0.13014,0.30064 -0.00262,0.16378 0.096502,0.31525 0.24537,0.38164 l 2.3744,1.1277 c 0.02046,0.01022 0.07369,0.04796 0.09096,0.06521 l 0.19712,0.19567 c -0.06171,0.17372 -0.093,0.32432 -0.09477,0.45654 -6.08e-4,0.17691 0.05645,0.32841 0.16555,0.43751 l 0.0085,0.0073 0.0023,0.0016 c 0.11201,0.10851 0.25707,0.16379 0.43664,0.16379 0.12928,-0.0021 0.27842,-0.03276 0.45273,-0.09415 l 0.20003,0.19975 c 0.01551,0.01638 0.05265,0.06843 0.0623,0.0892 l 1.1254,2.3692 c 0.06874,0.15119 0.21699,0.24915 0.37842,0.24915 h 0.0023 c 0.11173,0 0.21847,-0.04475 0.30006,-0.12662 l 0.34831,-0.34948 c 0.10322,-0.10879 0.16406,-0.25881 0.16639,-0.41702 0,-0.01926 -8.73e-4,-0.0342 -0.0015,-0.04245 l -0.30738,-3.3875 c 0.09242,-0.06961 0.18601,-0.14126 0.2822,-0.21612 1.0341,-0.80893 2.2215,-1.8463 3.4448,-3.0079 l 1.2447,1.2459 c 0.02018,0.01927 0.06725,0.08102 0.08103,0.10674 l 2.4326,4.355 c 0.07428,0.14066 0.2173,0.22754 0.37582,0.22754 0.11318,0 0.2208,-0.04475 0.30328,-0.12779 l 0.73462,-0.73409 c 0.09536,-0.09969 0.14887,-0.23513 0.15032,-0.3831 0,-0.04973 -0.007,-0.09796 -0.01987,-0.1433 l -0.62147,-2.0753 0.50563,-0.50652 c 0.08511,-0.08455 0.13339,-0.2021 0.13339,-0.32287 0,-0.12138 -0.0471,-0.23543 -0.13277,-0.32231 l -0.37084,-0.37053 c -0.0848,-0.08511 -0.2021,-0.13364 -0.32287,-0.13364 -0.10235,0 -0.20235,0.0342 -0.28047,0.09594 l -0.08688,-0.29071 0.55187,-0.55187 c 0.0848,-0.08511 0.13308,-0.20268 0.13308,-0.32376 0,-0.12194 -0.0471,-0.23627 -0.13308,-0.32197 l -0.36899,-0.36911 c -0.08509,-0.08629 -0.20322,-0.13513 -0.32461,-0.13513 -0.12194,0 -0.24011,0.0494 -0.32346,0.13454 l -0.0038,0.0037 -0.61126,-2.0402 c 0.21117,-0.20121 0.41148,-0.39278 0.60306,-0.57322 1.1065,-1.05 1.9055,-1.808 2.4734,-2.5672 z"
     fill="#fcfcfc"
     stroke-width="0.61172" />
</svg>
