<?xml version="1.0" encoding="UTF-8"?>
<svg id="svg6" width="128" height="128" version="1.1" viewBox="0 0 33.867 33.867" xmlns="http://www.w3.org/2000/svg" xmlns:cc="http://creativecommons.org/ns#" xmlns:dc="http://purl.org/dc/elements/1.1/" xmlns:rdf="http://www.w3.org/1999/02/22-rdf-syntax-ns#" xmlns:xlink="http://www.w3.org/1999/xlink">
 <metadata id="metadata170">
  <rdf:RDF>
   <cc:Work rdf:about="">
    <dc:format>image/svg+xml</dc:format>
    <dc:type rdf:resource="http://purl.org/dc/dcmitype/StillImage"/>
   </cc:Work>
  </rdf:RDF>
 </metadata>
 <defs id="defs2">
  <linearGradient id="linearGradient1632" x1="132.21" x2="132.21" y1="42.152" y2="70.68" gradientUnits="userSpaceOnUse">
   <stop id="stop1626" stop-color="#f8fcfc" offset="0"/>
   <stop id="stop1628" stop-color="#d7e1f4" offset="1"/>
  </linearGradient>
 </defs>
 <g id="layer1">
  <g id="g1792" transform="matrix(.97573 0 0 .97573 -111.78 -37.203)">
   <g id="g1702" transform="translate(47.173)" fill="none" opacity=".20513" stroke="#000" stroke-linecap="round" stroke-linejoin="round" stroke-opacity=".02">
    <rect id="rect1634" x="69.84" y="40.71" width="29.811" height="29.811" rx="6.6099" ry="6.6099" stroke-width=".1"/>
    <rect id="rect1638" x="69.84" y="40.71" width="29.811" height="29.811" rx="6.6099" ry="6.6099" stroke-width=".2"/>
    <rect id="rect1640" x="69.84" y="40.71" width="29.811" height="29.811" rx="6.6099" ry="6.6099" stroke-width=".3"/>
    <rect id="rect1642" x="69.84" y="40.71" width="29.811" height="29.811" rx="6.6099" ry="6.6099" stroke-width=".4"/>
    <rect id="rect1644" x="69.84" y="40.71" width="29.811" height="29.811" rx="6.6099" ry="6.6099" stroke-width=".5"/>
    <rect id="rect1646" x="69.84" y="40.71" width="29.811" height="29.811" rx="6.6099" ry="6.6099" stroke-width=".6"/>
    <rect id="rect1648" x="69.84" y="40.71" width="29.811" height="29.811" rx="6.6099" ry="6.6099" stroke-width=".7"/>
    <rect id="rect1650" x="69.84" y="40.71" width="29.811" height="29.811" rx="6.6099" ry="6.6099" stroke-width=".8"/>
    <rect id="rect1652" x="69.84" y="40.71" width="29.811" height="29.811" rx="6.6099" ry="6.6099"/>
    <rect id="rect1654" x="69.84" y="40.71" width="29.811" height="29.811" rx="6.6099" ry="6.6099" stroke-width="1.2"/>
    <rect id="rect1656" x="69.84" y="40.71" width="29.811" height="29.811" rx="6.6099" ry="6.6099" stroke-width="1.4"/>
    <rect id="rect1658" x="69.84" y="40.71" width="29.811" height="29.811" rx="6.6099" ry="6.6099" stroke-width="1.6"/>
    <rect id="rect1660" x="69.84" y="40.71" width="29.811" height="29.811" rx="6.6099" ry="6.6099" stroke-width="1.8"/>
    <rect id="rect1662" x="69.84" y="40.71" width="29.811" height="29.811" rx="6.6099" ry="6.6099" stroke-width="2"/>
    <rect id="rect1664" x="69.84" y="40.71" width="29.811" height="29.811" rx="6.6099" ry="6.6099" stroke-width="2.2"/>
    <rect id="rect1666" x="69.84" y="40.71" width="29.811" height="29.811" rx="6.6099" ry="6.6099" stroke-width="2.6"/>
    <rect id="rect1668" x="69.84" y="40.71" width="29.811" height="29.811" rx="6.6099" ry="6.6099" stroke-width="3"/>
    <rect id="rect1670" x="69.84" y="40.71" width="29.811" height="29.811" rx="6.6099" ry="6.6099" stroke-width="3.4"/>
    <rect id="rect1672" x="69.84" y="40.71" width="29.811" height="29.811" rx="6.6099" ry="6.6099" stroke-width="3.8"/>
    <rect id="rect1674" x="69.84" y="40.71" width="29.811" height="29.811" rx="6.6099" ry="6.6099" stroke-width="4.2"/>
    <rect id="rect1676" x="69.84" y="40.71" width="29.811" height="29.811" rx="6.6099" ry="6.6099" stroke-width="4.6"/>
    <rect id="rect1678" x="69.84" y="40.71" width="29.811" height="29.811" rx="6.6099" ry="6.6099" stroke-width="5"/>
   </g>
   <rect id="rect849" x="117.01" y="40.71" width="29.811" height="29.811" rx="6.6099" ry="6.6099" fill="url(#linearGradient1632)" stroke-linecap="round" stroke-linejoin="round" stroke-width="2.7545"/>
   <path id="path2" d="m125.37 48.491h5.6671l1.6668 2.6669 2.3335-2.6669h6.0005l-6.0005 7.0005 4.0003 7.0005h-6.3338l-1.6668-2.6669-2.0002 2.6669h-6.6672l6.3338-7.3339z" opacity=".2" stroke-width=".33336"/>
   <path id="path4" d="m125.37 48.158h5.6671l1.6668 2.6669 2.3335-2.6669h6.0005l-6.0005 7.0005 4.0003 7.0005h-6.3338l-1.6668-2.6669-2.0002 2.6669h-6.6672l6.3338-7.3339z" fill="#a64599" stroke-width=".33336"/>
   <path id="path6" d="m125.37 48.158 0.16668 0.33336h5.5004l1.6668 2.6669 2.3335-2.6669h5.7146l0.28584-0.33336h-6.0005l-2.3335 2.6669-1.6668-2.6669zm3.2281 6.7896-6.2283 7.2115h0.28778l6.046-7.0005zm6.5539 0.41084-0.11457 0.13347 3.8095 6.6672h0.19077z" fill="#fff" opacity=".1" stroke-width=".33336"/>
   <circle id="circle8" cx="136.71" cy="60.492" r="5.0004" opacity=".2" stroke-width=".33336"/>
   <circle id="circle10" cx="136.71" cy="60.158" r="5.0004" fill="#465096" stroke-width=".33336"/>
   <path id="path12" d="m136.71 57.825s-0.31502-0.0064-0.64328 0.16603c-0.31612 0.16594-0.66036 0.58125-0.68559 1.1674h0.89264c0.043-0.39507 0.43623-0.39977 0.43623-0.39977s0.44469-5.34e-4 0.44469 0.46618c0 0.24632-0.0625 0.3842-0.181 0.53976-0.11851 0.1556-0.30774 0.312-0.52999 0.48702-0.22223 0.17501-0.47727 0.36846-0.6921 0.65044-0.21485 0.28193-0.37503 0.66941-0.37503 1.1231v0.46683h2.6669v-1.0001h-1.6219c0.0139-0.02053 9e-3 0.01449 0.0247-0.0065 0.11851-0.1556 0.30775-0.31135 0.52999-0.48636 0.22224-0.17501 0.47727-0.36911 0.69211-0.65109 0.21484-0.28193 0.37503-0.66941 0.37503-1.1231 0-0.62225-0.3619-1.0615-0.69015-1.2338-0.32827-0.17235-0.64329-0.16603-0.64329-0.16603z" fill="#fff" fill-rule="evenodd" stroke-width=".33336"/>
  </g>
 </g>
</svg>
