<?xml version="1.0" encoding="UTF-8"?>
<svg id="svg29" width="64" height="64" version="1.1" viewBox="0 0 16.933 16.933" xmlns="http://www.w3.org/2000/svg" xmlns:cc="http://creativecommons.org/ns#" xmlns:dc="http://purl.org/dc/elements/1.1/" xmlns:rdf="http://www.w3.org/1999/02/22-rdf-syntax-ns#" xmlns:xlink="http://www.w3.org/1999/xlink">
 <metadata id="metadata2">
  <rdf:RDF>
   <cc:Work rdf:about="">
    <dc:format>image/svg+xml</dc:format>
    <dc:type rdf:resource="http://purl.org/dc/dcmitype/StillImage"/>
    <dc:title/>
   </cc:Work>
  </rdf:RDF>
 </metadata>
 <defs id="defs15">
  <filter id="filter1057" x="-.027" y="-.027" width="1.054" height="1.054" color-interpolation-filters="sRGB">
   <feGaussianBlur id="feGaussianBlur1059" stdDeviation="0.61875"/>
  </filter>
  <linearGradient id="linearGradient1053" x1="-127" x2="-127" y1="60" y2="5" gradientTransform="matrix(.26458 0 0 .26458 34.792 -.13493)" gradientUnits="userSpaceOnUse">
   <stop id="stop1047" stop-color="#df2a2a" offset="0"/>
   <stop id="stop1049" stop-color="#cf0000" offset="1"/>
  </linearGradient>
 </defs>
 <circle id="circle21" cx="-306.19" cy="-335.4" r="0" fill="#5e4aa6" stroke-width=".26458"/>
 <circle id="circle23" cx="-15.281" cy="-.5775" r="0" fill="#5e4aa6" fill-rule="evenodd" stroke-width=".26458"/>
 <g id="g30" transform="scale(.26458)" fill="#5e4aa6">
  <circle id="circle24" cx="-1248.7" cy="-1241.6" r="0"/>
  <circle id="circle26" cx="-1140.3" cy="-1301.8" r="0"/>
  <circle id="circle28" cx="-1158.1" cy="-1246" r="0"/>
 </g>
 <circle id="circle36" cx="-306.2" cy="-335.41" r="0" fill="#5e4aa6" stroke-width=".26458"/>
 <circle id="circle38" cx="-15.281" cy="-.57755" r="0" fill="#5e4aa6" fill-rule="evenodd" stroke-width=".26458"/>
 <rect id="rect1055" transform="scale(.26458)" x="4.5" y="4.5" width="55" height="55" ry="15" fill="#141414" filter="url(#filter1057)" opacity=".3" stroke-linecap="round" stroke-width="2.7444"/>
 <rect id="rect1045" x="1.1906" y="1.1906" width="14.552" height="14.552" ry="3.9687" fill="url(#linearGradient1053)" stroke-linecap="round" stroke-width=".726"/>
 <g id="g3980" transform="matrix(.43509 0 0 .43509 15.745 4.9996)" fill="none" stroke="#fdfdfd" stroke-linecap="round" stroke-linejoin="round" stroke-miterlimit="10">
  <path id="path1061" d="m-26.156 10.598c11.704-0.12936 13.084-10.039 13.972-16.415" stroke-width=".70554"/>
  <path id="path1065" d="m-16.684 6.8775h4.5002" stroke-width=".70554"/>
  <g id="g3971">
   <g id="g3965">
    <path id="path1063" d="m-12.393 21.751c0.31986-4.3945 0.77817-10.692 5.2938-11.362" stroke-width=".71039"/>
    <path id="path1067" d="m-12.183 21.542v-27.358" stroke-width=".70554"/>
   </g>
   <path id="path1069" d="m-26.358 10.486h18.721" stroke-width=".71549"/>
  </g>
 </g>
</svg>
