<?xml version="1.0" encoding="UTF-8"?>
<svg id="svg6" width="128" height="128" version="1.1" viewBox="0 0 33.867 33.867" xmlns="http://www.w3.org/2000/svg" xmlns:cc="http://creativecommons.org/ns#" xmlns:dc="http://purl.org/dc/elements/1.1/" xmlns:rdf="http://www.w3.org/1999/02/22-rdf-syntax-ns#" xmlns:xlink="http://www.w3.org/1999/xlink">
 <metadata id="metadata252">
  <rdf:RDF>
   <cc:Work rdf:about="">
    <dc:format>image/svg+xml</dc:format>
    <dc:type rdf:resource="http://purl.org/dc/dcmitype/StillImage"/>
   </cc:Work>
  </rdf:RDF>
 </metadata>
 <defs id="defs2">
  <linearGradient id="linearGradient14855" x1="15.132" x2="15.132" y1="27.778" y2="4.734" gradientUnits="userSpaceOnUse">
   <stop id="stop14849" stop-color="#489af4" offset="0"/>
   <stop id="stop14851" stop-color="#316ff8" offset="1"/>
  </linearGradient>
  <linearGradient id="linearGradient1246" x1="77.681" x2="77.681" y1="148.35" y2="22.817" gradientUnits="userSpaceOnUse">
   <stop id="stop1240" stop-color="#489af4" offset="0"/>
   <stop id="stop1242" stop-color="#fff" stop-opacity=".97426" offset="1"/>
  </linearGradient>
 </defs>
 <g id="layer1">
  <g id="g1702" transform="matrix(.97573 0 0 .97573 -65.748 -37.203)" fill="none" opacity=".29676" stroke="#000" stroke-linecap="round" stroke-linejoin="round" stroke-opacity=".02">
   <path id="rect1634" d="m76.449 40.71h16.591c3.6619 0 6.6099 2.948 6.6099 6.6099v16.591c0 3.6619-2.948 6.6099-6.6099 6.6099h-16.591c-3.6619 0-6.6099-2.948-6.6099-6.6099v-16.591c0-3.6619 2.948-6.6099 6.6099-6.6099z" stroke-width=".1"/>
   <path id="rect1638" d="m76.449 40.71h16.591c3.6619 0 6.6099 2.948 6.6099 6.6099v16.591c0 3.6619-2.948 6.6099-6.6099 6.6099h-16.591c-3.6619 0-6.6099-2.948-6.6099-6.6099v-16.591c0-3.6619 2.948-6.6099 6.6099-6.6099z" stroke-width=".2"/>
   <path id="rect1640" d="m76.449 40.71h16.591c3.6619 0 6.6099 2.948 6.6099 6.6099v16.591c0 3.6619-2.948 6.6099-6.6099 6.6099h-16.591c-3.6619 0-6.6099-2.948-6.6099-6.6099v-16.591c0-3.6619 2.948-6.6099 6.6099-6.6099z" stroke-width=".3"/>
   <path id="rect1642" d="m76.449 40.71h16.591c3.6619 0 6.6099 2.948 6.6099 6.6099v16.591c0 3.6619-2.948 6.6099-6.6099 6.6099h-16.591c-3.6619 0-6.6099-2.948-6.6099-6.6099v-16.591c0-3.6619 2.948-6.6099 6.6099-6.6099z" stroke-width=".4"/>
   <path id="rect1644" d="m76.449 40.71h16.591c3.6619 0 6.6099 2.948 6.6099 6.6099v16.591c0 3.6619-2.948 6.6099-6.6099 6.6099h-16.591c-3.6619 0-6.6099-2.948-6.6099-6.6099v-16.591c0-3.6619 2.948-6.6099 6.6099-6.6099z" stroke-width=".5"/>
   <path id="rect1646" d="m76.449 40.71h16.591c3.6619 0 6.6099 2.948 6.6099 6.6099v16.591c0 3.6619-2.948 6.6099-6.6099 6.6099h-16.591c-3.6619 0-6.6099-2.948-6.6099-6.6099v-16.591c0-3.6619 2.948-6.6099 6.6099-6.6099z" stroke-width=".6"/>
   <path id="rect1648" d="m76.449 40.71h16.591c3.6619 0 6.6099 2.948 6.6099 6.6099v16.591c0 3.6619-2.948 6.6099-6.6099 6.6099h-16.591c-3.6619 0-6.6099-2.948-6.6099-6.6099v-16.591c0-3.6619 2.948-6.6099 6.6099-6.6099z" stroke-width=".7"/>
   <path id="rect1650" d="m76.449 40.71h16.591c3.6619 0 6.6099 2.948 6.6099 6.6099v16.591c0 3.6619-2.948 6.6099-6.6099 6.6099h-16.591c-3.6619 0-6.6099-2.948-6.6099-6.6099v-16.591c0-3.6619 2.948-6.6099 6.6099-6.6099z" stroke-width=".8"/>
   <path id="rect1652" d="m76.449 40.71h16.591c3.6619 0 6.6099 2.948 6.6099 6.6099v16.591c0 3.6619-2.948 6.6099-6.6099 6.6099h-16.591c-3.6619 0-6.6099-2.948-6.6099-6.6099v-16.591c0-3.6619 2.948-6.6099 6.6099-6.6099z"/>
   <path id="rect1654" d="m76.449 40.71h16.591c3.6619 0 6.6099 2.948 6.6099 6.6099v16.591c0 3.6619-2.948 6.6099-6.6099 6.6099h-16.591c-3.6619 0-6.6099-2.948-6.6099-6.6099v-16.591c0-3.6619 2.948-6.6099 6.6099-6.6099z" stroke-width="1.2"/>
   <path id="rect1656" d="m76.449 40.71h16.591c3.6619 0 6.6099 2.948 6.6099 6.6099v16.591c0 3.6619-2.948 6.6099-6.6099 6.6099h-16.591c-3.6619 0-6.6099-2.948-6.6099-6.6099v-16.591c0-3.6619 2.948-6.6099 6.6099-6.6099z" stroke-width="1.4"/>
   <path id="rect1658" d="m76.449 40.71h16.591c3.6619 0 6.6099 2.948 6.6099 6.6099v16.591c0 3.6619-2.948 6.6099-6.6099 6.6099h-16.591c-3.6619 0-6.6099-2.948-6.6099-6.6099v-16.591c0-3.6619 2.948-6.6099 6.6099-6.6099z" stroke-width="1.6"/>
   <path id="rect1660" d="m76.449 40.71h16.591c3.6619 0 6.6099 2.948 6.6099 6.6099v16.591c0 3.6619-2.948 6.6099-6.6099 6.6099h-16.591c-3.6619 0-6.6099-2.948-6.6099-6.6099v-16.591c0-3.6619 2.948-6.6099 6.6099-6.6099z" stroke-width="1.8"/>
   <path id="rect1662" d="m76.449 40.71h16.591c3.6619 0 6.6099 2.948 6.6099 6.6099v16.591c0 3.6619-2.948 6.6099-6.6099 6.6099h-16.591c-3.6619 0-6.6099-2.948-6.6099-6.6099v-16.591c0-3.6619 2.948-6.6099 6.6099-6.6099z" stroke-width="2"/>
   <path id="rect1664" d="m76.449 40.71h16.591c3.6619 0 6.6099 2.948 6.6099 6.6099v16.591c0 3.6619-2.948 6.6099-6.6099 6.6099h-16.591c-3.6619 0-6.6099-2.948-6.6099-6.6099v-16.591c0-3.6619 2.948-6.6099 6.6099-6.6099z" stroke-width="2.2"/>
   <path id="rect1666" d="m76.449 40.71h16.591c3.6619 0 6.6099 2.948 6.6099 6.6099v16.591c0 3.6619-2.948 6.6099-6.6099 6.6099h-16.591c-3.6619 0-6.6099-2.948-6.6099-6.6099v-16.591c0-3.6619 2.948-6.6099 6.6099-6.6099z" stroke-width="2.6"/>
   <path id="rect1668" d="m76.449 40.71h16.591c3.6619 0 6.6099 2.948 6.6099 6.6099v16.591c0 3.6619-2.948 6.6099-6.6099 6.6099h-16.591c-3.6619 0-6.6099-2.948-6.6099-6.6099v-16.591c0-3.6619 2.948-6.6099 6.6099-6.6099z" stroke-width="3"/>
   <path id="rect1670" d="m76.449 40.71h16.591c3.6619 0 6.6099 2.948 6.6099 6.6099v16.591c0 3.6619-2.948 6.6099-6.6099 6.6099h-16.591c-3.6619 0-6.6099-2.948-6.6099-6.6099v-16.591c0-3.6619 2.948-6.6099 6.6099-6.6099z" stroke-width="3.4"/>
   <path id="rect1672" d="m76.449 40.71h16.591c3.6619 0 6.6099 2.948 6.6099 6.6099v16.591c0 3.6619-2.948 6.6099-6.6099 6.6099h-16.591c-3.6619 0-6.6099-2.948-6.6099-6.6099v-16.591c0-3.6619 2.948-6.6099 6.6099-6.6099z" stroke-width="3.8"/>
   <path id="rect1674" d="m76.449 40.71h16.591c3.6619 0 6.6099 2.948 6.6099 6.6099v16.591c0 3.6619-2.948 6.6099-6.6099 6.6099h-16.591c-3.6619 0-6.6099-2.948-6.6099-6.6099v-16.591c0-3.6619 2.948-6.6099 6.6099-6.6099z" stroke-width="4.2"/>
   <path id="rect1676" d="m76.449 40.71h16.591c3.6619 0 6.6099 2.948 6.6099 6.6099v16.591c0 3.6619-2.948 6.6099-6.6099 6.6099h-16.591c-3.6619 0-6.6099-2.948-6.6099-6.6099v-16.591c0-3.6619 2.948-6.6099 6.6099-6.6099z" stroke-width="4.6"/>
   <path id="rect1678" d="m76.449 40.71h16.591c3.6619 0 6.6099 2.948 6.6099 6.6099v16.591c0 3.6619-2.948 6.6099-6.6099 6.6099h-16.591c-3.6619 0-6.6099-2.948-6.6099-6.6099v-16.591c0-3.6619 2.948-6.6099 6.6099-6.6099z" stroke-width="5"/>
  </g>
  <rect id="rect849" x="2.4065" y="2.5186" width="29.087" height="29.087" rx="6.4495" ry="6.4495" fill="url(#linearGradient14855)" stroke-linecap="round" stroke-linejoin="round" stroke-width="2.6877"/>
  <g id="g3233" fill="#0b0044" fill-opacity=".13971" opacity=".37031">
   <path id="path3059" d="m11.26 7.1885c-0.51343 3.86e-5 -0.96777 0.33174-1.124 0.82062l-3.1476 9.8356c-0.12649 0.3954-0.035994 0.82826 0.23823 1.1395l8.6553 9.8361c0.47015 0.53389 1.3023 0.53389 1.7725 0l8.6553-9.8361c0.27422-0.3112 0.36491-0.74407 0.23823-1.1395l-3.1476-9.8356c-0.15619-0.48888-0.61053-0.82058-1.124-0.82062zm5.5082 1.5735s1.1805 1.69e-5 2.0335 0.29301c1.0375 0.50843 2.2944 1.805 2.2944 3.6411 0 1.3388-0.61957 2.4818-1.2986 3.3135-0.67906 0.83211-1.504 1.3791-2.1869 1.9208-0.84234 0.66765-1.1774 1.1733-1.5524 1.6325-0.05035 0.06216-0.03294 0.15489-0.077 0.21549h5.1149v2.3606h-8.6558v-1.3772c0.06925-1.3369 0.61853-2.2849 1.2976-3.1166 0.67906-0.83211 1.5406-1.2853 2.2433-1.8014 0.70267-0.51618 1.2461-1.0958 1.6211-1.5549 0.37455-0.45914 0.73949-0.866 0.73949-1.5927 0-1.377-1.5735-1.5735-1.5735-1.5735s-1.5735-1.81e-4 -1.5735 1.5735h-2.7544c0-1.9672 1.2564-3.1327 2.2939-3.6411 0.85375-0.29299 2.034-0.29301 2.034-0.29301z" stroke-width=".39343"/>
   <path id="path3223" d="m11.684 7.5198c-0.51343 3.86e-5 -0.96777 0.33174-1.124 0.82062l-3.1476 9.8356c-0.12649 0.3954-0.035994 0.82826 0.23823 1.1395l8.6553 9.8361c0.47015 0.53389 1.3023 0.53389 1.7725 0l8.6553-9.8361c0.27422-0.3112 0.36491-0.74407 0.23823-1.1395l-3.1476-9.8356c-0.15619-0.48888-0.61053-0.82058-1.124-0.82062zm5.5082 1.5735s1.1805 1.69e-5 2.0335 0.29301c1.0375 0.50843 2.2944 1.805 2.2944 3.6411 0 1.3388-0.61957 2.4818-1.2986 3.3135-0.67906 0.83211-1.504 1.3791-2.1869 1.9208-0.84234 0.66765-1.1774 1.1733-1.5524 1.6325-0.05035 0.06216-0.03294 0.15489-0.077 0.21549h5.1149v2.3606h-8.6558v-1.3772c0.06925-1.3369 0.61853-2.2849 1.2976-3.1166 0.67906-0.83211 1.5406-1.2853 2.2433-1.8014 0.70267-0.51618 1.2461-1.0958 1.6211-1.5549 0.37455-0.45914 0.73949-0.866 0.73949-1.5927 0-1.377-1.5735-1.5735-1.5735-1.5735s-1.5735-1.81e-4 -1.5735 1.5735h-2.7544c0-1.9672 1.2564-3.1327 2.2939-3.6411 0.85375-0.29299 2.034-0.29301 2.034-0.29301z" stroke-width=".39343"/>
   <path id="path3225" d="m12.162 8.3481c-0.51343 3.86e-5 -0.96777 0.33174-1.124 0.82062l-3.1476 9.8356c-0.12649 0.3954-0.035994 0.82826 0.23823 1.1395l8.6553 9.8361c0.47015 0.53389 1.3023 0.53389 1.7725 0l8.6553-9.8361c0.27422-0.3112 0.36491-0.74407 0.23823-1.1395l-3.1476-9.8356c-0.15619-0.48888-0.61053-0.82058-1.124-0.82062zm5.5082 1.5735s1.1805 1.69e-5 2.0335 0.29301c1.0375 0.50843 2.2944 1.805 2.2944 3.6411 0 1.3388-0.61957 2.4818-1.2986 3.3135-0.67906 0.83211-1.504 1.3791-2.1869 1.9208-0.84234 0.66765-1.1774 1.1733-1.5524 1.6325-0.05035 0.06216-0.03294 0.15489-0.077 0.21549h5.1149v2.3606h-8.6558v-1.3772c0.06925-1.3369 0.61853-2.2849 1.2976-3.1166 0.67906-0.83211 1.5406-1.2853 2.2433-1.8014 0.70267-0.51618 1.2461-1.0958 1.6211-1.5549 0.37455-0.45914 0.73949-0.866 0.73949-1.5927 0-1.377-1.5735-1.5735-1.5735-1.5735s-1.5735-1.81e-4 -1.5735 1.5735h-2.7544c0-1.9672 1.2564-3.1327 2.2939-3.6411 0.85375-0.29299 2.034-0.29301 2.034-0.29301z" stroke-width=".39343"/>
   <path id="path3227" d="m11.618 6.8966c-0.57262 4.31e-5 -1.0793 0.36999-1.2535 0.91523l-3.5105 10.97c-0.14107 0.44099-0.040144 0.92375 0.26569 1.2708l9.6532 10.97c0.52436 0.59544 1.4525 0.59544 1.9769 0l9.6532-10.97c0.30584-0.34708 0.40699-0.82985 0.26569-1.2708l-3.5105-10.97c-0.1742-0.54524-0.68092-0.91519-1.2535-0.91523zm6.1432 1.755s1.3166 1.9e-5 2.2679 0.32679c1.1571 0.56705 2.559 2.0131 2.559 4.0609 0 1.4932-0.691 2.7679-1.4484 3.6955-0.75736 0.92804-1.6773 1.5381-2.4391 2.1423-0.93945 0.74463-1.3132 1.3086-1.7313 1.8207-0.05616 0.06933-0.03674 0.17275-0.08588 0.24034h5.7046v2.6327h-9.6538v-1.536c0.07723-1.491 0.68984-2.5483 1.4472-3.4759 0.75736-0.92805 1.7182-1.4334 2.5019-2.0091 0.78368-0.5757 1.3898-1.2221 1.808-1.7342 0.41773-0.51207 0.82475-0.96584 0.82475-1.7763 0-1.5358-1.755-1.755-1.755-1.755s-1.755-2.02e-4 -1.755 1.755h-3.0719c0-2.194 1.4013-3.4939 2.5584-4.0609 0.95218-0.32677 2.2685-0.32679 2.2685-0.32679z" stroke-width=".43879"/>
  </g>
  <path id="path4" transform="scale(.26458)" d="m41.168 26.543c-1.9405 1.46e-4 -3.6577 1.2538-4.248 3.1016l-11.896 37.174c-0.47807 1.4944-0.13604 3.1304 0.90039 4.3066l32.713 37.176c1.7769 2.0178 4.9223 2.0178 6.6992 0l32.713-37.176c1.0364-1.1762 1.3792-2.8122 0.90039-4.3066l-11.896-37.174c-0.59034-1.8477-2.3075-3.1014-4.248-3.1016h-41.637zm20.818 5.9473s4.4618 6.4e-5 7.6855 1.1074c3.9212 1.9216 8.6719 6.822 8.6719 13.762 0 5.0602-2.3417 9.3799-4.9082 12.523-2.5665 3.145-5.6842 5.2122-8.2656 7.2598-3.1836 2.5234-4.4501 4.4346-5.8672 6.1699-0.1903 0.23494-0.12449 0.58541-0.29102 0.81445h19.332v8.9219h-32.715v-5.2051c0.26171-5.0528 2.3378-8.6358 4.9043-11.779 2.5665-3.145 5.8228-4.8577 8.4785-6.8086 2.6558-1.9509 4.7099-4.1416 6.127-5.877 1.4156-1.7353 2.7949-3.2731 2.7949-6.0195 0-5.2045-5.9473-5.9473-5.9473-5.9473s-5.9473-6.82e-4 -5.9473 5.9473h-10.41c0-7.4349 4.7487-11.84 8.6699-13.762 3.2268-1.1074 7.6875-1.1074 7.6875-1.1074z" fill="url(#linearGradient1246)" stroke-width="1.487"/>
 </g>
 <style id="style15307"><![CDATA[.B{clip-path:url(#C)}.C{fill:#3e2723}.D{fill-opacity:.15}.E{fill-opacity:.2}]]></style>
</svg>
