<?xml version="1.0" encoding="UTF-8"?>
<svg id="svg1443" width="128" height="128" version="1.1" viewBox="0 0 33.867 33.867" xmlns="http://www.w3.org/2000/svg" xmlns:cc="http://creativecommons.org/ns#" xmlns:dc="http://purl.org/dc/elements/1.1/" xmlns:rdf="http://www.w3.org/1999/02/22-rdf-syntax-ns#" xmlns:xlink="http://www.w3.org/1999/xlink">
 <defs id="defs1437">
  <radialGradient id="radialGradient963" cx="16.951" cy="2.5104" r="14.544" gradientTransform="matrix(7.1386 0 0 2.2345 -104.06 -3.0991)" gradientUnits="userSpaceOnUse">
   <stop id="stop957" stop-color="#ff9c38" offset="0"/>
   <stop id="stop959" stop-color="#ea3d1c" stop-opacity=".96863" offset="1"/>
  </radialGradient>
  <linearGradient id="linearGradient1021" x1="11.308" x2="11.308" y1="11.398" y2="49.635" gradientUnits="userSpaceOnUse">
   <stop id="stop1015" stop-color="#fff" offset="0"/>
   <stop id="stop1017" stop-color="#f15e26" stop-opacity=".98039" offset="1"/>
  </linearGradient>
 </defs>
 <metadata id="metadata1440">
  <rdf:RDF>
   <cc:Work rdf:about="">
    <dc:format>image/svg+xml</dc:format>
    <dc:type rdf:resource="http://purl.org/dc/dcmitype/StillImage"/>
   </cc:Work>
  </rdf:RDF>
 </metadata>
 <g id="layer1">
  <g id="g1702" transform="matrix(.97573 0 0 .97573 -65.737 -37.183)" fill="none" opacity=".295" stroke="#000" stroke-linecap="round" stroke-linejoin="round" stroke-opacity=".02">
   <rect id="rect1634" x="69.84" y="40.71" width="29.811" height="29.811" rx="6.6099" ry="6.6099" stroke-width=".1"/>
   <rect id="rect1638" x="69.84" y="40.71" width="29.811" height="29.811" rx="6.6099" ry="6.6099" stroke-width=".2"/>
   <rect id="rect1640" x="69.84" y="40.71" width="29.811" height="29.811" rx="6.6099" ry="6.6099" stroke-width=".3"/>
   <rect id="rect1642" x="69.84" y="40.71" width="29.811" height="29.811" rx="6.6099" ry="6.6099" stroke-width=".4"/>
   <rect id="rect1644" x="69.84" y="40.71" width="29.811" height="29.811" rx="6.6099" ry="6.6099" stroke-width=".5"/>
   <rect id="rect1646" x="69.84" y="40.71" width="29.811" height="29.811" rx="6.6099" ry="6.6099" stroke-width=".6"/>
   <rect id="rect1648" x="69.84" y="40.71" width="29.811" height="29.811" rx="6.6099" ry="6.6099" stroke-width=".7"/>
   <rect id="rect1650" x="69.84" y="40.71" width="29.811" height="29.811" rx="6.6099" ry="6.6099" stroke-width=".8"/>
   <rect id="rect1652" x="69.84" y="40.71" width="29.811" height="29.811" rx="6.6099" ry="6.6099"/>
   <rect id="rect1654" x="69.84" y="40.71" width="29.811" height="29.811" rx="6.6099" ry="6.6099" stroke-width="1.2"/>
   <rect id="rect1656" x="69.84" y="40.71" width="29.811" height="29.811" rx="6.6099" ry="6.6099" stroke-width="1.4"/>
   <rect id="rect1658" x="69.84" y="40.71" width="29.811" height="29.811" rx="6.6099" ry="6.6099" stroke-width="1.6"/>
   <rect id="rect1660" x="69.84" y="40.71" width="29.811" height="29.811" rx="6.6099" ry="6.6099" stroke-width="1.8"/>
   <rect id="rect1662" x="69.84" y="40.71" width="29.811" height="29.811" rx="6.6099" ry="6.6099" stroke-width="2"/>
   <rect id="rect1664" x="69.84" y="40.71" width="29.811" height="29.811" rx="6.6099" ry="6.6099" stroke-width="2.2"/>
   <rect id="rect1666" x="69.84" y="40.71" width="29.811" height="29.811" rx="6.6099" ry="6.6099" stroke-width="2.6"/>
   <rect id="rect1668" x="69.84" y="40.71" width="29.811" height="29.811" rx="6.6099" ry="6.6099" stroke-width="3"/>
   <rect id="rect1670" x="69.84" y="40.71" width="29.811" height="29.811" rx="6.6099" ry="6.6099" stroke-width="3.4"/>
   <rect id="rect1672" x="69.84" y="40.71" width="29.811" height="29.811" rx="6.6099" ry="6.6099" stroke-width="3.8"/>
   <rect id="rect1674" x="69.84" y="40.71" width="29.811" height="29.811" rx="6.6099" ry="6.6099" stroke-width="4.2"/>
   <rect id="rect1676" x="69.84" y="40.71" width="29.811" height="29.811" rx="6.6099" ry="6.6099" stroke-width="4.6"/>
   <rect id="rect1678" x="69.84" y="40.71" width="29.811" height="29.811" rx="6.6099" ry="6.6099" stroke-width="5"/>
  </g>
  <rect id="rect849" x="2.4074" y="2.5392" width="29.087" height="29.087" rx="6.4495" ry="6.4495" fill="url(#radialGradient963)" stroke-linecap="round" stroke-linejoin="round" stroke-width="2.6877"/>
  <g id="g2993" fill="#2d0000" fill-opacity=".048907" opacity=".26138" stroke-width=".52164">
   <path id="path2678" d="m6.4414 10.542c-0.12722 0-0.23025 0.09933-0.23025 0.22006v13.124c0 0.11967 0.10303 0.21803 0.23025 0.21803h2.7366c0.12649 0 0.23025-0.09834 0.23025-0.21803v-9.9478c0-0.11898 0.10303-0.21803 0.23025-0.21803h6.7935c1.8002 0 2.3107 1.3354 2.3107 2.1966v7.9692c0 0.11967 0.10305 0.21803 0.23025 0.21803h2.6571c0.12649 0 0.23025-0.09834 0.23025-0.21803v-9.31c0-0.76813-0.09517-1.8724-1.1187-2.8445-1.0708-1.0148-2.0478-1.19-3.14-1.19zm18.759 0c-0.11602 0-0.20988 0.09933-0.20988 0.22006v13.124c0 0.11967 0.09386 0.21803 0.20988 0.21803h2.7101c0.11502 0 0.20988-0.09834 0.20988-0.21803v-13.124c0-0.12074-0.09485-0.22006-0.20988-0.22006zm-12.527 6.2596c-0.11118 0-0.20172 0.08637-0.20172 0.19153v6.9219c0 0.10455 0.09055 0.1895 0.20172 0.1895h2.7284c0.11023 0 0.19969-0.08493 0.19969-0.1895v-6.9219c0-0.10516-0.08945-0.19153-0.19969-0.19153z"/>
   <path id="path2968" d="m6.6375 10.79c-0.12722 0-0.23025 0.09933-0.23025 0.22006v13.124c0 0.11967 0.10303 0.21803 0.23025 0.21803h2.7366c0.12649 0 0.23025-0.09834 0.23025-0.21803v-9.9478c0-0.11898 0.10303-0.21803 0.23025-0.21803h6.7935c1.8002 0 2.3107 1.3354 2.3107 2.1966v7.9692c0 0.11967 0.10305 0.21803 0.23025 0.21803h2.6571c0.12649 0 0.23025-0.09834 0.23025-0.21803v-9.31c0-0.76813-0.09517-1.8724-1.1187-2.8445-1.0708-1.0148-2.0478-1.19-3.14-1.19zm18.759 0c-0.11602 0-0.20988 0.09933-0.20988 0.22006v13.124c0 0.11967 0.09386 0.21803 0.20988 0.21803h2.7101c0.11502 0 0.20988-0.09834 0.20988-0.21803v-13.124c0-0.12074-0.09485-0.22006-0.20988-0.22006zm-12.527 6.2596c-0.11118 0-0.20172 0.08637-0.20172 0.19153v6.9219c0 0.10455 0.09055 0.1895 0.20172 0.1895h2.7284c0.11023 0 0.19969-0.08493 0.19969-0.1895v-6.9219c0-0.10516-0.08945-0.19153-0.19969-0.19153z"/>
   <path id="path2970" d="m6.7996 10.956c-0.12722 0-0.23025 0.09933-0.23025 0.22006v13.124c0 0.11967 0.10303 0.21803 0.23025 0.21803h2.7366c0.12649 0 0.23025-0.09834 0.23025-0.21803v-9.9478c0-0.11898 0.10303-0.21803 0.23025-0.21803h6.7935c1.8002 0 2.3107 1.3354 2.3107 2.1966v7.9692c0 0.11967 0.10305 0.21803 0.23025 0.21803h2.6571c0.12649 0 0.23025-0.09834 0.23025-0.21803v-9.31c0-0.76813-0.09517-1.8724-1.1187-2.8445-1.0708-1.0148-2.0478-1.19-3.14-1.19zm18.759 0c-0.11602 0-0.20988 0.09933-0.20988 0.22006v13.124c0 0.11967 0.09386 0.21803 0.20988 0.21803h2.7101c0.11502 0 0.20988-0.09834 0.20988-0.21803v-13.124c0-0.12074-0.09485-0.22006-0.20988-0.22006zm-12.527 6.2596c-0.11118 0-0.20172 0.08637-0.20172 0.19153v6.9219c0 0.10455 0.09055 0.1895 0.20172 0.1895h2.7284c0.11023 0 0.19969-0.08493 0.19969-0.1895v-6.9219c0-0.10516-0.08945-0.19153-0.19969-0.19153z"/>
   <path id="path2972" d="m6.9318 11.077c-0.12722 0-0.23025 0.09933-0.23025 0.22006v13.124c0 0.11967 0.10303 0.21803 0.23025 0.21803h2.7366c0.12649 0 0.23025-0.09834 0.23025-0.21803v-9.9478c0-0.11898 0.10303-0.21803 0.23025-0.21803h6.7935c1.8002 0 2.3107 1.3354 2.3107 2.1966v7.9692c0 0.11967 0.10305 0.21803 0.23025 0.21803h2.6571c0.12649 0 0.23025-0.09834 0.23025-0.21803v-9.31c0-0.76813-0.09517-1.8724-1.1187-2.8445-1.0708-1.0148-2.0478-1.19-3.14-1.19zm18.759 0c-0.11602 0-0.20988 0.09933-0.20988 0.22006v13.124c0 0.11967 0.09386 0.21803 0.20988 0.21803h2.7101c0.11502 0 0.20988-0.09834 0.20988-0.21803v-13.124c0-0.12074-0.09485-0.22006-0.20988-0.22006zm-12.527 6.2596c-0.11118 0-0.20172 0.08637-0.20172 0.19153v6.9219c0 0.10455 0.09055 0.1895 0.20172 0.1895h2.7284c0.11023 0 0.19969-0.08493 0.19969-0.1895v-6.9219c0-0.10516-0.08945-0.19153-0.19969-0.19153z"/>
   <path id="path2974" d="m7.0354 11.192c-0.12722 0-0.23025 0.09933-0.23025 0.22006v13.124c0 0.11967 0.10303 0.21803 0.23025 0.21803h2.7366c0.12649 0 0.23025-0.09834 0.23025-0.21803v-9.9478c0-0.11898 0.10303-0.21803 0.23025-0.21803h6.7935c1.8002 0 2.3107 1.3354 2.3107 2.1966v7.9692c0 0.11967 0.10305 0.21803 0.23025 0.21803h2.6571c0.12649 0 0.23025-0.09834 0.23025-0.21803v-9.31c0-0.76813-0.09517-1.8724-1.1187-2.8445-1.0708-1.0148-2.0478-1.19-3.14-1.19zm18.759 0c-0.11602 0-0.20988 0.09933-0.20988 0.22006v13.124c0 0.11967 0.09386 0.21803 0.20988 0.21803h2.7101c0.11502 0 0.20988-0.09834 0.20988-0.21803v-13.124c0-0.12074-0.09485-0.22006-0.20988-0.22006zm-12.527 6.2596c-0.11118 0-0.20172 0.08637-0.20172 0.19153v6.9219c0 0.10455 0.09055 0.1895 0.20172 0.1895h2.7284c0.11023 0 0.19969-0.08493 0.19969-0.1895v-6.9219c0-0.10516-0.08945-0.19153-0.19969-0.19153z"/>
   <path id="path2976" d="m7.1249 11.267c-0.12722 0-0.23025 0.09933-0.23025 0.22006v13.124c0 0.11967 0.10303 0.21803 0.23025 0.21803h2.7366c0.12649 0 0.23025-0.09834 0.23025-0.21803v-9.9478c0-0.11898 0.10303-0.21803 0.23025-0.21803h6.7935c1.8002 0 2.3107 1.3354 2.3107 2.1966v7.9692c0 0.11967 0.10305 0.21803 0.23025 0.21803h2.6571c0.12649 0 0.23025-0.09834 0.23025-0.21803v-9.31c0-0.76813-0.09517-1.8724-1.1187-2.8445-1.0708-1.0148-2.0478-1.19-3.14-1.19zm18.759 0c-0.11602 0-0.20988 0.09933-0.20988 0.22006v13.124c0 0.11967 0.09386 0.21803 0.20988 0.21803h2.7101c0.11502 0 0.20988-0.09834 0.20988-0.21803v-13.124c0-0.12074-0.09485-0.22006-0.20988-0.22006zm-12.527 6.2596c-0.11118 0-0.20172 0.08637-0.20172 0.19153v6.9219c0 0.10455 0.09055 0.1895 0.20172 0.1895h2.7284c0.11023 0 0.19969-0.08493 0.19969-0.1895v-6.9219c0-0.10516-0.08945-0.19153-0.19969-0.19153z"/>
   <path id="path2978" d="m7.1955 11.315c-0.12722 0-0.23025 0.09933-0.23025 0.22006v13.124c0 0.11967 0.10303 0.21803 0.23025 0.21803h2.7366c0.12649 0 0.23025-0.09834 0.23025-0.21803v-9.9478c0-0.11898 0.10303-0.21803 0.23025-0.21803h6.7935c1.8002 0 2.3107 1.3354 2.3107 2.1966v7.9692c0 0.11967 0.10305 0.21803 0.23025 0.21803h2.6571c0.12649 0 0.23025-0.09834 0.23025-0.21803v-9.31c0-0.76813-0.09517-1.8724-1.1187-2.8445-1.0708-1.0148-2.0478-1.19-3.14-1.19zm18.759 0c-0.11602 0-0.20988 0.09933-0.20988 0.22006v13.124c0 0.11967 0.09386 0.21803 0.20988 0.21803h2.7101c0.11502 0 0.20988-0.09834 0.20988-0.21803v-13.124c0-0.12074-0.09485-0.22006-0.20988-0.22006zm-12.527 6.2596c-0.11118 0-0.20172 0.08637-0.20172 0.19153v6.9219c0 0.10455 0.09055 0.1895 0.20172 0.1895h2.7284c0.11023 0 0.19969-0.08493 0.19969-0.1895v-6.9219c0-0.10516-0.08945-0.19153-0.19969-0.19153z"/>
   <path id="path2980" d="m7.2544 11.366c-0.12722 0-0.23025 0.09933-0.23025 0.22006v13.124c0 0.11967 0.10303 0.21803 0.23025 0.21803h2.7366c0.12649 0 0.23025-0.09834 0.23025-0.21803v-9.9478c0-0.11898 0.10303-0.21803 0.23025-0.21803h6.7935c1.8002 0 2.3107 1.3354 2.3107 2.1966v7.9692c0 0.11967 0.10305 0.21803 0.23025 0.21803h2.6571c0.12649 0 0.23025-0.09834 0.23025-0.21803v-9.31c0-0.76813-0.09517-1.8724-1.1187-2.8445-1.0708-1.0148-2.0478-1.19-3.14-1.19zm18.759 0c-0.11602 0-0.20988 0.09933-0.20988 0.22006v13.124c0 0.11967 0.09386 0.21803 0.20988 0.21803h2.7101c0.11502 0 0.20988-0.09834 0.20988-0.21803v-13.124c0-0.12074-0.09485-0.22006-0.20988-0.22006zm-12.527 6.2596c-0.11118 0-0.20172 0.08637-0.20172 0.19153v6.9219c0 0.10455 0.09055 0.1895 0.20172 0.1895h2.7284c0.11023 0 0.19969-0.08493 0.19969-0.1895v-6.9219c0-0.10516-0.08945-0.19153-0.19969-0.19153z"/>
   <path id="path2982" d="m7.2921 11.402c-0.12722 0-0.23025 0.09933-0.23025 0.22006v13.124c0 0.11967 0.10303 0.21803 0.23025 0.21803h2.7366c0.12649 0 0.23025-0.09834 0.23025-0.21803v-9.9478c0-0.11898 0.10303-0.21803 0.23025-0.21803h6.7935c1.8002 0 2.3107 1.3354 2.3107 2.1966v7.9692c0 0.11967 0.10305 0.21803 0.23025 0.21803h2.6571c0.12649 0 0.23025-0.09834 0.23025-0.21803v-9.31c0-0.76813-0.09517-1.8724-1.1187-2.8445-1.0708-1.0148-2.0478-1.19-3.14-1.19zm18.759 0c-0.11602 0-0.20988 0.09933-0.20988 0.22006v13.124c0 0.11967 0.09386 0.21803 0.20988 0.21803h2.7101c0.11502 0 0.20988-0.09834 0.20988-0.21803v-13.124c0-0.12074-0.09485-0.22006-0.20988-0.22006zm-12.527 6.2596c-0.11118 0-0.20172 0.08637-0.20172 0.19153v6.9219c0 0.10455 0.09055 0.1895 0.20172 0.1895h2.7284c0.11023 0 0.19969-0.08493 0.19969-0.1895v-6.9219c0-0.10516-0.08945-0.19153-0.19969-0.19153z"/>
  </g>
  <path id="path8" d="m6.227 10.302c-0.12722 0-0.23025 0.09933-0.23025 0.22006v13.124c0 0.11967 0.10303 0.21803 0.23025 0.21803h2.7366c0.12649 0 0.23025-0.09834 0.23025-0.21803v-9.9478c0-0.11898 0.10303-0.21803 0.23025-0.21803h6.7935c1.8002 0 2.3107 1.3354 2.3107 2.1966v7.9692c0 0.11967 0.10305 0.21803 0.23025 0.21803h2.6571c0.12649 0 0.23025-0.09834 0.23025-0.21803v-9.31c0-0.76813-0.09517-1.8724-1.1187-2.8445-1.0708-1.0148-2.0478-1.19-3.14-1.19zm18.759 0c-0.11602 0-0.20988 0.09933-0.20988 0.22006v13.124c0 0.11967 0.09386 0.21803 0.20988 0.21803h2.7101c0.11502 0 0.20988-0.09834 0.20988-0.21803v-13.124c0-0.12074-0.09485-0.22006-0.20988-0.22006zm-12.527 6.2596c-0.11118 0-0.20172 0.08637-0.20172 0.19153v6.9219c0 0.10455 0.09055 0.1895 0.20172 0.1895h2.7284c0.11023 0 0.19969-0.08493 0.19969-0.1895v-6.9219c0-0.10516-0.08945-0.19153-0.19969-0.19153z" fill="url(#linearGradient1021)" stroke-width=".52164"/>
 </g>
</svg>
