<?xml version="1.0" encoding="UTF-8"?>
<svg id="svg1443" width="128" height="128" version="1.1" viewBox="0 0 33.867 33.867" xmlns="http://www.w3.org/2000/svg" xmlns:cc="http://creativecommons.org/ns#" xmlns:dc="http://purl.org/dc/elements/1.1/" xmlns:rdf="http://www.w3.org/1999/02/22-rdf-syntax-ns#" xmlns:xlink="http://www.w3.org/1999/xlink">
 <defs id="defs1437">
  <linearGradient id="linearGradient1632" x1="132.21" x2="132.21" y1="42.152" y2="70.68" gradientTransform="matrix(.97573 0 0 .97573 -111.77 -37.183)" gradientUnits="userSpaceOnUse">
   <stop id="stop1626" stop-color="#fafafc" offset="0"/>
   <stop id="stop1628" stop-color="#e7efe4" offset="1"/>
  </linearGradient>
  <linearGradient id="linearGradient5468" x1="1133.8" x2="1153.6" y1="623.84" y2="686.44" gradientTransform="matrix(.26458 0 0 .26458 -315.66 122.35)" gradientUnits="userSpaceOnUse">
   <stop id="stop5462" stop-color="#33db88" offset="0"/>
   <stop id="stop5464" stop-color="#0083e0" offset="1"/>
  </linearGradient>
  <linearGradient id="linearGradient20907" x1="1129.9" x2="1119" y1="678.76" y2="660.76" gradientTransform="matrix(.26458 0 0 .26458 -319.67 122.39)" gradientUnits="userSpaceOnUse">
   <stop id="stop20901" stop-color="#305ed6" stop-opacity=".41442" offset="0"/>
   <stop id="stop20903" stop-color="#5130d6" stop-opacity="0" offset="1"/>
  </linearGradient>
  <linearGradient id="linearGradient9262" x1="1140.2" x2="1156.5" y1="623.43" y2="672.66" gradientTransform="matrix(.26458 0 0 .26458 -319.67 122.39)" gradientUnits="userSpaceOnUse">
   <stop id="stop9256" stop-color="#005bff" offset="0"/>
   <stop id="stop9258" stop-color="#005bff" stop-opacity="0" offset="1"/>
  </linearGradient>
  <linearGradient id="linearGradient8279" x1="1154.9" x2="1125.8" y1="660.44" y2="649.14" gradientTransform="matrix(.26458 0 0 .26458 -319.67 122.39)" gradientUnits="userSpaceOnUse">
   <stop id="stop8273" stop-color="#5dfff3" offset="0"/>
   <stop id="stop8275" stop-color="#5dfff3" stop-opacity="0" offset="1"/>
  </linearGradient>
  <linearGradient id="linearGradient19408" x1="1163.6" x2="1132.4" y1="621.31" y2="643.48" gradientTransform="matrix(.26458 0 0 .26458 -319.67 122.39)" gradientUnits="userSpaceOnUse">
   <stop id="stop19402" stop-color="#30d68d" offset="0"/>
   <stop id="stop19404" stop-color="#0f99c9" offset="1"/>
  </linearGradient>
  <linearGradient id="linearGradient16320" x1="1147.7" x2="1115.5" y1="631.21" y2="580.64" gradientTransform="matrix(.26458 0 0 .26458 -319.67 122.39)" gradientUnits="userSpaceOnUse">
   <stop id="stop16314" stop-color="#4cc676" offset="0"/>
   <stop id="stop16316" stop-color="#aae251" offset="1"/>
  </linearGradient>
  <linearGradient id="linearGradient22301" x1="1140.3" x2="1133.1" y1="676.88" y2="695.11" gradientTransform="matrix(.26458 0 0 .26458 -319.67 122.39)" gradientUnits="userSpaceOnUse">
   <stop id="stop22295" stop-color="#0a43d6" offset="0"/>
   <stop id="stop22297" stop-color="#0a43d6" stop-opacity="0" offset="1"/>
  </linearGradient>
  <linearGradient id="linearGradient27201" x1="1052.2" x2="1143.6" y1="629.45" y2="568.58" gradientTransform="matrix(.26458 0 0 .26458 -319.67 122.39)" gradientUnits="userSpaceOnUse">
   <stop id="stop27195" stop-color="#fefefe" offset="0"/>
   <stop id="stop27197" stop-color="#fefefe" stop-opacity="0" offset="1"/>
  </linearGradient>
  <linearGradient id="linearGradient2050" x1="55.195" x2="55.195" y1="11.817" y2="26.316" gradientTransform="translate(-32.135 5.3409)" gradientUnits="userSpaceOnUse">
   <stop id="stop2044" stop-color="#87fbff" offset="0"/>
   <stop id="stop2046" stop-color="#0067ec" offset="1"/>
  </linearGradient>
  <radialGradient id="radialGradient3815-1" cx="24.249" cy="24.25" r="9.6332" gradientTransform="matrix(1.0025 0 0 1.0025 -.10569 -.12466)" gradientUnits="userSpaceOnUse">
   <stop id="stop5461" offset="0"/>
   <stop id="stop5463" stop-opacity=".78764" offset=".71616"/>
   <stop id="stop5515" stop-opacity=".67451" offset=".74621"/>
   <stop id="stop5517" stop-opacity=".61961" offset=".76305"/>
   <stop id="stop5513" stop-opacity=".5451" offset=".78595"/>
   <stop id="stop5509" stop-opacity=".48627" offset=".80683"/>
   <stop id="stop5505" stop-opacity=".29804" offset=".86207"/>
   <stop id="stop5503" stop-opacity=".18824" offset=".89036"/>
   <stop id="stop5495" stop-opacity=".082353" offset=".92404"/>
   <stop id="stop5493" stop-opacity=".043137" offset=".9429"/>
   <stop id="stop5481" stop-opacity=".031373" offset=".95596"/>
   <stop id="stop5483" stop-opacity=".027451" offset=".96081"/>
   <stop id="stop5485" stop-opacity="0" offset=".99197"/>
   <stop id="stop5487" stop-opacity="0" offset="1"/>
  </radialGradient>
  <linearGradient id="linearGradient1843" x1="21.899" x2="21.899" y1="21.662" y2="40.028" gradientUnits="userSpaceOnUse">
   <stop id="stop1837" stop-color="#fff" offset="0"/>
   <stop id="stop1839" stop-color="#0c74ee" offset="1"/>
  </linearGradient>
 </defs>
 <metadata id="metadata1440">
  <rdf:RDF>
   <cc:Work rdf:about="">
    <dc:format>image/svg+xml</dc:format>
    <dc:type rdf:resource="http://purl.org/dc/dcmitype/StillImage"/>
   </cc:Work>
  </rdf:RDF>
 </metadata>
 <g id="layer1">
  <g id="g1702" transform="matrix(.97573 0 0 .96361 -65.737 -36.328)" fill="none" opacity=".18754" stroke="#000" stroke-linecap="round" stroke-linejoin="round" stroke-opacity=".02">
   <rect id="rect1634" x="69.84" y="40.71" width="29.811" height="29.811" rx="6.6099" ry="6.6099" stroke-width=".1"/>
   <rect id="rect1638" x="69.84" y="40.71" width="29.811" height="29.811" rx="6.6099" ry="6.6099" stroke-width=".2"/>
   <rect id="rect1640" x="69.84" y="40.71" width="29.811" height="29.811" rx="6.6099" ry="6.6099" stroke-width=".3"/>
   <rect id="rect1642" x="69.84" y="40.71" width="29.811" height="29.811" rx="6.6099" ry="6.6099" stroke-width=".4"/>
   <rect id="rect1644" x="69.84" y="40.71" width="29.811" height="29.811" rx="6.6099" ry="6.6099" stroke-width=".5"/>
   <rect id="rect1646" x="69.84" y="40.71" width="29.811" height="29.811" rx="6.6099" ry="6.6099" stroke-width=".6"/>
   <rect id="rect1648" x="69.84" y="40.71" width="29.811" height="29.811" rx="6.6099" ry="6.6099" stroke-width=".7"/>
   <rect id="rect1650" x="69.84" y="40.71" width="29.811" height="29.811" rx="6.6099" ry="6.6099" stroke-width=".8"/>
   <rect id="rect1652" x="69.84" y="40.71" width="29.811" height="29.811" rx="6.6099" ry="6.6099"/>
   <rect id="rect1654" x="69.84" y="40.71" width="29.811" height="29.811" rx="6.6099" ry="6.6099" stroke-width="1.2"/>
   <rect id="rect1656" x="69.84" y="40.71" width="29.811" height="29.811" rx="6.6099" ry="6.6099" stroke-width="1.4"/>
   <rect id="rect1658" x="69.84" y="40.71" width="29.811" height="29.811" rx="6.6099" ry="6.6099" stroke-width="1.6"/>
   <rect id="rect1660" x="69.84" y="40.71" width="29.811" height="29.811" rx="6.6099" ry="6.6099" stroke-width="1.8"/>
   <rect id="rect1662" x="69.84" y="40.71" width="29.811" height="29.811" rx="6.6099" ry="6.6099" stroke-width="2"/>
   <rect id="rect1664" x="69.84" y="40.71" width="29.811" height="29.811" rx="6.6099" ry="6.6099" stroke-width="2.2"/>
   <rect id="rect1666" x="69.84" y="40.71" width="29.811" height="29.811" rx="6.6099" ry="6.6099" stroke-width="2.6"/>
   <rect id="rect1668" x="69.84" y="40.71" width="29.811" height="29.811" rx="6.6099" ry="6.6099" stroke-width="3"/>
   <rect id="rect1670" x="69.84" y="40.71" width="29.811" height="29.811" rx="6.6099" ry="6.6099" stroke-width="3.4"/>
   <rect id="rect1672" x="69.84" y="40.71" width="29.811" height="29.811" rx="6.6099" ry="6.6099" stroke-width="3.8"/>
   <rect id="rect1674" x="69.84" y="40.71" width="29.811" height="29.811" rx="6.6099" ry="6.6099" stroke-width="4.2"/>
   <rect id="rect1676" x="69.84" y="40.71" width="29.811" height="29.811" rx="6.6099" ry="6.6099" stroke-width="4.6"/>
   <rect id="rect1678" x="69.84" y="40.71" width="29.811" height="29.811" rx="6.6099" ry="6.6099" stroke-width="5"/>
  </g>
  <rect id="rect849" x="2.4074" y="2.5392" width="29.087" height="29.087" rx="6.4495" ry="6.4495" fill="url(#linearGradient1632)" stroke-linecap="round" stroke-linejoin="round" stroke-width="2.6877"/>
  <g id="g972" transform="matrix(.70659 0 0 .70659 29.904 -187.52)">
   <path id="path28682" d="m-21.185 292.77c-1.3974-0.0415-4.6165 0.41867-5.0202 0.61277-0.35555 0.12817-0.84436 0.58188-0.47239 1.1337 0.2685 0.37789 0.78007 0.78275 1.1112 1.112 0.32287 0.3056 0.55745 0.3965 0.92329 0.48359l2.4797 0.31141 5.0533-1.9686-1.3359-3.1344z" fill="#35d2be"/>
   <path id="path36306" d="m-17.93 292.53-2.1358 0.11317s-3.5326 0.87828-5.6725 2.8231c0.05913 0.0549 0.12068 0.11117 0.17259 0.16279 0.32287 0.30559 0.55764 0.39659 0.92348 0.48369l2.4799 0.31161 5.0529-1.9689z" fill="#3539d2" opacity=".49445"/>
   <path id="path860" d="m-12.698 284.62-7.3685 8.0316c-2.2887 0.59826-5.1328 3.8234-5.3738 6.5753-0.32845 3.7502 1.7963 6.2954 4.4726 7.4497 3.8321 1.6528 11.675-0.63599 14.123-8.1458 2.3358-7.1647-3.3554-12.837-5.8534-13.911zm-7.0202 13.697c0.47921 0.0216 1.0197 0.28475 1.5777 0.91519 1.7444 1.971 3.8277 0.40462 3.8277 0.40462s-1.5714 3.1779-4.3744 3.1915c-1.5987 8e-3 -2.812-1.0342-2.8303-2.4903-0.01191-0.94776 0.74507-2.0686 1.7994-2.0211z" fill="url(#linearGradient5468)"/>
   <path id="path20767" d="m-20.066 292.65c-2.2887 0.59825-5.1328 3.8234-5.3738 6.5753-0.02275 0.26025-0.03069 0.51365-0.03051 0.76223 2.4206-2.6609 4.9604-2.104 6.197-1.5813 0.11179 0.0386 0.22516 0.089 0.34107 0.15554 0.27146 0.13709 0.42995 0.24495 0.42995 0.24495l0.01614 0.0801c0.11454 0.10072 0.22979 0.21259 0.34623 0.34417 1.074 1.2135 2.2745 1.0854 3.0401 0.80822l0.78753-0.4036c2.0192-1.4496 0.26316-8.1414-5.5862-7.0151l-0.16743 0.0295z" fill="url(#linearGradient20907)"/>
   <path id="path8504" d="m-12.844 289.59c-1.5626 1.3742-4.4052 2.4458-7.0543 3.0267 5.8494-1.1264 7.7764 6.2072 5.5862 7.0151l3.3326 3.1523 0.39222-0.71882c4.4593-7.9739-2.2567-12.475-2.2567-12.475z" fill="url(#linearGradient9262)"/>
   <path id="path6854" d="m-20.066 292.65s3.1416-0.76318 5.1291 1.4156c1.9875 2.1788 0.9747 3.8307 0.29998 3.9855-0.67474 0.15478-1.1389 0.51298-3.0989-1.5117-1.96-2.0246-3.1949-1.9162-4.7576-1.2698l-0.83217-1.5205z" fill="url(#linearGradient8279)"/>
   <path id="path16545" d="m-24.299 292.84s9.6047 1.2852 14.074-6.3574c-0.81934-0.84609-1.8231-1.4381-2.4723-1.8668z" fill="url(#linearGradient19408)"/>
   <circle id="path27282" cx="-26.793" cy="283.9" r="3.5009" fill="#68ce6b"/>
   <circle id="circle28575" cx="-23.478" cy="284.68" r="5.9594" fill="#0065ce" fill-opacity=".23582"/>
   <path id="path9720" d="m-23.189 292.85c6.2977-0.64702 10.912-8.003 10.492-8.2341-0.88397-3.7862-1.0544-5.2531-3.9721-4.7871l0.30192-5.8862c0.0045-0.637-0.12322-1.1827-0.84849-1.1051-12.811 1.6802-12.201 15.446-11.864 18.765 0.05263 0.4369 0.43672 0.76681 0.87514 0.84784 1.2571 0.2129 3.5763 0.54665 5.0157 0.39989z" fill="url(#linearGradient16320)"/>
   <path id="path21529" d="m-14.67 290.97c-1.2507 0.63416-2.5191 1.243-4.0339 1.4971 5.4331 0.11407 6.0003 6.2044 4.3909 7.1639 0 0-1.5714 3.1779-4.3744 3.1915-1.5987 8e-3 -2.812-1.0342-2.8303-2.4903-0.01058-0.83782 0.5805-1.8089 1.4459-1.9906-2.4006 0.31492-5.4253 4.3188-1.2268 8.1737 0.10964 0.053 0.21902 0.10685 0.33073 0.15503 0.45114 0.19458 0.95938 0.33224 1.5064 0.41547 1.2027-0.14258 6.0933-1.0518 7.6941-6.4916 1.7989-6.1129-2.9027-9.6242-2.9027-9.6242zm0.35708 8.661-0.78753 0.4036c0.47794-0.17301 0.78753-0.4036 0.78753-0.4036zm-0.78753 0.4036c-0.08893 0.0322-0.18497 0.0616-0.28474 0.0879 0.10012-0.0263 0.19558-0.0556 0.28474-0.0879zm-4.3615-1.6862c0.05948 0.013 0.11994 0.0294 0.18087 0.0501-0.03143-0.013-0.06612-0.0257-0.09872-0.0388-0.0268-6e-3 -0.05493-7e-3 -0.08215-0.0114zm0.5307 0.20929c0.14547 0.0836 0.29408 0.19231 0.44442 0.32453-0.05763-0.0668-0.11909-0.12646-0.18344-0.18087-0.07009-0.041-0.14941-0.0872-0.26098-0.14366zm0.61082 0.47956c0.05977 0.0596 0.11964 0.1211 0.17984 0.18914-0.0603-0.0681-0.12009-0.13039-0.17984-0.18914zm0.4744 0.48317c0.02196 0.0197 0.04368 0.0397 0.06564 0.0584-0.02196-0.0186-0.04379-0.0388-0.06564-0.0584zm0.34986 0.27337c0.0217 0.0143 0.04297 0.0268 0.06459 0.0403-0.0217-0.0135-0.04302-0.026-0.06459-0.0403zm0.32348 0.18397c0.01535 7e-3 0.03067 0.0163 0.04601 0.0233-0.01535-7e-3 -0.03066-0.0159-0.04601-0.0233zm0.33126 0.13074c0.02355 7e-3 0.04723 0.0141 0.0708 0.0207-0.02355-7e-3 -0.04718-0.0133-0.0708-0.0207zm1.404 0.0269c-0.08416 0.0207-0.17219 0.0374-0.26252 0.0512 0.09067-0.0138 0.17806-0.0305 0.26252-0.0512zm-1.0531 0.0558c0.01508 2e-3 0.02985 4e-3 0.04495 6e-3 -0.01508-2e-3 -0.02984-3e-3 -0.04495-6e-3zm0.68831 0.0103c-0.03101 4e-3 -0.06197 7e-3 -0.09353 0.01 0.0317-3e-3 0.06241-6e-3 0.09353-0.01zm-0.40307 0.0155c0.02249 8e-4 0.04493 2e-3 0.06718 3e-3 -0.02222-2.4e-4 -0.04479-2e-3 -0.06718-3e-3z" fill="url(#linearGradient22301)" opacity=".48548"/>
   <circle id="path22553" cx="-20.922" cy="285.07" r="3.3841" fill="#fff" fill-opacity=".97096"/>
   <circle id="path25532" cx="-19.936" cy="285.79" r=".98864" fill="#6cd069"/>
   <path id="path26780" d="m-17.087 272.83c-0.04077 1.2e-4 -0.08387 2e-3 -0.1292 7e-3 -7.6312 1.0009-10.499 6.2898-11.501 11.105 1.6328-3.3234 5.0664-7.3012 12.291-8.8651l0.05839-1.1348c0.0042-0.59719-0.10771-1.1138-0.71932-1.1121z" fill="url(#linearGradient27201)"/>
   <path id="path36565" d="m-16.085 301.8c3.8453-2.8791 2.6122-6.3108 1.2253-7.6805 5.8781 5.1762-0.36428 8.8091-1.2253 7.6805z" fill="#34185f" fill-opacity=".42155"/>
  </g>
  <path id="path3813-6" d="m24.204 14.529a9.6575 9.6575 0 0 0-9.6573 9.6573 9.6575 9.6575 0 0 0 9.6573 9.6575 9.6575 9.6575 0 0 0 9.6575-9.6575 9.6575 9.6575 0 0 0-9.6575-9.6573z" fill="url(#radialGradient3815-1)" opacity=".172" stroke-width="2.2813"/>
  <path id="circle2973-0-2-9" d="m32.563 24.174a7.6912 7.6912 0 0 1-7.6912 7.6912 7.6912 7.6912 0 0 1-7.6912-7.6912 7.6912 7.6912 0 0 1 7.6912-7.6912 7.6912 7.6912 0 0 1 7.6912 7.6912z" fill="url(#linearGradient2050)" stroke-width="1.938"/>
  <g id="g2819" fill="#042449" fill-opacity=".046249" opacity=".55952" stroke-linecap="round" stroke-linejoin="round" stroke-width=".22987">
   <path id="path2663" d="m23.881 20.434c-0.41925 0-0.75706 0.33781-0.75706 0.75706v2.3518h-1.1136c-0.4621-1.53e-4 -0.751 0.3775-0.51986 0.67954l3.0908 4.0406c0.23099 0.30186 0.80822 0.30186 1.0392 0l3.0902-4.0406c0.23102-0.30189-0.05748-0.6794-0.51935-0.67954h-1.1147v-2.3518c0-0.41925-0.33729-0.75706-0.75654-0.75706z" color="#000000" opacity="1" style="-inkscape-stroke:none"/>
   <path id="path2809" d="m24.09 20.73c-0.41925 0-0.75706 0.33781-0.75706 0.75706v2.3518h-1.1136c-0.4621-1.53e-4 -0.751 0.3775-0.51986 0.67954l3.0908 4.0406c0.23099 0.30186 0.80822 0.30186 1.0392 0l3.0902-4.0406c0.23102-0.30189-0.05748-0.6794-0.51935-0.67954h-1.1147v-2.3518c0-0.41925-0.33729-0.75706-0.75654-0.75706z" color="#000000" opacity="1" style="-inkscape-stroke:none"/>
   <path id="path2811" d="m24.376 21.154c-0.41925 0-0.75706 0.33781-0.75706 0.75706v2.3518h-1.1136c-0.4621-1.53e-4 -0.751 0.3775-0.51986 0.67954l3.0908 4.0406c0.23099 0.30186 0.80822 0.30186 1.0392 0l3.0902-4.0406c0.23102-0.30189-0.05748-0.6794-0.51935-0.67954h-1.1147v-2.3518c0-0.41925-0.33729-0.75706-0.75654-0.75706z" color="#000000" opacity="1" style="-inkscape-stroke:none"/>
   <path id="path2813" d="m24.665 21.633c-0.41925 0-0.75706 0.33781-0.75706 0.75706v2.3518h-1.1136c-0.4621-1.53e-4 -0.751 0.3775-0.51986 0.67954l3.0908 4.0406c0.23099 0.30186 0.80822 0.30186 1.0392 0l3.0902-4.0406c0.23102-0.30189-0.05748-0.6794-0.51935-0.67954h-1.1147v-2.3518c0-0.41925-0.33729-0.75706-0.75654-0.75706z" color="#000000" opacity="1" style="-inkscape-stroke:none"/>
  </g>
  <path id="path1159" d="m23.652 20.319c-0.41925 0-0.75706 0.33781-0.75706 0.75706v2.3518h-1.1136c-0.4621-1.53e-4 -0.751 0.3775-0.51986 0.67954l3.0908 4.0406c0.23099 0.30186 0.80822 0.30186 1.0392 0l3.0902-4.0406c0.23102-0.30189-0.05748-0.6794-0.51935-0.67954h-1.1147v-2.3518c0-0.41925-0.33729-0.75706-0.75654-0.75706z" color="#000000" fill="url(#linearGradient1843)" stroke-linecap="round" stroke-linejoin="round" stroke-width=".22987" style="-inkscape-stroke:none"/>
 </g>
</svg>
