<?xml version="1.0" encoding="UTF-8"?>
<svg id="svg1443" width="128" height="128" version="1.1" viewBox="0 0 33.867 33.867" xmlns="http://www.w3.org/2000/svg" xmlns:cc="http://creativecommons.org/ns#" xmlns:dc="http://purl.org/dc/elements/1.1/" xmlns:rdf="http://www.w3.org/1999/02/22-rdf-syntax-ns#" xmlns:xlink="http://www.w3.org/1999/xlink">
 <defs id="defs1437">
  <radialGradient id="radialGradient963" cx="16.951" cy="2.5104" r="14.544" gradientTransform="matrix(7.1386 0 0 2.2345 -104.06 -3.0991)" gradientUnits="userSpaceOnUse">
   <stop id="stop957" stop-color="#ff9c38" offset="0"/>
   <stop id="stop959" stop-color="#ea3d1c" stop-opacity=".96863" offset="1"/>
  </radialGradient>
 </defs>
 <metadata id="metadata1440">
  <rdf:RDF>
   <cc:Work rdf:about="">
    <dc:format>image/svg+xml</dc:format>
    <dc:type rdf:resource="http://purl.org/dc/dcmitype/StillImage"/>
   </cc:Work>
  </rdf:RDF>
 </metadata>
 <g id="layer1">
  <g id="g1702" transform="matrix(.97573 0 0 .97573 -65.737 -37.183)" fill="none" opacity=".295" stroke="#000" stroke-linecap="round" stroke-linejoin="round" stroke-opacity=".02">
   <rect id="rect1634" x="69.84" y="40.71" width="29.811" height="29.811" rx="6.6099" ry="6.6099" stroke-width=".1"/>
   <rect id="rect1638" x="69.84" y="40.71" width="29.811" height="29.811" rx="6.6099" ry="6.6099" stroke-width=".2"/>
   <rect id="rect1640" x="69.84" y="40.71" width="29.811" height="29.811" rx="6.6099" ry="6.6099" stroke-width=".3"/>
   <rect id="rect1642" x="69.84" y="40.71" width="29.811" height="29.811" rx="6.6099" ry="6.6099" stroke-width=".4"/>
   <rect id="rect1644" x="69.84" y="40.71" width="29.811" height="29.811" rx="6.6099" ry="6.6099" stroke-width=".5"/>
   <rect id="rect1646" x="69.84" y="40.71" width="29.811" height="29.811" rx="6.6099" ry="6.6099" stroke-width=".6"/>
   <rect id="rect1648" x="69.84" y="40.71" width="29.811" height="29.811" rx="6.6099" ry="6.6099" stroke-width=".7"/>
   <rect id="rect1650" x="69.84" y="40.71" width="29.811" height="29.811" rx="6.6099" ry="6.6099" stroke-width=".8"/>
   <rect id="rect1652" x="69.84" y="40.71" width="29.811" height="29.811" rx="6.6099" ry="6.6099"/>
   <rect id="rect1654" x="69.84" y="40.71" width="29.811" height="29.811" rx="6.6099" ry="6.6099" stroke-width="1.2"/>
   <rect id="rect1656" x="69.84" y="40.71" width="29.811" height="29.811" rx="6.6099" ry="6.6099" stroke-width="1.4"/>
   <rect id="rect1658" x="69.84" y="40.71" width="29.811" height="29.811" rx="6.6099" ry="6.6099" stroke-width="1.6"/>
   <rect id="rect1660" x="69.84" y="40.71" width="29.811" height="29.811" rx="6.6099" ry="6.6099" stroke-width="1.8"/>
   <rect id="rect1662" x="69.84" y="40.71" width="29.811" height="29.811" rx="6.6099" ry="6.6099" stroke-width="2"/>
   <rect id="rect1664" x="69.84" y="40.71" width="29.811" height="29.811" rx="6.6099" ry="6.6099" stroke-width="2.2"/>
   <rect id="rect1666" x="69.84" y="40.71" width="29.811" height="29.811" rx="6.6099" ry="6.6099" stroke-width="2.6"/>
   <rect id="rect1668" x="69.84" y="40.71" width="29.811" height="29.811" rx="6.6099" ry="6.6099" stroke-width="3"/>
   <rect id="rect1670" x="69.84" y="40.71" width="29.811" height="29.811" rx="6.6099" ry="6.6099" stroke-width="3.4"/>
   <rect id="rect1672" x="69.84" y="40.71" width="29.811" height="29.811" rx="6.6099" ry="6.6099" stroke-width="3.8"/>
   <rect id="rect1674" x="69.84" y="40.71" width="29.811" height="29.811" rx="6.6099" ry="6.6099" stroke-width="4.2"/>
   <rect id="rect1676" x="69.84" y="40.71" width="29.811" height="29.811" rx="6.6099" ry="6.6099" stroke-width="4.6"/>
   <rect id="rect1678" x="69.84" y="40.71" width="29.811" height="29.811" rx="6.6099" ry="6.6099" stroke-width="5"/>
  </g>
  <rect id="rect849" x="2.4074" y="2.5392" width="29.087" height="29.087" rx="6.4495" ry="6.4495" fill="url(#radialGradient963)" stroke-linecap="round" stroke-linejoin="round" stroke-width="2.6877"/>
  <g id="g1058" transform="matrix(1.1383 0 0 1.1383 -1.972 -2.5624)" stroke-width=".44979">
   <path id="path8" d="m16.624 13.69a4.4979 4.4979 0 0 0-4.4979 4.4979 4.4979 4.4979 0 0 0 4.4979 4.4979 4.4979 4.4979 0 0 0 4.4979-4.4979 4.4979 4.4979 0 0 0-4.4979-4.4979zm0 1.2851a3.2128 3.2128 0 0 1 3.2128 3.2128 3.2128 3.2128 0 0 1-3.2128 3.2128 3.2128 3.2128 0 0 1-3.2128-3.2128 3.2128 3.2128 0 0 1 3.2128-3.2128z" opacity=".2"/>
   <path id="path10" d="m16.624 13.24a4.4979 4.4979 0 0 0-4.4979 4.4979 4.4979 4.4979 0 0 0 4.4979 4.4979 4.4979 4.4979 0 0 0 4.4979-4.4979 4.4979 4.4979 0 0 0-4.4979-4.4979zm0 1.2851a3.2128 3.2128 0 0 1 3.2128 3.2128 3.2128 3.2128 0 0 1-3.2128 3.2128 3.2128 3.2128 0 0 1-3.2128-3.2128 3.2128 3.2128 0 0 1 3.2128-3.2128z" fill="#fff"/>
   <path id="path12" d="m16.354 9.1324c-3.0744 0.14494-5.494 2.6715-5.5111 5.7458-0.54919 0.27218-1.0679 0.62598-1.5253 1.0834-2.1478 2.153-2.262 5.6011-0.26112 7.8913-1.251-1.5335-1.1381-3.7651 0.26112-5.1646 1.5061-1.5061 3.9473-1.5061 5.4533 0 1.5061 1.5061 1.5061 3.9473 0 5.4533-1.4314 1.431-3.725 1.5123-5.2537 0.1858 1.9988 1.8189 4.9393 1.9841 7.1067 0.53353 2.1673 1.4505 5.1078 1.2853 7.1067-0.53353-1.5287 1.3265-3.8224 1.2453-5.2537-0.1858-1.5061-1.5061-1.5061-3.9473 0-5.4533 1.5061-1.5061 3.9473-1.5061 5.4533 0 1.3992 1.3995 1.5122 3.6311 0.26112 5.1646 2.0008-2.2902 1.8867-5.7383-0.26112-7.8913-0.45596-0.45596-0.97302-0.80897-1.5203-1.0809-0.01737-3.0291-2.369-5.5343-5.3943-5.7383 1.9689 0.19971 3.4671 1.8574 3.4673 3.8364 0 2.1299-1.7266 3.8565-3.8565 3.8565-2.1299 0-3.8565-1.7266-3.8565-3.8565 2.14e-4 -2.024 1.5651-3.7035 3.5841-3.8465zm0.27241 8.3457 0.96413 0.96413-0.96413 0.96413-0.96413-0.96413z" opacity=".2"/>
   <path id="path14" d="m16.354 8.6826c-3.0744 0.14494-5.494 2.6715-5.5111 5.7458-0.54919 0.27218-1.0679 0.62598-1.5253 1.0834-2.1478 2.153-2.262 5.6011-0.26112 7.8913-1.251-1.5335-1.1381-3.7651 0.26112-5.1646 1.5061-1.5061 3.9473-1.5061 5.4533 0 1.5061 1.5061 1.5061 3.9473 0 5.4533-1.4314 1.431-3.725 1.5123-5.2537 0.1858 1.9988 1.8189 4.9393 1.9841 7.1067 0.53353 2.1673 1.4505 5.1078 1.2853 7.1067-0.53353-1.5287 1.3265-3.8224 1.2453-5.2537-0.1858-1.5061-1.5061-1.5061-3.9473 0-5.4533 1.5061-1.5061 3.9473-1.5061 5.4533 0 1.3992 1.3995 1.5122 3.6311 0.26112 5.1646 2.0008-2.2902 1.8867-5.7383-0.26112-7.8913-0.45596-0.45596-0.97302-0.80897-1.5203-1.0809-0.01737-3.0291-2.369-5.5343-5.3943-5.7383 1.9689 0.19971 3.4671 1.8574 3.4673 3.8364 0 2.1299-1.7266 3.8565-3.8565 3.8565-2.1299 0-3.8565-1.7266-3.8565-3.8565 2.14e-4 -2.024 1.5651-3.7035 3.5841-3.8465zm0.27241 8.3457 0.96413 0.96413-0.96413 0.96413-0.96413-0.96413z" fill="#fff"/>
  </g>
 </g>
</svg>
