<?xml version="1.0" encoding="UTF-8" standalone="no"?>
<svg
   id="svg1443"
   width="512"
   height="512"
   version="1.1"
   viewBox="0 0 33.867 33.867"
   sodipodi:docname="org.zulip.Zulip.svg"
   inkscape:version="1.4.4 (dcaf3e7d9e, 2026-05-05)"
   xmlns:inkscape="http://www.inkscape.org/namespaces/inkscape"
   xmlns:sodipodi="http://sodipodi.sourceforge.net/DTD/sodipodi-0.dtd"
   xmlns:xlink="http://www.w3.org/1999/xlink"
   xmlns="http://www.w3.org/2000/svg"
   xmlns:svg="http://www.w3.org/2000/svg"
   xmlns:rdf="http://www.w3.org/1999/02/22-rdf-syntax-ns#"
   xmlns:cc="http://creativecommons.org/ns#"
   xmlns:dc="http://purl.org/dc/elements/1.1/">
  <sodipodi:namedview
     id="namedview1"
     pagecolor="#ffffff"
     bordercolor="#999999"
     borderopacity="1"
     inkscape:showpageshadow="2"
     inkscape:pageopacity="0"
     inkscape:pagecheckerboard="0"
     inkscape:deskcolor="#d1d1d1"
     inkscape:zoom="2.2617188"
     inkscape:cx="256"
     inkscape:cy="256"
     inkscape:window-width="2560"
     inkscape:window-height="1371"
     inkscape:window-x="0"
     inkscape:window-y="0"
     inkscape:window-maximized="1"
     inkscape:current-layer="svg1443" />
  <defs
     id="defs1437">
    <radialGradient
       id="radialGradient870"
       cx="16.951"
       cy="2.8905"
       r="14.544"
       gradientTransform="matrix(7.6697,0,0,2.6553,-113.06,-4.7848)"
       gradientUnits="userSpaceOnUse">
      <stop
         id="stop1626"
         stop-color="#aa5fff"
         offset="0"
         style="stop-color:#c061cb;stop-opacity:1" />
      <stop
         id="stop1628"
         stop-color="#5100ea"
         offset="1"
         style="stop-color:#613583;stop-opacity:1" />
    </radialGradient>
    <linearGradient
       id="linearGradient1076"
       x1="21.788"
       x2="20.031"
       y1="15.579"
       y2="14.564"
       gradientUnits="userSpaceOnUse">
      <stop
         id="stop1070"
         stop-color="#fff"
         offset="0" />
      <stop
         id="stop1072"
         stop-color="#fff"
         stop-opacity="0"
         offset="1" />
    </linearGradient>
    <radialGradient
       id="radialGradient1088"
       cx="11.749"
       cy="2.4167"
       r="9.4247"
       gradientTransform="matrix(0.30807695,0,0,0.5318058,7.5987376,6.0927482)"
       gradientUnits="userSpaceOnUse">
      <stop
         id="stop1080"
         stop-color="#8f42f9"
         stop-opacity="0"
         offset="0" />
      <stop
         id="stop1092"
         stop-color="#8f42f9"
         stop-opacity="0"
         offset=".42415" />
      <stop
         id="stop1096"
         stop-color="#8f42f9"
         stop-opacity=".090196"
         offset=".54339" />
      <stop
         id="stop1098"
         stop-color="#8f42f9"
         stop-opacity=".43529"
         offset=".76301" />
      <stop
         id="stop1082"
         stop-color="#8f42f9"
         stop-opacity=".99652"
         offset="1" />
    </radialGradient>
    <linearGradient
       id="linearGradient1165"
       x1="22.206"
       x2="22.206"
       y1="34.549"
       y2="23.087"
       gradientUnits="userSpaceOnUse">
      <stop
         id="stop1159"
         stop-color="#6e1ff1"
         offset="0" />
      <stop
         id="stop1161"
         stop-color="#6e1ff1"
         stop-opacity="0"
         offset="1" />
    </linearGradient>
    <filter
       inkscape:collect="always"
       style="color-interpolation-filters:sRGB"
       id="filter1"
       x="-0.077677041"
       y="-0.072501337"
       width="1.1553541"
       height="1.1450027">
      <feGaussianBlur
         inkscape:collect="always"
         stdDeviation="0.61009066"
         id="feGaussianBlur1" />
    </filter>
    <linearGradient
       inkscape:collect="always"
       xlink:href="#radialGradient870"
       id="linearGradient1"
       x1="16.950899"
       y1="2.5392008"
       x2="16.950899"
       y2="31.626202"
       gradientUnits="userSpaceOnUse" />
  </defs>
  <metadata
     id="metadata1440">
    <rdf:RDF>
      <cc:Work
         rdf:about="">
        <dc:format>image/svg+xml</dc:format>
        <dc:type
           rdf:resource="http://purl.org/dc/dcmitype/StillImage" />
        <dc:title />
      </cc:Work>
    </rdf:RDF>
  </metadata>
  <rect
     id="rect849"
     x="2.4073999"
     y="2.5392001"
     width="29.087"
     height="29.087"
     rx="6.4495001"
     ry="6.4495001"
     fill="url(#radialGradient870)"
     stroke-linecap="round"
     stroke-linejoin="round"
     stroke-width="2.6877"
     style="fill:url(#linearGradient1)" />
  <path
     id="path10"
     d="m 10.344044,7.6465079 c -1.5494999,0 -2.8171684,0.9860562 -2.8171684,2.6927561 0,1.70677 1.2677685,2.692627 2.8171684,2.692627 h 10.00401 c 0.14841,0 0.242099,0.161329 0.169759,0.304119 l -2.579326,5.503723 c -0.0942,0.14874 0.07559,0.327047 0.206191,0.216527 0,0 8.231362,-6.147296 8.231362,-8.716996 h 2.58e-4 c 0,-1.3757999 -1.267897,-2.6934963 -2.817297,-2.6927561 z m 5.501915,8.7514901 c -0.02914,-1.27e-4 -0.05954,0.01031 -0.08811,0.03449 0,0 -8.2313619,6.147296 -8.2313619,8.716996 h -2.584e-4 c 0,1.3758 1.2677684,2.693497 2.8171683,2.692756 h 13.215086 c 1.5495,0 2.817168,-0.986056 2.817168,-2.692756 0,-1.70676 -1.267768,-2.692627 -2.817168,-2.692627 h -10.00401 c -0.14841,0 -0.242099,-0.161329 -0.169759,-0.304119 l 2.579196,-5.503853 c 0.0736,-0.116203 -0.01386,-0.250439 -0.117952,-0.250891 z"
     style="filter:url(#filter1);opacity:0.35" />
  <path
     id="path10-7"
     d="m 10.344044,6.9850429 c -1.5494999,0 -2.8171684,0.9860562 -2.8171684,2.6927562 0,1.7067699 1.2677685,2.6926269 2.8171684,2.6926269 h 10.00401 c 0.14841,0 0.242099,0.161329 0.169759,0.304119 l -2.579326,5.503723 c -0.0942,0.14874 0.07559,0.327047 0.206191,0.216527 0,0 8.231362,-6.147296 8.231362,-8.7169959 h 2.58e-4 c 0,-1.3758 -1.267897,-2.6934964 -2.817297,-2.6927562 z m 5.501915,8.7514901 c -0.02914,-1.27e-4 -0.05954,0.01031 -0.08811,0.03449 0,0 -8.2313619,6.147296 -8.2313619,8.716996 h -2.584e-4 c 0,1.3758 1.2677684,2.693497 2.8171683,2.692756 h 13.215086 c 1.5495,0 2.817168,-0.986056 2.817168,-2.692756 0,-1.70676 -1.267768,-2.692627 -2.817168,-2.692627 h -10.00401 c -0.14841,0 -0.242099,-0.161329 -0.169759,-0.304119 L 15.96391,15.98742 c 0.0736,-0.116203 -0.01386,-0.250439 -0.117952,-0.250891 z"
     style="fill:#ffffff;fill-opacity:1" />
</svg>
