<?xml version="1.0" encoding="UTF-8"?>
<svg id="svg1443" width="512" height="512" version="1.1" viewBox="0 0 33.867 33.867" xmlns="http://www.w3.org/2000/svg" xmlns:cc="http://creativecommons.org/ns#" xmlns:dc="http://purl.org/dc/elements/1.1/" xmlns:rdf="http://www.w3.org/1999/02/22-rdf-syntax-ns#" xmlns:xlink="http://www.w3.org/1999/xlink">
 <defs id="defs1437">
  <filter id="filter1" x="-.077677" y="-.072501" width="1.1554" height="1.145" color-interpolation-filters="sRGB">
   <feGaussianBlur id="feGaussianBlur1" stdDeviation="0.61009066"/>
  </filter>
  <linearGradient id="linearGradient1" x1="16.951" x2="16.951" y1="2.5392" y2="31.626" gradientTransform="matrix(7.6697,0,0,2.6553,-113.06,-4.7848)" gradientUnits="userSpaceOnUse">
   <stop id="stop1626" stop-color="#c061cb" offset="0"/>
   <stop id="stop1628" stop-color="#613583" offset="1"/>
  </linearGradient>
 </defs>
 <metadata id="metadata1440">
  <rdf:RDF>
   <cc:Work rdf:about="">
    <dc:format>image/svg+xml</dc:format>
    <dc:type rdf:resource="http://purl.org/dc/dcmitype/StillImage"/>
    <dc:title/>
   </cc:Work>
  </rdf:RDF>
 </metadata>
 <rect id="rect849" x="2.4074" y="2.5392" width="29.087" height="29.087" rx="6.4495" ry="6.4495" fill="url(#linearGradient1)" stroke-linecap="round" stroke-linejoin="round" stroke-width="2.6877"/>
 <path id="path10" d="m10.344 7.6465c-1.5495 0-2.8172 0.98606-2.8172 2.6928 0 1.7068 1.2678 2.6926 2.8172 2.6926h10.004c0.14841 0 0.2421 0.16133 0.16976 0.30412l-2.5793 5.5037c-0.0942 0.14874 0.07559 0.32705 0.20619 0.21653 0 0 8.2314-6.1473 8.2314-8.717h2.58e-4c0-1.3758-1.2679-2.6935-2.8173-2.6928zm5.5019 8.7515c-0.02914-1.27e-4 -0.05954 0.01031-0.08811 0.03449 0 0-8.2314 6.1473-8.2314 8.717h-2.584e-4c0 1.3758 1.2678 2.6935 2.8172 2.6928h13.215c1.5495 0 2.8172-0.98606 2.8172-2.6928 0-1.7068-1.2678-2.6926-2.8172-2.6926h-10.004c-0.14841 0-0.2421-0.16133-0.16976-0.30412l2.5792-5.5039c0.0736-0.1162-0.01386-0.25044-0.11795-0.25089z" filter="url(#filter1)" opacity=".35"/>
 <path id="path10-7" d="m10.344 6.985c-1.5495 0-2.8172 0.98606-2.8172 2.6928 0 1.7068 1.2678 2.6926 2.8172 2.6926h10.004c0.14841 0 0.2421 0.16133 0.16976 0.30412l-2.5793 5.5037c-0.0942 0.14874 0.07559 0.32705 0.20619 0.21653 0 0 8.2314-6.1473 8.2314-8.717h2.58e-4c0-1.3758-1.2679-2.6935-2.8173-2.6928zm5.5019 8.7515c-0.02914-1.27e-4 -0.05954 0.01031-0.08811 0.03449 0 0-8.2314 6.1473-8.2314 8.717h-2.584e-4c0 1.3758 1.2678 2.6935 2.8172 2.6928h13.215c1.5495 0 2.8172-0.98606 2.8172-2.6928 0-1.7068-1.2678-2.6926-2.8172-2.6926h-10.004c-0.14841 0-0.2421-0.16133-0.16976-0.30412l2.5792-5.5039c0.0736-0.1162-0.01386-0.25044-0.11795-0.25089z" fill="#fff"/>
</svg>
