<?xml version="1.0" encoding="UTF-8" standalone="no"?>
<svg
   width="64"
   height="64"
   version="1.1"
   id="svg34"
   sodipodi:docname="application-dicom.svg"
   inkscape:version="1.4.3 (0d15f75042, 2025-12-25)"
   xmlns:inkscape="http://www.inkscape.org/namespaces/inkscape"
   xmlns:sodipodi="http://sodipodi.sourceforge.net/DTD/sodipodi-0.dtd"
   xmlns:xlink="http://www.w3.org/1999/xlink"
   xmlns="http://www.w3.org/2000/svg"
   xmlns:svg="http://www.w3.org/2000/svg">
  <sodipodi:namedview
     id="namedview34"
     pagecolor="#ffffff"
     bordercolor="#111111"
     borderopacity="1"
     inkscape:showpageshadow="0"
     inkscape:pageopacity="0"
     inkscape:pagecheckerboard="1"
     inkscape:deskcolor="#d1d1d1"
     inkscape:zoom="17.6875"
     inkscape:cx="31.971731"
     inkscape:cy="32"
     inkscape:window-width="2560"
     inkscape:window-height="1371"
     inkscape:window-x="0"
     inkscape:window-y="0"
     inkscape:window-maximized="1"
     inkscape:current-layer="svg34" />
  <defs
     id="defs6">
    <linearGradient
       xlink:href="#a"
       id="b"
       x1="7.937"
       x2="7.937"
       y1="15.346"
       y2="16.933"
       gradientUnits="userSpaceOnUse" />
    <linearGradient
       id="a">
      <stop
         offset="0"
         id="stop1" />
      <stop
         offset="1"
         stop-opacity="0"
         id="stop2" />
    </linearGradient>
    <linearGradient
       xlink:href="#a"
       id="d"
       x1="43"
       x2="46.748"
       y1="12"
       y2="8.252"
       gradientUnits="userSpaceOnUse" />
    <linearGradient
       xlink:href="#a"
       id="f"
       x1="5.821"
       x2="5.821"
       y1="1.058"
       gradientUnits="userSpaceOnUse" />
    <linearGradient
       xlink:href="#a"
       id="h"
       x1="13.758"
       x2="15.081"
       y1="10.583"
       y2="10.583"
       gradientUnits="userSpaceOnUse" />
    <linearGradient
       xlink:href="#a"
       id="i"
       x1="3.175"
       x2="1.852"
       y1="8.466"
       y2="8.466"
       gradientUnits="userSpaceOnUse" />
    <linearGradient
       xlink:href="#a"
       id="l"
       x1="7.937"
       x2="7.937"
       y1="15.346"
       y2="16.668"
       gradientUnits="userSpaceOnUse" />
    <linearGradient
       xlink:href="#a"
       id="n"
       x1="43"
       x2="46.004"
       y1="12"
       y2="8.996"
       gradientUnits="userSpaceOnUse" />
    <linearGradient
       xlink:href="#a"
       id="p"
       x1="5.821"
       x2="5.821"
       y1="1.058"
       y2=".265"
       gradientUnits="userSpaceOnUse" />
    <linearGradient
       xlink:href="#a"
       id="r"
       x1="13.758"
       x2="14.816"
       y1="10.583"
       y2="10.583"
       gradientUnits="userSpaceOnUse" />
    <linearGradient
       xlink:href="#a"
       id="s"
       x1="3.175"
       x2="2.117"
       y1="8.466"
       y2="8.466"
       gradientUnits="userSpaceOnUse" />
    <linearGradient
       id="v"
       x1="21.039"
       x2="21.039"
       y1="2"
       y2="62"
       gradientTransform="translate(0 -.265)scale(.26458)"
       gradientUnits="userSpaceOnUse">
      <stop
         offset="0"
         stop-color="gray"
         id="stop3" />
      <stop
         offset="1"
         stop-color="#4d4d4d"
         id="stop4" />
    </linearGradient>
    <linearGradient
       xlink:href="#a"
       id="z"
       x1="10.583"
       x2="6.35"
       y1="3.175"
       y2="3.175"
       gradientTransform="matrix(1 0 0 .66667 0 1.411)"
       gradientUnits="userSpaceOnUse" />
    <linearGradient
       xlink:href="#a"
       id="A"
       x1="10.583"
       x2="8.731"
       y1="3.043"
       y2="3.043"
       gradientTransform="matrix(1 0 0 .66667 0 1.411)"
       gradientUnits="userSpaceOnUse" />
    <linearGradient
       xlink:href="#a"
       id="D"
       x1="10.583"
       x2="6.35"
       y1="3.175"
       y2="3.175"
       gradientTransform="matrix(1 0 0 .66667 -14.816 9.348)"
       gradientUnits="userSpaceOnUse" />
    <linearGradient
       xlink:href="#a"
       id="E"
       x1="10.583"
       x2="8.724"
       y1="3.043"
       y2="3.043"
       gradientTransform="matrix(1 0 0 .66667 -14.816 9.348)"
       gradientUnits="userSpaceOnUse" />
    <linearGradient
       id="G"
       x1="40"
       x2="46"
       y1="17"
       y2="11"
       gradientTransform="translate(0 -.265)scale(.26458)"
       gradientUnits="userSpaceOnUse">
      <stop
         offset="0"
         stop-color="#fefefe"
         id="stop5" />
      <stop
         offset="1"
         stop-color="#e9e9e9"
         id="stop6" />
    </linearGradient>
    <radialGradient
       xlink:href="#a"
       id="c"
       cx="35"
       cy="4"
       r="3.728"
       gradientTransform="matrix(1.696 0 0 1.0731 -24.361 -.292)"
       gradientUnits="userSpaceOnUse" />
    <radialGradient
       xlink:href="#a"
       id="e"
       cx="52"
       cy="22"
       r="5.206"
       gradientTransform="matrix(.96042 0 0 1.3331 2.058 -7.328)"
       gradientUnits="userSpaceOnUse" />
    <radialGradient
       xlink:href="#a"
       id="g"
       cx="3.175"
       cy="1.323"
       r=".794"
       gradientTransform="matrix(0 -1.3333 1.6667 0 .97 5.292)"
       gradientUnits="userSpaceOnUse" />
    <radialGradient
       xlink:href="#a"
       id="j"
       cx="13.758"
       cy="15.346"
       r=".794"
       gradientTransform="matrix(0 2 -1.6667 0 39.334 -12.171)"
       gradientUnits="userSpaceOnUse" />
    <radialGradient
       xlink:href="#a"
       id="k"
       cx="3.175"
       cy="15.346"
       r=".794"
       gradientTransform="matrix(-1.6667 0 0 -2 8.466 46.037)"
       gradientUnits="userSpaceOnUse" />
    <radialGradient
       xlink:href="#a"
       id="m"
       cx="35"
       cy="4"
       r="3.728"
       gradientTransform="matrix(1.6115 0 0 .80482 -21.403 .78)"
       gradientUnits="userSpaceOnUse" />
    <radialGradient
       xlink:href="#a"
       id="o"
       cx="52"
       cy="22"
       r="5.206"
       gradientTransform="matrix(.76834 0 0 1.2272 12.047 -4.999)"
       gradientUnits="userSpaceOnUse" />
    <radialGradient
       xlink:href="#a"
       id="q"
       cx="3.175"
       cy="1.323"
       r=".794"
       gradientTransform="matrix(0 -1 1.3333 0 1.411 4.233)"
       gradientUnits="userSpaceOnUse" />
    <radialGradient
       xlink:href="#a"
       id="t"
       cx="13.758"
       cy="15.346"
       r=".794"
       gradientTransform="matrix(0 1.6667 -1.3333 0 34.219 -7.585)"
       gradientUnits="userSpaceOnUse" />
    <radialGradient
       xlink:href="#a"
       id="u"
       cx="3.175"
       cy="15.346"
       r=".794"
       gradientTransform="matrix(-1.3333 0 0 -1.6667 7.408 40.921)"
       gradientUnits="userSpaceOnUse" />
    <radialGradient
       xlink:href="#a"
       id="w"
       cx="40"
       cy="12"
       r="8"
       gradientTransform="matrix(1.5 0 0 -2 -14 40)"
       gradientUnits="userSpaceOnUse" />
    <radialGradient
       xlink:href="#a"
       id="x"
       cx="10.583"
       cy="4.233"
       r="2.117"
       gradientTransform="matrix(-2 0 0 -2 31.749 12.7)"
       gradientUnits="userSpaceOnUse" />
    <radialGradient
       xlink:href="#a"
       id="y"
       cx="40"
       cy="12"
       r="8"
       gradientTransform="matrix(0 -1.5 2 0 16 70)"
       gradientUnits="userSpaceOnUse" />
    <radialGradient
       xlink:href="#a"
       id="B"
       cx="10.583"
       cy="4.233"
       r="2.117"
       gradientTransform="matrix(-.875 0 0 -.87849 19.843 7.952)"
       gradientUnits="userSpaceOnUse" />
    <radialGradient
       xlink:href="#a"
       id="C"
       cx="40"
       cy="12"
       r="8"
       gradientTransform="matrix(0 -1.3078 .87983 0 29.442 62.311)"
       gradientUnits="userSpaceOnUse" />
    <radialGradient
       xlink:href="#a"
       id="F"
       cx="40"
       cy="12"
       r="8"
       gradientTransform="matrix(1.4336 0 0 -.87849 -11.344 26.542)"
       gradientUnits="userSpaceOnUse" />
    <filter
       inkscape:collect="always"
       style="color-interpolation-filters:sRGB"
       id="filter94"
       x="-0.069119996"
       y="-0.069119996"
       width="1.13824"
       height="1.13824">
      <feGaussianBlur
         inkscape:collect="always"
         stdDeviation="1.6128562"
         id="feGaussianBlur94" />
    </filter>
    <linearGradient
       inkscape:collect="always"
       xlink:href="#linearGradient862-3"
       id="linearGradient5"
       gradientUnits="userSpaceOnUse"
       gradientTransform="matrix(3.7796,0,0,3.7796,-9.765e-4,0.0302735)"
       x1="7.9373002"
       y1="15.081"
       x2="7.9373002"
       y2="1.852" />
    <linearGradient
       id="linearGradient862-3"
       x1="7.9373002"
       x2="7.9373002"
       y1="15.081"
       y2="1.852"
       gradientTransform="scale(3.7796)"
       gradientUnits="userSpaceOnUse"
       xlink:href="#linearGradient92">
      <stop
         stop-color="#f1efeb"
         offset="0"
         id="stop1-7" />
      <stop
         stop-color="#fdfcfc"
         offset="1"
         id="stop2-6" />
    </linearGradient>
    <linearGradient
       id="linearGradient92"
       x1="7.9373002"
       x2="7.9373002"
       y1="15.081"
       y2="1.852"
       gradientTransform="scale(3.7796)"
       gradientUnits="userSpaceOnUse"
       spreadMethod="pad">
      <stop
         stop-color="#f1efeb"
         offset="0"
         id="stop91"
         style="stop-color:#695e49;stop-opacity:1;" />
      <stop
         stop-color="#fdfcfc"
         offset="1"
         id="stop92" />
    </linearGradient>
    <filter
       inkscape:collect="always"
       style="color-interpolation-filters:sRGB"
       id="filter95"
       x="-0.14695404"
       y="-0.14704597"
       width="1.2939081"
       height="1.2940919">
      <feGaussianBlur
         inkscape:collect="always"
         stdDeviation="1.5300537"
         id="feGaussianBlur95" />
    </filter>
    <linearGradient
       id="d-5"
       x1="45"
       x2="60.076"
       y1="19"
       y2="3.924"
       gradientTransform="translate(0.01285182,-0.00112622)"
       gradientUnits="userSpaceOnUse">
      <stop
         offset="0"
         stop-color="#fff"
         id="stop5-6" />
      <stop
         offset="1"
         stop-color="#b3b3b3"
         id="stop6-9" />
    </linearGradient>
  </defs>
  <g
     id="g1"
     transform="translate(-0.12816816,-0.12816816)">
    <path
       id="path3-9-5"
       style="opacity:0.25;fill:#212121;fill-opacity:1;stroke-width:3.7796;filter:url(#filter94)"
       d="m 17.000976,3.999023 c -7.203094,0 -13.001953,5.798859 -13.001953,13.001953 v 29.998047 c 0,7.203095 5.798859,13.001953 13.001953,13.001953 h 29.998047 c 7.203095,0 13.001953,-5.798858 13.001953,-13.001953 V 28.971679 c -0.125226,-0.33309 -0.258163,-0.643195 -0.398438,-0.933593 -0.140274,-0.290399 -0.289006,-0.559404 -0.443359,-0.810547 -0.154353,-0.251144 -0.314961,-0.483894 -0.482422,-0.699219 -0.16746,-0.215325 -0.341887,-0.414714 -0.521484,-0.597656 -0.179598,-0.182943 -0.363924,-0.34991 -0.554688,-0.503907 -0.190764,-0.153996 -0.38693,-0.293388 -0.58789,-0.421875 -0.200961,-0.128487 -0.407002,-0.245149 -0.617188,-0.351562 0.210186,0.106413 0.416227,0.223075 0.617188,0.351562 0.20096,0.128487 0.397126,0.267879 0.58789,0.421875 0.190764,0.153997 0.37509,0.320964 0.554688,0.503907 0.179597,0.182942 0.354024,0.382331 0.521484,0.597656 0.167461,0.215325 0.328069,0.448075 0.482422,0.699219 0.154353,0.251143 0.303085,0.520148 0.443359,0.810547 0.140275,0.290398 0.273212,0.600503 0.398438,0.933593 V 28.833007 C 59.752064,21.784286 43.371199,5.1842268 35.799804,4.0341792 c -0.264999,-0.02 -0.52811,-0.035156 -0.787109,-0.035156 0.249999,0.0625 0.487549,0.1462404 0.714843,0.2460938 0.227295,0.099853 0.444337,0.2158204 0.650391,0.3496093 0.206054,0.133789 0.401612,0.2849123 0.587891,0.4492188 0.186279,0.1643065 0.363281,0.341797 0.53125,0.5332031 0.167968,0.1914061 0.327392,0.3962404 0.478515,0.6113281 0.151123,0.2150878 0.293946,0.4404299 0.429688,0.6757813 C 38.269531,6.6289059 38.126708,6.4035639 37.975585,6.1884761 37.824462,5.9733883 37.665038,5.7685541 37.49707,5.577148 37.329101,5.3857419 37.152099,5.2082514 36.96582,5.0439449 36.779541,4.8796383 36.583983,4.7285151 36.377929,4.5947261 36.171875,4.4609372 35.954833,4.3449702 35.727538,4.2451168 35.500244,4.1452633 35.262694,4.0615229 35.012695,3.999023 Z m 22.728515,6.025391 c 0.177735,0.564452 0.337891,1.138672 0.486329,1.708984 0.296875,1.140624 0.546875,2.265627 0.796875,3.265625 -0.25,-0.999998 -0.500001,-2.125001 -0.796875,-3.265625 -0.148438,-0.570312 -0.308594,-1.144532 -0.486329,-1.708984 z m 13.246094,13.580078 c 0.483513,0.09518 0.959749,0.196737 1.423828,0.318359 -0.464079,-0.121622 -0.940315,-0.223178 -1.423828,-0.318359 z"
       inkscape:label="Shadow" />
    <path
       d="m 17.000976,3.9990235 c -7.2031005,0 -13.0019525,5.798852 -13.0019525,13.0019525 v 29.998047 c 0,7.203102 5.798852,13.001953 13.0019525,13.001953 h 29.998047 c 7.203102,0 13.001953,-5.798851 13.001953,-13.001953 V 28.971679 c -2.003622,-5.329445 -5.995573,-4.974479 -9.988281,-5.972656 -5.819994,-1.454999 -8.030001,-4.120004 -9,-7.999999 -0.999999,-3.999997 -2.000003,-10.0000015 -6,-11.0000005 z"
       style="fill:url(#linearGradient5);stroke-width:3.7796"
       id="path3-9"
       inkscape:label="Sheet" />
    <rect
       style="display:none;opacity:0.25;fill:none;fill-opacity:1;stroke:#ff00ee;stroke-width:0.1;stroke-linecap:square;stroke-linejoin:round;stroke-dasharray:none;stroke-opacity:1"
       id="rect1"
       width="31.62265"
       height="31.622654"
       x="16.188675"
       y="16.188673" />
    <path
       d="m 33.300709,4.6539948 c 3.999996,0.999999 5.000001,7.0000042 6,11.0000002 0.969999,3.879996 3.180006,6.545001 9,8 3.992708,0.998177 7.984659,0.64321 9.988281,5.972656 V 29.487979 C 58.040078,22.439251 41.659221,5.8391998 34.087818,4.6891508 c -0.264999,-0.02 -0.528109,-0.03516 -0.787109,-0.03516 z"
       style="display:inline;opacity:0.25;fill:#212121;fill-opacity:1;filter:url(#filter95)"
       id="path5-6"
       inkscape:label="Cornershadow" />
    <path
       d="m 35.012695,3.9990237 c 3.999996,0.999999 5.000001,7.0000043 6,11.0000003 0.969999,3.879996 3.180006,6.545001 9,8 3.992708,0.998177 7.984659,0.64321 9.988281,5.972656 V 28.833008 C 59.752064,21.78428 43.371207,5.1842286 35.799804,4.0341799 c -0.264999,-0.02 -0.528109,-0.035156 -0.787109,-0.035156 z"
       style="display:inline;fill:url(#d-5)"
       id="path5"
       inkscape:label="Corner" />
  </g>
  <path
     fill="#fff"
     d="m 29.542,18.67381 c 0.842,0 1.528,0.67 1.528,1.494 v 5.915 a 2.5,2.5 0 0 0 -1.528,-0.522 c -0.259,0 -0.468,0.205 -0.468,0.458 0,0.253 0.21,0.457 0.468,0.457 0.842,0 1.528,0.67 1.528,1.494 v 10.989 a 4.46,4.46 0 0 0 -2.364,-1.541 0.47,0.47 0 0 0 -0.574,0.323 0.46,0.46 0 0 0 0.33,0.561 c 1.536,0.404 2.608,1.77 2.608,3.324 0,1.9 -1.58,3.445 -3.523,3.445 a 3.53,3.53 0 0 1 -3.116,-1.845 0.47,0.47 0 0 0 -0.294,-0.229 c -1.535,-0.403 -2.605,-1.768 -2.605,-3.32 q 0,-0.352 0.07,-0.694 a 0.456,0.456 0 0 0 -0.268,-0.509 c -1.092,-0.475 -1.798,-1.533 -1.798,-2.7 0,-0.53 0.14,-1.037 0.408,-1.486 a 4,4 0 0 0 2.614,0.969 0.463,0.463 0 0 0 0.469,-0.458 0.463,0.463 0 0 0 -0.469,-0.457 c -1.667,0 -3.022,-1.328 -3.022,-2.958 0,-0.878 0.396,-1.705 1.087,-2.269 a 0.45,0.45 0 0 0 0.133,-0.522 2.9,2.9 0 0 1 -0.223,-1.11 c 0,-1.63 1.355,-2.956 3.023,-2.956 1.668,0 3.025,1.326 3.025,2.956 0,0.253 0.209,0.457 0.468,0.457 0.259,0 0.468,-0.204 0.468,-0.457 0,-2.051 -1.64,-3.733 -3.706,-3.861 a 1.94,1.94 0 0 1 -0.285,-1.016 1.98,1.98 0 0 1 1.227,-1.818 0.4,0.4 0 0 0 0.08,-0.035 q 0.336,-0.126 0.717,-0.128 a 2.02,2.02 0 0 1 1.826,1.116 0.47,0.47 0 0 0 0.623,0.21 0.45,0.45 0 0 0 0.215,-0.61 2.97,2.97 0 0 0 -1.982,-1.55 c 1.194,-0.713 2.364,-1.117 3.308,-1.117 m 3.99,0 c 0.938,0 2.113,0.405 3.307,1.116 -0.851,0.2 -1.591,0.766 -1.982,1.551 a 0.45,0.45 0 0 0 0.216,0.61 0.47,0.47 0 0 0 0.625,-0.21 2.02,2.02 0 0 1 1.823,-1.116 q 0.381,0.002 0.718,0.128 a 1.98,1.98 0 0 1 1.309,1.852 c 0,0.362 -0.1,0.711 -0.288,1.017 -2.065,0.128 -3.703,1.81 -3.703,3.86 0,0.254 0.21,0.458 0.468,0.458 0.258,0 0.468,-0.204 0.468,-0.457 0,-1.63 1.355,-2.956 3.023,-2.956 1.668,0 3.025,1.326 3.025,2.956 0,0.38 -0.076,0.754 -0.223,1.11 a 0.45,0.45 0 0 0 0.133,0.522 2.93,2.93 0 0 1 1.087,2.269 c 0,1.63 -1.357,2.958 -3.025,2.958 -0.259,0 -0.468,0.204 -0.468,0.457 0,0.253 0.21,0.458 0.468,0.458 a 4,4 0 0 0 2.614,-0.97 c 0.269,0.45 0.41,0.957 0.41,1.487 a 2.96,2.96 0 0 1 -1.797,2.7 0.456,0.456 0 0 0 -0.268,0.51 c 0.047,0.226 0.07,0.46 0.07,0.692 0,1.553 -1.072,2.917 -2.607,3.321 a 0.47,0.47 0 0 0 -0.292,0.229 3.53,3.53 0 0 1 -3.119,1.845 c -1.942,0 -3.522,-1.547 -3.522,-3.445 q 0,-0.194 -0.019,-0.383 A 0.4,0.4 0 0 0 32,41.12081 v -15.102 c 0,-0.823 0.686,-1.493 1.528,-1.493 a 0.463,0.463 0 0 0 0.468,-0.458 0.463,0.463 0 0 0 -0.468,-0.457 2.5,2.5 0 0 0 -1.528,0.522 v -3.967 c 0,-0.823 0.686,-1.493 1.528,-1.493 m 6.983,7.863 a 0.463,0.463 0 0 0 -0.468,0.457 c 0,1.63 -1.355,2.956 -3.022,2.956 a 3.03,3.03 0 0 1 -2.16,-0.886 0.48,0.48 0 0 0 -0.664,-0.007 0.45,0.45 0 0 0 -0.007,0.646 3.97,3.97 0 0 0 2.394,1.14 c 0.215,1.39 1.447,2.46 2.929,2.46 0.258,0 0.468,-0.204 0.468,-0.457 0,-0.253 -0.21,-0.457 -0.468,-0.457 -0.97,0 -1.78,-0.67 -1.98,-1.558 1.94,-0.249 3.445,-1.873 3.445,-3.837 a 0.463,0.463 0 0 0 -0.468,-0.457 m -16.959,0.489 a 0.46,0.46 0 0 0 -0.468,0.455 c 0,1.964 1.504,3.592 3.445,3.839 a 2.02,2.02 0 0 1 -1.98,1.556 c -0.258,0 -0.468,0.204 -0.468,0.457 0,0.253 0.21,0.458 0.468,0.458 1.482,0 2.715,-1.07 2.929,-2.462 a 3.96,3.96 0 0 0 2.394,-1.137 0.45,0.45 0 0 0 -0.007,-0.648 0.474,0.474 0 0 0 -0.66,0.007 3.04,3.04 0 0 1 -2.161,0.888 c -1.668,0 -3.025,-1.328 -3.025,-2.958 a 0.46,0.46 0 0 0 -0.468,-0.455 m 9.977,6.826 c -0.26,0 -0.469,0.205 -0.469,0.457 0,0.252 0.21,0.458 0.469,0.458 1.667,0 3.024,1.328 3.024,2.958 q 0,0.156 -0.019,0.311 c -1.45,0.575 -2.476,1.968 -2.476,3.59 0,0.253 0.209,0.457 0.468,0.457 a 0.463,0.463 0 0 0 0.468,-0.457 c 0,-1.63 1.357,-2.958 3.025,-2.958 0.258,0 0.468,-0.205 0.468,-0.458 0,-0.253 -0.21,-0.457 -0.468,-0.457 -0.18,0 -0.36,0.013 -0.532,0.036 l 0.002,-0.064 c 0,-2.135 -1.777,-3.873 -3.96,-3.873 m -5.486,0.975 c -2.183,0 -3.96,1.738 -3.96,3.873 l 0.002,0.064 a 4,4 0 0 0 -0.532,-0.036 c -0.259,0 -0.468,0.205 -0.468,0.457 0,0.252 0.21,0.458 0.468,0.458 1.668,0 3.025,1.328 3.025,2.958 0,0.253 0.21,0.457 0.468,0.457 0.258,0 0.468,-0.204 0.468,-0.457 0,-1.622 -1.025,-3.016 -2.477,-3.59 a 3,3 0 0 1 -0.019,-0.311 c 0,-1.63 1.358,-2.958 3.025,-2.958 0.259,0 0.468,-0.205 0.468,-0.458 0,-0.253 -0.21,-0.457 -0.468,-0.457"
     color="#212121"
     opacity=".75"
     style="opacity:1;isolation:auto;mix-blend-mode:normal;fill:#212121"
     id="path34" />
</svg>
