<svg width="512" height="512" version="1.1" id="svg9" sodipodi:docname="application-x-blender.svg" viewBox="0 0 64 64" inkscape:version="1.4.4 (dcaf3e7d9e, 2026-05-05)" xmlns:inkscape="http://www.inkscape.org/namespaces/inkscape" xmlns:sodipodi="http://sodipodi.sourceforge.net/DTD/sodipodi-0.dtd" xmlns="http://www.w3.org/2000/svg" xmlns:svg="http://www.w3.org/2000/svg">
  <sodipodi:namedview id="namedview9" pagecolor="#ffffff" bordercolor="#999999" borderopacity="1" inkscape:showpageshadow="2" inkscape:pageopacity="0" inkscape:pagecheckerboard="0" inkscape:deskcolor="#d1d1d1" inkscape:zoom="2.2617188" inkscape:cx="102.79793" inkscape:cy="59.246977" inkscape:window-width="2560" inkscape:window-height="1371" inkscape:window-x="0" inkscape:window-y="0" inkscape:window-maximized="1" inkscape:current-layer="svg9"/>
  <defs id="defs5">
    <linearGradient id="f" x1="45" x2="60.076" y1="19" y2="3.924" gradientTransform="translate(0.013,-0.001)" gradientUnits="userSpaceOnUse">
      <stop stop-color="#fff" offset="0" id="stop1"/>
      <stop stop-color="#b3b3b3" offset="1" id="stop2"/>
    </linearGradient>
    <linearGradient id="d" x1="7.9369998" x2="7.9369998" y1="15.081" y2="1.852" gradientTransform="matrix(3.7796,0,0,3.7796,-0.001,0.03)" gradientUnits="userSpaceOnUse">
      <stop stop-color="#f1efeb" offset="0" id="stop3"/>
      <stop stop-color="#fdfcfc" offset="1" id="stop4"/>
    </linearGradient>
    <filter id="e" x="-0.14694465" y="-0.1470388" width="1.2938893" height="1.2940776" color-interpolation-filters="sRGB">
      <feGaussianBlur stdDeviation="1.53" id="feGaussianBlur4"/>
    </filter>
    <filter id="c" x="-0.069126024" y="-0.069126024" width="1.138252" height="1.138252" color-interpolation-filters="sRGB">
      <feGaussianBlur stdDeviation="1.613" id="feGaussianBlur5"/>
    </filter>
  </defs>
  <path d="M 17.001,3.999 A 12.973,12.973 0 0 0 3.999,17.001 V 46.999 A 12.973,12.973 0 0 0 17.001,60.001 H 46.999 A 12.973,12.973 0 0 0 60.001,46.999 V 28.972 a 11.223,11.223 0 0 0 -0.398,-0.934 9.03,9.03 0 0 0 -0.444,-0.81 7.73,7.73 0 0 0 -0.482,-0.7 6.894,6.894 0 0 0 -0.522,-0.597 6.475,6.475 0 0 0 -1.142,-0.926 7.086,7.086 0 0 0 0.588,0.422 6.894,6.894 0 0 1 1.076,1.102 c 0.167,0.215 0.328,0.447 0.482,0.699 0.155,0.25 0.303,0.52 0.444,0.81 0.14,0.29 0.273,0.6 0.398,0.934 V 28.833 C 59.752,21.784 43.371,5.184 35.8,4.034 A 10.5,10.5 0 0 0 35.013,4 4.557,4.557 0 0 1 36.966,5.045 c 0.186,0.164 0.363,0.342 0.531,0.533 A 5.89,5.89 0 0 0 36.966,5.045 4.557,4.557 0 0 0 35.013,4 Z m 22.728,6.025 c 0.178,0.565 0.338,1.14 0.487,1.71 0.297,1.14 0.547,2.265 0.797,3.265 -0.25,-1 -0.5,-2.125 -0.797,-3.266 a 35.341,35.341 0 0 0 -0.487,-1.709 z m 13.247,13.58 z" filter="url(#c)" opacity="0.25" stroke-width="3.7796" id="path5"/>
  <path d="M 17.001,3.999 A 12.973,12.973 0 0 0 3.999,17.001 V 46.999 A 12.973,12.973 0 0 0 17.001,60.001 H 46.999 A 12.973,12.973 0 0 0 60.001,46.999 V 28.972 c -2.004,-5.33 -5.996,-4.975 -9.988,-5.973 -5.82,-1.455 -8.03,-4.12 -9,-8 -1,-4 -2,-10 -6,-11 z" fill="url(#d)" stroke-width="3.7796" id="path6" style="fill:url(#d)"/>
  <path d="M 32,14.81 16.164,22.805 V 40.99 L 32,49.19 47.836,40.99 V 22.805 Z m 0,2.366 12.457,6.289 -12.455,6.407 -12.438,-6.419 z m -13.725,7.989 12.67,6.538 v 14.562 l -12.67,-6.56 z m 27.45,0.022 v 14.518 l -12.67,6.56 v -14.56 z" fill="#212121" stroke-width="1.0558" style="font-variant-ligatures:normal;font-variant-position:normal;font-variant-caps:normal;font-variant-numeric:normal;font-variant-alternates:normal;font-feature-settings:normal;text-indent:0;text-decoration-line:none;text-decoration-style:solid;text-decoration-color:#000000;text-transform:none;text-orientation:mixed;white-space:normal;shape-padding:0;isolation:auto;mix-blend-mode:normal" id="path7"/>
  <path d="m 33.3,4.654 c 4,1 5,7 6,11 0.97,3.88 3.18,6.545 9,8 3.993,0.998 7.985,0.643 9.989,5.973 V 29.488 C 58.04,22.439 41.659,5.839 34.088,4.689 A 10.5,10.5 0 0 0 33.301,4.654 Z" filter="url(#e)" opacity="0.25" id="path8"/>
  <path d="m 35.013,3.999 c 4,1 5,7 6,11 0.97,3.88 3.18,6.545 9,8 3.992,0.998 7.984,0.643 9.988,5.973 V 28.833 C 59.752,21.784 43.371,5.184 35.8,4.034 A 10.5,10.5 0 0 0 35.013,4 Z" fill="url(#f)" id="path9" style="fill:url(#f)"/>
</svg>