<?xml version="1.0" encoding="UTF-8" standalone="no"?>
<svg
   width="64"
   height="64"
   version="1.1"
   id="svg6"
   sodipodi:docname="application-x-kexiproject-shortcut.svg"
   inkscape:version="1.4.3 (0d15f75042, 2025-12-25)"
   xmlns:inkscape="http://www.inkscape.org/namespaces/inkscape"
   xmlns:sodipodi="http://sodipodi.sourceforge.net/DTD/sodipodi-0.dtd"
   xmlns:xlink="http://www.w3.org/1999/xlink"
   xmlns="http://www.w3.org/2000/svg"
   xmlns:svg="http://www.w3.org/2000/svg">
  <sodipodi:namedview
     id="namedview6"
     pagecolor="#ffffff"
     bordercolor="#111111"
     borderopacity="1"
     inkscape:showpageshadow="0"
     inkscape:pageopacity="0"
     inkscape:pagecheckerboard="1"
     inkscape:deskcolor="#d1d1d1"
     inkscape:zoom="17.6875"
     inkscape:cx="32"
     inkscape:cy="32"
     inkscape:window-width="2560"
     inkscape:window-height="1371"
     inkscape:window-x="0"
     inkscape:window-y="0"
     inkscape:window-maximized="1"
     inkscape:current-layer="svg6" />
  <defs
     id="defs4">
    <linearGradient
       id="b"
       x1="40"
       x2="46"
       y1="17"
       y2="11"
       gradientTransform="translate(-.02 -1)"
       gradientUnits="userSpaceOnUse">
      <stop
         offset="0"
         stop-color="#fefefe"
         id="stop1" />
      <stop
         offset="1"
         stop-color="#e9e9e9"
         id="stop2" />
    </linearGradient>
    <linearGradient
       id="a"
       x1="21.039"
       x2="21.039"
       y1="2"
       y2="62"
       gradientTransform="translate(0 -1)"
       gradientUnits="userSpaceOnUse">
      <stop
         offset="0"
         stop-color="#73e94f"
         style="stop-color:#a270d1;stop-opacity:1"
         id="stop3" />
      <stop
         offset="1"
         stop-color="#19c262"
         style="stop-color:#783aaf;stop-opacity:1"
         id="stop4" />
    </linearGradient>
    <filter
       inkscape:collect="always"
       style="color-interpolation-filters:sRGB"
       id="filter94"
       x="-0.069119996"
       y="-0.069119996"
       width="1.13824"
       height="1.13824">
      <feGaussianBlur
         inkscape:collect="always"
         stdDeviation="1.6128562"
         id="feGaussianBlur94" />
    </filter>
    <linearGradient
       inkscape:collect="always"
       xlink:href="#linearGradient862-3"
       id="linearGradient5"
       gradientUnits="userSpaceOnUse"
       gradientTransform="matrix(3.7796,0,0,3.7796,-9.765e-4,0.0302735)"
       x1="7.9373002"
       y1="15.081"
       x2="7.9373002"
       y2="1.852" />
    <linearGradient
       id="linearGradient862-3"
       x1="7.9373002"
       x2="7.9373002"
       y1="15.081"
       y2="1.852"
       gradientTransform="scale(3.7796)"
       gradientUnits="userSpaceOnUse"
       xlink:href="#linearGradient92">
      <stop
         stop-color="#f1efeb"
         offset="0"
         id="stop1-3" />
      <stop
         stop-color="#fdfcfc"
         offset="1"
         id="stop2-6" />
    </linearGradient>
    <linearGradient
       id="linearGradient92"
       x1="7.9373002"
       x2="7.9373002"
       y1="15.081"
       y2="1.852"
       gradientTransform="scale(3.7796)"
       gradientUnits="userSpaceOnUse"
       spreadMethod="pad">
      <stop
         stop-color="#f1efeb"
         offset="0"
         id="stop91"
         style="stop-color:#695e49;stop-opacity:1;" />
      <stop
         stop-color="#fdfcfc"
         offset="1"
         id="stop92" />
    </linearGradient>
    <filter
       inkscape:collect="always"
       style="color-interpolation-filters:sRGB"
       id="filter95"
       x="-0.14695404"
       y="-0.14704597"
       width="1.2939081"
       height="1.2940919">
      <feGaussianBlur
         inkscape:collect="always"
         stdDeviation="1.5300537"
         id="feGaussianBlur95" />
    </filter>
    <linearGradient
       id="d"
       x1="45"
       x2="60.076"
       y1="19"
       y2="3.924"
       gradientTransform="translate(0.01285182,-0.00112622)"
       gradientUnits="userSpaceOnUse">
      <stop
         offset="0"
         stop-color="#fff"
         id="stop5" />
      <stop
         offset="1"
         stop-color="#b3b3b3"
         id="stop6" />
    </linearGradient>
  </defs>
  <g
     id="svg2"
     transform="translate(-0.12816816,-0.12816816)">
    <g
       id="g1">
      <path
         id="path3-9-5"
         style="opacity:0.25;fill:#212121;fill-opacity:1;stroke-width:3.7796;filter:url(#filter94)"
         d="m 17.000976,3.999023 c -7.203094,0 -13.001953,5.798859 -13.001953,13.001953 v 29.998047 c 0,7.203095 5.798859,13.001953 13.001953,13.001953 h 29.998047 c 7.203095,0 13.001953,-5.798858 13.001953,-13.001953 V 28.971679 c -0.125226,-0.33309 -0.258163,-0.643195 -0.398438,-0.933593 -0.140274,-0.290399 -0.289006,-0.559404 -0.443359,-0.810547 -0.154353,-0.251144 -0.314961,-0.483894 -0.482422,-0.699219 -0.16746,-0.215325 -0.341887,-0.414714 -0.521484,-0.597656 -0.179598,-0.182943 -0.363924,-0.34991 -0.554688,-0.503907 -0.190764,-0.153996 -0.38693,-0.293388 -0.58789,-0.421875 -0.200961,-0.128487 -0.407002,-0.245149 -0.617188,-0.351562 0.210186,0.106413 0.416227,0.223075 0.617188,0.351562 0.20096,0.128487 0.397126,0.267879 0.58789,0.421875 0.190764,0.153997 0.37509,0.320964 0.554688,0.503907 0.179597,0.182942 0.354024,0.382331 0.521484,0.597656 0.167461,0.215325 0.328069,0.448075 0.482422,0.699219 0.154353,0.251143 0.303085,0.520148 0.443359,0.810547 0.140275,0.290398 0.273212,0.600503 0.398438,0.933593 V 28.833007 C 59.752064,21.784286 43.371199,5.1842268 35.799804,4.0341792 c -0.264999,-0.02 -0.52811,-0.035156 -0.787109,-0.035156 0.249999,0.0625 0.487549,0.1462404 0.714843,0.2460938 0.227295,0.099853 0.444337,0.2158204 0.650391,0.3496093 0.206054,0.133789 0.401612,0.2849123 0.587891,0.4492188 0.186279,0.1643065 0.363281,0.341797 0.53125,0.5332031 0.167968,0.1914061 0.327392,0.3962404 0.478515,0.6113281 0.151123,0.2150878 0.293946,0.4404299 0.429688,0.6757813 C 38.269531,6.6289059 38.126708,6.4035639 37.975585,6.1884761 37.824462,5.9733883 37.665038,5.7685541 37.49707,5.577148 37.329101,5.3857419 37.152099,5.2082514 36.96582,5.0439449 36.779541,4.8796383 36.583983,4.7285151 36.377929,4.5947261 36.171875,4.4609372 35.954833,4.3449702 35.727538,4.2451168 35.500244,4.1452633 35.262694,4.0615229 35.012695,3.999023 Z m 22.728515,6.025391 c 0.177735,0.564452 0.337891,1.138672 0.486329,1.708984 0.296875,1.140624 0.546875,2.265627 0.796875,3.265625 -0.25,-0.999998 -0.500001,-2.125001 -0.796875,-3.265625 -0.148438,-0.570312 -0.308594,-1.144532 -0.486329,-1.708984 z m 13.246094,13.580078 c 0.483513,0.09518 0.959749,0.196737 1.423828,0.318359 -0.464079,-0.121622 -0.940315,-0.223178 -1.423828,-0.318359 z"
         inkscape:label="Shadow" />
      <path
         d="m 17.000976,3.9990235 c -7.2031005,0 -13.0019525,5.798852 -13.0019525,13.0019525 v 29.998047 c 0,7.203102 5.798852,13.001953 13.0019525,13.001953 h 29.998047 c 7.203102,0 13.001953,-5.798851 13.001953,-13.001953 V 28.971679 c -2.003622,-5.329445 -5.995573,-4.974479 -9.988281,-5.972656 -5.819994,-1.454999 -8.030001,-4.120004 -9,-7.999999 -0.999999,-3.999997 -2.000003,-10.0000015 -6,-11.0000005 z"
         style="fill:url(#linearGradient5);stroke-width:3.7796"
         id="path3-9"
         inkscape:label="Sheet" />
      <rect
         style="display:none;opacity:0.25;fill:none;fill-opacity:1;stroke:#ff00ee;stroke-width:0.1;stroke-linecap:square;stroke-linejoin:round;stroke-dasharray:none;stroke-opacity:1"
         id="rect1"
         width="31.62265"
         height="31.622654"
         x="16.188675"
         y="16.188673" />
      <path
         d="m 33.300709,4.6539948 c 3.999996,0.999999 5.000001,7.0000042 6,11.0000002 0.969999,3.879996 3.180006,6.545001 9,8 3.992708,0.998177 7.984659,0.64321 9.988281,5.972656 V 29.487979 C 58.040078,22.439251 41.659221,5.8391998 34.087818,4.6891508 c -0.264999,-0.02 -0.528109,-0.03516 -0.787109,-0.03516 z"
         style="display:inline;opacity:0.25;fill:#212121;fill-opacity:1;filter:url(#filter95)"
         id="path5-6"
         inkscape:label="Cornershadow" />
      <path
         d="m 35.012695,3.9990237 c 3.999996,0.999999 5.000001,7.0000043 6,11.0000003 0.969999,3.879996 3.180006,6.545001 9,8 3.992708,0.998177 7.984659,0.64321 9.988281,5.972656 V 28.833008 C 59.752064,21.78428 43.371207,5.1842286 35.799804,4.0341799 c -0.264999,-0.02 -0.528109,-0.035156 -0.787109,-0.035156 z"
         style="display:inline;fill:url(#d)"
         id="path5"
         inkscape:label="Corner" />
    </g>
  </g>
  <path
     fill="#fff"
     d="m 32,21 a 11,3 0 0 0 -2.125,0.059 l -0.061,0.002 c -0.059,0.003 -0.113,0.008 -0.172,0.012 a 11,3 0 0 0 -1.924,0.164 11,3 0 0 0 -0.002,0 11,3 0 0 0 -1.782,0.263 l -0.111,0.018 a 11,3 0 0 0 -1.518,0.344 l -0.113,0.027 a 11,3 0 0 0 -1.215,0.4 c -0.057,0.022 -0.119,0.044 -0.174,0.066 a 11,3 0 0 0 -0.222,0.102 c -0.11,0.05 -0.22,0.1 -0.32,0.152 a 11,3 0 0 0 -0.194,0.11 c -0.093,0.053 -0.186,0.106 -0.268,0.161 a 11,3 0 0 0 -0.139,0.104 q -0.12,0.09 -0.22,0.182 a 11,3 0 0 0 -0.096,0.101 1.5,1.5 0 0 0 -0.154,0.188 11,3 0 0 0 -0.069,0.121 1,1 0 0 0 -0.074,0.166 A 11,3 0 0 0 21,24 v 10 a 11,3 0 0 0 1,1.242 11,3 0 0 0 0.012,0.006 11,3 0 0 0 0.476,0.252 11,3 0 0 0 0.032,0.014 11,3 0 0 0 0.55,0.232 11,3 0 0 0 0.065,0.024 11,3 0 0 0 0.59,0.2 11,3 0 0 0 0.132,0.042 11,3 0 0 0 0.65,0.18 11,3 0 0 0 0.1,0.025 11,3 0 0 0 0.774,0.176 11,3 0 0 0 0.053,0.01 11,3 0 0 0 0.814,0.15 11,3 0 0 0 0.139,0.023 11,3 0 0 0 0.779,0.115 11,3 0 0 0 0.22,0.03 11,3 0 0 0 0.737,0.082 11,3 0 0 0 0.367,0.037 11,3 0 0 0 0.54,0.045 11,3 0 0 0 0.591,0.04 11,3 0 0 0 0.49,0.026 11,3 0 0 0 0.576,0.024 11,3 0 0 0 0.463,0.013 A 11,3 0 0 0 32,37 a 11,3 0 0 0 0.959,-0.014 11,3 0 0 0 0.414,-0.013 11,3 0 0 0 0.717,-0.03 11,3 0 0 0 0.346,-0.021 11,3 0 0 0 0.707,-0.049 11,3 0 0 0 0.318,-0.03 11,3 0 0 0 0.768,-0.075 11,3 0 0 0 0.18,-0.022 11,3 0 0 0 0.808,-0.107 11,3 0 0 0 0.213,-0.035 11,3 0 0 0 0.677,-0.112 11,3 0 0 0 0.313,-0.06 11,3 0 0 0 0.596,-0.125 11,3 0 0 0 0.195,-0.047 11,3 0 0 0 0.662,-0.168 11,3 0 0 0 0.014,-0.004 11,3 0 0 0 0.023,-0.008 11,3 0 0 0 0.701,-0.219 11,3 0 0 0 0.637,-0.244 11,3 0 0 0 0.002,0 11,3 0 0 0 0.006,-0.002 11,3 0 0 0 0.535,-0.254 11,3 0 0 0 0.006,-0.004 A 11,3 0 0 0 42,35.242 11,3 0 0 0 43,34 V 30 H 40.615 C 38.883,30.596 35.693,31 32,31 26.477,31 22,30.1 22,29 v -3.758 l 0.004,0.002 a 11,3 0 0 0 0.744,0.371 l 0.031,0.014 a 11,3 0 0 0 0.93,0.34 11,3 0 0 0 1.058,0.287 l 0.088,0.02 a 11,3 0 0 0 2.512,0.441 l 0.11,0.014 a 11,3 0 0 0 1.316,0.137 l 0.115,0.01 a 11,3 0 0 0 1.398,0.086 q 0.162,0.006 0.326,0.01 A 11,3 0 0 0 32,27 11,3 0 0 0 35,26.883 v -0.977 a 10,2 0 0 1 -1,0.053 v -0.01 a 43,43 0 0 1 -4.016,0.01 43,43 0 0 1 -1.714,-0.105 10,2 0 0 1 -0.29,-0.023 34,34 0 0 1 -1.5,-0.164 L 26.385,25.655 A 24,24 0 0 1 25.031,25.43 10,2 0 0 1 24.892,25.404 c -0.393,-0.08 -0.746,-0.166 -1.068,-0.258 a 10,2 0 0 1 -0.172,-0.049 7,7 0 0 1 -0.764,-0.28 10,2 0 0 1 -0.177,-0.079 c -0.03,-0.015 -0.054,-0.03 -0.082,-0.045 a 10,2 0 0 1 -0.233,-0.14 L 22.312,24.487 A 10,2 0 0 1 22.179,24.369 Q 22.141,24.326 22.111,24.281 A 10,2 0 0 1 22.043,24.168 C 22.02,24.11 22,24.06 22,24 a 10,2 0 0 1 0.2,-0.396 10,2 0 0 1 0.622,-0.397 6,6 0 0 1 0.816,-0.301 10,2 0 0 1 0.104,-0.033 10,2 0 0 1 0.004,-0.002 q 0.515,-0.15 1.154,-0.277 l 0.045,-0.01 a 24,24 0 0 1 1.375,-0.23 10,2 0 0 1 0.142,-0.019 c 0.456,-0.06 0.946,-0.113 1.451,-0.158 a 10,2 0 0 1 0.35,-0.03 44,44 0 0 1 1.594,-0.099 10,2 0 0 1 0.22,-0.01 43,43 0 0 1 3.923,0.013 v -0.01 a 10,2 0 0 1 1,0.053 v -0.98 A 11,3 0 0 0 32,21 m 0,16 h -1 v 3 h 1 v 1 h -8 v -1 h -3 v 3 h 3 v -1 h 16 v 1 h 3 v -3 h -3 v 1 h -7 v -1 h 1 v -3 z m 7,-16 v 3 h 1 V 22.781 A 2.96,2.96 0 0 1 41,25 c 0,1.662 -1.338,3 -3,3 h -2 v 1 h 2 c 2.216,0 4,-1.784 4,-4 A 3.95,3.95 0 0 0 40.627,22 H 42 v -1 z m -17,9.24 c 1.784,1.07 5.692,1.759 10,1.76 4.31,-0.001 8.22,-0.69 10,-1.76 V 34 A 10,2 0 0 1 32,36 10,2 0 0 1 22,34 V 32 Z M 32,38 h 1 v 1 h -1 z m -10,3 h 1 v 1 h -1 z m 19,0 h 1 v 1 h -1 z"
     opacity="0.75"
     id="path6"
     style="fill:#212121;opacity:1" />
</svg>
