<?xml version="1.0" encoding="UTF-8" standalone="no"?>
<svg
   width="64"
   height="64"
   viewBox="0 0 16.933 16.933"
   version="1.1"
   id="svg7"
   sodipodi:docname="text-org.svg"
   inkscape:version="1.4.3 (0d15f75042, 2025-12-25)"
   xml:space="preserve"
   xmlns:inkscape="http://www.inkscape.org/namespaces/inkscape"
   xmlns:sodipodi="http://sodipodi.sourceforge.net/DTD/sodipodi-0.dtd"
   xmlns:xlink="http://www.w3.org/1999/xlink"
   xmlns="http://www.w3.org/2000/svg"
   xmlns:svg="http://www.w3.org/2000/svg"><sodipodi:namedview
     id="namedview7"
     pagecolor="#505050"
     bordercolor="#ffffff"
     borderopacity="1"
     inkscape:showpageshadow="0"
     inkscape:pageopacity="0"
     inkscape:pagecheckerboard="1"
     inkscape:deskcolor="#505050"
     inkscape:zoom="4.0492912"
     inkscape:cx="34.203517"
     inkscape:cy="24.942637"
     inkscape:window-width="2560"
     inkscape:window-height="1371"
     inkscape:window-x="0"
     inkscape:window-y="0"
     inkscape:window-maximized="1"
     inkscape:current-layer="svg7" /><defs
     id="defs4"><rect
       x="11.60697"
       y="51.367015"
       width="40.747872"
       height="7.1617472"
       id="rect3" /><linearGradient
       id="a"
       x1="45.801"
       x2="9.802"
       y1="10"
       y2="61"
       gradientTransform="translate(.052 -.265)scale(.26458)"
       gradientUnits="userSpaceOnUse"><stop
         offset="0"
         stop-color="#ededed"
         id="stop1" /><stop
         offset="1"
         stop-color="#fcfcfc"
         id="stop2" /></linearGradient><linearGradient
       id="b"
       x1="40"
       x2="46"
       y1="17"
       y2="11"
       gradientTransform="translate(-.006 -.265)scale(.26458)"
       gradientUnits="userSpaceOnUse"><stop
         offset="0"
         stop-color="#fefefe"
         id="stop3" /><stop
         offset="1"
         stop-color="#e9e9e9"
         id="stop4" /></linearGradient><linearGradient
       id="linearGradient10"><stop
         id="stop9"
         offset="0"
         style="stop-color:#392a7f;stop-opacity:1;" /><stop
         id="stop10"
         offset="1"
         style="stop-color:#442471;stop-opacity:1;" /></linearGradient><linearGradient
       id="linearGradient5"><stop
         offset="0"
         style="stop-color:#282828;stop-opacity:1"
         id="stop3-3" /><stop
         offset="0.39253417"
         style="stop-color:#8669ff;stop-opacity:1;"
         id="stop4-6" /><stop
         offset="1"
         style="stop-color:#d9d9d9;stop-opacity:1"
         id="stop5" /></linearGradient><inkscape:path-effect
       effect="perspective-envelope"
       up_left_point="134.55262,6.8312532"
       up_right_point="141.31739,5.5760178"
       down_left_point="132.2002,18.438328"
       down_right_point="144.38048,18.974706"
       id="path-effect1"
       is_visible="true"
       lpeversion="1"
       deform_type="perspective"
       horizontal_mirror="false"
       vertical_mirror="false"
       overflow_perspective="false" /><linearGradient
       id="linearGradient66"
       inkscape:collect="always"><stop
         style="stop-color:#7762a4;stop-opacity:1;"
         offset="0"
         id="stop66" /><stop
         style="stop-color:#4b3bcb;stop-opacity:1;"
         offset="1"
         id="stop67" /></linearGradient><clipPath
       clipPathUnits="userSpaceOnUse"
       id="clipPath57"><path
         id="path57"
         style="stroke-width:0.1;stroke-linecap:square;paint-order:markers fill stroke;stop-color:#212121"
         d="m -880.82767,-187.29769 h 1640.84 v 73.28155 h -1640.84 z" /></clipPath><clipPath
       clipPathUnits="userSpaceOnUse"
       id="clipPath55"><path
         id="path55"
         style="stroke-width:0.1;stroke-linecap:square;paint-order:markers fill stroke;stop-color:#212121"
         d="m -880.82767,-187.29769 h 1640.84 v 73.28155 h -1640.84 z" /></clipPath><clipPath
       clipPathUnits="userSpaceOnUse"
       id="clipPath52"><path
         id="path52"
         style="stroke-width:0.1;stroke-linecap:square;paint-order:markers fill stroke;stop-color:#212121"
         d="m -880.82767,-187.29769 h 1640.84 v 73.28155 h -1640.84 z" /></clipPath><linearGradient
       id="linearGradient27"
       inkscape:collect="always"><stop
         style="stop-color:#8381c5;stop-opacity:1;"
         offset="0"
         id="stop27" /><stop
         style="stop-color:#7e55b3;stop-opacity:0.99607843;"
         offset="0.5"
         id="stop29" /></linearGradient><rect
       x="1773.5857"
       y="293.72913"
       width="58.297382"
       height="85.203865"
       id="rect21" /><rect
       x="1222.0028"
       y="594.18488"
       width="2.2422071"
       height="13.453242"
       id="rect20" /><linearGradient
       id="swatch14"
       inkscape:swatch="solid"><stop
         style="stop-color:#683fbc;stop-opacity:1;"
         offset="0"
         id="stop14" /></linearGradient><rect
       x="272.34009"
       y="544.68018"
       width="543.03058"
       height="70.225677"
       id="rect2" /><linearGradient
       id="linearGradient1"><stop
         style="stop-color:#8381c5;stop-opacity:1;"
         offset="0"
         id="stop2-7" /><stop
         style="stop-color:#943fc1;stop-opacity:0.99215686;"
         offset="1"
         id="stop1-5" /></linearGradient><rect
       x="515.21393"
       y="591.28583"
       width="82.189529"
       height="20.746872"
       id="rect1" /><linearGradient
       id="swatch7"><stop
         style="stop-color:#212121;stop-opacity:1;"
         offset="0"
         id="stop7" /></linearGradient><linearGradient
       id="linearGradient4292"><stop
         id="stop4294"
         offset="0"
         style="stop-color:#411f5d;stop-opacity:1" /><stop
         id="stop4296"
         offset="1"
         style="stop-color:#5b2a85;stop-opacity:1" /></linearGradient><linearGradient
       id="linearGradient4284"><stop
         offset="0"
         style="stop-color:#8381c5;stop-opacity:1"
         id="stop4286" /><stop
         id="stop4290"
         style="stop-color:#7e55b3;stop-opacity:0.99607843"
         offset="0.56639391" /><stop
         offset="1"
         style="stop-color:#a52ecb;stop-opacity:0.99215686"
         id="stop4288" /></linearGradient><linearGradient
       y2="300.73987"
       x2="236.61363"
       y1="-161.8512"
       x1="-122.20192"
       spreadMethod="pad"
       gradientTransform="matrix(0.08192422,0,0,0.07764193,783.95412,22.537094)"
       gradientUnits="userSpaceOnUse"
       id="linearGradient4245"
       xlink:href="#linearGradient4284" /><linearGradient
       y2="66.018341"
       x2="173.94518"
       y1="396.6066"
       x1="447.80933"
       gradientTransform="matrix(0.09251715,0,0,0.09251715,761.17539,-0.69005595)"
       gradientUnits="userSpaceOnUse"
       id="linearGradient4247"
       xlink:href="#linearGradient4292" /><linearGradient
       xlink:href="#linearGradient1"
       id="linearGradient2"
       x1="65.512505"
       y1="119.42089"
       x2="129.27672"
       y2="119.42089"
       gradientUnits="userSpaceOnUse" /><rect
       x="272.34009"
       y="544.68018"
       width="51.533951"
       height="22.193455"
       id="rect2-7" /><rect
       x="272.34009"
       y="544.68018"
       width="190.33711"
       height="80.498306"
       id="rect2-8" /><rect
       x="515.21393"
       y="591.28583"
       width="82.189529"
       height="20.746872"
       id="rect1-2" /><linearGradient
       y2="300.73987"
       x2="236.61363"
       y1="-161.8512"
       x1="-122.20192"
       spreadMethod="pad"
       gradientTransform="matrix(0.08192422,0,0,0.07764193,223.12164,515.26127)"
       gradientUnits="userSpaceOnUse"
       id="linearGradient4245-2"
       xlink:href="#linearGradient4284" /><linearGradient
       y2="66.018341"
       x2="173.94518"
       y1="396.6066"
       x1="447.80933"
       gradientTransform="matrix(0.09251715,0,0,0.09251715,200.34291,492.03412)"
       gradientUnits="userSpaceOnUse"
       id="linearGradient4247-2"
       xlink:href="#linearGradient4292" /><rect
       x="272.34009"
       y="544.68018"
       width="51.533951"
       height="22.193455"
       id="rect2-7-8" /><rect
       x="272.34009"
       y="544.68018"
       width="561.35876"
       height="80.000717"
       id="rect2-4" /><linearGradient
       inkscape:collect="always"
       xlink:href="#linearGradient27"
       id="linearGradient28"
       x1="484.3562"
       y1="578.19971"
       x2="605.6347"
       y2="578.19971"
       gradientUnits="userSpaceOnUse" /><rect
       x="272.34009"
       y="544.68018"
       width="561.35876"
       height="80.000717"
       id="rect2-4-1" /><rect
       x="272.34009"
       y="544.68018"
       width="561.35876"
       height="80.000717"
       id="rect2-4-3" /><rect
       x="272.34009"
       y="544.68018"
       width="561.35876"
       height="80.000717"
       id="rect2-4-3-1" /><linearGradient
       inkscape:collect="always"
       xlink:href="#linearGradient66"
       id="linearGradient67"
       x1="554.15948"
       y1="521.67975"
       x2="554.15948"
       y2="634.71967"
       gradientUnits="userSpaceOnUse" /><linearGradient
       id="linearGradient4898"><stop
         id="stop4278"
         style="stop-color:#bab8db;stop-opacity:1"
         offset="0" /><stop
         id="stop4280"
         style="stop-color:#5955a9;stop-opacity:0.99159664"
         offset="1" /></linearGradient><linearGradient
       id="linearGradient3294"><stop
         offset="0"
         style="stop-color:#6376e6;stop-opacity:1"
         id="stop3296" /><stop
         offset="0.50094414"
         style="stop-color:#222989;stop-opacity:1"
         id="stop3302" /><stop
         offset="1"
         style="stop-color:#00003d;stop-opacity:1"
         id="stop3298" /></linearGradient><linearGradient
       id="linearGradient3284"><stop
         offset="0"
         style="stop-color:#212121;stop-opacity:1"
         id="stop3286" /><stop
         offset="0.84845906"
         style="stop-color:#212121;stop-opacity:0.49803922"
         id="stop3292" /><stop
         offset="1"
         style="stop-color:#212121;stop-opacity:0"
         id="stop3288" /></linearGradient><linearGradient
       id="linearGradient3274"><stop
         offset="0"
         style="stop-color:#212121;stop-opacity:1"
         id="stop3276" /><stop
         offset="1"
         style="stop-color:#212121;stop-opacity:0"
         id="stop3278" /></linearGradient><linearGradient
       id="linearGradient3242"><stop
         offset="0"
         style="stop-color:#282828;stop-opacity:1"
         id="stop3244" /><stop
         offset="0.39253417"
         style="stop-color:#808080;stop-opacity:1"
         id="stop3252" /><stop
         offset="1"
         style="stop-color:#d9d9d9;stop-opacity:1"
         id="stop3246" /></linearGradient><linearGradient
       id="linearGradient3202"><stop
         offset="0"
         style="stop-color:#2b2b2b;stop-opacity:1"
         id="stop3204" /><stop
         offset="0.5"
         style="stop-color:#828383;stop-opacity:1"
         id="stop3250" /><stop
         offset="1"
         style="stop-color:#dadbdb;stop-opacity:1"
         id="stop3206" /></linearGradient><linearGradient
       id="linearGradient4966"><stop
         offset="0"
         style="stop-color:#b6b3d8;stop-opacity:1"
         id="stop4968" /><stop
         offset="1"
         style="stop-color:#b6b3d8;stop-opacity:0"
         id="stop4970" /></linearGradient><linearGradient
       id="linearGradient4876"><stop
         offset="0"
         style="stop-color:#d3d2e8;stop-opacity:1"
         id="stop4878" /><stop
         offset="1"
         style="stop-color:#5955a9;stop-opacity:0.99159664"
         id="stop4880" /></linearGradient><radialGradient
       gradientTransform="matrix(0.6817439,0,0,0.5905355,-3.8523706,-28.935273)"
       gradientUnits="userSpaceOnUse"
       xlink:href="#linearGradient4898"
       id="radialGradient4892"
       fy="-108.96888"
       fx="20.951529"
       r="266.76535"
       cy="-108.96888"
       cx="20.951529" /><radialGradient
       gradientTransform="matrix(1,0,0,0.1854103,0,383.88493)"
       gradientUnits="userSpaceOnUse"
       xlink:href="#linearGradient3274"
       id="radialGradient4944"
       fy="471.26172"
       fx="233.8876"
       r="170.49393"
       cy="471.26172"
       cx="233.8876" /><radialGradient
       gradientTransform="matrix(1,0,0,0.9121621,0,32.654948)"
       gradientUnits="userSpaceOnUse"
       xlink:href="#linearGradient4966"
       id="radialGradient4972"
       fy="371.76376"
       fx="299.70135"
       r="76.696358"
       cy="371.76376"
       cx="299.70135" /><radialGradient
       gradientTransform="matrix(0.414705,0.3300575,-0.5059004,0.6356454,346.95314,49.479585)"
       gradientUnits="userSpaceOnUse"
       xlink:href="#linearGradient3202"
       id="radialGradient3210"
       fy="390.45248"
       fx="289.44067"
       r="17.67668"
       cy="390.45248"
       cx="289.44067" /><radialGradient
       gradientTransform="matrix(0.414705,0.3300575,-0.5059004,0.6356454,448.41009,-65.398074)"
       gradientUnits="userSpaceOnUse"
       xlink:href="#linearGradient3202"
       id="radialGradient3238"
       fy="382.14804"
       fx="283.50717"
       r="17.67668"
       cy="382.14804"
       cx="283.50717" /><radialGradient
       gradientTransform="matrix(-0.06556501,-0.05972176,1.6871024,-1.8521705,171.90774,540.51473)"
       gradientUnits="userSpaceOnUse"
       xlink:href="#linearGradient3242"
       id="radialGradient3248"
       fy="181.18982"
       fx="418.45551"
       r="63.068935"
       cy="181.18982"
       cx="418.45551" /><radialGradient
       gradientTransform="matrix(0.4055116,-0.03344012,0.1034174,4.3988695,177.23251,-1191.6649)"
       gradientUnits="userSpaceOnUse"
       xlink:href="#linearGradient3274"
       id="radialGradient3268"
       fy="357.33591"
       fx="354.51709"
       r="33.712105"
       cy="357.33591"
       cx="354.51709" /><radialGradient
       gradientTransform="matrix(-0.1339874,-0.1146812,0.3079048,-0.3597394,444.23592,395.03849)"
       gradientUnits="userSpaceOnUse"
       xlink:href="#linearGradient3274"
       id="radialGradient3280"
       fy="223.55537"
       fx="510.58469"
       r="132.28336"
       cy="223.55537"
       cx="510.58469" /><radialGradient
       gradientTransform="matrix(-1.2497569,1.3798305,-0.09628946,-0.07297448,674.3826,-70.590682)"
       gradientUnits="userSpaceOnUse"
       xlink:href="#linearGradient3284"
       id="radialGradient3290"
       fy="-158.17821"
       fx="284.4671"
       r="110.2972"
       cy="-158.17821"
       cx="284.4671" /><radialGradient
       gradientTransform="matrix(-0.1008165,-0.08087232,1.0745309,-1.3395252,13.843287,784.79288)"
       gradientUnits="userSpaceOnUse"
       xlink:href="#linearGradient3294"
       id="radialGradient3300"
       fy="356.62274"
       fx="425.51019"
       r="143.34167"
       cy="356.62274"
       cx="425.51019" /><linearGradient
       y2="300.73987"
       x2="236.61363"
       y1="-161.8512"
       x1="-122.20192"
       spreadMethod="pad"
       gradientTransform="matrix(0.87385837,0,0,0.82818057,246.00762,250.28138)"
       gradientUnits="userSpaceOnUse"
       id="linearGradient4245-5"
       xlink:href="#linearGradient4284" /><linearGradient
       y2="66.018341"
       x2="173.94518"
       y1="396.6066"
       x1="447.80933"
       gradientTransform="matrix(0.98684959,0,0,0.98684959,3.0344187,2.5250397)"
       gradientUnits="userSpaceOnUse"
       id="linearGradient4247-6"
       xlink:href="#linearGradient4292" /><rect
       x="272.34009"
       y="544.68018"
       width="561.35876"
       height="80.000717"
       id="rect2-4-3-1-4" /><filter
       y="-0.19308645"
       height="1.3861729"
       inkscape:menu-tooltip="Darkens the edge with an inner blur and adds a flexible glow"
       inkscape:menu="Shadows and Glows"
       inkscape:label="Dark and Glow"
       style="color-interpolation-filters:sRGB"
       id="filter14"
       x="-0.23932461"
       width="1.4786493"><feGaussianBlur
         stdDeviation="1"
         result="result6"
         id="feGaussianBlur13" /><feComposite
         result="result8"
         in="SourceGraphic"
         operator="atop"
         in2="result6"
         id="feComposite13" /><feColorMatrix
         values="1 0 0 0 0 0 1 0 0 0 0 0 1 0 0 0 0 0 1 0 "
         result="result10"
         id="feColorMatrix14" /><feBlend
         in="result10"
         mode="normal"
         in2="result6"
         id="feBlend14" /></filter><radialGradient
       cx="20.951529"
       cy="-108.96888"
       r="266.76535"
       fx="20.951529"
       fy="-108.96888"
       id="radialGradient4892-6"
       xlink:href="#linearGradient4898"
       gradientUnits="userSpaceOnUse"
       gradientTransform="matrix(0.6817439,0,0,0.5905355,-3.8523706,-28.935273)" /><radialGradient
       cx="233.8876"
       cy="471.26172"
       r="170.49393"
       fx="233.8876"
       fy="471.26172"
       id="radialGradient4944-1"
       xlink:href="#linearGradient3274"
       gradientUnits="userSpaceOnUse"
       gradientTransform="matrix(1,0,0,0.1854103,0,383.88493)" /><radialGradient
       cx="299.70135"
       cy="371.76376"
       r="76.696358"
       fx="299.70135"
       fy="371.76376"
       id="radialGradient4972-8"
       xlink:href="#linearGradient4966"
       gradientUnits="userSpaceOnUse"
       gradientTransform="matrix(1,0,0,0.9121621,0,32.654948)" /><radialGradient
       cx="289.44067"
       cy="390.45248"
       r="17.67668"
       fx="289.44067"
       fy="390.45248"
       id="radialGradient3210-7"
       xlink:href="#linearGradient3202"
       gradientUnits="userSpaceOnUse"
       gradientTransform="matrix(0.414705,0.3300575,-0.5059004,0.6356454,346.95314,49.479585)" /><radialGradient
       cx="283.50717"
       cy="382.14804"
       r="17.67668"
       fx="283.50717"
       fy="382.14804"
       id="radialGradient3238-9"
       xlink:href="#linearGradient3202"
       gradientUnits="userSpaceOnUse"
       gradientTransform="matrix(0.414705,0.3300575,-0.5059004,0.6356454,448.41009,-65.398074)" /><radialGradient
       cx="418.45551"
       cy="181.18982"
       r="63.068935"
       fx="418.45551"
       fy="181.18982"
       id="radialGradient3248-2"
       xlink:href="#linearGradient5"
       gradientUnits="userSpaceOnUse"
       gradientTransform="matrix(-0.06556501,-0.05972176,1.6871024,-1.8521705,171.90774,540.51473)" /><radialGradient
       cx="354.51709"
       cy="357.33591"
       r="33.712105"
       fx="354.51709"
       fy="357.33591"
       id="radialGradient3268-0"
       xlink:href="#linearGradient3274"
       gradientUnits="userSpaceOnUse"
       gradientTransform="matrix(0.4055116,-0.03344012,0.1034174,4.3988695,177.23251,-1191.6649)" /><radialGradient
       cx="510.58469"
       cy="223.55537"
       r="132.28336"
       fx="510.58469"
       fy="223.55537"
       id="radialGradient3280-2"
       xlink:href="#linearGradient3274"
       gradientUnits="userSpaceOnUse"
       gradientTransform="matrix(-0.1339874,-0.1146812,0.3079048,-0.3597394,444.23592,395.03849)" /><radialGradient
       cx="284.4671"
       cy="-158.17821"
       r="110.2972"
       fx="284.4671"
       fy="-158.17821"
       id="radialGradient3290-3"
       xlink:href="#linearGradient3284"
       gradientUnits="userSpaceOnUse"
       gradientTransform="matrix(-1.2497569,1.3798305,-0.09628946,-0.07297448,674.3826,-70.590682)" /><radialGradient
       cx="425.51019"
       cy="356.62274"
       r="143.34167"
       fx="425.51019"
       fy="356.62274"
       id="radialGradient3300-7"
       xlink:href="#linearGradient3294"
       gradientUnits="userSpaceOnUse"
       gradientTransform="matrix(-0.1008165,-0.08087232,1.0745309,-1.3395252,13.843287,784.79288)" /><filter
       inkscape:collect="always"
       style="color-interpolation-filters:sRGB"
       id="filter94"
       x="-0.069119996"
       y="-0.069119996"
       width="1.13824"
       height="1.13824"><feGaussianBlur
         inkscape:collect="always"
         stdDeviation="1.6128562"
         id="feGaussianBlur94" /></filter><linearGradient
       inkscape:collect="always"
       xlink:href="#linearGradient862-3"
       id="linearGradient5-3"
       gradientUnits="userSpaceOnUse"
       gradientTransform="translate(-0.03416849,-0.02590079)"
       x1="7.9373002"
       y1="15.081"
       x2="7.9373002"
       y2="1.852" /><linearGradient
       id="linearGradient862-3"
       x1="7.9373002"
       x2="7.9373002"
       y1="15.081"
       y2="1.852"
       gradientTransform="scale(3.7796)"
       gradientUnits="userSpaceOnUse"
       xlink:href="#linearGradient92"><stop
         stop-color="#f1efeb"
         offset="0"
         id="stop1-6" /><stop
         stop-color="#fdfcfc"
         offset="1"
         id="stop2-75" /></linearGradient><linearGradient
       id="linearGradient92"
       x1="7.9373002"
       x2="7.9373002"
       y1="15.081"
       y2="1.852"
       gradientTransform="scale(3.7796)"
       gradientUnits="userSpaceOnUse"
       spreadMethod="pad"><stop
         stop-color="#f1efeb"
         offset="0"
         id="stop91"
         style="stop-color:#695e49;stop-opacity:1;" /><stop
         stop-color="#fdfcfc"
         offset="1"
         id="stop92" /></linearGradient><filter
       inkscape:collect="always"
       style="color-interpolation-filters:sRGB"
       id="filter95"
       x="-0.14695404"
       y="-0.14704597"
       width="1.2939081"
       height="1.2940919"><feGaussianBlur
         inkscape:collect="always"
         stdDeviation="1.5300537"
         id="feGaussianBlur95" /></filter><linearGradient
       id="d"
       x1="45"
       x2="60.076"
       y1="19"
       y2="3.924"
       gradientTransform="matrix(0.26457812,0,0,0.26457812,-0.03051049,-0.03420849)"
       gradientUnits="userSpaceOnUse"><stop
         offset="0"
         stop-color="#fff"
         id="stop5-3" /><stop
         offset="1"
         stop-color="#b3b3b3"
         id="stop6" /></linearGradient></defs><path
     id="path3-9-5"
     style="opacity:0.25;fill:#212121;fill-opacity:1;stroke-width:3.7796;filter:url(#filter94)"
     d="m 17.000976,3.999023 c -7.203094,0 -13.001953,5.798859 -13.001953,13.001953 v 29.998047 c 0,7.203095 5.798859,13.001953 13.001953,13.001953 h 29.998047 c 7.203095,0 13.001953,-5.798858 13.001953,-13.001953 V 28.971679 c -0.125226,-0.33309 -0.258163,-0.643195 -0.398438,-0.933593 -0.140274,-0.290399 -0.289006,-0.559404 -0.443359,-0.810547 -0.154353,-0.251144 -0.314961,-0.483894 -0.482422,-0.699219 -0.16746,-0.215325 -0.341887,-0.414714 -0.521484,-0.597656 -0.179598,-0.182943 -0.363924,-0.34991 -0.554688,-0.503907 -0.190764,-0.153996 -0.38693,-0.293388 -0.58789,-0.421875 -0.200961,-0.128487 -0.407002,-0.245149 -0.617188,-0.351562 0.210186,0.106413 0.416227,0.223075 0.617188,0.351562 0.20096,0.128487 0.397126,0.267879 0.58789,0.421875 0.190764,0.153997 0.37509,0.320964 0.554688,0.503907 0.179597,0.182942 0.354024,0.382331 0.521484,0.597656 0.167461,0.215325 0.328069,0.448075 0.482422,0.699219 0.154353,0.251143 0.303085,0.520148 0.443359,0.810547 0.140275,0.290398 0.273212,0.600503 0.398438,0.933593 V 28.833007 C 59.752064,21.784286 43.371199,5.1842268 35.799804,4.0341792 c -0.264999,-0.02 -0.52811,-0.035156 -0.787109,-0.035156 0.249999,0.0625 0.487549,0.1462404 0.714843,0.2460938 0.227295,0.099853 0.444337,0.2158204 0.650391,0.3496093 0.206054,0.133789 0.401612,0.2849123 0.587891,0.4492188 0.186279,0.1643065 0.363281,0.341797 0.53125,0.5332031 0.167968,0.1914061 0.327392,0.3962404 0.478515,0.6113281 0.151123,0.2150878 0.293946,0.4404299 0.429688,0.6757813 C 38.269531,6.6289059 38.126708,6.4035639 37.975585,6.1884761 37.824462,5.9733883 37.665038,5.7685541 37.49707,5.577148 37.329101,5.3857419 37.152099,5.2082514 36.96582,5.0439449 36.779541,4.8796383 36.583983,4.7285151 36.377929,4.5947261 36.171875,4.4609372 35.954833,4.3449702 35.727538,4.2451168 35.500244,4.1452633 35.262694,4.0615229 35.012695,3.999023 Z m 22.728515,6.025391 c 0.177735,0.564452 0.337891,1.138672 0.486329,1.708984 0.296875,1.140624 0.546875,2.265627 0.796875,3.265625 -0.25,-0.999998 -0.500001,-2.125001 -0.796875,-3.265625 -0.148438,-0.570312 -0.308594,-1.144532 -0.486329,-1.708984 z m 13.246094,13.580078 c 0.483513,0.09518 0.959749,0.196737 1.423828,0.318359 -0.464079,-0.121622 -0.940315,-0.223178 -1.423828,-0.318359 z"
     inkscape:label="Shadow"
     transform="matrix(0.26457812,0,0,0.26457812,-0.03391049,-0.03391049)" /><path
     d="m 4.4641758,1.0241436 c -1.9057833,0 -3.4400323,1.5342494 -3.4400323,3.4400322 v 7.9368272 c 0,1.905783 1.534249,3.440032 3.4400323,3.440032 h 7.9368272 c 1.905783,0 3.440032,-1.534249 3.440032,-3.440032 V 7.6313619 C 15.310921,6.2213073 14.254738,6.3152236 13.198355,6.0511278 11.658512,5.6661669 11.073792,4.9610649 10.817152,3.9345031 10.552574,2.8761914 10.287995,1.2887215 9.2296825,1.0241436 Z"
     style="fill:url(#linearGradient5-3);stroke-width:0.999999"
     id="path3-9"
     inkscape:label="Sheet" /><path
     d="m 33.300709,4.6539948 c 3.999996,0.999999 5.000001,7.0000042 6,11.0000002 0.969999,3.879996 3.180006,6.545001 9,8 3.992708,0.998177 7.984659,0.64321 9.988281,5.972656 V 29.487979 C 58.040078,22.439251 41.659221,5.8391998 34.087818,4.6891508 c -0.264999,-0.02 -0.528109,-0.03516 -0.787109,-0.03516 z"
     style="display:inline;opacity:0.25;fill:#212121;fill-opacity:1;filter:url(#filter95)"
     id="path5-6"
     inkscape:label="Cornershadow"
     transform="matrix(0.26457812,0,0,0.26457812,-0.03391049,-0.03391049)" /><path
     d="m 9.2296825,1.0241437 c 1.0583115,0.2645778 1.3228915,1.852048 1.5874695,2.9103594 0.25664,1.026562 0.84136,1.731664 2.381203,2.1166249 1.056383,0.2640958 2.112566,0.1701793 2.64268,1.5802341 v -0.03669 C 15.775179,5.7297333 11.441162,1.337723 9.4379343,1.0334452 c -0.070113,-0.00529 -0.139726,-0.0093 -0.2082518,-0.0093 z"
     style="display:inline;fill:url(#d);stroke-width:0.264578"
     id="path5"
     inkscape:label="Corner" /><path
     d="M 11.864773,7.1318643 C 11.85461,6.975709 11.723885,6.9154267 11.567679,7.0265208 11.209808,6.9622242 10.858532,6.9924644 10.685273,6.9778897 10.305443,6.9246971 9.9892132,6.7236769 9.9892132,6.7236769 10.035416,6.6622565 10.013306,6.529499 9.7166595,6.5203777 9.635062,6.4935082 9.5512828,6.4545939 9.4721143,6.4222711 9.499082,6.3655105 9.465521,6.2816822 9.465521,6.2816822 9.5862337,6.2483676 9.6047237,6.0912214 9.5571335,5.9986681 9.711108,6.0028353 9.6866193,5.7647815 9.6653513,5.6823395 9.786064,5.6365837 9.8027195,5.492425 9.7527503,5.3785047 9.8983962,5.345241 9.9025606,5.1745601 9.8901185,5.0538983 c 0.1498105,-0.00832 0.1290385,-0.270521 0.1290385,-0.3246554 0.12909,-0.083234 0.09994,-0.195616 0.120216,-0.3258455 0.07956,-0.1611132 -0.0286,-0.2068689 -0.104898,-0.035198 C 9.9526297,4.5169687 9.8476335,4.5819116 9.8485752,4.6918148 9.8860023,4.7542288 9.5697246,4.8457903 9.6696157,5.0414063 9.5988249,5.1288034 9.4324074,5.2411856 9.4915479,5.375184 9.4615058,5.4409178 9.2492325,5.5949423 9.3407959,5.7405891 9.1410647,5.873792 9.1529622,5.9059167 9.1951481,6.0277675 9.1382884,6.0642538 9.080237,6.1200717 9.046676,6.1811466 8.9812895,6.1034171 8.9176374,5.9615865 8.9185783,5.7699857 c 0,-0.1623532 -0.3023476,0.015764 -0.3023476,0.3363067 0,0.027561 -0.00282,0.052597 -0.0067,0.076441 -0.1046009,0.012047 -0.235523,0.035049 -0.4005533,0.074062 -0.00526,0.00362 -0.00778,0.00922 -0.00902,0.015667 -0.0065,-0.024043 -0.011452,-0.049623 -0.013731,-0.076989 C 8.1573796,6.0075913 7.9416366,5.7215529 7.8363912,6.0748123 7.7820587,6.2042481 7.750134,6.292538 7.7315441,6.3617925 c -0.01859,0.069255 -0.016657,0.011204 -0.047442,0.03024 -0.1298321,0.080408 -0.1765806,0.3314469 -0.64817,0.4899331 -0.1591807,0.05349 -0.3668442,0.09642 -0.6424214,0.1187282 -0.4744166,0.03832 -1.382502,0.8583116 -1.4433278,1.6407283 -0.014028,0.1965077 0.015369,0.6809883 0.178266,1.1059812 8.05e-5,3.704e-4 1.852e-4,6.482e-4 2.778e-4,9.908e-4 6.482e-4,0.00208 0.00158,0.00402 0.00238,0.00605 0.00257,0.00664 0.00511,0.013235 0.00773,0.01973 0.01388,0.035594 0.028703,0.06965 0.044368,0.102221 0.093447,0.1996799 0.2210983,0.3762599 0.3933155,0.4898839 0.087447,0.06821 0.1656739,0.111936 0.2167339,0.136921 0.2928299,0.483291 0.9142323,1.103107 2.0857982,0.736611 1.7972818,-0.509813 2.7891457,0.684557 2.9034117,0.768385 0.1685,0.170187 -0.435552,-1.479019 -1.714593,-2.2202908 C 8.3117301,9.3753541 8.786394,8.6647701 8.8405793,8.4138279 c 0,0 0.6061333,0.4242002 1.0453527,-0.2240699 0.396785,0.102221 0.662647,-0.072476 1.00391,0.05106 0.207366,0.090869 1.079211,0.035991 0.7552,-0.451316 0.203746,-0.1330038 0.225262,-0.089975 0.327185,-0.2924808 0.05473,-0.2454888 -0.06955,-0.298036 -0.107426,-0.3651588 z"
     id="path1"
     style="fill:#212121;fill-opacity:1;stroke-width:0.0151587" /><path
     d="m 6.7486174,12.804488 q -0.2557929,0 -0.4069433,0.190682 -0.1499877,0.190682 -0.1499877,0.519725 0,0.32788 0.1499877,0.518562 0.1511504,0.190682 0.4069433,0.190682 0.255793,0 0.404618,-0.190682 0.1499877,-0.190682 0.1499877,-0.518562 0,-0.329043 -0.1499877,-0.519725 -0.148825,-0.190682 -0.404618,-0.190682 z m 0,-0.190682 q 0.3650864,0 0.5836731,0.245329 0.2185867,0.244166 0.2185867,0.65576 0,0.410432 -0.2185867,0.65576 -0.2185867,0.244166 -0.5836731,0.244166 -0.366249,0 -0.5859984,-0.244166 -0.2185868,-0.244166 -0.2185868,-0.65576 0,-0.411594 0.2185868,-0.65576 0.2197494,-0.245329 0.5859984,-0.245329 z m 1.9928599,0.95341 q 0.075575,0.02558 0.1464996,0.109294 0.072087,0.08371 0.1441742,0.230214 l 0.2383526,0.474379 H 9.0181988 L 8.796124,13.935791 Q 8.710084,13.761387 8.6286959,13.704415 8.5484699,13.647445 8.4089464,13.647445 H 8.1531535 v 0.733661 H 7.918289 v -1.735904 h 0.5301891 q 0.29765,0 0.4441496,0.124408 0.1464996,0.124409 0.1464996,0.375551 0,0.16394 -0.076738,0.272071 -0.075575,0.10813 -0.2209121,0.149987 z m -0.5883238,-0.72901 v 0.616229 h 0.2953246 q 0.1697535,0 0.255793,-0.0779 0.087202,-0.07906 0.087202,-0.231376 0,-0.152313 -0.087202,-0.229051 -0.08604,-0.0779 -0.255793,-0.0779 z m 2.6032745,1.295243 v -0.466241 h -0.383689 v -0.193007 h 0.616228 v 0.745288 q -0.136035,0.0965 -0.299975,0.146499 -0.16394,0.04883 -0.349971,0.04883 -0.4069436,0 -0.6371573,-0.237189 -0.229051,-0.238353 -0.229051,-0.662737 0,-0.425546 0.229051,-0.662736 0.2302137,-0.238353 0.6371573,-0.238353 0.169753,0 0.322066,0.04186 0.153476,0.04186 0.282535,0.123246 v 0.24998 q -0.130222,-0.110457 -0.276721,-0.166266 -0.1465,-0.05581 -0.308114,-0.05581 -0.318579,0 -0.4790309,0.177892 -0.1592893,0.177892 -0.1592893,0.530189 0,0.351134 0.1592893,0.529027 0.1604519,0.177892 0.4790309,0.177892 0.124408,0 0.222074,-0.02093 0.09767,-0.02209 0.175567,-0.06744 z"
     id="text1"
     style="font-size:2.3812px;line-height:0;-inkscape-font-specification:sans-serif;fill:#212121;stroke-width:1.00011;stroke-linecap:round;stroke-linejoin:round;paint-order:markers stroke fill"
     aria-label="ORG" /></svg>
