<svg id="svg2" width="512" height="512" version="1.1" sodipodi:docname="text-x-ruby.svg" viewBox="0 0 64 64" inkscape:version="1.4.4 (dcaf3e7d9e, 2026-05-05)" xmlns:inkscape="http://www.inkscape.org/namespaces/inkscape" xmlns:sodipodi="http://sodipodi.sourceforge.net/DTD/sodipodi-0.dtd" xmlns="http://www.w3.org/2000/svg" xmlns:svg="http://www.w3.org/2000/svg">
  <sodipodi:namedview id="namedview1" pagecolor="#ffffff" bordercolor="#999999" borderopacity="1" inkscape:showpageshadow="2" inkscape:pageopacity="0" inkscape:pagecheckerboard="0" inkscape:deskcolor="#d1d1d1" inkscape:zoom="2.2617188" inkscape:cx="1.7685665" inkscape:cy="63.226252" inkscape:window-width="2560" inkscape:window-height="1371" inkscape:window-x="0" inkscape:window-y="0" inkscape:window-maximized="1" inkscape:current-layer="svg2"/>
  <defs id="defs2">
    <linearGradient id="d" x1="45" x2="60.076" y1="19" y2="3.924" gradientTransform="translate(0.012852,-0.0011262)" gradientUnits="userSpaceOnUse">
      <stop id="stop5" stop-color="#fff" offset="0"/>
      <stop id="stop6" stop-color="#b3b3b3" offset="1"/>
    </linearGradient>
    <linearGradient id="linearGradient5" x1="7.9373002" x2="7.9373002" y1="15.081" y2="1.852" gradientTransform="matrix(3.7796,0,0,3.7796,-9.765e-4,0.030274)" gradientUnits="userSpaceOnUse">
      <stop id="stop1" stop-color="#f1efeb" offset="0"/>
      <stop id="stop2" stop-color="#fdfcfc" offset="1"/>
    </linearGradient>
    <filter id="filter95" x="-0.14695393" y="-0.14704497" width="1.2939079" height="1.2940899" color-interpolation-filters="sRGB">
      <feGaussianBlur id="feGaussianBlur95" stdDeviation="1.5300537"/>
    </filter>
    <filter id="filter94" x="-0.069119938" y="-0.069119938" width="1.1382399" height="1.1382399" color-interpolation-filters="sRGB">
      <feGaussianBlur id="feGaussianBlur94" stdDeviation="1.6128562"/>
    </filter>
    <style id="current-color-scheme" type="text/css">.ColorScheme-Text { color:#363636; }</style>
    <style id="current-color-scheme-4" type="text/css">.ColorScheme-Text { color:#363636; } .ColorScheme-Text { color:#363636; }</style>
    <style id="current-color-scheme-1" type="text/css">.ColorScheme-Text { color:#363636; } .ColorScheme-Text { color:#363636; }</style>
    <filter id="filter1" x="-0.14699693" y="-0.14700196" width="1.2939939" height="1.2940039" color-interpolation-filters="sRGB">
      <feGaussianBlur id="feGaussianBlur1" stdDeviation="2.0099025"/>
    </filter>
  </defs>
  <path id="path3-9-5" d="M 17.001,3.999 C 9.7979,3.999 3.999,9.7979 3.999,17.001 v 29.998 c 0,7.2031 5.7989,13.002 13.002,13.002 h 29.998 c 7.2031,0 13.002,-5.7989 13.002,-13.002 V 28.972 c -0.12523,-0.33309 -0.25816,-0.6432 -0.39844,-0.93359 -0.14027,-0.2904 -0.28901,-0.5594 -0.44336,-0.81055 -0.15435,-0.25114 -0.31496,-0.48389 -0.48242,-0.69922 -0.16746,-0.21532 -0.34189,-0.41471 -0.52148,-0.59766 -0.1796,-0.18294 -0.36392,-0.34991 -0.55469,-0.50391 -0.19076,-0.154 -0.38693,-0.29339 -0.58789,-0.42188 -0.20096,-0.12849 -0.407,-0.24515 -0.61719,-0.35156 0.21019,0.10641 0.41623,0.22308 0.61719,0.35156 0.20096,0.12849 0.39713,0.26788 0.58789,0.42188 0.19076,0.154 0.37509,0.32096 0.55469,0.50391 0.1796,0.18294 0.35402,0.38233 0.52148,0.59766 0.16746,0.21532 0.32807,0.44808 0.48242,0.69922 0.15435,0.25114 0.30308,0.52015 0.44336,0.81055 0.14028,0.2904 0.27321,0.6005 0.39844,0.93359 v -0.13867 c -0.24891,-7.0487 -16.63,-23.649 -24.201,-24.799 -0.265,-0.02 -0.52811,-0.035156 -0.78711,-0.035156 0.25,0.0625 0.48755,0.14624 0.71484,0.24609 0.2273,0.099853 0.44434,0.21582 0.65039,0.34961 0.20605,0.13379 0.40161,0.28491 0.58789,0.44922 0.18628,0.16431 0.36328,0.3418 0.53125,0.5332 0.16797,0.19141 0.32739,0.39624 0.47852,0.61133 0.15112,0.21509 0.29395,0.44043 0.42969,0.67578 -0.13574,-0.23535 -0.27856,-0.46069 -0.42969,-0.67578 -0.15113,-0.21509 -0.31055,-0.41992 -0.47852,-0.61133 -0.16797,-0.19141 -0.34497,-0.3689 -0.53125,-0.5332 -0.18628,-0.16431 -0.38184,-0.31543 -0.58789,-0.44922 -0.20605,-0.13379 -0.4231,-0.24976 -0.65039,-0.34961 -0.22729,-0.099854 -0.46484,-0.18359 -0.71484,-0.24609 z m 22.729,6.0254 c 0.17774,0.56445 0.33789,1.1387 0.48633,1.709 0.29688,1.1406 0.54688,2.2656 0.79688,3.2656 -0.25,-1 -0.5,-2.125 -0.79688,-3.2656 -0.14844,-0.57031 -0.30859,-1.1445 -0.48633,-1.709 z m 13.246,13.58 c 0.48351,0.09518 0.95975,0.19674 1.4238,0.31836 -0.46408,-0.12162 -0.94032,-0.22318 -1.4238,-0.31836 z" filter="url(#filter94)" opacity="0.25" stroke-width="3.7796"/>
  <path id="path3-9" d="M 17.001,3.999 C 9.7979,3.999 3.999,9.7979 3.999,17.001 v 29.998 c 0,7.2031 5.7989,13.002 13.002,13.002 h 29.998 c 7.2031,0 13.002,-5.7989 13.002,-13.002 V 28.972 c -2.0036,-5.3294 -5.9956,-4.9745 -9.9883,-5.9727 -5.82,-1.455 -8.03,-4.12 -9,-8 -1,-4 -2,-10 -6,-11 z" fill="url(#linearGradient5)" stroke-width="3.7796" style="fill:url(#linearGradient5)"/>
  <rect id="rect1" x="16.188999" y="16.188999" width="31.622999" height="31.622999" display="none" fill="none" opacity="0.25" stroke="#ff00ee" stroke-linecap="square" stroke-linejoin="round" stroke-width="0.1"/>
  <path id="path6" d="m 42.301,15.593 -8.7588,1.1198 c 1.277,0.63716 3.0299,0.47855 3.5659,2.3504 z m 2.2437,0.1504 -5.0357,2.9151 8.6385,-0.08204 z m -13.029,3.0573 c -1.0391,0.06016 -2.2861,0.41429 -3.6766,1.1075 -4.4464,2.215 -8.6317,6.9759 -9.3523,10.629 -0.72056,3.6507 2.297,4.8129 6.7448,2.5978 4.4464,-2.215 8.6317,-6.965 9.3523,-10.617 0.49496,-2.5103 -0.77935,-3.8476 -3.0682,-3.719 z m 4.1484,6.8638 10.446,-0.1504 -8.6084,-5.2039 c -0.01367,1.6544 -0.90241,4.497 -1.8376,5.3529 z m 12.632,-0.05059 0.11075,-5.3461 -8.9995,-0.56742 z m -0.48539,1.3058 -10.432,0.16134 7.5761,5.1219 z m -12.694,0.55922 c -5.5758,7.4517 -18.792,14.972 -18.91,3.7382 l -0.61528,13.194 c 0.14083,0.7985 1.1622,3.1721 4.5708,3.8147 8.6413,0.3008 14.552,0.41566 26.443,-1.2046 1.0036,-5.5594 0.94343,-11.299 1.2046,-16.982 -3.8366,5.9614 -8.067,10.539 -13.591,13.345 3.8694,-3.2131 7.032,-6.7271 9.9771,-10.286 l -9.0788,-5.6196 z" display="none" filter="url(#filter1)" opacity="0.25" stroke-width="1.3673"/>
  <path id="path6-5" d="m 42.301,15.593 -8.7588,1.1198 c 1.277,0.63716 3.0299,0.47855 3.5659,2.3504 z m 2.2437,0.1504 -5.0357,2.9151 8.6385,-0.08204 z m -13.029,3.0573 c -1.0391,0.06016 -2.2861,0.41429 -3.6766,1.1075 -4.4464,2.215 -8.6317,6.9759 -9.3523,10.629 -0.72056,3.6507 2.297,4.8129 6.7448,2.5978 4.4464,-2.215 8.6317,-6.965 9.3523,-10.617 0.49496,-2.5103 -0.77935,-3.8476 -3.0682,-3.719 z m 4.1484,6.8638 10.446,-0.1504 -8.6084,-5.2039 c -0.01367,1.6544 -0.90241,4.497 -1.8376,5.3529 z m 12.632,-0.05059 0.11075,-5.3461 -8.9995,-0.56742 z m -0.48539,1.3058 -10.432,0.16134 7.5761,5.1219 z m -12.694,0.55922 c -5.5758,7.4517 -18.792,14.972 -18.91,3.7382 l -0.61528,13.194 c 0.14083,0.7985 1.1622,3.1721 4.5708,3.8147 8.6413,0.3008 14.552,0.41565 26.443,-1.2046 1.0036,-5.5594 0.94343,-11.299 1.2046,-16.982 -3.8366,5.9614 -8.067,10.539 -13.591,13.345 3.8694,-3.2131 7.032,-6.7271 9.9771,-10.286 l -9.0788,-5.6196 z" fill="#828282" stroke-width="1.3673"/>
  <path id="path5-6" d="m 33.301,4.654 c 4,1 5,7 6,11 0.97,3.88 3.18,6.545 9,8 3.9927,0.99818 7.9847,0.64321 9.9883,5.9727 v -0.13867 c -0.24891,-7.0487 -16.63,-23.649 -24.201,-24.799 -0.265,-0.02 -0.52811,-0.03516 -0.78711,-0.03516 z" filter="url(#filter95)" opacity="0.25"/>
  <path id="path5" d="m 35.013,3.999 c 4,1 5,7 6,11 0.97,3.88 3.18,6.545 9,8 3.9927,0.99818 7.9847,0.64321 9.9883,5.9727 v -0.13867 c -0.24891,-7.0487 -16.63,-23.649 -24.201,-24.799 -0.265,-0.02 -0.52811,-0.035156 -0.78711,-0.035156 z" fill="url(#d)" style="fill:url(#d)"/>
</svg>