<?xml version="1.0" encoding="UTF-8" standalone="no"?>
<svg
   width="64"
   height="64"
   viewBox="0 0 16.933 16.933"
   version="1.1"
   id="svg7"
   sodipodi:docname="text-x-sass.svg"
   inkscape:version="1.4.3 (0d15f75042, 2025-12-25)"
   xmlns:inkscape="http://www.inkscape.org/namespaces/inkscape"
   xmlns:sodipodi="http://sodipodi.sourceforge.net/DTD/sodipodi-0.dtd"
   xmlns:xlink="http://www.w3.org/1999/xlink"
   xmlns="http://www.w3.org/2000/svg"
   xmlns:svg="http://www.w3.org/2000/svg">
  <sodipodi:namedview
     id="namedview7"
     pagecolor="#ffffff"
     bordercolor="#111111"
     borderopacity="1"
     inkscape:showpageshadow="0"
     inkscape:pageopacity="0"
     inkscape:pagecheckerboard="1"
     inkscape:deskcolor="#d1d1d1"
     inkscape:zoom="17.6875"
     inkscape:cx="32"
     inkscape:cy="32"
     inkscape:window-width="2560"
     inkscape:window-height="1371"
     inkscape:window-x="0"
     inkscape:window-y="0"
     inkscape:window-maximized="1"
     inkscape:current-layer="svg7" />
  <defs
     id="defs4">
    <linearGradient
       id="a"
       x1="45.801"
       x2="9.802"
       y1="10"
       y2="61"
       gradientTransform="translate(.052 -.265)scale(.26458)"
       gradientUnits="userSpaceOnUse">
      <stop
         offset="0"
         stop-color="#ededed"
         id="stop1" />
      <stop
         offset="1"
         stop-color="#fcfcfc"
         id="stop2" />
    </linearGradient>
    <linearGradient
       id="b"
       x1="40"
       x2="46"
       y1="17"
       y2="11"
       gradientTransform="translate(-.006 -.265)scale(.26458)"
       gradientUnits="userSpaceOnUse">
      <stop
         offset="0"
         stop-color="#fefefe"
         id="stop3" />
      <stop
         offset="1"
         stop-color="#e9e9e9"
         id="stop4" />
    </linearGradient>
    <filter
       inkscape:collect="always"
       style="color-interpolation-filters:sRGB"
       id="filter94"
       x="-0.069119996"
       y="-0.069119996"
       width="1.13824"
       height="1.13824">
      <feGaussianBlur
         inkscape:collect="always"
         stdDeviation="1.6128562"
         id="feGaussianBlur94" />
    </filter>
    <linearGradient
       inkscape:collect="always"
       xlink:href="#linearGradient862-3"
       id="linearGradient5"
       gradientUnits="userSpaceOnUse"
       gradientTransform="matrix(3.7796,0,0,3.7796,-9.765e-4,0.0302735)"
       x1="7.9373002"
       y1="15.081"
       x2="7.9373002"
       y2="1.852" />
    <linearGradient
       id="linearGradient862-3"
       x1="7.9373002"
       x2="7.9373002"
       y1="15.081"
       y2="1.852"
       gradientTransform="scale(3.7796)"
       gradientUnits="userSpaceOnUse"
       xlink:href="#linearGradient92">
      <stop
         stop-color="#f1efeb"
         offset="0"
         id="stop1-3" />
      <stop
         stop-color="#fdfcfc"
         offset="1"
         id="stop2-9" />
    </linearGradient>
    <linearGradient
       id="linearGradient92"
       x1="7.9373002"
       x2="7.9373002"
       y1="15.081"
       y2="1.852"
       gradientTransform="scale(3.7796)"
       gradientUnits="userSpaceOnUse"
       spreadMethod="pad">
      <stop
         stop-color="#f1efeb"
         offset="0"
         id="stop91"
         style="stop-color:#695e49;stop-opacity:1;" />
      <stop
         stop-color="#fdfcfc"
         offset="1"
         id="stop92" />
    </linearGradient>
    <filter
       inkscape:collect="always"
       style="color-interpolation-filters:sRGB"
       id="filter95"
       x="-0.14695404"
       y="-0.14704597"
       width="1.2939081"
       height="1.2940919">
      <feGaussianBlur
         inkscape:collect="always"
         stdDeviation="1.5300537"
         id="feGaussianBlur95" />
    </filter>
    <linearGradient
       id="d"
       x1="45"
       x2="60.076"
       y1="19"
       y2="3.924"
       gradientTransform="translate(0.01285182,-0.00112622)"
       gradientUnits="userSpaceOnUse">
      <stop
         offset="0"
         stop-color="#fff"
         id="stop5" />
      <stop
         offset="1"
         stop-color="#b3b3b3"
         id="stop6" />
    </linearGradient>
  </defs>
  <g
     id="g1"
     transform="matrix(0.26457812,0,0,0.26457812,-0.03391049,-0.03391049)">
    <path
       id="path3-9-5"
       style="opacity:0.25;fill:#212121;fill-opacity:1;stroke-width:3.7796;filter:url(#filter94)"
       d="m 17.000976,3.999023 c -7.203094,0 -13.001953,5.798859 -13.001953,13.001953 v 29.998047 c 0,7.203095 5.798859,13.001953 13.001953,13.001953 h 29.998047 c 7.203095,0 13.001953,-5.798858 13.001953,-13.001953 V 28.971679 c -0.125226,-0.33309 -0.258163,-0.643195 -0.398438,-0.933593 -0.140274,-0.290399 -0.289006,-0.559404 -0.443359,-0.810547 -0.154353,-0.251144 -0.314961,-0.483894 -0.482422,-0.699219 -0.16746,-0.215325 -0.341887,-0.414714 -0.521484,-0.597656 -0.179598,-0.182943 -0.363924,-0.34991 -0.554688,-0.503907 -0.190764,-0.153996 -0.38693,-0.293388 -0.58789,-0.421875 -0.200961,-0.128487 -0.407002,-0.245149 -0.617188,-0.351562 0.210186,0.106413 0.416227,0.223075 0.617188,0.351562 0.20096,0.128487 0.397126,0.267879 0.58789,0.421875 0.190764,0.153997 0.37509,0.320964 0.554688,0.503907 0.179597,0.182942 0.354024,0.382331 0.521484,0.597656 0.167461,0.215325 0.328069,0.448075 0.482422,0.699219 0.154353,0.251143 0.303085,0.520148 0.443359,0.810547 0.140275,0.290398 0.273212,0.600503 0.398438,0.933593 V 28.833007 C 59.752064,21.784286 43.371199,5.1842268 35.799804,4.0341792 c -0.264999,-0.02 -0.52811,-0.035156 -0.787109,-0.035156 0.249999,0.0625 0.487549,0.1462404 0.714843,0.2460938 0.227295,0.099853 0.444337,0.2158204 0.650391,0.3496093 0.206054,0.133789 0.401612,0.2849123 0.587891,0.4492188 0.186279,0.1643065 0.363281,0.341797 0.53125,0.5332031 0.167968,0.1914061 0.327392,0.3962404 0.478515,0.6113281 0.151123,0.2150878 0.293946,0.4404299 0.429688,0.6757813 C 38.269531,6.6289059 38.126708,6.4035639 37.975585,6.1884761 37.824462,5.9733883 37.665038,5.7685541 37.49707,5.577148 37.329101,5.3857419 37.152099,5.2082514 36.96582,5.0439449 36.779541,4.8796383 36.583983,4.7285151 36.377929,4.5947261 36.171875,4.4609372 35.954833,4.3449702 35.727538,4.2451168 35.500244,4.1452633 35.262694,4.0615229 35.012695,3.999023 Z m 22.728515,6.025391 c 0.177735,0.564452 0.337891,1.138672 0.486329,1.708984 0.296875,1.140624 0.546875,2.265627 0.796875,3.265625 -0.25,-0.999998 -0.500001,-2.125001 -0.796875,-3.265625 -0.148438,-0.570312 -0.308594,-1.144532 -0.486329,-1.708984 z m 13.246094,13.580078 c 0.483513,0.09518 0.959749,0.196737 1.423828,0.318359 -0.464079,-0.121622 -0.940315,-0.223178 -1.423828,-0.318359 z"
       inkscape:label="Shadow" />
    <path
       d="m 17.000976,3.9990235 c -7.2031005,0 -13.0019525,5.798852 -13.0019525,13.0019525 v 29.998047 c 0,7.203102 5.798852,13.001953 13.0019525,13.001953 h 29.998047 c 7.203102,0 13.001953,-5.798851 13.001953,-13.001953 V 28.971679 c -2.003622,-5.329445 -5.995573,-4.974479 -9.988281,-5.972656 -5.819994,-1.454999 -8.030001,-4.120004 -9,-7.999999 -0.999999,-3.999997 -2.000003,-10.0000015 -6,-11.0000005 z"
       style="fill:url(#linearGradient5);stroke-width:3.7796"
       id="path3-9"
       inkscape:label="Sheet" />
    <rect
       style="display:none;opacity:0.25;fill:none;fill-opacity:1;stroke:#ff00ee;stroke-width:0.1;stroke-linecap:square;stroke-linejoin:round;stroke-dasharray:none;stroke-opacity:1"
       id="rect1"
       width="31.62265"
       height="31.622654"
       x="16.188675"
       y="16.188673" />
    <path
       d="m 33.300709,4.6539948 c 3.999996,0.999999 5.000001,7.0000042 6,11.0000002 0.969999,3.879996 3.180006,6.545001 9,8 3.992708,0.998177 7.984659,0.64321 9.988281,5.972656 V 29.487979 C 58.040078,22.439251 41.659221,5.8391998 34.087818,4.6891508 c -0.264999,-0.02 -0.528109,-0.03516 -0.787109,-0.03516 z"
       style="display:inline;opacity:0.25;fill:#212121;fill-opacity:1;filter:url(#filter95)"
       id="path5-6"
       inkscape:label="Cornershadow" />
    <path
       d="m 35.012695,3.9990237 c 3.999996,0.999999 5.000001,7.0000043 6,11.0000003 0.969999,3.879996 3.180006,6.545001 9,8 3.992708,0.998177 7.984659,0.64321 9.988281,5.972656 V 28.833008 C 59.752064,21.78428 43.371207,5.1842286 35.799804,4.0341799 c -0.264999,-0.02 -0.528109,-0.035156 -0.787109,-0.035156 z"
       style="display:inline;fill:url(#d)"
       id="path5"
       inkscape:label="Corner" />
  </g>
  <path
     fill="#7b7b7b"
     d="M6.782 13.552v.21q-.122-.059-.23-.088t-.21-.028q-.175 0-.271.068-.095.068-.095.193 0 .105.063.16.064.053.24.086l.13.026q.24.046.354.162.115.115.115.308 0 .231-.155.35-.154.12-.453.12-.113 0-.24-.026t-.263-.076v-.221q.13.073.256.11t.247.038q.184 0 .284-.072t.1-.207q0-.117-.073-.183-.07-.066-.235-.099l-.13-.025q-.24-.048-.348-.15t-.108-.284q0-.21.148-.332.15-.12.41-.12.111 0 .227.02t.237.06m1.002.16-.291.79h.583zm-.121-.212h.243l.605 1.588h-.223l-.145-.407h-.715l-.145.407h-.226zm2.032.052v.21q-.123-.059-.231-.088t-.21-.028q-.175 0-.27.068t-.095.193q0 .105.062.16.064.053.24.086l.13.026q.24.046.354.162.115.115.115.308 0 .231-.155.35-.154.12-.453.12-.113 0-.24-.026t-.263-.076v-.221q.13.073.256.11t.247.038q.184 0 .284-.072t.1-.207q0-.117-.072-.183t-.235-.099l-.131-.025q-.24-.048-.348-.15t-.107-.284q0-.21.148-.332.148-.12.409-.12.112 0 .227.02t.238.06m1.382 0v.21q-.122-.059-.23-.088t-.21-.028q-.176 0-.271.068t-.095.193q0 .105.063.16.064.053.24.086l.13.026q.24.046.354.162.115.115.115.308 0 .231-.156.35-.154.12-.453.12-.112 0-.24-.026-.126-.026-.262-.076v-.221q.13.073.256.11t.246.038q.184 0 .284-.072t.1-.207q0-.117-.072-.183-.071-.066-.235-.099l-.13-.025q-.241-.048-.348-.15-.108-.102-.108-.284 0-.21.148-.332.149-.12.41-.12.111 0 .227.02t.237.06"
     aria-label="SASS"
     id="path6"
     style="fill:#212121" />
  <path
     fill="#e97cc8"
     d="m 11.523638,8.94223 a 1.75,1.75 0 0 0 -0.767,0.178 c -0.079,-0.156 -0.158,-0.296 -0.172,-0.398 -0.015,-0.119 -0.034,-0.191 -0.015,-0.334 0.019,-0.143 0.102,-0.345 0.1,-0.36 -0.002,-0.015 -0.018,-0.088 -0.188,-0.09 -0.17,-0.001 -0.317,0.033 -0.334,0.078 -0.017,0.045 -0.05,0.146 -0.071,0.252 -0.03,0.154 -0.3400005,0.706 -0.5190005,0.996 a 1,1 0 0 1 -0.117,-0.291 c -0.016,-0.12 -0.034,-0.192 -0.016,-0.334 0.018,-0.142 0.103,-0.345 0.101,-0.36 -0.002,-0.015 -0.019,-0.089 -0.189,-0.09 -0.17,-10e-4 -0.317,0.032 -0.334,0.077 -0.017,0.045 -0.035,0.15 -0.07,0.252 -0.035,0.102 -0.45,1.024 -0.558,1.262 -0.055,0.122 -0.103,0.22 -0.137,0.286 l -0.006,0.013 -0.047,0.088 v 10e-4 c -0.023,0.042 -0.048,0.08 -0.06,0.08 -0.01,0 -0.026,-0.11 0.003,-0.262 0.062,-0.32 0.209,-0.818 0.207,-0.835 0,-0.01 0.028,-0.096 -0.096,-0.141 -0.12,-0.045 -0.164,0.03 -0.174,0.03 -0.01,0 -0.019,0.026 -0.019,0.026 0,0 0.135,-0.56 -0.257,-0.56 -0.244,0 -0.581,0.267 -0.748,0.509 l -0.57,0.31 c -0.09,0.051 -0.185,0.102 -0.273,0.15 l -0.019,-0.02 c -0.473,-0.505 -1.3479999,-0.863 -1.3099999,-1.542 0.013,-0.247 0.098,-0.896 1.6799999,-1.685 1.302,-0.642 2.338,-0.464 2.518,-0.07 0.256,0.563 -0.556,1.609 -1.9,1.76 -0.514,0.057 -0.783,-0.14 -0.851,-0.215 -0.072,-0.077 -0.082,-0.082 -0.109,-0.066 -0.043,0.023 -0.015,0.092 0,0.133 0.04,0.105 0.206,0.29 0.486,0.382 0.247,0.08 0.849,0.125 1.577,-0.157 0.815,-0.315 1.452,-1.192 1.265,-1.926 -0.187,-0.746 -1.424,-0.992 -2.595,-0.576 -0.696,0.248 -1.45,0.637 -1.9929999,1.145 -0.645,0.603 -0.747,1.127 -0.705,1.347 0.15,0.779 1.2249999,1.286 1.6539999,1.662 l -0.058,0.032 c -0.215,0.107 -1.0349999,0.535 -1.2389999,0.989 -0.232,0.513 0.037,0.881 0.215,0.93 0.5519999,0.154 1.1199999,-0.122 1.4239999,-0.576 0.305,-0.455 0.268,-1.046 0.127,-1.316 l -0.006,-0.01 0.168,-0.099 a 8,8 0 0 1 0.311,-0.174 2,2 0 0 0 -0.11,0.563 c -0.023,0.29 0.096,0.668 0.253,0.816 0.07,0.065 0.151,0.067 0.204,0.067 0.182,0 0.264,-0.152 0.355,-0.331 0.112,-0.22 0.212,-0.475 0.212,-0.475 0,0 -0.125,0.69 0.215,0.69 0.124,0 0.25,-0.161 0.305,-0.243 v 10e-4 l 0.01,-0.015 0.02,-0.033 v -0.003 c 0.049,-0.086 0.16,-0.283 0.326,-0.609 0.213,-0.42 0.419,-0.946 0.419,-0.946 0,0 0.018,0.128 0.082,0.341 0.037,0.126 0.114,0.263 0.176,0.396 -0.05,0.07 -0.08,0.108 -0.08,0.108 l 10e-4,0.002 q -0.06,0.08 -0.131,0.166 c -0.169,0.2 -0.37,0.431 -0.398,0.497 -0.032,0.08 -0.025,0.137 0.037,0.183 0.045,0.034 0.126,0.039 0.208,0.034 a 1,1 0 0 0 0.31,-0.071 c 0.082,-0.03 0.178,-0.074 0.268,-0.14 a 0.6,0.6 0 0 0 0.257,-0.528 1.1,1.1 0 0 0 -0.098,-0.373 l 0.045,-0.065 c 0.261,-0.382 0.4640005,-0.8 0.4640005,-0.8 0,0 0.019,0.127 0.082,0.34 0.03,0.11 0.094,0.227 0.15,0.341 -0.246,0.2 -0.398,0.432 -0.4520005,0.583 -0.097,0.282 -0.021,0.408 0.1230005,0.438 0.064,0.014 0.157,-0.017 0.225,-0.047 a 1,1 0 0 0 0.286,-0.147 c 0.166,-0.122 0.325,-0.292 0.316,-0.522 a 1,1 0 0 0 -0.071,-0.31 1.6,1.6 0 0 1 0.82,-0.094 c 0.737,0.087 0.882,0.546 0.855,0.74 -0.027,0.194 -0.183,0.298 -0.234,0.33 -0.051,0.032 -0.068,0.044 -0.063,0.067 0.006,0.034 0.03,0.032 0.074,0.026 0.06,-0.01 0.386,-0.156 0.4,-0.512 0.024,-0.454 -0.41,-0.95 -1.175,-0.946 m -5.6780005,1.914 c -0.245,0.266 -0.585,0.367 -0.7319999,0.282 -0.158,-0.091 -0.096,-0.484 0.2039999,-0.766 0.183,-0.171 0.418,-0.33 0.574,-0.428 l 0.151,-0.091 0.017,-0.01 0.038,-0.023 c 0.11,0.402 0.004,0.756 -0.253,1.036 z m 1.778,-1.209 c -0.085,0.207 -0.263,0.738 -0.371,0.708 -0.093,-0.024 -0.15,-0.426 -0.019,-0.824 0.067,-0.2 0.207,-0.438 0.29,-0.53 0.132,-0.149 0.28,-0.198 0.315,-0.138 0.045,0.079 -0.163,0.654 -0.215,0.784 m 1.467,0.702 c -0.035,0.019 -0.07,0.031 -0.085,0.022 -0.01,-0.006 0.016,-0.031 0.016,-0.031 0,0 0.184,-0.198 0.257,-0.288 q 0.063,-0.079 0.143,-0.184 v 0.02 c 0,0.237 -0.228,0.396 -0.33,0.461 z m 1.1330005,-0.258 c -0.027,-0.019 -0.022,-0.08 0.066,-0.274 a 1,1 0 0 1 0.252,-0.325 q 0.025,0.075 0.025,0.143 c -0.002,0.298 -0.215,0.41 -0.344,0.456 z"
     id="path7"
     style="fill:#212121" />
</svg>
