<?xml version="1.0" encoding="UTF-8" standalone="no"?>
<svg
   width="64"
   height="64"
   viewBox="0 0 16.933 16.933"
   version="1.1"
   id="svg7"
   sodipodi:docname="text-x-authors.svg"
   inkscape:version="1.4.3 (0d15f75042, 2025-12-25)"
   xmlns:inkscape="http://www.inkscape.org/namespaces/inkscape"
   xmlns:sodipodi="http://sodipodi.sourceforge.net/DTD/sodipodi-0.dtd"
   xmlns:xlink="http://www.w3.org/1999/xlink"
   xmlns="http://www.w3.org/2000/svg"
   xmlns:svg="http://www.w3.org/2000/svg">
  <sodipodi:namedview
     id="namedview7"
     pagecolor="#ffffff"
     bordercolor="#111111"
     borderopacity="1"
     inkscape:showpageshadow="0"
     inkscape:pageopacity="0"
     inkscape:pagecheckerboard="1"
     inkscape:deskcolor="#d1d1d1"
     inkscape:zoom="18.09375"
     inkscape:cx="31.972366"
     inkscape:cy="32"
     inkscape:window-width="2560"
     inkscape:window-height="1371"
     inkscape:window-x="0"
     inkscape:window-y="0"
     inkscape:window-maximized="1"
     inkscape:current-layer="svg7" />
  <defs
     id="defs4">
    <linearGradient
       id="b"
       x1="40"
       x2="46"
       y1="17"
       y2="11"
       gradientTransform="translate(-.006 -.265)scale(.26458)"
       gradientUnits="userSpaceOnUse">
      <stop
         offset="0"
         stop-color="#fefefe"
         id="stop1" />
      <stop
         offset="1"
         stop-color="#e9e9e9"
         id="stop2" />
    </linearGradient>
    <linearGradient
       id="a"
       x1="45.801"
       x2="9.802"
       y1="10"
       y2="61"
       gradientTransform="translate(.052 -.265)scale(.26458)"
       gradientUnits="userSpaceOnUse">
      <stop
         offset="0"
         stop-color="#ededed"
         id="stop3" />
      <stop
         offset="1"
         stop-color="#fcfcfc"
         id="stop4" />
    </linearGradient>
    <filter
       inkscape:collect="always"
       style="color-interpolation-filters:sRGB"
       id="filter94"
       x="-0.069119996"
       y="-0.069119996"
       width="1.13824"
       height="1.13824">
      <feGaussianBlur
         inkscape:collect="always"
         stdDeviation="1.6128562"
         id="feGaussianBlur94" />
    </filter>
    <linearGradient
       inkscape:collect="always"
       xlink:href="#linearGradient862-3"
       id="linearGradient5"
       gradientUnits="userSpaceOnUse"
       gradientTransform="translate(-0.03416885,-0.02590078)"
       x1="7.9373002"
       y1="15.081"
       x2="7.9373002"
       y2="1.852" />
    <linearGradient
       id="linearGradient862-3"
       x1="7.9373002"
       x2="7.9373002"
       y1="15.081"
       y2="1.852"
       gradientTransform="scale(3.7796)"
       gradientUnits="userSpaceOnUse"
       xlink:href="#linearGradient92">
      <stop
         stop-color="#f1efeb"
         offset="0"
         id="stop1-3" />
      <stop
         stop-color="#fdfcfc"
         offset="1"
         id="stop2-6" />
    </linearGradient>
    <linearGradient
       id="linearGradient92"
       x1="7.9373002"
       x2="7.9373002"
       y1="15.081"
       y2="1.852"
       gradientTransform="scale(3.7796)"
       gradientUnits="userSpaceOnUse"
       spreadMethod="pad">
      <stop
         stop-color="#f1efeb"
         offset="0"
         id="stop91"
         style="stop-color:#695e49;stop-opacity:1;" />
      <stop
         stop-color="#fdfcfc"
         offset="1"
         id="stop92" />
    </linearGradient>
    <filter
       inkscape:collect="always"
       style="color-interpolation-filters:sRGB"
       id="filter95"
       x="-0.14695404"
       y="-0.14704597"
       width="1.2939081"
       height="1.2940919">
      <feGaussianBlur
         inkscape:collect="always"
         stdDeviation="1.5300537"
         id="feGaussianBlur95" />
    </filter>
    <linearGradient
       id="d"
       x1="45"
       x2="60.076"
       y1="19"
       y2="3.924"
       gradientTransform="matrix(0.26457812,0,0,0.26457812,-0.03051018,-0.03420846)"
       gradientUnits="userSpaceOnUse">
      <stop
         offset="0"
         stop-color="#fff"
         id="stop5" />
      <stop
         offset="1"
         stop-color="#b3b3b3"
         id="stop6" />
    </linearGradient>
  </defs>
  <path
     id="path3-9-5"
     style="opacity:0.25;fill:#212121;fill-opacity:1;stroke-width:3.7796;filter:url(#filter94)"
     d="m 17.000976,3.999023 c -7.203094,0 -13.001953,5.798859 -13.001953,13.001953 v 29.998047 c 0,7.203095 5.798859,13.001953 13.001953,13.001953 h 29.998047 c 7.203095,0 13.001953,-5.798858 13.001953,-13.001953 V 28.971679 c -0.125226,-0.33309 -0.258163,-0.643195 -0.398438,-0.933593 -0.140274,-0.290399 -0.289006,-0.559404 -0.443359,-0.810547 -0.154353,-0.251144 -0.314961,-0.483894 -0.482422,-0.699219 -0.16746,-0.215325 -0.341887,-0.414714 -0.521484,-0.597656 -0.179598,-0.182943 -0.363924,-0.34991 -0.554688,-0.503907 -0.190764,-0.153996 -0.38693,-0.293388 -0.58789,-0.421875 -0.200961,-0.128487 -0.407002,-0.245149 -0.617188,-0.351562 0.210186,0.106413 0.416227,0.223075 0.617188,0.351562 0.20096,0.128487 0.397126,0.267879 0.58789,0.421875 0.190764,0.153997 0.37509,0.320964 0.554688,0.503907 0.179597,0.182942 0.354024,0.382331 0.521484,0.597656 0.167461,0.215325 0.328069,0.448075 0.482422,0.699219 0.154353,0.251143 0.303085,0.520148 0.443359,0.810547 0.140275,0.290398 0.273212,0.600503 0.398438,0.933593 V 28.833007 C 59.752064,21.784286 43.371199,5.1842268 35.799804,4.0341792 c -0.264999,-0.02 -0.52811,-0.035156 -0.787109,-0.035156 0.249999,0.0625 0.487549,0.1462404 0.714843,0.2460938 0.227295,0.099853 0.444337,0.2158204 0.650391,0.3496093 0.206054,0.133789 0.401612,0.2849123 0.587891,0.4492188 0.186279,0.1643065 0.363281,0.341797 0.53125,0.5332031 0.167968,0.1914061 0.327392,0.3962404 0.478515,0.6113281 0.151123,0.2150878 0.293946,0.4404299 0.429688,0.6757813 C 38.269531,6.6289059 38.126708,6.4035639 37.975585,6.1884761 37.824462,5.9733883 37.665038,5.7685541 37.49707,5.577148 37.329101,5.3857419 37.152099,5.2082514 36.96582,5.0439449 36.779541,4.8796383 36.583983,4.7285151 36.377929,4.5947261 36.171875,4.4609372 35.954833,4.3449702 35.727538,4.2451168 35.500244,4.1452633 35.262694,4.0615229 35.012695,3.999023 Z m 22.728515,6.025391 c 0.177735,0.564452 0.337891,1.138672 0.486329,1.708984 0.296875,1.140624 0.546875,2.265627 0.796875,3.265625 -0.25,-0.999998 -0.500001,-2.125001 -0.796875,-3.265625 -0.148438,-0.570312 -0.308594,-1.144532 -0.486329,-1.708984 z m 13.246094,13.580078 c 0.483513,0.09518 0.959749,0.196737 1.423828,0.318359 -0.464079,-0.121622 -0.940315,-0.223178 -1.423828,-0.318359 z"
     inkscape:label="Shadow"
     transform="matrix(0.26457812,0,0,0.26457812,-0.03391049,-0.03391049)" />
  <path
     d="m 4.4641758,1.0241436 c -1.9057828,0 -3.4400322,1.5342494 -3.4400322,3.4400322 v 7.9368272 c 0,1.905783 1.5342494,3.440032 3.4400322,3.440032 h 7.9368272 c 1.905783,0 3.440032,-1.534249 3.440032,-3.440032 V 7.6313619 C 15.31092,6.2213073 14.254738,6.3152236 13.198354,6.0511278 11.658511,5.6661669 11.073792,4.9610649 10.817151,3.9345031 10.552573,2.8761914 10.287994,1.2887215 9.2296825,1.0241436 Z"
     style="fill:url(#linearGradient5);stroke-width:0.999999"
     id="path3-9"
     inkscape:label="Sheet" />
  <path
     d="m 33.300709,4.6539948 c 3.999996,0.999999 5.000001,7.0000042 6,11.0000002 0.969999,3.879996 3.180006,6.545001 9,8 3.992708,0.998177 7.984659,0.64321 9.988281,5.972656 V 29.487979 C 58.040078,22.439251 41.659221,5.8391998 34.087818,4.6891508 c -0.264999,-0.02 -0.528109,-0.03516 -0.787109,-0.03516 z"
     style="display:inline;opacity:0.25;fill:#212121;fill-opacity:1;filter:url(#filter95)"
     id="path5-6"
     inkscape:label="Cornershadow"
     transform="matrix(0.26457812,0,0,0.26457812,-0.03391049,-0.03391049)" />
  <path
     d="m 9.2296825,1.0241437 c 1.0583115,0.2645778 1.3228905,1.852048 1.5874685,2.9103594 0.256641,1.026562 0.84136,1.731664 2.381203,2.1166249 1.056384,0.2640958 2.112566,0.1701793 2.642681,1.5802341 V 7.5946726 C 15.775178,5.7297334 11.441162,1.337723 9.4379343,1.0334452 c -0.070113,-0.00529 -0.139726,-0.0093 -0.2082518,-0.0093 z"
     style="display:inline;fill:url(#d);stroke-width:0.264578"
     id="path5-0"
     inkscape:label="Corner" />
  <path
     fill="#7b7b7b"
     d="m4.825 13.717-.234.635h.469zm-.097-.17h.195l.486 1.275h-.18l-.115-.327h-.575l-.116.327H4.24zm.848 0h.173v.775q0 .205.074.295.075.09.241.09t.24-.09.074-.295v-.775h.174v.796q0 .25-.124.377-.123.127-.364.127-.242 0-.365-.127-.123-.128-.123-.377zm1.123 0h1.078v.145h-.452v1.13H7.15v-1.13H6.7zm1.245 0h.172v.523h.627v-.523h.173v1.275h-.173v-.607h-.627v.607h-.172zm1.833.117q-.188 0-.3.14-.11.14-.11.382 0 .24.11.38.112.14.3.14t.297-.14.11-.38q0-.242-.11-.382t-.297-.14m0-.14q.268 0 .428.18t.16.482-.16.481-.428.18q-.27 0-.43-.18-.161-.179-.161-.481 0-.303.16-.482.162-.18.43-.18zm1.463.701q.056.019.108.08.053.062.106.17l.175.348h-.185l-.163-.327q-.063-.128-.123-.17t-.162-.042h-.187v.539h-.173v-1.275h.39q.218 0 .326.091t.107.276q0 .12-.056.2t-.162.11zm-.431-.535v.452h.216q.125 0 .188-.057.064-.058.064-.17t-.064-.168q-.063-.057-.188-.057zm1.807-.101v.168q-.099-.047-.186-.07t-.168-.023q-.14 0-.218.055-.076.054-.076.155 0 .085.05.128.052.043.194.07l.104.02q.193.038.284.13.093.093.093.248 0 .186-.125.281-.124.096-.364.096-.09 0-.193-.02-.102-.021-.21-.061v-.178q.104.06.205.089t.198.03q.148 0 .228-.058t.08-.166q0-.094-.058-.147-.057-.053-.188-.08l-.106-.02q-.193-.038-.279-.12t-.086-.228q0-.17.119-.267.12-.097.328-.097.09 0 .183.016t.19.049z"
     aria-label="AUTHORS"
     id="path6"
     style="fill:#212121" />
  <path
     fill="#b3b3b3"
     d="M7.713 5.556a1.343 1.343 0 1 0 0 2.686 1.343 1.343 0 0 0 0-2.686m2.237.871.002.002c-.174 0-.337.04-.485.107a1.78 1.78 0 0 1-.492 1.63c.206.313.564.523.976.523.641 0 1.16-.506 1.16-1.13s-.519-1.132-1.16-1.132zm-2.236 2.71c-2.687 0-2.687 1.792-2.687 1.792v.448H10.4v-.448s0-1.795-2.687-1.791zm2.238 0c-.088 0-.166.006-.247.01.312.179.55.392.718.616.42.564.425 1.164.425 1.164h1.343v-.448s0-1.343-2.239-1.343"
     class="ColorScheme-Text"
     id="path7"
     style="fill:#212121" />
</svg>
