<?xml version="1.0" encoding="UTF-8" standalone="no"?>
<svg
   width="64"
   height="64"
   version="1.1"
   id="svg9"
   sodipodi:docname="text-x-gettext-translation.svg"
   inkscape:version="1.4.3 (0d15f75042, 2025-12-25)"
   xmlns:inkscape="http://www.inkscape.org/namespaces/inkscape"
   xmlns:sodipodi="http://sodipodi.sourceforge.net/DTD/sodipodi-0.dtd"
   xmlns:xlink="http://www.w3.org/1999/xlink"
   xmlns="http://www.w3.org/2000/svg"
   xmlns:svg="http://www.w3.org/2000/svg">
  <sodipodi:namedview
     id="namedview9"
     pagecolor="#ffffff"
     bordercolor="#111111"
     borderopacity="1"
     inkscape:showpageshadow="0"
     inkscape:pageopacity="0"
     inkscape:pagecheckerboard="1"
     inkscape:deskcolor="#d1d1d1"
     inkscape:zoom="17.6875"
     inkscape:cx="31.971731"
     inkscape:cy="32"
     inkscape:window-width="2560"
     inkscape:window-height="1371"
     inkscape:window-x="0"
     inkscape:window-y="0"
     inkscape:window-maximized="1"
     inkscape:current-layer="g1" />
  <defs
     id="defs4">
    <linearGradient
       id="a"
       x1="45.801"
       x2="9.802"
       y1="10"
       y2="61"
       gradientTransform="translate(.198 -1)"
       gradientUnits="userSpaceOnUse">
      <stop
         offset="0"
         stop-color="#ededed"
         id="stop1" />
      <stop
         offset="1"
         stop-color="#fcfcfc"
         id="stop2" />
    </linearGradient>
    <linearGradient
       id="b"
       x1="40"
       x2="46"
       y1="17"
       y2="11"
       gradientTransform="translate(-.021 -1)"
       gradientUnits="userSpaceOnUse">
      <stop
         offset="0"
         stop-color="#fefefe"
         id="stop3" />
      <stop
         offset="1"
         stop-color="#e9e9e9"
         id="stop4" />
    </linearGradient>
    <filter
       inkscape:collect="always"
       style="color-interpolation-filters:sRGB"
       id="filter94"
       x="-0.069119996"
       y="-0.069119996"
       width="1.13824"
       height="1.13824">
      <feGaussianBlur
         inkscape:collect="always"
         stdDeviation="1.6128562"
         id="feGaussianBlur94" />
    </filter>
    <linearGradient
       inkscape:collect="always"
       xlink:href="#linearGradient862-3"
       id="linearGradient5"
       gradientUnits="userSpaceOnUse"
       gradientTransform="matrix(3.7796,0,0,3.7796,-9.765e-4,0.0302735)"
       x1="7.9373002"
       y1="15.081"
       x2="7.9373002"
       y2="1.852" />
    <linearGradient
       id="linearGradient862-3"
       x1="7.9373002"
       x2="7.9373002"
       y1="15.081"
       y2="1.852"
       gradientTransform="scale(3.7796)"
       gradientUnits="userSpaceOnUse"
       xlink:href="#linearGradient92">
      <stop
         stop-color="#f1efeb"
         offset="0"
         id="stop1-6" />
      <stop
         stop-color="#fdfcfc"
         offset="1"
         id="stop2-1" />
    </linearGradient>
    <linearGradient
       id="linearGradient92"
       x1="7.9373002"
       x2="7.9373002"
       y1="15.081"
       y2="1.852"
       gradientTransform="scale(3.7796)"
       gradientUnits="userSpaceOnUse"
       spreadMethod="pad">
      <stop
         stop-color="#f1efeb"
         offset="0"
         id="stop91"
         style="stop-color:#695e49;stop-opacity:1;" />
      <stop
         stop-color="#fdfcfc"
         offset="1"
         id="stop92" />
    </linearGradient>
    <filter
       inkscape:collect="always"
       style="color-interpolation-filters:sRGB"
       id="filter95"
       x="-0.14695404"
       y="-0.14704597"
       width="1.2939081"
       height="1.2940919">
      <feGaussianBlur
         inkscape:collect="always"
         stdDeviation="1.5300537"
         id="feGaussianBlur95" />
    </filter>
    <linearGradient
       id="d"
       x1="45"
       x2="60.076"
       y1="19"
       y2="3.924"
       gradientTransform="translate(0.01285182,-0.00112622)"
       gradientUnits="userSpaceOnUse">
      <stop
         offset="0"
         stop-color="#fff"
         id="stop5" />
      <stop
         offset="1"
         stop-color="#b3b3b3"
         id="stop6" />
    </linearGradient>
  </defs>
  <g
     id="g1"
     transform="translate(-0.12816816,-0.12816816)">
    <path
       id="path3-9-5"
       style="opacity:0.25;fill:#212121;fill-opacity:1;stroke-width:3.7796;filter:url(#filter94)"
       d="m 17.000976,3.999023 c -7.203094,0 -13.001953,5.798859 -13.001953,13.001953 v 29.998047 c 0,7.203095 5.798859,13.001953 13.001953,13.001953 h 29.998047 c 7.203095,0 13.001953,-5.798858 13.001953,-13.001953 V 28.971679 c -0.125226,-0.33309 -0.258163,-0.643195 -0.398438,-0.933593 -0.140274,-0.290399 -0.289006,-0.559404 -0.443359,-0.810547 -0.154353,-0.251144 -0.314961,-0.483894 -0.482422,-0.699219 -0.16746,-0.215325 -0.341887,-0.414714 -0.521484,-0.597656 -0.179598,-0.182943 -0.363924,-0.34991 -0.554688,-0.503907 -0.190764,-0.153996 -0.38693,-0.293388 -0.58789,-0.421875 -0.200961,-0.128487 -0.407002,-0.245149 -0.617188,-0.351562 0.210186,0.106413 0.416227,0.223075 0.617188,0.351562 0.20096,0.128487 0.397126,0.267879 0.58789,0.421875 0.190764,0.153997 0.37509,0.320964 0.554688,0.503907 0.179597,0.182942 0.354024,0.382331 0.521484,0.597656 0.167461,0.215325 0.328069,0.448075 0.482422,0.699219 0.154353,0.251143 0.303085,0.520148 0.443359,0.810547 0.140275,0.290398 0.273212,0.600503 0.398438,0.933593 V 28.833007 C 59.752064,21.784286 43.371199,5.1842268 35.799804,4.0341792 c -0.264999,-0.02 -0.52811,-0.035156 -0.787109,-0.035156 0.249999,0.0625 0.487549,0.1462404 0.714843,0.2460938 0.227295,0.099853 0.444337,0.2158204 0.650391,0.3496093 0.206054,0.133789 0.401612,0.2849123 0.587891,0.4492188 0.186279,0.1643065 0.363281,0.341797 0.53125,0.5332031 0.167968,0.1914061 0.327392,0.3962404 0.478515,0.6113281 0.151123,0.2150878 0.293946,0.4404299 0.429688,0.6757813 C 38.269531,6.6289059 38.126708,6.4035639 37.975585,6.1884761 37.824462,5.9733883 37.665038,5.7685541 37.49707,5.577148 37.329101,5.3857419 37.152099,5.2082514 36.96582,5.0439449 36.779541,4.8796383 36.583983,4.7285151 36.377929,4.5947261 36.171875,4.4609372 35.954833,4.3449702 35.727538,4.2451168 35.500244,4.1452633 35.262694,4.0615229 35.012695,3.999023 Z m 22.728515,6.025391 c 0.177735,0.564452 0.337891,1.138672 0.486329,1.708984 0.296875,1.140624 0.546875,2.265627 0.796875,3.265625 -0.25,-0.999998 -0.500001,-2.125001 -0.796875,-3.265625 -0.148438,-0.570312 -0.308594,-1.144532 -0.486329,-1.708984 z m 13.246094,13.580078 c 0.483513,0.09518 0.959749,0.196737 1.423828,0.318359 -0.464079,-0.121622 -0.940315,-0.223178 -1.423828,-0.318359 z"
       inkscape:label="Shadow" />
    <path
       d="m 17.000976,3.9990235 c -7.2031005,0 -13.0019525,5.798852 -13.0019525,13.0019525 v 29.998047 c 0,7.203102 5.798852,13.001953 13.0019525,13.001953 h 29.998047 c 7.203102,0 13.001953,-5.798851 13.001953,-13.001953 V 28.971679 c -2.003622,-5.329445 -5.995573,-4.974479 -9.988281,-5.972656 -5.819994,-1.454999 -8.030001,-4.120004 -9,-7.999999 -0.999999,-3.999997 -2.000003,-10.0000015 -6,-11.0000005 z"
       style="fill:url(#linearGradient5);stroke-width:3.7796"
       id="path3-9"
       inkscape:label="Sheet" />
    <rect
       style="display:none;opacity:0.25;fill:none;fill-opacity:1;stroke:#ff00ee;stroke-width:0.1;stroke-linecap:square;stroke-linejoin:round;stroke-dasharray:none;stroke-opacity:1"
       id="rect1"
       width="31.62265"
       height="31.622654"
       x="16.188675"
       y="16.188673" />
    <g
       id="g2"
       transform="translate(0,-2.3347811)">
      <path
         fill="#e6e6e6"
         d="m 17,30.206612 h 16 c 1.108,0 2,0.892 2,2 v 16 c 0,1.108 -0.892,2 -2,2 H 17 c -1.108,0 -2,-0.892 -2,-2 v -16 c 0,-1.108 0.892,-2 2,-2"
         id="path6"
         style="fill:#212121"
         transform="translate(0.12816816,0.12816816)" />
      <path
         fill="#999"
         d="m 22.768,33.170612 a 0.315,0.317 0 0 0 -0.304,0.292 l -0.048,0.452 q -0.07,0.578 -0.11,0.986 a 0.315,0.317 0 0 0 0,0.002 l -0.048,0.508 a 0.315,0.317 0 0 0 0,0.002 l -0.008,0.08 c -0.507,0.03 -1.025,0.051 -1.573,0.051 q -0.635,0 -1.288,-0.045 a 0.315,0.317 0 0 0 -0.336,0.343 l 0.103,1.135 a 0.315,0.317 0 0 0 0.294,0.288 c 0.18,0.011 0.41,0.018 0.699,0.018 0.627,0 1.293,-0.036 1.971,-0.082 a 42,42 0 0 0 -0.114,1.994 c -0.452,0.254 -0.854,0.493 -1.143,0.705 a 0.315,0.317 0 0 0 -0.004,0.002 c -1.676,1.27 -2.566,2.755 -2.566,4.397 0,0.609 0.13,1.113 0.437,1.474 0.306,0.361 0.776,0.534 1.316,0.534 0.745,0 1.515,-0.305 2.301,-0.788 0.038,0.234 0.088,0.545 0.105,0.637 a 0.315,0.317 0 0 0 0.42,0.242 l 1.169,-0.436 a 0.315,0.317 0 0 0 0.193,-0.38 9,9 0 0 1 -0.243,-1.325 c 1.276,-1.242 2.305,-2.795 3.11,-4.625 0.549,0.086 1.023,0.235 1.402,0.468 a 0.315,0.317 0 0 0 0.002,0.002 c 0.862,0.521 1.251,1.205 1.251,2.181 0,0.945 -0.423,1.663 -1.368,2.256 -0.738,0.467 -1.755,0.781 -3.055,0.92 a 0.315,0.317 0 0 0 -0.23,0.489 l 0.694,1.08 a 0.315,0.317 0 0 0 0.308,0.14 c 1.556,-0.222 2.806,-0.668 3.736,-1.361 1.185,-0.884 1.81,-2.085 1.81,-3.508 0,-1.294 -0.522,-2.39 -1.524,-3.193 a 0.315,0.317 0 0 0 -0.004,-0.002 c -0.633,-0.494 -1.476,-0.791 -2.459,-0.962 0.058,-0.178 0.132,-0.386 0.158,-0.506 a 0.315,0.317 0 0 0 -0.237,-0.377 l -1.192,-0.278 a 0.315,0.317 0 0 0 -0.377,0.232 c -0.085,0.339 -0.16,0.602 -0.235,0.85 -0.719,0.077 -1.362,0.21 -1.95,0.384 0.021,-0.488 0.048,-0.959 0.09,-1.393 1.655,-0.181 3.203,-0.445 4.625,-0.805 a 0.315,0.317 0 0 0 0.237,-0.343 l -0.126,-1.12 a 0.315,0.317 0 0 0 -0.397,-0.27 c -1.39,0.384 -2.78,0.644 -4.168,0.812 0.056,-0.53 0.117,-1.075 0.197,-1.72 a 0.315,0.317 0 0 0 -0.292,-0.355 l -1.2,-0.08 a 0.315,0.317 0 0 0 -0.03,-0.002 z m 2.303,6.592 a 12,12 0 0 1 -1.267,2.091 c -0.02,-0.52 -0.04,-1.026 -0.042,-1.736 0.417,-0.16 0.863,-0.258 1.309,-0.355 m -3.063,1.385 c 0.02,0.938 0.051,1.814 0.108,2.478 -0.693,0.611 -1.317,0.911 -1.857,0.911 -0.096,0 -0.106,-0.015 -0.114,-0.024 -0.008,-0.009 -0.036,-0.055 -0.036,-0.182 0,-0.07 -0.013,-0.135 -0.026,-0.2 0.008,-0.052 0.026,-0.106 0.026,-0.158 l -0.002,0.024 c 0.056,-0.72 0.46,-1.493 1.27,-2.317 a 0.315,0.317 0 0 0 0.003,-0.004 c 0.221,-0.235 0.42,-0.362 0.628,-0.528"
         font-size="16px"
         font-weight="700"
         letter-spacing="0"
         word-spacing="0"
         id="path7"
         style="fill:#f6f5f4"
         transform="translate(0.12816816,0.12816816)" />
      <path
         fill="#44a5f3"
         d="m 30,18.206612 c -1.108,0 -2,0.892 -2,2 v 16 c 0,1.108 0.892,2 2,2 h 16 c 1.108,0 2,-0.892 2,-2 v -16 c 0,-1.108 -0.892,-2 -2,-2 z"
         color="#212121"
         id="path8"
         style="fill:#212121"
         transform="translate(0.12816816,0.12816816)" />
      <path
         fill="#ffffff"
         d="m 36.938,22.206612 -4.471,12 h 2.058 l 1.24,-3.6 H 40.2 l 1.256,3.6 h 2.08 l -4.472,-12 z m 1.062,1.98 1.79,5.22 h -3.614 z"
         color="#212121"
         id="path9"
         transform="translate(0.12816816,0.12816816)" />
    </g>
    <path
       d="m 33.300709,4.6539948 c 3.999996,0.999999 5.000001,7.0000042 6,11.0000002 0.969999,3.879996 3.180006,6.545001 9,8 3.992708,0.998177 7.984659,0.64321 9.988281,5.972656 V 29.487979 C 58.040078,22.439251 41.659221,5.8391998 34.087818,4.6891508 c -0.264999,-0.02 -0.528109,-0.03516 -0.787109,-0.03516 z"
       style="display:inline;opacity:0.25;fill:#212121;fill-opacity:1;filter:url(#filter95)"
       id="path5-6"
       inkscape:label="Cornershadow" />
    <path
       d="m 35.012695,3.9990237 c 3.999996,0.999999 5.000001,7.0000043 6,11.0000003 0.969999,3.879996 3.180006,6.545001 9,8 3.992708,0.998177 7.984659,0.64321 9.988281,5.972656 V 28.833008 C 59.752064,21.78428 43.371207,5.1842286 35.799804,4.0341799 c -0.264999,-0.02 -0.528109,-0.035156 -0.787109,-0.035156 z"
       style="display:inline;fill:url(#d)"
       id="path5"
       inkscape:label="Corner" />
  </g>
</svg>
