<?xml version="1.0" encoding="UTF-8" standalone="no"?>
<svg
   width="64"
   height="64"
   viewBox="0 0 16.933 16.933"
   version="1.1"
   id="svg8"
   sodipodi:docname="text-x-go.svg"
   inkscape:version="1.4.3 (0d15f75042, 2025-12-25)"
   xmlns:inkscape="http://www.inkscape.org/namespaces/inkscape"
   xmlns:sodipodi="http://sodipodi.sourceforge.net/DTD/sodipodi-0.dtd"
   xmlns:xlink="http://www.w3.org/1999/xlink"
   xmlns="http://www.w3.org/2000/svg"
   xmlns:svg="http://www.w3.org/2000/svg">
  <sodipodi:namedview
     id="namedview8"
     pagecolor="#ffffff"
     bordercolor="#111111"
     borderopacity="1"
     inkscape:showpageshadow="0"
     inkscape:pageopacity="0"
     inkscape:pagecheckerboard="1"
     inkscape:deskcolor="#d1d1d1"
     inkscape:zoom="17.6875"
     inkscape:cx="31.971731"
     inkscape:cy="32"
     inkscape:window-width="2560"
     inkscape:window-height="1371"
     inkscape:window-x="0"
     inkscape:window-y="0"
     inkscape:window-maximized="1"
     inkscape:current-layer="svg8" />
  <defs
     id="defs4">
    <linearGradient
       id="a"
       x1="45.801"
       x2="9.802"
       y1="10"
       y2="61"
       gradientTransform="translate(.052 -.265)scale(.26458)"
       gradientUnits="userSpaceOnUse">
      <stop
         offset="0"
         stop-color="#ededed"
         id="stop1" />
      <stop
         offset="1"
         stop-color="#fcfcfc"
         id="stop2" />
    </linearGradient>
    <linearGradient
       id="b"
       x1="40"
       x2="46"
       y1="17"
       y2="11"
       gradientTransform="translate(-.006 -.265)scale(.26458)"
       gradientUnits="userSpaceOnUse">
      <stop
         offset="0"
         stop-color="#fefefe"
         id="stop3" />
      <stop
         offset="1"
         stop-color="#e9e9e9"
         id="stop4" />
    </linearGradient>
    <filter
       inkscape:collect="always"
       style="color-interpolation-filters:sRGB"
       id="filter94"
       x="-0.069119996"
       y="-0.069119996"
       width="1.13824"
       height="1.13824">
      <feGaussianBlur
         inkscape:collect="always"
         stdDeviation="1.6128562"
         id="feGaussianBlur94" />
    </filter>
    <linearGradient
       inkscape:collect="always"
       xlink:href="#linearGradient862-3"
       id="linearGradient5"
       gradientUnits="userSpaceOnUse"
       gradientTransform="matrix(3.7796,0,0,3.7796,-9.765e-4,0.0302735)"
       x1="7.9373002"
       y1="15.081"
       x2="7.9373002"
       y2="1.852" />
    <linearGradient
       id="linearGradient862-3"
       x1="7.9373002"
       x2="7.9373002"
       y1="15.081"
       y2="1.852"
       gradientTransform="scale(3.7796)"
       gradientUnits="userSpaceOnUse"
       xlink:href="#linearGradient92">
      <stop
         stop-color="#f1efeb"
         offset="0"
         id="stop1-5" />
      <stop
         stop-color="#fdfcfc"
         offset="1"
         id="stop2-9" />
    </linearGradient>
    <linearGradient
       id="linearGradient92"
       x1="7.9373002"
       x2="7.9373002"
       y1="15.081"
       y2="1.852"
       gradientTransform="scale(3.7796)"
       gradientUnits="userSpaceOnUse"
       spreadMethod="pad">
      <stop
         stop-color="#f1efeb"
         offset="0"
         id="stop91"
         style="stop-color:#695e49;stop-opacity:1;" />
      <stop
         stop-color="#fdfcfc"
         offset="1"
         id="stop92" />
    </linearGradient>
    <filter
       inkscape:collect="always"
       style="color-interpolation-filters:sRGB"
       id="filter95"
       x="-0.14695404"
       y="-0.14704597"
       width="1.2939081"
       height="1.2940919">
      <feGaussianBlur
         inkscape:collect="always"
         stdDeviation="1.5300537"
         id="feGaussianBlur95" />
    </filter>
    <linearGradient
       id="d"
       x1="45"
       x2="60.076"
       y1="19"
       y2="3.924"
       gradientTransform="translate(0.01285182,-0.00112622)"
       gradientUnits="userSpaceOnUse">
      <stop
         offset="0"
         stop-color="#fff"
         id="stop5" />
      <stop
         offset="1"
         stop-color="#b3b3b3"
         id="stop6" />
    </linearGradient>
  </defs>
  <g
     id="g1"
     transform="matrix(0.26457812,0,0,0.26457812,-0.03391049,-0.03391049)">
    <path
       id="path3-9-5"
       style="opacity:0.25;fill:#212121;fill-opacity:1;stroke-width:3.7796;filter:url(#filter94)"
       d="m 17.000976,3.999023 c -7.203094,0 -13.001953,5.798859 -13.001953,13.001953 v 29.998047 c 0,7.203095 5.798859,13.001953 13.001953,13.001953 h 29.998047 c 7.203095,0 13.001953,-5.798858 13.001953,-13.001953 V 28.971679 c -0.125226,-0.33309 -0.258163,-0.643195 -0.398438,-0.933593 -0.140274,-0.290399 -0.289006,-0.559404 -0.443359,-0.810547 -0.154353,-0.251144 -0.314961,-0.483894 -0.482422,-0.699219 -0.16746,-0.215325 -0.341887,-0.414714 -0.521484,-0.597656 -0.179598,-0.182943 -0.363924,-0.34991 -0.554688,-0.503907 -0.190764,-0.153996 -0.38693,-0.293388 -0.58789,-0.421875 -0.200961,-0.128487 -0.407002,-0.245149 -0.617188,-0.351562 0.210186,0.106413 0.416227,0.223075 0.617188,0.351562 0.20096,0.128487 0.397126,0.267879 0.58789,0.421875 0.190764,0.153997 0.37509,0.320964 0.554688,0.503907 0.179597,0.182942 0.354024,0.382331 0.521484,0.597656 0.167461,0.215325 0.328069,0.448075 0.482422,0.699219 0.154353,0.251143 0.303085,0.520148 0.443359,0.810547 0.140275,0.290398 0.273212,0.600503 0.398438,0.933593 V 28.833007 C 59.752064,21.784286 43.371199,5.1842268 35.799804,4.0341792 c -0.264999,-0.02 -0.52811,-0.035156 -0.787109,-0.035156 0.249999,0.0625 0.487549,0.1462404 0.714843,0.2460938 0.227295,0.099853 0.444337,0.2158204 0.650391,0.3496093 0.206054,0.133789 0.401612,0.2849123 0.587891,0.4492188 0.186279,0.1643065 0.363281,0.341797 0.53125,0.5332031 0.167968,0.1914061 0.327392,0.3962404 0.478515,0.6113281 0.151123,0.2150878 0.293946,0.4404299 0.429688,0.6757813 C 38.269531,6.6289059 38.126708,6.4035639 37.975585,6.1884761 37.824462,5.9733883 37.665038,5.7685541 37.49707,5.577148 37.329101,5.3857419 37.152099,5.2082514 36.96582,5.0439449 36.779541,4.8796383 36.583983,4.7285151 36.377929,4.5947261 36.171875,4.4609372 35.954833,4.3449702 35.727538,4.2451168 35.500244,4.1452633 35.262694,4.0615229 35.012695,3.999023 Z m 22.728515,6.025391 c 0.177735,0.564452 0.337891,1.138672 0.486329,1.708984 0.296875,1.140624 0.546875,2.265627 0.796875,3.265625 -0.25,-0.999998 -0.500001,-2.125001 -0.796875,-3.265625 -0.148438,-0.570312 -0.308594,-1.144532 -0.486329,-1.708984 z m 13.246094,13.580078 c 0.483513,0.09518 0.959749,0.196737 1.423828,0.318359 -0.464079,-0.121622 -0.940315,-0.223178 -1.423828,-0.318359 z"
       inkscape:label="Shadow" />
    <path
       d="m 17.000976,3.9990235 c -7.2031005,0 -13.0019525,5.798852 -13.0019525,13.0019525 v 29.998047 c 0,7.203102 5.798852,13.001953 13.0019525,13.001953 h 29.998047 c 7.203102,0 13.001953,-5.798851 13.001953,-13.001953 V 28.971679 c -2.003622,-5.329445 -5.995573,-4.974479 -9.988281,-5.972656 -5.819994,-1.454999 -8.030001,-4.120004 -9,-7.999999 -0.999999,-3.999997 -2.000003,-10.0000015 -6,-11.0000005 z"
       style="fill:url(#linearGradient5);stroke-width:3.7796"
       id="path3-9"
       inkscape:label="Sheet" />
    <rect
       style="display:none;opacity:0.25;fill:none;fill-opacity:1;stroke:#ff00ee;stroke-width:0.1;stroke-linecap:square;stroke-linejoin:round;stroke-dasharray:none;stroke-opacity:1"
       id="rect1"
       width="31.62265"
       height="31.622654"
       x="16.188675"
       y="16.188673" />
    <path
       d="m 33.300709,4.6539948 c 3.999996,0.999999 5.000001,7.0000042 6,11.0000002 0.969999,3.879996 3.180006,6.545001 9,8 3.992708,0.998177 7.984659,0.64321 9.988281,5.972656 V 29.487979 C 58.040078,22.439251 41.659221,5.8391998 34.087818,4.6891508 c -0.264999,-0.02 -0.528109,-0.03516 -0.787109,-0.03516 z"
       style="display:inline;opacity:0.25;fill:#212121;fill-opacity:1;filter:url(#filter95)"
       id="path5-6"
       inkscape:label="Cornershadow" />
    <path
       d="m 35.012695,3.9990237 c 3.999996,0.999999 5.000001,7.0000043 6,11.0000003 0.969999,3.879996 3.180006,6.545001 9,8 3.992708,0.998177 7.984659,0.64321 9.988281,5.972656 V 28.833008 C 59.752064,21.78428 43.371207,5.1842286 35.799804,4.0341799 c -0.264999,-0.02 -0.528109,-0.035156 -0.787109,-0.035156 z"
       style="display:inline;fill:url(#d)"
       id="path5"
       inkscape:label="Corner" />
  </g>
  <g
     fill="#31c6b7"
     id="g7"
     style="fill:#212121"
     transform="translate(0,-0.08670645)">
    <path
       d="M 8.347,7.87 C 7.977,7.965 7.726,8.035 7.362,8.129 7.274,8.152 7.269,8.159 7.192,8.07 A 0.8,0.8 0 0 0 6.917,7.847 C 6.547,7.666 6.19,7.718 5.856,7.935 A 1.25,1.25 0 0 0 5.258,9.049 C 5.264,9.518 5.586,9.905 6.049,9.969 6.448,10.022 6.782,9.881 7.046,9.582 7.099,9.518 7.146,9.448 7.204,9.366 H 6.073 C 5.95,9.366 5.92,9.289 5.961,9.19 6.038,9.008 6.178,8.703 6.261,8.55 A 0.16,0.16 0 0 1 6.407,8.457 H 8.54 C 8.528,8.615 8.528,8.774 8.504,8.932 a 2.5,2.5 0 0 1 -0.48,1.149 C 7.602,10.638 7.051,10.983 6.354,11.077 5.779,11.153 5.245,11.042 4.776,10.69 A 1.84,1.84 0 0 1 4.032,9.389 C 3.956,8.75 4.143,8.176 4.53,7.672 A 2.6,2.6 0 0 1 6.171,6.657 c 0.551,-0.1 1.079,-0.035 1.554,0.288 0.31,0.205 0.533,0.486 0.68,0.826 0.035,0.053 0.011,0.082 -0.059,0.1 z"
       id="path6"
       style="fill:#212121" />
    <path
       d="M 10.313,11.112 C 9.773,11.1 9.281,10.946 8.865,10.59 A 1.86,1.86 0 0 1 8.225,9.445 C 8.118,8.775 8.302,8.181 8.705,7.653 9.138,7.083 9.66,6.787 10.366,6.663 c 0.606,-0.107 1.175,-0.048 1.691,0.302 0.47,0.32 0.76,0.753 0.837,1.323 0.1,0.801 -0.13,1.454 -0.682,2.011 a 2.7,2.7 0 0 1 -1.424,0.76 c -0.16,0.03 -0.32,0.035 -0.475,0.053 M 11.725,8.715 C 11.719,8.638 11.719,8.579 11.707,8.52 11.601,7.932 11.061,7.6 10.497,7.73 9.945,7.855 9.589,8.205 9.459,8.763 a 0.98,0.98 0 0 0 0.546,1.121 c 0.326,0.143 0.652,0.125 0.967,-0.035 0.468,-0.244 0.723,-0.623 0.753,-1.134"
       id="path7"
       style="fill:#212121" />
  </g>
  <path
     fill="#7b7b7b"
     d="M3.746 13.5H5.09v.18h-.564v1.407H4.31v-1.406h-.564zm1.55 0H6.3v.18h-.789v.47h.756v.181h-.756v.576h.808v.18H5.296zm1.3 0h.23l.395.59.397-.59h.23l-.51.762.544.825h-.23l-.447-.675-.45.675h-.232l.567-.847zm1.31 0h1.343v.18h-.564v1.407h-.216v-1.406h-.563zm1.243.904h.573v.174h-.573zm2.055.457v-.426h-.35v-.177h.563v.682q-.125.088-.275.134-.15.044-.32.044-.372 0-.582-.217-.21-.218-.21-.606 0-.389.21-.606.21-.218.582-.218.156 0 .295.039.14.038.258.112v.229q-.119-.101-.253-.152t-.282-.051q-.291 0-.438.162-.145.163-.145.485t.145.484q.147.163.438.163.114 0 .203-.02t.161-.061m1.249-1.215q-.234 0-.372.174-.137.175-.137.476 0 .3.137.474.138.174.372.174t.37-.174q.137-.174.137-.474 0-.301-.137-.476-.136-.174-.37-.174m0-.174q.334 0 .534.224.2.223.2.6 0 .375-.2.6-.2.223-.534.223-.335 0-.536-.224-.2-.223-.2-.6t.2-.599q.201-.224.536-.224"
     aria-label="TEXT-GO"
     id="path8"
     style="fill:#212121" />
</svg>
