<?xml version="1.0" encoding="UTF-8" standalone="no"?>
<svg
   width="64"
   height="64"
   viewBox="0 0 16.933 16.933"
   version="1.1"
   id="svg7"
   sodipodi:docname="text-less.svg"
   inkscape:version="1.4.3 (0d15f75042, 2025-12-25)"
   xmlns:inkscape="http://www.inkscape.org/namespaces/inkscape"
   xmlns:sodipodi="http://sodipodi.sourceforge.net/DTD/sodipodi-0.dtd"
   xmlns:xlink="http://www.w3.org/1999/xlink"
   xmlns="http://www.w3.org/2000/svg"
   xmlns:svg="http://www.w3.org/2000/svg">
  <sodipodi:namedview
     id="namedview7"
     pagecolor="#ffffff"
     bordercolor="#111111"
     borderopacity="1"
     inkscape:showpageshadow="0"
     inkscape:pageopacity="0"
     inkscape:pagecheckerboard="1"
     inkscape:deskcolor="#d1d1d1"
     inkscape:zoom="17.6875"
     inkscape:cx="31.971731"
     inkscape:cy="32"
     inkscape:window-width="2560"
     inkscape:window-height="1371"
     inkscape:window-x="0"
     inkscape:window-y="0"
     inkscape:window-maximized="1"
     inkscape:current-layer="svg7" />
  <defs
     id="defs4">
    <linearGradient
       id="b"
       x1="40"
       x2="46"
       y1="17"
       y2="11"
       gradientTransform="translate(-.006 -.265)scale(.26458)"
       gradientUnits="userSpaceOnUse">
      <stop
         offset="0"
         stop-color="#fefefe"
         id="stop1" />
      <stop
         offset="1"
         stop-color="#e9e9e9"
         id="stop2" />
    </linearGradient>
    <linearGradient
       id="a"
       x1="45.801"
       x2="9.802"
       y1="10"
       y2="61"
       gradientTransform="translate(.052 -.265)scale(.26458)"
       gradientUnits="userSpaceOnUse">
      <stop
         offset="0"
         stop-color="#ededed"
         id="stop3" />
      <stop
         offset="1"
         stop-color="#fcfcfc"
         id="stop4" />
    </linearGradient>
    <filter
       inkscape:collect="always"
       style="color-interpolation-filters:sRGB"
       id="filter94"
       x="-0.069119996"
       y="-0.069119996"
       width="1.13824"
       height="1.13824">
      <feGaussianBlur
         inkscape:collect="always"
         stdDeviation="1.6128562"
         id="feGaussianBlur94" />
    </filter>
    <linearGradient
       inkscape:collect="always"
       xlink:href="#linearGradient862-3"
       id="linearGradient5"
       gradientUnits="userSpaceOnUse"
       gradientTransform="matrix(3.7796,0,0,3.7796,-9.765e-4,0.0302735)"
       x1="7.9373002"
       y1="15.081"
       x2="7.9373002"
       y2="1.852" />
    <linearGradient
       id="linearGradient862-3"
       x1="7.9373002"
       x2="7.9373002"
       y1="15.081"
       y2="1.852"
       gradientTransform="scale(3.7796)"
       gradientUnits="userSpaceOnUse"
       xlink:href="#linearGradient92">
      <stop
         stop-color="#f1efeb"
         offset="0"
         id="stop1-8" />
      <stop
         stop-color="#fdfcfc"
         offset="1"
         id="stop2-5" />
    </linearGradient>
    <linearGradient
       id="linearGradient92"
       x1="7.9373002"
       x2="7.9373002"
       y1="15.081"
       y2="1.852"
       gradientTransform="scale(3.7796)"
       gradientUnits="userSpaceOnUse"
       spreadMethod="pad">
      <stop
         stop-color="#f1efeb"
         offset="0"
         id="stop91"
         style="stop-color:#695e49;stop-opacity:1;" />
      <stop
         stop-color="#fdfcfc"
         offset="1"
         id="stop92" />
    </linearGradient>
    <filter
       inkscape:collect="always"
       style="color-interpolation-filters:sRGB"
       id="filter95"
       x="-0.14695404"
       y="-0.14704597"
       width="1.2939081"
       height="1.2940919">
      <feGaussianBlur
         inkscape:collect="always"
         stdDeviation="1.5300537"
         id="feGaussianBlur95" />
    </filter>
    <linearGradient
       id="d"
       x1="45"
       x2="60.076"
       y1="19"
       y2="3.924"
       gradientTransform="translate(0.01285182,-0.00112622)"
       gradientUnits="userSpaceOnUse">
      <stop
         offset="0"
         stop-color="#fff"
         id="stop5" />
      <stop
         offset="1"
         stop-color="#b3b3b3"
         id="stop6" />
    </linearGradient>
  </defs>
  <g
     id="g1"
     transform="matrix(0.26457812,0,0,0.26457812,-0.03391049,-0.03391049)">
    <path
       id="path3-9-5"
       style="opacity:0.25;fill:#212121;fill-opacity:1;stroke-width:3.7796;filter:url(#filter94)"
       d="m 17.000976,3.999023 c -7.203094,0 -13.001953,5.798859 -13.001953,13.001953 v 29.998047 c 0,7.203095 5.798859,13.001953 13.001953,13.001953 h 29.998047 c 7.203095,0 13.001953,-5.798858 13.001953,-13.001953 V 28.971679 c -0.125226,-0.33309 -0.258163,-0.643195 -0.398438,-0.933593 -0.140274,-0.290399 -0.289006,-0.559404 -0.443359,-0.810547 -0.154353,-0.251144 -0.314961,-0.483894 -0.482422,-0.699219 -0.16746,-0.215325 -0.341887,-0.414714 -0.521484,-0.597656 -0.179598,-0.182943 -0.363924,-0.34991 -0.554688,-0.503907 -0.190764,-0.153996 -0.38693,-0.293388 -0.58789,-0.421875 -0.200961,-0.128487 -0.407002,-0.245149 -0.617188,-0.351562 0.210186,0.106413 0.416227,0.223075 0.617188,0.351562 0.20096,0.128487 0.397126,0.267879 0.58789,0.421875 0.190764,0.153997 0.37509,0.320964 0.554688,0.503907 0.179597,0.182942 0.354024,0.382331 0.521484,0.597656 0.167461,0.215325 0.328069,0.448075 0.482422,0.699219 0.154353,0.251143 0.303085,0.520148 0.443359,0.810547 0.140275,0.290398 0.273212,0.600503 0.398438,0.933593 V 28.833007 C 59.752064,21.784286 43.371199,5.1842268 35.799804,4.0341792 c -0.264999,-0.02 -0.52811,-0.035156 -0.787109,-0.035156 0.249999,0.0625 0.487549,0.1462404 0.714843,0.2460938 0.227295,0.099853 0.444337,0.2158204 0.650391,0.3496093 0.206054,0.133789 0.401612,0.2849123 0.587891,0.4492188 0.186279,0.1643065 0.363281,0.341797 0.53125,0.5332031 0.167968,0.1914061 0.327392,0.3962404 0.478515,0.6113281 0.151123,0.2150878 0.293946,0.4404299 0.429688,0.6757813 C 38.269531,6.6289059 38.126708,6.4035639 37.975585,6.1884761 37.824462,5.9733883 37.665038,5.7685541 37.49707,5.577148 37.329101,5.3857419 37.152099,5.2082514 36.96582,5.0439449 36.779541,4.8796383 36.583983,4.7285151 36.377929,4.5947261 36.171875,4.4609372 35.954833,4.3449702 35.727538,4.2451168 35.500244,4.1452633 35.262694,4.0615229 35.012695,3.999023 Z m 22.728515,6.025391 c 0.177735,0.564452 0.337891,1.138672 0.486329,1.708984 0.296875,1.140624 0.546875,2.265627 0.796875,3.265625 -0.25,-0.999998 -0.500001,-2.125001 -0.796875,-3.265625 -0.148438,-0.570312 -0.308594,-1.144532 -0.486329,-1.708984 z m 13.246094,13.580078 c 0.483513,0.09518 0.959749,0.196737 1.423828,0.318359 -0.464079,-0.121622 -0.940315,-0.223178 -1.423828,-0.318359 z"
       inkscape:label="Shadow" />
    <path
       d="m 17.000976,3.9990235 c -7.2031005,0 -13.0019525,5.798852 -13.0019525,13.0019525 v 29.998047 c 0,7.203102 5.798852,13.001953 13.0019525,13.001953 h 29.998047 c 7.203102,0 13.001953,-5.798851 13.001953,-13.001953 V 28.971679 c -2.003622,-5.329445 -5.995573,-4.974479 -9.988281,-5.972656 -5.819994,-1.454999 -8.030001,-4.120004 -9,-7.999999 -0.999999,-3.999997 -2.000003,-10.0000015 -6,-11.0000005 z"
       style="fill:url(#linearGradient5);stroke-width:3.7796"
       id="path3-9"
       inkscape:label="Sheet" />
    <rect
       style="display:none;opacity:0.25;fill:none;fill-opacity:1;stroke:#ff00ee;stroke-width:0.1;stroke-linecap:square;stroke-linejoin:round;stroke-dasharray:none;stroke-opacity:1"
       id="rect1"
       width="31.62265"
       height="31.622654"
       x="16.188675"
       y="16.188673" />
    <path
       d="m 33.300709,4.6539948 c 3.999996,0.999999 5.000001,7.0000042 6,11.0000002 0.969999,3.879996 3.180006,6.545001 9,8 3.992708,0.998177 7.984659,0.64321 9.988281,5.972656 V 29.487979 C 58.040078,22.439251 41.659221,5.8391998 34.087818,4.6891508 c -0.264999,-0.02 -0.528109,-0.03516 -0.787109,-0.03516 z"
       style="display:inline;opacity:0.25;fill:#212121;fill-opacity:1;filter:url(#filter95)"
       id="path5-6"
       inkscape:label="Cornershadow" />
    <path
       d="m 35.012695,3.9990237 c 3.999996,0.999999 5.000001,7.0000043 6,11.0000003 0.969999,3.879996 3.180006,6.545001 9,8 3.992708,0.998177 7.984659,0.64321 9.988281,5.972656 V 28.833008 C 59.752064,21.78428 43.371207,5.1842286 35.799804,4.0341799 c -0.264999,-0.02 -0.528109,-0.035156 -0.787109,-0.035156 z"
       style="display:inline;fill:url(#d)"
       id="path5"
       inkscape:label="Corner" />
  </g>
  <path
     fill="#7b7b7b"
     d="M5.957 13.229h.215v1.407h.773v.18h-.988zm1.213 0h1.004v.18h-.789v.47h.756v.181h-.756v.576h.808v.18H7.17zm2.328.052v.21q-.122-.059-.23-.088t-.21-.028q-.176 0-.271.068t-.095.193q0 .105.063.16.063.053.24.086l.13.026q.24.046.354.162.115.115.115.308 0 .231-.156.35-.154.12-.453.12-.112 0-.24-.026-.126-.026-.263-.076v-.221q.131.073.257.11.125.038.246.038.184 0 .284-.072.1-.073.1-.207 0-.117-.072-.183-.071-.066-.235-.099l-.13-.025q-.241-.048-.349-.15t-.107-.284q0-.21.148-.332.149-.12.41-.12.11 0 .227.02t.237.06m1.382 0v.21q-.123-.059-.231-.088t-.21-.028q-.175 0-.27.068t-.095.193q0 .105.062.16.064.053.24.086l.13.026q.24.046.355.162.114.115.114.308 0 .231-.155.35-.154.12-.453.12-.113 0-.24-.026t-.263-.076v-.221q.131.073.256.11.126.038.247.038.184 0 .284-.072.1-.073.1-.207 0-.117-.072-.183t-.235-.099l-.131-.025q-.24-.048-.348-.15t-.107-.284q0-.21.148-.332.148-.12.409-.12.112 0 .228.02t.237.06"
     aria-label="LESS"
     id="path6"
     style="fill:#212121" />
  <path
     fill="#234db8"
     d="M4.696 10.422c-.234-.052-.365-.144-.44-.31-.035-.078-.04-.134-.049-.605-.01-.493-.012-.524-.053-.608-.053-.11-.157-.166-.33-.18l-.12-.01v-.461l.126-.013c.172-.018.274-.071.325-.17.036-.068.041-.113.046-.37.013-.707.018-.781.05-.859a.45.45 0 0 1 .22-.228c.175-.09.274-.106.753-.116l.45-.01.006 1.3c.005 1.257.007 1.303.043 1.374.066.133.112.153.353.153h.21l.011.082c.007.046.012.132.012.192v.109l-.163.023a2 2 0 0 1-.33.013c-.297-.018-.48-.12-.578-.325-.092-.19-.1-.307-.1-1.44l-.001-1.045-.098.013c-.14.019-.21.058-.25.138-.029.06-.035.135-.043.541-.009.441-.012.477-.051.558-.055.113-.102.156-.264.242l-.134.072.108.04a.5.5 0 0 1 .288.244c.041.085.044.115.053.57.01.521.016.555.115.63a.3.3 0 0 0 .154.046l.145.009v.43l-.195-.002c-.085 0-.206-.013-.269-.027m7.078-.189v-.217h.13c.121 0 .21-.049.255-.141.033-.068.038-.127.047-.557.009-.452.012-.486.05-.56.05-.095.127-.157.282-.228l.116-.054-.107-.045a.6.6 0 0 1-.291-.254c-.038-.07-.041-.11-.05-.558-.01-.439-.013-.487-.048-.547-.044-.078-.132-.127-.255-.142l-.13-.011v-.437l.227.013c.41.023.614.137.702.374.024.064.032.19.041.609.01.483.015.534.049.594.048.086.179.152.325.165l.112.01v.462l-.12.01c-.154.012-.264.073-.316.174-.035.07-.04.118-.05.595-.012.557-.021.617-.119.747-.093.124-.368.214-.655.215h-.195zm-4.572-.492-.159-.028a1.2 1.2 0 0 1-.496-.25c-.191-.187-.296-.418-.333-.734-.041-.358.033-.717.2-.965a.97.97 0 0 1 .598-.406c.126-.028.4-.028.528 0a.87.87 0 0 1 .594.46c.097.188.128.337.128.61v.23H6.739l.009.07c.03.232.087.353.222.474.116.103.218.135.436.135.205 0 .409-.045.587-.13l.113-.054.075.389-.124.058a2 2 0 0 1-.268.095c-.14.036-.49.064-.588.046zm.553-1.546c-.02-.244-.148-.413-.351-.463-.317-.077-.585.134-.642.505l-.012.08h1.015zm1.182 1.539c-.276-.032-.572-.131-.556-.187.005-.017.019-.11.031-.205s.026-.175.03-.175.04.017.08.037c.216.112.643.182.818.133.166-.046.257-.204.2-.345-.039-.093-.124-.145-.463-.284-.322-.132-.442-.203-.552-.323-.186-.206-.177-.626.017-.824.169-.17.389-.233.78-.22.268.01.41.038.611.12l.073.029-.064.182-.068.187c-.002.002-.07-.02-.152-.05-.463-.166-.828-.102-.828.147 0 .117.108.193.46.325.385.145.561.264.653.44.046.088.05.115.05.304 0 .19-.005.218-.051.314a.7.7 0 0 1-.47.365c-.133.035-.426.05-.6.03zm1.785 0a1.6 1.6 0 0 1-.443-.108l-.112-.045.027-.202c.015-.112.029-.205.032-.209a.3.3 0 0 1 .08.033c.216.112.644.183.818.135.115-.032.207-.124.22-.22.022-.169-.073-.25-.49-.415-.537-.213-.694-.39-.672-.761.018-.313.187-.498.53-.58.097-.022.19-.027.396-.02.27.009.372.028.581.107l.106.04-.065.182-.069.186a2 2 0 0 1-.191-.06c-.328-.111-.59-.107-.72.01-.051.046-.06.068-.06.14 0 .14.066.188.495.352.531.203.682.376.663.761-.01.216-.058.337-.181.454a.73.73 0 0 1-.345.19 2.1 2.1 0 0 1-.6.03"
     id="path7"
     style="fill:#212121" />
</svg>
