<?xml version="1.0" encoding="UTF-8"?>
<svg id="svg2" width="16" height="16" version="1.1" xmlns="http://www.w3.org/2000/svg">
 <path id="path1" d="m12.5 9c-1.933 0-3.5 1.567-3.5 3.5s1.567 3.5 3.5 3.5 3.5-1.567 3.5-3.5-1.567-3.5-3.5-3.5zm-1.4141 1.5859c0.12781 0 0.25558 0.04855 0.35352 0.14648l1.0605 1.0605 1.0605-1.0605c0.19587-0.19587 0.51116-0.19587 0.70703 0s0.19587 0.51116 0 0.70703l-1.0605 1.0605 1.0605 1.0605c0.19587 0.19587 0.19587 0.51116 0 0.70703s-0.51116 0.19587-0.70703 0l-1.0605-1.0605-1.0605 1.0605c-0.19587 0.19587-0.51116 0.19587-0.70703 0s-0.19587-0.51116 0-0.70703l1.0605-1.0605-1.0605-1.0605c-0.19587-0.19587-0.19587-0.51116 0-0.70703 0.09793-0.09793 0.22571-0.14648 0.35352-0.14648z" fill="#363636"/>
 <path id="path2" d="m7.4062 9.1453e-5a0.57164 0.57164 0 0 0-0.21211 0.049121 0.57164 0.57164 0 0 0-0.33714 0.52023v6.0418l-3.1259-1.9537a0.57158 0.57158 0 0 0-0.78815 0.18085 0.57158 0.57158 0 0 0 0.18085 0.78815l3.7331 2.3332v0.080378l-3.7331 2.3332a0.57158 0.57158 0 0 0-0.18085 0.78815 0.57158 0.57158 0 0 0 0.78815 0.18085l3.1259-1.9537v6.0418a0.57164 0.57164 0 0 0 0.95115 0.42646l0.6542-0.58275a5.1442 5.1442 0 0 1-0.36841-1.2012l-0.093775 0.08484v-5.4837l1.4512 0.90649a5.1442 5.1442 0 0 1 0.92435-0.7703l-1.2973-0.81048 3.7979-2.3734a0.57164 0.57164 0 0 0 0.07591-0.91096l-5.1442-4.5727a0.57164 0.57164 0 0 0-0.40189-0.1429zm0.59391 1.842 3.6237 3.2196-3.6237 2.264z" fill="#363636" stroke-width="1.1432"/>
</svg>
