<?xml version="1.0" encoding="UTF-8"?>
<svg id="svg1" width="16" height="16" version="1.1" xmlns="http://www.w3.org/2000/svg">
 <path id="path1" d="m7.1945 0.054156a0.57128 0.57128 0 0 0-0.33693 0.51991v6.0381l-3.1239-1.9524a0.57122 0.57122 0 0 0-0.78766 0.18074 0.57122 0.57122 0 0 0 0.18074 0.78766l3.7308 2.3317v0.080329l-3.7308 2.3317a0.57122 0.57122 0 0 0-0.18074 0.78766 0.57122 0.57122 0 0 0 0.78766 0.18074l3.1239-1.9524v6.0381a0.57128 0.57128 0 0 0 0.95055 0.42619l5.141-4.5698a0.57128 0.57128 0 0 0-0.075872-0.91039l-3.7956-2.372 3.7956-2.372a0.57128 0.57128 0 0 0 0.07587-0.91039l-5.141-4.5698a0.57128 0.57128 0 0 0-0.61362-0.093716zm0.80552 1.7918 3.6214 3.2176-3.6214 2.2626zm0 6.828 3.6214 2.2626-3.6214 3.2176z" fill="#363636" opacity=".35" stroke-width="1.1424"/>
 <rect id="rect1" y="7" width="16" height="2" rx="1" ry="1" fill="#363636" stroke-linecap="round" stroke-linejoin="round" stroke-width=".61104" style="paint-order:markers stroke fill"/>
</svg>
