<?xml version="1.0" encoding="UTF-8" standalone="no"?>
<svg
   width="16"
   height="16"
   version="1.1"
   id="svg1"
   sodipodi:docname="bluetooth-hardware-disabled-symbolic.svg"
   inkscape:version="1.3.2 (091e20ef0f, 2023-11-25)"
   xmlns:inkscape="http://www.inkscape.org/namespaces/inkscape"
   xmlns:sodipodi="http://sodipodi.sourceforge.net/DTD/sodipodi-0.dtd"
   xmlns="http://www.w3.org/2000/svg"
   xmlns:svg="http://www.w3.org/2000/svg">
  <defs
     id="defs1" />
  <sodipodi:namedview
     id="namedview1"
     pagecolor="#ffffff"
     bordercolor="#111111"
     borderopacity="1"
     inkscape:showpageshadow="0"
     inkscape:pageopacity="0"
     inkscape:pagecheckerboard="1"
     inkscape:deskcolor="#d1d1d1"
     inkscape:zoom="50.1875"
     inkscape:cx="8"
     inkscape:cy="9.5940224"
     inkscape:window-width="1920"
     inkscape:window-height="1011"
     inkscape:window-x="0"
     inkscape:window-y="0"
     inkscape:window-maximized="1"
     inkscape:current-layer="svg1" />
  <path
     d="M 7.1945108,0.05415593 A 0.57128159,0.57128159 0 0 0 6.8575798,0.57406162 V 6.6121327 L 3.7336674,4.6596876 A 0.57122447,0.57122447 0 0 0 2.946006,4.8404229 0.57122447,0.57122447 0 0 0 3.1267413,5.6280844 l 3.7307814,2.3317382 v 0.080329 L 3.1267413,10.37189 A 0.57122447,0.57122447 0 0 0 2.946006,11.159551 0.57122447,0.57122447 0 0 0 3.7336674,11.340286 L 6.8575798,9.3878416 v 6.0380714 a 0.57128159,0.57128159 0 0 0 0.9505518,0.426189 L 12.949152,11.282306 A 0.57128159,0.57128159 0 0 0 12.87328,10.371912 L 9.0777235,7.9999602 12.873283,5.6280077 a 0.57128159,0.57128159 0 0 0 0.07587,-0.9103946 L 7.8081316,0.14781724 A 0.57128159,0.57128159 0 0 0 7.1945108,0.05410103 Z M 8.0000287,1.8459728 11.621478,5.063566 8.0000287,7.3261862 Z m 0,6.8279605 3.6214493,2.2626197 -3.6214493,3.217593 z"
     fill="#363636"
     opacity="0.35"
     id="path1"
     style="stroke-width:1.14244" />
  <rect
     y="7"
     width="16"
     height="2"
     rx="1"
     ry="1"
     fill="#363636"
     stroke-linecap="round"
     stroke-linejoin="round"
     stroke-width=".61104"
     style="paint-order:markers stroke fill"
     id="rect1" />
</svg>
