<?xml version="1.0" encoding="UTF-8" standalone="no"?>
<svg
   width="16"
   height="16"
   version="1.1"
   id="svg1"
   sodipodi:docname="bluetooth-active-symbolic.svg"
   inkscape:version="1.3.2 (091e20ef0f, 2023-11-25)"
   xmlns:inkscape="http://www.inkscape.org/namespaces/inkscape"
   xmlns:sodipodi="http://sodipodi.sourceforge.net/DTD/sodipodi-0.dtd"
   xmlns="http://www.w3.org/2000/svg"
   xmlns:svg="http://www.w3.org/2000/svg">
  <defs
     id="defs1" />
  <sodipodi:namedview
     id="namedview1"
     pagecolor="#ffffff"
     bordercolor="#111111"
     borderopacity="1"
     inkscape:showpageshadow="0"
     inkscape:pageopacity="0"
     inkscape:pagecheckerboard="1"
     inkscape:deskcolor="#d1d1d1"
     inkscape:zoom="22.627417"
     inkscape:cx="1.5688932"
     inkscape:cy="3.9553785"
     inkscape:window-width="1920"
     inkscape:window-height="1011"
     inkscape:window-x="0"
     inkscape:window-y="0"
     inkscape:window-maximized="1"
     inkscape:current-layer="svg1" />
  <path
     d="M 7.1948572,0.05757081 A 0.57103607,0.57103607 0 0 0 6.8580708,0.57725305 V 6.6127291 L 3.7355012,4.6611229 a 0.57097898,0.57097898 0 0 0 -0.787323,0.1806579 0.57097898,0.57097898 0 0 0 0.1806577,0.7873229 l 3.7291778,2.3307361 v 0.080294 L 3.1288359,10.370871 a 0.57097898,0.57097898 0 0 0 -0.1806577,0.787323 0.57097898,0.57097898 0 0 0 0.787323,0.180657 L 6.8580708,9.387245 v 6.035476 a 0.57103607,0.57103607 0 0 0 0.9501433,0.426008 l 5.1388119,-4.567832 a 0.57103607,0.57103607 0 0 0 -0.07584,-0.910003 L 9.0772606,7.9999601 12.871187,5.6290272 a 0.57103607,0.57103607 0 0 0 0.07584,-0.9100036 L 7.8082141,0.15119194 A 0.57103607,0.57103607 0 0 0 7.1948572,0.057516 Z M 8.0000288,1.8486177 11.619922,5.064828 8.0000288,7.3264757 Z m 0,6.8250258 3.6198932,2.2616485 -3.6198932,3.216209 z"
     fill="#363636"
     id="path1"
     style="stroke-width:1.14196" />
</svg>
