<?xml version="1.0" encoding="UTF-8"?>
<svg id="svg1" width="16" height="16" version="1.1" xmlns="http://www.w3.org/2000/svg">
 <path id="path1" d="m7.1949 0.057571a0.57104 0.57104 0 0 0-0.33679 0.51968v6.0355l-3.1226-1.9516a0.57098 0.57098 0 0 0-0.78732 0.18066 0.57098 0.57098 0 0 0 0.18066 0.78732l3.7292 2.3307v0.080294l-3.7292 2.3307a0.57098 0.57098 0 0 0-0.18066 0.78732 0.57098 0.57098 0 0 0 0.78732 0.18066l3.1226-1.9516v6.0355a0.57104 0.57104 0 0 0 0.95014 0.42601l5.1388-4.5678a0.57104 0.57104 0 0 0-0.07584-0.91l-3.7939-2.3709 3.7939-2.3709a0.57104 0.57104 0 0 0 0.07584-0.91l-5.1388-4.5678a0.57104 0.57104 0 0 0-0.61336-0.093676zm0.80517 1.791 3.6199 3.2162-3.6199 2.2616zm0 6.825 3.6199 2.2616-3.6199 3.2162z" fill="#363636" stroke-width="1.142"/>
</svg>
