<?xml version="1.0" encoding="UTF-8"?>
<svg id="svg2" width="16" height="16" version="1.1" xmlns="http://www.w3.org/2000/svg">
 <path id="path1" d="m7.4084 0.030719a0.56945 0.56945 0 0 0-0.2113 0.048933 0.56945 0.56945 0 0 0-0.33585 0.51824v6.0187l-3.1139-1.9462a0.56939 0.56939 0 0 0-0.78514 0.18016 0.56939 0.56939 0 0 0 0.18016 0.78514l3.7188 2.3243v0.08007l-3.7188 2.3243a0.56939 0.56939 0 0 0-0.18016 0.78514 0.56939 0.56939 0 0 0 0.78514 0.18016l3.1139-1.9462v6.0187a0.56945 0.56945 0 0 0 0.94751 0.42482l1.3301-1.1833v-0.94973c0-0.25027 0.047901-0.48146 0.13345-0.69172l-1.2723 1.1321v-5.4626l3.1183 1.9484c0.21291-0.33073 0.47208-0.62317 0.77402-0.85854l-2.818-1.7616 3.7834-2.3644a0.56945 0.56945 0 0 0 0.07562-0.90748l-5.1245-4.5552a0.56945 0.56945 0 0 0-0.40035-0.14235zm0.59163 1.8349 3.6098 3.2073-3.6098 2.2554z" fill="#363636" stroke-width="1.1388"/>
 <path id="path2" d="m13 10c-1.108 0-2 0.892-2 2-0.554 0-1 0.446-1 1v2c0 0.554 0.446 1 1 1h4c0.554 0 1-0.446 1-1v-2c0-0.554-0.446-1-1-1 0-1.108-0.892-2-2-2zm0 1c0.554 0 1 0.446 1 1h-2c0-0.554 0.446-1 1-1z" fill="#363636"/>
</svg>
