<?xml version="1.0" encoding="UTF-8" standalone="no"?>
<svg
   width="16"
   height="16"
   version="1.1"
   id="svg2"
   sodipodi:docname="channel-insecure-symbolic.svg"
   inkscape:version="1.3.2 (091e20ef0f, 2023-11-25)"
   xmlns:inkscape="http://www.inkscape.org/namespaces/inkscape"
   xmlns:sodipodi="http://sodipodi.sourceforge.net/DTD/sodipodi-0.dtd"
   xmlns="http://www.w3.org/2000/svg"
   xmlns:svg="http://www.w3.org/2000/svg">
  <defs
     id="defs2" />
  <sodipodi:namedview
     id="namedview2"
     pagecolor="#ffffff"
     bordercolor="#111111"
     borderopacity="1"
     inkscape:showpageshadow="0"
     inkscape:pageopacity="0"
     inkscape:pagecheckerboard="1"
     inkscape:deskcolor="#d1d1d1"
     inkscape:zoom="50.1875"
     inkscape:cx="9.4146949"
     inkscape:cy="8.0398506"
     inkscape:window-width="1920"
     inkscape:window-height="1011"
     inkscape:window-x="0"
     inkscape:window-y="0"
     inkscape:window-maximized="1"
     inkscape:current-layer="svg2" />
  <path
     d="m 7.9985,0.002 c -2.3634379,0 -4.2661333,1.9026955 -4.2661333,4.2661333 v 0.943882 L 4.7989,6.2785487 V 4.2681333 c 0,-1.7725784 1.4270216,-3.1996 3.1996,-3.1996 1.7725784,0 3.1996,1.4270216 3.1996,3.1996 V 6.4012 H 4.9215513 l 1.0665334,1.0665333 h 6.2765483 c 0.59086,0 1.066534,0.4756739 1.066534,1.0665334 v 5.3326663 a 1.0494688,1.0494688 0 0 1 -0.262368,0.681515 l 0.762572,0.761505 C 14.181194,14.930267 14.3977,14.425797 14.3977,13.866933 V 8.5342667 C 14.3977,7.3525477 13.446352,6.4012 12.264633,6.4012 V 4.2681333 C 12.264633,1.9046955 10.361938,0.002 7.9985,0.002 Z M 3.135108,6.497188 A 2.1202683,2.1202683 0 0 0 1.5993,8.5342667 V 13.866933 C 1.5993,15.048652 2.5506477,16 3.7323667,16 h 8.5322663 c 0.116252,0 0.228238,-0.016 0.339158,-0.03306 L 11.571387,14.93347 H 3.7323667 c -0.5908595,0 -1.0665334,-0.475674 -1.0665334,-1.066534 V 8.5342667 c 0,-0.5908595 0.4756739,-1.0665334 1.0665334,-1.0665334 h 0.3732866 z"
     fill="#363636"
     id="path1"
     style="stroke-width:1.06653" />
  <rect
     style="fill:#c6262e;stroke-width:3.81924;stroke-linecap:round;stroke-linejoin:bevel;fill-opacity:1"
     id="rect2"
     width="1.0665333"
     height="15.688829"
     x="-2.234818"
     y="4.995965"
     ry="0.4999066"
     transform="rotate(-45)" />
</svg>
