<?xml version="1.0" encoding="UTF-8"?>
<svg id="svg1" width="16" height="16" version="1.1" xmlns="http://www.w3.org/2000/svg">
 <path id="path1" d="m8 0c-2.3637 0-4.2667 1.9029-4.2667 4.2667h1.0667c0-1.7728 1.4272-3.2 3.2-3.2s3.2 1.4272 3.2 3.2v2.1333h-7.4667c-1.1819 0-2.1333 0.95147-2.1333 2.1333v5.3333c0 1.1819 0.95147 2.1333 2.1333 2.1333h8.5333c1.1819 0 2.1333-0.95147 2.1333-2.1333v-5.3333c0-1.1819-0.95147-2.1333-2.1333-2.1333v-2.1333c0-2.3637-1.9029-4.2667-4.2667-4.2667zm-4.2667 7.4667h8.5333c0.59093 0 1.0667 0.47573 1.0667 1.0667v5.3333c0 0.59093-0.47573 1.0667-1.0667 1.0667h-8.5333c-0.59093 0-1.0667-0.47573-1.0667-1.0667v-5.3333c0-0.59093 0.47573-1.0667 1.0667-1.0667z" fill="#363636" stroke-width="1.0667"/>
</svg>
