<?xml version="1.0" encoding="UTF-8" standalone="no"?>
<svg
   width="16"
   height="16"
   version="1.1"
   id="svg7"
   sodipodi:docname="network-wired-no-route-symbolic.svg"
   inkscape:version="1.3.2 (091e20ef0f, 2023-11-25)"
   xmlns:inkscape="http://www.inkscape.org/namespaces/inkscape"
   xmlns:sodipodi="http://sodipodi.sourceforge.net/DTD/sodipodi-0.dtd"
   xmlns="http://www.w3.org/2000/svg"
   xmlns:svg="http://www.w3.org/2000/svg">
  <defs
     id="defs7" />
  <sodipodi:namedview
     id="namedview7"
     pagecolor="#ffffff"
     bordercolor="#111111"
     borderopacity="1"
     inkscape:showpageshadow="0"
     inkscape:pageopacity="0"
     inkscape:pagecheckerboard="1"
     inkscape:deskcolor="#d1d1d1"
     inkscape:zoom="35.487922"
     inkscape:cx="8.8199023"
     inkscape:cy="9.7075282"
     inkscape:window-width="1920"
     inkscape:window-height="1011"
     inkscape:window-x="0"
     inkscape:window-y="0"
     inkscape:window-maximized="1"
     inkscape:current-layer="svg7" />
  <g
     transform="translate(0,2)"
     fill="#363636"
     stroke-width="1.5"
     id="g7"
     style="display:none">
    <g
       transform="matrix(0.43738,0,0,0.5,-145.4,-266.68)"
       id="g3">
      <g
         transform="matrix(0,-1.0825,-1.0825,0,1464.7,557.15)"
         fill="#363636"
         stroke-width="1.5"
         id="g2">
        <g
           transform="matrix(1.1827e-4,0.032712,-0.032712,1.1827e-4,18.269,1034.4)"
           fill="#363636"
           stroke-width="1.5"
           id="g1">
          <path
             d="M 345.44,248.29 151.15,442.57 c -12.359,12.365 -32.397,12.365 -44.75,0 -12.354,-12.354 -12.354,-32.391 0,-44.744 L 278.31,225.916 106.4,54.016 c -12.354,-12.359 -12.354,-32.394 0,-44.748 12.354,-12.359 32.391,-12.359 44.75,0 l 194.29,194.28 c 6.177,6.18 9.262,14.271 9.262,22.366 0,8.099 -3.091,16.196 -9.267,22.373 z"
             fill="#363636"
             stroke-width="1.5"
             id="path1" />
        </g>
      </g>
    </g>
    <g
       transform="matrix(-0.43738,0,0,-0.5,161.4,278.68)"
       id="g6">
      <g
         transform="matrix(0,-1.0825,-1.0825,0,1464.7,557.15)"
         fill="#363636"
         stroke-width="1.5"
         id="g5">
        <g
           transform="matrix(1.1827e-4,0.032712,-0.032712,1.1827e-4,18.269,1034.4)"
           fill="#363636"
           stroke-width="1.5"
           id="g4">
          <path
             d="M 345.44,248.29 151.15,442.57 c -12.359,12.365 -32.397,12.365 -44.75,0 -12.354,-12.354 -12.354,-32.391 0,-44.744 L 278.31,225.916 106.4,54.016 c -12.354,-12.359 -12.354,-32.394 0,-44.748 12.354,-12.359 32.391,-12.359 44.75,0 l 194.29,194.28 c 6.177,6.18 9.262,14.271 9.262,22.366 0,8.099 -3.091,16.196 -9.267,22.373 z"
             fill="#363636"
             stroke-width="1.5"
             id="path3" />
        </g>
      </g>
    </g>
  </g>
  <path
     d="m 7.99483,6.0793827 c 0.65763,0 1.1922,0.19569 1.6041,0.58594 0.41192,0.38302 0.61719,0.87414 0.61719,1.474 0,0.26016 -0.06843,0.52428 -0.20573,0.79167 -0.13731,0.26739 -0.25879,0.4573 -0.36719,0.57292 -0.10117,0.1084 -0.247,0.25104 -0.4349,0.42448 L 9.15622,9.9830807 C 8.71539,10.380551 8.49475,10.775711 8.49475,11.173181 v 0.4349 h -1.0208 v -0.51042 c 0,-0.3252 0.068422,-0.60208 0.20573,-0.83334 0.13731,-0.23848 0.37968,-0.5179603 0.72656,-0.8359403 0.19512,-0.18067 0.33196,-0.31432 0.41146,-0.40104 0.08672,-0.093949 0.17051,-0.21861 0.25,-0.3776 0.086721,-0.16621 0.13021,-0.33698 0.13021,-0.51042 0,-0.33243 -0.10872,-0.59974 -0.32552,-0.80209 -0.20957,-0.20235 -0.50182,-0.3047 -0.87761,-0.3047 -0.6215,0 -1.0474,0.3479 -1.2786,1.0417 l -0.9323,-0.39063 c 0.15176,-0.41192 0.41268,-0.78158 0.78126,-1.1068 0.37579,-0.33243 0.85155,-0.4974 1.4297,-0.4974 z m -0.0104,6.5260003 c 0.20957,0 0.38352,0.07161 0.52083,0.21615 0.14453,0.14454 0.21615,0.31848 0.21615,0.52083 0,0.20235 -0.071614,0.3763 -0.21615,0.52083 -0.13731,0.14453 -0.31127,0.21615 -0.52084,0.21615 -0.20957,0 -0.38672,-0.07161 -0.53126,-0.21615 -0.13731,-0.14454 -0.20573,-0.31848 -0.20573,-0.52083 0,-0.20235 0.068422,-0.3763 0.20573,-0.52083 0.14453,-0.14453 0.32168,-0.21615 0.53126,-0.21615 z"
     enable-background="new"
     fill="#363636"
     id="path7"
     style="display:inline" />
  <path
     id="path1-3"
     d="M 6.5 1 C 5.9460006 1 5.5 1.4460006 5.5 2 L 5.5 5 C 5.5 5.5539994 5.9460006 6 6.5 6 L 6.5859375 6 A 2.7672977 2.9033663 0 0 1 8 5.5859375 A 2.7672977 2.9033663 0 0 1 9.421875 6 L 9.5 6 C 10.053999 6 10.5 5.5539994 10.5 5 L 10.5 2 C 10.5 1.4460006 10.053999 1 9.5 1 L 6.5 1 z M 6.5 2 L 9.5 2 L 9.5 5 L 8.5 5 L 7.5 5 L 6.5 5 L 6.5 2 z M 5 7 C 3.8920011 7 3 7.8920011 3 9 L 3 10 L 2 10 C 1.4460006 10 1 10.446001 1 11 L 1 14 C 1 14.553999 1.4460006 15 2 15 L 5 15 C 5.5539994 15 6 14.553999 6 14 L 6 11 C 6 10.446001 5.5539994 10 5 10 L 4 10 L 4 9 C 4 8.4460006 4.4460006 8 5 8 L 5.2773438 8 A 2.7672977 2.9033663 0 0 1 5.6308594 7 L 5 7 z M 10.375 7 A 2.7672977 2.9033663 0 0 1 10.728516 8 L 11 8 C 11.553999 8 12 8.4460006 12 9 L 12 10 L 11 10 C 10.446001 10 10 10.446001 10 11 L 10 14 C 10 14.553999 10.446001 15 11 15 L 14 15 C 14.553999 15 15 14.553999 15 14 L 15 11 C 15 10.446001 14.553999 10 14 10 L 13 10 L 13 9 C 13 7.8920011 12.107999 7 11 7 L 10.375 7 z M 2 11 L 5 11 L 5 14 L 2 14 L 2 11 z M 11 11 L 14 11 L 14 14 L 11 14 L 11 11 z "
     style="fill:#363636;fill-opacity:1" />
</svg>
