<?xml version="1.0" encoding="UTF-8" standalone="no"?>
<svg
   width="16"
   height="16"
   version="1.1"
   id="svg7"
   sodipodi:docname="network-wired-offline-symbolic.svg"
   inkscape:version="1.3.2 (091e20ef0f, 2023-11-25)"
   xmlns:inkscape="http://www.inkscape.org/namespaces/inkscape"
   xmlns:sodipodi="http://sodipodi.sourceforge.net/DTD/sodipodi-0.dtd"
   xmlns="http://www.w3.org/2000/svg"
   xmlns:svg="http://www.w3.org/2000/svg">
  <defs
     id="defs7" />
  <sodipodi:namedview
     id="namedview7"
     pagecolor="#ffffff"
     bordercolor="#111111"
     borderopacity="1"
     inkscape:showpageshadow="0"
     inkscape:pageopacity="0"
     inkscape:pagecheckerboard="1"
     inkscape:deskcolor="#d1d1d1"
     inkscape:zoom="50.1875"
     inkscape:cx="8"
     inkscape:cy="8"
     inkscape:window-width="1920"
     inkscape:window-height="1011"
     inkscape:window-x="0"
     inkscape:window-y="0"
     inkscape:window-maximized="1"
     inkscape:current-layer="svg7" />
  <g
     transform="translate(0,2)"
     fill="#363636"
     stroke-width="1.5"
     id="g7"
     style="display:none">
    <g
       transform="matrix(0.43738,0,0,0.5,-145.4,-266.68)"
       id="g3">
      <g
         transform="matrix(0,-1.0825,-1.0825,0,1464.7,557.15)"
         fill="#363636"
         stroke-width="1.5"
         id="g2">
        <g
           transform="matrix(1.1827e-4,0.032712,-0.032712,1.1827e-4,18.269,1034.4)"
           fill="#363636"
           stroke-width="1.5"
           id="g1">
          <path
             d="M 345.44,248.29 151.15,442.57 c -12.359,12.365 -32.397,12.365 -44.75,0 -12.354,-12.354 -12.354,-32.391 0,-44.744 L 278.31,225.916 106.4,54.016 c -12.354,-12.359 -12.354,-32.394 0,-44.748 12.354,-12.359 32.391,-12.359 44.75,0 l 194.29,194.28 c 6.177,6.18 9.262,14.271 9.262,22.366 0,8.099 -3.091,16.196 -9.267,22.373 z"
             fill="#363636"
             stroke-width="1.5"
             id="path1" />
        </g>
      </g>
    </g>
    <g
       transform="matrix(-0.43738,0,0,-0.5,161.4,278.68)"
       id="g6">
      <g
         transform="matrix(0,-1.0825,-1.0825,0,1464.7,557.15)"
         fill="#363636"
         stroke-width="1.5"
         id="g5">
        <g
           transform="matrix(1.1827e-4,0.032712,-0.032712,1.1827e-4,18.269,1034.4)"
           fill="#363636"
           stroke-width="1.5"
           id="g4">
          <path
             d="M 345.44,248.29 151.15,442.57 c -12.359,12.365 -32.397,12.365 -44.75,0 -12.354,-12.354 -12.354,-32.391 0,-44.744 L 278.31,225.916 106.4,54.016 c -12.354,-12.359 -12.354,-32.394 0,-44.748 12.354,-12.359 32.391,-12.359 44.75,0 l 194.29,194.28 c 6.177,6.18 9.262,14.271 9.262,22.366 0,8.099 -3.091,16.196 -9.267,22.373 z"
             fill="#363636"
             stroke-width="1.5"
             id="path3" />
        </g>
      </g>
    </g>
  </g>
  <path
     d="m 12.5,16 c -1.929106,0 -3.49295,-1.563844 -3.49295,-3.49295 0,-1.929106 1.563844,-3.4929493 3.49295,-3.4929493 1.929106,0 3.49295,1.5638433 3.49295,3.4929493 C 15.99295,14.436156 14.429106,16 12.5,16 Z m -1.411252,-1.582706 c 0.127551,0 0.255066,-0.04846 0.352808,-0.146184 l 1.058364,-1.058365 1.058364,1.058365 c 0.195476,0.195475 0.51013,0.195475 0.705607,0 0.195473,-0.195475 0.195473,-0.510131 0,-0.705606 l -1.058365,-1.058363 1.058365,-1.058365 c 0.195473,-0.195475 0.195473,-0.510131 0,-0.705606 -0.195477,-0.195475 -0.510131,-0.195475 -0.705607,0 L 12.49992,11.801534 11.441556,10.74317 c -0.195475,-0.195475 -0.51013,-0.195475 -0.705605,0 -0.195477,0.195475 -0.195477,0.510131 0,0.705606 l 1.058364,1.058365 -1.058364,1.058363 c -0.195477,0.195475 -0.195477,0.510131 0,0.705606 0.09773,0.09773 0.225256,0.146184 0.352807,0.146184 z"
     fill="#363636"
     id="path7"
     style="display:inline;stroke-width:0.997986" />
  <path
     id="path1-3"
     d="M 6.5 1 C 5.9460006 1 5.5 1.4460006 5.5 2 L 5.5 5 C 5.5 5.5539994 5.9460006 6 6.5 6 L 7.5 6 L 7.5 7 L 5 7 C 3.8920011 7 3 7.8920011 3 9 L 3 10 L 2 10 C 1.4460006 10 1 10.446001 1 11 L 1 14 C 1 14.553999 1.4460006 15 2 15 L 5 15 C 5.5539994 15 6 14.553999 6 14 L 6 11 C 6 10.446001 5.5539994 10 5 10 L 4 10 L 4 9 C 4 8.4460006 4.4460006 8 5 8 L 11 8 C 11.553999 8 12 8.4460006 12 9 L 12 10 L 13 10 L 13 9 C 13 7.8920011 12.107999 7 11 7 L 8.5 7 L 8.5 6 L 9.5 6 C 10.053999 6 10.5 5.5539994 10.5 5 L 10.5 2 C 10.5 1.4460006 10.053999 1 9.5 1 L 6.5 1 z M 6.5 2 L 9.5 2 L 9.5 5 L 8.5 5 L 7.5 5 L 6.5 5 L 6.5 2 z M 2 11 L 5 11 L 5 14 L 2 14 L 2 11 z "
     style="fill:#363636;fill-opacity:1" />
</svg>
