<?xml version="1.0" encoding="UTF-8"?>
<svg id="svg7" width="16" height="16" version="1.1" xmlns="http://www.w3.org/2000/svg">
 <g id="g7" transform="translate(0,2)" display="none" fill="#363636" stroke-width="1.5">
  <g id="g3" transform="matrix(.43738 0 0 .5 -145.4 -266.68)">
   <g id="g2" transform="matrix(0,-1.0825,-1.0825,0,1464.7,557.15)" fill="#363636" stroke-width="1.5">
    <g id="g1" transform="matrix(.00011827 .032712 -.032712 .00011827 18.269 1034.4)" fill="#363636" stroke-width="1.5">
     <path id="path1" d="m345.44 248.29-194.29 194.28c-12.359 12.365-32.397 12.365-44.75 0-12.354-12.354-12.354-32.391 0-44.744l171.91-171.91-171.91-171.9c-12.354-12.359-12.354-32.394 0-44.748 12.354-12.359 32.391-12.359 44.75 0l194.29 194.28c6.177 6.18 9.262 14.271 9.262 22.366 0 8.099-3.091 16.196-9.267 22.373z" fill="#363636" stroke-width="1.5"/>
    </g>
   </g>
  </g>
  <g id="g6" transform="matrix(-.43738 0 0 -.5 161.4 278.68)">
   <g id="g5" transform="matrix(0,-1.0825,-1.0825,0,1464.7,557.15)" fill="#363636" stroke-width="1.5">
    <g id="g4" transform="matrix(.00011827 .032712 -.032712 .00011827 18.269 1034.4)" fill="#363636" stroke-width="1.5">
     <path id="path3" d="m345.44 248.29-194.29 194.28c-12.359 12.365-32.397 12.365-44.75 0-12.354-12.354-12.354-32.391 0-44.744l171.91-171.91-171.91-171.9c-12.354-12.359-12.354-32.394 0-44.748 12.354-12.359 32.391-12.359 44.75 0l194.29 194.28c6.177 6.18 9.262 14.271 9.262 22.366 0 8.099-3.091 16.196-9.267 22.373z" fill="#363636" stroke-width="1.5"/>
    </g>
   </g>
  </g>
 </g>
 <path id="path7" d="m12.034 16c-2.1903 0-3.9659-1.7756-3.9659-3.9659 0-2.1903 1.7756-3.9659 3.9659-3.9659s3.9659 1.7756 3.9659 3.9659c0 2.1903-1.7756 3.9659-3.9659 3.9659zm-1.6023-1.797c0.14482 0 0.2896-0.05502 0.40058-0.16598l1.2017-1.2017 1.2017 1.2017c0.22194 0.22194 0.5792 0.22194 0.80115 0 0.22194-0.22194 0.22194-0.5792 0-0.80114l-1.2017-1.2017 1.2017-1.2017c0.22194-0.22194 0.22194-0.5792 0-0.80115-0.22194-0.22194-0.5792-0.22194-0.80115 0l-1.2017 1.2017-1.2017-1.2017c-0.22194-0.22194-0.5792-0.22194-0.80114 0-0.22194 0.22194-0.22194 0.5792 0 0.80114l1.2017 1.2017-1.2017 1.2017c-0.22194 0.22194-0.22194 0.5792 0 0.80114 0.11096 0.11096 0.25576 0.16598 0.40058 0.16598z" fill="#363636" stroke-width="1.1331"/>
 <path id="path1-3" d="m6.2441 0.052734c-0.62901 0-1.1348 0.50576-1.1348 1.1348v3.4062c0 0.62901 0.50576 1.1348 1.1348 1.1348h1.1367v1.1367h-2.8398c-1.258 0-2.2695 1.0115-2.2695 2.2695v1.1367h-1.1367c-0.62901 0-1.1348 0.50576-1.1348 1.1348v3.4062c0 0.62901 0.50576 1.1348 1.1348 1.1348h3.4062c0.62901 0 1.1367-0.50576 1.1367-1.1348v-3.4062c0-0.62901-0.50771-1.1348-1.1367-1.1348h-1.1348v-1.1367c0-0.62901 0.50576-1.1348 1.1348-1.1348h5.1855c0.68005-0.38976 1.4666-0.61328 2.3066-0.61328 0.29482 0 0.5837 0.0276 0.86328 0.080078-0.40453-0.37369-0.9463-0.60156-1.543-0.60156h-2.8379v-1.1367h1.1348c0.62901 0 1.1367-0.50576 1.1367-1.1348v-3.4062c0-0.62901-0.50771-1.1348-1.1367-1.1348h-3.4062zm0 1.1348h3.4062v3.4062h-1.1348-1.1348-1.1367v-3.4062zm7.3809 9.0469-0.035156 0.037109h0.035156v-0.037109zm-12.49 1.1719h3.4062v3.4062h-3.4062v-3.4062z" fill="#363636" opacity=".35" stroke-width="1.1354"/>
</svg>
