<?xml version="1.0" encoding="UTF-8" standalone="no"?>
<svg
   width="16"
   height="16"
   version="1.1"
   id="svg7"
   sodipodi:docname="network-wired-offline-symbolic.svg"
   inkscape:version="1.3.2 (091e20ef0f, 2023-11-25)"
   xmlns:inkscape="http://www.inkscape.org/namespaces/inkscape"
   xmlns:sodipodi="http://sodipodi.sourceforge.net/DTD/sodipodi-0.dtd"
   xmlns="http://www.w3.org/2000/svg"
   xmlns:svg="http://www.w3.org/2000/svg">
  <defs
     id="defs7" />
  <sodipodi:namedview
     id="namedview7"
     pagecolor="#ffffff"
     bordercolor="#111111"
     borderopacity="1"
     inkscape:showpageshadow="0"
     inkscape:pageopacity="0"
     inkscape:pagecheckerboard="1"
     inkscape:deskcolor="#d1d1d1"
     inkscape:zoom="25.09375"
     inkscape:cx="14.684931"
     inkscape:cy="8.1494396"
     inkscape:window-width="1920"
     inkscape:window-height="1011"
     inkscape:window-x="0"
     inkscape:window-y="0"
     inkscape:window-maximized="1"
     inkscape:current-layer="svg7" />
  <g
     transform="translate(0,2)"
     fill="#363636"
     stroke-width="1.5"
     id="g7"
     style="display:none">
    <g
       transform="matrix(0.43738,0,0,0.5,-145.4,-266.68)"
       id="g3">
      <g
         transform="matrix(0,-1.0825,-1.0825,0,1464.7,557.15)"
         fill="#363636"
         stroke-width="1.5"
         id="g2">
        <g
           transform="matrix(1.1827e-4,0.032712,-0.032712,1.1827e-4,18.269,1034.4)"
           fill="#363636"
           stroke-width="1.5"
           id="g1">
          <path
             d="M 345.44,248.29 151.15,442.57 c -12.359,12.365 -32.397,12.365 -44.75,0 -12.354,-12.354 -12.354,-32.391 0,-44.744 L 278.31,225.916 106.4,54.016 c -12.354,-12.359 -12.354,-32.394 0,-44.748 12.354,-12.359 32.391,-12.359 44.75,0 l 194.29,194.28 c 6.177,6.18 9.262,14.271 9.262,22.366 0,8.099 -3.091,16.196 -9.267,22.373 z"
             fill="#363636"
             stroke-width="1.5"
             id="path1" />
        </g>
      </g>
    </g>
    <g
       transform="matrix(-0.43738,0,0,-0.5,161.4,278.68)"
       id="g6">
      <g
         transform="matrix(0,-1.0825,-1.0825,0,1464.7,557.15)"
         fill="#363636"
         stroke-width="1.5"
         id="g5">
        <g
           transform="matrix(1.1827e-4,0.032712,-0.032712,1.1827e-4,18.269,1034.4)"
           fill="#363636"
           stroke-width="1.5"
           id="g4">
          <path
             d="M 345.44,248.29 151.15,442.57 c -12.359,12.365 -32.397,12.365 -44.75,0 -12.354,-12.354 -12.354,-32.391 0,-44.744 L 278.31,225.916 106.4,54.016 c -12.354,-12.359 -12.354,-32.394 0,-44.748 12.354,-12.359 32.391,-12.359 44.75,0 l 194.29,194.28 c 6.177,6.18 9.262,14.271 9.262,22.366 0,8.099 -3.091,16.196 -9.267,22.373 z"
             fill="#363636"
             stroke-width="1.5"
             id="path3" />
        </g>
      </g>
    </g>
  </g>
  <path
     d="m 12.034102,16 c -2.190308,0 -3.965898,-1.77559 -3.965898,-3.965898 0,-2.1903082 1.77559,-3.9658971 3.965898,-3.9658971 C 14.22441,8.0682049 16,9.8437938 16,12.034102 16,14.22441 14.22441,16 12.034102,16 Z m -1.602336,-1.797005 c 0.144821,0 0.289602,-0.05502 0.400578,-0.165978 l 1.201667,-1.201668 1.201667,1.201668 c 0.221944,0.221943 0.579202,0.221943 0.801147,0 0.22194,-0.221942 0.22194,-0.579203 0,-0.801145 l -1.201668,-1.201667 1.201668,-1.201668 c 0.22194,-0.221942 0.22194,-0.579203 0,-0.801146 -0.221945,-0.221942 -0.579203,-0.221942 -0.801147,0 l -1.201667,1.201668 -1.201667,-1.201667 c -0.221942,-0.221943 -0.579202,-0.221943 -0.801144,0 -0.221945,0.221942 -0.221945,0.579203 0,0.801145 l 1.201667,1.201668 -1.201667,1.201667 c -0.221945,0.221942 -0.221945,0.579203 0,0.801145 0.110962,0.110963 0.255755,0.165978 0.400577,0.165978 z"
     fill="#363636"
     id="path7"
     style="display:inline;stroke-width:1.13311" />
  <path
     id="path1-3"
     style="opacity:0.35;fill:#363636;fill-opacity:1;stroke-width:1.1354"
     d="M 6.2441406 0.052734375 C 5.6151306 0.052734375 5.109375 0.55848996 5.109375 1.1875 L 5.109375 4.59375 C 5.109375 5.2227601 5.6151306 5.7285156 6.2441406 5.7285156 L 7.3808594 5.7285156 L 7.3808594 6.8652344 L 4.5410156 6.8652344 C 3.2829954 6.8652344 2.2714844 7.8767454 2.2714844 9.1347656 L 2.2714844 10.271484 L 1.1347656 10.271484 C 0.50575563 10.271484 0 10.777241 0 11.40625 L 0 14.8125 C 0 15.441509 0.50575563 15.947266 1.1347656 15.947266 L 4.5410156 15.947266 C 5.1700256 15.947266 5.6777344 15.441509 5.6777344 14.8125 L 5.6777344 11.40625 C 5.6777344 10.777241 5.1700256 10.271484 4.5410156 10.271484 L 3.40625 10.271484 L 3.40625 9.1347656 C 3.40625 8.5057557 3.9120056 8 4.5410156 8 L 9.7265625 8 C 10.40661 7.6102361 11.193186 7.3867188 12.033203 7.3867188 C 12.328022 7.3867188 12.616903 7.4143189 12.896484 7.4667969 C 12.491958 7.0931032 11.950183 6.8652344 11.353516 6.8652344 L 8.515625 6.8652344 L 8.515625 5.7285156 L 9.6503906 5.7285156 C 10.2794 5.7285156 10.787109 5.2227601 10.787109 4.59375 L 10.787109 1.1875 C 10.787109 0.55848996 10.2794 0.052734375 9.6503906 0.052734375 L 6.2441406 0.052734375 z M 6.2441406 1.1875 L 9.6503906 1.1875 L 9.6503906 4.59375 L 8.515625 4.59375 L 7.3808594 4.59375 L 6.2441406 4.59375 L 6.2441406 1.1875 z M 13.625 10.234375 L 13.589844 10.271484 L 13.625 10.271484 L 13.625 10.234375 z M 1.1347656 11.40625 L 4.5410156 11.40625 L 4.5410156 14.8125 L 1.1347656 14.8125 L 1.1347656 11.40625 z " />
</svg>
