<?xml version="1.0" encoding="UTF-8"?>
<svg id="svg7" width="16" height="16" version="1.1" xmlns="http://www.w3.org/2000/svg">
 <g id="g7" transform="translate(0,2)" display="none" fill="#363636" stroke-width="1.5">
  <g id="g3" transform="matrix(.43738 0 0 .5 -145.4 -266.68)">
   <g id="g2" transform="matrix(0,-1.0825,-1.0825,0,1464.7,557.15)" fill="#363636" stroke-width="1.5">
    <g id="g1" transform="matrix(.00011827 .032712 -.032712 .00011827 18.269 1034.4)" fill="#363636" stroke-width="1.5">
     <path id="path1" d="m345.44 248.29-194.29 194.28c-12.359 12.365-32.397 12.365-44.75 0-12.354-12.354-12.354-32.391 0-44.744l171.91-171.91-171.91-171.9c-12.354-12.359-12.354-32.394 0-44.748 12.354-12.359 32.391-12.359 44.75 0l194.29 194.28c6.177 6.18 9.262 14.271 9.262 22.366 0 8.099-3.091 16.196-9.267 22.373z" fill="#363636" stroke-width="1.5"/>
    </g>
   </g>
  </g>
  <g id="g6" transform="matrix(-.43738 0 0 -.5 161.4 278.68)">
   <g id="g5" transform="matrix(0,-1.0825,-1.0825,0,1464.7,557.15)" fill="#363636" stroke-width="1.5">
    <g id="g4" transform="matrix(.00011827 .032712 -.032712 .00011827 18.269 1034.4)" fill="#363636" stroke-width="1.5">
     <path id="path3" d="m345.44 248.29-194.29 194.28c-12.359 12.365-32.397 12.365-44.75 0-12.354-12.354-12.354-32.391 0-44.744l171.91-171.91-171.91-171.9c-12.354-12.359-12.354-32.394 0-44.748 12.354-12.359 32.391-12.359 44.75 0l194.29 194.28c6.177 6.18 9.262 14.271 9.262 22.366 0 8.099-3.091 16.196-9.267 22.373z" fill="#363636" stroke-width="1.5"/>
    </g>
   </g>
  </g>
 </g>
 <path id="path7" d="m7.9937 5.7346c0.79937 0 1.4492 0.23787 1.9498 0.71223 0.5007 0.46557 0.75022 1.0625 0.75022 1.7917 0 0.31623-0.08318 0.63728-0.25007 0.9623-0.1669 0.32502-0.31457 0.55586-0.44633 0.6964-0.12298 0.13176-0.30024 0.30515-0.52863 0.51597l-0.063305 0.06648c-0.53584 0.48313-0.80404 0.96346-0.80404 1.4466v0.52864h-1.2408v-0.62043c0-0.39529 0.08317-0.73185 0.25007-1.013 0.1669-0.28988 0.46151-0.6296 0.88316-1.0161 0.23717-0.21961 0.40351-0.38207 0.50014-0.48748 0.10541-0.1142 0.20726-0.26573 0.30388-0.45899 0.10541-0.20203 0.15827-0.40961 0.15827-0.62043 0-0.40408-0.13215-0.729-0.39568-0.97497-0.25474-0.24596-0.60998-0.37037-1.0668-0.37037-0.75545 0-1.2731 0.42288-1.5542 1.2662l-1.1332-0.47482c0.18447-0.5007 0.50163-0.95004 0.94965-1.3454 0.45679-0.40408 1.0351-0.60461 1.7378-0.60461zm-0.012642 7.9326c0.25474 0 0.46618 0.08704 0.63309 0.26274 0.17568 0.17569 0.26274 0.38712 0.26274 0.63309s-0.08705 0.4574-0.26274 0.63309c-0.1669 0.17568-0.37836 0.26274-0.6331 0.26274s-0.47007-0.08704-0.64576-0.26274c-0.1669-0.17569-0.25007-0.38712-0.25007-0.63309s0.08317-0.4574 0.25007-0.63309c0.17568-0.17568 0.39101-0.26274 0.64576-0.26274z" enable-background="new" fill="#363636" stroke-width="1.2155"/>
 <path id="path1-3" d="m6.2857 0c-0.63314 0-1.1429 0.50971-1.1429 1.1429v3.4286c0 0.63314 0.50972 1.1429 1.1429 1.1429h0.098214a3.1626 3.3181 0 0 1 1.6161-0.47321 3.1626 3.3181 0 0 1 1.625 0.47321h0.089286c0.63314 0 1.1429-0.50972 1.1429-1.1429v-3.4286c0-0.63314-0.50972-1.1429-1.1429-1.1429zm0 1.1429h3.4286v3.4286h-3.4286zm-1.7143 5.7143c-1.2663 0-2.2857 1.0194-2.2857 2.2857v1.1429h-1.1429c-0.63314 0-1.1429 0.50972-1.1429 1.1429v3.4286c0 0.63314 0.50971 1.1429 1.1429 1.1429h3.4286c0.63314 0 1.1429-0.50972 1.1429-1.1429v-3.4286c0-0.63314-0.50972-1.1429-1.1429-1.1429h-1.1429v-1.1429c0-0.63314 0.50972-1.1429 1.1429-1.1429h0.31696a3.1626 3.3181 0 0 1 0.40402-1.1429zm6.1429 0a3.1626 3.3181 0 0 1 0.40402 1.1429h0.31027c0.63314 0 1.1429 0.50972 1.1429 1.1429v1.1429h-1.1429c-0.63314 0-1.1429 0.50972-1.1429 1.1429v3.4286c0 0.63314 0.50972 1.1429 1.1429 1.1429h3.4286c0.63314 0 1.1429-0.50972 1.1429-1.1429v-3.4286c0-0.63314-0.50972-1.1429-1.1429-1.1429h-1.1429v-1.1429c0-1.2663-1.0194-2.2857-2.2857-2.2857zm-9.5714 4.5714h3.4286v3.4286h-3.4286zm10.286 0h3.4286v3.4286h-3.4286z" fill="#363636" opacity=".35" stroke-width="1.1429"/>
</svg>
