<?xml version="1.0" encoding="UTF-8" standalone="no"?>
<svg
   width="16"
   height="16"
   version="1.1"
   id="svg8"
   sodipodi:docname="network-wired-acquiring-symbolic.svg"
   inkscape:version="1.3.2 (091e20ef0f, 2023-11-25)"
   xmlns:inkscape="http://www.inkscape.org/namespaces/inkscape"
   xmlns:sodipodi="http://sodipodi.sourceforge.net/DTD/sodipodi-0.dtd"
   xmlns="http://www.w3.org/2000/svg"
   xmlns:svg="http://www.w3.org/2000/svg">
  <defs
     id="defs8" />
  <sodipodi:namedview
     id="namedview8"
     pagecolor="#ffffff"
     bordercolor="#111111"
     borderopacity="1"
     inkscape:showpageshadow="0"
     inkscape:pageopacity="0"
     inkscape:pagecheckerboard="1"
     inkscape:deskcolor="#d1d1d1"
     inkscape:zoom="50.1875"
     inkscape:cx="8"
     inkscape:cy="8"
     inkscape:window-width="1920"
     inkscape:window-height="1011"
     inkscape:window-x="0"
     inkscape:window-y="0"
     inkscape:window-maximized="1"
     inkscape:current-layer="svg8" />
  <path
     d="M 5,7 A 1,1 0 1 0 5,9 1,1 0 0 0 5,7 Z M 8,7 A 1,1 0 1 0 8,9 1,1 0 0 0 8,7 Z m 3,0 a 1,1 0 1 0 0,2 1,1 0 0 0 0,-2 z"
     fill="#363636"
     id="path1"
     style="display:inline" />
  <g
     transform="translate(0,2)"
     fill="#363636"
     stroke-width="1.5"
     id="g8"
     style="display:none">
    <g
       transform="matrix(0.43738,0,0,0.5,-145.4,-266.68)"
       id="g4">
      <g
         transform="matrix(0,-1.0825,-1.0825,0,1464.7,557.15)"
         fill="#363636"
         stroke-width="1.5"
         id="g3">
        <g
           transform="matrix(1.1827e-4,0.032712,-0.032712,1.1827e-4,18.269,1034.4)"
           fill="#363636"
           stroke-width="1.5"
           id="g2">
          <path
             d="M 345.44,248.29 151.15,442.57 c -12.359,12.365 -32.397,12.365 -44.75,0 -12.354,-12.354 -12.354,-32.391 0,-44.744 L 278.31,225.916 106.4,54.016 c -12.354,-12.359 -12.354,-32.394 0,-44.748 12.354,-12.359 32.391,-12.359 44.75,0 l 194.29,194.28 c 6.177,6.18 9.262,14.271 9.262,22.366 0,8.099 -3.091,16.196 -9.267,22.373 z"
             fill="#363636"
             stroke-width="1.5"
             id="path2" />
        </g>
      </g>
    </g>
    <g
       transform="matrix(-0.43738,0,0,-0.5,161.4,278.68)"
       id="g7">
      <g
         transform="matrix(0,-1.0825,-1.0825,0,1464.7,557.15)"
         fill="#363636"
         stroke-width="1.5"
         id="g6">
        <g
           transform="matrix(1.1827e-4,0.032712,-0.032712,1.1827e-4,18.269,1034.4)"
           fill="#363636"
           stroke-width="1.5"
           id="g5">
          <path
             d="M 345.44,248.29 151.15,442.57 c -12.359,12.365 -32.397,12.365 -44.75,0 -12.354,-12.354 -12.354,-32.391 0,-44.744 L 278.31,225.916 106.4,54.016 c -12.354,-12.359 -12.354,-32.394 0,-44.748 12.354,-12.359 32.391,-12.359 44.75,0 l 194.29,194.28 c 6.177,6.18 9.262,14.271 9.262,22.366 0,8.099 -3.091,16.196 -9.267,22.373 z"
             fill="#363636"
             stroke-width="1.5"
             id="path4" />
        </g>
      </g>
    </g>
  </g>
  <path
     id="path1-3"
     d="M 6.5 1 C 5.9460006 1 5.5 1.4460006 5.5 2 L 5.5 5 C 5.5 5.5539994 5.9460006 6 6.5 6 L 7.5 6 L 8.5 6 L 9.5 6 C 10.053999 6 10.5 5.5539994 10.5 5 L 10.5 2 C 10.5 1.4460006 10.053999 1 9.5 1 L 6.5 1 z M 6.5 2 L 9.5 2 L 9.5 5 L 8.5 5 L 7.5 5 L 6.5 5 L 6.5 2 z M 2 10 C 1.4460006 10 1 10.446001 1 11 L 1 14 C 1 14.553999 1.4460006 15 2 15 L 5 15 C 5.5539994 15 6 14.553999 6 14 L 6 11 C 6 10.446001 5.5539994 10 5 10 L 4 10 L 3 10 L 2 10 z M 11 10 C 10.446001 10 10 10.446001 10 11 L 10 14 C 10 14.553999 10.446001 15 11 15 L 14 15 C 14.553999 15 15 14.553999 15 14 L 15 11 C 15 10.446001 14.553999 10 14 10 L 13.5 10 L 13 10 L 12 10 L 11 10 z M 2 11 L 5 11 L 5 14 L 2 14 L 2 11 z M 11 11 L 14 11 L 14 14 L 11 14 L 11 11 z "
     style="fill:#363636;fill-opacity:1" />
</svg>
