<?xml version="1.0" encoding="UTF-8" standalone="no"?>
<svg
   width="16"
   height="16"
   version="1.1"
   id="svg2"
   sodipodi:docname="network-wired-symbolic.svg"
   inkscape:version="1.3.2 (091e20ef0f, 2023-11-25)"
   xmlns:inkscape="http://www.inkscape.org/namespaces/inkscape"
   xmlns:sodipodi="http://sodipodi.sourceforge.net/DTD/sodipodi-0.dtd"
   xmlns="http://www.w3.org/2000/svg"
   xmlns:svg="http://www.w3.org/2000/svg">
  <defs
     id="defs2" />
  <sodipodi:namedview
     id="namedview2"
     pagecolor="#ffffff"
     bordercolor="#111111"
     borderopacity="1"
     inkscape:showpageshadow="0"
     inkscape:pageopacity="0"
     inkscape:pagecheckerboard="1"
     inkscape:deskcolor="#d1d1d1"
     inkscape:zoom="25.09375"
     inkscape:cx="8.3486924"
     inkscape:cy="10.261519"
     inkscape:window-width="1920"
     inkscape:window-height="1011"
     inkscape:window-x="0"
     inkscape:window-y="0"
     inkscape:window-maximized="1"
     inkscape:current-layer="svg2" />
  <path
     d="M 4.667,7.5 C 4.114,7.5 4,7.72414 4,8 4,8.27586 4.114,8.5 4.667,8.5 4.702,8.5 4.737,8.4985 4.772,8.49625 4.798,8.4969996 4.822,8.5 4.849,8.5 h 6.302 c 0.026,0 0.05,-0.003 0.074,-0.00375 C 11.261,8.4985 11.297,8.5 11.333,8.5 11.886,8.5 12,8.27586 12,8 12,7.72414 11.886,7.5 11.333,7.5 11.298,7.5 11.263,7.5015 11.228,7.50375 11.202,7.5030004 11.178,7.5 11.151,7.5 H 4.85 C 4.824,7.5 4.8,7.503 4.776,7.50375 A 1.49,1.1169 0 0 0 4.668,7.5 Z"
     fill="#363636"
     stroke-width="0.86581"
     id="path1"
     style="display:none" />
  <path
     d="m 0.14153,8.3799 2.9889,3.4517 c 0.18936,0.21992 0.49832,0.22092 0.69067,0.003 a 0.61592,0.61778 0 0 0 0.00199,-0.79171 l -2.6441,-3.0539 2.665,-3.0319 A 0.61692,0.61877 0 0 0 3.84598,4.16538 0.44649,0.44784 0 0 0 3.15531,4.16238 l -3.0108,3.4278 A 0.59898,0.60078 0 0 0 0,7.98504 c 0,0.14295 0.046842,0.2869 0.14152,0.39686 z m 15.717,-0.75972 -2.9889,-3.4517 a 0.44649,0.44784 0 0 0 -0.69067,-0.003 0.61592,0.61778 0 0 0 -0.002,0.79171 l 2.6441,3.0539 -2.664,3.0319 a 0.61692,0.61877 0 0 0 -0.002,0.79171 c 0.18936,0.21992 0.49832,0.21992 0.69067,0.003 l 3.0098,-3.4268 A 0.59898,0.60078 0 0 0 16.00004,8.01604 0.59997,0.60178 0 0 0 15.85852,7.61918 Z"
     fill="#363636"
     stroke-width="1.4972"
     id="path2"
     style="display:none" />
  <path
     d="m 6.5,1 c -0.554,0 -1,0.446 -1,1 v 3 c 0,0.554 0.446,1 1,1 h 1 V 7 H 5 C 3.892,7 3,7.892 3,9 v 1 H 2 c -0.554,0 -1,0.446 -1,1 v 3 c 0,0.554 0.446,1 1,1 h 3 c 0.554,0 1,-0.446 1,-1 V 11 C 6,10.446 5.554,10 5,10 H 4 V 9 C 4,8.446 4.446,8 5,8 h 6 c 0.554,0 1,0.446 1,1 v 1 h -1 c -0.554,0 -1,0.446 -1,1 v 3 c 0,0.554 0.446,1 1,1 h 3 c 0.554,0 1,-0.446 1,-1 v -3 c 0,-0.554 -0.446,-1 -1,-1 H 13 V 9 C 13,7.892 12.108,7 11,7 H 8.5 V 6 h 1 c 0.554,0 1,-0.446 1,-1 V 2 c 0,-0.554 -0.446,-1 -1,-1 z m 0,1 h 3 v 3 h -1 -1 -1 z M 2,11 h 3 v 3 H 2 Z m 9,0 h 3 v 3 h -3 z"
     fill="#363636"
     id="path1-3" />
</svg>
