<?xml version="1.0" encoding="UTF-8"?>
<svg id="svg2" width="64" height="64" version="1.1" xmlns="http://www.w3.org/2000/svg" xmlns:xlink="http://www.w3.org/1999/xlink">
 <defs id="defs2">
  <linearGradient id="d" x1="45" x2="60.076" y1="19" y2="3.924" gradientTransform="translate(.012852 -.0011262)" gradientUnits="userSpaceOnUse">
   <stop id="stop5" stop-color="#fff" offset="0"/>
   <stop id="stop6" stop-color="#b3b3b3" offset="1"/>
  </linearGradient>
  <linearGradient id="linearGradient5" x1="7.9373" x2="7.9373" y1="15.081" y2="1.852" gradientTransform="matrix(3.7796 0 0 3.7796 -.0009765 .030274)" gradientUnits="userSpaceOnUse">
   <stop id="stop1" stop-color="#f1efeb" offset="0"/>
   <stop id="stop2" stop-color="#fdfcfc" offset="1"/>
  </linearGradient>
  <filter id="filter95" x="-.14695" y="-.14705" width="1.2939" height="1.2941" color-interpolation-filters="sRGB">
   <feGaussianBlur id="feGaussianBlur95" stdDeviation="1.5300537"/>
  </filter>
  <filter id="filter94" x="-.06912" y="-.06912" width="1.1382" height="1.1382" color-interpolation-filters="sRGB">
   <feGaussianBlur id="feGaussianBlur94" stdDeviation="1.6128562"/>
  </filter>
  <style id="current-color-scheme" type="text/css">.ColorScheme-Text { color:#363636; }</style>
  <style id="current-color-scheme-4" type="text/css">.ColorScheme-Text { color:#363636; } .ColorScheme-Text { color:#363636; }</style>
  <style id="current-color-scheme-1" type="text/css">.ColorScheme-Text { color:#363636; } .ColorScheme-Text { color:#363636; }</style>
  <filter id="filter1" x="-.17315" y="-.12771" width="1.3463" height="1.2554" color-interpolation-filters="sRGB">
   <feGaussianBlur id="feGaussianBlur1" stdDeviation="2.2375095"/>
  </filter>
 </defs>
 <path id="path3-9-5" d="m17.001 3.999c-7.2031 0-13.002 5.7989-13.002 13.002v29.998c0 7.2031 5.7989 13.002 13.002 13.002h29.998c7.2031 0 13.002-5.7989 13.002-13.002v-18.027c-0.12523-0.33309-0.25816-0.6432-0.39844-0.93359-0.14027-0.2904-0.28901-0.5594-0.44336-0.81055-0.15435-0.25114-0.31496-0.48389-0.48242-0.69922-0.16746-0.21532-0.34189-0.41471-0.52148-0.59766-0.1796-0.18294-0.36392-0.34991-0.55469-0.50391-0.19076-0.154-0.38693-0.29339-0.58789-0.42188-0.20096-0.12849-0.407-0.24515-0.61719-0.35156 0.21019 0.10641 0.41623 0.22308 0.61719 0.35156 0.20096 0.12849 0.39713 0.26788 0.58789 0.42188 0.19076 0.154 0.37509 0.32096 0.55469 0.50391 0.1796 0.18294 0.35402 0.38233 0.52148 0.59766 0.16746 0.21532 0.32807 0.44808 0.48242 0.69922 0.15435 0.25114 0.30308 0.52015 0.44336 0.81055 0.14028 0.2904 0.27321 0.6005 0.39844 0.93359v-0.13867c-0.24891-7.0487-16.63-23.649-24.201-24.799-0.265-0.02-0.52811-0.035156-0.78711-0.035156 0.25 0.0625 0.48755 0.14624 0.71484 0.24609 0.2273 0.099853 0.44434 0.21582 0.65039 0.34961 0.20605 0.13379 0.40161 0.28491 0.58789 0.44922s0.36328 0.3418 0.53125 0.5332c0.16797 0.19141 0.32739 0.39624 0.47852 0.61133 0.15112 0.21509 0.29395 0.44043 0.42969 0.67578-0.13574-0.23535-0.27856-0.46069-0.42969-0.67578s-0.31055-0.41992-0.47852-0.61133c-0.16797-0.19141-0.34497-0.3689-0.53125-0.5332-0.18628-0.16431-0.38184-0.31543-0.58789-0.44922-0.20605-0.13379-0.4231-0.24976-0.65039-0.34961-0.22729-0.099854-0.46484-0.18359-0.71484-0.24609zm22.729 6.0254c0.17774 0.56445 0.33789 1.1387 0.48633 1.709 0.29688 1.1406 0.54688 2.2656 0.79688 3.2656-0.25-1-0.5-2.125-0.79688-3.2656-0.14844-0.57031-0.30859-1.1445-0.48633-1.709zm13.246 13.58c0.48351 0.09518 0.95975 0.19674 1.4238 0.31836-0.46408-0.12162-0.94032-0.22318-1.4238-0.31836z" filter="url(#filter94)" opacity=".25" stroke-width="3.7796"/>
 <path id="path3-9" d="m17.001 3.999c-7.2031 0-13.002 5.7989-13.002 13.002v29.998c0 7.2031 5.7989 13.002 13.002 13.002h29.998c7.2031 0 13.002-5.7989 13.002-13.002v-18.027c-2.0036-5.3294-5.9956-4.9745-9.9883-5.9727-5.82-1.455-8.03-4.12-9-8-1-4-2-10-6-11z" fill="url(#linearGradient5)" stroke-width="3.7796"/>
 <rect id="rect1" x="16.189" y="16.189" width="31.623" height="31.623" display="none" fill="none" opacity=".25" stroke="#f0e" stroke-linecap="square" stroke-linejoin="round" stroke-width=".1"/>
 <path id="path6" d="m36.203 10.976c1.764 6.9393-6.2136 9.037-9.09 13.365-1.96 2.9452 0.96409 6.1077 4.9476 9.7045-1.5521-3.512-6.8228-6.5897 0-11.977 8.5126-6.7221 4.1477-11.092 4.1477-11.092zm5.2707 8.5921s-14.392 3.5915-7.522 11.511c2.0341 2.3361-0.52972 4.4391-0.52972 4.4391s5.1489-2.6592 2.7863-5.9858c-2.2089-3.1095-3.904-4.6509 5.2654-9.9693zm2.548 14.144a4.8522 4.8522 0 0 0-1.5892 0.28605c-0.44496 0.15892-0.67804 0.51912-0.67804 0.51912s0.28075-0.11124 0.90052-0.24367c2.548-0.52972 6.1977 3.4114-1.6951 7.5114-0.03179 0.09535-0.15892 0.20659-0.15892 0.20659 9.3866-2.4685 7.3419-8.2848 3.2207-8.2742zm-16.898 0.40259a14.827 14.827 0 0 0-6.4891 1.568c-4.3119 2.0871 10.679 3.0406 18.434 1.0012 0.81047-0.55091 1.9229-1.033 1.9229-1.033s-3.173 0.5668-6.3354 0.83696c-3.867 0.31783-8.0253 0.3867-10.107 0.10594-4.937-0.65685 2.7016-2.4738 2.7016-2.4738h-0.13243zm-1.6474 4.7781c-7.1194 2.3626 3.9623 5.0429 13.91 2.1295a4.9688 4.9688 0 0 1-1.7269-1.0541c-4.8628 0.9376-7.6756 0.90582-11.23 0.54031-2.7545-0.28605-0.9535-1.6156-0.9535-1.6156zm1.0065 4.598c-6.4626 1.8063 3.9305 5.5409 12.162 2.0129-1.3455-0.52442-2.3149-1.1283-2.3149-1.1283-3.671 0.69393-5.3714 0.7469-8.7033 0.3708-2.7545-0.31783-1.1442-1.2554-1.1442-1.2554zm-4.492 3.0565c-2.9029 0.08475-8.5815 2.7016-3.3902 3.5385 16.782 2.7228 30.591-1.2237 26.242-3.1889 0 0 1.1866 0.97998-1.3137 1.7375-4.7463 1.4408-19.774 1.8752-23.943 0.05828-1.4991-0.65156 1.3137-1.5574 2.1983-1.7481 0.92171-0.20129 1.4461-0.15892 1.4461-0.15892-0.25956-0.1854-0.70453-0.25956-1.2395-0.23837zm25.517 2.4897s-0.52972 1.3614-6.2613 2.4367c-6.4626 1.2184-14.435 1.0753-19.16 0.29664 0 0 0.96939 0.79988 5.9435 1.123 7.575 0.48205 19.202-0.27016 19.478-3.8511z" clip-rule="evenodd" display="none" fill-rule="evenodd" filter="url(#filter1)" opacity=".25" stroke-width="5.2972"/>
 <path id="path6-0" d="m36.203 10.976c1.764 6.9393-6.2136 9.037-9.09 13.365-1.96 2.9452 0.96409 6.1077 4.9476 9.7045-1.5521-3.512-6.8228-6.5897 0-11.977 8.5126-6.7221 4.1477-11.092 4.1477-11.092zm5.2707 8.5921s-14.392 3.5915-7.522 11.511c2.0341 2.3361-0.52972 4.4391-0.52972 4.4391s5.1489-2.6592 2.7863-5.9858c-2.2089-3.1095-3.904-4.6509 5.2654-9.9693zm2.548 14.144a4.8522 4.8522 0 0 0-1.5892 0.28605c-0.44496 0.15892-0.67804 0.51912-0.67804 0.51912s0.28075-0.11124 0.90052-0.24367c2.548-0.52972 6.1977 3.4114-1.6951 7.5114-0.03179 0.09535-0.15892 0.20659-0.15892 0.20659 9.3866-2.4685 7.3419-8.2848 3.2207-8.2742zm-16.898 0.40259a14.827 14.827 0 0 0-6.4891 1.568c-4.3119 2.0871 10.679 3.0406 18.434 1.0012 0.81047-0.55091 1.9229-1.033 1.9229-1.033s-3.173 0.5668-6.3354 0.83696c-3.867 0.31783-8.0253 0.3867-10.107 0.10594-4.937-0.65685 2.7016-2.4738 2.7016-2.4738h-0.13243zm-1.6474 4.7781c-7.1194 2.3626 3.9623 5.0429 13.91 2.1295a4.9688 4.9688 0 0 1-1.7269-1.0541c-4.8628 0.9376-7.6756 0.90582-11.23 0.54031-2.7545-0.28605-0.9535-1.6156-0.9535-1.6156zm1.0065 4.598c-6.4626 1.8063 3.9305 5.5409 12.162 2.0129-1.3455-0.52442-2.3149-1.1283-2.3149-1.1283-3.671 0.69393-5.3714 0.7469-8.7033 0.3708-2.7545-0.31783-1.1442-1.2554-1.1442-1.2554zm-4.492 3.0565c-2.9029 0.08475-8.5815 2.7016-3.3902 3.5385 16.782 2.7228 30.591-1.2237 26.242-3.1889 0 0 1.1866 0.97998-1.3137 1.7375-4.7463 1.4408-19.774 1.8752-23.943 0.05828-1.4991-0.65156 1.3137-1.5574 2.1983-1.7481 0.92171-0.20129 1.4461-0.15892 1.4461-0.15892-0.25956-0.1854-0.70453-0.25956-1.2395-0.23837zm25.517 2.4897s-0.52972 1.3614-6.2613 2.4367c-6.4626 1.2184-14.435 1.0753-19.16 0.29664 0 0 0.96939 0.79988 5.9435 1.123 7.575 0.48205 19.202-0.27016 19.478-3.8511z" clip-rule="evenodd" fill="#212121" fill-rule="evenodd" stroke-width="5.2972"/>
 <path id="path5-6" d="m33.301 4.654c4 1 5 7 6 11 0.97 3.88 3.18 6.545 9 8 3.9927 0.99818 7.9847 0.64321 9.9883 5.9727v-0.13867c-0.24891-7.0487-16.63-23.649-24.201-24.799-0.265-0.02-0.52811-0.03516-0.78711-0.03516z" filter="url(#filter95)" opacity=".25"/>
 <path id="path5" d="m35.013 3.999c4 1 5 7 6 11 0.97 3.88 3.18 6.545 9 8 3.9927 0.99818 7.9847 0.64321 9.9883 5.9727v-0.13867c-0.24891-7.0487-16.63-23.649-24.201-24.799-0.265-0.02-0.52811-0.035156-0.78711-0.035156z" fill="url(#d)"/>
</svg>
