<?xml version="1.0" encoding="UTF-8"?>
<svg id="svg2" width="64" height="64" version="1.1" xmlns="http://www.w3.org/2000/svg" xmlns:xlink="http://www.w3.org/1999/xlink">
 <defs id="defs2">
  <linearGradient id="d" x1="45" x2="60.076" y1="19" y2="3.924" gradientTransform="translate(.012852 -.0011262)" gradientUnits="userSpaceOnUse">
   <stop id="stop5" stop-color="#fff" offset="0"/>
   <stop id="stop6" stop-color="#b3b3b3" offset="1"/>
  </linearGradient>
  <linearGradient id="linearGradient5" x1="7.9373" x2="7.9373" y1="15.081" y2="1.852" gradientTransform="matrix(3.7796 0 0 3.7796 -.0009765 .030274)" gradientUnits="userSpaceOnUse">
   <stop id="stop1" stop-color="#f1efeb" offset="0"/>
   <stop id="stop2" stop-color="#fdfcfc" offset="1"/>
  </linearGradient>
  <filter id="filter95" x="-.14695" y="-.14705" width="1.2939" height="1.2941" color-interpolation-filters="sRGB">
   <feGaussianBlur id="feGaussianBlur95" stdDeviation="1.5300537"/>
  </filter>
  <filter id="filter94" x="-.06912" y="-.06912" width="1.1382" height="1.1382" color-interpolation-filters="sRGB">
   <feGaussianBlur id="feGaussianBlur94" stdDeviation="1.6128562"/>
  </filter>
  <style id="current-color-scheme" type="text/css">.ColorScheme-Text { color:#363636; }</style>
  <style id="current-color-scheme-4" type="text/css">.ColorScheme-Text { color:#363636; } .ColorScheme-Text { color:#363636; }</style>
  <style id="current-color-scheme-1" type="text/css">.ColorScheme-Text { color:#363636; } .ColorScheme-Text { color:#363636; }</style>
  <filter id="filter1" x="-.147" y="-.147" width="1.294" height="1.294" color-interpolation-filters="sRGB">
   <feGaussianBlur id="feGaussianBlur1" stdDeviation="1.9368877"/>
  </filter>
 </defs>
 <path id="path3-9-5" d="m17.001 3.999c-7.2031 0-13.002 5.7989-13.002 13.002v29.998c0 7.2031 5.7989 13.002 13.002 13.002h29.998c7.2031 0 13.002-5.7989 13.002-13.002v-18.027c-0.12523-0.33309-0.25816-0.6432-0.39844-0.93359-0.14027-0.2904-0.28901-0.5594-0.44336-0.81055-0.15435-0.25114-0.31496-0.48389-0.48242-0.69922-0.16746-0.21532-0.34189-0.41471-0.52148-0.59766-0.1796-0.18294-0.36392-0.34991-0.55469-0.50391-0.19076-0.154-0.38693-0.29339-0.58789-0.42188-0.20096-0.12849-0.407-0.24515-0.61719-0.35156 0.21019 0.10641 0.41623 0.22308 0.61719 0.35156 0.20096 0.12849 0.39713 0.26788 0.58789 0.42188 0.19076 0.154 0.37509 0.32096 0.55469 0.50391 0.1796 0.18294 0.35402 0.38233 0.52148 0.59766 0.16746 0.21532 0.32807 0.44808 0.48242 0.69922 0.15435 0.25114 0.30308 0.52015 0.44336 0.81055 0.14028 0.2904 0.27321 0.6005 0.39844 0.93359v-0.13867c-0.24891-7.0487-16.63-23.649-24.201-24.799-0.265-0.02-0.52811-0.035156-0.78711-0.035156 0.25 0.0625 0.48755 0.14624 0.71484 0.24609 0.2273 0.099853 0.44434 0.21582 0.65039 0.34961 0.20605 0.13379 0.40161 0.28491 0.58789 0.44922s0.36328 0.3418 0.53125 0.5332c0.16797 0.19141 0.32739 0.39624 0.47852 0.61133 0.15112 0.21509 0.29395 0.44043 0.42969 0.67578-0.13574-0.23535-0.27856-0.46069-0.42969-0.67578s-0.31055-0.41992-0.47852-0.61133c-0.16797-0.19141-0.34497-0.3689-0.53125-0.5332-0.18628-0.16431-0.38184-0.31543-0.58789-0.44922-0.20605-0.13379-0.4231-0.24976-0.65039-0.34961-0.22729-0.099854-0.46484-0.18359-0.71484-0.24609zm22.729 6.0254c0.17774 0.56445 0.33789 1.1387 0.48633 1.709 0.29688 1.1406 0.54688 2.2656 0.79688 3.2656-0.25-1-0.5-2.125-0.79688-3.2656-0.14844-0.57031-0.30859-1.1445-0.48633-1.709zm13.246 13.58c0.48351 0.09518 0.95975 0.19674 1.4238 0.31836-0.46408-0.12162-0.94032-0.22318-1.4238-0.31836z" filter="url(#filter94)" opacity=".25" stroke-width="3.7796"/>
 <path id="path3-9" d="m17.001 3.999c-7.2031 0-13.002 5.7989-13.002 13.002v29.998c0 7.2031 5.7989 13.002 13.002 13.002h29.998c7.2031 0 13.002-5.7989 13.002-13.002v-18.027c-2.0036-5.3294-5.9956-4.9745-9.9883-5.9727-5.82-1.455-8.03-4.12-9-8-1-4-2-10-6-11z" fill="url(#linearGradient5)" stroke-width="3.7796"/>
 <rect id="rect1" x="16.189" y="16.189" width="31.623" height="31.623" display="none" fill="none" opacity=".25" stroke="#f0e" stroke-linecap="square" stroke-linejoin="round" stroke-width=".1"/>
 <path id="path6" transform="matrix(1.0926 0 0 1.0926 -3.0511 -1.419)" d="m37.503 16.189-8.4211 0.01992c0.91134 0.57767 2.1264 1.8774 3.1374 3.3664 1.1155 1.6583 2.0069 3.5706 2.6792 5.2389l-2.3804 1.3745 7.5845-0.01494 3.5358-6.6333-1.8824 1.2549-1.1952-2.2609c-0.80176-1.2749-1.5438-2.2011-3.0527-2.3406zm-12.101 0.58763-3.6752 5.4082 6.4739 4.3077 3.476-6.5138c-0.96112-1.4093-2.3705-3.471-4.6015-3.5208h-0.07971a4.2828 4.2828 0 0 0-1.5936 0.31872zm12.928 13.047 3.0228 6.4988 2.5896 0.01992c1.484 0.01494 3.8346-2.0916 3.8694-3.6852v-0.11454l-2.9531-6.8823zm-22.141-2.1613 2.2559 1.2251-0.75695 1.5936c-2.4501 5.1991 0.6474 7.7339 4.3126 12.793a5.3485 5.3485 0 0 1-0.02991-3.9043l3.2469-6.9171 2.0418 1.0557-4.0338-6.2299zm17.41 13.65 3.466 6.4988 0.0199-2.6792h1.6982c5.4929 0 6.2548-4.0537 8.8992-9.7806a4.706 4.706 0 0 1-3.2868 1.7579l-7.3106 0.01992-0.0199-2.3954zm-9.5764-4.1832-1.1802 2.4252c-0.6972 1.4292 0.09961 4.7359 1.494 5.3634h7.201l0.04981-8.0426z" display="none" fill-rule="evenodd" filter="url(#filter1)" opacity=".25" stroke-width="4.9799"/>
 <path id="path6-8" d="m37.923 16.268-9.2006 0.02176c0.9957 0.63115 2.3233 2.0512 3.4278 3.6781 1.2188 1.8118 2.1927 3.9011 2.9272 5.7239l-2.6008 1.5017 8.2865-0.01632 3.8631-7.2473-2.0567 1.3711-1.3058-2.4702c-0.87598-1.3929-1.6867-2.4049-3.3353-2.5572zm-13.221 0.64203-4.0154 5.9088 7.0732 4.7064 3.7978-7.1167c-1.0501-1.5398-2.5899-3.7923-5.0274-3.8467h-0.08709a4.6792 4.6792 0 0 0-1.7411 0.34822zm14.125 14.255 3.3026 7.1004 2.8293 0.02176c1.6214 0.01632 4.1895-2.2852 4.2276-4.0263v-0.12514l-3.2265-7.5194zm-24.19-2.3614 2.4647 1.3385-0.82702 1.7411c-2.6769 5.6803 0.70732 8.4498 4.7118 13.978a5.8436 5.8436 0 0 1-0.03268-4.2657l3.5475-7.5574 2.2308 1.1535-4.4072-6.8066zm19.021 14.914 3.7869 7.1004 0.02174-2.9272h1.8553c6.0014 0 6.8338-4.4289 9.7229-10.686a5.1417 5.1417 0 0 1-3.591 1.9206l-7.9873 0.02176-0.02174-2.6171zm-10.463-4.5704-1.2895 2.6497c-0.76174 1.5615 0.10883 5.1743 1.6323 5.8599h7.8676l0.05442-8.7871z" fill="#212121" fill-rule="evenodd" stroke-width="5.4409"/>
 <path id="path5-6" d="m33.301 4.654c4 1 5 7 6 11 0.97 3.88 3.18 6.545 9 8 3.9927 0.99818 7.9847 0.64321 9.9883 5.9727v-0.13867c-0.24891-7.0487-16.63-23.649-24.201-24.799-0.265-0.02-0.52811-0.03516-0.78711-0.03516z" filter="url(#filter95)" opacity=".25"/>
 <path id="path5" d="m35.013 3.999c4 1 5 7 6 11 0.97 3.88 3.18 6.545 9 8 3.9927 0.99818 7.9847 0.64321 9.9883 5.9727v-0.13867c-0.24891-7.0487-16.63-23.649-24.201-24.799-0.265-0.02-0.52811-0.035156-0.78711-0.035156z" fill="url(#d)"/>
</svg>
