<?xml version="1.0" encoding="UTF-8" standalone="no"?>
<svg
   width="64"
   height="64"
   viewBox="0 0 16.933 16.933"
   version="1.1"
   id="svg6"
   sodipodi:docname="application-x-bat.svg"
   inkscape:version="1.4.3 (0d15f75042, 2025-12-25)"
   xmlns:inkscape="http://www.inkscape.org/namespaces/inkscape"
   xmlns:sodipodi="http://sodipodi.sourceforge.net/DTD/sodipodi-0.dtd"
   xmlns:xlink="http://www.w3.org/1999/xlink"
   xmlns="http://www.w3.org/2000/svg"
   xmlns:svg="http://www.w3.org/2000/svg">
  <sodipodi:namedview
     id="namedview6"
     pagecolor="#ffffff"
     bordercolor="#111111"
     borderopacity="1"
     inkscape:showpageshadow="0"
     inkscape:pageopacity="0"
     inkscape:pagecheckerboard="1"
     inkscape:deskcolor="#d1d1d1"
     inkscape:zoom="17.6875"
     inkscape:cx="31.971731"
     inkscape:cy="32.848057"
     inkscape:window-width="2560"
     inkscape:window-height="1371"
     inkscape:window-x="0"
     inkscape:window-y="0"
     inkscape:window-maximized="1"
     inkscape:current-layer="svg6" />
  <defs
     id="defs4">
    <linearGradient
       id="b"
       x1="40"
       x2="46"
       y1="17"
       y2="11"
       gradientTransform="translate(-.006 -.265)scale(.26458)"
       gradientUnits="userSpaceOnUse">
      <stop
         offset="0"
         stop-color="#fefefe"
         id="stop1" />
      <stop
         offset="1"
         stop-color="#e9e9e9"
         id="stop2" />
    </linearGradient>
    <linearGradient
       id="a"
       x1="45.801"
       x2="9.802"
       y1="10"
       y2="61"
       gradientTransform="translate(.052 -.265)scale(.26458)"
       gradientUnits="userSpaceOnUse">
      <stop
         offset="0"
         stop-color="#ededed"
         id="stop3" />
      <stop
         offset="1"
         stop-color="#fcfcfc"
         id="stop4" />
    </linearGradient>
    <filter
       inkscape:collect="always"
       style="color-interpolation-filters:sRGB"
       id="filter94"
       x="-0.069119996"
       y="-0.069119996"
       width="1.13824"
       height="1.13824">
      <feGaussianBlur
         inkscape:collect="always"
         stdDeviation="1.6128562"
         id="feGaussianBlur94" />
    </filter>
    <linearGradient
       inkscape:collect="always"
       xlink:href="#linearGradient862-3"
       id="linearGradient5"
       gradientUnits="userSpaceOnUse"
       gradientTransform="matrix(3.7796,0,0,3.7796,-9.765e-4,0.0302735)"
       x1="7.9373002"
       y1="15.081"
       x2="7.9373002"
       y2="1.852" />
    <linearGradient
       id="linearGradient862-3"
       x1="7.9373002"
       x2="7.9373002"
       y1="15.081"
       y2="1.852"
       gradientTransform="scale(3.7796)"
       gradientUnits="userSpaceOnUse"
       xlink:href="#linearGradient92">
      <stop
         stop-color="#f1efeb"
         offset="0"
         id="stop1-4" />
      <stop
         stop-color="#fdfcfc"
         offset="1"
         id="stop2-3" />
    </linearGradient>
    <linearGradient
       id="linearGradient92"
       x1="7.9373002"
       x2="7.9373002"
       y1="15.081"
       y2="1.852"
       gradientTransform="scale(3.7796)"
       gradientUnits="userSpaceOnUse"
       spreadMethod="pad">
      <stop
         stop-color="#f1efeb"
         offset="0"
         id="stop91"
         style="stop-color:#695e49;stop-opacity:1;" />
      <stop
         stop-color="#fdfcfc"
         offset="1"
         id="stop92" />
    </linearGradient>
    <filter
       inkscape:collect="always"
       style="color-interpolation-filters:sRGB"
       id="filter95"
       x="-0.14695404"
       y="-0.14704597"
       width="1.2939081"
       height="1.2940919">
      <feGaussianBlur
         inkscape:collect="always"
         stdDeviation="1.5300537"
         id="feGaussianBlur95" />
    </filter>
    <linearGradient
       id="d"
       x1="45"
       x2="60.076"
       y1="19"
       y2="3.924"
       gradientTransform="translate(0.01285182,-0.00112622)"
       gradientUnits="userSpaceOnUse">
      <stop
         offset="0"
         stop-color="#fff"
         id="stop5" />
      <stop
         offset="1"
         stop-color="#b3b3b3"
         id="stop6" />
    </linearGradient>
  </defs>
  <g
     id="g1"
     transform="matrix(0.26457812,0,0,0.26457812,-0.03391049,-0.03391049)">
    <path
       id="path3-9-5"
       style="opacity:0.25;fill:#212121;fill-opacity:1;stroke-width:3.7796;filter:url(#filter94)"
       d="m 17.000976,3.999023 c -7.203094,0 -13.001953,5.798859 -13.001953,13.001953 v 29.998047 c 0,7.203095 5.798859,13.001953 13.001953,13.001953 h 29.998047 c 7.203095,0 13.001953,-5.798858 13.001953,-13.001953 V 28.971679 c -0.125226,-0.33309 -0.258163,-0.643195 -0.398438,-0.933593 -0.140274,-0.290399 -0.289006,-0.559404 -0.443359,-0.810547 -0.154353,-0.251144 -0.314961,-0.483894 -0.482422,-0.699219 -0.16746,-0.215325 -0.341887,-0.414714 -0.521484,-0.597656 -0.179598,-0.182943 -0.363924,-0.34991 -0.554688,-0.503907 -0.190764,-0.153996 -0.38693,-0.293388 -0.58789,-0.421875 -0.200961,-0.128487 -0.407002,-0.245149 -0.617188,-0.351562 0.210186,0.106413 0.416227,0.223075 0.617188,0.351562 0.20096,0.128487 0.397126,0.267879 0.58789,0.421875 0.190764,0.153997 0.37509,0.320964 0.554688,0.503907 0.179597,0.182942 0.354024,0.382331 0.521484,0.597656 0.167461,0.215325 0.328069,0.448075 0.482422,0.699219 0.154353,0.251143 0.303085,0.520148 0.443359,0.810547 0.140275,0.290398 0.273212,0.600503 0.398438,0.933593 V 28.833007 C 59.752064,21.784286 43.371199,5.1842268 35.799804,4.0341792 c -0.264999,-0.02 -0.52811,-0.035156 -0.787109,-0.035156 0.249999,0.0625 0.487549,0.1462404 0.714843,0.2460938 0.227295,0.099853 0.444337,0.2158204 0.650391,0.3496093 0.206054,0.133789 0.401612,0.2849123 0.587891,0.4492188 0.186279,0.1643065 0.363281,0.341797 0.53125,0.5332031 0.167968,0.1914061 0.327392,0.3962404 0.478515,0.6113281 0.151123,0.2150878 0.293946,0.4404299 0.429688,0.6757813 C 38.269531,6.6289059 38.126708,6.4035639 37.975585,6.1884761 37.824462,5.9733883 37.665038,5.7685541 37.49707,5.577148 37.329101,5.3857419 37.152099,5.2082514 36.96582,5.0439449 36.779541,4.8796383 36.583983,4.7285151 36.377929,4.5947261 36.171875,4.4609372 35.954833,4.3449702 35.727538,4.2451168 35.500244,4.1452633 35.262694,4.0615229 35.012695,3.999023 Z m 22.728515,6.025391 c 0.177735,0.564452 0.337891,1.138672 0.486329,1.708984 0.296875,1.140624 0.546875,2.265627 0.796875,3.265625 -0.25,-0.999998 -0.500001,-2.125001 -0.796875,-3.265625 -0.148438,-0.570312 -0.308594,-1.144532 -0.486329,-1.708984 z m 13.246094,13.580078 c 0.483513,0.09518 0.959749,0.196737 1.423828,0.318359 -0.464079,-0.121622 -0.940315,-0.223178 -1.423828,-0.318359 z"
       inkscape:label="Shadow" />
    <path
       d="m 17.000976,3.9990235 c -7.2031005,0 -13.0019525,5.798852 -13.0019525,13.0019525 v 29.998047 c 0,7.203102 5.798852,13.001953 13.0019525,13.001953 h 29.998047 c 7.203102,0 13.001953,-5.798851 13.001953,-13.001953 V 28.971679 c -2.003622,-5.329445 -5.995573,-4.974479 -9.988281,-5.972656 -5.819994,-1.454999 -8.030001,-4.120004 -9,-7.999999 -0.999999,-3.999997 -2.000003,-10.0000015 -6,-11.0000005 z"
       style="fill:url(#linearGradient5);stroke-width:3.7796"
       id="path3-9"
       inkscape:label="Sheet" />
    <rect
       style="display:none;opacity:0.25;fill:none;fill-opacity:1;stroke:#ff00ee;stroke-width:0.1;stroke-linecap:square;stroke-linejoin:round;stroke-dasharray:none;stroke-opacity:1"
       id="rect1"
       width="31.62265"
       height="31.622654"
       x="16.188675"
       y="16.188673" />
    <path
       d="m 33.300709,4.6539948 c 3.999996,0.999999 5.000001,7.0000042 6,11.0000002 0.969999,3.879996 3.180006,6.545001 9,8 3.992708,0.998177 7.984659,0.64321 9.988281,5.972656 V 29.487979 C 58.040078,22.439251 41.659221,5.8391998 34.087818,4.6891508 c -0.264999,-0.02 -0.528109,-0.03516 -0.787109,-0.03516 z"
       style="display:inline;opacity:0.25;fill:#212121;fill-opacity:1;filter:url(#filter95)"
       id="path5-6"
       inkscape:label="Cornershadow" />
    <path
       d="m 35.012695,3.9990237 c 3.999996,0.999999 5.000001,7.0000043 6,11.0000003 0.969999,3.879996 3.180006,6.545001 9,8 3.992708,0.998177 7.984659,0.64321 9.988281,5.972656 V 28.833008 C 59.752064,21.78428 43.371207,5.1842286 35.799804,4.0341799 c -0.264999,-0.02 -0.528109,-0.035156 -0.787109,-0.035156 z"
       style="display:inline;fill:url(#d)"
       id="path5"
       inkscape:label="Corner" />
  </g>
  <path
     fill="#b3b3b3"
     d="m 8.459,4.8085206 c -0.189,0.016 -0.189,0.174 -0.256,0.565 a 3.429,3.412 0 0 0 -0.379,0.053 c -0.167,-0.402 -0.225,-0.543 -0.383,-0.49 -0.181,0.062 -0.139,0.217 -0.11,0.624 a 3.429,3.412 0 0 0 -0.353,0.145 c -0.281,-0.34 -0.378,-0.458 -0.513,-0.36 -0.154,0.11 -0.072,0.247 0.072,0.616 a 3.429,3.412 0 0 0 -0.306,0.234 c -0.355,-0.261 -0.477,-0.352 -0.586,-0.224 -0.123,0.144 -0.008,0.255 0.223,0.583 a 3.429,3.412 0 0 0 -0.23,0.298 c -0.372,-0.138 -0.51,-0.218 -0.618,-0.064 -0.096,0.136 0.023,0.232 0.365,0.507 a 3.429,3.412 0 0 0 -0.147,0.353 c -0.391,-0.037 -0.545,-0.078 -0.609,0.099 -0.057,0.155 0.081,0.217 0.475,0.39 a 3.429,3.412 0 0 0 -0.049,0.375 c -0.386,0.075 -0.545,0.077 -0.557,0.265 -0.01,0.162 0.139,0.185 0.553,0.239 a 3.429,3.412 0 0 0 0.054,0.398 c -0.354,0.155 -0.507,0.195 -0.477,0.38 0.026,0.163 0.178,0.149 0.611,0.109 a 3.429,3.412 0 0 0 0.154,0.3670004 c -0.302,0.234 -0.44,0.31 -0.367,0.481 0.066,0.153 0.21,0.102 0.625,-0.044 a 3.429,3.412 0 0 0 0.224,0.289 c -0.228,0.334 -0.343,0.447 -0.217,0.59 0.109,0.125 0.23,0.033 0.576,-0.23 a 3.429,3.412 0 0 0 0.307,0.237 c -0.139,0.385 -0.222,0.524 -0.064,0.632 0.138,0.095 0.232,-0.026 0.508,-0.374 l -0.067,-0.04 a 3.429,3.412 0 0 0 0.403,0.171 c -0.027,0.396 -0.066,0.55 0.114,0.61 0.155,0.052 0.214,-0.085 0.373,-0.472 a 3.429,3.412 0 0 0 0.388,0.052 c 0.074,0.438 0.098,0.588 0.265,0.571 0.188,-0.018 0.184,-0.177 0.246,-0.567 a 3.429,3.412 0 0 0 0.392,-0.05 c 0.161,0.392 0.22,0.53 0.376,0.479 0.18,-0.06 0.141,-0.214 0.114,-0.61 a 3.429,3.412 0 0 0 0.356,-0.146 c 0.268,0.339 0.362,0.457 0.499,0.364 0.155,-0.107 0.077,-0.244 -0.058,-0.614 a 3.429,3.412 0 0 0 0.317,-0.241 c 0.332,0.251 0.453,0.339 0.56,0.216 0.122,-0.14 0.015,-0.255 -0.201,-0.57 a 3.429,3.412 0 0 0 0.231,-0.294 c 0.405,0.143 0.548,0.193 0.614,0.041 0.073,-0.17 -0.063,-0.246 -0.361,-0.476 a 3.429,3.412 0 0 0 0.156,-0.3720004 c 0.426,0.04 0.577,0.053 0.603,-0.11 0.03,-0.182 -0.121,-0.224 -0.468,-0.375 a 3.429,3.412 0 0 0 0.05,-0.402 c 0.41,-0.054 0.558,-0.078 0.548,-0.24 -0.012,-0.185 -0.17,-0.19 -0.546,-0.262 a 3.429,3.412 0 0 0 -0.052,-0.38 c 0.387,-0.171 0.523,-0.233 0.467,-0.387 -0.064,-0.175 -0.216,-0.137 -0.6,-0.1 a 3.429,3.412 0 0 0 -0.148,-0.359 c 0.335,-0.27 0.452,-0.365 0.357,-0.5 -0.108,-0.154 -0.245,-0.074 -0.613,0.063 a 3.429,3.412 0 0 0 -0.237,-0.305 c 0.249,-0.35 0.335,-0.474 0.207,-0.579 -0.144,-0.117 -0.255,-0.006 -0.564,0.22 a 3.429,3.412 0 0 0 -0.313,-0.238 c 0.165,-0.402 0.222,-0.541 0.073,-0.614 -0.172,-0.084 -0.251,0.055 -0.518,0.363 a 3.429,3.412 0 0 0 -0.355,-0.145 c 0.036,-0.439 0.051,-0.59 -0.114,-0.616 -0.186,-0.028 -0.224,0.126 -0.378,0.484 a 3.429,3.412 0 0 0 -0.389,-0.047 c -0.065,-0.43 -0.087,-0.58 -0.253,-0.566 m -0.139,1.049 c 0.38,-0.007 0.83,0.06 0.977,0.124 0.637,0.193 1.226,0.55 1.728,1.38 0.094,0.154 0.162,0.303 0.192,0.44 a 0.57,0.57 0 0 1 -0.074,0.444 c -0.08,0.105 -0.18,0.203 -0.317,0.216 -0.43,0.04 -1.012,0.017 -1.471,0.012 a 0.28,0.28 0 0 1 -0.173,-0.056 c -0.136,-0.086 -0.228,-0.271 -0.38,-0.324 -0.242,-0.111 -0.34,-0.018 -0.477,-0.186 a 24,24 0 0 1 -0.719,-1.228 c -0.162,-0.281 -0.056,-0.563 0.189,-0.715 0.095,-0.074 0.298,-0.104 0.525,-0.107 m -1.691,0.867 0.06,0.002 c 0.13,0.018 0.265,0.056 0.344,0.17 0.245,0.353 0.512,0.87 0.733,1.272 0.037,0.067 0.045,0.147 0.035,0.178 -0.008,0.16 -0.125,0.33 -0.096,0.488 0.02,0.266 0.151,0.305 0.072,0.506 A 24,24 0 0 1 7.056,10.568521 c -0.166,0.28 -0.464,0.324 -0.716,0.186 -0.298,-0.124 -0.697,-1.0600004 -0.723,-1.3130004 -0.144,-0.649 -0.122,-1.337 0.356,-2.18 0.09,-0.157 0.187,-0.289 0.291,-0.382 a 0.6,0.6 0 0 1 0.365,-0.155 m 1.836,1.768 a 0.283,0.283 0 0 1 0.284,0.284 0.283,0.283 0 0 1 -0.284,0.283 0.283,0.283 0 0 1 -0.283,-0.283 0.283,0.283 0 0 1 0.283,-0.284 m 1.56,0.594 q 0.358,0 0.71,0.014 c 0.325,0.004 0.514,0.24 0.52,0.527 0.04,0.32 -0.572,1.1320004 -0.779,1.2810004 -0.492,0.449 -1.1,0.773 -2.07,0.782 a 1.5,1.5 0 0 1 -0.478,-0.06 0.57,0.57 0 0 1 -0.344,-0.29 c -0.05,-0.122 -0.085,-0.258 -0.025,-0.383 0.184,-0.389 0.499,-0.877 0.737,-1.2690004 0.04,-0.066 0.105,-0.113 0.137,-0.12 0.143,-0.073 0.35,-0.056 0.473,-0.16 0.22,-0.151 0.189,-0.284 0.403,-0.316 q 0.357,-0.008 0.715,-0.006 z"
     class="ColorScheme-Text"
     id="path6"
     style="fill:#212121" />
</svg>
