<?xml version="1.0" encoding="UTF-8" standalone="no"?>
<svg
   width="64"
   height="64"
   version="1.1"
   viewBox="0 0 64 64"
   id="svg26"
   sodipodi:docname="application-rnote.svg"
   inkscape:version="1.4.3 (0d15f75042, 2025-12-25)"
   xmlns:inkscape="http://www.inkscape.org/namespaces/inkscape"
   xmlns:sodipodi="http://sodipodi.sourceforge.net/DTD/sodipodi-0.dtd"
   xmlns:xlink="http://www.w3.org/1999/xlink"
   xmlns="http://www.w3.org/2000/svg"
   xmlns:svg="http://www.w3.org/2000/svg">
  <sodipodi:namedview
     id="namedview26"
     pagecolor="#ffffff"
     bordercolor="#111111"
     borderopacity="1"
     inkscape:showpageshadow="0"
     inkscape:pageopacity="0"
     inkscape:pagecheckerboard="1"
     inkscape:deskcolor="#d1d1d1"
     inkscape:zoom="17.6875"
     inkscape:cx="31.971731"
     inkscape:cy="32"
     inkscape:window-width="2560"
     inkscape:window-height="1371"
     inkscape:window-x="0"
     inkscape:window-y="0"
     inkscape:window-maximized="1"
     inkscape:current-layer="g26" />
  <defs
     id="defs11">
    <clipPath
       id="clipPath1">
      <rect
         width="192"
         height="152"
         id="rect1" />
    </clipPath>
    <clipPath
       id="clipPath2">
      <rect
         width="192"
         height="152"
         id="rect2" />
    </clipPath>
    <clipPath
       id="clipPath3">
      <rect
         width="192"
         height="152"
         id="rect3" />
    </clipPath>
    <clipPath
       id="clipPath4">
      <rect
         width="192"
         height="152"
         id="rect4" />
    </clipPath>
    <clipPath
       id="clipPath5">
      <rect
         width="192"
         height="152"
         id="rect5" />
    </clipPath>
    <clipPath
       id="clipPath6">
      <rect
         width="192"
         height="152"
         id="rect6" />
    </clipPath>
    <clipPath
       id="clipPath7">
      <rect
         width="192"
         height="152"
         id="rect7" />
    </clipPath>
    <clipPath
       id="clipPath8">
      <rect
         width="192"
         height="152"
         id="rect8" />
    </clipPath>
    <linearGradient
       id="b"
       x1="40"
       x2="46"
       y1="17"
       y2="11"
       gradientTransform="translate(-.023 -1.002)"
       gradientUnits="userSpaceOnUse">
      <stop
         stop-color="#fefefe"
         offset="0"
         id="stop8" />
      <stop
         stop-color="#e9e9e9"
         offset="1"
         id="stop9" />
    </linearGradient>
    <linearGradient
       id="a"
       x1="45.801"
       x2="9.802"
       y1="10"
       y2="61"
       gradientTransform="translate(.197 -1.002)"
       gradientUnits="userSpaceOnUse">
      <stop
         stop-color="#ededed"
         offset="0"
         id="stop10" />
      <stop
         stop-color="#fcfcfc"
         offset="1"
         id="stop11" />
    </linearGradient>
    <filter
       inkscape:collect="always"
       style="color-interpolation-filters:sRGB"
       id="filter94"
       x="-0.069119996"
       y="-0.069119996"
       width="1.13824"
       height="1.13824">
      <feGaussianBlur
         inkscape:collect="always"
         stdDeviation="1.6128562"
         id="feGaussianBlur94" />
    </filter>
    <linearGradient
       inkscape:collect="always"
       xlink:href="#linearGradient862-3"
       id="linearGradient5"
       gradientUnits="userSpaceOnUse"
       gradientTransform="matrix(3.7796,0,0,3.7796,-9.765e-4,0.0302735)"
       x1="7.9373002"
       y1="15.081"
       x2="7.9373002"
       y2="1.852" />
    <linearGradient
       id="linearGradient862-3"
       x1="7.9373002"
       x2="7.9373002"
       y1="15.081"
       y2="1.852"
       gradientTransform="scale(3.7796)"
       gradientUnits="userSpaceOnUse"
       xlink:href="#linearGradient92">
      <stop
         stop-color="#f1efeb"
         offset="0"
         id="stop1" />
      <stop
         stop-color="#fdfcfc"
         offset="1"
         id="stop2" />
    </linearGradient>
    <linearGradient
       id="linearGradient92"
       x1="7.9373002"
       x2="7.9373002"
       y1="15.081"
       y2="1.852"
       gradientTransform="scale(3.7796)"
       gradientUnits="userSpaceOnUse"
       spreadMethod="pad">
      <stop
         stop-color="#f1efeb"
         offset="0"
         id="stop91"
         style="stop-color:#695e49;stop-opacity:1;" />
      <stop
         stop-color="#fdfcfc"
         offset="1"
         id="stop92" />
    </linearGradient>
    <filter
       inkscape:collect="always"
       style="color-interpolation-filters:sRGB"
       id="filter95"
       x="-0.14695404"
       y="-0.14704597"
       width="1.2939081"
       height="1.2940919">
      <feGaussianBlur
         inkscape:collect="always"
         stdDeviation="1.5300537"
         id="feGaussianBlur95" />
    </filter>
    <linearGradient
       id="d"
       x1="45"
       x2="60.076"
       y1="19"
       y2="3.924"
       gradientTransform="translate(0.01285182,-0.00112622)"
       gradientUnits="userSpaceOnUse">
      <stop
         offset="0"
         stop-color="#fff"
         id="stop5" />
      <stop
         offset="1"
         stop-color="#b3b3b3"
         id="stop6" />
    </linearGradient>
  </defs>
  <g
     id="g1"
     transform="translate(-0.12816816,-0.12816816)">
    <path
       id="path3-9-5"
       style="opacity:0.25;fill:#212121;fill-opacity:1;stroke-width:3.7796;filter:url(#filter94)"
       d="m 17.000976,3.999023 c -7.203094,0 -13.001953,5.798859 -13.001953,13.001953 v 29.998047 c 0,7.203095 5.798859,13.001953 13.001953,13.001953 h 29.998047 c 7.203095,0 13.001953,-5.798858 13.001953,-13.001953 V 28.971679 c -0.125226,-0.33309 -0.258163,-0.643195 -0.398438,-0.933593 -0.140274,-0.290399 -0.289006,-0.559404 -0.443359,-0.810547 -0.154353,-0.251144 -0.314961,-0.483894 -0.482422,-0.699219 -0.16746,-0.215325 -0.341887,-0.414714 -0.521484,-0.597656 -0.179598,-0.182943 -0.363924,-0.34991 -0.554688,-0.503907 -0.190764,-0.153996 -0.38693,-0.293388 -0.58789,-0.421875 -0.200961,-0.128487 -0.407002,-0.245149 -0.617188,-0.351562 0.210186,0.106413 0.416227,0.223075 0.617188,0.351562 0.20096,0.128487 0.397126,0.267879 0.58789,0.421875 0.190764,0.153997 0.37509,0.320964 0.554688,0.503907 0.179597,0.182942 0.354024,0.382331 0.521484,0.597656 0.167461,0.215325 0.328069,0.448075 0.482422,0.699219 0.154353,0.251143 0.303085,0.520148 0.443359,0.810547 0.140275,0.290398 0.273212,0.600503 0.398438,0.933593 V 28.833007 C 59.752064,21.784286 43.371199,5.1842268 35.799804,4.0341792 c -0.264999,-0.02 -0.52811,-0.035156 -0.787109,-0.035156 0.249999,0.0625 0.487549,0.1462404 0.714843,0.2460938 0.227295,0.099853 0.444337,0.2158204 0.650391,0.3496093 0.206054,0.133789 0.401612,0.2849123 0.587891,0.4492188 0.186279,0.1643065 0.363281,0.341797 0.53125,0.5332031 0.167968,0.1914061 0.327392,0.3962404 0.478515,0.6113281 0.151123,0.2150878 0.293946,0.4404299 0.429688,0.6757813 C 38.269531,6.6289059 38.126708,6.4035639 37.975585,6.1884761 37.824462,5.9733883 37.665038,5.7685541 37.49707,5.577148 37.329101,5.3857419 37.152099,5.2082514 36.96582,5.0439449 36.779541,4.8796383 36.583983,4.7285151 36.377929,4.5947261 36.171875,4.4609372 35.954833,4.3449702 35.727538,4.2451168 35.500244,4.1452633 35.262694,4.0615229 35.012695,3.999023 Z m 22.728515,6.025391 c 0.177735,0.564452 0.337891,1.138672 0.486329,1.708984 0.296875,1.140624 0.546875,2.265627 0.796875,3.265625 -0.25,-0.999998 -0.500001,-2.125001 -0.796875,-3.265625 -0.148438,-0.570312 -0.308594,-1.144532 -0.486329,-1.708984 z m 13.246094,13.580078 c 0.483513,0.09518 0.959749,0.196737 1.423828,0.318359 -0.464079,-0.121622 -0.940315,-0.223178 -1.423828,-0.318359 z"
       inkscape:label="Shadow" />
    <path
       d="m 17.000976,3.9990235 c -7.2031005,0 -13.0019525,5.798852 -13.0019525,13.0019525 v 29.998047 c 0,7.203102 5.798852,13.001953 13.0019525,13.001953 h 29.998047 c 7.203102,0 13.001953,-5.798851 13.001953,-13.001953 V 28.971679 c -2.003622,-5.329445 -5.995573,-4.974479 -9.988281,-5.972656 -5.819994,-1.454999 -8.030001,-4.120004 -9,-7.999999 -0.999999,-3.999997 -2.000003,-10.0000015 -6,-11.0000005 z"
       style="fill:url(#linearGradient5);stroke-width:3.7796"
       id="path3-9"
       inkscape:label="Sheet" />
    <rect
       style="display:none;opacity:0.25;fill:none;fill-opacity:1;stroke:#ff00ee;stroke-width:0.1;stroke-linecap:square;stroke-linejoin:round;stroke-dasharray:none;stroke-opacity:1"
       id="rect1-1"
       width="31.62265"
       height="31.622654"
       x="16.188675"
       y="16.188673" />
    <g
       transform="translate(-9.8611318,-3.8718318)"
       id="g26"
       style="stroke:#212121;stroke-opacity:1;fill:#212121;fill-opacity:1">
      <path
         d="m22.663 26.737h38.652"
         fill="#cdcdcd"
         stroke="#deddda"
         stroke-dashoffset="1.125"
         stroke-width=".5"
         id="path12"
         style="fill:#9a9996;stroke:#9a9996;stroke-opacity:1;fill-opacity:1" />
      <path
         d="m22.663 17.246 30.406-0.002399"
         fill="#cdcdcd"
         stroke="#deddda"
         stroke-dashoffset="1.125"
         stroke-width=".5"
         id="path13"
         style="fill:#9a9996;stroke:#9a9996;stroke-opacity:1;fill-opacity:1" />
      <path
         d="m22.663 36.229h38.652"
         fill="#cdcdcd"
         stroke="#deddda"
         stroke-dashoffset="1.125"
         stroke-width=".5"
         id="path14"
         style="fill:#9a9996;stroke:#9a9996;stroke-opacity:1;fill-opacity:1" />
      <path
         d="m22.663 45.72h38.652"
         fill="#cdcdcd"
         stroke="#deddda"
         stroke-dashoffset="1.125"
         stroke-width=".5"
         id="path15"
         style="fill:#9a9996;stroke:#9a9996;stroke-opacity:1;fill-opacity:1" />
      <path
         d="m22.663 55.212h38.652"
         fill="#cdcdcd"
         stroke="#deddda"
         stroke-dashoffset="1.125"
         stroke-width=".5"
         id="path16"
         style="fill:#9a9996;stroke:#9a9996;stroke-opacity:1;fill-opacity:1" />
      <path
         d="m26.962 14.138v44.179"
         fill="#cdcdcd"
         stroke="#a13f12"
         stroke-dashoffset="1.125"
         stroke-width=".5"
         id="path17"
         style="fill:#9a9996;stroke:#9a9996;stroke-opacity:1;fill-opacity:1" />
      <g
         transform="matrix(2.4736 0 0 2.4736 21.879 16.6)"
         fill="#555555"
         stroke-width=".20214"
         id="g25"
         style="stroke:#212121;stroke-opacity:1;fill:#212121;fill-opacity:1">
        <g
           class="UnoptimicedTransforms"
           stroke="#2e3436"
           stroke-dashoffset="1.08"
           stroke-width=".12128"
           aria-label="R"
           id="g17"
           style="stroke:#212121;stroke-opacity:1;fill:#212121;fill-opacity:1" />
        <g
           class="UnoptimicedTransforms"
           transform="translate(179.44 17.941)"
           stroke="#2e3436"
           stroke-dashoffset="1.08"
           stroke-width=".12128"
           aria-label="R"
           id="g18"
           style="stroke:#212121;stroke-opacity:1;fill:#212121;fill-opacity:1" />
        <g
           class="UnoptimicedTransforms"
           transform="translate(205.52 -41.663)"
           stroke="#2e3436"
           stroke-dashoffset="1.08"
           stroke-width=".12128"
           aria-label="R"
           id="g19"
           style="stroke:#212121;stroke-opacity:1;fill:#212121;fill-opacity:1" />
        <g
           class="UnoptimicedTransforms"
           transform="translate(384.96 -23.722)"
           stroke="#2e3436"
           stroke-dashoffset="1.08"
           stroke-width=".12128"
           aria-label="R"
           id="g20"
           style="stroke:#212121;stroke-opacity:1;fill:#212121;fill-opacity:1" />
        <g
           class="UnoptimicedTransforms"
           transform="translate(206.93 -123.5)"
           stroke="#2e3436"
           stroke-dashoffset="1.08"
           stroke-width=".12128"
           aria-label="R"
           id="g21"
           style="stroke:#212121;stroke-opacity:1;fill:#212121;fill-opacity:1" />
        <g
           class="UnoptimicedTransforms"
           transform="translate(386.37 -105.56)"
           stroke="#2e3436"
           stroke-dashoffset="1.08"
           stroke-width=".12128"
           aria-label="R"
           id="g22"
           style="stroke:#212121;stroke-opacity:1;fill:#212121;fill-opacity:1" />
        <g
           class="UnoptimicedTransforms"
           transform="translate(412.45 -165.16)"
           stroke="#2e3436"
           stroke-dashoffset="1.08"
           stroke-width=".12128"
           aria-label="R"
           id="g23"
           style="stroke:#212121;stroke-opacity:1;fill:#212121;fill-opacity:1" />
        <g
           class="UnoptimicedTransforms"
           transform="translate(591.89 -147.22)"
           stroke="#2e3436"
           stroke-dashoffset="1.08"
           stroke-width=".12128"
           aria-label="R"
           id="g24"
           style="stroke:#212121;stroke-opacity:1;fill:#212121;fill-opacity:1" />
        <path
           d="m12.607 3.7157c-0.039079-0.21162 0.36635-1.4548-0.93038-2.1569-0.25745-0.13938-0.58043-0.2663-0.95884-0.35872-0.82099-0.20051-1.904-0.23631-3.0605 0.10923-0.96887 0.28948-1.8922 0.81924-2.6796 1.5516-0.70237 0.65334-1.2712 1.4445-1.6653 2.3186-0.034323 0.076146-0.067228 0.15308-0.098674 0.23077-0.22023 0.54233-0.37058 1.1559-0.39983 1.8039-0.028148 0.62359 0.055042 1.3146 0.33272 1.9962 0.2713 0.58632 0.72621 1.201 1.3847 1.6655 0.39737 0.28078 0.88464 0.51183 1.433 0.62623 0.21294 0.04443 0.44491 0.07247 0.6909 0.07324 0.45312 0.0045 0.88172-0.08485 1.277-0.23049 0.35725-0.13164 0.68322-0.30761 0.97437-0.49586 0.26521-0.17172 0.50595-0.35505 0.71622-0.51606 0.20864-0.15976 0.37884-0.29085 0.55066-0.40631 0.15818-0.10661 0.30276-0.18662 0.43316-0.24053 0.12502-0.051682 0.22203-0.073133 0.29435-0.078801 0.06679-0.013253 0.1222-0.00871 0.14298-0.013539 0.02127-0.013257 0.02597-0.00202 0.0254-0.049168 0.0034-0.042788 0.03083-0.015289 0.04176 0.012398 0.014 0.042328 0.0096 0.11489-0.01919 0.20641-0.04234 0.09403-0.10895 0.19438-0.20506 0.30634-0.10516 0.12251-0.23336 0.24481-0.37394 0.37163-0.03789 0.03413-0.07658 0.06852-0.11566 0.10312-0.11974 0.10603-0.25094 0.21791-0.3867 0.33965-0.18459 0.16553-0.37919 0.351-0.56006 0.5661-0.19287 0.22875-0.36454 0.48946-0.48898 0.7756-0.13313 0.30613-0.21128 0.63976-0.20354 0.98613 0.01142 0.27758 0.080588 0.52973 0.18073 0.74248 0.11637 0.24721 0.2753 0.44398 0.44677 0.58633 0.16571 0.13757 0.33773 0.2186 0.48932 0.25641 0.052915 0.0132 0.10541 0.02056 0.15651 0.02308 0.35365 0.01746 0.58114-0.18495 0.67216-0.24457-0.08943-0.10795-0.16127-0.32666-0.22259-0.55411-0.0083-0.03062-0.01647-0.06095-0.02467-0.0886-0.02412-0.08136-0.04583-0.15917-0.05831-0.23625-0.01258-0.07763-0.02018-0.15964-0.01659-0.23931 0.0032-0.07009 0.01489-0.13615 0.03722-0.19336 0.01978-0.07164 0.05854-0.1594 0.12451-0.25693 0.06389-0.09446 0.15164-0.1954 0.26322-0.29264 0.11203-0.09868 0.24381-0.19517 0.40718-0.30345 0.12406-0.08222 0.24452-0.15721 0.39323-0.25154 0.04646-0.02947 0.09533-0.06091 0.14536-0.09386 0.18084-0.11926 0.40563-0.27764 0.62421-0.47241 0.20113-0.17922 0.42084-0.40992 0.60841-0.70238 0.18008-0.26172 0.3492-0.60292 0.42502-1.0103 0.0704-0.37931 0.05989-0.82541-0.10748-1.2672-0.19725-0.51224-0.5662-0.92007-0.99534-1.1868-0.42839-0.26653-0.90198-0.38953-1.3429-0.41491-0.44988-0.018504-0.86429 0.061584-1.2232 0.17785-0.36579 0.1185-0.69389 0.2811-0.97052 0.44049-0.27342 0.15737-0.53763 0.33447-0.73717 0.46569-0.22875 0.15043-0.403 0.26137-0.57403 0.35196-0.17225 0.090789-0.31746 0.14594-0.43539 0.17238-0.12803 0.028706-0.20333 0.019271-0.24376 0.0034143-0.019266-0.01042-0.040196-0.023613-0.061077-0.039683-0.056613-0.043571-0.10568-0.10906-0.12596-0.17973-0.040679-0.12233-0.044639-0.27029-0.023044-0.40221-0.010989-0.13117 2.868e-4 -0.29746 0.036639-0.48559 0.039116-0.20244 0.10568-0.42321 0.19874-0.65824 0.01343-0.033642 0.027446-0.067197 0.042041-0.10065 0.16887-0.38702 0.43246-0.74962 0.76508-1.0564 0.37322-0.34426 0.79413-0.58354 1.2091-0.73458 0.50159-0.18259 0.99578-0.2379 1.4342-0.2732 0.19917-0.016039 0.3822-0.027896 0.54642-0.047818 0.86434-0.10485 1.4493-0.84046 1.8049-0.92964z"
           id="path24"
           style="stroke:#212121;stroke-opacity:1;fill:#212121;fill-opacity:1" />
      </g>
    </g>
    <path
       d="m 33.300709,4.6539948 c 3.999996,0.999999 5.000001,7.0000042 6,11.0000002 0.969999,3.879996 3.180006,6.545001 9,8 3.992708,0.998177 7.984659,0.64321 9.988281,5.972656 V 29.487979 C 58.040078,22.439251 41.659221,5.8391998 34.087818,4.6891508 c -0.264999,-0.02 -0.528109,-0.03516 -0.787109,-0.03516 z"
       style="display:inline;opacity:0.25;fill:#212121;fill-opacity:1;filter:url(#filter95)"
       id="path5-6"
       inkscape:label="Cornershadow" />
    <path
       d="m 35.012695,3.9990237 c 3.999996,0.999999 5.000001,7.0000043 6,11.0000003 0.969999,3.879996 3.180006,6.545001 9,8 3.992708,0.998177 7.984659,0.64321 9.988281,5.972656 V 28.833008 C 59.752064,21.78428 43.371207,5.1842286 35.799804,4.0341799 c -0.264999,-0.02 -0.528109,-0.035156 -0.787109,-0.035156 z"
       style="display:inline;fill:url(#d)"
       id="path5"
       inkscape:label="Corner" />
  </g>
</svg>
