<?xml version="1.0" encoding="UTF-8" standalone="no"?>
<svg
   viewBox="0 0 64 64"
   version="1.1"
   id="svg34"
   sodipodi:docname="application-x-freeplane.svg"
   inkscape:version="1.4.3 (0d15f75042, 2025-12-25)"
   xmlns:inkscape="http://www.inkscape.org/namespaces/inkscape"
   xmlns:sodipodi="http://sodipodi.sourceforge.net/DTD/sodipodi-0.dtd"
   xmlns:xlink="http://www.w3.org/1999/xlink"
   xmlns="http://www.w3.org/2000/svg"
   xmlns:svg="http://www.w3.org/2000/svg">
  <sodipodi:namedview
     id="namedview34"
     pagecolor="#ffffff"
     bordercolor="#111111"
     borderopacity="1"
     inkscape:showpageshadow="0"
     inkscape:pageopacity="0"
     inkscape:pagecheckerboard="1"
     inkscape:deskcolor="#d1d1d1"
     inkscape:zoom="17.6875"
     inkscape:cx="31.971731"
     inkscape:cy="32"
     inkscape:window-width="2560"
     inkscape:window-height="1371"
     inkscape:window-x="0"
     inkscape:window-y="0"
     inkscape:window-maximized="1"
     inkscape:current-layer="svg34" />
  <defs
     id="defs6">
    <linearGradient
       xlink:href="#a"
       id="b"
       x1="7.937"
       x2="7.937"
       y1="15.346"
       y2="16.933"
       gradientUnits="userSpaceOnUse" />
    <linearGradient
       id="a">
      <stop
         offset="0"
         id="stop1" />
      <stop
         offset="1"
         stop-opacity="0"
         id="stop2" />
    </linearGradient>
    <linearGradient
       xlink:href="#a"
       id="d"
       x1="43"
       x2="46.748"
       y1="12"
       y2="8.252"
       gradientUnits="userSpaceOnUse" />
    <linearGradient
       xlink:href="#a"
       id="f"
       x1="5.821"
       x2="5.821"
       y1="1.058"
       gradientUnits="userSpaceOnUse" />
    <linearGradient
       xlink:href="#a"
       id="h"
       x1="13.758"
       x2="15.081"
       y1="10.583"
       y2="10.583"
       gradientUnits="userSpaceOnUse" />
    <linearGradient
       xlink:href="#a"
       id="i"
       x1="3.175"
       x2="1.852"
       y1="8.466"
       y2="8.466"
       gradientUnits="userSpaceOnUse" />
    <linearGradient
       xlink:href="#a"
       id="l"
       x1="7.937"
       x2="7.937"
       y1="15.346"
       y2="16.668"
       gradientUnits="userSpaceOnUse" />
    <linearGradient
       xlink:href="#a"
       id="n"
       x1="43"
       x2="46.004"
       y1="12"
       y2="8.996"
       gradientUnits="userSpaceOnUse" />
    <linearGradient
       xlink:href="#a"
       id="p"
       x1="5.821"
       x2="5.821"
       y1="1.058"
       y2=".265"
       gradientUnits="userSpaceOnUse" />
    <linearGradient
       xlink:href="#a"
       id="r"
       x1="13.758"
       x2="14.816"
       y1="10.583"
       y2="10.583"
       gradientUnits="userSpaceOnUse" />
    <linearGradient
       xlink:href="#a"
       id="s"
       x1="3.175"
       x2="2.117"
       y1="8.466"
       y2="8.466"
       gradientUnits="userSpaceOnUse" />
    <linearGradient
       id="v"
       x1="21.039"
       x2="21.039"
       y1="2"
       y2="62"
       gradientTransform="translate(45.221 -.507)scale(.26458)"
       gradientUnits="userSpaceOnUse">
      <stop
         offset="0"
         stop-color="#f9d351"
         id="stop3" />
      <stop
         offset="1"
         stop-color="#f89137"
         id="stop4" />
    </linearGradient>
    <linearGradient
       xlink:href="#a"
       id="z"
       x1="10.583"
       x2="6.35"
       y1="3.175"
       y2="3.175"
       gradientTransform="matrix(1 0 0 .66667 45.221 1.169)"
       gradientUnits="userSpaceOnUse" />
    <linearGradient
       xlink:href="#a"
       id="A"
       x1="10.583"
       x2="8.731"
       y1="3.043"
       y2="3.043"
       gradientTransform="matrix(1 0 0 .66667 45.221 1.169)"
       gradientUnits="userSpaceOnUse" />
    <linearGradient
       xlink:href="#a"
       id="D"
       x1="10.583"
       x2="6.35"
       y1="3.175"
       y2="3.175"
       gradientTransform="matrix(1 0 0 .66667 -14.574 54.57)"
       gradientUnits="userSpaceOnUse" />
    <linearGradient
       xlink:href="#a"
       id="E"
       x1="10.583"
       x2="8.724"
       y1="3.043"
       y2="3.043"
       gradientTransform="matrix(1 0 0 .66667 -14.574 54.57)"
       gradientUnits="userSpaceOnUse" />
    <linearGradient
       id="G"
       x1="40"
       x2="46"
       y1="17"
       y2="11"
       gradientTransform="translate(45.221 -.507)scale(.26458)"
       gradientUnits="userSpaceOnUse">
      <stop
         offset="0"
         stop-color="#fefefe"
         id="stop5" />
      <stop
         offset="1"
         stop-color="#e9e9e9"
         id="stop6" />
    </linearGradient>
    <radialGradient
       xlink:href="#a"
       id="c"
       cx="35"
       cy="4"
       r="3.728"
       gradientTransform="matrix(1.696 0 0 1.0731 -24.361 -.292)"
       gradientUnits="userSpaceOnUse" />
    <radialGradient
       xlink:href="#a"
       id="e"
       cx="52"
       cy="22"
       r="5.206"
       gradientTransform="matrix(.96042 0 0 1.3331 2.058 -7.328)"
       gradientUnits="userSpaceOnUse" />
    <radialGradient
       xlink:href="#a"
       id="g"
       cx="3.175"
       cy="1.323"
       r=".794"
       gradientTransform="matrix(0 -1.3333 1.6667 0 .97 5.292)"
       gradientUnits="userSpaceOnUse" />
    <radialGradient
       xlink:href="#a"
       id="j"
       cx="13.758"
       cy="15.346"
       r=".794"
       gradientTransform="matrix(0 2 -1.6667 0 39.334 -12.171)"
       gradientUnits="userSpaceOnUse" />
    <radialGradient
       xlink:href="#a"
       id="k"
       cx="3.175"
       cy="15.346"
       r=".794"
       gradientTransform="matrix(-1.6667 0 0 -2 8.466 46.037)"
       gradientUnits="userSpaceOnUse" />
    <radialGradient
       xlink:href="#a"
       id="m"
       cx="35"
       cy="4"
       r="3.728"
       gradientTransform="matrix(1.6115 0 0 .80482 -21.403 .78)"
       gradientUnits="userSpaceOnUse" />
    <radialGradient
       xlink:href="#a"
       id="o"
       cx="52"
       cy="22"
       r="5.206"
       gradientTransform="matrix(.76834 0 0 1.2272 12.047 -4.999)"
       gradientUnits="userSpaceOnUse" />
    <radialGradient
       xlink:href="#a"
       id="q"
       cx="3.175"
       cy="1.323"
       r=".794"
       gradientTransform="matrix(0 -1 1.3333 0 1.411 4.233)"
       gradientUnits="userSpaceOnUse" />
    <radialGradient
       xlink:href="#a"
       id="t"
       cx="13.758"
       cy="15.346"
       r=".794"
       gradientTransform="matrix(0 1.6667 -1.3333 0 34.219 -7.585)"
       gradientUnits="userSpaceOnUse" />
    <radialGradient
       xlink:href="#a"
       id="u"
       cx="3.175"
       cy="15.346"
       r=".794"
       gradientTransform="matrix(-1.3333 0 0 -1.6667 7.408 40.921)"
       gradientUnits="userSpaceOnUse" />
    <radialGradient
       xlink:href="#a"
       id="w"
       cx="40"
       cy="12"
       r="8"
       gradientTransform="matrix(.39687 0 0 -.52916 41.517 10.341)"
       gradientUnits="userSpaceOnUse" />
    <radialGradient
       xlink:href="#a"
       id="x"
       cx="10.583"
       cy="4.233"
       r="2.117"
       gradientTransform="matrix(-2 0 0 -2 76.971 12.457)"
       gradientUnits="userSpaceOnUse" />
    <radialGradient
       xlink:href="#a"
       id="y"
       cx="40"
       cy="12"
       r="8"
       gradientTransform="matrix(0 -.39687 .52916 0 49.455 18.278)"
       gradientUnits="userSpaceOnUse" />
    <radialGradient
       xlink:href="#a"
       id="B"
       cx="10.583"
       cy="4.233"
       r="2.117"
       gradientTransform="matrix(-.875 0 0 -.87849 65.065 7.71)"
       gradientUnits="userSpaceOnUse" />
    <radialGradient
       xlink:href="#a"
       id="C"
       cx="40"
       cy="12"
       r="8"
       gradientTransform="matrix(0 -.34601 .23278 0 53.011 16.244)"
       gradientUnits="userSpaceOnUse" />
    <radialGradient
       xlink:href="#a"
       id="F"
       cx="40"
       cy="12"
       r="8"
       gradientTransform="matrix(.3793 0 0 -.23243 42.22 6.78)"
       gradientUnits="userSpaceOnUse" />
    <filter
       inkscape:collect="always"
       style="color-interpolation-filters:sRGB"
       id="filter94"
       x="-0.069119996"
       y="-0.069119996"
       width="1.13824"
       height="1.13824">
      <feGaussianBlur
         inkscape:collect="always"
         stdDeviation="1.6128562"
         id="feGaussianBlur94" />
    </filter>
    <linearGradient
       inkscape:collect="always"
       xlink:href="#linearGradient862-3"
       id="linearGradient5"
       gradientUnits="userSpaceOnUse"
       gradientTransform="matrix(3.7796,0,0,3.7796,-9.765e-4,0.0302735)"
       x1="7.9373002"
       y1="15.081"
       x2="7.9373002"
       y2="1.852" />
    <linearGradient
       id="linearGradient862-3"
       x1="7.9373002"
       x2="7.9373002"
       y1="15.081"
       y2="1.852"
       gradientTransform="scale(3.7796)"
       gradientUnits="userSpaceOnUse"
       xlink:href="#linearGradient92">
      <stop
         stop-color="#f1efeb"
         offset="0"
         id="stop1-8" />
      <stop
         stop-color="#fdfcfc"
         offset="1"
         id="stop2-6" />
    </linearGradient>
    <linearGradient
       id="linearGradient92"
       x1="7.9373002"
       x2="7.9373002"
       y1="15.081"
       y2="1.852"
       gradientTransform="scale(3.7796)"
       gradientUnits="userSpaceOnUse"
       spreadMethod="pad">
      <stop
         stop-color="#f1efeb"
         offset="0"
         id="stop91"
         style="stop-color:#695e49;stop-opacity:1;" />
      <stop
         stop-color="#fdfcfc"
         offset="1"
         id="stop92" />
    </linearGradient>
    <filter
       inkscape:collect="always"
       style="color-interpolation-filters:sRGB"
       id="filter95"
       x="-0.14695404"
       y="-0.14704597"
       width="1.2939081"
       height="1.2940919">
      <feGaussianBlur
         inkscape:collect="always"
         stdDeviation="1.5300537"
         id="feGaussianBlur95" />
    </filter>
    <linearGradient
       id="d-8"
       x1="45"
       x2="60.076"
       y1="19"
       y2="3.924"
       gradientTransform="translate(0.01285182,-0.00112622)"
       gradientUnits="userSpaceOnUse">
      <stop
         offset="0"
         stop-color="#fff"
         id="stop5-8" />
      <stop
         offset="1"
         stop-color="#b3b3b3"
         id="stop6-4" />
    </linearGradient>
  </defs>
  <g
     id="g1"
     transform="translate(-0.12816816,-0.12816816)">
    <path
       id="path3-9-5"
       style="opacity:0.25;fill:#212121;fill-opacity:1;stroke-width:3.7796;filter:url(#filter94)"
       d="m 17.000976,3.999023 c -7.203094,0 -13.001953,5.798859 -13.001953,13.001953 v 29.998047 c 0,7.203095 5.798859,13.001953 13.001953,13.001953 h 29.998047 c 7.203095,0 13.001953,-5.798858 13.001953,-13.001953 V 28.971679 c -0.125226,-0.33309 -0.258163,-0.643195 -0.398438,-0.933593 -0.140274,-0.290399 -0.289006,-0.559404 -0.443359,-0.810547 -0.154353,-0.251144 -0.314961,-0.483894 -0.482422,-0.699219 -0.16746,-0.215325 -0.341887,-0.414714 -0.521484,-0.597656 -0.179598,-0.182943 -0.363924,-0.34991 -0.554688,-0.503907 -0.190764,-0.153996 -0.38693,-0.293388 -0.58789,-0.421875 -0.200961,-0.128487 -0.407002,-0.245149 -0.617188,-0.351562 0.210186,0.106413 0.416227,0.223075 0.617188,0.351562 0.20096,0.128487 0.397126,0.267879 0.58789,0.421875 0.190764,0.153997 0.37509,0.320964 0.554688,0.503907 0.179597,0.182942 0.354024,0.382331 0.521484,0.597656 0.167461,0.215325 0.328069,0.448075 0.482422,0.699219 0.154353,0.251143 0.303085,0.520148 0.443359,0.810547 0.140275,0.290398 0.273212,0.600503 0.398438,0.933593 V 28.833007 C 59.752064,21.784286 43.371199,5.1842268 35.799804,4.0341792 c -0.264999,-0.02 -0.52811,-0.035156 -0.787109,-0.035156 0.249999,0.0625 0.487549,0.1462404 0.714843,0.2460938 0.227295,0.099853 0.444337,0.2158204 0.650391,0.3496093 0.206054,0.133789 0.401612,0.2849123 0.587891,0.4492188 0.186279,0.1643065 0.363281,0.341797 0.53125,0.5332031 0.167968,0.1914061 0.327392,0.3962404 0.478515,0.6113281 0.151123,0.2150878 0.293946,0.4404299 0.429688,0.6757813 C 38.269531,6.6289059 38.126708,6.4035639 37.975585,6.1884761 37.824462,5.9733883 37.665038,5.7685541 37.49707,5.577148 37.329101,5.3857419 37.152099,5.2082514 36.96582,5.0439449 36.779541,4.8796383 36.583983,4.7285151 36.377929,4.5947261 36.171875,4.4609372 35.954833,4.3449702 35.727538,4.2451168 35.500244,4.1452633 35.262694,4.0615229 35.012695,3.999023 Z m 22.728515,6.025391 c 0.177735,0.564452 0.337891,1.138672 0.486329,1.708984 0.296875,1.140624 0.546875,2.265627 0.796875,3.265625 -0.25,-0.999998 -0.500001,-2.125001 -0.796875,-3.265625 -0.148438,-0.570312 -0.308594,-1.144532 -0.486329,-1.708984 z m 13.246094,13.580078 c 0.483513,0.09518 0.959749,0.196737 1.423828,0.318359 -0.464079,-0.121622 -0.940315,-0.223178 -1.423828,-0.318359 z"
       inkscape:label="Shadow" />
    <path
       d="m 17.000976,3.9990235 c -7.2031005,0 -13.0019525,5.798852 -13.0019525,13.0019525 v 29.998047 c 0,7.203102 5.798852,13.001953 13.0019525,13.001953 h 29.998047 c 7.203102,0 13.001953,-5.798851 13.001953,-13.001953 V 28.971679 c -2.003622,-5.329445 -5.995573,-4.974479 -9.988281,-5.972656 -5.819994,-1.454999 -8.030001,-4.120004 -9,-7.999999 -0.999999,-3.999997 -2.000003,-10.0000015 -6,-11.0000005 z"
       style="fill:url(#linearGradient5);stroke-width:3.7796"
       id="path3-9"
       inkscape:label="Sheet" />
    <rect
       style="display:none;opacity:0.25;fill:none;fill-opacity:1;stroke:#ff00ee;stroke-width:0.1;stroke-linecap:square;stroke-linejoin:round;stroke-dasharray:none;stroke-opacity:1"
       id="rect1"
       width="31.62265"
       height="31.622654"
       x="16.188675"
       y="16.188673" />
    <path
       d="m 33.300709,4.6539948 c 3.999996,0.999999 5.000001,7.0000042 6,11.0000002 0.969999,3.879996 3.180006,6.545001 9,8 3.992708,0.998177 7.984659,0.64321 9.988281,5.972656 V 29.487979 C 58.040078,22.439251 41.659221,5.8391998 34.087818,4.6891508 c -0.264999,-0.02 -0.528109,-0.03516 -0.787109,-0.03516 z"
       style="display:inline;opacity:0.25;fill:#212121;fill-opacity:1;filter:url(#filter95)"
       id="path5-6"
       inkscape:label="Cornershadow" />
    <path
       d="m 35.012695,3.9990237 c 3.999996,0.999999 5.000001,7.0000043 6,11.0000003 0.969999,3.879996 3.180006,6.545001 9,8 3.992708,0.998177 7.984659,0.64321 9.988281,5.972656 V 28.833008 C 59.752064,21.78428 43.371207,5.1842286 35.799804,4.0341799 c -0.264999,-0.02 -0.528109,-0.035156 -0.787109,-0.035156 z"
       style="display:inline;fill:url(#d-8)"
       id="path5"
       inkscape:label="Corner" />
  </g>
  <path
     fill="#fff"
     d="m 31.999,21.2 c -3.15,0 -5.73,1.944 -5.977,4.413 -2.292,-1.033 -4.284,-1.514 -5.711,-1.614 l 0.007,-0.003 c -1.866,-0.132 -3.082,0.318 -3.626,1.242 -0.548,0.928 -0.366,2.165 0.68,3.685 1.041,1.514 3.173,3.51 6.375,5.32 0.048,0.027 0.091,0.046 0.138,0.07 -1.422,0.652 -2.605,1.328 -3.45,1.971 -1.66,1.262 -2.3,2.5 -1.704,3.488 0.595,0.989 2.295,1.533 4.784,1.64 1.006,0.045 2.227,-0.035 3.522,-0.173 A 6,9 0 0 0 32,45.2 6,9 0 0 0 36.962,41.241 c 1.296,0.139 2.518,0.218 3.525,0.174 2.489,-0.108 4.188,-0.652 4.783,-1.64 0.596,-0.99 -0.044,-2.227 -1.704,-3.488 -0.844,-0.644 -2.027,-1.32 -3.45,-1.971 0.047,-0.025 0.09,-0.044 0.139,-0.07 3.201,-1.81 5.333,-3.807 6.375,-5.321 1.045,-1.52 1.228,-2.757 0.68,-3.684 -0.544,-0.924 -1.76,-1.377 -3.626,-1.245 l 0.007,0.003 c -1.428,0.1 -3.42,0.581 -5.712,1.614 C 37.732,23.143 35.15,21.2 32,21.2 Z m -3.6,2.4 c 0.663,0 1.2,0.806 1.2,1.8 0,0.994 -0.537,1.8 -1.2,1.8 -0.663,0 -1.2,-0.806 -1.2,-1.8 0,-0.994 0.537,-1.8 1.2,-1.8 m 7.2,0 c 0.663,0 1.2,0.806 1.2,1.8 0,0.994 -0.537,1.8 -1.2,1.8 -0.663,0 -1.2,-0.806 -1.2,-1.8 0,-0.994 0.537,-1.8 1.2,-1.8 m -13.966,2.283 q 0.28,0 0.579,0.023 c 1.17,0.094 2.525,0.469 3.919,1.085 0.26,0.978 0.896,1.875 1.837,2.557 a 6,9 0 0 0 -1.633,3.765 q -0.727,0.26 -1.395,0.532 a 47,47 0 0 0 -0.6,-0.347 c -3.801,-2.157 -6.515,-4.718 -5.475,-6.48 0.456,-0.776 1.46,-1.14 2.768,-1.135 m 20.735,0 c 1.308,-0.005 2.312,0.36 2.768,1.134 1.04,1.763 -1.673,4.327 -5.475,6.483 -0.158,0.089 -0.382,0.22 -0.6,0.347 q -0.667,-0.274 -1.395,-0.535 a 6,9 0 0 0 -1.635,-3.766 c 0.94,-0.682 1.58,-1.577 1.84,-2.555 1.393,-0.616 2.749,-0.991 3.918,-1.085 q 0.298,-0.023 0.58,-0.023 z M 32.133,29.6 A 4.935,7.2 0 0 1 36.6,33.753 C 35.33,32.797 33.64,32 32,32 c -1.482,0 -3.055,0.761 -4.269,1.566 A 4.935,7.2 0 0 1 32.133,29.6 m -5.932,4.36 a 6,9 0 0 0 -0.202,2.24 6,9 0 0 0 0.788,4.409 c -2.904,0.111 -5.16,-0.372 -5.834,-1.484 -0.898,-1.494 1.394,-3.598 5.248,-5.166 m 11.599,0 c 3.854,1.567 6.146,3.673 5.248,5.167 -0.673,1.113 -2.93,1.596 -5.834,1.484 A 6,9 0 0 0 37.999,36.2 6,9 0 0 0 37.8,33.959 m -5.8,0.44 c 2,0 3.774,0.721 5.034,1.603 a 4.935,7.2 0 0 1 0.035,0.797 4.935,7.2 0 0 1 -0.042,0.87 c -1.37,-1.181 -3.2,-2.07 -5.028,-2.07 -1.628,0 -3.437,0.859 -4.772,1.9 a 4.935,7.2 0 0 1 -0.028,-0.7 4.935,7.2 0 0 1 0.054,-0.991 8.84,8.84 0 0 1 4.746,-1.409 m 0,3.6 c 1.739,0 3.951,0.863 4.598,1.854 a 4.935,7.2 0 0 1 -0.375,0.977 c -0.884,-0.827 -2.874,-1.623 -4.224,-1.629 -1.201,-0.005 -3.075,0.62 -4.045,1.416 a 4.935,7.2 0 0 1 -0.359,-1.013 c 0.824,-0.881 2.812,-1.603 4.404,-1.603 z m 0,3.6 c 1.322,0 2.123,0.422 3.105,0.94 a 4.935,7.2 0 0 1 -2.972,1.46 4.935,7.2 0 0 1 -3.054,-1.556 c 0.9,-0.473 1.68,-0.844 2.92,-0.844"
     id="path34"
     style="fill:#212121" />
</svg>
