<?xml version="1.0" encoding="UTF-8" standalone="no"?>
<svg
   width="64"
   height="64"
   version="1.1"
   id="svg6"
   sodipodi:docname="image-x-compressed-xcf.svg"
   inkscape:version="1.4.3 (0d15f75042, 2025-12-25)"
   xmlns:inkscape="http://www.inkscape.org/namespaces/inkscape"
   xmlns:sodipodi="http://sodipodi.sourceforge.net/DTD/sodipodi-0.dtd"
   xmlns:xlink="http://www.w3.org/1999/xlink"
   xmlns="http://www.w3.org/2000/svg"
   xmlns:svg="http://www.w3.org/2000/svg">
  <sodipodi:namedview
     id="namedview6"
     pagecolor="#ffffff"
     bordercolor="#111111"
     borderopacity="1"
     inkscape:showpageshadow="0"
     inkscape:pageopacity="0"
     inkscape:pagecheckerboard="1"
     inkscape:deskcolor="#d1d1d1"
     inkscape:zoom="17.6875"
     inkscape:cx="31.971731"
     inkscape:cy="32"
     inkscape:window-width="2560"
     inkscape:window-height="1371"
     inkscape:window-x="0"
     inkscape:window-y="0"
     inkscape:window-maximized="1"
     inkscape:current-layer="g1" />
  <defs
     id="defs4">
    <linearGradient
       id="b"
       x1="40"
       x2="46"
       y1="17"
       y2="11"
       gradientTransform="translate(-.021 -1)"
       gradientUnits="userSpaceOnUse">
      <stop
         offset="0"
         stop-color="#fefefe"
         id="stop1" />
      <stop
         offset="1"
         stop-color="#e9e9e9"
         id="stop2" />
    </linearGradient>
    <linearGradient
       id="a"
       x1="45.801"
       x2="9.802"
       y1="10"
       y2="61"
       gradientTransform="translate(.198 -1)"
       gradientUnits="userSpaceOnUse">
      <stop
         offset="0"
         stop-color="#ededed"
         id="stop3" />
      <stop
         offset="1"
         stop-color="#fcfcfc"
         id="stop4" />
    </linearGradient>
    <filter
       inkscape:collect="always"
       style="color-interpolation-filters:sRGB"
       id="filter94"
       x="-0.069119996"
       y="-0.069119996"
       width="1.13824"
       height="1.13824">
      <feGaussianBlur
         inkscape:collect="always"
         stdDeviation="1.6128562"
         id="feGaussianBlur94" />
    </filter>
    <linearGradient
       inkscape:collect="always"
       xlink:href="#linearGradient862-3"
       id="linearGradient5"
       gradientUnits="userSpaceOnUse"
       gradientTransform="matrix(3.7796,0,0,3.7796,-9.765e-4,0.0302735)"
       x1="7.9373002"
       y1="15.081"
       x2="7.9373002"
       y2="1.852" />
    <linearGradient
       id="linearGradient862-3"
       x1="7.9373002"
       x2="7.9373002"
       y1="15.081"
       y2="1.852"
       gradientTransform="scale(3.7796)"
       gradientUnits="userSpaceOnUse"
       xlink:href="#linearGradient92">
      <stop
         stop-color="#f1efeb"
         offset="0"
         id="stop1-3" />
      <stop
         stop-color="#fdfcfc"
         offset="1"
         id="stop2-6" />
    </linearGradient>
    <linearGradient
       id="linearGradient92"
       x1="7.9373002"
       x2="7.9373002"
       y1="15.081"
       y2="1.852"
       gradientTransform="scale(3.7796)"
       gradientUnits="userSpaceOnUse"
       spreadMethod="pad">
      <stop
         stop-color="#f1efeb"
         offset="0"
         id="stop91"
         style="stop-color:#695e49;stop-opacity:1;" />
      <stop
         stop-color="#fdfcfc"
         offset="1"
         id="stop92" />
    </linearGradient>
    <filter
       inkscape:collect="always"
       style="color-interpolation-filters:sRGB"
       id="filter95"
       x="-0.14695404"
       y="-0.14704597"
       width="1.2939081"
       height="1.2940919">
      <feGaussianBlur
         inkscape:collect="always"
         stdDeviation="1.5300537"
         id="feGaussianBlur95" />
    </filter>
    <linearGradient
       id="d"
       x1="45"
       x2="60.076"
       y1="19"
       y2="3.924"
       gradientTransform="translate(0.01285182,-0.00112622)"
       gradientUnits="userSpaceOnUse">
      <stop
         offset="0"
         stop-color="#fff"
         id="stop5" />
      <stop
         offset="1"
         stop-color="#b3b3b3"
         id="stop6" />
    </linearGradient>
  </defs>
  <g
     id="svg2"
     transform="translate(-0.12816816,-0.12816816)">
    <g
       id="g1">
      <path
         id="path3-9-5"
         style="opacity:0.25;fill:#212121;fill-opacity:1;stroke-width:3.7796;filter:url(#filter94)"
         d="m 17.000976,3.999023 c -7.203094,0 -13.001953,5.798859 -13.001953,13.001953 v 29.998047 c 0,7.203095 5.798859,13.001953 13.001953,13.001953 h 29.998047 c 7.203095,0 13.001953,-5.798858 13.001953,-13.001953 V 28.971679 c -0.125226,-0.33309 -0.258163,-0.643195 -0.398438,-0.933593 -0.140274,-0.290399 -0.289006,-0.559404 -0.443359,-0.810547 -0.154353,-0.251144 -0.314961,-0.483894 -0.482422,-0.699219 -0.16746,-0.215325 -0.341887,-0.414714 -0.521484,-0.597656 -0.179598,-0.182943 -0.363924,-0.34991 -0.554688,-0.503907 -0.190764,-0.153996 -0.38693,-0.293388 -0.58789,-0.421875 -0.200961,-0.128487 -0.407002,-0.245149 -0.617188,-0.351562 0.210186,0.106413 0.416227,0.223075 0.617188,0.351562 0.20096,0.128487 0.397126,0.267879 0.58789,0.421875 0.190764,0.153997 0.37509,0.320964 0.554688,0.503907 0.179597,0.182942 0.354024,0.382331 0.521484,0.597656 0.167461,0.215325 0.328069,0.448075 0.482422,0.699219 0.154353,0.251143 0.303085,0.520148 0.443359,0.810547 0.140275,0.290398 0.273212,0.600503 0.398438,0.933593 V 28.833007 C 59.752064,21.784286 43.371199,5.1842268 35.799804,4.0341792 c -0.264999,-0.02 -0.52811,-0.035156 -0.787109,-0.035156 0.249999,0.0625 0.487549,0.1462404 0.714843,0.2460938 0.227295,0.099853 0.444337,0.2158204 0.650391,0.3496093 0.206054,0.133789 0.401612,0.2849123 0.587891,0.4492188 0.186279,0.1643065 0.363281,0.341797 0.53125,0.5332031 0.167968,0.1914061 0.327392,0.3962404 0.478515,0.6113281 0.151123,0.2150878 0.293946,0.4404299 0.429688,0.6757813 C 38.269531,6.6289059 38.126708,6.4035639 37.975585,6.1884761 37.824462,5.9733883 37.665038,5.7685541 37.49707,5.577148 37.329101,5.3857419 37.152099,5.2082514 36.96582,5.0439449 36.779541,4.8796383 36.583983,4.7285151 36.377929,4.5947261 36.171875,4.4609372 35.954833,4.3449702 35.727538,4.2451168 35.500244,4.1452633 35.262694,4.0615229 35.012695,3.999023 Z m 22.728515,6.025391 c 0.177735,0.564452 0.337891,1.138672 0.486329,1.708984 0.296875,1.140624 0.546875,2.265627 0.796875,3.265625 -0.25,-0.999998 -0.500001,-2.125001 -0.796875,-3.265625 -0.148438,-0.570312 -0.308594,-1.144532 -0.486329,-1.708984 z m 13.246094,13.580078 c 0.483513,0.09518 0.959749,0.196737 1.423828,0.318359 -0.464079,-0.121622 -0.940315,-0.223178 -1.423828,-0.318359 z"
         inkscape:label="Shadow" />
      <path
         d="m 17.000976,3.9990235 c -7.2031005,0 -13.0019525,5.798852 -13.0019525,13.0019525 v 29.998047 c 0,7.203102 5.798852,13.001953 13.0019525,13.001953 h 29.998047 c 7.203102,0 13.001953,-5.798851 13.001953,-13.001953 V 28.971679 c -2.003622,-5.329445 -5.995573,-4.974479 -9.988281,-5.972656 -5.819994,-1.454999 -8.030001,-4.120004 -9,-7.999999 -0.999999,-3.999997 -2.000003,-10.0000015 -6,-11.0000005 z"
         style="fill:url(#linearGradient5);stroke-width:3.7796"
         id="path3-9"
         inkscape:label="Sheet" />
      <rect
         style="display:none;opacity:0.25;fill:none;fill-opacity:1;stroke:#ff00ee;stroke-width:0.1;stroke-linecap:square;stroke-linejoin:round;stroke-dasharray:none;stroke-opacity:1"
         id="rect1"
         width="31.62265"
         height="31.622654"
         x="16.188675"
         y="16.188673" />
      <path
         fill="#67614f"
         d="m 44.20923,19.425842 a 0.2,0.2 0 0 0 -0.148,0.01 c -0.12,0.059 -0.227,0.25 -0.33,0.562 -0.246,0.735 -1.817,5.307 -9.838,6.54 a 3.99,3.99 0 0 1 2.17,3.548 3.99,3.99 0 0 1 -3.989,3.988 3.99,3.99 0 0 1 -3.629,-2.344 3.17,3.17 0 0 1 -2.66,1.457 3.165,3.165 0 0 1 -3.142,-2.806 3.2,3.2 0 0 1 -0.395,0.621 c -0.061,-0.096 -0.099,-0.204 -0.166,-0.297 a 5.9,5.9 0 0 0 -1.39,-1.389 c -0.583,-0.405 -1.19,-0.672 -1.788,-0.76 -0.69,-0.1 -1.357,0.049 -1.886,0.43 -0.53,0.382 -0.84,0.967 -0.961,1.653 -0.105,0.594 -0.069,1.238 0.132,1.918 0.175,0.591 0.456,1.187 0.862,1.75 a 6,6 0 0 0 1.521,1.488 c 0.63,0.414 1.299,0.656 1.953,0.693 0.203,0.012 0.41,-0.038 0.596,-0.066 4.241,3.356 12.66,6.489 18.24,2.908 0.121,0.041 0.242,0.091 0.364,0.133 0.003,0.057 -0.015,0.115 0,0.166 l 0.265,-0.1 c 0.047,0.015 0.083,0.053 0.131,0.067 0.01,0.003 0.023,-0.003 0.033,0 l 0.1,0.097 2.516,0.893 c -0.104,0.872 0.329,1.863 1.423,2.281 a 40,40 0 0 1 3.807,1.717 c -0.94,-3.186 -1.283,-5.743 -3.74,-5.518 -0.457,0.042 -0.802,0.23 -1.059,0.496 l -2.219,-1.421 h -0.1 l -0.032,-0.034 c 2.986,-2.934 4.732,-8.448 3.673,-18.043 -0.046,-0.36 -0.17,-0.588 -0.314,-0.638 m -21.266,2.918 -0.132,5.949 c 0,0 0.051,0.183 0.093,0.43 a 3.17,3.17 0 0 1 2.881,-1.866 3.17,3.17 0 0 1 2.695,1.512 4,4 0 0 1 1.315,-1.549 c -4.792,-0.253 -6.852,-4.476 -6.852,-4.476 m 3.332,5.906 a 2.216,2.174 0 0 0 -0.66,0.1 1.097,1.076 0 0 1 0.639,0.976 1.097,1.076 0 0 1 -1.098,1.076 1.097,1.076 0 0 1 -0.996,-0.625 2.216,2.174 0 0 0 -0.101,0.647 2.216,2.174 0 0 0 2.216,2.174 2.216,2.174 0 0 0 2.215,-2.174 2.216,2.174 0 0 0 -2.215,-2.174 m 6.668,0.422 a 2.216,2.174 0 0 0 -0.66,0.1 1.097,1.076 0 0 1 0.639,0.976 1.097,1.076 0 0 1 -1.098,1.076 1.097,1.076 0 0 1 -0.994,-0.625 2.216,2.174 0 0 0 -0.101,0.647 2.216,2.174 0 0 0 2.214,2.174 2.216,2.174 0 0 0 2.217,-2.174 2.216,2.174 0 0 0 -2.217,-2.174 m -14.425,1.308 a 1.152,1.287 0 0 1 1.152,1.288 1.152,1.287 0 0 1 -1.152,1.287 1.152,1.287 0 0 1 -1.153,-1.287 1.152,1.287 0 0 1 1.153,-1.288"
         color="#212121"
         overflow="visible"
         style="isolation:auto;mix-blend-mode:normal;fill:#212121"
         id="path6"
         transform="translate(0.12816816,0.12816816)" />
      <path
         d="m 33.300709,4.6539948 c 3.999996,0.999999 5.000001,7.0000042 6,11.0000002 0.969999,3.879996 3.180006,6.545001 9,8 3.992708,0.998177 7.984659,0.64321 9.988281,5.972656 V 29.487979 C 58.040078,22.439251 41.659221,5.8391998 34.087818,4.6891508 c -0.264999,-0.02 -0.528109,-0.03516 -0.787109,-0.03516 z"
         style="display:inline;opacity:0.25;fill:#212121;fill-opacity:1;filter:url(#filter95)"
         id="path5-6"
         inkscape:label="Cornershadow" />
      <path
         d="m 35.012695,3.9990237 c 3.999996,0.999999 5.000001,7.0000043 6,11.0000003 0.969999,3.879996 3.180006,6.545001 9,8 3.992708,0.998177 7.984659,0.64321 9.988281,5.972656 V 28.833008 C 59.752064,21.78428 43.371207,5.1842286 35.799804,4.0341799 c -0.264999,-0.02 -0.528109,-0.035156 -0.787109,-0.035156 z"
         style="display:inline;fill:url(#d)"
         id="path5"
         inkscape:label="Corner" />
    </g>
  </g>
</svg>
