<?xml version="1.0" encoding="UTF-8" standalone="no"?>
<svg
   width="64"
   height="64"
   version="1.1"
   id="svg7"
   sodipodi:docname="text-wiki.svg"
   inkscape:version="1.4.3 (0d15f75042, 2025-12-25)"
   xmlns:inkscape="http://www.inkscape.org/namespaces/inkscape"
   xmlns:sodipodi="http://sodipodi.sourceforge.net/DTD/sodipodi-0.dtd"
   xmlns:xlink="http://www.w3.org/1999/xlink"
   xmlns="http://www.w3.org/2000/svg"
   xmlns:svg="http://www.w3.org/2000/svg">
  <sodipodi:namedview
     id="namedview7"
     pagecolor="#ffffff"
     bordercolor="#111111"
     borderopacity="1"
     inkscape:showpageshadow="0"
     inkscape:pageopacity="0"
     inkscape:pagecheckerboard="1"
     inkscape:deskcolor="#d1d1d1"
     inkscape:zoom="18.09375"
     inkscape:cx="31.972366"
     inkscape:cy="32"
     inkscape:window-width="2560"
     inkscape:window-height="1371"
     inkscape:window-x="0"
     inkscape:window-y="0"
     inkscape:window-maximized="1"
     inkscape:current-layer="svg7" />
  <defs
     id="defs4">
    <linearGradient
       id="b"
       x1="40"
       x2="46"
       y1="17"
       y2="11"
       gradientTransform="translate(-.021 -1)"
       gradientUnits="userSpaceOnUse">
      <stop
         offset="0"
         stop-color="#fefefe"
         id="stop1" />
      <stop
         offset="1"
         stop-color="#e9e9e9"
         id="stop2" />
    </linearGradient>
    <linearGradient
       id="a"
       x1="45.801"
       x2="9.802"
       y1="10"
       y2="61"
       gradientTransform="translate(.198 -1)"
       gradientUnits="userSpaceOnUse">
      <stop
         offset="0"
         stop-color="#ededed"
         id="stop3" />
      <stop
         offset="1"
         stop-color="#fcfcfc"
         id="stop4" />
    </linearGradient>
    <filter
       inkscape:collect="always"
       style="color-interpolation-filters:sRGB"
       id="filter94"
       x="-0.069119996"
       y="-0.069119996"
       width="1.13824"
       height="1.13824">
      <feGaussianBlur
         inkscape:collect="always"
         stdDeviation="1.6128562"
         id="feGaussianBlur94" />
    </filter>
    <linearGradient
       inkscape:collect="always"
       xlink:href="#linearGradient862-3"
       id="linearGradient5"
       gradientUnits="userSpaceOnUse"
       gradientTransform="matrix(3.7796,0,0,3.7796,-0.12914466,-0.09789466)"
       x1="7.9373002"
       y1="15.081"
       x2="7.9373002"
       y2="1.852" />
    <linearGradient
       id="linearGradient862-3"
       x1="7.9373002"
       x2="7.9373002"
       y1="15.081"
       y2="1.852"
       gradientTransform="scale(3.7796)"
       gradientUnits="userSpaceOnUse"
       xlink:href="#linearGradient92">
      <stop
         stop-color="#f1efeb"
         offset="0"
         id="stop1-2" />
      <stop
         stop-color="#fdfcfc"
         offset="1"
         id="stop2-9" />
    </linearGradient>
    <linearGradient
       id="linearGradient92"
       x1="7.9373002"
       x2="7.9373002"
       y1="15.081"
       y2="1.852"
       gradientTransform="scale(3.7796)"
       gradientUnits="userSpaceOnUse"
       spreadMethod="pad">
      <stop
         stop-color="#f1efeb"
         offset="0"
         id="stop91"
         style="stop-color:#695e49;stop-opacity:1;" />
      <stop
         stop-color="#fdfcfc"
         offset="1"
         id="stop92" />
    </linearGradient>
    <filter
       inkscape:collect="always"
       style="color-interpolation-filters:sRGB"
       id="filter95"
       x="-0.14695404"
       y="-0.14704597"
       width="1.2939081"
       height="1.2940919">
      <feGaussianBlur
         inkscape:collect="always"
         stdDeviation="1.5300537"
         id="feGaussianBlur95" />
    </filter>
    <linearGradient
       id="d"
       x1="45"
       x2="60.076"
       y1="19"
       y2="3.924"
       gradientTransform="translate(-0.11531634,-0.12929438)"
       gradientUnits="userSpaceOnUse">
      <stop
         offset="0"
         stop-color="#fff"
         id="stop5" />
      <stop
         offset="1"
         stop-color="#b3b3b3"
         id="stop6" />
    </linearGradient>
  </defs>
  <path
     id="path3-9-5"
     style="opacity:0.25;fill:#212121;fill-opacity:1;stroke-width:3.7796;filter:url(#filter94)"
     d="m 16.872808,3.8708548 c -7.2030942,0 -13.0019532,5.798859 -13.0019532,13.0019532 v 29.998047 c 0,7.203095 5.798859,13.001953 13.0019532,13.001953 h 29.998047 c 7.203095,0 13.001953,-5.798858 13.001953,-13.001953 V 28.843511 c -0.125226,-0.33309 -0.258163,-0.643195 -0.398438,-0.933593 -0.140274,-0.290399 -0.289006,-0.559404 -0.443359,-0.810547 -0.154353,-0.251144 -0.314961,-0.483894 -0.482422,-0.699219 -0.16746,-0.215325 -0.341887,-0.414714 -0.521484,-0.597656 -0.179598,-0.182943 -0.363924,-0.34991 -0.554688,-0.503907 -0.190764,-0.153996 -0.38693,-0.293388 -0.58789,-0.421875 -0.200961,-0.128487 -0.407002,-0.245149 -0.617188,-0.351562 0.210186,0.106413 0.416227,0.223075 0.617188,0.351562 0.20096,0.128487 0.397126,0.267879 0.58789,0.421875 0.190764,0.153997 0.37509,0.320964 0.554688,0.503907 0.179597,0.182942 0.354024,0.382331 0.521484,0.597656 0.167461,0.215325 0.328069,0.448075 0.482422,0.699219 0.154353,0.251143 0.303085,0.520148 0.443359,0.810547 0.140275,0.290398 0.273212,0.600503 0.398438,0.933593 V 28.704839 C 59.623896,21.656118 43.243031,5.0560586 35.671636,3.906011 c -0.264999,-0.02 -0.52811,-0.035156 -0.787109,-0.035156 0.249999,0.0625 0.487549,0.1462404 0.714843,0.2460938 0.227295,0.099853 0.444337,0.2158204 0.650391,0.3496093 0.206054,0.133789 0.401612,0.2849123 0.587891,0.4492188 0.186279,0.1643065 0.363281,0.341797 0.53125,0.5332031 0.167968,0.1914061 0.327392,0.3962404 0.478515,0.6113281 0.151123,0.2150878 0.293946,0.4404299 0.429688,0.6757813 C 38.141363,6.5007377 37.99854,6.2753957 37.847417,6.0603079 37.696294,5.8452201 37.53687,5.6403859 37.368902,5.4489798 37.200933,5.2575737 37.023931,5.0800832 36.837652,4.9157767 36.651373,4.7514701 36.455815,4.6003469 36.249761,4.4665579 36.043707,4.332769 35.826665,4.216802 35.59937,4.1169486 35.372076,4.0170951 35.134526,3.9333547 34.884527,3.8708548 Z m 22.728515,6.025391 c 0.177735,0.5644522 0.337891,1.1386722 0.486329,1.7089842 0.296875,1.140624 0.546875,2.265627 0.796875,3.265625 -0.25,-0.999998 -0.500001,-2.125001 -0.796875,-3.265625 -0.148438,-0.570312 -0.308594,-1.144532 -0.486329,-1.7089842 z M 52.847417,23.476324 c 0.483513,0.09518 0.959749,0.196737 1.423828,0.318359 -0.464079,-0.121622 -0.940315,-0.223178 -1.423828,-0.318359 z"
     inkscape:label="Shadow" />
  <path
     d="m 16.872808,3.8708553 c -7.2031007,0 -13.0019527,5.798852 -13.0019527,13.0019527 v 29.998047 c 0,7.203102 5.798852,13.001953 13.0019527,13.001953 h 29.998047 c 7.203102,0 13.001953,-5.798851 13.001953,-13.001953 V 28.843511 c -2.003622,-5.329445 -5.995573,-4.974479 -9.988281,-5.972656 -5.819994,-1.454999 -8.030001,-4.120004 -9,-7.999999 -0.999999,-3.999997 -2.000003,-10.0000017 -6,-11.0000007 z"
     style="fill:url(#linearGradient5);stroke-width:3.7796"
     id="path3-9"
     inkscape:label="Sheet" />
  <path
     d="m 33.172541,4.5258266 c 3.999996,0.999999 5.000001,7.0000044 6,11.0000004 0.969999,3.879996 3.180006,6.545001 9,8 3.992708,0.998177 7.984659,0.64321 9.988281,5.972656 V 29.359811 C 57.91191,22.311083 41.531053,5.7110316 33.95965,4.5609826 c -0.264999,-0.02 -0.528109,-0.03516 -0.787109,-0.03516 z"
     style="display:inline;opacity:0.25;fill:#212121;fill-opacity:1;filter:url(#filter95)"
     id="path5-6"
     inkscape:label="Cornershadow" />
  <path
     d="m 34.884527,3.8708555 c 3.999996,0.999999 5.000001,7.0000045 6,11.0000005 0.969999,3.879996 3.180006,6.545001 9,8 3.992708,0.998177 7.984659,0.64321 9.988281,5.972656 V 28.70484 C 59.623896,21.656112 43.243039,5.0560604 35.671636,3.9060117 c -0.264999,-0.02 -0.528109,-0.035156 -0.787109,-0.035156 z"
     style="display:inline;fill:url(#d)"
     id="path5"
     inkscape:label="Corner" />
  <path
     fill="#7b7b7b"
     d="M23.346 50h.82l1.261 5.072L26.685 50h.912l1.262 5.072L30.117 50h.824l-1.507 6h-1.02l-1.267-5.208L25.87 56h-1.02zm8.672 0h.812v6h-.812zm2.428 0h.811v2.536L37.95 50h1.045l-2.978 2.797L39.207 56H38.14l-2.882-2.89V56h-.811zm5.397 0h.812v6h-.812z"
     aria-label="WIKI"
     id="path6"
     style="fill:#212121" />
  <path
     fill="#f9b72b"
     d="M29.154 21a5.077 5.077 0 1 0 0 10.154 5.077 5.077 0 0 0 0-10.154m8.455 3.292.007.007a4.45 4.45 0 0 0-1.835.403q.14.666.142 1.372c0 1.865-.768 3.56-2.003 4.79a4.4 4.4 0 0 0 3.69 1.98c2.424-.001 4.388-1.914 4.388-4.275s-1.964-4.277-4.389-4.277m-8.455 10.24C19 34.538 19 41.308 19 41.308V43h20.308v-1.692s0-6.786-10.154-6.77zm8.461.003v.004c-.331 0-.629.021-.935.036 1.18.676 2.08 1.484 2.714 2.33 1.59 2.133 1.606 4.4 1.606 4.4h5.077v-1.693s0-5.076-8.462-5.076z"
     class="ColorScheme-Text"
     id="path7"
     style="fill:#212121" />
</svg>
