<?xml version="1.0" encoding="UTF-8" standalone="no"?>
<svg
   width="64"
   height="64"
   viewBox="0 0 16.933 16.933"
   version="1.1"
   id="svg7"
   sodipodi:docname="text-x-emacs-lisp.svg"
   inkscape:version="1.4.3 (0d15f75042, 2025-12-25)"
   xmlns:inkscape="http://www.inkscape.org/namespaces/inkscape"
   xmlns:sodipodi="http://sodipodi.sourceforge.net/DTD/sodipodi-0.dtd"
   xmlns:xlink="http://www.w3.org/1999/xlink"
   xmlns="http://www.w3.org/2000/svg"
   xmlns:svg="http://www.w3.org/2000/svg">
  <sodipodi:namedview
     id="namedview7"
     pagecolor="#505050"
     bordercolor="#ffffff"
     borderopacity="1"
     inkscape:showpageshadow="0"
     inkscape:pageopacity="0"
     inkscape:pagecheckerboard="1"
     inkscape:deskcolor="#505050"
     inkscape:zoom="8.0985824"
     inkscape:cx="31.919166"
     inkscape:cy="31.980906"
     inkscape:window-width="2560"
     inkscape:window-height="1371"
     inkscape:window-x="0"
     inkscape:window-y="0"
     inkscape:window-maximized="1"
     inkscape:current-layer="svg7" />
  <defs
     id="defs4">
    <linearGradient
       id="a"
       x1="45.801"
       x2="9.802"
       y1="10"
       y2="61"
       gradientTransform="translate(.052 -.265)scale(.26458)"
       gradientUnits="userSpaceOnUse">
      <stop
         offset="0"
         stop-color="#ededed"
         id="stop1" />
      <stop
         offset="1"
         stop-color="#fcfcfc"
         id="stop2" />
    </linearGradient>
    <linearGradient
       id="b"
       x1="40"
       x2="46"
       y1="17"
       y2="11"
       gradientTransform="translate(-.006 -.265)scale(.26458)"
       gradientUnits="userSpaceOnUse">
      <stop
         offset="0"
         stop-color="#fefefe"
         id="stop3" />
      <stop
         offset="1"
         stop-color="#e9e9e9"
         id="stop4" />
    </linearGradient>
    <filter
       inkscape:collect="always"
       style="color-interpolation-filters:sRGB"
       id="filter94"
       x="-0.069119996"
       y="-0.069119996"
       width="1.13824"
       height="1.13824">
      <feGaussianBlur
         inkscape:collect="always"
         stdDeviation="1.6128562"
         id="feGaussianBlur94" />
    </filter>
    <linearGradient
       inkscape:collect="always"
       xlink:href="#linearGradient862-3"
       id="linearGradient5"
       gradientUnits="userSpaceOnUse"
       gradientTransform="matrix(3.7796,0,0,3.7796,-9.765e-4,0.0302735)"
       x1="7.9373002"
       y1="15.081"
       x2="7.9373002"
       y2="1.852" />
    <linearGradient
       id="linearGradient862-3"
       x1="7.9373002"
       x2="7.9373002"
       y1="15.081"
       y2="1.852"
       gradientTransform="scale(3.7796)"
       gradientUnits="userSpaceOnUse"
       xlink:href="#linearGradient92">
      <stop
         stop-color="#f1efeb"
         offset="0"
         id="stop1-2" />
      <stop
         stop-color="#fdfcfc"
         offset="1"
         id="stop2-6" />
    </linearGradient>
    <linearGradient
       id="linearGradient92"
       x1="7.9373002"
       x2="7.9373002"
       y1="15.081"
       y2="1.852"
       gradientTransform="scale(3.7796)"
       gradientUnits="userSpaceOnUse"
       spreadMethod="pad">
      <stop
         stop-color="#f1efeb"
         offset="0"
         id="stop91"
         style="stop-color:#695e49;stop-opacity:1;" />
      <stop
         stop-color="#fdfcfc"
         offset="1"
         id="stop92" />
    </linearGradient>
    <filter
       inkscape:collect="always"
       style="color-interpolation-filters:sRGB"
       id="filter95"
       x="-0.14695404"
       y="-0.14704597"
       width="1.2939081"
       height="1.2940919">
      <feGaussianBlur
         inkscape:collect="always"
         stdDeviation="1.5300537"
         id="feGaussianBlur95" />
    </filter>
    <linearGradient
       id="d"
       x1="45"
       x2="60.076"
       y1="19"
       y2="3.924"
       gradientTransform="translate(0.01285182,-0.00112622)"
       gradientUnits="userSpaceOnUse">
      <stop
         offset="0"
         stop-color="#fff"
         id="stop5" />
      <stop
         offset="1"
         stop-color="#b3b3b3"
         id="stop6" />
    </linearGradient>
  </defs>
  <g
     id="g1"
     transform="matrix(0.26457812,0,0,0.26457812,-0.03391049,-0.03391049)">
    <path
       id="path3-9-5"
       style="opacity:0.25;fill:#212121;fill-opacity:1;stroke-width:3.7796;filter:url(#filter94)"
       d="m 17.000976,3.999023 c -7.203094,0 -13.001953,5.798859 -13.001953,13.001953 v 29.998047 c 0,7.203095 5.798859,13.001953 13.001953,13.001953 h 29.998047 c 7.203095,0 13.001953,-5.798858 13.001953,-13.001953 V 28.971679 c -0.125226,-0.33309 -0.258163,-0.643195 -0.398438,-0.933593 -0.140274,-0.290399 -0.289006,-0.559404 -0.443359,-0.810547 -0.154353,-0.251144 -0.314961,-0.483894 -0.482422,-0.699219 -0.16746,-0.215325 -0.341887,-0.414714 -0.521484,-0.597656 -0.179598,-0.182943 -0.363924,-0.34991 -0.554688,-0.503907 -0.190764,-0.153996 -0.38693,-0.293388 -0.58789,-0.421875 -0.200961,-0.128487 -0.407002,-0.245149 -0.617188,-0.351562 0.210186,0.106413 0.416227,0.223075 0.617188,0.351562 0.20096,0.128487 0.397126,0.267879 0.58789,0.421875 0.190764,0.153997 0.37509,0.320964 0.554688,0.503907 0.179597,0.182942 0.354024,0.382331 0.521484,0.597656 0.167461,0.215325 0.328069,0.448075 0.482422,0.699219 0.154353,0.251143 0.303085,0.520148 0.443359,0.810547 0.140275,0.290398 0.273212,0.600503 0.398438,0.933593 V 28.833007 C 59.752064,21.784286 43.371199,5.1842268 35.799804,4.0341792 c -0.264999,-0.02 -0.52811,-0.035156 -0.787109,-0.035156 0.249999,0.0625 0.487549,0.1462404 0.714843,0.2460938 0.227295,0.099853 0.444337,0.2158204 0.650391,0.3496093 0.206054,0.133789 0.401612,0.2849123 0.587891,0.4492188 0.186279,0.1643065 0.363281,0.341797 0.53125,0.5332031 0.167968,0.1914061 0.327392,0.3962404 0.478515,0.6113281 0.151123,0.2150878 0.293946,0.4404299 0.429688,0.6757813 C 38.269531,6.6289059 38.126708,6.4035639 37.975585,6.1884761 37.824462,5.9733883 37.665038,5.7685541 37.49707,5.577148 37.329101,5.3857419 37.152099,5.2082514 36.96582,5.0439449 36.779541,4.8796383 36.583983,4.7285151 36.377929,4.5947261 36.171875,4.4609372 35.954833,4.3449702 35.727538,4.2451168 35.500244,4.1452633 35.262694,4.0615229 35.012695,3.999023 Z m 22.728515,6.025391 c 0.177735,0.564452 0.337891,1.138672 0.486329,1.708984 0.296875,1.140624 0.546875,2.265627 0.796875,3.265625 -0.25,-0.999998 -0.500001,-2.125001 -0.796875,-3.265625 -0.148438,-0.570312 -0.308594,-1.144532 -0.486329,-1.708984 z m 13.246094,13.580078 c 0.483513,0.09518 0.959749,0.196737 1.423828,0.318359 -0.464079,-0.121622 -0.940315,-0.223178 -1.423828,-0.318359 z"
       inkscape:label="Shadow" />
    <path
       d="m 17.000976,3.9990235 c -7.2031005,0 -13.0019525,5.798852 -13.0019525,13.0019525 v 29.998047 c 0,7.203102 5.798852,13.001953 13.0019525,13.001953 h 29.998047 c 7.203102,0 13.001953,-5.798851 13.001953,-13.001953 V 28.971679 c -2.003622,-5.329445 -5.995573,-4.974479 -9.988281,-5.972656 -5.819994,-1.454999 -8.030001,-4.120004 -9,-7.999999 -0.999999,-3.999997 -2.000003,-10.0000015 -6,-11.0000005 z"
       style="fill:url(#linearGradient5);stroke-width:3.7796"
       id="path3-9"
       inkscape:label="Sheet" />
    <rect
       style="display:none;opacity:0.25;fill:none;fill-opacity:1;stroke:#ff00ee;stroke-width:0.1;stroke-linecap:square;stroke-linejoin:round;stroke-dasharray:none;stroke-opacity:1"
       id="rect1"
       width="31.62265"
       height="31.622654"
       x="16.188675"
       y="16.188673" />
    <path
       d="m 33.300709,4.6539948 c 3.999996,0.999999 5.000001,7.0000042 6,11.0000002 0.969999,3.879996 3.180006,6.545001 9,8 3.992708,0.998177 7.984659,0.64321 9.988281,5.972656 V 29.487979 C 58.040078,22.439251 41.659221,5.8391998 34.087818,4.6891508 c -0.264999,-0.02 -0.528109,-0.03516 -0.787109,-0.03516 z"
       style="display:inline;opacity:0.25;fill:#212121;fill-opacity:1;filter:url(#filter95)"
       id="path5-6"
       inkscape:label="Cornershadow" />
    <path
       d="m 35.012695,3.9990237 c 3.999996,0.999999 5.000001,7.0000043 6,11.0000003 0.969999,3.879996 3.180006,6.545001 9,8 3.992708,0.998177 7.984659,0.64321 9.988281,5.972656 V 28.833008 C 59.752064,21.78428 43.371207,5.1842286 35.799804,4.0341799 c -0.264999,-0.02 -0.528109,-0.035156 -0.787109,-0.035156 z"
       style="display:inline;fill:url(#d)"
       id="path5"
       inkscape:label="Corner" />
  </g>
  <path
     d="M 4.2575377,15.234344 H 4.9505056 V 15.108772 H 4.3970614 V 14.724307 H 4.9218257 V 14.600286 H 4.3970614 V 14.2414 H 4.9505056 V 14.115828 H 4.2575377 Z m 0.8766741,0 H 5.264434 v -0.864272 h 0.063561 l -0.1511507,-0.223238 0.4495765,1.08751 h 0.11782 l 0.4495765,-1.08751 -0.1511507,0.223238 h 0.063561 v 0.864272 H 6.2364493 V 14.115828 H 6.0752219 L 5.687656,15.058389 h -0.00465 L 5.2954392,14.115828 H 5.1342118 Z m 1.2301343,0 h 0.1465 l 0.3371823,-0.951087 h 0.035656 V 14.115828 H 6.7805919 Z m 0.1906825,-0.32013 H 7.1441288 L 7.0976209,14.795619 H 6.6015365 Z m 0.6325076,0.32013 H 7.3340361 L 6.9185654,14.115828 h -0.067437 v 0.167429 z m 0.7107959,0.0186 q 0.1170449,0 0.2123862,-0.04341 0.095341,-0.04341 0.158902,-0.122471 0.063561,-0.07984 0.084489,-0.186806 l 0.00155,-0.0078 h -0.141074 l -0.00233,0.007 q -0.024029,0.07364 -0.068212,0.124021 -0.044182,0.04961 -0.106193,0.07519 -0.061236,0.02558 -0.1395238,0.02558 -0.1108438,0 -0.1937829,-0.05581 -0.082939,-0.05581 -0.1286719,-0.156576 -0.044958,-0.101543 -0.044958,-0.237191 v -7.75e-4 q 0,-0.136423 0.044958,-0.236415 0.045733,-0.100767 0.1278967,-0.155802 0.082939,-0.05581 0.1945581,-0.05581 0.079064,0 0.141074,0.02558 0.062011,0.02558 0.1046428,0.07364 0.043407,0.04728 0.065111,0.115495 l 0.00543,0.01705 h 0.141074 l -0.00155,-0.0078 q -0.020929,-0.106193 -0.085265,-0.185256 -0.063561,-0.07906 -0.1589021,-0.123246 -0.095341,-0.04418 -0.211611,-0.04418 -0.1558015,0 -0.270521,0.07131 -0.1147195,0.07054 -0.1775052,0.199984 -0.062786,0.129447 -0.062786,0.305402 v 7.75e-4 q 0,0.175955 0.062786,0.306177 0.062786,0.129447 0.1775052,0.20076 0.1154947,0.07131 0.270521,0.07131 z m 0.9875181,0 q 0.1278967,0 0.2201374,-0.03953 0.093016,-0.03953 0.1426243,-0.112394 0.050384,-0.07286 0.050384,-0.172079 v -7.76e-4 q 0,-0.127896 -0.076738,-0.201534 -0.076738,-0.07441 -0.2488173,-0.112394 L 8.849419,14.587108 q -0.1092936,-0.02403 -0.1612275,-0.06821 -0.051934,-0.04418 -0.051934,-0.112394 v -7.75e-4 q 0,-0.05426 0.03023,-0.09457 0.031005,-0.04031 0.086815,-0.06278 0.05581,-0.02248 0.1302222,-0.02248 0.071312,0 0.1247962,0.0217 0.054259,0.0217 0.08759,0.06201 0.033331,0.04031 0.041857,0.09767 l 0.00155,0.01085 H 9.278842 l -7.751e-4,-0.01163 q -0.0062,-0.09147 -0.058135,-0.161228 -0.051159,-0.06976 -0.1371983,-0.108518 -0.08604,-0.03953 -0.1953333,-0.03953 -0.1147195,0 -0.2038597,0.04031 -0.088365,0.03953 -0.1387486,0.110069 -0.050384,0.06976 -0.051159,0.162002 v 7.75e-4 q 0,0.122471 0.078288,0.198434 0.079063,0.07519 0.2426162,0.111619 l 0.1240211,0.02713 q 0.1154947,0.02558 0.1666534,0.06976 0.051159,0.04418 0.051159,0.11782 v 7.75e-4 q 0,0.05736 -0.032556,0.09999 -0.03178,0.04263 -0.09069,0.06589 -0.05891,0.02248 -0.1395237,0.02248 -0.080614,0 -0.1426243,-0.0217 -0.061235,-0.02248 -0.098442,-0.06279 -0.037206,-0.04108 -0.045733,-0.09689 l -0.00155,-0.01085 H 8.4657287 l 7.751e-4,0.01085 q 0.00698,0.09534 0.06046,0.165103 0.054259,0.06976 0.1457248,0.107743 0.092241,0.03721 0.2131613,0.03721 z m 0.9014784,-0.0186 H 10.466344 V 15.108772 H 9.9268523 V 14.115828 H 9.7873286 Z m 0.8324914,0 h 0.139524 V 14.115828 H 10.61982 Z m 0.722423,0.0186 q 0.127897,0 0.220137,-0.03953 0.09302,-0.03953 0.142625,-0.112394 0.05038,-0.07286 0.05038,-0.172079 v -7.76e-4 q 0,-0.127896 -0.07674,-0.201534 -0.07674,-0.07441 -0.248817,-0.112394 l -0.124021,-0.02713 q -0.109294,-0.02403 -0.161228,-0.06821 -0.05193,-0.04418 -0.05193,-0.112394 v -7.75e-4 q 0,-0.05426 0.03023,-0.09457 0.03101,-0.04031 0.08681,-0.06278 0.05581,-0.02248 0.130223,-0.02248 0.07131,0 0.124796,0.0217 0.05426,0.0217 0.08759,0.06201 0.03333,0.04031 0.04186,0.09767 l 0.0015,0.01085 h 0.139524 l -7.75e-4,-0.01163 q -0.0062,-0.09147 -0.05814,-0.161228 -0.05116,-0.06976 -0.137199,-0.108518 -0.08604,-0.03953 -0.195333,-0.03953 -0.114719,0 -0.203859,0.04031 -0.08837,0.03953 -0.138749,0.110069 -0.05038,0.06976 -0.05116,0.162002 v 7.75e-4 q 0,0.122471 0.07829,0.198434 0.07906,0.07519 0.242616,0.111619 l 0.124021,0.02713 q 0.115495,0.02558 0.166653,0.06976 0.05116,0.04418 0.05116,0.11782 v 7.75e-4 q 0,0.05736 -0.03256,0.09999 -0.03178,0.04263 -0.09069,0.06589 -0.05891,0.02248 -0.139524,0.02248 -0.08061,0 -0.142624,-0.0217 -0.06123,-0.02248 -0.09844,-0.06279 -0.03721,-0.04108 -0.04573,-0.09689 l -0.0015,-0.01085 h -0.139524 l 7.76e-4,0.01085 q 0.007,0.09534 0.06046,0.165103 0.05426,0.06976 0.145725,0.107743 0.09224,0.03721 0.213161,0.03721 z m 0.645685,-0.417796 h 0.328656 q 0.105418,0 0.186031,-0.04573 0.08061,-0.04573 0.126347,-0.127122 0.04651,-0.08139 0.04651,-0.187582 v -0.0015 q 0,-0.106193 -0.04651,-0.186807 -0.04573,-0.08061 -0.126347,-0.125571 -0.08061,-0.04496 -0.186031,-0.04496 h -0.328656 v 0.124021 h 0.293 q 0.120145,0 0.186031,0.06201 0.06589,0.06201 0.06589,0.172854 v 0.0016 q 0,0.110068 -0.06589,0.172854 -0.06589,0.06201 -0.186031,0.06201 h -0.293 z m -0.06976,0.399193 h 0.139524 v -1.118516 h -0.139524 z"
     id="text7"
     style="font-size:1.58747px;line-height:0;font-family:'SF Pro';-inkscape-font-specification:'SF Pro';fill:#212121;stroke-width:0.583846;stroke-linecap:square;stroke-linejoin:round;paint-order:markers stroke fill"
     inkscape:label="text"
     aria-label="EMACS LISP" />
  <path
     fill="#ffffff"
     d="m 6.975973,12.813317 c 0,0 0.4228334,0.0063 0.9590223,-0.07197 0.2177144,-0.03418 1.0417899,-0.165535 1.6535491,-0.341865 0,0 0.7458056,-0.210518 1.1389516,-0.388648 0.412936,-0.184427 0.63425,-0.335569 0.723315,-0.53439 0.03238,-0.06749 0.07108,-0.27889 -0.224912,-0.370655 -0.469615,-0.137649 -1.048986,-0.07378 -2.1987335,0.04047 C 7.7514676,11.173253 7.3124406,10.978033 7.0749341,10.814297 6.8455243,10.64697 6.9183956,10.144069 7.8126436,9.6537612 8.2624665,9.3937641 10.061759,8.8584748 10.061759,8.8584748 9.4230096,8.5795846 8.2345775,8.0937758 7.9898738,7.9876177 7.7757581,7.894954 7.4320934,7.7564087 7.3475267,7.5701818 7.253064,7.392052 7.5148608,7.2193201 7.6642021,7.1653414 8.1464121,6.9899104 8.8355408,6.8594619 9.4670924,6.8126802 9.7855665,6.7892893 9.8359474,6.7649989 9.8359474,6.7649989 10.268678,6.6642386 10.535872,6.3376671 10.380233,5.8545574 10.23539,5.3597522 9.6452225,5.0979552 9.1099328,5.2311029 8.6070308,5.3570533 7.4033047,5.7951808 7.4033047,5.7951808 8.9228066,5.69442 9.1783059,5.7061156 9.3042562,5.8635532 9.378027,5.9562167 9.2907618,6.0947624 8.8904193,6.1865262 8.4531914,6.2854868 7.5427499,6.4276313 7.5427499,6.4276313 6.6664948,6.5319901 6.0475384,6.5715745 5.8901004,6.9881106 5.7884411,7.2607032 6.0556352,7.4811164 6.1770875,7.6214613 6.6799895,8.1279617 7.3718171,8.3771638 7.8198407,8.56429 c 0.1682338,0.070173 0.6567414,0.193424 0.6567414,0.193424 -1.4079455,0 -2.3876599,0.5029019 -2.9445407,1.0480877 -0.6243541,0.6792313 -0.2725927,1.4259383 1.1353531,1.8172843 0.8006848,0.190725 1.2613035,0.244702 2.4470365,0.156538 0.71072,-0.08098 0.8249753,-0.06297 0.8366707,-0.0036 0.016187,0.08456 -0.7718961,0.341865 -0.9860118,0.419235 -0.5451853,0.197922 -1.9819198,0.616258 -1.9891169,0.618057"
     id="path3"
     style="fill:#212121;fill-opacity:1;stroke-width:0.899647" />
</svg>
