<?xml version="1.0" encoding="UTF-8" standalone="no"?>
<svg
   width="64"
   height="64"
   viewBox="0 0 16.934 16.934"
   version="1.1"
   id="svg22"
   sodipodi:docname="network-rj11-female.svg"
   inkscape:version="1.3.2 (091e20ef0f, 2023-11-25)"
   xmlns:inkscape="http://www.inkscape.org/namespaces/inkscape"
   xmlns:sodipodi="http://sodipodi.sourceforge.net/DTD/sodipodi-0.dtd"
   xmlns:xlink="http://www.w3.org/1999/xlink"
   xmlns="http://www.w3.org/2000/svg"
   xmlns:svg="http://www.w3.org/2000/svg">
  <sodipodi:namedview
     id="namedview22"
     pagecolor="#ffffff"
     bordercolor="#111111"
     borderopacity="1"
     inkscape:showpageshadow="0"
     inkscape:pageopacity="0"
     inkscape:pagecheckerboard="1"
     inkscape:deskcolor="#d1d1d1"
     inkscape:zoom="12.546875"
     inkscape:cx="33.43462"
     inkscape:cy="32"
     inkscape:window-width="1920"
     inkscape:window-height="1011"
     inkscape:window-x="0"
     inkscape:window-y="0"
     inkscape:window-maximized="1"
     inkscape:current-layer="svg22" />
  <defs
     id="defs2">
    <linearGradient
       id="b"
       x1="7.937"
       x2="7.937"
       y1="15.081"
       y2="1.852"
       gradientTransform="scale(1.0001)"
       gradientUnits="userSpaceOnUse">
      <stop
         stop-color="#676767"
         offset="0"
         id="stop1" />
      <stop
         stop-color="#c6c6c6"
         offset="1"
         id="stop2" />
    </linearGradient>
    <filter
       id="c"
       x="-0.10127539"
       y="-0.11576674"
       width="1.2025508"
       height="1.2315335"
       color-interpolation-filters="sRGB">
      <feGaussianBlur
         stdDeviation=".536"
         id="feGaussianBlur2" />
    </filter>
  </defs>
  <linearGradient
     id="a">
    <stop
       stop-color="#31363b"
       offset="0"
       id="stop3" />
    <stop
       stop-color="#31363b"
       stop-opacity="0"
       offset="1"
       id="stop4" />
  </linearGradient>
  <linearGradient
     id="d"
     x1="16.001"
     x2="16.001"
     y1="27.001"
     y2="6"
     gradientTransform="matrix(0.42841682,0,0,-0.42841682,1.6118681,14.477533)"
     gradientUnits="userSpaceOnUse">
    <stop
       stop-color="#232629"
       offset="0"
       id="stop5" />
    <stop
       stop-color="#292c2f"
       offset="1"
       id="stop6" />
  </linearGradient>
  <linearGradient
     id="e"
     x1="4.234"
     x2="4.234"
     y1="290.65"
     y2="291.18"
     gradientTransform="matrix(2,0,0,-3.9999,-1.588,1175.5)"
     gradientUnits="userSpaceOnUse">
    <stop
       stop-color="#fdbc4b"
       stop-opacity=".8"
       offset="0"
       id="stop7" />
    <stop
       stop-color="#fdbc4b"
       stop-opacity="0"
       offset="1"
       id="stop8" />
  </linearGradient>
  <linearGradient
     id="f"
     x1="4.233"
     x2="4.233"
     y1="295.15"
     y2="294.62"
     gradientTransform="matrix(2.5,0,0,-2,-2.116,592.15)"
     gradientUnits="userSpaceOnUse"
     xlink:href="#a" />
  <linearGradient
     id="g"
     x1="4.587"
     x2="4.587"
     y1="295.15"
     y2="294.62"
     gradientTransform="matrix(0.75,0,0,-2,1.852,593.74)"
     gradientUnits="userSpaceOnUse"
     xlink:href="#a" />
  <linearGradient
     id="h"
     x1="3.88"
     x2="3.88"
     y1="295.15"
     y2="294.62"
     gradientTransform="matrix(0.75,0,0,-2,8.732,593.74)"
     gradientUnits="userSpaceOnUse"
     xlink:href="#a" />
  <linearGradient
     id="i"
     x1="7.41"
     x2="7.41"
     y1="295.41"
     y2="294.62"
     gradientTransform="matrix(0.20240279,0,0,3.2385647,12.536829,-946.89482)"
     gradientUnits="userSpaceOnUse"
     xlink:href="#a" />
  <linearGradient
     id="j"
     x1="1.062"
     x2="1.062"
     y1="295.41"
     y2="294.62"
     gradientTransform="matrix(0.20240279,0,0,3.2385647,2.6821068,-946.89482)"
     gradientUnits="userSpaceOnUse"
     xlink:href="#a" />
  <linearGradient
     id="k"
     x1="4.587"
     x2="4.587"
     y1="295.25"
     y2="294.62"
     gradientTransform="matrix(0.60722,0,0,-2.6987286,1.8256095,802.30118)"
     gradientUnits="userSpaceOnUse"
     xlink:href="#a" />
  <linearGradient
     id="l"
     x1="3.88"
     x2="3.88"
     y1="295.25"
     y2="294.62"
     gradientTransform="matrix(0.60722,0,0,-2.6987286,9.9672153,802.30118)"
     gradientUnits="userSpaceOnUse"
     xlink:href="#a" />
  <g
     color="#000"
     id="g12">
    <path
       d="M4.37.53C2.254.53.53 2.312.53 4.496v8.468c0 2.184 1.725 3.968 3.84 3.968h8.194c2.114 0 3.84-1.783 3.84-3.968V4.497c0-2.184-1.726-3.968-3.84-3.968zm.256.52h7.681c1.844 0 3.33 1.534 3.33 3.44v7.937c0 1.906-1.485 3.44-3.33 3.44h-7.68c-1.845 0-3.33-1.534-3.33-3.44V4.49c0-1.906 1.485-3.44 3.33-3.44z"
       opacity=".01"
       style="font-feature-settings:normal;font-variant-alternates:normal;font-variant-caps:normal;font-variant-east-asian:normal;font-variant-ligatures:normal;font-variant-numeric:normal;font-variant-position:normal;font-variation-settings:normal;inline-size:0;isolation:auto;mix-blend-mode:normal;shape-margin:0;shape-padding:0;text-decoration-color:#000;text-decoration-line:none;text-decoration-style:solid;text-indent:0;text-orientation:mixed;text-transform:none;white-space:normal"
       transform="scale(1.0001)"
       id="path8" />
    <path
       d="M4.359.794C2.392.794.795 2.447.795 4.48v8.5c0 2.035 1.597 3.688 3.564 3.688h8.216c1.967 0 3.564-1.653 3.564-3.688v-8.5c0-2.034-1.597-3.687-3.564-3.687zm.272.256h7.672c1.842 0 3.325 1.534 3.325 3.44v7.937c0 1.906-1.483 3.44-3.325 3.44H4.63c-1.842 0-3.325-1.534-3.325-3.44V4.49c0-1.906 1.483-3.44 3.325-3.44z"
       opacity=".01"
       style="font-feature-settings:normal;font-variant-alternates:normal;font-variant-caps:normal;font-variant-east-asian:normal;font-variant-ligatures:normal;font-variant-numeric:normal;font-variant-position:normal;font-variation-settings:normal;inline-size:0;isolation:auto;mix-blend-mode:normal;shape-margin:0;shape-padding:0;text-decoration-color:#000;text-decoration-line:none;text-decoration-style:solid;text-indent:0;text-orientation:mixed;text-transform:none;white-space:normal"
       transform="scale(1.0001)"
       id="path9" />
    <path
       d="M4.31 1.058c-1.866 0-3.375 1.539-3.375 3.44v8.467c0 1.9 1.57 3.439 3.435 3.439h8.2c1.866 0 3.427-1.538 3.427-3.44V4.498c0-1.9-1.51-3.439-3.375-3.439h-.097c1.794.087 3.214 1.582 3.214 3.432v7.937c0 1.906-1.506 3.44-3.377 3.44h-7.79c-1.871 0-3.377-1.534-3.377-3.44V4.49c0-1.85 1.42-3.345 3.214-3.432z"
       opacity=".03"
       style="font-feature-settings:normal;font-variant-alternates:normal;font-variant-caps:normal;font-variant-east-asian:normal;font-variant-ligatures:normal;font-variant-numeric:normal;font-variant-position:normal;font-variation-settings:normal;inline-size:0;isolation:auto;mix-blend-mode:normal;shape-margin:0;shape-padding:0;text-decoration-color:#000;text-decoration-line:none;text-decoration-style:solid;text-indent:0;text-orientation:mixed;text-transform:none;white-space:normal"
       transform="scale(1.0001)"
       id="path10" />
    <path
       transform="scale(.2646)"
       d="M4 46.969V49c0 6.648 5.896 12 12.544 12h30.961C54.153 61 60 55.648 60 49v-1.992a12.972 12.972 0 0 1-13 12.963H17.002A12.973 12.973 0 0 1 4 46.969z"
       opacity=".03"
       style="font-feature-settings:normal;font-variant-alternates:normal;font-variant-caps:normal;font-variant-east-asian:normal;font-variant-ligatures:normal;font-variant-numeric:normal;font-variant-position:normal;font-variation-settings:normal;inline-size:0;isolation:auto;mix-blend-mode:normal;shape-margin:0;shape-padding:0;text-decoration-color:#000;text-decoration-line:none;text-decoration-style:solid;text-indent:0;text-orientation:mixed;text-transform:none;white-space:normal"
       id="path11" />
    <path
       d="M1.058 11.906v.592c0 1.939 1.573 3.5 3.332 3.5h8.16c1.76 0 3.325-1.561 3.325-3.5v-.58c-.006 2.095-1.537 3.78-3.44 3.78H4.498c-1.905 0-3.44-1.692-3.44-3.792z"
       opacity=".05"
       style="font-feature-settings:normal;font-variant-alternates:normal;font-variant-caps:normal;font-variant-east-asian:normal;font-variant-ligatures:normal;font-variant-numeric:normal;font-variant-position:normal;font-variation-settings:normal;inline-size:0;isolation:auto;mix-blend-mode:normal;shape-margin:0;shape-padding:0;text-decoration-color:#000;text-decoration-line:none;text-decoration-style:solid;text-indent:0;text-orientation:mixed;text-transform:none;white-space:normal"
       transform="scale(1.0001)"
       id="path12" />
  </g>
  <rect
     x="1.058"
     y="1.05"
     width="14.818"
     height="14.818"
     rx="3.44"
     ry="3.44"
     fill="url(#b)"
     id="rect12" />
  <path
     d="M 5.821,1.979 V 3.567 H 4.233 V 5.153 H 2.646 V 7.27 h -0.53 v 0.529 h 1.06 v 2.118 h -1.06 v 0.528 h 0.53 v 2.646 h 11.642 v -2.646 h 0.53 V 7.27 h -0.53 V 5.153 H 12.7 V 3.567 H 11.113 V 1.979 Z m 7.939,5.82 h 1.057 V 9.917 H 13.76 Z"
     filter="url(#c)"
     opacity="0.35"
     id="path13"
     transform="matrix(0.80960334,0,0,0.80960334,1.6120885,1.4346389)" />
  <path
     d="M 6.3246888,2.9099147 V 4.1956578 H 5.0389456 V 5.4796872 H 3.7540593 v 1.713753 H 3.3251927 v 0.4284382 h 0.4288666 v 8.569e-4 h 0.4284383 v 1.713753 H 3.3256211 V 9.3360598 H 3.3251927 V 9.7640696 H 3.7540593 V 11.906261 H 13.179701 V 9.7640696 h 0.428866 V 7.1942971 H 13.179701 V 5.4796872 H 11.893957 V 4.1956578 H 10.609071 V 2.9099147 Z m 6.4274302,4.7128206 h 0.85602 v 1.713753 h -0.856877 z"
     fill="url(#d)"
     id="path14"
     style="fill:url(#d);stroke-width:0.214219" />
  <g
     stroke-width="2"
     id="g18"
     transform="matrix(0.80962667,0,0,0.80962667,1.6118681,1.4103808)">
    <path
       d="m 4.233,12.965 h 0.53 v -2.117 h -0.53 z m 1.588,0 h 0.53 v -2.117 h -0.53 z m 6.35,0 h 0.53 v -2.117 h -0.53 z m -1.587,0 h 0.529 v -2.117 h -0.53 z m -1.588,0 h 0.53 v -2.117 h -0.53 z m -1.587,0 h 0.529 v -2.117 h -0.53 z"
       fill="url(#e)"
       id="path15"
       style="fill:url(#e)" />
    <path
       d="m 5.821,2.91 h 5.292 V 1.852 H 5.82 Z"
       fill="url(#f)"
       id="path16"
       style="fill:url(#f)" />
    <path
       d="M 4.233,4.498 H 5.821 V 3.44 H 4.233 Z"
       fill="url(#g)"
       id="path17"
       style="fill:url(#g)" />
    <path
       d="M 11.113,4.498 H 12.7 V 3.44 h -1.587 z"
       fill="url(#h)"
       id="path18"
       style="fill:url(#h)" />
  </g>
  <path
     d="m 13.608567,7.1934402 -0.428866,8.569e-4 v 0.4284382 h 0.428866 z m -4.28e-4,2.1426196 v 4.285e-4 h -0.428438 v 0.4284382 h 0.428866 V 9.3360598 Z"
     fill="url(#i)"
     id="path19"
     style="fill:url(#i);stroke-width:0.214219" />
  <path
     d="M 3.7540593,7.1934402 3.3256211,7.1942971 V 7.6227353 H 3.7540593 Z M 3.3256211,9.3364883 V 9.7649265 H 3.7540593 V 9.3364883 Z"
     fill="url(#j)"
     id="path20"
     style="fill:url(#j);stroke-width:0.214219" />
  <path
     d="M 3.7541403,7.1943537 H 5.0390178 V 5.4795645 H 3.7541403 Z"
     fill="url(#k)"
     id="path21"
     style="fill:url(#k);stroke-width:0.809627" />
  <path
     d="m 11.894127,7.1943537 h 1.285687 V 5.4795645 h -1.285687 z"
     fill="url(#l)"
     id="path22"
     style="fill:url(#l);stroke-width:0.809627" />
</svg>
