<?xml version="1.0" encoding="UTF-8" standalone="no"?>
<svg
   width="64"
   height="64"
   viewBox="0 0 16.934 16.934"
   version="1.1"
   id="svg22"
   sodipodi:docname="network-rj45-female.svg"
   inkscape:version="1.3.2 (091e20ef0f, 2023-11-25)"
   xmlns:inkscape="http://www.inkscape.org/namespaces/inkscape"
   xmlns:sodipodi="http://sodipodi.sourceforge.net/DTD/sodipodi-0.dtd"
   xmlns:xlink="http://www.w3.org/1999/xlink"
   xmlns="http://www.w3.org/2000/svg"
   xmlns:svg="http://www.w3.org/2000/svg">
  <sodipodi:namedview
     id="namedview22"
     pagecolor="#ffffff"
     bordercolor="#111111"
     borderopacity="1"
     inkscape:showpageshadow="0"
     inkscape:pageopacity="0"
     inkscape:pagecheckerboard="1"
     inkscape:deskcolor="#d1d1d1"
     inkscape:zoom="12.546875"
     inkscape:cx="32"
     inkscape:cy="32"
     inkscape:window-width="1920"
     inkscape:window-height="1011"
     inkscape:window-x="0"
     inkscape:window-y="0"
     inkscape:window-maximized="1"
     inkscape:current-layer="svg22" />
  <defs
     id="defs2">
    <linearGradient
       id="b"
       x1="7.937"
       x2="7.937"
       y1="15.081"
       y2="1.852"
       gradientTransform="scale(1.0001)"
       gradientUnits="userSpaceOnUse">
      <stop
         stop-color="#676767"
         offset="0"
         id="stop1" />
      <stop
         stop-color="#c6c6c6"
         offset="1"
         id="stop2" />
    </linearGradient>
    <filter
       id="c"
       x="-0.096369285"
       y="-0.12266988"
       width="1.1927386"
       height="1.2453398"
       color-interpolation-filters="sRGB">
      <feGaussianBlur
         stdDeviation=".595"
         id="feGaussianBlur2" />
    </filter>
  </defs>
  <linearGradient
     id="a">
    <stop
       stop-color="#31363b"
       offset="0"
       id="stop3" />
    <stop
       stop-color="#31363b"
       stop-opacity="0"
       offset="1"
       id="stop4" />
  </linearGradient>
  <linearGradient
     id="d"
     x1="8.467"
     x2="8.467"
     y1="2.646"
     y2="14.288"
     gradientTransform="matrix(0.7920492,0,0,0.7920492,1.7606446,2.290851)"
     gradientUnits="userSpaceOnUse">
    <stop
       stop-color="#232629"
       offset="0"
       id="stop5" />
    <stop
       stop-color="#292c2f"
       offset="1"
       id="stop6" />
  </linearGradient>
  <linearGradient
     id="e"
     x1="4.234"
     x2="4.234"
     y1="290.65"
     y2="291.18"
     gradientTransform="matrix(2,0,0,3.9999,-1.588,-1159.9)"
     gradientUnits="userSpaceOnUse">
    <stop
       stop-color="#fdbc4b"
       stop-opacity=".8"
       offset="0"
       id="stop7" />
    <stop
       stop-color="#fdbc4b"
       stop-opacity="0"
       offset="1"
       id="stop8" />
  </linearGradient>
  <linearGradient
     id="f"
     x1="4.233"
     x2="4.233"
     y1="295.41"
     y2="294.62"
     gradientTransform="matrix(2.5,0,0,2,-2.116,-576.54)"
     gradientUnits="userSpaceOnUse"
     xlink:href="#a" />
  <linearGradient
     id="g"
     x1="4.587"
     x2="4.587"
     y1="295.41"
     y2="294.62"
     gradientTransform="matrix(0.75,0,0,2,1.852,-578.12)"
     gradientUnits="userSpaceOnUse"
     xlink:href="#a" />
  <linearGradient
     id="h"
     x1="3.88"
     x2="3.88"
     y1="295.41"
     y2="294.62"
     gradientTransform="matrix(0.75,0,0,2,8.732,-578.12)"
     gradientUnits="userSpaceOnUse"
     xlink:href="#a" />
  <linearGradient
     id="i"
     x1="7.411"
     x2="7.411"
     y1="295.41"
     y2="294.62"
     gradientTransform="matrix(0.25,0,0,4,14.552,-1173.2)"
     gradientUnits="userSpaceOnUse"
     xlink:href="#a" />
  <linearGradient
     id="j"
     x1="1.061"
     x2="1.061"
     y1="295.41"
     y2="294.62"
     gradientTransform="matrix(0.25,0,0,4,0.264,-1173.2)"
     gradientUnits="userSpaceOnUse"
     xlink:href="#a" />
  <linearGradient
     id="k"
     x1="4.444"
     x2="4.444"
     y1="295.41"
     y2="294.62"
     gradientTransform="matrix(1.25,0,0,3.3333,-2.38,-973.6)"
     gradientUnits="userSpaceOnUse"
     xlink:href="#a" />
  <linearGradient
     id="l"
     x1="4.021"
     x2="4.021"
     y1="295.41"
     y2="294.62"
     gradientTransform="matrix(1.25,0,0,3.3333,8.732,-973.6)"
     gradientUnits="userSpaceOnUse"
     xlink:href="#a" />
  <g
     color="#000"
     id="g12">
    <path
       d="M4.37.53C2.254.53.53 2.312.53 4.496v8.468c0 2.184 1.725 3.968 3.84 3.968h8.194c2.114 0 3.84-1.783 3.84-3.968V4.497c0-2.184-1.726-3.968-3.84-3.968zm.256.52h7.681c1.844 0 3.33 1.534 3.33 3.44v7.937c0 1.906-1.485 3.44-3.33 3.44h-7.68c-1.845 0-3.33-1.534-3.33-3.44V4.49c0-1.906 1.485-3.44 3.33-3.44z"
       opacity=".01"
       style="font-feature-settings:normal;font-variant-alternates:normal;font-variant-caps:normal;font-variant-east-asian:normal;font-variant-ligatures:normal;font-variant-numeric:normal;font-variant-position:normal;font-variation-settings:normal;inline-size:0;isolation:auto;mix-blend-mode:normal;shape-margin:0;shape-padding:0;text-decoration-color:#000;text-decoration-line:none;text-decoration-style:solid;text-indent:0;text-orientation:mixed;text-transform:none;white-space:normal"
       transform="scale(1.0001)"
       id="path8" />
    <path
       d="M4.359.794C2.392.794.795 2.447.795 4.48v8.5c0 2.035 1.597 3.688 3.564 3.688h8.216c1.967 0 3.564-1.653 3.564-3.688v-8.5c0-2.034-1.597-3.687-3.564-3.687zm.272.256h7.672c1.842 0 3.325 1.534 3.325 3.44v7.937c0 1.906-1.483 3.44-3.325 3.44H4.63c-1.842 0-3.325-1.534-3.325-3.44V4.49c0-1.906 1.483-3.44 3.325-3.44z"
       opacity=".01"
       style="font-feature-settings:normal;font-variant-alternates:normal;font-variant-caps:normal;font-variant-east-asian:normal;font-variant-ligatures:normal;font-variant-numeric:normal;font-variant-position:normal;font-variation-settings:normal;inline-size:0;isolation:auto;mix-blend-mode:normal;shape-margin:0;shape-padding:0;text-decoration-color:#000;text-decoration-line:none;text-decoration-style:solid;text-indent:0;text-orientation:mixed;text-transform:none;white-space:normal"
       transform="scale(1.0001)"
       id="path9" />
    <path
       d="M4.31 1.058c-1.866 0-3.375 1.539-3.375 3.44v8.467c0 1.9 1.57 3.439 3.435 3.439h8.2c1.866 0 3.427-1.538 3.427-3.44V4.498c0-1.9-1.51-3.439-3.375-3.439h-.097c1.794.087 3.214 1.582 3.214 3.432v7.937c0 1.906-1.506 3.44-3.377 3.44h-7.79c-1.871 0-3.377-1.534-3.377-3.44V4.49c0-1.85 1.42-3.345 3.214-3.432z"
       opacity=".03"
       style="font-feature-settings:normal;font-variant-alternates:normal;font-variant-caps:normal;font-variant-east-asian:normal;font-variant-ligatures:normal;font-variant-numeric:normal;font-variant-position:normal;font-variation-settings:normal;inline-size:0;isolation:auto;mix-blend-mode:normal;shape-margin:0;shape-padding:0;text-decoration-color:#000;text-decoration-line:none;text-decoration-style:solid;text-indent:0;text-orientation:mixed;text-transform:none;white-space:normal"
       transform="scale(1.0001)"
       id="path10" />
    <path
       transform="scale(.2646)"
       d="M4 46.969V49c0 6.648 5.896 12 12.544 12h30.961C54.153 61 60 55.648 60 49v-1.992a12.972 12.972 0 0 1-13 12.963H17.002A12.973 12.973 0 0 1 4 46.969z"
       opacity=".03"
       style="font-feature-settings:normal;font-variant-alternates:normal;font-variant-caps:normal;font-variant-east-asian:normal;font-variant-ligatures:normal;font-variant-numeric:normal;font-variant-position:normal;font-variation-settings:normal;inline-size:0;isolation:auto;mix-blend-mode:normal;shape-margin:0;shape-padding:0;text-decoration-color:#000;text-decoration-line:none;text-decoration-style:solid;text-indent:0;text-orientation:mixed;text-transform:none;white-space:normal"
       id="path11" />
    <path
       d="M1.058 11.906v.592c0 1.939 1.573 3.5 3.332 3.5h8.16c1.76 0 3.325-1.561 3.325-3.5v-.58c-.006 2.095-1.537 3.78-3.44 3.78H4.498c-1.905 0-3.44-1.692-3.44-3.792z"
       opacity=".05"
       style="font-feature-settings:normal;font-variant-alternates:normal;font-variant-caps:normal;font-variant-east-asian:normal;font-variant-ligatures:normal;font-variant-numeric:normal;font-variant-position:normal;font-variation-settings:normal;inline-size:0;isolation:auto;mix-blend-mode:normal;shape-margin:0;shape-padding:0;text-decoration-color:#000;text-decoration-line:none;text-decoration-style:solid;text-indent:0;text-orientation:mixed;text-transform:none;white-space:normal"
       transform="scale(1.0001)"
       id="path12" />
  </g>
  <rect
     x="1.058"
     y="1.05"
     width="14.818"
     height="14.818"
     rx="3.44"
     ry="3.44"
     fill="url(#b)"
     id="rect12" />
  <path
     d="m 1.588,3.34 v 2.646 h -0.53 v 0.528 h 1.059 v 2.118 h -1.06 v 0.53 h 0.531 v 2.645 h 2.645 v 1.587 h 1.588 v 1.587 h 5.292 V 13.394 H 12.7 v -1.588 h 2.645 V 9.16 h 0.53 V 8.63 H 14.817 V 6.515 h 1.058 V 5.987 h -0.53 V 3.34 Z"
     filter="url(#c)"
     opacity="0.35"
     id="path13"
     transform="matrix(0.79210089,0,0,0.79210089,1.760074,1.9044598)" />
  <path
     d="M 3.0184843,4.3865519 V 6.4822527 H 2.5985058 v 0.4183019 h 0.8386995 v 1.677399 H 2.5985058 v 0.4191401 h 0.4199785 v 2.0957013 h 2.0948625 v 1.257001 h 1.2578397 v 1.257001 h 4.1914015 v -1.257001 h 1.257002 v -1.25784 h 2.094862 V 8.9970937 h 0.419979 V 8.5779536 h -0.837862 v -1.677399 h 0.837862 V 6.4822527 H 13.914452 V 4.3873901 Z"
     fill="url(#d)"
     id="path14"
     style="fill:url(#d);stroke-width:0.20957" />
  <g
     stroke-width="2"
     id="g22"
     transform="matrix(0.79205596,0,0,0.79205596,1.7606446,1.8708725)">
    <path
       d="m 2.646,2.646 h 0.53 v 2.117 h -0.53 z m 1.588,0 h 0.529 v 2.117 h -0.53 z m 1.587,0 h 0.53 v 2.117 h -0.53 z m 7.938,0 h 0.53 v 2.117 h -0.53 z m -1.588,0 h 0.53 v 2.117 h -0.53 z m -1.587,0 h 0.529 v 2.117 h -0.53 z m -1.588,0 h 0.53 v 2.117 h -0.53 z m -1.587,0 h 0.529 v 2.117 h -0.53 z"
       fill="url(#e)"
       transform="translate(0,0.53)"
       id="path15"
       style="fill:url(#e)" />
    <path
       d="m 5.821,12.7 h 5.292 v 1.588 H 5.82 Z"
       fill="url(#f)"
       transform="translate(0,0.53)"
       id="path16"
       style="fill:url(#f)" />
    <path
       d="M 4.234,11.113 H 5.82 V 12.7 H 4.234 Z"
       fill="url(#g)"
       transform="translate(0,0.53)"
       id="path17"
       style="fill:url(#g)" />
    <path
       d="M 11.113,11.113 H 12.7 V 12.7 h -1.588 z"
       fill="url(#h)"
       transform="translate(0,0.53)"
       id="path18"
       style="fill:url(#h)" />
    <path
       d="m 15.346,5.292 v 0.53 h 0.53 v -0.53 z m 0,2.646 v 0.529 h 0.53 v -0.53 z"
       fill="url(#i)"
       transform="translate(0,0.53)"
       id="path19"
       style="fill:url(#i)" />
    <path
       d="m 1.058,5.292 v 0.53 h 0.53 v -0.53 z m 0,2.646 v 0.529 h 0.53 v -0.53 z"
       fill="url(#j)"
       transform="translate(0,0.53)"
       id="path20"
       style="fill:url(#j)" />
    <path
       d="m 1.588,8.467 h 2.646 v 2.646 H 1.588 Z"
       fill="url(#k)"
       transform="translate(0,0.53)"
       id="path21"
       style="fill:url(#k)" />
    <path
       d="m 12.7,8.467 h 2.646 v 2.646 H 12.7 Z"
       fill="url(#l)"
       transform="translate(0,0.53)"
       id="path22"
       style="fill:url(#l)" />
  </g>
</svg>
