<?xml version="1.0" encoding="UTF-8" standalone="no"?>
<svg
   width="16px"
   height="16px"
   version="1.1"
   id="svg2"
   sodipodi:docname="app-installed-symbolic.svg"
   inkscape:version="1.4.2 (ebf0e940d0, 2025-05-08)"
   xmlns:inkscape="http://www.inkscape.org/namespaces/inkscape"
   xmlns:sodipodi="http://sodipodi.sourceforge.net/DTD/sodipodi-0.dtd"
   xmlns="http://www.w3.org/2000/svg"
   xmlns:svg="http://www.w3.org/2000/svg">
  <defs
     id="defs2" />
  <sodipodi:namedview
     id="namedview2"
     pagecolor="#ffffff"
     bordercolor="#111111"
     borderopacity="1"
     inkscape:showpageshadow="0"
     inkscape:pageopacity="0"
     inkscape:pagecheckerboard="1"
     inkscape:deskcolor="#d1d1d1"
     inkscape:zoom="72.375"
     inkscape:cx="8"
     inkscape:cy="8"
     inkscape:window-width="2560"
     inkscape:window-height="1371"
     inkscape:window-x="0"
     inkscape:window-y="0"
     inkscape:window-maximized="1"
     inkscape:current-layer="svg2" />
  <path
     d="m13.999 3.0006-5.9994 5.9994-3.1254-3.1254-0.70711 0.70711 3.8325 3.8325 6.7065-6.7065z"
     fill="#dedede"
     id="path1" />
  <path
     d="M 8,0 A 8,8 0 0 0 0,8 8,8 0 0 0 8,16 8,8 0 0 0 16,8 8,8 0 0 0 15.948661,7.1160686 L 14.814729,7.2433029 A 6.8571429,6.8571429 0 0 1 14.857139,8 6.8571429,6.8571429 0 0 1 7.9999966,14.857143 6.8571429,6.8571429 0 0 1 1.1428537,8 6.8571429,6.8571429 0 0 1 7.9999966,1.1428571 6.8571429,6.8571429 0 0 1 11.401825,2.0491086 l 0.56696,-0.9933029 A 8,8 0 0 0 7.9999851,0 Z"
     fill="#dedede"
     id="path2"
     style="stroke-width:1.14286" />
</svg>
