<?xml version="1.0" encoding="UTF-8" standalone="no"?>
<svg
   width="16"
   height="16"
   version="1.1"
   id="svg1"
   sodipodi:docname="application-menu-symbolic.svg"
   inkscape:version="1.4 (e7c3feb100, 2024-10-09)"
   xmlns:inkscape="http://www.inkscape.org/namespaces/inkscape"
   xmlns:sodipodi="http://sodipodi.sourceforge.net/DTD/sodipodi-0.dtd"
   xmlns="http://www.w3.org/2000/svg"
   xmlns:svg="http://www.w3.org/2000/svg">
  <sodipodi:namedview
     id="namedview1"
     pagecolor="#ffffff"
     bordercolor="#111111"
     borderopacity="1"
     inkscape:showpageshadow="0"
     inkscape:pageopacity="0"
     inkscape:pagecheckerboard="1"
     inkscape:deskcolor="#d1d1d1"
     inkscape:zoom="72.375"
     inkscape:cx="8.0069085"
     inkscape:cy="8"
     inkscape:window-width="2560"
     inkscape:window-height="1371"
     inkscape:window-x="0"
     inkscape:window-y="0"
     inkscape:window-maximized="1"
     inkscape:current-layer="svg1" />
  <defs
     id="defs1">
    <style
       id="current-color-scheme"
       type="text/css">.ColorScheme-Text { color:#dedede; }</style>
  </defs>
  <path
     id="path1-5"
     style="fill:#dedede;fill-opacity:1;paint-order:fill markers stroke"
     d="M 7.419922,0 C 7.197052,0 6.88444,0.0616729 6.625,0.2792969 6.36556,0.4969169 6.241528,0.817215 6.210938,1.046875 L 6.230468,0.9453125 5.8886709,2.3671875 C 5.7492819,2.4183585 5.6180181,2.4734631 5.4863281,2.5332031 L 4.2480469,1.7753906 a 1.0001,1.0001 0 0 0 -0.00781,-0.00391 C 4.0616444,1.6642244 3.7659656,1.5527469 3.4472656,1.5917969 3.1285656,1.6308509 2.8922494,1.796715 2.7558594,1.921875 A 1.0001,1.0001 0 0 0 2.7304684,1.945312 L 1.9101562,2.7519531 a 1.0001,1.0001 0 0 0 -0.037109,0.037109 C 1.7183369,2.9580125 1.5630019,3.245115 1.5449219,3.546875 1.5268419,3.848635 1.6268,4.0947794 1.71875,4.2558594 a 1.0001,1.0001 0 0 0 0.019531,0.03125 l 0.7695313,1.2402344 c -0.05533,0.12087 -0.099131,0.2492956 -0.1503906,0.3847656 L 0.9492187,6.244141 a 1.0001,1.0001 0 0 0 -0.013672,0.0019 C 0.7736569,6.286622 0.4958775,6.381218 0.2734375,6.648438 0.0509975,6.915658 0,7.242156 0,7.441406 v 1.148438 c 0,0.22259 0.062037,0.533379 0.2792969,0.792969 0.21726,0.259589 0.535715,0.383342 0.765625,0.414062 l -0.099609,-0.01758 1.4238281,0.339844 c 0.04682,0.12529 0.093464,0.245751 0.1464844,0.363281 L 1.744141,11.740232 c -0.10296,0.1674 -0.21441,0.428554 -0.1875,0.751954 0.02691,0.323399 0.2126581,0.621959 0.3925782,0.787109 L 2.7324219,14.0625 c 0.15441,0.15462 0.4091694,0.324561 0.7246093,0.363281 C 3.7724713,14.464501 4.06682,14.358911 4.25,14.246094 l 1.2519531,-0.771485 c 0.12417,0.05748 0.2485163,0.111387 0.3789063,0.160157 l 0.3496096,1.43164 -0.01953,-0.105468 c 0.03098,0.23258 0.168613,0.572706 0.439453,0.785156 C 6.921231,15.958544 7.216752,16 7.419922,16 h 1.167969 c 0.20318,0 0.512733,-0.05034 0.777343,-0.263672 0.26461,-0.21333 0.380662,-0.514707 0.419922,-0.710937 l -0.0078,0.04101 0.349609,-1.429687 c 0.13059,-0.04936 0.256056,-0.102997 0.378906,-0.160157 l 1.242188,0.769532 a 1.0001,1.0001 0 0 0 0.002,0 c 0.18326,0.11293 0.477539,0.218397 0.792969,0.179687 0.31543,-0.03872 0.570189,-0.208691 0.724609,-0.363281 a 1.0001,1.0001 0 0 0 0.0039,-0.002 l 0.779297,-0.789063 c 0.16884,-0.15492 0.364538,-0.453743 0.392578,-0.783203 0.02804,-0.32946 -0.08299,-0.576265 -0.169921,-0.728515 a 1.0001,1.0001 0 0 0 -0.01758,-0.0293 L 13.48637,10.48432 c 0.05378,-0.11732 0.100848,-0.237711 0.148438,-0.363281 L 15.0625,9.779297 14.96289,9.796877 C 15.19574,9.765757 15.534053,9.628354 15.746093,9.357424 15.958134,9.086492 16,8.792784 16,8.589844 V 7.441406 C 16,7.260716 15.9693,6.955631 15.751953,6.675781 15.534603,6.395921 15.238936,6.287824 15.072266,6.246094 a 1.0001,1.0001 0 0 0 -0.01367,-0.0019 L 13.650391,5.9121094 C 13.597651,5.7751594 13.555381,5.6454006 13.5,5.5253906 L 14.253906,4.3007812 C 14.358926,4.1372212 14.481377,3.880695 14.460938,3.546875 14.440498,3.213055 14.246356,2.9014181 14.066406,2.7363281 L 13.275391,1.9589844 c -0.14462,-0.14475 -0.403957,-0.3242213 -0.722657,-0.3632813 -0.31869,-0.039061 -0.58703,0.063352 -0.75,0.1503907 a 1.0001,1.0001 0 0 0 -0.05078,0.029297 L 10.517578,2.5332031 C 10.392188,2.4752961 10.2613,2.4253569 10.125,2.3730469 L 9.789063,0.9941406 C 9.752673,0.8000406 9.645946,0.4981706 9.378906,0.2753906 9.111876,0.0526106 8.791141,0 8.587891,0 Z m 0,1 h 1.167969 c 0.13163,0 0.193537,0.053715 0.216797,0.1777344 L 9.269531,3.09375 c 0.50333,0.12403 0.960497,0.3317681 1.347657,0.5488281 l 1.658203,-1.015625 c 0.11612,-0.062021 0.200018,-0.053962 0.292968,0.039063 l 0.820313,0.8066406 c 0.09295,0.085272 0.09313,0.1785794 0.02344,0.2871094 l -1.021484,1.6582032 c 0.18581,0.34884 0.418946,0.8302197 0.535156,1.3496097 l 1.904297,0.449218 C 14.953948,7.247808 15,7.30187 15,7.441406 v 1.148438 c 0,0.13177 -0.0538,0.201277 -0.169922,0.216797 l -1.912109,0.457031 c -0.11621,0.48836 -0.326149,0.961842 -0.542969,1.326172 l 1.029297,1.666015 c 0.06194,0.10848 0.0617,0.194007 -0.03125,0.279297 l -0.8125,0.822266 c -0.09295,0.09305 -0.18649,0.09911 -0.287109,0.03711 l -1.664063,-1.029297 c -0.38712,0.24034 -0.828844,0.432541 -1.339844,0.556641 L 8.804688,14.830078 C 8.781429,14.946328 8.719517,15 8.587891,15 H 7.419922 C 7.288292,15 7.218615,14.94633 7.203125,14.830078 L 6.738281,12.921875 C 6.250451,12.805545 5.7777775,12.605574 5.3984375,12.365234 l -1.671875,1.029297 c -0.10067,0.062 -0.1941794,0.05594 -0.2871094,-0.03711 l -0.8125,-0.814453 c -0.09292,-0.08529 -0.0932,-0.178557 -0.03125,-0.279297 L 3.625,10.589844 C 3.40819,10.217824 3.2059938,9.752092 3.0898438,9.263672 L 1.1777344,8.806641 C 1.0615744,8.791118 1,8.721615 1,8.589844 V 7.441406 C 1,7.301876 1.053834,7.247817 1.1777344,7.216797 l 1.90625,-0.449219 C 3.2001344,6.248198 3.4236175,5.7667687 3.6171875,5.4179688 L 2.5878906,3.7597656 c -0.06195,-0.10853 -0.061743,-0.2019119 0.023437,-0.2949218 l 0.820313,-0.8066407 c 0.09292,-0.085272 0.1787719,-0.10102 0.2949219,-0.03125 l 1.65625,1.015625 C 5.7312725,3.4255281 6.250504,3.2099675 6.746094,3.0859375 L 7.203125,1.1777344 C 7.218613,1.0614644 7.288289,1 7.419922,1 Z M 8,5 A 3,3 0 0 0 5,8 3,3 0 0 0 8,11 3,3 0 0 0 11,8 3,3 0 0 0 8,5 Z M 8,6 A 2,2 0 0 1 10,8 2,2 0 0 1 8,10 2,2 0 0 1 6,8 2,2 0 0 1 8,6 Z" />
</svg>
