<?xml version="1.0" encoding="UTF-8"?>
<svg width="16" height="16" xmlns="http://www.w3.org/2000/svg">
 <path d="M0 0v3h3V0H0zm1 1h1v1H1V1zm12-1v3h3V0Zm1 1h1v1h-1zM0 13v3h3v-3zm1 1h1v1H1Zm12-1v3h3v-3zm1 1h1v1h-1z" fill="#dedede" stroke-linecap="round" stroke-linejoin="round" stroke-width="2" style="paint-order:stroke fill markers"/>
 <path d="M1 2h1v12H1z" fill="#dedede" stroke-linecap="round" stroke-linejoin="round" stroke-width="2.0377" style="paint-order:stroke fill markers"/>
 <path d="M2 1h12v1H2z" fill="#dedede" stroke-linecap="round" stroke-linejoin="round" stroke-width="2" style="paint-order:stroke fill markers"/>
 <path d="m14 2h1v12h-1z" fill="#dedede" stroke-linecap="round" stroke-linejoin="round" stroke-width="2.0377" style="paint-order:stroke fill markers"/>
 <path d="M1.963 14H14v1H1.963z" fill="#dedede" stroke-linecap="round" stroke-linejoin="round" stroke-width="2" style="paint-order:stroke fill markers"/>
 <path d="m8 14-6-5 11-6z" fill="#dedede"/>
</svg>
