<?xml version="1.0" encoding="UTF-8"?>
<svg width="16" height="16" xmlns="http://www.w3.org/2000/svg">
 <path d="m2.07 7.07 4 6.929a1.996 1.996 0 0 0 2.732.732l5.196-3a1.996 1.996 0 0 0 .732-2.732l-4-6.928-.866.5 4 6.928a.998.998 0 0 1-.366 1.366l-5.196 3a.998.998 0 0 1-1.366-.366l-4-6.928Z" fill="#dedede" stroke-linecap="round" stroke-linejoin="round" stroke-width="2" style="paint-order:stroke fill markers"/>
 <path d="M9.5 5A1.5 1.5 0 0 0 8 6.5 1.5 1.5 0 0 0 9.5 8 1.5 1.5 0 0 0 11 6.5 1.5 1.5 0 0 0 9.5 5zm0 1a.5.5 0 0 1 .5.5.5.5 0 0 1-.5.5.5.5 0 0 1-.5-.5.5.5 0 0 1 .5-.5z" fill="#dedede" stroke-linecap="round" stroke-linejoin="round" stroke-width="2" style="paint-order:stroke fill markers"/>
 <rect x="9" width="1" height="6" rx=".5" ry=".5" fill="#dedede" stroke-linecap="round" stroke-linejoin="round" stroke-width="2" style="paint-order:stroke fill markers"/>
 <path d="M3 6c-1.108 0-2 .892-2 2v6h1V8c0-.554.446-1 1-1h2V6H3z" fill="#dedede" stroke-linecap="round" stroke-linejoin="round" stroke-width="2.8284" style="paint-order:stroke fill markers"/>
 <rect x="5" y="6" width="4" height="1" rx="0" ry="0" fill="#dedede" stroke-linecap="round" stroke-linejoin="round" stroke-width="1.4142" style="paint-order:stroke fill markers"/>
 <rect x="10" y="6" width="3" height="1" rx="0" ry="0" fill="#dedede" stroke-linecap="round" stroke-linejoin="round" stroke-width="1.2247" style="paint-order:stroke fill markers"/>
</svg>
