<?xml version="1.0" encoding="UTF-8"?>
<svg width="16" height="16" xmlns="http://www.w3.org/2000/svg">
 <path d="M2 2h12v1H2Z" fill="#dedede" stroke-width=".7071"/>
 <path d="m8.02 11 3 3v-3z" fill="#dedede"/>
 <path d="M2 0C.892 0 0 .892 0 2v12c0 1.108.892 2 2 2h12c1.108 0 2-.892 2-2V2c0-1.108-.892-2-2-2Zm0 1h12c.554 0 1 .446 1 1v12c0 .554-.446 1-1 1H2c-.554 0-1-.446-1-1V2c0-.554.446-1 1-1Z" fill="#dedede" stroke-width="0" style="paint-order:stroke fill markers"/>
 <path d="M4 5c-.554 0-1 .446-1 1v4c0 .554.446 1 1 1h8c.554 0 1-.446 1-1V6c0-.554-.446-1-1-1H4zm0 1h8v4H4V6z" fill="#dedede" stroke-width="0" style="paint-order:stroke fill markers"/>
</svg>
