<?xml version="1.0" encoding="UTF-8"?>
<svg id="svg1" width="16" height="16" version="1.1" xmlns="http://www.w3.org/2000/svg">
 <style id="s2">@import "../../highlights.css";</style>
 <g id="g944" transform="translate(-20.284 -14.75)" fill="#dedede">
  <path id="rect18780-3" d="m26.284 14.75v3h9v-3zm1 1h7v1h-7zm-1 5v4h6v-4zm1 1h4v2h-4zm-1 6v3h8v-3zm1 1h6v1h-6z"/>
  <path id="rect10358" d="m20.284 16.75v1h2v3h-2v1h5v-1h-2v-3h2v-1h-5zm0 7v1h2v3h-2v1h5v-1h-2v-3h2v-1h-5z" stroke-linecap="round" stroke-linejoin="round" stroke-width="2" style="paint-order:stroke fill markers"/>
 </g>
</svg>
