<?xml version="1.0" encoding="UTF-8"?>
<svg width="16" height="16" xmlns="http://www.w3.org/2000/svg">
 <path transform="matrix(0 -.66667 .66653 0 -574.12 712)" d="M1068 867.359h-6l-1.398-1.5H1068Zm0 7.501h-7.5l1.602-1.5H1068Zm0 7.502h-6.17l-1.33-1.5h7.5z" fill="#dedede"/>
 <path transform="matrix(.66653 0 0 .66667 -574.12 712)" d="m868.86-1066.5h3.001v3h-3.001zm7.501 0h3.001v3h-3.001z" fill="#dedede" opacity=".45"/>
 <path transform="matrix(0 -.66667 .66653 0 -574.12 712)" d="m1044 862.86a4.49 4.49 0 0 0 4.5 4.5v-1.5c-1.662 0-3-1.338-3-3zm12 3v1.5c1.662 0 3 1.339 3 3.001 0 1.663-1.338 3-3 3v1.501a4.49 4.49 0 0 0 4.5-4.5 4.49 4.49 0 0 0-4.5-4.502zm-7.5 7.502a4.49 4.49 0 0 0-4.5 4.5 4.49 4.49 0 0 0 4.5 4.502v-1.5c-1.662 0-3-1.339-3-3.001 0-1.663 1.338-3 3-3zm7.5 7.501v1.5c1.662 0 3 1.34 3 3.001h1.5a4.49 4.49 0 0 0-4.5-4.5z" fill="#dedede" opacity=".45"/>
 <path transform="matrix(0 -.66667 .66653 0 -574.12 712)" d="m1051.5 861.36v3.001h-1.5v4.501h1.5v3h-1.5v4.501h1.5v3.001h-1.5v4.501h1.5v1.5h1.5v-1.5h1.5v-4.5h-1.5v-3.002h1.5v-4.5h-1.5v-3.001h1.5v-4.5h-1.5v-3.002zm0 4.501h1.5v1.5h-1.5zm0 7.502h1.5v1.5h-1.5zm0 7.501h1.5v1.5h-1.5z" fill="#dedede"/>
</svg>
