<?xml version="1.0" encoding="UTF-8"?>
<svg id="svg1" width="16" height="16" version="1.1" xmlns="http://www.w3.org/2000/svg">
 <style id="s2">@import "../../highlights.css";</style>
 <g id="distribute-randomize" transform="translate(-696 -548.91) scale(.66667)">
  <path id="path4069" d="m1050 824.86v4.5h6v-4.5h-6zm9 0v4.5h6v-4.5h-6zm-7.5 1.5h3v1.5h-3v-1.5zm9 0h3v1.5h-3v-1.5zm-14.971 4.497v4.5h6v-4.5h-6zm14.97 3e-3v4.5h6v-4.5h-6zm-13.5 1.5h3v1.5h-3v-1.5zm6 0v4.5h6v-4.5h-6zm9 0h3v1.5h-3v-1.5zm-7.5 1.5h3v1.5h-3v-1.5zm-9 3v4.5h6v-4.5h-6zm1.5 1.5h3v1.5h-3v-1.5zm13.5 0v4.5h6v-4.5h-6zm1.5 1.5h3v1.5h-3v-1.5zm-9 1.5v4.5h6v-4.5h-6zm1.5 1.5h3v1.5h-3v-1.5z" fill="#dedede" stroke-width="1.0607"/>
 </g>
</svg>
