<?xml version="1.0" encoding="UTF-8"?>
<svg id="svg1" width="16" height="16" version="1.1" xmlns="http://www.w3.org/2000/svg">
 <style id="s2">@import "../../highlights.css";</style>
 <g id="distribute-horizontal-gaps" transform="matrix(.66667 0 0 .66665 -772.67 -472.23)">
  <path id="rect18780-3" d="M1162 708.362v7.5h1.482v-3h4.517v3h1.483v-3h.017v-1.5h-.017v-3h-1.483v3h-4.517v-3h-1.483zm10.517 0v3h-.018v1.5h.018v3h1.482v-3h4.5v3h1.518v-7.5h-1.518v3h-4.5v-3h-1.482zm-13.518 9v12h4.5v-12h-4.5zm9 0v9h6v-9h-6zm10.5 0v13.5h4.5v-13.5h-4.5zm-18 1.5h1.5v9h-1.5v-9zm9 0h3v6h-3v-6zm10.5 0h1.5v10.5h-1.5v-10.5z" fill="#dedede" stroke-width="1.5"/>
 </g>
</svg>
