<?xml version="1.0" encoding="UTF-8"?>
<svg width="16" height="16" xmlns="http://www.w3.org/2000/svg">
 <path d="M8 0a8 8 0 0 0-8 8 8 8 0 0 0 8 8 8 8 0 0 0 8-8 8 8 0 0 0-1-3.867V5h-.678A7 7 0 0 1 15 8a7 7 0 0 1-7 7 7 7 0 0 1-7-7 7 7 0 0 1 7-7 7 7 0 0 1 5 2.104V3h1.242A8 8 0 0 0 8 0z" fill="#dedede"/>
 <path d="M15 3.195v1.018l.164-.104a.5.5 0 0 0 .158-.69.5.5 0 0 0-.31-.222.5.5 0 0 0-.012-.002zm-2 1.088L8.654 7H9v.965L13.74 5H13v-.717z" fill="#dedede" stroke-linecap="round" stroke-linejoin="round" stroke-miterlimit="0" style="-inkscape-stroke:none"/>
 <path d="M7 6c-.554 0-1 .446-1 1v2c0 .554.446 1 1 1h2c.554 0 1-.446 1-1V7c0-.554-.446-1-1-1H7zm0 1h2v2H7V7z" fill="#dedede" style="paint-order:stroke fill markers"/>
 <rect x="7" y="7" width="2" height="2" rx="0" ry="0" fill="#dedede" opacity=".35" style="paint-order:stroke fill markers"/>
 <path d="M13 2c-.554 0-1 .446-1 1v2c0 .554.446 1 1 1h2c.554 0 1-.446 1-1V3c0-.554-.446-1-1-1Zm0 1h2v2h-2z" fill="#dedede" style="paint-order:stroke fill markers"/>
 <rect x="13" y="3" width="2" height="2" rx="0" ry="0" fill="#dedede" opacity=".35" style="paint-order:stroke fill markers"/>
</svg>
