<?xml version="1.0" encoding="UTF-8"?>
<svg width="16" height="16" xmlns="http://www.w3.org/2000/svg">
 <path transform="translate(-45.07 -567.36)" d="m48.07 570.36h1v1h-1z" fill="#dedede" opacity=".999" style="paint-order:stroke fill markers"/>
 <path d="M3 1c-1.108 0-2 .892-2 2v11c0 1.108.892 2 2 2h10c1.108 0 2-.892 2-2V3c0-1.108-.892-2-2-2h-2v1l-.002.033H13c.554 0 1 .446 1 1v10.934c0 .554-.446 1-1 1H3c-.554 0-1-.446-1-1V3.033c0-.554.446-1 1-1h2.002L5 2V1H3z" fill="#dedede"/>
 <path d="M6 0c-.554 0-1 .446-1 1v1c0 .554.446 1 1 1h4c.554 0 1-.446 1-1V1c0-.554-.446-1-1-1zm0 1h4v1H6z" fill="#dedede"/>
 <path transform="translate(-45.07 -567.36)" d="m57.07 570.36h1v1h-1zm-9 10h1v1h-1zm9 0h1v1h-1z" fill="#dedede" opacity=".999" style="paint-order:stroke fill markers"/>
 <path transform="rotate(45 662.33 -338.08)" d="m441.54 366.49v4h1v-2.293l4.364 4.364h-2.292v1h4v-4h-1v2.293l-4.365-4.365h2.293v-1h-4z" fill="#dedede" stroke-linecap="round" stroke-linejoin="round" style="paint-order:stroke fill markers"/>
</svg>
