<?xml version="1.0" encoding="UTF-8"?>
<svg width="16" height="16" xmlns="http://www.w3.org/2000/svg">
 <path d="M3 1c-1.108 0-2 .892-2 2v11c0 1.108.892 2 2 2h10c1.108 0 2-.892 2-2V3c0-1.108-.892-2-2-2h-2v1l-.002.033H13c.554 0 1 .446 1 1v10.934c0 .554-.446 1-1 1H3c-.554 0-1-.446-1-1V3.033c0-.554.446-1 1-1h2.002L5 2V1H3z" fill="#dedede"/>
 <path d="M6 0c-.554 0-1 .446-1 1v1c0 .554.446 1 1 1h4c.554 0 1-.446 1-1V1c0-.554-.446-1-1-1zm0 1h4v1H6z" fill="#dedede"/>
 <path transform="translate(-45.07 -567.36)" d="m53.07 571.36-0.707 0.707-2.12 2.121 0.706 0.707 1.621-1.62v6.171l-1.62-1.621-0.708 0.707 2.828 2.828 2.828-2.828-0.707-0.707-1.62 1.621v-6.172l1.62 1.621 0.707-0.707z" fill="#dedede" stroke-linecap="round" stroke-linejoin="round" style="paint-order:stroke fill markers"/>
</svg>
