<?xml version="1.0" encoding="UTF-8"?>
<svg width="16" height="16" xmlns="http://www.w3.org/2000/svg">
 <path transform="translate(-195 -931.36)" d="m195 931.36h1v16h-1z" fill="#dedede"/>
 <path transform="translate(-195 -931.36)" d="m195 931.36h16v1h-16z" fill="#dedede"/>
 <path transform="translate(-195 -931.36)" d="m210 931.36h1v16h-1z" fill="#dedede"/>
 <path transform="translate(-195 -931.36)" d="m195 946.36h16v1h-16zm0-12h16v1h-16zm0 3h16v1h-16zm0 3h16v1h-16zm0 3h16v1h-16z" fill="#dedede"/>
 <path transform="translate(-195 -931.36)" d="m198 931.36h1v16h-1zm3 0h1v16h-1zm3 0h1v16h-1zm3 0h1v16h-1z" fill="#dedede"/>
</svg>
