<?xml version="1.0" encoding="UTF-8"?>
<svg width="16" height="16" xmlns="http://www.w3.org/2000/svg">
 <path transform="matrix(.99453 0 0 1 -223.68 -527.36)" d="m229.98 535.82c0.01 1.357-1.106 2.497-2.49 2.507-1.385 0.01-2.519-1.113-2.529-2.47-0.01-1.358 1.107-2.498 2.492-2.508 1.384-0.01 2.517 1.113 2.527 2.47zm-1.447 0.01a1.056 1.056 0 0 0-1.07-1.067 1.056 1.056 0 0 0-1.054 1.083c4e-3 0.61 0.482 1.07 1.07 1.067a1.056 1.056 0 0 0 1.054-1.083zm1.405-5.99c0.01 1.353-1.108 2.489-2.493 2.499s-2.519-1.11-2.529-2.462 1.107-2.488 2.493-2.498c1.385-0.01 2.519 1.109 2.529 2.461zm-1.448 0.011a1.055 1.055 0 0 0-1.071-1.063c-0.588 4e-3 -1.06 0.47-1.055 1.079a1.055 1.055 0 0 0 1.07 1.063 1.055 1.055 0 0 0 1.056-1.079z" fill="#dedede" stroke-width=".9989"/>
 <path transform="matrix(.99453 0 0 1 -223.68 -527.36)" d="M235.97 536.145c-.376.73-1.203.972-1.866.558l-5.028-2.992-1.62 1.209-1.44-.959 1.7-1.115-1.716-1.069 1.366-.97 1.697 1.154 4.984-3.065c.656-.424 1.487-.193 1.873.53l-5.476 3.4z" fill="#dedede" stroke-width=".9989"/>
 <path transform="matrix(.99453 0 0 1 -223.68 -15)" d="m235 20h2v1h-2z" fill="#dedede"/>
 <path transform="matrix(.99453 0 0 1 -223.68 -527.36)" d="m238 532.36h2v1h-2zm1 2h1v2h-1zm0 3h1v2h-1zm-1 3h2v1h-2zm-3 0h2v1h-2zm-3 0h2v1h-2zm-3 0h2v1h-2zm-3 0h2v1h-2z" fill="#dedede"/>
</svg>
