<?xml version="1.0" encoding="UTF-8"?>
<svg width="16px" height="16px" viewBox="0 0 16 16" xmlns="http://www.w3.org/2000/svg">
 <g fill="#dedede">
  <path d="m11 0c-1.1094 0-2 0.91406-2 2.0156v4.7773l-0.85156 0.85156c-0.19141 0.19141-0.19922 0.49609-0.015626 0.69141l0.86719 0.95312v4.6641c0 0.65625 0.23438 1.207 0.625 1.5625 0.38672 0.35156 0.89453 0.49609 1.3906 0.48438l-0.03125-1c-0.27734 0.007812-0.51953-0.074219-0.6875-0.22656-0.16797-0.15234-0.29688-0.38672-0.29688-0.82031v-4.8594c0-0.125-0.046875-0.24609-0.12891-0.33594l-0.67969-0.74219 0.66406-0.66406c0.09375-0.09375 0.14453-0.21875 0.14453-0.35156v-4.9844c0-0.58594 0.42188-1.0156 1-1.0156z"/>
  <path d="m6 5c-1.332 0-2.2773 0.8125-2.6445 1.5508-0.37109 0.73828-0.35938 1.4492-0.35938 1.4492l0.023437 4.9922s-0.015625 0.28906-0.15234 0.55469c-0.13281 0.26172-0.19922 0.45312-0.86719 0.45312h-1v2h1c1.3359 0 2.2773-0.80859 2.6523-1.5469 0.375-0.73438 0.36719-1.4453 0.36719-1.4453v-0.003906l-0.023437-5.0039s0.015625-0.28906 0.14453-0.55078c0.13281-0.26172 0.19531-0.44922 0.85938-0.44922h1v-2z"/>
  <path d="m2 9v2h5v-2z"/>
  <path d="m13.016 0v1c0.57812 0 1 0.42969 1 1.0156v4.9844c0 0.13281 0.050781 0.25781 0.14453 0.35156l0.66406 0.66406-0.67969 0.74219c-0.082031 0.089844-0.12891 0.21094-0.12891 0.33594v4.8594c0 0.43359-0.12891 0.66797-0.29688 0.82031-0.16797 0.15234-0.41016 0.23437-0.69141 0.22656l-0.027344 1c0.49609 0.011719 1-0.13281 1.3906-0.48438 0.38672-0.35547 0.625-0.90625 0.625-1.5625v-4.6641l0.86719-0.95312c0.17969-0.19531 0.17578-0.5-0.015624-0.69141l-0.85156-0.85156v-4.7773c0-1.1016-0.89062-2.0156-2-2.0156z"/>
 </g>
</svg>
