<?xml version="1.0" encoding="UTF-8"?>
<svg width="16" height="16" xmlns="http://www.w3.org/2000/svg">
 <path d="M3 0c-.554 0-1 .446-1 1H0v1h2v1c0 .554.446 1 1 1h2c.554 0 1-.446 1-1V2h4v1c0 .554.446 1 1 1h2c.554 0 1-.446 1-1V2h2V1h-2c0-.554-.446-1-1-1h-2c-.554 0-1 .446-1 1H6c0-.554-.446-1-1-1H3zm0 1h2v2H3V1zm8 0h2v2h-2V1zM7.503 6.006h.994V11h-.994z" fill="#dedede" stroke-linecap="round" stroke-linejoin="round"/>
 <path transform="rotate(-45)" d="m-2.828 13.142h4v1h-4z" fill="#dedede" stroke-linecap="round" stroke-linejoin="round"/>
 <path transform="scale(-1 1) rotate(-45)" d="m-14.142 1.828h4v1h-4z" fill="#dedede" stroke-linecap="round" stroke-linejoin="round"/>
 <path d="M3 12c-.554 0-1 .446-1 1v2c0 .554.446 1 1 1h2c.554 0 1-.446 1-1v-2c0-.554-.446-1-1-1Zm0 1h2v2H3Zm8-1c-.554 0-1 .446-1 1v2c0 .554.446 1 1 1h2c.554 0 1-.446 1-1v-2c0-.554-.446-1-1-1zm0 1h2v2h-2zM0 13h2v1H0zm14 0h2v1h-2z" fill="#dedede" stroke-linecap="round" stroke-linejoin="round"/>
</svg>
