<?xml version="1.0" encoding="UTF-8"?>
<svg id="svg1" width="16" height="16" version="1.1" xmlns="http://www.w3.org/2000/svg">
 <g id="snap-page" transform="translate(-979 -527.36)" fill="#dedede">
  <path id="rect8761" d="M984 530.362c-1.108 0-2 .892-2 2v6c0 1.108.892 2 2 2h6c1.108 0 2-.892 2-2v-5h-1v5c0 .554-.446 1-1 1h-6c-.554 0-1-.446-1-1v-6c0-.554.446-1 1-1h5v-1h-5z" stroke-linecap="round" stroke-linejoin="round"/>
  <path id="rect8766" d="M988 530.362v3c0 .554.446 1 1 1h3v-1h-3v-3h-1z" stroke-linecap="round" stroke-linejoin="round"/>
  <path id="path8777" d="m989 530.362-.707.707 3 3 .707-.707Z" style="-inkscape-stroke:none"/>
  <path id="path8783" d="m979 533.36 2 2-2 2z"/>
  <path id="path9265" d="m995 533.36-2 2 2 2z"/>
  <path id="path9267" d="m989 527.36-2 2-2-2z"/>
  <path id="path9269" d="m989 543.36-2-2-2 2z"/>
 </g>
 <style id="s2">@import "../../highlights.css";.success{fill:#009909}.warning{fill:#ff1990}.error{fill:#0af}</style>
</svg>
