<?xml version="1.0" encoding="UTF-8"?>
<svg id="svg1" width="16" height="16" version="1.1" xmlns="http://www.w3.org/2000/svg">
 <g id="snap-page" transform="translate(-979 -527.36)">
  <g id="snap-page-7" fill="#dedede">
   <g id="g8353" transform="rotate(-90 987 535.36)">
    <path id="rect8149" d="M995 531.362c0-1.108-.892-2-2-2h-6v1h6c.554 0 1 .446 1 1v6h1zm-4 9h-10c-.554 0-1-.446-1-1v-4h-1v4c0 1.108.892 2 2 2h10z" stroke-linecap="round" stroke-linejoin="round"/>
    <path id="rect8154" d="M991 536.362c-.554 0-1 .446-1 1v4h1v-4h4v-1z" stroke-linecap="round" stroke-linejoin="round"/>
    <path id="path8171" d="m994.293 536.655-4 4 .707.707 4-4z" style="-inkscape-stroke:none"/>
   </g>
   <path id="rect8360" d="m985.621 536.534-2.121 2.121-2.121-2.121-.707.707 2.12 2.121-2.12 2.122.707.707 2.121-2.122 2.121 2.122.707-.707-2.12-2.122 2.12-2.121z" stroke-linecap="round" stroke-linejoin="round"/>
  </g>
 </g>
 <style id="s2">@import "../../highlights.css";.success{fill:#009909}.warning{fill:#ff1990}.error{fill:#0af}</style>
</svg>
