<?xml version="1.0" encoding="UTF-8"?>
<svg width="16" height="16" xmlns="http://www.w3.org/2000/svg">
 <path d="m15.193 0-.134.402s-.612 1.82-1.819 3.631C12.413 5.274 11.327 6.475 10 7.11v.93c1.696-.671 3.009-2.124 3.95-3.535A18.097 18.097 0 0 0 15.865.673L16 .27ZM6 7.97c-1.681.679-2.987 2.123-3.928 3.524a18.222 18.222 0 0 0-1.935 3.83L0 15.727.805 16l.136-.402s.622-1.82 1.838-3.631c.826-1.23 1.907-2.422 3.221-3.06Z" fill="#dedede" stroke-width=".98699"/>
 <path d="M6 6v3.99h4V6Zm1 .998h2v1.994H7Z" fill="#dedede" stroke-width=".99879"/>
 <path transform="rotate(45)" d="m3.071-2.828h4v1h-4z" fill="#dedede" stroke-linecap="round" stroke-linejoin="round"/>
 <path transform="scale(1 -1) rotate(45)" d="m-1.172-7.071h4v1h-4z" fill="#dedede" stroke-linecap="round" stroke-linejoin="round"/>
 <path d="M0 2.5h6v1H0z" fill="#dedede" stroke-linecap="round" stroke-linejoin="round"/>
 <path transform="scale(-1 1) rotate(45)" d="m-1.172 15.556h4v1h-4z" fill="#dedede" stroke-linecap="round" stroke-linejoin="round"/>
 <path transform="rotate(225)" d="m-19.556-2.828h4v1h-4z" fill="#dedede" stroke-linecap="round" stroke-linejoin="round"/>
 <path transform="scale(-1 1)" d="m-16 12.5h6v1h-6z" fill="#dedede" stroke-linecap="round" stroke-linejoin="round"/>
</svg>
