<?xml version="1.0" encoding="UTF-8"?>
<svg width="16" height="16" xmlns="http://www.w3.org/2000/svg">
 <path transform="translate(-45 -607.36)" d="m59.488 613.373-.5-.5v8.977l.5-.5h-8.976l.5.5v-8.977l-.5.5zm-9.476 8.977h9.976v-9.977h-9.976z" fill="#dedede"/>
 <path transform="translate(-45 -607.36)" d="m54.5 608.361-.5-.5v3l.5-.5H48v5.5l.5-.5h-3l.5.5v-8l-.5.5zm-9.5 8h4v-5.5l-.5.5H55v-4H45Z" fill="#dedede"/>
 <path transform="translate(-45 -607.36)" d="M54.402 614.362c-.851 0-1.402.706-1.402 1.559v1.441h-.5c-.275 0-.5.25-.5.563v2.437h6v-2.5c0-.313-.221-.5-.496-.5H57v-1.437c0-.853-.68-1.563-1.531-1.563h-1.067zm.102.996.992.008c.258.002.466.226.473.559l.031 1.437h-2v-1.437c0-.333.247-.569.504-.567zM53 618.362h4v1h-4v-1z" fill="#dedede"/>
</svg>
