<?xml version="1.0" encoding="UTF-8"?>
<svg width="16" height="16" xmlns="http://www.w3.org/2000/svg">
 <path d="M1 12c-.554 0-1 .446-1 1v2c0 .554.446 1 1 1h2c.554 0 1-.446 1-1v-2c0-.554-.446-1-1-1Zm0 1h2v2H1Z" fill="#dedede" fill-rule="evenodd" stroke-linecap="round" stroke-linejoin="round"/>
 <rect x="1" y="13" width="2" height="2" rx="0" ry="0" fill="#dedede" fill-rule="evenodd" opacity=".35" stroke-linecap="round" stroke-linejoin="round"/>
 <path d="M11.816 1.994c-.51-.005-1.001.023-1.472.082C7.517 2.432 5.4 3.865 4.03 5.67 2.566 7.603 1.915 9.945 2.014 12h1.138c-.111-1.799.401-3.962 1.723-5.705 1.216-1.604 3.04-2.848 5.594-3.156A8.99 8.99 0 0 1 12 3.109V1.998l-.184-.004zm1.086 1.998c.162 5.094-3.846 9.092-8.902 8.89v1.11c5.607.196 10.124-4.358 9.979-10h-1.077z" fill="#dedede"/>
 <path d="M13 0c-.554 0-1 .446-1 1v2c0 .554.446 1 1 1h2c.554 0 1-.446 1-1V1c0-.554-.446-1-1-1Zm0 1h2v2h-2z" fill="#dedede" fill-rule="evenodd" stroke-linecap="round" stroke-linejoin="round"/>
 <rect x="13" y="1" width="2" height="2" rx="0" ry="0" fill="#dedede" fill-rule="evenodd" opacity=".35" stroke-linecap="round" stroke-linejoin="round"/>
</svg>
