<?xml version="1.0" encoding="UTF-8"?>
<svg width="16" height="16" xmlns="http://www.w3.org/2000/svg">
 <circle cx="3.5" cy="1.5" r=".5" fill="#dedede" fill-rule="evenodd" stroke-linecap="round" stroke-linejoin="round"/>
 <circle cx="3.5" cy="14.5" r=".5" fill="#dedede" fill-rule="evenodd" stroke-linecap="round" stroke-linejoin="round"/>
 <path d="m8 1v1a6 6 0 0 1 6 6 6 6 0 0 1-6 6v1a7 7 0 0 0 7-7 7 7 0 0 0-7-7z" fill="#dedede" fill-rule="evenodd" stroke-linecap="round" stroke-linejoin="round"/>
 <rect x="5" y="1" width="3" height="1" rx="0" ry="0" fill="#dedede" fill-rule="evenodd" stroke-linecap="round" stroke-linejoin="round"/>
 <rect x="5" y="14" width="3" height="1" rx="0" ry="0" fill="#dedede" fill-rule="evenodd" stroke-linecap="round" stroke-linejoin="round"/>
 <path d="M4.35 4.654 2 7l2 2-1.646 1.646.707.708L5.414 9l-2-2 1.643-1.637Z" fill="#dedede" style="-inkscape-stroke:none"/>
</svg>
