<?xml version="1.0" encoding="UTF-8"?>
<svg id="svg1" width="16" height="16" version="1.1" xmlns="http://www.w3.org/2000/svg">
 <style id="s2">@import "../../highlights.css";</style>
 <g id="path-division" transform="translate(-165 -667.36)" fill="#dedede">
  <path id="rect26524" transform="scale(-1)" d="m-175-676.36h4v1h-4z"/>
  <path id="path26641" class="UnoptimicedTransforms" transform="rotate(180 173 675.24)" d="m178.506 668.283-.568 3.537.988.159.568-3.538zm-12 .158.568 3.538.988-.159-.568-3.537zm1.593 9.477c.977 2.647 3.057 3.746 3.057 3.746a3.933 3.933 0 0 0 3.688 0s2.08-1.1 3.057-3.746l-.938-.346c-.477 1.292-1.47 2.342-1.47 2.342-.645.68-1.476 1.21-2.493 1.21s-1.848-.53-2.493-1.21c0 0-.993-1.05-1.47-2.342z"/>
  <path id="rect16829" d="M168.707 673.588a.998.998 0 0 0-1.414 0l-1.414 1.414a.998.998 0 0 0 0 1.414l1.414 1.414a.998.998 0 0 0 1.414 0l1.414-1.414a.998.998 0 0 0 0-1.414zm-.707.707 1.414 1.414-1.414 1.414-1.414-1.414z" fill-rule="evenodd" stroke-linecap="round" stroke-linejoin="round"/>
  <rect id="rect16831" transform="rotate(45)" x="595.59" y="358" width="2" height="2" rx="0" ry="0" fill-rule="evenodd" opacity=".35" stroke-linecap="round" stroke-linejoin="round"/>
  <path id="path17046" d="M178.707 673.588a.998.998 0 0 0-1.414 0l-1.414 1.414a.998.998 0 0 0 0 1.414l1.414 1.414a.998.998 0 0 0 1.414 0l1.414-1.414a.998.998 0 0 0 0-1.414zm-.707.707 1.414 1.414-1.414 1.414-1.414-1.414z" fill-rule="evenodd" stroke-linecap="round" stroke-linejoin="round"/>
  <rect id="rect17048" transform="rotate(45)" x="602.66" y="350.93" width="2" height="2" rx="0" ry="0" fill-rule="evenodd" opacity=".35" stroke-linecap="round" stroke-linejoin="round"/>
 </g>
</svg>
