<?xml version="1.0" encoding="UTF-8"?>
<svg width="16" height="16" xmlns="http://www.w3.org/2000/svg">
 <path d="M4.203 12v1H16v-1z" fill="#dedede" stroke-width=".91794"/>
 <path d="M3.214 10.386a.998.998 0 0 0-1.414 0L.386 11.801a.998.998 0 0 0 0 1.414L1.8 14.629a.998.998 0 0 0 1.414 0l1.414-1.414a.998.998 0 0 0 0-1.414zm-.707.707 1.414 1.415-1.414 1.414-1.414-1.414z" fill="#dedede" fill-rule="evenodd" stroke-linecap="round" stroke-linejoin="round"/>
 <rect transform="rotate(45)" x="9.617" y="6.072" width="2" height="2" rx="0" ry="0" fill="#dedede" fill-rule="evenodd" opacity=".35" stroke-linecap="round" stroke-linejoin="round"/>
 <path d="M8.65 0 4.648 11h1.067L9.35 1h1.3l3.635 10h1.067L11.35 0h-2.7z" fill="#dedede" style="-inkscape-stroke:none"/>
 <path d="M7 5h6v1H7z" fill="#dedede" fill-rule="evenodd" stroke-linecap="round" stroke-linejoin="round"/>
</svg>
