<?xml version="1.0" encoding="UTF-8"?>
<svg width="16" height="16" xmlns="http://www.w3.org/2000/svg">
 <path d="M7 0h3v1H7z" fill="#dedede" fill-rule="evenodd" stroke-linecap="round" stroke-linejoin="round" stroke-width="1.0326"/>
 <path d="m12 0h4v1h-4z" fill="#dedede" fill-rule="evenodd" stroke-linecap="round" stroke-linejoin="round"/>
 <path d="M15 0h.969v4.047H15zm0 6h1v3.961h-1zm0 6h1v4h-1z" fill="#dedede" fill-rule="evenodd" stroke-linecap="round" stroke-linejoin="round"/>
 <path d="M11.969 15.004H16V16h-4.031zM7 15h3v1H7z" fill="#dedede" fill-rule="evenodd" stroke-linecap="round" stroke-linejoin="round"/>
 <path d="m2.5 1h1v14h-1z" fill="#dedede" fill-rule="evenodd" stroke-linecap="round" stroke-linejoin="round" stroke-width="1.0801"/>
 <path transform="rotate(45)" d="m2.121-2.121h4v1h-4z" fill="#dedede" fill-rule="evenodd" stroke-linecap="round" stroke-linejoin="round"/>
 <path transform="scale(-1 1) rotate(45)" d="m-2.121 2.121h4v1h-4z" fill="#dedede" fill-rule="evenodd" stroke-linecap="round" stroke-linejoin="round"/>
 <path transform="scale(1 -1) rotate(45)" d="m-9.192-13.435h4v1h-4z" fill="#dedede" fill-rule="evenodd" stroke-linecap="round" stroke-linejoin="round"/>
 <path transform="rotate(225)" d="m-13.435-9.192h4v1h-4z" fill="#dedede" fill-rule="evenodd" stroke-linecap="round" stroke-linejoin="round"/>
 <path transform="rotate(135)" d="m-3.536-14.849h4v1h-4z" fill="#dedede" fill-rule="evenodd" stroke-linecap="round" stroke-linejoin="round"/>
 <path transform="scale(-1 1) rotate(-45)" d="m-14.849-3.536h4v1h-4z" fill="#dedede" fill-rule="evenodd" stroke-linecap="round" stroke-linejoin="round"/>
 <path d="M3 7.5h9v1H3z" fill="#dedede" fill-rule="evenodd" stroke-linecap="round" stroke-linejoin="round"/>
</svg>
