<?xml version="1.0" encoding="UTF-8"?>
<svg id="svg1" width="16" height="16" version="1.1" xmlns="http://www.w3.org/2000/svg">
 <style id="s2">@import "../../highlights.css";</style>
 <g id="path-division" transform="translate(-165 -667.36)" fill="#dedede" stroke-linecap="round" stroke-linejoin="round">
  <path id="path17229" d="m168 668.4v1.02a2.5 2.5 0 0 1 1.945 1.945h1.02a3.5 3.5 0 0 0-2.965-2.965z" fill-rule="evenodd"/>
  <path id="circle1546" d="M167.5 670.362a1.5 1.5 0 0 0-1.5 1.5 1.5 1.5 0 0 0 1.5 1.5 1.5 1.5 0 0 0 1.5-1.5 1.5 1.5 0 0 0-1.5-1.5zm0 1a.5.5 0 0 1 .5.5.5.5 0 0 1-.5.5.5.5 0 0 1-.5-.5.5.5 0 0 1 .5-.5z" stroke-width=".6709"/>
  <path id="circle1464" d="M167.5 676.362a1.5 1.5 0 0 0-1.5 1.5 1.5 1.5 0 0 0 1.5 1.5 1.5 1.5 0 0 0 1.5-1.5 1.5 1.5 0 0 0-1.5-1.5zm0 1a.5.5 0 0 1 .5.5.5.5 0 0 1-.5.5.5.5 0 0 1-.5-.5.5.5 0 0 1 .5-.5z" stroke-width=".6709"/>
  <path id="rect1570" d="m167 672.36h1v5h-1z" stroke-width=".61244"/>
  <path id="rect17225" d="m169.7 669.36h9.3v1h-9.3z" fill-rule="evenodd" stroke-width="1.0782"/>
  <path id="rect17227" d="m169.8 679.36h5.197v1h-5.197z" fill-rule="evenodd" stroke-width="1.0195"/>
  <path id="path17237" d="m168 681.33v-1.02a2.5 2.5 0 0 0 1.945-1.945h1.02a3.5 3.5 0 0 1-2.965 2.965z" fill-rule="evenodd"/>
 </g>
</svg>
