<?xml version="1.0" encoding="UTF-8"?>
<svg width="16" height="16" xmlns="http://www.w3.org/2000/svg">
 <path d="M2 6C.892 6 0 6.892 0 8v6c0 1.108.892 2 2 2h7c1.108 0 2-.892 2-2V8c0-1.108-.892-2-2-2H2zm0 1h7c.554 0 1 .446 1 1v6c0 .554-.446 1-1 1H2c-.554 0-1-.446-1-1V8c0-.554.446-1 1-1z" fill="#dedede" fill-rule="evenodd" stroke-linecap="round" stroke-linejoin="round"/>
 <rect x="2" y="8" width="7" height="6" rx="0" ry="0" fill="#dedede" fill-rule="evenodd" opacity=".35" stroke-linecap="round" stroke-linejoin="round"/>
 <path d="M7 1c-1.108 0-2 .892-2 2v2h1V3c0-.554.446-1 1-1h7c.554 0 1 .446 1 1v6c0 .554-.446 1-1 1h-2v1h2c1.108 0 2-.892 2-2V3c0-1.108-.892-2-2-2H7z" fill="#dedede" fill-rule="evenodd" stroke-linecap="round" stroke-linejoin="round"/>
</svg>
