<?xml version="1.0" encoding="UTF-8"?>
<svg width="16" height="16" xmlns="http://www.w3.org/2000/svg">
 <path d="M2 2v2l1-1h2.5v6l-1 1h3l-1-1V3H9l1 1V2Z" fill="#dedede"/>
 <path d="M2 0C.892 0 0 .892 0 2v12c0 1.108.892 2 2 2h12c1.108 0 2-.892 2-2V2c0-1.108-.892-2-2-2H2zm0 1h12c.554 0 1 .446 1 1v12c0 .554-.446 1-1 1H2c-.554 0-1-.446-1-1V2c0-.554.446-1 1-1z" fill="#dedede" fill-rule="evenodd" stroke-linecap="round" stroke-linejoin="round"/>
 <rect x="10.5" y="7" width="1" height="6" rx="0" ry="0" fill="#dedede" fill-rule="evenodd" stroke-linecap="round" stroke-linejoin="round" stroke-width=".92582"/>
 <path transform="rotate(45)" d="m13.678 1.121h4v1h-4z" fill="#dedede" fill-rule="evenodd" stroke-linecap="round" stroke-linejoin="round"/>
 <path transform="scale(-1 1) rotate(45)" d="m-1.879 16.678h4v1h-4z" fill="#dedede" fill-rule="evenodd" stroke-linecap="round" stroke-linejoin="round"/>
</svg>
