<?xml version="1.0" encoding="UTF-8"?>
<svg width="16" height="16" xmlns="http://www.w3.org/2000/svg">
 <path transform="translate(-195 -607.36)" d="m195 607.36h1v1h-1zm2 0h1v1h-1zm2 0h1v1h-1zm2 0h1v1h-1zm2 0h1v1h-1zm2 0h1v1h-1zm-10 4h1v1h-1zm0 2h1v1h-1zm0 2h1v1h-1zm0 2h1v1h-1zm0 2h1v1h-1zm0 2h1v1h-1zm0-12h1v1h-1zm14-2h1v1h-1zm-2 0h1v1h-1zm-10 14h1v1h-1zm2 0h1v1h-1zm2 0h1v1h-1zm2 0h1v1h-1zm6-10h1v1h-1zm0 2h1v1h-1zm0 2h1v1h-1zm0-6h1v1h-1z" fill="#dedede"/>
 <path d="M2 2v2l1-1h2.5v6l-1 1h3l-1-1V3H9l1 1V2Z" fill="#dedede"/>
 <path transform="rotate(45)" d="M14.385-.5v1h3v3h1v-3h3v-1h-3v-3h-1v3h-3z" fill="#dedede" fill-rule="evenodd" stroke-linecap="round" stroke-linejoin="round"/>
</svg>
