<?xml version="1.0" encoding="UTF-8"?>
<svg width="16" height="16" xmlns="http://www.w3.org/2000/svg">
 <path transform="matrix(.99946 0 0 1 -438.76 -836.36)" d="m439 844.36h7v1h-7zm8 7h8v1h-8z" fill="#dedede"/>
 <path transform="matrix(.99946 0 0 1 -438.76 -324)" d="m446 332h1v8h-1z" fill="#dedede"/>
 <path d="M3 0 1 7h1.04l.571-2h2.506l.559 2h1.039l-1.96-7Zm.754 1h.244l.84 3H2.896ZM11 7l-2 7h1.04l.571-2h2.506l.559 2h1.039l-1.96-7Zm.754 1h.244l.84 3h-1.942z" fill="#dedede" style="-inkscape-stroke:none"/>
</svg>
