<?xml version="1.0" encoding="UTF-8"?>
<svg width="16" height="16" xmlns="http://www.w3.org/2000/svg" xmlns:xlink="http://www.w3.org/1999/xlink">
 <path id="a" d="M8.114 4.299a.269.269 0 0 1-.27.269.269.269 0 0 1-.268-.269.269.269 0 0 1 .269-.269.269.269 0 0 1 .269.269Z" fill="#dedede" stroke-width=".29048"/>
 <use id="b" transform="translate(-.97 .503) scale(1.0586)" width="744.094" height="1052.362" fill="#dedede" xlink:href="#a"/>
 <use id="c" transform="translate(0 -1.472)" width="744.094" height="1052.362" fill="#dedede" xlink:href="#b"/>
 <use id="d" transform="translate(-3.684 -1.325) scale(1.3763)" width="744.094" height="1052.362" fill="#dedede" xlink:href="#b"/>
 <use id="e" transform="translate(-3.906 -1.947) scale(1.3763)" width="744.094" height="1052.362" fill="#dedede" xlink:href="#c"/>
 <path id="f" d="M6.165 4.3a.391.391 0 0 1-.391.391.391.391 0 0 1-.392-.391.391.391 0 0 1 .392-.392.391.391 0 0 1 .391.392Z" fill="#dedede" stroke-width=".42323"/>
 <use id="g" transform="translate(-4.516 -2.16) scale(1.5012)" width="744.094" height="1052.362" fill="#dedede" xlink:href="#d"/>
 <use id="h" transform="translate(-4.6 -2.11) scale(1.5012)" width="744.094" height="1052.362" fill="#dedede" xlink:href="#e"/>
 <use id="i" transform="translate(-4.434 -2.154) scale(1.5012)" width="744.094" height="1052.362" fill="#dedede" xlink:href="#f"/>
 <use transform="translate(-4.53 -1.93) scale(1.4856)" width="744.094" height="1052.362" fill="#dedede" xlink:href="#g"/>
 <use transform="translate(-4.393 -1.888) scale(1.4856)" width="744.094" height="1052.362" fill="#dedede" xlink:href="#h"/>
 <use transform="translate(-4.36 -2.09) scale(1.4856)" width="744.094" height="1052.362" fill="#dedede" xlink:href="#i"/>
 <use id="j" transform="translate(-2.824 -.869)" width="744.094" height="1052.362" fill="#dedede" xlink:href="#a"/>
 <use transform="translate(.299 1.792)" width="744.094" height="1052.362" fill="#dedede" xlink:href="#j"/>
 <use id="k" transform="translate(-3.15)" width="744.094" height="1052.362" fill="#dedede" xlink:href="#e"/>
 <use transform="translate(.461 2.743)" width="744.094" height="1052.362" fill="#dedede" xlink:href="#k"/>
 <use transform="translate(-.49 -.696)" width="744.094" height="1052.362" fill="#dedede" xlink:href="#b"/>
 <rect x="10" y="3" width="2" height="2" rx=".99" ry=".99" fill="#dedede" fill-rule="evenodd"/>
 <rect x="10" y="4" width="2" height="1" rx="0" ry="0" fill="#dedede" fill-rule="evenodd"/>
 <path d="M9.25 6 8.5 7h5l-.75-1Zm-1.5 2L7 9v5l8 1V9l-.75-1ZM8 10h6v3H8Z" fill="#dedede"/>
</svg>
