<?xml version="1.0" encoding="UTF-8"?>
<svg width="16px" height="16px" version="1.1" viewBox="0 0 16 16" xmlns="http://www.w3.org/2000/svg">
 <path d="m12 2-2 2v3l-1-1h-1l-2 2-1-1h-1l-2 2v4h-2v1h16v-1h-1v-9l-2-2h-1zm0.41406 1h0.17188l1.4141 1.4141v8.5859h-3v-8.5859l1.4141-1.4141zm-0.41406 2v2h1v-2h-1zm-3.5859 2h0.17188l1.4141 1.4141v4.5859h-3v-4.5859l1.4141-1.4141zm-4 1h0.17188l1.4141 1.4141v3.5859h-3v-3.5859l1.4141-1.4141zm3.5859 1v2h1v-2h-1zm-4 1v1h1v-1h-1z" fill="#dedede" stop-color="#000000" style="paint-order:stroke fill markers"/>
</svg>
