<?xml version="1.0" encoding="UTF-8"?>
<svg width="16" height="16" xmlns="http://www.w3.org/2000/svg">
 <path transform="translate(-408 -527.36)" d="m410 528.37v1h11v6.992h1v-7.992h-11.5zm0 6.992v1h7v1h1v-2h-7.5z" fill="#dedede"/>
 <path transform="translate(-408 -527.36)" d="m412 530.36h3v4h-3zm-1 1h1v1h-1zm0 2h1v1h-1z" fill="#dedede" opacity=".5"/>
 <path transform="translate(-408 -527.36)" d="m418 530.36h2v4h-2zm-1 2h1v1h-1zm0-2h1v1h-1z" fill="#dedede"/>
 <path transform="translate(-408 -527.36)" d="m410 532.36h1v1h-1zm0-2h1v1h-1z" fill="#dedede" opacity=".5"/>
 <path transform="matrix(1 0 0 -1 -408 -527.36)" d="m416-534.36h1v1h-1zm0 2h1v1h-1zm-1 1h1v1h-1zm0-2h1v1h-1z" fill="#dedede"/>
 <path d="M2 12h2v1H2zM5 12h2v1H5zM9 12h5v1H9z" fill="#dedede" fill-rule="evenodd"/>
 <path d="m12.172 9.672-0.707 0.707 2.12 2.121-2.12 2.121 0.707 0.707 2.828-2.828-0.707-0.707z" fill="#dedede" fill-rule="evenodd"/>
</svg>
