<?xml version="1.0" encoding="UTF-8"?>
<svg width="16" height="16" xmlns="http://www.w3.org/2000/svg">
 <path transform="translate(-438 -527.35)" d="m440 528.36v1h11v6.992h1v-7.992h-11.5zm0 6.992v1h7v1h1v-2h-7.5zm0-4.991h1v1h-1zm1 0.999h1v1h-1zm1 1h1v1h-1zm-1 1h1v1h-1z" fill="#dedede"/>
 <path d="M2 12h2v1H2zM5 12h2v1H5zM9 12h5v1H9z" fill="#dedede" fill-rule="evenodd"/>
 <path d="m12.172 9.672-0.707 0.707 2.12 2.121-2.12 2.121 0.707 0.707 2.828-2.828-0.707-0.707z" fill="#dedede" fill-rule="evenodd"/>
 <path transform="translate(-438 -527.35)" d="M440 530.363h1v1h-1zm1 .999h1v1h-1zm1 1h1v1h-1zm-1 1h1v1h-1zm2-2.999h1v1h-1zm1 .999h1v1h-1zm1 1h1v1h-1zm-1 1h1v1h-1z" fill="#dedede"/>
 <path transform="translate(-438 -527.35)" d="M443 530.363h1v1h-1zm1 .999h1v1h-1zm1 1h1v1h-1zm-1 1h1v1h-1zm2-2.999h1v1h-1zm1 .999h1v1h-1zm1 1h1v1h-1zm-1 1h1v1h-1z" fill="#dedede"/>
 <path transform="translate(-438 -527.35)" d="m446 530.36h1v1h-1zm1 0.999h1v1h-1zm1 1h1v1h-1zm-1 1h1v1h-1z" fill="#dedede"/>
</svg>
