<?xml version="1.0" encoding="UTF-8"?>
<svg width="16" height="16" viewBox="0 0 4.233 4.233" xmlns="http://www.w3.org/2000/svg">
 <path d="M.529 0h.794v.265H.529z" fill="#dedede" fill-rule="evenodd" stroke-linecap="square" stroke-width=".52912"/>
 <path d="M.529 0h.265v.794H.529z" fill="#dedede" fill-rule="evenodd" stroke-linecap="square" stroke-width=".52912"/>
 <path transform="scale(-1 1)" d="M-3.704 0h.794v.265h-.794z" fill="#dedede" fill-rule="evenodd" stroke-linecap="square" stroke-width=".52912"/>
 <path transform="scale(-1 1)" d="M-3.704 0h.265v.794h-.265z" fill="#dedede" fill-rule="evenodd" stroke-linecap="square" stroke-width=".52912"/>
 <path transform="scale(1 -1)" d="M.529-4.233h.794v.265H.529z" fill="#dedede" fill-rule="evenodd" stroke-linecap="square" stroke-width=".52912"/>
 <path transform="scale(1 -1)" d="M.529-4.233h.265v.794H.529z" fill="#dedede" fill-rule="evenodd" stroke-linecap="square" stroke-width=".52912"/>
 <path transform="scale(-1)" d="M-3.704-4.233h.794v.265h-.794z" fill="#dedede" fill-rule="evenodd" stroke-linecap="square" stroke-width=".52912"/>
 <path transform="scale(-1)" d="M-3.704-4.233h.265v.794h-.265z" fill="#dedede" fill-rule="evenodd" stroke-linecap="square" stroke-width=".52912"/>
 <path d="M1.058.53v3.174h2.117V.529zm.265.264H2.91v2.645H1.323z" fill="#dedede" fill-rule="evenodd" stroke-linecap="square" stroke-width=".52912"/>
</svg>
