<?xml version="1.0" encoding="UTF-8"?>
<svg width="16" height="16" xmlns="http://www.w3.org/2000/svg">
 <path d="M12.803 2.197a7.5 7.5 0 0 0-10.606 0 7.5 7.5 0 0 0 0 10.606 7.5 7.5 0 0 0 10.606 0 7.5 7.5 0 0 0 0-10.606zm-.707.707a6.5 6.5 0 0 1 0 9.192 6.5 6.5 0 0 1-9.192 0 6.5 6.5 0 0 1 0-9.192 6.5 6.5 0 0 1 9.192 0z" fill="#dedede" fill-rule="evenodd" stroke-linecap="square" stroke-width="2"/>
 <path transform="rotate(45)" d="M17.107-.5h6v1h-6zM10.496-3.889h4v1h-4z" fill="#dedede" fill-rule="evenodd" stroke-linecap="square" stroke-width="2"/>
 <path d="M3 7h9v1H3z" fill="#dedede" fill-rule="evenodd" stroke-linecap="square" stroke-width="1.8974"/>
 <path transform="scale(1 -1) rotate(45)" d="M-.111-14.496h4v1h-4z" fill="#dedede" fill-rule="evenodd" stroke-linecap="square" stroke-width="2"/>
 <path transform="scale(-1 1) rotate(45)" d="M-.111 6.718h4v1h-4z" fill="#dedede" fill-rule="evenodd" stroke-linecap="square" stroke-width="2"/>
 <path transform="rotate(225)" d="m-10.718-3.889h4v1h-4z" fill="#dedede" fill-rule="evenodd" stroke-linecap="square" stroke-width="2"/>
</svg>
