<?xml version="1.0" encoding="UTF-8"?>
<svg id="svg1443" width="128" height="128" version="1.1" viewBox="0 0 33.867 33.867" xmlns="http://www.w3.org/2000/svg" xmlns:cc="http://creativecommons.org/ns#" xmlns:dc="http://purl.org/dc/elements/1.1/" xmlns:rdf="http://www.w3.org/1999/02/22-rdf-syntax-ns#" xmlns:xlink="http://www.w3.org/1999/xlink">
 <defs id="defs1437">
  <radialGradient id="radialGradient948" cx="16.951" cy="6.0443" r="14.544" gradientTransform="matrix(3.1335 0 0 1.9874 -36.165 -5.9684)" gradientUnits="userSpaceOnUse">
   <stop id="stop1626" stop-color="#ff53f9" offset="0"/>
   <stop id="stop1628" stop-color="#8400ea" offset="1"/>
  </radialGradient>
  <linearGradient id="linearGradient885" x1="16.048" x2="16.048" y1="11.042" y2="24.842" gradientUnits="userSpaceOnUse">
   <stop id="stop879" stop-color="#fff" offset="0"/>
   <stop id="stop881" stop-color="#efd4fc" offset="1"/>
  </linearGradient>
 </defs>
 <metadata id="metadata1440">
  <rdf:RDF>
   <cc:Work rdf:about="">
    <dc:format>image/svg+xml</dc:format>
    <dc:type rdf:resource="http://purl.org/dc/dcmitype/StillImage"/>
   </cc:Work>
  </rdf:RDF>
 </metadata>
 <g id="layer1">
  <g id="g1702" transform="matrix(.97573 0 0 .96361 -65.737 -36.328)" fill="none" opacity=".18754" stroke="#000" stroke-linecap="round" stroke-linejoin="round" stroke-opacity=".02">
   <rect id="rect1634" x="69.84" y="40.71" width="29.811" height="29.811" rx="6.6099" ry="6.6099" stroke-width=".1"/>
   <rect id="rect1638" x="69.84" y="40.71" width="29.811" height="29.811" rx="6.6099" ry="6.6099" stroke-width=".2"/>
   <rect id="rect1640" x="69.84" y="40.71" width="29.811" height="29.811" rx="6.6099" ry="6.6099" stroke-width=".3"/>
   <rect id="rect1642" x="69.84" y="40.71" width="29.811" height="29.811" rx="6.6099" ry="6.6099" stroke-width=".4"/>
   <rect id="rect1644" x="69.84" y="40.71" width="29.811" height="29.811" rx="6.6099" ry="6.6099" stroke-width=".5"/>
   <rect id="rect1646" x="69.84" y="40.71" width="29.811" height="29.811" rx="6.6099" ry="6.6099" stroke-width=".6"/>
   <rect id="rect1648" x="69.84" y="40.71" width="29.811" height="29.811" rx="6.6099" ry="6.6099" stroke-width=".7"/>
   <rect id="rect1650" x="69.84" y="40.71" width="29.811" height="29.811" rx="6.6099" ry="6.6099" stroke-width=".8"/>
   <rect id="rect1652" x="69.84" y="40.71" width="29.811" height="29.811" rx="6.6099" ry="6.6099"/>
   <rect id="rect1654" x="69.84" y="40.71" width="29.811" height="29.811" rx="6.6099" ry="6.6099" stroke-width="1.2"/>
   <rect id="rect1656" x="69.84" y="40.71" width="29.811" height="29.811" rx="6.6099" ry="6.6099" stroke-width="1.4"/>
   <rect id="rect1658" x="69.84" y="40.71" width="29.811" height="29.811" rx="6.6099" ry="6.6099" stroke-width="1.6"/>
   <rect id="rect1660" x="69.84" y="40.71" width="29.811" height="29.811" rx="6.6099" ry="6.6099" stroke-width="1.8"/>
   <rect id="rect1662" x="69.84" y="40.71" width="29.811" height="29.811" rx="6.6099" ry="6.6099" stroke-width="2"/>
   <rect id="rect1664" x="69.84" y="40.71" width="29.811" height="29.811" rx="6.6099" ry="6.6099" stroke-width="2.2"/>
   <rect id="rect1666" x="69.84" y="40.71" width="29.811" height="29.811" rx="6.6099" ry="6.6099" stroke-width="2.6"/>
   <rect id="rect1668" x="69.84" y="40.71" width="29.811" height="29.811" rx="6.6099" ry="6.6099" stroke-width="3"/>
   <rect id="rect1670" x="69.84" y="40.71" width="29.811" height="29.811" rx="6.6099" ry="6.6099" stroke-width="3.4"/>
   <rect id="rect1672" x="69.84" y="40.71" width="29.811" height="29.811" rx="6.6099" ry="6.6099" stroke-width="3.8"/>
   <rect id="rect1674" x="69.84" y="40.71" width="29.811" height="29.811" rx="6.6099" ry="6.6099" stroke-width="4.2"/>
   <rect id="rect1676" x="69.84" y="40.71" width="29.811" height="29.811" rx="6.6099" ry="6.6099" stroke-width="4.6"/>
   <rect id="rect1678" x="69.84" y="40.71" width="29.811" height="29.811" rx="6.6099" ry="6.6099" stroke-width="5"/>
  </g>
  <rect id="rect849" x="2.4074" y="2.5392" width="29.087" height="29.087" rx="6.4495" ry="6.4495" fill="url(#radialGradient948)" stroke-linecap="round" stroke-linejoin="round" stroke-width="2.6877"/>
  <path id="path894" d="m9.845 8.659c-1.2312 0-2.2224 0.99121-2.2224 2.2217v4.4441c0 1.2305 0.99121 2.2217 2.2224 2.2217h1.4807c1.2312 0 2.2224-0.99121 2.2224-2.2217v-4.4441c0-1.2305-0.99121-2.2217-2.2224-2.2217zm7.4061 0c-1.2312 0-2.2224 0.99121-2.2224 2.2217v4.4441c0 1.2305 0.99121 2.2217 2.2224 2.2217h1.4807c0.99121 0 1.817-0.64668 2.1048-1.5388l-1.3638-0.68291c0 0.41016-0.33018 0.74034-0.74102 0.74034h-1.4807c-0.41084 0-0.74102-0.33018-0.74102-0.74034v-4.4441c0-0.41016 0.33018-0.74034 0.74102-0.74034h1.4807c0.41084 0 0.74102 0.33018 0.74102 0.74034l1.3638-0.68223c-0.28779-0.89278-1.1136-1.5395-2.1048-1.5395zm7.4061 0c-1.2312 0-2.2224 0.99121-2.2224 2.2217v4.4441c0 1.2305 0.99121 2.2217 2.2224 2.2217h1.4807c0.99122 0 1.817-0.64668 2.1048-1.5388l-1.3638-0.68291c0 0.41016-0.33018 0.74034-0.74102 0.74034h-1.4807c-0.41084 0-0.74102-0.33018-0.74102-0.74034v-4.4441c0-0.41016 0.33018-0.74034 0.74102-0.74034h1.4807c0.41084 0 0.74102 0.33018 0.74102 0.74034l1.3638-0.68223c-0.28779-0.89278-1.1136-1.5395-2.1048-1.5395zm-14.812 1.4814h1.4807c0.41084 0 0.74102 0.33018 0.74102 0.74034v4.4441c0 0.41016-0.33018 0.74034-0.74102 0.74034h-1.4807c-0.41084 0-0.74102-0.33018-0.74102-0.74034v-4.4441c0-0.41016 0.33018-0.74034 0.74102-0.74034zm2.962 8.8874c-0.82031 0-1.4814 0.66035-1.4814 1.4814v7.4061h1.4814v-4.4441h2.9627v-1.4814h-2.9627v-1.4807h4.4441v-1.4814zm5.9247 0v1.4814h2.2224v7.4061h1.4807v-7.4061h2.2224v-1.4814z" fill="#3b076f" fill-opacity=".074775" stroke-width=".68359"/>
  <path id="path892" d="m9.6842 7.8657c-1.2312 0-2.2224 0.99121-2.2224 2.2217v4.4441c0 1.2305 0.99121 2.2217 2.2224 2.2217h1.4807c1.2312 0 2.2224-0.99121 2.2224-2.2217v-4.4441c0-1.2305-0.99121-2.2217-2.2224-2.2217zm7.4061 0c-1.2312 0-2.2224 0.99121-2.2224 2.2217v4.4441c0 1.2305 0.99121 2.2217 2.2224 2.2217h1.4807c0.99121 0 1.817-0.64668 2.1048-1.5388l-1.3638-0.68291c0 0.41016-0.33018 0.74034-0.74102 0.74034h-1.4807c-0.41084 0-0.74102-0.33018-0.74102-0.74034v-4.4441c0-0.41016 0.33018-0.74033 0.74102-0.74033h1.4807c0.41084 0 0.74102 0.33018 0.74102 0.74033l1.3638-0.68223c-0.28779-0.89278-1.1136-1.5395-2.1048-1.5395zm7.4061 0c-1.2312 0-2.2224 0.99121-2.2224 2.2217v4.4441c0 1.2305 0.99121 2.2217 2.2224 2.2217h1.4807c0.99122 0 1.817-0.64668 2.1048-1.5388l-1.3638-0.68291c0 0.41016-0.33018 0.74034-0.74102 0.74034h-1.4807c-0.41084 0-0.74102-0.33018-0.74102-0.74034v-4.4441c0-0.41016 0.33018-0.74033 0.74102-0.74033h1.4807c0.41084 0 0.74102 0.33018 0.74102 0.74033l1.3638-0.68223c-0.28779-0.89278-1.1136-1.5395-2.1048-1.5395zm-14.812 1.4814h1.4807c0.41084 0 0.74102 0.33018 0.74102 0.74033v4.4441c0 0.41016-0.33018 0.74034-0.74102 0.74034h-1.4807c-0.41084 0-0.74102-0.33018-0.74102-0.74034v-4.4441c0-0.41016 0.33018-0.74033 0.74102-0.74033zm2.962 8.8874c-0.82031 0-1.4814 0.66035-1.4814 1.4814v7.4061h1.4814v-4.4441h2.9627v-1.4814h-2.9627v-1.4807h4.4441v-1.4814zm5.9247 0v1.4814h2.2224v7.4061h1.4807v-7.4061h2.2224v-1.4814z" fill="#3b076f" fill-opacity=".19396" stroke-width=".68359"/>
  <path id="path9" d="m8.8635 7.4548c-1.2312 0-2.2224 0.99121-2.2224 2.2217v4.4441c0 1.2305 0.99121 2.2217 2.2224 2.2217h1.4807c1.2312 0 2.2224-0.99121 2.2224-2.2217v-4.4441c0-1.2305-0.99121-2.2217-2.2224-2.2217zm7.4061 0c-1.2312 0-2.2224 0.99121-2.2224 2.2217v4.4441c0 1.2305 0.99121 2.2217 2.2224 2.2217h1.4807c0.99121 0 1.817-0.64668 2.1048-1.5388l-1.3638-0.68291c0 0.41016-0.33018 0.74034-0.74102 0.74034h-1.4807c-0.41084 0-0.74102-0.33018-0.74102-0.74034v-4.4441c0-0.41016 0.33018-0.74034 0.74102-0.74034h1.4807c0.41084 0 0.74102 0.33018 0.74102 0.74034l1.3638-0.68223c-0.28779-0.89278-1.1136-1.5395-2.1048-1.5395zm7.4061 0c-1.2312 0-2.2224 0.99121-2.2224 2.2217v4.4441c0 1.2305 0.99121 2.2217 2.2224 2.2217h1.4807c0.99122 0 1.817-0.64668 2.1048-1.5388l-1.3638-0.68291c0 0.41016-0.33018 0.74034-0.74102 0.74034h-1.4807c-0.41084 0-0.74102-0.33018-0.74102-0.74034v-4.4441c0-0.41016 0.33018-0.74034 0.74102-0.74034h1.4807c0.41084 0 0.74102 0.33018 0.74102 0.74034l1.3638-0.68223c-0.28779-0.89278-1.1136-1.5395-2.1048-1.5395zm-14.812 1.4814h1.4807c0.41084 0 0.74102 0.33018 0.74102 0.74034v4.4441c0 0.41016-0.33018 0.74034-0.74102 0.74034h-1.4807c-0.41084 0-0.74102-0.33018-0.74102-0.74034v-4.4441c0-0.41016 0.33018-0.74034 0.74102-0.74034zm2.962 8.8874c-0.82031 0-1.4814 0.66035-1.4814 1.4814v7.4061h1.4814v-4.4441h2.9627v-1.4814h-2.9627v-1.4807h4.4441v-1.4814zm5.9247 0v1.4814h2.2224v7.4061h1.4807v-7.4061h2.2224v-1.4814z" fill="url(#linearGradient885)" stroke-width=".68359"/>
  <path id="path887" transform="scale(.26458)" d="m70.025 28.713c1.389 1.0332 2.4452 2.4889 2.9902 4.1797l-3.7852 1.8926c0.40541 0.48521 0.6582 1.1026 0.6582 1.7871l5.1543-2.5781c-0.7862-2.4389-2.6385-4.3859-5.0176-5.2812zm27.992 0c1.389 1.0332 2.4452 2.4889 2.9902 4.1797l-3.7852 1.8945c0.40461 0.48499 0.65625 1.1014 0.65625 1.7852l5.1543-2.5781c-0.7862-2.4389-2.6366-4.3859-5.0156-5.2812zm-55.957 0.007812c2.0665 1.5271 3.4082 3.9734 3.4082 6.75v16.797c0 4.6506-3.7472 8.3965-8.4004 8.3965h-5.5957c-1.0472 1e-6 -2.0438-0.19782-2.9668-0.54492 1.395 1.0314 3.1184 1.6465 4.9941 1.6465h5.5957c4.6532 0 8.4004-3.7459 8.4004-8.3965v-16.797c0-3.605-2.256-6.6571-5.4355-7.8516zm-10.588 3.9531c-1.5528 0-2.8008 1.2467-2.8008 2.7969v16.797c0 1.48 1.1414 2.6713 2.5957 2.7773-0.3518-0.46776-0.56836-1.0429-0.56836-1.6758v-16.797c0-1.5502 1.248-2.7988 2.8008-2.7988h5.5957c0.070973 0 0.13742 0.01636 0.20703 0.021484-0.5099-0.67845-1.3152-1.1211-2.2344-1.1211h-5.5957zm27.992 0c-1.5528 0-2.8008 1.2467-2.8008 2.7969v16.797c0 1.4793 1.1404 2.6704 2.5938 2.7773-0.35146-0.46764-0.56641-1.0433-0.56641-1.6758v-16.797c0-1.5502 1.248-2.7988 2.8008-2.7988h5.5957c0.07031 0 0.1361 0.016455 0.20508 0.021484-0.50994-0.67803-1.3136-1.1211-2.2324-1.1211h-5.5957zm27.99 0c-1.5528 0-2.8008 1.2467-2.8008 2.7969v16.797c0 1.4798 1.1418 2.671 2.5957 2.7773-0.3518-0.46776-0.56836-1.0429-0.56836-1.6758v-16.797c0-1.5502 1.248-2.7988 2.8008-2.7988h5.5957c0.070973 0 0.13742 0.01636 0.20703 0.021484-0.50994-0.67803-1.3136-1.1211-2.2324-1.1211h-5.5977zm-14.465 22.248c-1.1091 3.3338-4.2106 5.7422-7.9297 5.7422h-5.5957c-1.047 1e-6 -2.044-0.19798-2.9668-0.54492 1.395 1.0314 3.1184 1.6465 4.9941 1.6465h5.5957c3.7463 0 6.8674-2.4447 7.9551-5.8164l-2.0527-1.0273zm27.99 0c-1.1092 3.3335-4.2088 5.7422-7.9277 5.7422h-5.5977c-1.0457 1e-6 -2.041-0.19683-2.9629-0.54297 1.3947 1.0304 3.1154 1.6445 4.9902 1.6445h5.5957c3.7463 0 6.8674-2.4447 7.9551-5.8164l-2.0527-1.0273zm-41.516 12.443v4.4961h-16.797v5.5977h2.0273v-4.4961h16.797v-5.5977h-2.0273zm27.99 0v4.4961h-8.3984v27.992h-3.5703v1.1016h5.5977v-27.992h8.3984v-5.5977h-2.0273zm-20.367 4.4961v1.1016h6.373v-1.1016h-6.373zm-13.223 6.6992v4.4961h-11.197v16.797h-3.5723v1.1016h5.5996v-16.797h11.197v-5.5977h-2.0273z" fill="#751eef" fill-opacity=".14752" stroke-width="2.5837"/>
 </g>
</svg>
