<?xml version="1.0" encoding="UTF-8"?>
<svg id="svg6" width="128" height="128" version="1.1" viewBox="0 0 33.867 33.867" xmlns="http://www.w3.org/2000/svg" xmlns:osb="http://www.openswatchbook.org/uri/2009/osb" xmlns:xlink="http://www.w3.org/1999/xlink">
 <defs id="defs2">
  <linearGradient id="linearGradient1396">
   <stop id="stop1392" offset="0"/>
   <stop id="stop1394" stop-opacity="0" offset="1"/>
  </linearGradient>
  <linearGradient id="linearGradient1632" x1="132.21" x2="132.21" y1="42.152" y2="70.68" gradientTransform="translate(-111.78 -37.203) scale(.97573)" gradientUnits="userSpaceOnUse">
   <stop id="stop1626" stop-color="#d2d4da" offset="0"/>
   <stop id="stop1628" stop-color="#e2e8ec" offset="1"/>
  </linearGradient>
  <linearGradient id="linearGradient1030">
   <stop id="stop1026" stop-color="#222627" offset="0"/>
   <stop id="stop1042" stop-color="#3c4444" offset=".311"/>
   <stop id="stop1038" stop-color="#3d4546" offset=".361"/>
   <stop id="stop1040" stop-color="#3b4344" offset=".427"/>
   <stop id="stop1036" stop-color="#272c2d" offset=".667"/>
   <stop id="stop1034" stop-color="#2e3436" offset=".867"/>
   <stop id="stop1028" stop-color="#2d3335" stop-opacity=".98039" offset="1"/>
  </linearGradient>
  <linearGradient id="linearGradient994">
   <stop id="stop990" stop-color="#363d3f" stop-opacity=".96078" offset="0"/>
   <stop id="stop1006" stop-color="#252a2b" offset=".116"/>
   <stop id="stop1004" stop-color="#2d3334" offset=".302"/>
   <stop id="stop1002" stop-color="#383e40" offset=".45"/>
   <stop id="stop1000" stop-color="#3c4444" offset=".624"/>
   <stop id="stop998" stop-color="#343b3c" offset=".802"/>
   <stop id="stop992" stop-color="#212526" offset="1"/>
  </linearGradient>
  <linearGradient id="linearGradient967">
   <stop id="stop963" stop-color="#1e2631" stop-opacity=".99216" offset="0"/>
   <stop id="stop965" stop-color="#3c4444" offset="1"/>
  </linearGradient>
  <linearGradient id="linearGradient938">
   <stop id="stop934" stop-color="#222728" offset="0"/>
   <stop id="stop948" stop-color="#353d3d" offset=".294"/>
   <stop id="stop944" stop-color="#3b4344" offset=".463"/>
   <stop id="stop946" stop-color="#33383a" offset=".614"/>
   <stop id="stop942" stop-color="#262b2c" offset=".799"/>
   <stop id="stop936" stop-color="#31393a" offset="1"/>
  </linearGradient>
  <linearGradient id="linearGradient827" x1="245.04" x2="350.01" y1="101.26" y2="101.26" gradientTransform="translate(-60.337 .804)" gradientUnits="userSpaceOnUse">
   <stop id="stop821" stop-color="#eeeeed" stop-opacity=".99608" offset="0"/>
   <stop id="stop833" stop-color="#7b7671" offset=".057"/>
   <stop id="stop839" stop-color="#e5e6e1" offset=".16"/>
   <stop id="stop841" stop-color="#858887" offset=".331"/>
   <stop id="stop853" stop-color="#d3d3d4" offset=".431"/>
   <stop id="stop845" stop-color="#bcbbb8" offset=".456"/>
   <stop id="stop843" stop-color="#f7f7f3" offset=".511"/>
   <stop id="stop851" stop-color="#a5a5a6" offset=".527"/>
   <stop id="stop847" stop-color="#6f6a65" offset=".556"/>
   <stop id="stop849" stop-color="#d1d0cb" offset=".612"/>
   <stop id="stop835" stop-color="#efefeb" offset=".7"/>
   <stop id="stop837" stop-color="#959897" offset=".844"/>
   <stop id="stop829" stop-color="#b1b1b2" offset=".951"/>
   <stop id="stop823" stop-color="#c3c3c3" offset="1"/>
  </linearGradient>
  <linearGradient id="linearGradient881" x1="112.88" x2="112.88" y1="91.738" y2="94.199" gradientTransform="translate(123.62 -1.85)" gradientUnits="userSpaceOnUse">
   <stop id="stop5062-9" offset="0"/>
   <stop id="stop5064-08" stop-opacity="0" offset="1"/>
  </linearGradient>
  <linearGradient id="linearGradient940" x1="77.49" x2="99.933" y1="77.005" y2="77.005" gradientUnits="userSpaceOnUse" xlink:href="#linearGradient938"/>
  <linearGradient id="linearGradient969" x1="87.573" x2="87.573" y1="70.028" y2="73.59" gradientUnits="userSpaceOnUse" xlink:href="#linearGradient967"/>
  <linearGradient id="linearGradient996" x1="60.961" x2="108.88" y1="104.9" y2="104.9" gradientTransform="translate(125.24)" gradientUnits="userSpaceOnUse" xlink:href="#linearGradient994"/>
  <linearGradient id="linearGradient1010" x1="60.961" x2="108.88" y1="104.9" y2="104.9" gradientTransform="matrix(-1 0 0 1 350.7 0)" gradientUnits="userSpaceOnUse" xlink:href="#linearGradient994"/>
  <linearGradient id="linearGradient1032" x1="123.58" x2="164.14" y1="144.6" y2="144.6" gradientTransform="translate(125 .252)" gradientUnits="userSpaceOnUse" xlink:href="#linearGradient1030"/>
  <linearGradient id="linearGradient1046" x1="123.58" x2="164.14" y1="144.6" y2="144.6" gradientTransform="translate(61.701)" gradientUnits="userSpaceOnUse" xlink:href="#linearGradient1030"/>
  <radialGradient id="radialGradient1384" cx="17.413" cy="5.512" r="12.048" gradientTransform="matrix(3.494 0 0 1.9347 -43.428 -5.12)" gradientUnits="userSpaceOnUse">
   <stop id="stop1378" stop-color="#64bff8" offset="0"/>
   <stop id="stop1380" stop-color="#0079ee" offset="1"/>
  </radialGradient>
  <radialGradient id="radialGradient1398" cx="18.864" cy="31.138" r="6.112" gradientTransform="matrix(1 0 0 .32845 -1.674 19.775)" gradientUnits="userSpaceOnUse" xlink:href="#linearGradient1396"/>
  <radialGradient id="radialGradient1402" cx="18.864" cy="31.138" r="6.112" gradientTransform="matrix(1 0 0 .32845 8.659 19.919)" gradientUnits="userSpaceOnUse" xlink:href="#linearGradient1396"/>
 </defs>
 <g id="layer1">
  <g id="g1702" transform="translate(-65.748 -37.203) scale(.97573)" fill="none" opacity=".295" stroke="#000" stroke-linecap="round" stroke-linejoin="round" stroke-opacity=".02">
   <rect id="rect1634" x="69.84" y="40.71" width="29.811" height="29.811" rx="6.61" ry="6.61" stroke-width=".1"/>
   <rect id="rect1638" x="69.84" y="40.71" width="29.811" height="29.811" rx="6.61" ry="6.61" stroke-width=".2"/>
   <rect id="rect1640" x="69.84" y="40.71" width="29.811" height="29.811" rx="6.61" ry="6.61" stroke-width=".3"/>
   <rect id="rect1642" x="69.84" y="40.71" width="29.811" height="29.811" rx="6.61" ry="6.61" stroke-width=".4"/>
   <rect id="rect1644" x="69.84" y="40.71" width="29.811" height="29.811" rx="6.61" ry="6.61" stroke-width=".5"/>
   <rect id="rect1646" x="69.84" y="40.71" width="29.811" height="29.811" rx="6.61" ry="6.61" stroke-width=".6"/>
   <rect id="rect1648" x="69.84" y="40.71" width="29.811" height="29.811" rx="6.61" ry="6.61" stroke-width=".7"/>
   <rect id="rect1650" x="69.84" y="40.71" width="29.811" height="29.811" rx="6.61" ry="6.61" stroke-width=".8"/>
   <rect id="rect1652" x="69.84" y="40.71" width="29.811" height="29.811" rx="6.61" ry="6.61"/>
   <rect id="rect1654" x="69.84" y="40.71" width="29.811" height="29.811" rx="6.61" ry="6.61" stroke-width="1.2"/>
   <rect id="rect1656" x="69.84" y="40.71" width="29.811" height="29.811" rx="6.61" ry="6.61" stroke-width="1.4"/>
   <rect id="rect1658" x="69.84" y="40.71" width="29.811" height="29.811" rx="6.61" ry="6.61" stroke-width="1.6"/>
   <rect id="rect1660" x="69.84" y="40.71" width="29.811" height="29.811" rx="6.61" ry="6.61" stroke-width="1.8"/>
   <rect id="rect1662" x="69.84" y="40.71" width="29.811" height="29.811" rx="6.61" ry="6.61" stroke-width="2"/>
   <rect id="rect1664" x="69.84" y="40.71" width="29.811" height="29.811" rx="6.61" ry="6.61" stroke-width="2.2"/>
   <rect id="rect1666" x="69.84" y="40.71" width="29.811" height="29.811" rx="6.61" ry="6.61" stroke-width="2.6"/>
   <rect id="rect1668" x="69.84" y="40.71" width="29.811" height="29.811" rx="6.61" ry="6.61" stroke-width="3"/>
   <rect id="rect1670" x="69.84" y="40.71" width="29.811" height="29.811" rx="6.61" ry="6.61" stroke-width="3.4"/>
   <rect id="rect1672" x="69.84" y="40.71" width="29.811" height="29.811" rx="6.61" ry="6.61" stroke-width="3.8"/>
   <rect id="rect1674" x="69.84" y="40.71" width="29.811" height="29.811" rx="6.61" ry="6.61" stroke-width="4.2"/>
   <rect id="rect1676" x="69.84" y="40.71" width="29.811" height="29.811" rx="6.61" ry="6.61" stroke-width="4.6"/>
   <rect id="rect1678" x="69.84" y="40.71" width="29.811" height="29.811" rx="6.61" ry="6.61" stroke-width="5"/>
  </g>
  <rect id="rect849" x="2.396" y="2.519" width="29.087" height="29.087" rx="6.449" ry="6.449" fill="url(#linearGradient1632)" stroke-linecap="round" stroke-linejoin="round" stroke-width="2.688"/>
  <g id="g1388" stroke-linecap="round" stroke-linejoin="round" stroke-width="2.688">
   <rect id="rect1374" x="3.361" y="3.483" width="27.158" height="27.158" rx="5.938" ry="5.938" fill="#181818"/>
   <rect id="rect1376" x="4.892" y="5.048" width="24.096" height="24.028" rx="4.886" ry="4.886" fill="url(#radialGradient1384)"/>
  </g>
  <ellipse id="path1390" cx="17.191" cy="30.003" rx="6.112" ry="2.007" fill="url(#radialGradient1398)" stroke-linecap="square" stroke-linejoin="round" stroke-width=".13132" style="paint-order:stroke markers fill"/>
  <ellipse id="ellipse1400" cx="27.523" cy="30.146" rx="6.112" ry="2.007" fill="url(#radialGradient1402)" stroke-linecap="square" stroke-linejoin="round" stroke-width=".13132" style="paint-order:stroke markers fill"/>
  <g id="g1099" transform="translate(-21.454 .9) scale(.18496)">
   <path id="path1024" d="M248.587 126.562v30.48c-.04.948.429 1.726 1.186 2.372 13.412 9.499 31.932 5.465 38.071.356.944-.83 1.226-1.535 1.305-2.49v-32.735l-22.178 1.898z" fill="url(#linearGradient1032)"/>
   <path id="path1008" d="m281.76 86.969c8.847 12.018 7.075 24.917 7.324 35.987-15.491 4.118-31.955 6.308-47.254 2.381l0.475-39.589 5.455-1.897z" fill="url(#linearGradient1010)"/>
   <path id="path988" d="m193.8 86.585c-8.847 12.019-8.425 25.301-8.674 36.37 15.491 4.12 33.857 5.806 49.156 1.88l-0.642-39.087-5.456-1.897z" fill="url(#linearGradient996)"/>
   <path id="path1044" d="M185.283 126.31v30.48c-.04.948.428 1.727 1.186 2.372 13.412 9.499 31.932 5.466 38.071.356.944-.83 1.226-1.534 1.305-2.49v-32.734l-22.178 1.897z" fill="url(#linearGradient1046)"/>
   <path id="path1065" d="m228.188 83.852-34.383 2.734a39.94 39.94 0 0 0-1.428 2.086c8.656 2.404 32.392 2.04 33.508 1.277 0 0 1.647-.594 2.756-1.484.092 3.008 4.03 4.474 4.03 4.474v31.577c.007.266-.152.541-.38.793.67-.148 1.335-.306 1.994-.475l-.64-39.086zm19.57 0-5.457 1.896-.473 39.59c.274.07.55.131.824.197a1.4 1.4 0 0 1-.334-.892V93.195c2-1.14 3.674-1.455 3.707-5.113l1.555 1.264c1.824 2.074 24 2.488 35.816.056a35.738 35.738 0 0 0-1.638-2.433zm41.322 41.238c-13.612 3.45-28.987 2.253-41.361 1.428.29.045.578.104.869.146v4.457c13.833 1.632 27.428 1.224 40.492-1.557.026-.055.044-.108.068-.164v-4.18c-.024-.042-.042-.087-.068-.13zm-94.24 1.158-9.557.063v3.277c13.302 1.832 26.448 2.54 40.563 1.342v-4.313c-10.636.88-21.336.558-31.006-.369z" fill-opacity=".076923"/>
   <path id="path819" d="M193.804 86.585c6.853-7.492 17.839-12.139 34.836-5.944v-3.26c.057-1.282.404-3.024 4.032-3.068l9.647-.128c2.57-.147 3.6 1.443 3.707 3.196v3.26c6.033.042 27.023-5.676 35.731 6.328-5.996 2.73-31.888 2.847-34.177.243l-1.554-1.266c-.033 3.658-1.707 3.973-3.707 5.114v31.448c-.002 1.123 1.302 1.749 2.11 1.662 12.812.784 29.859 2.534 44.652-1.214.762 1.262.818 2.737 0 4.474-14.89 3.17-30.47 3.257-46.306.755-4.774 3.084-8.515 1.054-10.995 0-16.471 1.993-31.468 1.351-46.678-.755-.42-1.307-.648-2.697.028-4.474 13.172 1.907 29.555 2.931 45.395 1.066.705.123 2.165-.82 2.147-1.642V90.804s-3.94-1.466-4.032-4.474c-1.109.89-2.755 1.484-2.755 1.484-1.268.865-28.168 1.102-32.08-1.229z" fill="url(#linearGradient827)"/>
   <path id="path855" d="m228.82 82.659c4.006 1.53 12.677 1.237 16.856 0" fill="none" stroke="#1c2435" stroke-linecap="round" stroke-opacity=".37363" stroke-width="1.2"/>
   <path id="path857" d="M232.671 90.804v2.125l9.648 1.119v-2.989l-2.449.395c-1.632.12-3.832.29-5.555-.111z" fill="url(#linearGradient881)"/>
   <path id="path905" d="M232.671 100.561v1.036c2.712.664 6.713.754 9.648.097v-1.04c-2.799.655-7.117.567-9.648-.093zm0 9.428v1.037c2.712.665 6.713.755 9.648.098v-1.041c-2.799.656-7.117.566-9.648-.094zm9.156 13a.5.5 0 0 0-.183.03c-2.93.99-5.817.897-8.557 0a.5.5 0 0 0-.197-.028.5.5 0 0 0-.114.977c2.92.956 6.05 1.06 9.188-.002a.5.5 0 0 0-.137-.977z" color-rendering="auto" dominant-baseline="auto" fill="#1e2933" fill-opacity=".43407" image-rendering="auto" shape-rendering="auto" style="font-feature-settings:normal;font-variant-alternates:normal;font-variant-caps:normal;font-variant-ligatures:normal;font-variant-numeric:normal;font-variant-position:normal;isolation:auto;mix-blend-mode:normal;shape-padding:0;text-decoration-color:#000;text-decoration-line:none;text-decoration-style:solid;text-indent:0;text-orientation:mixed;text-transform:none;white-space:normal"/>
   <path id="path924" d="m242.32 74.184-9.649.13c-2.082.025-3.065.615-3.55 1.35a9.785 2.61 0 0 0 8.415 1.282 9.785 2.61 0 0 0 8.07-1.137c-.517-1.012-1.538-1.725-3.287-1.625z" fill="#fff" fill-opacity=".97253" opacity=".399" style="paint-order:fill markers stroke"/>
   <path id="path1019" d="m225.76 81.47c0 0.943-4.933 2.464-11.436 2.465-6.502 0-12.115-1.519-12.125-2.463s5.25-1.711 11.752-1.713c6.502-3e-3 11.788 0.76 11.809 1.705" fill-opacity=".17582" style="paint-order:fill markers stroke"/>
   <g id="g974" transform="translate(125.24)">
    <path id="path932" d="M77.506 71.754c.798-3.102 21.759-2.589 22.475 0L89.129 73.77Z" fill="url(#linearGradient969)"/>
    <path id="rect929" d="M79.032 70.732c5.977 1.427 12.268 1.912 19.359 0 .825-.223 1.542.154 1.542 1.009v9.05c0 .855-.7 1.394-1.542 1.543-6.751 1.193-13.277 1.484-19.359 0-.83-.202-1.542-.688-1.542-1.542V71.74c0-.855.711-1.208 1.542-1.01z" fill="url(#linearGradient940)" style="paint-order:fill markers stroke"/>
    <path id="path950" d="M98.693 70.676c-.098.01-.2.029-.302.056-7.09 1.913-13.38 1.427-19.358 0-.83-.198-1.543.154-1.543 1.008v.016c5.76 1.586 15.603 2.08 22.444.16v-.176c0-.747-.55-1.13-1.24-1.064z" fill="#fff" fill-opacity=".12637" style="paint-order:fill markers stroke"/>
   </g>
   <path id="path1022" d="M272.72 81.47c0 .943-4.933 2.464-11.436 2.465-6.503 0-12.115-1.519-12.126-2.463-.01-.944 5.25-1.711 11.752-1.713 6.503-.003 11.789.76 11.81 1.705" fill-opacity=".17582" style="paint-order:fill markers stroke"/>
   <g id="g982" transform="translate(171.97)">
    <path id="path976" d="M77.506 71.754c.798-3.102 21.759-2.589 22.475 0L89.129 73.77Z" fill="url(#linearGradient969)"/>
    <path id="path978" d="M79.032 70.732c5.977 1.427 12.268 1.912 19.359 0 .825-.223 1.542.154 1.542 1.009v9.05c0 .855-.7 1.394-1.542 1.543-6.751 1.193-13.277 1.484-19.359 0-.83-.202-1.542-.688-1.542-1.542V71.74c0-.855.711-1.208 1.542-1.01z" fill="url(#linearGradient940)" style="paint-order:fill markers stroke"/>
    <path id="path980" d="M98.693 70.676c-.098.01-.2.029-.302.056-7.09 1.913-13.38 1.427-19.358 0-.83-.198-1.543.154-1.543 1.008v.016c5.76 1.586 15.603 2.08 22.444.16v-.176c0-.747-.55-1.13-1.24-1.064z" fill="#fff" fill-opacity=".12637" style="paint-order:fill markers stroke"/>
   </g>
  </g>
 </g>
 <style id="style15307">.B{clip-path:url(#C)}.C{fill:#3e2723}.D{fill-opacity:.15}.E{fill-opacity:.2}</style>
</svg>
