<?xml version="1.0" encoding="UTF-8"?>
<svg id="svg1443" width="128" height="128" version="1.1" viewBox="0 0 33.867 33.867" xmlns="http://www.w3.org/2000/svg" xmlns:cc="http://creativecommons.org/ns#" xmlns:dc="http://purl.org/dc/elements/1.1/" xmlns:rdf="http://www.w3.org/1999/02/22-rdf-syntax-ns#" xmlns:xlink="http://www.w3.org/1999/xlink">
 <defs id="defs1437">
  <radialGradient id="radialGradient948" cx="16.951" cy="6.0443" r="14.544" gradientTransform="matrix(3.1335 0 0 1.9874 -36.165 -5.9684)" gradientUnits="userSpaceOnUse">
   <stop id="stop1626" stop-color="#ff53f9" offset="0"/>
   <stop id="stop1628" stop-color="#8400ea" offset="1"/>
  </radialGradient>
  <linearGradient id="linearGradient886" x1="13.364" x2="13.364" y1="13.921" y2="24.149" gradientTransform="scale(3.7795)" gradientUnits="userSpaceOnUse">
   <stop id="stop880" stop-color="#fff" offset="0"/>
   <stop id="stop882" stop-color="#e9c1fb" offset="1"/>
  </linearGradient>
 </defs>
 <metadata id="metadata1440">
  <rdf:RDF>
   <cc:Work rdf:about="">
    <dc:format>image/svg+xml</dc:format>
    <dc:type rdf:resource="http://purl.org/dc/dcmitype/StillImage"/>
   </cc:Work>
  </rdf:RDF>
 </metadata>
 <g id="layer1">
  <g id="g1702" transform="matrix(.97573 0 0 .96361 -65.737 -36.328)" fill="none" opacity=".18754" stroke="#000" stroke-linecap="round" stroke-linejoin="round" stroke-opacity=".02">
   <rect id="rect1634" x="69.84" y="40.71" width="29.811" height="29.811" rx="6.6099" ry="6.6099" stroke-width=".1"/>
   <rect id="rect1638" x="69.84" y="40.71" width="29.811" height="29.811" rx="6.6099" ry="6.6099" stroke-width=".2"/>
   <rect id="rect1640" x="69.84" y="40.71" width="29.811" height="29.811" rx="6.6099" ry="6.6099" stroke-width=".3"/>
   <rect id="rect1642" x="69.84" y="40.71" width="29.811" height="29.811" rx="6.6099" ry="6.6099" stroke-width=".4"/>
   <rect id="rect1644" x="69.84" y="40.71" width="29.811" height="29.811" rx="6.6099" ry="6.6099" stroke-width=".5"/>
   <rect id="rect1646" x="69.84" y="40.71" width="29.811" height="29.811" rx="6.6099" ry="6.6099" stroke-width=".6"/>
   <rect id="rect1648" x="69.84" y="40.71" width="29.811" height="29.811" rx="6.6099" ry="6.6099" stroke-width=".7"/>
   <rect id="rect1650" x="69.84" y="40.71" width="29.811" height="29.811" rx="6.6099" ry="6.6099" stroke-width=".8"/>
   <rect id="rect1652" x="69.84" y="40.71" width="29.811" height="29.811" rx="6.6099" ry="6.6099"/>
   <rect id="rect1654" x="69.84" y="40.71" width="29.811" height="29.811" rx="6.6099" ry="6.6099" stroke-width="1.2"/>
   <rect id="rect1656" x="69.84" y="40.71" width="29.811" height="29.811" rx="6.6099" ry="6.6099" stroke-width="1.4"/>
   <rect id="rect1658" x="69.84" y="40.71" width="29.811" height="29.811" rx="6.6099" ry="6.6099" stroke-width="1.6"/>
   <rect id="rect1660" x="69.84" y="40.71" width="29.811" height="29.811" rx="6.6099" ry="6.6099" stroke-width="1.8"/>
   <rect id="rect1662" x="69.84" y="40.71" width="29.811" height="29.811" rx="6.6099" ry="6.6099" stroke-width="2"/>
   <rect id="rect1664" x="69.84" y="40.71" width="29.811" height="29.811" rx="6.6099" ry="6.6099" stroke-width="2.2"/>
   <rect id="rect1666" x="69.84" y="40.71" width="29.811" height="29.811" rx="6.6099" ry="6.6099" stroke-width="2.6"/>
   <rect id="rect1668" x="69.84" y="40.71" width="29.811" height="29.811" rx="6.6099" ry="6.6099" stroke-width="3"/>
   <rect id="rect1670" x="69.84" y="40.71" width="29.811" height="29.811" rx="6.6099" ry="6.6099" stroke-width="3.4"/>
   <rect id="rect1672" x="69.84" y="40.71" width="29.811" height="29.811" rx="6.6099" ry="6.6099" stroke-width="3.8"/>
   <rect id="rect1674" x="69.84" y="40.71" width="29.811" height="29.811" rx="6.6099" ry="6.6099" stroke-width="4.2"/>
   <rect id="rect1676" x="69.84" y="40.71" width="29.811" height="29.811" rx="6.6099" ry="6.6099" stroke-width="4.6"/>
   <rect id="rect1678" x="69.84" y="40.71" width="29.811" height="29.811" rx="6.6099" ry="6.6099" stroke-width="5"/>
  </g>
  <rect id="rect849" x="2.4074" y="2.5392" width="29.087" height="29.087" rx="6.4495" ry="6.4495" fill="url(#radialGradient948)" stroke-linecap="round" stroke-linejoin="round" stroke-width="2.6877"/>
  <g id="g2300" opacity=".8915" stroke-width=".26458">
   <path id="path2159" d="m15.901 12.673c-2.0436-4e-3 -3.6887 2.3969-4.5201 5.0111-0.94213 2.9623-2.6347 4.0351-4.2204 4.4426l10.665 5.17e-4 0.65887-1.2852-2.4562-0.03049c-2.161-0.18453-2.5916-2.3168-2.466-2.9957 0.20773-1.3322 0.88648-3.4263 2.3389-5.1428zm0.78755 0-0.65836 1.2852 2.4557 0.03049c2.161 0.18453 2.5916 2.3168 2.466 2.9957-0.20773 1.3322-0.88642 3.4263-2.3389 5.1428 2.0438 0.0044 3.6892-2.3967 4.5207-5.0111 0.94213-2.9623 2.6347-4.0351 4.2204-4.4426z" fill-opacity=".058467"/>
   <path id="path2269" d="m16.187 13.064c-2.0436-4e-3 -3.6887 2.3969-4.5201 5.0111-0.94213 2.9623-2.6347 4.0351-4.2204 4.4426l10.665 5.17e-4 0.65887-1.2852-2.4562-0.03049c-2.161-0.18453-2.5916-2.3168-2.466-2.9957 0.20773-1.3322 0.88648-3.4263 2.3389-5.1428zm0.78755 0-0.65836 1.2852 2.4557 0.03049c2.161 0.18453 2.5916 2.3168 2.466 2.9957-0.20773 1.3322-0.88642 3.4263-2.3389 5.1428 2.0438 0.0044 3.6892-2.3967 4.5207-5.0111 0.94213-2.9623 2.6347-4.0351 4.2204-4.4426z" fill-opacity=".030039"/>
   <path id="path2289" d="m16.48 13.612c-2.0436-4e-3 -3.6887 2.3969-4.5201 5.0111-0.94213 2.9623-2.6347 4.0351-4.2204 4.4426l10.665 5.17e-4 0.65887-1.2852-2.4562-0.03049c-2.161-0.18453-2.5916-2.3168-2.466-2.9957 0.20773-1.3322 0.88648-3.4263 2.3389-5.1428zm0.78755 0-0.65836 1.2852 2.4557 0.03049c2.161 0.18453 2.5916 2.3168 2.466 2.9957-0.20773 1.3322-0.88642 3.4263-2.3389 5.1428 2.0438 0.0044 3.6892-2.3967 4.5207-5.0111 0.94213-2.9623 2.6347-4.0351 4.2204-4.4426z" fill-opacity=".030039"/>
   <path id="path2291" d="m16.696 14.142c-2.0436-4e-3 -3.6887 2.3969-4.5201 5.0111-0.94213 2.9623-2.6347 4.0351-4.2204 4.4426l10.665 5.17e-4 0.65887-1.2852-2.4562-0.03049c-2.161-0.18453-2.5916-2.3168-2.466-2.9957 0.20773-1.3322 0.88648-3.4263 2.3389-5.1428zm0.78755 0-0.65836 1.2852 2.4557 0.03049c2.161 0.18453 2.5916 2.3168 2.466 2.9957-0.20773 1.3322-0.88642 3.4263-2.3389 5.1428 2.0438 0.0044 3.6892-2.3967 4.5207-5.0111 0.94213-2.9623 2.6347-4.0351 4.2204-4.4426z" fill-opacity=".030039"/>
   <path id="path2293" d="m17.098 14.695c-2.0436-4e-3 -3.6887 2.3969-4.5201 5.0111-0.94213 2.9623-2.6347 4.0351-4.2204 4.4426l10.665 5.17e-4 0.65887-1.2852-2.4562-0.03049c-2.161-0.18453-2.5916-2.3168-2.466-2.9957 0.20773-1.3322 0.88648-3.4263 2.3389-5.1428zm0.78755 0-0.65836 1.2852 2.4557 0.03049c2.161 0.18453 2.5916 2.3168 2.466 2.9957-0.20773 1.3322-0.88642 3.4263-2.3389 5.1428 2.0438 0.0044 3.6892-2.3967 4.5207-5.0111 0.94213-2.9623 2.6347-4.0351 4.2204-4.4426z" fill-opacity=".030039"/>
  </g>
  <path id="path2390" transform="scale(.26458)" d="m58.941 46.699c-7.7239-0.015093-13.942 9.059-17.084 18.939-3.5608 11.196-9.9578 15.251-15.951 16.791l40.309 0.001953 2.4902-4.8574-9.2832-0.11524c-8.1675-0.69743-9.795-8.7563-9.3203-11.322 0.78512-5.0352 3.3505-12.95 8.8398-19.438zm2.9766 0-2.4883 4.8574 9.2812 0.11523c8.1675 0.69743 9.795 8.7563 9.3203 11.322-0.78512 5.0352-3.3502 12.95-8.8398 19.438 7.7248 0.01663 13.943-9.0582 17.086-18.939 3.5608-11.196 9.9581-15.251 15.951-16.791l-40.311-0.001953z" fill="url(#linearGradient886)"/>
 </g>
</svg>
