<?xml version="1.0" encoding="UTF-8"?>
<svg id="svg22" width="64" height="64" version="1.1" viewBox="0 0 64 64" xmlns="http://www.w3.org/2000/svg" xmlns:cc="http://creativecommons.org/ns#" xmlns:dc="http://purl.org/dc/elements/1.1/" xmlns:rdf="http://www.w3.org/1999/02/22-rdf-syntax-ns#" xmlns:xlink="http://www.w3.org/1999/xlink">
 <metadata id="metadata2">
  <rdf:RDF>
   <cc:Work rdf:about="">
    <dc:format>image/svg+xml</dc:format>
    <dc:type rdf:resource="http://purl.org/dc/dcmitype/StillImage"/>
    <dc:title/>
   </cc:Work>
  </rdf:RDF>
 </metadata>
 <defs id="defs14">
  <linearGradient id="linearGradient1001" x1="49.441" x2="15.077" y1="49.048" y2="14.685" gradientTransform="matrix(1.1242 0 0 1.1242 -3.9718 -3.9726)" gradientUnits="userSpaceOnUse">
   <stop id="stop4" stop-color="#17aa61" offset="0"/>
   <stop id="stop6" stop-color="#0d4d28" offset="1"/>
  </linearGradient>
  <linearGradient id="linearGradient2638" x1="1.5979" x2="62.452" y1="62.151" y2="1.6145" gradientTransform="matrix(.65574 0 0 .65574 11.016 11.016)" gradientUnits="userSpaceOnUse">
   <stop id="stop9" stop-color="#134629" offset="0"/>
   <stop id="stop11" stop-color="#2ca75d" offset="1"/>
  </linearGradient>
  <linearGradient id="linearGradient1448" x1="3.9687" x2="3.9687" y1="8.9776" y2=".54085" gradientTransform="matrix(3.4646 0 0 3.4646 2.6662 2.484)" gradientUnits="userSpaceOnUse">
   <stop id="stop873" stop-color="#dcdcdc" offset="0"/>
   <stop id="stop875" stop-color="#f0f0f0" offset="1"/>
  </linearGradient>
 </defs>
 <circle id="circle16" cx="-1248.7" cy="-1241.6" r="0" fill="#5e4aa6"/>
 <circle id="circle18" cx="-149.15" cy="23.855" r="0" fill="#5e4aa6" fill-rule="evenodd"/>
 <rect id="rect882" x="4.4996" y="4.3174" width="55.001" height="55.001" ry="13" fill="url(#linearGradient1448)" stroke-opacity=".95294" stroke-width=".31428"/>
 <g id="g890" transform="matrix(3.7796 0 0 3.7796 -55.594 -.1822)" fill="#5e4aa6" stroke-width=".26458">
  <circle id="circle884" cx="-322.63" cy="-345.67" r="0"/>
  <circle id="circle886" cx="-31.726" cy="-10.849" r="0" fill-rule="evenodd"/>
  <circle id="circle888" cx="-306.92" cy="-328.72" r="0"/>
 </g>
 <path id="path20" d="m39.378 12.328c-2.0222 0-4.0984 2.7964-4.0984 8.1972 0 4.9181 1.6393 8.1972 1.6393 8.1972s13.115-1.6393 13.115-8.1972c0-4.9181-4.618-8.9122-6.5575-4.9181-0.73222-2.1968-2.1404-3.2788-4.0984-3.2788zm-18.853 1.6393c-4.9181 0-8.9122 4.618-4.9181 6.5575-2.1968 0.73222-3.2788 2.1404-3.2788 4.0984 0 2.0222 2.7964 4.0984 8.1972 4.0984 4.9181 0 8.1972-1.6393 8.1972-1.6393s-1.6393-13.115-8.1972-13.115zm6.5575 21.312s-13.115 1.6393-13.115 8.1972c0 4.9181 4.618 8.9122 6.5575 4.9181 0.73222 2.1968 2.1404 3.2788 4.0984 3.2788 2.0222 0 4.0984-2.7964 4.0984-8.1972 0-4.9181-1.0564-8.2808-1.0564-8.2808zm16.393 0c-4.9181 0-8.1972 1.6393-8.1972 1.6393s1.6393 13.115 8.1972 13.115c4.9181 0 8.9122-4.618 4.9181-6.5575 2.1968-0.73222 3.2788-2.1404 3.2788-4.0984 0-2.0222-2.7964-4.0984-8.1972-4.0984z" fill="url(#linearGradient1001)" stroke="url(#linearGradient2638)" stroke-width=".65574"/>
</svg>
