<?xml version="1.0" encoding="UTF-8"?>
<svg id="svg1443" width="128" height="128" version="1.1" viewBox="0 0 33.867 33.867" xmlns="http://www.w3.org/2000/svg" xmlns:cc="http://creativecommons.org/ns#" xmlns:dc="http://purl.org/dc/elements/1.1/" xmlns:rdf="http://www.w3.org/1999/02/22-rdf-syntax-ns#" xmlns:xlink="http://www.w3.org/1999/xlink">
 <defs id="defs1437">
  <linearGradient id="linearGradient1632" x1="132.21" x2="132.21" y1="42.152" y2="70.68" gradientTransform="matrix(.97573 0 0 .97573 -111.77 -37.183)" gradientUnits="userSpaceOnUse">
   <stop id="stop1626" stop-color="#fafafc" offset="0"/>
   <stop id="stop1628" stop-color="#e2e6ea" offset="1"/>
  </linearGradient>
 </defs>
 <metadata id="metadata1440">
  <rdf:RDF>
   <cc:Work rdf:about="">
    <dc:format>image/svg+xml</dc:format>
    <dc:type rdf:resource="http://purl.org/dc/dcmitype/StillImage"/>
    <dc:title/>
   </cc:Work>
  </rdf:RDF>
 </metadata>
 <g id="layer1">
  <g id="g1702" transform="matrix(.97573 0 0 .97573 -65.737 -37.183)" fill="none" opacity=".295" stroke="#000" stroke-linecap="round" stroke-linejoin="round" stroke-opacity=".02">
   <rect id="rect1634" x="69.84" y="40.71" width="29.811" height="29.811" rx="6.6099" ry="6.6099" stroke-width=".1"/>
   <rect id="rect1638" x="69.84" y="40.71" width="29.811" height="29.811" rx="6.6099" ry="6.6099" stroke-width=".2"/>
   <rect id="rect1640" x="69.84" y="40.71" width="29.811" height="29.811" rx="6.6099" ry="6.6099" stroke-width=".3"/>
   <rect id="rect1642" x="69.84" y="40.71" width="29.811" height="29.811" rx="6.6099" ry="6.6099" stroke-width=".4"/>
   <rect id="rect1644" x="69.84" y="40.71" width="29.811" height="29.811" rx="6.6099" ry="6.6099" stroke-width=".5"/>
   <rect id="rect1646" x="69.84" y="40.71" width="29.811" height="29.811" rx="6.6099" ry="6.6099" stroke-width=".6"/>
   <rect id="rect1648" x="69.84" y="40.71" width="29.811" height="29.811" rx="6.6099" ry="6.6099" stroke-width=".7"/>
   <rect id="rect1650" x="69.84" y="40.71" width="29.811" height="29.811" rx="6.6099" ry="6.6099" stroke-width=".8"/>
   <rect id="rect1652" x="69.84" y="40.71" width="29.811" height="29.811" rx="6.6099" ry="6.6099"/>
   <rect id="rect1654" x="69.84" y="40.71" width="29.811" height="29.811" rx="6.6099" ry="6.6099" stroke-width="1.2"/>
   <rect id="rect1656" x="69.84" y="40.71" width="29.811" height="29.811" rx="6.6099" ry="6.6099" stroke-width="1.4"/>
   <rect id="rect1658" x="69.84" y="40.71" width="29.811" height="29.811" rx="6.6099" ry="6.6099" stroke-width="1.6"/>
   <rect id="rect1660" x="69.84" y="40.71" width="29.811" height="29.811" rx="6.6099" ry="6.6099" stroke-width="1.8"/>
   <rect id="rect1662" x="69.84" y="40.71" width="29.811" height="29.811" rx="6.6099" ry="6.6099" stroke-width="2"/>
   <rect id="rect1664" x="69.84" y="40.71" width="29.811" height="29.811" rx="6.6099" ry="6.6099" stroke-width="2.2"/>
   <rect id="rect1666" x="69.84" y="40.71" width="29.811" height="29.811" rx="6.6099" ry="6.6099" stroke-width="2.6"/>
   <rect id="rect1668" x="69.84" y="40.71" width="29.811" height="29.811" rx="6.6099" ry="6.6099" stroke-width="3"/>
   <rect id="rect1670" x="69.84" y="40.71" width="29.811" height="29.811" rx="6.6099" ry="6.6099" stroke-width="3.4"/>
   <rect id="rect1672" x="69.84" y="40.71" width="29.811" height="29.811" rx="6.6099" ry="6.6099" stroke-width="3.8"/>
   <rect id="rect1674" x="69.84" y="40.71" width="29.811" height="29.811" rx="6.6099" ry="6.6099" stroke-width="4.2"/>
   <rect id="rect1676" x="69.84" y="40.71" width="29.811" height="29.811" rx="6.6099" ry="6.6099" stroke-width="4.6"/>
   <rect id="rect1678" x="69.84" y="40.71" width="29.811" height="29.811" rx="6.6099" ry="6.6099" stroke-width="5"/>
  </g>
  <rect id="rect849" x="2.4074" y="2.5392" width="29.087" height="29.087" rx="6.4495" ry="6.4495" fill="url(#linearGradient1632)" stroke-linecap="round" stroke-linejoin="round" stroke-width="2.6877"/>
  <path id="path865" transform="scale(.26458)" d="m56.6 49.09c-1.5864 0-3.1733 0.44599-4.7598 1.3359-1.5864 0.88994-3.018 2.1862-4.2949 3.8887-1.2769 1.7025-2.3222 3.8111-3.1348 6.3262-0.81256 2.4764-1.2188 5.2998-1.2188 8.4727 0 1.8573 0.27079 3.5019 0.8125 4.9336 0.5804 1.393 1.335 2.5737 2.2637 3.541 0.92864 0.92864 1.9939 1.6255 3.1934 2.0898 1.1995 0.50302 2.436 0.75391 3.7129 0.75391 1.5477 0 3.0769-0.34844 4.5859-1.0449 1.5477-0.69648 2.9216-1.7418 4.1211-3.1348 1.2382-1.393 2.2238-3.1531 2.959-5.2812 0.77387-2.1281 1.1621-4.6429 1.1621-7.5449 0-2.4377-0.2708-4.5463-0.8125-6.3262-0.50302-1.8186-1.1999-3.308-2.0898-4.4688-0.85125-1.1995-1.8388-2.0895-2.9609-2.6699-1.1221-0.5804-2.3009-0.87109-3.5391-0.87109zm42.02 0c-1.5864 0-3.1714 0.44599-4.7578 1.3359-1.5864 0.88994-3.018 2.1862-4.2949 3.8887-1.2769 1.7025-2.3222 3.8111-3.1348 6.3262-0.81256 2.4764-1.2188 5.2998-1.2188 8.4727 0 1.8573 0.27079 3.5019 0.8125 4.9336 0.5804 1.393 1.335 2.5737 2.2637 3.541 0.92864 0.92864 1.9919 1.6255 3.1914 2.0898 1.1995 0.50302 2.438 0.75391 3.7148 0.75391 1.5477 0 3.0769-0.34844 4.5859-1.0449 1.5477-0.69648 2.9216-1.7418 4.1211-3.1348 1.2382-1.393 2.2238-3.1531 2.959-5.2812 0.77386-2.1281 1.1602-4.6429 1.1602-7.5449 0-2.4377-0.27079-4.5463-0.8125-6.3262-0.50301-1.8186-1.1979-3.308-2.0879-4.4688-0.85125-1.1995-1.8388-2.0895-2.9609-2.6699-1.1221-0.5804-2.3028-0.87109-3.541-0.87109zm-60.883 0.46484c-2.2829 0-4.4313 0.61924-6.4434 1.8574-2.0121 1.1995-3.7921 2.7665-5.3398 4.7012-1.509 1.896-2.7077 4.0245-3.5977 6.3848-0.88995 2.3603-1.334 4.662-1.334 6.9062 0 1.9734 0.32854 3.6957 0.98633 5.166 0.65779 1.4703 1.508 2.6889 2.5527 3.6562 1.0447 0.96733 2.2254 1.6821 3.541 2.1465 1.3156 0.46432 2.6496 0.69726 4.0039 0.69726 1.5477 0 2.9415-0.3106 4.1797-0.92969 1.2382-0.61909 2.2636-1.4116 3.0762-2.3789 0.85125-1.006 1.4904-2.1091 1.916-3.3086 0.46432-1.2382 0.69531-2.4767 0.69531-3.7148 0-1.0447-0.17324-2.0502-0.52148-3.0176-0.30955-0.96733-0.81329-1.8176-1.5098-2.5527-0.69648-0.73517-1.5865-1.3166-2.6699-1.7422-1.0447-0.46432-2.2832-0.69531-3.7148-0.69531-0.65779 0-1.295 0.075709-1.9141 0.23047-0.5804 0.11609-1.122 0.27138-1.625 0.46484-0.46432 0.19347-0.87051 0.38662-1.2188 0.58008-0.34824 0.15477-0.60108 0.29017-0.75586 0.40625-0.34824 0.27084-0.57923 0.48389-0.69531 0.63867-0.11608 0.15477-0.21363 0.50322-0.29102 1.0449-0.077387 0.30954-0.11524 0.58034-0.11524 0.8125v0.46484 0.23242c0.11608-0.15478 0.28933-0.32998 0.52148-0.52344 0.19347-0.19346 0.44436-0.40651 0.75391-0.63867 0.30955-0.23216 0.73564-0.50295 1.2773-0.8125 0.50301-0.27085 1.0068-0.464 1.5098-0.58008 0.54171-0.11608 1.0435-0.17383 1.5078-0.17383 0.85125 0 1.5879 0.21305 2.207 0.63867 0.61909 0.38693 1.1209 0.92852 1.5078 1.625 0.42563 0.65779 0.73622 1.4124 0.92969 2.2637 0.23216 0.85125 0.34766 1.7214 0.34766 2.6113s-0.097549 1.7601-0.29102 2.6113c-0.19347 0.81256-0.50211 1.5492-0.92774 2.207-0.38693 0.61909-0.87077 1.1209-1.4512 1.5078-0.5804 0.42563-1.2773 0.63867-2.0898 0.63867-1.1221 0-2.1077-0.32854-2.959-0.98633-0.85125-0.65779-1.5481-1.4702-2.0898-2.4375-0.54171-1.006-0.9479-2.0713-1.2188-3.1934-0.27085-1.1608-0.40625-2.2241-0.40625-3.1914 0-1.8186 0.25089-3.7141 0.75391-5.6875 0.50301-2.0121 1.2576-3.8897 2.2637-5.6309 1.006-1.7799 2.2644-3.3071 3.7734-4.584s3.2692-2.0893 5.2812-2.4375c0.15476-0.038677 0.25231-0.078485 0.29102-0.11719 0.077404-0.038703 0.15309-0.058594 0.23047-0.058594h0.11719c0-0.038702 0.019891-0.096449 0.058594-0.17383 0.077379-0.15478 0.11523-0.27028 0.11523-0.34766 0-0.15477-0.077637-0.29017-0.23242-0.40625-0.15477-0.11608-0.48331-0.17383-0.98633-0.17383zm39.582 0c-0.88994-1e-6 -1.7979 0.19314-2.7266 0.58008-0.92864 0.38693-1.7609 0.92852-2.4961 1.625-0.73517 0.69648-1.3345 1.5089-1.7988 2.4375-0.46432 0.92864-0.69727 1.9162-0.69727 2.9609 0 1.4703 0.27079 2.7268 0.8125 3.7715 0.5804 1.006 1.2972 1.9538 2.1484 2.8438-1.7412 1.4703-3.1927 2.9995-4.3535 4.5859-1.1221 1.5864-1.6836 3.2689-1.6836 5.0488 0 1.2769 0.21305 2.3999 0.63867 3.3672 0.42563 0.92864 0.98712 1.6833 1.6836 2.2637 0.69648 0.61909 1.5089 1.0631 2.4375 1.334 0.92864 0.30955 1.8963 0.46484 2.9023 0.46484 1.1995 0 2.3982-0.19315 3.5977-0.58008 1.1995-0.38693 2.2827-0.96832 3.25-1.7422 0.96733-0.73517 1.7419-1.6432 2.3223-2.7266 0.61909-1.0834 0.92773-2.302 0.92773-3.6562 0-1.2382-0.28874-2.3233-0.86914-3.252-0.5804-0.92864-1.3171-1.741-2.207-2.4375-0.85125-0.73517-1.799-1.4122-2.8438-2.0312-1.006-0.61909-1.9538-1.2184-2.8438-1.7988-0.85125-0.61909-1.5661-1.2762-2.1465-1.9727-0.5804-0.69648-0.87109-1.4909-0.87109-2.3809 0-0.65779 0.1354-1.277 0.40625-1.8574 0.30955-0.61909 0.69584-1.1408 1.1602-1.5664 0.50301-0.46432 1.0446-0.83266 1.625-1.1035 0.6191-0.27085 1.2582-0.40625 1.916-0.40625 0.65779 0 1.1217 0.1553 1.3926 0.46484 0.27085 0.27085 0.40625 0.6193 0.40625 1.0449 0 0.42563-0.095601 0.88956-0.28906 1.3926-0.19347 0.46432-0.42641 0.91031-0.69727 1.3359-0.23216 0.38693-0.48305 0.73538-0.75391 1.0449-0.27084 0.27085-0.48389 0.40625-0.63867 0.40625-0.11608 0-0.17383 0.057746-0.17383 0.17383 0 0.07738 0.077637 0.19287 0.23242 0.34766 0.15477 0.15478 0.36586 0.32998 0.63672 0.52344 0.27085 0.15476 0.56155 0.30811 0.87109 0.46289 0.30955 0.11608 0.62014 0.17383 0.92969 0.17383 0.69648 0 1.3157-0.1354 1.8574-0.40625 0.5804-0.30955 1.0443-0.71574 1.3926-1.2188 0.38694-0.50302 0.67763-1.0625 0.87109-1.6816 0.23216-0.65779 0.34766-1.3168 0.34766-1.9746 0-0.73517-0.1354-1.45-0.40625-2.1465-0.23216-0.69648-0.61845-1.3157-1.1602-1.8574-0.54171-0.54171-1.2386-0.9877-2.0898-1.3359-0.81256-0.34824-1.82-0.52148-3.0195-0.52148zm-22.461 1.8574c0.77387 0 1.5285 0.2907 2.2637 0.87109 0.73517 0.5804 1.3942 1.4505 1.9746 2.6113 0.5804 1.1221 1.0443 2.5338 1.3926 4.2363 0.34824 1.7025 0.52148 3.6956 0.52148 5.9785 0 2.2442-0.19315 4.1975-0.58008 5.8613-0.38693 1.6638-0.89067 3.0576-1.5098 4.1797-0.61909 1.0834-1.3339 1.8958-2.1465 2.4375-0.77387 0.54171-1.5663 0.8125-2.3789 0.8125-0.77387 0-1.5285-0.23295-2.2637-0.69727-0.73517-0.50301-1.3942-1.2377-1.9746-2.2051s-1.0443-2.166-1.3926-3.5977c-0.34824-1.4703-0.52148-3.1548-0.52148-5.0508 0-2.5925 0.19314-4.8544 0.58008-6.7891 0.38693-1.9347 0.88872-3.5415 1.5078-4.8184 0.61909-1.2769 1.316-2.2247 2.0898-2.8438 0.81256-0.65779 1.6249-0.98633 2.4375-0.98633zm42.021 0c0.77387 0 1.5285 0.2907 2.2637 0.87109 0.73517 0.5804 1.3923 1.4505 1.9727 2.6113 0.5804 1.1221 1.0443 2.5338 1.3926 4.2363 0.34824 1.7025 0.52344 3.6956 0.52344 5.9785 0 2.2442-0.19315 4.1975-0.58008 5.8613-0.38693 1.6638-0.89067 3.0576-1.5098 4.1797-0.6191 1.0834-1.3339 1.8958-2.1465 2.4375-0.77387 0.54171-1.5683 0.8125-2.3809 0.8125-0.77386 0-1.5285-0.23295-2.2637-0.69727-0.73517-0.50301-1.3923-1.2377-1.9727-2.2051-0.5804-0.96733-1.0443-2.166-1.3926-3.5977-0.34824-1.4703-0.52344-3.1548-0.52344-5.0508 0-2.5925 0.19314-4.8544 0.58008-6.7891 0.38693-1.9347 0.89067-3.5415 1.5098-4.8184 0.6191-1.2769 1.316-2.2247 2.0898-2.8438 0.81256-0.65779 1.6249-0.98633 2.4375-0.98633zm-23.506 13.174c0.65779 0.65778 1.3149 1.2969 1.9727 1.916 0.65779 0.61909 1.2571 1.2961 1.7988 2.0312 0.54171 0.69648 0.9877 1.489 1.3359 2.3789 0.34824 0.85125 0.52148 1.8189 0.52148 2.9023 0 0.81256-0.1354 1.5094-0.40625 2.0898-0.23216 0.5417-0.5607 1.0056-0.98633 1.3926-0.42562 0.38694-0.92937 0.67763-1.5098 0.87109-0.54171 0.15478-1.1211 0.23242-1.7402 0.23242-0.69648 0-1.4133-0.11549-2.1484-0.34766-0.69648-0.23216-1.3337-0.56266-1.9141-0.98828-0.54171-0.42563-0.9877-0.94731-1.3359-1.5664-0.34824-0.65779-0.52148-1.3726-0.52148-2.1465 0-1.3543 0.46394-2.7859 1.3926-4.2949 0.96733-1.5477 2.1481-3.0391 3.541-4.4707z" fill="#333" stroke-width=".2902"/>
 </g>
</svg>
