<?xml version="1.0" encoding="UTF-8"?>
<svg id="svg6" width="128" height="128" version="1.1" viewBox="0 0 33.867 33.867" xmlns="http://www.w3.org/2000/svg" xmlns:xlink="http://www.w3.org/1999/xlink">
 <defs id="defs2">
  <linearGradient id="linearGradient1632" x1="132.21" x2="132.21" y1="42.152" y2="70.68" gradientTransform="translate(-111.78 -37.203) scale(.97573)" gradientUnits="userSpaceOnUse">
   <stop id="stop1626" stop-color="#4a5159" offset="0"/>
   <stop id="stop1628" stop-color="#010101" offset="1"/>
  </linearGradient>
 </defs>
 <g id="layer1">
  <rect id="rect849" x="2.396" y="2.519" width="29.087" height="29.087" rx="6.449" ry="6.449" fill="url(#linearGradient1632)" stroke-linecap="round" stroke-linejoin="round" stroke-width="2.6877"/>
  <path id="path6" transform="scale(.26458)" d="M25.783 43.441V93.92h7.211v7.21h-7.21v7.212h-7.212v6.08a24.237 24.237 0 0 0 11.04 4.736h68.827a24.244 24.244 0 0 0 12.075-5.578v-3.435h-7.211v-9.014h-7.211V93.92h7.21V43.44H25.784z" opacity=".2" stroke-width="1.8028"/>
  <path id="path8" transform="scale(.26458)" d="M25.783 41.639v50.478h7.211v7.211h-7.21v7.211h-7.212v7.883a24.28 24.28 0 0 0 4.932 2.933h81.043a24.295 24.295 0 0 0 5.967-3.775v-5.238h-7.211v-9.014h-7.211v-7.21h7.21v-50.48H25.784z" fill="#3f3f3f" stroke-width="1.8028"/>
  <path id="path10" d="M8.73 13.402V24.85h16.694V13.402Zm2.385 2.862h3.815v1.908h-3.815Zm8.108 0h3.816v1.908h-3.816ZM8.73 26.758v2.384h1.43v2.385h12.88v-2.862h2.384v-1.907z" opacity=".2" stroke-width=".47698"/>
  <path id="path12" d="M8.73 12.925v11.448h16.694V12.925Zm2.385 2.862h3.815v1.908h-3.815Zm8.108 0h3.816v1.908h-3.816ZM8.73 26.28v2.384h1.43v2.385h12.88v-2.862h2.384V26.28z" fill="#fff" stroke-width=".47698"/>
  <path id="path14" d="M6.822 11.017v.477h20.51v-.477zm0 15.264v.477H8.73v-.477zm18.602 0v.477h1.908v-.477Zm-20.51 1.907v.477h1.908v-.477zm22.418.477v.477h1.908v-.477z" fill="#fff" opacity=".1" stroke-width=".47698"/>
 </g>
 <style id="style15307">.B{clip-path:url(#C)}.C{fill:#3e2723}.D{fill-opacity:.15}.E{fill-opacity:.2}</style>
</svg>
