<?xml version="1.0" encoding="UTF-8"?>
<svg id="svg1829" width="128" height="128" version="1.1" viewBox="0 0 33.867 33.867" xmlns="http://www.w3.org/2000/svg" xmlns:cc="http://creativecommons.org/ns#" xmlns:dc="http://purl.org/dc/elements/1.1/" xmlns:rdf="http://www.w3.org/1999/02/22-rdf-syntax-ns#" xmlns:xlink="http://www.w3.org/1999/xlink">
 <defs id="defs1823">
  <radialGradient id="radialGradient886" cx="17.31" cy="2.5296" r="14.544" gradientTransform="matrix(7.1618 0 0 1.7511 -106.66 -1.9)" gradientUnits="userSpaceOnUse">
   <stop id="stop880" stop-color="#50ceff" offset="0"/>
   <stop id="stop882" stop-color="#3471fc" offset="1"/>
  </radialGradient>
  <linearGradient id="linearGradient899" x1="12.194" x2="22.17" y1="14.985" y2="25.582" gradientUnits="userSpaceOnUse">
   <stop id="stop893" stop-color="#fff" offset="0"/>
   <stop id="stop895" stop-color="#cedffe" offset="1"/>
  </linearGradient>
 </defs>
 <metadata id="metadata1826">
  <rdf:RDF>
   <cc:Work rdf:about="">
    <dc:format>image/svg+xml</dc:format>
    <dc:type rdf:resource="http://purl.org/dc/dcmitype/StillImage"/>
    <dc:title/>
   </cc:Work>
  </rdf:RDF>
 </metadata>
 <g id="layer1">
  <g id="g1702" transform="matrix(.97573 0 0 .97573 -65.587 -37.192)" fill="none" opacity=".29676" stroke="#000" stroke-linecap="round" stroke-linejoin="round" stroke-opacity=".02">
   <rect id="rect1634" x="69.84" y="40.71" width="29.811" height="29.811" rx="6.6099" ry="6.6099" stroke-width=".1"/>
   <rect id="rect1638" x="69.84" y="40.71" width="29.811" height="29.811" rx="6.6099" ry="6.6099" stroke-width=".2"/>
   <rect id="rect1640" x="69.84" y="40.71" width="29.811" height="29.811" rx="6.6099" ry="6.6099" stroke-width=".3"/>
   <rect id="rect1642" x="69.84" y="40.71" width="29.811" height="29.811" rx="6.6099" ry="6.6099" stroke-width=".4"/>
   <rect id="rect1644" x="69.84" y="40.71" width="29.811" height="29.811" rx="6.6099" ry="6.6099" stroke-width=".5"/>
   <rect id="rect1646" x="69.84" y="40.71" width="29.811" height="29.811" rx="6.6099" ry="6.6099" stroke-width=".6"/>
   <rect id="rect1648" x="69.84" y="40.71" width="29.811" height="29.811" rx="6.6099" ry="6.6099" stroke-width=".7"/>
   <rect id="rect1650" x="69.84" y="40.71" width="29.811" height="29.811" rx="6.6099" ry="6.6099" stroke-width=".8"/>
   <rect id="rect1652" x="69.84" y="40.71" width="29.811" height="29.811" rx="6.6099" ry="6.6099"/>
   <rect id="rect1654" x="69.84" y="40.71" width="29.811" height="29.811" rx="6.6099" ry="6.6099" stroke-width="1.2"/>
   <rect id="rect1656" x="69.84" y="40.71" width="29.811" height="29.811" rx="6.6099" ry="6.6099" stroke-width="1.4"/>
   <rect id="rect1658" x="69.84" y="40.71" width="29.811" height="29.811" rx="6.6099" ry="6.6099" stroke-width="1.6"/>
   <rect id="rect1660" x="69.84" y="40.71" width="29.811" height="29.811" rx="6.6099" ry="6.6099" stroke-width="1.8"/>
   <rect id="rect1662" x="69.84" y="40.71" width="29.811" height="29.811" rx="6.6099" ry="6.6099" stroke-width="2"/>
   <rect id="rect1664" x="69.84" y="40.71" width="29.811" height="29.811" rx="6.6099" ry="6.6099" stroke-width="2.2"/>
   <rect id="rect1666" x="69.84" y="40.71" width="29.811" height="29.811" rx="6.6099" ry="6.6099" stroke-width="2.6"/>
   <rect id="rect1668" x="69.84" y="40.71" width="29.811" height="29.811" rx="6.6099" ry="6.6099" stroke-width="3"/>
   <rect id="rect1670" x="69.84" y="40.71" width="29.811" height="29.811" rx="6.6099" ry="6.6099" stroke-width="3.4"/>
   <rect id="rect1672" x="69.84" y="40.71" width="29.811" height="29.811" rx="6.6099" ry="6.6099" stroke-width="3.8"/>
   <rect id="rect1674" x="69.84" y="40.71" width="29.811" height="29.811" rx="6.6099" ry="6.6099" stroke-width="4.2"/>
   <rect id="rect1676" x="69.84" y="40.71" width="29.811" height="29.811" rx="6.6099" ry="6.6099" stroke-width="4.6"/>
   <rect id="rect1678" x="69.84" y="40.71" width="29.811" height="29.811" rx="6.6099" ry="6.6099" stroke-width="5"/>
  </g>
  <rect id="rect849-5" x="2.5579" y="2.5293" width="29.087" height="29.087" rx="6.4495" ry="6.4495" fill="url(#radialGradient886)" stroke-linecap="round" stroke-linejoin="round" stroke-width="2.6877"/>
  <g id="g883" fill="#044ef7" fill-opacity=".35732" opacity=".4823" shape-rendering="auto">
   <path id="path873" d="m21.916 7.6432c-1.527 0-2.7273 0.29695-3.6406 0.89258-0.9133 0.59563-1.4595 1.485-1.7109 2.3398-0.50285 1.7097-0.125 3.4279-0.125 4.0703h2.4336c0-1.1833-0.23051-2.5081 0.02734-3.3848 0.12893-0.43835 0.30617-0.72617 0.70508-0.98633 0.39891-0.26016 1.0991-0.49805 2.3105-0.49805 1.0537 0 1.6891 0.36119 2.1562 0.90625s0.73438 1.3325 0.73438 2.1367-0.26718 1.5917-0.73438 2.1367-1.1025 0.90625-2.1562 0.90625h-8.5195c-1.6848 0-3.1038 0.70345-4.0059 1.7559-0.90207 1.0524-1.3184 2.3949-1.3184 3.7207 0 1.3258 0.41629 2.6702 1.3184 3.7227 0.90207 1.0524 2.3211 1.7559 4.0059 1.7559 1.5496 0 2.7832-0.35418 3.6934-1.0117 0.91014-0.65754 1.426-1.587 1.6719-2.4648 0.24587-0.87786 0.25761-1.7227 0.22461-2.4199-0.033-0.69718-0.11074-1.3091-0.11328-1.4316l-2.4336 0.05078c0.01007 0.48601 0.09077 0.93812 0.11719 1.4961 0.02641 0.55798-1e-3 1.157-0.13867 1.6484-0.13763 0.4914-0.34789 0.85511-0.75391 1.1484s-1.0786 0.54883-2.2676 0.54883c-1.0537 0-1.6891-0.36119-2.1562-0.90625s-0.73438-1.3325-0.73438-2.1367c0-0.80417 0.26718-1.5897 0.73438-2.1348 0.46719-0.54506 1.1025-0.90625 2.1562-0.90625h8.5195c1.6848 0 3.1038-0.7054 4.0059-1.7578 0.90207-1.0524 1.3184-2.3949 1.3184-3.7207s-0.41629-2.6683-1.3184-3.7207c-0.90207-1.0524-2.3211-1.7559-4.0059-1.7559z" color="#000000" color-rendering="auto" dominant-baseline="auto" image-rendering="auto" opacity="1" solid-color="#000000" stop-color="#000000" style="font-feature-settings:normal;font-variant-alternates:normal;font-variant-caps:normal;font-variant-east-asian:normal;font-variant-ligatures:normal;font-variant-numeric:normal;font-variant-position:normal;font-variation-settings:normal;inline-size:0;isolation:auto;mix-blend-mode:normal;shape-margin:0;shape-padding:0;text-decoration-color:#000000;text-decoration-line:none;text-decoration-style:solid;text-indent:0;text-orientation:mixed;text-transform:none;white-space:normal"/>
   <path id="path879" d="m22.375 7.9672c-1.527 0-2.7273 0.29695-3.6406 0.89258-0.9133 0.59563-1.4595 1.485-1.7109 2.3398-0.50285 1.7097-0.125 3.4279-0.125 4.0703h2.4336c0-1.1833-0.23051-2.5081 0.02734-3.3848 0.12893-0.43835 0.30617-0.72617 0.70508-0.98633 0.39891-0.26016 1.0991-0.49805 2.3105-0.49805 1.0537 0 1.6891 0.36119 2.1562 0.90625s0.73438 1.3325 0.73438 2.1367-0.26718 1.5917-0.73438 2.1367-1.1025 0.90625-2.1562 0.90625h-8.5195c-1.6848 0-3.1038 0.70345-4.0059 1.7559-0.90207 1.0524-1.3184 2.3949-1.3184 3.7207 0 1.3258 0.41629 2.6702 1.3184 3.7227 0.90207 1.0524 2.3211 1.7559 4.0059 1.7559 1.5496 0 2.7832-0.35418 3.6934-1.0117 0.91014-0.65754 1.426-1.587 1.6719-2.4648 0.24587-0.87786 0.25761-1.7227 0.22461-2.4199-0.033-0.69718-0.11074-1.3091-0.11328-1.4316l-2.4336 0.05078c0.01007 0.48601 0.09077 0.93812 0.11719 1.4961 0.02641 0.55798-1e-3 1.157-0.13867 1.6484-0.13763 0.4914-0.34789 0.85511-0.75391 1.1484s-1.0786 0.54883-2.2676 0.54883c-1.0537 0-1.6891-0.36119-2.1562-0.90625s-0.73438-1.3325-0.73438-2.1367c0-0.80417 0.26718-1.5897 0.73438-2.1348 0.46719-0.54506 1.1025-0.90625 2.1562-0.90625h8.5195c1.6848 0 3.1038-0.7054 4.0059-1.7578 0.90207-1.0524 1.3184-2.3949 1.3184-3.7207s-0.41629-2.6683-1.3184-3.7207c-0.90207-1.0524-2.3211-1.7559-4.0059-1.7559z" color="#000000" color-rendering="auto" dominant-baseline="auto" image-rendering="auto" opacity="1" solid-color="#000000" stop-color="#000000" style="font-feature-settings:normal;font-variant-alternates:normal;font-variant-caps:normal;font-variant-east-asian:normal;font-variant-ligatures:normal;font-variant-numeric:normal;font-variant-position:normal;font-variation-settings:normal;inline-size:0;isolation:auto;mix-blend-mode:normal;shape-margin:0;shape-padding:0;text-decoration-color:#000000;text-decoration-line:none;text-decoration-style:solid;text-indent:0;text-orientation:mixed;text-transform:none;white-space:normal"/>
  </g>
  <path id="path8" d="m17.102 14.639c0-1.8257-1.2171-6.0856 4.2599-6.0856 5.477 0 5.477 8.5198 0 8.5198h-8.5198c-5.477 0-5.477 8.5198 0 8.5198 5.477 0 4.2851-4.8685 4.2599-6.0856" fill="none" stroke="url(#linearGradient899)" stroke-linejoin="round" stroke-width="2.4342"/>
 </g>
</svg>
