<?xml version="1.0" encoding="UTF-8"?>
<svg id="svg1614" width="128" height="128" version="1.1" viewBox="0 0 33.867 33.867" xmlns="http://www.w3.org/2000/svg" xmlns:cc="http://creativecommons.org/ns#" xmlns:dc="http://purl.org/dc/elements/1.1/" xmlns:rdf="http://www.w3.org/1999/02/22-rdf-syntax-ns#" xmlns:xlink="http://www.w3.org/1999/xlink">
 <defs id="defs1608">
  <radialGradient id="radialGradient1506" cx="17.081" cy="3.8306" r="14.544" gradientTransform="matrix(7.4203 0 0 2.9718 -109.59 -7.6061)" gradientUnits="userSpaceOnUse">
   <stop id="stop4671" stop-color="#ffdf42" offset="0"/>
   <stop id="stop4673" stop-color="#f86600" offset="1"/>
  </radialGradient>
 </defs>
 <metadata id="metadata1611">
  <rdf:RDF>
   <cc:Work rdf:about="">
    <dc:format>image/svg+xml</dc:format>
    <dc:type rdf:resource="http://purl.org/dc/dcmitype/StillImage"/>
    <dc:title/>
   </cc:Work>
  </rdf:RDF>
 </metadata>
 <g id="layer1">
  <g id="g1702" transform="matrix(.97573 0 0 .97573 -65.671 -37.256)" fill="none" opacity=".295" stroke="#000" stroke-linecap="round" stroke-linejoin="round" stroke-opacity=".02">
   <rect id="rect1634" x="69.84" y="40.71" width="29.811" height="29.811" rx="6.6099" ry="6.6099" stroke-width=".1"/>
   <rect id="rect1638" x="69.84" y="40.71" width="29.811" height="29.811" rx="6.6099" ry="6.6099" stroke-width=".2"/>
   <rect id="rect1640" x="69.84" y="40.71" width="29.811" height="29.811" rx="6.6099" ry="6.6099" stroke-width=".3"/>
   <rect id="rect1642" x="69.84" y="40.71" width="29.811" height="29.811" rx="6.6099" ry="6.6099" stroke-width=".4"/>
   <rect id="rect1644" x="69.84" y="40.71" width="29.811" height="29.811" rx="6.6099" ry="6.6099" stroke-width=".5"/>
   <rect id="rect1646" x="69.84" y="40.71" width="29.811" height="29.811" rx="6.6099" ry="6.6099" stroke-width=".6"/>
   <rect id="rect1648" x="69.84" y="40.71" width="29.811" height="29.811" rx="6.6099" ry="6.6099" stroke-width=".7"/>
   <rect id="rect1650" x="69.84" y="40.71" width="29.811" height="29.811" rx="6.6099" ry="6.6099" stroke-width=".8"/>
   <rect id="rect1652" x="69.84" y="40.71" width="29.811" height="29.811" rx="6.6099" ry="6.6099"/>
   <rect id="rect1654" x="69.84" y="40.71" width="29.811" height="29.811" rx="6.6099" ry="6.6099" stroke-width="1.2"/>
   <rect id="rect1656" x="69.84" y="40.71" width="29.811" height="29.811" rx="6.6099" ry="6.6099" stroke-width="1.4"/>
   <rect id="rect1658" x="69.84" y="40.71" width="29.811" height="29.811" rx="6.6099" ry="6.6099" stroke-width="1.6"/>
   <rect id="rect1660" x="69.84" y="40.71" width="29.811" height="29.811" rx="6.6099" ry="6.6099" stroke-width="1.8"/>
   <rect id="rect1662" x="69.84" y="40.71" width="29.811" height="29.811" rx="6.6099" ry="6.6099" stroke-width="2"/>
   <rect id="rect1664" x="69.84" y="40.71" width="29.811" height="29.811" rx="6.6099" ry="6.6099" stroke-width="2.2"/>
   <rect id="rect1666" x="69.84" y="40.71" width="29.811" height="29.811" rx="6.6099" ry="6.6099" stroke-width="2.6"/>
   <rect id="rect1668" x="69.84" y="40.71" width="29.811" height="29.811" rx="6.6099" ry="6.6099" stroke-width="3"/>
   <rect id="rect1670" x="69.84" y="40.71" width="29.811" height="29.811" rx="6.6099" ry="6.6099" stroke-width="3.4"/>
   <rect id="rect1672" x="69.84" y="40.71" width="29.811" height="29.811" rx="6.6099" ry="6.6099" stroke-width="3.8"/>
   <rect id="rect1674" x="69.84" y="40.71" width="29.811" height="29.811" rx="6.6099" ry="6.6099" stroke-width="4.2"/>
   <rect id="rect1676" x="69.84" y="40.71" width="29.811" height="29.811" rx="6.6099" ry="6.6099" stroke-width="4.6"/>
   <rect id="rect1678" x="69.84" y="40.71" width="29.811" height="29.811" rx="6.6099" ry="6.6099" stroke-width="5"/>
  </g>
  <rect id="rect849" x="2.4737" y="2.4656" width="29.087" height="29.087" rx="6.4495" ry="6.4495" fill="url(#radialGradient1506)" stroke-linecap="round" stroke-linejoin="round" stroke-width="2.688"/>
  <path id="path4265" d="m17.987 7.5067v21.736" fill="none" stroke="#fff" stroke-opacity=".23954" stroke-width=".39688"/>
  <path id="path4267" d="m20.589 26.334v-20.358" fill="none" stroke="#fff" stroke-opacity=".23954" stroke-width=".39688"/>
  <path id="path4269" d="m5.8948 19.829 17.405-10.049" fill="none" stroke="#fff" stroke-opacity=".23954" stroke-width=".39688"/>
  <path id="path4271" d="m25.641 11.41-20.282 11.71" fill="none" stroke="#fff" stroke-opacity=".23954" stroke-width=".39688"/>
  <path id="path4273" d="m8.8796 15.926 17.924 10.348" fill="none" stroke="#fff" stroke-opacity=".23954" stroke-width=".39688"/>
  <path id="path4275" d="m25.411 22.354-17.451-10.075" fill="none" stroke="#fff" stroke-opacity=".23954" stroke-width=".39688"/>
  <path id="path4277" d="m17.949 6.8179v21.162" fill="none" stroke="#fff" stroke-opacity=".80228" stroke-width=".13229"/>
  <path id="path4279" d="m20.551 5.5551v21.43" fill="none" stroke="#fff" stroke-opacity=".80228" stroke-width=".13229"/>
  <path id="path4281" d="m27.095 26.411-19.175-11.071" fill="none" stroke="#fff" stroke-opacity=".80228" stroke-width=".13229"/>
  <path id="path4283" d="m7.8464 12.137 18.361 10.601" fill="none" stroke="#fff" stroke-opacity=".80228" stroke-width=".13229"/>
  <path id="path4285" d="m24.799 11.907-18.633 10.758" fill="none" stroke="#fff" stroke-opacity=".80228" stroke-width=".13229"/>
  <path id="path4287" d="m5.7034 20.058c0.22961-0.19134 18.176-10.494 18.176-10.494" fill="none" stroke="#fff" stroke-opacity=".80228" stroke-width=".13229"/>
  <path id="path4289" d="m9.2623 12.558c-0.1148 0.38267-0.45921 4.4773-0.45921 4.4773" fill="none" stroke="#fff" stroke-opacity=".34601" stroke-width=".39688"/>
  <path id="path4291" d="m21.929 10.147c0.42094 0.03827 3.7885 2.9083 3.7885 2.9083" fill="none" stroke="#fff" stroke-opacity=".34601" stroke-width=".39688"/>
  <path id="path4293" d="m17.49 8.9226c0.19134-0.038267 3.7119-1.7986 3.7119-1.7986" fill="none" stroke="#fff" stroke-opacity=".34601" stroke-width=".39688"/>
  <path id="path4297" d="m24.952 21.321c0 0.2296-0.2296 4.86-0.2296 4.86" fill="none" stroke="#fff" stroke-opacity=".34601" stroke-width=".39688"/>
  <path id="path4299" d="m17.452 27.482c0.42094-0.07654 4.3242-2.2578 4.3242-2.2578" fill="none" stroke="#fff" stroke-opacity=".34601" stroke-width=".39688"/>
  <path id="path4301" d="m9.3006 12.175-0.61228 5.5105" fill="none" stroke="#fff" stroke-width=".13229"/>
  <path id="path4303" d="m21.737 9.8793c0.15307 0.076535 3.6354 2.7935 3.6354 2.7935" fill="none" stroke="#fff" stroke-width=".13229"/>
  <path id="path4305" d="m18.446 8.3869 3.1762-1.4924" fill="none" stroke="#fff" stroke-width=".13229"/>
  <path id="path4307" d="m17.107 27.635 5.013-2.5639" fill="none" stroke="#fff" stroke-width=".13229"/>
  <path id="path4309" d="m24.914 20.862-0.1148 5.7401" fill="none" stroke="#fff" stroke-width=".13229"/>
  <path id="path4321" d="m6.5453 19.063 1.7603 3.5206" fill="none" stroke="#fff" stroke-opacity=".15589" stroke-width=".52917"/>
  <path id="path4323" d="m6.2009 18.566 2.5639 5.0513" fill="none" stroke="#fff" stroke-opacity=".15589" stroke-width=".26458px"/>
  <path id="path4325" d="m6.3382 18.891 2.3854 4.5135" fill="none" stroke="#fff" stroke-opacity=".6578" stroke-width=".13229"/>
 </g>
</svg>
