<?xml version="1.0" encoding="UTF-8"?>
<svg id="svg1716" width="128" height="128" version="1.1" viewBox="0 0 33.867 33.867" xmlns="http://www.w3.org/2000/svg" xmlns:cc="http://creativecommons.org/ns#" xmlns:dc="http://purl.org/dc/elements/1.1/" xmlns:rdf="http://www.w3.org/1999/02/22-rdf-syntax-ns#" xmlns:xlink="http://www.w3.org/1999/xlink">
 <defs id="defs1710">
  <linearGradient id="linearGradient1302" x1="19.978" x2="31.484" y1="30.456" y2="17.062" gradientTransform="translate(-.068649 -.062935)" gradientUnits="userSpaceOnUse">
   <stop id="stop1296" stop-color="#6ec96e" offset="0"/>
   <stop id="stop1308" stop-color="#2dacc2" offset=".64475"/>
   <stop id="stop1298" stop-color="#21e5ff" offset="1"/>
  </linearGradient>
  <linearGradient id="linearGradient1318" x1="2.3963" x2="23.434" y1="17.062" y2="17.276" gradientTransform="translate(-.068649 -.062935)" gradientUnits="userSpaceOnUse">
   <stop id="stop1312" stop-color="#f58832" offset="0"/>
   <stop id="stop1314" stop-color="#f58832" stop-opacity="0" offset="1"/>
  </linearGradient>
  <linearGradient id="linearGradient1340" x1="26.084" x2="19.999" y1="9.6439" y2="15.939" gradientTransform="translate(-.068649 -.062935)" gradientUnits="userSpaceOnUse">
   <stop id="stop1334" stop-color="#8e9bc5" offset="0"/>
   <stop id="stop1336" stop-color="#8e9bc5" stop-opacity="0" offset="1"/>
  </linearGradient>
  <linearGradient id="linearGradient1728" x1="8.3616" x2="16.186" y1="1.5442" y2="15.233" gradientTransform="translate(-.068649 -.062935)" gradientUnits="userSpaceOnUse">
   <stop id="stop1722" stop-color="#e45fa8" offset="0"/>
   <stop id="stop1724" stop-color="#e45fa8" stop-opacity="0" offset="1"/>
  </linearGradient>
  <linearGradient id="linearGradient1738" x1="1.9815" x2="16.255" y1="9.6521" y2="9.6521" gradientTransform="translate(-.068649 -.062935)" gradientUnits="userSpaceOnUse">
   <stop id="stop1732" stop-color="#fb931d" offset="0"/>
   <stop id="stop1734" stop-color="#f49324" stop-opacity="0" offset="1"/>
  </linearGradient>
  <linearGradient id="linearGradient1354" x1="5.7093" x2="16.941" y1="25.871" y2="18.88" gradientTransform="translate(-.068649 -.062935)" gradientUnits="userSpaceOnUse">
   <stop id="stop1346" stop-color="#f2e033" offset="0"/>
   <stop id="stop1356" stop-color="#eddc38" stop-opacity=".094118" offset=".75226"/>
   <stop id="stop1348" stop-color="#eddc38" stop-opacity="0" offset="1"/>
  </linearGradient>
  <radialGradient id="radialGradient1366" cx="16.198" cy="30.236" r="14.544" gradientTransform="matrix(.75001 0 0 1 4.1662 -.062935)" gradientUnits="userSpaceOnUse">
   <stop id="stop1360" stop-color="#8ad254" offset="0"/>
   <stop id="stop1362" stop-color="#8ad254" stop-opacity="0" offset="1"/>
  </radialGradient>
  <radialGradient id="radialGradient1762" cx="30.351" cy="17.566" r="14.544" gradientTransform="matrix(.94691 -.09208 .050114 .51535 .66232 11.245)" gradientUnits="userSpaceOnUse">
   <stop id="stop1756" stop-color="#47c7d7" offset="0"/>
   <stop id="stop1758" stop-color="#47c7d7" stop-opacity="0" offset="1"/>
  </radialGradient>
  <radialGradient id="radialGradient1750" cx="16.462" cy="5.1546" r="14.544" gradientTransform="matrix(.50539 0 0 1.1295 8.0735 -.73036)" gradientUnits="userSpaceOnUse">
   <stop id="stop1742" stop-color="#d25ba8" offset="0"/>
   <stop id="stop1752" stop-color="#dc5da8" offset=".34305"/>
   <stop id="stop1744" stop-color="#ea60a8" stop-opacity="0" offset="1"/>
  </radialGradient>
  <radialGradient id="radialGradient935-3" cx="190.85" cy="148.93" r="53.835" gradientTransform="matrix(.28124 0 0 .28124 -37.297 -22.981)" gradientUnits="userSpaceOnUse">
   <stop id="stop925" offset="0"/>
   <stop id="stop961" stop-opacity=".74118" offset=".27788"/>
   <stop id="stop963" stop-opacity=".26275" offset=".5838"/>
   <stop id="stop967" stop-opacity=".21569" offset=".62282"/>
   <stop id="stop971" stop-opacity=".17255" offset=".66894"/>
   <stop id="stop975" stop-opacity=".13333" offset=".70968"/>
   <stop id="stop979" stop-opacity=".090196" offset=".76299"/>
   <stop id="stop977" stop-opacity=".066667" offset=".79677"/>
   <stop id="stop981" stop-opacity=".031373" offset=".86607"/>
   <stop id="stop947" stop-opacity=".027451" offset=".88823"/>
   <stop id="stop983" stop-opacity=".023529" offset=".90482"/>
   <stop id="stop987" stop-opacity=".019608" offset=".91823"/>
   <stop id="stop991" stop-opacity=".011765" offset=".9452"/>
   <stop id="stop927-6" stop-opacity="0" offset="1"/>
  </radialGradient>
 </defs>
 <metadata id="metadata1713">
  <rdf:RDF>
   <cc:Work rdf:about="">
    <dc:format>image/svg+xml</dc:format>
    <dc:type rdf:resource="http://purl.org/dc/dcmitype/StillImage"/>
    <dc:title/>
   </cc:Work>
  </rdf:RDF>
 </metadata>
 <g id="layer1">
  <g id="g1702" transform="matrix(.97573 0 0 .97573 -65.817 -37.266)" fill="none" opacity=".295" stroke="#000" stroke-linecap="round" stroke-linejoin="round" stroke-opacity=".02">
   <rect id="rect1634" x="69.84" y="40.71" width="29.811" height="29.811" rx="6.6099" ry="6.6099" stroke-width=".1"/>
   <rect id="rect1638" x="69.84" y="40.71" width="29.811" height="29.811" rx="6.6099" ry="6.6099" stroke-width=".2"/>
   <rect id="rect1640" x="69.84" y="40.71" width="29.811" height="29.811" rx="6.6099" ry="6.6099" stroke-width=".3"/>
   <rect id="rect1642" x="69.84" y="40.71" width="29.811" height="29.811" rx="6.6099" ry="6.6099" stroke-width=".4"/>
   <rect id="rect1644" x="69.84" y="40.71" width="29.811" height="29.811" rx="6.6099" ry="6.6099" stroke-width=".5"/>
   <rect id="rect1646" x="69.84" y="40.71" width="29.811" height="29.811" rx="6.6099" ry="6.6099" stroke-width=".6"/>
   <rect id="rect1648" x="69.84" y="40.71" width="29.811" height="29.811" rx="6.6099" ry="6.6099" stroke-width=".7"/>
   <rect id="rect1650" x="69.84" y="40.71" width="29.811" height="29.811" rx="6.6099" ry="6.6099" stroke-width=".8"/>
   <rect id="rect1652" x="69.84" y="40.71" width="29.811" height="29.811" rx="6.6099" ry="6.6099"/>
   <rect id="rect1654" x="69.84" y="40.71" width="29.811" height="29.811" rx="6.6099" ry="6.6099" stroke-width="1.2"/>
   <rect id="rect1656" x="69.84" y="40.71" width="29.811" height="29.811" rx="6.6099" ry="6.6099" stroke-width="1.4"/>
   <rect id="rect1658" x="69.84" y="40.71" width="29.811" height="29.811" rx="6.6099" ry="6.6099" stroke-width="1.6"/>
   <rect id="rect1660" x="69.84" y="40.71" width="29.811" height="29.811" rx="6.6099" ry="6.6099" stroke-width="1.8"/>
   <rect id="rect1662" x="69.84" y="40.71" width="29.811" height="29.811" rx="6.6099" ry="6.6099" stroke-width="2"/>
   <rect id="rect1664" x="69.84" y="40.71" width="29.811" height="29.811" rx="6.6099" ry="6.6099" stroke-width="2.2"/>
   <rect id="rect1666" x="69.84" y="40.71" width="29.811" height="29.811" rx="6.6099" ry="6.6099" stroke-width="2.6"/>
   <rect id="rect1668" x="69.84" y="40.71" width="29.811" height="29.811" rx="6.6099" ry="6.6099" stroke-width="3"/>
   <rect id="rect1670" x="69.84" y="40.71" width="29.811" height="29.811" rx="6.6099" ry="6.6099" stroke-width="3.4"/>
   <rect id="rect1672" x="69.84" y="40.71" width="29.811" height="29.811" rx="6.6099" ry="6.6099" stroke-width="3.8"/>
   <rect id="rect1674" x="69.84" y="40.71" width="29.811" height="29.811" rx="6.6099" ry="6.6099" stroke-width="4.2"/>
   <rect id="rect1676" x="69.84" y="40.71" width="29.811" height="29.811" rx="6.6099" ry="6.6099" stroke-width="4.6"/>
   <rect id="rect1678" x="69.84" y="40.71" width="29.811" height="29.811" rx="6.6099" ry="6.6099" stroke-width="5"/>
  </g>
  <rect id="rect849" x="2.3276" y="2.4557" width="29.087" height="29.087" rx="6.4495" ry="6.4495" fill="url(#linearGradient1302)" stroke-linecap="round" stroke-linejoin="round" stroke-width="2.688"/>
  <rect id="rect1310" x="2.3276" y="2.4557" width="29.087" height="29.087" rx="6.4495" ry="6.4495" fill="url(#linearGradient1318)" stroke-linecap="round" stroke-linejoin="round" stroke-width="2.688"/>
  <rect id="rect1332" x="2.3276" y="2.4557" width="29.087" height="29.087" rx="6.4495" ry="6.4495" fill="url(#linearGradient1340)" stroke-linecap="round" stroke-linejoin="round" stroke-width="2.688"/>
  <rect id="rect1720" x="2.3276" y="2.4557" width="29.087" height="29.087" rx="6.4495" ry="6.4495" fill="url(#linearGradient1728)" stroke-linecap="round" stroke-linejoin="round" stroke-width="2.688"/>
  <rect id="rect1730" x="2.3276" y="2.4557" width="29.087" height="29.087" rx="6.4495" ry="6.4495" fill="url(#linearGradient1738)" stroke-linecap="round" stroke-linejoin="round" stroke-width="2.688"/>
  <rect id="rect1344" x="2.3276" y="2.4557" width="29.087" height="29.087" rx="6.4495" ry="6.4495" fill="url(#linearGradient1354)" stroke-linecap="round" stroke-linejoin="round" stroke-width="2.688"/>
  <rect id="rect1358" x="2.3276" y="2.4557" width="29.087" height="29.087" rx="6.4495" ry="6.4495" fill="url(#radialGradient1366)" stroke-linecap="round" stroke-linejoin="round" stroke-width="2.688"/>
  <rect id="rect1754" x="2.3276" y="2.4557" width="29.087" height="29.087" rx="6.4495" ry="6.4495" fill="url(#radialGradient1762)" stroke-linecap="round" stroke-linejoin="round" stroke-width="2.688"/>
  <rect id="rect1740" x="2.3276" y="2.4557" width="29.087" height="29.087" rx="6.4495" ry="6.4495" fill="url(#radialGradient1750)" stroke-linecap="round" stroke-linejoin="round" stroke-width="2.688"/>
  <circle id="circle923" cx="16.378" cy="18.904" r="15.141" fill="url(#radialGradient935-3)" opacity=".30512"/>
  <circle id="circle18" cx="16.491" cy="17.454" r="11.206" fill="#fff" stroke-width=".50938"/>
  <path id="path22" d="m22.264 17.454-8.8293 6.1126v-12.225l4.4146 3.0563z" fill="#5bc2ff" stroke-width="1.2891"/>
 </g>
</svg>
