<?xml version="1.0" encoding="UTF-8"?>
<svg width="128" height="128" viewBox="0 0 33.867 33.867" xmlns="http://www.w3.org/2000/svg" xmlns:xlink="http://www.w3.org/1999/xlink">
 <defs>
  <linearGradient id="d" x1="46.901" x2="46.901" y1="-3.462" y2="37.327" gradientTransform="translate(-352.7 22.718) scale(3.7795)" gradientUnits="userSpaceOnUse">
   <stop stop-color="#db9afa" offset="0"/>
   <stop stop-color="#d56efe" offset=".498"/>
   <stop stop-color="#fedc4c" offset=".498"/>
   <stop stop-color="#6c6c6c" offset=".498"/>
   <stop stop-color="#0b0b0b" offset="1"/>
  </linearGradient>
  <linearGradient id="e" x1="46.901" x2="46.901" y1="-3.462" y2="37.327" gradientTransform="rotate(240.14 10.413 177.46) scale(3.7795)" gradientUnits="userSpaceOnUse">
   <stop stop-color="#8b5bfc" offset="0"/>
   <stop stop-color="#e9a0fe" offset=".498"/>
   <stop stop-color="#fedc4c" offset=".498"/>
   <stop stop-color="#666665" offset=".498"/>
   <stop stop-color="#161615" offset="1"/>
  </linearGradient>
  <linearGradient id="f" x1="46.901" x2="46.901" y1="-3.462" y2="37.327" gradientTransform="scale(3.7795 -3.7795) rotate(59.671 35.778 -84.36)" gradientUnits="userSpaceOnUse">
   <stop stop-color="#8b5cfc" offset="0"/>
   <stop stop-color="#e49cfe" offset=".498"/>
   <stop stop-color="#fedc4c" offset=".498"/>
   <stop stop-color="#6c6c6c" offset=".498"/>
   <stop stop-color="#161615" offset="1"/>
  </linearGradient>
 </defs>
 <g transform="translate(-65.748 -37.203) scale(.97573)" fill="none" opacity=".29677" stroke="#000" stroke-linecap="round" stroke-linejoin="round" stroke-opacity=".02">
  <rect x="69.84" y="40.71" width="29.811" height="29.811" rx="6.61" ry="6.61" stroke-width=".1"/>
  <rect x="69.84" y="40.71" width="29.811" height="29.811" rx="6.61" ry="6.61" stroke-width=".2"/>
  <rect x="69.84" y="40.71" width="29.811" height="29.811" rx="6.61" ry="6.61" stroke-width=".3"/>
  <rect x="69.84" y="40.71" width="29.811" height="29.811" rx="6.61" ry="6.61" stroke-width=".4"/>
  <rect x="69.84" y="40.71" width="29.811" height="29.811" rx="6.61" ry="6.61" stroke-width=".5"/>
  <rect x="69.84" y="40.71" width="29.811" height="29.811" rx="6.61" ry="6.61" stroke-width=".6"/>
  <rect x="69.84" y="40.71" width="29.811" height="29.811" rx="6.61" ry="6.61" stroke-width=".7"/>
  <rect x="69.84" y="40.71" width="29.811" height="29.811" rx="6.61" ry="6.61" stroke-width=".8"/>
  <rect x="69.84" y="40.71" width="29.811" height="29.811" rx="6.61" ry="6.61"/>
  <rect x="69.84" y="40.71" width="29.811" height="29.811" rx="6.61" ry="6.61" stroke-width="1.2"/>
  <rect x="69.84" y="40.71" width="29.811" height="29.811" rx="6.61" ry="6.61" stroke-width="1.4"/>
  <rect x="69.84" y="40.71" width="29.811" height="29.811" rx="6.61" ry="6.61" stroke-width="1.6"/>
  <rect x="69.84" y="40.71" width="29.811" height="29.811" rx="6.61" ry="6.61" stroke-width="1.8"/>
  <rect x="69.84" y="40.71" width="29.811" height="29.811" rx="6.61" ry="6.61" stroke-width="2"/>
  <rect x="69.84" y="40.71" width="29.811" height="29.811" rx="6.61" ry="6.61" stroke-width="2.2"/>
  <rect x="69.84" y="40.71" width="29.811" height="29.811" rx="6.61" ry="6.61" stroke-width="2.6"/>
  <rect x="69.84" y="40.71" width="29.811" height="29.811" rx="6.61" ry="6.61" stroke-width="3"/>
  <rect x="69.84" y="40.71" width="29.811" height="29.811" rx="6.61" ry="6.61" stroke-width="3.4"/>
  <rect x="69.84" y="40.71" width="29.811" height="29.811" rx="6.61" ry="6.61" stroke-width="3.8"/>
  <rect x="69.84" y="40.71" width="29.811" height="29.811" rx="6.61" ry="6.61" stroke-width="4.2"/>
  <rect x="69.84" y="40.71" width="29.811" height="29.811" rx="6.61" ry="6.61" stroke-width="4.6"/>
  <rect x="69.84" y="40.71" width="29.811" height="29.811" rx="6.61" ry="6.61" stroke-width="5"/>
 </g>
 <path transform="translate(62.573 -5.861) scale(.26458)" d="M-203.105 31.746c-.519 0-1.031.021-1.541.053l32.132 54.916 32.133-54.916a24.901 24.901 0 0 0-1.539-.053zm30.591 54.969-32.132 54.916c.51.031 1.022.053 1.54.053h61.186c.518 0 1.03-.022 1.54-.053z" fill="url(#d)"/>
 <path transform="translate(62.573 -5.861) scale(.26458)" d="m-141.033 31.768-31.479 54.947 54.967.457V56.123a24.317 24.317 0 0 0-23.488-24.355zm-31.479 54.947-54.97-.457v31.049c0 13.206 10.4 23.89 23.49 24.355z" fill="url(#e)"/>
 <path transform="translate(62.573 -5.861) scale(.26458)" d="m-203.4 31.754a24.32 24.32 0 0 0-24.08 24.369v30.596l54.97-4e-3zm30.89 54.96 30.889 54.962a24.318 24.318 0 0 0 24.078-24.37v-30.594z" fill="url(#f)"/>
</svg>
