<?xml version="1.0" encoding="UTF-8"?>
<svg id="svg2117" width="128" height="128" version="1.1" viewBox="0 0 33.867 33.867" xmlns="http://www.w3.org/2000/svg" xmlns:cc="http://creativecommons.org/ns#" xmlns:dc="http://purl.org/dc/elements/1.1/" xmlns:rdf="http://www.w3.org/1999/02/22-rdf-syntax-ns#" xmlns:xlink="http://www.w3.org/1999/xlink">
 <defs id="defs2111">
  <radialGradient id="radialGradient1320" cx="15.927" cy="4.4084" r="14.544" gradientTransform="matrix(3.3901 0 0 1.6942 -38.068 -3.0602)" gradientUnits="userSpaceOnUse">
   <stop id="stop1626" stop-color="#ff704c" offset="0"/>
   <stop id="stop1628" stop-color="#e9330d" offset="1"/>
  </radialGradient>
 </defs>
 <metadata id="metadata2114">
  <rdf:RDF>
   <cc:Work rdf:about="">
    <dc:format>image/svg+xml</dc:format>
    <dc:type rdf:resource="http://purl.org/dc/dcmitype/StillImage"/>
    <dc:title/>
   </cc:Work>
  </rdf:RDF>
 </metadata>
 <g id="layer1">
  <g id="g1702" transform="matrix(.97573 0 0 .97573 -65.861 -37.234)" fill="none" opacity=".13962" stroke="#000" stroke-linecap="round" stroke-linejoin="round" stroke-opacity=".02">
   <rect id="rect1634" x="69.84" y="40.71" width="29.811" height="29.811" rx="6.6099" ry="6.6099" stroke-width=".1"/>
   <rect id="rect1638" x="69.84" y="40.71" width="29.811" height="29.811" rx="6.6099" ry="6.6099" stroke-width=".2"/>
   <rect id="rect1640" x="69.84" y="40.71" width="29.811" height="29.811" rx="6.6099" ry="6.6099" stroke-width=".3"/>
   <rect id="rect1642" x="69.84" y="40.71" width="29.811" height="29.811" rx="6.6099" ry="6.6099" stroke-width=".4"/>
   <rect id="rect1644" x="69.84" y="40.71" width="29.811" height="29.811" rx="6.6099" ry="6.6099" stroke-width=".5"/>
   <rect id="rect1646" x="69.84" y="40.71" width="29.811" height="29.811" rx="6.6099" ry="6.6099" stroke-width=".6"/>
   <rect id="rect1648" x="69.84" y="40.71" width="29.811" height="29.811" rx="6.6099" ry="6.6099" stroke-width=".7"/>
   <rect id="rect1650" x="69.84" y="40.71" width="29.811" height="29.811" rx="6.6099" ry="6.6099" stroke-width=".8"/>
   <rect id="rect1652" x="69.84" y="40.71" width="29.811" height="29.811" rx="6.6099" ry="6.6099"/>
   <rect id="rect1654" x="69.84" y="40.71" width="29.811" height="29.811" rx="6.6099" ry="6.6099" stroke-width="1.2"/>
   <rect id="rect1656" x="69.84" y="40.71" width="29.811" height="29.811" rx="6.6099" ry="6.6099" stroke-width="1.4"/>
   <rect id="rect1658" x="69.84" y="40.71" width="29.811" height="29.811" rx="6.6099" ry="6.6099" stroke-width="1.6"/>
   <rect id="rect1660" x="69.84" y="40.71" width="29.811" height="29.811" rx="6.6099" ry="6.6099" stroke-width="1.8"/>
   <rect id="rect1662" x="69.84" y="40.71" width="29.811" height="29.811" rx="6.6099" ry="6.6099" stroke-width="2"/>
   <rect id="rect1664" x="69.84" y="40.71" width="29.811" height="29.811" rx="6.6099" ry="6.6099" stroke-width="2.2"/>
   <rect id="rect1666" x="69.84" y="40.71" width="29.811" height="29.811" rx="6.6099" ry="6.6099" stroke-width="2.6"/>
   <rect id="rect1668" x="69.84" y="40.71" width="29.811" height="29.811" rx="6.6099" ry="6.6099" stroke-width="3"/>
   <rect id="rect1670" x="69.84" y="40.71" width="29.811" height="29.811" rx="6.6099" ry="6.6099" stroke-width="3.4"/>
   <rect id="rect1672" x="69.84" y="40.71" width="29.811" height="29.811" rx="6.6099" ry="6.6099" stroke-width="3.8"/>
   <rect id="rect1674" x="69.84" y="40.71" width="29.811" height="29.811" rx="6.6099" ry="6.6099" stroke-width="4.2"/>
   <rect id="rect1676" x="69.84" y="40.71" width="29.811" height="29.811" rx="6.6099" ry="6.6099" stroke-width="4.6"/>
   <rect id="rect1678" x="69.84" y="40.71" width="29.811" height="29.811" rx="6.6099" ry="6.6099" stroke-width="5"/>
  </g>
  <rect id="rect910" x="2.2835" y="2.4875" width="29.087" height="29.087" rx="6.4495" ry="6.4495" fill="url(#radialGradient1320)" stroke-linecap="round" stroke-linejoin="round" stroke-width="2.6877"/>
  <g id="g1186" transform="matrix(.46244 0 0 .46244 2.954 3.2608)" stroke-width=".66667">
   <path id="path4" d="m30.09 9.7788a3.882 3.8466 0 0 0-2.0318 0.51383l-14.118 8.077a3.882 3.8466 0 0 0-1.9408 3.3309v16.154a3.882 3.8466 0 0 0 1.9408 3.3309l14.118 8.077a3.882 3.8466 0 0 0 3.8816 0l14.119-8.077a3.882 3.8466 0 0 0 1.9408-3.3309v-16.154a3.882 3.8466 0 0 0-1.9408-3.3309l-14.119-8.077a3.882 3.8466 0 0 0-1.8498-0.51383z" fill="#fff"/>
   <path id="path6" d="m30.091 9.7796a3.882 3.8466 0 0 0-2.0317 0.51339l-14.118 8.0766a3.882 3.8466 0 0 0-1.6449 1.8713l17.704 8.5844 17.706-8.5863a3.882 3.8466 0 0 0-1.6468-1.8694l-14.12-8.0766a3.882 3.8466 0 0 0-1.8485-0.51339z" fill="#dcdcdc" opacity=".3"/>
   <path id="path8" d="m46.059 18.37a3.882 3.8466 0 0 1 0.18133 0.11161 3.882 3.8466 0 0 0-0.18133-0.11161zm0.23314 0.14881a3.882 3.8466 0 0 1 0.25719 0.18601 3.882 3.8466 0 0 0-0.25719-0.18601zm0.36081 0.2753a3.882 3.8466 0 0 1 0.18688 0.16741 3.882 3.8466 0 0 0-0.18688-0.16741zm0.24609 0.22879a3.882 3.8466 0 0 1 0.21094 0.23066 3.882 3.8466 0 0 0-0.21094-0.23066zm0.21094 0.23066a3.882 3.8466 0 0 1 0.42927 0.6343 3.882 3.8466 0 0 0-0.42927-0.6343zm0.44407 0.66592a3.882 3.8466 0 0 1 0.15173 0.31994 3.882 3.8466 0 0 0-0.15173-0.31994zm0.15173 0.31994-17.706 8.5863v20.949a3.882 3.8466 0 0 0 1.9391-0.51153l14.12-8.0766a3.882 3.8466 0 0 0 1.941-3.3315v-16.153a3.882 3.8466 0 0 0-0.29421-1.4621z" fill="#c8c8c8" opacity=".3"/>
   <path id="path18" d="m30.09 9.7791a3.882 3.8466 0 0 0-2.0313 0.51302l-14.117 8.0781a3.882 3.8466 0 0 0-1.9414 3.3307v0.66667a3.882 3.8466 0 0 1 1.9414-3.3307l14.117-8.0781a3.882 3.8466 0 0 1 2.0313-0.51302 3.882 3.8466 0 0 1 1.8503 0.51302l14.118 8.0781a3.882 3.8466 0 0 1 1.9414 3.3307v-0.66667a3.882 3.8466 0 0 0-1.9414-3.3307l-14.118-8.0781a3.882 3.8466 0 0 0-1.8503-0.51302z" fill="#fff" opacity=".2"/>
  </g>
 </g>
</svg>
