<?xml version="1.0" encoding="UTF-8"?>
<svg id="svg1443" width="128" height="128" version="1.1" viewBox="0 0 33.867 33.867" xmlns="http://www.w3.org/2000/svg" xmlns:cc="http://creativecommons.org/ns#" xmlns:dc="http://purl.org/dc/elements/1.1/" xmlns:rdf="http://www.w3.org/1999/02/22-rdf-syntax-ns#" xmlns:xlink="http://www.w3.org/1999/xlink">
 <defs id="defs1437">
  <linearGradient id="linearGradient1632" x1="132.21" x2="132.21" y1="42.152" y2="70.68" gradientTransform="matrix(.97573 0 0 .97573 -111.77 -37.183)" gradientUnits="userSpaceOnUse">
   <stop id="stop1626" stop-color="#d27cef" offset="0"/>
   <stop id="stop1628" stop-color="#565bdc" offset="1"/>
  </linearGradient>
  <linearGradient id="linearGradient894" x1="69.54" x2="72.93" y1="37.162" y2="183.61" gradientUnits="userSpaceOnUse">
   <stop id="stop888" stop-color="#fff" offset="0"/>
   <stop id="stop890" stop-color="#7b65e2" offset="1"/>
  </linearGradient>
 </defs>
 <metadata id="metadata1440">
  <rdf:RDF>
   <cc:Work rdf:about="">
    <dc:format>image/svg+xml</dc:format>
    <dc:type rdf:resource="http://purl.org/dc/dcmitype/StillImage"/>
    <dc:title/>
   </cc:Work>
  </rdf:RDF>
 </metadata>
 <g id="layer1">
  <g id="g1702" transform="matrix(.97573 0 0 .97573 -65.737 -37.183)" fill="none" opacity=".295" stroke="#000" stroke-linecap="round" stroke-linejoin="round" stroke-opacity=".02">
   <rect id="rect1634" x="69.84" y="40.71" width="29.811" height="29.811" rx="6.6099" ry="6.6099" stroke-width=".1"/>
   <rect id="rect1638" x="69.84" y="40.71" width="29.811" height="29.811" rx="6.6099" ry="6.6099" stroke-width=".2"/>
   <rect id="rect1640" x="69.84" y="40.71" width="29.811" height="29.811" rx="6.6099" ry="6.6099" stroke-width=".3"/>
   <rect id="rect1642" x="69.84" y="40.71" width="29.811" height="29.811" rx="6.6099" ry="6.6099" stroke-width=".4"/>
   <rect id="rect1644" x="69.84" y="40.71" width="29.811" height="29.811" rx="6.6099" ry="6.6099" stroke-width=".5"/>
   <rect id="rect1646" x="69.84" y="40.71" width="29.811" height="29.811" rx="6.6099" ry="6.6099" stroke-width=".6"/>
   <rect id="rect1648" x="69.84" y="40.71" width="29.811" height="29.811" rx="6.6099" ry="6.6099" stroke-width=".7"/>
   <rect id="rect1650" x="69.84" y="40.71" width="29.811" height="29.811" rx="6.6099" ry="6.6099" stroke-width=".8"/>
   <rect id="rect1652" x="69.84" y="40.71" width="29.811" height="29.811" rx="6.6099" ry="6.6099"/>
   <rect id="rect1654" x="69.84" y="40.71" width="29.811" height="29.811" rx="6.6099" ry="6.6099" stroke-width="1.2"/>
   <rect id="rect1656" x="69.84" y="40.71" width="29.811" height="29.811" rx="6.6099" ry="6.6099" stroke-width="1.4"/>
   <rect id="rect1658" x="69.84" y="40.71" width="29.811" height="29.811" rx="6.6099" ry="6.6099" stroke-width="1.6"/>
   <rect id="rect1660" x="69.84" y="40.71" width="29.811" height="29.811" rx="6.6099" ry="6.6099" stroke-width="1.8"/>
   <rect id="rect1662" x="69.84" y="40.71" width="29.811" height="29.811" rx="6.6099" ry="6.6099" stroke-width="2"/>
   <rect id="rect1664" x="69.84" y="40.71" width="29.811" height="29.811" rx="6.6099" ry="6.6099" stroke-width="2.2"/>
   <rect id="rect1666" x="69.84" y="40.71" width="29.811" height="29.811" rx="6.6099" ry="6.6099" stroke-width="2.6"/>
   <rect id="rect1668" x="69.84" y="40.71" width="29.811" height="29.811" rx="6.6099" ry="6.6099" stroke-width="3"/>
   <rect id="rect1670" x="69.84" y="40.71" width="29.811" height="29.811" rx="6.6099" ry="6.6099" stroke-width="3.4"/>
   <rect id="rect1672" x="69.84" y="40.71" width="29.811" height="29.811" rx="6.6099" ry="6.6099" stroke-width="3.8"/>
   <rect id="rect1674" x="69.84" y="40.71" width="29.811" height="29.811" rx="6.6099" ry="6.6099" stroke-width="4.2"/>
   <rect id="rect1676" x="69.84" y="40.71" width="29.811" height="29.811" rx="6.6099" ry="6.6099" stroke-width="4.6"/>
   <rect id="rect1678" x="69.84" y="40.71" width="29.811" height="29.811" rx="6.6099" ry="6.6099" stroke-width="5"/>
  </g>
  <rect id="rect849" x="2.4074" y="2.5392" width="29.087" height="29.087" rx="6.4495" ry="6.4495" fill="url(#linearGradient1632)" stroke-linecap="round" stroke-linejoin="round" stroke-width="2.6877"/>
  <path id="path896" d="m9.824 12.837-2.5838 9.8423h1.4831l0.62839-2.5146h2.6991l0.62838 2.5146h1.4676l-2.5735-9.8423zm5.2829 0v9.8423h2.8655c0.67691 0 1.2766-0.19999 1.7994-0.60048 0.52612-0.40049 0.93162-0.97778 1.2165-1.7322 0.28819-0.75907 0.43202-1.6467 0.43202-2.6619 0-1.56-0.32633-2.7564-0.97978-3.59-0.65346-0.83823-1.5769-1.2578-2.7699-1.2578zm7.4342 0v9.8423h5.2834v-1.5927h-3.8003v-8.2496zm-11.842 1.5162 0.32143 1.432 0.69866 2.8288h-2.0355c0.52946-2.1422 0.81763-3.3199 0.86455-3.5342 0.04691-0.21421 0.09728-0.45647 0.1509-0.72657zm5.8911 0.07648h1.0506c0.73388 0 1.2985 0.27937 1.694 0.83819 0.39542 0.55416 0.59273 1.3598 0.59273 2.4169 0 1.0478-0.18744 1.8771-0.56276 2.4872-0.37532 0.61005-0.88155 0.91467-1.5183 0.91467h-1.2563z" fill="#590690" fill-opacity=".17905" stroke-width=".060677"/>
  <path id="path877" transform="scale(.26458)" d="m34.934 45.965-9.7656 37.199h5.6055l2.375-9.5039h10.201l2.375 9.5039h5.5469l-9.7266-37.199h-6.6113zm19.967 0v37.199h10.83c2.5584 0 4.825-0.75587 6.8008-2.2695 1.9885-1.5137 3.5211-3.6956 4.5977-6.5469 1.0892-2.8689 1.6328-6.2236 1.6328-10.061 0-5.8962-1.2334-10.418-3.7031-13.568-2.4698-3.1681-5.9599-4.7539-10.469-4.7539h-9.6895zm28.098 0v37.199h19.969v-6.0195h-14.363v-31.18h-5.6055zm-44.758 5.7305 1.2148 5.4121 2.6406 10.691h-7.6934c2.0011-8.0963 3.0903-12.548 3.2676-13.357 0.1773-0.80963 0.36765-1.7253 0.57031-2.7461zm22.266 0.28906h3.9707c2.7737 0 4.9078 1.0559 6.4023 3.168 1.4945 2.0945 2.2402 5.1394 2.2402 9.1348 0 3.9602-0.70843 7.0947-2.127 9.4004-1.4185 2.3057-3.3319 3.457-5.7383 3.457h-4.748v-25.16z" fill="url(#linearGradient894)" stroke-width=".22933"/>
 </g>
</svg>
