<?xml version="1.0" encoding="UTF-8"?>
<svg id="svg1576" width="128" height="128" version="1.1" viewBox="0 0 33.867 33.867" xmlns="http://www.w3.org/2000/svg" xmlns:cc="http://creativecommons.org/ns#" xmlns:dc="http://purl.org/dc/elements/1.1/" xmlns:rdf="http://www.w3.org/1999/02/22-rdf-syntax-ns#" xmlns:xlink="http://www.w3.org/1999/xlink">
 <defs id="defs1570">
  <radialGradient id="radialGradient1506" cx="17.081" cy="3.8306" r="14.544" gradientTransform="matrix(2.7895 0 0 1.8353 -30.627 -3.2606)" gradientUnits="userSpaceOnUse">
   <stop id="stop4671" stop-color="#5bced4" offset="0"/>
   <stop id="stop4673" stop-color="#24aaca" offset="1"/>
  </radialGradient>
  <linearGradient id="linearGradient2894" x1="16.932" x2="16.932" y1="5.8012" y2="29.238" gradientTransform="translate(-.060715 -.060873)" gradientUnits="userSpaceOnUse">
   <stop id="stop2888" stop-color="#151515" offset="0"/>
   <stop id="stop2890" stop-color="#262626" offset="1"/>
  </linearGradient>
 </defs>
 <metadata id="metadata1573">
  <rdf:RDF>
   <cc:Work rdf:about="">
    <dc:format>image/svg+xml</dc:format>
    <dc:type rdf:resource="http://purl.org/dc/dcmitype/StillImage"/>
    <dc:title/>
   </cc:Work>
  </rdf:RDF>
 </metadata>
 <g id="layer1">
  <g id="g1702" transform="matrix(.97573 0 0 .97573 -65.809 -37.264)" fill="none" opacity=".295" stroke="#000" stroke-linecap="round" stroke-linejoin="round" stroke-opacity=".02">
   <rect id="rect1634" x="69.84" y="40.71" width="29.811" height="29.811" rx="6.6099" ry="6.6099" stroke-width=".1"/>
   <rect id="rect1638" x="69.84" y="40.71" width="29.811" height="29.811" rx="6.6099" ry="6.6099" stroke-width=".2"/>
   <rect id="rect1640" x="69.84" y="40.71" width="29.811" height="29.811" rx="6.6099" ry="6.6099" stroke-width=".3"/>
   <rect id="rect1642" x="69.84" y="40.71" width="29.811" height="29.811" rx="6.6099" ry="6.6099" stroke-width=".4"/>
   <rect id="rect1644" x="69.84" y="40.71" width="29.811" height="29.811" rx="6.6099" ry="6.6099" stroke-width=".5"/>
   <rect id="rect1646" x="69.84" y="40.71" width="29.811" height="29.811" rx="6.6099" ry="6.6099" stroke-width=".6"/>
   <rect id="rect1648" x="69.84" y="40.71" width="29.811" height="29.811" rx="6.6099" ry="6.6099" stroke-width=".7"/>
   <rect id="rect1650" x="69.84" y="40.71" width="29.811" height="29.811" rx="6.6099" ry="6.6099" stroke-width=".8"/>
   <rect id="rect1652" x="69.84" y="40.71" width="29.811" height="29.811" rx="6.6099" ry="6.6099"/>
   <rect id="rect1654" x="69.84" y="40.71" width="29.811" height="29.811" rx="6.6099" ry="6.6099" stroke-width="1.2"/>
   <rect id="rect1656" x="69.84" y="40.71" width="29.811" height="29.811" rx="6.6099" ry="6.6099" stroke-width="1.4"/>
   <rect id="rect1658" x="69.84" y="40.71" width="29.811" height="29.811" rx="6.6099" ry="6.6099" stroke-width="1.6"/>
   <rect id="rect1660" x="69.84" y="40.71" width="29.811" height="29.811" rx="6.6099" ry="6.6099" stroke-width="1.8"/>
   <rect id="rect1662" x="69.84" y="40.71" width="29.811" height="29.811" rx="6.6099" ry="6.6099" stroke-width="2"/>
   <rect id="rect1664" x="69.84" y="40.71" width="29.811" height="29.811" rx="6.6099" ry="6.6099" stroke-width="2.2"/>
   <rect id="rect1666" x="69.84" y="40.71" width="29.811" height="29.811" rx="6.6099" ry="6.6099" stroke-width="2.6"/>
   <rect id="rect1668" x="69.84" y="40.71" width="29.811" height="29.811" rx="6.6099" ry="6.6099" stroke-width="3"/>
   <rect id="rect1670" x="69.84" y="40.71" width="29.811" height="29.811" rx="6.6099" ry="6.6099" stroke-width="3.4"/>
   <rect id="rect1672" x="69.84" y="40.71" width="29.811" height="29.811" rx="6.6099" ry="6.6099" stroke-width="3.8"/>
   <rect id="rect1674" x="69.84" y="40.71" width="29.811" height="29.811" rx="6.6099" ry="6.6099" stroke-width="4.2"/>
   <rect id="rect1676" x="69.84" y="40.71" width="29.811" height="29.811" rx="6.6099" ry="6.6099" stroke-width="4.6"/>
   <rect id="rect1678" x="69.84" y="40.71" width="29.811" height="29.811" rx="6.6099" ry="6.6099" stroke-width="5"/>
  </g>
  <rect id="rect849" x="2.3355" y="2.4577" width="29.087" height="29.087" rx="6.4495" ry="6.4495" fill="url(#radialGradient1506)" stroke-linecap="round" stroke-linejoin="round" stroke-width="2.688"/>
  <rect id="rect2886" x="4.2886" y="4.4108" width="25.181" height="25.181" rx="5.0418" ry="5.0418" fill="url(#linearGradient2894)" opacity=".95" stroke-linecap="round" stroke-linejoin="round" stroke-width="2.688"/>
  <path id="path4037-2" d="m14.03 10.088c-0.75983 0-1.3605 0.25405-1.8014 0.76171-0.44097 0.49826-0.66146 1.1987-0.66146 2.1012 0 0.46066 0.05778 0.85538 0.17312 1.1844 0.11533 0.32904 0.26131 0.61091 0.4377 0.84594 0.18317 0.22563 0.37325 0.41844 0.56999 0.57826 0.19674 0.15042 0.37972 0.28199 0.54932 0.39481 0.27137 0.17862 0.51213 0.34764 0.72244 0.50746 0.21031 0.15042 0.37656 0.3154 0.49868 0.49403 0.1289 0.17862 0.19327 0.39471 0.19327 0.64854 0 0.31024-0.08109 0.56884-0.24391 0.77566-0.15604 0.19742-0.42417 0.29611-0.80408 0.29611-0.36635 0-0.73585-0.08451-1.109-0.25373-0.36635-0.17862-0.72268-0.37143-1.0687-0.57826v1.988c0.60379 0.40425 1.2891 0.60668 2.0557 0.60668 0.85481 0 1.5127-0.26315 1.974-0.78962 0.46811-0.53586 0.70228-1.2504 0.70228-2.1435 0-0.52646-0.07147-0.96826-0.21394-1.3255-0.14247-0.35724-0.34572-0.66746-0.6103-0.93069-0.2578-0.26323-0.57358-0.51728-0.94671-0.76171-0.45454-0.30084-0.79718-0.55488-1.0278-0.76171-0.23066-0.20682-0.34572-0.4887-0.34572-0.84594 0-0.30084 0.07806-0.54526 0.2341-0.73329 0.15604-0.18802 0.37956-0.28215 0.67128-0.28215 0.27815 0 0.54984 0.05213 0.81442 0.15555 0.26458 0.10341 0.56313 0.24864 0.89555 0.43667l0.49868-1.664c-0.37313-0.22563-0.73301-0.3992-1.079-0.52142-0.33921-0.12222-0.69857-0.18345-1.0785-0.18345zm5.1899 2.3688c-0.66485 0-1.1874 0.35273-1.5673 1.0578-0.37992 0.70509-0.56947 1.6874-0.56947 2.9471 0 1.2504 0.18297 2.2281 0.54932 2.9332 0.37313 0.69568 0.88861 1.0439 1.5467 1.0439 0.33242 0 0.63097-0.08958 0.89555-0.2682 0.26458-0.17862 0.49217-0.47012 0.68213-0.87436h0.04031c-0.0068 0.13162-0.01692 0.28243-0.03049 0.45165-0.0068 0.16922-0.01034 0.33369-0.01034 0.49351v0.15503c0 1.1657-0.38977 1.7487-1.17 1.7487-0.75983 0-1.4826-0.19736-2.1678-0.59221v1.6779c0.31886 0.16922 0.64478 0.28663 0.9772 0.35243 0.33921 0.06581 0.70568 0.0987 1.0992 0.0987 0.91586 0 1.6077-0.28643 2.0758-0.8599 0.46811-0.57347 0.70228-1.4105 0.70228-2.5104v-7.7137h-1.2826l-0.12196 0.98754h-0.04082c-0.3867-0.75209-0.92245-1.1286-1.6077-1.1286zm0.47852 1.7064c0.40705 0 0.70204 0.17864 0.88522 0.53588 0.18317 0.35724 0.2744 0.94985 0.2744 1.7772v0.25373c0 0.76149-0.09478 1.2974-0.28474 1.6077-0.18317 0.30084-0.46803 0.45114-0.85473 0.45114-0.72591 0-1.0888-0.76618-1.0888-2.2986 0-1.5512 0.35633-2.327 1.0687-2.327z" fill="#3bb9ce"/>
 </g>
</svg>
