<?xml version="1.0" encoding="UTF-8"?>
<svg id="svg1576" width="128" height="128" version="1.1" viewBox="0 0 33.867 33.867" xmlns="http://www.w3.org/2000/svg" xmlns:cc="http://creativecommons.org/ns#" xmlns:dc="http://purl.org/dc/elements/1.1/" xmlns:rdf="http://www.w3.org/1999/02/22-rdf-syntax-ns#" xmlns:xlink="http://www.w3.org/1999/xlink">
 <defs id="defs1570">
  <radialGradient id="radialGradient1506" cx="17.081" cy="3.8306" r="14.544" gradientTransform="matrix(2.242 0 0 1.8353 -21.287 -3.2131)" gradientUnits="userSpaceOnUse">
   <stop id="stop4671" stop-color="#c99deb" offset="0"/>
   <stop id="stop4673" stop-color="#af6ee1" offset="1"/>
  </radialGradient>
  <linearGradient id="linearGradient2894" x1="16.932" x2="16.932" y1="5.8012" y2="29.238" gradientTransform="translate(-.072479 -.013344)" gradientUnits="userSpaceOnUse">
   <stop id="stop2888" stop-color="#151515" offset="0"/>
   <stop id="stop2890" stop-color="#262626" offset="1"/>
  </linearGradient>
 </defs>
 <metadata id="metadata1573">
  <rdf:RDF>
   <cc:Work rdf:about="">
    <dc:format>image/svg+xml</dc:format>
    <dc:type rdf:resource="http://purl.org/dc/dcmitype/StillImage"/>
    <dc:title/>
   </cc:Work>
  </rdf:RDF>
 </metadata>
 <g id="layer1">
  <g id="g1702" transform="matrix(.97573 0 0 .97573 -65.821 -37.216)" fill="none" opacity=".295" stroke="#000" stroke-linecap="round" stroke-linejoin="round" stroke-opacity=".02">
   <rect id="rect1634" x="69.84" y="40.71" width="29.811" height="29.811" rx="6.6099" ry="6.6099" stroke-width=".1"/>
   <rect id="rect1638" x="69.84" y="40.71" width="29.811" height="29.811" rx="6.6099" ry="6.6099" stroke-width=".2"/>
   <rect id="rect1640" x="69.84" y="40.71" width="29.811" height="29.811" rx="6.6099" ry="6.6099" stroke-width=".3"/>
   <rect id="rect1642" x="69.84" y="40.71" width="29.811" height="29.811" rx="6.6099" ry="6.6099" stroke-width=".4"/>
   <rect id="rect1644" x="69.84" y="40.71" width="29.811" height="29.811" rx="6.6099" ry="6.6099" stroke-width=".5"/>
   <rect id="rect1646" x="69.84" y="40.71" width="29.811" height="29.811" rx="6.6099" ry="6.6099" stroke-width=".6"/>
   <rect id="rect1648" x="69.84" y="40.71" width="29.811" height="29.811" rx="6.6099" ry="6.6099" stroke-width=".7"/>
   <rect id="rect1650" x="69.84" y="40.71" width="29.811" height="29.811" rx="6.6099" ry="6.6099" stroke-width=".8"/>
   <rect id="rect1652" x="69.84" y="40.71" width="29.811" height="29.811" rx="6.6099" ry="6.6099"/>
   <rect id="rect1654" x="69.84" y="40.71" width="29.811" height="29.811" rx="6.6099" ry="6.6099" stroke-width="1.2"/>
   <rect id="rect1656" x="69.84" y="40.71" width="29.811" height="29.811" rx="6.6099" ry="6.6099" stroke-width="1.4"/>
   <rect id="rect1658" x="69.84" y="40.71" width="29.811" height="29.811" rx="6.6099" ry="6.6099" stroke-width="1.6"/>
   <rect id="rect1660" x="69.84" y="40.71" width="29.811" height="29.811" rx="6.6099" ry="6.6099" stroke-width="1.8"/>
   <rect id="rect1662" x="69.84" y="40.71" width="29.811" height="29.811" rx="6.6099" ry="6.6099" stroke-width="2"/>
   <rect id="rect1664" x="69.84" y="40.71" width="29.811" height="29.811" rx="6.6099" ry="6.6099" stroke-width="2.2"/>
   <rect id="rect1666" x="69.84" y="40.71" width="29.811" height="29.811" rx="6.6099" ry="6.6099" stroke-width="2.6"/>
   <rect id="rect1668" x="69.84" y="40.71" width="29.811" height="29.811" rx="6.6099" ry="6.6099" stroke-width="3"/>
   <rect id="rect1670" x="69.84" y="40.71" width="29.811" height="29.811" rx="6.6099" ry="6.6099" stroke-width="3.4"/>
   <rect id="rect1672" x="69.84" y="40.71" width="29.811" height="29.811" rx="6.6099" ry="6.6099" stroke-width="3.8"/>
   <rect id="rect1674" x="69.84" y="40.71" width="29.811" height="29.811" rx="6.6099" ry="6.6099" stroke-width="4.2"/>
   <rect id="rect1676" x="69.84" y="40.71" width="29.811" height="29.811" rx="6.6099" ry="6.6099" stroke-width="4.6"/>
   <rect id="rect1678" x="69.84" y="40.71" width="29.811" height="29.811" rx="6.6099" ry="6.6099" stroke-width="5"/>
  </g>
  <rect id="rect849" x="2.3238" y="2.5052" width="29.087" height="29.087" rx="6.4495" ry="6.4495" fill="url(#radialGradient1506)" stroke-linecap="round" stroke-linejoin="round" stroke-width="2.688"/>
  <rect id="rect2886" x="4.2769" y="4.4583" width="25.181" height="25.181" rx="5.0418" ry="5.0418" fill="url(#linearGradient2894)" opacity=".95" stroke-linecap="round" stroke-linejoin="round" stroke-width="2.688"/>
  <path id="path3163-6" d="m11.623 11.855-3.6008 10.245h2.3291l0.74311-2.4293h3.715l0.74311 2.4293h2.3291l-3.6153-10.245zm1.3291 1.586c0.04763 0.19052 0.10931 0.41459 0.18552 0.67179 0.07621 0.2572 0.1522 0.50938 0.22841 0.75706 0.07621 0.24768 0.13841 0.45249 0.18604 0.61443l0.74311 2.3725h-2.6577l0.72864-2.3725c0.0381-0.10479 0.09041-0.28097 0.15709-0.52865 0.07621-0.2572 0.1522-0.5237 0.22841-0.79995 0.08573-0.28578 0.15287-0.52416 0.2005-0.71468zm9.2589 0.71468c-0.7335 0-1.3766 0.1525-1.9291 0.45734-0.55251 0.30483-0.98582 0.76183-1.3002 1.3715-0.30483 0.60014-0.45734 1.3577-0.45734 2.2722 0 0.89545 0.17176 1.6382 0.5147 2.2288 0.34294 0.59061 0.81424 1.0338 1.4144 1.3291 0.60014 0.28578 1.2911 0.4284 2.0722 0.4284 0.60014 0 1.1094-0.04737 1.5286-0.14263 0.42867-0.08573 0.83387-0.22392 1.2149-0.41444v-1.6433c-0.4382 0.20957-0.86214 0.36702-1.2718 0.47181-0.40962 0.09526-0.86713 0.14263-1.372 0.14263-0.60014 0-1.0714-0.17124-1.4144-0.51418-0.33341-0.34294-0.5096-0.81476-0.52865-1.4149h5.0297v-1.0289c0-1.1336-0.31438-2.0052-0.94309-2.6148-0.62872-0.61919-1.4815-0.92863-2.558-0.92863zm0.01447 1.5146c0.50488 0 0.87651 0.15693 1.1147 0.47129 0.23815 0.30483 0.36203 0.69572 0.37155 1.172h-2.9864c0.04763-0.56204 0.20456-0.97661 0.47129-1.2433 0.27625-0.26673 0.61926-0.39998 1.0289-0.39998z" fill="#b686dc"/>
 </g>
</svg>
