<?xml version="1.0" encoding="UTF-8"?>
<svg id="svg1443" width="128" height="128" version="1.1" viewBox="0 0 33.867 33.867" xmlns="http://www.w3.org/2000/svg" xmlns:cc="http://creativecommons.org/ns#" xmlns:dc="http://purl.org/dc/elements/1.1/" xmlns:rdf="http://www.w3.org/1999/02/22-rdf-syntax-ns#" xmlns:xlink="http://www.w3.org/1999/xlink">
 <defs id="defs1437">
  <linearGradient id="linearGradient1632" x1="132.21" x2="132.21" y1="42.152" y2="70.68" gradientTransform="matrix(.97573 0 0 .97573 -111.77 -37.183)" gradientUnits="userSpaceOnUse">
   <stop id="stop1626" stop-color="#fafafc" offset="0"/>
   <stop id="stop1628" stop-color="#e2e6ea" offset="1"/>
  </linearGradient>
  <radialGradient id="radialGradient1540" cx="10.046" cy="12.11" r="6.9626" gradientTransform="matrix(.59956 .0832 -.12014 .86574 5.6402 .50997)" gradientUnits="userSpaceOnUse">
   <stop id="stop1530" stop-color="#69bdf7" offset="0"/>
   <stop id="stop1532" stop-color="#2e9eec" offset="1"/>
  </radialGradient>
  <linearGradient id="linearGradient1553" x1="41.049" x2="74.247" y1="46.382" y2="54.837" gradientUnits="userSpaceOnUse">
   <stop id="stop1545" stop-color="#c9f270" offset="0"/>
   <stop id="stop1547" stop-color="#6ddf24" offset="1"/>
  </linearGradient>
  <linearGradient id="linearGradient1566" x1="67.795" x2="82.175" y1="61.623" y2="68.013" gradientUnits="userSpaceOnUse">
   <stop id="stop1560" stop-color="#ffa26e" offset="0"/>
   <stop id="stop1562" stop-color="#e18959" offset="1"/>
  </linearGradient>
  <radialGradient id="radialGradient1576" cx="17.126" cy="25.224" r="6.9626" gradientTransform="matrix(1 0 0 1.2689 0 -3.9003)" gradientUnits="userSpaceOnUse">
   <stop id="stop1570" stop-color="#0b52d2" offset="0"/>
   <stop id="stop1572" stop-color="#0b52d2" stop-opacity="0" offset="1"/>
  </radialGradient>
 </defs>
 <metadata id="metadata1440">
  <rdf:RDF>
   <cc:Work rdf:about="">
    <dc:format>image/svg+xml</dc:format>
    <dc:type rdf:resource="http://purl.org/dc/dcmitype/StillImage"/>
    <dc:title/>
   </cc:Work>
  </rdf:RDF>
 </metadata>
 <g id="layer1">
  <g id="g1702" transform="matrix(.97573 0 0 .97573 -65.737 -37.183)" fill="none" opacity=".295" stroke="#000" stroke-linecap="round" stroke-linejoin="round" stroke-opacity=".02">
   <rect id="rect1634" x="69.84" y="40.71" width="29.811" height="29.811" rx="6.6099" ry="6.6099" stroke-width=".1"/>
   <rect id="rect1638" x="69.84" y="40.71" width="29.811" height="29.811" rx="6.6099" ry="6.6099" stroke-width=".2"/>
   <rect id="rect1640" x="69.84" y="40.71" width="29.811" height="29.811" rx="6.6099" ry="6.6099" stroke-width=".3"/>
   <rect id="rect1642" x="69.84" y="40.71" width="29.811" height="29.811" rx="6.6099" ry="6.6099" stroke-width=".4"/>
   <rect id="rect1644" x="69.84" y="40.71" width="29.811" height="29.811" rx="6.6099" ry="6.6099" stroke-width=".5"/>
   <rect id="rect1646" x="69.84" y="40.71" width="29.811" height="29.811" rx="6.6099" ry="6.6099" stroke-width=".6"/>
   <rect id="rect1648" x="69.84" y="40.71" width="29.811" height="29.811" rx="6.6099" ry="6.6099" stroke-width=".7"/>
   <rect id="rect1650" x="69.84" y="40.71" width="29.811" height="29.811" rx="6.6099" ry="6.6099" stroke-width=".8"/>
   <rect id="rect1652" x="69.84" y="40.71" width="29.811" height="29.811" rx="6.6099" ry="6.6099"/>
   <rect id="rect1654" x="69.84" y="40.71" width="29.811" height="29.811" rx="6.6099" ry="6.6099" stroke-width="1.2"/>
   <rect id="rect1656" x="69.84" y="40.71" width="29.811" height="29.811" rx="6.6099" ry="6.6099" stroke-width="1.4"/>
   <rect id="rect1658" x="69.84" y="40.71" width="29.811" height="29.811" rx="6.6099" ry="6.6099" stroke-width="1.6"/>
   <rect id="rect1660" x="69.84" y="40.71" width="29.811" height="29.811" rx="6.6099" ry="6.6099" stroke-width="1.8"/>
   <rect id="rect1662" x="69.84" y="40.71" width="29.811" height="29.811" rx="6.6099" ry="6.6099" stroke-width="2"/>
   <rect id="rect1664" x="69.84" y="40.71" width="29.811" height="29.811" rx="6.6099" ry="6.6099" stroke-width="2.2"/>
   <rect id="rect1666" x="69.84" y="40.71" width="29.811" height="29.811" rx="6.6099" ry="6.6099" stroke-width="2.6"/>
   <rect id="rect1668" x="69.84" y="40.71" width="29.811" height="29.811" rx="6.6099" ry="6.6099" stroke-width="3"/>
   <rect id="rect1670" x="69.84" y="40.71" width="29.811" height="29.811" rx="6.6099" ry="6.6099" stroke-width="3.4"/>
   <rect id="rect1672" x="69.84" y="40.71" width="29.811" height="29.811" rx="6.6099" ry="6.6099" stroke-width="3.8"/>
   <rect id="rect1674" x="69.84" y="40.71" width="29.811" height="29.811" rx="6.6099" ry="6.6099" stroke-width="4.2"/>
   <rect id="rect1676" x="69.84" y="40.71" width="29.811" height="29.811" rx="6.6099" ry="6.6099" stroke-width="4.6"/>
   <rect id="rect1678" x="69.84" y="40.71" width="29.811" height="29.811" rx="6.6099" ry="6.6099" stroke-width="5"/>
  </g>
  <rect id="rect849" x="2.4074" y="2.5392" width="29.087" height="29.087" rx="6.4495" ry="6.4495" fill="url(#linearGradient1632)" stroke-linecap="round" stroke-linejoin="round" stroke-width="2.6877"/>
  <path id="path1488" d="m17.091 5.667v1.092e-4c-3.4628 0.00428-6.9585 2.7026-6.9585 6.9666 0.17125 3.7034 2.7311 6.0758 5.8612 10.228 0.20599 0.2448 0.54596 0.47273 1.0972 0.475v2.26e-4c0.0014 0 0.0027-1.08e-4 0.0041-1.08e-4 0.0014 3e-6 0.0027 1.08e-4 0.0042 1.08e-4v-2.26e-4c0.55125-0.0023 0.89112-0.23021 1.0971-0.475 3.1301-4.1526 5.6901-6.525 5.8614-10.228 0-4.264-3.4956-6.9624-6.9585-6.9666v-1.092e-4h-0.0041c-0.0014-1.1e-6 -0.0028 0-0.0042 0z" fill="url(#radialGradient1540)" stroke-linecap="round" stroke-linejoin="round" stroke-width=".086849"/>
  <rect id="rect1504" x="15.512" y="25.402" width="3.1671" height="3.1671" rx=".81568" ry=".81568" fill="#c144f1" fill-opacity=".55503" stroke-linecap="round" stroke-linejoin="round" stroke-width=".061525"/>
  <path id="path1538" transform="scale(.26458)" d="m64.596 21.418v0.001953c-4.8061 0.00594-9.6256 1.3888-13.805 3.9297 10.248 18.407 6.8173 32.048-2.4531 45.521 3.4833 4.6423 7.6425 9.6085 12.111 15.537 0.77856 0.92522 2.063 1.7863 4.1465 1.7949v0.001953c0.005291 0 0.010334-0.001953 0.015625-0.001953 0.005291 1.1e-5 0.009956 0.001953 0.015625 0.001953v-0.001953c2.0835-0.008693 3.3699-0.8697 4.1484-1.7949 11.83-15.695 21.505-24.661 22.152-38.658 0-16.116-13.213-26.314-26.301-26.33v-0.001953h-0.013672c-0.005291-4e-6 -0.012287 0-0.017578 0z" fill="url(#linearGradient1553)"/>
  <path id="path1555" transform="scale(.26458)" d="m80.939 27.074c2.8589 22.55-7.6976 37.296-32.602 43.797 3.4833 4.6423 7.6425 9.6085 12.111 15.537 0.77856 0.92522 2.063 1.7863 4.1465 1.7949v0.001953c0.005291 0 0.010334-0.001953 0.015625-0.001953 0.005291 1.1e-5 0.009956 0.001953 0.015625 0.001953v-0.001953c2.0835-0.008693 3.3699-0.8697 4.1484-1.7949 11.83-15.695 21.505-24.661 22.152-38.658 0-8.9727-4.0986-16.108-9.9883-20.676z" fill="url(#linearGradient1566)"/>
  <path id="path1568" d="m17.091 5.667v1.092e-4c-3.4628 0.00428-6.9585 2.7026-6.9585 6.9666 0.17125 3.7034 2.7311 6.0758 5.8612 10.228 0.20599 0.2448 0.54596 0.47273 1.0972 0.475v2.26e-4c0.0014 0 0.0027-1.08e-4 0.0041-1.08e-4 0.0014 3e-6 0.0027 1.08e-4 0.0042 1.08e-4v-2.26e-4c0.55125-0.0023 0.89112-0.23021 1.0971-0.475 3.1301-4.1526 5.6901-6.525 5.8614-10.228 0-4.264-3.4956-6.9624-6.9585-6.9666v-1.092e-4h-0.0041c-0.0014-1.1e-6 -0.0028 0-0.0042 0z" fill="url(#radialGradient1576)" opacity=".22138" stroke-linecap="round" stroke-linejoin="round" stroke-width=".086849"/>
 </g>
</svg>
