<?xml version="1.0" encoding="UTF-8"?>
<svg id="svg6" width="128" height="128" version="1.1" viewBox="0 0 33.867 33.867" xmlns="http://www.w3.org/2000/svg" xmlns:xlink="http://www.w3.org/1999/xlink">
 <defs id="defs2">
  <linearGradient id="linearGradient14855" x1="15.132" x2="15.132" y1="27.778" y2="4.734" gradientUnits="userSpaceOnUse">
   <stop id="stop14849" stop-color="#7e28b8" offset="0"/>
   <stop id="stop14851" stop-color="#cc66f6" offset="1"/>
  </linearGradient>
 </defs>
 <g id="layer1">
  <g id="g1702" transform="matrix(.97573 0 0 .97573 -65.748 -37.203)" fill="none" opacity=".29677" stroke="#000" stroke-linecap="round" stroke-linejoin="round" stroke-opacity=".02">
   <path id="rect1634" d="m76.449 40.71h16.591c3.6619 0 6.6099 2.948 6.6099 6.6099v16.591c0 3.6619-2.948 6.6099-6.6099 6.6099h-16.591c-3.6619 0-6.6099-2.948-6.6099-6.6099v-16.591c0-3.6619 2.948-6.6099 6.6099-6.6099z" stroke-width=".1"/>
   <path id="rect1638" d="m76.449 40.71h16.591c3.6619 0 6.6099 2.948 6.6099 6.6099v16.591c0 3.6619-2.948 6.6099-6.6099 6.6099h-16.591c-3.6619 0-6.6099-2.948-6.6099-6.6099v-16.591c0-3.6619 2.948-6.6099 6.6099-6.6099z" stroke-width=".2"/>
   <path id="rect1640" d="m76.449 40.71h16.591c3.6619 0 6.6099 2.948 6.6099 6.6099v16.591c0 3.6619-2.948 6.6099-6.6099 6.6099h-16.591c-3.6619 0-6.6099-2.948-6.6099-6.6099v-16.591c0-3.6619 2.948-6.6099 6.6099-6.6099z" stroke-width=".3"/>
   <path id="rect1642" d="m76.449 40.71h16.591c3.6619 0 6.6099 2.948 6.6099 6.6099v16.591c0 3.6619-2.948 6.6099-6.6099 6.6099h-16.591c-3.6619 0-6.6099-2.948-6.6099-6.6099v-16.591c0-3.6619 2.948-6.6099 6.6099-6.6099z" stroke-width=".4"/>
   <path id="rect1644" d="m76.449 40.71h16.591c3.6619 0 6.6099 2.948 6.6099 6.6099v16.591c0 3.6619-2.948 6.6099-6.6099 6.6099h-16.591c-3.6619 0-6.6099-2.948-6.6099-6.6099v-16.591c0-3.6619 2.948-6.6099 6.6099-6.6099z" stroke-width=".5"/>
   <path id="rect1646" d="m76.449 40.71h16.591c3.6619 0 6.6099 2.948 6.6099 6.6099v16.591c0 3.6619-2.948 6.6099-6.6099 6.6099h-16.591c-3.6619 0-6.6099-2.948-6.6099-6.6099v-16.591c0-3.6619 2.948-6.6099 6.6099-6.6099z" stroke-width=".6"/>
   <path id="rect1648" d="m76.449 40.71h16.591c3.6619 0 6.6099 2.948 6.6099 6.6099v16.591c0 3.6619-2.948 6.6099-6.6099 6.6099h-16.591c-3.6619 0-6.6099-2.948-6.6099-6.6099v-16.591c0-3.6619 2.948-6.6099 6.6099-6.6099z" stroke-width=".7"/>
   <path id="rect1650" d="m76.449 40.71h16.591c3.6619 0 6.6099 2.948 6.6099 6.6099v16.591c0 3.6619-2.948 6.6099-6.6099 6.6099h-16.591c-3.6619 0-6.6099-2.948-6.6099-6.6099v-16.591c0-3.6619 2.948-6.6099 6.6099-6.6099z" stroke-width=".8"/>
   <path id="rect1652" d="m76.449 40.71h16.591c3.6619 0 6.6099 2.948 6.6099 6.6099v16.591c0 3.6619-2.948 6.6099-6.6099 6.6099h-16.591c-3.6619 0-6.6099-2.948-6.6099-6.6099v-16.591c0-3.6619 2.948-6.6099 6.6099-6.6099z"/>
   <path id="rect1654" d="m76.449 40.71h16.591c3.6619 0 6.6099 2.948 6.6099 6.6099v16.591c0 3.6619-2.948 6.6099-6.6099 6.6099h-16.591c-3.6619 0-6.6099-2.948-6.6099-6.6099v-16.591c0-3.6619 2.948-6.6099 6.6099-6.6099z" stroke-width="1.2"/>
   <path id="rect1656" d="m76.449 40.71h16.591c3.6619 0 6.6099 2.948 6.6099 6.6099v16.591c0 3.6619-2.948 6.6099-6.6099 6.6099h-16.591c-3.6619 0-6.6099-2.948-6.6099-6.6099v-16.591c0-3.6619 2.948-6.6099 6.6099-6.6099z" stroke-width="1.4"/>
   <path id="rect1658" d="m76.449 40.71h16.591c3.6619 0 6.6099 2.948 6.6099 6.6099v16.591c0 3.6619-2.948 6.6099-6.6099 6.6099h-16.591c-3.6619 0-6.6099-2.948-6.6099-6.6099v-16.591c0-3.6619 2.948-6.6099 6.6099-6.6099z" stroke-width="1.6"/>
   <path id="rect1660" d="m76.449 40.71h16.591c3.6619 0 6.6099 2.948 6.6099 6.6099v16.591c0 3.6619-2.948 6.6099-6.6099 6.6099h-16.591c-3.6619 0-6.6099-2.948-6.6099-6.6099v-16.591c0-3.6619 2.948-6.6099 6.6099-6.6099z" stroke-width="1.8"/>
   <path id="rect1662" d="m76.449 40.71h16.591c3.6619 0 6.6099 2.948 6.6099 6.6099v16.591c0 3.6619-2.948 6.6099-6.6099 6.6099h-16.591c-3.6619 0-6.6099-2.948-6.6099-6.6099v-16.591c0-3.6619 2.948-6.6099 6.6099-6.6099z" stroke-width="2"/>
   <path id="rect1664" d="m76.449 40.71h16.591c3.6619 0 6.6099 2.948 6.6099 6.6099v16.591c0 3.6619-2.948 6.6099-6.6099 6.6099h-16.591c-3.6619 0-6.6099-2.948-6.6099-6.6099v-16.591c0-3.6619 2.948-6.6099 6.6099-6.6099z" stroke-width="2.2"/>
   <path id="rect1666" d="m76.449 40.71h16.591c3.6619 0 6.6099 2.948 6.6099 6.6099v16.591c0 3.6619-2.948 6.6099-6.6099 6.6099h-16.591c-3.6619 0-6.6099-2.948-6.6099-6.6099v-16.591c0-3.6619 2.948-6.6099 6.6099-6.6099z" stroke-width="2.6"/>
   <path id="rect1668" d="m76.449 40.71h16.591c3.6619 0 6.6099 2.948 6.6099 6.6099v16.591c0 3.6619-2.948 6.6099-6.6099 6.6099h-16.591c-3.6619 0-6.6099-2.948-6.6099-6.6099v-16.591c0-3.6619 2.948-6.6099 6.6099-6.6099z" stroke-width="3"/>
   <path id="rect1670" d="m76.449 40.71h16.591c3.6619 0 6.6099 2.948 6.6099 6.6099v16.591c0 3.6619-2.948 6.6099-6.6099 6.6099h-16.591c-3.6619 0-6.6099-2.948-6.6099-6.6099v-16.591c0-3.6619 2.948-6.6099 6.6099-6.6099z" stroke-width="3.4"/>
   <path id="rect1672" d="m76.449 40.71h16.591c3.6619 0 6.6099 2.948 6.6099 6.6099v16.591c0 3.6619-2.948 6.6099-6.6099 6.6099h-16.591c-3.6619 0-6.6099-2.948-6.6099-6.6099v-16.591c0-3.6619 2.948-6.6099 6.6099-6.6099z" stroke-width="3.8"/>
   <path id="rect1674" d="m76.449 40.71h16.591c3.6619 0 6.6099 2.948 6.6099 6.6099v16.591c0 3.6619-2.948 6.6099-6.6099 6.6099h-16.591c-3.6619 0-6.6099-2.948-6.6099-6.6099v-16.591c0-3.6619 2.948-6.6099 6.6099-6.6099z" stroke-width="4.2"/>
   <path id="rect1676" d="m76.449 40.71h16.591c3.6619 0 6.6099 2.948 6.6099 6.6099v16.591c0 3.6619-2.948 6.6099-6.6099 6.6099h-16.591c-3.6619 0-6.6099-2.948-6.6099-6.6099v-16.591c0-3.6619 2.948-6.6099 6.6099-6.6099z" stroke-width="4.6"/>
   <path id="rect1678" d="m76.449 40.71h16.591c3.6619 0 6.6099 2.948 6.6099 6.6099v16.591c0 3.6619-2.948 6.6099-6.6099 6.6099h-16.591c-3.6619 0-6.6099-2.948-6.6099-6.6099v-16.591c0-3.6619 2.948-6.6099 6.6099-6.6099z" stroke-width="5"/>
  </g>
  <rect id="rect849" x="2.4065" y="2.5186" width="29.087" height="29.087" rx="6.4495" ry="6.4495" fill="url(#linearGradient14855)" stroke-linecap="round" stroke-linejoin="round" stroke-width="2.6877"/>
  <path id="path6697" d="m63.366-13.641-7.5223-7.6006" color="#000000" fill="none" stroke-width=".6"/>
  <path id="path6691" d="m41.242-29.284 8.8556 8.8325c1.7498 1.5783 2.9157 1.6977 4.709 0.10074l11.969-11.168" color="#000000" fill="none" stroke-width=".7"/>
  <path id="path8" d="m18.228 23.543c-0.49396-0.15703-1.2999-0.53225-1.791-0.83385-1.2141-0.74566-2.0049-0.9992-3.1166-0.9992-1.1966 0-1.7892 0.17282-2.8716 0.83765-0.47893 0.29415-0.94436 0.53481-1.0343 0.53481-0.29872 0-1.4314-1.6426-1.3355-1.9368 0.1212-0.37196 1.6663-1.3408 2.7812-1.744 0.7042-0.25466 1.2557-0.32894 2.4422-0.32894 1.7638 0 2.6452 0.25482 4.2843 1.2385 0.55768 0.33468 1.3645 0.69218 1.7929 0.79445 1.4364 0.34287 3.0599-0.01677 4.2499-0.94158 0.20103-0.15621 0.49252-0.28403 0.64778-0.28403 0.34378 0 1.5475 1.4719 1.4837 1.8142-0.07202 0.3866-1.88 1.5037-2.9816 1.8422-1.3079 0.40195-3.2986 0.40482-4.5514 0.0064zm0.69967-6.3263c-0.53942-0.12172-1.6826-0.60087-2.5931-1.0868-1.3918-0.74287-1.7749-0.87944-2.6368-0.94014-1.2365-0.08708-1.9725 0.10016-3.1373 0.79811-0.4932 0.29552-0.99022 0.5373-1.1045 0.5373-0.24335 0-1.4409-1.4583-1.4409-1.7546 0-0.25536 0.93829-0.99555 1.8391-1.4508 2.3001-1.1624 5.2586-1.0061 7.5862 0.40086 1.2555 0.75893 1.9376 0.97456 3.0828 0.97456 1.0983 0 2.1934-0.35335 3.0056-0.96973 0.29186-0.22149 0.64259-0.40273 0.77941-0.40273 0.13682 0 0.53984 0.3836 0.89559 0.85245 0.75699 0.99764 0.73756 1.0743-0.49045 1.934-1.5263 1.0686-3.924 1.5276-5.7855 1.1075z" opacity=".2" stroke-width=".80675"/>
  <path id="path10" d="m18.228 22.737c-0.49396-0.15703-1.2999-0.53225-1.791-0.83385-1.2141-0.74566-2.0049-0.9992-3.1166-0.9992-1.1966 0-1.7892 0.17286-2.8716 0.83766-0.47893 0.29415-0.94436 0.5348-1.0343 0.5348-0.29872 0-1.4314-1.6426-1.3355-1.9368 0.1212-0.37196 1.6663-1.3408 2.7812-1.744 0.7042-0.25466 1.2557-0.32894 2.4422-0.32894 1.7638 0 2.6452 0.25482 4.2843 1.2385 0.55768 0.33468 1.3645 0.69219 1.7929 0.79446 1.4364 0.34288 3.0599-0.01677 4.2499-0.94157 0.20103-0.15621 0.49252-0.28403 0.64778-0.28403 0.34378 0 1.5475 1.4719 1.4837 1.8142-0.07202 0.3866-1.88 1.5037-2.9816 1.8422-1.3079 0.40195-3.2986 0.40482-4.5514 0.0064zm0.69967-6.3263c-0.53942-0.12172-1.6826-0.60087-2.5931-1.0868-1.3918-0.74287-1.7749-0.87944-2.6368-0.94014-1.2365-0.08705-1.9725 0.10016-3.1373 0.79811-0.4932 0.29552-0.99022 0.5373-1.1045 0.5373-0.24335 0-1.4409-1.4583-1.4409-1.7546 0-0.25536 0.93829-0.99555 1.8391-1.4508 2.3001-1.1624 5.2586-1.0061 7.5862 0.40087 1.2555 0.75893 1.9376 0.97456 3.0828 0.97456 1.0983 0 2.1934-0.35334 3.0056-0.96973 0.29186-0.22149 0.64259-0.40273 0.77941-0.40273 0.13682 0 0.53984 0.3836 0.89559 0.85245 0.75699 0.99765 0.73756 1.0743-0.49045 1.934-1.5263 1.0686-3.924 1.5276-5.7855 1.1075z" fill="#fff" stroke-width=".80675"/>
 </g>
</svg>
