<?xml version="1.0" encoding="UTF-8"?>
<svg id="svg1414" width="128" height="128" version="1.1" viewBox="0 0 33.867 33.867" xmlns="http://www.w3.org/2000/svg" xmlns:cc="http://creativecommons.org/ns#" xmlns:dc="http://purl.org/dc/elements/1.1/" xmlns:rdf="http://www.w3.org/1999/02/22-rdf-syntax-ns#" xmlns:xlink="http://www.w3.org/1999/xlink">
 <defs id="defs1408">
  <linearGradient id="linearGradient1441" x1="16.61" x2="16.61" y1="30.626" y2="3.4048" gradientTransform="translate(-.00829 -.032745)" gradientUnits="userSpaceOnUse">
   <stop id="stop1435" stop-color="#02bb41" offset="0"/>
   <stop id="stop1437" stop-color="#71e680" offset="1"/>
  </linearGradient>
 </defs>
 <metadata id="metadata1411">
  <rdf:RDF>
   <cc:Work rdf:about="">
    <dc:format>image/svg+xml</dc:format>
    <dc:type rdf:resource="http://purl.org/dc/dcmitype/StillImage"/>
    <dc:title/>
   </cc:Work>
  </rdf:RDF>
 </metadata>
 <g id="layer1">
  <g id="g1702" transform="matrix(.97573 0 0 .97573 -65.757 -37.236)" fill="none" opacity=".29676" stroke="#000" stroke-linecap="round" stroke-linejoin="round" stroke-opacity=".02">
   <rect id="rect1634" x="69.84" y="40.71" width="29.811" height="29.811" rx="6.6099" ry="6.6099" stroke-width=".1"/>
   <rect id="rect1638" x="69.84" y="40.71" width="29.811" height="29.811" rx="6.6099" ry="6.6099" stroke-width=".2"/>
   <rect id="rect1640" x="69.84" y="40.71" width="29.811" height="29.811" rx="6.6099" ry="6.6099" stroke-width=".3"/>
   <rect id="rect1642" x="69.84" y="40.71" width="29.811" height="29.811" rx="6.6099" ry="6.6099" stroke-width=".4"/>
   <rect id="rect1644" x="69.84" y="40.71" width="29.811" height="29.811" rx="6.6099" ry="6.6099" stroke-width=".5"/>
   <rect id="rect1646" x="69.84" y="40.71" width="29.811" height="29.811" rx="6.6099" ry="6.6099" stroke-width=".6"/>
   <rect id="rect1648" x="69.84" y="40.71" width="29.811" height="29.811" rx="6.6099" ry="6.6099" stroke-width=".7"/>
   <rect id="rect1650" x="69.84" y="40.71" width="29.811" height="29.811" rx="6.6099" ry="6.6099" stroke-width=".8"/>
   <rect id="rect1652" x="69.84" y="40.71" width="29.811" height="29.811" rx="6.6099" ry="6.6099"/>
   <rect id="rect1654" x="69.84" y="40.71" width="29.811" height="29.811" rx="6.6099" ry="6.6099" stroke-width="1.2"/>
   <rect id="rect1656" x="69.84" y="40.71" width="29.811" height="29.811" rx="6.6099" ry="6.6099" stroke-width="1.4"/>
   <rect id="rect1658" x="69.84" y="40.71" width="29.811" height="29.811" rx="6.6099" ry="6.6099" stroke-width="1.6"/>
   <rect id="rect1660" x="69.84" y="40.71" width="29.811" height="29.811" rx="6.6099" ry="6.6099" stroke-width="1.8"/>
   <rect id="rect1662" x="69.84" y="40.71" width="29.811" height="29.811" rx="6.6099" ry="6.6099" stroke-width="2"/>
   <rect id="rect1664" x="69.84" y="40.71" width="29.811" height="29.811" rx="6.6099" ry="6.6099" stroke-width="2.2"/>
   <rect id="rect1666" x="69.84" y="40.71" width="29.811" height="29.811" rx="6.6099" ry="6.6099" stroke-width="2.6"/>
   <rect id="rect1668" x="69.84" y="40.71" width="29.811" height="29.811" rx="6.6099" ry="6.6099" stroke-width="3"/>
   <rect id="rect1670" x="69.84" y="40.71" width="29.811" height="29.811" rx="6.6099" ry="6.6099" stroke-width="3.4"/>
   <rect id="rect1672" x="69.84" y="40.71" width="29.811" height="29.811" rx="6.6099" ry="6.6099" stroke-width="3.8"/>
   <rect id="rect1674" x="69.84" y="40.71" width="29.811" height="29.811" rx="6.6099" ry="6.6099" stroke-width="4.2"/>
   <rect id="rect1676" x="69.84" y="40.71" width="29.811" height="29.811" rx="6.6099" ry="6.6099" stroke-width="4.6"/>
   <rect id="rect1678" x="69.84" y="40.71" width="29.811" height="29.811" rx="6.6099" ry="6.6099" stroke-width="5"/>
  </g>
  <rect id="rect849" x="2.388" y="2.4858" width="29.087" height="29.087" rx="6.4495" ry="6.4495" fill="url(#linearGradient1441)" stroke-linecap="round" stroke-linejoin="round" stroke-width="2.6877"/>
  <path id="path1060-3-2" d="m13.195 7.787-0.39326 1.1798 0.39326 0.022741v6.8709l-4.6364 9.2733c-0.26146 0.52306 0.11855 1.1384 0.70332 1.1384h15.339c0.58476-1.8e-5 0.96478-0.61537 0.70332-1.1384l-4.6364-9.2733v-6.8709l0.39326-0.022741-0.39326-1.1798h-1.573v8.2594c-2.9e-5 0.12212 0.02809 0.24267 0.08268 0.35192l4.1512 8.3008h-12.795l4.1512-8.3008c0.05459-0.10924 0.08323-0.22979 0.0832-0.35192v-8.2594zm2.9729 5.3108a0.93657 0.93657 0 0 0-0.93689 0.93638 0.93657 0.93657 0 0 0 0.93689 0.93638 0.93657 0.93657 0 0 0 0.93638-0.93638 0.93657 0.93657 0 0 0-0.93638-0.93638zm1.6511 1.0082a0.53679 0.53679 0 0 0-0.53692 0.5364 0.53679 0.53679 0 0 0 0.53692 0.53692 0.53679 0.53679 0 0 0 0.53692-0.53692 0.53679 0.53679 0 0 0-0.53692-0.5364zm-0.39998 1.4252a0.72799 0.72799 0 0 0-0.7276 0.7276 0.72799 0.72799 0 0 0 0.7276 0.72812 0.72799 0.72799 0 0 0 0.72812-0.72812 0.72799 0.72799 0 0 0-0.72812-0.7276zm-3.2344 2.8748-2.9228 5.8436h11.339l-2.9223-5.8436z" fill="#fff" fill-rule="evenodd"/>
 </g>
</svg>
