<?xml version="1.0" encoding="UTF-8"?>
<svg id="svg1500" width="128" height="128" version="1.1" viewBox="0 0 33.867 33.867" xmlns="http://www.w3.org/2000/svg" xmlns:cc="http://creativecommons.org/ns#" xmlns:dc="http://purl.org/dc/elements/1.1/" xmlns:rdf="http://www.w3.org/1999/02/22-rdf-syntax-ns#" xmlns:xlink="http://www.w3.org/1999/xlink">
 <defs id="defs1494">
  <linearGradient id="linearGradient1441" x1="16.61" x2="16.61" y1="30.626" y2="3.4048" gradientTransform="translate(-.014473 -.040388)" gradientUnits="userSpaceOnUse">
   <stop id="stop1435" stop-color="#029786" offset="0"/>
   <stop id="stop1437" stop-color="#07b193" offset="1"/>
  </linearGradient>
 </defs>
 <metadata id="metadata1497">
  <rdf:RDF>
   <cc:Work rdf:about="">
    <dc:format>image/svg+xml</dc:format>
    <dc:type rdf:resource="http://purl.org/dc/dcmitype/StillImage"/>
    <dc:title/>
   </cc:Work>
  </rdf:RDF>
 </metadata>
 <g id="layer1">
  <g id="g1702" transform="matrix(.97573 0 0 .97573 -65.763 -37.243)" fill="none" opacity=".29676" stroke="#000" stroke-linecap="round" stroke-linejoin="round" stroke-opacity=".02">
   <rect id="rect1634" x="69.84" y="40.71" width="29.811" height="29.811" rx="6.6099" ry="6.6099" stroke-width=".1"/>
   <rect id="rect1638" x="69.84" y="40.71" width="29.811" height="29.811" rx="6.6099" ry="6.6099" stroke-width=".2"/>
   <rect id="rect1640" x="69.84" y="40.71" width="29.811" height="29.811" rx="6.6099" ry="6.6099" stroke-width=".3"/>
   <rect id="rect1642" x="69.84" y="40.71" width="29.811" height="29.811" rx="6.6099" ry="6.6099" stroke-width=".4"/>
   <rect id="rect1644" x="69.84" y="40.71" width="29.811" height="29.811" rx="6.6099" ry="6.6099" stroke-width=".5"/>
   <rect id="rect1646" x="69.84" y="40.71" width="29.811" height="29.811" rx="6.6099" ry="6.6099" stroke-width=".6"/>
   <rect id="rect1648" x="69.84" y="40.71" width="29.811" height="29.811" rx="6.6099" ry="6.6099" stroke-width=".7"/>
   <rect id="rect1650" x="69.84" y="40.71" width="29.811" height="29.811" rx="6.6099" ry="6.6099" stroke-width=".8"/>
   <rect id="rect1652" x="69.84" y="40.71" width="29.811" height="29.811" rx="6.6099" ry="6.6099"/>
   <rect id="rect1654" x="69.84" y="40.71" width="29.811" height="29.811" rx="6.6099" ry="6.6099" stroke-width="1.2"/>
   <rect id="rect1656" x="69.84" y="40.71" width="29.811" height="29.811" rx="6.6099" ry="6.6099" stroke-width="1.4"/>
   <rect id="rect1658" x="69.84" y="40.71" width="29.811" height="29.811" rx="6.6099" ry="6.6099" stroke-width="1.6"/>
   <rect id="rect1660" x="69.84" y="40.71" width="29.811" height="29.811" rx="6.6099" ry="6.6099" stroke-width="1.8"/>
   <rect id="rect1662" x="69.84" y="40.71" width="29.811" height="29.811" rx="6.6099" ry="6.6099" stroke-width="2"/>
   <rect id="rect1664" x="69.84" y="40.71" width="29.811" height="29.811" rx="6.6099" ry="6.6099" stroke-width="2.2"/>
   <rect id="rect1666" x="69.84" y="40.71" width="29.811" height="29.811" rx="6.6099" ry="6.6099" stroke-width="2.6"/>
   <rect id="rect1668" x="69.84" y="40.71" width="29.811" height="29.811" rx="6.6099" ry="6.6099" stroke-width="3"/>
   <rect id="rect1670" x="69.84" y="40.71" width="29.811" height="29.811" rx="6.6099" ry="6.6099" stroke-width="3.4"/>
   <rect id="rect1672" x="69.84" y="40.71" width="29.811" height="29.811" rx="6.6099" ry="6.6099" stroke-width="3.8"/>
   <rect id="rect1674" x="69.84" y="40.71" width="29.811" height="29.811" rx="6.6099" ry="6.6099" stroke-width="4.2"/>
   <rect id="rect1676" x="69.84" y="40.71" width="29.811" height="29.811" rx="6.6099" ry="6.6099" stroke-width="4.6"/>
   <rect id="rect1678" x="69.84" y="40.71" width="29.811" height="29.811" rx="6.6099" ry="6.6099" stroke-width="5"/>
  </g>
  <rect id="rect849" x="2.3818" y="2.4782" width="29.087" height="29.087" rx="6.4495" ry="6.4495" fill="url(#linearGradient1441)" stroke-linecap="round" stroke-linejoin="round" stroke-width="2.6877"/>
  <path id="path890-5" d="m10.607 9.9461c-0.16843 0-0.30438 0.13543-0.30438 0.30383v13.544c0 0.16846 0.13595 0.30389 0.30438 0.30389h12.638c0.16842 0 0.30437-0.13543 0.30437-0.30389v-13.544c0-0.1684-0.13595-0.30383-0.30437-0.30383zm2.6681 0.90534h7.3019c0.16842 0 0.30386 0.13543 0.30386 0.30389v5.1578c0 0.16846-0.13544 0.30389-0.30386 0.30389h-7.3019c-0.16843 0-0.30386-0.13543-0.30386-0.30389v-5.1578c0-0.16846 0.13543-0.30389 0.30386-0.30389zm-2.188 0.01289h1.1229c0.09377 0 0.1695 0.07574 0.1695 0.16946v0.53696c0 0.09378-0.07573 0.16998-0.1695 0.16998h-1.1229c-0.09377 0-0.16898-0.07621-0.16898-0.16998v-0.53696c0-0.09372 0.07521-0.16946 0.16898-0.16946zm10.554 0h1.1229c0.09377 0 0.1695 0.07574 0.1695 0.16946v0.53696c0 0.09378-0.07573 0.16998-0.1695 0.16998h-1.1229c-0.09377 0-0.1695-0.07621-0.1695-0.16998v-0.53696c0-0.09372 0.07573-0.16946 0.1695-0.16946zm-0.02635 1.62h1.1229c0.09377 0 0.1695 0.07521 0.1695 0.16899v0.53743c0 0.09378-0.07573 0.16952-0.1695 0.16952h-1.1229c-0.09377 0-0.1695-0.07574-0.1695-0.16952v-0.53743c0-0.09378 0.07573-0.16899 0.1695-0.16899zm-10.528 0.01406h1.1229c0.09377 0 0.1695 0.07568 0.1695 0.16946v0.53696c0 0.09378-0.07573 0.16998-0.1695 0.16998h-1.1229c-0.09377 0-0.16898-0.07621-0.16898-0.16998v-0.53696c0-0.09378 0.07521-0.16946 0.16898-0.16946zm10.528 1.62h1.1229c0.09377 0 0.1695 0.07574 0.1695 0.16952v0.5369c0 0.09378-0.07573 0.16952-0.1695 0.16952h-1.1229c-0.09377 0-0.1695-0.07574-0.1695-0.16952v-0.5369c0-0.09378 0.07573-0.16952 0.1695-0.16952zm-10.528 0.01464h1.1229c0.09377 0 0.1695 0.07574 0.1695 0.16952v0.53643c0 0.09378-0.07573 0.16998-0.1695 0.16998h-1.1229c-0.09377 0-0.16898-0.07621-0.16898-0.16998v-0.53643c0-0.09378 0.07521-0.16952 0.16898-0.16952zm10.528 1.6195h1.1229c0.09377 0 0.1695 0.07574 0.1695 0.16952v0.53743c0 0.09378-0.07573 0.16899-0.1695 0.16899h-1.1229c-0.09377 0-0.1695-0.07521-0.1695-0.16899v-0.53743c0-0.09378 0.07573-0.16952 0.1695-0.16952zm-10.528 0.01463h1.1229c0.09377 0 0.1695 0.07574 0.1695 0.16952v0.53743c0 0.09378-0.07573 0.16899-0.1695 0.16899h-1.1229c-0.09377 0-0.16898-0.07521-0.16898-0.16899v-0.53742c0-0.09378 0.07521-0.16952 0.16898-0.16952zm10.528 1.6195h1.1229c0.09377 0 0.1695 0.07574 0.1695 0.16952v0.53743c0 0.09378-0.07573 0.16899-0.1695 0.16899h-1.1229c-0.09377 0-0.1695-0.07521-0.1695-0.16899v-0.53743c0-0.09378 0.07573-0.16952 0.1695-0.16952zm-10.528 0.01464h1.1229c0.09377 0 0.1695 0.07574 0.1695 0.16952v0.53743c0 0.09378-0.07573 0.16899-0.1695 0.16899h-1.1229c-0.09377 0-0.16898-0.07521-0.16898-0.16899v-0.53743c0-0.09378 0.07521-0.16952 0.16898-0.16952zm2.188 0.06203h7.3019c0.16842 0 0.30386 0.13595 0.30386 0.30436v5.1573c0 0.16846-0.13544 0.30389-0.30386 0.30389h-7.3019c-0.16843 0-0.30386-0.13543-0.30386-0.30389v-5.1573c0-0.1684 0.13543-0.30436 0.30386-0.30436zm8.3401 1.5575h1.1229c0.09377 0 0.1695 0.07574 0.1695 0.16952v0.53743c0 0.09378-0.07573 0.16899-0.1695 0.16899h-1.1229c-0.09377 0-0.1695-0.07521-0.1695-0.16899v-0.53743c0-0.09378 0.07573-0.16952 0.1695-0.16952zm-10.528 0.01464h1.1229c0.09377 0 0.1695 0.07574 0.1695 0.16952v0.53743c0 0.09378-0.07573 0.16899-0.1695 0.16899h-1.1229c-0.09377 0-0.16898-0.07521-0.16898-0.16899v-0.53743c0-0.09378 0.07521-0.16952 0.16898-0.16952zm10.528 1.6201h1.1229c0.09377 0 0.1695 0.07521 0.1695 0.16899v0.53743c0 0.09378-0.07573 0.16952-0.1695 0.16952h-1.1229c-0.09377 0-0.1695-0.07574-0.1695-0.16952v-0.53743c0-0.09378 0.07573-0.16899 0.1695-0.16899zm-10.528 0.01464h1.1229c0.09377 0 0.1695 0.07521 0.1695 0.16899v0.53743c0 0.09378-0.07573 0.16952-0.1695 0.16952h-1.1229c-0.09377 0-0.16898-0.07574-0.16898-0.16952v-0.53743c0-0.09378 0.07521-0.16899 0.16898-0.16899zm10.528 1.6195h1.1229c0.09377 0 0.1695 0.07521 0.1695 0.16899v0.53743c0 0.09378-0.07573 0.16952-0.1695 0.16952h-1.1229c-0.09377 0-0.1695-0.07574-0.1695-0.16952v-0.53743c0-0.09378 0.07573-0.16899 0.1695-0.16899zm-10.528 0.01464h1.1229c0.09377 0 0.1695 0.07521 0.1695 0.16899v0.53743c0 0.09378-0.07573 0.16952-0.1695 0.16952h-1.1229c-0.09377 0-0.16898-0.07574-0.16898-0.16952v-0.5374c0-0.09378 0.07521-0.16899 0.16898-0.16899z" fill="#fff" stroke-width=".58575"/>
 </g>
</svg>
