<?xml version="1.0" encoding="UTF-8"?>
<svg id="svg1576" width="128" height="128" version="1.1" viewBox="0 0 33.867 33.867" xmlns="http://www.w3.org/2000/svg" xmlns:cc="http://creativecommons.org/ns#" xmlns:dc="http://purl.org/dc/elements/1.1/" xmlns:rdf="http://www.w3.org/1999/02/22-rdf-syntax-ns#" xmlns:xlink="http://www.w3.org/1999/xlink">
 <defs id="defs1570">
  <radialGradient id="radialGradient1506" cx="17.081" cy="3.8306" r="14.544" gradientTransform="matrix(2.7895 0 0 1.8353 -30.612 -3.2437)" gradientUnits="userSpaceOnUse">
   <stop id="stop4671" stop-color="#6602ef" offset="0"/>
   <stop id="stop4673" stop-color="#ff0369" offset="1"/>
  </radialGradient>
  <linearGradient id="linearGradient896" x1="21.179" x2="21.179" y1="6.1026" y2="95.093" gradientUnits="userSpaceOnUse">
   <stop id="stop890" offset="0"/>
   <stop id="stop892" stop-opacity="0" offset="1"/>
  </linearGradient>
 </defs>
 <metadata id="metadata1573">
  <rdf:RDF>
   <cc:Work rdf:about="">
    <dc:format>image/svg+xml</dc:format>
    <dc:type rdf:resource="http://purl.org/dc/dcmitype/StillImage"/>
    <dc:title/>
   </cc:Work>
  </rdf:RDF>
 </metadata>
 <g id="layer1">
  <g id="g1702" transform="matrix(.97573 0 0 .97573 -65.794 -37.247)" fill="none" opacity=".295" stroke="#000" stroke-linecap="round" stroke-linejoin="round" stroke-opacity=".02">
   <rect id="rect1634" x="69.84" y="40.71" width="29.811" height="29.811" rx="6.6099" ry="6.6099" stroke-width=".1"/>
   <rect id="rect1638" x="69.84" y="40.71" width="29.811" height="29.811" rx="6.6099" ry="6.6099" stroke-width=".2"/>
   <rect id="rect1640" x="69.84" y="40.71" width="29.811" height="29.811" rx="6.6099" ry="6.6099" stroke-width=".3"/>
   <rect id="rect1642" x="69.84" y="40.71" width="29.811" height="29.811" rx="6.6099" ry="6.6099" stroke-width=".4"/>
   <rect id="rect1644" x="69.84" y="40.71" width="29.811" height="29.811" rx="6.6099" ry="6.6099" stroke-width=".5"/>
   <rect id="rect1646" x="69.84" y="40.71" width="29.811" height="29.811" rx="6.6099" ry="6.6099" stroke-width=".6"/>
   <rect id="rect1648" x="69.84" y="40.71" width="29.811" height="29.811" rx="6.6099" ry="6.6099" stroke-width=".7"/>
   <rect id="rect1650" x="69.84" y="40.71" width="29.811" height="29.811" rx="6.6099" ry="6.6099" stroke-width=".8"/>
   <rect id="rect1652" x="69.84" y="40.71" width="29.811" height="29.811" rx="6.6099" ry="6.6099"/>
   <rect id="rect1654" x="69.84" y="40.71" width="29.811" height="29.811" rx="6.6099" ry="6.6099" stroke-width="1.2"/>
   <rect id="rect1656" x="69.84" y="40.71" width="29.811" height="29.811" rx="6.6099" ry="6.6099" stroke-width="1.4"/>
   <rect id="rect1658" x="69.84" y="40.71" width="29.811" height="29.811" rx="6.6099" ry="6.6099" stroke-width="1.6"/>
   <rect id="rect1660" x="69.84" y="40.71" width="29.811" height="29.811" rx="6.6099" ry="6.6099" stroke-width="1.8"/>
   <rect id="rect1662" x="69.84" y="40.71" width="29.811" height="29.811" rx="6.6099" ry="6.6099" stroke-width="2"/>
   <rect id="rect1664" x="69.84" y="40.71" width="29.811" height="29.811" rx="6.6099" ry="6.6099" stroke-width="2.2"/>
   <rect id="rect1666" x="69.84" y="40.71" width="29.811" height="29.811" rx="6.6099" ry="6.6099" stroke-width="2.6"/>
   <rect id="rect1668" x="69.84" y="40.71" width="29.811" height="29.811" rx="6.6099" ry="6.6099" stroke-width="3"/>
   <rect id="rect1670" x="69.84" y="40.71" width="29.811" height="29.811" rx="6.6099" ry="6.6099" stroke-width="3.4"/>
   <rect id="rect1672" x="69.84" y="40.71" width="29.811" height="29.811" rx="6.6099" ry="6.6099" stroke-width="3.8"/>
   <rect id="rect1674" x="69.84" y="40.71" width="29.811" height="29.811" rx="6.6099" ry="6.6099" stroke-width="4.2"/>
   <rect id="rect1676" x="69.84" y="40.71" width="29.811" height="29.811" rx="6.6099" ry="6.6099" stroke-width="4.6"/>
   <rect id="rect1678" x="69.84" y="40.71" width="29.811" height="29.811" rx="6.6099" ry="6.6099" stroke-width="5"/>
  </g>
  <rect id="rect849" x="2.3506" y="2.4746" width="29.087" height="29.087" rx="6.4495" ry="6.4495" fill="url(#radialGradient1506)" stroke-linecap="round" stroke-linejoin="round" stroke-width="2.688"/>
  <rect id="rect2886" x="4.3037" y="4.4277" width="25.181" height="25.181" rx="5.0418" ry="5.0418" fill="url(#linearGradient896)" opacity=".95" stroke-linecap="round" stroke-linejoin="round" stroke-width="2.688"/>
  <path id="path890" d="m24.287 15.075c0.32764 0 0.52267 0.38011 0.33154 0.65162l-8.94 12.749c-0.23403 0.32581-0.7372 0.16292-0.7372-0.24048v-12.749c0-0.22496 0.18332-0.41114 0.40566-0.41114z" fill="#5d0111" fill-opacity=".4313" fill-rule="evenodd" stroke-width=".56963"/>
  <path id="path8" d="m23.495 15.08c0.29964 0 0.47799 0.35259 0.3032 0.60444l-8.1758 11.826c-0.21403 0.30222-0.67418 0.15112-0.67418-0.22307v-11.826c0-0.20867 0.16765-0.38137 0.37098-0.38137z" fill="#ff0369" fill-rule="evenodd" stroke-width=".52464"/>
  <path id="path10" d="m18.246 6.6859a0.35676 0.35976 0 0 0-0.29614 0.1619l-8.1771 11.825c-0.17838 0.25183-4.702e-4 0.60457 0.29921 0.60457h8.1771c0.20336 0 0.37196-0.17354 0.37196-0.38221v-11.824c0-0.23744-0.18596-0.38529-0.37504-0.38529zm-1.1989 4.2361v6.7814h-4.69z" fill="#09017c" fill-opacity=".16956" fill-rule="evenodd" stroke-width=".52464"/>
  <path id="path12" d="m18.246 6.1613a0.35676 0.35976 0 0 0-0.29614 0.1619l-8.1771 11.825c-0.17838 0.25183-4.702e-4 0.60457 0.29921 0.60457h8.1771c0.20336 0 0.37196-0.17354 0.37196-0.38221v-11.824c0-0.23744-0.18596-0.38528-0.37504-0.38528zm-1.1989 4.2361v6.7814h-4.69z" fill="#6602ef" fill-rule="evenodd" stroke-width=".52464"/>
  <path id="path16" d="m17.047 15.08v2.0986h-2.0986v1.5739h3.3005c0.20336 0 0.37196-0.17354 0.37196-0.38221v-3.2903z" fill="#51004d" fill-rule="evenodd" stroke-width=".52464"/>
 </g>
</svg>
