<?xml version="1.0" encoding="UTF-8"?>
<svg id="svg1443" width="128" height="128" version="1.1" viewBox="0 0 33.867 33.867" xmlns="http://www.w3.org/2000/svg" xmlns:cc="http://creativecommons.org/ns#" xmlns:dc="http://purl.org/dc/elements/1.1/" xmlns:rdf="http://www.w3.org/1999/02/22-rdf-syntax-ns#" xmlns:xlink="http://www.w3.org/1999/xlink">
 <defs id="defs1437">
  <linearGradient id="linearGradient1632" x1="132.21" x2="132.21" y1="42.152" y2="70.68" gradientTransform="matrix(.97573 0 0 .97573 -111.77 -37.183)" gradientUnits="userSpaceOnUse">
   <stop id="stop1626" stop-color="#fafafc" offset="0"/>
   <stop id="stop1628" stop-color="#e2e6ea" offset="1"/>
  </linearGradient>
 </defs>
 <metadata id="metadata1440">
  <rdf:RDF>
   <cc:Work rdf:about="">
    <dc:format>image/svg+xml</dc:format>
    <dc:type rdf:resource="http://purl.org/dc/dcmitype/StillImage"/>
    <dc:title/>
   </cc:Work>
  </rdf:RDF>
 </metadata>
 <g id="layer1">
  <g id="g1702" transform="matrix(.97573 0 0 .97573 -65.737 -37.183)" fill="none" opacity=".295" stroke="#000" stroke-linecap="round" stroke-linejoin="round" stroke-opacity=".02">
   <rect id="rect1634" x="69.84" y="40.71" width="29.811" height="29.811" rx="6.6099" ry="6.6099" stroke-width=".1"/>
   <rect id="rect1638" x="69.84" y="40.71" width="29.811" height="29.811" rx="6.6099" ry="6.6099" stroke-width=".2"/>
   <rect id="rect1640" x="69.84" y="40.71" width="29.811" height="29.811" rx="6.6099" ry="6.6099" stroke-width=".3"/>
   <rect id="rect1642" x="69.84" y="40.71" width="29.811" height="29.811" rx="6.6099" ry="6.6099" stroke-width=".4"/>
   <rect id="rect1644" x="69.84" y="40.71" width="29.811" height="29.811" rx="6.6099" ry="6.6099" stroke-width=".5"/>
   <rect id="rect1646" x="69.84" y="40.71" width="29.811" height="29.811" rx="6.6099" ry="6.6099" stroke-width=".6"/>
   <rect id="rect1648" x="69.84" y="40.71" width="29.811" height="29.811" rx="6.6099" ry="6.6099" stroke-width=".7"/>
   <rect id="rect1650" x="69.84" y="40.71" width="29.811" height="29.811" rx="6.6099" ry="6.6099" stroke-width=".8"/>
   <rect id="rect1652" x="69.84" y="40.71" width="29.811" height="29.811" rx="6.6099" ry="6.6099"/>
   <rect id="rect1654" x="69.84" y="40.71" width="29.811" height="29.811" rx="6.6099" ry="6.6099" stroke-width="1.2"/>
   <rect id="rect1656" x="69.84" y="40.71" width="29.811" height="29.811" rx="6.6099" ry="6.6099" stroke-width="1.4"/>
   <rect id="rect1658" x="69.84" y="40.71" width="29.811" height="29.811" rx="6.6099" ry="6.6099" stroke-width="1.6"/>
   <rect id="rect1660" x="69.84" y="40.71" width="29.811" height="29.811" rx="6.6099" ry="6.6099" stroke-width="1.8"/>
   <rect id="rect1662" x="69.84" y="40.71" width="29.811" height="29.811" rx="6.6099" ry="6.6099" stroke-width="2"/>
   <rect id="rect1664" x="69.84" y="40.71" width="29.811" height="29.811" rx="6.6099" ry="6.6099" stroke-width="2.2"/>
   <rect id="rect1666" x="69.84" y="40.71" width="29.811" height="29.811" rx="6.6099" ry="6.6099" stroke-width="2.6"/>
   <rect id="rect1668" x="69.84" y="40.71" width="29.811" height="29.811" rx="6.6099" ry="6.6099" stroke-width="3"/>
   <rect id="rect1670" x="69.84" y="40.71" width="29.811" height="29.811" rx="6.6099" ry="6.6099" stroke-width="3.4"/>
   <rect id="rect1672" x="69.84" y="40.71" width="29.811" height="29.811" rx="6.6099" ry="6.6099" stroke-width="3.8"/>
   <rect id="rect1674" x="69.84" y="40.71" width="29.811" height="29.811" rx="6.6099" ry="6.6099" stroke-width="4.2"/>
   <rect id="rect1676" x="69.84" y="40.71" width="29.811" height="29.811" rx="6.6099" ry="6.6099" stroke-width="4.6"/>
   <rect id="rect1678" x="69.84" y="40.71" width="29.811" height="29.811" rx="6.6099" ry="6.6099" stroke-width="5"/>
  </g>
  <rect id="rect849" x="2.4074" y="2.5392" width="29.087" height="29.087" rx="6.4495" ry="6.4495" fill="url(#linearGradient1632)" stroke-linecap="round" stroke-linejoin="round" stroke-width="2.6877"/>
  <g id="g936" transform="translate(-1.3103 -.29653)" stroke-width=".50262">
   <path id="path6" d="m10.123 6.6793c-0.01292 1.8046 0.26469 3.6966 1.2408 5.252 0.30774 0.38873 0.84803 1.1274 1.3802 1.4018-0.44865 0.70145-0.84392 1.4381-1.1584 2.2225-0.76292 1.6815-1.2845 3.4646-1.6139 5.2775 0.38636-0.32812 0.82987-1.428 1.2291-2.036 1.3842-2.4341 2.6778-4.9185 4.0916-7.3351 0.68659-1.1522 1.3753-2.3043 2.0635-3.4555-1.1896 1.2001-2.4055 2.4192-3.4673 3.7461-1.5021-0.36776-2.7607-1.9892-3.2494-3.3299-0.21351-0.56891-0.35827-1.1579-0.51636-1.7435zm16.072 0c-0.15811 0.58554-0.30089 1.1746-0.5144 1.7435-0.48765 1.3379-1.7435 2.9557-3.2415 3.3279-1.0614-1.326-2.2764-2.5446-3.4653-3.7441 0.68817 1.1512 1.3769 2.3033 2.0635 3.4555 1.4138 2.4166 2.7074 4.901 4.0916 7.3351 0.3992 0.60796 0.8427 1.7079 1.2291 2.036-0.32939-1.8129-0.85097-3.596-1.6139-5.2775-0.31515-0.7861-0.71244-1.5236-1.1623-2.2264 0.53001-0.27722 1.066-1.0108 1.3724-1.3979 0.97615-1.5554 1.2538-3.4474 1.2408-5.252zm-8.6918 1.2232c-2.3407 4.3087-4.6837 8.6175-6.9778 12.95-0.11252 0.42855 0.73314-0.45514 0.98364-0.53992 1.2361-0.86039 2.4574-1.7419 3.6813-2.6191 0.34574-0.85992 0.45525-1.8196 0.70681-2.7192 0.53122-2.3219 1.122-4.6376 1.606-6.966zm1.3233 0v0.10602c0.48401 2.3284 1.0748 4.6441 1.606 6.966 0.25156 0.89965 0.36107 1.8593 0.70681 2.7192 1.2239 0.87723 2.4452 1.7587 3.6813 2.6191 0.2505 0.08478 1.0962 0.96847 0.98364 0.53992-2.2941-4.3328-4.637-8.6416-6.9778-12.95zm-2.6329 12.21c-1.0832 0.33504-2.2885 0.74028-2.947 1.7219-0.39178 0.95861 0.35347 1.8734 1.07 2.4346 0.86829 0.69142 1.8217 1.2949 2.839 1.7415-0.88213-1.2296-1.7251-2.6843-1.4627-4.2585 0.05524-0.57786 0.29848-1.1043 0.50066-1.6394zm3.9306 0c0.20218 0.53511 0.44344 1.0615 0.49869 1.6394 0.26244 1.5743-0.58057 3.029-1.4627 4.2585 1.0173-0.44661 1.9727-1.0501 2.841-1.7415 0.71656-0.56116 1.4598-1.476 1.0681-2.4346-0.65848-0.98158-1.8619-1.3868-2.945-1.7219zm-11.007 2.6957c0.0114 0.50208 0.66223 1.3533 0.93652 1.9889 0.69103 1.3802 1.3663 2.7675 2.0517 4.1505-0.35156-1.6005-0.88402-3.1725-1.1466-4.7945 0.64084-0.40962 1.3597-0.68234 2.0439-1.0131-1.2954-0.1106-2.5901-0.22122-3.8855-0.33181zm18.094 0c-1.2954 0.11058-2.5901 0.22122-3.8855 0.33181 0.68412 0.33075 1.403 0.60347 2.0439 1.0131-0.26258 1.622-0.79504 3.194-1.1466 4.7945 0.6854-1.383 1.3607-2.7704 2.0517-4.1505 0.2743-0.63555 0.92504-1.4868 0.93652-1.9889z" opacity=".1"/>
   <path id="path8" d="m10.124 6.1761c-0.01292 1.8046 0.26454 3.6973 1.2407 5.2527 0.37154 0.46932 1.0823 1.4603 1.7082 1.5121 0.36862-0.40949 1.0726-1.206 0.94256-1.6509-1.5585-0.30322-2.8735-1.9905-3.3759-3.3691-0.21351-0.56891-0.35742-1.1593-0.51552-1.7449z" fill="#342522"/>
   <path id="path10" d="m17.356 7.504c-2.2314 2.2512-4.5704 4.557-5.7699 7.5489-0.76292 1.6815-1.2842 3.4647-1.6136 5.2777 0.38636-0.32812 0.82943-1.4281 1.2286-2.036 1.3842-2.4341 2.6782-4.9192 4.0921-7.3358 0.68659-1.1522 1.3746-2.3035 2.0627-3.4547z" fill="#403431"/>
   <path id="path12" d="m17.503 7.3994c-2.3407 4.3087-4.6839 8.6176-6.978 12.95-0.11252 0.42855 0.73352-0.45524 0.98402-0.54002 1.2361-0.86039 2.4576-1.7411 3.6815-2.6183 0.34574-0.85992 0.45575-1.8206 0.70731-2.7202 0.53122-2.3219 1.1212-4.6371 1.6052-6.9655v-0.10632z" fill="#403431"/>
   <path id="path14" d="m16.194 19.61c-1.0832 0.33504-2.2878 0.73965-2.9463 1.7212-0.39178 0.95861 0.35315 1.8743 1.0697 2.4355 0.86829 0.69142 1.822 1.2955 2.8392 1.7421-0.88213-1.2296-1.7248-2.686-1.4624-4.2602 0.05524-0.57786 0.29755-1.1035 0.49973-1.6386z" fill="#342522"/>
   <path id="path16" d="m9.1182 22.307c0.0114 0.50208 0.66174 1.3529 0.93604 1.9885 0.69103 1.3802 1.3675 2.7677 2.0529 4.1507-0.35156-1.6005-0.88431-3.1736-1.1469-4.7956 0.64084-0.40962 1.3599-0.68106 2.044-1.0118-1.2954-0.1106-2.5907-0.22116-3.8861-0.33175z" fill="#403431"/>
   <path id="path18" d="m26.196 6.1761c0.01292 1.8046-0.26455 3.6973-1.2407 5.2527-0.37155 0.46932-1.0823 1.4603-1.7082 1.5121-0.36862-0.40949-1.0726-1.206-0.94257-1.6509 1.5585-0.30322 2.8735-1.9905 3.3759-3.3691 0.21351-0.56891 0.35742-1.1593 0.51552-1.7449z" fill="#342522"/>
   <path id="path20" d="m18.975 7.504c2.2314 2.2512 4.5704 4.557 5.7699 7.5489 0.76292 1.6815 1.2842 3.4647 1.6136 5.2777-0.38636-0.32812-0.82943-1.4281-1.2286-2.036-1.3842-2.4341-2.6782-4.9192-4.0921-7.3358-0.68659-1.1522-1.3746-2.3035-2.0627-3.4547z" fill="#403431"/>
   <path id="path22" d="m18.827 7.3994c2.3407 4.3087 4.6839 8.6176 6.978 12.95 0.11252 0.42855-0.73352-0.45524-0.98402-0.54002-1.2361-0.86039-2.4576-1.7411-3.6815-2.6183-0.34574-0.85992-0.45575-1.8206-0.70731-2.7202-0.53122-2.3219-1.1212-4.6371-1.6052-6.9655v-0.10632z" fill="#403431"/>
   <path id="path24" d="m20.124 19.61c1.0832 0.33504 2.2878 0.73965 2.9463 1.7212 0.39178 0.95861-0.35315 1.8743-1.0697 2.4355-0.86829 0.69142-1.822 1.2955-2.8392 1.7421 0.88213-1.2296 1.7248-2.686 1.4624-4.2602-0.05524-0.57786-0.29755-1.1035-0.49972-1.6386z" fill="#342522"/>
   <path id="path26" d="m27.213 22.307c-0.0114 0.50208-0.66174 1.3529-0.93604 1.9885-0.69103 1.3802-1.3675 2.7677-2.0529 4.1507 0.35156-1.6005 0.88431-3.1736 1.1469-4.7956-0.64084-0.40962-1.3599-0.68106-2.044-1.0118 1.2954-0.1106 2.5907-0.22116 3.8861-0.33175z" fill="#403431"/>
  </g>
 </g>
</svg>
