<?xml version="1.0" encoding="UTF-8"?>
<svg id="svg2478" width="128" height="128" version="1.1" viewBox="0 0 33.867 33.867" xmlns="http://www.w3.org/2000/svg" xmlns:cc="http://creativecommons.org/ns#" xmlns:dc="http://purl.org/dc/elements/1.1/" xmlns:rdf="http://www.w3.org/1999/02/22-rdf-syntax-ns#" xmlns:xlink="http://www.w3.org/1999/xlink">
 <defs id="defs2472">
  <linearGradient id="linearGradient1632" x1="132.16" x2="132.21" y1="40.946" y2="70.68" gradientTransform="matrix(.97573 0 0 .97573 -111.77 -37.262)" gradientUnits="userSpaceOnUse">
   <stop id="stop1626" stop-color="#86e565" offset="0"/>
   <stop id="stop1628" stop-color="#0ea060" offset="1"/>
  </linearGradient>
  <radialGradient id="radialGradient3815-1-0" cx="24.249" cy="24.25" r="9.6332" gradientTransform="matrix(1.4997 0 0 1.4997 -19.505 -19.325)" gradientUnits="userSpaceOnUse">
   <stop id="stop5461" offset="0"/>
   <stop id="stop5463" stop-opacity=".78764" offset=".71616"/>
   <stop id="stop5515" stop-opacity=".67451" offset=".74621"/>
   <stop id="stop5517" stop-opacity=".61961" offset=".76305"/>
   <stop id="stop5513" stop-opacity=".5451" offset=".78595"/>
   <stop id="stop5509" stop-opacity=".48627" offset=".80683"/>
   <stop id="stop5505" stop-opacity=".29804" offset=".86207"/>
   <stop id="stop5503" stop-opacity=".18824" offset=".89036"/>
   <stop id="stop5495" stop-opacity=".082353" offset=".92404"/>
   <stop id="stop5493" stop-opacity=".043137" offset=".9429"/>
   <stop id="stop5481" stop-opacity=".031373" offset=".95596"/>
   <stop id="stop5483" stop-opacity=".027451" offset=".96081"/>
   <stop id="stop5485" stop-opacity="0" offset=".99197"/>
   <stop id="stop5487" stop-opacity="0" offset="1"/>
  </radialGradient>
 </defs>
 <metadata id="metadata2475">
  <rdf:RDF>
   <cc:Work rdf:about="">
    <dc:format>image/svg+xml</dc:format>
    <dc:type rdf:resource="http://purl.org/dc/dcmitype/StillImage"/>
    <dc:title/>
   </cc:Work>
  </rdf:RDF>
 </metadata>
 <g id="layer1">
  <g id="g1702" transform="matrix(.97573 0 0 .97573 -65.754 -37.262)" fill="none" opacity=".29676" stroke="#000" stroke-linecap="round" stroke-linejoin="round" stroke-opacity=".02">
   <rect id="rect1634" x="69.84" y="40.71" width="29.811" height="29.811" rx="6.6099" ry="6.6099" stroke-width=".1"/>
   <rect id="rect1638" x="69.84" y="40.71" width="29.811" height="29.811" rx="6.6099" ry="6.6099" stroke-width=".2"/>
   <rect id="rect1640" x="69.84" y="40.71" width="29.811" height="29.811" rx="6.6099" ry="6.6099" stroke-width=".3"/>
   <rect id="rect1642" x="69.84" y="40.71" width="29.811" height="29.811" rx="6.6099" ry="6.6099" stroke-width=".4"/>
   <rect id="rect1644" x="69.84" y="40.71" width="29.811" height="29.811" rx="6.6099" ry="6.6099" stroke-width=".5"/>
   <rect id="rect1646" x="69.84" y="40.71" width="29.811" height="29.811" rx="6.6099" ry="6.6099" stroke-width=".6"/>
   <rect id="rect1648" x="69.84" y="40.71" width="29.811" height="29.811" rx="6.6099" ry="6.6099" stroke-width=".7"/>
   <rect id="rect1650" x="69.84" y="40.71" width="29.811" height="29.811" rx="6.6099" ry="6.6099" stroke-width=".8"/>
   <rect id="rect1652" x="69.84" y="40.71" width="29.811" height="29.811" rx="6.6099" ry="6.6099"/>
   <rect id="rect1654" x="69.84" y="40.71" width="29.811" height="29.811" rx="6.6099" ry="6.6099" stroke-width="1.2"/>
   <rect id="rect1656" x="69.84" y="40.71" width="29.811" height="29.811" rx="6.6099" ry="6.6099" stroke-width="1.4"/>
   <rect id="rect1658" x="69.84" y="40.71" width="29.811" height="29.811" rx="6.6099" ry="6.6099" stroke-width="1.6"/>
   <rect id="rect1660" x="69.84" y="40.71" width="29.811" height="29.811" rx="6.6099" ry="6.6099" stroke-width="1.8"/>
   <rect id="rect1662" x="69.84" y="40.71" width="29.811" height="29.811" rx="6.6099" ry="6.6099" stroke-width="2"/>
   <rect id="rect1664" x="69.84" y="40.71" width="29.811" height="29.811" rx="6.6099" ry="6.6099" stroke-width="2.2"/>
   <rect id="rect1666" x="69.84" y="40.71" width="29.811" height="29.811" rx="6.6099" ry="6.6099" stroke-width="2.6"/>
   <rect id="rect1668" x="69.84" y="40.71" width="29.811" height="29.811" rx="6.6099" ry="6.6099" stroke-width="3"/>
   <rect id="rect1670" x="69.84" y="40.71" width="29.811" height="29.811" rx="6.6099" ry="6.6099" stroke-width="3.4"/>
   <rect id="rect1672" x="69.84" y="40.71" width="29.811" height="29.811" rx="6.6099" ry="6.6099" stroke-width="3.8"/>
   <rect id="rect1674" x="69.84" y="40.71" width="29.811" height="29.811" rx="6.6099" ry="6.6099" stroke-width="4.2"/>
   <rect id="rect1676" x="69.84" y="40.71" width="29.811" height="29.811" rx="6.6099" ry="6.6099" stroke-width="4.6"/>
   <rect id="rect1678" x="69.84" y="40.71" width="29.811" height="29.811" rx="6.6099" ry="6.6099" stroke-width="5"/>
  </g>
  <rect id="rect849" x="2.4009" y="2.4593" width="29.087" height="29.087" rx="6.4495" ry="6.4495" fill="url(#linearGradient1632)" stroke-linecap="round" stroke-linejoin="round" stroke-width="2.6877"/>
  <path id="path3813-6-0" d="m16.862 2.5961a14.447 14.447 0 0 0-14.447 14.447 14.447 14.447 0 0 0 14.447 14.447 14.447 14.447 0 0 0 14.447-14.447 14.447 14.447 0 0 0-14.447-14.447z" fill="url(#radialGradient3815-1-0)" opacity=".172" stroke-width="3.4128"/>
  <g id="g1720" transform="matrix(.74617 0 0 .74617 28.355 2.5557)">
   <circle id="circle827" cx="-15.292" cy="19.362" r="14.576" fill="#090427"/>
   <path id="rect890" d="m-23.458 9.9602a0.39688 0.39688 0 0 0-0.14418 0.056844 0.39688 0.39688 0 0 0-0.11886 0.5488l1.3384 2.0805c-1.1392 1.0325-1.8573 2.5206-1.8573 4.1863v0.08888h11.303v-0.08888c0-1.6657-0.71803-3.1538-1.8573-4.1863l1.3384-2.0805a0.39688 0.39688 0 0 0-0.11886-0.5488 0.39688 0.39688 0 0 0-0.14418-0.056328 0.39688 0.39688 0 0 0-0.15451 0.00259 0.39688 0.39688 0 0 0-0.2496 0.17312l-1.295 2.0128c-0.90304-0.61106-1.9933-0.9679-3.1703-0.9679-1.1768 0-2.2674 0.35656-3.1703 0.96738l-1.2945-2.0123a0.39688 0.39688 0 0 0-0.2496-0.17312 0.39688 0.39688 0 0 0-0.15503-0.0031zm2.173 3.6856a0.82648 0.82648 0 0 1 0.82631 0.82682 0.82648 0.82648 0 0 1-0.82631 0.82631 0.82648 0.82648 0 0 1-0.82682-0.82631 0.82648 0.82648 0 0 1 0.82682-0.82682zm5.3935 0a0.82648 0.82648 0 0 1 0.82631 0.82682 0.82648 0.82648 0 0 1-0.82631 0.82631 0.82648 0.82648 0 0 1-0.82631-0.82631 0.82648 0.82648 0 0 1 0.82631-0.82682zm-8.3483 4.3909v7.5541c0 1.7615 1.4181 3.1796 3.1797 3.1797h4.9429c1.7573-5e-6 3.1729-1.4116 3.1797-3.1672h-1.3648c-0.07078-0.49336 0.29047-0.77677 0.29507-1.2867 5.29e-4 -0.0022 1e-3 -0.0045 0.0016-0.0067-2.52e-4 -0.0019-3.44e-4 -0.0038-5.3e-4 -0.0057-0.0031-0.47819-0.39151-0.86428-0.86971-0.86455-0.478 5.55e-4 -0.86608 0.38656-0.8692 0.86455v5.29e-4c-2.65e-4 0.0017-7.68e-4 0.0034-1e-3 0.0052 7.94e-4 0.0036 0.0013 0.0072 0.0021 0.01085 0.0061 0.50725 0.32487 0.7906 0.24856 1.2826h-1.5229c-0.52497 0-0.94775-0.42278-0.94775-0.94775v-1.2914c-0.42691-0.0069-0.70326 0.30375-1.1736 0.30799-0.0022 5.29e-4 -0.0046 1e-3 -0.0067 0.0016-0.0019-2.65e-4 -0.0038-3.44e-4 -0.0057-5.29e-4 -0.47819-0.0031-0.86428-0.39151-0.86455-0.86972 5.55e-4 -0.478 0.38656-0.86608 0.86455-0.8692h5.3e-4c0.0017-2.65e-4 0.0033-7.68e-4 0.0052-1e-3 0.0036 7.93e-4 0.0073 0.0013 0.01085 0.0021 0.46766 0.0056 0.74382 0.27976 1.1694 0.26303v-1.2476c0-0.52497 0.42278-0.94723 0.94775-0.94723h1.5239c0.07297 0.48852-0.24355 0.77161-0.2496 1.2769-7.94e-4 0.0036-0.0013 0.0072-0.0021 0.01085 2.65e-4 0.0017 7.67e-4 0.0034 1e-3 0.0052v5.3e-4c0.0031 0.47799 0.3912 0.86399 0.8692 0.86455 0.4782-2.65e-4 0.86659-0.38636 0.86972-0.86455 1.58e-4 -0.0019 2.52e-4 -0.0038 5.29e-4 -0.0057-5.29e-4 -0.0022-1e-3 -0.0045-0.0016-0.0067-0.0046-0.50803-0.36329-0.7912-0.29611-1.2811h1.3663v-1.9668z" fill="#fff"/>
   <g id="g931" transform="matrix(.26458 0 0 .26458 -32.513 2.353)">
    <path id="path933" d="m74.241 38.898 7.0686-10.989" color="#000000" fill="none" stroke-linecap="round" stroke-width="3"/>
   </g>
   <g id="g917" transform="matrix(.26458 0 0 .26458 -32.513 2.353)">
    <path id="path925" d="m52.103 38.898-7.0686-10.989" color="#000000" fill="none" stroke-linecap="round" stroke-width="3"/>
   </g>
   <path id="rect953" d="m-10.245 19.799c-0.52497 0-0.94774 0.42226-0.94774 0.94723v1.2475c-0.42562 0.01672-0.70177-0.25744-1.1694-0.26303-0.0036-7.94e-4 -0.0072-0.0013-0.01085-0.0021-0.0019 2.64e-4 -0.0034 7.67e-4 -0.0052 1e-3h-5.29e-4c-0.47799 0.0031-0.86399 0.3912-0.86455 0.8692 2.64e-4 0.4782 0.38636 0.86659 0.86455 0.86971 0.0019 1.77e-4 0.0038 2.52e-4 0.0057 5.29e-4 0.0021-5.29e-4 0.0045-1e-3 0.0067-0.0016 0.47031-0.0042 0.74666-0.3149 1.1736-0.30799v1.2914c0 0.52497 0.42278 0.94775 0.94774 0.94775h1.5229c0.076306-0.49201-0.24249-0.77536-0.24856-1.2826-7.937e-4 -0.0036-0.00132-0.0072-0.00212-0.01085 2.646e-4 -0.0017 7.937e-4 -0.0034 0.00106-0.0052v-5.3e-4c0.00312-0.47799 0.3912-0.86399 0.8692-0.86455 0.4782 2.64e-4 0.86659 0.38636 0.86972 0.86455 1.773e-4 0.0019 2.513e-4 0.0038 5.292e-4 0.0057-5.292e-4 0.0022-0.00106 0.0045-0.00159 0.0067-0.0046 0.50998-0.36585 0.79338-0.29507 1.2867h1.5694c0.52497 0 0.94775-0.42278 0.94775-0.94775v-3.7047c0-0.52497-0.42278-0.94723-0.94775-0.94723h-1.5704c-0.06718 0.48986 0.29152 0.77303 0.29611 1.2811 5.291e-4 0.0022 0.00106 0.0045 0.00159 0.0067-2.646e-4 0.0019-2.646e-4 0.0038-5.292e-4 0.0057-0.00312 0.47819-0.39151 0.86428-0.86972 0.86455-0.478-5.56e-4 -0.86608-0.38656-0.8692-0.86455v-5.29e-4c-2.646e-4 -0.0017-7.937e-4 -0.0034-0.00106-0.0052 7.937e-4 -0.0036 0.00132-0.0072 0.00212-0.01085 0.00603-0.50531 0.32257-0.7884 0.2496-1.2769z" fill="#fff"/>
  </g>
 </g>
</svg>
