<?xml version="1.0" encoding="UTF-8"?>
<svg id="svg2547" width="128" height="128" version="1.1" viewBox="0 0 33.867 33.867" xmlns="http://www.w3.org/2000/svg" xmlns:cc="http://creativecommons.org/ns#" xmlns:dc="http://purl.org/dc/elements/1.1/" xmlns:rdf="http://www.w3.org/1999/02/22-rdf-syntax-ns#" xmlns:xlink="http://www.w3.org/1999/xlink">
 <defs id="defs2541">
  <linearGradient id="linearGradient936" x1="-27.206" x2="-27.206" y1="-1.3796" y2="25.268" gradientTransform="translate(43.842 5.6325)" gradientUnits="userSpaceOnUse">
   <stop id="stop930" stop-color="#f5f9fb" offset="0"/>
   <stop id="stop932" stop-color="#f5eeec" offset="1"/>
  </linearGradient>
 </defs>
 <metadata id="metadata2544">
  <rdf:RDF>
   <cc:Work rdf:about="">
    <dc:format>image/svg+xml</dc:format>
    <dc:type rdf:resource="http://purl.org/dc/dcmitype/StillImage"/>
   </cc:Work>
  </rdf:RDF>
 </metadata>
 <g id="layer1">
  <g id="g1702" transform="matrix(.97573 0 0 .97573 -65.777 -37.256)" fill="none" opacity=".29676" stroke="#000" stroke-linecap="round" stroke-linejoin="round" stroke-opacity=".02">
   <rect id="rect1634" x="69.84" y="40.71" width="29.811" height="29.811" rx="6.6099" ry="6.6099" stroke-width=".1"/>
   <rect id="rect1638" x="69.84" y="40.71" width="29.811" height="29.811" rx="6.6099" ry="6.6099" stroke-width=".2"/>
   <rect id="rect1640" x="69.84" y="40.71" width="29.811" height="29.811" rx="6.6099" ry="6.6099" stroke-width=".3"/>
   <rect id="rect1642" x="69.84" y="40.71" width="29.811" height="29.811" rx="6.6099" ry="6.6099" stroke-width=".4"/>
   <rect id="rect1644" x="69.84" y="40.71" width="29.811" height="29.811" rx="6.6099" ry="6.6099" stroke-width=".5"/>
   <rect id="rect1646" x="69.84" y="40.71" width="29.811" height="29.811" rx="6.6099" ry="6.6099" stroke-width=".6"/>
   <rect id="rect1648" x="69.84" y="40.71" width="29.811" height="29.811" rx="6.6099" ry="6.6099" stroke-width=".7"/>
   <rect id="rect1650" x="69.84" y="40.71" width="29.811" height="29.811" rx="6.6099" ry="6.6099" stroke-width=".8"/>
   <rect id="rect1652" x="69.84" y="40.71" width="29.811" height="29.811" rx="6.6099" ry="6.6099"/>
   <rect id="rect1654" x="69.84" y="40.71" width="29.811" height="29.811" rx="6.6099" ry="6.6099" stroke-width="1.2"/>
   <rect id="rect1656" x="69.84" y="40.71" width="29.811" height="29.811" rx="6.6099" ry="6.6099" stroke-width="1.4"/>
   <rect id="rect1658" x="69.84" y="40.71" width="29.811" height="29.811" rx="6.6099" ry="6.6099" stroke-width="1.6"/>
   <rect id="rect1660" x="69.84" y="40.71" width="29.811" height="29.811" rx="6.6099" ry="6.6099" stroke-width="1.8"/>
   <rect id="rect1662" x="69.84" y="40.71" width="29.811" height="29.811" rx="6.6099" ry="6.6099" stroke-width="2"/>
   <rect id="rect1664" x="69.84" y="40.71" width="29.811" height="29.811" rx="6.6099" ry="6.6099" stroke-width="2.2"/>
   <rect id="rect1666" x="69.84" y="40.71" width="29.811" height="29.811" rx="6.6099" ry="6.6099" stroke-width="2.6"/>
   <rect id="rect1668" x="69.84" y="40.71" width="29.811" height="29.811" rx="6.6099" ry="6.6099" stroke-width="3"/>
   <rect id="rect1670" x="69.84" y="40.71" width="29.811" height="29.811" rx="6.6099" ry="6.6099" stroke-width="3.4"/>
   <rect id="rect1672" x="69.84" y="40.71" width="29.811" height="29.811" rx="6.6099" ry="6.6099" stroke-width="3.8"/>
   <rect id="rect1674" x="69.84" y="40.71" width="29.811" height="29.811" rx="6.6099" ry="6.6099" stroke-width="4.2"/>
   <rect id="rect1676" x="69.84" y="40.71" width="29.811" height="29.811" rx="6.6099" ry="6.6099" stroke-width="4.6"/>
   <rect id="rect1678" x="69.84" y="40.71" width="29.811" height="29.811" rx="6.6099" ry="6.6099" stroke-width="5"/>
  </g>
  <rect id="rect849-5" x="2.3673" y="2.4659" width="29.087" height="29.087" rx="6.4495" ry="6.4495" fill="url(#linearGradient936)" stroke-linecap="round" stroke-linejoin="round" stroke-width="2.6877"/>
  <path id="path2" d="m7.687 17.537v1.9261h2.5681v7.0623h15.409v-1.9261h-2.5681v-7.0623h-8.9883z" opacity=".2" stroke-width=".32101"/>
  <path id="path4" d="m7.687 17.216v1.9261h2.5681v7.0623h1.9261v-7.0623h1.9261v-1.9261z" fill="#0c91fa" stroke-width=".32101"/>
  <path id="path6" d="m12.181 19.143v7.0623h4.4942v-8.9883h-2.5681v1.9261z" fill="#0470c5" stroke-width=".32101"/>
  <path id="path8" d="m16.675 17.216v8.9883h4.4942v-8.9883z" fill="#034d87" stroke-width=".32101"/>
  <path id="path10" d="m21.169 17.216v8.9883h4.4942v-1.9261h-2.5681v-7.0623z" fill="#02355f" stroke-width=".32101"/>
  <path id="path12" d="m7.687 8.5491v8.9883h17.977v-2.2471l-2.2471-2.2471 2.2471-2.2471v-2.2471h-11.556z" opacity=".2" stroke-width=".32101"/>
  <path id="path14" d="m7.687 17.216h6.4202v-8.9883h-6.4202z" fill="#5dec36" stroke-width=".32101"/>
  <path id="path16" d="m14.107 17.216h3.5311v-2.2471h3.5311v-6.7412h-7.0623z" fill="#39c713" stroke-width=".32101"/>
  <path id="path18" d="m17.638 14.969v2.2471h8.0253v-2.2471l-2.2471-2.2471 2.2471-2.2471v-2.2471h-4.4942v6.7412z" fill="#2d9d0e" stroke-width=".32101"/>
  <path id="path20" d="m10.255 10.475v3.5311h0.96304v-3.5311zm7.0623 0v3.5311h0.96304v-3.5311zm-7.0623 4.4942v2.5681h0.96304v-2.5681z" opacity=".2" stroke-width=".32101"/>
  <path id="path22" d="m10.255 10.154v3.5311h0.96304v-3.5311zm7.0623 0v3.5311h0.96304v-3.5311zm-7.0623 4.4942v2.5681h0.96304v-2.5681z" fill="#fff" stroke-width=".32101"/>
  <path id="path24" d="m14.107 20.106v3.8521h0.96304v-3.8521zm4.4942 0v3.8521h0.96304v-3.8521z" opacity=".2" stroke-width=".32101"/>
  <rect id="rect26" x="14.107" y="19.785" width=".96304" height="3.8521" fill="#fff" stroke-width=".32101"/>
  <rect id="rect28" x="18.601" y="19.785" width=".96304" height="3.8521" fill="#fff" stroke-width=".32101"/>
  <path id="path30" d="m7.687 8.2281v0.32101h17.977v-0.32101h-11.556zm15.89 4.6547-0.1605 0.16051 2.2471 2.2471v-0.32101z" fill="#fff" opacity=".2" stroke-width=".32101"/>
 </g>
</svg>
