<?xml version="1.0" encoding="UTF-8"?>
<svg id="svg2547" width="128" height="128" version="1.1" viewBox="0 0 33.867 33.867" xmlns="http://www.w3.org/2000/svg" xmlns:cc="http://creativecommons.org/ns#" xmlns:dc="http://purl.org/dc/elements/1.1/" xmlns:rdf="http://www.w3.org/1999/02/22-rdf-syntax-ns#" xmlns:xlink="http://www.w3.org/1999/xlink">
 <defs id="defs2541">
  <linearGradient id="linearGradient936" x1="-27.206" x2="-27.206" y1="-1.3796" y2="25.268" gradientTransform="translate(43.842 5.6325)" gradientUnits="userSpaceOnUse">
   <stop id="stop930" stop-color="#b142ff" offset="0"/>
   <stop id="stop932" stop-color="#3500f1" offset="1"/>
  </linearGradient>
  <linearGradient id="linearGradient1268" x1="5.6797" x2="5.6797" y1="9.4537" y2="53.223" gradientUnits="userSpaceOnUse">
   <stop id="stop1262" stop-color="#fff" offset="0"/>
   <stop id="stop1264" stop-color="#6017f6" offset="1"/>
  </linearGradient>
 </defs>
 <metadata id="metadata2544">
  <rdf:RDF>
   <cc:Work rdf:about="">
    <dc:format>image/svg+xml</dc:format>
    <dc:type rdf:resource="http://purl.org/dc/dcmitype/StillImage"/>
   </cc:Work>
  </rdf:RDF>
 </metadata>
 <g id="layer1">
  <g id="g1702" transform="matrix(.97573 0 0 .97573 -65.777 -37.256)" fill="none" opacity=".29676" stroke="#000" stroke-linecap="round" stroke-linejoin="round" stroke-opacity=".02">
   <rect id="rect1634" x="69.84" y="40.71" width="29.811" height="29.811" rx="6.6099" ry="6.6099" stroke-width=".1"/>
   <rect id="rect1638" x="69.84" y="40.71" width="29.811" height="29.811" rx="6.6099" ry="6.6099" stroke-width=".2"/>
   <rect id="rect1640" x="69.84" y="40.71" width="29.811" height="29.811" rx="6.6099" ry="6.6099" stroke-width=".3"/>
   <rect id="rect1642" x="69.84" y="40.71" width="29.811" height="29.811" rx="6.6099" ry="6.6099" stroke-width=".4"/>
   <rect id="rect1644" x="69.84" y="40.71" width="29.811" height="29.811" rx="6.6099" ry="6.6099" stroke-width=".5"/>
   <rect id="rect1646" x="69.84" y="40.71" width="29.811" height="29.811" rx="6.6099" ry="6.6099" stroke-width=".6"/>
   <rect id="rect1648" x="69.84" y="40.71" width="29.811" height="29.811" rx="6.6099" ry="6.6099" stroke-width=".7"/>
   <rect id="rect1650" x="69.84" y="40.71" width="29.811" height="29.811" rx="6.6099" ry="6.6099" stroke-width=".8"/>
   <rect id="rect1652" x="69.84" y="40.71" width="29.811" height="29.811" rx="6.6099" ry="6.6099"/>
   <rect id="rect1654" x="69.84" y="40.71" width="29.811" height="29.811" rx="6.6099" ry="6.6099" stroke-width="1.2"/>
   <rect id="rect1656" x="69.84" y="40.71" width="29.811" height="29.811" rx="6.6099" ry="6.6099" stroke-width="1.4"/>
   <rect id="rect1658" x="69.84" y="40.71" width="29.811" height="29.811" rx="6.6099" ry="6.6099" stroke-width="1.6"/>
   <rect id="rect1660" x="69.84" y="40.71" width="29.811" height="29.811" rx="6.6099" ry="6.6099" stroke-width="1.8"/>
   <rect id="rect1662" x="69.84" y="40.71" width="29.811" height="29.811" rx="6.6099" ry="6.6099" stroke-width="2"/>
   <rect id="rect1664" x="69.84" y="40.71" width="29.811" height="29.811" rx="6.6099" ry="6.6099" stroke-width="2.2"/>
   <rect id="rect1666" x="69.84" y="40.71" width="29.811" height="29.811" rx="6.6099" ry="6.6099" stroke-width="2.6"/>
   <rect id="rect1668" x="69.84" y="40.71" width="29.811" height="29.811" rx="6.6099" ry="6.6099" stroke-width="3"/>
   <rect id="rect1670" x="69.84" y="40.71" width="29.811" height="29.811" rx="6.6099" ry="6.6099" stroke-width="3.4"/>
   <rect id="rect1672" x="69.84" y="40.71" width="29.811" height="29.811" rx="6.6099" ry="6.6099" stroke-width="3.8"/>
   <rect id="rect1674" x="69.84" y="40.71" width="29.811" height="29.811" rx="6.6099" ry="6.6099" stroke-width="4.2"/>
   <rect id="rect1676" x="69.84" y="40.71" width="29.811" height="29.811" rx="6.6099" ry="6.6099" stroke-width="4.6"/>
   <rect id="rect1678" x="69.84" y="40.71" width="29.811" height="29.811" rx="6.6099" ry="6.6099" stroke-width="5"/>
  </g>
  <rect id="rect849-5" x="2.3673" y="2.4659" width="29.087" height="29.087" rx="6.4495" ry="6.4495" fill="url(#linearGradient936)" stroke-linecap="round" stroke-linejoin="round" stroke-width="2.6877"/>
  <g id="g2511" fill="#130236" fill-opacity=".074937" opacity=".32572" stroke-width=".45649">
   <path id="path2421" d="m14.233 9.9994c-0.22974 0.0088-0.4397 0.13243-0.55898 0.32898l-7.5315 12.325c-0.27687 0.45554 0.05 1.0388 0.58305 1.0404h20.541c0.49494 0.0011 0.82759-0.50704 0.62852-0.9602l-4.7928-10.955c-0.11363-0.2593-0.37512-0.42194-0.65794-0.40922-0.26274 0.01173-0.49558 0.17279-0.5991 0.41457l-2.7066 6.2747-4.282-7.7057c-0.1247-0.2256-0.36555-0.36205-0.62317-0.35305zm0.0261 2.0541 1.8755 3.4235h-1.8775l-1.3694 1.3694-0.98958-0.98962zm8.2148 1.1411 1.5961 4.2216-1.5967 0.79972-1.5753-0.78635zm-11.183 3.6519h0.22734l1.3694 1.3694 1.3694-1.3694h2.6398l1.685 3.0304c0.01855 0.04515 0.04184 0.0882 0.06953 0.12838l1.2891 2.3189h-11.995zm13.271 1.6931 1.6555 3.7846h-4.7099l-1.5325-2.7549 0.43863-1.0137 2.0594 1.0297z"/>
   <path id="path2495" d="m14.34 10.228c-0.22974 0.0088-0.4397 0.13243-0.55898 0.32898l-7.5315 12.325c-0.27687 0.45554 0.05 1.0388 0.58305 1.0404h20.541c0.49494 0.0011 0.82759-0.50704 0.62852-0.9602l-4.7928-10.955c-0.11363-0.2593-0.37512-0.42194-0.65794-0.40922-0.26274 0.01173-0.49558 0.17279-0.5991 0.41457l-2.7066 6.2747-4.282-7.7057c-0.1247-0.2256-0.36555-0.36205-0.62317-0.35305zm0.0261 2.0541 1.8755 3.4235h-1.8775l-1.3694 1.3694-0.98958-0.98962zm8.2148 1.1411 1.5961 4.2216-1.5967 0.79972-1.5753-0.78635zm-11.183 3.6519h0.22734l1.3694 1.3694 1.3694-1.3694h2.6398l1.685 3.0304c0.01855 0.04515 0.04184 0.0882 0.06953 0.12838l1.2891 2.3189h-11.995zm13.271 1.6931 1.6555 3.7846h-4.7099l-1.5325-2.7549 0.43863-1.0137 2.0594 1.0297z"/>
   <path id="path2497" d="m14.467 10.36c-0.22974 0.0088-0.4397 0.13243-0.55898 0.32898l-7.5315 12.325c-0.27687 0.45554 0.05 1.0388 0.58305 1.0404h20.541c0.49494 0.0011 0.82759-0.50704 0.62852-0.9602l-4.7928-10.955c-0.11363-0.2593-0.37512-0.42194-0.65794-0.40922-0.26274 0.01173-0.49558 0.17279-0.5991 0.41457l-2.7066 6.2747-4.282-7.7057c-0.1247-0.2256-0.36555-0.36205-0.62317-0.35305zm0.0261 2.0541 1.8755 3.4235h-1.8775l-1.3694 1.3694-0.98958-0.98962zm8.2148 1.1411 1.5961 4.2216-1.5967 0.79972-1.5753-0.78635zm-11.183 3.6519h0.22734l1.3694 1.3694 1.3694-1.3694h2.6398l1.685 3.0304c0.01855 0.04515 0.04184 0.0882 0.06953 0.12838l1.2891 2.3189h-11.995zm13.271 1.6931 1.6555 3.7846h-4.7099l-1.5325-2.7549 0.43863-1.0137 2.0594 1.0297z"/>
   <path id="path2499" d="m14.635 10.456c-0.22974 0.0088-0.4397 0.13243-0.55898 0.32898l-7.5315 12.325c-0.27687 0.45554 0.05 1.0388 0.58305 1.0404h20.541c0.49494 0.0011 0.82759-0.50704 0.62852-0.9602l-4.7928-10.955c-0.11363-0.2593-0.37512-0.42194-0.65794-0.40922-0.26274 0.01173-0.49558 0.17279-0.5991 0.41457l-2.7066 6.2747-4.282-7.7057c-0.1247-0.2256-0.36555-0.36205-0.62317-0.35305zm0.0261 2.0541 1.8755 3.4235h-1.8775l-1.3694 1.3694-0.98958-0.98962zm8.2148 1.1411 1.5961 4.2216-1.5967 0.79972-1.5753-0.78635zm-11.183 3.6519h0.22734l1.3694 1.3694 1.3694-1.3694h2.6398l1.685 3.0304c0.01855 0.04515 0.04184 0.0882 0.06953 0.12838l1.2891 2.3189h-11.995zm13.271 1.6931 1.6555 3.7846h-4.7099l-1.5325-2.7549 0.43863-1.0137 2.0594 1.0297z"/>
   <path id="path2501" d="m14.742 10.547c-0.22974 0.0088-0.4397 0.13243-0.55898 0.32898l-7.5315 12.325c-0.27687 0.45554 0.05 1.0388 0.58305 1.0404h20.541c0.49494 0.0011 0.82759-0.50704 0.62852-0.9602l-4.7928-10.955c-0.11363-0.2593-0.37512-0.42194-0.65794-0.40922-0.26274 0.01173-0.49558 0.17279-0.5991 0.41457l-2.7066 6.2747-4.282-7.7057c-0.1247-0.2256-0.36555-0.36205-0.62317-0.35305zm0.0261 2.0541 1.8755 3.4235h-1.8775l-1.3694 1.3694-0.98958-0.98962zm8.2148 1.1411 1.5961 4.2216-1.5967 0.79972-1.5753-0.78635zm-11.183 3.6519h0.22734l1.3694 1.3694 1.3694-1.3694h2.6398l1.685 3.0304c0.01855 0.04515 0.04184 0.0882 0.06953 0.12838l1.2891 2.3189h-11.995zm13.271 1.6931 1.6555 3.7846h-4.7099l-1.5325-2.7549 0.43863-1.0137 2.0594 1.0297z"/>
   <path id="path2503" d="m14.807 10.62c-0.22974 0.0088-0.4397 0.13243-0.55898 0.32898l-7.5315 12.325c-0.27687 0.45554 0.05 1.0388 0.58305 1.0404h20.541c0.49494 0.0011 0.82759-0.50704 0.62852-0.9602l-4.7928-10.955c-0.11363-0.2593-0.37512-0.42194-0.65794-0.40922-0.26274 0.01173-0.49558 0.17279-0.5991 0.41457l-2.7066 6.2747-4.282-7.7057c-0.1247-0.2256-0.36555-0.36205-0.62317-0.35305zm0.0261 2.0541 1.8755 3.4235h-1.8775l-1.3694 1.3694-0.98958-0.98962zm8.2148 1.1411 1.5961 4.2216-1.5967 0.79972-1.5753-0.78635zm-11.183 3.6519h0.22734l1.3694 1.3694 1.3694-1.3694h2.6398l1.685 3.0304c0.01855 0.04515 0.04184 0.0882 0.06953 0.12838l1.2891 2.3189h-11.995zm13.271 1.6931 1.6555 3.7846h-4.7099l-1.5325-2.7549 0.43863-1.0137 2.0594 1.0297z"/>
  </g>
  <path id="path10" d="m13.871 9.7129c-0.22974 0.0088-0.4397 0.13243-0.55898 0.32898l-7.5315 12.325c-0.27687 0.45554 0.05 1.0388 0.58305 1.0404h20.541c0.49494 0.0011 0.82759-0.50704 0.62852-0.9602l-4.7928-10.955c-0.11363-0.2593-0.37512-0.42194-0.65794-0.40922-0.26274 0.01173-0.49558 0.17279-0.5991 0.41457l-2.7066 6.2747-4.282-7.7057c-0.1247-0.2256-0.36555-0.36205-0.62317-0.35305zm0.0261 2.0541 1.8755 3.4235h-1.8775l-1.3694 1.3694-0.98958-0.98962zm8.2148 1.1411 1.5961 4.2216-1.5967 0.79972-1.5753-0.78635zm-11.183 3.6519h0.22734l1.3694 1.3694 1.3694-1.3694h2.6398l1.685 3.0304c0.01855 0.04515 0.04184 0.0882 0.06953 0.12838l1.2891 2.3189h-11.995zm13.271 1.6931 1.6555 3.7846h-4.7099l-1.5325-2.7549 0.43863-1.0137 2.0594 1.0297z" fill="url(#linearGradient1268)" stroke-width=".45649"/>
 </g>
</svg>
