<?xml version="1.0" encoding="UTF-8"?>
<svg id="svg6" width="128" height="128" version="1.1" viewBox="0 0 33.867 33.867" xmlns="http://www.w3.org/2000/svg" xmlns:cc="http://creativecommons.org/ns#" xmlns:dc="http://purl.org/dc/elements/1.1/" xmlns:rdf="http://www.w3.org/1999/02/22-rdf-syntax-ns#" xmlns:xlink="http://www.w3.org/1999/xlink">
 <metadata id="metadata99">
  <rdf:RDF>
   <cc:Work rdf:about="">
    <dc:format>image/svg+xml</dc:format>
    <dc:type rdf:resource="http://purl.org/dc/dcmitype/StillImage"/>
    <dc:title/>
   </cc:Work>
  </rdf:RDF>
 </metadata>
 <defs id="defs2">
  <linearGradient id="linearGradient1632" x1="132.21" x2="132.21" y1="42.152" y2="70.68" gradientTransform="matrix(.97573 0 0 .97573 -111.78 -37.203)" gradientUnits="userSpaceOnUse">
   <stop id="stop1626" stop-color="#ebf3f4" offset="0"/>
   <stop id="stop1628" stop-color="#e6e8e9" offset="1"/>
  </linearGradient>
  <linearGradient id="linearGradient5190">
   <stop id="stop5192" stop-color="#fff" stop-opacity="0" offset="0"/>
   <stop id="stop5194" stop-color="#fff" stop-opacity=".2" offset=".26995"/>
   <stop id="stop5196" stop-color="#d5e1ee" stop-opacity=".85" offset=".37416"/>
   <stop id="stop5198" stop-color="#e8edf6" offset=".48819"/>
   <stop id="stop5200" stop-color="#ebf0f9" stop-opacity=".85" offset=".5959"/>
   <stop id="stop5202" stop-color="#fff" stop-opacity=".2" offset=".71501"/>
   <stop id="stop5204" stop-color="#e8e8e8" stop-opacity="0" offset="1"/>
  </linearGradient>
  <linearGradient id="linearGradient3631" x1="-62.747" x2="-33.313" y1="76.556" y2="35.309" gradientTransform="matrix(.96123 0 0 .96123 52.064 -10.159)" gradientUnits="userSpaceOnUse" xlink:href="#linearGradient5190"/>
  <linearGradient id="linearGradient5208" x1="-62.747" x2="-33.313" y1="76.556" y2="35.309" gradientTransform="matrix(.96123 0 0 .96123 87.746 -70.643)" gradientUnits="userSpaceOnUse" xlink:href="#linearGradient5190"/>
  <linearGradient id="linearGradient5212" x1="-62.747" x2="-33.313" y1="76.556" y2="35.309" gradientTransform="matrix(.80528 0 0 .80528 44.665 -1.4051)" gradientUnits="userSpaceOnUse" xlink:href="#linearGradient5190"/>
  <linearGradient id="linearGradient5220" x1="-62.747" x2="-33.313" y1="76.556" y2="35.309" gradientTransform="matrix(.80528 0 0 .80528 -3.1387 -32.172)" gradientUnits="userSpaceOnUse" xlink:href="#linearGradient5190"/>
  <linearGradient id="linearGradient5270" x1="-62.747" x2="-33.313" y1="76.556" y2="35.309" gradientTransform="matrix(.62794 0 0 .62794 36.049 8.5743)" gradientUnits="userSpaceOnUse" xlink:href="#linearGradient5190"/>
  <linearGradient id="linearGradient5274" x1="-62.747" x2="-33.313" y1="76.556" y2="35.309" gradientTransform="matrix(.64884 0 0 .64884 -10.251 -21.893)" gradientUnits="userSpaceOnUse" xlink:href="#linearGradient5190"/>
  <linearGradient id="linearGradient5278" x1="-62.747" x2="-33.313" y1="76.556" y2="35.309" gradientTransform="matrix(.51648 0 0 .51648 30.634 14.847)" gradientUnits="userSpaceOnUse" xlink:href="#linearGradient5190"/>
  <linearGradient id="linearGradient5282" x1="-62.747" x2="-33.313" y1="76.556" y2="35.309" gradientTransform="matrix(.34847 0 0 .34847 22.471 24.301)" gradientUnits="userSpaceOnUse" xlink:href="#linearGradient5190"/>
  <linearGradient id="linearGradient5288" x1="-62.747" x2="-33.313" y1="76.556" y2="35.309" gradientTransform="matrix(.34847 0 0 .34847 -25.419 -6.7507)" gradientUnits="userSpaceOnUse" xlink:href="#linearGradient5190"/>
  <linearGradient id="linearGradient5298" x1="48.952" x2="48.952" y1="1032.5" y2="1028" gradientTransform="matrix(.34956 0 0 .34956 .41942 -332.82)" gradientUnits="userSpaceOnUse">
   <stop id="stop5294" stop-color="#b8c5d3" offset="0"/>
   <stop id="stop5296" stop-color="#dfe4e9" offset="1"/>
  </linearGradient>
  <linearGradient id="linearGradient5302" x1="-62.747" x2="-33.313" y1="76.556" y2="35.309" gradientTransform="matrix(.26139 0 0 .26139 18.241 29.201)" gradientUnits="userSpaceOnUse" xlink:href="#linearGradient5190"/>
  <linearGradient id="linearGradient5306" x1="-62.747" x2="-33.313" y1="76.556" y2="35.309" gradientTransform="matrix(.26139 0 0 .26139 55.009 -27.699)" gradientUnits="userSpaceOnUse" xlink:href="#linearGradient5190"/>
  <linearGradient id="linearGradient5327" x1="48.095" x2="48.095" y1="994.35" y2="996.96" gradientTransform="translate(-91.932 -990.28)" gradientUnits="userSpaceOnUse">
   <stop id="stop5331" stop-color="#dde2ec" offset="0"/>
   <stop id="stop5333" stop-color="#fff" offset="1"/>
  </linearGradient>
  <linearGradient id="linearGradient2553" x1="14.988" x2="14.988" y1="7.0459" y2="31.425" gradientUnits="userSpaceOnUse">
   <stop id="stop2547" stop-color="#776357" offset="0"/>
   <stop id="stop2549" stop-color="#3b3232" offset="1"/>
  </linearGradient>
  <filter id="filter1" x="-.23086" y="-.23086" width="1.4617" height="1.4617" color-interpolation-filters="sRGB">
   <feGaussianBlur id="feGaussianBlur1" stdDeviation="1.7728824"/>
  </filter>
 </defs>
 <g id="layer1">
  <rect id="rect1678" x="2.4675" y="2.5898" width="28.945" height="28.945" rx="6.4179" ry="6.4179" fill="#515151" fill-opacity=".99849" filter="url(#filter1)" opacity=".25" stroke="#000" stroke-linecap="round" stroke-linejoin="round" stroke-opacity=".02" stroke-width="4.8548"/>
  <rect id="rect849" x="2.3963" y="2.5186" width="29.087" height="29.087" rx="6.4495" ry="6.4495" fill="url(#linearGradient1632)" stroke-linecap="round" stroke-linejoin="round" stroke-width="2.6877"/>
  <rect id="rect2545" x="3.5538" y="3.6761" width="26.772" height="26.772" rx="5.6935" ry="5.6935" fill="url(#linearGradient2553)" stroke-linecap="round" stroke-linejoin="round" stroke-width="2.6877"/>
  <g id="g1465" transform="matrix(.358 .053259 -.053259 .358 32.953 14.666)">
   <path id="path5117" transform="scale(-1,1)" d="m37.462 29.513a25 25 0 0 1-17.684-30.595 25 25 0 0 1 30.577-17.714 25 25 0 0 1 17.745 30.56 25 25 0 0 1-30.542 17.775" fill="#060606" fill-opacity=".4"/>
   <path id="path5129" transform="scale(-1,1)" d="m37.591 29.03a24.5 24.5 0 0 1-17.33-29.983 24.5 24.5 0 0 1 29.966-17.36 24.5 24.5 0 0 1 17.39 29.948 24.5 24.5 0 0 1-29.931 17.419" fill="#d8e4f4"/>
   <g id="g1432">
    <path id="path5119" transform="scale(-1,1)" d="m37.723 28.539a23.992 23.992 0 0 1-16.971-29.361 23.992 23.992 0 0 1 29.345-17 23.992 23.992 0 0 1 17.029 29.328 23.992 23.992 0 0 1-29.311 17.058" fill="#8193ab"/>
    <circle id="circle5206" transform="rotate(195)" cx="41.047" cy="-16.552" r="24" fill="url(#linearGradient5208)"/>
    <circle id="path3559" transform="rotate(90)" cx="5.3644" cy="43.932" r="24" fill="url(#linearGradient3631)"/>
    <path id="path5125" transform="scale(-1,1)" d="m38.589 25.304a20.643 20.643 0 0 1-14.602-25.263 20.643 20.643 0 0 1 25.249-14.627 20.643 20.643 0 0 1 14.652 25.234 20.643 20.643 0 0 1-25.22 14.677" fill="#ced8e7"/>
    <path id="path5127" transform="scale(-1,1)" d="m38.719 24.822a20.143 20.143 0 0 1-14.249-24.651 20.143 20.143 0 0 1 24.637-14.273 20.143 20.143 0 0 1 14.298 24.623 20.143 20.143 0 0 1-24.609 14.322" fill="#8c98ac"/>
    <path id="path5123" transform="scale(-1,1)" d="m38.848 24.339a19.644 19.644 0 0 1-13.895-24.04 19.644 19.644 0 0 1 24.026-13.919 19.644 19.644 0 0 1 13.943 24.012 19.644 19.644 0 0 1-23.998 13.967" fill="#8f9eb2"/>
    <circle id="circle5214" transform="rotate(10.313)" cx="-42.262" cy="13.143" r="20.106" fill="url(#linearGradient5220)" opacity=".7"/>
    <path id="path5145" transform="scale(-1,1)" d="m39.66 21.309a16.507 16.507 0 0 1-11.677-20.201 16.507 16.507 0 0 1 20.19-11.697 16.507 16.507 0 0 1 11.717 20.178 16.507 16.507 0 0 1-20.167 11.737" fill="#7f8fa5"/>
    <circle id="circle5210" transform="rotate(90.231)" cx="5.5414" cy="43.91" r="20.106" fill="url(#linearGradient5212)" opacity=".8"/>
    <path id="path5149" transform="scale(-1,1)" d="m39.771 20.893a16.077 16.077 0 0 1-11.372-19.675 16.077 16.077 0 0 1 19.663-11.392 16.077 16.077 0 0 1 11.411 19.652 16.077 16.077 0 0 1-19.641 11.431" fill="#93a0b3"/>
    <circle id="circle5272" transform="rotate(12.326)" cx="-41.774" cy="14.619" r="16.2" fill="url(#linearGradient5274)" opacity=".9"/>
    <circle id="circle5268" transform="rotate(90.231)" cx="5.5414" cy="43.91" r="15.679" fill="url(#linearGradient5270)" opacity=".9"/>
    <path id="path5155" transform="scale(-1,1)" d="m40.597 17.812a12.887 12.887 0 0 1-9.1158-15.771 12.887 12.887 0 0 1 15.762-9.1314 12.887 12.887 0 0 1 9.147 15.753 12.887 12.887 0 0 1-15.744 9.1626" fill="#b9c4d2"/>
    <path id="path5153" transform="scale(-1,1)" d="m40.726 17.329a12.387 12.387 0 0 1-8.762-15.159 12.387 12.387 0 0 1 15.15-8.7771 12.387 12.387 0 0 1 8.7921 15.142 12.387 12.387 0 0 1-15.133 8.8071" fill="#8696a9"/>
    <path id="path5165" transform="scale(-1,1)" d="m41.438 14.674a9.6375 9.6375 0 0 1-6.8172-11.794 9.6375 9.6375 0 0 1 11.787-6.8289 9.6375 9.6375 0 0 1 6.8406 11.781 9.6375 9.6375 0 0 1-11.774 6.8522" fill="#0ff"/>
    <path id="path5157" transform="scale(-1,1)" d="m40.869 16.795a11.833 11.833 0 0 1-8.3705-14.482 11.833 11.833 0 0 1 14.473-8.3849 11.833 11.833 0 0 1 8.3992 14.465 11.833 11.833 0 0 1-14.457 8.4135" fill="#a1aec1"/>
    <circle id="circle5276" transform="rotate(90.231)" cx="5.5414" cy="43.91" r="12.895" fill="url(#linearGradient5278)" opacity=".7"/>
    <path id="path5163" transform="scale(-1,1)" d="m41.567 14.19a9.1374 9.1374 0 0 1-6.4634-11.182 9.1374 9.1374 0 0 1 11.176-6.4745 9.1374 9.1374 0 0 1 6.4856 11.169 9.1374 9.1374 0 0 1-11.163 6.4966" fill="#c0c8d1"/>
    <path id="path5167" transform="scale(-1,1)" d="m42.153 12.006a6.8761 6.8761 0 0 1-4.8639-8.4149 6.8761 6.8761 0 0 1 8.4101-4.8722 6.8761 6.8761 0 0 1 4.8806 8.4053 6.8761 6.8761 0 0 1-8.4004 4.8889" fill="#0ff"/>
    <path id="path5171" transform="scale(-1,1)" d="m41.68 13.77a8.7025 8.7025 0 0 1-6.1558-10.65 8.7025 8.7025 0 0 1 10.644-6.1664 8.7025 8.7025 0 0 1 6.1769 10.638 8.7025 8.7025 0 0 1-10.632 6.1874" fill="#8695a6"/>
    <circle id="circle5284" transform="rotate(9.9283)" cx="-42.349" cy="12.859" r="8.7007" fill="url(#linearGradient5288)" opacity=".7"/>
    <circle id="circle5280" transform="rotate(90.231)" cx="5.5414" cy="43.91" r="8.7007" fill="url(#linearGradient5282)" opacity=".7"/>
    <path id="path5173" transform="scale(-1,1)" d="m42.243 11.67a6.5282 6.5282 0 0 1-4.6178-7.9892 6.5282 6.5282 0 0 1 7.9846-4.6257 6.5282 6.5282 0 0 1 4.6336 7.98 6.5282 6.5282 0 0 1-7.9754 4.6415" fill="#5a6878"/>
    <path id="path5175" transform="scale(-1,1)" d="m42.355 11.25a6.0934 6.0934 0 0 1-4.3102-7.457 6.0934 6.0934 0 0 1 7.4527-4.3176 6.0934 6.0934 0 0 1 4.325 7.4484 6.0934 6.0934 0 0 1-7.4442 4.3324" fill="#99a6b5"/>
    <circle id="circle5300" transform="rotate(90.231)" cx="5.5414" cy="43.91" r="6.5264" fill="url(#linearGradient5302)" opacity=".7"/>
    <circle id="circle5304" transform="rotate(190.11)" cx="42.309" cy="-12.99" r="6.5264" fill="url(#linearGradient5306)" opacity=".5"/>
    <path id="path5319" d="m-44.318 6.8055a1.492 1.492 0 0 1-1.0554-1.8259 1.492 1.492 0 0 1 1.8248-1.0572 1.492 1.492 0 0 1 1.059 1.8238 1.492 1.492 0 0 1-1.8227 1.0608" fill="url(#linearGradient5327)" opacity=".75"/>
    <path id="path5115" d="m-44.191 6.3303a1 1 0 0 1-0.70736-1.2238 1 1 0 0 1 1.2231-0.70857 1 1 0 0 1 0.70978 1.2224 1 1 0 0 1-1.2217 0.711"/>
   </g>
  </g>
  <rect id="rect5354" transform="rotate(.15958)" x="10.222" y="25.508" width="13.586" height="3.3536" rx=".32782" ry=".32782" fill="#020303" opacity=".3"/>
  <rect id="rect5290" transform="rotate(.15958)" x="10.222" y="25.158" width="13.586" height="3.3536" rx=".32782" ry=".32782" fill="url(#linearGradient5298)"/>
  <path id="rect5335" d="m10.144 28.038-4.85e-4 0.1741c-5.06e-4 0.18162 0.14518 0.3288 0.3268 0.32931l12.931 0.03601c0.18161 5.06e-4 0.32812-0.14587 0.32863-0.32748l4.85e-4 -0.1741c-5.06e-4 0.18161-0.14701 0.3273-0.32862 0.3268l-12.931-0.03602c-0.18161-5.05e-4 -0.3273-0.14701-0.3268-0.32862z" fill="#c4d3e1"/>
  <path id="rect5344" d="m10.48 25.188c-0.18161-5.05e-4 -0.32812 0.14518-0.32862 0.3268l-4.87e-4 0.17478c5.06e-4 -0.18161 0.14701-0.3273 0.32862-0.3268l12.931 0.03602c0.18161 5.05e-4 0.3273 0.14701 0.3268 0.32862l4.87e-4 -0.17478c5.06e-4 -0.18161-0.14518-0.32812-0.3268-0.32862z" fill="#fff"/>
  <g id="text1557-9" transform="rotate(-.32506)" fill="#494038" stroke-width=".061743px" aria-label="Ardour">
   <path id="path1132" d="m14.328 27.858-0.2124-0.54581h-0.69894l-0.20993 0.54581h-0.22475l0.68906-1.7708h0.20005l0.68659 1.7708zm-0.27908-0.74339-0.19758-0.53346q-0.0074-0.01976-0.0247-0.07162-0.01729-0.05186-0.03458-0.1062-0.01482-0.0568-0.0247-0.08644-0.01729 0.07656-0.03952 0.15065-0.02223 0.07162-0.03705 0.11361l-0.20005 0.53346z"/>
   <path id="path1134" d="m15.388 26.509q0.03705 0 0.07903 0.0049 0.04445 0.0025 0.07656 0.0099l-0.02717 0.20005q-0.03211-0.0074-0.07162-0.01235-0.03705-0.0049-0.07162-0.0049-0.10126 0-0.19017 0.0568-0.08891 0.05433-0.14324 0.15559-0.05186 0.09879-0.05186 0.23216v0.70634h-0.21734v-1.3238h0.17782l0.0247 0.24203h0.0099q0.06421-0.10867 0.16547-0.1877 0.10126-0.07903 0.23956-0.07903z"/>
   <path id="path1136" d="m16.21 27.882q-0.24697 0-0.39516-0.17041-0.14818-0.17288-0.14818-0.5137t0.14818-0.5137q0.15065-0.17535 0.39763-0.17535 0.15312 0 0.24944 0.0568 0.09879 0.0568 0.16053 0.1383h0.01482q-0.0025-0.03211-0.0099-0.09385-0.0049-0.06421-0.0049-0.10126v-0.52852h0.21734v1.877h-0.17535l-0.03211-0.17782h-0.0099q-0.05927 0.08397-0.15806 0.14324-0.09879 0.05927-0.25438 0.05927zm0.03458-0.18029q0.20993 0 0.2939-0.11361 0.08644-0.11608 0.08644-0.34823v-0.03952q0-0.24697-0.0815-0.37787-0.0815-0.13336-0.30131-0.13336-0.17535 0-0.26426 0.14078-0.08644 0.1383-0.08644 0.37293 0 0.23709 0.08644 0.36799 0.08891 0.1309 0.26673 0.1309z"/>
   <path id="path1138" d="m18.411 27.193q0 0.32847-0.16794 0.50876-0.16547 0.18029-0.44949 0.18029-0.17535 0-0.31366-0.07903-0.13584-0.0815-0.21487-0.23462-0.07903-0.15559-0.07903-0.3754 0-0.32848 0.16547-0.5063 0.16547-0.17782 0.44949-0.17782 0.18029 0 0.31613 0.0815 0.1383 0.07903 0.21487 0.23216 0.07903 0.15065 0.07903 0.37046zm-1.0002 0q0 0.23462 0.09138 0.37293 0.09385 0.13584 0.29637 0.13584 0.20005 0 0.2939-0.13584 0.09385-0.1383 0.09385-0.37293 0-0.23462-0.09385-0.36799-0.09385-0.13336-0.29637-0.13336t-0.2939 0.13336q-0.09138 0.13337-0.09138 0.36799z"/>
   <path id="path1140" d="m19.861 26.534v1.3238h-0.17782l-0.03211-0.17535h-0.0099q-0.06421 0.10373-0.17782 0.15312-0.11361 0.04692-0.24203 0.04692-0.23956 0-0.36058-0.11361-0.12102-0.11608-0.12102-0.36799v-0.86688h0.21981v0.85206q0 0.31613 0.2939 0.31613 0.21981 0 0.30378-0.12349 0.08644-0.12349 0.08644-0.35564v-0.68906z"/>
   <path id="path1142" d="m20.898 26.509q0.03705 0 0.07903 0.0049 0.04445 0.0025 0.07656 0.0099l-0.02717 0.20005q-0.03211-0.0074-0.07162-0.01235-0.03705-0.0049-0.07162-0.0049-0.10126 0-0.19017 0.0568-0.08891 0.05433-0.14324 0.15559-0.05187 0.09879-0.05187 0.23216v0.70634h-0.21734v-1.3238h0.17782l0.0247 0.24203h0.0099q0.06421-0.10867 0.16547-0.1877 0.10126-0.07903 0.23956-0.07903z"/>
  </g>
 </g>
</svg>
