<?xml version="1.0" encoding="UTF-8"?>
<svg id="svg41" width="64" height="64" version="1.1" xmlns="http://www.w3.org/2000/svg" xmlns:xlink="http://www.w3.org/1999/xlink">
 <defs id="defs15">
  <linearGradient id="linearGradient862-3" x1="7.9373" x2="7.9373" y1="15.081" y2="1.852" gradientTransform="matrix(3.7795 0 0 3.7795 .00014309 .031541)" gradientUnits="userSpaceOnUse">
   <stop id="stop10" stop-color="#f1efeb" offset="0"/>
   <stop id="stop12" stop-color="#fdfcfc" offset="1"/>
  </linearGradient>
  <linearGradient id="linearGradient4593" x1="32.633" x2="35.344" y1="14.734" y2="64.373" gradientUnits="userSpaceOnUse">
   <stop id="stop4587" stop-color="#bf0000" offset="0"/>
   <stop id="stop4589" stop-color="#ff7100" offset="1"/>
  </linearGradient>
  <linearGradient id="linearGradient4595" x1="58.975" x2="91.126" y1="-177.6" y2="410.53" gradientUnits="userSpaceOnUse">
   <stop id="stop5401" stop-color="#bf0000" offset="0"/>
   <stop id="stop5403" stop-color="#ff7100" offset="1"/>
  </linearGradient>
 </defs>
 <g id="g29" transform="scale(3.7796)" shape-rendering="auto">
  <path id="path17" d="m4.3693 0.52916c-2.1142 0-3.8402 1.7835-3.8402 3.9682v8.4675c0 2.1846 1.726 3.9682 3.8402 3.9682h8.1944c2.1142 0 3.8402-1.7835 3.8402-3.9682v-8.4675c0-2.1846-1.726-3.9682-3.8402-3.9682zm0.25704 0.52089h7.6808c1.8443 0 3.3291 1.5342 3.3291 3.44v7.9368c0 1.9058-1.4847 3.44-3.3291 3.44h-7.6808c-1.8443 0-3.3291-1.5342-3.3291-3.44v-7.9368c0-1.9058 1.4847-3.44 3.3291-3.44z" color="#000000" color-rendering="auto" dominant-baseline="auto" image-rendering="auto" opacity=".01" solid-color="#000000" stop-color="#000000" style="font-feature-settings:normal;font-variant-alternates:normal;font-variant-caps:normal;font-variant-east-asian:normal;font-variant-ligatures:normal;font-variant-numeric:normal;font-variant-position:normal;font-variation-settings:normal;inline-size:0;isolation:auto;mix-blend-mode:normal;shape-margin:0;shape-padding:0;text-decoration-color:#000000;text-decoration-line:none;text-decoration-style:solid;text-indent:0;text-orientation:mixed;text-transform:none;white-space:normal"/>
  <path id="path19" d="m4.3587 0.79373c-1.9668 0-3.5639 1.6528-3.5639 3.6876v8.4996c0 2.0348 1.5971 3.6876 3.5639 3.6876h8.2162c1.9668 0 3.5644-1.6528 3.5644-3.6876v-8.4996c0-2.0348-1.5976-3.6876-3.5644-3.6876zm0.27222 0.25631h7.6718c1.8422 0 3.3251 1.5342 3.3251 3.44v7.9368c0 1.9058-1.483 3.44-3.3251 3.44h-7.6718c-1.8422 0-3.3251-1.5342-3.3251-3.44v-7.9368c0-1.9058 1.483-3.44 3.3251-3.44z" color="#000000" color-rendering="auto" dominant-baseline="auto" image-rendering="auto" opacity=".01" solid-color="#000000" stop-color="#000000" style="font-feature-settings:normal;font-variant-alternates:normal;font-variant-caps:normal;font-variant-east-asian:normal;font-variant-ligatures:normal;font-variant-numeric:normal;font-variant-position:normal;font-variation-settings:normal;inline-size:0;isolation:auto;mix-blend-mode:normal;shape-margin:0;shape-padding:0;text-decoration-color:#000000;text-decoration-line:none;text-decoration-style:solid;text-indent:0;text-orientation:mixed;text-transform:none;white-space:normal"/>
  <g id="g27">
   <path id="path21" d="m4.3097 1.0583c-1.8657 0-3.3751 1.5383-3.3751 3.439v8.4675c0 1.9007 1.57 3.439 3.4357 3.439h8.1996c1.8657 0 3.4274-1.5383 3.4274-3.439v-8.4675c0-1.9007-1.51-3.439-3.3756-3.439h-0.09688c1.794 0.086515 3.2138 1.5819 3.2138 3.4318v7.9368c0 1.9058-1.5059 3.44-3.3766 3.44h-7.7905c-1.8707 0-3.3766-1.5342-3.3766-3.44v-7.9368c0-1.8498 1.4199-3.3451 3.2138-3.4318z" color="#000000" color-rendering="auto" dominant-baseline="auto" image-rendering="auto" opacity=".03" solid-color="#000000" stop-color="#000000" style="font-feature-settings:normal;font-variant-alternates:normal;font-variant-caps:normal;font-variant-east-asian:normal;font-variant-ligatures:normal;font-variant-numeric:normal;font-variant-position:normal;font-variation-settings:normal;inline-size:0;isolation:auto;mix-blend-mode:normal;shape-margin:0;shape-padding:0;text-decoration-color:#000000;text-decoration-line:none;text-decoration-style:solid;text-indent:0;text-orientation:mixed;text-transform:none;white-space:normal"/>
   <path id="path23" transform="scale(.26458)" d="m4 46.969v2.0312c0 6.6479 5.8957 12 12.544 12h30.961c6.6479 0 12.495-5.3521 12.495-12v-1.9922c-0.021173 7.1849-5.81 12.963-13 12.963h-29.998c-7.2032 0-13.002-5.7987-13.002-13.002z" color="#000000" color-rendering="auto" dominant-baseline="auto" image-rendering="auto" opacity=".03" solid-color="#000000" stop-color="#000000" style="font-feature-settings:normal;font-variant-alternates:normal;font-variant-caps:normal;font-variant-east-asian:normal;font-variant-ligatures:normal;font-variant-numeric:normal;font-variant-position:normal;font-variation-settings:normal;inline-size:0;isolation:auto;mix-blend-mode:normal;shape-margin:0;shape-padding:0;text-decoration-color:#000000;text-decoration-line:none;text-decoration-style:solid;text-indent:0;text-orientation:mixed;text-transform:none;white-space:normal"/>
   <path id="path25" d="m1.0583 11.906v0.59234c0 1.9386 1.5729 3.4993 3.3318 3.4993h8.1603c1.7589 0 3.3243-1.5608 3.3243-3.4993v-0.58095c-0.0056 2.0952-1.5372 3.7801-3.4395 3.7801h-7.9368c-1.9058 0-3.44-1.691-3.44-3.7915z" color="#000000" color-rendering="auto" dominant-baseline="auto" image-rendering="auto" opacity=".05" solid-color="#000000" stop-color="#000000" style="font-feature-settings:normal;font-variant-alternates:normal;font-variant-caps:normal;font-variant-east-asian:normal;font-variant-ligatures:normal;font-variant-numeric:normal;font-variant-position:normal;font-variation-settings:normal;inline-size:0;isolation:auto;mix-blend-mode:normal;shape-margin:0;shape-padding:0;text-decoration-color:#000000;text-decoration-line:none;text-decoration-style:solid;text-indent:0;text-orientation:mixed;text-transform:none;white-space:normal"/>
  </g>
 </g>
 <rect id="rect31" x="4" y="4" width="56" height="56" rx="13.002" ry="13.002" fill="url(#linearGradient862-3)" stroke-width="3.7795"/>
 <path id="path20" d="m33.205 51.195c-1.0905-0.26425-1.3366-0.49124-1.7655-1.6283-0.10453-0.27712-0.394-0.88729-0.64328-1.3559-0.37054-0.69651-0.51342-0.87189-0.78313-0.96091-0.74036-0.24435-2.6423-0.62706-3.4214-0.68845l-0.8315-0.06552-0.39236 0.70784c-0.58509 1.0555-1.7548 2.1684-2.8368 2.6987-1.1547 0.56605-1.9854 0.76636-3.1781 0.76636s-2.0233-0.2003-3.1781-0.76636c-1.6595-0.81348-3.0067-2.4827-3.5104-4.35-0.2963-1.0981-0.2499-2.942 0.09975-3.9637 0.34236-1.0004 0.99004-2.0195 1.7761-2.7947 1.8024-1.7775 4.6419-2.3964 7.1031-1.5482 0.67868 0.23393 0.92637 0.27993 1.0339 0.19203 0.07783-0.06356 0.3634-0.53192 0.63458-1.0408l0.49307-0.92522 6e-3 -1.3365c7e-3 -1.5704-0.05591-1.7746-1.1008-3.5744-0.87852-1.5132-1.3602-2.5456-1.5656-3.3555-0.23958-0.94471-0.0835-1.76 1.0449-5.4582 0.50359-1.6504 0.43161-3.8516-0.18934-5.7888-0.18538-0.57834-0.19996-0.71495-0.08398-0.78662 0.19112-0.11812 1.0372 0.14196 1.8595 0.57155 1.8412 0.962 3.0072 2.6095 4.577 6.4664 0.83572 2.0536 1.4736 3.2748 1.77 3.3885 0.07137 0.02739 0.78854-0.05057 1.5938-0.17323 1.2205-0.18592 1.9428-0.22467 4.3426-0.23289l2.8785-0.0099 0.27742-0.50964c0.431-0.79171 0.75333-1.8861 1.1645-3.9534 0.57178-2.8749 0.98187-4.0184 1.9253-5.3685 0.41023-0.58711 0.70708-0.83716 0.91456-0.61979 0.05231 0.05481 0.18779 0.87935 0.29826 1.835 0.35172 3.0428 0.47789 3.4925 1.6226 5.7802 0.61864 1.1487 0.94074 1.4542 0.94074 2.673 0 0.79164-0.087 0.97073-0.38116 1.5918-0.1823 0.38487-0.58711 1.092-0.89955 1.5713-0.31245 0.47933-0.56809 0.95681-0.56809 1.0611 0 0.10425 0.07523 0.36865 0.1672 0.58758 0.1379 0.32832 0.15585 0.62324 0.10242 1.6832-0.03563 0.70679-0.09126 1.4239-0.12365 1.5935-0.05121 0.2682 0.0564 0.46262 0.82506 1.4907 1.6841 2.2525 2.1288 3.7463 1.7912 6.0167-0.07873 0.5293-0.0826 0.816-0.01197 0.88665 0.07062 0.07062 0.70973 0.05172 1.9765-0.05843 1.0297-0.08953 1.9379-0.16279 2.0182-0.16279s0.23771 0.15035 0.34976 0.33411c0.24889 0.40821 0.28027 1.4828 0.05597 1.9166-0.14696 0.28419-0.16172 0.28792-1.404 0.35472-0.69053 0.03715-1.8843 0.06822-2.6529 0.06908-0.7686 7.56e-4 -1.4511 0.03571-1.5166 0.07741-0.06554 0.04171-0.19675 0.2697-0.29156 0.50664-0.13001 0.32492-0.35972 0.57184-0.9346 1.0045-0.43196 0.32511-0.7622 0.65055-0.76216 0.75115 3e-5 0.0976 0.09255 0.42085 0.20561 0.71828 0.11306 0.29745 0.20556 0.75935 0.20556 1.0264 0 0.46666-0.02705 0.51096-0.69392 1.1365-0.81091 0.76063-1.8641 1.4825-2.4279 1.6641-0.49918 0.16078-1.3657 0.07265-2.501-0.25436-0.79958-0.23031-0.87781-0.23524-1.5391-0.09687-0.38318 0.08018-1.0383 0.30796-1.4557 0.50622-0.85137 0.40434-1.3832 0.44844-2.4091 0.19983zm2.0547-0.75237c1.9827-0.8725 4.3433-1.4607 3.5581-0.88665-0.33014 0.2414-0.08507 0.41986 0.75135 0.54719 1.3268 0.20198 1.3251 0.20242 2.6158-0.68461 1.0738-0.73793 1.1804-0.84043 1.26-1.2115 0.1326-0.61758-0.07035-1.2535-0.42485-1.3313-0.15346-0.03364-1.0423-0.27604-1.9753-0.53864-1.2316-0.34669-1.8835-0.47805-2.3798-0.47959-0.65481-0.0019-0.75256 0.03322-2.3301 0.83975-1.6593 0.8483-2.2792 1.0652-2.5133 0.87951-0.07006-0.05558-0.31243-0.1341-0.53861-0.17449-0.78876-0.14086-1.3929-0.68188-2.3876-2.1381-0.4511-0.66044-0.59364-0.79693-0.89017-0.85256-0.34989-0.06564-3.5402 0.4142-3.6778 0.55315-0.03715 0.03748-0.11673 0.25018-0.17684 0.47261-0.14303 0.5293-0.01821 0.67507 0.57789 0.67507 0.2544 0 0.95422 0.07578 1.5552 0.16841 1.5121 0.23306 1.5053 0.23323 1.4957-0.0399-0.0119-0.33644 0.09357-0.28941 0.57632 0.25701 0.57661 0.65269 0.96932 1.3546 1.2834 2.2936 0.29728 0.88895 0.8144 1.4853 1.5925 1.8365 0.65881 0.29738 1.002 0.26597 2.0281-0.18557zm1.8409-2.502c0.15901-0.25728 0.96914-0.52917 1.7082-0.57331 0.7283-0.0435 0.79661-0.03102 0.79517 0.14554-0.0039 0.45229-0.13681 0.50126-1.3757 0.50638-0.64853 0.0026-1.156-0.03272-1.1276-0.07857zm-16.565 1.8217c1.4857-0.31056 2.8456-1.2322 3.6881-2.4997 0.71578-1.0767 0.98942-2.0203 0.98942-3.4118 0-0.95732-0.0434-1.2753-0.2636-1.9312-0.6364-1.8959-2.191-3.4009-3.9989-3.8721-0.79213-0.20632-2.4021-0.20632-3.1942 0-2.503 0.65196-4.3654 3.149-4.3654 5.8525 0 1.6227 0.61908 3.14 1.7466 4.2809 1.4216 1.4383 3.3625 2.0069 5.3983 1.5814zm14.945-3.5456c1.3178-0.64444 2.2296-1.26 2.489-1.6803 0.15537-0.2518 0.19476-0.47585 0.17337-0.98588l-0.0277-0.66006-0.66825-0.40706c-0.36752-0.22388-0.89689-0.59767-1.1764-0.83063-0.50225-0.41864-2.1134-2.2823-2.1134-2.4447 0-0.04616 0.10409-0.07292 0.23131-0.05945 0.22712 0.02403 0.23179 0.0019 0.25746-1.2092 0.01738-0.81924-0.0071-1.1822-0.07282-1.0803-0.1275 0.19757-0.25108 0.0659-0.41272-0.43968-0.06842-0.21404-0.22436-0.45174-0.34653-0.52824-0.30621-0.19175-2.2937-0.57069-3.3833-0.64508-0.94714-0.06467-1.1115 0.01451-0.67107 0.323 0.12567 0.08802 0.19061 0.16004 0.14433 0.16004-0.27752 0-2.3546-0.72571-2.5184-0.87993-0.02093-0.01973 0.10752-0.2197 0.28548-0.44438 0.80704-1.019 0.56861-1.657-0.61912-1.657-0.34163 0-0.46902 0.0641-0.76607 0.38552-0.42502 0.45984-0.61051 1.0011-0.51592 1.5052 0.07906 0.42146 0.30092 0.57658 0.82455 0.57658 0.5994 0 0.41759 0.16356-0.33036 0.29724-1.0098 0.18047-2.04 0.76226-2.4659 1.3927-0.57005 0.84382-0.56272 0.88466 0.31477 1.7565 0.42549 0.42274 0.82266 0.76863 0.88258 0.76863s0.22876-0.2533 0.37524-0.56291c0.29933-0.63272 0.61525-0.92522 1.183-1.0953 0.51438-0.15411 1.1268-0.04054 1.1268 0.20895 0 0.10246 0.33539 0.53045 0.74533 0.95108 0.42166 0.43263 1.0112 1.2001 1.3575 1.7672 0.75077 1.2294 0.81341 1.2882 1.1 1.0326l0.21766-0.19409-0.06336 0.35981c-0.03484 0.1979-0.09215 0.77618-0.12734 1.2851l-0.06399 0.92522 0.42767 0.65516c0.55833 0.85522 1.4031 1.6895 1.8552 1.832 0.7685 0.24222 1.2369 0.1669 2.3514-0.37815zm8.0198-0.5318c0.7057-0.46109 1.128-1.0149 1.4013-1.8375 0.1578-0.47508 0.15394-0.51442-0.15089-1.5406-0.3023-1.0176-0.41218-1.9223-0.21897-1.8029 0.05162 0.03189 0.12524 0.24374 0.16358 0.47072 0.10196 0.60349 0.29189 0.75006 0.86427 0.66687 0.25948-0.03767 0.5309-0.12574 0.60311-0.19562 0.33974-0.32867 0.33292-2.8564-0.01114-4.1234-0.15297-0.56336-0.42143-1.1339-0.57949-1.2316-0.05552-0.03431-0.38798-0.48144-0.73876-0.99362-0.72401-1.057-0.55788-1.0076-2.0334-0.60487-0.79696 0.21756-1.8259 0.2606-2.7199 0.11378-0.27642-0.04539-0.68416-0.04175-0.90611 0.0081-0.51185 0.115-0.63637 0.03831-0.43548-0.26828 0.08701-0.13279 0.18532-0.58144 0.21849-0.99698 0.03318-0.41557 0.10246-0.83761 0.15398-0.93786 0.08519-0.16577 0.11397-0.1681 0.31727-0.02569 0.40475 0.28352 0.70541 0.18126 1.9474-0.66229 0.97519-0.66236 1.3029-0.83095 1.7234-0.88677 0.43292-0.05743 0.52946-0.10949 0.58058-0.31314 0.13649-0.54383-0.05559-0.94766-0.86606-1.8207-0.43538-0.46903-1.0825-1.1835-1.438-1.5878-0.57782-0.65708-0.71546-0.7564-1.2968-0.93594-1.1837-0.36561-2.1916-0.45837-3.5309-0.32499-1.7236 0.1717-1.7 0.15871-1.1512 0.63301 0.25455 0.22001 0.38859 0.39576 0.30267 0.39678-0.08481 0.0011-0.61684-0.14142-1.1823-0.31658-1.2003-0.37181-2.813-0.5017-3.7681-0.30345-0.50312 0.10444-0.63247 0.18539-1.0081 0.63086-0.40402 0.47914-1.1886 1.0024-1.3144 0.87653-0.03106-0.03102 0.06596-0.32918 0.21557-0.66255 0.33978-0.75708 0.36551-1.5509 0.06725-2.0727-0.52824-0.9241-0.84331-1.6011-1.3866-2.9798-0.61515-1.5609-1.2705-2.859-1.5639-3.0977-0.15355-0.1249-0.16428-0.1176-0.09551 0.0649 0.34586 0.91776 0.60382 2.2794 0.6525 3.4438 0.02955 0.70679 0.02894 1.262-0.0011 1.2337-0.03023-0.0283-0.24171-0.82141-0.46992-1.7625-0.50533-2.0838-0.8999-3.1342-1.5472-4.1186-0.43628-0.66361-1.0615-1.2225-1.206-1.0781-0.02823 0.02826-0.0019 0.31882 0.05852 0.64575 0.14115 0.76351 0.1417 2.9108 7.56e-4 3.6989-0.0599 0.33552-0.27076 1.2961-0.46855 2.1348-0.1978 0.83863-0.4003 1.8795-0.44995 2.3131-0.25487 2.2244 0.60926 4.0056 2.4648 5.0805 0.74737 0.43295 1.0296 0.47146 1.4253 0.19448 0.15008-0.10507 0.38257-0.24847 0.51662-0.31868 0.27799-0.14558 0.2741-0.13506-0.21864 0.59248-0.35139 0.51883-0.31533 0.69335 0.18663 0.90307 0.46288 0.19341 0.63701 0.13709 1.2843-0.41544 0.64764-0.55279 1.1985-0.71534 2.2059-0.65068 0.9909 0.0636 2.0058 0.54678 2.9358 1.3977 1.1155 1.0207 1.6849 1.1973 1.967 0.61022l0.16054-0.33411 0.26367 0.59114c0.25931 0.58134 0.27069 0.59114 0.68732 0.59114 0.233 0 0.51711-0.05 0.63128-0.11113 0.2914-0.15595 0.35146-0.04505 0.14569 0.26901-0.13461 0.20544-0.14765 0.30008-0.05648 0.40994 0.21028 0.25337 0.0015 0.35744-0.71703 0.35744-0.67593 0-0.71518 0.01394-1.022 0.3634-0.23833 0.27144-0.31773 0.46006-0.31377 0.74533l0.0053 0.38193 0.15991-0.38551c0.08794-0.21204 0.19196-0.38552 0.23115-0.38552 0.03918 0 0.12819 0.27573 0.1978 0.61271 0.14817 0.71735 0.47245 1.1515 1.0506 1.4066 0.47018 0.20745 0.44185 0.25835-0.27254 0.48996-1.1793 0.38235-1.0136 0.42233 1.6277 0.39259 2.7555-0.03098 3.0825-0.06009 3.3177-0.29521 0.19678-0.19678 0.13615-0.4325-0.28143-1.0942-0.17085-0.27073-0.28014-0.52274-0.24287-0.56 0.03727-0.03726 0.47709 0.34746 0.97743 0.85499 0.82196 0.83377 0.92205 0.97819 1.0384 1.498 0.12199 0.54515 0.11444 0.60654-0.14414 1.1713-0.39438 0.86146-1.611 2.028-2.7097 2.5983l-0.84814 0.44015v0.75743c0 0.41656 0.02706 0.82794 0.06012 0.91408 0.09972 0.25989 3.1209 1.4683 3.7444 1.4977 0.08529 4e-3 0.44947-0.18505 0.80931-0.42018zm-8.5998-13.623c-0.07186-0.02891-0.20402-0.19442-0.29366-0.36778l-0.163-0.3152 0.28183 0.22169c0.15501 0.12193 0.39691 0.22169 0.53756 0.22169 0.21567 0 0.23569 0.02418 0.12776 0.15421-0.13041 0.15714-0.25729 0.17923-0.49047 0.0854zm3.7322-0.38103c-0.47005-0.47005-0.86104-1.5034-0.56886-1.5034 0.05654 0 0.10298 0.12722 0.10319 0.28271 7.56e-4 0.52245 0.63864 1.2821 0.92698 1.1039 0.05537-0.03423 0.10068 5e-3 0.10068 0.08705 0 0.26641-0.30903 0.28281-0.56201 0.02985zm-4.4185-0.63567c-0.18327-0.27969-0.18174-0.67327 0.0026-0.73399 0.06875-0.0226 0.09436 0.07758 0.06717 0.26285-0.02418 0.16466 0.0084 0.39723 0.07242 0.51679 0.1622 0.30308 0.06586 0.27218-0.14242-0.04567zm-9.0812-1.018c-2.0643-0.98927-2.807-2.7344-2.3426-5.5039 0.34349-2.0485 0.42991-2.0433 0.42892 0.02573-0.0011 2.3335 0.37108 3.4173 1.4583 4.2476 0.71911 0.54908 0.78182 0.46397 0.42937-0.58231-0.20527-0.60932-0.19726-1.3264 0.01482-1.3264 0.05025 0 0.09137 0.03982 0.09137 0.08848 0 0.2194 0.77909 1.248 0.94528 1.248 0.20675 0 0.2414-0.12204 0.36494-1.2851l0.08735-0.82247 0.13395 0.41122c0.15649 0.48042 0.27048 2.0828 0.17517 2.4625-0.055 0.21914-0.12529 0.2618-0.43135 0.2618-0.36433 0-0.36558 0.0015-0.34832 0.43692 0.03352 0.84651 0.04545 0.8425-1.0073 0.33802zm2.666 14.174c0.2232-0.13795-0.08198-0.24737-0.68989-0.24737-0.48327 0-0.66217 0.03703-0.66217 0.13707 0 0.07539 0.03469 0.17254 0.0771 0.21588 0.079 0.08074 1.1119-0.0048 1.275-0.10558zm2.5873-0.31902c0.05277-0.03261 0.07258-0.35056 0.04401-0.70656-0.04538-0.56531-0.13485-0.7871-0.70688-1.7523-0.973-1.6418-2.0543-2.7126-2.7391-2.7126-0.34035 0-1.3598 1.3352-1.3598 1.7811 0 0.36772 0.5509 1.8296 0.72446 1.9225 0.23658 0.12662 0.92557 7.55e-4 0.99564-0.18169 0.03397-0.0885-0.0639-0.24617-0.24026-0.38712-0.16366-0.13078-0.27162-0.26402-0.23992-0.29606 0.03171-0.03204 0.43266 0.05689 0.891 0.19766 0.63688 0.19558 0.9458 0.35866 1.3101 0.69158l0.47677 0.43564-0.21837 0.44684c-0.3127 0.63989-0.22559 0.77842 0.43439 0.69085 0.29263-0.03882 0.57523-0.09727 0.62801-0.12988zm2.6854-8.9884c0.3665-0.12031 0.74296-0.30341 0.83658-0.4069 0.1588-0.17546 0.15711-0.21065-0.0252-0.5228-0.1075-0.18406-0.30527-0.36058-0.43945-0.3923-0.13421-0.03166-0.25634-0.14154-0.2714-0.24413-0.83953-0.83953-0.14349 0.18609-0.76732 0.35325-0.22627 0.14707-0.63464 0.01689-0.90768-0.28929l-0.46486-0.61783c1.1103-0.4439 0.92458-0.44838 0.17824-0.58794-0.0455 0.01183-0.35178-0.22402-0.47434-0.30987-0.33561-0.23507-0.86497-0.20194-1.0067 0.06302-0.18734 0.35008-0.07752 1.5717 0.17126 1.9048 0.37444 0.50152 0.94112 0.87925 1.6029 1.0685 0.83146 0.23769 0.78572 0.23823 1.568-0.01856zm-3.6433-0.59764c0-0.0532-0.04626-0.12534-0.10281-0.16027-0.05655-0.03492-0.10281 0.0086-0.10281 0.09673 0 0.08815 0.04626 0.16028 0.10281 0.16028 0.05655 0 0.10281-0.04353 0.10281-0.09674zm13.295-0.20549c0.42354-0.16434 0.65672-0.32719 0.79635-0.55622 0.2162-0.35456 0.26392-1.1143 0.09748-1.552-0.13205-0.34733-0.54204-0.53804-0.85108-0.39586-0.12674 0.05829 0.0202 0.25155-0.14942 0.30256-0.43308 0.13021-0.78076 0.33411-0.39214 0.63979 0.37156 0.29227 0.14549 0.66796-0.40693 0.71447-1.2464 0-0.12405-0.57498-0.97423-0.08413-0.17935 0-0.51803 0.44576-0.51803 0.68179 0 0.12749 0.10409 0.3069 0.23131 0.3987 0.31681 0.22859 1.3823 0.15529 2.1667-0.14905zm1.7554-6.5417c0.6574-0.86098 0.83306-1.3385 0.82913-2.2541-0.0035-0.80678-0.01642-0.84791-0.6808-2.1589-0.80586-1.5903-1.1493-2.5091-1.3673-3.658-0.08881-0.46813-0.18091-0.87061-0.20468-0.8944-0.26149-0.26149-0.36292 1.3615-0.16185 2.5894 0.0547 0.33404 0.26845 1.2106 0.47501 1.9479 0.42357 1.5119 0.43314 2.1561 0.04672 3.1364-0.11613 0.29462-0.21115 0.64802-0.21115 0.7853 0 0.2756 0.55766 0.97643 0.77698 0.97643 0.07637 0 0.30041-0.21159 0.49787-0.47018zm-1.9559-1.7016c0.1258-0.62894 0.06055-1.7402-0.1994-3.3961-0.2793-1.7794-0.35568-3.3139-0.21844-4.3884 0.05394-0.42232 0.0477-0.63045-0.01767-0.59002-0.18941 0.11706-0.52232 1.3426-0.84027 3.093-0.38987 2.1466-0.64632 3.1776-0.97573 3.9224-0.13906 0.31444-0.23056 0.60776-0.20334 0.6518 0.02724 0.04406 0.2048 0.10923 0.3946 0.14483 0.18981 0.0356 0.6414 0.24686 1.0035 0.46944 0.81213 0.49921 0.97272 0.51336 1.0567 0.0931z" fill="url(#linearGradient4593)" stroke="#000" stroke-width=".16938"/>
 <g id="g2953" transform="matrix(.084335 0 0 .084402 27.659 29.723)" fill="url(#linearGradient4595)">
  <path id="path18" d="m71.816 255.25c-11.387-1.6692-20.216-5.8732-22.735-10.826-1.1885-2.3368-5.5573-11.217-9.709-19.734-4.1513-8.517-8.4599-15.961-9.576-16.542-6.49-3.3798-46.642-10.589-50.573-9.0805-1.0045 0.38539-3.6027 4.044-5.7738 8.1303-2.2256 4.1884-7.9251 11.46-13.066 16.669-24.466 24.792-62.221 31.175-94.059 15.905-36.899-17.696-54.991-59.923-42.553-99.305 14.12-44.699 63.207-68.275 107.76-51.759 6.6771 2.4751 8.5865 2.7692 10.056 1.5495 0.99777-0.82811 1.8141-2.0669 1.8141-2.7529 0-0.68597 2.2875-5.1257 5.0833-9.8658 5.0508-8.5638 5.0867-8.7086 5.5868-22.751 0.64307-18.064-0.93571-23.798-11.818-42.919-17.977-31.588-21.427-40.848-20.333-54.564 0.73533-9.2237 4.2466-23.598 11.063-45.293 6.3105-20.083 7.4534-31.397 5.0376-49.881-1.078-8.2464-3.0395-18.198-4.3592-22.115-3.358-9.9679-3.2068-13.268 0.60788-13.268 4.0814 0 17.343 5.0985 23.848 9.1689 20.376 12.749 32.576 30.478 49.654 72.161 8.7838 21.437 15.11 34.552 19.282 39.979l2.2721 2.9548 21.412-2.6929c27.205-3.4213 48.535-4.3482 66.246-2.8788 7.6779 0.63706 14.577 0.9249 15.331 0.63967 1.8234-0.68937 8.133-14.709 11.259-25.017 1.3775-4.5425 4.1744-16.925 6.2157-27.517 7.2044-37.388 14.336-55.565 27.04-68.918 6.0456-6.3555 8.4296-5.877 11.754 23.416 1.3671 12.045 3.8577 27.026 5.5342 33.292 3.0761 11.494 4.6907 15.205 16.02 36.815 7.0241 13.397 9.4032 22.48 8.1934 31.278-0.95495 6.9432-7.4425 20.696-16.261 34.47-3.4018 5.3135-6.1854 10.12-6.1854 10.681 0 0.56125 0.92014 2.7685 2.0448 4.9053 2.3317 4.4299 2.813 18.072 1.229 34.838l-0.97483 10.318 10.392 13.715c12.215 16.121 15.769 22.713 18.95 35.151 2.604 10.182 3.1246 28.838 1.0553 37.817-0.83287 3.6131-0.83427 5.7519-4e-3 6.5819 0.82989 0.82989 8.4183 0.61409 23.354-0.66427 15.684-1.3423 22.929-1.5272 24.887-0.63513 6.0014 2.7344 8.4682 20.059 3.8985 27.376-2.1695 3.4739-4.2972 3.832-22.923 3.8569-9.0128 0.0151-22.554 0.37757-30.09 0.81164l-13.703 0.7896-2.4544 5.5781c-1.839 4.1793-4.747 7.354-11.599 12.663-6.5747 5.0943-8.9576 7.6522-8.4807 9.1043 0.36471 1.1106 1.764 5.0236 3.1092 8.6953 4.4064 12.029 3.3362 15.546-7.7928 25.601-16.469 14.88-24.668 19.312-35.725 19.312-4.4284 0-11.038-0.82638-14.689-1.8364-16.753-4.6351-18.699-4.821-26.864-2.5608-4.2307 1.171-11.858 4.0051-16.949 6.2977-9.8065 4.4163-9.9569 4.4371-20.742 2.8561zm18.137-10.681c23.411-10.302 51.283-17.247 42.012-10.469-3.8981 2.8503-1.0045 4.9575 8.8715 6.4609 15.667 2.3848 15.646 2.3901 30.886-8.0834 12.678-8.7131 13.937-9.9229 14.877-14.305 1.5656-7.292-0.83075-14.801-5.0164-15.719-1.812-0.3973-12.307-3.2593-23.323-6.36-14.543-4.0935-22.239-5.6446-28.099-5.6627-7.7316-0.0227-8.8858 0.39227-27.513 9.9153-19.592 10.016-26.911 12.578-29.676 10.385-0.82724-0.65626-3.689-1.5834-6.3597-2.0603-9.3133-1.6633-16.447-8.0513-28.192-25.245-5.3264-7.7981-7.0093-9.4097-10.511-10.067-4.1313-0.77504-41.801 4.8906-43.426 6.5312-0.4386 0.44273-1.3782 2.9539-2.0879 5.5803-1.6889 6.2497-0.21505 7.9708 6.8234 7.9708 3.0038 0 11.267 0.89474 18.363 1.9884 17.854 2.7518 17.774 2.7539 17.661-0.4711-0.14022-3.9726 1.1049-3.4172 6.8049 3.0346 6.8083 7.7066 11.445 15.994 15.153 27.082 3.5101 10.496 9.616 17.538 18.803 21.685 7.7788 3.5112 11.832 3.1404 23.947-2.1911zm21.736-29.542c1.8775-3.0378 11.443-6.2482 20.169-6.7693 8.5993-0.51355 9.4059-0.36623 9.3889 1.7184-0.0457 5.3403-1.6154 5.9186-16.244 5.9791-7.6575 0.0302-13.649-0.3863-13.315-0.92774zm-193.12 20.271c19.62-4.9968 36.572-18.874 45.198-37.001 5.6692-11.912 7.5566-19.796 7.5566-31.561 0-11.764-1.8876-19.649-7.5566-31.561-13.793-28.984-47.266-44.847-78.072-37.001-24.475 6.233-44.654 26.413-50.905 50.913-2.3671 9.2721-2.3671 26.027 0 35.299 6.1522 24.098 26.007 44.578 49.288 50.837 8.6508 2.3268 25.503 2.3622 34.493 0.0726zm173.99-40.625c15.592-7.625 26.341-14.888 29.361-19.841 1.6588-2.7204 2.3473-6.0785 2.3505-11.464l4e-3 -7.6167-5.6582-3.3083c-10.464-6.1178-20.389-14.388-28.135-23.445-19.898-23.265-21.298-24.575-31.887-29.87-5.6026-2.8013-15.016-6.7089-20.92-8.6833-8.3416-2.7901-10.152-3.7745-8.1247-4.4178 5.1729-1.6419 1.9887-4.8074-11.489-11.422-9.449-4.6374-15.265-6.7259-19.894-7.1443-16.315-1.4744-36.222 6.4167-43.55 17.263-6.7308 9.9633-6.6442 10.446 3.7166 20.74 5.024 4.9915 9.7135 9.0756 10.421 9.0756 0.70751 0 2.7011-2.9908 4.4306-6.6465 3.5343-7.4708 7.2645-10.924 13.968-12.933 6.0736-1.8197 13.305-0.4787 13.305 2.4672 0 1.2098 3.9601 6.2633 8.8004 11.23 4.9786 5.1083 11.94 14.171 16.029 20.867 8.8647 14.516 9.6043 15.21 12.988 12.192l2.5696-2.2918-0.74806 4.2485c-0.41154 2.3367-1.0881 9.1648-1.5036 15.173l-0.75558 10.924 5.0497 7.7358c6.5925 10.098 16.568 19.949 21.905 21.631 9.074 2.86 14.604 1.9706 27.764-4.465zm94.694-6.2788c8.3325-5.4443 13.319-11.983 16.545-21.696 1.8632-5.6094 1.8177-6.0739-1.7817-18.19-3.5694-12.015-4.8668-22.697-2.5854-21.287 0.60955 0.37666 1.4787 2.8779 1.9316 5.558 1.2039 7.1258 3.4464 8.8564 10.205 7.8741 3.0638-0.44502 6.2686-1.4846 7.1212-2.3097 4.019-3.8875 3.9299-33.724-0.14551-48.74-2.2813-8.4077-3.9472-11.214-10.417-17.545-3.0698-3.0043-7.3397-8.0574-9.4883-11.228-2.1975-3.2432-4.849-5.7659-6.0599-5.7659-1.1842 0-5.9753 1.1115-10.647 2.47-4.6714 1.3585-13.053 2.8091-18.627 3.2234-10.708 0.79602-10.893 1.7538-0.77921 4.0202 3.2257 0.72289 6.4878 2.1659 7.249 3.2068 0.76363 1.0444 3.9865 2.1858 7.1919 2.547l5.8082 0.65464-5.0848 4.6479c-5.5675 5.089-5.8184 7.8903-0.67369 7.5128 2.3861-0.17525 3.1315 0.22801 2.6659 1.4414-2.5196 6.566-3.4066 13.161-2.7814 20.678 0.61874 7.4391 0.32126 9.3617-2.3382 15.101-4.496 9.7037-19.154 23.623-31.774 30.172l-10.014 5.1971v8.9433c0 4.9186 0.31936 9.7759 0.70978 10.793 1.1775 3.0686 36.849 17.337 44.212 17.684 1.007 0.0476 5.3071-2.185 9.5559-4.9613zm-191.65-18.016c1.3335-0.86175 0.43996-1.1817-3.3381-1.1953-2.8374-8e-3 -5.1589 0.52765-5.1589 1.1953 0 1.5489 6.1004 1.5489 8.4973 0zm36.314-4.1253c2.7589-3.3242-0.38127-15.199-6.9678-26.35-12.528-21.211-23.697-32.645-31.887-32.645-3.9042 0-9.9198 6.357-14.282 15.092l-2.7664 5.5395 3.1188 7.7958c1.7153 4.2878 3.1188 8.5495 3.1188 9.4701 0 2.9134 2.7607 4.5878 7.5641 4.5878 6.4923 0 7.1545-2.6945 2.004-8.1526-2.5438-2.6958-3.2827-4.0595-1.9424-3.5847 1.1898 0.42163 5.5471 1.643 9.6825 2.7147 9.7918 2.5373 11.335 3.3869 18.173 10.004 5.1404 4.9741 5.555 5.7629 3.9593 7.526-0.98035 1.0833-2.1304 3.7091-2.5556 5.8347l-0.77304 3.8656h6.0724c3.7209 0 6.6182-0.6574 7.4814-1.6976zm116.52-67.452c6.7523-0.97612 9.7347-2.4803 9.8042-4.9458 0.0265-0.90249-11.248-18.942-15.33-24.531-1.8286-2.5036-4.0992-4.552-5.0456-4.552-1.3144 0-1.5411 1.075-0.96024 4.552 1.8716 11.202 2.1681 18.223 0.80532 19.065-0.76832 0.47485-5.6087 1.8893-10.756 3.1433-5.1476 1.2541-12.09 3.3548-15.428 4.6687l-6.0694 2.3883 10.318 0.44548c20.816 0.89864 25.039 0.86844 32.663-0.23353zm-80.305-40.062c7.1031-3.0816 7.8654-5.0962 3.8569-10.192-13.97-10.452-1.6251-6.4878-7.5744-8.4663 0-2.6002-3.2692-3.2288-5.8778-3.2288-2.5891 0-3.0259 3.5727-0.72225 5.9084 1.2163 1.2331 1.0357 1.8941-0.91035 3.3316-3.7938 2.8023-10.094 0.57016-12.832-4.5463-0.94868-1.7727-0.48048-2.5379 2.494-4.0761 2.1727-1.1235 3.662-2.8557 3.662-4.259 0-2.7929-6.4904-6.5596-9.808-5.6922-1.2327 0.32254-2.8453-0.14177-3.5837-1.0313-2.1833-2.6307-8.4622-3.503-10.506-1.4595-4.6359 4.6359-2.8404 19.514 3.1462 26.069 9.8284 10.761 24.694 13.701 38.656 7.6439zm60.271-4.0701c3.3428-4.4937 4.3917-23.068 1.52-26.92-0.9946-1.3343-2.1302-2.104-2.5236-1.7107-0.39318 0.39317-1.2012 4.5852-1.795 9.3152-0.67708 5.3925-2.3091 10.859-4.3758 14.656-1.8127 3.3306-2.9099 6.6798-2.4381 7.4432 1.473 2.3832 6.9489 0.79773 9.6126-2.7834zm46.158-2.9837c11.859-4.0689 14.654-7.2153 14.654-16.494 0-7.6757-2.9344-12.906-7.2395-12.906-1.6143 0-3.2726 0.54628-3.6853 1.2139-0.41245 0.66764-2.3375 1.2138-4.2776 1.2138-4.3739 0-6.7807 3.6317-4.8263 7.2833 0.71461 1.3352 2.0994 2.4278 3.0774 2.4278 2.1436 0 1.51 2.339-0.52141 4.3705-0.80116 0.80113-2.8045 2.1464-5.061 2.1464-3.8966 0-3.7186 0.58974-2.9829-2.7597 0.46306-2.1084 0.22715-3.8645-0.58698-4.3675-2.0694-1.279-6.97 2.2712-6.2569 4.9983 0.46563 1.7804 1.3749 0.55781-0.54182 0.55781-1.609 0-1.7923 3.2894-4.7851 6.0894-1.7894 3.4603-1.782 3.9268 0.0952 6.0014 3.9514 4.366 10.677 4.4321 22.938 0.2248zm-64.171-10.049c3.262-3.0645 3.7492-7.3529 1.6814-14.799-1.2567-4.5251-3.1902-5.9348-4.163-3.0347-0.27968 0.83457-1.0986 3.8218-1.8194 6.6386-1.1641 4.5493-1.8626 5.2867-6.2557 6.6027-5.5248 1.6552-6.9663 3.7446-4.5727 6.6284 2.3027 2.7746 11.297 1.564 15.129-2.0363zm-25.189-7.5264c0.37492-1.9475-8.6481-17.996-13.036-23.186-3.155-3.7316-14.959-9.0264-28.762-12.903-15.021-4.2178-17.796-4.4881-17.238-1.6793 0.21959 1.1063 7.3382 5.7073 16.173 10.453 17.891 9.6107 26.669 15.908 33.863 24.293 5.01 5.8388 8.2479 6.9262 9 3.0219zm9.8469-12.539c3.0116-2.5341 3.7348-4.0723 3.7348-7.9451 0-9.376-9.2596-13.841-17.11-8.2513-4.2624 3.0351-4.5758 7.0358-1.0034 12.816 4.4896 7.2645 8.6118 8.2339 14.379 3.381zm43.974-2.2648c5.4027-3.6712 7.3098-10.434 3.9801-14.113-5.1192-5.6563-18.726-3.3505-18.726 3.1734 0 4.0708 2.9357 9.6451 6.3324 12.024 3.4409 2.4101 3.2299 2.4373 8.4138-1.0851zm24.08-3.9344c15.314-4.3887 20.683-8.3329 20.633-15.159-0.0151-1.81-4.9983-8.6462-14.001-19.198-7.6893-9.0128-14.918-17.094-16.063-17.958-6.7089-5.0595-41.302-9.6417-38.494-5.0988 0.32654 0.52886 4.8297 1.8954 10.006 3.0367 12.131 2.6747 15.866 4.2666 21.393 9.1198 3.7122 3.2593 4.3947 4.5467 3.8134 7.1938-0.46922 2.1362 0.39503 5.634 2.5625 10.368 1.8558 4.0538 3.3185 9.4716 3.3815 12.525 0.10356 5.0229-0.31445 5.7568-6.2625 11.003-10.855 9.5729-8.4784 10.333 13.031 4.1691zm-190.56-24.95c-3.41e-4 -0.83454-1.1254-4.4767-2.5001-8.0933-1.7741-4.6676-2.2714-7.9266-1.7135-11.228 0.96194-5.6933 1.9806-5.8475 4.4484-0.67236 2.568 5.3853 8.0963 11.801 10.169 11.801 2.3102 0 2.6917-2.6331 3.4701-23.952 0.53411-14.629 0.30878-19.318-1.0802-22.457-0.96538-2.1817-3.1644-10.938-4.8868-19.458-3.8751-19.171-8.9013-34.836-15.413-48.037-4.8324-9.7978-11.436-18.408-14.116-18.408-0.90548 0-1.0868 5.1578-0.58982 16.777 0.43172 10.094 0.15269 21.336-0.6998 28.223-2.0122 16.251-2.1001 60.845-0.13493 68.498 2.3977 9.3352 6.8321 17.226 13.007 23.141 5.4394 5.2118 10.042 6.9844 10.04 3.8671zm36.555-4.1547c1.9233-0.38494 4.1967-0.11883 5.052 0.59133 2.1988 1.8249 9.3216-1.6022 19.381-9.325 4.5013-3.4557 9.4176-6.7497 10.924-7.3204 5.5138-2.0867 17.561-2.6781 27.625-1.3559 20.38 2.6774 23.478 2.885 22.633 1.5175-1.1394-1.8437-21.652-8.4213-31.399-10.068-6.125-1.0351-10.795-1.028-18.73 0.02759-12.315 1.6388-12.838 1.8724-19.238 8.5903-2.6705 2.8032-7.5494 6.368-10.842 7.9213-8.8643 4.1827-9.9444 2.6114-4.9594-7.2146 5.9386-11.705 5.4137-18.808-2.3411-31.686-2.3877-3.965-7.0823-14.242-10.432-22.839-6.1866-15.876-13.083-30.614-13.928-29.769-0.8995 0.89951 5.5058 23.917 9.7513 35.043 9.1772 24.048 11.055 38.728 7.1507 55.894-2.3158 10.182-1.7497 12.599 2.6901 11.485 1.7407-0.43675 4.7387-1.1091 6.662-1.4937zm189.37-11.626c2.0914-2.8374 5.4344-8.5959 7.4292-12.796 3.1294-6.591 3.5588-8.6991 3.1332-15.383-0.43082-6.769-1.7404-10.244-10.386-27.565-9.5967-19.226-11.935-25.538-14.868-40.13-1.7702-8.8106-3.2788-9.7823-4.3278-2.7873-1.226 8.1757 1.2992 26.054 6.0917 43.127 5.2802 18.812 5.5161 26.789 1.1491 38.894-1.8205 5.0467-2.8388 9.8742-2.4281 11.511 0.922 3.6736 6.5146 10.289 8.6988 10.289 0.93791 0 3.4165-2.3216 5.5082-5.1589z" fill="url(#linearGradient4595)" stroke-width="1.2138"/>
 </g>
</svg>
