<svg width="128" height="128" viewBox="0 0 33.867 33.867" xmlns:xlink="http://www.w3.org/1999/xlink" xmlns="http://www.w3.org/2000/svg"><defs><linearGradient id="a"><stop style="stop-color:#fff;stop-opacity:1" offset="0"/><stop style="stop-color:#0670ff;stop-opacity:1" offset="1"/></linearGradient><linearGradient id="b"><stop style="stop-color:#0dbbff;stop-opacity:1" offset="0"/><stop style="stop-color:#0245ff;stop-opacity:1" offset="1"/></linearGradient><linearGradient xlink:href="#a" id="d" x1="16.574" y1="11.639" x2="16.574" y2="37.021" gradientUnits="userSpaceOnUse" gradientTransform="translate(-40.995 -33.243) scale(2.92822)"/><radialGradient xlink:href="#b" id="c" cx="16.937" cy="3.243" fx="16.937" fy="3.243" r="14.544" gradientUnits="userSpaceOnUse" gradientTransform="matrix(4.47917 0 0 2.03916 -58.927 -3.37)"/></defs><g transform="translate(-65.587 -37.192) scale(.97573)" style="opacity:.296765"><rect style="fill:none;fill-opacity:1;stroke:#000;stroke-width:.1;stroke-linecap:round;stroke-linejoin:round;stroke-miterlimit:4;stroke-dasharray:none;stroke-opacity:.02" width="29.811" height="29.811" x="69.84" y="40.71" rx="6.61" ry="6.61"/><rect ry="6.61" rx="6.61" y="40.71" x="69.84" height="29.811" width="29.811" style="fill:none;fill-opacity:1;stroke:#000;stroke-width:.2;stroke-linecap:round;stroke-linejoin:round;stroke-miterlimit:4;stroke-dasharray:none;stroke-opacity:.02"/><rect style="fill:none;fill-opacity:1;stroke:#000;stroke-width:.3;stroke-linecap:round;stroke-linejoin:round;stroke-miterlimit:4;stroke-dasharray:none;stroke-opacity:.02" width="29.811" height="29.811" x="69.84" y="40.71" rx="6.61" ry="6.61"/><rect ry="6.61" rx="6.61" y="40.71" x="69.84" height="29.811" width="29.811" style="fill:none;fill-opacity:1;stroke:#000;stroke-width:.4;stroke-linecap:round;stroke-linejoin:round;stroke-miterlimit:4;stroke-dasharray:none;stroke-opacity:.02"/><rect style="fill:none;fill-opacity:1;stroke:#000;stroke-width:.5;stroke-linecap:round;stroke-linejoin:round;stroke-miterlimit:4;stroke-dasharray:none;stroke-opacity:.02" width="29.811" height="29.811" x="69.84" y="40.71" rx="6.61" ry="6.61"/><rect ry="6.61" rx="6.61" y="40.71" x="69.84" height="29.811" width="29.811" style="fill:none;fill-opacity:1;stroke:#000;stroke-width:.6;stroke-linecap:round;stroke-linejoin:round;stroke-miterlimit:4;stroke-dasharray:none;stroke-opacity:.02"/><rect style="fill:none;fill-opacity:1;stroke:#000;stroke-width:.7;stroke-linecap:round;stroke-linejoin:round;stroke-miterlimit:4;stroke-dasharray:none;stroke-opacity:.02" width="29.811" height="29.811" x="69.84" y="40.71" rx="6.61" ry="6.61"/><rect ry="6.61" rx="6.61" y="40.71" x="69.84" height="29.811" width="29.811" style="fill:none;fill-opacity:1;stroke:#000;stroke-width:.8;stroke-linecap:round;stroke-linejoin:round;stroke-miterlimit:4;stroke-dasharray:none;stroke-opacity:.02"/><rect style="fill:none;fill-opacity:1;stroke:#000;stroke-width:1;stroke-linecap:round;stroke-linejoin:round;stroke-miterlimit:4;stroke-dasharray:none;stroke-opacity:.02" width="29.811" height="29.811" x="69.84" y="40.71" rx="6.61" ry="6.61"/><rect ry="6.61" rx="6.61" y="40.71" x="69.84" height="29.811" width="29.811" style="fill:none;fill-opacity:1;stroke:#000;stroke-width:1.2;stroke-linecap:round;stroke-linejoin:round;stroke-miterlimit:4;stroke-dasharray:none;stroke-opacity:.02"/><rect style="fill:none;fill-opacity:1;stroke:#000;stroke-width:1.4;stroke-linecap:round;stroke-linejoin:round;stroke-miterlimit:4;stroke-dasharray:none;stroke-opacity:.02" width="29.811" height="29.811" x="69.84" y="40.71" rx="6.61" ry="6.61"/><rect ry="6.61" rx="6.61" y="40.71" x="69.84" height="29.811" width="29.811" style="fill:none;fill-opacity:1;stroke:#000;stroke-width:1.6;stroke-linecap:round;stroke-linejoin:round;stroke-miterlimit:4;stroke-dasharray:none;stroke-opacity:.02"/><rect style="fill:none;fill-opacity:1;stroke:#000;stroke-width:1.8;stroke-linecap:round;stroke-linejoin:round;stroke-miterlimit:4;stroke-dasharray:none;stroke-opacity:.02" width="29.811" height="29.811" x="69.84" y="40.71" rx="6.61" ry="6.61"/><rect ry="6.61" rx="6.61" y="40.71" x="69.84" height="29.811" width="29.811" style="fill:none;fill-opacity:1;stroke:#000;stroke-width:2;stroke-linecap:round;stroke-linejoin:round;stroke-miterlimit:4;stroke-dasharray:none;stroke-opacity:.02"/><rect style="fill:none;fill-opacity:1;stroke:#000;stroke-width:2.2;stroke-linecap:round;stroke-linejoin:round;stroke-miterlimit:4;stroke-dasharray:none;stroke-opacity:.02" width="29.811" height="29.811" x="69.84" y="40.71" rx="6.61" ry="6.61"/><rect ry="6.61" rx="6.61" y="40.71" x="69.84" height="29.811" width="29.811" style="fill:none;fill-opacity:1;stroke:#000;stroke-width:2.6;stroke-linecap:round;stroke-linejoin:round;stroke-miterlimit:4;stroke-dasharray:none;stroke-opacity:.02"/><rect style="fill:none;fill-opacity:1;stroke:#000;stroke-width:3;stroke-linecap:round;stroke-linejoin:round;stroke-miterlimit:4;stroke-dasharray:none;stroke-opacity:.02" width="29.811" height="29.811" x="69.84" y="40.71" rx="6.61" ry="6.61"/><rect ry="6.61" rx="6.61" y="40.71" x="69.84" height="29.811" width="29.811" style="fill:none;fill-opacity:1;stroke:#000;stroke-width:3.4;stroke-linecap:round;stroke-linejoin:round;stroke-miterlimit:4;stroke-dasharray:none;stroke-opacity:.02"/><rect style="fill:none;fill-opacity:1;stroke:#000;stroke-width:3.8;stroke-linecap:round;stroke-linejoin:round;stroke-miterlimit:4;stroke-dasharray:none;stroke-opacity:.02" width="29.811" height="29.811" x="69.84" y="40.71" rx="6.61" ry="6.61"/><rect ry="6.61" rx="6.61" y="40.71" x="69.84" height="29.811" width="29.811" style="fill:none;fill-opacity:1;stroke:#000;stroke-width:4.2;stroke-linecap:round;stroke-linejoin:round;stroke-miterlimit:4;stroke-dasharray:none;stroke-opacity:.02"/><rect style="fill:none;fill-opacity:1;stroke:#000;stroke-width:4.6;stroke-linecap:round;stroke-linejoin:round;stroke-miterlimit:4;stroke-dasharray:none;stroke-opacity:.02" width="29.811" height="29.811" x="69.84" y="40.71" rx="6.61" ry="6.61"/><rect ry="6.61" rx="6.61" y="40.71" x="69.84" height="29.811" width="29.811" style="fill:none;fill-opacity:1;stroke:#000;stroke-width:5;stroke-linecap:round;stroke-linejoin:round;stroke-miterlimit:4;stroke-dasharray:none;stroke-opacity:.02"/></g><rect style="fill:url(#c);fill-opacity:1;stroke-width:2.68769;stroke-linecap:round;stroke-linejoin:round" width="29.087" height="29.087" x="2.558" y="2.529" rx="6.449" ry="6.449"/><g style="opacity:.792224;fill:#00003d;fill-opacity:.01"><path style="fill:#00003d;fill-opacity:.01;stroke-width:.774759" d="M17.2 23.368a1.96 1.96 0 0 0-1.551.965c-.255.44-.326.981-.195 1.471.132.49.464.922.904 1.176.44.254.98.325 1.47.194a1.96 1.96 0 0 0 1.176-.903c.254-.44.325-.981.194-1.471a1.96 1.96 0 0 0-.903-1.176c-.33-.19-.716-.28-1.096-.256zm5.448-7.75a2.795 2.795 0 0 0-1.557.52c-.521.378-.892.923-1.298 1.422-.204.25-.42.491-.67.695-.249.204-.534.37-.845.454a2.3 2.3 0 0 1-.96.028 4.79 4.79 0 0 1-.927-.267c-.602-.23-1.194-.517-1.835-.584a2.807 2.807 0 0 0-2.384.948 2.796 2.796 0 0 0-.566 2.499c.23.857.902 1.583 1.74 1.879.839.296 1.82.154 2.54-.368.521-.378.891-.923 1.298-1.422.203-.25.42-.491.669-.695.25-.203.534-.37.846-.454.311-.083.64-.08.959-.028a4.8 4.8 0 0 1 .928.268c.602.229 1.194.516 1.835.584a2.807 2.807 0 0 0 2.383-.95 2.79 2.79 0 0 0 .566-2.497 2.797 2.797 0 0 0-1.74-1.88 2.728 2.728 0 0 0-.982-.151Zm-.163-7.747c-.74.02-1.477.251-2.076.675-.696.492-1.188 1.202-1.73 1.851a6.28 6.28 0 0 1-.893.902 3.08 3.08 0 0 1-1.127.589 3.133 3.133 0 0 1-1.279.039 6.523 6.523 0 0 1-1.238-.348c-.803-.298-1.593-.672-2.448-.76-1.18-.12-2.407.356-3.178 1.233a3.566 3.566 0 0 0-.755 3.248c.307 1.115 1.205 2.058 2.323 2.444 1.118.385 2.426.2 3.385-.479.695-.492 1.187-1.201 1.73-1.85a6.28 6.28 0 0 1 .892-.902 3.08 3.08 0 0 1 1.128-.589 3.134 3.134 0 0 1 1.278-.04c.425.068.837.2 1.238.349.803.298 1.594.672 2.449.76 1.18.12 2.407-.356 3.177-1.234a3.566 3.566 0 0 0 .755-3.247c-.307-1.115-1.204-2.059-2.322-2.444a3.72 3.72 0 0 0-1.31-.197Z"/><path style="fill:#00003d;fill-opacity:.01;stroke-width:.774759" d="M17.298 23.503a1.96 1.96 0 0 0-1.551.965c-.254.44-.325.981-.194 1.471.132.49.464.922.904 1.176.44.254.98.325 1.47.194a1.96 1.96 0 0 0 1.176-.904c.254-.44.325-.98.194-1.47a1.96 1.96 0 0 0-.903-1.176c-.33-.19-.716-.28-1.096-.256zm5.45-7.75a2.795 2.795 0 0 0-1.558.52c-.521.378-.892.923-1.298 1.422-.204.25-.42.49-.67.695-.249.203-.534.37-.845.454a2.3 2.3 0 0 1-.96.028 4.79 4.79 0 0 1-.927-.268c-.602-.229-1.194-.516-1.835-.584a2.807 2.807 0 0 0-2.384.95 2.796 2.796 0 0 0-.566 2.497c.23.858.902 1.584 1.74 1.88.839.296 1.82.154 2.54-.368.521-.378.891-.923 1.298-1.422.203-.25.42-.491.669-.695a2.3 2.3 0 0 1 .846-.454c.311-.083.64-.08.959-.028.318.051.626.153.928.267.602.23 1.194.517 1.835.584a2.807 2.807 0 0 0 2.383-.948c.578-.675.797-1.64.566-2.499a2.797 2.797 0 0 0-1.74-1.879 2.728 2.728 0 0 0-.982-.151zm-.164-7.747c-.74.02-1.477.251-2.076.675-.696.492-1.188 1.202-1.73 1.85a6.28 6.28 0 0 1-.893.903 3.08 3.08 0 0 1-1.127.588 3.133 3.133 0 0 1-1.279.04 6.523 6.523 0 0 1-1.238-.348c-.803-.299-1.593-.672-2.448-.76-1.18-.121-2.407.356-3.178 1.233a3.566 3.566 0 0 0-.755 3.248c.307 1.115 1.205 2.058 2.323 2.443a3.82 3.82 0 0 0 3.385-.478c.695-.492 1.187-1.201 1.73-1.85a6.28 6.28 0 0 1 .892-.902 3.08 3.08 0 0 1 1.128-.589 3.134 3.134 0 0 1 1.278-.04c.425.068.837.2 1.238.349.803.298 1.594.672 2.449.76 1.18.12 2.407-.356 3.177-1.234a3.566 3.566 0 0 0 .755-3.247c-.307-1.115-1.204-2.059-2.322-2.444a3.72 3.72 0 0 0-1.31-.197Z"/><path style="fill:#00003d;fill-opacity:.01;stroke-width:.774759" d="M17.36 23.63a1.96 1.96 0 0 0-1.551.965c-.254.44-.326.981-.194 1.471.131.49.464.922.903 1.176.44.254.98.325 1.471.194a1.96 1.96 0 0 0 1.176-.904c.253-.44.325-.98.193-1.47a1.96 1.96 0 0 0-.903-1.176c-.33-.19-.716-.28-1.096-.256zm5.449-7.75a2.795 2.795 0 0 0-1.558.52c-.521.378-.891.923-1.298 1.422-.203.25-.42.49-.669.694-.25.204-.534.371-.846.454-.311.084-.64.081-.959.03a4.79 4.79 0 0 1-.928-.269c-.602-.23-1.194-.516-1.835-.584a2.807 2.807 0 0 0-2.383.949 2.796 2.796 0 0 0-.566 2.498c.23.858.901 1.583 1.74 1.88a2.81 2.81 0 0 0 2.539-.368c.521-.378.892-.923 1.298-1.422.204-.25.42-.491.67-.695.249-.204.534-.37.845-.454.311-.083.641-.08.96-.029.318.052.626.153.927.268.602.23 1.194.517 1.836.584a2.807 2.807 0 0 0 2.383-.948 2.798 2.798 0 0 0 .566-2.499 2.797 2.797 0 0 0-1.74-1.88 2.728 2.728 0 0 0-.982-.15zm-.164-7.747c-.74.02-1.476.25-2.076.675-.695.492-1.187 1.202-1.73 1.85a6.28 6.28 0 0 1-.892.903 3.08 3.08 0 0 1-1.128.588 3.133 3.133 0 0 1-1.278.04 6.523 6.523 0 0 1-1.238-.349c-.803-.298-1.594-.671-2.449-.76-1.179-.12-2.407.356-3.177 1.234a3.566 3.566 0 0 0-.755 3.247c.307 1.115 1.204 2.06 2.322 2.444 1.118.385 2.426.2 3.385-.478.696-.492 1.188-1.201 1.73-1.85a6.28 6.28 0 0 1 .893-.902 3.08 3.08 0 0 1 1.127-.59 3.134 3.134 0 0 1 1.279-.038 6.51 6.51 0 0 1 1.238.348c.803.298 1.593.672 2.448.76 1.18.12 2.407-.356 3.178-1.234a3.566 3.566 0 0 0 .755-3.247c-.307-1.115-1.205-2.059-2.323-2.444a3.72 3.72 0 0 0-1.309-.197Z"/><path style="fill:#00003d;fill-opacity:.01;stroke-width:.774759" d="M17.402 23.715a1.96 1.96 0 0 0-1.551.965c-.254.44-.325.981-.194 1.472.131.49.464.922.903 1.175.44.254.98.325 1.471.194a1.96 1.96 0 0 0 1.176-.903c.254-.44.325-.981.194-1.471a1.96 1.96 0 0 0-.904-1.176c-.33-.19-.716-.28-1.095-.256zm5.449-7.75a2.795 2.795 0 0 0-1.557.52c-.522.378-.892.923-1.299 1.422-.203.25-.42.491-.669.695-.25.204-.534.37-.845.454-.312.083-.642.08-.96.029a4.79 4.79 0 0 1-.927-.268c-.603-.23-1.195-.517-1.836-.584a2.807 2.807 0 0 0-2.383.948 2.796 2.796 0 0 0-.566 2.499c.23.857.901 1.583 1.74 1.879.839.296 1.82.154 2.54-.368.52-.378.89-.923 1.297-1.422.204-.25.42-.49.67-.695.249-.203.534-.37.845-.454a2.3 2.3 0 0 1 .96-.028c.318.052.626.153.927.268.603.229 1.195.516 1.836.584a2.807 2.807 0 0 0 2.383-.95c.578-.674.796-1.64.566-2.497a2.797 2.797 0 0 0-1.74-1.88 2.728 2.728 0 0 0-.982-.151zm-.164-7.746c-.74.02-1.476.25-2.076.674-.695.492-1.187 1.202-1.73 1.851a6.28 6.28 0 0 1-.892.902 3.08 3.08 0 0 1-1.128.589 3.133 3.133 0 0 1-1.278.039 6.523 6.523 0 0 1-1.238-.348c-.803-.298-1.594-.672-2.448-.76-1.18-.12-2.408.356-3.178 1.233a3.566 3.566 0 0 0-.755 3.248c.307 1.115 1.204 2.058 2.323 2.444 1.118.385 2.425.2 3.385-.479.695-.491 1.187-1.201 1.73-1.85a6.28 6.28 0 0 1 .892-.902 3.08 3.08 0 0 1 1.127-.589 3.134 3.134 0 0 1 1.279-.039 6.51 6.51 0 0 1 1.238.348c.803.298 1.593.672 2.448.76 1.18.12 2.407-.356 3.178-1.234a3.566 3.566 0 0 0 .755-3.247c-.307-1.115-1.205-2.059-2.323-2.444a3.72 3.72 0 0 0-1.309-.197Z"/><path style="fill:#00003d;fill-opacity:.01;stroke-width:.774759" d="M17.433 23.783a1.96 1.96 0 0 0-1.551.965c-.254.44-.325.981-.194 1.472.132.49.464.922.904 1.175.44.254.98.325 1.47.194a1.96 1.96 0 0 0 1.176-.903c.254-.44.325-.98.194-1.471a1.96 1.96 0 0 0-.904-1.176 1.96 1.96 0 0 0-1.095-.256zm5.449-7.749a2.795 2.795 0 0 0-1.557.52c-.522.377-.892.922-1.298 1.421-.204.25-.42.491-.67.695-.249.204-.534.37-.845.454-.312.083-.641.08-.96.029a4.79 4.79 0 0 1-.927-.268c-.602-.23-1.194-.517-1.836-.584a2.807 2.807 0 0 0-2.383.949 2.796 2.796 0 0 0-.566 2.498 2.8 2.8 0 0 0 1.74 1.88c.839.295 1.82.154 2.54-.368.52-.379.891-.924 1.298-1.423.203-.25.42-.49.669-.694.25-.204.534-.371.846-.454.31-.084.64-.081.959-.03.318.053.626.154.927.269.603.23 1.195.516 1.836.584a2.807 2.807 0 0 0 2.383-.949c.578-.675.796-1.64.566-2.498a2.797 2.797 0 0 0-1.74-1.88 2.728 2.728 0 0 0-.982-.151zm-.163-7.747c-.74.02-1.477.25-2.077.675-.695.492-1.187 1.201-1.73 1.85a6.28 6.28 0 0 1-.892.902 3.08 3.08 0 0 1-1.127.589 3.133 3.133 0 0 1-1.279.04 6.523 6.523 0 0 1-1.238-.349c-.803-.298-1.593-.672-2.448-.76-1.18-.12-2.407.356-3.178 1.234a3.566 3.566 0 0 0-.755 3.247c.307 1.115 1.205 2.059 2.323 2.444 1.118.385 2.426.2 3.385-.478.695-.492 1.187-1.202 1.73-1.851a6.28 6.28 0 0 1 .892-.902 3.08 3.08 0 0 1 1.128-.589 3.134 3.134 0 0 1 1.278-.039c.424.068.836.2 1.238.348.803.298 1.594.672 2.448.76 1.18.12 2.408-.356 3.178-1.233a3.566 3.566 0 0 0 .755-3.248c-.307-1.115-1.204-2.058-2.323-2.444a3.72 3.72 0 0 0-1.308-.196z"/><path style="fill:#00003d;fill-opacity:.01;stroke-width:.774759" d="M17.462 23.837a1.96 1.96 0 0 0-1.551.965c-.254.44-.325.982-.194 1.472s.464.922.904 1.175c.439.254.98.326 1.47.194a1.96 1.96 0 0 0 1.176-.903c.254-.44.325-.98.194-1.471a1.96 1.96 0 0 0-.904-1.176 1.97 1.97 0 0 0-1.095-.256zm5.449-7.749a2.795 2.795 0 0 0-1.557.52c-.522.378-.892.922-1.298 1.422-.204.25-.42.49-.67.694-.249.204-.534.37-.845.454-.312.083-.641.08-.96.029a4.79 4.79 0 0 1-.927-.268c-.603-.23-1.195-.517-1.836-.584a2.807 2.807 0 0 0-2.383.949 2.796 2.796 0 0 0-.566 2.498 2.8 2.8 0 0 0 1.74 1.88c.839.296 1.82.154 2.54-.368.52-.379.891-.924 1.298-1.423.203-.25.42-.49.669-.694a2.29 2.29 0 0 1 .845-.454c.312-.084.642-.081.96-.029.318.052.626.153.927.268.603.23 1.195.516 1.836.584a2.807 2.807 0 0 0 2.383-.949c.578-.675.796-1.64.566-2.498a2.797 2.797 0 0 0-1.74-1.88 2.728 2.728 0 0 0-.982-.15zm-.164-7.747c-.74.02-1.476.25-2.076.675-.695.492-1.187 1.201-1.73 1.85a6.28 6.28 0 0 1-.892.902 3.08 3.08 0 0 1-1.127.589 3.133 3.133 0 0 1-1.279.04 6.523 6.523 0 0 1-1.238-.349c-.803-.298-1.593-.672-2.448-.76-1.18-.12-2.407.356-3.178 1.234a3.566 3.566 0 0 0-.755 3.247c.307 1.115 1.205 2.059 2.323 2.444 1.118.385 2.426.2 3.385-.478.695-.492 1.187-1.202 1.73-1.85a6.28 6.28 0 0 1 .892-.903 3.08 3.08 0 0 1 1.128-.588 3.134 3.134 0 0 1 1.278-.04c.424.068.836.2 1.238.348.803.298 1.594.672 2.448.76 1.18.12 2.408-.356 3.178-1.233a3.566 3.566 0 0 0 .755-3.248c-.307-1.115-1.205-2.058-2.323-2.444a3.72 3.72 0 0 0-1.309-.196Z"/><path style="fill:#00003d;fill-opacity:.01;stroke-width:.774759" d="M17.474 23.908a1.96 1.96 0 0 0-1.551.965c-.254.44-.325.981-.194 1.471.131.49.464.922.903 1.176.44.254.981.325 1.471.194a1.96 1.96 0 0 0 1.176-.904 1.96 1.96 0 0 0 .194-1.47 1.96 1.96 0 0 0-.904-1.176c-.33-.19-.716-.28-1.095-.256zm5.449-7.75a2.795 2.795 0 0 0-1.557.52c-.522.378-.892.923-1.299 1.422a4.73 4.73 0 0 1-.669.695c-.249.203-.534.37-.845.454a2.3 2.3 0 0 1-.96.028 4.79 4.79 0 0 1-.927-.267c-.603-.23-1.195-.517-1.836-.585a2.807 2.807 0 0 0-2.383.95 2.796 2.796 0 0 0-.566 2.498c.23.857.902 1.583 1.74 1.879.839.296 1.82.154 2.54-.368.52-.378.89-.923 1.298-1.422.203-.25.419-.491.668-.695.25-.204.535-.37.846-.454a2.3 2.3 0 0 1 .96-.028c.318.051.626.153.927.267.603.23 1.195.517 1.836.585a2.807 2.807 0 0 0 2.383-.95c.578-.674.796-1.64.566-2.498a2.797 2.797 0 0 0-1.74-1.879 2.728 2.728 0 0 0-.982-.151zm-.164-7.747c-.74.02-1.476.251-2.076.675-.695.492-1.187 1.202-1.73 1.85a6.28 6.28 0 0 1-.892.903 3.08 3.08 0 0 1-1.128.588 3.133 3.133 0 0 1-1.278.04 6.523 6.523 0 0 1-1.238-.348c-.803-.298-1.593-.672-2.448-.76-1.18-.12-2.408.356-3.178 1.233a3.566 3.566 0 0 0-.755 3.248c.307 1.115 1.205 2.058 2.323 2.444 1.118.385 2.425.2 3.385-.479.695-.492 1.187-1.201 1.73-1.85a6.28 6.28 0 0 1 .892-.902 3.08 3.08 0 0 1 1.127-.589 3.134 3.134 0 0 1 1.279-.04c.424.068.836.2 1.238.349.803.298 1.593.672 2.448.76 1.18.12 2.408-.356 3.178-1.234a3.566 3.566 0 0 0 .755-3.247c-.307-1.115-1.205-2.059-2.323-2.444a3.72 3.72 0 0 0-1.309-.197z"/><path style="fill:#00003d;fill-opacity:.01;stroke-width:.774759" d="M17.5 23.946a1.96 1.96 0 0 0-1.551.965c-.254.44-.325.981-.194 1.471.132.49.464.922.904 1.176.44.254.98.325 1.47.194a1.96 1.96 0 0 0 1.176-.904c.254-.44.325-.98.194-1.47a1.96 1.96 0 0 0-.903-1.176c-.33-.19-.716-.28-1.096-.256zm5.45-7.75a2.795 2.795 0 0 0-1.558.52c-.521.378-.891.923-1.298 1.422-.204.25-.42.49-.67.695-.249.203-.534.37-.845.454a2.3 2.3 0 0 1-.96.028 4.79 4.79 0 0 1-.927-.268c-.602-.229-1.194-.516-1.835-.584a2.807 2.807 0 0 0-2.384.95 2.796 2.796 0 0 0-.566 2.497 2.8 2.8 0 0 0 1.74 1.88c.839.296 1.82.154 2.54-.368.521-.378.891-.923 1.298-1.422.203-.25.42-.491.669-.695a2.3 2.3 0 0 1 .846-.454c.311-.083.64-.08.96-.029.317.052.625.154.927.268.602.23 1.194.517 1.835.584a2.807 2.807 0 0 0 2.383-.948 2.795 2.795 0 0 0 .566-2.499 2.797 2.797 0 0 0-1.74-1.88 2.728 2.728 0 0 0-.982-.15zm-.164-7.747c-.74.02-1.477.25-2.076.675-.696.492-1.188 1.202-1.73 1.85a6.28 6.28 0 0 1-.893.903 3.08 3.08 0 0 1-1.127.588 3.133 3.133 0 0 1-1.279.04 6.523 6.523 0 0 1-1.238-.348c-.803-.299-1.593-.672-2.448-.76-1.18-.121-2.407.356-3.178 1.233a3.566 3.566 0 0 0-.755 3.248c.307 1.115 1.205 2.058 2.323 2.443a3.82 3.82 0 0 0 3.385-.478c.695-.492 1.187-1.201 1.73-1.85a6.28 6.28 0 0 1 .892-.902 3.08 3.08 0 0 1 1.128-.589 3.134 3.134 0 0 1 1.278-.04c.425.068.837.2 1.238.349.803.298 1.594.672 2.449.76 1.18.12 2.407-.356 3.177-1.234a3.566 3.566 0 0 0 .755-3.247c-.307-1.115-1.204-2.059-2.322-2.444a3.72 3.72 0 0 0-1.31-.197z"/><path style="fill:#00003d;fill-opacity:.01;stroke-width:.774759" d="M17.522 23.98a1.96 1.96 0 0 0-1.551.965 1.96 1.96 0 0 0-.193 1.472c.13.49.463.922.903 1.176.44.253.98.325 1.47.193a1.96 1.96 0 0 0 1.176-.903c.254-.44.326-.98.194-1.47a1.96 1.96 0 0 0-.903-1.177 1.962 1.962 0 0 0-1.096-.255zm5.45-7.749a2.795 2.795 0 0 0-1.558.52c-.521.378-.891.923-1.298 1.422-.204.25-.42.49-.669.694-.25.204-.534.371-.846.454a2.283 2.283 0 0 1-.96.029 4.79 4.79 0 0 1-.927-.268c-.602-.23-1.194-.516-1.835-.584a2.807 2.807 0 0 0-2.384.949 2.796 2.796 0 0 0-.566 2.498 2.8 2.8 0 0 0 1.74 1.88 2.81 2.81 0 0 0 2.54-.368c.521-.379.891-.923 1.298-1.423.204-.25.42-.49.669-.694a2.3 2.3 0 0 1 .846-.454c.311-.083.641-.08.96-.029.317.052.626.153.927.268.602.23 1.194.517 1.835.584a2.807 2.807 0 0 0 2.384-.949c.577-.675.796-1.64.566-2.498a2.797 2.797 0 0 0-1.74-1.88 2.728 2.728 0 0 0-.983-.15zm-.164-7.747c-.74.02-1.477.25-2.076.675-.696.492-1.187 1.202-1.73 1.85a6.28 6.28 0 0 1-.893.902 3.08 3.08 0 0 1-1.127.59 3.133 3.133 0 0 1-1.279.038 6.523 6.523 0 0 1-1.237-.348c-.804-.298-1.594-.672-2.449-.76-1.18-.12-2.407.356-3.177 1.234a3.566 3.566 0 0 0-.756 3.247c.307 1.115 1.205 2.059 2.323 2.444 1.118.385 2.426.2 3.385-.478.695-.492 1.187-1.202 1.73-1.85a6.28 6.28 0 0 1 .893-.903 3.08 3.08 0 0 1 1.127-.588 3.134 3.134 0 0 1 1.279-.04c.424.068.836.2 1.237.349.804.298 1.594.671 2.449.76 1.18.12 2.407-.356 3.177-1.234a3.566 3.566 0 0 0 .756-3.247c-.307-1.115-1.205-2.06-2.323-2.444a3.72 3.72 0 0 0-1.31-.197z"/><path style="fill:#00003d;fill-opacity:.01;stroke-width:.774759" d="M17.545 24.013a1.96 1.96 0 0 0-1.551.965c-.254.44-.325.981-.194 1.471.131.49.464.922.903 1.176.44.254.98.325 1.471.194a1.96 1.96 0 0 0 1.176-.904c.254-.44.325-.98.194-1.47a1.96 1.96 0 0 0-.904-1.176c-.33-.19-.716-.28-1.095-.256zm5.449-7.75a2.795 2.795 0 0 0-1.557.52c-.522.378-.892.923-1.299 1.422-.203.25-.42.49-.669.695a2.32 2.32 0 0 1-.845.454 2.3 2.3 0 0 1-.96.028 4.79 4.79 0 0 1-.927-.268c-.603-.229-1.195-.516-1.836-.584a2.807 2.807 0 0 0-2.383.95 2.796 2.796 0 0 0-.566 2.497c.23.858.901 1.583 1.74 1.88.839.296 1.82.154 2.54-.368.52-.378.89-.923 1.297-1.422.204-.25.42-.491.67-.695.249-.204.534-.37.845-.454.312-.083.641-.08.96-.029.318.052.626.154.927.268.603.23 1.195.517 1.836.584a2.807 2.807 0 0 0 2.383-.948 2.798 2.798 0 0 0 .566-2.499 2.797 2.797 0 0 0-1.74-1.88 2.728 2.728 0 0 0-.982-.15zm-.164-7.747c-.74.02-1.476.25-2.076.675-.695.492-1.187 1.202-1.73 1.85a6.28 6.28 0 0 1-.892.903 3.08 3.08 0 0 1-1.128.588 3.133 3.133 0 0 1-1.278.04 6.523 6.523 0 0 1-1.238-.348c-.803-.299-1.594-.672-2.448-.76-1.18-.121-2.408.356-3.178 1.233a3.566 3.566 0 0 0-.755 3.248c.307 1.115 1.204 2.058 2.323 2.443a3.82 3.82 0 0 0 3.385-.478c.695-.492 1.187-1.201 1.73-1.85a6.28 6.28 0 0 1 .892-.902 3.08 3.08 0 0 1 1.127-.589 3.134 3.134 0 0 1 1.279-.04c.424.068.836.2 1.238.349.803.298 1.593.672 2.448.76 1.18.12 2.407-.356 3.178-1.234a3.566 3.566 0 0 0 .755-3.247c-.307-1.115-1.205-2.059-2.323-2.444a3.72 3.72 0 0 0-1.309-.197z"/><path style="fill:#00003d;fill-opacity:.01;stroke-width:.774759" d="M17.56 24.037a1.96 1.96 0 0 0-1.551.965 1.96 1.96 0 0 0-.194 1.47c.132.491.464.923.904 1.177.44.253.98.325 1.47.193a1.96 1.96 0 0 0 1.176-.903c.254-.44.325-.98.194-1.47a1.96 1.96 0 0 0-.903-1.177 1.962 1.962 0 0 0-1.096-.255zm5.45-7.75a2.795 2.795 0 0 0-1.558.52c-.521.378-.892.922-1.298 1.422-.204.25-.42.49-.67.694-.249.204-.534.37-.845.454-.311.083-.641.08-.96.029a4.79 4.79 0 0 1-.927-.268c-.602-.23-1.194-.517-1.836-.584a2.807 2.807 0 0 0-2.383.949A2.796 2.796 0 0 0 11.967 22a2.8 2.8 0 0 0 1.74 1.88c.839.296 1.82.154 2.54-.368.521-.379.891-.923 1.298-1.423.203-.25.42-.49.669-.694a2.3 2.3 0 0 1 .846-.454c.311-.083.64-.08.959-.029a4.8 4.8 0 0 1 .928.268c.602.23 1.194.517 1.835.584a2.807 2.807 0 0 0 2.383-.949c.578-.675.797-1.64.566-2.498a2.797 2.797 0 0 0-1.74-1.88 2.728 2.728 0 0 0-.982-.15zm-.164-7.747c-.74.02-1.477.25-2.076.675-.696.492-1.188 1.201-1.73 1.85a6.28 6.28 0 0 1-.893.902 3.08 3.08 0 0 1-1.127.589 3.133 3.133 0 0 1-1.279.04 6.523 6.523 0 0 1-1.238-.349c-.803-.298-1.593-.672-2.448-.76-1.18-.12-2.407.356-3.178 1.234a3.566 3.566 0 0 0-.755 3.247c.307 1.115 1.205 2.059 2.323 2.444 1.118.385 2.426.2 3.385-.478.695-.492 1.187-1.202 1.73-1.85a6.28 6.28 0 0 1 .892-.903 3.08 3.08 0 0 1 1.128-.588 3.134 3.134 0 0 1 1.278-.04c.425.068.837.2 1.238.348.803.299 1.594.672 2.449.76 1.179.121 2.407-.356 3.177-1.233a3.566 3.566 0 0 0 .755-3.248c-.307-1.115-1.204-2.058-2.322-2.443a3.72 3.72 0 0 0-1.31-.197z"/><path style="fill:#00003d;fill-opacity:.01;stroke-width:.774759" d="M17.57 24.052a1.96 1.96 0 0 0-1.551.965c-.253.44-.324.982-.193 1.472s.464.922.903 1.176c.44.253.981.325 1.471.193a1.96 1.96 0 0 0 1.176-.903c.254-.44.325-.98.194-1.471a1.96 1.96 0 0 0-.904-1.176 1.96 1.96 0 0 0-1.095-.255zm5.45-7.749a2.795 2.795 0 0 0-1.557.52c-.522.378-.892.922-1.299 1.422-.203.25-.419.49-.669.694-.249.204-.534.37-.845.454-.312.083-.642.08-.96.029a4.79 4.79 0 0 1-.927-.268c-.603-.23-1.195-.517-1.836-.584a2.807 2.807 0 0 0-2.383.949 2.796 2.796 0 0 0-.566 2.498 2.8 2.8 0 0 0 1.74 1.88c.839.296 1.82.154 2.54-.368.52-.379.89-.924 1.298-1.423.203-.25.419-.49.668-.694.25-.204.535-.371.846-.454.312-.084.642-.081.96-.029.318.052.626.153.927.268.603.23 1.195.516 1.836.584a2.807 2.807 0 0 0 2.383-.949c.578-.675.796-1.64.566-2.498a2.797 2.797 0 0 0-1.74-1.88 2.728 2.728 0 0 0-.982-.15zm-.164-7.747c-.74.02-1.476.25-2.076.675-.695.492-1.187 1.201-1.73 1.85a6.28 6.28 0 0 1-.892.902 3.08 3.08 0 0 1-1.128.589 3.133 3.133 0 0 1-1.278.04 6.523 6.523 0 0 1-1.238-.349c-.803-.298-1.593-.672-2.448-.76-1.18-.12-2.408.356-3.178 1.234a3.566 3.566 0 0 0-.755 3.247c.307 1.115 1.205 2.059 2.323 2.444 1.118.385 2.425.2 3.385-.478.695-.492 1.187-1.202 1.73-1.85a6.28 6.28 0 0 1 .892-.903 3.08 3.08 0 0 1 1.127-.588 3.134 3.134 0 0 1 1.279-.04c.424.068.836.2 1.238.348.803.298 1.593.672 2.448.76 1.18.12 2.407-.356 3.178-1.233a3.566 3.566 0 0 0 .755-3.248c-.307-1.115-1.205-2.058-2.323-2.444a3.72 3.72 0 0 0-1.309-.196z"/><path style="fill:#00003d;fill-opacity:.01;stroke-width:.774759" d="M17.58 24.063a1.96 1.96 0 0 0-1.551.965c-.255.44-.326.981-.194 1.471.13.49.463.922.903 1.176.44.254.98.325 1.47.194a1.96 1.96 0 0 0 1.176-.904c.254-.44.326-.98.194-1.47a1.96 1.96 0 0 0-.903-1.176c-.33-.19-.716-.28-1.096-.256zm5.448-7.75a2.795 2.795 0 0 0-1.557.52c-.521.378-.891.923-1.298 1.422-.204.25-.42.49-.669.695-.25.203-.534.37-.846.453a2.3 2.3 0 0 1-.96.03 4.79 4.79 0 0 1-.927-.269c-.602-.229-1.194-.516-1.835-.584a2.807 2.807 0 0 0-2.384.949 2.796 2.796 0 0 0-.566 2.498 2.8 2.8 0 0 0 1.74 1.88 2.81 2.81 0 0 0 2.54-.368c.521-.378.891-.923 1.298-1.422.204-.25.42-.491.669-.695a2.3 2.3 0 0 1 .846-.454c.311-.083.641-.08.96-.029.317.052.626.154.927.268.602.23 1.194.517 1.835.584a2.807 2.807 0 0 0 2.384-.948 2.8 2.8 0 0 0 .566-2.499 2.797 2.797 0 0 0-1.74-1.88 2.728 2.728 0 0 0-.983-.15zm-.163-7.747c-.74.02-1.477.25-2.076.675-.696.492-1.187 1.202-1.73 1.85a6.28 6.28 0 0 1-.893.903 3.08 3.08 0 0 1-1.127.588 3.133 3.133 0 0 1-1.279.04 6.523 6.523 0 0 1-1.237-.349c-.804-.298-1.594-.671-2.449-.76-1.18-.12-2.407.356-3.178 1.234a3.566 3.566 0 0 0-.755 3.247c.307 1.115 1.205 2.06 2.323 2.444 1.118.385 2.426.2 3.385-.478.695-.492 1.187-1.201 1.73-1.85a6.28 6.28 0 0 1 .893-.902 3.08 3.08 0 0 1 1.127-.589 3.134 3.134 0 0 1 1.279-.04c.424.068.836.2 1.237.349.804.298 1.594.672 2.449.76 1.18.12 2.407-.356 3.177-1.234a3.566 3.566 0 0 0 .756-3.247c-.307-1.115-1.205-2.059-2.323-2.444a3.72 3.72 0 0 0-1.31-.197z"/><path style="fill:#00003d;fill-opacity:.01;stroke-width:.774759" d="M17.586 24.069a1.96 1.96 0 0 0-1.551.965 1.96 1.96 0 0 0-.193 1.47c.131.491.464.923.903 1.177.44.253.98.325 1.47.193a1.96 1.96 0 0 0 1.177-.903c.253-.44.325-.98.193-1.47a1.96 1.96 0 0 0-.903-1.177 1.962 1.962 0 0 0-1.096-.255zm5.45-7.75a2.795 2.795 0 0 0-1.558.52c-.521.378-.891.922-1.298 1.422-.203.25-.42.49-.669.694-.25.204-.534.371-.846.454-.311.084-.64.08-.959.029a4.79 4.79 0 0 1-.928-.268c-.602-.23-1.194-.517-1.835-.584a2.807 2.807 0 0 0-2.383.949 2.796 2.796 0 0 0-.566 2.498c.23.858.901 1.583 1.74 1.88a2.81 2.81 0 0 0 2.539-.368c.521-.379.892-.923 1.298-1.423.204-.25.42-.49.67-.694.249-.204.534-.37.845-.454.311-.083.641-.08.96-.029.318.052.626.153.927.268.602.23 1.194.517 1.836.584a2.807 2.807 0 0 0 2.383-.949c.578-.675.796-1.64.566-2.498a2.797 2.797 0 0 0-1.74-1.88 2.728 2.728 0 0 0-.983-.15zm-.164-7.747c-.74.02-1.476.25-2.076.675-.695.492-1.187 1.201-1.73 1.85a6.28 6.28 0 0 1-.892.902 3.08 3.08 0 0 1-1.128.589 3.133 3.133 0 0 1-1.278.04 6.523 6.523 0 0 1-1.238-.349c-.803-.298-1.594-.672-2.449-.76-1.18-.12-2.407.356-3.177 1.234A3.566 3.566 0 0 0 8.149 16c.307 1.115 1.204 2.059 2.322 2.444 1.118.385 2.426.2 3.385-.478.696-.492 1.188-1.202 1.73-1.85a6.28 6.28 0 0 1 .893-.903 3.08 3.08 0 0 1 1.127-.588 3.134 3.134 0 0 1 1.279-.04c.424.068.836.2 1.238.348.803.299 1.593.672 2.448.76 1.18.121 2.407-.356 3.178-1.233a3.566 3.566 0 0 0 .755-3.248c-.307-1.115-1.205-2.058-2.323-2.443a3.72 3.72 0 0 0-1.309-.197z"/></g><path style="fill:url(#d);fill-opacity:1;stroke-width:.774759" d="M17.096 23.207a1.96 1.96 0 0 0-1.551.965c-.254.44-.325.981-.194 1.471.132.49.464.922.904 1.176.44.254.98.325 1.47.194a1.96 1.96 0 0 0 1.176-.904c.254-.44.325-.98.194-1.47a1.96 1.96 0 0 0-.903-1.176c-.33-.19-.716-.28-1.096-.256zm5.449-7.75a2.795 2.795 0 0 0-1.557.52c-.522.378-.892.923-1.298 1.422-.204.25-.42.491-.67.695-.249.203-.534.37-.845.454a2.3 2.3 0 0 1-.96.028 4.79 4.79 0 0 1-.927-.267c-.602-.23-1.194-.517-1.836-.585a2.807 2.807 0 0 0-2.383.95 2.796 2.796 0 0 0-.566 2.497c.23.858.902 1.584 1.74 1.88.839.296 1.82.154 2.54-.368.521-.378.891-.923 1.298-1.422.203-.25.42-.491.669-.695a2.3 2.3 0 0 1 .846-.454c.31-.083.64-.08.959-.028.318.051.626.153.928.267.602.23 1.194.517 1.835.585a2.807 2.807 0 0 0 2.383-.95c.578-.674.796-1.64.566-2.498a2.797 2.797 0 0 0-1.74-1.879 2.728 2.728 0 0 0-.982-.151zm-.163-7.747a3.8 3.8 0 0 0-2.077.675c-.695.492-1.187 1.202-1.73 1.85a6.28 6.28 0 0 1-.892.903 3.08 3.08 0 0 1-1.127.588 3.133 3.133 0 0 1-1.279.04 6.523 6.523 0 0 1-1.238-.348c-.803-.298-1.593-.672-2.448-.76-1.18-.12-2.407.356-3.178 1.233a3.566 3.566 0 0 0-.755 3.248c.307 1.115 1.205 2.058 2.323 2.443a3.82 3.82 0 0 0 3.385-.478c.695-.492 1.187-1.201 1.73-1.85a6.28 6.28 0 0 1 .892-.902 3.08 3.08 0 0 1 1.128-.589 3.134 3.134 0 0 1 1.278-.04c.424.068.837.2 1.238.349.803.298 1.594.672 2.448.76 1.18.12 2.408-.356 3.178-1.234a3.566 3.566 0 0 0 .755-3.247c-.307-1.115-1.204-2.059-2.322-2.444a3.72 3.72 0 0 0-1.31-.197Z"/></svg>