<?xml version="1.0" encoding="UTF-8"?>
<svg id="svg2547" width="128" height="128" version="1.1" viewBox="0 0 33.867 33.867" xmlns="http://www.w3.org/2000/svg" xmlns:cc="http://creativecommons.org/ns#" xmlns:dc="http://purl.org/dc/elements/1.1/" xmlns:rdf="http://www.w3.org/1999/02/22-rdf-syntax-ns#" xmlns:xlink="http://www.w3.org/1999/xlink">
 <defs id="defs2541">
  <linearGradient id="linearGradient936" x1="-27.206" x2="-27.206" y1="-1.3796" y2="25.268" gradientTransform="translate(43.842 5.6325)" gradientUnits="userSpaceOnUse">
   <stop id="stop930" stop-color="#f5f9fb" offset="0"/>
   <stop id="stop932" stop-color="#f5eeec" offset="1"/>
  </linearGradient>
  <linearGradient id="linearGradient900" x1="21.076" x2="11.936" y1="18.673" y2="11.227" gradientUnits="userSpaceOnUse">
   <stop id="stop894" stop-color="#2181f2" offset="0"/>
   <stop id="stop896" stop-color="#14a1ff" offset="1"/>
  </linearGradient>
  <linearGradient id="linearGradient1098" x1="21.076" x2="23.437" y1="18.673" y2="10.7" gradientUnits="userSpaceOnUse">
   <stop id="stop1092" stop-color="#0dd8c1" offset="0"/>
   <stop id="stop1094" stop-color="#00e5aa" offset="1"/>
  </linearGradient>
 </defs>
 <metadata id="metadata2544">
  <rdf:RDF>
   <cc:Work rdf:about="">
    <dc:format>image/svg+xml</dc:format>
    <dc:type rdf:resource="http://purl.org/dc/dcmitype/StillImage"/>
   </cc:Work>
  </rdf:RDF>
 </metadata>
 <g id="layer1">
  <g id="g1702" transform="matrix(.97573 0 0 .97573 -65.777 -37.256)" fill="none" opacity=".29676" stroke="#000" stroke-linecap="round" stroke-linejoin="round" stroke-opacity=".02">
   <rect id="rect1634" x="69.84" y="40.71" width="29.811" height="29.811" rx="6.6099" ry="6.6099" stroke-width=".1"/>
   <rect id="rect1638" x="69.84" y="40.71" width="29.811" height="29.811" rx="6.6099" ry="6.6099" stroke-width=".2"/>
   <rect id="rect1640" x="69.84" y="40.71" width="29.811" height="29.811" rx="6.6099" ry="6.6099" stroke-width=".3"/>
   <rect id="rect1642" x="69.84" y="40.71" width="29.811" height="29.811" rx="6.6099" ry="6.6099" stroke-width=".4"/>
   <rect id="rect1644" x="69.84" y="40.71" width="29.811" height="29.811" rx="6.6099" ry="6.6099" stroke-width=".5"/>
   <rect id="rect1646" x="69.84" y="40.71" width="29.811" height="29.811" rx="6.6099" ry="6.6099" stroke-width=".6"/>
   <rect id="rect1648" x="69.84" y="40.71" width="29.811" height="29.811" rx="6.6099" ry="6.6099" stroke-width=".7"/>
   <rect id="rect1650" x="69.84" y="40.71" width="29.811" height="29.811" rx="6.6099" ry="6.6099" stroke-width=".8"/>
   <rect id="rect1652" x="69.84" y="40.71" width="29.811" height="29.811" rx="6.6099" ry="6.6099"/>
   <rect id="rect1654" x="69.84" y="40.71" width="29.811" height="29.811" rx="6.6099" ry="6.6099" stroke-width="1.2"/>
   <rect id="rect1656" x="69.84" y="40.71" width="29.811" height="29.811" rx="6.6099" ry="6.6099" stroke-width="1.4"/>
   <rect id="rect1658" x="69.84" y="40.71" width="29.811" height="29.811" rx="6.6099" ry="6.6099" stroke-width="1.6"/>
   <rect id="rect1660" x="69.84" y="40.71" width="29.811" height="29.811" rx="6.6099" ry="6.6099" stroke-width="1.8"/>
   <rect id="rect1662" x="69.84" y="40.71" width="29.811" height="29.811" rx="6.6099" ry="6.6099" stroke-width="2"/>
   <rect id="rect1664" x="69.84" y="40.71" width="29.811" height="29.811" rx="6.6099" ry="6.6099" stroke-width="2.2"/>
   <rect id="rect1666" x="69.84" y="40.71" width="29.811" height="29.811" rx="6.6099" ry="6.6099" stroke-width="2.6"/>
   <rect id="rect1668" x="69.84" y="40.71" width="29.811" height="29.811" rx="6.6099" ry="6.6099" stroke-width="3"/>
   <rect id="rect1670" x="69.84" y="40.71" width="29.811" height="29.811" rx="6.6099" ry="6.6099" stroke-width="3.4"/>
   <rect id="rect1672" x="69.84" y="40.71" width="29.811" height="29.811" rx="6.6099" ry="6.6099" stroke-width="3.8"/>
   <rect id="rect1674" x="69.84" y="40.71" width="29.811" height="29.811" rx="6.6099" ry="6.6099" stroke-width="4.2"/>
   <rect id="rect1676" x="69.84" y="40.71" width="29.811" height="29.811" rx="6.6099" ry="6.6099" stroke-width="4.6"/>
   <rect id="rect1678" x="69.84" y="40.71" width="29.811" height="29.811" rx="6.6099" ry="6.6099" stroke-width="5"/>
  </g>
  <rect id="rect849-5" x="2.3673" y="2.4659" width="29.087" height="29.087" rx="6.4495" ry="6.4495" fill="url(#linearGradient936)" stroke-linecap="round" stroke-linejoin="round" stroke-width="2.6877"/>
  <path id="path2" d="m13.443 8.609c-0.57463 0.87868-1.0742 1.7525-1.5074 2.6177-1.0643-1.1637-2.0119-1.9634-2.5847-2.1286-1.721 10.518 0.77897 16.45 8.1565 17.789 0.33827-0.12551 0.6609-0.26062 0.97639-0.39984 6.4192-2.745 8.8537-7.4011 7.214-17.422-0.32556-0.059032-1.2027 0.53445-2.2616 1.6342-0.35217-0.6927-0.7557-1.3906-1.2138-2.0911-1.7932 0.48943-3.2561 1.3119-4.4196 2.3464-1.1271-1.0344-2.5668-1.857-4.3598-2.3464z" opacity=".2" stroke-width=".45696"/>
  <path id="path4" d="m9.3508 8.6413c2.4801 0.71525 11.884 12.989 8.1567 17.789-7.3776-1.3394-9.8777-7.2709-8.1567-17.789z" fill="#5edd86" stroke-width=".45696"/>
  <path id="path6" d="m9.3512 8.6411c-0.35074 2.1435-0.5231 4.0932-0.51765 5.8557 0.023471-1.6406 0.19713-3.4399 0.51765-5.3987 2.054 0.59236 8.8501 9.1098 9.0098 14.747 0.21845-5.6207-6.8996-14.595-9.0098-15.204z" fill="#fff" opacity=".2" stroke-width=".45696"/>
  <path id="path8" d="m22.223 8.152c-9.6768 2.6412-9.7767 14.946-4.7151 18.278 8.4059-3.1189 9.7672-10.553 4.7151-18.278z" fill="#077cc5" stroke-width=".45696"/>
  <path id="path10" d="m22.223 8.152c-5.7802 1.5776-8.1417 6.6027-8.0289 11.104 0.05323-4.3798 2.4434-9.123 8.0289-10.647 1.8792 2.8736 2.8688 5.7062 2.9408 8.2922 0.03958-2.7076-0.94996-5.7049-2.9408-8.7491z" fill="#fff" opacity=".1" stroke-width=".45696"/>
  <path id="path12" d="m13.443 8.152c9.6768 2.6412 9.1258 14.946 4.0643 18.278-5.0004-1.8553-7.226-5.2377-7.2802-9.3-0.03694-2.7666 1.1692-5.8486 3.2159-8.9783z" fill="url(#linearGradient900)" stroke-width=".45696"/>
  <path id="path14" d="m13.443 8.152c-2.0467 3.1297-3.2526 6.2119-3.2157 8.9785 4.61e-4 0.03459 0.0036 0.06815 0.0045 0.10264 0.0649-2.6744 1.2513-5.6272 3.2112-8.6242 5.338 1.457 7.5595 5.8539 7.6326 10.064 0.08466-4.3442-2.101-9.011-7.6326-10.521z" fill="#fff" opacity=".2" stroke-width=".45696"/>
  <path id="path16" d="m25.698 8.609c-1.1341-0.20566-8.8753 7.2881-8.1902 17.821 7.1543-2.6905 9.9113-7.3033 8.1902-17.821z" fill="url(#linearGradient1098)" stroke-width=".45696"/>
  <path id="path18" d="m25.698 8.609c-1.1009-0.19965-8.4268 6.8571-8.2279 16.906 0.027461-9.804 7.1438-16.645 8.2279-16.449 0.31228 1.9085 0.47476 3.6205 0.49266 5.164 0.01261-1.6606-0.14913-3.5215-0.49266-5.6209z" fill="#fff" opacity=".2" stroke-width=".45696"/>
 </g>
</svg>
