<?xml version="1.0" encoding="UTF-8"?>
<svg id="svg1621" width="128" height="128" version="1.1" viewBox="0 0 33.867 33.867" xmlns="http://www.w3.org/2000/svg" xmlns:cc="http://creativecommons.org/ns#" xmlns:dc="http://purl.org/dc/elements/1.1/" xmlns:rdf="http://www.w3.org/1999/02/22-rdf-syntax-ns#" xmlns:xlink="http://www.w3.org/1999/xlink">
 <defs id="defs1615">
  <linearGradient id="linearGradient4292" x1="19.336" x2="19.336" y1="31.327" y2="3.272" gradientTransform="translate(-.030147 -.10819)" gradientUnits="userSpaceOnUse">
   <stop id="stop4286" stop-color="#58367e" offset="0"/>
   <stop id="stop4288" stop-color="#292345" offset="1"/>
  </linearGradient>
  <linearGradient id="linearGradient4259" x1="32.643" x2="-.021682" y1="17.868" y2="17.868" gradientTransform="translate(-.030147 -1.1691)" gradientUnits="userSpaceOnUse">
   <stop id="stop4261" stop-color="#544c41" offset="0"/>
   <stop id="stop4263" stop-color="#d5d1c8" offset=".25869"/>
   <stop id="stop4265" stop-color="#d0d1c7" offset=".51739"/>
   <stop id="stop4267" stop-color="#ced0c3" offset=".71043"/>
   <stop id="stop4271" stop-color="#2a2319" offset="1"/>
  </linearGradient>
  <linearGradient id="linearGradient4390" x1="2.3963" x2="15.522" y1="18.621" y2="18.621" gradientTransform="translate(-.030147 -.10819)" gradientUnits="userSpaceOnUse">
   <stop id="stop4384" offset="0"/>
   <stop id="stop4386" stop-opacity="0" offset="1"/>
  </linearGradient>
  <linearGradient id="linearGradient4223" x1="2.452" x2="4.1614" y1="14.837" y2="14.837" gradientTransform="translate(-.12081 -.024737)" gradientUnits="userSpaceOnUse">
   <stop id="stop4225" stop-color="#432b5d" offset="0"/>
   <stop id="stop4239" stop-color="#705095" offset=".22937"/>
   <stop id="stop4237" stop-color="#8161a5" offset=".50314"/>
   <stop id="stop4241" stop-color="#77579c" offset=".7881"/>
   <stop id="stop4227" stop-color="#512f77" offset="1"/>
  </linearGradient>
  <linearGradient id="linearGradient4327" x1="18.56" x2="18.56" y1="26.492" y2="4.831" gradientTransform="translate(-.030147 -.10819)" gradientUnits="userSpaceOnUse">
   <stop id="stop4321" stop-color="#7c0de0" offset="0"/>
   <stop id="stop4323" stop-color="#a552ee" offset="1"/>
  </linearGradient>
  <linearGradient id="linearGradient4319" x1="13.332" x2="16.76" y1="95.192" y2="107.98" gradientTransform="matrix(.26458 0 0 .26458 -.030147 -.10819)" gradientUnits="userSpaceOnUse">
   <stop id="stop4313" stop-color="#7f5fa3" stop-opacity="0" offset="0"/>
   <stop id="stop4315" stop-color="#58367e" offset="1"/>
  </linearGradient>
  <radialGradient id="radialGradient1541" cx="21.97" cy="11.141" r="7.0871" gradientTransform="matrix(1 0 0 1.7933 -.73885 -11.498)" gradientUnits="userSpaceOnUse">
   <stop id="stop1535" stop-color="#050108" offset="0"/>
   <stop id="stop1537" stop-color="#050108" stop-opacity="0" offset="1"/>
  </radialGradient>
  <linearGradient id="linearGradient1528" x1="21.923" x2="21.923" y1="16.221" y2="2.7081" gradientTransform="translate(-.030147 -.10819)" gradientUnits="userSpaceOnUse">
   <stop id="stop1522" stop-color="#e4cdfa" offset="0"/>
   <stop id="stop1524" stop-color="#fff" offset="1"/>
  </linearGradient>
 </defs>
 <metadata id="metadata1618">
  <rdf:RDF>
   <cc:Work rdf:about="">
    <dc:format>image/svg+xml</dc:format>
    <dc:type rdf:resource="http://purl.org/dc/dcmitype/StillImage"/>
    <dc:title/>
   </cc:Work>
  </rdf:RDF>
 </metadata>
 <g id="layer1">
  <g id="g1702" transform="matrix(.97573 0 0 .97573 -65.779 -37.311)" fill="none" opacity=".295" stroke="#000" stroke-linecap="round" stroke-linejoin="round" stroke-opacity=".02">
   <rect id="rect1634" x="69.84" y="40.71" width="29.811" height="29.811" rx="6.6099" ry="6.6099" stroke-width=".1"/>
   <rect id="rect1638" x="69.84" y="40.71" width="29.811" height="29.811" rx="6.6099" ry="6.6099" stroke-width=".2"/>
   <rect id="rect1640" x="69.84" y="40.71" width="29.811" height="29.811" rx="6.6099" ry="6.6099" stroke-width=".3"/>
   <rect id="rect1642" x="69.84" y="40.71" width="29.811" height="29.811" rx="6.6099" ry="6.6099" stroke-width=".4"/>
   <rect id="rect1644" x="69.84" y="40.71" width="29.811" height="29.811" rx="6.6099" ry="6.6099" stroke-width=".5"/>
   <rect id="rect1646" x="69.84" y="40.71" width="29.811" height="29.811" rx="6.6099" ry="6.6099" stroke-width=".6"/>
   <rect id="rect1648" x="69.84" y="40.71" width="29.811" height="29.811" rx="6.6099" ry="6.6099" stroke-width=".7"/>
   <rect id="rect1650" x="69.84" y="40.71" width="29.811" height="29.811" rx="6.6099" ry="6.6099" stroke-width=".8"/>
   <rect id="rect1652" x="69.84" y="40.71" width="29.811" height="29.811" rx="6.6099" ry="6.6099"/>
   <rect id="rect1654" x="69.84" y="40.71" width="29.811" height="29.811" rx="6.6099" ry="6.6099" stroke-width="1.2"/>
   <rect id="rect1656" x="69.84" y="40.71" width="29.811" height="29.811" rx="6.6099" ry="6.6099" stroke-width="1.4"/>
   <rect id="rect1658" x="69.84" y="40.71" width="29.811" height="29.811" rx="6.6099" ry="6.6099" stroke-width="1.6"/>
   <rect id="rect1660" x="69.84" y="40.71" width="29.811" height="29.811" rx="6.6099" ry="6.6099" stroke-width="1.8"/>
   <rect id="rect1662" x="69.84" y="40.71" width="29.811" height="29.811" rx="6.6099" ry="6.6099" stroke-width="2"/>
   <rect id="rect1664" x="69.84" y="40.71" width="29.811" height="29.811" rx="6.6099" ry="6.6099" stroke-width="2.2"/>
   <rect id="rect1666" x="69.84" y="40.71" width="29.811" height="29.811" rx="6.6099" ry="6.6099" stroke-width="2.6"/>
   <rect id="rect1668" x="69.84" y="40.71" width="29.811" height="29.811" rx="6.6099" ry="6.6099" stroke-width="3"/>
   <rect id="rect1670" x="69.84" y="40.71" width="29.811" height="29.811" rx="6.6099" ry="6.6099" stroke-width="3.4"/>
   <rect id="rect1672" x="69.84" y="40.71" width="29.811" height="29.811" rx="6.6099" ry="6.6099" stroke-width="3.8"/>
   <rect id="rect1674" x="69.84" y="40.71" width="29.811" height="29.811" rx="6.6099" ry="6.6099" stroke-width="4.2"/>
   <rect id="rect1676" x="69.84" y="40.71" width="29.811" height="29.811" rx="6.6099" ry="6.6099" stroke-width="4.6"/>
   <rect id="rect1678" x="69.84" y="40.71" width="29.811" height="29.811" rx="6.6099" ry="6.6099" stroke-width="5"/>
  </g>
  <rect id="rect849" x="2.3661" y="2.4104" width="29.087" height="29.087" rx="6.4495" ry="6.4495" fill="url(#linearGradient4292)" stroke-linecap="round" stroke-linejoin="round" stroke-width="2.688"/>
  <path id="rect4247" d="m8.8156 6.5882h15.345c3.573 0 6.4495 2.8765 6.4495 6.4495v10.95c0 3.573-2.8765 6.4495-6.4495 6.4495h-15.345c-2.6808 0-6.4495-2.8765-6.4495-6.4495v-10.95c0-3.573 2.8765-6.4495 6.4495-6.4495z" fill="url(#linearGradient4259)" stroke-linecap="round" stroke-linejoin="round" stroke-width="2.688"/>
  <path id="path4382" d="m8.8156 6.5882h15.345c3.573 0 6.4495 2.8765 6.4495 6.4495v10.95c0 3.573-2.8765 6.4495-6.4495 6.4495h-15.345c-2.6808 0-6.4495-2.8765-6.4495-6.4495v-10.95c0-3.573 2.8765-6.4495 6.4495-6.4495z" fill="url(#linearGradient4390)" opacity=".45176" stroke-linecap="round" stroke-linejoin="round" stroke-width="2.688"/>
  <path id="rect4221" d="m5.0595 3.6296c-0.13336 0.091951-0.26283 0.18892-0.38861 0.29042-0.085241 0.068785-0.16855 0.13993-0.25011 0.21291-1.2649 1.176-2.0547 2.8555-2.0547 4.7268v16.189c0 2.4894 1.3971 4.639 3.4525 5.7149l0.81545-0.69246c-2.1239-0.56911-2.1314-3.3696-2.1314-7.3643z" fill="url(#linearGradient4223)" stroke-linecap="round" stroke-linejoin="round" stroke-width="2.688"/>
  <path id="rect4244" d="m14.861 2.4105c-0.81364 0-1.4826 0.15065-2.0324 0.42323h-5.9609c-1.3087 0-2.3621 1.054-2.3621 2.3626v20.553c0 1.3087 1.7928 2.3621 3.1015 2.3621l17.404 0.0021c3.573 0 6.4497-2.8767 6.4497-6.4497v-12.804c0-3.573-2.8767-6.4492-6.4497-6.4492z" fill="url(#linearGradient4327)" stroke-linecap="round" stroke-linejoin="round" stroke-width="2.688"/>
  <path id="path4311" d="m5.0595 3.6296c-0.13336 0.091951-0.26283 0.18892-0.38861 0.29042-0.085241 0.068785-0.16855 0.13993-0.25011 0.21291-1.2649 1.176-2.0547 2.8555-2.0547 4.7268v16.189c0 2.4894 1.3971 4.639 3.4525 5.7149l1.2822-0.66464c-2.1239-0.56911-2.5982-3.3974-2.5982-7.3921z" fill="url(#linearGradient4319)" stroke-linecap="round" stroke-linejoin="round" stroke-width="2.688"/>
  <path id="rect4329" d="m8.8158 2.4105c-3.573 0-6.4497 2.8762-6.4497 6.4492v0.48731c0-3.573 2.8767-6.4497 6.4497-6.4497h16.188c3.573 0 6.4497 2.8767 6.4497 6.4497v-0.48731c0-3.573-2.8767-6.4492-6.4497-6.4492z" fill="#c28df2" stroke-linecap="round" stroke-linejoin="round" stroke-width="2.688"/>
  <g id="g4380" transform="translate(-.030147 -.10819)" opacity=".34628" stroke-linecap="round" stroke-linejoin="round" stroke-width="10.159">
   <path id="path4344" transform="scale(.26458)" d="m119.02 81.693c0 13.504-10.873 24.377-24.377 24.377l-65.777-8e-3c-4.9462 0-11.723-3.9816-11.723-8.9277v0.5957c0 4.9462 6.7765 8.9277 11.723 8.9277l65.777 8e-3c13.504 0 24.377-10.873 24.377-24.377z" fill-opacity=".17939"/>
   <path id="path4351" transform="scale(.26458)" d="m119.02 81.17c0 13.504-10.873 24.377-24.377 24.377l-65.777-8e-3c-4.9462 0-11.723-3.9816-11.723-8.9277v1.1191c0 4.9462 6.7765 8.9277 11.723 8.9277l65.777 8e-3c13.504 0 24.377-10.873 24.377-24.377z" fill-opacity=".17939"/>
   <path id="path4360" transform="scale(.26458)" d="m119.02 80.684c0 13.504-10.873 24.377-24.377 24.377l-65.777-8e-3c-4.9462 0-11.723-3.9816-11.723-8.9277v1.6055c0 4.9462 6.7765 8.9277 11.723 8.9277l65.777 8e-3c13.504 0 24.377-10.873 24.377-24.377z" fill-opacity=".17939"/>
   <path id="path4365" transform="scale(.26458)" d="m119.02 80.232c0 13.504-10.873 24.377-24.377 24.377l-65.777-8e-3c-4.9462 0-11.723-3.9816-11.723-8.9277v2.0566c0 4.9462 6.7765 8.9277 11.723 8.9277l65.777 8e-3c13.504 0 24.377-10.873 24.377-24.377z" fill-opacity=".17939"/>
   <path id="path4370" transform="scale(.26458)" d="m119.02 79.527c0 13.504-10.873 24.377-24.377 24.377l-65.777-8e-3c-4.9462 0-11.723-3.9816-11.723-8.9277v2.7617c0 4.9462 6.7765 8.9277 11.723 8.9277l65.777 8e-3c13.504 0 24.377-10.873 24.377-24.377z" fill-opacity=".26883"/>
  </g>
  <path id="path1533" d="m15.005 2.4105a7.0871 12.709 0 0 0-0.86093 6.0709 7.0871 12.709 0 0 0 7.0869 12.709 7.0871 12.709 0 0 0 7.0869-12.709 7.0871 12.709 0 0 0-0.7121-5.5294c-0.79354-0.34741-1.6706-0.54157-2.5952-0.54157z" fill="url(#radialGradient1541)" opacity=".241"/>
  <path id="rect1519" d="m16.884 2.4105v14.448c0.02953 0.6175 0.60973 1.3934 1.1803 0.43408l2.9435-5.8632c0.25421-0.44031 0.6153-0.46387 0.81029-0.02842l2.9006 5.7785c0.59508 0.87947 1.2371 0.37433 1.2371-0.32091v-14.379c-0.30839-0.044912-0.62393-0.06873-0.94516-0.06873z" fill="url(#linearGradient1528)"/>
 </g>
</svg>
