<?xml version="1.0" encoding="UTF-8"?>
<svg id="svg6" width="128" height="128" version="1.1" viewBox="0 0 33.867 33.867" xmlns="http://www.w3.org/2000/svg" xmlns:osb="http://www.openswatchbook.org/uri/2009/osb" xmlns:xlink="http://www.w3.org/1999/xlink">
 <defs id="defs2">
  <radialGradient id="radialGradient1603" cx="16.94" cy="17.062" r="12.367" gradientTransform="matrix(1 0 0 .98873 0 .192)" gradientUnits="userSpaceOnUse">
   <stop id="stop1597" stop-color="#16181a" offset="0"/>
   <stop id="stop1599" stop-color="#353a3f" offset="1"/>
  </radialGradient>
  <linearGradient id="linearGradient1419" x1="17.25" x2="17.25" y1="29.643" y2="3.056" gradientUnits="userSpaceOnUse">
   <stop id="stop1413" stop-color="#f0ab4b" offset="0"/>
   <stop id="stop1415" stop-color="#d53950" offset="1"/>
  </linearGradient>
  <clipPath id="clip1">
   <path id="rect937" d="M0 0h384v384H0z"/>
  </clipPath>
  <clipPath id="clip2">
   <path id="rect948" d="M0 0h384v384H0z"/>
  </clipPath>
  <clipPath id="clip1-4">
   <path id="rect937-5" d="M0 0h384v384H0z"/>
  </clipPath>
  <clipPath id="clip2-4">
   <path id="rect948-5" d="M0 0h384v384H0z"/>
  </clipPath>
 </defs>
 <g id="layer1">
  <g id="g1702" transform="translate(-65.748 -37.203) scale(.97573)" fill="none" opacity=".29677" stroke="#000" stroke-linecap="round" stroke-linejoin="round" stroke-opacity=".02">
   <rect id="rect1634" x="69.84" y="40.71" width="29.811" height="29.811" rx="6.61" ry="6.61" stroke-width=".1"/>
   <rect id="rect1638" x="69.84" y="40.71" width="29.811" height="29.811" rx="6.61" ry="6.61" stroke-width=".2"/>
   <rect id="rect1640" x="69.84" y="40.71" width="29.811" height="29.811" rx="6.61" ry="6.61" stroke-width=".3"/>
   <rect id="rect1642" x="69.84" y="40.71" width="29.811" height="29.811" rx="6.61" ry="6.61" stroke-width=".4"/>
   <rect id="rect1644" x="69.84" y="40.71" width="29.811" height="29.811" rx="6.61" ry="6.61" stroke-width=".5"/>
   <rect id="rect1646" x="69.84" y="40.71" width="29.811" height="29.811" rx="6.61" ry="6.61" stroke-width=".6"/>
   <rect id="rect1648" x="69.84" y="40.71" width="29.811" height="29.811" rx="6.61" ry="6.61" stroke-width=".7"/>
   <rect id="rect1650" x="69.84" y="40.71" width="29.811" height="29.811" rx="6.61" ry="6.61" stroke-width=".8"/>
   <rect id="rect1652" x="69.84" y="40.71" width="29.811" height="29.811" rx="6.61" ry="6.61"/>
   <rect id="rect1654" x="69.84" y="40.71" width="29.811" height="29.811" rx="6.61" ry="6.61" stroke-width="1.2"/>
   <rect id="rect1656" x="69.84" y="40.71" width="29.811" height="29.811" rx="6.61" ry="6.61" stroke-width="1.4"/>
   <rect id="rect1658" x="69.84" y="40.71" width="29.811" height="29.811" rx="6.61" ry="6.61" stroke-width="1.6"/>
   <rect id="rect1660" x="69.84" y="40.71" width="29.811" height="29.811" rx="6.61" ry="6.61" stroke-width="1.8"/>
   <rect id="rect1662" x="69.84" y="40.71" width="29.811" height="29.811" rx="6.61" ry="6.61" stroke-width="2"/>
   <rect id="rect1664" x="69.84" y="40.71" width="29.811" height="29.811" rx="6.61" ry="6.61" stroke-width="2.2"/>
   <rect id="rect1666" x="69.84" y="40.71" width="29.811" height="29.811" rx="6.61" ry="6.61" stroke-width="2.6"/>
   <rect id="rect1668" x="69.84" y="40.71" width="29.811" height="29.811" rx="6.61" ry="6.61" stroke-width="3"/>
   <rect id="rect1670" x="69.84" y="40.71" width="29.811" height="29.811" rx="6.61" ry="6.61" stroke-width="3.4"/>
   <rect id="rect1672" x="69.84" y="40.71" width="29.811" height="29.811" rx="6.61" ry="6.61" stroke-width="3.8"/>
   <rect id="rect1674" x="69.84" y="40.71" width="29.811" height="29.811" rx="6.61" ry="6.61" stroke-width="4.2"/>
   <rect id="rect1676" x="69.84" y="40.71" width="29.811" height="29.811" rx="6.61" ry="6.61" stroke-width="4.6"/>
   <rect id="rect1678" x="69.84" y="40.71" width="29.811" height="29.811" rx="6.61" ry="6.61" stroke-width="5"/>
  </g>
  <rect id="rect849" x="2.396" y="2.519" width="29.087" height="29.087" rx="6.449" ry="6.449" fill="url(#linearGradient1419)" stroke-linecap="round" stroke-linejoin="round" stroke-width="2.6877"/>
  <rect id="rect1421" x="4.573" y="4.834" width="24.735" height="24.456" rx="4.197" ry="4.197" fill="url(#radialGradient1603)"/>
  <path id="path1011-2" d="M16.9 7.95a5.92 5.92 0 0 0-5.88 5.962c0 1.773 1.579 3.312 2.31 4.994.327.75.927 2.27.927 2.27l5.465-.037s.58-1.529.895-2.283c.71-1.692 2.224-3.271 2.243-5.025a5.92 5.92 0 0 0-5.96-5.88Zm.474 2.73.021 3.188 1.822-.012-2.705 4.117-.021-3.188-1.822.013zm-3.038 10.84.86 3.75c.109.492.412.907.917.904l1.821-.013c.505-.003.799-.423.905-.917l.809-3.76z" fill="#fff" stroke-width=".45543"/>
 </g>
 <style id="style1012" type="text/css">.st0{fill:#656565}.st1{fill:url(#SVGID_1_)}.st2{fill:url(#SVGID_2_)}.st3{opacity:.444;fill:url(#SVGID_3_);enable-background:new}</style>
</svg>
