<svg xmlns="http://www.w3.org/2000/svg" xmlns:xlink="http://www.w3.org/1999/xlink" width="128" height="128" viewBox="0 0 33.867 33.867"><defs><linearGradient id="a"><stop style="stop-color:#faac20;stop-opacity:1" offset="0"/><stop style="stop-color:#f36f1a;stop-opacity:1" offset="1"/></linearGradient><linearGradient xlink:href="#a" id="b" x1="132.211" y1="42.152" x2="132.211" y2="70.68" gradientUnits="userSpaceOnUse" gradientTransform="translate(-111.776 -37.203) scale(.97573)"/></defs><g transform="translate(-65.748 -37.203) scale(.97573)" style="opacity:.2967651"><rect style="fill:none;fill-opacity:1;stroke:#000;stroke-width:.1;stroke-linecap:round;stroke-linejoin:round;stroke-miterlimit:4;stroke-dasharray:none;stroke-opacity:.02" width="29.811" height="29.811" x="69.84" y="40.71" rx="6.61" ry="6.61"/><rect ry="6.61" rx="6.61" y="40.71" x="69.84" height="29.811" width="29.811" style="fill:none;fill-opacity:1;stroke:#000;stroke-width:.2;stroke-linecap:round;stroke-linejoin:round;stroke-miterlimit:4;stroke-dasharray:none;stroke-opacity:.02"/><rect style="fill:none;fill-opacity:1;stroke:#000;stroke-width:.3;stroke-linecap:round;stroke-linejoin:round;stroke-miterlimit:4;stroke-dasharray:none;stroke-opacity:.02" width="29.811" height="29.811" x="69.84" y="40.71" rx="6.61" ry="6.61"/><rect ry="6.61" rx="6.61" y="40.71" x="69.84" height="29.811" width="29.811" style="fill:none;fill-opacity:1;stroke:#000;stroke-width:.4;stroke-linecap:round;stroke-linejoin:round;stroke-miterlimit:4;stroke-dasharray:none;stroke-opacity:.02"/><rect style="fill:none;fill-opacity:1;stroke:#000;stroke-width:.5;stroke-linecap:round;stroke-linejoin:round;stroke-miterlimit:4;stroke-dasharray:none;stroke-opacity:.02" width="29.811" height="29.811" x="69.84" y="40.71" rx="6.61" ry="6.61"/><rect ry="6.61" rx="6.61" y="40.71" x="69.84" height="29.811" width="29.811" style="fill:none;fill-opacity:1;stroke:#000;stroke-width:.6;stroke-linecap:round;stroke-linejoin:round;stroke-miterlimit:4;stroke-dasharray:none;stroke-opacity:.02"/><rect style="fill:none;fill-opacity:1;stroke:#000;stroke-width:.7;stroke-linecap:round;stroke-linejoin:round;stroke-miterlimit:4;stroke-dasharray:none;stroke-opacity:.02" width="29.811" height="29.811" x="69.84" y="40.71" rx="6.61" ry="6.61"/><rect ry="6.61" rx="6.61" y="40.71" x="69.84" height="29.811" width="29.811" style="fill:none;fill-opacity:1;stroke:#000;stroke-width:.8;stroke-linecap:round;stroke-linejoin:round;stroke-miterlimit:4;stroke-dasharray:none;stroke-opacity:.02"/><rect style="fill:none;fill-opacity:1;stroke:#000;stroke-width:1;stroke-linecap:round;stroke-linejoin:round;stroke-miterlimit:4;stroke-dasharray:none;stroke-opacity:.02" width="29.811" height="29.811" x="69.84" y="40.71" rx="6.61" ry="6.61"/><rect ry="6.61" rx="6.61" y="40.71" x="69.84" height="29.811" width="29.811" style="fill:none;fill-opacity:1;stroke:#000;stroke-width:1.2;stroke-linecap:round;stroke-linejoin:round;stroke-miterlimit:4;stroke-dasharray:none;stroke-opacity:.02"/><rect style="fill:none;fill-opacity:1;stroke:#000;stroke-width:1.4;stroke-linecap:round;stroke-linejoin:round;stroke-miterlimit:4;stroke-dasharray:none;stroke-opacity:.02" width="29.811" height="29.811" x="69.84" y="40.71" rx="6.61" ry="6.61"/><rect ry="6.61" rx="6.61" y="40.71" x="69.84" height="29.811" width="29.811" style="fill:none;fill-opacity:1;stroke:#000;stroke-width:1.6;stroke-linecap:round;stroke-linejoin:round;stroke-miterlimit:4;stroke-dasharray:none;stroke-opacity:.02"/><rect style="fill:none;fill-opacity:1;stroke:#000;stroke-width:1.8;stroke-linecap:round;stroke-linejoin:round;stroke-miterlimit:4;stroke-dasharray:none;stroke-opacity:.02" width="29.811" height="29.811" x="69.84" y="40.71" rx="6.61" ry="6.61"/><rect ry="6.61" rx="6.61" y="40.71" x="69.84" height="29.811" width="29.811" style="fill:none;fill-opacity:1;stroke:#000;stroke-width:2;stroke-linecap:round;stroke-linejoin:round;stroke-miterlimit:4;stroke-dasharray:none;stroke-opacity:.02"/><rect style="fill:none;fill-opacity:1;stroke:#000;stroke-width:2.2;stroke-linecap:round;stroke-linejoin:round;stroke-miterlimit:4;stroke-dasharray:none;stroke-opacity:.02" width="29.811" height="29.811" x="69.84" y="40.71" rx="6.61" ry="6.61"/><rect ry="6.61" rx="6.61" y="40.71" x="69.84" height="29.811" width="29.811" style="fill:none;fill-opacity:1;stroke:#000;stroke-width:2.6;stroke-linecap:round;stroke-linejoin:round;stroke-miterlimit:4;stroke-dasharray:none;stroke-opacity:.02"/><rect style="fill:none;fill-opacity:1;stroke:#000;stroke-width:3;stroke-linecap:round;stroke-linejoin:round;stroke-miterlimit:4;stroke-dasharray:none;stroke-opacity:.02" width="29.811" height="29.811" x="69.84" y="40.71" rx="6.61" ry="6.61"/><rect ry="6.61" rx="6.61" y="40.71" x="69.84" height="29.811" width="29.811" style="fill:none;fill-opacity:1;stroke:#000;stroke-width:3.4;stroke-linecap:round;stroke-linejoin:round;stroke-miterlimit:4;stroke-dasharray:none;stroke-opacity:.02"/><rect style="fill:none;fill-opacity:1;stroke:#000;stroke-width:3.8;stroke-linecap:round;stroke-linejoin:round;stroke-miterlimit:4;stroke-dasharray:none;stroke-opacity:.02" width="29.811" height="29.811" x="69.84" y="40.71" rx="6.61" ry="6.61"/><rect ry="6.61" rx="6.61" y="40.71" x="69.84" height="29.811" width="29.811" style="fill:none;fill-opacity:1;stroke:#000;stroke-width:4.2;stroke-linecap:round;stroke-linejoin:round;stroke-miterlimit:4;stroke-dasharray:none;stroke-opacity:.02"/><rect style="fill:none;fill-opacity:1;stroke:#000;stroke-width:4.6;stroke-linecap:round;stroke-linejoin:round;stroke-miterlimit:4;stroke-dasharray:none;stroke-opacity:.02" width="29.811" height="29.811" x="69.84" y="40.71" rx="6.61" ry="6.61"/><rect ry="6.61" rx="6.61" y="40.71" x="69.84" height="29.811" width="29.811" style="fill:none;fill-opacity:1;stroke:#000;stroke-width:5;stroke-linecap:round;stroke-linejoin:round;stroke-miterlimit:4;stroke-dasharray:none;stroke-opacity:.02"/></g><rect style="fill:url(#b);fill-opacity:1;stroke-width:2.68768;stroke-linecap:round;stroke-linejoin:round" width="29.087" height="29.087" x="2.396" y="2.519" rx="6.449" ry="6.449"/><g style="opacity:.332"><path style="color:#000;font-style:normal;font-variant:normal;font-weight:400;font-stretch:normal;font-size:medium;line-height:normal;font-family:sans-serif;font-variant-ligatures:normal;font-variant-position:normal;font-variant-caps:normal;font-variant-numeric:normal;font-variant-alternates:normal;font-feature-settings:normal;text-indent:0;text-align:start;text-decoration:none;text-decoration-line:none;text-decoration-style:solid;text-decoration-color:#000;letter-spacing:normal;word-spacing:normal;text-transform:none;writing-mode:lr-tb;direction:ltr;text-orientation:mixed;dominant-baseline:auto;baseline-shift:baseline;text-anchor:start;white-space:normal;shape-padding:0;clip-rule:nonzero;display:inline;overflow:visible;visibility:visible;opacity:1;isolation:auto;mix-blend-mode:normal;color-interpolation:sRGB;color-interpolation-filters:linearRGB;solid-color:#000;solid-opacity:1;vector-effect:none;fill:none;fill-opacity:1;fill-rule:nonzero;stroke:#070707;stroke-width:1;stroke-linecap:round;stroke-linejoin:round;stroke-miterlimit:4;stroke-dasharray:none;stroke-dashoffset:0;stroke-opacity:.03921569;color-rendering:auto;image-rendering:auto;shape-rendering:auto;text-rendering:auto;enable-background:accumulate" d="M157.913 37.53v49.372h60.483V37.53Zm4.938 4.937h50.607v39.498h-50.607zm5.992 4.924v9.011h9.012v-9.011zm50.787 1.248v4.937h1.234v35.795h-50.607v-1.234h-4.938v6.172h60.48v-45.67Zm-50.789 12.16v2.469h36.297v-2.47zm0 6.861v2.469h9.701V67.66zm13.033 0v2.469h8.313V67.66zm1.465 6.865-.033 2.47 3.828.048.033-2.469zm-14.498.026v2.469h11.084v-2.47z" transform="translate(-34.138 -.782) scale(.26458)"/><path d="M157.913 37.53v49.372h60.483V37.53Zm4.938 4.937h50.607v39.498h-50.607zm5.992 4.924v9.011h9.012v-9.011zm50.787 1.248v4.937h1.234v35.795h-50.607v-1.234h-4.938v6.172h60.48v-45.67Zm-50.789 12.16v2.469h36.297v-2.47zm0 6.861v2.469h9.701V67.66zm13.033 0v2.469h8.313V67.66zm1.465 6.865-.033 2.47 3.828.048.033-2.469zm-14.498.026v2.469h11.084v-2.47z" style="color:#000;font-style:normal;font-variant:normal;font-weight:400;font-stretch:normal;font-size:medium;line-height:normal;font-family:sans-serif;font-variant-ligatures:normal;font-variant-position:normal;font-variant-caps:normal;font-variant-numeric:normal;font-variant-alternates:normal;font-feature-settings:normal;text-indent:0;text-align:start;text-decoration:none;text-decoration-line:none;text-decoration-style:solid;text-decoration-color:#000;letter-spacing:normal;word-spacing:normal;text-transform:none;writing-mode:lr-tb;direction:ltr;text-orientation:mixed;dominant-baseline:auto;baseline-shift:baseline;text-anchor:start;white-space:normal;shape-padding:0;clip-rule:nonzero;display:inline;overflow:visible;visibility:visible;opacity:1;isolation:auto;mix-blend-mode:normal;color-interpolation:sRGB;color-interpolation-filters:linearRGB;solid-color:#000;solid-opacity:1;vector-effect:none;fill:none;fill-opacity:1;fill-rule:nonzero;stroke:#070707;stroke-width:2;stroke-linecap:round;stroke-linejoin:round;stroke-miterlimit:4;stroke-dasharray:none;stroke-dashoffset:0;stroke-opacity:.03921569;color-rendering:auto;image-rendering:auto;shape-rendering:auto;text-rendering:auto;enable-background:accumulate" transform="translate(-34.138 -.782) scale(.26458)"/><path style="color:#000;font-style:normal;font-variant:normal;font-weight:400;font-stretch:normal;font-size:medium;line-height:normal;font-family:sans-serif;font-variant-ligatures:normal;font-variant-position:normal;font-variant-caps:normal;font-variant-numeric:normal;font-variant-alternates:normal;font-feature-settings:normal;text-indent:0;text-align:start;text-decoration:none;text-decoration-line:none;text-decoration-style:solid;text-decoration-color:#000;letter-spacing:normal;word-spacing:normal;text-transform:none;writing-mode:lr-tb;direction:ltr;text-orientation:mixed;dominant-baseline:auto;baseline-shift:baseline;text-anchor:start;white-space:normal;shape-padding:0;clip-rule:nonzero;display:inline;overflow:visible;visibility:visible;opacity:1;isolation:auto;mix-blend-mode:normal;color-interpolation:sRGB;color-interpolation-filters:linearRGB;solid-color:#000;solid-opacity:1;vector-effect:none;fill:none;fill-opacity:1;fill-rule:nonzero;stroke:#070707;stroke-width:3;stroke-linecap:round;stroke-linejoin:round;stroke-miterlimit:4;stroke-dasharray:none;stroke-dashoffset:0;stroke-opacity:.03921569;color-rendering:auto;image-rendering:auto;shape-rendering:auto;text-rendering:auto;enable-background:accumulate" d="M157.913 37.53v49.372h60.483V37.53Zm4.938 4.937h50.607v39.498h-50.607zm5.992 4.924v9.011h9.012v-9.011zm50.787 1.248v4.937h1.234v35.795h-50.607v-1.234h-4.938v6.172h60.48v-45.67Zm-50.789 12.16v2.469h36.297v-2.47zm0 6.861v2.469h9.701V67.66zm13.033 0v2.469h8.313V67.66zm1.465 6.865-.033 2.47 3.828.048.033-2.469zm-14.498.026v2.469h11.084v-2.47z" transform="translate(-34.138 -.782) scale(.26458)"/><path d="M157.913 37.53v49.372h60.483V37.53Zm4.938 4.937h50.607v39.498h-50.607zm5.992 4.924v9.011h9.012v-9.011zm50.787 1.248v4.937h1.234v35.795h-50.607v-1.234h-4.938v6.172h60.48v-45.67Zm-50.789 12.16v2.469h36.297v-2.47zm0 6.861v2.469h9.701V67.66zm13.033 0v2.469h8.313V67.66zm1.465 6.865-.033 2.47 3.828.048.033-2.469zm-14.498.026v2.469h11.084v-2.47z" style="color:#000;font-style:normal;font-variant:normal;font-weight:400;font-stretch:normal;font-size:medium;line-height:normal;font-family:sans-serif;font-variant-ligatures:normal;font-variant-position:normal;font-variant-caps:normal;font-variant-numeric:normal;font-variant-alternates:normal;font-feature-settings:normal;text-indent:0;text-align:start;text-decoration:none;text-decoration-line:none;text-decoration-style:solid;text-decoration-color:#000;letter-spacing:normal;word-spacing:normal;text-transform:none;writing-mode:lr-tb;direction:ltr;text-orientation:mixed;dominant-baseline:auto;baseline-shift:baseline;text-anchor:start;white-space:normal;shape-padding:0;clip-rule:nonzero;display:inline;overflow:visible;visibility:visible;opacity:1;isolation:auto;mix-blend-mode:normal;color-interpolation:sRGB;color-interpolation-filters:linearRGB;solid-color:#000;solid-opacity:1;vector-effect:none;fill:none;fill-opacity:1;fill-rule:nonzero;stroke:#070707;stroke-width:5;stroke-linecap:round;stroke-linejoin:round;stroke-miterlimit:4;stroke-dasharray:none;stroke-dashoffset:0;stroke-opacity:.03921569;color-rendering:auto;image-rendering:auto;shape-rendering:auto;text-rendering:auto;enable-background:accumulate" transform="translate(-34.138 -.782) scale(.26458)"/><path style="color:#000;font-style:normal;font-variant:normal;font-weight:400;font-stretch:normal;font-size:medium;line-height:normal;font-family:sans-serif;font-variant-ligatures:normal;font-variant-position:normal;font-variant-caps:normal;font-variant-numeric:normal;font-variant-alternates:normal;font-feature-settings:normal;text-indent:0;text-align:start;text-decoration:none;text-decoration-line:none;text-decoration-style:solid;text-decoration-color:#000;letter-spacing:normal;word-spacing:normal;text-transform:none;writing-mode:lr-tb;direction:ltr;text-orientation:mixed;dominant-baseline:auto;baseline-shift:baseline;text-anchor:start;white-space:normal;shape-padding:0;clip-rule:nonzero;display:inline;overflow:visible;visibility:visible;opacity:1;isolation:auto;mix-blend-mode:normal;color-interpolation:sRGB;color-interpolation-filters:linearRGB;solid-color:#000;solid-opacity:1;vector-effect:none;fill:none;fill-opacity:1;fill-rule:nonzero;stroke:#070707;stroke-width:7;stroke-linecap:round;stroke-linejoin:round;stroke-miterlimit:4;stroke-dasharray:none;stroke-dashoffset:0;stroke-opacity:.03921569;color-rendering:auto;image-rendering:auto;shape-rendering:auto;text-rendering:auto;enable-background:accumulate" d="M157.913 37.53v49.372h60.483V37.53Zm4.938 4.937h50.607v39.498h-50.607zm5.992 4.924v9.011h9.012v-9.011zm50.787 1.248v4.937h1.234v35.795h-50.607v-1.234h-4.938v6.172h60.48v-45.67Zm-50.789 12.16v2.469h36.297v-2.47zm0 6.861v2.469h9.701V67.66zm13.033 0v2.469h8.313V67.66zm1.465 6.865-.033 2.47 3.828.048.033-2.469zm-14.498.026v2.469h11.084v-2.47z" transform="translate(-34.138 -.782) scale(.26458)"/></g><path style="color:#000;font-style:normal;font-variant:normal;font-weight:400;font-stretch:normal;font-size:medium;line-height:normal;font-family:sans-serif;font-variant-ligatures:normal;font-variant-position:normal;font-variant-caps:normal;font-variant-numeric:normal;font-variant-alternates:normal;font-feature-settings:normal;text-indent:0;text-align:start;text-decoration:none;text-decoration-line:none;text-decoration-style:solid;text-decoration-color:#000;letter-spacing:normal;word-spacing:normal;text-transform:none;writing-mode:lr-tb;direction:ltr;text-orientation:mixed;dominant-baseline:auto;baseline-shift:baseline;text-anchor:start;white-space:normal;shape-padding:0;clip-rule:nonzero;display:inline;overflow:visible;visibility:visible;opacity:1;isolation:auto;mix-blend-mode:normal;color-interpolation:sRGB;color-interpolation-filters:linearRGB;solid-color:#000;solid-opacity:1;vector-effect:none;fill:#fff;fill-opacity:1;fill-rule:nonzero;stroke:none;stroke-width:1.30630898;stroke-linecap:butt;stroke-linejoin:miter;stroke-miterlimit:4;stroke-dasharray:none;stroke-dashoffset:0;stroke-opacity:1;color-rendering:auto;image-rendering:auto;shape-rendering:auto;text-rendering:auto;enable-background:accumulate" d="M7.643 9.147v13.064h16.003V9.147Zm1.307 1.307h13.39v10.45H8.95Zm1.585 1.303v2.384h2.385v-2.384Zm13.438.33v1.306h.326v9.47H10.91v-.326H9.603v1.633h16.002V12.087zm-13.438 3.217v.653h9.603v-.653zm0 1.816v.653H13.1v-.653zm3.448 0v.653h2.2v-.653zm.388 1.816-.01.653 1.014.013.008-.653zm-3.836.007v.653h2.932v-.653z"/></svg>