<?xml version="1.0" encoding="UTF-8"?>
<svg width="128" height="128" viewBox="0 0 33.867 33.867" xmlns="http://www.w3.org/2000/svg" xmlns:xlink="http://www.w3.org/1999/xlink">
 <defs>
  <linearGradient id="b" x1="132.21" x2="132.21" y1="42.152" y2="70.68" gradientTransform="translate(-111.78 -37.203) scale(.97573)" gradientUnits="userSpaceOnUse">
   <stop stop-color="#faac20" offset="0"/>
   <stop stop-color="#f36f1a" offset="1"/>
  </linearGradient>
 </defs>
 <g transform="translate(-65.748 -37.203) scale(.97573)" fill="none" opacity=".29677" stroke="#000" stroke-linecap="round" stroke-linejoin="round" stroke-opacity=".02">
  <rect x="69.84" y="40.71" width="29.811" height="29.811" rx="6.61" ry="6.61" stroke-width=".1"/>
  <rect x="69.84" y="40.71" width="29.811" height="29.811" rx="6.61" ry="6.61" stroke-width=".2"/>
  <rect x="69.84" y="40.71" width="29.811" height="29.811" rx="6.61" ry="6.61" stroke-width=".3"/>
  <rect x="69.84" y="40.71" width="29.811" height="29.811" rx="6.61" ry="6.61" stroke-width=".4"/>
  <rect x="69.84" y="40.71" width="29.811" height="29.811" rx="6.61" ry="6.61" stroke-width=".5"/>
  <rect x="69.84" y="40.71" width="29.811" height="29.811" rx="6.61" ry="6.61" stroke-width=".6"/>
  <rect x="69.84" y="40.71" width="29.811" height="29.811" rx="6.61" ry="6.61" stroke-width=".7"/>
  <rect x="69.84" y="40.71" width="29.811" height="29.811" rx="6.61" ry="6.61" stroke-width=".8"/>
  <rect x="69.84" y="40.71" width="29.811" height="29.811" rx="6.61" ry="6.61"/>
  <rect x="69.84" y="40.71" width="29.811" height="29.811" rx="6.61" ry="6.61" stroke-width="1.2"/>
  <rect x="69.84" y="40.71" width="29.811" height="29.811" rx="6.61" ry="6.61" stroke-width="1.4"/>
  <rect x="69.84" y="40.71" width="29.811" height="29.811" rx="6.61" ry="6.61" stroke-width="1.6"/>
  <rect x="69.84" y="40.71" width="29.811" height="29.811" rx="6.61" ry="6.61" stroke-width="1.8"/>
  <rect x="69.84" y="40.71" width="29.811" height="29.811" rx="6.61" ry="6.61" stroke-width="2"/>
  <rect x="69.84" y="40.71" width="29.811" height="29.811" rx="6.61" ry="6.61" stroke-width="2.2"/>
  <rect x="69.84" y="40.71" width="29.811" height="29.811" rx="6.61" ry="6.61" stroke-width="2.6"/>
  <rect x="69.84" y="40.71" width="29.811" height="29.811" rx="6.61" ry="6.61" stroke-width="3"/>
  <rect x="69.84" y="40.71" width="29.811" height="29.811" rx="6.61" ry="6.61" stroke-width="3.4"/>
  <rect x="69.84" y="40.71" width="29.811" height="29.811" rx="6.61" ry="6.61" stroke-width="3.8"/>
  <rect x="69.84" y="40.71" width="29.811" height="29.811" rx="6.61" ry="6.61" stroke-width="4.2"/>
  <rect x="69.84" y="40.71" width="29.811" height="29.811" rx="6.61" ry="6.61" stroke-width="4.6"/>
  <rect x="69.84" y="40.71" width="29.811" height="29.811" rx="6.61" ry="6.61" stroke-width="5"/>
 </g>
 <rect x="2.396" y="2.519" width="29.087" height="29.087" rx="6.449" ry="6.449" fill="url(#b)" stroke-linecap="round" stroke-linejoin="round" stroke-width="2.6877"/>
 <g fill="none" opacity=".332" shape-rendering="auto" stroke="#070707" stroke-linecap="round" stroke-linejoin="round" stroke-opacity=".039216">
  <path transform="translate(-34.138 -.782) scale(.26458)" d="M157.913 37.53v49.372h60.483V37.53Zm4.938 4.937h50.607v39.498h-50.607zm5.992 4.924v9.011h9.012v-9.011zm50.787 1.248v4.937h1.234v35.795h-50.607v-1.234h-4.938v6.172h60.48v-45.67Zm-50.789 12.16v2.469h36.297v-2.47zm0 6.861v2.469h9.701V67.66zm13.033 0v2.469h8.313V67.66zm1.465 6.865-.033 2.47 3.828.048.033-2.469zm-14.498.026v2.469h11.084v-2.47z" color-rendering="auto" dominant-baseline="auto" image-rendering="auto" opacity="1" style="font-feature-settings:normal;font-variant-alternates:normal;font-variant-caps:normal;font-variant-ligatures:normal;font-variant-numeric:normal;font-variant-position:normal;isolation:auto;mix-blend-mode:normal;shape-padding:0;text-decoration-color:#000;text-decoration-line:none;text-decoration-style:solid;text-indent:0;text-orientation:mixed;text-transform:none;white-space:normal"/>
  <path transform="translate(-34.138 -.782) scale(.26458)" d="M157.913 37.53v49.372h60.483V37.53Zm4.938 4.937h50.607v39.498h-50.607zm5.992 4.924v9.011h9.012v-9.011zm50.787 1.248v4.937h1.234v35.795h-50.607v-1.234h-4.938v6.172h60.48v-45.67Zm-50.789 12.16v2.469h36.297v-2.47zm0 6.861v2.469h9.701V67.66zm13.033 0v2.469h8.313V67.66zm1.465 6.865-.033 2.47 3.828.048.033-2.469zm-14.498.026v2.469h11.084v-2.47z" color-rendering="auto" dominant-baseline="auto" image-rendering="auto" opacity="1" stroke-width="2" style="font-feature-settings:normal;font-variant-alternates:normal;font-variant-caps:normal;font-variant-ligatures:normal;font-variant-numeric:normal;font-variant-position:normal;isolation:auto;mix-blend-mode:normal;shape-padding:0;text-decoration-color:#000;text-decoration-line:none;text-decoration-style:solid;text-indent:0;text-orientation:mixed;text-transform:none;white-space:normal"/>
  <path transform="translate(-34.138 -.782) scale(.26458)" d="M157.913 37.53v49.372h60.483V37.53Zm4.938 4.937h50.607v39.498h-50.607zm5.992 4.924v9.011h9.012v-9.011zm50.787 1.248v4.937h1.234v35.795h-50.607v-1.234h-4.938v6.172h60.48v-45.67Zm-50.789 12.16v2.469h36.297v-2.47zm0 6.861v2.469h9.701V67.66zm13.033 0v2.469h8.313V67.66zm1.465 6.865-.033 2.47 3.828.048.033-2.469zm-14.498.026v2.469h11.084v-2.47z" color-rendering="auto" dominant-baseline="auto" image-rendering="auto" opacity="1" stroke-width="3" style="font-feature-settings:normal;font-variant-alternates:normal;font-variant-caps:normal;font-variant-ligatures:normal;font-variant-numeric:normal;font-variant-position:normal;isolation:auto;mix-blend-mode:normal;shape-padding:0;text-decoration-color:#000;text-decoration-line:none;text-decoration-style:solid;text-indent:0;text-orientation:mixed;text-transform:none;white-space:normal"/>
  <path transform="translate(-34.138 -.782) scale(.26458)" d="M157.913 37.53v49.372h60.483V37.53Zm4.938 4.937h50.607v39.498h-50.607zm5.992 4.924v9.011h9.012v-9.011zm50.787 1.248v4.937h1.234v35.795h-50.607v-1.234h-4.938v6.172h60.48v-45.67Zm-50.789 12.16v2.469h36.297v-2.47zm0 6.861v2.469h9.701V67.66zm13.033 0v2.469h8.313V67.66zm1.465 6.865-.033 2.47 3.828.048.033-2.469zm-14.498.026v2.469h11.084v-2.47z" color-rendering="auto" dominant-baseline="auto" image-rendering="auto" opacity="1" stroke-width="5" style="font-feature-settings:normal;font-variant-alternates:normal;font-variant-caps:normal;font-variant-ligatures:normal;font-variant-numeric:normal;font-variant-position:normal;isolation:auto;mix-blend-mode:normal;shape-padding:0;text-decoration-color:#000;text-decoration-line:none;text-decoration-style:solid;text-indent:0;text-orientation:mixed;text-transform:none;white-space:normal"/>
  <path transform="translate(-34.138 -.782) scale(.26458)" d="M157.913 37.53v49.372h60.483V37.53Zm4.938 4.937h50.607v39.498h-50.607zm5.992 4.924v9.011h9.012v-9.011zm50.787 1.248v4.937h1.234v35.795h-50.607v-1.234h-4.938v6.172h60.48v-45.67Zm-50.789 12.16v2.469h36.297v-2.47zm0 6.861v2.469h9.701V67.66zm13.033 0v2.469h8.313V67.66zm1.465 6.865-.033 2.47 3.828.048.033-2.469zm-14.498.026v2.469h11.084v-2.47z" color-rendering="auto" dominant-baseline="auto" image-rendering="auto" opacity="1" stroke-width="7" style="font-feature-settings:normal;font-variant-alternates:normal;font-variant-caps:normal;font-variant-ligatures:normal;font-variant-numeric:normal;font-variant-position:normal;isolation:auto;mix-blend-mode:normal;shape-padding:0;text-decoration-color:#000;text-decoration-line:none;text-decoration-style:solid;text-indent:0;text-orientation:mixed;text-transform:none;white-space:normal"/>
 </g>
 <path d="M7.643 9.147v13.064h16.003V9.147Zm1.307 1.307h13.39v10.45H8.95Zm1.585 1.303v2.384h2.385v-2.384Zm13.438.33v1.306h.326v9.47H10.91v-.326H9.603v1.633h16.002V12.087zm-13.438 3.217v.653h9.603v-.653zm0 1.816v.653H13.1v-.653zm3.448 0v.653h2.2v-.653zm.388 1.816-.01.653 1.014.013.008-.653zm-3.836.007v.653h2.932v-.653z" color-rendering="auto" dominant-baseline="auto" fill="#fff" image-rendering="auto" shape-rendering="auto" style="font-feature-settings:normal;font-variant-alternates:normal;font-variant-caps:normal;font-variant-ligatures:normal;font-variant-numeric:normal;font-variant-position:normal;isolation:auto;mix-blend-mode:normal;shape-padding:0;text-decoration-color:#000;text-decoration-line:none;text-decoration-style:solid;text-indent:0;text-orientation:mixed;text-transform:none;white-space:normal"/>
</svg>
