<?xml version="1.0" encoding="UTF-8"?>
<svg id="svg2117" width="128" height="128" version="1.1" viewBox="0 0 33.867 33.867" xmlns="http://www.w3.org/2000/svg" xmlns:cc="http://creativecommons.org/ns#" xmlns:dc="http://purl.org/dc/elements/1.1/" xmlns:rdf="http://www.w3.org/1999/02/22-rdf-syntax-ns#" xmlns:xlink="http://www.w3.org/1999/xlink">
 <defs id="defs2111">
  <linearGradient id="linearGradient912" x1="132.21" x2="132.21" y1="42.152" y2="70.68" gradientTransform="matrix(.97573 0 0 .97573 -111.89 -37.234)" gradientUnits="userSpaceOnUse">
   <stop id="stop1626" stop-color="#f8fcfc" offset="0"/>
   <stop id="stop1628" stop-color="#e3e5e8" offset="1"/>
  </linearGradient>
 </defs>
 <metadata id="metadata2114">
  <rdf:RDF>
   <cc:Work rdf:about="">
    <dc:format>image/svg+xml</dc:format>
    <dc:type rdf:resource="http://purl.org/dc/dcmitype/StillImage"/>
   </cc:Work>
  </rdf:RDF>
 </metadata>
 <g id="layer1">
  <g id="g1702" transform="matrix(.97573 0 0 .97573 -65.83 -36.915)" fill="none" opacity=".13962" stroke="#000" stroke-linecap="round" stroke-linejoin="round" stroke-opacity=".02">
   <rect id="rect1634" x="69.84" y="40.71" width="29.811" height="29.811" rx="6.6099" ry="6.6099" stroke-width=".1"/>
   <rect id="rect1638" x="69.84" y="40.71" width="29.811" height="29.811" rx="6.6099" ry="6.6099" stroke-width=".2"/>
   <rect id="rect1640" x="69.84" y="40.71" width="29.811" height="29.811" rx="6.6099" ry="6.6099" stroke-width=".3"/>
   <rect id="rect1642" x="69.84" y="40.71" width="29.811" height="29.811" rx="6.6099" ry="6.6099" stroke-width=".4"/>
   <rect id="rect1644" x="69.84" y="40.71" width="29.811" height="29.811" rx="6.6099" ry="6.6099" stroke-width=".5"/>
   <rect id="rect1646" x="69.84" y="40.71" width="29.811" height="29.811" rx="6.6099" ry="6.6099" stroke-width=".6"/>
   <rect id="rect1648" x="69.84" y="40.71" width="29.811" height="29.811" rx="6.6099" ry="6.6099" stroke-width=".7"/>
   <rect id="rect1650" x="69.84" y="40.71" width="29.811" height="29.811" rx="6.6099" ry="6.6099" stroke-width=".8"/>
   <rect id="rect1652" x="69.84" y="40.71" width="29.811" height="29.811" rx="6.6099" ry="6.6099"/>
   <rect id="rect1654" x="69.84" y="40.71" width="29.811" height="29.811" rx="6.6099" ry="6.6099" stroke-width="1.2"/>
   <rect id="rect1656" x="69.84" y="40.71" width="29.811" height="29.811" rx="6.6099" ry="6.6099" stroke-width="1.4"/>
   <rect id="rect1658" x="69.84" y="40.71" width="29.811" height="29.811" rx="6.6099" ry="6.6099" stroke-width="1.6"/>
   <rect id="rect1660" x="69.84" y="40.71" width="29.811" height="29.811" rx="6.6099" ry="6.6099" stroke-width="1.8"/>
   <rect id="rect1662" x="69.84" y="40.71" width="29.811" height="29.811" rx="6.6099" ry="6.6099" stroke-width="2"/>
   <rect id="rect1664" x="69.84" y="40.71" width="29.811" height="29.811" rx="6.6099" ry="6.6099" stroke-width="2.2"/>
   <rect id="rect1666" x="69.84" y="40.71" width="29.811" height="29.811" rx="6.6099" ry="6.6099" stroke-width="2.6"/>
   <rect id="rect1668" x="69.84" y="40.71" width="29.811" height="29.811" rx="6.6099" ry="6.6099" stroke-width="3"/>
   <rect id="rect1670" x="69.84" y="40.71" width="29.811" height="29.811" rx="6.6099" ry="6.6099" stroke-width="3.4"/>
   <rect id="rect1672" x="69.84" y="40.71" width="29.811" height="29.811" rx="6.6099" ry="6.6099" stroke-width="3.8"/>
   <rect id="rect1674" x="69.84" y="40.71" width="29.811" height="29.811" rx="6.6099" ry="6.6099" stroke-width="4.2"/>
   <rect id="rect1676" x="69.84" y="40.71" width="29.811" height="29.811" rx="6.6099" ry="6.6099" stroke-width="4.6"/>
   <rect id="rect1678" x="69.84" y="40.71" width="29.811" height="29.811" rx="6.6099" ry="6.6099" stroke-width="5"/>
  </g>
  <rect id="rect910" x="2.2835" y="2.4875" width="29.087" height="29.087" rx="6.4495" ry="6.4495" fill="url(#linearGradient912)" stroke-linecap="round" stroke-linejoin="round" stroke-width="2.6877"/>
  <g id="g80" transform="matrix(.93693 0 0 .93693 6.7995 6.5034)">
   <path id="path2" d="m4.9844 5.4861a1.0001 1.0001 0 0 0-0.98438 1.0137v12a1.0001 1.0001 0 1 0 2 0v-12a1.0001 1.0001 0 0 0-1.0156-1.0137z" opacity=".2"/>
   <path id="path4" d="m16.984 5.4861a1.0001 1.0001 0 0 0-0.98438 1.0137v12a1.0001 1.0001 0 1 0 2 0v-12a1.0001 1.0001 0 0 0-1.0156-1.0137z" opacity=".2"/>
   <path id="path6" d="m5 6v12" fill="none" stroke="#885e3d" stroke-linecap="round" stroke-linejoin="round" stroke-width="2"/>
   <path id="path8" d="m17 6v12" fill="none" stroke="#885e3d" stroke-linecap="round" stroke-linejoin="round" stroke-width="2"/>
   <path id="path10" d="m4 9h14" fill="none" stroke="#c29875" stroke-linecap="round" stroke-linejoin="round" stroke-width="2"/>
   <path id="path12" d="m4 16h14" fill="none" stroke="#c29875" stroke-linecap="round" stroke-linejoin="round" stroke-width="2"/>
   <path id="path14" d="m7 16-2 4" fill="none" stroke="#e1b793" stroke-linecap="round" stroke-width="2"/>
   <path id="path16" d="m15 16 2 4" fill="none" stroke="#e1b793" stroke-linecap="round" stroke-width="2"/>
   <path id="path18" d="m8 15-1 2h8l-1-2z" fill="#885e3d"/>
   <path id="path20" d="m11 1a1 1 0 0 0-1 1v2h2v-2a1 1 0 0 0-1-1z" fill="#c29875"/>
   <path id="path22" d="m11 4s1-1 3-1 2 2 4 2h3s-2 2-4 2c-3 0-6-3-6-3z" fill="#73873a"/>
   <path id="path24" d="m11 4s-1-1-3-1-2 2-4 2h-3s2 2 4 2c3 0 6-3 6-3z" fill="#73873a"/>
   <path id="path26" d="m11 3s5 1 5 2c-2 2-5 4-5 4s-3-2-5-4c0-1 5-2 5-2z" fill="#95b634"/>
   <path id="path28" d="m4 8.4996a1.0001 1.0001 0 1 0 0 2h14a1.0001 1.0001 0 1 0 0-2z" opacity=".2"/>
   <path id="path30" d="m4 9h14" fill="none" stroke="#c29875" stroke-linecap="round" stroke-linejoin="round" stroke-width="2"/>
   <path id="path32" d="M 4,8 A 1.0001,1.0001 0 0 0 3.0195312,9.2460938 1.0001,1.0001 0 0 1 4,8.5 H 18 A 1.0001,1.0001 0 0 1 18.980469,9.2539062 1.0001,1.0001 0 0 0 18,8 Z" fill="#fff" opacity=".2"/>
   <path id="path34" d="m4 15.5a1.0001 1.0001 0 1 0 0 2h14a1.0001 1.0001 0 1 0 0-2z" opacity=".2"/>
   <path id="path36" d="m4 16h14" fill="none" stroke="#c29875" stroke-linecap="round" stroke-linejoin="round" stroke-width="2"/>
   <path id="path38" d="M 4,15 A 1.0001,1.0001 0 0 0 3.0195312,16.246094 1.0001,1.0001 0 0 1 4,15.5 H 18 A 1.0001,1.0001 0 0 1 18.980469,16.253906 1.0001,1.0001 0 0 0 18,15 Z" fill="#fff" opacity=".2"/>
   <path id="path40" d="m6.9551 15.488a1.0001 1.0001 0 0 0-0.84961 0.56445l-2 4a1.0001 1.0001 0 1 0 1.7891 0.89453l2-4a1.0001 1.0001 0 0 0-0.93945-1.459z" opacity=".2"/>
   <path id="path42" d="m7 16-2 4" fill="none" stroke="#e1b793" stroke-linecap="round" stroke-width="2"/>
   <path id="path44" d="m15.016 15.488a1.0001 1.0001 0 0 0-0.91016 1.459l2 4a1.0001 1.0001 0 1 0 1.7891-0.89453l-2-4a1.0001 1.0001 0 0 0-0.87891-0.56445z" opacity=".2"/>
   <path id="path46" d="m15 16 2 4" fill="none" stroke="#e1b793" stroke-linecap="round" stroke-width="2"/>
   <path id="path48" d="m11 1a1 1 0 0 0-1 1v2h2v-2a1 1 0 0 0-1-1z" fill="#c29875"/>
   <path id="path50" d="m11 1a1 1 0 0 0-1 1v0.5a1 1 0 0 1 1-1 1 1 0 0 1 1 1v-0.5a1 1 0 0 0-1-1z" fill="#fff" opacity=".2"/>
   <path id="path52" d="m11 4.4998s1-1 3-1 2 2 4 2h3s-2 2-4 2c-3 0-6-3-6-3z" opacity=".2"/>
   <path id="path54" d="m11 4s1-1 3-1 2 2 4 2h3s-2 2-4 2c-3 0-6-3-6-3z" fill="#73873a"/>
   <path id="path56" d="m14 3c-2 0-3 1-3 1s0.18248 0.16444 0.30078 0.27344c0.42045-0.29408 1.3003-0.77344 2.6992-0.77344 2 0 2 2 4 2h2.4082c0.34084-0.27632 0.5918-0.5 0.5918-0.5h-3c-2 0-2-2-4-2z" fill="#fff" opacity=".1"/>
   <path id="path58" d="m11 4.4998s-1-1-3-1-2 2-4 2h-3s2 2 4 2c3 0 6-3 6-3z" opacity=".2"/>
   <path id="path60" d="m11 4s-1-1-3-1-2 2-4 2h-3s2 2 4 2c3 0 6-3 6-3z" fill="#73873a"/>
   <path id="path62" d="m8 3c-2 0-2 2-4 2h-3s0.25096 0.22368 0.5918 0.5h2.4082c2 0 2-2 4-2 1.3989 0 2.2788 0.47936 2.6992 0.77344 0.1183-0.109 0.30078-0.27344 0.30078-0.27344s-1-1-3-1z" fill="#fff" opacity=".1"/>
   <path id="path64" d="m11 3.4998s5 1 5 2c-2 2-5 4-5 4s-3-2-5-4c0-1 5-2 5-2z" opacity=".2"/>
   <path id="path66" d="m11 3s5 1 5 2c-2 2-5 4-5 4s-3-2-5-4c0-1 5-2 5-2z" fill="#95b634"/>
   <path id="path68" d="m8 11.5v4l-1 2v1.4746h8v-1.4746l-1-2v-4z" opacity=".2"/>
   <rect id="rect70" x="8" y="11" width="6" height="4" fill="#c29875"/>
   <path id="path72" d="m8 15-1 2h8l-1-2z" fill="#885e3d"/>
   <rect id="rect74" x="7" y="17" width="8" height="1.4746" fill="#c29875"/>
   <path id="path76" d="m8 11v0.5h6v-0.5z" fill="#fff" opacity=".2"/>
   <path id="path78" d="m11 3s-5 1-5 2c0.056934 0.056934 0.12123 0.11303 0.17969 0.16992 0.87591-0.87832 4.8203-1.6699 4.8203-1.6699s3.9444 0.79161 4.8203 1.6699c0.058463-0.056888 0.12275-0.11299 0.17969-0.16992 0-1-5-2-5-2z" fill="#fff" opacity=".2"/>
  </g>
 </g>
</svg>
