<?xml version="1.0" encoding="UTF-8"?>
<svg id="svg2117" width="128" height="128" version="1.1" viewBox="0 0 33.867 33.867" xmlns="http://www.w3.org/2000/svg" xmlns:cc="http://creativecommons.org/ns#" xmlns:dc="http://purl.org/dc/elements/1.1/" xmlns:rdf="http://www.w3.org/1999/02/22-rdf-syntax-ns#" xmlns:xlink="http://www.w3.org/1999/xlink">
 <defs id="defs2111">
  <linearGradient id="linearGradient912" x1="132.21" x2="132.21" y1="42.152" y2="70.68" gradientTransform="matrix(.97573 0 0 .97573 -111.89 -37.234)" gradientUnits="userSpaceOnUse">
   <stop id="stop1626" stop-color="#f8fcfc" offset="0"/>
   <stop id="stop1628" stop-color="#e3e5e8" offset="1"/>
  </linearGradient>
 </defs>
 <metadata id="metadata2114">
  <rdf:RDF>
   <cc:Work rdf:about="">
    <dc:format>image/svg+xml</dc:format>
    <dc:type rdf:resource="http://purl.org/dc/dcmitype/StillImage"/>
   </cc:Work>
  </rdf:RDF>
 </metadata>
 <g id="layer1">
  <g id="g1702" transform="matrix(.97573 0 0 .97573 -65.83 -36.915)" fill="none" opacity=".13962" stroke="#000" stroke-linecap="round" stroke-linejoin="round" stroke-opacity=".02">
   <rect id="rect1634" x="69.84" y="40.71" width="29.811" height="29.811" rx="6.6099" ry="6.6099" stroke-width=".1"/>
   <rect id="rect1638" x="69.84" y="40.71" width="29.811" height="29.811" rx="6.6099" ry="6.6099" stroke-width=".2"/>
   <rect id="rect1640" x="69.84" y="40.71" width="29.811" height="29.811" rx="6.6099" ry="6.6099" stroke-width=".3"/>
   <rect id="rect1642" x="69.84" y="40.71" width="29.811" height="29.811" rx="6.6099" ry="6.6099" stroke-width=".4"/>
   <rect id="rect1644" x="69.84" y="40.71" width="29.811" height="29.811" rx="6.6099" ry="6.6099" stroke-width=".5"/>
   <rect id="rect1646" x="69.84" y="40.71" width="29.811" height="29.811" rx="6.6099" ry="6.6099" stroke-width=".6"/>
   <rect id="rect1648" x="69.84" y="40.71" width="29.811" height="29.811" rx="6.6099" ry="6.6099" stroke-width=".7"/>
   <rect id="rect1650" x="69.84" y="40.71" width="29.811" height="29.811" rx="6.6099" ry="6.6099" stroke-width=".8"/>
   <rect id="rect1652" x="69.84" y="40.71" width="29.811" height="29.811" rx="6.6099" ry="6.6099"/>
   <rect id="rect1654" x="69.84" y="40.71" width="29.811" height="29.811" rx="6.6099" ry="6.6099" stroke-width="1.2"/>
   <rect id="rect1656" x="69.84" y="40.71" width="29.811" height="29.811" rx="6.6099" ry="6.6099" stroke-width="1.4"/>
   <rect id="rect1658" x="69.84" y="40.71" width="29.811" height="29.811" rx="6.6099" ry="6.6099" stroke-width="1.6"/>
   <rect id="rect1660" x="69.84" y="40.71" width="29.811" height="29.811" rx="6.6099" ry="6.6099" stroke-width="1.8"/>
   <rect id="rect1662" x="69.84" y="40.71" width="29.811" height="29.811" rx="6.6099" ry="6.6099" stroke-width="2"/>
   <rect id="rect1664" x="69.84" y="40.71" width="29.811" height="29.811" rx="6.6099" ry="6.6099" stroke-width="2.2"/>
   <rect id="rect1666" x="69.84" y="40.71" width="29.811" height="29.811" rx="6.6099" ry="6.6099" stroke-width="2.6"/>
   <rect id="rect1668" x="69.84" y="40.71" width="29.811" height="29.811" rx="6.6099" ry="6.6099" stroke-width="3"/>
   <rect id="rect1670" x="69.84" y="40.71" width="29.811" height="29.811" rx="6.6099" ry="6.6099" stroke-width="3.4"/>
   <rect id="rect1672" x="69.84" y="40.71" width="29.811" height="29.811" rx="6.6099" ry="6.6099" stroke-width="3.8"/>
   <rect id="rect1674" x="69.84" y="40.71" width="29.811" height="29.811" rx="6.6099" ry="6.6099" stroke-width="4.2"/>
   <rect id="rect1676" x="69.84" y="40.71" width="29.811" height="29.811" rx="6.6099" ry="6.6099" stroke-width="4.6"/>
   <rect id="rect1678" x="69.84" y="40.71" width="29.811" height="29.811" rx="6.6099" ry="6.6099" stroke-width="5"/>
  </g>
  <rect id="rect910" x="2.2835" y="2.4875" width="29.087" height="29.087" rx="6.4495" ry="6.4495" fill="url(#linearGradient912)" stroke-linecap="round" stroke-linejoin="round" stroke-width="2.6877"/>
  <path id="path6" d="m6.581 8.4291c-0.33594 0-0.60642 0.27048-0.60642 0.60642v2.7299c0 0.33594 0.27048 0.60642 0.60642 0.60642h2.7299c0.33594 0 0.60642-0.27048 0.60642-0.60642v-2.7299c0-0.33594-0.27048-0.60642-0.60642-0.60642zm6.7862 0.98568c-0.27303 0-0.49284 0.21981-0.49284 0.49284v0.98568c0 0.27303 0.21981 0.49284 0.49284 0.49284h13.799c0.27303 0 0.49284-0.21981 0.49284-0.49284v-0.98568c0-0.27303-0.21981-0.49284-0.49284-0.49284zm-5.4212 5.9141a1.9714 1.9714 0 0 0-1.9714 1.9714 1.9714 1.9714 0 0 0 1.9714 1.9714 1.9714 1.9714 0 0 0 1.9714-1.9714 1.9714 1.9714 0 0 0-1.9714-1.9714zm5.4212 0.98568c-0.27303 0-0.49284 0.21981-0.49284 0.49284v0.98568c0 0.27303 0.21981 0.49284 0.49284 0.49284h13.799c0.27303 0 0.49284-0.21981 0.49284-0.49284v-0.98568c0-0.27303-0.21981-0.49284-0.49284-0.49284zm-7.3194 5.916a0.076943 0.088211 90 0 0-0.07315 0.07509l0.0058 2.0272 0.0039 1.7615a0.076943 0.088211 90 0 0 0.13283 0.06737l2.0099-1.0184 1.7461-0.88364a0.076943 0.088211 90 0 0 0-0.13283l-2.0157-1.0107-1.75-0.87787a0.076943 0.088211 90 0 0-0.05968-0.0076zm7.3194 0.98375c-0.27303 0-0.49284 0.21981-0.49284 0.49284v0.98568c0 0.27303 0.21981 0.49284 0.49284 0.49284h13.799c0.27303 0 0.49284-0.21981 0.49284-0.49284v-0.98568c0-0.27304-0.21981-0.49284-0.49284-0.49284z" opacity=".1" stroke-width=".49284"/>
  <rect id="rect8" x="5.9746" y="7.9372" width="3.9427" height="3.9427" rx=".60619" ry=".60619" fill="#3d3d3d" stroke-width=".49284"/>
  <circle id="circle10" cx="7.946" cy="16.808" r="1.9714" fill="#3d3d3d" stroke-width=".49284"/>
  <path id="path12" d="m6.1068 21.747 3.7663 1.8875a0.076943 0.088211 90 0 1 3.22e-4 0.13328l-3.7571 1.9013a0.076943 0.088211 90 0 1-0.13248-0.06639l-0.0043-1.7611-0.0048-2.0277a0.076943 0.088211 90 0 1 0.13216-0.06687z" fill="#3d3d3d" stroke-width=".49284"/>
  <rect id="rect14" x="12.874" y="8.9229" width="14.785" height="1.9714" rx=".49284" ry=".49284" fill="#6c6c6c" stroke-width=".49284"/>
  <rect id="rect16" x="12.874" y="15.823" width="14.785" height="1.9714" rx=".49284" ry=".49284" fill="#6c6c6c" stroke-width=".49284"/>
  <rect id="rect18" x="12.874" y="22.722" width="14.785" height="1.9714" rx=".49284" ry=".49284" fill="#6c6c6c" stroke-width=".49284"/>
 </g>
</svg>
