<?xml version="1.0" encoding="UTF-8"?>
<svg id="svg6" width="128" height="128" version="1.1" viewBox="0 0 33.867 33.867" xmlns="http://www.w3.org/2000/svg" xmlns:cc="http://creativecommons.org/ns#" xmlns:dc="http://purl.org/dc/elements/1.1/" xmlns:rdf="http://www.w3.org/1999/02/22-rdf-syntax-ns#" xmlns:xlink="http://www.w3.org/1999/xlink">
 <metadata id="metadata102">
  <rdf:RDF>
   <cc:Work rdf:about="">
    <dc:format>image/svg+xml</dc:format>
    <dc:type rdf:resource="http://purl.org/dc/dcmitype/StillImage"/>
    <dc:title/>
   </cc:Work>
  </rdf:RDF>
 </metadata>
 <defs id="defs2">
  <linearGradient id="linearGradient1010">
   <stop id="stop1006" stop-color="#646464" offset="0"/>
   <stop id="stop1008" stop-color="#c9c9c9" stop-opacity=".92941" offset="1"/>
  </linearGradient>
  <linearGradient id="linearGradient951" x1="2.4065" x2="31.494" y1="17.062" y2="17.062" gradientUnits="userSpaceOnUse">
   <stop id="stop945" stop-color="#bac0c3" offset="0"/>
   <stop id="stop959" stop-color="#eaeced" offset=".13492"/>
   <stop id="stop957" stop-color="#d1d6d8" offset=".25187"/>
   <stop id="stop955" stop-color="#c8cbcb" offset=".78465"/>
   <stop id="stop953" stop-color="#d2d7da" offset=".91134"/>
   <stop id="stop947" stop-color="#afb5b8" offset="1"/>
  </linearGradient>
  <linearGradient id="linearGradient977" x1="6.2808" x2="25.549" y1="5.4868" y2="24.755" gradientUnits="userSpaceOnUse">
   <stop id="stop971" stop-color="#dce2e4" offset="0"/>
   <stop id="stop973" stop-color="#a0adba" offset="1"/>
  </linearGradient>
  <radialGradient id="radialGradient992" cx="24.545" cy="29.496" r="1.2993" gradientTransform="translate(.025057 -.0083523)" gradientUnits="userSpaceOnUse">
   <stop id="stop986" stop-color="#8ff" offset="0"/>
   <stop id="stop994" stop-color="#2281e8" stop-opacity=".98431" offset=".87273"/>
   <stop id="stop988" stop-color="#32518b" stop-opacity=".98431" offset="1"/>
  </radialGradient>
  <linearGradient id="linearGradient1012" x1="27.756" x2="27.756" y1="23.969" y2="22.332" gradientUnits="userSpaceOnUse" xlink:href="#linearGradient1010"/>
  <linearGradient id="linearGradient1208" x1="18.431" x2="18.431" y1="22.999" y2="5.6266" gradientUnits="userSpaceOnUse">
   <stop id="stop1202" stop-color="#1c74f8" offset="0"/>
   <stop id="stop1204" stop-color="#46d5ec" offset="1"/>
  </linearGradient>
 </defs>
 <g id="layer1">
  <g id="g1702" transform="matrix(.97573 0 0 .97573 -65.748 -37.203)" fill="none" opacity=".29677" stroke="#000" stroke-linecap="round" stroke-linejoin="round" stroke-opacity=".02">
   <rect id="rect1634" x="69.84" y="40.71" width="29.811" height="29.811" rx="6.6099" ry="6.6099" stroke-width=".1"/>
   <rect id="rect1638" x="69.84" y="40.71" width="29.811" height="29.811" rx="6.6099" ry="6.6099" stroke-width=".2"/>
   <rect id="rect1640" x="69.84" y="40.71" width="29.811" height="29.811" rx="6.6099" ry="6.6099" stroke-width=".3"/>
   <rect id="rect1642" x="69.84" y="40.71" width="29.811" height="29.811" rx="6.6099" ry="6.6099" stroke-width=".4"/>
   <rect id="rect1644" x="69.84" y="40.71" width="29.811" height="29.811" rx="6.6099" ry="6.6099" stroke-width=".5"/>
   <rect id="rect1646" x="69.84" y="40.71" width="29.811" height="29.811" rx="6.6099" ry="6.6099" stroke-width=".6"/>
   <rect id="rect1648" x="69.84" y="40.71" width="29.811" height="29.811" rx="6.6099" ry="6.6099" stroke-width=".7"/>
   <rect id="rect1650" x="69.84" y="40.71" width="29.811" height="29.811" rx="6.6099" ry="6.6099" stroke-width=".8"/>
   <rect id="rect1652" x="69.84" y="40.71" width="29.811" height="29.811" rx="6.6099" ry="6.6099"/>
   <rect id="rect1654" x="69.84" y="40.71" width="29.811" height="29.811" rx="6.6099" ry="6.6099" stroke-width="1.2"/>
   <rect id="rect1656" x="69.84" y="40.71" width="29.811" height="29.811" rx="6.6099" ry="6.6099" stroke-width="1.4"/>
   <rect id="rect1658" x="69.84" y="40.71" width="29.811" height="29.811" rx="6.6099" ry="6.6099" stroke-width="1.6"/>
   <rect id="rect1660" x="69.84" y="40.71" width="29.811" height="29.811" rx="6.6099" ry="6.6099" stroke-width="1.8"/>
   <rect id="rect1662" x="69.84" y="40.71" width="29.811" height="29.811" rx="6.6099" ry="6.6099" stroke-width="2"/>
   <rect id="rect1664" x="69.84" y="40.71" width="29.811" height="29.811" rx="6.6099" ry="6.6099" stroke-width="2.2"/>
   <rect id="rect1666" x="69.84" y="40.71" width="29.811" height="29.811" rx="6.6099" ry="6.6099" stroke-width="2.6"/>
   <rect id="rect1668" x="69.84" y="40.71" width="29.811" height="29.811" rx="6.6099" ry="6.6099" stroke-width="3"/>
   <rect id="rect1670" x="69.84" y="40.71" width="29.811" height="29.811" rx="6.6099" ry="6.6099" stroke-width="3.4"/>
   <rect id="rect1672" x="69.84" y="40.71" width="29.811" height="29.811" rx="6.6099" ry="6.6099" stroke-width="3.8"/>
   <rect id="rect1674" x="69.84" y="40.71" width="29.811" height="29.811" rx="6.6099" ry="6.6099" stroke-width="4.2"/>
   <rect id="rect1676" x="69.84" y="40.71" width="29.811" height="29.811" rx="6.6099" ry="6.6099" stroke-width="4.6"/>
   <rect id="rect1678" x="69.84" y="40.71" width="29.811" height="29.811" rx="6.6099" ry="6.6099" stroke-width="5"/>
  </g>
  <rect id="rect849" x="2.4065" y="2.5186" width="29.087" height="29.087" rx="6.4495" ry="6.4495" fill="url(#linearGradient951)" stroke-linecap="round" stroke-linejoin="round" stroke-width="2.6877"/>
  <rect id="rect969" x="2.4065" y="2.5186" width="29.087" height="24.457" rx="6.4495" ry="6.4495" fill="url(#linearGradient977)" stroke-linecap="round" stroke-linejoin="round" stroke-width="2.6877"/>
  <path id="rect1179" d="m9.1564 3.9885c-3.0918 0-5.5805 2.4893-5.5805 5.5811v10.423c0 2.3511 1.8925 4.2442 4.2437 4.2442h18.261c2.3511 0 4.2442-1.893 4.2442-4.2442v-10.423c-3e-6 -3.0918-2.4893-5.5811-5.5811-5.5811z" fill="url(#linearGradient1208)" stroke-linecap="round" stroke-linejoin="round" stroke-width="2.6877"/>
  <path id="rect979" transform="scale(.26458)" d="m9.0957 75.348v2.2324c0 13.504 10.871 24.375 24.375 24.375h61.186c13.504 0 24.377-10.871 24.377-24.375v-2.2324c0 13.504-10.873 24.377-24.377 24.377h-61.186c-13.504 0-24.375-10.873-24.375-24.377z" fill="#f1f3f4" stroke-linecap="round" stroke-linejoin="round" stroke-width="10.158"/>
  <g id="g1002" transform="translate(.70871 -.33073)" fill-rule="evenodd">
   <circle id="circle996" cx="24.57" cy="29.488" r="1.4413" fill="#fff" fill-opacity=".36413"/>
   <circle id="path984" cx="24.57" cy="29.488" r="1.2993" fill="url(#radialGradient992)"/>
  </g>
  <g id="g1029" transform="translate(0 -.15802)" fill-rule="evenodd">
   <circle id="circle1019" cx="27.436" cy="22.975" r="1.1509" fill="#fff" fill-opacity=".47826"/>
   <g id="g1023" transform="translate(-.10858 -.025057)">
    <circle id="path1004" cx="27.545" cy="23" r=".99219" fill="url(#linearGradient1012)"/>
    <path id="rect1014" d="m27.032 22.55c-0.03216 0.03216-0.03159 0.08395 5.6e-4 0.11611l0.33332 0.33332-0.33332 0.33333c-0.03216 0.03216-0.03272 0.08395-5.6e-4 0.11611l0.06334 0.06334c0.03216 0.03216 0.08451 0.03216 0.11667 0l0.33332-0.33332 0.33332 0.33332c0.03216 0.03216 0.08339 0.03216 0.11555 0l0.06334-0.06334c0.03216-0.03216 0.03272-0.08395 5.6e-4 -0.11611l-0.33332-0.33332 0.33332-0.33332c0.03216-0.03216 0.03159-0.08395-5.6e-4 -0.11611l-0.06334-0.06334c-0.03216-0.03216-0.08339-0.03216-0.11555 0l-0.33332 0.33332-0.33332-0.33332c-0.03216-0.03216-0.08451-0.03216-0.11667 0z" fill="#646464"/>
   </g>
  </g>
  <g id="g1051" transform="translate(0 -16.82)" fill-rule="evenodd">
   <circle id="circle1043" cx="27.436" cy="22.975" r="1.1509" fill="#fff" fill-opacity=".47826"/>
   <g id="g1049" transform="translate(-.10858 -.025057)">
    <circle id="circle1045" cx="27.545" cy="23" r=".99219" fill="url(#linearGradient1012)"/>
    <path id="path1047" d="m27.032 22.55c-0.03216 0.03216-0.03159 0.08395 5.6e-4 0.11611l0.33332 0.33332-0.33332 0.33333c-0.03216 0.03216-0.03272 0.08395-5.6e-4 0.11611l0.06334 0.06334c0.03216 0.03216 0.08451 0.03216 0.11667 0l0.33332-0.33332 0.33332 0.33332c0.03216 0.03216 0.08339 0.03216 0.11555 0l0.06334-0.06334c0.03216-0.03216 0.03272-0.08395 5.6e-4 -0.11611l-0.33332-0.33332 0.33332-0.33332c0.03216-0.03216 0.03159-0.08395-5.6e-4 -0.11611l-0.06334-0.06334c-0.03216-0.03216-0.08339-0.03216-0.11555 0l-0.33332 0.33332-0.33332-0.33332c-0.03216-0.03216-0.08451-0.03216-0.11667 0z" fill="#646464"/>
   </g>
  </g>
  <g id="g1061" transform="translate(-21.072 -16.82)" fill-rule="evenodd">
   <circle id="circle1053" cx="27.436" cy="22.975" r="1.1509" fill="#fff" fill-opacity=".47826"/>
   <g id="g1059" transform="translate(-.10858 -.025057)">
    <circle id="circle1055" cx="27.545" cy="23" r=".99219" fill="url(#linearGradient1012)"/>
    <path id="path1057" d="m27.032 22.55c-0.03216 0.03216-0.03159 0.08395 5.6e-4 0.11611l0.33332 0.33332-0.33332 0.33333c-0.03216 0.03216-0.03272 0.08395-5.6e-4 0.11611l0.06334 0.06334c0.03216 0.03216 0.08451 0.03216 0.11667 0l0.33332-0.33332 0.33332 0.33332c0.03216 0.03216 0.08339 0.03216 0.11555 0l0.06334-0.06334c0.03216-0.03216 0.03272-0.08395 5.6e-4 -0.11611l-0.33332-0.33332 0.33332-0.33332c0.03216-0.03216 0.03159-0.08395-5.6e-4 -0.11611l-0.06334-0.06334c-0.03216-0.03216-0.08339-0.03216-0.11555 0l-0.33332 0.33332-0.33332-0.33332c-0.03216-0.03216-0.08451-0.03216-0.11667 0z" fill="#646464"/>
   </g>
  </g>
  <path id="path883-9-2" d="m17.413 7.7408c-3.4457 0-6.2869 2.5623-6.5762 5.817h-0.94291l1.6423 2.684 1.6174-2.684h-1.0508c0.28173-2.5945 2.5446-4.6002 5.3103-4.6002 2.9573 0 5.3401 2.2928 5.3401 5.1472s-2.3828 5.1625-5.3401 5.1625c-1.4887 0-2.8256-0.59-3.794-1.5345 0 0-0.17147-0.16785-0.27549-0.26295-0.19056-0.17423-0.34396-0.11216-0.4743-0.01156-0.15251 0.11691-0.28531 0.21677-0.43347 0.35038-0.12202 0.09604-0.19252 0.25559-0.07882 0.38542 1.2129 1.396 3.0283 2.29 5.0561 2.29 3.6369 0 6.5943-2.869 6.5943-6.3793 0-3.5103-2.9575-6.364-6.5943-6.364zm-0.07207 2.188c-0.13366 0-0.23004 3.0235-0.34507 4.5352 0.986 0.7637 2.8721 2.3733 2.958 2.2911 0.08926-0.08554-1.5119-1.5904-2.2678-2.3856-0.11503-1.4802-0.19886-4.4406-0.34507-4.4406z" fill="#fff" stroke-width=".24708"/>
  <g id="g1198" transform="translate(-21.072 -.15802)" fill-rule="evenodd">
   <circle id="circle1190" cx="27.436" cy="22.975" r="1.1509" fill="#fff" fill-opacity=".47826"/>
   <g id="g1196" transform="translate(-.10858 -.025057)">
    <circle id="circle1192" cx="27.545" cy="23" r=".99219" fill="url(#linearGradient1012)"/>
    <path id="path1194" d="m27.032 22.55c-0.03216 0.03216-0.03159 0.08395 5.6e-4 0.11611l0.33332 0.33332-0.33332 0.33333c-0.03216 0.03216-0.03272 0.08395-5.6e-4 0.11611l0.06334 0.06334c0.03216 0.03216 0.08451 0.03216 0.11667 0l0.33332-0.33332 0.33332 0.33332c0.03216 0.03216 0.08339 0.03216 0.11555 0l0.06334-0.06334c0.03216-0.03216 0.03272-0.08395 5.6e-4 -0.11611l-0.33332-0.33332 0.33332-0.33332c0.03216-0.03216 0.03159-0.08395-5.6e-4 -0.11611l-0.06334-0.06334c-0.03216-0.03216-0.08339-0.03216-0.11555 0l-0.33332 0.33332-0.33332-0.33332c-0.03216-0.03216-0.08451-0.03216-0.11667 0z" fill="#646464"/>
   </g>
  </g>
 </g>
</svg>
