<svg xmlns="http://www.w3.org/2000/svg" xmlns:xlink="http://www.w3.org/1999/xlink" width="128" height="128" viewBox="0 0 33.867 33.867"><defs><linearGradient id="b"><stop style="stop-color:#fff;stop-opacity:1" offset="0"/><stop style="stop-color:#fcd5cf;stop-opacity:1" offset="1"/></linearGradient><linearGradient xlink:href="#a" id="c" x1="15.807" y1="6.902" x2="16.042" y2="29.389" gradientUnits="userSpaceOnUse" gradientTransform="translate(-.084 -.029)"/><linearGradient id="a"><stop style="stop-color:#ff8765;stop-opacity:1" offset="0"/><stop style="stop-color:#f04732;stop-opacity:1" offset="1"/></linearGradient><linearGradient xlink:href="#b" id="d" x1="18.279" y1="18.13" x2="18.518" y2="27.541" gradientUnits="userSpaceOnUse"/></defs><g style="opacity:.296765"><path d="M76.45 40.71h16.59a6.595 6.595 0 0 1 6.61 6.61v16.59a6.595 6.595 0 0 1-6.61 6.61H76.45a6.595 6.595 0 0 1-6.61-6.61V47.32a6.595 6.595 0 0 1 6.61-6.61z" style="fill:none;fill-opacity:1;stroke:#000;stroke-width:.1;stroke-linecap:round;stroke-linejoin:round;stroke-miterlimit:4;stroke-dasharray:none;stroke-opacity:.02" transform="translate(-65.832 -37.232) scale(.97573)"/><path d="M76.45 40.71h16.59a6.595 6.595 0 0 1 6.61 6.61v16.59a6.595 6.595 0 0 1-6.61 6.61H76.45a6.595 6.595 0 0 1-6.61-6.61V47.32a6.595 6.595 0 0 1 6.61-6.61z" style="fill:none;fill-opacity:1;stroke:#000;stroke-width:.2;stroke-linecap:round;stroke-linejoin:round;stroke-miterlimit:4;stroke-dasharray:none;stroke-opacity:.02" transform="translate(-65.832 -37.232) scale(.97573)"/><path d="M76.45 40.71h16.59a6.595 6.595 0 0 1 6.61 6.61v16.59a6.595 6.595 0 0 1-6.61 6.61H76.45a6.595 6.595 0 0 1-6.61-6.61V47.32a6.595 6.595 0 0 1 6.61-6.61z" style="fill:none;fill-opacity:1;stroke:#000;stroke-width:.3;stroke-linecap:round;stroke-linejoin:round;stroke-miterlimit:4;stroke-dasharray:none;stroke-opacity:.02" transform="translate(-65.832 -37.232) scale(.97573)"/><path d="M76.45 40.71h16.59a6.595 6.595 0 0 1 6.61 6.61v16.59a6.595 6.595 0 0 1-6.61 6.61H76.45a6.595 6.595 0 0 1-6.61-6.61V47.32a6.595 6.595 0 0 1 6.61-6.61z" style="fill:none;fill-opacity:1;stroke:#000;stroke-width:.4;stroke-linecap:round;stroke-linejoin:round;stroke-miterlimit:4;stroke-dasharray:none;stroke-opacity:.02" transform="translate(-65.832 -37.232) scale(.97573)"/><path d="M76.45 40.71h16.59a6.595 6.595 0 0 1 6.61 6.61v16.59a6.595 6.595 0 0 1-6.61 6.61H76.45a6.595 6.595 0 0 1-6.61-6.61V47.32a6.595 6.595 0 0 1 6.61-6.61z" style="fill:none;fill-opacity:1;stroke:#000;stroke-width:.5;stroke-linecap:round;stroke-linejoin:round;stroke-miterlimit:4;stroke-dasharray:none;stroke-opacity:.02" transform="translate(-65.832 -37.232) scale(.97573)"/><path d="M76.45 40.71h16.59a6.595 6.595 0 0 1 6.61 6.61v16.59a6.595 6.595 0 0 1-6.61 6.61H76.45a6.595 6.595 0 0 1-6.61-6.61V47.32a6.595 6.595 0 0 1 6.61-6.61z" style="fill:none;fill-opacity:1;stroke:#000;stroke-width:.6;stroke-linecap:round;stroke-linejoin:round;stroke-miterlimit:4;stroke-dasharray:none;stroke-opacity:.02" transform="translate(-65.832 -37.232) scale(.97573)"/><path d="M76.45 40.71h16.59a6.595 6.595 0 0 1 6.61 6.61v16.59a6.595 6.595 0 0 1-6.61 6.61H76.45a6.595 6.595 0 0 1-6.61-6.61V47.32a6.595 6.595 0 0 1 6.61-6.61z" style="fill:none;fill-opacity:1;stroke:#000;stroke-width:.7;stroke-linecap:round;stroke-linejoin:round;stroke-miterlimit:4;stroke-dasharray:none;stroke-opacity:.02" transform="translate(-65.832 -37.232) scale(.97573)"/><path d="M76.45 40.71h16.59a6.595 6.595 0 0 1 6.61 6.61v16.59a6.595 6.595 0 0 1-6.61 6.61H76.45a6.595 6.595 0 0 1-6.61-6.61V47.32a6.595 6.595 0 0 1 6.61-6.61z" style="fill:none;fill-opacity:1;stroke:#000;stroke-width:.8;stroke-linecap:round;stroke-linejoin:round;stroke-miterlimit:4;stroke-dasharray:none;stroke-opacity:.02" transform="translate(-65.832 -37.232) scale(.97573)"/><path d="M76.45 40.71h16.59a6.595 6.595 0 0 1 6.61 6.61v16.59a6.595 6.595 0 0 1-6.61 6.61H76.45a6.595 6.595 0 0 1-6.61-6.61V47.32a6.595 6.595 0 0 1 6.61-6.61z" style="fill:none;fill-opacity:1;stroke:#000;stroke-width:1;stroke-linecap:round;stroke-linejoin:round;stroke-miterlimit:4;stroke-dasharray:none;stroke-opacity:.02" transform="translate(-65.832 -37.232) scale(.97573)"/><path d="M76.45 40.71h16.59a6.595 6.595 0 0 1 6.61 6.61v16.59a6.595 6.595 0 0 1-6.61 6.61H76.45a6.595 6.595 0 0 1-6.61-6.61V47.32a6.595 6.595 0 0 1 6.61-6.61z" style="fill:none;fill-opacity:1;stroke:#000;stroke-width:1.2;stroke-linecap:round;stroke-linejoin:round;stroke-miterlimit:4;stroke-dasharray:none;stroke-opacity:.02" transform="translate(-65.832 -37.232) scale(.97573)"/><path d="M76.45 40.71h16.59a6.595 6.595 0 0 1 6.61 6.61v16.59a6.595 6.595 0 0 1-6.61 6.61H76.45a6.595 6.595 0 0 1-6.61-6.61V47.32a6.595 6.595 0 0 1 6.61-6.61z" style="fill:none;fill-opacity:1;stroke:#000;stroke-width:1.4;stroke-linecap:round;stroke-linejoin:round;stroke-miterlimit:4;stroke-dasharray:none;stroke-opacity:.02" transform="translate(-65.832 -37.232) scale(.97573)"/><path d="M76.45 40.71h16.59a6.595 6.595 0 0 1 6.61 6.61v16.59a6.595 6.595 0 0 1-6.61 6.61H76.45a6.595 6.595 0 0 1-6.61-6.61V47.32a6.595 6.595 0 0 1 6.61-6.61z" style="fill:none;fill-opacity:1;stroke:#000;stroke-width:1.6;stroke-linecap:round;stroke-linejoin:round;stroke-miterlimit:4;stroke-dasharray:none;stroke-opacity:.02" transform="translate(-65.832 -37.232) scale(.97573)"/><path d="M76.45 40.71h16.59a6.595 6.595 0 0 1 6.61 6.61v16.59a6.595 6.595 0 0 1-6.61 6.61H76.45a6.595 6.595 0 0 1-6.61-6.61V47.32a6.595 6.595 0 0 1 6.61-6.61z" style="fill:none;fill-opacity:1;stroke:#000;stroke-width:1.8;stroke-linecap:round;stroke-linejoin:round;stroke-miterlimit:4;stroke-dasharray:none;stroke-opacity:.02" transform="translate(-65.832 -37.232) scale(.97573)"/><path d="M76.45 40.71h16.59a6.595 6.595 0 0 1 6.61 6.61v16.59a6.595 6.595 0 0 1-6.61 6.61H76.45a6.595 6.595 0 0 1-6.61-6.61V47.32a6.595 6.595 0 0 1 6.61-6.61z" style="fill:none;fill-opacity:1;stroke:#000;stroke-width:2;stroke-linecap:round;stroke-linejoin:round;stroke-miterlimit:4;stroke-dasharray:none;stroke-opacity:.02" transform="translate(-65.832 -37.232) scale(.97573)"/><path d="M76.45 40.71h16.59a6.595 6.595 0 0 1 6.61 6.61v16.59a6.595 6.595 0 0 1-6.61 6.61H76.45a6.595 6.595 0 0 1-6.61-6.61V47.32a6.595 6.595 0 0 1 6.61-6.61z" style="fill:none;fill-opacity:1;stroke:#000;stroke-width:2.2;stroke-linecap:round;stroke-linejoin:round;stroke-miterlimit:4;stroke-dasharray:none;stroke-opacity:.02" transform="translate(-65.832 -37.232) scale(.97573)"/><path d="M76.45 40.71h16.59a6.595 6.595 0 0 1 6.61 6.61v16.59a6.595 6.595 0 0 1-6.61 6.61H76.45a6.595 6.595 0 0 1-6.61-6.61V47.32a6.595 6.595 0 0 1 6.61-6.61z" style="fill:none;fill-opacity:1;stroke:#000;stroke-width:2.6;stroke-linecap:round;stroke-linejoin:round;stroke-miterlimit:4;stroke-dasharray:none;stroke-opacity:.02" transform="translate(-65.832 -37.232) scale(.97573)"/><path d="M76.45 40.71h16.59a6.595 6.595 0 0 1 6.61 6.61v16.59a6.595 6.595 0 0 1-6.61 6.61H76.45a6.595 6.595 0 0 1-6.61-6.61V47.32a6.595 6.595 0 0 1 6.61-6.61z" style="fill:none;fill-opacity:1;stroke:#000;stroke-width:3;stroke-linecap:round;stroke-linejoin:round;stroke-miterlimit:4;stroke-dasharray:none;stroke-opacity:.02" transform="translate(-65.832 -37.232) scale(.97573)"/><path d="M76.45 40.71h16.59a6.595 6.595 0 0 1 6.61 6.61v16.59a6.595 6.595 0 0 1-6.61 6.61H76.45a6.595 6.595 0 0 1-6.61-6.61V47.32a6.595 6.595 0 0 1 6.61-6.61z" style="fill:none;fill-opacity:1;stroke:#000;stroke-width:3.4;stroke-linecap:round;stroke-linejoin:round;stroke-miterlimit:4;stroke-dasharray:none;stroke-opacity:.02" transform="translate(-65.832 -37.232) scale(.97573)"/><path d="M76.45 40.71h16.59a6.595 6.595 0 0 1 6.61 6.61v16.59a6.595 6.595 0 0 1-6.61 6.61H76.45a6.595 6.595 0 0 1-6.61-6.61V47.32a6.595 6.595 0 0 1 6.61-6.61z" style="fill:none;fill-opacity:1;stroke:#000;stroke-width:3.8;stroke-linecap:round;stroke-linejoin:round;stroke-miterlimit:4;stroke-dasharray:none;stroke-opacity:.02" transform="translate(-65.832 -37.232) scale(.97573)"/><path d="M76.45 40.71h16.59a6.595 6.595 0 0 1 6.61 6.61v16.59a6.595 6.595 0 0 1-6.61 6.61H76.45a6.595 6.595 0 0 1-6.61-6.61V47.32a6.595 6.595 0 0 1 6.61-6.61z" style="fill:none;fill-opacity:1;stroke:#000;stroke-width:4.2;stroke-linecap:round;stroke-linejoin:round;stroke-miterlimit:4;stroke-dasharray:none;stroke-opacity:.02" transform="translate(-65.832 -37.232) scale(.97573)"/><path d="M76.45 40.71h16.59a6.595 6.595 0 0 1 6.61 6.61v16.59a6.595 6.595 0 0 1-6.61 6.61H76.45a6.595 6.595 0 0 1-6.61-6.61V47.32a6.595 6.595 0 0 1 6.61-6.61z" style="fill:none;fill-opacity:1;stroke:#000;stroke-width:4.6;stroke-linecap:round;stroke-linejoin:round;stroke-miterlimit:4;stroke-dasharray:none;stroke-opacity:.02" transform="translate(-65.832 -37.232) scale(.97573)"/><path d="M76.45 40.71h16.59a6.595 6.595 0 0 1 6.61 6.61v16.59a6.595 6.595 0 0 1-6.61 6.61H76.45a6.595 6.595 0 0 1-6.61-6.61V47.32a6.595 6.595 0 0 1 6.61-6.61z" style="fill:none;fill-opacity:1;stroke:#000;stroke-width:5;stroke-linecap:round;stroke-linejoin:round;stroke-miterlimit:4;stroke-dasharray:none;stroke-opacity:.02" transform="translate(-65.832 -37.232) scale(.97573)"/></g><rect ry="6.449" rx="6.449" y="2.49" x="2.322" height="29.087" width="29.087" style="fill:url(#c);fill-opacity:1;stroke-width:2.68769;stroke-linecap:round;stroke-linejoin:round"/><g style="opacity:.724"><path style="fill:none;fill-opacity:1;stroke:#000;stroke-width:.1;stroke-miterlimit:4;stroke-dasharray:none;stroke-opacity:.0117647" d="M-118.333 97.047c-10.556-2.247-19.1-10.474-21.514-20.715-3.348-14.202 4.81-28.73 18.587-33.103 4.754-1.51 12.13-1.51 16.884 0 16.411 5.209 24.167 24.295 16.12 39.668-2.266 4.329-7.647 9.592-11.956 11.695-3.384 1.652-10.154 3.363-12.977 3.28-.807-.023-3.122-.394-5.144-.825zm27.738-27.732c.597-.597.661-1.308.295-3.283-1.955-10.541-8.383-17.063-18.767-19.04-1.914-.365-2.452-.274-3.28.554-.928.928-.969 1.645-.651 11.367.216 6.59.55 10.517.916 10.762.318.213 5.11.39 10.651.394 8.112.007 10.222-.14 10.836-.754zM-92.107 46.4c-.543-.6-2.364-1.94-4.046-2.979-2.278-1.406-3.018-2.152-2.902-2.925.354-2.35 1.644-2.2 5.98.69 5.385 3.591 5.183 3.351 4.145 4.936-1.084 1.655-1.87 1.723-3.177.278zm-26.488-9.094c0-.902-.37-1.349-1.314-1.586-1.082-.271-1.313-.647-1.313-2.14 0-1.25.314-1.977 1.016-2.353 1.322-.707 13.455-.707 14.776 0 .703.376 1.016 1.102 1.016 2.354 0 1.492-.23 1.868-1.313 2.14-.942.236-1.313.683-1.313 1.585 0 1.249-.035 1.256-5.778 1.256-5.743 0-5.777-.007-5.777-1.256z" transform="translate(46.72 .024) scale(.26458)"/><path d="M-118.333 97.047c-10.556-2.247-19.1-10.474-21.514-20.715-3.348-14.202 4.81-28.73 18.587-33.103 4.754-1.51 12.13-1.51 16.884 0 16.411 5.209 24.167 24.295 16.12 39.668-2.266 4.329-7.647 9.592-11.956 11.695-3.384 1.652-10.154 3.363-12.977 3.28-.807-.023-3.122-.394-5.144-.825zm27.738-27.732c.597-.597.661-1.308.295-3.283-1.955-10.541-8.383-17.063-18.767-19.04-1.914-.365-2.452-.274-3.28.554-.928.928-.969 1.645-.651 11.367.216 6.59.55 10.517.916 10.762.318.213 5.11.39 10.651.394 8.112.007 10.222-.14 10.836-.754zM-92.107 46.4c-.543-.6-2.364-1.94-4.046-2.979-2.278-1.406-3.018-2.152-2.902-2.925.354-2.35 1.644-2.2 5.98.69 5.385 3.591 5.183 3.351 4.145 4.936-1.084 1.655-1.87 1.723-3.177.278zm-26.488-9.094c0-.902-.37-1.349-1.314-1.586-1.082-.271-1.313-.647-1.313-2.14 0-1.25.314-1.977 1.016-2.353 1.322-.707 13.455-.707 14.776 0 .703.376 1.016 1.102 1.016 2.354 0 1.492-.23 1.868-1.313 2.14-.942.236-1.313.683-1.313 1.585 0 1.249-.035 1.256-5.778 1.256-5.743 0-5.777-.007-5.777-1.256z" style="fill:none;fill-opacity:1;stroke:#000;stroke-width:.2;stroke-miterlimit:4;stroke-dasharray:none;stroke-opacity:.0117647" transform="translate(46.72 .024) scale(.26458)"/><path style="fill:none;fill-opacity:1;stroke:#000;stroke-width:.3;stroke-miterlimit:4;stroke-dasharray:none;stroke-opacity:.0117647" d="M-118.333 97.047c-10.556-2.247-19.1-10.474-21.514-20.715-3.348-14.202 4.81-28.73 18.587-33.103 4.754-1.51 12.13-1.51 16.884 0 16.411 5.209 24.167 24.295 16.12 39.668-2.266 4.329-7.647 9.592-11.956 11.695-3.384 1.652-10.154 3.363-12.977 3.28-.807-.023-3.122-.394-5.144-.825zm27.738-27.732c.597-.597.661-1.308.295-3.283-1.955-10.541-8.383-17.063-18.767-19.04-1.914-.365-2.452-.274-3.28.554-.928.928-.969 1.645-.651 11.367.216 6.59.55 10.517.916 10.762.318.213 5.11.39 10.651.394 8.112.007 10.222-.14 10.836-.754zM-92.107 46.4c-.543-.6-2.364-1.94-4.046-2.979-2.278-1.406-3.018-2.152-2.902-2.925.354-2.35 1.644-2.2 5.98.69 5.385 3.591 5.183 3.351 4.145 4.936-1.084 1.655-1.87 1.723-3.177.278zm-26.488-9.094c0-.902-.37-1.349-1.314-1.586-1.082-.271-1.313-.647-1.313-2.14 0-1.25.314-1.977 1.016-2.353 1.322-.707 13.455-.707 14.776 0 .703.376 1.016 1.102 1.016 2.354 0 1.492-.23 1.868-1.313 2.14-.942.236-1.313.683-1.313 1.585 0 1.249-.035 1.256-5.778 1.256-5.743 0-5.777-.007-5.777-1.256z" transform="translate(46.72 .024) scale(.26458)"/><path d="M-118.333 97.047c-10.556-2.247-19.1-10.474-21.514-20.715-3.348-14.202 4.81-28.73 18.587-33.103 4.754-1.51 12.13-1.51 16.884 0 16.411 5.209 24.167 24.295 16.12 39.668-2.266 4.329-7.647 9.592-11.956 11.695-3.384 1.652-10.154 3.363-12.977 3.28-.807-.023-3.122-.394-5.144-.825zm27.738-27.732c.597-.597.661-1.308.295-3.283-1.955-10.541-8.383-17.063-18.767-19.04-1.914-.365-2.452-.274-3.28.554-.928.928-.969 1.645-.651 11.367.216 6.59.55 10.517.916 10.762.318.213 5.11.39 10.651.394 8.112.007 10.222-.14 10.836-.754zM-92.107 46.4c-.543-.6-2.364-1.94-4.046-2.979-2.278-1.406-3.018-2.152-2.902-2.925.354-2.35 1.644-2.2 5.98.69 5.385 3.591 5.183 3.351 4.145 4.936-1.084 1.655-1.87 1.723-3.177.278zm-26.488-9.094c0-.902-.37-1.349-1.314-1.586-1.082-.271-1.313-.647-1.313-2.14 0-1.25.314-1.977 1.016-2.353 1.322-.707 13.455-.707 14.776 0 .703.376 1.016 1.102 1.016 2.354 0 1.492-.23 1.868-1.313 2.14-.942.236-1.313.683-1.313 1.585 0 1.249-.035 1.256-5.778 1.256-5.743 0-5.777-.007-5.777-1.256z" style="fill:none;fill-opacity:1;stroke:#000;stroke-width:.4;stroke-miterlimit:4;stroke-dasharray:none;stroke-opacity:.0117647" transform="translate(46.72 .024) scale(.26458)"/><path style="fill:none;fill-opacity:1;stroke:#000;stroke-width:.5;stroke-miterlimit:4;stroke-dasharray:none;stroke-opacity:.0117647" d="M-118.333 97.047c-10.556-2.247-19.1-10.474-21.514-20.715-3.348-14.202 4.81-28.73 18.587-33.103 4.754-1.51 12.13-1.51 16.884 0 16.411 5.209 24.167 24.295 16.12 39.668-2.266 4.329-7.647 9.592-11.956 11.695-3.384 1.652-10.154 3.363-12.977 3.28-.807-.023-3.122-.394-5.144-.825zm27.738-27.732c.597-.597.661-1.308.295-3.283-1.955-10.541-8.383-17.063-18.767-19.04-1.914-.365-2.452-.274-3.28.554-.928.928-.969 1.645-.651 11.367.216 6.59.55 10.517.916 10.762.318.213 5.11.39 10.651.394 8.112.007 10.222-.14 10.836-.754zM-92.107 46.4c-.543-.6-2.364-1.94-4.046-2.979-2.278-1.406-3.018-2.152-2.902-2.925.354-2.35 1.644-2.2 5.98.69 5.385 3.591 5.183 3.351 4.145 4.936-1.084 1.655-1.87 1.723-3.177.278zm-26.488-9.094c0-.902-.37-1.349-1.314-1.586-1.082-.271-1.313-.647-1.313-2.14 0-1.25.314-1.977 1.016-2.353 1.322-.707 13.455-.707 14.776 0 .703.376 1.016 1.102 1.016 2.354 0 1.492-.23 1.868-1.313 2.14-.942.236-1.313.683-1.313 1.585 0 1.249-.035 1.256-5.778 1.256-5.743 0-5.777-.007-5.777-1.256z" transform="translate(46.72 .024) scale(.26458)"/><path d="M-118.333 97.047c-10.556-2.247-19.1-10.474-21.514-20.715-3.348-14.202 4.81-28.73 18.587-33.103 4.754-1.51 12.13-1.51 16.884 0 16.411 5.209 24.167 24.295 16.12 39.668-2.266 4.329-7.647 9.592-11.956 11.695-3.384 1.652-10.154 3.363-12.977 3.28-.807-.023-3.122-.394-5.144-.825zm27.738-27.732c.597-.597.661-1.308.295-3.283-1.955-10.541-8.383-17.063-18.767-19.04-1.914-.365-2.452-.274-3.28.554-.928.928-.969 1.645-.651 11.367.216 6.59.55 10.517.916 10.762.318.213 5.11.39 10.651.394 8.112.007 10.222-.14 10.836-.754zM-92.107 46.4c-.543-.6-2.364-1.94-4.046-2.979-2.278-1.406-3.018-2.152-2.902-2.925.354-2.35 1.644-2.2 5.98.69 5.385 3.591 5.183 3.351 4.145 4.936-1.084 1.655-1.87 1.723-3.177.278zm-26.488-9.094c0-.902-.37-1.349-1.314-1.586-1.082-.271-1.313-.647-1.313-2.14 0-1.25.314-1.977 1.016-2.353 1.322-.707 13.455-.707 14.776 0 .703.376 1.016 1.102 1.016 2.354 0 1.492-.23 1.868-1.313 2.14-.942.236-1.313.683-1.313 1.585 0 1.249-.035 1.256-5.778 1.256-5.743 0-5.777-.007-5.777-1.256z" style="fill:none;fill-opacity:1;stroke:#000;stroke-width:.6;stroke-miterlimit:4;stroke-dasharray:none;stroke-opacity:.0117647" transform="translate(46.72 .024) scale(.26458)"/><path style="fill:none;fill-opacity:1;stroke:#000;stroke-width:.7;stroke-miterlimit:4;stroke-dasharray:none;stroke-opacity:.0117647" d="M-118.333 97.047c-10.556-2.247-19.1-10.474-21.514-20.715-3.348-14.202 4.81-28.73 18.587-33.103 4.754-1.51 12.13-1.51 16.884 0 16.411 5.209 24.167 24.295 16.12 39.668-2.266 4.329-7.647 9.592-11.956 11.695-3.384 1.652-10.154 3.363-12.977 3.28-.807-.023-3.122-.394-5.144-.825zm27.738-27.732c.597-.597.661-1.308.295-3.283-1.955-10.541-8.383-17.063-18.767-19.04-1.914-.365-2.452-.274-3.28.554-.928.928-.969 1.645-.651 11.367.216 6.59.55 10.517.916 10.762.318.213 5.11.39 10.651.394 8.112.007 10.222-.14 10.836-.754zM-92.107 46.4c-.543-.6-2.364-1.94-4.046-2.979-2.278-1.406-3.018-2.152-2.902-2.925.354-2.35 1.644-2.2 5.98.69 5.385 3.591 5.183 3.351 4.145 4.936-1.084 1.655-1.87 1.723-3.177.278zm-26.488-9.094c0-.902-.37-1.349-1.314-1.586-1.082-.271-1.313-.647-1.313-2.14 0-1.25.314-1.977 1.016-2.353 1.322-.707 13.455-.707 14.776 0 .703.376 1.016 1.102 1.016 2.354 0 1.492-.23 1.868-1.313 2.14-.942.236-1.313.683-1.313 1.585 0 1.249-.035 1.256-5.778 1.256-5.743 0-5.777-.007-5.777-1.256z" transform="translate(46.72 .024) scale(.26458)"/><path d="M-118.333 97.047c-10.556-2.247-19.1-10.474-21.514-20.715-3.348-14.202 4.81-28.73 18.587-33.103 4.754-1.51 12.13-1.51 16.884 0 16.411 5.209 24.167 24.295 16.12 39.668-2.266 4.329-7.647 9.592-11.956 11.695-3.384 1.652-10.154 3.363-12.977 3.28-.807-.023-3.122-.394-5.144-.825zm27.738-27.732c.597-.597.661-1.308.295-3.283-1.955-10.541-8.383-17.063-18.767-19.04-1.914-.365-2.452-.274-3.28.554-.928.928-.969 1.645-.651 11.367.216 6.59.55 10.517.916 10.762.318.213 5.11.39 10.651.394 8.112.007 10.222-.14 10.836-.754zM-92.107 46.4c-.543-.6-2.364-1.94-4.046-2.979-2.278-1.406-3.018-2.152-2.902-2.925.354-2.35 1.644-2.2 5.98.69 5.385 3.591 5.183 3.351 4.145 4.936-1.084 1.655-1.87 1.723-3.177.278zm-26.488-9.094c0-.902-.37-1.349-1.314-1.586-1.082-.271-1.313-.647-1.313-2.14 0-1.25.314-1.977 1.016-2.353 1.322-.707 13.455-.707 14.776 0 .703.376 1.016 1.102 1.016 2.354 0 1.492-.23 1.868-1.313 2.14-.942.236-1.313.683-1.313 1.585 0 1.249-.035 1.256-5.778 1.256-5.743 0-5.777-.007-5.777-1.256z" style="fill:none;fill-opacity:1;stroke:#000;stroke-width:.8;stroke-miterlimit:4;stroke-dasharray:none;stroke-opacity:.0117647" transform="translate(46.72 .024) scale(.26458)"/><path style="fill:none;fill-opacity:1;stroke:#000;stroke-width:.9;stroke-miterlimit:4;stroke-dasharray:none;stroke-opacity:.0117647" d="M-118.333 97.047c-10.556-2.247-19.1-10.474-21.514-20.715-3.348-14.202 4.81-28.73 18.587-33.103 4.754-1.51 12.13-1.51 16.884 0 16.411 5.209 24.167 24.295 16.12 39.668-2.266 4.329-7.647 9.592-11.956 11.695-3.384 1.652-10.154 3.363-12.977 3.28-.807-.023-3.122-.394-5.144-.825zm27.738-27.732c.597-.597.661-1.308.295-3.283-1.955-10.541-8.383-17.063-18.767-19.04-1.914-.365-2.452-.274-3.28.554-.928.928-.969 1.645-.651 11.367.216 6.59.55 10.517.916 10.762.318.213 5.11.39 10.651.394 8.112.007 10.222-.14 10.836-.754zM-92.107 46.4c-.543-.6-2.364-1.94-4.046-2.979-2.278-1.406-3.018-2.152-2.902-2.925.354-2.35 1.644-2.2 5.98.69 5.385 3.591 5.183 3.351 4.145 4.936-1.084 1.655-1.87 1.723-3.177.278zm-26.488-9.094c0-.902-.37-1.349-1.314-1.586-1.082-.271-1.313-.647-1.313-2.14 0-1.25.314-1.977 1.016-2.353 1.322-.707 13.455-.707 14.776 0 .703.376 1.016 1.102 1.016 2.354 0 1.492-.23 1.868-1.313 2.14-.942.236-1.313.683-1.313 1.585 0 1.249-.035 1.256-5.778 1.256-5.743 0-5.777-.007-5.777-1.256z" transform="translate(46.72 .024) scale(.26458)"/><path d="M-118.333 97.047c-10.556-2.247-19.1-10.474-21.514-20.715-3.348-14.202 4.81-28.73 18.587-33.103 4.754-1.51 12.13-1.51 16.884 0 16.411 5.209 24.167 24.295 16.12 39.668-2.266 4.329-7.647 9.592-11.956 11.695-3.384 1.652-10.154 3.363-12.977 3.28-.807-.023-3.122-.394-5.144-.825zm27.738-27.732c.597-.597.661-1.308.295-3.283-1.955-10.541-8.383-17.063-18.767-19.04-1.914-.365-2.452-.274-3.28.554-.928.928-.969 1.645-.651 11.367.216 6.59.55 10.517.916 10.762.318.213 5.11.39 10.651.394 8.112.007 10.222-.14 10.836-.754zM-92.107 46.4c-.543-.6-2.364-1.94-4.046-2.979-2.278-1.406-3.018-2.152-2.902-2.925.354-2.35 1.644-2.2 5.98.69 5.385 3.591 5.183 3.351 4.145 4.936-1.084 1.655-1.87 1.723-3.177.278zm-26.488-9.094c0-.902-.37-1.349-1.314-1.586-1.082-.271-1.313-.647-1.313-2.14 0-1.25.314-1.977 1.016-2.353 1.322-.707 13.455-.707 14.776 0 .703.376 1.016 1.102 1.016 2.354 0 1.492-.23 1.868-1.313 2.14-.942.236-1.313.683-1.313 1.585 0 1.249-.035 1.256-5.778 1.256-5.743 0-5.777-.007-5.777-1.256z" style="fill:none;fill-opacity:1;stroke:#000;stroke-width:1;stroke-miterlimit:4;stroke-dasharray:none;stroke-opacity:.0117647" transform="translate(46.72 .024) scale(.26458)"/><path style="fill:none;fill-opacity:1;stroke:#000;stroke-width:1.1;stroke-miterlimit:4;stroke-dasharray:none;stroke-opacity:.0117647" d="M-118.333 97.047c-10.556-2.247-19.1-10.474-21.514-20.715-3.348-14.202 4.81-28.73 18.587-33.103 4.754-1.51 12.13-1.51 16.884 0 16.411 5.209 24.167 24.295 16.12 39.668-2.266 4.329-7.647 9.592-11.956 11.695-3.384 1.652-10.154 3.363-12.977 3.28-.807-.023-3.122-.394-5.144-.825zm27.738-27.732c.597-.597.661-1.308.295-3.283-1.955-10.541-8.383-17.063-18.767-19.04-1.914-.365-2.452-.274-3.28.554-.928.928-.969 1.645-.651 11.367.216 6.59.55 10.517.916 10.762.318.213 5.11.39 10.651.394 8.112.007 10.222-.14 10.836-.754zM-92.107 46.4c-.543-.6-2.364-1.94-4.046-2.979-2.278-1.406-3.018-2.152-2.902-2.925.354-2.35 1.644-2.2 5.98.69 5.385 3.591 5.183 3.351 4.145 4.936-1.084 1.655-1.87 1.723-3.177.278zm-26.488-9.094c0-.902-.37-1.349-1.314-1.586-1.082-.271-1.313-.647-1.313-2.14 0-1.25.314-1.977 1.016-2.353 1.322-.707 13.455-.707 14.776 0 .703.376 1.016 1.102 1.016 2.354 0 1.492-.23 1.868-1.313 2.14-.942.236-1.313.683-1.313 1.585 0 1.249-.035 1.256-5.778 1.256-5.743 0-5.777-.007-5.777-1.256z" transform="translate(46.72 .024) scale(.26458)"/><path d="M-118.333 97.047c-10.556-2.247-19.1-10.474-21.514-20.715-3.348-14.202 4.81-28.73 18.587-33.103 4.754-1.51 12.13-1.51 16.884 0 16.411 5.209 24.167 24.295 16.12 39.668-2.266 4.329-7.647 9.592-11.956 11.695-3.384 1.652-10.154 3.363-12.977 3.28-.807-.023-3.122-.394-5.144-.825zm27.738-27.732c.597-.597.661-1.308.295-3.283-1.955-10.541-8.383-17.063-18.767-19.04-1.914-.365-2.452-.274-3.28.554-.928.928-.969 1.645-.651 11.367.216 6.59.55 10.517.916 10.762.318.213 5.11.39 10.651.394 8.112.007 10.222-.14 10.836-.754zM-92.107 46.4c-.543-.6-2.364-1.94-4.046-2.979-2.278-1.406-3.018-2.152-2.902-2.925.354-2.35 1.644-2.2 5.98.69 5.385 3.591 5.183 3.351 4.145 4.936-1.084 1.655-1.87 1.723-3.177.278zm-26.488-9.094c0-.902-.37-1.349-1.314-1.586-1.082-.271-1.313-.647-1.313-2.14 0-1.25.314-1.977 1.016-2.353 1.322-.707 13.455-.707 14.776 0 .703.376 1.016 1.102 1.016 2.354 0 1.492-.23 1.868-1.313 2.14-.942.236-1.313.683-1.313 1.585 0 1.249-.035 1.256-5.778 1.256-5.743 0-5.777-.007-5.777-1.256z" style="fill:none;fill-opacity:1;stroke:#000;stroke-width:1.2;stroke-miterlimit:4;stroke-dasharray:none;stroke-opacity:.0117647" transform="translate(46.72 .024) scale(.26458)"/><path style="fill:none;fill-opacity:1;stroke:#000;stroke-width:1.4;stroke-miterlimit:4;stroke-dasharray:none;stroke-opacity:.0117647" d="M-118.333 97.047c-10.556-2.247-19.1-10.474-21.514-20.715-3.348-14.202 4.81-28.73 18.587-33.103 4.754-1.51 12.13-1.51 16.884 0 16.411 5.209 24.167 24.295 16.12 39.668-2.266 4.329-7.647 9.592-11.956 11.695-3.384 1.652-10.154 3.363-12.977 3.28-.807-.023-3.122-.394-5.144-.825zm27.738-27.732c.597-.597.661-1.308.295-3.283-1.955-10.541-8.383-17.063-18.767-19.04-1.914-.365-2.452-.274-3.28.554-.928.928-.969 1.645-.651 11.367.216 6.59.55 10.517.916 10.762.318.213 5.11.39 10.651.394 8.112.007 10.222-.14 10.836-.754zM-92.107 46.4c-.543-.6-2.364-1.94-4.046-2.979-2.278-1.406-3.018-2.152-2.902-2.925.354-2.35 1.644-2.2 5.98.69 5.385 3.591 5.183 3.351 4.145 4.936-1.084 1.655-1.87 1.723-3.177.278zm-26.488-9.094c0-.902-.37-1.349-1.314-1.586-1.082-.271-1.313-.647-1.313-2.14 0-1.25.314-1.977 1.016-2.353 1.322-.707 13.455-.707 14.776 0 .703.376 1.016 1.102 1.016 2.354 0 1.492-.23 1.868-1.313 2.14-.942.236-1.313.683-1.313 1.585 0 1.249-.035 1.256-5.778 1.256-5.743 0-5.777-.007-5.777-1.256z" transform="translate(46.72 .024) scale(.26458)"/><path d="M-118.333 97.047c-10.556-2.247-19.1-10.474-21.514-20.715-3.348-14.202 4.81-28.73 18.587-33.103 4.754-1.51 12.13-1.51 16.884 0 16.411 5.209 24.167 24.295 16.12 39.668-2.266 4.329-7.647 9.592-11.956 11.695-3.384 1.652-10.154 3.363-12.977 3.28-.807-.023-3.122-.394-5.144-.825zm27.738-27.732c.597-.597.661-1.308.295-3.283-1.955-10.541-8.383-17.063-18.767-19.04-1.914-.365-2.452-.274-3.28.554-.928.928-.969 1.645-.651 11.367.216 6.59.55 10.517.916 10.762.318.213 5.11.39 10.651.394 8.112.007 10.222-.14 10.836-.754zM-92.107 46.4c-.543-.6-2.364-1.94-4.046-2.979-2.278-1.406-3.018-2.152-2.902-2.925.354-2.35 1.644-2.2 5.98.69 5.385 3.591 5.183 3.351 4.145 4.936-1.084 1.655-1.87 1.723-3.177.278zm-26.488-9.094c0-.902-.37-1.349-1.314-1.586-1.082-.271-1.313-.647-1.313-2.14 0-1.25.314-1.977 1.016-2.353 1.322-.707 13.455-.707 14.776 0 .703.376 1.016 1.102 1.016 2.354 0 1.492-.23 1.868-1.313 2.14-.942.236-1.313.683-1.313 1.585 0 1.249-.035 1.256-5.778 1.256-5.743 0-5.777-.007-5.777-1.256z" style="fill:none;fill-opacity:1;stroke:#000;stroke-width:1.6;stroke-miterlimit:4;stroke-dasharray:none;stroke-opacity:.0117647" transform="translate(46.72 .024) scale(.26458)"/><path style="fill:none;fill-opacity:1;stroke:#000;stroke-width:1.8;stroke-miterlimit:4;stroke-dasharray:none;stroke-opacity:.0117647" d="M-118.333 97.047c-10.556-2.247-19.1-10.474-21.514-20.715-3.348-14.202 4.81-28.73 18.587-33.103 4.754-1.51 12.13-1.51 16.884 0 16.411 5.209 24.167 24.295 16.12 39.668-2.266 4.329-7.647 9.592-11.956 11.695-3.384 1.652-10.154 3.363-12.977 3.28-.807-.023-3.122-.394-5.144-.825zm27.738-27.732c.597-.597.661-1.308.295-3.283-1.955-10.541-8.383-17.063-18.767-19.04-1.914-.365-2.452-.274-3.28.554-.928.928-.969 1.645-.651 11.367.216 6.59.55 10.517.916 10.762.318.213 5.11.39 10.651.394 8.112.007 10.222-.14 10.836-.754zM-92.107 46.4c-.543-.6-2.364-1.94-4.046-2.979-2.278-1.406-3.018-2.152-2.902-2.925.354-2.35 1.644-2.2 5.98.69 5.385 3.591 5.183 3.351 4.145 4.936-1.084 1.655-1.87 1.723-3.177.278zm-26.488-9.094c0-.902-.37-1.349-1.314-1.586-1.082-.271-1.313-.647-1.313-2.14 0-1.25.314-1.977 1.016-2.353 1.322-.707 13.455-.707 14.776 0 .703.376 1.016 1.102 1.016 2.354 0 1.492-.23 1.868-1.313 2.14-.942.236-1.313.683-1.313 1.585 0 1.249-.035 1.256-5.778 1.256-5.743 0-5.777-.007-5.777-1.256z" transform="translate(46.72 .024) scale(.26458)"/><path d="M-118.333 97.047c-10.556-2.247-19.1-10.474-21.514-20.715-3.348-14.202 4.81-28.73 18.587-33.103 4.754-1.51 12.13-1.51 16.884 0 16.411 5.209 24.167 24.295 16.12 39.668-2.266 4.329-7.647 9.592-11.956 11.695-3.384 1.652-10.154 3.363-12.977 3.28-.807-.023-3.122-.394-5.144-.825zm27.738-27.732c.597-.597.661-1.308.295-3.283-1.955-10.541-8.383-17.063-18.767-19.04-1.914-.365-2.452-.274-3.28.554-.928.928-.969 1.645-.651 11.367.216 6.59.55 10.517.916 10.762.318.213 5.11.39 10.651.394 8.112.007 10.222-.14 10.836-.754zM-92.107 46.4c-.543-.6-2.364-1.94-4.046-2.979-2.278-1.406-3.018-2.152-2.902-2.925.354-2.35 1.644-2.2 5.98.69 5.385 3.591 5.183 3.351 4.145 4.936-1.084 1.655-1.87 1.723-3.177.278zm-26.488-9.094c0-.902-.37-1.349-1.314-1.586-1.082-.271-1.313-.647-1.313-2.14 0-1.25.314-1.977 1.016-2.353 1.322-.707 13.455-.707 14.776 0 .703.376 1.016 1.102 1.016 2.354 0 1.492-.23 1.868-1.313 2.14-.942.236-1.313.683-1.313 1.585 0 1.249-.035 1.256-5.778 1.256-5.743 0-5.777-.007-5.777-1.256z" style="fill:none;fill-opacity:1;stroke:#000;stroke-width:2;stroke-miterlimit:4;stroke-dasharray:none;stroke-opacity:.0117647" transform="translate(46.72 .024) scale(.26458)"/><path style="fill:none;fill-opacity:1;stroke:#000;stroke-width:2.2;stroke-miterlimit:4;stroke-dasharray:none;stroke-opacity:.0117647" d="M-118.333 97.047c-10.556-2.247-19.1-10.474-21.514-20.715-3.348-14.202 4.81-28.73 18.587-33.103 4.754-1.51 12.13-1.51 16.884 0 16.411 5.209 24.167 24.295 16.12 39.668-2.266 4.329-7.647 9.592-11.956 11.695-3.384 1.652-10.154 3.363-12.977 3.28-.807-.023-3.122-.394-5.144-.825zm27.738-27.732c.597-.597.661-1.308.295-3.283-1.955-10.541-8.383-17.063-18.767-19.04-1.914-.365-2.452-.274-3.28.554-.928.928-.969 1.645-.651 11.367.216 6.59.55 10.517.916 10.762.318.213 5.11.39 10.651.394 8.112.007 10.222-.14 10.836-.754zM-92.107 46.4c-.543-.6-2.364-1.94-4.046-2.979-2.278-1.406-3.018-2.152-2.902-2.925.354-2.35 1.644-2.2 5.98.69 5.385 3.591 5.183 3.351 4.145 4.936-1.084 1.655-1.87 1.723-3.177.278zm-26.488-9.094c0-.902-.37-1.349-1.314-1.586-1.082-.271-1.313-.647-1.313-2.14 0-1.25.314-1.977 1.016-2.353 1.322-.707 13.455-.707 14.776 0 .703.376 1.016 1.102 1.016 2.354 0 1.492-.23 1.868-1.313 2.14-.942.236-1.313.683-1.313 1.585 0 1.249-.035 1.256-5.778 1.256-5.743 0-5.777-.007-5.777-1.256z" transform="translate(46.72 .024) scale(.26458)"/><path d="M-118.333 97.047c-10.556-2.247-19.1-10.474-21.514-20.715-3.348-14.202 4.81-28.73 18.587-33.103 4.754-1.51 12.13-1.51 16.884 0 16.411 5.209 24.167 24.295 16.12 39.668-2.266 4.329-7.647 9.592-11.956 11.695-3.384 1.652-10.154 3.363-12.977 3.28-.807-.023-3.122-.394-5.144-.825zm27.738-27.732c.597-.597.661-1.308.295-3.283-1.955-10.541-8.383-17.063-18.767-19.04-1.914-.365-2.452-.274-3.28.554-.928.928-.969 1.645-.651 11.367.216 6.59.55 10.517.916 10.762.318.213 5.11.39 10.651.394 8.112.007 10.222-.14 10.836-.754zM-92.107 46.4c-.543-.6-2.364-1.94-4.046-2.979-2.278-1.406-3.018-2.152-2.902-2.925.354-2.35 1.644-2.2 5.98.69 5.385 3.591 5.183 3.351 4.145 4.936-1.084 1.655-1.87 1.723-3.177.278zm-26.488-9.094c0-.902-.37-1.349-1.314-1.586-1.082-.271-1.313-.647-1.313-2.14 0-1.25.314-1.977 1.016-2.353 1.322-.707 13.455-.707 14.776 0 .703.376 1.016 1.102 1.016 2.354 0 1.492-.23 1.868-1.313 2.14-.942.236-1.313.683-1.313 1.585 0 1.249-.035 1.256-5.778 1.256-5.743 0-5.777-.007-5.777-1.256z" style="fill:none;fill-opacity:1;stroke:#000;stroke-width:2.4;stroke-miterlimit:4;stroke-dasharray:none;stroke-opacity:.0117647" transform="translate(46.72 .024) scale(.26458)"/><path style="fill:none;fill-opacity:1;stroke:#000;stroke-width:2.6;stroke-miterlimit:4;stroke-dasharray:none;stroke-opacity:.0117647" d="M-118.333 97.047c-10.556-2.247-19.1-10.474-21.514-20.715-3.348-14.202 4.81-28.73 18.587-33.103 4.754-1.51 12.13-1.51 16.884 0 16.411 5.209 24.167 24.295 16.12 39.668-2.266 4.329-7.647 9.592-11.956 11.695-3.384 1.652-10.154 3.363-12.977 3.28-.807-.023-3.122-.394-5.144-.825zm27.738-27.732c.597-.597.661-1.308.295-3.283-1.955-10.541-8.383-17.063-18.767-19.04-1.914-.365-2.452-.274-3.28.554-.928.928-.969 1.645-.651 11.367.216 6.59.55 10.517.916 10.762.318.213 5.11.39 10.651.394 8.112.007 10.222-.14 10.836-.754zM-92.107 46.4c-.543-.6-2.364-1.94-4.046-2.979-2.278-1.406-3.018-2.152-2.902-2.925.354-2.35 1.644-2.2 5.98.69 5.385 3.591 5.183 3.351 4.145 4.936-1.084 1.655-1.87 1.723-3.177.278zm-26.488-9.094c0-.902-.37-1.349-1.314-1.586-1.082-.271-1.313-.647-1.313-2.14 0-1.25.314-1.977 1.016-2.353 1.322-.707 13.455-.707 14.776 0 .703.376 1.016 1.102 1.016 2.354 0 1.492-.23 1.868-1.313 2.14-.942.236-1.313.683-1.313 1.585 0 1.249-.035 1.256-5.778 1.256-5.743 0-5.777-.007-5.777-1.256z" transform="translate(46.72 .024) scale(.26458)"/><path d="M-118.333 97.047c-10.556-2.247-19.1-10.474-21.514-20.715-3.348-14.202 4.81-28.73 18.587-33.103 4.754-1.51 12.13-1.51 16.884 0 16.411 5.209 24.167 24.295 16.12 39.668-2.266 4.329-7.647 9.592-11.956 11.695-3.384 1.652-10.154 3.363-12.977 3.28-.807-.023-3.122-.394-5.144-.825zm27.738-27.732c.597-.597.661-1.308.295-3.283-1.955-10.541-8.383-17.063-18.767-19.04-1.914-.365-2.452-.274-3.28.554-.928.928-.969 1.645-.651 11.367.216 6.59.55 10.517.916 10.762.318.213 5.11.39 10.651.394 8.112.007 10.222-.14 10.836-.754zM-92.107 46.4c-.543-.6-2.364-1.94-4.046-2.979-2.278-1.406-3.018-2.152-2.902-2.925.354-2.35 1.644-2.2 5.98.69 5.385 3.591 5.183 3.351 4.145 4.936-1.084 1.655-1.87 1.723-3.177.278zm-26.488-9.094c0-.902-.37-1.349-1.314-1.586-1.082-.271-1.313-.647-1.313-2.14 0-1.25.314-1.977 1.016-2.353 1.322-.707 13.455-.707 14.776 0 .703.376 1.016 1.102 1.016 2.354 0 1.492-.23 1.868-1.313 2.14-.942.236-1.313.683-1.313 1.585 0 1.249-.035 1.256-5.778 1.256-5.743 0-5.777-.007-5.777-1.256z" style="fill:none;fill-opacity:1;stroke:#000;stroke-width:3;stroke-miterlimit:4;stroke-dasharray:none;stroke-opacity:.0117647" transform="translate(46.72 .024) scale(.26458)"/><path style="fill:none;fill-opacity:1;stroke:#000;stroke-width:3.4;stroke-miterlimit:4;stroke-dasharray:none;stroke-opacity:.0117647" d="M-118.333 97.047c-10.556-2.247-19.1-10.474-21.514-20.715-3.348-14.202 4.81-28.73 18.587-33.103 4.754-1.51 12.13-1.51 16.884 0 16.411 5.209 24.167 24.295 16.12 39.668-2.266 4.329-7.647 9.592-11.956 11.695-3.384 1.652-10.154 3.363-12.977 3.28-.807-.023-3.122-.394-5.144-.825zm27.738-27.732c.597-.597.661-1.308.295-3.283-1.955-10.541-8.383-17.063-18.767-19.04-1.914-.365-2.452-.274-3.28.554-.928.928-.969 1.645-.651 11.367.216 6.59.55 10.517.916 10.762.318.213 5.11.39 10.651.394 8.112.007 10.222-.14 10.836-.754zM-92.107 46.4c-.543-.6-2.364-1.94-4.046-2.979-2.278-1.406-3.018-2.152-2.902-2.925.354-2.35 1.644-2.2 5.98.69 5.385 3.591 5.183 3.351 4.145 4.936-1.084 1.655-1.87 1.723-3.177.278zm-26.488-9.094c0-.902-.37-1.349-1.314-1.586-1.082-.271-1.313-.647-1.313-2.14 0-1.25.314-1.977 1.016-2.353 1.322-.707 13.455-.707 14.776 0 .703.376 1.016 1.102 1.016 2.354 0 1.492-.23 1.868-1.313 2.14-.942.236-1.313.683-1.313 1.585 0 1.249-.035 1.256-5.778 1.256-5.743 0-5.777-.007-5.777-1.256z" transform="translate(46.72 .024) scale(.26458)"/><path d="M-118.333 97.047c-10.556-2.247-19.1-10.474-21.514-20.715-3.348-14.202 4.81-28.73 18.587-33.103 4.754-1.51 12.13-1.51 16.884 0 16.411 5.209 24.167 24.295 16.12 39.668-2.266 4.329-7.647 9.592-11.956 11.695-3.384 1.652-10.154 3.363-12.977 3.28-.807-.023-3.122-.394-5.144-.825zm27.738-27.732c.597-.597.661-1.308.295-3.283-1.955-10.541-8.383-17.063-18.767-19.04-1.914-.365-2.452-.274-3.28.554-.928.928-.969 1.645-.651 11.367.216 6.59.55 10.517.916 10.762.318.213 5.11.39 10.651.394 8.112.007 10.222-.14 10.836-.754zM-92.107 46.4c-.543-.6-2.364-1.94-4.046-2.979-2.278-1.406-3.018-2.152-2.902-2.925.354-2.35 1.644-2.2 5.98.69 5.385 3.591 5.183 3.351 4.145 4.936-1.084 1.655-1.87 1.723-3.177.278zm-26.488-9.094c0-.902-.37-1.349-1.314-1.586-1.082-.271-1.313-.647-1.313-2.14 0-1.25.314-1.977 1.016-2.353 1.322-.707 13.455-.707 14.776 0 .703.376 1.016 1.102 1.016 2.354 0 1.492-.23 1.868-1.313 2.14-.942.236-1.313.683-1.313 1.585 0 1.249-.035 1.256-5.778 1.256-5.743 0-5.777-.007-5.777-1.256z" style="fill:none;fill-opacity:1;stroke:#000;stroke-width:3.8;stroke-miterlimit:4;stroke-dasharray:none;stroke-opacity:.0117647" transform="translate(46.72 .024) scale(.26458)"/><path style="fill:none;fill-opacity:1;stroke:#000;stroke-width:4.2;stroke-miterlimit:4;stroke-dasharray:none;stroke-opacity:.0117647" d="M-118.333 97.047c-10.556-2.247-19.1-10.474-21.514-20.715-3.348-14.202 4.81-28.73 18.587-33.103 4.754-1.51 12.13-1.51 16.884 0 16.411 5.209 24.167 24.295 16.12 39.668-2.266 4.329-7.647 9.592-11.956 11.695-3.384 1.652-10.154 3.363-12.977 3.28-.807-.023-3.122-.394-5.144-.825zm27.738-27.732c.597-.597.661-1.308.295-3.283-1.955-10.541-8.383-17.063-18.767-19.04-1.914-.365-2.452-.274-3.28.554-.928.928-.969 1.645-.651 11.367.216 6.59.55 10.517.916 10.762.318.213 5.11.39 10.651.394 8.112.007 10.222-.14 10.836-.754zM-92.107 46.4c-.543-.6-2.364-1.94-4.046-2.979-2.278-1.406-3.018-2.152-2.902-2.925.354-2.35 1.644-2.2 5.98.69 5.385 3.591 5.183 3.351 4.145 4.936-1.084 1.655-1.87 1.723-3.177.278zm-26.488-9.094c0-.902-.37-1.349-1.314-1.586-1.082-.271-1.313-.647-1.313-2.14 0-1.25.314-1.977 1.016-2.353 1.322-.707 13.455-.707 14.776 0 .703.376 1.016 1.102 1.016 2.354 0 1.492-.23 1.868-1.313 2.14-.942.236-1.313.683-1.313 1.585 0 1.249-.035 1.256-5.778 1.256-5.743 0-5.777-.007-5.777-1.256z" transform="translate(46.72 .024) scale(.26458)"/><path d="M-118.333 97.047c-10.556-2.247-19.1-10.474-21.514-20.715-3.348-14.202 4.81-28.73 18.587-33.103 4.754-1.51 12.13-1.51 16.884 0 16.411 5.209 24.167 24.295 16.12 39.668-2.266 4.329-7.647 9.592-11.956 11.695-3.384 1.652-10.154 3.363-12.977 3.28-.807-.023-3.122-.394-5.144-.825zm27.738-27.732c.597-.597.661-1.308.295-3.283-1.955-10.541-8.383-17.063-18.767-19.04-1.914-.365-2.452-.274-3.28.554-.928.928-.969 1.645-.651 11.367.216 6.59.55 10.517.916 10.762.318.213 5.11.39 10.651.394 8.112.007 10.222-.14 10.836-.754zM-92.107 46.4c-.543-.6-2.364-1.94-4.046-2.979-2.278-1.406-3.018-2.152-2.902-2.925.354-2.35 1.644-2.2 5.98.69 5.385 3.591 5.183 3.351 4.145 4.936-1.084 1.655-1.87 1.723-3.177.278zm-26.488-9.094c0-.902-.37-1.349-1.314-1.586-1.082-.271-1.313-.647-1.313-2.14 0-1.25.314-1.977 1.016-2.353 1.322-.707 13.455-.707 14.776 0 .703.376 1.016 1.102 1.016 2.354 0 1.492-.23 1.868-1.313 2.14-.942.236-1.313.683-1.313 1.585 0 1.249-.035 1.256-5.778 1.256-5.743 0-5.777-.007-5.777-1.256z" style="fill:none;fill-opacity:1;stroke:#000;stroke-width:5;stroke-miterlimit:4;stroke-dasharray:none;stroke-opacity:.0117647" transform="translate(46.72 .024) scale(.26458)"/></g><path style="fill:url(#d);fill-opacity:1;stroke-width:.138973" d="M15.624 27.81c-2.793-.595-5.053-2.772-5.692-5.482-.886-3.757 1.273-7.601 4.918-8.758 1.258-.4 3.21-.4 4.467 0 4.342 1.378 6.394 6.428 4.265 10.495-.6 1.146-2.023 2.538-3.163 3.095-.895.437-2.687.89-3.434.868-.213-.007-.826-.105-1.36-.219zm7.34-7.338c.157-.158.174-.347.077-.869-.517-2.789-2.217-4.515-4.965-5.038-.506-.096-.649-.072-.868.147-.245.246-.256.435-.172 3.007.057 1.744.145 2.783.242 2.848.084.056 1.352.103 2.818.104 2.147.002 2.705-.037 2.867-.2zm-.4-6.063c-.145-.159-.626-.514-1.071-.788-.603-.372-.799-.57-.768-.774.094-.622.435-.583 1.582.182 1.425.95 1.372.887 1.097 1.306-.287.438-.495.456-.84.074zm-7.01-2.406c0-.239-.097-.357-.347-.42-.286-.072-.347-.171-.347-.566 0-.331.083-.523.269-.623.35-.187 3.56-.187 3.91 0 .185.1.268.292.268.623 0 .395-.06.494-.347.566-.25.063-.348.181-.348.42 0 .33-.009.332-1.528.332-1.52 0-1.53-.002-1.53-.332z" transform="translate(-.214 -2.108)"/></svg>