<?xml version="1.0" encoding="UTF-8"?>
<svg id="svg1443" width="128" height="128" version="1.1" viewBox="0 0 33.867 33.867" xmlns="http://www.w3.org/2000/svg" xmlns:cc="http://creativecommons.org/ns#" xmlns:dc="http://purl.org/dc/elements/1.1/" xmlns:rdf="http://www.w3.org/1999/02/22-rdf-syntax-ns#" xmlns:xlink="http://www.w3.org/1999/xlink">
 <defs id="defs1437">
  <linearGradient id="linearGradient1632" x1="143.32" x2="132.21" y1="45.121" y2="64.966" gradientTransform="matrix(.97573 0 0 .97573 -111.77 -37.183)" gradientUnits="userSpaceOnUse">
   <stop id="stop1626" stop-color="#d0d4d5" offset="0"/>
   <stop id="stop1628" stop-color="#f6f8f8" offset="1"/>
  </linearGradient>
  <linearGradient id="linearGradient2620" x1="18.695" x2="22.633" y1="18.97" y2="27.913" gradientTransform="scale(3.7795)" gradientUnits="userSpaceOnUse">
   <stop id="stop2047" stop-color="#a5a5a5" offset="0"/>
   <stop id="stop2140" stop-color="#cbcbcb" stop-opacity=".99608" offset=".42667"/>
   <stop id="stop2049" stop-color="#9e9e9e" stop-opacity=".99296" offset="1"/>
  </linearGradient>
  <linearGradient id="linearGradient2869" x1="17.956" x2="17.956" y1="17.089" y2="2.8376" gradientUnits="userSpaceOnUse">
   <stop id="stop2863" stop-color="#f70" offset="0"/>
   <stop id="stop2865" stop-color="#ffb000" offset="1"/>
  </linearGradient>
  <linearGradient id="linearGradient878" x1="23.706" x2="23.706" y1="71.492" y2="10.502" gradientUnits="userSpaceOnUse">
   <stop id="stop872" offset="0"/>
   <stop id="stop874" stop-opacity="0" offset="1"/>
  </linearGradient>
 </defs>
 <metadata id="metadata1440">
  <rdf:RDF>
   <cc:Work rdf:about="">
    <dc:format>image/svg+xml</dc:format>
    <dc:type rdf:resource="http://purl.org/dc/dcmitype/StillImage"/>
   </cc:Work>
  </rdf:RDF>
 </metadata>
 <g id="layer1">
  <g id="g1702" transform="matrix(.97573 0 0 .97573 -65.737 -37.183)" fill="none" opacity=".295" stroke="#000" stroke-linecap="round" stroke-linejoin="round" stroke-opacity=".02">
   <rect id="rect1634" x="69.84" y="40.71" width="29.811" height="29.811" rx="6.6099" ry="6.6099" stroke-width=".1"/>
   <rect id="rect1638" x="69.84" y="40.71" width="29.811" height="29.811" rx="6.6099" ry="6.6099" stroke-width=".2"/>
   <rect id="rect1640" x="69.84" y="40.71" width="29.811" height="29.811" rx="6.6099" ry="6.6099" stroke-width=".3"/>
   <rect id="rect1642" x="69.84" y="40.71" width="29.811" height="29.811" rx="6.6099" ry="6.6099" stroke-width=".4"/>
   <rect id="rect1644" x="69.84" y="40.71" width="29.811" height="29.811" rx="6.6099" ry="6.6099" stroke-width=".5"/>
   <rect id="rect1646" x="69.84" y="40.71" width="29.811" height="29.811" rx="6.6099" ry="6.6099" stroke-width=".6"/>
   <rect id="rect1648" x="69.84" y="40.71" width="29.811" height="29.811" rx="6.6099" ry="6.6099" stroke-width=".7"/>
   <rect id="rect1650" x="69.84" y="40.71" width="29.811" height="29.811" rx="6.6099" ry="6.6099" stroke-width=".8"/>
   <rect id="rect1652" x="69.84" y="40.71" width="29.811" height="29.811" rx="6.6099" ry="6.6099"/>
   <rect id="rect1654" x="69.84" y="40.71" width="29.811" height="29.811" rx="6.6099" ry="6.6099" stroke-width="1.2"/>
   <rect id="rect1656" x="69.84" y="40.71" width="29.811" height="29.811" rx="6.6099" ry="6.6099" stroke-width="1.4"/>
   <rect id="rect1658" x="69.84" y="40.71" width="29.811" height="29.811" rx="6.6099" ry="6.6099" stroke-width="1.6"/>
   <rect id="rect1660" x="69.84" y="40.71" width="29.811" height="29.811" rx="6.6099" ry="6.6099" stroke-width="1.8"/>
   <rect id="rect1662" x="69.84" y="40.71" width="29.811" height="29.811" rx="6.6099" ry="6.6099" stroke-width="2"/>
   <rect id="rect1664" x="69.84" y="40.71" width="29.811" height="29.811" rx="6.6099" ry="6.6099" stroke-width="2.2"/>
   <rect id="rect1666" x="69.84" y="40.71" width="29.811" height="29.811" rx="6.6099" ry="6.6099" stroke-width="2.6"/>
   <rect id="rect1668" x="69.84" y="40.71" width="29.811" height="29.811" rx="6.6099" ry="6.6099" stroke-width="3"/>
   <rect id="rect1670" x="69.84" y="40.71" width="29.811" height="29.811" rx="6.6099" ry="6.6099" stroke-width="3.4"/>
   <rect id="rect1672" x="69.84" y="40.71" width="29.811" height="29.811" rx="6.6099" ry="6.6099" stroke-width="3.8"/>
   <rect id="rect1674" x="69.84" y="40.71" width="29.811" height="29.811" rx="6.6099" ry="6.6099" stroke-width="4.2"/>
   <rect id="rect1676" x="69.84" y="40.71" width="29.811" height="29.811" rx="6.6099" ry="6.6099" stroke-width="4.6"/>
   <rect id="rect1678" x="69.84" y="40.71" width="29.811" height="29.811" rx="6.6099" ry="6.6099" stroke-width="5"/>
  </g>
  <rect id="rect849" x="2.4074" y="2.5392" width="29.087" height="29.087" rx="6.4495" ry="6.4495" fill="url(#linearGradient1632)" stroke-linecap="round" stroke-linejoin="round" stroke-width="2.6877"/>
  <path id="rect1085" d="m10.483 3.7095c-0.89509 0-1.6154 0.72032-1.6154 1.6154v5.5201c0 0.89509 0.72032 1.6159 1.6154 1.6159 0.89509 0 1.6159-0.72083 1.6159-1.6159v-5.5201c0-0.89509-0.72083-1.6154-1.6159-1.6154zm6.4683 0c-0.89509 0-1.6154 0.72032-1.6154 1.6154v5.5201c0 0.89509 0.72032 1.6159 1.6154 1.6159s1.6159-0.72083 1.6159-1.6159v-5.5201c0-0.89509-0.72083-1.6154-1.6159-1.6154zm6.4683 0c-0.89509 0-1.6154 0.72032-1.6154 1.6154v5.5201c0 0.89509 0.72032 1.6159 1.6154 1.6159 0.89509 0 1.6159-0.72083 1.6159-1.6159v-5.5201c0-0.89509-0.72083-1.6154-1.6159-1.6154z" fill="url(#linearGradient2869)"/>
  <path id="rect1807" d="m31.495 17.083v8.0943c0 3.573-2.8765 6.4495-6.4495 6.4495h-16.189c-3.573 0-6.4495-2.8765-6.4495-6.4495v-8.0943z" fill="url(#linearGradient878)" stroke-linecap="round" stroke-linejoin="round" stroke-width="2.6877"/>
  <circle id="path1965" cx="16.951" cy="24.355" r="5.3572" fill="#ededed" fill-opacity=".99608"/>
  <path id="circle2618" transform="scale(.26458)" d="m64.066 71.803a20.248 20.248 0 0 0-11.35 3.4844 20.248 20.248 0 0 1 7.709-1.5371 20.248 20.248 0 0 1 20.248 20.248 20.248 20.248 0 0 1-8.8926 16.76 20.248 20.248 0 0 0 12.533-18.709 20.248 20.248 0 0 0-20.248-20.246z" fill="url(#linearGradient2620)"/>
  <path id="circle2767" transform="scale(.26458)" d="m53.068 74.803a20.248 20.248 0 0 0-10.621 17.797 20.248 20.248 0 0 0 20.248 20.248 20.248 20.248 0 0 0 10.936-3.2207 20.248 20.248 0 0 1-9.6387 2.4551 20.248 20.248 0 0 1-20.246-20.248 20.248 20.248 0 0 1 9.3223-17.031z" fill="#fff" fill-opacity=".99608"/>
  <rect id="rect997" x="2.4074" y="17.083" width="29.085" height=".47252" rx="0" ry="0" fill="#fff" fill-opacity=".87883"/>
 </g>
</svg>
