<?xml version="1.0" encoding="UTF-8"?>
<svg id="svg1443" width="128" height="128" version="1.1" viewBox="0 0 33.867 33.867" xmlns="http://www.w3.org/2000/svg" xmlns:cc="http://creativecommons.org/ns#" xmlns:dc="http://purl.org/dc/elements/1.1/" xmlns:rdf="http://www.w3.org/1999/02/22-rdf-syntax-ns#" xmlns:xlink="http://www.w3.org/1999/xlink">
 <defs id="defs1437">
  <linearGradient id="linearGradient1632" x1="132.21" x2="132.21" y1="42.152" y2="70.68" gradientTransform="matrix(.97573 0 0 .97573 -111.77 -37.183)" gradientUnits="userSpaceOnUse">
   <stop id="stop1626" stop-color="#fafafc" offset="0"/>
   <stop id="stop1628" stop-color="#e2e6ea" offset="1"/>
  </linearGradient>
 </defs>
 <metadata id="metadata1440">
  <rdf:RDF>
   <cc:Work rdf:about="">
    <dc:format>image/svg+xml</dc:format>
    <dc:type rdf:resource="http://purl.org/dc/dcmitype/StillImage"/>
   </cc:Work>
  </rdf:RDF>
 </metadata>
 <g id="layer1">
  <g id="g1702" transform="matrix(.97573 0 0 .97573 -65.737 -37.183)" fill="none" opacity=".295" stroke="#000" stroke-linecap="round" stroke-linejoin="round" stroke-opacity=".02">
   <rect id="rect1634" x="69.84" y="40.71" width="29.811" height="29.811" rx="6.6099" ry="6.6099" stroke-width=".1"/>
   <rect id="rect1638" x="69.84" y="40.71" width="29.811" height="29.811" rx="6.6099" ry="6.6099" stroke-width=".2"/>
   <rect id="rect1640" x="69.84" y="40.71" width="29.811" height="29.811" rx="6.6099" ry="6.6099" stroke-width=".3"/>
   <rect id="rect1642" x="69.84" y="40.71" width="29.811" height="29.811" rx="6.6099" ry="6.6099" stroke-width=".4"/>
   <rect id="rect1644" x="69.84" y="40.71" width="29.811" height="29.811" rx="6.6099" ry="6.6099" stroke-width=".5"/>
   <rect id="rect1646" x="69.84" y="40.71" width="29.811" height="29.811" rx="6.6099" ry="6.6099" stroke-width=".6"/>
   <rect id="rect1648" x="69.84" y="40.71" width="29.811" height="29.811" rx="6.6099" ry="6.6099" stroke-width=".7"/>
   <rect id="rect1650" x="69.84" y="40.71" width="29.811" height="29.811" rx="6.6099" ry="6.6099" stroke-width=".8"/>
   <rect id="rect1652" x="69.84" y="40.71" width="29.811" height="29.811" rx="6.6099" ry="6.6099"/>
   <rect id="rect1654" x="69.84" y="40.71" width="29.811" height="29.811" rx="6.6099" ry="6.6099" stroke-width="1.2"/>
   <rect id="rect1656" x="69.84" y="40.71" width="29.811" height="29.811" rx="6.6099" ry="6.6099" stroke-width="1.4"/>
   <rect id="rect1658" x="69.84" y="40.71" width="29.811" height="29.811" rx="6.6099" ry="6.6099" stroke-width="1.6"/>
   <rect id="rect1660" x="69.84" y="40.71" width="29.811" height="29.811" rx="6.6099" ry="6.6099" stroke-width="1.8"/>
   <rect id="rect1662" x="69.84" y="40.71" width="29.811" height="29.811" rx="6.6099" ry="6.6099" stroke-width="2"/>
   <rect id="rect1664" x="69.84" y="40.71" width="29.811" height="29.811" rx="6.6099" ry="6.6099" stroke-width="2.2"/>
   <rect id="rect1666" x="69.84" y="40.71" width="29.811" height="29.811" rx="6.6099" ry="6.6099" stroke-width="2.6"/>
   <rect id="rect1668" x="69.84" y="40.71" width="29.811" height="29.811" rx="6.6099" ry="6.6099" stroke-width="3"/>
   <rect id="rect1670" x="69.84" y="40.71" width="29.811" height="29.811" rx="6.6099" ry="6.6099" stroke-width="3.4"/>
   <rect id="rect1672" x="69.84" y="40.71" width="29.811" height="29.811" rx="6.6099" ry="6.6099" stroke-width="3.8"/>
   <rect id="rect1674" x="69.84" y="40.71" width="29.811" height="29.811" rx="6.6099" ry="6.6099" stroke-width="4.2"/>
   <rect id="rect1676" x="69.84" y="40.71" width="29.811" height="29.811" rx="6.6099" ry="6.6099" stroke-width="4.6"/>
   <rect id="rect1678" x="69.84" y="40.71" width="29.811" height="29.811" rx="6.6099" ry="6.6099" stroke-width="5"/>
  </g>
  <rect id="rect849" x="2.4074" y="2.5392" width="29.087" height="29.087" rx="6.4495" ry="6.4495" fill="url(#linearGradient1632)" stroke-linecap="round" stroke-linejoin="round" stroke-width="2.6877"/>
  <path id="path6" d="m20.428 6.774c-0.06874-0.00138-0.13677 0.0035-0.20484 0.01399-0.81677 0.1261-1.4473 1.1127-2.5424 3.1318l-1.1879 2.1899 3.6881 4.5436 0.19781 0.1968h6.3951c-0.7174-1.6014-3.7172-7.6888-4.2966-8.6032-0.30982-0.48898-0.9455-1.0755-1.4138-1.3043-0.21907-0.10706-0.42934-0.16456-0.6356-0.1687zm-7.3741 4.4221c-0.04747-0.0018-0.0953 9.77e-4 -0.14359 8e-3 -0.38621 0.0566-0.81376 0.39067-1.5503 0.92076-1.4508 1.2211-2.9363 3.3282-3.8055 4.7253h10.795c-0.88548-1.3261-2.9653-3.6797-4.1429-4.898-0.49566-0.51033-0.82044-0.74363-1.1527-0.75609zm-5.882 7.1964c0.097271 0.1761 0.20175 0.36202 0.33035 0.5623 0.32488 0.50598 1.1475 2.0123 1.8285 3.3467 1.4887 2.9171 2.2604 4.0305 3.1499 4.5456 1.5 0.86869 2.3576-0.05853 5.0476-5.4563 0.69076-1.3861 1.1728-2.4178 1.4228-2.9982zm13.415 0-1.7913 3.5505c1.044 0.89329 2.0573 1.6326 2.7623 1.5885 1.6087-0.10073 2.068-1.209 3.8156-3.683l1.0282-1.4559z" opacity=".1" stroke-width=".5141"/>
  <path id="path8" d="m20.587 17.878-1.7908 3.5509c1.044 0.89329 2.0574 1.6324 2.7624 1.5883 1.6087-0.10073 2.0673-1.2095 3.8149-3.6836l1.0281-1.4556z" fill="#4a4a4a" stroke-width=".5141"/>
  <path id="path10" d="m7.1723 17.878c0.097271 0.17612 0.2014 0.36158 0.33 0.56185 0.32488 0.50598 1.1483 2.0126 1.8292 3.3469 1.4887 2.9171 2.2598 4.0309 3.1492 4.546 1.5 0.86869 2.3581-0.05861 5.0481-5.4564 0.69076-1.3861 1.1724-2.418 1.4224-2.9984z" fill="#0eb5fd" stroke-width=".5141"/>
  <path id="path12" d="m20.223 6.2735c-0.81677 0.1261-1.4466 1.1129-2.5417 3.132l-1.1879 2.1901 3.6874 4.5434 0.19819 0.1968h6.3948c-0.7174-1.6014-3.7166-7.6888-4.296-8.6032-0.30982-0.48898-0.9459-1.0757-1.4142-1.3045-0.29209-0.14276-0.56838-0.19667-0.84064-0.15463z" fill="#f05abe" stroke-width=".5141"/>
  <path id="path14" d="m12.911 10.689c-0.38621 0.0566-0.81389 0.39134-1.5505 0.92143-1.4508 1.2211-2.9361 3.328-3.8053 4.7251h10.795c-0.88548-1.3261-2.9654-3.68-4.143-4.8984-0.56647-0.58324-0.91021-0.8048-1.2964-0.74819z" fill="#00d49f" stroke-width=".5141"/>
 </g>
</svg>
