<?xml version="1.0" encoding="UTF-8"?>
<svg id="svg6" width="128" height="128" version="1.1" viewBox="0 0 33.867 33.867" xmlns="http://www.w3.org/2000/svg" xmlns:cc="http://creativecommons.org/ns#" xmlns:dc="http://purl.org/dc/elements/1.1/" xmlns:rdf="http://www.w3.org/1999/02/22-rdf-syntax-ns#" xmlns:xlink="http://www.w3.org/1999/xlink">
 <metadata id="metadata170">
  <rdf:RDF>
   <cc:Work rdf:about="">
    <dc:format>image/svg+xml</dc:format>
    <dc:type rdf:resource="http://purl.org/dc/dcmitype/StillImage"/>
   </cc:Work>
  </rdf:RDF>
 </metadata>
 <defs id="defs2">
  <linearGradient id="linearGradient1632" x1="132.21" x2="132.21" y1="42.152" y2="70.68" gradientTransform="matrix(.97573 0 0 .97573 -111.78 -37.203)" gradientUnits="userSpaceOnUse">
   <stop id="stop1626" stop-color="#a8e47b" offset="0"/>
   <stop id="stop1628" stop-color="#20b597" offset="1"/>
  </linearGradient>
 </defs>
 <g id="layer1">
  <g id="g1702" transform="matrix(.97573 0 0 .97573 -65.748 -37.203)" fill="none" opacity=".20513" stroke="#000" stroke-linecap="round" stroke-linejoin="round" stroke-opacity=".02">
   <rect id="rect1634" x="69.84" y="40.71" width="29.811" height="29.811" rx="6.6099" ry="6.6099" stroke-width=".1"/>
   <rect id="rect1638" x="69.84" y="40.71" width="29.811" height="29.811" rx="6.6099" ry="6.6099" stroke-width=".2"/>
   <rect id="rect1640" x="69.84" y="40.71" width="29.811" height="29.811" rx="6.6099" ry="6.6099" stroke-width=".3"/>
   <rect id="rect1642" x="69.84" y="40.71" width="29.811" height="29.811" rx="6.6099" ry="6.6099" stroke-width=".4"/>
   <rect id="rect1644" x="69.84" y="40.71" width="29.811" height="29.811" rx="6.6099" ry="6.6099" stroke-width=".5"/>
   <rect id="rect1646" x="69.84" y="40.71" width="29.811" height="29.811" rx="6.6099" ry="6.6099" stroke-width=".6"/>
   <rect id="rect1648" x="69.84" y="40.71" width="29.811" height="29.811" rx="6.6099" ry="6.6099" stroke-width=".7"/>
   <rect id="rect1650" x="69.84" y="40.71" width="29.811" height="29.811" rx="6.6099" ry="6.6099" stroke-width=".8"/>
   <rect id="rect1652" x="69.84" y="40.71" width="29.811" height="29.811" rx="6.6099" ry="6.6099"/>
   <rect id="rect1654" x="69.84" y="40.71" width="29.811" height="29.811" rx="6.6099" ry="6.6099" stroke-width="1.2"/>
   <rect id="rect1656" x="69.84" y="40.71" width="29.811" height="29.811" rx="6.6099" ry="6.6099" stroke-width="1.4"/>
   <rect id="rect1658" x="69.84" y="40.71" width="29.811" height="29.811" rx="6.6099" ry="6.6099" stroke-width="1.6"/>
   <rect id="rect1660" x="69.84" y="40.71" width="29.811" height="29.811" rx="6.6099" ry="6.6099" stroke-width="1.8"/>
   <rect id="rect1662" x="69.84" y="40.71" width="29.811" height="29.811" rx="6.6099" ry="6.6099" stroke-width="2"/>
   <rect id="rect1664" x="69.84" y="40.71" width="29.811" height="29.811" rx="6.6099" ry="6.6099" stroke-width="2.2"/>
   <rect id="rect1666" x="69.84" y="40.71" width="29.811" height="29.811" rx="6.6099" ry="6.6099" stroke-width="2.6"/>
   <rect id="rect1668" x="69.84" y="40.71" width="29.811" height="29.811" rx="6.6099" ry="6.6099" stroke-width="3"/>
   <rect id="rect1670" x="69.84" y="40.71" width="29.811" height="29.811" rx="6.6099" ry="6.6099" stroke-width="3.4"/>
   <rect id="rect1672" x="69.84" y="40.71" width="29.811" height="29.811" rx="6.6099" ry="6.6099" stroke-width="3.8"/>
   <rect id="rect1674" x="69.84" y="40.71" width="29.811" height="29.811" rx="6.6099" ry="6.6099" stroke-width="4.2"/>
   <rect id="rect1676" x="69.84" y="40.71" width="29.811" height="29.811" rx="6.6099" ry="6.6099" stroke-width="4.6"/>
   <rect id="rect1678" x="69.84" y="40.71" width="29.811" height="29.811" rx="6.6099" ry="6.6099" stroke-width="5"/>
  </g>
  <rect id="rect849" x="2.3963" y="2.5186" width="29.087" height="29.087" rx="6.4495" ry="6.4495" fill="url(#linearGradient1632)" stroke-linecap="round" stroke-linejoin="round" stroke-width="2.6877"/>
  <path id="path8" d="m10.653 11.779c-0.37711-7.73e-4 -0.60516 0.02351-0.93703 0.07126-1.4348 0.2064-2.2945 0.60052-3.0837 1.4124-0.81217 0.83555-1.2825 1.6464-1.5411 2.6592-0.12691 0.49718-0.14013 0.68774-0.10686 1.5394 0.0468 1.1985 0.19358 1.8016 0.65669 2.7134 0.72258 1.4226 1.6646 2.2438 3.1116 2.7118 0.9762 0.31574 3.0004 0.64296 4.5876 0.74029 1.5962 0.09789 7.1374 0.03169 8.1932-0.09758 1.9667-0.24078 3.5557-0.64089 4.4977-1.1321 0.8309-0.43326 1.827-1.5895 2.2427-2.6034 0.26301-0.64155 0.42684-1.4416 0.47239-2.2999 0.05447-1.0262-0.07121-1.7016-0.47703-2.5477-0.74323-1.5493-2.0736-2.6874-3.5375-3.0278-0.71752-0.16674-3.1834-0.16438-5.7678 0.0047-2.0962 0.13712-2.8486 0.12974-6.474-0.0666-0.93246-0.05053-1.4598-0.07665-1.8369-0.07748zm1.4528 2.3788a2.379 3.5683 0 0 1 2.379 3.5683 2.379 3.5683 0 0 1-2.379 3.5683 2.379 3.5683 0 0 1-2.379-3.5683 2.379 3.5683 0 0 1 2.379-3.5683zm9.5159 0a2.379 3.5683 0 0 1 2.379 3.5683 2.379 3.5683 0 0 1-2.379 3.5683 2.379 3.5683 0 0 1-2.379-3.5683 2.379 3.5683 0 0 1 2.379-3.5683z" fill="#0c0e0f" fill-opacity=".90809" stroke-width=".59474"/>
 </g>
</svg>
