<?xml version="1.0" encoding="UTF-8"?>
<svg id="svg61" width="64" height="64" version="1.1" viewBox="0 0 64 64" xmlns="http://www.w3.org/2000/svg" xmlns:cc="http://creativecommons.org/ns#" xmlns:dc="http://purl.org/dc/elements/1.1/" xmlns:rdf="http://www.w3.org/1999/02/22-rdf-syntax-ns#" xmlns:xlink="http://www.w3.org/1999/xlink">
 <metadata id="metadata2">
  <rdf:RDF>
   <cc:Work rdf:about="">
    <dc:format>image/svg+xml</dc:format>
    <dc:type rdf:resource="http://purl.org/dc/dcmitype/StillImage"/>
    <dc:title/>
   </cc:Work>
  </rdf:RDF>
 </metadata>
 <defs id="defs21">
  <style id="style4" type="text/css"/>
  <linearGradient id="linearGradient4312-3" x2="0" y1="47" y2="1" gradientTransform="matrix(1.4783 0 0 1.4782 -3.4778 -3.4781)" gradientUnits="userSpaceOnUse">
   <stop id="stop6" stop-color="#0067e6" offset="0"/>
   <stop id="stop8" stop-color="#008de8" offset="1"/>
  </linearGradient>
  <linearGradient id="linearGradient4320-6" x2="0" y1="47" y2="1" gradientTransform="matrix(1.4783 0 0 1.4782 -3.4778 -3.4781)" gradientUnits="userSpaceOnUse">
   <stop id="stop11" stop-color="#0066e6" offset="0"/>
   <stop id="stop13" stop-color="#007ccc" offset="1"/>
  </linearGradient>
  <linearGradient id="linearGradient4328-7" x2="0" y1="47" y2="1" gradientTransform="matrix(1.4783 0 0 1.4782 -3.4778 -3.4781)" gradientUnits="userSpaceOnUse">
   <stop id="stop16" stop-color="#328dff" offset="0"/>
   <stop id="stop18" stop-color="#32afff" offset="1"/>
  </linearGradient>
  <linearGradient id="linearGradient1448" x1="3.9687" x2="3.9687" y1="8.9776" y2=".54085" gradientTransform="matrix(3.4646 0 0 3.4646 2.6662 2.6662)" gradientUnits="userSpaceOnUse">
   <stop id="stop912" stop-color="#dcdcdc" offset="0"/>
   <stop id="stop914" stop-color="#f0f0f0" offset="1"/>
  </linearGradient>
 </defs>
 <rect id="rect921" x="4.4996" y="4.4996" width="55.001" height="55.001" ry="13" fill="url(#linearGradient1448)" stroke-opacity=".95294" stroke-width=".31428"/>
 <g id="g39" fill="#5e4aa6">
  <circle id="circle23" cx="-1248.7" cy="-1241.6" r="0"/>
  <circle id="circle25" cx="-149.15" cy="23.855" r="0" fill-rule="evenodd"/>
  <circle id="circle27" cx="-1124.8" cy="-1279.3" r="0"/>
  <g id="g37" transform="matrix(3.7796,0,0,3.7796,123.83,-38.184)" stroke-width=".26458">
   <circle id="circle29" cx="-299.02" cy="-338.77" r="0"/>
   <circle id="circle31" cx="-8.1062" cy="-3.9487" r="0" fill-rule="evenodd"/>
   <circle id="circle33" cx="-278.25" cy="-357.69" r="0"/>
   <circle id="circle35" cx="12.663" cy="-22.859" r="0" fill-rule="evenodd"/>
  </g>
 </g>
 <path id="path41" d="m17.5 4.5c-7.202 0-13 5.798-13 13v29c0 7.202 5.798 13 13 13h7.3281c13.846-4.4853 26.483-10.242 34.672-20.664v-18.117c-5.1143-5.8629-10.03-11.827-18.018-16.219h-23.982z" fill="url(#linearGradient4328-7)" stroke-width="1.4783"/>
 <path id="path43" d="m59.5 32.08-39.488 27.42h26.488c7.202 0 13-5.798 13-13v-14.42z" fill="url(#linearGradient4320-6)" stroke-width="1.4783"/>
 <path id="path45" d="m31.828 4.5 27.672 19.059v-2.8438c-5.1122-5.8607-10.026-11.825-18.01-16.215h-9.6621z" fill="#0066c4" stroke-width="1.4783"/>
 <path id="path47" d="m32.555 4.5 26.945 18.58v-5.5801c0-7.202-5.798-13-13-13h-13.945z" fill="url(#linearGradient4312-3)" stroke-width="1.4783"/>
 <path id="path49" d="m59.5 32.08-39.486 27.42h3.6016l35.885-24.916v-2.5039z" fill-opacity=".098039" stroke-width="1.4783"/>
 <path id="path53" d="m32.742 26.354c0 9.4442-5.3967 13.492-10.793 13.492h-9.4442v-26.984h9.4442c5.3967 0 10.793 4.0475 10.793 13.492m-4.0475 0c0-5.3967-2.6309-9.4442-7.0158-9.4442h-5.1269v18.889h5.1269c4.4969 0 7.0158-4.0475 7.0158-9.4442z" fill="#fff" stroke-width="1.1333"/>
 <circle id="circle57" cx="-1324.8" cy="-1249.7" r="0" fill="#5e4aa6"/>
 <circle id="circle59" cx="-225.26" cy="15.747" r="0" fill="#5e4aa6" fill-rule="evenodd"/>
 <g id="g929" transform="matrix(3.7796 0 0 3.7796 -119.32 -.1822)" fill="#5e4aa6" stroke-width=".26458">
  <circle id="circle923" cx="-322.63" cy="-345.67" r="0"/>
  <circle id="circle925" cx="-31.726" cy="-10.849" r="0" fill-rule="evenodd"/>
  <circle id="circle927" cx="-306.92" cy="-328.72" r="0"/>
 </g>
</svg>
