<?xml version="1.0" encoding="UTF-8"?>
<svg id="svg1829" width="128" height="128" version="1.1" viewBox="0 0 33.867 33.867" xmlns="http://www.w3.org/2000/svg" xmlns:cc="http://creativecommons.org/ns#" xmlns:dc="http://purl.org/dc/elements/1.1/" xmlns:rdf="http://www.w3.org/1999/02/22-rdf-syntax-ns#" xmlns:xlink="http://www.w3.org/1999/xlink">
 <defs id="defs1823">
  <radialGradient id="radialGradient908" cx="16.937" cy="3.2428" r="14.544" gradientTransform="matrix(4.4792 0 0 2.0392 -58.927 -3.3698)" gradientUnits="userSpaceOnUse">
   <stop id="stop930" stop-color="#0dbbff" offset="0"/>
   <stop id="stop932" stop-color="#0245ff" offset="1"/>
  </radialGradient>
  <linearGradient id="linearGradient1036" x1="5.0377" x2="5.0377" y1="11.444" y2="62.503" gradientUnits="userSpaceOnUse">
   <stop id="stop1030" stop-color="#fcfcfd" offset="0"/>
   <stop id="stop1032" stop-color="#0568ff" offset="1"/>
  </linearGradient>
 </defs>
 <metadata id="metadata1826">
  <rdf:RDF>
   <cc:Work rdf:about="">
    <dc:format>image/svg+xml</dc:format>
    <dc:type rdf:resource="http://purl.org/dc/dcmitype/StillImage"/>
   </cc:Work>
  </rdf:RDF>
 </metadata>
 <g id="layer1">
  <g id="g1702" transform="matrix(.97573 0 0 .97573 -65.587 -37.192)" fill="none" opacity=".29676" stroke="#000" stroke-linecap="round" stroke-linejoin="round" stroke-opacity=".02">
   <rect id="rect1634" x="69.84" y="40.71" width="29.811" height="29.811" rx="6.6099" ry="6.6099" stroke-width=".1"/>
   <rect id="rect1638" x="69.84" y="40.71" width="29.811" height="29.811" rx="6.6099" ry="6.6099" stroke-width=".2"/>
   <rect id="rect1640" x="69.84" y="40.71" width="29.811" height="29.811" rx="6.6099" ry="6.6099" stroke-width=".3"/>
   <rect id="rect1642" x="69.84" y="40.71" width="29.811" height="29.811" rx="6.6099" ry="6.6099" stroke-width=".4"/>
   <rect id="rect1644" x="69.84" y="40.71" width="29.811" height="29.811" rx="6.6099" ry="6.6099" stroke-width=".5"/>
   <rect id="rect1646" x="69.84" y="40.71" width="29.811" height="29.811" rx="6.6099" ry="6.6099" stroke-width=".6"/>
   <rect id="rect1648" x="69.84" y="40.71" width="29.811" height="29.811" rx="6.6099" ry="6.6099" stroke-width=".7"/>
   <rect id="rect1650" x="69.84" y="40.71" width="29.811" height="29.811" rx="6.6099" ry="6.6099" stroke-width=".8"/>
   <rect id="rect1652" x="69.84" y="40.71" width="29.811" height="29.811" rx="6.6099" ry="6.6099"/>
   <rect id="rect1654" x="69.84" y="40.71" width="29.811" height="29.811" rx="6.6099" ry="6.6099" stroke-width="1.2"/>
   <rect id="rect1656" x="69.84" y="40.71" width="29.811" height="29.811" rx="6.6099" ry="6.6099" stroke-width="1.4"/>
   <rect id="rect1658" x="69.84" y="40.71" width="29.811" height="29.811" rx="6.6099" ry="6.6099" stroke-width="1.6"/>
   <rect id="rect1660" x="69.84" y="40.71" width="29.811" height="29.811" rx="6.6099" ry="6.6099" stroke-width="1.8"/>
   <rect id="rect1662" x="69.84" y="40.71" width="29.811" height="29.811" rx="6.6099" ry="6.6099" stroke-width="2"/>
   <rect id="rect1664" x="69.84" y="40.71" width="29.811" height="29.811" rx="6.6099" ry="6.6099" stroke-width="2.2"/>
   <rect id="rect1666" x="69.84" y="40.71" width="29.811" height="29.811" rx="6.6099" ry="6.6099" stroke-width="2.6"/>
   <rect id="rect1668" x="69.84" y="40.71" width="29.811" height="29.811" rx="6.6099" ry="6.6099" stroke-width="3"/>
   <rect id="rect1670" x="69.84" y="40.71" width="29.811" height="29.811" rx="6.6099" ry="6.6099" stroke-width="3.4"/>
   <rect id="rect1672" x="69.84" y="40.71" width="29.811" height="29.811" rx="6.6099" ry="6.6099" stroke-width="3.8"/>
   <rect id="rect1674" x="69.84" y="40.71" width="29.811" height="29.811" rx="6.6099" ry="6.6099" stroke-width="4.2"/>
   <rect id="rect1676" x="69.84" y="40.71" width="29.811" height="29.811" rx="6.6099" ry="6.6099" stroke-width="4.6"/>
   <rect id="rect1678" x="69.84" y="40.71" width="29.811" height="29.811" rx="6.6099" ry="6.6099" stroke-width="5"/>
  </g>
  <rect id="rect849-5" x="2.5579" y="2.5293" width="29.087" height="29.087" rx="6.4495" ry="6.4495" fill="url(#radialGradient908)" stroke-linecap="round" stroke-linejoin="round" stroke-width="2.6877"/>
  <path id="path12" d="m29.165 9.7117c0-0.021293-0.11613 0.052194-0.25514 0.16366-0.35328 0.28333-0.71726 0.39707-1.7571 0.5488-0.96864 0.14133-1.4354 0.30201-1.5597 0.53435-0.04287 0.08009-0.19512 0.24734-0.33698 0.37549-0.14186 0.12816-0.27506 0.31111-0.29847 0.40438-0.05855 0.23324 0.14482 0.65829 0.52954 1.1024 0.43008 0.49649 0.64507 0.93794 0.64507 1.3287 0 0.27886-0.03106 0.3455-0.25996 0.56324-0.39253 0.37341-0.88473 0.50713-1.8293 0.50066-1.3771-0.0096-2.6669-0.36778-5.2136-1.4538-2.0869-0.89-2.9971-1.1125-3.9186-0.94354-0.49455 0.09066-1.2477 0.456-1.6368 0.7895-0.61668 0.52861-1.7617 2.205-2.484 3.6442l-0.47658 0.95799-0.37068-0.38512c-0.6054-0.62921-0.79431-0.87931-0.79431-1.0543 0-0.10854-0.039071-0.16848-0.11072-0.16848-0.091077 0-0.1041 0.05529-0.077027 0.33698 0.035563 0.3702 0.30029 0.81603 0.85208 1.4298l0.29847 0.33216-0.24551 0.78468c-0.13508 0.43302-0.28273 0.9972-0.32735 1.2516-0.078171 0.44568-0.096723 0.48424-0.58731 0.9965-0.58688 0.6128-0.66723 0.63414-1.3672 0.37068-0.58352-0.21964-1.5377-0.4477-1.8726-0.4477-0.312 0-0.67396 0.15712-0.67396 0.29366 0 0.06518 0.10431 0.09042 0.38512 0.08664 0.316-0.0043 0.58273 0.06893 1.4346 0.38994 1.3502 0.50879 1.4731 0.5401 1.786 0.4814 0.19584-0.03675 0.37228-0.15762 0.70766-0.4814l0.4477-0.43326 0.12997 0.1396c0.17032 0.18858 0.78232 0.49544 1.2805 0.64026l0.39956 0.11554-0.3081 0.07703c-0.42004 0.10665-0.68707 0.31599-0.83763 0.64989-0.12432 0.27568-0.12515 0.28398 0 0.37549 0.1663 0.12161 1.3469 0.12462 1.5838 0.0051 0.13907-0.07037 0.4067-0.44439 0.49103-0.68359 0.01197-0.03367 0.1668-0.0043 0.34179 0.06258 0.38902 0.14857 1.1308 0.10809 1.656-0.09148 0.18746-0.07125 0.34179-0.10567 0.34179-0.07703 0 0.02862-0.13649 0.18461-0.30328 0.35142-0.20085 0.20084-0.30328 0.36278-0.30328 0.47658 0 0.38043 0.01171 0.38512 0.95317 0.38512 0.63639 0 0.87896-0.02023 0.90022-0.08182v-0.0051c0.01597-0.04634 0.0375-0.6156 0.04815-1.2709 0.01757-1.0839 0.03125-1.2086 0.15887-1.3816 0.3904-0.52922 2.2528-1.2774 3.4516-1.3864l0.35142-0.0337v0.20699c0 0.11424-0.14176 0.60948-0.31772 1.0976l-0.32254 0.88578-0.35624 0.08182c-0.40146 0.08983-0.76099 0.36107-0.89059 0.67396-0.15506 0.37435-0.08967 0.40438 0.80875 0.40438 0.94901 0 0.87748 0.04094 1.3816-0.84726 0.27587-0.48603 0.51269-0.7665 1.3046-1.5549l0.96761-0.9628 0.29365 0.07703c0.59759 0.15983 2.9259 2.093 3.2302 2.6814 0.10859 0.21 0.08402 0.34312-0.11072 0.59694-0.15728 0.205-0.1642 0.45693-0.0096 0.49584 0.26625 0.06699 1.4337 0.05552 1.5645-0.01464 0.07628-0.04083 0.13974-0.13934 0.1396-0.22145-1.3e-4 -0.08211-0.2437-0.57383-0.53916-1.0928-0.64062-1.1251-0.72854-1.3339-1.4587-3.4852-0.47682-1.405-0.56323-1.7343-0.56323-2.0989 0-0.75859 0.31954-1.3544 1.0543-1.9593 0.21136-0.17402 0.39186-0.36587 0.39956-0.42845 0.0077-0.06258 0.04583-0.2577 0.08182-0.43326 0.07064-0.34476 0.02315-0.72812-0.12036-0.9965-0.04945-0.09259-0.25142-0.36422-0.45246-0.60168-0.45621-0.53887-0.53474-0.71994-0.3803-0.89059 0.06507-0.07189 0.20508-0.12515 0.32735-0.12515 0.3574 0 0.89835-0.19512 1.5068-0.54398 0.31852-0.18264 0.62362-0.33216 0.68359-0.33216 0.15685 0 0.35689-0.24167 0.59694-0.7221 0.11522-0.23063 0.21181-0.43599 0.21181-0.45733z" fill="url(#linearGradient1036)" stroke-width=".70422"/>
 </g>
</svg>
