<?xml version="1.0" encoding="UTF-8"?>
<svg id="svg1711" width="128" height="128" version="1.1" viewBox="0 0 33.867 33.867" xmlns="http://www.w3.org/2000/svg" xmlns:cc="http://creativecommons.org/ns#" xmlns:dc="http://purl.org/dc/elements/1.1/" xmlns:rdf="http://www.w3.org/1999/02/22-rdf-syntax-ns#" xmlns:xlink="http://www.w3.org/1999/xlink">
 <defs id="defs1705">
  <linearGradient id="linearGradient4677" x1="17.821" x2="17.821" y1="29.11" y2="4.0044" gradientTransform="translate(-.070804 .0003299)" gradientUnits="userSpaceOnUse">
   <stop id="stop4671" stop-color="#5aaf33" offset="0"/>
   <stop id="stop4673" stop-color="#98d742" offset="1"/>
  </linearGradient>
 </defs>
 <metadata id="metadata1708">
  <rdf:RDF>
   <cc:Work rdf:about="">
    <dc:format>image/svg+xml</dc:format>
    <dc:type rdf:resource="http://purl.org/dc/dcmitype/StillImage"/>
   </cc:Work>
  </rdf:RDF>
 </metadata>
 <g id="layer1">
  <g id="g1702" transform="matrix(.97573 0 0 .97573 -65.819 -37.203)" fill="none" opacity=".295" stroke="#000" stroke-linecap="round" stroke-linejoin="round" stroke-opacity=".02">
   <rect id="rect1634" x="69.84" y="40.71" width="29.811" height="29.811" rx="6.6099" ry="6.6099" stroke-width=".1"/>
   <rect id="rect1638" x="69.84" y="40.71" width="29.811" height="29.811" rx="6.6099" ry="6.6099" stroke-width=".2"/>
   <rect id="rect1640" x="69.84" y="40.71" width="29.811" height="29.811" rx="6.6099" ry="6.6099" stroke-width=".3"/>
   <rect id="rect1642" x="69.84" y="40.71" width="29.811" height="29.811" rx="6.6099" ry="6.6099" stroke-width=".4"/>
   <rect id="rect1644" x="69.84" y="40.71" width="29.811" height="29.811" rx="6.6099" ry="6.6099" stroke-width=".5"/>
   <rect id="rect1646" x="69.84" y="40.71" width="29.811" height="29.811" rx="6.6099" ry="6.6099" stroke-width=".6"/>
   <rect id="rect1648" x="69.84" y="40.71" width="29.811" height="29.811" rx="6.6099" ry="6.6099" stroke-width=".7"/>
   <rect id="rect1650" x="69.84" y="40.71" width="29.811" height="29.811" rx="6.6099" ry="6.6099" stroke-width=".8"/>
   <rect id="rect1652" x="69.84" y="40.71" width="29.811" height="29.811" rx="6.6099" ry="6.6099"/>
   <rect id="rect1654" x="69.84" y="40.71" width="29.811" height="29.811" rx="6.6099" ry="6.6099" stroke-width="1.2"/>
   <rect id="rect1656" x="69.84" y="40.71" width="29.811" height="29.811" rx="6.6099" ry="6.6099" stroke-width="1.4"/>
   <rect id="rect1658" x="69.84" y="40.71" width="29.811" height="29.811" rx="6.6099" ry="6.6099" stroke-width="1.6"/>
   <rect id="rect1660" x="69.84" y="40.71" width="29.811" height="29.811" rx="6.6099" ry="6.6099" stroke-width="1.8"/>
   <rect id="rect1662" x="69.84" y="40.71" width="29.811" height="29.811" rx="6.6099" ry="6.6099" stroke-width="2"/>
   <rect id="rect1664" x="69.84" y="40.71" width="29.811" height="29.811" rx="6.6099" ry="6.6099" stroke-width="2.2"/>
   <rect id="rect1666" x="69.84" y="40.71" width="29.811" height="29.811" rx="6.6099" ry="6.6099" stroke-width="2.6"/>
   <rect id="rect1668" x="69.84" y="40.71" width="29.811" height="29.811" rx="6.6099" ry="6.6099" stroke-width="3"/>
   <rect id="rect1670" x="69.84" y="40.71" width="29.811" height="29.811" rx="6.6099" ry="6.6099" stroke-width="3.4"/>
   <rect id="rect1672" x="69.84" y="40.71" width="29.811" height="29.811" rx="6.6099" ry="6.6099" stroke-width="3.8"/>
   <rect id="rect1674" x="69.84" y="40.71" width="29.811" height="29.811" rx="6.6099" ry="6.6099" stroke-width="4.2"/>
   <rect id="rect1676" x="69.84" y="40.71" width="29.811" height="29.811" rx="6.6099" ry="6.6099" stroke-width="4.6"/>
   <rect id="rect1678" x="69.84" y="40.71" width="29.811" height="29.811" rx="6.6099" ry="6.6099" stroke-width="5"/>
  </g>
  <rect id="rect849" x="2.3255" y="2.5189" width="29.087" height="29.087" rx="6.4495" ry="6.4495" fill="url(#linearGradient4677)" stroke-linecap="round" stroke-linejoin="round" stroke-width="2.688"/>
  <g id="g1174" fill="#245a14" fill-opacity=".018387" stroke-width=".43217">
   <path id="path1042" d="m17.04 6.3345a10.804 10.804 0 0 0-10.804 10.804 10.804 10.804 0 0 0 10.804 10.804 10.804 10.804 0 0 0 10.804-10.804 10.804 10.804 0 0 0-10.804-10.804zm0 0.86433a9.9399 9.9399 0 0 1 9.9399 9.9399 9.9399 9.9399 0 0 1-9.9399 9.9399 9.9399 9.9399 0 0 1-9.9398-9.9399 9.9399 9.9399 0 0 1 9.9398-9.9399zm-5.186 6.9147-2.1608 5.6182h1.2965l0.51826-1.2965h2.1178l0.38912 1.2965h1.2965l-1.7287-5.6182zm4.3217 0v5.6182h1.2965v-5.6182zm2.1608 0 2.1608 2.8091-2.1608 2.8091h1.2965l1.5126-1.9667 1.5126 1.9667h1.2965l-2.1608-2.8091 2.1608-2.8091h-1.2965l-1.5126 1.9667-1.5126-1.9667zm-5.6182 1.2965 0.51826 1.7287h-1.2096z"/>
   <path id="path1134" d="m17.188 6.4213a10.804 10.804 0 0 0-10.804 10.804 10.804 10.804 0 0 0 10.804 10.804 10.804 10.804 0 0 0 10.804-10.804 10.804 10.804 0 0 0-10.804-10.804zm0 0.86433a9.9399 9.9399 0 0 1 9.9399 9.9399 9.9399 9.9399 0 0 1-9.9399 9.9399 9.9399 9.9399 0 0 1-9.9398-9.9399 9.9399 9.9399 0 0 1 9.9398-9.9399zm-5.186 6.9147-2.1608 5.6182h1.2965l0.51826-1.2965h2.1178l0.38912 1.2965h1.2965l-1.7287-5.6182zm4.3217 0v5.6182h1.2965v-5.6182zm2.1608 0 2.1608 2.8091-2.1608 2.8091h1.2965l1.5126-1.9667 1.5126 1.9667h1.2965l-2.1608-2.8091 2.1608-2.8091h-1.2965l-1.5126 1.9667-1.5126-1.9667zm-5.6182 1.2965 0.51826 1.7287h-1.2096z"/>
   <path id="path1136" d="m17.301 6.533a10.804 10.804 0 0 0-10.804 10.804 10.804 10.804 0 0 0 10.804 10.804 10.804 10.804 0 0 0 10.804-10.804 10.804 10.804 0 0 0-10.804-10.804zm0 0.86433a9.9399 9.9399 0 0 1 9.9399 9.9399 9.9399 9.9399 0 0 1-9.9399 9.9399 9.9399 9.9399 0 0 1-9.9398-9.9399 9.9399 9.9399 0 0 1 9.9398-9.9399zm-5.186 6.9147-2.1608 5.6182h1.2965l0.51826-1.2965h2.1178l0.38912 1.2965h1.2965l-1.7287-5.6182zm4.3217 0v5.6182h1.2965v-5.6182zm2.1608 0 2.1608 2.8091-2.1608 2.8091h1.2965l1.5126-1.9667 1.5126 1.9667h1.2965l-2.1608-2.8091 2.1608-2.8091h-1.2965l-1.5126 1.9667-1.5126-1.9667zm-5.6182 1.2965 0.51826 1.7287h-1.2096z"/>
   <path id="path1138" d="m17.361 6.6233a10.804 10.804 0 0 0-10.804 10.804 10.804 10.804 0 0 0 10.804 10.804 10.804 10.804 0 0 0 10.804-10.804 10.804 10.804 0 0 0-10.804-10.804zm0 0.86433a9.9399 9.9399 0 0 1 9.9399 9.9398 9.9399 9.9399 0 0 1-9.9399 9.9399 9.9399 9.9399 0 0 1-9.9398-9.9399 9.9399 9.9399 0 0 1 9.9398-9.9398zm-5.186 6.9147-2.1608 5.6182h1.2965l0.51826-1.2965h2.1178l0.38912 1.2965h1.2965l-1.7287-5.6182zm4.3217 0v5.6182h1.2965v-5.6182zm2.1608 0 2.1608 2.8091-2.1608 2.8091h1.2965l1.5126-1.9667 1.5126 1.9667h1.2965l-2.1608-2.8091 2.1608-2.8091h-1.2965l-1.5126 1.9667-1.5126-1.9667zm-5.6182 1.2965 0.51826 1.7287h-1.2096z"/>
   <path id="path1140" d="m17.413 6.7154a10.804 10.804 0 0 0-10.804 10.804 10.804 10.804 0 0 0 10.804 10.804 10.804 10.804 0 0 0 10.804-10.804 10.804 10.804 0 0 0-10.804-10.804zm0 0.86433a9.9399 9.9399 0 0 1 9.9399 9.9398 9.9399 9.9399 0 0 1-9.9399 9.9399 9.9399 9.9399 0 0 1-9.9398-9.9399 9.9399 9.9399 0 0 1 9.9398-9.9398zm-5.186 6.9147-2.1608 5.6182h1.2965l0.51826-1.2965h2.1178l0.38912 1.2965h1.2965l-1.7287-5.6182zm4.3217 0v5.6182h1.2965v-5.6182zm2.1608 0 2.1608 2.8091-2.1608 2.8091h1.2965l1.5126-1.9667 1.5126 1.9667h1.2965l-2.1608-2.8091 2.1608-2.8091h-1.2965l-1.5126 1.9667-1.5126-1.9667zm-5.6182 1.2965 0.51826 1.7287h-1.2096z"/>
   <path id="path1142" d="m17.468 6.7979a10.804 10.804 0 0 0-10.804 10.804 10.804 10.804 0 0 0 10.804 10.804 10.804 10.804 0 0 0 10.804-10.804 10.804 10.804 0 0 0-10.804-10.804zm0 0.86433a9.9399 9.9399 0 0 1 9.9399 9.9398 9.9399 9.9399 0 0 1-9.9399 9.9399 9.9399 9.9399 0 0 1-9.9398-9.9399 9.9399 9.9399 0 0 1 9.9398-9.9398zm-5.186 6.9147-2.1608 5.6182h1.2965l0.51826-1.2965h2.1178l0.38912 1.2965h1.2965l-1.7287-5.6182zm4.3217 0v5.6182h1.2965v-5.6182zm2.1608 0 2.1608 2.8091-2.1608 2.8091h1.2965l1.5126-1.9667 1.5126 1.9667h1.2965l-2.1608-2.8091 2.1608-2.8091h-1.2965l-1.5126 1.9667-1.5126-1.9667zm-5.6182 1.2965 0.51826 1.7287h-1.2096z"/>
   <path id="path1144" d="m17.505 6.8716a10.804 10.804 0 0 0-10.804 10.804 10.804 10.804 0 0 0 10.804 10.804 10.804 10.804 0 0 0 10.804-10.804 10.804 10.804 0 0 0-10.804-10.804zm0 0.86433a9.9399 9.9399 0 0 1 9.9399 9.9398 9.9399 9.9399 0 0 1-9.9399 9.9399 9.9399 9.9399 0 0 1-9.9398-9.9399 9.9399 9.9399 0 0 1 9.9398-9.9398zm-5.186 6.9147-2.1608 5.6182h1.2965l0.51826-1.2965h2.1178l0.38912 1.2965h1.2965l-1.7287-5.6182zm4.3217 0v5.6182h1.2965v-5.6182zm2.1608 0 2.1608 2.8091-2.1608 2.8091h1.2965l1.5126-1.9667 1.5126 1.9667h1.2965l-2.1608-2.8091 2.1608-2.8091h-1.2965l-1.5126 1.9667-1.5126-1.9667zm-5.6182 1.2965 0.51826 1.7287h-1.2096z"/>
   <path id="path1146" d="m17.552 6.9475a10.804 10.804 0 0 0-10.804 10.804 10.804 10.804 0 0 0 10.804 10.804 10.804 10.804 0 0 0 10.804-10.804 10.804 10.804 0 0 0-10.804-10.804zm0 0.86433a9.9399 9.9399 0 0 1 9.9399 9.9398 9.9399 9.9399 0 0 1-9.9399 9.9399 9.9399 9.9399 0 0 1-9.9398-9.9399 9.9399 9.9399 0 0 1 9.9398-9.9398zm-5.186 6.9147-2.1608 5.6182h1.2965l0.51826-1.2965h2.1178l0.38912 1.2965h1.2965l-1.7287-5.6182zm4.3217 0v5.6182h1.2965v-5.6182zm2.1608 0 2.1608 2.8091-2.1608 2.8091h1.2965l1.5126-1.9667 1.5126 1.9667h1.2965l-2.1608-2.8091 2.1608-2.8091h-1.2965l-1.5126 1.9667-1.5126-1.9667zm-5.6182 1.2965 0.51826 1.7287h-1.2096z"/>
   <path id="path1148" d="m17.576 7.0019a10.804 10.804 0 0 0-10.804 10.804 10.804 10.804 0 0 0 10.804 10.804 10.804 10.804 0 0 0 10.804-10.804 10.804 10.804 0 0 0-10.804-10.804zm0 0.86433a9.9399 9.9399 0 0 1 9.9399 9.9398 9.9399 9.9399 0 0 1-9.9399 9.9399 9.9399 9.9399 0 0 1-9.9398-9.9399 9.9399 9.9399 0 0 1 9.9398-9.9398zm-5.186 6.9147-2.1608 5.6182h1.2965l0.51826-1.2965h2.1178l0.38912 1.2965h1.2965l-1.7287-5.6182zm4.3217 0v5.6182h1.2965v-5.6182zm2.1608 0 2.1608 2.8091-2.1608 2.8091h1.2965l1.5126-1.9667 1.5126 1.9667h1.2965l-2.1608-2.8091 2.1608-2.8091h-1.2965l-1.5126 1.9667-1.5126-1.9667zm-5.6182 1.2965 0.51826 1.7287h-1.2096z"/>
   <path id="path1150" d="m17.603 7.0333a10.804 10.804 0 0 0-10.804 10.804 10.804 10.804 0 0 0 10.804 10.804 10.804 10.804 0 0 0 10.804-10.804 10.804 10.804 0 0 0-10.804-10.804zm0 0.86433a9.9399 9.9399 0 0 1 9.9399 9.9398 9.9399 9.9399 0 0 1-9.9399 9.9399 9.9399 9.9399 0 0 1-9.9398-9.9399 9.9399 9.9399 0 0 1 9.9398-9.9398zm-5.186 6.9147-2.1608 5.6182h1.2965l0.51826-1.2965h2.1178l0.38912 1.2965h1.2965l-1.7287-5.6182zm4.3217 0v5.6182h1.2965v-5.6182zm2.1608 0 2.1608 2.8091-2.1608 2.8091h1.2965l1.5126-1.9667 1.5126 1.9667h1.2965l-2.1608-2.8091 2.1608-2.8091h-1.2965l-1.5126 1.9667-1.5126-1.9667zm-5.6182 1.2965 0.51826 1.7287h-1.2096z"/>
   <path id="path1152" d="m17.622 7.0715a10.804 10.804 0 0 0-10.804 10.804 10.804 10.804 0 0 0 10.804 10.804 10.804 10.804 0 0 0 10.804-10.804 10.804 10.804 0 0 0-10.804-10.804zm0 0.86433a9.9399 9.9399 0 0 1 9.9399 9.9398 9.9399 9.9399 0 0 1-9.9399 9.9399 9.9399 9.9399 0 0 1-9.9399-9.9399 9.9399 9.9399 0 0 1 9.9399-9.9398zm-5.186 6.9147-2.1608 5.6182h1.2965l0.51826-1.2965h2.1178l0.38912 1.2965h1.2965l-1.7287-5.6182zm4.3217 0v5.6182h1.2965v-5.6182zm2.1608 0 2.1608 2.8091-2.1608 2.8091h1.2965l1.5126-1.9667 1.5126 1.9667h1.2965l-2.1608-2.8091 2.1608-2.8091h-1.2965l-1.5126 1.9667-1.5126-1.9667zm-5.6182 1.2965 0.51826 1.7287h-1.2096z"/>
   <path id="path1154" d="m17.654 7.1034a10.804 10.804 0 0 0-10.804 10.804 10.804 10.804 0 0 0 10.804 10.804 10.804 10.804 0 0 0 10.804-10.804 10.804 10.804 0 0 0-10.804-10.804zm0 0.86433a9.9399 9.9399 0 0 1 9.9399 9.9398 9.9399 9.9399 0 0 1-9.9399 9.9399 9.9399 9.9399 0 0 1-9.9399-9.9399 9.9399 9.9399 0 0 1 9.9399-9.9398zm-5.186 6.9147-2.1608 5.6182h1.2965l0.51826-1.2965h2.1178l0.38912 1.2965h1.2965l-1.7287-5.6182zm4.3217 0v5.6182h1.2965v-5.6182zm2.1608 0 2.1608 2.8091-2.1608 2.8091h1.2965l1.5126-1.9667 1.5126 1.9667h1.2965l-2.1608-2.8091 2.1608-2.8091h-1.2965l-1.5126 1.9667-1.5126-1.9667zm-5.6182 1.2965 0.51826 1.7287h-1.2096z"/>
   <path id="path1156" d="m17.669 7.127a10.804 10.804 0 0 0-10.804 10.804 10.804 10.804 0 0 0 10.804 10.804 10.804 10.804 0 0 0 10.804-10.804 10.804 10.804 0 0 0-10.804-10.804zm0 0.86433a9.9399 9.9399 0 0 1 9.9399 9.9398 9.9399 9.9399 0 0 1-9.9399 9.9399 9.9399 9.9399 0 0 1-9.9399-9.9399 9.9399 9.9399 0 0 1 9.9399-9.9398zm-5.186 6.9147-2.1608 5.6182h1.2965l0.51826-1.2965h2.1178l0.38912 1.2965h1.2965l-1.7287-5.6182zm4.3217 0v5.6182h1.2965v-5.6182zm2.1608 0 2.1608 2.8091-2.1608 2.8091h1.2965l1.5126-1.9667 1.5126 1.9667h1.2965l-2.1608-2.8091 2.1608-2.8091h-1.2965l-1.5126 1.9667-1.5126-1.9667zm-5.6182 1.2965 0.51826 1.7287h-1.2096z"/>
   <path id="path1158" d="m17.68 7.1391a10.804 10.804 0 0 0-10.804 10.804 10.804 10.804 0 0 0 10.804 10.804 10.804 10.804 0 0 0 10.804-10.804 10.804 10.804 0 0 0-10.804-10.804zm0 0.86433a9.9399 9.9399 0 0 1 9.9399 9.9398 9.9399 9.9399 0 0 1-9.9399 9.9399 9.9399 9.9399 0 0 1-9.9399-9.9399 9.9399 9.9399 0 0 1 9.9399-9.9398zm-5.186 6.9147-2.1608 5.6182h1.2965l0.51826-1.2965h2.1178l0.38912 1.2965h1.2965l-1.7287-5.6182zm4.3217 0v5.6182h1.2965v-5.6182zm2.1608 0 2.1608 2.8091-2.1608 2.8091h1.2965l1.5126-1.9667 1.5126 1.9667h1.2965l-2.1608-2.8091 2.1608-2.8091h-1.2965l-1.5126 1.9667-1.5126-1.9667zm-5.6182 1.2965 0.51826 1.7287h-1.2096z"/>
  </g>
  <path id="path10" d="m16.869 6.2585a10.804 10.804 0 0 0-10.804 10.804 10.804 10.804 0 0 0 10.804 10.804 10.804 10.804 0 0 0 10.804-10.804 10.804 10.804 0 0 0-10.804-10.804zm0 0.86433a9.9399 9.9399 0 0 1 9.9399 9.9399 9.9399 9.9399 0 0 1-9.9399 9.9399 9.9399 9.9399 0 0 1-9.9398-9.9399 9.9399 9.9399 0 0 1 9.9398-9.9399zm-5.186 6.9147-2.1608 5.6182h1.2965l0.51826-1.2965h2.1178l0.38912 1.2965h1.2965l-1.7287-5.6182zm4.3217 0v5.6182h1.2965v-5.6182zm2.1608 0 2.1608 2.8091-2.1608 2.8091h1.2965l1.5126-1.9667 1.5126 1.9667h1.2965l-2.1608-2.8091 2.1608-2.8091h-1.2965l-1.5126 1.9667-1.5126-1.9667zm-5.6182 1.2965 0.51826 1.7287h-1.2096z" fill="#fff" stroke-width=".43217"/>
 </g>
</svg>
