<svg width="128" height="128" viewBox="0 0 33.867 33.867" xmlns:xlink="http://www.w3.org/1999/xlink" xmlns="http://www.w3.org/2000/svg"><defs><linearGradient id="a"><stop style="stop-color:#fff;stop-opacity:1" offset="0"/><stop style="stop-color:#a534fb;stop-opacity:1" offset="1"/></linearGradient><linearGradient id="b"><stop style="stop-color:#ef44c4;stop-opacity:.97000003" offset="0"/><stop style="stop-color:#a133ff;stop-opacity:1" offset="1"/></linearGradient><linearGradient xlink:href="#a" id="d" x1="8.575" y1="17.073" x2="23.294" y2="52.14" gradientUnits="userSpaceOnUse"/><radialGradient xlink:href="#b" id="c" gradientUnits="userSpaceOnUse" gradientTransform="matrix(7.1618 0 0 1.7511 -106.66 -1.9)" cx="17.31" cy="2.53" fx="17.31" fy="2.53" r="14.544"/></defs><g transform="translate(-65.587 -37.192) scale(.97573)" style="opacity:.296765"><rect style="fill:none;fill-opacity:1;stroke:#000;stroke-width:.1;stroke-linecap:round;stroke-linejoin:round;stroke-miterlimit:4;stroke-dasharray:none;stroke-opacity:.02" width="29.811" height="29.811" x="69.84" y="40.71" rx="6.61" ry="6.61"/><rect ry="6.61" rx="6.61" y="40.71" x="69.84" height="29.811" width="29.811" style="fill:none;fill-opacity:1;stroke:#000;stroke-width:.2;stroke-linecap:round;stroke-linejoin:round;stroke-miterlimit:4;stroke-dasharray:none;stroke-opacity:.02"/><rect style="fill:none;fill-opacity:1;stroke:#000;stroke-width:.3;stroke-linecap:round;stroke-linejoin:round;stroke-miterlimit:4;stroke-dasharray:none;stroke-opacity:.02" width="29.811" height="29.811" x="69.84" y="40.71" rx="6.61" ry="6.61"/><rect ry="6.61" rx="6.61" y="40.71" x="69.84" height="29.811" width="29.811" style="fill:none;fill-opacity:1;stroke:#000;stroke-width:.4;stroke-linecap:round;stroke-linejoin:round;stroke-miterlimit:4;stroke-dasharray:none;stroke-opacity:.02"/><rect style="fill:none;fill-opacity:1;stroke:#000;stroke-width:.5;stroke-linecap:round;stroke-linejoin:round;stroke-miterlimit:4;stroke-dasharray:none;stroke-opacity:.02" width="29.811" height="29.811" x="69.84" y="40.71" rx="6.61" ry="6.61"/><rect ry="6.61" rx="6.61" y="40.71" x="69.84" height="29.811" width="29.811" style="fill:none;fill-opacity:1;stroke:#000;stroke-width:.6;stroke-linecap:round;stroke-linejoin:round;stroke-miterlimit:4;stroke-dasharray:none;stroke-opacity:.02"/><rect style="fill:none;fill-opacity:1;stroke:#000;stroke-width:.7;stroke-linecap:round;stroke-linejoin:round;stroke-miterlimit:4;stroke-dasharray:none;stroke-opacity:.02" width="29.811" height="29.811" x="69.84" y="40.71" rx="6.61" ry="6.61"/><rect ry="6.61" rx="6.61" y="40.71" x="69.84" height="29.811" width="29.811" style="fill:none;fill-opacity:1;stroke:#000;stroke-width:.8;stroke-linecap:round;stroke-linejoin:round;stroke-miterlimit:4;stroke-dasharray:none;stroke-opacity:.02"/><rect style="fill:none;fill-opacity:1;stroke:#000;stroke-width:1;stroke-linecap:round;stroke-linejoin:round;stroke-miterlimit:4;stroke-dasharray:none;stroke-opacity:.02" width="29.811" height="29.811" x="69.84" y="40.71" rx="6.61" ry="6.61"/><rect ry="6.61" rx="6.61" y="40.71" x="69.84" height="29.811" width="29.811" style="fill:none;fill-opacity:1;stroke:#000;stroke-width:1.2;stroke-linecap:round;stroke-linejoin:round;stroke-miterlimit:4;stroke-dasharray:none;stroke-opacity:.02"/><rect style="fill:none;fill-opacity:1;stroke:#000;stroke-width:1.4;stroke-linecap:round;stroke-linejoin:round;stroke-miterlimit:4;stroke-dasharray:none;stroke-opacity:.02" width="29.811" height="29.811" x="69.84" y="40.71" rx="6.61" ry="6.61"/><rect ry="6.61" rx="6.61" y="40.71" x="69.84" height="29.811" width="29.811" style="fill:none;fill-opacity:1;stroke:#000;stroke-width:1.6;stroke-linecap:round;stroke-linejoin:round;stroke-miterlimit:4;stroke-dasharray:none;stroke-opacity:.02"/><rect style="fill:none;fill-opacity:1;stroke:#000;stroke-width:1.8;stroke-linecap:round;stroke-linejoin:round;stroke-miterlimit:4;stroke-dasharray:none;stroke-opacity:.02" width="29.811" height="29.811" x="69.84" y="40.71" rx="6.61" ry="6.61"/><rect ry="6.61" rx="6.61" y="40.71" x="69.84" height="29.811" width="29.811" style="fill:none;fill-opacity:1;stroke:#000;stroke-width:2;stroke-linecap:round;stroke-linejoin:round;stroke-miterlimit:4;stroke-dasharray:none;stroke-opacity:.02"/><rect style="fill:none;fill-opacity:1;stroke:#000;stroke-width:2.2;stroke-linecap:round;stroke-linejoin:round;stroke-miterlimit:4;stroke-dasharray:none;stroke-opacity:.02" width="29.811" height="29.811" x="69.84" y="40.71" rx="6.61" ry="6.61"/><rect ry="6.61" rx="6.61" y="40.71" x="69.84" height="29.811" width="29.811" style="fill:none;fill-opacity:1;stroke:#000;stroke-width:2.6;stroke-linecap:round;stroke-linejoin:round;stroke-miterlimit:4;stroke-dasharray:none;stroke-opacity:.02"/><rect style="fill:none;fill-opacity:1;stroke:#000;stroke-width:3;stroke-linecap:round;stroke-linejoin:round;stroke-miterlimit:4;stroke-dasharray:none;stroke-opacity:.02" width="29.811" height="29.811" x="69.84" y="40.71" rx="6.61" ry="6.61"/><rect ry="6.61" rx="6.61" y="40.71" x="69.84" height="29.811" width="29.811" style="fill:none;fill-opacity:1;stroke:#000;stroke-width:3.4;stroke-linecap:round;stroke-linejoin:round;stroke-miterlimit:4;stroke-dasharray:none;stroke-opacity:.02"/><rect style="fill:none;fill-opacity:1;stroke:#000;stroke-width:3.8;stroke-linecap:round;stroke-linejoin:round;stroke-miterlimit:4;stroke-dasharray:none;stroke-opacity:.02" width="29.811" height="29.811" x="69.84" y="40.71" rx="6.61" ry="6.61"/><rect ry="6.61" rx="6.61" y="40.71" x="69.84" height="29.811" width="29.811" style="fill:none;fill-opacity:1;stroke:#000;stroke-width:4.2;stroke-linecap:round;stroke-linejoin:round;stroke-miterlimit:4;stroke-dasharray:none;stroke-opacity:.02"/><rect style="fill:none;fill-opacity:1;stroke:#000;stroke-width:4.6;stroke-linecap:round;stroke-linejoin:round;stroke-miterlimit:4;stroke-dasharray:none;stroke-opacity:.02" width="29.811" height="29.811" x="69.84" y="40.71" rx="6.61" ry="6.61"/><rect ry="6.61" rx="6.61" y="40.71" x="69.84" height="29.811" width="29.811" style="fill:none;fill-opacity:1;stroke:#000;stroke-width:5;stroke-linecap:round;stroke-linejoin:round;stroke-miterlimit:4;stroke-dasharray:none;stroke-opacity:.02"/></g><rect style="fill:url(#c);fill-opacity:1;stroke-width:2.68769;stroke-linecap:round;stroke-linejoin:round" width="29.087" height="29.087" x="2.558" y="2.529" rx="6.449" ry="6.449"/><g fill="#fff" fill-rule="evenodd"><path d="M15.6 8.803c-3.677.174-6.554 3.509-6.407 5.32.142 1.766 4.613 3.315 4.56 3.367a72.557 72.557 0 0 0-2.28 1.992c-1.837 1.679-3.105 2.922-2.462 4.67.743 2.014 2.366 1.93 4.271 1.557 4.918-.97 13.01-7.191 12.599-9.484-.334-1.859-4.858-5.53-7.531-6.844a5.658 5.658 0 0 0-2.75-.578Zm.76 3.185c.46-.042.995.073 1.592.364 1.304.629 2.655 2.303 0 3.256-.722.259-3.038-.623-2.967-1.846.063-1.129.607-1.701 1.375-1.774z" style="fill:#2d024e;fill-opacity:.07679119;stroke-width:2.0222"/><path d="M16.45 9.998c-3.677.174-6.554 3.508-6.407 5.32.142 1.766 4.613 3.315 4.56 3.367a72.557 72.557 0 0 0-2.28 1.992c-1.837 1.679-3.105 2.922-2.462 4.67.742 2.014 2.366 1.93 4.271 1.557 4.918-.971 13.009-7.191 12.599-9.485-.334-1.858-4.858-5.528-7.531-6.843a5.658 5.658 0 0 0-2.75-.578Zm.76 3.185c.459-.043.995.073 1.591.364 1.305.629 2.656 2.303 0 3.256-.722.258-3.037-.623-2.966-1.847.063-1.128.606-1.7 1.375-1.773z" style="fill:#2d024e;fill-opacity:.03070262;stroke-width:2.0222"/><path d="M15.795 9.1c-3.676.175-6.554 3.51-6.406 5.321.142 1.766 4.613 3.315 4.56 3.367a72.557 72.557 0 0 0-2.28 1.992c-1.837 1.678-3.105 2.922-2.462 4.67.742 2.013 2.366 1.93 4.271 1.556 4.918-.97 13.009-7.19 12.598-9.484-.333-1.858-4.857-5.529-7.53-6.843a5.658 5.658 0 0 0-2.75-.578Zm.76 3.186c.46-.043.996.072 1.592.364 1.305.629 2.655 2.303 0 3.255-.722.26-3.037-.622-2.966-1.846.062-1.128.606-1.7 1.375-1.773z" style="fill:#2d024e;fill-opacity:.06365192;stroke-width:2.0222"/><path d="M16.145 9.519c-3.677.174-6.554 3.508-6.407 5.32.142 1.765 4.613 3.314 4.56 3.367a72.557 72.557 0 0 0-2.28 1.992c-1.837 1.678-3.105 2.922-2.462 4.67.743 2.013 2.366 1.93 4.271 1.556 4.918-.97 13.01-7.19 12.599-9.484-.334-1.858-4.858-5.529-7.531-6.843a5.658 5.658 0 0 0-2.75-.578Zm.76 3.185c.46-.043.995.072 1.592.364 1.304.629 2.655 2.303 0 3.255-.722.26-3.038-.622-2.967-1.846.063-1.128.607-1.7 1.375-1.773z" style="fill:#2d024e;fill-opacity:.0636519;stroke-width:2.0222"/><path d="M16.734 10.53c-3.676.174-6.554 3.509-6.406 5.32.142 1.766 4.613 3.315 4.56 3.367a72.557 72.557 0 0 0-2.281 1.992c-1.836 1.679-3.104 2.922-2.461 4.67.742 2.014 2.366 1.93 4.27 1.557 4.919-.97 13.01-7.191 12.6-9.484-.334-1.859-4.858-5.53-7.531-6.844a5.658 5.658 0 0 0-2.75-.578zm.76 3.185c.46-.042.996.073 1.592.364 1.305.629 2.655 2.303 0 3.256-.722.259-3.037-.623-2.966-1.847.062-1.128.606-1.7 1.375-1.773z" style="fill:#2d024e;fill-opacity:.0307026;stroke-width:2.0222"/></g><path d="M15.332 8.518c-3.676.174-6.553 3.508-6.406 5.32.142 1.765 4.613 3.314 4.56 3.367a72.557 72.557 0 0 0-2.28 1.992c-1.837 1.678-3.105 2.922-2.462 4.67.742 2.013 2.366 1.93 4.271 1.556 4.918-.97 13.009-7.19 12.598-9.484-.333-1.858-4.857-5.529-7.53-6.843a5.658 5.658 0 0 0-2.75-.578Zm.76 3.185c.46-.043.996.072 1.592.364 1.305.629 2.656 2.303 0 3.255-.722.26-3.037-.622-2.966-1.846.062-1.128.606-1.7 1.375-1.773z" fill="#fff" fill-rule="evenodd" style="fill:url(#d);stroke-width:2.0222;fill-opacity:1"/></svg>