<?xml version="1.0" encoding="UTF-8"?>
<svg id="svg1443" width="128" height="128" version="1.1" viewBox="0 0 33.867 33.867" xmlns="http://www.w3.org/2000/svg" xmlns:cc="http://creativecommons.org/ns#" xmlns:dc="http://purl.org/dc/elements/1.1/" xmlns:rdf="http://www.w3.org/1999/02/22-rdf-syntax-ns#" xmlns:xlink="http://www.w3.org/1999/xlink">
 <defs id="defs1437">
  <radialGradient id="radialGradient2037" cx="16.811" cy="2.5144" r="14.544" gradientTransform="matrix(37.826 0 0 2.094 -619.1 -2.7507)" gradientUnits="userSpaceOnUse">
   <stop id="stop2029" stop-color="#e53001" offset="0"/>
   <stop id="stop2031" stop-color="#c74c00" offset="1"/>
  </radialGradient>
  <linearGradient id="linearGradient2556" x1="35.256" x2="35.256" y1="62.444" y2="159.31" gradientUnits="userSpaceOnUse">
   <stop id="stop2550" stop-color="#fef9fa" offset="0"/>
   <stop id="stop2552" stop-color="#ca4a00" offset="1"/>
  </linearGradient>
  <linearGradient id="linearGradient3713" x1="9.989" x2="9.989" y1="5.7487" y2="14.78" gradientTransform="scale(3.7795)" gradientUnits="userSpaceOnUse">
   <stop id="stop3707" stop-color="#2fa417" offset="0"/>
   <stop id="stop3709" stop-color="#92cf35" stop-opacity=".96863" offset="1"/>
  </linearGradient>
 </defs>
 <metadata id="metadata1440">
  <rdf:RDF>
   <cc:Work rdf:about="">
    <dc:format>image/svg+xml</dc:format>
    <dc:type rdf:resource="http://purl.org/dc/dcmitype/StillImage"/>
   </cc:Work>
  </rdf:RDF>
 </metadata>
 <g id="layer1">
  <g id="g1702" transform="matrix(.97573 0 0 .97573 -65.737 -37.183)" fill="none" opacity=".295" stroke="#000" stroke-linecap="round" stroke-linejoin="round" stroke-opacity=".02">
   <rect id="rect1634" x="69.84" y="40.71" width="29.811" height="29.811" rx="6.6099" ry="6.6099" stroke-width=".1"/>
   <rect id="rect1638" x="69.84" y="40.71" width="29.811" height="29.811" rx="6.6099" ry="6.6099" stroke-width=".2"/>
   <rect id="rect1640" x="69.84" y="40.71" width="29.811" height="29.811" rx="6.6099" ry="6.6099" stroke-width=".3"/>
   <rect id="rect1642" x="69.84" y="40.71" width="29.811" height="29.811" rx="6.6099" ry="6.6099" stroke-width=".4"/>
   <rect id="rect1644" x="69.84" y="40.71" width="29.811" height="29.811" rx="6.6099" ry="6.6099" stroke-width=".5"/>
   <rect id="rect1646" x="69.84" y="40.71" width="29.811" height="29.811" rx="6.6099" ry="6.6099" stroke-width=".6"/>
   <rect id="rect1648" x="69.84" y="40.71" width="29.811" height="29.811" rx="6.6099" ry="6.6099" stroke-width=".7"/>
   <rect id="rect1650" x="69.84" y="40.71" width="29.811" height="29.811" rx="6.6099" ry="6.6099" stroke-width=".8"/>
   <rect id="rect1652" x="69.84" y="40.71" width="29.811" height="29.811" rx="6.6099" ry="6.6099"/>
   <rect id="rect1654" x="69.84" y="40.71" width="29.811" height="29.811" rx="6.6099" ry="6.6099" stroke-width="1.2"/>
   <rect id="rect1656" x="69.84" y="40.71" width="29.811" height="29.811" rx="6.6099" ry="6.6099" stroke-width="1.4"/>
   <rect id="rect1658" x="69.84" y="40.71" width="29.811" height="29.811" rx="6.6099" ry="6.6099" stroke-width="1.6"/>
   <rect id="rect1660" x="69.84" y="40.71" width="29.811" height="29.811" rx="6.6099" ry="6.6099" stroke-width="1.8"/>
   <rect id="rect1662" x="69.84" y="40.71" width="29.811" height="29.811" rx="6.6099" ry="6.6099" stroke-width="2"/>
   <rect id="rect1664" x="69.84" y="40.71" width="29.811" height="29.811" rx="6.6099" ry="6.6099" stroke-width="2.2"/>
   <rect id="rect1666" x="69.84" y="40.71" width="29.811" height="29.811" rx="6.6099" ry="6.6099" stroke-width="2.6"/>
   <rect id="rect1668" x="69.84" y="40.71" width="29.811" height="29.811" rx="6.6099" ry="6.6099" stroke-width="3"/>
   <rect id="rect1670" x="69.84" y="40.71" width="29.811" height="29.811" rx="6.6099" ry="6.6099" stroke-width="3.4"/>
   <rect id="rect1672" x="69.84" y="40.71" width="29.811" height="29.811" rx="6.6099" ry="6.6099" stroke-width="3.8"/>
   <rect id="rect1674" x="69.84" y="40.71" width="29.811" height="29.811" rx="6.6099" ry="6.6099" stroke-width="4.2"/>
   <rect id="rect1676" x="69.84" y="40.71" width="29.811" height="29.811" rx="6.6099" ry="6.6099" stroke-width="4.6"/>
   <rect id="rect1678" x="69.84" y="40.71" width="29.811" height="29.811" rx="6.6099" ry="6.6099" stroke-width="5"/>
  </g>
  <rect id="rect849" x="2.4074" y="2.5392" width="29.087" height="29.087" rx="6.4495" ry="6.4495" fill="url(#radialGradient2037)" stroke-linecap="round" stroke-linejoin="round" stroke-width="2.6877"/>
  <path id="path6" d="m13.394 7.0701c0.11126 0.13998 0.2671 0.27739 0.10225 0.4382-0.22722-0.14659-0.45723-0.29384-0.9969-0.39803 0.12161 0.14007 0.37336 0.27988 0.22092 0.41994-0.28532-0.11258-0.60012-0.19355-0.94943-0.24101 0.16726 0.14212 0.30689 0.28064 0.1698 0.39073-0.30532-0.097038-0.72645-0.22764-1.1375-0.11502l0.26109 0.27022c0.02888 0.036197-0.60896 0.028336-1.0298 0.034696 0.15359 0.22038 0.31025 0.43399 0.40168 0.81249-0.04171 0.043652-0.25071 0.019397-0.44732 0 0.2016 0.43847 0.55183 0.54817 0.63356 0.7358-0.12315 0.09633-0.29342 0.07098-0.48019 0.0055 0.14514 0.30893 0.44964 0.52163 0.69016 0.77232-0.0608 0.04459-0.16839 0.07107-0.41994 0.04018 0.22221 0.24401 0.49064 0.46765 0.80884 0.66825-0.05634 0.06727-0.24932 0.06309-0.42907 0.06756 0.28822 0.29144 0.65838 0.44291 1.006 0.63356-0.1733 0.1223-0.29637 0.09478-0.42907 0.09311 0.24588 0.20869 0.66354 0.31588 1.0517 0.44185-0.07382 0.11852-0.1471 0.15113-0.30491 0.18441 0.41082 0.23486 0.99891 0.12829 1.1649 0.24831-0.04007 0.11804-0.15306 0.19512-0.28848 0.25926 0.66137 0.03967 2.4705-0.02459 2.8172-1.4387-0.67704-0.76841-1.9129-1.6709-4.0387-2.7862 1.6538 0.57184 3.1458 1.3337 4.3947 2.3827 1.4683-0.70624 0.45522-2.488-0.26109-3.1952-0.03632 0.18673-0.07716 0.30479-0.12416 0.3396-0.23324-0.25828-0.42278-0.52196-0.72303-0.7705-9.34e-4 0.14597 0.07104 0.30412-0.10772 0.41994-0.16095-0.22374-0.37934-0.42395-0.66825-0.59341 0.13915 0.2479 0.023686 0.32267-0.051123 0.42542-0.22066-0.19549-0.42933-0.39257-0.83623-0.54593zm8.0336 0c-0.4069 0.15336-0.6174 0.35044-0.83805 0.54592-0.07482-0.10274-0.19028-0.17752-0.051123-0.42542-0.28891 0.16947-0.50547 0.36968-0.66643 0.59339-0.17875-0.11582-0.10675-0.27396-0.10772-0.41994-0.30025 0.24854-0.49162 0.51221-0.72485 0.7705-0.046989-0.034819-0.087833-0.15286-0.12416-0.3396-0.71632 0.70717-1.7275 2.4889-0.25927 3.1952 1.2489-1.049 2.7409-1.8109 4.3947-2.3827-2.1258 1.1153-3.3617 2.0178-4.0387 2.7862 0.34673 1.4141 2.1559 1.4784 2.8172 1.4387-0.13542-0.06415-0.24841-0.14122-0.28848-0.25926 0.16595-0.12002 0.75406-0.01343 1.1649-0.24831-0.15781-0.03327-0.23292-0.0659-0.30674-0.18441 0.38813-0.12598 0.80761-0.23316 1.0535-0.44185-0.13269 0.0016-0.25759 0.02919-0.43089-0.09312 0.34765-0.19065 0.71963-0.34212 1.0079-0.63356-0.17975-0.0044-0.37455-2.87e-4 -0.43089-0.06756 0.3182-0.2006 0.58663-0.42424 0.80884-0.66825-0.25154 0.03089-0.35731 0.0044-0.41811-0.04018 0.24052-0.2507 0.54501-0.46339 0.69016-0.77232-0.18677 0.0655-0.35704 0.09086-0.48019-0.0055 0.08174-0.18763 0.43196-0.29734 0.63356-0.7358-0.19662 0.019397-0.40562 0.043652-0.44733 0 0.09142-0.3785 0.2481-0.59211 0.40168-0.81249-0.4208-0.00636-1.0586 0.0015-1.0298-0.034696l0.26109-0.27019c-0.41103-0.11262-0.83216 0.018002-1.1375 0.11502-0.13709-0.11008 0.002515-0.2486 0.1698-0.39073-0.34931 0.047451-0.66593 0.12843-0.95125 0.24101-0.15244-0.14007 0.099315-0.27988 0.22092-0.41994-0.53967 0.10419-0.76785 0.25145-0.99507 0.39803-0.16486-0.16081-0.008967-0.29821 0.10225-0.4382zm-4.0497 5.8262c-1.1733-0.03106-2.2997 0.88482-2.3024 1.4168-0.0034 0.64644 0.92724 1.3087 2.3097 1.3255 1.4117 0.01028 2.3124-0.5288 2.317-1.1959 0.0051-0.75582-1.2831-1.5581-2.3243-1.5465zm-3.5421 0.44915c-1.6292 0.03086-2.8749 1.1784-2.8172 3.0765 0.06466 0.83163 4.259-2.8961 3.5348-3.0199-0.24574-0.04222-0.48481-0.061-0.71755-0.0566zm6.8687 0.0639c-0.23274-0.0044-0.47364 0.01431-0.71937 0.0566-0.7242 0.12382 3.4719 3.8515 3.5366 3.0199 0.05761-1.8981-1.1881-3.0456-2.8172-3.0765zm-0.69198 2.3151a2.7282 2.2955 58.681 0 0-1.1996 0.32865 2.7282 2.2955 58.681 1 0 2.9706 4.5755 2.7282 2.2955 58.681 0 0-1.771-4.9042zm-5.2474 0.12781a2.2955 2.7282 31.319 0 0-1.771 4.9042 2.2955 2.7282 31.319 1 0 2.9706-4.5755 2.2955 2.7282 31.319 0 0-1.1996-0.32865zm9.0908 1.415c-1.1393-0.31064-0.38459 4.7955 0.54227 4.3765 1.0195-0.83455 1.348-3.2781-0.54227-4.3765zm-13.164 0.0639c-1.8902 1.0984-1.5618 3.5419-0.54227 4.3765 0.92686 0.419 1.6815-4.6871 0.54227-4.3765zm6.8213 3.2883a2.5464 2.3895 0 0 0-2.6219 2.3882 2.547 2.39 0 0 0 5.094 0 2.5464 2.3895 0 0 0-2.4722-2.3882zm5.5541 0.88735c-0.59671 0.0159-1.3084 0.59047-1.9847 1.3675-0.78801 0.93926-1.2267 2.6525-0.65182 3.2043 0.54965 0.42865 2.0249 0.36859 3.1148-1.1704 0.79142-1.0336 0.52692-2.7589 0.07486-3.2171-0.16788-0.13214-0.35432-0.18968-0.55322-0.18441zm-11.431 0.36698c-0.2137-0.0094-0.41403 0.03531-0.58974 0.14424-0.46998 0.36399-0.55618 1.6034 0.1132 2.8209 0.99253 1.4509 2.3901 1.5964 2.9651 1.2434 0.6078-0.46242 0.27552-2.0321-0.4528-2.925-0.62687-0.74018-1.3947-1.2556-2.0358-1.2836zm5.8134 4.2779c-1.0166-0.02588-2.5751 0.41461-2.5561 0.97864-0.01625 0.38469 1.2238 1.4943 2.4886 1.4387 1.2213 0.02142 2.4837-1.087 2.4667-1.5775-0.0026-0.50507-1.3761-0.88531-2.3991-0.83988z" opacity=".2" stroke-width=".46741"/>
  <path id="path8" transform="scale(.26458)" d="m50.623 24.955c0.42031 0.5291 1.0079 1.0465 0.38476 1.6543-0.8588-0.55402-1.722-1.1082-3.7617-1.502 0.45964 0.52938 1.4101 1.0585 0.83398 1.5879-1.0784-0.4255-2.2716-0.73472-3.5918-0.91406 0.63193 0.53716 1.1588 1.0644 0.64062 1.4805-1.154-0.36676-2.7434-0.8612-4.2969-0.43555l0.98438 1.0234c0.10916 0.13681-2.3021 0.10487-3.8926 0.12891 0.58048 0.83292 1.174 1.6378 1.5195 3.0684-0.15764 0.16499-0.94634 0.073311-1.6895 0 0.76194 1.6572 2.0857 2.076 2.3945 2.7852-0.46546 0.36436-1.1125 0.26906-1.8184 0.021485 0.5486 1.1676 1.7003 1.9685 2.6094 2.916-0.22982 0.16857-0.63132 0.26909-1.582 0.15234 0.83983 0.92225 1.854 1.7653 3.0566 2.5234-0.21295 0.25463-0.94564 0.24314-1.625 0.25977 1.0893 1.1015 2.4927 1.674 3.8066 2.3945-0.655 0.46224-1.1235 0.3537-1.625 0.34766 0.92933 0.78873 2.5096 1.1977 3.9766 1.6738-0.279 0.44793-0.55785 0.57152-1.1543 0.69726 1.5527 0.88739 3.7751 0.48192 4.4023 0.93555-0.15143 0.44617-0.57799 0.73606-1.0898 0.97852 2.4997 0.14994 9.336-0.094649 10.646-5.4395-2.5589-2.9042-7.229-6.3139-15.264-10.529 6.2507 2.1613 11.891 5.0433 16.611 9.0078 5.5493-2.6692 1.723-9.4015-0.98438-12.074-0.13726 0.70574-0.29318 1.1516-0.4707 1.2832-0.88151-0.97618-1.6015-1.9767-2.7363-2.916-0.003761 0.55171 0.26935 1.1502-0.40625 1.5879-0.60832-0.84553-1.4296-1.5997-2.5215-2.2402 0.52594 0.93694 0.089425 1.221-0.19336 1.6094-0.83397-0.73882-1.6262-1.4868-3.1641-2.0664zm30.361 0c-1.5379 0.57962-2.3301 1.3276-3.1641 2.0664-0.28275-0.38833-0.71734-0.67244-0.19141-1.6094-1.0919 0.64051-1.9151 1.3947-2.5234 2.2402-0.6756-0.43774-0.40251-1.0362-0.40625-1.5879-1.1348 0.93936-1.8548 1.9398-2.7363 2.916-0.1776-0.1316-0.33344-0.57746-0.4707-1.2832-2.7073 2.6728-6.5317 9.405-0.98242 12.074 4.7203-3.9646 10.361-6.8465 16.611-9.0078-8.0347 4.2154-12.707 7.625-15.266 10.529 1.3105 5.3448 8.1468 5.5894 10.646 5.4395-0.51185-0.24246-0.93841-0.53235-1.0898-0.97852 0.62722-0.45363 2.8516-0.048155 4.4043-0.93555-0.59644-0.12574-0.8753-0.24934-1.1543-0.69726 1.467-0.47613 3.0472-0.88509 3.9766-1.6738-0.5015 0.006047-0.97 0.11458-1.625-0.34766 1.3139-0.72057 2.7154-1.293 3.8047-2.3945-0.67936-0.01663-1.412-0.005139-1.625-0.25977 1.2026-0.75816 2.2188-1.6012 3.0586-2.5234-0.95071 0.11675-1.3522 0.016223-1.582-0.15234 0.90907-0.94751 2.0588-1.7484 2.6074-2.916-0.7059 0.24758-1.351 0.34287-1.8164-0.021485 0.30894-0.70916 1.6326-1.128 2.3945-2.7852-0.74312 0.073311-1.5318 0.16499-1.6895 0 0.34552-1.4306 0.93711-2.2354 1.5176-3.0684-1.5904-0.024038-3.9998 0.007901-3.8906-0.12891l0.98242-1.0234c-1.5535-0.42565-3.1429 0.068783-4.2969 0.43555-0.51812-0.41604 0.010641-0.94331 0.64258-1.4805-1.3202 0.17934-2.5134 0.48856-3.5918 0.91406-0.57615-0.52934 0.37435-1.0585 0.83398-1.5879-2.0397 0.3938-2.9049 0.94793-3.7637 1.502-0.62308-0.6078-0.035548-1.1252 0.38477-1.6543z" fill="url(#linearGradient3713)" stroke-width=".11928"/>
  <path id="path12" transform="scale(.26458)" d="m65.473 46.971c-4.3589-0.006516-8.4822 3.3839-8.4922 5.3633-0.012851 2.4432 3.5055 4.9443 8.7305 5.0078 5.3357 0.038853 8.7406-2.0021 8.7578-4.5234 0.019276-2.8566-4.852-5.8898-8.7871-5.8457-0.069291-0.001834-0.1398-0.001849-0.20898-0.001953zm-12.852 1.7012c-6.3191-0.035125-11.198 4.3268-10.977 11.629 0.24438 3.1432 16.1-10.946 13.363-11.414-0.81267-0.13964-1.6107-0.21053-2.3867-0.21484zm25.303 0.24023c-0.77603 0.004314-1.574 0.075202-2.3867 0.21484-2.7371 0.46795 13.119 14.557 13.363 11.414 0.22164-7.3021-4.6575-11.664-10.977-11.629zm-2.5664 8.748a10.311 8.676 58.681 0 0-4.252 1.25 10.311 8.676 58.681 1 0 11.229 17.293 10.311 8.676 58.681 0 0-6.9766-18.543zm-19.27 0.48047a8.676 10.311 31.319 0 0-6.9766 18.545 8.676 10.311 31.319 1 0 11.229-17.293 8.676 10.311 31.319 0 0-4.252-1.252zm33.695 5.3066c-3.7441 0.063165-0.96198 18.128 2.4316 16.594 3.8533-3.1542 5.0953-12.392-2.0488-16.543-0.13456-0.036689-0.26204-0.052819-0.38281-0.050781zm-48.99 0.24023c-0.12078-0.002037-0.24825 0.014092-0.38281 0.050781-7.1441 4.1515-5.9022 13.389-2.0488 16.543 3.3936 1.5342 6.1757-16.531 2.4316-16.594zm25.117 12.467a9.6242 9.031 0 0 0-9.625 9.0371 9.6242 9.031 0 1 0 19.25 0 9.6242 9.031 0 0 0-9.625-9.0371zm21.271 3.3672c-2.2553 0.059824-4.9439 2.233-7.5 5.1699-2.9783 3.55-4.6356 10.026-2.4629 12.111 2.0774 1.6201 7.6541 1.3926 11.773-4.4238 2.9912-3.9065 1.9879-10.43 0.2793-12.162-0.63452-0.49944-1.3381-0.71525-2.0898-0.69531zm-43.504 1.3828c-0.6946 0.014513-1.3447 0.18862-1.9258 0.54883-1.7763 1.3757-2.1022 6.0585 0.42774 10.66 3.7513 5.4839 9.0279 6.0334 11.201 4.6992 2.2972-1.7478 1.0437-7.676-1.709-11.051-2.468-2.9141-5.5134-4.9093-7.9941-4.8574zm23.014 16.156c-0.25039-0.001572-0.49858 0.002938-0.74023 0.013672-3.8422-0.097818-9.7336 1.5655-9.6621 3.6973-0.061432 1.454 4.6258 5.6493 9.4062 5.4395 4.616 0.08097 9.3844-4.1072 9.3203-5.9609-0.009531-1.7896-4.5684-3.1659-8.3242-3.1895z" fill="url(#linearGradient2556)" stroke-width=".13474"/>
 </g>
</svg>
