<?xml version="1.0" encoding="UTF-8"?>
<svg id="svg2" width="64" height="64" version="1.1" viewBox="0 0 16.933 16.933" xmlns="http://www.w3.org/2000/svg" xmlns:cc="http://creativecommons.org/ns#" xmlns:dc="http://purl.org/dc/elements/1.1/" xmlns:rdf="http://www.w3.org/1999/02/22-rdf-syntax-ns#">
 <defs id="defs2">
  <linearGradient id="linearGradient1115" x1="-29.448" x2="-29.448" y1="4.6371" y2="59.494" gradientTransform="matrix(.26458 0 0 .26458 .77867 -2.1828)" gradientUnits="userSpaceOnUse">
   <stop id="stop1" stop-color="#fff" offset="0"/>
   <stop id="stop2" stop-color="#ccd4da" offset="1"/>
  </linearGradient>
 </defs>
 <metadata id="metadata2">
  <rdf:RDF>
   <cc:Work rdf:about="">
    <dc:format>image/svg+xml</dc:format>
    <dc:type rdf:resource="http://purl.org/dc/dcmitype/StillImage"/>
    <dc:title/>
   </cc:Work>
  </rdf:RDF>
 </metadata>
 <g id="g2" transform="translate(16.073 2.1828)">
  <rect id="rect2" x="-14.883" y="-.99219" width="14.552" height="14.552" ry="3.4396" fill="url(#linearGradient1115)" image-rendering="optimizeSpeed" stroke-width=".12512"/>
  <path id="path2" d="m-6.7345 0.88234-1.8566 0.023021-0.37791 0.28163 0.03139 0.031678-1.2268 0.025907 0.09383-0.12616-2.7977-0.07635-0.0324 0.18996-0.03283 0.28322 0.18671 0.34774-0.09658 0.72441-0.16147 0.63086 0.09231 0.59868 0.02937 0.47361 0.18542 0.63065-0.06497 0.3164 0.02995 0.34702 0.21869 0.25284 0.06164 0.41024-0.40887 0.1567 0.05594 1.2603 0.25095 0.19126-0.16183 1.1025-0.12688 0.062938-0.10293 2.1115 0.11088-0.01345 0.26734 0.05574s0.32159 0.1141 0.38816 0.13738c0.06657 0.02147 0.1658-0.1015 0.1658-0.1015l0.26758 0.0012 0.22364-0.04312 0.12138 0.05687 0.11268-0.01166 0.27805-0.0199 0.13225-0.0557 0.05569 0.13405 0.0443-0.03313 0.12324-0.05575 0.25507-0.02001 0.05416 0.07774s0.31114 0.03477 0.42241 0.03528c0.11262 4.93e-4 0.090058-0.08923 0.090058-0.08923s0.033377-0.0089 0.087635 0.04635c0.056053 0.05657 0.1339-0.02236 0.1339-0.02236l0.11108-0.0558 0.078923 0.07965 0.077225 0.05667 0.2115-0.04498 0.34508 0.0015 0.077589-0.02262 0.32181 0.45918 0.02224-0.23235 0.52257 0.0024c0.044148 2.03e-4 0.022265 0.15507 0.022265 0.15507l0.34378-0.10924 0.17713 0.17876 0.36867-0.23257 0.20062-0.03241 0.38887-0.01939 0.5559 0.0026 0.63318 0.04705 0.16744-0.06591 0.12215-0.11206 0.3334 0.19164 0.24507-0.09934s0.26713 0.10168 0.31077 0.11406c0.044104 0.01061 0.4561-0.04386 0.4561-0.04386l0.25528-0.0655-0.16477-0.12239 0.11103-0.04544 0.46616 0.02332 0.62229 0.16278 0.00831-4.0724 0.00118-0.25678-0.15688 0.022256-0.20062 0.032417 5.552e-4 -0.12163 0.11309-0.10174 0.088459-0.1334 0.025165-0.47877-0.031737-0.34838-0.14222-0.42322-0.13298-0.17991-0.022209-0.16724 0.033841-0.11067 0.012317-0.033278 0.14441-0.05565 0.021429-0.056213-0.10996-0.18881 0.10073-0.057652 0.15901-0.094326 0.064315-0.56644 0.033264-0.37827 0.00607-1.3249-0.091516-0.37884 0.063598-0.40967 0.032255-0.15663-0.28278-0.12788-1.0672-0.195-0.15959 0.22092-0.060554-0.25391-2.0447-0.039107-0.065111 0.34658-0.50349 0.061211-0.060709-0.22012-0.44118-0.067345m-3.8455 1.5749 7.294 5.0069-0.58839 2.0718-1.38 0.037819-6.3494-6.8497m6.8257-0.14795 0.80037 0.42758-0.2306 1.5599-0.15698 0.045231-2.127-1.6374m-4.3087 4.0618 2.1686 2.1957-1.3148 0.46024-0.6877-0.047302-0.8432-0.71836" fill="#d63d20" stroke-width="1.1658"/>
 </g>
</svg>
