<?xml version="1.0" encoding="UTF-8"?>
<svg id="svg6" width="128" height="128" enable-background="new" version="1.1" viewBox="0 0 33.867 33.867" xmlns="http://www.w3.org/2000/svg" xmlns:cc="http://creativecommons.org/ns#" xmlns:dc="http://purl.org/dc/elements/1.1/" xmlns:rdf="http://www.w3.org/1999/02/22-rdf-syntax-ns#" xmlns:xlink="http://www.w3.org/1999/xlink">
 <metadata id="metadata99">
  <rdf:RDF>
   <cc:Work rdf:about="">
    <dc:format>image/svg+xml</dc:format>
    <dc:type rdf:resource="http://purl.org/dc/dcmitype/StillImage"/>
    <dc:title/>
   </cc:Work>
  </rdf:RDF>
 </metadata>
 <defs id="defs2">
  <linearGradient id="linearGradient1632" x1="132.21" x2="132.21" y1="42.152" y2="70.68" gradientTransform="matrix(.97573 0 0 .97573 -111.92 -37.203)" gradientUnits="userSpaceOnUse">
   <stop id="stop1626" stop-color="#111314" offset="0"/>
   <stop id="stop1628" stop-color="#586471" offset="1"/>
  </linearGradient>
  <filter id="filter1_d" x="27.204" y="29.048" width="78.356" height="71.952" color-interpolation-filters="sRGB" filterUnits="userSpaceOnUse">
   <feFlood id="feFlood1046" flood-opacity="0" result="BackgroundImageFix"/>
   <feColorMatrix id="feColorMatrix1048" in="SourceAlpha" values="0 0 0 0 0 0 0 0 0 0 0 0 0 0 0 0 0 0 127 0"/>
   <feOffset id="feOffset1050" dy="4"/>
   <feGaussianBlur id="feGaussianBlur1052" stdDeviation="6"/>
   <feColorMatrix id="feColorMatrix1054" values="0 0 0 0 0 0 0 0 0 0 0 0 0 0 0 0 0 0 0.33 0"/>
   <feBlend id="feBlend1056" in2="BackgroundImageFix" mode="darken" result="effect1_dropShadow"/>
   <feBlend id="feBlend1058" in="SourceGraphic" in2="effect1_dropShadow" result="shape"/>
  </filter>
 </defs>
 <g id="layer1">
  <g id="g1702" transform="matrix(.97573 0 0 .97573 -65.748 -37.203)" fill="none" opacity=".29677" stroke="#000" stroke-linecap="round" stroke-linejoin="round" stroke-opacity=".02">
   <rect id="rect1634" x="69.84" y="40.71" width="29.811" height="29.811" rx="6.6099" ry="6.6099" stroke-width=".1"/>
   <rect id="rect1638" x="69.84" y="40.71" width="29.811" height="29.811" rx="6.6099" ry="6.6099" stroke-width=".2"/>
   <rect id="rect1640" x="69.84" y="40.71" width="29.811" height="29.811" rx="6.6099" ry="6.6099" stroke-width=".3"/>
   <rect id="rect1642" x="69.84" y="40.71" width="29.811" height="29.811" rx="6.6099" ry="6.6099" stroke-width=".4"/>
   <rect id="rect1644" x="69.84" y="40.71" width="29.811" height="29.811" rx="6.6099" ry="6.6099" stroke-width=".5"/>
   <rect id="rect1646" x="69.84" y="40.71" width="29.811" height="29.811" rx="6.6099" ry="6.6099" stroke-width=".6"/>
   <rect id="rect1648" x="69.84" y="40.71" width="29.811" height="29.811" rx="6.6099" ry="6.6099" stroke-width=".7"/>
   <rect id="rect1650" x="69.84" y="40.71" width="29.811" height="29.811" rx="6.6099" ry="6.6099" stroke-width=".8"/>
   <rect id="rect1652" x="69.84" y="40.71" width="29.811" height="29.811" rx="6.6099" ry="6.6099"/>
   <rect id="rect1654" x="69.84" y="40.71" width="29.811" height="29.811" rx="6.6099" ry="6.6099" stroke-width="1.2"/>
   <rect id="rect1656" x="69.84" y="40.71" width="29.811" height="29.811" rx="6.6099" ry="6.6099" stroke-width="1.4"/>
   <rect id="rect1658" x="69.84" y="40.71" width="29.811" height="29.811" rx="6.6099" ry="6.6099" stroke-width="1.6"/>
   <rect id="rect1660" x="69.84" y="40.71" width="29.811" height="29.811" rx="6.6099" ry="6.6099" stroke-width="1.8"/>
   <rect id="rect1662" x="69.84" y="40.71" width="29.811" height="29.811" rx="6.6099" ry="6.6099" stroke-width="2"/>
   <rect id="rect1664" x="69.84" y="40.71" width="29.811" height="29.811" rx="6.6099" ry="6.6099" stroke-width="2.2"/>
   <rect id="rect1666" x="69.84" y="40.71" width="29.811" height="29.811" rx="6.6099" ry="6.6099" stroke-width="2.6"/>
   <rect id="rect1668" x="69.84" y="40.71" width="29.811" height="29.811" rx="6.6099" ry="6.6099" stroke-width="3"/>
   <rect id="rect1670" x="69.84" y="40.71" width="29.811" height="29.811" rx="6.6099" ry="6.6099" stroke-width="3.4"/>
   <rect id="rect1672" x="69.84" y="40.71" width="29.811" height="29.811" rx="6.6099" ry="6.6099" stroke-width="3.8"/>
   <rect id="rect1674" x="69.84" y="40.71" width="29.811" height="29.811" rx="6.6099" ry="6.6099" stroke-width="4.2"/>
   <rect id="rect1676" x="69.84" y="40.71" width="29.811" height="29.811" rx="6.6099" ry="6.6099" stroke-width="4.6"/>
   <rect id="rect1678" x="69.84" y="40.71" width="29.811" height="29.811" rx="6.6099" ry="6.6099" stroke-width="5"/>
  </g>
  <rect id="rect849" x="2.2573" y="2.5186" width="29.087" height="29.087" rx="6.4495" ry="6.4495" fill="url(#linearGradient1632)" stroke-linecap="round" stroke-linejoin="round" stroke-width="2.6877"/>
  <path id="path1025" transform="matrix(.26458 0 0 .26458 -.76256 1.4644)" d="m87.944 37.048c1.776 0 3.144 0.384 4.104 1.152 1.008 0.768 1.512 1.824 1.512 3.168 0 0.672-0.096 1.32-0.288 1.944l-1.872 6.696c-0.336 1.248-0.888 2.136-1.656 2.664s-1.776 0.792-3.024 0.792c-1.2 0-2.16-0.24-2.88-0.72-0.72-0.528-1.248-1.368-1.584-2.52l-1.152-4.104c-0.192-0.72-0.432-1.2-0.72-1.44s-0.888-0.36-1.8-0.36h-7.2l-4.032 14.256h1.368c0.672 0 1.248-0.096 1.728-0.288 0.528-0.192 1.08-0.552 1.656-1.08l2.232-1.872c0.816-0.72 1.536-1.224 2.16-1.512 0.672-0.336 1.368-0.504 2.088-0.504 0.912 0 1.656 0.264 2.232 0.792 0.624 0.528 0.936 1.272 0.936 2.232 0 0.384-0.072 0.84-0.216 1.368l-3.168 10.944c-0.72 2.352-2.016 3.528-3.888 3.528-1.536 0-2.736-0.792-3.6-2.376l-1.296-2.448c-0.336-0.672-0.648-1.104-0.936-1.296s-0.72-0.288-1.296-0.288h-2.088l-3.024 10.728c-0.096 0.288-0.144 0.672-0.144 1.152 0 0.672 0.144 1.224 0.432 1.656 0.336 0.432 0.816 0.888 1.44 1.368 0.528 0.432 0.888 0.792 1.08 1.08 0.192 0.24 0.288 0.552 0.288 0.936 0 0.864-0.384 1.464-1.152 1.8s-1.896 0.504-3.384 0.504h-18.072c-1.248 0-2.184-0.216-2.808-0.648-0.624-0.48-0.84-1.128-0.648-1.944 0.096-0.432 0.288-0.768 0.576-1.008 0.24-0.288 0.624-0.6 1.152-0.936 0.816-0.48 1.464-0.984 1.944-1.512s0.864-1.344 1.152-2.448l8.856-31.032c0.192-0.624 0.288-1.2 0.288-1.728 0-0.576-0.096-1.056-0.288-1.44-0.144-0.384-0.384-0.792-0.72-1.224-0.432-0.624-0.648-1.128-0.648-1.512 0-0.144 0.048-0.408 0.144-0.792 0.192-0.624 0.624-1.056 1.296-1.296 0.672-0.288 1.656-0.432 2.952-0.432z" fill="#fff" filter="url(#filter1_d)"/>
 </g>
</svg>
