<?xml version="1.0" encoding="UTF-8"?>
<svg id="svg6" width="128" height="128" version="1.1" viewBox="0 0 33.867 33.867" xmlns="http://www.w3.org/2000/svg" xmlns:cc="http://creativecommons.org/ns#" xmlns:dc="http://purl.org/dc/elements/1.1/" xmlns:rdf="http://www.w3.org/1999/02/22-rdf-syntax-ns#" xmlns:xlink="http://www.w3.org/1999/xlink">
 <metadata id="metadata156">
  <rdf:RDF>
   <cc:Work rdf:about="">
    <dc:format>image/svg+xml</dc:format>
    <dc:type rdf:resource="http://purl.org/dc/dcmitype/StillImage"/>
    <dc:title/>
   </cc:Work>
  </rdf:RDF>
 </metadata>
 <defs id="defs2">
  <linearGradient id="linearGradient1632" x1="132.21" x2="132.21" y1="42.152" y2="70.68" gradientTransform="matrix(.97573 0 0 .97573 -111.77 -37.203)" gradientUnits="userSpaceOnUse">
   <stop id="stop1626" stop-color="#0dd6e1" offset="0"/>
   <stop id="stop1628" stop-color="#009fb5" offset="1"/>
  </linearGradient>
  <linearGradient id="linearGradient6673" x1="53.723" x2="53.723" y1="-25.714" y2="-14.273" gradientTransform="translate(-36.458 36.916)" gradientUnits="userSpaceOnUse">
   <stop id="stop6667" stop-color="#e9f0f3" offset="0"/>
   <stop id="stop6669" stop-color="#c9dde5" offset="1"/>
  </linearGradient>
  <linearGradient id="linearGradient6846" x1="53.723" x2="53.723" y1="-25.714" y2="-14.273" gradientTransform="translate(-36.458 36.916)" gradientUnits="userSpaceOnUse">
   <stop id="stop6940" stop-color="#f1f6f8" offset="0"/>
   <stop id="stop6942" stop-color="#eeeff2" offset="1"/>
  </linearGradient>
  <linearGradient id="linearGradient6938" x1="51.106" x2="51.106" y1="22.664" y2="18.109" gradientUnits="userSpaceOnUse">
   <stop id="stop6932" stop-color="#fff" offset="0"/>
   <stop id="stop6934" stop-color="#eeeff2" offset="1"/>
  </linearGradient>
 </defs>
 <g id="layer1">
  <g id="g1702" transform="matrix(.97573 0 0 .97573 -65.748 -37.203)" fill="none" opacity=".29677" stroke="#000" stroke-linecap="round" stroke-linejoin="round" stroke-opacity=".02">
   <rect id="rect1634" x="69.84" y="40.71" width="29.811" height="29.811" rx="6.6099" ry="6.6099" stroke-width=".1"/>
   <rect id="rect1638" x="69.84" y="40.71" width="29.811" height="29.811" rx="6.6099" ry="6.6099" stroke-width=".2"/>
   <rect id="rect1640" x="69.84" y="40.71" width="29.811" height="29.811" rx="6.6099" ry="6.6099" stroke-width=".3"/>
   <rect id="rect1642" x="69.84" y="40.71" width="29.811" height="29.811" rx="6.6099" ry="6.6099" stroke-width=".4"/>
   <rect id="rect1644" x="69.84" y="40.71" width="29.811" height="29.811" rx="6.6099" ry="6.6099" stroke-width=".5"/>
   <rect id="rect1646" x="69.84" y="40.71" width="29.811" height="29.811" rx="6.6099" ry="6.6099" stroke-width=".6"/>
   <rect id="rect1648" x="69.84" y="40.71" width="29.811" height="29.811" rx="6.6099" ry="6.6099" stroke-width=".7"/>
   <rect id="rect1650" x="69.84" y="40.71" width="29.811" height="29.811" rx="6.6099" ry="6.6099" stroke-width=".8"/>
   <rect id="rect1652" x="69.84" y="40.71" width="29.811" height="29.811" rx="6.6099" ry="6.6099"/>
   <rect id="rect1654" x="69.84" y="40.71" width="29.811" height="29.811" rx="6.6099" ry="6.6099" stroke-width="1.2"/>
   <rect id="rect1656" x="69.84" y="40.71" width="29.811" height="29.811" rx="6.6099" ry="6.6099" stroke-width="1.4"/>
   <rect id="rect1658" x="69.84" y="40.71" width="29.811" height="29.811" rx="6.6099" ry="6.6099" stroke-width="1.6"/>
   <rect id="rect1660" x="69.84" y="40.71" width="29.811" height="29.811" rx="6.6099" ry="6.6099" stroke-width="1.8"/>
   <rect id="rect1662" x="69.84" y="40.71" width="29.811" height="29.811" rx="6.6099" ry="6.6099" stroke-width="2"/>
   <rect id="rect1664" x="69.84" y="40.71" width="29.811" height="29.811" rx="6.6099" ry="6.6099" stroke-width="2.2"/>
   <rect id="rect1666" x="69.84" y="40.71" width="29.811" height="29.811" rx="6.6099" ry="6.6099" stroke-width="2.6"/>
   <rect id="rect1668" x="69.84" y="40.71" width="29.811" height="29.811" rx="6.6099" ry="6.6099" stroke-width="3"/>
   <rect id="rect1670" x="69.84" y="40.71" width="29.811" height="29.811" rx="6.6099" ry="6.6099" stroke-width="3.4"/>
   <rect id="rect1672" x="69.84" y="40.71" width="29.811" height="29.811" rx="6.6099" ry="6.6099" stroke-width="3.8"/>
   <rect id="rect1674" x="69.84" y="40.71" width="29.811" height="29.811" rx="6.6099" ry="6.6099" stroke-width="4.2"/>
   <rect id="rect1676" x="69.84" y="40.71" width="29.811" height="29.811" rx="6.6099" ry="6.6099" stroke-width="4.6"/>
   <rect id="rect1678" x="69.84" y="40.71" width="29.811" height="29.811" rx="6.6099" ry="6.6099" stroke-width="5"/>
  </g>
  <rect id="rect849" x="2.4065" y="2.5186" width="29.087" height="29.087" rx="6.4495" ry="6.4495" fill="url(#linearGradient1632)" stroke-linecap="round" stroke-linejoin="round" stroke-width="2.6877"/>
  <g id="g6784" transform="matrix(.94776 0 0 1.2738 -50.926 -6.1409)" fill="none" opacity=".71043" stroke="#000" stroke-linecap="round" stroke-linejoin="round" stroke-opacity=".02">
   <rect id="rect6721" x="61.854" y="14.096" width="19.528" height="8.8144" rx="1.1092" ry="1.1092" opacity="1" stroke-width=".1"/>
   <rect id="rect6723" x="61.854" y="14.096" width="19.528" height="8.8144" rx="1.1092" ry="1.1092" opacity="1" stroke-width=".2"/>
   <rect id="rect6725" x="61.854" y="14.096" width="19.528" height="8.8144" rx="1.1092" ry="1.1092" opacity="1" stroke-width=".3"/>
   <rect id="rect6727" x="61.854" y="14.096" width="19.528" height="8.8144" rx="1.1092" ry="1.1092" opacity="1" stroke-width=".4"/>
   <rect id="rect6729" x="61.854" y="14.096" width="19.528" height="8.8144" rx="1.1092" ry="1.1092" opacity="1" stroke-width=".5"/>
   <rect id="rect6731" x="61.854" y="14.096" width="19.528" height="8.8144" rx="1.1092" ry="1.1092" opacity="1" stroke-width=".6"/>
   <rect id="rect6733" x="61.854" y="14.096" width="19.528" height="8.8144" rx="1.1092" ry="1.1092" opacity="1" stroke-width=".8"/>
   <rect id="rect6735" x="61.854" y="14.096" width="19.528" height="8.8144" rx="1.1092" ry="1.1092" opacity="1"/>
   <rect id="rect6737" x="61.854" y="14.096" width="19.528" height="8.8144" rx="1.1092" ry="1.1092" opacity="1" stroke-width="1.2"/>
   <rect id="rect6739" x="61.854" y="14.096" width="19.528" height="8.8144" rx="1.1092" ry="1.1092" opacity="1" stroke-width="1.4"/>
   <rect id="rect6741" x="61.854" y="14.096" width="19.528" height="8.8144" rx="1.1092" ry="1.1092" opacity="1" stroke-width="1.6"/>
   <rect id="rect6743" x="61.854" y="14.096" width="19.528" height="8.8144" rx="1.1092" ry="1.1092" opacity="1" stroke-width="1.8"/>
   <rect id="rect6745" x="61.854" y="14.096" width="19.528" height="8.8144" rx="1.1092" ry="1.1092" opacity="1" stroke-width="2"/>
   <rect id="rect6747" x="61.854" y="14.096" width="19.528" height="8.8144" rx="1.1092" ry="1.1092" opacity="1" stroke-width="2.2"/>
   <rect id="rect6749" x="61.854" y="14.096" width="19.528" height="8.8144" rx="1.1092" ry="1.1092" opacity="1" stroke-width="2.4"/>
   <rect id="rect6751" x="61.854" y="14.096" width="19.528" height="8.8144" rx="1.1092" ry="1.1092" opacity="1" stroke-width="2.6"/>
   <rect id="rect6753" x="61.854" y="14.096" width="19.528" height="8.8144" rx="1.1092" ry="1.1092" opacity="1" stroke-width="2.8"/>
   <rect id="rect6755" x="61.854" y="14.096" width="19.528" height="8.8144" rx="1.1092" ry="1.1092" opacity="1" stroke-width="3.1"/>
   <rect id="rect6757" x="61.854" y="14.096" width="19.528" height="8.8144" rx="1.1092" ry="1.1092" opacity="1" stroke-width="3.4"/>
   <rect id="rect6759" x="61.854" y="14.096" width="19.528" height="8.8144" rx="1.1092" ry="1.1092" opacity="1" stroke-width="3.7"/>
   <rect id="rect6761" x="61.854" y="14.096" width="19.528" height="8.8144" rx="1.1092" ry="1.1092" opacity="1" stroke-width="4"/>
  </g>
  <rect id="rect6665" x="6.75" y="10.069" width="20.372" height="12.994" rx="1.1571" ry="1.1571" fill="url(#linearGradient6673)"/>
  <rect id="rect6844" x="6.75" y="10.069" width="20.372" height="12.994" rx="1.1571" ry="1.1571" fill="url(#linearGradient6846)"/>
  <g id="g6930" transform="rotate(180 33.886 20.102)">
   <g id="g6926" opacity=".38818">
    <path id="path6906" transform="scale(.26458)" d="m157.75 64.846c-1.3012 0-2.4542 0.57261-3.2539 1.4688l29.85 29.85c4.1698 4.1698 10.885 4.1698 15.055 0l29.85-29.85c-0.79973-0.8956-1.9512-1.4688-3.252-1.4688z" fill="#fff" opacity=".71043"/>
    <path id="path6908" transform="scale(.26458)" d="m157.75 64.846c-1.3012 0-2.4542 0.57261-3.2539 1.4688l29.85 30.301c4.1384 4.201 10.916 4.201 15.055 0l29.85-30.301c-0.79973-0.8956-1.9512-1.4688-3.252-1.4688z" fill-opacity=".03" opacity="1"/>
    <path id="path6910" transform="scale(.26458)" d="m157.75 64.846c-1.3012 0-2.4542 0.57261-3.2539 1.4688l29.85 30.763c4.1065 4.2322 10.948 4.2322 15.055 0l29.85-30.763c-0.79973-0.8956-1.9512-1.4688-3.252-1.4688z" fill-opacity=".03" opacity="1"/>
    <path id="path6912" transform="scale(.26458)" d="m157.75 64.846c-1.3012 0-2.4542 0.57261-3.2539 1.4688l29.85 31.249c4.0732 4.2642 10.981 4.2642 15.055 0l29.85-31.249c-0.79973-0.8956-1.9512-1.4688-3.252-1.4688z" fill-opacity=".03" opacity="1"/>
    <path id="path6914" transform="scale(.26458)" d="m157.75 64.846c-1.3012 0-2.4542 0.57261-3.2539 1.4688l29.85 31.779c4.0372 4.2983 11.017 4.2983 15.055 0l29.85-31.779c-0.79973-0.8956-1.9512-1.4688-3.252-1.4688z" fill-opacity=".03" opacity="1"/>
    <path id="path6916" transform="scale(.26458)" d="m157.75 64.846c-1.3012 0-2.4542 0.57261-3.2539 1.4688l29.85 32.22c4.0077 4.3259 11.047 4.3259 15.055 0l29.85-32.22c-0.79973-0.8956-1.9512-1.4688-3.252-1.4688z" fill-opacity=".03" opacity="1"/>
    <path id="path6918" transform="scale(.26458)" d="m157.75 64.846c-1.3012 0-2.4542 0.57261-3.2539 1.4688l29.85 32.903c3.9622 4.3675 11.092 4.3675 15.055 0l29.85-32.903c-0.79973-0.8956-1.9512-1.4688-3.252-1.4688z" fill-opacity=".03" opacity="1"/>
    <path id="path6920" transform="scale(.26458)" d="m157.75 64.846c-1.3012 0-2.4542 0.57261-3.2539 1.4688l29.85 33.581c3.9178 4.4075 11.137 4.4075 15.055 0l29.85-33.581c-0.79973-0.8956-1.9512-1.4688-3.252-1.4688z" fill-opacity=".03" opacity="1"/>
    <path id="path6922" transform="scale(.26458)" d="m157.75 64.846c-1.3012 0-2.4542 0.57261-3.2539 1.4688l29.85 34.301c3.8711 4.4485 11.184 4.4485 15.055 0l29.85-34.301c-0.79973-0.8956-1.9512-1.4688-3.252-1.4688z" fill-opacity=".03" opacity="1"/>
    <path id="path6924" transform="scale(.26458)" d="m157.75 64.846c-1.3012 0-2.4542 0.57261-3.2539 1.4688l29.85 35.025c3.825 4.4882 11.23 4.4882 15.055 0l29.85-35.025c-0.79973-0.8956-1.9512-1.4688-3.252-1.4688z" fill-opacity=".03" opacity="1"/>
   </g>
   <path id="path6928" d="m41.738 17.157c-0.34426 0-0.64933 0.1515-0.86093 0.38861l7.8977 7.8977c1.1033 1.1033 2.88 1.1033 3.9832 0l7.8977-7.8977c-0.2116-0.23696-0.51627-0.38861-0.86041-0.38861z" fill="url(#linearGradient6938)"/>
  </g>
  <g id="g6890" transform="translate(-33.831 -7.0884)" opacity=".74199">
   <path id="rect6850" transform="scale(.26458)" d="m157.75 64.846c-1.3012 0-2.4542 0.57261-3.2539 1.4688l29.85 29.85c4.1698 4.1698 10.885 4.1698 15.055 0l29.85-29.85c-0.79973-0.8956-1.9512-1.4688-3.252-1.4688z" fill="#fff" opacity=".71043"/>
   <path id="path6860" transform="scale(.26458)" d="m157.75 64.846c-1.3012 0-2.4542 0.57261-3.2539 1.4688l29.85 30.301c4.1384 4.201 10.916 4.201 15.055 0l29.85-30.301c-0.79973-0.8956-1.9512-1.4688-3.252-1.4688z" fill-opacity=".03" opacity="1"/>
   <path id="path6862" transform="scale(.26458)" d="m157.75 64.846c-1.3012 0-2.4542 0.57261-3.2539 1.4688l29.85 30.763c4.1065 4.2322 10.948 4.2322 15.055 0l29.85-30.763c-0.79973-0.8956-1.9512-1.4688-3.252-1.4688z" fill-opacity=".03" opacity="1"/>
   <path id="path6864" transform="scale(.26458)" d="m157.75 64.846c-1.3012 0-2.4542 0.57261-3.2539 1.4688l29.85 31.249c4.0732 4.2642 10.981 4.2642 15.055 0l29.85-31.249c-0.79973-0.8956-1.9512-1.4688-3.252-1.4688z" fill-opacity=".03" opacity="1"/>
   <path id="path6866" transform="scale(.26458)" d="m157.75 64.846c-1.3012 0-2.4542 0.57261-3.2539 1.4688l29.85 31.779c4.0372 4.2983 11.017 4.2983 15.055 0l29.85-31.779c-0.79973-0.8956-1.9512-1.4688-3.252-1.4688z" fill-opacity=".03" opacity="1"/>
   <path id="path6868" transform="scale(.26458)" d="m157.75 64.846c-1.3012 0-2.4542 0.57261-3.2539 1.4688l29.85 32.22c4.0077 4.3259 11.047 4.3259 15.055 0l29.85-32.22c-0.79973-0.8956-1.9512-1.4688-3.252-1.4688z" fill-opacity=".03" opacity="1"/>
   <path id="path6870" transform="scale(.26458)" d="m157.75 64.846c-1.3012 0-2.4542 0.57261-3.2539 1.4688l29.85 32.903c3.9622 4.3675 11.092 4.3675 15.055 0l29.85-32.903c-0.79973-0.8956-1.9512-1.4688-3.252-1.4688z" fill-opacity=".03" opacity="1"/>
   <path id="path6872" transform="scale(.26458)" d="m157.75 64.846c-1.3012 0-2.4542 0.57261-3.2539 1.4688l29.85 33.581c3.9178 4.4075 11.137 4.4075 15.055 0l29.85-33.581c-0.79973-0.8956-1.9512-1.4688-3.252-1.4688z" fill-opacity=".03" opacity="1"/>
   <path id="path6874" transform="scale(.26458)" d="m157.75 64.846c-1.3012 0-2.4542 0.57261-3.2539 1.4688l29.85 34.301c3.8711 4.4485 11.184 4.4485 15.055 0l29.85-34.301c-0.79973-0.8956-1.9512-1.4688-3.252-1.4688z" fill-opacity=".03" opacity="1"/>
   <path id="path6876" transform="scale(.26458)" d="m157.75 64.846c-1.3012 0-2.4542 0.57261-3.2539 1.4688l29.85 35.025c3.825 4.4882 11.23 4.4882 15.055 0l29.85-35.025c-0.79973-0.8956-1.9512-1.4688-3.252-1.4688z" fill-opacity=".03" opacity="1"/>
  </g>
  <path id="path6878" d="m7.9074 10.069c-0.34426 0-0.64933 0.1515-0.86093 0.38861l7.8977 7.8977c1.1033 1.1033 2.88 1.1033 3.9832 0l7.8977-7.8977c-0.2116-0.23696-0.51627-0.38861-0.86041-0.38861z" fill="#fff"/>
 </g>
</svg>
