<?xml version="1.0" encoding="UTF-8"?>
<svg id="svg1443" width="128" height="128" version="1.1" viewBox="0 0 33.867 33.867" xmlns="http://www.w3.org/2000/svg" xmlns:cc="http://creativecommons.org/ns#" xmlns:dc="http://purl.org/dc/elements/1.1/" xmlns:rdf="http://www.w3.org/1999/02/22-rdf-syntax-ns#" xmlns:xlink="http://www.w3.org/1999/xlink">
 <defs id="defs1437">
  <radialGradient id="radialGradient870" cx="16.951" cy="2.8905" r="14.544" gradientTransform="matrix(7.6697 0 0 2.6553 -113.06 -4.7848)" gradientUnits="userSpaceOnUse">
   <stop id="stop1626" stop-color="#55e4b1" offset="0"/>
   <stop id="stop1628" stop-color="#64ba28" offset="1"/>
  </radialGradient>
 </defs>
 <metadata id="metadata1440">
  <rdf:RDF>
   <cc:Work rdf:about="">
    <dc:format>image/svg+xml</dc:format>
    <dc:type rdf:resource="http://purl.org/dc/dcmitype/StillImage"/>
    <dc:title/>
   </cc:Work>
  </rdf:RDF>
 </metadata>
 <g id="layer1">
  <g id="g1702" transform="matrix(.97573 0 0 .97573 -65.737 -37.183)" fill="none" opacity=".295" stroke="#000" stroke-linecap="round" stroke-linejoin="round" stroke-opacity=".02">
   <rect id="rect1634" x="69.84" y="40.71" width="29.811" height="29.811" rx="6.6099" ry="6.6099" stroke-width=".1"/>
   <rect id="rect1638" x="69.84" y="40.71" width="29.811" height="29.811" rx="6.6099" ry="6.6099" stroke-width=".2"/>
   <rect id="rect1640" x="69.84" y="40.71" width="29.811" height="29.811" rx="6.6099" ry="6.6099" stroke-width=".3"/>
   <rect id="rect1642" x="69.84" y="40.71" width="29.811" height="29.811" rx="6.6099" ry="6.6099" stroke-width=".4"/>
   <rect id="rect1644" x="69.84" y="40.71" width="29.811" height="29.811" rx="6.6099" ry="6.6099" stroke-width=".5"/>
   <rect id="rect1646" x="69.84" y="40.71" width="29.811" height="29.811" rx="6.6099" ry="6.6099" stroke-width=".6"/>
   <rect id="rect1648" x="69.84" y="40.71" width="29.811" height="29.811" rx="6.6099" ry="6.6099" stroke-width=".7"/>
   <rect id="rect1650" x="69.84" y="40.71" width="29.811" height="29.811" rx="6.6099" ry="6.6099" stroke-width=".8"/>
   <rect id="rect1652" x="69.84" y="40.71" width="29.811" height="29.811" rx="6.6099" ry="6.6099"/>
   <rect id="rect1654" x="69.84" y="40.71" width="29.811" height="29.811" rx="6.6099" ry="6.6099" stroke-width="1.2"/>
   <rect id="rect1656" x="69.84" y="40.71" width="29.811" height="29.811" rx="6.6099" ry="6.6099" stroke-width="1.4"/>
   <rect id="rect1658" x="69.84" y="40.71" width="29.811" height="29.811" rx="6.6099" ry="6.6099" stroke-width="1.6"/>
   <rect id="rect1660" x="69.84" y="40.71" width="29.811" height="29.811" rx="6.6099" ry="6.6099" stroke-width="1.8"/>
   <rect id="rect1662" x="69.84" y="40.71" width="29.811" height="29.811" rx="6.6099" ry="6.6099" stroke-width="2"/>
   <rect id="rect1664" x="69.84" y="40.71" width="29.811" height="29.811" rx="6.6099" ry="6.6099" stroke-width="2.2"/>
   <rect id="rect1666" x="69.84" y="40.71" width="29.811" height="29.811" rx="6.6099" ry="6.6099" stroke-width="2.6"/>
   <rect id="rect1668" x="69.84" y="40.71" width="29.811" height="29.811" rx="6.6099" ry="6.6099" stroke-width="3"/>
   <rect id="rect1670" x="69.84" y="40.71" width="29.811" height="29.811" rx="6.6099" ry="6.6099" stroke-width="3.4"/>
   <rect id="rect1672" x="69.84" y="40.71" width="29.811" height="29.811" rx="6.6099" ry="6.6099" stroke-width="3.8"/>
   <rect id="rect1674" x="69.84" y="40.71" width="29.811" height="29.811" rx="6.6099" ry="6.6099" stroke-width="4.2"/>
   <rect id="rect1676" x="69.84" y="40.71" width="29.811" height="29.811" rx="6.6099" ry="6.6099" stroke-width="4.6"/>
   <rect id="rect1678" x="69.84" y="40.71" width="29.811" height="29.811" rx="6.6099" ry="6.6099" stroke-width="5"/>
  </g>
  <rect id="rect849" x="2.4074" y="2.5392" width="29.087" height="29.087" rx="6.4495" ry="6.4495" fill="url(#radialGradient870)" stroke-linecap="round" stroke-linejoin="round" stroke-width="2.6877"/>
  <path id="path6" d="m19.95 6.1831a0.42029 0.42029 0 0 0 0.0012 0.83956c1.6146 0.15925 3.4824 1.3884 4.9588 2.9478 1.4764 1.5595 2.5557 3.4552 2.7333 4.7079a0.42045 0.42045 0 1 0 0.83252-0.11843c-0.2239-1.58-1.3923-3.5159-2.9561-5.1675-1.5637-1.6517-3.5285-3.0128-5.4853-3.2058a0.42029 0.42029 0 0 0-0.0422-0.00355 0.42029 0.42029 0 0 0-0.0422 0zm-0.60505 2.1622a0.42029 0.42029 0 0 0-0.03401 0.83722c1.5851 0.22468 3.037 1.2159 4.1568 2.4952 1.1198 1.2794 1.8952 2.8426 2.1482 4.0934a0.42048 0.42048 0 1 0 0.82432-0.1665c-0.29108-1.4391-1.1262-3.0931-2.3404-4.4804-1.2142-1.3873-2.8201-2.5119-4.6715-2.7743a0.42029 0.42029 0 0 0-0.08325-0.00463zm-0.58277 1.977a0.42029 0.42029 0 0 0-0.10202 0.81963c2.7384 0.92152 3.9655 2.875 4.8967 5.1722a0.42029 0.42029 0 1 0 0.77859-0.31542c-0.96779-2.3877-2.3937-4.639-5.4067-5.653a0.42029 0.42029 0 0 0-0.1665-0.02346zm-3.5236 0.01635c-0.28316 0.0022-0.59093 0.16215-0.9791 0.47372l-0.99317 0.90523 3.051 3.0663 0.83839-0.76452c0.86943-0.86032 0.72947-1.2819 0.23452-1.8855l-1.3203-1.3262c-0.29023-0.31544-0.54819-0.47129-0.83135-0.46903zm-2.7555 2.093-3.2363 2.9525c-1.6649 1.2858-2.9369 3.1367-3.3664 5.0538-0.372 1.8632 0.050805 4.6395 2.3557 6.6438 2.2413 1.949 4.8633 2.1416 6.5922 1.6181 1.7289-0.52346 2.8236-1.6275 2.8236-1.6275 0.0211-0.02088 0.043-0.04145 0.0633-0.06332l4.4839-4.8134-3.0487-3.0639-4.0372 4.4487c-1.7282 1.9042-3.2292 0.92778-4.0571 0.22513-0.95266-0.96673-1.5903-2.7708-0.39633-3.8601l4.8755-4.4476zm9.2633 4.4253c-0.3964-0.02398-0.73932 0.29501-1.1667 0.74224l-0.70706 0.75748 3.0487 3.0639 0.80204-0.86067c0.96634-0.94994 0.69527-1.2917 0.197-1.8632l-1.3731-1.38c-0.30709-0.3083-0.56303-0.44526-0.80087-0.45965z" opacity=".1" stroke-width=".60036"/>
  <path id="path8" d="m15.238 9.7383c-0.28316 0.0022-0.59147 0.1621-0.97964 0.47367l-0.9931 0.90505 3.0517 3.067 0.83824-0.76464c0.86943-0.86032 0.72892-1.2826 0.23397-1.8862l-1.3196-1.3263c-0.29024-0.31544-0.54835-0.47086-0.83151-0.4686zm-2.7554 2.0926-3.2359 2.9524c-1.6649 1.2858-2.9378 3.1373-3.3674 5.0543-0.372 1.8632 0.051622 4.639 2.3565 6.6432 2.2413 1.949 4.8626 2.1424 6.5915 1.6189 1.7289-0.52346 2.8245-1.6274 2.8245-1.6274 0.0211-0.02088 0.04196-0.04243 0.06229-0.06428l4.4841-4.8128-3.0483-3.0636-4.0378 4.4489c-1.7282 1.9042-3.229 0.9279-4.0569 0.22525-0.95266-0.96673-1.5895-2.7711-0.39556-3.8604l4.8746-4.4474zm9.2628 4.4254c-0.3964-0.02398-0.73909 0.29542-1.1665 0.74265l-0.70696 0.75787 3.0483 3.0636 0.8029-0.86107c0.96634-0.94994 0.69521-1.291 0.19693-1.8625l-1.3735-1.3804c-0.30709-0.3083-0.56338-0.44575-0.80122-0.46014z" fill="#f9fff8"/>
  <path id="path10" d="m23.946 15.556c-0.94947-2.3425-2.2765-4.4448-5.1523-5.4125" fill="none" stroke="#fff" stroke-linecap="round" stroke-width=".8405px"/>
  <path id="path12" d="m26.028 15.088c-0.54409-2.6899-3.2219-6.4347-6.6584-6.9218" fill="none" stroke="#fff" stroke-linecap="round" stroke-width=".8405px"/>
  <path id="path14" d="m28.059 14.019c-0.40142-2.8326-4.4954-7.6624-8.0667-8.0147" fill="none" stroke="#fff" stroke-linecap="round" stroke-width=".8405px"/>
 </g>
</svg>
