<?xml version="1.0" encoding="UTF-8"?>
<svg id="svg1443" width="128" height="128" version="1.1" viewBox="0 0 33.867 33.867" xmlns="http://www.w3.org/2000/svg" xmlns:cc="http://creativecommons.org/ns#" xmlns:dc="http://purl.org/dc/elements/1.1/" xmlns:rdf="http://www.w3.org/1999/02/22-rdf-syntax-ns#" xmlns:xlink="http://www.w3.org/1999/xlink">
 <defs id="defs1437">
  <linearGradient id="linearGradient1632" x1="132.21" x2="132.21" y1="42.152" y2="70.68" gradientTransform="matrix(.97573 0 0 .97573 -111.77 -37.183)" gradientUnits="userSpaceOnUse">
   <stop id="stop1626" stop-color="#fafafc" offset="0"/>
   <stop id="stop1628" stop-color="#e2e6ea" offset="1"/>
  </linearGradient>
  <linearGradient id="linearGradient885" x1="13.979" x2="13.979" y1="16.465" y2="55.683" gradientTransform="translate(-1.0484 .10678)" gradientUnits="userSpaceOnUse">
   <stop id="stop879" stop-color="#1d1d1d" offset="0"/>
   <stop id="stop881" stop-color="#1d1d1d" stop-opacity="0" offset="1"/>
  </linearGradient>
 </defs>
 <metadata id="metadata1440">
  <rdf:RDF>
   <cc:Work rdf:about="">
    <dc:format>image/svg+xml</dc:format>
    <dc:type rdf:resource="http://purl.org/dc/dcmitype/StillImage"/>
    <dc:title/>
   </cc:Work>
  </rdf:RDF>
 </metadata>
 <g id="layer1">
  <g id="g1702" transform="matrix(.97573 0 0 .97573 -65.737 -37.183)" fill="none" opacity=".295" stroke="#000" stroke-linecap="round" stroke-linejoin="round" stroke-opacity=".02">
   <rect id="rect1634" x="69.84" y="40.71" width="29.811" height="29.811" rx="6.6099" ry="6.6099" stroke-width=".1"/>
   <rect id="rect1638" x="69.84" y="40.71" width="29.811" height="29.811" rx="6.6099" ry="6.6099" stroke-width=".2"/>
   <rect id="rect1640" x="69.84" y="40.71" width="29.811" height="29.811" rx="6.6099" ry="6.6099" stroke-width=".3"/>
   <rect id="rect1642" x="69.84" y="40.71" width="29.811" height="29.811" rx="6.6099" ry="6.6099" stroke-width=".4"/>
   <rect id="rect1644" x="69.84" y="40.71" width="29.811" height="29.811" rx="6.6099" ry="6.6099" stroke-width=".5"/>
   <rect id="rect1646" x="69.84" y="40.71" width="29.811" height="29.811" rx="6.6099" ry="6.6099" stroke-width=".6"/>
   <rect id="rect1648" x="69.84" y="40.71" width="29.811" height="29.811" rx="6.6099" ry="6.6099" stroke-width=".7"/>
   <rect id="rect1650" x="69.84" y="40.71" width="29.811" height="29.811" rx="6.6099" ry="6.6099" stroke-width=".8"/>
   <rect id="rect1652" x="69.84" y="40.71" width="29.811" height="29.811" rx="6.6099" ry="6.6099"/>
   <rect id="rect1654" x="69.84" y="40.71" width="29.811" height="29.811" rx="6.6099" ry="6.6099" stroke-width="1.2"/>
   <rect id="rect1656" x="69.84" y="40.71" width="29.811" height="29.811" rx="6.6099" ry="6.6099" stroke-width="1.4"/>
   <rect id="rect1658" x="69.84" y="40.71" width="29.811" height="29.811" rx="6.6099" ry="6.6099" stroke-width="1.6"/>
   <rect id="rect1660" x="69.84" y="40.71" width="29.811" height="29.811" rx="6.6099" ry="6.6099" stroke-width="1.8"/>
   <rect id="rect1662" x="69.84" y="40.71" width="29.811" height="29.811" rx="6.6099" ry="6.6099" stroke-width="2"/>
   <rect id="rect1664" x="69.84" y="40.71" width="29.811" height="29.811" rx="6.6099" ry="6.6099" stroke-width="2.2"/>
   <rect id="rect1666" x="69.84" y="40.71" width="29.811" height="29.811" rx="6.6099" ry="6.6099" stroke-width="2.6"/>
   <rect id="rect1668" x="69.84" y="40.71" width="29.811" height="29.811" rx="6.6099" ry="6.6099" stroke-width="3"/>
   <rect id="rect1670" x="69.84" y="40.71" width="29.811" height="29.811" rx="6.6099" ry="6.6099" stroke-width="3.4"/>
   <rect id="rect1672" x="69.84" y="40.71" width="29.811" height="29.811" rx="6.6099" ry="6.6099" stroke-width="3.8"/>
   <rect id="rect1674" x="69.84" y="40.71" width="29.811" height="29.811" rx="6.6099" ry="6.6099" stroke-width="4.2"/>
   <rect id="rect1676" x="69.84" y="40.71" width="29.811" height="29.811" rx="6.6099" ry="6.6099" stroke-width="4.6"/>
   <rect id="rect1678" x="69.84" y="40.71" width="29.811" height="29.811" rx="6.6099" ry="6.6099" stroke-width="5"/>
  </g>
  <rect id="rect849" x="2.4074" y="2.5392" width="29.087" height="29.087" rx="6.4495" ry="6.4495" fill="url(#linearGradient1632)" stroke-linecap="round" stroke-linejoin="round" stroke-width="2.6877"/>
  <path id="path8" d="m9.6209 7.3525v9.9466h3.0272v-1.2974h-1.7298v-3.0272h1.7298v-1.2974h-1.7298v-3.0272h1.7298v-1.2974zm3.4597 0v9.9466h1.2974v-3.8921h1.3844c1.0062 0 1.6428-0.80975 1.6428-1.816v-2.4224c0-1.0062-0.63659-1.816-1.6428-1.816h-1.2112zm5.1464 0v9.9466h1.2974v-9.9466zm2.9411 0c-0.67083 0-1.2112 0.54039-1.2112 1.2112v7.5326c0 0.67083 0.54039 1.2112 1.2112 1.2112h1.9021c0.67083 0 1.2112-0.54039 1.2112-1.2112v-2.6894h-1.2974v2.0238c0 0.33541-0.34626 0.59148-0.60561 0.66558h-0.51861c-0.33542 0-0.60561-0.26935-0.60561-0.60477v-6.323c0-0.33541 0.35765-0.60477 0.60561-0.60477h0.51861c0.33542 0 0.60561 0.26935 0.60561 0.60477v1.6437h1.2974v-2.2484c0-0.67083-0.54039-1.2112-1.2112-1.2112zm-6.7901 1.2974h1.1242c0.33541 0 0.60561 0.2702 0.60561 0.60561v2.2484c0 0.33541-0.2702 0.60561-0.60561 0.60561h-1.1242zm-2.9039 10.19c-0.69222-0.01328-1.439 0.49675-1.4612 1.419-0.015851 0.65399 0.57735 1.3877 1.3776 1.3987 0.70204 0.0097 1.2104-0.43837 1.2104-0.43837v-0.92996h-1.169v0.49919l0.4806 0.0016 0.02028 0.09545s-0.15608 0.16105-0.43753 0.1664c-0.49467 0.0093-0.73569-0.39712-0.75174-0.75089-0.01723-0.3799 0.25226-0.83458 0.76018-0.83198 0.33851 0.0016 0.55493 0.30999 0.55493 0.30999l0.45864-0.56337s-0.4374-0.36423-1.0431-0.37586zm4.5932 0.18921v2.5922h0.63349v-1.4384l0.66136 0.98148 0.64109-1.022 0.0076 1.479h0.64869v-2.5922h-0.65629l-0.64109 1.033-0.64109-1.033zm3.0247 0v2.5787h1.9081v-0.63855l-1.2594 0.01189v-0.6546h1.0811v-0.43246h-1.0811v-0.21623h1.2627l-0.0034-0.64869zm-5.0603 0.01605-1.136 2.5753 0.76947-0.0016 0.17653-0.46455h0.98824l0.17231 0.46455h0.7171l-1.0558-2.5736zm8.3054 8.92e-4c-0.42781 0.0027-1.047 0.27081-1.0592 0.92827-0.01248 0.66758 1.4551 0.57372 1.4596 0.91391 0.0015 0.11794-0.07416 0.20369-0.25002 0.19765-0.36818-0.01268-0.85056-0.28636-0.85056-0.28636l-0.37502 0.4502s0.54643 0.38521 1.1986 0.38854c0.43237 0.0022 0.9502-0.20867 0.94601-0.83874-0.0049-0.7576-1.4482-0.72384-1.4672-0.98232-0.0095-0.12978 0.1802-0.20177 0.43922-0.20441 0.25177-0.0026 0.74076 0.24495 0.74076 0.24495l0.31421-0.47723s-0.49312-0.33833-1.0963-0.33448zm-7.9963 0.78721 0.27536 0.74498h-0.55747zm-1.7357 4.8178 4.3246 2.1623 4.3246-2.1623z" fill="url(#linearGradient885)" stroke-width=".43246"/>
 </g>
</svg>
