<?xml version="1.0" encoding="UTF-8"?>
<svg width="128" height="128" viewBox="0 0 33.867 33.867" xmlns="http://www.w3.org/2000/svg" xmlns:xlink="http://www.w3.org/1999/xlink">
 <defs>
  <linearGradient id="t" x1="-1129.7" x2="-1106.6" y1="944.53" y2="962.74" gradientTransform="matrix(0 .8756 .87454 0 -817.21 1259)" gradientUnits="userSpaceOnUse">
   <stop stop-color="#bfbfbf" offset="0"/>
   <stop stop-color="#fff" offset=".5"/>
   <stop stop-color="#bfbfbf" offset="1"/>
  </linearGradient>
  <linearGradient id="H" x1="-1067.4" x2="-1063.9" y1="767.72" y2="769.13" gradientTransform="matrix(2.732 0 0 -2.732 2963.2 2127.6)" gradientUnits="userSpaceOnUse" xlink:href="#b"/>
  <linearGradient id="b" x1="-1067.4" x2="-1063.9" y1="767.72" y2="769.13" gradientTransform="matrix(2.732 0 0 -2.732 2963.2 2127.6)" gradientUnits="userSpaceOnUse">
   <stop stop-color="#e7ddaf" offset="0"/>
   <stop stop-color="#e7ddaf" stop-opacity="0" offset="1"/>
  </linearGradient>
  <linearGradient id="I" x1="-1062.2" x2="-1058.5" y1="772.47" y2="773.39" gradientTransform="matrix(2.731 .07716 .07716 -2.731 2897.1 2218.6)" gradientUnits="userSpaceOnUse" xlink:href="#c"/>
  <linearGradient id="c" x1="-1062.2" x2="-1058.5" y1="772.47" y2="773.39" gradientTransform="matrix(2.731 .07716 .07716 -2.731 2897.1 2218.6)" gradientUnits="userSpaceOnUse">
   <stop stop-color="#eac7ae" offset="0"/>
   <stop stop-color="#eac7ae" stop-opacity="0" offset="1"/>
  </linearGradient>
  <linearGradient id="J" x1="-1070.5" x2="-1067.6" y1="765.57" y2="767.88" gradientTransform="matrix(2.732 0 0 -2.732 2963.2 2127.6)" gradientUnits="userSpaceOnUse" xlink:href="#d"/>
  <linearGradient id="d" x1="-1070.5" x2="-1067.6" y1="765.57" y2="767.88" gradientTransform="matrix(2.732 0 0 -2.732 2963.2 2127.6)" gradientUnits="userSpaceOnUse">
   <stop stop-color="#caefb9" offset="0"/>
   <stop stop-color="#caefb9" stop-opacity="0" offset="1"/>
  </linearGradient>
  <linearGradient id="K" x1="-1072.8" x2="-1070.6" y1="763.1" y2="765.83" gradientTransform="matrix(2.732 0 0 -2.732 2963.2 2127.6)" gradientUnits="userSpaceOnUse" xlink:href="#e"/>
  <linearGradient id="e" x1="-1072.8" x2="-1070.6" y1="763.1" y2="765.83" gradientTransform="matrix(2.732 0 0 -2.732 2963.2 2127.6)" gradientUnits="userSpaceOnUse">
   <stop stop-color="#b1e3da" offset="0"/>
   <stop stop-color="#b1e3da" stop-opacity="0" offset="1"/>
  </linearGradient>
  <linearGradient id="L" x1="-1073.9" x2="-1074.7" y1="761.09" y2="758.36" gradientTransform="matrix(2.732 0 0 -2.732 2963.2 2127.6)" gradientUnits="userSpaceOnUse" xlink:href="#f"/>
  <linearGradient id="f" x1="-1073.9" x2="-1074.7" y1="761.09" y2="758.36" gradientTransform="matrix(2.732 0 0 -2.732 2963.2 2127.6)" gradientUnits="userSpaceOnUse">
   <stop stop-color="#a5c5ee" offset="0"/>
   <stop stop-color="#a5c5ee" stop-opacity="0" offset="1"/>
  </linearGradient>
  <linearGradient id="M" x1="-1050.5" x2="-1047" y1="749.27" y2="750.66" gradientTransform="matrix(-2.732 0 0 2.732 -2788.9 -1949.3)" gradientUnits="userSpaceOnUse" xlink:href="#g"/>
  <linearGradient id="g" x1="-1050.5" x2="-1047" y1="749.27" y2="750.66" gradientTransform="matrix(-2.732 0 0 2.732 -2788.9 -1949.3)" gradientUnits="userSpaceOnUse">
   <stop stop-color="#e7ddaf" offset="0"/>
   <stop stop-color="#e7ddaf" stop-opacity="0" offset="1"/>
  </linearGradient>
  <linearGradient id="N" x1="-1044.8" x2="-1041.1" y1="754.5" y2="755.41" gradientTransform="scale(-2.732 2.732) rotate(-1.618 -25938 -35653)" gradientUnits="userSpaceOnUse" xlink:href="#h"/>
  <linearGradient id="h" x1="-1044.8" x2="-1041.1" y1="754.5" y2="755.41" gradientTransform="scale(-2.732 2.732) rotate(-1.618 -25938 -35653)" gradientUnits="userSpaceOnUse">
   <stop stop-color="#eac7ae" offset="0"/>
   <stop stop-color="#eac7ae" stop-opacity="0" offset="1"/>
  </linearGradient>
  <linearGradient id="O" x1="-1053.6" x2="-1050.7" y1="747.11" y2="749.42" gradientTransform="matrix(-2.732 0 0 2.732 -2788.9 -1949.3)" gradientUnits="userSpaceOnUse" xlink:href="#i"/>
  <linearGradient id="i" x1="-1053.6" x2="-1050.7" y1="747.11" y2="749.42" gradientTransform="matrix(-2.732 0 0 2.732 -2788.9 -1949.3)" gradientUnits="userSpaceOnUse">
   <stop stop-color="#caefb9" offset="0"/>
   <stop stop-color="#caefb9" stop-opacity="0" offset="1"/>
  </linearGradient>
  <linearGradient id="P" x1="-1055.9" x2="-1053.6" y1="744.65" y2="747.38" gradientTransform="matrix(-2.732 0 0 2.732 -2788.9 -1949.3)" gradientUnits="userSpaceOnUse" xlink:href="#j"/>
  <linearGradient id="j" x1="-1055.9" x2="-1053.6" y1="744.65" y2="747.38" gradientTransform="matrix(-2.732 0 0 2.732 -2788.9 -1949.3)" gradientUnits="userSpaceOnUse">
   <stop stop-color="#b1e3da" offset="0"/>
   <stop stop-color="#b1e3da" stop-opacity="0" offset="1"/>
  </linearGradient>
  <linearGradient id="Q" x1="-1056.9" x2="-1057.8" y1="742.61" y2="739.87" gradientTransform="matrix(-2.732 0 0 2.732 -2788.9 -1949.3)" gradientUnits="userSpaceOnUse" xlink:href="#k"/>
  <linearGradient id="k" x1="-1056.9" x2="-1057.8" y1="742.61" y2="739.87" gradientTransform="matrix(-2.732 0 0 2.732 -2788.9 -1949.3)" gradientUnits="userSpaceOnUse">
   <stop stop-color="#a5c5ee" offset="0"/>
   <stop stop-color="#a5c5ee" stop-opacity="0" offset="1"/>
  </linearGradient>
  <linearGradient id="G" x1="-1196.7" x2="-1197.3" y1="860.46" y2="818.54" gradientTransform="matrix(.27575 0 0 .27608 -.7 262.4)" gradientUnits="userSpaceOnUse">
   <stop stop-color="#323232" offset="0"/>
   <stop offset="1"/>
  </linearGradient>
  <linearGradient id="R" x1="-23.931" x2="-21.75" y1="33.023" y2="16.456" gradientTransform="matrix(1.1655 0 0 1.1637 49.35 -8.685)" gradientUnits="userSpaceOnUse">
   <stop stop-color="#0040e6" offset="0"/>
   <stop stop-color="#28bfff" offset="1"/>
  </linearGradient>
  <linearGradient id="T" x1="202.69" x2="227.87" y1="37.209" y2="97.865" gradientUnits="userSpaceOnUse">
   <stop stop-color="#494f52" offset="0"/>
   <stop stop-color="#98a1a6" offset="1"/>
  </linearGradient>
  <linearGradient id="U" x1="196.6" x2="239.83" y1="30.726" y2="106.35" gradientUnits="userSpaceOnUse">
   <stop stop-color="#e2e6e8" offset="0"/>
   <stop stop-color="#838d91" offset="1"/>
  </linearGradient>
  <linearGradient id="V" x1="214.77" x2="222.42" y1="69.601" y2="69.601" gradientUnits="userSpaceOnUse">
   <stop stop-color="#5f6569" offset="0"/>
   <stop stop-color="#686e72" offset="1"/>
  </linearGradient>
  <radialGradient id="s" cx="16.744" cy="4.121" r="14.544" gradientTransform="matrix(3.7095 0 0 1.8362 -45.368 -3.446)" gradientUnits="userSpaceOnUse">
   <stop stop-color="#fcfdfd" offset="0"/>
   <stop stop-color="#e2e5e8" offset="1"/>
  </radialGradient>
  <radialGradient id="W" cx="218.59" cy="69.601" r="3.005" gradientUnits="userSpaceOnUse">
   <stop stop-color="#27282c" offset="0"/>
   <stop stop-color="#27282c" offset="1"/>
  </radialGradient>
  <filter id="u" x="-.113" y="-.127" width="1.227" height="1.255" color-interpolation-filters="sRGB">
   <feGaussianBlur stdDeviation="2.587"/>
  </filter>
  <filter id="A" x="-.114" y="-.126" width="1.228" height="1.253" color-interpolation-filters="sRGB">
   <feGaussianBlur stdDeviation="2.581"/>
  </filter>
  <filter id="S" x="-.213" y="-.212" width="1.426" height="1.425" color-interpolation-filters="sRGB">
   <feGaussianBlur stdDeviation="3.723"/>
  </filter>
 </defs>
 <g transform="translate(-65.861 -37.234) scale(.97573)" fill="none" opacity=".13962" stroke="#000" stroke-linecap="round" stroke-linejoin="round" stroke-opacity=".02">
  <rect x="69.84" y="40.71" width="29.811" height="29.811" rx="6.61" ry="6.61" stroke-width=".1"/>
  <rect x="69.84" y="40.71" width="29.811" height="29.811" rx="6.61" ry="6.61" stroke-width=".2"/>
  <rect x="69.84" y="40.71" width="29.811" height="29.811" rx="6.61" ry="6.61" stroke-width=".3"/>
  <rect x="69.84" y="40.71" width="29.811" height="29.811" rx="6.61" ry="6.61" stroke-width=".4"/>
  <rect x="69.84" y="40.71" width="29.811" height="29.811" rx="6.61" ry="6.61" stroke-width=".5"/>
  <rect x="69.84" y="40.71" width="29.811" height="29.811" rx="6.61" ry="6.61" stroke-width=".6"/>
  <rect x="69.84" y="40.71" width="29.811" height="29.811" rx="6.61" ry="6.61" stroke-width=".7"/>
  <rect x="69.84" y="40.71" width="29.811" height="29.811" rx="6.61" ry="6.61" stroke-width=".8"/>
  <rect x="69.84" y="40.71" width="29.811" height="29.811" rx="6.61" ry="6.61"/>
  <rect x="69.84" y="40.71" width="29.811" height="29.811" rx="6.61" ry="6.61" stroke-width="1.2"/>
  <rect x="69.84" y="40.71" width="29.811" height="29.811" rx="6.61" ry="6.61" stroke-width="1.4"/>
  <rect x="69.84" y="40.71" width="29.811" height="29.811" rx="6.61" ry="6.61" stroke-width="1.6"/>
  <rect x="69.84" y="40.71" width="29.811" height="29.811" rx="6.61" ry="6.61" stroke-width="1.8"/>
  <rect x="69.84" y="40.71" width="29.811" height="29.811" rx="6.61" ry="6.61" stroke-width="2"/>
  <rect x="69.84" y="40.71" width="29.811" height="29.811" rx="6.61" ry="6.61" stroke-width="2.2"/>
  <rect x="69.84" y="40.71" width="29.811" height="29.811" rx="6.61" ry="6.61" stroke-width="2.6"/>
  <rect x="69.84" y="40.71" width="29.811" height="29.811" rx="6.61" ry="6.61" stroke-width="3"/>
  <rect x="69.84" y="40.71" width="29.811" height="29.811" rx="6.61" ry="6.61" stroke-width="3.4"/>
  <rect x="69.84" y="40.71" width="29.811" height="29.811" rx="6.61" ry="6.61" stroke-width="3.8"/>
  <rect x="69.84" y="40.71" width="29.811" height="29.811" rx="6.61" ry="6.61" stroke-width="4.2"/>
  <rect x="69.84" y="40.71" width="29.811" height="29.811" rx="6.61" ry="6.61" stroke-width="4.6"/>
  <rect x="69.84" y="40.71" width="29.811" height="29.811" rx="6.61" ry="6.61" stroke-width="5"/>
 </g>
 <rect x="2.284" y="2.488" width="29.087" height="29.087" rx="6.449" ry="6.449" fill="url(#s)" stroke-linecap="round" stroke-linejoin="round" stroke-width="2.6877"/>
 <g stroke-width="1.5002">
  <path transform="matrix(.6749 0 0 .67946 5.575 -174.06)" d="m32.23 280.08a15.274 15.274 0 0 0-15.305-15.323 15.274 15.274 0 0 0-15.305 15.323 15.274 15.274 0 0 0 15.305 15.323c8.483 0 15.304-6.83 15.304-15.323zm-9.706 0a5.576 5.576 0 0 1-5.6 5.606c-3.204 0-5.598-2.583-5.598-5.606 0-3.085 2.27-5.606 5.599-5.606 3.328 0 5.599 2.582 5.599 5.606z" fill="url(#t)" stroke="#999" stroke-width=".72897"/>
  <path transform="matrix(.6749 0 0 .67946 5.575 -174.06)" d="m16.948 274.27a5.797 5.797 0 0 0-5.791 5.798c0 3.2 2.594 5.797 5.79 5.797a5.797 5.797 0 0 0 5.792-5.797c0-3.2-2.595-5.798-5.791-5.798zm0 2.899a2.898 2.898 0 0 1 0 5.797 2.898 2.898 0 0 1 0-5.797z" enable-background="new" fill="#323232" opacity=".2"/>
  <g transform="matrix(.1861 0 0 .18759 5.103 4.228)" fill="#fff" filter="url(#u)" stroke-width="24.56px">
   <path d="m32.026 20.525 18.936 25.573a22.652 22.652 0 0 1 8.586-3.894l.25-.055-6.637-31.13c-7.893 1.533-14.534 5.069-21.135 9.506z" enable-background="new" fill="url(#H)" opacity=".8"/>
   <path d="m43.664 13.967 12.202 29.351a22.656 22.656 0 0 1 9.273-1.702l.256.007.935-31.733c-8.03-.42-15.188 1.367-22.666 4.077Z" enable-background="new" fill="url(#I)" opacity=".8"/>
   <path d="m21.456 30.745 25.172 19.55a22.657 22.657 0 0 1 7.286-5.983c.077-.04.149-.08.227-.118L39.524 16.003c-7.227 3.524-12.84 8.747-18.068 14.742Z" enable-background="new" fill="url(#J)" opacity=".8"/>
   <path d="m14.3 42.84c19.6 6.126 21.447 19.21 34.906 4.793l-21.61-23.758c-6.068 5.274-9.799 11.822-13.297 18.966z" enable-background="new" fill="url(#K)" opacity=".8"/>
   <path d="M18.458 34.97c-3.232 4.787-5.211 9.935-6.898 15.42l30.977 8.129c.589-2.085 1.416-4.14 2.647-6.062.047-.074.123-.184.17-.256z" enable-background="new" fill="url(#L)" opacity=".8"/>
  </g>
  <g transform="matrix(.1861 0 0 .18759 5.103 4.228)" fill="#fff" filter="url(#A)" stroke-width="24.56px">
   <path d="m96.074 107.42-18.758-25.718a22.281 22.281 0 0 1-8.754 3.97l6.577 31.308c7.818-1.542 14.397-5.097 20.935-9.56z" enable-background="new" fill="url(#M)" opacity=".8"/>
   <path d="M84.546 114.018 72.458 84.5a22.158 22.158 0 0 1-9.186 1.71l-.253-.006-.927 31.913c7.954.423 15.045-1.375 22.454-4.1z" enable-background="new" fill="url(#N)" opacity=".8"/>
   <path d="M106.546 97.145 81.609 77.483a22.53 22.53 0 0 1-7.217 6.017c-.078.041-.148.08-.224.118l14.48 28.352c7.158-3.544 12.72-8.796 17.898-14.825z" enable-background="new" fill="url(#O)" opacity=".8"/>
   <path d="m113.64 84.979c-19.418-6.16-21.247-19.319-34.58-4.819l21.407 23.894c6.013-5.306 9.708-11.89 13.173-19.075z" enable-background="new" fill="url(#P)" opacity=".8"/>
   <path d="M109.515 92.895c3.204-4.815 5.164-9.992 6.835-15.508l-30.688-8.175c-.584 2.098-1.403 4.162-2.621 6.097-.047.075-.123.184-.17.257z" enable-background="new" fill="url(#Q)" opacity=".8"/>
  </g>
  <path transform="matrix(.6749 0 0 .67946 5.575 -174.06)" d="m16.961 285.85a5.776 5.776 0 0 1-5.787-5.794 5.776 5.776 0 0 1 5.787-5.793 5.776 5.776 0 0 1 5.787 5.793 5.776 5.776 0 0 1-5.787 5.794z" enable-background="new" fill="none" opacity=".1" stroke="url(#G)" stroke-width="4.3738"/>
  <g transform="matrix(.1861 0 0 .18759 5.103 4.228)" fill="#fff" filter="url(#u)" stroke-width="24.56px">
   <path d="m32.026 20.525 18.936 25.573a22.652 22.652 0 0 1 8.586-3.894l.25-.055-6.637-31.13c-7.893 1.533-14.534 5.069-21.135 9.506z" enable-background="new" fill="url(#H)" opacity=".8"/>
   <path d="m43.664 13.967 12.202 29.351a22.656 22.656 0 0 1 9.273-1.702l.256.007.935-31.733c-8.03-.42-15.188 1.367-22.666 4.077Z" enable-background="new" fill="url(#I)" opacity=".8"/>
   <path d="m21.456 30.745 25.172 19.55a22.657 22.657 0 0 1 7.286-5.983c.077-.04.149-.08.227-.118L39.524 16.003c-7.227 3.524-12.84 8.747-18.068 14.742Z" enable-background="new" fill="url(#J)" opacity=".8"/>
   <path d="m14.3 42.84c19.6 6.126 21.447 19.21 34.906 4.793l-21.61-23.758c-6.068 5.274-9.799 11.822-13.297 18.966z" enable-background="new" fill="url(#K)" opacity=".8"/>
   <path d="M18.458 34.97c-3.232 4.787-5.211 9.935-6.898 15.42l30.977 8.129c.589-2.085 1.416-4.14 2.647-6.062.047-.074.123-.184.17-.256z" enable-background="new" fill="url(#L)" opacity=".8"/>
  </g>
  <g transform="matrix(.1861 0 0 .18759 5.103 4.228)" fill="#fff" filter="url(#A)" stroke-width="24.56px">
   <path d="m96.074 107.42-18.758-25.718a22.281 22.281 0 0 1-8.754 3.97l6.577 31.308c7.818-1.542 14.397-5.097 20.935-9.56z" enable-background="new" fill="url(#M)" opacity=".8"/>
   <path d="M84.546 114.018 72.458 84.5a22.158 22.158 0 0 1-9.186 1.71l-.253-.006-.927 31.913c7.954.423 15.045-1.375 22.454-4.1z" enable-background="new" fill="url(#N)" opacity=".8"/>
   <path d="M106.546 97.145 81.609 77.483a22.53 22.53 0 0 1-7.217 6.017c-.078.041-.148.08-.224.118l14.48 28.352c7.158-3.544 12.72-8.796 17.898-14.825z" enable-background="new" fill="url(#O)" opacity=".8"/>
   <path d="m113.64 84.979c-19.418-6.16-21.247-19.319-34.58-4.819l21.407 23.894c6.013-5.306 9.708-11.89 13.173-19.075z" enable-background="new" fill="url(#P)" opacity=".8"/>
   <path d="M109.515 92.895c3.204-4.815 5.164-9.992 6.835-15.508l-30.688-8.175c-.584 2.098-1.403 4.162-2.621 6.097-.047.075-.123.184-.17.257z" enable-background="new" fill="url(#Q)" opacity=".8"/>
  </g>
 </g>
 <path d="M26.67 10.917a1.835 1.835 0 0 0-.302.03 579.06 579.06 0 0 0-7.048 1.427.777.777 0 0 0-.467.365l-.067.132-.013 4.435-.013 4.435-.066.13c-.095.187-.25.285-.554.351l-.687.15c-.848.183-1.251.351-1.573.654a1.9 1.9 0 0 0-.285.34c-.385.661-.303 1.527.197 2.077.238.262.518.418.907.506.363.082 1.136-.003 1.61-.177a2.01 2.01 0 0 0 1.154-1.156c.167-.463.156-.175.172-4.534.01-2.91.022-3.992.044-4.04a.498.498 0 0 1 .323-.247c.079-.022 1.014-.22 2.078-.438 4.164-.854 3.883-.804 4.04-.723a.354.354 0 0 1 .123.125c.043.08.046.249.043 2.731-.003 2.997.01 2.823-.206 3.023-.132.122-.2.145-.85.28-1.144.237-1.54.398-1.909.773a1.736 1.736 0 0 0-.495 1.192 1.747 1.747 0 0 0 1.358 1.67c.373.078 1.11.004 1.594-.162.308-.105.516-.237.762-.484.187-.188.245-.268.346-.476a3.2 3.2 0 0 0 .18-.461l.056-.21.006-5.62c.008-6.255.02-5.808-.17-5.982a.383.383 0 0 0-.287-.116z" fill="url(#R)" stroke-width=".039348"/>
 <g filter="url(#S)" image-rendering="optimizeSpeed" opacity=".279" stroke-width="1.5002">
  <g transform="matrix(.11554 0 0 .11632 -13.848 12.638)" stroke-width="1.5002">
   <path d="m215.19 34.459-12.5 2.75 6.102 11.729c-2.672-9.837 3.456-11.205 9.335-11.232 2.378-.01 4.837.35 6.928.799 5.268 1.04 10.56 3.869 14.154 6.86 3.24 2.728 6.014 6.098 7.904 9.792 1.267 2.477 1.963 4.935 1.627 7.194-.356 2.398-2.82 4.304-7.378 5.502l10.703-2.393-1.125-9.75-6-10-9.875-8.75zm-17.02 8.414-7.88 5.85-5.661 10.197-2.64 12.926 7.773 18.463 8.63 9.45 7.106-11.147c-7.183 7.232-11.43 2.607-14.395-2.47-1.198-2.054-2.114-4.364-2.771-6.4-1.734-5.081-1.93-11.077-1.137-15.685.743-4.17 2.275-8.26 4.53-11.744 1.51-2.336 3.292-4.167 5.415-5.006 2.255-.89 5.137.29 8.453 3.639zm43.496 28.781c9.855 2.605 7.975 8.596 5.059 13.701-1.18 2.064-2.722 4.015-4.157 5.602-3.534 4.042-8.629 7.21-13.016 8.828-3.983 1.441-8.29 2.16-12.436 1.949-2.778-.141-5.255-.77-7.043-2.19-1.898-1.507-2.318-4.594-1.076-9.14l-3.277 10.467 9.006 3.9 11.66-.197 12.516-4.176 12.102-15.963 3.869-12.2z"/>
   <path d="M218.5 24.385c-2.14.181-2.13 1.993-2.898 6.443a38.984 38.878 0 0 0-4.315.596c-1.898-4.582-2.56-6.178-4.353-5.572-2.062.697-1.582 2.465-1.262 7.103a38.984 38.878 0 0 0-4 1.65c-3.202-3.866-4.3-5.208-5.844-4.095-1.741 1.256-.805 2.805.824 7.01a38.984 38.878 0 0 0-3.478 2.683c-4.035-2.982-5.424-4.02-6.654-2.57-1.397 1.647-.096 2.921 2.525 6.66a38.984 38.878 0 0 0-2.615 3.393c-4.23-1.572-5.79-2.49-7.022-.73-1.09 1.555.262 2.636 4.155 5.77a38.984 38.878 0 0 0-1.678 4.032c-4.45-.421-6.19-.89-6.922 1.12-.643 1.767.926 2.472 5.4 4.448a38.984 38.878 0 0 0-.554 4.268c-4.387.85-6.19.892-6.324 3.025-.118 1.854 1.568 2.107 6.273 2.723a38.984 38.878 0 0 0 .625 4.537c-4.03 1.766-5.765 2.218-5.428 4.315.3 1.867 2.021 1.707 6.95 1.25a38.984 38.878 0 0 0 1.742 4.197c-3.437 2.664-4.993 3.53-4.159 5.47.751 1.745 2.381 1.162 7.09-.501a38.984 38.878 0 0 0 2.547 3.289c-2.592 3.806-3.886 5.094-2.463 6.728 1.242 1.426 2.619.381 6.555-2.609a38.984 38.878 0 0 0 3.486 2.687c-1.577 4.392-2.527 5.965-.73 7.2 1.573 1.081 2.638-.291 5.777-4.26l-.768-.457a38.984 38.878 0 0 0 4.579 1.959c-.305 4.51-.742 6.268 1.296 6.949 1.765.59 2.44-.979 4.25-5.389a38.984 38.878 0 0 0 4.415.59c.834 4.99 1.104 6.704 3.003 6.516 2.133-.212 2.105-2.019 2.803-6.457a38.984 38.878 0 0 0 4.45-.584c1.835 4.472 2.503 6.052 4.279 5.459 2.039-.682 1.6-2.44 1.297-6.953a38.984 38.878 0 0 0 4.048-1.645c3.048 3.855 4.122 5.203 5.676 4.135 1.764-1.213.871-2.781-.654-6.992a38.984 38.878 0 0 0 3.597-2.752c3.771 2.863 5.15 3.866 6.368 2.467 1.387-1.594.169-2.894-2.293-6.483a38.984 38.878 0 0 0 2.629-3.36c4.604 1.627 6.229 2.19 6.972.464.83-1.929-.707-2.803-4.101-5.43a38.984 38.878 0 0 0 1.78-4.23c4.843.449 6.557.595 6.854-1.258.334-2.077-1.377-2.546-5.324-4.27a38.984 38.878 0 0 0 .582-4.59c4.652-.61 6.33-.87 6.213-2.714-.134-2.11-1.916-2.178-6.197-3a38.984 38.878 0 0 0-.596-4.332c4.398-1.943 5.955-2.655 5.317-4.41-.726-1.993-2.458-1.548-6.827-1.13a38.984 38.878 0 0 0-1.691-4.091c3.816-3.073 5.153-4.16 4.072-5.701-1.227-1.752-2.788-.848-6.976.712a38.984 38.878 0 0 0-2.692-3.474c2.83-3.999 3.817-5.41 2.356-6.598-1.642-1.334-2.9-.07-6.412 2.518a38.984 38.878 0 0 0-3.559-2.723c1.873-4.57 2.527-6.168.83-7-1.953-.957-2.861.634-5.896 4.147a38.984 38.878 0 0 0-4.03-1.657c.42-5 .575-6.728-1.306-7.013-2.11-.32-2.538 1.427-4.29 5.515a38.984 38.878 0 0 0-4.414-.55c-.746-4.898-1.005-6.607-2.89-6.448zm-1.557 11.949c4.316-.072 9.44.698 11.104 1.422 7.246 2.209 13.946 6.269 19.652 15.717 1.063 1.76 1.826 3.468 2.17 5.027.342 1.64.214 3.547-.845 5.051-.908 1.196-2.032 2.323-3.6 2.467-4.88.457-11.498.199-16.721.142-.879-.01-1.718-.365-1.97-.642-1.548-.975-2.59-3.097-4.315-3.695-2.755-1.277-3.87-.207-5.424-2.118a270.686 270.686 0 0 1-8.174-13.994c-1.842-3.206-.627-6.415 2.149-8.144 1.086-.843 3.385-1.19 5.974-1.233zm-19.234 9.887c.225-.007.451 0 .68.023 1.487.204 3.021.63 3.916 1.926 2.794 4.028 5.817 9.92 8.33 14.498.423.77.526 1.677.408 2.033-.09 1.827-1.429 3.775-1.103 5.572.24 3.027 1.72 3.472.818 5.764a270.555 270.555 0 0 1-8.183 13.99c-1.89 3.178-5.282 3.695-8.15 2.125-3.38-1.42-7.92-12.084-8.218-14.973-1.631-7.397-1.38-15.228 4.051-24.836 1.012-1.79 2.127-3.293 3.317-4.357 1.103-.965 2.561-1.717 4.134-1.766zm38.613 26.914c2.71.014 5.41.069 8.073.168 3.697.047 5.84 2.726 5.916 5.996.459 3.637-6.505 12.899-8.858 14.602-5.59 5.111-12.498 8.81-23.535 8.91-2.055.019-3.914-.195-5.431-.693-1.585-.541-3.161-1.62-3.916-3.297-.568-1.39-.966-2.933-.291-4.356 2.091-4.433 5.685-9.997 8.392-14.463.456-.751 1.19-1.293 1.557-1.369 1.627-.835 3.983-.651 5.377-1.832 2.501-1.721 2.148-3.226 4.584-3.59 2.704-.062 5.423-.09 8.133-.076z"/>
   <path d="M218.5 24.385c-2.14.181-2.13 1.993-2.898 6.443a38.984 38.878 0 0 0-4.315.596c-1.898-4.582-2.56-6.178-4.353-5.572-2.062.697-1.582 2.465-1.262 7.103a38.984 38.878 0 0 0-4 1.65c-3.202-3.866-4.3-5.208-5.844-4.095-1.741 1.256-.805 2.805.824 7.01a38.984 38.878 0 0 0-3.478 2.683c-4.035-2.982-5.424-4.02-6.654-2.57-1.397 1.647-.097 2.921 2.525 6.66a38.984 38.878 0 0 0-2.615 3.393c-4.23-1.572-5.79-2.49-7.022-.73-1.09 1.555.262 2.636 4.155 5.77a38.984 38.878 0 0 0-1.678 4.032c-4.45-.421-6.19-.89-6.922 1.12-.644 1.767.926 2.472 5.4 4.448a38.984 38.878 0 0 0-.554 4.268c-4.387.85-6.19.892-6.325 3.025-.117 1.854 1.569 2.107 6.274 2.723a38.984 38.878 0 0 0 .625 4.537c-4.03 1.766-5.765 2.218-5.428 4.315.3 1.867 2.02 1.707 6.95 1.25a38.984 38.878 0 0 0 1.742 4.197c-3.437 2.664-4.994 3.53-4.159 5.47.75 1.745 2.381 1.162 7.09-.501a38.984 38.878 0 0 0 2.547 3.289c-2.592 3.806-3.886 5.094-2.463 6.728 1.242 1.426 2.618.381 6.555-2.609a38.984 38.878 0 0 0 3.486 2.687c-1.577 4.392-2.527 5.965-.73 7.2 1.573 1.081 2.638-.291 5.777-4.26l-.768-.457a38.984 38.878 0 0 0 4.579 1.959c-.305 4.51-.742 6.268 1.296 6.95 1.765.589 2.44-.98 4.25-5.39a38.984 38.878 0 0 0 4.415.59c.834 4.99 1.104 6.704 3.003 6.516 2.133-.212 2.105-2.019 2.803-6.457a38.984 38.878 0 0 0 4.45-.584c1.835 4.472 2.503 6.052 4.279 5.459 2.039-.682 1.6-2.44 1.297-6.953a38.984 38.878 0 0 0 4.048-1.645c3.048 3.855 4.122 5.203 5.676 4.135 1.764-1.213.871-2.781-.654-6.992a38.984 38.878 0 0 0 3.597-2.752c3.771 2.863 5.15 3.866 6.368 2.467 1.387-1.594.169-2.894-2.293-6.483a38.984 38.878 0 0 0 2.629-3.36c4.604 1.627 6.229 2.19 6.972.464.83-1.929-.707-2.803-4.101-5.43a38.984 38.878 0 0 0 1.78-4.23c4.844.449 6.557.595 6.854-1.258.334-2.077-1.377-2.546-5.324-4.27a38.984 38.878 0 0 0 .582-4.59c4.652-.61 6.33-.87 6.213-2.714-.134-2.11-1.916-2.178-6.197-3a38.984 38.878 0 0 0-.596-4.332c4.398-1.943 5.955-2.656 5.317-4.41-.726-1.994-2.458-1.548-6.827-1.13a38.984 38.878 0 0 0-1.691-4.091c3.816-3.073 5.153-4.16 4.072-5.701-1.227-1.752-2.788-.848-6.976.712a38.984 38.878 0 0 0-2.692-3.474c2.83-3.999 3.817-5.41 2.356-6.598-1.642-1.334-2.9-.07-6.412 2.518a38.984 38.878 0 0 0-3.559-2.723c1.873-4.571 2.527-6.168.83-7-1.953-.957-2.861.634-5.896 4.147a38.984 38.878 0 0 0-4.03-1.657c.42-5 .575-6.728-1.306-7.013-2.11-.32-2.537 1.427-4.29 5.515a38.984 38.878 0 0 0-4.413-.55c-.747-4.898-1.006-6.607-2.891-6.448zm.043.498c.396-.033.619.025.809.16.19.135.377.391.554.85.354.917.617 2.567.99 5.015a.5.5 0 0 0 .461.422c1.462.099 2.917.281 4.358.545a.5.5 0 0 0 .549-.295c.88-2.054 1.437-3.515 1.97-4.336.267-.41.512-.648.77-.777.258-.13.557-.175 1.016-.105.395.06.6.17.753.347.154.177.275.47.34.961.13.984 0 2.67-.21 5.17a.5.5 0 0 0 .333.514 38.55 38.55 0 0 1 3.979 1.635.5.5 0 0 0 .594-.125c1.525-1.766 2.524-3.042 3.296-3.694.387-.326.699-.488.987-.537.288-.05.588-.001 1.013.207.357.175.519.34.612.553.093.213.124.526.04 1.01-.166.966-.787 2.513-1.724 4.798a.5.5 0 0 0 .182.604 38.488 38.488 0 0 1 3.514 2.687.5.5 0 0 0 .623.024c1.764-1.3 2.967-2.257 3.832-2.684.432-.213.76-.292 1.047-.271.285.02.563.134.92.424.306.249.427.445.47.673.043.228.002.541-.185.99-.376.9-1.318 2.257-2.733 4.257a.5.5 0 0 0 .031.617 38.38 38.38 0 0 1 2.657 3.43.5.5 0 0 0 .586.185c2.104-.784 3.552-1.393 4.517-1.576.483-.092.826-.078 1.098.02.272.096.51.281.777.661.227.324.289.547.268.778-.021.23-.146.52-.45.9-.607.762-1.887 1.812-3.794 3.348a.5.5 0 0 0-.137.605 38.305 38.305 0 0 1 1.67 4.04.5.5 0 0 0 .52.333c2.194-.21 3.727-.416 4.693-.34.483.04.805.141 1.04.305.236.165.418.406.575.838.134.367.137.598.059.815-.08.216-.272.46-.657.748-.77.574-2.25 1.248-4.449 2.218a.5.5 0 0 0-.289.553 38.3 38.3 0 0 1 .588 4.278.5.5 0 0 0 .404.449c2.151.413 3.669.648 4.569.994.45.173.73.36.91.584.179.224.285.505.314.963.025.385-.039.606-.174.79-.134.186-.381.364-.822.53-.881.332-2.459.563-4.783.867a.5.5 0 0 0-.434.463 38.29 38.29 0 0 1-.576 4.531.5.5 0 0 0 .293.551c1.983.866 3.396 1.426 4.188 1.96.396.266.626.51.75.767s.164.554.091 1.004c-.062.388-.172.59-.347.742-.175.15-.465.271-.945.334-.962.124-2.6-.012-5.02-.237a.5.5 0 0 0-.518.332 38.315 38.315 0 0 1-1.76 4.176.5.5 0 0 0 .143.616c1.705 1.319 2.934 2.206 3.569 2.916.317.354.48.646.537.925.057.28.023.578-.157.996-.155.362-.312.531-.52.635-.206.104-.517.15-1 .092-.964-.115-2.525-.65-4.827-1.463a.5.5 0 0 0-.576.186 38.374 38.374 0 0 1-2.596 3.314.5.5 0 0 0-.035.613c1.237 1.803 2.15 3.035 2.547 3.912.198.44.264.77.234 1.055-.03.285-.152.559-.453.904-.255.293-.455.405-.682.442-.226.036-.53-.011-.963-.205-.866-.388-2.158-1.343-4.043-2.774a.5.5 0 0 0-.629.02 38.47 38.47 0 0 1-3.55 2.717.5.5 0 0 0-.192.584c.767 2.116 1.364 3.57 1.54 4.539.087.484.071.828-.028 1.1-.1.27-.287.507-.67.77-.326.225-.55.286-.781.263-.231-.023-.52-.151-.899-.46-.758-.615-1.796-1.908-3.32-3.835a.5.5 0 0 0-.605-.14 38.543 38.543 0 0 1-3.998 1.622.5.5 0 0 0-.336.506c.153 2.268.327 3.844.23 4.83-.048.493-.157.822-.328 1.057-.17.234-.416.41-.86.558-.37.125-.603.12-.818.035-.214-.084-.455-.283-.732-.677-.555-.79-1.19-2.296-2.107-4.531a.5.5 0 0 0-.557-.301 38.589 38.589 0 0 1-4.393.576.5.5 0 0 0-.457.42c-.35 2.23-.53 3.797-.843 4.732-.157.468-.337.761-.555.951-.218.19-.496.308-.96.354-.399.04-.627-.017-.82-.15-.192-.134-.383-.39-.568-.854-.369-.927-.657-2.6-1.074-5.096a.5.5 0 0 0-.455-.416 38.58 38.58 0 0 1-4.358-.582.5.5 0 0 0-.556.301c-.905 2.204-1.537 3.692-2.088 4.47-.276.39-.513.585-.727.669-.214.084-.445.088-.814-.035-.443-.149-.689-.325-.86-.559-.17-.234-.279-.562-.328-1.055-.097-.986.078-2.561.23-4.828a.5.5 0 0 0-.331-.504 38.507 38.507 0 0 1-4.518-1.933.5.5 0 0 0-.482.875l.256.152c-1.3 1.637-2.34 2.949-3.026 3.514-.385.317-.677.448-.91.472-.233.025-.46-.036-.79-.263-.392-.27-.58-.51-.679-.785-.098-.276-.109-.627-.013-1.125.19-.997.816-2.5 1.61-4.707a.5.5 0 0 0-.188-.583 38.534 38.534 0 0 1-3.444-2.654.5.5 0 0 0-.629-.02c-1.968 1.496-3.303 2.494-4.195 2.905-.446.205-.756.258-.986.223-.23-.035-.433-.149-.694-.448-.31-.355-.432-.634-.459-.923-.027-.29.047-.632.26-1.086.426-.91 1.396-2.196 2.7-4.11a.5.5 0 0 0-.036-.607 38.418 38.418 0 0 1-2.514-3.248.5.5 0 0 0-.578-.186c-2.354.832-3.944 1.382-4.926 1.504-.49.061-.804.016-1.013-.088-.21-.103-.368-.274-.526-.64-.18-.421-.212-.72-.154-1 .058-.28.221-.575.543-.932.644-.714 1.89-1.61 3.617-2.947a.5.5 0 0 0 .143-.614 38.31 38.31 0 0 1-1.719-4.142.5.5 0 0 0-.52-.334c-2.464.228-4.126.37-5.101.248-.487-.061-.779-.18-.955-.332-.177-.152-.289-.356-.352-.748-.073-.455-.032-.754.094-1.012s.361-.504.766-.773c.808-.538 2.25-1.105 4.275-1.993a.5.5 0 0 0 .29-.554c-.295-1.48-.5-2.975-.618-4.479a.5.5 0 0 0-.434-.457c-2.351-.308-3.943-.536-4.834-.869-.445-.166-.696-.346-.832-.531-.135-.185-.198-.408-.174-.795.03-.464.137-.746.319-.97.181-.225.468-.415.928-.589.918-.346 2.47-.58 4.675-1.007a.5.5 0 0 0 .403-.454c.104-1.413.288-2.82.548-4.212a.5.5 0 0 0-.29-.55c-2.237-.987-3.742-1.669-4.524-2.247-.391-.29-.586-.534-.666-.752-.08-.218-.076-.45.059-.82.159-.437.34-.678.578-.842.237-.165.565-.266 1.054-.303.98-.074 2.536.14 4.772.351a.5.5 0 0 0 .52-.332 38.335 38.335 0 0 1 1.654-3.98.5.5 0 0 0-.135-.606c-1.946-1.567-3.252-2.63-3.871-3.402-.31-.385-.435-.677-.457-.91-.022-.232.04-.456.27-.783.267-.383.506-.567.779-.664.273-.097.618-.11 1.103-.016.972.187 2.43.802 4.555 1.592a.5.5 0 0 0 .586-.186 38.415 38.415 0 0 1 2.582-3.35.5.5 0 0 0 .031-.613c-1.318-1.879-2.295-3.145-2.728-4.044-.217-.45-.296-.789-.272-1.079.024-.289.142-.567.445-.925.259-.305.461-.423.692-.461.23-.038.545.011.998.215.905.406 2.27 1.403 4.287 2.894a.5.5 0 0 0 .625-.023 38.476 38.476 0 0 1 3.434-2.65.5.5 0 0 0 .183-.593c-.819-2.113-1.453-3.562-1.652-4.53-.1-.485-.093-.83 0-1.104.093-.274.276-.516.654-.79.325-.233.548-.3.781-.28.233.018.528.143.918.449.782.612 1.866 1.906 3.467 3.84a.5.5 0 0 0 .602.132 38.512 38.512 0 0 1 3.947-1.629.5.5 0 0 0 .334-.507c-.16-2.332-.35-3.944-.262-4.952.045-.503.151-.836.32-1.074.17-.237.417-.416.866-.568.376-.127.61-.125.826-.04.217.086.46.29.742.692.564.806 1.213 2.346 2.162 4.637a.5.5 0 0 0 .559.299 38.589 38.589 0 0 1 4.26-.588.5.5 0 0 0 .45-.412c.387-2.237.588-3.81.915-4.744.163-.468.348-.76.568-.948.221-.187.502-.3.967-.34zm-1.607 10.951c-2.62.044-4.95.329-6.256 1.332-1.463.92-2.54 2.238-2.996 3.777-.46 1.55-.278 3.309.7 5.014l.003.004a271.29 271.29 0 0 0 8.183 14.008.5.5 0 0 0 .036.05c.842 1.037 1.712 1.34 2.57 1.477.858.138 1.725.175 3.031.78a.5.5 0 0 0 .047.02c.72.248 1.361.856 2.02 1.571.635.69 1.291 1.456 2.117 2.002.237.25.537.403.926.541.4.143.875.245 1.38.25 5.21.057 11.832.319 16.771-.144 1.784-.164 3.017-1.428 3.954-2.662a.5.5 0 0 0 .01-.016c1.162-1.651 1.29-3.7.927-5.44a.5.5 0 0 0-.002-.005c-.36-1.636-1.148-3.386-2.23-5.178-5.749-9.519-12.574-13.68-19.881-15.918l-.006-.002c-.946-.41-2.635-.766-4.684-1.043-2.051-.277-4.43-.455-6.62-.418zm.008.5c4.315-.072 9.439.698 11.104 1.422 7.245 2.209 13.946 6.269 19.652 15.717 1.062 1.76 1.826 3.468 2.17 5.027.34 1.64.213 3.547-.846 5.051-.908 1.196-2.032 2.323-3.6 2.467-4.88.457-11.498.199-16.72.142-.88-.01-1.719-.365-1.972-.642-1.547-.975-2.588-3.097-4.314-3.695-2.755-1.277-3.87-.206-5.424-2.118a270.686 270.686 0 0 1-8.174-13.994c-1.841-3.206-.627-6.415 2.149-8.144 1.086-.843 3.385-1.19 5.974-1.233zm-19.25 9.387c-1.723.054-3.277.865-4.448 1.888a.5.5 0 0 0-.006.004c-1.248 1.118-2.388 2.663-3.418 4.485-5.475 9.685-5.748 17.677-4.11 25.145.087.82.434 2.024.96 3.467a47.14 47.14 0 0 0 2.04 4.73c.807 1.62 1.71 3.196 2.64 4.475.925 1.272 1.856 2.26 2.865 2.69 1.519.822 3.197 1.111 4.761.753 1.576-.36 3.02-1.382 4.026-3.074a271.11 271.11 0 0 0 8.193-14.006.5.5 0 0 0 .026-.057c.49-1.243.325-2.148.023-2.963-.302-.814-.695-1.589-.809-3.023a.5.5 0 0 0-.006-.05c-.135-.75.08-1.607.38-2.532.29-.893.636-1.838.706-2.826.102-.33.089-.666.018-1.073a4.325 4.325 0 0 0-.463-1.326c-2.507-4.566-5.528-10.464-8.355-14.54l-.002-.003c-1.018-1.471-2.725-1.926-4.258-2.136a.5.5 0 0 0-.018-.002 5.65 5.65 0 0 0-.746-.026zm.015.5c.225-.007.451 0 .68.023 1.487.204 3.02.63 3.916 1.926 2.794 4.028 5.816 9.92 8.33 14.498.423.77.526 1.677.408 2.033-.09 1.827-1.43 3.775-1.103 5.572.24 3.027 1.72 3.472.818 5.764a270.555 270.555 0 0 1-8.184 13.99c-1.89 3.178-5.28 3.695-8.15 2.125-3.379-1.42-7.918-12.084-8.217-14.973-1.631-7.397-1.38-15.228 4.051-24.836 1.012-1.79 2.127-3.293 3.316-4.357 1.104-.964 2.562-1.717 4.135-1.766zm38.615 26.414c-2.715-.014-5.437.013-8.146.076a.5.5 0 0 0-.063.006c-1.32.197-2.023.792-2.578 1.46-.555.67-1.03 1.396-2.215 2.212a.5.5 0 0 0-.039.03c-.58.493-1.432.736-2.383.938-.919.196-1.913.369-2.804.803-.335.078-.619.257-.934.52-.326.272-.656.63-.918 1.062-2.7 4.455-6.299 10.021-8.416 14.508-.767 1.618-.306 3.326.28 4.76a.5.5 0 0 0 .007.016c.83 1.841 2.528 2.99 4.21 3.564a.5.5 0 0 0 .005.002c1.592.523 3.5.738 5.592.719 11.12-.1 18.178-3.857 23.824-9.006.668-.483 1.542-1.392 2.531-2.572a47.087 47.087 0 0 0 3.077-4.131c1-1.508 1.912-3.08 2.554-4.524.639-1.436 1.027-2.733.897-3.82-.046-1.73-.633-3.328-1.727-4.506-1.1-1.184-2.71-1.924-4.677-1.95a253.817 253.817 0 0 0-8.077-.167zm-.002.5c2.71.014 5.41.069 8.073.168 3.697.047 5.84 2.726 5.916 5.996.458 3.637-6.506 12.899-8.858 14.602-5.59 5.111-12.498 8.81-23.535 8.91-2.055.019-3.914-.195-5.431-.693-1.585-.541-3.161-1.62-3.916-3.297-.568-1.39-.966-2.933-.292-4.356 2.092-4.433 5.685-9.997 8.393-14.463.456-.751 1.19-1.293 1.557-1.369 1.627-.835 3.983-.651 5.377-1.832 2.5-1.72 2.148-3.226 4.584-3.59 2.704-.062 5.423-.09 8.132-.076z"/>
   <path d="M218.59 65.777a3.823 3.823 0 0 0-3.822 3.822 3.823 3.823 0 0 0 3.822 3.824 3.823 3.823 0 0 0 3.824-3.824 3.823 3.823 0 0 0-3.824-3.822zm-.021.795a3.005 3.005 0 0 1 3.005 3.006 3.005 3.005 0 0 1-3.006 3.006 3.005 3.005 0 0 1-3.005-3.006 3.005 3.005 0 0 1 3.006-3.006z"/>
   <circle cx="218.59" cy="69.601" r="3.005"/>
   <path d="M218.59 65.592a4.01 4.01 0 0 0 0 8.018 4.01 4.01 0 0 0 0-8.018zm0 .195a3.813 3.813 0 1 1 0 7.627 3.811 3.811 0 0 1-3.813-3.814 3.811 3.811 0 0 1 3.813-3.813z"/>
  </g>
 </g>
 <g transform="matrix(.11554 0 0 .11632 -13.848 12.638)" image-rendering="optimizeSpeed">
  <path d="m215.19 34.459-12.5 2.75 6.102 11.729c-2.672-9.837 3.456-11.205 9.335-11.232 2.378-.01 4.837.35 6.928.799 5.268 1.04 10.56 3.869 14.154 6.86 3.24 2.728 6.014 6.098 7.904 9.792 1.267 2.477 1.963 4.935 1.627 7.194-.356 2.398-2.82 4.304-7.378 5.502l10.703-2.393-1.125-9.75-6-10-9.875-8.75zm-17.02 8.414-7.88 5.85-5.661 10.197-2.64 12.926 7.773 18.463 8.63 9.45 7.106-11.147c-7.183 7.232-11.43 2.607-14.395-2.47-1.198-2.054-2.114-4.364-2.771-6.4-1.734-5.081-1.93-11.077-1.137-15.685.743-4.17 2.275-8.26 4.53-11.744 1.51-2.336 3.292-4.167 5.415-5.006 2.255-.89 5.137.29 8.453 3.639zm43.496 28.781c9.855 2.605 7.975 8.596 5.059 13.701-1.18 2.064-2.722 4.015-4.157 5.602-3.534 4.042-8.629 7.21-13.016 8.828-3.983 1.441-8.29 2.16-12.436 1.949-2.778-.141-5.255-.77-7.043-2.19-1.898-1.507-2.318-4.594-1.076-9.14l-3.277 10.467 9.006 3.9 11.66-.197 12.516-4.176 12.102-15.963 3.869-12.2z" fill="url(#T)" stroke-width="1.5002"/>
  <path d="M218.5 24.385c-2.14.181-2.13 1.993-2.898 6.443a38.984 38.878 0 0 0-4.315.596c-1.898-4.582-2.56-6.178-4.353-5.572-2.062.697-1.582 2.465-1.262 7.103a38.984 38.878 0 0 0-4 1.65c-3.202-3.866-4.3-5.208-5.844-4.095-1.741 1.256-.805 2.805.824 7.01a38.984 38.878 0 0 0-3.478 2.683c-4.035-2.982-5.424-4.02-6.654-2.57-1.397 1.647-.096 2.921 2.525 6.66a38.984 38.878 0 0 0-2.615 3.393c-4.23-1.572-5.79-2.49-7.022-.73-1.09 1.555.262 2.636 4.155 5.77a38.984 38.878 0 0 0-1.678 4.032c-4.45-.421-6.19-.89-6.922 1.12-.643 1.767.926 2.472 5.4 4.448a38.984 38.878 0 0 0-.554 4.268c-4.387.85-6.19.892-6.324 3.025-.118 1.854 1.568 2.107 6.273 2.723a38.984 38.878 0 0 0 .625 4.537c-4.03 1.766-5.765 2.218-5.428 4.315.3 1.867 2.021 1.707 6.95 1.25a38.984 38.878 0 0 0 1.742 4.197c-3.437 2.664-4.993 3.53-4.159 5.47.751 1.745 2.381 1.162 7.09-.501a38.984 38.878 0 0 0 2.547 3.289c-2.592 3.806-3.886 5.094-2.463 6.728 1.242 1.426 2.619.381 6.555-2.609a38.984 38.878 0 0 0 3.486 2.687c-1.577 4.392-2.527 5.965-.73 7.2 1.573 1.081 2.638-.291 5.777-4.26l-.768-.457a38.984 38.878 0 0 0 4.579 1.959c-.305 4.51-.742 6.268 1.296 6.949 1.765.59 2.44-.979 4.25-5.389a38.984 38.878 0 0 0 4.415.59c.834 4.99 1.104 6.704 3.003 6.516 2.133-.212 2.105-2.019 2.803-6.457a38.984 38.878 0 0 0 4.45-.584c1.835 4.472 2.503 6.052 4.279 5.459 2.039-.682 1.6-2.44 1.297-6.953a38.984 38.878 0 0 0 4.048-1.645c3.048 3.855 4.122 5.203 5.676 4.135 1.764-1.213.871-2.781-.654-6.992a38.984 38.878 0 0 0 3.597-2.752c3.771 2.863 5.15 3.866 6.368 2.467 1.387-1.594.169-2.894-2.293-6.483a38.984 38.878 0 0 0 2.629-3.36c4.604 1.627 6.229 2.19 6.972.464.83-1.929-.707-2.803-4.101-5.43a38.984 38.878 0 0 0 1.78-4.23c4.843.449 6.557.595 6.854-1.258.334-2.077-1.377-2.546-5.324-4.27a38.984 38.878 0 0 0 .582-4.59c4.652-.61 6.33-.87 6.213-2.714-.134-2.11-1.916-2.178-6.197-3a38.984 38.878 0 0 0-.596-4.332c4.398-1.943 5.955-2.655 5.317-4.41-.726-1.993-2.458-1.548-6.827-1.13a38.984 38.878 0 0 0-1.691-4.091c3.816-3.073 5.153-4.16 4.072-5.701-1.227-1.752-2.788-.848-6.976.712a38.984 38.878 0 0 0-2.692-3.474c2.83-3.999 3.817-5.41 2.356-6.598-1.642-1.334-2.9-.07-6.412 2.518a38.984 38.878 0 0 0-3.559-2.723c1.873-4.57 2.527-6.168.83-7-1.953-.957-2.861.634-5.896 4.147a38.984 38.878 0 0 0-4.03-1.657c.42-5 .575-6.728-1.306-7.013-2.11-.32-2.538 1.427-4.29 5.515a38.984 38.878 0 0 0-4.414-.55c-.746-4.898-1.005-6.607-2.89-6.448zm-1.557 11.949c4.316-.072 9.44.698 11.104 1.422 7.246 2.209 13.946 6.269 19.652 15.717 1.063 1.76 1.826 3.468 2.17 5.027.342 1.64.214 3.547-.845 5.051-.908 1.196-2.032 2.323-3.6 2.467-4.88.457-11.498.199-16.721.142-.879-.01-1.718-.365-1.97-.642-1.548-.975-2.59-3.097-4.315-3.695-2.755-1.277-3.87-.207-5.424-2.118a270.686 270.686 0 0 1-8.174-13.994c-1.842-3.206-.627-6.415 2.149-8.144 1.086-.843 3.385-1.19 5.974-1.233zm-19.234 9.887c.225-.007.451 0 .68.023 1.487.204 3.021.63 3.916 1.926 2.794 4.028 5.817 9.92 8.33 14.498.423.77.526 1.677.408 2.033-.09 1.827-1.429 3.775-1.103 5.572.24 3.027 1.72 3.472.818 5.764a270.555 270.555 0 0 1-8.183 13.99c-1.89 3.178-5.282 3.695-8.15 2.125-3.38-1.42-7.92-12.084-8.218-14.973-1.631-7.397-1.38-15.228 4.051-24.836 1.012-1.79 2.127-3.293 3.317-4.357 1.103-.965 2.561-1.717 4.134-1.766zm38.613 26.914c2.71.014 5.41.069 8.073.168 3.697.047 5.84 2.726 5.916 5.996.459 3.637-6.505 12.899-8.858 14.602-5.59 5.111-12.498 8.81-23.535 8.91-2.055.019-3.914-.195-5.431-.693-1.585-.541-3.161-1.62-3.916-3.297-.568-1.39-.966-2.933-.291-4.356 2.091-4.433 5.685-9.997 8.392-14.463.456-.751 1.19-1.293 1.557-1.369 1.627-.835 3.983-.651 5.377-1.832 2.501-1.721 2.148-3.226 4.584-3.59 2.704-.062 5.423-.09 8.133-.076z" fill="url(#U)" stroke-width="1.5002"/>
  <path d="M218.5 24.385c-2.14.181-2.13 1.993-2.898 6.443a38.984 38.878 0 0 0-4.315.596c-1.898-4.582-2.56-6.178-4.353-5.572-2.062.697-1.582 2.465-1.262 7.103a38.984 38.878 0 0 0-4 1.65c-3.202-3.866-4.3-5.208-5.844-4.095-1.741 1.256-.805 2.805.824 7.01a38.984 38.878 0 0 0-3.478 2.683c-4.035-2.982-5.424-4.02-6.654-2.57-1.397 1.647-.097 2.921 2.525 6.66a38.984 38.878 0 0 0-2.615 3.393c-4.23-1.572-5.79-2.49-7.022-.73-1.09 1.555.262 2.636 4.155 5.77a38.984 38.878 0 0 0-1.678 4.032c-4.45-.421-6.19-.89-6.922 1.12-.644 1.767.926 2.472 5.4 4.448a38.984 38.878 0 0 0-.554 4.268c-4.387.85-6.19.892-6.325 3.025-.117 1.854 1.569 2.107 6.274 2.723a38.984 38.878 0 0 0 .625 4.537c-4.03 1.766-5.765 2.218-5.428 4.315.3 1.867 2.02 1.707 6.95 1.25a38.984 38.878 0 0 0 1.742 4.197c-3.437 2.664-4.994 3.53-4.159 5.47.75 1.745 2.381 1.162 7.09-.501a38.984 38.878 0 0 0 2.547 3.289c-2.592 3.806-3.886 5.094-2.463 6.728 1.242 1.426 2.618.381 6.555-2.609a38.984 38.878 0 0 0 3.486 2.687c-1.577 4.392-2.527 5.965-.73 7.2 1.573 1.081 2.638-.291 5.777-4.26l-.768-.457a38.984 38.878 0 0 0 4.579 1.959c-.305 4.51-.742 6.268 1.296 6.95 1.765.589 2.44-.98 4.25-5.39a38.984 38.878 0 0 0 4.415.59c.834 4.99 1.104 6.704 3.003 6.516 2.133-.212 2.105-2.019 2.803-6.457a38.984 38.878 0 0 0 4.45-.584c1.835 4.472 2.503 6.052 4.279 5.459 2.039-.682 1.6-2.44 1.297-6.953a38.984 38.878 0 0 0 4.048-1.645c3.048 3.855 4.122 5.203 5.676 4.135 1.764-1.213.871-2.781-.654-6.992a38.984 38.878 0 0 0 3.597-2.752c3.771 2.863 5.15 3.866 6.368 2.467 1.387-1.594.169-2.894-2.293-6.483a38.984 38.878 0 0 0 2.629-3.36c4.604 1.627 6.229 2.19 6.972.464.83-1.929-.707-2.803-4.101-5.43a38.984 38.878 0 0 0 1.78-4.23c4.844.449 6.557.595 6.854-1.258.334-2.077-1.377-2.546-5.324-4.27a38.984 38.878 0 0 0 .582-4.59c4.652-.61 6.33-.87 6.213-2.714-.134-2.11-1.916-2.178-6.197-3a38.984 38.878 0 0 0-.596-4.332c4.398-1.943 5.955-2.656 5.317-4.41-.726-1.994-2.458-1.548-6.827-1.13a38.984 38.878 0 0 0-1.691-4.091c3.816-3.073 5.153-4.16 4.072-5.701-1.227-1.752-2.788-.848-6.976.712a38.984 38.878 0 0 0-2.692-3.474c2.83-3.999 3.817-5.41 2.356-6.598-1.642-1.334-2.9-.07-6.412 2.518a38.984 38.878 0 0 0-3.559-2.723c1.873-4.571 2.527-6.168.83-7-1.953-.957-2.861.634-5.896 4.147a38.984 38.878 0 0 0-4.03-1.657c.42-5 .575-6.728-1.306-7.013-2.11-.32-2.537 1.427-4.29 5.515a38.984 38.878 0 0 0-4.413-.55c-.747-4.898-1.006-6.607-2.891-6.448zm.043.498c.396-.033.619.025.809.16.19.135.377.391.554.85.354.917.617 2.567.99 5.015a.5.5 0 0 0 .461.422c1.462.099 2.917.281 4.358.545a.5.5 0 0 0 .549-.295c.88-2.054 1.437-3.515 1.97-4.336.267-.41.512-.648.77-.777.258-.13.557-.175 1.016-.105.395.06.6.17.753.347.154.177.275.47.34.961.13.984 0 2.67-.21 5.17a.5.5 0 0 0 .333.514 38.55 38.55 0 0 1 3.979 1.635.5.5 0 0 0 .594-.125c1.525-1.766 2.524-3.042 3.296-3.694.387-.326.699-.488.987-.537.288-.05.588-.001 1.013.207.357.175.519.34.612.553.093.213.124.526.04 1.01-.166.966-.787 2.513-1.724 4.798a.5.5 0 0 0 .182.604 38.488 38.488 0 0 1 3.514 2.687.5.5 0 0 0 .623.024c1.764-1.3 2.967-2.257 3.832-2.684.432-.213.76-.292 1.047-.271.285.02.563.134.92.424.306.249.427.445.47.673.043.228.002.541-.185.99-.376.9-1.318 2.257-2.733 4.257a.5.5 0 0 0 .031.617 38.38 38.38 0 0 1 2.657 3.43.5.5 0 0 0 .586.185c2.104-.784 3.552-1.393 4.517-1.576.483-.092.826-.078 1.098.02.272.096.51.281.777.661.227.324.289.547.268.778-.021.23-.146.52-.45.9-.607.762-1.887 1.812-3.794 3.348a.5.5 0 0 0-.137.605 38.305 38.305 0 0 1 1.67 4.04.5.5 0 0 0 .52.333c2.194-.21 3.727-.416 4.693-.34.483.04.805.141 1.04.305.236.165.418.406.575.838.134.367.137.598.059.815-.08.216-.272.46-.657.748-.77.574-2.25 1.248-4.449 2.218a.5.5 0 0 0-.289.553 38.3 38.3 0 0 1 .588 4.278.5.5 0 0 0 .404.449c2.151.413 3.669.648 4.569.994.45.173.73.36.91.584.179.224.285.505.314.963.025.385-.039.606-.174.79-.134.186-.381.364-.822.53-.881.332-2.459.563-4.783.867a.5.5 0 0 0-.434.463 38.29 38.29 0 0 1-.576 4.531.5.5 0 0 0 .293.551c1.983.866 3.396 1.426 4.188 1.96.396.266.626.51.75.767s.164.554.091 1.004c-.062.388-.172.59-.347.742-.175.15-.465.271-.945.334-.962.124-2.6-.012-5.02-.237a.5.5 0 0 0-.518.332 38.315 38.315 0 0 1-1.76 4.176.5.5 0 0 0 .143.616c1.705 1.319 2.934 2.206 3.569 2.916.317.354.48.646.537.925.057.28.023.578-.157.996-.155.362-.312.531-.52.635-.206.104-.517.15-1 .092-.964-.115-2.525-.65-4.827-1.463a.5.5 0 0 0-.576.186 38.374 38.374 0 0 1-2.596 3.314.5.5 0 0 0-.035.613c1.237 1.803 2.15 3.035 2.547 3.912.198.44.264.77.234 1.055-.03.285-.152.559-.453.904-.255.293-.455.405-.682.442-.226.036-.53-.011-.963-.205-.866-.388-2.158-1.343-4.043-2.774a.5.5 0 0 0-.629.02 38.47 38.47 0 0 1-3.55 2.717.5.5 0 0 0-.192.584c.767 2.116 1.364 3.57 1.54 4.539.087.484.071.828-.028 1.1-.1.27-.287.507-.67.77-.326.225-.55.286-.781.263-.231-.023-.52-.151-.899-.46-.758-.615-1.796-1.908-3.32-3.835a.5.5 0 0 0-.605-.14 38.543 38.543 0 0 1-3.998 1.622.5.5 0 0 0-.336.506c.153 2.268.327 3.844.23 4.83-.048.493-.157.822-.328 1.057-.17.234-.416.41-.86.558-.37.125-.603.12-.818.035-.214-.084-.455-.283-.732-.677-.555-.79-1.19-2.296-2.107-4.531a.5.5 0 0 0-.557-.301 38.589 38.589 0 0 1-4.393.576.5.5 0 0 0-.457.42c-.35 2.23-.53 3.797-.843 4.732-.157.468-.337.761-.555.951-.218.19-.496.308-.96.354-.399.04-.627-.017-.82-.15-.192-.134-.383-.39-.568-.854-.369-.927-.657-2.6-1.074-5.096a.5.5 0 0 0-.455-.416 38.58 38.58 0 0 1-4.358-.582.5.5 0 0 0-.556.301c-.905 2.204-1.537 3.692-2.088 4.47-.276.39-.513.585-.727.669-.214.084-.445.088-.814-.035-.443-.149-.689-.325-.86-.559-.17-.234-.279-.562-.328-1.055-.097-.986.078-2.561.23-4.828a.5.5 0 0 0-.331-.504 38.507 38.507 0 0 1-4.518-1.933.5.5 0 0 0-.482.875l.256.152c-1.3 1.637-2.34 2.949-3.026 3.514-.385.317-.677.448-.91.472-.233.025-.46-.036-.79-.263-.392-.27-.58-.51-.679-.785-.098-.276-.109-.627-.013-1.125.19-.997.816-2.5 1.61-4.707a.5.5 0 0 0-.188-.583 38.534 38.534 0 0 1-3.444-2.654.5.5 0 0 0-.629-.02c-1.968 1.496-3.303 2.494-4.195 2.905-.446.205-.756.258-.986.223-.23-.035-.433-.149-.694-.448-.31-.355-.432-.634-.459-.923-.027-.29.047-.632.26-1.086.426-.91 1.396-2.196 2.7-4.11a.5.5 0 0 0-.036-.607 38.418 38.418 0 0 1-2.514-3.248.5.5 0 0 0-.578-.186c-2.354.832-3.944 1.382-4.926 1.504-.49.061-.804.016-1.013-.088-.21-.103-.368-.274-.526-.64-.18-.421-.212-.72-.154-1 .058-.28.221-.575.543-.932.644-.714 1.89-1.61 3.617-2.947a.5.5 0 0 0 .143-.614 38.31 38.31 0 0 1-1.719-4.142.5.5 0 0 0-.52-.334c-2.464.228-4.126.37-5.101.248-.487-.061-.779-.18-.955-.332-.177-.152-.289-.356-.352-.748-.073-.455-.032-.754.094-1.012s.361-.504.766-.773c.808-.538 2.25-1.105 4.275-1.993a.5.5 0 0 0 .29-.554c-.295-1.48-.5-2.975-.618-4.479a.5.5 0 0 0-.434-.457c-2.351-.308-3.943-.536-4.834-.869-.445-.166-.696-.346-.832-.531-.135-.185-.198-.408-.174-.795.03-.464.137-.746.319-.97.181-.225.468-.415.928-.589.918-.346 2.47-.58 4.675-1.007a.5.5 0 0 0 .403-.454c.104-1.413.288-2.82.548-4.212a.5.5 0 0 0-.29-.55c-2.237-.987-3.742-1.669-4.524-2.247-.391-.29-.586-.534-.666-.752-.08-.218-.076-.45.059-.82.159-.437.34-.678.578-.842.237-.165.565-.266 1.054-.303.98-.074 2.536.14 4.772.351a.5.5 0 0 0 .52-.332 38.335 38.335 0 0 1 1.654-3.98.5.5 0 0 0-.135-.606c-1.946-1.567-3.252-2.63-3.871-3.402-.31-.385-.435-.677-.457-.91-.022-.232.04-.456.27-.783.267-.383.506-.567.779-.664.273-.097.618-.11 1.103-.016.972.187 2.43.802 4.555 1.592a.5.5 0 0 0 .586-.186 38.415 38.415 0 0 1 2.582-3.35.5.5 0 0 0 .031-.613c-1.318-1.879-2.295-3.145-2.728-4.044-.217-.45-.296-.789-.272-1.079.024-.289.142-.567.445-.925.259-.305.461-.423.692-.461.23-.038.545.011.998.215.905.406 2.27 1.403 4.287 2.894a.5.5 0 0 0 .625-.023 38.476 38.476 0 0 1 3.434-2.65.5.5 0 0 0 .183-.593c-.819-2.113-1.453-3.562-1.652-4.53-.1-.485-.093-.83 0-1.104.093-.274.276-.516.654-.79.325-.233.548-.3.781-.28.233.018.528.143.918.449.782.612 1.866 1.906 3.467 3.84a.5.5 0 0 0 .602.132 38.512 38.512 0 0 1 3.947-1.629.5.5 0 0 0 .334-.507c-.16-2.332-.35-3.944-.262-4.952.045-.503.151-.836.32-1.074.17-.237.417-.416.866-.568.376-.127.61-.125.826-.04.217.086.46.29.742.692.564.806 1.213 2.346 2.162 4.637a.5.5 0 0 0 .559.299 38.589 38.589 0 0 1 4.26-.588.5.5 0 0 0 .45-.412c.387-2.237.588-3.81.915-4.744.163-.468.348-.76.568-.948.221-.187.502-.3.967-.34zm-1.607 10.951c-2.62.044-4.95.329-6.256 1.332-1.463.92-2.54 2.238-2.996 3.777-.46 1.55-.278 3.309.7 5.014l.003.004a271.29 271.29 0 0 0 8.183 14.008.5.5 0 0 0 .036.05c.842 1.037 1.712 1.34 2.57 1.477.858.138 1.725.175 3.031.78a.5.5 0 0 0 .047.02c.72.248 1.361.856 2.02 1.571.635.69 1.291 1.456 2.117 2.002.237.25.537.403.926.541.4.143.875.245 1.38.25 5.21.057 11.832.319 16.771-.144 1.784-.164 3.017-1.428 3.954-2.662a.5.5 0 0 0 .01-.016c1.162-1.651 1.29-3.7.927-5.44a.5.5 0 0 0-.002-.005c-.36-1.636-1.148-3.386-2.23-5.178-5.749-9.519-12.574-13.68-19.881-15.918l-.006-.002c-.946-.41-2.635-.766-4.684-1.043-2.051-.277-4.43-.455-6.62-.418zm.008.5c4.315-.072 9.439.698 11.104 1.422 7.245 2.209 13.946 6.269 19.652 15.717 1.062 1.76 1.826 3.468 2.17 5.027.34 1.64.213 3.547-.846 5.051-.908 1.196-2.032 2.323-3.6 2.467-4.88.457-11.498.199-16.72.142-.88-.01-1.719-.365-1.972-.642-1.547-.975-2.588-3.097-4.314-3.695-2.755-1.277-3.87-.206-5.424-2.118a270.686 270.686 0 0 1-8.174-13.994c-1.841-3.206-.627-6.415 2.149-8.144 1.086-.843 3.385-1.19 5.974-1.233zm-19.25 9.387c-1.723.054-3.277.865-4.448 1.888a.5.5 0 0 0-.006.004c-1.248 1.118-2.388 2.663-3.418 4.485-5.475 9.685-5.748 17.677-4.11 25.145.087.82.434 2.024.96 3.467a47.14 47.14 0 0 0 2.04 4.73c.807 1.62 1.71 3.196 2.64 4.475.925 1.272 1.856 2.26 2.865 2.69 1.519.822 3.197 1.111 4.761.753 1.576-.36 3.02-1.382 4.026-3.074a271.11 271.11 0 0 0 8.193-14.006.5.5 0 0 0 .026-.057c.49-1.243.325-2.148.023-2.963-.302-.814-.695-1.589-.809-3.023a.5.5 0 0 0-.006-.05c-.135-.75.08-1.607.38-2.532.29-.893.636-1.838.706-2.826.102-.33.089-.666.018-1.073a4.325 4.325 0 0 0-.463-1.326c-2.507-4.566-5.528-10.464-8.355-14.54l-.002-.003c-1.018-1.471-2.725-1.926-4.258-2.136a.5.5 0 0 0-.018-.002 5.65 5.65 0 0 0-.746-.026zm.015.5c.225-.007.451 0 .68.023 1.487.204 3.02.63 3.916 1.926 2.794 4.028 5.816 9.92 8.33 14.498.423.77.526 1.677.408 2.033-.09 1.827-1.43 3.775-1.103 5.572.24 3.027 1.72 3.472.818 5.764a270.555 270.555 0 0 1-8.184 13.99c-1.89 3.178-5.28 3.695-8.15 2.125-3.379-1.42-7.918-12.084-8.217-14.973-1.631-7.397-1.38-15.228 4.051-24.836 1.012-1.79 2.127-3.293 3.316-4.357 1.104-.964 2.562-1.717 4.135-1.766zm38.615 26.414c-2.715-.014-5.437.013-8.146.076a.5.5 0 0 0-.063.006c-1.32.197-2.023.792-2.578 1.46-.555.67-1.03 1.396-2.215 2.212a.5.5 0 0 0-.039.03c-.58.493-1.432.736-2.383.938-.919.196-1.913.369-2.804.803-.335.078-.619.257-.934.52-.326.272-.656.63-.918 1.062-2.7 4.455-6.299 10.021-8.416 14.508-.767 1.618-.306 3.326.28 4.76a.5.5 0 0 0 .007.016c.83 1.841 2.528 2.99 4.21 3.564a.5.5 0 0 0 .005.002c1.592.523 3.5.738 5.592.719 11.12-.1 18.178-3.857 23.824-9.006.668-.483 1.542-1.392 2.531-2.572a47.087 47.087 0 0 0 3.077-4.131c1-1.508 1.912-3.08 2.554-4.524.639-1.436 1.027-2.733.897-3.82-.046-1.73-.633-3.328-1.727-4.506-1.1-1.184-2.71-1.924-4.677-1.95a253.817 253.817 0 0 0-8.077-.167zm-.002.5c2.71.014 5.41.069 8.073.168 3.697.047 5.84 2.726 5.916 5.996.458 3.637-6.506 12.899-8.858 14.602-5.59 5.111-12.498 8.81-23.535 8.91-2.055.019-3.914-.195-5.431-.693-1.585-.541-3.161-1.62-3.916-3.297-.568-1.39-.966-2.933-.292-4.356 2.092-4.433 5.685-9.997 8.393-14.463.456-.751 1.19-1.293 1.557-1.369 1.627-.835 3.983-.651 5.377-1.832 2.5-1.72 2.148-3.226 4.584-3.59 2.704-.062 5.423-.09 8.132-.076z" fill="#fff" fill-opacity=".267" stroke-width="2.6208"/>
  <path d="M218.59 65.777a3.823 3.823 0 0 0-3.822 3.822 3.823 3.823 0 0 0 3.822 3.824 3.823 3.823 0 0 0 3.824-3.824 3.823 3.823 0 0 0-3.824-3.822zm-.021.795a3.005 3.005 0 0 1 3.005 3.006 3.005 3.005 0 0 1-3.006 3.006 3.005 3.005 0 0 1-3.005-3.006 3.005 3.005 0 0 1 3.006-3.006z" fill="url(#V)" stroke-width="1.5002"/>
  <circle cx="218.59" cy="69.601" r="3.005" fill="url(#W)" stroke-width="1.5002"/>
  <path d="M218.59 65.592a4.01 4.01 0 0 0 0 8.018 4.01 4.01 0 0 0 0-8.018zm0 .195a3.813 3.813 0 1 1 0 7.627 3.811 3.811 0 0 1-3.813-3.814 3.811 3.811 0 0 1 3.813-3.813z" fill="#fff" fill-opacity=".384" stroke-width="2.6208"/>
 </g>
</svg>
