<?xml version="1.0" encoding="UTF-8"?>
<svg id="svg1829" width="128" height="128" version="1.1" viewBox="0 0 33.867 33.867" xmlns="http://www.w3.org/2000/svg" xmlns:cc="http://creativecommons.org/ns#" xmlns:dc="http://purl.org/dc/elements/1.1/" xmlns:rdf="http://www.w3.org/1999/02/22-rdf-syntax-ns#" xmlns:xlink="http://www.w3.org/1999/xlink">
 <defs id="defs1823">
  <radialGradient id="radialGradient908" cx="16.937" cy="3.2428" r="14.544" gradientTransform="matrix(4.4792 0 0 2.0392 -58.927 -3.3698)" gradientUnits="userSpaceOnUse">
   <stop id="stop930" stop-color="#ffe447" offset="0"/>
   <stop id="stop932" stop-color="#ffb702" offset="1"/>
  </radialGradient>
  <linearGradient id="linearGradient1061" x1="15.206" x2="15.206" y1="13.818" y2="17.146" gradientUnits="userSpaceOnUse">
   <stop id="stop1055" stop-color="#161a25" offset="0"/>
   <stop id="stop1057" stop-color="#0e1118" stop-opacity=".97058" offset="1"/>
  </linearGradient>
  <linearGradient id="linearGradient1407" x1="21.437" x2="21.437" y1="19.685" y2="2.7711" gradientUnits="userSpaceOnUse">
   <stop id="stop1401" stop-color="#1c37ff" offset="0"/>
   <stop id="stop1403" stop-color="#1cffb6" stop-opacity=".98183" offset="1"/>
  </linearGradient>
  <linearGradient id="linearGradient1922" x1="31.645" x2="31.645" y1="27.953" y2="11.216" gradientUnits="userSpaceOnUse">
   <stop id="stop1914" stop-color="#161a25" offset="0"/>
   <stop id="stop1916" stop-color="#161a25" stop-opacity="0" offset="1"/>
  </linearGradient>
 </defs>
 <metadata id="metadata1826">
  <rdf:RDF>
   <cc:Work rdf:about="">
    <dc:format>image/svg+xml</dc:format>
    <dc:type rdf:resource="http://purl.org/dc/dcmitype/StillImage"/>
   </cc:Work>
  </rdf:RDF>
 </metadata>
 <g id="layer1">
  <g id="g1702" transform="matrix(.97573 0 0 .97573 -65.587 -37.192)" fill="none" opacity=".29676" stroke="#000" stroke-linecap="round" stroke-linejoin="round" stroke-opacity=".02">
   <rect id="rect1634" x="69.84" y="40.71" width="29.811" height="29.811" rx="6.6099" ry="6.6099" stroke-width=".1"/>
   <rect id="rect1638" x="69.84" y="40.71" width="29.811" height="29.811" rx="6.6099" ry="6.6099" stroke-width=".2"/>
   <rect id="rect1640" x="69.84" y="40.71" width="29.811" height="29.811" rx="6.6099" ry="6.6099" stroke-width=".3"/>
   <rect id="rect1642" x="69.84" y="40.71" width="29.811" height="29.811" rx="6.6099" ry="6.6099" stroke-width=".4"/>
   <rect id="rect1644" x="69.84" y="40.71" width="29.811" height="29.811" rx="6.6099" ry="6.6099" stroke-width=".5"/>
   <rect id="rect1646" x="69.84" y="40.71" width="29.811" height="29.811" rx="6.6099" ry="6.6099" stroke-width=".6"/>
   <rect id="rect1648" x="69.84" y="40.71" width="29.811" height="29.811" rx="6.6099" ry="6.6099" stroke-width=".7"/>
   <rect id="rect1650" x="69.84" y="40.71" width="29.811" height="29.811" rx="6.6099" ry="6.6099" stroke-width=".8"/>
   <rect id="rect1652" x="69.84" y="40.71" width="29.811" height="29.811" rx="6.6099" ry="6.6099"/>
   <rect id="rect1654" x="69.84" y="40.71" width="29.811" height="29.811" rx="6.6099" ry="6.6099" stroke-width="1.2"/>
   <rect id="rect1656" x="69.84" y="40.71" width="29.811" height="29.811" rx="6.6099" ry="6.6099" stroke-width="1.4"/>
   <rect id="rect1658" x="69.84" y="40.71" width="29.811" height="29.811" rx="6.6099" ry="6.6099" stroke-width="1.6"/>
   <rect id="rect1660" x="69.84" y="40.71" width="29.811" height="29.811" rx="6.6099" ry="6.6099" stroke-width="1.8"/>
   <rect id="rect1662" x="69.84" y="40.71" width="29.811" height="29.811" rx="6.6099" ry="6.6099" stroke-width="2"/>
   <rect id="rect1664" x="69.84" y="40.71" width="29.811" height="29.811" rx="6.6099" ry="6.6099" stroke-width="2.2"/>
   <rect id="rect1666" x="69.84" y="40.71" width="29.811" height="29.811" rx="6.6099" ry="6.6099" stroke-width="2.6"/>
   <rect id="rect1668" x="69.84" y="40.71" width="29.811" height="29.811" rx="6.6099" ry="6.6099" stroke-width="3"/>
   <rect id="rect1670" x="69.84" y="40.71" width="29.811" height="29.811" rx="6.6099" ry="6.6099" stroke-width="3.4"/>
   <rect id="rect1672" x="69.84" y="40.71" width="29.811" height="29.811" rx="6.6099" ry="6.6099" stroke-width="3.8"/>
   <rect id="rect1674" x="69.84" y="40.71" width="29.811" height="29.811" rx="6.6099" ry="6.6099" stroke-width="4.2"/>
   <rect id="rect1676" x="69.84" y="40.71" width="29.811" height="29.811" rx="6.6099" ry="6.6099" stroke-width="4.6"/>
   <rect id="rect1678" x="69.84" y="40.71" width="29.811" height="29.811" rx="6.6099" ry="6.6099" stroke-width="5"/>
  </g>
  <rect id="rect849-5" x="2.5579" y="2.5293" width="29.087" height="29.087" rx="6.4495" ry="6.4495" fill="url(#linearGradient1061)" stroke-linecap="round" stroke-linejoin="round" stroke-width="2.6877"/>
  <rect id="rect1379" x="16.699" y="4.8642" width="7.318" height="15.156" rx="1.9584" ry="1.9584" fill="#ff631c" stroke-linejoin="round" stroke-width=".52917" style="paint-order:fill markers stroke"/>
  <rect id="rect1381" x="21.437" y="6.3217" width="7.318" height="15.156" rx="1.9584" ry="1.9584" fill="url(#linearGradient1407)" stroke-linejoin="round" stroke-width=".52917" style="paint-order:fill markers stroke"/>
  <rect id="rect1167" x="5.6486" y="7.0438" width="7.318" height="15.156" rx="1.9584" ry="1.9584" fill="#68ff61" stroke-linejoin="round" stroke-width=".52917" style="paint-order:fill markers stroke"/>
  <rect id="rect1359" x="10.281" y="10.617" width="7.318" height="15.156" rx="1.9584" ry="1.9584" fill="#b91e96" stroke-linejoin="round" stroke-width=".52917" style="paint-order:fill markers stroke"/>
  <rect id="rect1894" x="2.5579" y="2.5293" width="29.087" height="29.087" rx="6.4495" ry="6.4495" fill="url(#linearGradient1922)" stroke-linecap="round" stroke-linejoin="round" stroke-width="2.6877"/>
  <path id="rect957" d="m31.645 17.073v8.0943c0 3.573-2.8765 6.4495-6.4495 6.4495h-16.189c-3.573 0-6.4495-2.8765-6.4495-6.4495v-8.0943z" fill="url(#radialGradient908)" stroke-linecap="round" stroke-linejoin="round" stroke-width="2.6877"/>
  <path id="path923" d="m15.613 18.124c-0.76544 0.12491-1.5108 0.49902-2.0319 1.083-0.81444 0.81925-1.6383 1.6295-2.4467 2.4545-0.52878 0.61274-0.53124 1.4878-0.24966 2.2091 0.36147 1.1593 0.68112 2.3336 1.07 3.4831 0.27052 0.58858 0.77716 1.0582 1.3198 1.3989 0.87763 0.3355 1.7958 0.55893 2.691 0.84605 0.64318 0.16315 1.2638 0.46684 1.9356 0.46819 0.64137-4.4e-5 1.1954-0.36302 1.6011-0.83185 0.81577-0.82522 1.6514-1.6321 2.4534-2.47 0.33268-0.48016 0.60146-1.0358 0.68317-1.6165-0.08363-0.61178-0.35413-1.1825-0.52653-1.7745-0.30543-0.88905-0.572-1.7929-0.90477-2.6715-0.33864-0.70912-1.0242-1.1872-1.7742-1.3743-1.2094-0.39138-2.4088-0.8183-3.6248-1.1865l-0.09848-0.01315zm0 0.75785c0.85317 0.23324 1.6863 0.55069 2.5315 0.81742 0.55041 0.1994 1.1272 0.33669 1.6577 0.58304 0.50072 0.28992 0.79743 0.80321 0.93381 1.3496 0.37563 1.1477 0.76932 2.2902 1.1336 3.4412 0.07739 0.37869-0.32968 0.22572-0.54697 0.13736-1.217-0.4139-2.4484-0.7908-3.656-1.2286-0.58679-0.29947-0.95205-0.87967-1.1064-1.5032-0.37413-1.1539-0.77956-2.2995-1.1339-3.4586-0.06573-0.11195 0.12577-0.11245 0.18666-0.13821zm-1.0367 0.45719c0.26385 0.2798 0.27849 0.70288 0.41612 1.053 0.29898 1.0233 0.63529 2.0375 0.91009 3.0667 0.07378 0.55318-0.17908 1.094-0.60428 1.4391-0.78558 0.77931-1.5589 1.572-2.3522 2.3429-0.3065 0.12763-0.33752-0.37154-0.43055-0.59132-0.34608-1.1765-0.72648-2.3447-1.0507-3.5264-0.06216-0.49625 0.17176-0.97129 0.55178-1.2788 0.81468-0.80195 1.6061-1.6318 2.4351-2.4166l0.06025-0.04283zm3.7938 1.9767c-0.54225-0.03358-0.57179 0.67582-0.21503 0.93856 0.3051 0.31874 0.84099 0.65388 1.2692 0.37747 0.34704-0.33568-0.0336-0.83776-0.3432-1.046-0.20764-0.14765-0.45109-0.26801-0.71099-0.27002zm-5.6703 0.76462c-0.55522 0.07121-0.77421 0.74228-0.76839 1.2308-0.0707 0.48632 0.5655 0.78183 0.8517 0.36159 0.31649-0.38999 0.51322-1.0382 0.18345-1.4733-0.07001-0.07038-0.16632-0.11642-0.26677-0.1191zm2.0839 0.64609c-0.55362 0.11758-0.76023 0.80104-0.72674 1.3027-0.02829 0.42421 0.51753 0.67714 0.79638 0.3392 0.35984-0.3827 0.57079-1.0685 0.23291-1.5231-0.07774-0.07941-0.19045-0.1258-0.30255-0.11874zm2.339 2.1193c0.59634 0.06963 1.1579 0.31713 1.738 0.46888 0.7953 0.2452 1.5969 0.47182 2.3882 0.72894 0.36477 0.14333-0.07328 0.4119-0.20533 0.57772-0.82054 0.81393-1.6281 1.6419-2.4568 2.447-0.4466 0.33637-1.0209 0.262-1.5074 0.0746-1.1434-0.35594-2.3007-0.67269-3.4349-1.0542-0.40068-0.18176 0.11387-0.47217 0.26335-0.66608 0.77092-0.76332 1.5267-1.543 2.3073-2.2959 0.26145-0.18741 0.58796-0.27888 0.9078-0.28095zm2.4256 1.3291c-0.44396 0.02732-1.0463 0.22005-1.1311 0.72211 0.0368 0.55456 0.7726 0.5338 1.1585 0.38011 0.38668-0.091 0.89937-0.58081 0.5052-0.95366-0.14736-0.121-0.34746-0.15224-0.53257-0.14856zm-1.7851 0.37215c-0.45854 0.01465-1.077 0.20859-1.1695 0.72211 0.02702 0.5226 0.7035 0.53468 1.0807 0.4056 0.3612-0.09286 0.88871-0.43846 0.67377-0.87102-0.11873-0.19851-0.3709-0.25467-0.58496-0.25669zm-1.9014 0.42784c-0.46126 0.01348-1.0755 0.20875-1.1707 0.72135 0.03528 0.55572 0.77247 0.53486 1.1586 0.38092 0.38659-0.09089 0.90056-0.58098 0.5057-0.95368-0.13717-0.11222-0.32091-0.14674-0.49364-0.14859z" color="#000000" fill="#180418" stroke-width=".38532" style="-inkscape-stroke:none"/>
 </g>
</svg>
