<?xml version="1.0" encoding="UTF-8"?>
<svg id="svg6" width="128" height="128" version="1.1" viewBox="0 0 33.867 33.867" xmlns="http://www.w3.org/2000/svg" xmlns:xlink="http://www.w3.org/1999/xlink">
 <defs id="defs2">
  <linearGradient id="linearGradient1632" x1="132.21" x2="132.21" y1="42.152" y2="70.68" gradientTransform="translate(-111.78 -37.203) scale(.97573)" gradientUnits="userSpaceOnUse">
   <stop id="stop1626" stop-color="gray" offset="0"/>
   <stop id="stop1628" stop-color="#333" offset="1"/>
  </linearGradient>
  <linearGradient id="linearGradient1326" x1="-17.352" x2="-17.352" y1="30.522" y2="8.298" gradientUnits="userSpaceOnUse">
   <stop id="stop1320" stop-color="#676c71" offset="0"/>
   <stop id="stop1322" stop-color="#aeb1b5" offset="1"/>
  </linearGradient>
  <linearGradient id="linearGradient876" x1="391.59" x2="423.46" y1="505.63" y2="450.58" gradientUnits="userSpaceOnUse">
   <stop id="stop868-3" stop-color="#d99830" offset="0"/>
   <stop id="stop870-6" stop-color="#d99830" stop-opacity="0" offset="1"/>
  </linearGradient>
  <linearGradient id="linearGradient895" x1="600.59" x2="597.5" y1="413.4" y2="422.8" gradientUnits="userSpaceOnUse">
   <stop id="stop889" stop-color="#d99830" offset="0"/>
   <stop id="stop891" stop-color="#0e0a02" stop-opacity="0" offset="1"/>
  </linearGradient>
  <linearGradient id="linearGradient825" x1="584.66" x2="639.89" y1="208.57" y2="225.92" gradientTransform="translate(-18.214 -5.597) scale(.07123)" gradientUnits="userSpaceOnUse">
   <stop id="stop819" stop-color="#047eda" offset="0"/>
   <stop id="stop831" stop-color="#34a1f3" offset=".347"/>
   <stop id="stop827" stop-color="#3fa9f9" offset=".491"/>
   <stop id="stop829" stop-color="#359be8" offset=".628"/>
   <stop id="stop821" stop-color="#025597" offset="1"/>
  </linearGradient>
  <linearGradient id="linearGradient844" x1="595.51" x2="635.35" y1="358.34" y2="368.65" gradientTransform="translate(-21.382 -5.907) scale(.07123)" gradientUnits="userSpaceOnUse">
   <stop id="stop838" stop-color="#94897e" offset="0"/>
   <stop id="stop848" stop-color="#e8e6e4" offset=".201"/>
   <stop id="stop846" stop-color="#fdfdfd" offset=".416"/>
   <stop id="stop850" stop-color="#c3beb9" offset=".641"/>
   <stop id="stop840" stop-color="#675a4e" offset="1"/>
  </linearGradient>
  <radialGradient id="radialGradient864" cx="416.44" cy="450.89" r="25.696" gradientTransform="matrix(1.2271 .16465 -.21555 1.6065 1.831 -348.02)" gradientUnits="userSpaceOnUse">
   <stop id="stop858-5" stop-color="#d99830" offset="0"/>
   <stop id="stop860-3" stop-color="#5d1600" offset="1"/>
  </radialGradient>
  <filter id="filter3" x="-.071" y="-.036" width="1.142" height="1.073" color-interpolation-filters="sRGB">
   <feGaussianBlur id="feGaussianBlur3" stdDeviation=".917"/>
  </filter>
 </defs>
 <g id="layer1">
  <g id="g1702" transform="translate(-65.748 -37.203) scale(.97573)" fill="none" opacity=".295" stroke="#000" stroke-linecap="round" stroke-linejoin="round" stroke-opacity=".02">
   <rect id="rect1634" x="69.84" y="40.71" width="29.811" height="29.811" rx="6.61" ry="6.61" stroke-width=".1"/>
   <rect id="rect1638" x="69.84" y="40.71" width="29.811" height="29.811" rx="6.61" ry="6.61" stroke-width=".2"/>
   <rect id="rect1640" x="69.84" y="40.71" width="29.811" height="29.811" rx="6.61" ry="6.61" stroke-width=".3"/>
   <rect id="rect1642" x="69.84" y="40.71" width="29.811" height="29.811" rx="6.61" ry="6.61" stroke-width=".4"/>
   <rect id="rect1644" x="69.84" y="40.71" width="29.811" height="29.811" rx="6.61" ry="6.61" stroke-width=".5"/>
   <rect id="rect1646" x="69.84" y="40.71" width="29.811" height="29.811" rx="6.61" ry="6.61" stroke-width=".6"/>
   <rect id="rect1648" x="69.84" y="40.71" width="29.811" height="29.811" rx="6.61" ry="6.61" stroke-width=".7"/>
   <rect id="rect1650" x="69.84" y="40.71" width="29.811" height="29.811" rx="6.61" ry="6.61" stroke-width=".8"/>
   <rect id="rect1652" x="69.84" y="40.71" width="29.811" height="29.811" rx="6.61" ry="6.61"/>
   <rect id="rect1654" x="69.84" y="40.71" width="29.811" height="29.811" rx="6.61" ry="6.61" stroke-width="1.2"/>
   <rect id="rect1656" x="69.84" y="40.71" width="29.811" height="29.811" rx="6.61" ry="6.61" stroke-width="1.4"/>
   <rect id="rect1658" x="69.84" y="40.71" width="29.811" height="29.811" rx="6.61" ry="6.61" stroke-width="1.6"/>
   <rect id="rect1660" x="69.84" y="40.71" width="29.811" height="29.811" rx="6.61" ry="6.61" stroke-width="1.8"/>
   <rect id="rect1662" x="69.84" y="40.71" width="29.811" height="29.811" rx="6.61" ry="6.61" stroke-width="2"/>
   <rect id="rect1664" x="69.84" y="40.71" width="29.811" height="29.811" rx="6.61" ry="6.61" stroke-width="2.2"/>
   <rect id="rect1666" x="69.84" y="40.71" width="29.811" height="29.811" rx="6.61" ry="6.61" stroke-width="2.6"/>
   <rect id="rect1668" x="69.84" y="40.71" width="29.811" height="29.811" rx="6.61" ry="6.61" stroke-width="3"/>
   <rect id="rect1670" x="69.84" y="40.71" width="29.811" height="29.811" rx="6.61" ry="6.61" stroke-width="3.4"/>
   <rect id="rect1672" x="69.84" y="40.71" width="29.811" height="29.811" rx="6.61" ry="6.61" stroke-width="3.8"/>
   <rect id="rect1674" x="69.84" y="40.71" width="29.811" height="29.811" rx="6.61" ry="6.61" stroke-width="4.2"/>
   <rect id="rect1676" x="69.84" y="40.71" width="29.811" height="29.811" rx="6.61" ry="6.61" stroke-width="4.6"/>
   <rect id="rect1678" x="69.84" y="40.71" width="29.811" height="29.811" rx="6.61" ry="6.61" stroke-width="5"/>
  </g>
  <rect id="rect849" x="2.396" y="2.519" width="29.087" height="29.087" rx="6.449" ry="6.449" fill="url(#linearGradient1632)" stroke-linecap="round" stroke-linejoin="round" stroke-width="2.6877"/>
  <g id="g1340" transform="translate(37.08 -2.702)">
   <rect id="rect1316" x="-32.101" y="7.871" width="23.921" height="23.787" rx="4.744" ry="4.744" fill="url(#linearGradient1326)" fill-rule="evenodd"/>
   <path id="path1318" transform="scale(.26458)" d="m-30.918 49.959-10.246 12.129-5.05-3.031h-8.335l-3.787 2.525-4.799.254-10.353 15.15-5.557.758-6.06 12.123-8.586 3.787-9.85 24.496-.455 1.473c.2.007.397.03.6.03h54.548a17.89 17.89 0 0 0 17.93-17.93z" fill="#a9a9a9"/>
   <path id="path1331" transform="scale(.26458)" d="M-54.549 59.057-62.143 80.5l-12.68 10.535L-85.714 103l-2.142 16.25.082.402h38.927a17.89 17.89 0 0 0 17.93-17.93V77.585l-10.246-15.496-5.05-3.031z" fill="#cbcbcb"/>
  </g>
  <path id="path54-9" transform="matrix(.52557 0 0 .51445 .157 .726)" d="M53.104 1.229c-.642-.019-1.273.348-1.549.92l-2.418 5.007-1.564 3.24 1.453.702.016.01 2.205 1.064.008.004 1.46.705 1.567-3.242 2.402-4.977c.426-.882.068-1.825-.744-2.217l-2.203-1.062a1.556 1.556 0 0 0-.633-.154Zm-.389 11.652-1.48-.687-.002.002-2.201-1.065-1.46-.734-20.333 42.13 1.203.583-1.203-.58-.694 4.718-.69 4.719 3.263-3.478 3.263-3.477zM28.708 53.237 30.91 54.3l-2.203-1.063z" filter="url(#filter3)" opacity=".25" stroke-width=".60575" style="mix-blend-mode:normal"/>
  <g id="g1457" transform="matrix(.99793 .16473 -.16473 .99793 -2.722 .582)">
   <rect id="rect1" transform="rotate(-9.375 -3.892 -17.161) scale(.51963)" x=".003" y=".062" width="64.021" height="63.982" rx="12.912" ry="13.035" fill="#a6a6a6" fill-opacity=".014668" opacity=".25" stroke-linecap="round" stroke-linejoin="round" stroke-width="1.8856"/>
   <g id="g880" transform="translate(-9.201 -6.556) scale(.07123)">
    <path id="path856" d="m411.48 425.24c-30.314 19.126-5.276 44.13-22.331 72.12 34.095-5.053 55.554-21.808 50.711-62.915-4.048-5.75-14.212-8.515-28.38-9.205z" fill="url(#radialGradient864)"/>
    <path id="path866" d="m413.29 424.41c-30.314 19.126-7.08 44.96-24.135 72.949 34.095-5.053 55.554-21.808 50.711-62.915-4.048-5.75-12.408-9.344-26.576-10.034z" fill="url(#linearGradient876)"/>
    <path id="path884" transform="translate(-171.01 9.115)" d="M586.979 415.816c-1.243.013-2.535.1-3.862.245-2.55 1.064-6.138 3.75-8.219 6.133l36.596 11.42a97.528 97.528 0 0 0-.621-8.288c-6.428-5.552-13.82-9.609-23.894-9.51z" fill="url(#linearGradient895)"/>
   </g>
   <path id="path817" d="M20.109 23.734c1.577-10.017 5.212-18.969 8.851-27.919.365-.866 1.678-.363 1.475.492-2.064 9.702-4.045 19.443-8.304 28.083-.643-.407-1.307-.685-2.022-.656z" fill="url(#linearGradient825)"/>
   <path id="path833" d="M22.306 16.934a6.279 6.279 0 0 0-.806.042 75.914 75.914 0 0 0-1.391 6.758c.715-.029 1.38.249 2.022.656a63.254 63.254 0 0 0 2.748-6.515c-.484-.377-1.19-.92-2.573-.941z" fill="url(#linearGradient844)"/>
  </g>
 </g>
 <style id="style15307">.B{clip-path:url(#C)}.C{fill:#3e2723}.D{fill-opacity:.15}.E{fill-opacity:.2}</style>
</svg>
