<?xml version="1.0" encoding="UTF-8"?>
<svg id="svg8" width="64" height="64" version="1.1" viewBox="0 0 16.933 16.933" xmlns="http://www.w3.org/2000/svg" xmlns:cc="http://creativecommons.org/ns#" xmlns:dc="http://purl.org/dc/elements/1.1/" xmlns:rdf="http://www.w3.org/1999/02/22-rdf-syntax-ns#">
 <defs id="defs2">
  <linearGradient id="linearGradient1448" x1="3.9687" x2="3.9687" y1="16.323" y2="2.5603" gradientTransform="matrix(.91668 0 0 .91668 13.925 6.8381)" gradientUnits="userSpaceOnUse">
   <stop id="stop1" stop-color="#f50f2d" offset="0"/>
   <stop id="stop2" stop-color="#ff4b00" offset="1"/>
  </linearGradient>
  <filter id="filter8" x="-.13227" y="-.16542" width="1.2645" height="1.3308" color-interpolation-filters="sRGB">
   <feGaussianBlur id="feGaussianBlur8" stdDeviation="0.60172683"/>
  </filter>
 </defs>
 <metadata id="metadata2">
  <rdf:RDF>
   <cc:Work rdf:about="">
    <dc:format>image/svg+xml</dc:format>
    <dc:type rdf:resource="http://purl.org/dc/dcmitype/StillImage"/>
    <dc:title/>
   </cc:Work>
  </rdf:RDF>
 </metadata>
 <g id="g8" transform="translate(-13.22 -6.1327)">
  <rect id="rect2" x="14.41" y="7.3232" width="14.552" height="14.552" ry="3.4396" fill="url(#linearGradient1448)" stroke-opacity=".95294" stroke-width=".083154"/>
  <g id="g7" fill="#f5f5f5" stroke-width="1.0316">
   <path id="rect3" d="m23.904 10.234a3.2413 3.2413 0 0 0-3.2413 3.2413 3.2413 3.2413 0 0 0 0.05598 0.56883h-3.8869c-0.33479 0-0.60454 0.26923-0.60454 0.60401v3.7115c0 0.33479 0.26976 0.60454 0.60454 0.60454h5.2351c0.33479 0 0.60401-0.26976 0.60401-0.60454v-1.8936a3.2413 3.2413 0 0 0 1.2331 0.25056 3.2413 3.2413 0 0 0 3.2413-3.2413 3.2413 3.2413 0 0 0-3.2413-3.2413z" fill="#000" filter="url(#filter8)" opacity=".25"/>
   <path id="rect3-6" d="m23.904 10.234a3.2413 3.2413 0 0 0-3.2413 3.2413 3.2413 3.2413 0 0 0 0.05598 0.56883h-3.8869c-0.33479 0-0.60454 0.26923-0.60454 0.60401v3.7115c0 0.33479 0.26976 0.60454 0.60454 0.60454h5.2351c0.33479 0 0.60401-0.26976 0.60401-0.60454v-1.8936a3.2413 3.2413 0 0 0 1.2331 0.25056 3.2413 3.2413 0 0 0 3.2413-3.2413 3.2413 3.2413 0 0 0-3.2413-3.2413z"/>
  </g>
 </g>
</svg>
