<?xml version="1.0" encoding="UTF-8" standalone="no"?>
<svg
   width="64"
   height="64"
   version="1.1"
   viewBox="0 0 16.933 16.933"
   id="svg8"
   sodipodi:docname="google-drawings.svg"
   inkscape:version="1.3.2 (091e20ef0f, 2023-11-25)"
   xmlns:inkscape="http://www.inkscape.org/namespaces/inkscape"
   xmlns:sodipodi="http://sodipodi.sourceforge.net/DTD/sodipodi-0.dtd"
   xmlns="http://www.w3.org/2000/svg"
   xmlns:svg="http://www.w3.org/2000/svg"
   xmlns:rdf="http://www.w3.org/1999/02/22-rdf-syntax-ns#"
   xmlns:cc="http://creativecommons.org/ns#"
   xmlns:dc="http://purl.org/dc/elements/1.1/">
  <sodipodi:namedview
     id="namedview8"
     pagecolor="#ffffff"
     bordercolor="#111111"
     borderopacity="1"
     inkscape:showpageshadow="0"
     inkscape:pageopacity="0"
     inkscape:pagecheckerboard="1"
     inkscape:deskcolor="#d1d1d1"
     inkscape:zoom="12.546875"
     inkscape:cx="32"
     inkscape:cy="32"
     inkscape:window-width="1920"
     inkscape:window-height="1011"
     inkscape:window-x="0"
     inkscape:window-y="0"
     inkscape:window-maximized="1"
     inkscape:current-layer="svg8" />
  <defs
     id="defs2">
    <linearGradient
       id="linearGradient1448"
       x1="3.9687"
       x2="3.9687"
       y1="16.323"
       y2="2.5603"
       gradientTransform="matrix(.91668 0 0 .91668 13.925 6.8381)"
       gradientUnits="userSpaceOnUse">
      <stop
         stop-color="#f50f2d"
         offset="0"
         id="stop1" />
      <stop
         stop-color="#ff4b00"
         offset="1"
         id="stop2" />
    </linearGradient>
    <filter
       inkscape:collect="always"
       style="color-interpolation-filters:sRGB"
       id="filter8"
       x="-0.13227129"
       y="-0.16541989"
       width="1.2645426"
       height="1.3308398">
      <feGaussianBlur
         inkscape:collect="always"
         stdDeviation="0.60172683"
         id="feGaussianBlur8" />
    </filter>
  </defs>
  <metadata
     id="metadata2">
    <rdf:RDF>
      <cc:Work
         rdf:about="">
        <dc:format>image/svg+xml</dc:format>
        <dc:type
           rdf:resource="http://purl.org/dc/dcmitype/StillImage" />
        <dc:title />
      </cc:Work>
    </rdf:RDF>
  </metadata>
  <g
     transform="translate(-13.22 -6.1327)"
     id="g8">
    <rect
       x="14.41"
       y="7.3232"
       width="14.552"
       height="14.552"
       ry="3.4396"
       fill="url(#linearGradient1448)"
       stroke-opacity=".95294"
       stroke-width=".083154"
       id="rect2" />
    <g
       fill="#f5f5f5"
       id="g7">
      <path
         id="rect3"
         d="m 23.903727,10.234113 a 3.2413317,3.2413317 0 0 0 -3.241295,3.241296 3.2413317,3.2413317 0 0 0 0.05598,0.568826 H 16.83152 c -0.334787,0 -0.604545,0.269226 -0.604545,0.604012 v 3.711496 c 0,0.334787 0.269758,0.604544 0.604545,0.604544 h 5.235119 c 0.334787,0 0.604011,-0.269757 0.604011,-0.604544 v -1.893598 a 3.2413317,3.2413317 0 0 0 1.233078,0.25056 3.2413317,3.2413317 0 0 0 3.241296,-3.241296 3.2413317,3.2413317 0 0 0 -3.241296,-3.241296 z"
         style="stroke-width:1.03165;fill:#000000;fill-opacity:1;filter:url(#filter8);opacity:0.25" />
      <path
         id="rect3-6"
         d="m 23.903727,10.234113 a 3.2413317,3.2413317 0 0 0 -3.241295,3.241295 3.2413317,3.2413317 0 0 0 0.05598,0.568826 H 16.83152 c -0.334787,0 -0.604545,0.269227 -0.604545,0.604013 v 3.711495 c 0,0.334787 0.269758,0.604545 0.604545,0.604545 h 5.235119 c 0.334787,0 0.604011,-0.269757 0.604011,-0.604545 v -1.893597 a 3.2413317,3.2413317 0 0 0 1.233078,0.25056 3.2413317,3.2413317 0 0 0 3.241296,-3.241297 3.2413317,3.2413317 0 0 0 -3.241296,-3.241295 z"
         style="stroke-width:1.03165" />
    </g>
  </g>
</svg>
