<?xml version="1.0" encoding="UTF-8"?>
<svg id="svg1443" width="128" height="128" version="1.1" viewBox="0 0 33.867 33.867" xmlns="http://www.w3.org/2000/svg" xmlns:cc="http://creativecommons.org/ns#" xmlns:dc="http://purl.org/dc/elements/1.1/" xmlns:rdf="http://www.w3.org/1999/02/22-rdf-syntax-ns#" xmlns:xlink="http://www.w3.org/1999/xlink">
 <defs id="defs1437">
  <radialGradient id="radialGradient1676" cx="16.951" cy="4.2649" r="14.544" gradientTransform="matrix(5.031 0 0 1.4825 -68.33 -2.0576)" gradientUnits="userSpaceOnUse">
   <stop id="stop1668" stop-color="#ff5e48" offset="0"/>
   <stop id="stop1670" stop-color="#ff1f4b" offset="1"/>
  </radialGradient>
  <linearGradient id="linearGradient1722" x1="22.838" x2="22.838" y1="51.253" y2="222.88" gradientUnits="userSpaceOnUse">
   <stop id="stop1716" stop-color="#fff" offset="0"/>
   <stop id="stop1718" stop-color="#ff1f4b" offset="1"/>
  </linearGradient>
 </defs>
 <metadata id="metadata1440">
  <rdf:RDF>
   <cc:Work rdf:about="">
    <dc:format>image/svg+xml</dc:format>
    <dc:type rdf:resource="http://purl.org/dc/dcmitype/StillImage"/>
   </cc:Work>
  </rdf:RDF>
 </metadata>
 <g id="layer1">
  <g id="g1702" transform="matrix(.97573 0 0 .96361 -65.737 -36.328)" fill="none" opacity=".18754" stroke="#000" stroke-linecap="round" stroke-linejoin="round" stroke-opacity=".02">
   <rect id="rect1634" x="69.84" y="40.71" width="29.811" height="29.811" rx="6.6099" ry="6.6099" stroke-width=".1"/>
   <rect id="rect1638" x="69.84" y="40.71" width="29.811" height="29.811" rx="6.6099" ry="6.6099" stroke-width=".2"/>
   <rect id="rect1640" x="69.84" y="40.71" width="29.811" height="29.811" rx="6.6099" ry="6.6099" stroke-width=".3"/>
   <rect id="rect1642" x="69.84" y="40.71" width="29.811" height="29.811" rx="6.6099" ry="6.6099" stroke-width=".4"/>
   <rect id="rect1644" x="69.84" y="40.71" width="29.811" height="29.811" rx="6.6099" ry="6.6099" stroke-width=".5"/>
   <rect id="rect1646" x="69.84" y="40.71" width="29.811" height="29.811" rx="6.6099" ry="6.6099" stroke-width=".6"/>
   <rect id="rect1648" x="69.84" y="40.71" width="29.811" height="29.811" rx="6.6099" ry="6.6099" stroke-width=".7"/>
   <rect id="rect1650" x="69.84" y="40.71" width="29.811" height="29.811" rx="6.6099" ry="6.6099" stroke-width=".8"/>
   <rect id="rect1652" x="69.84" y="40.71" width="29.811" height="29.811" rx="6.6099" ry="6.6099"/>
   <rect id="rect1654" x="69.84" y="40.71" width="29.811" height="29.811" rx="6.6099" ry="6.6099" stroke-width="1.2"/>
   <rect id="rect1656" x="69.84" y="40.71" width="29.811" height="29.811" rx="6.6099" ry="6.6099" stroke-width="1.4"/>
   <rect id="rect1658" x="69.84" y="40.71" width="29.811" height="29.811" rx="6.6099" ry="6.6099" stroke-width="1.6"/>
   <rect id="rect1660" x="69.84" y="40.71" width="29.811" height="29.811" rx="6.6099" ry="6.6099" stroke-width="1.8"/>
   <rect id="rect1662" x="69.84" y="40.71" width="29.811" height="29.811" rx="6.6099" ry="6.6099" stroke-width="2"/>
   <rect id="rect1664" x="69.84" y="40.71" width="29.811" height="29.811" rx="6.6099" ry="6.6099" stroke-width="2.2"/>
   <rect id="rect1666" x="69.84" y="40.71" width="29.811" height="29.811" rx="6.6099" ry="6.6099" stroke-width="2.6"/>
   <rect id="rect1668" x="69.84" y="40.71" width="29.811" height="29.811" rx="6.6099" ry="6.6099" stroke-width="3"/>
   <rect id="rect1670" x="69.84" y="40.71" width="29.811" height="29.811" rx="6.6099" ry="6.6099" stroke-width="3.4"/>
   <rect id="rect1672" x="69.84" y="40.71" width="29.811" height="29.811" rx="6.6099" ry="6.6099" stroke-width="3.8"/>
   <rect id="rect1674" x="69.84" y="40.71" width="29.811" height="29.811" rx="6.6099" ry="6.6099" stroke-width="4.2"/>
   <rect id="rect1676" x="69.84" y="40.71" width="29.811" height="29.811" rx="6.6099" ry="6.6099" stroke-width="4.6"/>
   <rect id="rect1678" x="69.84" y="40.71" width="29.811" height="29.811" rx="6.6099" ry="6.6099" stroke-width="5"/>
  </g>
  <rect id="rect849" x="2.4074" y="2.5392" width="29.087" height="29.087" rx="6.4495" ry="6.4495" fill="url(#radialGradient1676)" stroke-linecap="round" stroke-linejoin="round" stroke-width="2.6877"/>
  <g id="g3494" fill="#0d011c" opacity=".7533" stroke-width=".36434">
   <path id="path3299" d="m7.66 8.6822c-0.80737 0-1.4573 0.68528-1.4573 1.5369v13.321c0 0.85157 0.64991 1.5369 1.4573 1.5369 0.80737 0 1.4578-0.68528 1.4578-1.5369v-0.65577c0.051542 4e-3 0.10346 0.0067 0.15606 0.0067h2.0299v1.2754c0 0.50461 0.40593 0.91054 0.91054 0.91054 0.5046 0 0.91106-0.40593 0.91106-0.91054v-1.2754h1.093v1.2754c1e-6 0.50461 0.40645 0.91054 0.91106 0.91054s0.91054-0.40593 0.91054-0.91054v-1.2754h1.093v1.2754c0 0.50461 0.40645 0.91054 0.91106 0.91054 0.5046 0 0.91054-0.40593 0.91054-0.91054v-1.2754h7.1308c1.0958 0 1.9777-0.89388 1.9777-2.004v-8.015c0-1.1101-0.88185-2.004-1.9777-2.004h-16.811c-0.0526 0-0.10452 0.0027-0.15606 0.0067v-0.65577c0-0.85157-0.65042-1.5369-1.4578-1.5369zm6.0115 4.3718a3.8255 3.8255 0 0 1 3.8256 3.8256 3.8255 3.8255 0 0 1-3.8256 3.8256 3.8255 3.8255 0 0 1-3.8251-3.8256 3.8255 3.8255 0 0 1 3.8251-3.8256zm0 0.72864c-0.30276 0-0.54622 0.24398-0.54622 0.54674v1.0082a1.6395 1.6395 0 0 0-0.15865 0.06408l-0.71158-0.71158c-0.21409-0.21409-0.55899-0.21409-0.77308 0-0.21409 0.21408-0.21409 0.55848 0 0.77256l0.71158 0.71158a1.6395 1.6395 0 0 0-0.06408 0.15865h-1.0082c-0.30276 0-0.54622 0.24397-0.54622 0.54674 0 0.30276 0.24346 0.54674 0.54622 0.54674h1.0082a1.6395 1.6395 0 0 0 0.06408 0.15865l-0.71158 0.71158c-0.21409 0.21409-0.21409 0.55848 0 0.77256 0.21409 0.21409 0.55899 0.21409 0.77308 0l0.71158-0.71158a1.6395 1.6395 0 0 0 0.15865 0.06408v1.0082c0 0.30276 0.24346 0.54674 0.54622 0.54674 0.30276 0 0.54674-0.24397 0.54674-0.54674v-1.0082a1.6395 1.6395 0 0 0 0.15865-0.06408l0.71158 0.71158c0.21409 0.21409 0.55899 0.21409 0.77308 0 0.21409-0.21408 0.21409-0.55848 0-0.77256l-0.71158-0.71158a1.6395 1.6395 0 0 0 0.06408-0.15865h1.0082c0.30276 0 0.54622-0.24397 0.54622-0.54674 0-0.30276-0.24346-0.54674-0.54622-0.54674h-1.0051a1.6395 1.6395 0 0 0-0.06615-0.15968l0.71055-0.71055c0.21409-0.21409 0.21409-0.55848 0-0.77256-0.21408-0.21409-0.55899-0.21409-0.77308 0l-0.71004 0.71003a1.6395 1.6395 0 0 0-0.1602-0.06615v-1.0046c0-0.30276-0.24397-0.54674-0.54674-0.54674zm8.7442 0a3.0969 3.0969 0 0 1 3.097 3.097 3.0969 3.0969 0 0 1-3.097 3.097 3.0969 3.0969 0 0 1-3.0965-3.097 3.0969 3.0969 0 0 1 3.0965-3.097zm0 0.72864c-0.30276 0-0.54622 0.24397-0.54622 0.54674v0.50023l-0.35502-0.35502c-0.21409-0.21409-0.55951-0.21409-0.7736 0-0.21408 0.21408-0.21408 0.55848 0 0.77256l0.35708 0.35708h-0.50384c-0.30276 0-0.54622 0.24397-0.54622 0.54674s0.24346 0.54674 0.54622 0.54674h0.49971l-0.35295 0.35295c-0.21408 0.21408-0.21408 0.55848 0 0.77256 0.21409 0.21409 0.55951 0.21409 0.7736 0l0.35502-0.35502v0.50436c0 0.30276 0.24346 0.54674 0.54622 0.54674 0.30276 0 0.54674-0.24397 0.54674-0.54674v-0.50436l0.35502 0.35502c0.21408 0.21409 0.55848 0.21409 0.77256 0 0.21409-0.21409 0.21409-0.55848 0-0.77256l-0.35295-0.35295h0.50023c0.30276 0 0.54674-0.24397 0.54674-0.54674s-0.24397-0.54674-0.54674-0.54674h-0.50436l0.35708-0.35708c0.21409-0.21409 0.21409-0.55848 0-0.77256-0.21409-0.21409-0.55848-0.21409-0.77256 0l-0.35502 0.35502v-0.50023c0-0.30276-0.24397-0.54674-0.54674-0.54674z" fill-opacity=".048907"/>
   <path id="path3481" d="m7.927 8.8472c-0.80737 0-1.4573 0.68528-1.4573 1.5369v13.321c0 0.85157 0.64991 1.5369 1.4573 1.5369 0.80737 0 1.4578-0.68528 1.4578-1.5369v-0.65577c0.051542 4e-3 0.10346 0.0067 0.15606 0.0067h2.0299v1.2754c0 0.50461 0.40593 0.91054 0.91054 0.91054 0.5046 0 0.91106-0.40593 0.91106-0.91054v-1.2754h1.093v1.2754c1e-6 0.50461 0.40645 0.91054 0.91106 0.91054s0.91054-0.40593 0.91054-0.91054v-1.2754h1.093v1.2754c0 0.50461 0.40645 0.91054 0.91106 0.91054 0.5046 0 0.91054-0.40593 0.91054-0.91054v-1.2754h7.1308c1.0958 0 1.9777-0.89388 1.9777-2.004v-8.015c0-1.1101-0.88185-2.004-1.9777-2.004h-16.811c-0.0526 0-0.10452 0.0027-0.15606 0.0067v-0.65577c0-0.85157-0.65042-1.5369-1.4578-1.5369zm6.0115 4.3718a3.8255 3.8255 0 0 1 3.8256 3.8256 3.8255 3.8255 0 0 1-3.8256 3.8256 3.8255 3.8255 0 0 1-3.8251-3.8256 3.8255 3.8255 0 0 1 3.8251-3.8256zm0 0.72864c-0.30276 0-0.54622 0.24398-0.54622 0.54674v1.0082a1.6395 1.6395 0 0 0-0.15865 0.06408l-0.71158-0.71158c-0.21409-0.21409-0.55899-0.21409-0.77308 0-0.21409 0.21408-0.21409 0.55848 0 0.77256l0.71158 0.71158a1.6395 1.6395 0 0 0-0.06408 0.15865h-1.0082c-0.30276 0-0.54622 0.24397-0.54622 0.54674 0 0.30276 0.24346 0.54674 0.54622 0.54674h1.0082a1.6395 1.6395 0 0 0 0.06408 0.15865l-0.71158 0.71158c-0.21409 0.21409-0.21409 0.55848 0 0.77256 0.21409 0.21409 0.55899 0.21409 0.77308 0l0.71158-0.71158a1.6395 1.6395 0 0 0 0.15865 0.06408v1.0082c0 0.30276 0.24346 0.54674 0.54622 0.54674 0.30276 0 0.54674-0.24397 0.54674-0.54674v-1.0082a1.6395 1.6395 0 0 0 0.15865-0.06408l0.71158 0.71158c0.21409 0.21409 0.55899 0.21409 0.77308 0 0.21409-0.21408 0.21409-0.55848 0-0.77256l-0.71158-0.71158a1.6395 1.6395 0 0 0 0.06408-0.15865h1.0082c0.30276 0 0.54622-0.24397 0.54622-0.54674 0-0.30276-0.24346-0.54674-0.54622-0.54674h-1.0051a1.6395 1.6395 0 0 0-0.06615-0.15968l0.71055-0.71055c0.21409-0.21409 0.21409-0.55848 0-0.77256-0.21408-0.21409-0.55899-0.21409-0.77308 0l-0.71004 0.71003a1.6395 1.6395 0 0 0-0.1602-0.06615v-1.0046c0-0.30276-0.24397-0.54674-0.54674-0.54674zm8.7442 0a3.0969 3.0969 0 0 1 3.097 3.097 3.0969 3.0969 0 0 1-3.097 3.097 3.0969 3.0969 0 0 1-3.0965-3.097 3.0969 3.0969 0 0 1 3.0965-3.097zm0 0.72864c-0.30276 0-0.54622 0.24397-0.54622 0.54674v0.50023l-0.35502-0.35502c-0.21409-0.21409-0.55951-0.21409-0.7736 0-0.21408 0.21408-0.21408 0.55848 0 0.77256l0.35708 0.35708h-0.50384c-0.30276 0-0.54622 0.24397-0.54622 0.54674s0.24346 0.54674 0.54622 0.54674h0.49971l-0.35295 0.35295c-0.21408 0.21408-0.21408 0.55848 0 0.77256 0.21409 0.21409 0.55951 0.21409 0.7736 0l0.35502-0.35502v0.50436c0 0.30276 0.24346 0.54674 0.54622 0.54674 0.30276 0 0.54674-0.24397 0.54674-0.54674v-0.50436l0.35502 0.35502c0.21408 0.21409 0.55848 0.21409 0.77256 0 0.21409-0.21409 0.21409-0.55848 0-0.77256l-0.35295-0.35295h0.50023c0.30276 0 0.54674-0.24397 0.54674-0.54674s-0.24397-0.54674-0.54674-0.54674h-0.50436l0.35708-0.35708c0.21409-0.21409 0.21409-0.55848 0-0.77256-0.21409-0.21409-0.55848-0.21409-0.77256 0l-0.35502 0.35502v-0.50023c0-0.30276-0.24397-0.54674-0.54674-0.54674z" fill-opacity=".048907"/>
   <path id="path3483" d="m8.2454 9.1408c-0.80737 0-1.4573 0.68528-1.4573 1.5369v13.321c0 0.85157 0.64991 1.5369 1.4573 1.5369 0.80737 0 1.4578-0.68528 1.4578-1.5369v-0.65577c0.051542 4e-3 0.10346 0.0067 0.15606 0.0067h2.0299v1.2754c0 0.50461 0.40593 0.91054 0.91054 0.91054 0.5046 0 0.91106-0.40593 0.91106-0.91054v-1.2754h1.093v1.2754c1e-6 0.50461 0.40645 0.91054 0.91106 0.91054s0.91054-0.40593 0.91054-0.91054v-1.2754h1.093v1.2754c0 0.50461 0.40645 0.91054 0.91106 0.91054 0.5046 0 0.91054-0.40593 0.91054-0.91054v-1.2754h7.1308c1.0958 0 1.9777-0.89388 1.9777-2.004v-8.015c0-1.1101-0.88185-2.004-1.9777-2.004h-16.811c-0.0526 0-0.10452 0.0027-0.15606 0.0067v-0.65577c0-0.85157-0.65042-1.5369-1.4578-1.5369zm6.0115 4.3718a3.8255 3.8255 0 0 1 3.8256 3.8256 3.8255 3.8255 0 0 1-3.8256 3.8256 3.8255 3.8255 0 0 1-3.8251-3.8256 3.8255 3.8255 0 0 1 3.8251-3.8256zm0 0.72864c-0.30276 0-0.54622 0.24398-0.54622 0.54674v1.0082a1.6395 1.6395 0 0 0-0.15865 0.06408l-0.71158-0.71158c-0.21409-0.21409-0.55899-0.21409-0.77308 0-0.21409 0.21408-0.21409 0.55848 0 0.77256l0.71158 0.71158a1.6395 1.6395 0 0 0-0.06408 0.15865h-1.0082c-0.30276 0-0.54622 0.24397-0.54622 0.54674 0 0.30276 0.24346 0.54674 0.54622 0.54674h1.0082a1.6395 1.6395 0 0 0 0.06408 0.15865l-0.71158 0.71158c-0.21409 0.21409-0.21409 0.55848 0 0.77256 0.21409 0.21409 0.55899 0.21409 0.77308 0l0.71158-0.71158a1.6395 1.6395 0 0 0 0.15865 0.06408v1.0082c0 0.30276 0.24346 0.54674 0.54622 0.54674 0.30276 0 0.54674-0.24397 0.54674-0.54674v-1.0082a1.6395 1.6395 0 0 0 0.15865-0.06408l0.71158 0.71158c0.21409 0.21409 0.55899 0.21409 0.77308 0 0.21409-0.21408 0.21409-0.55848 0-0.77256l-0.71158-0.71158a1.6395 1.6395 0 0 0 0.06408-0.15865h1.0082c0.30276 0 0.54622-0.24397 0.54622-0.54674 0-0.30276-0.24346-0.54674-0.54622-0.54674h-1.0051a1.6395 1.6395 0 0 0-0.06615-0.15968l0.71055-0.71055c0.21409-0.21409 0.21409-0.55848 0-0.77256-0.21408-0.21409-0.55899-0.21409-0.77308 0l-0.71004 0.71003a1.6395 1.6395 0 0 0-0.1602-0.06615v-1.0046c0-0.30276-0.24397-0.54674-0.54674-0.54674zm8.7442 0a3.0969 3.0969 0 0 1 3.097 3.097 3.0969 3.0969 0 0 1-3.097 3.097 3.0969 3.0969 0 0 1-3.0965-3.097 3.0969 3.0969 0 0 1 3.0965-3.097zm0 0.72864c-0.30276 0-0.54622 0.24397-0.54622 0.54674v0.50023l-0.35502-0.35502c-0.21409-0.21409-0.55951-0.21409-0.7736 0-0.21408 0.21408-0.21408 0.55848 0 0.77256l0.35708 0.35708h-0.50384c-0.30276 0-0.54622 0.24397-0.54622 0.54674s0.24346 0.54674 0.54622 0.54674h0.49971l-0.35295 0.35295c-0.21408 0.21408-0.21408 0.55848 0 0.77256 0.21409 0.21409 0.55951 0.21409 0.7736 0l0.35502-0.35502v0.50436c0 0.30276 0.24346 0.54674 0.54622 0.54674 0.30276 0 0.54674-0.24397 0.54674-0.54674v-0.50436l0.35502 0.35502c0.21408 0.21409 0.55848 0.21409 0.77256 0 0.21409-0.21409 0.21409-0.55848 0-0.77256l-0.35295-0.35295h0.50023c0.30276 0 0.54674-0.24397 0.54674-0.54674s-0.24397-0.54674-0.54674-0.54674h-0.50436l0.35708-0.35708c0.21409-0.21409 0.21409-0.55848 0-0.77256-0.21409-0.21409-0.55848-0.21409-0.77256 0l-0.35502 0.35502v-0.50023c0-0.30276-0.24397-0.54674-0.54674-0.54674z" fill-opacity=".048907"/>
   <path id="path3485" d="m8.6996 9.6202c-0.80737 0-1.4573 0.68528-1.4573 1.5369v13.321c0 0.85157 0.64991 1.5369 1.4573 1.5369 0.80737 0 1.4578-0.68528 1.4578-1.5369v-0.65577c0.05154 4e-3 0.10346 0.0067 0.15606 0.0067h2.0298v1.2754c0 0.50461 0.40593 0.91054 0.91054 0.91054 0.5046 0 0.91106-0.40593 0.91106-0.91054v-1.2754h1.093v1.2754c1e-6 0.50461 0.40645 0.91054 0.91106 0.91054s0.91054-0.40593 0.91054-0.91054v-1.2754h1.093v1.2754c0 0.50461 0.40645 0.91054 0.91106 0.91054 0.5046 0 0.91054-0.40593 0.91054-0.91054v-1.2754h7.1308c1.0958 0 1.9777-0.89388 1.9777-2.004v-8.015c0-1.1101-0.88185-2.004-1.9777-2.004h-16.811c-0.0526 0-0.10452 0.0027-0.15606 0.0067v-0.65577c0-0.85157-0.65042-1.5369-1.4578-1.5369zm6.0115 4.3718a3.8255 3.8255 0 0 1 3.8256 3.8256 3.8255 3.8255 0 0 1-3.8256 3.8256 3.8255 3.8255 0 0 1-3.8251-3.8256 3.8255 3.8255 0 0 1 3.8251-3.8256zm0 0.72864c-0.30276 0-0.54622 0.24398-0.54622 0.54674v1.0082a1.6395 1.6395 0 0 0-0.15865 0.06408l-0.71158-0.71158c-0.21409-0.21409-0.55899-0.21409-0.77308 0-0.21409 0.21408-0.21409 0.55848 0 0.77256l0.71158 0.71158a1.6395 1.6395 0 0 0-0.06408 0.15865h-1.0082c-0.30276 0-0.54622 0.24397-0.54622 0.54674 0 0.30276 0.24346 0.54674 0.54622 0.54674h1.0082a1.6395 1.6395 0 0 0 0.06408 0.15865l-0.71158 0.71158c-0.21409 0.21409-0.21409 0.55848 0 0.77256 0.21409 0.21409 0.55899 0.21409 0.77308 0l0.71158-0.71158a1.6395 1.6395 0 0 0 0.15865 0.06408v1.0082c0 0.30276 0.24346 0.54674 0.54622 0.54674 0.30276 0 0.54674-0.24397 0.54674-0.54674v-1.0082a1.6395 1.6395 0 0 0 0.15865-0.06408l0.71158 0.71158c0.21409 0.21409 0.55899 0.21409 0.77308 0 0.21409-0.21408 0.21409-0.55848 0-0.77256l-0.71158-0.71158a1.6395 1.6395 0 0 0 0.06408-0.15865h1.0082c0.30276 0 0.54622-0.24397 0.54622-0.54674 0-0.30276-0.24346-0.54674-0.54622-0.54674h-1.0051a1.6395 1.6395 0 0 0-0.06615-0.15968l0.71055-0.71055c0.21409-0.21409 0.21409-0.55848 0-0.77256-0.21408-0.21409-0.55899-0.21409-0.77308 0l-0.71004 0.71003a1.6395 1.6395 0 0 0-0.1602-0.06615v-1.0046c0-0.30276-0.24397-0.54674-0.54674-0.54674zm8.7442 0a3.0969 3.0969 0 0 1 3.097 3.097 3.0969 3.0969 0 0 1-3.097 3.097 3.0969 3.0969 0 0 1-3.0965-3.097 3.0969 3.0969 0 0 1 3.0965-3.097zm0 0.72864c-0.30276 0-0.54622 0.24397-0.54622 0.54674v0.50023l-0.35502-0.35502c-0.21409-0.21409-0.55951-0.21409-0.7736 0-0.21408 0.21408-0.21408 0.55848 0 0.77256l0.35708 0.35708h-0.50384c-0.30276 0-0.54622 0.24397-0.54622 0.54674s0.24346 0.54674 0.54622 0.54674h0.49971l-0.35295 0.35295c-0.21408 0.21408-0.21408 0.55848 0 0.77256 0.21409 0.21409 0.55951 0.21409 0.7736 0l0.35502-0.35502v0.50436c0 0.30276 0.24346 0.54674 0.54622 0.54674 0.30276 0 0.54674-0.24397 0.54674-0.54674v-0.50436l0.35502 0.35502c0.21408 0.21409 0.55848 0.21409 0.77256 0 0.21409-0.21409 0.21409-0.55848 0-0.77256l-0.35295-0.35295h0.50023c0.30276 0 0.54674-0.24397 0.54674-0.54674s-0.24397-0.54674-0.54674-0.54674h-0.50436l0.35708-0.35708c0.21409-0.21409 0.21409-0.55848 0-0.77256-0.21409-0.21409-0.55848-0.21409-0.77256 0l-0.35502 0.35502v-0.50023c0-0.30276-0.24397-0.54674-0.54674-0.54674z" fill-opacity=".048907"/>
   <path id="path3487" d="m9.5383 10.553c-0.80737 0-1.4573 0.68528-1.4573 1.5369v13.321c0 0.85157 0.64991 1.5369 1.4573 1.5369 0.80737 0 1.4578-0.68528 1.4578-1.5369v-0.65577c0.05154 4e-3 0.10346 0.0067 0.15606 0.0067h2.0298v1.2754c0 0.50461 0.40593 0.91054 0.91054 0.91054 0.5046 0 0.91106-0.40593 0.91106-0.91054v-1.2754h1.093v1.2754c1e-6 0.50461 0.40645 0.91054 0.91106 0.91054s0.91054-0.40593 0.91054-0.91054v-1.2754h1.093v1.2754c0 0.50461 0.40645 0.91054 0.91106 0.91054 0.5046 0 0.91054-0.40593 0.91054-0.91054v-1.2754h7.1308c1.0958 0 1.9777-0.89388 1.9777-2.004v-8.015c0-1.1101-0.88185-2.004-1.9777-2.004h-16.811c-0.0526 0-0.10452 0.0027-0.15606 0.0067v-0.65577c0-0.85157-0.65042-1.5369-1.4578-1.5369zm6.0115 4.3718a3.8255 3.8255 0 0 1 3.8256 3.8256 3.8255 3.8255 0 0 1-3.8256 3.8256 3.8255 3.8255 0 0 1-3.8251-3.8256 3.8255 3.8255 0 0 1 3.8251-3.8256zm0 0.72864c-0.30276 0-0.54622 0.24398-0.54622 0.54674v1.0082a1.6395 1.6395 0 0 0-0.15865 0.06408l-0.71158-0.71158c-0.21409-0.21409-0.55899-0.21409-0.77308 0-0.21409 0.21408-0.21409 0.55848 0 0.77256l0.71158 0.71158a1.6395 1.6395 0 0 0-0.06408 0.15865h-1.0082c-0.30276 0-0.54622 0.24397-0.54622 0.54674 0 0.30276 0.24346 0.54674 0.54622 0.54674h1.0082a1.6395 1.6395 0 0 0 0.06408 0.15865l-0.71158 0.71158c-0.21409 0.21409-0.21409 0.55848 0 0.77256 0.21409 0.21409 0.55899 0.21409 0.77308 0l0.71158-0.71158a1.6395 1.6395 0 0 0 0.15865 0.06408v1.0082c0 0.30276 0.24346 0.54674 0.54622 0.54674 0.30276 0 0.54674-0.24397 0.54674-0.54674v-1.0082a1.6395 1.6395 0 0 0 0.15865-0.06408l0.71158 0.71158c0.21409 0.21409 0.55899 0.21409 0.77308 0 0.21409-0.21408 0.21409-0.55848 0-0.77256l-0.71158-0.71158a1.6395 1.6395 0 0 0 0.06408-0.15865h1.0082c0.30276 0 0.54622-0.24397 0.54622-0.54674 0-0.30276-0.24346-0.54674-0.54622-0.54674h-1.0051a1.6395 1.6395 0 0 0-0.06615-0.15968l0.71055-0.71055c0.21409-0.21409 0.21409-0.55848 0-0.77256-0.21408-0.21409-0.55899-0.21409-0.77308 0l-0.71004 0.71003a1.6395 1.6395 0 0 0-0.1602-0.06615v-1.0046c0-0.30276-0.24397-0.54674-0.54674-0.54674zm8.7442 0a3.0969 3.0969 0 0 1 3.097 3.097 3.0969 3.0969 0 0 1-3.097 3.097 3.0969 3.0969 0 0 1-3.0965-3.097 3.0969 3.0969 0 0 1 3.0965-3.097zm0 0.72864c-0.30276 0-0.54622 0.24397-0.54622 0.54674v0.50023l-0.35502-0.35502c-0.21409-0.21409-0.55951-0.21409-0.7736 0-0.21408 0.21408-0.21408 0.55848 0 0.77256l0.35708 0.35708h-0.50384c-0.30276 0-0.54622 0.24397-0.54622 0.54674s0.24346 0.54674 0.54622 0.54674h0.49971l-0.35295 0.35295c-0.21408 0.21408-0.21408 0.55848 0 0.77256 0.21409 0.21409 0.55951 0.21409 0.7736 0l0.35502-0.35502v0.50436c0 0.30276 0.24346 0.54674 0.54622 0.54674 0.30276 0 0.54674-0.24397 0.54674-0.54674v-0.50436l0.35502 0.35502c0.21408 0.21409 0.55848 0.21409 0.77256 0 0.21409-0.21409 0.21409-0.55848 0-0.77256l-0.35295-0.35295h0.50023c0.30276 0 0.54674-0.24397 0.54674-0.54674s-0.24397-0.54674-0.54674-0.54674h-0.50436l0.35708-0.35708c0.21409-0.21409 0.21409-0.55848 0-0.77256-0.21409-0.21409-0.55848-0.21409-0.77256 0l-0.35502 0.35502v-0.50023c0-0.30276-0.24397-0.54674-0.54674-0.54674z" fill-opacity=".048907"/>
  </g>
  <path id="rect4" transform="scale(.26458)" d="m28.346 32.564c-3.0515 0-5.5078 2.5901-5.5078 5.8086v50.348c0 3.2185 2.4563 5.8086 5.5078 5.8086 3.0515 0 5.5098-2.5901 5.5098-5.8086v-2.4785c0.1948 0.01528 0.39104 0.02539 0.58984 0.02539h7.6719v4.8203c0 1.9072 1.5342 3.4414 3.4414 3.4414s3.4434-1.5342 3.4434-3.4414v-4.8203h4.1309v4.8203c1e-6 1.9072 1.5362 3.4414 3.4434 3.4414s3.4414-1.5342 3.4414-3.4414v-4.8203h4.1309v4.8203c-1e-6 1.9072 1.5362 3.4414 3.4434 3.4414s3.4414-1.5342 3.4414-3.4414v-4.8203h26.951c4.1416 0 7.4746-3.3784 7.4746-7.5742v-30.293c0-4.1958-3.333-7.5742-7.4746-7.5742h-63.539c-0.1988 0-0.39504 0.01011-0.58984 0.02539v-2.4785c0-3.2185-2.4583-5.8086-5.5098-5.8086zm22.721 16.523a14.459 14.459 0 0 1 14.459 14.459 14.459 14.459 0 0 1-14.459 14.459 14.459 14.459 0 0 1-14.457-14.459 14.459 14.459 0 0 1 14.457-14.459zm0 2.7539c-1.1443 0-2.0645 0.92211-2.0645 2.0664v3.8105a6.1966 6.1966 0 0 0-0.59961 0.24219l-2.6895-2.6895c-0.80915-0.80914-2.1127-0.80914-2.9219 0-0.80914 0.80914-0.80914 2.1108 0 2.9199l2.6895 2.6895a6.1966 6.1966 0 0 0-0.24219 0.59961h-3.8105c-1.1443 0-2.0645 0.9221-2.0645 2.0664 0 1.1443 0.92015 2.0664 2.0645 2.0664h3.8105a6.1966 6.1966 0 0 0 0.24219 0.59961l-2.6895 2.6895c-0.80914 0.80914-0.80914 2.1108 0 2.9199 0.80914 0.80914 2.1127 0.80914 2.9219 0l2.6895-2.6895a6.1966 6.1966 0 0 0 0.59961 0.24219v3.8105c0 1.1443 0.92015 2.0664 2.0645 2.0664 1.1443 0 2.0664-0.9221 2.0664-2.0664v-3.8105a6.1966 6.1966 0 0 0 0.59961-0.24219l2.6895 2.6895c0.80914 0.80914 2.1127 0.80914 2.9219 0 0.80914-0.80914 0.80914-2.1108 0-2.9199l-2.6895-2.6895a6.1966 6.1966 0 0 0 0.24219-0.59961h3.8105c1.1443 0 2.0645-0.92211 2.0645-2.0664 0-1.1443-0.92015-2.0664-2.0645-2.0664h-3.7988a6.1966 6.1966 0 0 0-0.25-0.60352l2.6855-2.6855c0.80914-0.80914 0.80914-2.1108 0-2.9199-0.80914-0.80914-2.1127-0.80914-2.9219 0l-2.6836 2.6836a6.1966 6.1966 0 0 0-0.60547-0.25v-3.7969c0-1.1443-0.92211-2.0664-2.0664-2.0664zm33.049 0a11.705 11.705 0 0 1 11.705 11.705 11.705 11.705 0 0 1-11.705 11.705 11.705 11.705 0 0 1-11.703-11.705 11.705 11.705 0 0 1 11.703-11.705zm0 2.7539c-1.1443 0-2.0645 0.9221-2.0645 2.0664v1.8906l-1.3418-1.3418c-0.80915-0.80914-2.1147-0.80914-2.9238 0-0.80914 0.80914-0.80914 2.1108 0 2.9199l1.3496 1.3496h-1.9043c-1.1443 0-2.0645 0.9221-2.0645 2.0664s0.92015 2.0664 2.0645 2.0664h1.8887l-1.334 1.334c-0.80914 0.80914-0.80914 2.1108 0 2.9199 0.80914 0.80914 2.1147 0.80914 2.9238 0l1.3418-1.3418v1.9062c0 1.1443 0.92016 2.0664 2.0645 2.0664 1.1443 0 2.0664-0.9221 2.0664-2.0664v-1.9062l1.3418 1.3418c0.80914 0.80914 2.1108 0.80914 2.9199 0 0.80914-0.80914 0.80914-2.1108 0-2.9199l-1.334-1.334h1.8906c1.1443 0 2.0664-0.9221 2.0664-2.0664s-0.9221-2.0664-2.0664-2.0664h-1.9062l1.3496-1.3496c0.80914-0.80914 0.80914-2.1108 0-2.9199-0.80915-0.80914-2.1108-0.80914-2.9199 0l-1.3418 1.3418v-1.8906c0-1.1443-0.9221-2.0664-2.0664-2.0664z" fill="url(#linearGradient1722)" stroke-width="1.377"/>
 </g>
</svg>
