<?xml version="1.0" encoding="UTF-8"?>
<svg id="svg2547" width="128" height="128" version="1.1" viewBox="0 0 33.867 33.867" xmlns="http://www.w3.org/2000/svg" xmlns:cc="http://creativecommons.org/ns#" xmlns:dc="http://purl.org/dc/elements/1.1/" xmlns:rdf="http://www.w3.org/1999/02/22-rdf-syntax-ns#" xmlns:xlink="http://www.w3.org/1999/xlink">
 <defs id="defs2541">
  <linearGradient id="linearGradient936" x1="-27.206" x2="-27.206" y1="-1.3796" y2="25.268" gradientTransform="translate(43.842 5.6325)" gradientUnits="userSpaceOnUse">
   <stop id="stop930" stop-color="#f5f9fb" offset="0"/>
   <stop id="stop3129" stop-color="#dfd6d6" offset=".57672"/>
   <stop id="stop932" stop-color="#f5eeec" offset="1"/>
  </linearGradient>
  <linearGradient id="linearGradient2897" x1="14.845" x2="14.845" y1="9.1444" y2="18.496" gradientTransform="scale(3.7795)" gradientUnits="userSpaceOnUse">
   <stop id="stop2891" stop-color="#ffd400" offset="0"/>
   <stop id="stop2893" stop-color="#ffb100" offset="1"/>
  </linearGradient>
 </defs>
 <metadata id="metadata2544">
  <rdf:RDF>
   <cc:Work rdf:about="">
    <dc:format>image/svg+xml</dc:format>
    <dc:type rdf:resource="http://purl.org/dc/dcmitype/StillImage"/>
   </cc:Work>
  </rdf:RDF>
 </metadata>
 <g id="layer1">
  <g id="g1702" transform="matrix(.97573 0 0 .97573 -65.777 -37.256)" fill="none" opacity=".29676" stroke="#000" stroke-linecap="round" stroke-linejoin="round" stroke-opacity=".02">
   <rect id="rect1634" x="69.84" y="40.71" width="29.811" height="29.811" rx="6.6099" ry="6.6099" stroke-width=".1"/>
   <rect id="rect1638" x="69.84" y="40.71" width="29.811" height="29.811" rx="6.6099" ry="6.6099" stroke-width=".2"/>
   <rect id="rect1640" x="69.84" y="40.71" width="29.811" height="29.811" rx="6.6099" ry="6.6099" stroke-width=".3"/>
   <rect id="rect1642" x="69.84" y="40.71" width="29.811" height="29.811" rx="6.6099" ry="6.6099" stroke-width=".4"/>
   <rect id="rect1644" x="69.84" y="40.71" width="29.811" height="29.811" rx="6.6099" ry="6.6099" stroke-width=".5"/>
   <rect id="rect1646" x="69.84" y="40.71" width="29.811" height="29.811" rx="6.6099" ry="6.6099" stroke-width=".6"/>
   <rect id="rect1648" x="69.84" y="40.71" width="29.811" height="29.811" rx="6.6099" ry="6.6099" stroke-width=".7"/>
   <rect id="rect1650" x="69.84" y="40.71" width="29.811" height="29.811" rx="6.6099" ry="6.6099" stroke-width=".8"/>
   <rect id="rect1652" x="69.84" y="40.71" width="29.811" height="29.811" rx="6.6099" ry="6.6099"/>
   <rect id="rect1654" x="69.84" y="40.71" width="29.811" height="29.811" rx="6.6099" ry="6.6099" stroke-width="1.2"/>
   <rect id="rect1656" x="69.84" y="40.71" width="29.811" height="29.811" rx="6.6099" ry="6.6099" stroke-width="1.4"/>
   <rect id="rect1658" x="69.84" y="40.71" width="29.811" height="29.811" rx="6.6099" ry="6.6099" stroke-width="1.6"/>
   <rect id="rect1660" x="69.84" y="40.71" width="29.811" height="29.811" rx="6.6099" ry="6.6099" stroke-width="1.8"/>
   <rect id="rect1662" x="69.84" y="40.71" width="29.811" height="29.811" rx="6.6099" ry="6.6099" stroke-width="2"/>
   <rect id="rect1664" x="69.84" y="40.71" width="29.811" height="29.811" rx="6.6099" ry="6.6099" stroke-width="2.2"/>
   <rect id="rect1666" x="69.84" y="40.71" width="29.811" height="29.811" rx="6.6099" ry="6.6099" stroke-width="2.6"/>
   <rect id="rect1668" x="69.84" y="40.71" width="29.811" height="29.811" rx="6.6099" ry="6.6099" stroke-width="3"/>
   <rect id="rect1670" x="69.84" y="40.71" width="29.811" height="29.811" rx="6.6099" ry="6.6099" stroke-width="3.4"/>
   <rect id="rect1672" x="69.84" y="40.71" width="29.811" height="29.811" rx="6.6099" ry="6.6099" stroke-width="3.8"/>
   <rect id="rect1674" x="69.84" y="40.71" width="29.811" height="29.811" rx="6.6099" ry="6.6099" stroke-width="4.2"/>
   <rect id="rect1676" x="69.84" y="40.71" width="29.811" height="29.811" rx="6.6099" ry="6.6099" stroke-width="4.6"/>
   <rect id="rect1678" x="69.84" y="40.71" width="29.811" height="29.811" rx="6.6099" ry="6.6099" stroke-width="5"/>
  </g>
  <rect id="rect849-5" x="2.3673" y="2.4659" width="29.087" height="29.087" rx="6.4495" ry="6.4495" fill="url(#linearGradient936)" stroke-linecap="round" stroke-linejoin="round" stroke-width="2.6877"/>
  <path id="rect1789" d="m31.455 17.01v8.0943c0 3.573-2.8765 6.4495-6.4495 6.4495h-16.189c-3.573 0-6.4495-2.8765-6.4495-6.4495v-8.0943z" fill="#0613ff" fill-opacity=".077844" stroke-linecap="round" stroke-linejoin="round" stroke-width="2.6877"/>
  <rect id="rect1909" x="2.3673" y="17.01" width="29.086" height=".38135" rx="0" ry="0" fill="#fff" style="paint-order:fill markers stroke"/>
  <rect id="rect2321" x="2.3673" y="17.394" width="29.086" height=".38135" rx="0" ry="0" fill-opacity=".067576" style="paint-order:fill markers stroke"/>
  <path id="rect2543" transform="scale(.26458)" d="m42.1 21.291c-7.2485 0-13.084 5.8355-13.084 13.084v29.914h69.799v-29.914c0-7.2485-5.8355-13.084-13.084-13.084h-43.631z" fill="url(#linearGradient2897)" style="paint-order:fill markers stroke"/>
  <g id="g3614" fill="#02001d" fill-opacity=".10535" opacity=".30692">
   <rect id="rect3491" x="10.668" y="22.134" width="12.601" height="4.2004" rx="2.1002" ry="2.1002" style="paint-order:fill markers stroke"/>
   <rect id="rect3601" x="10.734" y="22.292" width="12.601" height="4.2004" rx="2.1002" ry="2.1002" style="paint-order:fill markers stroke"/>
   <rect id="rect3603" x="10.818" y="22.416" width="12.601" height="4.2004" rx="2.1002" ry="2.1002" style="paint-order:fill markers stroke"/>
   <rect id="rect3605" x="10.879" y="22.522" width="12.601" height="4.2004" rx="2.1002" ry="2.1002" style="paint-order:fill markers stroke"/>
   <rect id="rect3607" x="10.902" y="22.612" width="12.601" height="4.2004" rx="2.1002" ry="2.1002" style="paint-order:fill markers stroke"/>
  </g>
  <rect id="rect3391" x="10.61" y="21.905" width="12.601" height="4.2004" rx="2.1002" ry="2.1002" fill="#333" style="paint-order:fill markers stroke"/>
  <g id="g4174" transform="translate(-.097133)" fill="#15161b" fill-opacity=".89919">
   <rect id="rect3692" x="12.761" y="9.7725" width="8.4946" height="1.4695" rx=".73477" ry=".73477" opacity=".87479" style="paint-order:fill markers stroke"/>
   <rect id="rect4170" x="12.761" y="12.786" width="8.4946" height="1.4695" rx=".73477" ry=".73477" opacity=".87479" style="paint-order:fill markers stroke"/>
  </g>
 </g>
</svg>
