<?xml version="1.0" encoding="UTF-8"?>
<svg id="svg1083" width="128" height="128" version="1.1" viewBox="0 0 33.867 33.867" xmlns="http://www.w3.org/2000/svg" xmlns:cc="http://creativecommons.org/ns#" xmlns:dc="http://purl.org/dc/elements/1.1/" xmlns:rdf="http://www.w3.org/1999/02/22-rdf-syntax-ns#" xmlns:xlink="http://www.w3.org/1999/xlink">
 <defs id="defs1077">
  <radialGradient id="radialGradient999" cx="16.922" cy="3.5764" r="14.544" gradientTransform="matrix(3.2123 0 0 1.9628 -37.297 -3.4312)" gradientUnits="userSpaceOnUse">
   <stop id="stop1626" stop-color="#496c7e" offset="0"/>
   <stop id="stop1628" stop-color="#19587a" offset="1"/>
  </radialGradient>
  <linearGradient id="linearGradient1019" x1="10.332" x2="14.459" y1="17.337" y2="24.486" gradientTransform="translate(.13824 .012087)" gradientUnits="userSpaceOnUse">
   <stop id="stop1013" stop-color="#fff" offset="0"/>
   <stop id="stop1015" stop-color="#fff" stop-opacity="0" offset="1"/>
  </linearGradient>
  <linearGradient id="linearGradient1021" x1="22.467" x2="22.467" y1="17.985" y2="20.053" gradientTransform="translate(.13824 .012087)" gradientUnits="userSpaceOnUse">
   <stop id="stop1023" stop-color="#fff" offset="0"/>
   <stop id="stop1025" stop-color="#bcb9c0" offset="1"/>
  </linearGradient>
 </defs>
 <metadata id="metadata1080">
  <rdf:RDF>
   <cc:Work rdf:about="">
    <dc:format>image/svg+xml</dc:format>
    <dc:type rdf:resource="http://purl.org/dc/dcmitype/StillImage"/>
    <dc:title/>
   </cc:Work>
  </rdf:RDF>
 </metadata>
 <g id="layer1">
  <g id="g1702" transform="matrix(.97573 0 0 .97573 -65.61 -37.191)" fill="none" opacity=".29676" stroke="#000" stroke-linecap="round" stroke-linejoin="round" stroke-opacity=".02">
   <rect id="rect1634" x="69.84" y="40.71" width="29.811" height="29.811" rx="6.6099" ry="6.6099" stroke-width=".1"/>
   <rect id="rect1638" x="69.84" y="40.71" width="29.811" height="29.811" rx="6.6099" ry="6.6099" stroke-width=".2"/>
   <rect id="rect1640" x="69.84" y="40.71" width="29.811" height="29.811" rx="6.6099" ry="6.6099" stroke-width=".3"/>
   <rect id="rect1642" x="69.84" y="40.71" width="29.811" height="29.811" rx="6.6099" ry="6.6099" stroke-width=".4"/>
   <rect id="rect1644" x="69.84" y="40.71" width="29.811" height="29.811" rx="6.6099" ry="6.6099" stroke-width=".5"/>
   <rect id="rect1646" x="69.84" y="40.71" width="29.811" height="29.811" rx="6.6099" ry="6.6099" stroke-width=".6"/>
   <rect id="rect1648" x="69.84" y="40.71" width="29.811" height="29.811" rx="6.6099" ry="6.6099" stroke-width=".7"/>
   <rect id="rect1650" x="69.84" y="40.71" width="29.811" height="29.811" rx="6.6099" ry="6.6099" stroke-width=".8"/>
   <rect id="rect1652" x="69.84" y="40.71" width="29.811" height="29.811" rx="6.6099" ry="6.6099"/>
   <rect id="rect1654" x="69.84" y="40.71" width="29.811" height="29.811" rx="6.6099" ry="6.6099" stroke-width="1.2"/>
   <rect id="rect1656" x="69.84" y="40.71" width="29.811" height="29.811" rx="6.6099" ry="6.6099" stroke-width="1.4"/>
   <rect id="rect1658" x="69.84" y="40.71" width="29.811" height="29.811" rx="6.6099" ry="6.6099" stroke-width="1.6"/>
   <rect id="rect1660" x="69.84" y="40.71" width="29.811" height="29.811" rx="6.6099" ry="6.6099" stroke-width="1.8"/>
   <rect id="rect1662" x="69.84" y="40.71" width="29.811" height="29.811" rx="6.6099" ry="6.6099" stroke-width="2"/>
   <rect id="rect1664" x="69.84" y="40.71" width="29.811" height="29.811" rx="6.6099" ry="6.6099" stroke-width="2.2"/>
   <rect id="rect1666" x="69.84" y="40.71" width="29.811" height="29.811" rx="6.6099" ry="6.6099" stroke-width="2.6"/>
   <rect id="rect1668" x="69.84" y="40.71" width="29.811" height="29.811" rx="6.6099" ry="6.6099" stroke-width="3"/>
   <rect id="rect1670" x="69.84" y="40.71" width="29.811" height="29.811" rx="6.6099" ry="6.6099" stroke-width="3.4"/>
   <rect id="rect1672" x="69.84" y="40.71" width="29.811" height="29.811" rx="6.6099" ry="6.6099" stroke-width="3.8"/>
   <rect id="rect1674" x="69.84" y="40.71" width="29.811" height="29.811" rx="6.6099" ry="6.6099" stroke-width="4.2"/>
   <rect id="rect1676" x="69.84" y="40.71" width="29.811" height="29.811" rx="6.6099" ry="6.6099" stroke-width="4.6"/>
   <rect id="rect1678" x="69.84" y="40.71" width="29.811" height="29.811" rx="6.6099" ry="6.6099" stroke-width="5"/>
  </g>
  <rect id="rect849" x="2.5448" y="2.5307" width="29.087" height="29.087" rx="6.4495" ry="6.4495" fill="url(#radialGradient999)" stroke-linecap="round" stroke-linejoin="round" stroke-width="2.6877"/>
  <path id="path1009" d="m11.154 11.812c-0.27431 0.0074-0.5257 0.15481-0.66602 0.39062-0.22518 0.37973-0.10018 0.8701 0.2793 1.0957l5.1309 3.043-5.1133 2.8711c-0.38589 0.21607-0.52325 0.70426-0.30664 1.0898 0.21675 0.38518 0.70477 0.52161 1.0898 0.30469l6.3203-3.5488c0.53622-0.30137 0.25084-1.6882-0.27756-2.0031l-6.4568-3.243c-0.12986-0.0769 0.15086-0.0042 0 0z" color="#000000" color-rendering="auto" dominant-baseline="auto" fill-opacity=".14093" image-rendering="auto" shape-rendering="auto" solid-color="#000000" stop-color="#000000" style="font-feature-settings:normal;font-variant-alternates:normal;font-variant-caps:normal;font-variant-east-asian:normal;font-variant-ligatures:normal;font-variant-numeric:normal;font-variant-position:normal;font-variation-settings:normal;inline-size:0;isolation:auto;mix-blend-mode:normal;shape-margin:0;shape-padding:0;text-decoration-color:#000000;text-decoration-line:none;text-decoration-style:solid;text-indent:0;text-orientation:mixed;text-transform:none;white-space:normal"/>
  <path id="path1003" d="m10.039 10.745a0.8 0.8 0 0 0-0.66602 0.39062 0.8 0.8 0 0 0 0.2793 1.0957l5.1309 3.043-5.1133 2.8711a0.8 0.8 0 0 0-0.30664 1.0898 0.8 0.8 0 0 0 1.0898 0.30469l6.3203-3.5488a0.80008 0.80008 0 0 0 0.01758-1.3848l-6.3223-3.75a0.8 0.8 0 0 0-0.42969-0.11133z" color="#000000" color-rendering="auto" dominant-baseline="auto" fill="url(#linearGradient1019)" image-rendering="auto" shape-rendering="auto" solid-color="#000000" stop-color="#000000" style="font-feature-settings:normal;font-variant-alternates:normal;font-variant-caps:normal;font-variant-east-asian:normal;font-variant-ligatures:normal;font-variant-numeric:normal;font-variant-position:normal;font-variation-settings:normal;inline-size:0;isolation:auto;mix-blend-mode:normal;shape-margin:0;shape-padding:0;text-decoration-color:#000000;text-decoration-line:none;text-decoration-style:solid;text-indent:0;text-orientation:mixed;text-transform:none;white-space:normal"/>
  <path id="path1011" d="m19.87 18.578c-0.49736-2.16e-4 -0.90061 0.40303-0.90039 0.90039-2.16e-4 0.49736 0.40303 1.6419 0.90039 1.6417h5.9746c0.49736 2.16e-4 0.90061-1.1443 0.90039-1.6417 2.17e-4 -0.49736-0.40303-0.90061-0.90039-0.90039z" color="#000000" color-rendering="auto" dominant-baseline="auto" fill-opacity=".14093" image-rendering="auto" shape-rendering="auto" solid-color="#000000" stop-color="#000000" style="font-feature-settings:normal;font-variant-alternates:normal;font-variant-caps:normal;font-variant-east-asian:normal;font-variant-ligatures:normal;font-variant-numeric:normal;font-variant-position:normal;font-variation-settings:normal;inline-size:0;isolation:auto;mix-blend-mode:normal;shape-margin:0;shape-padding:0;text-decoration-color:#000000;text-decoration-line:none;text-decoration-style:solid;text-indent:0;text-orientation:mixed;text-transform:none;white-space:normal"/>
  <path id="path1007" d="m18.568 18.11a0.9 0.9 0 0 0-0.90039 0.90039 0.9 0.9 0 0 0 0.90039 0.90039h5.9746a0.9 0.9 0 0 0 0.90039-0.90039 0.9 0.9 0 0 0-0.90039-0.90039z" color="#000000" color-rendering="auto" dominant-baseline="auto" fill="url(#linearGradient1021)" image-rendering="auto" shape-rendering="auto" solid-color="#000000" stop-color="#000000" style="font-feature-settings:normal;font-variant-alternates:normal;font-variant-caps:normal;font-variant-east-asian:normal;font-variant-ligatures:normal;font-variant-numeric:normal;font-variant-position:normal;font-variation-settings:normal;inline-size:0;isolation:auto;mix-blend-mode:normal;shape-margin:0;shape-padding:0;text-decoration-color:#000000;text-decoration-line:none;text-decoration-style:solid;text-indent:0;text-orientation:mixed;text-transform:none;white-space:normal"/>
 </g>
</svg>
