<svg xmlns="http://www.w3.org/2000/svg" xmlns:xlink="http://www.w3.org/1999/xlink" width="128" height="128" viewBox="0 0 33.867 33.867"><defs><linearGradient xlink:href="#a" id="g" x1="26.02" y1="7.046" x2="7.86" y2="28.024" gradientUnits="userSpaceOnUse" gradientTransform="translate(-.025 .006)"/><linearGradient id="a"><stop style="stop-color:#4a5055;stop-opacity:1" offset="0"/><stop style="stop-color:#17191b;stop-opacity:1" offset="1"/></linearGradient><linearGradient id="c"><stop style="stop-color:#fff;stop-opacity:1" offset="0"/><stop offset=".884" style="stop-color:#fff;stop-opacity:.44015443"/><stop style="stop-color:#fff;stop-opacity:.16862745" offset=".944"/><stop offset=".97" style="stop-color:#fff;stop-opacity:.05490196"/><stop style="stop-color:#fff;stop-opacity:.02745098" offset=".977"/><stop offset=".984" style="stop-color:#fff;stop-opacity:.00784314"/><stop style="stop-color:#fff;stop-opacity:0" offset=".993"/><stop style="stop-color:#fff;stop-opacity:0" offset="1"/></linearGradient><linearGradient xlink:href="#b" id="i" x1="-20.445" y1="-21.247" x2="-24.487" y2="-18.081" gradientUnits="userSpaceOnUse"/><linearGradient id="b"><stop style="stop-color:#252525;stop-opacity:1" offset="0"/><stop style="stop-color:#747474;stop-opacity:1" offset="1"/></linearGradient><linearGradient xlink:href="#b" id="k" gradientUnits="userSpaceOnUse" x1="-22.981" y1="-17.65" x2="-20.51" y2="-20.12"/><linearGradient id="d"><stop style="stop-color:#000;stop-opacity:0" offset="0"/><stop offset=".6" style="stop-color:#000;stop-opacity:0"/><stop style="stop-color:#000;stop-opacity:.19607843" offset="1"/></linearGradient><linearGradient id="e"><stop offset="0" style="stop-color:#000;stop-opacity:1"/><stop style="stop-color:#000;stop-opacity:.7876448" offset=".716"/><stop offset=".746" style="stop-color:#000;stop-opacity:.6745098"/><stop style="stop-color:#000;stop-opacity:.61960784" offset=".763"/><stop style="stop-color:#000;stop-opacity:.54509804" offset=".786"/><stop offset=".807" style="stop-color:#000;stop-opacity:.48627451"/><stop style="stop-color:#000;stop-opacity:.29803922" offset=".862"/><stop style="stop-color:#000;stop-opacity:.18823529" offset=".89"/><stop style="stop-color:#000;stop-opacity:.08235294" offset=".924"/><stop style="stop-color:#000;stop-opacity:.04313725" offset=".943"/><stop offset=".956" style="stop-color:#000;stop-opacity:.03137255"/><stop offset=".961" style="stop-color:#000;stop-opacity:.02745098"/><stop offset=".992" style="stop-color:#000;stop-opacity:0"/><stop offset="1" style="stop-color:#000;stop-opacity:0"/></linearGradient><linearGradient id="f"><stop style="stop-color:#2e2e2e;stop-opacity:1" offset="0"/><stop offset=".135" style="stop-color:#2e2e2e;stop-opacity:.85882353"/><stop style="stop-color:#2e2e2e;stop-opacity:.81176471" offset=".179"/><stop offset=".232" style="stop-color:#2e2e2e;stop-opacity:.76078431"/><stop style="stop-color:#2e2e2e;stop-opacity:.70588235" offset=".287"/><stop style="stop-color:#2e2e2e;stop-opacity:.66666667" offset=".327"/><stop offset=".383" style="stop-color:#e5e5e5;stop-opacity:.61176473"/><stop style="stop-color:#2e2e2e;stop-opacity:.56862745" offset=".421"/><stop style="stop-color:#2e2e2e;stop-opacity:.54901961" offset=".443"/><stop style="stop-color:#2e2e2e;stop-opacity:.49019608" offset=".504"/><stop offset=".541" style="stop-color:#2e2e2e;stop-opacity:.45098039"/><stop offset=".573" style="stop-color:#dbdbdb;stop-opacity:.41960785"/><stop style="stop-color:#2e2e2e;stop-opacity:.38431373" offset=".609"/><stop offset=".639" style="stop-color:#2e2e2e;stop-opacity:.35686275"/><stop style="stop-color:#2e2e2e;stop-opacity:.30980392" offset=".686"/><stop style="stop-color:#2e2e2e;stop-opacity:.25098039" offset=".746"/><stop offset=".774" style="stop-color:#e5e5e5;stop-opacity:.21960784"/><stop offset=".806" style="stop-color:#2e2e2e;stop-opacity:.18823529"/><stop offset=".828" style="stop-color:#2e2e2e;stop-opacity:.16862745"/><stop style="stop-color:#ccc;stop-opacity:.12156863" offset=".873"/><stop offset=".905" style="stop-color:#2e2e2e;stop-opacity:.09411765"/><stop style="stop-color:#2e2e2e;stop-opacity:.05490196" offset=".941"/><stop style="stop-color:#2e2e2e;stop-opacity:0" offset="1"/></linearGradient><linearGradient xlink:href="#b" id="w" gradientUnits="userSpaceOnUse" x1="-22.981" y1="-17.65" x2="-20.51" y2="-20.12"/><linearGradient xlink:href="#b" id="o" gradientUnits="userSpaceOnUse" x1="-22.981" y1="-17.65" x2="-20.51" y2="-20.12"/><linearGradient xlink:href="#b" id="m" gradientUnits="userSpaceOnUse" x1="-20.445" y1="-21.247" x2="-24.487" y2="-18.081"/><radialGradient xlink:href="#c" id="h" cx="-22.537" cy="-19.381" fx="-22.537" fy="-19.381" r="3.152" gradientUnits="userSpaceOnUse" gradientTransform="translate(.438 .785) scale(1.0179)"/><radialGradient xlink:href="#c" id="j" gradientUnits="userSpaceOnUse" gradientTransform="translate(.438 .785) scale(1.0179)" cx="-22.537" cy="-19.381" fx="-22.537" fy="-19.381" r="3.152"/><radialGradient xlink:href="#c" id="l" gradientUnits="userSpaceOnUse" gradientTransform="translate(.438 .785) scale(1.0179)" cx="-22.537" cy="-19.381" fx="-22.537" fy="-19.381" r="3.152"/><radialGradient xlink:href="#c" id="n" gradientUnits="userSpaceOnUse" gradientTransform="translate(.438 .785) scale(1.0179)" cx="-22.537" cy="-19.381" fx="-22.537" fy="-19.381" r="3.152"/><radialGradient xlink:href="#d" id="p" gradientUnits="userSpaceOnUse" cx="10.856" cy="17.245" fx="10.856" fy="17.245" r="1.756" gradientTransform="translate(12.283 1.55)"/><radialGradient xlink:href="#d" id="q" cx="10.856" cy="17.245" fx="10.856" fy="17.245" r="1.756" gradientUnits="userSpaceOnUse" gradientTransform="translate(-.38 1.318)"/><radialGradient xlink:href="#e" id="r" gradientUnits="userSpaceOnUse" gradientTransform="translate(18.97 -5.156) scale(2.91306)" cx="24.249" cy="24.25" fx="24.249" fy="24.25" r="9.633"/><radialGradient xlink:href="#e" id="s" gradientUnits="userSpaceOnUse" gradientTransform="translate(-7.699 -1.075) scale(.77075)" cx="24.249" cy="24.25" fx="24.249" fy="24.25" r="9.633"/><radialGradient xlink:href="#f" id="t" cx="100.047" cy="-16.228" fx="100.047" fy="-16.228" r="29.308" gradientUnits="userSpaceOnUse" gradientTransform="scale(3.77953)"/><radialGradient xlink:href="#f" id="u" gradientUnits="userSpaceOnUse" gradientTransform="scale(3.77953)" cx="100.047" cy="-16.228" fx="100.047" fy="-16.228" r="29.308"/><radialGradient xlink:href="#c" id="v" gradientUnits="userSpaceOnUse" gradientTransform="translate(.438 .785) scale(1.0179)" cx="-22.537" cy="-19.381" fx="-22.537" fy="-19.381" r="3.152"/></defs><g transform="translate(-65.774 -37.197) scale(.97573)" style="opacity:.296765"><rect style="fill:none;fill-opacity:1;stroke:#000;stroke-width:.1;stroke-linecap:round;stroke-linejoin:round;stroke-miterlimit:4;stroke-dasharray:none;stroke-opacity:.02" width="29.811" height="29.811" x="69.84" y="40.71" rx="6.61" ry="6.61"/><rect ry="6.61" rx="6.61" y="40.71" x="69.84" height="29.811" width="29.811" style="fill:none;fill-opacity:1;stroke:#000;stroke-width:.2;stroke-linecap:round;stroke-linejoin:round;stroke-miterlimit:4;stroke-dasharray:none;stroke-opacity:.02"/><rect style="fill:none;fill-opacity:1;stroke:#000;stroke-width:.3;stroke-linecap:round;stroke-linejoin:round;stroke-miterlimit:4;stroke-dasharray:none;stroke-opacity:.02" width="29.811" height="29.811" x="69.84" y="40.71" rx="6.61" ry="6.61"/><rect ry="6.61" rx="6.61" y="40.71" x="69.84" height="29.811" width="29.811" style="fill:none;fill-opacity:1;stroke:#000;stroke-width:.4;stroke-linecap:round;stroke-linejoin:round;stroke-miterlimit:4;stroke-dasharray:none;stroke-opacity:.02"/><rect style="fill:none;fill-opacity:1;stroke:#000;stroke-width:.5;stroke-linecap:round;stroke-linejoin:round;stroke-miterlimit:4;stroke-dasharray:none;stroke-opacity:.02" width="29.811" height="29.811" x="69.84" y="40.71" rx="6.61" ry="6.61"/><rect ry="6.61" rx="6.61" y="40.71" x="69.84" height="29.811" width="29.811" style="fill:none;fill-opacity:1;stroke:#000;stroke-width:.6;stroke-linecap:round;stroke-linejoin:round;stroke-miterlimit:4;stroke-dasharray:none;stroke-opacity:.02"/><rect style="fill:none;fill-opacity:1;stroke:#000;stroke-width:.7;stroke-linecap:round;stroke-linejoin:round;stroke-miterlimit:4;stroke-dasharray:none;stroke-opacity:.02" width="29.811" height="29.811" x="69.84" y="40.71" rx="6.61" ry="6.61"/><rect ry="6.61" rx="6.61" y="40.71" x="69.84" height="29.811" width="29.811" style="fill:none;fill-opacity:1;stroke:#000;stroke-width:.8;stroke-linecap:round;stroke-linejoin:round;stroke-miterlimit:4;stroke-dasharray:none;stroke-opacity:.02"/><rect style="fill:none;fill-opacity:1;stroke:#000;stroke-width:1;stroke-linecap:round;stroke-linejoin:round;stroke-miterlimit:4;stroke-dasharray:none;stroke-opacity:.02" width="29.811" height="29.811" x="69.84" y="40.71" rx="6.61" ry="6.61"/><rect ry="6.61" rx="6.61" y="40.71" x="69.84" height="29.811" width="29.811" style="fill:none;fill-opacity:1;stroke:#000;stroke-width:1.2;stroke-linecap:round;stroke-linejoin:round;stroke-miterlimit:4;stroke-dasharray:none;stroke-opacity:.02"/><rect style="fill:none;fill-opacity:1;stroke:#000;stroke-width:1.4;stroke-linecap:round;stroke-linejoin:round;stroke-miterlimit:4;stroke-dasharray:none;stroke-opacity:.02" width="29.811" height="29.811" x="69.84" y="40.71" rx="6.61" ry="6.61"/><rect ry="6.61" rx="6.61" y="40.71" x="69.84" height="29.811" width="29.811" style="fill:none;fill-opacity:1;stroke:#000;stroke-width:1.6;stroke-linecap:round;stroke-linejoin:round;stroke-miterlimit:4;stroke-dasharray:none;stroke-opacity:.02"/><rect style="fill:none;fill-opacity:1;stroke:#000;stroke-width:1.8;stroke-linecap:round;stroke-linejoin:round;stroke-miterlimit:4;stroke-dasharray:none;stroke-opacity:.02" width="29.811" height="29.811" x="69.84" y="40.71" rx="6.61" ry="6.61"/><rect ry="6.61" rx="6.61" y="40.71" x="69.84" height="29.811" width="29.811" style="fill:none;fill-opacity:1;stroke:#000;stroke-width:2;stroke-linecap:round;stroke-linejoin:round;stroke-miterlimit:4;stroke-dasharray:none;stroke-opacity:.02"/><rect style="fill:none;fill-opacity:1;stroke:#000;stroke-width:2.2;stroke-linecap:round;stroke-linejoin:round;stroke-miterlimit:4;stroke-dasharray:none;stroke-opacity:.02" width="29.811" height="29.811" x="69.84" y="40.71" rx="6.61" ry="6.61"/><rect ry="6.61" rx="6.61" y="40.71" x="69.84" height="29.811" width="29.811" style="fill:none;fill-opacity:1;stroke:#000;stroke-width:2.6;stroke-linecap:round;stroke-linejoin:round;stroke-miterlimit:4;stroke-dasharray:none;stroke-opacity:.02"/><rect style="fill:none;fill-opacity:1;stroke:#000;stroke-width:3;stroke-linecap:round;stroke-linejoin:round;stroke-miterlimit:4;stroke-dasharray:none;stroke-opacity:.02" width="29.811" height="29.811" x="69.84" y="40.71" rx="6.61" ry="6.61"/><rect ry="6.61" rx="6.61" y="40.71" x="69.84" height="29.811" width="29.811" style="fill:none;fill-opacity:1;stroke:#000;stroke-width:3.4;stroke-linecap:round;stroke-linejoin:round;stroke-miterlimit:4;stroke-dasharray:none;stroke-opacity:.02"/><rect style="fill:none;fill-opacity:1;stroke:#000;stroke-width:3.8;stroke-linecap:round;stroke-linejoin:round;stroke-miterlimit:4;stroke-dasharray:none;stroke-opacity:.02" width="29.811" height="29.811" x="69.84" y="40.71" rx="6.61" ry="6.61"/><rect ry="6.61" rx="6.61" y="40.71" x="69.84" height="29.811" width="29.811" style="fill:none;fill-opacity:1;stroke:#000;stroke-width:4.2;stroke-linecap:round;stroke-linejoin:round;stroke-miterlimit:4;stroke-dasharray:none;stroke-opacity:.02"/><rect style="fill:none;fill-opacity:1;stroke:#000;stroke-width:4.6;stroke-linecap:round;stroke-linejoin:round;stroke-miterlimit:4;stroke-dasharray:none;stroke-opacity:.02" width="29.811" height="29.811" x="69.84" y="40.71" rx="6.61" ry="6.61"/><rect ry="6.61" rx="6.61" y="40.71" x="69.84" height="29.811" width="29.811" style="fill:none;fill-opacity:1;stroke:#000;stroke-width:5;stroke-linecap:round;stroke-linejoin:round;stroke-miterlimit:4;stroke-dasharray:none;stroke-opacity:.02"/></g><rect style="fill:url(#g);fill-opacity:1;stroke-width:2.68769;stroke-linecap:round;stroke-linejoin:round" width="29.087" height="29.087" x="2.371" y="2.524" rx="6.449" ry="6.449"/><g transform="translate(34.646 11.462) scale(.3008)"><path style="color:#000;font-style:normal;font-variant:normal;font-weight:400;font-stretch:normal;font-size:medium;line-height:normal;font-family:sans-serif;font-variant-ligatures:normal;font-variant-position:normal;font-variant-caps:normal;font-variant-numeric:normal;font-variant-alternates:normal;font-feature-settings:normal;text-indent:0;text-align:start;text-decoration:none;text-decoration-line:none;text-decoration-style:solid;text-decoration-color:#000;letter-spacing:normal;word-spacing:normal;text-transform:none;writing-mode:lr-tb;direction:ltr;text-orientation:mixed;dominant-baseline:auto;baseline-shift:baseline;text-anchor:start;white-space:normal;shape-padding:0;clip-rule:nonzero;display:inline;overflow:visible;visibility:visible;opacity:1;isolation:auto;mix-blend-mode:normal;color-interpolation:sRGB;color-interpolation-filters:linearRGB;solid-color:#000;solid-opacity:1;vector-effect:none;fill:url(#h);fill-opacity:1;fill-rule:nonzero;stroke:none;stroke-width:.407162;stroke-linecap:round;stroke-linejoin:round;stroke-miterlimit:4;stroke-dasharray:none;stroke-dashoffset:0;stroke-opacity:1;color-rendering:auto;image-rendering:auto;shape-rendering:auto;text-rendering:auto;enable-background:accumulate" d="M-22.503-22.152a3.211 3.211 0 0 0-3.209 3.209 3.211 3.211 0 0 0 3.209 3.209 3.211 3.211 0 0 0 3.209-3.21 3.211 3.211 0 0 0-3.21-3.208z"/><circle style="opacity:1;fill:url(#i);fill-opacity:1;stroke:#1b1a1a;stroke-width:.4;stroke-linecap:round;stroke-linejoin:round;stroke-miterlimit:4;stroke-dasharray:none;stroke-opacity:1" cx="-22.537" cy="-19.381" r="2.953"/></g><path d="M25.048 5.02a.197.197 0 0 0-.074.025l-.357.206a.195.195 0 0 0-.072.267l.622 1.077-1.077.622a.195.195 0 0 0-.071.267l.206.357a.195.195 0 0 0 .267.072l1.077-.622.621 1.076a.195.195 0 0 0 .268.072l.357-.206a.195.195 0 0 0 .07-.267l-.62-1.077 1.076-.622a.195.195 0 0 0 .071-.266l-.205-.358a.195.195 0 0 0-.267-.071l-1.077.621-.622-1.076a.195.195 0 0 0-.193-.097z" style="opacity:1;fill:#000;fill-opacity:.710425;stroke:none;stroke-width:.4;stroke-linecap:round;stroke-linejoin:round;stroke-miterlimit:4;stroke-dasharray:none;stroke-opacity:1" transform="translate(20.132 3.607) scale(.3008)"/><g transform="translate(12.827 11.462) scale(.3008)"><path d="M-22.503-22.152a3.211 3.211 0 0 0-3.209 3.209 3.211 3.211 0 0 0 3.209 3.209 3.211 3.211 0 0 0 3.209-3.21 3.211 3.211 0 0 0-3.21-3.208z" style="color:#000;font-style:normal;font-variant:normal;font-weight:400;font-stretch:normal;font-size:medium;line-height:normal;font-family:sans-serif;font-variant-ligatures:normal;font-variant-position:normal;font-variant-caps:normal;font-variant-numeric:normal;font-variant-alternates:normal;font-feature-settings:normal;text-indent:0;text-align:start;text-decoration:none;text-decoration-line:none;text-decoration-style:solid;text-decoration-color:#000;letter-spacing:normal;word-spacing:normal;text-transform:none;writing-mode:lr-tb;direction:ltr;text-orientation:mixed;dominant-baseline:auto;baseline-shift:baseline;text-anchor:start;white-space:normal;shape-padding:0;clip-rule:nonzero;display:inline;overflow:visible;visibility:visible;opacity:1;isolation:auto;mix-blend-mode:normal;color-interpolation:sRGB;color-interpolation-filters:linearRGB;solid-color:#000;solid-opacity:1;vector-effect:none;fill:url(#j);fill-opacity:1;fill-rule:nonzero;stroke:none;stroke-width:.407162;stroke-linecap:round;stroke-linejoin:round;stroke-miterlimit:4;stroke-dasharray:none;stroke-dashoffset:0;stroke-opacity:1;color-rendering:auto;image-rendering:auto;shape-rendering:auto;text-rendering:auto;enable-background:accumulate"/><circle r="2.953" cy="-19.381" cx="-22.537" style="opacity:1;fill:url(#k);fill-opacity:1;stroke:#1b1a1a;stroke-width:.4;stroke-linecap:round;stroke-linejoin:round;stroke-miterlimit:4;stroke-dasharray:none;stroke-opacity:1"/></g><path style="opacity:1;fill:#000;fill-opacity:.710425;stroke:none;stroke-width:.4;stroke-linecap:round;stroke-linejoin:round;stroke-miterlimit:4;stroke-dasharray:none;stroke-opacity:1" d="M25.048 5.02a.197.197 0 0 0-.074.025l-.357.206a.195.195 0 0 0-.072.267l.622 1.077-1.077.622a.195.195 0 0 0-.071.267l.206.357a.195.195 0 0 0 .267.072l1.077-.622.621 1.076a.195.195 0 0 0 .268.072l.357-.206a.195.195 0 0 0 .07-.267l-.62-1.077 1.076-.622a.195.195 0 0 0 .071-.266l-.205-.358a.195.195 0 0 0-.267-.071l-1.077.621-.622-1.076a.195.195 0 0 0-.193-.097z" transform="translate(-1.686 3.607) scale(.3008)"/><g transform="translate(34.646 33.564) scale(.3008)"><path d="M-22.503-22.152a3.211 3.211 0 0 0-3.209 3.209 3.211 3.211 0 0 0 3.209 3.209 3.211 3.211 0 0 0 3.209-3.21 3.211 3.211 0 0 0-3.21-3.208z" style="color:#000;font-style:normal;font-variant:normal;font-weight:400;font-stretch:normal;font-size:medium;line-height:normal;font-family:sans-serif;font-variant-ligatures:normal;font-variant-position:normal;font-variant-caps:normal;font-variant-numeric:normal;font-variant-alternates:normal;font-feature-settings:normal;text-indent:0;text-align:start;text-decoration:none;text-decoration-line:none;text-decoration-style:solid;text-decoration-color:#000;letter-spacing:normal;word-spacing:normal;text-transform:none;writing-mode:lr-tb;direction:ltr;text-orientation:mixed;dominant-baseline:auto;baseline-shift:baseline;text-anchor:start;white-space:normal;shape-padding:0;clip-rule:nonzero;display:inline;overflow:visible;visibility:visible;opacity:1;isolation:auto;mix-blend-mode:normal;color-interpolation:sRGB;color-interpolation-filters:linearRGB;solid-color:#000;solid-opacity:1;vector-effect:none;fill:url(#l);fill-opacity:1;fill-rule:nonzero;stroke:none;stroke-width:.407162;stroke-linecap:round;stroke-linejoin:round;stroke-miterlimit:4;stroke-dasharray:none;stroke-dashoffset:0;stroke-opacity:1;color-rendering:auto;image-rendering:auto;shape-rendering:auto;text-rendering:auto;enable-background:accumulate"/><circle r="2.953" cy="-19.381" cx="-22.537" style="opacity:1;fill:url(#m);fill-opacity:1;stroke:#1b1a1a;stroke-width:.4;stroke-linecap:round;stroke-linejoin:round;stroke-miterlimit:4;stroke-dasharray:none;stroke-opacity:1"/></g><path style="opacity:1;fill:#000;fill-opacity:.710425;stroke:none;stroke-width:.4;stroke-linecap:round;stroke-linejoin:round;stroke-miterlimit:4;stroke-dasharray:none;stroke-opacity:1" d="M25.048 5.02a.197.197 0 0 0-.074.025l-.357.206a.195.195 0 0 0-.072.267l.622 1.077-1.077.622a.195.195 0 0 0-.071.267l.206.357a.195.195 0 0 0 .267.072l1.077-.622.621 1.076a.195.195 0 0 0 .268.072l.357-.206a.195.195 0 0 0 .07-.267l-.62-1.077 1.076-.622a.195.195 0 0 0 .071-.266l-.205-.358a.195.195 0 0 0-.267-.071l-1.077.621-.622-1.076a.195.195 0 0 0-.193-.097z" transform="translate(20.132 25.71) scale(.3008)"/><g transform="translate(12.827 33.564) scale(.3008)"><path style="color:#000;font-style:normal;font-variant:normal;font-weight:400;font-stretch:normal;font-size:medium;line-height:normal;font-family:sans-serif;font-variant-ligatures:normal;font-variant-position:normal;font-variant-caps:normal;font-variant-numeric:normal;font-variant-alternates:normal;font-feature-settings:normal;text-indent:0;text-align:start;text-decoration:none;text-decoration-line:none;text-decoration-style:solid;text-decoration-color:#000;letter-spacing:normal;word-spacing:normal;text-transform:none;writing-mode:lr-tb;direction:ltr;text-orientation:mixed;dominant-baseline:auto;baseline-shift:baseline;text-anchor:start;white-space:normal;shape-padding:0;clip-rule:nonzero;display:inline;overflow:visible;visibility:visible;opacity:1;isolation:auto;mix-blend-mode:normal;color-interpolation:sRGB;color-interpolation-filters:linearRGB;solid-color:#000;solid-opacity:1;vector-effect:none;fill:url(#n);fill-opacity:1;fill-rule:nonzero;stroke:none;stroke-width:.407162;stroke-linecap:round;stroke-linejoin:round;stroke-miterlimit:4;stroke-dasharray:none;stroke-dashoffset:0;stroke-opacity:1;color-rendering:auto;image-rendering:auto;shape-rendering:auto;text-rendering:auto;enable-background:accumulate" d="M-22.503-22.152a3.211 3.211 0 0 0-3.209 3.209 3.211 3.211 0 0 0 3.209 3.209 3.211 3.211 0 0 0 3.209-3.21 3.211 3.211 0 0 0-3.21-3.208z"/><circle style="opacity:1;fill:url(#o);fill-opacity:1;stroke:#1b1a1a;stroke-width:.4;stroke-linecap:round;stroke-linejoin:round;stroke-miterlimit:4;stroke-dasharray:none;stroke-opacity:1" cx="-22.537" cy="-19.381" r="2.953"/></g><path d="M25.048 5.02a.197.197 0 0 0-.074.025l-.357.206a.195.195 0 0 0-.072.267l.622 1.077-1.077.622a.195.195 0 0 0-.071.267l.206.357a.195.195 0 0 0 .267.072l1.077-.622.621 1.076a.195.195 0 0 0 .268.072l.357-.206a.195.195 0 0 0 .07-.267l-.62-1.077 1.076-.622a.195.195 0 0 0 .071-.266l-.205-.358a.195.195 0 0 0-.267-.071l-1.077.621-.622-1.076a.195.195 0 0 0-.193-.097z" style="opacity:1;fill:#000;fill-opacity:.710425;stroke:none;stroke-width:.4;stroke-linecap:round;stroke-linejoin:round;stroke-miterlimit:4;stroke-dasharray:none;stroke-opacity:1" transform="translate(-1.686 25.71) scale(.3008)"/><rect style="opacity:1;fill:#f3f3f3;fill-opacity:.961956;stroke:none;stroke-width:1;stroke-linecap:round;stroke-linejoin:round;stroke-miterlimit:4;stroke-dasharray:none;stroke-opacity:1" width="25.118" height="11.313" x="4.587" y="12.018" rx=".239" ry=".239"/><circle r="1.756" cy="18.796" cx="23.14" style="opacity:1;fill:url(#p);fill-opacity:1;stroke:none;stroke-width:1;stroke-linecap:round;stroke-linejoin:round;stroke-miterlimit:4;stroke-dasharray:none;stroke-opacity:1"/><circle style="opacity:1;fill:url(#q);fill-opacity:1;stroke:none;stroke-width:1;stroke-linecap:round;stroke-linejoin:round;stroke-miterlimit:4;stroke-dasharray:none;stroke-opacity:1" cx="10.476" cy="18.564" r="1.756"/><path transform="translate(-.38 1.567) scale(.26458)" d="M89.61 37.422a28.062 28.062 0 0 0-28.063 28.062 28.062 28.062 0 0 0 28.062 28.063 28.062 28.062 0 0 0 28.06-28.063 28.062 28.062 0 0 0-28.06-28.062zm-1.243 17.476a10.05 10.05 0 0 1 10.051 10.05 10.05 10.05 0 0 1-10.05 10.05 10.05 10.05 0 0 1-10.052-10.05 10.05 10.05 0 0 1 10.051-10.05Z" style="opacity:1;fill:url(#r);fill-opacity:1;stroke-width:6.62888"/><path style="opacity:1;fill:url(#s);fill-opacity:1;stroke-width:1.75389" d="M10.991 10.19a7.425 7.425 0 0 0-7.425 7.425 7.425 7.425 0 0 0 7.425 7.425 7.425 7.425 0 0 0 7.425-7.425 7.425 7.425 0 0 0-7.425-7.425zm-.328 4.624a2.66 2.66 0 0 1 2.659 2.659 2.66 2.66 0 0 1-2.66 2.66 2.66 2.66 0 0 1-2.659-2.66 2.66 2.66 0 0 1 2.66-2.659z" transform="translate(-.38 1.567)"/><path style="opacity:1;fill:#2e2e2e;fill-opacity:1;stroke:none;stroke-width:3.77953;stroke-linecap:round;stroke-linejoin:round;stroke-miterlimit:4;stroke-dasharray:none;stroke-opacity:1" d="M378.129-170.213A108.88 108.88 0 0 0 269.25-61.332 108.88 108.88 0 0 0 378.129 47.547a108.88 108.88 0 0 0 108.88-108.879 108.88 108.88 0 0 0-108.88-108.88Zm-2.852 65.348A42.667 42.667 0 0 1 417.943-62.2a42.667 42.667 0 0 1-42.666 42.668A42.667 42.667 0 0 1 332.611-62.2a42.667 42.667 0 0 1 42.666-42.666z" transform="translate(2.25 22.195) scale(.05544)"/><path style="opacity:.301;fill:url(#t);fill-opacity:1;stroke:#1b1a1a;stroke-width:3.77953;stroke-linecap:round;stroke-linejoin:round;stroke-miterlimit:4;stroke-dasharray:none;stroke-opacity:1" d="M378.129-170.213A108.88 108.88 0 0 0 269.25-61.332 108.88 108.88 0 0 0 378.129 47.547a108.88 108.88 0 0 0 108.88-108.879 108.88 108.88 0 0 0-108.88-108.88Zm-.955 68.762a41.15 41.15 0 0 1 41.148 41.148 41.15 41.15 0 0 1-41.148 41.15 41.15 41.15 0 0 1-41.15-41.15 41.15 41.15 0 0 1 41.15-41.148z" transform="translate(2.25 22.195) scale(.05544)"/><path d="M15.753-34.449A13.517 13.517 0 0 0 2.236-20.932 13.517 13.517 0 0 0 15.753-7.415 13.517 13.517 0 0 0 29.27-20.932a13.517 13.517 0 0 0-13.517-13.517Zm-.538 5.927v1.534a6.049 6.049 0 0 1 .585-.035 6.049 6.049 0 0 1 1.047.098v-1.528a7.727 7.727 0 0 1 3.949 1.79l-1.08 1.08a6.049 6.049 0 0 1 1.088 1.22l1.107-1.106a7.727 7.727 0 0 1 1.525 3.91h-1.621a6.049 6.049 0 0 1 .034.585 6.049 6.049 0 0 1-.097 1.047h1.671a7.727 7.727 0 0 1-1.575 3.847l-1.238-1.238a6.049 6.049 0 0 1-1.152 1.156l1.26 1.26a7.727 7.727 0 0 1-3.871 1.73v-1.845a6.049 6.049 0 0 1-1.047.092 6.049 6.049 0 0 1-.585-.029v1.84a7.727 7.727 0 0 1-4.116-1.543l1.31-1.31a6.049 6.049 0 0 1-1.213-1.095l-1.288 1.287a7.727 7.727 0 0 1-1.821-4.152h1.757a6.049 6.049 0 0 1-.092-1.047 6.049 6.049 0 0 1 .029-.585H8.063a7.727 7.727 0 0 1 1.774-4.224l1.153 1.153a6.049 6.049 0 0 1 1.153-1.155l-1.127-1.128a7.727 7.727 0 0 1 4.199-1.609z" style="opacity:1;fill:none;fill-opacity:.891304;stroke:#1b1a1a;stroke-width:.1;stroke-linecap:round;stroke-linejoin:round;stroke-miterlimit:4;stroke-dasharray:none;stroke-opacity:.0117647" transform="translate(19.912 23.18) scale(.20953)"/><path style="opacity:1;fill:none;fill-opacity:.891304;stroke:#1b1a1a;stroke-width:.2;stroke-linecap:round;stroke-linejoin:round;stroke-miterlimit:4;stroke-dasharray:none;stroke-opacity:.0117647" d="M15.753-34.449A13.517 13.517 0 0 0 2.236-20.932 13.517 13.517 0 0 0 15.753-7.415 13.517 13.517 0 0 0 29.27-20.932a13.517 13.517 0 0 0-13.517-13.517Zm-.538 5.927v1.534a6.049 6.049 0 0 1 .585-.035 6.049 6.049 0 0 1 1.047.098v-1.528a7.727 7.727 0 0 1 3.949 1.79l-1.08 1.08a6.049 6.049 0 0 1 1.088 1.22l1.107-1.106a7.727 7.727 0 0 1 1.525 3.91h-1.621a6.049 6.049 0 0 1 .034.585 6.049 6.049 0 0 1-.097 1.047h1.671a7.727 7.727 0 0 1-1.575 3.847l-1.238-1.238a6.049 6.049 0 0 1-1.152 1.156l1.26 1.26a7.727 7.727 0 0 1-3.871 1.73v-1.845a6.049 6.049 0 0 1-1.047.092 6.049 6.049 0 0 1-.585-.029v1.84a7.727 7.727 0 0 1-4.116-1.543l1.31-1.31a6.049 6.049 0 0 1-1.213-1.095l-1.288 1.287a7.727 7.727 0 0 1-1.821-4.152h1.757a6.049 6.049 0 0 1-.092-1.047 6.049 6.049 0 0 1 .029-.585H8.063a7.727 7.727 0 0 1 1.774-4.224l1.153 1.153a6.049 6.049 0 0 1 1.153-1.155l-1.127-1.128a7.727 7.727 0 0 1 4.199-1.609z" transform="translate(19.912 23.18) scale(.20953)"/><path d="M15.753-34.449A13.517 13.517 0 0 0 2.236-20.932 13.517 13.517 0 0 0 15.753-7.415 13.517 13.517 0 0 0 29.27-20.932a13.517 13.517 0 0 0-13.517-13.517Zm-.538 5.927v1.534a6.049 6.049 0 0 1 .585-.035 6.049 6.049 0 0 1 1.047.098v-1.528a7.727 7.727 0 0 1 3.949 1.79l-1.08 1.08a6.049 6.049 0 0 1 1.088 1.22l1.107-1.106a7.727 7.727 0 0 1 1.525 3.91h-1.621a6.049 6.049 0 0 1 .034.585 6.049 6.049 0 0 1-.097 1.047h1.671a7.727 7.727 0 0 1-1.575 3.847l-1.238-1.238a6.049 6.049 0 0 1-1.152 1.156l1.26 1.26a7.727 7.727 0 0 1-3.871 1.73v-1.845a6.049 6.049 0 0 1-1.047.092 6.049 6.049 0 0 1-.585-.029v1.84a7.727 7.727 0 0 1-4.116-1.543l1.31-1.31a6.049 6.049 0 0 1-1.213-1.095l-1.288 1.287a7.727 7.727 0 0 1-1.821-4.152h1.757a6.049 6.049 0 0 1-.092-1.047 6.049 6.049 0 0 1 .029-.585H8.063a7.727 7.727 0 0 1 1.774-4.224l1.153 1.153a6.049 6.049 0 0 1 1.153-1.155l-1.127-1.128a7.727 7.727 0 0 1 4.199-1.609z" style="opacity:1;fill:none;fill-opacity:.891304;stroke:#1b1a1a;stroke-width:.3;stroke-linecap:round;stroke-linejoin:round;stroke-miterlimit:4;stroke-dasharray:none;stroke-opacity:.0117647" transform="translate(19.912 23.18) scale(.20953)"/><path style="opacity:1;fill:none;fill-opacity:.891304;stroke:#1b1a1a;stroke-width:.4;stroke-linecap:round;stroke-linejoin:round;stroke-miterlimit:4;stroke-dasharray:none;stroke-opacity:.0117647" d="M15.753-34.449A13.517 13.517 0 0 0 2.236-20.932 13.517 13.517 0 0 0 15.753-7.415 13.517 13.517 0 0 0 29.27-20.932a13.517 13.517 0 0 0-13.517-13.517Zm-.538 5.927v1.534a6.049 6.049 0 0 1 .585-.035 6.049 6.049 0 0 1 1.047.098v-1.528a7.727 7.727 0 0 1 3.949 1.79l-1.08 1.08a6.049 6.049 0 0 1 1.088 1.22l1.107-1.106a7.727 7.727 0 0 1 1.525 3.91h-1.621a6.049 6.049 0 0 1 .034.585 6.049 6.049 0 0 1-.097 1.047h1.671a7.727 7.727 0 0 1-1.575 3.847l-1.238-1.238a6.049 6.049 0 0 1-1.152 1.156l1.26 1.26a7.727 7.727 0 0 1-3.871 1.73v-1.845a6.049 6.049 0 0 1-1.047.092 6.049 6.049 0 0 1-.585-.029v1.84a7.727 7.727 0 0 1-4.116-1.543l1.31-1.31a6.049 6.049 0 0 1-1.213-1.095l-1.288 1.287a7.727 7.727 0 0 1-1.821-4.152h1.757a6.049 6.049 0 0 1-.092-1.047 6.049 6.049 0 0 1 .029-.585H8.063a7.727 7.727 0 0 1 1.774-4.224l1.153 1.153a6.049 6.049 0 0 1 1.153-1.155l-1.127-1.128a7.727 7.727 0 0 1 4.199-1.609z" transform="translate(19.912 23.18) scale(.20953)"/><path d="M15.753-34.449A13.517 13.517 0 0 0 2.236-20.932 13.517 13.517 0 0 0 15.753-7.415 13.517 13.517 0 0 0 29.27-20.932a13.517 13.517 0 0 0-13.517-13.517Zm-.538 5.927v1.534a6.049 6.049 0 0 1 .585-.035 6.049 6.049 0 0 1 1.047.098v-1.528a7.727 7.727 0 0 1 3.949 1.79l-1.08 1.08a6.049 6.049 0 0 1 1.088 1.22l1.107-1.106a7.727 7.727 0 0 1 1.525 3.91h-1.621a6.049 6.049 0 0 1 .034.585 6.049 6.049 0 0 1-.097 1.047h1.671a7.727 7.727 0 0 1-1.575 3.847l-1.238-1.238a6.049 6.049 0 0 1-1.152 1.156l1.26 1.26a7.727 7.727 0 0 1-3.871 1.73v-1.845a6.049 6.049 0 0 1-1.047.092 6.049 6.049 0 0 1-.585-.029v1.84a7.727 7.727 0 0 1-4.116-1.543l1.31-1.31a6.049 6.049 0 0 1-1.213-1.095l-1.288 1.287a7.727 7.727 0 0 1-1.821-4.152h1.757a6.049 6.049 0 0 1-.092-1.047 6.049 6.049 0 0 1 .029-.585H8.063a7.727 7.727 0 0 1 1.774-4.224l1.153 1.153a6.049 6.049 0 0 1 1.153-1.155l-1.127-1.128a7.727 7.727 0 0 1 4.199-1.609z" style="opacity:1;fill:none;fill-opacity:.891304;stroke:#1b1a1a;stroke-width:.5;stroke-linecap:round;stroke-linejoin:round;stroke-miterlimit:4;stroke-dasharray:none;stroke-opacity:.0117647" transform="translate(19.912 23.18) scale(.20953)"/><path style="opacity:1;fill:none;fill-opacity:.891304;stroke:#1b1a1a;stroke-width:.6;stroke-linecap:round;stroke-linejoin:round;stroke-miterlimit:4;stroke-dasharray:none;stroke-opacity:.0117647" d="M15.753-34.449A13.517 13.517 0 0 0 2.236-20.932 13.517 13.517 0 0 0 15.753-7.415 13.517 13.517 0 0 0 29.27-20.932a13.517 13.517 0 0 0-13.517-13.517Zm-.538 5.927v1.534a6.049 6.049 0 0 1 .585-.035 6.049 6.049 0 0 1 1.047.098v-1.528a7.727 7.727 0 0 1 3.949 1.79l-1.08 1.08a6.049 6.049 0 0 1 1.088 1.22l1.107-1.106a7.727 7.727 0 0 1 1.525 3.91h-1.621a6.049 6.049 0 0 1 .034.585 6.049 6.049 0 0 1-.097 1.047h1.671a7.727 7.727 0 0 1-1.575 3.847l-1.238-1.238a6.049 6.049 0 0 1-1.152 1.156l1.26 1.26a7.727 7.727 0 0 1-3.871 1.73v-1.845a6.049 6.049 0 0 1-1.047.092 6.049 6.049 0 0 1-.585-.029v1.84a7.727 7.727 0 0 1-4.116-1.543l1.31-1.31a6.049 6.049 0 0 1-1.213-1.095l-1.288 1.287a7.727 7.727 0 0 1-1.821-4.152h1.757a6.049 6.049 0 0 1-.092-1.047 6.049 6.049 0 0 1 .029-.585H8.063a7.727 7.727 0 0 1 1.774-4.224l1.153 1.153a6.049 6.049 0 0 1 1.153-1.155l-1.127-1.128a7.727 7.727 0 0 1 4.199-1.609z" transform="translate(19.912 23.18) scale(.20953)"/><path d="M15.753-34.449A13.517 13.517 0 0 0 2.236-20.932 13.517 13.517 0 0 0 15.753-7.415 13.517 13.517 0 0 0 29.27-20.932a13.517 13.517 0 0 0-13.517-13.517Zm-.538 5.927v1.534a6.049 6.049 0 0 1 .585-.035 6.049 6.049 0 0 1 1.047.098v-1.528a7.727 7.727 0 0 1 3.949 1.79l-1.08 1.08a6.049 6.049 0 0 1 1.088 1.22l1.107-1.106a7.727 7.727 0 0 1 1.525 3.91h-1.621a6.049 6.049 0 0 1 .034.585 6.049 6.049 0 0 1-.097 1.047h1.671a7.727 7.727 0 0 1-1.575 3.847l-1.238-1.238a6.049 6.049 0 0 1-1.152 1.156l1.26 1.26a7.727 7.727 0 0 1-3.871 1.73v-1.845a6.049 6.049 0 0 1-1.047.092 6.049 6.049 0 0 1-.585-.029v1.84a7.727 7.727 0 0 1-4.116-1.543l1.31-1.31a6.049 6.049 0 0 1-1.213-1.095l-1.288 1.287a7.727 7.727 0 0 1-1.821-4.152h1.757a6.049 6.049 0 0 1-.092-1.047 6.049 6.049 0 0 1 .029-.585H8.063a7.727 7.727 0 0 1 1.774-4.224l1.153 1.153a6.049 6.049 0 0 1 1.153-1.155l-1.127-1.128a7.727 7.727 0 0 1 4.199-1.609z" style="opacity:1;fill:none;fill-opacity:.891304;stroke:#1b1a1a;stroke-width:.7;stroke-linecap:round;stroke-linejoin:round;stroke-miterlimit:4;stroke-dasharray:none;stroke-opacity:.0117647" transform="translate(19.912 23.18) scale(.20953)"/><path style="opacity:1;fill:none;fill-opacity:.891304;stroke:#1b1a1a;stroke-width:.8;stroke-linecap:round;stroke-linejoin:round;stroke-miterlimit:4;stroke-dasharray:none;stroke-opacity:.0117647" d="M15.753-34.449A13.517 13.517 0 0 0 2.236-20.932 13.517 13.517 0 0 0 15.753-7.415 13.517 13.517 0 0 0 29.27-20.932a13.517 13.517 0 0 0-13.517-13.517Zm-.538 5.927v1.534a6.049 6.049 0 0 1 .585-.035 6.049 6.049 0 0 1 1.047.098v-1.528a7.727 7.727 0 0 1 3.949 1.79l-1.08 1.08a6.049 6.049 0 0 1 1.088 1.22l1.107-1.106a7.727 7.727 0 0 1 1.525 3.91h-1.621a6.049 6.049 0 0 1 .034.585 6.049 6.049 0 0 1-.097 1.047h1.671a7.727 7.727 0 0 1-1.575 3.847l-1.238-1.238a6.049 6.049 0 0 1-1.152 1.156l1.26 1.26a7.727 7.727 0 0 1-3.871 1.73v-1.845a6.049 6.049 0 0 1-1.047.092 6.049 6.049 0 0 1-.585-.029v1.84a7.727 7.727 0 0 1-4.116-1.543l1.31-1.31a6.049 6.049 0 0 1-1.213-1.095l-1.288 1.287a7.727 7.727 0 0 1-1.821-4.152h1.757a6.049 6.049 0 0 1-.092-1.047 6.049 6.049 0 0 1 .029-.585H8.063a7.727 7.727 0 0 1 1.774-4.224l1.153 1.153a6.049 6.049 0 0 1 1.153-1.155l-1.127-1.128a7.727 7.727 0 0 1 4.199-1.609z" transform="translate(19.912 23.18) scale(.20953)"/><path d="M15.753-34.449A13.517 13.517 0 0 0 2.236-20.932 13.517 13.517 0 0 0 15.753-7.415 13.517 13.517 0 0 0 29.27-20.932a13.517 13.517 0 0 0-13.517-13.517Zm-.538 5.927v1.534a6.049 6.049 0 0 1 .585-.035 6.049 6.049 0 0 1 1.047.098v-1.528a7.727 7.727 0 0 1 3.949 1.79l-1.08 1.08a6.049 6.049 0 0 1 1.088 1.22l1.107-1.106a7.727 7.727 0 0 1 1.525 3.91h-1.621a6.049 6.049 0 0 1 .034.585 6.049 6.049 0 0 1-.097 1.047h1.671a7.727 7.727 0 0 1-1.575 3.847l-1.238-1.238a6.049 6.049 0 0 1-1.152 1.156l1.26 1.26a7.727 7.727 0 0 1-3.871 1.73v-1.845a6.049 6.049 0 0 1-1.047.092 6.049 6.049 0 0 1-.585-.029v1.84a7.727 7.727 0 0 1-4.116-1.543l1.31-1.31a6.049 6.049 0 0 1-1.213-1.095l-1.288 1.287a7.727 7.727 0 0 1-1.821-4.152h1.757a6.049 6.049 0 0 1-.092-1.047 6.049 6.049 0 0 1 .029-.585H8.063a7.727 7.727 0 0 1 1.774-4.224l1.153 1.153a6.049 6.049 0 0 1 1.153-1.155l-1.127-1.128a7.727 7.727 0 0 1 4.199-1.609z" style="opacity:1;fill:none;fill-opacity:.891304;stroke:#1b1a1a;stroke-width:.9;stroke-linecap:round;stroke-linejoin:round;stroke-miterlimit:4;stroke-dasharray:none;stroke-opacity:.0117647" transform="translate(19.912 23.18) scale(.20953)"/><path style="opacity:1;fill:none;fill-opacity:.891304;stroke:#1b1a1a;stroke-width:1;stroke-linecap:round;stroke-linejoin:round;stroke-miterlimit:4;stroke-dasharray:none;stroke-opacity:.0117647" d="M15.753-34.449A13.517 13.517 0 0 0 2.236-20.932 13.517 13.517 0 0 0 15.753-7.415 13.517 13.517 0 0 0 29.27-20.932a13.517 13.517 0 0 0-13.517-13.517Zm-.538 5.927v1.534a6.049 6.049 0 0 1 .585-.035 6.049 6.049 0 0 1 1.047.098v-1.528a7.727 7.727 0 0 1 3.949 1.79l-1.08 1.08a6.049 6.049 0 0 1 1.088 1.22l1.107-1.106a7.727 7.727 0 0 1 1.525 3.91h-1.621a6.049 6.049 0 0 1 .034.585 6.049 6.049 0 0 1-.097 1.047h1.671a7.727 7.727 0 0 1-1.575 3.847l-1.238-1.238a6.049 6.049 0 0 1-1.152 1.156l1.26 1.26a7.727 7.727 0 0 1-3.871 1.73v-1.845a6.049 6.049 0 0 1-1.047.092 6.049 6.049 0 0 1-.585-.029v1.84a7.727 7.727 0 0 1-4.116-1.543l1.31-1.31a6.049 6.049 0 0 1-1.213-1.095l-1.288 1.287a7.727 7.727 0 0 1-1.821-4.152h1.757a6.049 6.049 0 0 1-.092-1.047 6.049 6.049 0 0 1 .029-.585H8.063a7.727 7.727 0 0 1 1.774-4.224l1.153 1.153a6.049 6.049 0 0 1 1.153-1.155l-1.127-1.128a7.727 7.727 0 0 1 4.199-1.609z" transform="translate(19.912 23.18) scale(.20953)"/><path d="M15.753-34.449A13.517 13.517 0 0 0 2.236-20.932 13.517 13.517 0 0 0 15.753-7.415 13.517 13.517 0 0 0 29.27-20.932a13.517 13.517 0 0 0-13.517-13.517Zm-.538 5.927v1.534a6.049 6.049 0 0 1 .585-.035 6.049 6.049 0 0 1 1.047.098v-1.528a7.727 7.727 0 0 1 3.949 1.79l-1.08 1.08a6.049 6.049 0 0 1 1.088 1.22l1.107-1.106a7.727 7.727 0 0 1 1.525 3.91h-1.621a6.049 6.049 0 0 1 .034.585 6.049 6.049 0 0 1-.097 1.047h1.671a7.727 7.727 0 0 1-1.575 3.847l-1.238-1.238a6.049 6.049 0 0 1-1.152 1.156l1.26 1.26a7.727 7.727 0 0 1-3.871 1.73v-1.845a6.049 6.049 0 0 1-1.047.092 6.049 6.049 0 0 1-.585-.029v1.84a7.727 7.727 0 0 1-4.116-1.543l1.31-1.31a6.049 6.049 0 0 1-1.213-1.095l-1.288 1.287a7.727 7.727 0 0 1-1.821-4.152h1.757a6.049 6.049 0 0 1-.092-1.047 6.049 6.049 0 0 1 .029-.585H8.063a7.727 7.727 0 0 1 1.774-4.224l1.153 1.153a6.049 6.049 0 0 1 1.153-1.155l-1.127-1.128a7.727 7.727 0 0 1 4.199-1.609z" style="opacity:1;fill:none;fill-opacity:.891304;stroke:#1b1a1a;stroke-width:1.2;stroke-linecap:round;stroke-linejoin:round;stroke-miterlimit:4;stroke-dasharray:none;stroke-opacity:.0117647" transform="translate(19.912 23.18) scale(.20953)"/><path style="opacity:1;fill:none;fill-opacity:.891304;stroke:#1b1a1a;stroke-width:1.4;stroke-linecap:round;stroke-linejoin:round;stroke-miterlimit:4;stroke-dasharray:none;stroke-opacity:.0117647" d="M15.753-34.449A13.517 13.517 0 0 0 2.236-20.932 13.517 13.517 0 0 0 15.753-7.415 13.517 13.517 0 0 0 29.27-20.932a13.517 13.517 0 0 0-13.517-13.517Zm-.538 5.927v1.534a6.049 6.049 0 0 1 .585-.035 6.049 6.049 0 0 1 1.047.098v-1.528a7.727 7.727 0 0 1 3.949 1.79l-1.08 1.08a6.049 6.049 0 0 1 1.088 1.22l1.107-1.106a7.727 7.727 0 0 1 1.525 3.91h-1.621a6.049 6.049 0 0 1 .034.585 6.049 6.049 0 0 1-.097 1.047h1.671a7.727 7.727 0 0 1-1.575 3.847l-1.238-1.238a6.049 6.049 0 0 1-1.152 1.156l1.26 1.26a7.727 7.727 0 0 1-3.871 1.73v-1.845a6.049 6.049 0 0 1-1.047.092 6.049 6.049 0 0 1-.585-.029v1.84a7.727 7.727 0 0 1-4.116-1.543l1.31-1.31a6.049 6.049 0 0 1-1.213-1.095l-1.288 1.287a7.727 7.727 0 0 1-1.821-4.152h1.757a6.049 6.049 0 0 1-.092-1.047 6.049 6.049 0 0 1 .029-.585H8.063a7.727 7.727 0 0 1 1.774-4.224l1.153 1.153a6.049 6.049 0 0 1 1.153-1.155l-1.127-1.128a7.727 7.727 0 0 1 4.199-1.609z" transform="translate(19.912 23.18) scale(.20953)"/><path d="M15.753-34.449A13.517 13.517 0 0 0 2.236-20.932 13.517 13.517 0 0 0 15.753-7.415 13.517 13.517 0 0 0 29.27-20.932a13.517 13.517 0 0 0-13.517-13.517Zm-.538 5.927v1.534a6.049 6.049 0 0 1 .585-.035 6.049 6.049 0 0 1 1.047.098v-1.528a7.727 7.727 0 0 1 3.949 1.79l-1.08 1.08a6.049 6.049 0 0 1 1.088 1.22l1.107-1.106a7.727 7.727 0 0 1 1.525 3.91h-1.621a6.049 6.049 0 0 1 .034.585 6.049 6.049 0 0 1-.097 1.047h1.671a7.727 7.727 0 0 1-1.575 3.847l-1.238-1.238a6.049 6.049 0 0 1-1.152 1.156l1.26 1.26a7.727 7.727 0 0 1-3.871 1.73v-1.845a6.049 6.049 0 0 1-1.047.092 6.049 6.049 0 0 1-.585-.029v1.84a7.727 7.727 0 0 1-4.116-1.543l1.31-1.31a6.049 6.049 0 0 1-1.213-1.095l-1.288 1.287a7.727 7.727 0 0 1-1.821-4.152h1.757a6.049 6.049 0 0 1-.092-1.047 6.049 6.049 0 0 1 .029-.585H8.063a7.727 7.727 0 0 1 1.774-4.224l1.153 1.153a6.049 6.049 0 0 1 1.153-1.155l-1.127-1.128a7.727 7.727 0 0 1 4.199-1.609z" style="opacity:1;fill:none;fill-opacity:.891304;stroke:#1b1a1a;stroke-width:1.6;stroke-linecap:round;stroke-linejoin:round;stroke-miterlimit:4;stroke-dasharray:none;stroke-opacity:.0117647" transform="translate(19.912 23.18) scale(.20953)"/><path style="opacity:1;fill:none;fill-opacity:.891304;stroke:#1b1a1a;stroke-width:1.8;stroke-linecap:round;stroke-linejoin:round;stroke-miterlimit:4;stroke-dasharray:none;stroke-opacity:.0117647" d="M15.753-34.449A13.517 13.517 0 0 0 2.236-20.932 13.517 13.517 0 0 0 15.753-7.415 13.517 13.517 0 0 0 29.27-20.932a13.517 13.517 0 0 0-13.517-13.517Zm-.538 5.927v1.534a6.049 6.049 0 0 1 .585-.035 6.049 6.049 0 0 1 1.047.098v-1.528a7.727 7.727 0 0 1 3.949 1.79l-1.08 1.08a6.049 6.049 0 0 1 1.088 1.22l1.107-1.106a7.727 7.727 0 0 1 1.525 3.91h-1.621a6.049 6.049 0 0 1 .034.585 6.049 6.049 0 0 1-.097 1.047h1.671a7.727 7.727 0 0 1-1.575 3.847l-1.238-1.238a6.049 6.049 0 0 1-1.152 1.156l1.26 1.26a7.727 7.727 0 0 1-3.871 1.73v-1.845a6.049 6.049 0 0 1-1.047.092 6.049 6.049 0 0 1-.585-.029v1.84a7.727 7.727 0 0 1-4.116-1.543l1.31-1.31a6.049 6.049 0 0 1-1.213-1.095l-1.288 1.287a7.727 7.727 0 0 1-1.821-4.152h1.757a6.049 6.049 0 0 1-.092-1.047 6.049 6.049 0 0 1 .029-.585H8.063a7.727 7.727 0 0 1 1.774-4.224l1.153 1.153a6.049 6.049 0 0 1 1.153-1.155l-1.127-1.128a7.727 7.727 0 0 1 4.199-1.609z" transform="translate(19.912 23.18) scale(.20953)"/><path d="M15.753-34.449A13.517 13.517 0 0 0 2.236-20.932 13.517 13.517 0 0 0 15.753-7.415 13.517 13.517 0 0 0 29.27-20.932a13.517 13.517 0 0 0-13.517-13.517Zm-.538 5.927v1.534a6.049 6.049 0 0 1 .585-.035 6.049 6.049 0 0 1 1.047.098v-1.528a7.727 7.727 0 0 1 3.949 1.79l-1.08 1.08a6.049 6.049 0 0 1 1.088 1.22l1.107-1.106a7.727 7.727 0 0 1 1.525 3.91h-1.621a6.049 6.049 0 0 1 .034.585 6.049 6.049 0 0 1-.097 1.047h1.671a7.727 7.727 0 0 1-1.575 3.847l-1.238-1.238a6.049 6.049 0 0 1-1.152 1.156l1.26 1.26a7.727 7.727 0 0 1-3.871 1.73v-1.845a6.049 6.049 0 0 1-1.047.092 6.049 6.049 0 0 1-.585-.029v1.84a7.727 7.727 0 0 1-4.116-1.543l1.31-1.31a6.049 6.049 0 0 1-1.213-1.095l-1.288 1.287a7.727 7.727 0 0 1-1.821-4.152h1.757a6.049 6.049 0 0 1-.092-1.047 6.049 6.049 0 0 1 .029-.585H8.063a7.727 7.727 0 0 1 1.774-4.224l1.153 1.153a6.049 6.049 0 0 1 1.153-1.155l-1.127-1.128a7.727 7.727 0 0 1 4.199-1.609z" style="opacity:1;fill:none;fill-opacity:.891304;stroke:#1b1a1a;stroke-width:2;stroke-linecap:round;stroke-linejoin:round;stroke-miterlimit:4;stroke-dasharray:none;stroke-opacity:.0117647" transform="translate(19.912 23.18) scale(.20953)"/><path d="M99.697-28.637A13.517 13.517 0 0 0 86.18-15.12 13.517 13.517 0 0 0 99.697-1.603a13.517 13.517 0 0 0 13.517-13.517 13.517 13.517 0 0 0-13.517-13.517Zm-.538 5.927v1.534a6.049 6.049 0 0 1 .586-.035 6.049 6.049 0 0 1 1.046.098v-1.528a7.727 7.727 0 0 1 3.95 1.79l-1.08 1.08a6.049 6.049 0 0 1 1.088 1.22l1.106-1.106a7.727 7.727 0 0 1 1.526 3.91h-1.621a6.049 6.049 0 0 1 .034.585 6.049 6.049 0 0 1-.097 1.047h1.67a7.727 7.727 0 0 1-1.574 3.847l-1.239-1.238a6.049 6.049 0 0 1-1.151 1.156l1.259 1.26a7.727 7.727 0 0 1-3.87 1.73v-1.845a6.049 6.049 0 0 1-1.047.092 6.049 6.049 0 0 1-.586-.029v1.84a7.727 7.727 0 0 1-4.115-1.543l1.31-1.31a6.049 6.049 0 0 1-1.214-1.095l-1.287 1.287a7.727 7.727 0 0 1-1.822-4.152h1.757a6.049 6.049 0 0 1-.092-1.047 6.049 6.049 0 0 1 .03-.585h-1.718a7.727 7.727 0 0 1 1.773-4.224l1.154 1.153a6.049 6.049 0 0 1 1.153-1.155l-1.128-1.128a7.727 7.727 0 0 1 4.2-1.609z" style="opacity:1;fill:#f3f3f3;fill-opacity:1;stroke:none;stroke-width:.444315;stroke-linecap:round;stroke-linejoin:round;stroke-miterlimit:4;stroke-dasharray:none;stroke-opacity:1" transform="translate(2.323 21.963) scale(.20953)"/><path transform="translate(-10.522 22.195) scale(.05544)" d="M378.129-170.213A108.88 108.88 0 0 0 269.25-61.332 108.88 108.88 0 0 0 378.129 47.547a108.88 108.88 0 0 0 108.88-108.879 108.88 108.88 0 0 0-108.88-108.88Zm-2.852 65.348A42.667 42.667 0 0 1 417.943-62.2a42.667 42.667 0 0 1-42.666 42.668A42.667 42.667 0 0 1 332.611-62.2a42.667 42.667 0 0 1 42.666-42.666z" style="opacity:1;fill:#2e2e2e;fill-opacity:1;stroke:none;stroke-width:3.77953;stroke-linecap:round;stroke-linejoin:round;stroke-miterlimit:4;stroke-dasharray:none;stroke-opacity:1"/><path transform="translate(-10.522 22.195) scale(.05544)" d="M378.129-170.213A108.88 108.88 0 0 0 269.25-61.332 108.88 108.88 0 0 0 378.129 47.547a108.88 108.88 0 0 0 108.88-108.879 108.88 108.88 0 0 0-108.88-108.88Zm-.955 68.762a41.15 41.15 0 0 1 41.148 41.148 41.15 41.15 0 0 1-41.148 41.15 41.15 41.15 0 0 1-41.15-41.15 41.15 41.15 0 0 1 41.15-41.148z" style="opacity:.318;fill:url(#u);fill-opacity:1;stroke:#1b1a1a;stroke-width:3.77953;stroke-linecap:round;stroke-linejoin:round;stroke-miterlimit:4;stroke-dasharray:none;stroke-opacity:1"/><path style="opacity:1;fill:none;fill-opacity:.891304;stroke:#1b1a1a;stroke-width:.1;stroke-linecap:round;stroke-linejoin:round;stroke-miterlimit:4;stroke-dasharray:none;stroke-opacity:.0117647" d="M15.753-34.449A13.517 13.517 0 0 0 2.236-20.932 13.517 13.517 0 0 0 15.753-7.415 13.517 13.517 0 0 0 29.27-20.932a13.517 13.517 0 0 0-13.517-13.517Zm-.538 5.927v1.534a6.049 6.049 0 0 1 .585-.035 6.049 6.049 0 0 1 1.047.098v-1.528a7.727 7.727 0 0 1 3.949 1.79l-1.08 1.08a6.049 6.049 0 0 1 1.088 1.22l1.107-1.106a7.727 7.727 0 0 1 1.525 3.91h-1.621a6.049 6.049 0 0 1 .034.585 6.049 6.049 0 0 1-.097 1.047h1.671a7.727 7.727 0 0 1-1.575 3.847l-1.238-1.238a6.049 6.049 0 0 1-1.152 1.156l1.26 1.26a7.727 7.727 0 0 1-3.871 1.73v-1.845a6.049 6.049 0 0 1-1.047.092 6.049 6.049 0 0 1-.585-.029v1.84a7.727 7.727 0 0 1-4.116-1.543l1.31-1.31a6.049 6.049 0 0 1-1.213-1.095l-1.288 1.287a7.727 7.727 0 0 1-1.821-4.152h1.757a6.049 6.049 0 0 1-.092-1.047 6.049 6.049 0 0 1 .029-.585H8.063a7.727 7.727 0 0 1 1.774-4.224l1.153 1.153a6.049 6.049 0 0 1 1.153-1.155l-1.127-1.128a7.727 7.727 0 0 1 4.199-1.609z" transform="translate(7.14 23.18) scale(.20953)"/><path d="M15.753-34.449A13.517 13.517 0 0 0 2.236-20.932 13.517 13.517 0 0 0 15.753-7.415 13.517 13.517 0 0 0 29.27-20.932a13.517 13.517 0 0 0-13.517-13.517Zm-.538 5.927v1.534a6.049 6.049 0 0 1 .585-.035 6.049 6.049 0 0 1 1.047.098v-1.528a7.727 7.727 0 0 1 3.949 1.79l-1.08 1.08a6.049 6.049 0 0 1 1.088 1.22l1.107-1.106a7.727 7.727 0 0 1 1.525 3.91h-1.621a6.049 6.049 0 0 1 .034.585 6.049 6.049 0 0 1-.097 1.047h1.671a7.727 7.727 0 0 1-1.575 3.847l-1.238-1.238a6.049 6.049 0 0 1-1.152 1.156l1.26 1.26a7.727 7.727 0 0 1-3.871 1.73v-1.845a6.049 6.049 0 0 1-1.047.092 6.049 6.049 0 0 1-.585-.029v1.84a7.727 7.727 0 0 1-4.116-1.543l1.31-1.31a6.049 6.049 0 0 1-1.213-1.095l-1.288 1.287a7.727 7.727 0 0 1-1.821-4.152h1.757a6.049 6.049 0 0 1-.092-1.047 6.049 6.049 0 0 1 .029-.585H8.063a7.727 7.727 0 0 1 1.774-4.224l1.153 1.153a6.049 6.049 0 0 1 1.153-1.155l-1.127-1.128a7.727 7.727 0 0 1 4.199-1.609z" style="opacity:1;fill:none;fill-opacity:.891304;stroke:#1b1a1a;stroke-width:.2;stroke-linecap:round;stroke-linejoin:round;stroke-miterlimit:4;stroke-dasharray:none;stroke-opacity:.0117647" transform="translate(7.14 23.18) scale(.20953)"/><path style="opacity:1;fill:none;fill-opacity:.891304;stroke:#1b1a1a;stroke-width:.3;stroke-linecap:round;stroke-linejoin:round;stroke-miterlimit:4;stroke-dasharray:none;stroke-opacity:.0117647" d="M15.753-34.449A13.517 13.517 0 0 0 2.236-20.932 13.517 13.517 0 0 0 15.753-7.415 13.517 13.517 0 0 0 29.27-20.932a13.517 13.517 0 0 0-13.517-13.517Zm-.538 5.927v1.534a6.049 6.049 0 0 1 .585-.035 6.049 6.049 0 0 1 1.047.098v-1.528a7.727 7.727 0 0 1 3.949 1.79l-1.08 1.08a6.049 6.049 0 0 1 1.088 1.22l1.107-1.106a7.727 7.727 0 0 1 1.525 3.91h-1.621a6.049 6.049 0 0 1 .034.585 6.049 6.049 0 0 1-.097 1.047h1.671a7.727 7.727 0 0 1-1.575 3.847l-1.238-1.238a6.049 6.049 0 0 1-1.152 1.156l1.26 1.26a7.727 7.727 0 0 1-3.871 1.73v-1.845a6.049 6.049 0 0 1-1.047.092 6.049 6.049 0 0 1-.585-.029v1.84a7.727 7.727 0 0 1-4.116-1.543l1.31-1.31a6.049 6.049 0 0 1-1.213-1.095l-1.288 1.287a7.727 7.727 0 0 1-1.821-4.152h1.757a6.049 6.049 0 0 1-.092-1.047 6.049 6.049 0 0 1 .029-.585H8.063a7.727 7.727 0 0 1 1.774-4.224l1.153 1.153a6.049 6.049 0 0 1 1.153-1.155l-1.127-1.128a7.727 7.727 0 0 1 4.199-1.609z" transform="translate(7.14 23.18) scale(.20953)"/><path d="M15.753-34.449A13.517 13.517 0 0 0 2.236-20.932 13.517 13.517 0 0 0 15.753-7.415 13.517 13.517 0 0 0 29.27-20.932a13.517 13.517 0 0 0-13.517-13.517Zm-.538 5.927v1.534a6.049 6.049 0 0 1 .585-.035 6.049 6.049 0 0 1 1.047.098v-1.528a7.727 7.727 0 0 1 3.949 1.79l-1.08 1.08a6.049 6.049 0 0 1 1.088 1.22l1.107-1.106a7.727 7.727 0 0 1 1.525 3.91h-1.621a6.049 6.049 0 0 1 .034.585 6.049 6.049 0 0 1-.097 1.047h1.671a7.727 7.727 0 0 1-1.575 3.847l-1.238-1.238a6.049 6.049 0 0 1-1.152 1.156l1.26 1.26a7.727 7.727 0 0 1-3.871 1.73v-1.845a6.049 6.049 0 0 1-1.047.092 6.049 6.049 0 0 1-.585-.029v1.84a7.727 7.727 0 0 1-4.116-1.543l1.31-1.31a6.049 6.049 0 0 1-1.213-1.095l-1.288 1.287a7.727 7.727 0 0 1-1.821-4.152h1.757a6.049 6.049 0 0 1-.092-1.047 6.049 6.049 0 0 1 .029-.585H8.063a7.727 7.727 0 0 1 1.774-4.224l1.153 1.153a6.049 6.049 0 0 1 1.153-1.155l-1.127-1.128a7.727 7.727 0 0 1 4.199-1.609z" style="opacity:1;fill:none;fill-opacity:.891304;stroke:#1b1a1a;stroke-width:.4;stroke-linecap:round;stroke-linejoin:round;stroke-miterlimit:4;stroke-dasharray:none;stroke-opacity:.0117647" transform="translate(7.14 23.18) scale(.20953)"/><path style="opacity:1;fill:none;fill-opacity:.891304;stroke:#1b1a1a;stroke-width:.5;stroke-linecap:round;stroke-linejoin:round;stroke-miterlimit:4;stroke-dasharray:none;stroke-opacity:.0117647" d="M15.753-34.449A13.517 13.517 0 0 0 2.236-20.932 13.517 13.517 0 0 0 15.753-7.415 13.517 13.517 0 0 0 29.27-20.932a13.517 13.517 0 0 0-13.517-13.517Zm-.538 5.927v1.534a6.049 6.049 0 0 1 .585-.035 6.049 6.049 0 0 1 1.047.098v-1.528a7.727 7.727 0 0 1 3.949 1.79l-1.08 1.08a6.049 6.049 0 0 1 1.088 1.22l1.107-1.106a7.727 7.727 0 0 1 1.525 3.91h-1.621a6.049 6.049 0 0 1 .034.585 6.049 6.049 0 0 1-.097 1.047h1.671a7.727 7.727 0 0 1-1.575 3.847l-1.238-1.238a6.049 6.049 0 0 1-1.152 1.156l1.26 1.26a7.727 7.727 0 0 1-3.871 1.73v-1.845a6.049 6.049 0 0 1-1.047.092 6.049 6.049 0 0 1-.585-.029v1.84a7.727 7.727 0 0 1-4.116-1.543l1.31-1.31a6.049 6.049 0 0 1-1.213-1.095l-1.288 1.287a7.727 7.727 0 0 1-1.821-4.152h1.757a6.049 6.049 0 0 1-.092-1.047 6.049 6.049 0 0 1 .029-.585H8.063a7.727 7.727 0 0 1 1.774-4.224l1.153 1.153a6.049 6.049 0 0 1 1.153-1.155l-1.127-1.128a7.727 7.727 0 0 1 4.199-1.609z" transform="translate(7.14 23.18) scale(.20953)"/><path d="M15.753-34.449A13.517 13.517 0 0 0 2.236-20.932 13.517 13.517 0 0 0 15.753-7.415 13.517 13.517 0 0 0 29.27-20.932a13.517 13.517 0 0 0-13.517-13.517Zm-.538 5.927v1.534a6.049 6.049 0 0 1 .585-.035 6.049 6.049 0 0 1 1.047.098v-1.528a7.727 7.727 0 0 1 3.949 1.79l-1.08 1.08a6.049 6.049 0 0 1 1.088 1.22l1.107-1.106a7.727 7.727 0 0 1 1.525 3.91h-1.621a6.049 6.049 0 0 1 .034.585 6.049 6.049 0 0 1-.097 1.047h1.671a7.727 7.727 0 0 1-1.575 3.847l-1.238-1.238a6.049 6.049 0 0 1-1.152 1.156l1.26 1.26a7.727 7.727 0 0 1-3.871 1.73v-1.845a6.049 6.049 0 0 1-1.047.092 6.049 6.049 0 0 1-.585-.029v1.84a7.727 7.727 0 0 1-4.116-1.543l1.31-1.31a6.049 6.049 0 0 1-1.213-1.095l-1.288 1.287a7.727 7.727 0 0 1-1.821-4.152h1.757a6.049 6.049 0 0 1-.092-1.047 6.049 6.049 0 0 1 .029-.585H8.063a7.727 7.727 0 0 1 1.774-4.224l1.153 1.153a6.049 6.049 0 0 1 1.153-1.155l-1.127-1.128a7.727 7.727 0 0 1 4.199-1.609z" style="opacity:1;fill:none;fill-opacity:.891304;stroke:#1b1a1a;stroke-width:.6;stroke-linecap:round;stroke-linejoin:round;stroke-miterlimit:4;stroke-dasharray:none;stroke-opacity:.0117647" transform="translate(7.14 23.18) scale(.20953)"/><path style="opacity:1;fill:none;fill-opacity:.891304;stroke:#1b1a1a;stroke-width:.7;stroke-linecap:round;stroke-linejoin:round;stroke-miterlimit:4;stroke-dasharray:none;stroke-opacity:.0117647" d="M15.753-34.449A13.517 13.517 0 0 0 2.236-20.932 13.517 13.517 0 0 0 15.753-7.415 13.517 13.517 0 0 0 29.27-20.932a13.517 13.517 0 0 0-13.517-13.517Zm-.538 5.927v1.534a6.049 6.049 0 0 1 .585-.035 6.049 6.049 0 0 1 1.047.098v-1.528a7.727 7.727 0 0 1 3.949 1.79l-1.08 1.08a6.049 6.049 0 0 1 1.088 1.22l1.107-1.106a7.727 7.727 0 0 1 1.525 3.91h-1.621a6.049 6.049 0 0 1 .034.585 6.049 6.049 0 0 1-.097 1.047h1.671a7.727 7.727 0 0 1-1.575 3.847l-1.238-1.238a6.049 6.049 0 0 1-1.152 1.156l1.26 1.26a7.727 7.727 0 0 1-3.871 1.73v-1.845a6.049 6.049 0 0 1-1.047.092 6.049 6.049 0 0 1-.585-.029v1.84a7.727 7.727 0 0 1-4.116-1.543l1.31-1.31a6.049 6.049 0 0 1-1.213-1.095l-1.288 1.287a7.727 7.727 0 0 1-1.821-4.152h1.757a6.049 6.049 0 0 1-.092-1.047 6.049 6.049 0 0 1 .029-.585H8.063a7.727 7.727 0 0 1 1.774-4.224l1.153 1.153a6.049 6.049 0 0 1 1.153-1.155l-1.127-1.128a7.727 7.727 0 0 1 4.199-1.609z" transform="translate(7.14 23.18) scale(.20953)"/><path d="M15.753-34.449A13.517 13.517 0 0 0 2.236-20.932 13.517 13.517 0 0 0 15.753-7.415 13.517 13.517 0 0 0 29.27-20.932a13.517 13.517 0 0 0-13.517-13.517Zm-.538 5.927v1.534a6.049 6.049 0 0 1 .585-.035 6.049 6.049 0 0 1 1.047.098v-1.528a7.727 7.727 0 0 1 3.949 1.79l-1.08 1.08a6.049 6.049 0 0 1 1.088 1.22l1.107-1.106a7.727 7.727 0 0 1 1.525 3.91h-1.621a6.049 6.049 0 0 1 .034.585 6.049 6.049 0 0 1-.097 1.047h1.671a7.727 7.727 0 0 1-1.575 3.847l-1.238-1.238a6.049 6.049 0 0 1-1.152 1.156l1.26 1.26a7.727 7.727 0 0 1-3.871 1.73v-1.845a6.049 6.049 0 0 1-1.047.092 6.049 6.049 0 0 1-.585-.029v1.84a7.727 7.727 0 0 1-4.116-1.543l1.31-1.31a6.049 6.049 0 0 1-1.213-1.095l-1.288 1.287a7.727 7.727 0 0 1-1.821-4.152h1.757a6.049 6.049 0 0 1-.092-1.047 6.049 6.049 0 0 1 .029-.585H8.063a7.727 7.727 0 0 1 1.774-4.224l1.153 1.153a6.049 6.049 0 0 1 1.153-1.155l-1.127-1.128a7.727 7.727 0 0 1 4.199-1.609z" style="opacity:1;fill:none;fill-opacity:.891304;stroke:#1b1a1a;stroke-width:.8;stroke-linecap:round;stroke-linejoin:round;stroke-miterlimit:4;stroke-dasharray:none;stroke-opacity:.0117647" transform="translate(7.14 23.18) scale(.20953)"/><path style="opacity:1;fill:none;fill-opacity:.891304;stroke:#1b1a1a;stroke-width:.9;stroke-linecap:round;stroke-linejoin:round;stroke-miterlimit:4;stroke-dasharray:none;stroke-opacity:.0117647" d="M15.753-34.449A13.517 13.517 0 0 0 2.236-20.932 13.517 13.517 0 0 0 15.753-7.415 13.517 13.517 0 0 0 29.27-20.932a13.517 13.517 0 0 0-13.517-13.517Zm-.538 5.927v1.534a6.049 6.049 0 0 1 .585-.035 6.049 6.049 0 0 1 1.047.098v-1.528a7.727 7.727 0 0 1 3.949 1.79l-1.08 1.08a6.049 6.049 0 0 1 1.088 1.22l1.107-1.106a7.727 7.727 0 0 1 1.525 3.91h-1.621a6.049 6.049 0 0 1 .034.585 6.049 6.049 0 0 1-.097 1.047h1.671a7.727 7.727 0 0 1-1.575 3.847l-1.238-1.238a6.049 6.049 0 0 1-1.152 1.156l1.26 1.26a7.727 7.727 0 0 1-3.871 1.73v-1.845a6.049 6.049 0 0 1-1.047.092 6.049 6.049 0 0 1-.585-.029v1.84a7.727 7.727 0 0 1-4.116-1.543l1.31-1.31a6.049 6.049 0 0 1-1.213-1.095l-1.288 1.287a7.727 7.727 0 0 1-1.821-4.152h1.757a6.049 6.049 0 0 1-.092-1.047 6.049 6.049 0 0 1 .029-.585H8.063a7.727 7.727 0 0 1 1.774-4.224l1.153 1.153a6.049 6.049 0 0 1 1.153-1.155l-1.127-1.128a7.727 7.727 0 0 1 4.199-1.609z" transform="translate(7.14 23.18) scale(.20953)"/><path d="M15.753-34.449A13.517 13.517 0 0 0 2.236-20.932 13.517 13.517 0 0 0 15.753-7.415 13.517 13.517 0 0 0 29.27-20.932a13.517 13.517 0 0 0-13.517-13.517Zm-.538 5.927v1.534a6.049 6.049 0 0 1 .585-.035 6.049 6.049 0 0 1 1.047.098v-1.528a7.727 7.727 0 0 1 3.949 1.79l-1.08 1.08a6.049 6.049 0 0 1 1.088 1.22l1.107-1.106a7.727 7.727 0 0 1 1.525 3.91h-1.621a6.049 6.049 0 0 1 .034.585 6.049 6.049 0 0 1-.097 1.047h1.671a7.727 7.727 0 0 1-1.575 3.847l-1.238-1.238a6.049 6.049 0 0 1-1.152 1.156l1.26 1.26a7.727 7.727 0 0 1-3.871 1.73v-1.845a6.049 6.049 0 0 1-1.047.092 6.049 6.049 0 0 1-.585-.029v1.84a7.727 7.727 0 0 1-4.116-1.543l1.31-1.31a6.049 6.049 0 0 1-1.213-1.095l-1.288 1.287a7.727 7.727 0 0 1-1.821-4.152h1.757a6.049 6.049 0 0 1-.092-1.047 6.049 6.049 0 0 1 .029-.585H8.063a7.727 7.727 0 0 1 1.774-4.224l1.153 1.153a6.049 6.049 0 0 1 1.153-1.155l-1.127-1.128a7.727 7.727 0 0 1 4.199-1.609z" style="opacity:1;fill:none;fill-opacity:.891304;stroke:#1b1a1a;stroke-width:1;stroke-linecap:round;stroke-linejoin:round;stroke-miterlimit:4;stroke-dasharray:none;stroke-opacity:.0117647" transform="translate(7.14 23.18) scale(.20953)"/><path style="opacity:1;fill:none;fill-opacity:.891304;stroke:#1b1a1a;stroke-width:1.2;stroke-linecap:round;stroke-linejoin:round;stroke-miterlimit:4;stroke-dasharray:none;stroke-opacity:.0117647" d="M15.753-34.449A13.517 13.517 0 0 0 2.236-20.932 13.517 13.517 0 0 0 15.753-7.415 13.517 13.517 0 0 0 29.27-20.932a13.517 13.517 0 0 0-13.517-13.517Zm-.538 5.927v1.534a6.049 6.049 0 0 1 .585-.035 6.049 6.049 0 0 1 1.047.098v-1.528a7.727 7.727 0 0 1 3.949 1.79l-1.08 1.08a6.049 6.049 0 0 1 1.088 1.22l1.107-1.106a7.727 7.727 0 0 1 1.525 3.91h-1.621a6.049 6.049 0 0 1 .034.585 6.049 6.049 0 0 1-.097 1.047h1.671a7.727 7.727 0 0 1-1.575 3.847l-1.238-1.238a6.049 6.049 0 0 1-1.152 1.156l1.26 1.26a7.727 7.727 0 0 1-3.871 1.73v-1.845a6.049 6.049 0 0 1-1.047.092 6.049 6.049 0 0 1-.585-.029v1.84a7.727 7.727 0 0 1-4.116-1.543l1.31-1.31a6.049 6.049 0 0 1-1.213-1.095l-1.288 1.287a7.727 7.727 0 0 1-1.821-4.152h1.757a6.049 6.049 0 0 1-.092-1.047 6.049 6.049 0 0 1 .029-.585H8.063a7.727 7.727 0 0 1 1.774-4.224l1.153 1.153a6.049 6.049 0 0 1 1.153-1.155l-1.127-1.128a7.727 7.727 0 0 1 4.199-1.609z" transform="translate(7.14 23.18) scale(.20953)"/><path d="M15.753-34.449A13.517 13.517 0 0 0 2.236-20.932 13.517 13.517 0 0 0 15.753-7.415 13.517 13.517 0 0 0 29.27-20.932a13.517 13.517 0 0 0-13.517-13.517Zm-.538 5.927v1.534a6.049 6.049 0 0 1 .585-.035 6.049 6.049 0 0 1 1.047.098v-1.528a7.727 7.727 0 0 1 3.949 1.79l-1.08 1.08a6.049 6.049 0 0 1 1.088 1.22l1.107-1.106a7.727 7.727 0 0 1 1.525 3.91h-1.621a6.049 6.049 0 0 1 .034.585 6.049 6.049 0 0 1-.097 1.047h1.671a7.727 7.727 0 0 1-1.575 3.847l-1.238-1.238a6.049 6.049 0 0 1-1.152 1.156l1.26 1.26a7.727 7.727 0 0 1-3.871 1.73v-1.845a6.049 6.049 0 0 1-1.047.092 6.049 6.049 0 0 1-.585-.029v1.84a7.727 7.727 0 0 1-4.116-1.543l1.31-1.31a6.049 6.049 0 0 1-1.213-1.095l-1.288 1.287a7.727 7.727 0 0 1-1.821-4.152h1.757a6.049 6.049 0 0 1-.092-1.047 6.049 6.049 0 0 1 .029-.585H8.063a7.727 7.727 0 0 1 1.774-4.224l1.153 1.153a6.049 6.049 0 0 1 1.153-1.155l-1.127-1.128a7.727 7.727 0 0 1 4.199-1.609z" style="opacity:1;fill:none;fill-opacity:.891304;stroke:#1b1a1a;stroke-width:1.4;stroke-linecap:round;stroke-linejoin:round;stroke-miterlimit:4;stroke-dasharray:none;stroke-opacity:.0117647" transform="translate(7.14 23.18) scale(.20953)"/><path style="opacity:1;fill:none;fill-opacity:.891304;stroke:#1b1a1a;stroke-width:1.6;stroke-linecap:round;stroke-linejoin:round;stroke-miterlimit:4;stroke-dasharray:none;stroke-opacity:.0117647" d="M15.753-34.449A13.517 13.517 0 0 0 2.236-20.932 13.517 13.517 0 0 0 15.753-7.415 13.517 13.517 0 0 0 29.27-20.932a13.517 13.517 0 0 0-13.517-13.517Zm-.538 5.927v1.534a6.049 6.049 0 0 1 .585-.035 6.049 6.049 0 0 1 1.047.098v-1.528a7.727 7.727 0 0 1 3.949 1.79l-1.08 1.08a6.049 6.049 0 0 1 1.088 1.22l1.107-1.106a7.727 7.727 0 0 1 1.525 3.91h-1.621a6.049 6.049 0 0 1 .034.585 6.049 6.049 0 0 1-.097 1.047h1.671a7.727 7.727 0 0 1-1.575 3.847l-1.238-1.238a6.049 6.049 0 0 1-1.152 1.156l1.26 1.26a7.727 7.727 0 0 1-3.871 1.73v-1.845a6.049 6.049 0 0 1-1.047.092 6.049 6.049 0 0 1-.585-.029v1.84a7.727 7.727 0 0 1-4.116-1.543l1.31-1.31a6.049 6.049 0 0 1-1.213-1.095l-1.288 1.287a7.727 7.727 0 0 1-1.821-4.152h1.757a6.049 6.049 0 0 1-.092-1.047 6.049 6.049 0 0 1 .029-.585H8.063a7.727 7.727 0 0 1 1.774-4.224l1.153 1.153a6.049 6.049 0 0 1 1.153-1.155l-1.127-1.128a7.727 7.727 0 0 1 4.199-1.609z" transform="translate(7.14 23.18) scale(.20953)"/><path d="M15.753-34.449A13.517 13.517 0 0 0 2.236-20.932 13.517 13.517 0 0 0 15.753-7.415 13.517 13.517 0 0 0 29.27-20.932a13.517 13.517 0 0 0-13.517-13.517Zm-.538 5.927v1.534a6.049 6.049 0 0 1 .585-.035 6.049 6.049 0 0 1 1.047.098v-1.528a7.727 7.727 0 0 1 3.949 1.79l-1.08 1.08a6.049 6.049 0 0 1 1.088 1.22l1.107-1.106a7.727 7.727 0 0 1 1.525 3.91h-1.621a6.049 6.049 0 0 1 .034.585 6.049 6.049 0 0 1-.097 1.047h1.671a7.727 7.727 0 0 1-1.575 3.847l-1.238-1.238a6.049 6.049 0 0 1-1.152 1.156l1.26 1.26a7.727 7.727 0 0 1-3.871 1.73v-1.845a6.049 6.049 0 0 1-1.047.092 6.049 6.049 0 0 1-.585-.029v1.84a7.727 7.727 0 0 1-4.116-1.543l1.31-1.31a6.049 6.049 0 0 1-1.213-1.095l-1.288 1.287a7.727 7.727 0 0 1-1.821-4.152h1.757a6.049 6.049 0 0 1-.092-1.047 6.049 6.049 0 0 1 .029-.585H8.063a7.727 7.727 0 0 1 1.774-4.224l1.153 1.153a6.049 6.049 0 0 1 1.153-1.155l-1.127-1.128a7.727 7.727 0 0 1 4.199-1.609z" style="opacity:1;fill:none;fill-opacity:.891304;stroke:#1b1a1a;stroke-width:1.8;stroke-linecap:round;stroke-linejoin:round;stroke-miterlimit:4;stroke-dasharray:none;stroke-opacity:.0117647" transform="translate(7.14 23.18) scale(.20953)"/><path style="opacity:1;fill:none;fill-opacity:.891304;stroke:#1b1a1a;stroke-width:2;stroke-linecap:round;stroke-linejoin:round;stroke-miterlimit:4;stroke-dasharray:none;stroke-opacity:.0117647" d="M15.753-34.449A13.517 13.517 0 0 0 2.236-20.932 13.517 13.517 0 0 0 15.753-7.415 13.517 13.517 0 0 0 29.27-20.932a13.517 13.517 0 0 0-13.517-13.517Zm-.538 5.927v1.534a6.049 6.049 0 0 1 .585-.035 6.049 6.049 0 0 1 1.047.098v-1.528a7.727 7.727 0 0 1 3.949 1.79l-1.08 1.08a6.049 6.049 0 0 1 1.088 1.22l1.107-1.106a7.727 7.727 0 0 1 1.525 3.91h-1.621a6.049 6.049 0 0 1 .034.585 6.049 6.049 0 0 1-.097 1.047h1.671a7.727 7.727 0 0 1-1.575 3.847l-1.238-1.238a6.049 6.049 0 0 1-1.152 1.156l1.26 1.26a7.727 7.727 0 0 1-3.871 1.73v-1.845a6.049 6.049 0 0 1-1.047.092 6.049 6.049 0 0 1-.585-.029v1.84a7.727 7.727 0 0 1-4.116-1.543l1.31-1.31a6.049 6.049 0 0 1-1.213-1.095l-1.288 1.287a7.727 7.727 0 0 1-1.821-4.152h1.757a6.049 6.049 0 0 1-.092-1.047 6.049 6.049 0 0 1 .029-.585H8.063a7.727 7.727 0 0 1 1.774-4.224l1.153 1.153a6.049 6.049 0 0 1 1.153-1.155l-1.127-1.128a7.727 7.727 0 0 1 4.199-1.609z" transform="translate(7.14 23.18) scale(.20953)"/><path style="opacity:1;fill:#f3f3f3;fill-opacity:1;stroke:none;stroke-width:.444315;stroke-linecap:round;stroke-linejoin:round;stroke-miterlimit:4;stroke-dasharray:none;stroke-opacity:1" d="M99.697-28.637A13.517 13.517 0 0 0 86.18-15.12 13.517 13.517 0 0 0 99.697-1.603a13.517 13.517 0 0 0 13.517-13.517 13.517 13.517 0 0 0-13.517-13.517Zm-.538 5.927v1.534a6.049 6.049 0 0 1 .586-.035 6.049 6.049 0 0 1 1.046.098v-1.528a7.727 7.727 0 0 1 3.95 1.79l-1.08 1.08a6.049 6.049 0 0 1 1.088 1.22l1.106-1.106a7.727 7.727 0 0 1 1.526 3.91h-1.621a6.049 6.049 0 0 1 .034.585 6.049 6.049 0 0 1-.097 1.047h1.67a7.727 7.727 0 0 1-1.574 3.847l-1.239-1.238a6.049 6.049 0 0 1-1.151 1.156l1.259 1.26a7.727 7.727 0 0 1-3.87 1.73v-1.845a6.049 6.049 0 0 1-1.047.092 6.049 6.049 0 0 1-.586-.029v1.84a7.727 7.727 0 0 1-4.115-1.543l1.31-1.31a6.049 6.049 0 0 1-1.214-1.095l-1.287 1.287a7.727 7.727 0 0 1-1.822-4.152h1.757a6.049 6.049 0 0 1-.092-1.047 6.049 6.049 0 0 1 .03-.585h-1.718a7.727 7.727 0 0 1 1.773-4.224l1.154 1.153a6.049 6.049 0 0 1 1.153-1.155l-1.128-1.128a7.727 7.727 0 0 1 4.2-1.609z" transform="translate(-10.45 21.963) scale(.20953)"/><path style="color:#000;font-style:normal;font-variant:normal;font-weight:400;font-stretch:normal;font-size:medium;line-height:normal;font-family:sans-serif;font-variant-ligatures:normal;font-variant-position:normal;font-variant-caps:normal;font-variant-numeric:normal;font-variant-alternates:normal;font-feature-settings:normal;text-indent:0;text-align:start;text-decoration:none;text-decoration-line:none;text-decoration-style:solid;text-decoration-color:#000;letter-spacing:normal;word-spacing:normal;text-transform:none;writing-mode:lr-tb;direction:ltr;text-orientation:mixed;dominant-baseline:auto;baseline-shift:baseline;text-anchor:start;white-space:normal;shape-padding:0;clip-rule:nonzero;display:inline;overflow:visible;visibility:visible;opacity:.059;isolation:auto;mix-blend-mode:normal;color-interpolation:sRGB;color-interpolation-filters:linearRGB;solid-color:#000;solid-opacity:1;vector-effect:none;fill:#fff;fill-opacity:.76019347;fill-rule:nonzero;stroke:none;stroke-width:1.5;stroke-linecap:butt;stroke-linejoin:miter;stroke-miterlimit:4;stroke-dasharray:none;stroke-dashoffset:0;stroke-opacity:1;color-rendering:auto;image-rendering:auto;shape-rendering:auto;text-rendering:auto;enable-background:accumulate" d="m14.674 13.783-6.899 9.332 1.207.893 6.899-9.332zm7.55.15-6.898 9.332.805.594 6.899-9.332zm6.073 0-6.898 9.332.802.594 6.9-9.332zm-16.908.149L4.49 23.414l.403.297 6.898-9.332zm6.397 0-6.9 9.332.403.297 6.899-9.332zm2.333 0-6.898 9.332.4.297 6.9-9.332zm5.194 0-6.9 9.332.401.297 6.9-9.332z"/><path style="opacity:1;fill:#494948;fill-opacity:1;stroke:none;stroke-width:1;stroke-linecap:round;stroke-linejoin:round;stroke-miterlimit:4;stroke-dasharray:none;stroke-opacity:1" d="M6.44 8.234A2.433 2.433 0 0 0 4 10.673v12.293a2.434 2.434 0 0 0 2.44 2.44h20.95a2.434 2.434 0 0 0 2.439-2.44V10.673a2.434 2.434 0 0 0-2.44-2.439zm1.667 6.74h17.686a2.01 2.01 0 0 1 2.013 2.014v3.424a2.009 2.009 0 0 1-2.013 2.013H8.107a2.008 2.008 0 0 1-2.013-2.013v-3.424c0-1.115.898-2.013 2.013-2.013z"/><rect style="opacity:1;fill:#13120c;fill-opacity:0;stroke:none;stroke-width:1;stroke-linecap:round;stroke-linejoin:round;stroke-miterlimit:4;stroke-dasharray:none;stroke-opacity:1" width="21.819" height="7.486" x="6.004" y="14.943" rx="2.013" ry="2.013" fill="none"/><path style="opacity:1;fill:#97cdff;fill-opacity:1;stroke:none;stroke-width:1;stroke-linecap:round;stroke-linejoin:round;stroke-miterlimit:4;stroke-dasharray:none;stroke-opacity:1" d="M7.167 12.742a2.434 2.434 0 0 0-2.44 2.44v6.895a2.434 2.434 0 0 0 2.44 2.439h19.496a2.433 2.433 0 0 0 2.438-2.439v-6.896a2.434 2.434 0 0 0-2.438-2.439zm.94 2.232h17.686a2.01 2.01 0 0 1 2.013 2.014v3.424a2.009 2.009 0 0 1-2.013 2.013H8.107a2.008 2.008 0 0 1-2.013-2.013v-3.424a2.01 2.01 0 0 1 2.013-2.014z"/><rect style="opacity:1;fill:#97cdff;fill-opacity:1;stroke:none;stroke-width:1;stroke-linecap:round;stroke-linejoin:round;stroke-miterlimit:4;stroke-dasharray:none;stroke-opacity:1" width="24.089" height="2.661" x="4.906" y="9.287" rx=".854" ry=".854"/><path style="opacity:1;fill:#000;fill-opacity:.304348;stroke:none;stroke-width:1;stroke-linecap:round;stroke-linejoin:round;stroke-miterlimit:4;stroke-dasharray:none;stroke-opacity:1" d="M7.168 17.784a.133.133 0 0 0-.133.132v1.738a.133.133 0 1 0 .265 0v-1.738a.133.133 0 0 0-.132-.132zm1.123 0a.133.133 0 0 0-.133.132v1.738a.133.133 0 1 0 .266 0v-1.738a.133.133 0 0 0-.133-.132zm1.123 0a.133.133 0 0 0-.133.132v1.738a.133.133 0 1 0 .266 0v-1.738a.133.133 0 0 0-.133-.132zm1.124 0a.133.133 0 0 0-.133.132v1.738a.133.133 0 1 0 .265 0v-1.738a.133.133 0 0 0-.132-.132zm12.612 0a.133.133 0 0 0-.132.132v1.738a.133.133 0 1 0 .265 0v-1.738a.133.133 0 0 0-.133-.132zm1.124 0a.133.133 0 0 0-.133.132v1.738a.133.133 0 1 0 .266 0v-1.738a.133.133 0 0 0-.133-.132zm1.123 0a.133.133 0 0 0-.133.132v1.738a.133.133 0 1 0 .266 0v-1.738a.133.133 0 0 0-.133-.132zm1.123 0a.133.133 0 0 0-.133.132v1.738a.133.133 0 1 0 .266 0v-1.738a.133.133 0 0 0-.133-.132z"/><path style="fill:#fff;fill-opacity:.0923913;stroke:none;stroke-width:.0479295px;stroke-linecap:butt;stroke-linejoin:miter;stroke-opacity:1" d="M9.249 27.145s-.753 3.742-1.009 4.44c.192.017.385.027.58.027h16.19c.122 0 .243-.004.363-.01l-1.036-4.457z"/><g transform="translate(23.715 34.016) scale(.3008)"><path d="M-22.503-22.152a3.211 3.211 0 0 0-3.209 3.209 3.211 3.211 0 0 0 3.209 3.209 3.211 3.211 0 0 0 3.209-3.21 3.211 3.211 0 0 0-3.21-3.208z" style="color:#000;font-style:normal;font-variant:normal;font-weight:400;font-stretch:normal;font-size:medium;line-height:normal;font-family:sans-serif;font-variant-ligatures:normal;font-variant-position:normal;font-variant-caps:normal;font-variant-numeric:normal;font-variant-alternates:normal;font-feature-settings:normal;text-indent:0;text-align:start;text-decoration:none;text-decoration-line:none;text-decoration-style:solid;text-decoration-color:#000;letter-spacing:normal;word-spacing:normal;text-transform:none;writing-mode:lr-tb;direction:ltr;text-orientation:mixed;dominant-baseline:auto;baseline-shift:baseline;text-anchor:start;white-space:normal;shape-padding:0;clip-rule:nonzero;display:inline;overflow:visible;visibility:visible;opacity:1;isolation:auto;mix-blend-mode:normal;color-interpolation:sRGB;color-interpolation-filters:linearRGB;solid-color:#000;solid-opacity:1;vector-effect:none;fill:url(#v);fill-opacity:1;fill-rule:nonzero;stroke:none;stroke-width:.407162;stroke-linecap:round;stroke-linejoin:round;stroke-miterlimit:4;stroke-dasharray:none;stroke-dashoffset:0;stroke-opacity:1;color-rendering:auto;image-rendering:auto;shape-rendering:auto;text-rendering:auto;enable-background:accumulate"/><circle r="2.953" cy="-19.381" cx="-22.537" style="opacity:1;fill:url(#w);fill-opacity:1;stroke:#1b1a1a;stroke-width:.4;stroke-linecap:round;stroke-linejoin:round;stroke-miterlimit:4;stroke-dasharray:none;stroke-opacity:1"/></g><path style="opacity:1;fill:#000;fill-opacity:.710425;stroke:none;stroke-width:.4;stroke-linecap:round;stroke-linejoin:round;stroke-miterlimit:4;stroke-dasharray:none;stroke-opacity:1" d="M25.048 5.02a.197.197 0 0 0-.074.025l-.357.206a.195.195 0 0 0-.072.267l.622 1.077-1.077.622a.195.195 0 0 0-.071.267l.206.357a.195.195 0 0 0 .267.072l1.077-.622.621 1.076a.195.195 0 0 0 .268.072l.357-.206a.195.195 0 0 0 .07-.267l-.62-1.077 1.076-.622a.195.195 0 0 0 .071-.266l-.205-.358a.195.195 0 0 0-.267-.071l-1.077.621-.622-1.076a.195.195 0 0 0-.193-.097z" transform="translate(9.201 26.161) scale(.3008)"/><path style="opacity:1;fill:#000;fill-opacity:.380435;stroke:none;stroke-width:1;stroke-linecap:round;stroke-linejoin:round;stroke-miterlimit:4;stroke-dasharray:none;stroke-opacity:1" d="M12.64 28.444a.639.639 0 0 0-.639.64.639.639 0 0 0 .64.638.639.639 0 0 0 .638-.639.639.639 0 0 0-.639-.639zm-2.696 1.207a.639.639 0 0 0-.639.638.639.639 0 0 0 .64.639.639.639 0 0 0 .637-.639.639.639 0 0 0-.638-.638zm11.211-1.207a.639.639 0 0 1 .639.64.639.639 0 0 1-.639.638.639.639 0 0 1-.639-.639.639.639 0 0 1 .64-.639zm2.696 1.207a.639.639 0 0 1 .639.638.639.639 0 0 1-.639.639.639.639 0 0 1-.638-.639.639.639 0 0 1 .638-.638z"/></svg>