<?xml version="1.0" encoding="UTF-8"?>
<svg id="svg1443" width="128" height="128" version="1.1" viewBox="0 0 33.867 33.867" xmlns="http://www.w3.org/2000/svg" xmlns:cc="http://creativecommons.org/ns#" xmlns:dc="http://purl.org/dc/elements/1.1/" xmlns:rdf="http://www.w3.org/1999/02/22-rdf-syntax-ns#" xmlns:xlink="http://www.w3.org/1999/xlink">
 <defs id="defs1437">
  <radialGradient id="radialGradient1999" cx="17.076" cy="4.6282" r="14.544" gradientTransform="matrix(4.7283 0 0 1.6998 -63.506 -2.7937)" gradientUnits="userSpaceOnUse">
   <stop id="stop1993" stop-color="#5ed7ec" offset="0"/>
   <stop id="stop1995" stop-color="#3de1bf" offset="1"/>
  </radialGradient>
  <linearGradient id="linearGradient1206" x1="5.6282" x2="5.6282" y1="12.218" y2="63.11" gradientUnits="userSpaceOnUse">
   <stop id="stop1200" stop-color="#fff" offset="0"/>
   <stop id="stop1202" stop-color="#45dfca" offset="1"/>
  </linearGradient>
 </defs>
 <metadata id="metadata1440">
  <rdf:RDF>
   <cc:Work rdf:about="">
    <dc:format>image/svg+xml</dc:format>
    <dc:type rdf:resource="http://purl.org/dc/dcmitype/StillImage"/>
   </cc:Work>
  </rdf:RDF>
 </metadata>
 <g id="layer1">
  <g id="g1702" transform="matrix(.97573 0 0 .96361 -65.737 -36.328)" fill="none" opacity=".18754" stroke="#000" stroke-linecap="round" stroke-linejoin="round" stroke-opacity=".02">
   <rect id="rect1634" x="69.84" y="40.71" width="29.811" height="29.811" rx="6.6099" ry="6.6099" stroke-width=".1"/>
   <rect id="rect1638" x="69.84" y="40.71" width="29.811" height="29.811" rx="6.6099" ry="6.6099" stroke-width=".2"/>
   <rect id="rect1640" x="69.84" y="40.71" width="29.811" height="29.811" rx="6.6099" ry="6.6099" stroke-width=".3"/>
   <rect id="rect1642" x="69.84" y="40.71" width="29.811" height="29.811" rx="6.6099" ry="6.6099" stroke-width=".4"/>
   <rect id="rect1644" x="69.84" y="40.71" width="29.811" height="29.811" rx="6.6099" ry="6.6099" stroke-width=".5"/>
   <rect id="rect1646" x="69.84" y="40.71" width="29.811" height="29.811" rx="6.6099" ry="6.6099" stroke-width=".6"/>
   <rect id="rect1648" x="69.84" y="40.71" width="29.811" height="29.811" rx="6.6099" ry="6.6099" stroke-width=".7"/>
   <rect id="rect1650" x="69.84" y="40.71" width="29.811" height="29.811" rx="6.6099" ry="6.6099" stroke-width=".8"/>
   <rect id="rect1652" x="69.84" y="40.71" width="29.811" height="29.811" rx="6.6099" ry="6.6099"/>
   <rect id="rect1654" x="69.84" y="40.71" width="29.811" height="29.811" rx="6.6099" ry="6.6099" stroke-width="1.2"/>
   <rect id="rect1656" x="69.84" y="40.71" width="29.811" height="29.811" rx="6.6099" ry="6.6099" stroke-width="1.4"/>
   <rect id="rect1658" x="69.84" y="40.71" width="29.811" height="29.811" rx="6.6099" ry="6.6099" stroke-width="1.6"/>
   <rect id="rect1660" x="69.84" y="40.71" width="29.811" height="29.811" rx="6.6099" ry="6.6099" stroke-width="1.8"/>
   <rect id="rect1662" x="69.84" y="40.71" width="29.811" height="29.811" rx="6.6099" ry="6.6099" stroke-width="2"/>
   <rect id="rect1664" x="69.84" y="40.71" width="29.811" height="29.811" rx="6.6099" ry="6.6099" stroke-width="2.2"/>
   <rect id="rect1666" x="69.84" y="40.71" width="29.811" height="29.811" rx="6.6099" ry="6.6099" stroke-width="2.6"/>
   <rect id="rect1668" x="69.84" y="40.71" width="29.811" height="29.811" rx="6.6099" ry="6.6099" stroke-width="3"/>
   <rect id="rect1670" x="69.84" y="40.71" width="29.811" height="29.811" rx="6.6099" ry="6.6099" stroke-width="3.4"/>
   <rect id="rect1672" x="69.84" y="40.71" width="29.811" height="29.811" rx="6.6099" ry="6.6099" stroke-width="3.8"/>
   <rect id="rect1674" x="69.84" y="40.71" width="29.811" height="29.811" rx="6.6099" ry="6.6099" stroke-width="4.2"/>
   <rect id="rect1676" x="69.84" y="40.71" width="29.811" height="29.811" rx="6.6099" ry="6.6099" stroke-width="4.6"/>
   <rect id="rect1678" x="69.84" y="40.71" width="29.811" height="29.811" rx="6.6099" ry="6.6099" stroke-width="5"/>
  </g>
  <rect id="rect849" x="2.4074" y="2.5392" width="29.087" height="29.087" rx="6.4495" ry="6.4495" fill="url(#radialGradient1999)" stroke-linecap="round" stroke-linejoin="round" stroke-width="2.6877"/>
  <g id="g3340" fill="#03002e" fill-opacity=".021321" stroke-width=".5803">
   <path id="path3118" d="m5.6745 11.186v11.606h2.3212v-6.3833h1.1606v4.0621h2.3212v-9.2848h-2.3212v2.9015h-1.1606v-2.9015zm11.606 0a4.6423 4.6423 0 0 0-4.6424 4.6424 4.6423 4.6423 0 0 0 4.6424 4.6424 4.6423 4.6423 0 0 0 4.6424-4.6424 4.6423 4.6423 0 0 0-4.6424-4.6424zm5.803 0v9.2848h2.3212v-4.9858l1.1606 2.0106v5.2964h2.3212v-11.606h-2.3212v1.9608l-1.1606-1.9608zm-5.803 2.3212a2.3212 2.3212 0 0 1 2.3212 2.3212 2.3212 2.3212 0 0 1-2.3212 2.3212 2.3212 2.3212 0 0 1-2.3212-2.3212 2.3212 2.3212 0 0 1 2.3212-2.3212zm-4.6424 8.1242v2.3212h9.2848v-2.3212z"/>
   <path id="path3318" d="m5.4895 11.032v11.606h2.3212v-6.3833h1.1606v4.0621h2.3212v-9.2848h-2.3212v2.9015h-1.1606v-2.9015zm11.606 0a4.6423 4.6423 0 0 0-4.6424 4.6424 4.6423 4.6423 0 0 0 4.6424 4.6424 4.6423 4.6423 0 0 0 4.6424-4.6424 4.6423 4.6423 0 0 0-4.6424-4.6424zm5.803 0v9.2848h2.3212v-4.9858l1.1606 2.0106v5.2964h2.3212v-11.606h-2.3212v1.9608l-1.1606-1.9608zm-5.803 2.3212a2.3212 2.3212 0 0 1 2.3212 2.3212 2.3212 2.3212 0 0 1-2.3212 2.3212 2.3212 2.3212 0 0 1-2.3212-2.3212 2.3212 2.3212 0 0 1 2.3212-2.3212zm-4.6424 8.1242v2.3212h9.2848v-2.3212z"/>
   <path id="path3320" d="m5.725 11.475v11.606h2.3212v-6.3833h1.1606v4.0621h2.3212v-9.2848h-2.3212v2.9015h-1.1606v-2.9015zm11.606 0a4.6423 4.6423 0 0 0-4.6424 4.6424 4.6423 4.6423 0 0 0 4.6424 4.6424 4.6423 4.6423 0 0 0 4.6424-4.6424 4.6423 4.6423 0 0 0-4.6424-4.6424zm5.803 0v9.2848h2.3212v-4.9858l1.1606 2.0106v5.2964h2.3212v-11.606h-2.3212v1.9608l-1.1606-1.9608zm-5.803 2.3212a2.3212 2.3212 0 0 1 2.3212 2.3212 2.3212 2.3212 0 0 1-2.3212 2.3212 2.3212 2.3212 0 0 1-2.3212-2.3212 2.3212 2.3212 0 0 1 2.3212-2.3212zm-4.6424 8.1242v2.3212h9.2848v-2.3212z"/>
   <path id="path3322" d="m5.8211 11.788v11.606h2.3212v-6.3833h1.1606v4.0621h2.3212v-9.2848h-2.3212v2.9015h-1.1606v-2.9015zm11.606 0a4.6423 4.6423 0 0 0-4.6424 4.6424 4.6423 4.6423 0 0 0 4.6424 4.6424 4.6423 4.6423 0 0 0 4.6424-4.6424 4.6423 4.6423 0 0 0-4.6424-4.6424zm5.803 0v9.2848h2.3212v-4.9858l1.1606 2.0106v5.2964h2.3212v-11.606h-2.3212v1.9608l-1.1606-1.9608zm-5.803 2.3212a2.3212 2.3212 0 0 1 2.3212 2.3212 2.3212 2.3212 0 0 1-2.3212 2.3212 2.3212 2.3212 0 0 1-2.3212-2.3212 2.3212 2.3212 0 0 1 2.3212-2.3212zm-4.6424 8.1242v2.3212h9.2848v-2.3212z"/>
   <path id="path3324" d="m5.9397 12.138v11.606h2.3212v-6.3833h1.1606v4.0621h2.3212v-9.2848h-2.3212v2.9015h-1.1606v-2.9015zm11.606 0a4.6423 4.6423 0 0 0-4.6424 4.6424 4.6423 4.6423 0 0 0 4.6424 4.6424 4.6423 4.6423 0 0 0 4.6424-4.6424 4.6423 4.6423 0 0 0-4.6424-4.6424zm5.803 0v9.2848h2.3212v-4.9858l1.1606 2.0106v5.2964h2.3212v-11.606h-2.3212v1.9608l-1.1606-1.9608zm-5.803 2.3212a2.3212 2.3212 0 0 1 2.3212 2.3212 2.3212 2.3212 0 0 1-2.3212 2.3212 2.3212 2.3212 0 0 1-2.3212-2.3212 2.3212 2.3212 0 0 1 2.3212-2.3212zm-4.6424 8.1242v2.3212h9.2848v-2.3212z"/>
   <path id="path3326" d="m6.149 12.54v11.606h2.3212v-6.3833h1.1606v4.0621h2.3212v-9.2848h-2.3212v2.9015h-1.1606v-2.9015zm11.606 0a4.6423 4.6423 0 0 0-4.6424 4.6424 4.6423 4.6423 0 0 0 4.6424 4.6424 4.6423 4.6423 0 0 0 4.6424-4.6424 4.6423 4.6423 0 0 0-4.6424-4.6424zm5.803 0v9.2848h2.3212v-4.9858l1.1606 2.0106v5.2964h2.3212v-11.606h-2.3212v1.9608l-1.1606-1.9608zm-5.803 2.3212a2.3212 2.3212 0 0 1 2.3212 2.3212 2.3212 2.3212 0 0 1-2.3212 2.3212 2.3212 2.3212 0 0 1-2.3212-2.3212 2.3212 2.3212 0 0 1 2.3212-2.3212zm-4.6424 8.1242v2.3212h9.2848v-2.3212z"/>
   <path id="path3328" d="m5.3705 10.822v11.606h2.3212v-6.3833h1.1606v4.0621h2.3212v-9.2848h-2.3212v2.9015h-1.1606v-2.9015zm11.606 0a4.6423 4.6423 0 0 0-4.6424 4.6424 4.6423 4.6423 0 0 0 4.6424 4.6424 4.6423 4.6423 0 0 0 4.6424-4.6424 4.6423 4.6423 0 0 0-4.6424-4.6424zm5.803 0v9.2848h2.3212v-4.9858l1.1606 2.0106v5.2964h2.3212v-11.606h-2.3212v1.9608l-1.1606-1.9608zm-5.803 2.3212a2.3212 2.3212 0 0 1 2.3212 2.3212 2.3212 2.3212 0 0 1-2.3212 2.3212 2.3212 2.3212 0 0 1-2.3212-2.3212 2.3212 2.3212 0 0 1 2.3212-2.3212zm-4.6424 8.1242v2.3212h9.2848v-2.3212z"/>
   <path id="path3330" d="m6.1593 13.279v11.606h2.3212v-6.3833h1.1606v4.0621h2.3212v-9.2848h-2.3212v2.9015h-1.1606v-2.9015zm11.606 0a4.6423 4.6423 0 0 0-4.6424 4.6424 4.6423 4.6423 0 0 0 4.6424 4.6424 4.6423 4.6423 0 0 0 4.6424-4.6424 4.6423 4.6423 0 0 0-4.6424-4.6424zm5.803 0v9.2848h2.3212v-4.9858l1.1606 2.0106v5.2964h2.3212v-11.606h-2.3212v1.9608l-1.1606-1.9608zm-5.803 2.3212a2.3212 2.3212 0 0 1 2.3212 2.3212 2.3212 2.3212 0 0 1-2.3212 2.3212 2.3212 2.3212 0 0 1-2.3212-2.3212 2.3212 2.3212 0 0 1 2.3212-2.3212zm-4.6424 8.1242v2.3212h9.2848v-2.3212z"/>
  </g>
  <path id="path10" d="m5.6282 11.08v11.606h2.3212v-6.3833h1.1606v4.0621h2.3212v-9.2848h-2.3212v2.9015h-1.1606v-2.9015zm11.606 0a4.6423 4.6423 0 0 0-4.6424 4.6424 4.6423 4.6423 0 0 0 4.6424 4.6424 4.6423 4.6423 0 0 0 4.6424-4.6424 4.6423 4.6423 0 0 0-4.6424-4.6424zm5.803 0v9.2848h2.3212v-4.9858l1.1606 2.0106v5.2964h2.3212v-11.606h-2.3212v1.9608l-1.1606-1.9608zm-5.803 2.3212a2.3212 2.3212 0 0 1 2.3212 2.3212 2.3212 2.3212 0 0 1-2.3212 2.3212 2.3212 2.3212 0 0 1-2.3212-2.3212 2.3212 2.3212 0 0 1 2.3212-2.3212zm-4.6424 8.1242v2.3212h9.2848v-2.3212z" fill="url(#linearGradient1206)" stroke-width=".5803"/>
 </g>
</svg>
