<?xml version="1.0" encoding="UTF-8"?>
<svg id="svg6" width="128" height="128" version="1.1" viewBox="0 0 33.867 33.867" xmlns="http://www.w3.org/2000/svg" xmlns:cc="http://creativecommons.org/ns#" xmlns:dc="http://purl.org/dc/elements/1.1/" xmlns:rdf="http://www.w3.org/1999/02/22-rdf-syntax-ns#" xmlns:xlink="http://www.w3.org/1999/xlink">
 <metadata id="metadata174">
  <rdf:RDF>
   <cc:Work rdf:about="">
    <dc:format>image/svg+xml</dc:format>
    <dc:type rdf:resource="http://purl.org/dc/dcmitype/StillImage"/>
   </cc:Work>
  </rdf:RDF>
 </metadata>
 <defs id="defs2">
  <linearGradient id="linearGradient1632" x1="132.16" x2="132.21" y1="40.946" y2="70.68" gradientTransform="matrix(.97573 0 0 .97573 -111.77 -37.203)" gradientUnits="userSpaceOnUse">
   <stop id="stop1626" stop-color="#343236" offset="0"/>
   <stop id="stop10443" stop-color="#2a2a2d" offset=".072561"/>
   <stop id="stop11351" stop-color="#151919" offset=".43738"/>
   <stop id="stop1628" stop-color="#050115" offset="1"/>
  </linearGradient>
  <linearGradient id="linearGradient845" x1="7.585" x2="121.64" y1="64.171" y2="64.171" gradientTransform="matrix(.26458 0 0 .26458 -34.693 -6.9045)" gradientUnits="userSpaceOnUse">
   <stop id="stop839" stop-color="#1a1a1a" offset="0"/>
   <stop id="stop841" stop-color="#292929" offset="1"/>
  </linearGradient>
  <linearGradient id="linearGradient1135" x1="8.5046" x2="11.845" y1="7.2082" y2="15.458" gradientUnits="userSpaceOnUse">
   <stop id="stop1129" stop-color="#f48e06" offset="0"/>
   <stop id="stop1131" stop-color="#f4bb06" offset="1"/>
  </linearGradient>
  <linearGradient id="linearGradient1181" x1="16.952" x2="23.717" y1="12.287" y2="24.435" gradientUnits="userSpaceOnUse">
   <stop id="stop1175" stop-color="#a0a1a1" offset="0"/>
   <stop id="stop1177" stop-color="#919797" stop-opacity=".98594" offset="1"/>
  </linearGradient>
 </defs>
 <g id="layer1">
  <g id="g1702" transform="matrix(.97573 0 0 .97573 -65.748 -37.203)" fill="none" opacity=".29677" stroke="#000" stroke-linecap="round" stroke-linejoin="round" stroke-opacity=".02">
   <rect id="rect1634" x="69.84" y="40.71" width="29.811" height="29.811" rx="6.6099" ry="6.6099" stroke-width=".1"/>
   <rect id="rect1638" x="69.84" y="40.71" width="29.811" height="29.811" rx="6.6099" ry="6.6099" stroke-width=".2"/>
   <rect id="rect1640" x="69.84" y="40.71" width="29.811" height="29.811" rx="6.6099" ry="6.6099" stroke-width=".3"/>
   <rect id="rect1642" x="69.84" y="40.71" width="29.811" height="29.811" rx="6.6099" ry="6.6099" stroke-width=".4"/>
   <rect id="rect1644" x="69.84" y="40.71" width="29.811" height="29.811" rx="6.6099" ry="6.6099" stroke-width=".5"/>
   <rect id="rect1646" x="69.84" y="40.71" width="29.811" height="29.811" rx="6.6099" ry="6.6099" stroke-width=".6"/>
   <rect id="rect1648" x="69.84" y="40.71" width="29.811" height="29.811" rx="6.6099" ry="6.6099" stroke-width=".7"/>
   <rect id="rect1650" x="69.84" y="40.71" width="29.811" height="29.811" rx="6.6099" ry="6.6099" stroke-width=".8"/>
   <rect id="rect1652" x="69.84" y="40.71" width="29.811" height="29.811" rx="6.6099" ry="6.6099"/>
   <rect id="rect1654" x="69.84" y="40.71" width="29.811" height="29.811" rx="6.6099" ry="6.6099" stroke-width="1.2"/>
   <rect id="rect1656" x="69.84" y="40.71" width="29.811" height="29.811" rx="6.6099" ry="6.6099" stroke-width="1.4"/>
   <rect id="rect1658" x="69.84" y="40.71" width="29.811" height="29.811" rx="6.6099" ry="6.6099" stroke-width="1.6"/>
   <rect id="rect1660" x="69.84" y="40.71" width="29.811" height="29.811" rx="6.6099" ry="6.6099" stroke-width="1.8"/>
   <rect id="rect1662" x="69.84" y="40.71" width="29.811" height="29.811" rx="6.6099" ry="6.6099" stroke-width="2"/>
   <rect id="rect1664" x="69.84" y="40.71" width="29.811" height="29.811" rx="6.6099" ry="6.6099" stroke-width="2.2"/>
   <rect id="rect1666" x="69.84" y="40.71" width="29.811" height="29.811" rx="6.6099" ry="6.6099" stroke-width="2.6"/>
   <rect id="rect1668" x="69.84" y="40.71" width="29.811" height="29.811" rx="6.6099" ry="6.6099" stroke-width="3"/>
   <rect id="rect1670" x="69.84" y="40.71" width="29.811" height="29.811" rx="6.6099" ry="6.6099" stroke-width="3.4"/>
   <rect id="rect1672" x="69.84" y="40.71" width="29.811" height="29.811" rx="6.6099" ry="6.6099" stroke-width="3.8"/>
   <rect id="rect1674" x="69.84" y="40.71" width="29.811" height="29.811" rx="6.6099" ry="6.6099" stroke-width="4.2"/>
   <rect id="rect1676" x="69.84" y="40.71" width="29.811" height="29.811" rx="6.6099" ry="6.6099" stroke-width="4.6"/>
   <rect id="rect1678" x="69.84" y="40.71" width="29.811" height="29.811" rx="6.6099" ry="6.6099" stroke-width="5"/>
  </g>
  <rect id="rect849" x="2.4065" y="2.5186" width="29.087" height="29.087" rx="6.4495" ry="6.4495" fill="url(#linearGradient1632)" stroke-linecap="round" stroke-linejoin="round" stroke-width="2.6877"/>
  <g id="g6677">
   <path id="path6679" d="m7.1856-23.895 5.454 5.3659c1.5701 1.3009 2.6779 1.2744 4.1153 0.02901l5.4835-5.3949" color="#000000" fill="none" stroke-width=".8"/>
  </g>
  <path id="path6703" d="m41.619-13.641 7.5195-7.7708" color="#000000" fill="none" stroke-width=".6"/>
  <path id="path6697" d="m63.366-13.641-7.5223-7.6006" color="#000000" fill="none" stroke-width=".6"/>
  <path id="path6691" d="m41.242-29.284 8.8556 8.8325c1.7498 1.5783 2.9157 1.6977 4.709 0.10074l11.969-11.168" color="#000000" fill="none" stroke-width=".7"/>
  <circle id="circle4157" cx="-17.597" cy="10.074" r="0" fill="url(#linearGradient845)"/>
  <path id="path2" d="m14.181 16.926c-1.2158-0.30208-2.0324-0.70231-2.2449-2.0868-0.054-0.35185-0.13576-0.63973-0.18169-0.63973-0.04592 0-0.37928 0.14918-0.74078 0.33151-0.37256 0.18791-0.85584 0.26867-1.2112 0.24861-0.65431-0.03693-1.2447-0.5246-1.6433-1.2057-0.16082-0.2748-0.29265-0.58662-0.29296-0.82606-4.36e-4 -0.34545-0.0052-0.54327-0.38376-0.55615-0.60001 0.08925-0.97872-0.01221-1.2273-0.27513-0.21241-0.2213-0.28966-1.0257-0.28966-1.176 0-0.1503-0.45752-0.21241-0.72131-0.49597-0.32811-0.3527-0.49437-0.50034-0.08608-0.50148 1.6911 0.12275 3.2668 0.33537 4.9716 0.34432 2.2395-0.01832 3.79-0.1523 5.9955-0.38165 0.20946 0.072742 0.73932 0.81359 0.82449 2.412 0.06911 1.2968-0.30204 2.1977-0.64741 3.8986-0.24061 1.029-1.244 1.0783-2.1213 0.90966z" opacity=".2" stroke-width=".363"/>
  <path id="path4" d="m16.023 9.7026s0.21663 0.59785 0.29198 2.0056c0.06959 1.3001-0.08584 2.9799-0.43366 4.6851 0 0-0.13661 0.53006-0.66432 3.6932-0.21208 1.2685-0.42158 3.16-0.46554 4.0221-0.06908 1.3551-0.04021 1.6418 0.21251 2.116 0.37401 0.70187 1.3121 1.248 2.1156 1.2513l0.61961 0.0025-0.07195-1.1609c-0.12656-2.0421 0.77915-4.3814 2.1949-5.371 1.2724-0.88936 1.547-0.27885 1.075 2.3904-0.42182 2.3853-0.3652 3.1117 0.28999 3.7189 0.55853 0.51766 1.3696 0.57025 2.573 0.16715 1.2424-0.41618 3.1634-2.1698 2.9272-2.8082-0.12448-0.33646-0.27214-0.21928-1.0147 0.37863-0.87145 0.70164-1.4648 0.68089-1.8052 0.29078-0.2473-0.28344-0.23962-0.45753 0.15075-2.08 0.28284-1.1755 0.53833-2.0238 0.54318-2.9583 0.0066-1.481-0.18837-2.0911-1.5952-2.3043-1.0753-0.15147-2.6698 0.15364-3.9503 1.0674-0.39282 0.28033-0.74746 0.47515-0.78807 0.43304-0.04061-0.04212 0.16819-1.459 0.46399-3.0155 0.2958-1.5565 0.53792-3.021 0.53792-3.2542 0-0.43096-0.59663-1.1159-2.3494-2.6976-0.35138-0.31711-0.54206-0.49962-0.85713-0.57218z" opacity=".2" stroke-width=".363"/>
  <path id="path6" d="m14.181 16.563c-1.2158-0.30208-2.0324-0.70231-2.2449-2.0868-0.054-0.35185-0.13576-0.63973-0.18169-0.63973-0.04592 0-0.37928 0.14918-0.74078 0.33151-0.37256 0.18791-0.85584 0.26867-1.2112 0.24861-0.65431-0.03693-1.2447-0.5246-1.6433-1.2057-0.16082-0.2748-0.29265-0.58662-0.29296-0.82606-4.36e-4 -0.34545-0.0052-0.54326-0.38376-0.55615-0.60001 0.08925-0.97872-0.01221-1.2273-0.27513-0.21241-0.2213-0.28966-1.0257-0.28966-1.176 0-0.1503-0.45752-0.21241-0.72131-0.49597-0.32811-0.3527-0.49437-0.50034-0.08608-0.50148 1.6911 0.12275 3.2668 0.33538 4.9716 0.34432 2.2395-0.018316 3.79-0.1523 5.9955-0.38166 0.20946 0.072742 0.73932 0.81359 0.82449 2.412 0.06911 1.2968-0.30204 2.1977-0.64741 3.8986-0.24061 1.029-1.244 1.0783-2.1213 0.90966z" fill="url(#linearGradient1135)" stroke-width=".363"/>
  <path id="path8" d="m16.126 9.3432c-2.2056 0.22936-3.7564 0.36312-5.9959 0.38144-1.7048-0.00892-3.2803-0.2211-4.9714-0.34386-0.34704 9.686e-4 -0.26943 0.11651-0.03971 0.36513 0.01423-4.981e-4 0.02374-0.00206 0.03971-0.0022 1.6911 0.12276 3.2666 0.33491 4.9714 0.34386 2.2395-0.01832 3.7904-0.15208 5.9959-0.38144 0.20946 0.072742 0.73867 0.81359 0.82384 2.412 3e-3 0.05818 7.62e-4 0.11204 0.0022 0.16874 0.0066-0.17191 0.0077-0.34725-0.0022-0.53174-0.08517-1.5984-0.61438-2.3392-0.82384-2.412z" fill="#fff" opacity=".2" stroke-width=".363"/>
  <path id="path10" d="m16.023 9.3396s0.21663 0.59785 0.29198 2.0056c0.06959 1.3001-0.08584 2.9799-0.43366 4.6851 0 0-0.13661 0.53006-0.66432 3.6932-0.21208 1.2685-0.42158 3.16-0.46554 4.0221-0.06908 1.3551-0.04021 1.6418 0.21251 2.116 0.37401 0.70187 1.3121 1.248 2.1156 1.2513l0.61961 0.0025-0.07195-1.1609c-0.12656-2.0421 0.77915-4.3814 2.1949-5.371 1.2724-0.88936 1.547-0.27885 1.075 2.3904-0.42182 2.3853-0.3652 3.1117 0.28999 3.7189 0.55853 0.51766 1.3696 0.57025 2.573 0.16715 1.2424-0.41618 3.1634-2.1698 2.9272-2.8082-0.12448-0.33646-0.27214-0.21928-1.0147 0.37862-0.87145 0.70164-1.4648 0.68089-1.8052 0.29078-0.2473-0.28344-0.23962-0.45753 0.15075-2.08 0.28284-1.1755 0.53833-2.0238 0.54318-2.9583 0.0066-1.481-0.18837-2.0911-1.5952-2.3043-1.0753-0.15147-2.6698 0.15364-3.9503 1.0674-0.39282 0.28033-0.74746 0.47515-0.78807 0.43303-0.04061-0.04212 0.16819-1.459 0.46399-3.0155 0.2958-1.5565 0.53792-3.021 0.53792-3.2542 0-0.43096-0.59663-1.1159-2.3494-2.6976-0.35138-0.3171-0.54206-0.49962-0.85713-0.57218z" fill="url(#linearGradient1181)" stroke-width=".363"/>
  <path id="path12" d="m16.023 9.3396s0.04549 0.14076 0.09996 0.39774c0.2569 0.086873 0.44619 0.25677 0.7572 0.53741 1.5718 1.4184 2.2097 2.1134 2.3255 2.5531 0.0091-0.07845 0.0241-0.18554 0.0241-0.21837 0-0.43096-0.59684-1.116-2.3496-2.6977-0.35138-0.31707-0.54209-0.49959-0.85716-0.57215zm0.30486 2.7899c-0.01194 1.1594-0.16498 2.5199-0.44666 3.9009 0 0-0.13661 0.52998-0.66432 3.6931-0.21208 1.2685-0.42114 3.16-0.4651 4.0221-0.02354 0.46184-0.02972 0.77318-0.02552 1.0365 0.0049-0.19653 0.01166-0.40058 0.02552-0.67354 0.04396-0.86209 0.25302-2.7536 0.4651-4.0221 0.52771-3.1631 0.66432-3.6931 0.66432-3.6931 0.31155-1.5274 0.46728-3.0319 0.44666-4.2639zm6.2122 5.2139c-1.0431-0.03058-2.4039 0.3029-3.5244 1.1025-0.36144 0.25793-0.67884 0.43446-0.76074 0.42965-0.02538 0.20804-0.03855 0.3545-0.02695 0.36655 0.04061 0.04212 0.39486-0.15286 0.78769-0.43319 1.2805-0.91381 2.8752-1.2185 3.9505-1.067 1.3222 0.2004 1.5709 0.76108 1.591 2.0561 0.0011-0.03835 0.0041-0.07624 0.0043-0.11486 0.0066-1.481-0.18835-2.091-1.5952-2.3042-0.13441-0.01893-0.27709-0.03108-0.4261-0.03545zm-1.4322 3.9732c-0.01843 0.42353-0.08926 0.97163-0.21057 1.6576-0.19196 1.0855-0.27914 1.8167-0.26162 2.3602 0.02223-0.50058 0.10974-1.1384 0.26162-1.9972 0.15994-0.90442 0.23184-1.5672 0.21057-2.0206zm5.3997 2.5495c-0.13892 0.0048-0.37106 0.19067-0.83519 0.56435-0.87145 0.70164-1.4647 0.68079-1.8051 0.29069-0.07752-0.08883-0.12611-0.17112-0.1496-0.28643-0.0425 0.35912 0.0118 0.49158 0.1496 0.64943 0.34037 0.3901 0.93364 0.41096 1.8051-0.29068 0.70487-0.56752 0.87292-0.69668 0.99471-0.42114 0.04134-0.12303 0.0522-0.233 0.01985-0.32046-0.04668-0.12618-0.09603-0.1886-0.17938-0.18575zm-8.8865 1.8831c-0.0053 0.191-0.0052 0.38133 0.0064 0.56861l0.04892 0.79761h0.02269l-0.0716-1.1606c-0.0043-0.06791-0.0044-0.13709-0.0064-0.20561z" fill="#fff" opacity=".2" stroke-width=".363"/>
 </g>
</svg>
