<?xml version="1.0" encoding="UTF-8"?>
<svg id="svg1610" width="128" height="128" version="1.1" viewBox="0 0 33.867 33.867" xmlns="http://www.w3.org/2000/svg" xmlns:cc="http://creativecommons.org/ns#" xmlns:dc="http://purl.org/dc/elements/1.1/" xmlns:rdf="http://www.w3.org/1999/02/22-rdf-syntax-ns#" xmlns:xlink="http://www.w3.org/1999/xlink">
 <defs id="defs1604">
  <linearGradient id="linearGradient1554" x1="16.939" x2="16.939" y1="31.611" y2="2.5199" gradientTransform="translate(.064315 -.017796)" gradientUnits="userSpaceOnUse">
   <stop id="stop822" stop-color="#757575" offset="0"/>
   <stop id="stop824" stop-color="#d2e8ef" offset="1"/>
  </linearGradient>
  <linearGradient id="linearGradient1528" x1="16.939" x2="16.939" y1="29.963" y2="4.8723" gradientTransform="translate(.064315 -.017796)" gradientUnits="userSpaceOnUse">
   <stop id="stop1522" stop-color="#29363c" offset="0"/>
   <stop id="stop1524" stop-color="#465156" offset="1"/>
  </linearGradient>
 </defs>
 <metadata id="metadata1607">
  <rdf:RDF>
   <cc:Work rdf:about="">
    <dc:format>image/svg+xml</dc:format>
    <dc:type rdf:resource="http://purl.org/dc/dcmitype/StillImage"/>
    <dc:title/>
   </cc:Work>
  </rdf:RDF>
 </metadata>
 <g id="layer1">
  <g id="g1702" transform="matrix(.97573 0 0 .97573 -65.684 -37.221)" fill="none" opacity=".295" stroke="#000" stroke-linecap="round" stroke-linejoin="round" stroke-opacity=".02">
   <rect id="rect1634" x="69.84" y="40.71" width="29.811" height="29.811" rx="6.6099" ry="6.6099" stroke-width=".1"/>
   <rect id="rect1638" x="69.84" y="40.71" width="29.811" height="29.811" rx="6.6099" ry="6.6099" stroke-width=".2"/>
   <rect id="rect1640" x="69.84" y="40.71" width="29.811" height="29.811" rx="6.6099" ry="6.6099" stroke-width=".3"/>
   <rect id="rect1642" x="69.84" y="40.71" width="29.811" height="29.811" rx="6.6099" ry="6.6099" stroke-width=".4"/>
   <rect id="rect1644" x="69.84" y="40.71" width="29.811" height="29.811" rx="6.6099" ry="6.6099" stroke-width=".5"/>
   <rect id="rect1646" x="69.84" y="40.71" width="29.811" height="29.811" rx="6.6099" ry="6.6099" stroke-width=".6"/>
   <rect id="rect1648" x="69.84" y="40.71" width="29.811" height="29.811" rx="6.6099" ry="6.6099" stroke-width=".7"/>
   <rect id="rect1650" x="69.84" y="40.71" width="29.811" height="29.811" rx="6.6099" ry="6.6099" stroke-width=".8"/>
   <rect id="rect1652" x="69.84" y="40.71" width="29.811" height="29.811" rx="6.6099" ry="6.6099"/>
   <rect id="rect1654" x="69.84" y="40.71" width="29.811" height="29.811" rx="6.6099" ry="6.6099" stroke-width="1.2"/>
   <rect id="rect1656" x="69.84" y="40.71" width="29.811" height="29.811" rx="6.6099" ry="6.6099" stroke-width="1.4"/>
   <rect id="rect1658" x="69.84" y="40.71" width="29.811" height="29.811" rx="6.6099" ry="6.6099" stroke-width="1.6"/>
   <rect id="rect1660" x="69.84" y="40.71" width="29.811" height="29.811" rx="6.6099" ry="6.6099" stroke-width="1.8"/>
   <rect id="rect1662" x="69.84" y="40.71" width="29.811" height="29.811" rx="6.6099" ry="6.6099" stroke-width="2"/>
   <rect id="rect1664" x="69.84" y="40.71" width="29.811" height="29.811" rx="6.6099" ry="6.6099" stroke-width="2.2"/>
   <rect id="rect1666" x="69.84" y="40.71" width="29.811" height="29.811" rx="6.6099" ry="6.6099" stroke-width="2.6"/>
   <rect id="rect1668" x="69.84" y="40.71" width="29.811" height="29.811" rx="6.6099" ry="6.6099" stroke-width="3"/>
   <rect id="rect1670" x="69.84" y="40.71" width="29.811" height="29.811" rx="6.6099" ry="6.6099" stroke-width="3.4"/>
   <rect id="rect1672" x="69.84" y="40.71" width="29.811" height="29.811" rx="6.6099" ry="6.6099" stroke-width="3.8"/>
   <rect id="rect1674" x="69.84" y="40.71" width="29.811" height="29.811" rx="6.6099" ry="6.6099" stroke-width="4.2"/>
   <rect id="rect1676" x="69.84" y="40.71" width="29.811" height="29.811" rx="6.6099" ry="6.6099" stroke-width="4.6"/>
   <rect id="rect1678" x="69.84" y="40.71" width="29.811" height="29.811" rx="6.6099" ry="6.6099" stroke-width="5"/>
  </g>
  <rect id="rect849" x="2.4606" y="2.5008" width="29.087" height="29.087" rx="6.4495" ry="6.4495" fill="url(#linearGradient1554)" stroke-linecap="round" stroke-linejoin="round" stroke-width="2.688"/>
  <g id="g1561" transform="translate(.064315 9.908)">
   <path id="path1557" d="m-0.053863 15.686h42.007" color="#000000" fill="none" stroke-width=".5"/>
  </g>
  <rect id="rect1560" x="2.8113" y="2.8832" width="28.388" height="28.388" rx="6.2944" ry="6.2944" fill="url(#linearGradient1528)" stroke="#000" stroke-linecap="round" stroke-linejoin="round" stroke-width=".054"/>
  <g id="g1574" transform="translate(38.306 6.8265)">
   <path id="path6053" d="m-31.816 7.5109v-0.70578l-0.17312-0.020356c-0.24365-0.028631-0.69855-0.16538-0.97488-0.29305-0.28067-0.12968-0.68721-0.3876-0.71175-0.45155-0.01378-0.035909 0.36041-0.64811 0.47157-0.77152 0.01309-0.014529 0.1516 0.046849 0.30779 0.13641 0.57622 0.3304 0.99032 0.45496 1.5125 0.45496 0.38486 0 0.6091-0.065084 0.76648-0.22246 0.23372-0.23372 0.23357-0.54363-3.6e-4 -0.75497-0.18602-0.16806-0.34873-0.25157-0.98835-0.50726-0.85237-0.34074-1.1143-0.48491-1.4075-0.77475-0.19369-0.19148-0.26027-0.28278-0.31653-0.43405-0.20296-0.54572-0.07888-1.111 0.33361-1.52 0.26883-0.2665 0.53073-0.38974 1.0918-0.51375l0.08877-0.019613v-1.2578h0.80708v1.2438l0.29862 0.071148c0.16424 0.039127 0.41484 0.12882 0.55688 0.19931 0.25488 0.12648 0.69409 0.45703 0.69409 0.52238 0 0.031876-0.54141 0.67518-0.56824 0.67518-7e-3 0-0.08174-0.049169-0.16613-0.10925-0.22109-0.15744-0.51478-0.2977-0.75323-0.35972-0.2862-0.074438-0.79417-0.054643-1.0017 0.039027-0.2813 0.12697-0.42656 0.44963-0.30674 0.68133 0.10017 0.19371 0.26603 0.28113 1.2949 0.68243 0.87577 0.3416 1.3 0.63893 1.5139 1.061 0.27571 0.54409 0.13018 1.2724-0.33909 1.6971-0.28593 0.25875-0.57771 0.39205-1.1345 0.51827l-0.08878 0.020121v1.4192h-0.80708z" fill="#59f56b" stroke-width=".035619"/>
   <rect id="rect6067" x="-27.62" y="-.14467" width="4.229" height="8.3289" fill="#0f741e" style="paint-order:normal"/>
  </g>
 </g>
</svg>
