<?xml version="1.0" encoding="UTF-8"?>
<svg id="svg1542" width="128" height="128" version="1.1" viewBox="0 0 33.867 33.867" xmlns="http://www.w3.org/2000/svg" xmlns:cc="http://creativecommons.org/ns#" xmlns:dc="http://purl.org/dc/elements/1.1/" xmlns:rdf="http://www.w3.org/1999/02/22-rdf-syntax-ns#" xmlns:xlink="http://www.w3.org/1999/xlink">
 <defs id="defs1536">
  <linearGradient id="linearGradient4677" x1="13.478" x2="4.3909" y1="30.914" y2="4.8062" gradientTransform="translate(.088039 -.03851)" gradientUnits="userSpaceOnUse">
   <stop id="stop4671" stop-color="#ff7d1e" offset="0"/>
   <stop id="stop4673" stop-color="#ffa53c" offset="1"/>
  </linearGradient>
  <linearGradient id="linearGradient1458" x1="17.202" x2="17.202" y1="28.288" y2="6.3047" gradientTransform="translate(.088037 -.03851)" gradientUnits="userSpaceOnUse">
   <stop id="stop1452" stop-color="#0d0d0d" offset="0"/>
   <stop id="stop1454" stop-color="#3c3c3c" offset="1"/>
  </linearGradient>
  <linearGradient id="linearGradient1466" x1="17.267" x2="17.267" y1="26.283" y2="7.6411" gradientTransform="translate(.088037 -.03851)" gradientUnits="userSpaceOnUse">
   <stop id="stop1460" stop-color="#343434" offset="0"/>
   <stop id="stop1462" stop-color="#0d0d0d" offset="1"/>
  </linearGradient>
 </defs>
 <metadata id="metadata1539">
  <rdf:RDF>
   <cc:Work rdf:about="">
    <dc:format>image/svg+xml</dc:format>
    <dc:type rdf:resource="http://purl.org/dc/dcmitype/StillImage"/>
   </cc:Work>
  </rdf:RDF>
 </metadata>
 <g id="layer1">
  <g id="g1702" transform="matrix(.97573 0 0 .97573 -65.66 -37.242)" fill="none" opacity=".295" stroke="#000" stroke-linecap="round" stroke-linejoin="round" stroke-opacity=".02">
   <rect id="rect1634" x="69.84" y="40.71" width="29.811" height="29.811" rx="6.6099" ry="6.6099" stroke-width=".1"/>
   <rect id="rect1638" x="69.84" y="40.71" width="29.811" height="29.811" rx="6.6099" ry="6.6099" stroke-width=".2"/>
   <rect id="rect1640" x="69.84" y="40.71" width="29.811" height="29.811" rx="6.6099" ry="6.6099" stroke-width=".3"/>
   <rect id="rect1642" x="69.84" y="40.71" width="29.811" height="29.811" rx="6.6099" ry="6.6099" stroke-width=".4"/>
   <rect id="rect1644" x="69.84" y="40.71" width="29.811" height="29.811" rx="6.6099" ry="6.6099" stroke-width=".5"/>
   <rect id="rect1646" x="69.84" y="40.71" width="29.811" height="29.811" rx="6.6099" ry="6.6099" stroke-width=".6"/>
   <rect id="rect1648" x="69.84" y="40.71" width="29.811" height="29.811" rx="6.6099" ry="6.6099" stroke-width=".7"/>
   <rect id="rect1650" x="69.84" y="40.71" width="29.811" height="29.811" rx="6.6099" ry="6.6099" stroke-width=".8"/>
   <rect id="rect1652" x="69.84" y="40.71" width="29.811" height="29.811" rx="6.6099" ry="6.6099"/>
   <rect id="rect1654" x="69.84" y="40.71" width="29.811" height="29.811" rx="6.6099" ry="6.6099" stroke-width="1.2"/>
   <rect id="rect1656" x="69.84" y="40.71" width="29.811" height="29.811" rx="6.6099" ry="6.6099" stroke-width="1.4"/>
   <rect id="rect1658" x="69.84" y="40.71" width="29.811" height="29.811" rx="6.6099" ry="6.6099" stroke-width="1.6"/>
   <rect id="rect1660" x="69.84" y="40.71" width="29.811" height="29.811" rx="6.6099" ry="6.6099" stroke-width="1.8"/>
   <rect id="rect1662" x="69.84" y="40.71" width="29.811" height="29.811" rx="6.6099" ry="6.6099" stroke-width="2"/>
   <rect id="rect1664" x="69.84" y="40.71" width="29.811" height="29.811" rx="6.6099" ry="6.6099" stroke-width="2.2"/>
   <rect id="rect1666" x="69.84" y="40.71" width="29.811" height="29.811" rx="6.6099" ry="6.6099" stroke-width="2.6"/>
   <rect id="rect1668" x="69.84" y="40.71" width="29.811" height="29.811" rx="6.6099" ry="6.6099" stroke-width="3"/>
   <rect id="rect1670" x="69.84" y="40.71" width="29.811" height="29.811" rx="6.6099" ry="6.6099" stroke-width="3.4"/>
   <rect id="rect1672" x="69.84" y="40.71" width="29.811" height="29.811" rx="6.6099" ry="6.6099" stroke-width="3.8"/>
   <rect id="rect1674" x="69.84" y="40.71" width="29.811" height="29.811" rx="6.6099" ry="6.6099" stroke-width="4.2"/>
   <rect id="rect1676" x="69.84" y="40.71" width="29.811" height="29.811" rx="6.6099" ry="6.6099" stroke-width="4.6"/>
   <rect id="rect1678" x="69.84" y="40.71" width="29.811" height="29.811" rx="6.6099" ry="6.6099" stroke-width="5"/>
  </g>
  <rect id="rect849" x="2.4843" y="2.4801" width="29.087" height="29.087" rx="6.4495" ry="6.4495" fill="url(#linearGradient4677)" stroke-linecap="round" stroke-linejoin="round" stroke-width="2.688"/>
  <rect id="rect1448" x="4.6721" y="5.0423" width="24.712" height="23.963" rx="4.0601" ry="4.0601" fill="url(#linearGradient1458)"/>
  <rect id="rect1450" x="7.0128" y="7.312" width="20.031" height="19.424" rx="2.6569" ry="2.6569" fill="url(#linearGradient1466)"/>
  <path id="path2107-0" d="m10.285 21.697h5.7452v1.149h-5.7452z" fill="#f9f9f9" stroke-width=".48941"/>
  <g id="g60" transform="matrix(1.7828 0 0 1.7828 2.1055 1.6608)" fill="#f9f9f9" font-family="monospace" font-weight="bold" letter-spacing="0px" word-spacing="0px" aria-label="GO">
   <g id="g50" transform="matrix(1.1868 0 0 1.0041 -.97716 -.0054452)" stroke-width=".01292" style="font-variant-caps:normal;font-variant-east-asian:normal;font-variant-ligatures:normal;font-variant-numeric:normal" aria-label="J">
    <g id="g48" fill="#f9f9f9" shape-rendering="auto">
     <path id="path44" d="m6.3035 8.8866c0.72908 0 1.0501-0.52274 1.0501-1.1601v-2.3019h-0.67864v2.2468c0 0.46771-0.1559 0.6282-0.45395 0.6282-0.19259 0-0.37142-0.10546-0.50439-0.35308l-0.46313 0.34391c0.22468 0.39434 0.55483 0.5961 1.0501 0.5961z" color="#000000" color-rendering="auto" dominant-baseline="auto" image-rendering="auto" solid-color="#000000" stop-color="#000000" style="font-feature-settings:normal;font-variant-alternates:normal;font-variant-caps:normal;font-variant-east-asian:normal;font-variant-ligatures:normal;font-variant-numeric:normal;font-variant-position:normal;font-variation-settings:normal;inline-size:0;isolation:auto;mix-blend-mode:normal;shape-margin:0;shape-padding:0;text-decoration-color:#000000;text-decoration-line:none;text-decoration-style:solid;text-indent:0;text-orientation:mixed;text-transform:none;white-space:normal"/>
     <path id="path46" d="m6.6582 5.4082v2.2637c0 0.23208-0.038511 0.38435-0.11133 0.47852-0.072817 0.094169-0.18002 0.13281-0.32617 0.13281-0.18675 0-0.35919-0.099738-0.49023-0.34375l-0.00781-0.017578-0.49023 0.36328 0.00781 0.013672c0.22686 0.39816 0.56293 0.60352 1.0625 0.60352 0.36836 0 0.63812-0.13166 0.8125-0.3457s0.25391-0.50871 0.25391-0.83008v-2.3184h-0.71094zm0.033203 0.033203h0.64648v2.2852c0 0.316-0.079672 0.60193-0.24805 0.80859-0.16838 0.20667-0.42639 0.33594-0.78711 0.33594-0.48508 0-0.80121-0.19866-1.0234-0.58008l0.43945-0.32617c0.13379 0.23594 0.30931 0.35156 0.50195 0.35156 0.1519 0 0.27191-0.043481 0.35156-0.14648 0.079648-0.103 0.11914-0.26241 0.11914-0.49805v-2.2305z" color="#000000" color-rendering="auto" dominant-baseline="auto" image-rendering="auto" solid-color="#000000" stop-color="#000000" style="font-feature-settings:normal;font-variant-alternates:normal;font-variant-caps:normal;font-variant-east-asian:normal;font-variant-ligatures:normal;font-variant-numeric:normal;font-variant-position:normal;font-variation-settings:normal;inline-size:0;isolation:auto;mix-blend-mode:normal;shape-margin:0;shape-padding:0;text-decoration-color:#000000;text-decoration-line:none;text-decoration-style:solid;text-indent:0;text-orientation:mixed;text-transform:none;white-space:normal"/>
    </g>
   </g>
   <g id="g58" transform="matrix(1.1144 0 0 1 -1.2678 0)" stroke-width=".013164" style="font-variant-caps:normal;font-variant-east-asian:normal;font-variant-ligatures:normal;font-variant-numeric:normal" aria-label="B">
    <g id="g56" fill="#f9f9f9" shape-rendering="auto">
     <path id="path52" d="m8.4856 8.8865h1.2334c0.76155 0 1.3409-0.32237 1.3409-1.0185 0-0.46721-0.27565-0.72885-0.64942-0.81762v-0.02336c0.29434-0.10279 0.47188-0.42983 0.47188-0.74754 0-0.64475-0.54196-0.85499-1.2521-0.85499h-1.1447zm0.69147-2.0511v-0.87835h0.41114c0.41582 0 0.62139 0.12147 0.62139 0.42516 0 0.27565-0.19156 0.45319-0.63073 0.45319zm0 1.5184v-1.0092h0.48123c0.47655 0 0.72885 0.14484 0.72885 0.48123 0 0.35975-0.25697 0.52795-0.72885 0.52795z" color="#000000" color-rendering="auto" dominant-baseline="auto" image-rendering="auto" solid-color="#000000" stop-color="#000000" style="font-feature-settings:normal;font-variant-alternates:normal;font-variant-caps:normal;font-variant-east-asian:normal;font-variant-ligatures:normal;font-variant-numeric:normal;font-variant-position:normal;font-variation-settings:normal;inline-size:0;isolation:auto;mix-blend-mode:normal;shape-margin:0;shape-padding:0;text-decoration-color:#000000;text-decoration-line:none;text-decoration-style:solid;text-indent:0;text-orientation:mixed;text-transform:none;white-space:normal"/>
     <path id="path54" d="m8.4688 5.4348v3.4971h1.251c0.38336 0 0.72168-0.079832 0.96566-0.25021 0.244-0.17039 0.39292-0.43302 0.39292-0.78583 0-0.23695-0.07129-0.42298-0.18961-0.56103-0.11549-0.13474-0.27739-0.21983-0.46133-0.26585v-0.013684c0.2916-0.11256 0.47306-0.43136 0.47306-0.74869 0-0.32714-0.13902-0.54852-0.3675-0.68417-0.22848-0.13566-0.54419-0.18766-0.90116-0.18766h-1.1631zm0.033231 0.033232h1.1299c0.3538 0 0.66315 0.050922 0.88356 0.1818 0.22042 0.13087 0.35382 0.33865 0.35382 0.65681 0 0.31201-0.17678 0.633-0.46329 0.73305l-0.0099 0.00391v0.046915l0.01173 0.00391c0.18447 0.043811 0.34427 0.12994 0.45742 0.26194 0.11315 0.132 0.17984 0.30886 0.17984 0.53952 0 0.34392-0.1408 0.59334-0.37727 0.75846-0.23647 0.16513-0.56924 0.2463-0.94808 0.2463h-1.2177v-3.4326zm0.65876 0.50043v0.91094h0.41832c0.22193 0 0.38381-0.045106 0.49065-0.12706 0.10685-0.081956 0.15834-0.20043 0.15834-0.34209 1e-6 -0.15558-0.05446-0.26888-0.16225-0.34013-0.10779-0.071255-0.26733-0.10165-0.47697-0.10165h-0.4281zm0.033231 0.031277h0.39487c0.20653 0 0.36026 0.030264 0.45937 0.095785 0.09912 0.065522 0.1466 0.16636 0.1466 0.31472 0 0.13423-0.04575 0.24082-0.14465 0.31668-0.098902 0.075861-0.25349 0.12119-0.4711 0.12119h-0.3851v-0.84838zm-0.033231 1.3567v1.0419h0.49847c0.23804 0 0.42383-0.040992 0.55125-0.13097 0.12742-0.089981 0.19352-0.22862 0.19352-0.41246 0-0.17235-0.06465-0.3002-0.19157-0.38119-0.12693-0.080989-0.31311-0.11729-0.5532-0.11729h-0.49848zm0.033231 0.033231h0.46524c0.23686 0 0.41704 0.035762 0.53562 0.11142 0.11857 0.075661 0.17789 0.18948 0.17789 0.35382 0 0.17622-0.0606 0.30089-0.17984 0.3851-0.11924 0.084211-0.29942 0.12706-0.53366 0.12706h-0.46524v-0.97739z" color="#000000" color-rendering="auto" dominant-baseline="auto" image-rendering="auto" solid-color="#000000" stop-color="#000000" stroke-width=".013175" style="font-feature-settings:normal;font-variant-alternates:normal;font-variant-caps:normal;font-variant-east-asian:normal;font-variant-ligatures:normal;font-variant-numeric:normal;font-variant-position:normal;font-variation-settings:normal;inline-size:0;isolation:auto;mix-blend-mode:normal;shape-margin:0;shape-padding:0;text-decoration-color:#000000;text-decoration-line:none;text-decoration-style:solid;text-indent:0;text-orientation:mixed;text-transform:none;white-space:normal"/>
    </g>
   </g>
  </g>
 </g>
</svg>
