<?xml version="1.0" encoding="UTF-8"?>
<svg id="svg1443" width="128" height="128" version="1.1" viewBox="0 0 33.867 33.867" xmlns="http://www.w3.org/2000/svg" xmlns:cc="http://creativecommons.org/ns#" xmlns:dc="http://purl.org/dc/elements/1.1/" xmlns:rdf="http://www.w3.org/1999/02/22-rdf-syntax-ns#" xmlns:xlink="http://www.w3.org/1999/xlink">
 <defs id="defs1437">
  <radialGradient id="radialGradient963" cx="16.951" cy="2.5104" r="14.544" gradientTransform="matrix(7.1386 0 0 2.2345 -104.06 -3.0991)" gradientUnits="userSpaceOnUse">
   <stop id="stop957" stop-color="#db48ff" offset="0"/>
   <stop id="stop959" stop-color="#8427df" stop-opacity=".96863" offset="1"/>
  </radialGradient>
  <linearGradient id="linearGradient896" x1="5.1163" x2="5.1163" y1="16.304" y2="34.984" gradientUnits="userSpaceOnUse">
   <stop id="stop890" stop-color="#fbfbfb" offset="0"/>
   <stop id="stop892" stop-color="#a634ec" stop-opacity=".98039" offset="1"/>
  </linearGradient>
 </defs>
 <metadata id="metadata1440">
  <rdf:RDF>
   <cc:Work rdf:about="">
    <dc:format>image/svg+xml</dc:format>
    <dc:type rdf:resource="http://purl.org/dc/dcmitype/StillImage"/>
    <dc:title/>
   </cc:Work>
  </rdf:RDF>
 </metadata>
 <g id="layer1">
  <g id="g1702" transform="matrix(.97573 0 0 .97573 -65.737 -37.183)" fill="none" opacity=".295" stroke="#000" stroke-linecap="round" stroke-linejoin="round" stroke-opacity=".02">
   <rect id="rect1634" x="69.84" y="40.71" width="29.811" height="29.811" rx="6.6099" ry="6.6099" stroke-width=".1"/>
   <rect id="rect1638" x="69.84" y="40.71" width="29.811" height="29.811" rx="6.6099" ry="6.6099" stroke-width=".2"/>
   <rect id="rect1640" x="69.84" y="40.71" width="29.811" height="29.811" rx="6.6099" ry="6.6099" stroke-width=".3"/>
   <rect id="rect1642" x="69.84" y="40.71" width="29.811" height="29.811" rx="6.6099" ry="6.6099" stroke-width=".4"/>
   <rect id="rect1644" x="69.84" y="40.71" width="29.811" height="29.811" rx="6.6099" ry="6.6099" stroke-width=".5"/>
   <rect id="rect1646" x="69.84" y="40.71" width="29.811" height="29.811" rx="6.6099" ry="6.6099" stroke-width=".6"/>
   <rect id="rect1648" x="69.84" y="40.71" width="29.811" height="29.811" rx="6.6099" ry="6.6099" stroke-width=".7"/>
   <rect id="rect1650" x="69.84" y="40.71" width="29.811" height="29.811" rx="6.6099" ry="6.6099" stroke-width=".8"/>
   <rect id="rect1652" x="69.84" y="40.71" width="29.811" height="29.811" rx="6.6099" ry="6.6099"/>
   <rect id="rect1654" x="69.84" y="40.71" width="29.811" height="29.811" rx="6.6099" ry="6.6099" stroke-width="1.2"/>
   <rect id="rect1656" x="69.84" y="40.71" width="29.811" height="29.811" rx="6.6099" ry="6.6099" stroke-width="1.4"/>
   <rect id="rect1658" x="69.84" y="40.71" width="29.811" height="29.811" rx="6.6099" ry="6.6099" stroke-width="1.6"/>
   <rect id="rect1660" x="69.84" y="40.71" width="29.811" height="29.811" rx="6.6099" ry="6.6099" stroke-width="1.8"/>
   <rect id="rect1662" x="69.84" y="40.71" width="29.811" height="29.811" rx="6.6099" ry="6.6099" stroke-width="2"/>
   <rect id="rect1664" x="69.84" y="40.71" width="29.811" height="29.811" rx="6.6099" ry="6.6099" stroke-width="2.2"/>
   <rect id="rect1666" x="69.84" y="40.71" width="29.811" height="29.811" rx="6.6099" ry="6.6099" stroke-width="2.6"/>
   <rect id="rect1668" x="69.84" y="40.71" width="29.811" height="29.811" rx="6.6099" ry="6.6099" stroke-width="3"/>
   <rect id="rect1670" x="69.84" y="40.71" width="29.811" height="29.811" rx="6.6099" ry="6.6099" stroke-width="3.4"/>
   <rect id="rect1672" x="69.84" y="40.71" width="29.811" height="29.811" rx="6.6099" ry="6.6099" stroke-width="3.8"/>
   <rect id="rect1674" x="69.84" y="40.71" width="29.811" height="29.811" rx="6.6099" ry="6.6099" stroke-width="4.2"/>
   <rect id="rect1676" x="69.84" y="40.71" width="29.811" height="29.811" rx="6.6099" ry="6.6099" stroke-width="4.6"/>
   <rect id="rect1678" x="69.84" y="40.71" width="29.811" height="29.811" rx="6.6099" ry="6.6099" stroke-width="5"/>
  </g>
  <rect id="rect849" x="2.4074" y="2.5392" width="29.087" height="29.087" rx="6.4495" ry="6.4495" fill="url(#radialGradient963)" stroke-linecap="round" stroke-linejoin="round" stroke-width="2.6877"/>
  <g id="g913" fill="#0b0043" opacity=".3193" stroke-width=".49312">
   <path id="path898" d="m17.134 11.368c-1.3507 4.1915-3.8569 10.003-11.835 4.4381 3.2073 6.5338 7.7745 8.3314 11.835 3.945 3.6401 4.4116 8.9742 2.6241 11.835-3.945-7.7578 5.5652-10.19-0.24656-11.835-4.4381z" fill-opacity=".19974"/>
   <path id="path900" d="m17.442 11.951c-1.3507 4.1915-3.8569 10.003-11.835 4.4381 3.2073 6.5338 7.7745 8.3314 11.835 3.945 3.6401 4.4116 8.9742 2.6241 11.835-3.945-7.7578 5.5652-10.19-0.24656-11.835-4.4381z" fill-opacity=".10663"/>
   <path id="path902" d="m17.697 12.652c-1.3507 4.1915-3.8569 10.003-11.835 4.4381 3.2073 6.5338 7.7745 8.3314 11.835 3.945 3.6401 4.4116 8.9742 2.6241 11.835-3.945-7.7578 5.5652-10.19-0.24656-11.835-4.4381z" fill-opacity=".075657"/>
   <path id="path904" d="m18.041 13.204c-1.3507 4.1915-3.8569 10.003-11.835 4.4381 3.2073 6.5338 7.7745 8.3314 11.835 3.945 3.6401 4.4116 8.9742 2.6241 11.835-3.945-7.7578 5.5652-10.19-0.24656-11.835-4.4381z" fill-opacity=".051857"/>
   <path id="path906" d="m18.041 13.204c-1.3507 4.1915-3.8569 10.003-11.835 4.4381 3.2073 6.5338 7.7745 8.3314 11.835 3.945 3.6401 4.4116 8.9742 2.6241 11.835-3.945-7.7578 5.5652-10.19-0.24656-11.835-4.4381z" fill-opacity=".051857"/>
  </g>
  <path id="path10" d="m16.951 10.902c-1.3507 4.1915-3.8569 10.003-11.835 4.4381 3.2073 6.5338 7.7745 8.3314 11.835 3.945 3.6401 4.4116 8.9742 2.6241 11.835-3.945-7.7578 5.5652-10.19-0.24656-11.835-4.4381z" fill="url(#linearGradient896)" stroke-width=".49312"/>
 </g>
</svg>
