<svg xmlns:osb="http://www.openswatchbook.org/uri/2009/osb" xmlns="http://www.w3.org/2000/svg" xmlns:xlink="http://www.w3.org/1999/xlink" id="svg6" version="1.1" viewBox="0 0 33.867 33.867" height="128" width="128"><defs id="defs2"><linearGradient id="linearGradient14853"><stop id="stop14849" offset="0" style="stop-color:#0b1621;stop-opacity:1"/><stop id="stop14851" offset="1" style="stop-color:#162830;stop-opacity:1"/></linearGradient><linearGradient id="lgrad" x1="32" y1="32" x2="32" y2="992" gradientUnits="userSpaceOnUse" gradientTransform="translate(0 -896)"><stop offset="0%" stop-color="#f8f8f8" id="stop2"/><stop offset="100%" stop-color="#ccc" id="stop4"/></linearGradient><linearGradient id="k" gradientUnits="userSpaceOnUse" x1="-350.657" x2="-376.363" y1="-73.891" y2="-319.058"><stop offset="0" stop-color="#83a3d4" id="stop50"/><stop offset="1" stop-color="#6bb5e3" id="stop52"/></linearGradient><linearGradient id="i" gradientUnits="userSpaceOnUse" x1="-206.77" x2="10.512" y1="-12.925" y2="-156.887"><stop offset="0" stop-color="#70c2bd" id="stop40"/><stop offset="1" stop-color="#67c381" id="stop42"/></linearGradient><linearGradient id="e" gradientUnits="userSpaceOnUse" x1="134.565" x2="148.514" y1="117.301" y2="-149.19"><stop offset="0" stop-color="#faaa32" id="stop20"/><stop offset="1" stop-color="#fdc22b" id="stop22"/></linearGradient><linearGradient id="c" gradientUnits="userSpaceOnUse" x1="-146.054" x2="123.358" y1="144.9" y2="144.9"><stop offset="0" stop-color="#a0cf63" id="stop10"/><stop offset="1" stop-color="#c4da45" id="stop12"/></linearGradient><linearGradient id="m" gradientUnits="userSpaceOnUse" x1="206.714" x2="28.495" y1="-12.741" y2="-150.012"><stop offset="0" stop-color="#b28cc0" id="stop60"/><stop offset="1" stop-color="#9a8ec4" id="stop62"/></linearGradient><linearGradient id="q" gradientUnits="userSpaceOnUse" x1="189.942" x2="-19.618" y1="147.053" y2="76.406"><stop offset="0" stop-color="#f48155" id="stop80"/><stop offset="1" stop-color="#f16168" id="stop82"/></linearGradient><linearGradient id="l" gradientUnits="userSpaceOnUse" x1="116.504" x2="21.156" y1="308.303" y2="34.18"><stop offset="0" stop-color="#735194" id="stop55"/><stop offset="1" stop-color="#525da3" id="stop57"/></linearGradient><linearGradient id="j" gradientUnits="userSpaceOnUse" x1="30.131" x2="123.328" y1="111.502" y2="-107.167"><stop offset="0" stop-color="#416db9" id="stop45"/><stop offset="1" stop-color="#337e8d" id="stop47"/></linearGradient><linearGradient id="h" gradientUnits="userSpaceOnUse" x1="-103.67" x2="205.551" y1="133.122" y2=".072"><stop offset="0" stop-color="#2e9274" id="stop35"/><stop offset="1" stop-color="#469d3c" id="stop37"/></linearGradient><linearGradient id="f" gradientUnits="userSpaceOnUse" x1="26.978" x2="146.81" y1="120.227" y2="-100.49"><stop offset="0" stop-color="#ec4001" id="stop25"/><stop offset="1" stop-color="#fb6f01" id="stop27"/></linearGradient><linearGradient id="d" gradientUnits="userSpaceOnUse" x1="-14.299" x2="309.397" y1="73.5" y2="73.5"><stop offset="0" stop-color="#58a920" id="stop15"/><stop offset="1" stop-color="#98b811" id="stop17"/></linearGradient><linearGradient id="o" gradientUnits="userSpaceOnUse" x1="-123.119" x2="145.987" y1="144.897" y2="144.897"><stop offset="0" stop-color="#d287af" id="stop70"/><stop offset="1" stop-color="#e07993" id="stop72"/></linearGradient><linearGradient id="p" gradientUnits="userSpaceOnUse" x1="-205.78" x2="117.819" y1="-71.696" y2="-71.696"><stop offset="0" stop-color="#bd090f" id="stop75"/><stop offset="1" stop-color="#e11f07" id="stop77"/></linearGradient><linearGradient id="n" gradientUnits="userSpaceOnUse" x1=".176" x2="-308.72" y1="-14.583" y2="-143.711"><stop offset="0" stop-color="#c23857" id="stop65"/><stop offset="1" stop-color="#914475" id="stop67"/></linearGradient><linearGradient id="g" gradientUnits="userSpaceOnUse" x1="41.41" x2="117.317" y1="108.525" y2="319.108"><stop offset="0" stop-color="#e69e08" id="stop30"/><stop offset="1" stop-color="#cbc507" id="stop32"/></linearGradient><linearGradient gradientUnits="userSpaceOnUse" y2="4.734" x2="15.132" y1="27.778" x1="15.132" id="linearGradient14855" xlink:href="#linearGradient14853"/><linearGradient id="linearGradient6088" osb:paint="solid"><stop style="stop-color:#51b3e3;stop-opacity:1" offset="0" id="stop6086"/></linearGradient><linearGradient id="linearGradient6987" osb:paint="solid"><stop style="stop-color:#77d2fb;stop-opacity:1" offset="0" id="stop6985"/></linearGradient><linearGradient id="linearGradient3673"><stop style="stop-color:#0c0d0d;stop-opacity:1" offset="0" id="stop3675"/><stop id="stop3677" offset=".568" style="stop-color:#333637;stop-opacity:1"/><stop style="stop-color:#1a1e1f;stop-opacity:1" offset="1" id="stop3679"/></linearGradient><linearGradient id="linearGradient3591"><stop id="stop3593" offset="0" style="stop-color:#403f3c;stop-opacity:1"/><stop style="stop-color:#7d898d;stop-opacity:1" offset=".568" id="stop3669"/><stop id="stop3595" offset="1" style="stop-color:#fdffff;stop-opacity:1"/></linearGradient><linearGradient id="linearGradient3575"><stop id="stop3577" offset="0" style="stop-color:#20211f;stop-opacity:1"/><stop id="stop3579" offset="1" style="stop-color:#393e3f;stop-opacity:1"/></linearGradient><linearGradient id="linearGradient3866"><stop style="stop-color:#000;stop-opacity:.52083331" offset="0" id="stop3868"/><stop style="stop-color:#2883c3;stop-opacity:0" offset="1" id="stop3870"/></linearGradient><linearGradient id="linearGradient3874"><stop style="stop-color:#000d0e;stop-opacity:.84105963" offset="0" id="stop3876"/><stop style="stop-color:#000;stop-opacity:0" offset="1" id="stop3878"/></linearGradient><linearGradient id="linearGradient5048-8"><stop offset="0" style="stop-color:#000;stop-opacity:0" id="stop5050-4"/><stop offset=".5" style="stop-color:#000;stop-opacity:1" id="stop5056-7"/><stop offset="1" style="stop-color:#000;stop-opacity:0" id="stop5052-0-1"/></linearGradient><linearGradient id="linearGradient5060-29"><stop offset="0" style="stop-color:#000;stop-opacity:1" id="stop5062-9"/><stop offset="1" style="stop-color:#000;stop-opacity:0" id="stop5064-08"/></linearGradient><linearGradient id="linearGradient4050-7"><stop id="stop4052-6" offset="0" style="stop-color:#fff;stop-opacity:.66929132"/><stop id="stop4054-0" offset="1" style="stop-color:#fff;stop-opacity:0"/></linearGradient><linearGradient gradientUnits="userSpaceOnUse" id="linearGradient4132-3" x1="-5.32" x2="-50.521" gradientTransform="matrix(0 -1 -1 0 0 0)"><stop offset="0" stop-color="#f65454" id="stop29-7"/><stop offset="1" stop-color="#740000" id="stop31-0"/></linearGradient><linearGradient gradientUnits="userSpaceOnUse" id="linearGradient3298-8-9" x1="-39.333" x2="-1.643" gradientTransform="matrix(0 -1 -1 0 0 0)"><stop offset="0" stop-color="#791235" id="stop24-3" style="stop-color:#5f0e0e;stop-opacity:1"/><stop offset="1" stop-color="#dd3b27" id="stop26-3"/></linearGradient><linearGradient id="linearGradient8265-821-176-38-919-66-249-7-7"><stop offset="0" style="stop-color:#fff;stop-opacity:1" id="stop2687-1-9"/><stop offset="1" style="stop-color:#fff;stop-opacity:0" id="stop2689-5-4"/></linearGradient><linearGradient id="linearGradient3924"><stop offset="0" style="stop-color:#fff;stop-opacity:1" id="stop3926"/><stop id="stop3928" style="stop-color:#fff;stop-opacity:.23529412" offset=".063"/><stop offset=".951" style="stop-color:#fff;stop-opacity:.15686275" id="stop3930"/><stop offset="1" style="stop-color:#fff;stop-opacity:.39215687" id="stop3932"/></linearGradient><linearGradient id="linearGradient3688-166-749"><stop offset="0" style="stop-color:#181818;stop-opacity:1" id="stop2883"/><stop offset="1" style="stop-color:#181818;stop-opacity:0" id="stop2885"/></linearGradient><linearGradient id="linearGradient3702-501-757"><stop offset="0" style="stop-color:#181818;stop-opacity:0" id="stop2895"/><stop offset=".5" style="stop-color:#181818;stop-opacity:1" id="stop2897"/><stop offset="1" style="stop-color:#181818;stop-opacity:0" id="stop2899"/></linearGradient><linearGradient id="linearGradient3895-9-0-3"><stop offset="0" style="stop-color:#dc6838;stop-opacity:1" id="stop3897-0-5-7"/><stop offset="1" style="stop-color:#ba3d12;stop-opacity:1" id="stop3899-8-7-06"/></linearGradient><linearGradient y2="1044.377" x2="28.531" y1="994.819" x1="28.531" gradientTransform="translate(12 -100)" gradientUnits="userSpaceOnUse" id="linearGradient4195" xlink:href="#linearGradient3895-9-0-3"/><linearGradient id="linearGradient4067-0-2"><stop id="stop4069-2-9" offset="0" style="stop-color:#acffe3;stop-opacity:1"/><stop id="stop4071-8-9" offset="1" style="stop-color:#fff;stop-opacity:1"/></linearGradient><linearGradient id="linearGradient4644-104-3-3-6-2"><stop id="stop5237-6-5-1-7" style="stop-color:#51c3cc;stop-opacity:1" offset="0"/><stop id="stop5239-4-6-4-8" style="stop-color:#b3efec;stop-opacity:1" offset="1"/></linearGradient><linearGradient gradientUnits="userSpaceOnUse" id="linearGradient4132-3-9" x1="-5.32" x2="-50.521" gradientTransform="matrix(0 -1 -1 0 0 0)"><stop offset="0" stop-color="#f65454" id="stop29-7-1"/><stop offset="1" stop-color="#740000" id="stop31-0-4"/></linearGradient><linearGradient gradientUnits="userSpaceOnUse" id="linearGradient3298-8-9-0" x1="-39.333" x2="-1.643" gradientTransform="matrix(0 -1 -1 0 0 0)"><stop offset="0" stop-color="#791235" id="stop24-3-4" style="stop-color:#5f0e0e;stop-opacity:1"/><stop offset="1" stop-color="#dd3b27" id="stop26-3-7"/></linearGradient><linearGradient gradientUnits="userSpaceOnUse" y2="1.852" y1="15.081" x2="7.937" x1="7.937" id="linearGradient862" gradientTransform="translate(-32.372 10.067) scale(1.00002)"><stop id="stop4704" offset="0" stop-color="#2858e4"/><stop id="stop4706" offset="1" stop-color="#5ab9f4"/></linearGradient><path d="M125 104c21.54 0 39-17.46 39-39s-17.46-39-39-39-39 17.46-39 39 17.46 39 39 39zm0 26c-35.899 0-65-29.101-65-65S89.101 0 125 0s65 29.101 65 65-29.101 65-65 65z" id="path-3"/><path id="path-4" d="m0 75 129 90.787v35L0 110z"/><path id="path-5" d="M22 65h27v120H22z"/><path d="M40.74 1.31A21.591 21.591 0 0 1 45 14.2c0 12.155-10.074 22.01-22.5 22.01S0 26.354 0 14.2C0 9.385 1.58 4.932 4.26 1.31 6.447 2.922 9.553 3.928 13 3.928c3.866 0 7.305-1.267 9.5-3.234 2.195 1.967 5.634 3.234 9.5 3.234 3.446 0 6.552-1.006 8.74-2.618z" id="path-9"/><path id="B" d="M8 184h83.77l38.88-38.88V116h-69.3L8 24.48z"/><path id="F" d="M8 184h83.77l38.88-38.88V116h-69.3L8 24.48z"/><path id="I" d="m96 56 34.65 60-38.88 68H184V56z"/><path id="L" d="M21.97 8v40.34L61.36 116 96 56h88V8z"/><clipPath clipPathUnits="userSpaceOnUse" id="clipPath4178"><circle r="225" cy="222.68" cx="204.317" id="circle4180" style="opacity:1;fill:#1c5266;fill-opacity:.19099205;fill-rule:evenodd;stroke:none;stroke-width:3.33392239;stroke-linecap:butt;stroke-linejoin:miter;stroke-miterlimit:4;stroke-dasharray:none;stroke-dashoffset:0;stroke-opacity:1"/></clipPath><clipPath clipPathUnits="userSpaceOnUse" id="clipPath4178-1"><circle r="225" cy="222.68" cx="204.317" id="circle4180-7" style="opacity:1;fill:#1c5266;fill-opacity:.19099205;fill-rule:evenodd;stroke:none;stroke-width:3.33392239;stroke-linecap:butt;stroke-linejoin:miter;stroke-miterlimit:4;stroke-dasharray:none;stroke-dashoffset:0;stroke-opacity:1"/></clipPath><clipPath clipPathUnits="userSpaceOnUse" id="clipPath4178-3"><circle r="225" cy="222.68" cx="204.317" id="circle4180-8" style="opacity:1;fill:#1c5266;fill-opacity:.19099205;fill-rule:evenodd;stroke:none;stroke-width:3.33392239;stroke-linecap:butt;stroke-linejoin:miter;stroke-miterlimit:4;stroke-dasharray:none;stroke-dashoffset:0;stroke-opacity:1"/></clipPath><clipPath clipPathUnits="userSpaceOnUse" id="clipPath4178-1-9"><circle r="225" cy="222.68" cx="204.317" id="circle4180-7-3" style="opacity:1;fill:#1c5266;fill-opacity:.19099205;fill-rule:evenodd;stroke:none;stroke-width:3.33392239;stroke-linecap:butt;stroke-linejoin:miter;stroke-miterlimit:4;stroke-dasharray:none;stroke-dashoffset:0;stroke-opacity:1"/></clipPath><clipPath clipPathUnits="userSpaceOnUse" id="clipPath1181"><path id="path1183" d="M73.169 2.073c-4.756 0-8.678 3.913-8.678 8.67 0 1.597.45 3.093 1.217 4.383L55.192 29.332a13.616 13.616 0 0 0-5.803-1.31c-2.309 0-4.489.581-6.404 1.6.282-.651.25-1.44-.349-2.179l-2.728-3.377a2.178 2.178 0 0 0-1.7-.84c-1.854-.016-2.877 2.145-1.69 3.568l2.73 3.39c.469.58 1.04.826 1.601.84-2.987 2.38-4.975 5.97-5.207 10.007l-21.167 2.504c-1.142-1.81-3.15-3.033-5.426-3.033-3.521 0-6.416 2.904-6.416 6.425 0 3.52 2.895 6.415 6.416 6.415 2.369 0 4.436-1.324 5.55-3.254L36.83 47.46c2.17 4.79 6.99 8.156 12.56 8.156 3.671 0 7.017-1.47 9.498-3.84l2.683 3.331c1.827 2.259 5.214-.481 3.387-2.74l-2.729-3.378a2.175 2.175 0 0 0-.728-.598 13.664 13.664 0 0 0 1.683-6.573c0-2.954-.952-5.695-2.554-7.948l10.825-14.635a8.592 8.592 0 0 0 1.714.174c4.756 0 8.667-3.91 8.667-8.667 0-4.756-3.91-8.669-8.667-8.669zM27.571 7.438a6.156 6.156 0 0 0-6.154 6.154 6.156 6.156 0 0 0 6.154 6.157 6.156 6.156 0 0 0 2.383-.486l2.588 3.212c1.827 2.259 5.216-.481 3.39-2.74L33.2 16.357c-.027-.034-.062-.06-.09-.093a6.156 6.156 0 0 0 .618-2.672 6.156 6.156 0 0 0-6.157-6.154zm45.598.076c1.818 0 3.229 1.41 3.229 3.228 0 1.818-1.411 3.23-3.229 3.23-1.817 0-3.24-1.412-3.24-3.23 0-1.817 1.423-3.228 3.24-3.228zm-23.78 27.582c3.756 0 6.733 2.965 6.733 6.722 0 3.756-2.977 6.724-6.733 6.724s-6.725-2.968-6.725-6.724c0-3.757 2.969-6.722 6.725-6.722zm-40.34 9.43c1.345 0 2.4 1.055 2.4 2.4a2.368 2.368 0 0 1-2.4 2.392 2.358 2.358 0 0 1-2.389-2.392c0-1.345 1.043-2.4 2.389-2.4zm33.71 10.157a2.152 2.152 0 0 0-1.977 1.259l-1.903 3.911c-1.266 2.615 2.657 4.515 3.923 1.9l1.891-3.909c.301-.593.315-1.29.037-1.894a2.148 2.148 0 0 0-1.97-1.267zm24.778 1.475c-1.853-.015-2.876 2.146-1.689 3.569l2.73 3.386c.077.096.161.17.244.247a7.808 7.808 0 0 0-.961 3.735 7.808 7.808 0 0 0 7.81 7.807 7.808 7.808 0 0 0 7.806-7.807 7.808 7.808 0 0 0-7.807-7.81 7.808 7.808 0 0 0-3.788.984l-2.647-3.274a2.17 2.17 0 0 0-1.698-.837zM37.03 63.091a4.905 4.905 0 0 0-4.904 4.904A4.905 4.905 0 0 0 37.03 72.9a4.905 4.905 0 0 0 4.907-4.906 4.905 4.905 0 0 0-4.907-4.904z" style="color:#000;font-style:normal;font-variant:normal;font-weight:400;font-stretch:normal;font-size:medium;line-height:normal;font-family:sans-serif;font-variant-ligatures:normal;font-variant-position:normal;font-variant-caps:normal;font-variant-numeric:normal;font-variant-alternates:normal;font-feature-settings:normal;text-indent:0;text-align:start;text-decoration:none;text-decoration-line:none;text-decoration-style:solid;text-decoration-color:#000;letter-spacing:normal;word-spacing:normal;text-transform:none;writing-mode:lr-tb;direction:ltr;text-orientation:mixed;dominant-baseline:auto;baseline-shift:baseline;text-anchor:start;white-space:normal;shape-padding:0;clip-rule:nonzero;display:inline;overflow:visible;visibility:visible;opacity:1;isolation:auto;mix-blend-mode:normal;color-interpolation:sRGB;color-interpolation-filters:linearRGB;solid-color:#000;solid-opacity:1;vector-effect:none;fill:#fff;fill-opacity:1;fill-rule:nonzero;stroke:none;stroke-width:4.35044622;stroke-linecap:round;stroke-linejoin:round;stroke-miterlimit:4;stroke-dasharray:4.35044636,8.70089261;stroke-dashoffset:0;stroke-opacity:1;color-rendering:auto;image-rendering:auto;shape-rendering:auto;text-rendering:auto;enable-background:accumulate"/></clipPath><filter id="b" color-interpolation-filters="sRGB" height="1.024" width="1.024" x="-.012" y="-.012"><feGaussianBlur stdDeviation=".475" id="feGaussianBlur7"/></filter><filter x="-5.6%" y="-1.2%" width="111.1%" height="102.5%" filterUnits="objectBoundingBox" id="filter-6"><feMorphology radius=".5" operator="dilate" in="SourceAlpha" result="shadowSpreadOuter1" id="feMorphology12690"/><feOffset dx="0" dy="0" in="shadowSpreadOuter1" result="shadowOffsetOuter1" id="feOffset12692"/><feColorMatrix values="0 0 0 0 0 0 0 0 0 0 0 0 0 0 0 0 0 0 0.139945652 0" type="matrix" in="shadowOffsetOuter1" id="feColorMatrix12694"/></filter><filter x="-16.7%" y="-11.9%" width="133.3%" height="133.3%" filterUnits="objectBoundingBox" id="filter-8"><feOffset dx="0" dy="2" in="SourceAlpha" result="shadowOffsetOuter1" id="feOffset12698"/><feGaussianBlur stdDeviation="2" in="shadowOffsetOuter1" result="shadowBlurOuter1" id="feGaussianBlur12700"/><feColorMatrix values="0 0 0 0 0 0 0 0 0 0 0 0 0 0 0 0 0 0 0.15197577 0" type="matrix" in="shadowBlurOuter1" id="feColorMatrix12702"/></filter><radialGradient id="rgrad" fx="512" fy="494.4" cx="512" cy="512" r="440" gradientUnits="userSpaceOnUse" gradientTransform="translate(0 -896)"><stop offset="0%" stop-color="#00f0ff" id="stop7"/><stop offset="100%" stop-color="#0070e0" id="stop9"/></radialGradient><radialGradient gradientTransform="matrix(.031 0 0 .03033 85.199 42.985)" gradientUnits="userSpaceOnUse" r="440" cy="306.181" cx="523.576" fy="306.181" fx="523.576" id="rgrad-3"><stop style="stop-color:#03d7e4;stop-opacity:1" id="stop7-6" stop-color="#00f0ff" offset="0%"/><stop id="stop9-7" stop-color="#0070e0" offset="100%"/></radialGradient><circle id="path-7" cx="21" cy="21" r="21"/><circle id="A" cx="96" cy="96" r="88"/><rect id="path-1" x="0" y="0" width="120" height="120" rx="28"/><rect id="path-1-2" x="0" y="0" width="120" height="120" rx="28"/></defs><g id="layer1"><g style="opacity:.2967651" transform="translate(-65.748 -37.203) scale(.97573)" id="g1702"><path d="M76.45 40.71h16.59a6.595 6.595 0 0 1 6.61 6.61v16.59a6.595 6.595 0 0 1-6.61 6.61H76.45a6.595 6.595 0 0 1-6.61-6.61V47.32a6.595 6.595 0 0 1 6.61-6.61z" style="fill:none;fill-opacity:1;stroke:#000;stroke-width:.1;stroke-linecap:round;stroke-linejoin:round;stroke-miterlimit:4;stroke-dasharray:none;stroke-opacity:.02" id="rect1634"/><path d="M76.45 40.71h16.59a6.595 6.595 0 0 1 6.61 6.61v16.59a6.595 6.595 0 0 1-6.61 6.61H76.45a6.595 6.595 0 0 1-6.61-6.61V47.32a6.595 6.595 0 0 1 6.61-6.61z" style="fill:none;fill-opacity:1;stroke:#000;stroke-width:.2;stroke-linecap:round;stroke-linejoin:round;stroke-miterlimit:4;stroke-dasharray:none;stroke-opacity:.02" id="rect1638"/><path d="M76.45 40.71h16.59a6.595 6.595 0 0 1 6.61 6.61v16.59a6.595 6.595 0 0 1-6.61 6.61H76.45a6.595 6.595 0 0 1-6.61-6.61V47.32a6.595 6.595 0 0 1 6.61-6.61z" style="fill:none;fill-opacity:1;stroke:#000;stroke-width:.3;stroke-linecap:round;stroke-linejoin:round;stroke-miterlimit:4;stroke-dasharray:none;stroke-opacity:.02" id="rect1640"/><path d="M76.45 40.71h16.59a6.595 6.595 0 0 1 6.61 6.61v16.59a6.595 6.595 0 0 1-6.61 6.61H76.45a6.595 6.595 0 0 1-6.61-6.61V47.32a6.595 6.595 0 0 1 6.61-6.61z" style="fill:none;fill-opacity:1;stroke:#000;stroke-width:.4;stroke-linecap:round;stroke-linejoin:round;stroke-miterlimit:4;stroke-dasharray:none;stroke-opacity:.02" id="rect1642"/><path d="M76.45 40.71h16.59a6.595 6.595 0 0 1 6.61 6.61v16.59a6.595 6.595 0 0 1-6.61 6.61H76.45a6.595 6.595 0 0 1-6.61-6.61V47.32a6.595 6.595 0 0 1 6.61-6.61z" style="fill:none;fill-opacity:1;stroke:#000;stroke-width:.5;stroke-linecap:round;stroke-linejoin:round;stroke-miterlimit:4;stroke-dasharray:none;stroke-opacity:.02" id="rect1644"/><path d="M76.45 40.71h16.59a6.595 6.595 0 0 1 6.61 6.61v16.59a6.595 6.595 0 0 1-6.61 6.61H76.45a6.595 6.595 0 0 1-6.61-6.61V47.32a6.595 6.595 0 0 1 6.61-6.61z" style="fill:none;fill-opacity:1;stroke:#000;stroke-width:.6;stroke-linecap:round;stroke-linejoin:round;stroke-miterlimit:4;stroke-dasharray:none;stroke-opacity:.02" id="rect1646"/><path d="M76.45 40.71h16.59a6.595 6.595 0 0 1 6.61 6.61v16.59a6.595 6.595 0 0 1-6.61 6.61H76.45a6.595 6.595 0 0 1-6.61-6.61V47.32a6.595 6.595 0 0 1 6.61-6.61z" style="fill:none;fill-opacity:1;stroke:#000;stroke-width:.7;stroke-linecap:round;stroke-linejoin:round;stroke-miterlimit:4;stroke-dasharray:none;stroke-opacity:.02" id="rect1648"/><path d="M76.45 40.71h16.59a6.595 6.595 0 0 1 6.61 6.61v16.59a6.595 6.595 0 0 1-6.61 6.61H76.45a6.595 6.595 0 0 1-6.61-6.61V47.32a6.595 6.595 0 0 1 6.61-6.61z" style="fill:none;fill-opacity:1;stroke:#000;stroke-width:.8;stroke-linecap:round;stroke-linejoin:round;stroke-miterlimit:4;stroke-dasharray:none;stroke-opacity:.02" id="rect1650"/><path d="M76.45 40.71h16.59a6.595 6.595 0 0 1 6.61 6.61v16.59a6.595 6.595 0 0 1-6.61 6.61H76.45a6.595 6.595 0 0 1-6.61-6.61V47.32a6.595 6.595 0 0 1 6.61-6.61z" style="fill:none;fill-opacity:1;stroke:#000;stroke-width:1;stroke-linecap:round;stroke-linejoin:round;stroke-miterlimit:4;stroke-dasharray:none;stroke-opacity:.02" id="rect1652"/><path d="M76.45 40.71h16.59a6.595 6.595 0 0 1 6.61 6.61v16.59a6.595 6.595 0 0 1-6.61 6.61H76.45a6.595 6.595 0 0 1-6.61-6.61V47.32a6.595 6.595 0 0 1 6.61-6.61z" style="fill:none;fill-opacity:1;stroke:#000;stroke-width:1.2;stroke-linecap:round;stroke-linejoin:round;stroke-miterlimit:4;stroke-dasharray:none;stroke-opacity:.02" id="rect1654"/><path d="M76.45 40.71h16.59a6.595 6.595 0 0 1 6.61 6.61v16.59a6.595 6.595 0 0 1-6.61 6.61H76.45a6.595 6.595 0 0 1-6.61-6.61V47.32a6.595 6.595 0 0 1 6.61-6.61z" style="fill:none;fill-opacity:1;stroke:#000;stroke-width:1.4;stroke-linecap:round;stroke-linejoin:round;stroke-miterlimit:4;stroke-dasharray:none;stroke-opacity:.02" id="rect1656"/><path d="M76.45 40.71h16.59a6.595 6.595 0 0 1 6.61 6.61v16.59a6.595 6.595 0 0 1-6.61 6.61H76.45a6.595 6.595 0 0 1-6.61-6.61V47.32a6.595 6.595 0 0 1 6.61-6.61z" style="fill:none;fill-opacity:1;stroke:#000;stroke-width:1.6;stroke-linecap:round;stroke-linejoin:round;stroke-miterlimit:4;stroke-dasharray:none;stroke-opacity:.02" id="rect1658"/><path d="M76.45 40.71h16.59a6.595 6.595 0 0 1 6.61 6.61v16.59a6.595 6.595 0 0 1-6.61 6.61H76.45a6.595 6.595 0 0 1-6.61-6.61V47.32a6.595 6.595 0 0 1 6.61-6.61z" style="fill:none;fill-opacity:1;stroke:#000;stroke-width:1.8;stroke-linecap:round;stroke-linejoin:round;stroke-miterlimit:4;stroke-dasharray:none;stroke-opacity:.02" id="rect1660"/><path d="M76.45 40.71h16.59a6.595 6.595 0 0 1 6.61 6.61v16.59a6.595 6.595 0 0 1-6.61 6.61H76.45a6.595 6.595 0 0 1-6.61-6.61V47.32a6.595 6.595 0 0 1 6.61-6.61z" style="fill:none;fill-opacity:1;stroke:#000;stroke-width:2;stroke-linecap:round;stroke-linejoin:round;stroke-miterlimit:4;stroke-dasharray:none;stroke-opacity:.02" id="rect1662"/><path d="M76.45 40.71h16.59a6.595 6.595 0 0 1 6.61 6.61v16.59a6.595 6.595 0 0 1-6.61 6.61H76.45a6.595 6.595 0 0 1-6.61-6.61V47.32a6.595 6.595 0 0 1 6.61-6.61z" style="fill:none;fill-opacity:1;stroke:#000;stroke-width:2.2;stroke-linecap:round;stroke-linejoin:round;stroke-miterlimit:4;stroke-dasharray:none;stroke-opacity:.02" id="rect1664"/><path d="M76.45 40.71h16.59a6.595 6.595 0 0 1 6.61 6.61v16.59a6.595 6.595 0 0 1-6.61 6.61H76.45a6.595 6.595 0 0 1-6.61-6.61V47.32a6.595 6.595 0 0 1 6.61-6.61z" style="fill:none;fill-opacity:1;stroke:#000;stroke-width:2.6;stroke-linecap:round;stroke-linejoin:round;stroke-miterlimit:4;stroke-dasharray:none;stroke-opacity:.02" id="rect1666"/><path d="M76.45 40.71h16.59a6.595 6.595 0 0 1 6.61 6.61v16.59a6.595 6.595 0 0 1-6.61 6.61H76.45a6.595 6.595 0 0 1-6.61-6.61V47.32a6.595 6.595 0 0 1 6.61-6.61z" style="fill:none;fill-opacity:1;stroke:#000;stroke-width:3;stroke-linecap:round;stroke-linejoin:round;stroke-miterlimit:4;stroke-dasharray:none;stroke-opacity:.02" id="rect1668"/><path d="M76.45 40.71h16.59a6.595 6.595 0 0 1 6.61 6.61v16.59a6.595 6.595 0 0 1-6.61 6.61H76.45a6.595 6.595 0 0 1-6.61-6.61V47.32a6.595 6.595 0 0 1 6.61-6.61z" style="fill:none;fill-opacity:1;stroke:#000;stroke-width:3.4;stroke-linecap:round;stroke-linejoin:round;stroke-miterlimit:4;stroke-dasharray:none;stroke-opacity:.02" id="rect1670"/><path d="M76.45 40.71h16.59a6.595 6.595 0 0 1 6.61 6.61v16.59a6.595 6.595 0 0 1-6.61 6.61H76.45a6.595 6.595 0 0 1-6.61-6.61V47.32a6.595 6.595 0 0 1 6.61-6.61z" style="fill:none;fill-opacity:1;stroke:#000;stroke-width:3.8;stroke-linecap:round;stroke-linejoin:round;stroke-miterlimit:4;stroke-dasharray:none;stroke-opacity:.02" id="rect1672"/><path d="M76.45 40.71h16.59a6.595 6.595 0 0 1 6.61 6.61v16.59a6.595 6.595 0 0 1-6.61 6.61H76.45a6.595 6.595 0 0 1-6.61-6.61V47.32a6.595 6.595 0 0 1 6.61-6.61z" style="fill:none;fill-opacity:1;stroke:#000;stroke-width:4.2;stroke-linecap:round;stroke-linejoin:round;stroke-miterlimit:4;stroke-dasharray:none;stroke-opacity:.02" id="rect1674"/><path d="M76.45 40.71h16.59a6.595 6.595 0 0 1 6.61 6.61v16.59a6.595 6.595 0 0 1-6.61 6.61H76.45a6.595 6.595 0 0 1-6.61-6.61V47.32a6.595 6.595 0 0 1 6.61-6.61z" style="fill:none;fill-opacity:1;stroke:#000;stroke-width:4.6;stroke-linecap:round;stroke-linejoin:round;stroke-miterlimit:4;stroke-dasharray:none;stroke-opacity:.02" id="rect1676"/><path d="M76.45 40.71h16.59a6.595 6.595 0 0 1 6.61 6.61v16.59a6.595 6.595 0 0 1-6.61 6.61H76.45a6.595 6.595 0 0 1-6.61-6.61V47.32a6.595 6.595 0 0 1 6.61-6.61z" style="fill:none;fill-opacity:1;stroke:#000;stroke-width:5;stroke-linecap:round;stroke-linejoin:round;stroke-miterlimit:4;stroke-dasharray:none;stroke-opacity:.02" id="rect1678"/></g><rect ry="6.449" rx="6.449" y="2.519" x="2.407" height="29.087" width="29.087" id="rect849" style="fill:url(#linearGradient14855);fill-opacity:1;stroke-width:2.68768;stroke-linecap:round;stroke-linejoin:round"/><g id="g6100"><rect ry="1.635" rx="1.635" y="22.675" x="5.943" height="6.298" width="22.015" id="rect4754" style="opacity:1;fill:#fff;fill-opacity:.53260869;fill-rule:evenodd;stroke:none;stroke-width:.2;stroke-linecap:round;stroke-linejoin:round;stroke-miterlimit:4;stroke-dasharray:none;stroke-dashoffset:0;stroke-opacity:1"/><g transform="translate(.108 -.09)" id="g6082"><path id="path4781-3" d="M8.596 23.706a.991.991 0 0 0-.994.994v2.43c0 .55.443.993.994.993h2.43c.55 0 .993-.443.993-.993V24.7a.991.991 0 0 0-.993-.994zm7.031 0a.992.992 0 0 0-.994.994v2.43c0 .55.444.993.994.993h2.43c.55 0 .994-.443.994-.993V24.7a.991.991 0 0 0-.994-.994zm7.032 0a.991.991 0 0 0-.994.994v2.43c0 .55.443.993.994.993h2.43c.55 0 .994-.443.994-.993V24.7a.992.992 0 0 0-.995-.994z" style="opacity:1;fill:none;fill-opacity:.99456518;fill-rule:evenodd;stroke:#1d60a2;stroke-width:.30000001;stroke-linecap:round;stroke-linejoin:round;stroke-miterlimit:4;stroke-dasharray:none;stroke-dashoffset:0;stroke-opacity:.125"/><g id="g4791" transform="translate(24.279 .22)" style="opacity:.32900002"><path id="rect4762" transform="scale(.26458)" d="M-59.273 88.764a3.747 3.747 0 0 0-3.756 3.756v9.183a3.747 3.747 0 0 0 3.756 3.756h9.183a3.747 3.747 0 0 0 3.756-3.756V92.52a3.747 3.747 0 0 0-3.756-3.756zm26.576 0a3.749 3.749 0 0 0-3.758 3.756v9.183a3.749 3.749 0 0 0 3.758 3.756h9.183a3.747 3.747 0 0 0 3.756-3.756V92.52a3.747 3.747 0 0 0-3.756-3.756zm26.574 0a3.747 3.747 0 0 0-3.756 3.756v9.183a3.747 3.747 0 0 0 3.756 3.756h9.184a3.749 3.749 0 0 0 3.757-3.756V92.52a3.749 3.749 0 0 0-3.757-3.756z" style="opacity:1;fill:none;fill-opacity:.99456518;fill-rule:evenodd;stroke:#123c65;stroke-width:.37795275;stroke-linecap:round;stroke-linejoin:round;stroke-miterlimit:4;stroke-dasharray:none;stroke-dashoffset:0;stroke-opacity:.04705882"/><path style="opacity:1;fill:none;fill-opacity:.99456518;fill-rule:evenodd;stroke:#123c65;stroke-width:.75590551;stroke-linecap:round;stroke-linejoin:round;stroke-miterlimit:4;stroke-dasharray:none;stroke-dashoffset:0;stroke-opacity:.04705882" d="M-59.273 88.764a3.747 3.747 0 0 0-3.756 3.756v9.183a3.747 3.747 0 0 0 3.756 3.756h9.183a3.747 3.747 0 0 0 3.756-3.756V92.52a3.747 3.747 0 0 0-3.756-3.756zm26.576 0a3.749 3.749 0 0 0-3.758 3.756v9.183a3.749 3.749 0 0 0 3.758 3.756h9.183a3.747 3.747 0 0 0 3.756-3.756V92.52a3.747 3.747 0 0 0-3.756-3.756zm26.574 0a3.747 3.747 0 0 0-3.756 3.756v9.183a3.747 3.747 0 0 0 3.756 3.756h9.184a3.749 3.749 0 0 0 3.757-3.756V92.52a3.749 3.749 0 0 0-3.757-3.756z" transform="scale(.26458)" id="path4769"/><path id="path4771" transform="scale(.26458)" d="M-59.273 88.764a3.747 3.747 0 0 0-3.756 3.756v9.183a3.747 3.747 0 0 0 3.756 3.756h9.183a3.747 3.747 0 0 0 3.756-3.756V92.52a3.747 3.747 0 0 0-3.756-3.756zm26.576 0a3.749 3.749 0 0 0-3.758 3.756v9.183a3.749 3.749 0 0 0 3.758 3.756h9.183a3.747 3.747 0 0 0 3.756-3.756V92.52a3.747 3.747 0 0 0-3.756-3.756zm26.574 0a3.747 3.747 0 0 0-3.756 3.756v9.183a3.747 3.747 0 0 0 3.756 3.756h9.184a3.749 3.749 0 0 0 3.757-3.756V92.52a3.749 3.749 0 0 0-3.757-3.756z" style="opacity:1;fill:none;fill-opacity:.99456518;fill-rule:evenodd;stroke:#123c65;stroke-width:1.13385832;stroke-linecap:round;stroke-linejoin:round;stroke-miterlimit:4;stroke-dasharray:none;stroke-dashoffset:0;stroke-opacity:.04705882"/><path style="opacity:1;fill:none;fill-opacity:.99456518;fill-rule:evenodd;stroke:#123c65;stroke-width:1.51181102;stroke-linecap:round;stroke-linejoin:round;stroke-miterlimit:4;stroke-dasharray:none;stroke-dashoffset:0;stroke-opacity:.04705882" d="M-59.273 88.764a3.747 3.747 0 0 0-3.756 3.756v9.183a3.747 3.747 0 0 0 3.756 3.756h9.183a3.747 3.747 0 0 0 3.756-3.756V92.52a3.747 3.747 0 0 0-3.756-3.756zm26.576 0a3.749 3.749 0 0 0-3.758 3.756v9.183a3.749 3.749 0 0 0 3.758 3.756h9.183a3.747 3.747 0 0 0 3.756-3.756V92.52a3.747 3.747 0 0 0-3.756-3.756zm26.574 0a3.747 3.747 0 0 0-3.756 3.756v9.183a3.747 3.747 0 0 0 3.756 3.756h9.184a3.749 3.749 0 0 0 3.757-3.756V92.52a3.749 3.749 0 0 0-3.757-3.756z" transform="scale(.26458)" id="path4773"/><path id="path4775" transform="scale(.26458)" d="M-59.273 88.764a3.747 3.747 0 0 0-3.756 3.756v9.183a3.747 3.747 0 0 0 3.756 3.756h9.183a3.747 3.747 0 0 0 3.756-3.756V92.52a3.747 3.747 0 0 0-3.756-3.756zm26.576 0a3.749 3.749 0 0 0-3.758 3.756v9.183a3.749 3.749 0 0 0 3.758 3.756h9.183a3.747 3.747 0 0 0 3.756-3.756V92.52a3.747 3.747 0 0 0-3.756-3.756zm26.574 0a3.747 3.747 0 0 0-3.756 3.756v9.183a3.747 3.747 0 0 0 3.756 3.756h9.184a3.749 3.749 0 0 0 3.757-3.756V92.52a3.749 3.749 0 0 0-3.757-3.756z" style="opacity:1;fill:none;fill-opacity:.99456518;fill-rule:evenodd;stroke:#123c65;stroke-width:1.88976383;stroke-linecap:round;stroke-linejoin:round;stroke-miterlimit:4;stroke-dasharray:none;stroke-dashoffset:0;stroke-opacity:.04705882"/><path style="opacity:1;fill:none;fill-opacity:.99456518;fill-rule:evenodd;stroke:#123c65;stroke-width:2.26771665;stroke-linecap:round;stroke-linejoin:round;stroke-miterlimit:4;stroke-dasharray:none;stroke-dashoffset:0;stroke-opacity:.04705882" d="M-59.273 88.764a3.747 3.747 0 0 0-3.756 3.756v9.183a3.747 3.747 0 0 0 3.756 3.756h9.183a3.747 3.747 0 0 0 3.756-3.756V92.52a3.747 3.747 0 0 0-3.756-3.756zm26.576 0a3.749 3.749 0 0 0-3.758 3.756v9.183a3.749 3.749 0 0 0 3.758 3.756h9.183a3.747 3.747 0 0 0 3.756-3.756V92.52a3.747 3.747 0 0 0-3.756-3.756zm26.574 0a3.747 3.747 0 0 0-3.756 3.756v9.183a3.747 3.747 0 0 0 3.756 3.756h9.184a3.749 3.749 0 0 0 3.757-3.756V92.52a3.749 3.749 0 0 0-3.757-3.756z" transform="scale(.26458)" id="path4777"/><path id="path4779" transform="scale(.26458)" d="M-59.273 88.764a3.747 3.747 0 0 0-3.756 3.756v9.183a3.747 3.747 0 0 0 3.756 3.756h9.183a3.747 3.747 0 0 0 3.756-3.756V92.52a3.747 3.747 0 0 0-3.756-3.756zm26.576 0a3.749 3.749 0 0 0-3.758 3.756v9.183a3.749 3.749 0 0 0 3.758 3.756h9.183a3.747 3.747 0 0 0 3.756-3.756V92.52a3.747 3.747 0 0 0-3.756-3.756zm26.574 0a3.747 3.747 0 0 0-3.756 3.756v9.183a3.747 3.747 0 0 0 3.756 3.756h9.184a3.749 3.749 0 0 0 3.757-3.756V92.52a3.749 3.749 0 0 0-3.757-3.756z" style="opacity:1;fill:none;fill-opacity:.99456518;fill-rule:evenodd;stroke:#123c65;stroke-width:2.64566922;stroke-linecap:round;stroke-linejoin:round;stroke-miterlimit:4;stroke-dasharray:none;stroke-dashoffset:0;stroke-opacity:.04705882"/><g id="g4794"><path id="path4781" d="M-59.273 88.764a3.747 3.747 0 0 0-3.756 3.756v9.183a3.747 3.747 0 0 0 3.756 3.756h9.183a3.747 3.747 0 0 0 3.756-3.756V92.52a3.747 3.747 0 0 0-3.756-3.756zm26.576 0a3.749 3.749 0 0 0-3.758 3.756v9.183a3.749 3.749 0 0 0 3.758 3.756h9.183a3.747 3.747 0 0 0 3.756-3.756V92.52a3.747 3.747 0 0 0-3.756-3.756zm26.574 0a3.747 3.747 0 0 0-3.756 3.756v9.183a3.747 3.747 0 0 0 3.756 3.756h9.184a3.749 3.749 0 0 0 3.757-3.756V92.52a3.749 3.749 0 0 0-3.757-3.756z" style="opacity:1;fill:none;fill-opacity:.99456518;fill-rule:evenodd;stroke:#123c65;stroke-width:3.02362204;stroke-linecap:round;stroke-linejoin:round;stroke-miterlimit:4;stroke-dasharray:none;stroke-dashoffset:0;stroke-opacity:.04705882" transform="scale(.26458)"/></g></g><rect style="opacity:1;fill:#fff;fill-opacity:.99456518;fill-rule:evenodd;stroke:none;stroke-width:.2;stroke-linecap:round;stroke-linejoin:round;stroke-miterlimit:4;stroke-dasharray:none;stroke-dashoffset:0;stroke-opacity:1" id="rect4756" width="4.418" height="4.418" x="7.62" y="23.485" rx=".994" ry=".994"/><rect ry=".994" rx=".994" y="23.485" x="14.652" height="4.418" width="4.418" id="rect4758" style="opacity:1;fill:#fff;fill-opacity:.99456518;fill-rule:evenodd;stroke:none;stroke-width:.2;stroke-linecap:round;stroke-linejoin:round;stroke-miterlimit:4;stroke-dasharray:none;stroke-dashoffset:0;stroke-opacity:1"/><rect style="opacity:1;fill:#fff;fill-opacity:.99456518;fill-rule:evenodd;stroke:none;stroke-width:.2;stroke-linecap:round;stroke-linejoin:round;stroke-miterlimit:4;stroke-dasharray:none;stroke-dashoffset:0;stroke-opacity:1" id="rect4760" width="4.418" height="4.418" x="21.683" y="23.485" rx=".994" ry=".994"/></g></g><path id="path6108-6" d="M23.084 6.398a4.04 4.04 0 0 0-2.04.56c-.638.36-1.242.887-1.809 1.578-.553.677-1.056 1.512-1.51 2.506-.453.98-.841 2.089-1.167 3.328-.227.879-.455 1.62-.682 2.225a9.42 9.42 0 0 1-.701 1.512c-.525-.202-1.042-.81-1.553-.939a5.461 5.461 0 0 0-1.53-.216 3.14 3.14 0 0 0-1.127.195c-.327.13-.61.287-.85.475a2.533 2.533 0 0 0-.574.604c-.128.217-.193.863-.193 1.05 0 .303.142.555.425.756.284.202.71.302 1.277.302 1.503 0 2.772-.395 3.807-1.188.652.289 1.317.561 1.998.82.694.245 1.46.368 2.296.368.95 0 1.708-.2 2.275-.604.567-.417.893-.95 1.233-1.729.014-.087-.005-.145-.061-.173-.043-.043-.094-.043-.15 0-.241.49-.419.8-.787 1.06-.369.258-.908.388-1.617.388-.85 0-1.63-.094-2.338-.282a25.156 25.156 0 0 1-2-.67c.88-1.051 1.568-2.542 2.064-4.472.298-1.21.588-2.218.871-3.024.284-.807.588-1.447.914-1.923.326-.49.682-.766 1.065-.953.397-.202.863-.3 1.402-.3.397 0 .722.072.977.216.27.13.468.302.595.518.128.216.2.39.215.65.014.26-.022.77-.107 1.03-.015.072.006.122.062.151.071.03.137.023.193-.021.142-.245.275-.808.403-1.183.127-.39.193-.73.193-1.018 0-.447-.137-.82-.406-1.122-.27-.317-.623-.475-1.063-.475zM11.156 17.666c.61 0 1.184.085 1.722.258.54.173 1.071.82 1.596 1.05a2.565 2.565 0 0 1-1.107.647c-.397.101-.85.152-1.36.152-.581 0-1.037-.093-1.363-.28-.311-.188-.466-.869-.466-1.157 0-.446.326-.67.978-.67z" style="fill:#fff;stroke-width:.4223676"/></g><style id="style15307">.B{clip-path:url(#C)}.C{fill:#3e2723}.D{fill-opacity:.15}.E{fill-opacity:.2}</style></svg>