<?xml version="1.0" encoding="UTF-8"?>
<svg id="svg6" width="128" height="128" version="1.1" viewBox="0 0 33.867 33.867" xmlns="http://www.w3.org/2000/svg" xmlns:osb="http://www.openswatchbook.org/uri/2009/osb" xmlns:xlink="http://www.w3.org/1999/xlink">
 <defs id="defs2">
  <linearGradient id="linearGradient14855" x1="15.132" x2="15.132" y1="27.778" y2="4.734" gradientUnits="userSpaceOnUse">
   <stop id="stop14849" stop-color="#0b1621" offset="0"/>
   <stop id="stop14851" stop-color="#162830" offset="1"/>
  </linearGradient>
 </defs>
 <g id="layer1">
  <g id="g1702" transform="translate(-65.748 -37.203) scale(.97573)" fill="none" opacity=".29677" stroke="#000" stroke-linecap="round" stroke-linejoin="round" stroke-opacity=".02">
   <path id="rect1634" d="M76.45 40.71h16.59a6.595 6.595 0 0 1 6.61 6.61v16.59a6.595 6.595 0 0 1-6.61 6.61H76.45a6.595 6.595 0 0 1-6.61-6.61V47.32a6.595 6.595 0 0 1 6.61-6.61z" stroke-width=".1"/>
   <path id="rect1638" d="M76.45 40.71h16.59a6.595 6.595 0 0 1 6.61 6.61v16.59a6.595 6.595 0 0 1-6.61 6.61H76.45a6.595 6.595 0 0 1-6.61-6.61V47.32a6.595 6.595 0 0 1 6.61-6.61z" stroke-width=".2"/>
   <path id="rect1640" d="M76.45 40.71h16.59a6.595 6.595 0 0 1 6.61 6.61v16.59a6.595 6.595 0 0 1-6.61 6.61H76.45a6.595 6.595 0 0 1-6.61-6.61V47.32a6.595 6.595 0 0 1 6.61-6.61z" stroke-width=".3"/>
   <path id="rect1642" d="M76.45 40.71h16.59a6.595 6.595 0 0 1 6.61 6.61v16.59a6.595 6.595 0 0 1-6.61 6.61H76.45a6.595 6.595 0 0 1-6.61-6.61V47.32a6.595 6.595 0 0 1 6.61-6.61z" stroke-width=".4"/>
   <path id="rect1644" d="M76.45 40.71h16.59a6.595 6.595 0 0 1 6.61 6.61v16.59a6.595 6.595 0 0 1-6.61 6.61H76.45a6.595 6.595 0 0 1-6.61-6.61V47.32a6.595 6.595 0 0 1 6.61-6.61z" stroke-width=".5"/>
   <path id="rect1646" d="M76.45 40.71h16.59a6.595 6.595 0 0 1 6.61 6.61v16.59a6.595 6.595 0 0 1-6.61 6.61H76.45a6.595 6.595 0 0 1-6.61-6.61V47.32a6.595 6.595 0 0 1 6.61-6.61z" stroke-width=".6"/>
   <path id="rect1648" d="M76.45 40.71h16.59a6.595 6.595 0 0 1 6.61 6.61v16.59a6.595 6.595 0 0 1-6.61 6.61H76.45a6.595 6.595 0 0 1-6.61-6.61V47.32a6.595 6.595 0 0 1 6.61-6.61z" stroke-width=".7"/>
   <path id="rect1650" d="M76.45 40.71h16.59a6.595 6.595 0 0 1 6.61 6.61v16.59a6.595 6.595 0 0 1-6.61 6.61H76.45a6.595 6.595 0 0 1-6.61-6.61V47.32a6.595 6.595 0 0 1 6.61-6.61z" stroke-width=".8"/>
   <path id="rect1652" d="M76.45 40.71h16.59a6.595 6.595 0 0 1 6.61 6.61v16.59a6.595 6.595 0 0 1-6.61 6.61H76.45a6.595 6.595 0 0 1-6.61-6.61V47.32a6.595 6.595 0 0 1 6.61-6.61z"/>
   <path id="rect1654" d="M76.45 40.71h16.59a6.595 6.595 0 0 1 6.61 6.61v16.59a6.595 6.595 0 0 1-6.61 6.61H76.45a6.595 6.595 0 0 1-6.61-6.61V47.32a6.595 6.595 0 0 1 6.61-6.61z" stroke-width="1.2"/>
   <path id="rect1656" d="M76.45 40.71h16.59a6.595 6.595 0 0 1 6.61 6.61v16.59a6.595 6.595 0 0 1-6.61 6.61H76.45a6.595 6.595 0 0 1-6.61-6.61V47.32a6.595 6.595 0 0 1 6.61-6.61z" stroke-width="1.4"/>
   <path id="rect1658" d="M76.45 40.71h16.59a6.595 6.595 0 0 1 6.61 6.61v16.59a6.595 6.595 0 0 1-6.61 6.61H76.45a6.595 6.595 0 0 1-6.61-6.61V47.32a6.595 6.595 0 0 1 6.61-6.61z" stroke-width="1.6"/>
   <path id="rect1660" d="M76.45 40.71h16.59a6.595 6.595 0 0 1 6.61 6.61v16.59a6.595 6.595 0 0 1-6.61 6.61H76.45a6.595 6.595 0 0 1-6.61-6.61V47.32a6.595 6.595 0 0 1 6.61-6.61z" stroke-width="1.8"/>
   <path id="rect1662" d="M76.45 40.71h16.59a6.595 6.595 0 0 1 6.61 6.61v16.59a6.595 6.595 0 0 1-6.61 6.61H76.45a6.595 6.595 0 0 1-6.61-6.61V47.32a6.595 6.595 0 0 1 6.61-6.61z" stroke-width="2"/>
   <path id="rect1664" d="M76.45 40.71h16.59a6.595 6.595 0 0 1 6.61 6.61v16.59a6.595 6.595 0 0 1-6.61 6.61H76.45a6.595 6.595 0 0 1-6.61-6.61V47.32a6.595 6.595 0 0 1 6.61-6.61z" stroke-width="2.2"/>
   <path id="rect1666" d="M76.45 40.71h16.59a6.595 6.595 0 0 1 6.61 6.61v16.59a6.595 6.595 0 0 1-6.61 6.61H76.45a6.595 6.595 0 0 1-6.61-6.61V47.32a6.595 6.595 0 0 1 6.61-6.61z" stroke-width="2.6"/>
   <path id="rect1668" d="M76.45 40.71h16.59a6.595 6.595 0 0 1 6.61 6.61v16.59a6.595 6.595 0 0 1-6.61 6.61H76.45a6.595 6.595 0 0 1-6.61-6.61V47.32a6.595 6.595 0 0 1 6.61-6.61z" stroke-width="3"/>
   <path id="rect1670" d="M76.45 40.71h16.59a6.595 6.595 0 0 1 6.61 6.61v16.59a6.595 6.595 0 0 1-6.61 6.61H76.45a6.595 6.595 0 0 1-6.61-6.61V47.32a6.595 6.595 0 0 1 6.61-6.61z" stroke-width="3.4"/>
   <path id="rect1672" d="M76.45 40.71h16.59a6.595 6.595 0 0 1 6.61 6.61v16.59a6.595 6.595 0 0 1-6.61 6.61H76.45a6.595 6.595 0 0 1-6.61-6.61V47.32a6.595 6.595 0 0 1 6.61-6.61z" stroke-width="3.8"/>
   <path id="rect1674" d="M76.45 40.71h16.59a6.595 6.595 0 0 1 6.61 6.61v16.59a6.595 6.595 0 0 1-6.61 6.61H76.45a6.595 6.595 0 0 1-6.61-6.61V47.32a6.595 6.595 0 0 1 6.61-6.61z" stroke-width="4.2"/>
   <path id="rect1676" d="M76.45 40.71h16.59a6.595 6.595 0 0 1 6.61 6.61v16.59a6.595 6.595 0 0 1-6.61 6.61H76.45a6.595 6.595 0 0 1-6.61-6.61V47.32a6.595 6.595 0 0 1 6.61-6.61z" stroke-width="4.6"/>
   <path id="rect1678" d="M76.45 40.71h16.59a6.595 6.595 0 0 1 6.61 6.61v16.59a6.595 6.595 0 0 1-6.61 6.61H76.45a6.595 6.595 0 0 1-6.61-6.61V47.32a6.595 6.595 0 0 1 6.61-6.61z" stroke-width="5"/>
  </g>
  <rect id="rect849" x="2.407" y="2.519" width="29.087" height="29.087" rx="6.449" ry="6.449" fill="url(#linearGradient14855)" stroke-linecap="round" stroke-linejoin="round" stroke-width="2.6877"/>
  <g id="g6100">
   <rect id="rect4754" x="5.943" y="22.675" width="22.015" height="6.298" rx="1.635" ry="1.635" fill="#fff" fill-opacity=".53261" fill-rule="evenodd"/>
   <g id="g6082" transform="translate(.108 -.09)">
    <path id="path4781-3" d="M8.596 23.706a.991.991 0 0 0-.994.994v2.43c0 .55.443.993.994.993h2.43c.55 0 .993-.443.993-.993V24.7a.991.991 0 0 0-.993-.994zm7.031 0a.992.992 0 0 0-.994.994v2.43c0 .55.444.993.994.993h2.43c.55 0 .994-.443.994-.993V24.7a.991.991 0 0 0-.994-.994zm7.032 0a.991.991 0 0 0-.994.994v2.43c0 .55.443.993.994.993h2.43c.55 0 .994-.443.994-.993V24.7a.992.992 0 0 0-.995-.994z" fill="none" stroke="#1d60a2" stroke-linecap="round" stroke-linejoin="round" stroke-opacity=".125" stroke-width=".3"/>
    <g id="g4791" transform="translate(24.279 .22)" opacity=".329">
     <path id="rect4762" transform="scale(.26458)" d="M-59.273 88.764a3.747 3.747 0 0 0-3.756 3.756v9.183a3.747 3.747 0 0 0 3.756 3.756h9.183a3.747 3.747 0 0 0 3.756-3.756V92.52a3.747 3.747 0 0 0-3.756-3.756zm26.576 0a3.749 3.749 0 0 0-3.758 3.756v9.183a3.749 3.749 0 0 0 3.758 3.756h9.183a3.747 3.747 0 0 0 3.756-3.756V92.52a3.747 3.747 0 0 0-3.756-3.756zm26.574 0a3.747 3.747 0 0 0-3.756 3.756v9.183a3.747 3.747 0 0 0 3.756 3.756h9.184a3.749 3.749 0 0 0 3.757-3.756V92.52a3.749 3.749 0 0 0-3.757-3.756z" fill="none" opacity="1" stroke="#123c65" stroke-linecap="round" stroke-linejoin="round" stroke-opacity=".047059" stroke-width=".37795"/>
     <path id="path4769" transform="scale(.26458)" d="M-59.273 88.764a3.747 3.747 0 0 0-3.756 3.756v9.183a3.747 3.747 0 0 0 3.756 3.756h9.183a3.747 3.747 0 0 0 3.756-3.756V92.52a3.747 3.747 0 0 0-3.756-3.756zm26.576 0a3.749 3.749 0 0 0-3.758 3.756v9.183a3.749 3.749 0 0 0 3.758 3.756h9.183a3.747 3.747 0 0 0 3.756-3.756V92.52a3.747 3.747 0 0 0-3.756-3.756zm26.574 0a3.747 3.747 0 0 0-3.756 3.756v9.183a3.747 3.747 0 0 0 3.756 3.756h9.184a3.749 3.749 0 0 0 3.757-3.756V92.52a3.749 3.749 0 0 0-3.757-3.756z" fill="none" opacity="1" stroke="#123c65" stroke-linecap="round" stroke-linejoin="round" stroke-opacity=".047059" stroke-width=".75591"/>
     <path id="path4771" transform="scale(.26458)" d="M-59.273 88.764a3.747 3.747 0 0 0-3.756 3.756v9.183a3.747 3.747 0 0 0 3.756 3.756h9.183a3.747 3.747 0 0 0 3.756-3.756V92.52a3.747 3.747 0 0 0-3.756-3.756zm26.576 0a3.749 3.749 0 0 0-3.758 3.756v9.183a3.749 3.749 0 0 0 3.758 3.756h9.183a3.747 3.747 0 0 0 3.756-3.756V92.52a3.747 3.747 0 0 0-3.756-3.756zm26.574 0a3.747 3.747 0 0 0-3.756 3.756v9.183a3.747 3.747 0 0 0 3.756 3.756h9.184a3.749 3.749 0 0 0 3.757-3.756V92.52a3.749 3.749 0 0 0-3.757-3.756z" fill="none" opacity="1" stroke="#123c65" stroke-linecap="round" stroke-linejoin="round" stroke-opacity=".047059" stroke-width="1.1339"/>
     <path id="path4773" transform="scale(.26458)" d="M-59.273 88.764a3.747 3.747 0 0 0-3.756 3.756v9.183a3.747 3.747 0 0 0 3.756 3.756h9.183a3.747 3.747 0 0 0 3.756-3.756V92.52a3.747 3.747 0 0 0-3.756-3.756zm26.576 0a3.749 3.749 0 0 0-3.758 3.756v9.183a3.749 3.749 0 0 0 3.758 3.756h9.183a3.747 3.747 0 0 0 3.756-3.756V92.52a3.747 3.747 0 0 0-3.756-3.756zm26.574 0a3.747 3.747 0 0 0-3.756 3.756v9.183a3.747 3.747 0 0 0 3.756 3.756h9.184a3.749 3.749 0 0 0 3.757-3.756V92.52a3.749 3.749 0 0 0-3.757-3.756z" fill="none" opacity="1" stroke="#123c65" stroke-linecap="round" stroke-linejoin="round" stroke-opacity=".047059" stroke-width="1.5118"/>
     <path id="path4775" transform="scale(.26458)" d="M-59.273 88.764a3.747 3.747 0 0 0-3.756 3.756v9.183a3.747 3.747 0 0 0 3.756 3.756h9.183a3.747 3.747 0 0 0 3.756-3.756V92.52a3.747 3.747 0 0 0-3.756-3.756zm26.576 0a3.749 3.749 0 0 0-3.758 3.756v9.183a3.749 3.749 0 0 0 3.758 3.756h9.183a3.747 3.747 0 0 0 3.756-3.756V92.52a3.747 3.747 0 0 0-3.756-3.756zm26.574 0a3.747 3.747 0 0 0-3.756 3.756v9.183a3.747 3.747 0 0 0 3.756 3.756h9.184a3.749 3.749 0 0 0 3.757-3.756V92.52a3.749 3.749 0 0 0-3.757-3.756z" fill="none" opacity="1" stroke="#123c65" stroke-linecap="round" stroke-linejoin="round" stroke-opacity=".047059" stroke-width="1.8898"/>
     <path id="path4777" transform="scale(.26458)" d="M-59.273 88.764a3.747 3.747 0 0 0-3.756 3.756v9.183a3.747 3.747 0 0 0 3.756 3.756h9.183a3.747 3.747 0 0 0 3.756-3.756V92.52a3.747 3.747 0 0 0-3.756-3.756zm26.576 0a3.749 3.749 0 0 0-3.758 3.756v9.183a3.749 3.749 0 0 0 3.758 3.756h9.183a3.747 3.747 0 0 0 3.756-3.756V92.52a3.747 3.747 0 0 0-3.756-3.756zm26.574 0a3.747 3.747 0 0 0-3.756 3.756v9.183a3.747 3.747 0 0 0 3.756 3.756h9.184a3.749 3.749 0 0 0 3.757-3.756V92.52a3.749 3.749 0 0 0-3.757-3.756z" fill="none" opacity="1" stroke="#123c65" stroke-linecap="round" stroke-linejoin="round" stroke-opacity=".047059" stroke-width="2.2677"/>
     <path id="path4779" transform="scale(.26458)" d="M-59.273 88.764a3.747 3.747 0 0 0-3.756 3.756v9.183a3.747 3.747 0 0 0 3.756 3.756h9.183a3.747 3.747 0 0 0 3.756-3.756V92.52a3.747 3.747 0 0 0-3.756-3.756zm26.576 0a3.749 3.749 0 0 0-3.758 3.756v9.183a3.749 3.749 0 0 0 3.758 3.756h9.183a3.747 3.747 0 0 0 3.756-3.756V92.52a3.747 3.747 0 0 0-3.756-3.756zm26.574 0a3.747 3.747 0 0 0-3.756 3.756v9.183a3.747 3.747 0 0 0 3.756 3.756h9.184a3.749 3.749 0 0 0 3.757-3.756V92.52a3.749 3.749 0 0 0-3.757-3.756z" fill="none" opacity="1" stroke="#123c65" stroke-linecap="round" stroke-linejoin="round" stroke-opacity=".047059" stroke-width="2.6457"/>
     <g id="g4794">
      <path id="path4781" transform="scale(.26458)" d="M-59.273 88.764a3.747 3.747 0 0 0-3.756 3.756v9.183a3.747 3.747 0 0 0 3.756 3.756h9.183a3.747 3.747 0 0 0 3.756-3.756V92.52a3.747 3.747 0 0 0-3.756-3.756zm26.576 0a3.749 3.749 0 0 0-3.758 3.756v9.183a3.749 3.749 0 0 0 3.758 3.756h9.183a3.747 3.747 0 0 0 3.756-3.756V92.52a3.747 3.747 0 0 0-3.756-3.756zm26.574 0a3.747 3.747 0 0 0-3.756 3.756v9.183a3.747 3.747 0 0 0 3.756 3.756h9.184a3.749 3.749 0 0 0 3.757-3.756V92.52a3.749 3.749 0 0 0-3.757-3.756z" fill="none" opacity="1" stroke="#123c65" stroke-linecap="round" stroke-linejoin="round" stroke-opacity=".047059" stroke-width="3.0236"/>
     </g>
    </g>
    <rect id="rect4756" x="7.62" y="23.485" width="4.418" height="4.418" rx=".994" ry=".994" fill="#fff" fill-opacity=".99457" fill-rule="evenodd"/>
    <rect id="rect4758" x="14.652" y="23.485" width="4.418" height="4.418" rx=".994" ry=".994" fill="#fff" fill-opacity=".99457" fill-rule="evenodd"/>
    <rect id="rect4760" x="21.683" y="23.485" width="4.418" height="4.418" rx=".994" ry=".994" fill="#fff" fill-opacity=".99457" fill-rule="evenodd"/>
   </g>
  </g>
  <path id="path6108-6" d="M23.084 6.398a4.04 4.04 0 0 0-2.04.56c-.638.36-1.242.887-1.809 1.578-.553.677-1.056 1.512-1.51 2.506-.453.98-.841 2.089-1.167 3.328-.227.879-.455 1.62-.682 2.225a9.42 9.42 0 0 1-.701 1.512c-.525-.202-1.042-.81-1.553-.939a5.461 5.461 0 0 0-1.53-.216 3.14 3.14 0 0 0-1.127.195c-.327.13-.61.287-.85.475a2.533 2.533 0 0 0-.574.604c-.128.217-.193.863-.193 1.05 0 .303.142.555.425.756.284.202.71.302 1.277.302 1.503 0 2.772-.395 3.807-1.188.652.289 1.317.561 1.998.82.694.245 1.46.368 2.296.368.95 0 1.708-.2 2.275-.604.567-.417.893-.95 1.233-1.729.014-.087-.005-.145-.061-.173-.043-.043-.094-.043-.15 0-.241.49-.419.8-.787 1.06-.369.258-.908.388-1.617.388-.85 0-1.63-.094-2.338-.282a25.156 25.156 0 0 1-2-.67c.88-1.051 1.568-2.542 2.064-4.472.298-1.21.588-2.218.871-3.024.284-.807.588-1.447.914-1.923.326-.49.682-.766 1.065-.953.397-.202.863-.3 1.402-.3.397 0 .722.072.977.216.27.13.468.302.595.518.128.216.2.39.215.65.014.26-.022.77-.107 1.03-.015.072.006.122.062.151.071.03.137.023.193-.021.142-.245.275-.808.403-1.183.127-.39.193-.73.193-1.018 0-.447-.137-.82-.406-1.122-.27-.317-.623-.475-1.063-.475zM11.156 17.666c.61 0 1.184.085 1.722.258.54.173 1.071.82 1.596 1.05a2.565 2.565 0 0 1-1.107.647c-.397.101-.85.152-1.36.152-.581 0-1.037-.093-1.363-.28-.311-.188-.466-.869-.466-1.157 0-.446.326-.67.978-.67z" fill="#fff" stroke-width=".42237"/>
 </g>
 <style id="style15307">.B{clip-path:url(#C)}.C{fill:#3e2723}.D{fill-opacity:.15}.E{fill-opacity:.2}</style>
</svg>
