<?xml version="1.0" encoding="UTF-8"?>
<svg id="svg266" width="64" height="64" version="1.1" xmlns="http://www.w3.org/2000/svg">
 <defs id="defs254">
  <linearGradient id="linearGradient1092" x1="7.9373" x2="7.9373" y1="15.081" y2="1.852" gradientTransform="scale(3.7796)" gradientUnits="userSpaceOnUse">
   <stop id="stop244" stop-color="#f4460c" offset=".01"/>
   <stop id="stop246" stop-color="#fba31f" offset=".99271"/>
  </linearGradient>
  <linearGradient id="linearGradient1138" x1="399.57" x2="399.57" y1="545.8" y2="517.8" gradientTransform="matrix(2.1429,0,0,2.1429,-826.36,-1107.5)" gradientUnits="userSpaceOnUse">
   <stop id="stop249" stop-color="#3889e9" offset="0"/>
   <stop id="stop251" stop-color="#5ea5fb" offset="1"/>
  </linearGradient>
  <filter id="filter3534" x="-.048" y="-.048" width="1.096" height="1.096" color-interpolation-filters="sRGB">
   <feGaussianBlur id="feGaussianBlur3536" stdDeviation="1.12004"/>
  </filter>
  <filter id="filter1045" x="-.094966" y="-.12518" width="1.1899" height="1.2504" color-interpolation-filters="sRGB">
   <feGaussianBlur id="feGaussianBlur1047" stdDeviation="1.2288184"/>
  </filter>
 </defs>
 <rect id="rect256" width="64" height="64" rx="0" ry="0" fill="none" stroke-linecap="round" stroke-linejoin="round" stroke-width="1.4464" style="paint-order:stroke fill markers"/>
 <rect id="rect260-5" x="3.999" y="3.999" width="56.002" height="56.002" rx="13.002" ry="13.002" filter="url(#filter3534)" opacity=".3" stroke-width="3.7796"/>
 <rect id="rect260" x="4" y="3.9686" width="56.002" height="56.002" rx="13.002" ry="13.002" fill="url(#linearGradient1092)" stroke-width="3.7796"/>
 <circle id="circle262" cx="32.02" cy="32.044" r="30.001" fill-opacity="0" stroke-width="1.5715"/>
 <circle id="circle264" cx="32.02" cy="32.044" r="0" fill="url(#linearGradient1138)" stroke-width="1.5715"/>
 <path id="path9-3" d="m43.244 20.22c-2.3495 0-4.2835 1.934-4.2835 4.2835 0 2.3495 1.934 4.2835 4.2835 4.2835 2.3495 0 4.2835-1.934 4.2835-4.2835 0-2.3495-1.934-4.2835-4.2835-4.2835zm-9.5371 0.0771c-0.10173-0.0022-0.20239 0-0.30306 0.0042-1.4553 0.06854-2.78 0.87597-3.5082 2.1374-0.57291 0.99484-0.72176 2.1803-0.41442 3.2865l-5.6692 3.2747c-0.80529-0.82028-1.9072-1.2829-3.0563-1.284-2.3506 0-4.2835 1.934-4.2835 4.2835 0 2.3506 1.9329 4.2835 4.2835 4.2835 1.148-1e-3 2.2488-0.46368 3.053-1.284l5.6702 3.2758c-0.30734 1.1062-0.15742 2.2906 0.4155 3.2854 0.7646 1.3236 2.1814 2.1428 3.7106 2.1428 0.75175 0 1.4906-0.19811 2.1417-0.57398 1.3247-0.7646 2.1428-2.1814 2.1428-3.7106 0-0.75175-0.19811-1.4906-0.57398-2.1417-0.7646-1.3236-2.1814-2.1417-3.7095-2.1417-0.75175 0-1.4917 0.19811-2.1428 0.57506-0.33625 0.19383-0.64359 0.43156-0.91559 0.70891l-5.6702-3.2736c0.10494-0.37373 0.15956-0.75924 0.16063-1.1458 0-0.38765-0.05248-0.77316-0.15635-1.1458l5.6702-3.2736c0.26986 0.27628 0.5772 0.51509 0.91131 0.70891 0.65108 0.37694 1.3911 0.57506 2.1428 0.57506 1.5281 0 2.9449-0.81814 3.7095-2.1417 0.37587-0.65109 0.57398-1.39 0.57398-2.1417 0-1.5292-0.81814-2.946-2.1428-3.7105-0.6211-0.35874-1.3236-0.55578-2.0411-0.57291zm9.5371 14.915c-2.3505 0-4.2835 1.934-4.2835 4.2835 0 2.3506 1.9329 4.2835 4.2835 4.2835 2.3495 0 4.2835-1.9329 4.2835-4.2835 0-2.3495-1.934-4.2835-4.2835-4.2835z" fill="#090909" filter="url(#filter1045)" opacity=".6" stroke-width="1.0709"/>
 <path id="path9" d="m43.244 20.22c-2.3495 0-4.2835 1.934-4.2835 4.2835 0 2.3495 1.934 4.2835 4.2835 4.2835 2.3495 0 4.2835-1.934 4.2835-4.2835 0-2.3495-1.934-4.2835-4.2835-4.2835zm-9.5371 0.0771c-0.10173-0.0022-0.20239 0-0.30306 0.0042-1.4553 0.06854-2.78 0.87597-3.5082 2.1374-0.57291 0.99484-0.72176 2.1803-0.41442 3.2865l-5.6692 3.2747c-0.80529-0.82028-1.9072-1.2829-3.0563-1.284-2.3506 0-4.2835 1.934-4.2835 4.2835 0 2.3506 1.9329 4.2835 4.2835 4.2835 1.148-1e-3 2.2488-0.46368 3.053-1.284l5.6702 3.2758c-0.30734 1.1062-0.15742 2.2906 0.4155 3.2854 0.7646 1.3236 2.1814 2.1428 3.7106 2.1428 0.75175 0 1.4906-0.19811 2.1417-0.57398 1.3247-0.7646 2.1428-2.1814 2.1428-3.7106 0-0.75175-0.19811-1.4906-0.57398-2.1417-0.7646-1.3236-2.1814-2.1417-3.7095-2.1417-0.75175 0-1.4917 0.19811-2.1428 0.57506-0.33625 0.19383-0.64359 0.43156-0.91559 0.70891l-5.6702-3.2736c0.10494-0.37373 0.15956-0.75924 0.16063-1.1458 0-0.38765-0.05248-0.77316-0.15635-1.1458l5.6702-3.2736c0.26986 0.27628 0.5772 0.51509 0.91131 0.70891 0.65108 0.37694 1.3911 0.57506 2.1428 0.57506 1.5281 0 2.9449-0.81814 3.7095-2.1417 0.37587-0.65109 0.57398-1.39 0.57398-2.1417 0-1.5292-0.81814-2.946-2.1428-3.7105-0.6211-0.35874-1.3236-0.55578-2.0411-0.57291zm9.5371 14.915c-2.3505 0-4.2835 1.934-4.2835 4.2835 0 2.3506 1.9329 4.2835 4.2835 4.2835 2.3495 0 4.2835-1.9329 4.2835-4.2835 0-2.3495-1.934-4.2835-4.2835-4.2835z" fill="#fff" stroke-width="1.0709"/>
</svg>
