<?xml version="1.0" encoding="UTF-8"?>
<svg id="svg1443" width="128" height="128" version="1.1" viewBox="0 0 33.867 33.867" xmlns="http://www.w3.org/2000/svg" xmlns:cc="http://creativecommons.org/ns#" xmlns:dc="http://purl.org/dc/elements/1.1/" xmlns:rdf="http://www.w3.org/1999/02/22-rdf-syntax-ns#" xmlns:xlink="http://www.w3.org/1999/xlink">
 <defs id="defs1437">
  <linearGradient id="linearGradient1000">
   <stop id="stop996" stop-color="#001b3b" offset="0"/>
   <stop id="stop1074" stop-color="#001b3b" stop-opacity=".79608" offset=".49323"/>
   <stop id="stop1077" stop-color="#001b3b" stop-opacity=".66275" offset=".58455"/>
   <stop id="stop1081" stop-color="#001b3b" stop-opacity=".58824" offset=".62718"/>
   <stop id="stop1083" stop-color="#001b3b" stop-opacity=".36863" offset=".7331"/>
   <stop id="stop1066" stop-color="#001b3b" stop-opacity=".28627" offset=".77087"/>
   <stop id="stop1070" stop-color="#001b3b" stop-opacity=".13333" offset=".85137"/>
   <stop id="stop1048" stop-color="#001b3b" stop-opacity=".094118" offset=".87903"/>
   <stop id="stop1052" stop-color="#001b3b" stop-opacity=".047059" offset=".92296"/>
   <stop id="stop1006" stop-color="#001b3b" stop-opacity=".0078431" offset=".985"/>
   <stop id="stop998" stop-color="#001b3b" stop-opacity="0" offset="1"/>
  </linearGradient>
  <linearGradient id="linearGradient1632" x1="132.21" x2="132.21" y1="42.152" y2="70.68" gradientTransform="matrix(.97573 0 0 .97573 -111.77 -37.183)" gradientUnits="userSpaceOnUse">
   <stop id="stop1626" stop-color="#fafafc" offset="0"/>
   <stop id="stop1628" stop-color="#e2e6ea" offset="1"/>
  </linearGradient>
  <linearGradient id="linearGradient915" x1="16.482" x2="9.1071" y1="23.815" y2="6.1425" gradientUnits="userSpaceOnUse">
   <stop id="stop909" stop-color="#1760e7" offset="0"/>
   <stop id="stop911" stop-color="#1ca5ff" offset="1"/>
  </linearGradient>
  <linearGradient id="linearGradient923" x1="13.541" x2="8.356" y1="26.044" y2="16.995" gradientUnits="userSpaceOnUse">
   <stop id="stop917" stop-color="#e74c3c" offset="0"/>
   <stop id="stop919" stop-color="#e77514" stop-opacity=".97" offset="1"/>
  </linearGradient>
  <linearGradient id="linearGradient931" x1="26.649" x2="24.139" y1="21.438" y2="7.2926" gradientUnits="userSpaceOnUse">
   <stop id="stop925" stop-color="#5dc15c" offset="0"/>
   <stop id="stop927" stop-color="#8de526" offset="1"/>
  </linearGradient>
  <radialGradient id="radialGradient1002" cx="23.887" cy="18.077" r="4.9804" gradientTransform="matrix(1.3354 0 0 1.3354 -8.1443 -5.9095)" gradientUnits="userSpaceOnUse" xlink:href="#linearGradient1000"/>
  <radialGradient id="radialGradient1087" cx="23.887" cy="18.077" r="4.9804" gradientTransform="matrix(1.3354 0 0 1.3354 -19.904 .055625)" gradientUnits="userSpaceOnUse" xlink:href="#linearGradient1000"/>
  <radialGradient id="radialGradient1091" cx="23.887" cy="18.077" r="4.9804" gradientTransform="matrix(1.3354 0 0 1.3354 -19.759 -12.775)" gradientUnits="userSpaceOnUse" xlink:href="#linearGradient1000"/>
 </defs>
 <metadata id="metadata1440">
  <rdf:RDF>
   <cc:Work rdf:about="">
    <dc:format>image/svg+xml</dc:format>
    <dc:type rdf:resource="http://purl.org/dc/dcmitype/StillImage"/>
    <dc:title/>
   </cc:Work>
  </rdf:RDF>
 </metadata>
 <g id="layer1">
  <g id="g1702" transform="matrix(.97573 0 0 .97573 -65.737 -37.183)" fill="none" opacity=".295" stroke="#000" stroke-linecap="round" stroke-linejoin="round" stroke-opacity=".02">
   <rect id="rect1634" x="69.84" y="40.71" width="29.811" height="29.811" rx="6.6099" ry="6.6099" stroke-width=".1"/>
   <rect id="rect1638" x="69.84" y="40.71" width="29.811" height="29.811" rx="6.6099" ry="6.6099" stroke-width=".2"/>
   <rect id="rect1640" x="69.84" y="40.71" width="29.811" height="29.811" rx="6.6099" ry="6.6099" stroke-width=".3"/>
   <rect id="rect1642" x="69.84" y="40.71" width="29.811" height="29.811" rx="6.6099" ry="6.6099" stroke-width=".4"/>
   <rect id="rect1644" x="69.84" y="40.71" width="29.811" height="29.811" rx="6.6099" ry="6.6099" stroke-width=".5"/>
   <rect id="rect1646" x="69.84" y="40.71" width="29.811" height="29.811" rx="6.6099" ry="6.6099" stroke-width=".6"/>
   <rect id="rect1648" x="69.84" y="40.71" width="29.811" height="29.811" rx="6.6099" ry="6.6099" stroke-width=".7"/>
   <rect id="rect1650" x="69.84" y="40.71" width="29.811" height="29.811" rx="6.6099" ry="6.6099" stroke-width=".8"/>
   <rect id="rect1652" x="69.84" y="40.71" width="29.811" height="29.811" rx="6.6099" ry="6.6099"/>
   <rect id="rect1654" x="69.84" y="40.71" width="29.811" height="29.811" rx="6.6099" ry="6.6099" stroke-width="1.2"/>
   <rect id="rect1656" x="69.84" y="40.71" width="29.811" height="29.811" rx="6.6099" ry="6.6099" stroke-width="1.4"/>
   <rect id="rect1658" x="69.84" y="40.71" width="29.811" height="29.811" rx="6.6099" ry="6.6099" stroke-width="1.6"/>
   <rect id="rect1660" x="69.84" y="40.71" width="29.811" height="29.811" rx="6.6099" ry="6.6099" stroke-width="1.8"/>
   <rect id="rect1662" x="69.84" y="40.71" width="29.811" height="29.811" rx="6.6099" ry="6.6099" stroke-width="2"/>
   <rect id="rect1664" x="69.84" y="40.71" width="29.811" height="29.811" rx="6.6099" ry="6.6099" stroke-width="2.2"/>
   <rect id="rect1666" x="69.84" y="40.71" width="29.811" height="29.811" rx="6.6099" ry="6.6099" stroke-width="2.6"/>
   <rect id="rect1668" x="69.84" y="40.71" width="29.811" height="29.811" rx="6.6099" ry="6.6099" stroke-width="3"/>
   <rect id="rect1670" x="69.84" y="40.71" width="29.811" height="29.811" rx="6.6099" ry="6.6099" stroke-width="3.4"/>
   <rect id="rect1672" x="69.84" y="40.71" width="29.811" height="29.811" rx="6.6099" ry="6.6099" stroke-width="3.8"/>
   <rect id="rect1674" x="69.84" y="40.71" width="29.811" height="29.811" rx="6.6099" ry="6.6099" stroke-width="4.2"/>
   <rect id="rect1676" x="69.84" y="40.71" width="29.811" height="29.811" rx="6.6099" ry="6.6099" stroke-width="4.6"/>
   <rect id="rect1678" x="69.84" y="40.71" width="29.811" height="29.811" rx="6.6099" ry="6.6099" stroke-width="5"/>
  </g>
  <rect id="rect849" x="2.4074" y="2.5392" width="29.087" height="29.087" rx="6.4495" ry="6.4495" fill="url(#linearGradient1632)" stroke-linecap="round" stroke-linejoin="round" stroke-width="2.6877"/>
  <g id="g1096" transform="translate(.26416 .43831)" opacity=".34163" stroke-width=".83136">
   <circle id="circle994" cx="23.754" cy="18.231" r="6.6509" fill="url(#radialGradient1002)"/>
   <circle id="circle1085" cx="11.995" cy="24.196" r="6.6509" fill="url(#radialGradient1087)"/>
   <circle id="circle1089" cx="12.14" cy="11.365" r="6.6509" fill="url(#radialGradient1091)"/>
  </g>
  <circle id="circle10" cx="12.058" cy="10.607" r="4.9804" fill="url(#linearGradient915)" stroke-width=".62255"/>
  <circle id="circle14" cx="23.887" cy="18.077" r="4.9804" fill="url(#linearGradient931)" stroke-width=".62255"/>
  <circle id="circle18" cx="12.058" cy="23.68" r="4.9804" fill="url(#linearGradient923)" stroke-width=".62255"/>
 </g>
</svg>
