<?xml version="1.0" encoding="UTF-8"?>
<svg id="svg6" width="128" height="128" version="1.1" viewBox="0 0 33.867 33.867" xmlns="http://www.w3.org/2000/svg" xmlns:cc="http://creativecommons.org/ns#" xmlns:dc="http://purl.org/dc/elements/1.1/" xmlns:rdf="http://www.w3.org/1999/02/22-rdf-syntax-ns#" xmlns:xlink="http://www.w3.org/1999/xlink">
 <metadata id="metadata174">
  <rdf:RDF>
   <cc:Work rdf:about="">
    <dc:format>image/svg+xml</dc:format>
    <dc:type rdf:resource="http://purl.org/dc/dcmitype/StillImage"/>
   </cc:Work>
  </rdf:RDF>
 </metadata>
 <defs id="defs2">
  <linearGradient id="linearGradient1632" x1="132.16" x2="132.21" y1="40.946" y2="70.68" gradientTransform="matrix(.97573 0 0 .97573 -111.77 -37.203)" gradientUnits="userSpaceOnUse">
   <stop id="stop1626" stop-color="#343236" offset="0"/>
   <stop id="stop10443" stop-color="#2a2a2d" offset=".072561"/>
   <stop id="stop11351" stop-color="#151919" offset=".43738"/>
   <stop id="stop1628" stop-color="#050115" offset="1"/>
  </linearGradient>
  <linearGradient id="linearGradient845" x1="7.585" x2="121.64" y1="64.171" y2="64.171" gradientTransform="matrix(.26458 0 0 .26458 -34.693 -6.9045)" gradientUnits="userSpaceOnUse">
   <stop id="stop839" stop-color="#1a1a1a" offset="0"/>
   <stop id="stop841" stop-color="#292929" offset="1"/>
  </linearGradient>
  <linearGradient id="linearGradient1109" x1="18.714" x2="18.714" y1="53.688" y2="5.0389" gradientUnits="userSpaceOnUse">
   <stop id="stop1103" stop-color="#f26265" offset="0"/>
   <stop id="stop1105" stop-color="#fff" offset="1"/>
  </linearGradient>
 </defs>
 <g id="layer1">
  <g id="g1702" transform="matrix(.97573 0 0 .97573 -65.748 -37.203)" fill="none" opacity=".29677" stroke="#000" stroke-linecap="round" stroke-linejoin="round" stroke-opacity=".02">
   <rect id="rect1634" x="69.84" y="40.71" width="29.811" height="29.811" rx="6.6099" ry="6.6099" stroke-width=".1"/>
   <rect id="rect1638" x="69.84" y="40.71" width="29.811" height="29.811" rx="6.6099" ry="6.6099" stroke-width=".2"/>
   <rect id="rect1640" x="69.84" y="40.71" width="29.811" height="29.811" rx="6.6099" ry="6.6099" stroke-width=".3"/>
   <rect id="rect1642" x="69.84" y="40.71" width="29.811" height="29.811" rx="6.6099" ry="6.6099" stroke-width=".4"/>
   <rect id="rect1644" x="69.84" y="40.71" width="29.811" height="29.811" rx="6.6099" ry="6.6099" stroke-width=".5"/>
   <rect id="rect1646" x="69.84" y="40.71" width="29.811" height="29.811" rx="6.6099" ry="6.6099" stroke-width=".6"/>
   <rect id="rect1648" x="69.84" y="40.71" width="29.811" height="29.811" rx="6.6099" ry="6.6099" stroke-width=".7"/>
   <rect id="rect1650" x="69.84" y="40.71" width="29.811" height="29.811" rx="6.6099" ry="6.6099" stroke-width=".8"/>
   <rect id="rect1652" x="69.84" y="40.71" width="29.811" height="29.811" rx="6.6099" ry="6.6099"/>
   <rect id="rect1654" x="69.84" y="40.71" width="29.811" height="29.811" rx="6.6099" ry="6.6099" stroke-width="1.2"/>
   <rect id="rect1656" x="69.84" y="40.71" width="29.811" height="29.811" rx="6.6099" ry="6.6099" stroke-width="1.4"/>
   <rect id="rect1658" x="69.84" y="40.71" width="29.811" height="29.811" rx="6.6099" ry="6.6099" stroke-width="1.6"/>
   <rect id="rect1660" x="69.84" y="40.71" width="29.811" height="29.811" rx="6.6099" ry="6.6099" stroke-width="1.8"/>
   <rect id="rect1662" x="69.84" y="40.71" width="29.811" height="29.811" rx="6.6099" ry="6.6099" stroke-width="2"/>
   <rect id="rect1664" x="69.84" y="40.71" width="29.811" height="29.811" rx="6.6099" ry="6.6099" stroke-width="2.2"/>
   <rect id="rect1666" x="69.84" y="40.71" width="29.811" height="29.811" rx="6.6099" ry="6.6099" stroke-width="2.6"/>
   <rect id="rect1668" x="69.84" y="40.71" width="29.811" height="29.811" rx="6.6099" ry="6.6099" stroke-width="3"/>
   <rect id="rect1670" x="69.84" y="40.71" width="29.811" height="29.811" rx="6.6099" ry="6.6099" stroke-width="3.4"/>
   <rect id="rect1672" x="69.84" y="40.71" width="29.811" height="29.811" rx="6.6099" ry="6.6099" stroke-width="3.8"/>
   <rect id="rect1674" x="69.84" y="40.71" width="29.811" height="29.811" rx="6.6099" ry="6.6099" stroke-width="4.2"/>
   <rect id="rect1676" x="69.84" y="40.71" width="29.811" height="29.811" rx="6.6099" ry="6.6099" stroke-width="4.6"/>
   <rect id="rect1678" x="69.84" y="40.71" width="29.811" height="29.811" rx="6.6099" ry="6.6099" stroke-width="5"/>
  </g>
  <rect id="rect849" x="2.4065" y="2.5186" width="29.087" height="29.087" rx="6.4495" ry="6.4495" fill="url(#linearGradient1632)" stroke-linecap="round" stroke-linejoin="round" stroke-width="2.6877"/>
  <g id="g6677">
   <path id="path6679" d="m7.1856-23.895 5.454 5.3659c1.5701 1.3009 2.6779 1.2744 4.1153 0.02901l5.4835-5.3949" color="#000000" fill="none" stroke-width=".8"/>
  </g>
  <path id="path6703" d="m41.619-13.641 7.5195-7.7708" color="#000000" fill="none" stroke-width=".6"/>
  <path id="path6697" d="m63.366-13.641-7.5223-7.6006" color="#000000" fill="none" stroke-width=".6"/>
  <path id="path6691" d="m41.242-29.284 8.8556 8.8325c1.7498 1.5783 2.9157 1.6977 4.709 0.10074l11.969-11.168" color="#000000" fill="none" stroke-width=".7"/>
  <circle id="circle4157" cx="-17.597" cy="10.074" r="0" fill="url(#linearGradient845)"/>
  <path id="path934" d="m9.2584 9.6697c-0.51005 0-0.84702 0.32193-0.84702 0.72175 0 0.39993 0.33696 0.82513 0.84702 0.82513h0.59844s0.71392 0.1883 0.68661 0.78388c-0.18502 2.5332-1.1687 9.3972-1.4749 9.958-0.38614 0.5297-0.63693 0.60054-1.2832 0.60054-0.51005 0-0.92067 0.42514-0.92067 0.82502 0 0.39988 0.41062 0.7218 0.92067 0.7218h4.8575c0.51005 0 0.92435-0.32193 0.92435-0.7218 0-0.39988-0.4143-0.82502-0.92435-0.82502-1.1089 0.14009-1.4008-0.14184-1.7-0.95361-0.15258-0.79074-0.09979-1.934 0.08938-3.9901 0.3405-3.7007 0.52857-4.3576 1.0271-4.0556 0.34373 0.20814 2.8387 5.3036 3.6582 7.7653 0.3378 1.0147 0.74353 1.8029 0.90197 1.7509 0.15844-0.05172 0.65169-1.0647 1.0962-2.2514 1.0048-2.6829 2.993-6.5916 3.3216-6.9519 0.43616-0.4784 0.69772 0.26269 1.3522 4.26 0.61928 3.7821 0.6225 3.7976 0.12516 4.3361-0.17986 0.17257-0.55874 0.09022-0.80507 0.09022-0.51005 0-0.92435 0.42514-0.92435 0.82502 0 0.39988 0.4143 0.7218 0.92435 0.7218h4.8575c0.51005 0 0.92067-0.32192 0.92067-0.7218 0-0.39988-0.41062-0.82502-0.92067-0.82502-0.81457 0.0925-0.77606-0.15466-1.0285-0.76233-0.77627-2.3087-1.9472-8.76-1.6688-9.847 0.30583-0.65287 0.51461-0.73304 1.2242-0.73304 0.51005 0 0.84702-0.42519 0.84702-0.82513 0-0.39983-0.33696-0.72175-0.84702-0.72175h-4.7875c-0.51005 0-1.068 0.069196-1.068 0.72175 0 0.77904 0.74454 0.64473 1.068 1.0312 0.47997 0.45917 0.13498 0.6404-0.06164 1.1109-0.8822 1.6387-1.5383 3.5964-2.4058 5.1526-0.26002 0.46134-0.54488 0.81786-0.78219 0.80734-0.36981-0.03763-1.6003-3.2496-2.4024-4.8097-0.30269-0.71206-0.50182-0.93252-0.68554-1.3699-0.51004-0.84348-0.01637-1.0505 0.63102-1.1873 0.299-0.11832 0.52181-0.35657 0.514-0.735-0.01384-0.66819-0.50615-0.72175-1.0162-0.72175z" fill="url(#linearGradient1109)" stroke-width=".51558"/>
 </g>
</svg>
