<?xml version="1.0" encoding="UTF-8"?>
<svg id="svg1829" width="128" height="128" version="1.1" viewBox="0 0 33.867 33.867" xmlns="http://www.w3.org/2000/svg" xmlns:cc="http://creativecommons.org/ns#" xmlns:dc="http://purl.org/dc/elements/1.1/" xmlns:rdf="http://www.w3.org/1999/02/22-rdf-syntax-ns#" xmlns:xlink="http://www.w3.org/1999/xlink">
 <defs id="defs1823">
  <radialGradient id="radialGradient908" cx="16.937" cy="3.2428" r="14.544" gradientTransform="matrix(4.4792 0 0 2.0392 -58.927 -3.3698)" gradientUnits="userSpaceOnUse">
   <stop id="stop930" stop-color="#ffe447" offset="0"/>
   <stop id="stop932" stop-color="#ffb702" offset="1"/>
  </radialGradient>
 </defs>
 <metadata id="metadata1826">
  <rdf:RDF>
   <cc:Work rdf:about="">
    <dc:format>image/svg+xml</dc:format>
    <dc:type rdf:resource="http://purl.org/dc/dcmitype/StillImage"/>
   </cc:Work>
  </rdf:RDF>
 </metadata>
 <g id="layer1">
  <g id="g1702" transform="matrix(.97573 0 0 .97573 -65.587 -37.192)" fill="none" opacity=".29676" stroke="#000" stroke-linecap="round" stroke-linejoin="round" stroke-opacity=".02">
   <rect id="rect1634" x="69.84" y="40.71" width="29.811" height="29.811" rx="6.6099" ry="6.6099" stroke-width=".1"/>
   <rect id="rect1638" x="69.84" y="40.71" width="29.811" height="29.811" rx="6.6099" ry="6.6099" stroke-width=".2"/>
   <rect id="rect1640" x="69.84" y="40.71" width="29.811" height="29.811" rx="6.6099" ry="6.6099" stroke-width=".3"/>
   <rect id="rect1642" x="69.84" y="40.71" width="29.811" height="29.811" rx="6.6099" ry="6.6099" stroke-width=".4"/>
   <rect id="rect1644" x="69.84" y="40.71" width="29.811" height="29.811" rx="6.6099" ry="6.6099" stroke-width=".5"/>
   <rect id="rect1646" x="69.84" y="40.71" width="29.811" height="29.811" rx="6.6099" ry="6.6099" stroke-width=".6"/>
   <rect id="rect1648" x="69.84" y="40.71" width="29.811" height="29.811" rx="6.6099" ry="6.6099" stroke-width=".7"/>
   <rect id="rect1650" x="69.84" y="40.71" width="29.811" height="29.811" rx="6.6099" ry="6.6099" stroke-width=".8"/>
   <rect id="rect1652" x="69.84" y="40.71" width="29.811" height="29.811" rx="6.6099" ry="6.6099"/>
   <rect id="rect1654" x="69.84" y="40.71" width="29.811" height="29.811" rx="6.6099" ry="6.6099" stroke-width="1.2"/>
   <rect id="rect1656" x="69.84" y="40.71" width="29.811" height="29.811" rx="6.6099" ry="6.6099" stroke-width="1.4"/>
   <rect id="rect1658" x="69.84" y="40.71" width="29.811" height="29.811" rx="6.6099" ry="6.6099" stroke-width="1.6"/>
   <rect id="rect1660" x="69.84" y="40.71" width="29.811" height="29.811" rx="6.6099" ry="6.6099" stroke-width="1.8"/>
   <rect id="rect1662" x="69.84" y="40.71" width="29.811" height="29.811" rx="6.6099" ry="6.6099" stroke-width="2"/>
   <rect id="rect1664" x="69.84" y="40.71" width="29.811" height="29.811" rx="6.6099" ry="6.6099" stroke-width="2.2"/>
   <rect id="rect1666" x="69.84" y="40.71" width="29.811" height="29.811" rx="6.6099" ry="6.6099" stroke-width="2.6"/>
   <rect id="rect1668" x="69.84" y="40.71" width="29.811" height="29.811" rx="6.6099" ry="6.6099" stroke-width="3"/>
   <rect id="rect1670" x="69.84" y="40.71" width="29.811" height="29.811" rx="6.6099" ry="6.6099" stroke-width="3.4"/>
   <rect id="rect1672" x="69.84" y="40.71" width="29.811" height="29.811" rx="6.6099" ry="6.6099" stroke-width="3.8"/>
   <rect id="rect1674" x="69.84" y="40.71" width="29.811" height="29.811" rx="6.6099" ry="6.6099" stroke-width="4.2"/>
   <rect id="rect1676" x="69.84" y="40.71" width="29.811" height="29.811" rx="6.6099" ry="6.6099" stroke-width="4.6"/>
   <rect id="rect1678" x="69.84" y="40.71" width="29.811" height="29.811" rx="6.6099" ry="6.6099" stroke-width="5"/>
  </g>
  <rect id="rect849-5" x="2.5579" y="2.5293" width="29.087" height="29.087" rx="6.4495" ry="6.4495" fill="url(#radialGradient908)" stroke-linecap="round" stroke-linejoin="round" stroke-width="2.6877"/>
  <path id="path6" d="m13.064 9.1557c-0.10527 0-0.19959 0.016725-0.27081 0.036498-0.4204 0.11672-0.98586 1.0017-1.7017 2.1895-0.52012 0.86306-1.0679 1.9952-1.0679 2.1108 0 0.2791 0.2363 0.65617 0.37645 0.60116 0.04416-0.01728 0.2756-0.32278 0.51473-0.67991 0.23914-0.35712 0.6032-0.97173 0.81051-1.2427 0.13947-0.18227 0.22936-0.31629 0.28618-0.41294-0.01922 0.14322-0.23884 2.0897-0.48784 3.9661-0.24909 1.8771-0.78363 4.0147-0.86621 4.6076-0.2668 1.9158-0.18934 2.6236 0.29194 2.6236 0.16005 0 1.0158-0.44077 1.1524-0.59348 0.07937-0.08874 0.18584-0.3651 0.27657-0.72216 0.82342-3.2405 2.4816-6.4131 3.6127-7.8958 0.20327-0.26646 0.3776-0.68092 0.38797-0.67031 0.01041 0.01059-0.03177 0.52136-0.09219 0.8835-0.51222 3.0707-0.74376 4.9849-0.7529 5.906-0.0057 0.60041 0.0093 0.76387 0.09411 0.92575 0.09676 0.1849 0.11701 0.19538 0.34572 0.16902 0.24045-0.02774 0.88318-0.32534 1.0679-0.49361 0.05263-0.04793 0.24011-0.5411 0.41486-1.0967 0.54291-1.7261 1.4228-3.4946 2.2107-4.7037 0.35209-0.54029 1.0308-1.4093 1.0698-1.3694 0.01319 0.01357-0.10717 0.71687-0.26697 1.5634-0.71105 3.7668-0.68309 5.6652-0.72545 6.874-0.03354 0.95648 0.01691 1.3108 0.26697 1.8515 0.22918 0.49566 0.56566 0.84864 1.0429 1.0928 0.43034 0.2202 0.88668 0.26646 1.2407 0.14021 0.0987-0.03518 0.18054-0.10202 0.18054-0.14789 0-0.0459-0.07952-0.24292-0.17669-0.43983-0.09717-0.19692-0.23982-0.61108-0.31691-0.91807-0.19224-0.76562-0.19032-2.0882 0.0076-3.8836 0.24939-2.2621 0.03992-3.028 0.76194-6.5763 0.06432-0.31604 0.11524-0.65291 0.11524-0.74713 0-0.28344-0.14889-0.4922-0.51281-0.71832-0.45606-0.28336-0.87922-0.33441-1.283-0.15173-0.85837 0.38837-1.809 1.4932-2.6102 3.1825-0.27401 0.57775-0.72184 1.6638-0.8835 2.1492-0.02024 0.06067-0.04571 0.10095-0.05761 0.08835-0.02223-0.02353 0.16134-1.1125 0.50513-2.6582 0.35647-1.6026 0.44307-2.1121 0.37645-2.2395-0.15523-0.2967-0.80231-0.64146-1.2062-0.64342-0.83091-0.0043-1.8224 1.0112-2.662 2.7235-0.28277 0.5767-0.88026 2.2744-1.1236 3.0289-0.10338 0.32052-0.19008 0.5289-0.19206 0.4648-0.0035-0.11215-0.03618-1.4849 0.67991-5.7888 0.35555-2.1369 0.35662-2.1268 0.05955-2.276-0.16605-0.083328-0.5773-0.10947-0.8931-0.10947zm9.8779 12.878c-0.14445 2e-3 -0.14653 0.02633-0.12484 0.08835 0.07575 0.21646 0.15941 0.70255 0.15941 0.92191v0.22856l0.47056 0.06915c0.56906 0.08454 1.2362 0.27832 1.7036 0.49553 0.19025 0.08842 0.35965 0.16181 0.37837 0.16326 0.01875 0.0014 0.08612-0.14859 0.14789-0.33419 0.09647-0.28987 0.10202-0.37298 0.03841-0.58772-0.10903-0.36816-0.25721-0.56214-0.52626-0.69527-0.30989-0.15333-1.0517-0.28881-1.8093-0.33035-0.21431-0.01171-0.35124-0.02046-0.43791-0.01922zm-4.4847 0.88542c-0.22277 0-1.4393 0.21712-2.1434 0.38221-0.33063 0.07751-0.83006 0.19258-1.1101 0.25737-0.28007 0.06478-0.95545 0.23354-1.5 0.37261-0.54458 0.13908-1.1935 0.29522-1.4424 0.34764-0.4865 0.10243-0.76389 0.19329-0.7625 0.2516 2e-3 0.09805 0.30403 0.35532 0.41678 0.35532 0.02872 0 0.57651-0.07835 1.2177-0.17286 1.8026-0.26573 5.0914-0.63176 5.7312-0.63766 0.02195-2.31e-4 0.0052-0.10252-0.03841-0.22856-0.0435-0.12603-0.11092-0.38604-0.14789-0.57812-0.06266-0.32556-0.07612-0.34956-0.22088-0.34956z" opacity=".1" stroke-width=".49169"/>
  <path id="path8" d="m13.064 8.664c-0.10527 0-0.19959 0.016725-0.27081 0.036498-0.4204 0.11672-0.98586 1.0017-1.7017 2.1895-0.52012 0.86306-1.0679 1.9952-1.0679 2.1108 0 0.2791 0.2363 0.65617 0.37645 0.60116 0.04416-0.01728 0.2756-0.32278 0.51473-0.67991 0.23914-0.35712 0.6032-0.97173 0.81051-1.2427 0.13947-0.18227 0.22936-0.31629 0.28618-0.41294-0.01922 0.14322-0.23884 2.0897-0.48784 3.9661-0.24909 1.8771-0.78363 4.0147-0.86621 4.6076-0.2668 1.9158-0.18934 2.6236 0.29194 2.6236 0.16005 0 1.0158-0.44077 1.1524-0.59348 0.07937-0.08874 0.18584-0.36509 0.27657-0.72216 0.82342-3.2405 2.4816-6.4131 3.6127-7.8958 0.20327-0.26646 0.3776-0.68092 0.38797-0.67031 0.01041 0.01059-0.03177 0.52136-0.09219 0.8835-0.51222 3.0707-0.74376 4.9849-0.7529 5.906-0.0057 0.60041 0.0093 0.76388 0.09411 0.92575 0.09676 0.1849 0.11701 0.19538 0.34572 0.16902 0.24045-0.02774 0.88318-0.32534 1.0679-0.49361 0.05263-0.04793 0.24011-0.5411 0.41486-1.0967 0.54291-1.7261 1.4228-3.4946 2.2107-4.7037 0.35209-0.54029 1.0308-1.4093 1.0698-1.3694 0.01319 0.01357-0.10717 0.71687-0.26697 1.5634-0.71105 3.7668-0.68309 5.6652-0.72545 6.874-0.03354 0.95648 0.01691 1.3108 0.26697 1.8515 0.22918 0.49566 0.56566 0.84864 1.0429 1.0928 0.43034 0.2202 0.88668 0.26646 1.2407 0.14021 0.0987-0.03518 0.18054-0.10204 0.18054-0.14789 0-0.0459-0.07952-0.24292-0.17669-0.43983-0.09717-0.19692-0.23982-0.61108-0.31691-0.91807-0.19224-0.76562-0.19032-2.0882 0.0076-3.8836 0.24939-2.2621 0.03992-3.028 0.76194-6.5763 0.06432-0.31604 0.11524-0.65292 0.11524-0.74713 0-0.28344-0.14889-0.4922-0.51281-0.71832-0.45606-0.28336-0.87922-0.33442-1.283-0.15173-0.85837 0.38837-1.809 1.4932-2.6102 3.1825-0.27401 0.57775-0.72184 1.6638-0.8835 2.1492-0.02024 0.06067-0.04571 0.10094-0.05761 0.08835-0.02223-0.02353 0.16134-1.1125 0.50513-2.6582 0.35647-1.6026 0.44307-2.1121 0.37645-2.2395-0.15525-0.2967-0.80233-0.64146-1.2062-0.64342-0.83091-0.0043-1.8224 1.0112-2.662 2.7235-0.28277 0.57669-0.88026 2.2744-1.1236 3.0289-0.10338 0.32052-0.19008 0.5289-0.19206 0.4648-0.0035-0.11215-0.03618-1.4849 0.67991-5.7888 0.35555-2.1369 0.35662-2.1268 0.05955-2.276-0.16603-0.083333-0.57728-0.10948-0.89309-0.10948zm9.8779 12.78c-0.14445 2e-3 -0.14653 0.02633-0.12484 0.08835 0.07575 0.21646 0.15941 0.80091 0.15941 1.0203v0.22856l0.47056 0.06915c0.56906 0.08454 1.2362 0.27832 1.7036 0.49553 0.19025 0.08842 0.35965 0.16181 0.37837 0.16326 0.01875 0.0014 0.08612-0.14859 0.14789-0.33419 0.09647-0.28987 0.10202-0.37298 0.03841-0.58772-0.10903-0.36816-0.25721-0.56214-0.52626-0.69527-0.30989-0.15333-1.0517-0.38718-1.8093-0.42871-0.21431-0.01171-0.35124-0.02046-0.43791-0.0192zm-4.4847 0.98378c-0.22277 0-1.4393 0.21712-2.1434 0.38221-0.33063 0.07751-0.83006 0.19258-1.1101 0.25737-0.28007 0.06478-0.95545 0.23354-1.5 0.3726-0.54458 0.13908-1.1935 0.29522-1.4424 0.34764-0.4865 0.10243-0.76389 0.19328-0.7625 0.2516 2e-3 0.09805 0.30403 0.35532 0.41678 0.35532 0.02872 0 0.57651-0.07835 1.2177-0.17286 1.8026-0.26573 5.0914-0.63176 5.7312-0.63766 0.02195-2.33e-4 0.0052-0.10252-0.03841-0.22856-0.0435-0.12603-0.11092-0.38604-0.14789-0.57812-0.06266-0.32556-0.07612-0.34956-0.22088-0.34956z" fill="#383838" stroke-width=".49169"/>
 </g>
</svg>
