<?xml version="1.0" encoding="UTF-8"?>
<svg id="svg1829" width="128" height="128" version="1.1" viewBox="0 0 33.867 33.867" xmlns="http://www.w3.org/2000/svg" xmlns:cc="http://creativecommons.org/ns#" xmlns:dc="http://purl.org/dc/elements/1.1/" xmlns:rdf="http://www.w3.org/1999/02/22-rdf-syntax-ns#" xmlns:xlink="http://www.w3.org/1999/xlink">
 <defs id="defs1823">
  <radialGradient id="radialGradient886" cx="17.31" cy="2.5296" r="14.544" gradientTransform="matrix(7.1618 0 0 1.7511 -106.66 -1.9)" gradientUnits="userSpaceOnUse">
   <stop id="stop880" stop-color="#2292ff" offset="0"/>
   <stop id="stop882" stop-color="#5f45ff" offset="1"/>
  </radialGradient>
  <linearGradient id="linearGradient2628" x1="14.805" x2="14.805" y1="13.715" y2="15.733" gradientUnits="userSpaceOnUse">
   <stop id="stop2622" stop-color="#3d70ff" offset="0"/>
   <stop id="stop2624" stop-color="#426aff" offset="1"/>
  </linearGradient>
  <linearGradient id="linearGradient4139" x1="10.175" x2="10.175" y1="9.1216" y2="48.086" gradientUnits="userSpaceOnUse">
   <stop id="stop4133" stop-color="#fff" offset="0"/>
   <stop id="stop4135" stop-color="#5057ff" offset="1"/>
  </linearGradient>
  <linearGradient id="linearGradient6116" x1="9.4962" x2="9.4962" y1="17.417" y2="25.918" gradientUnits="userSpaceOnUse">
   <stop id="stop6110" stop-color="#d9dbff" offset="0"/>
   <stop id="stop9800" stop-color="#c6c8ff" offset=".49662"/>
   <stop id="stop6112" stop-color="#aca6ff" offset="1"/>
  </linearGradient>
  <radialGradient id="radialGradient17863" cx="16.047" cy="15.654" r="1.4804" gradientTransform="matrix(2.5584 0 0 1.8585 -25.008 -13.439)" gradientUnits="userSpaceOnUse">
   <stop id="stop17857" stop-color="#000041" stop-opacity=".019466" offset="0"/>
   <stop id="stop17859" stop-color="#000041" offset="1"/>
  </radialGradient>
 </defs>
 <metadata id="metadata1826">
  <rdf:RDF>
   <cc:Work rdf:about="">
    <dc:format>image/svg+xml</dc:format>
    <dc:type rdf:resource="http://purl.org/dc/dcmitype/StillImage"/>
   </cc:Work>
  </rdf:RDF>
 </metadata>
 <g id="layer1">
  <g id="g1702" transform="matrix(.97573 0 0 .97573 -65.587 -37.192)" fill="none" opacity=".29676" stroke="#000" stroke-linecap="round" stroke-linejoin="round" stroke-opacity=".02">
   <rect id="rect1634" x="69.84" y="40.71" width="29.811" height="29.811" rx="6.6099" ry="6.6099" stroke-width=".1"/>
   <rect id="rect1638" x="69.84" y="40.71" width="29.811" height="29.811" rx="6.6099" ry="6.6099" stroke-width=".2"/>
   <rect id="rect1640" x="69.84" y="40.71" width="29.811" height="29.811" rx="6.6099" ry="6.6099" stroke-width=".3"/>
   <rect id="rect1642" x="69.84" y="40.71" width="29.811" height="29.811" rx="6.6099" ry="6.6099" stroke-width=".4"/>
   <rect id="rect1644" x="69.84" y="40.71" width="29.811" height="29.811" rx="6.6099" ry="6.6099" stroke-width=".5"/>
   <rect id="rect1646" x="69.84" y="40.71" width="29.811" height="29.811" rx="6.6099" ry="6.6099" stroke-width=".6"/>
   <rect id="rect1648" x="69.84" y="40.71" width="29.811" height="29.811" rx="6.6099" ry="6.6099" stroke-width=".7"/>
   <rect id="rect1650" x="69.84" y="40.71" width="29.811" height="29.811" rx="6.6099" ry="6.6099" stroke-width=".8"/>
   <rect id="rect1652" x="69.84" y="40.71" width="29.811" height="29.811" rx="6.6099" ry="6.6099"/>
   <rect id="rect1654" x="69.84" y="40.71" width="29.811" height="29.811" rx="6.6099" ry="6.6099" stroke-width="1.2"/>
   <rect id="rect1656" x="69.84" y="40.71" width="29.811" height="29.811" rx="6.6099" ry="6.6099" stroke-width="1.4"/>
   <rect id="rect1658" x="69.84" y="40.71" width="29.811" height="29.811" rx="6.6099" ry="6.6099" stroke-width="1.6"/>
   <rect id="rect1660" x="69.84" y="40.71" width="29.811" height="29.811" rx="6.6099" ry="6.6099" stroke-width="1.8"/>
   <rect id="rect1662" x="69.84" y="40.71" width="29.811" height="29.811" rx="6.6099" ry="6.6099" stroke-width="2"/>
   <rect id="rect1664" x="69.84" y="40.71" width="29.811" height="29.811" rx="6.6099" ry="6.6099" stroke-width="2.2"/>
   <rect id="rect1666" x="69.84" y="40.71" width="29.811" height="29.811" rx="6.6099" ry="6.6099" stroke-width="2.6"/>
   <rect id="rect1668" x="69.84" y="40.71" width="29.811" height="29.811" rx="6.6099" ry="6.6099" stroke-width="3"/>
   <rect id="rect1670" x="69.84" y="40.71" width="29.811" height="29.811" rx="6.6099" ry="6.6099" stroke-width="3.4"/>
   <rect id="rect1672" x="69.84" y="40.71" width="29.811" height="29.811" rx="6.6099" ry="6.6099" stroke-width="3.8"/>
   <rect id="rect1674" x="69.84" y="40.71" width="29.811" height="29.811" rx="6.6099" ry="6.6099" stroke-width="4.2"/>
   <rect id="rect1676" x="69.84" y="40.71" width="29.811" height="29.811" rx="6.6099" ry="6.6099" stroke-width="4.6"/>
   <rect id="rect1678" x="69.84" y="40.71" width="29.811" height="29.811" rx="6.6099" ry="6.6099" stroke-width="5"/>
  </g>
  <rect id="rect849-5" x="2.5579" y="2.5293" width="29.087" height="29.087" rx="6.4495" ry="6.4495" fill="url(#radialGradient886)" stroke-linecap="round" stroke-linejoin="round" stroke-width="2.6877"/>
  <g id="g18074" fill="#000041" fill-opacity=".070123" stroke-width=".29693">
   <path id="path17982" d="m15.185 9.1951c-2.7417 0-4.9485 2.2888-4.9485 5.1315v2.8024c0 0.10912 0.0034 0.21714 0.0098 0.32453 0.05069 1.9922 0.32992 5.2976 1.5725 6.7128 1.2716 1.4483 4.2372 1.6567 5.4353 1.6567 2.1292 0 3.0778-0.83354 3.0778-0.83354v-1.3694s-1.2842 0.44861-2.8009 0.42168c-1.0415-0.0185-1.9334-0.29207-2.3812-0.96687-0.16446-0.24781-0.13808-0.46495-0.1912-0.82062 0.07511 0.0035 0.15038 0.0057 0.22634 0.0057h4.9491c2.7417 0 4.9485-2.2883 4.9485-5.131v-2.8024c0-2.8427-2.2068-5.1315-4.9485-5.1315z"/>
   <path id="path18061" d="m15.302 9.3894c-2.7417 0-4.9485 2.2888-4.9485 5.1315v2.8024c0 0.10912 0.0034 0.21714 0.0098 0.32453 0.05069 1.9922 0.32992 5.2976 1.5725 6.7128 1.2716 1.4483 4.2372 1.6567 5.4353 1.6567 2.1292 0 3.0778-0.83354 3.0778-0.83354v-1.3694s-1.2842 0.44861-2.8009 0.42168c-1.0415-0.0185-1.9334-0.29207-2.3812-0.96687-0.16446-0.24781-0.13808-0.46495-0.1912-0.82062 0.07511 0.0035 0.15038 0.0057 0.22634 0.0057h4.9491c2.7417 0 4.9485-2.2883 4.9485-5.131v-2.8024c0-2.8427-2.2068-5.1315-4.9485-5.1315z"/>
   <path id="path18063" d="m15.36 9.756c-2.7417 0-4.9485 2.2888-4.9485 5.1315v2.8024c0 0.10912 0.0034 0.21714 0.0098 0.32453 0.05069 1.9922 0.32992 5.2976 1.5725 6.7128 1.2716 1.4483 4.2372 1.6567 5.4353 1.6567 2.1292 0 3.0778-0.83354 3.0778-0.83354v-1.3694s-1.2842 0.44861-2.8009 0.42168c-1.0415-0.0185-1.9334-0.29207-2.3812-0.96687-0.16446-0.24781-0.13808-0.46495-0.1912-0.82062 0.07511 0.0035 0.15038 0.0057 0.22634 0.0057h4.9491c2.7417 0 4.9485-2.2883 4.9485-5.131v-2.8024c0-2.8427-2.2068-5.1315-4.9485-5.1315z"/>
   <path id="path18065" d="m15.454 10.12c-2.7417 0-4.9485 2.2888-4.9485 5.1315v2.8024c0 0.10912 0.0034 0.21714 0.0098 0.32453 0.05069 1.9922 0.32992 5.2976 1.5725 6.7128 1.2716 1.4483 4.2372 1.6567 5.4353 1.6567 2.1292 0 3.0778-0.83354 3.0778-0.83354v-1.3694s-1.2842 0.44861-2.8009 0.42168c-1.0415-0.0185-1.9334-0.29207-2.3812-0.96687-0.16446-0.24781-0.13808-0.46495-0.1912-0.82062 0.07511 0.0035 0.15038 0.0057 0.22634 0.0057h4.9491c2.7417 0 4.9485-2.2883 4.9485-5.131v-2.8024c0-2.8427-2.2068-5.1315-4.9485-5.1315z"/>
   <path id="path18067" d="m15.644 10.51c-2.7417 0-4.9485 2.2888-4.9485 5.1315v2.8024c0 0.10912 0.0034 0.21714 0.0098 0.32453 0.05069 1.9922 0.32992 5.2976 1.5725 6.7128 1.2716 1.4483 4.2372 1.6567 5.4353 1.6567 2.1292 0 3.0778-0.83354 3.0778-0.83354v-1.3694s-1.2842 0.44861-2.8009 0.42168c-1.0415-0.0185-1.9334-0.29207-2.3812-0.96687-0.16446-0.24781-0.13808-0.46495-0.1912-0.82062 0.07511 0.0035 0.15038 0.0057 0.22634 0.0057h4.9491c2.7417 0 4.9485-2.2883 4.9485-5.131v-2.8024c0-2.8427-2.2068-5.1315-4.9485-5.1315z"/>
  </g>
  <path id="path6" d="m10.189 15.773h4.3924s-0.19186 3.9431 0.28564 6.2355c0.09642 0.46293 0.03213 0.70758 0.22162 0.99309 0.44784 0.6748 1.3399 0.94796 2.3814 0.96646 1.5166 0.02693 2.8008-0.4217 2.8008-0.4217v1.3696s-0.94852 0.8338-3.0777 0.8338c-1.1981 0-4.1638-0.20854-5.4354-1.6568-1.837-2.0922-1.5688-8.32-1.5688-8.32z" fill="url(#linearGradient6116)" stroke-width=".29693"/>
  <rect id="rect4" x="10.175" y="9.1216" width="14.846" height="13.065" rx="4.9489" ry="5.1312" fill="url(#linearGradient4139)" stroke-width=".29693"/>
  <circle id="circle17763" cx="14.971" cy="14.512" r="1.5234" fill="#fbfbff" stroke-width=".50779"/>
  <circle id="circle10" cx="15.009" cy="14.609" r="1.4804" fill="url(#linearGradient2628)" stroke-width=".49348"/>
  <circle id="circle17819" cx="15.009" cy="14.609" r="1.4804" fill="url(#radialGradient17863)" opacity=".45522" stroke-width=".49348"/>
 </g>
</svg>
