<?xml version="1.0" encoding="UTF-8"?>
<svg id="svg1926" width="128" height="128" version="1.1" viewBox="0 0 33.867 33.867" xmlns="http://www.w3.org/2000/svg" xmlns:cc="http://creativecommons.org/ns#" xmlns:dc="http://purl.org/dc/elements/1.1/" xmlns:rdf="http://www.w3.org/1999/02/22-rdf-syntax-ns#" xmlns:xlink="http://www.w3.org/1999/xlink">
 <defs id="defs1920">
  <linearGradient id="linearGradient1632" x1="132.21" x2="132.21" y1="42.152" y2="70.68" gradientTransform="matrix(.97573 0 0 .97573 -111.87 -37.241)" gradientUnits="userSpaceOnUse">
   <stop id="stop1626" stop-color="#f8fcfc" offset="0"/>
   <stop id="stop1628" stop-color="#d7e1f4" offset="1"/>
  </linearGradient>
  <linearGradient id="linearGradient1950" x1="130.94" x2="130.94" y1="43.689" y2="67.983" gradientTransform="matrix(.97573 0 0 .97573 -111.87 -37.241)" gradientUnits="userSpaceOnUse">
   <stop id="stop1944" stop-color="#46caff" offset="0"/>
   <stop id="stop1946" stop-color="#1f7fff" offset="1"/>
  </linearGradient>
  <linearGradient id="linearGradient4432" x1="123.66" x2="132.88" y1="55.347" y2="55.347" gradientTransform="matrix(.97573 0 0 .97573 -111.87 -37.241)" gradientUnits="userSpaceOnUse">
   <stop id="stop4426" stop-color="#4056ed" stop-opacity="0" offset="0"/>
   <stop id="stop4428" stop-color="#6c7df0" stop-opacity=".43922" offset="1"/>
  </linearGradient>
  <linearGradient id="linearGradient1825" x1="-202.3" x2="-193.89" y1="58.502" y2="48.214" gradientTransform="matrix(.15254 0 0 .15254 51.285 3.6666)" gradientUnits="userSpaceOnUse">
   <stop id="stop1004" stop-color="#186fe3" stop-opacity="0" offset="0"/>
   <stop id="stop1827" stop-color="#1d40ac" stop-opacity=".87451" offset=".40444"/>
   <stop id="stop1012" stop-color="#1e3aa5" offset=".60953"/>
   <stop id="stop1829" stop-color="#1c3bb3" stop-opacity=".75686" offset=".78534"/>
   <stop id="stop1006" stop-color="#1842e3" stop-opacity="0" offset="1"/>
  </linearGradient>
  <linearGradient id="linearGradient910" x1="-194.6" x2="-188.21" y1="78.258" y2="78.258" gradientTransform="matrix(.14751 -.038847 .038847 .14751 52.57 -3.5582)" gradientUnits="userSpaceOnUse">
   <stop id="stop904-9" stop-color="#283e5a" offset="0"/>
   <stop id="stop912" stop-color="#36465a" offset=".49391"/>
   <stop id="stop906-0" stop-color="#24374f" offset="1"/>
  </linearGradient>
  <linearGradient id="linearGradient968" x1="-173.1" x2="-91.983" y1="22.09" y2="80.407" gradientUnits="userSpaceOnUse">
   <stop id="stop962" stop-color="#4b698f" offset="0"/>
   <stop id="stop964" stop-color="#18283b" offset="1"/>
  </linearGradient>
  <linearGradient id="linearGradient946" x1="-170.81" x2="-88.308" y1="19.461" y2="82.86" gradientUnits="userSpaceOnUse">
   <stop id="stop940" stop-color="#2f3f53" offset="0"/>
   <stop id="stop950" stop-color="#314154" offset=".098398"/>
   <stop id="stop952" stop-color="#68798e" offset=".12158"/>
   <stop id="stop954" stop-color="#4d5f75" offset=".34124"/>
   <stop id="stop958" stop-color="#304258" offset=".35659"/>
   <stop id="stop956" stop-color="#456082" offset=".36896"/>
   <stop id="stop942" stop-color="#435061" offset="1"/>
  </linearGradient>
 </defs>
 <metadata id="metadata1923">
  <rdf:RDF>
   <cc:Work rdf:about="">
    <dc:format>image/svg+xml</dc:format>
    <dc:type rdf:resource="http://purl.org/dc/dcmitype/StillImage"/>
    <dc:title/>
   </cc:Work>
  </rdf:RDF>
 </metadata>
 <g id="layer1">
  <g id="g1702" transform="matrix(.97573 0 0 .97573 -65.839 -37.241)" fill="none" opacity=".20513" stroke="#000" stroke-linecap="round" stroke-linejoin="round" stroke-opacity=".02">
   <rect id="rect1634" x="69.84" y="40.71" width="29.811" height="29.811" rx="6.6099" ry="6.6099" stroke-width=".1"/>
   <rect id="rect1638" x="69.84" y="40.71" width="29.811" height="29.811" rx="6.6099" ry="6.6099" stroke-width=".2"/>
   <rect id="rect1640" x="69.84" y="40.71" width="29.811" height="29.811" rx="6.6099" ry="6.6099" stroke-width=".3"/>
   <rect id="rect1642" x="69.84" y="40.71" width="29.811" height="29.811" rx="6.6099" ry="6.6099" stroke-width=".4"/>
   <rect id="rect1644" x="69.84" y="40.71" width="29.811" height="29.811" rx="6.6099" ry="6.6099" stroke-width=".5"/>
   <rect id="rect1646" x="69.84" y="40.71" width="29.811" height="29.811" rx="6.6099" ry="6.6099" stroke-width=".6"/>
   <rect id="rect1648" x="69.84" y="40.71" width="29.811" height="29.811" rx="6.6099" ry="6.6099" stroke-width=".7"/>
   <rect id="rect1650" x="69.84" y="40.71" width="29.811" height="29.811" rx="6.6099" ry="6.6099" stroke-width=".8"/>
   <rect id="rect1652" x="69.84" y="40.71" width="29.811" height="29.811" rx="6.6099" ry="6.6099"/>
   <rect id="rect1654" x="69.84" y="40.71" width="29.811" height="29.811" rx="6.6099" ry="6.6099" stroke-width="1.2"/>
   <rect id="rect1656" x="69.84" y="40.71" width="29.811" height="29.811" rx="6.6099" ry="6.6099" stroke-width="1.4"/>
   <rect id="rect1658" x="69.84" y="40.71" width="29.811" height="29.811" rx="6.6099" ry="6.6099" stroke-width="1.6"/>
   <rect id="rect1660" x="69.84" y="40.71" width="29.811" height="29.811" rx="6.6099" ry="6.6099" stroke-width="1.8"/>
   <rect id="rect1662" x="69.84" y="40.71" width="29.811" height="29.811" rx="6.6099" ry="6.6099" stroke-width="2"/>
   <rect id="rect1664" x="69.84" y="40.71" width="29.811" height="29.811" rx="6.6099" ry="6.6099" stroke-width="2.2"/>
   <rect id="rect1666" x="69.84" y="40.71" width="29.811" height="29.811" rx="6.6099" ry="6.6099" stroke-width="2.6"/>
   <rect id="rect1668" x="69.84" y="40.71" width="29.811" height="29.811" rx="6.6099" ry="6.6099" stroke-width="3"/>
   <rect id="rect1670" x="69.84" y="40.71" width="29.811" height="29.811" rx="6.6099" ry="6.6099" stroke-width="3.4"/>
   <rect id="rect1672" x="69.84" y="40.71" width="29.811" height="29.811" rx="6.6099" ry="6.6099" stroke-width="3.8"/>
   <rect id="rect1674" x="69.84" y="40.71" width="29.811" height="29.811" rx="6.6099" ry="6.6099" stroke-width="4.2"/>
   <rect id="rect1676" x="69.84" y="40.71" width="29.811" height="29.811" rx="6.6099" ry="6.6099" stroke-width="4.6"/>
   <rect id="rect1678" x="69.84" y="40.71" width="29.811" height="29.811" rx="6.6099" ry="6.6099" stroke-width="5"/>
  </g>
  <rect id="rect849" x="2.3055" y="2.4806" width="29.087" height="29.087" rx="6.4495" ry="6.4495" fill="url(#linearGradient1632)" stroke-linecap="round" stroke-linejoin="round" stroke-width="2.6877"/>
  <rect id="rect1942" x="3.9756" y="4.3662" width="25.747" height="25.316" rx="5.4438" ry="5.4438" fill="url(#linearGradient1950)" stroke-linecap="round" stroke-linejoin="round" stroke-width="2.6877"/>
  <path id="path4424" d="m9.4193 4.3664c-0.20081 0-0.39871 0.01157-0.59376 0.032556l-0.03359 0.010335c2.0058 2.6212 9.4935 4.6481 16.23 3.0918l4.314 17.27c-3.5514 3.1947-7.2883 4.4574-11.231 4.9113h6.1743c3.0159 0 5.4441-2.4282 5.4441-5.4441v-14.429c0-3.0159-2.4282-5.4436-5.4441-5.4436z" fill="url(#linearGradient4432)"/>
  <path id="path1002" d="m12.127 7.5493 15.737 10.641 0.28537-2.385-12.659-10.192-1.0804 0.9173z" fill="url(#linearGradient1825)" opacity=".399"/>
  <path id="rect902" d="m25.021 7.5013 0.50451-0.13287c0.12113-0.031877 0.2442 0.039908 0.27609 0.16099l4.4754 16.994-0.94159 0.24797-4.4754-16.994c-0.03191-0.12108 0.03991-0.24422 0.161-0.2761z" fill="url(#linearGradient910)" style="paint-order:fill markers stroke"/>
  <g id="g1000" transform="matrix(.15254 0 0 .15254 50.862 3.6245)">
   <path id="path917" d="m-231.89 13.045a3.3073 3.3073 0 0 1-3.3046 3.3073 3.3073 3.3073 0 0 1-3.31-3.302 3.3073 3.3073 0 0 1 3.2993-3.3126 3.3073 3.3073 0 0 1 3.3153 3.2966l-3.3073 0.01068z" fill="#9893a0" style="paint-order:fill markers stroke"/>
   <path id="rect992" d="m-236.27 11.392h0.86382c1.5537 0 2.8045 1.2508 2.8045 2.8045v5.8248c-2.3081 1.5802-5.1801 0.29047-6.4728-1.0023v-4.8225c0-1.5537 1.2508-2.8045 2.8045-2.8045z" fill="#5b7fab" style="paint-order:fill markers stroke"/>
   <g id="g972" transform="translate(-63.963 -6.6407)">
    <path id="path960" d="m-170 18.258c-3.5049-2.9463-6.8957 1.2501-4.0302 4.4674l9.3808 6.2916 22.577 13.269 50.484 40.684c1.061 0.96285 2.3862 1.0321 3.0774 0.27138l0.0041-0.0047c0.68787-0.76387-0.04058-2.0203-1.1027-2.9821l-1.55-1.4466-44.932-37.939c-1.2598-1.1142-5.2841-3.8201-6.5614-4.5351l-18.467-11.17z" fill="url(#linearGradient968)"/>
    <path id="path919" d="m-169.07 17.055c-4.7932-2.7308-7.6433 3.1602-4.0302 5.0343l9.3808 6.2916 22.388 12.985 50.154 41.392c1.061 0.96285 2.3862 1.0321 3.0774 0.27138l0.0041-0.0047c0.68787-0.76387-0.04058-2.0203-1.1027-2.9821l-1.55-1.4466-44.412-38.931c-1.2598-1.1142-5.2841-3.8201-6.5614-4.5351l-18.467-11.17z" fill="url(#linearGradient946)"/>
   </g>
  </g>
 </g>
</svg>
