<?xml version="1.0" encoding="UTF-8"?>
<svg id="svg1711" width="128" height="128" version="1.1" viewBox="0 0 33.867 33.867" xmlns="http://www.w3.org/2000/svg" xmlns:cc="http://creativecommons.org/ns#" xmlns:dc="http://purl.org/dc/elements/1.1/" xmlns:rdf="http://www.w3.org/1999/02/22-rdf-syntax-ns#" xmlns:xlink="http://www.w3.org/1999/xlink">
 <defs id="defs1705">
  <radialGradient id="radialGradient2232" cx="17.07" cy="2.6301" r="14.544" gradientTransform="matrix(2.7091 0 0 1.8545 -29.173 -2.2475)" gradientUnits="userSpaceOnUse">
   <stop id="stop4671" stop-color="#d6903e" offset="0"/>
   <stop id="stop4955" stop-color="#bd803c" offset=".28522"/>
   <stop id="stop4673" stop-color="#553f38" offset="1"/>
  </radialGradient>
  <linearGradient id="linearGradient6067" x1="85.106" x2="85.106" y1="-17.969" y2="82.794" gradientUnits="userSpaceOnUse">
   <stop id="stop6061" stop-color="#fff" offset="0"/>
   <stop id="stop6063" stop-color="#fff" stop-opacity="0" offset="1"/>
  </linearGradient>
 </defs>
 <metadata id="metadata1708">
  <rdf:RDF>
   <cc:Work rdf:about="">
    <dc:format>image/svg+xml</dc:format>
    <dc:type rdf:resource="http://purl.org/dc/dcmitype/StillImage"/>
   </cc:Work>
  </rdf:RDF>
 </metadata>
 <g id="layer1">
  <g id="g1702" transform="matrix(.97573 0 0 .97573 -65.819 -37.203)" fill="none" opacity=".295" stroke="#000" stroke-linecap="round" stroke-linejoin="round" stroke-opacity=".02">
   <rect id="rect1634" x="69.84" y="40.71" width="29.811" height="29.811" rx="6.6099" ry="6.6099" stroke-width=".1"/>
   <rect id="rect1638" x="69.84" y="40.71" width="29.811" height="29.811" rx="6.6099" ry="6.6099" stroke-width=".2"/>
   <rect id="rect1640" x="69.84" y="40.71" width="29.811" height="29.811" rx="6.6099" ry="6.6099" stroke-width=".3"/>
   <rect id="rect1642" x="69.84" y="40.71" width="29.811" height="29.811" rx="6.6099" ry="6.6099" stroke-width=".4"/>
   <rect id="rect1644" x="69.84" y="40.71" width="29.811" height="29.811" rx="6.6099" ry="6.6099" stroke-width=".5"/>
   <rect id="rect1646" x="69.84" y="40.71" width="29.811" height="29.811" rx="6.6099" ry="6.6099" stroke-width=".6"/>
   <rect id="rect1648" x="69.84" y="40.71" width="29.811" height="29.811" rx="6.6099" ry="6.6099" stroke-width=".7"/>
   <rect id="rect1650" x="69.84" y="40.71" width="29.811" height="29.811" rx="6.6099" ry="6.6099" stroke-width=".8"/>
   <rect id="rect1652" x="69.84" y="40.71" width="29.811" height="29.811" rx="6.6099" ry="6.6099"/>
   <rect id="rect1654" x="69.84" y="40.71" width="29.811" height="29.811" rx="6.6099" ry="6.6099" stroke-width="1.2"/>
   <rect id="rect1656" x="69.84" y="40.71" width="29.811" height="29.811" rx="6.6099" ry="6.6099" stroke-width="1.4"/>
   <rect id="rect1658" x="69.84" y="40.71" width="29.811" height="29.811" rx="6.6099" ry="6.6099" stroke-width="1.6"/>
   <rect id="rect1660" x="69.84" y="40.71" width="29.811" height="29.811" rx="6.6099" ry="6.6099" stroke-width="1.8"/>
   <rect id="rect1662" x="69.84" y="40.71" width="29.811" height="29.811" rx="6.6099" ry="6.6099" stroke-width="2"/>
   <rect id="rect1664" x="69.84" y="40.71" width="29.811" height="29.811" rx="6.6099" ry="6.6099" stroke-width="2.2"/>
   <rect id="rect1666" x="69.84" y="40.71" width="29.811" height="29.811" rx="6.6099" ry="6.6099" stroke-width="2.6"/>
   <rect id="rect1668" x="69.84" y="40.71" width="29.811" height="29.811" rx="6.6099" ry="6.6099" stroke-width="3"/>
   <rect id="rect1670" x="69.84" y="40.71" width="29.811" height="29.811" rx="6.6099" ry="6.6099" stroke-width="3.4"/>
   <rect id="rect1672" x="69.84" y="40.71" width="29.811" height="29.811" rx="6.6099" ry="6.6099" stroke-width="3.8"/>
   <rect id="rect1674" x="69.84" y="40.71" width="29.811" height="29.811" rx="6.6099" ry="6.6099" stroke-width="4.2"/>
   <rect id="rect1676" x="69.84" y="40.71" width="29.811" height="29.811" rx="6.6099" ry="6.6099" stroke-width="4.6"/>
   <rect id="rect1678" x="69.84" y="40.71" width="29.811" height="29.811" rx="6.6099" ry="6.6099" stroke-width="5"/>
  </g>
  <rect id="rect849" x="2.3255" y="2.5189" width="29.087" height="29.087" rx="6.4495" ry="6.4495" fill="url(#radialGradient2232)"/>
  <path id="rect5278" d="m8.7749 2.5189h1.5081v29.087h-1.5081c-3.573 0-6.4495-2.8765-6.4495-6.4495v-16.189c0-3.573 2.8765-6.4495 6.4495-6.4495z" fill="#2f2f2f" fill-opacity=".19784" stroke-linecap="round" stroke-linejoin="round" stroke-width="2.688"/>
  <rect id="rect1061" x="3.8367" y="3.9967" width="26.065" height="26.132" rx="5.3804" ry="5.3804" fill="none" stroke="#fff" stroke-dasharray="0.5, 1.5" stroke-linecap="round" stroke-linejoin="round" stroke-opacity=".66187" stroke-width=".5"/>
  <path id="rect5687" transform="scale(.26458)" d="m71.469 9.5195v56.645l14.268-19.949 14.27 19.949v-55.982c-1.8148-0.42828-3.7069-0.66211-5.6563-0.66211z" fill="url(#linearGradient6067)" stroke-dasharray="1.88976, 5.66929" stroke-linejoin="round" stroke-opacity=".66187" stroke-width="1.8898" style="paint-order:fill markers stroke"/>
 </g>
</svg>
