<svg width="64" height="64" version="1.1" id="svg1662" xmlns:xlink="http://www.w3.org/1999/xlink" xmlns="http://www.w3.org/2000/svg"><defs id="defs446"><clipPath id="clipPath13429"><path d="M481 318h22v22h-22z" id="path4"/></clipPath><clipPath id="clipPath13465"><path d="M507 318h22v22h-22z" id="path7"/></clipPath><clipPath id="clipPath13501"><path d="M530 318h22v22h-22z" id="path10"/></clipPath><clipPath id="clipPath13753"><path d="M672 1064c0-1.105 4.925-2 11-2s11 .895 11 2-4.925 2-11 2-11-.895-11-2" id="path13"/></clipPath><clipPath id="clipPath13771"><path d="M660 1057h51v65.001h-51z" id="path16"/></clipPath><clipPath id="clipPath14035"><path d="M659 517h53v18h-53z" id="path19"/></clipPath><clipPath id="clipPath14127"><path d="M659 500h53v18h-53z" id="path22"/></clipPath><clipPath id="clipPath14445"><path d="M648 112h73v60h-73z" id="path25"/></clipPath><clipPath id="clipPath14609"><path d="M826 1056h59v60h-59z" id="path28"/></clipPath><clipPath id="clipPath15305"><path d="M805 276h100v100H805z" id="path31"/></clipPath><clipPath id="clipPath15341"><path d="M145 1063.8h74.152v45.21H145z" id="path34"/></clipPath><clipPath id="clipPath15715"><path d="M151 667h57v57h-57z" id="path37"/></clipPath><clipPath id="clipPath15807"><path d="M154 697h51v51h-51z" id="path40"/></clipPath><clipPath id="clipPath16001"><path d="M500.04 864.45h36.012v67.52H500.04z" id="path43"/></clipPath><clipPath id="clipPath16093"><path d="M836 870.54h47v55.539h-47z" id="path46"/></clipPath><clipPath id="clipPath16477"><path d="M318.03 702.35h62.848v37.991H318.03z" id="path49"/></clipPath><clipPath id="clipPath16579"><path d="M485.03 133.35h62.847v37.991H485.03z" id="path52"/></clipPath><clipPath id="clipPath16709"><path d="M493.37 677.93h45.643v68.067H493.37z" id="path55"/></clipPath><clipPath id="clipPath24218"><path d="M144.34 1018.2h71.467v78H144.34z" id="path58"/></clipPath><clipPath id="clipPath24382"><path d="m293.21 1068.6 66.323-38.292 36.047 62.435-66.323 38.292z" id="path61"/></clipPath><clipPath id="clipPath24650"><path d="M488.86 1054.5h10v10.706h-10z" id="path64"/></clipPath><clipPath id="clipPath24700"><path d="M508 1066.8h10.001v10.705H508z" id="path67"/></clipPath><clipPath id="clipPath24750"><path d="M525 1045.8h10v10.706h-10z" id="path70"/></clipPath><clipPath id="clipPath24864"><path d="M836 1043.7h25.5v31.5H836z" id="path73"/></clipPath><clipPath id="clipPath24896"><path d="M838 1062.2h24v24h-24z" id="path76"/></clipPath><clipPath id="clipPath25070"><path d="M134 489.24h7v6h-7z" id="path79"/></clipPath><clipPath id="clipPath25100"><path d="M216 489.24h7v6h-7z" id="path82"/></clipPath><clipPath id="clipPath25502"><path d="M838 477.24h22v22h-22z" id="path85"/></clipPath><clipPath id="clipPath25686"><path d="M704 1061.2h25v25h-25z" id="path88"/></clipPath><clipPath id="clipPath25788"><path d="m663.04 1078.6-1.808-3.514-21.07-47.453c13.336-18.439 48.336-26.938 73.836-3.439.842 0 6.476 6.246 6 7l-18.386 25.895a1.505 1.505 0 0 1-2.177.431l-15.505-11.011a.73.73 0 0 0-1.07.238l-18.272 31.869c-.218.384-.502.578-.782.578-.282 0-.561-.197-.766-.594" id="path91"/></clipPath><clipPath id="clipPath26420"><path d="M127 820.24h100v100H127z" id="path94"/></clipPath><clipPath id="clipPath26860"><path d="M809 680.24c0-22.092 17.908-40 40-40s40 17.908 40 40c0 22.091-17.908 40-40 40s-40-17.909-40-40" id="path97"/></clipPath><clipPath id="clipPath27506"><path d="M658 469.24h44v45h-44z" id="path100"/></clipPath><clipPath id="clipPath27772"><path d="M651 271.24h58v58h-58z" id="path103"/></clipPath><clipPath id="clipPath27864"><path d="M662 307.24h38v8h-38z" id="path106"/></clipPath><clipPath id="clipPath28028"><path d="M858.98 137.24c.013-.101.021-.203.021-.307v-6.693h15.75a2.257 2.257 0 0 0 2.25-2.25v-11.25l-27-4.5-27 4.5v-2.25l27-4.5 27 4.5v-27a2.257 2.257 0 0 0-2.25-2.25h-49.5a2.257 2.257 0 0 0-2.25 2.25v-4.25h54v54zm-35.979 0v-9.25a2.257 2.257 0 0 0 2.25 2.25h15.75v6.693c0 .104.007.207.02.307zm22.5-7h9v4.5h-9zm1.125-9c-.62 0-1.125-.506-1.125-1.125v-2.25c0-.619.505-1.125 1.125-1.125h6.75c.619 0 1.125.506 1.125 1.125v2.25c0 .619-.506 1.125-1.125 1.125z" id="path109"/></clipPath><clipPath id="clipPath28200"><path d="M531.27 136.24c6.325-2.29 10.727-8.277 10.727-15.484 0-11.316-10.2-20.563-25.65-34.575l-4.35-3.941-4.35 3.941c-15.45 14.012-25.65 23.259-25.65 34.575V81.24h60v55zm-26.983 0c2.995-1.052 5.686-2.883 7.71-5.25 2.024 2.367 4.715 4.198 7.71 5.25zm-22.29 0v-15.484c0 7.207 4.402 13.194 10.727 15.484z" id="path112"/></clipPath><clipPath id="clipPath28364"><path d="M648 79.241h64v64h-64z" id="path115"/></clipPath><clipPath id="clipPath28984"><path d="M500 691.74a5.5 5.5 0 1 1 11.001.001A5.5 5.5 0 0 1 500 691.74" id="path118"/></clipPath><clipPath id="clipPath29012"><path d="M500 669.74a5.5 5.5 0 1 1 11.001.001A5.5 5.5 0 0 1 500 669.74" id="path121"/></clipPath><clipPath id="clipPath29040"><path d="M494 680.74a5.5 5.5 0 1 1 11 0 5.5 5.5 0 0 1-11 0" id="path124"/></clipPath><clipPath id="clipPath29068"><path d="M513 691.74a5.5 5.5 0 1 1 11.001.001A5.5 5.5 0 0 1 513 691.74" id="path127"/></clipPath><clipPath id="clipPath29096"><path d="M513 669.74a5.5 5.5 0 1 1 11.001.001A5.5 5.5 0 0 1 513 669.74" id="path130"/></clipPath><clipPath id="clipPath29124"><path d="M507 680.74a5.5 5.5 0 1 1 11.001.001A5.5 5.5 0 0 1 507 680.74" id="path133"/></clipPath><clipPath id="clipPath29152"><path d="M520 680.74a5.5 5.5 0 1 1 11.001.001A5.5 5.5 0 0 1 520 680.74" id="path136"/></clipPath><clipPath id="clipPath29252"><path d="M321 322.24a9 9 0 0 1 0-18h45a9 9 0 0 1 0 18z" id="path139"/></clipPath><clipPath id="clipPath29280"><path d="M322 297.24a9 9 0 0 1 0-18h45a9 9 0 0 1 0 18z" id="path142"/></clipPath><clipPath id="clipPath29400"><path d="M155 83.24h44v53h-44z" id="path145"/></clipPath><clipPath id="clipPath13429-6"><path d="M481 318h22v22h-22z" id="path148"/></clipPath><clipPath id="clipPath13465-0"><path d="M507 318h22v22h-22z" id="path151"/></clipPath><clipPath id="clipPath13501-6"><path d="M530 318h22v22h-22z" id="path154"/></clipPath><clipPath id="clipPath13753-2"><path d="M672 1064c0-1.105 4.925-2 11-2s11 .895 11 2-4.925 2-11 2-11-.895-11-2" id="path157"/></clipPath><clipPath id="clipPath13771-6"><path d="M660 1057h51v65.001h-51z" id="path160"/></clipPath><clipPath id="clipPath14035-1"><path d="M659 517h53v18h-53z" id="path163"/></clipPath><clipPath id="clipPath14127-8"><path d="M659 500h53v18h-53z" id="path166"/></clipPath><clipPath id="clipPath14445-7"><path d="M648 112h73v60h-73z" id="path169"/></clipPath><clipPath id="clipPath14609-9"><path d="M826 1056h59v60h-59z" id="path172"/></clipPath><clipPath id="clipPath15305-2"><path d="M805 276h100v100H805z" id="path175"/></clipPath><clipPath id="clipPath15341-0"><path d="M145 1063.8h74.152v45.21H145z" id="path178"/></clipPath><clipPath id="clipPath15715-2"><path d="M151 667h57v57h-57z" id="path181"/></clipPath><clipPath id="clipPath15807-3"><path d="M154 697h51v51h-51z" id="path184"/></clipPath><clipPath id="clipPath16001-7"><path d="M500.04 864.45h36.012v67.52H500.04z" id="path187"/></clipPath><clipPath id="clipPath16093-5"><path d="M836 870.54h47v55.539h-47z" id="path190"/></clipPath><clipPath id="clipPath16477-9"><path d="M318.03 702.35h62.848v37.991H318.03z" id="path193"/></clipPath><clipPath id="clipPath16579-2"><path d="M485.03 133.35h62.847v37.991H485.03z" id="path196"/></clipPath><clipPath id="clipPath16709-2"><path d="M493.37 677.93h45.643v68.067H493.37z" id="path199"/></clipPath><clipPath id="clipPath24218-8"><path d="M144.34 1018.2h71.467v78H144.34z" id="path202"/></clipPath><clipPath id="clipPath24382-9"><path d="m293.21 1068.6 66.323-38.292 36.047 62.435-66.323 38.292z" id="path205"/></clipPath><clipPath id="clipPath24650-7"><path d="M488.86 1054.5h10v10.706h-10z" id="path208"/></clipPath><clipPath id="clipPath24700-3"><path d="M508 1066.8h10.001v10.705H508z" id="path211"/></clipPath><clipPath id="clipPath24750-6"><path d="M525 1045.8h10v10.706h-10z" id="path214"/></clipPath><clipPath id="clipPath24864-1"><path d="M836 1043.7h25.5v31.5H836z" id="path217"/></clipPath><clipPath id="clipPath24896-2"><path d="M838 1062.2h24v24h-24z" id="path220"/></clipPath><clipPath id="clipPath25070-9"><path d="M134 489.24h7v6h-7z" id="path223"/></clipPath><clipPath id="clipPath25100-3"><path d="M216 489.24h7v6h-7z" id="path226"/></clipPath><clipPath id="clipPath25502-1"><path d="M838 477.24h22v22h-22z" id="path229"/></clipPath><clipPath id="clipPath25686-9"><path d="M704 1061.2h25v25h-25z" id="path232"/></clipPath><clipPath id="clipPath25788-4"><path d="m663.04 1078.6-1.808-3.514-21.07-47.453c13.336-18.439 48.336-26.938 73.836-3.439.842 0 6.476 6.246 6 7l-18.386 25.895a1.505 1.505 0 0 1-2.177.431l-15.505-11.011a.73.73 0 0 0-1.07.238l-18.272 31.869c-.218.384-.502.578-.782.578-.282 0-.561-.197-.766-.594" id="path235"/></clipPath><clipPath id="clipPath26420-7"><path d="M127 820.24h100v100H127z" id="path238"/></clipPath><clipPath id="clipPath26860-8"><path d="M809 680.24c0-22.092 17.908-40 40-40s40 17.908 40 40c0 22.091-17.908 40-40 40s-40-17.909-40-40" id="path241"/></clipPath><clipPath id="clipPath27506-4"><path d="M658 469.24h44v45h-44z" id="path244"/></clipPath><clipPath id="clipPath27772-5"><path d="M651 271.24h58v58h-58z" id="path247"/></clipPath><clipPath id="clipPath27864-0"><path d="M662 307.24h38v8h-38z" id="path250"/></clipPath><clipPath id="clipPath28028-3"><path d="M858.98 137.24c.013-.101.021-.203.021-.307v-6.693h15.75a2.257 2.257 0 0 0 2.25-2.25v-11.25l-27-4.5-27 4.5v-2.25l27-4.5 27 4.5v-27a2.257 2.257 0 0 0-2.25-2.25h-49.5a2.257 2.257 0 0 0-2.25 2.25v-4.25h54v54zm-35.979 0v-9.25a2.257 2.257 0 0 0 2.25 2.25h15.75v6.693c0 .104.007.207.02.307zm22.5-7h9v4.5h-9zm1.125-9c-.62 0-1.125-.506-1.125-1.125v-2.25c0-.619.505-1.125 1.125-1.125h6.75c.619 0 1.125.506 1.125 1.125v2.25c0 .619-.506 1.125-1.125 1.125z" id="path253"/></clipPath><clipPath id="clipPath28200-6"><path d="M531.27 136.24c6.325-2.29 10.727-8.277 10.727-15.484 0-11.316-10.2-20.563-25.65-34.575l-4.35-3.941-4.35 3.941c-15.45 14.012-25.65 23.259-25.65 34.575V81.24h60v55zm-26.983 0c2.995-1.052 5.686-2.883 7.71-5.25 2.024 2.367 4.715 4.198 7.71 5.25zm-22.29 0v-15.484c0 7.207 4.402 13.194 10.727 15.484z" id="path256"/></clipPath><clipPath id="clipPath28364-1"><path d="M648 79.241h64v64h-64z" id="path259"/></clipPath><clipPath id="clipPath28984-0"><path d="M500 691.74a5.5 5.5 0 1 1 11.001.001A5.5 5.5 0 0 1 500 691.74" id="path262"/></clipPath><clipPath id="clipPath29012-6"><path d="M500 669.74a5.5 5.5 0 1 1 11.001.001A5.5 5.5 0 0 1 500 669.74" id="path265"/></clipPath><clipPath id="clipPath29040-3"><path d="M494 680.74a5.5 5.5 0 1 1 11 0 5.5 5.5 0 0 1-11 0" id="path268"/></clipPath><clipPath id="clipPath29068-2"><path d="M513 691.74a5.5 5.5 0 1 1 11.001.001A5.5 5.5 0 0 1 513 691.74" id="path271"/></clipPath><clipPath id="clipPath29096-0"><path d="M513 669.74a5.5 5.5 0 1 1 11.001.001A5.5 5.5 0 0 1 513 669.74" id="path274"/></clipPath><clipPath id="clipPath29124-6"><path d="M507 680.74a5.5 5.5 0 1 1 11.001.001A5.5 5.5 0 0 1 507 680.74" id="path277"/></clipPath><clipPath id="clipPath29152-1"><path d="M520 680.74a5.5 5.5 0 1 1 11.001.001A5.5 5.5 0 0 1 520 680.74" id="path280"/></clipPath><clipPath id="clipPath29252-5"><path d="M321 322.24a9 9 0 0 1 0-18h45a9 9 0 0 1 0 18z" id="path283"/></clipPath><clipPath id="clipPath29280-5"><path d="M322 297.24a9 9 0 0 1 0-18h45a9 9 0 0 1 0 18z" id="path286"/></clipPath><clipPath id="clipPath29400-4"><path d="M155 83.24h44v53h-44z" id="path289"/></clipPath><clipPath id="clipPath13429-3"><path d="M481 318h22v22h-22z" id="path299"/></clipPath><clipPath id="clipPath13465-6-6"><path d="M507 318h22v22h-22z" id="path302"/></clipPath><clipPath id="clipPath13501-7"><path d="M530 318h22v22h-22z" id="path305"/></clipPath><clipPath id="clipPath13753-5"><path d="M672 1064c0-1.105 4.925-2 11-2s11 .895 11 2-4.925 2-11 2-11-.895-11-2" id="path308"/></clipPath><clipPath id="clipPath13771-3"><path d="M660 1057h51v65.001h-51z" id="path311"/></clipPath><clipPath id="clipPath14035-5"><path d="M659 517h53v18h-53z" id="path314"/></clipPath><clipPath id="clipPath14127-6"><path d="M659 500h53v18h-53z" id="path317"/></clipPath><clipPath id="clipPath14445-2"><path d="M648 112h73v60h-73z" id="path320"/></clipPath><clipPath id="clipPath14609-9-2"><path d="M826 1056h59v60h-59z" id="path323"/></clipPath><clipPath id="clipPath15305-1"><path d="M805 276h100v100H805z" id="path326"/></clipPath><clipPath id="clipPath15341-2"><path d="M145 1063.8h74.152v45.21H145z" id="path329"/></clipPath><clipPath id="clipPath15715-7-9"><path d="M151 667h57v57h-57z" id="path332"/></clipPath><clipPath id="clipPath15807-0"><path d="M154 697h51v51h-51z" id="path335"/></clipPath><clipPath id="clipPath16001-9"><path d="M500.04 864.45h36.012v67.52H500.04z" id="path338"/></clipPath><clipPath id="clipPath16093-3-1"><path d="M836 870.54h47v55.539h-47z" id="path341"/></clipPath><clipPath id="clipPath16477-6"><path d="M318.03 702.35h62.848v37.991H318.03z" id="path344"/></clipPath><clipPath id="clipPath16579-0"><path d="M485.03 133.35h62.847v37.991H485.03z" id="path347"/></clipPath><clipPath id="clipPath16709-6"><path d="M493.37 677.93h45.643v68.067H493.37z" id="path350"/></clipPath><clipPath id="clipPath24218-2"><path d="M144.34 1018.2h71.467v78H144.34z" id="path353"/></clipPath><clipPath id="clipPath24382-6"><path d="m293.21 1068.6 66.323-38.292 36.047 62.435-66.323 38.292z" id="path356"/></clipPath><clipPath id="clipPath24650-1"><path d="M488.86 1054.5h10v10.706h-10z" id="path359"/></clipPath><clipPath id="clipPath24700-8"><path d="M508 1066.8h10.001v10.705H508z" id="path362"/></clipPath><clipPath id="clipPath24750-7"><path d="M525 1045.8h10v10.706h-10z" id="path365"/></clipPath><clipPath id="clipPath24864-9"><path d="M836 1043.7h25.5v31.5H836z" id="path368"/></clipPath><clipPath id="clipPath24896-2-2"><path d="M838 1062.2h24v24h-24z" id="path371"/></clipPath><clipPath id="clipPath25070-0"><path d="M134 489.24h7v6h-7z" id="path374"/></clipPath><clipPath id="clipPath25100-2"><path d="M216 489.24h7v6h-7z" id="path377"/></clipPath><clipPath id="clipPath25502-3"><path d="M838 477.24h22v22h-22z" id="path380"/></clipPath><clipPath id="clipPath25686-7"><path d="M704 1061.2h25v25h-25z" id="path383"/></clipPath><clipPath id="clipPath25788-5"><path d="m663.04 1078.6-1.808-3.514-21.07-47.453c13.336-18.439 48.336-26.938 73.836-3.439.842 0 6.476 6.246 6 7l-18.386 25.895a1.505 1.505 0 0 1-2.177.431l-15.505-11.011a.73.73 0 0 0-1.07.238l-18.272 31.869c-.218.384-.502.578-.782.578-.282 0-.561-.197-.766-.594" id="path386"/></clipPath><clipPath id="clipPath26420-9"><path d="M127 820.24h100v100H127z" id="path389"/></clipPath><clipPath id="clipPath26860-2"><path d="M809 680.24c0-22.092 17.908-40 40-40s40 17.908 40 40c0 22.091-17.908 40-40 40s-40-17.909-40-40" id="path392"/></clipPath><clipPath id="clipPath27506-2"><path d="M658 469.24h44v45h-44z" id="path395"/></clipPath><clipPath id="clipPath27772-8"><path d="M651 271.24h58v58h-58z" id="path398"/></clipPath><clipPath id="clipPath27864-9-7"><path d="M662 307.24h38v8h-38z" id="path401"/></clipPath><clipPath id="clipPath28028-7"><path d="M858.98 137.24c.013-.101.021-.203.021-.307v-6.693h15.75a2.257 2.257 0 0 0 2.25-2.25v-11.25l-27-4.5-27 4.5v-2.25l27-4.5 27 4.5v-27a2.257 2.257 0 0 0-2.25-2.25h-49.5a2.257 2.257 0 0 0-2.25 2.25v-4.25h54v54zm-35.979 0v-9.25a2.257 2.257 0 0 0 2.25 2.25h15.75v6.693c0 .104.007.207.02.307zm22.5-7h9v4.5h-9zm1.125-9c-.62 0-1.125-.506-1.125-1.125v-2.25c0-.619.505-1.125 1.125-1.125h6.75c.619 0 1.125.506 1.125 1.125v2.25c0 .619-.506 1.125-1.125 1.125z" id="path404"/></clipPath><clipPath id="clipPath28200-3"><path d="M531.27 136.24c6.325-2.29 10.727-8.277 10.727-15.484 0-11.316-10.2-20.563-25.65-34.575l-4.35-3.941-4.35 3.941c-15.45 14.012-25.65 23.259-25.65 34.575V81.24h60v55zm-26.983 0c2.995-1.052 5.686-2.883 7.71-5.25 2.024 2.367 4.715 4.198 7.71 5.25zm-22.29 0v-15.484c0 7.207 4.402 13.194 10.727 15.484z" id="path407"/></clipPath><clipPath id="clipPath28364-6"><path d="M648 79.241h64v64h-64z" id="path410"/></clipPath><clipPath id="clipPath28984-1"><path d="M500 691.74a5.5 5.5 0 1 1 11.001.001A5.5 5.5 0 0 1 500 691.74" id="path413"/></clipPath><clipPath id="clipPath29012-2"><path d="M500 669.74a5.5 5.5 0 1 1 11.001.001A5.5 5.5 0 0 1 500 669.74" id="path416"/></clipPath><clipPath id="clipPath29040-9"><path d="M494 680.74a5.5 5.5 0 1 1 11 0 5.5 5.5 0 0 1-11 0" id="path419"/></clipPath><clipPath id="clipPath29068-3"><path d="M513 691.74a5.5 5.5 0 1 1 11.001.001A5.5 5.5 0 0 1 513 691.74" id="path422"/></clipPath><clipPath id="clipPath29096-1"><path d="M513 669.74a5.5 5.5 0 1 1 11.001.001A5.5 5.5 0 0 1 513 669.74" id="path425"/></clipPath><clipPath id="clipPath29124-9"><path d="M507 680.74a5.5 5.5 0 1 1 11.001.001A5.5 5.5 0 0 1 507 680.74" id="path428"/></clipPath><clipPath id="clipPath29152-4"><path d="M520 680.74a5.5 5.5 0 1 1 11.001.001A5.5 5.5 0 0 1 520 680.74" id="path431"/></clipPath><clipPath id="clipPath29252-7"><path d="M321 322.24a9 9 0 0 1 0-18h45a9 9 0 0 1 0 18z" id="path434"/></clipPath><clipPath id="clipPath29280-8"><path d="M322 297.24a9 9 0 0 1 0-18h45a9 9 0 0 1 0 18z" id="path437"/></clipPath><clipPath id="clipPath29400-4-0"><path d="M155 83.24h44v53h-44z" id="path440"/></clipPath><clipPath id="clipPath13429-7"><path d="M481 318h22v22h-22z" id="path4-5"/></clipPath><clipPath id="clipPath13465-3"><path d="M507 318h22v22h-22z" id="path7-5"/></clipPath><clipPath id="clipPath13501-62"><path d="M530 318h22v22h-22z" id="path10-9"/></clipPath><clipPath id="clipPath13753-1"><path d="M672 1064c0-1.105 4.925-2 11-2s11 .895 11 2-4.925 2-11 2-11-.895-11-2" id="path13-2"/></clipPath><clipPath id="clipPath13771-7"><path d="M660 1057h51v65.001h-51z" id="path16-0"/></clipPath><clipPath id="clipPath14035-9"><path d="M659 517h53v18h-53z" id="path19-3"/></clipPath><clipPath id="clipPath14127-60"><path d="M659 500h53v18h-53z" id="path22-6"/></clipPath><clipPath id="clipPath14445-26"><path d="M648 112h73v60h-73z" id="path25-1"/></clipPath><clipPath id="clipPath14609-8"><path d="M826 1056h59v60h-59z" id="path28-7"/></clipPath><clipPath id="clipPath15305-9"><path d="M805 276h100v100H805z" id="path31-2"/></clipPath><clipPath id="clipPath15341-02"><path d="M145 1063.8h74.152v45.21H145z" id="path34-3"/></clipPath><clipPath id="clipPath15715-7"><path d="M151 667h57v57h-57z" id="path37-5"/></clipPath><clipPath id="clipPath15807-9"><path d="M154 697h51v51h-51z" id="path40-2"/></clipPath><clipPath id="clipPath16001-2"><path d="M500.04 864.45h36.012v67.52H500.04z" id="path43-8"/></clipPath><clipPath id="clipPath16093-9"><path d="M836 870.54h47v55.539h-47z" id="path46-7"/></clipPath><clipPath id="clipPath16477-3"><path d="M318.03 702.35h62.848v37.991H318.03z" id="path49-6"/></clipPath><clipPath id="clipPath16579-1"><path d="M485.03 133.35h62.847v37.991H485.03z" id="path52-2"/></clipPath><clipPath id="clipPath16709-9"><path d="M493.37 677.93h45.643v68.067H493.37z" id="path55-3"/></clipPath><clipPath id="clipPath24218-1"><path d="M144.34 1018.2h71.467v78H144.34z" id="path58-9"/></clipPath><clipPath id="clipPath24382-4"><path d="m293.21 1068.6 66.323-38.292 36.047 62.435-66.323 38.292z" id="path61-7"/></clipPath><clipPath id="clipPath24650-8"><path d="M488.86 1054.5h10v10.706h-10z" id="path64-4"/></clipPath><clipPath id="clipPath24700-5"><path d="M508 1066.8h10.001v10.705H508z" id="path67-0"/></clipPath><clipPath id="clipPath24750-3"><path d="M525 1045.8h10v10.706h-10z" id="path70-6"/></clipPath><clipPath id="clipPath24864-10"><path d="M836 1043.7h25.5v31.5H836z" id="path73-6"/></clipPath><clipPath id="clipPath24896-3"><path d="M838 1062.2h24v24h-24z" id="path76-2"/></clipPath><clipPath id="clipPath25070-06"><path d="M134 489.24h7v6h-7z" id="path79-1"/></clipPath><clipPath id="clipPath25100-5"><path d="M216 489.24h7v6h-7z" id="path82-5"/></clipPath><clipPath id="clipPath25502-4"><path d="M838 477.24h22v22h-22z" id="path85-7"/></clipPath><clipPath id="clipPath25686-6"><path d="M704 1061.2h25v25h-25z" id="path88-5"/></clipPath><clipPath id="clipPath25788-6"><path d="m663.04 1078.6-1.808-3.514-21.07-47.453c13.336-18.439 48.336-26.938 73.836-3.439.842 0 6.476 6.246 6 7l-18.386 25.895a1.505 1.505 0 0 1-2.177.431l-15.505-11.011a.73.73 0 0 0-1.07.238l-18.272 31.869c-.218.384-.502.578-.782.578-.282 0-.561-.197-.766-.594" id="path91-9"/></clipPath><clipPath id="clipPath26420-3"><path d="M127 820.24h100v100H127z" id="path94-7"/></clipPath><clipPath id="clipPath26860-4"><path d="M809 680.24c0-22.092 17.908-40 40-40s40 17.908 40 40c0 22.091-17.908 40-40 40s-40-17.909-40-40" id="path97-5"/></clipPath><clipPath id="clipPath27506-25"><path d="M658 469.24h44v45h-44z" id="path100-4"/></clipPath><clipPath id="clipPath27772-7"><path d="M651 271.24h58v58h-58z" id="path103-4"/></clipPath><clipPath id="clipPath27864-4"><path d="M662 307.24h38v8h-38z" id="path106-3"/></clipPath><clipPath id="clipPath28028-0"><path d="M858.98 137.24c.013-.101.021-.203.021-.307v-6.693h15.75a2.257 2.257 0 0 0 2.25-2.25v-11.25l-27-4.5-27 4.5v-2.25l27-4.5 27 4.5v-27a2.257 2.257 0 0 0-2.25-2.25h-49.5a2.257 2.257 0 0 0-2.25 2.25v-4.25h54v54zm-35.979 0v-9.25a2.257 2.257 0 0 0 2.25 2.25h15.75v6.693c0 .104.007.207.02.307zm22.5-7h9v4.5h-9zm1.125-9c-.62 0-1.125-.506-1.125-1.125v-2.25c0-.619.505-1.125 1.125-1.125h6.75c.619 0 1.125.506 1.125 1.125v2.25c0 .619-.506 1.125-1.125 1.125z" id="path109-7"/></clipPath><clipPath id="clipPath28200-8"><path d="M531.27 136.24c6.325-2.29 10.727-8.277 10.727-15.484 0-11.316-10.2-20.563-25.65-34.575l-4.35-3.941-4.35 3.941c-15.45 14.012-25.65 23.259-25.65 34.575V81.24h60v55zm-26.983 0c2.995-1.052 5.686-2.883 7.71-5.25 2.024 2.367 4.715 4.198 7.71 5.25zm-22.29 0v-15.484c0 7.207 4.402 13.194 10.727 15.484z" id="path112-6"/></clipPath><clipPath id="clipPath28364-8"><path d="M648 79.241h64v64h-64z" id="path115-8"/></clipPath><clipPath id="clipPath28984-4"><path d="M500 691.74a5.5 5.5 0 1 1 11.001.001A5.5 5.5 0 0 1 500 691.74" id="path118-3"/></clipPath><clipPath id="clipPath29012-1"><path d="M500 669.74a5.5 5.5 0 1 1 11.001.001A5.5 5.5 0 0 1 500 669.74" id="path121-4"/></clipPath><clipPath id="clipPath29040-92"><path d="M494 680.74a5.5 5.5 0 1 1 11 0 5.5 5.5 0 0 1-11 0" id="path124-0"/></clipPath><clipPath id="clipPath29068-6"><path d="M513 691.74a5.5 5.5 0 1 1 11.001.001A5.5 5.5 0 0 1 513 691.74" id="path127-8"/></clipPath><clipPath id="clipPath29096-9"><path d="M513 669.74a5.5 5.5 0 1 1 11.001.001A5.5 5.5 0 0 1 513 669.74" id="path130-2"/></clipPath><clipPath id="clipPath29124-66"><path d="M507 680.74a5.5 5.5 0 1 1 11.001.001A5.5 5.5 0 0 1 507 680.74" id="path133-4"/></clipPath><clipPath id="clipPath29152-9"><path d="M520 680.74a5.5 5.5 0 1 1 11.001.001A5.5 5.5 0 0 1 520 680.74" id="path136-5"/></clipPath><clipPath id="clipPath29252-0"><path d="M321 322.24a9 9 0 0 1 0-18h45a9 9 0 0 1 0 18z" id="path139-4"/></clipPath><clipPath id="clipPath29280-87"><path d="M322 297.24a9 9 0 0 1 0-18h45a9 9 0 0 1 0 18z" id="path142-1"/></clipPath><clipPath id="clipPath29400-7"><path d="M155 83.24h44v53h-44z" id="path145-2"/></clipPath><clipPath id="clipPath13429-6-7"><path d="M481 318h22v22h-22z" id="path148-2"/></clipPath><clipPath id="clipPath13465-0-2"><path d="M507 318h22v22h-22z" id="path151-6"/></clipPath><clipPath id="clipPath13501-6-1"><path d="M530 318h22v22h-22z" id="path154-0"/></clipPath><clipPath id="clipPath13753-2-6"><path d="M672 1064c0-1.105 4.925-2 11-2s11 .895 11 2-4.925 2-11 2-11-.895-11-2" id="path157-1"/></clipPath><clipPath id="clipPath13771-6-5"><path d="M660 1057h51v65.001h-51z" id="path160-9"/></clipPath><clipPath id="clipPath14035-1-4"><path d="M659 517h53v18h-53z" id="path163-9"/></clipPath><clipPath id="clipPath14127-8-0"><path d="M659 500h53v18h-53z" id="path166-9"/></clipPath><clipPath id="clipPath14445-7-1"><path d="M648 112h73v60h-73z" id="path169-7"/></clipPath><clipPath id="clipPath14609-9-7"><path d="M826 1056h59v60h-59z" id="path172-1"/></clipPath><clipPath id="clipPath15305-2-1"><path d="M805 276h100v100H805z" id="path175-5"/></clipPath><clipPath id="clipPath15341-0-9"><path d="M145 1063.8h74.152v45.21H145z" id="path178-7"/></clipPath><clipPath id="clipPath15715-2-7"><path d="M151 667h57v57h-57z" id="path181-6"/></clipPath><clipPath id="clipPath15807-3-7"><path d="M154 697h51v51h-51z" id="path184-3"/></clipPath><clipPath id="clipPath16001-7-6"><path d="M500.04 864.45h36.012v67.52H500.04z" id="path187-5"/></clipPath><clipPath id="clipPath16093-5-6"><path d="M836 870.54h47v55.539h-47z" id="path190-3"/></clipPath><clipPath id="clipPath16477-9-9"><path d="M318.03 702.35h62.848v37.991H318.03z" id="path193-4"/></clipPath><clipPath id="clipPath16579-2-8"><path d="M485.03 133.35h62.847v37.991H485.03z" id="path196-1"/></clipPath><clipPath id="clipPath16709-2-2"><path d="M493.37 677.93h45.643v68.067H493.37z" id="path199-9"/></clipPath><clipPath id="clipPath24218-8-3"><path d="M144.34 1018.2h71.467v78H144.34z" id="path202-9"/></clipPath><clipPath id="clipPath24382-9-0"><path d="m293.21 1068.6 66.323-38.292 36.047 62.435-66.323 38.292z" id="path205-8"/></clipPath><clipPath id="clipPath24650-7-8"><path d="M488.86 1054.5h10v10.706h-10z" id="path208-5"/></clipPath><clipPath id="clipPath24700-3-0"><path d="M508 1066.8h10.001v10.705H508z" id="path211-9"/></clipPath><clipPath id="clipPath24750-6-6"><path d="M525 1045.8h10v10.706h-10z" id="path214-3"/></clipPath><clipPath id="clipPath24864-1-8"><path d="M836 1043.7h25.5v31.5H836z" id="path217-5"/></clipPath><clipPath id="clipPath24896-2-6"><path d="M838 1062.2h24v24h-24z" id="path220-1"/></clipPath><clipPath id="clipPath25070-9-1"><path d="M134 489.24h7v6h-7z" id="path223-5"/></clipPath><clipPath id="clipPath25100-3-9"><path d="M216 489.24h7v6h-7z" id="path226-8"/></clipPath><clipPath id="clipPath25502-1-4"><path d="M838 477.24h22v22h-22z" id="path229-8"/></clipPath><clipPath id="clipPath25686-9-1"><path d="M704 1061.2h25v25h-25z" id="path232-0"/></clipPath><clipPath id="clipPath25788-4-3"><path d="m663.04 1078.6-1.808-3.514-21.07-47.453c13.336-18.439 48.336-26.938 73.836-3.439.842 0 6.476 6.246 6 7l-18.386 25.895a1.505 1.505 0 0 1-2.177.431l-15.505-11.011a.73.73 0 0 0-1.07.238l-18.272 31.869c-.218.384-.502.578-.782.578-.282 0-.561-.197-.766-.594" id="path235-0"/></clipPath><clipPath id="clipPath26420-7-4"><path d="M127 820.24h100v100H127z" id="path238-4"/></clipPath><clipPath id="clipPath26860-8-4"><path d="M809 680.24c0-22.092 17.908-40 40-40s40 17.908 40 40c0 22.091-17.908 40-40 40s-40-17.909-40-40" id="path241-4"/></clipPath><clipPath id="clipPath27506-4-7"><path d="M658 469.24h44v45h-44z" id="path244-6"/></clipPath><clipPath id="clipPath27772-5-3"><path d="M651 271.24h58v58h-58z" id="path247-1"/></clipPath><clipPath id="clipPath27864-0-7"><path d="M662 307.24h38v8h-38z" id="path250-5"/></clipPath><clipPath id="clipPath28028-3-9"><path d="M858.98 137.24c.013-.101.021-.203.021-.307v-6.693h15.75a2.257 2.257 0 0 0 2.25-2.25v-11.25l-27-4.5-27 4.5v-2.25l27-4.5 27 4.5v-27a2.257 2.257 0 0 0-2.25-2.25h-49.5a2.257 2.257 0 0 0-2.25 2.25v-4.25h54v54zm-35.979 0v-9.25a2.257 2.257 0 0 0 2.25 2.25h15.75v6.693c0 .104.007.207.02.307zm22.5-7h9v4.5h-9zm1.125-9c-.62 0-1.125-.506-1.125-1.125v-2.25c0-.619.505-1.125 1.125-1.125h6.75c.619 0 1.125.506 1.125 1.125v2.25c0 .619-.506 1.125-1.125 1.125z" id="path253-6"/></clipPath><clipPath id="clipPath28200-6-2"><path d="M531.27 136.24c6.325-2.29 10.727-8.277 10.727-15.484 0-11.316-10.2-20.563-25.65-34.575l-4.35-3.941-4.35 3.941c-15.45 14.012-25.65 23.259-25.65 34.575V81.24h60v55zm-26.983 0c2.995-1.052 5.686-2.883 7.71-5.25 2.024 2.367 4.715 4.198 7.71 5.25zm-22.29 0v-15.484c0 7.207 4.402 13.194 10.727 15.484z" id="path256-1"/></clipPath><clipPath id="clipPath28364-1-7"><path d="M648 79.241h64v64h-64z" id="path259-8"/></clipPath><clipPath id="clipPath28984-0-5"><path d="M500 691.74a5.5 5.5 0 1 1 11.001.001A5.5 5.5 0 0 1 500 691.74" id="path262-7"/></clipPath><clipPath id="clipPath29012-6-4"><path d="M500 669.74a5.5 5.5 0 1 1 11.001.001A5.5 5.5 0 0 1 500 669.74" id="path265-1"/></clipPath><clipPath id="clipPath29040-3-8"><path d="M494 680.74a5.5 5.5 0 1 1 11 0 5.5 5.5 0 0 1-11 0" id="path268-5"/></clipPath><clipPath id="clipPath29068-2-9"><path d="M513 691.74a5.5 5.5 0 1 1 11.001.001A5.5 5.5 0 0 1 513 691.74" id="path271-7"/></clipPath><clipPath id="clipPath29096-0-5"><path d="M513 669.74a5.5 5.5 0 1 1 11.001.001A5.5 5.5 0 0 1 513 669.74" id="path274-3"/></clipPath><clipPath id="clipPath29124-6-8"><path d="M507 680.74a5.5 5.5 0 1 1 11.001.001A5.5 5.5 0 0 1 507 680.74" id="path277-8"/></clipPath><clipPath id="clipPath29152-1-3"><path d="M520 680.74a5.5 5.5 0 1 1 11.001.001A5.5 5.5 0 0 1 520 680.74" id="path280-1"/></clipPath><clipPath id="clipPath29252-5-8"><path d="M321 322.24a9 9 0 0 1 0-18h45a9 9 0 0 1 0 18z" id="path283-9"/></clipPath><clipPath id="clipPath29280-5-6"><path d="M322 297.24a9 9 0 0 1 0-18h45a9 9 0 0 1 0 18z" id="path286-4"/></clipPath><clipPath id="clipPath29400-4-3"><path d="M155 83.24h44v53h-44z" id="path289-3"/></clipPath><clipPath id="clipPath13429-3-4"><path d="M481 318h22v22h-22z" id="path299-8"/></clipPath><clipPath id="clipPath13465-6-6-8"><path d="M507 318h22v22h-22z" id="path302-8"/></clipPath><clipPath id="clipPath13501-7-9"><path d="M530 318h22v22h-22z" id="path305-7"/></clipPath><clipPath id="clipPath13753-5-7"><path d="M672 1064c0-1.105 4.925-2 11-2s11 .895 11 2-4.925 2-11 2-11-.895-11-2" id="path308-6"/></clipPath><clipPath id="clipPath13771-3-4"><path d="M660 1057h51v65.001h-51z" id="path311-3"/></clipPath><clipPath id="clipPath14035-5-0"><path d="M659 517h53v18h-53z" id="path314-3"/></clipPath><clipPath id="clipPath14127-6-0"><path d="M659 500h53v18h-53z" id="path317-9"/></clipPath><clipPath id="clipPath14445-2-2"><path d="M648 112h73v60h-73z" id="path320-5"/></clipPath><clipPath id="clipPath14609-9-2-4"><path d="M826 1056h59v60h-59z" id="path323-0"/></clipPath><clipPath id="clipPath15305-1-5"><path d="M805 276h100v100H805z" id="path326-9"/></clipPath><clipPath id="clipPath15341-2-4"><path d="M145 1063.8h74.152v45.21H145z" id="path329-6"/></clipPath><clipPath id="clipPath15715-7-9-9"><path d="M151 667h57v57h-57z" id="path332-2"/></clipPath><clipPath id="clipPath15807-0-2"><path d="M154 697h51v51h-51z" id="path335-4"/></clipPath><clipPath id="clipPath16001-9-7"><path d="M500.04 864.45h36.012v67.52H500.04z" id="path338-7"/></clipPath><clipPath id="clipPath16093-3-1-5"><path d="M836 870.54h47v55.539h-47z" id="path341-4"/></clipPath><clipPath id="clipPath16477-6-8"><path d="M318.03 702.35h62.848v37.991H318.03z" id="path344-1"/></clipPath><clipPath id="clipPath16579-0-2"><path d="M485.03 133.35h62.847v37.991H485.03z" id="path347-8"/></clipPath><clipPath id="clipPath16709-6-9"><path d="M493.37 677.93h45.643v68.067H493.37z" id="path350-3"/></clipPath><clipPath id="clipPath24218-2-6"><path d="M144.34 1018.2h71.467v78H144.34z" id="path353-8"/></clipPath><clipPath id="clipPath24382-6-0"><path d="m293.21 1068.6 66.323-38.292 36.047 62.435-66.323 38.292z" id="path356-2"/></clipPath><clipPath id="clipPath24650-1-1"><path d="M488.86 1054.5h10v10.706h-10z" id="path359-0"/></clipPath><clipPath id="clipPath24700-8-5"><path d="M508 1066.8h10.001v10.705H508z" id="path362-1"/></clipPath><clipPath id="clipPath24750-7-1"><path d="M525 1045.8h10v10.706h-10z" id="path365-0"/></clipPath><clipPath id="clipPath24864-9-8"><path d="M836 1043.7h25.5v31.5H836z" id="path368-5"/></clipPath><clipPath id="clipPath24896-2-2-0"><path d="M838 1062.2h24v24h-24z" id="path371-6"/></clipPath><clipPath id="clipPath25070-0-4"><path d="M134 489.24h7v6h-7z" id="path374-6"/></clipPath><clipPath id="clipPath25100-2-2"><path d="M216 489.24h7v6h-7z" id="path377-5"/></clipPath><clipPath id="clipPath25502-3-8"><path d="M838 477.24h22v22h-22z" id="path380-6"/></clipPath><clipPath id="clipPath25686-7-2"><path d="M704 1061.2h25v25h-25z" id="path383-8"/></clipPath><clipPath id="clipPath25788-5-4"><path d="m663.04 1078.6-1.808-3.514-21.07-47.453c13.336-18.439 48.336-26.938 73.836-3.439.842 0 6.476 6.246 6 7l-18.386 25.895a1.505 1.505 0 0 1-2.177.431l-15.505-11.011a.73.73 0 0 0-1.07.238l-18.272 31.869c-.218.384-.502.578-.782.578-.282 0-.561-.197-.766-.594" id="path386-7"/></clipPath><clipPath id="clipPath26420-9-2"><path d="M127 820.24h100v100H127z" id="path389-4"/></clipPath><clipPath id="clipPath26860-2-0"><path d="M809 680.24c0-22.092 17.908-40 40-40s40 17.908 40 40c0 22.091-17.908 40-40 40s-40-17.909-40-40" id="path392-6"/></clipPath><clipPath id="clipPath27506-2-2"><path d="M658 469.24h44v45h-44z" id="path395-9"/></clipPath><clipPath id="clipPath27772-8-9"><path d="M651 271.24h58v58h-58z" id="path398-0"/></clipPath><clipPath id="clipPath27864-9-7-8"><path d="M662 307.24h38v8h-38z" id="path401-1"/></clipPath><clipPath id="clipPath28028-7-3"><path d="M858.98 137.24c.013-.101.021-.203.021-.307v-6.693h15.75a2.257 2.257 0 0 0 2.25-2.25v-11.25l-27-4.5-27 4.5v-2.25l27-4.5 27 4.5v-27a2.257 2.257 0 0 0-2.25-2.25h-49.5a2.257 2.257 0 0 0-2.25 2.25v-4.25h54v54zm-35.979 0v-9.25a2.257 2.257 0 0 0 2.25 2.25h15.75v6.693c0 .104.007.207.02.307zm22.5-7h9v4.5h-9zm1.125-9c-.62 0-1.125-.506-1.125-1.125v-2.25c0-.619.505-1.125 1.125-1.125h6.75c.619 0 1.125.506 1.125 1.125v2.25c0 .619-.506 1.125-1.125 1.125z" id="path404-1"/></clipPath><clipPath id="clipPath28200-3-1"><path d="M531.27 136.24c6.325-2.29 10.727-8.277 10.727-15.484 0-11.316-10.2-20.563-25.65-34.575l-4.35-3.941-4.35 3.941c-15.45 14.012-25.65 23.259-25.65 34.575V81.24h60v55zm-26.983 0c2.995-1.052 5.686-2.883 7.71-5.25 2.024 2.367 4.715 4.198 7.71 5.25zm-22.29 0v-15.484c0 7.207 4.402 13.194 10.727 15.484z" id="path407-0"/></clipPath><clipPath id="clipPath28364-6-3"><path d="M648 79.241h64v64h-64z" id="path410-4"/></clipPath><clipPath id="clipPath28984-1-0"><path d="M500 691.74a5.5 5.5 0 1 1 11.001.001A5.5 5.5 0 0 1 500 691.74" id="path413-3"/></clipPath><clipPath id="clipPath29012-2-9"><path d="M500 669.74a5.5 5.5 0 1 1 11.001.001A5.5 5.5 0 0 1 500 669.74" id="path416-1"/></clipPath><clipPath id="clipPath29040-9-9"><path d="M494 680.74a5.5 5.5 0 1 1 11 0 5.5 5.5 0 0 1-11 0" id="path419-6"/></clipPath><clipPath id="clipPath29068-3-9"><path d="M513 691.74a5.5 5.5 0 1 1 11.001.001A5.5 5.5 0 0 1 513 691.74" id="path422-3"/></clipPath><clipPath id="clipPath29096-1-3"><path d="M513 669.74a5.5 5.5 0 1 1 11.001.001A5.5 5.5 0 0 1 513 669.74" id="path425-8"/></clipPath><clipPath id="clipPath29124-9-0"><path d="M507 680.74a5.5 5.5 0 1 1 11.001.001A5.5 5.5 0 0 1 507 680.74" id="path428-5"/></clipPath><clipPath id="clipPath29152-4-6"><path d="M520 680.74a5.5 5.5 0 1 1 11.001.001A5.5 5.5 0 0 1 520 680.74" id="path431-6"/></clipPath><clipPath id="clipPath29252-7-4"><path d="M321 322.24a9 9 0 0 1 0-18h45a9 9 0 0 1 0 18z" id="path434-0"/></clipPath><clipPath id="clipPath29280-8-0"><path d="M322 297.24a9 9 0 0 1 0-18h45a9 9 0 0 1 0 18z" id="path437-4"/></clipPath><clipPath id="clipPath29400-4-0-6"><path d="M155 83.24h44v53h-44z" id="path440-2"/></clipPath><linearGradient id="linearGradient1005-3-3" x1="5.253" x2="9.382" y1="15.383" y2="2.942" gradientTransform="translate(19.69 -19.654) scale(3.7795)" gradientUnits="userSpaceOnUse"><stop stop-color="#fa8200" offset="0" id="stop292"/><stop stop-color="#ff9600" offset=".37" id="stop294"/><stop stop-color="#ffb400" offset="1" id="stop296"/></linearGradient><linearGradient id="linearGradient5204"><stop style="stop-color:#ffb400;stop-opacity:1" offset="0" id="stop5200"/><stop style="stop-color:#ff9600;stop-opacity:1" offset=".587" id="stop5206"/><stop style="stop-color:#fa8200;stop-opacity:1" offset="1" id="stop5202"/></linearGradient><linearGradient id="linearGradient1005-3-3-3" x1="5.253" x2="9.382" y1="15.383" y2="2.942" gradientTransform="translate(-.135 .025) scale(3.7795)" gradientUnits="userSpaceOnUse"><stop stop-color="#fa8200" offset="0" id="stop292-8"/><stop stop-color="#ff9600" offset=".37" id="stop294-6"/><stop stop-color="#ffb400" offset="1" id="stop296-0"/></linearGradient><linearGradient id="linearGradient1124"><stop stop-color="#2864b4" offset="0" id="stop2467"/><stop stop-color="#0a4682" offset="1" id="stop2469"/></linearGradient><linearGradient id="linearGradient1116"><stop stop-color="#28a0f5" offset="0" id="stop2472"/><stop stop-color="#057ddc" offset="1" id="stop2474"/></linearGradient><linearGradient id="linearGradient1108"><stop stop-color="#50d2ff" offset="0" id="stop2477"/><stop stop-color="#19a0e6" offset="1" id="stop2479"/></linearGradient><linearGradient id="linearGradient1110" x1="-86.517" x2="-86.517" y1="3.439" y2="17.991" gradientTransform="translate(241.6 1.232) scale(3.27797)" gradientUnits="userSpaceOnUse" xlink:href="#linearGradient1108"/><linearGradient id="linearGradient970" x1="-86.411" x2="-86.411" y1="3.439" y2="17.991" gradientTransform="translate(198.077 6.594) scale(2.98002)" gradientUnits="userSpaceOnUse" xlink:href="#linearGradient1116"/><linearGradient id="linearGradient972" x1="-86.411" x2="-86.411" y1="3.439" y2="17.991" gradientTransform="translate(198.078 6.593) scale(2.97999)" gradientUnits="userSpaceOnUse" xlink:href="#linearGradient1116"/><linearGradient id="linearGradient974" x1="-86.411" x2="-86.411" y1="3.439" y2="17.991" gradientTransform="translate(233.637 6.594) scale(2.98002)" gradientUnits="userSpaceOnUse" xlink:href="#linearGradient1124"/><linearGradient id="linearGradient976" x1="-86.411" x2="-86.411" y1="3.439" y2="17.991" gradientTransform="translate(233.637 6.593) scale(2.97999)" gradientUnits="userSpaceOnUse" xlink:href="#linearGradient1124"/><linearGradient id="linearGradient978" x1="-86.517" x2="-86.517" y1="3.439" y2="17.991" gradientTransform="translate(241.607 1.232) scale(3.27802)" gradientUnits="userSpaceOnUse" xlink:href="#linearGradient1108"/><linearGradient id="linearGradient1448" x1="9.615" x2=".529" y1="3.541" y2="16.404" gradientTransform="translate(2.666 2.666) scale(3.46461)" gradientUnits="userSpaceOnUse"><stop stop-color="#dcdcdc" offset="0" id="stop2491" style="stop-color:#ffb400;stop-opacity:1"/><stop stop-color="#dcdcdc" offset=".628" id="stop2574" style="stop-color:#ff9600;stop-opacity:1"/><stop stop-color="#f0f0f0" offset="1" id="stop2493" style="stop-color:#fa8200;stop-opacity:1"/></linearGradient><linearGradient xlink:href="#linearGradient5204" id="linearGradient5198" x1="39.697" y1="20.279" x2="5.124" y2="59.38" gradientUnits="userSpaceOnUse"/><filter id="filter4007" x="-.056" y="-.06" width="1.113" height="1.12" color-interpolation-filters="sRGB"><feGaussianBlur stdDeviation=".568" id="feGaussianBlur443"/></filter><filter id="filter3977" x="-.056" y="-.06" width="1.112" height="1.121" color-interpolation-filters="sRGB"><feGaussianBlur stdDeviation=".847" id="feGaussianBlur443-6"/></filter><filter id="filter1170" x="-.092" y="-.077" width="1.184" height="1.154" color-interpolation-filters="sRGB"><feGaussianBlur stdDeviation=".315" id="feGaussianBlur2483"/></filter></defs><path id="rect5188" style="fill:url(#linearGradient5198);fill-opacity:1;stroke-width:.3;stroke-linecap:round;paint-order:stroke fill markers" d="M17.5 4.5c-7.202 0-13 5.798-13 13v29c0 7.202 5.798 13 13 13h29c7.202 0 13-5.798 13-13v-29c0-7.202-5.798-13-13-13z"/><style type="text/css" id="style452">.st0{opacity:.15;fill:#45413c}.st1{fill:#ffe500}.st2{fill:#ebcb00}.st3{fill:none;stroke:#45413c;stroke-linecap:round;stroke-linejoin:round;stroke-miterlimit:10}.st4{fill:#ffaa54}.st5{fill:#ff8a14}.st6,.st7{fill:#ffb0ca;stroke:#45413c;stroke-linecap:round;stroke-linejoin:round;stroke-miterlimit:10}.st7{fill:#ff87af}.st8{fill:#fc9}.st9{fill:#fff}.st10{fill:#f0f0f0}.st11{fill:#bf8256}.st12{fill:#915e3a}.st13{fill:#dea47a}.st14{fill:#f0d5a8}.st15{fill:#debb7e}.st16{fill:#f7e5c6}.st17{fill:#ff8a14;stroke:#45413c;stroke-linecap:round;stroke-linejoin:round;stroke-miterlimit:10}.st18{fill:#fff5e3}.st19{fill:#fff48c}.st20{fill:#fffacf}.st21{fill:#fffce5}.st22{fill:#ff87af}.st23{fill:#ffb0ca}.st24{fill:#ffe500}.st24,.st25,.st26,.st27,.st28,.st29{stroke:#45413c;stroke-linecap:round;stroke-linejoin:round;stroke-miterlimit:10}.st25{fill:#9ceb60}.st26{fill:#fffacf}.st27{fill:#00f5bc}.st28{fill:#bf8256}.st29{fill:#ffe3cf}.st30{fill:#ff6242}.st31{fill:#ff866e}.st32,.st33,.st34{fill:none;stroke:#e04122;stroke-linecap:round;stroke-linejoin:round;stroke-miterlimit:10}.st33,.st34{fill:#fffef2;stroke:#45413c}.st34{fill:#ff6242}.st35{fill:#ffa694}.st36{fill:#fff;stroke:#45413c;stroke-linecap:round;stroke-linejoin:round;stroke-miterlimit:10}.st37{fill:#fffef2}.st38{fill:#ff6196}.st39{fill:#b89558}.st40,.st41,.st42{fill:none;stroke:#915e3a;stroke-linecap:round;stroke-linejoin:round;stroke-miterlimit:10}.st41,.st42{fill:#debb7e;stroke:#45413c}.st42{fill:#6dd627}.st43{fill:#e5f8ff}.st44,.st45{fill:#e8f4fa}.st45{stroke:#45413c;stroke-linecap:round;stroke-linejoin:round;stroke-miterlimit:10}.st46{fill:#fcd}.st47{fill:#e5f8ff}.st47,.st48{stroke:#45413c;stroke-linecap:round;stroke-linejoin:round;stroke-miterlimit:10}.st48,.st49{fill:#00b8f0}.st50{fill:#4acfff}.st51,.st52{fill:#e04122}.st52{stroke:#45413c;stroke-linecap:round;stroke-linejoin:round;stroke-miterlimit:10}.st53{fill:#87898c}.st54{fill:#bdbec0}.st55{fill:#656769}.st56{fill:#525252}.st57{fill:#fff48c;stroke:#45413c;stroke-linecap:round;stroke-linejoin:round;stroke-miterlimit:10}.st58{fill:#6dd627}.st59{fill:#eb6d00}.st60{fill:#46b000}.st61{fill:#80ddff}.st62{fill:#daedf7}.st63,.st64{fill:#bf8df2;stroke:#45413c;stroke-linecap:round;stroke-linejoin:round;stroke-miterlimit:10}.st64{fill:#9f5ae5}.st65{fill:#c8ffa1}.st66{fill:#e4ffd1}.st67{fill:#9ceb60}.st68{fill:#e5feff}.st69{fill:#b8ecff}.st70{stroke:#45413c;stroke-linecap:round;stroke-linejoin:round;stroke-miterlimit:10}.st70,.st71{fill:#e0e0e0}.st72,.st73{fill:none;stroke:#4f4b45;stroke-linejoin:round;stroke-miterlimit:10}.st73{stroke-linecap:round}.st74,.st75,.st76,.st77{stroke:#45413c;stroke-miterlimit:10}.st74{fill:#e0366f;stroke-linecap:round;stroke-linejoin:round}.st75{fill:none}.st76,.st77{fill:#ff866e;stroke-linecap:round;stroke-linejoin:round}.st77{fill:#45413c}.st78{fill:#9f5ae5}.st79,.st80{fill:#803ec2}.st80{stroke:#45413c;stroke-linecap:round;stroke-linejoin:round;stroke-miterlimit:10}.st81{fill:#bf8df2}.st82,.st83,.st84,.st85{stroke:#45413c;stroke-linejoin:round;stroke-miterlimit:10}.st82{fill:#ffaa54;stroke-linecap:round}.st83{fill:none}.st84,.st85{fill:#fcd;stroke-linecap:round}.st85{fill:#ff6196}.st86{fill:#ffe5ee}.st87{fill:#f7e5c6;stroke:#45413c;stroke-linecap:round;stroke-linejoin:round;stroke-miterlimit:10}.st88{fill:#e5fff9}.st89{fill:none;stroke:#45413c;stroke-width:1.0064;stroke-linecap:round;stroke-linejoin:round;stroke-miterlimit:10}.st90{fill:#4aeff7}.st91{fill:#a6fbff}.st92,.st93{stroke:#45413c;stroke-linecap:round;stroke-miterlimit:10}.st92{fill:#e5feff;stroke-linejoin:round}.st93{fill:#46b000}.st93,.st94{stroke-linejoin:round}.st94,.st95{fill:#fff;stroke:#45413c;stroke-miterlimit:10}.st96{fill:#009fd9}.st97{fill:#00dfeb}.st100,.st98,.st99{stroke:#45413c;stroke-linecap:round;stroke-linejoin:round;stroke-miterlimit:10}.st98{fill:#c0dceb}.st99{fill:#00dfeb}.st100{fill:#ffe5ee}.st101{fill:#8ca4b8}.st102{fill:#adc4d9}.st103,.st104{fill:#656769;stroke:#45413c;stroke-linecap:round;stroke-linejoin:round;stroke-miterlimit:10}.st104{fill:#f0f0f0}.st105{fill:#c0dceb}.st106{fill:#45413c}.st107{fill:#ffcabf}.st108,.st109{fill:#87898c;stroke:#45413c;stroke-linecap:round;stroke-linejoin:round;stroke-miterlimit:10}.st109{fill:#ebcb00}</style><g transform="translate(-5.875 -2.996) scale(1.447)" fill="#f04b00" filter="url(#filter4007)" id="g1650" style="display:inline"><path d="M19.061 12.803a4.969 4.969 0 0 0-4.98 4.98 4.969 4.969 0 0 0 4.98 4.98 4.969 4.969 0 0 0 4.98-4.98c0-2.76-2.221-4.98-4.98-4.98zm-3.557 12.805v9.96h7.114v-9.96Z" stroke-width="1.153" id="path1642"/><g transform="translate(-303.74 -398.09) scale(.80676)" id="g1648"><path transform="rotate(-36.621 416.41 534.81)" d="m420.91 541.36-10.562-7.902 12.124-5.196z" id="path1644"/><path d="M411.91 509.56h11.8v11.8h-11.8z" id="path1646"/></g></g><g transform="translate(-76.084 -.001)" fill="#fafafa" id="g1660" style="display:inline"><path d="M97.79 15.531a7.19 7.19 0 0 0-7.206 7.206 7.19 7.19 0 0 0 7.206 7.205 7.19 7.19 0 0 0 7.206-7.205 7.19 7.19 0 0 0-7.206-7.206zM92.643 34.06v14.411h10.294V34.06Z" stroke-width="1.668" id="path1652"/><g transform="translate(-369.3 -579.03) scale(1.1674)" id="g1658"><path transform="rotate(-36.621 416.41 534.81)" d="m420.91 541.36-10.562-7.902 12.124-5.196z" id="path1654"/><path d="M411.91 509.56h11.8v11.8h-11.8z" id="path1656"/></g></g></svg>