<?xml version="1.0" encoding="UTF-8" standalone="no"?>
<svg
   width="64"
   height="64"
   version="1.1"
   viewBox="0 0 64 64"
   id="svg15"
   sodipodi:docname="org.kde.arianna.svg"
   inkscape:version="1.4.2 (ebf0e940d0, 2025-05-08)"
   xmlns:inkscape="http://www.inkscape.org/namespaces/inkscape"
   xmlns:sodipodi="http://sodipodi.sourceforge.net/DTD/sodipodi-0.dtd"
   xmlns="http://www.w3.org/2000/svg"
   xmlns:svg="http://www.w3.org/2000/svg">
  <sodipodi:namedview
     id="namedview15"
     pagecolor="#ffffff"
     bordercolor="#111111"
     borderopacity="1"
     inkscape:showpageshadow="0"
     inkscape:pageopacity="0"
     inkscape:pagecheckerboard="1"
     inkscape:deskcolor="#d1d1d1"
     inkscape:zoom="8"
     inkscape:cx="-6.125"
     inkscape:cy="12.375"
     inkscape:window-width="2560"
     inkscape:window-height="1371"
     inkscape:window-x="0"
     inkscape:window-y="0"
     inkscape:window-maximized="1"
     inkscape:current-layer="svg15" />
  <defs
     id="defs9">
    <linearGradient
       id="linearGradient902"
       x1="136"
       x2="189"
       y1="30.5"
       y2="30.5"
       gradientTransform="translate(-130.5,0.4991)"
       gradientUnits="userSpaceOnUse">
      <stop
         stop-color="#543c2c"
         offset="0"
         id="stop1" />
      <stop
         stop-color="#766356"
         offset=".076733"
         id="stop2" />
      <stop
         stop-color="#d1d1c7"
         offset=".15604"
         id="stop3" />
      <stop
         stop-color="#d3cfc5"
         offset=".92868"
         id="stop4" />
      <stop
         stop-color="#7e5a4e"
         offset="1"
         id="stop5" />
    </linearGradient>
    <linearGradient
       id="linearGradient880"
       x1="150"
       x2="150"
       y1="9"
       y2="50.983"
       gradientTransform="translate(-130.5,0.4991)"
       gradientUnits="userSpaceOnUse">
      <stop
         stop-color="#66cdff"
         offset="0"
         id="stop6"
         style="stop-color:#ffb100;stop-opacity:1;" />
      <stop
         stop-color="#0080cc"
         offset="1"
         id="stop7"
         style="stop-color:#ff7a00;stop-opacity:1;" />
    </linearGradient>
    <linearGradient
       id="linearGradient59957"
       x1="21.923"
       x2="21.923"
       y1="16.221"
       y2="2.7081"
       gradientTransform="matrix(1.9248 0 0 1.9248 -1.6767 -.35221)"
       gradientUnits="userSpaceOnUse">
      <stop
         stop-color="#99deff"
         offset="0"
         id="stop8" />
      <stop
         stop-color="#fff"
         offset="1"
         id="stop9" />
    </linearGradient>
    <linearGradient
       id="paint0_linear_510_1129"
       x1="562.26801"
       y1="456.76001"
       x2="609.52399"
       y2="456.76001"
       gradientUnits="userSpaceOnUse"
       gradientTransform="matrix(0.07190967,0,0,0.08632807,-46.902951,-0.56667975)">
      <stop
         stop-color="#E8E7E4"
         id="stop100" />
      <stop
         offset="0.511049"
         stop-color="white"
         id="stop102" />
      <stop
         offset="1"
         stop-color="#C2BFBA"
         id="stop104" />
    </linearGradient>
    <linearGradient
       id="paint1_linear_510_1129"
       x1="482.569"
       y1="655.625"
       x2="79.034401"
       y2="-44.716599"
       gradientUnits="userSpaceOnUse"
       gradientTransform="matrix(0.07116236,0,0,0.08632807,-46.986021,-0.56667975)">
      <stop
         offset="0.140181"
         stop-color="#FF7A00"
         id="stop107" />
      <stop
         offset="1"
         stop-color="#FFB800"
         id="stop109" />
    </linearGradient>
    <linearGradient
       id="paint2_linear_510_1129"
       x1="482.569"
       y1="655.625"
       x2="79.034401"
       y2="-44.716599"
       gradientUnits="userSpaceOnUse"
       gradientTransform="matrix(0.07141466,0,0,0.08632807,-46.986021,-0.56667975)">
      <stop
         offset="0.140181"
         stop-color="#FF7A00"
         id="stop112" />
      <stop
         offset="1"
         stop-color="#FFB800"
         id="stop114" />
    </linearGradient>
  </defs>
  <rect
     x="4.4986"
     y="4.4990001"
     width="55.000999"
     height="55.000999"
     ry="13"
     fill="#0070b2"
     stroke-width="0.31428"
     id="rect9"
     style="stroke-opacity:0.95294;fill:#ff7d00;fill-opacity:1" />
  <rect
     x="5.4995999"
     y="5.4991002"
     width="53.000999"
     height="51.001999"
     ry="10"
     fill="url(#linearGradient902)"
     stroke-width="0.29708"
     id="rect10"
     style="fill:url(#linearGradient902);stroke-opacity:0.95294" />
  <path
     d="m 17.499,4.499 c -7.202,0 -13,5.7983 -13,13 v 26.003 c 0,4.432 3.5681,8.0003 8.0003,8.0003 h 39.002 c 4.432,0 8.0003,-3.5681 8.0003,-8.0003 V 17.499 c 0,-7.202 -5.7983,-13 -13,-13 z"
     fill="url(#linearGradient880)"
     stroke-width="0.31428"
     id="path10"
     style="fill:url(#linearGradient880);stroke-opacity:0.95294" />
  <path
     d="m 9.4988,7.2532 c -1.13,0.88216 -2.1086,1.9473 -2.8946,3.1504 -0.031201,0.04798 -0.0592,0.09806 -0.089803,0.14649 -0.2161,0.34062 -0.41731,0.69148 -0.60156,1.0528 -0.045,0.08866 -0.085903,0.17971 -0.1289,0.26953 -0.15437,0.32083 -0.29574,0.64941 -0.42384,0.9844 -0.048802,0.12807 -0.095802,0.25672 -0.14063,0.38673 -0.10626,0.307 -0.19783,0.62038 -0.28126,0.93753 -0.039402,0.15069 -0.081103,0.30033 -0.11523,0.45314 -0.072602,0.3232 -0.12579,0.65429 -0.17383,0.98636 -0.020599,0.14288 -0.050503,0.28337 -0.0664,0.42774 -0.052869,0.47687 -0.084043,0.9596 -0.084043,1.4512 v 26.003 c 0,3.3689 2.0645,6.2333 5,7.4163 z"
     opacity="0.5"
     id="path11"
     style="fill:#a85000;stroke-width:0.31428;stroke-opacity:0.95294;fill-opacity:1" />
  <path
     d="m 4.4986,42.501 v 1.002 c 0,4.432 3.5681,8.0003 8.0003,8.0003 h 39.002 c 4.432,0 8.0003,-3.5681 8.0003,-8.0003 v -1.002 c 0,4.432 -3.5681,8.0003 -8.0003,8.0003 h -39.002 c -4.432,0 -8.0003,-3.5681 -8.0003,-8.0003 z"
     id="path12"
     style="fill:#8d4300;stroke-width:0.31428;stroke-opacity:0.95294;fill-opacity:1" />
  <path
     d="m 4.4986,45.499 v 1.002 c 0,7.202 5.7983,13 13,13 h 29.002 c 7.202,0 13,-5.7983 13,-13 v -1.002 c 0,7.202 -5.7983,13 -13,13 h -29.002 c -7.202,0 -13,-5.7983 -13,-13 z"
     id="path13"
     style="fill:#8d4300;stroke-width:0.31428;stroke-opacity:0.95294;fill-opacity:1" />
  <path
     d="m 58.495,47.43 c -0.07177,0.05953 -0.149393,0.11358 -0.222441,0.1719 -2.281567,3.3923 -7.124929,4.2736 -12.193415,4.2736 H 16.151248 c -4.17741,0 -8.630029,-0.61642 -10.9295197,-3.0606 -0.010928,0.02306 -0.023982,0.06202 -0.035673,0.08788 2.2880193,2.4771 6.7652207,3.0997 10.9643437,3.0997 h 29.927896 c 5.092863,0 9.953944,-0.92778 12.228238,-4.3397 -0.02632,0.05907 -0.0564,0.11566 -0.08393,0.17382 -2.153231,3.7223 -6.942513,5.0393 -12.144252,5.0393 h -29.92789 c -4.385635,0 -8.8870081,-0.98617 -11.0360399,-3.7989 -0.010638,0.02608 -0.01876,0.04853 -0.029375,0.07616 2.1341805,2.8493 6.6560379,3.8495 11.0657419,3.8495 h 29.927896 c 5.036735,0 9.676379,-1.2706 11.926092,-4.7109 -2.094646,3.8522 -6.706839,5.584 -11.926092,5.584 H 16.150788 c -4.636877,0 -9.1649824,-1.3523 -11.1282195,-4.5665 -0.00978,0.02948 -0.011753,0.0635 -0.020985,0.09373 1.9523804,3.2384 6.4965655,4.5998 11.1497285,4.5998 h 29.927895 c 5.218741,0 9.828169,-1.7573 11.926092,-5.5938 -2.049169,4.0831 -6.649482,6.4669 -11.926092,6.4669 H 16.151312 c -4.703862,0 -9.2501986,-2.0697 -11.1650923,-5.4082 -0.00871,0.03061 -0.013076,0.06248 -0.020985,0.09377 1.9028078,3.3586 6.4656333,5.4415 11.1845523,5.4415 h 29.927895 c 5.137417,0 9.630698,-2.2718 11.758119,-6.1524 -2.049579,4.153 -6.523708,7.0255 -11.758119,7.0255 H 16.149787 c -4.784776,0 -9.3205631,-2.5483 -11.1743104,-5.9884 -0.024509,-0.04547 -0.034488,-0.09657 -0.048262,-0.1465 -0.0044,0.02381 -0.011068,0.04641 -0.014687,0.0703 0.015922,0.06966 0.029406,0.1409 0.062953,0.20312 1.8540546,3.4402 6.3901484,5.9884 11.1743104,5.9884 h 29.927895 c 5.711496,0 10.518805,-3.4201 12.256917,-8.1915 0.04278,-0.10424 0.0864,-0.20826 0.125929,-0.31446 0.01084,-0.02192 0.02051,-0.04464 0.03136,-0.06641 z"
     opacity="0.15"
     stroke-width="1.03653"
     id="path14"
     style="fill:#8d4300;fill-opacity:1" />
  <path
     style="fill:#8d4300;stroke-width:0.824;stroke-linecap:square;stroke-linejoin:bevel;paint-order:markers fill stroke;fill-opacity:1"
     d="m 4.4986,43.503001 0.576151,2.993189 3.4385402,3.598326 0.9854132,0.66264 L 9.4988,56.727273 6.1844556,52.925253 4.7405987,49.020895 4.4986,47.28269 Z"
     id="path1"
     sodipodi:nodetypes="ccccccccc" />
  <line
     x1="5.7171211"
     y1="13.406234"
     x2="5.7171211"
     y2="45.499001"
     stroke="#acacac"
     stroke-width="0.510259"
     stroke-linecap="round"
     stroke-dasharray="40, 40"
     id="line16"
     style="stroke-width:0.51;stroke-dasharray:2.55, 2.55;stroke-dashoffset:0" />
  <path
     id="path2703"
     style="color:#000000;opacity:0.809735;fill:#ffffff;stroke-width:0.0960566;-inkscape-stroke:none"
     d="m 10.180275,6.7404737 c 0.11207,0.0083 0.390876,0.011109 0.501826,0.025569 0.0868,0.0111 0.17241,0.02602 0.25804,0.0408 0.12737,0.02226 0.25429,0.04639 0.37962,0.07672 0.0659,0.01579 0.13067,0.034 0.1957,0.05193 0.14052,0.03903 0.28003,0.08132 0.41725,0.130328 0.0494,0.01756 0.098,0.03683 0.14677,0.05564 0.14797,0.05722 0.2943,0.11883 0.43754,0.187493 0.0384,0.01838 0.0762,0.03782 0.11422,0.05698 0.1482,0.07487 0.29373,0.1551905 0.4359,0.2421245 0.0332,0.02027 0.0659,0.04115 0.0987,0.06205 0.14339,0.09144 0.28351,0.188845 0.41971,0.292369 0.0288,0.02188 0.0573,0.04404 0.0857,0.06644 0.13678,0.107767 0.26953,0.221472 0.39794,0.341267 0.0248,0.0231 0.0496,0.04612 0.074,0.06963 0.12905,0.124329 0.25321,0.255018 0.37258,0.391342 0.0201,0.02294 0.0404,0.04556 0.0602,0.06879 0.12026,0.141383 0.23369,0.287852 0.34084,0.438385 0.0154,0.02167 0.0315,0.04287 0.0466,0.06475 0.10719,0.154608 0.20672,0.314066 0.29992,0.476995 0.012,0.02095 0.0246,0.04129 0.0363,0.06239 0.0909,0.163056 0.1737,0.330302 0.25036,0.500432 0.0112,0.02478 0.0233,0.04906 0.0342,0.07402 0.0712,0.163272 0.13361,0.330247 0.19144,0.498916 0.0123,0.03635 0.0263,0.07193 0.0381,0.108579 0.0494,0.152565 0.0901,0.307927 0.12845,0.464014 0.0141,0.05788 0.0303,0.114836 0.0429,0.173332 0.029,0.133605 0.05,0.269115 0.0708,0.404662 0.0129,0.08492 0.0276,0.169265 0.0373,0.255275 0.0132,0.114322 0.0196,0.229546 0.0268,0.344807 0.007,0.1069 0.014,0.213585 0.0156,0.321875 0.002,0.111315 -0.003,0.223099 -0.007,0.334859 -0.11748,3.424631 -2.7667,6.150208 -6.06666,6.234336 -0.1735003,-0.0069 -0.3463503,-0.02267 -0.5189003,-0.04039 -0.0128,-0.0013 -0.0255,-0.0026 -0.0383,-0.004 l -5e-5,1.492399 c 0.0202,0.0011 -0.0203,0.07461 0,0.07561 v 5.645722 1.266764 1.53323 l -8e-5,6.779117 1.6e-4,1.533681 -8e-5,1.631075 H 11.053131 V 37.95719 36.423685 33.89184 c 0.12988,-0.0013 0.25966,-0.0027 0.39009,-0.0081 0.20206,-0.0081 0.40395,-0.01895 0.60525,-0.03399 h 1.7e-4 c 0.20217,-0.01517 0.4039,-0.03427 0.60526,-0.05714 h 3.4e-4 5e-4 c 0.2009,-0.02303 0.40136,-0.04997 0.60149,-0.08058 l 0.001,-1.76e-4 c 0.19996,-0.03033 0.39934,-0.06432 0.5979,-0.102242 h 5e-4 3.4e-4 c 0.19911,-0.03805 0.39735,-0.08016 0.59478,-0.125668 0.19771,-0.04551 0.39428,-0.09479 0.58988,-0.147703 l 5e-4,-1.76e-4 c 0.19572,-0.05295 0.39045,-0.109419 0.58383,-0.169627 0.19381,-0.06026 0.38637,-0.12445 0.5776,-0.192038 h 1.7e-4 c 0.19143,-0.06771 0.38147,-0.138941 0.57008,-0.213801 h -3.4e-4 c 0.18859,-0.07474 0.37571,-0.153065 0.56141,-0.234871 h 1.7e-4 c 0.18601,-0.08193 0.37021,-0.167379 0.55289,-0.256282 0.18271,-0.08897 0.36368,-0.181353 0.54276,-0.277028 l -0.68495,-1.361359 c -0.16293,0.08708 -0.32735,0.171062 -0.49317,0.251731 h -1.7e-4 c -0.1662,0.08084 -0.33375,0.15859 -0.50266,0.233031 -0.16883,0.07434 -0.33907,0.145507 -0.51052,0.213447 h -1.7e-4 l -1.7e-4,1.77e-4 c -0.17157,0.06812 -0.34427,0.132846 -0.51804,0.194245 -0.1741,0.06148 -0.34921,0.119846 -0.52525,0.174678 h -1.6e-4 c -0.17625,0.05485 -0.35324,0.106305 -0.53114,0.154447 h -1.7e-4 l -1.6e-4,1.75e-4 c -0.17827,0.04821 -0.35724,0.09318 -0.53687,0.134608 h -1.6e-4 c -0.17984,0.04144 -0.36049,0.07949 -0.54161,0.114158 -0.18106,0.03439 -0.36263,0.06554 -0.54472,0.09317 l -6.7e-4,1.76e-4 h -5e-4 c -0.18187,0.02789 -0.36434,0.05227 -0.54733,0.07312 -0.18336,0.02086 -0.36706,0.03805 -0.55093,0.052 -0.18403,0.01382 -0.36818,0.02437 -0.55225,0.03115 h -8.4e-4 -6.7e-4 c -0.11057,0.004 -0.22211,0.0054 -0.33331,0.0067 v -2.773798 c 0.97629,-0.07286 2.12464,-0.141632 3.04422,-0.390129 -0.30054,0.02917 -0.0123,0.02333 0.008,-0.01538 h 3.3e-4 1.7e-4 c 0.13682,-0.03321 0.27331,-0.06835 0.40939,-0.105208 l 5.1e-4,-1.73e-4 c 0.19573,-0.05291 0.39032,-0.109419 0.58366,-0.169622 0.1938,-0.06031 0.3862,-0.124477 0.57744,-0.192047 h 3.3e-4 1.7e-4 c 0.1913,-0.06768 0.38118,-0.138903 0.56959,-0.213627 l 1.7e-4,-1.73e-4 h 1.6e-4 c 0.18842,-0.07468 0.37546,-0.152915 0.56108,-0.234705 h 1.7e-4 v -1.72e-4 c 0.18591,-0.08196 0.37022,-0.1674 0.5529,-0.256287 h 1.7e-4 l 1.6e-4,-1.72e-4 c 0.092,-0.04482 0.18252,-0.09304 0.27375,-0.139608 0.0895,-0.04568 0.17973,-0.08957 0.26835,-0.136912 l 1.7e-4,-1.72e-4 c 0.1791,-0.09555 0.35643,-0.194461 0.53195,-0.296752 h 1.7e-4 c 0.17559,-0.102379 0.34918,-0.207904 0.52083,-0.316819 0.17174,-0.108959 0.34143,-0.221157 0.50904,-0.336543 l 1.7e-4,-1.74e-4 h 1.7e-4 c 0.16745,-0.115405 0.3327,-0.234107 0.49579,-0.355765 v 1.72e-4 c 0.16307,-0.121607 0.32377,-0.24647 0.48221,-0.374144 l 1.7e-4,-1.73e-4 1.6e-4,-1.72e-4 c 0.15848,-0.127593 0.31449,-0.25803 0.46814,-0.39151 l 1.7e-4,-1.73e-4 h 1.7e-4 c 0.082,-0.0713 0.16114,-0.145756 0.24168,-0.218687 0.0374,-0.03385 0.0753,-0.06697 0.11241,-0.101173 l 4.75813,4.809246 c -0.0705,0.06988 -0.1382,0.142665 -0.20961,0.211607 -0.26021,0.239543 -0.52561,0.473034 -0.79638,0.700241 -0.27259,0.228737 -0.55049,0.45134 -0.83335,0.667185 V 31.7259 c -0.25912,0.197672 -0.52337,0.388248 -0.79048,0.574625 -0.31617,0.220599 -0.63678,0.434955 -0.96361,0.639371 v -1.76e-4 c -0.30149,0.188517 -0.60707,0.370047 -0.9168,0.544278 -0.30973,0.174218 -0.62355,0.341284 -0.94103,0.500931 h -1.6e-4 c -0.63483,0.319319 -1.28399,0.608833 -1.94537,0.867673 -0.33072,0.129326 -0.66421,0.251095 -1.00042,0.364861 -0.33626,0.113753 -0.67523,0.219651 -1.01645,0.317668 l 0.39957,1.477021 c 0.72585,-0.208505 1.44204,-0.450744 2.14582,-0.726038 0.3518,-0.137681 0.70035,-0.28346 1.04541,-0.437379 0.34501,-0.153877 0.68659,-0.315892 1.02431,-0.485763 0.33783,-0.169871 0.67161,-0.347716 1.00124,-0.533133 0.32963,-0.18543 0.65513,-0.378512 0.97604,-0.579176 0.34814,-0.217741 0.68975,-0.445964 1.0266,-0.681012 0.0221,-0.01543 0.0452,-0.02912 0.0673,-0.04455 0.26147,-0.183737 0.51939,-0.372607 0.77363,-0.566528 l 1.7e-4,-1.76e-4 c 0.30118,-0.229833 0.59705,-0.466602 0.88735,-0.710181 0.29029,-0.243592 0.57502,-0.494038 0.85397,-0.750997 l 0.006,-0.0054 0.007,-0.0054 c 0.0893,-0.08613 0.17381,-0.17706 0.2618,-0.264542 l 3.06835,3.10123 c -7.55e-4,8.81e-4 -0.0022,0.0027 -0.0029,0.004 -0.003,0.004 0.0092,-0.0095 0.0035,-0.004 l 0.480412,0.485941 0.283402,0.279384 0.298783,0.308891 c 0.096,-0.09858 0.05795,-0.06541 0.07658,-0.08829 0.01862,-0.02302 0.04095,-0.05091 0.06676,-0.08328 0.05162,-0.06486 0.116595,-0.147146 0.1813,-0.22898 0.06471,-0.08179 0.129184,-0.163168 0.178191,-0.224756 0.02451,-0.03074 0.04517,-0.05688 0.0589,-0.0738 0.01373,-0.01693 0.07204,-0.07503 -0.01407,0.01395 l 0.0032,-0.004 0.0032,-0.0027 c 0.191842,-0.203157 0.381104,-0.409063 0.567461,-0.617609 h -1.68e-4 c 0.186352,-0.208506 0.370049,-0.41957 0.55077,-0.633303 l 1.68e-4,-1.76e-4 1.68e-4,-1.62e-4 c 0.180434,-0.213719 0.357944,-0.430065 0.532606,-0.648809 l 5.03e-4,-3.52e-4 c 0.174781,-0.218568 0.346548,-0.43968 0.515428,-0.663136 l -1.174144,-0.94275 c -0.160575,0.21246 -0.324022,0.422752 -0.490229,0.630594 l -1.66e-4,1.77e-4 -1.69e-4,1.62e-4 c -0.166082,0.208018 -0.33501,0.413558 -0.50659,0.616782 -0.171615,0.202954 -0.345969,0.403402 -0.522954,0.601426 v 1.75e-4 c -0.03553,0.03967 -0.07243,0.07814 -0.108157,0.11768 l -2.998965,-3.031097 -0.046,-0.04618 -1.01645,-1.0275 -4.73195,-4.783116 -0.39565,-0.399774 c 0.0344,-0.04171 0.0687,-0.08344 0.1026,-0.125452 0.044,-0.05443 0.0895,-0.107347 0.13286,-0.162371 0.60376,-0.767288 1.13276,-1.580809 1.58654,-2.431012 0.0587,-0.109513 0.11387,-0.220624 0.17017,-0.331654 0.16528,-0.327129 0.31932,-0.658835 0.46241,-0.995302 0.0359,-0.08417 0.0803,-0.16347 0.11486,-0.248362 l 8.437293,2.804819 0.456846,-1.459314 -8.385089,-2.787617 c 0.0373,-0.122433 0.0647,-0.24882 0.0993,-0.372458 0.0918,-0.328817 0.17456,-0.659522 0.24642,-0.993278 0.0352,-0.163554 0.0697,-0.326835 0.10014,-0.492171 0.0846,-0.458006 0.15668,-0.918416 0.20355,-1.38243 0.004,-0.04368 0.006,-0.08824 0.01,-0.13202 0.0252,-0.270874 0.0417,-0.542583 0.054,-0.814721 h 7.589049 v 1.71e-4 l 0.764523,-1.43e-4 h 0.500864 v -1.74e-4 h 0.222697 c -3.6e-5,-0.19412 -0.0087,-0.503049 -0.01315,-0.766667 h 0.01117 c -1.72e-4,-0.763518 -0.0352,-1.52664 -0.10506,-2.286762 v -1.73e-4 C 34.676034,10.521407 34.632474,10.142341 34.580318,9.764474 34.528148,9.386547 34.467443,9.009635 34.398037,8.634453 H 34.39787 C 34.259064,7.884026 34.086069,7.1404855 33.879247,6.4062695 v -1.72e-4 C 33.701505,5.7753865 33.49409,5.1538055 33.267516,4.5394065 h -1.599131 c 0.03457,0.08701 0.073,0.172388 0.106515,0.259827 v 1.73e-4 c 0.255901,0.667237 0.481132,1.345946 0.674964,2.034105 0.193849,0.6881385 0.356156,1.3850345 0.4863,2.0882285 0.06503,0.351487 0.121956,0.704491 0.170827,1.058532 0.04889,0.354102 0.08957,0.709183 0.122233,1.065274 h 1.69e-4 v 3.45e-4 c 0.02923,0.318046 0.05253,0.844715 0.06986,1.375686 h -7.556972 c -0.0114,-0.254681 -0.03,-0.509291 -0.0529,-0.763802 -0.006,-0.06279 -0.007,-0.126766 -0.0131,-0.189347 -0.0478,-0.472815 -0.12046,-0.943979 -0.2083,-1.413792 -0.029,-0.155377 -0.0634,-0.308361 -0.0965,-0.462158 -0.0712,-0.329588 -0.1527,-0.657301 -0.24396,-0.983837 -0.0429,-0.153444 -0.0827,-0.307721 -0.12977,-0.459292 -0.0197,-0.06346 -0.0366,-0.127389 -0.0571,-0.190698 l 4.093964,-1.8466115 -0.596914,-1.404686 -4.04046,1.822668 c -0.29672,-0.692997 -0.65048,-1.351814 -1.03238,-1.990538 h -1.76506 c 0.55707,0.812947 1.04589,1.679745 1.43993,2.602994 l -0.003,0.0015 0.16395,0.3859475 c 0.0264,0.06679 0.0473,0.134796 0.0726,0.201825 0.10353,0.273786 0.20426,0.549118 0.2924,0.83057 0.0574,0.182513 0.10514,0.366712 0.15545,0.550511 0.0682,0.250321 0.13157,0.502713 0.18735,0.758238 0.0363,0.165095 0.0728,0.330131 0.10357,0.495881 0.0761,0.413654 0.14171,0.831188 0.18425,1.256309 0.006,0.0588 0.007,0.117706 0.0125,0.176534 0.0182,0.204963 0.02,0.414528 0.0301,0.621832 h -6.6475 c -0.005,-0.05602 -0.0134,-0.110909 -0.0196,-0.166586 -0.0143,-0.126442 -0.0356,-0.251182 -0.0556,-0.376506 -0.0224,-0.139614 -0.0438,-0.279176 -0.073,-0.416293 -0.0255,-0.119877 -0.0578,-0.237693 -0.0885,-0.356107 -0.0353,-0.135548 -0.0697,-0.271017 -0.11159,-0.403652 -0.0391,-0.124247 -0.0851,-0.245601 -0.13008,-0.367737 -0.0442,-0.119535 -0.0871,-0.239377 -0.13663,-0.356102 -0.0568,-0.134716 -0.12092,-0.265788 -0.1849,-0.397244 -0.0474,-0.09692 -0.0934,-0.194383 -0.14448,-0.288998 -0.0777,-0.144605 -0.16229,-0.284954 -0.24872,-0.424727 -0.0466,-0.0751 -0.0921,-0.150714 -0.14104,-0.224082 -0.0518,-0.07796 -0.10214,-0.156485 -0.15676,-0.232682 l 2.75598,-2.7845585 -1.03429,-1.086856 h -0.0154 l -2.69986,2.727765 c -0.0663,-0.06269 -0.13859,-0.11726 -0.20683,-0.177378 -0.0572,-0.05047 -0.1147,-0.09997 -0.17328,-0.148714 -0.13275,-0.110191 -0.26823,-0.215574 -0.40727,-0.316142 -0.0726,-0.05268 -0.14606,-0.103298 -0.2204,-0.153435 -0.13,-0.08731 -0.26151,-0.171113 -0.39615,-0.250048 -0.0943,-0.05556 -0.19027,-0.107658 -0.287,-0.159168 -0.12013,-0.06366 -0.24073,-0.125385 -0.36391,-0.182435 -0.11634,-0.05414 -0.23464,-0.103677 -0.35392,-0.151917 -0.11317,-0.04558 -0.287677,-0.1393 -0.402897,-0.179343 -0.696842,0.3541156 -1.246944,0.5327037 -2.114999,1.1917942 z M 37.49952,4.5394835 c 0.06675,0.222627 0.132086,0.445689 0.193572,0.669716 v 1.74e-4 1.72e-4 c 0.07103,0.259076 0.138648,0.519192 0.202735,0.780156 v 1.73e-4 c 0.06421,0.261288 0.12498,0.523199 0.182117,0.786057 v 1.73e-4 c 0.05716,0.262863 0.110734,0.52641 0.160847,0.7907795 v 1.73e-4 c 0.05014,0.264159 0.09669,0.529277 0.139737,0.794994 v 1.72e-4 c 0.04307,0.265643 0.08262,0.532071 0.118631,0.799041 0.03589,0.266703 0.06813,0.533766 0.09687,0.801401 v 1.73e-4 c 0.02876,0.267653 0.05395,0.535604 0.07543,0.803761 v 1.72e-4 l 1.67e-4,1.74e-4 v 1.72e-4 c 0.02164,0.268266 0.03966,0.536992 0.05415,0.805785 1.2e-5,1.72e-4 -7e-6,5.18e-4 0,6.91e-4 0.01435,0.269264 0.02546,0.537935 0.03225,0.805785 7e-6,2.58e-4 -8e-6,3.45e-4 0,6.9e-4 v 5.18e-4 3.45e-4 8.64e-4 1.72e-4 c 0.0076,0.267804 0.01091,0.53658 0.01091,0.80646 v 1.72e-4 1.73e-4 c -7.3e-5,0.269942 -0.0034,0.53893 -0.01091,0.806798 v 0.0012 0.0014 c -0.0068,0.268041 -0.01787,0.536664 -0.03225,0.806123 -0.01451,0.268953 -0.0325,0.537575 -0.05415,0.805954 l -1.67e-4,1.72e-4 v 3.45e-4 c -0.02147,0.268156 -0.04668,0.536103 -0.07543,0.803763 -0.02876,0.267854 -0.06096,0.535312 -0.09687,0.802243 -0.03601,0.266748 -0.07558,0.53294 -0.118631,0.798365 -0.0431,0.265801 -0.08962,0.530926 -0.139737,0.795163 -0.05006,0.264249 -0.103676,0.52804 -0.160847,0.790947 -0.05714,0.262863 -0.117908,0.524942 -0.182117,0.786226 -0.06419,0.261227 -0.131684,0.521397 -0.202735,0.780494 -0.07108,0.259002 -0.14574,0.517308 -0.223842,0.774424 h -1.68e-4 v 1.72e-4 c -0.07795,0.257002 -0.159299,0.512935 -0.244131,0.76768 -0.08481,0.254511 -0.173207,0.508028 -0.264914,0.76026 l -1.68e-4,1.72e-4 -1.67e-4,1.74e-4 c -0.09156,0.252375 -0.186265,0.503486 -0.284549,0.753177 -0.09831,0.249324 -0.200059,0.497294 -0.305002,0.743737 -0.105002,0.246672 -0.213226,0.491873 -0.324799,0.735474 -0.111627,0.243501 -0.226659,0.485276 -0.344764,0.725528 l 1.327511,0.692984 c 0.124321,-0.252882 0.245413,-0.50746 0.362926,-0.763799 v -1.74e-4 l 1.67e-4,-1.72e-4 c 0.117409,-0.256342 0.231311,-0.514165 0.341819,-0.77375 h -1.69e-4 c 0.110484,-0.259464 0.217526,-0.520513 0.321038,-0.783021 l 1.68e-4,-1.74e-4 v -4.37e-4 c 0.103372,-0.262619 0.203294,-0.526651 0.299603,-0.792127 l 1.67e-4,-3.45e-4 c 0.0964,-0.26518 0.189167,-0.531825 0.278494,-0.799883 h 1.67e-4 v -1.74e-4 c 0.08922,-0.267923 0.174868,-0.537066 0.256896,-0.807471 v -5.16e-4 c 0.08212,-0.270359 0.160745,-0.541903 0.235624,-0.814723 v -1.71e-4 c 0.0748,-0.272795 0.146063,-0.546531 0.213533,-0.82113 0.06753,-0.274843 0.131273,-0.550731 0.191444,-0.827535 0.06012,-0.276526 0.116804,-0.553938 0.169519,-0.832257 l -1.68e-4,1.73e-4 c 0.05275,-0.27821 0.101796,-0.557121 0.1471,-0.836472 0.04535,-0.279581 0.08682,-0.559614 0.12469,-0.84018 v -1.74e-4 -1.72e-4 c 0.03778,-0.280843 0.07202,-0.562264 0.10227,-0.844061 v -1.71e-4 c 0.03023,-0.281441 0.05657,-0.563348 0.07919,-0.845746 v -5.19e-4 c 0.02278,-0.282421 0.04184,-0.564883 0.0571,-0.847768 v -3.45e-4 -1.73e-4 c 0.015,-0.281663 0.02666,-0.5644 0.03387,-0.848105 v -0.0021 c 7.54e-4,-0.02764 4.19e-4,-0.05517 0.0011,-0.08278 h 3.822668 c -0.01337,0.585926 -0.02195,1.172201 -0.06577,1.756743 -0.06286,0.839513 -0.157041,1.676413 -0.282421,2.508908 -0.125373,0.832611 -0.281747,1.660299 -0.468956,2.481259 -0.187184,0.820834 -0.405063,1.634492 -0.653037,2.439103 -0.248131,0.804791 -0.526102,1.599919 -0.833683,2.383971 -0.307527,0.783829 -0.644351,1.555953 -1.009582,2.314672 v 1.71e-4 c -0.365163,0.758863 -0.758572,1.503719 -1.179428,2.233234 -0.4209,0.72956 -0.868947,1.443168 -1.343218,2.139319 -0.47432,0.696071 -0.9746,1.373995 -1.499647,2.032756 v 1.63e-4 c -0.523996,0.657638 -1.072486,1.295248 -1.64413,1.912043 -0.294719,0.3072 -1.491021,1.491985 -1.886626,1.874763 -0.588028,0.541936 -1.192016,1.066117 -1.817085,1.56503 -0.658566,0.525415 -1.336677,1.026196 -2.032744,1.500964 h -1.68e-4 c -0.696208,0.475051 -1.410079,0.923968 -2.139919,1.345677 -0.72973,0.421522 -1.47491,0.815606 -2.23417,1.181442 -0.75927,0.365931 -1.53209,0.703328 -2.31664,1.011489 -0.7845,0.307971 -1.5803,0.586652 -2.38569,0.835119 h -1.7e-4 c -0.80546,0.248658 -1.61996,0.466967 -2.44181,0.654713 -0.82185,0.187773 -1.65042,0.344806 -2.48403,0.470597 l 0.21566,1.517309 c 0.86925,-0.131223 1.73332,-0.295013 2.59039,-0.490815 0.85706,-0.19579 1.70658,-0.423525 2.54669,-0.682867 0.84014,-0.259193 1.67028,-0.549898 2.48878,-0.871208 h 1.7e-4 c 0.81849,-0.321486 1.62484,-0.673334 2.4171,-1.055164 0.7923,-0.381759 1.56987,-0.793218 2.33154,-1.23321 0.761682,-0.440102 1.506735,-0.908612 2.23351,-1.404519 0.726733,-0.495689 1.434961,-1.018328 2.12274,-1.567048 h 1.68e-4 c 0.628795,-0.501892 1.237908,-1.027862 1.830993,-1.571612 l 0.0021,0.0027 c 0.0084,-0.0081 0.03606,-0.03615 0.04533,-0.04509 0.03979,-0.03657 0.08129,-0.07123 0.120918,-0.108065 l -0.0055,-0.0067 c 0.466202,-0.452451 1.520247,-1.493894 1.863064,-1.85166 l 0.0042,-0.004 0.0042,-0.004 c 0.598395,-0.645477 1.172596,-1.313055 1.721197,-2.001569 v -1.62e-4 c 0.548711,-0.688447 1.071553,-1.397179 1.567389,-2.124828 v -1.64e-4 c 0.495815,-0.727772 0.964278,-1.473879 1.404417,-2.236779 0.440066,-0.762818 0.851669,-1.541899 1.233587,-2.335575 v -1.72e-4 c 0.381996,-0.793549 0.734342,-1.601084 1.056053,-2.421064 0.321791,-0.820276 0.612654,-1.652442 0.872298,-2.494577 v -1.73e-4 c 0.259477,-0.841933 0.487572,-1.693188 0.683472,-2.552242 0.195926,-0.859178 0.359665,-1.725457 0.490882,-2.596925 0.131234,-0.871344 0.229713,-1.747328 0.295513,-2.626091 0.04678,-0.624001 0.07097,-1.249244 0.08459,-1.87477 h 0.01455 l -1.82e-4,-0.766557 v -1.73e-4 l 1.67e-4,-0.766667 h -0.01455 c -0.01364,-0.625401 -0.03768,-1.250616 -0.08445,-1.874376 v -2.43e-4 C 45.419677,9.6695 45.321004,8.793403 45.189763,7.921943 45.058541,7.0504755 44.894804,6.1841965 44.698881,5.3250205 44.638971,5.0622885 44.57038,4.8017085 44.504491,4.5404795 h -1.535808 c 0.0998,0.376849 0.194586,0.755098 0.281276,1.135248 0.18721,0.820959 0.34375,1.648817 0.46912,2.4814255 0.1254,0.83263 0.219712,1.669555 0.282585,2.509248 v 1.73e-4 c 0.04382,0.584379 0.05241,1.170303 0.06577,1.756069 h -3.822991 c -6.71e-4,-0.02756 -4.19e-4,-0.05487 -0.0011,-0.08244 v -8.64e-4 -0.0015 -1.72e-4 c -0.0075,-0.282854 -0.01867,-0.565389 -0.03371,-0.847769 v -5.18e-4 -1.72e-4 c -0.01525,-0.282856 -0.03432,-0.565426 -0.0571,-0.847766 v -5.17e-4 -1.74e-4 c -0.02271,-0.28232 -0.04921,-0.564158 -0.07936,-0.845576 V 9.795002 C 40.042973,9.513344 40.009013,9.23203 39.971227,8.95128 h -1.66e-4 V 8.950931 C 39.933151,8.670222 39.891521,8.390154 39.846164,8.11042 v -1.73e-4 c -0.0453,-0.27929 -0.09403,-0.557986 -0.146774,-0.8361345 v -1.73e-4 -1.72e-4 c -0.05273,-0.278144 -0.109221,-0.555561 -0.169355,-0.832088 -0.06015,-0.276749 -0.124084,-0.552585 -0.191607,-0.827367 v -1.73e-4 c -0.01425,-0.05797 -0.03059,-0.115445 -0.04516,-0.17333 -0.05443,-0.216363 -0.109235,-0.432551 -0.16821,-0.647629 h -1.66e-4 v -1.74e-4 -1.72e-4 c -0.0232,-0.08445 -0.04909,-0.168158 -0.07298,-0.252408 z M 17.591121,13.955146 h 0.0375 6.61006 c -0.011,0.226608 -0.0123,0.455863 -0.0331,0.679666 -0.004,0.03875 -0.005,0.07765 -0.009,0.116338 -0.0417,0.417357 -0.10694,0.827226 -0.18097,1.233548 -0.0305,0.166286 -0.065,0.331742 -0.10096,0.496892 -0.0572,0.263961 -0.12332,0.524094 -0.19373,0.782517 -0.0454,0.166173 -0.0859,0.333484 -0.13696,0.498073 -0.11222,0.362922 -0.23887,0.719008 -0.37651,1.069153 -0.0722,0.183662 -0.15376,0.363867 -0.23316,0.544776 -0.0906,0.206308 -0.18449,0.410597 -0.28373,0.611716 -0.0894,0.181221 -0.17994,0.361902 -0.2767,0.539719 -0.1178,0.216294 -0.24403,0.426447 -0.37176,0.635827 -0.14127,0.231783 -0.28814,0.460271 -0.44245,0.684891 -0.15596,0.226862 -0.31423,0.451912 -0.48188,0.669041 -0.0749,0.09697 -0.15591,0.189954 -0.23334,0.285289 l -4.79101,-4.842465 c 0.8208,-1.142073 1.36025,-2.512381 1.49785,-4.004981 z m -2.23057,5.412196 4.51367,4.561899 c -2.32529,2.327593 -5.40206,3.841795 -8.82068,4.122166 v -1.224612 -5.654657 c 0.0473,-0.0044 0.0945,-0.0066 0.14171,-0.01192 0.14712,-0.0167 0.29387,-0.03769 0.43983,-0.06273 0.14577,-0.02501 0.29095,-0.05399 0.43524,-0.08716 h 1.7e-4 1.7e-4 c 0.0441,-0.01015 0.0873,-0.02331 0.13123,-0.03421 0.0781,0.241245 0.20515,0.634158 1.23736,3.823389 l 1.41178,-0.485259 c -1.0354,-3.199093 -1.16454,-3.598069 -1.24128,-3.835192 0.0445,-0.02066 0.0901,-0.03939 0.13417,-0.06087 l -3.4e-4,5.18e-4 c 0.13347,-0.06483 0.26488,-0.133563 0.39435,-0.205703 l 3.3e-4,-1.71e-4 6.7e-4,-1.75e-4 c 0.12965,-0.07246 0.25711,-0.148586 0.38256,-0.228296 0.12548,-0.0796 0.24863,-0.162805 0.36931,-0.249204 l 3.4e-4,-1.73e-4 1.7e-4,-1.73e-4 c 0.12053,-0.08646 0.23893,-0.176204 0.35458,-0.269439 0.0392,-0.03151 0.0761,-0.06554 0.1147,-0.09779 z m 11.80164,17.449063 c -0.21052,0.159577 -0.42327,0.316203 -0.63799,0.469743 -0.21468,0.153295 -0.43138,0.303706 -0.65009,0.450866 h -1.7e-4 c -0.21878,0.147281 -0.43956,0.291463 -0.6622,0.432474 -0.22279,0.141109 -0.44753,0.279075 -0.67398,0.413775 h -1.7e-4 c -0.22623,0.134608 -0.45423,0.266059 -0.68396,0.394206 l -1.7e-4,1.78e-4 c -0.22984,0.128107 -0.4616,0.253072 -0.69476,0.374652 -0.23319,0.121606 -0.46793,0.239869 -0.70425,0.354743 -0.2364,0.114973 -0.47436,0.226653 -0.71375,0.334866 -0.23942,0.108201 -0.48035,0.213111 -0.72258,0.314458 h -1.6e-4 c -0.24217,0.10143 -0.48566,0.199379 -0.73044,0.293887 -0.24486,0.09453 -0.49102,0.185418 -0.73812,0.272804 h -1.7e-4 c -0.24722,0.08734 -0.49558,0.171402 -0.74499,0.251731 h -1.7e-4 c -0.24924,0.08043 -0.49971,0.157277 -0.75121,0.23066 -1.7e-4,5.4e-5 -5.1e-4,8.1e-5 -6.7e-4,1.77e-4 -0.25121,0.07313 -0.50352,0.142826 -0.75678,0.208911 h -1.7e-4 c -0.2535,0.06609 -0.50769,0.128784 -0.76267,0.187652 -0.25509,0.05891 -0.51104,0.114158 -0.76741,0.165753 v 1.62e-4 h -1.7e-4 c -0.12826,0.02587 -0.25719,0.04793 -0.38583,0.07205 -0.12849,0.02397 -0.25681,0.04943 -0.38567,0.07163 v 1.63e-4 c -9e-5,2.7e-5 -1.7e-4,-1.5e-5 -3.4e-4,0 h -1.6e-4 c -0.2577,0.04415 -0.51599,0.08491 -0.77462,0.121741 h -1.7e-4 c -0.25887,0.03697 -0.51828,0.07042 -0.77804,0.09994 h -1.7e-4 -5.1e-4 c -0.25973,0.02979 -0.51991,0.05579 -0.7805,0.07801 -0.0867,0.0067 -0.17357,0.01219 -0.26033,0.01855 -0.17386,0.01355 -0.34779,0.02694 -0.52197,0.03697 -0.25997,0.01476 -0.52106,0.02573 -0.78345,0.03372 -3.4e-4,0 -6.7e-4,-1.3e-5 -9.4e-4,0 -0.26173,0.0067 -0.5227,0.01084 -0.78279,0.01084 h -3.3e-4 c -0.26813,2.8e-5 -0.8040703,-0.01706 -0.8040703,-0.01706 v 1.531649 2.917627 1.548509 c 0.26806,0.0067 0.5360503,0.01517 0.8042303,0.01517 h 0.74418 v -0.766664 -3.70688 c 0,0 0.0534,-4.33e-4 0.08,-0.0011 h 6.7e-4 6.7e-4 c 0.27473,-0.0081 0.5495,-0.01964 0.82403,-0.03548 0.13734,-0.0081 0.27442,-0.0195 0.41168,-0.02912 0.13719,-0.0095 0.27458,-0.01746 0.41169,-0.02912 h 1.7e-4 1.7e-4 1.6e-4 c 0.2501,-0.02139 0.49953,-0.04713 0.74876,-0.07503 0.0241,-0.0027 0.0483,-0.004 0.0723,-0.0067 0.27334,-0.03115 0.54641,-0.06636 0.81879,-0.105221 0.27243,-0.03887 0.54423,-0.08166 0.81536,-0.128107 h 1.7e-4 c 0.13568,-0.0233 0.27089,-0.05064 0.40629,-0.07583 0.13536,-0.02519 0.27088,-0.04849 0.40596,-0.0757 0.2701,-0.0543 0.53931,-0.112534 0.80766,-0.174502 h 1.7e-4 c 0.26845,-0.06202 0.53577,-0.1277 0.80226,-0.197279 0.26663,-0.06948 0.5324,-0.14299 0.79704,-0.220029 h 1.6e-4 1.7e-4 c 0.26472,-0.07718 0.5283,-0.158225 0.79065,-0.242808 h 1.7e-4 c 0.26248,-0.0845 0.52363,-0.172822 0.78361,-0.264704 h 1.7e-4 v -1.75e-4 c 0.26029,-0.09208 0.51936,-0.187706 0.77706,-0.287146 0.25755,-0.0994 0.51378,-0.202534 0.76856,-0.30923 l 1.7e-4,-1.75e-4 c 0.25484,-0.106575 0.50817,-0.216809 0.76005,-0.330642 0.25191,-0.113888 0.50244,-0.231404 0.75121,-0.352389 0.24877,-0.12093 0.49582,-0.24519 0.74124,-0.373133 0.24545,-0.127972 0.48917,-0.259654 0.73109,-0.394546 0.24178,-0.134879 0.48188,-0.273277 0.71996,-0.414953 0.23837,-0.141797 0.47485,-0.286846 0.70932,-0.435346 0.23419,-0.14834 0.46642,-0.299982 0.69657,-0.454915 l 1.6e-4,-1.63e-4 c 0.23026,-0.154933 0.45858,-0.313225 0.68462,-0.474647 l 1.7e-4,-1.62e-4 h 1.7e-4 c 0.22593,-0.161568 0.44965,-0.326428 0.67119,-0.494374 z"
     sodipodi:nodetypes="ccccccccccccccccccccsscccccccccccsccccccccccccccccccccccccccccccccccccccccccccccccccccccccccccccccccccccccccccccccccccccccccccccccccccccsccscccccccccccccccccccccccccccccccccscccccccccccccccccccccccccccccccccccccccccccccccccsccccccccccccccccccccscccccccccccccccccccccsccccccccccccccccccccccccccccccccccccccccccscsccccsscsccccccccccccsccccccccccccccccccccccccccccccssccscccccccccsccccccsccccccccccccccccccccccccccccccccccccccccccccccccscccccccccccsccsccccccccsccccccccccccccccccccccccccccccccccccccccccccccccccccscccccccccccccccccccccccsccccscccccccccsccccccccccccccccccccccssccccsccccccccccccscsccscccccccccccccccccscccccccccc" />
</svg>
