<?xml version="1.0" encoding="UTF-8"?>
<svg id="svg1443" width="128" height="128" version="1.1" viewBox="0 0 33.867 33.867" xmlns="http://www.w3.org/2000/svg" xmlns:cc="http://creativecommons.org/ns#" xmlns:dc="http://purl.org/dc/elements/1.1/" xmlns:rdf="http://www.w3.org/1999/02/22-rdf-syntax-ns#" xmlns:xlink="http://www.w3.org/1999/xlink">
 <defs id="defs1437">
  <linearGradient id="linearGradient1632" x1="132.21" x2="132.21" y1="42.152" y2="70.68" gradientTransform="matrix(.97573 0 0 .97573 -111.77 -37.183)" gradientUnits="userSpaceOnUse">
   <stop id="stop1626" stop-color="#c500e5" offset="0"/>
   <stop id="stop1628" stop-color="#7a00dd" offset="1"/>
  </linearGradient>
  <linearGradient id="linearGradient1401" x1="6.947" x2="6.947" y1="7.5193" y2="49.584" gradientUnits="userSpaceOnUse">
   <stop id="stop1395" stop-color="#fcfcfc" offset="0"/>
   <stop id="stop1397" stop-color="#7e00dd" offset="1"/>
  </linearGradient>
 </defs>
 <metadata id="metadata1440">
  <rdf:RDF>
   <cc:Work rdf:about="">
    <dc:format>image/svg+xml</dc:format>
    <dc:type rdf:resource="http://purl.org/dc/dcmitype/StillImage"/>
   </cc:Work>
  </rdf:RDF>
 </metadata>
 <g id="layer1">
  <g id="g1702" transform="matrix(.97573 0 0 .97573 -65.737 -37.183)" fill="none" opacity=".295" stroke="#000" stroke-linecap="round" stroke-linejoin="round" stroke-opacity=".02">
   <rect id="rect1634" x="69.84" y="40.71" width="29.811" height="29.811" rx="6.6099" ry="6.6099" stroke-width=".1"/>
   <rect id="rect1638" x="69.84" y="40.71" width="29.811" height="29.811" rx="6.6099" ry="6.6099" stroke-width=".2"/>
   <rect id="rect1640" x="69.84" y="40.71" width="29.811" height="29.811" rx="6.6099" ry="6.6099" stroke-width=".3"/>
   <rect id="rect1642" x="69.84" y="40.71" width="29.811" height="29.811" rx="6.6099" ry="6.6099" stroke-width=".4"/>
   <rect id="rect1644" x="69.84" y="40.71" width="29.811" height="29.811" rx="6.6099" ry="6.6099" stroke-width=".5"/>
   <rect id="rect1646" x="69.84" y="40.71" width="29.811" height="29.811" rx="6.6099" ry="6.6099" stroke-width=".6"/>
   <rect id="rect1648" x="69.84" y="40.71" width="29.811" height="29.811" rx="6.6099" ry="6.6099" stroke-width=".7"/>
   <rect id="rect1650" x="69.84" y="40.71" width="29.811" height="29.811" rx="6.6099" ry="6.6099" stroke-width=".8"/>
   <rect id="rect1652" x="69.84" y="40.71" width="29.811" height="29.811" rx="6.6099" ry="6.6099"/>
   <rect id="rect1654" x="69.84" y="40.71" width="29.811" height="29.811" rx="6.6099" ry="6.6099" stroke-width="1.2"/>
   <rect id="rect1656" x="69.84" y="40.71" width="29.811" height="29.811" rx="6.6099" ry="6.6099" stroke-width="1.4"/>
   <rect id="rect1658" x="69.84" y="40.71" width="29.811" height="29.811" rx="6.6099" ry="6.6099" stroke-width="1.6"/>
   <rect id="rect1660" x="69.84" y="40.71" width="29.811" height="29.811" rx="6.6099" ry="6.6099" stroke-width="1.8"/>
   <rect id="rect1662" x="69.84" y="40.71" width="29.811" height="29.811" rx="6.6099" ry="6.6099" stroke-width="2"/>
   <rect id="rect1664" x="69.84" y="40.71" width="29.811" height="29.811" rx="6.6099" ry="6.6099" stroke-width="2.2"/>
   <rect id="rect1666" x="69.84" y="40.71" width="29.811" height="29.811" rx="6.6099" ry="6.6099" stroke-width="2.6"/>
   <rect id="rect1668" x="69.84" y="40.71" width="29.811" height="29.811" rx="6.6099" ry="6.6099" stroke-width="3"/>
   <rect id="rect1670" x="69.84" y="40.71" width="29.811" height="29.811" rx="6.6099" ry="6.6099" stroke-width="3.4"/>
   <rect id="rect1672" x="69.84" y="40.71" width="29.811" height="29.811" rx="6.6099" ry="6.6099" stroke-width="3.8"/>
   <rect id="rect1674" x="69.84" y="40.71" width="29.811" height="29.811" rx="6.6099" ry="6.6099" stroke-width="4.2"/>
   <rect id="rect1676" x="69.84" y="40.71" width="29.811" height="29.811" rx="6.6099" ry="6.6099" stroke-width="4.6"/>
   <rect id="rect1678" x="69.84" y="40.71" width="29.811" height="29.811" rx="6.6099" ry="6.6099" stroke-width="5"/>
  </g>
  <rect id="rect849" x="2.4074" y="2.5392" width="29.087" height="29.087" rx="6.4495" ry="6.4495" fill="url(#linearGradient1632)" stroke-linecap="round" stroke-linejoin="round" stroke-width="2.6877"/>
  <path id="path8" d="m17.378 8.261c-5.2827 0-10.431 4.4963-10.431 10.663 0 4.7489 4.224 9.0398 9.5615 9.0398 1.9401 0 4.1012-0.669 5.8571-1.9128 1.7559-1.2438 3.1249-3.1448 3.1249-5.5051 0-4.5117-3.5018-8.8078-8.1128-8.8078-3.7151 0-6.8404 2.937-6.9538 6.3449-0.04959 1.4892 0.28026 3.0713 1.2688 4.3235 0.9885 1.2522 2.6433 2.0803 4.8736 2.0803 2.3512 0 4.8679-1.8208 4.8679-4.7513 0-2.1916-1.795-3.941-3.9749-3.941-0.50361 0-1.1397 0.02749-1.7713 0.33615-0.63159 0.30865-1.2076 1.0686-1.2076 1.9818 0 1.4956 0.91606 2.4572 1.7554 2.748 0.83938 0.29088 1.6038 0.13695 1.6038 0.13695a0.86961 0.86961 0 1 0-0.29767-1.7136s-0.40563 0.04912-0.73681-0.06564c-0.33118-0.11477-0.58628-0.16757-0.58628-1.1058 0-0.35875 0.03205-0.32218 0.23202-0.4199 0.19996-0.09772 0.61964-0.15958 1.0084-0.15958 1.2832 0 2.2365 0.9309 2.2365 2.2025 0 1.9371-1.6563 3.0129-3.1295 3.0129-1.8261 0-2.8523-0.58672-3.5086-1.4182-0.65633-0.83144-0.93476-2.0019-0.89526-3.1883 0.07786-2.3382 2.4403-4.6653 5.2154-4.6653 3.5018 0 6.3744 3.4682 6.3744 7.0693 0 1.6961-0.95568 3.0696-2.3904 4.0858-1.4347 1.0162-3.3301 1.5936-4.8532 1.5936-4.3979 0-7.8231-3.6018-7.8231-7.3013 0-5.1915 4.4063-8.9243 8.6923-8.9243 5.0266 0 7.1695 2.0217 8.2611 4.036 1.0916 2.0143 1.0118 4.0372 1.0118 4.0372a0.86932 0.86932 0 1 0 1.7362 0.07922s0.12326-2.4682-1.219-4.9449c-1.3422-2.4767-4.2701-4.946-9.7902-4.946z" opacity=".1" stroke-width=".57949"/>
  <path id="path10" d="m17.378 7.6815c-5.2827 0-10.431 4.4963-10.431 10.663 0 4.7489 4.224 9.0398 9.5615 9.0398 1.9401 0 4.1012-0.669 5.8571-1.9128 1.7559-1.2438 3.1249-3.1448 3.1249-5.5051 0-4.5117-3.5018-8.8078-8.1128-8.8078-3.7151 0-6.8404 2.937-6.9538 6.3449-0.04959 1.4892 0.28026 3.0713 1.2688 4.3235 0.9885 1.2522 2.6433 2.0803 4.8736 2.0803 2.3512 0 4.8679-1.8208 4.8679-4.7513 0-2.1916-1.795-3.941-3.9749-3.941-0.50361 0-1.1397 0.02749-1.7713 0.33615-0.63159 0.30866-1.2076 1.0686-1.2076 1.9818 0 1.4956 0.91606 2.4572 1.7554 2.748 0.83938 0.29088 1.6038 0.13695 1.6038 0.13695a0.86961 0.86961 0 1 0-0.29767-1.7136s-0.40563 0.04912-0.73681-0.06564c-0.33118-0.11476-0.58628-0.16757-0.58628-1.1058 0-0.35875 0.03205-0.32218 0.23202-0.4199 0.19996-0.09772 0.61964-0.15958 1.0084-0.15958 1.2832 0 2.2365 0.9309 2.2365 2.2025 0 1.9371-1.6563 3.0129-3.1295 3.0129-1.8261 0-2.8523-0.58672-3.5086-1.4182-0.65633-0.83144-0.93476-2.0019-0.89526-3.1883 0.07786-2.3382 2.4403-4.6653 5.2154-4.6653 3.5018 0 6.3744 3.4682 6.3744 7.0693 0 1.6961-0.95568 3.0696-2.3904 4.0858-1.4347 1.0162-3.3301 1.5936-4.8532 1.5936-4.3979 0-7.8231-3.6018-7.8231-7.3013 0-5.1915 4.4063-8.9243 8.6923-8.9243 5.0266 0 7.1695 2.0217 8.2611 4.036 1.0916 2.0143 1.0118 4.0372 1.0118 4.0372a0.86932 0.86932 0 1 0 1.7362 0.07922s0.12326-2.4682-1.219-4.9449c-1.3422-2.4767-4.2701-4.946-9.7902-4.946z" fill="url(#linearGradient1401)" stroke-width=".57949"/>
 </g>
</svg>
