<svg width="128" height="128" viewBox="0 0 33.867 33.867" xmlns:xlink="http://www.w3.org/1999/xlink" xmlns="http://www.w3.org/2000/svg"><defs><linearGradient id="b"><stop style="stop-color:#fff;stop-opacity:1" offset="0"/><stop style="stop-color:#0ca570;stop-opacity:1" offset="1"/></linearGradient><linearGradient id="a"><stop style="stop-color:#5ee98f;stop-opacity:1" offset="0"/><stop style="stop-color:#009b6c;stop-opacity:1" offset="1"/></linearGradient><linearGradient xlink:href="#a" id="c" x1="132.211" y1="42.152" x2="132.211" y2="70.68" gradientUnits="userSpaceOnUse" gradientTransform="translate(-111.776 -37.203) scale(.97573)"/><linearGradient xlink:href="#b" id="d" x1="27.089" y1="33.833" x2="27.089" y2="224.812" gradientUnits="userSpaceOnUse" gradientTransform="translate(-.492 1.361) scale(.26458)"/></defs><g transform="translate(-65.748 -37.203) scale(.97573)" style="opacity:.2967651"><rect style="fill:none;fill-opacity:1;stroke:#000;stroke-width:.1;stroke-linecap:round;stroke-linejoin:round;stroke-miterlimit:4;stroke-dasharray:none;stroke-opacity:.02" width="29.811" height="29.811" x="69.84" y="40.71" rx="6.61" ry="6.61"/><rect ry="6.61" rx="6.61" y="40.71" x="69.84" height="29.811" width="29.811" style="fill:none;fill-opacity:1;stroke:#000;stroke-width:.2;stroke-linecap:round;stroke-linejoin:round;stroke-miterlimit:4;stroke-dasharray:none;stroke-opacity:.02"/><rect style="fill:none;fill-opacity:1;stroke:#000;stroke-width:.3;stroke-linecap:round;stroke-linejoin:round;stroke-miterlimit:4;stroke-dasharray:none;stroke-opacity:.02" width="29.811" height="29.811" x="69.84" y="40.71" rx="6.61" ry="6.61"/><rect ry="6.61" rx="6.61" y="40.71" x="69.84" height="29.811" width="29.811" style="fill:none;fill-opacity:1;stroke:#000;stroke-width:.4;stroke-linecap:round;stroke-linejoin:round;stroke-miterlimit:4;stroke-dasharray:none;stroke-opacity:.02"/><rect style="fill:none;fill-opacity:1;stroke:#000;stroke-width:.5;stroke-linecap:round;stroke-linejoin:round;stroke-miterlimit:4;stroke-dasharray:none;stroke-opacity:.02" width="29.811" height="29.811" x="69.84" y="40.71" rx="6.61" ry="6.61"/><rect ry="6.61" rx="6.61" y="40.71" x="69.84" height="29.811" width="29.811" style="fill:none;fill-opacity:1;stroke:#000;stroke-width:.6;stroke-linecap:round;stroke-linejoin:round;stroke-miterlimit:4;stroke-dasharray:none;stroke-opacity:.02"/><rect style="fill:none;fill-opacity:1;stroke:#000;stroke-width:.7;stroke-linecap:round;stroke-linejoin:round;stroke-miterlimit:4;stroke-dasharray:none;stroke-opacity:.02" width="29.811" height="29.811" x="69.84" y="40.71" rx="6.61" ry="6.61"/><rect ry="6.61" rx="6.61" y="40.71" x="69.84" height="29.811" width="29.811" style="fill:none;fill-opacity:1;stroke:#000;stroke-width:.8;stroke-linecap:round;stroke-linejoin:round;stroke-miterlimit:4;stroke-dasharray:none;stroke-opacity:.02"/><rect style="fill:none;fill-opacity:1;stroke:#000;stroke-width:1;stroke-linecap:round;stroke-linejoin:round;stroke-miterlimit:4;stroke-dasharray:none;stroke-opacity:.02" width="29.811" height="29.811" x="69.84" y="40.71" rx="6.61" ry="6.61"/><rect ry="6.61" rx="6.61" y="40.71" x="69.84" height="29.811" width="29.811" style="fill:none;fill-opacity:1;stroke:#000;stroke-width:1.2;stroke-linecap:round;stroke-linejoin:round;stroke-miterlimit:4;stroke-dasharray:none;stroke-opacity:.02"/><rect style="fill:none;fill-opacity:1;stroke:#000;stroke-width:1.4;stroke-linecap:round;stroke-linejoin:round;stroke-miterlimit:4;stroke-dasharray:none;stroke-opacity:.02" width="29.811" height="29.811" x="69.84" y="40.71" rx="6.61" ry="6.61"/><rect ry="6.61" rx="6.61" y="40.71" x="69.84" height="29.811" width="29.811" style="fill:none;fill-opacity:1;stroke:#000;stroke-width:1.6;stroke-linecap:round;stroke-linejoin:round;stroke-miterlimit:4;stroke-dasharray:none;stroke-opacity:.02"/><rect style="fill:none;fill-opacity:1;stroke:#000;stroke-width:1.8;stroke-linecap:round;stroke-linejoin:round;stroke-miterlimit:4;stroke-dasharray:none;stroke-opacity:.02" width="29.811" height="29.811" x="69.84" y="40.71" rx="6.61" ry="6.61"/><rect ry="6.61" rx="6.61" y="40.71" x="69.84" height="29.811" width="29.811" style="fill:none;fill-opacity:1;stroke:#000;stroke-width:2;stroke-linecap:round;stroke-linejoin:round;stroke-miterlimit:4;stroke-dasharray:none;stroke-opacity:.02"/><rect style="fill:none;fill-opacity:1;stroke:#000;stroke-width:2.2;stroke-linecap:round;stroke-linejoin:round;stroke-miterlimit:4;stroke-dasharray:none;stroke-opacity:.02" width="29.811" height="29.811" x="69.84" y="40.71" rx="6.61" ry="6.61"/><rect ry="6.61" rx="6.61" y="40.71" x="69.84" height="29.811" width="29.811" style="fill:none;fill-opacity:1;stroke:#000;stroke-width:2.6;stroke-linecap:round;stroke-linejoin:round;stroke-miterlimit:4;stroke-dasharray:none;stroke-opacity:.02"/><rect style="fill:none;fill-opacity:1;stroke:#000;stroke-width:3;stroke-linecap:round;stroke-linejoin:round;stroke-miterlimit:4;stroke-dasharray:none;stroke-opacity:.02" width="29.811" height="29.811" x="69.84" y="40.71" rx="6.61" ry="6.61"/><rect ry="6.61" rx="6.61" y="40.71" x="69.84" height="29.811" width="29.811" style="fill:none;fill-opacity:1;stroke:#000;stroke-width:3.4;stroke-linecap:round;stroke-linejoin:round;stroke-miterlimit:4;stroke-dasharray:none;stroke-opacity:.02"/><rect style="fill:none;fill-opacity:1;stroke:#000;stroke-width:3.8;stroke-linecap:round;stroke-linejoin:round;stroke-miterlimit:4;stroke-dasharray:none;stroke-opacity:.02" width="29.811" height="29.811" x="69.84" y="40.71" rx="6.61" ry="6.61"/><rect ry="6.61" rx="6.61" y="40.71" x="69.84" height="29.811" width="29.811" style="fill:none;fill-opacity:1;stroke:#000;stroke-width:4.2;stroke-linecap:round;stroke-linejoin:round;stroke-miterlimit:4;stroke-dasharray:none;stroke-opacity:.02"/><rect style="fill:none;fill-opacity:1;stroke:#000;stroke-width:4.6;stroke-linecap:round;stroke-linejoin:round;stroke-miterlimit:4;stroke-dasharray:none;stroke-opacity:.02" width="29.811" height="29.811" x="69.84" y="40.71" rx="6.61" ry="6.61"/><rect ry="6.61" rx="6.61" y="40.71" x="69.84" height="29.811" width="29.811" style="fill:none;fill-opacity:1;stroke:#000;stroke-width:5;stroke-linecap:round;stroke-linejoin:round;stroke-miterlimit:4;stroke-dasharray:none;stroke-opacity:.02"/></g><rect style="fill:url(#c);fill-opacity:1;stroke-width:2.68768;stroke-linecap:round;stroke-linejoin:round" width="29.087" height="29.087" x="2.396" y="2.519" rx="6.449" ry="6.449"/><g style="opacity:.57312287"><path style="color:#000;fill:#0d3904;fill-opacity:.03574384;stroke:none;stroke-width:1;-inkscape-stroke:none" d="M17.148 8.028c-1.716 0-3.098.746-4.012 1.842-.9 1.08-1.367 2.485-1.38 3.882-.106.029-.213.06-.32.094l-.31.096-.052.318s-.032.171-.053.446a1.392 1.392 0 0 0-1.387 1.392 1.392 1.392 0 0 0 .27.823l-.358.7a.914.914 0 0 0-.676.49l-.383.748a.914.914 0 0 0-.05.723 1.535 1.535 0 0 0-1.347 2.257.37.37 0 0 0 .649-.358.794.794 0 1 1 .783.405.37.37 0 0 0 .042.74.404.404 0 0 0 .042-.003 1.535 1.535 0 0 0 1.054-2.418.914.914 0 0 0 .555-.462l.383-.748a.915.915 0 0 0-.01-.855l.336-.654a1.392 1.392 0 0 0 .102.004 1.392 1.392 0 0 0 .043-.002c-.07.333-.127.75-.128 1.239a5.528 5.528 0 0 0 .71 2.748h-.14a.96.96 0 0 0-.439.109c-.367.187-.666.606-.84 1.181a4.117 4.117 0 0 0-.12 1.743c.157 1.1.72 1.84 1.4 1.84h1.919v-.001a.39.39 0 0 0 .24-.111l.921-.812c.168-.15.298-.502.356-.958 1.131.583 2.064.816 2.064.816l.126.033.127-.031s.887-.22 1.98-.768c.062.432.187.763.349.908l.921.812c.078.07.159.106.24.11v.001h1.92c.68 0 1.242-.739 1.4-1.839a4.117 4.117 0 0 0-.12-1.743c-.175-.575-.473-.994-.84-1.181a.96.96 0 0 0-.44-.109h-.03a5.52 5.52 0 0 0 .71-2.73 5.3 5.3 0 0 0-.149-1.26 1.392 1.392 0 0 0 .114.005 1.392 1.392 0 0 0 .102-.004l.335.655a.915.915 0 0 0-.01.855l.384.748a.907.907 0 0 0 .555.462 1.536 1.536 0 0 0 1.054 2.417.41.41 0 0 0 .043.002.37.37 0 0 0 .042-.74.794.794 0 1 1 .783-.404.37.37 0 1 0 .649.358 1.536 1.536 0 0 0-1.348-2.258.914.914 0 0 0-.05-.72l-.383-.75a.914.914 0 0 0-.677-.489l-.358-.7a1.392 1.392 0 0 0 .271-.824 1.392 1.392 0 0 0-1.392-1.392 1.392 1.392 0 0 0-.035.002c-.02-.266-.049-.43-.049-.43l-.053-.319-.308-.095a12.046 12.046 0 0 0-.337-.1c-.022-2.846-2.174-5.736-5.39-5.736zm0 1.046c2.398 0 4.006 2.058 4.246 4.211h-8.501c.1-1.003.422-1.992 1.048-2.744.736-.883 1.787-1.467 3.207-1.467zm-2.517 5.327c.358.004.677.03.956.07.894.125 1.33.352 1.33.352l.235.117.234-.116s.44-.225 1.335-.347c.817-.112 2.02-.078 3.466.312.012.107.033.258.043.443a1.392 1.392 0 0 0-.301.866 1.392 1.392 0 0 0 .125.576c-.017.216 0 .434.05.645v.01l.028.1c.083.286.177.735.177 1.315a4.53 4.53 0 0 1-.89 2.731h-.664a.4.4 0 0 0-.239.108l-.921.812c-.183.162-.299.524-.353.936-1.086.623-1.998.851-2.102.878-.107-.028-1.075-.275-2.206-.947-.058-.383-.17-.714-.342-.867l-.922-.812a.4.4 0 0 0-.239-.107h-.55a4.528 4.528 0 0 1-.893-2.75 4.71 4.71 0 0 1 .18-1.314l-.003.004a2.08 2.08 0 0 0 .087-.66 1.392 1.392 0 0 0 .166-.658 1.392 1.392 0 0 0-.34-.91c.011-.173.03-.313.042-.414.657-.175 1.293-.314 1.827-.352.241-.017.47-.023.684-.02zm2.597 2.324a1.066 1.066 0 0 0-.316 2.102l-.598 2.512.828.238.83-.235-.591-2.514a1.066 1.066 0 0 0 .832-1.038 1.066 1.066 0 0 0-.985-1.065z"/><path style="color:#000;fill:#0d3904;fill-opacity:.0357439;stroke:none;stroke-width:1;-inkscape-stroke:none" d="M17.44 8.218c-1.717 0-3.099.746-4.012 1.842-.9 1.08-1.368 2.485-1.38 3.882-.106.03-.213.06-.321.094l-.309.096-.052.318s-.032.172-.054.446a1.392 1.392 0 0 0-1.386 1.392 1.392 1.392 0 0 0 .27.823l-.358.7a.914.914 0 0 0-.677.49l-.383.748a.914.914 0 0 0-.049.723 1.535 1.535 0 0 0-1.348 2.258.37.37 0 0 0 .65-.359.794.794 0 1 1 .783.405.37.37 0 0 0 .041.74.404.404 0 0 0 .043-.003 1.535 1.535 0 0 0 1.054-2.417.914.914 0 0 0 .555-.462l.383-.75a.915.915 0 0 0-.01-.853l.335-.655a1.392 1.392 0 0 0 .102.004 1.392 1.392 0 0 0 .044-.002c-.071.333-.128.75-.128 1.239a5.528 5.528 0 0 0 .71 2.748h-.14a.96.96 0 0 0-.44.109c-.367.188-.665.607-.84 1.182a4.117 4.117 0 0 0-.12 1.743c.158 1.1.72 1.838 1.4 1.838h1.92a.39.39 0 0 0 .24-.11l.92-.813c.168-.15.298-.501.357-.958a10.63 10.63 0 0 0 2.063.816l.127.033.127-.031s.887-.22 1.98-.768c.061.432.187.764.348.908l.922.812c.077.07.158.106.24.11v.001h1.92c.68 0 1.242-.739 1.4-1.838a4.117 4.117 0 0 0-.12-1.743c-.175-.575-.473-.994-.84-1.182a.96.96 0 0 0-.44-.109h-.03a5.53 5.53 0 0 0 .71-2.73 5.3 5.3 0 0 0-.15-1.26 1.392 1.392 0 0 0 .115.005 1.392 1.392 0 0 0 .101-.004l.335.656a.915.915 0 0 0-.009.854l.383.749c.12.233.323.393.555.462a1.536 1.536 0 0 0 1.055 2.417.41.41 0 0 0 .042.002.37.37 0 0 0 .042-.74.794.794 0 1 1 .783-.405.37.37 0 1 0 .65.359 1.536 1.536 0 0 0-1.349-2.26.914.914 0 0 0-.05-.72l-.382-.75a.914.914 0 0 0-.677-.489l-.358-.7a1.392 1.392 0 0 0 .27-.824 1.392 1.392 0 0 0-1.391-1.392 1.392 1.392 0 0 0-.035.002c-.02-.266-.05-.43-.05-.43l-.052-.319-.309-.095a12.046 12.046 0 0 0-.336-.1c-.023-2.846-2.175-5.736-5.39-5.736zm0 1.046c2.397 0 4.005 2.058 4.246 4.212h-8.502c.1-1.004.422-1.993 1.049-2.744.736-.884 1.787-1.468 3.207-1.468zm-2.517 5.327c.358.004.677.031.956.07.893.125 1.33.352 1.33.352l.235.117.234-.115s.44-.225 1.334-.348c.818-.112 2.02-.078 3.467.312.011.107.033.258.043.443a1.392 1.392 0 0 0-.302.866 1.392 1.392 0 0 0 .126.577c-.017.215 0 .433.05.644l-.001.01.029.1c.083.286.176.736.176 1.316a4.53 4.53 0 0 1-.89 2.73h-.663a.4.4 0 0 0-.24.108l-.92.813c-.184.161-.3.524-.353.935-1.087.623-1.998.851-2.102.878-.107-.028-1.075-.274-2.206-.947-.058-.383-.17-.714-.343-.866l-.922-.813a.4.4 0 0 0-.238-.107h-.55a4.528 4.528 0 0 1-.893-2.749c0-.58.096-1.03.179-1.315l-.002.005a2.08 2.08 0 0 0 .086-.661 1.392 1.392 0 0 0 .166-.658 1.392 1.392 0 0 0-.34-.91c.012-.172.031-.313.043-.414.656-.175 1.293-.313 1.826-.352.242-.017.47-.023.685-.02zm2.597 2.324a1.066 1.066 0 0 0-.316 2.102l-.599 2.512.828.239.83-.236-.59-2.514a1.066 1.066 0 0 0 .832-1.038 1.066 1.066 0 0 0-.985-1.065z"/><path style="color:#000;fill:#0d3904;fill-opacity:.0357439;stroke:none;stroke-width:1;-inkscape-stroke:none" d="M17.793 8.223c-1.716 0-3.098.746-4.012 1.842-.9 1.081-1.367 2.486-1.38 3.882-.106.03-.213.061-.32.094l-.31.096-.052.318s-.032.172-.053.446a1.392 1.392 0 0 0-1.387 1.393 1.392 1.392 0 0 0 .27.822l-.358.7a.914.914 0 0 0-.677.49l-.382.749a.914.914 0 0 0-.05.722 1.535 1.535 0 0 0-1.347 2.258.37.37 0 0 0 .649-.358.794.794 0 1 1 .783.404.37.37 0 0 0 .042.74.404.404 0 0 0 .042-.002 1.535 1.535 0 0 0 1.054-2.418.914.914 0 0 0 .555-.462l.383-.749a.915.915 0 0 0-.01-.854l.336-.655a1.392 1.392 0 0 0 .102.004 1.392 1.392 0 0 0 .043-.001c-.07.332-.127.749-.128 1.238a5.528 5.528 0 0 0 .71 2.748h-.14a.96.96 0 0 0-.44.109c-.366.188-.665.607-.84 1.182a4.117 4.117 0 0 0-.12 1.743c.158 1.1.72 1.838 1.4 1.838h1.92a.39.39 0 0 0 .24-.11l.921-.813c.168-.15.298-.501.356-.958 1.131.583 2.064.816 2.064.816l.126.033.127-.031s.887-.22 1.98-.767c.062.432.187.763.349.907l.921.812c.078.07.158.107.24.11v.001h1.92c.68 0 1.242-.739 1.4-1.838a4.117 4.117 0 0 0-.12-1.743c-.175-.575-.473-.994-.84-1.182a.96.96 0 0 0-.44-.109h-.03a5.52 5.52 0 0 0 .71-2.73 5.3 5.3 0 0 0-.149-1.26 1.392 1.392 0 0 0 .114.005 1.392 1.392 0 0 0 .102-.004l.335.656a.915.915 0 0 0-.01.854l.384.749a.913.913 0 0 0 .555.462 1.536 1.536 0 0 0 1.054 2.417.41.41 0 0 0 .043.002.37.37 0 0 0 .041-.74.794.794 0 1 1 .784-.404.37.37 0 1 0 .649.358 1.536 1.536 0 0 0-1.348-2.258v-.001a.914.914 0 0 0-.05-.72l-.383-.75a.914.914 0 0 0-.677-.489l-.358-.7a1.392 1.392 0 0 0 .27-.823 1.392 1.392 0 0 0-1.39-1.393 1.392 1.392 0 0 0-.036.002c-.02-.265-.049-.43-.049-.43l-.053-.318-.308-.096a12.046 12.046 0 0 0-.337-.1c-.022-2.845-2.174-5.736-5.39-5.736Zm0 1.047c2.398 0 4.006 2.057 4.246 4.21h-8.502c.101-1.003.423-1.992 1.049-2.743.736-.884 1.787-1.467 3.207-1.467zm-2.517 5.326c.358.004.677.031.956.07.894.125 1.33.352 1.33.352l.235.117.234-.115s.44-.225 1.335-.348c.817-.111 2.02-.078 3.466.313.012.106.033.258.043.442a1.392 1.392 0 0 0-.301.867 1.392 1.392 0 0 0 .125.576c-.017.215 0 .433.05.644v.01l.028.1c.083.286.176.736.176 1.316a4.53 4.53 0 0 1-.89 2.73H21.4a.4.4 0 0 0-.239.108l-.921.813c-.184.161-.299.524-.353.936-1.086.622-1.998.85-2.102.878-.107-.029-1.075-.275-2.206-.948-.058-.383-.17-.714-.342-.866l-.922-.813a.4.4 0 0 0-.239-.107h-.55a4.528 4.528 0 0 1-.893-2.749c.001-.58.096-1.029.18-1.314l-.003.004a2.08 2.08 0 0 0 .087-.661 1.392 1.392 0 0 0 .166-.658 1.392 1.392 0 0 0-.34-.91c.011-.172.03-.313.042-.414.657-.175 1.293-.313 1.827-.351a8.16 8.16 0 0 1 .684-.022zm2.597 2.324a1.066 1.066 0 0 0-.316 2.102l-.599 2.513.829.238.83-.236-.591-2.514a1.066 1.066 0 0 0 .832-1.038 1.066 1.066 0 0 0-.985-1.065z"/><path style="color:#000;fill:#0d3904;fill-opacity:.0357439;stroke:none;stroke-width:1;-inkscape-stroke:none" d="M18.354 8.737c-1.717 0-3.099.746-4.012 1.842-.9 1.08-1.368 2.486-1.38 3.882-.106.03-.213.061-.321.094l-.309.096-.052.318s-.032.172-.054.446a1.392 1.392 0 0 0-1.386 1.392 1.392 1.392 0 0 0 .27.823l-.358.7a.914.914 0 0 0-.677.49l-.383.749a.914.914 0 0 0-.049.722 1.535 1.535 0 0 0-1.348 2.258.37.37 0 0 0 .65-.358.794.794 0 1 1 .783.404.37.37 0 0 0 .041.74.404.404 0 0 0 .043-.002 1.535 1.535 0 0 0 1.054-2.418.914.914 0 0 0 .555-.462l.383-.75a.915.915 0 0 0-.01-.853l.335-.655a1.392 1.392 0 0 0 .102.004 1.392 1.392 0 0 0 .044-.002 5.94 5.94 0 0 0-.128 1.24 5.528 5.528 0 0 0 .71 2.747h-.14a.96.96 0 0 0-.44.109c-.367.188-.665.607-.84 1.182a4.117 4.117 0 0 0-.12 1.743c.158 1.1.72 1.838 1.4 1.838h1.92a.39.39 0 0 0 .24-.11l.92-.813c.168-.15.298-.501.357-.958a10.63 10.63 0 0 0 2.063.816l.127.033.127-.031s.887-.22 1.98-.768c.061.432.187.764.348.908l.922.812a.38.38 0 0 0 .24.11v.001h1.92c.68 0 1.242-.739 1.4-1.838a4.117 4.117 0 0 0-.12-1.743c-.175-.575-.473-.994-.84-1.182a.96.96 0 0 0-.44-.109h-.03a5.53 5.53 0 0 0 .71-2.73 5.3 5.3 0 0 0-.15-1.26 1.392 1.392 0 0 0 .115.005 1.392 1.392 0 0 0 .101-.004l.335.656a.915.915 0 0 0-.009.854l.383.749c.12.233.323.393.555.462a1.536 1.536 0 0 0 1.055 2.417.41.41 0 0 0 .042.002.37.37 0 0 0 .042-.74.794.794 0 1 1 .783-.404.37.37 0 1 0 .65.358 1.536 1.536 0 0 0-1.349-2.259.914.914 0 0 0-.05-.72l-.382-.75a.914.914 0 0 0-.677-.489l-.358-.7a1.392 1.392 0 0 0 .27-.824 1.392 1.392 0 0 0-1.391-1.392 1.392 1.392 0 0 0-.035.002c-.02-.265-.05-.43-.05-.43l-.052-.318-.309-.096a12.046 12.046 0 0 0-.336-.1c-.023-2.845-2.175-5.736-5.39-5.736zm0 1.047c2.397 0 4.005 2.057 4.246 4.21h-8.502c.1-1.003.422-1.992 1.049-2.743.736-.884 1.787-1.467 3.207-1.467zm-2.517 5.326c.358.004.677.031.956.07.893.125 1.33.352 1.33.352l.235.117.234-.115s.44-.225 1.334-.348c.818-.112 2.02-.078 3.467.312.011.107.033.259.043.443a1.392 1.392 0 0 0-.302.866 1.392 1.392 0 0 0 .126.577c-.017.215 0 .433.05.644l-.001.01.029.1c.083.286.176.736.176 1.316a4.53 4.53 0 0 1-.89 2.73h-.663a.4.4 0 0 0-.24.108l-.92.813c-.184.161-.3.524-.353.936-1.087.622-1.998.85-2.102.878-.107-.029-1.075-.275-2.206-.948-.058-.383-.17-.714-.343-.866l-.922-.813a.4.4 0 0 0-.238-.107h-.55a4.528 4.528 0 0 1-.893-2.749c0-.58.096-1.029.179-1.314l-.002.004a2.08 2.08 0 0 0 .086-.661 1.392 1.392 0 0 0 .166-.658 1.392 1.392 0 0 0-.34-.91c.012-.172.031-.313.043-.414.656-.175 1.293-.313 1.826-.351.242-.018.47-.024.685-.022zm2.597 2.324a1.066 1.066 0 0 0-.316 2.102l-.599 2.512.828.239.83-.236-.59-2.514a1.066 1.066 0 0 0 .832-1.038 1.066 1.066 0 0 0-.985-1.065z"/><path style="color:#000;fill:#0d3904;fill-opacity:.0357439;stroke:none;stroke-width:1;-inkscape-stroke:none" d="M19.053 9.214c-1.716 0-3.098.746-4.011 1.842-.901 1.081-1.368 2.486-1.38 3.882-.106.03-.213.061-.321.094l-.309.096-.053.318s-.032.172-.053.446a1.392 1.392 0 0 0-1.386 1.392 1.392 1.392 0 0 0 .27.823l-.358.7a.914.914 0 0 0-.677.49l-.383.749a.914.914 0 0 0-.05.722 1.535 1.535 0 0 0-1.347 2.258.37.37 0 0 0 .65-.358.794.794 0 1 1 .783.404.37.37 0 0 0 .04.74.404.404 0 0 0 .044-.002 1.535 1.535 0 0 0 1.053-2.418.914.914 0 0 0 .555-.462l.383-.749a.915.915 0 0 0-.009-.854l.335-.655a1.392 1.392 0 0 0 .102.004 1.392 1.392 0 0 0 .044-.001 5.92 5.92 0 0 0-.128 1.238 5.528 5.528 0 0 0 .709 2.748h-.14a.96.96 0 0 0-.439.109c-.367.188-.666.607-.84 1.182a4.117 4.117 0 0 0-.12 1.743c.157 1.1.72 1.838 1.4 1.838h1.92a.39.39 0 0 0 .24-.11l.92-.813c.168-.15.298-.501.356-.958 1.131.583 2.064.816 2.064.816l.127.033.127-.031s.886-.22 1.98-.768c.061.432.187.764.348.908l.922.812a.38.38 0 0 0 .24.11v.001h1.92c.679 0 1.242-.739 1.4-1.838a4.117 4.117 0 0 0-.12-1.743c-.175-.575-.474-.994-.841-1.182a.96.96 0 0 0-.44-.109h-.029a5.53 5.53 0 0 0 .71-2.73 5.3 5.3 0 0 0-.15-1.26 1.392 1.392 0 0 0 .115.005 1.392 1.392 0 0 0 .1-.004l.336.656a.915.915 0 0 0-.009.854l.383.749c.12.233.323.393.555.462a1.536 1.536 0 0 0 1.055 2.417.41.41 0 0 0 .042.002.37.37 0 0 0 .042-.74.794.794 0 1 1 .783-.404.37.37 0 1 0 .65.358 1.536 1.536 0 0 0-1.349-2.259.914.914 0 0 0-.05-.72l-.382-.75a.914.914 0 0 0-.677-.489l-.359-.7a1.392 1.392 0 0 0 .271-.824 1.392 1.392 0 0 0-1.391-1.392 1.392 1.392 0 0 0-.036.002c-.02-.265-.049-.43-.049-.43l-.052-.318-.309-.096a12.046 12.046 0 0 0-.336-.1c-.023-2.845-2.175-5.736-5.39-5.736zm0 1.047c2.398 0 4.006 2.057 4.247 4.21h-8.502c.1-1.003.422-1.992 1.048-2.743.737-.884 1.788-1.467 3.207-1.467zm-2.516 5.326c.357.004.676.031.956.07.893.125 1.33.352 1.33.352l.234.117.235-.115s.44-.225 1.334-.348c.818-.112 2.02-.078 3.466.313.012.106.034.258.044.442a1.392 1.392 0 0 0-.302.866 1.392 1.392 0 0 0 .126.577c-.017.215 0 .433.05.644l-.001.01.029.1c.082.286.176.736.176 1.316a4.53 4.53 0 0 1-.89 2.73h-.664a.4.4 0 0 0-.238.108l-.922.813c-.183.161-.298.524-.353.936-1.086.622-1.998.85-2.101.878-.107-.029-1.076-.275-2.206-.948-.058-.383-.17-.714-.343-.866l-.922-.813a.4.4 0 0 0-.239-.107h-.55a4.528 4.528 0 0 1-.892-2.749c0-.58.095-1.029.179-1.314l-.002.004a2.08 2.08 0 0 0 .086-.661 1.392 1.392 0 0 0 .166-.658 1.392 1.392 0 0 0-.34-.91c.011-.172.031-.313.043-.414.656-.175 1.292-.313 1.826-.351a8.17 8.17 0 0 1 .685-.022zm2.596 2.324a1.066 1.066 0 0 0-.315 2.102l-.6 2.513.83.238.829-.236-.591-2.514a1.066 1.066 0 0 0 .832-1.038 1.066 1.066 0 0 0-.985-1.065z"/></g><path style="color:#000;fill:url(#d);fill-opacity:1;stroke:none;stroke-width:1;-inkscape-stroke:none" d="M16.915 7.903c-1.717 0-3.099.746-4.012 1.841-.9 1.081-1.368 2.486-1.38 3.882-.106.03-.213.062-.321.095l-.309.096-.052.318s-.032.171-.054.446a1.392 1.392 0 0 0-1.386 1.392 1.392 1.392 0 0 0 .27.823l-.358.7a.914.914 0 0 0-.677.49l-.383.748a.914.914 0 0 0-.049.723 1.535 1.535 0 0 0-1.348 2.257.37.37 0 0 0 .65-.358.794.794 0 1 1 .783.405.37.37 0 0 0 .041.74.404.404 0 0 0 .043-.003 1.535 1.535 0 0 0 1.054-2.418.914.914 0 0 0 .555-.462l.383-.749a.915.915 0 0 0-.01-.854l.335-.654a1.392 1.392 0 0 0 .102.004 1.392 1.392 0 0 0 .044-.002c-.07.333-.128.75-.128 1.239a5.528 5.528 0 0 0 .71 2.748h-.14a.96.96 0 0 0-.44.108c-.367.188-.665.607-.84 1.182a4.117 4.117 0 0 0-.12 1.743c.158 1.1.72 1.839 1.4 1.839h1.92a.39.39 0 0 0 .24-.111l.92-.813c.168-.15.298-.5.357-.958 1.13.584 2.063.816 2.063.816l.127.033.127-.03s.887-.22 1.98-.768c.062.432.187.763.348.907l.922.813c.077.07.158.106.24.11h1.92c.68 0 1.242-.738 1.4-1.838a4.117 4.117 0 0 0-.12-1.743c-.175-.575-.473-.994-.84-1.182a.96.96 0 0 0-.44-.108h-.03a5.53 5.53 0 0 0 .71-2.73 5.3 5.3 0 0 0-.15-1.26 1.392 1.392 0 0 0 .115.005 1.392 1.392 0 0 0 .101-.005l.335.656a.915.915 0 0 0-.009.854l.383.75a.92.92 0 0 0 .555.461 1.536 1.536 0 0 0 1.055 2.417.41.41 0 0 0 .042.002.37.37 0 0 0 .042-.74.794.794 0 1 1 .783-.404.37.37 0 1 0 .65.358 1.536 1.536 0 0 0-1.349-2.258.914.914 0 0 0-.05-.72l-.382-.75a.914.914 0 0 0-.677-.49l-.358-.7a1.392 1.392 0 0 0 .27-.823 1.392 1.392 0 0 0-1.391-1.392 1.392 1.392 0 0 0-.035.001c-.02-.265-.05-.43-.05-.43l-.052-.318-.309-.095a12.046 12.046 0 0 0-.336-.1c-.023-2.846-2.175-5.736-5.39-5.736zm0 1.046c2.397 0 4.005 2.058 4.246 4.211h-8.502c.1-1.003.422-1.992 1.049-2.744.736-.884 1.787-1.467 3.207-1.467zm-2.517 5.327c.358.004.677.03.956.07.893.125 1.33.352 1.33.352l.235.116.234-.115s.44-.225 1.334-.347c.818-.112 2.02-.078 3.467.312.011.107.033.258.043.443a1.392 1.392 0 0 0-.302.866 1.392 1.392 0 0 0 .126.576c-.017.216 0 .433.05.645l-.001.01.029.1c.083.286.176.735.176 1.315a4.53 4.53 0 0 1-.89 2.73h-.663v.001a.4.4 0 0 0-.24.107l-.92.813c-.184.162-.3.524-.353.936-1.087.622-1.998.851-2.102.878-.107-.028-1.075-.275-2.206-.948-.058-.382-.17-.713-.343-.866l-.922-.813a.4.4 0 0 0-.238-.107h-.55a4.528 4.528 0 0 1-.893-2.748c0-.58.096-1.03.18-1.315l-.003.004a2.08 2.08 0 0 0 .086-.66 1.392 1.392 0 0 0 .166-.658 1.392 1.392 0 0 0-.34-.911c.012-.172.031-.312.043-.414.656-.174 1.293-.313 1.826-.35.242-.018.47-.024.685-.022zm2.597 2.324a1.066 1.066 0 0 0-.316 2.102l-.599 2.512.828.238.83-.235-.59-2.514a1.066 1.066 0 0 0 .832-1.039 1.066 1.066 0 0 0-.985-1.064z"/></svg>