<?xml version="1.0" encoding="UTF-8"?>
<svg id="svg1443" width="128" height="128" version="1.1" viewBox="0 0 33.867 33.867" xmlns="http://www.w3.org/2000/svg" xmlns:cc="http://creativecommons.org/ns#" xmlns:dc="http://purl.org/dc/elements/1.1/" xmlns:rdf="http://www.w3.org/1999/02/22-rdf-syntax-ns#" xmlns:xlink="http://www.w3.org/1999/xlink">
 <defs id="defs1437">
  <radialGradient id="radialGradient963" cx="16.951" cy="2.5104" r="14.544" gradientTransform="matrix(7.1386 0 0 2.2345 -104.06 -3.0991)" gradientUnits="userSpaceOnUse">
   <stop id="stop957" stop-color="#ff9c38" offset="0"/>
   <stop id="stop959" stop-color="#ea3d1c" stop-opacity=".96863" offset="1"/>
  </radialGradient>
  <linearGradient id="linearGradient1395" x1="33.692" x2="33.692" y1="31.354" y2="231.08" gradientUnits="userSpaceOnUse">
   <stop id="stop1389" stop-color="#fff" offset="0"/>
   <stop id="stop1391" stop-color="#ef5423" stop-opacity=".97647" offset="1"/>
  </linearGradient>
 </defs>
 <metadata id="metadata1440">
  <rdf:RDF>
   <cc:Work rdf:about="">
    <dc:format>image/svg+xml</dc:format>
    <dc:type rdf:resource="http://purl.org/dc/dcmitype/StillImage"/>
   </cc:Work>
  </rdf:RDF>
 </metadata>
 <g id="layer1">
  <g id="g1702" transform="matrix(.97573 0 0 .97573 -65.737 -37.183)" fill="none" opacity=".295" stroke="#000" stroke-linecap="round" stroke-linejoin="round" stroke-opacity=".02">
   <rect id="rect1634" x="69.84" y="40.71" width="29.811" height="29.811" rx="6.6099" ry="6.6099" stroke-width=".1"/>
   <rect id="rect1638" x="69.84" y="40.71" width="29.811" height="29.811" rx="6.6099" ry="6.6099" stroke-width=".2"/>
   <rect id="rect1640" x="69.84" y="40.71" width="29.811" height="29.811" rx="6.6099" ry="6.6099" stroke-width=".3"/>
   <rect id="rect1642" x="69.84" y="40.71" width="29.811" height="29.811" rx="6.6099" ry="6.6099" stroke-width=".4"/>
   <rect id="rect1644" x="69.84" y="40.71" width="29.811" height="29.811" rx="6.6099" ry="6.6099" stroke-width=".5"/>
   <rect id="rect1646" x="69.84" y="40.71" width="29.811" height="29.811" rx="6.6099" ry="6.6099" stroke-width=".6"/>
   <rect id="rect1648" x="69.84" y="40.71" width="29.811" height="29.811" rx="6.6099" ry="6.6099" stroke-width=".7"/>
   <rect id="rect1650" x="69.84" y="40.71" width="29.811" height="29.811" rx="6.6099" ry="6.6099" stroke-width=".8"/>
   <rect id="rect1652" x="69.84" y="40.71" width="29.811" height="29.811" rx="6.6099" ry="6.6099"/>
   <rect id="rect1654" x="69.84" y="40.71" width="29.811" height="29.811" rx="6.6099" ry="6.6099" stroke-width="1.2"/>
   <rect id="rect1656" x="69.84" y="40.71" width="29.811" height="29.811" rx="6.6099" ry="6.6099" stroke-width="1.4"/>
   <rect id="rect1658" x="69.84" y="40.71" width="29.811" height="29.811" rx="6.6099" ry="6.6099" stroke-width="1.6"/>
   <rect id="rect1660" x="69.84" y="40.71" width="29.811" height="29.811" rx="6.6099" ry="6.6099" stroke-width="1.8"/>
   <rect id="rect1662" x="69.84" y="40.71" width="29.811" height="29.811" rx="6.6099" ry="6.6099" stroke-width="2"/>
   <rect id="rect1664" x="69.84" y="40.71" width="29.811" height="29.811" rx="6.6099" ry="6.6099" stroke-width="2.2"/>
   <rect id="rect1666" x="69.84" y="40.71" width="29.811" height="29.811" rx="6.6099" ry="6.6099" stroke-width="2.6"/>
   <rect id="rect1668" x="69.84" y="40.71" width="29.811" height="29.811" rx="6.6099" ry="6.6099" stroke-width="3"/>
   <rect id="rect1670" x="69.84" y="40.71" width="29.811" height="29.811" rx="6.6099" ry="6.6099" stroke-width="3.4"/>
   <rect id="rect1672" x="69.84" y="40.71" width="29.811" height="29.811" rx="6.6099" ry="6.6099" stroke-width="3.8"/>
   <rect id="rect1674" x="69.84" y="40.71" width="29.811" height="29.811" rx="6.6099" ry="6.6099" stroke-width="4.2"/>
   <rect id="rect1676" x="69.84" y="40.71" width="29.811" height="29.811" rx="6.6099" ry="6.6099" stroke-width="4.6"/>
   <rect id="rect1678" x="69.84" y="40.71" width="29.811" height="29.811" rx="6.6099" ry="6.6099" stroke-width="5"/>
  </g>
  <rect id="rect849" x="2.4074" y="2.5392" width="29.087" height="29.087" rx="6.4495" ry="6.4495" fill="url(#radialGradient963)" stroke-linecap="round" stroke-linejoin="round" stroke-width="2.6877"/>
  <g id="g1350" fill="#450000" fill-opacity=".176" opacity=".32185" stroke-width=".71274">
   <path id="path1230" d="m23.745 9.0636c-0.06946-8.731e-4 -0.1388-4.03e-4 -0.20826 0.00155-0.83342 0.023436-1.6672 0.24286-2.467 0.46095-2.4417 0.752-4.744 2.2877-6.3087 4.3532-0.06977 0.07017-0.11953 0.22075-0.24908 0.19069-0.53817-0.01-1.0767-0.02119-1.6149-0.02119-0.94679 0.01993-1.8527 0.43003-2.3012 1.2723-0.52821 1.0027-1.0367 2.0054-1.5549 3.0081-0.23919 0.46123 0.029447 1.2971 0.5178 1.4475 0.32888 0.09024 0.66795 0.01912 0.99684 0.01912 0.69763 2e-6 1.2621-0.04929 1.9498-0.01912 0.10964 0.91243 0.71033 1.5802 1.4578 2.1317 0.63783 0.48128 1.4651 0.69196 2.2624 0.64182 0.16942 0.97258 0.31892 1.966 0.48834 2.9487 0.11961 0.57152 0.88758 0.87132 1.356 0.52038 0.89696-0.71189 1.784-1.4444 2.681-2.1663 0.69763-0.58155 1.0662-1.514 0.95653-2.4164-0.09967-0.61163-0.22886-1.2221-0.33848-1.8237 1.8537-1.9452 2.8791-4.5623 3.1781-7.2094 0.09967-1.0929 0.18102-2.2369-0.17777-3.2897-0.20742-0.031962-0.41587-0.047508-0.62425-0.050126zm-3.7176 3.5641c0.46705 0.0076 0.92893 0.20392 1.2501 0.54674 0.46842 0.46879 0.62843 1.2094 0.40359 1.8376-0.2342 0.65631-0.87151 1.1439-1.5648 1.172-0.94619 0.09375-1.856-0.7041-1.8934-1.6511-0.07494-0.84382 0.54398-1.677 1.3684-1.8552 0.11241-0.02812 0.22763-0.04473 0.34262-0.04909 0.03114-0.0012 0.0624-0.0015 0.09353-1e-3zm-8.6708 8.553c-0.11452 0.0049-0.22601 0.04999-0.30076 0.14159-0.42855 0.50808-0.86683 1.0164-1.3053 1.5245-0.20929 0.25404-0.01004 0.6935 0.31884 0.6935 0.25912 0 0.52791-0.03873 0.78703-0.05839-0.13953 0.63509-0.30852 1.2604-0.44804 1.8955-0.06977 0.30289 0.27876 0.58594 0.57774 0.4687 0.60794-0.25404 1.2059-0.51802 1.8138-0.77205 0.0299 0.26381 0.03971 0.51802 0.07958 0.77205 0.0598 0.32242 0.53847 0.43955 0.74776 0.18552 0.43851-0.50808 0.88699-1.0257 1.3255-1.5436 0.18936-0.24427 0.02008-0.63529-0.28887-0.67438-1.2657-0.28335-2.352-1.1819-2.8603-2.3544-0.05606-0.1832-0.25614-0.28664-0.447-0.27854z"/>
   <path id="path1340" d="m23.833 9.2836c-0.06946-8.731e-4 -0.1388-4.03e-4 -0.20826 0.00155-0.83342 0.023436-1.6672 0.24286-2.467 0.46095-2.4417 0.752-4.744 2.2877-6.3087 4.3532-0.06977 0.07017-0.11953 0.22075-0.24908 0.19069-0.53817-0.01-1.0767-0.02119-1.6149-0.02119-0.94679 0.01993-1.8527 0.43003-2.3012 1.2723-0.52821 1.0027-1.0367 2.0054-1.5549 3.0081-0.23919 0.46123 0.029447 1.2971 0.5178 1.4475 0.32888 0.09024 0.66795 0.01912 0.99684 0.01912 0.69763 2e-6 1.2621-0.04929 1.9498-0.01912 0.10964 0.91243 0.71033 1.5802 1.4578 2.1317 0.63783 0.48128 1.4651 0.69196 2.2624 0.64182 0.16942 0.97258 0.31892 1.966 0.48834 2.9487 0.11961 0.57152 0.88758 0.87132 1.356 0.52038 0.89696-0.71189 1.784-1.4444 2.681-2.1663 0.69763-0.58155 1.0662-1.514 0.95653-2.4164-0.09967-0.61163-0.22886-1.2221-0.33848-1.8237 1.8537-1.9452 2.8791-4.5623 3.1781-7.2094 0.09967-1.0929 0.18102-2.2369-0.17777-3.2897-0.20742-0.031962-0.41587-0.047508-0.62425-0.050126zm-3.7176 3.5641c0.46705 0.0076 0.92893 0.20392 1.2501 0.54674 0.46842 0.46879 0.62843 1.2094 0.40359 1.8376-0.2342 0.65631-0.87151 1.1439-1.5648 1.172-0.94619 0.09375-1.856-0.7041-1.8934-1.6511-0.07494-0.84382 0.54398-1.677 1.3684-1.8552 0.11241-0.02812 0.22763-0.04473 0.34262-0.04909 0.03114-0.0012 0.0624-0.0015 0.09353-1e-3zm-8.6708 8.553c-0.11452 0.0049-0.22601 0.04999-0.30076 0.14159-0.42855 0.50808-0.86683 1.0164-1.3053 1.5245-0.20929 0.25404-0.01004 0.6935 0.31884 0.6935 0.25912 0 0.52791-0.03873 0.78703-0.05839-0.13953 0.63509-0.30852 1.2604-0.44804 1.8955-0.06977 0.30289 0.27876 0.58594 0.57774 0.4687 0.60794-0.25404 1.2059-0.51802 1.8138-0.77205 0.0299 0.26381 0.03971 0.51802 0.07958 0.77205 0.0598 0.32242 0.53847 0.43955 0.74776 0.18552 0.43851-0.50808 0.88699-1.0257 1.3255-1.5436 0.18936-0.24427 0.02008-0.63529-0.28887-0.67438-1.2657-0.28335-2.352-1.1819-2.8603-2.3544-0.05606-0.1832-0.25614-0.28664-0.447-0.27854z"/>
   <path id="path1342" d="m23.922 9.6156c-0.06946-8.731e-4 -0.1388-4.03e-4 -0.20826 0.00155-0.83342 0.023436-1.6672 0.24286-2.467 0.46095-2.4417 0.752-4.744 2.2877-6.3087 4.3532-0.06977 0.07017-0.11953 0.22075-0.24908 0.19069-0.53817-0.01-1.0767-0.02119-1.6149-0.02119-0.94679 0.01993-1.8527 0.43003-2.3012 1.2723-0.52821 1.0027-1.0367 2.0054-1.5549 3.0081-0.23919 0.46123 0.029447 1.2971 0.5178 1.4475 0.32889 0.09024 0.66795 0.01912 0.99684 0.01912 0.69763 2e-6 1.2621-0.04929 1.9498-0.01912 0.10964 0.91243 0.71033 1.5802 1.4578 2.1317 0.63783 0.48128 1.4651 0.69196 2.2624 0.64182 0.16942 0.97258 0.31892 1.966 0.48834 2.9487 0.11961 0.57152 0.88758 0.87132 1.356 0.52038 0.89696-0.71189 1.784-1.4444 2.681-2.1663 0.69763-0.58155 1.0662-1.514 0.95653-2.4164-0.09967-0.61163-0.22886-1.2221-0.33848-1.8237 1.8537-1.9452 2.8791-4.5623 3.1781-7.2094 0.09967-1.0929 0.18102-2.2369-0.17777-3.2897-0.20742-0.031962-0.41587-0.047508-0.62425-0.050126zm-3.7176 3.5641c0.46705 0.0076 0.92893 0.20392 1.2501 0.54674 0.46842 0.46879 0.62843 1.2094 0.40359 1.8376-0.2342 0.65631-0.87151 1.1439-1.5648 1.172-0.94619 0.09375-1.856-0.7041-1.8934-1.6511-0.07494-0.84382 0.54398-1.677 1.3684-1.8552 0.11241-0.02812 0.22763-0.04473 0.34262-0.04909 0.03114-0.0012 0.0624-0.0015 0.09353-1e-3zm-8.6708 8.553c-0.11452 0.0049-0.22601 0.04999-0.30076 0.14159-0.42855 0.50808-0.86683 1.0164-1.3053 1.5245-0.20929 0.25404-0.01004 0.6935 0.31884 0.6935 0.25912 0 0.52791-0.03873 0.78703-0.05839-0.13953 0.63509-0.30852 1.2604-0.44804 1.8955-0.06977 0.30289 0.27876 0.58594 0.57774 0.4687 0.60794-0.25404 1.2059-0.51802 1.8138-0.77205 0.0299 0.26381 0.03971 0.51802 0.07958 0.77205 0.0598 0.32242 0.53847 0.43955 0.74776 0.18552 0.43851-0.50808 0.88699-1.0257 1.3255-1.5436 0.18936-0.24427 0.02008-0.63529-0.28887-0.67438-1.2657-0.28335-2.352-1.1819-2.8603-2.3544-0.05606-0.1832-0.25614-0.28664-0.447-0.27854z"/>
   <path id="path1344" d="m23.994 10.037c-0.06946-8.73e-4 -0.1388-4.03e-4 -0.20826 0.0015-0.83342 0.02344-1.6672 0.24286-2.467 0.46095-2.4417 0.752-4.744 2.2877-6.3087 4.3532-0.06977 0.07017-0.11953 0.22075-0.24908 0.19069-0.53817-0.01-1.0767-0.02119-1.6149-0.02119-0.94679 0.01993-1.8527 0.43003-2.3012 1.2723-0.52821 1.0027-1.0367 2.0054-1.5549 3.0081-0.23919 0.46123 0.029447 1.2971 0.5178 1.4475 0.32889 0.09024 0.66795 0.01912 0.99684 0.01912 0.69763 2e-6 1.2621-0.04929 1.9498-0.01912 0.10964 0.91243 0.71033 1.5802 1.4578 2.1317 0.63783 0.48128 1.4651 0.69196 2.2624 0.64182 0.16942 0.97258 0.31892 1.966 0.48834 2.9487 0.11961 0.57152 0.88758 0.87132 1.356 0.52038 0.89696-0.71189 1.784-1.4444 2.681-2.1663 0.69763-0.58155 1.0662-1.514 0.95653-2.4164-0.09967-0.61163-0.22886-1.2221-0.33848-1.8237 1.8537-1.9452 2.8791-4.5623 3.1781-7.2094 0.09967-1.0929 0.18102-2.2369-0.17777-3.2897-0.20742-0.03196-0.41587-0.04751-0.62425-0.05013zm-3.7176 3.5641c0.46705 0.0076 0.92893 0.20392 1.2501 0.54674 0.46842 0.46879 0.62843 1.2094 0.40359 1.8376-0.2342 0.65631-0.87151 1.1439-1.5648 1.172-0.94619 0.09375-1.856-0.7041-1.8934-1.6511-0.07494-0.84382 0.54398-1.677 1.3684-1.8552 0.11241-0.02812 0.22763-0.04473 0.34262-0.04909 0.03114-0.0012 0.0624-0.0015 0.09353-1e-3zm-8.6708 8.553c-0.11452 0.0049-0.22601 0.04999-0.30076 0.14159-0.42855 0.50808-0.86683 1.0164-1.3053 1.5245-0.20929 0.25404-0.01004 0.6935 0.31884 0.6935 0.25912 0 0.52791-0.03873 0.78703-0.05839-0.13953 0.63509-0.30852 1.2604-0.44804 1.8955-0.06977 0.30289 0.27876 0.58594 0.57774 0.4687 0.60794-0.25404 1.2059-0.51802 1.8138-0.77205 0.0299 0.26381 0.03971 0.51802 0.07958 0.77205 0.0598 0.32242 0.53847 0.43955 0.74776 0.18552 0.43851-0.50808 0.88699-1.0257 1.3255-1.5436 0.18936-0.24427 0.02008-0.63529-0.28887-0.67438-1.2657-0.28335-2.352-1.1819-2.8603-2.3544-0.05606-0.1832-0.25614-0.28664-0.447-0.27854z"/>
  </g>
  <path id="path8" transform="scale(.26458)" d="m89.602 33.336c-0.26252-0.0033-0.52461-0.001523-0.78711 0.005859-3.1499 0.088577-6.3014 0.91791-9.3242 1.7422-9.2285 2.8422-17.93 8.6465-23.844 16.453-0.2637 0.26521-0.45178 0.83433-0.94141 0.7207-2.034-0.037795-4.0695-0.080078-6.1035-0.080078-3.5784 0.075326-7.0022 1.6253-8.6973 4.8086-1.9964 3.7896-3.9182 7.5795-5.877 11.369-0.90401 1.7432 0.1113 4.9023 1.957 5.4707 1.243 0.34106 2.5246 0.072265 3.7676 0.072266 2.6367 7e-6 4.7701-0.18629 7.3691-0.072266 0.41438 3.4485 2.6847 5.9724 5.5098 8.0566 2.4107 1.819 5.5374 2.6153 8.5508 2.4258 0.64031 3.6759 1.2054 7.4307 1.8457 11.145 0.45205 2.1601 3.3546 3.2932 5.125 1.9668 3.3901-2.6906 6.7427-5.459 10.133-8.1875 2.6367-2.198 4.0296-5.7222 3.6152-9.1328-0.37671-2.3117-0.86497-4.6188-1.2793-6.8926 7.0062-7.3518 10.882-17.243 12.012-27.248 0.37671-4.1307 0.68419-8.4545-0.67187-12.434-0.78396-0.1208-1.5718-0.17956-2.3594-0.18945zm-14.051 13.471c1.7652 0.028911 3.5109 0.77074 4.7246 2.0664 1.7704 1.7718 2.3752 4.5711 1.5254 6.9453-0.88517 2.4805-3.2939 4.3234-5.9141 4.4297-3.5762 0.35433-7.0146-2.6612-7.1562-6.2402-0.28324-3.1893 2.056-6.3384 5.1719-7.0117 0.42487-0.10628 0.86034-0.16907 1.2949-0.18555 0.11771-0.004455 0.23583-0.005834 0.35352-0.003906zm-32.771 32.326c-0.43281 0.018387-0.85422 0.18894-1.1367 0.53516-1.6197 1.9203-3.2762 3.8414-4.9336 5.7617-0.79101 0.96015-0.037948 2.6211 1.2051 2.6211 0.97936 0 1.9953-0.1464 2.9746-0.2207-0.52735 2.4004-1.1661 4.7637-1.6934 7.1641-0.26368 1.1448 1.0536 2.2146 2.1836 1.7715 2.2977-0.96015 4.5578-1.9579 6.8555-2.918 0.11301 0.99708 0.15009 1.9579 0.30078 2.918 0.226 1.2186 2.0352 1.6613 2.8262 0.70117 1.6574-1.9203 3.3524-3.8768 5.0098-5.834 0.71568-0.92322 0.075888-2.4011-1.0918-2.5488-4.7838-1.0709-8.8895-4.467-10.811-8.8984-0.21188-0.6924-0.9681-1.0834-1.6895-1.0527z" fill="url(#linearGradient1395)" stroke-width="2.6938"/>
 </g>
</svg>
