<?xml version="1.0" encoding="UTF-8"?>
<svg id="svg2117" width="128" height="128" version="1.1" viewBox="0 0 33.867 33.867" xmlns="http://www.w3.org/2000/svg" xmlns:cc="http://creativecommons.org/ns#" xmlns:dc="http://purl.org/dc/elements/1.1/" xmlns:rdf="http://www.w3.org/1999/02/22-rdf-syntax-ns#" xmlns:xlink="http://www.w3.org/1999/xlink">
 <defs id="defs2111">
  <radialGradient id="radialGradient1124" cx="16.744" cy="4.1208" r="14.544" gradientTransform="matrix(3.7095 0 0 1.8362 -45.368 -3.4458)" gradientUnits="userSpaceOnUse">
   <stop id="stop1626" stop-color="#fcfdfd" offset="0"/>
   <stop id="stop1628" stop-color="#e2e5e8" offset="1"/>
  </radialGradient>
  <linearGradient id="linearGradient945" x1="9.9671" x2="17.168" y1="8.7645" y2="30.462" gradientUnits="userSpaceOnUse">
   <stop id="stop939" stop-color="#009bfd" offset="0"/>
   <stop id="stop941" stop-color="#0035d5" offset="1"/>
  </linearGradient>
 </defs>
 <metadata id="metadata2114">
  <rdf:RDF>
   <cc:Work rdf:about="">
    <dc:format>image/svg+xml</dc:format>
    <dc:type rdf:resource="http://purl.org/dc/dcmitype/StillImage"/>
    <dc:title/>
   </cc:Work>
  </rdf:RDF>
 </metadata>
 <g id="layer1">
  <g id="g1702" transform="matrix(.97573 0 0 .97573 -65.861 -37.234)" fill="none" opacity=".13962" stroke="#000" stroke-linecap="round" stroke-linejoin="round" stroke-opacity=".02">
   <rect id="rect1634" x="69.84" y="40.71" width="29.811" height="29.811" rx="6.6099" ry="6.6099" stroke-width=".1"/>
   <rect id="rect1638" x="69.84" y="40.71" width="29.811" height="29.811" rx="6.6099" ry="6.6099" stroke-width=".2"/>
   <rect id="rect1640" x="69.84" y="40.71" width="29.811" height="29.811" rx="6.6099" ry="6.6099" stroke-width=".3"/>
   <rect id="rect1642" x="69.84" y="40.71" width="29.811" height="29.811" rx="6.6099" ry="6.6099" stroke-width=".4"/>
   <rect id="rect1644" x="69.84" y="40.71" width="29.811" height="29.811" rx="6.6099" ry="6.6099" stroke-width=".5"/>
   <rect id="rect1646" x="69.84" y="40.71" width="29.811" height="29.811" rx="6.6099" ry="6.6099" stroke-width=".6"/>
   <rect id="rect1648" x="69.84" y="40.71" width="29.811" height="29.811" rx="6.6099" ry="6.6099" stroke-width=".7"/>
   <rect id="rect1650" x="69.84" y="40.71" width="29.811" height="29.811" rx="6.6099" ry="6.6099" stroke-width=".8"/>
   <rect id="rect1652" x="69.84" y="40.71" width="29.811" height="29.811" rx="6.6099" ry="6.6099"/>
   <rect id="rect1654" x="69.84" y="40.71" width="29.811" height="29.811" rx="6.6099" ry="6.6099" stroke-width="1.2"/>
   <rect id="rect1656" x="69.84" y="40.71" width="29.811" height="29.811" rx="6.6099" ry="6.6099" stroke-width="1.4"/>
   <rect id="rect1658" x="69.84" y="40.71" width="29.811" height="29.811" rx="6.6099" ry="6.6099" stroke-width="1.6"/>
   <rect id="rect1660" x="69.84" y="40.71" width="29.811" height="29.811" rx="6.6099" ry="6.6099" stroke-width="1.8"/>
   <rect id="rect1662" x="69.84" y="40.71" width="29.811" height="29.811" rx="6.6099" ry="6.6099" stroke-width="2"/>
   <rect id="rect1664" x="69.84" y="40.71" width="29.811" height="29.811" rx="6.6099" ry="6.6099" stroke-width="2.2"/>
   <rect id="rect1666" x="69.84" y="40.71" width="29.811" height="29.811" rx="6.6099" ry="6.6099" stroke-width="2.6"/>
   <rect id="rect1668" x="69.84" y="40.71" width="29.811" height="29.811" rx="6.6099" ry="6.6099" stroke-width="3"/>
   <rect id="rect1670" x="69.84" y="40.71" width="29.811" height="29.811" rx="6.6099" ry="6.6099" stroke-width="3.4"/>
   <rect id="rect1672" x="69.84" y="40.71" width="29.811" height="29.811" rx="6.6099" ry="6.6099" stroke-width="3.8"/>
   <rect id="rect1674" x="69.84" y="40.71" width="29.811" height="29.811" rx="6.6099" ry="6.6099" stroke-width="4.2"/>
   <rect id="rect1676" x="69.84" y="40.71" width="29.811" height="29.811" rx="6.6099" ry="6.6099" stroke-width="4.6"/>
   <rect id="rect1678" x="69.84" y="40.71" width="29.811" height="29.811" rx="6.6099" ry="6.6099" stroke-width="5"/>
  </g>
  <rect id="rect910" x="2.2835" y="2.4875" width="29.087" height="29.087" rx="6.4495" ry="6.4495" fill="url(#radialGradient1124)" stroke-linecap="round" stroke-linejoin="round" stroke-width="2.6877"/>
  <g id="g937" transform="translate(.64258 -.19031)">
   <path id="path837" d="m24.462 7.8877-9.1442 14.337" fill="none" stroke="#e6c001" stroke-linecap="round" stroke-width="2.9085"/>
   <path id="path839" d="m26.677 22.219-11.359 0.0062" fill="none" stroke="#e6c001" stroke-linecap="round" stroke-width="2.9085"/>
   <path id="path841" d="m24.462 7.8877-0.04564 18.668" fill="none" stroke="#e6c001" stroke-linecap="round" stroke-width="2.9085"/>
   <path id="path843" d="m7.686 6.7377c-0.95339 0-1.7223 0.75993-1.7376 1.7095h-6.598e-4v3.2495h4.4096c0.89133 0 1.6089 0.71758 1.6089 1.6089 0 0.89133-0.71758 1.6089-1.6089 1.6089h-4.4096v1.6178h9.4108l4.3103-7.035c0.20806-0.28656 0.33207-0.63845 0.33207-1.0212 0-0.94992-0.75454-1.7167-1.6993-1.7375v-9.76e-4h-10.608c-7.489e-4 -7e-7 -0.0015 0-0.00225 0zm-1.7383 11.324v1.2871h7.6855l0.78847-1.2871zm0 2.8158v1.2885h6.7398v-1.2738l0.0091-0.01477zm0 2.8173v4.2142h4.8897c0.04611 0.0046 0.09289 7e-3 0.14023 7e-3h9.0026c0.77494 0 1.3989-0.62395 1.3989-1.3989 0-0.77494-0.62395-1.3987-1.3989-1.3987h-7.2928v-1.4236z" fill="url(#linearGradient945)"/>
  </g>
 </g>
</svg>
