<svg xmlns="http://www.w3.org/2000/svg" xmlns:xlink="http://www.w3.org/1999/xlink" viewBox="0 0 33.867 33.867" height="128" width="128"><defs><linearGradient id="a"><stop style="stop-color:#fdfefe;stop-opacity:1" offset="0"/><stop style="stop-color:#e5f0f6;stop-opacity:1" offset="1"/></linearGradient><linearGradient xlink:href="#a" id="e" x1="14.481" y1="9.111" x2="20.303" y2="29.432" gradientUnits="userSpaceOnUse"/><linearGradient id="b"><stop offset="0" style="stop-color:#df3b3b;stop-opacity:1"/><stop offset="1" style="stop-color:#fb5151;stop-opacity:1"/></linearGradient><linearGradient id="c"><stop offset="0" style="stop-color:#1ebb7e;stop-opacity:1"/><stop offset="1" style="stop-color:#35cc94;stop-opacity:1"/></linearGradient><linearGradient id="d"><stop offset="0" style="stop-color:#4582cb;stop-opacity:1"/><stop offset="1" style="stop-color:#5e9cd9;stop-opacity:1"/></linearGradient><linearGradient gradientTransform="translate(36.845 21.574) scale(.15686)" gradientUnits="userSpaceOnUse" y2="-56.818" x2="-169.408" y1="2.924" x1="-185.416" id="f" xlink:href="#b"/><linearGradient gradientTransform="translate(36.87 21.574) scale(.15686)" gradientUnits="userSpaceOnUse" y2="-57.347" x2="-134.664" y1="2.924" x1="-150.814" id="g" xlink:href="#c"/><linearGradient gradientTransform="translate(36.845 21.574) scale(.15686)" gradientUnits="userSpaceOnUse" y2="-59.931" x2="-111.45" y1="18.48" x1="-111.45" id="h" xlink:href="#d"/></defs><g style="opacity:.2967651"><path d="M76.45 40.71h16.59a6.595 6.595 0 0 1 6.61 6.61v16.59a6.595 6.595 0 0 1-6.61 6.61H76.45a6.595 6.595 0 0 1-6.61-6.61V47.32a6.595 6.595 0 0 1 6.61-6.61z" style="fill:none;fill-opacity:1;stroke:#000;stroke-width:.1;stroke-linecap:round;stroke-linejoin:round;stroke-miterlimit:4;stroke-dasharray:none;stroke-opacity:.02" transform="translate(-65.748 -37.203) scale(.97573)"/><path d="M76.45 40.71h16.59a6.595 6.595 0 0 1 6.61 6.61v16.59a6.595 6.595 0 0 1-6.61 6.61H76.45a6.595 6.595 0 0 1-6.61-6.61V47.32a6.595 6.595 0 0 1 6.61-6.61z" style="fill:none;fill-opacity:1;stroke:#000;stroke-width:.2;stroke-linecap:round;stroke-linejoin:round;stroke-miterlimit:4;stroke-dasharray:none;stroke-opacity:.02" transform="translate(-65.748 -37.203) scale(.97573)"/><path d="M76.45 40.71h16.59a6.595 6.595 0 0 1 6.61 6.61v16.59a6.595 6.595 0 0 1-6.61 6.61H76.45a6.595 6.595 0 0 1-6.61-6.61V47.32a6.595 6.595 0 0 1 6.61-6.61z" style="fill:none;fill-opacity:1;stroke:#000;stroke-width:.3;stroke-linecap:round;stroke-linejoin:round;stroke-miterlimit:4;stroke-dasharray:none;stroke-opacity:.02" transform="translate(-65.748 -37.203) scale(.97573)"/><path d="M76.45 40.71h16.59a6.595 6.595 0 0 1 6.61 6.61v16.59a6.595 6.595 0 0 1-6.61 6.61H76.45a6.595 6.595 0 0 1-6.61-6.61V47.32a6.595 6.595 0 0 1 6.61-6.61z" style="fill:none;fill-opacity:1;stroke:#000;stroke-width:.4;stroke-linecap:round;stroke-linejoin:round;stroke-miterlimit:4;stroke-dasharray:none;stroke-opacity:.02" transform="translate(-65.748 -37.203) scale(.97573)"/><path d="M76.45 40.71h16.59a6.595 6.595 0 0 1 6.61 6.61v16.59a6.595 6.595 0 0 1-6.61 6.61H76.45a6.595 6.595 0 0 1-6.61-6.61V47.32a6.595 6.595 0 0 1 6.61-6.61z" style="fill:none;fill-opacity:1;stroke:#000;stroke-width:.5;stroke-linecap:round;stroke-linejoin:round;stroke-miterlimit:4;stroke-dasharray:none;stroke-opacity:.02" transform="translate(-65.748 -37.203) scale(.97573)"/><path d="M76.45 40.71h16.59a6.595 6.595 0 0 1 6.61 6.61v16.59a6.595 6.595 0 0 1-6.61 6.61H76.45a6.595 6.595 0 0 1-6.61-6.61V47.32a6.595 6.595 0 0 1 6.61-6.61z" style="fill:none;fill-opacity:1;stroke:#000;stroke-width:.6;stroke-linecap:round;stroke-linejoin:round;stroke-miterlimit:4;stroke-dasharray:none;stroke-opacity:.02" transform="translate(-65.748 -37.203) scale(.97573)"/><path d="M76.45 40.71h16.59a6.595 6.595 0 0 1 6.61 6.61v16.59a6.595 6.595 0 0 1-6.61 6.61H76.45a6.595 6.595 0 0 1-6.61-6.61V47.32a6.595 6.595 0 0 1 6.61-6.61z" style="fill:none;fill-opacity:1;stroke:#000;stroke-width:.7;stroke-linecap:round;stroke-linejoin:round;stroke-miterlimit:4;stroke-dasharray:none;stroke-opacity:.02" transform="translate(-65.748 -37.203) scale(.97573)"/><path d="M76.45 40.71h16.59a6.595 6.595 0 0 1 6.61 6.61v16.59a6.595 6.595 0 0 1-6.61 6.61H76.45a6.595 6.595 0 0 1-6.61-6.61V47.32a6.595 6.595 0 0 1 6.61-6.61z" style="fill:none;fill-opacity:1;stroke:#000;stroke-width:.8;stroke-linecap:round;stroke-linejoin:round;stroke-miterlimit:4;stroke-dasharray:none;stroke-opacity:.02" transform="translate(-65.748 -37.203) scale(.97573)"/><path d="M76.45 40.71h16.59a6.595 6.595 0 0 1 6.61 6.61v16.59a6.595 6.595 0 0 1-6.61 6.61H76.45a6.595 6.595 0 0 1-6.61-6.61V47.32a6.595 6.595 0 0 1 6.61-6.61z" style="fill:none;fill-opacity:1;stroke:#000;stroke-width:1;stroke-linecap:round;stroke-linejoin:round;stroke-miterlimit:4;stroke-dasharray:none;stroke-opacity:.02" transform="translate(-65.748 -37.203) scale(.97573)"/><path d="M76.45 40.71h16.59a6.595 6.595 0 0 1 6.61 6.61v16.59a6.595 6.595 0 0 1-6.61 6.61H76.45a6.595 6.595 0 0 1-6.61-6.61V47.32a6.595 6.595 0 0 1 6.61-6.61z" style="fill:none;fill-opacity:1;stroke:#000;stroke-width:1.2;stroke-linecap:round;stroke-linejoin:round;stroke-miterlimit:4;stroke-dasharray:none;stroke-opacity:.02" transform="translate(-65.748 -37.203) scale(.97573)"/><path d="M76.45 40.71h16.59a6.595 6.595 0 0 1 6.61 6.61v16.59a6.595 6.595 0 0 1-6.61 6.61H76.45a6.595 6.595 0 0 1-6.61-6.61V47.32a6.595 6.595 0 0 1 6.61-6.61z" style="fill:none;fill-opacity:1;stroke:#000;stroke-width:1.4;stroke-linecap:round;stroke-linejoin:round;stroke-miterlimit:4;stroke-dasharray:none;stroke-opacity:.02" transform="translate(-65.748 -37.203) scale(.97573)"/><path d="M76.45 40.71h16.59a6.595 6.595 0 0 1 6.61 6.61v16.59a6.595 6.595 0 0 1-6.61 6.61H76.45a6.595 6.595 0 0 1-6.61-6.61V47.32a6.595 6.595 0 0 1 6.61-6.61z" style="fill:none;fill-opacity:1;stroke:#000;stroke-width:1.6;stroke-linecap:round;stroke-linejoin:round;stroke-miterlimit:4;stroke-dasharray:none;stroke-opacity:.02" transform="translate(-65.748 -37.203) scale(.97573)"/><path d="M76.45 40.71h16.59a6.595 6.595 0 0 1 6.61 6.61v16.59a6.595 6.595 0 0 1-6.61 6.61H76.45a6.595 6.595 0 0 1-6.61-6.61V47.32a6.595 6.595 0 0 1 6.61-6.61z" style="fill:none;fill-opacity:1;stroke:#000;stroke-width:1.8;stroke-linecap:round;stroke-linejoin:round;stroke-miterlimit:4;stroke-dasharray:none;stroke-opacity:.02" transform="translate(-65.748 -37.203) scale(.97573)"/><path d="M76.45 40.71h16.59a6.595 6.595 0 0 1 6.61 6.61v16.59a6.595 6.595 0 0 1-6.61 6.61H76.45a6.595 6.595 0 0 1-6.61-6.61V47.32a6.595 6.595 0 0 1 6.61-6.61z" style="fill:none;fill-opacity:1;stroke:#000;stroke-width:2;stroke-linecap:round;stroke-linejoin:round;stroke-miterlimit:4;stroke-dasharray:none;stroke-opacity:.02" transform="translate(-65.748 -37.203) scale(.97573)"/><path d="M76.45 40.71h16.59a6.595 6.595 0 0 1 6.61 6.61v16.59a6.595 6.595 0 0 1-6.61 6.61H76.45a6.595 6.595 0 0 1-6.61-6.61V47.32a6.595 6.595 0 0 1 6.61-6.61z" style="fill:none;fill-opacity:1;stroke:#000;stroke-width:2.2;stroke-linecap:round;stroke-linejoin:round;stroke-miterlimit:4;stroke-dasharray:none;stroke-opacity:.02" transform="translate(-65.748 -37.203) scale(.97573)"/><path d="M76.45 40.71h16.59a6.595 6.595 0 0 1 6.61 6.61v16.59a6.595 6.595 0 0 1-6.61 6.61H76.45a6.595 6.595 0 0 1-6.61-6.61V47.32a6.595 6.595 0 0 1 6.61-6.61z" style="fill:none;fill-opacity:1;stroke:#000;stroke-width:2.6;stroke-linecap:round;stroke-linejoin:round;stroke-miterlimit:4;stroke-dasharray:none;stroke-opacity:.02" transform="translate(-65.748 -37.203) scale(.97573)"/><path d="M76.45 40.71h16.59a6.595 6.595 0 0 1 6.61 6.61v16.59a6.595 6.595 0 0 1-6.61 6.61H76.45a6.595 6.595 0 0 1-6.61-6.61V47.32a6.595 6.595 0 0 1 6.61-6.61z" style="fill:none;fill-opacity:1;stroke:#000;stroke-width:3;stroke-linecap:round;stroke-linejoin:round;stroke-miterlimit:4;stroke-dasharray:none;stroke-opacity:.02" transform="translate(-65.748 -37.203) scale(.97573)"/><path d="M76.45 40.71h16.59a6.595 6.595 0 0 1 6.61 6.61v16.59a6.595 6.595 0 0 1-6.61 6.61H76.45a6.595 6.595 0 0 1-6.61-6.61V47.32a6.595 6.595 0 0 1 6.61-6.61z" style="fill:none;fill-opacity:1;stroke:#000;stroke-width:3.4;stroke-linecap:round;stroke-linejoin:round;stroke-miterlimit:4;stroke-dasharray:none;stroke-opacity:.02" transform="translate(-65.748 -37.203) scale(.97573)"/><path d="M76.45 40.71h16.59a6.595 6.595 0 0 1 6.61 6.61v16.59a6.595 6.595 0 0 1-6.61 6.61H76.45a6.595 6.595 0 0 1-6.61-6.61V47.32a6.595 6.595 0 0 1 6.61-6.61z" style="fill:none;fill-opacity:1;stroke:#000;stroke-width:3.8;stroke-linecap:round;stroke-linejoin:round;stroke-miterlimit:4;stroke-dasharray:none;stroke-opacity:.02" transform="translate(-65.748 -37.203) scale(.97573)"/><path d="M76.45 40.71h16.59a6.595 6.595 0 0 1 6.61 6.61v16.59a6.595 6.595 0 0 1-6.61 6.61H76.45a6.595 6.595 0 0 1-6.61-6.61V47.32a6.595 6.595 0 0 1 6.61-6.61z" style="fill:none;fill-opacity:1;stroke:#000;stroke-width:4.2;stroke-linecap:round;stroke-linejoin:round;stroke-miterlimit:4;stroke-dasharray:none;stroke-opacity:.02" transform="translate(-65.748 -37.203) scale(.97573)"/><path d="M76.45 40.71h16.59a6.595 6.595 0 0 1 6.61 6.61v16.59a6.595 6.595 0 0 1-6.61 6.61H76.45a6.595 6.595 0 0 1-6.61-6.61V47.32a6.595 6.595 0 0 1 6.61-6.61z" style="fill:none;fill-opacity:1;stroke:#000;stroke-width:4.6;stroke-linecap:round;stroke-linejoin:round;stroke-miterlimit:4;stroke-dasharray:none;stroke-opacity:.02" transform="translate(-65.748 -37.203) scale(.97573)"/><path d="M76.45 40.71h16.59a6.595 6.595 0 0 1 6.61 6.61v16.59a6.595 6.595 0 0 1-6.61 6.61H76.45a6.595 6.595 0 0 1-6.61-6.61V47.32a6.595 6.595 0 0 1 6.61-6.61z" style="fill:none;fill-opacity:1;stroke:#000;stroke-width:5;stroke-linecap:round;stroke-linejoin:round;stroke-miterlimit:4;stroke-dasharray:none;stroke-opacity:.02" transform="translate(-65.748 -37.203) scale(.97573)"/></g><rect ry="6.449" rx="6.449" y="2.519" x="2.407" height="29.087" width="29.087" style="fill:url(#e);fill-opacity:1;stroke-width:2.68768;stroke-linecap:round;stroke-linejoin:round"/><path style="color:#000;fill:none;stroke-width:.6" d="m63.366-13.641-7.522-7.601"/><path style="color:#000;fill:none;stroke-width:.7" d="m41.242-29.284 8.856 8.833c1.75 1.578 2.916 1.698 4.709.1l11.969-11.167"/><ellipse style="opacity:1;fill:#fff;fill-opacity:.94090911;stroke:none;stroke-width:2.5;stroke-linecap:round;stroke-linejoin:round;stroke-miterlimit:4;stroke-dasharray:none;stroke-opacity:1" cx="19.49" cy="-.523" rx=".911" ry="1.718" transform="rotate(44.923)"/><ellipse style="opacity:1;fill:#fff;fill-opacity:.94090911;stroke:none;stroke-width:2.5;stroke-linecap:round;stroke-linejoin:round;stroke-miterlimit:4;stroke-dasharray:none;stroke-opacity:1" cx="12.53" cy="15.514" rx=".469" ry=".403"/><path d="M8.173 11.277h4.063c.143 0 .289.118.26.259L9.655 24.96c-.029.14-.115.26-.259.26H5.335c-.144 0-.29-.12-.26-.26l2.839-13.424c.03-.14.116-.26.26-.26z" style="opacity:1;fill:url(#f);fill-opacity:1;stroke:none;stroke-width:1.25488091;stroke-linecap:round;stroke-linejoin:round;stroke-miterlimit:4;stroke-dasharray:none;stroke-opacity:1" transform="translate(2.165 -1.186)"/><path style="opacity:1;fill:url(#g);fill-opacity:1;stroke:none;stroke-width:1.25488091;stroke-linecap:round;stroke-linejoin:round;stroke-miterlimit:4;stroke-dasharray:none;stroke-opacity:1" d="M14.174 11.277h4.062c.144 0 .29.118.26.259L15.657 24.96c-.03.14-.116.26-.26.26h-4.062c-.143 0-.289-.12-.259-.26l2.838-13.424c.03-.14.116-.26.26-.26z" transform="translate(2.165 -1.186)"/><path d="M20.174 11.277h4.062c.144 0 .29.118.26.259L21.658 24.96c-.03.14-.116.26-.26.26h-4.062c-.144 0-.29-.12-.26-.26l2.839-13.424c.03-.14.115-.26.26-.26z" style="opacity:1;fill:url(#h);fill-opacity:1;stroke:none;stroke-width:1.25488091;stroke-linecap:round;stroke-linejoin:round;stroke-miterlimit:4;stroke-dasharray:none;stroke-opacity:1" transform="translate(2.165 -1.186)"/></svg>