<?xml version="1.0" encoding="UTF-8"?>
<svg width="128" height="128" viewBox="0 0 33.867 33.867" xmlns="http://www.w3.org/2000/svg" xmlns:xlink="http://www.w3.org/1999/xlink">
 <defs>
  <linearGradient id="e" x1="14.481" x2="20.303" y1="9.111" y2="29.432" gradientUnits="userSpaceOnUse">
   <stop stop-color="#fdfefe" offset="0"/>
   <stop stop-color="#e5f0f6" offset="1"/>
  </linearGradient>
  <linearGradient id="f" x1="-185.42" x2="-169.41" y1="2.924" y2="-56.818" gradientTransform="translate(36.845 21.574) scale(.15686)" gradientUnits="userSpaceOnUse">
   <stop stop-color="#df3b3b" offset="0"/>
   <stop stop-color="#fb5151" offset="1"/>
  </linearGradient>
  <linearGradient id="g" x1="-150.81" x2="-134.66" y1="2.924" y2="-57.347" gradientTransform="translate(36.87 21.574) scale(.15686)" gradientUnits="userSpaceOnUse">
   <stop stop-color="#1ebb7e" offset="0"/>
   <stop stop-color="#35cc94" offset="1"/>
  </linearGradient>
  <linearGradient id="h" x1="-111.45" x2="-111.45" y1="18.48" y2="-59.931" gradientTransform="translate(36.845 21.574) scale(.15686)" gradientUnits="userSpaceOnUse">
   <stop stop-color="#4582cb" offset="0"/>
   <stop stop-color="#5e9cd9" offset="1"/>
  </linearGradient>
 </defs>
 <g fill="none" opacity=".29677" stroke="#000" stroke-linecap="round" stroke-linejoin="round" stroke-opacity=".02">
  <path transform="translate(-65.748 -37.203) scale(.97573)" d="M76.45 40.71h16.59a6.595 6.595 0 0 1 6.61 6.61v16.59a6.595 6.595 0 0 1-6.61 6.61H76.45a6.595 6.595 0 0 1-6.61-6.61V47.32a6.595 6.595 0 0 1 6.61-6.61z" stroke-width=".1"/>
  <path transform="translate(-65.748 -37.203) scale(.97573)" d="M76.45 40.71h16.59a6.595 6.595 0 0 1 6.61 6.61v16.59a6.595 6.595 0 0 1-6.61 6.61H76.45a6.595 6.595 0 0 1-6.61-6.61V47.32a6.595 6.595 0 0 1 6.61-6.61z" stroke-width=".2"/>
  <path transform="translate(-65.748 -37.203) scale(.97573)" d="M76.45 40.71h16.59a6.595 6.595 0 0 1 6.61 6.61v16.59a6.595 6.595 0 0 1-6.61 6.61H76.45a6.595 6.595 0 0 1-6.61-6.61V47.32a6.595 6.595 0 0 1 6.61-6.61z" stroke-width=".3"/>
  <path transform="translate(-65.748 -37.203) scale(.97573)" d="M76.45 40.71h16.59a6.595 6.595 0 0 1 6.61 6.61v16.59a6.595 6.595 0 0 1-6.61 6.61H76.45a6.595 6.595 0 0 1-6.61-6.61V47.32a6.595 6.595 0 0 1 6.61-6.61z" stroke-width=".4"/>
  <path transform="translate(-65.748 -37.203) scale(.97573)" d="M76.45 40.71h16.59a6.595 6.595 0 0 1 6.61 6.61v16.59a6.595 6.595 0 0 1-6.61 6.61H76.45a6.595 6.595 0 0 1-6.61-6.61V47.32a6.595 6.595 0 0 1 6.61-6.61z" stroke-width=".5"/>
  <path transform="translate(-65.748 -37.203) scale(.97573)" d="M76.45 40.71h16.59a6.595 6.595 0 0 1 6.61 6.61v16.59a6.595 6.595 0 0 1-6.61 6.61H76.45a6.595 6.595 0 0 1-6.61-6.61V47.32a6.595 6.595 0 0 1 6.61-6.61z" stroke-width=".6"/>
  <path transform="translate(-65.748 -37.203) scale(.97573)" d="M76.45 40.71h16.59a6.595 6.595 0 0 1 6.61 6.61v16.59a6.595 6.595 0 0 1-6.61 6.61H76.45a6.595 6.595 0 0 1-6.61-6.61V47.32a6.595 6.595 0 0 1 6.61-6.61z" stroke-width=".7"/>
  <path transform="translate(-65.748 -37.203) scale(.97573)" d="M76.45 40.71h16.59a6.595 6.595 0 0 1 6.61 6.61v16.59a6.595 6.595 0 0 1-6.61 6.61H76.45a6.595 6.595 0 0 1-6.61-6.61V47.32a6.595 6.595 0 0 1 6.61-6.61z" stroke-width=".8"/>
  <path transform="translate(-65.748 -37.203) scale(.97573)" d="M76.45 40.71h16.59a6.595 6.595 0 0 1 6.61 6.61v16.59a6.595 6.595 0 0 1-6.61 6.61H76.45a6.595 6.595 0 0 1-6.61-6.61V47.32a6.595 6.595 0 0 1 6.61-6.61z"/>
  <path transform="translate(-65.748 -37.203) scale(.97573)" d="M76.45 40.71h16.59a6.595 6.595 0 0 1 6.61 6.61v16.59a6.595 6.595 0 0 1-6.61 6.61H76.45a6.595 6.595 0 0 1-6.61-6.61V47.32a6.595 6.595 0 0 1 6.61-6.61z" stroke-width="1.2"/>
  <path transform="translate(-65.748 -37.203) scale(.97573)" d="M76.45 40.71h16.59a6.595 6.595 0 0 1 6.61 6.61v16.59a6.595 6.595 0 0 1-6.61 6.61H76.45a6.595 6.595 0 0 1-6.61-6.61V47.32a6.595 6.595 0 0 1 6.61-6.61z" stroke-width="1.4"/>
  <path transform="translate(-65.748 -37.203) scale(.97573)" d="M76.45 40.71h16.59a6.595 6.595 0 0 1 6.61 6.61v16.59a6.595 6.595 0 0 1-6.61 6.61H76.45a6.595 6.595 0 0 1-6.61-6.61V47.32a6.595 6.595 0 0 1 6.61-6.61z" stroke-width="1.6"/>
  <path transform="translate(-65.748 -37.203) scale(.97573)" d="M76.45 40.71h16.59a6.595 6.595 0 0 1 6.61 6.61v16.59a6.595 6.595 0 0 1-6.61 6.61H76.45a6.595 6.595 0 0 1-6.61-6.61V47.32a6.595 6.595 0 0 1 6.61-6.61z" stroke-width="1.8"/>
  <path transform="translate(-65.748 -37.203) scale(.97573)" d="M76.45 40.71h16.59a6.595 6.595 0 0 1 6.61 6.61v16.59a6.595 6.595 0 0 1-6.61 6.61H76.45a6.595 6.595 0 0 1-6.61-6.61V47.32a6.595 6.595 0 0 1 6.61-6.61z" stroke-width="2"/>
  <path transform="translate(-65.748 -37.203) scale(.97573)" d="M76.45 40.71h16.59a6.595 6.595 0 0 1 6.61 6.61v16.59a6.595 6.595 0 0 1-6.61 6.61H76.45a6.595 6.595 0 0 1-6.61-6.61V47.32a6.595 6.595 0 0 1 6.61-6.61z" stroke-width="2.2"/>
  <path transform="translate(-65.748 -37.203) scale(.97573)" d="M76.45 40.71h16.59a6.595 6.595 0 0 1 6.61 6.61v16.59a6.595 6.595 0 0 1-6.61 6.61H76.45a6.595 6.595 0 0 1-6.61-6.61V47.32a6.595 6.595 0 0 1 6.61-6.61z" stroke-width="2.6"/>
  <path transform="translate(-65.748 -37.203) scale(.97573)" d="M76.45 40.71h16.59a6.595 6.595 0 0 1 6.61 6.61v16.59a6.595 6.595 0 0 1-6.61 6.61H76.45a6.595 6.595 0 0 1-6.61-6.61V47.32a6.595 6.595 0 0 1 6.61-6.61z" stroke-width="3"/>
  <path transform="translate(-65.748 -37.203) scale(.97573)" d="M76.45 40.71h16.59a6.595 6.595 0 0 1 6.61 6.61v16.59a6.595 6.595 0 0 1-6.61 6.61H76.45a6.595 6.595 0 0 1-6.61-6.61V47.32a6.595 6.595 0 0 1 6.61-6.61z" stroke-width="3.4"/>
  <path transform="translate(-65.748 -37.203) scale(.97573)" d="M76.45 40.71h16.59a6.595 6.595 0 0 1 6.61 6.61v16.59a6.595 6.595 0 0 1-6.61 6.61H76.45a6.595 6.595 0 0 1-6.61-6.61V47.32a6.595 6.595 0 0 1 6.61-6.61z" stroke-width="3.8"/>
  <path transform="translate(-65.748 -37.203) scale(.97573)" d="M76.45 40.71h16.59a6.595 6.595 0 0 1 6.61 6.61v16.59a6.595 6.595 0 0 1-6.61 6.61H76.45a6.595 6.595 0 0 1-6.61-6.61V47.32a6.595 6.595 0 0 1 6.61-6.61z" stroke-width="4.2"/>
  <path transform="translate(-65.748 -37.203) scale(.97573)" d="M76.45 40.71h16.59a6.595 6.595 0 0 1 6.61 6.61v16.59a6.595 6.595 0 0 1-6.61 6.61H76.45a6.595 6.595 0 0 1-6.61-6.61V47.32a6.595 6.595 0 0 1 6.61-6.61z" stroke-width="4.6"/>
  <path transform="translate(-65.748 -37.203) scale(.97573)" d="M76.45 40.71h16.59a6.595 6.595 0 0 1 6.61 6.61v16.59a6.595 6.595 0 0 1-6.61 6.61H76.45a6.595 6.595 0 0 1-6.61-6.61V47.32a6.595 6.595 0 0 1 6.61-6.61z" stroke-width="5"/>
 </g>
 <rect x="2.407" y="2.519" width="29.087" height="29.087" rx="6.449" ry="6.449" fill="url(#e)" stroke-linecap="round" stroke-linejoin="round" stroke-width="2.6877"/>
 <path d="m63.366-13.641-7.522-7.601" fill="none" stroke-width=".6"/>
 <path d="m41.242-29.284 8.856 8.833c1.75 1.578 2.916 1.698 4.709.1l11.969-11.167" fill="none" stroke-width=".7"/>
 <ellipse transform="rotate(44.923)" cx="19.49" cy="-.523" rx=".911" ry="1.718" fill="#fff" fill-opacity=".94091"/>
 <ellipse cx="12.53" cy="15.514" rx=".469" ry=".403" fill="#fff" fill-opacity=".94091"/>
 <path transform="translate(2.165 -1.186)" d="M8.173 11.277h4.063c.143 0 .289.118.26.259L9.655 24.96c-.029.14-.115.26-.259.26H5.335c-.144 0-.29-.12-.26-.26l2.839-13.424c.03-.14.116-.26.26-.26z" fill="url(#f)"/>
 <path transform="translate(2.165 -1.186)" d="M14.174 11.277h4.062c.144 0 .29.118.26.259L15.657 24.96c-.03.14-.116.26-.26.26h-4.062c-.143 0-.289-.12-.259-.26l2.838-13.424c.03-.14.116-.26.26-.26z" fill="url(#g)"/>
 <path transform="translate(2.165 -1.186)" d="M20.174 11.277h4.062c.144 0 .29.118.26.259L21.658 24.96c-.03.14-.116.26-.26.26h-4.062c-.144 0-.29-.12-.26-.26l2.839-13.424c.03-.14.115-.26.26-.26z" fill="url(#h)"/>
</svg>
