<?xml version="1.0" encoding="UTF-8"?>
<svg id="svg1829" width="128" height="128" version="1.1" viewBox="0 0 33.867 33.867" xmlns="http://www.w3.org/2000/svg" xmlns:cc="http://creativecommons.org/ns#" xmlns:dc="http://purl.org/dc/elements/1.1/" xmlns:rdf="http://www.w3.org/1999/02/22-rdf-syntax-ns#" xmlns:xlink="http://www.w3.org/1999/xlink">
 <defs id="defs1823">
  <radialGradient id="radialGradient886" cx="17.31" cy="2.5296" r="14.544" gradientTransform="matrix(7.1618 0 0 1.7511 -106.66 -1.9)" gradientUnits="userSpaceOnUse">
   <stop id="stop880" stop-color="#00afd2" offset="0"/>
   <stop id="stop882" stop-color="#9c45ff" offset="1"/>
  </radialGradient>
  <linearGradient id="linearGradient2461" x1="7.7588" x2="7.7588" y1="7.445" y2="42.547" gradientUnits="userSpaceOnUse">
   <stop id="stop1110" stop-color="#e4e4e4" offset="0"/>
   <stop id="stop2527" stop-color="#dae0fb" offset=".24398"/>
   <stop id="stop1112" stop-color="#b372ff" offset="1"/>
  </linearGradient>
 </defs>
 <metadata id="metadata1826">
  <rdf:RDF>
   <cc:Work rdf:about="">
    <dc:format>image/svg+xml</dc:format>
    <dc:type rdf:resource="http://purl.org/dc/dcmitype/StillImage"/>
   </cc:Work>
  </rdf:RDF>
 </metadata>
 <g id="layer1">
  <g id="g1702" transform="matrix(.97573 0 0 .97573 -65.587 -37.192)" fill="none" opacity=".29676" stroke="#000" stroke-linecap="round" stroke-linejoin="round" stroke-opacity=".02">
   <rect id="rect1634" x="69.84" y="40.71" width="29.811" height="29.811" rx="6.6099" ry="6.6099" stroke-width=".1"/>
   <rect id="rect1638" x="69.84" y="40.71" width="29.811" height="29.811" rx="6.6099" ry="6.6099" stroke-width=".2"/>
   <rect id="rect1640" x="69.84" y="40.71" width="29.811" height="29.811" rx="6.6099" ry="6.6099" stroke-width=".3"/>
   <rect id="rect1642" x="69.84" y="40.71" width="29.811" height="29.811" rx="6.6099" ry="6.6099" stroke-width=".4"/>
   <rect id="rect1644" x="69.84" y="40.71" width="29.811" height="29.811" rx="6.6099" ry="6.6099" stroke-width=".5"/>
   <rect id="rect1646" x="69.84" y="40.71" width="29.811" height="29.811" rx="6.6099" ry="6.6099" stroke-width=".6"/>
   <rect id="rect1648" x="69.84" y="40.71" width="29.811" height="29.811" rx="6.6099" ry="6.6099" stroke-width=".7"/>
   <rect id="rect1650" x="69.84" y="40.71" width="29.811" height="29.811" rx="6.6099" ry="6.6099" stroke-width=".8"/>
   <rect id="rect1652" x="69.84" y="40.71" width="29.811" height="29.811" rx="6.6099" ry="6.6099"/>
   <rect id="rect1654" x="69.84" y="40.71" width="29.811" height="29.811" rx="6.6099" ry="6.6099" stroke-width="1.2"/>
   <rect id="rect1656" x="69.84" y="40.71" width="29.811" height="29.811" rx="6.6099" ry="6.6099" stroke-width="1.4"/>
   <rect id="rect1658" x="69.84" y="40.71" width="29.811" height="29.811" rx="6.6099" ry="6.6099" stroke-width="1.6"/>
   <rect id="rect1660" x="69.84" y="40.71" width="29.811" height="29.811" rx="6.6099" ry="6.6099" stroke-width="1.8"/>
   <rect id="rect1662" x="69.84" y="40.71" width="29.811" height="29.811" rx="6.6099" ry="6.6099" stroke-width="2"/>
   <rect id="rect1664" x="69.84" y="40.71" width="29.811" height="29.811" rx="6.6099" ry="6.6099" stroke-width="2.2"/>
   <rect id="rect1666" x="69.84" y="40.71" width="29.811" height="29.811" rx="6.6099" ry="6.6099" stroke-width="2.6"/>
   <rect id="rect1668" x="69.84" y="40.71" width="29.811" height="29.811" rx="6.6099" ry="6.6099" stroke-width="3"/>
   <rect id="rect1670" x="69.84" y="40.71" width="29.811" height="29.811" rx="6.6099" ry="6.6099" stroke-width="3.4"/>
   <rect id="rect1672" x="69.84" y="40.71" width="29.811" height="29.811" rx="6.6099" ry="6.6099" stroke-width="3.8"/>
   <rect id="rect1674" x="69.84" y="40.71" width="29.811" height="29.811" rx="6.6099" ry="6.6099" stroke-width="4.2"/>
   <rect id="rect1676" x="69.84" y="40.71" width="29.811" height="29.811" rx="6.6099" ry="6.6099" stroke-width="4.6"/>
   <rect id="rect1678" x="69.84" y="40.71" width="29.811" height="29.811" rx="6.6099" ry="6.6099" stroke-width="5"/>
  </g>
  <rect id="rect849-5" x="2.5579" y="2.5293" width="29.087" height="29.087" rx="6.4495" ry="6.4495" fill="url(#radialGradient886)" stroke-linecap="round" stroke-linejoin="round" stroke-width="2.6877"/>
  <g id="g5215" fill="#000348" fill-opacity=".020063" stroke-width=".36348">
   <path id="path4939" d="m16.847 7.2864c-1.1276 0-2.0353 0.90767-2.0353 2.0353v0.95412a7.633 7.633 0 0 0-2.4073 1.3907l-0.82705-0.47706c-0.97657-0.56382-2.2169-0.23116-2.7807 0.74541l-0.50901 0.88029c-0.56382 0.97657-0.23116 2.2169 0.74541 2.7807l0.8235 0.47564a7.633 7.633 0 0 0-0.13346 1.3921 7.633 7.633 0 0 0 0.13346 1.3921l-0.8235 0.47564c-0.97657 0.56382-1.3092 1.8042-0.74541 2.7807l0.50901 0.88029c0.56382 0.97657 1.8042 1.3092 2.7807 0.74541l0.69004-0.39826v-5.8759a5.0887 5.0887 0 0 1 5.0887-5.0887 5.0887 5.0887 0 0 1 5.0887 5.0887 5.0887 5.0887 0 0 1-5.0887 5.0887 5.0887 5.0887 0 0 1-2.9078-0.92005v2.8744a7.633 7.633 0 0 0 0.36348 0.14269v0.95625c0 1.1276 0.90767 2.0353 2.0353 2.0353h1.018c1.1276 0 2.0353-0.90767 2.0353-2.0353v-0.9598a7.633 7.633 0 0 0 2.4073-1.385l0.82705 0.47706c0.97657 0.56382 2.2169 0.23116 2.7807-0.74541l0.50901-0.88029c0.56382-0.97657 0.23116-2.2169-0.74541-2.7807l-0.8235-0.47564a7.633 7.633 0 0 0 0.13346-1.3921 7.633 7.633 0 0 0-0.13346-1.3921l0.8235-0.47564c0.97657-0.56382 1.3092-1.8042 0.74541-2.7807l-0.50901-0.88029c-0.56382-0.97657-1.8042-1.3092-2.7807-0.74541l-0.82137 0.47422a7.633 7.633 0 0 0-2.413-1.3865v-0.95554c0-1.1276-0.90767-2.0353-2.0353-2.0353zm0.50901 7.2695a2.9078 2.9078 0 0 0-2.9078 2.9078 2.9078 2.9078 0 0 0 2.9078 2.9078 2.9078 2.9078 0 0 0 2.9078-2.9078 2.9078 2.9078 0 0 0-2.9078-2.9078zm-4.5612 9.0209a7.633 7.633 0 0 0 0.21936 0.15334 7.633 7.633 0 0 1-0.21936-0.15334zm0.42666 0.29319a7.633 7.633 0 0 0 0.25415 0.15405 7.633 7.633 0 0 1-0.25415-0.15405zm0.42382 0.25202a7.633 7.633 0 0 0 0.31591 0.1647 7.633 7.633 0 0 1-0.31591-0.1647zm0.42382 0.21652a7.633 7.633 0 0 0 0.36348 0.16186 7.633 7.633 0 0 1-0.36348-0.16186z"/>
   <path id="path5193" d="m17.012 7.5186c-1.1276 0-2.0353 0.90767-2.0353 2.0353v0.95412a7.633 7.633 0 0 0-2.4073 1.3907l-0.82705-0.47706c-0.97657-0.56382-2.2169-0.23116-2.7807 0.74541l-0.50901 0.88029c-0.56382 0.97657-0.23116 2.2169 0.74541 2.7807l0.8235 0.47564a7.633 7.633 0 0 0-0.13346 1.3921 7.633 7.633 0 0 0 0.13346 1.3921l-0.8235 0.47564c-0.97657 0.56382-1.3092 1.8042-0.74541 2.7807l0.50901 0.88029c0.56382 0.97657 1.8042 1.3092 2.7807 0.74541l0.69004-0.39826v-5.8759a5.0887 5.0887 0 0 1 5.0887-5.0887 5.0887 5.0887 0 0 1 5.0887 5.0887 5.0887 5.0887 0 0 1-5.0887 5.0887 5.0887 5.0887 0 0 1-2.9078-0.92005v2.8744a7.633 7.633 0 0 0 0.36348 0.14269v0.95625c0 1.1276 0.90767 2.0353 2.0353 2.0353h1.018c1.1276 0 2.0353-0.90767 2.0353-2.0353v-0.9598a7.633 7.633 0 0 0 2.4073-1.385l0.82705 0.47706c0.97657 0.56382 2.2169 0.23116 2.7807-0.74541l0.50901-0.88029c0.56382-0.97657 0.23116-2.2169-0.74541-2.7807l-0.8235-0.47564a7.633 7.633 0 0 0 0.13346-1.3921 7.633 7.633 0 0 0-0.13346-1.3921l0.8235-0.47564c0.97657-0.56382 1.3092-1.8042 0.74541-2.7807l-0.50901-0.88029c-0.56382-0.97657-1.8042-1.3092-2.7807-0.74541l-0.82137 0.47422a7.633 7.633 0 0 0-2.413-1.3865v-0.95554c0-1.1276-0.90767-2.0353-2.0353-2.0353zm0.50901 7.2695a2.9078 2.9078 0 0 0-2.9078 2.9078 2.9078 2.9078 0 0 0 2.9078 2.9078 2.9078 2.9078 0 0 0 2.9078-2.9078 2.9078 2.9078 0 0 0-2.9078-2.9078zm-4.5612 9.0209a7.633 7.633 0 0 0 0.21936 0.15334 7.633 7.633 0 0 1-0.21936-0.15334zm0.42666 0.29319a7.633 7.633 0 0 0 0.25415 0.15405 7.633 7.633 0 0 1-0.25415-0.15405zm0.42382 0.25202a7.633 7.633 0 0 0 0.31591 0.1647 7.633 7.633 0 0 1-0.31591-0.1647zm0.42382 0.21652a7.633 7.633 0 0 0 0.36348 0.16186 7.633 7.633 0 0 1-0.36348-0.16186z"/>
   <path id="path5195" d="m17.119 7.7819c-1.1276 0-2.0353 0.90767-2.0353 2.0353v0.95412a7.633 7.633 0 0 0-2.4073 1.3907l-0.82705-0.47706c-0.97657-0.56382-2.2169-0.23116-2.7807 0.74541l-0.50901 0.88029c-0.56382 0.97657-0.23116 2.2169 0.74541 2.7807l0.8235 0.47564a7.633 7.633 0 0 0-0.13346 1.3921 7.633 7.633 0 0 0 0.13346 1.3921l-0.8235 0.47564c-0.97657 0.56382-1.3092 1.8042-0.74541 2.7807l0.50901 0.88029c0.56382 0.97657 1.8042 1.3092 2.7807 0.74541l0.69004-0.39826v-5.8759a5.0887 5.0887 0 0 1 5.0887-5.0887 5.0887 5.0887 0 0 1 5.0887 5.0887 5.0887 5.0887 0 0 1-5.0887 5.0887 5.0887 5.0887 0 0 1-2.9078-0.92005v2.8744a7.633 7.633 0 0 0 0.36348 0.14269v0.95625c0 1.1276 0.90767 2.0353 2.0353 2.0353h1.018c1.1276 0 2.0353-0.90767 2.0353-2.0353v-0.9598a7.633 7.633 0 0 0 2.4073-1.385l0.82705 0.47706c0.97657 0.56382 2.2169 0.23116 2.7807-0.74541l0.50901-0.88029c0.56382-0.97657 0.23116-2.2169-0.74541-2.7807l-0.8235-0.47564a7.633 7.633 0 0 0 0.13346-1.3921 7.633 7.633 0 0 0-0.13346-1.3921l0.8235-0.47564c0.97657-0.56382 1.3092-1.8042 0.74541-2.7807l-0.50901-0.88029c-0.56382-0.97657-1.8042-1.3092-2.7807-0.74541l-0.82137 0.47422a7.633 7.633 0 0 0-2.413-1.3865v-0.95554c0-1.1276-0.90767-2.0353-2.0353-2.0353zm0.50901 7.2695a2.9078 2.9078 0 0 0-2.9078 2.9078 2.9078 2.9078 0 0 0 2.9078 2.9078 2.9078 2.9078 0 0 0 2.9078-2.9078 2.9078 2.9078 0 0 0-2.9078-2.9078zm-4.5612 9.0209a7.633 7.633 0 0 0 0.21936 0.15334 7.633 7.633 0 0 1-0.21936-0.15334zm0.42666 0.29319a7.633 7.633 0 0 0 0.25415 0.15405 7.633 7.633 0 0 1-0.25415-0.15405zm0.42382 0.25202a7.633 7.633 0 0 0 0.31591 0.1647 7.633 7.633 0 0 1-0.31591-0.1647zm0.42382 0.21652a7.633 7.633 0 0 0 0.36348 0.16186 7.633 7.633 0 0 1-0.36348-0.16186z"/>
   <path id="path5197" d="m17.215 8.0245c-1.1276 0-2.0353 0.90767-2.0353 2.0353v0.95412a7.633 7.633 0 0 0-2.4073 1.3907l-0.82705-0.47706c-0.97657-0.56382-2.2169-0.23116-2.7807 0.74541l-0.50901 0.88029c-0.56382 0.97657-0.23116 2.2169 0.74541 2.7807l0.8235 0.47564a7.633 7.633 0 0 0-0.13346 1.3921 7.633 7.633 0 0 0 0.13346 1.3921l-0.8235 0.47564c-0.97657 0.56382-1.3092 1.8042-0.74541 2.7807l0.50901 0.88029c0.56382 0.97657 1.8042 1.3092 2.7807 0.74541l0.69004-0.39826v-5.8759a5.0887 5.0887 0 0 1 5.0887-5.0887 5.0887 5.0887 0 0 1 5.0887 5.0887 5.0887 5.0887 0 0 1-5.0887 5.0887 5.0887 5.0887 0 0 1-2.9078-0.92005v2.8744a7.633 7.633 0 0 0 0.36348 0.14269v0.95625c0 1.1276 0.90767 2.0353 2.0353 2.0353h1.018c1.1276 0 2.0353-0.90767 2.0353-2.0353v-0.9598a7.633 7.633 0 0 0 2.4073-1.385l0.82705 0.47706c0.97657 0.56382 2.2169 0.23116 2.7807-0.74541l0.50901-0.88029c0.56382-0.97657 0.23116-2.2169-0.74541-2.7807l-0.8235-0.47564a7.633 7.633 0 0 0 0.13346-1.3921 7.633 7.633 0 0 0-0.13346-1.3921l0.8235-0.47564c0.97657-0.56382 1.3092-1.8042 0.74541-2.7807l-0.50901-0.88029c-0.56382-0.97657-1.8042-1.3092-2.7807-0.74541l-0.82137 0.47422a7.633 7.633 0 0 0-2.413-1.3865v-0.95554c0-1.1276-0.90767-2.0353-2.0353-2.0353zm0.50901 7.2695a2.9078 2.9078 0 0 0-2.9078 2.9078 2.9078 2.9078 0 0 0 2.9078 2.9078 2.9078 2.9078 0 0 0 2.9078-2.9078 2.9078 2.9078 0 0 0-2.9078-2.9078zm-4.5612 9.0209a7.633 7.633 0 0 0 0.21936 0.15334 7.633 7.633 0 0 1-0.21936-0.15334zm0.42666 0.29319a7.633 7.633 0 0 0 0.25415 0.15405 7.633 7.633 0 0 1-0.25415-0.15405zm0.42382 0.25202a7.633 7.633 0 0 0 0.31591 0.1647 7.633 7.633 0 0 1-0.31591-0.1647zm0.42382 0.21652a7.633 7.633 0 0 0 0.36348 0.16186 7.633 7.633 0 0 1-0.36348-0.16186z"/>
   <path id="path5199" d="m17.344 8.2152c-1.1276 0-2.0353 0.90767-2.0353 2.0353v0.95412a7.633 7.633 0 0 0-2.4073 1.3907l-0.82705-0.47706c-0.97657-0.56382-2.2169-0.23116-2.7807 0.74541l-0.50901 0.88029c-0.56382 0.97657-0.23116 2.2169 0.74541 2.7807l0.8235 0.47564a7.633 7.633 0 0 0-0.13346 1.3921 7.633 7.633 0 0 0 0.13346 1.3921l-0.8235 0.47564c-0.97657 0.56382-1.3092 1.8042-0.74541 2.7807l0.50901 0.88029c0.56382 0.97657 1.8042 1.3092 2.7807 0.74541l0.69004-0.39826v-5.8759a5.0887 5.0887 0 0 1 5.0887-5.0887 5.0887 5.0887 0 0 1 5.0887 5.0887 5.0887 5.0887 0 0 1-5.0887 5.0887 5.0887 5.0887 0 0 1-2.9078-0.92005v2.8744a7.633 7.633 0 0 0 0.36348 0.14269v0.95625c0 1.1276 0.90767 2.0353 2.0353 2.0353h1.018c1.1276 0 2.0353-0.90767 2.0353-2.0353v-0.9598a7.633 7.633 0 0 0 2.4073-1.385l0.82705 0.47706c0.97657 0.56382 2.2169 0.23116 2.7807-0.74541l0.50901-0.88029c0.56382-0.97657 0.23116-2.2169-0.74541-2.7807l-0.8235-0.47564a7.633 7.633 0 0 0 0.13346-1.3921 7.633 7.633 0 0 0-0.13346-1.3921l0.8235-0.47564c0.97657-0.56382 1.3092-1.8042 0.74541-2.7807l-0.50901-0.88029c-0.56382-0.97657-1.8042-1.3092-2.7807-0.74541l-0.82137 0.47422a7.633 7.633 0 0 0-2.413-1.3865v-0.95554c0-1.1276-0.90767-2.0353-2.0353-2.0353zm0.50901 7.2695a2.9078 2.9078 0 0 0-2.9078 2.9078 2.9078 2.9078 0 0 0 2.9078 2.9078 2.9078 2.9078 0 0 0 2.9078-2.9078 2.9078 2.9078 0 0 0-2.9078-2.9078zm-4.5612 9.0209a7.633 7.633 0 0 0 0.21936 0.15334 7.633 7.633 0 0 1-0.21936-0.15334zm0.42666 0.29319a7.633 7.633 0 0 0 0.25415 0.15405 7.633 7.633 0 0 1-0.25415-0.15405zm0.42382 0.25202a7.633 7.633 0 0 0 0.31591 0.1647 7.633 7.633 0 0 1-0.31591-0.1647zm0.42382 0.21652a7.633 7.633 0 0 0 0.36348 0.16186 7.633 7.633 0 0 1-0.36348-0.16186z"/>
   <path id="path5201" d="m17.451 8.4c-1.1276 0-2.0353 0.90767-2.0353 2.0353v0.95412a7.633 7.633 0 0 0-2.4073 1.3907l-0.82705-0.47706c-0.97657-0.56382-2.2169-0.23116-2.7807 0.74541l-0.50901 0.88029c-0.56382 0.97657-0.23116 2.2169 0.74541 2.7807l0.8235 0.47564a7.633 7.633 0 0 0-0.13346 1.3921 7.633 7.633 0 0 0 0.13346 1.3921l-0.8235 0.47564c-0.97657 0.56382-1.3092 1.8042-0.74541 2.7807l0.50901 0.88029c0.56382 0.97657 1.8042 1.3092 2.7807 0.74541l0.69004-0.39826v-5.8759a5.0887 5.0887 0 0 1 5.0887-5.0887 5.0887 5.0887 0 0 1 5.0887 5.0887 5.0887 5.0887 0 0 1-5.0887 5.0887 5.0887 5.0887 0 0 1-2.9078-0.92005v2.8744a7.633 7.633 0 0 0 0.36348 0.14269v0.95625c0 1.1276 0.90767 2.0353 2.0353 2.0353h1.018c1.1276 0 2.0353-0.90767 2.0353-2.0353v-0.9598a7.633 7.633 0 0 0 2.4073-1.385l0.82705 0.47706c0.97657 0.56382 2.2169 0.23116 2.7807-0.74541l0.50901-0.88029c0.56382-0.97657 0.23116-2.2169-0.74541-2.7807l-0.8235-0.47564a7.633 7.633 0 0 0 0.13346-1.3921 7.633 7.633 0 0 0-0.13346-1.3921l0.8235-0.47564c0.97657-0.56382 1.3092-1.8042 0.74541-2.7807l-0.50901-0.88029c-0.56382-0.97657-1.8042-1.3092-2.7807-0.74541l-0.82137 0.47422a7.633 7.633 0 0 0-2.413-1.3865v-0.95554c0-1.1276-0.90767-2.0353-2.0353-2.0353zm0.50901 7.2695a2.9078 2.9078 0 0 0-2.9078 2.9078 2.9078 2.9078 0 0 0 2.9078 2.9078 2.9078 2.9078 0 0 0 2.9078-2.9078 2.9078 2.9078 0 0 0-2.9078-2.9078zm-4.5612 9.0209a7.633 7.633 0 0 0 0.21936 0.15334 7.633 7.633 0 0 1-0.21936-0.15334zm0.42666 0.29319a7.633 7.633 0 0 0 0.25415 0.15405 7.633 7.633 0 0 1-0.25415-0.15405zm0.42382 0.25202a7.633 7.633 0 0 0 0.31591 0.1647 7.633 7.633 0 0 1-0.31591-0.1647zm0.42382 0.21652a7.633 7.633 0 0 0 0.36348 0.16186 7.633 7.633 0 0 1-0.36348-0.16186z"/>
   <path id="path5203" d="m17.526 8.5166c-1.1276 0-2.0353 0.90767-2.0353 2.0353v0.95412a7.633 7.633 0 0 0-2.4073 1.3907l-0.82705-0.47706c-0.97657-0.56382-2.2169-0.23116-2.7807 0.74541l-0.50901 0.88029c-0.56382 0.97657-0.23116 2.2169 0.74541 2.7807l0.8235 0.47564a7.633 7.633 0 0 0-0.13346 1.3921 7.633 7.633 0 0 0 0.13346 1.3921l-0.8235 0.47564c-0.97657 0.56382-1.3092 1.8042-0.74541 2.7807l0.50901 0.88029c0.56382 0.97657 1.8042 1.3092 2.7807 0.74541l0.69004-0.39826v-5.8759a5.0887 5.0887 0 0 1 5.0887-5.0887 5.0887 5.0887 0 0 1 5.0887 5.0887 5.0887 5.0887 0 0 1-5.0887 5.0887 5.0887 5.0887 0 0 1-2.9078-0.92005v2.8744a7.633 7.633 0 0 0 0.36348 0.14269v0.95625c0 1.1276 0.90767 2.0353 2.0353 2.0353h1.018c1.1276 0 2.0353-0.90767 2.0353-2.0353v-0.9598a7.633 7.633 0 0 0 2.4073-1.385l0.82705 0.47706c0.97657 0.56382 2.2169 0.23116 2.7807-0.74541l0.50901-0.88029c0.56382-0.97657 0.23116-2.2169-0.74541-2.7807l-0.8235-0.47564a7.633 7.633 0 0 0 0.13346-1.3921 7.633 7.633 0 0 0-0.13346-1.3921l0.8235-0.47564c0.97657-0.56382 1.3092-1.8042 0.74541-2.7807l-0.50901-0.88029c-0.56382-0.97657-1.8042-1.3092-2.7807-0.74541l-0.82137 0.47422a7.633 7.633 0 0 0-2.413-1.3865v-0.95554c0-1.1276-0.90767-2.0353-2.0353-2.0353zm0.50901 7.2695a2.9078 2.9078 0 0 0-2.9078 2.9078 2.9078 2.9078 0 0 0 2.9078 2.9078 2.9078 2.9078 0 0 0 2.9078-2.9078 2.9078 2.9078 0 0 0-2.9078-2.9078zm-4.5612 9.0209a7.633 7.633 0 0 0 0.21936 0.15334 7.633 7.633 0 0 1-0.21936-0.15334zm0.42666 0.29319a7.633 7.633 0 0 0 0.25415 0.15405 7.633 7.633 0 0 1-0.25415-0.15405zm0.42382 0.25202a7.633 7.633 0 0 0 0.31591 0.1647 7.633 7.633 0 0 1-0.31591-0.1647zm0.42382 0.21652a7.633 7.633 0 0 0 0.36348 0.16186 7.633 7.633 0 0 1-0.36348-0.16186z"/>
   <path id="path5205" d="m17.578 8.6317c-1.1276 0-2.0353 0.90767-2.0353 2.0353v0.95412a7.633 7.633 0 0 0-2.4073 1.3907l-0.82705-0.47706c-0.97657-0.56382-2.2169-0.23116-2.7807 0.74541l-0.50901 0.88029c-0.56382 0.97657-0.23116 2.2169 0.74541 2.7807l0.8235 0.47564a7.633 7.633 0 0 0-0.13346 1.3921 7.633 7.633 0 0 0 0.13346 1.3921l-0.8235 0.47564c-0.97657 0.56382-1.3092 1.8042-0.74541 2.7807l0.50901 0.88029c0.56382 0.97657 1.8042 1.3092 2.7807 0.74541l0.69004-0.39826v-5.8759a5.0887 5.0887 0 0 1 5.0887-5.0887 5.0887 5.0887 0 0 1 5.0887 5.0887 5.0887 5.0887 0 0 1-5.0887 5.0887 5.0887 5.0887 0 0 1-2.9078-0.92005v2.8744a7.633 7.633 0 0 0 0.36348 0.14269v0.95625c0 1.1276 0.90767 2.0353 2.0353 2.0353h1.018c1.1276 0 2.0353-0.90767 2.0353-2.0353v-0.9598a7.633 7.633 0 0 0 2.4073-1.385l0.82705 0.47706c0.97657 0.56382 2.2169 0.23116 2.7807-0.74541l0.50901-0.88029c0.56382-0.97657 0.23116-2.2169-0.74541-2.7807l-0.8235-0.47564a7.633 7.633 0 0 0 0.13346-1.3921 7.633 7.633 0 0 0-0.13346-1.3921l0.8235-0.47564c0.97657-0.56382 1.3092-1.8042 0.74541-2.7807l-0.50901-0.88029c-0.56382-0.97657-1.8042-1.3092-2.7807-0.74541l-0.82137 0.47422a7.633 7.633 0 0 0-2.413-1.3865v-0.95554c0-1.1276-0.90767-2.0353-2.0353-2.0353zm0.50901 7.2695a2.9078 2.9078 0 0 0-2.9078 2.9078 2.9078 2.9078 0 0 0 2.9078 2.9078 2.9078 2.9078 0 0 0 2.9078-2.9078 2.9078 2.9078 0 0 0-2.9078-2.9078zm-4.5612 9.0209a7.633 7.633 0 0 0 0.21936 0.15334 7.633 7.633 0 0 1-0.21936-0.15334zm0.42666 0.29319a7.633 7.633 0 0 0 0.25415 0.15405 7.633 7.633 0 0 1-0.25415-0.15405zm0.42382 0.25202a7.633 7.633 0 0 0 0.31591 0.1647 7.633 7.633 0 0 1-0.31591-0.1647zm0.42382 0.21652a7.633 7.633 0 0 0 0.36348 0.16186 7.633 7.633 0 0 1-0.36348-0.16186z"/>
  </g>
  <path id="path4" d="m16.593 6.8957c-1.1276 0-2.0353 0.90767-2.0353 2.0353v0.95412a7.633 7.633 0 0 0-2.4073 1.3907l-0.82705-0.47706c-0.97657-0.56382-2.2169-0.23116-2.7807 0.74541l-0.50901 0.88029c-0.56382 0.97657-0.23116 2.2169 0.74541 2.7807l0.8235 0.47564a7.633 7.633 0 0 0-0.13346 1.3921 7.633 7.633 0 0 0 0.13346 1.3921l-0.8235 0.47564c-0.97657 0.56382-1.3092 1.8042-0.74541 2.7807l0.50901 0.88029c0.56382 0.97657 1.8042 1.3092 2.7807 0.74541l0.69004-0.39826v-5.8759a5.0887 5.0887 0 0 1 5.0887-5.0887 5.0887 5.0887 0 0 1 5.0887 5.0887 5.0887 5.0887 0 0 1-5.0887 5.0887 5.0887 5.0887 0 0 1-2.9078-0.92005v2.8744a7.633 7.633 0 0 0 0.36348 0.14269v0.95625c0 1.1276 0.90767 2.0353 2.0353 2.0353h1.018c1.1276 0 2.0353-0.90767 2.0353-2.0353v-0.9598a7.633 7.633 0 0 0 2.4073-1.385l0.82705 0.47706c0.97657 0.56382 2.2169 0.23116 2.7807-0.74541l0.50901-0.88029c0.56382-0.97657 0.23116-2.2169-0.74541-2.7807l-0.8235-0.47564a7.633 7.633 0 0 0 0.13346-1.3921 7.633 7.633 0 0 0-0.13346-1.3921l0.8235-0.47564c0.97657-0.56382 1.3092-1.8042 0.74541-2.7807l-0.50901-0.88029c-0.56382-0.97657-1.8042-1.3092-2.7807-0.74541l-0.82137 0.47422a7.633 7.633 0 0 0-2.413-1.3865v-0.95554c0-1.1276-0.90767-2.0353-2.0353-2.0353zm0.50901 7.2695a2.9078 2.9078 0 0 0-2.9078 2.9078 2.9078 2.9078 0 0 0 2.9078 2.9078 2.9078 2.9078 0 0 0 2.9078-2.9078 2.9078 2.9078 0 0 0-2.9078-2.9078zm-4.5612 9.0209a7.633 7.633 0 0 0 0.21936 0.15334 7.633 7.633 0 0 1-0.21936-0.15334zm0.42666 0.29319a7.633 7.633 0 0 0 0.25415 0.15405 7.633 7.633 0 0 1-0.25415-0.15405zm0.42382 0.25202a7.633 7.633 0 0 0 0.31591 0.1647 7.633 7.633 0 0 1-0.31591-0.1647zm0.42382 0.21652a7.633 7.633 0 0 0 0.36348 0.16186 7.633 7.633 0 0 1-0.36348-0.16186z" fill="url(#linearGradient2461)" stroke-width=".36348"/>
 </g>
</svg>
