<?xml version="1.0" encoding="UTF-8"?>
<svg id="svg1443" width="128" height="128" version="1.1" viewBox="0 0 33.867 33.867" xmlns="http://www.w3.org/2000/svg" xmlns:cc="http://creativecommons.org/ns#" xmlns:dc="http://purl.org/dc/elements/1.1/" xmlns:rdf="http://www.w3.org/1999/02/22-rdf-syntax-ns#" xmlns:xlink="http://www.w3.org/1999/xlink">
 <defs id="defs1437">
  <linearGradient id="linearGradient1632" x1="132.21" x2="132.21" y1="42.152" y2="64.966" gradientTransform="matrix(.97573 0 0 .97573 -111.77 -37.183)" gradientUnits="userSpaceOnUse">
   <stop id="stop1626" stop-color="#60748f" stop-opacity=".98431" offset="0"/>
   <stop id="stop1975" stop-color="#455776" stop-opacity=".99216" offset=".73575"/>
   <stop id="stop1628" stop-color="#394a6b" offset="1"/>
  </linearGradient>
  <linearGradient id="linearGradient1653" x1="14.294" x2="14.294" y1="17.574" y2="32.814" gradientUnits="userSpaceOnUse">
   <stop id="stop1647" stop-color="#009fff" offset="0"/>
   <stop id="stop1649" stop-color="#004aff" stop-opacity=".99828" offset="1"/>
  </linearGradient>
 </defs>
 <metadata id="metadata1440">
  <rdf:RDF>
   <cc:Work rdf:about="">
    <dc:format>image/svg+xml</dc:format>
    <dc:type rdf:resource="http://purl.org/dc/dcmitype/StillImage"/>
   </cc:Work>
  </rdf:RDF>
 </metadata>
 <g id="layer1">
  <g id="g1702" transform="matrix(.97573 0 0 .97573 -65.737 -37.183)" fill="none" opacity=".295" stroke="#000" stroke-linecap="round" stroke-linejoin="round" stroke-opacity=".02">
   <rect id="rect1634" x="69.84" y="40.71" width="29.811" height="29.811" rx="6.6099" ry="6.6099" stroke-width=".1"/>
   <rect id="rect1638" x="69.84" y="40.71" width="29.811" height="29.811" rx="6.6099" ry="6.6099" stroke-width=".2"/>
   <rect id="rect1640" x="69.84" y="40.71" width="29.811" height="29.811" rx="6.6099" ry="6.6099" stroke-width=".3"/>
   <rect id="rect1642" x="69.84" y="40.71" width="29.811" height="29.811" rx="6.6099" ry="6.6099" stroke-width=".4"/>
   <rect id="rect1644" x="69.84" y="40.71" width="29.811" height="29.811" rx="6.6099" ry="6.6099" stroke-width=".5"/>
   <rect id="rect1646" x="69.84" y="40.71" width="29.811" height="29.811" rx="6.6099" ry="6.6099" stroke-width=".6"/>
   <rect id="rect1648" x="69.84" y="40.71" width="29.811" height="29.811" rx="6.6099" ry="6.6099" stroke-width=".7"/>
   <rect id="rect1650" x="69.84" y="40.71" width="29.811" height="29.811" rx="6.6099" ry="6.6099" stroke-width=".8"/>
   <rect id="rect1652" x="69.84" y="40.71" width="29.811" height="29.811" rx="6.6099" ry="6.6099"/>
   <rect id="rect1654" x="69.84" y="40.71" width="29.811" height="29.811" rx="6.6099" ry="6.6099" stroke-width="1.2"/>
   <rect id="rect1656" x="69.84" y="40.71" width="29.811" height="29.811" rx="6.6099" ry="6.6099" stroke-width="1.4"/>
   <rect id="rect1658" x="69.84" y="40.71" width="29.811" height="29.811" rx="6.6099" ry="6.6099" stroke-width="1.6"/>
   <rect id="rect1660" x="69.84" y="40.71" width="29.811" height="29.811" rx="6.6099" ry="6.6099" stroke-width="1.8"/>
   <rect id="rect1662" x="69.84" y="40.71" width="29.811" height="29.811" rx="6.6099" ry="6.6099" stroke-width="2"/>
   <rect id="rect1664" x="69.84" y="40.71" width="29.811" height="29.811" rx="6.6099" ry="6.6099" stroke-width="2.2"/>
   <rect id="rect1666" x="69.84" y="40.71" width="29.811" height="29.811" rx="6.6099" ry="6.6099" stroke-width="2.6"/>
   <rect id="rect1668" x="69.84" y="40.71" width="29.811" height="29.811" rx="6.6099" ry="6.6099" stroke-width="3"/>
   <rect id="rect1670" x="69.84" y="40.71" width="29.811" height="29.811" rx="6.6099" ry="6.6099" stroke-width="3.4"/>
   <rect id="rect1672" x="69.84" y="40.71" width="29.811" height="29.811" rx="6.6099" ry="6.6099" stroke-width="3.8"/>
   <rect id="rect1674" x="69.84" y="40.71" width="29.811" height="29.811" rx="6.6099" ry="6.6099" stroke-width="4.2"/>
   <rect id="rect1676" x="69.84" y="40.71" width="29.811" height="29.811" rx="6.6099" ry="6.6099" stroke-width="4.6"/>
   <rect id="rect1678" x="69.84" y="40.71" width="29.811" height="29.811" rx="6.6099" ry="6.6099" stroke-width="5"/>
  </g>
  <rect id="rect849" x="2.4074" y="2.5392" width="29.087" height="29.087" rx="6.4495" ry="6.4495" fill="url(#linearGradient1632)" stroke-linecap="round" stroke-linejoin="round" stroke-width="2.6877"/>
  <path id="rect1131" d="m31.495 23.154v2.0236c0 3.573-2.8765 6.4495-6.4495 6.4495h-16.189c-3.573 0-6.4495-2.8765-6.4495-6.4495v-2.0236z" fill="url(#linearGradient1653)" stroke-linecap="round" stroke-linejoin="round" stroke-width="2.6877"/>
  <path id="path8" d="m17.329 7.4093c-2.1838-0.093984-4.1355 1.2565-5.4723 2.875-1.3041 1.6846-2.1232 3.8007-2.112 5.9432 0.0479 1.3627 0.561 2.9055 1.895 3.5056 1.1028 0.49731 2.3582 0.31938 3.5166 0.16079 1.7611-0.39671 3.141-1.675 4.2388-3.0444 0.20988-0.34072 0.25014-0.18755 0.232 0.13568 0.0549 0.74072-0.0061 1.5599 0.43241 2.1967 0.61969 0.74282 1.789 0.45617 2.4023-0.14609 0.71059-0.72523 1.193-1.6733 1.4513-2.6488-0.64763-0.12107-0.72483 0.9934-1.2607 1.2733-0.50175 0.53089-1.7144 0.7295-1.944-0.16409-0.2069-0.75533-0.12506-1.5466-0.13709-2.3208 1.312-2.4696 2.6358-5.2969 3.9378-7.7713h-1.9463c-0.64922 1.2853-1.3416 2.8041-2.0153 4.0767-0.20817-1.25-0.38292-2.6582-1.4392-3.5051-0.50489-0.39199-1.1512-0.54088-1.7794-0.56642zm-0.26375 0.89563c1.2822-0.056806 2.2003 1.1252 2.4387 2.2789 0.18499 0.75899 0.197 1.5432 0.2555 2.3184-0.96779 1.7889-1.9161 3.6324-3.3402 5.1084-0.73475 0.68876-1.7455 1.3767-2.8013 1.1227-1.008-0.24808-1.5354-1.3114-1.529-2.2835-0.02239-1.2057 0.39722-2.3647 0.69829-3.5178 0.52277-1.7999 1.342-3.6774 3.0105-4.695 0.37942-0.23569 0.82507-0.3374 1.2676-0.33217z" fill="#fff" fill-opacity=".97785" stroke-width=".3835"/>
  <path id="path3144" transform="scale(.26458)" d="m9.0996 87.51v7.6484c0 13.504 10.871 24.375 24.375 24.375h12.221v-32.023h-36.596zm73.193 0v32.023h12.367c12.596 0 22.899-9.4586 24.229-21.689v-10.334h-36.596z" fill="#253e78" fill-opacity=".36995" stroke-linecap="round" stroke-linejoin="round" stroke-width="13"/>
 </g>
</svg>
