<?xml version="1.0" encoding="UTF-8"?>
<svg id="svg2312" width="128" height="128" version="1.1" viewBox="0 0 33.867 33.867" xmlns="http://www.w3.org/2000/svg" xmlns:cc="http://creativecommons.org/ns#" xmlns:dc="http://purl.org/dc/elements/1.1/" xmlns:rdf="http://www.w3.org/1999/02/22-rdf-syntax-ns#" xmlns:xlink="http://www.w3.org/1999/xlink">
 <defs id="defs2306">
  <linearGradient id="linearGradient1632" x1="132.21" x2="132.21" y1="42.152" y2="70.68" gradientTransform="matrix(.97573 0 0 .97573 -111.8 -37.255)" gradientUnits="userSpaceOnUse">
   <stop id="stop1626" stop-color="#ef5bf6" offset="0"/>
   <stop id="stop1628" stop-color="#8416c4" offset="1"/>
  </linearGradient>
  <linearGradient id="linearGradient1183" x1="15.73" x2="15.73" y1="6.447" y2="69.08" gradientTransform="translate(0 -1.414)" gradientUnits="userSpaceOnUse">
   <stop id="stop1177" stop-color="#fff" offset="0"/>
   <stop id="stop1179" stop-color="#8d1cc8" offset="1"/>
  </linearGradient>
 </defs>
 <metadata id="metadata2309">
  <rdf:RDF>
   <cc:Work rdf:about="">
    <dc:format>image/svg+xml</dc:format>
    <dc:type rdf:resource="http://purl.org/dc/dcmitype/StillImage"/>
   </cc:Work>
  </rdf:RDF>
 </metadata>
 <g id="layer1">
  <g id="g1702" transform="matrix(.97573 0 0 .97573 -65.768 -37.255)" fill="none" opacity=".29676" stroke="#000" stroke-linecap="round" stroke-linejoin="round" stroke-opacity=".02">
   <rect id="rect1634" x="69.84" y="40.71" width="29.811" height="29.811" rx="6.6099" ry="6.6099" stroke-width=".1"/>
   <rect id="rect1638" x="69.84" y="40.71" width="29.811" height="29.811" rx="6.6099" ry="6.6099" stroke-width=".2"/>
   <rect id="rect1640" x="69.84" y="40.71" width="29.811" height="29.811" rx="6.6099" ry="6.6099" stroke-width=".3"/>
   <rect id="rect1642" x="69.84" y="40.71" width="29.811" height="29.811" rx="6.6099" ry="6.6099" stroke-width=".4"/>
   <rect id="rect1644" x="69.84" y="40.71" width="29.811" height="29.811" rx="6.6099" ry="6.6099" stroke-width=".5"/>
   <rect id="rect1646" x="69.84" y="40.71" width="29.811" height="29.811" rx="6.6099" ry="6.6099" stroke-width=".6"/>
   <rect id="rect1648" x="69.84" y="40.71" width="29.811" height="29.811" rx="6.6099" ry="6.6099" stroke-width=".7"/>
   <rect id="rect1650" x="69.84" y="40.71" width="29.811" height="29.811" rx="6.6099" ry="6.6099" stroke-width=".8"/>
   <rect id="rect1652" x="69.84" y="40.71" width="29.811" height="29.811" rx="6.6099" ry="6.6099"/>
   <rect id="rect1654" x="69.84" y="40.71" width="29.811" height="29.811" rx="6.6099" ry="6.6099" stroke-width="1.2"/>
   <rect id="rect1656" x="69.84" y="40.71" width="29.811" height="29.811" rx="6.6099" ry="6.6099" stroke-width="1.4"/>
   <rect id="rect1658" x="69.84" y="40.71" width="29.811" height="29.811" rx="6.6099" ry="6.6099" stroke-width="1.6"/>
   <rect id="rect1660" x="69.84" y="40.71" width="29.811" height="29.811" rx="6.6099" ry="6.6099" stroke-width="1.8"/>
   <rect id="rect1662" x="69.84" y="40.71" width="29.811" height="29.811" rx="6.6099" ry="6.6099" stroke-width="2"/>
   <rect id="rect1664" x="69.84" y="40.71" width="29.811" height="29.811" rx="6.6099" ry="6.6099" stroke-width="2.2"/>
   <rect id="rect1666" x="69.84" y="40.71" width="29.811" height="29.811" rx="6.6099" ry="6.6099" stroke-width="2.6"/>
   <rect id="rect1668" x="69.84" y="40.71" width="29.811" height="29.811" rx="6.6099" ry="6.6099" stroke-width="3"/>
   <rect id="rect1670" x="69.84" y="40.71" width="29.811" height="29.811" rx="6.6099" ry="6.6099" stroke-width="3.4"/>
   <rect id="rect1672" x="69.84" y="40.71" width="29.811" height="29.811" rx="6.6099" ry="6.6099" stroke-width="3.8"/>
   <rect id="rect1674" x="69.84" y="40.71" width="29.811" height="29.811" rx="6.6099" ry="6.6099" stroke-width="4.2"/>
   <rect id="rect1676" x="69.84" y="40.71" width="29.811" height="29.811" rx="6.6099" ry="6.6099" stroke-width="4.6"/>
   <rect id="rect1678" x="69.84" y="40.71" width="29.811" height="29.811" rx="6.6099" ry="6.6099" stroke-width="5"/>
  </g>
  <rect id="rect849" x="2.3771" y="2.4667" width="29.087" height="29.087" rx="6.4495" ry="6.4495" fill="url(#linearGradient1632)" stroke-linecap="round" stroke-linejoin="round" stroke-width="2.6877"/>
  <path id="path2659" d="m9.8306 9.1301c-1.2473 0-2.2514 1.0042-2.2514 2.2514v7.8649c0 1.2473 1.0042 2.2513 2.2514 2.2513h7.4878c0.08495-1.0568 0.47764-2.0299 1.0869-2.8303h-3.4785c-0.42587 0-0.76871-0.34284-0.76871-0.76871s0.34284-0.76871 0.76871-0.76871h3.8825c0.31205 0 0.57808 0.185 0.6988 0.45093 0.89708-0.66269 2.0033-1.0564 3.198-1.0564 1.2717 0 2.4436 0.44586 3.3695 1.1876v-6.3307c0-1.2473-1.0042-2.2514-2.2514-2.2514zm1.129 2.7909a0.75581 0.75581 0 0 1 0.75582 0.75582 0.75581 0.75581 0 0 1-0.75582 0.75582 0.75581 0.75581 0 0 1-0.75582-0.75582 0.75581 0.75581 0 0 1 0.75582-0.75582zm3.9323 0a0.75581 0.75581 0 0 1 0.75572 0.75582 0.75581 0.75581 0 0 1-0.75572 0.75582 0.75581 0.75581 0 0 1-0.75582-0.75582 0.75581 0.75581 0 0 1 0.75582-0.75582zm3.9322 0a0.75581 0.75581 0 0 1 0.75582 0.75582 0.75581 0.75581 0 0 1-0.75582 0.75582 0.75581 0.75581 0 0 1-0.75582-0.75582 0.75581 0.75581 0 0 1 0.75582-0.75582zm3.9322 0a0.75581 0.75581 0 0 1 0.75582 0.75582 0.75581 0.75581 0 0 1-0.75582 0.75582 0.75581 0.75581 0 0 1-0.75582-0.75582 0.75581 0.75581 0 0 1 0.75582-0.75582zm-9.8092 2.5885a0.75581 0.75581 0 0 1 0.75582 0.75582 0.75581 0.75581 0 0 1-0.75582 0.75582 0.75581 0.75581 0 0 1-0.75582-0.75582 0.75581 0.75581 0 0 1 0.75582-0.75582zm3.922 0a0.75581 0.75581 0 0 1 0.75582 0.75582 0.75581 0.75581 0 0 1-0.75582 0.75582 0.75581 0.75581 0 0 1-0.75582-0.75582 0.75581 0.75581 0 0 1 0.75582-0.75582zm3.922 0a0.75581 0.75581 0 0 1 0.75582 0.75582 0.75581 0.75581 0 0 1-0.75582 0.75582 0.75581 0.75581 0 0 1-0.75582-0.75582 0.75581 0.75581 0 0 1 0.75582-0.75582zm1.9151 3.2563c-2.3077 0-4.1655 1.8578-4.1655 4.1655v0.08049h8.331v-0.08049c0-2.3077-1.8578-4.1655-4.1655-4.1655zm0 1.956c0.39695 0 0.71654 0.31959 0.71654 0.71654v0.43425c0 0.39695-0.31959 0.71654-0.71654 0.71654-0.39695 0-0.71654-0.31959-0.71654-0.71654v-0.43425c0-0.39695 0.31959-0.71654 0.71654-0.71654zm-4.1655 4.0002v1.9724c0 2.3077 1.8578 4.1655 4.1655 4.1655s4.1655-1.8578 4.1655-4.1655v-1.9724z" fill="#1d0047" fill-opacity=".028682"/>
  <path id="path2859" d="m9.9008 9.231c-1.2473 0-2.2514 1.0042-2.2514 2.2514v7.8649c0 1.2473 1.0042 2.2513 2.2514 2.2513h7.4878c0.08495-1.0568 0.47764-2.0299 1.0869-2.8303h-3.4785c-0.42587 0-0.76871-0.34284-0.76871-0.76871s0.34284-0.76871 0.76871-0.76871h3.8825c0.31205 0 0.57808 0.185 0.6988 0.45093 0.89708-0.66269 2.0033-1.0564 3.198-1.0564 1.2717 0 2.4436 0.44586 3.3695 1.1876v-6.3307c0-1.2473-1.0042-2.2514-2.2514-2.2514zm1.129 2.7909a0.75581 0.75581 0 0 1 0.75582 0.75582 0.75581 0.75581 0 0 1-0.75582 0.75582 0.75581 0.75581 0 0 1-0.75582-0.75582 0.75581 0.75581 0 0 1 0.75582-0.75582zm3.9323 0a0.75581 0.75581 0 0 1 0.75572 0.75582 0.75581 0.75581 0 0 1-0.75572 0.75582 0.75581 0.75581 0 0 1-0.75582-0.75582 0.75581 0.75581 0 0 1 0.75582-0.75582zm3.9322 0a0.75581 0.75581 0 0 1 0.75582 0.75582 0.75581 0.75581 0 0 1-0.75582 0.75582 0.75581 0.75581 0 0 1-0.75582-0.75582 0.75581 0.75581 0 0 1 0.75582-0.75582zm3.9322 0a0.75581 0.75581 0 0 1 0.75582 0.75582 0.75581 0.75581 0 0 1-0.75582 0.75582 0.75581 0.75581 0 0 1-0.75582-0.75582 0.75581 0.75581 0 0 1 0.75582-0.75582zm-9.8092 2.5885a0.75581 0.75581 0 0 1 0.75582 0.75582 0.75581 0.75581 0 0 1-0.75582 0.75582 0.75581 0.75581 0 0 1-0.75582-0.75582 0.75581 0.75581 0 0 1 0.75582-0.75582zm3.922 0a0.75581 0.75581 0 0 1 0.75582 0.75582 0.75581 0.75581 0 0 1-0.75582 0.75582 0.75581 0.75581 0 0 1-0.75582-0.75582 0.75581 0.75581 0 0 1 0.75582-0.75582zm3.922 0a0.75581 0.75581 0 0 1 0.75582 0.75582 0.75581 0.75581 0 0 1-0.75582 0.75582 0.75581 0.75581 0 0 1-0.75582-0.75582 0.75581 0.75581 0 0 1 0.75582-0.75582zm1.9151 3.2563c-2.3077 0-4.1655 1.8578-4.1655 4.1655v0.08049h8.331v-0.08049c0-2.3077-1.8578-4.1655-4.1655-4.1655zm0 1.956c0.39695 0 0.71654 0.31959 0.71654 0.71654v0.43425c0 0.39695-0.31959 0.71654-0.71654 0.71654-0.39695 0-0.71654-0.31959-0.71654-0.71654v-0.43425c0-0.39695 0.31959-0.71654 0.71654-0.71654zm-4.1655 4.0002v1.9724c0 2.3077 1.8578 4.1655 4.1655 4.1655s4.1655-1.8578 4.1655-4.1655v-1.9724z" fill="#1d0047" fill-opacity=".028682"/>
  <path id="path2861" d="m9.942 9.4162c-1.2473 0-2.2514 1.0042-2.2514 2.2514v7.8649c0 1.2473 1.0042 2.2513 2.2514 2.2513h7.4878c0.08495-1.0568 0.47764-2.0299 1.0869-2.8303h-3.4785c-0.42587 0-0.76871-0.34284-0.76871-0.76871s0.34284-0.76871 0.76871-0.76871h3.8825c0.31205 0 0.57808 0.185 0.6988 0.45093 0.89708-0.66269 2.0033-1.0564 3.198-1.0564 1.2717 0 2.4436 0.44586 3.3695 1.1876v-6.3307c0-1.2473-1.0042-2.2514-2.2514-2.2514zm1.129 2.7909a0.75581 0.75581 0 0 1 0.75582 0.75582 0.75581 0.75581 0 0 1-0.75582 0.75582 0.75581 0.75581 0 0 1-0.75582-0.75582 0.75581 0.75581 0 0 1 0.75582-0.75582zm3.9323 0a0.75581 0.75581 0 0 1 0.75572 0.75582 0.75581 0.75581 0 0 1-0.75572 0.75582 0.75581 0.75581 0 0 1-0.75582-0.75582 0.75581 0.75581 0 0 1 0.75582-0.75582zm3.9322 0a0.75581 0.75581 0 0 1 0.75582 0.75582 0.75581 0.75581 0 0 1-0.75582 0.75582 0.75581 0.75581 0 0 1-0.75582-0.75582 0.75581 0.75581 0 0 1 0.75582-0.75582zm3.9322 0a0.75581 0.75581 0 0 1 0.75582 0.75582 0.75581 0.75581 0 0 1-0.75582 0.75582 0.75581 0.75581 0 0 1-0.75582-0.75582 0.75581 0.75581 0 0 1 0.75582-0.75582zm-9.8092 2.5885a0.75581 0.75581 0 0 1 0.75582 0.75582 0.75581 0.75581 0 0 1-0.75582 0.75582 0.75581 0.75581 0 0 1-0.75582-0.75582 0.75581 0.75581 0 0 1 0.75582-0.75582zm3.922 0a0.75581 0.75581 0 0 1 0.75582 0.75582 0.75581 0.75581 0 0 1-0.75582 0.75582 0.75581 0.75581 0 0 1-0.75582-0.75582 0.75581 0.75581 0 0 1 0.75582-0.75582zm3.922 0a0.75581 0.75581 0 0 1 0.75582 0.75582 0.75581 0.75581 0 0 1-0.75582 0.75582 0.75581 0.75581 0 0 1-0.75582-0.75582 0.75581 0.75581 0 0 1 0.75582-0.75582zm1.9151 3.2563c-2.3077 0-4.1655 1.8578-4.1655 4.1655v0.08049h8.331v-0.08049c0-2.3077-1.8578-4.1655-4.1655-4.1655zm0 1.956c0.39695 0 0.71654 0.31959 0.71654 0.71654v0.43425c0 0.39695-0.31959 0.71654-0.71654 0.71654-0.39695 0-0.71654-0.31959-0.71654-0.71654v-0.43425c0-0.39695 0.31959-0.71654 0.71654-0.71654zm-4.1655 4.0002v1.9724c0 2.3077 1.8578 4.1655 4.1655 4.1655s4.1655-1.8578 4.1655-4.1655v-1.9724z" fill="#1d0047" fill-opacity=".028682"/>
  <path id="path2863" d="m10.001 9.6528c-1.2473 0-2.2514 1.0042-2.2514 2.2514v7.8649c0 1.2473 1.0042 2.2513 2.2514 2.2513h7.4878c0.08495-1.0568 0.47764-2.0299 1.0869-2.8303h-3.4785c-0.42587 0-0.76871-0.34284-0.76871-0.76871s0.34284-0.76871 0.76871-0.76871h3.8825c0.31205 0 0.57808 0.185 0.6988 0.45093 0.89708-0.66269 2.0033-1.0564 3.198-1.0564 1.2717 0 2.4436 0.44586 3.3695 1.1876v-6.3307c0-1.2473-1.0042-2.2514-2.2514-2.2514zm1.129 2.7909a0.75581 0.75581 0 0 1 0.75582 0.75582 0.75581 0.75581 0 0 1-0.75582 0.75582 0.75581 0.75581 0 0 1-0.75582-0.75582 0.75581 0.75581 0 0 1 0.75582-0.75582zm3.9323 0a0.75581 0.75581 0 0 1 0.75572 0.75582 0.75581 0.75581 0 0 1-0.75572 0.75582 0.75581 0.75581 0 0 1-0.75582-0.75582 0.75581 0.75581 0 0 1 0.75582-0.75582zm3.9322 0a0.75581 0.75581 0 0 1 0.75582 0.75582 0.75581 0.75581 0 0 1-0.75582 0.75582 0.75581 0.75581 0 0 1-0.75582-0.75582 0.75581 0.75581 0 0 1 0.75582-0.75582zm3.9322 0a0.75581 0.75581 0 0 1 0.75582 0.75582 0.75581 0.75581 0 0 1-0.75582 0.75582 0.75581 0.75581 0 0 1-0.75582-0.75582 0.75581 0.75581 0 0 1 0.75582-0.75582zm-9.8092 2.5885a0.75581 0.75581 0 0 1 0.75582 0.75582 0.75581 0.75581 0 0 1-0.75582 0.75582 0.75581 0.75581 0 0 1-0.75582-0.75582 0.75581 0.75581 0 0 1 0.75582-0.75582zm3.922 0a0.75581 0.75581 0 0 1 0.75582 0.75582 0.75581 0.75581 0 0 1-0.75582 0.75582 0.75581 0.75581 0 0 1-0.75582-0.75582 0.75581 0.75581 0 0 1 0.75582-0.75582zm3.922 0a0.75581 0.75581 0 0 1 0.75582 0.75582 0.75581 0.75581 0 0 1-0.75582 0.75582 0.75581 0.75581 0 0 1-0.75582-0.75582 0.75581 0.75581 0 0 1 0.75582-0.75582zm1.9151 3.2563c-2.3077 0-4.1655 1.8578-4.1655 4.1655v0.08049h8.331v-0.08049c0-2.3077-1.8578-4.1655-4.1655-4.1655zm0 1.956c0.39695 0 0.71654 0.31959 0.71654 0.71654v0.43425c0 0.39695-0.31959 0.71654-0.71654 0.71654-0.39695 0-0.71654-0.31959-0.71654-0.71654v-0.43425c0-0.39695 0.31959-0.71654 0.71654-0.71654zm-4.1655 4.0002v1.9724c0 2.3077 1.8578 4.1655 4.1655 4.1655s4.1655-1.8578 4.1655-4.1655v-1.9724z" fill="#1d0047" fill-opacity=".028682"/>
  <path id="path2865" d="m10.14 9.9382c-1.2473 0-2.2514 1.0042-2.2514 2.2514v7.8649c0 1.2473 1.0042 2.2513 2.2514 2.2513h7.4878c0.08495-1.0568 0.47764-2.0299 1.0869-2.8303h-3.4785c-0.42587 0-0.76871-0.34284-0.76871-0.76871s0.34284-0.76871 0.76871-0.76871h3.8825c0.31205 0 0.57808 0.185 0.6988 0.45093 0.89708-0.66269 2.0033-1.0564 3.198-1.0564 1.2717 0 2.4436 0.44586 3.3695 1.1876v-6.3307c0-1.2473-1.0042-2.2514-2.2514-2.2514zm1.129 2.7909a0.75581 0.75581 0 0 1 0.75582 0.75582 0.75581 0.75581 0 0 1-0.75582 0.75582 0.75581 0.75581 0 0 1-0.75582-0.75582 0.75581 0.75581 0 0 1 0.75582-0.75582zm3.9323 0a0.75581 0.75581 0 0 1 0.75572 0.75582 0.75581 0.75581 0 0 1-0.75572 0.75582 0.75581 0.75581 0 0 1-0.75582-0.75582 0.75581 0.75581 0 0 1 0.75582-0.75582zm3.9322 0a0.75581 0.75581 0 0 1 0.75582 0.75582 0.75581 0.75581 0 0 1-0.75582 0.75582 0.75581 0.75581 0 0 1-0.75582-0.75582 0.75581 0.75581 0 0 1 0.75582-0.75582zm3.9322 0a0.75581 0.75581 0 0 1 0.75582 0.75582 0.75581 0.75581 0 0 1-0.75582 0.75582 0.75581 0.75581 0 0 1-0.75582-0.75582 0.75581 0.75581 0 0 1 0.75582-0.75582zm-9.8092 2.5885a0.75581 0.75581 0 0 1 0.75582 0.75582 0.75581 0.75581 0 0 1-0.75582 0.75582 0.75581 0.75581 0 0 1-0.75582-0.75582 0.75581 0.75581 0 0 1 0.75582-0.75582zm3.922 0a0.75581 0.75581 0 0 1 0.75582 0.75582 0.75581 0.75581 0 0 1-0.75582 0.75582 0.75581 0.75581 0 0 1-0.75582-0.75582 0.75581 0.75581 0 0 1 0.75582-0.75582zm3.922 0a0.75581 0.75581 0 0 1 0.75582 0.75582 0.75581 0.75581 0 0 1-0.75582 0.75582 0.75581 0.75581 0 0 1-0.75582-0.75582 0.75581 0.75581 0 0 1 0.75582-0.75582zm1.9151 3.2563c-2.3077 0-4.1655 1.8578-4.1655 4.1655v0.08049h8.331v-0.08049c0-2.3077-1.8578-4.1655-4.1655-4.1655zm0 1.956c0.39695 0 0.71654 0.31959 0.71654 0.71654v0.43425c0 0.39695-0.31959 0.71654-0.71654 0.71654-0.39695 0-0.71654-0.31959-0.71654-0.71654v-0.43425c0-0.39695 0.31959-0.71654 0.71654-0.71654zm-4.1655 4.0002v1.9724c0 2.3077 1.8578 4.1655 4.1655 4.1655s4.1655-1.8578 4.1655-4.1655v-1.9724z" fill="#1d0047" fill-opacity=".028682"/>
  <path id="rect856" d="m9.7762 9.0283c-1.2473 0-2.2514 1.0042-2.2514 2.2514v7.8649c0 1.2473 1.0042 2.2513 2.2514 2.2513h7.4878c0.08495-1.0568 0.47764-2.0299 1.0869-2.8303h-3.4785c-0.42587 0-0.76871-0.34284-0.76871-0.76871s0.34284-0.76871 0.76871-0.76871h3.8825c0.31205 0 0.57808 0.185 0.6988 0.45093 0.89708-0.66269 2.0033-1.0564 3.198-1.0564 1.2717 0 2.4436 0.44586 3.3695 1.1876v-6.3307c0-1.2473-1.0042-2.2514-2.2514-2.2514zm1.129 2.7909a0.75581 0.75581 0 0 1 0.75582 0.75582 0.75581 0.75581 0 0 1-0.75582 0.75582 0.75581 0.75581 0 0 1-0.75582-0.75582 0.75581 0.75581 0 0 1 0.75582-0.75582zm3.9323 0a0.75581 0.75581 0 0 1 0.75572 0.75582 0.75581 0.75581 0 0 1-0.75572 0.75582 0.75581 0.75581 0 0 1-0.75582-0.75582 0.75581 0.75581 0 0 1 0.75582-0.75582zm3.9322 0a0.75581 0.75581 0 0 1 0.75582 0.75582 0.75581 0.75581 0 0 1-0.75582 0.75582 0.75581 0.75581 0 0 1-0.75582-0.75582 0.75581 0.75581 0 0 1 0.75582-0.75582zm3.9322 0a0.75581 0.75581 0 0 1 0.75582 0.75582 0.75581 0.75581 0 0 1-0.75582 0.75582 0.75581 0.75581 0 0 1-0.75582-0.75582 0.75581 0.75581 0 0 1 0.75582-0.75582zm-9.8092 2.5885a0.75581 0.75581 0 0 1 0.75582 0.75582 0.75581 0.75581 0 0 1-0.75582 0.75582 0.75581 0.75581 0 0 1-0.75582-0.75582 0.75581 0.75581 0 0 1 0.75582-0.75582zm3.922 0a0.75581 0.75581 0 0 1 0.75582 0.75582 0.75581 0.75581 0 0 1-0.75582 0.75582 0.75581 0.75581 0 0 1-0.75582-0.75582 0.75581 0.75581 0 0 1 0.75582-0.75582zm3.922 0a0.75581 0.75581 0 0 1 0.75582 0.75582 0.75581 0.75581 0 0 1-0.75582 0.75582 0.75581 0.75581 0 0 1-0.75582-0.75582 0.75581 0.75581 0 0 1 0.75582-0.75582zm1.9151 3.2563c-2.3077 0-4.1655 1.8578-4.1655 4.1655v0.08049h8.331v-0.08049c0-2.3077-1.8578-4.1655-4.1655-4.1655zm0 1.956c0.39695 0 0.71654 0.31959 0.71654 0.71654v0.43425c0 0.39695-0.31959 0.71654-0.71654 0.71654-0.39695 0-0.71654-0.31959-0.71654-0.71654v-0.43425c0-0.39695 0.31959-0.71654 0.71654-0.71654zm-4.1655 4.0002v1.9724c0 2.3077 1.8578 4.1655 4.1655 4.1655s4.1655-1.8578 4.1655-4.1655v-1.9724z" fill="url(#linearGradient1183)"/>
 </g>
</svg>
