<?xml version="1.0" encoding="UTF-8"?>
<svg id="svg1443" width="128" height="128" version="1.1" viewBox="0 0 33.867 33.867" xmlns="http://www.w3.org/2000/svg" xmlns:cc="http://creativecommons.org/ns#" xmlns:dc="http://purl.org/dc/elements/1.1/" xmlns:rdf="http://www.w3.org/1999/02/22-rdf-syntax-ns#" xmlns:xlink="http://www.w3.org/1999/xlink">
 <defs id="defs1437">
  <linearGradient id="linearGradient1632" x1="132.21" x2="132.21" y1="42.152" y2="70.68" gradientTransform="matrix(.97573 0 0 .97573 -111.77 -37.183)" gradientUnits="userSpaceOnUse">
   <stop id="stop1626" stop-color="#282635" offset="0"/>
   <stop id="stop1628" stop-color="#1e2429" offset="1"/>
  </linearGradient>
 </defs>
 <metadata id="metadata1440">
  <rdf:RDF>
   <cc:Work rdf:about="">
    <dc:format>image/svg+xml</dc:format>
    <dc:type rdf:resource="http://purl.org/dc/dcmitype/StillImage"/>
   </cc:Work>
  </rdf:RDF>
 </metadata>
 <g id="layer1">
  <g id="g1702" transform="matrix(.97573 0 0 .97573 -65.737 -37.183)" fill="none" opacity=".295" stroke="#000" stroke-linecap="round" stroke-linejoin="round" stroke-opacity=".02">
   <rect id="rect1634" x="69.84" y="40.71" width="29.811" height="29.811" rx="6.6099" ry="6.6099" stroke-width=".1"/>
   <rect id="rect1638" x="69.84" y="40.71" width="29.811" height="29.811" rx="6.6099" ry="6.6099" stroke-width=".2"/>
   <rect id="rect1640" x="69.84" y="40.71" width="29.811" height="29.811" rx="6.6099" ry="6.6099" stroke-width=".3"/>
   <rect id="rect1642" x="69.84" y="40.71" width="29.811" height="29.811" rx="6.6099" ry="6.6099" stroke-width=".4"/>
   <rect id="rect1644" x="69.84" y="40.71" width="29.811" height="29.811" rx="6.6099" ry="6.6099" stroke-width=".5"/>
   <rect id="rect1646" x="69.84" y="40.71" width="29.811" height="29.811" rx="6.6099" ry="6.6099" stroke-width=".6"/>
   <rect id="rect1648" x="69.84" y="40.71" width="29.811" height="29.811" rx="6.6099" ry="6.6099" stroke-width=".7"/>
   <rect id="rect1650" x="69.84" y="40.71" width="29.811" height="29.811" rx="6.6099" ry="6.6099" stroke-width=".8"/>
   <rect id="rect1652" x="69.84" y="40.71" width="29.811" height="29.811" rx="6.6099" ry="6.6099"/>
   <rect id="rect1654" x="69.84" y="40.71" width="29.811" height="29.811" rx="6.6099" ry="6.6099" stroke-width="1.2"/>
   <rect id="rect1656" x="69.84" y="40.71" width="29.811" height="29.811" rx="6.6099" ry="6.6099" stroke-width="1.4"/>
   <rect id="rect1658" x="69.84" y="40.71" width="29.811" height="29.811" rx="6.6099" ry="6.6099" stroke-width="1.6"/>
   <rect id="rect1660" x="69.84" y="40.71" width="29.811" height="29.811" rx="6.6099" ry="6.6099" stroke-width="1.8"/>
   <rect id="rect1662" x="69.84" y="40.71" width="29.811" height="29.811" rx="6.6099" ry="6.6099" stroke-width="2"/>
   <rect id="rect1664" x="69.84" y="40.71" width="29.811" height="29.811" rx="6.6099" ry="6.6099" stroke-width="2.2"/>
   <rect id="rect1666" x="69.84" y="40.71" width="29.811" height="29.811" rx="6.6099" ry="6.6099" stroke-width="2.6"/>
   <rect id="rect1668" x="69.84" y="40.71" width="29.811" height="29.811" rx="6.6099" ry="6.6099" stroke-width="3"/>
   <rect id="rect1670" x="69.84" y="40.71" width="29.811" height="29.811" rx="6.6099" ry="6.6099" stroke-width="3.4"/>
   <rect id="rect1672" x="69.84" y="40.71" width="29.811" height="29.811" rx="6.6099" ry="6.6099" stroke-width="3.8"/>
   <rect id="rect1674" x="69.84" y="40.71" width="29.811" height="29.811" rx="6.6099" ry="6.6099" stroke-width="4.2"/>
   <rect id="rect1676" x="69.84" y="40.71" width="29.811" height="29.811" rx="6.6099" ry="6.6099" stroke-width="4.6"/>
   <rect id="rect1678" x="69.84" y="40.71" width="29.811" height="29.811" rx="6.6099" ry="6.6099" stroke-width="5"/>
  </g>
  <rect id="rect849" x="2.4074" y="2.5392" width="29.087" height="29.087" rx="6.4495" ry="6.4495" fill="url(#linearGradient1632)" stroke-linecap="round" stroke-linejoin="round" stroke-width="2.6877"/>
  <g id="g957" transform="matrix(1.1998 0 0 1.2471 37.573 -.070544)" stroke-width=".37756">
   <path id="path2-3" d="m-17.152 3.7842v0.00103a2.3942 2.4039 0 0 0-1.2536 0.32004l-7.0444 4.0841a2.3942 2.4039 0 0 0-1.1973 2.0823v8.1682a2.3942 2.4039 0 0 0 1.1973 2.0813l7.0444 4.0841a2.3942 2.4039 0 0 0 2.3946 0l7.0444-4.0841a2.3942 2.4039 0 0 0 1.1973-2.0813v-8.1682a2.3942 2.4039 0 0 0-1.1973-2.0823l-7.0444-4.0841a2.3942 2.4039 0 0 0-1.141-0.32107z" opacity=".2"/>
   <path id="path4-6" d="m-17.23 3.8295v9.961e-4a2.2984 2.3078 0 0 0-1.2035 0.30723l-6.7627 3.9208a2.2984 2.3078 0 0 0-1.1494 1.999v7.8415a2.2984 2.3078 0 0 0 1.1494 1.998l6.7627 3.9208a2.2984 2.3078 0 0 0 2.2988 0l6.7627-3.9208a2.2984 2.3078 0 0 0 1.1494-1.998v-7.8415a2.2984 2.3078 0 0 0-1.1494-1.999l-6.7627-3.9208a2.2984 2.3078 0 0 0-1.0953-0.30823z" fill="#23252f"/>
   <path id="path6" d="m-17.152 3.4066v0.00147c-0.30168-0.00678-0.60192 0.043757-0.88491 0.14896l-0.30382 0.17551-6.041 3.488v2.6164l7.1736-4.1414 2.3008-1.3274-1.1032-0.64008c-0.24348-0.1399-0.50956-0.23575-0.78609-0.28317-0.01717-0.00314-0.03438-0.00609-0.05162-0.00885-0.05384-0.00825-0.10795-0.014637-0.16223-0.019173-0.04611-0.00479-0.09234-0.00823-0.13863-0.010317z" fill="#f1d41a"/>
   <path id="path8" d="m-24.382 7.1925-1.0678 0.61943c-0.74114 0.42941-1.1977 1.2233-1.1976 2.0825v6.917l2.2654 1.3082v-8.2827z" fill="#aed447"/>
   <path id="path10" d="m-10.035 9.8369v10.926l1.0678-0.61944c0.74068-0.42914 1.1972-1.2224 1.1976-2.081v-6.917z" fill="#d25e91"/>
   <path id="path12" d="m-10.035 18.12-7.1736 4.1414-2.3008 1.3274 1.1032 0.64008c0.6166 0.35654 1.3592 0.41924 2.0264 0.17108l0.30382-0.17551 6.041-3.4865z" fill="#7acdcb"/>
   <path id="path14" d="m-14.941 4.3874-2.2668 1.3082 9.439 5.4495v-1.2507c-6.421e-4 -0.75114-0.35093-1.4588-0.94685-1.9129z" fill="#ec8239"/>
   <path id="path16" d="m-26.647 16.811v1.2507c9.06e-4 0.75477 0.3548 1.4653 0.9557 1.9188l0.17698 0.10176 6.038 3.4865 2.2683-1.3082-7.1736-4.1414z" fill="#5e8a93"/>
   <path id="path18-7" d="m-17.152 3.4066v0.00147a2.3942 2.4039 0 0 0-1.2536 0.32004l-7.0439 4.0838a2.3942 2.4039 0 0 0-1.1976 2.0825v0.37756a2.3942 2.4039 0 0 1 1.1976-2.0825l7.0439-4.0838a2.3942 2.4039 0 0 1 1.2536-0.32004v-0.00143a2.3942 2.4039 0 0 1 1.1415 0.32152l7.0439 4.0838a2.3942 2.4039 0 0 1 1.1976 2.0825v-0.3776a2.3942 2.4039 0 0 0-1.1976-2.0825l-7.0439-4.0838a2.3942 2.4039 0 0 0-1.1415-0.32152z" fill="#fff" opacity=".2"/>
   <path id="path20-5" d="m-17.208 7.5598a1.1327 1.1327 0 0 0-1.1327 1.1327 1.1327 1.1327 0 0 0 1.1327 1.1327 1.1327 1.1327 0 0 0 1.1327-1.1327 1.1327 1.1327 0 0 0-1.1327-1.1327zm-1.5102 3.0205a1.1327 1.1327 0 0 0-1.1327 1.1327 1.1327 1.1327 0 0 0 1.1327 1.1327 1.1327 1.1327 0 0 0 1.1327-1.1327 1.1327 1.1327 0 0 0-1.1327-1.1327zm3.0205 0a1.1327 1.1327 0 0 0-1.1327 1.1327 1.1327 1.1327 0 0 0 1.1327 1.1327 1.1327 1.1327 0 0 0 1.1327-1.1327 1.1327 1.1327 0 0 0-1.1327-1.1327zm-4.5307 3.0205a1.1327 1.1327 0 0 0-1.1327 1.1327 1.1327 1.1327 0 0 0 1.1327 1.1327 1.1327 1.1327 0 0 0 1.1327-1.1327 1.1327 1.1327 0 0 0-1.1327-1.1327zm3.0205 0a1.1327 1.1327 0 0 0-1.1327 1.1327 1.1327 1.1327 0 0 0 1.1327 1.1327 1.1327 1.1327 0 0 0 1.1327-1.1327 1.1327 1.1327 0 0 0-1.1327-1.1327zm3.0205 0a1.1327 1.1327 0 0 0-1.1327 1.1327 1.1327 1.1327 0 0 0 1.1327 1.1327 1.1327 1.1327 0 0 0 1.1327-1.1327 1.1327 1.1327 0 0 0-1.1327-1.1327zm-7.5512 3.0205a1.1327 1.1327 0 0 0-1.1327 1.1327 1.1327 1.1327 0 0 0 1.1327 1.1327 1.1327 1.1327 0 0 0 1.1327-1.1327 1.1327 1.1327 0 0 0-1.1327-1.1327zm3.0205 0a1.1327 1.1327 0 0 0-1.1327 1.1327 1.1327 1.1327 0 0 0 1.1327 1.1327 1.1327 1.1327 0 0 0 1.1327-1.1327 1.1327 1.1327 0 0 0-1.1327-1.1327zm3.0205 0a1.1327 1.1327 0 0 0-1.1327 1.1327 1.1327 1.1327 0 0 0 1.1327 1.1327 1.1327 1.1327 0 0 0 1.1327-1.1327 1.1327 1.1327 0 0 0-1.1327-1.1327zm3.0205 0a1.1327 1.1327 0 0 0-1.1327 1.1327 1.1327 1.1327 0 0 0 1.1327 1.1327 1.1327 1.1327 0 0 0 1.1327-1.1327 1.1327 1.1327 0 0 0-1.1327-1.1327z" opacity=".2"/>
   <circle id="circle22" cx="-21.739" cy="17.376" r="1.1327" fill="#fff"/>
   <circle id="circle24" cx="-18.719" cy="17.376" r="1.1327" fill="#fff"/>
   <circle id="circle26" cx="-15.698" cy="17.376" r="1.1327" fill="#fff"/>
   <circle id="circle28" cx="-12.678" cy="17.376" r="1.1327" fill="#fff"/>
   <circle id="circle30" cx="-20.229" cy="14.356" r="1.1327" fill="#fff"/>
   <circle id="circle32" cx="-17.208" cy="14.356" r="1.1327" fill="#fff"/>
   <circle id="circle34" cx="-14.188" cy="14.356" r="1.1327" fill="#fff"/>
   <circle id="circle36" cx="-18.719" cy="11.335" r="1.1327" fill="#fff"/>
   <circle id="circle38" cx="-15.698" cy="11.335" r="1.1327" fill="#fff"/>
   <circle id="circle40" cx="-17.208" cy="8.3149" r="1.1327" fill="#fff"/>
  </g>
 </g>
</svg>
