<?xml version="1.0" encoding="UTF-8"?>
<svg id="svg6" width="128" height="128" version="1.1" viewBox="0 0 33.867 33.867" xmlns="http://www.w3.org/2000/svg" xmlns:xlink="http://www.w3.org/1999/xlink">
 <defs id="defs2">
  <linearGradient id="linearGradient1484" x1="31.484" x2="31.484" y1="138.91" y2="11.969" gradientUnits="userSpaceOnUse">
   <stop id="stop1478" stop-color="#55b484" offset="0"/>
   <stop id="stop1480" stop-color="#55b484" stop-opacity="0" offset="1"/>
  </linearGradient>
 </defs>
 <g id="layer1">
  <g id="g1702" transform="translate(-65.748 -37.203) scale(.97573)" fill="none" opacity=".295" stroke="#000" stroke-linecap="round" stroke-linejoin="round" stroke-opacity=".02">
   <rect id="rect1634" x="69.84" y="40.71" width="29.811" height="29.811" rx="6.61" ry="6.61" stroke-width=".1"/>
   <rect id="rect1638" x="69.84" y="40.71" width="29.811" height="29.811" rx="6.61" ry="6.61" stroke-width=".2"/>
   <rect id="rect1640" x="69.84" y="40.71" width="29.811" height="29.811" rx="6.61" ry="6.61" stroke-width=".3"/>
   <rect id="rect1642" x="69.84" y="40.71" width="29.811" height="29.811" rx="6.61" ry="6.61" stroke-width=".4"/>
   <rect id="rect1644" x="69.84" y="40.71" width="29.811" height="29.811" rx="6.61" ry="6.61" stroke-width=".5"/>
   <rect id="rect1646" x="69.84" y="40.71" width="29.811" height="29.811" rx="6.61" ry="6.61" stroke-width=".6"/>
   <rect id="rect1648" x="69.84" y="40.71" width="29.811" height="29.811" rx="6.61" ry="6.61" stroke-width=".7"/>
   <rect id="rect1650" x="69.84" y="40.71" width="29.811" height="29.811" rx="6.61" ry="6.61" stroke-width=".8"/>
   <rect id="rect1652" x="69.84" y="40.71" width="29.811" height="29.811" rx="6.61" ry="6.61"/>
   <rect id="rect1654" x="69.84" y="40.71" width="29.811" height="29.811" rx="6.61" ry="6.61" stroke-width="1.2"/>
   <rect id="rect1656" x="69.84" y="40.71" width="29.811" height="29.811" rx="6.61" ry="6.61" stroke-width="1.4"/>
   <rect id="rect1658" x="69.84" y="40.71" width="29.811" height="29.811" rx="6.61" ry="6.61" stroke-width="1.6"/>
   <rect id="rect1660" x="69.84" y="40.71" width="29.811" height="29.811" rx="6.61" ry="6.61" stroke-width="1.8"/>
   <rect id="rect1662" x="69.84" y="40.71" width="29.811" height="29.811" rx="6.61" ry="6.61" stroke-width="2"/>
   <rect id="rect1664" x="69.84" y="40.71" width="29.811" height="29.811" rx="6.61" ry="6.61" stroke-width="2.2"/>
   <rect id="rect1666" x="69.84" y="40.71" width="29.811" height="29.811" rx="6.61" ry="6.61" stroke-width="2.6"/>
   <rect id="rect1668" x="69.84" y="40.71" width="29.811" height="29.811" rx="6.61" ry="6.61" stroke-width="3"/>
   <rect id="rect1670" x="69.84" y="40.71" width="29.811" height="29.811" rx="6.61" ry="6.61" stroke-width="3.4"/>
   <rect id="rect1672" x="69.84" y="40.71" width="29.811" height="29.811" rx="6.61" ry="6.61" stroke-width="3.8"/>
   <rect id="rect1674" x="69.84" y="40.71" width="29.811" height="29.811" rx="6.61" ry="6.61" stroke-width="4.2"/>
   <rect id="rect1676" x="69.84" y="40.71" width="29.811" height="29.811" rx="6.61" ry="6.61" stroke-width="4.6"/>
   <rect id="rect1678" x="69.84" y="40.71" width="29.811" height="29.811" rx="6.61" ry="6.61" stroke-width="5"/>
  </g>
  <rect id="rect849" x="2.396" y="2.519" width="29.087" height="29.087" rx="6.449" ry="6.449" fill="#f4f2f2" stroke-linecap="round" stroke-linejoin="round" stroke-width="2.688"/>
  <g id="g1561" transform="translate(0 7.724)">
   <path id="path1557" d="M-.054 15.686h42.007" fill="none" stroke-width=".5"/>
  </g>
  <rect id="rect1368" x="2.396" y="2.519" width="29.087" height="29.087" rx="6.449" ry="6.449" fill="url(#linearGradient1484)" opacity=".55549" stroke-linecap="round" stroke-linejoin="round" stroke-width="2.688"/>
  <path id="path9" transform="scale(.26458)" d="M43.361 81.305c-.442.1-6.287 5.85-6.287 6.181 0 .156 4.878 5.147 10.842 11.09 9.735 9.705 10.987 10.88 12.272 11.496 1.214.584 2.81 1.003 4.183 1.104.181.012.973-.076 1.76-.2 2.82-.444 3.825-1.136 8.863-6.124 2.512-2.487 4.565-4.619 4.565-4.737 0-.352-6.003-6.302-6.358-6.302-.18 0-2.13 1.792-4.332 3.982-2.441 2.431-4.14 3.955-4.35 3.91-.188-.043-4.958-4.667-10.597-10.273-5.64-5.61-10.392-10.165-10.56-10.127z" fill="#0e020e" stroke-width="2.5142"/>
  <path id="path11" d="M22.811 24.66c.307-.348.543-1.22.476-1.757-.05-.401-.21-.88-.379-1.127-.07-.103-2.272-2.337-4.895-4.965-2.622-2.627-4.767-4.815-4.767-4.863 0-.113 3.73-3.844 3.843-3.844.112 0 3.845 3.729 3.845 3.841 0 .046-.472.558-1.049 1.138-.576.58-1.048 1.093-1.048 1.142 0 .048.355.44.789.87l.788.78 1.138-1.133c.626-.624 1.216-1.245 1.312-1.382.37-.528.514-1.264.378-1.918-.164-.79-.219-.858-2.503-3.145-1.922-1.925-2.14-2.125-2.498-2.292-.792-.368-1.51-.368-2.302 0-.358.167-.579.369-2.501 2.292-1.916 1.915-2.125 2.143-2.29 2.497-.248.533-.323 1.023-.236 1.544.148.872-.116.578 6.09 6.78 3.108 3.104 5.666 5.645 5.685 5.645.019 0 .075-.046.124-.102z" fill="#4fbd34" stroke-width=".66522"/>
 </g>
 <style id="style15307">.B{clip-path:url(#C)}.C{fill:#3e2723}.D{fill-opacity:.15}.E{fill-opacity:.2}</style>
</svg>
