<?xml version="1.0" encoding="UTF-8"?>
<svg id="svg1443" width="128" height="128" version="1.1" viewBox="0 0 33.867 33.867" xmlns="http://www.w3.org/2000/svg" xmlns:cc="http://creativecommons.org/ns#" xmlns:dc="http://purl.org/dc/elements/1.1/" xmlns:rdf="http://www.w3.org/1999/02/22-rdf-syntax-ns#" xmlns:xlink="http://www.w3.org/1999/xlink">
 <defs id="defs1437">
  <radialGradient id="radialGradient963" cx="16.951" cy="2.5104" r="14.544" gradientTransform="matrix(7.1386 0 0 2.2345 -104.06 -3.0991)" gradientUnits="userSpaceOnUse">
   <stop id="stop957" stop-color="#ff9c38" offset="0"/>
   <stop id="stop959" stop-color="#ea3d1c" stop-opacity=".96863" offset="1"/>
  </radialGradient>
  <linearGradient id="linearGradient1273" x1="9.8202" x2="9.8202" y1="9.3104" y2="58.342" gradientUnits="userSpaceOnUse">
   <stop id="stop1267" stop-color="#feffff" offset="0"/>
   <stop id="stop1269" stop-color="#f05824" stop-opacity=".97647" offset="1"/>
  </linearGradient>
 </defs>
 <metadata id="metadata1440">
  <rdf:RDF>
   <cc:Work rdf:about="">
    <dc:format>image/svg+xml</dc:format>
    <dc:type rdf:resource="http://purl.org/dc/dcmitype/StillImage"/>
   </cc:Work>
  </rdf:RDF>
 </metadata>
 <g id="layer1">
  <g id="g1702" transform="matrix(.97573 0 0 .97573 -65.737 -37.183)" fill="none" opacity=".295" stroke="#000" stroke-linecap="round" stroke-linejoin="round" stroke-opacity=".02">
   <rect id="rect1634" x="69.84" y="40.71" width="29.811" height="29.811" rx="6.6099" ry="6.6099" stroke-width=".1"/>
   <rect id="rect1638" x="69.84" y="40.71" width="29.811" height="29.811" rx="6.6099" ry="6.6099" stroke-width=".2"/>
   <rect id="rect1640" x="69.84" y="40.71" width="29.811" height="29.811" rx="6.6099" ry="6.6099" stroke-width=".3"/>
   <rect id="rect1642" x="69.84" y="40.71" width="29.811" height="29.811" rx="6.6099" ry="6.6099" stroke-width=".4"/>
   <rect id="rect1644" x="69.84" y="40.71" width="29.811" height="29.811" rx="6.6099" ry="6.6099" stroke-width=".5"/>
   <rect id="rect1646" x="69.84" y="40.71" width="29.811" height="29.811" rx="6.6099" ry="6.6099" stroke-width=".6"/>
   <rect id="rect1648" x="69.84" y="40.71" width="29.811" height="29.811" rx="6.6099" ry="6.6099" stroke-width=".7"/>
   <rect id="rect1650" x="69.84" y="40.71" width="29.811" height="29.811" rx="6.6099" ry="6.6099" stroke-width=".8"/>
   <rect id="rect1652" x="69.84" y="40.71" width="29.811" height="29.811" rx="6.6099" ry="6.6099"/>
   <rect id="rect1654" x="69.84" y="40.71" width="29.811" height="29.811" rx="6.6099" ry="6.6099" stroke-width="1.2"/>
   <rect id="rect1656" x="69.84" y="40.71" width="29.811" height="29.811" rx="6.6099" ry="6.6099" stroke-width="1.4"/>
   <rect id="rect1658" x="69.84" y="40.71" width="29.811" height="29.811" rx="6.6099" ry="6.6099" stroke-width="1.6"/>
   <rect id="rect1660" x="69.84" y="40.71" width="29.811" height="29.811" rx="6.6099" ry="6.6099" stroke-width="1.8"/>
   <rect id="rect1662" x="69.84" y="40.71" width="29.811" height="29.811" rx="6.6099" ry="6.6099" stroke-width="2"/>
   <rect id="rect1664" x="69.84" y="40.71" width="29.811" height="29.811" rx="6.6099" ry="6.6099" stroke-width="2.2"/>
   <rect id="rect1666" x="69.84" y="40.71" width="29.811" height="29.811" rx="6.6099" ry="6.6099" stroke-width="2.6"/>
   <rect id="rect1668" x="69.84" y="40.71" width="29.811" height="29.811" rx="6.6099" ry="6.6099" stroke-width="3"/>
   <rect id="rect1670" x="69.84" y="40.71" width="29.811" height="29.811" rx="6.6099" ry="6.6099" stroke-width="3.4"/>
   <rect id="rect1672" x="69.84" y="40.71" width="29.811" height="29.811" rx="6.6099" ry="6.6099" stroke-width="3.8"/>
   <rect id="rect1674" x="69.84" y="40.71" width="29.811" height="29.811" rx="6.6099" ry="6.6099" stroke-width="4.2"/>
   <rect id="rect1676" x="69.84" y="40.71" width="29.811" height="29.811" rx="6.6099" ry="6.6099" stroke-width="4.6"/>
   <rect id="rect1678" x="69.84" y="40.71" width="29.811" height="29.811" rx="6.6099" ry="6.6099" stroke-width="5"/>
  </g>
  <rect id="rect849" x="2.4074" y="2.5392" width="29.087" height="29.087" rx="6.4495" ry="6.4495" fill="url(#radialGradient963)" stroke-linecap="round" stroke-linejoin="round" stroke-width="2.6877"/>
  <g id="g2969" fill="#390d24" fill-opacity=".026919" stroke-width=".93597">
   <path id="path2797" d="m10.156 26.471h4.6798v-2.8079h2.8079v-2.8079h4.6798l0.93597-4.6798h-4.6798v-2.8079h5.6158l1.8719-4.6798h-11.232v2.8079h-2.8079z"/>
   <path id="path2953" d="m10.383 26.694h4.6798v-2.8079h2.8079v-2.8079h4.6798l0.93597-4.6798h-4.6798v-2.8079h5.6158l1.8719-4.6798h-11.232v2.8079h-2.8079z"/>
   <path id="path2955" d="m10.546 26.861h4.6798v-2.8079h2.8079v-2.8079h4.6798l0.93597-4.6798h-4.6798v-2.8079h5.6158l1.8719-4.6798h-11.232v2.8079h-2.8079z"/>
   <path id="path2957" d="m10.694 27.018h4.6798v-2.8079h2.8079v-2.8079h4.6798l0.93597-4.6798h-4.6798v-2.8079h5.6158l1.8719-4.6798h-11.232v2.8079h-2.8079z"/>
   <path id="path2959" d="m10.825 27.16h4.6798v-2.8079h2.8079v-2.8079h4.6798l0.93597-4.6798h-4.6798v-2.8079h5.6158l1.8719-4.6798h-11.232v2.8079h-2.8079z"/>
   <path id="path2961" d="m10.929 27.257h4.6798v-2.8079h2.8079v-2.8079h4.6798l0.93597-4.6798h-4.6798v-2.8079h5.6158l1.8719-4.6798h-11.232v2.8079h-2.8079z"/>
  </g>
  <path id="path8" d="m9.8202 26.12h4.6798v-2.8079h2.8079v-2.8079h4.6798l0.93597-4.6798h-4.6798v-2.8079h5.6158l1.8719-4.6798h-11.232v2.8079h-2.8079z" fill="url(#linearGradient1273)" stroke-width=".93597"/>
 </g>
</svg>
