<?xml version="1.0" encoding="UTF-8"?>
<svg id="svg1559" width="128" height="128" version="1.1" viewBox="0 0 33.867 33.867" xmlns="http://www.w3.org/2000/svg" xmlns:cc="http://creativecommons.org/ns#" xmlns:dc="http://purl.org/dc/elements/1.1/" xmlns:rdf="http://www.w3.org/1999/02/22-rdf-syntax-ns#" xmlns:xlink="http://www.w3.org/1999/xlink">
 <defs id="defs1553">
  <radialGradient id="radialGradient1506" cx="17.081" cy="3.8306" r="14.544" gradientTransform="matrix(1.7356 0 0 1.4452 -12.482 -1.6932)" gradientUnits="userSpaceOnUse">
   <stop id="stop4671" stop-color="#f7f7f7" offset="0"/>
   <stop id="stop4673" stop-color="#e8e9ea" offset="1"/>
  </radialGradient>
  <linearGradient id="linearGradient1644" x1="11.984" x2="21.047" y1="12.321" y2="21.383" gradientTransform="translate(.50669 .22249)" gradientUnits="userSpaceOnUse">
   <stop id="stop1524" stop-color="#ffb551" offset="0"/>
   <stop id="stop1526" stop-color="#ffd374" stop-opacity=".91364" offset="1"/>
  </linearGradient>
  <linearGradient id="linearGradient1634" x1="11.984" x2="21.047" y1="12.321" y2="21.383" gradientTransform="translate(-29.884 -.73533)" gradientUnits="userSpaceOnUse">
   <stop id="stop2348" stop-color="#ffa935" offset="0"/>
   <stop id="stop2350" stop-color="#ffd986" stop-opacity=".91373" offset="1"/>
  </linearGradient>
  <linearGradient id="linearGradient1636" x1="16.262" x2="9.7994" y1="18.568" y2="8.8135" gradientTransform="translate(-29.884 -.73533)" gradientUnits="userSpaceOnUse">
   <stop id="stop1516" stop-color="#237df5" offset="0"/>
   <stop id="stop1518" stop-color="#32bfe6" stop-opacity=".91765" offset="1"/>
  </linearGradient>
 </defs>
 <metadata id="metadata1556">
  <rdf:RDF>
   <cc:Work rdf:about="">
    <dc:format>image/svg+xml</dc:format>
    <dc:type rdf:resource="http://purl.org/dc/dcmitype/StillImage"/>
    <dc:title/>
   </cc:Work>
  </rdf:RDF>
 </metadata>
 <g id="layer1">
  <g id="g1702" transform="matrix(.97573 0 0 .97573 -65.666 -37.191)" fill="none" opacity=".295" stroke="#000" stroke-linecap="round" stroke-linejoin="round" stroke-opacity=".02">
   <rect id="rect1634" x="69.84" y="40.71" width="29.811" height="29.811" rx="6.6099" ry="6.6099" stroke-width=".1"/>
   <rect id="rect1638" x="69.84" y="40.71" width="29.811" height="29.811" rx="6.6099" ry="6.6099" stroke-width=".2"/>
   <rect id="rect1640" x="69.84" y="40.71" width="29.811" height="29.811" rx="6.6099" ry="6.6099" stroke-width=".3"/>
   <rect id="rect1642" x="69.84" y="40.71" width="29.811" height="29.811" rx="6.6099" ry="6.6099" stroke-width=".4"/>
   <rect id="rect1644" x="69.84" y="40.71" width="29.811" height="29.811" rx="6.6099" ry="6.6099" stroke-width=".5"/>
   <rect id="rect1646" x="69.84" y="40.71" width="29.811" height="29.811" rx="6.6099" ry="6.6099" stroke-width=".6"/>
   <rect id="rect1648" x="69.84" y="40.71" width="29.811" height="29.811" rx="6.6099" ry="6.6099" stroke-width=".7"/>
   <rect id="rect1650" x="69.84" y="40.71" width="29.811" height="29.811" rx="6.6099" ry="6.6099" stroke-width=".8"/>
   <rect id="rect1652" x="69.84" y="40.71" width="29.811" height="29.811" rx="6.6099" ry="6.6099"/>
   <rect id="rect1654" x="69.84" y="40.71" width="29.811" height="29.811" rx="6.6099" ry="6.6099" stroke-width="1.2"/>
   <rect id="rect1656" x="69.84" y="40.71" width="29.811" height="29.811" rx="6.6099" ry="6.6099" stroke-width="1.4"/>
   <rect id="rect1658" x="69.84" y="40.71" width="29.811" height="29.811" rx="6.6099" ry="6.6099" stroke-width="1.6"/>
   <rect id="rect1660" x="69.84" y="40.71" width="29.811" height="29.811" rx="6.6099" ry="6.6099" stroke-width="1.8"/>
   <rect id="rect1662" x="69.84" y="40.71" width="29.811" height="29.811" rx="6.6099" ry="6.6099" stroke-width="2"/>
   <rect id="rect1664" x="69.84" y="40.71" width="29.811" height="29.811" rx="6.6099" ry="6.6099" stroke-width="2.2"/>
   <rect id="rect1666" x="69.84" y="40.71" width="29.811" height="29.811" rx="6.6099" ry="6.6099" stroke-width="2.6"/>
   <rect id="rect1668" x="69.84" y="40.71" width="29.811" height="29.811" rx="6.6099" ry="6.6099" stroke-width="3"/>
   <rect id="rect1670" x="69.84" y="40.71" width="29.811" height="29.811" rx="6.6099" ry="6.6099" stroke-width="3.4"/>
   <rect id="rect1672" x="69.84" y="40.71" width="29.811" height="29.811" rx="6.6099" ry="6.6099" stroke-width="3.8"/>
   <rect id="rect1674" x="69.84" y="40.71" width="29.811" height="29.811" rx="6.6099" ry="6.6099" stroke-width="4.2"/>
   <rect id="rect1676" x="69.84" y="40.71" width="29.811" height="29.811" rx="6.6099" ry="6.6099" stroke-width="4.6"/>
   <rect id="rect1678" x="69.84" y="40.71" width="29.811" height="29.811" rx="6.6099" ry="6.6099" stroke-width="5"/>
  </g>
  <rect id="rect849" x="2.4784" y="2.5308" width="29.087" height="29.087" rx="6.4495" ry="6.4495" fill="url(#radialGradient1506)" stroke-linecap="round" stroke-linejoin="round" stroke-width="2.688"/>
  <path id="path1638" d="m16.456 8.0122c-2.1961 0-3.9646 1.263-3.9646 2.8319v1.6991h-1.6991c-1.5689 0-2.8319 1.769-2.8319 3.9651v1.1327c0 2.1961 1.263 3.9646 2.8319 3.9646h1.6991v1.6991c0 1.5693 1.7685 2.8319 3.9646 2.8319h1.1327c2.1961 0 3.9651-1.2626 3.9651-2.8319v-1.6991h1.6991c1.5693 0 2.8319-1.7685 2.8319-3.9646v-1.1327c0-2.1961-1.2626-3.9651-2.8319-3.9651h-1.6991v-1.6991c0-1.5689-1.769-2.8319-3.9651-2.8319zm3.6675 8.9023c-0.22833 0.09022-0.47505 0.14359-0.73329 0.15503 0.14286-0.01042 0.42187-0.04631 0.73329-0.15503zm-5.4725 0.16536c-0.14714 0.01092-0.4329 0.04819-0.75086 0.16226 0.23303-0.09478 0.48611-0.15009 0.75086-0.16226z" fill="url(#linearGradient1644)" stroke="#fff" stroke-opacity=".80909" stroke-width=".378"/>
  <g id="g1568" transform="translate(30.391 .95782)" stroke-width=".3776">
   <path id="path1562" d="m-8.8372 11.586v2.2656c0 1.2551-1.0104 2.2656-2.2656 2.2656h-4.5312s-2.2656 0-2.2656 2.2656v3.9648c0 1.5693 1.7687 2.832 3.9648 2.832h1.1328c2.1961 0 3.9648-1.2627 3.9648-2.832v-1.6992h1.6992c1.5693 0 2.832-1.7687 2.832-3.9648v-1.1328c0-2.1961-1.2627-3.9648-2.832-3.9648z" fill="url(#linearGradient1634)"/>
   <path id="path1564" d="m-13.935 7.0544c-2.1961 0-3.9648 1.2631-3.9648 2.832v1.6992h-1.6992c-1.5689 0-2.832 1.7687-2.832 3.9648v1.1328c0 2.1961 1.2631 3.9648 2.832 3.9648h1.6992v-2.2656c0-1.2551 1.0104-2.2656 2.2656-2.2656h4.5312s2.2656 0 2.2656-2.2656v-3.9648c0-1.5689-1.7687-2.832-3.9648-2.832z" fill="url(#linearGradient1636)"/>
  </g>
  <g id="g1632" transform="translate(.082124 .012186)" opacity=".426">
   <g id="g1612" fill-opacity=".090909" shape-rendering="auto">
    <path id="path1480" d="m21.471 12.342c-0.10402 7.25e-4 -0.18785 0.08544-0.1875 0.18945v0.37695c-3.53e-4 0.10402 0.08348 0.18873 0.1875 0.18945h1.6992c0.71372 0 1.3662 0.40052 1.8516 1.0801 0.48532 0.67956 0.79297 1.6334 0.79297 2.6953 0.01423 0.23664 0.36272 0.23664 0.37695 0v-0.37695c0-1.1342-0.32494-2.1622-0.86328-2.916s-1.3026-1.2383-2.1582-1.2383z" color="#000000" color-rendering="auto" dominant-baseline="auto" image-rendering="auto" opacity=".1" solid-color="#000000" style="font-feature-settings:normal;font-variant-alternates:normal;font-variant-caps:normal;font-variant-ligatures:normal;font-variant-numeric:normal;font-variant-position:normal;isolation:auto;mix-blend-mode:normal;shape-padding:0;text-decoration-color:#000000;text-decoration-line:none;text-decoration-style:solid;text-indent:0;text-orientation:mixed;text-transform:none;white-space:normal"/>
    <path id="path1532" transform="scale(.26458)" d="m61.885 30.236c-8.3002 0-14.984 4.7734-14.984 10.703v6.4219h-6.4219c-5.9298 0-10.703 6.6861-10.703 14.986v4.2812c0 8.3002 4.7734 14.984 10.703 14.984h6.4219v6.4219c0 5.9312 6.6842 10.703 14.984 10.703h4.2812c8.3002 0 14.986-4.7719 14.986-10.703v-6.4219h6.4219c5.9312 0 10.703-6.6842 10.703-14.984v-4.2812c0-8.3002-4.7719-14.986-10.703-14.986h-6.4219v-6.4219c0-5.9298-6.6861-10.703-14.986-10.703zm-2e-3 0.56836h4.2812c4.0414 0 7.6783 1.1646 10.275 3.0195 2.5971 1.855 4.1406 4.3634 4.1406 7.1152v6.4219c-7.9e-4 0.31427 0.25413 0.56915 0.56836 0.56836h6.4238c2.7526 0 5.26 1.545 7.1152 4.1426 1.8553 2.5976 3.0273 6.234 3.0273 10.275v4.2812c0 4.0414-1.1721 7.6783-3.0273 10.275-1.8552 2.5971-4.3626 4.1406-7.1152 4.1406h-6.4238c-0.31427-7.9e-4 -0.56915 0.25413-0.56836 0.56836v6.4238c0 2.7526-1.5435 5.2605-4.1406 7.1152-2.5971 1.8548-6.2339 3.0195-10.275 3.0195h-4.2812c-4.0415 0-7.6783-1.1648-10.275-3.0195-2.5971-1.8548-4.1426-4.3626-4.1426-7.1152v-6.4238c7.9e-4 -0.31423-0.25413-0.56915-0.56836-0.56836h-6.4219c-2.7519 0-5.2544-1.5435-7.1094-4.1406-1.855-2.5971-3.0254-6.234-3.0254-10.275v-4.2812c-1e-6 -4.0414 1.1704-7.6778 3.0254-10.275 1.855-2.5976 4.3576-4.1426 7.1094-4.1426h6.4219c0.31427 7.89e-4 0.56915-0.25413 0.56836-0.56836v-6.4219c0-2.7519 1.5455-5.2603 4.1426-7.1152 2.5971-1.855 6.234-3.0195 10.275-3.0195z" color="#000000" color-rendering="auto" dominant-baseline="auto" image-rendering="auto" opacity="1" solid-color="#000000" style="font-feature-settings:normal;font-variant-alternates:normal;font-variant-caps:normal;font-variant-ligatures:normal;font-variant-numeric:normal;font-variant-position:normal;isolation:auto;mix-blend-mode:normal;shape-padding:0;text-decoration-color:#000000;text-decoration-line:none;text-decoration-style:solid;text-indent:0;text-orientation:mixed;text-transform:none;white-space:normal"/>
    <path id="path1539" transform="scale(.26458)" d="m61.885 30.236c-8.3002 0-14.984 4.7734-14.984 10.703v6.4219h-6.4219c-5.9298 0-10.703 6.6861-10.703 14.986v4.2812c0 8.3002 4.7734 14.984 10.703 14.984h6.4219v6.4219c0 5.9312 6.6842 10.703 14.984 10.703h4.2812c8.3002 0 14.986-4.7719 14.986-10.703v-6.4219h6.4219c5.9312 0 10.703-6.6842 10.703-14.984v-4.2812c0-8.3002-4.7719-14.986-10.703-14.986h-6.4219v-6.4219c0-5.9298-6.6861-10.703-14.986-10.703zm-2e-3 0.94531h4.2812c3.969 0 7.5319 1.1512 10.055 2.9531 2.5228 1.8019 3.9863 4.1948 3.9863 6.8047v6.4219c5.3e-5 0.52182 0.42154 0.94526 0.94336 0.94531h6.4238c2.6105 0 5.0025 1.463 6.8047 3.9863 1.8022 2.5233 2.9531 6.0857 2.9531 10.055v4.2812c0 3.969-1.151 7.5319-2.9531 10.055-1.8022 2.5228-4.194 3.9863-6.8047 3.9863h-6.4238c-0.52182 5.3e-5 -0.94331 0.42154-0.94336 0.94336v6.4238c0 2.6106-1.4636 5.003-3.9863 6.8047-2.5228 1.8017-6.0856 2.9531-10.055 2.9531h-4.2812c-3.969 0-7.5319-1.1514-10.055-2.9531-2.5228-1.8017-3.9863-4.194-3.9863-6.8047v-6.4238c-5.3e-5 -0.52182-0.42349-0.94331-0.94531-0.94336h-6.4219c-2.6098 0-5.0048-1.4635-6.8066-3.9863-1.8019-2.5228-2.9512-6.0857-2.9512-10.055v-4.2812c-1e-6 -3.969 1.1492-7.5314 2.9512-10.055 1.8019-2.5233 4.1969-3.9863 6.8066-3.9863h6.4219c0.52182-5.3e-5 0.94526-0.42349 0.94531-0.94531v-6.4219c0-2.6098 1.4635-5.0028 3.9863-6.8047 2.5228-1.8019 6.0857-2.9531 10.055-2.9531z" color="#000000" color-rendering="auto" dominant-baseline="auto" image-rendering="auto" opacity="1" solid-color="#000000" style="font-feature-settings:normal;font-variant-alternates:normal;font-variant-caps:normal;font-variant-ligatures:normal;font-variant-numeric:normal;font-variant-position:normal;isolation:auto;mix-blend-mode:normal;shape-padding:0;text-decoration-color:#000000;text-decoration-line:none;text-decoration-style:solid;text-indent:0;text-orientation:mixed;text-transform:none;white-space:normal"/>
    <path id="path1541" transform="scale(.26458)" d="m61.885 30.236c-8.3002 0-14.984 4.7734-14.984 10.703v6.4219h-6.4219c-5.9298 0-10.703 6.6861-10.703 14.986v4.2812c0 8.3002 4.7734 14.984 10.703 14.984h6.4219v6.4219c0 5.9312 6.6842 10.703 14.984 10.703h4.2812c8.3002 0 14.986-4.7719 14.986-10.703v-6.4219h6.4219c5.9312 0 10.703-6.6842 10.703-14.984v-4.2812c0-8.3002-4.7719-14.986-10.703-14.986h-6.4219v-6.4219c0-5.9298-6.6861-10.703-14.986-10.703zm-2e-3 1.5137h4.2812c3.8603 0 7.3172 1.1195 9.7285 2.8418s3.7441 3.9508 3.7441 6.3477v6.4219c-7.33e-4 0.83607 0.67565 1.5144 1.5117 1.5137h6.4238c2.3975 0 4.6251 1.3303 6.3477 3.7422 1.7226 2.4119 2.8496 5.8702 2.8496 9.7305v4.2812c0 3.8603-1.1271 7.3172-2.8496 9.7285-1.7225 2.4113-3.95 3.7441-6.3477 3.7441h-6.4238c-0.83607-7.33e-4 -1.5125 0.67565-1.5117 1.5117v6.4238c0 2.3977-1.3328 4.6178-3.7441 6.3398-2.4113 1.7221-5.8681 2.8496-9.7285 2.8496h-4.2812c-3.8604 0-7.3114-1.1275-9.7227-2.8496-2.4113-1.7221-3.75-3.9422-3.75-6.3398v-6.4238c7.33e-4 -0.83607-0.6776-1.5125-1.5137-1.5117h-6.4218c-6.6458-0.79373-9.1315-8.211-9.1895-13.473v-4.2812c-1e-6 -3.8603 1.1273-7.3186 2.8496-9.7305 1.7223-2.4119 3.9432-3.7422 6.3398-3.7422h6.4219c0.83607 7.33e-4 1.5144-0.6776 1.5137-1.5137v-6.4219c0-2.3968 1.3386-4.6254 3.75-6.3477 2.4114-1.7223 5.8624-2.8418 9.7227-2.8418z" color="#000000" color-rendering="auto" dominant-baseline="auto" image-rendering="auto" opacity="1" solid-color="#000000" style="font-feature-settings:normal;font-variant-alternates:normal;font-variant-caps:normal;font-variant-ligatures:normal;font-variant-numeric:normal;font-variant-position:normal;isolation:auto;mix-blend-mode:normal;shape-padding:0;text-decoration-color:#000000;text-decoration-line:none;text-decoration-style:solid;text-indent:0;text-orientation:mixed;text-transform:none;white-space:normal"/>
    <path id="path1543" transform="scale(.26458)" d="m61.885 30.236c-8.3002 0-14.984 4.7734-14.984 10.703v6.4219h-6.4219c-5.9298 0-10.703 6.6861-10.703 14.986v4.2812c0 8.3002 4.7734 14.984 10.703 14.984h6.4219v6.4219c0 5.9312 6.6842 10.703 14.984 10.703h4.2812c8.3002 0 14.986-4.7719 14.986-10.703v-6.4219h6.4219c5.9312 0 10.703-6.6842 10.703-14.984v-4.2812c0-8.3002-4.7719-14.986-10.703-14.986h-6.4219v-6.4219c0-5.9298-6.6861-10.703-14.986-10.703zm-2e-3 2.2656h4.2812c3.7154 0 7.0244 1.0928 9.2871 2.709 2.2627 1.6161 3.4316 3.6157 3.4316 5.7285v6.4219c9.42e-4 1.2512 1.0144 2.2666 2.2656 2.2676h6.4238c2.1135 0 4.1179 1.1684 5.7344 3.4316 1.6165 2.2633 2.7031 5.5718 2.7031 9.2871v4.2812c0 3.7154-1.0867 7.0244-2.7031 9.2871-1.6164 2.2627-3.6207 3.4316-5.7344 3.4316h-6.4238c-1.2512 9.41e-4 -2.2647 1.0144-2.2656 2.2656v6.4238c0 2.1137-1.169 4.1126-3.4316 5.7285s-5.5716 2.709-9.2871 2.709h-4.2812c-3.7155 0-7.0244-1.093-9.2871-2.709s-3.4258-3.6148-3.4258-5.7285v-6.4238c-9.37e-4 -1.2541-1.0193-2.2688-2.2734-2.2656h-6.4219c-2.1128 0-4.1124-1.1689-5.7285-3.4316-1.6161-2.2628-2.7012-5.5717-2.7012-9.2871v-4.2812c-1e-6 -3.7154 1.0849-7.0238 2.7012-9.2871 1.6162-2.2633 3.616-3.4316 5.7285-3.4316h6.4219c1.2541 0.0031 2.2725-1.0135 2.2734-2.2676v-6.4219c0-2.1128 1.163-4.1124 3.4258-5.7285 2.2627-1.6161 5.5717-2.709 9.2871-2.709z" color="#000000" color-rendering="auto" dominant-baseline="auto" image-rendering="auto" opacity="1" solid-color="#000000" style="font-feature-settings:normal;font-variant-alternates:normal;font-variant-caps:normal;font-variant-ligatures:normal;font-variant-numeric:normal;font-variant-position:normal;isolation:auto;mix-blend-mode:normal;shape-padding:0;text-decoration-color:#000000;text-decoration-line:none;text-decoration-style:solid;text-indent:0;text-orientation:mixed;text-transform:none;white-space:normal"/>
   </g>
  </g>
 </g>
</svg>
