<?xml version="1.0" encoding="UTF-8"?>
<svg id="svg1492" width="128" height="128" version="1.1" viewBox="0 0 33.867 33.867" xmlns="http://www.w3.org/2000/svg" xmlns:cc="http://creativecommons.org/ns#" xmlns:dc="http://purl.org/dc/elements/1.1/" xmlns:rdf="http://www.w3.org/1999/02/22-rdf-syntax-ns#" xmlns:xlink="http://www.w3.org/1999/xlink">
 <defs id="defs1486">
  <linearGradient id="linearGradient1632" x1="136.96" x2="136.96" y1="68.977" y2="42.305" gradientTransform="matrix(.97573 0 0 .97573 -111.82 -37.23)" gradientUnits="userSpaceOnUse">
   <stop id="stop1626" stop-color="#fa8929" offset="0"/>
   <stop id="stop1628" stop-color="#ff570d" offset="1"/>
  </linearGradient>
  <linearGradient id="linearGradient1492" x1="8.4248" x2="8.4248" y1="17.282" y2="42.68" gradientUnits="userSpaceOnUse">
   <stop id="stop1486" stop-color="#fff" offset="0"/>
   <stop id="stop1488" stop-color="#fb7e23" offset="1"/>
  </linearGradient>
  <linearGradient id="linearGradient4461" x1="19.712" x2="19.712" y1="18.753" y2="25.212" gradientUnits="userSpaceOnUse">
   <stop id="stop4455" stop-color="#fff7f2" offset="0"/>
   <stop id="stop4457" stop-color="#fed8bc" offset="1"/>
  </linearGradient>
 </defs>
 <metadata id="metadata1489">
  <rdf:RDF>
   <cc:Work rdf:about="">
    <dc:format>image/svg+xml</dc:format>
    <dc:type rdf:resource="http://purl.org/dc/dcmitype/StillImage"/>
   </cc:Work>
  </rdf:RDF>
 </metadata>
 <g id="layer1">
  <g id="g1702" transform="matrix(.97573 0 0 .97573 -65.787 -37.23)" fill="none" opacity=".295" stroke="#000" stroke-linecap="round" stroke-linejoin="round" stroke-opacity=".02">
   <rect id="rect1634" x="69.84" y="40.71" width="29.811" height="29.811" rx="6.6099" ry="6.6099" stroke-width=".1"/>
   <rect id="rect1638" x="69.84" y="40.71" width="29.811" height="29.811" rx="6.6099" ry="6.6099" stroke-width=".2"/>
   <rect id="rect1640" x="69.84" y="40.71" width="29.811" height="29.811" rx="6.6099" ry="6.6099" stroke-width=".3"/>
   <rect id="rect1642" x="69.84" y="40.71" width="29.811" height="29.811" rx="6.6099" ry="6.6099" stroke-width=".4"/>
   <rect id="rect1644" x="69.84" y="40.71" width="29.811" height="29.811" rx="6.6099" ry="6.6099" stroke-width=".5"/>
   <rect id="rect1646" x="69.84" y="40.71" width="29.811" height="29.811" rx="6.6099" ry="6.6099" stroke-width=".6"/>
   <rect id="rect1648" x="69.84" y="40.71" width="29.811" height="29.811" rx="6.6099" ry="6.6099" stroke-width=".7"/>
   <rect id="rect1650" x="69.84" y="40.71" width="29.811" height="29.811" rx="6.6099" ry="6.6099" stroke-width=".8"/>
   <rect id="rect1652" x="69.84" y="40.71" width="29.811" height="29.811" rx="6.6099" ry="6.6099"/>
   <rect id="rect1654" x="69.84" y="40.71" width="29.811" height="29.811" rx="6.6099" ry="6.6099" stroke-width="1.2"/>
   <rect id="rect1656" x="69.84" y="40.71" width="29.811" height="29.811" rx="6.6099" ry="6.6099" stroke-width="1.4"/>
   <rect id="rect1658" x="69.84" y="40.71" width="29.811" height="29.811" rx="6.6099" ry="6.6099" stroke-width="1.6"/>
   <rect id="rect1660" x="69.84" y="40.71" width="29.811" height="29.811" rx="6.6099" ry="6.6099" stroke-width="1.8"/>
   <rect id="rect1662" x="69.84" y="40.71" width="29.811" height="29.811" rx="6.6099" ry="6.6099" stroke-width="2"/>
   <rect id="rect1664" x="69.84" y="40.71" width="29.811" height="29.811" rx="6.6099" ry="6.6099" stroke-width="2.2"/>
   <rect id="rect1666" x="69.84" y="40.71" width="29.811" height="29.811" rx="6.6099" ry="6.6099" stroke-width="2.6"/>
   <rect id="rect1668" x="69.84" y="40.71" width="29.811" height="29.811" rx="6.6099" ry="6.6099" stroke-width="3"/>
   <rect id="rect1670" x="69.84" y="40.71" width="29.811" height="29.811" rx="6.6099" ry="6.6099" stroke-width="3.4"/>
   <rect id="rect1672" x="69.84" y="40.71" width="29.811" height="29.811" rx="6.6099" ry="6.6099" stroke-width="3.8"/>
   <rect id="rect1674" x="69.84" y="40.71" width="29.811" height="29.811" rx="6.6099" ry="6.6099" stroke-width="4.2"/>
   <rect id="rect1676" x="69.84" y="40.71" width="29.811" height="29.811" rx="6.6099" ry="6.6099" stroke-width="4.6"/>
   <rect id="rect1678" x="69.84" y="40.71" width="29.811" height="29.811" rx="6.6099" ry="6.6099" stroke-width="5"/>
  </g>
  <rect id="rect849" x="2.3576" y="2.4922" width="29.087" height="29.087" rx="6.4495" ry="6.4495" fill="url(#linearGradient1632)" stroke-linecap="round" stroke-linejoin="round" stroke-width="2.6877"/>
  <path id="path8" d="m16.855 8.8516a8.4299 8.4299 0 0 0-8.4299 8.4299 8.4299 8.4299 0 0 0 8.4299 8.4299 8.4299 8.4299 0 0 0 8.4299-8.4299 8.4299 8.4299 0 0 0-8.4299-8.4299zm0 3.0107a4.8171 5.4192 0 0 1 4.8171 5.4192 4.8171 5.4192 0 0 1-4.8171 5.4192 4.8171 5.4192 0 0 1-4.8171-5.4192 4.8171 5.4192 0 0 1 4.8171-5.4192z" fill="url(#linearGradient1492)" stroke-width=".60214"/>
  <path id="path12" d="m15.111 19.741c2.8794-0.22401 6.7037 2.9773 8.6565 6.1473" fill="none" stroke="url(#linearGradient4461)" stroke-width="2.4085"/>
 </g>
</svg>
