<?xml version="1.0" encoding="UTF-8"?>
<svg id="svg2781" width="128" height="128" version="1.1" viewBox="0 0 33.867 33.867" xmlns="http://www.w3.org/2000/svg" xmlns:cc="http://creativecommons.org/ns#" xmlns:dc="http://purl.org/dc/elements/1.1/" xmlns:rdf="http://www.w3.org/1999/02/22-rdf-syntax-ns#" xmlns:xlink="http://www.w3.org/1999/xlink">
 <defs id="defs2775">
  <linearGradient id="linearGradient1940" x1="16.938" x2="16.938" y1="5.6268" y2="30.152" gradientTransform="translate(.078066 -.038951)" gradientUnits="userSpaceOnUse">
   <stop id="stop1934" stop-color="#cbd3d6" offset="0"/>
   <stop id="stop1936" stop-color="#9cabb7" offset="1"/>
  </linearGradient>
 </defs>
 <metadata id="metadata2778">
  <rdf:RDF>
   <cc:Work rdf:about="">
    <dc:format>image/svg+xml</dc:format>
    <dc:type rdf:resource="http://purl.org/dc/dcmitype/StillImage"/>
    <dc:title/>
   </cc:Work>
  </rdf:RDF>
 </metadata>
 <g id="layer1">
  <g id="g1702" transform="matrix(.97573 0 0 .97573 -65.67 -37.242)" fill="none" opacity=".29676" stroke="#000" stroke-linecap="round" stroke-linejoin="round" stroke-opacity=".02">
   <rect id="rect1634" x="69.84" y="40.71" width="29.811" height="29.811" rx="6.6099" ry="6.6099" stroke-width=".1"/>
   <rect id="rect1638" x="69.84" y="40.71" width="29.811" height="29.811" rx="6.6099" ry="6.6099" stroke-width=".2"/>
   <rect id="rect1640" x="69.84" y="40.71" width="29.811" height="29.811" rx="6.6099" ry="6.6099" stroke-width=".3"/>
   <rect id="rect1642" x="69.84" y="40.71" width="29.811" height="29.811" rx="6.6099" ry="6.6099" stroke-width=".4"/>
   <rect id="rect1644" x="69.84" y="40.71" width="29.811" height="29.811" rx="6.6099" ry="6.6099" stroke-width=".5"/>
   <rect id="rect1646" x="69.84" y="40.71" width="29.811" height="29.811" rx="6.6099" ry="6.6099" stroke-width=".6"/>
   <rect id="rect1648" x="69.84" y="40.71" width="29.811" height="29.811" rx="6.6099" ry="6.6099" stroke-width=".7"/>
   <rect id="rect1650" x="69.84" y="40.71" width="29.811" height="29.811" rx="6.6099" ry="6.6099" stroke-width=".8"/>
   <rect id="rect1652" x="69.84" y="40.71" width="29.811" height="29.811" rx="6.6099" ry="6.6099"/>
   <rect id="rect1654" x="69.84" y="40.71" width="29.811" height="29.811" rx="6.6099" ry="6.6099" stroke-width="1.2"/>
   <rect id="rect1656" x="69.84" y="40.71" width="29.811" height="29.811" rx="6.6099" ry="6.6099" stroke-width="1.4"/>
   <rect id="rect1658" x="69.84" y="40.71" width="29.811" height="29.811" rx="6.6099" ry="6.6099" stroke-width="1.6"/>
   <rect id="rect1660" x="69.84" y="40.71" width="29.811" height="29.811" rx="6.6099" ry="6.6099" stroke-width="1.8"/>
   <rect id="rect1662" x="69.84" y="40.71" width="29.811" height="29.811" rx="6.6099" ry="6.6099" stroke-width="2"/>
   <rect id="rect1664" x="69.84" y="40.71" width="29.811" height="29.811" rx="6.6099" ry="6.6099" stroke-width="2.2"/>
   <rect id="rect1666" x="69.84" y="40.71" width="29.811" height="29.811" rx="6.6099" ry="6.6099" stroke-width="2.6"/>
   <rect id="rect1668" x="69.84" y="40.71" width="29.811" height="29.811" rx="6.6099" ry="6.6099" stroke-width="3"/>
   <rect id="rect1670" x="69.84" y="40.71" width="29.811" height="29.811" rx="6.6099" ry="6.6099" stroke-width="3.4"/>
   <rect id="rect1672" x="69.84" y="40.71" width="29.811" height="29.811" rx="6.6099" ry="6.6099" stroke-width="3.8"/>
   <rect id="rect1674" x="69.84" y="40.71" width="29.811" height="29.811" rx="6.6099" ry="6.6099" stroke-width="4.2"/>
   <rect id="rect1676" x="69.84" y="40.71" width="29.811" height="29.811" rx="6.6099" ry="6.6099" stroke-width="4.6"/>
   <rect id="rect1678" x="69.84" y="40.71" width="29.811" height="29.811" rx="6.6099" ry="6.6099" stroke-width="5"/>
  </g>
  <rect id="rect849" x="2.4743" y="2.4796" width="29.087" height="29.087" rx="6.4495" ry="6.4495" fill="url(#linearGradient1940)" stroke-linecap="round" stroke-linejoin="round" stroke-width="2.6877"/>
  <rect id="rect2807-7" x="3.861" y="3.8806" width="26.314" height="26.285" rx="5.567" ry="5.567" fill="#030000" stroke-width="1.775"/>
  <rect id="rect2809-5" x="5.378" y="5.3988" width="23.28" height="23.28" rx="4.0486" ry="4.0486" fill="#1a211f" stroke-width="1.5711"/>
  <path id="path2811-3" d="m10.036 5.3988v1.5499h-3.3004v-0.52486c-0.051204 0.04558-0.10342 0.09028-0.15222 0.13838v0.38648h-0.342c-0.038829 0.04949-0.076166 0.09992-0.11268 0.15123h0.45469v3.3014h-1.2049v0.15222h1.2049v3.3004h-1.2049v0.15222h1.2049v3.3014h-1.2049v0.15124h1.2049v3.3014h-1.2049v0.15222h1.2049v3.3014h-1.2049v0.15124h1.2049v3.1502c0.048814 0.0481 0.10101 0.09281 0.15222 0.13839v-3.2885h3.3004v3.3014h-3.2856c0.059352 0.05232 0.11949 0.10343 0.18186 0.15222h3.1037v0.85994h0.15222v-0.85994h3.3014v0.85994h0.15124v-0.85994h3.3014v0.85994h0.15222v-0.85994h3.3014v0.85994h0.15124v-0.85994h3.3014v0.85994h0.15222v-0.85994h3.1037c0.06237-0.0488 0.12253-0.0999 0.18186-0.15222h-3.2856v-3.3014h3.3004v3.2885c0.0512-0.04558 0.10343-0.09028 0.15222-0.13839v-3.1502h1.2049v-0.15124h-1.2049v-3.3014h1.2049v-0.15222h-1.2049v-3.3014h1.2049v-0.15124h-1.2049v-3.3014h1.2049v-0.15222h-1.2049v-3.3004h1.2049v-0.15222h-1.205v-3.3014h0.45469c-0.03651-0.05133-0.07387-0.10174-0.11268-0.15123h-0.34201v-0.38648c-0.04881-0.04811-0.10102-0.0928-0.15221-0.13838v0.52486h-3.3004v-1.5499h-0.15222v1.5499h-3.3014v-1.5499h-0.15124v1.5499h-3.3014v-1.5499h-0.15222v1.5499h-3.3014v-1.5499h-0.15124v1.5499h-3.3014v-1.5499h-0.15222zm-3.3004 1.7011h3.3004v3.3014h-3.3004zm3.4527 0h3.3014v3.3014h-3.3014zm3.4527 0h3.3014v3.3014h-3.3014zm3.4536 0h3.3014v3.3014h-3.3014zm3.4527 0h3.3014v3.3014h-3.3014zm3.4536 0h3.3004v3.3014h-3.3004zm-17.265 3.4536h3.3004v3.3004h-3.3004zm3.4527 0h3.3014v3.3004h-3.3014zm3.4527 0h3.3014v3.3004h-3.3014zm3.4536 0h3.3014v3.3004h-3.3014zm3.4527 0h3.3014v3.3004h-3.3014zm3.4536 0h3.3004v3.3004h-3.3004zm-17.265 3.4527h3.3004v3.3014h-3.3004zm3.4527 0h3.3014v3.3014h-3.3014zm3.4527 0h3.3014v3.3014h-3.3014zm3.4536 0h3.3014v3.3014h-3.3014zm3.4527 0h3.3014v3.3014h-3.3014zm3.4536 0h3.3004v3.3014h-3.3004zm-17.265 3.4527h3.3004v3.3014h-3.3004zm3.4527 0h3.3014v3.3014h-3.3014zm3.4527 0h3.3014v3.3014h-3.3014zm3.4536 0h3.3014v3.3014h-3.3014zm3.4527 0h3.3014v3.3014h-3.3014zm3.4536 0h3.3004v3.3014h-3.3004zm-17.265 3.4536h3.3004v3.3014h-3.3004zm3.4527 0h3.3014v3.3014h-3.3014zm3.4527 0h3.3014v3.3014h-3.3014zm3.4536 0h3.3014v3.3014h-3.3014zm3.4527 0h3.3014v3.3014h-3.3014zm3.4536 0h3.3004v3.3014h-3.3004zm-13.813 3.4527h3.3014v3.3014h-3.3014zm3.4527 0h3.3014v3.3014h-3.3014zm3.4536 0h3.3014v3.3014h-3.3014zm3.4527 0h3.3014v3.3014h-3.3014z" fill="#a1fbe6" opacity=".35" stroke-width=".50608"/>
  <path id="path2815-6" d="m14.531 10.563c-0.05126 0.0079-0.09193 0.08307-0.14629 0.24316-0.10511 0.30959-0.12988 0.75543-0.26787 4.9136-0.07282 2.1946-0.23111 4.1613-0.3677 4.5637-0.17683 0.52081-0.4721 0.35815-1.2128-0.6692-0.38119-0.52871-0.81247-1.0671-0.95878-1.196-0.25185-0.22183-0.28006-0.22315-0.53574-0.03558-0.14856 0.109-0.34201 0.39341-0.42998 0.6326-0.22717 0.61768-0.53873 0.9519-0.97163 1.0428-0.20622 0.04343-1.2706 0.0099-2.3644-0.07414l-1.8978-0.14531c3.175e-4 0.11878 0.00106 0.23803 9.79e-4 0.35683l0.99436 0.09587c0.59622 0.0582 1.6577 0.10675 2.3585 0.10675 1.4859 0 1.7398-0.11734 2.0698-0.95285 0.11255-0.28491 0.25136-0.55062 0.3084-0.5901 0.21905-0.1516 0.52279 0.10013 1.1456 0.94992 0.35512 0.48451 0.76307 0.96728 0.9064 1.0724 0.34885 0.25596 0.67846 0.12332 0.85204-0.34299 0.17666-0.4746 0.35259-2.4589 0.42602-4.8147 0.06346-2.0359 0.11784-2.511 0.26095-2.2517 0.08271 0.14988 0.16444 0.98904 0.2649 2.7252 0.02072 0.35825 0.11424 1.611 0.20758 2.7835 0.31328 3.9359 0.42596 4.6383 0.72552 4.5271 0.15774-0.05859 0.36624-1.0339 0.37956-1.7772 0.0056-0.3115 0.07881-0.75169 0.1631-0.97755 0.17406-0.46649 0.25878-0.48396 1.287-0.27182 0.93352 0.19264 1.1312 0.07147 1.5321-0.93803 0.53837-1.3556 0.55902-1.3889 0.86986-1.4293 0.24228-0.0314 0.38679 0.08022 0.84116 0.65138 1.6684 2.097 1.8576 2.1803 2.7627 1.2217 0.30752-0.32568 0.60523-0.59207 0.66125-0.59207 0.05602 0 0.35264 0.23965 0.65928 0.53276 0.41667 0.37928 0.75316 0.53458 1.2177 0.58913 0.13515-1.72e-4 0.24452-0.10998 0.24414-0.24514-1.7e-4 -0.13477-0.10939-0.24398-0.24414-0.24414-0.44315 0.17299-0.86212-0.2394-1.0892-0.45469-0.75037-0.71722-0.99871-0.70898-1.6299 0.05832-0.71343 0.86722-0.74734 0.85478-2.0797-0.80953-1.3687-1.7097-1.6856-1.6879-2.3258 0.15914-0.13546 0.39081-0.35761 0.8404-0.49324 1.0003-0.23842 0.2811-0.26648 0.28622-0.86292 0.14828-0.9027-0.20879-1.2513-0.18148-1.4985 0.11565-0.11794 0.14173-0.24211 0.35467-0.27578 0.47347-0.07757 0.27371-0.22653 0.27832-0.2995 9e-3 -0.08454-0.31205-0.26346-2.09-0.3242-3.2273-0.07707-1.4429-0.46606-6.0396-0.54364-6.4212-0.03605-0.17712-0.1307-0.38343-0.21054-0.45765-0.04313-0.04007-0.07799-0.05908-0.10874-0.05436z" fill="#c1fdee" stroke-width=".88276"/>
 </g>
</svg>
