<?xml version="1.0" encoding="UTF-8"?>
<svg id="svg155" width="128" height="128" version="1.1" viewBox="0 0 33.867 33.867" xmlns="http://www.w3.org/2000/svg" xmlns:cc="http://creativecommons.org/ns#" xmlns:dc="http://purl.org/dc/elements/1.1/" xmlns:rdf="http://www.w3.org/1999/02/22-rdf-syntax-ns#" xmlns:xlink="http://www.w3.org/1999/xlink">
 <metadata id="metadata161">
  <rdf:RDF>
   <cc:Work rdf:about="">
    <dc:format>image/svg+xml</dc:format>
    <dc:type rdf:resource="http://purl.org/dc/dcmitype/StillImage"/>
   </cc:Work>
  </rdf:RDF>
 </metadata>
 <linearGradient id="j" x1="-47.703" x2="-44.01" y1="68.741" y2="32.945" gradientUnits="userSpaceOnUse">
  <stop id="stop2" stop-color="#0d2944" offset="0"/>
  <stop id="stop4" stop-color="#0c4c8c" offset=".311"/>
  <stop id="stop6" stop-color="#176fc6" stop-opacity="0" offset="1"/>
 </linearGradient>
 <linearGradient id="i" x1="-49.511" x2="-43.106" y1="23.182" y2="47.77" gradientUnits="userSpaceOnUse">
  <stop id="stop9" stop-color="#1764b2" stop-opacity=".996" offset="0"/>
  <stop id="stop11" stop-color="#1d78d3" offset=".087"/>
  <stop id="stop13" stop-color="#176fc6" offset="1"/>
 </linearGradient>
 <linearGradient id="h" x1="98.436" x2="67.627" y1="50.305" y2="50.305" gradientUnits="userSpaceOnUse" xlink:href="#a"/>
 <linearGradient id="g" x1="66.082" x2="66.082" y1="59.254" y2="37.905" gradientUnits="userSpaceOnUse">
  <stop id="stop17" stop-color="#464747" offset="0"/>
  <stop id="stop19" stop-color="#7f8082" offset="1"/>
 </linearGradient>
 <linearGradient id="f" x1="69.045" x2="69.045" y1="35.604" y2="63.345" gradientUnits="userSpaceOnUse">
  <stop id="stop22" stop-color="#eee" offset="0"/>
  <stop id="stop24" stop-color="#cacaca" offset=".468"/>
  <stop id="stop26" stop-color="#b3b3b3" offset=".505"/>
  <stop id="stop28" stop-color="#b0b0b0" offset=".578"/>
  <stop id="stop30" stop-color="#454646" offset="1"/>
 </linearGradient>
 <linearGradient id="o" x1="16.819" x2="16.819" y1="1.004" y2="17.97" gradientUnits="userSpaceOnUse">
  <stop id="stop33" stop-color="#c3c3c3" stop-opacity=".996" offset="0"/>
  <stop id="stop35" stop-color="#c4c4c4" offset=".042"/>
  <stop id="stop37" stop-color="#999" offset=".085"/>
  <stop id="stop39" stop-color="#9f9f9f" offset=".139"/>
  <stop id="stop41" stop-color="#dedede" offset=".201"/>
  <stop id="stop43" stop-color="#e9e9e9" offset=".23"/>
  <stop id="stop45" stop-color="#bebdbd" offset=".275"/>
  <stop id="stop47" stop-color="#888686" offset=".309"/>
  <stop id="stop49" stop-color="#545353" offset=".456"/>
  <stop id="stop51" stop-color="#4e4e4e" offset=".535"/>
  <stop id="stop53" stop-color="#a1a1a1" offset=".857"/>
  <stop id="stop55" stop-color="#737373" offset="1"/>
 </linearGradient>
 <linearGradient id="a">
  <stop id="stop58" offset="0"/>
  <stop id="stop60" stop-opacity="0" offset="1"/>
 </linearGradient>
 <linearGradient id="n" x1="17.192" x2="17.192" y1="16.337" y2="20.445" gradientUnits="userSpaceOnUse">
  <stop id="stop63" stop-color="#0d0d0d" offset="0"/>
  <stop id="stop65" stop-color="#2c2c2c" stop-opacity="0" offset="1"/>
 </linearGradient>
 <linearGradient id="m" x1="-.155" x2="-26.654" y1="45.781" y2="42.527" gradientUnits="userSpaceOnUse">
  <stop id="stop68" stop-color="#0d2944" offset="0"/>
  <stop id="stop70" stop-color="#0d2944" stop-opacity="0" offset="1"/>
 </linearGradient>
 <linearGradient id="k" x1="-94.708" x2="-75.286" y1="46.143" y2="46.143" gradientUnits="userSpaceOnUse">
  <stop id="stop73" stop-color="#0d2944" offset="0"/>
  <stop id="stop75" stop-color="#0d2944" stop-opacity="0" offset="1"/>
 </linearGradient>
 <linearGradient id="c" x1="17.751" x2="17.751" y1="4.29" y2="28.983" gradientUnits="userSpaceOnUse">
  <stop id="stop78" stop-color="#bbbfc3" offset="0"/>
  <stop id="stop80" stop-color="#f1f3f6" stop-opacity=".941" offset="1"/>
 </linearGradient>
 <linearGradient id="b" x1="16.938" x2="16.938" y1="5.627" y2="30.152" gradientUnits="userSpaceOnUse">
  <stop id="stop83" stop-color="#a2acb0" offset="0"/>
  <stop id="stop85" stop-color="#9cabb7" offset="1"/>
 </linearGradient>
 <radialGradient id="l" cx="3.512" cy="47.23" r="12.017" gradientTransform="matrix(2.5424 0 0 1.479 -60.842 -28.344)" gradientUnits="userSpaceOnUse">
  <stop id="stop88" stop-color="#1766b5" stop-opacity=".118" offset="0"/>
  <stop id="stop90" stop-color="#1764b2" stop-opacity="0" offset=".82"/>
  <stop id="stop92" stop-color="#0f4a84" offset="1"/>
 </radialGradient>
 <radialGradient id="d" cx="16.994" cy="4.308" r="6.579" gradientTransform="matrix(3.7795 0 0 9.2084 0 -23.39)" gradientUnits="userSpaceOnUse" xlink:href="#a"/>
 <radialGradient id="e" cx="16.993" cy="1.557" r="19.382" gradientTransform="matrix(2.8149 0 0 1.1942 14.815 14.385)" gradientUnits="userSpaceOnUse">
  <stop id="stop96" stop-color="#2a76c1" offset="0"/>
  <stop id="stop98" stop-color="#2a76c1" stop-opacity="0" offset="1"/>
 </radialGradient>
 <g id="g1702" transform="matrix(.97574 0 0 .97574 -65.756 -37.332)" fill="none" opacity=".29677" stroke="#000" stroke-linecap="round" stroke-linejoin="round" stroke-opacity=".02">
  <rect id="rect1634" x="69.84" y="40.71" width="29.811" height="29.811" rx="6.6099" ry="6.6099" stroke-width=".1"/>
  <rect id="rect1638" x="69.84" y="40.71" width="29.811" height="29.811" rx="6.6099" ry="6.6099" stroke-width=".2"/>
  <rect id="rect1640" x="69.84" y="40.71" width="29.811" height="29.811" rx="6.6099" ry="6.6099" stroke-width=".3"/>
  <rect id="rect1642" x="69.84" y="40.71" width="29.811" height="29.811" rx="6.6099" ry="6.6099" stroke-width=".4"/>
  <rect id="rect1644" x="69.84" y="40.71" width="29.811" height="29.811" rx="6.6099" ry="6.6099" stroke-width=".5"/>
  <rect id="rect1646" x="69.84" y="40.71" width="29.811" height="29.811" rx="6.6099" ry="6.6099" stroke-width=".6"/>
  <rect id="rect1648" x="69.84" y="40.71" width="29.811" height="29.811" rx="6.6099" ry="6.6099" stroke-width=".7"/>
  <rect id="rect1650" x="69.84" y="40.71" width="29.811" height="29.811" rx="6.6099" ry="6.6099" stroke-width=".8"/>
  <rect id="rect1652" x="69.84" y="40.71" width="29.811" height="29.811" rx="6.6099" ry="6.6099"/>
  <rect id="rect1654" x="69.84" y="40.71" width="29.811" height="29.811" rx="6.6099" ry="6.6099" stroke-width="1.2"/>
  <rect id="rect1656" x="69.84" y="40.71" width="29.811" height="29.811" rx="6.6099" ry="6.6099" stroke-width="1.4"/>
  <rect id="rect1658" x="69.84" y="40.71" width="29.811" height="29.811" rx="6.6099" ry="6.6099" stroke-width="1.6"/>
  <rect id="rect1660" x="69.84" y="40.71" width="29.811" height="29.811" rx="6.6099" ry="6.6099" stroke-width="1.8"/>
  <rect id="rect1662" x="69.84" y="40.71" width="29.811" height="29.811" rx="6.6099" ry="6.6099" stroke-width="2"/>
  <rect id="rect1664" x="69.84" y="40.71" width="29.811" height="29.811" rx="6.6099" ry="6.6099" stroke-width="2.2"/>
  <rect id="rect1666" x="69.84" y="40.71" width="29.811" height="29.811" rx="6.6099" ry="6.6099" stroke-width="2.6"/>
  <rect id="rect1668" x="69.84" y="40.71" width="29.811" height="29.811" rx="6.6099" ry="6.6099" stroke-width="3"/>
  <rect id="rect1670" x="69.84" y="40.71" width="29.811" height="29.811" rx="6.6099" ry="6.6099" stroke-width="3.4"/>
  <rect id="rect1672" x="69.84" y="40.71" width="29.811" height="29.811" rx="6.6099" ry="6.6099" stroke-width="3.8"/>
  <rect id="rect1674" x="69.84" y="40.71" width="29.811" height="29.811" rx="6.6099" ry="6.6099" stroke-width="4.2"/>
  <rect id="rect1676" x="69.84" y="40.71" width="29.811" height="29.811" rx="6.6099" ry="6.6099" stroke-width="4.6"/>
  <rect id="rect1678" x="69.84" y="40.71" width="29.811" height="29.811" rx="6.6099" ry="6.6099" stroke-width="5"/>
 </g>
 <rect id="rect101" x="2.396" y="2.519" width="29.087" height="29.087" rx="6.449" fill="url(#b)"/>
 <rect id="rect103" x="3.783" y="3.92" width="26.314" height="26.285" rx="5.567" fill="url(#c)"/>
 <path id="path105" d="M16.95 7.127a.639.639 0 00-.443.185l-4.51 4.318c-.497.477-.35.922 0 .932h1.777v9.855h-1.776c-.35.01-.498.456 0 .932l4.509 4.319a.639.639 0 00.443.185.639.639 0 00.443-.185l4.509-4.319c.497-.476.35-.921 0-.932h-1.776v-9.855h1.776c.35-.01.497-.455 0-.932l-4.509-4.318a.639.639 0 00-.443-.185z" fill="#fff"/>
 <path id="path107" d="M16.95 7.127a.639.639 0 00-.443.185l-4.51 4.318c-.497.477-.35.922 0 .932h1.777v9.855h-1.776c-.35.01-.498.456 0 .932l4.509 4.319a.639.639 0 00.443.185.639.639 0 00.443-.185l4.509-4.319c.497-.476.35-.921 0-.932h-1.776v-9.855h1.776c.35-.01.497-.455 0-.932l-4.509-4.318a.639.639 0 00-.443-.185z" fill="#484848"/>
 <path id="path109" transform="scale(.26458)" d="M39.531 9.52a24.867 60.586 0 00-.168 6.763A24.867 60.586 0 0064.23 76.87a24.867 60.586 0 0024.867-60.586 24.867 60.586 0 00-.184-6.763h-49.38z" fill="url(#d)" opacity=".735"/>
 <path id="path111" d="M16.95 7.127a.639.639 0 00-.443.185l-4.51 4.318c-.497.477-.35.922 0 .932h1.777v9.855h-1.776c-.351.01-.498.456 0 .932l4.509 4.319a.639.639 0 00.443.185.639.639 0 00.443-.185l4.509-4.319c.497-.476.35-.921 0-.932h-1.776v-9.855h1.776c.35-.01.497-.455 0-.932l-4.51-4.318a.639.639 0 00-.442-.185zm0 .863l3.942 3.776h-.766a.796.796 0 00-.796.796v9.855a.796.796 0 00.796.796h.766L16.95 26.99l-3.943-3.777h.767a.796.796 0 00.796-.796v-9.855a.796.796 0 00-.796-.796h-.767z" fill-opacity=".128"/>
 <path id="path113" transform="scale(.26458)" d="M33.434 9.52A24.323 24.323 0 009.057 33.895v5.585a92.84 23.46 0 0053.972 4.397 92.84 23.46 0 0055.965-4.768v-5.214A24.323 24.323 0 0094.617 9.52z" fill="url(#e)" opacity=".747"/>
 <g id="g119" stroke-linecap="round" stroke-linejoin="round">
  <path id="path115" transform="translate(-1.264 -.89) scale(.10616)" d="M58.934 41.056l15.98-7.042c.98-.432 1.917.906 1.917 2.032v25.459c0 1.125-.926 2.434-1.918 2.031l-15.98-6.5c-.991-.404-1.917-.906-1.917-2.031V43.087c0-1.125.937-1.599 1.918-2.03z" fill="url(#f)" stroke="url(#g)"/>
  <path id="path117" transform="translate(-1.264 -.89) scale(.10616)" d="M58.934 41.056l15.98-7.042c.98-.432 1.917.906 1.917 2.032v25.459c0 1.125-.926 2.434-1.918 2.031l-15.98-6.5c-.991-.404-1.917-.906-1.917-2.031V43.087c0-1.125.937-1.599 1.918-2.03z" fill="url(#h)" opacity=".654"/>
 </g>
 <path id="path121" d="M13.218 7.204c-2.095-.09-4.208-.487-6.287-1.135-.275-.09-.523-.217-.573-.561a15.274 15.274 0 01-.014-2.649c.034-.264.317-.366.558-.442 2.123-.652 4.323-1.113 6.75-1.157z" fill="#186ac7"/>
 <path id="path123" transform="translate(14.985 -.666) scale(.10616)" d="M-16.643 74.14c-19.733-.845-39.643-4.587-59.227-10.692-2.582-.858-4.924-2.05-5.395-5.288-.776-7.678-.797-17.273-.128-24.95.32-2.487 2.984-3.45 5.252-4.166 20-6.145 40.723-10.485 63.589-10.898z" fill="url(#i)"/>
 <path id="path125" transform="translate(14.985 -.666) scale(.10616)" d="M-16.643 74.14c-19.733-.845-39.643-4.587-59.227-10.692-2.582-.858-4.924-2.05-5.395-5.288-.776-7.678-.797-17.273-.128-24.95.32-2.487 2.984-3.45 5.252-4.166 20-6.145 40.723-10.485 63.589-10.898z" fill="url(#j)"/>
 <path id="path127" transform="translate(14.985 -.666) scale(.10616)" d="M-16.643 74.14c-19.733-.845-39.643-4.587-59.227-10.692-2.582-.858-4.924-2.05-5.395-5.288-.776-7.678-.797-17.273-.128-24.95.32-2.487 2.984-3.45 5.252-4.166 20-6.145 40.723-10.485 63.589-10.898z" fill="url(#k)"/>
 <path id="path129" transform="translate(14.985 -.666) scale(.10616)" d="M-67.578 26.548a310.687 310.687 0 00-8.563 2.496c-2.268.716-4.932 1.68-5.252 4.166-.336 3.863-.497 8.21-.476 12.555a12.017 12.017 0 006.433 1.883 12.017 12.017 0 0012.018-12.016 12.017 12.017 0 00-4.16-9.084z" fill="url(#l)" opacity=".392"/>
 <path id="path131" transform="translate(14.985 -.666) scale(.10616)" d="M-16.643 74.14c-19.733-.845-39.643-4.587-59.227-10.692-2.582-.858-4.924-2.05-5.395-5.288-.776-7.678-.797-17.273-.128-24.95.32-2.487 2.984-3.45 5.252-4.166 20-6.145 40.723-10.485 63.589-10.898z" fill="url(#m)" opacity=".315"/>
 <g id="g137" stroke-linecap="round" stroke-linejoin="round">
  <path id="path133" transform="matrix(-.10616 0 0 .10616 35.042 -.89)" d="M58.934 41.056l15.98-7.042c.98-.432 1.917.906 1.917 2.032v25.459c0 1.125-.926 2.434-1.918 2.031l-15.98-6.5c-.991-.404-1.917-.906-1.917-2.031V43.087c0-1.125.937-1.599 1.918-2.03z" fill="url(#f)" stroke="url(#g)"/>
  <path id="path135" transform="matrix(-.10616 0 0 .10616 35.042 -.89)" d="M58.934 41.056l15.98-7.042c.98-.432 1.917.906 1.917 2.032v25.459c0 1.125-.926 2.434-1.918 2.031l-15.98-6.5c-.991-.404-1.917-.906-1.917-2.031V43.087c0-1.125.937-1.599 1.918-2.03z" fill="url(#h)" opacity=".654"/>
 </g>
 <path id="path139" d="M20.56 7.204c2.095-.09 4.208-.487 6.287-1.135.275-.09.523-.217.573-.561.083-.815.085-1.834.014-2.649-.034-.264-.317-.366-.558-.442-2.123-.652-4.323-1.113-6.75-1.157z" fill="#186ac7"/>
 <path id="path141" transform="matrix(-.10616 0 0 .10616 18.793 -.666)" d="M-16.643 74.14c-19.733-.845-39.643-4.587-59.227-10.692-2.582-.858-4.924-2.05-5.395-5.288-.776-7.678-.797-17.273-.128-24.95.32-2.487 2.984-3.45 5.252-4.166 20-6.145 40.723-10.485 63.589-10.898z" fill="url(#i)"/>
 <path id="path143" transform="matrix(-.10616 0 0 .10616 18.793 -.666)" d="M-16.643 74.14c-19.733-.845-39.643-4.587-59.227-10.692-2.582-.858-4.924-2.05-5.395-5.288-.776-7.678-.797-17.273-.128-24.95.32-2.487 2.984-3.45 5.252-4.166 20-6.145 40.723-10.485 63.589-10.898z" fill="url(#j)"/>
 <path id="path145" transform="matrix(-.10616 0 0 .10616 18.793 -.666)" d="M-16.643 74.14c-19.733-.845-39.643-4.587-59.227-10.692-2.582-.858-4.924-2.05-5.395-5.288-.776-7.678-.797-17.273-.128-24.95.32-2.487 2.984-3.45 5.252-4.166 20-6.145 40.723-10.485 63.589-10.898z" fill="url(#k)"/>
 <path id="path147" transform="matrix(-.10616 0 0 .10616 18.793 -.666)" d="M-67.578 26.548a310.687 310.687 0 00-8.563 2.496c-2.268.716-4.932 1.68-5.252 4.166-.336 3.863-.497 8.21-.476 12.555a12.017 12.017 0 006.433 1.883 12.017 12.017 0 0012.018-12.016 12.017 12.017 0 00-4.16-9.084z" fill="url(#l)" opacity=".392"/>
 <path id="path149" transform="matrix(-.10616 0 0 .10616 18.793 -.666)" d="M-16.643 74.14c-19.733-.845-39.643-4.587-59.227-10.692-2.582-.858-4.924-2.05-5.395-5.288-.776-7.678-.797-17.273-.128-24.95.32-2.487 2.984-3.45 5.252-4.166 20-6.145 40.723-10.485 63.589-10.898z" fill="url(#m)" opacity=".315"/>
 <path id="path151" d="M13.774 15.748v6.67h-1.776c-.351.01-.498.455 0 .931l4.509 4.319a.639.639 0 00.443.185.639.639 0 00.443-.185l4.509-4.319c.497-.476.35-.921 0-.932h-1.776v-6.67z" fill="url(#n)"/>
 <path id="path153" d="M13.818.953c-1.63.553-.43 8.888-.108 14.518v2.067c0 .226.181.407.407.407h5.537a.406.406 0 00.407-.407v-1.737c-.04-2.994 1.82-14.33-.217-14.848z" fill="url(#o)"/>
</svg>
