<?xml version="1.0" encoding="UTF-8"?>
<svg id="svg1540" width="128" height="128" version="1.1" viewBox="0 0 33.867 33.867" xmlns="http://www.w3.org/2000/svg" xmlns:cc="http://creativecommons.org/ns#" xmlns:dc="http://purl.org/dc/elements/1.1/" xmlns:rdf="http://www.w3.org/1999/02/22-rdf-syntax-ns#" xmlns:xlink="http://www.w3.org/1999/xlink">
 <defs id="defs1534">
  <linearGradient id="linearGradient4677" x1="13.478" x2="4.3909" y1="30.914" y2="4.8062" gradientTransform="translate(-.063304 -.060688)" gradientUnits="userSpaceOnUse">
   <stop id="stop4671" stop-color="#d7742f" offset="0"/>
   <stop id="stop4673" stop-color="#ffec66" offset="1"/>
  </linearGradient>
  <linearGradient id="linearGradient1458" x1="17.202" x2="17.202" y1="28.288" y2="6.3047" gradientTransform="translate(-.063306 -.060688)" gradientUnits="userSpaceOnUse">
   <stop id="stop1452" stop-color="#0d0d0d" offset="0"/>
   <stop id="stop1454" stop-color="#3c3c3c" offset="1"/>
  </linearGradient>
  <linearGradient id="linearGradient1466" x1="17.267" x2="17.267" y1="26.283" y2="7.6411" gradientTransform="translate(-.063306 -.060688)" gradientUnits="userSpaceOnUse">
   <stop id="stop1460" stop-color="#343434" offset="0"/>
   <stop id="stop1462" stop-color="#0d0d0d" offset="1"/>
  </linearGradient>
 </defs>
 <metadata id="metadata1537">
  <rdf:RDF>
   <cc:Work rdf:about="">
    <dc:format>image/svg+xml</dc:format>
    <dc:type rdf:resource="http://purl.org/dc/dcmitype/StillImage"/>
    <dc:title/>
   </cc:Work>
  </rdf:RDF>
 </metadata>
 <g id="layer1">
  <g id="g1702" transform="matrix(.97573 0 0 .97573 -65.812 -37.264)" fill="none" opacity=".295" stroke="#000" stroke-linecap="round" stroke-linejoin="round" stroke-opacity=".02">
   <rect id="rect1634" x="69.84" y="40.71" width="29.811" height="29.811" rx="6.6099" ry="6.6099" stroke-width=".1"/>
   <rect id="rect1638" x="69.84" y="40.71" width="29.811" height="29.811" rx="6.6099" ry="6.6099" stroke-width=".2"/>
   <rect id="rect1640" x="69.84" y="40.71" width="29.811" height="29.811" rx="6.6099" ry="6.6099" stroke-width=".3"/>
   <rect id="rect1642" x="69.84" y="40.71" width="29.811" height="29.811" rx="6.6099" ry="6.6099" stroke-width=".4"/>
   <rect id="rect1644" x="69.84" y="40.71" width="29.811" height="29.811" rx="6.6099" ry="6.6099" stroke-width=".5"/>
   <rect id="rect1646" x="69.84" y="40.71" width="29.811" height="29.811" rx="6.6099" ry="6.6099" stroke-width=".6"/>
   <rect id="rect1648" x="69.84" y="40.71" width="29.811" height="29.811" rx="6.6099" ry="6.6099" stroke-width=".7"/>
   <rect id="rect1650" x="69.84" y="40.71" width="29.811" height="29.811" rx="6.6099" ry="6.6099" stroke-width=".8"/>
   <rect id="rect1652" x="69.84" y="40.71" width="29.811" height="29.811" rx="6.6099" ry="6.6099"/>
   <rect id="rect1654" x="69.84" y="40.71" width="29.811" height="29.811" rx="6.6099" ry="6.6099" stroke-width="1.2"/>
   <rect id="rect1656" x="69.84" y="40.71" width="29.811" height="29.811" rx="6.6099" ry="6.6099" stroke-width="1.4"/>
   <rect id="rect1658" x="69.84" y="40.71" width="29.811" height="29.811" rx="6.6099" ry="6.6099" stroke-width="1.6"/>
   <rect id="rect1660" x="69.84" y="40.71" width="29.811" height="29.811" rx="6.6099" ry="6.6099" stroke-width="1.8"/>
   <rect id="rect1662" x="69.84" y="40.71" width="29.811" height="29.811" rx="6.6099" ry="6.6099" stroke-width="2"/>
   <rect id="rect1664" x="69.84" y="40.71" width="29.811" height="29.811" rx="6.6099" ry="6.6099" stroke-width="2.2"/>
   <rect id="rect1666" x="69.84" y="40.71" width="29.811" height="29.811" rx="6.6099" ry="6.6099" stroke-width="2.6"/>
   <rect id="rect1668" x="69.84" y="40.71" width="29.811" height="29.811" rx="6.6099" ry="6.6099" stroke-width="3"/>
   <rect id="rect1670" x="69.84" y="40.71" width="29.811" height="29.811" rx="6.6099" ry="6.6099" stroke-width="3.4"/>
   <rect id="rect1672" x="69.84" y="40.71" width="29.811" height="29.811" rx="6.6099" ry="6.6099" stroke-width="3.8"/>
   <rect id="rect1674" x="69.84" y="40.71" width="29.811" height="29.811" rx="6.6099" ry="6.6099" stroke-width="4.2"/>
   <rect id="rect1676" x="69.84" y="40.71" width="29.811" height="29.811" rx="6.6099" ry="6.6099" stroke-width="4.6"/>
   <rect id="rect1678" x="69.84" y="40.71" width="29.811" height="29.811" rx="6.6099" ry="6.6099" stroke-width="5"/>
  </g>
  <rect id="rect849" x="2.333" y="2.4579" width="29.087" height="29.087" rx="6.4495" ry="6.4495" fill="url(#linearGradient4677)" stroke-linecap="round" stroke-linejoin="round" stroke-width="2.688"/>
  <rect id="rect1448" x="4.5208" y="5.0201" width="24.712" height="23.963" rx="4.0601" ry="4.0601" fill="url(#linearGradient1458)"/>
  <rect id="rect1450" x="6.8614" y="7.2898" width="20.031" height="19.424" rx="2.6569" ry="2.6569" fill="url(#linearGradient1466)"/>
  <path id="path957-9" d="m15.381 22.273 0.0094-0.50078-5.7012-0.10713-0.03144 0.41411c-0.017251 0.2276-0.013949 0.46234 0.0074 0.52132 0.03224 0.0891 0.51879 0.11415 2.8726 0.14025l2.8338 0.03304zm2.6874-4.002c0.02703-0.06652 0.05388-0.3768 0.05972-0.68951l0.01067-0.56854 1.3491-0.0194 0.01229-0.65488 0.01229-0.65486-1.3474-0.06992 0.01067-0.56851c0.01556-0.82881 0.03017-0.81201-0.71665-0.82604-0.74681-0.01403-0.73157-0.03042-0.74718 0.79853l-0.01066 0.56851-1.3491 0.0194-0.01228 0.65485-0.0123 0.65489 1.3474 0.06992-0.01066 0.56851c-0.01557 0.82877-0.03014 0.81198 0.71666 0.826 0.51105 0.0096 0.6482-0.01229 0.6874-0.10885zm-6.9211-0.66872c0.09706-0.0934 0.1267-0.29806 0.13918-0.96076l0.01582-0.84198 1.0575 0.02 0.54802 0.8637c0.30141 0.47502 0.61775 0.91449 0.70298 0.97656 0.22867 0.16668 1.4942 0.18291 1.5602 0.02011 0.02979-0.07354-0.19636-0.49268-0.59892-1.1095-0.35579-0.54517-0.64562-1.0259-0.64407-1.0682 0.0015-0.04248 0.14363-0.15392 0.31576-0.24802 1.0919-0.59664 1.2848-2.3876 0.35506-3.2953-0.33623-0.32827-0.62178-0.47049-1.1676-0.58216-0.58134-0.12019-3.2353-0.17218-3.437-0.06906-0.1449 0.07391-0.15264 0.19062-0.2083 3.1522-0.06629 3.5285-0.1329 3.2293 0.72342 3.2493 0.36744 0.0086 0.54977-0.02202 0.63783-0.10675zm0.19844-4.1157 0.01621-0.86205 0.93042 0.04501 0.93041 0.04502 0.22001 0.25559c0.30423 0.35358 0.29638 0.77242-0.02087 1.1146l-0.22934 0.24731-1.863 0.0164 0.01621-0.86206zm9.1005 1.2839c0.02705-0.06664 0.05387-0.37816 0.05978-0.69251l0.01073-0.57153 0.56307 0.0107c0.7806 0.01464 0.83784-0.03804 0.82267-0.75697l-0.01216-0.57656-1.3474-0.06992 0.01068-0.56855c0.01555-0.82876 0.03017-0.81196-0.71666-0.826-0.7468-0.01402-0.73165-0.0301-0.74717 0.7985l-0.01068 0.56855-1.3491 0.0194-0.03421 0.60924c-0.02442 0.43539-0.0061 0.62781 0.06439 0.67441 0.05406 0.03648 0.367 0.07179 0.69565 0.07758l0.59708 0.01232-0.01073 0.57153c-0.01563 0.83216-0.03049 0.81498 0.71659 0.82901 0.51106 0.0096 0.6482-0.01229 0.6874-0.10885z" fill="#fff" stroke-width=".57532"/>
 </g>
</svg>
