<?xml version="1.0" encoding="UTF-8"?>
<svg id="svg1443" width="128" height="128" version="1.1" viewBox="0 0 33.867 33.867" xmlns="http://www.w3.org/2000/svg" xmlns:cc="http://creativecommons.org/ns#" xmlns:dc="http://purl.org/dc/elements/1.1/" xmlns:rdf="http://www.w3.org/1999/02/22-rdf-syntax-ns#" xmlns:xlink="http://www.w3.org/1999/xlink">
 <defs id="defs1437">
  <linearGradient id="linearGradient1632" x1="132.21" x2="132.21" y1="42.152" y2="70.68" gradientTransform="matrix(.97573 0 0 .97573 -111.77 -37.183)" gradientUnits="userSpaceOnUse">
   <stop id="stop1626" stop-color="#fafafc" offset="0"/>
   <stop id="stop1628" stop-color="#e2e6ea" offset="1"/>
  </linearGradient>
  <linearGradient id="linearGradient881" x1="6.8212" x2="29.155" y1="3.5407" y2="40.177" gradientTransform="translate(.76636 .70792)" gradientUnits="userSpaceOnUse">
   <stop id="stop873" stop-color="#0780cf" offset="0"/>
   <stop id="stop883" stop-color="#5631bb" offset=".56796"/>
   <stop id="stop875" stop-color="#5206ac" stop-opacity="0" offset="1"/>
  </linearGradient>
  <linearGradient id="linearGradient912" x1="24.345" x2="29.94" y1="21.704" y2="30.039" gradientTransform="translate(.54772 -.34714)" gradientUnits="userSpaceOnUse">
   <stop id="stop906" stop-color="#e7654b" offset="0"/>
   <stop id="stop908" stop-color="#e9791e" offset="1"/>
  </linearGradient>
 </defs>
 <metadata id="metadata1440">
  <rdf:RDF>
   <cc:Work rdf:about="">
    <dc:format>image/svg+xml</dc:format>
    <dc:type rdf:resource="http://purl.org/dc/dcmitype/StillImage"/>
    <dc:title/>
   </cc:Work>
  </rdf:RDF>
 </metadata>
 <g id="layer1">
  <g id="g1702" transform="matrix(.97573 0 0 .97573 -65.737 -37.183)" fill="none" opacity=".295" stroke="#000" stroke-linecap="round" stroke-linejoin="round" stroke-opacity=".02">
   <rect id="rect1634" x="69.84" y="40.71" width="29.811" height="29.811" rx="6.6099" ry="6.6099" stroke-width=".1"/>
   <rect id="rect1638" x="69.84" y="40.71" width="29.811" height="29.811" rx="6.6099" ry="6.6099" stroke-width=".2"/>
   <rect id="rect1640" x="69.84" y="40.71" width="29.811" height="29.811" rx="6.6099" ry="6.6099" stroke-width=".3"/>
   <rect id="rect1642" x="69.84" y="40.71" width="29.811" height="29.811" rx="6.6099" ry="6.6099" stroke-width=".4"/>
   <rect id="rect1644" x="69.84" y="40.71" width="29.811" height="29.811" rx="6.6099" ry="6.6099" stroke-width=".5"/>
   <rect id="rect1646" x="69.84" y="40.71" width="29.811" height="29.811" rx="6.6099" ry="6.6099" stroke-width=".6"/>
   <rect id="rect1648" x="69.84" y="40.71" width="29.811" height="29.811" rx="6.6099" ry="6.6099" stroke-width=".7"/>
   <rect id="rect1650" x="69.84" y="40.71" width="29.811" height="29.811" rx="6.6099" ry="6.6099" stroke-width=".8"/>
   <rect id="rect1652" x="69.84" y="40.71" width="29.811" height="29.811" rx="6.6099" ry="6.6099"/>
   <rect id="rect1654" x="69.84" y="40.71" width="29.811" height="29.811" rx="6.6099" ry="6.6099" stroke-width="1.2"/>
   <rect id="rect1656" x="69.84" y="40.71" width="29.811" height="29.811" rx="6.6099" ry="6.6099" stroke-width="1.4"/>
   <rect id="rect1658" x="69.84" y="40.71" width="29.811" height="29.811" rx="6.6099" ry="6.6099" stroke-width="1.6"/>
   <rect id="rect1660" x="69.84" y="40.71" width="29.811" height="29.811" rx="6.6099" ry="6.6099" stroke-width="1.8"/>
   <rect id="rect1662" x="69.84" y="40.71" width="29.811" height="29.811" rx="6.6099" ry="6.6099" stroke-width="2"/>
   <rect id="rect1664" x="69.84" y="40.71" width="29.811" height="29.811" rx="6.6099" ry="6.6099" stroke-width="2.2"/>
   <rect id="rect1666" x="69.84" y="40.71" width="29.811" height="29.811" rx="6.6099" ry="6.6099" stroke-width="2.6"/>
   <rect id="rect1668" x="69.84" y="40.71" width="29.811" height="29.811" rx="6.6099" ry="6.6099" stroke-width="3"/>
   <rect id="rect1670" x="69.84" y="40.71" width="29.811" height="29.811" rx="6.6099" ry="6.6099" stroke-width="3.4"/>
   <rect id="rect1672" x="69.84" y="40.71" width="29.811" height="29.811" rx="6.6099" ry="6.6099" stroke-width="3.8"/>
   <rect id="rect1674" x="69.84" y="40.71" width="29.811" height="29.811" rx="6.6099" ry="6.6099" stroke-width="4.2"/>
   <rect id="rect1676" x="69.84" y="40.71" width="29.811" height="29.811" rx="6.6099" ry="6.6099" stroke-width="4.6"/>
   <rect id="rect1678" x="69.84" y="40.71" width="29.811" height="29.811" rx="6.6099" ry="6.6099" stroke-width="5"/>
  </g>
  <rect id="rect849" x="2.4074" y="2.5392" width="29.087" height="29.087" rx="6.4495" ry="6.4495" fill="url(#linearGradient1632)" stroke-linecap="round" stroke-linejoin="round" stroke-width="2.6877"/>
  <path id="path5892" d="m17.055 12.235s-0.27102-0.52507-0.28909-0.59749c-0.01796-0.07245-0.16262-0.81474-0.16262-0.81474l0.18069-0.32589 0.3975-0.59748 0.57819-0.45263 0.14455-0.05435 1.3913-0.52506 0.12649-0.12675-0.14455-0.21726-0.19875-0.10863-0.36474-0.09364-0.91374-0.09364-0.70905 6e-3 -0.48785 0.10863-0.43364-0.16293-0.54205-0.07245-0.79501-0.01822-0.39751-0.01822-0.66852 0.25347-1.0118 1.1769-0.12649 0.45263-0.07226 0.39832-0.3433 0.74233-0.21682 0.70611-0.10842 0.76043v0.16296l-0.52398 0.79663-0.28909 0.59749v0.85094l0.09033 1.7562 0.16262 0.63372 0.32523 0.57936 0.41557 0.38022 0.18068 0.7423 0.6866 1.5208 0.81308 0.97765 0.05417 0.05435 0.28909 1.4665-0.99376 1.8106-0.31196 0.24181-0.23387 0.18933-0.40105-0.01119-0.22372 0.11548-0.27137 0.01145-0.16397 0.1635-0.35107-0.0529-0.34716-0.01692-0.26782 0.21122-0.03855 0.31381 0.178-0.20148 0.29948-0.08721 0.03137 0.28803 0.47323-0.16074 0.27137-0.01145 0.47878 0.05727s0.41507-0.02712 0.48692-0.03493c0.07185-0.0078 0.51273 0.03527 0.51273 0.03527l0.32333-0.03519 0.17144 0.07245 0.2296-0.06146 0.24918 0.11863 0.35925-0.03905 0.04636-0.24181-0.0138-0.12599 0.24527 0.08257 0.19919 0.16046 0.12932 0.18628-0.0075-0.236-0.15705-0.27424s-0.10743-0.15226-0.17931-0.14442c-0.07185 0.0078-0.35108-0.0529-0.35108-0.0529l-0.19172 0.07554-0.20935-0.08658-0.20575 0.11355-0.18943-0.07057-0.09142-0.17212-0.13162-0.04043 0.14143-0.36881 0.32523-0.45377 0.43364-0.72422 0.37943-0.45266 0.14455-0.18102s0.18068-0.27155 0.18068-0.34399c0-0.07245 0.03616-0.83283 0.03616-0.83283l-0.23488-0.48886-0.10842-0.39834 2.0959 0.50699h0.12649l1.7888 1.2855 0.25295 0.32586 0.09033 1.2853-0.03616 0.28969-0.12649 0.23538-0.09043 0.14487-0.07812 0.20323-0.05336 0.13588-0.33197 0.1029-0.33744-0.06086-0.20448-0.02525-0.37551 0.05435-0.15806 0.16923-0.06081 0.2101 0.04904 0.21242 0.07875-0.21263 0.10699-0.14356 0.10472-0.03332 0.0081 0.18175 0.14075 0.08934 0.29101-0.1336 0.14307-0.02083 0.04644 0.19451 0.43695-0.0086 0.29619-0.0978 0.24285 0.03803 0.35273 0.04035 0.12261-0.03579 0.09689-0.08718 0.15661 0.32485 0.0021-0.36616-0.15171-0.41704-0.22007-0.13274 0.03712-0.10912-0.16262-0.30774 0.01796-1.1768 0.90342 1.0683 1.1925 0.94149s0.81308 0.28972 0.88534 0.28972c0.07226 0 0.6324-0.07245 0.6324-0.07245l0.36137-0.59748-0.27102-0.81474 0.1084-0.27163-0.57819-0.76036-1.2248-1.2471-0.29291-0.97984 0.01796-0.66991-0.27102-0.70613-0.30716-0.56122 0.18069-0.56123-0.14455-0.8147-0.61618-1.387 0.22762-0.03845-0.382-0.6613 0.24819-0.0788-0.43628-0.7112 0.1835-0.09892-0.32702-0.5369 0.10662-0.05974-0.39573-0.32052 0.14455-0.07513-1.0299-0.72153z" fill="url(#linearGradient881)"/>
  <g id="g943" transform="translate(.54772 -.34714)" fill="#081633" fill-opacity=".13749" opacity=".12684" shape-rendering="auto">
   <path id="path925" d="m25.684 17.729c-0.22438 0-0.45108 0.07084-0.64062 0.20898v-2e-3c-0.68326 0.4974-2.8405 1.8934-5.3789 2.1309-0.65428 0.06098-1.1663 0.61593-1.1777 1.2715a0.65154 0.65154 0 0 0 0 2e-3c-0.01724 1.1246 0.05555 3.5574 0.94141 5.9844 0.88585 2.427 2.6545 4.8863 5.9219 5.7637a0.65154 0.65154 0 0 0 2e-3 0c0.21811 0.05814 0.44595 0.05814 0.66406 0a0.65154 0.65154 0 0 0 2e-3 0c3.2675-0.87665 5.0359-3.3346 5.9219-5.7617 0.88595-2.4271 0.95984-4.8622 0.94336-5.9863-0.0084-0.65936-0.52365-1.2125-1.1777-1.2734h-2e-3c-2.5361-0.23785-4.6902-1.6301-5.377-2.1289-0.19089-0.13918-0.41825-0.20898-0.64258-0.20898zm0 1.3359c0.84628 0.60549 3.0509 2.0293 5.8965 2.2969 0.01505 1.0335-0.06935 3.3372-0.86523 5.5176-0.79544 2.1792-2.2316 4.1959-5.0273 4.9492v2e-3c-0.0015-4.07e-4 -0.0024-0.0015-0.0039-2e-3 -6.35e-4 7.5e-5 -0.0011-2.28e-4 -2e-3 0-2.7971-0.7536-4.2338-2.7698-5.0293-4.9492-0.79577-2.1802-0.87902-4.4846-0.86328-5.5176 2.8457-0.26755 5.0486-1.6907 5.8945-2.2969z" color="#000000" color-rendering="auto" dominant-baseline="auto" image-rendering="auto" solid-color="#000000" stop-color="#000000" style="font-feature-settings:normal;font-variant-alternates:normal;font-variant-caps:normal;font-variant-east-asian:normal;font-variant-ligatures:normal;font-variant-numeric:normal;font-variant-position:normal;font-variation-settings:normal;inline-size:0;isolation:auto;mix-blend-mode:normal;shape-margin:0;shape-padding:0;text-decoration-color:#000000;text-decoration-line:none;text-decoration-style:solid;text-indent:0;text-orientation:mixed;text-transform:none;white-space:normal"/>
   <path id="path927" d="m25.511 18.004c-0.22438 0-0.45108 0.07084-0.64062 0.20898v-2e-3c-0.68326 0.4974-2.8405 1.8934-5.3789 2.1309-0.65428 0.06098-1.1663 0.61593-1.1777 1.2715a0.65154 0.65154 0 0 0 0 2e-3c-0.01724 1.1246 0.05555 3.5574 0.94141 5.9844 0.88585 2.427 2.6545 4.8863 5.9219 5.7637a0.65154 0.65154 0 0 0 2e-3 0c0.21811 0.05814 0.44595 0.05814 0.66406 0a0.65154 0.65154 0 0 0 2e-3 0c3.2675-0.87665 5.0359-3.3346 5.9219-5.7617 0.88595-2.4271 0.95984-4.8622 0.94336-5.9863-0.0084-0.65936-0.52365-1.2125-1.1777-1.2734h-2e-3c-2.5361-0.23785-4.6902-1.6301-5.377-2.1289-0.19089-0.13918-0.41825-0.20898-0.64258-0.20898zm0 1.3359c0.84628 0.60549 3.0509 2.0293 5.8965 2.2969 0.01505 1.0335-0.06935 3.3372-0.86523 5.5176-0.79544 2.1792-2.2316 4.1959-5.0273 4.9492v2e-3c-0.0015-4.07e-4 -0.0024-0.0015-0.0039-2e-3 -6.35e-4 7.5e-5 -0.0011-2.28e-4 -2e-3 0-2.7971-0.7536-4.2338-2.7698-5.0293-4.9492-0.79577-2.1802-0.87902-4.4846-0.86328-5.5176 2.8457-0.26755 5.0486-1.6907 5.8945-2.2969z" color="#000000" color-rendering="auto" dominant-baseline="auto" image-rendering="auto" solid-color="#000000" stop-color="#000000" style="font-feature-settings:normal;font-variant-alternates:normal;font-variant-caps:normal;font-variant-east-asian:normal;font-variant-ligatures:normal;font-variant-numeric:normal;font-variant-position:normal;font-variation-settings:normal;inline-size:0;isolation:auto;mix-blend-mode:normal;shape-margin:0;shape-padding:0;text-decoration-color:#000000;text-decoration-line:none;text-decoration-style:solid;text-indent:0;text-orientation:mixed;text-transform:none;white-space:normal"/>
   <path id="path929" d="m25.355 18.451c-0.22438 0-0.45108 0.07084-0.64062 0.20898v-2e-3c-0.68326 0.4974-2.8405 1.8934-5.3789 2.1309-0.65428 0.06098-1.1663 0.61593-1.1777 1.2715a0.65154 0.65154 0 0 0 0 2e-3c-0.01724 1.1246 0.05555 3.5574 0.94141 5.9844 0.88585 2.427 2.6545 4.8863 5.9219 5.7637a0.65154 0.65154 0 0 0 2e-3 0c0.21811 0.05814 0.44595 0.05814 0.66406 0a0.65154 0.65154 0 0 0 2e-3 0c3.2675-0.87665 5.0359-3.3346 5.9219-5.7617 0.88595-2.4271 0.95984-4.8622 0.94336-5.9863-0.0084-0.65936-0.52365-1.2125-1.1777-1.2734h-2e-3c-2.5361-0.23785-4.6902-1.6301-5.377-2.1289-0.19089-0.13918-0.41825-0.20898-0.64258-0.20898zm0 1.3359c0.84628 0.60549 3.0509 2.0293 5.8965 2.2969 0.01505 1.0335-0.06935 3.3372-0.86523 5.5176-0.79544 2.1792-2.2316 4.1959-5.0273 4.9492v2e-3c-0.0015-4.07e-4 -0.0024-0.0015-0.0039-2e-3 -6.35e-4 7.5e-5 -0.0011-2.28e-4 -2e-3 0-2.7971-0.7536-4.2338-2.7698-5.0293-4.9492-0.79577-2.1802-0.87902-4.4846-0.86328-5.5176 2.8457-0.26755 5.0486-1.6907 5.8945-2.2969z" color="#000000" color-rendering="auto" dominant-baseline="auto" image-rendering="auto" solid-color="#000000" stop-color="#000000" style="font-feature-settings:normal;font-variant-alternates:normal;font-variant-caps:normal;font-variant-east-asian:normal;font-variant-ligatures:normal;font-variant-numeric:normal;font-variant-position:normal;font-variation-settings:normal;inline-size:0;isolation:auto;mix-blend-mode:normal;shape-margin:0;shape-padding:0;text-decoration-color:#000000;text-decoration-line:none;text-decoration-style:solid;text-indent:0;text-orientation:mixed;text-transform:none;white-space:normal"/>
   <path id="path931" d="m25.159 18.773c-0.22438 0-0.45108 0.07084-0.64062 0.20898v-2e-3c-0.68326 0.4974-2.8405 1.8934-5.3789 2.1309-0.65428 0.06098-1.1663 0.61593-1.1777 1.2715a0.65154 0.65154 0 0 0 0 2e-3c-0.01724 1.1246 0.05555 3.5574 0.94141 5.9844 0.88585 2.427 2.6545 4.8863 5.9219 5.7637a0.65154 0.65154 0 0 0 2e-3 0c0.21811 0.05814 0.44595 0.05814 0.66406 0a0.65154 0.65154 0 0 0 2e-3 0c3.2675-0.87665 5.0359-3.3346 5.9219-5.7617 0.88595-2.4271 0.95984-4.8622 0.94336-5.9863-0.0084-0.65936-0.52365-1.2125-1.1777-1.2734h-2e-3c-2.5361-0.23785-4.6902-1.6301-5.377-2.1289-0.19089-0.13918-0.41825-0.20898-0.64258-0.20898zm0 1.3359c0.84628 0.60549 3.0509 2.0293 5.8965 2.2969 0.01505 1.0335-0.06935 3.3372-0.86523 5.5176-0.79544 2.1792-2.2316 4.1959-5.0273 4.9492v2e-3c-0.0015-4.07e-4 -0.0024-0.0015-0.0039-2e-3 -6.35e-4 7.5e-5 -0.0011-2.28e-4 -2e-3 0-2.7971-0.7536-4.2338-2.7698-5.0293-4.9492-0.79577-2.1802-0.87902-4.4846-0.86328-5.5176 2.8457-0.26755 5.0486-1.6907 5.8945-2.2969z" color="#000000" color-rendering="auto" dominant-baseline="auto" image-rendering="auto" solid-color="#000000" stop-color="#000000" style="font-feature-settings:normal;font-variant-alternates:normal;font-variant-caps:normal;font-variant-east-asian:normal;font-variant-ligatures:normal;font-variant-numeric:normal;font-variant-position:normal;font-variation-settings:normal;inline-size:0;isolation:auto;mix-blend-mode:normal;shape-margin:0;shape-padding:0;text-decoration-color:#000000;text-decoration-line:none;text-decoration-style:solid;text-indent:0;text-orientation:mixed;text-transform:none;white-space:normal"/>
  </g>
  <path id="path916" d="m26.497 17.977c-0.09053 0-0.18066 0.0279-0.25754 0.08394-0.73434 0.53459-2.9664 1.996-5.7011 2.2518-0.32909 0.03019-0.58178 0.30357-0.58752 0.63409-0.03307 2.157 0.31302 9.4799 6.3817 11.11 0.10778 0.02873 0.22163 0.02873 0.3294 0 6.0687-1.6282 6.4145-8.9525 6.3829-11.11-0.0042-0.33052-0.25846-0.6039-0.58753-0.63409-2.7347-0.2558-4.9665-1.7172-5.7022-2.2518-0.07687-0.05605-0.16758-0.08394-0.25812-0.08394z" color="#000000" color-rendering="auto" dominant-baseline="auto" fill="url(#linearGradient912)" image-rendering="auto" shape-rendering="auto" solid-color="#000000" stop-color="#000000" style="font-feature-settings:normal;font-variant-alternates:normal;font-variant-caps:normal;font-variant-east-asian:normal;font-variant-ligatures:normal;font-variant-numeric:normal;font-variant-position:normal;font-variation-settings:normal;inline-size:0;isolation:auto;mix-blend-mode:normal;shape-margin:0;shape-padding:0;text-decoration-color:#000000;text-decoration-line:none;text-decoration-style:solid;text-indent:0;text-orientation:mixed;text-transform:none;white-space:normal"/>
  <g id="text864" transform="matrix(.55264 0 0 .76798 2.5838 1.2412)" fill="#fff" stroke-width=".19435" aria-label="VPN">
   <path id="path866" d="m34.286 28.306h1.469l1.5032 4.1832 1.4994-4.1832h1.469l-2.0992 5.6674h-1.7424z"/>
   <path id="path868" d="m40.978 28.306h2.4256q1.0819 0 1.6588 0.48209 0.58079 0.4783 0.58079 1.3666 0 0.89206-0.58079 1.3741-0.57699 0.47829-1.6588 0.47829h-0.96418v1.9663h-1.4615zm1.4615 1.0591v1.5829h0.80855q0.42515 0 0.65671-0.20498 0.23156-0.20878 0.23156-0.58838t-0.23156-0.58458q-0.23156-0.20498-0.65671-0.20498z"/>
   <path id="path870" d="m46.676 28.306h1.6323l2.0612 3.8871v-3.8871h1.3855v5.6674h-1.6323l-2.0612-3.8871v3.8871h-1.3855z"/>
  </g>
  <path id="path920" d="m26.497 18.137c-0.20078 0-0.40364 0.06339-0.57325 0.187v-0.0017c-0.6114 0.44509-2.5418 1.6943-4.8132 1.9067-0.58547 0.05457-1.0437 0.55115-1.0539 1.1378a0.58301 0.58301 0 0 0 0 0.0017c-0.01543 1.0064 0.04971 3.1832 0.84239 5.355 0.79268 2.1717 2.3753 4.3724 5.299 5.1575a0.58301 0.58301 0 0 0 0.0017 0c0.19517 0.05203 0.39905 0.05203 0.59422 0a0.58301 0.58301 0 0 0 0.0017 0c2.9238-0.78445 4.5063-2.9839 5.299-5.1557 0.79277-2.1719 0.85888-4.3508 0.84414-5.3567-0.0075-0.59001-0.46858-1.0849-1.0539-1.1395h-0.0017c-2.2693-0.21283-4.1968-1.4586-4.8114-1.905-0.17081-0.12455-0.37426-0.187-0.575-0.187zm0 1.1954c0.75728 0.5418 2.73 1.8159 5.2763 2.0553 0.01347 0.92483-0.06205 2.9862-0.77423 4.9373-0.71178 1.95-1.9969 3.7546-4.4986 4.4287v0.0017c-0.0014-3.65e-4 -0.0021-0.0014-0.0035-0.0017-5.68e-4 6.7e-5 -9.85e-4 -2.04e-4 -0.0017 0-2.5029-0.67434-3.7885-2.4785-4.5003-4.4287-0.71208-1.9509-0.78657-4.0129-0.77248-4.9373 2.5464-0.23941 4.5176-1.5129 5.2746-2.0553z" color="#000000" color-rendering="auto" dominant-baseline="auto" fill="#111" fill-opacity=".038387" image-rendering="auto" shape-rendering="auto" solid-color="#000000" stop-color="#000000" style="font-feature-settings:normal;font-variant-alternates:normal;font-variant-caps:normal;font-variant-east-asian:normal;font-variant-ligatures:normal;font-variant-numeric:normal;font-variant-position:normal;font-variation-settings:normal;inline-size:0;isolation:auto;mix-blend-mode:normal;shape-margin:0;shape-padding:0;text-decoration-color:#000000;text-decoration-line:none;text-decoration-style:solid;text-indent:0;text-orientation:mixed;text-transform:none;white-space:normal"/>
  <path id="path918" d="m26.497 17.327c-0.22438 0-0.45108 0.07084-0.64062 0.20898v-2e-3c-0.68326 0.4974-2.8405 1.8934-5.3789 2.1309-0.65428 0.06098-1.1663 0.61593-1.1777 1.2715a0.65154 0.65154 0 0 0 0 2e-3c-0.01724 1.1246 0.05555 3.5574 0.94141 5.9844 0.88585 2.427 2.6545 4.8863 5.9219 5.7637a0.65154 0.65154 0 0 0 2e-3 0c0.21811 0.05814 0.44595 0.05814 0.66406 0a0.65154 0.65154 0 0 0 2e-3 0c3.2675-0.87665 5.0359-3.3346 5.9219-5.7617 0.88595-2.4271 0.95984-4.8622 0.94336-5.9863-0.0084-0.65936-0.52365-1.2125-1.1777-1.2734h-2e-3c-2.5361-0.23785-4.6902-1.6301-5.377-2.1289-0.19089-0.13918-0.41825-0.20898-0.64258-0.20898zm0 1.3359c0.84628 0.60549 3.0509 2.0293 5.8965 2.2969 0.01505 1.0335-0.06935 3.3372-0.86523 5.5176-0.79544 2.1792-2.2316 4.1959-5.0273 4.9492v2e-3c-0.0015-4.07e-4 -0.0024-0.0015-0.0039-2e-3 -6.35e-4 7.5e-5 -0.0011-2.28e-4 -2e-3 0-2.7971-0.7536-4.2338-2.7698-5.0293-4.9492-0.79577-2.1802-0.87902-4.4846-0.86328-5.5176 2.8457-0.26755 5.0486-1.6907 5.8945-2.2969z" color="#000000" color-rendering="auto" dominant-baseline="auto" fill="#fff" image-rendering="auto" shape-rendering="auto" solid-color="#000000" stop-color="#000000" style="font-feature-settings:normal;font-variant-alternates:normal;font-variant-caps:normal;font-variant-east-asian:normal;font-variant-ligatures:normal;font-variant-numeric:normal;font-variant-position:normal;font-variation-settings:normal;inline-size:0;isolation:auto;mix-blend-mode:normal;shape-margin:0;shape-padding:0;text-decoration-color:#000000;text-decoration-line:none;text-decoration-style:solid;text-indent:0;text-orientation:mixed;text-transform:none;white-space:normal"/>
 </g>
</svg>
