<?xml version="1.0" encoding="UTF-8"?>
<svg id="svg35" width="64" height="64" version="1.1" viewBox="0 0 64 64" xmlns="http://www.w3.org/2000/svg">
 <defs id="defs7">
  <filter id="filter1057-9" x="-.027" y="-.027" width="1.054" height="1.054" color-interpolation-filters="sRGB">
   <feGaussianBlur id="feGaussianBlur1504" stdDeviation="0.61875"/>
  </filter>
  <linearGradient id="linearGradient1053-1" x1="-127" x2="-72" y1="60" y2="5" gradientTransform="matrix(1 0 0 1 131.5 -.51019)" gradientUnits="userSpaceOnUse">
   <stop id="stop1507" stop-color="#1d2123" offset="0"/>
   <stop id="stop1509" stop-color="#33393e" stop-opacity=".99608" offset="1"/>
  </linearGradient>
 </defs>
 <rect id="rect1516" transform="matrix(1 0 0 1 -100.82 -.63473)" x="105.32" y="5.1345" width="55" height="55" ry="15" fill="#141414" filter="url(#filter1057-9)" opacity=".3" stroke-linecap="round" stroke-width="2.7444"/>
 <rect id="rect1518" x="4.5075" y="4.4998" width="55.001" height="55.001" ry="15" fill="url(#linearGradient1053-1)" stroke-linecap="round" stroke-width="2.7444"/>
 <g id="g1768" transform="matrix(1.0828 0 0 1.0828 -1.9938 -1.9938)" stroke-width="1.2121">
  <path id="path918" d="m30.181 24.121h2.4242v-8.4848h-2.4242z" fill="#7c5d46"/>
  <path id="path920" d="m24.847 22.909-1.3333 1.2121 1.3333 1.3333 1.3333-1.3333s2.7891 0 2.7891 1.2121v7.2727l2.423 18.182 2.4242-18.182 0.0012-7.2727c0-1.2121 2.7891-1.2121 2.7891-1.2121l1.3333 1.3333 1.3333-1.3333-1.3333-1.2121" fill="#dfdfdf" fill-opacity=".941"/>
  <circle id="circle922" cx="31.393" cy="14.424" r="2.4242" fill="#d3d4d5"/>
  <path id="path924" d="m28.969 25.333 2.4242 4.8485v20.606l-3.6364-6.0606 1.2121-2.4242v-7.2727l-1.2121-1.2121 1.2121-1.2121z" fill="#e2e3e4"/>
  <path id="path926" d="m31.393 30.182 2.4242-4.8485v16.97l1.2121 2.4242-3.6364 6.0606z" fill="#bfc0c1"/>
  <path id="path928" d="m37.453 27.758c-2.197 2.4242-3.6434 3.4521-6.0606 3.6364-1.5096 0.11508-2.9748 2.2921-3.6364 4.8485-0.33549 1.2964-1.6716 0.98485-2.4242-1.2121 0 4.8485 2.4242 4.8485 2.4242 6.0606 0 1.2121-2.8107 2.5464-2.4242 0-1.2121 1.2121-1.2121 2.0124-1.2121 2.4242 0 2.4242 3.0303 2.657 3.6364 3.6364 1.5154 2.4487 3.0044 3.5457 3.6364 3.6364 1.2121 0 3.7928-0.69115 4.8485-2.4242-0.84102-0.66105-1.2121-1.2121-1.2121-2.4242 0-1.5153 2.7601-3.0967 3.5156-5.3338 0 0 0.12073-0.31558 0.12073-0.7268 0-1.1344-0.48616-1.7697-0.74811-1.9673-0.5239-0.39526-1.2234-0.21645-1.6761 0.75521 1.2121 0 1.2985 0.9706 1.2121 1.2121-0.59943 1.6752-2.4242 1.4987-2.4242 0 0-2.4242 0.88068-3.4901 2.4242-4.8485-1.2121 0-1.2121-0.9934-1.2121-1.2121 0-1.7008 1.1791-2.4242 1.2121-6.0606zm-9.697 3.6364c-1.7993 0-2.4242 1.036-2.4242 2.4242 0.55492-0.92802 1.9697-1.4811 2.4242-2.4242z" fill="#fda117" fill-opacity=".68627"/>
  <path id="path930" d="m33.817 30.788c-0.38376 0.17983-0.78724 0.3088-1.2098 0.40956-8.85e-4 3.7018-0.0024 7.4035-0.0024 11.106v0.28646l1.0417 2.0857-2.2538 3.7571-2.2538-3.7571 1.0417-2.0857v-8.0611l-0.71023-0.71023 0.71023-0.71023v-1.179c-0.68494 0.53576-1.3139 1.4274-1.7993 2.5142l0.58713 0.58713v7.2727l-1.2121 2.4242 3.6364 6.0606 3.6364-6.0606-1.2121-2.4242v-11.515z" fill="#f8f828" opacity=".1"/>
 </g>
</svg>
