<svg width="128" height="128" viewBox="0 0 33.867 33.867" xmlns:xlink="http://www.w3.org/1999/xlink" xmlns="http://www.w3.org/2000/svg"><defs><linearGradient xlink:href="#a" id="m" x1="17.651" y1="31.189" x2="17.651" y2="22.496" gradientUnits="userSpaceOnUse" gradientTransform="translate(.005 -.123)"/><linearGradient id="a"><stop style="stop-color:#464646;stop-opacity:1" offset="0"/><stop style="stop-color:#393939;stop-opacity:.94999999" offset="1"/></linearGradient><linearGradient gradientUnits="userSpaceOnUse" gradientTransform="translate(-31.346 .868) scale(.2029)" y2="131.04" y1="131.04" x2="173.32" x1="242.09" id="n"><stop offset="0" stop-color="#8a8a8a"/><stop offset="1" stop-color="#3d3c3c"/></linearGradient><linearGradient xlink:href="#b" id="v" x1="27.756" y1="23.969" x2="27.756" y2="22.332" gradientUnits="userSpaceOnUse"/><linearGradient id="b"><stop style="stop-color:#646464;stop-opacity:1" offset="0"/><stop style="stop-color:#c9c9c9;stop-opacity:.92941177" offset="1"/></linearGradient><linearGradient xlink:href="#c" id="w" gradientUnits="userSpaceOnUse" gradientTransform="translate(-121.153 -30.8) scale(3.77501)" x1="38.364" y1="15.17" x2="39.951" y2="15.17"/><linearGradient gradientUnits="userSpaceOnUse" gradientTransform="translate(-121.153 -30.8) scale(3.77501)" y2="15.17" y1="15.17" x2="39.951" x1="38.364" id="c"><stop offset="0" stop-color="#2d2e30"/><stop offset=".334" stop-opacity="0" stop-color="#5d5c5b"/><stop offset=".502" stop-opacity="0" stop-color="#7a7b7b"/><stop offset=".686" stop-opacity="0" stop-color="#555"/><stop offset="1" stop-color="#70787e"/></linearGradient><linearGradient id="q" x1="120.59" x2="118.64" y1="137.54" y2="139.07" gradientTransform="translate(-46.262)" gradientUnits="userSpaceOnUse" xlink:href="#d"/><linearGradient id="d"><stop offset="0"/><stop stop-color="#313131" offset="1"/></linearGradient><linearGradient id="r" x1="120.59" x2="118.64" y1="137.54" y2="139.07" gradientTransform="translate(-39.989)" gradientUnits="userSpaceOnUse" xlink:href="#d"/><linearGradient id="s" x1="120.59" x2="118.64" y1="137.54" y2="139.07" gradientTransform="translate(-33.717)" gradientUnits="userSpaceOnUse" xlink:href="#d"/><linearGradient id="t" x1="120.59" x2="118.64" y1="137.54" y2="139.07" gradientTransform="translate(-27.445)" gradientUnits="userSpaceOnUse" xlink:href="#d"/><linearGradient id="u" x1="120.59" x2="118.64" y1="137.54" y2="139.07" gradientTransform="translate(-21.173)" gradientUnits="userSpaceOnUse" xlink:href="#d"/><linearGradient xlink:href="#e" id="x" x1="15.465" y1="6.379" x2="15.465" y2="25.557" gradientUnits="userSpaceOnUse" gradientTransform="translate(.005 -.123)"/><linearGradient id="e"><stop style="stop-color:#dce2e4;stop-opacity:1" offset="0"/><stop style="stop-color:#c0d5dc;stop-opacity:1" offset="1"/></linearGradient><linearGradient gradientUnits="userSpaceOnUse" gradientTransform="matrix(.19419 0 0 .18084 -27.929 2.078)" y2="58.879" y1="58.879" x2="177.35" x1="285.3" id="y"><stop offset="0" stop-color="#3e3f41"/><stop offset=".148" stop-color="#f6f7f7"/><stop offset=".55" stop-color="#8396a5"/><stop offset="1" stop-color="#50484b"/></linearGradient><linearGradient gradientUnits="userSpaceOnUse" gradientTransform="matrix(.19419 0 0 .18084 -27.929 2.078)" y2="111.87" y1="18.634" x2="239.69" x1="237.32" id="z"><stop offset="0" stop-color="#9fa6aa"/><stop offset="1" stop-color="#c2d5dc"/></linearGradient><linearGradient xlink:href="#f" id="A" gradientUnits="userSpaceOnUse" x1="9.096" y1="88.518" x2="119.033" y2="88.518" gradientTransform="translate(.005 -.123) scale(.26458)"/><linearGradient id="f"><stop style="stop-color:#556870;stop-opacity:1" offset="0"/><stop offset=".117" style="stop-color:#a7b5bb;stop-opacity:1"/><stop offset=".544" style="stop-color:#6b797f;stop-opacity:1"/><stop offset=".889" style="stop-color:#93a5ad;stop-opacity:1"/><stop style="stop-color:#52646c;stop-opacity:1" offset="1"/></linearGradient><linearGradient id="k"><stop offset="0" style="stop-color:#000;stop-opacity:1"/><stop style="stop-color:#000;stop-opacity:.87843137" offset=".592"/><stop offset=".648" style="stop-color:#000;stop-opacity:.56470588"/><stop style="stop-color:#000;stop-opacity:.5254902" offset=".682"/><stop offset=".727" style="stop-color:#000;stop-opacity:.44313725"/><stop offset=".795" style="stop-color:#000;stop-opacity:.28627451"/><stop offset=".843" style="stop-color:#000;stop-opacity:.18431373"/><stop style="stop-color:#000;stop-opacity:.07843137" offset=".903"/><stop offset=".92" style="stop-color:#000;stop-opacity:.0627451"/><stop offset=".931" style="stop-color:#000;stop-opacity:.05490196"/><stop offset=".956" style="stop-color:#000;stop-opacity:.03137255"/><stop offset=".961" style="stop-color:#000;stop-opacity:.02745098"/><stop offset=".992" style="stop-color:#000;stop-opacity:0"/><stop offset="1" style="stop-color:#000;stop-opacity:0"/></linearGradient><linearGradient id="l"><stop style="stop-color:#000;stop-opacity:1" offset="0"/><stop offset=".716" style="stop-color:#000;stop-opacity:.7876448"/><stop style="stop-color:#000;stop-opacity:.6745098" offset=".746"/><stop offset=".763" style="stop-color:#000;stop-opacity:.61960784"/><stop offset=".786" style="stop-color:#000;stop-opacity:.54509804"/><stop style="stop-color:#000;stop-opacity:.48627451" offset=".807"/><stop offset=".862" style="stop-color:#000;stop-opacity:.29803922"/><stop offset=".89" style="stop-color:#000;stop-opacity:.18823529"/><stop offset=".924" style="stop-color:#000;stop-opacity:.08235294"/><stop offset=".943" style="stop-color:#000;stop-opacity:.04313725"/><stop style="stop-color:#000;stop-opacity:.03137255" offset=".956"/><stop style="stop-color:#000;stop-opacity:.02745098" offset=".961"/><stop style="stop-color:#000;stop-opacity:0" offset=".992"/><stop style="stop-color:#000;stop-opacity:0" offset="1"/></linearGradient><linearGradient xlink:href="#g" id="D" x1="55.195" y1="11.817" x2="55.195" y2="26.316" gradientUnits="userSpaceOnUse" gradientTransform="translate(-32.096 5.543)"/><linearGradient id="g"><stop style="stop-color:#37cbfb;stop-opacity:1" offset="0"/><stop style="stop-color:#0c69f5;stop-opacity:1" offset="1"/></linearGradient><linearGradient xlink:href="#h" id="E" x1="25.09" y1="27.948" x2="24.908" y2="21.995" gradientUnits="userSpaceOnUse" gradientTransform="translate(.005 -.123)"/><linearGradient id="h"><stop style="stop-color:#c9e1fd;stop-opacity:1" offset="0"/><stop style="stop-color:#fff;stop-opacity:1" offset="1"/></linearGradient><linearGradient xlink:href="#i" id="F" x1="167.682" y1="75.318" x2="148.326" y2="75.318" gradientUnits="userSpaceOnUse"/><linearGradient id="i"><stop style="stop-color:#e7eaeb;stop-opacity:1" offset="0"/><stop style="stop-color:#7d8384;stop-opacity:1" offset="1"/></linearGradient><linearGradient xlink:href="#j" id="G" x1="134.746" y1="63.39" x2="135.254" y2="83.39" gradientUnits="userSpaceOnUse"/><linearGradient id="j"><stop style="stop-color:#ced7d8;stop-opacity:1" offset="0"/><stop style="stop-color:#8ba1a8;stop-opacity:1" offset="1"/></linearGradient><linearGradient xlink:href="#b" id="o" gradientUnits="userSpaceOnUse" x1="27.756" y1="23.969" x2="27.756" y2="22.332"/><linearGradient xlink:href="#c" id="p" gradientUnits="userSpaceOnUse" gradientTransform="translate(-121.153 -30.8) scale(3.77501)" x1="38.364" y1="15.17" x2="39.951" y2="15.17"/><radialGradient r="9.633" fy="24.25" fx="24.249" cy="24.25" cx="24.249" gradientTransform="matrix(.901 0 0 .901 3.063 3.158)" gradientUnits="userSpaceOnUse" id="B" xlink:href="#k"/><radialGradient r="9.633" fy="24.25" fx="24.249" cy="24.25" cx="24.249" gradientTransform="translate(-.067 .078) scale(1.00252)" gradientUnits="userSpaceOnUse" id="C" xlink:href="#l"/></defs><g style="opacity:.296765" transform="translate(-65.743 -37.326) scale(.97573)"><rect ry="6.61" rx="6.61" y="40.71" x="69.84" height="29.811" width="29.811" style="fill:none;fill-opacity:1;stroke:#000;stroke-width:.1;stroke-linecap:round;stroke-linejoin:round;stroke-miterlimit:4;stroke-dasharray:none;stroke-opacity:.02"/><rect style="fill:none;fill-opacity:1;stroke:#000;stroke-width:.2;stroke-linecap:round;stroke-linejoin:round;stroke-miterlimit:4;stroke-dasharray:none;stroke-opacity:.02" width="29.811" height="29.811" x="69.84" y="40.71" rx="6.61" ry="6.61"/><rect ry="6.61" rx="6.61" y="40.71" x="69.84" height="29.811" width="29.811" style="fill:none;fill-opacity:1;stroke:#000;stroke-width:.3;stroke-linecap:round;stroke-linejoin:round;stroke-miterlimit:4;stroke-dasharray:none;stroke-opacity:.02"/><rect style="fill:none;fill-opacity:1;stroke:#000;stroke-width:.4;stroke-linecap:round;stroke-linejoin:round;stroke-miterlimit:4;stroke-dasharray:none;stroke-opacity:.02" width="29.811" height="29.811" x="69.84" y="40.71" rx="6.61" ry="6.61"/><rect ry="6.61" rx="6.61" y="40.71" x="69.84" height="29.811" width="29.811" style="fill:none;fill-opacity:1;stroke:#000;stroke-width:.5;stroke-linecap:round;stroke-linejoin:round;stroke-miterlimit:4;stroke-dasharray:none;stroke-opacity:.02"/><rect style="fill:none;fill-opacity:1;stroke:#000;stroke-width:.6;stroke-linecap:round;stroke-linejoin:round;stroke-miterlimit:4;stroke-dasharray:none;stroke-opacity:.02" width="29.811" height="29.811" x="69.84" y="40.71" rx="6.61" ry="6.61"/><rect ry="6.61" rx="6.61" y="40.71" x="69.84" height="29.811" width="29.811" style="fill:none;fill-opacity:1;stroke:#000;stroke-width:.7;stroke-linecap:round;stroke-linejoin:round;stroke-miterlimit:4;stroke-dasharray:none;stroke-opacity:.02"/><rect style="fill:none;fill-opacity:1;stroke:#000;stroke-width:.8;stroke-linecap:round;stroke-linejoin:round;stroke-miterlimit:4;stroke-dasharray:none;stroke-opacity:.02" width="29.811" height="29.811" x="69.84" y="40.71" rx="6.61" ry="6.61"/><rect ry="6.61" rx="6.61" y="40.71" x="69.84" height="29.811" width="29.811" style="fill:none;fill-opacity:1;stroke:#000;stroke-width:1;stroke-linecap:round;stroke-linejoin:round;stroke-miterlimit:4;stroke-dasharray:none;stroke-opacity:.02"/><rect style="fill:none;fill-opacity:1;stroke:#000;stroke-width:1.2;stroke-linecap:round;stroke-linejoin:round;stroke-miterlimit:4;stroke-dasharray:none;stroke-opacity:.02" width="29.811" height="29.811" x="69.84" y="40.71" rx="6.61" ry="6.61"/><rect ry="6.61" rx="6.61" y="40.71" x="69.84" height="29.811" width="29.811" style="fill:none;fill-opacity:1;stroke:#000;stroke-width:1.4;stroke-linecap:round;stroke-linejoin:round;stroke-miterlimit:4;stroke-dasharray:none;stroke-opacity:.02"/><rect style="fill:none;fill-opacity:1;stroke:#000;stroke-width:1.6;stroke-linecap:round;stroke-linejoin:round;stroke-miterlimit:4;stroke-dasharray:none;stroke-opacity:.02" width="29.811" height="29.811" x="69.84" y="40.71" rx="6.61" ry="6.61"/><rect ry="6.61" rx="6.61" y="40.71" x="69.84" height="29.811" width="29.811" style="fill:none;fill-opacity:1;stroke:#000;stroke-width:1.8;stroke-linecap:round;stroke-linejoin:round;stroke-miterlimit:4;stroke-dasharray:none;stroke-opacity:.02"/><rect style="fill:none;fill-opacity:1;stroke:#000;stroke-width:2;stroke-linecap:round;stroke-linejoin:round;stroke-miterlimit:4;stroke-dasharray:none;stroke-opacity:.02" width="29.811" height="29.811" x="69.84" y="40.71" rx="6.61" ry="6.61"/><rect ry="6.61" rx="6.61" y="40.71" x="69.84" height="29.811" width="29.811" style="fill:none;fill-opacity:1;stroke:#000;stroke-width:2.2;stroke-linecap:round;stroke-linejoin:round;stroke-miterlimit:4;stroke-dasharray:none;stroke-opacity:.02"/><rect style="fill:none;fill-opacity:1;stroke:#000;stroke-width:2.6;stroke-linecap:round;stroke-linejoin:round;stroke-miterlimit:4;stroke-dasharray:none;stroke-opacity:.02" width="29.811" height="29.811" x="69.84" y="40.71" rx="6.61" ry="6.61"/><rect ry="6.61" rx="6.61" y="40.71" x="69.84" height="29.811" width="29.811" style="fill:none;fill-opacity:1;stroke:#000;stroke-width:3;stroke-linecap:round;stroke-linejoin:round;stroke-miterlimit:4;stroke-dasharray:none;stroke-opacity:.02"/><rect style="fill:none;fill-opacity:1;stroke:#000;stroke-width:3.4;stroke-linecap:round;stroke-linejoin:round;stroke-miterlimit:4;stroke-dasharray:none;stroke-opacity:.02" width="29.811" height="29.811" x="69.84" y="40.71" rx="6.61" ry="6.61"/><rect ry="6.61" rx="6.61" y="40.71" x="69.84" height="29.811" width="29.811" style="fill:none;fill-opacity:1;stroke:#000;stroke-width:3.8;stroke-linecap:round;stroke-linejoin:round;stroke-miterlimit:4;stroke-dasharray:none;stroke-opacity:.02"/><rect style="fill:none;fill-opacity:1;stroke:#000;stroke-width:4.2;stroke-linecap:round;stroke-linejoin:round;stroke-miterlimit:4;stroke-dasharray:none;stroke-opacity:.02" width="29.811" height="29.811" x="69.84" y="40.71" rx="6.61" ry="6.61"/><rect ry="6.61" rx="6.61" y="40.71" x="69.84" height="29.811" width="29.811" style="fill:none;fill-opacity:1;stroke:#000;stroke-width:4.6;stroke-linecap:round;stroke-linejoin:round;stroke-miterlimit:4;stroke-dasharray:none;stroke-opacity:.02"/><rect style="fill:none;fill-opacity:1;stroke:#000;stroke-width:5;stroke-linecap:round;stroke-linejoin:round;stroke-miterlimit:4;stroke-dasharray:none;stroke-opacity:.02" width="29.811" height="29.811" x="69.84" y="40.71" rx="6.61" ry="6.61"/></g><path style="fill-opacity:.08365;stroke-width:3.77502" d="M4.012 28.106h2.432c3.314 2.256 6.75 2.253 10.213 2.253h6l4.559-1.902s.433-1.665.239-1.616c-.195.049-23.783 0-23.783 0z"/><rect ry="6.449" rx="6.449" y="2.396" x="2.412" height="29.087" width="29.087" style="fill:url(#m);fill-opacity:1;stroke-width:2.68769;stroke-linecap:round;stroke-linejoin:round"/><path d="M4.012 27.936h2.432c3.314 2.256 6.75 2.253 10.213 2.253h5.864l4.78-1.73s.349-1.836.154-1.788c-.194.049-23.783 0-23.783 0z" style="fill:url(#n);stroke-width:3.77502"/><g transform="translate(-.625 1.165)"><circle r="1.151" cy="22.975" cx="27.436" style="opacity:1;fill:#fff;fill-opacity:.478261;fill-rule:evenodd;stroke:none;stroke-width:.927953;stroke-linecap:round;stroke-linejoin:round;stroke-miterlimit:4;stroke-dasharray:none;stroke-dashoffset:0;stroke-opacity:1"/><g transform="translate(-.109 -.025)"><circle r=".992" cy="23" cx="27.545" style="opacity:1;fill:url(#o);fill-opacity:1;fill-rule:evenodd;stroke:none;stroke-width:.8;stroke-linecap:round;stroke-linejoin:round;stroke-miterlimit:4;stroke-dasharray:none;stroke-dashoffset:0;stroke-opacity:1"/><path d="M27.032 22.55a.082.082 0 0 0 0 .117l.334.333-.333.333a.082.082 0 0 0-.001.116l.063.064a.083.083 0 0 0 .117 0l.333-.334.334.334a.081.081 0 0 0 .115 0l.064-.064a.082.082 0 0 0 0-.116L27.725 23l.333-.333a.082.082 0 0 0 0-.117l-.064-.063a.081.081 0 0 0-.115 0l-.334.333-.333-.333a.083.083 0 0 0-.117 0z" style="opacity:1;fill:#646464;fill-opacity:1;fill-rule:evenodd;stroke:none;stroke-width:1.21626;stroke-linecap:round;stroke-linejoin:round;stroke-miterlimit:4;stroke-dasharray:none;stroke-dashoffset:0;stroke-opacity:1"/></g></g><path d="M23.671 22.808v4.994a2.996 2.323 0 0 0 2.997 2.323 2.996 2.323 0 0 0 2.996-2.323v-4.994z" style="fill:#797a7a;stroke-width:3.77501" transform="translate(.667 -.123)"/><path style="fill:url(#p);stroke-width:3.77501" d="M23.671 22.808v4.994a2.996 2.323 0 0 0 2.997 2.323 2.996 2.323 0 0 0 2.996-2.323v-4.994z" transform="translate(.667 -.123)"/><g transform="translate(-.681 1.02) scale(.2029)"><rect x="72.383" y="127.63" width="3.559" height="16.61" rx=".508" ry=".508" style="fill:url(#q);paint-order:fill markers stroke"/><rect x="78.655" y="127.63" width="3.559" height="16.61" rx=".508" ry=".508" style="fill:url(#r);paint-order:fill markers stroke"/><rect x="84.927" y="127.63" width="3.559" height="16.61" rx=".508" ry=".508" style="fill:url(#s);paint-order:fill markers stroke"/><rect x="91.199" y="127.63" width="3.559" height="16.61" rx=".508" ry=".508" style="fill:url(#t);paint-order:fill markers stroke"/><rect x="97.471" y="127.63" width="3.559" height="16.61" rx=".508" ry=".508" style="fill:url(#u);paint-order:fill markers stroke"/></g><g transform="translate(-21.32 1.231)"><circle style="opacity:1;fill:#fff;fill-opacity:.478261;fill-rule:evenodd;stroke:none;stroke-width:.927953;stroke-linecap:round;stroke-linejoin:round;stroke-miterlimit:4;stroke-dasharray:none;stroke-dashoffset:0;stroke-opacity:1" cx="27.436" cy="22.975" r="1.151"/><g transform="translate(-.109 -.025)"><circle style="opacity:1;fill:url(#v);fill-opacity:1;fill-rule:evenodd;stroke:none;stroke-width:.8;stroke-linecap:round;stroke-linejoin:round;stroke-miterlimit:4;stroke-dasharray:none;stroke-dashoffset:0;stroke-opacity:1" cx="27.545" cy="23" r=".992"/><path style="opacity:1;fill:#646464;fill-opacity:1;fill-rule:evenodd;stroke:none;stroke-width:1.21626;stroke-linecap:round;stroke-linejoin:round;stroke-miterlimit:4;stroke-dasharray:none;stroke-dashoffset:0;stroke-opacity:1" d="M27.032 22.55a.082.082 0 0 0 0 .117l.334.333-.333.333a.082.082 0 0 0-.001.116l.063.064a.083.083 0 0 0 .117 0l.333-.334.334.334a.081.081 0 0 0 .115 0l.064-.064a.082.082 0 0 0 0-.116L27.725 23l.333-.333a.082.082 0 0 0 0-.117l-.064-.063a.081.081 0 0 0-.115 0l-.334.333-.333-.333a.083.083 0 0 0-.117 0z"/></g></g><path style="fill:#797a7a;stroke-width:3.77501" d="M23.671 22.808v4.994a2.996 2.323 0 0 0 2.997 2.323 2.996 2.323 0 0 0 2.996-2.323v-4.994z" transform="translate(-20.028 -.056)"/><path d="M23.671 22.808v4.994a2.996 2.323 0 0 0 2.997 2.323 2.996 2.323 0 0 0 2.996-2.323v-4.994z" style="fill:url(#w);stroke-width:3.77501" transform="translate(-20.028 -.056)"/><rect style="fill:url(#x);fill-opacity:1;stroke-width:2.68769;stroke-linecap:round;stroke-linejoin:round" width="29.087" height="24.457" x="2.412" y="2.396" rx="6.449" ry="6.449"/><path d="m26.33 4.963-.491-.42-5.384 5.676h-2.401l-1.269-.044c-6.099-.216-11.299 3.016-11.299 6.682 0 3.667 4.948 6.639 11.052 6.639 6.104 0 11.299-3.017 11.299-6.683a4.1 4.1 0 0 0-.15-1.09z" style="fill:url(#y);stroke-width:3.48641;paint-order:fill markers stroke"/><path style="fill:#7a8285;stroke-width:3.48641" d="m7.429 8.363 15.318.198-.318-3.664c-3.87.365-13.143.837-14.702 3.186Z"/><path d="M25.894 4.53 7.89 4.645l-.158 3.446 13.484.097-.984 1.859h-2.26c-.392-.028-.79-.044-1.194-.044-5.744 0-10.634 2.925-10.634 6.48 0 3.555 4.657 6.437 10.4 6.437 5.745 0 10.634-2.925 10.634-6.48 0-.36-.05-.712-.141-1.056z" style="fill:url(#z);stroke-width:3.48641;paint-order:fill markers stroke"/><path style="fill:#1f2021;stroke-width:3.48641" d="M8.924 4.951h11.247c.182 0 .328.137.328.306v2.128c0 .17-.146.306-.328.306H8.745c-.182 0-.343-.137-.328-.306l.179-2.128a.327.327 0 0 1 .328-.306Z"/><path style="fill:#fff;stroke-width:3.48641" d="M9 5.994h7.783v.039H9zm-.032-.572v.056h.046v-.056Zm4.1 0v.144a.095.095 0 0 0-.038-.036.115.115 0 0 0-.054-.01.104.104 0 0 0-.084.038.151.151 0 0 0-.034.1c0 .043.012.078.034.103.022.026.05.039.084.039.021 0 .04-.005.054-.012a.093.093 0 0 0 .037-.035v.04h.047v-.37Zm.713 0v.056h.048v-.056Zm.416 0v.37h.049v-.13l.145.13h.062l-.159-.142.151-.125h-.06l-.14.116v-.219Zm-2.237.014v.356h.053v-.17h.186v.17h.053v-.356h-.053v.146h-.186v-.146Zm1.42 0v.356h.106c.073 0 .127-.014.162-.043.035-.029.052-.074.052-.136 0-.06-.015-.105-.05-.134-.035-.028-.09-.043-.164-.043zm-3.934.014v.074H9.41v.035h.036v.145c0 .033.007.056.02.069.014.012.039.02.075.02h.049v-.037h-.05a.07.07 0 0 1-.04-.01c-.005-.007-.009-.02-.009-.042v-.145h.097v-.034h-.097V5.45zm1.602 0v.074h-.034v.035h.034v.145c0 .033.006.056.02.069.014.012.04.02.077.02h.048v-.037h-.048a.07.07 0 0 1-.04-.01c-.006-.007-.009-.02-.009-.042v-.145h.097v-.034h-.097V5.45zm2.384.026h.063c.053 0 .09.01.114.033.025.022.037.056.037.104 0 .048-.012.084-.037.106-.025.022-.061.033-.114.033h-.063zm-4.18.043a.115.115 0 0 0-.053.012.112.112 0 0 0-.039.035v-.042h-.048v.268h.048V5.64c0-.026.006-.046.02-.061a.084.084 0 0 1 .062-.023c.021 0 .036.007.047.02.01.012.017.03.017.055v.16h.047V5.63a.123.123 0 0 0-.026-.083c-.017-.02-.042-.028-.075-.028zm.519 0a.137.137 0 0 0-.103.038.142.142 0 0 0-.037.105c0 .042.012.074.039.099a.157.157 0 0 0 .11.038.291.291 0 0 0 .105-.02v-.042a.225.225 0 0 1-.05.019.222.222 0 0 1-.053.005c-.031 0-.055-.007-.073-.023a.1.1 0 0 1-.03-.07h.217v-.02c0-.04-.011-.07-.034-.094a.121.121 0 0 0-.091-.035zm.343 0a.124.124 0 0 0-.056.012.091.091 0 0 0-.04.035v-.042H9.97v.268h.049v-.14c0-.031.007-.054.02-.07a.078.078 0 0 1 .062-.025c.008 0 .014 0 .02.002a.053.053 0 0 1 .017.007v-.045a.155.155 0 0 0-.013-.002h-.01zm.204 0a.115.115 0 0 0-.094.047v-.042h-.046v.268h.046V5.64c0-.026.008-.046.023-.061a.08.08 0 0 1 .06-.023c.02 0 .037.007.048.02.01.012.015.03.015.055v.16h.046V5.63c0-.037-.007-.064-.024-.083-.017-.02-.042-.028-.074-.028zm.313 0a.137.137 0 0 0-.102.038.142.142 0 0 0-.038.105c0 .042.013.074.04.099a.153.153 0 0 0 .108.038.291.291 0 0 0 .106-.02v-.042a.225.225 0 0 1-.05.019.222.222 0 0 1-.053.005c-.03 0-.055-.007-.072-.023a.1.1 0 0 1-.03-.07h.216v-.02c0-.04-.01-.07-.033-.094a.121.121 0 0 0-.092-.035zm.344 0a.132.132 0 0 0-.058.012.087.087 0 0 0-.037.035v-.042h-.049v.268h.049v-.14c0-.031.006-.054.02-.07a.078.078 0 0 1 .062-.025c.007 0 .014 0 .02.002a.053.053 0 0 1 .017.007v-.045a.155.155 0 0 0-.013-.002h-.011zm.4 0a.137.137 0 0 0-.103.038.142.142 0 0 0-.038.105c0 .042.013.074.04.099a.153.153 0 0 0 .108.038.291.291 0 0 0 .106-.02v-.042a.225.225 0 0 1-.05.019.222.222 0 0 1-.052.005c-.032 0-.056-.007-.073-.023a.1.1 0 0 1-.03-.07h.216v-.02c0-.04-.01-.07-.033-.094a.121.121 0 0 0-.092-.035zm.343 0a.132.132 0 0 0-.058.012.086.086 0 0 0-.037.035v-.042h-.049v.268h.049v-.14c0-.031.006-.054.02-.07a.078.078 0 0 1 .062-.025c.008 0 .014 0 .02.002a.059.059 0 0 1 .017.007v-.045a.136.136 0 0 0-.013-.002h-.01zm.735 0a.26.26 0 0 0-.097.017v.042a.194.194 0 0 1 .091-.023c.026 0 .046.007.06.018a.058.058 0 0 1 .023.047v.003h-.067a.164.164 0 0 0-.096.023.079.079 0 0 0-.033.067c0 .026.009.048.026.063a.105.105 0 0 0 .07.023.137.137 0 0 0 .059-.012.1.1 0 0 0 .04-.035v.04h.047v-.153c0-.04-.01-.07-.031-.09-.02-.02-.05-.03-.092-.03zm.363 0a.132.132 0 0 0-.058.012.091.091 0 0 0-.04.035v-.042h-.046v.268h.046v-.14c0-.031.007-.054.021-.07a.078.078 0 0 1 .062-.025c.007 0 .014 0 .02.002a.07.07 0 0 1 .02.007l-.003-.045a.155.155 0 0 0-.013-.002h-.01zm1.202 0a.134.134 0 0 0-.08.02.067.067 0 0 0-.03.058c0 .02.007.037.02.049.013.012.035.02.064.026l.014.004c.03.005.05.012.058.019a.03.03 0 0 1 .013.026.036.036 0 0 1-.019.031.098.098 0 0 1-.05.01.277.277 0 0 1-.103-.026v.045a.403.403 0 0 0 .101.017.148.148 0 0 0 .086-.022c.021-.015.034-.033.034-.058a.067.067 0 0 0-.023-.052.16.16 0 0 0-.07-.028l-.018-.003a.156.156 0 0 1-.05-.016c-.008-.006-.011-.014-.011-.024 0-.013.005-.023.017-.03a.106.106 0 0 1 .052-.01.214.214 0 0 1 .086.019v-.042a.195.195 0 0 0-.041-.01.342.342 0 0 0-.05-.004zm-5.05.005v.268h.047v-.268Zm4.813 0v.268h.048v-.268Zm-4.009.031a.07.07 0 0 1 .055.021.08.08 0 0 1 .022.058l-.168.001a.088.088 0 0 1 .028-.059.094.094 0 0 1 .063-.02zm.86 0c.022 0 .041.007.055.021a.08.08 0 0 1 .023.058l-.168.001a.088.088 0 0 1 .027-.059.09.09 0 0 1 .062-.02zm.742 0c.023 0 .042.007.056.021a.08.08 0 0 1 .023.058l-.168.001a.087.087 0 0 1 .026-.059.094.094 0 0 1 .063-.02zm1.613 0c.025 0 .046.01.06.028.014.019.02.043.02.075a.124.124 0 0 1-.02.077.073.073 0 0 1-.06.028.069.069 0 0 1-.058-.028.125.125 0 0 1-.022-.077c0-.032.008-.056.022-.075a.069.069 0 0 1 .058-.028zm-.506.103h.049v.009a.1.1 0 0 1-.024.07.083.083 0 0 1-.064.026.071.071 0 0 1-.045-.014.045.045 0 0 1-.016-.037c0-.02.008-.033.022-.041a.176.176 0 0 1 .079-.012zm-3.513.522v.041h.037V6.18zm3.146 0v.11a.073.073 0 0 0-.03-.027.086.086 0 0 0-.041-.009.082.082 0 0 0-.066.03.118.118 0 0 0-.024.078c0 .033.008.057.024.077.017.02.039.03.066.03.016 0 .03-.004.04-.01a.077.077 0 0 0 .03-.025v.03h.036V6.18Zm.547 0v.041h.035V6.18zm.319 0v.283h.037v-.1l.11.1h.049l-.121-.108.115-.095h-.046l-.107.087V6.18Zm.362 0v.041h.035V6.18zm-2.078.01v.273h.04v-.129h.143v.129h.04V6.19h-.04v.113h-.144V6.19zm1.089 0v.273h.082c.056 0 .098-.011.125-.033.027-.022.039-.056.039-.103 0-.046-.013-.082-.04-.104-.026-.022-.067-.033-.124-.033zm-3.02.01v.06h-.025v.026h.026v.11c0 .025.006.043.016.053.01.01.029.014.056.014h.038v-.028h-.038c-.014 0-.025-.002-.03-.007-.004-.005-.005-.017-.005-.033v-.11h.072V6.26h-.072V6.2zm1.231 0v.06h-.026v.026h.026v.11c0 .025.005.043.015.053.01.01.03.014.058.014h.037v-.028h-.037c-.015 0-.025-.002-.03-.007-.005-.005-.008-.017-.008-.033v-.11h.075V6.26h-.075V6.2zm3.144 0v.06h-.026v.026h.026v.11c0 .025.004.043.015.053.01.01.03.014.058.014h.037v-.028h-.037c-.015 0-.025-.002-.03-.007-.005-.005-.008-.017-.008-.033v-.11h.075V6.26h-.075V6.2zm1.23 0v.06h-.028v.026h.028v.11c0 .025.005.043.015.053.01.01.03.014.058.014h.037v-.028h-.037c-.015 0-.025-.002-.03-.007-.005-.005-.008-.017-.008-.033v-.11h.075V6.26h-.075V6.2zm-2.546.021h.048c.04 0 .07.01.088.026.019.017.03.044.03.08 0 .037-.011.063-.03.08s-.047.026-.088.026h-.048zm-3.206.033a.087.087 0 0 0-.04.009.086.086 0 0 0-.03.028V6.26h-.038v.203h.037v-.115c0-.02.006-.035.017-.047a.059.059 0 0 1 .045-.017c.016 0 .03.004.037.014.009.01.013.024.013.043v.122h.036v-.124a.095.095 0 0 0-.02-.064c-.014-.015-.032-.02-.057-.02zm.398 0a.105.105 0 0 0-.078.03.11.11 0 0 0-.03.08c0 .032.01.057.031.076.02.02.047.028.082.028.014 0 .03 0 .043-.003a.249.249 0 0 0 .04-.012V6.42a.183.183 0 0 1-.079.02.082.082 0 0 1-.056-.018.077.077 0 0 1-.022-.054h.164v-.016a.1.1 0 0 0-.026-.073.09.09 0 0 0-.069-.026zm.265 0a.097.097 0 0 0-.045.009.078.078 0 0 0-.03.028V6.26H9.74v.203h.035v-.108c0-.023.006-.04.017-.052a.06.06 0 0 1 .047-.02l.015.003a.05.05 0 0 1 .013.005v-.035l-.01-.002h-.008zm.153 0a.08.08 0 0 0-.04.009.091.091 0 0 0-.03.028V6.26h-.036v.203h.035v-.115c0-.02.007-.035.019-.047a.059.059 0 0 1 .045-.017c.016 0 .029.004.037.014.008.01.011.024.011.043v.122h.038v-.124a.094.094 0 0 0-.021-.064c-.013-.015-.033-.02-.058-.02zm.24 0a.105.105 0 0 0-.077.03.11.11 0 0 0-.029.08.1.1 0 0 0 .03.076c.02.02.05.028.084.028.014 0 .028 0 .041-.003a.249.249 0 0 0 .04-.012V6.42a.163.163 0 0 1-.079.02.082.082 0 0 1-.056-.018.077.077 0 0 1-.022-.054h.166v-.016a.1.1 0 0 0-.026-.073.094.094 0 0 0-.071-.026zm.266 0a.098.098 0 0 0-.045.009.069.069 0 0 0-.028.028V6.26h-.037v.203h.037v-.108c0-.023.004-.04.015-.052a.06.06 0 0 1 .046-.02c.006 0 .012.002.017.003a.05.05 0 0 1 .013.005v-.035l-.01-.002h-.009zm.306 0a.105.105 0 0 0-.078.03.11.11 0 0 0-.03.08c0 .032.011.057.032.076.02.02.047.028.082.028a.219.219 0 0 0 .082-.015V6.42a.183.183 0 0 1-.08.02c-.024 0-.043-.006-.056-.018a.077.077 0 0 1-.023-.054h.166v-.016a.1.1 0 0 0-.026-.073.09.09 0 0 0-.069-.026zm.263 0a.078.078 0 0 0-.073.037V6.26h-.037v.203h.038v-.108c0-.023.004-.04.014-.052a.063.063 0 0 1 .049-.02l.015.003a.05.05 0 0 1 .013.005v-.035l-.01-.002h-.01zm.564 0a.207.207 0 0 0-.074.014v.031a.161.161 0 0 1 .07-.017c.02 0 .035.004.045.012a.045.045 0 0 1 .017.037v.003h-.05a.124.124 0 0 0-.073.017.062.062 0 0 0-.026.053c0 .02.007.035.02.047a.08.08 0 0 0 .055.017.102.102 0 0 0 .045-.009.078.078 0 0 0 .03-.028v.032h.037v-.117a.099.099 0 0 0-.024-.07c-.016-.015-.04-.022-.071-.022zm.278 0a.098.098 0 0 0-.044.009.073.073 0 0 0-.03.028V6.26h-.036v.203h.036v-.108c0-.023.006-.04.017-.052a.06.06 0 0 1 .046-.02c.006 0 .012.002.017.003a.05.05 0 0 1 .013.005v-.035l-.011-.002h-.008zm.923 0a.102.102 0 0 0-.062.016.05.05 0 0 0-.022.043c0 .016.005.03.015.039.01.009.026.014.048.019l.013.003c.022.005.036.01.043.014.007.005.01.012.01.02 0 .01-.005.018-.014.023a.076.076 0 0 1-.039.01.206.206 0 0 1-.078-.019v.034a.282.282 0 0 0 .078.012c.028 0 .05-.004.066-.015a.052.052 0 0 0 .024-.045c0-.017-.004-.03-.015-.04a.127.127 0 0 0-.056-.021l-.011-.003a.136.136 0 0 1-.04-.013.02.02 0 0 1-.009-.017c0-.01.005-.02.013-.024a.088.088 0 0 1 .041-.007.16.16 0 0 1 .066.013v-.03a.165.165 0 0 0-.032-.01c-.012-.002-.026-.001-.04-.001zm.717 0a.08.08 0 0 0-.04.009.091.091 0 0 0-.031.028V6.26h-.036v.203h.036v-.115c0-.02.005-.035.017-.047a.063.063 0 0 1 .046-.017c.016 0 .03.004.038.014s.01.024.01.043v.122h.038v-.124h-.002c0-.028-.006-.05-.019-.064-.012-.015-.032-.02-.057-.02zm.4 0a.105.105 0 0 0-.08.03.11.11 0 0 0-.03.08c0 .032.012.057.033.076.02.02.047.028.082.028a.219.219 0 0 0 .082-.015V6.42a.183.183 0 0 1-.08.02c-.024 0-.043-.006-.056-.018a.077.077 0 0 1-.023-.054h.166v-.016a.1.1 0 0 0-.026-.073.09.09 0 0 0-.069-.026zm.262 0a.09.09 0 0 0-.043.009.073.073 0 0 0-.03.028V6.26h-.037v.203h.037v-.108c0-.023.004-.04.015-.052a.063.063 0 0 1 .049-.02l.015.003a.05.05 0 0 1 .013.005v-.035l-.01-.002h-.01zm.155 0a.087.087 0 0 0-.04.009.086.086 0 0 0-.03.028V6.26h-.036v.203h.035v-.115c0-.02.006-.035.017-.047a.063.063 0 0 1 .047-.017c.016 0 .03.004.037.014.009.01.011.024.011.043v.122h.036v-.124c0-.028-.006-.05-.019-.064-.013-.015-.033-.02-.058-.02zm.241 0a.105.105 0 0 0-.078.03.11.11 0 0 0-.028.08.1.1 0 0 0 .03.076c.02.02.049.028.084.028.014 0 .027 0 .04-.003a.249.249 0 0 0 .04-.012V6.42a.183.183 0 0 1-.079.02.084.084 0 0 1-.056-.018.077.077 0 0 1-.022-.054h.166v-.016a.1.1 0 0 0-.026-.073.094.094 0 0 0-.07-.026zm.265 0a.098.098 0 0 0-.045.009.073.073 0 0 0-.03.028V6.26h-.035v.203h.035v-.108c0-.023.007-.04.017-.052a.06.06 0 0 1 .047-.02c.006 0 .01.002.015.003.005 0 .01.003.015.005v-.035l-.011-.002h-.008zm.305 0a.105.105 0 0 0-.079.03.11.11 0 0 0-.028.08.1.1 0 0 0 .03.076c.02.02.049.028.084.028.014 0 .027 0 .041-.003a.249.249 0 0 0 .04-.012V6.42a.163.163 0 0 1-.08.02.08.08 0 0 1-.055-.018.077.077 0 0 1-.023-.054h.167v-.016a.1.1 0 0 0-.026-.073.094.094 0 0 0-.071-.026zm.265 0a.098.098 0 0 0-.045.009.069.069 0 0 0-.028.028V6.26h-.038v.203h.038v-.108c0-.023.004-.04.014-.052a.06.06 0 0 1 .047-.02c.006 0 .012.002.017.003a.05.05 0 0 1 .013.005v-.035l-.01-.002h-.009zm-6.484.006v.203h.037V6.26Zm3.692 0v.203h.036V6.26Zm.682 0v.203h.035V6.26Zm-3.758.022c.018 0 .032.007.043.018a.06.06 0 0 1 .017.043h-.13a.068.068 0 0 1 .021-.045.071.071 0 0 1 .049-.016zm.66 0c.018 0 .033.007.044.018.01.01.016.025.017.043h-.13a.066.066 0 0 1 .021-.045.072.072 0 0 1 .049-.016zm.57 0a.058.058 0 0 1 .06.061h-.13a.066.066 0 0 1 .021-.045.071.071 0 0 1 .049-.016zm1.238 0c.02 0 .034.007.045.021a.094.094 0 0 1 .017.06.089.089 0 0 1-.017.056.053.053 0 0 1-.045.021.054.054 0 0 1-.045-.02.09.09 0 0 1-.017-.058c0-.024.006-.045.017-.059a.053.053 0 0 1 .045-.02zm1.906 0c.018 0 .032.007.043.018a.06.06 0 0 1 .017.043h-.129a.068.068 0 0 1 .02-.045.072.072 0 0 1 .05-.016zm.661 0c.018 0 .03.007.041.018a.06.06 0 0 1 .017.043h-.129a.07.07 0 0 1 .023-.045.072.072 0 0 1 .048-.016zm.57 0c.017 0 .032.007.042.018a.06.06 0 0 1 .017.043h-.129a.068.068 0 0 1 .021-.045.071.071 0 0 1 .049-.016zm-3.525.078h.035v.007c0 .022-.005.041-.017.054a.063.063 0 0 1-.048.02.055.055 0 0 1-.036-.01.038.038 0 0 1-.011-.029c0-.015.006-.027.017-.033a.136.136 0 0 1 .06-.009zm-2.696.192v.041h.037v-.041zm3.146 0v.11a.076.076 0 0 0-.03-.027.086.086 0 0 0-.042-.009.082.082 0 0 0-.065.03.118.118 0 0 0-.024.078c0 .032.008.057.024.076.017.02.039.03.065.03a.09.09 0 0 0 .042-.009.075.075 0 0 0 .03-.026v.03h.035V6.55Zm.547 0v.041h.035v-.041zm.319 0v.283h.037v-.1l.11.1h.049l-.122-.108.116-.095h-.046l-.107.087v-.167Zm.362 0v.041h.035v-.041zm-2.078.01v.273h.04v-.129h.143v.129h.04v-.273h-.04v.113h-.144v-.113zm1.089 0v.273h.082c.056 0 .098-.011.125-.033.026-.022.039-.056.039-.103 0-.046-.013-.082-.04-.104-.026-.022-.068-.033-.124-.033zm-3.02.01v.06h-.025v.025h.026v.11c0 .025.006.044.016.054.01.01.028.013.056.013h.038v-.027h-.038c-.014 0-.025-.003-.03-.008-.004-.004-.006-.016-.006-.033v-.11h.073v-.025H9.37v-.06zm1.231 0v.06h-.026v.025h.026v.11c0 .025.004.044.015.054.01.01.03.013.058.013h.037v-.027h-.037c-.015 0-.025-.003-.03-.008-.005-.004-.008-.016-.008-.033v-.11h.075v-.025h-.075v-.06zm3.144 0v.06h-.026v.025h.026v.11c0 .025.004.044.015.054.01.01.03.013.057.013h.038v-.027h-.037c-.015 0-.025-.003-.03-.008-.005-.004-.008-.016-.008-.033v-.11h.075v-.025h-.075v-.06zm1.23 0v.06h-.028v.025h.028v.11c0 .025.005.044.015.054.01.01.03.013.058.013h.037v-.027h-.037c-.015 0-.025-.003-.03-.008-.005-.004-.008-.016-.008-.033v-.11h.075v-.025h-.075v-.06zm-2.546.021h.048c.04 0 .07.01.088.026.019.017.03.044.03.08 0 .037-.011.063-.03.08s-.047.026-.088.026h-.048zm-3.206.033a.087.087 0 0 0-.04.009.086.086 0 0 0-.03.028v-.031h-.038v.203h.037V6.72c0-.02.006-.035.017-.047a.059.059 0 0 1 .045-.017c.016 0 .03.004.037.014.009.01.013.024.013.043v.122h.036V6.71a.094.094 0 0 0-.021-.064c-.013-.015-.03-.02-.056-.02zm.398 0a.105.105 0 0 0-.079.03.11.11 0 0 0-.03.08.1.1 0 0 0 .032.076c.02.02.047.028.082.028.014 0 .03 0 .043-.003a.249.249 0 0 0 .04-.012v-.032a.182.182 0 0 1-.079.02.082.082 0 0 1-.056-.018.077.077 0 0 1-.022-.054h.164v-.016a.1.1 0 0 0-.026-.073.094.094 0 0 0-.07-.025zm.265 0a.097.097 0 0 0-.045.009.078.078 0 0 0-.03.028v-.031H9.74v.203h.035v-.108c0-.023.006-.04.017-.052a.059.059 0 0 1 .047-.02l.015.003a.05.05 0 0 1 .012.005v-.035l-.009-.002h-.008zm.153 0a.08.08 0 0 0-.04.009.091.091 0 0 0-.031.028v-.031h-.035v.203h.035V6.72c0-.02.007-.035.019-.047a.059.059 0 0 1 .045-.017c.016 0 .029.004.037.014.008.01.011.024.011.043v.122h.037V6.71a.094.094 0 0 0-.02-.064c-.013-.015-.033-.02-.058-.02zm.24 0a.105.105 0 0 0-.078.03.11.11 0 0 0-.028.08.1.1 0 0 0 .03.076.12.12 0 0 0 .084.028c.014 0 .028 0 .041-.003a.249.249 0 0 0 .04-.012v-.032a.163.163 0 0 1-.079.02.082.082 0 0 1-.056-.018.077.077 0 0 1-.022-.054h.166v-.016a.1.1 0 0 0-.026-.073.098.098 0 0 0-.071-.025zm.266 0a.098.098 0 0 0-.045.009.069.069 0 0 0-.028.028v-.031h-.037v.203h.037v-.108c0-.023.004-.04.015-.052a.06.06 0 0 1 .046-.02c.006 0 .012.002.017.003a.05.05 0 0 1 .013.005v-.035l-.01-.002h-.009zm.306 0a.105.105 0 0 0-.078.03.11.11 0 0 0-.03.08c0 .032.01.057.032.076.02.02.047.028.082.028a.219.219 0 0 0 .082-.015v-.032a.183.183 0 0 1-.08.02c-.024 0-.043-.006-.056-.018a.077.077 0 0 1-.023-.054h.166v-.016a.1.1 0 0 0-.026-.073.093.093 0 0 0-.069-.025zm.263 0a.078.078 0 0 0-.073.037v-.031h-.037v.203h.037v-.108c0-.023.004-.04.015-.052a.063.063 0 0 1 .049-.02l.015.003a.05.05 0 0 1 .012.005v-.035l-.01-.002h-.009zm.564 0a.207.207 0 0 0-.074.014v.031a.161.161 0 0 1 .07-.017c.02 0 .034.004.045.012.011.009.017.02.017.037v.003h-.05a.124.124 0 0 0-.073.017.062.062 0 0 0-.026.053c0 .02.007.035.02.047a.08.08 0 0 0 .055.017.102.102 0 0 0 .045-.009.078.078 0 0 0 .03-.028v.032h.037v-.117a.099.099 0 0 0-.024-.07c-.016-.015-.04-.022-.071-.022zm.278 0a.098.098 0 0 0-.044.009.073.073 0 0 0-.03.028v-.031h-.036v.203h.036v-.108c0-.023.006-.04.017-.052a.059.059 0 0 1 .046-.02c.006 0 .012.002.017.003a.05.05 0 0 1 .013.005v-.035l-.011-.002h-.008zm.923 0a.105.105 0 0 0-.062.016.05.05 0 0 0-.022.043c0 .016.005.03.014.038.01.01.026.015.049.02l.013.003a.116.116 0 0 1 .043.014c.007.005.01.011.01.02 0 .01-.005.018-.014.023a.076.076 0 0 1-.039.009.206.206 0 0 1-.078-.019v.035a.282.282 0 0 0 .078.012c.028 0 .05-.005.065-.015a.052.052 0 0 0 .025-.046c0-.016-.004-.03-.015-.04a.127.127 0 0 0-.056-.02l-.011-.004a.136.136 0 0 1-.04-.012.019.019 0 0 1-.009-.017c0-.01.005-.02.013-.025a.088.088 0 0 1 .041-.007.16.16 0 0 1 .066.014v-.031a.165.165 0 0 0-.032-.01h-.04zm.717 0a.08.08 0 0 0-.04.009.09.09 0 0 0-.031.028v-.031h-.036v.203h.036V6.72c0-.02.005-.035.016-.047a.063.063 0 0 1 .047-.017c.016 0 .03.004.037.014.009.01.012.024.012.043v.122h.037V6.71h-.002c0-.028-.006-.05-.019-.064-.013-.015-.032-.02-.058-.02zm.4 0a.105.105 0 0 0-.08.03.11.11 0 0 0-.03.08.1.1 0 0 0 .032.076c.021.02.048.028.083.028a.219.219 0 0 0 .082-.015v-.032a.183.183 0 0 1-.08.02c-.024 0-.043-.006-.056-.018a.077.077 0 0 1-.023-.054h.166v-.016a.1.1 0 0 0-.026-.073.093.093 0 0 0-.069-.025zm.262 0a.09.09 0 0 0-.043.009.073.073 0 0 0-.03.028v-.031h-.037v.203h.037v-.108c0-.023.004-.04.015-.052a.063.063 0 0 1 .049-.02c.005 0 .01.002.014.003a.05.05 0 0 1 .013.005v-.035l-.01-.002h-.009zm.155 0a.087.087 0 0 0-.04.009.086.086 0 0 0-.03.028v-.031h-.036v.203h.035V6.72c0-.02.006-.035.017-.047a.063.063 0 0 1 .047-.017c.016 0 .029.004.037.014.009.01.011.024.011.043v.122h.036V6.71c0-.028-.006-.05-.02-.064-.012-.015-.032-.02-.057-.02zm.241 0a.105.105 0 0 0-.078.03.11.11 0 0 0-.029.08.1.1 0 0 0 .03.076.12.12 0 0 0 .084.028c.014 0 .028 0 .042-.003a.249.249 0 0 0 .039-.012v-.032a.183.183 0 0 1-.079.02.082.082 0 0 1-.056-.018.077.077 0 0 1-.022-.054h.166v-.016a.1.1 0 0 0-.026-.073.095.095 0 0 0-.07-.025zm.265 0a.098.098 0 0 0-.045.009.073.073 0 0 0-.03.028v-.031h-.035v.203h.035v-.108c0-.023.007-.04.017-.052a.059.059 0 0 1 .047-.02l.015.003c.004 0 .01.003.015.005v-.035l-.012-.002h-.007zm.304 0a.105.105 0 0 0-.078.03.11.11 0 0 0-.028.08.1.1 0 0 0 .03.076.12.12 0 0 0 .084.028c.014 0 .027 0 .041-.003a.249.249 0 0 0 .04-.012v-.032a.163.163 0 0 1-.08.02.08.08 0 0 1-.055-.018.077.077 0 0 1-.023-.054h.166v-.016a.1.1 0 0 0-.026-.073c-.016-.017-.04-.025-.07-.025zm.266 0a.098.098 0 0 0-.045.009.069.069 0 0 0-.028.028v-.031h-.038v.203h.038v-.108c0-.023.004-.04.014-.052a.059.059 0 0 1 .047-.02c.006 0 .012.002.017.003a.05.05 0 0 1 .013.005v-.035l-.01-.002h-.01zm-6.484.005v.204h.037V6.63zm3.692 0v.204h.036V6.63zm.682 0v.204h.035V6.63zm-3.758.023a.06.06 0 0 1 .043.017.06.06 0 0 1 .017.044h-.13a.068.068 0 0 1 .021-.045.071.071 0 0 1 .049-.016zm.66 0a.06.06 0 0 1 .044.017c.01.011.016.025.016.044h-.128a.066.066 0 0 1 .02-.045.071.071 0 0 1 .049-.016zm.57 0a.058.058 0 0 1 .06.06h-.13a.066.066 0 0 1 .021-.044.071.071 0 0 1 .049-.016zm1.238 0c.019 0 .033.007.045.02a.094.094 0 0 1 .017.06.09.09 0 0 1-.017.057.053.053 0 0 1-.045.021.054.054 0 0 1-.045-.02.091.091 0 0 1-.017-.058.1.1 0 0 1 .017-.06.053.053 0 0 1 .045-.02zm1.906 0c.018 0 .032.006.043.017a.06.06 0 0 1 .017.044h-.129a.067.067 0 0 1 .02-.045.072.072 0 0 1 .05-.016zm.66 0c.019 0 .031.006.042.017a.06.06 0 0 1 .017.044h-.129a.07.07 0 0 1 .022-.045.071.071 0 0 1 .049-.016zm.57 0c.018 0 .032.006.043.017.01.011.017.025.017.044h-.129a.068.068 0 0 1 .02-.045.071.071 0 0 1 .05-.016zm-3.524.078h.035v.007a.08.08 0 0 1-.017.054.063.063 0 0 1-.049.02.055.055 0 0 1-.035-.011c-.008-.007-.011-.016-.011-.028 0-.015.005-.027.017-.033a.135.135 0 0 1 .06-.009zm-2.696.191v.042h.037v-.042zm3.145 0v.11a.076.076 0 0 0-.03-.026.086.086 0 0 0-.04-.01.082.082 0 0 0-.066.03.118.118 0 0 0-.024.079.11.11 0 0 0 .024.076c.017.02.039.03.065.03.017 0 .03-.003.041-.01a.077.077 0 0 0 .03-.025v.03h.036v-.284Zm.547 0v.042h.036v-.042zm.32 0v.284h.037v-.1l.11.1h.049l-.122-.108.116-.096h-.047l-.106.087v-.167Zm.362 0v.042h.035v-.042zm-2.078.01v.274h.04v-.13h.143v.13h.04v-.273h-.04v.113h-.144v-.113zm1.088 0v.274h.083c.056 0 .098-.011.125-.033.026-.023.039-.056.039-.103 0-.047-.013-.082-.04-.104-.026-.022-.068-.033-.124-.033zm-3.018.01v.06h-.026v.026h.026v.11c0 .025.006.044.016.054.01.01.028.013.056.013h.037V7.18h-.037c-.015 0-.025-.003-.03-.008-.005-.004-.006-.016-.006-.033v-.11h.073v-.025H9.37v-.06zm1.23 0v.06h-.026v.026h.026v.11c0 .025.004.044.015.054.01.01.03.013.058.013h.037V7.18h-.037c-.015 0-.025-.003-.03-.008-.005-.004-.008-.016-.008-.033v-.11h.075v-.025h-.075v-.06zm3.144 0v.06h-.026v.026h.026v.11c0 .025.004.044.015.054.01.01.03.013.057.013h.038V7.18h-.038c-.014 0-.025-.003-.03-.008-.004-.004-.007-.016-.007-.033v-.11h.074v-.025h-.074v-.06zm1.23 0v.06h-.028v.026h.028v.11c0 .025.004.044.015.054.01.01.03.013.058.013h.037V7.18h-.037c-.015 0-.025-.003-.03-.008-.005-.004-.008-.016-.008-.033v-.11h.075v-.025h-.075v-.06zm1.365 0v.06h-.028v.026h.028v.11c0 .025.004.044.015.054.01.01.03.013.057.013h.038V7.18h-.038c-.014 0-.025-.003-.03-.008-.004-.004-.007-.016-.007-.033v-.11h.074v-.025h-.074v-.06zm-3.911.022h.048c.04 0 .07.009.088.026.019.016.03.043.03.08 0 .036-.011.063-.03.08s-.047.026-.088.026h-.048zm-3.206.033a.087.087 0 0 0-.041.009.086.086 0 0 0-.03.027v-.03h-.037v.203h.037v-.115c0-.02.006-.035.017-.047a.059.059 0 0 1 .045-.018c.016 0 .029.005.037.014.009.01.013.024.013.044v.121h.035v-.123a.095.095 0 0 0-.02-.064c-.013-.015-.03-.021-.056-.021zm.398 0a.105.105 0 0 0-.079.03.11.11 0 0 0-.03.08c0 .032.011.057.032.076.02.019.047.028.082.028.014 0 .03-.001.043-.004a.249.249 0 0 0 .04-.012v-.031a.182.182 0 0 1-.079.019c-.024 0-.043-.006-.056-.018a.077.077 0 0 1-.022-.054h.164v-.015a.1.1 0 0 0-.026-.073c-.017-.018-.04-.026-.07-.026zm.265 0a.097.097 0 0 0-.045.009.078.078 0 0 0-.03.027v-.03H9.74v.203h.035v-.108c0-.023.006-.04.017-.052a.059.059 0 0 1 .047-.02l.014.002a.05.05 0 0 1 .013.005V7l-.01-.002h-.007zm.153 0a.08.08 0 0 0-.04.009.09.09 0 0 0-.031.027v-.03h-.035v.203h.035v-.115c0-.02.007-.035.019-.047a.059.059 0 0 1 .044-.018c.017 0 .03.005.038.014.008.01.011.024.011.044v.121h.037v-.123a.095.095 0 0 0-.02-.064c-.013-.015-.033-.021-.058-.021zm.24 0a.105.105 0 0 0-.078.03.11.11 0 0 0-.028.08.1.1 0 0 0 .03.076.12.12 0 0 0 .084.028.184.184 0 0 0 .041-.004.249.249 0 0 0 .04-.012v-.031a.163.163 0 0 1-.079.019c-.024 0-.043-.006-.056-.018a.077.077 0 0 1-.022-.054h.166v-.015a.1.1 0 0 0-.026-.073c-.017-.018-.042-.026-.071-.026zm.266 0a.098.098 0 0 0-.045.009.069.069 0 0 0-.028.027v-.03h-.037v.203h.037v-.108c0-.023.004-.04.015-.052a.059.059 0 0 1 .046-.02l.017.002a.05.05 0 0 1 .013.005V7l-.01-.002h-.009zm.306 0a.105.105 0 0 0-.078.03.11.11 0 0 0-.03.08c0 .032.01.057.031.076a.118.118 0 0 0 .083.028.219.219 0 0 0 .082-.016v-.031a.183.183 0 0 1-.08.019.085.085 0 0 1-.057-.018.077.077 0 0 1-.022-.054h.166v-.015a.1.1 0 0 0-.026-.073.09.09 0 0 0-.069-.026zm.263 0a.078.078 0 0 0-.073.037v-.032h-.037v.204h.037v-.108c0-.023.004-.04.015-.052a.063.063 0 0 1 .049-.02l.014.002a.05.05 0 0 1 .013.005V7l-.01-.002h-.009zm.564 0a.207.207 0 0 0-.075.013v.032a.161.161 0 0 1 .07-.017c.021 0 .035.003.046.012a.044.044 0 0 1 .017.036v.004h-.05a.124.124 0 0 0-.073.017.062.062 0 0 0-.026.052c0 .02.007.035.02.047a.08.08 0 0 0 .055.018.102.102 0 0 0 .044-.01.078.078 0 0 0 .03-.027v.031h.038V7.09a.097.097 0 0 0-.024-.07c-.016-.015-.04-.022-.071-.022zm.278 0a.098.098 0 0 0-.045.009.073.073 0 0 0-.03.027v-.03h-.035v.203h.035v-.108c0-.023.007-.04.017-.052a.059.059 0 0 1 .047-.02l.017.002a.05.05 0 0 1 .013.005V7l-.012-.002h-.007zm.923 0a.105.105 0 0 0-.062.015.05.05 0 0 0-.022.044c0 .015.005.029.014.038.01.01.026.016.049.02l.013.002c.022.005.036.01.043.014.007.005.01.012.01.021 0 .01-.005.017-.014.023a.076.076 0 0 1-.039.008.206.206 0 0 1-.078-.019V7.2a.282.282 0 0 0 .078.013.11.11 0 0 0 .065-.016.052.052 0 0 0 .025-.045c0-.017-.004-.03-.015-.04a.126.126 0 0 0-.056-.02l-.011-.004a.136.136 0 0 1-.04-.012.02.02 0 0 1-.009-.018c0-.01.004-.019.013-.024a.088.088 0 0 1 .041-.007.16.16 0 0 1 .065.014v-.032A.165.165 0 0 0 12.881 7l-.04-.001zm.716 0a.08.08 0 0 0-.039.009.09.09 0 0 0-.032.027v-.03h-.035v.203h.035v-.115c0-.02.006-.035.017-.047a.063.063 0 0 1 .047-.018c.016 0 .03.005.037.014.009.01.011.024.011.044v.121h.038v-.123h-.002c0-.028-.006-.05-.019-.064-.013-.015-.032-.021-.058-.021zm.4 0a.105.105 0 0 0-.078.03.11.11 0 0 0-.03.08c0 .032.01.057.031.076a.116.116 0 0 0 .083.028.219.219 0 0 0 .082-.016v-.031a.183.183 0 0 1-.08.019.085.085 0 0 1-.057-.018.077.077 0 0 1-.022-.054h.166v-.015a.1.1 0 0 0-.026-.073.09.09 0 0 0-.069-.026zm.263 0a.09.09 0 0 0-.043.009.073.073 0 0 0-.03.027v-.03h-.037v.203h.037v-.108c0-.023.004-.04.015-.052a.063.063 0 0 1 .049-.02l.014.002a.05.05 0 0 1 .013.005V7l-.01-.002h-.009zm.155 0a.087.087 0 0 0-.041.009.086.086 0 0 0-.03.027v-.03h-.035v.203h.035v-.115c0-.02.006-.035.017-.047a.063.063 0 0 1 .047-.018c.016 0 .029.005.037.014.008.01.011.024.011.044v.121h.036v-.123c0-.028-.006-.05-.02-.064-.012-.015-.032-.021-.057-.021Zm.24 0a.105.105 0 0 0-.077.03.11.11 0 0 0-.029.08.1.1 0 0 0 .03.076.12.12 0 0 0 .084.028.184.184 0 0 0 .041-.004.249.249 0 0 0 .04-.012v-.031a.183.183 0 0 1-.079.019.082.082 0 0 1-.056-.018.077.077 0 0 1-.022-.054h.166v-.015a.1.1 0 0 0-.026-.073c-.017-.018-.041-.026-.071-.026zm.266 0a.098.098 0 0 0-.045.009.073.073 0 0 0-.03.027v-.03h-.035v.203h.035v-.108c0-.023.006-.04.017-.052a.059.059 0 0 1 .047-.02l.015.002.014.005V7l-.01-.002h-.008zm.304 0a.105.105 0 0 0-.078.03.11.11 0 0 0-.028.08.1.1 0 0 0 .03.076c.02.019.049.028.084.028a.175.175 0 0 0 .04-.004.249.249 0 0 0 .04-.012v-.031a.163.163 0 0 1-.078.019c-.024 0-.043-.006-.056-.018a.077.077 0 0 1-.023-.054h.166v-.015a.1.1 0 0 0-.026-.073.092.092 0 0 0-.07-.026zm.265 0a.098.098 0 0 0-.044.009.069.069 0 0 0-.029.027v-.03h-.037v.203h.037v-.108c0-.023.004-.04.015-.052a.059.059 0 0 1 .047-.02l.017.002a.05.05 0 0 1 .013.005V7l-.01-.002h-.01zm.29 0a.087.087 0 0 0-.041.009.086.086 0 0 0-.03.027v-.03h-.036v.203h.036v-.115c0-.02.005-.035.017-.047a.063.063 0 0 1 .046-.018c.017 0 .03.005.038.014.008.01.01.024.01.044v.121h.036v-.123c0-.028-.006-.05-.019-.064-.012-.015-.032-.021-.057-.021zm.24 0a.105.105 0 0 0-.078.03.11.11 0 0 0-.028.08.1.1 0 0 0 .03.076c.02.019.049.028.084.028a.19.19 0 0 0 .041-.004.249.249 0 0 0 .04-.012v-.031a.183.183 0 0 1-.08.019.08.08 0 0 1-.055-.018.077.077 0 0 1-.022-.054h.166v-.015a.1.1 0 0 0-.026-.073c-.017-.018-.042-.026-.071-.026zm.266 0a.097.097 0 0 0-.045.009.078.078 0 0 0-.03.027v-.03h-.035v.203h.035v-.108c0-.023.006-.04.017-.052a.059.059 0 0 1 .047-.02l.014.002.015.005V7l-.011-.002h-.008zm.304 0a.105.105 0 0 0-.078.03.11.11 0 0 0-.029.08.1.1 0 0 0 .03.076c.021.019.05.028.084.028a.2.2 0 0 0 .042-.004.249.249 0 0 0 .039-.012v-.031a.163.163 0 0 1-.079.019.082.082 0 0 1-.056-.018.077.077 0 0 1-.022-.054h.166v-.015a.1.1 0 0 0-.026-.073.092.092 0 0 0-.07-.026zm.265 0a.098.098 0 0 0-.045.009.073.073 0 0 0-.03.027v-.03h-.035v.203h.035v-.108c0-.023.007-.04.017-.052a.059.059 0 0 1 .047-.02l.017.002a.05.05 0 0 1 .012.005V7l-.009-.002h-.01zm-7.848.005v.203h.037v-.203Zm3.692 0v.203h.036v-.203Zm.682 0v.203h.035v-.203Zm-3.758.022a.06.06 0 0 1 .043.018c.01.01.016.025.017.043h-.13a.068.068 0 0 1 .021-.045.071.071 0 0 1 .049-.015zm.66 0c.018 0 .033.007.044.018.01.01.016.025.017.043h-.13a.066.066 0 0 1 .021-.045.071.071 0 0 1 .049-.015zm.57 0a.058.058 0 0 1 .06.061h-.13a.066.066 0 0 1 .021-.045.071.071 0 0 1 .049-.015zm1.238 0c.019 0 .033.007.045.021a.094.094 0 0 1 .017.06.089.089 0 0 1-.017.057.053.053 0 0 1-.045.02.054.054 0 0 1-.045-.02.091.091 0 0 1-.017-.058c0-.025.006-.045.017-.059a.053.053 0 0 1 .045-.02zm1.906 0c.018 0 .032.007.043.018a.06.06 0 0 1 .017.043h-.129a.068.068 0 0 1 .02-.045.071.071 0 0 1 .05-.015zm.66 0c.019 0 .031.007.042.018a.06.06 0 0 1 .017.043h-.129a.07.07 0 0 1 .022-.045.071.071 0 0 1 .049-.015zm.57 0c.018 0 .032.007.043.018.011.01.017.025.017.043h-.129a.068.068 0 0 1 .02-.045.071.071 0 0 1 .05-.015zm.796 0c.017 0 .03.007.04.018a.06.06 0 0 1 .017.043h-.129a.07.07 0 0 1 .023-.045.072.072 0 0 1 .048-.015zm.569 0c.018 0 .032.007.043.018a.06.06 0 0 1 .017.043h-.129a.068.068 0 0 1 .02-.045.071.071 0 0 1 .05-.015zm-4.89.079h.036v.007a.08.08 0 0 1-.017.054.063.063 0 0 1-.049.019.055.055 0 0 1-.035-.01.036.036 0 0 1-.011-.028c0-.016.005-.027.017-.033.01-.007.03-.01.06-.01z"/><path d="M25.894 4.578 7.89 4.645v.178l18.003-.117Z" style="fill:#8b8789;stroke-width:3.48641;paint-order:fill markers stroke"/><path style="fill:#423d3f;stroke-width:3.48641" d="m7.425 8.36.243-3.348.236-.383-.172 3.462Z"/><path style="fill:#463d40;stroke-width:3.48641" d="m21.005 8.522.243-.364-.306 1.485-.19.177z"/><g style="fill:#233242" transform="matrix(.19419 0 0 .14818 -20.878 4.793)"><circle cx="132.52" cy="121.26" r="3.266" style="fill:#233242;paint-order:fill markers stroke"/></g><g style="fill:#c2dfea" transform="matrix(.18733 0 0 .13057 -19.967 6.896)"><circle cx="132.52" cy="121.26" r="3.266" style="fill:#c2dfea;paint-order:fill markers stroke"/></g><path style="fill:#1a1c20" d="M38.87 14.332a.019.083 2.576 0 0-.02.055.105.019 23.938 0 0-.08-.015.105.019 23.938 0 0 .053.043.019.105 66.062 0 0-.052.043.019.105 66.062 0 0 .076-.015.019.083 2.576 0 0 .015.054.019.083 2.576 0 0 .02-.054.105.019 23.938 0 0 .08.015.105.019 23.938 0 0-.052-.043.019.105 66.062 0 0 .052-.043.019.105 66.062 0 0-.077.015.019.083 2.576 0 0-.015-.055z" transform="matrix(3.61279 0 0 3.36448 -135.558 -25.813)"/><g style="fill:#233242" transform="matrix(.19419 0 0 .14818 3.115 4.604)"><circle cx="132.52" cy="121.26" r="3.266" style="fill:#233242;paint-order:fill markers stroke"/></g><g style="fill:#c2dfea" transform="matrix(.18733 0 0 .13057 4.025 6.707)"><circle cx="132.52" cy="121.26" r="3.266" style="fill:#c2dfea;paint-order:fill markers stroke"/></g><path style="fill:#1a1c20" d="M38.87 14.332a.019.083 2.576 0 0-.02.055.105.019 23.938 0 0-.08-.015.105.019 23.938 0 0 .053.043.019.105 66.062 0 0-.052.043.019.105 66.062 0 0 .076-.015.019.083 2.576 0 0 .015.054.019.083 2.576 0 0 .02-.054.105.019 23.938 0 0 .08.015.105.019 23.938 0 0-.052-.043.019.105 66.062 0 0 .052-.043.019.105 66.062 0 0-.077.015.019.083 2.576 0 0-.015-.055z" transform="matrix(3.61279 0 0 3.36448 -111.566 -26.002)"/><g style="fill:#233242" transform="matrix(.19419 0 0 .14818 -21.651 -4.338)"><circle cx="132.52" cy="121.26" r="3.266" style="fill:#233242;paint-order:fill markers stroke"/></g><g style="fill:#c2dfea" transform="matrix(.18733 0 0 .13057 -20.74 -2.236)"><circle cx="132.52" cy="121.26" r="3.266" style="fill:#99acb5;paint-order:fill markers stroke"/></g><path style="fill:#1a1c20" d="M38.87 14.332a.019.083 2.576 0 0-.02.055.105.019 23.938 0 0-.08-.015.105.019 23.938 0 0 .053.043.019.105 66.062 0 0-.052.043.019.105 66.062 0 0 .076-.015.019.083 2.576 0 0 .015.054.019.083 2.576 0 0 .02-.054.105.019 23.938 0 0 .08.015.105.019 23.938 0 0-.052-.043.019.105 66.062 0 0 .052-.043.019.105 66.062 0 0-.077.015.019.083 2.576 0 0-.015-.055z" transform="matrix(3.61279 0 0 3.36448 -136.332 -34.945)"/><g style="fill:#233242" transform="matrix(.19419 0 0 .14818 3.768 -4.338)"><circle cx="132.52" cy="121.26" r="3.266" style="fill:#233242;paint-order:fill markers stroke"/></g><g style="fill:#c2dfea" transform="matrix(.18733 0 0 .13057 4.679 -2.236)"><circle cx="132.52" cy="121.26" r="3.266" style="fill:#99acb5;paint-order:fill markers stroke"/></g><path style="fill:#1a1c20" d="M38.87 14.332a.019.083 2.576 0 0-.02.055.105.019 23.938 0 0-.08-.015.105.019 23.938 0 0 .053.043.019.105 66.062 0 0-.052.043.019.105 66.062 0 0 .076-.015.019.083 2.576 0 0 .015.054.019.083 2.576 0 0 .02-.054.105.019 23.938 0 0 .08.015.105.019 23.938 0 0-.052-.043.019.105 66.062 0 0 .052-.043.019.105 66.062 0 0-.077.015.019.083 2.576 0 0-.015-.055z" transform="matrix(3.61279 0 0 3.36448 -110.913 -34.945)"/><g style="fill:#233242" transform="matrix(.19419 0 0 .14818 -20.09 -13.07)"><circle cx="132.52" cy="121.26" r="3.266" style="fill:#233242;paint-order:fill markers stroke"/></g><g style="fill:#c2dfea" transform="matrix(.18733 0 0 .13057 -19.179 -10.969)"><circle cx="132.52" cy="121.26" r="3.266" style="fill:#848f95;paint-order:fill markers stroke"/></g><path style="fill:#1a1c20" d="M38.87 14.332a.019.083 2.576 0 0-.02.055.105.019 23.938 0 0-.08-.015.105.019 23.938 0 0 .053.043.019.105 66.062 0 0-.052.043.019.105 66.062 0 0 .076-.015.019.083 2.576 0 0 .015.054.019.083 2.576 0 0 .02-.054.105.019 23.938 0 0 .08.015.105.019 23.938 0 0-.052-.043.019.105 66.062 0 0 .052-.043.019.105 66.062 0 0-.077.015.019.083 2.576 0 0-.015-.055z" transform="matrix(3.61279 0 0 3.36448 -134.77 -43.677)"/><g style="fill:#233242" transform="matrix(.19419 0 0 .14818 2.815 -13.07)"><circle cx="132.52" cy="121.26" r="3.266" style="fill:#233242;paint-order:fill markers stroke"/></g><g style="fill:#c2dfea" transform="matrix(.18733 0 0 .13057 3.725 -10.969)"><circle cx="132.52" cy="121.26" r="3.266" style="fill:#848f95;paint-order:fill markers stroke"/></g><path style="fill:#1a1c20" d="M38.87 14.332a.019.083 2.576 0 0-.02.055.105.019 23.938 0 0-.08-.015.105.019 23.938 0 0 .053.043.019.105 66.062 0 0-.052.043.019.105 66.062 0 0 .076-.015.019.083 2.576 0 0 .015.054.019.083 2.576 0 0 .02-.054.105.019 23.938 0 0 .08.015.105.019 23.938 0 0-.052-.043.019.105 66.062 0 0 .052-.043.019.105 66.062 0 0-.077.015.019.083 2.576 0 0-.015-.055z" transform="matrix(3.61279 0 0 3.36448 -111.866 -43.677)"/><path style="fill:#fff;stroke-width:3.48641" d="M18.477 5.594c-.077 0-.095.071-.139.13l-.985 1.307c-.044.057.06.128.136.128h2.007c.076 0 .178-.07.136-.128l-.939-1.308c-.042-.059-.062-.129-.138-.129zm.016.487c.065 0 .116.058.116.129v.285c0 .07-.05.129-.116.129-.064 0-.117-.058-.117-.129V6.21c0-.07.053-.129.117-.129zm-.007.62a.108.09 0 0 1 .007 0 .108.09 0 0 1 .109.09.108.09 0 0 1-.109.09.108.09 0 0 1-.108-.09.108.09 0 0 1 .101-.09z"/><path style="fill:url(#A);fill-opacity:1;stroke-width:2.68769;stroke-linecap:round;stroke-linejoin:round" d="M2.412 19.742v.661a6.435 6.435 0 0 0 6.45 6.45H25.05a6.435 6.435 0 0 0 6.45-6.45v-.661a6.435 6.435 0 0 1-6.45 6.45H8.86a6.435 6.435 0 0 1-6.45-6.45z"/><path d="M24.911 16.328a8.68 8.68 0 0 0-8.68 8.68 8.68 8.68 0 0 0 8.68 8.679 8.68 8.68 0 0 0 8.68-8.68 8.68 8.68 0 0 0-8.68-8.68z" style="fill:url(#B);fill-opacity:1;stroke-width:2.05028"/><path style="opacity:.172;fill:url(#C);fill-opacity:1;stroke-width:2.28131" d="M24.243 14.731a9.657 9.657 0 0 0-9.657 9.658 9.657 9.657 0 0 0 9.657 9.657A9.657 9.657 0 0 0 33.9 24.39a9.657 9.657 0 0 0-9.657-9.658z"/><path style="fill:url(#D);fill-opacity:1;stroke-width:1.93796" d="M32.601 24.376a7.691 7.691 0 0 1-7.691 7.691 7.691 7.691 0 0 1-7.691-7.69 7.691 7.691 0 0 1 7.691-7.692 7.691 7.691 0 0 1 7.691 7.691z"/><path style="fill:url(#E);fill-opacity:1;stroke:none;stroke-width:1.5875;stroke-linecap:round;stroke-linejoin:round;stroke-miterlimit:4;stroke-dasharray:none;stroke-dashoffset:0;stroke-opacity:.0456274;paint-order:fill markers stroke" d="M23.37 21.226a.387.387 0 0 0-.388.388v2.809h-1.856L25 29.227l3.693-4.804h-1.855v-2.81a.387.387 0 0 0-.387-.387z"/><g style="fill:#252828;fill-opacity:.334601"><path style="opacity:1;fill:url(#F);fill-opacity:1;stroke:none;stroke-width:2;stroke-linecap:round;stroke-linejoin:round;stroke-miterlimit:4;stroke-dasharray:none;stroke-dashoffset:0;stroke-opacity:.0304182;paint-order:fill markers stroke" d="M168.326 76.068c0 5.897-3.15 13.178-19.322 13.178-14.296 0-19.072-6.53-19.072-12.428 0-5.897 8.651-8.678 19.322-8.678s19.072 2.03 19.072 7.928z" transform="translate(-16.836 -1.028) scale(.22365)"/></g><ellipse ry="10.678" rx="19.322" cy="74.068" cx="135.254" style="opacity:1;fill:url(#G);fill-opacity:1;stroke:none;stroke-width:2;stroke-linecap:round;stroke-linejoin:round;stroke-miterlimit:4;stroke-dasharray:none;stroke-dashoffset:0;stroke-opacity:.0304182;paint-order:fill markers stroke" transform="translate(-13.705 -.58) scale(.22365)"/></svg>