<svg xmlns="http://www.w3.org/2000/svg" xmlns:xlink="http://www.w3.org/1999/xlink" width="128" height="128" viewBox="0 0 33.867 33.867"><defs><linearGradient gradientTransform="translate(-111.765 -37.183) scale(.97573)" gradientUnits="userSpaceOnUse" y2="70.68" x2="132.211" y1="42.152" x1="132.211" id="r" xlink:href="#a"/><linearGradient id="a"><stop offset="0" style="stop-color:#ffcd48;stop-opacity:1"/><stop offset="1" style="stop-color:#ffc547;stop-opacity:1"/></linearGradient><linearGradient id="q"><stop style="stop-color:#6a2b0c;stop-opacity:1" offset="0"/><stop style="stop-color:#6a2b0c;stop-opacity:.82352941" offset=".46"/><stop style="stop-color:#6a2b0c;stop-opacity:.61960784" offset=".56"/><stop style="stop-color:#6a2b0c;stop-opacity:.55294118" offset=".597"/><stop style="stop-color:#6a2b0c;stop-opacity:.45882353" offset=".66"/><stop style="stop-color:#6a2b0c;stop-opacity:.35294118" offset=".733"/><stop style="stop-color:#6a2b0c;stop-opacity:.25882353" offset=".793"/><stop style="stop-color:#6a2b0c;stop-opacity:.19215686" offset=".832"/><stop style="stop-color:#6a2b0c;stop-opacity:.11372549" offset=".892"/><stop style="stop-color:#6a2b0c;stop-opacity:.0627451" offset=".938"/><stop style="stop-color:#6a2b0c;stop-opacity:.03921569" offset=".963"/><stop style="stop-color:#6a2b0c;stop-opacity:0" offset="1"/></linearGradient><linearGradient xlink:href="#b" id="t" x1="575.879" y1="318.284" x2="605.79" y2="350.962" gradientUnits="userSpaceOnUse" gradientTransform="translate(-12.113 -8.901) scale(.21598)"/><linearGradient id="b"><stop style="stop-color:#756692;stop-opacity:1" offset="0"/><stop style="stop-color:#5a4e74;stop-opacity:1" offset="1"/></linearGradient><linearGradient xlink:href="#c" id="u" x1="-172.68" y1="442.507" x2="-172.68" y2="117.168" gradientUnits="userSpaceOnUse"/><linearGradient id="c"><stop style="stop-color:#1d1d24;stop-opacity:1" offset="0"/><stop style="stop-color:#2e2c37;stop-opacity:1" offset="1"/></linearGradient><linearGradient id="j"><stop style="stop-color:#ffc847;stop-opacity:1" offset="0"/><stop style="stop-color:#ffc847;stop-opacity:1" offset=".346"/><stop style="stop-color:#e35400;stop-opacity:1" offset="1"/></linearGradient><linearGradient xlink:href="#d" id="aa" x1="254.99" y1="100.773" x2="254.99" y2="193.601" gradientUnits="userSpaceOnUse"/><linearGradient id="d"><stop style="stop-color:#010101;stop-opacity:1" offset="0"/><stop style="stop-color:#4b4a52;stop-opacity:1" offset="1"/></linearGradient><linearGradient id="k"><stop style="stop-color:#7c6b8d;stop-opacity:1" offset="0"/><stop style="stop-color:#54425c;stop-opacity:1" offset=".567"/><stop style="stop-color:#655674;stop-opacity:1" offset=".567"/><stop style="stop-color:#655674;stop-opacity:1" offset=".595"/><stop style="stop-color:#5c5076;stop-opacity:1" offset=".595"/><stop style="stop-color:#5d5074;stop-opacity:1" offset=".711"/><stop style="stop-color:#594b6d;stop-opacity:1" offset=".711"/><stop style="stop-color:#584a6b;stop-opacity:1" offset=".738"/><stop style="stop-color:#5c4f75;stop-opacity:1" offset=".738"/><stop style="stop-color:#827091;stop-opacity:1" offset=".738"/><stop style="stop-color:#837192;stop-opacity:1" offset=".769"/><stop style="stop-color:#5e5177;stop-opacity:1" offset=".769"/><stop style="stop-color:#584c72;stop-opacity:1" offset=".868"/><stop style="stop-color:#837192;stop-opacity:1" offset=".868"/><stop style="stop-color:#847293;stop-opacity:1" offset=".942"/><stop style="stop-color:#857292;stop-opacity:0" offset=".942"/><stop style="stop-color:#f9c445;stop-opacity:0" offset="1"/></linearGradient><linearGradient id="l"><stop style="stop-color:#cf5700;stop-opacity:0" offset="0"/><stop style="stop-color:#cf5700;stop-opacity:0" offset=".5"/><stop style="stop-color:#cf5700;stop-opacity:.90828627" offset="1"/></linearGradient><linearGradient id="m"><stop style="stop-color:#b84b00;stop-opacity:0" offset="0"/><stop style="stop-color:#b84b00;stop-opacity:0" offset=".5"/><stop style="stop-color:#b84b00;stop-opacity:.03529412" offset=".556"/><stop style="stop-color:#b84b00;stop-opacity:.07058824" offset=".612"/><stop style="stop-color:#b84b00;stop-opacity:.10588235" offset=".661"/><stop style="stop-color:#b84b00;stop-opacity:.12941176" offset=".72"/><stop style="stop-color:#b84b00;stop-opacity:1" offset="1"/></linearGradient><linearGradient xlink:href="#e" id="W" gradientUnits="userSpaceOnUse" x1="254.99" y1="100.773" x2="254.99" y2="193.601"/><linearGradient id="e"><stop style="stop-color:#444349;stop-opacity:1" offset="0"/><stop style="stop-color:#010101;stop-opacity:1" offset="1"/></linearGradient><linearGradient xlink:href="#f" id="R" gradientUnits="userSpaceOnUse" x1="293.56" y1="122.098" x2="211.86" y2="148.168"/><linearGradient id="f"><stop style="stop-color:#010000;stop-opacity:1" offset="0"/><stop style="stop-color:#49484f;stop-opacity:1" offset="1"/></linearGradient><linearGradient xlink:href="#g" id="ab" x1="350.676" y1="227.099" x2="350.676" y2="286.848" gradientUnits="userSpaceOnUse" gradientTransform="translate(-95.208 -.87)"/><linearGradient id="g"><stop style="stop-color:#492728;stop-opacity:1" offset="0"/><stop style="stop-color:#544768;stop-opacity:1" offset="1"/></linearGradient><linearGradient id="n"><stop style="stop-color:#000;stop-opacity:1" offset="0"/><stop style="stop-color:#000;stop-opacity:.09803922" offset=".794"/><stop style="stop-color:#000;stop-opacity:.05098039" offset=".872"/><stop style="stop-color:#000;stop-opacity:0" offset="1"/></linearGradient><linearGradient xlink:href="#h" id="ad" gradientUnits="userSpaceOnUse" x1="207.357" y1="355.143" x2="207.673" y2="386.463" gradientTransform="rotate(-19.618 -109.883 58.277)"/><linearGradient id="h"><stop style="stop-color:#000;stop-opacity:0" offset="0"/><stop style="stop-color:#000;stop-opacity:.20784314" offset=".083"/><stop style="stop-color:#000;stop-opacity:.37647059" offset=".176"/><stop style="stop-color:#000;stop-opacity:1" offset=".307"/><stop style="stop-color:#000;stop-opacity:1" offset=".572"/><stop style="stop-color:#000;stop-opacity:.21176471" offset=".826"/><stop style="stop-color:#000;stop-opacity:.08627451" offset=".907"/><stop style="stop-color:#000;stop-opacity:0" offset="1"/></linearGradient><linearGradient xlink:href="#i" id="ae" x1="210.387" y1="363.363" x2="210.306" y2="371.765" gradientUnits="userSpaceOnUse" gradientTransform="translate(-13.188 -40.277)"/><linearGradient id="i"><stop style="stop-color:#fef7e2;stop-opacity:1" offset="0"/><stop style="stop-color:#f9e0ba;stop-opacity:1" offset="1"/></linearGradient><linearGradient id="o"><stop style="stop-color:#b64c00;stop-opacity:1" offset="0"/><stop style="stop-color:#b64c00;stop-opacity:0" offset="1"/></linearGradient><linearGradient id="p"><stop style="stop-color:#fff;stop-opacity:1" offset="0"/><stop style="stop-color:#fbe1b0;stop-opacity:1" offset="1"/></linearGradient><linearGradient xlink:href="#h" id="ah" gradientUnits="userSpaceOnUse" x1="207.357" y1="355.143" x2="207.673" y2="386.463" gradientTransform="matrix(-.92386 -1.30599 .81762 -.57576 110.488 691.665)"/><linearGradient xlink:href="#i" id="ai" gradientUnits="userSpaceOnUse" x1="210.387" y1="363.363" x2="210.306" y2="371.765" gradientTransform="matrix(1.59972 0 0 1 -629.135 -309.244)"/><linearGradient xlink:href="#d" id="D" gradientUnits="userSpaceOnUse" x1="254.99" y1="100.773" x2="254.99" y2="193.601"/><linearGradient xlink:href="#d" id="H" gradientUnits="userSpaceOnUse" x1="254.99" y1="100.773" x2="254.99" y2="193.601"/><linearGradient xlink:href="#e" id="L" gradientUnits="userSpaceOnUse" x1="254.99" y1="100.773" x2="254.99" y2="193.601"/><linearGradient xlink:href="#e" id="M" gradientUnits="userSpaceOnUse" x1="254.99" y1="100.773" x2="254.99" y2="193.601"/><linearGradient xlink:href="#e" id="Q" gradientUnits="userSpaceOnUse" x1="254.99" y1="100.773" x2="254.99" y2="193.601"/><linearGradient xlink:href="#e" id="V" gradientUnits="userSpaceOnUse" x1="254.99" y1="100.773" x2="254.99" y2="193.601"/><radialGradient xlink:href="#j" id="v" gradientUnits="userSpaceOnUse" gradientTransform="matrix(2.9011 0 0 1.47972 -520.954 -41.384)" cx="274.026" cy="80.799" fx="274.026" fy="80.799" r="4.376"/><radialGradient xlink:href="#j" id="w" gradientUnits="userSpaceOnUse" gradientTransform="matrix(2.9011 0 0 1.47972 -520.954 -41.384)" cx="274.026" cy="80.799" fx="274.026" fy="80.799" r="4.376"/><radialGradient xlink:href="#j" id="x" gradientUnits="userSpaceOnUse" gradientTransform="matrix(2.9011 0 0 1.47972 -520.954 -41.384)" cx="274.026" cy="80.799" fx="274.026" fy="80.799" r="4.376"/><radialGradient xlink:href="#j" id="y" gradientUnits="userSpaceOnUse" gradientTransform="matrix(2.9011 0 0 1.47972 -520.954 -41.384)" cx="274.026" cy="80.799" fx="274.026" fy="80.799" r="4.376"/><radialGradient xlink:href="#j" id="z" gradientUnits="userSpaceOnUse" gradientTransform="matrix(2.9011 0 0 1.47972 -520.954 -41.384)" cx="274.026" cy="80.799" fx="274.026" fy="80.799" r="4.376"/><radialGradient xlink:href="#j" id="A" gradientUnits="userSpaceOnUse" gradientTransform="matrix(2.9011 0 0 1.47972 -520.954 -41.384)" cx="274.026" cy="80.799" fx="274.026" fy="80.799" r="4.376"/><radialGradient xlink:href="#j" id="B" gradientUnits="userSpaceOnUse" gradientTransform="matrix(2.9011 0 0 1.47972 -520.954 -41.384)" cx="274.026" cy="80.799" fx="274.026" fy="80.799" r="4.376"/><radialGradient xlink:href="#j" id="C" gradientUnits="userSpaceOnUse" gradientTransform="matrix(2.9011 0 0 1.47972 -520.954 -41.384)" cx="274.026" cy="80.799" fx="274.026" fy="80.799" r="4.376"/><radialGradient xlink:href="#k" id="E" gradientUnits="userSpaceOnUse" gradientTransform="matrix(3.10374 .00458 -.0046 3.12426 -735.705 -447.029)" cx="350.352" cy="224.771" fx="350.352" fy="224.771" r="42.649"/><radialGradient xlink:href="#l" id="F" gradientUnits="userSpaceOnUse" gradientTransform="matrix(1.98657 0 0 1.92246 -345.914 -126.924)" cx="350.64" cy="158.368" fx="350.64" fy="158.368" r="42.649"/><radialGradient xlink:href="#m" id="G" gradientUnits="userSpaceOnUse" gradientTransform="matrix(1.34696 .00213 -.00219 1.38114 -121.334 -56.074)" cx="350.624" cy="145.158" fx="350.624" fy="145.158" r="42.649"/><radialGradient xlink:href="#k" id="I" gradientUnits="userSpaceOnUse" gradientTransform="matrix(3.10374 .00458 -.0046 3.12426 -735.705 -447.029)" cx="350.352" cy="224.771" fx="350.352" fy="224.771" r="42.649"/><radialGradient xlink:href="#l" id="J" gradientUnits="userSpaceOnUse" gradientTransform="matrix(1.98657 0 0 1.92246 -345.914 -126.924)" cx="350.64" cy="158.368" fx="350.64" fy="158.368" r="42.649"/><radialGradient xlink:href="#m" id="K" gradientUnits="userSpaceOnUse" gradientTransform="matrix(1.34696 .00213 -.00219 1.38114 -121.334 -56.074)" cx="350.624" cy="145.158" fx="350.624" fy="145.158" r="42.649"/><radialGradient xlink:href="#k" id="N" gradientUnits="userSpaceOnUse" gradientTransform="matrix(3.10374 .00458 -.0046 3.12426 -735.705 -447.029)" cx="350.352" cy="224.771" fx="350.352" fy="224.771" r="42.649"/><radialGradient xlink:href="#l" id="O" gradientUnits="userSpaceOnUse" gradientTransform="matrix(1.98657 0 0 1.92246 -345.914 -126.924)" cx="350.64" cy="158.368" fx="350.64" fy="158.368" r="42.649"/><radialGradient xlink:href="#m" id="P" gradientUnits="userSpaceOnUse" gradientTransform="matrix(1.34696 .00213 -.00219 1.38114 -121.334 -56.074)" cx="350.624" cy="145.158" fx="350.624" fy="145.158" r="42.649"/><radialGradient xlink:href="#k" id="S" gradientUnits="userSpaceOnUse" gradientTransform="matrix(3.10374 .00458 -.0046 3.12426 -735.705 -447.029)" cx="350.352" cy="224.771" fx="350.352" fy="224.771" r="42.649"/><radialGradient xlink:href="#l" id="T" gradientUnits="userSpaceOnUse" gradientTransform="matrix(1.98657 0 0 1.92246 -345.914 -126.924)" cx="350.64" cy="158.368" fx="350.64" fy="158.368" r="42.649"/><radialGradient xlink:href="#m" id="U" gradientUnits="userSpaceOnUse" gradientTransform="matrix(1.34696 .00213 -.00219 1.38114 -121.334 -56.074)" cx="350.624" cy="145.158" fx="350.624" fy="145.158" r="42.649"/><radialGradient xlink:href="#k" id="X" gradientUnits="userSpaceOnUse" gradientTransform="matrix(3.10374 .00458 -.0046 3.12426 -735.705 -447.029)" cx="350.352" cy="224.771" fx="350.352" fy="224.771" r="42.649"/><radialGradient xlink:href="#l" id="Y" gradientUnits="userSpaceOnUse" gradientTransform="matrix(1.98657 0 0 1.92246 -345.914 -126.924)" cx="350.64" cy="158.368" fx="350.64" fy="158.368" r="42.649"/><radialGradient xlink:href="#m" id="Z" gradientUnits="userSpaceOnUse" gradientTransform="matrix(1.34696 .00213 -.00219 1.38114 -121.334 -56.074)" cx="350.624" cy="145.158" fx="350.624" fy="145.158" r="42.649"/><radialGradient xlink:href="#n" id="ac" cx="297.651" cy="268.067" fx="297.651" fy="268.067" r="24.297" gradientUnits="userSpaceOnUse" gradientTransform="translate(-654.048 -144.98) scale(1.50107)"/><radialGradient xlink:href="#o" id="af" cx="297.651" cy="268.067" fx="297.651" fy="268.067" r="24.297" gradientUnits="userSpaceOnUse" gradientTransform="translate(109.598 12.853) scale(.79874)"/><radialGradient xlink:href="#p" id="ag" cx="301.888" cy="265.11" fx="301.888" fy="265.11" r="18.34" gradientUnits="userSpaceOnUse" gradientTransform="matrix(1.14735 0 0 1.3253 .677 -130.01)"/><radialGradient xlink:href="#o" id="aj" cx="297.651" cy="268.067" fx="297.651" fy="268.067" r="24.297" gradientUnits="userSpaceOnUse" gradientTransform="translate(-42.553 -12.064)"/><radialGradient xlink:href="#p" id="ak" cx="301.888" cy="265.11" fx="301.888" fy="265.11" r="18.34" gradientUnits="userSpaceOnUse" gradientTransform="matrix(1.43644 0 0 1.65924 -178.919 -190.922)"/><radialGradient xlink:href="#o" id="al" gradientUnits="userSpaceOnUse" gradientTransform="translate(-73.853 -83.765) scale(.79947)" cx="297.651" cy="268.067" fx="297.651" fy="268.067" r="24.297"/><radialGradient xlink:href="#p" id="am" gradientUnits="userSpaceOnUse" gradientTransform="matrix(1.1484 0 0 1.32652 -182.874 -226.758)" cx="301.888" cy="265.11" fx="301.888" fy="265.11" r="18.34"/><radialGradient xlink:href="#q" id="s" gradientUnits="userSpaceOnUse" gradientTransform="translate(51.79 -8.894) scale(.06065)" cx="-571.094" cy="434.785" fx="-571.094" fy="434.785" r="229.445"/></defs><g style="opacity:.295" transform="translate(-65.737 -37.183) scale(.97573)"><rect ry="6.61" rx="6.61" y="40.71" x="69.84" height="29.811" width="29.811" style="fill:none;fill-opacity:1;stroke:#000;stroke-width:.1;stroke-linecap:round;stroke-linejoin:round;stroke-miterlimit:4;stroke-dasharray:none;stroke-opacity:.02"/><rect style="fill:none;fill-opacity:1;stroke:#000;stroke-width:.2;stroke-linecap:round;stroke-linejoin:round;stroke-miterlimit:4;stroke-dasharray:none;stroke-opacity:.02" width="29.811" height="29.811" x="69.84" y="40.71" rx="6.61" ry="6.61"/><rect ry="6.61" rx="6.61" y="40.71" x="69.84" height="29.811" width="29.811" style="fill:none;fill-opacity:1;stroke:#000;stroke-width:.3;stroke-linecap:round;stroke-linejoin:round;stroke-miterlimit:4;stroke-dasharray:none;stroke-opacity:.02"/><rect style="fill:none;fill-opacity:1;stroke:#000;stroke-width:.4;stroke-linecap:round;stroke-linejoin:round;stroke-miterlimit:4;stroke-dasharray:none;stroke-opacity:.02" width="29.811" height="29.811" x="69.84" y="40.71" rx="6.61" ry="6.61"/><rect ry="6.61" rx="6.61" y="40.71" x="69.84" height="29.811" width="29.811" style="fill:none;fill-opacity:1;stroke:#000;stroke-width:.5;stroke-linecap:round;stroke-linejoin:round;stroke-miterlimit:4;stroke-dasharray:none;stroke-opacity:.02"/><rect style="fill:none;fill-opacity:1;stroke:#000;stroke-width:.6;stroke-linecap:round;stroke-linejoin:round;stroke-miterlimit:4;stroke-dasharray:none;stroke-opacity:.02" width="29.811" height="29.811" x="69.84" y="40.71" rx="6.61" ry="6.61"/><rect ry="6.61" rx="6.61" y="40.71" x="69.84" height="29.811" width="29.811" style="fill:none;fill-opacity:1;stroke:#000;stroke-width:.7;stroke-linecap:round;stroke-linejoin:round;stroke-miterlimit:4;stroke-dasharray:none;stroke-opacity:.02"/><rect style="fill:none;fill-opacity:1;stroke:#000;stroke-width:.8;stroke-linecap:round;stroke-linejoin:round;stroke-miterlimit:4;stroke-dasharray:none;stroke-opacity:.02" width="29.811" height="29.811" x="69.84" y="40.71" rx="6.61" ry="6.61"/><rect ry="6.61" rx="6.61" y="40.71" x="69.84" height="29.811" width="29.811" style="fill:none;fill-opacity:1;stroke:#000;stroke-width:1;stroke-linecap:round;stroke-linejoin:round;stroke-miterlimit:4;stroke-dasharray:none;stroke-opacity:.02"/><rect style="fill:none;fill-opacity:1;stroke:#000;stroke-width:1.2;stroke-linecap:round;stroke-linejoin:round;stroke-miterlimit:4;stroke-dasharray:none;stroke-opacity:.02" width="29.811" height="29.811" x="69.84" y="40.71" rx="6.61" ry="6.61"/><rect ry="6.61" rx="6.61" y="40.71" x="69.84" height="29.811" width="29.811" style="fill:none;fill-opacity:1;stroke:#000;stroke-width:1.4;stroke-linecap:round;stroke-linejoin:round;stroke-miterlimit:4;stroke-dasharray:none;stroke-opacity:.02"/><rect style="fill:none;fill-opacity:1;stroke:#000;stroke-width:1.6;stroke-linecap:round;stroke-linejoin:round;stroke-miterlimit:4;stroke-dasharray:none;stroke-opacity:.02" width="29.811" height="29.811" x="69.84" y="40.71" rx="6.61" ry="6.61"/><rect ry="6.61" rx="6.61" y="40.71" x="69.84" height="29.811" width="29.811" style="fill:none;fill-opacity:1;stroke:#000;stroke-width:1.8;stroke-linecap:round;stroke-linejoin:round;stroke-miterlimit:4;stroke-dasharray:none;stroke-opacity:.02"/><rect style="fill:none;fill-opacity:1;stroke:#000;stroke-width:2;stroke-linecap:round;stroke-linejoin:round;stroke-miterlimit:4;stroke-dasharray:none;stroke-opacity:.02" width="29.811" height="29.811" x="69.84" y="40.71" rx="6.61" ry="6.61"/><rect ry="6.61" rx="6.61" y="40.71" x="69.84" height="29.811" width="29.811" style="fill:none;fill-opacity:1;stroke:#000;stroke-width:2.2;stroke-linecap:round;stroke-linejoin:round;stroke-miterlimit:4;stroke-dasharray:none;stroke-opacity:.02"/><rect style="fill:none;fill-opacity:1;stroke:#000;stroke-width:2.6;stroke-linecap:round;stroke-linejoin:round;stroke-miterlimit:4;stroke-dasharray:none;stroke-opacity:.02" width="29.811" height="29.811" x="69.84" y="40.71" rx="6.61" ry="6.61"/><rect ry="6.61" rx="6.61" y="40.71" x="69.84" height="29.811" width="29.811" style="fill:none;fill-opacity:1;stroke:#000;stroke-width:3;stroke-linecap:round;stroke-linejoin:round;stroke-miterlimit:4;stroke-dasharray:none;stroke-opacity:.02"/><rect style="fill:none;fill-opacity:1;stroke:#000;stroke-width:3.4;stroke-linecap:round;stroke-linejoin:round;stroke-miterlimit:4;stroke-dasharray:none;stroke-opacity:.02" width="29.811" height="29.811" x="69.84" y="40.71" rx="6.61" ry="6.61"/><rect ry="6.61" rx="6.61" y="40.71" x="69.84" height="29.811" width="29.811" style="fill:none;fill-opacity:1;stroke:#000;stroke-width:3.8;stroke-linecap:round;stroke-linejoin:round;stroke-miterlimit:4;stroke-dasharray:none;stroke-opacity:.02"/><rect style="fill:none;fill-opacity:1;stroke:#000;stroke-width:4.2;stroke-linecap:round;stroke-linejoin:round;stroke-miterlimit:4;stroke-dasharray:none;stroke-opacity:.02" width="29.811" height="29.811" x="69.84" y="40.71" rx="6.61" ry="6.61"/><rect ry="6.61" rx="6.61" y="40.71" x="69.84" height="29.811" width="29.811" style="fill:none;fill-opacity:1;stroke:#000;stroke-width:4.6;stroke-linecap:round;stroke-linejoin:round;stroke-miterlimit:4;stroke-dasharray:none;stroke-opacity:.02"/><rect style="fill:none;fill-opacity:1;stroke:#000;stroke-width:5;stroke-linecap:round;stroke-linejoin:round;stroke-miterlimit:4;stroke-dasharray:none;stroke-opacity:.02" width="29.811" height="29.811" x="69.84" y="40.71" rx="6.61" ry="6.61"/></g><rect ry="6.449" rx="6.449" y="2.539" x="2.407" height="29.087" width="29.087" style="fill:url(#r);fill-opacity:1;stroke-width:2.68768;stroke-linecap:round;stroke-linejoin:round"/><circle style="fill:url(#s);fill-opacity:1;stroke:none;stroke-width:.52095;stroke-linecap:round;stroke-linejoin:round;stroke-miterlimit:4;stroke-dasharray:none;stroke-opacity:1" cx="17.155" cy="17.475" r="13.915"/><path style="fill:url(#t);fill-opacity:1;stroke:none;stroke-width:.215978px;stroke-linecap:butt;stroke-linejoin:miter;stroke-opacity:1" d="M119.035 57.08c-9.711 11.948-20.589 17.19-33.826 22.238-7.628.315-13.613 1.447-10.914 6.897 14.139-2.275 27.602-5.053 44.74-21.975v-7.16z" transform="scale(.26458)"/><g transform="translate(-19.72 2.944) scale(.05714)"><circle style="opacity:1;fill:#38353a;fill-opacity:1;stroke:none;stroke-width:7.53132;stroke-linecap:round;stroke-linejoin:round;stroke-miterlimit:4;stroke-dasharray:none;stroke-opacity:1" cx="644.181" cy="257.196" r="201.169"/><circle style="opacity:1;fill:#76737c;fill-opacity:1;stroke:none;stroke-width:7.34851;stroke-linecap:round;stroke-linejoin:round;stroke-miterlimit:4;stroke-dasharray:none;stroke-opacity:1" cx="644.181" cy="257.196" r="196.286"/><circle style="opacity:1;fill:#504f57;fill-opacity:1;stroke:none;stroke-width:7.22582;stroke-linecap:round;stroke-linejoin:round;stroke-miterlimit:4;stroke-dasharray:none;stroke-opacity:1" cx="644.181" cy="257.196" r="193.008"/></g><g transform="translate(28.953 2.985) scale(.05714)"><circle style="opacity:1;fill:url(#u);fill-opacity:1;stroke:url(#linearGradient845);stroke-width:4.5;stroke-linecap:round;stroke-linejoin:round;stroke-miterlimit:4;stroke-dasharray:none;stroke-opacity:1" cx="-207.572" cy="256.481" r="189.181"/><path style="fill:none;stroke:#6d6c72;stroke-width:5;stroke-linecap:round;stroke-linejoin:miter;stroke-miterlimit:4;stroke-dasharray:none;stroke-opacity:1" d="m199.744 84.069 2.634 8.099M309.52 421.545l2.635 8.1M228.078 77.307l1.306 8.417m53.129 342.265 1.306 8.417m.089-359.085-1.31 8.416m-53.299 342.24-1.31 8.415m84.553-352.197-2.653 8.094M202.008 421.424l-2.653 8.094M338.147 94.813l-3.853 7.596m-156.69 308.895-3.854 7.596m189.167-308.92-5.015 6.885M153.995 396.848l-5.014 6.885M402.453 149.38l-6.868 5.038M116.312 359.296l-6.867 5.038m308.201-190.355-7.58 3.884M101.831 335.85l-7.58 3.885M435.5 284.71l-8.416-1.305m-342.27-53.097-8.417-1.306m352.581 83.311-8.11-2.6M91.03 204l-8.111-2.6m335.557 136.694-7.618-3.808M101.039 179.428l-7.618-3.808M403.44 362.974 396.527 358M115.37 155.714l-6.913-4.975m254.254 253.143-5.004-6.892M154.19 116.723l-5.004-6.892m190.375 308.344-3.92-7.562M176.256 103.1l-3.919-7.562" transform="translate(-463.52 -.376)"/><g transform="translate(-481.72 2.592)"><rect style="opacity:1;fill:#ffc847;fill-opacity:1;stroke:none;stroke-width:5;stroke-linecap:round;stroke-linejoin:round;stroke-miterlimit:4;stroke-dasharray:none;stroke-opacity:1" width="8.752" height="20.972" x="269.65" y="71.76" rx="4.376" ry="4.376"/><path style="opacity:1;fill:url(#v);fill-opacity:1;stroke:none;stroke-width:5;stroke-linecap:round;stroke-linejoin:round;stroke-miterlimit:4;stroke-dasharray:none;stroke-opacity:1" d="M274.025 71.76a4.365 4.365 0 0 0-4.375 4.375v1.842h8.752v-1.842a4.366 4.366 0 0 0-4.377-4.375z"/><g style="opacity:.185859"><path style="opacity:1;fill:#a73c00;fill-opacity:.151442;stroke:none;stroke-width:5;stroke-linecap:round;stroke-linejoin:round;stroke-miterlimit:4;stroke-dasharray:none;stroke-opacity:1" d="M274.025 71.76a4.365 4.365 0 0 0-4.375 4.375v12.22c0 1.633.896 3.035 2.215 3.788a4.35 4.35 0 0 1-1.203-3.004V76.918a4.365 4.365 0 0 1 4.375-4.375c.792 0 1.523.223 2.162.588a4.353 4.353 0 0 0-3.174-1.371z"/><path style="opacity:1;fill:#a73c00;fill-opacity:.380264;stroke:none;stroke-width:5;stroke-linecap:round;stroke-linejoin:round;stroke-miterlimit:4;stroke-dasharray:none;stroke-opacity:1" d="M274.025 71.76a4.365 4.365 0 0 0-4.375 4.375v12.22a4.35 4.35 0 0 0 1.522 3.3 4.345 4.345 0 0 1-1.078-2.856V76.58a4.366 4.366 0 0 1 4.377-4.375c1.098 0 2.086.413 2.853 1.076a4.346 4.346 0 0 0-3.299-1.521z"/></g></g><g transform="translate(-481.476 350.467)"><rect style="opacity:1;fill:#ffc847;fill-opacity:1;stroke:none;stroke-width:5;stroke-linecap:round;stroke-linejoin:round;stroke-miterlimit:4;stroke-dasharray:none;stroke-opacity:1" width="8.752" height="20.972" x="269.65" y="71.76" rx="4.376" ry="4.376"/><path style="opacity:1;fill:url(#w);fill-opacity:1;stroke:none;stroke-width:5;stroke-linecap:round;stroke-linejoin:round;stroke-miterlimit:4;stroke-dasharray:none;stroke-opacity:1" d="M274.025 71.76a4.365 4.365 0 0 0-4.375 4.375v1.842h8.752v-1.842a4.366 4.366 0 0 0-4.377-4.375z"/><g style="opacity:.185859"><path style="opacity:1;fill:#a73c00;fill-opacity:.151442;stroke:none;stroke-width:5;stroke-linecap:round;stroke-linejoin:round;stroke-miterlimit:4;stroke-dasharray:none;stroke-opacity:1" d="M274.025 71.76a4.365 4.365 0 0 0-4.375 4.375v12.22c0 1.633.896 3.035 2.215 3.788a4.35 4.35 0 0 1-1.203-3.004V76.918a4.365 4.365 0 0 1 4.375-4.375c.792 0 1.523.223 2.162.588a4.353 4.353 0 0 0-3.174-1.371z"/><path style="opacity:1;fill:#a73c00;fill-opacity:.380264;stroke:none;stroke-width:5;stroke-linecap:round;stroke-linejoin:round;stroke-miterlimit:4;stroke-dasharray:none;stroke-opacity:1" d="M274.025 71.76a4.365 4.365 0 0 0-4.375 4.375v12.22a4.35 4.35 0 0 0 1.522 3.3 4.345 4.345 0 0 1-1.078-2.856V76.58a4.366 4.366 0 0 1 4.377-4.375c1.098 0 2.086.413 2.853 1.076a4.346 4.346 0 0 0-3.299-1.521z"/></g></g><g transform="rotate(45.329 30.185 -319.314)"><rect style="opacity:1;fill:#ffc847;fill-opacity:1;stroke:none;stroke-width:5;stroke-linecap:round;stroke-linejoin:round;stroke-miterlimit:4;stroke-dasharray:none;stroke-opacity:1" width="8.752" height="20.972" x="269.65" y="71.76" rx="4.376" ry="4.376"/><path style="opacity:1;fill:url(#x);fill-opacity:1;stroke:none;stroke-width:5;stroke-linecap:round;stroke-linejoin:round;stroke-miterlimit:4;stroke-dasharray:none;stroke-opacity:1" d="M274.025 71.76a4.365 4.365 0 0 0-4.375 4.375v1.842h8.752v-1.842a4.366 4.366 0 0 0-4.377-4.375z"/><g style="opacity:.185859"><path style="opacity:1;fill:#a73c00;fill-opacity:.151442;stroke:none;stroke-width:5;stroke-linecap:round;stroke-linejoin:round;stroke-miterlimit:4;stroke-dasharray:none;stroke-opacity:1" d="M274.025 71.76a4.365 4.365 0 0 0-4.375 4.375v12.22c0 1.633.896 3.035 2.215 3.788a4.35 4.35 0 0 1-1.203-3.004V76.918a4.365 4.365 0 0 1 4.375-4.375c.792 0 1.523.223 2.162.588a4.353 4.353 0 0 0-3.174-1.371z"/><path style="opacity:1;fill:#a73c00;fill-opacity:.380264;stroke:none;stroke-width:5;stroke-linecap:round;stroke-linejoin:round;stroke-miterlimit:4;stroke-dasharray:none;stroke-opacity:1" d="M274.025 71.76a4.365 4.365 0 0 0-4.375 4.375v12.22a4.35 4.35 0 0 0 1.522 3.3 4.345 4.345 0 0 1-1.078-2.856V76.58a4.366 4.366 0 0 1 4.377-4.375c1.098 0 2.086.413 2.853 1.076a4.346 4.346 0 0 0-3.299-1.521z"/></g></g><g transform="rotate(45.329 -386.469 -492.958)"><rect style="opacity:1;fill:#ffc847;fill-opacity:1;stroke:none;stroke-width:5;stroke-linecap:round;stroke-linejoin:round;stroke-miterlimit:4;stroke-dasharray:none;stroke-opacity:1" width="8.752" height="20.972" x="269.65" y="71.76" rx="4.376" ry="4.376"/><path style="opacity:1;fill:url(#y);fill-opacity:1;stroke:none;stroke-width:5;stroke-linecap:round;stroke-linejoin:round;stroke-miterlimit:4;stroke-dasharray:none;stroke-opacity:1" d="M274.025 71.76a4.365 4.365 0 0 0-4.375 4.375v1.842h8.752v-1.842a4.366 4.366 0 0 0-4.377-4.375z"/><g style="opacity:.185859"><path style="opacity:1;fill:#a73c00;fill-opacity:.151442;stroke:none;stroke-width:5;stroke-linecap:round;stroke-linejoin:round;stroke-miterlimit:4;stroke-dasharray:none;stroke-opacity:1" d="M274.025 71.76a4.365 4.365 0 0 0-4.375 4.375v12.22c0 1.633.896 3.035 2.215 3.788a4.35 4.35 0 0 1-1.203-3.004V76.918a4.365 4.365 0 0 1 4.375-4.375c.792 0 1.523.223 2.162.588a4.353 4.353 0 0 0-3.174-1.371z"/><path style="opacity:1;fill:#a73c00;fill-opacity:.380264;stroke:none;stroke-width:5;stroke-linecap:round;stroke-linejoin:round;stroke-miterlimit:4;stroke-dasharray:none;stroke-opacity:1" d="M274.025 71.76a4.365 4.365 0 0 0-4.375 4.375v12.22a4.35 4.35 0 0 0 1.522 3.3 4.345 4.345 0 0 1-1.078-2.856V76.58a4.366 4.366 0 0 1 4.377-4.375c1.098 0 2.086.413 2.853 1.076a4.346 4.346 0 0 0-3.299-1.521z"/></g></g><g transform="rotate(89.957 31.991 16.436)"><rect style="opacity:1;fill:#ffc847;fill-opacity:1;stroke:none;stroke-width:5;stroke-linecap:round;stroke-linejoin:round;stroke-miterlimit:4;stroke-dasharray:none;stroke-opacity:1" width="8.752" height="20.972" x="269.65" y="71.76" rx="4.376" ry="4.376"/><path style="opacity:1;fill:url(#z);fill-opacity:1;stroke:none;stroke-width:5;stroke-linecap:round;stroke-linejoin:round;stroke-miterlimit:4;stroke-dasharray:none;stroke-opacity:1" d="M274.025 71.76a4.365 4.365 0 0 0-4.375 4.375v1.842h8.752v-1.842a4.366 4.366 0 0 0-4.377-4.375z"/><g style="opacity:.185859"><path style="opacity:1;fill:#a73c00;fill-opacity:.151442;stroke:none;stroke-width:5;stroke-linecap:round;stroke-linejoin:round;stroke-miterlimit:4;stroke-dasharray:none;stroke-opacity:1" d="M274.025 71.76a4.365 4.365 0 0 0-4.375 4.375v12.22c0 1.633.896 3.035 2.215 3.788a4.35 4.35 0 0 1-1.203-3.004V76.918a4.365 4.365 0 0 1 4.375-4.375c.792 0 1.523.223 2.162.588a4.353 4.353 0 0 0-3.174-1.371z"/><path style="opacity:1;fill:#a73c00;fill-opacity:.380264;stroke:none;stroke-width:5;stroke-linecap:round;stroke-linejoin:round;stroke-miterlimit:4;stroke-dasharray:none;stroke-opacity:1" d="M274.025 71.76a4.365 4.365 0 0 0-4.375 4.375v12.22a4.35 4.35 0 0 0 1.522 3.3 4.345 4.345 0 0 1-1.078-2.856V76.58a4.366 4.366 0 0 1 4.377-4.375c1.098 0 2.086.413 2.853 1.076a4.346 4.346 0 0 0-3.299-1.521z"/></g></g><g transform="rotate(89.957 -142.2 -157.38)"><rect style="opacity:1;fill:#ffc847;fill-opacity:1;stroke:none;stroke-width:5;stroke-linecap:round;stroke-linejoin:round;stroke-miterlimit:4;stroke-dasharray:none;stroke-opacity:1" width="8.752" height="20.972" x="269.65" y="71.76" rx="4.376" ry="4.376"/><path style="opacity:1;fill:url(#A);fill-opacity:1;stroke:none;stroke-width:5;stroke-linecap:round;stroke-linejoin:round;stroke-miterlimit:4;stroke-dasharray:none;stroke-opacity:1" d="M274.025 71.76a4.365 4.365 0 0 0-4.375 4.375v1.842h8.752v-1.842a4.366 4.366 0 0 0-4.377-4.375z"/><g style="opacity:.185859"><path style="opacity:1;fill:#a73c00;fill-opacity:.151442;stroke:none;stroke-width:5;stroke-linecap:round;stroke-linejoin:round;stroke-miterlimit:4;stroke-dasharray:none;stroke-opacity:1" d="M274.025 71.76a4.365 4.365 0 0 0-4.375 4.375v12.22c0 1.633.896 3.035 2.215 3.788a4.35 4.35 0 0 1-1.203-3.004V76.918a4.365 4.365 0 0 1 4.375-4.375c.792 0 1.523.223 2.162.588a4.353 4.353 0 0 0-3.174-1.371z"/><path style="opacity:1;fill:#a73c00;fill-opacity:.380264;stroke:none;stroke-width:5;stroke-linecap:round;stroke-linejoin:round;stroke-miterlimit:4;stroke-dasharray:none;stroke-opacity:1" d="M274.025 71.76a4.365 4.365 0 0 0-4.375 4.375v12.22a4.35 4.35 0 0 0 1.522 3.3 4.345 4.345 0 0 1-1.078-2.856V76.58a4.366 4.366 0 0 1 4.377-4.375c1.098 0 2.086.413 2.853 1.076a4.346 4.346 0 0 0-3.299-1.521z"/></g></g><g transform="rotate(135.093 32.753 157.94)"><rect style="opacity:1;fill:#ffc847;fill-opacity:1;stroke:none;stroke-width:5;stroke-linecap:round;stroke-linejoin:round;stroke-miterlimit:4;stroke-dasharray:none;stroke-opacity:1" width="8.752" height="20.972" x="269.65" y="71.76" rx="4.376" ry="4.376"/><path style="opacity:1;fill:url(#B);fill-opacity:1;stroke:none;stroke-width:5;stroke-linecap:round;stroke-linejoin:round;stroke-miterlimit:4;stroke-dasharray:none;stroke-opacity:1" d="M274.025 71.76a4.365 4.365 0 0 0-4.375 4.375v1.842h8.752v-1.842a4.366 4.366 0 0 0-4.377-4.375z"/><g style="opacity:.185859"><path style="opacity:1;fill:#a73c00;fill-opacity:.151442;stroke:none;stroke-width:5;stroke-linecap:round;stroke-linejoin:round;stroke-miterlimit:4;stroke-dasharray:none;stroke-opacity:1" d="M274.025 71.76a4.365 4.365 0 0 0-4.375 4.375v12.22c0 1.633.896 3.035 2.215 3.788a4.35 4.35 0 0 1-1.203-3.004V76.918a4.365 4.365 0 0 1 4.375-4.375c.792 0 1.523.223 2.162.588a4.353 4.353 0 0 0-3.174-1.371z"/><path style="opacity:1;fill:#a73c00;fill-opacity:.380264;stroke:none;stroke-width:5;stroke-linecap:round;stroke-linejoin:round;stroke-miterlimit:4;stroke-dasharray:none;stroke-opacity:1" d="M274.025 71.76a4.365 4.365 0 0 0-4.375 4.375v12.22a4.35 4.35 0 0 0 1.522 3.3 4.345 4.345 0 0 1-1.078-2.856V76.58a4.366 4.366 0 0 1 4.377-4.375c1.098 0 2.086.413 2.853 1.076a4.346 4.346 0 0 0-3.299-1.521z"/></g></g><g transform="rotate(135.093 -39.252 -15.947)"><rect style="opacity:1;fill:#ffc847;fill-opacity:1;stroke:none;stroke-width:5;stroke-linecap:round;stroke-linejoin:round;stroke-miterlimit:4;stroke-dasharray:none;stroke-opacity:1" width="8.752" height="20.972" x="269.65" y="71.76" rx="4.376" ry="4.376"/><path style="opacity:1;fill:url(#C);fill-opacity:1;stroke:none;stroke-width:5;stroke-linecap:round;stroke-linejoin:round;stroke-miterlimit:4;stroke-dasharray:none;stroke-opacity:1" d="M274.025 71.76a4.365 4.365 0 0 0-4.375 4.375v1.842h8.752v-1.842a4.366 4.366 0 0 0-4.377-4.375z"/><g style="opacity:.185859"><path style="opacity:1;fill:#a73c00;fill-opacity:.151442;stroke:none;stroke-width:5;stroke-linecap:round;stroke-linejoin:round;stroke-miterlimit:4;stroke-dasharray:none;stroke-opacity:1" d="M274.025 71.76a4.365 4.365 0 0 0-4.375 4.375v12.22c0 1.633.896 3.035 2.215 3.788a4.35 4.35 0 0 1-1.203-3.004V76.918a4.365 4.365 0 0 1 4.375-4.375c.792 0 1.523.223 2.162.588a4.353 4.353 0 0 0-3.174-1.371z"/><path style="opacity:1;fill:#a73c00;fill-opacity:.380264;stroke:none;stroke-width:5;stroke-linecap:round;stroke-linejoin:round;stroke-miterlimit:4;stroke-dasharray:none;stroke-opacity:1" d="M274.025 71.76a4.365 4.365 0 0 0-4.375 4.375v12.22a4.35 4.35 0 0 0 1.522 3.3 4.345 4.345 0 0 1-1.078-2.856V76.58a4.366 4.366 0 0 1 4.377-4.375c1.098 0 2.086.413 2.853 1.076a4.346 4.346 0 0 0-3.299-1.521z"/></g></g><g transform="translate(-558.277 11.138)"><g transform="translate(94.643)"><circle style="opacity:1;fill:#fff;fill-opacity:.0837787;stroke:none;stroke-width:5.43374;stroke-linecap:round;stroke-linejoin:round;stroke-miterlimit:4;stroke-dasharray:none;stroke-opacity:1" cx="255.549" cy="144.726" r="49.865"/><circle style="opacity:1;fill:url(#D);fill-opacity:1;stroke:none;stroke-width:5.38669;stroke-linecap:round;stroke-linejoin:round;stroke-miterlimit:4;stroke-dasharray:none;stroke-opacity:1" cx="255.98" cy="145.158" r="49.434"/></g><circle style="opacity:1;fill:#37353d;fill-opacity:1;stroke:none;stroke-width:6.6951;stroke-linecap:round;stroke-linejoin:round;stroke-miterlimit:4;stroke-dasharray:none;stroke-opacity:1" cx="350.624" cy="145.158" r="43.535"/><circle style="opacity:1;fill:#fec842;fill-opacity:1;stroke:none;stroke-width:6.55885;stroke-linecap:round;stroke-linejoin:round;stroke-miterlimit:4;stroke-dasharray:none;stroke-opacity:1" cx="350.624" cy="145.158" r="42.649"/><circle style="opacity:1;fill:url(#E);fill-opacity:1;stroke:none;stroke-width:6.55885;stroke-linecap:round;stroke-linejoin:round;stroke-miterlimit:4;stroke-dasharray:none;stroke-opacity:1" cx="350.624" cy="145.158" r="42.649"/><circle style="opacity:1;fill:url(#F);fill-opacity:1;stroke:none;stroke-width:6.55885;stroke-linecap:round;stroke-linejoin:round;stroke-miterlimit:4;stroke-dasharray:none;stroke-opacity:1" cx="350.624" cy="145.158" r="42.649"/><circle style="opacity:1;fill:url(#G);fill-opacity:1;stroke:none;stroke-width:6.55885;stroke-linecap:round;stroke-linejoin:round;stroke-miterlimit:4;stroke-dasharray:none;stroke-opacity:1" cx="350.624" cy="145.158" r="42.649"/></g><g transform="rotate(69.449 61.176 -137.29)"><g transform="translate(94.643)"><circle style="opacity:1;fill:#fff;fill-opacity:.0837787;stroke:none;stroke-width:5.43374;stroke-linecap:round;stroke-linejoin:round;stroke-miterlimit:4;stroke-dasharray:none;stroke-opacity:1" cx="255.549" cy="144.726" r="49.865"/><circle style="opacity:1;fill:url(#H);fill-opacity:1;stroke:none;stroke-width:5.38669;stroke-linecap:round;stroke-linejoin:round;stroke-miterlimit:4;stroke-dasharray:none;stroke-opacity:1" cx="255.98" cy="145.158" r="49.434"/></g><circle style="opacity:1;fill:#37353d;fill-opacity:1;stroke:none;stroke-width:6.6951;stroke-linecap:round;stroke-linejoin:round;stroke-miterlimit:4;stroke-dasharray:none;stroke-opacity:1" cx="350.624" cy="145.158" r="43.535"/><circle style="opacity:1;fill:#fec842;fill-opacity:1;stroke:none;stroke-width:6.55885;stroke-linecap:round;stroke-linejoin:round;stroke-miterlimit:4;stroke-dasharray:none;stroke-opacity:1" cx="350.624" cy="145.158" r="42.649"/><circle style="opacity:1;fill:url(#I);fill-opacity:1;stroke:none;stroke-width:6.55885;stroke-linecap:round;stroke-linejoin:round;stroke-miterlimit:4;stroke-dasharray:none;stroke-opacity:1" cx="350.624" cy="145.158" r="42.649"/><circle style="opacity:1;fill:url(#J);fill-opacity:1;stroke:none;stroke-width:6.55885;stroke-linecap:round;stroke-linejoin:round;stroke-miterlimit:4;stroke-dasharray:none;stroke-opacity:1" cx="350.624" cy="145.158" r="42.649"/><circle style="opacity:1;fill:url(#K);fill-opacity:1;stroke:none;stroke-width:6.55885;stroke-linecap:round;stroke-linejoin:round;stroke-miterlimit:4;stroke-dasharray:none;stroke-opacity:1" cx="350.624" cy="145.158" r="42.649"/></g><g transform="rotate(-140.551 77.054 362.49)"><g transform="translate(94.643)"><circle style="opacity:1;fill:#fff;fill-opacity:.0837787;stroke:none;stroke-width:5.43374;stroke-linecap:round;stroke-linejoin:round;stroke-miterlimit:4;stroke-dasharray:none;stroke-opacity:1" cx="255.549" cy="144.726" r="49.865"/><circle style="opacity:1;fill:url(#L);fill-opacity:1;stroke:none;stroke-width:5.38669;stroke-linecap:round;stroke-linejoin:round;stroke-miterlimit:4;stroke-dasharray:none;stroke-opacity:1" cx="255.98" cy="145.158" r="49.434"/><circle style="opacity:1;fill:url(#M);fill-opacity:1;stroke:none;stroke-width:5.38669;stroke-linecap:round;stroke-linejoin:round;stroke-miterlimit:4;stroke-dasharray:none;stroke-opacity:1" cx="255.98" cy="145.158" r="49.434"/></g><circle style="opacity:1;fill:#37353d;fill-opacity:1;stroke:none;stroke-width:6.6951;stroke-linecap:round;stroke-linejoin:round;stroke-miterlimit:4;stroke-dasharray:none;stroke-opacity:1" cx="350.624" cy="145.158" r="43.535"/><circle style="opacity:1;fill:#fec842;fill-opacity:1;stroke:none;stroke-width:6.55885;stroke-linecap:round;stroke-linejoin:round;stroke-miterlimit:4;stroke-dasharray:none;stroke-opacity:1" cx="350.624" cy="145.158" r="42.649"/><circle style="opacity:1;fill:url(#N);fill-opacity:1;stroke:none;stroke-width:6.55885;stroke-linecap:round;stroke-linejoin:round;stroke-miterlimit:4;stroke-dasharray:none;stroke-opacity:1" cx="350.624" cy="145.158" r="42.649"/><circle style="opacity:1;fill:url(#O);fill-opacity:1;stroke:none;stroke-width:6.55885;stroke-linecap:round;stroke-linejoin:round;stroke-miterlimit:4;stroke-dasharray:none;stroke-opacity:1" cx="350.624" cy="145.158" r="42.649"/><circle style="opacity:1;fill:url(#P);fill-opacity:1;stroke:none;stroke-width:6.55885;stroke-linecap:round;stroke-linejoin:round;stroke-miterlimit:4;stroke-dasharray:none;stroke-opacity:1" cx="350.624" cy="145.158" r="42.649"/></g><g transform="rotate(-72.302 79.713 644.005)"><g transform="translate(94.643)"><circle style="opacity:1;fill:#fff;fill-opacity:.0837787;stroke:none;stroke-width:5.43374;stroke-linecap:round;stroke-linejoin:round;stroke-miterlimit:4;stroke-dasharray:none;stroke-opacity:1" cx="255.549" cy="144.726" r="49.865"/><circle style="opacity:1;fill:url(#Q);fill-opacity:1;stroke:none;stroke-width:5.38669;stroke-linecap:round;stroke-linejoin:round;stroke-miterlimit:4;stroke-dasharray:none;stroke-opacity:1" cx="255.98" cy="145.158" r="49.434"/><circle style="opacity:1;fill:url(#R);fill-opacity:1;stroke:none;stroke-width:5.38669;stroke-linecap:round;stroke-linejoin:round;stroke-miterlimit:4;stroke-dasharray:none;stroke-opacity:1" cx="255.98" cy="145.158" r="49.434"/></g><circle style="opacity:1;fill:#37353d;fill-opacity:1;stroke:none;stroke-width:6.6951;stroke-linecap:round;stroke-linejoin:round;stroke-miterlimit:4;stroke-dasharray:none;stroke-opacity:1" cx="350.624" cy="145.158" r="43.535"/><circle style="opacity:1;fill:#fec842;fill-opacity:1;stroke:none;stroke-width:6.55885;stroke-linecap:round;stroke-linejoin:round;stroke-miterlimit:4;stroke-dasharray:none;stroke-opacity:1" cx="350.624" cy="145.158" r="42.649"/><circle style="opacity:1;fill:url(#S);fill-opacity:1;stroke:none;stroke-width:6.55885;stroke-linecap:round;stroke-linejoin:round;stroke-miterlimit:4;stroke-dasharray:none;stroke-opacity:1" cx="350.624" cy="145.158" r="42.649"/><circle style="opacity:1;fill:url(#T);fill-opacity:1;stroke:none;stroke-width:6.55885;stroke-linecap:round;stroke-linejoin:round;stroke-miterlimit:4;stroke-dasharray:none;stroke-opacity:1" cx="350.624" cy="145.158" r="42.649"/><circle style="opacity:1;fill:url(#U);fill-opacity:1;stroke:none;stroke-width:6.55885;stroke-linecap:round;stroke-linejoin:round;stroke-miterlimit:4;stroke-dasharray:none;stroke-opacity:1" cx="350.624" cy="145.158" r="42.649"/></g><g transform="rotate(142.848 68.091 167.437)"><g transform="translate(94.643)"><circle style="opacity:1;fill:#fff;fill-opacity:.0837787;stroke:none;stroke-width:5.43374;stroke-linecap:round;stroke-linejoin:round;stroke-miterlimit:4;stroke-dasharray:none;stroke-opacity:1" cx="255.549" cy="144.726" r="49.865"/><circle style="opacity:1;fill:url(#V);fill-opacity:1;stroke:none;stroke-width:5.38669;stroke-linecap:round;stroke-linejoin:round;stroke-miterlimit:4;stroke-dasharray:none;stroke-opacity:1" cx="255.98" cy="145.158" r="49.434"/><circle style="opacity:1;fill:url(#W);fill-opacity:1;stroke:none;stroke-width:5.38669;stroke-linecap:round;stroke-linejoin:round;stroke-miterlimit:4;stroke-dasharray:none;stroke-opacity:1" cx="255.98" cy="145.158" r="49.434"/></g><circle style="opacity:1;fill:#37353d;fill-opacity:1;stroke:none;stroke-width:6.6951;stroke-linecap:round;stroke-linejoin:round;stroke-miterlimit:4;stroke-dasharray:none;stroke-opacity:1" cx="350.624" cy="145.158" r="43.535"/><circle style="opacity:1;fill:#fec842;fill-opacity:1;stroke:none;stroke-width:6.55885;stroke-linecap:round;stroke-linejoin:round;stroke-miterlimit:4;stroke-dasharray:none;stroke-opacity:1" cx="350.624" cy="145.158" r="42.649"/><circle style="opacity:1;fill:url(#X);fill-opacity:1;stroke:none;stroke-width:6.55885;stroke-linecap:round;stroke-linejoin:round;stroke-miterlimit:4;stroke-dasharray:none;stroke-opacity:1" cx="350.624" cy="145.158" r="42.649"/><circle style="opacity:1;fill:url(#Y);fill-opacity:1;stroke:none;stroke-width:6.55885;stroke-linecap:round;stroke-linejoin:round;stroke-miterlimit:4;stroke-dasharray:none;stroke-opacity:1" cx="350.624" cy="145.158" r="42.649"/><circle style="opacity:1;fill:url(#Z);fill-opacity:1;stroke:none;stroke-width:6.55885;stroke-linecap:round;stroke-linejoin:round;stroke-miterlimit:4;stroke-dasharray:none;stroke-opacity:1" cx="350.624" cy="145.158" r="42.649"/></g><g transform="translate(-462.526 1.212)"><g transform="translate(37.742 132.254) scale(.84998)"><circle style="opacity:1;fill:#fff;fill-opacity:.0837787;stroke:none;stroke-width:5.43374;stroke-linecap:round;stroke-linejoin:round;stroke-miterlimit:4;stroke-dasharray:none;stroke-opacity:1" cx="255.549" cy="144.726" r="49.865"/><circle style="opacity:1;fill:url(#aa);fill-opacity:1;stroke:none;stroke-width:5.38669;stroke-linecap:round;stroke-linejoin:round;stroke-miterlimit:4;stroke-dasharray:none;stroke-opacity:1" cx="255.98" cy="145.158" r="49.434"/></g><circle style="fill:url(#ab);fill-opacity:1;stroke:none;stroke-width:5.31042;stroke-linecap:round;stroke-linejoin:round;stroke-miterlimit:4;stroke-dasharray:none;stroke-opacity:1" cx="255.321" cy="255.636" r="34.531"/></g><circle style="fill:url(#ac);fill-opacity:1;stroke:none;stroke-width:9.47031;stroke-linecap:round;stroke-linejoin:round;stroke-miterlimit:4;stroke-dasharray:none;stroke-opacity:1" cx="-207.254" cy="257.408" r="36.471"/><g transform="translate(-462.88 1.336)"><path style="opacity:.308754;fill:url(#ad);fill-opacity:1;stroke:none;stroke-width:5;stroke-linecap:round;stroke-linejoin:round;stroke-miterlimit:4;stroke-dasharray:none;stroke-opacity:1" d="m248.706 245.42 99.712-35.542 5.193 32.378-99.712 35.542z"/><rect style="fill:url(#ae);fill-opacity:1;stroke:none;stroke-width:5;stroke-linecap:round;stroke-linejoin:round;stroke-miterlimit:4;stroke-dasharray:none;stroke-opacity:1" width="105.857" height="15.467" x="149.582" y="321.089" rx="0" ry="0" transform="rotate(-19.618)"/><circle style="fill:url(#af);fill-opacity:1;stroke:none;stroke-width:5.03931;stroke-linecap:round;stroke-linejoin:round;stroke-miterlimit:4;stroke-dasharray:none;stroke-opacity:1" cx="347.345" cy="226.969" r="19.407"/><circle style="fill:url(#ag);fill-opacity:1;stroke:none;stroke-width:3.80384;stroke-linecap:round;stroke-linejoin:round;stroke-miterlimit:4;stroke-dasharray:none;stroke-opacity:1" cx="347.744" cy="226.988" r="14.649"/><path style="opacity:.308754;fill:url(#ah);fill-opacity:1;stroke:none;stroke-width:6.32401;stroke-linecap:round;stroke-linejoin:round;stroke-miterlimit:4;stroke-dasharray:none;stroke-opacity:1" d="m248.22 271.737-97.797-138.248 31.885-10.755 97.797 138.248z"/><rect style="fill:url(#ai);fill-opacity:1;stroke:none;stroke-width:6.32402;stroke-linecap:round;stroke-linejoin:round;stroke-miterlimit:4;stroke-dasharray:none;stroke-opacity:1" width="169.342" height="15.467" x="-368.749" y="52.123" rx="0" ry="0" transform="rotate(-125.276) skewX(-.123)"/><circle style="fill:url(#aj);fill-opacity:1;stroke:none;stroke-width:6.30905;stroke-linecap:round;stroke-linejoin:round;stroke-miterlimit:4;stroke-dasharray:none;stroke-opacity:1" cx="255.098" cy="256.003" r="24.297"/><circle style="fill:url(#ak);fill-opacity:1;stroke:none;stroke-width:4.76228;stroke-linecap:round;stroke-linejoin:round;stroke-miterlimit:4;stroke-dasharray:none;stroke-opacity:1" cx="255.598" cy="256.026" r="18.34"/><circle style="fill:url(#al);fill-opacity:1;stroke:none;stroke-width:5.04392;stroke-linecap:round;stroke-linejoin:round;stroke-miterlimit:4;stroke-dasharray:none;stroke-opacity:1" cx="164.111" cy="130.547" r="19.425"/><circle style="fill:url(#am);fill-opacity:1;stroke:none;stroke-width:3.80732;stroke-linecap:round;stroke-linejoin:round;stroke-miterlimit:4;stroke-dasharray:none;stroke-opacity:1" cx="164.511" cy="130.566" r="14.662"/></g></g></svg>