<?xml version="1.0" encoding="UTF-8"?>
<svg id="svg2117" width="128" height="128" version="1.1" viewBox="0 0 33.867 33.867" xmlns="http://www.w3.org/2000/svg" xmlns:cc="http://creativecommons.org/ns#" xmlns:dc="http://purl.org/dc/elements/1.1/" xmlns:rdf="http://www.w3.org/1999/02/22-rdf-syntax-ns#" xmlns:xlink="http://www.w3.org/1999/xlink">
 <defs id="defs2111">
  <linearGradient id="linearGradient973" x1="21.478" x2="21.478" y1="3.4349" y2="30.017" gradientUnits="userSpaceOnUse">
   <stop id="stop967" stop-color="#f0f0f0" offset="0"/>
   <stop id="stop969" stop-color="#c4c4c4" offset="1"/>
  </linearGradient>
  <linearGradient id="linearGradient53620" x1="930.1" x2="930.1" y1="401.85" y2="444.65" gradientUnits="userSpaceOnUse">
   <stop id="stop53614" stop-color="#8a8f94" offset="0"/>
   <stop id="stop53616" stop-color="#5d6065" offset="1"/>
  </linearGradient>
  <radialGradient id="radialGradient44762" cx="748.06" cy="206.8" r="156.14" gradientTransform="matrix(.88713 0 0 .66923 84.43 60.347)" gradientUnits="userSpaceOnUse">
   <stop id="stop44735" stop-color="#9f00ec" offset="0"/>
   <stop id="stop46158" stop-color="#9f00ec" stop-opacity=".38431" offset=".23928"/>
   <stop id="stop46420" stop-color="#9f00ec" stop-opacity=".27843" offset=".29713"/>
   <stop id="stop46614" stop-color="#9f00ec" stop-opacity=".2" offset=".35475"/>
   <stop id="stop46810" stop-color="#9f00ec" stop-opacity=".13333" offset=".43501"/>
   <stop id="stop46876" stop-color="#9f00ec" stop-opacity=".10196" offset=".47891"/>
   <stop id="stop45768" stop-color="#9f00ec" stop-opacity=".090196" offset=".50732"/>
   <stop id="stop45766" stop-color="#9f00ec" stop-opacity=".058824" offset=".57283"/>
   <stop id="stop45700" stop-color="#9f00ec" stop-opacity=".023529" offset=".69161"/>
   <stop id="stop45442" stop-color="#9f00ec" stop-opacity=".011765" offset=".74366"/>
   <stop id="stop45376" stop-color="#9f00ec" stop-opacity=".0078431" offset=".79072"/>
   <stop id="stop45182" stop-color="#9f00ec" stop-opacity=".0039216" offset=".83396"/>
   <stop id="stop45052" stop-color="#9f00ec" stop-opacity=".0039216" offset=".9022"/>
   <stop id="stop44986" stop-color="#9f00ec" stop-opacity=".0039216" offset=".94573"/>
   <stop id="stop44737" stop-color="#9f00ec" stop-opacity="0" offset="1"/>
  </radialGradient>
  <radialGradient id="radialGradient40267" cx="737.2" cy="221.85" r="54.678" gradientTransform="matrix(.91792 0 0 3 60.509 -467.99)" gradientUnits="userSpaceOnUse">
   <stop id="stop40240" stop-color="#cb00a8" offset="0"/>
   <stop id="stop42540" stop-color="#cb00a8" stop-opacity=".21176" offset=".62915"/>
   <stop id="stop42672" stop-color="#cb00a8" stop-opacity=".12549" offset=".70322"/>
   <stop id="stop42866" stop-color="#cb00a8" stop-opacity=".086275" offset=".76182"/>
   <stop id="stop42868" stop-color="#cb00a8" stop-opacity=".05098" offset=".84473"/>
   <stop id="stop41505" stop-color="#cb00a8" stop-opacity=".05098" offset=".85971"/>
   <stop id="stop42087" stop-color="#cb00a8" stop-opacity=".043137" offset=".88009"/>
   <stop id="stop42153" stop-color="#cb00a8" stop-opacity=".019608" offset=".93812"/>
   <stop id="stop40242" stop-color="#cb00a8" stop-opacity="0" offset="1"/>
  </radialGradient>
  <radialGradient id="radialGradient43462" cx="671.5" cy="398.74" r="54.678" gradientTransform="matrix(.57123 0 0 3 294.97 -847.18)" gradientUnits="userSpaceOnUse">
   <stop id="stop43456" stop-color="#ed77b9" offset="0"/>
   <stop id="stop43458" stop-color="#ed77b9" stop-opacity="0" offset="1"/>
  </radialGradient>
  <radialGradient id="radialGradient43625" cx="676.77" cy="423.59" r="54.678" gradientTransform="matrix(.86603 -.5 1.5 2.5981 -233.22 -575.15)" gradientUnits="userSpaceOnUse">
   <stop id="stop43619" stop-color="#ed7744" offset="0"/>
   <stop id="stop43621" stop-color="#ed7744" stop-opacity="0" offset="1"/>
  </radialGradient>
  <radialGradient id="radialGradient43869" cx="444.97" cy="692.32" r="54.678" gradientTransform="matrix(.70711 -.70711 2.1213 2.1213 -766.03 -979.09)" gradientUnits="userSpaceOnUse">
   <stop id="stop43863" stop-color="#edc044" offset="0"/>
   <stop id="stop43865" stop-color="#edc044" stop-opacity="0" offset="1"/>
  </radialGradient>
  <radialGradient id="radialGradient44196" cx="740.08" cy="-23.61" r="54.678" gradientTransform="matrix(.665 .17819 -.77646 2.8978 426.85 92.967)" gradientUnits="userSpaceOnUse">
   <stop id="stop44190" stop-color="#18e2df" offset="0"/>
   <stop id="stop44192" stop-color="#18e2df" stop-opacity="0" offset="1"/>
  </radialGradient>
  <radialGradient id="radialGradient44487" cx="692.91" cy="-198.09" r="54.678" gradientTransform="matrix(.86603 .5 -1.5 2.5981 14.966 343.11)" gradientUnits="userSpaceOnUse">
   <stop id="stop44481" stop-color="#00a5ec" offset="0"/>
   <stop id="stop44483" stop-color="#00a5ec" stop-opacity="0" offset="1"/>
  </radialGradient>
  <radialGradient id="radialGradient44569" cx="606.8" cy="-359.45" r="54.678" gradientTransform="matrix(.70711 .70711 -2.1213 2.1213 -295.28 508.34)" gradientUnits="userSpaceOnUse">
   <stop id="stop44563" stop-color="#00ecce" offset="0"/>
   <stop id="stop44565" stop-color="#00ecce" stop-opacity="0" offset="1"/>
  </radialGradient>
  <radialGradient id="radialGradient47084" cx="915.45" cy="228.76" r="20.31" gradientTransform="matrix(1 0 0 5.3713 34.28 -1306.2)" gradientUnits="userSpaceOnUse">
   <stop id="stop47078" stop-color="#ccebec" offset="0"/>
   <stop id="stop47080" stop-color="#ccebec" stop-opacity="0" offset="1"/>
  </radialGradient>
  <radialGradient id="radialGradient47228" cx="909.33" cy="-338.15" r="20.31" gradientTransform="matrix(1 0 0 5.3713 6.0758 2226.5)" gradientUnits="userSpaceOnUse">
   <stop id="stop47222" stop-color="#e4ccec" offset="0"/>
   <stop id="stop47224" stop-color="#e4ccec" stop-opacity="0" offset="1"/>
  </radialGradient>
  <linearGradient id="linearGradient49095" x1="924.04" x2="924.04" y1="198.57" y2="271.75" gradientUnits="userSpaceOnUse">
   <stop id="stop48931" stop-color="#110157" offset="0"/>
   <stop id="stop49905" stop-color="#14084e" stop-opacity=".18039" offset=".71832"/>
   <stop id="stop49775" stop-color="#15094e" stop-opacity=".047059" offset=".90626"/>
   <stop id="stop48933" stop-color="#170b4e" stop-opacity="0" offset="1"/>
  </linearGradient>
  <linearGradient id="linearGradient17102" x1="65.32" x2="445.72" y1="-106.06" y2="-106.06" gradientUnits="userSpaceOnUse">
   <stop id="stop17096" stop-color="#b3b8be" offset="0"/>
   <stop id="stop22860" stop-color="#999ea2" offset=".051276"/>
   <stop id="stop29106" stop-color="#a0a5a9" offset=".20447"/>
   <stop id="stop21012" stop-color="#a1a6aa" offset=".51276"/>
   <stop id="stop29236" stop-color="#a1a6aa" offset=".89008"/>
   <stop id="stop18994" stop-color="#a1a6ab" offset=".95382"/>
   <stop id="stop17098" stop-color="#bdc0c5" offset="1"/>
  </linearGradient>
  <linearGradient id="linearGradient4632" x1="268.42" x2="268.42" y1="-192.16" y2="-69.499" gradientUnits="userSpaceOnUse">
   <stop id="stop4626" stop-color="#7d8085" offset="0"/>
   <stop id="stop4628" stop-color="#d0d4d7" offset="1"/>
  </linearGradient>
  <linearGradient id="linearGradient66329" x1="291.03" x2="319.21" y1="460.42" y2="467.97" gradientUnits="userSpaceOnUse">
   <stop id="stop66323" stop-color="#c1c3c9" offset="0"/>
   <stop id="stop66325" stop-color="#81868c" offset="1"/>
  </linearGradient>
  <linearGradient id="linearGradient83245" x1="189.46" x2="211.69" y1="462.76" y2="456.8" gradientUnits="userSpaceOnUse">
   <stop id="stop83239" stop-color="#80858b" offset="0"/>
   <stop id="stop83241" stop-color="#80858b" stop-opacity="0" offset="1"/>
  </linearGradient>
  <radialGradient id="radialGradient85223" cx="255.65" cy="393.86" r="72.452" gradientTransform="matrix(.79919 0 0 .34867 51.336 312.79)" gradientUnits="userSpaceOnUse">
   <stop id="stop85217" stop-color="#8d949b" offset="0"/>
   <stop id="stop85219" stop-color="#8d949b" stop-opacity="0" offset="1"/>
  </radialGradient>
  <linearGradient id="linearGradient88452" x1="255.65" x2="255.65" y1="488.06" y2="470.64" gradientUnits="userSpaceOnUse">
   <stop id="stop88446" stop-color="#e5e6e8" offset="0"/>
   <stop id="stop88448" stop-color="#e5e6e8" stop-opacity="0" offset="1"/>
  </linearGradient>
  <radialGradient id="radialGradient91820" cx="416.21" cy="422.89" r="11.363" gradientTransform="translate(667.18 -.80042)" gradientUnits="userSpaceOnUse">
   <stop id="stop91814" stop-color="#52e693" offset="0"/>
   <stop id="stop91816" stop-color="#24d649" offset="1"/>
  </radialGradient>
  <linearGradient id="linearGradient100914" x1="328.43" x2="328.43" y1="421.09" y2="435.74" gradientUnits="userSpaceOnUse" xlink:href="#linearGradient100912"/>
  <linearGradient id="linearGradient100912">
   <stop id="stop100908" stop-opacity=".13712" offset="0"/>
   <stop id="stop100910" stop-color="#fff" stop-opacity=".29454" offset="1"/>
  </linearGradient>
  <linearGradient id="linearGradient101064" x1="328.62" x2="328.62" y1="423.6" y2="431.04" gradientTransform="matrix(.96454 0 0 .96454 11.633 15.179)" gradientUnits="userSpaceOnUse" xlink:href="#linearGradient101062"/>
  <linearGradient id="linearGradient101062">
   <stop id="stop101058" stop-color="#7d8185" offset="0"/>
   <stop id="stop101060" stop-color="#606569" offset="1"/>
  </linearGradient>
 </defs>
 <metadata id="metadata2114">
  <rdf:RDF>
   <cc:Work rdf:about="">
    <dc:format>image/svg+xml</dc:format>
    <dc:type rdf:resource="http://purl.org/dc/dcmitype/StillImage"/>
   </cc:Work>
  </rdf:RDF>
 </metadata>
 <g id="layer1">
  <g id="g1702" transform="matrix(.97573 0 0 .97573 -65.83 -36.915)" fill="none" opacity=".13962" stroke="#000" stroke-linecap="round" stroke-linejoin="round" stroke-opacity=".02">
   <rect id="rect1634" x="69.84" y="40.71" width="29.811" height="29.811" rx="6.6099" ry="6.6099" stroke-width=".1"/>
   <rect id="rect1638" x="69.84" y="40.71" width="29.811" height="29.811" rx="6.6099" ry="6.6099" stroke-width=".2"/>
   <rect id="rect1640" x="69.84" y="40.71" width="29.811" height="29.811" rx="6.6099" ry="6.6099" stroke-width=".3"/>
   <rect id="rect1642" x="69.84" y="40.71" width="29.811" height="29.811" rx="6.6099" ry="6.6099" stroke-width=".4"/>
   <rect id="rect1644" x="69.84" y="40.71" width="29.811" height="29.811" rx="6.6099" ry="6.6099" stroke-width=".5"/>
   <rect id="rect1646" x="69.84" y="40.71" width="29.811" height="29.811" rx="6.6099" ry="6.6099" stroke-width=".6"/>
   <rect id="rect1648" x="69.84" y="40.71" width="29.811" height="29.811" rx="6.6099" ry="6.6099" stroke-width=".7"/>
   <rect id="rect1650" x="69.84" y="40.71" width="29.811" height="29.811" rx="6.6099" ry="6.6099" stroke-width=".8"/>
   <rect id="rect1652" x="69.84" y="40.71" width="29.811" height="29.811" rx="6.6099" ry="6.6099"/>
   <rect id="rect1654" x="69.84" y="40.71" width="29.811" height="29.811" rx="6.6099" ry="6.6099" stroke-width="1.2"/>
   <rect id="rect1656" x="69.84" y="40.71" width="29.811" height="29.811" rx="6.6099" ry="6.6099" stroke-width="1.4"/>
   <rect id="rect1658" x="69.84" y="40.71" width="29.811" height="29.811" rx="6.6099" ry="6.6099" stroke-width="1.6"/>
   <rect id="rect1660" x="69.84" y="40.71" width="29.811" height="29.811" rx="6.6099" ry="6.6099" stroke-width="1.8"/>
   <rect id="rect1662" x="69.84" y="40.71" width="29.811" height="29.811" rx="6.6099" ry="6.6099" stroke-width="2"/>
   <rect id="rect1664" x="69.84" y="40.71" width="29.811" height="29.811" rx="6.6099" ry="6.6099" stroke-width="2.2"/>
   <rect id="rect1666" x="69.84" y="40.71" width="29.811" height="29.811" rx="6.6099" ry="6.6099" stroke-width="2.6"/>
   <rect id="rect1668" x="69.84" y="40.71" width="29.811" height="29.811" rx="6.6099" ry="6.6099" stroke-width="3"/>
   <rect id="rect1670" x="69.84" y="40.71" width="29.811" height="29.811" rx="6.6099" ry="6.6099" stroke-width="3.4"/>
   <rect id="rect1672" x="69.84" y="40.71" width="29.811" height="29.811" rx="6.6099" ry="6.6099" stroke-width="3.8"/>
   <rect id="rect1674" x="69.84" y="40.71" width="29.811" height="29.811" rx="6.6099" ry="6.6099" stroke-width="4.2"/>
   <rect id="rect1676" x="69.84" y="40.71" width="29.811" height="29.811" rx="6.6099" ry="6.6099" stroke-width="4.6"/>
   <rect id="rect1678" x="69.84" y="40.71" width="29.811" height="29.811" rx="6.6099" ry="6.6099" stroke-width="5"/>
  </g>
  <rect id="rect910" x="2.2835" y="2.4875" width="29.087" height="29.087" rx="6.4495" ry="6.4495" fill="url(#linearGradient973)" stroke-linecap="round" stroke-linejoin="round" stroke-width="2.6877"/>
  <g id="g2387" opacity=".47148" stroke-linecap="round" stroke-linejoin="bevel" stroke-width=".036488">
   <path id="rect50215-1" d="m10.851 7.1934c-0.86004 0-1.3545 0.61582-1.6888 1.3389l-1.9575 4.2349-0.97979 2.1136c-0.21282 0.46036 0.28408 1.0707 0.86765 1.0707l1.1751 0.0036-0.94981 8.0316c-0.010919 0.09235-0.012909 0.18322-0.00827 0.27234h-0.00155v2.0205c0 0.99357 0.7996 1.7932 1.7932 1.7932h15.247c0.99357 0 1.7937-0.7996 1.7937-1.7932v-2.0009c0.0062-0.09538 4e-3 -0.19284-0.0078-0.29197l-0.94981-8.0316 1.1777-0.0036c0.58357 0 1.081-0.61037 0.86816-1.0707l-2.2861-4.932-0.65474-1.4165c-0.33428-0.72311-0.82875-1.3389-1.6888-1.3389z" fill-opacity=".048044"/>
   <path id="path2344" d="m11.078 7.707c-0.86004 0-1.3545 0.61582-1.6888 1.3389l-1.9575 4.2349-0.97979 2.1136c-0.21282 0.46036 0.28408 1.0707 0.86765 1.0707l1.1751 0.0036-0.94981 8.0316c-0.010919 0.09235-0.012909 0.18322-0.00827 0.27234h-0.00155v2.0205c0 0.99357 0.7996 1.7932 1.7932 1.7932h15.247c0.99357 0 1.7937-0.7996 1.7937-1.7932v-2.0009c0.0062-0.09538 4e-3 -0.19284-0.0078-0.29197l-0.94981-8.0316 1.1777-0.0036c0.58357 0 1.081-0.61037 0.86816-1.0707l-2.2861-4.932-0.65474-1.4165c-0.33428-0.72311-0.82875-1.3389-1.6888-1.3389z" fill-opacity=".077994"/>
   <path id="path2364" d="m11.367 8.3465c-0.86004 0-1.3545 0.61582-1.6888 1.3389l-1.9575 4.2349-0.97979 2.1136c-0.21282 0.46036 0.28408 1.0707 0.86765 1.0707l1.1751 0.0036-0.94981 8.0316c-0.010919 0.09235-0.012909 0.18322-0.00827 0.27234h-0.00155v2.0205c0 0.99357 0.7996 1.7932 1.7932 1.7932h15.247c0.99357 0 1.7937-0.7996 1.7937-1.7932v-2.0009c0.0062-0.09538 4e-3 -0.19284-0.0078-0.29197l-0.94981-8.0316 1.1777-0.0036c0.58357 0 1.081-0.61037 0.86816-1.0707l-2.2861-4.932-0.65474-1.4165c-0.33428-0.72311-0.82875-1.3389-1.6888-1.3389z" fill-opacity=".037631"/>
  </g>
  <g id="g108564" transform="matrix(.055483 0 0 .055483 -35.939 2.7477)">
   <path id="rect50215" d="m1120.7 376.86v36.417c0 17.908-14.417 32.325-32.324 32.325h-274.81c-17.908 0-32.325-14.417-32.325-32.325v-36.417z" fill="url(#linearGradient53620)" stroke-linecap="round" stroke-linejoin="bevel" stroke-width=".65764"/>
   <g id="g44575" transform="translate(218.28)">
    <path id="rect31883" d="m582.09 211.91-18.926 160.04c-2.3514 19.884 16.119 36.143 36.141 36.143h266.86c20.022 0 38.494-16.259 36.143-36.143l-18.928-160.04z" fill="#bdc0c5" stroke-linecap="round" stroke-linejoin="bevel" stroke-width=".65764"/>
    <path id="rect32613" d="m606.42 188.6-23.68 183.58c-1.0982 8.5133 6.9103 15.494 15.494 15.494h268.99c8.5838 0 16.592-6.9809 15.494-15.494l-23.682-183.58z" fill="#060606" stroke-linecap="round" stroke-linejoin="bevel" stroke-width=".65764"/>
    <path id="rect35742" d="m625.91 192.89-21.359 169.75c-0.30907 2.456 1.9914 4.4668 4.4668 4.4668h247.43c2.4754 0 4.7778-2.0107 4.4688-4.4668l-21.361-169.75z" fill="#363a3b" stroke-linecap="round" stroke-linejoin="bevel" stroke-width=".65764"/>
    <path id="path38021" d="m626.48 347.48h212.52l-17.729-129.8-177.66 0.92553z" fill="#fff"/>
   </g>
   <path id="path89192" d="m800.37 211.91-18.926 160.04c-2.3514 19.884 16.119 36.143 36.141 36.143h62.426c7.5278-1.1266 15.722-10.293 33.434-10.293h75.092c17.711 0 25.906 9.1663 33.434 10.293h62.471c20.022 0 38.494-16.259 36.142-36.143l-18.928-160.04zm5.332 6h290.62l18.301 154.75c1.8762 15.865-13.41 29.438-30.184 29.438h-61.75c-1.7744-0.3283-5.5676-2.428-11.078-5.0039-5.624-2.629-13.185-5.2891-23.076-5.2891h-75.092c-9.8906 0-17.452 2.6601-23.076 5.2891-5.5106 2.5759-9.3037 4.6756-11.078 5.0039h-61.705c-16.774 0-32.058-13.572-30.182-29.438z" color="#000000" fill="#fff" fill-opacity=".26047" stroke-linecap="round" stroke-linejoin="bevel" style="-inkscape-stroke:none"/>
   <g id="g46996" transform="translate(213.06)">
    <circle id="path44599" cx="748.06" cy="227.78" r="156.14" fill="url(#radialGradient44762)"/>
    <ellipse id="path38233" cx="737.2" cy="234" rx="54.678" ry="164.04" fill="url(#radialGradient40267)"/>
    <ellipse id="ellipse43256" transform="rotate(-15)" cx="676.77" cy="423.59" rx="54.678" ry="164.04" fill="url(#radialGradient43462)"/>
    <path id="ellipse43563" transform="translate(-213.06)" d="m898.55 112.9a164.04 54.678 60 0 0 42.359 101.43 164.04 54.678 60 0 0 129.37 114.72 164.04 54.678 60 0 0-34.666-169.4 164.04 54.678 60 0 0-30.918-46.748z" fill="url(#radialGradient43625)"/>
    <path id="ellipse43825" transform="translate(-213.06)" d="m908.89 121.93a164.04 54.678 45 0 0 69.691 91.639 164.04 54.678 45 0 0 154.65 77.326 164.04 54.678 45 0 0-77.326-154.65 164.04 54.678 45 0 0-14.955-14.311z" fill="url(#radialGradient43869)"/>
    <path id="ellipse43970" transform="translate(-213.06)" d="m887.31 134.87a54.678 164.04 15 0 0-7.7441 25.883 54.678 164.04 15 0 0 10.359 172.6 54.678 164.04 15 0 0 95.271-144.29 54.678 164.04 15 0 0 11.193-54.188z" fill="url(#radialGradient44196)"/>
    <path id="ellipse44297" transform="translate(-213.06)" d="m903.85 90.232a54.678 164.04 30 0 0-39.018 57.328 54.678 164.04 30 0 0-34.664 169.4 54.678 164.04 30 0 0 129.37-114.72 54.678 164.04 30 0 0 44.809-112.01z" fill="url(#radialGradient44487)"/>
    <path id="ellipse44489" transform="translate(-213.06)" d="m903.29 96.133a54.678 164.04 45 0 0-45.654 40.104 54.678 164.04 45 0 0-77.328 154.65 54.678 164.04 45 0 0 154.65-77.326 54.678 164.04 45 0 0 80.451-117.43z" fill="url(#radialGradient44569)"/>
   </g>
   <ellipse id="path47032" transform="rotate(18.03)" cx="949.73" cy="-77.49" rx="20.31" ry="109.09" fill="url(#radialGradient47084)" opacity=".56228"/>
   <ellipse id="ellipse47184" transform="rotate(-11.97)" cx="915.4" cy="410.14" rx="20.31" ry="109.09" fill="url(#radialGradient47228)" opacity=".56228"/>
   <path id="rect31883-3" d="m800.37 211.91-18.926 160.04c-2.3514 19.884 16.119 36.143 36.141 36.143h266.86c20.022 0 38.494-16.259 36.143-36.143l-18.928-160.04z" fill="url(#linearGradient49095)" stroke-linecap="round" stroke-linejoin="bevel" stroke-width=".65764"/>
   <g id="g47008" transform="translate(695.52 259.65)" stroke-linecap="round" stroke-linejoin="bevel" stroke-width=".65764">
    <path id="path2680" d="m149.67-180.12c-15.501 0-29.137 11.098-35.162 24.131l-48.279 104.17c-3.8357 8.2974 5.1245 19.303 15.643 19.303l174.84 0.51172 172.47-0.51172c10.518 0 19.478-11.005 15.643-19.303l-48.277-104.17c-6.0249-13.033-19.661-24.131-35.162-24.131h-104.67z" fill="url(#linearGradient17102)"/>
    <path id="rect849" d="m149.61-190.37c-15.501 0-24.415 11.098-30.439 24.131l-49.396 106.86c-3.8357 8.2974 3.6855 16.606 11.027 16.611h349.39c7.3419-5e-3 14.863-8.3139 11.027-16.611l-49.396-106.86c-6.0249-13.033-14.938-24.131-30.439-24.131z" fill="url(#linearGradient4632)"/>
    <path id="path11867" d="m69.408-58.432c-2.8671 7.9683 4.3284 15.653 11.389 15.658h349.39c7.0596-0.0048 14.254-7.6887 11.389-15.656-1.6783 4.8575-6.5361 8.5143-11.389 8.5176h-349.39c-4.8532-0.0034-9.7109-3.6611-11.389-8.5195z" fill="#fff" fill-opacity=".40944"/>
   </g>
   <g id="g88633" transform="translate(695.35 -51.93)">
    <path id="path60338" d="m218.1 449.74c-18.871 0-26.938 10.408-34.906 10.408 13.803 3.6985 17.145 18.994 31.189 18.994h82.525c14.044 0 17.387-15.296 31.189-18.994-7.9679 0-16.036-10.408-34.906-10.408z" fill="url(#linearGradient66329)"/>
    <path id="path79356" d="m218.1 449.74c-18.871 0-26.938 10.408-34.906 10.408 13.803 3.6985 17.145 18.994 31.189 18.994h82.525c14.044 0 17.387-15.296 31.189-18.994-7.9679 0-16.036-10.408-34.906-10.408z" fill="url(#linearGradient83245)"/>
    <path id="path83266" d="m218.1 449.74c-18.871 0-26.938 10.408-34.906 10.408 13.803 3.6985 17.145 18.994 31.189 18.994h82.525c14.044 0 17.387-15.296 31.189-18.994-7.9679 0-16.036-10.408-34.906-10.408z" fill="url(#radialGradient85223)"/>
    <path id="path85343" d="m218.1 449.74c-18.871 0-26.938 10.408-34.906 10.408 13.803 3.6985 17.145 18.994 31.189 18.994h82.525c14.044 0 17.387-15.296 31.189-18.994-7.9679 0-16.036-10.408-34.906-10.408z" fill="url(#linearGradient88452)"/>
   </g>
   <circle id="circle100494" cx="1083.4" cy="427.81" r="12.036" fill-opacity=".26807"/>
   <circle id="path89507" cx="1083.4" cy="427.81" r="10.019" fill="url(#radialGradient91820)"/>
   <g id="g108512" transform="translate(717.05 -.23558)">
    <circle id="path100826" cx="328.1" cy="428.12" r="9.1018" fill="url(#linearGradient100914)"/>
    <circle id="circle108379" cx="328.1" cy="428.12" r="7.5548" fill-opacity=".63378"/>
    <circle id="path100957" cx="328.1" cy="428.12" r="5.5772" fill="url(#linearGradient101064)"/>
   </g>
   <g id="g108520" transform="translate(500.85 -.23558)">
    <circle id="circle108514" cx="328.1" cy="428.12" r="9.1018" fill="url(#linearGradient100914)"/>
    <circle id="circle108516" cx="328.1" cy="428.12" r="7.5548" fill-opacity=".63378"/>
    <circle id="circle108518" cx="328.1" cy="428.12" r="5.5772" fill="url(#linearGradient101064)"/>
   </g>
  </g>
 </g>
</svg>
