<?xml version="1.0" encoding="UTF-8" standalone="no"?>
<svg
   width="64"
   height="64"
   version="1.1"
   viewBox="0 0 64 64"
   id="svg4"
   sodipodi:docname="sm-ssc.svg"
   inkscape:version="1.3.2 (091e20ef0f, 2023-11-25)"
   xmlns:inkscape="http://www.inkscape.org/namespaces/inkscape"
   xmlns:sodipodi="http://sodipodi.sourceforge.net/DTD/sodipodi-0.dtd"
   xmlns="http://www.w3.org/2000/svg"
   xmlns:svg="http://www.w3.org/2000/svg">
  <sodipodi:namedview
     id="namedview4"
     pagecolor="#ffffff"
     bordercolor="#111111"
     borderopacity="1"
     inkscape:showpageshadow="0"
     inkscape:pageopacity="0"
     inkscape:pagecheckerboard="1"
     inkscape:deskcolor="#d1d1d1"
     inkscape:zoom="12.546875"
     inkscape:cx="31.960149"
     inkscape:cy="32"
     inkscape:window-width="1920"
     inkscape:window-height="1011"
     inkscape:window-x="0"
     inkscape:window-y="0"
     inkscape:window-maximized="1"
     inkscape:current-layer="svg4" />
  <defs
     id="defs3">
    <filter
       id="filter1057-37"
       x="-0.0524172"
       y="-0.0524172"
       width="1.1048344"
       height="1.1048344"
       color-interpolation-filters="sRGB">
      <feGaussianBlur
         stdDeviation="1.223068"
         id="feGaussianBlur1" />
    </filter>
    <linearGradient
       id="linearGradient1021"
       x1="-72.168"
       x2="-17.552"
       y1="59.492"
       y2="4.8762"
       gradientTransform="translate(76.449)"
       gradientUnits="userSpaceOnUse">
      <stop
         stop-color="#ff7832"
         offset="0"
         id="stop1" />
      <stop
         stop-color="#ffbe37"
         offset=".50754"
         id="stop2" />
      <stop
         stop-color="#ffdc32"
         offset="1"
         id="stop3" />
    </linearGradient>
  </defs>
  <g
     id="g4">
    <rect
       x="4"
       y="4"
       width="56"
       height="56"
       ry="13"
       fill="#141414"
       filter="url(#filter1057-37)"
       opacity=".3"
       stroke-linecap="round"
       stroke-width="2.7444"
       id="rect3"
       style="filter:url(#filter1057-37)" />
    <path
       d="m17.502 4.5c-7.2031 0-13.002 5.7988-13.002 13.002v28.996c0 7.2031 5.7988 13.002 13.002 13.002h28.996c7.2031 0 13.002-5.7988 13.002-13.002v-28.996c0-7.2031-5.7988-13.002-13.002-13.002z"
       fill="url(#linearGradient1021)"
       stroke-linecap="round"
       stroke-width="4.648"
       id="path3" />
    <path
       d="m22.625 17c-3.1062 0-5.625 2.5125-5.625 5.625 0 3.1062 2.5125 5.625 5.625 5.625h5.195l-7.93 7.8912c-2.1962 2.1962-2.1962 5.7725 0 7.9688s5.7725 2.1962 7.9688 0l7.8912-7.93v5.195c0 3.1062 2.5125 5.625 5.625 5.625 3.1062 0 5.625-2.5125 5.625-5.625v-18.75c0-3.1062-2.5125-5.625-5.625-5.625z"
       fill="#ff5326"
       id="path4" />
  </g>
</svg>
