<?xml version="1.0" encoding="UTF-8"?>
<svg id="svg2547" width="128" height="128" version="1.1" viewBox="0 0 33.867 33.867" xmlns="http://www.w3.org/2000/svg" xmlns:cc="http://creativecommons.org/ns#" xmlns:dc="http://purl.org/dc/elements/1.1/" xmlns:rdf="http://www.w3.org/1999/02/22-rdf-syntax-ns#" xmlns:xlink="http://www.w3.org/1999/xlink">
 <defs id="defs2541">
  <linearGradient id="linearGradient936" x1="-27.206" x2="-27.206" y1="-1.3796" y2="25.268" gradientTransform="translate(43.842 5.6325)" gradientUnits="userSpaceOnUse">
   <stop id="stop930" stop-color="#f5f9fb" offset="0"/>
   <stop id="stop932" stop-color="#f5eeec" offset="1"/>
  </linearGradient>
 </defs>
 <metadata id="metadata2544">
  <rdf:RDF>
   <cc:Work rdf:about="">
    <dc:format>image/svg+xml</dc:format>
    <dc:type rdf:resource="http://purl.org/dc/dcmitype/StillImage"/>
   </cc:Work>
  </rdf:RDF>
 </metadata>
 <g id="layer1">
  <g id="g1702" transform="matrix(.97573 0 0 .97573 -65.777 -37.256)" fill="none" opacity=".29676" stroke="#000" stroke-linecap="round" stroke-linejoin="round" stroke-opacity=".02">
   <rect id="rect1634" x="69.84" y="40.71" width="29.811" height="29.811" rx="6.6099" ry="6.6099" stroke-width=".1"/>
   <rect id="rect1638" x="69.84" y="40.71" width="29.811" height="29.811" rx="6.6099" ry="6.6099" stroke-width=".2"/>
   <rect id="rect1640" x="69.84" y="40.71" width="29.811" height="29.811" rx="6.6099" ry="6.6099" stroke-width=".3"/>
   <rect id="rect1642" x="69.84" y="40.71" width="29.811" height="29.811" rx="6.6099" ry="6.6099" stroke-width=".4"/>
   <rect id="rect1644" x="69.84" y="40.71" width="29.811" height="29.811" rx="6.6099" ry="6.6099" stroke-width=".5"/>
   <rect id="rect1646" x="69.84" y="40.71" width="29.811" height="29.811" rx="6.6099" ry="6.6099" stroke-width=".6"/>
   <rect id="rect1648" x="69.84" y="40.71" width="29.811" height="29.811" rx="6.6099" ry="6.6099" stroke-width=".7"/>
   <rect id="rect1650" x="69.84" y="40.71" width="29.811" height="29.811" rx="6.6099" ry="6.6099" stroke-width=".8"/>
   <rect id="rect1652" x="69.84" y="40.71" width="29.811" height="29.811" rx="6.6099" ry="6.6099"/>
   <rect id="rect1654" x="69.84" y="40.71" width="29.811" height="29.811" rx="6.6099" ry="6.6099" stroke-width="1.2"/>
   <rect id="rect1656" x="69.84" y="40.71" width="29.811" height="29.811" rx="6.6099" ry="6.6099" stroke-width="1.4"/>
   <rect id="rect1658" x="69.84" y="40.71" width="29.811" height="29.811" rx="6.6099" ry="6.6099" stroke-width="1.6"/>
   <rect id="rect1660" x="69.84" y="40.71" width="29.811" height="29.811" rx="6.6099" ry="6.6099" stroke-width="1.8"/>
   <rect id="rect1662" x="69.84" y="40.71" width="29.811" height="29.811" rx="6.6099" ry="6.6099" stroke-width="2"/>
   <rect id="rect1664" x="69.84" y="40.71" width="29.811" height="29.811" rx="6.6099" ry="6.6099" stroke-width="2.2"/>
   <rect id="rect1666" x="69.84" y="40.71" width="29.811" height="29.811" rx="6.6099" ry="6.6099" stroke-width="2.6"/>
   <rect id="rect1668" x="69.84" y="40.71" width="29.811" height="29.811" rx="6.6099" ry="6.6099" stroke-width="3"/>
   <rect id="rect1670" x="69.84" y="40.71" width="29.811" height="29.811" rx="6.6099" ry="6.6099" stroke-width="3.4"/>
   <rect id="rect1672" x="69.84" y="40.71" width="29.811" height="29.811" rx="6.6099" ry="6.6099" stroke-width="3.8"/>
   <rect id="rect1674" x="69.84" y="40.71" width="29.811" height="29.811" rx="6.6099" ry="6.6099" stroke-width="4.2"/>
   <rect id="rect1676" x="69.84" y="40.71" width="29.811" height="29.811" rx="6.6099" ry="6.6099" stroke-width="4.6"/>
   <rect id="rect1678" x="69.84" y="40.71" width="29.811" height="29.811" rx="6.6099" ry="6.6099" stroke-width="5"/>
  </g>
  <rect id="rect849-5" x="2.3673" y="2.4659" width="29.087" height="29.087" rx="6.4495" ry="6.4495" fill="url(#linearGradient936)" stroke-linecap="round" stroke-linejoin="round" stroke-width="2.6877"/>
  <path id="path2" d="m16.964 10.54c-1.0404 0.06298-2.0203 0.62169-2.5751 1.5826l-5.9524 10.308c-0.28936 0.50118-0.41018 1.0482-0.40875 1.589h5.2166v2.6415c0.33886-0.25078 0.63302-0.57246 0.85709-0.96056l5.9511-10.308c0.88767-1.5375 0.33879-3.5049-1.2301-4.4106-0.58832-0.33967-1.2343-0.47975-1.8585-0.44196z" opacity=".2" stroke-width=".327"/>
  <path id="path4" d="m21.742 14.836c-0.61874-0.0491-1.2551 0.08098-1.8317 0.41386l-10.308 5.9511c-1.0352 0.59765-1.589 1.6907-1.5737 2.8191h5.2166v2.63l9.9351-5.7365c1.5375-0.88767 2.0464-2.8648 1.1407-4.4336-0.56611-0.98054-1.5477-1.5621-2.5789-1.6439z" opacity=".2" stroke-width=".327"/>
  <rect id="rect6" x="8.0127" y="20.75" width="18.312" height="6.54" rx="3.2046" ry="3.27" opacity=".2" stroke-width=".327"/>
  <path id="path8" d="m11.283 8.6507c-1.8116 0-3.27 1.4295-3.27 3.2048v11.837h5.232v2.6185c0.79076-0.58386 1.308-1.5041 1.308-2.5534v-11.902c0-1.7753-1.4584-3.2048-3.27-3.2048z" fill="#4f4f4f" stroke-width=".327"/>
  <path id="path10" d="m11.283 8.6507c-1.8116 0-3.27 1.4295-3.27 3.2048v0.327c0-1.7753 1.4584-3.2048 3.27-3.2048 1.8116 0 3.27 1.4295 3.27 3.2048v-0.327c0-1.7753-1.4584-3.2048-3.27-3.2048z" fill="#fff" opacity=".1" stroke-width=".327"/>
  <path id="path12" d="m16.964 10.213c-1.0404 0.06298-2.0203 0.62169-2.5751 1.5826l-5.9524 10.308c-0.28936 0.50118-0.41018 1.0482-0.40875 1.589h5.2166v2.6415c0.33886-0.25078 0.63302-0.57246 0.85709-0.96056l5.9511-10.308c0.88767-1.5375 0.33879-3.5049-1.2301-4.4106-0.58832-0.33967-1.2343-0.47975-1.8585-0.44196z" fill="#4d4e99" stroke-width=".327"/>
  <path id="path14" d="m21.742 14.509c-0.61874-0.0491-1.2551 0.08098-1.8317 0.41386l-10.308 5.9511c-1.0352 0.59764-1.589 1.6907-1.5737 2.8191h5.2166v2.63l9.9351-5.7365c1.5375-0.88767 2.0464-2.8648 1.1407-4.4336-0.56611-0.98054-1.5477-1.5621-2.5789-1.6439z" fill="#e74949" stroke-width=".327"/>
  <rect id="rect16" x="8.0127" y="20.423" width="18.312" height="6.54" rx="3.2046" ry="3.27" fill="#ffc255" stroke-width=".327"/>
  <circle id="circle18" cx="11.283" cy="24.02" r="1.308" opacity=".2" stroke-width=".327"/>
  <circle id="circle20" cx="11.283" cy="23.693" r="1.308" fill="#fff" stroke-width=".327"/>
  <path id="path22" d="m17.199 10.207c-0.07855-8.77e-4 -0.157 1e-3 -0.23503 0.0058-1.0404 0.06298-2.0203 0.62169-2.5751 1.5826l-5.9524 10.308c-0.28936 0.50118-0.41018 1.0482-0.40875 1.589h0.017882c0.039658-0.43228 0.15974-0.86169 0.39086-1.262l5.9524-10.308c0.55479-0.96093 1.5347-1.5196 2.5751-1.5826 0.62426-0.03779 1.2702 0.1023 1.8585 0.44196 1.0076 0.58172 1.5913 1.6015 1.6471 2.6639 0.059632-1.1762-0.53638-2.3496-1.6471-2.9909-0.51478-0.29721-1.0736-0.44156-1.6235-0.4477z" fill="#fff" opacity=".1" stroke-width=".327"/>
  <path id="path24" d="m21.509 14.498c-0.5442-0.0035-1.0947 0.13281-1.5992 0.42408l-10.308 5.9511c-1.0352 0.59764-1.589 1.6907-1.5737 2.8191h0.016605c0.085248-1.0087 0.62245-1.9525 1.5571-2.4921l10.308-5.9511c0.57656-0.33288 1.213-0.46296 1.8317-0.41386 1.0312 0.08184 2.0128 0.66339 2.5789 1.6439 0.27548 0.47715 0.41862 0.99224 0.44324 1.5028 0.03191-0.61526-0.10876-1.2504-0.44324-1.8298-0.56611-0.98054-1.5477-1.5621-2.5789-1.6439-0.07734-0.0062-0.15473-0.0098-0.23248-0.01026z" fill="#fff" opacity=".1" stroke-width=".327"/>
  <path id="path26" d="m11.218 20.423c-1.7753 0-3.2048 1.4584-3.2048 3.27 0 0.05521 0.00567 0.10897 0.00831 0.1635 0.08349-1.7345 1.4753-3.1065 3.1965-3.1065h11.902c1.7212 0 3.113 1.372 3.1965 3.1065 0.0026-0.05453 0.0083-0.10829 0.0083-0.1635 0-1.8116-1.4295-3.27-3.2048-3.27z" fill="#fff" opacity=".1" stroke-width=".327"/>
 </g>
</svg>
