<?xml version="1.0" encoding="UTF-8"?>
<svg id="svg1616" width="128" height="128" version="1.1" viewBox="0 0 33.867 33.867" xmlns="http://www.w3.org/2000/svg" xmlns:cc="http://creativecommons.org/ns#" xmlns:dc="http://purl.org/dc/elements/1.1/" xmlns:rdf="http://www.w3.org/1999/02/22-rdf-syntax-ns#" xmlns:xlink="http://www.w3.org/1999/xlink">
 <defs id="defs1610">
  <linearGradient id="linearGradient1547" x1="14.412" x2="14.412" y1="30.159" y2="4.1064" gradientTransform="translate(.0064894 -.036761)" gradientUnits="userSpaceOnUse">
   <stop id="stop1541" stop-color="#fff" offset="0"/>
   <stop id="stop1543" stop-color="#f7f7f7" offset="1"/>
  </linearGradient>
  <linearGradient id="linearGradient1515" x1="256.13" x2="488.85" y1="857.82" y2="844.95" gradientUnits="userSpaceOnUse">
   <stop id="stop1509" stop-color="#3c97ba" offset="0"/>
   <stop id="stop1511" stop-color="#16bae0" offset="1"/>
  </linearGradient>
  <linearGradient id="linearGradient1507" x1="31.013" x2="55.734" y1="841.77" y2="946.82" gradientUnits="userSpaceOnUse">
   <stop id="stop1501" stop-color="#98c53c" offset="0"/>
   <stop id="stop1503" stop-color="#85d22f" stop-opacity=".96818" offset="1"/>
  </linearGradient>
  <linearGradient id="linearGradient1523" x1="300.93" x2="300.93" y1="912.78" y2="584.77" gradientUnits="userSpaceOnUse">
   <stop id="stop1517" stop-color="#156260" offset="0"/>
   <stop id="stop1519" stop-color="#17c8c3" stop-opacity=".70909" offset="1"/>
  </linearGradient>
  <linearGradient id="linearGradient1531" x1="331.76" x2="51.754" y1="590.47" y2="590.47" gradientUnits="userSpaceOnUse">
   <stop id="stop1525" stop-color="#5d7dbe" offset="0"/>
   <stop id="stop1527" stop-color="#306eeb" stop-opacity=".80784" offset="1"/>
  </linearGradient>
 </defs>
 <metadata id="metadata1613">
  <rdf:RDF>
   <cc:Work rdf:about="">
    <dc:format>image/svg+xml</dc:format>
    <dc:type rdf:resource="http://purl.org/dc/dcmitype/StillImage"/>
    <dc:title/>
   </cc:Work>
  </rdf:RDF>
 </metadata>
 <g id="layer1">
  <g id="g1702" transform="matrix(.97573 0 0 .97573 -65.742 -37.24)" fill="none" opacity=".295" stroke="#000" stroke-linecap="round" stroke-linejoin="round" stroke-opacity=".02">
   <rect id="rect1634" x="69.84" y="40.71" width="29.811" height="29.811" rx="6.6099" ry="6.6099" stroke-width=".1"/>
   <rect id="rect1638" x="69.84" y="40.71" width="29.811" height="29.811" rx="6.6099" ry="6.6099" stroke-width=".2"/>
   <rect id="rect1640" x="69.84" y="40.71" width="29.811" height="29.811" rx="6.6099" ry="6.6099" stroke-width=".3"/>
   <rect id="rect1642" x="69.84" y="40.71" width="29.811" height="29.811" rx="6.6099" ry="6.6099" stroke-width=".4"/>
   <rect id="rect1644" x="69.84" y="40.71" width="29.811" height="29.811" rx="6.6099" ry="6.6099" stroke-width=".5"/>
   <rect id="rect1646" x="69.84" y="40.71" width="29.811" height="29.811" rx="6.6099" ry="6.6099" stroke-width=".6"/>
   <rect id="rect1648" x="69.84" y="40.71" width="29.811" height="29.811" rx="6.6099" ry="6.6099" stroke-width=".7"/>
   <rect id="rect1650" x="69.84" y="40.71" width="29.811" height="29.811" rx="6.6099" ry="6.6099" stroke-width=".8"/>
   <rect id="rect1652" x="69.84" y="40.71" width="29.811" height="29.811" rx="6.6099" ry="6.6099"/>
   <rect id="rect1654" x="69.84" y="40.71" width="29.811" height="29.811" rx="6.6099" ry="6.6099" stroke-width="1.2"/>
   <rect id="rect1656" x="69.84" y="40.71" width="29.811" height="29.811" rx="6.6099" ry="6.6099" stroke-width="1.4"/>
   <rect id="rect1658" x="69.84" y="40.71" width="29.811" height="29.811" rx="6.6099" ry="6.6099" stroke-width="1.6"/>
   <rect id="rect1660" x="69.84" y="40.71" width="29.811" height="29.811" rx="6.6099" ry="6.6099" stroke-width="1.8"/>
   <rect id="rect1662" x="69.84" y="40.71" width="29.811" height="29.811" rx="6.6099" ry="6.6099" stroke-width="2"/>
   <rect id="rect1664" x="69.84" y="40.71" width="29.811" height="29.811" rx="6.6099" ry="6.6099" stroke-width="2.2"/>
   <rect id="rect1666" x="69.84" y="40.71" width="29.811" height="29.811" rx="6.6099" ry="6.6099" stroke-width="2.6"/>
   <rect id="rect1668" x="69.84" y="40.71" width="29.811" height="29.811" rx="6.6099" ry="6.6099" stroke-width="3"/>
   <rect id="rect1670" x="69.84" y="40.71" width="29.811" height="29.811" rx="6.6099" ry="6.6099" stroke-width="3.4"/>
   <rect id="rect1672" x="69.84" y="40.71" width="29.811" height="29.811" rx="6.6099" ry="6.6099" stroke-width="3.8"/>
   <rect id="rect1674" x="69.84" y="40.71" width="29.811" height="29.811" rx="6.6099" ry="6.6099" stroke-width="4.2"/>
   <rect id="rect1676" x="69.84" y="40.71" width="29.811" height="29.811" rx="6.6099" ry="6.6099" stroke-width="4.6"/>
   <rect id="rect1678" x="69.84" y="40.71" width="29.811" height="29.811" rx="6.6099" ry="6.6099" stroke-width="5"/>
  </g>
  <rect id="rect849" x="2.4028" y="2.4818" width="29.087" height="29.087" rx="6.4495" ry="6.4495" fill="url(#linearGradient1547)" stroke-linecap="round" stroke-linejoin="round" stroke-width="2.688"/>
  <g id="g21" transform="matrix(.043634 0 0 .043634 5.769 -17.852)" stroke-width="1.5164">
   <path id="path23" d="m511.87 540.49v0" fill="none" stroke="#000" stroke-linecap="round" stroke-width=".42771"/>
   <path id="path25" d="m426.72 829.51v1.1e-4" fill="none" stroke="#000" stroke-linecap="round" stroke-width=".42771"/>
   <path id="path31" d="m426.72 829.52c-16.664 85.781-94.396 145.87-181.61 140.4 28.093 22.611 22.13 66.972-10.936 81.363 130.31 11.16 248.05-77.748 272.99-206.13 4.3256-22.22-10.186-43.738-32.408-48.055-22.222-4.317-43.734 10.203-48.043 32.426" fill="url(#linearGradient1515)"/>
   <path id="path35" d="m255.21 1015.1c4.3121-22.197-10.169-43.691-32.361-48.03-85.793-16.665-145.89-94.416-140.4-181.64-22.604 28.098-66.967 22.145-81.364-10.919-11.169 130.31 77.741 248.07 206.13 273.01 22.202 4.2834 43.678-10.226 47.99-32.423z" fill="url(#linearGradient1507)"/>
   <path id="path39" d="m429.57 807.25c5.4752-87.213-54.618-164.94-140.4-181.61-22.214-4.3173-36.723-25.825-32.408-48.039s25.822-36.725 48.036-32.412c128.38 24.941 217.29 142.69 206.13 272.99-14.391-33.066-58.752-39.028-81.363-10.936z" fill="url(#linearGradient1523)"/>
   <path id="path51" d="m37.257 796.22c22.228 4.2526 43.695-10.319 47.947-32.547 16.455-86.013 94.301-146.37 181.7-140.88-28.093-22.611-22.13-66.972 10.936-81.363-130.58-11.183-248.5 78.119-273.13 206.85-4.2525 22.228 10.319 43.695 32.547 47.947z" fill="url(#linearGradient1531)"/>
  </g>
 </g>
</svg>
