<?xml version="1.0" encoding="UTF-8"?>
<svg id="svg1443" width="128" height="128" version="1.1" viewBox="0 0 33.867 33.867" xmlns="http://www.w3.org/2000/svg" xmlns:cc="http://creativecommons.org/ns#" xmlns:dc="http://purl.org/dc/elements/1.1/" xmlns:rdf="http://www.w3.org/1999/02/22-rdf-syntax-ns#" xmlns:xlink="http://www.w3.org/1999/xlink">
 <defs id="defs1437">
  <linearGradient id="linearGradient1632" x1="132.21" x2="132.21" y1="42.152" y2="70.68" gradientTransform="matrix(.97573 0 0 .97573 -111.77 -37.183)" gradientUnits="userSpaceOnUse">
   <stop id="stop1626" stop-color="#ffcd48" offset="0"/>
   <stop id="stop1628" stop-color="#ffad22" offset="1"/>
  </linearGradient>
 </defs>
 <metadata id="metadata1440">
  <rdf:RDF>
   <cc:Work rdf:about="">
    <dc:format>image/svg+xml</dc:format>
    <dc:type rdf:resource="http://purl.org/dc/dcmitype/StillImage"/>
   </cc:Work>
  </rdf:RDF>
 </metadata>
 <g id="layer1">
  <g id="g1702" transform="matrix(.97573 0 0 .97573 -65.737 -37.183)" fill="none" opacity=".295" stroke="#000" stroke-linecap="round" stroke-linejoin="round" stroke-opacity=".02">
   <rect id="rect1634" x="69.84" y="40.71" width="29.811" height="29.811" rx="6.6099" ry="6.6099" stroke-width=".1"/>
   <rect id="rect1638" x="69.84" y="40.71" width="29.811" height="29.811" rx="6.6099" ry="6.6099" stroke-width=".2"/>
   <rect id="rect1640" x="69.84" y="40.71" width="29.811" height="29.811" rx="6.6099" ry="6.6099" stroke-width=".3"/>
   <rect id="rect1642" x="69.84" y="40.71" width="29.811" height="29.811" rx="6.6099" ry="6.6099" stroke-width=".4"/>
   <rect id="rect1644" x="69.84" y="40.71" width="29.811" height="29.811" rx="6.6099" ry="6.6099" stroke-width=".5"/>
   <rect id="rect1646" x="69.84" y="40.71" width="29.811" height="29.811" rx="6.6099" ry="6.6099" stroke-width=".6"/>
   <rect id="rect1648" x="69.84" y="40.71" width="29.811" height="29.811" rx="6.6099" ry="6.6099" stroke-width=".7"/>
   <rect id="rect1650" x="69.84" y="40.71" width="29.811" height="29.811" rx="6.6099" ry="6.6099" stroke-width=".8"/>
   <rect id="rect1652" x="69.84" y="40.71" width="29.811" height="29.811" rx="6.6099" ry="6.6099"/>
   <rect id="rect1654" x="69.84" y="40.71" width="29.811" height="29.811" rx="6.6099" ry="6.6099" stroke-width="1.2"/>
   <rect id="rect1656" x="69.84" y="40.71" width="29.811" height="29.811" rx="6.6099" ry="6.6099" stroke-width="1.4"/>
   <rect id="rect1658" x="69.84" y="40.71" width="29.811" height="29.811" rx="6.6099" ry="6.6099" stroke-width="1.6"/>
   <rect id="rect1660" x="69.84" y="40.71" width="29.811" height="29.811" rx="6.6099" ry="6.6099" stroke-width="1.8"/>
   <rect id="rect1662" x="69.84" y="40.71" width="29.811" height="29.811" rx="6.6099" ry="6.6099" stroke-width="2"/>
   <rect id="rect1664" x="69.84" y="40.71" width="29.811" height="29.811" rx="6.6099" ry="6.6099" stroke-width="2.2"/>
   <rect id="rect1666" x="69.84" y="40.71" width="29.811" height="29.811" rx="6.6099" ry="6.6099" stroke-width="2.6"/>
   <rect id="rect1668" x="69.84" y="40.71" width="29.811" height="29.811" rx="6.6099" ry="6.6099" stroke-width="3"/>
   <rect id="rect1670" x="69.84" y="40.71" width="29.811" height="29.811" rx="6.6099" ry="6.6099" stroke-width="3.4"/>
   <rect id="rect1672" x="69.84" y="40.71" width="29.811" height="29.811" rx="6.6099" ry="6.6099" stroke-width="3.8"/>
   <rect id="rect1674" x="69.84" y="40.71" width="29.811" height="29.811" rx="6.6099" ry="6.6099" stroke-width="4.2"/>
   <rect id="rect1676" x="69.84" y="40.71" width="29.811" height="29.811" rx="6.6099" ry="6.6099" stroke-width="4.6"/>
   <rect id="rect1678" x="69.84" y="40.71" width="29.811" height="29.811" rx="6.6099" ry="6.6099" stroke-width="5"/>
  </g>
  <rect id="rect849" x="2.4074" y="2.5392" width="29.087" height="29.087" rx="6.4495" ry="6.4495" fill="url(#linearGradient1632)" stroke-linecap="round" stroke-linejoin="round" stroke-width="2.6877"/>
  <path id="path2918" d="m11.778 6.7495a0.54764 0.35317 0 0 0-0.44591 0.17586l-3.1138 3.4781a0.54764 0.35317 0 0 0 0.4748 0.53006h1.0212v10.462c0 3.4772 2.7994 6.2766 6.2766 6.2766h2.0914c3.4773 0 6.2766-2.7994 6.2766-6.2766v-10.462h1.0212a0.54764 0.35317 0 0 0 0.4748-0.53006l-3.1138-3.4781a0.54764 0.35317 0 0 0-0.44842-0.17586 0.54764 0.35317 0 0 0-0.05401 0 0.54764 0.35317 0 0 0-0.44591 0.17586l-3.1138 3.4781a0.54764 0.35317 0 0 0 0.4748 0.53006h1.0212v11.508c0 1.7332-1.4057 3.1377-3.1389 3.1377-1.7332 0-3.1377-1.4045-3.1377-3.1377v-11.508h1.0212a0.54764 0.35317 0 0 0 0.47479-0.53006l-3.1138-3.4781a0.54764 0.35317 0 0 0-0.44842-0.17586 0.54764 0.35317 0 0 0-0.054 0z" fill="#190006" fill-opacity=".035989" stroke-width=".52305"/>
  <path id="path3156" d="m11.882 6.9223a0.54764 0.35317 0 0 0-0.44591 0.17586l-3.1138 3.4781a0.54764 0.35317 0 0 0 0.4748 0.53006h1.0212v10.462c0 3.4772 2.7994 6.2766 6.2766 6.2766h2.0914c3.4773 0 6.2766-2.7994 6.2766-6.2766v-10.462h1.0212a0.54764 0.35317 0 0 0 0.4748-0.53006l-3.1138-3.4781a0.54764 0.35317 0 0 0-0.44842-0.17586 0.54764 0.35317 0 0 0-0.05401 0 0.54764 0.35317 0 0 0-0.44591 0.17586l-3.1138 3.4781a0.54764 0.35317 0 0 0 0.4748 0.53006h1.0212v11.508c0 1.7332-1.4057 3.1377-3.1389 3.1377-1.7332 0-3.1377-1.4045-3.1377-3.1377v-11.508h1.0212a0.54764 0.35317 0 0 0 0.47479-0.53006l-3.1138-3.4781a0.54764 0.35317 0 0 0-0.44842-0.17586 0.54764 0.35317 0 0 0-0.054 0z" fill="#190006" fill-opacity=".035989" stroke-width=".52305"/>
  <path id="path3158" d="m12.029 7.2374a0.54764 0.35317 0 0 0-0.44591 0.17586l-3.1138 3.4781a0.54764 0.35317 0 0 0 0.4748 0.53006h1.0212v10.462c0 3.4772 2.7994 6.2766 6.2766 6.2766h2.0914c3.4773 0 6.2766-2.7994 6.2766-6.2766v-10.462h1.0212a0.54764 0.35317 0 0 0 0.4748-0.53006l-3.1138-3.4781a0.54764 0.35317 0 0 0-0.44842-0.17586 0.54764 0.35317 0 0 0-0.05401 0 0.54764 0.35317 0 0 0-0.44591 0.17586l-3.1138 3.4781a0.54764 0.35317 0 0 0 0.4748 0.53006h1.0212v11.508c0 1.7332-1.4057 3.1377-3.1389 3.1377-1.7332 0-3.1377-1.4045-3.1377-3.1377v-11.508h1.0212a0.54764 0.35317 0 0 0 0.47479-0.53006l-3.1138-3.4781a0.54764 0.35317 0 0 0-0.44842-0.17586 0.54764 0.35317 0 0 0-0.054 0z" fill="#190006" fill-opacity=".035989" stroke-width=".52305"/>
  <path id="path3160" d="m12.283 7.7567a0.54764 0.35317 0 0 0-0.44591 0.17586l-3.1138 3.4781a0.54764 0.35317 0 0 0 0.4748 0.53006h1.0212v10.462c0 3.4772 2.7994 6.2766 6.2766 6.2766h2.0914c3.4773 0 6.2766-2.7994 6.2766-6.2766v-10.462h1.0212a0.54764 0.35317 0 0 0 0.4748-0.53006l-3.1138-3.4781a0.54764 0.35317 0 0 0-0.44842-0.17586 0.54764 0.35317 0 0 0-0.05401 0 0.54764 0.35317 0 0 0-0.44591 0.17586l-3.1138 3.4781a0.54764 0.35317 0 0 0 0.4748 0.53006h1.0212v11.508c0 1.7332-1.4057 3.1377-3.1389 3.1377-1.7332 0-3.1377-1.4045-3.1377-3.1377v-11.508h1.0212a0.54764 0.35317 0 0 0 0.47479-0.53006l-3.1138-3.4781a0.54764 0.35317 0 0 0-0.44842-0.17586 0.54764 0.35317 0 0 0-0.054 0z" fill="#190006" fill-opacity=".035989" stroke-width=".52305"/>
  <path id="path3162" d="m12.716 8.1508a0.54764 0.35317 0 0 0-0.44591 0.17586l-3.1138 3.4781a0.54764 0.35317 0 0 0 0.4748 0.53006h1.0212v10.462c0 3.4772 2.7994 6.2766 6.2766 6.2766h2.0914c3.4773 0 6.2766-2.7994 6.2766-6.2766v-10.462h1.0212a0.54764 0.35317 0 0 0 0.4748-0.53006l-3.1138-3.4781a0.54764 0.35317 0 0 0-0.44842-0.17586 0.54764 0.35317 0 0 0-0.05401 0 0.54764 0.35317 0 0 0-0.44591 0.17586l-3.1138 3.4781a0.54764 0.35317 0 0 0 0.4748 0.53006h1.0212v11.508c0 1.7332-1.4057 3.1377-3.1389 3.1377-1.7332 0-3.1377-1.4045-3.1377-3.1377v-11.508h1.0212a0.54764 0.35317 0 0 0 0.47479-0.53006l-3.1138-3.4781a0.54764 0.35317 0 0 0-0.44842-0.17586 0.54764 0.35317 0 0 0-0.054 0z" fill="#190006" fill-opacity=".035989" stroke-width=".52305"/>
  <path id="path4" d="m11.693 6.6219a0.54764 0.35317 0 0 0-0.44591 0.17586l-3.1138 3.4781a0.54764 0.35317 0 0 0 0.4748 0.53006h1.0212v10.462c0 3.4772 2.7994 6.2766 6.2766 6.2766h2.0914c3.4773 0 6.2766-2.7994 6.2766-6.2766v-10.462h1.0212a0.54764 0.35317 0 0 0 0.4748-0.53006l-3.1138-3.4781a0.54764 0.35317 0 0 0-0.44842-0.17586 0.54764 0.35317 0 0 0-0.05401 0 0.54764 0.35317 0 0 0-0.44591 0.17586l-3.1138 3.4781a0.54764 0.35317 0 0 0 0.4748 0.53006h1.0212v11.508c0 1.7332-1.4057 3.1377-3.1389 3.1377-1.7332 0-3.1377-1.4045-3.1377-3.1377v-11.508h1.0212a0.54764 0.35317 0 0 0 0.47479-0.53006l-3.1138-3.4781a0.54764 0.35317 0 0 0-0.44842-0.17586 0.54764 0.35317 0 0 0-0.054 0z" fill="#fff" stroke-width=".52305"/>
 </g>
</svg>
