<?xml version="1.0" encoding="UTF-8"?>
<svg id="svg6" width="128" height="128" version="1.1" viewBox="0 0 33.867 33.867" xmlns="http://www.w3.org/2000/svg" xmlns:cc="http://creativecommons.org/ns#" xmlns:dc="http://purl.org/dc/elements/1.1/" xmlns:rdf="http://www.w3.org/1999/02/22-rdf-syntax-ns#" xmlns:xlink="http://www.w3.org/1999/xlink">
 <metadata id="metadata170">
  <rdf:RDF>
   <cc:Work rdf:about="">
    <dc:format>image/svg+xml</dc:format>
    <dc:type rdf:resource="http://purl.org/dc/dcmitype/StillImage"/>
   </cc:Work>
  </rdf:RDF>
 </metadata>
 <defs id="defs2">
  <linearGradient id="linearGradient1632" x1="132.21" x2="132.21" y1="42.152" y2="70.68" gradientTransform="matrix(.97573 0 0 .97573 -111.78 -37.203)" gradientUnits="userSpaceOnUse">
   <stop id="stop1626" stop-color="#a8e47b" offset="0"/>
   <stop id="stop1628" stop-color="#20b597" offset="1"/>
  </linearGradient>
 </defs>
 <g id="layer1">
  <g id="g1702" transform="matrix(.97573 0 0 .97573 -65.748 -37.203)" fill="none" opacity=".20513" stroke="#000" stroke-linecap="round" stroke-linejoin="round" stroke-opacity=".02">
   <rect id="rect1634" x="69.84" y="40.71" width="29.811" height="29.811" rx="6.6099" ry="6.6099" stroke-width=".1"/>
   <rect id="rect1638" x="69.84" y="40.71" width="29.811" height="29.811" rx="6.6099" ry="6.6099" stroke-width=".2"/>
   <rect id="rect1640" x="69.84" y="40.71" width="29.811" height="29.811" rx="6.6099" ry="6.6099" stroke-width=".3"/>
   <rect id="rect1642" x="69.84" y="40.71" width="29.811" height="29.811" rx="6.6099" ry="6.6099" stroke-width=".4"/>
   <rect id="rect1644" x="69.84" y="40.71" width="29.811" height="29.811" rx="6.6099" ry="6.6099" stroke-width=".5"/>
   <rect id="rect1646" x="69.84" y="40.71" width="29.811" height="29.811" rx="6.6099" ry="6.6099" stroke-width=".6"/>
   <rect id="rect1648" x="69.84" y="40.71" width="29.811" height="29.811" rx="6.6099" ry="6.6099" stroke-width=".7"/>
   <rect id="rect1650" x="69.84" y="40.71" width="29.811" height="29.811" rx="6.6099" ry="6.6099" stroke-width=".8"/>
   <rect id="rect1652" x="69.84" y="40.71" width="29.811" height="29.811" rx="6.6099" ry="6.6099"/>
   <rect id="rect1654" x="69.84" y="40.71" width="29.811" height="29.811" rx="6.6099" ry="6.6099" stroke-width="1.2"/>
   <rect id="rect1656" x="69.84" y="40.71" width="29.811" height="29.811" rx="6.6099" ry="6.6099" stroke-width="1.4"/>
   <rect id="rect1658" x="69.84" y="40.71" width="29.811" height="29.811" rx="6.6099" ry="6.6099" stroke-width="1.6"/>
   <rect id="rect1660" x="69.84" y="40.71" width="29.811" height="29.811" rx="6.6099" ry="6.6099" stroke-width="1.8"/>
   <rect id="rect1662" x="69.84" y="40.71" width="29.811" height="29.811" rx="6.6099" ry="6.6099" stroke-width="2"/>
   <rect id="rect1664" x="69.84" y="40.71" width="29.811" height="29.811" rx="6.6099" ry="6.6099" stroke-width="2.2"/>
   <rect id="rect1666" x="69.84" y="40.71" width="29.811" height="29.811" rx="6.6099" ry="6.6099" stroke-width="2.6"/>
   <rect id="rect1668" x="69.84" y="40.71" width="29.811" height="29.811" rx="6.6099" ry="6.6099" stroke-width="3"/>
   <rect id="rect1670" x="69.84" y="40.71" width="29.811" height="29.811" rx="6.6099" ry="6.6099" stroke-width="3.4"/>
   <rect id="rect1672" x="69.84" y="40.71" width="29.811" height="29.811" rx="6.6099" ry="6.6099" stroke-width="3.8"/>
   <rect id="rect1674" x="69.84" y="40.71" width="29.811" height="29.811" rx="6.6099" ry="6.6099" stroke-width="4.2"/>
   <rect id="rect1676" x="69.84" y="40.71" width="29.811" height="29.811" rx="6.6099" ry="6.6099" stroke-width="4.6"/>
   <rect id="rect1678" x="69.84" y="40.71" width="29.811" height="29.811" rx="6.6099" ry="6.6099" stroke-width="5"/>
  </g>
  <rect id="rect849" x="2.3963" y="2.5186" width="29.087" height="29.087" rx="6.4495" ry="6.4495" fill="url(#linearGradient1632)" stroke-linecap="round" stroke-linejoin="round" stroke-width="2.6877"/>
  <path id="path6" d="m6.4103 11.456v7.0845c5.99e-5 0.12241 0.015735 0.24431 0.046747 0.36273 0 0 0.21379 0.81737 0.84887 1.5687 0.63507 0.75136 1.8293 1.5145 3.4123 1.5145 1.583 0 2.7772-0.76314 3.4123-1.5145 0.63508-0.75135 0.84887-1.5687 0.84887-1.5687 0.03097-0.11843 0.04669-0.24032 0.04675-0.36273v-2.6321c0.374 0.42575 0.34559 0.44525 0.77034 0.89748 0.27358 0.29128 0.58317 0.53482 0.86944 0.82269-0.0054 0.02721-0.0152 0.05318-0.02057 0.0804-0.64669 3.2461-0.6619 7.4024-0.6619 8.1067h2.8719c0-0.47299 0.20522-2.8574 0.45061-4.9717 0.79332 0.59534 1.5842 1.0986 2.6513 1.1406 1.6477 0.06468 3.1042-0.55997 4.0648-1.5669 0.96062-1.0069 1.4491-2.3428 1.4491-3.6965 0-2.8765-2.3887-5.2652-5.2652-5.2652-3.4186 0.04137-3.6891 2.3775-4.5884 3.0651-1.2037-1.3177-2.1783-2.5589-2.5915-3.0651h-2.8719s-2.69e-4 0.66992 0 1.436v5.3625c-0.01737 0.05173-0.04037 0.15576-0.21689 0.3646-0.21454 0.25382-0.45665 0.49549-1.2191 0.49549-0.76243 0-1.0045-0.24166-1.2191-0.49549-0.17651-0.20883-0.19947-0.31288-0.21689-0.3646v-6.7984zm15.796 2.8719c1.1442 0 2.3933 1.2491 2.3933 2.3933 0 0.65668-0.24393 1.2843-0.65441 1.7146-0.41049 0.43026-0.96417 0.7163-1.8735 0.68059 0.04501 0.0017-0.74118-0.27923-1.5594-0.92927-0.17221-0.1368-0.37046-0.36562-0.55158-0.52353 0.23803-0.78591 0.43499-1.6808 0.7479-2.1988 0.52178-0.8638 0.91596-1.1368 1.4977-1.1368z" fill-rule="evenodd" opacity=".2" stroke-width=".47866"/>
  <path id="path8" d="m6.4103 10.977v7.0845c5.99e-5 0.1224 0.015735 0.24431 0.046747 0.36273 0 0 0.21379 0.81737 0.84887 1.5687 0.63507 0.75135 1.8293 1.5145 3.4123 1.5145 1.583 0 2.7772-0.76314 3.4123-1.5145 0.63508-0.75136 0.84887-1.5687 0.84887-1.5687 0.03097-0.11843 0.04669-0.24032 0.04675-0.36273v-2.6321c0.374 0.42575 0.34559 0.44525 0.77034 0.89748 0.27358 0.29128 0.58317 0.53482 0.86944 0.82269-0.0054 0.02721-0.0152 0.05318-0.02057 0.08041-0.64669 3.2461-0.6619 7.4024-0.6619 8.1067h2.8719c0-0.47299 0.20522-2.8574 0.45061-4.9717 0.79332 0.59534 1.5842 1.0986 2.6513 1.1405 1.6477 0.06468 3.1042-0.55997 4.0648-1.5669 0.96062-1.0069 1.4491-2.3428 1.4491-3.6965 0-2.8765-2.3887-5.2652-5.2652-5.2652-3.4186 0.04137-3.6891 2.3775-4.5884 3.0651-1.2037-1.3178-2.1783-2.5589-2.5915-3.0651h-2.8719s-2.69e-4 0.66992 0 1.436v5.3624c-0.01737 0.05173-0.04037 0.15576-0.21689 0.3646-0.21454 0.25382-0.45665 0.49549-1.2191 0.49549-0.76243 0-1.0045-0.24166-1.2191-0.49549-0.17652-0.20884-0.19948-0.31288-0.2169-0.36461v-6.7984zm15.796 2.8719c1.1442 0 2.3933 1.2491 2.3933 2.3933 0 0.65668-0.24393 1.2843-0.65441 1.7146-0.41049 0.43026-0.96417 0.7163-1.8735 0.68059 0.04501 0.0017-0.74118-0.27923-1.5594-0.92927-0.17221-0.1368-0.37046-0.36562-0.55158-0.52353 0.23803-0.78591 0.43499-1.6808 0.7479-2.1988 0.52178-0.8638 0.91596-1.1368 1.4977-1.1368z" fill="#fff" fill-rule="evenodd" stroke-width=".47866"/>
 </g>
</svg>
