<?xml version="1.0" encoding="UTF-8"?>
<svg id="svg2017" width="128" height="128" version="1.1" viewBox="0 0 33.867 33.867" xmlns="http://www.w3.org/2000/svg" xmlns:cc="http://creativecommons.org/ns#" xmlns:dc="http://purl.org/dc/elements/1.1/" xmlns:rdf="http://www.w3.org/1999/02/22-rdf-syntax-ns#" xmlns:xlink="http://www.w3.org/1999/xlink">
 <defs id="defs2011">
  <linearGradient id="linearGradient1632" x1="132.21" x2="132.21" y1="42.152" y2="70.68" gradientTransform="matrix(.97573 0 0 .97573 -111.7 -37.158)" gradientUnits="userSpaceOnUse">
   <stop id="stop1626" stop-color="#38b0fb" offset="0"/>
   <stop id="stop1628" stop-color="#1655c4" offset="1"/>
  </linearGradient>
  <radialGradient id="radialGradient3815" cx="24.249" cy="24.25" r="9.6332" gradientTransform="matrix(1.3154 0 0 1.0631 -14.978 -6.544)" gradientUnits="userSpaceOnUse" xlink:href="#linearGradient5489"/>
  <linearGradient id="linearGradient5489">
   <stop id="stop5461" offset="0"/>
   <stop id="stop3053" stop-opacity=".81961" offset=".29657"/>
   <stop id="stop3322" stop-opacity=".74902" offset=".3348"/>
   <stop id="stop3320" stop-opacity=".43922" offset=".40862"/>
   <stop id="stop3327" stop-opacity=".39608" offset=".51408"/>
   <stop id="stop3332" stop-opacity=".35294" offset=".55363"/>
   <stop id="stop3336" stop-opacity=".20784" offset=".65645"/>
   <stop id="stop3334" stop-opacity=".078431" offset=".81991"/>
   <stop id="stop3293" stop-opacity=".023529" offset=".89853"/>
   <stop id="stop3049" stop-opacity=".011765" offset=".93302"/>
   <stop id="stop5485" stop-opacity="0" offset=".99197"/>
   <stop id="stop5487" stop-opacity="0" offset="1"/>
  </linearGradient>
  <radialGradient id="radialGradient3340" cx="24.249" cy="24.25" r="9.6332" gradientTransform="matrix(1.2443 0 0 1.171 -13.159 -9.4913)" gradientUnits="userSpaceOnUse" xlink:href="#linearGradient5489"/>
  <radialGradient id="radialGradient976" cx="13.361" cy="8.8285" r="10.419" gradientTransform="matrix(1.5002 .52586 -.43578 1.2432 -3.0582 -8.8118)" gradientUnits="userSpaceOnUse">
   <stop id="stop970" stop-color="#f9fbfc" offset="0"/>
   <stop id="stop982" stop-color="#dee8f0" offset=".64767"/>
   <stop id="stop988" stop-color="#c9d9e4" offset=".75027"/>
   <stop id="stop990" stop-color="#b9cde0" offset=".8476"/>
   <stop id="stop986" stop-color="#b0cae2" offset=".91626"/>
   <stop id="stop972" stop-color="#a6c5eb" offset="1"/>
  </radialGradient>
  <radialGradient id="radialGradient1006" cx="23.007" cy="23.284" r="10.419" gradientTransform="matrix(1.7437 -.0087357 .0071153 1.4202 -17.522 -11.116)" gradientUnits="userSpaceOnUse">
   <stop id="stop998" stop-color="#f9fafc" stop-opacity="0" offset="0"/>
   <stop id="stop1008" stop-color="#9ca1a7" stop-opacity=".023529" offset=".40646"/>
   <stop id="stop1022" stop-color="#b5bbbf" stop-opacity=".027451" offset=".48308"/>
   <stop id="stop1024" stop-color="#e6e9eb" stop-opacity=".011765" offset=".63667"/>
   <stop id="stop1000" stop-color="#e0e9ef" offset="1"/>
  </radialGradient>
  <linearGradient id="linearGradient3311" x1="6.5191" x2="27.357" y1="16.895" y2="16.895" gradientTransform="translate(.075813 .045553)" gradientUnits="userSpaceOnUse">
   <stop id="stop1030" stop-color="#cde5fa" offset="0"/>
   <stop id="stop1040" stop-color="#d1dde7" stop-opacity="0" offset=".74266"/>
   <stop id="stop1032" stop-color="#d1dbe7" stop-opacity="0" offset="1"/>
  </linearGradient>
  <radialGradient id="radialGradient1090" cx="19.69" cy="23.638" r="1.0749" gradientTransform="matrix(.84712 .5314 -1.4832 2.3645 29.298 -40.985)" gradientUnits="userSpaceOnUse">
   <stop id="stop1084" stop-color="#fff" offset="0"/>
   <stop id="stop1086" stop-color="#fff" stop-opacity="0" offset="1"/>
  </radialGradient>
 </defs>
 <metadata id="metadata2014">
  <rdf:RDF>
   <cc:Work rdf:about="">
    <dc:format>image/svg+xml</dc:format>
    <dc:type rdf:resource="http://purl.org/dc/dcmitype/StillImage"/>
    <dc:title/>
   </cc:Work>
  </rdf:RDF>
 </metadata>
 <g id="layer1">
  <g id="g1702" transform="matrix(.97573 0 0 .97573 -65.673 -37.158)" fill="none" opacity=".29676" stroke="#000" stroke-linecap="round" stroke-linejoin="round" stroke-opacity=".02">
   <rect id="rect1634" x="69.84" y="40.71" width="29.811" height="29.811" rx="6.6099" ry="6.6099" stroke-width=".1"/>
   <rect id="rect1638" x="69.84" y="40.71" width="29.811" height="29.811" rx="6.6099" ry="6.6099" stroke-width=".2"/>
   <rect id="rect1640" x="69.84" y="40.71" width="29.811" height="29.811" rx="6.6099" ry="6.6099" stroke-width=".3"/>
   <rect id="rect1642" x="69.84" y="40.71" width="29.811" height="29.811" rx="6.6099" ry="6.6099" stroke-width=".4"/>
   <rect id="rect1644" x="69.84" y="40.71" width="29.811" height="29.811" rx="6.6099" ry="6.6099" stroke-width=".5"/>
   <rect id="rect1646" x="69.84" y="40.71" width="29.811" height="29.811" rx="6.6099" ry="6.6099" stroke-width=".6"/>
   <rect id="rect1648" x="69.84" y="40.71" width="29.811" height="29.811" rx="6.6099" ry="6.6099" stroke-width=".7"/>
   <rect id="rect1650" x="69.84" y="40.71" width="29.811" height="29.811" rx="6.6099" ry="6.6099" stroke-width=".8"/>
   <rect id="rect1652" x="69.84" y="40.71" width="29.811" height="29.811" rx="6.6099" ry="6.6099"/>
   <rect id="rect1654" x="69.84" y="40.71" width="29.811" height="29.811" rx="6.6099" ry="6.6099" stroke-width="1.2"/>
   <rect id="rect1656" x="69.84" y="40.71" width="29.811" height="29.811" rx="6.6099" ry="6.6099" stroke-width="1.4"/>
   <rect id="rect1658" x="69.84" y="40.71" width="29.811" height="29.811" rx="6.6099" ry="6.6099" stroke-width="1.6"/>
   <rect id="rect1660" x="69.84" y="40.71" width="29.811" height="29.811" rx="6.6099" ry="6.6099" stroke-width="1.8"/>
   <rect id="rect1662" x="69.84" y="40.71" width="29.811" height="29.811" rx="6.6099" ry="6.6099" stroke-width="2"/>
   <rect id="rect1664" x="69.84" y="40.71" width="29.811" height="29.811" rx="6.6099" ry="6.6099" stroke-width="2.2"/>
   <rect id="rect1666" x="69.84" y="40.71" width="29.811" height="29.811" rx="6.6099" ry="6.6099" stroke-width="2.6"/>
   <rect id="rect1668" x="69.84" y="40.71" width="29.811" height="29.811" rx="6.6099" ry="6.6099" stroke-width="3"/>
   <rect id="rect1670" x="69.84" y="40.71" width="29.811" height="29.811" rx="6.6099" ry="6.6099" stroke-width="3.4"/>
   <rect id="rect1672" x="69.84" y="40.71" width="29.811" height="29.811" rx="6.6099" ry="6.6099" stroke-width="3.8"/>
   <rect id="rect1674" x="69.84" y="40.71" width="29.811" height="29.811" rx="6.6099" ry="6.6099" stroke-width="4.2"/>
   <rect id="rect1676" x="69.84" y="40.71" width="29.811" height="29.811" rx="6.6099" ry="6.6099" stroke-width="4.6"/>
   <rect id="rect1678" x="69.84" y="40.71" width="29.811" height="29.811" rx="6.6099" ry="6.6099" stroke-width="5"/>
  </g>
  <rect id="rect849" x="2.4721" y="2.5641" width="29.087" height="29.087" rx="6.4495" ry="6.4495" fill="url(#linearGradient1632)" stroke-linecap="round" stroke-linejoin="round" stroke-width="2.6877"/>
  <path id="path3813" d="m16.92 8.9949a12.672 10.241 0 0 0-12.672 10.241 12.672 10.241 0 0 0 12.672 10.241 12.672 10.241 0 0 0 12.672-10.241 12.672 10.241 0 0 0-12.672-10.241z" fill="url(#radialGradient3815)" opacity=".784" stroke-width="2.691"/>
  <path id="path3338" d="m17.014 7.6247a11.987 11.28 0 0 0-11.987 11.28 11.987 11.28 0 0 0 11.987 11.281 11.987 11.28 0 0 0 11.987-11.281 11.987 11.28 0 0 0-11.987-11.28z" fill="url(#radialGradient3340)" opacity=".341" stroke-width="2.7469"/>
  <path id="path819" d="m17.014 7.6247a10.419 8.6384 0 0 0-10.419 8.6383 10.419 8.6384 0 0 0 2.7979 5.8797l-0.0057-2e-3c1.042 1.161 3.2312 1.3321 1.1947 3.4517-0.59503 0.65263-0.39518 0.73166 0.31878 0.62456 2.1436-0.47586 1.9043-1.5069 3.7681-1.5464a10.419 8.6384 0 0 0 2.3456 0.23066 10.419 8.6384 0 0 0 10.419-8.6383 10.419 8.6384 0 0 0-10.419-8.6383z" fill="url(#radialGradient976)"/>
  <path id="path992" d="m17.014 7.6247a10.419 8.6384 0 0 0-10.419 8.6383 10.419 8.6384 0 0 0 2.7979 5.8797l-0.0057-2e-3c1.042 1.161 3.2312 1.3321 1.1947 3.4517-0.59503 0.65263-0.39518 0.73166 0.31878 0.62456 2.1436-0.47586 1.9043-1.5069 3.7681-1.5464a10.419 8.6384 0 0 0 2.3456 0.23066 10.419 8.6384 0 0 0 10.419-8.6383 10.419 8.6384 0 0 0-10.419-8.6383z" fill="url(#radialGradient1006)"/>
  <path id="path1028" d="m17.014 7.6247a10.419 8.6384 0 0 0-10.419 8.6383 10.419 8.6384 0 0 0 2.7979 5.8797l-0.0057-2e-3c1.042 1.161 3.2312 1.3321 1.1947 3.4517-0.59503 0.65263-0.39518 0.73166 0.31878 0.62456 2.1436-0.47586 1.9043-1.5069 3.7681-1.5464a10.419 8.6384 0 0 0 2.3456 0.23066 10.419 8.6384 0 0 0 10.419-8.6383 10.419 8.6384 0 0 0-10.419-8.6383z" fill="url(#linearGradient3311)"/>
  <path id="path1082" d="m12.21 22.767a1.0749 3.0002 32.1 0 0-1.1307 0.68316c0.47385 0.46218 0.5639 1.0371-0.49764 2.142-0.59503 0.65263-0.39512 0.73135 0.31884 0.62425 0.38156-0.0847 0.68517-0.18702 0.94103-0.29817a1.0749 3.0002 32.1 0 0 0.67024-3.0908 1.0749 3.0002 32.1 0 0-0.30179-0.06046z" fill="url(#radialGradient1090)"/>
 </g>
</svg>
