<?xml version="1.0" encoding="UTF-8"?>
<svg id="svg1443" width="128" height="128" version="1.1" viewBox="0 0 33.867 33.867" xmlns="http://www.w3.org/2000/svg" xmlns:cc="http://creativecommons.org/ns#" xmlns:dc="http://purl.org/dc/elements/1.1/" xmlns:rdf="http://www.w3.org/1999/02/22-rdf-syntax-ns#" xmlns:xlink="http://www.w3.org/1999/xlink">
 <defs id="defs1437">
  <radialGradient id="radialGradient1999" cx="17.076" cy="4.6282" r="14.544" gradientTransform="matrix(4.7283 0 0 1.6998 -63.506 -2.7937)" gradientUnits="userSpaceOnUse">
   <stop id="stop1993" stop-color="#5ed7ec" offset="0"/>
   <stop id="stop1995" stop-color="#3de1bf" offset="1"/>
  </radialGradient>
  <linearGradient id="linearGradient1591" x1="8.0407" x2="8.0407" y1="10.734" y2="43.592" gradientUnits="userSpaceOnUse">
   <stop id="stop1585" stop-color="#fff" offset="0"/>
   <stop id="stop1587" stop-color="#3de1bf" offset="1"/>
  </linearGradient>
 </defs>
 <metadata id="metadata1440">
  <rdf:RDF>
   <cc:Work rdf:about="">
    <dc:format>image/svg+xml</dc:format>
    <dc:type rdf:resource="http://purl.org/dc/dcmitype/StillImage"/>
   </cc:Work>
  </rdf:RDF>
 </metadata>
 <g id="layer1">
  <g id="g1702" transform="matrix(.97573 0 0 .96361 -65.737 -36.328)" fill="none" opacity=".18754" stroke="#000" stroke-linecap="round" stroke-linejoin="round" stroke-opacity=".02">
   <rect id="rect1634" x="69.84" y="40.71" width="29.811" height="29.811" rx="6.6099" ry="6.6099" stroke-width=".1"/>
   <rect id="rect1638" x="69.84" y="40.71" width="29.811" height="29.811" rx="6.6099" ry="6.6099" stroke-width=".2"/>
   <rect id="rect1640" x="69.84" y="40.71" width="29.811" height="29.811" rx="6.6099" ry="6.6099" stroke-width=".3"/>
   <rect id="rect1642" x="69.84" y="40.71" width="29.811" height="29.811" rx="6.6099" ry="6.6099" stroke-width=".4"/>
   <rect id="rect1644" x="69.84" y="40.71" width="29.811" height="29.811" rx="6.6099" ry="6.6099" stroke-width=".5"/>
   <rect id="rect1646" x="69.84" y="40.71" width="29.811" height="29.811" rx="6.6099" ry="6.6099" stroke-width=".6"/>
   <rect id="rect1648" x="69.84" y="40.71" width="29.811" height="29.811" rx="6.6099" ry="6.6099" stroke-width=".7"/>
   <rect id="rect1650" x="69.84" y="40.71" width="29.811" height="29.811" rx="6.6099" ry="6.6099" stroke-width=".8"/>
   <rect id="rect1652" x="69.84" y="40.71" width="29.811" height="29.811" rx="6.6099" ry="6.6099"/>
   <rect id="rect1654" x="69.84" y="40.71" width="29.811" height="29.811" rx="6.6099" ry="6.6099" stroke-width="1.2"/>
   <rect id="rect1656" x="69.84" y="40.71" width="29.811" height="29.811" rx="6.6099" ry="6.6099" stroke-width="1.4"/>
   <rect id="rect1658" x="69.84" y="40.71" width="29.811" height="29.811" rx="6.6099" ry="6.6099" stroke-width="1.6"/>
   <rect id="rect1660" x="69.84" y="40.71" width="29.811" height="29.811" rx="6.6099" ry="6.6099" stroke-width="1.8"/>
   <rect id="rect1662" x="69.84" y="40.71" width="29.811" height="29.811" rx="6.6099" ry="6.6099" stroke-width="2"/>
   <rect id="rect1664" x="69.84" y="40.71" width="29.811" height="29.811" rx="6.6099" ry="6.6099" stroke-width="2.2"/>
   <rect id="rect1666" x="69.84" y="40.71" width="29.811" height="29.811" rx="6.6099" ry="6.6099" stroke-width="2.6"/>
   <rect id="rect1668" x="69.84" y="40.71" width="29.811" height="29.811" rx="6.6099" ry="6.6099" stroke-width="3"/>
   <rect id="rect1670" x="69.84" y="40.71" width="29.811" height="29.811" rx="6.6099" ry="6.6099" stroke-width="3.4"/>
   <rect id="rect1672" x="69.84" y="40.71" width="29.811" height="29.811" rx="6.6099" ry="6.6099" stroke-width="3.8"/>
   <rect id="rect1674" x="69.84" y="40.71" width="29.811" height="29.811" rx="6.6099" ry="6.6099" stroke-width="4.2"/>
   <rect id="rect1676" x="69.84" y="40.71" width="29.811" height="29.811" rx="6.6099" ry="6.6099" stroke-width="4.6"/>
   <rect id="rect1678" x="69.84" y="40.71" width="29.811" height="29.811" rx="6.6099" ry="6.6099" stroke-width="5"/>
  </g>
  <rect id="rect849" x="2.4074" y="2.5392" width="29.087" height="29.087" rx="6.4495" ry="6.4495" fill="url(#radialGradient1999)" stroke-linecap="round" stroke-linejoin="round" stroke-width="2.6877"/>
  <path id="path1564" d="m20.693 25.441c-0.33611-0.16714-0.70988-0.44531-0.87786-0.65334-0.38629-0.47836-0.50952-0.74303-0.87367-0.46663-0.47471 0.36033-1.1239 0.5491-1.7297 0.60545-0.81336 0.07565-0.8785-0.0066-0.56186-0.70866 0.53967-1.1967 0.54008-1.8479 0.0011-3.0427-0.3678-0.81559-0.56312-0.94216-1.4481-0.93839-0.44306 0.0019-1.1677 0.06895-1.4736 0.17412-0.54731 0.18816-1.4105 0.48908-1.4913 0.69864-0.03025 0.07844 0.08097 0.24183 0.27038 0.3972 0.58824 0.48253 0.79366 1.3 0.50153 1.9958-0.13263 0.31588-0.39515 0.62886-0.52748 0.62886-0.04126 0-0.14801-0.19023-0.23724-0.42273-0.08923-0.2325-0.27107-0.75328-0.40411-0.85742-0.73628-0.57635-1.9934 0.46867-2.4322 1.6663-0.11323 0.30911-0.24942 0.54758-0.30263 0.52993-0.20867-0.06922-0.36308-0.77493-0.32404-1.481 0.060182-1.0887 0.63156-1.9978 1.5826-2.518l0.32978-0.18039 0.10739-1.08c0.12459-1.253 0.30712-1.9423 0.75746-2.8603 0.73532-1.499 2.1905-2.747 3.65-3.4422 0.44236-0.21071 0.91075-0.43563 1.0409-0.49982 0.17373-0.08571 0.22837-0.17795 0.20573-0.3473-0.04608-0.3446-0.45387-1.197-0.72752-1.5206-0.30336-0.35877-0.20861-0.4959 0.438-0.6339 0.96356-0.20565 1.9483-0.06271 2.8206 0.38013 0.54558 0.27698 1.3557 1.0636 1.714 1.6643 0.26511 0.44448 0.39702 0.55398 1.1106 0.92189 3.3997 1.7528 4.8164 5.5409 3.5813 9.2477-0.19145 0.57457-0.46807 1.1511-0.75371 1.5708-0.71817 1.0554-1.4651 1.4635-2.6784 1.4635-0.57367 0-0.77613-0.04647-1.268-0.29107z" fill="#001358" fill-opacity=".02935" style="paint-order:stroke markers fill"/>
  <path id="path1364" d="m20.746 24.926c-0.33611-0.16714-0.70988-0.44531-0.87786-0.65334-0.38629-0.47836-0.50952-0.74303-0.87367-0.46663-0.47471 0.36033-1.1239 0.5491-1.7297 0.60545-0.81336 0.07565-0.8785-0.0066-0.56186-0.70866 0.53967-1.1967 0.54008-1.8479 0.0011-3.0427-0.3678-0.81559-0.56312-0.94216-1.4481-0.93839-0.44306 0.0019-1.1677 0.06895-1.4736 0.17412-0.54731 0.18816-1.4105 0.48908-1.4913 0.69864-0.03025 0.07844 0.08097 0.24183 0.27038 0.3972 0.58824 0.48253 0.79366 1.3 0.50153 1.9958-0.13263 0.31588-0.39515 0.62886-0.52748 0.62886-0.04126 0-0.14801-0.19023-0.23724-0.42273-0.08923-0.2325-0.27107-0.75328-0.40411-0.85742-0.73628-0.57635-1.9934 0.46867-2.4322 1.6663-0.11323 0.30911-0.24942 0.54758-0.30263 0.52993-0.20867-0.06922-0.36308-0.77493-0.32404-1.481 0.060182-1.0887 0.63156-1.9978 1.5826-2.518l0.32978-0.18039 0.10739-1.08c0.12459-1.253 0.30712-1.9423 0.75746-2.8603 0.73532-1.499 2.1905-2.747 3.65-3.4422 0.44236-0.21071 0.91075-0.43563 1.0409-0.49982 0.17373-0.08571 0.22837-0.17795 0.20573-0.3473-0.04608-0.3446-0.45387-1.197-0.72752-1.5206-0.30336-0.35877-0.20861-0.4959 0.438-0.6339 0.96356-0.20565 1.9483-0.062715 2.8206 0.38013 0.54558 0.27698 1.3557 1.0636 1.714 1.6643 0.26511 0.44448 0.39702 0.55398 1.1106 0.92189 3.3997 1.7528 4.8164 5.5409 3.5813 9.2477-0.19145 0.57457-0.46807 1.1511-0.75371 1.5708-0.71817 1.0554-1.4651 1.4635-2.6784 1.4635-0.57367 0-0.77613-0.04647-1.268-0.29107z" fill="#001358" fill-opacity=".02935" style="paint-order:stroke markers fill"/>
  <path id="path8" d="m20.358 24.203c-0.33611-0.16714-0.70988-0.44531-0.87786-0.65334-0.38629-0.47836-0.50952-0.74303-0.87367-0.46663-0.47471 0.36033-1.1239 0.5491-1.7297 0.60545-0.81336 0.07565-0.8785-0.0066-0.56186-0.70866 0.53967-1.1967 0.54008-1.8479 0.0011-3.0427-0.3678-0.81559-0.56312-0.94216-1.4481-0.93839-0.44306 0.0019-1.1677 0.06895-1.4736 0.17412-0.54731 0.18816-1.4105 0.48908-1.4913 0.69864-0.03025 0.07844 0.08097 0.24183 0.27038 0.3972 0.58824 0.48253 0.79366 1.3 0.50153 1.9958-0.13263 0.31588-0.39515 0.62886-0.52748 0.62886-0.04126 0-0.14801-0.19023-0.23724-0.42273-0.08923-0.2325-0.27107-0.75328-0.40411-0.85742-0.73628-0.57635-1.9934 0.46867-2.4322 1.6663-0.11323 0.30911-0.24942 0.54758-0.30263 0.52993-0.20867-0.06922-0.36308-0.77493-0.32404-1.481 0.060182-1.0887 0.63156-1.9978 1.5826-2.518l0.32978-0.18039 0.10739-1.08c0.12459-1.253 0.30712-1.9423 0.75746-2.8603 0.73532-1.499 2.1905-2.747 3.65-3.4422 0.44236-0.21071 0.91075-0.43563 1.0409-0.49982 0.17373-0.08571 0.22837-0.17795 0.20573-0.3473-0.04608-0.3446-0.45387-1.197-0.72752-1.5206-0.30336-0.35877-0.20861-0.4959 0.438-0.6339 0.96356-0.20565 1.9483-0.062715 2.8206 0.38013 0.54558 0.27699 1.3557 1.0636 1.714 1.6643 0.26511 0.44448 0.39702 0.55398 1.1106 0.92189 3.3997 1.7528 4.8164 5.5409 3.5813 9.2477-0.19145 0.57457-0.46807 1.1511-0.75371 1.5708-0.71817 1.0554-1.4651 1.4635-2.6784 1.4635-0.57367 0-0.77613-0.04647-1.268-0.29107z" fill="url(#linearGradient1591)" stroke="#060935" stroke-opacity=".034054" stroke-width=".8" style="paint-order:stroke markers fill"/>
 </g>
</svg>
