<?xml version="1.0" encoding="UTF-8"?>
<svg id="svg6" width="128" height="128" version="1.1" viewBox="0 0 33.867 33.867" xmlns="http://www.w3.org/2000/svg" xmlns:cc="http://creativecommons.org/ns#" xmlns:dc="http://purl.org/dc/elements/1.1/" xmlns:rdf="http://www.w3.org/1999/02/22-rdf-syntax-ns#" xmlns:xlink="http://www.w3.org/1999/xlink">
 <metadata id="metadata112">
  <rdf:RDF>
   <cc:Work rdf:about="">
    <dc:format>image/svg+xml</dc:format>
    <dc:type rdf:resource="http://purl.org/dc/dcmitype/StillImage"/>
   </cc:Work>
  </rdf:RDF>
 </metadata>
 <defs id="defs2">
  <radialGradient id="radialGradient1003" cx="16.933" cy="14.76" r="14.543" gradientTransform="matrix(-1.6731 0 0 -1.7356 45.264 32.022)" gradientUnits="userSpaceOnUse">
   <stop id="stop48" stop-color="#08bcfe" offset="0"/>
   <stop id="stop46" stop-color="#0d6be6" offset="1"/>
  </radialGradient>
  <linearGradient id="linearGradient1693" x1="7.8929" x2="7.8929" y1="9.9114" y2="62.834" gradientUnits="userSpaceOnUse">
   <stop id="stop1687" stop-color="#fff" offset="0"/>
   <stop id="stop1689" stop-color="#0d73e8" offset="1"/>
  </linearGradient>
 </defs>
 <g id="layer1">
  <g id="g1702" transform="matrix(.97573 0 0 .97573 -65.748 -37.203)" fill="none" opacity=".29677" stroke="#000" stroke-linecap="round" stroke-linejoin="round" stroke-opacity=".02">
   <rect id="rect1634" x="69.84" y="40.71" width="29.811" height="29.811" rx="6.6099" ry="6.6099" stroke-width=".1"/>
   <rect id="rect1638" x="69.84" y="40.71" width="29.811" height="29.811" rx="6.6099" ry="6.6099" stroke-width=".2"/>
   <rect id="rect1640" x="69.84" y="40.71" width="29.811" height="29.811" rx="6.6099" ry="6.6099" stroke-width=".3"/>
   <rect id="rect1642" x="69.84" y="40.71" width="29.811" height="29.811" rx="6.6099" ry="6.6099" stroke-width=".4"/>
   <rect id="rect1644" x="69.84" y="40.71" width="29.811" height="29.811" rx="6.6099" ry="6.6099" stroke-width=".5"/>
   <rect id="rect1646" x="69.84" y="40.71" width="29.811" height="29.811" rx="6.6099" ry="6.6099" stroke-width=".6"/>
   <rect id="rect1648" x="69.84" y="40.71" width="29.811" height="29.811" rx="6.6099" ry="6.6099" stroke-width=".7"/>
   <rect id="rect1650" x="69.84" y="40.71" width="29.811" height="29.811" rx="6.6099" ry="6.6099" stroke-width=".8"/>
   <rect id="rect1652" x="69.84" y="40.71" width="29.811" height="29.811" rx="6.6099" ry="6.6099"/>
   <rect id="rect1654" x="69.84" y="40.71" width="29.811" height="29.811" rx="6.6099" ry="6.6099" stroke-width="1.2"/>
   <rect id="rect1656" x="69.84" y="40.71" width="29.811" height="29.811" rx="6.6099" ry="6.6099" stroke-width="1.4"/>
   <rect id="rect1658" x="69.84" y="40.71" width="29.811" height="29.811" rx="6.6099" ry="6.6099" stroke-width="1.6"/>
   <rect id="rect1660" x="69.84" y="40.71" width="29.811" height="29.811" rx="6.6099" ry="6.6099" stroke-width="1.8"/>
   <rect id="rect1662" x="69.84" y="40.71" width="29.811" height="29.811" rx="6.6099" ry="6.6099" stroke-width="2"/>
   <rect id="rect1664" x="69.84" y="40.71" width="29.811" height="29.811" rx="6.6099" ry="6.6099" stroke-width="2.2"/>
   <rect id="rect1666" x="69.84" y="40.71" width="29.811" height="29.811" rx="6.6099" ry="6.6099" stroke-width="2.6"/>
   <rect id="rect1668" x="69.84" y="40.71" width="29.811" height="29.811" rx="6.6099" ry="6.6099" stroke-width="3"/>
   <rect id="rect1670" x="69.84" y="40.71" width="29.811" height="29.811" rx="6.6099" ry="6.6099" stroke-width="3.4"/>
   <rect id="rect1672" x="69.84" y="40.71" width="29.811" height="29.811" rx="6.6099" ry="6.6099" stroke-width="3.8"/>
   <rect id="rect1674" x="69.84" y="40.71" width="29.811" height="29.811" rx="6.6099" ry="6.6099" stroke-width="4.2"/>
   <rect id="rect1676" x="69.84" y="40.71" width="29.811" height="29.811" rx="6.6099" ry="6.6099" stroke-width="4.6"/>
   <rect id="rect1678" x="69.84" y="40.71" width="29.811" height="29.811" rx="6.6099" ry="6.6099" stroke-width="5"/>
  </g>
  <rect id="rect51" x="2.39" y="2.39" width="29.087" height="29.087" rx="6.4489" fill="url(#radialGradient1003)" stroke-width=".99999"/>
  <path id="path1667" d="m13.552 8.5593s-1.1233 3.37 3.9316 8.4249c5.055 5.055 9.5483 3.9316 9.5483 3.9316s-5.6166 3.37-11.233-2.2466c-5.6166-5.6166-2.2466-10.11-2.2466-10.11zm-4.4933 1.1233s-1.1233 5.6166 4.4933 11.233c5.6166 5.6166 12.357 4.4933 12.357 4.4933s-8.9866 3.37-14.603-2.2466c-5.6166-5.6166-2.2467-13.48-2.2467-13.48z" fill="#000c60" fill-opacity=".064522" stroke-width=".56166"/>
  <path id="path1503" d="m13.35 8.1353s-1.1233 3.37 3.9316 8.4249c5.055 5.055 9.5483 3.9316 9.5483 3.9316s-5.6166 3.37-11.233-2.2466c-5.6166-5.6166-2.2466-10.11-2.2466-10.11zm-4.4933 1.1233s-1.1233 5.6166 4.4933 11.233c5.6166 5.6166 12.357 4.4933 12.357 4.4933s-8.9866 3.37-14.603-2.2466c-5.6166-5.6166-2.2467-13.48-2.2467-13.48z" fill="#000c60" fill-opacity=".19682" stroke-width=".56166"/>
  <path id="path10" d="m13.389 7.6516s-1.1233 3.37 3.9316 8.4249c5.055 5.055 9.5483 3.9316 9.5483 3.9316s-5.6166 3.37-11.233-2.2466c-5.6166-5.6166-2.2466-10.11-2.2466-10.11zm-4.4933 1.1233s-1.1233 5.6166 4.4933 11.233c5.6166 5.6166 12.357 4.4933 12.357 4.4933s-8.9866 3.37-14.603-2.2466c-5.6166-5.6166-2.2467-13.48-2.2467-13.48z" fill="url(#linearGradient1693)" stroke-width=".56166"/>
 </g>
</svg>
