<?xml version="1.0" encoding="UTF-8"?>
<svg id="svg6" width="128" height="128" version="1.1" viewBox="0 0 33.867 33.867" xmlns="http://www.w3.org/2000/svg" xmlns:cc="http://creativecommons.org/ns#" xmlns:dc="http://purl.org/dc/elements/1.1/" xmlns:rdf="http://www.w3.org/1999/02/22-rdf-syntax-ns#" xmlns:xlink="http://www.w3.org/1999/xlink">
 <metadata id="metadata170">
  <rdf:RDF>
   <cc:Work rdf:about="">
    <dc:format>image/svg+xml</dc:format>
    <dc:type rdf:resource="http://purl.org/dc/dcmitype/StillImage"/>
    <dc:title/>
   </cc:Work>
  </rdf:RDF>
 </metadata>
 <defs id="defs2">
  <radialGradient id="radialGradient1349" cx="101.37" cy="57.193" r="16.235" gradientTransform="matrix(.88227 0 0 .86529 42.48 6.1268)" gradientUnits="userSpaceOnUse">
   <stop id="stop1341" offset="0"/>
   <stop id="stop1351" stop-opacity=".87451" offset=".6"/>
   <stop id="stop1357" stop-opacity=".11373" offset=".87841"/>
   <stop id="stop1355" stop-opacity=".035294" offset=".924"/>
   <stop id="stop1353" stop-opacity="0" offset=".96"/>
   <stop id="stop1343" stop-opacity=".0033914" offset="1"/>
  </radialGradient>
  <linearGradient id="linearGradient1632" x1="132.21" x2="132.21" y1="42.152" y2="70.68" gradientUnits="userSpaceOnUse">
   <stop id="stop1626" stop-color="#56b5dc" offset="0"/>
   <stop id="stop1628" stop-color="#306ab6" offset="1"/>
  </linearGradient>
  <linearGradient id="linearGradient2269" x1="130.09" x2="134.53" y1="48.295" y2="64.891" gradientTransform="translate(1.5465 -.8945)" gradientUnits="userSpaceOnUse">
   <stop id="stop2263" stop-color="#303030" offset="0"/>
   <stop id="stop2265" stop-color="#141414" offset="1"/>
  </linearGradient>
  <linearGradient id="linearGradient1073" x1="132.41" x2="132.41" y1="44.057" y2="67.836" gradientUnits="userSpaceOnUse">
   <stop id="stop1067" stop-color="#141414" offset="0"/>
   <stop id="stop1069" stop-color="#303030" offset="1"/>
  </linearGradient>
 </defs>
 <g id="layer1">
  <g id="g1792" transform="matrix(.97573 0 0 .97573 -111.78 -37.203)">
   <rect id="rect849" x="117.01" y="40.71" width="29.811" height="29.811" rx="6.6099" ry="6.6099" fill="url(#linearGradient1632)" stroke-linecap="round" stroke-linejoin="round" stroke-width="2.7545"/>
   <circle id="circle1335" cx="131.92" cy="55.615" r="16.235" fill="url(#radialGradient1349)" stroke-linecap="round" stroke-linejoin="round" stroke-width="1.0435"/>
   <circle id="path2259" cx="131.92" cy="55.615" r="12.492" fill="url(#linearGradient1073)"/>
   <circle id="circle2261" cx="131.92" cy="55.615" r="11.399" fill="url(#linearGradient2269)"/>
   <path id="path1075" d="m136.63 49.292-4.9475 1.8894v6.5823a3.0397 2.219 0 0 0-1.4359-0.2646 3.0397 2.219 0 0 0-3.0401 2.2192 3.0397 2.219 0 0 0 3.0401 2.2192 3.0397 2.219 0 0 0 3.0397-2.2192 3.0397 2.219 0 0 0-0.11809-0.60881l0.0394-5.7487 3.4224-1.2723z" fill="#fff" fill-rule="evenodd"/>
  </g>
 </g>
</svg>
