<?xml version="1.0" encoding="UTF-8"?>
<svg id="svg6" width="128" height="128" version="1.1" viewBox="0 0 33.867 33.867" xmlns="http://www.w3.org/2000/svg" xmlns:cc="http://creativecommons.org/ns#" xmlns:dc="http://purl.org/dc/elements/1.1/" xmlns:rdf="http://www.w3.org/1999/02/22-rdf-syntax-ns#" xmlns:xlink="http://www.w3.org/1999/xlink">
 <metadata id="metadata99">
  <rdf:RDF>
   <cc:Work rdf:about="">
    <dc:format>image/svg+xml</dc:format>
    <dc:type rdf:resource="http://purl.org/dc/dcmitype/StillImage"/>
    <dc:title/>
   </cc:Work>
  </rdf:RDF>
 </metadata>
 <defs id="defs2">
  <linearGradient id="linearGradient1632" x1="132.21" x2="132.21" y1="42.152" y2="70.68" gradientTransform="matrix(.97573 0 0 .97573 -111.78 -37.203)" gradientUnits="userSpaceOnUse">
   <stop id="stop1626" stop-color="#292929" offset="0"/>
   <stop id="stop1628" stop-color="#080808" offset="1"/>
  </linearGradient>
 </defs>
 <g id="layer1">
  <g id="g1702" transform="matrix(.97573 0 0 .97573 -65.748 -37.203)" fill="none" opacity=".29677" stroke="#000" stroke-linecap="round" stroke-linejoin="round" stroke-opacity=".02">
   <rect id="rect1634" x="69.84" y="40.71" width="29.811" height="29.811" rx="6.6099" ry="6.6099" stroke-width=".1"/>
   <rect id="rect1638" x="69.84" y="40.71" width="29.811" height="29.811" rx="6.6099" ry="6.6099" stroke-width=".2"/>
   <rect id="rect1640" x="69.84" y="40.71" width="29.811" height="29.811" rx="6.6099" ry="6.6099" stroke-width=".3"/>
   <rect id="rect1642" x="69.84" y="40.71" width="29.811" height="29.811" rx="6.6099" ry="6.6099" stroke-width=".4"/>
   <rect id="rect1644" x="69.84" y="40.71" width="29.811" height="29.811" rx="6.6099" ry="6.6099" stroke-width=".5"/>
   <rect id="rect1646" x="69.84" y="40.71" width="29.811" height="29.811" rx="6.6099" ry="6.6099" stroke-width=".6"/>
   <rect id="rect1648" x="69.84" y="40.71" width="29.811" height="29.811" rx="6.6099" ry="6.6099" stroke-width=".7"/>
   <rect id="rect1650" x="69.84" y="40.71" width="29.811" height="29.811" rx="6.6099" ry="6.6099" stroke-width=".8"/>
   <rect id="rect1652" x="69.84" y="40.71" width="29.811" height="29.811" rx="6.6099" ry="6.6099"/>
   <rect id="rect1654" x="69.84" y="40.71" width="29.811" height="29.811" rx="6.6099" ry="6.6099" stroke-width="1.2"/>
   <rect id="rect1656" x="69.84" y="40.71" width="29.811" height="29.811" rx="6.6099" ry="6.6099" stroke-width="1.4"/>
   <rect id="rect1658" x="69.84" y="40.71" width="29.811" height="29.811" rx="6.6099" ry="6.6099" stroke-width="1.6"/>
   <rect id="rect1660" x="69.84" y="40.71" width="29.811" height="29.811" rx="6.6099" ry="6.6099" stroke-width="1.8"/>
   <rect id="rect1662" x="69.84" y="40.71" width="29.811" height="29.811" rx="6.6099" ry="6.6099" stroke-width="2"/>
   <rect id="rect1664" x="69.84" y="40.71" width="29.811" height="29.811" rx="6.6099" ry="6.6099" stroke-width="2.2"/>
   <rect id="rect1666" x="69.84" y="40.71" width="29.811" height="29.811" rx="6.6099" ry="6.6099" stroke-width="2.6"/>
   <rect id="rect1668" x="69.84" y="40.71" width="29.811" height="29.811" rx="6.6099" ry="6.6099" stroke-width="3"/>
   <rect id="rect1670" x="69.84" y="40.71" width="29.811" height="29.811" rx="6.6099" ry="6.6099" stroke-width="3.4"/>
   <rect id="rect1672" x="69.84" y="40.71" width="29.811" height="29.811" rx="6.6099" ry="6.6099" stroke-width="3.8"/>
   <rect id="rect1674" x="69.84" y="40.71" width="29.811" height="29.811" rx="6.6099" ry="6.6099" stroke-width="4.2"/>
   <rect id="rect1676" x="69.84" y="40.71" width="29.811" height="29.811" rx="6.6099" ry="6.6099" stroke-width="4.6"/>
   <rect id="rect1678" x="69.84" y="40.71" width="29.811" height="29.811" rx="6.6099" ry="6.6099" stroke-width="5"/>
  </g>
  <rect id="rect849" x="2.3963" y="2.5186" width="29.087" height="29.087" rx="6.4495" ry="6.4495" fill="url(#linearGradient1632)" stroke-linecap="round" stroke-linejoin="round" stroke-width="2.6877"/>
  <path id="path869-2-3" d="m24.378 11.956c0.70308-0.94112 1.1239-1.9182 1.1259-2.6163-0.0011-0.22605-0.04619-0.40271-0.13246-0.53431-9e-3 -0.016113-0.03394-0.058218-0.07778-0.099721-0.04362-0.043249-0.08279-0.066384-0.09127-0.071062-0.13803-0.092135-0.31554-0.13658-0.54165-0.13658-0.69634 0.00106-1.6737 0.42172-2.6151 1.126-0.76094 0.56941-1.5219 1.3713-2.5754 2.4818-0.1787 0.18833-0.36675 0.38634-0.56564 0.59399l-2.0405-0.61154 0.0061-0.0058c0.0848-0.0857 0.13308-0.20355 0.13191-0.31937 0.0012-0.12225-0.04825-0.24011-0.13336-0.32491l-0.36849-0.36907c-0.08511-0.0857-0.20269-0.13482-0.32432-0.13482-0.12284 0-0.23748 0.04737-0.32318 0.13395l-0.55128 0.55158-0.29188-0.08715c0.06289-0.07985 0.09768-0.17957 0.0965-0.27784 0.0012-0.12402-0.04679-0.23952-0.13306-0.32522l-0.37025-0.37026c-0.08452-0.0848-0.20151-0.13336-0.32432-0.13336-0.12225 0-0.23661 0.04769-0.32141 0.13395l-0.50594 0.50566-2.0747-0.62147c-0.04649-0.01376-0.09563-0.02104-0.14828-0.02104-0.14738 0.0016-0.28396 0.05645-0.38368 0.1553l-0.72939 0.72967c-0.08279 0.08276-0.12928 0.19477-0.12838 0.30092-0.0026 0.15645 0.08394 0.30093 0.22256 0.37521l4.3629 2.4373c0.02135 0.01199 0.08307 0.05762 0.10588 0.08043l1.2438 1.2435c-1.1634 1.2257-2.1999 2.4128-3.0076 3.4454-0.07546 0.09594-0.14682 0.18951-0.21702 0.28223l-3.3752-0.30652c-0.01638-0.0021-0.03482-0.0037-0.05821-0.0037-0.15472 0.0032-0.30591 0.06437-0.41819 0.17285l-0.34014 0.33982c-0.083935 0.08219-0.13132 0.1933-0.13014 0.30064-0.00262 0.16378 0.096502 0.31525 0.24537 0.38164l2.3744 1.1277c0.02046 0.01022 0.07369 0.04796 0.09096 0.06521l0.19712 0.19567c-0.06171 0.17372-0.093 0.32432-0.09477 0.45654-6.08e-4 0.17691 0.05645 0.32841 0.16555 0.43751l0.0085 0.0073 0.0023 0.0016c0.11201 0.10851 0.25707 0.16379 0.43664 0.16379 0.12928-0.0021 0.27842-0.03276 0.45273-0.09415l0.20003 0.19975c0.01551 0.01638 0.05265 0.06843 0.0623 0.0892l1.1254 2.3692c0.06874 0.15119 0.21699 0.24915 0.37842 0.24915h0.0023c0.11173 0 0.21847-0.04475 0.30006-0.12662l0.34831-0.34948c0.10322-0.10879 0.16406-0.25881 0.16639-0.41702 0-0.01926-8.73e-4 -0.0342-0.0015-0.04245l-0.30738-3.3875c0.09242-0.06961 0.18601-0.14126 0.2822-0.21612 1.0341-0.80893 2.2215-1.8463 3.4448-3.0079l1.2447 1.2459c0.02018 0.01927 0.06725 0.08102 0.08103 0.10674l2.4326 4.355c0.07428 0.14066 0.2173 0.22754 0.37582 0.22754 0.11318 0 0.2208-0.04475 0.30328-0.12779l0.73462-0.73409c0.09536-0.09969 0.14887-0.23513 0.15032-0.3831 0-0.04973-7e-3 -0.09796-0.01987-0.1433l-0.62147-2.0753 0.50563-0.50652c0.08511-0.08455 0.13339-0.2021 0.13339-0.32287 0-0.12138-0.0471-0.23543-0.13277-0.32231l-0.37084-0.37053c-0.0848-0.08511-0.2021-0.13364-0.32287-0.13364-0.10235 0-0.20235 0.0342-0.28047 0.09594l-0.08688-0.29071 0.55187-0.55187c0.0848-0.08511 0.13308-0.20268 0.13308-0.32376 0-0.12194-0.0471-0.23627-0.13308-0.32197l-0.36899-0.36911c-0.08509-0.08629-0.20322-0.13513-0.32461-0.13513-0.12194 0-0.24011 0.0494-0.32346 0.13454l-0.0038 0.0037-0.61126-2.0402c0.21117-0.20121 0.41148-0.39278 0.60306-0.57322 1.1065-1.05 1.9055-1.808 2.4734-2.5672z" fill="#fcfcfc" stroke-width=".61172"/>
 </g>
</svg>
