<?xml version="1.0" encoding="UTF-8"?>
<svg id="svg1443" width="128" height="128" version="1.1" viewBox="0 0 33.867 33.867" xmlns="http://www.w3.org/2000/svg" xmlns:cc="http://creativecommons.org/ns#" xmlns:dc="http://purl.org/dc/elements/1.1/" xmlns:rdf="http://www.w3.org/1999/02/22-rdf-syntax-ns#" xmlns:xlink="http://www.w3.org/1999/xlink">
 <defs id="defs1437">
  <radialGradient id="radialGradient963" cx="16.951" cy="2.5104" r="14.544" gradientTransform="matrix(7.1386 0 0 2.2345 -103.92 -3.0991)" gradientUnits="userSpaceOnUse">
   <stop id="stop957" stop-color="#c988fa" offset="0"/>
   <stop id="stop959" stop-color="#e852a6" stop-opacity=".96863" offset="1"/>
  </radialGradient>
  <linearGradient id="linearGradient1043" x1="6.636" x2="6.636" y1="6.793" y2="55.302" gradientUnits="userSpaceOnUse">
   <stop id="stop1037" stop-color="#fff" offset="0"/>
   <stop id="stop1039" stop-color="#e061bd" stop-opacity=".97647" offset="1"/>
  </linearGradient>
 </defs>
 <metadata id="metadata1440">
  <rdf:RDF>
   <cc:Work rdf:about="">
    <dc:format>image/svg+xml</dc:format>
    <dc:type rdf:resource="http://purl.org/dc/dcmitype/StillImage"/>
   </cc:Work>
  </rdf:RDF>
 </metadata>
 <g id="layer1">
  <g id="g1702" transform="matrix(.97573 0 0 .97573 -65.737 -37.183)" fill="none" opacity=".295" stroke="#000" stroke-linecap="round" stroke-linejoin="round" stroke-opacity=".02">
   <rect id="rect1634" x="69.84" y="40.71" width="29.811" height="29.811" rx="6.6099" ry="6.6099" stroke-width=".1"/>
   <rect id="rect1638" x="69.84" y="40.71" width="29.811" height="29.811" rx="6.6099" ry="6.6099" stroke-width=".2"/>
   <rect id="rect1640" x="69.84" y="40.71" width="29.811" height="29.811" rx="6.6099" ry="6.6099" stroke-width=".3"/>
   <rect id="rect1642" x="69.84" y="40.71" width="29.811" height="29.811" rx="6.6099" ry="6.6099" stroke-width=".4"/>
   <rect id="rect1644" x="69.84" y="40.71" width="29.811" height="29.811" rx="6.6099" ry="6.6099" stroke-width=".5"/>
   <rect id="rect1646" x="69.84" y="40.71" width="29.811" height="29.811" rx="6.6099" ry="6.6099" stroke-width=".6"/>
   <rect id="rect1648" x="69.84" y="40.71" width="29.811" height="29.811" rx="6.6099" ry="6.6099" stroke-width=".7"/>
   <rect id="rect1650" x="69.84" y="40.71" width="29.811" height="29.811" rx="6.6099" ry="6.6099" stroke-width=".8"/>
   <rect id="rect1652" x="69.84" y="40.71" width="29.811" height="29.811" rx="6.6099" ry="6.6099"/>
   <rect id="rect1654" x="69.84" y="40.71" width="29.811" height="29.811" rx="6.6099" ry="6.6099" stroke-width="1.2"/>
   <rect id="rect1656" x="69.84" y="40.71" width="29.811" height="29.811" rx="6.6099" ry="6.6099" stroke-width="1.4"/>
   <rect id="rect1658" x="69.84" y="40.71" width="29.811" height="29.811" rx="6.6099" ry="6.6099" stroke-width="1.6"/>
   <rect id="rect1660" x="69.84" y="40.71" width="29.811" height="29.811" rx="6.6099" ry="6.6099" stroke-width="1.8"/>
   <rect id="rect1662" x="69.84" y="40.71" width="29.811" height="29.811" rx="6.6099" ry="6.6099" stroke-width="2"/>
   <rect id="rect1664" x="69.84" y="40.71" width="29.811" height="29.811" rx="6.6099" ry="6.6099" stroke-width="2.2"/>
   <rect id="rect1666" x="69.84" y="40.71" width="29.811" height="29.811" rx="6.6099" ry="6.6099" stroke-width="2.6"/>
   <rect id="rect1668" x="69.84" y="40.71" width="29.811" height="29.811" rx="6.6099" ry="6.6099" stroke-width="3"/>
   <rect id="rect1670" x="69.84" y="40.71" width="29.811" height="29.811" rx="6.6099" ry="6.6099" stroke-width="3.4"/>
   <rect id="rect1672" x="69.84" y="40.71" width="29.811" height="29.811" rx="6.6099" ry="6.6099" stroke-width="3.8"/>
   <rect id="rect1674" x="69.84" y="40.71" width="29.811" height="29.811" rx="6.6099" ry="6.6099" stroke-width="4.2"/>
   <rect id="rect1676" x="69.84" y="40.71" width="29.811" height="29.811" rx="6.6099" ry="6.6099" stroke-width="4.6"/>
   <rect id="rect1678" x="69.84" y="40.71" width="29.811" height="29.811" rx="6.6099" ry="6.6099" stroke-width="5"/>
  </g>
  <rect id="rect849" x="2.5411" y="2.5392" width="29.087" height="29.087" rx="6.4495" ry="6.4495" fill="url(#radialGradient963)" stroke-linecap="round" stroke-linejoin="round" stroke-width="2.6877"/>
  <g id="g3729" fill="#070044" fill-rule="evenodd" opacity=".37194" stroke-width=".54739">
   <path id="path3522" d="m17.358 5.5296a1.9159 1.9159 0 0 0-1.9159 1.9159 1.9159 1.9159 0 0 0 1.0948 1.7288v1.1162l-2.0078-1.3385a0.82117 0.82117 0 1 0-0.91089 1.3663l2.9187 1.9458v3.6126l-3.1283-1.8068-0.22558-3.5003a0.82119 0.82119 0 1 0-1.639 0.10584l0.15502 2.4077-0.96649-0.55808a1.9159 1.9159 0 0 0-0.94938-1.8122 1.9159 1.9159 0 0 0-2.6172 0.70134 1.9159 1.9159 0 0 0 0.70134 2.6172 1.9159 1.9159 0 0 0 2.0442-0.0834l0.96649 0.55808-2.1628 1.0691a0.82119 0.82119 0 1 0 0.72807 1.4722l3.1443-1.5545 3.1272 1.8058-3.1218 1.8025-3.1443-1.5545a0.82119 0.82119 0 1 0-0.72808 1.4722l2.1639 1.0691-0.9729 0.56129a1.9159 1.9159 0 0 0-2.0442-0.0834 1.9159 1.9159 0 0 0-0.70134 2.6172 1.9159 1.9159 0 0 0 2.6172 0.70134 1.9159 1.9159 0 0 0 0.94938-1.8122l0.9729-0.56129-0.1561 2.4077a0.82119 0.82119 0 1 0 1.639 0.10584l0.22559-3.5003 3.1229-1.8036v3.6062l-2.9187 1.9458a0.82117 0.82117 0 1 0 0.91089 1.3663l2.0078-1.3385v1.1226a1.9159 1.9159 0 0 0-1.0948 1.7288 1.9159 1.9159 0 0 0 1.9159 1.9159 1.9159 1.9159 0 0 0 1.9159-1.9159 1.9159 1.9159 0 0 0-1.0948-1.7288v-1.1226l2.0078 1.3385a0.82117 0.82117 0 1 0 0.91089-1.3663l-2.9187-1.9458v-3.6062l3.1229 1.8036 0.22558 3.5003a0.82119 0.82119 0 1 0 1.639-0.10584l-0.15502-2.4077 0.97184 0.56129a1.9159 1.9159 0 0 0 0.95045 1.8122 1.9159 1.9159 0 0 0 2.6162-0.70134 1.9159 1.9159 0 0 0-0.70028-2.6172 1.9159 1.9159 0 0 0-2.0452 0.0834l-0.97184-0.56129 2.1628-1.0691a0.82119 0.82119 0 1 0-0.72807-1.4722l-3.1443 1.5545-3.1218-1.8025 3.1272-1.8058 3.1454 1.5545a0.82117 0.82117 0 1 0 0.72701-1.4722l-2.1628-1.0691 0.96649-0.55809a1.9159 1.9159 0 0 0 2.0452 0.0834 1.9159 1.9159 0 0 0 0.70028-2.6172 1.9159 1.9159 0 0 0-2.6162-0.70134 1.9159 1.9159 0 0 0-0.95045 1.8122l-0.96649 0.55808 0.15502-2.4077a0.82117 0.82117 0 1 0-1.6379-0.10584l-0.22666 3.5003-3.1283 1.8068v-3.6126l2.9187-1.9458a0.82117 0.82117 0 1 0-0.91089-1.3663l-2.0078 1.3385v-1.1162a1.9159 1.9159 0 0 0 1.0948-1.7288 1.9159 1.9159 0 0 0-1.9159-1.9159z" fill-opacity=".13419"/>
   <path id="path3722" d="m17.6 5.9389a1.9159 1.9159 0 0 0-1.9159 1.9159 1.9159 1.9159 0 0 0 1.0948 1.7288v1.1162l-2.0078-1.3385a0.82117 0.82117 0 1 0-0.91089 1.3663l2.9187 1.9458v3.6126l-3.1283-1.8068-0.22558-3.5003a0.82119 0.82119 0 1 0-1.639 0.10584l0.15502 2.4077-0.96649-0.55808a1.9159 1.9159 0 0 0-0.94938-1.8122 1.9159 1.9159 0 0 0-2.6172 0.70134 1.9159 1.9159 0 0 0 0.70134 2.6172 1.9159 1.9159 0 0 0 2.0442-0.0834l0.96649 0.55808-2.1628 1.0691a0.82119 0.82119 0 1 0 0.72807 1.4722l3.1443-1.5545 3.1272 1.8058-3.1218 1.8025-3.1443-1.5545a0.82119 0.82119 0 1 0-0.72808 1.4722l2.1639 1.0691-0.9729 0.56129a1.9159 1.9159 0 0 0-2.0442-0.0834 1.9159 1.9159 0 0 0-0.70134 2.6172 1.9159 1.9159 0 0 0 2.6172 0.70134 1.9159 1.9159 0 0 0 0.94938-1.8122l0.9729-0.56129-0.1561 2.4077a0.82119 0.82119 0 1 0 1.639 0.10584l0.22559-3.5003 3.1229-1.8036v3.6062l-2.9187 1.9458a0.82117 0.82117 0 1 0 0.91089 1.3663l2.0078-1.3385v1.1226a1.9159 1.9159 0 0 0-1.0948 1.7288 1.9159 1.9159 0 0 0 1.9159 1.9159 1.9159 1.9159 0 0 0 1.9159-1.9159 1.9159 1.9159 0 0 0-1.0948-1.7288v-1.1226l2.0078 1.3385a0.82117 0.82117 0 1 0 0.91089-1.3663l-2.9187-1.9458v-3.6062l3.1229 1.8036 0.22558 3.5003a0.82119 0.82119 0 1 0 1.639-0.10584l-0.15502-2.4077 0.97184 0.56129a1.9159 1.9159 0 0 0 0.95045 1.8122 1.9159 1.9159 0 0 0 2.6162-0.70134 1.9159 1.9159 0 0 0-0.70028-2.6172 1.9159 1.9159 0 0 0-2.0452 0.0834l-0.97184-0.56129 2.1628-1.0691a0.82119 0.82119 0 1 0-0.72807-1.4722l-3.1443 1.5545-3.1218-1.8025 3.1272-1.8058 3.1454 1.5545a0.82117 0.82117 0 1 0 0.72701-1.4722l-2.1628-1.0691 0.96649-0.55809a1.9159 1.9159 0 0 0 2.0452 0.0834 1.9159 1.9159 0 0 0 0.70028-2.6172 1.9159 1.9159 0 0 0-2.6162-0.70134 1.9159 1.9159 0 0 0-0.95045 1.8122l-0.96649 0.55808 0.15502-2.4077a0.82117 0.82117 0 1 0-1.6379-0.10584l-0.22666 3.5003-3.1283 1.8068v-3.6126l2.9187-1.9458a0.82117 0.82117 0 1 0-0.91089-1.3663l-2.0078 1.3385v-1.1162a1.9159 1.9159 0 0 0 1.0948-1.7288 1.9159 1.9159 0 0 0-1.9159-1.9159z" fill-opacity=".13419"/>
   <path id="path3724" d="m18.034 6.5068a1.9159 1.9159 0 0 0-1.9159 1.9159 1.9159 1.9159 0 0 0 1.0948 1.7288v1.1162l-2.0078-1.3385a0.82117 0.82117 0 1 0-0.91089 1.3663l2.9187 1.9458v3.6126l-3.1283-1.8068-0.22558-3.5003a0.82119 0.82119 0 1 0-1.639 0.10584l0.15502 2.4077-0.96649-0.55808a1.9159 1.9159 0 0 0-0.94938-1.8122 1.9159 1.9159 0 0 0-2.6172 0.70134 1.9159 1.9159 0 0 0 0.70134 2.6172 1.9159 1.9159 0 0 0 2.0442-0.0834l0.96649 0.55808-2.1628 1.0691a0.82119 0.82119 0 1 0 0.72807 1.4722l3.1443-1.5545 3.1272 1.8058-3.1218 1.8025-3.1443-1.5545a0.82119 0.82119 0 1 0-0.72808 1.4722l2.1639 1.0691-0.9729 0.56129a1.9159 1.9159 0 0 0-2.0442-0.0834 1.9159 1.9159 0 0 0-0.70134 2.6172 1.9159 1.9159 0 0 0 2.6172 0.70134 1.9159 1.9159 0 0 0 0.94938-1.8122l0.9729-0.56129-0.1561 2.4077a0.82119 0.82119 0 1 0 1.639 0.10584l0.22559-3.5003 3.1229-1.8036v3.6062l-2.9187 1.9458a0.82117 0.82117 0 1 0 0.91089 1.3663l2.0078-1.3385v1.1226a1.9159 1.9159 0 0 0-1.0948 1.7288 1.9159 1.9159 0 0 0 1.9159 1.9159 1.9159 1.9159 0 0 0 1.9159-1.9159 1.9159 1.9159 0 0 0-1.0948-1.7288v-1.1226l2.0078 1.3385a0.82117 0.82117 0 1 0 0.91089-1.3663l-2.9187-1.9458v-3.6062l3.1229 1.8036 0.22558 3.5003a0.82119 0.82119 0 1 0 1.639-0.10584l-0.15502-2.4077 0.97184 0.56129a1.9159 1.9159 0 0 0 0.95045 1.8122 1.9159 1.9159 0 0 0 2.6162-0.70134 1.9159 1.9159 0 0 0-0.70028-2.6172 1.9159 1.9159 0 0 0-2.0452 0.0834l-0.97184-0.56129 2.1628-1.0691a0.82119 0.82119 0 1 0-0.72807-1.4722l-3.1443 1.5545-3.1218-1.8025 3.1272-1.8058 3.1454 1.5545a0.82117 0.82117 0 1 0 0.72701-1.4722l-2.1628-1.0691 0.96649-0.55809a1.9159 1.9159 0 0 0 2.0452 0.0834 1.9159 1.9159 0 0 0 0.70028-2.6172 1.9159 1.9159 0 0 0-2.6162-0.70134 1.9159 1.9159 0 0 0-0.95045 1.8122l-0.96649 0.55808 0.15502-2.4077a0.82117 0.82117 0 1 0-1.6379-0.10584l-0.22666 3.5003-3.1283 1.8068v-3.6126l2.9187-1.9458a0.82117 0.82117 0 1 0-0.91089-1.3663l-2.0078 1.3385v-1.1162a1.9159 1.9159 0 0 0 1.0948-1.7288 1.9159 1.9159 0 0 0-1.9159-1.9159z" fill-opacity=".13419"/>
  </g>
  <path id="path8" d="m17.085 5.314a1.9159 1.9159 0 0 0-1.9159 1.9159 1.9159 1.9159 0 0 0 1.0948 1.7288v1.1162l-2.0078-1.3385a0.82117 0.82117 0 1 0-0.91089 1.3663l2.9187 1.9458v3.6126l-3.1283-1.8068-0.22558-3.5003a0.82119 0.82119 0 1 0-1.639 0.10584l0.15502 2.4077-0.96649-0.55808a1.9159 1.9159 0 0 0-0.94938-1.8122 1.9159 1.9159 0 0 0-2.6172 0.70134 1.9159 1.9159 0 0 0 0.70134 2.6172 1.9159 1.9159 0 0 0 2.0442-0.0834l0.96649 0.55808-2.1628 1.0691a0.82119 0.82119 0 1 0 0.72807 1.4722l3.1443-1.5545 3.1272 1.8058-3.1218 1.8025-3.1443-1.5545a0.82119 0.82119 0 1 0-0.72808 1.4722l2.1639 1.0691-0.9729 0.56129a1.9159 1.9159 0 0 0-2.0442-0.0834 1.9159 1.9159 0 0 0-0.70134 2.6172 1.9159 1.9159 0 0 0 2.6172 0.70134 1.9159 1.9159 0 0 0 0.94938-1.8122l0.9729-0.56129-0.1561 2.4077a0.82119 0.82119 0 1 0 1.639 0.10584l0.22559-3.5003 3.1229-1.8036v3.6062l-2.9187 1.9458a0.82117 0.82117 0 1 0 0.91089 1.3663l2.0078-1.3385v1.1226a1.9159 1.9159 0 0 0-1.0948 1.7288 1.9159 1.9159 0 0 0 1.9159 1.9159 1.9159 1.9159 0 0 0 1.9159-1.9159 1.9159 1.9159 0 0 0-1.0948-1.7288v-1.1226l2.0078 1.3385a0.82117 0.82117 0 1 0 0.91089-1.3663l-2.9187-1.9458v-3.6062l3.1229 1.8036 0.22558 3.5003a0.82119 0.82119 0 1 0 1.639-0.10584l-0.15502-2.4077 0.97184 0.56129a1.9159 1.9159 0 0 0 0.95045 1.8122 1.9159 1.9159 0 0 0 2.6162-0.70134 1.9159 1.9159 0 0 0-0.70028-2.6172 1.9159 1.9159 0 0 0-2.0452 0.0834l-0.97184-0.56129 2.1628-1.0691a0.82119 0.82119 0 1 0-0.72807-1.4722l-3.1443 1.5545-3.1218-1.8025 3.1272-1.8058 3.1454 1.5545a0.82117 0.82117 0 1 0 0.72701-1.4722l-2.1628-1.0691 0.96649-0.55809a1.9159 1.9159 0 0 0 2.0452 0.0834 1.9159 1.9159 0 0 0 0.70028-2.6172 1.9159 1.9159 0 0 0-2.6162-0.70134 1.9159 1.9159 0 0 0-0.95045 1.8122l-0.96649 0.55808 0.15502-2.4077a0.82117 0.82117 0 1 0-1.6379-0.10584l-0.22666 3.5003-3.1283 1.8068v-3.6126l2.9187-1.9458a0.82117 0.82117 0 1 0-0.91089-1.3663l-2.0078 1.3385v-1.1162a1.9159 1.9159 0 0 0 1.0948-1.7288 1.9159 1.9159 0 0 0-1.9159-1.9159z" fill="url(#linearGradient1043)" fill-rule="evenodd" stroke-width=".54739"/>
 </g>
</svg>
