<?xml version="1.0" encoding="UTF-8"?>
<svg id="svg1443" width="128" height="128" version="1.1" viewBox="0 0 33.867 33.867" xmlns="http://www.w3.org/2000/svg" xmlns:cc="http://creativecommons.org/ns#" xmlns:dc="http://purl.org/dc/elements/1.1/" xmlns:rdf="http://www.w3.org/1999/02/22-rdf-syntax-ns#" xmlns:xlink="http://www.w3.org/1999/xlink">
 <defs id="defs1437">
  <linearGradient id="linearGradient1632" x1="132.21" x2="132.21" y1="42.152" y2="70.68" gradientTransform="matrix(.97573 0 0 .97573 -111.77 -37.183)" gradientUnits="userSpaceOnUse">
   <stop id="stop1626" stop-color="#fafafc" offset="0"/>
   <stop id="stop1628" stop-color="#e2e6ea" offset="1"/>
  </linearGradient>
 </defs>
 <metadata id="metadata1440">
  <rdf:RDF>
   <cc:Work rdf:about="">
    <dc:format>image/svg+xml</dc:format>
    <dc:type rdf:resource="http://purl.org/dc/dcmitype/StillImage"/>
    <dc:title/>
   </cc:Work>
  </rdf:RDF>
 </metadata>
 <g id="layer1">
  <g id="g1702" transform="matrix(.97573 0 0 .97573 -65.737 -37.183)" fill="none" opacity=".295" stroke="#000" stroke-linecap="round" stroke-linejoin="round" stroke-opacity=".02">
   <rect id="rect1634" x="69.84" y="40.71" width="29.811" height="29.811" rx="6.6099" ry="6.6099" stroke-width=".1"/>
   <rect id="rect1638" x="69.84" y="40.71" width="29.811" height="29.811" rx="6.6099" ry="6.6099" stroke-width=".2"/>
   <rect id="rect1640" x="69.84" y="40.71" width="29.811" height="29.811" rx="6.6099" ry="6.6099" stroke-width=".3"/>
   <rect id="rect1642" x="69.84" y="40.71" width="29.811" height="29.811" rx="6.6099" ry="6.6099" stroke-width=".4"/>
   <rect id="rect1644" x="69.84" y="40.71" width="29.811" height="29.811" rx="6.6099" ry="6.6099" stroke-width=".5"/>
   <rect id="rect1646" x="69.84" y="40.71" width="29.811" height="29.811" rx="6.6099" ry="6.6099" stroke-width=".6"/>
   <rect id="rect1648" x="69.84" y="40.71" width="29.811" height="29.811" rx="6.6099" ry="6.6099" stroke-width=".7"/>
   <rect id="rect1650" x="69.84" y="40.71" width="29.811" height="29.811" rx="6.6099" ry="6.6099" stroke-width=".8"/>
   <rect id="rect1652" x="69.84" y="40.71" width="29.811" height="29.811" rx="6.6099" ry="6.6099"/>
   <rect id="rect1654" x="69.84" y="40.71" width="29.811" height="29.811" rx="6.6099" ry="6.6099" stroke-width="1.2"/>
   <rect id="rect1656" x="69.84" y="40.71" width="29.811" height="29.811" rx="6.6099" ry="6.6099" stroke-width="1.4"/>
   <rect id="rect1658" x="69.84" y="40.71" width="29.811" height="29.811" rx="6.6099" ry="6.6099" stroke-width="1.6"/>
   <rect id="rect1660" x="69.84" y="40.71" width="29.811" height="29.811" rx="6.6099" ry="6.6099" stroke-width="1.8"/>
   <rect id="rect1662" x="69.84" y="40.71" width="29.811" height="29.811" rx="6.6099" ry="6.6099" stroke-width="2"/>
   <rect id="rect1664" x="69.84" y="40.71" width="29.811" height="29.811" rx="6.6099" ry="6.6099" stroke-width="2.2"/>
   <rect id="rect1666" x="69.84" y="40.71" width="29.811" height="29.811" rx="6.6099" ry="6.6099" stroke-width="2.6"/>
   <rect id="rect1668" x="69.84" y="40.71" width="29.811" height="29.811" rx="6.6099" ry="6.6099" stroke-width="3"/>
   <rect id="rect1670" x="69.84" y="40.71" width="29.811" height="29.811" rx="6.6099" ry="6.6099" stroke-width="3.4"/>
   <rect id="rect1672" x="69.84" y="40.71" width="29.811" height="29.811" rx="6.6099" ry="6.6099" stroke-width="3.8"/>
   <rect id="rect1674" x="69.84" y="40.71" width="29.811" height="29.811" rx="6.6099" ry="6.6099" stroke-width="4.2"/>
   <rect id="rect1676" x="69.84" y="40.71" width="29.811" height="29.811" rx="6.6099" ry="6.6099" stroke-width="4.6"/>
   <rect id="rect1678" x="69.84" y="40.71" width="29.811" height="29.811" rx="6.6099" ry="6.6099" stroke-width="5"/>
  </g>
  <rect id="rect849" x="2.4074" y="2.5392" width="29.087" height="29.087" rx="6.4495" ry="6.4495" fill="url(#linearGradient1632)" stroke-linecap="round" stroke-linejoin="round" stroke-width="2.6877"/>
  <circle id="circle6" cx="16.483" cy="18.261" r="10.477" opacity=".2" stroke-width=".52383"/>
  <circle id="circle8" cx="25.911" cy="8.8318" r="1.5715" opacity=".2" stroke-width=".52383"/>
  <circle id="circle10" cx="25.911" cy="8.308" r="1.5715" fill="#f44336" stroke-width=".52383"/>
  <path id="path12" d="m22.113 8.9157c-0.57257 0.10667-1.1444 0.2302-1.4395 0.2302-2.4188 0-5.2338 1.0181-6.9018 3.0611-1.4243 1.7444-1.8804 4.3568-1.9838 6.3964 0.10278-1.0121 1.4556-1.2136 2.1485-1.7822 0.75385-0.61864 1.4159-2.8555 2.5465-2.8555 0.1418-2.5e-5 0.28351 0.0071 0.42459 0.02148 0.0042 2.12e-4 0.0081 7.33e-4 0.01227 1e-3 4.4245 0.22854 7.6825 3.4579 7.6825 7.9392 0 0.89809-0.14562 1.761-0.40719 2.5721 0.07347 0.03267 0.14318 0.05787 0.2128 0.08185a10.477 10.477 0 0 0 0.0042-0.0051c0.14779-0.17114 0.28273-0.35061 0.41845-0.52997a10.477 10.477 0 0 0 0.19541-0.2568c0.11473-0.16173 0.21929-0.32979 0.32432-0.49723a10.477 10.477 0 0 0 0.21178-0.34581c0.09176-0.15967 0.1768-0.32299 0.25987-0.487a10.477 10.477 0 0 0 0.1903-0.3939c0.07537-0.16561 0.14619-0.33312 0.2128-0.50234a10.477 10.477 0 0 0 0.15552-0.42356c0.05631-0.16335 0.11142-0.32711 0.15961-0.49314a10.477 10.477 0 0 0 0.12584-0.4962c0.03552-0.14936 0.07335-0.29814 0.10232-0.44914a10.477 10.477 0 0 0 0.08901-0.58828c0.01742-0.13118 0.04065-0.26083 0.0532-0.39287a10.477 10.477 0 0 0 0.04906-0.98312c-8.89e-4 -0.22016-0.0087-0.44024-0.02352-0.6599-6.5e-5 -9.44e-4 7e-5 -2e-3 0-3e-3 -0.0042-0.06225-0.01129-0.12413-0.01643-0.1862-0.02299-0.29122-0.05815-0.58135-0.10539-0.86964-0.01089-0.06484-0.02451-0.12889-0.03684-0.19337a10.477 10.477 0 0 0-2e-3 -0.01128c-0.0447-0.23707-0.09761-0.47252-0.15858-0.70594-1.9e-4 -7.32e-4 -7.86e-4 -0.0013-1e-3 -2e-3 -0.03138-0.12006-0.0647-0.23938-0.10026-0.35808-0.05906-0.1966-0.12388-0.39141-0.1944-0.58419-0.05474-0.15001-0.11243-0.29881-0.17393-0.44607-0.07028-0.16904-0.145-0.3362-0.22406-0.50132-0.0586-0.12194-0.11689-0.24454-0.18006-0.36423a10.477 10.477 0 0 0-3e-3 -0.0071l-1e-3 -1e-3c-0.09729-0.18236-0.20002-0.36184-0.30795-0.53815-0.0019-0.0032-0.0044-0.0061-0.0061-0.0093-0.08432-0.13823-0.17112-0.27487-0.26191-0.40924l-2e-3 -3e-3a10.477 10.477 0 0 0-2e-3 -0.0042c-0.10607-0.15647-0.21718-0.31062-0.33166-0.46146-0.10614-0.13985-0.21606-0.27657-0.32944-0.41129a10.477 10.477 0 0 0-0.0042-0.0052c-0.0375-0.04328-0.07535-0.08624-0.11356-0.12891-0.2113-0.24256-0.43248-0.4771-0.66706-0.70082-3e-3 -0.0028-0.0061-0.0053-0.0093-0.0081a10.477 10.477 0 0 0-0.0511-0.04801c-0.1257-0.11794-0.25355-0.23446-0.38567-0.34674 0.0026-0.00257 0.0036-0.00455 0.0061-0.00713a10.477 10.477 0 0 0-1.1602-0.8461zm1.9684 15.723c-0.05086 0.05718-0.10238 0.11378-0.15448 0.16983 0.05211-0.05605 0.1036-0.11265 0.15448-0.16983zm-0.59442 0.61488c-0.0647 0.06189-0.13017 0.12293-0.19644 0.18313-0.0038 0.0079-0.0065 0.01663-0.01029 0.02455 0.06985-0.06826 0.13875-0.1375 0.20667-0.20769z" fill="#ffc42e" stroke-width=".52383"/>
  <path id="path14" d="m16.911 13.568c2.1131 0.2146 3.0806 2.0515 3.0806 4.2213 2.5e-5 0.1418-0.0071 0.28351-0.02148 0.42459-2.12e-4 0.0042-7.33e-4 0.0081-1e-3 0.01228-0.22854 4.4245-3.1959 7.6825-7.6773 7.6825-0.89809 0-2.203-0.6807-3.0141-0.94228 0.026569 0.02265-0.010849 0.1337-0.07571 0.28851a10.477 10.477 0 0 0 7.2804 2.9588c0.22016-8.91e-4 0.44024-0.0087 0.6599-0.02352 9.44e-4 -6.5e-5 2e-3 6.8e-5 3e-3 0 0.06225-0.0042 0.12414-0.01128 0.1862-0.01643 0.29122-0.02299 0.58135-0.05815 0.86964-0.10539 0.06484-0.01089 0.12889-0.02451 0.19337-0.03684a10.477 10.477 0 0 0 0.01128-2e-3c0.23707-0.0447 0.47252-0.09761 0.70594-0.15858 7.34e-4 -1.88e-4 0.0013-7.84e-4 2e-3 -1e-3 0.12006-0.03138 0.23938-0.0647 0.35809-0.10026 0.1966-0.05906 0.39141-0.12388 0.58419-0.19438 0.15001-0.05474 0.29881-0.11243 0.44607-0.17393 0.16904-0.07028 0.3362-0.145 0.50132-0.22406 0.12192-0.0586 0.24454-0.11689 0.36422-0.18006a10.477 10.477 0 0 0 0.0071-3e-3l1e-3 -1e-3c0.18238-0.09733 0.36185-0.20002 0.53815-0.30796 0.0032-0.0019 0.0061-0.0044 0.0093-0.0061 0.13823-0.08432 0.27488-0.17112 0.40924-0.26192l3e-3 -2e-3a10.477 10.477 0 0 0 0.0042-2e-3c0.15643-0.10588 0.31058-0.21701 0.46142-0.33148 0.13985-0.10614 0.27658-0.21606 0.41129-0.32944a10.477 10.477 0 0 0 0.0051-0.0042c0.04328-0.0375 0.08626-0.07535 0.12891-0.11356 0.24256-0.2113 0.4771-0.43248 0.70082-0.66706 0.0028-3e-3 0.0053-0.0061 0.0081-0.0093a10.477 10.477 0 0 0 0.04809-0.05116c0.11804-0.12574 0.23456-0.25359 0.34683-0.38571 0.26577-0.81719 0.41324-1.6877 0.41324-2.5936 0-4.4842-3.5242-8.1353-7.9526-8.3598zm-8.1531 11.019c0.068262 0.06985 0.1375 0.13874 0.20769 0.20667-0.061879-0.0647-0.12293-0.13017-0.18313-0.19644-0.00802-0.0038-0.016551-0.0065-0.024552-0.01029z" fill="#ff8514" stroke-width=".52383"/>
  <path id="path16" d="m9.6329 10.012c-0.069856 0.06826-0.13875 0.1375-0.20667 0.20769 0.064693-0.06187 0.13018-0.12293 0.19644-0.18313 0.00372-0.0079 0.00651-0.01663 0.010236-0.02455zm-0.6466 0.65274c-0.052115 0.05605-0.10361 0.11265-0.15449 0.16983 0.050869-0.05718 0.10237-0.1138 0.15449-0.16983zm-0.33967 0.13198a10.477 10.477 0 0 0-2.6406 6.9397 10.477 10.477 0 0 0 0.02353 0.6599c0.00414 0.06328 0.011146 0.12619 0.016373 0.18927a10.477 10.477 0 0 0 0.10538 0.86964c0.011523 0.0686 0.026009 0.13635 0.038874 0.20462a10.477 10.477 0 0 0 0.15858 0.70594c0.031535 0.12079 0.065508 0.24071 0.10129 0.36013a10.477 10.477 0 0 0 0.19439 0.58419c0.05474 0.15001 0.11243 0.29881 0.17393 0.44607a10.477 10.477 0 0 0 0.22406 0.50132c0.059717 0.12425 0.11854 0.24954 0.18314 0.37138 2.138e-4 4.04e-4 7.858e-4 6.3e-4 0.00105 1e-3a10.477 10.477 0 0 0 0.30795 0.53815c0.086104 0.14146 0.17519 0.28102 0.26805 0.41845 0.1073 0.15878 0.21943 0.31555 0.33558 0.46858 0.10746 0.1416 0.21865 0.28007 0.33353 0.4164a10.477 10.477 0 0 0 0.11356 0.12891c0.21129 0.24256 0.43248 0.4771 0.66706 0.70082a10.477 10.477 0 0 0 0.060361 0.05627c0.12574 0.11804 0.25359 0.23456 0.38571 0.34683 0.8172 0.26586 1.6876 0.4133 2.5935 0.4133 4.4842 0 8.1353-3.5242 8.3598-7.9526-0.2146 2.1131-1.9994 3.6044-4.1691 3.6044-0.14179 2.8e-5 -0.28351-0.0071-0.42459-0.02148-0.0042-2.12e-4 -0.0081-7.34e-4 -0.01227-1e-3 -4.4245-0.22857-7.7346-3.7198-7.7346-8.2012 0-0.89809 0.14562-1.761 0.40719-2.5721-0.023783-0.06557-0.047787-0.11527-0.071622-0.177z" fill="#ff5757" stroke-width=".52383"/>
  <path id="path18" d="m16.054 21.906c-0.55764-0.05662 2.413-0.70838 1.9633-0.96193-1.2545-0.70724-5.5157-1.61-5.5157-3.2072-2.6e-5 -0.1418-0.20239-0.28351-0.18804-0.42459 2.12e-4 -0.0042 7.34e-4 -0.0081 1e-3 -0.01228 0.22859-4.4245 3.8773-7.9444 8.3587-7.9444 0.89809 0 1.761 0.14562 2.5721 0.40719-1.887-1.6081-4.2833-2.4948-6.7626-2.5025-3.0685 0.00455-5.9808 1.3541-7.9679 3.6924-0.26589 0.81721-0.41333 1.6877-0.41333 2.5936 0 4.4842 3.5242 8.1353 7.9526 8.3597zm8.1531-11.229c-0.06827-0.06985-0.1375-0.13875-0.20769-0.20666 0.06187 0.0647 0.12293 0.13017 0.18313 0.19644 0.0079 0.0038 0.01663 0.0065 0.02455 0.01029zm-0.65274-0.6466c-0.05605-0.052109-0.11265-0.10362-0.16983-0.15449 0.05718 0.050861 0.1138 0.10238 0.16983 0.15449z" fill="#baff41" stroke-width=".52383"/>
  <circle id="circle20" cx="16.483" cy="17.737" r="4.7144" fill="#fff" stroke-width=".52383"/>
  <path id="path22" d="m16.483 7.2603a10.477 10.477 0 0 0-10.477 10.477 10.477 10.477 0 0 0 0.011245 0.30488 10.477 10.477 0 0 1 10.465-10.258 10.477 10.477 0 0 1 10.465 10.172 10.477 10.477 0 0 0 0.011285-0.21894 10.477 10.477 0 0 0-10.477-10.477z" fill="#fff" opacity=".2" stroke-width=".52383"/>
  <path id="path26" d="m25.911 6.7365a1.5715 1.5715 0 0 0-1.5715 1.5715 1.5715 1.5715 0 0 0 0.02251 0.26908 1.5715 1.5715 0 0 1 1.549-1.3167 1.5715 1.5715 0 0 1 1.549 1.3024 1.5715 1.5715 0 0 0 0.02251-0.25475 1.5715 1.5715 0 0 0-1.5715-1.5715z" fill="#fff" opacity=".2" stroke-width=".52383"/>
 </g>
</svg>
