<?xml version="1.0" encoding="UTF-8"?>
<svg id="svg2117" width="128" height="128" version="1.1" viewBox="0 0 33.867 33.867" xmlns="http://www.w3.org/2000/svg" xmlns:cc="http://creativecommons.org/ns#" xmlns:dc="http://purl.org/dc/elements/1.1/" xmlns:rdf="http://www.w3.org/1999/02/22-rdf-syntax-ns#" xmlns:xlink="http://www.w3.org/1999/xlink">
 <defs id="defs2111">
  <linearGradient id="linearGradient912" x1="132.21" x2="132.21" y1="42.152" y2="70.68" gradientTransform="matrix(.97573 0 0 .97573 -111.89 -37.234)" gradientUnits="userSpaceOnUse">
   <stop id="stop1626" stop-color="#f8fcfc" offset="0"/>
   <stop id="stop1628" stop-color="#e3e5e8" offset="1"/>
  </linearGradient>
 </defs>
 <metadata id="metadata2114">
  <rdf:RDF>
   <cc:Work rdf:about="">
    <dc:format>image/svg+xml</dc:format>
    <dc:type rdf:resource="http://purl.org/dc/dcmitype/StillImage"/>
   </cc:Work>
  </rdf:RDF>
 </metadata>
 <g id="layer1">
  <g id="g1702" transform="matrix(.97573 0 0 .97573 -65.83 -36.915)" fill="none" opacity=".13962" stroke="#000" stroke-linecap="round" stroke-linejoin="round" stroke-opacity=".02">
   <rect id="rect1634" x="69.84" y="40.71" width="29.811" height="29.811" rx="6.6099" ry="6.6099" stroke-width=".1"/>
   <rect id="rect1638" x="69.84" y="40.71" width="29.811" height="29.811" rx="6.6099" ry="6.6099" stroke-width=".2"/>
   <rect id="rect1640" x="69.84" y="40.71" width="29.811" height="29.811" rx="6.6099" ry="6.6099" stroke-width=".3"/>
   <rect id="rect1642" x="69.84" y="40.71" width="29.811" height="29.811" rx="6.6099" ry="6.6099" stroke-width=".4"/>
   <rect id="rect1644" x="69.84" y="40.71" width="29.811" height="29.811" rx="6.6099" ry="6.6099" stroke-width=".5"/>
   <rect id="rect1646" x="69.84" y="40.71" width="29.811" height="29.811" rx="6.6099" ry="6.6099" stroke-width=".6"/>
   <rect id="rect1648" x="69.84" y="40.71" width="29.811" height="29.811" rx="6.6099" ry="6.6099" stroke-width=".7"/>
   <rect id="rect1650" x="69.84" y="40.71" width="29.811" height="29.811" rx="6.6099" ry="6.6099" stroke-width=".8"/>
   <rect id="rect1652" x="69.84" y="40.71" width="29.811" height="29.811" rx="6.6099" ry="6.6099"/>
   <rect id="rect1654" x="69.84" y="40.71" width="29.811" height="29.811" rx="6.6099" ry="6.6099" stroke-width="1.2"/>
   <rect id="rect1656" x="69.84" y="40.71" width="29.811" height="29.811" rx="6.6099" ry="6.6099" stroke-width="1.4"/>
   <rect id="rect1658" x="69.84" y="40.71" width="29.811" height="29.811" rx="6.6099" ry="6.6099" stroke-width="1.6"/>
   <rect id="rect1660" x="69.84" y="40.71" width="29.811" height="29.811" rx="6.6099" ry="6.6099" stroke-width="1.8"/>
   <rect id="rect1662" x="69.84" y="40.71" width="29.811" height="29.811" rx="6.6099" ry="6.6099" stroke-width="2"/>
   <rect id="rect1664" x="69.84" y="40.71" width="29.811" height="29.811" rx="6.6099" ry="6.6099" stroke-width="2.2"/>
   <rect id="rect1666" x="69.84" y="40.71" width="29.811" height="29.811" rx="6.6099" ry="6.6099" stroke-width="2.6"/>
   <rect id="rect1668" x="69.84" y="40.71" width="29.811" height="29.811" rx="6.6099" ry="6.6099" stroke-width="3"/>
   <rect id="rect1670" x="69.84" y="40.71" width="29.811" height="29.811" rx="6.6099" ry="6.6099" stroke-width="3.4"/>
   <rect id="rect1672" x="69.84" y="40.71" width="29.811" height="29.811" rx="6.6099" ry="6.6099" stroke-width="3.8"/>
   <rect id="rect1674" x="69.84" y="40.71" width="29.811" height="29.811" rx="6.6099" ry="6.6099" stroke-width="4.2"/>
   <rect id="rect1676" x="69.84" y="40.71" width="29.811" height="29.811" rx="6.6099" ry="6.6099" stroke-width="4.6"/>
   <rect id="rect1678" x="69.84" y="40.71" width="29.811" height="29.811" rx="6.6099" ry="6.6099" stroke-width="5"/>
  </g>
  <rect id="rect910" x="2.2835" y="2.4875" width="29.087" height="29.087" rx="6.4495" ry="6.4495" fill="url(#linearGradient912)" stroke-linecap="round" stroke-linejoin="round" stroke-width="2.6877"/>
  <g id="g967" transform="matrix(1.1057 0 0 1.1057 -1.6385 -.91951)" stroke-width=".46031">
   <path id="path6" d="m15.828 26.407c-0.25111-0.30649-0.64574-0.6183-0.55913-1.0593 0.03466-1.3371-0.0019-2.7868-0.88463-3.878-0.75458-0.84662-1.5031-1.7174-1.9732-2.7646-0.61898-1.245-0.90422-2.621-1.3147-3.9369-0.1857-0.82847-1.5968-1.3076-1.2448-2.1352 0.45646-0.2923 1.3347 0.02891 0.70764-0.73359-0.01982-0.6522 2.0463-0.93883 0.83064-1.6605-0.70232-0.5341 0.56977-0.67478 1.0034-0.60765 0.45066-0.31365 0.04915-0.8338 0.07404-1.1049 0.2911-0.18727 0.99005-0.033369 0.45984-0.53979 0.39791-0.18203 0.71917-0.23687 0.68872-0.69632 0.53422-0.13748-0.1428-0.61061 0.44461-0.81633 0.42003-0.78349 1.2144 0.32539 1.3875 0.67481 0.28689 0.18736 0.47351 0.68705 0.88025 0.64079-0.105 0.33253-0.0174 1.0558 0.42009 0.6604 0.67535-0.46535 0.20629 0.76919 0.52758 0.97586 0.51894 0.70812 1.1495 0.35566 1.7123-0.042294 0.94994-0.00174 0.886 1.3733 1.6418 1.7339 0.65064 0.50486 1.4576 0.16592 2.1641 0.24818 0.56746 0.53059 0.57453 1.4107 0.73341 2.1334 0.2892 2.2826-0.28509 4.5618-0.85176 6.7569-0.23746 0.80096-0.61409 1.8432-1.5985 1.8967-0.84892-0.01778-1.416 1.3887-0.25273 1.3686 0.60172 0.64216-0.75078 1.3892-1.2622 1.7087-0.69074 0.47978-1.594 0.24352-1.9408-0.53022-0.75069-0.38955-0.49015 1.4164-1.2736 1.593-0.15303 0.07744-0.34792 0.24064-0.51976 0.11437zm0.17933-0.23065c-0.10687-0.17627-0.19725 0.17931 0 0zm0.47525-0.16232c0.55491-0.95363 0.69649-2.0874 1.0543-3.1234 0.09186-0.40584 0.47352-1.4552 0.40448-1.5504-0.61187 1.2755-0.97906 2.6575-1.3705 4.0098 0.16242-1.3088 0.66526-2.5602 1.1186-3.7946 0.45389-1.2273 0.80624-2.5038 1.0174-3.7932 0.01444-2.2863-0.03551-4.5736-0.0077-6.8589 0.25713-1.0596 0.1044 0.35202 0.08739 0.70644-0.03379 1.7334 0.22268 3.4633 0.07121 5.1971-0.02425 0.89791-0.20757 1.8862-0.33383 2.7122 0.71111-1.9775 0.48781-4.1276 0.42209-6.1868-0.06214-0.98611-0.144-2.0053 0.11319-2.9687 0.37563-0.44341 0.15813 0.35601 0.17873 0.25607 0.07883 0.06508-0.33786 0.38104 0.16148 0.20321-0.16744 0.13767-0.42609 0.43169-1.17e-4 0.25297-0.7142 0.45804 0.16679 0.19832 0.15856 0.24664-0.37828 0.0064-0.67884 0.3815-0.42623 0.65191 0.36129-0.19784 1.3242-0.35154 0.44307-0.07396-0.42498 0.04365-0.72411 0.60188-0.10489 0.28726 0.34603-0.17648 1.4245-0.31973 0.47753-0.0813-0.33627 0.0021-1.4009 0.6958-0.47555 0.34554 0.42117-0.2069 1.6088-0.26303 0.54946-0.06956-0.40433 0.02589-1.3954 0.64041-0.44803 0.37604 0.42588-0.16867 0.98144-0.15272 0.22947 0.02775-0.39022-0.0087-1.0315 0.63681-0.28244 0.35346 0.41304-0.14203 1.8587-0.32466 0.74018-0.08132-0.30251-0.0261-1.7263 0.53198-0.7586 0.37474 0.39191-0.10247 1.6257-0.19922 1.4469-0.10282-0.53166 0.10639-1.4741-0.0023-1.712 0.43149 0.35992 8e-3 1.6181-0.25671 1.4912-0.11465-0.40058 0.12331-1.7165 0.07469-1.4138 0.56491 0.57081-0.21276 1.1953-0.11248 1.7928-0.14939-0.63138 0.08493-1.3236 0.02089-1.8871 0.34805 0.18457 0.2949 1.496-0.29953 1.557-0.0905-0.44861 0.13565-1.4577 0.1392-1.5292 0.59084 0.44804-0.08332 1.3205-0.30473 1.5343-0.13652-0.48308 0.13166-1.3103 0.01705-1.5432 0.43119 0.54603-0.02418 1.4335-0.1202 1.7672-0.02465-0.50392 0.14038-1.4847-0.12311-1.6744 0.36466 0.59961-0.09694 1.6592-0.16143 1.9645-0.03711-0.61936 0.06425-1.5902-0.0818-1.9653 0.31182 0.54237 0.06976 1.092 0.04116 1.6379 0.05423-0.56174 0.03726-1.1237 0.07206-1.6844 0.12344-0.0066 0.7071 1.2243 0.03069 1.7218 0.27558 1.1201 0.20153-0.45434 0.05913-0.79429 0.08302-0.38556-0.23216-1.4375 0.43743-0.55257 0.32172 0.33278-0.08527 1.8365 0.0026 0.75825 0.06616-0.31434-0.07318-1.8038 0.17734-0.8613 0.32715 0.44073 0.04509 1.781 0.0031 1.7477 0.22987-0.627-0.06456-1.6828-0.38799-2.0709 0.09212 0.32769 0.10684 1.6052 0.03573 1.3299 0.1364-0.39353 0.09099-1.3867-0.18856-1.3871 0.2817 0.23302-0.05628 1.7574-0.04099 1.0373 0.01966-0.47073-0.04466-1.4704 0.26858-0.46968 0.25891 0.33023-0.0202 1.7827 0.09089 0.72002 0.1028-0.33443 0.06656-1.398-0.14172-1.336 0.23482 0.30976-5e-3 1.4691 0.0687 1.3106 0.21567-0.34375-0.01044-1.5399-0.22058-1.3659 0.18412 0.35644 0.02098 1.4642 0.06124 1.3313 0.24144-0.32814-0.08908-1.6436-0.21536-1.3819 0.08789 0.54228 0.04518 1.2885 0.05026 1.6703 0.33949-0.50986-0.1583-1.8429-0.44386-1.8494 0.08859 0.28282-0.05416 1.5463 0.15291 1.2302 0.1992-0.41763 0.01531-1.167-0.2211-1.3709 0.1312 0.4915 0.10882 1.8186 0.11858 1.8147 0.50732-0.45466-0.29804-1.7268-0.5188-1.8411-0.15894 0.34373 0.0097 1.6881 0.3763 1.4045 0.40676-0.38785-0.0556-1.593-0.5338-1.4839-0.09651 0.45695 0.04703 1.1803 0.17229 1.4331 0.35282-0.34845-0.03928-1.6262-0.44425-1.4837-0.13428 0.43327 0.16764 1.2168 0.2435 1.4347 0.54209-0.42349-0.11281-1.4576-0.61052-1.5712-0.26028 0.4379 0.1044 1.2448 0.25122 1.4104 0.5457-0.37389-0.1273-1.4544-0.61819-1.4786-0.26552 0.27801 0.01687 1.3287 0.42808 1.0574 0.47836-0.30499-0.12662-1.2034-0.56503-1.2202-0.13836 0.3298-0.05828 1.5052 0.66398 0.60832 0.29112-0.30792-0.33572-1.1953-0.02992-0.44815 0.17951 0.32747 0.05487 0.92286 0.49424 0.2524 0.20156-0.38521-0.2384-1.0078-0.10224-0.26363 0.15628 0.90564 0.49727-0.30852-0.12912-0.47626 0.13443 0.30964 0.13662 1.1266 0.80981 0.33225 0.32344-0.48717-0.3914-0.58995 0.25315-0.01548 0.27692 0.91972 0.72964-1.0151-0.53303-0.32861 0.17776 0.57735 0.4623 0.1245 0.12618-0.27424 0.06985 0.192 0.33299 0.41791 0.43364-0.10393 0.29394-0.22337 0.64203 0.67784 1.1377 1.1137 1.4694 0.43504 0.06667 1.3446-0.23643 0.55471-0.56794-0.55376-0.52818 1.1763 0.73176 0.59169-0.0659-0.35258-0.20464-0.79032-0.57644-0.1134-0.1995 0.63317 0.38179 0.3903 0.01392 0.0035-0.26425 0.45951 0.48258 1.3035 0.15141 1.0555-0.51135-1.1478-0.06234-0.75108-1.5502 0.15242-1.6564 1.0236-0.0285 1.4772-1.015 1.682-1.8792 0.28168-1.2134 0.65041-2.4144 0.80812-3.6515 0.06101-1.5893 0.26221-3.2915-0.48364-4.7612-0.59074-0.44502-1.5515 0.15621-2.2205-0.33261-0.91204-0.219-0.73472-1.9058-1.7164-1.7207-0.6573 0.62641-1.5294 0.53512-2.276 0.2717-0.65256 0.69545-1.3288 1.2941-2.201 1.7022-0.53356 0.56813-1.2704 1.0385-1.3492 1.8874-0.35636 0.8435-0.40689 1.7902-0.0345 2.6383 0.66058 2.0823 1.8553 3.9352 2.5747 5.9942 0.07493 0.01583-0.05647-0.94872-0.05343-1.2617-0.01061-0.60724-0.27919-1.672-0.18593-2.0312 0.3033 1.3527 0.32442 2.7506 0.44954 4.1256 0.1468-0.7829-0.05395-1.6972 0.13793-2.4261 0.1881 0.75298 0.01722 1.5224 0.04022 2.2901 0.06644-0.40471 0.34239-1.7527 0.22682-0.61775-0.09035 0.61147-0.02851 1.5959-0.18138 2.0078 8e-3 -0.34274-0.26687-0.95433-0.22444-0.25275-0.08601 0.74446-0.32125 1.7112 0.53691 2.1041l0.13468-0.07638zm2.0379-0.95787c-0.02841-0.26424 0.26645 0.18945 0 0zm0.21292-0.15734c-0.45575-0.56838 0.54852 0.30618 0.09273 0.09503l-0.09271-0.09503zm-2.2608-0.36369c-0.27578-0.53056-0.0198-1.4351 0.06576-2.177 0.30296-1.6992 0.39812-3.4347 0.76452-5.1204 0.03793 0.66565-0.20842 1.6003-0.26966 2.3658-0.1298 1.2293-0.38807 2.451-0.50568 3.6758 0.2521-0.70944 0.36312-1.5358 0.568-2.2886 0.58646-2.3012 0.6759-4.686 0.63108-7.0496-0.01374-0.35152 0.01514-1.7936 0.0818-0.74143 0.09803 2.8657 0.0078 5.778-0.78901 8.5507-0.16042 0.60306-0.33676 1.5051-0.44222 1.9543-0.22128-0.64417-0.04156 0.90693 0.10816-0.01479 0.59012-1.553 1.1436-3.1211 1.4903-4.7492 0.41488-1.6347 0.19486-3.3413 0.26153-5.0086 0.01583-1.0443-0.01322-2.0916 0.06039-3.1336 0.14748-0.28643 0.02838 1.0069 0.0686 1.3357-0.02888 1.9347 0.06592 3.8778-0.07862 5.8074-0.37675 1.874-0.89072 3.7169-1.5848 5.4984-0.15011 0.25636-0.40481 1.4682-0.42822 1.235-6.44e-4 -0.04657-0.0013-0.09318-0.0019-0.13976zm3.5976-0.26972c-0.45785-0.46249 0.65395 0.40574 0 0zm-2.5188-0.19765c-0.02961-0.26462 0.26804 0.1899 0 0zm2.582-0.05626c-0.03152-0.29128 0.22863 0.14943 0 0zm-2.9255-2.4011c0.14348-0.51686 0.10706 0.26821 0 0zm3.9988-0.06089c-0.13327-0.32074 0.37311 0.13803 0 0zm-4.9082-0.47987c0.30687-2.0284 0.72059-4.0542 0.68395-6.1174 0.09386-0.84437 0.0987 0.96167 0.05846 1.3636-0.10795 1.6811-0.39791 3.3458-0.70136 5.0003-0.0935 0.29122-0.03721-0.2264-0.04102-0.2465zm1.0501 0.20148c0.26246-1.1378 0.57345-2.2703 0.78718-3.4153 0.05207 0.76574-0.2778 1.5889-0.43566 2.3612-0.10512 0.32036-0.18869 0.85863-0.35152 1.0541zm3.9861-0.01392c-0.06573-0.20129 0.48766 0.22494 0 0zm0.07194-0.22036c-0.31222-0.20832 0.67483 0.20564 0-2.4e-5zm0.35326-0.09595c-0.27181-0.38992 0.40411 0.28658 0 0zm-6.4664-0.23298c-0.08394-0.53208-0.41681-1.7674-0.31983-1.9193 0.12008 0.54316 0.44735 1.7047 0.31983 1.9193zm0.52642-0.3786c-0.09435-0.22931-0.08589-1.183-0.07187-1.1245-0.0618 0.49842 0.41541 0.94436 0.13353 1.2293-0.02055-0.03495-0.04111-0.0699-0.06166-0.10486zm5.8378 0.0234c-0.03401-0.17453 0.55015 0.21295 0 0zm0.37462-0.12963c-0.18881-0.23738 0.40768 0.21543 0 0zm0.10112-0.47444c-0.5554-0.36826 0.62193 0.23714 0 0zm-6.0455-0.59428c-0.04588-1.1013-0.06782-2.2268 0.04965-3.315 0.07211 1.214 0.06253 2.4394-0.01531 3.6546-0.01148-0.11317-0.0229-0.22642-0.03443-0.33954zm-0.47562-0.88523c-0.09073-0.50884 0.01879-0.64823 0.05746-0.06632 0.01842 0.53254-0.02157 0.64415-0.05708 0.07025zm-0.38947 0.06446c0.12578-0.44411 0.07453 0.42788 0 0zm-0.43239 0.01079c-0.08895-0.40267 0.03941-0.68874 0.08808-0.09864 0.04123 0.09776-0.01688 0.31503-0.08808 0.09864zm0.36535-0.57962c-0.1095-0.33903-0.02559-0.84022 0.04729-0.18609 7e-3 -0.01061 0.04904 0.42156-0.04729 0.18609zm2.9974-3.3189c0.0056-1.0959-7e-3 -2.1925 0.02949-3.2878 0.15209 1.7806 0.06341 3.5845 0.06439 5.3741 8e-3 0.32958-0.04353 1.6128-0.07584 0.69868-0.01867-0.92818-0.01653-1.8568-0.01802-2.785zm3.0227 3.1787c0.16693-0.17314 0.17974 0.16813 0 0zm-4.6743-1.3644c0.0182-0.72226-0.1098-1.5973-0.08273-2.2204 0.23976 1.1598 0.20646 2.3659 0.14852 3.5419-0.05955-0.43656-0.0491-0.88156-0.0658-1.3215zm-2.3326 0.72831c-0.24541-0.80968 0.15103-0.10096 0.10769 0.27513-0.06181-0.07871-0.06945-0.1862-0.10769-0.27513zm3.1998-0.26634c0.09335-0.60976-0.03756-2.3144 0.19002-2.3348 0.03596 0.7261-0.02256 1.7716-0.19002 2.3348zm5.4569-1.4466c0.3311-0.05082-0.03135 0.07704 0 0zm-8.1733-0.1769c-0.06039-0.43108-0.32627-1.7911-0.14666-1.684 0.0544 0.52832 0.22065 1.2959 0.14666 1.684zm8.1387-0.06197c-0.33284-0.22027 0.77782 0.16314 0-6e-6zm0.11536-0.22095c-0.49027-0.28036 0.62531 0.14969 0 0zm-7.9796-0.36529c-0.15153-0.44085-0.1763-1.4458-0.0045-0.46974-0.02029 0.06722 0.14179 0.55033 0.0045 0.46974zm7.6225 0.0066c0.52717-0.0167-0.04821 0.05369 0 0zm0.09175-0.38484c0.33125-0.05084-0.03149 0.07705 0 0zm-8.3547-0.17279c-0.14276-0.27436-0.21476-1.2926-0.0042-0.42721-3e-3 0.05637 0.12559 0.5173 0.0042 0.42721zm8.4585-0.03052c0.17748-0.12591 0.30233 0.10044 0 0zm0.02309-0.24096c0.16653-0.16656 0.25189 0.14297 0 0zm-6.9144-0.24307c0.0167-0.67501 0.19963 0.50766-1.41e-4 0zm6.7298-0.35857c0.11841-0.16329 0.24325 0.16107 0 0zm-7.1197-0.15375c-0.2165-0.38921-0.42238-1.7204-0.08631-0.58138-0.0014 0.02157 0.28281 0.91012 0.08631 0.58138zm0.31291 0.04212c-0.08132-0.33932-0.58913-1.907-0.15919-0.85056 0.03878 0.15674 0.362 0.99682 0.15919 0.85056zm0.30733-0.22142c-0.19072-0.41669-0.3663-1.4478-0.05211-0.44229-0.0301 0.02131 0.24391 0.59253 0.05211 0.44229zm0.88224-0.62256c-0.10428-0.44709-0.27703-1.5572-0.14473-1.6266 0.02907 0.49988 0.25222 1.2818 0.14473 1.6266zm0.27412 0.02531c-0.13615-0.39775-0.15595-2.0475-0.02324-0.82991-0.01635 0.20785 0.15546 0.74422 0.02324 0.82991zm-2.2862-0.0703c-0.2304-0.6963 0.25594 0.06524 0 0zm4.1912-0.2987c0.32196-0.23632 0.90789-0.29285 0.22907-0.03366 0.09943-0.06195-0.40827 0.1835-0.22907 0.03366zm-1.7512-0.36594c-0.12286-0.43683 0.02639-0.77247 0.06789-0.11662 0.02415 0.02011 0.03473 0.56378-0.06789 0.11662zm-0.82567-0.46068c-0.08163-0.59987 0.2071 0.37237 0 0zm-1.014 14.064c0.23766-1.53-0.16573-3.0762-0.77605-4.4706-0.29205-0.76463-0.89692-1.343-1.1901-2.1108-0.17097-0.42808-0.63217-1.1523-0.56672-1.4465 0.17236 0.38881 0.34865 0.7311 0.13374 0.09329-0.58965-1.4933-0.69212-3.1342-1.4065-4.5847-0.13812-0.36347-0.35985-0.71742 0.10719-0.3435 0.53479 0.34293 0.56424 1.5242 0.86691 1.8393 0.15202-0.52788-0.53008-1.5077-0.34576-1.6834 0.1658 0.26593 0.68608 1.7928 0.47284 0.75186-0.12131-0.3755-0.46139-1.4875-0.03083-0.57579 0.33724 0.67167 0.20783-0.01862 0.16825-0.313 0.31783 0.66496 0.48701-0.13271 0.99573-0.2469 0.1007-0.40275 0.4291-0.9054 0.61708-0.87804-0.01253-0.37944 0.32475 0.32574 0.20094-0.28587-0.07558-0.10058 0.93544 0.46622 0.45318-0.0211-0.35106-0.21559-0.75707-0.4227-1.012 0.01096-0.52539 0.44932-1.0294 1.0964-1.8004 0.99024-0.49284-0.07003-2.1312-0.52674-1.4502 0.45809 0.2938 0.38513-0.30012-0.737 0.21274-0.02686 0.24963 0.53356 0.3393 0.28884 0.11759-0.10821 0.32527 0.03212 0.6 1.3028 0.77135 1.8391 0.4312 1.7259 0.69398 3.5261 1.5833 5.0969 0.16018 0.33915 1.0087 1.5707 0.05854 1.0019-0.41768-0.38842 0.42232 0.76741 0.54351 0.947 0.25481 0.31142 0.66599 1.1964 0.77539 1.1934-0.17801-0.66447-0.81635-1.3468-0.87355-1.9313 0.66382 0.53623 0.81118 1.5059 1.0197 2.2994 0.27297 0.99622 0.19303 2.043 0.26262 3.0644 0.09169-0.15881 0.05357-0.38311 0.09146-0.55929zm2.6882-4.3914c0.1555-0.3921 0.18792-0.92096-0.01618-0.22498-0.18352 0.44568-0.3352 1.2882-0.03269 0.37558l0.04885-0.15058zm-4.9618-0.83939c-0.17642-0.28669-0.55978-0.675-0.1764-0.11985 0.28028 0.44523 0.74501 0.89281 0.1764 0.11985zm0.55606 0.10038c-0.09499-0.27903-0.99121-1.435-0.32158-0.93079-0.85767-1.5572-1.1307-3.3282-1.5188-5.0391-0.14858-0.02757 0.26923 0.87121 0.01009 1.0137 0.2465 0.63923 0.1868 1.3361 0.32528 2.0285 0.22388 1.058 0.7138 2.0707 1.3655 2.9218 0.02039 0.01235 0.28133 0.25361 0.13946 0.0057zm-0.93535-1.6832c-0.22204-0.32072-0.31857-1.0296-0.04316-0.30325 0.15952 0.22362 0.34213 0.83814 0.04316 0.30325zm-0.03467 0.62952c-0.46617-0.7142 0.35899 0.77052 0 0zm-0.27664-0.12826c-0.27372-0.2591 0.1162 0.28472 0 0zm-0.18247-0.34011c-0.25624-0.29479 0.13848 0.38588 0 0zm0.04168-0.47666c-0.19023-0.49008-0.4426-1.7649-0.57645-1.7953 0.10338 0.6216 0.50818 2.0432 0.67282 2.116l-0.04196-0.1457zm-0.22182-0.02709c-0.16228-0.0496 0.13741 0.47256 0 0zm1.2416-0.01201c-0.25616-0.2948 0.13822 0.38584 0 0zm-1.564-1.033c-0.15922-0.24903 0.12704 0.74292 0 0zm-0.11197-0.39317c-0.08236-0.08955 0.02985 0.25299 0 0zm-0.16806-0.72399c-0.21564-0.99792-0.69231-1.9928-1.5624-2.5704 0.18117-0.10994 0.6003 0.33256 0.39681-0.05438 0.64074 0.26897 1.0416 1.5753 1.2289 1.6798-0.12161-0.53118-0.74011-1.3066-0.73268-1.6435 0.28616 0.40267 0.5703 0.67597 0.215 0.06084 0.23261-0.81885-2.0799-0.53249-0.99139 0.16782 0.69006 0.64109 1.1819 1.4719 1.3639 2.4006 0.1792 0.6258 0.20854 0.49903 0.08182-0.04076zm0.16806-0.09252c-0.08236-0.08954 0.02985 0.25299 0 0zm0.17417-1.0204c-0.0097-0.22988-0.16025 0.13749 0 0zm0.67112-0.26335c-0.19548 0.02858-0.01148-0.02763 0 0zm-0.16037-0.53648c-0.14833-0.47987-0.32889-1.0848-0.61526-1.4315 0.20688 0.43448 0.50337 1.5094 0.65482 1.6178l-0.03953-0.1863zm-0.63263-0.3851c-0.2513-0.30602 0.1012 0.33266 0 0zm-0.14555-0.37584c-0.08144-0.02945 0.05054 0.30202 0 0zm0.98469-1.7106c-0.14802-0.35138-0.3716 0.7459 0 0zm-0.25153-0.08995c0.24084-0.35809-0.37055-1.5968 0.12084-0.72184 0.09715 0.57508 0.18226 0.52117 0.29794 0.0099-1.74e-4 0.37872-0.2133 1.5536 0.08577 0.56668 0.09739-0.43003 0.19405-0.8783 0.15442-0.18124-0.12116 0.4386 0.01566 0.85781 0.13504 0.18314 0.081-0.51641 0.10896-0.58034 0.10513-0.01834 0.13699 0.5395 0.2695-1.0615 0.30468-0.05454 0.17582-0.03993 0.1765-0.67094 0.25714-0.05698 0.11522-0.54792 0.98241-0.79076 1.2557-0.69108 0.33041 0.62715 0.29158 0.05611 0.21292-0.28057 0.1623 0.30034 0.38956 1.0547 0.28351 0.24639-0.17702-0.74678 0.06115-0.02775 0.22765 0.06421-0.36181-0.7053 0.48568-0.59248 0.48688-0.59907-0.23812-0.34376 0.42824 0.22639 0.2163-0.31341 0.1405-0.29018 0.72273-1.1232 0.01926-0.55577-0.5617 0.10786-0.557 1.1011-1.1597 0.53708-0.11526-0.63048 0.43453 0.58375 0.16143-0.18854-0.40178-0.83609-0.9381 0.87272-1.5982 0.12792-0.7413-0.3713-1.0845 1.09-1.9651 0.57768-0.45698-0.16002-0.9549 0.33123-0.22621 0.20276 1.066 0.0073-0.40791 1.2412-0.01917 1.1914 0.16848-0.31493 0.65352-1.1626 0.57293-0.30832-0.22725 0.304-0.20707 0.90538 0.07082 0.26261zm0.14386-0.92471c-0.18413-0.48169 0.3302 0.13046 0 0zm1.0306-0.43947c0.15733-0.28563 0.54431-0.75774 0.27684-0.073174 0.03128 0.15708-0.2087 0.12721-0.27684 0.073174zm0.40379-0.05101c-0.24293-0.40711 0.49024 0.18401 0 0zm0.26326-0.10204c-0.32313-0.30184 0.33164-0.00974 0.10654 0.081021zm1.0279-0.17833c-0.14259-0.28151 0.16655-0.020407 0 0zm0.99999-0.16328c-0.07738-0.33666 0.22209 0.1524 0 0zm-4.1001 1.7256c0.30569-0.6505-0.66189 0.89011-0.10205 0.16629zm5.5122-1.0134c-0.47977-0.42465-0.47948-0.26992-0.010613 0.030481zm-1.7497-0.23571c-0.18157 0.11321 0.1465 0.32577 0 0zm1.3113 0.099514c-0.55118-0.24853 0.1365 0.17493 0 0zm-4.2956-0.45738c0.04303-0.29992-0.2414 0.25474 0 0zm3.8486-0.048713c0.0052-0.79345-0.33064 0.50812 0 0zm-0.9623-0.24803c-0.36051-0.21889 0.18459 0.4343 0 0zm-1.1785 0.018459c0.21697-0.65691 1.1938-0.5113 1.0882-1.2913-0.23771 0.14002-0.45764 0.35891-0.18623 0.40982-0.3426 0.34698-0.81406-0.03817-0.4598-0.066842 0.01583-0.36223-0.94301 0.079768-0.55721 0.27635-0.45353 0.2037-0.2983-0.14638-0.30924-0.29053-0.2393 0.071556-0.59976 0.3333-0.33505 0.42479-0.40859 0.3446-0.32825-0.073487-0.4667-0.24597-0.54498 0.47401 0.91077 0.99795 1.226 0.78371zm0.18394-0.4408c-0.03154-0.29129 0.22862 0.14941 0 0zm1.0858-0.042502c-0.1237 0.039614 0.1393 0.35653 0-7e-6zm0.32592 0.10404c-0.35092-0.59254-0.21403 0.09774 0 0zm-3.1955-0.099097c-0.66558-0.24712-0.23198 0.11114 0 0zm0.70348-0.52142c0.59446-0.39562-0.58154-0.30449 0 0zm2.1082-0.034569c-0.08236-0.089563 0.02985 0.25299 0 0zm-1.2623-0.16996c0.20619-0.21552 0.36129-0.2995 0.70372-0.26804-0.10218-0.37252-0.89733 0.081751-1.2014 0.08069-0.11547 0.49707 0.15842-0.28956 0.21945 0.25978 0.09104-0.017398 0.17941-0.14221 0.27822-0.072444zm-0.06675-0.60627c0.37233 0.00505-0.04226-0.57535-0.34831-0.16114-0.36863 0.14931 0.39285 0.52557 0.34825 0.16115zm0.55923-0.31157c-0.24411-0.28095-0.30256 0.29832 0 0zm-0.71413-0.2381c0.70341-0.14597-0.49244-0.24553-0.14158 0.043738-0.0015-0.019364 0.14177 0.00696 0.14158-0.043738zm0.4679-0.14577c-0.25295-0.23807-0.03072 0.38629 0 0zm-0.40988-0.27556c-0.1463-0.16474-0.21832 0.23752 0 0z" opacity=".1"/>
   <path id="path10" d="m15.828 26.223c-0.25111-0.30649-0.64574-0.6183-0.55913-1.0593 0.03466-1.3371-0.0019-2.7868-0.88463-3.878-0.75458-0.84662-1.5031-1.7174-1.9732-2.7646-0.61898-1.245-0.90422-2.621-1.3147-3.9369-0.1857-0.82847-1.5968-1.3076-1.2448-2.1352 0.45646-0.2923 1.3347 0.02892 0.70764-0.73359-0.01982-0.6522 2.0463-0.93883 0.83064-1.6605-0.70232-0.5341 0.56977-0.67478 1.0034-0.60765 0.45066-0.31365 0.04915-0.8338 0.07404-1.1049 0.2911-0.18727 0.99005-0.033369 0.45984-0.53979 0.39791-0.18203 0.71917-0.23687 0.68872-0.69632 0.53422-0.13748-0.1428-0.61061 0.44461-0.81633 0.42003-0.78349 1.2144 0.32539 1.3875 0.67481 0.28689 0.18736 0.47351 0.68705 0.88025 0.64079-0.105 0.33253-0.0174 1.0558 0.42009 0.6604 0.67535-0.46535 0.20629 0.76919 0.52758 0.97586 0.51894 0.70812 1.1495 0.35566 1.7123-0.042294 0.94994-0.00174 0.886 1.3733 1.6418 1.7339 0.65064 0.50486 1.4576 0.16592 2.1641 0.24818 0.56746 0.53059 0.57453 1.4107 0.73341 2.1334 0.2892 2.2826-0.28509 4.5618-0.85176 6.7569-0.23746 0.80096-0.61409 1.8432-1.5985 1.8967-0.84892-0.01778-1.416 1.3887-0.25273 1.3686 0.60172 0.64216-0.75078 1.3892-1.2622 1.7087-0.69074 0.47978-1.594 0.24352-1.9408-0.53022-0.75069-0.38955-0.49015 1.4164-1.2736 1.593-0.15303 0.07744-0.34792 0.24064-0.51976 0.11437zm0.17933-0.23065c-0.10687-0.17627-0.19725 0.17931 0 0zm0.47525-0.16232c0.55491-0.95363 0.69649-2.0874 1.0543-3.1234 0.09186-0.40584 0.47352-1.4552 0.40448-1.5504-0.61187 1.2755-0.97906 2.6575-1.3705 4.0098 0.16242-1.3088 0.66526-2.5602 1.1186-3.7946 0.45389-1.2273 0.80624-2.5038 1.0174-3.7932 0.01444-2.2863-0.03551-4.5736-0.0077-6.8589 0.25713-1.0596 0.1044 0.35202 0.08739 0.70644-0.03379 1.7334 0.22268 3.4633 0.07121 5.1971-0.02425 0.89791-0.20757 1.8862-0.33383 2.7122 0.71111-1.9775 0.48781-4.1276 0.42209-6.1868-0.06214-0.98611-0.144-2.0053 0.11319-2.9687 0.37563-0.44341 0.15813 0.35601 0.17873 0.25607 0.07883 0.06508-0.33786 0.38104 0.16148 0.20321-0.16744 0.13767-0.42609 0.43169-1.17e-4 0.25297-0.7142 0.45804 0.16679 0.19833 0.15856 0.24664-0.37828 0.0064-0.67884 0.3815-0.42623 0.65191 0.36129-0.19784 1.3242-0.35154 0.44307-0.07394-0.42498 0.04365-0.72411 0.60188-0.10489 0.28726 0.34603-0.17648 1.4245-0.31973 0.47753-0.0813-0.33627 0.0021-1.4009 0.6958-0.47555 0.34554 0.42117-0.2069 1.6088-0.26303 0.54946-0.06954-0.40433 0.02589-1.3954 0.64041-0.44803 0.37604 0.42588-0.16867 0.98144-0.15273 0.22947 0.02775-0.39022-0.0087-1.0315 0.63681-0.28244 0.35346 0.41304-0.14203 1.8587-0.32466 0.74018-0.08132-0.30251-0.0261-1.7263 0.53198-0.7586 0.37474 0.39191-0.10247 1.6257-0.19922 1.4469-0.10282-0.53166 0.10639-1.4741-0.0023-1.712 0.43149 0.35992 8e-3 1.6181-0.25671 1.4912-0.11465-0.40058 0.12331-1.7165 0.07469-1.4138 0.56491 0.57081-0.21276 1.1953-0.11248 1.7928-0.14939-0.63138 0.08493-1.3236 0.02089-1.8871 0.34805 0.18457 0.2949 1.496-0.29953 1.557-0.0905-0.44861 0.13565-1.4577 0.1392-1.5292 0.59084 0.44804-0.08332 1.3205-0.30473 1.5343-0.13652-0.48308 0.13166-1.3103 0.01705-1.5432 0.43119 0.54603-0.02418 1.4335-0.1202 1.7672-0.02465-0.50392 0.14038-1.4847-0.1231-1.6744 0.36466 0.59961-0.09694 1.6592-0.16143 1.9645-0.03711-0.61936 0.06425-1.5902-0.0818-1.9653 0.31182 0.54237 0.06977 1.092 0.04116 1.6379 0.05423-0.56174 0.03727-1.1237 0.07206-1.6844 0.12344-0.0066 0.7071 1.2243 0.03069 1.7218 0.27558 1.1201 0.20153-0.45434 0.05913-0.79429 0.08302-0.38556-0.23216-1.4375 0.43743-0.55257 0.32172 0.33278-0.08526 1.8365 0.0026 0.75825 0.06616-0.31434-0.07317-1.8038 0.17734-0.8613 0.32715 0.44073 0.04509 1.781 0.0031 1.7477 0.22987-0.627-0.06456-1.6828-0.38799-2.0709 0.09212 0.32769 0.10684 1.6052 0.03575 1.3299 0.1364-0.39353 0.09099-1.3867-0.18856-1.3871 0.2817 0.23302-0.05628 1.7574-0.04099 1.0373 0.01966-0.47073-0.04466-1.4704 0.26858-0.46968 0.25891 0.33023-0.0202 1.7827 0.09089 0.72002 0.1028-0.33443 0.06656-1.398-0.14172-1.336 0.23482 0.30976-5e-3 1.4691 0.0687 1.3106 0.21567-0.34375-0.01044-1.5399-0.22058-1.3659 0.18412 0.35644 0.02098 1.4642 0.06124 1.3313 0.24144-0.32814-0.08908-1.6436-0.21536-1.3819 0.08789 0.54228 0.04518 1.2885 0.05026 1.6703 0.33949-0.50986-0.1583-1.8429-0.44386-1.8494 0.08859 0.28282-0.05416 1.5463 0.15291 1.2302 0.1992-0.41763 0.01531-1.167-0.2211-1.3709 0.1312 0.4915 0.10884 1.8186 0.11858 1.8147 0.50732-0.45466-0.29804-1.7268-0.5188-1.8411-0.15894 0.34373 0.0097 1.6881 0.37629 1.4045 0.40676-0.38785-0.0556-1.593-0.53379-1.4839-0.09651 0.45695 0.04703 1.1803 0.17229 1.4331 0.35282-0.34845-0.03928-1.6262-0.44425-1.4837-0.13428 0.43327 0.16764 1.2168 0.2435 1.4347 0.54209-0.42349-0.11281-1.4576-0.61052-1.5712-0.26028 0.4379 0.1044 1.2448 0.25122 1.4104 0.5457-0.37389-0.1273-1.4544-0.61819-1.4786-0.26552 0.27801 0.01687 1.3287 0.42808 1.0574 0.47836-0.30499-0.12662-1.2034-0.56503-1.2202-0.13836 0.3298-0.05828 1.5052 0.66398 0.60832 0.29112-0.30792-0.33572-1.1953-0.02992-0.44815 0.17951 0.32747 0.05487 0.92286 0.49424 0.2524 0.20156-0.38521-0.2384-1.0078-0.10224-0.26363 0.15628 0.90564 0.49727-0.30852-0.12912-0.47626 0.13443 0.30964 0.13662 1.1266 0.80981 0.33225 0.32344-0.48717-0.3914-0.58995 0.25315-0.01548 0.27692 0.91972 0.72964-1.0151-0.53303-0.32861 0.17776 0.57735 0.4623 0.1245 0.12618-0.27424 0.06985 0.192 0.33299 0.41791 0.43364-0.10393 0.29394-0.22337 0.64203 0.67784 1.1377 1.1137 1.4694 0.43504 0.06667 1.3446-0.23643 0.55471-0.56794-0.55376-0.52818 1.1763 0.73176 0.59169-0.0659-0.35258-0.20464-0.79032-0.57644-0.1134-0.1995 0.63317 0.38179 0.3903 0.01392 0.0035-0.26425 0.45951 0.48258 1.3035 0.15141 1.0555-0.51135-1.1478-0.06234-0.75108-1.5502 0.15242-1.6564 1.0236-0.0285 1.4772-1.015 1.682-1.8792 0.28168-1.2134 0.65041-2.4144 0.80812-3.6515 0.06101-1.5893 0.26221-3.2915-0.48364-4.7612-0.59074-0.44502-1.5515 0.15621-2.2205-0.33261-0.91204-0.219-0.73472-1.9058-1.7164-1.7207-0.6573 0.62642-1.5294 0.53512-2.276 0.2717-0.65256 0.69545-1.3288 1.2941-2.201 1.7022-0.53356 0.56813-1.2704 1.0385-1.3492 1.8874-0.35636 0.8435-0.40689 1.7902-0.0345 2.6383 0.66058 2.0823 1.8553 3.9352 2.5747 5.9942 0.07493 0.01583-0.05647-0.94872-0.05343-1.2617-0.01061-0.60724-0.27919-1.672-0.18593-2.0312 0.3033 1.3527 0.32442 2.7506 0.44954 4.1256 0.1468-0.7829-0.05395-1.6972 0.13793-2.4261 0.1881 0.75298 0.01722 1.5224 0.04022 2.2901 0.06644-0.40471 0.34239-1.7527 0.22682-0.61775-0.09035 0.61147-0.02851 1.5959-0.18138 2.0078 8e-3 -0.34273-0.26687-0.95433-0.22444-0.25275-0.08601 0.74445-0.32125 1.7112 0.53691 2.1041l0.13468-0.07638zm2.0379-0.95787c-0.02841-0.26423 0.26645 0.18945 0 0zm0.21292-0.15734c-0.45575-0.56838 0.54852 0.30618 0.09273 0.09503l-0.09271-0.09503zm-2.2608-0.36369c-0.27578-0.53056-0.0198-1.4351 0.06576-2.177 0.30296-1.6992 0.39812-3.4347 0.76452-5.1205 0.03793 0.66566-0.20842 1.6003-0.26966 2.3658-0.1298 1.2293-0.38807 2.451-0.50568 3.6758 0.2521-0.70943 0.36312-1.5357 0.568-2.2886 0.58646-2.3012 0.6759-4.686 0.63108-7.0496-0.01374-0.35152 0.01514-1.7936 0.0818-0.74143 0.09803 2.8657 0.0078 5.778-0.78901 8.5507-0.16042 0.60306-0.33676 1.5051-0.44222 1.9543-0.22128-0.64417-0.04156 0.90693 0.10816-0.01479 0.59012-1.553 1.1436-3.1211 1.4903-4.7492 0.41488-1.6347 0.19486-3.3413 0.26153-5.0086 0.01583-1.0443-0.01322-2.0916 0.06039-3.1336 0.14748-0.28643 0.02838 1.0069 0.0686 1.3357-0.02888 1.9347 0.06592 3.8778-0.07862 5.8074-0.37675 1.874-0.89072 3.7169-1.5848 5.4984-0.15011 0.25636-0.40481 1.4682-0.42822 1.235-6.44e-4 -0.04657-0.0013-0.09318-0.0019-0.13976zm3.5976-0.26972c-0.45785-0.46249 0.65395 0.40574 0 0zm-2.5188-0.19765c-0.02961-0.26462 0.26804 0.1899 0 0zm2.582-0.05626c-0.03152-0.29128 0.22863 0.14943 0 0zm-2.9255-2.4011c0.14348-0.51686 0.10706 0.26821 0 0zm3.9988-0.06091c-0.13327-0.32074 0.37311 0.13803 0 0zm-4.9082-0.47987c0.30687-2.0284 0.72059-4.0542 0.68395-6.1174 0.09386-0.84437 0.0987 0.96167 0.05846 1.3636-0.10795 1.6811-0.39791 3.3458-0.70136 5.0003-0.0935 0.29122-0.03721-0.2264-0.04102-0.2465zm1.0501 0.20148c0.26246-1.1378 0.57345-2.2703 0.78718-3.4153 0.05207 0.76574-0.2778 1.5889-0.43566 2.3612-0.10512 0.32036-0.18869 0.85863-0.35152 1.0541zm3.9861-0.01392c-0.06573-0.20129 0.48766 0.22494 0 0zm0.07194-0.22036c-0.31222-0.20832 0.67483 0.20564 0-2.4e-5zm0.35326-0.09595c-0.27181-0.38992 0.40411 0.28658 0 0zm-6.4664-0.23297c-0.08394-0.53208-0.41681-1.7674-0.31983-1.9193 0.12008 0.54316 0.44735 1.7047 0.31983 1.9193zm0.52642-0.3786c-0.09435-0.22931-0.08589-1.183-0.07187-1.1245-0.0618 0.49842 0.41541 0.94436 0.13353 1.2293-0.02055-0.03495-0.04111-0.0699-0.06166-0.10486zm5.8378 0.0234c-0.03401-0.17453 0.55015 0.21295 0 0zm0.37462-0.12963c-0.18881-0.23738 0.40768 0.21543 0 0zm0.10112-0.47444c-0.5554-0.36826 0.62193 0.23714 0 0zm-6.0455-0.59428c-0.04588-1.1013-0.06782-2.2268 0.04965-3.315 0.07211 1.214 0.06253 2.4394-0.01531 3.6546-0.01148-0.11317-0.0229-0.22642-0.03443-0.33954zm-0.47562-0.88523c-0.09073-0.50884 0.01879-0.64823 0.05746-0.06632 0.01842 0.53254-0.02157 0.64415-0.05708 0.07025zm-0.38947 0.06446c0.12578-0.44411 0.07453 0.42788 0 0zm-0.43239 0.01079c-0.08895-0.40267 0.03941-0.68874 0.08808-0.09864 0.04123 0.09776-0.01688 0.31503-0.08808 0.09864zm0.36535-0.57962c-0.1095-0.33903-0.02559-0.84022 0.04729-0.18609 7e-3 -0.01061 0.04904 0.42155-0.04729 0.18609zm2.9974-3.3189c0.0056-1.0959-7e-3 -2.1925 0.02949-3.2878 0.15209 1.7806 0.06341 3.5845 0.06439 5.3741 8e-3 0.32959-0.04353 1.6128-0.07584 0.69868-0.01867-0.92818-0.01653-1.8568-0.01802-2.785zm3.0227 3.1787c0.16693-0.17314 0.17974 0.16813 0 0zm-4.6743-1.3644c0.0182-0.72226-0.1098-1.5973-0.08272-2.2204 0.23976 1.1598 0.20646 2.3659 0.14852 3.5419-0.05955-0.43656-0.0491-0.88156-0.0658-1.3215zm-2.3326 0.72831c-0.24541-0.80968 0.15103-0.10096 0.10769 0.27513-0.06181-0.07871-0.06945-0.1862-0.10769-0.27513zm3.1998-0.26634c0.09336-0.60976-0.03756-2.3144 0.19002-2.3348 0.03596 0.7261-0.02257 1.7716-0.19002 2.3348zm5.4569-1.4466c0.3311-0.05082-0.03135 0.07704 0 0zm-8.1733-0.17684c-0.06039-0.43108-0.32627-1.7911-0.14666-1.684 0.0544 0.52832 0.22065 1.2959 0.14666 1.684zm8.1387-0.06197c-0.33284-0.22027 0.77782 0.16314 0-6e-6zm0.11536-0.22095c-0.49027-0.28036 0.62531 0.14969 0 0zm-7.9796-0.3653c-0.15153-0.44085-0.1763-1.4458-0.0045-0.46974-0.02029 0.06722 0.14179 0.55033 0.0045 0.46974zm7.6225 0.0066c0.52717-0.0167-0.04821 0.05369 0 0zm0.09175-0.38484c0.33125-0.05084-0.03149 0.07705 0 0zm-8.3547-0.17279c-0.14276-0.27436-0.21476-1.2926-0.0042-0.42721-3e-3 0.05637 0.12559 0.5173 0.0042 0.42721zm8.4585-0.03051c0.17748-0.12591 0.30233 0.10044 0 0zm0.02309-0.24096c0.16653-0.16656 0.25189 0.14299 0 0zm-6.9144-0.24306c0.0167-0.67501 0.19963 0.50766-1.41e-4 0zm6.7298-0.35857c0.11841-0.16329 0.24325 0.16107 0 0zm-7.1197-0.15376c-0.2165-0.38921-0.42238-1.7204-0.08631-0.58138-0.0014 0.02157 0.28281 0.91012 0.08631 0.58138zm0.31291 0.04212c-0.08132-0.33932-0.58913-1.907-0.15919-0.85056 0.03878 0.15674 0.362 0.99682 0.15919 0.85056zm0.30733-0.22142c-0.19072-0.41669-0.3663-1.4478-0.05211-0.44229-0.0301 0.02131 0.24391 0.59253 0.05211 0.44229zm0.88224-0.62256c-0.10428-0.44709-0.27703-1.5572-0.14473-1.6266 0.02907 0.49988 0.25222 1.2818 0.14473 1.6266zm0.27412 0.02531c-0.13615-0.39775-0.15595-2.0475-0.023244-0.82991-0.01635 0.20785 0.15546 0.74422 0.02324 0.82991zm-2.2862-0.0703c-0.2304-0.6963 0.25594 0.06524 0 0zm4.1912-0.2987c0.32196-0.23632 0.90789-0.29285 0.22907-0.03366 0.09943-0.06195-0.40827 0.1835-0.22907 0.03366zm-1.7512-0.36594c-0.12286-0.43683 0.02639-0.77247 0.06789-0.11662 0.02415 0.02011 0.03473 0.56378-0.06789 0.11662zm-0.82567-0.46068c-0.08163-0.59987 0.2071 0.37237 0 0zm-1.014 14.064c0.23766-1.53-0.16573-3.0762-0.77605-4.4706-0.29205-0.76463-0.89692-1.343-1.1901-2.1108-0.17097-0.42809-0.63217-1.1523-0.56672-1.4465 0.17236 0.38881 0.34865 0.7311 0.13374 0.09329-0.58965-1.4933-0.69212-3.1342-1.4065-4.5847-0.13812-0.36347-0.35985-0.71742 0.10719-0.3435 0.53479 0.34293 0.56424 1.5242 0.86691 1.8393 0.15202-0.52788-0.53008-1.5077-0.34576-1.6834 0.1658 0.26593 0.68608 1.7928 0.47284 0.75186-0.12131-0.3755-0.46139-1.4875-0.03083-0.57579 0.33724 0.67167 0.20783-0.01861 0.16825-0.313 0.31783 0.66496 0.48701-0.13273 0.99573-0.2469 0.1007-0.40275 0.4291-0.9054 0.61708-0.87804-0.01253-0.37944 0.32475 0.32574 0.20094-0.28587-0.07558-0.10058 0.93544 0.46622 0.45318-0.0211-0.35106-0.21559-0.75707-0.4227-1.012 0.01096-0.52539 0.44933-1.0294 1.0964-1.8004 0.99024-0.49284-0.07002-2.1312-0.52674-1.4502 0.45809 0.2938 0.38513-0.30012-0.737 0.21274-0.02686 0.24963 0.53356 0.3393 0.28885 0.11759-0.10821 0.32527 0.03212 0.6 1.3028 0.77135 1.8391 0.4312 1.7259 0.69398 3.5261 1.5833 5.0969 0.16018 0.33915 1.0087 1.5707 0.05854 1.0019-0.41768-0.38842 0.42232 0.76741 0.54351 0.947 0.25481 0.31142 0.66599 1.1964 0.77539 1.1934-0.17801-0.66447-0.81635-1.3468-0.87355-1.9313 0.66382 0.53623 0.81118 1.5059 1.0197 2.2994 0.27297 0.99622 0.19303 2.043 0.26262 3.0644 0.09169-0.1588 0.05357-0.38311 0.09146-0.55929zm2.6882-4.3914c0.1555-0.3921 0.18792-0.92096-0.01618-0.22498-0.18352 0.44568-0.3352 1.2882-0.03269 0.37558l0.04885-0.15058zm-4.9618-0.83939c-0.17642-0.28669-0.55978-0.675-0.1764-0.11985 0.28028 0.44523 0.74501 0.89281 0.1764 0.11985zm0.55606 0.10038c-0.09499-0.27903-0.99121-1.435-0.32158-0.93079-0.85767-1.5572-1.1307-3.3282-1.5188-5.0391-0.14858-0.02758 0.26923 0.87121 0.01009 1.0137 0.2465 0.63923 0.1868 1.3361 0.32528 2.0285 0.22388 1.058 0.7138 2.0707 1.3655 2.9218 0.02039 0.01235 0.28133 0.25361 0.13946 0.0057zm-0.93535-1.6832c-0.22204-0.32072-0.31857-1.0296-0.04316-0.30325 0.15952 0.22362 0.34213 0.83814 0.04316 0.30325zm-0.03467 0.62952c-0.46617-0.7142 0.35899 0.77052 0 0zm-0.27664-0.12826c-0.27372-0.2591 0.1162 0.28472 0 0zm-0.18247-0.34013c-0.25624-0.29479 0.13848 0.38588 0 0zm0.04168-0.47666c-0.19023-0.49008-0.4426-1.7649-0.57645-1.7953 0.10338 0.6216 0.50818 2.0432 0.67282 2.116l-0.04196-0.1457zm-0.22182-0.02709c-0.16228-0.0496 0.13741 0.47256 0 0zm1.2416-0.012c-0.25616-0.2948 0.13822 0.38584 0 0zm-1.564-1.033c-0.15922-0.24903 0.12704 0.74292 0 0zm-0.11197-0.39317c-0.08236-0.08955 0.02985 0.25299 0 0zm-0.16806-0.72399c-0.21564-0.99792-0.69231-1.9928-1.5624-2.5704 0.18117-0.10992 0.6003 0.33256 0.39681-0.05438 0.64074 0.26897 1.0416 1.5753 1.2289 1.6798-0.12161-0.53118-0.74011-1.3066-0.73268-1.6435 0.28616 0.40267 0.5703 0.67597 0.215 0.06084 0.23261-0.81885-2.0799-0.53249-0.99139 0.16782 0.69006 0.64109 1.1819 1.4719 1.3639 2.4006 0.1792 0.6258 0.20854 0.49903 0.08182-0.04076zm0.16806-0.09252c-0.08236-0.08955 0.02985 0.25299 0 0zm0.17417-1.0204c-0.0097-0.22988-0.16025 0.13749 0 0zm0.67112-0.26335c-0.19548 0.02858-0.01148-0.02763 0 0zm-0.16037-0.53649c-0.14833-0.47987-0.32889-1.0848-0.61526-1.4315 0.20688 0.43448 0.50337 1.5094 0.65482 1.6178l-0.03953-0.1863zm-0.63262-0.38508c-0.2513-0.30602 0.1012 0.33266 0 0zm-0.14555-0.37585c-0.08144-0.02945 0.05054 0.30202 0 0zm0.98469-1.7106c-0.14802-0.35138-0.3716 0.74589 0 0zm-0.25153-0.08995c0.24084-0.35809-0.37055-1.5968 0.12084-0.72184 0.09715 0.57508 0.18226 0.52117 0.29794 0.0099-1.74e-4 0.37872-0.2133 1.5536 0.08577 0.56668 0.09739-0.43003 0.19405-0.8783 0.15442-0.18124-0.12116 0.4386 0.01566 0.85781 0.13504 0.18314 0.081-0.51641 0.10896-0.58034 0.10513-0.01834 0.13699 0.5395 0.2695-1.0615 0.30468-0.05454 0.17582-0.03993 0.1765-0.67094 0.25714-0.05698 0.11522-0.54792 0.98241-0.79077 1.2557-0.69108 0.33041 0.62714 0.29158 0.05611 0.21292-0.28057 0.1623 0.30034 0.38956 1.0547 0.28351 0.24639-0.17702-0.74678 0.06115-0.027749 0.22766 0.064215-0.36181-0.7053 0.48568-0.59248 0.48688-0.59907-0.23812-0.34376 0.42824 0.22639 0.2163-0.31341 0.1405-0.29018 0.72273-1.1232 0.01926-0.55577-0.5617 0.10783-0.557 1.1011-1.1597 0.53705-0.11526-0.63048 0.43453 0.58375 0.16143-0.18854-0.40178-0.83609-0.9381 0.87272-1.5982 0.12792-0.7413-0.37131-1.0845 1.09-1.9651 0.57768-0.45698-0.16002-0.9549 0.33123-0.22621 0.20276 1.066 0.00731-0.40791 1.2412-0.01917 1.1914 0.16848-0.31493 0.65352-1.1626 0.57293-0.30832-0.22725 0.304-0.20707 0.90538 0.07083 0.26261zm0.14386-0.92471c-0.18413-0.48169 0.3302 0.13046 0 0zm1.0306-0.43947c0.15733-0.28563 0.5443-0.75774 0.27684-0.073174 0.03128 0.15708-0.2087 0.12721-0.27684 0.073174zm0.40379-0.050992c-0.24293-0.40711 0.49024 0.18401 0 0zm0.26326-0.10204c-0.32313-0.30184 0.33164-0.00974 0.10654 0.081021zm1.0279-0.17834c-0.14259-0.28151 0.16655-0.020407 0 0zm0.99999-0.16328c-0.07738-0.33666 0.22209 0.1524 0 0zm-4.1001 1.7256c0.30569-0.6505-0.66189 0.89011-0.10206 0.16629zm5.5122-1.0134c-0.47977-0.42465-0.47948-0.26992-0.010613 0.030481zm-1.7497-0.23571c-0.18157 0.11321 0.1465 0.32577 0 0zm1.3113 0.099497c-0.55118-0.24853 0.1365 0.17493 0 0zm-4.2956-0.45738c0.04303-0.29992-0.2414 0.25474 0 0zm3.8486-0.048713c0.0052-0.79345-0.33064 0.50812 0 0zm-0.9623-0.24802c-0.36051-0.21889 0.18459 0.4343 0 0zm-1.1785 0.018459c0.21697-0.65691 1.1938-0.5113 1.0882-1.2913-0.23771 0.14002-0.45764 0.35891-0.18623 0.40982-0.3426 0.34698-0.81406-0.03817-0.4598-0.066842 0.01583-0.36223-0.94301 0.079768-0.55721 0.27635-0.45353 0.2037-0.2983-0.14638-0.30924-0.29052-0.2393 0.071556-0.59976 0.3333-0.33505 0.42479-0.40859 0.3446-0.32825-0.073488-0.4667-0.24597-0.54498 0.47401 0.91077 0.99795 1.226 0.78371zm0.18394-0.4408c-0.03154-0.29129 0.22862 0.14941 0 0zm1.0858-0.042502c-0.1237 0.039614 0.1393 0.35653 0-6.9e-6zm0.32592 0.10404c-0.35092-0.59254-0.21403 0.09774 0 0zm-3.1955-0.099097c-0.66558-0.24712-0.23198 0.11114 0 0zm0.70348-0.52142c0.59446-0.39562-0.58154-0.30449 0 0zm2.1082-0.034569c-0.08236-0.089563 0.02985 0.25299 0 0zm-1.2623-0.16996c0.20619-0.21552 0.36129-0.2995 0.70372-0.26804-0.10218-0.37252-0.89733 0.081751-1.2014 0.08069-0.11547 0.49707 0.15842-0.28956 0.21945 0.25978 0.09104-0.017398 0.17941-0.14221 0.27822-0.072444zm-0.06675-0.60627c0.37233 0.00505-0.04226-0.57535-0.34831-0.16114-0.36863 0.14931 0.39285 0.52557 0.34825 0.16115zm0.55923-0.31157c-0.24411-0.28095-0.30256 0.29832 0 0zm-0.71413-0.2381c0.70341-0.14597-0.49244-0.24553-0.14158 0.043738-0.0015-0.019364 0.14177 0.00696 0.14158-0.043738zm0.4679-0.14577c-0.25295-0.23807-0.03072 0.38629 0 0zm-0.40988-0.27556c-0.1463-0.16474-0.21832 0.23752 0 0z" fill="#383838"/>
  </g>
 </g>
</svg>
