<?xml version="1.0" encoding="UTF-8"?>
<svg id="svg1443" width="128" height="128" version="1.1" viewBox="0 0 33.867 33.867" xmlns="http://www.w3.org/2000/svg" xmlns:cc="http://creativecommons.org/ns#" xmlns:dc="http://purl.org/dc/elements/1.1/" xmlns:rdf="http://www.w3.org/1999/02/22-rdf-syntax-ns#" xmlns:xlink="http://www.w3.org/1999/xlink">
 <defs id="defs1437">
  <linearGradient id="linearGradient1632" x1="132.21" x2="132.21" y1="42.152" y2="70.68" gradientTransform="matrix(.97573 0 0 .97573 -111.77 -37.183)" gradientUnits="userSpaceOnUse">
   <stop id="stop1626" stop-color="#fafafc" offset="0"/>
   <stop id="stop1628" stop-color="#eae6e5" offset="1"/>
  </linearGradient>
  <linearGradient id="linearGradient845" x1="1454.9" x2="1454.9" y1="298.56" y2="671.68" gradientTransform="matrix(.068047 0 0 .068047 -40.847 -29.171)" gradientUnits="userSpaceOnUse">
   <stop id="stop839" stop-color="#e93728" offset="0"/>
   <stop id="stop841" stop-color="#e43323" offset="1"/>
  </linearGradient>
  <radialGradient id="radialGradient855" cx="1434.6" cy="482.54" r="204.26" gradientTransform="matrix(.068047 0 0 .065807 -40.847 -28.091)" gradientUnits="userSpaceOnUse">
   <stop id="stop849" stop-color="#e9e9e9" stop-opacity="0" offset="0"/>
   <stop id="stop857" stop-color="#e9e9e9" stop-opacity="0" offset=".95778"/>
   <stop id="stop851" stop-color="#e9e9e9" stop-opacity=".5" offset="1"/>
  </radialGradient>
  <linearGradient id="linearGradient907" x1="1033.9" x2="1159.4" y1="484.02" y2="701.51" gradientUnits="userSpaceOnUse" xlink:href="#linearGradient905"/>
  <linearGradient id="linearGradient905">
   <stop id="stop901" stop-color="#fff" offset="0"/>
   <stop id="stop903" stop-color="#eb3223" offset="1"/>
  </linearGradient>
  <linearGradient id="linearGradient877" x1="1058" x2="1072.6" y1="525.87" y2="551.17" gradientUnits="userSpaceOnUse" xlink:href="#linearGradient875"/>
  <linearGradient id="linearGradient875">
   <stop id="stop871" stop-color="#ebebeb" stop-opacity="0" offset="0"/>
   <stop id="stop873" stop-color="#e93122" offset="1"/>
  </linearGradient>
  <radialGradient id="radialGradient1035" cx="955.95" cy="495.64" r="108.08" gradientTransform="matrix(.070367 0 0 .074188 -10.502 -32.124)" gradientUnits="userSpaceOnUse">
   <stop id="stop1027" stop-opacity="0" offset="0"/>
   <stop id="stop1037" stop-opacity="0" offset=".88612"/>
   <stop id="stop1069" stop-opacity=".027451" offset=".89661"/>
   <stop id="stop1071" stop-opacity=".10588" offset=".91622"/>
   <stop id="stop1065" stop-opacity=".14902" offset=".92321"/>
   <stop id="stop1063" stop-opacity=".29804" offset=".94714"/>
   <stop id="stop1029" stop-opacity=".92585" offset="1"/>
  </radialGradient>
  <radialGradient id="radialGradient1085" cx="1440.1" cy="505.93" r="120.18" gradientTransform="matrix(.068047 0 0 .068047 -41.209 -29.08)" gradientUnits="userSpaceOnUse">
   <stop id="stop1079" offset="0"/>
   <stop id="stop1087" stop-opacity=".6902" offset=".30891"/>
   <stop id="stop1081" stop-opacity="0" offset="1"/>
  </radialGradient>
  <radialGradient id="radialGradient1012" cx="674.38" cy="484.96" r="120.28" gradientTransform="matrix(.068047 0 0 .068047 10.875 -29.08)" gradientUnits="userSpaceOnUse">
   <stop id="stop1014" stop-color="#e93728" offset="0"/>
   <stop id="stop1019" stop-color="#d47d79" offset=".82059"/>
   <stop id="stop1021" stop-color="#eee" offset=".91177"/>
   <stop id="stop1023" stop-color="#ededed" offset=".97072"/>
   <stop id="stop1016" stop-color="#fdfbfc" offset="1"/>
  </radialGradient>
  <radialGradient id="radialGradient1161" cx="17.3" cy="17.606" r="12.288" gradientUnits="userSpaceOnUse">
   <stop id="stop1155" stop-color="#e73626" offset="0"/>
   <stop id="stop1157" stop-color="#e73626" stop-opacity="0" offset="1"/>
  </radialGradient>
 </defs>
 <metadata id="metadata1440">
  <rdf:RDF>
   <cc:Work rdf:about="">
    <dc:format>image/svg+xml</dc:format>
    <dc:type rdf:resource="http://purl.org/dc/dcmitype/StillImage"/>
    <dc:title/>
   </cc:Work>
  </rdf:RDF>
 </metadata>
 <g id="layer1">
  <g id="g1702" transform="matrix(.97573 0 0 .96361 -65.737 -36.328)" fill="none" opacity=".18754" stroke="#000" stroke-linecap="round" stroke-linejoin="round" stroke-opacity=".02">
   <rect id="rect1634" x="69.84" y="40.71" width="29.811" height="29.811" rx="6.6099" ry="6.6099" stroke-width=".1"/>
   <rect id="rect1638" x="69.84" y="40.71" width="29.811" height="29.811" rx="6.6099" ry="6.6099" stroke-width=".2"/>
   <rect id="rect1640" x="69.84" y="40.71" width="29.811" height="29.811" rx="6.6099" ry="6.6099" stroke-width=".3"/>
   <rect id="rect1642" x="69.84" y="40.71" width="29.811" height="29.811" rx="6.6099" ry="6.6099" stroke-width=".4"/>
   <rect id="rect1644" x="69.84" y="40.71" width="29.811" height="29.811" rx="6.6099" ry="6.6099" stroke-width=".5"/>
   <rect id="rect1646" x="69.84" y="40.71" width="29.811" height="29.811" rx="6.6099" ry="6.6099" stroke-width=".6"/>
   <rect id="rect1648" x="69.84" y="40.71" width="29.811" height="29.811" rx="6.6099" ry="6.6099" stroke-width=".7"/>
   <rect id="rect1650" x="69.84" y="40.71" width="29.811" height="29.811" rx="6.6099" ry="6.6099" stroke-width=".8"/>
   <rect id="rect1652" x="69.84" y="40.71" width="29.811" height="29.811" rx="6.6099" ry="6.6099"/>
   <rect id="rect1654" x="69.84" y="40.71" width="29.811" height="29.811" rx="6.6099" ry="6.6099" stroke-width="1.2"/>
   <rect id="rect1656" x="69.84" y="40.71" width="29.811" height="29.811" rx="6.6099" ry="6.6099" stroke-width="1.4"/>
   <rect id="rect1658" x="69.84" y="40.71" width="29.811" height="29.811" rx="6.6099" ry="6.6099" stroke-width="1.6"/>
   <rect id="rect1660" x="69.84" y="40.71" width="29.811" height="29.811" rx="6.6099" ry="6.6099" stroke-width="1.8"/>
   <rect id="rect1662" x="69.84" y="40.71" width="29.811" height="29.811" rx="6.6099" ry="6.6099" stroke-width="2"/>
   <rect id="rect1664" x="69.84" y="40.71" width="29.811" height="29.811" rx="6.6099" ry="6.6099" stroke-width="2.2"/>
   <rect id="rect1666" x="69.84" y="40.71" width="29.811" height="29.811" rx="6.6099" ry="6.6099" stroke-width="2.6"/>
   <rect id="rect1668" x="69.84" y="40.71" width="29.811" height="29.811" rx="6.6099" ry="6.6099" stroke-width="3"/>
   <rect id="rect1670" x="69.84" y="40.71" width="29.811" height="29.811" rx="6.6099" ry="6.6099" stroke-width="3.4"/>
   <rect id="rect1672" x="69.84" y="40.71" width="29.811" height="29.811" rx="6.6099" ry="6.6099" stroke-width="3.8"/>
   <rect id="rect1674" x="69.84" y="40.71" width="29.811" height="29.811" rx="6.6099" ry="6.6099" stroke-width="4.2"/>
   <rect id="rect1676" x="69.84" y="40.71" width="29.811" height="29.811" rx="6.6099" ry="6.6099" stroke-width="4.6"/>
   <rect id="rect1678" x="69.84" y="40.71" width="29.811" height="29.811" rx="6.6099" ry="6.6099" stroke-width="5"/>
  </g>
  <rect id="rect849" x="2.4074" y="2.5392" width="29.087" height="29.087" rx="6.4495" ry="6.4495" fill="url(#linearGradient1632)" stroke-linecap="round" stroke-linejoin="round" stroke-width="2.6877"/>
  <circle id="path1153" cx="17.3" cy="17.606" r="12.288" fill="url(#radialGradient1161)"/>
  <g id="g1151" transform="matrix(.80024 0 0 .80024 -28.479 13.801)">
   <circle id="path859" cx="56.771" cy="4.101" r="13.908" fill="#9d271d" fill-opacity=".97184"/>
   <ellipse id="path837" cx="56.771" cy="3.6639" rx="13.899" ry="13.442" fill="url(#linearGradient845)"/>
   <ellipse id="ellipse847" cx="56.771" cy="3.6639" rx="13.899" ry="13.442" fill="url(#radialGradient855)" opacity=".68704"/>
   <circle id="path1025" cx="56.764" cy="3.956" r="7.3544" fill="url(#radialGradient1035)" opacity=".53632"/>
   <path id="circle1077" d="m62.945-0.030494a7.3544 7.3544 0 0 1 1.1742 3.9864 7.3544 7.3544 0 0 1-7.3544 7.3544 7.3544 7.3544 0 0 1-7.3545-7.3544 7.3544 7.3544 0 0 1 1.0644-3.8107 8.1776 8.1776 0 0 0-1.868 5.2021 8.1776 8.1776 0 0 0 8.1776 8.1776 8.1776 8.1776 0 0 0 8.1777-8.1776 8.1776 8.1776 0 0 0-2.0171-5.3778z" fill="url(#radialGradient1085)"/>
   <circle id="path996" cx="56.764" cy="3.9203" r="7.7083" fill-opacity=".027571" stroke="url(#radialGradient1012)" stroke-linecap="round" stroke-linejoin="round" stroke-width=".95265"/>
   <g id="g962" transform="matrix(.068047 0 0 .068047 -16.059 -28.67)" opacity=".32241" shape-rendering="auto">
    <g id="g913" transform="translate(1.1422 1.8048)" fill-opacity=".10106" opacity="1">
     <path id="path909" d="m1039.8 425.06a5.9114 5.9114 0 0 0-5.9219 5.9102v106.11a5.9114 5.9114 0 0 0 8.8516 5.125l92.455-53.053a5.9114 5.9114 0 0 0 0-10.254l-92.455-53.053a5.9114 5.9114 0 0 0-2.9297-0.78515z" color="#000000" color-rendering="auto" dominant-baseline="auto" image-rendering="auto" solid-color="#000000" stop-color="#000000" style="font-feature-settings:normal;font-variant-alternates:normal;font-variant-caps:normal;font-variant-east-asian:normal;font-variant-ligatures:normal;font-variant-numeric:normal;font-variant-position:normal;font-variation-settings:normal;inline-size:0;isolation:auto;mix-blend-mode:normal;shape-margin:0;shape-padding:0;text-decoration-color:#000000;text-decoration-line:none;text-decoration-style:solid;text-indent:0;text-orientation:mixed;text-transform:none;white-space:normal"/>
     <path id="path911" d="m1039.8 425.06a5.9114 5.9114 0 0 0-5.9219 5.9102v106.11a5.9114 5.9114 0 0 0 8.8516 5.125l92.455-53.053a5.9114 5.9114 0 0 0 0-10.254l-92.455-53.053a5.9114 5.9114 0 0 0-2.9297-0.78515z" color="#000000" color-rendering="auto" dominant-baseline="auto" image-rendering="auto" solid-color="#000000" stop-color="#000000" style="font-feature-settings:normal;font-variant-alternates:normal;font-variant-caps:normal;font-variant-east-asian:normal;font-variant-ligatures:normal;font-variant-numeric:normal;font-variant-position:normal;font-variation-settings:normal;inline-size:0;isolation:auto;mix-blend-mode:normal;shape-margin:0;shape-padding:0;text-decoration-color:#000000;text-decoration-line:none;text-decoration-style:solid;text-indent:0;text-orientation:mixed;text-transform:none;white-space:normal"/>
    </g>
    <g id="g919" transform="translate(3.4508 1.6435)" fill-opacity=".10106" opacity="1">
     <path id="path915" d="m1039.8 425.06a5.9114 5.9114 0 0 0-5.9219 5.9102v106.11a5.9114 5.9114 0 0 0 8.8516 5.125l92.455-53.053a5.9114 5.9114 0 0 0 0-10.254l-92.455-53.053a5.9114 5.9114 0 0 0-2.9297-0.78515z" color="#000000" color-rendering="auto" dominant-baseline="auto" image-rendering="auto" solid-color="#000000" stop-color="#000000" style="font-feature-settings:normal;font-variant-alternates:normal;font-variant-caps:normal;font-variant-east-asian:normal;font-variant-ligatures:normal;font-variant-numeric:normal;font-variant-position:normal;font-variation-settings:normal;inline-size:0;isolation:auto;mix-blend-mode:normal;shape-margin:0;shape-padding:0;text-decoration-color:#000000;text-decoration-line:none;text-decoration-style:solid;text-indent:0;text-orientation:mixed;text-transform:none;white-space:normal"/>
     <path id="path917" d="m1039.8 425.06a5.9114 5.9114 0 0 0-5.9219 5.9102v106.11a5.9114 5.9114 0 0 0 8.8516 5.125l92.455-53.053a5.9114 5.9114 0 0 0 0-10.254l-92.455-53.053a5.9114 5.9114 0 0 0-2.9297-0.78515z" color="#000000" color-rendering="auto" dominant-baseline="auto" image-rendering="auto" solid-color="#000000" stop-color="#000000" style="font-feature-settings:normal;font-variant-alternates:normal;font-variant-caps:normal;font-variant-east-asian:normal;font-variant-ligatures:normal;font-variant-numeric:normal;font-variant-position:normal;font-variation-settings:normal;inline-size:0;isolation:auto;mix-blend-mode:normal;shape-margin:0;shape-padding:0;text-decoration-color:#000000;text-decoration-line:none;text-decoration-style:solid;text-indent:0;text-orientation:mixed;text-transform:none;white-space:normal"/>
    </g>
    <g id="g925" transform="translate(5.8925 1.8389)" fill-opacity=".064977" opacity="1">
     <path id="path921" d="m1039.8 425.06a5.9114 5.9114 0 0 0-5.9219 5.9102v106.11a5.9114 5.9114 0 0 0 8.8516 5.125l92.455-53.053a5.9114 5.9114 0 0 0 0-10.254l-92.455-53.053a5.9114 5.9114 0 0 0-2.9297-0.78515z" color="#000000" color-rendering="auto" dominant-baseline="auto" image-rendering="auto" solid-color="#000000" stop-color="#000000" style="font-feature-settings:normal;font-variant-alternates:normal;font-variant-caps:normal;font-variant-east-asian:normal;font-variant-ligatures:normal;font-variant-numeric:normal;font-variant-position:normal;font-variation-settings:normal;inline-size:0;isolation:auto;mix-blend-mode:normal;shape-margin:0;shape-padding:0;text-decoration-color:#000000;text-decoration-line:none;text-decoration-style:solid;text-indent:0;text-orientation:mixed;text-transform:none;white-space:normal"/>
     <path id="path923" d="m1039.8 425.06a5.9114 5.9114 0 0 0-5.9219 5.9102v106.11a5.9114 5.9114 0 0 0 8.8516 5.125l92.455-53.053a5.9114 5.9114 0 0 0 0-10.254l-92.455-53.053a5.9114 5.9114 0 0 0-2.9297-0.78515z" color="#000000" color-rendering="auto" dominant-baseline="auto" image-rendering="auto" solid-color="#000000" stop-color="#000000" style="font-feature-settings:normal;font-variant-alternates:normal;font-variant-caps:normal;font-variant-east-asian:normal;font-variant-ligatures:normal;font-variant-numeric:normal;font-variant-position:normal;font-variation-settings:normal;inline-size:0;isolation:auto;mix-blend-mode:normal;shape-margin:0;shape-padding:0;text-decoration-color:#000000;text-decoration-line:none;text-decoration-style:solid;text-indent:0;text-orientation:mixed;text-transform:none;white-space:normal"/>
    </g>
    <g id="g931" transform="translate(9.7516 3.0902)" fill-opacity=".064977" opacity="1">
     <path id="path927" d="m1039.8 425.06a5.9114 5.9114 0 0 0-5.9219 5.9102v106.11a5.9114 5.9114 0 0 0 8.8516 5.125l92.455-53.053a5.9114 5.9114 0 0 0 0-10.254l-92.455-53.053a5.9114 5.9114 0 0 0-2.9297-0.78515z" color="#000000" color-rendering="auto" dominant-baseline="auto" image-rendering="auto" solid-color="#000000" stop-color="#000000" style="font-feature-settings:normal;font-variant-alternates:normal;font-variant-caps:normal;font-variant-east-asian:normal;font-variant-ligatures:normal;font-variant-numeric:normal;font-variant-position:normal;font-variation-settings:normal;inline-size:0;isolation:auto;mix-blend-mode:normal;shape-margin:0;shape-padding:0;text-decoration-color:#000000;text-decoration-line:none;text-decoration-style:solid;text-indent:0;text-orientation:mixed;text-transform:none;white-space:normal"/>
     <path id="path929" d="m1039.8 425.06a5.9114 5.9114 0 0 0-5.9219 5.9102v106.11a5.9114 5.9114 0 0 0 8.8516 5.125l92.455-53.053a5.9114 5.9114 0 0 0 0-10.254l-92.455-53.053a5.9114 5.9114 0 0 0-2.9297-0.78515z" color="#000000" color-rendering="auto" dominant-baseline="auto" image-rendering="auto" solid-color="#000000" stop-color="#000000" style="font-feature-settings:normal;font-variant-alternates:normal;font-variant-caps:normal;font-variant-east-asian:normal;font-variant-ligatures:normal;font-variant-numeric:normal;font-variant-position:normal;font-variation-settings:normal;inline-size:0;isolation:auto;mix-blend-mode:normal;shape-margin:0;shape-padding:0;text-decoration-color:#000000;text-decoration-line:none;text-decoration-style:solid;text-indent:0;text-orientation:mixed;text-transform:none;white-space:normal"/>
    </g>
    <g id="g937" transform="translate(14.245 4.3209)" fill-opacity=".027571" opacity="1">
     <path id="path933" d="m1039.8 425.06a5.9114 5.9114 0 0 0-5.9219 5.9102v106.11a5.9114 5.9114 0 0 0 8.8516 5.125l92.455-53.053a5.9114 5.9114 0 0 0 0-10.254l-92.455-53.053a5.9114 5.9114 0 0 0-2.9297-0.78515z" color="#000000" color-rendering="auto" dominant-baseline="auto" image-rendering="auto" solid-color="#000000" stop-color="#000000" style="font-feature-settings:normal;font-variant-alternates:normal;font-variant-caps:normal;font-variant-east-asian:normal;font-variant-ligatures:normal;font-variant-numeric:normal;font-variant-position:normal;font-variation-settings:normal;inline-size:0;isolation:auto;mix-blend-mode:normal;shape-margin:0;shape-padding:0;text-decoration-color:#000000;text-decoration-line:none;text-decoration-style:solid;text-indent:0;text-orientation:mixed;text-transform:none;white-space:normal"/>
     <path id="path935" d="m1039.8 425.06a5.9114 5.9114 0 0 0-5.9219 5.9102v106.11a5.9114 5.9114 0 0 0 8.8516 5.125l92.455-53.053a5.9114 5.9114 0 0 0 0-10.254l-92.455-53.053a5.9114 5.9114 0 0 0-2.9297-0.78515z" color="#000000" color-rendering="auto" dominant-baseline="auto" image-rendering="auto" solid-color="#000000" stop-color="#000000" style="font-feature-settings:normal;font-variant-alternates:normal;font-variant-caps:normal;font-variant-east-asian:normal;font-variant-ligatures:normal;font-variant-numeric:normal;font-variant-position:normal;font-variation-settings:normal;inline-size:0;isolation:auto;mix-blend-mode:normal;shape-margin:0;shape-padding:0;text-decoration-color:#000000;text-decoration-line:none;text-decoration-style:solid;text-indent:0;text-orientation:mixed;text-transform:none;white-space:normal"/>
    </g>
   </g>
   <g id="g893" transform="matrix(.068047 0 0 .068047 -16.059 -28.67)" fill="url(#linearGradient907)" shape-rendering="auto">
    <path id="path889" d="m1039.8 425.06a5.9114 5.9114 0 0 0-5.9219 5.9102v106.11a5.9114 5.9114 0 0 0 8.8516 5.125l92.455-53.053a5.9114 5.9114 0 0 0 0-10.254l-92.455-53.053a5.9114 5.9114 0 0 0-2.9297-0.78515z" color="#000000" color-rendering="auto" dominant-baseline="auto" image-rendering="auto" solid-color="#000000" stop-color="#000000" style="font-feature-settings:normal;font-variant-alternates:normal;font-variant-caps:normal;font-variant-east-asian:normal;font-variant-ligatures:normal;font-variant-numeric:normal;font-variant-position:normal;font-variation-settings:normal;inline-size:0;isolation:auto;mix-blend-mode:normal;shape-margin:0;shape-padding:0;text-decoration-color:#000000;text-decoration-line:none;text-decoration-style:solid;text-indent:0;text-orientation:mixed;text-transform:none;white-space:normal"/>
    <path id="path891" d="m1039.8 425.06a5.9114 5.9114 0 0 0-5.9219 5.9102v106.11a5.9114 5.9114 0 0 0 8.8516 5.125l92.455-53.053a5.9114 5.9114 0 0 0 0-10.254l-92.455-53.053a5.9114 5.9114 0 0 0-2.9297-0.78515z" color="#000000" color-rendering="auto" dominant-baseline="auto" image-rendering="auto" solid-color="#000000" stop-color="#000000" style="font-feature-settings:normal;font-variant-alternates:normal;font-variant-caps:normal;font-variant-east-asian:normal;font-variant-ligatures:normal;font-variant-numeric:normal;font-variant-position:normal;font-variation-settings:normal;inline-size:0;isolation:auto;mix-blend-mode:normal;shape-margin:0;shape-padding:0;text-decoration-color:#000000;text-decoration-line:none;text-decoration-style:solid;text-indent:0;text-orientation:mixed;text-transform:none;white-space:normal"/>
   </g>
   <g id="path861" transform="matrix(.068047 0 0 .068047 -16.059 -28.67)" fill="url(#linearGradient877)" shape-rendering="auto">
    <path id="path879" d="m1039.8 425.06a5.9114 5.9114 0 0 0-5.9219 5.9102v106.11a5.9114 5.9114 0 0 0 8.8516 5.125l92.455-53.053a5.9114 5.9114 0 0 0 0-10.254l-92.455-53.053a5.9114 5.9114 0 0 0-2.9297-0.78515z" color="#000000" color-rendering="auto" dominant-baseline="auto" image-rendering="auto" solid-color="#000000" stop-color="#000000" style="font-feature-settings:normal;font-variant-alternates:normal;font-variant-caps:normal;font-variant-east-asian:normal;font-variant-ligatures:normal;font-variant-numeric:normal;font-variant-position:normal;font-variation-settings:normal;inline-size:0;isolation:auto;mix-blend-mode:normal;shape-margin:0;shape-padding:0;text-decoration-color:#000000;text-decoration-line:none;text-decoration-style:solid;text-indent:0;text-orientation:mixed;text-transform:none;white-space:normal"/>
    <path id="path866" d="m1039.8 425.06a5.9114 5.9114 0 0 0-5.9219 5.9102v106.11a5.9114 5.9114 0 0 0 8.8516 5.125l92.455-53.053a5.9114 5.9114 0 0 0 0-10.254l-92.455-53.053a5.9114 5.9114 0 0 0-2.9297-0.78515z" color="#000000" color-rendering="auto" dominant-baseline="auto" image-rendering="auto" solid-color="#000000" stop-color="#000000" style="font-feature-settings:normal;font-variant-alternates:normal;font-variant-caps:normal;font-variant-east-asian:normal;font-variant-ligatures:normal;font-variant-numeric:normal;font-variant-position:normal;font-variation-settings:normal;inline-size:0;isolation:auto;mix-blend-mode:normal;shape-margin:0;shape-padding:0;text-decoration-color:#000000;text-decoration-line:none;text-decoration-style:solid;text-indent:0;text-orientation:mixed;text-transform:none;white-space:normal"/>
   </g>
  </g>
 </g>
</svg>
