<?xml version="1.0" encoding="UTF-8"?>
<svg id="svg1829" width="128" height="128" version="1.1" viewBox="0 0 33.867 33.867" xmlns="http://www.w3.org/2000/svg" xmlns:cc="http://creativecommons.org/ns#" xmlns:dc="http://purl.org/dc/elements/1.1/" xmlns:rdf="http://www.w3.org/1999/02/22-rdf-syntax-ns#" xmlns:xlink="http://www.w3.org/1999/xlink">
 <defs id="defs1823">
  <radialGradient id="radialGradient886" cx="17.31" cy="2.5296" r="14.544" gradientTransform="matrix(7.1618 0 0 1.7511 -106.66 -1.9)" gradientUnits="userSpaceOnUse">
   <stop id="stop880" stop-color="#30cbff" offset="0"/>
   <stop id="stop882" stop-color="#0a6efc" offset="1"/>
  </radialGradient>
  <linearGradient id="linearGradient2050" x1="55.195" x2="55.195" y1="11.817" y2="26.316" gradientTransform="translate(-32.074 5.5256)" gradientUnits="userSpaceOnUse">
   <stop id="stop2044" stop-color="#ed63f9" offset="0"/>
   <stop id="stop2046" stop-color="#9328fa" offset="1"/>
  </linearGradient>
  <radialGradient id="radialGradient935" cx="190.85" cy="148.93" r="53.835" gradientTransform="matrix(.19727 0 0 .19727 -13.047 -4.9942)" gradientUnits="userSpaceOnUse">
   <stop id="stop925" offset="0"/>
   <stop id="stop961" stop-opacity=".74118" offset=".27788"/>
   <stop id="stop963" stop-opacity=".26275" offset=".5838"/>
   <stop id="stop967" stop-opacity=".21569" offset=".62282"/>
   <stop id="stop971" stop-opacity=".17255" offset=".66894"/>
   <stop id="stop975" stop-opacity=".13333" offset=".70968"/>
   <stop id="stop979" stop-opacity=".090196" offset=".76299"/>
   <stop id="stop977" stop-opacity=".066667" offset=".79677"/>
   <stop id="stop981" stop-opacity=".031373" offset=".86607"/>
   <stop id="stop947" stop-opacity=".027451" offset=".88823"/>
   <stop id="stop983" stop-opacity=".023529" offset=".90482"/>
   <stop id="stop987" stop-opacity=".019608" offset=".91823"/>
   <stop id="stop991" stop-opacity=".011765" offset=".9452"/>
   <stop id="stop927" stop-opacity="0" offset="1"/>
  </radialGradient>
  <linearGradient id="linearGradient938" x1="7.0883" x2="7.0883" y1="17.073" y2="60.171" gradientUnits="userSpaceOnUse">
   <stop id="stop932" stop-color="#fff" offset="0"/>
   <stop id="stop934" stop-color="#0a6efc" offset="1"/>
  </linearGradient>
  <linearGradient id="linearGradient962" x1="21.664" x2="21.664" y1="19.946" y2="42.457" gradientUnits="userSpaceOnUse">
   <stop id="stop956" stop-color="#fff" offset="0"/>
   <stop id="stop958" stop-color="#fff" stop-opacity="0" offset="1"/>
  </linearGradient>
 </defs>
 <metadata id="metadata1826">
  <rdf:RDF>
   <cc:Work rdf:about="">
    <dc:format>image/svg+xml</dc:format>
    <dc:type rdf:resource="http://purl.org/dc/dcmitype/StillImage"/>
    <dc:title/>
   </cc:Work>
  </rdf:RDF>
 </metadata>
 <g id="layer1">
  <g id="g1702" transform="matrix(.97573 0 0 .97573 -65.587 -37.192)" fill="none" opacity=".29676" stroke="#000" stroke-linecap="round" stroke-linejoin="round" stroke-opacity=".02">
   <rect id="rect1634" x="69.84" y="40.71" width="29.811" height="29.811" rx="6.6099" ry="6.6099" stroke-width=".1"/>
   <rect id="rect1638" x="69.84" y="40.71" width="29.811" height="29.811" rx="6.6099" ry="6.6099" stroke-width=".2"/>
   <rect id="rect1640" x="69.84" y="40.71" width="29.811" height="29.811" rx="6.6099" ry="6.6099" stroke-width=".3"/>
   <rect id="rect1642" x="69.84" y="40.71" width="29.811" height="29.811" rx="6.6099" ry="6.6099" stroke-width=".4"/>
   <rect id="rect1644" x="69.84" y="40.71" width="29.811" height="29.811" rx="6.6099" ry="6.6099" stroke-width=".5"/>
   <rect id="rect1646" x="69.84" y="40.71" width="29.811" height="29.811" rx="6.6099" ry="6.6099" stroke-width=".6"/>
   <rect id="rect1648" x="69.84" y="40.71" width="29.811" height="29.811" rx="6.6099" ry="6.6099" stroke-width=".7"/>
   <rect id="rect1650" x="69.84" y="40.71" width="29.811" height="29.811" rx="6.6099" ry="6.6099" stroke-width=".8"/>
   <rect id="rect1652" x="69.84" y="40.71" width="29.811" height="29.811" rx="6.6099" ry="6.6099"/>
   <rect id="rect1654" x="69.84" y="40.71" width="29.811" height="29.811" rx="6.6099" ry="6.6099" stroke-width="1.2"/>
   <rect id="rect1656" x="69.84" y="40.71" width="29.811" height="29.811" rx="6.6099" ry="6.6099" stroke-width="1.4"/>
   <rect id="rect1658" x="69.84" y="40.71" width="29.811" height="29.811" rx="6.6099" ry="6.6099" stroke-width="1.6"/>
   <rect id="rect1660" x="69.84" y="40.71" width="29.811" height="29.811" rx="6.6099" ry="6.6099" stroke-width="1.8"/>
   <rect id="rect1662" x="69.84" y="40.71" width="29.811" height="29.811" rx="6.6099" ry="6.6099" stroke-width="2"/>
   <rect id="rect1664" x="69.84" y="40.71" width="29.811" height="29.811" rx="6.6099" ry="6.6099" stroke-width="2.2"/>
   <rect id="rect1666" x="69.84" y="40.71" width="29.811" height="29.811" rx="6.6099" ry="6.6099" stroke-width="2.6"/>
   <rect id="rect1668" x="69.84" y="40.71" width="29.811" height="29.811" rx="6.6099" ry="6.6099" stroke-width="3"/>
   <rect id="rect1670" x="69.84" y="40.71" width="29.811" height="29.811" rx="6.6099" ry="6.6099" stroke-width="3.4"/>
   <rect id="rect1672" x="69.84" y="40.71" width="29.811" height="29.811" rx="6.6099" ry="6.6099" stroke-width="3.8"/>
   <rect id="rect1674" x="69.84" y="40.71" width="29.811" height="29.811" rx="6.6099" ry="6.6099" stroke-width="4.2"/>
   <rect id="rect1676" x="69.84" y="40.71" width="29.811" height="29.811" rx="6.6099" ry="6.6099" stroke-width="4.6"/>
   <rect id="rect1678" x="69.84" y="40.71" width="29.811" height="29.811" rx="6.6099" ry="6.6099" stroke-width="5"/>
  </g>
  <rect id="rect849-5" x="2.5579" y="2.5293" width="29.087" height="29.087" rx="6.4495" ry="6.4495" fill="url(#radialGradient886)" stroke-linecap="round" stroke-linejoin="round" stroke-width="2.6877"/>
  <path id="path940" d="m15.929 7.2846-0.21317 2.0036-1.5167 1.3318 1.8442 0.82238 0.79989 1.8501 1.3534-1.4961 2.0105-0.18775-1.0072-1.7465 0.44297-1.9665-1.9763 0.41657zm7.4112 1.0013-0.63756 0.78424-0.99351 0.14081 0.53978 0.85661-0.17504 0.99937 0.97102-0.25424 0.88594 0.4772 0.06063-1.014 0.72166-0.70504-0.93288-0.37159zm-10.747 4.0053c-0.85916-4e-3 -1.8258 0.06816-2.4378 0.19557-4.5845 0.95434-1.8264 4.4045 0.66886 4.6654 3.0238 0.704 10.186-1.3463 13.087-1.8442 0.38373-0.06587 0.74462-0.11041 0.95733-0.12223 1.1992-0.06668 2.3138 0.2483 2.5415 0.31976 0.04613 0.01173 0.47005 0.20268 0.23958-0.26696-0.18132-0.36948-2.048-1.5421-3.2778-1.7875-0.96058-0.32015-1.9623-0.72442-3.0255-0.64734-1.3146 0.09531-3.0882 1.6914-2.3312 1.68 0.74624-0.01135 1.6852-0.68961 2.517-0.67864 0.60916 0.0079 2.0717 0.16659 1.7748 0.60432-0.2934 0.35988-4.697 0.76825-8.0683 0.63561-2.0336-0.08002-4.2537-1.0068-3.4225-1.6457 0.98848-0.75981 2.7514-0.6647 2.5688-0.84487-0.18103-0.17867-0.93228-0.25895-1.7914-0.26304zm10.264 3.798c-2.8528 0.29224-5.7996 1.5308-10.006 1.7171 0.16781 2.7825-0.43074 5.209-1.1294 7.0289-0.24781 1.1109 1.3958 1.8593 3.5447 2.2902 3.5886 0.71951 8.2409-0.80482 8.4458-2.0212-0.04516-0.76128-1.7157-4.9053-0.85465-9.0149z" fill="#051c77" fill-opacity=".22401" stroke-width=".50066"/>
  <path id="path8" d="m15.326 7.06-0.21317 2.0036-1.5167 1.3318 1.8442 0.82238 0.79989 1.8501 1.3534-1.4961 2.0105-0.18775-1.0072-1.7465 0.44297-1.9665-1.9763 0.41657zm7.4112 1.0013-0.63756 0.78424-0.99351 0.14081 0.53978 0.85661-0.17504 0.99937 0.97102-0.25424 0.88594 0.4772 0.06063-1.014 0.72166-0.70504-0.93288-0.37159zm-10.747 4.0053c-0.85916-4e-3 -1.8258 0.06816-2.4378 0.19557-4.5845 0.95434-1.8264 4.4045 0.66886 4.6654 3.0238 0.704 10.186-1.3463 13.087-1.8442 0.38373-0.06587 0.74462-0.11041 0.95733-0.12223 1.1992-0.06668 2.3138 0.2483 2.5415 0.31976 0.04613 0.01173 0.47005 0.20268 0.23958-0.26696-0.18132-0.36948-2.048-1.5421-3.2778-1.7875-0.96058-0.32015-1.9623-0.72442-3.0255-0.64734-1.3146 0.09531-3.0882 1.6914-2.3312 1.68 0.74624-0.01135 1.6852-0.68961 2.517-0.67864 0.60916 0.0079 2.0717 0.16659 1.7748 0.60432-0.2934 0.35988-4.697 0.76825-8.0683 0.63561-2.0336-0.08002-4.2537-1.0068-3.4225-1.6457 0.98848-0.75981 2.7514-0.6647 2.5688-0.84487-0.18103-0.17867-0.93228-0.25895-1.7914-0.26304zm10.264 3.798c-2.8528 0.29224-5.7996 1.5308-10.006 1.7171 0.16781 2.7825-0.43074 5.209-1.1294 7.0289-0.24781 1.1109 1.3958 1.8593 3.5447 2.2902 3.5886 0.71951 8.2409-0.80482 8.4458-2.0212-0.04516-0.76128-1.7157-4.9053-0.85465-9.0149z" fill="url(#linearGradient938)" stroke-width=".50066"/>
  <path id="path942" transform="scale(.26458)" d="m71.963 28.994-1.9395 0.4082-1.3457 5.9648 3.8066 6.6016-7.5977 0.70898-4.3359 4.793 0.83008 1.9199 5.1152-5.6543 7.5996-0.70898-3.8066-6.6016 1.6738-7.4316zm13.975 1.4746-0.69141 0.84961 0.74414 1.543 1.3613 0.54102-1.4141-2.9336zm3.2754 4.0938-2.4238 2.3691-0.23047 3.832-3.3477-1.8027-1.7891 0.46875-0.27148 1.5488 3.6699-0.96094 3.3477 1.8047 0.23047-3.834 2.7266-2.6641-1.9121-0.76172zm-37.568 4.502-0.25586 0.22461 5.541 2.4727-0.18164-0.42188-5.1035-2.2754zm-1.748 6.8281c-1.6371 0.33146-6.2367 0.62362-9.125 2.8438-1.4317 1.1005-0.45415 2.4238 1.7461 3.5703-0.95651-0.85535-1.1424-1.7406-0.13672-2.5137 3.736-2.8717 10.399-2.5124 9.709-3.1934-0.3186-0.31443-1.1166-0.54537-2.1934-0.70703zm27.598 4.377c-2.6831-0.035415-5.6579 1.8175-8.2266 2.3906-0.51579 0.73211-0.51395 1.245 0.32227 1.2324 2.8204-0.042898 6.37-2.6059 9.5137-2.5645 1.3136 0.017036 3.6491 0.22893 5.2285 0.70703-0.2253-1.2617-4.7956-1.7391-6.8379-1.7656zm20.977 3.5059c1.1166 0.78948 1.9388 1.4929 2.1445 1.9121 0.87109 1.775-0.7319 1.0541-0.90625 1.0098-0.86052-0.27008-5.0731-1.461-9.6055-1.209-0.80393 0.044701-2.1688 0.21198-3.6191 0.46094-10.963 1.8821-38.032 9.6315-49.461 6.9707-1.9096-0.19968-3.8569-0.89852-5.6094-1.9082 2.1134 1.5746 4.6989 2.7033 7.2188 2.9668 11.429 2.6608 38.5-5.0886 49.463-6.9707 1.4503-0.24896 2.8133-0.41819 3.6172-0.46289 4.5324-0.25202 8.7449 0.93891 9.6055 1.209 0.17435 0.044334 1.7773 0.7672 0.90625-1.0078-0.29488-0.60089-1.7995-1.7668-3.7539-2.9707zm-14.359 6.1855c-0.61673 0.063176-1.2356 0.13944-1.8555 0.22461-2.6642 15.102 3.3086 29.991 3.4746 32.789-0.77432 4.5975-18.357 10.358-31.92 7.6387-3.8984-0.78165-7.3461-1.8419-9.7852-3.1953 2.3694 1.8714 6.5327 3.2791 11.395 4.2539 13.563 2.7194 31.148-3.0412 31.922-7.6387-0.17068-2.8773-6.4848-18.54-3.2305-34.072z" fill="#000978" fill-opacity=".11312" stroke-width="1.8923"/>
  <circle id="circle923" cx="24.602" cy="24.384" r="10.62" fill="url(#radialGradient935)" opacity=".64216"/>
  <path id="circle2973-0-2-9" d="m32.623 24.358a7.6912 7.6912 0 0 1-7.6912 7.6912 7.6912 7.6912 0 0 1-7.6912-7.6912 7.6912 7.6912 0 0 1 7.6912-7.6912 7.6912 7.6912 0 0 1 7.6912 7.6912z" fill="url(#linearGradient2050)" stroke-width="1.938"/>
  <path id="path22" d="m22.122 19.37c-0.25303 0-0.4583 0.20047-0.4583 0.44759v6.7237c0 0.24712 0.20529 0.42188 0.4583 0.42533h1.2298v1.2661h-1.2298c-0.25303 0-0.4583 0.16091-0.4583 0.40802v0.41049c0 0.24712 0.20527 0.44759 0.4583 0.44759h5.4139c0.25303 0 0.4583-0.20047 0.4583-0.44759v-0.41049c0-0.24712-0.20534-0.40197-0.4583-0.40802h-1.2298v-1.2661h1.2298c0.25303 0 0.4583-0.17821 0.4583-0.42533v-6.7237c0-0.24712-0.20527-0.44759-0.4583-0.44759zm2.707 1.2661c1.0488 0 1.8992 0.85027 1.8992 1.8992 0 1.0489-0.85027 1.8992-1.8992 1.8992-1.0489 0-1.8992-0.85028-1.8992-1.8992 0-1.0489 0.85034-1.8992 1.8992-1.8992zm0 0.84407c-0.58274 0-1.0551 0.47235-1.0551 1.0551 0 0.58274 0.47235 1.0551 1.0551 1.0551 0.58274 0 1.0551-0.47235 1.0551-1.0551 0-0.58274-0.47235-1.0551-1.0551-1.0551zm0 0.42203c0.34965 0 0.63305 0.2834 0.63305 0.63305 7.3e-5 0.34958-0.2834 0.63305-0.63305 0.63305-0.34965 0-0.63305-0.28347-0.63305-0.63305 0-0.34965 0.2834-0.63305 0.63305-0.63305zm1.6881 2.9542c0.34959 0 0.63305 0.28346 0.63305 0.63305 0 0.34959-0.28346 0.63305-0.63305 0.63305-0.34959 0-0.63305-0.28346-0.63305-0.63305 0-0.34959 0.28346-0.63305 0.63305-0.63305z" fill="url(#linearGradient962)" stroke-width=".42203"/>
 </g>
</svg>
