<?xml version="1.0" encoding="UTF-8"?>
<svg id="svg1603" width="128" height="128" version="1.1" viewBox="0 0 33.867 33.867" xmlns="http://www.w3.org/2000/svg" xmlns:cc="http://creativecommons.org/ns#" xmlns:dc="http://purl.org/dc/elements/1.1/" xmlns:rdf="http://www.w3.org/1999/02/22-rdf-syntax-ns#" xmlns:xlink="http://www.w3.org/1999/xlink">
 <defs id="defs1597">
  <linearGradient id="linearGradient4292" x1="19.336" x2="19.336" y1="31.327" y2="3.272" gradientTransform="translate(.030244 -.078639)" gradientUnits="userSpaceOnUse">
   <stop id="stop4286" stop-color="#28282a" offset="0"/>
   <stop id="stop4288" stop-color="#45494b" offset="1"/>
  </linearGradient>
  <linearGradient id="linearGradient4259" x1="32.643" x2="-.021682" y1="17.868" y2="17.868" gradientTransform="translate(.030244 -1.1395)" gradientUnits="userSpaceOnUse">
   <stop id="stop4261" stop-color="#544c41" offset="0"/>
   <stop id="stop4263" stop-color="#d5d1c8" offset=".25869"/>
   <stop id="stop4265" stop-color="#d0d1c7" offset=".51739"/>
   <stop id="stop4267" stop-color="#ced0c3" offset=".71043"/>
   <stop id="stop4271" stop-color="#2a2319" offset="1"/>
  </linearGradient>
  <linearGradient id="linearGradient4390" x1="2.3963" x2="15.522" y1="18.621" y2="18.621" gradientTransform="translate(.030244 -.078639)" gradientUnits="userSpaceOnUse">
   <stop id="stop4384" offset="0"/>
   <stop id="stop4386" stop-opacity="0" offset="1"/>
  </linearGradient>
  <linearGradient id="linearGradient4223" x1="2.452" x2="4.1614" y1="14.837" y2="14.837" gradientTransform="translate(-.060416 .0048147)" gradientUnits="userSpaceOnUse">
   <stop id="stop4225" stop-color="#3d4042" offset="0"/>
   <stop id="stop4239" stop-color="#5b5e61" offset=".22937"/>
   <stop id="stop4237" stop-color="#64686c" offset=".50314"/>
   <stop id="stop4241" stop-color="#3e4143" offset=".7881"/>
   <stop id="stop4227" stop-color="#262729" offset="1"/>
  </linearGradient>
  <linearGradient id="linearGradient4327" x1="18.56" x2="18.56" y1="26.492" y2="4.831" gradientTransform="translate(.030244 -.078639)" gradientUnits="userSpaceOnUse">
   <stop id="stop4321" stop-color="#313234" offset="0"/>
   <stop id="stop4323" stop-color="#45494b" offset="1"/>
  </linearGradient>
  <linearGradient id="linearGradient4319" x1="13.332" x2="16.76" y1="95.192" y2="107.98" gradientTransform="matrix(.26458 0 0 .26458 .030244 -.078639)" gradientUnits="userSpaceOnUse">
   <stop id="stop4313" stop-color="#5d2e2b" stop-opacity="0" offset="0"/>
   <stop id="stop4315" stop-color="#262729" offset="1"/>
  </linearGradient>
  <linearGradient id="linearGradient4371" x1="74.836" x2="74.836" y1="1042.4" y2="1035.7" gradientTransform="matrix(.26458 0 0 .26458 -9.2914 -245.13)" gradientUnits="userSpaceOnUse">
   <stop id="stop4367" stop-color="#ea1515" offset="0"/>
   <stop id="stop4369" stop-color="#800000" offset="1"/>
  </linearGradient>
 </defs>
 <metadata id="metadata1600">
  <rdf:RDF>
   <cc:Work rdf:about="">
    <dc:format>image/svg+xml</dc:format>
    <dc:type rdf:resource="http://purl.org/dc/dcmitype/StillImage"/>
    <dc:title/>
   </cc:Work>
  </rdf:RDF>
 </metadata>
 <g id="layer1">
  <g id="g1702" transform="matrix(.97573 0 0 .97573 -65.718 -37.282)" fill="none" opacity=".295" stroke="#000" stroke-linecap="round" stroke-linejoin="round" stroke-opacity=".02">
   <rect id="rect1634" x="69.84" y="40.71" width="29.811" height="29.811" rx="6.6099" ry="6.6099" stroke-width=".1"/>
   <rect id="rect1638" x="69.84" y="40.71" width="29.811" height="29.811" rx="6.6099" ry="6.6099" stroke-width=".2"/>
   <rect id="rect1640" x="69.84" y="40.71" width="29.811" height="29.811" rx="6.6099" ry="6.6099" stroke-width=".3"/>
   <rect id="rect1642" x="69.84" y="40.71" width="29.811" height="29.811" rx="6.6099" ry="6.6099" stroke-width=".4"/>
   <rect id="rect1644" x="69.84" y="40.71" width="29.811" height="29.811" rx="6.6099" ry="6.6099" stroke-width=".5"/>
   <rect id="rect1646" x="69.84" y="40.71" width="29.811" height="29.811" rx="6.6099" ry="6.6099" stroke-width=".6"/>
   <rect id="rect1648" x="69.84" y="40.71" width="29.811" height="29.811" rx="6.6099" ry="6.6099" stroke-width=".7"/>
   <rect id="rect1650" x="69.84" y="40.71" width="29.811" height="29.811" rx="6.6099" ry="6.6099" stroke-width=".8"/>
   <rect id="rect1652" x="69.84" y="40.71" width="29.811" height="29.811" rx="6.6099" ry="6.6099"/>
   <rect id="rect1654" x="69.84" y="40.71" width="29.811" height="29.811" rx="6.6099" ry="6.6099" stroke-width="1.2"/>
   <rect id="rect1656" x="69.84" y="40.71" width="29.811" height="29.811" rx="6.6099" ry="6.6099" stroke-width="1.4"/>
   <rect id="rect1658" x="69.84" y="40.71" width="29.811" height="29.811" rx="6.6099" ry="6.6099" stroke-width="1.6"/>
   <rect id="rect1660" x="69.84" y="40.71" width="29.811" height="29.811" rx="6.6099" ry="6.6099" stroke-width="1.8"/>
   <rect id="rect1662" x="69.84" y="40.71" width="29.811" height="29.811" rx="6.6099" ry="6.6099" stroke-width="2"/>
   <rect id="rect1664" x="69.84" y="40.71" width="29.811" height="29.811" rx="6.6099" ry="6.6099" stroke-width="2.2"/>
   <rect id="rect1666" x="69.84" y="40.71" width="29.811" height="29.811" rx="6.6099" ry="6.6099" stroke-width="2.6"/>
   <rect id="rect1668" x="69.84" y="40.71" width="29.811" height="29.811" rx="6.6099" ry="6.6099" stroke-width="3"/>
   <rect id="rect1670" x="69.84" y="40.71" width="29.811" height="29.811" rx="6.6099" ry="6.6099" stroke-width="3.4"/>
   <rect id="rect1672" x="69.84" y="40.71" width="29.811" height="29.811" rx="6.6099" ry="6.6099" stroke-width="3.8"/>
   <rect id="rect1674" x="69.84" y="40.71" width="29.811" height="29.811" rx="6.6099" ry="6.6099" stroke-width="4.2"/>
   <rect id="rect1676" x="69.84" y="40.71" width="29.811" height="29.811" rx="6.6099" ry="6.6099" stroke-width="4.6"/>
   <rect id="rect1678" x="69.84" y="40.71" width="29.811" height="29.811" rx="6.6099" ry="6.6099" stroke-width="5"/>
  </g>
  <rect id="rect849" x="2.4265" y="2.4399" width="29.087" height="29.087" rx="6.4495" ry="6.4495" fill="url(#linearGradient4292)" stroke-linecap="round" stroke-linejoin="round" stroke-width="2.688"/>
  <path id="rect4247" d="m8.876 6.6177h15.345c3.573 0 6.4495 2.8765 6.4495 6.4495v10.95c0 3.573-2.8765 6.4495-6.4495 6.4495h-15.345c-2.6808 0-6.4495-2.8765-6.4495-6.4495v-10.95c0-3.573 2.8765-6.4495 6.4495-6.4495z" fill="url(#linearGradient4259)" stroke-linecap="round" stroke-linejoin="round" stroke-width="2.688"/>
  <path id="path4382" d="m8.876 6.6177h15.345c3.573 0 6.4495 2.8765 6.4495 6.4495v10.95c0 3.573-2.8765 6.4495-6.4495 6.4495h-15.345c-2.6808 0-6.4495-2.8765-6.4495-6.4495v-10.95c0-3.573 2.8765-6.4495 6.4495-6.4495z" fill="url(#linearGradient4390)" opacity=".45176" stroke-linecap="round" stroke-linejoin="round" stroke-width="2.688"/>
  <path id="rect4221" d="m5.1199 3.6591c-0.13336 0.091951-0.26283 0.18892-0.38861 0.29042-0.085241 0.068785-0.16855 0.13993-0.25011 0.21291-1.2649 1.176-2.0547 2.8555-2.0547 4.7268v16.189c0 2.4894 1.3971 4.639 3.4525 5.7149l0.81545-0.69246c-2.1239-0.56911-2.1314-3.3696-2.1314-7.3643z" fill="url(#linearGradient4223)" stroke-linecap="round" stroke-linejoin="round" stroke-width="2.688"/>
  <path id="rect4244" d="m14.921 2.4401c-0.81364 0-1.4826 0.15065-2.0324 0.42323h-5.9609c-1.3087 0-2.3621 1.054-2.3621 2.3626v20.553c0 1.3087 1.7928 2.3621 3.1015 2.3621l17.404 0.0021c3.573 0 6.4497-2.8767 6.4497-6.4497v-12.804c0-3.573-2.8767-6.4492-6.4497-6.4492z" fill="url(#linearGradient4327)" stroke-linecap="round" stroke-linejoin="round" stroke-width="2.688"/>
  <path id="path4311" d="m5.1199 3.6591c-0.13336 0.091951-0.26283 0.18892-0.38861 0.29042-0.085241 0.068785-0.16855 0.13993-0.25011 0.21291-1.2649 1.176-2.0547 2.8555-2.0547 4.7268v16.189c0 2.4894 1.3971 4.639 3.4525 5.7149l1.2822-0.66464c-2.1239-0.56911-2.5982-3.3974-2.5982-7.3921z" fill="url(#linearGradient4319)" stroke-linecap="round" stroke-linejoin="round" stroke-width="2.688"/>
  <path id="rect4329" d="m8.8762 2.4401c-3.573 0-6.4497 2.8762-6.4497 6.4492v0.48731c0-3.573 2.8767-6.4497 6.4497-6.4497h16.188c3.573 0 6.4497 2.8767 6.4497 6.4497v-0.48731c0-3.573-2.8767-6.4492-6.4497-6.4492z" fill="#c5c5c5" fill-opacity=".10699" stroke-linecap="round" stroke-linejoin="round" stroke-width="2.688"/>
  <g id="g4380" transform="translate(.030244 -.078639)" opacity=".34628" stroke-linecap="round" stroke-linejoin="round" stroke-width="10.159">
   <path id="path4344" transform="scale(.26458)" d="m119.02 81.693c0 13.504-10.873 24.377-24.377 24.377l-65.777-8e-3c-4.9462 0-11.723-3.9816-11.723-8.9277v0.5957c0 4.9462 6.7765 8.9277 11.723 8.9277l65.777 8e-3c13.504 0 24.377-10.873 24.377-24.377z" fill-opacity=".17939"/>
   <path id="path4351" transform="scale(.26458)" d="m119.02 81.17c0 13.504-10.873 24.377-24.377 24.377l-65.777-8e-3c-4.9462 0-11.723-3.9816-11.723-8.9277v1.1191c0 4.9462 6.7765 8.9277 11.723 8.9277l65.777 8e-3c13.504 0 24.377-10.873 24.377-24.377z" fill-opacity=".17939"/>
   <path id="path4360" transform="scale(.26458)" d="m119.02 80.684c0 13.504-10.873 24.377-24.377 24.377l-65.777-8e-3c-4.9462 0-11.723-3.9816-11.723-8.9277v1.6055c0 4.9462 6.7765 8.9277 11.723 8.9277l65.777 8e-3c13.504 0 24.377-10.873 24.377-24.377z" fill-opacity=".17939"/>
   <path id="path4365" transform="scale(.26458)" d="m119.02 80.232c0 13.504-10.873 24.377-24.377 24.377l-65.777-8e-3c-4.9462 0-11.723-3.9816-11.723-8.9277v2.0566c0 4.9462 6.7765 8.9277 11.723 8.9277l65.777 8e-3c13.504 0 24.377-10.873 24.377-24.377z" fill-opacity=".17939"/>
   <path id="path4370" transform="scale(.26458)" d="m119.02 79.527c0 13.504-10.873 24.377-24.377 24.377l-65.777-8e-3c-4.9462 0-11.723-3.9816-11.723-8.9277v2.7617c0 4.9462 6.7765 8.9277 11.723 8.9277l65.777 8e-3c13.504 0 24.377-10.873 24.377-24.377z" fill-opacity=".26883"/>
  </g>
  <path id="rect10454" d="m8.9347 29.072h2.9406v3.0645l-1.4221-0.94829-1.5184 0.94829z" fill="url(#linearGradient4371)" stroke-width=".26458"/>
  <g id="g1018" transform="matrix(1.4386 0 0 1.4386 -5.4496 -8.105)" stroke-width="1px">
   <g id="g4339" transform="matrix(.23884 0 0 .2931 4.4816 -247.23)" opacity=".2">
    <path id="path4341" d="m79.092 896.12h1.7771v7.7239h-1.7771z"/>
    <path id="path4343" d="m77.389 902.01q0 0.90344-0.33755 1.385-0.31769 0.45668-0.95308 0.45668h-1.7721v-1.2708h0.48647q0.33755 0 0.55596-0.21841 0.24323-0.24324 0.24323-0.76942v-5.4653h1.7771z"/>
    <path id="path4345" d="m71.006 897.39h0.7446v0.7446h-0.7446zm-1.241 0h0.7446v0.7446h-0.7446zm-0.68999 1.8565q0.69992-0.32762 1.6828-0.32762t1.6828 0.32762q0.43187 0.20352 0.68999 0.78431 0.1787 0.40208 0.1787 1.1715 0 0.62546-0.82898 1.2708 0.82898 0.0993 1.8019 0.0993h0.23331v1.2708h-0.53115q-0.95805 0-1.7473-0.0745-0.97294-0.0943-1.4793-0.34251-0.50632 0.2482-1.4793 0.34251-0.78927 0.0745-1.7473 0.0745h-0.53114v-1.2708h0.23331q0.97294 0 1.8019-0.0993-0.82898-0.64531-0.82898-1.2708 0-0.76942 0.1787-1.1715 0.25813-0.58079 0.68999-0.78431zm1.6828 2.5316q0.68006-0.25813 0.68006-0.77438 0-0.38719-0.22834-0.66021-0.1241-0.14892-0.45172-0.14892-0.32762 0-0.45172 0.14892-0.22834 0.27302-0.22834 0.66021 0 0.51625 0.68006 0.77438z"/>
    <path id="path4347" d="m65.788 903.72q-0.10921 0.40208-0.29784 0.68503-0.63042 0.93819-1.7374 1.4247-1.1417 0.50136-3.4102 0.50136v-1.2708q1.5339 0 2.3082-0.33755 0.76445-0.33259 1.1566-0.87366 0.36237-0.50136 0.35244-1.4098 0-0.71977-0.25813-1.3204h1.7771q0.0546 0.16877 0.09928 0.32762 0.16878 0.62049 0.45669 0.91337 0.21842 0.21841 0.58078 0.21841h0.3723v1.2708h-0.64532q-0.4269 0-0.75452-0.12906z"/>
    <path id="path4349" d="m57.072 894.83 0.82402-0.61057q0.52618 0.44179 0.75949 0.49143 0.38719 0.0844 0.68503 0.0894 0.35244 0 0.64532-0.10425 0.58078-0.20352 0.96797-0.55596v0.84387q-0.3028 0.25813-0.89352 0.43683-0.41697 0.12907-0.74956 0.13403-0.49143 0-0.75452-0.10921-0.28791-0.11913-0.63539-0.38222l-0.84884 0.61057v-0.84388zm1.0524 1.2956h1.7771v7.7239h-1.7771z"/>
    <path id="path4351-3" d="m51.944 899.21h0.7446v0.74459h-0.7446zm4.5718 3.0926q5e-3 0.85877-0.4964 1.7424-0.6205 1.0921-1.7821 1.3154-0.87862 0.16877-1.5736 0.16877-0.95308 0-1.7126-0.21841-1.7324-0.49143-1.7324-2.2934 0-0.69495 0.19856-1.5686h1.7771q-0.20849 0.79423-0.20849 1.4544 0 0.88359 0.99776 1.2509 0.27302 0.0993 0.66021 0.0993 0.27798 0 0.58078-0.0794 1.0573-0.26806 1.3353-1.0673 0.16381-0.47157 0.16381-1.0623 0-0.81409-0.50136-1.9161h1.7771q0.51129 0.81409 0.51625 2.1742z"/>
    <path id="path4353" d="m42.418 896.12h1.7771v7.7239h-1.7771z"/>
    <path id="path4355" d="m40.715 902.01q0 0.90344-0.33755 1.385-0.31769 0.45668-0.95308 0.45668h-1.7721v-1.2708h0.48647q0.33755 0 0.55596-0.21841 0.24324-0.24324 0.24324-0.76942v-5.4653h1.7771z"/>
    <path id="path4357" d="m36 903.47q-0.52618 0.3723-1.6927 0.3723h-2.5713v-1.2708h1.9657q0.56589 0 0.65028-0.19359 0.07942-0.1787 0.07942-0.35741 0-0.13899-0.38719-0.63539l-1.4743-1.8863q-0.2482-0.31273-0.2482-0.70488 0-0.17374 0.04964-0.33755 0.16878-0.63539 0.67014-0.7992l4.7058-1.5388v1.2708l-2.8344 0.98784q-0.33755 0.11913-0.45669 0.34747-0.02978 0.0546-0.02978 0.17871 0 0.13899 0.15388 0.34251l2.0799 2.7798q0.1787 0.23827 0.41697 0.41697 0.17374 0.12906 0.44676 0.12906h0.32266v1.2708h-0.70985q-0.76445 0-1.1368-0.3723z"/>
    <path id="path4359" d="m30.524 903.72q-0.10921 0.40208-0.29784 0.68503-0.63042 0.93819-1.7374 1.4247-1.1417 0.50136-3.4102 0.50136v-1.2708q1.5339 0 2.3082-0.33755 0.76445-0.33259 1.1566-0.87366 0.36237-0.50136 0.35244-1.4098 0-0.71977-0.25813-1.3204h1.7771q0.0546 0.16877 0.09928 0.32762 0.16878 0.62049 0.45668 0.91337 0.21842 0.21841 0.58078 0.21841h0.3723v1.2708h-0.64532q-0.4269 0-0.75452-0.12906z"/>
    <path id="path4361" d="m24.012 904.79h0.7446v0.74459h-0.7446zm-1.241 0h0.7446v0.74459h-0.7446zm1.8813-2.7848q0 0.90344-0.33755 1.385-0.31769 0.45668-0.95308 0.45668h-1.7721v-1.2708h0.48647q0.33755 0 0.55596-0.21841 0.24324-0.24324 0.24324-0.76942v-0.71977h1.7771z"/>
    <path id="path4363" d="m19.926 903.66q-0.59568 0.42194-1.5785 0.42194-1.38 0-1.787-0.33258-0.10921-0.0894-0.29288 0.24819-0.08935 0.15885-0.08935 0.4418v1.8863h-1.7771v-1.8863q0-1.107 0.59568-1.4495 0.73963-0.42194 1.1914-0.48151l-0.0099-0.11417q0-0.73467 0.80416-1.3899 0.38223-0.31273 1.1715-0.31273 0.78431 0 1.1765 0.1787 0.68503 0.31273 0.92826 0.83891 0.23827 0.52122 0.38719 0.69496 0.14396 0.16877 0.75949 0.16877h0.3723v1.2708h-0.64532q-0.88855 0-1.0673-0.29287-0.10424 0.0844-0.13899 0.1092zm-1.3155-0.94315q0.16878-0.11417 0.16878-0.25316 0-0.20353-0.11417-0.3177-0.05957-0.0596-0.21842-0.15885-0.0546-0.0397-0.25316-0.0298-0.15885 0.01-0.23827 0.10424-0.14396 0.15389-0.14396 0.41201 0 0.139 0.04964 0.26806 0.12906 0.0695 0.42194 0.0695 0.1936 0 0.32762-0.0943z"/>
   </g>
   <g id="text10448" transform="matrix(.23884 0 0 .2931 4.4816 -247.62)" fill="#fef0d2">
    <path id="path4273" d="m79.092 896.12h1.7771v7.7239h-1.7771z"/>
    <path id="path4275" d="m77.389 902.01q0 0.90344-0.33755 1.385-0.31769 0.45668-0.95308 0.45668h-1.7721v-1.2708h0.48647q0.33755 0 0.55596-0.21841 0.24323-0.24324 0.24323-0.76942v-5.4653h1.7771z"/>
    <path id="path4277" d="m71.006 897.39h0.7446v0.7446h-0.7446zm-1.241 0h0.7446v0.7446h-0.7446zm-0.68999 1.8565q0.69992-0.32762 1.6828-0.32762t1.6828 0.32762q0.43187 0.20352 0.68999 0.78431 0.1787 0.40208 0.1787 1.1715 0 0.62546-0.82898 1.2708 0.82898 0.0993 1.8019 0.0993h0.23331v1.2708h-0.53115q-0.95805 0-1.7473-0.0745-0.97294-0.0943-1.4793-0.34251-0.50632 0.2482-1.4793 0.34251-0.78927 0.0745-1.7473 0.0745h-0.53114v-1.2708h0.23331q0.97294 0 1.8019-0.0993-0.82898-0.64531-0.82898-1.2708 0-0.76942 0.1787-1.1715 0.25813-0.58079 0.68999-0.78431zm1.6828 2.5316q0.68006-0.25813 0.68006-0.77438 0-0.38719-0.22834-0.66021-0.1241-0.14892-0.45172-0.14892-0.32762 0-0.45172 0.14892-0.22834 0.27302-0.22834 0.66021 0 0.51625 0.68006 0.77438z"/>
    <path id="path4279" d="m65.788 903.72q-0.10921 0.40208-0.29784 0.68503-0.63042 0.93819-1.7374 1.4247-1.1417 0.50136-3.4102 0.50136v-1.2708q1.5339 0 2.3082-0.33755 0.76445-0.33259 1.1566-0.87366 0.36237-0.50136 0.35244-1.4098 0-0.71977-0.25813-1.3204h1.7771q0.0546 0.16877 0.09928 0.32762 0.16878 0.62049 0.45669 0.91337 0.21842 0.21841 0.58078 0.21841h0.3723v1.2708h-0.64532q-0.4269 0-0.75452-0.12906z"/>
    <path id="path4281" d="m57.072 894.83 0.82402-0.61057q0.52618 0.44179 0.75949 0.49143 0.38719 0.0844 0.68503 0.0894 0.35244 0 0.64532-0.10425 0.58078-0.20352 0.96797-0.55596v0.84387q-0.3028 0.25813-0.89352 0.43683-0.41697 0.12907-0.74956 0.13403-0.49143 0-0.75452-0.10921-0.28791-0.11913-0.63539-0.38222l-0.84884 0.61057v-0.84388zm1.0524 1.2956h1.7771v7.7239h-1.7771z"/>
    <path id="path4283" d="m51.944 899.21h0.7446v0.74459h-0.7446zm4.5718 3.0926q5e-3 0.85877-0.4964 1.7424-0.6205 1.0921-1.7821 1.3154-0.87862 0.16877-1.5736 0.16877-0.95308 0-1.7126-0.21841-1.7324-0.49143-1.7324-2.2934 0-0.69495 0.19856-1.5686h1.7771q-0.20849 0.79423-0.20849 1.4544 0 0.88359 0.99776 1.2509 0.27302 0.0993 0.66021 0.0993 0.27798 0 0.58078-0.0794 1.0573-0.26806 1.3353-1.0673 0.16381-0.47157 0.16381-1.0623 0-0.81409-0.50136-1.9161h1.7771q0.51129 0.81409 0.51625 2.1742z"/>
    <path id="path4285" d="m42.418 896.12h1.7771v7.7239h-1.7771z"/>
    <path id="path4287" d="m40.715 902.01q0 0.90344-0.33755 1.385-0.31769 0.45668-0.95308 0.45668h-1.7721v-1.2708h0.48647q0.33755 0 0.55596-0.21841 0.24324-0.24324 0.24324-0.76942v-5.4653h1.7771z"/>
    <path id="path4289" d="m36 903.47q-0.52618 0.3723-1.6927 0.3723h-2.5713v-1.2708h1.9657q0.56589 0 0.65028-0.19359 0.07942-0.1787 0.07942-0.35741 0-0.13899-0.38719-0.63539l-1.4743-1.8863q-0.2482-0.31273-0.2482-0.70488 0-0.17374 0.04964-0.33755 0.16878-0.63539 0.67014-0.7992l4.7058-1.5388v1.2708l-2.8344 0.98784q-0.33755 0.11913-0.45669 0.34747-0.02978 0.0546-0.02978 0.17871 0 0.13899 0.15388 0.34251l2.0799 2.7798q0.1787 0.23827 0.41697 0.41697 0.17374 0.12906 0.44676 0.12906h0.32266v1.2708h-0.70985q-0.76445 0-1.1368-0.3723z"/>
    <path id="path4291" d="m30.524 903.72q-0.10921 0.40208-0.29784 0.68503-0.63042 0.93819-1.7374 1.4247-1.1417 0.50136-3.4102 0.50136v-1.2708q1.5339 0 2.3082-0.33755 0.76445-0.33259 1.1566-0.87366 0.36237-0.50136 0.35244-1.4098 0-0.71977-0.25813-1.3204h1.7771q0.0546 0.16877 0.09928 0.32762 0.16878 0.62049 0.45668 0.91337 0.21842 0.21841 0.58078 0.21841h0.3723v1.2708h-0.64532q-0.4269 0-0.75452-0.12906z"/>
    <path id="path4293" d="m24.012 904.79h0.7446v0.74459h-0.7446zm-1.241 0h0.7446v0.74459h-0.7446zm1.8813-2.7848q0 0.90344-0.33755 1.385-0.31769 0.45668-0.95308 0.45668h-1.7721v-1.2708h0.48647q0.33755 0 0.55596-0.21841 0.24324-0.24324 0.24324-0.76942v-0.71977h1.7771z"/>
    <path id="path4295" d="m19.926 903.66q-0.59568 0.42194-1.5785 0.42194-1.38 0-1.787-0.33258-0.10921-0.0894-0.29288 0.24819-0.08935 0.15885-0.08935 0.4418v1.8863h-1.7771v-1.8863q0-1.107 0.59568-1.4495 0.73963-0.42194 1.1914-0.48151l-0.0099-0.11417q0-0.73467 0.80416-1.3899 0.38223-0.31273 1.1715-0.31273 0.78431 0 1.1765 0.1787 0.68503 0.31273 0.92826 0.83891 0.23827 0.52122 0.38719 0.69496 0.14396 0.16877 0.75949 0.16877h0.3723v1.2708h-0.64532q-0.88855 0-1.0673-0.29287-0.10424 0.0844-0.13899 0.1092zm-1.3155-0.94315q0.16878-0.11417 0.16878-0.25316 0-0.20353-0.11417-0.3177-0.05957-0.0596-0.21842-0.15885-0.0546-0.0397-0.25316-0.0298-0.15885 0.01-0.23827 0.10424-0.14396 0.15389-0.14396 0.41201 0 0.139 0.04964 0.26806 0.12906 0.0695 0.42194 0.0695 0.1936 0 0.32762-0.0943z"/>
   </g>
  </g>
 </g>
</svg>
