<?xml version="1.0" encoding="UTF-8"?>
<svg id="svg1829" width="128" height="128" version="1.1" viewBox="0 0 33.867 33.867" xmlns="http://www.w3.org/2000/svg" xmlns:cc="http://creativecommons.org/ns#" xmlns:dc="http://purl.org/dc/elements/1.1/" xmlns:rdf="http://www.w3.org/1999/02/22-rdf-syntax-ns#" xmlns:xlink="http://www.w3.org/1999/xlink">
 <defs id="defs1823">
  <radialGradient id="radialGradient886" cx="17.31" cy="2.5296" r="14.544" gradientTransform="matrix(7.1618 0 0 1.7511 -106.66 -1.9)" gradientUnits="userSpaceOnUse">
   <stop id="stop880" stop-color="#0ee782" offset="0"/>
   <stop id="stop882" stop-color="#00a9b8" offset="1"/>
  </radialGradient>
  <linearGradient id="linearGradient1634" x1="11.808" x2="11.808" y1="7.7022" y2="55.343" gradientUnits="userSpaceOnUse">
   <stop id="stop1628" stop-color="#fff" offset="0"/>
   <stop id="stop1630" stop-color="#00aab7" offset="1"/>
  </linearGradient>
 </defs>
 <metadata id="metadata1826">
  <rdf:RDF>
   <cc:Work rdf:about="">
    <dc:format>image/svg+xml</dc:format>
    <dc:type rdf:resource="http://purl.org/dc/dcmitype/StillImage"/>
   </cc:Work>
  </rdf:RDF>
 </metadata>
 <g id="layer1">
  <g id="g1702" transform="matrix(.97573 0 0 .97573 -65.587 -37.192)" fill="none" opacity=".29676" stroke="#000" stroke-linecap="round" stroke-linejoin="round" stroke-opacity=".02">
   <rect id="rect1634" x="69.84" y="40.71" width="29.811" height="29.811" rx="6.6099" ry="6.6099" stroke-width=".1"/>
   <rect id="rect1638" x="69.84" y="40.71" width="29.811" height="29.811" rx="6.6099" ry="6.6099" stroke-width=".2"/>
   <rect id="rect1640" x="69.84" y="40.71" width="29.811" height="29.811" rx="6.6099" ry="6.6099" stroke-width=".3"/>
   <rect id="rect1642" x="69.84" y="40.71" width="29.811" height="29.811" rx="6.6099" ry="6.6099" stroke-width=".4"/>
   <rect id="rect1644" x="69.84" y="40.71" width="29.811" height="29.811" rx="6.6099" ry="6.6099" stroke-width=".5"/>
   <rect id="rect1646" x="69.84" y="40.71" width="29.811" height="29.811" rx="6.6099" ry="6.6099" stroke-width=".6"/>
   <rect id="rect1648" x="69.84" y="40.71" width="29.811" height="29.811" rx="6.6099" ry="6.6099" stroke-width=".7"/>
   <rect id="rect1650" x="69.84" y="40.71" width="29.811" height="29.811" rx="6.6099" ry="6.6099" stroke-width=".8"/>
   <rect id="rect1652" x="69.84" y="40.71" width="29.811" height="29.811" rx="6.6099" ry="6.6099"/>
   <rect id="rect1654" x="69.84" y="40.71" width="29.811" height="29.811" rx="6.6099" ry="6.6099" stroke-width="1.2"/>
   <rect id="rect1656" x="69.84" y="40.71" width="29.811" height="29.811" rx="6.6099" ry="6.6099" stroke-width="1.4"/>
   <rect id="rect1658" x="69.84" y="40.71" width="29.811" height="29.811" rx="6.6099" ry="6.6099" stroke-width="1.6"/>
   <rect id="rect1660" x="69.84" y="40.71" width="29.811" height="29.811" rx="6.6099" ry="6.6099" stroke-width="1.8"/>
   <rect id="rect1662" x="69.84" y="40.71" width="29.811" height="29.811" rx="6.6099" ry="6.6099" stroke-width="2"/>
   <rect id="rect1664" x="69.84" y="40.71" width="29.811" height="29.811" rx="6.6099" ry="6.6099" stroke-width="2.2"/>
   <rect id="rect1666" x="69.84" y="40.71" width="29.811" height="29.811" rx="6.6099" ry="6.6099" stroke-width="2.6"/>
   <rect id="rect1668" x="69.84" y="40.71" width="29.811" height="29.811" rx="6.6099" ry="6.6099" stroke-width="3"/>
   <rect id="rect1670" x="69.84" y="40.71" width="29.811" height="29.811" rx="6.6099" ry="6.6099" stroke-width="3.4"/>
   <rect id="rect1672" x="69.84" y="40.71" width="29.811" height="29.811" rx="6.6099" ry="6.6099" stroke-width="3.8"/>
   <rect id="rect1674" x="69.84" y="40.71" width="29.811" height="29.811" rx="6.6099" ry="6.6099" stroke-width="4.2"/>
   <rect id="rect1676" x="69.84" y="40.71" width="29.811" height="29.811" rx="6.6099" ry="6.6099" stroke-width="4.6"/>
   <rect id="rect1678" x="69.84" y="40.71" width="29.811" height="29.811" rx="6.6099" ry="6.6099" stroke-width="5"/>
  </g>
  <rect id="rect849-5" x="2.5579" y="2.5293" width="29.087" height="29.087" rx="6.4495" ry="6.4495" fill="url(#radialGradient886)" stroke-linecap="round" stroke-linejoin="round" stroke-width="2.6877"/>
  <g id="g3528" fill="#000e3c" fill-opacity=".028941">
   <path id="path3390" d="m18.329 27.977c0.32441-0.69275 1.0699-1.2801 1.2919-2.0526 0.27273-0.71721 0.18506-1.5816-0.54183-2.001-0.25833-0.21942-0.65148-0.07461-0.96958-0.13257-1.6091-0.05603-3.391 0.0307-4.6941-1.0802-1.3204-1.1636-1.4406-3.1936-1.1769-4.8169 0.55916-2.7904 2.5351-5.0308 4.6522-6.83 0.29834-0.26744 1.2532-1.4037 0.33204-1.3224-1.3986-0.06228-4.5762-0.04478-4.5762-0.04478v-2.0642h9.9115v2.0642c-2.3908 1.5122-4.7808 3.5813-6.087 6.1439-0.62295 1.2134-0.8975 2.5171-0.33596 3.8 0.37116 0.75345 1.4478 1.0708 2.2492 1.0437 0.96152 0.10741 1.9866-0.07666 2.8982 0.29909 1.2608 0.54314 1.9171 1.9792 1.7792 3.2992-0.0544 1.2276-0.6901 2.7708-1.4724 3.6945z"/>
   <path id="path3518" d="m18.498 28.442c0.32441-0.69275 1.0699-1.2801 1.2919-2.0526 0.27273-0.71721 0.18506-1.5816-0.54183-2.001-0.25833-0.21942-0.65148-0.07461-0.96958-0.13257-1.6091-0.05603-3.391 0.0307-4.6941-1.0802-1.3204-1.1636-1.4406-3.1936-1.1769-4.8169 0.55916-2.7904 2.5351-5.0308 4.6522-6.83 0.29834-0.26744 1.2532-1.4037 0.33204-1.3224-1.3986-0.06228-4.5762-0.04478-4.5762-0.04478v-2.0642h9.9115v2.0642c-2.3908 1.5122-4.7808 3.5813-6.087 6.1439-0.62295 1.2134-0.8975 2.5171-0.33596 3.8 0.37116 0.75345 1.4478 1.0708 2.2492 1.0437 0.96152 0.10741 1.9866-0.07666 2.8982 0.29909 1.2608 0.54314 1.9171 1.9792 1.7792 3.2992-0.0544 1.2276-0.6901 2.7708-1.4724 3.6945z"/>
   <path id="path3520" d="m18.632 28.914c0.32441-0.69275 1.0699-1.2801 1.2919-2.0526 0.27273-0.71721 0.18506-1.5816-0.54183-2.001-0.25833-0.21942-0.65148-0.07461-0.96958-0.13257-1.6091-0.05603-3.391 0.0307-4.6941-1.0802-1.3204-1.1636-1.4406-3.1936-1.1769-4.8169 0.55916-2.7904 2.5351-5.0308 4.6522-6.83 0.29834-0.26744 1.2532-1.4037 0.33204-1.3224-1.3986-0.06228-4.5762-0.04478-4.5762-0.04478v-2.0642h9.9115v2.0642c-2.3908 1.5122-4.7808 3.5813-6.087 6.1439-0.62295 1.2134-0.8975 2.5171-0.33596 3.8 0.37116 0.75345 1.4478 1.0708 2.2492 1.0437 0.96152 0.10741 1.9866-0.07666 2.8982 0.29909 1.2608 0.54314 1.9171 1.9792 1.7792 3.2992-0.0544 1.2276-0.6901 2.7708-1.4724 3.6945z"/>
   <path id="path3522" d="m18.767 29.722c0.32441-0.69275 1.0699-1.2801 1.2919-2.0526 0.27273-0.71721 0.18506-1.5816-0.54183-2.001-0.25833-0.21942-0.65148-0.07461-0.96958-0.13257-1.6091-0.05603-3.391 0.0307-4.6941-1.0802-1.3204-1.1636-1.4406-3.1936-1.1769-4.8169 0.55916-2.7904 2.5351-5.0308 4.6522-6.83 0.29834-0.26744 1.2532-1.4037 0.33204-1.3224-1.3986-0.06228-4.5762-0.04478-4.5762-0.04478v-2.0642h9.9115v2.0642c-2.3908 1.5122-4.7808 3.5813-6.087 6.1439-0.62295 1.2134-0.8975 2.5171-0.33596 3.8 0.37116 0.75345 1.4478 1.0708 2.2492 1.0437 0.96152 0.10741 1.9866-0.07666 2.8982 0.29909 1.2608 0.54314 1.9171 1.9792 1.7792 3.2992-0.0544 1.2276-0.6901 2.7708-1.4724 3.6945z"/>
  </g>
  <path id="path8" d="m18.012 27.734c0.32441-0.69275 1.0699-1.2801 1.2919-2.0526 0.27273-0.71721 0.18506-1.5816-0.54183-2.001-0.25833-0.21942-0.65148-0.07461-0.96958-0.13257-1.6091-0.05603-3.391 0.0307-4.6941-1.0802-1.3204-1.1636-1.4406-3.1936-1.1769-4.8169 0.55916-2.7904 2.5351-5.0308 4.6522-6.83 0.29834-0.26744 1.2532-1.4037 0.33204-1.3224-1.3986-0.062284-4.5762-0.044776-4.5762-0.044776v-2.0642h9.9115v2.0642c-2.3908 1.5122-4.7808 3.5813-6.087 6.1439-0.62295 1.2134-0.8975 2.5171-0.33596 3.8 0.37116 0.75345 1.4478 1.0708 2.2492 1.0437 0.96152 0.10741 1.9866-0.07666 2.8982 0.29909 1.2608 0.54314 1.9171 1.9792 1.7792 3.2992-0.0544 1.2276-0.6901 2.7708-1.4724 3.6945z" fill="url(#linearGradient1634)"/>
 </g>
</svg>
