<?xml version="1.0" encoding="UTF-8"?>
<svg id="svg1443" width="128" height="128" version="1.1" viewBox="0 0 33.867 33.867" xmlns="http://www.w3.org/2000/svg" xmlns:cc="http://creativecommons.org/ns#" xmlns:dc="http://purl.org/dc/elements/1.1/" xmlns:rdf="http://www.w3.org/1999/02/22-rdf-syntax-ns#" xmlns:xlink="http://www.w3.org/1999/xlink">
 <defs id="defs1437">
  <radialGradient id="radialGradient870" cx="16.951" cy="2.8905" r="14.544" gradientTransform="matrix(7.6697 0 0 2.6553 -113.06 -4.7848)" gradientUnits="userSpaceOnUse">
   <stop id="stop1626" stop-color="#aa5fff" offset="0"/>
   <stop id="stop1628" stop-color="#5100ea" offset="1"/>
  </radialGradient>
  <linearGradient id="linearGradient1076" x1="21.788" x2="20.031" y1="15.579" y2="14.564" gradientUnits="userSpaceOnUse">
   <stop id="stop1070" stop-color="#fff" offset="0"/>
   <stop id="stop1072" stop-color="#fff" stop-opacity="0" offset="1"/>
  </linearGradient>
  <radialGradient id="radialGradient1088" cx="11.749" cy="2.4167" r="9.4247" gradientTransform="matrix(1.1644 0 0 2.01 28.72 23.028)" gradientUnits="userSpaceOnUse">
   <stop id="stop1080" stop-color="#8f42f9" stop-opacity="0" offset="0"/>
   <stop id="stop1092" stop-color="#8f42f9" stop-opacity="0" offset=".42415"/>
   <stop id="stop1096" stop-color="#8f42f9" stop-opacity=".090196" offset=".54339"/>
   <stop id="stop1098" stop-color="#8f42f9" stop-opacity=".43529" offset=".76301"/>
   <stop id="stop1082" stop-color="#8f42f9" stop-opacity=".99652" offset="1"/>
  </radialGradient>
  <linearGradient id="linearGradient1165" x1="22.206" x2="22.206" y1="34.549" y2="23.087" gradientUnits="userSpaceOnUse">
   <stop id="stop1159" stop-color="#6e1ff1" offset="0"/>
   <stop id="stop1161" stop-color="#6e1ff1" stop-opacity="0" offset="1"/>
  </linearGradient>
 </defs>
 <metadata id="metadata1440">
  <rdf:RDF>
   <cc:Work rdf:about="">
    <dc:format>image/svg+xml</dc:format>
    <dc:type rdf:resource="http://purl.org/dc/dcmitype/StillImage"/>
    <dc:title/>
   </cc:Work>
  </rdf:RDF>
 </metadata>
 <g id="layer1">
  <g id="g1702" transform="matrix(.97573 0 0 .97573 -65.737 -37.183)" fill="none" opacity=".295" stroke="#000" stroke-linecap="round" stroke-linejoin="round" stroke-opacity=".02">
   <rect id="rect1634" x="69.84" y="40.71" width="29.811" height="29.811" rx="6.6099" ry="6.6099" stroke-width=".1"/>
   <rect id="rect1638" x="69.84" y="40.71" width="29.811" height="29.811" rx="6.6099" ry="6.6099" stroke-width=".2"/>
   <rect id="rect1640" x="69.84" y="40.71" width="29.811" height="29.811" rx="6.6099" ry="6.6099" stroke-width=".3"/>
   <rect id="rect1642" x="69.84" y="40.71" width="29.811" height="29.811" rx="6.6099" ry="6.6099" stroke-width=".4"/>
   <rect id="rect1644" x="69.84" y="40.71" width="29.811" height="29.811" rx="6.6099" ry="6.6099" stroke-width=".5"/>
   <rect id="rect1646" x="69.84" y="40.71" width="29.811" height="29.811" rx="6.6099" ry="6.6099" stroke-width=".6"/>
   <rect id="rect1648" x="69.84" y="40.71" width="29.811" height="29.811" rx="6.6099" ry="6.6099" stroke-width=".7"/>
   <rect id="rect1650" x="69.84" y="40.71" width="29.811" height="29.811" rx="6.6099" ry="6.6099" stroke-width=".8"/>
   <rect id="rect1652" x="69.84" y="40.71" width="29.811" height="29.811" rx="6.6099" ry="6.6099"/>
   <rect id="rect1654" x="69.84" y="40.71" width="29.811" height="29.811" rx="6.6099" ry="6.6099" stroke-width="1.2"/>
   <rect id="rect1656" x="69.84" y="40.71" width="29.811" height="29.811" rx="6.6099" ry="6.6099" stroke-width="1.4"/>
   <rect id="rect1658" x="69.84" y="40.71" width="29.811" height="29.811" rx="6.6099" ry="6.6099" stroke-width="1.6"/>
   <rect id="rect1660" x="69.84" y="40.71" width="29.811" height="29.811" rx="6.6099" ry="6.6099" stroke-width="1.8"/>
   <rect id="rect1662" x="69.84" y="40.71" width="29.811" height="29.811" rx="6.6099" ry="6.6099" stroke-width="2"/>
   <rect id="rect1664" x="69.84" y="40.71" width="29.811" height="29.811" rx="6.6099" ry="6.6099" stroke-width="2.2"/>
   <rect id="rect1666" x="69.84" y="40.71" width="29.811" height="29.811" rx="6.6099" ry="6.6099" stroke-width="2.6"/>
   <rect id="rect1668" x="69.84" y="40.71" width="29.811" height="29.811" rx="6.6099" ry="6.6099" stroke-width="3"/>
   <rect id="rect1670" x="69.84" y="40.71" width="29.811" height="29.811" rx="6.6099" ry="6.6099" stroke-width="3.4"/>
   <rect id="rect1672" x="69.84" y="40.71" width="29.811" height="29.811" rx="6.6099" ry="6.6099" stroke-width="3.8"/>
   <rect id="rect1674" x="69.84" y="40.71" width="29.811" height="29.811" rx="6.6099" ry="6.6099" stroke-width="4.2"/>
   <rect id="rect1676" x="69.84" y="40.71" width="29.811" height="29.811" rx="6.6099" ry="6.6099" stroke-width="4.6"/>
   <rect id="rect1678" x="69.84" y="40.71" width="29.811" height="29.811" rx="6.6099" ry="6.6099" stroke-width="5"/>
  </g>
  <rect id="rect849" x="2.4074" y="2.5392" width="29.087" height="29.087" rx="6.4495" ry="6.4495" fill="url(#radialGradient870)" stroke-linecap="round" stroke-linejoin="round" stroke-width="2.6877"/>
  <path id="path1167" d="m7.6594 25.091c0-2.6961 8.0883-9.3304 8.0883-9.3304 0.13703-0.11599 0.31515 0.07106 0.21631 0.22712l-2.1581 5.9591c-0.0759 0.14981 0.02242 0.3191 0.17814 0.3191h10.496c1.6257 0 2.9558 1.0343 2.9558 2.8251 0 1.7907-1.3301 2.8252-2.9558 2.8252h-13.865c-1.6257 7.78e-4 -2.9558-1.3817-2.9558-2.8252z" fill="#0c005a" fill-opacity=".22671" stroke-width=".70631"/>
  <path id="path10" d="m7.5265 24.488c0-2.5697 8.2313-8.717 8.2313-8.717 0.1306-0.11055 0.30038 0.06773 0.20617 0.21647l-2.5793 5.5038c-0.07234 0.14279 0.02137 0.30414 0.16978 0.30414h10.004c1.5494 0 2.8172 0.98584 2.8172 2.6926 0 1.7067-1.2677 2.6928-2.8172 2.6928h-13.215c-1.5494 7.41e-4 -2.8172-1.317-2.8172-2.6928z" fill="#fff" stroke-width=".67319"/>
  <path id="path1169" d="m27.041 10.411c0 2.5697-8.8967 7.9833-8.8967 7.9833-0.1306 0.11055-0.30038-0.06773-0.20617-0.21647l3.2447-4.7701c0.07234-0.14279-0.02137-0.30414-0.16978-0.30414h-10.004c-1.5494 0-2.8172-0.98584-2.8172-2.6926 0-1.7067 1.2677-2.6928 2.8172-2.6928h13.215c1.5494-7.41e-4 2.8172 1.317 2.8172 2.6928z" fill="#1f009e" fill-opacity=".23331" stroke-width=".67319"/>
  <g id="g1147">
   <path id="path8" d="m26.376 9.6778c0 2.5697-8.2313 8.717-8.2313 8.717-0.1306 0.11052-0.30037-0.06773-0.20617-0.21647l2.5793-5.5038c0.07234-0.14279-0.02137-0.30414-0.16978-0.30414h-10.004c-1.5494 0-2.8172-0.98583-2.8172-2.6926 0-1.7067 1.2677-2.6928 2.8172-2.6928h13.215c1.5494-7.402e-4 2.8172 1.317 2.8172 2.6928z" fill="#fff" stroke-width=".67319"/>
   <g id="g1066" fill="#8e41f8" opacity=".59621" shape-rendering="auto">
    <path id="path954" transform="scale(.26458)" d="m36.631 46.514c0.79257 0.15344 1.6143 0.24023 2.4629 0.24023h37.811c0.56094 0 0.91599 0.61072 0.64258 1.1504l-9.748 20.801c-0.071951 0.11361-0.09383 0.23096-0.09375 0.34375l10.418-21.82a0.50084 0.50084 0 0 0-0.45117-0.71484h-41.041z" color="#000000" color-rendering="auto" dominant-baseline="auto" fill-opacity=".24948" image-rendering="auto" opacity="1" solid-color="#000000" stop-color="#000000" style="font-feature-settings:normal;font-variant-alternates:normal;font-variant-caps:normal;font-variant-east-asian:normal;font-variant-ligatures:normal;font-variant-numeric:normal;font-variant-position:normal;font-variation-settings:normal;inline-size:0;isolation:auto;mix-blend-mode:normal;shape-margin:0;shape-padding:0;text-decoration-color:#000000;text-decoration-line:none;text-decoration-style:solid;text-indent:0;text-orientation:mixed;text-transform:none;white-space:normal"/>
    <path id="path956" transform="scale(.26458)" d="m34.684 45.959c1.3467 0.51787 2.8378 0.79492 4.4102 0.79492h37.811c0.56094 0 0.91599 0.61072 0.64258 1.1504l-9.748 20.801c-0.21496 0.3394-0.064914 0.7151 0.19531 0.87109l10.756-22.531a0.75598 0.75598 0 0 0-0.67969-1.0859h-43.387z" color="#000000" color-rendering="auto" dominant-baseline="auto" fill-opacity=".24948" image-rendering="auto" opacity="1" solid-color="#000000" stop-color="#000000" style="font-feature-settings:normal;font-variant-alternates:normal;font-variant-caps:normal;font-variant-east-asian:normal;font-variant-ligatures:normal;font-variant-numeric:normal;font-variant-position:normal;font-variation-settings:normal;inline-size:0;isolation:auto;mix-blend-mode:normal;shape-margin:0;shape-padding:0;text-decoration-color:#000000;text-decoration-line:none;text-decoration-style:solid;text-indent:0;text-orientation:mixed;text-transform:none;white-space:normal"/>
    <path id="path958" transform="scale(.26458)" d="m33.029 45.154c1.7247 1.0441 3.8135 1.5996 6.0645 1.5996h37.811c0.56094 0 0.91599 0.61072 0.64258 1.1504l-9.748 20.801c-0.35605 0.56218 0.28569 1.2361 0.7793 0.81836 0 0 0.36143-0.27594 0.48242-0.36719l10.686-22.377a1.134 1.134 0 0 0-1.0254-1.625h-45.691z" color="#000000" color-rendering="auto" dominant-baseline="auto" fill-opacity=".24948" image-rendering="auto" opacity="1" solid-color="#000000" stop-color="#000000" style="font-feature-settings:normal;font-variant-alternates:normal;font-variant-caps:normal;font-variant-east-asian:normal;font-variant-ligatures:normal;font-variant-numeric:normal;font-variant-position:normal;font-variation-settings:normal;inline-size:0;isolation:auto;mix-blend-mode:normal;shape-margin:0;shape-padding:0;text-decoration-color:#000000;text-decoration-line:none;text-decoration-style:solid;text-indent:0;text-orientation:mixed;text-transform:none;white-space:normal"/>
    <path id="path960" transform="scale(.26458)" d="m31.686 44.174c1.9207 1.677 4.5338 2.5801 7.4082 2.5801h37.811c0.56094 0 0.91599 0.61072 0.64258 1.1504l-9.748 20.801c-0.35605 0.56218 0.28569 1.2361 0.7793 0.81836 0 0 0.80296-0.6119 1.9434-1.4941l10.361-21.693a1.512 1.512 0 0 0-1.3652-2.1621h-47.832z" color="#000000" color-rendering="auto" dominant-baseline="auto" fill-opacity=".24948" image-rendering="auto" opacity="1" solid-color="#000000" stop-color="#000000" style="font-feature-settings:normal;font-variant-alternates:normal;font-variant-caps:normal;font-variant-east-asian:normal;font-variant-ligatures:normal;font-variant-numeric:normal;font-variant-position:normal;font-variation-settings:normal;inline-size:0;isolation:auto;mix-blend-mode:normal;shape-margin:0;shape-padding:0;text-decoration-color:#000000;text-decoration-line:none;text-decoration-style:solid;text-indent:0;text-orientation:mixed;text-transform:none;white-space:normal"/>
    <path id="path962" transform="scale(.26458)" d="m30.354 42.734c1.9276 2.599 5.1289 4.0195 8.7402 4.0195h37.811c0.56094 0 0.91599 0.61072 0.64258 1.1504l-9.748 20.801c-0.35605 0.56218 0.28569 1.2361 0.7793 0.81836 0 0 1.8392-1.3811 4.5293-3.5215l9.5625-20.02a2.2679 2.2679 0 0 0-2.0527-3.248h-50.264z" color="#000000" color-rendering="auto" dominant-baseline="auto" fill-opacity=".24948" image-rendering="auto" opacity="1" solid-color="#000000" stop-color="#000000" style="font-feature-settings:normal;font-variant-alternates:normal;font-variant-caps:normal;font-variant-east-asian:normal;font-variant-ligatures:normal;font-variant-numeric:normal;font-variant-position:normal;font-variation-settings:normal;inline-size:0;isolation:auto;mix-blend-mode:normal;shape-margin:0;shape-padding:0;text-decoration-color:#000000;text-decoration-line:none;text-decoration-style:solid;text-indent:0;text-orientation:mixed;text-transform:none;white-space:normal"/>
    <path id="path964" transform="scale(.26458)" d="m29.334 40.984c1.6455 3.7072 5.4062 5.7695 9.7598 5.7695h37.811c0.56094 0 0.91599 0.61072 0.64258 1.1504l-9.748 20.801c-0.35605 0.56218 0.28569 1.2361 0.7793 0.81836 0 0 3.2921-2.4934 7.5957-6.0215l8.6875-18.191a3.0239 3.0239 0 0 0-2.7305-4.3262h-52.797z" color="#000000" color-rendering="auto" dominant-baseline="auto" fill-opacity=".24948" image-rendering="auto" opacity="1" solid-color="#000000" stop-color="#000000" style="font-feature-settings:normal;font-variant-alternates:normal;font-variant-caps:normal;font-variant-east-asian:normal;font-variant-ligatures:normal;font-variant-numeric:normal;font-variant-position:normal;font-variation-settings:normal;inline-size:0;isolation:auto;mix-blend-mode:normal;shape-margin:0;shape-padding:0;text-decoration-color:#000000;text-decoration-line:none;text-decoration-style:solid;text-indent:0;text-orientation:mixed;text-transform:none;white-space:normal"/>
    <path id="path966" transform="scale(.26458)" d="m28.65 38.77c0.96159 5.0936 5.2872 7.9844 10.443 7.9844h37.811c0.56094 0 0.91599 0.61072 0.64258 1.1504l-9.748 20.801c-0.35605 0.56218 0.28569 1.2361 0.7793 0.81836 0 0 5.5913-4.1836 12.025-9.7266l7.0703-14.805a4.3469 4.3469 0 0 0-3.918-6.2227h-55.105z" color="#000000" color-rendering="auto" dominant-baseline="auto" fill-opacity=".13711" image-rendering="auto" opacity="1" solid-color="#000000" stop-color="#000000" style="font-feature-settings:normal;font-variant-alternates:normal;font-variant-caps:normal;font-variant-east-asian:normal;font-variant-ligatures:normal;font-variant-numeric:normal;font-variant-position:normal;font-variation-settings:normal;inline-size:0;isolation:auto;mix-blend-mode:normal;shape-margin:0;shape-padding:0;text-decoration-color:#000000;text-decoration-line:none;text-decoration-style:solid;text-indent:0;text-orientation:mixed;text-transform:none;white-space:normal"/>
    <path id="path968" transform="scale(.26458)" d="m28.496 35.543c-0.028303 0.33776-0.048828 0.68078-0.048828 1.0352 0 6.4507 4.7904 10.176 10.646 10.176h37.811c0.15322 0 0.2866 0.051761 0.40039 0.12891h0.25586l-0.083985 0.17774c0.16744 0.22686 0.22373 0.54093 0.070313 0.84375l-9.748 20.801c-0.35605 0.56218 0.28569 1.2361 0.7793 0.81836 0-1e-6 9.4214-7.0451 17.896-14.994l5.1934-10.873a5.6699 5.6699 0 0 0-5.1152-8.1133h-58.057z" color="#000000" color-rendering="auto" dominant-baseline="auto" fill-opacity=".067721" image-rendering="auto" opacity="1" solid-color="#000000" stop-color="#000000" style="font-feature-settings:normal;font-variant-alternates:normal;font-variant-caps:normal;font-variant-east-asian:normal;font-variant-ligatures:normal;font-variant-numeric:normal;font-variant-position:normal;font-variation-settings:normal;inline-size:0;isolation:auto;mix-blend-mode:normal;shape-margin:0;shape-padding:0;text-decoration-color:#000000;text-decoration-line:none;text-decoration-style:solid;text-indent:0;text-orientation:mixed;text-transform:none;white-space:normal"/>
   </g>
   <path id="path1068" d="m26.376 9.6778c0 2.5697-8.2313 8.717-8.2313 8.717-0.1306 0.11052-0.30037-0.06773-0.20617-0.21647l2.5793-5.5038c0.07234-0.14279-0.02137-0.30414-0.16978-0.30414h-10.004c-1.5494 0-2.8172-0.98583-2.8172-2.6926 0-1.7067 1.2677-2.6928 2.8172-2.6928h13.215c1.5494-7.402e-4 2.8172 1.317 2.8172 2.6928z" fill="url(#linearGradient1076)" stroke-width=".67319"/>
   <path id="path1078" transform="scale(.26458)" d="m39.094 26.4c-5.5344 0-10.111 3.3319-10.598 9.1426h12.725v-9.1426h-2.127z" fill="url(#radialGradient1088)" opacity=".072602" stroke-width="2.5443"/>
  </g>
  <path id="path1149" d="m7.5265 24.488c0-2.5697 8.2313-8.717 8.2313-8.717 0.1306-0.11055 0.30038 0.06773 0.20617 0.21647l-2.5793 5.5038c-0.07234 0.14279 0.02137 0.30414 0.16978 0.30414h10.004c1.5494 0 2.8172 0.98584 2.8172 2.6926 0 1.7067-1.2677 2.6928-2.8172 2.6928h-13.215c-1.5494 7.41e-4 -2.8172-1.317-2.8172-2.6928z" fill="url(#linearGradient1165)" stroke-width=".67319"/>
 </g>
</svg>
