<?xml version="1.0" encoding="UTF-8"?>
<svg id="svg22" width="64" height="64" version="1.1" viewBox="0 0 16.934 16.934" xmlns="http://www.w3.org/2000/svg" xmlns:xlink="http://www.w3.org/1999/xlink">
 <defs id="defs2">
  <linearGradient id="b" x1="7.937" x2="7.937" y1="15.081" y2="1.852" gradientTransform="scale(1.0001)" gradientUnits="userSpaceOnUse">
   <stop id="stop1" stop-color="#676767" offset="0"/>
   <stop id="stop2" stop-color="#c6c6c6" offset="1"/>
  </linearGradient>
  <filter id="c" x="-.10128" y="-.11577" width="1.2026" height="1.2315" color-interpolation-filters="sRGB">
   <feGaussianBlur id="feGaussianBlur2" stdDeviation=".536"/>
  </filter>
 </defs>
 <linearGradient id="a">
  <stop id="stop3" stop-color="#31363b" offset="0"/>
  <stop id="stop4" stop-color="#31363b" stop-opacity="0" offset="1"/>
 </linearGradient>
 <linearGradient id="d" x1="16.001" x2="16.001" y1="27.001" y2="6" gradientTransform="matrix(.42842 0 0 -.42842 1.6119 14.478)" gradientUnits="userSpaceOnUse">
  <stop id="stop5" stop-color="#232629" offset="0"/>
  <stop id="stop6" stop-color="#292c2f" offset="1"/>
 </linearGradient>
 <linearGradient id="e" x1="4.234" x2="4.234" y1="290.65" y2="291.18" gradientTransform="matrix(2,0,0,-3.9999,-1.588,1175.5)" gradientUnits="userSpaceOnUse">
  <stop id="stop7" stop-color="#fdbc4b" stop-opacity=".8" offset="0"/>
  <stop id="stop8" stop-color="#fdbc4b" stop-opacity="0" offset="1"/>
 </linearGradient>
 <linearGradient id="f" x1="4.233" x2="4.233" y1="295.15" y2="294.62" gradientTransform="matrix(2.5,0,0,-2,-2.116,592.15)" gradientUnits="userSpaceOnUse" xlink:href="#a"/>
 <linearGradient id="g" x1="4.587" x2="4.587" y1="295.15" y2="294.62" gradientTransform="matrix(.75 0 0 -2 1.852 593.74)" gradientUnits="userSpaceOnUse" xlink:href="#a"/>
 <linearGradient id="h" x1="3.88" x2="3.88" y1="295.15" y2="294.62" gradientTransform="matrix(.75 0 0 -2 8.732 593.74)" gradientUnits="userSpaceOnUse" xlink:href="#a"/>
 <linearGradient id="i" x1="7.41" x2="7.41" y1="295.41" y2="294.62" gradientTransform="matrix(.2024 0 0 3.2386 12.537 -946.89)" gradientUnits="userSpaceOnUse" xlink:href="#a"/>
 <linearGradient id="j" x1="1.062" x2="1.062" y1="295.41" y2="294.62" gradientTransform="matrix(.2024 0 0 3.2386 2.6821 -946.89)" gradientUnits="userSpaceOnUse" xlink:href="#a"/>
 <linearGradient id="k" x1="4.587" x2="4.587" y1="295.25" y2="294.62" gradientTransform="matrix(.60722 0 0 -2.6987 1.8256 802.3)" gradientUnits="userSpaceOnUse" xlink:href="#a"/>
 <linearGradient id="l" x1="3.88" x2="3.88" y1="295.25" y2="294.62" gradientTransform="matrix(.60722 0 0 -2.6987 9.9672 802.3)" gradientUnits="userSpaceOnUse" xlink:href="#a"/>
 <g id="g12">
  <path id="path8" transform="scale(1.0001)" d="M4.37.53C2.254.53.53 2.312.53 4.496v8.468c0 2.184 1.725 3.968 3.84 3.968h8.194c2.114 0 3.84-1.783 3.84-3.968V4.497c0-2.184-1.726-3.968-3.84-3.968zm.256.52h7.681c1.844 0 3.33 1.534 3.33 3.44v7.937c0 1.906-1.485 3.44-3.33 3.44h-7.68c-1.845 0-3.33-1.534-3.33-3.44V4.49c0-1.906 1.485-3.44 3.33-3.44z" opacity=".01" style="font-feature-settings:normal;font-variant-alternates:normal;font-variant-caps:normal;font-variant-east-asian:normal;font-variant-ligatures:normal;font-variant-numeric:normal;font-variant-position:normal;font-variation-settings:normal;inline-size:0;isolation:auto;mix-blend-mode:normal;shape-margin:0;shape-padding:0;text-decoration-color:#000;text-decoration-line:none;text-decoration-style:solid;text-indent:0;text-orientation:mixed;text-transform:none;white-space:normal"/>
  <path id="path9" transform="scale(1.0001)" d="M4.359.794C2.392.794.795 2.447.795 4.48v8.5c0 2.035 1.597 3.688 3.564 3.688h8.216c1.967 0 3.564-1.653 3.564-3.688v-8.5c0-2.034-1.597-3.687-3.564-3.687zm.272.256h7.672c1.842 0 3.325 1.534 3.325 3.44v7.937c0 1.906-1.483 3.44-3.325 3.44H4.63c-1.842 0-3.325-1.534-3.325-3.44V4.49c0-1.906 1.483-3.44 3.325-3.44z" opacity=".01" style="font-feature-settings:normal;font-variant-alternates:normal;font-variant-caps:normal;font-variant-east-asian:normal;font-variant-ligatures:normal;font-variant-numeric:normal;font-variant-position:normal;font-variation-settings:normal;inline-size:0;isolation:auto;mix-blend-mode:normal;shape-margin:0;shape-padding:0;text-decoration-color:#000;text-decoration-line:none;text-decoration-style:solid;text-indent:0;text-orientation:mixed;text-transform:none;white-space:normal"/>
  <path id="path10" transform="scale(1.0001)" d="M4.31 1.058c-1.866 0-3.375 1.539-3.375 3.44v8.467c0 1.9 1.57 3.439 3.435 3.439h8.2c1.866 0 3.427-1.538 3.427-3.44V4.498c0-1.9-1.51-3.439-3.375-3.439h-.097c1.794.087 3.214 1.582 3.214 3.432v7.937c0 1.906-1.506 3.44-3.377 3.44h-7.79c-1.871 0-3.377-1.534-3.377-3.44V4.49c0-1.85 1.42-3.345 3.214-3.432z" opacity=".03" style="font-feature-settings:normal;font-variant-alternates:normal;font-variant-caps:normal;font-variant-east-asian:normal;font-variant-ligatures:normal;font-variant-numeric:normal;font-variant-position:normal;font-variation-settings:normal;inline-size:0;isolation:auto;mix-blend-mode:normal;shape-margin:0;shape-padding:0;text-decoration-color:#000;text-decoration-line:none;text-decoration-style:solid;text-indent:0;text-orientation:mixed;text-transform:none;white-space:normal"/>
  <path id="path11" transform="scale(.2646)" d="M4 46.969V49c0 6.648 5.896 12 12.544 12h30.961C54.153 61 60 55.648 60 49v-1.992a12.972 12.972 0 0 1-13 12.963H17.002A12.973 12.973 0 0 1 4 46.969z" opacity=".03" style="font-feature-settings:normal;font-variant-alternates:normal;font-variant-caps:normal;font-variant-east-asian:normal;font-variant-ligatures:normal;font-variant-numeric:normal;font-variant-position:normal;font-variation-settings:normal;inline-size:0;isolation:auto;mix-blend-mode:normal;shape-margin:0;shape-padding:0;text-decoration-color:#000;text-decoration-line:none;text-decoration-style:solid;text-indent:0;text-orientation:mixed;text-transform:none;white-space:normal"/>
  <path id="path12" transform="scale(1.0001)" d="M1.058 11.906v.592c0 1.939 1.573 3.5 3.332 3.5h8.16c1.76 0 3.325-1.561 3.325-3.5v-.58c-.006 2.095-1.537 3.78-3.44 3.78H4.498c-1.905 0-3.44-1.692-3.44-3.792z" opacity=".05" style="font-feature-settings:normal;font-variant-alternates:normal;font-variant-caps:normal;font-variant-east-asian:normal;font-variant-ligatures:normal;font-variant-numeric:normal;font-variant-position:normal;font-variation-settings:normal;inline-size:0;isolation:auto;mix-blend-mode:normal;shape-margin:0;shape-padding:0;text-decoration-color:#000;text-decoration-line:none;text-decoration-style:solid;text-indent:0;text-orientation:mixed;text-transform:none;white-space:normal"/>
 </g>
 <rect id="rect12" x="1.058" y="1.05" width="14.818" height="14.818" rx="3.44" ry="3.44" fill="url(#b)"/>
 <path id="path13" transform="matrix(.8096 0 0 .8096 1.6121 1.4346)" d="m5.821 1.979v1.588h-1.588v1.586h-1.587v2.117h-0.53v0.529h1.06v2.118h-1.06v0.528h0.53v2.646h11.642v-2.646h0.53v-3.175h-0.53v-2.117h-1.588v-1.586h-1.587v-1.588zm7.939 5.82h1.057v2.118h-1.057z" filter="url(#c)" opacity=".35"/>
 <path id="path14" d="m6.3247 2.9099v1.2857h-1.2857v1.284h-1.2849v1.7138h-0.42887v0.42844h0.42887v8.569e-4h0.42844v1.7138h-0.85688v-4.285e-4h-4.284e-4v0.42801h0.42887v2.1422h9.4256v-2.1422h0.42887v-2.5698h-0.42887v-1.7146h-1.2857v-1.284h-1.2849v-1.2857zm6.4274 4.7128h0.85602v1.7138h-0.85688z" fill="url(#d)" stroke-width=".21422"/>
 <g id="g18" transform="matrix(.80963 0 0 .80963 1.6119 1.4104)" stroke-width="2">
  <path id="path15" d="m4.233 12.965h0.53v-2.117h-0.53zm1.588 0h0.53v-2.117h-0.53zm6.35 0h0.53v-2.117h-0.53zm-1.587 0h0.529v-2.117h-0.53zm-1.588 0h0.53v-2.117h-0.53zm-1.587 0h0.529v-2.117h-0.53z" fill="url(#e)"/>
  <path id="path16" d="m5.821 2.91h5.292v-1.058h-5.293z" fill="url(#f)"/>
  <path id="path17" d="m4.233 4.498h1.588v-1.058h-1.588z" fill="url(#g)"/>
  <path id="path18" d="m11.113 4.498h1.587v-1.058h-1.587z" fill="url(#h)"/>
 </g>
 <path id="path19" d="m13.609 7.1934-0.42887 8.569e-4v0.42844h0.42887zm-4.28e-4 2.1426v4.285e-4h-0.42844v0.42844h0.42887v-0.42887z" fill="url(#i)" stroke-width=".21422"/>
 <path id="path20" d="m3.7541 7.1934-0.42844 8.569e-4v0.42844h0.42844zm-0.42844 2.143v0.42844h0.42844v-0.42844z" fill="url(#j)" stroke-width=".21422"/>
 <path id="path21" d="m3.7541 7.1944h1.2849v-1.7148h-1.2849z" fill="url(#k)" stroke-width=".80963"/>
 <path id="path22" d="m11.894 7.1944h1.2857v-1.7148h-1.2857z" fill="url(#l)" stroke-width=".80963"/>
</svg>
