<?xml version="1.0" encoding="UTF-8" standalone="no"?>
<svg
   id="svg1829"
   width="512"
   height="512"
   version="1.1"
   viewBox="0 0 33.867 33.867"
   sodipodi:docname="8tracks.svg"
   inkscape:version="1.4.4 (dcaf3e7d9e, 2026-05-05)"
   xmlns:inkscape="http://www.inkscape.org/namespaces/inkscape"
   xmlns:sodipodi="http://sodipodi.sourceforge.net/DTD/sodipodi-0.dtd"
   xmlns="http://www.w3.org/2000/svg"
   xmlns:svg="http://www.w3.org/2000/svg"
   xmlns:rdf="http://www.w3.org/1999/02/22-rdf-syntax-ns#"
   xmlns:cc="http://creativecommons.org/ns#"
   xmlns:dc="http://purl.org/dc/elements/1.1/">
  <sodipodi:namedview
     id="namedview1"
     pagecolor="#ffffff"
     bordercolor="#000000"
     borderopacity="0.25"
     inkscape:showpageshadow="2"
     inkscape:pageopacity="0.0"
     inkscape:pagecheckerboard="0"
     inkscape:deskcolor="#d1d1d1"
     inkscape:zoom="1.5625"
     inkscape:cx="255.68"
     inkscape:cy="256"
     inkscape:window-width="1920"
     inkscape:window-height="1011"
     inkscape:window-x="0"
     inkscape:window-y="0"
     inkscape:window-maximized="1"
     inkscape:current-layer="svg1829" />
  <defs
     id="defs1823">
    <radialGradient
       id="radialGradient886"
       cx="17.31"
       cy="2.5296"
       r="14.544"
       gradientTransform="matrix(7.1618,0,0,1.7511,-106.66,-1.9)"
       gradientUnits="userSpaceOnUse">
      <stop
         id="stop880"
         stop-color="#50ceff"
         offset="0" />
      <stop
         id="stop882"
         stop-color="#3471fc"
         offset="1" />
    </radialGradient>
    <linearGradient
       id="linearGradient899"
       x1="12.194"
       x2="22.17"
       y1="14.985"
       y2="25.582"
       gradientUnits="userSpaceOnUse">
      <stop
         id="stop893"
         stop-color="#fff"
         offset="0" />
      <stop
         id="stop895"
         stop-color="#cedffe"
         offset="1" />
    </linearGradient>
    <filter
       inkscape:collect="always"
       style="color-interpolation-filters:sRGB"
       id="filter1"
       x="-0.14840838"
       y="-0.14575804"
       width="1.2968168"
       height="1.2915161">
      <feGaussianBlur
         inkscape:collect="always"
         stdDeviation="0.52773281"
         id="feGaussianBlur1" />
    </filter>
  </defs>
  <metadata
     id="metadata1826">
    <rdf:RDF>
      <cc:Work
         rdf:about="">
        <dc:format>image/svg+xml</dc:format>
        <dc:type
           rdf:resource="http://purl.org/dc/dcmitype/StillImage" />
        <dc:title />
      </cc:Work>
    </rdf:RDF>
  </metadata>
  <g
     id="g1702"
     transform="matrix(0.97573,0,0,0.97573,-65.587,-37.192)"
     fill="none"
     opacity="0.29676"
     stroke="#000000"
     stroke-linecap="round"
     stroke-linejoin="round"
     stroke-opacity="0.02">
    <rect
       id="rect1634"
       x="69.839996"
       y="40.709999"
       width="29.811001"
       height="29.811001"
       rx="6.6099"
       ry="6.6099"
       stroke-width="0.1" />
    <rect
       id="rect1638"
       x="69.839996"
       y="40.709999"
       width="29.811001"
       height="29.811001"
       rx="6.6099"
       ry="6.6099"
       stroke-width="0.2" />
    <rect
       id="rect1640"
       x="69.839996"
       y="40.709999"
       width="29.811001"
       height="29.811001"
       rx="6.6099"
       ry="6.6099"
       stroke-width="0.3" />
    <rect
       id="rect1642"
       x="69.839996"
       y="40.709999"
       width="29.811001"
       height="29.811001"
       rx="6.6099"
       ry="6.6099"
       stroke-width="0.4" />
    <rect
       id="rect1644"
       x="69.839996"
       y="40.709999"
       width="29.811001"
       height="29.811001"
       rx="6.6099"
       ry="6.6099"
       stroke-width="0.5" />
    <rect
       id="rect1646"
       x="69.839996"
       y="40.709999"
       width="29.811001"
       height="29.811001"
       rx="6.6099"
       ry="6.6099"
       stroke-width="0.6" />
    <rect
       id="rect1648"
       x="69.839996"
       y="40.709999"
       width="29.811001"
       height="29.811001"
       rx="6.6099"
       ry="6.6099"
       stroke-width="0.7" />
    <rect
       id="rect1650"
       x="69.839996"
       y="40.709999"
       width="29.811001"
       height="29.811001"
       rx="6.6099"
       ry="6.6099"
       stroke-width="0.8" />
    <rect
       id="rect1652"
       x="69.839996"
       y="40.709999"
       width="29.811001"
       height="29.811001"
       rx="6.6099"
       ry="6.6099" />
    <rect
       id="rect1654"
       x="69.839996"
       y="40.709999"
       width="29.811001"
       height="29.811001"
       rx="6.6099"
       ry="6.6099"
       stroke-width="1.2" />
    <rect
       id="rect1656"
       x="69.839996"
       y="40.709999"
       width="29.811001"
       height="29.811001"
       rx="6.6099"
       ry="6.6099"
       stroke-width="1.4" />
    <rect
       id="rect1658"
       x="69.839996"
       y="40.709999"
       width="29.811001"
       height="29.811001"
       rx="6.6099"
       ry="6.6099"
       stroke-width="1.6" />
    <rect
       id="rect1660"
       x="69.839996"
       y="40.709999"
       width="29.811001"
       height="29.811001"
       rx="6.6099"
       ry="6.6099"
       stroke-width="1.8" />
    <rect
       id="rect1662"
       x="69.839996"
       y="40.709999"
       width="29.811001"
       height="29.811001"
       rx="6.6099"
       ry="6.6099"
       stroke-width="2" />
    <rect
       id="rect1664"
       x="69.839996"
       y="40.709999"
       width="29.811001"
       height="29.811001"
       rx="6.6099"
       ry="6.6099"
       stroke-width="2.2" />
    <rect
       id="rect1666"
       x="69.839996"
       y="40.709999"
       width="29.811001"
       height="29.811001"
       rx="6.6099"
       ry="6.6099"
       stroke-width="2.6" />
    <rect
       id="rect1668"
       x="69.839996"
       y="40.709999"
       width="29.811001"
       height="29.811001"
       rx="6.6099"
       ry="6.6099"
       stroke-width="3" />
    <rect
       id="rect1670"
       x="69.839996"
       y="40.709999"
       width="29.811001"
       height="29.811001"
       rx="6.6099"
       ry="6.6099"
       stroke-width="3.4" />
    <rect
       id="rect1672"
       x="69.839996"
       y="40.709999"
       width="29.811001"
       height="29.811001"
       rx="6.6099"
       ry="6.6099"
       stroke-width="3.8" />
    <rect
       id="rect1674"
       x="69.839996"
       y="40.709999"
       width="29.811001"
       height="29.811001"
       rx="6.6099"
       ry="6.6099"
       stroke-width="4.2" />
    <rect
       id="rect1676"
       x="69.839996"
       y="40.709999"
       width="29.811001"
       height="29.811001"
       rx="6.6099"
       ry="6.6099"
       stroke-width="4.6" />
    <rect
       id="rect1678"
       x="69.839996"
       y="40.709999"
       width="29.811001"
       height="29.811001"
       rx="6.6099"
       ry="6.6099"
       stroke-width="5" />
  </g>
  <rect
     id="rect849-5"
     x="2.5579"
     y="2.5293"
     width="29.087"
     height="29.087"
     rx="6.4495001"
     ry="6.4495001"
     fill="url(#radialGradient886)"
     stroke-linecap="round"
     stroke-linejoin="round"
     stroke-width="2.6877"
     style="fill:url(#radialGradient886)" />
  <path
     id="path8"
     d="m 17.102,15.300465 c 0,-1.8257 -1.2171,-6.0856 4.2599,-6.0856 5.477,0 5.477,8.5198 0,8.5198 h -8.5198 c -5.477,0 -5.477,8.5198 0,8.5198 5.477,0 4.2851,-4.8685 4.2599,-6.0856"
     fill="none"
     stroke="url(#linearGradient899)"
     stroke-linejoin="round"
     stroke-width="2.4342"
     style="display:inline;stroke:#000000;stroke-opacity:1;filter:url(#filter1);opacity:0.35" />
  <path
     id="path8-7"
     d="m 17.102,14.639 c 0,-1.8257 -1.2171,-6.0855997 4.2599,-6.0855997 5.477,0 5.477,8.5197997 0,8.5197997 h -8.5198 c -5.477,0 -5.477,8.5198 0,8.5198 5.477,0 4.2851,-4.8685 4.2599,-6.0856"
     fill="none"
     stroke="url(#linearGradient899)"
     stroke-linejoin="round"
     stroke-width="2.4342"
     style="display:inline;stroke:#ffffff;stroke-opacity:1" />
</svg>
