<?xml version="1.0" encoding="UTF-8" standalone="no"?>
<svg
   id="svg1436"
   width="512"
   height="512"
   version="1.1"
   viewBox="0 0 33.867 33.867"
   sodipodi:docname="alienfx.svg"
   inkscape:version="1.4.4 (dcaf3e7d9e, 2026-05-05)"
   xmlns:inkscape="http://www.inkscape.org/namespaces/inkscape"
   xmlns:sodipodi="http://sodipodi.sourceforge.net/DTD/sodipodi-0.dtd"
   xmlns="http://www.w3.org/2000/svg"
   xmlns:svg="http://www.w3.org/2000/svg"
   xmlns:rdf="http://www.w3.org/1999/02/22-rdf-syntax-ns#"
   xmlns:cc="http://creativecommons.org/ns#"
   xmlns:dc="http://purl.org/dc/elements/1.1/">
  <sodipodi:namedview
     id="namedview1"
     pagecolor="#ffffff"
     bordercolor="#999999"
     borderopacity="1"
     inkscape:showpageshadow="2"
     inkscape:pageopacity="0"
     inkscape:pagecheckerboard="0"
     inkscape:deskcolor="#d1d1d1"
     inkscape:zoom="2.2617188"
     inkscape:cx="255.77892"
     inkscape:cy="255.99999"
     inkscape:window-width="2560"
     inkscape:window-height="1371"
     inkscape:window-x="0"
     inkscape:window-y="0"
     inkscape:window-maximized="1"
     inkscape:current-layer="svg1436" />
  <defs
     id="defs1430">
    <linearGradient
       id="linearGradient1441"
       x1="16.610001"
       x2="16.610001"
       y1="3.4048004"
       y2="30.625999"
       gradientTransform="translate(-0.018709,-0.049892)"
       gradientUnits="userSpaceOnUse">
      <stop
         id="stop1435"
         stop-color="#009eff"
         offset="0" />
      <stop
         id="stop1437"
         stop-color="#0077f2"
         offset="1" />
    </linearGradient>
    <linearGradient
       id="linearGradient867"
       x1="18.482"
       x2="18.482"
       y1="12.113"
       y2="38.192"
       gradientUnits="userSpaceOnUse">
      <stop
         id="stop861"
         stop-color="#fff"
         offset="0" />
      <stop
         id="stop863"
         stop-color="#22a7fd"
         offset="1" />
    </linearGradient>
    <filter
       inkscape:collect="always"
       style="color-interpolation-filters:sRGB"
       id="filter1"
       x="-0.078118932"
       y="-0.072120554"
       width="1.1562379"
       height="1.1442411">
      <feGaussianBlur
         inkscape:collect="always"
         stdDeviation="0.5665325"
         id="feGaussianBlur1" />
    </filter>
  </defs>
  <metadata
     id="metadata1433">
    <rdf:RDF>
      <cc:Work
         rdf:about="">
        <dc:format>image/svg+xml</dc:format>
        <dc:type
           rdf:resource="http://purl.org/dc/dcmitype/StillImage" />
        <dc:title />
      </cc:Work>
    </rdf:RDF>
  </metadata>
  <g
     id="layer1">
    <g
       id="g1702"
       transform="matrix(.97573 0 0 .97573 -65.767 -37.253)"
       fill="none"
       opacity=".29676"
       stroke="#000"
       stroke-linecap="round"
       stroke-linejoin="round"
       stroke-opacity=".02">
      <rect
         id="rect1634"
         x="69.84"
         y="40.71"
         width="29.811"
         height="29.811"
         rx="6.6099"
         ry="6.6099"
         stroke-width=".1" />
      <rect
         id="rect1638"
         x="69.84"
         y="40.71"
         width="29.811"
         height="29.811"
         rx="6.6099"
         ry="6.6099"
         stroke-width=".2" />
      <rect
         id="rect1640"
         x="69.84"
         y="40.71"
         width="29.811"
         height="29.811"
         rx="6.6099"
         ry="6.6099"
         stroke-width=".3" />
      <rect
         id="rect1642"
         x="69.84"
         y="40.71"
         width="29.811"
         height="29.811"
         rx="6.6099"
         ry="6.6099"
         stroke-width=".4" />
      <rect
         id="rect1644"
         x="69.84"
         y="40.71"
         width="29.811"
         height="29.811"
         rx="6.6099"
         ry="6.6099"
         stroke-width=".5" />
      <rect
         id="rect1646"
         x="69.84"
         y="40.71"
         width="29.811"
         height="29.811"
         rx="6.6099"
         ry="6.6099"
         stroke-width=".6" />
      <rect
         id="rect1648"
         x="69.84"
         y="40.71"
         width="29.811"
         height="29.811"
         rx="6.6099"
         ry="6.6099"
         stroke-width=".7" />
      <rect
         id="rect1650"
         x="69.84"
         y="40.71"
         width="29.811"
         height="29.811"
         rx="6.6099"
         ry="6.6099"
         stroke-width=".8" />
      <rect
         id="rect1652"
         x="69.84"
         y="40.71"
         width="29.811"
         height="29.811"
         rx="6.6099"
         ry="6.6099" />
      <rect
         id="rect1654"
         x="69.84"
         y="40.71"
         width="29.811"
         height="29.811"
         rx="6.6099"
         ry="6.6099"
         stroke-width="1.2" />
      <rect
         id="rect1656"
         x="69.84"
         y="40.71"
         width="29.811"
         height="29.811"
         rx="6.6099"
         ry="6.6099"
         stroke-width="1.4" />
      <rect
         id="rect1658"
         x="69.84"
         y="40.71"
         width="29.811"
         height="29.811"
         rx="6.6099"
         ry="6.6099"
         stroke-width="1.6" />
      <rect
         id="rect1660"
         x="69.84"
         y="40.71"
         width="29.811"
         height="29.811"
         rx="6.6099"
         ry="6.6099"
         stroke-width="1.8" />
      <rect
         id="rect1662"
         x="69.84"
         y="40.71"
         width="29.811"
         height="29.811"
         rx="6.6099"
         ry="6.6099"
         stroke-width="2" />
      <rect
         id="rect1664"
         x="69.84"
         y="40.71"
         width="29.811"
         height="29.811"
         rx="6.6099"
         ry="6.6099"
         stroke-width="2.2" />
      <rect
         id="rect1666"
         x="69.84"
         y="40.71"
         width="29.811"
         height="29.811"
         rx="6.6099"
         ry="6.6099"
         stroke-width="2.6" />
      <rect
         id="rect1668"
         x="69.84"
         y="40.71"
         width="29.811"
         height="29.811"
         rx="6.6099"
         ry="6.6099"
         stroke-width="3" />
      <rect
         id="rect1670"
         x="69.84"
         y="40.71"
         width="29.811"
         height="29.811"
         rx="6.6099"
         ry="6.6099"
         stroke-width="3.4" />
      <rect
         id="rect1672"
         x="69.84"
         y="40.71"
         width="29.811"
         height="29.811"
         rx="6.6099"
         ry="6.6099"
         stroke-width="3.8" />
      <rect
         id="rect1674"
         x="69.84"
         y="40.71"
         width="29.811"
         height="29.811"
         rx="6.6099"
         ry="6.6099"
         stroke-width="4.2" />
      <rect
         id="rect1676"
         x="69.84"
         y="40.71"
         width="29.811"
         height="29.811"
         rx="6.6099"
         ry="6.6099"
         stroke-width="4.6" />
      <rect
         id="rect1678"
         x="69.84"
         y="40.71"
         width="29.811"
         height="29.811"
         rx="6.6099"
         ry="6.6099"
         stroke-width="5" />
    </g>
    <rect
       id="rect849"
       x="2.3776"
       y="2.4687"
       width="29.087"
       height="29.087"
       rx="6.4495"
       ry="6.4495"
       fill="url(#linearGradient1441)"
       stroke-linecap="round"
       stroke-linejoin="round"
       stroke-width="2.6877" />
    <path
       id="path871-6-9"
       d="m 16.863,8.247465 c -4.7483,0 -8.6445,3.1112 -8.6445,6.9483 0,1.8841 0.94014,3.5923 2.4655,4.8438 l 0.90165,2.001 v 0.30659 c 0,1.1236 1.6705,2.3109 2.5906,3.2183 0.92014,0.90746 1.0899,1.5348 2.4999,1.5348 h 0.49164 c 1.41,0 1.7539,-0.62732 2.6741,-1.5348 0.92014,-0.90746 2.4165,-2.0948 2.4165,-3.2183 v -0.55695 l 0.78554,-1.66 c 1.5925,-1.2591 2.5798,-3.0039 2.5798,-4.9345 0,-3.8371 -3.8963,-6.9483 -8.7026,-6.9483 z m -3.6955,10.54 c 1.1378,-0.05079 2.8897,1.4759 2.5253,2.7884 -0.39587,0.71161 -1.6536,0.84157 -2.5435,0.34651 -0.84105,-0.49502 -1.5281,-2.4907 -0.09071,-3.124 0.03533,-0.005 0.07214,-0.0092 0.10885,-0.01087 z m 7.5977,0 c 0.07579,-0.0032 0.14885,9.79e-4 0.16146,0.01087 1.4954,0.63329 0.80839,2.629 -0.03266,3.124 -0.88991,0.49506 -2.1476,0.3651 -2.5435,-0.34651 -0.35264,-1.2701 1.2779,-2.7408 2.4147,-2.7884 z"
       fill="url(#linearGradient867)"
       fill-rule="evenodd"
       stroke-width="0.64818"
       style="opacity:0.35;fill:#000000;fill-opacity:1;filter:url(#filter1)" />
    <path
       id="path871-6-9-7"
       d="m 16.846664,7.4746126 c -4.7483,0 -8.6444995,3.1112004 -8.6444995,6.9483004 0,1.8841 0.94014,3.5923 2.4654995,4.8438 l 0.90165,2.001 v 0.30659 c 0,1.1236 1.6705,2.3109 2.5906,3.2183 0.92014,0.90746 1.0899,1.5348 2.4999,1.5348 h 0.49164 c 1.41,0 1.7539,-0.62732 2.6741,-1.5348 0.92014,-0.90746 2.4165,-2.0948 2.4165,-3.2183 v -0.55695 l 0.78554,-1.66 c 1.5925,-1.2591 2.5798,-3.0039 2.5798,-4.9345 0,-3.8371 -3.8963,-6.9483004 -8.7026,-6.9483004 z m -3.6955,10.5400004 c 1.1378,-0.05079 2.8897,1.4759 2.5253,2.7884 -0.39587,0.71161 -1.6536,0.84157 -2.5435,0.34651 -0.84105,-0.49502 -1.5281,-2.4907 -0.09071,-3.124 0.03533,-0.005 0.07214,-0.0092 0.10885,-0.01087 z m 7.5977,0 c 0.07579,-0.0032 0.14885,9.79e-4 0.16146,0.01087 1.4954,0.63329 0.80839,2.629 -0.03266,3.124 -0.88991,0.49506 -2.1476,0.3651 -2.5435,-0.34651 -0.35264,-1.2701 1.2779,-2.7408 2.4147,-2.7884 z"
       fill="url(#linearGradient867)"
       fill-rule="evenodd"
       stroke-width="0.64818"
       style="fill:#ffffff;fill-opacity:1" />
  </g>
</svg>
