<?xml version="1.0" encoding="UTF-8"?>
<svg id="svg266" width="64" height="64" version="1.1" xmlns="http://www.w3.org/2000/svg">
 <defs id="defs254">
  <linearGradient id="linearGradient1092" x1="7.9373" x2="7.9373" y1="15.081" y2="1.852" gradientTransform="scale(3.7796)" gradientUnits="userSpaceOnUse">
   <stop id="stop244" stop-color="#ec2f16" offset=".01"/>
   <stop id="stop246" stop-color="#e88732" offset="1"/>
  </linearGradient>
  <linearGradient id="linearGradient1138" x1="399.57" x2="399.57" y1="545.8" y2="517.8" gradientTransform="matrix(2.1429,0,0,2.1429,-826.36,-1107.5)" gradientUnits="userSpaceOnUse">
   <stop id="stop249" stop-color="#3889e9" offset="0"/>
   <stop id="stop251" stop-color="#5ea5fb" offset="1"/>
  </linearGradient>
  <filter id="filter1181" x="-.10822" y="-.10778" width="1.2164" height="1.2156" color-interpolation-filters="sRGB">
   <feGaussianBlur id="feGaussianBlur1183" stdDeviation="1.5096634"/>
  </filter>
  <linearGradient id="linearGradient1191" x1="15.44" x2="15.622" y1="48.721" y2="15.287" gradientUnits="userSpaceOnUse">
   <stop id="stop1185" stop-color="#d9d9d9" offset="0"/>
   <stop id="stop1187" stop-color="#fff" offset="1"/>
  </linearGradient>
  <filter id="filter3534" x="-.048" y="-.048" width="1.096" height="1.096" color-interpolation-filters="sRGB">
   <feGaussianBlur id="feGaussianBlur3536" stdDeviation="1.12004"/>
  </filter>
  <linearGradient id="linearGradient1155" x1="9.4576" x2="9.1364" y1="54.415" y2="9.5555" gradientUnits="userSpaceOnUse">
   <stop id="stop1149" stop-color="#0d0d0d" offset="0"/>
   <stop id="stop1151" stop-color="#262626" offset="1"/>
  </linearGradient>
 </defs>
 <rect id="rect260-5" x="3.999" y="3.999" width="56.002" height="56.002" rx="13.002" ry="13.002" filter="url(#filter3534)" opacity=".3" stroke-width="3.7796"/>
 <rect id="rect260" x="4" y="3.9686" width="56.002" height="56.002" rx="13.002" ry="13.002" fill="url(#linearGradient1092)" stroke-width="3.7796"/>
 <ellipse id="path308" cx="32" cy="32" rx="22.5" ry="23.116" fill="url(#linearGradient1155)" stroke-linecap="round" stroke-linejoin="round" stroke-width=".61175"/>
 <path id="path9-3" d="m31.981 15.192c-3.7489 0.01441-7.388 1.2832-10.333 3.6026h20.721c-2.9599-2.3315-6.6201-3.6004-10.388-3.6026zm-11.703 4.8027c-1.096 1.0671-2.0412 2.2795-2.8092 3.6015h9.9113c1.4085-0.77903 2.9909-1.1924 4.601-1.2001 1.6245 0.0011 3.2214 0.41445 4.6431 1.2001h9.9068c-0.76241-1.3209-1.701-2.5332-2.7903-3.6015zm-3.7256 5.4022c-0.72805 1.7165-1.1647 3.5428-1.2921 5.4033h7.203c0.26042-2.029 1.1613-3.9217 2.572-5.4033zm22.4 0c1.404 1.4838 2.3005 3.3765 2.5554 5.4033h7.2318c-0.13187-1.8617-0.57402-3.6868-1.3054-5.4033zm-23.692 7.8036c0.11746 1.6445 0.47761 3.2635 1.066 4.8027h8.1815c-1.1115-1.3808-1.8196-3.0441-2.0445-4.8027zm26.239 0c-0.22495 1.7586-0.93306 3.422-2.0445 4.8027h8.1815c0.58843-1.5392 0.94858-3.1582 1.066-4.8027zm-23.27 8.4042c3.1305 4.498 8.2723 7.1908 13.752 7.2041 5.4798-0.0133 10.622-2.7061 13.752-7.2041z" filter="url(#filter1181)" opacity=".7" stroke-width="1.1082"/>
 <path id="path9" d="m31.981 15.192c-3.7489 0.01441-7.388 1.2832-10.333 3.6026h20.721c-2.9599-2.3315-6.6201-3.6004-10.388-3.6026zm-11.703 4.8027c-1.096 1.0671-2.0412 2.2795-2.8092 3.6015h9.9113c1.4085-0.77903 2.9909-1.1924 4.601-1.2001 1.6245 0.0011 3.2214 0.41445 4.6431 1.2001h9.9068c-0.76241-1.3209-1.701-2.5332-2.7903-3.6015zm-3.7256 5.4022c-0.72805 1.7165-1.1647 3.5428-1.2921 5.4033h7.203c0.26042-2.029 1.1613-3.9217 2.572-5.4033zm22.4 0c1.404 1.4838 2.3005 3.3765 2.5554 5.4033h7.2318c-0.13187-1.8617-0.57402-3.6868-1.3054-5.4033zm-23.692 7.8036c0.11746 1.6445 0.47761 3.2635 1.066 4.8027h8.1815c-1.1115-1.3808-1.8196-3.0441-2.0445-4.8027zm26.239 0c-0.22495 1.7586-0.93306 3.422-2.0445 4.8027h8.1815c0.58843-1.5392 0.94858-3.1582 1.066-4.8027zm-23.27 8.4042c3.1305 4.498 8.2723 7.1908 13.752 7.2041 5.4798-0.0133 10.622-2.7061 13.752-7.2041z" fill="url(#linearGradient1191)" stroke-width="1.1082"/>
 <circle id="circle262" cx="32.02" cy="32.044" r="30.001" fill-opacity="0" stroke-width="1.5715"/>
 <circle id="circle264" cx="32.02" cy="32.044" r="0" fill="url(#linearGradient1138)" stroke-width="1.5715"/>
</svg>
