<?xml version="1.0" encoding="UTF-8"?>
<svg id="svg3" width="512" height="512" version="1.1" viewBox="0 0 16.933 16.933" xmlns="http://www.w3.org/2000/svg" xmlns:cc="http://creativecommons.org/ns#" xmlns:dc="http://purl.org/dc/elements/1.1/" xmlns:rdf="http://www.w3.org/1999/02/22-rdf-syntax-ns#">
 <defs id="defs2">
  <filter id="filter1057" x="-.080497" y="-.080497" width="1.161" height="1.161" color-interpolation-filters="sRGB">
   <feGaussianBlur id="feGaussianBlur1" stdDeviation="1.878268"/>
  </filter>
  <linearGradient id="linearGradient1053" x1="-127" x2="-127" y1="5" y2="60" gradientTransform="matrix(.26458 0 0 .26458 34.793 -.1348)" gradientUnits="userSpaceOnUse">
   <stop id="stop1" stop-color="#c061cb" offset="0"/>
   <stop id="stop2" stop-color="#613583" offset="1"/>
  </linearGradient>
  <filter id="filter3" x="-.060385" y="-.098947" width="1.1208" height="1.1979" color-interpolation-filters="sRGB">
   <feGaussianBlur id="feGaussianBlur3" stdDeviation="0.286254"/>
  </filter>
 </defs>
 <metadata id="metadata2">
  <rdf:RDF>
   <cc:Work rdf:about="">
    <dc:format>image/svg+xml</dc:format>
    <dc:type rdf:resource="http://purl.org/dc/dcmitype/StillImage"/>
    <dc:title/>
   </cc:Work>
  </rdf:RDF>
 </metadata>
 <rect id="rect2" transform="matrix(.26458 0 0 .26458 0 .33072)" x="4" y="4" width="56" height="56" ry="13" fill="#141414" filter="url(#filter1057)" image-rendering="optimizeSpeed" opacity=".25" stroke-linecap="round" stroke-width="2.7444"/>
 <rect id="rect3" x="1.1907" y="1.1906" width="14.552" height="14.552" ry="3.9688" fill="url(#linearGradient1053)" image-rendering="optimizeSpeed" stroke-linecap="round" stroke-width=".72612"/>
 <path id="path3" d="m8.4744 5.3258c-0.50996 0-1.0221 0.19251-1.4154 0.57671l-0.69506 0.69506-2.1038 2.0857-1.0428 1.0428c-0.58547 0.58542-0.58547 1.5183 0 2.1038 0.58542 0.58547 1.5183 0.58547 2.1038 0l1.0428-1.0428 1.0428 1.0428c0.58542 0.58547 1.5183 0.58547 2.1038 0 0.58547-0.58542 0.58547-1.5183 0-2.1038l2.0857 2.0857c0.58542 0.58542 1.5183 0.58542 2.1038 0 0.60373-0.54882 0.60407-1.5004 0.0186-2.0676l-1.0428-1.0609-2.1043-2.0857-0.69506-0.69506c-0.3842-0.3842-0.89202-0.57671-1.402-0.57671z" filter="url(#filter3)" opacity=".35" stroke-width=".52917"/>
 <path id="path3-6" d="m8.4742 4.9939c-0.50996 0-1.0221 0.19251-1.4154 0.57671l-0.69506 0.69506-2.1038 2.0857-1.0428 1.0428c-0.58547 0.58542-0.58547 1.5183 0 2.1038 0.58542 0.58547 1.5183 0.58547 2.1038 0l1.0428-1.0428 1.0428 1.0428c0.58542 0.58547 1.5183 0.58547 2.1038 0 0.58547-0.58542 0.58547-1.5183 0-2.1038l2.0857 2.0857c0.58542 0.58542 1.5183 0.58542 2.1038 0 0.60373-0.54882 0.60407-1.5004 0.0186-2.0676l-1.0428-1.0609-2.1043-2.0857-0.69506-0.69506c-0.3842-0.3842-0.89202-0.57671-1.402-0.57671z" fill="#fff" stroke-width=".52917"/>
</svg>
