<?xml version="1.0" encoding="UTF-8" standalone="no"?>
<svg
   width="512"
   height="512"
   version="1.1"
   viewBox="0 0 16.933 16.933"
   id="svg4"
   sodipodi:docname="applications-education-school.svg"
   inkscape:version="1.4.4 (dcaf3e7d9e, 2026-05-05)"
   xmlns:inkscape="http://www.inkscape.org/namespaces/inkscape"
   xmlns:sodipodi="http://sodipodi.sourceforge.net/DTD/sodipodi-0.dtd"
   xmlns="http://www.w3.org/2000/svg"
   xmlns:svg="http://www.w3.org/2000/svg"
   xmlns:rdf="http://www.w3.org/1999/02/22-rdf-syntax-ns#"
   xmlns:cc="http://creativecommons.org/ns#"
   xmlns:dc="http://purl.org/dc/elements/1.1/">
  <sodipodi:namedview
     id="namedview4"
     pagecolor="#ffffff"
     bordercolor="#999999"
     borderopacity="1"
     inkscape:showpageshadow="2"
     inkscape:pageopacity="0"
     inkscape:pagecheckerboard="0"
     inkscape:deskcolor="#d1d1d1"
     inkscape:zoom="2.2617188"
     inkscape:cx="255.77893"
     inkscape:cy="256"
     inkscape:window-width="2560"
     inkscape:window-height="1371"
     inkscape:window-x="0"
     inkscape:window-y="0"
     inkscape:window-maximized="1"
     inkscape:current-layer="svg4" />
  <defs
     id="defs2">
    <filter
       id="filter1057-1"
       x="-0.026517856"
       y="-0.026517856"
       width="1.0530357"
       height="1.0530357"
       color-interpolation-filters="sRGB">
      <feGaussianBlur
         stdDeviation="0.61875"
         id="feGaussianBlur1" />
    </filter>
    <linearGradient
       id="linearGradient1053-2"
       x1="-127"
       x2="-127"
       y1="5"
       y2="60"
       gradientTransform="matrix(0.26458,0,0,0.26458,34.79292,-0.1349)"
       gradientUnits="userSpaceOnUse">
      <stop
         stop-color="#02db96"
         offset="0"
         id="stop1"
         style="stop-color:#57e389;stop-opacity:1" />
      <stop
         stop-color="#13d39b"
         offset="1"
         id="stop2"
         style="stop-color:#26a269;stop-opacity:1" />
    </linearGradient>
    <filter
       inkscape:collect="always"
       style="color-interpolation-filters:sRGB"
       id="filter4"
       x="-0.084979447"
       y="-0.067118082"
       width="1.1699589"
       height="1.1342362">
      <feGaussianBlur
         inkscape:collect="always"
         stdDeviation="0.27837487"
         id="feGaussianBlur4" />
    </filter>
  </defs>
  <metadata
     id="metadata2">
    <rdf:RDF>
      <cc:Work
         rdf:about="">
        <dc:format>image/svg+xml</dc:format>
        <dc:type
           rdf:resource="http://purl.org/dc/dcmitype/StillImage" />
        <dc:title />
      </cc:Work>
    </rdf:RDF>
  </metadata>
  <rect
     transform="scale(0.26458)"
     x="4"
     y="4"
     width="56"
     height="56"
     ry="13"
     fill="#141414"
     filter="url(#filter1057-1)"
     opacity="0.3"
     stroke-linecap="round"
     stroke-width="2.7444"
     id="rect2" />
  <rect
     x="1.19063"
     y="1.1906002"
     width="14.552"
     height="14.552"
     ry="3.9686999"
     fill="url(#linearGradient1053-2)"
     stroke-linecap="round"
     stroke-width="0.72611"
     id="rect3"
     style="fill:url(#linearGradient1053-2)" />
  <path
     id="path3"
     style="font-variant-ligatures:normal;font-variant-position:normal;font-variant-caps:normal;font-variant-numeric:normal;font-variant-alternates:normal;font-variant-east-asian:normal;font-feature-settings:normal;font-variation-settings:normal;text-indent:0;text-decoration-line:none;text-decoration-style:solid;text-decoration-color:#000000;text-transform:none;text-orientation:mixed;white-space:normal;shape-padding:0;shape-margin:0;inline-size:0;opacity:0.35;isolation:auto;mix-blend-mode:normal;fill:#000000;fill-opacity:1;filter:url(#filter4)"
     d="m 6.6596691,3.6951796 c -0.088744,-0.00263 -0.1417198,0.00174 -0.1417198,0.00174 -0.10909,0.00916 -0.2054384,0.1057568 -0.2143884,0.2146468 0,0 -0.071309,0.8496108 0.5213404,1.4422608 0.59225,0.59205 1.4419378,0.521405 1.4419378,0.521405 0.10909,-0.00916 0.2054346,-0.1056922 0.2141946,-0.2145822 0,0 0.070063,-0.8493041 -0.5217925,-1.4417441 C 7.5140112,3.7744224 6.9259004,3.7030841 6.6596691,3.6951796 Z m 2.8855552,0.4414372 c -0.076439,7.925e-4 -0.1542984,0.035581 -0.1994671,0.095664 0,0 -0.5185686,0.7439399 -1.1289786,2.3275899 -1.8872,-0.85364 -3.6810982,0.341997 -3.6810982,2.421187 0,2.1717013 1.6707674,5.4705693 3.9303674,4.4747693 2.3798002,1.0298 3.9315302,-2.302868 3.9315302,-4.4747693 0,-2.0971 -1.612528,-3.3265901 -3.7082278,-2.4023901 l 6.46e-5,-1.291e-4 C 8.8644048,6.2862986 9.1413143,5.868042 9.4910943,5.466742 h 3.876e-4 c 0.29622,-0.34062 0.8763501,-0.7777796 0.8763501,-0.7777796 0.08719,-0.065894 0.07782,-0.1576795 -0.02132,-0.2038595 L 9.64541,4.1574162 C 9.614429,4.1429212 9.579969,4.1362562 9.5452243,4.1366168 Z" />
  <path
     id="path3-6"
     style="font-variant-ligatures:normal;font-variant-position:normal;font-variant-caps:normal;font-variant-numeric:normal;font-variant-alternates:normal;font-variant-east-asian:normal;font-feature-settings:normal;font-variation-settings:normal;text-indent:0;text-decoration-line:none;text-decoration-style:solid;text-decoration-color:#000000;text-transform:none;text-orientation:mixed;white-space:normal;shape-padding:0;shape-margin:0;inline-size:0;isolation:auto;mix-blend-mode:normal;fill:#ffffff;fill-opacity:1"
     d="m 6.6596691,3.3644571 c -0.088744,-0.00263 -0.1417198,0.00174 -0.1417198,0.00174 -0.10909,0.00916 -0.2054384,0.1057568 -0.2143884,0.2146468 0,0 -0.071309,0.8496108 0.5213404,1.4422608 0.59225,0.59205 1.4419378,0.521405 1.4419378,0.521405 0.10909,-0.00916 0.2054346,-0.1056922 0.2141946,-0.2145822 0,0 0.070063,-0.8493041 -0.5217925,-1.4417441 C 7.5140112,3.4436999 6.9259004,3.3723616 6.6596691,3.3644571 Z m 2.8855552,0.4414372 c -0.076439,7.925e-4 -0.1542984,0.035581 -0.1994671,0.095664 0,0 -0.5185686,0.7439399 -1.1289786,2.3275899 -1.8872,-0.85364 -3.6810982,0.341997 -3.6810982,2.421187 0,2.1716998 1.6707674,5.4705678 3.9303674,4.4747678 2.3798002,1.0298 3.9315302,-2.302868 3.9315302,-4.4747678 0,-2.0971 -1.612528,-3.3265901 -3.7082278,-2.4023901 l 6.46e-5,-1.291e-4 c 0.17499,-0.29224 0.4518995,-0.7104966 0.8016795,-1.1117966 h 3.876e-4 c 0.29622,-0.34062 0.8763501,-0.7777796 0.8763501,-0.7777796 0.08719,-0.065894 0.07782,-0.1576795 -0.02132,-0.2038595 L 9.64541,3.8266937 C 9.614429,3.8121987 9.579969,3.8055337 9.5452243,3.8058943 Z" />
</svg>
