<?xml version="1.0" encoding="UTF-8"?>
<svg id="svg23" width="64" height="64" version="1.1" viewBox="0 0 64 64" xmlns="http://www.w3.org/2000/svg" xmlns:cc="http://creativecommons.org/ns#" xmlns:dc="http://purl.org/dc/elements/1.1/" xmlns:rdf="http://www.w3.org/1999/02/22-rdf-syntax-ns#" xmlns:xlink="http://www.w3.org/1999/xlink">
 <metadata id="metadata29">
  <rdf:RDF>
   <cc:Work rdf:about="">
    <dc:format>image/svg+xml</dc:format>
    <dc:type rdf:resource="http://purl.org/dc/dcmitype/StillImage"/>
    <dc:title/>
   </cc:Work>
  </rdf:RDF>
 </metadata>
 <defs id="defs27">
  <filter id="filter1057" x="-.027" y="-.027" width="1.054" height="1.054" color-interpolation-filters="sRGB">
   <feGaussianBlur id="feGaussianBlur1059" stdDeviation="0.61875"/>
  </filter>
  <linearGradient id="linearGradient1053" x1="-127" x2="-127" y1="60" y2="5" gradientTransform="translate(131.5 -.51)" gradientUnits="userSpaceOnUse">
   <stop id="stop1047" stop-color="#a53cff" offset="0"/>
   <stop id="stop1049" stop-color="#b496ff" offset="1"/>
  </linearGradient>
 </defs>
 <g id="g30" fill="#5e4aa6">
  <circle id="circle24" cx="-1248.7" cy="-1241.6" r="0"/>
  <circle id="circle26" cx="-1140.3" cy="-1301.8" r="0"/>
  <circle id="circle28" cx="-1158.1" cy="-1246" r="0"/>
 </g>
 <circle id="circle36" cx="-1157.3" cy="-1267.7" r="0" fill="#5e4aa6"/>
 <circle id="circle38" cx="-57.756" cy="-2.1829" r="0" fill="#5e4aa6" fill-rule="evenodd"/>
 <rect id="rect1055" x="4.5" y="4.5" width="55" height="55" ry="15" fill="#141414" filter="url(#filter1057)" opacity=".3" stroke-linecap="round" stroke-width="2.7444"/>
 <rect id="rect1045" x="4.5" y="4.5" width="55" height="55" ry="15" fill="url(#linearGradient1053)" stroke-linecap="round" stroke-width="2.7444"/>
 <path id="rect996" d="m39.594 13.17c-0.1741 0.009539-0.35026 0.036045-0.52539 0.082031-1.0523 0.27711-1.7867 1.1543-1.9336 2.166-1.978 0.83969-8.7296 4.5769-7.7227 16.223-7.3948 0.215-11.284 2.1731-13.053 3.4512-0.45508-0.14333-0.95353-0.16535-1.4492-0.035156-1.4023 0.37267-2.239 1.8043-1.8711 3.209 0.37028 1.4035 1.8067 2.2438 3.209 1.8711 1.1562-0.30339 1.9276-1.3355 1.9551-2.4727l7.7305 8.1152c-0.18156 0.11228-0.36001 0.21586-0.5332 0.30664-0.61633-0.44911-1.4213-0.62732-2.2168-0.42188-1.4023 0.37028-2.2402 1.8075-1.8711 3.2109 0.37028 1.4035 1.8055 2.2426 3.209 1.8711 1.0941-0.28667 1.8406-1.2256 1.9434-2.291 3.6168-1.7964 6.6112-6.2089 5.8301-14.256 2.3208-0.01075 4.459-0.2721 6.3809-0.77734 2.8738-0.75608 5.2627-2.0502 7.0723-3.8574 2.2826-2.2826 3.5864-5.2726 3.8086-8.709 1.1132-0.53511 1.7316-1.7985 1.4043-3.0371-0.37028-1.4023-1.8048-2.2382-3.207-1.8691-1.4047 0.36908-2.2421 1.8036-1.873 3.207 0.17439 0.65814 0.58176 1.1892 1.1133 1.5332-0.1278 1.9278-0.70114 4.2768-2.3984 6.3301-4.7837-5.4574-6.805-7.6841-7.7402-8.5859 0.49928-0.31653 0.92092-0.51392 1.1992-0.625 0.63186 0.52555 1.4983 0.75114 2.3535 0.52539 1.4011-0.36908 2.2394-1.806 1.8691-3.207-0.32504-1.228-1.4649-2.0238-2.6836-1.957zm-3.7676 6.0195c1.0117 0.99975 4.9369 5.4195 7.8848 8.7734-0.63902 0.59961-1.3718 1.1304-2.1816 1.5879-4.1997-4.7909-6.3413-7.1807-7.4844-8.3691 0.57214-0.83969 1.1912-1.4941 1.7812-1.9922zm-2.459 3.1406c1.6113 1.7403 4.6041 5.1178 6.9727 7.8125-0.94122 0.41089-1.9689 0.738-3.0762 0.98047l-4.9609-5.8184c0.26517-1.1502 0.63326-2.1337 1.0645-2.9746zm-1.3496 4.6211 3.7812 4.4336c-1.1897 0.172-2.4621 0.25521-3.8047 0.24805-0.16842-1.7678-0.14139-3.3212 0.023437-4.6816zm-2.3027 7.2539c0.08719 0.7955 0.13259 1.538 0.14453 2.2344l-2.2363-2.1328c0.65933-0.05136 1.356-0.084841 2.0918-0.10156zm-3.7754 0.27734 3.873 3.6953c-0.11347 1.5062-0.40867 2.7528-0.81836 3.7812l-6.7695-6.7461c1.0404-0.29144 2.272-0.55011 3.7148-0.73047zm-5.0938 1.1719 7.5566 7.5293c-0.43239 0.74414-0.92823 1.3348-1.4395 1.8066l-8.0664-8.4648c0.51719-0.28069 1.1585-0.58204 1.9492-0.87109z" fill="#fff" stroke-linecap="round" stroke-linejoin="round" stroke-width="2" style="paint-order:stroke fill markers"/>
</svg>
