<?xml version="1.0" encoding="UTF-8" standalone="no"?>
<svg
   width="512"
   height="512"
   version="1.1"
   viewBox="0 0 16.933 16.933"
   id="svg3"
   sodipodi:docname="arronax.svg"
   inkscape:version="1.4.4 (dcaf3e7d9e, 2026-05-05)"
   xmlns:inkscape="http://www.inkscape.org/namespaces/inkscape"
   xmlns:sodipodi="http://sodipodi.sourceforge.net/DTD/sodipodi-0.dtd"
   xmlns="http://www.w3.org/2000/svg"
   xmlns:svg="http://www.w3.org/2000/svg"
   xmlns:rdf="http://www.w3.org/1999/02/22-rdf-syntax-ns#"
   xmlns:cc="http://creativecommons.org/ns#"
   xmlns:dc="http://purl.org/dc/elements/1.1/">
  <sodipodi:namedview
     id="namedview3"
     pagecolor="#ffffff"
     bordercolor="#000000"
     borderopacity="0.25"
     inkscape:showpageshadow="2"
     inkscape:pageopacity="0.0"
     inkscape:pagecheckerboard="0"
     inkscape:deskcolor="#d1d1d1"
     inkscape:zoom="1.5625"
     inkscape:cx="19.52"
     inkscape:cy="259.84"
     inkscape:window-width="1920"
     inkscape:window-height="1011"
     inkscape:window-x="0"
     inkscape:window-y="0"
     inkscape:window-maximized="1"
     inkscape:current-layer="svg3" />
  <defs
     id="defs2">
    <linearGradient
       id="linearGradient1448"
       x1="15.021"
       x2="15.021"
       y1="1.6368564"
       y2="15.021"
       gradientTransform="matrix(0.91666,0,0,0.91666,0.70538996,0.70538996)"
       gradientUnits="userSpaceOnUse">
      <stop
         stop-color="#289be6"
         offset="0"
         id="stop1"
         style="stop-color:#62a0ea;stop-opacity:1" />
      <stop
         stop-color="#8278eb"
         offset="1"
         id="stop2"
         style="stop-color:#1a5fb4;stop-opacity:1" />
    </linearGradient>
    <filter
       inkscape:collect="always"
       style="color-interpolation-filters:sRGB"
       id="filter3"
       x="-0.081818418"
       y="-0.069230597"
       width="1.1636368"
       height="1.1384612">
      <feGaussianBlur
         inkscape:collect="always"
         stdDeviation="0.25332347"
         id="feGaussianBlur3" />
    </filter>
    <filter
       inkscape:collect="always"
       style="color-interpolation-filters:sRGB"
       id="filter4"
       x="-0.064864977"
       y="-0.088888677"
       width="1.12973"
       height="1.1777774">
      <feGaussianBlur
         inkscape:collect="always"
         stdDeviation="0.098450326"
         id="feGaussianBlur4" />
    </filter>
  </defs>
  <metadata
     id="metadata2">
    <rdf:RDF>
      <cc:Work
         rdf:about="">
        <dc:format>image/svg+xml</dc:format>
        <dc:type
           rdf:resource="http://purl.org/dc/dcmitype/StillImage" />
      </cc:Work>
    </rdf:RDF>
  </metadata>
  <rect
     x="1.1905"
     y="1.1905"
     width="14.552"
     height="14.552"
     ry="3.4395001"
     fill="url(#linearGradient1448)"
     stroke-opacity="0.95294"
     stroke-width="0.083152"
     id="rect2"
     style="fill:url(#linearGradient1448)" />
  <path
     d="m 10.926234,13.180513 -2.4883002,-7.070802 -2.4751,7.070802 h -1.2335 l 3.1534,-8.781902 h 1.1254 l 3.1520002,8.781902 h -1.2335"
     fill="#ffffff"
     id="path2-6"
     style="fill:#000000;fill-opacity:1;filter:url(#filter3);opacity:0.35" />
  <path
     d="m 9.5472,9.1355225 c -0.40228,-0.11484 -0.84442,-0.08039 -1.2244,0.09221 -0.37864,0.17429 -0.69782,0.49989 -0.81266,0.9511515 -0.068567,0.275621 -0.042221,0.572511 0.077686,0.828541 0.12126,0.25738 0.34689,0.47625 0.65695,0.54752 0.18206,0.04087 0.37593,0.01858 0.54482,-0.06722 0.17023,-0.08444 0.31919,-0.24792 0.36006,-0.46578 0.023643,-0.12531 0.00541,-0.25332 -0.054043,-0.37087 -0.062149,-0.11619 -0.1807,-0.22293 -0.33641,-0.24657 -0.088495,-0.01317 -0.17294,0.0027 -0.25332,0.04898 -0.081739,0.04627 -0.16213,0.14254 -0.17294,0.26244 l 0.41444,0.03952 c -0.0027,0.02905 -0.029048,0.05945 -0.036817,0.06451 -0.00912,0.0054 -0.0027,0.0027 -0.011821,0.0013 0.013174,0.0027 0.015875,0.0041 0.027697,0.0277 0.013174,0.02364 0.019928,0.06722 0.014523,0.09491 -0.014523,0.07667 -0.059447,0.12936 -0.13578,0.16753 -0.077686,0.03682 -0.18476,0.04898 -0.2692,0.0331 -0.17564,-0.04087 -0.29419,-0.15436 -0.37087,-0.31784 -0.076673,-0.16111 -0.094912,-0.36816 -0.05134,-0.54211 0.081739,-0.3205425 0.2969,-0.5421125 0.58197,-0.6728325 0.28507,-0.13072 0.63466,-0.15841 0.93933,-0.07127 0.88393,0.25062 1.3646,1.2312025 1.2467,2.1323025 l 0.41309,0.05404 c 0.13984,-1.0872 -0.43403,-2.2745025 -1.5476,-2.5913025"
     fill="#ffffff"
     id="path3"
     style="fill:#000000;fill-opacity:1;filter:url(#filter4);opacity:0.35" />
  <path
     d="M 10.948,12.85745 8.4597,5.78665 5.9846,12.85745 H 4.7511 l 3.1534,-8.7819 h 1.1254 l 3.152,8.7819 h -1.2335"
     fill="#ffffff"
     id="path2" />
  <path
     d="M 9.547135,8.80484 C 9.144855,8.69 8.702715,8.72445 8.322735,8.89705 7.944095,9.07134 7.624915,9.39694 7.510075,9.8482 c -0.068567,0.27562 -0.042221,0.57251 0.077686,0.82854 0.12126,0.25738 0.34689,0.47625 0.65695,0.54752 0.18206,0.04087 0.37593,0.01858 0.54482,-0.06722 0.17023,-0.08444 0.31919,-0.24792 0.36006,-0.46578 0.023643,-0.12531 0.00541,-0.25332 -0.054043,-0.37087 -0.062149,-0.11619 -0.1807,-0.22293 -0.33641,-0.24657 -0.088495,-0.01317 -0.17294,0.0027 -0.25332,0.04898 -0.081739,0.04627 -0.16213,0.14254 -0.17294,0.26244 l 0.41444,0.03952 c -0.0027,0.02905 -0.029048,0.05945 -0.036817,0.06451 -0.00912,0.0054 -0.0027,0.0027 -0.011821,0.0013 0.013174,0.0027 0.015875,0.0041 0.027697,0.0277 0.013174,0.02364 0.019928,0.06722 0.014523,0.09491 -0.014523,0.07667 -0.059447,0.12936 -0.13578,0.16753 -0.077686,0.03682 -0.18476,0.04898 -0.2692,0.0331 C 8.16028,10.77294 8.04173,10.65945 7.96505,10.49597 7.888377,10.33486 7.870138,10.12781 7.91371,9.95386 7.995449,9.63332 8.21061,9.41175 8.49568,9.28103 8.78075,9.15031 9.13034,9.12262 9.43501,9.20976 c 0.88393,0.25062 1.3646,1.2312 1.2467,2.1323 L 11.0948,11.3961 C 11.23464,10.3089 10.66077,9.1216 9.5472,8.8048"
     fill="#ffffff"
     id="path3-5" />
</svg>
