<?xml version="1.0" encoding="UTF-8"?>
<svg id="svg2" width="64" height="64" version="1.1" viewBox="0 0 16.933 16.933" xmlns="http://www.w3.org/2000/svg" xmlns:xlink="http://www.w3.org/1999/xlink">
 <defs id="defs2">
  <filter id="filter1057" x="-.027" y="-.027" width="1.054" height="1.054" color-interpolation-filters="sRGB">
   <feGaussianBlur id="feGaussianBlur1059" stdDeviation="0.61875"/>
  </filter>
  <linearGradient id="linearGradient1053" x1="-127" x2="-127" y1="60" y2="5" gradientTransform="matrix(.26458 0 0 .26458 34.792 -.13493)" gradientUnits="userSpaceOnUse">
   <stop id="stop1047" stop-color="#df2a2a" offset="0"/>
   <stop id="stop1049" stop-color="#f83f3f" offset="1"/>
  </linearGradient>
 </defs>
 <rect id="rect1055" transform="scale(.26458)" x="4.5" y="4.5" width="55" height="55" ry="15" fill="#141414" filter="url(#filter1057)" opacity=".3" stroke-linecap="round" stroke-width="2.7444"/>
 <rect id="rect1045" x="1.1906" y="1.1906" width="14.552" height="14.552" ry="3.9687" fill="url(#linearGradient1053)" stroke-linecap="round" stroke-width=".7261"/>
 <rect id="rect3" x="2.3504" y="2.3504" width="12.232" height="12.232" ry="2.7824" fill="#fff" opacity=".2"/>
 <path id="path3" d="m8.466 4.6845c1.89 0 3.109 0.238 3.663 0.7 0.555 0.47 0.835 1.506 0.835 3.097v0.347h-4.497v-1.018h3.29c-0.054-0.877-0.225-1.432-0.511-1.67-0.342-0.292-1.274-0.438-2.78-0.438zm0 6.552c1.384 0 2.286-0.08 2.694-0.244 0.415-0.165 0.616-0.512 0.616-1.055h1.188c0 0.97-0.28 1.597-0.835 1.884-0.554 0.286-1.773 0.426-3.663 0.426zm-6e-3 1.011c-1.889 0-3.108-0.231-3.663-0.695-0.554-0.463-0.828-1.493-0.828-3.077 0-1.591 0.274-2.621 0.828-3.09 0.555-0.464 1.774-0.701 3.663-0.701h6e-3v1.018h-6e-3c-1.505 0-2.437 0.146-2.79 0.438-0.275 0.238-0.446 0.793-0.5 1.67h3.297v1.019h-3.317c0.037 1.042 0.207 1.7 0.53 1.975 0.348 0.286 1.274 0.432 2.78 0.432h5e-3v1.012z" fill="#fff"/>
</svg>
