<?xml version="1.0" encoding="UTF-8"?>
<svg id="svg13" width="64" height="64" version="1.1" xmlns="http://www.w3.org/2000/svg" xmlns:cc="http://creativecommons.org/ns#" xmlns:dc="http://purl.org/dc/elements/1.1/" xmlns:rdf="http://www.w3.org/1999/02/22-rdf-syntax-ns#">
 <metadata id="metadata19">
  <rdf:RDF>
   <cc:Work rdf:about="">
    <dc:format>image/svg+xml</dc:format>
    <dc:type rdf:resource="http://purl.org/dc/dcmitype/StillImage"/>
    <dc:title/>
   </cc:Work>
  </rdf:RDF>
 </metadata>
 <defs id="defs17">
  <linearGradient id="b-3" x1="399.57" x2="399.57" y1="545.8" y2="517.8" gradientTransform="matrix(2.1429,0,0,2.1429,-680.66,-1107.5)" gradientUnits="userSpaceOnUse">
   <stop id="stop969" stop-color="#3889e9" offset="0"/>
   <stop id="stop971" stop-color="#5ea5fb" offset="1"/>
  </linearGradient>
  <style id="style974" type="text/css"/>
  <style id="style976" type="text/css"/>
  <filter id="filter1057" x="-.027" y="-.027" width="1.054" height="1.054" color-interpolation-filters="sRGB">
   <feGaussianBlur id="feGaussianBlur978" stdDeviation="0.61875"/>
  </filter>
  <linearGradient id="linearGradient1053" x1="-127" x2="-127" y1="60" y2="5" gradientTransform="translate(203.93 -.054156)" gradientUnits="userSpaceOnUse">
   <stop id="stop981" stop-color="#1d2123" offset="0"/>
   <stop id="stop983" stop-color="#33393e" stop-opacity=".99608" offset="1"/>
  </linearGradient>
 </defs>
 <g id="g994" transform="translate(-72.44)">
  <rect id="rect988" x="76.935" y="4.9558" width="55" height="55" ry="15" fill="#141414" filter="url(#filter1057)" opacity=".3" stroke-linecap="round" stroke-width="2.7444"/>
  <rect id="rect990" x="76.935" y="4.9558" width="55" height="55" ry="15" fill="url(#linearGradient1053)" stroke-linecap="round" stroke-width="2.7444"/>
  <circle id="circle992" cx="104.44" cy="32" r="30.001" fill-opacity="0" stroke-width="1.5715"/>
 </g>
 <g id="g1028" transform="matrix(3.7796 0 0 3.7796 145.7 .45588)" fill="#5e4aa6" stroke-width=".26458">
  <circle id="circle1006" cx="-330.35" cy="-328.37" r="0" image-rendering="optimizeSpeed"/>
  <circle id="circle1008" cx="-330.35" cy="-328.38" r="0" image-rendering="optimizeSpeed"/>
  <circle id="circle1010" cx="-330.35" cy="-328.38" r="0" image-rendering="optimizeSpeed"/>
  <circle id="circle1012" cx="-352.63" cy="-336.84" r="0" image-rendering="optimizeSpeed"/>
  <circle id="circle1014" cx="-330.35" cy="-328.37" r="0" image-rendering="optimizeSpeed"/>
  <circle id="circle1016" cx="-305.84" cy="-328.27" r="0" image-rendering="optimizeSpeed"/>
  <circle id="circle1018" cx="-305.84" cy="-328.28" r="0" image-rendering="optimizeSpeed"/>
  <circle id="circle1020" cx="-305.84" cy="-328.28" r="0" image-rendering="optimizeSpeed"/>
  <circle id="circle1022" cx="-328.12" cy="-336.74" r="0" image-rendering="optimizeSpeed"/>
  <circle id="circle1024" cx="-305.84" cy="-328.27" r="0" image-rendering="optimizeSpeed"/>
  <circle id="circle1026" cx="-305.03" cy="-328.69" r="0"/>
 </g>
 <circle id="circle1030" cx="177.71" cy="32" r="0" fill="url(#b-3)" stroke-width="1.5715"/>
 <circle id="circle1032" cx="-1176.8" cy="-1241.1" r="0" fill="#5e4aa6"/>
 <circle id="circle1034" cx="-77.313" cy="24.311" r="0" fill="#5e4aa6" fill-rule="evenodd"/>
 <g id="g1129" transform="matrix(.55556 0 0 .55556 46.336 52.735)">
  <path id="path846" d="m-51.565-63.13c-2.24 2.2848-2.24 13.22-2.24 20.144 0 25.134 14.56 35.414 28 35.414s28-10.282 28-35.414c0-6.8554 0-17.859-2.24-20.144s-17.08 4.8068-21.56 9.3764h-8.4c-4.48-4.5696-19.32-11.661-21.56-9.3764z" fill="none" stroke="#fff" stroke-width="1.8"/>
  <g id="g862" transform="matrix(2 0 0 2 -57.805 -67.572)" fill="#fff" stroke-width=".50003">
   <path id="path856" d="m19 23.172c0 1.562-1.343 2.828-3 2.828s-3-1.266-3-2.828c0-1.5623 6-1.5623 6 0z"/>
   <path id="path858" d="m10 9a5 6 0 0 0-5 6 5 6 0 0 0 5 6 5 6 0 0 0 5-6 5 6 0 0 0-5-6zm0 2a3 4 0 0 1 3 4 3 4 0 0 1-3 4 3 4 0 0 1-3-4 3 4 0 0 1 3-4z" fill-rule="evenodd"/>
   <path id="path860" d="m22 9a5 6 0 0 0-5 6 5 6 0 0 0 5 6 5 6 0 0 0 5-6 5 6 0 0 0-5-6zm0 2a3 4 0 0 1 3 4 3 4 0 0 1-3 4 3 4 0 0 1-3-4 3 4 0 0 1 3-4z" fill-rule="evenodd"/>
  </g>
 </g>
</svg>
