<?xml version="1.0" encoding="UTF-8"?>
<svg id="svg17" width="64" height="64" version="1.1" xmlns="http://www.w3.org/2000/svg" xmlns:cc="http://creativecommons.org/ns#" xmlns:dc="http://purl.org/dc/elements/1.1/" xmlns:rdf="http://www.w3.org/1999/02/22-rdf-syntax-ns#">
 <metadata id="metadata23">
  <rdf:RDF>
   <cc:Work rdf:about="">
    <dc:format>image/svg+xml</dc:format>
    <dc:type rdf:resource="http://purl.org/dc/dcmitype/StillImage"/>
    <dc:title/>
   </cc:Work>
  </rdf:RDF>
 </metadata>
 <defs id="defs21">
  <style id="style931" type="text/css"/>
  <style id="style933" type="text/css"/>
  <filter id="filter1057" x="-.027" y="-.027" width="1.054" height="1.054" color-interpolation-filters="sRGB">
   <feGaussianBlur id="feGaussianBlur935" stdDeviation="0.61875"/>
  </filter>
  <linearGradient id="linearGradient1053" x1="-127" x2="-127" y1="60" y2="5" gradientTransform="translate(131.5 -.51)" gradientUnits="userSpaceOnUse">
   <stop id="stop938" stop-color="#dee0e2" offset="0"/>
   <stop id="stop940" stop-color="#f1f3f5" stop-opacity=".99608" offset="1"/>
  </linearGradient>
 </defs>
 <linearGradient id="a" x1="457.1" x2="457.1" y1="552.06" y2="429.4" gradientUnits="userSpaceOnUse">
  <stop id="stop2" stop-color="#bfc1c1" offset="0"/>
  <stop id="stop4" stop-color="#f1f2f3" offset="1"/>
 </linearGradient>
 <rect id="rect945" x="4.5" y="4.5" width="55" height="55" ry="15" fill="#141414" filter="url(#filter1057)" opacity=".3" stroke-linecap="round" stroke-width="2.7444"/>
 <rect id="rect947" x="4.5" y="4.5" width="55" height="55" ry="15" fill="url(#linearGradient1053)" stroke-linecap="round" stroke-width="2.7444"/>
 <circle id="circle953" cx="-1320.6" cy="-1254.4" r="0" fill="#5e4aa6"/>
 <circle id="circle955" cx="-221.04" cy="11.089" r="0" fill="#5e4aa6" fill-rule="evenodd"/>
 <g id="g15" transform="matrix(.85599 0 0 .85599 -310.88 -423.21)">
  <g id="g11" transform="matrix(.42586 0 0 .42586 207.22 322.71)" stroke-width="5.8974">
   <rect id="rect7" x="392.7" y="429.4" width="122.67" height="122.67" ry="61.333" fill="url(#a)"/>
   <rect id="rect9" x="392.7" y="429.91" width="122.67" height="122.67" ry="61.333" fill="none"/>
  </g>
  <path id="path13" d="m426.85 531.18c-2e-3 -0.0654-4e-3 -0.13057-6e-3 -0.19578-5e-3 -0.14345-0.01-0.28655-0.0162-0.42946-4e-3 -0.0738-8e-3 -0.14763-0.0113-0.22132-8e-3 -0.13873-0.0165-0.27712-0.0263-0.4153-5e-3 -0.0695-0.01-0.13882-0.0151-0.20814-0.013-0.16629-0.0279-0.33192-0.0441-0.49726-4e-3 -0.0381-7e-3 -0.0763-0.0106-0.11447-0.0206-0.20158-0.0438-0.40242-0.0689-0.60271-8e-3 -0.0592-0.0159-0.11812-0.0237-0.17724-0.019-0.14269-0.0385-0.28505-0.0599-0.42699-0.0108-0.0731-0.0223-0.14612-0.0338-0.21907-0.0205-0.13045-0.0422-0.26059-0.0647-0.39041-0.0126-0.0726-0.0251-0.14515-0.0383-0.21747-0.0258-0.1415-0.0531-0.28247-0.0812-0.42323-0.0112-0.0567-0.022-0.11394-0.0335-0.17059-0.0399-0.1931-0.0817-0.38546-0.12565-0.57697-0.0118-0.0518-0.0249-0.10328-0.0372-0.15491-0.0337-0.14236-0.068-0.2843-0.10384-0.4257-0.0185-0.0728-0.038-0.14549-0.0569-0.21811-0.0319-0.12156-0.0647-0.24289-0.0983-0.36371-0.0209-0.0751-0.0421-0.14986-0.0636-0.22463-0.0358-0.12403-0.0728-0.24741-0.11028-0.37066-0.0203-0.0672-0.0404-0.13477-0.0613-0.20169-0.0573-0.18337-0.1164-0.36606-0.17777-0.5476-0.0132-0.0395-0.0277-0.0785-0.0412-0.11811-0.0501-0.14612-0.10118-0.29192-0.15395-0.43696-0.0262-0.072-0.0532-0.14355-0.08-0.21533-0.0422-0.11287-0.0848-0.22542-0.12842-0.33751-0.0296-0.0765-0.0598-0.15279-0.0902-0.22884-0.0439-0.10974-0.0888-0.21907-0.13411-0.32819-0.0303-0.073-0.0604-0.1459-0.0914-0.21853-0.0554-0.13003-0.11233-0.2592-0.16982-0.38816-0.0223-0.05-0.0439-0.10065-0.0665-0.1505-0.0766-0.1691-0.15524-0.3371-0.23539-0.50425-0.0334-0.0697-0.0678-0.13871-0.10171-0.20802-0.0517-0.10547-0.10374-0.21081-0.15674-0.31542-0.0383-0.0755-0.0772-0.15062-0.11607-0.22573-0.0515-0.0993-0.10375-0.19814-0.15653-0.29673-0.0396-0.074-0.0793-0.14827-0.11964-0.22197-0.0584-0.1068-0.11822-0.21265-0.17808-0.31843-0.0355-0.0626-0.0702-0.12572-0.1061-0.18807-0.0919-0.15932-0.18549-0.31745-0.28066-0.47462-0.0385-0.0638-0.0783-0.12682-0.11747-0.19021-0.0623-0.10099-0.12478-0.20169-0.1884-0.30169-0.0458-0.0719-0.092-0.14333-0.13859-0.21478-0.0594-0.0916-0.11943-0.18282-0.18004-0.27357-0.0477-0.0715-0.0957-0.14301-0.14408-0.21403-0.0644-0.0945-0.1298-0.18828-0.19547-0.28195-0.045-0.0642-0.0895-0.12874-0.13507-0.19246-0.10599-0.14837-0.21328-0.2959-0.32227-0.44201-2.8706-3.8474-6.7701-6.8813-11.29-8.6966-2.1e-4 -1.1e-4 -4.2e-4 -1.1e-4 -6.3e-4 -2.2e-4 -0.17983-0.0722-0.3608-0.14227-0.54254-0.21061-0.0131-6e-3 -0.026-0.0101-0.039-0.0148-0.17231-0.0645-0.34567-0.12681-0.51968-0.18774-0.0234-8e-3 -0.0468-0.0166-0.0703-0.0246-0.16597-0.0575-0.3328-0.11329-0.50026-0.16758-0.0323-0.0109-0.0646-0.0212-0.0969-0.0315-0.16028-0.0512-0.32143-0.10086-0.4831-0.14924-0.0408-0.0122-0.0814-0.0243-0.12208-0.0363-0.15492-0.0454-0.31059-0.0895-0.46669-0.13217-0.0487-0.0134-0.0975-0.0267-0.14644-0.0397-0.14966-0.0399-0.29975-0.0787-0.45049-0.11608-0.0565-0.014-0.1134-0.0278-0.17016-0.0415-0.14461-0.0349-0.28945-0.0687-0.43502-0.1012-0.064-0.0143-0.12821-0.0281-0.19236-0.042-0.13979-0.03-0.27959-0.0593-0.42013-0.0872-0.0717-0.0142-0.14355-0.0277-0.21543-0.0413-0.13431-0.0254-0.26885-0.0503-0.40392-0.0738-0.0795-0.0138-0.15942-0.0267-0.23923-0.0397-0.12875-0.0211-0.25761-0.042-0.38699-0.0612-0.0877-0.0131-0.17572-0.0247-0.26359-0.037-0.12295-0.017-0.24589-0.0342-0.36949-0.0494-0.0959-0.012-0.19257-0.0222-0.28892-0.0331-0.11672-0.0131-0.23333-0.0267-0.3506-0.0383-0.10567-0.0108-0.21188-0.0189-0.31798-0.0283-0.1091-0.01-0.2179-0.0195-0.32743-0.0278-0.11834-9e-3 -0.23743-0.0153-0.35618-0.0225-0.0984-6e-3 -0.19645-0.013-0.29515-0.0179-0.13893-7e-3 -0.27861-0.0111-0.41797-0.0159-0.0797-2e-3 -0.15921-7e-3 -0.23924-9e-3 -0.22026-6e-3 -0.44094-9e-3 -0.66236-9e-3 -0.22145 0-0.44213 3e-3 -0.66227 9e-3 -0.0802 2e-3 -0.15963 6e-3 -0.23958 9e-3 -0.13935 5e-3 -0.27882 9e-3 -0.41764 0.0159-0.0989 5e-3 -0.19719 0.012-0.29568 0.0179-0.11855 8e-3 -0.23742 0.0138-0.35565 0.0225-0.10964 8e-3 -0.21875 0.0184-0.32807 0.0278-0.10578 9e-3 -0.21188 0.0177-0.31724 0.0283-0.11758 0.0115-0.23452 0.0252-0.35156 0.0383-0.096 0.0109-0.19215 0.021-0.28786 0.033-0.1239 0.0153-0.24717 0.0325-0.37055 0.0495-0.0876 0.0121-0.1753 0.0238-0.26252 0.0367-0.12982 0.0193-0.25899 0.0403-0.38816 0.0614-0.0793 0.0129-0.15878 0.0257-0.23794 0.0395-0.13563 0.0234-0.27047 0.0486-0.40533 0.0741-0.0714 0.0136-0.14269 0.0268-0.21382 0.041-0.14096 0.0281-0.28151 0.0573-0.42173 0.0875-0.0636 0.0136-0.12713 0.0274-0.19053 0.0415-0.14613 0.0326-0.29193 0.0665-0.43708 0.10163-0.0559 0.0136-0.1119 0.0272-0.16769 0.041-0.15158 0.0378-0.30255 0.0767-0.45317 0.11683-0.0478 0.0128-0.0958 0.0258-0.14355 0.0389-0.15705 0.0429-0.31359 0.0872-0.46957 0.13304-0.0396 0.0115-0.0791 0.0236-0.11844 0.0353-0.16308 0.0486-0.32529 0.0986-0.48686 0.15042-0.0309 0.01-0.0617 0.02-0.0925 0.03-0.16908 0.0547-0.33752 0.11103-0.50498 0.16918-0.0214 8e-3 -0.0429 0.0151-0.0643 0.0227-0.17605 0.0615-0.35136 0.12478-0.52569 0.18999-0.0104 5e-3 -0.0208 8e-3 -0.0311 0.0119-4.7593 1.788-8.8629 4.9152-11.85 8.9245-0.1046 0.14044-0.20781 0.28184-0.30963 0.42443-0.048 0.0673-0.0953 0.13561-0.14268 0.2034-0.063 0.09-0.12585 0.18003-0.18776 0.27078-0.0499 0.0733-0.0992 0.14688-0.14846 0.22058-0.059 0.0883-0.11727 0.17703-0.17521 0.26607-0.0477 0.0737-0.0956 0.14719-0.14268 0.22133-0.0614 0.0965-0.12156 0.19363-0.18163 0.29094-0.0413 0.0669-0.0831 0.13315-0.1237 0.20031-0.0944 0.1561-0.18732 0.31305-0.27862 0.47129-0.0374 0.0647-0.0734 0.13016-0.11018 0.19516-0.0587 0.10349-0.11705 0.20716-0.17423 0.31155-0.041 0.075-0.0813 0.1502-0.12156 0.2255-0.052 0.0971-0.10353 0.19462-0.15428 0.29258-0.0396 0.076-0.0788 0.15234-0.11778 0.22894-0.0523 0.10327-0.10364 0.20727-0.1546 0.31133-0.0345 0.0706-0.0696 0.14066-0.10353 0.21157-0.079 0.16478-0.15652 0.33033-0.23206 0.49693-0.0241 0.053-0.047 0.10657-0.0707 0.15965-0.0569 0.12799-0.1135 0.25618-0.16842 0.38526-0.0312 0.073-0.0612 0.14622-0.0916 0.21938-0.0452 0.10876-0.09 0.2179-0.13379 0.32734-0.0305 0.0762-0.0605 0.15265-0.0905 0.22926-0.0435 0.11199-0.0861 0.22433-0.12809 0.33708-0.0268 0.0719-0.0539 0.14355-0.0802 0.21586-0.0524 0.14472-0.10341 0.2901-0.15352 0.4359-0.0136 0.0398-0.0281 0.0792-0.0415 0.11897-0.0613 0.18164-0.12038 0.36434-0.17777 0.54769-0.0209 0.0669-0.041 0.13421-0.0614 0.20137-0.0376 0.12316-0.0745 0.24664-0.11019 0.37055-0.0216 0.0748-0.0428 0.14978-0.0636 0.22498-0.0337 0.12101-0.0665 0.24234-0.0984 0.36402-0.0191 0.0724-0.0383 0.14461-0.0566 0.21725-0.0361 0.14193-0.0706 0.2844-0.10439 0.4272-0.0121 0.0514-0.0248 0.1024-0.0368 0.15374-0.044 0.19171-0.0859 0.38418-0.12562 0.5774-0.0116 0.0564-0.0222 0.11329-0.0335 0.16983-0.0281 0.14097-0.0553 0.28205-0.0813 0.42387-0.013 0.0723-0.0257 0.14484-0.0383 0.21726-0.0225 0.13003-0.0441 0.26038-0.0647 0.39105-0.0114 0.0728-0.0229 0.14536-0.0337 0.21831-0.0212 0.14237-0.041 0.28518-0.06 0.42829-8e-3 0.0588-0.0162 0.11715-0.0237 0.17605-0.0251 0.2003-0.0482 0.40124-0.0689 0.60293-4e-3 0.0382-7e-3 0.0763-0.0105 0.11448-0.0162 0.16533-0.0311 0.33097-0.0441 0.49725-6e-3 0.0693-0.0101 0.13872-0.0151 0.20814-0.01 0.13818-0.0187 0.27657-0.0264 0.41529-4e-3 0.0737-8e-3 0.14753-0.0113 0.22133-7e-3 0.1428-0.0118 0.28601-0.0162 0.42945-2e-3 0.0653-5e-3 0.13035-6e-3 0.1958-5e-3 0.20633-8e-3 0.41393-8e-3 0.62216 0 0.18636 3e-3 0.37206 7e-3 0.55747 2e-3 0.0835 4e-3 0.16693 7e-3 0.25017 2e-3 0.0715 5e-3 0.1428 8e-3 0.21413 0.18066 4.7229 1.607 9.1259 3.9604 12.891 3.1e-4 4.2e-4 5.2e-4 8.5e-4 7.5e-4 9.7e-4 0.44597 0.71321 0.925 1.4034 1.4354 2.0685 3e-3 3e-3 6e-3 8e-3 9e-3 0.011 0.50498 0.65754 1.0401 1.2905 1.6038 1.8969 0.0131 0.014 0.0262 0.0282 0.0393 0.0422 0.10719 0.11469 0.21511 0.22873 0.3242 0.34149 5e-3 5e-3 9e-3 0.01 0.0136 0.014 0.33913 0.34995 0.6879 0.69049 1.0458 1.0212 0.0113 0.0109 0.0227 0.0211 0.0341 0.0316 0.106 0.0975 0.21296 0.19409 0.32057 0.28989 0.0295 0.0265 0.0591 0.0526 0.0889 0.079 0.10526 0.0928 0.21081 0.18496 0.31745 0.27605 0.0246 0.0211 0.0497 0.042 0.0744 0.063 0.3403 0.28881 0.68811 0.56903 1.0431 0.84057 0.0354 0.0272 0.0707 0.0546 0.10632 0.0816 0.10127 0.0767 0.20341 0.15234 0.30598 0.22755 0.0484 0.0357 0.0968 0.071 0.14547 0.10623 0.10046 0.0727 0.20094 0.14483 0.30233 0.21607 0.0476 0.0335 0.0956 0.0663 0.14344 0.0994 0.3372 0.23356 0.68007 0.4594 1.0283 0.6774 0.0587 0.0367 0.11704 0.0736 0.17594 0.10974 0.0966 0.0595 0.19397 0.11791 0.29138 0.17605 0.0657 0.0394 0.13164 0.0782 0.19772 0.11684 0.096 0.056 0.19215 0.11201 0.28881 0.16704 0.0683 0.0388 0.1369 0.0767 0.20556 0.1149 0.33677 0.18742 0.67782 0.36745 1.0234 0.54027 0.0762 0.0382 0.15213 0.0763 0.22873 0.11363 0.0946 0.0462 0.18989 0.0915 0.28505 0.13657 0.0782 0.0371 0.15674 0.0737 0.23539 0.10985 0.0953 0.0439 0.19033 0.0875 0.28623 0.13025 0.0808 0.0361 0.162 0.0712 0.24321 0.10645 0.0948 0.0412 0.18936 0.0828 0.28473 0.12294 2.1e-4 1.1e-4 4.3e-4 2.2e-4 7.5e-4 3.2e-4 3.1297 1.3153 6.567 2.0426 10.174 2.0426 3.5588 0 6.9516-0.70872 10.047-1.9903 2.1e-4 -1e-4 5.3e-4 -2.1e-4 7.4e-4 -3.2e-4 0.15922-0.066 0.31756-0.13368 0.47527-0.20267 0.016-7e-3 0.0321-0.014 0.048-0.021 0.15427-0.068 0.3079-0.13711 0.46079-0.20792 0.013-6e-3 0.026-0.0121 0.039-0.0182 0.80367-0.37378 1.5853-0.78692 2.3426-1.2371 0.0159-0.01 0.0318-0.0188 0.0477-0.0284 0.13561-0.0811 0.27025-0.16328 0.40425-0.24664 0.0277-0.0172 0.0553-0.0345 0.0829-0.0517 0.13013-0.0816 0.25952-0.16413 0.38815-0.24804 0.0265-0.0173 0.0528-0.0349 0.0794-0.0523 0.13217-0.0869 0.26393-0.17446 0.3945-0.2636 5e-3 -3e-3 0.0104-8e-3 0.0159-0.0109 0.42302-0.28956 0.83713-0.59134 1.242-0.90451 0.0209-0.0162 0.0422-0.0321 0.0631-0.0484 0.10909-0.085 0.21723-0.17134 0.32484-0.2579 0.0437-0.0351 0.0874-0.0701 0.131-0.10548 0.0997-0.0812 0.1988-0.16339 0.29728-0.2461 0.05-0.042 0.0999-0.0842 0.14967-0.12649 0.0947-0.0808 0.18902-0.16178 0.28258-0.24375 0.0516-0.0451 0.10268-0.0911 0.15384-0.13657 0.092-0.082 0.184-0.16372 0.27476-0.24696 0.0477-0.0438 0.0948-0.0883 0.14226-0.1324 0.19568-0.18184 0.3889-0.36648 0.57901-0.55412 0.0265-0.0261 0.0534-0.0516 0.0797-0.0778 0.0761-0.0756 0.15062-0.15255 0.22572-0.22915 0.0623-0.0637 0.12488-0.12691 0.18656-0.19118 0.0706-0.0734 0.14012-0.14763 0.20964-0.22176 0.0652-0.0696 0.13035-0.13914 0.19482-0.20931 0.0662-0.0722 0.13207-0.14494 0.19772-0.21789 0.0672-0.0748 0.1338-0.14999 0.20009-0.22551 0.0618-0.0705 0.12359-0.14107 0.18486-0.21232 0.0707-0.0824 0.14064-0.16543 0.21027-0.24869 0.0554-0.0661 0.11125-0.13185 0.16597-0.19858 0.0873-0.10634 0.17327-0.21382 0.25898-0.32152 0.0358-0.045 0.0724-0.0893 0.10771-0.13443 0.11812-0.1504 0.23431-0.30233 0.34911-0.45531 0.0422-0.0559 0.0832-0.11296 0.12466-0.1693 0.0757-0.10262 0.15128-0.20544 0.22551-0.30919 0.0457-0.0637 0.0906-0.12798 0.13572-0.19225 0.0691-0.0983 0.13774-0.19719 0.20567-0.29664 0.0449-0.0658 0.0895-0.13195 0.13377-0.19826 0.0678-0.1012 0.13453-0.20299 0.20083-0.30523 0.0417-0.064 0.0833-0.12799 0.12425-0.19247 0.0712-0.11188 0.14118-0.22465 0.2108-0.33773 0.034-0.0552 0.0687-0.11007 0.10225-0.16554 0.10065-0.16607 0.19955-0.33322 0.29654-0.50164 2e-3 -3e-3 3e-3 -6e-3 5e-3 -9e-3 1.1e-4 -1e-4 1.1e-4 -3.3e-4 2.1e-4 -4.3e-4 2.0558-3.5756 3.2926-7.681 3.4602-12.06 3e-3 -0.0713 6e-3 -0.14259 8e-3 -0.21414 3e-3 -0.0834 5e-3 -0.16671 7e-3 -0.25018 4e-3 -0.18538 7e-3 -0.3711 7e-3 -0.55745 0-0.20834-3e-3 -0.41595-8e-3 -0.6231zm-25.204-17.443 6.6321-4.8184c0.56957 0.19203 1.1332 0.40586 1.6904 0.64156 2.8742 1.2157 5.456 2.9564 7.6736 5.174 1.2098 1.2099 2.2768 2.529 3.1949 3.9442l-2.3146 7.3084-6.8988 2.2649-9.9775-7.2488zm-18.142 0.9971c2.2176-2.2176 4.7992-3.9582 7.6735-5.174 0.55701-0.2356 1.1207-0.44953 1.6905-0.64156l6.632 4.8184v7.2657l-10.031 7.2878-6.8344-2.2693-2.3256-7.3428c0.91824-1.4152 1.9851-2.7344 3.1949-3.9443zm4.2187 32.478-6.5472-1.0371c-1.1413-1.5362-2.0941-3.2007-2.8454-4.9774-1.2305-2.9091-1.8661-5.9968-1.8935-9.1805l5.532-3.9567 6.8386 2.2706 3.8739 11.923zm23.297 6.3584c-0.34621 0.16618-0.69671 0.32441-1.0519 0.47472-2.9746 1.2582-6.1356 1.8961-9.3953 1.8961-3.2596 0-6.4207-0.6379-9.3952-1.8961-0.39953-0.16897-0.79282-0.3492-1.1809-0.53834l-0.75667-4.7777 5.347-5.347h12.722l4.5962 4.5962zm11.796-12.373c-0.6155 1.4552-1.3662 2.8352-2.2446 4.1312l-7.1482 1.1321-4.7739-4.774 3.7103-11.419 6.7881-2.2286 5.5618 3.978c-0.0274 3.1839-0.6629 6.2716-1.8934 9.1807z" fill-opacity=".71371"/>
 </g>
 <path id="path999" d="m45.364 25.333-1.1111-5.5556-2.2222-2.2222h-5.5556c-1.1111 1.1111-2.2222 2.2222-4.4157 2.2222-2.1933 0-3.3621-1.1111-4.4732-2.2222h-4.4444l-2.2222 2.2222-2.2222 5.5556 4.4444 3.3333 1.1111-3.3333v21.111h15.556v-21.111l1.1111 3.3333z" fill="#fff" fill-rule="evenodd" stroke="#444445" stroke-width="1.1111"/>
 <path id="path1001" d="m27 27v2h1v6h-1v2h4v-2h-1v-8zm6 0v2h1v6h-1v2h4v-2h-1v-8z" fill="#3f4040" style="paint-order:normal"/>
</svg>
