<?xml version="1.0" encoding="UTF-8"?>
<svg id="svg16" width="64" height="64" version="1.1" viewBox="0 0 64 64" xmlns="http://www.w3.org/2000/svg" xmlns:cc="http://creativecommons.org/ns#" xmlns:dc="http://purl.org/dc/elements/1.1/" xmlns:rdf="http://www.w3.org/1999/02/22-rdf-syntax-ns#" xmlns:xlink="http://www.w3.org/1999/xlink">
 <metadata id="metadata22">
  <rdf:RDF>
   <cc:Work rdf:about="">
    <dc:format>image/svg+xml</dc:format>
    <dc:type rdf:resource="http://purl.org/dc/dcmitype/StillImage"/>
    <dc:title/>
   </cc:Work>
  </rdf:RDF>
 </metadata>
 <defs id="defs20">
  <linearGradient id="linearGradient938">
   <stop id="stop934" stop-color="#55b4ff" offset="0"/>
   <stop id="stop936" stop-color="#3c8cff" offset="1"/>
  </linearGradient>
  <linearGradient id="linearGradient940" x1="9.4452" x2="34.445" y1="83.619" y2="83.619" gradientTransform="translate(.27315 -32.959)" gradientUnits="userSpaceOnUse" xlink:href="#linearGradient938"/>
  <linearGradient id="linearGradient952" x1="9.4452" x2="34.445" y1="83.619" y2="83.619" gradientTransform="translate(-2.4045 -22.965)" gradientUnits="userSpaceOnUse" xlink:href="#linearGradient938"/>
  <style id="style880" type="text/css"/>
  <linearGradient id="linearGradient1448" x1="3.9687" x2="3.9687" y1="16.385" y2=".54085" gradientTransform="matrix(3.4646 0 0 3.4646 2.6662 2.6664)" gradientUnits="userSpaceOnUse">
   <stop id="stop887" stop-color="#cfdef0" offset="0"/>
   <stop id="stop889" stop-color="#f5faff" offset="1"/>
  </linearGradient>
 </defs>
 <g id="g926" transform="matrix(3.7796 0 0 3.7796 -4.9881e-7 -.0037798)" fill="#5e4aa6" stroke-width=".26458">
  <g id="g904">
   <circle id="circle896" cx="-330.35" cy="-328.38" r="0"/>
   <circle id="circle898" cx="-330.35" cy="-328.37" r="0"/>
   <circle id="circle900" cx="-330.35" cy="-328.37" r="0"/>
   <circle id="circle902" cx="-352.63" cy="-336.83" r="0"/>
  </g>
  <g id="g914" transform="translate(32.665,-10.979)">
   <circle id="circle906" cx="-330.35" cy="-328.38" r="0"/>
   <circle id="circle908" cx="-312.11" cy="-326.25" r="0"/>
   <circle id="circle910" cx="-306.02" cy="-333.07" r="0"/>
   <circle id="circle912" cx="-308.84" cy="-326.01" r="0"/>
  </g>
  <g id="g924" transform="translate(-39.276 .89826)">
   <circle id="circle916" cx="-330.35" cy="-328.38" r="0"/>
   <circle id="circle918" cx="-312.11" cy="-326.25" r="0"/>
   <circle id="circle920" cx="-306.02" cy="-333.07" r="0"/>
   <circle id="circle922" cx="-308.84" cy="-326.01" r="0"/>
  </g>
 </g>
 <rect id="rect928" x="4.4996" y="4.4996" width="55.001" height="55.001" ry="13" fill="url(#linearGradient1448)" stroke-opacity=".95294" stroke-width=".31428"/>
 <g id="g966" transform="matrix(.83777 0 0 .83777 3.5336 3.097)">
  <path id="path854" d="m27.82 43.533a10.431 10.431 0 0 1-13.206-2.3286 10.431 10.431 0 0 1 0-13.41 10.431 10.431 0 0 1 13.206-2.3286" fill="none" stroke="#1955b9" stroke-linecap="round" stroke-width="4.1485"/>
  <g id="g958" transform="translate(-.76653 -.14595)">
   <rect id="rect930" transform="rotate(75)" x="30.731" y="-30.261" width="25" height="5" ry="2.5" fill="#1955b9"/>
   <rect id="rect932" transform="matrix(-.25882 .96593 .96593 .25882 0 0)" x="9.7183" y="48.16" width="25" height="5" ry="2.5" fill="url(#linearGradient940)"/>
   <rect id="rect948" transform="rotate(75)" x="33.409" y="-40.254" width="25" height="5" ry="2.5" fill="#1955b9"/>
   <rect id="rect950" transform="matrix(-.25882 .96593 .96593 .25882 0 0)" x="7.0406" y="58.153" width="25" height="5" ry="2.5" fill="url(#linearGradient952)"/>
  </g>
 </g>
</svg>
