<?xml version="1.0" encoding="UTF-8"?>
<svg id="svg42" width="64" height="64" version="1.1" xmlns="http://www.w3.org/2000/svg" xmlns:cc="http://creativecommons.org/ns#" xmlns:dc="http://purl.org/dc/elements/1.1/" xmlns:rdf="http://www.w3.org/1999/02/22-rdf-syntax-ns#" xmlns:xlink="http://www.w3.org/1999/xlink">
 <metadata id="metadata48">
  <rdf:RDF>
   <cc:Work rdf:about="">
    <dc:format>image/svg+xml</dc:format>
    <dc:type rdf:resource="http://purl.org/dc/dcmitype/StillImage"/>
    <dc:title/>
   </cc:Work>
  </rdf:RDF>
 </metadata>
 <defs id="defs46">
  <filter id="filter1057" x="-.027" y="-.027" width="1.054" height="1.054" color-interpolation-filters="sRGB">
   <feGaussianBlur id="feGaussianBlur902" stdDeviation="0.61875"/>
  </filter>
  <linearGradient id="linearGradient1053" x1="-127" x2="-127" y1="60" y2="5" gradientTransform="matrix(1 0 0 1 131.5 -.51021)" gradientUnits="userSpaceOnUse">
   <stop id="stop905" stop-color="#dee0e2" offset="0"/>
   <stop id="stop907" stop-color="#f1f3f5" stop-opacity=".99608" offset="1"/>
  </linearGradient>
  <linearGradient id="linearGradient1045" x1="409.2" x2="408.49" y1="545.91" y2="501.54" gradientUnits="userSpaceOnUse" xlink:href="#b"/>
 </defs>
 <linearGradient id="b">
  <stop id="stop3" stop-color="#3889e9" offset="0"/>
  <stop id="stop5" stop-color="#5ea5fb" offset="1"/>
 </linearGradient>
 <linearGradient id="d" x1="354.45" x2="354.45" y1="554.21" y2="506.21" gradientTransform="matrix(1.25 0 0 1.25 -381.74 -623.37)" gradientUnits="userSpaceOnUse" xlink:href="#b"/>
 <circle id="circle38" cx="63.466" cy="39.388" r="0" fill="url(#d)" stroke-width="1.25"/>
 <rect id="rect937" transform="matrix(1 0 0 1 -.00022762 -.00022762)" x="4.5" y="4.5" width="55" height="55" ry="15" fill="#141414" filter="url(#filter1057)" opacity=".3" stroke-linecap="round" stroke-width="2.7444"/>
 <rect id="rect939" x="4.4998" y="4.4998" width="55.001" height="55.001" ry="15" fill="url(#linearGradient1053)" stroke-linecap="round" stroke-width="2.7444"/>
 <circle id="circle973" cx="-1248.6" cy="-1241.1" r="0" fill="#5e4aa6"/>
 <circle id="circle975" cx="-1159.1" cy="-1247.2" r="0" fill="#5e4aa6"/>
 <g id="g36" transform="matrix(1.25 0 0 1.25 -478.9 -623.58)" fill="url(#linearGradient1045)">
  <ellipse id="ellipse18" cx="400.31" cy="515.86" rx="3.187" ry="3.1867"/>
  <ellipse id="ellipse20" cx="408.85" cy="515.86" rx="3.187" ry="3.1867"/>
  <ellipse id="ellipse22" cx="417.13" cy="515.86" rx="3.187" ry="3.1867"/>
  <ellipse id="ellipse24" cx="400.31" cy="524.66" rx="3.187" ry="3.1867"/>
  <ellipse id="ellipse26" cx="400.31" cy="533.07" rx="3.187" ry="3.1867"/>
  <ellipse id="ellipse28" cx="417.13" cy="524.4" rx="3.187" ry="3.1867"/>
  <ellipse id="ellipse30" cx="417.13" cy="532.82" rx="3.187" ry="3.1867"/>
  <ellipse id="ellipse32" cx="408.85" cy="533.07" rx="3.187" ry="3.1867"/>
  <ellipse id="ellipse34" cx="408.85" cy="524.53" rx="3.187" ry="3.1867"/>
 </g>
</svg>
