<?xml version="1.0" encoding="UTF-8"?>
<svg id="svg68" width="64" height="64" version="1.1" xmlns="http://www.w3.org/2000/svg" xmlns:cc="http://creativecommons.org/ns#" xmlns:dc="http://purl.org/dc/elements/1.1/" xmlns:rdf="http://www.w3.org/1999/02/22-rdf-syntax-ns#" xmlns:xlink="http://www.w3.org/1999/xlink">
 <metadata id="metadata74">
  <rdf:RDF>
   <cc:Work rdf:about="">
    <dc:format>image/svg+xml</dc:format>
    <dc:type rdf:resource="http://purl.org/dc/dcmitype/StillImage"/>
    <dc:title/>
   </cc:Work>
  </rdf:RDF>
 </metadata>
 <defs id="defs72">
  <linearGradient id="linearGradient899" x1="314.93" x2="314.93" y1="487.85" y2="492.43" gradientUnits="userSpaceOnUse" xlink:href="#c"/>
  <filter id="filter1057" x="-.027" y="-.027" width="1.054" height="1.054" color-interpolation-filters="sRGB">
   <feGaussianBlur id="feGaussianBlur930" stdDeviation="0.61875"/>
  </filter>
  <linearGradient id="linearGradient1053" x1="-127" x2="-127" y1="60" y2="5" gradientTransform="matrix(1 0 0 1 131.5 -.51036)" gradientUnits="userSpaceOnUse">
   <stop id="stop933" stop-color="#dee0e2" offset="0"/>
   <stop id="stop935" stop-color="#f1f3f5" stop-opacity=".99608" offset="1"/>
  </linearGradient>
 </defs>
 <linearGradient id="a">
  <stop id="stop2" stop-color="#d6c240" offset="0"/>
  <stop id="stop4" stop-color="#fff360" offset="1"/>
 </linearGradient>
 <linearGradient id="b">
  <stop id="stop7" stop-color="#258e52" offset="0"/>
  <stop id="stop9" stop-color="#00c253" offset="1"/>
 </linearGradient>
 <linearGradient id="c">
  <stop id="stop12" stop-color="#ff4c39" offset="0"/>
  <stop id="stop14" stop-color="#cf3d2e" offset="1"/>
 </linearGradient>
 <linearGradient id="g" x1="315.57" x2="315.57" y1="487.85" y2="492.43" gradientUnits="userSpaceOnUse" xlink:href="#c"/>
 <linearGradient id="h" x1="315.3" x2="315.3" y1="487.85" y2="492.43" gradientUnits="userSpaceOnUse" xlink:href="#c"/>
 <linearGradient id="i" x1="309.44" x2="309.44" y1="498.83" y2="494.26" gradientUnits="userSpaceOnUse" xlink:href="#b"/>
 <linearGradient id="j" x1="309.44" x2="309.44" y1="505.24" y2="499.75" gradientUnits="userSpaceOnUse" xlink:href="#b"/>
 <linearGradient id="k" x1="322.25" x2="322.25" y1="497.92" y2="494.26" gradientUnits="userSpaceOnUse" xlink:href="#a"/>
 <linearGradient id="l" x1="322.25" x2="322.25" y1="504.32" y2="499.78" gradientUnits="userSpaceOnUse" xlink:href="#a"/>
 <linearGradient id="m" x1="309.54" x2="309.54" y1="492.98" y2="487.52" gradientUnits="userSpaceOnUse" xlink:href="#a"/>
 <linearGradient id="n" x1="310.45" x2="309.54" y1="491.79" y2="489.04" gradientUnits="userSpaceOnUse">
  <stop id="stop35" stop-color="#2574a8" offset="0"/>
  <stop id="stop37" stop-color="#329ee4" offset="1"/>
 </linearGradient>
 <rect id="rect965" transform="matrix(1 0 0 1 -.00022771 -.00022771)" x="4.5" y="4.5" width="55" height="55" ry="15" fill="#141414" filter="url(#filter1057)" opacity=".3" stroke-linecap="round" stroke-width="2.7444"/>
 <rect id="rect967" x="4.4996" y="4.4996" width="55.001" height="55.001" ry="15" fill="url(#linearGradient1053)" stroke-linecap="round" stroke-width="2.7444"/>
 <g id="g66" transform="matrix(1.7419 0 0 1.7419 -518.33 -832.68)">
  <g id="g52">
   <ellipse id="ellipse46" cx="309.9" cy="490.23" rx="2.287" ry="2.2868" fill="url(#linearGradient899)"/>
   <ellipse id="ellipse48" cx="316.03" cy="490.23" rx="2.287" ry="2.2868" fill="url(#h)"/>
   <ellipse id="ellipse50" cx="321.98" cy="490.23" rx="2.287" ry="2.2868" fill="url(#g)"/>
  </g>
  <ellipse id="ellipse54" cx="309.9" cy="496.54" rx="2.287" ry="2.2868" fill="url(#i)"/>
  <ellipse id="ellipse56" cx="309.9" cy="502.58" rx="2.287" ry="2.2868" fill="url(#j)"/>
  <ellipse id="ellipse58" cx="321.98" cy="496.36" rx="2.287" ry="2.2868" fill="url(#k)"/>
  <ellipse id="ellipse60" cx="321.98" cy="502.4" rx="2.287" ry="2.2868" fill="url(#l)"/>
  <ellipse id="ellipse62" transform="translate(6.3122 12.259)" cx="309.72" cy="490.32" rx="2.287" ry="2.2868" fill="url(#m)"/>
  <ellipse id="ellipse64" transform="translate(6.3122 6.1294)" cx="309.72" cy="490.32" rx="2.287" ry="2.2868" fill="url(#n)"/>
 </g>
 <circle id="circle1001" cx="-1320.2" cy="-1241.1" r="0" fill="#5e4aa6"/>
 <circle id="circle1003" cx="-1230.7" cy="-1247.2" r="0" fill="#5e4aa6"/>
</svg>
