<?xml version="1.0" encoding="UTF-8"?>
<svg id="svg11" width="64" height="64" version="1.1" xmlns="http://www.w3.org/2000/svg" xmlns:cc="http://creativecommons.org/ns#" xmlns:dc="http://purl.org/dc/elements/1.1/" xmlns:rdf="http://www.w3.org/1999/02/22-rdf-syntax-ns#">
 <metadata id="metadata17">
  <rdf:RDF>
   <cc:Work rdf:about="">
    <dc:format>image/svg+xml</dc:format>
    <dc:type rdf:resource="http://purl.org/dc/dcmitype/StillImage"/>
    <dc:title/>
   </cc:Work>
  </rdf:RDF>
 </metadata>
 <defs id="defs15">
  <filter id="filter2076" x="-.048" y="-.048" width="1.096" height="1.096" color-interpolation-filters="sRGB">
   <feGaussianBlur id="feGaussianBlur161" stdDeviation="1.1"/>
  </filter>
  <linearGradient id="linearGradient2070" x1="145" x2="200" y1="59" y2="4" gradientTransform="translate(-140.5 .5)" gradientUnits="userSpaceOnUse">
   <stop id="stop154" stop-color="#ffc841" offset="0"/>
   <stop id="stop156" stop-color="#ffbe37" offset=".4925"/>
   <stop id="stop158" stop-color="#ffc841" offset="1"/>
  </linearGradient>
 </defs>
 <circle id="circle14" cx="11.342" cy="22.082" r="0" fill="url(#a-3)" stroke-width="1.6375"/>
 <circle id="circle4299" cx="12.399" cy="22.095" r="0" fill="url(#a-3)" stroke-width="1.501"/>
 <circle id="circle847" cx="-1334.9" cy="-1263.6" r="0" fill="#5e4aa6"/>
 <g id="g859" transform="translate(-86.247 -21.973)" fill="#5e4aa6">
  <circle id="circle853" cx="-149.15" cy="23.855" r="0" fill-rule="evenodd"/>
  <circle id="circle855" cx="-1150.9" cy="-1256.6" r="0"/>
  <circle id="circle857" cx="-51.327" cy="8.8744" r="0" fill-rule="evenodd"/>
 </g>
 <rect id="rect170" x="4.5" y="4.5" width="55" height="55" rx="13.002" ry="13.002" filter="url(#filter2076)" opacity=".3"/>
 <rect id="rect172" x="4.5" y="4.5" width="55" height="55" rx="13.002" ry="13.002" fill="url(#linearGradient2070)"/>
 <path id="path921" d="m35.164 45.3 11.312-24.798c1.5083-3.682-3.6377-5.8114-5.4122-2.4399l-3.9482 8.9168-5.0129 11.712-5.1016-11.712-3.9482-8.9168c-1.9519-3.682-7.1866-0.79852-5.4565 2.7061l11.712 24.532c1.6858 3.4602 4.8355 2.7948 5.8558 0z" fill="#342500" stroke-width="1.7745"/>
</svg>
