<?xml version="1.0" encoding="UTF-8"?>
<svg id="svg41" width="64" height="64" version="1.1" xmlns="http://www.w3.org/2000/svg" xmlns:cc="http://creativecommons.org/ns#" xmlns:dc="http://purl.org/dc/elements/1.1/" xmlns:rdf="http://www.w3.org/1999/02/22-rdf-syntax-ns#" xmlns:xlink="http://www.w3.org/1999/xlink">
 <metadata id="metadata47">
  <rdf:RDF>
   <cc:Work rdf:about="">
    <dc:format>image/svg+xml</dc:format>
    <dc:type rdf:resource="http://purl.org/dc/dcmitype/StillImage"/>
    <dc:title/>
   </cc:Work>
  </rdf:RDF>
 </metadata>
 <defs id="defs45">
  <style id="style883" type="text/css"/>
  <filter id="filter1057" x="-.027" y="-.027" width="1.054" height="1.054" color-interpolation-filters="sRGB">
   <feGaussianBlur id="feGaussianBlur885" stdDeviation="0.61875"/>
  </filter>
  <linearGradient id="linearGradient1053" x1="-127" x2="-127" y1="60" y2="5" gradientTransform="translate(131.5 -.51)" gradientUnits="userSpaceOnUse">
   <stop id="stop888" stop-color="#32d7ff" offset="0"/>
   <stop id="stop890" stop-color="#329bff" offset="1"/>
  </linearGradient>
  <style id="style893" type="text/css"/>
  <style id="style895" type="text/css"/>
  <style id="style897" type="text/css"/>
  <style id="style899" type="text/css"/>
  <style id="style901" type="text/css"/>
  <style id="style903" type="text/css"/>
  <style id="style905" type="text/css"/>
 </defs>
 <linearGradient id="e" x1="399.57" x2="399.57" y1="545.8" y2="517.8" gradientTransform="matrix(1.4866 0 0 1.4875 -571.51 -767.22)" gradientUnits="userSpaceOnUse" xlink:href="#g"/>
 <linearGradient id="f" x1="399.57" x2="399.57" y1="545.8" y2="517.8" gradientTransform="matrix(2.4342 0 0 2.4358 -1014.6 -1271.4)" gradientUnits="userSpaceOnUse" xlink:href="#g"/>
 <linearGradient id="g" x1="399.57" x2="399.57" y1="545.8" y2="517.8" gradientUnits="userSpaceOnUse">
  <stop id="stop24" stop-color="#3889e9" offset="0"/>
  <stop id="stop26" stop-color="#5ea5fb" offset="1"/>
 </linearGradient>
 <circle id="circle29" cx="23.961" cy="23.848" r="0" fill="url(#e)" stroke-width="1.487"/>
 <circle id="circle31" cx="-39.575" cy="23.929" r="0" fill="url(#f)" stroke-width="2.435"/>
 <rect id="rect872" x="4.5" y="4.5" width="55" height="55" ry="15" fill="#141414" filter="url(#filter1057)" opacity=".3" stroke-linecap="round" stroke-width="2.7444"/>
 <rect id="rect874" x="4.5" y="4.5" width="55" height="55" ry="15" fill="url(#linearGradient1053)" stroke-linecap="round" stroke-width="2.7444"/>
 <g id="g943" fill="#5e4aa6">
  <g id="g919" transform="translate(-69.651 .27376)">
   <circle id="circle911" cx="-1331.1" cy="-1237.8" r="0"/>
   <circle id="circle913" cx="-1262.2" cy="-1229.7" r="0"/>
   <circle id="circle915" cx="-1239.2" cy="-1255.5" r="0"/>
   <circle id="circle917" cx="-1249.8" cy="-1228.8" r="0"/>
  </g>
  <g id="g929" transform="matrix(3.7796,0,0,3.7796,-152.17,3.6649)" stroke-width=".26458">
   <circle id="circle921" cx="-330.35" cy="-328.38" r="0"/>
   <circle id="circle923" cx="-312.11" cy="-326.25" r="0"/>
   <circle id="circle925" cx="-306.02" cy="-333.07" r="0"/>
   <circle id="circle927" cx="-308.84" cy="-326.01" r="0"/>
  </g>
  <circle id="circle931" cx="-1201.2" cy="-1293.8" r="0"/>
  <g id="g941">
   <circle id="circle933" cx="-1082.7" cy="-1333.1" r="0"/>
   <circle id="circle935" cx="16.829" cy="-67.587" r="0" fill-rule="evenodd"/>
   <circle id="circle937" cx="-1004.2" cy="-1404.6" r="0"/>
   <circle id="circle939" cx="95.328" cy="-139.06" r="0" fill-rule="evenodd"/>
  </g>
 </g>
 <g id="g1011" transform="matrix(.94737 0 0 .94737 11.158 9.2632)" fill="#fff" shape-rendering="auto" stroke-width="1.5447">
  <path id="path1007" d="m27.484 18.13 8.6504-8.6504 2.4715 2.4715-8.6504 8.6505zm-3.5528 8.9594c-1.6992 0-3.0894-1.3902-3.0894-3.0894s1.3902-3.0894 3.0894-3.0894 3.0894 1.3902 3.0894 3.0894-1.3902 3.0894-3.0894 3.0894zm14.829 8.9593-2.4715 2.4715-8.6504-8.6504 2.4715-2.4717z" color="#000000" color-rendering="auto" dominant-baseline="auto" image-rendering="auto" solid-color="#000000" stop-color="#000000" style="font-feature-settings:normal;font-variant-alternates:normal;font-variant-caps:normal;font-variant-east-asian:normal;font-variant-ligatures:normal;font-variant-numeric:normal;font-variant-position:normal;font-variation-settings:normal;inline-size:0;isolation:auto;mix-blend-mode:normal;shape-margin:0;shape-padding:0;text-decoration-color:#000000;text-decoration-line:none;text-decoration-style:solid;text-indent:0;text-orientation:mixed;text-transform:none;white-space:normal"/>
  <path id="path1009" d="m24.085 37.285c1.6992 0 3.3984-0.30894 4.9431-0.92683l4.3252 4.3252c-2.7805 1.5447-5.8699 2.3171-9.1138 2.3171-10.504 0-19-8.4959-19-19s8.4959-19 19-19c3.3984 0 6.4878 0.92683 9.1138 2.3171l-4.1707 4.1707c-1.5447-0.61789-3.2439-0.92683-4.9431-0.92683-7.4146 0-13.285 6.0244-13.285 13.285-0.15447 7.4146 5.7154 13.439 13.13 13.439z" color="#000000" color-rendering="auto" dominant-baseline="auto" image-rendering="auto" solid-color="#000000" stop-color="#000000" style="font-feature-settings:normal;font-variant-alternates:normal;font-variant-caps:normal;font-variant-east-asian:normal;font-variant-ligatures:normal;font-variant-numeric:normal;font-variant-position:normal;font-variation-settings:normal;inline-size:0;isolation:auto;mix-blend-mode:normal;shape-margin:0;shape-padding:0;text-decoration-color:#000000;text-decoration-line:none;text-decoration-style:solid;text-indent:0;text-orientation:mixed;text-transform:none;white-space:normal"/>
 </g>
</svg>
