<?xml version="1.0" encoding="UTF-8"?>
<svg id="svg4" width="64" height="64" version="1.1" xmlns="http://www.w3.org/2000/svg" xmlns:xlink="http://www.w3.org/1999/xlink">
 <defs id="defs4">
  <filter id="filter1057" x="-.027" y="-.027" width="1.054" height="1.054" color-interpolation-filters="sRGB">
   <feGaussianBlur id="feGaussianBlur1059" stdDeviation="0.61875"/>
  </filter>
  <linearGradient id="linearGradient1053" x1="-127" x2="-127" y1="60" y2="5" gradientTransform="translate(131.5 -.51)" gradientUnits="userSpaceOnUse">
   <stop id="stop1047" stop-color="#df2a2a" offset="0"/>
   <stop id="stop1049" stop-color="#f83f3f" offset="1"/>
  </linearGradient>
 </defs>
 <rect id="rect1055" x="4.5" y="4.5" width="55" height="55" ry="15" fill="#141414" filter="url(#filter1057)" opacity=".3" stroke-linecap="round" stroke-width="2.7444"/>
 <rect id="rect1045" x="4.5" y="4.5" width="55" height="55" ry="15" fill="url(#linearGradient1053)" stroke-linecap="round" stroke-width="2.7444"/>
 <circle id="circle4" cx="32" cy="32" r="22" fill="#fff"/>
 <path id="path4" d="m32.006 14.391c-0.352 0-3.245-0.133-6.069 1.243-2.161 1.052-0.564 4.251 1.573 3.15 1.873-0.966 3.674-0.871 4.496-0.871 7.865 0 14.087 6.222 14.087 14.087s-6.222 14.087-14.087 14.087-14.086-6.221-14.087-14.087c0-0.82-0.095-2.622 0.871-4.496 1.101-2.137-2.098-3.734-3.15-1.573-1.375 2.824-1.242 5.716-1.242 6.07 2e-3 9.742 7.865 17.608 17.609 17.608 9.743 0 17.609-7.865 17.609-17.609 0-9.743-7.866-17.609-17.61-17.609z" fill="#f13939"/>
 <rect id="rect5" x="29.652" y="22.609" width="4.696" height="18.783" ry="2.348" fill="#65b5f7" style="paint-order:stroke fill markers"/>
 <rect id="rect6" transform="rotate(240)" x="-46.061" y="2.321" width="4.696" height="18.783" ry="2.348" fill="#65b5f7" style="paint-order:stroke fill markers"/>
 <rect id="rect7" transform="rotate(120)" x="9.365" y="-53.105" width="4.696" height="18.783" ry="2.348" fill="#65b5f7" style="paint-order:stroke fill markers"/>
</svg>
