<?xml version="1.0" encoding="UTF-8"?>
<svg id="svg67" width="128" height="128" version="1.1" viewBox="0 0 33.867 33.867" xmlns="http://www.w3.org/2000/svg" xmlns:xlink="http://www.w3.org/1999/xlink">
 <defs id="defs51">
  <linearGradient id="j" x1="28.494" x2="44.475" y1="295.86" y2="293.21" gradientTransform="rotate(8.487 1680.4 -38.182) scale(.88919)" gradientUnits="userSpaceOnUse">
   <stop id="stop1" stop-color="#ffd6c0" offset="0"/>
   <stop id="stop2" stop-color="#ffdac7" offset="1"/>
  </linearGradient>
  <linearGradient id="k" x1="141.5" x2="136.21" y1="283.19" y2="252.28" gradientTransform="rotate(8.487 1569.5 -514.95) scale(.88919)" gradientUnits="userSpaceOnUse">
   <stop id="stop3" stop-color="#00d5c1" offset="0"/>
   <stop id="stop4" stop-color="#25bfbc" offset="1"/>
  </linearGradient>
  <linearGradient id="l" x1="520.35" x2="545.38" y1="88.861" y2="79.25" gradientTransform="rotate(8.486 96.165 -694.78) scale(.23526)" gradientUnits="userSpaceOnUse" xlink:href="#c"/>
  <linearGradient id="c">
   <stop id="stop5" stop-color="#fff" offset="0"/>
   <stop id="stop6" stop-color="#c2f9f6" offset="1"/>
  </linearGradient>
  <linearGradient id="m" x1="520.35" x2="545.38" y1="88.861" y2="79.25" gradientTransform="rotate(8.672 97.01 -686.24) scale(.23725)" gradientUnits="userSpaceOnUse" xlink:href="#c"/>
  <linearGradient id="n" x1="136.86" x2="150.33" y1="279.09" y2="279.09" gradientTransform="rotate(8.487 1673 -577.83) scale(.88919)" gradientUnits="userSpaceOnUse">
   <stop id="stop7" stop-color="#e1fcfa" offset="0"/>
   <stop id="stop8" stop-color="#e1fcfa" stop-opacity="0" offset="1"/>
  </linearGradient>
  <linearGradient id="o" x1="132.21" x2="132.21" y1="42.152" y2="70.68" gradientTransform="translate(-111.75 -37.292) scale(.97573)" gradientUnits="userSpaceOnUse">
   <stop id="stop9" stop-color="#eaefef" offset="0"/>
   <stop id="stop10" stop-color="#e6e9ec" offset="1"/>
  </linearGradient>
  <linearGradient id="s" x1="55.195" x2="63.539" y1="11.817" y2="26.123" gradientTransform="translate(-31.948 5.404)" gradientUnits="userSpaceOnUse">
   <stop id="stop50" stop-color="#f7f8f9" offset="0"/>
   <stop id="stop51" stop-color="#dadcde" offset="1"/>
  </linearGradient>
  <radialGradient id="p" cx="11.953" cy="20.59" r="4.205" gradientTransform="translate(3.81 -13.446) scale(1.8351)" gradientUnits="userSpaceOnUse">
   <stop id="stop11" stop-opacity=".56126" offset="0"/>
   <stop id="stop12" stop-opacity=".56078" offset=".134"/>
   <stop id="stop13" stop-opacity=".54902" offset=".198"/>
   <stop id="stop14" stop-opacity=".52549" offset=".299"/>
   <stop id="stop15" stop-opacity=".50196" offset=".37"/>
   <stop id="stop16" stop-opacity=".40784" offset=".509"/>
   <stop id="stop17" stop-opacity=".21961" offset=".752"/>
   <stop id="stop18" stop-opacity=".12941" offset=".843"/>
   <stop id="stop19" stop-opacity=".031373" offset=".953"/>
   <stop id="stop20" stop-opacity=".019608" offset=".982"/>
   <stop id="stop21" stop-color="#ef4e30" stop-opacity="0" offset="1"/>
  </radialGradient>
  <radialGradient id="q" cx="24.249" cy="24.25" r="9.633" gradientTransform="matrix(.901 0 0 .901 3.211 3.02)" gradientUnits="userSpaceOnUse">
   <stop id="stop22" offset="0"/>
   <stop id="stop23" stop-opacity=".87843" offset=".592"/>
   <stop id="stop24" stop-opacity=".56471" offset=".648"/>
   <stop id="stop25" stop-opacity=".52549" offset=".682"/>
   <stop id="stop26" stop-opacity=".44314" offset=".727"/>
   <stop id="stop27" stop-opacity=".28627" offset=".795"/>
   <stop id="stop28" stop-opacity=".18431" offset=".843"/>
   <stop id="stop29" stop-opacity=".078431" offset=".903"/>
   <stop id="stop30" stop-opacity=".062745" offset=".92"/>
   <stop id="stop31" stop-opacity=".054902" offset=".931"/>
   <stop id="stop32" stop-opacity=".031373" offset=".956"/>
   <stop id="stop33" stop-opacity=".027451" offset=".961"/>
   <stop id="stop34" stop-opacity="0" offset=".992"/>
   <stop id="stop35" stop-opacity="0" offset="1"/>
  </radialGradient>
  <radialGradient id="r" cx="24.249" cy="24.25" r="9.633" gradientTransform="translate(.081 -.061) scale(1.0025)" gradientUnits="userSpaceOnUse">
   <stop id="stop36" offset="0"/>
   <stop id="stop37" stop-opacity=".78764" offset=".716"/>
   <stop id="stop38" stop-opacity=".67451" offset=".746"/>
   <stop id="stop39" stop-opacity=".61961" offset=".763"/>
   <stop id="stop40" stop-opacity=".5451" offset=".786"/>
   <stop id="stop41" stop-opacity=".48627" offset=".807"/>
   <stop id="stop42" stop-opacity=".29804" offset=".862"/>
   <stop id="stop43" stop-opacity=".18824" offset=".89"/>
   <stop id="stop44" stop-opacity=".082353" offset=".924"/>
   <stop id="stop45" stop-opacity=".043137" offset=".943"/>
   <stop id="stop46" stop-opacity=".031373" offset=".956"/>
   <stop id="stop47" stop-opacity=".027451" offset=".961"/>
   <stop id="stop48" stop-opacity="0" offset=".992"/>
   <stop id="stop49" stop-opacity="0" offset="1"/>
  </radialGradient>
 </defs>
 <path id="path51" d="M8.871 2.43a6.435 6.435 0 0 0-6.449 6.449v16.189a6.435 6.435 0 0 0 6.45 6.449h12.507L18.42 2.43Z" fill="url(#j)"/>
 <path id="path52" d="m7.909 2.52-.132.003a6.42 6.42 0 0 0-1.338.379c-.416.913.413 2.005.753 2.882-.097.427-.404.682-.79.828.833.036 1.933-.11 2.134-.995-.367-.947-1.302-2.144-.627-3.097Zm9.49 1.403c-.068.107-.215.222-.393.325.092.308.817.128 1.312-.149-.3-.062-.602-.135-.92-.176Zm-13 2.852a7.531 7.531 0 0 0-1.71.258c-.053.18-.1.361-.137.547a.79.79 0 0 1 .126-.084c.503-.36 1.097-.586 1.722-.721ZM18.622 8.25c-.258.013-.514.043-.753.148.264-.01.52-.041.753-.148zm-16.199.822v.76c.582.254 1.17.48 1.7.73.344 1.246 1.82 1.15 2.713 1.77.66.771 1.64.848 2.58.979.785.091 2.556.593 1.048 1.289-.639.727.347 1.927-.838 2.317-.304.868-1.406.973-2.18 1.181-1.22.532-2.408 1.147-3.687 1.532-.784.236-1.988 1.606-.45 1.674.707.172 1.446.188 2.125-.047a4.606 4.606 0 0 1-.782-.12c-1.537-.067-.333-1.438.45-1.674 1.28-.385 2.468-.999 3.689-1.531.773-.208 1.875-.314 2.18-1.182 1.184-.39.198-1.59.837-2.316 1.508-.697-.263-1.199-1.048-1.29-.939-.131-1.92-.208-2.58-.98-.893-.618-2.37-.523-2.713-1.77-.745-.35-1.601-.65-2.398-1.055a.875.875 0 0 1-.646-.267Zm8.92 10.706c-.1 0-.195.005-.278.015a9.512 9.512 0 0 0-.933.161c.685.038 1.52.327 1.02 1.031-.052.632.183 1.34.232 1.938.454-.006.906.025 1.352.124.032-.648-.3-1.49-.24-2.229.456-.643-.202-.943-.84-1.02a2.797 2.797 0 0 0-.313-.02zm9.662 1.303c-.082.151-.195.3-.325.432.158.21.358.287.569.266.023-.19-.044-.418-.244-.698zm-11.45 2.03c-.442.03-.883.09-1.319.16-.515.082-1.75.542-1.68.83 1.212-.193 2.477-.07 3.707-.125.165-.075.32-.122.47-.152-.949-.001-1.906-.037-2.832.11-.07-.284 1.126-.733 1.653-.824zm2.77.51a2.11 2.11 0 0 0-.718.187c-.036.002-.073.001-.11.003.483.065.97.228 1.613.248.69.834-.231 2.344.682 2.99.334.57.347 1.052-.48.971-.543.327-.71.986-1.303 1.292l-.805.652-1.038.476-1.373.468-.383.027-.565.126-.743.183-.046.013c.074.022.149.043.225.062l.04-.03.513-.05.612-.161.743-.184.565-.125.383-.028 1.373-.468 1.038-.475.806-.653c.592-.306.76-.965 1.301-1.292.829.081.815-.4.482-.971-.914-.646.007-2.156-.683-2.99-.58-.019-1.032-.155-1.47-.229a2.692 2.692 0 0 0-.658-.042z" fill="#8d7c6a" fill-opacity=".087912"/>
 <path id="path53" d="M16.767 2.43c-.984 9.72 2.607 21.4-3.122 29.087h7.788l4.331-.039a6.433 6.433 0 0 0 5.745-6.41V8.878a6.435 6.435 0 0 0-6.45-6.448z" fill="url(#k)"/>
 <path id="path54" d="M19.438 3.886c-.39.164-.76.366-1.106.6.103 0 .158.01.263-.044.037-.019.06-.06.1-.073.022-.008.324-.011.329-.011.023.043.055.083.07.13.003.009-.021-.012-.03-.005-.007.006.005.023-.003.03-.045.032-.022-.054-.034.024-.015.011-.04-.015-.058-.009-.013.004-.02.02-.033.025-.01.003-.02-.003-.03-.005l-.029-.004c-.074-.01-.043.028-.095.045-.01.003-.02-.007-.03-.004-.026.008-.039.047-.066.05-.03.003-.058-.014-.088-.014-.03.002-.06.017-.091.017-.04 0-.078-.012-.116-.018l-.204-.03h-.001A6.43 6.43 0 0 0 15.5 9.83v16.19a6.433 6.433 0 0 0 3.07 5.498h6.489c.098 0 .196-.003.294-.007.584-.895-.198-2.191.105-3.154.555-1.476-.936-2.334-1.258-3.672-1.213-.365-4.15.074-3.538-1.939.79-.354 2.591-.562 1.686-1.83-.402.738-1.534 1.457-1.888.12.221-1.181-1.25-.9-1.56-1.664.931-.367.677-1.59 1.308-2.144.064-1.397-1.487-2.2-1.316-3.65-.34-1.077-.492-2.26-.531-3.334.825-1.235-2.372-.977-.639-1.773.889-.518 2.052.159 2.742-.801.965-.742 2.047-1.258 3.165-1.717l-.022-.02-.002.002c-.02.001-.039-.006-.058-.009l-.088-.013-.203-.03-.116-.018c-.006-.008-.005-.026.004-.029.019-.006.039.015.058.009.01-.003-.004-.024.004-.03.008-.006.02.007.03.005.021-.004.04-.017.062-.02.01-.002.019.006.029.004.03-.003.061-.01.092-.016l.021-.005c-.452-.39-1.045-.747-1.597-1.16-.003.003-.004.002-.006.006-.012.016.003.043-.008.059-.008.01-.026.013-.034.025-.011.016.003.042-.009.058-.008.01-.025.013-.033.024-.006.009.004.024-.004.03-.008.006-.021-.011-.03-.005-.008.006.002.021-.004.03-.008.01-.022.016-.033.024-.012.01-.02.02-.034.025-.01.003-.019-.006-.029-.004-.22.038.047-.003-.096.045-.01.003-.02-.008-.029-.005-.013.004-.02.023-.033.025-.02.003-.039-.01-.058-.009-.066.007-.093.052-.159.066-.384.082.026-.047-.241.023-.043.011-.083.03-.125.041-.06.016-.123.022-.184.033-.03.006-.06.015-.091.016-.03 0-.058-.01-.088-.014l-.087-.013c-.02-.003-.108-.011-.116-.017-.018-.011-.036-.04-.02-.062.008-.011.025-.014.033-.025.02-.029-.012-.03.009-.058.008-.011.025-.014.033-.025.012-.016-.002-.042.009-.058.008-.01.026-.014.034-.025.005-.008-.004-.023.004-.029.008-.006.02.01.029.004.008-.006-.004-.023.004-.029.008-.006.02.006.03.004.03-.002.06-.01.09-.016.498-.106-.278.052.372-.093.06-.014.123-.015.183-.032.055-.016.102-.054.158-.066.059-.012.12.006.18-.003.042-.005.082-.029.124-.04.058-.017.078-.02.105-.025a5.221 5.221 0 0 1-.618-.56c-.578.17-1.098.056-1.634-.061zm.352 1.508c-.004-.001-.005.009.088.013.07.003.14 0 .209.001.088.003.177.01.266.01.217 0 .5-.026.715-.012.117.009.232.04.35.052.038.005.448.016.502.016.05 0 .1-.003.15-.007.03-.003.06-.016.091-.016.04 0 .078.01.117.017-.142.105-.08.107-.163.094-.01-.001-.02-.007-.03-.004-.025.008-.04.041-.066.05-.018.006-.04-.015-.058-.01-.013.005-.02.021-.033.026-.01.003-.02-.008-.03-.005-.013.004-.02.02-.033.025-.01.003-.021-.01-.03-.004-.007.006.005.023-.003.029-.016.01-.043-.02-.059-.01-.008.007.006.027-.004.03-.018.007-.039-.01-.058-.008-.022.002-.041.016-.063.02-.01.001-.02-.006-.029-.004-.021.004-.04.019-.062.02-.03.001-.058-.009-.088-.013-.02.007-.04.018-.062.02-.02.002-.039-.005-.058-.008l-.262-.04c-.039-.005-.077-.017-.116-.017-.04 0-.08.013-.12.012-.04-.001-.079-.011-.117-.017l-.117-.018-.349-.052-.203-.03c-.03-.004-.06-.004-.088-.013-.029-.01-.053-.033-.083-.042-.028-.009-.059-.003-.087-.013-.183-.066.07-.02-.112-.047-.01-.001.02.01.03.004.078-.037.07-.048.065-.05zm-1.24.35c.039.003.077.016.116.018.05.001.1-.009.15-.008.078.001.153.04.232.035-.035.034-.073.065-.104.103-.029.035.035.06.05.067.008.004.02-.001.028.004.012.008.013.027.025.034.018.008.039.005.058.008.01.002.031-.006.03.005-.008.05-.07.009-.092.016-.107.035.086.042-.12.012-.069-.01-.136-.028-.204-.03-.05-.002-.1.008-.15.006-.04 0-.077-.015-.116-.017-.05-.001-.1.01-.15.008-.04-.002-.077-.018-.117-.018-.03 0-.06.016-.091.016-.04 0-.078-.011-.116-.017l-.146-.022c-.03-.004-.06-.004-.087-.013-.189-.06-.022-.033-.112-.046-.01.003-.031.005-.03-.005.002-.01.02.003.03.005.015-.005.114-.085.133-.1.012-.008.02-.02.034-.024.019-.006.039.012.058.009.032-.006.028-.006.042-.01-.05-.006.074-.017 0 0a.719.719 0 0 0 .108.003c.03-.001.06-.012.091-.016a3.08 3.08 0 0 1 .45-.022zm3.874.34-.13.07c-.001.01.004.023-.004.03-.009.006-.126-.025-.145-.022-.105.018-.026.026-.092.016-.007-.001-.086-.014-.087-.013-.008.006.003.023-.005.029-.008.006-.019-.006-.029-.005-.021.004-.04.017-.062.02-.01.002-.02-.005-.03-.003-.042.007-.08.033-.124.04-.026.004-.096-.025-.116-.017-.014.004-.02.022-.034.025-.02.003-.04-.015-.058-.01-.01.004.004.024-.005.03-.063.047-.057.005-.12.012-.022.002-.04.019-.062.02-.03.002-.058-.013-.088-.013-.03.001-.06.017-.092.016-.049-.001-.097-.015-.145-.022l-.116-.017c-.039-.006-.08-.006-.117-.017-.021-.006-.033-.03-.054-.038-.046-.016-.097-.015-.145-.022-.01-.001-.023.004-.029-.004-.006-.008-.004-.023.004-.03.003-.002.1.019.116.018.195-.01-.026-.039.242-.023.059.003.116.03.174.026.075-.006.142-.055.217-.057.098-.003.194.029.29.043.072-.009.142-.023.213-.028.07-.004.139.003.208.002.144-.002.287-.013.425-.056zm-2.431.946c.098-.004.197.005.295.014a.89.89 0 0 1 .129.015c.017.003.017.005.016.007-.013.004-.02.02-.033.024-.01.003-.021-.01-.03-.004-.007.006.005.023-.003.03-.007.004-.075-.018-.088-.014-.013.004-.02.02-.033.025-.02.006-.126-.028-.146-.022-.013.004-.02.02-.033.025-.019.006-.042-.02-.058-.009-.008.007.004.023-.005.03-.015.01-.038-.013-.058-.01-.021.005-.04.019-.062.021-.02.002-.039-.006-.058-.009-.048-.007-.096-.023-.145-.021-.022 0-.04.02-.063.02-.03.002-.058-.013-.087-.013-.031.001-.06.016-.092.016-.029 0-.057-.015-.087-.013-.044.003-.082.033-.125.04-.01.002-.02-.006-.03-.003-.013.004-.02.018-.032.025-.162.076-.002 0-.092.016-.022.004-.042.013-.062.02l-.063.02c-.02.008-.04.021-.062.02-.06 0-.117-.017-.175-.025l-.495-.074-.203-.03c-.03-.005-.06-.005-.088-.014-.029-.01-.053-.032-.082-.041-.028-.01-.064.004-.088-.013-.01-.008.02-.023.033-.025.02-.003.04.009.059.009.04 0 .08-.012.12-.012.591-.01-.137.013.5.044.174.009.595-.033.748-.037.149-.003.297.013.445.007.112-.005.221-.035.333-.04zm.588.029c-.04.004-.079.01-.119.011-.01 0-.019-.007-.028-.004-.001.003.003 0 .147-.007z" fill="url(#l)"/>
 <path id="path55" d="M15.413 2.711c-.027-.004-.044.033-.067.05l-.067.05.021.657c-.016-.123.135-.213.169-.332.011-.042-.037-.081-.041-.125-.004-.04.011-.078.017-.116-.013-.042-.033-.082-.04-.125-.004-.02.027-.056.008-.059zm-.113.757c.04.19.008.35-.02.532l-.017.116c-.006.039-.021.078-.017.117.004.043.033.081.04.125.004.019-.02.042-.008.058.066.089.072-.088.05.067l-.027.174c.12-.29.05.071.093-.224l.104-.698c.003-.015.035-.168.026-.174-.066-.047-.213-.013-.224-.093zm.001 1.19c-.018.043-.043.288-.052.348l.009-.058zm-.052.348c-.003.02-.028.055-.009.058.02.003.006-.039.01-.058zm-.936 2.471c-.01-.003-.02-.004-.027.002-.032.023.005.084-.018.116-.016.023-.05.027-.067.05-.03.043.004.131-.026.174-.016.023-.05.027-.067.05a5.835 5.835 0 0 0-.052.349c.005.027.045.04.05.067.007.038-.024.077-.018.116.005.027.041.04.05.067.012.037-.03.079-.017.116.008.026.04.04.05.067.011.037-.03.08-.018.116.008.027.045.04.05.067.006.038-.022.077-.018.116.008.088.073.163.082.25.003.04-.012.078-.018.117l-.035.232c-.007.05-.018.201-.034.233-.02.04-.056.069-.076.108-.024.047-.02.256-.043.29-.016.023-.051.027-.067.05-.011.016-.006.039-.009.058-.006.041-.043.335-.052.35-.016.022-.054.024-.067.049-.017.034-.064.434-.07.465-.012.087-.019.073.033.183.012.025.04.04.05.067.006.019-.006.039-.01.058-.002.02.008.047-.008.059-.016.01-.042-.02-.058-.01-.032.024.005.085-.017.117-.016.023-.051.027-.067.05-.03.043.004.131-.026.174-.016.023-.051.027-.067.05-.03.043.004.131-.026.174-.115.164-.03-.113-.143.157-.015.037-.002.08-.017.117-.017.04-.059.067-.076.107-.015.037-.011.078-.017.117l-.026.174c-.014.097-.045.193-.043.291 0 .062.03.121.032.183.001.067-.07.351-.06.408.004.027.04.04.049.066.013.04-.044.184-.035.233.007.043.033.082.04.125.004.02-.014.04-.008.058.009.027.038.042.05.067.018.04.014.09.04.125.012.015.042-.003.058.008.023.016.027.051.05.067.016.012.042-.002.058.009.023.015.033.045.05.067.063.086.105.158.206.21.035.016.239.035.291.043l.407.06c.059.009.116.03.175.026.044-.002.081-.036.125-.04.037-.004.159.02.235.033l-.003.001c-.003.02.043.02.058.009.01-.008.015-.153.026-.175.02-.039.054-.07.076-.107.031-.054.053-.113.084-.166.022-.038.059-.067.076-.108.015-.036.011-.077.017-.116.006-.039.024-.078.017-.116a3.08 3.08 0 0 0-.148-.201c-.032-.023-.093.014-.116-.017-.012-.016.02-.043.008-.059-.023-.031-.093.015-.116-.017-.012-.015.02-.042.009-.058-.012-.015-.043.003-.059-.008-.022-.016-.026-.051-.05-.067-.158-.111.057.146-.107-.076-.032-.03-.072-.05-.107-.075-.036-.025-.069-.056-.108-.076-.018-.008-.047.007-.058-.009-.012-.015.02-.042.008-.058-.011-.015-.046.007-.058-.008-.011-.016.02-.043.009-.059-.012-.015-.047.007-.058-.008-.012-.016.02-.043.008-.058-.011-.016-.046.006-.058-.01-.011-.014.02-.042.009-.057-.012-.016-.042.002-.058-.01-.12-.083-.013-.038-.041-.124-.045-.138-.033-.024-.108-.076-.119-.083-.012-.038-.04-.125-.033-.1-.067-.033-.1-.133-.06-.184.124.096-.04-.125a2.93 2.93 0 0 1 .026-.175c.016-.023.05-.027.067-.05.04-.057-.023-.058.017-.116.016-.022.05-.027.067-.05.03-.042-.004-.13.026-.174.016-.022.05-.027.067-.05.015-.02.012-.164.026-.174.015-.011.042.02.058.009.013-.01.03-.271.043-.291.012-.016.047.025.059.009.023-.033.02-.258.043-.291.016-.023.05-.027.067-.05.011-.015.006-.038.008-.057.006-.04 0-.082.018-.117.012-.025.05-.027.067-.05.011-.015 0-.04.008-.057.02-.04.06-.068.076-.108.018-.044.042-.281.052-.35.003-.019.02-.042.009-.057-.012-.016-.047.006-.058-.01-.012-.014-.01-.051.008-.057.037-.012.08.03.117.017.037-.012-.006-.084.017-.116.016-.023.05-.027.067-.05.011-.016-.003-.042.008-.058.112-.158.045.1.085-.166.003-.02.023-.045.008-.058-.34-.308-.054-.007-.224-.093-.039-.02-.068-.055-.107-.075-.018-.009-.047.006-.058-.009-.012-.015 0-.04.008-.058.204-.4-.03.089.143-.157.011-.016.005-.04.008-.059l.076-.107c.018-.02.044-.033.067-.05.02.003.042.02.058.009.031-.023-.014-.093.017-.116.261-.194.03.019.183-.032.26-.085-.062-.005.076-.108.045-.033.072.05.116.018.014-.01.012-.154.026-.175.016-.023.063-.022.067-.05.003-.019-.04 0-.058-.008-.057-.024-.107-.063-.166-.084-.037-.013-.079-.006-.116-.018-.472-.153-.046-.023-.332-.168-.03-.015-.154-.008-.174-.026-.041-.037-.058-.097-.1-.134-.014-.013-.06.01-.057-.009.003-.023.183-.115.2-.148.018-.035-.009-.087.017-.116.03-.033.096-.009.125-.041.027-.03 0-.082.018-.117.013-.024.05-.026.067-.05.067-.095-.028-.036-.05-.066-.012-.015.006-.039.009-.058l-.282-.102c-.242-.1-.144-.081-.282-.102a.126.126 0 0 1-.03-.01zm1.983 8.449a1.56 1.56 0 0 0-.002.374zm-.002.374v.042l-.044.29c-.044.295.028-.066-.093.225-.015.036-.002.08-.017.116-.034.081-.111.137-.151.215-.009.018 0 .041-.009.058-.02.04-.059.068-.075.108-.015.036-.012.078-.018.117l-.017.116c-.006.039-.024.078-.017.116.004.028.04.04.049.067.02.06.018.123.032.183.01.043.037.082.041.125-.04.265-.028 0 .032.183.006.02-.015.04-.009.059.042.126.133.038.166.084.012.015.007.046-.008.058-.016.011-.043-.02-.059-.009-.099.074-.094.233-.11.34l-.06.408-.044.29-.009.059c-.003.02-.015.04-.008.058.008.027.033.044.05.067.065.088.1.165.206.209.036.014.077.011.116.017.02.003.042-.003.058.009.023.015.027.05.05.067.016.011.052-.01.058.008.012.038-.011.078-.017.117-.003.02.002.042-.009.058-.027.038-.188.09-.017.116.039.006.08.034.116.018.04-.019.04-.082.076-.108.035-.026.09-.015.125-.04.015-.012-.003-.043.008-.059.016-.023.055-.024.067-.05.027-.051.017-.115.026-.174.005-.032.048-.263.043-.29-.004-.028-.037-.042-.049-.067-.019-.04-.027-.084-.04-.125a71.868 71.868 0 0 0-.042-.125c.006-.04.024-.078.018-.117-.005-.027-.041-.04-.05-.067-.006-.018.006-.038.009-.058.009-.058.058-.315.052-.349-.005-.027-.04-.04-.05-.067-.006-.018.015-.04.01-.058-.01-.026-.045-.04-.05-.067-.007-.038.034-.08.017-.116-.11-.234-.094.05-.157-.142-.006-.02.015-.04.009-.059-.025-.075-.124-.125-.149-.2-.006-.019.012-.04.009-.058a3.54 3.54 0 0 0-.123-.375c-.011-.026-.044-.04-.05-.067-.01-.058.018-.117.027-.175l.07-.465c.009-.063.037-.165.034-.233-.005-.095-.015-.19-.023-.284zm2.877 1.95c.007-.002-.011.006-.128-.011l-.11.34-.078.524c-.006.039-.024.077-.018.116.008.043.034.082.041.125.006.034-.02.136-.026.175-.004.03-.04.216-.035.232.009.027.041.04.05.067.06.184-.123-.096.04.125.165.222-.05-.035.108.076.014.01.056.114.108.075.016-.01.006-.039.009-.058l.035-.233c.005-.038.003-.08.017-.116.02-.058.065-.107.084-.166.018-.056.017-.116.026-.174l.026-.175.017-.116c.006-.039.022-.078.018-.117.05-.1-.078-.122-.09-.191-.007-.039.02-.078.017-.117-.028-.291-.028-.001-.09-.192-.007-.018.015-.04.008-.058-.008-.026-.04-.04-.05-.067-.016-.052.015-.062.021-.063z" fill="#0ba" fill-opacity=".25275"/>
 <path id="path56" d="M15.565 2.463c-.576.458-1.159 1.423-.4 1.832.098.49-.417.962-.215 1.44.104.308-.13.798-.137 1.199-.003.35-.337.408-.11.74-.486.277.295.54.03.68-.358.314.439.816.249.834-.135.483.039.93-.085 1.417.313.253-.005.817-.128 1.114-.02.546-.797.682-.778 1.29-.132.473.064.927-.083 1.401.267.229.596.7 1.15.466.767-.19-.012.986.937.768.519.153.114.969.52 1.3.332.184.154.62-.017.965-.22.41-.501.8-.376 1.392-.096.673.984.784 1.248 1.218.123.235-.47.89-.347 1.101-.017.736.835 1.056.581 1.836-.14.626.931.983.456 1.455-.035.28-.116.75-.166 1.111.4.353.756.831.333 1.437.117.377.151.764-.049 1.17.364.628-.375 1.06-.457 1.652-.297.422-.09.821-.01 1.236h.88a.977.977 0 0 0-.03-.097c-.288-.318-.134-1.248.266-1.223.63-.103.474-1.068.268-1.515-.316-.63.252-1.233.147-1.838-.393-.77.019-1.677-.308-2.433-.033-.576-.12-1.245-.555-1.639-.053-.756-.225-1.532-.74-2.087-.132-.68-.294-1.361-.284-2.037.032-.595.27-1.04.547-1.413.178-.65-.845-.975-.972-1.659-.543-.264-.728-.957-1.252-1.196-.552-.32.2-.828.203-1.357-.213-.324-.089-.78-.034-1.183-.307-.596-.223-1.322-.381-1.949.22-.441-.368-1.017.148-1.28.52-.519.061-1.139.088-1.712.109-.503.024-.98.009-1.47-.006-.433.237-.88.244-1.356.2-.4.259-1.002-.146-1.279.005-.096-.138-.148-.244-.331z" fill="#e3e3e3"/>
 <path id="path57" d="M17.26 12.508a.255.255 0 0 0-.081-.006c-.093.013-.175.068-.266.086-.069.015-.142.001-.212.01-.13.018-.258.05-.388.069-.156.023-.315.033-.471.056-.13.018-.258.05-.388.068-.07.009-.143-.002-.212.01-.02.003-.06.02-.047.035.004.007.192.024.205.03.017.01.02.035.035.048.023.02.055.031.076.053.082.083.128.201.21.284.022.022.055.032.076.054.028.028.04.07.07.094.06.046.13.073.194.113.026.016.05.035.076.053.039.02.08.038.117.06.027.016.049.039.076.053.013.006.033-.006.041.006s-.014.03-.006.041c.016.023.058 0 .082.013.028.014.05.037.076.053.076.044.16.075.235.119.027.016.047.042.076.053l.124.019c.072.098-.13-.023.028.088.012.008.03-.001.042.006.016.012.02.034.034.047.023.021.051.036.077.054.023.032.043.066.07.095.034.036.077.063.11.1.027.029.043.067.07.095.023.022.055.03.077.053.028.028.047.063.07.094.012.016.017.039.035.048.233.035.018-.026.076.053.01.013.144.01.164.025.116.156-.035-.026.077.053.016.011.019.036.035.047.011.008.03-.001.041.006.016.012.019.036.035.048.011.007.03-.002.041.006.007.004.104.136.105.141.005.028-.019.056-.012.083.011.048.052.087.064.135.006.028-.016.055-.013.083.003.03.028.057.03.088.002.045-.035.228-.044.288-.002.013-.014.03-.006.041.012.017.18.012.206.03.032.023.038.073.07.095.011.008.027.004.041.007.061.009.053.001.117.059.03.026.035.077.07.094.025.013.062-.006.082.013.023.02.008.066.03.088.03.031.078.038.116.06.089.051.1.081.188.154.05.04.136.092.193.112.026.01.06-.003.082.013.012.007.008.039-.006.041-.04.007-.082-.012-.123-.018l-.165-.025-.493-.074c-.192-.028-.382-.075-.576-.085-.1-.006-.2.034-.3.039-.07.003-.137-.02-.206-.03-.027-.005-.057 0-.082-.013-.018-.009-.02-.034-.035-.048-.046-.041-.102-.07-.152-.106-.051-.036-.1-.076-.153-.107-.038-.022-.083-.032-.117-.06-.03-.024-.04-.07-.07-.094-.034-.028-.083-.032-.117-.06-.03-.025-.04-.07-.07-.094-.034-.028-.084-.032-.118-.06-.187-.154.007-.04-.104-.141-.023-.021-.053-.034-.077-.054-.038-.031-.072-.069-.111-.1-.048-.04-.104-.068-.152-.107-.039-.032-.07-.072-.111-.1-.036-.026-.078-.04-.118-.06l-.117-.06c-.039-.02-.083-.032-.117-.06l-.07-.094c-.014-.002-.03.002-.04-.006-.035-.024-.072-.111-.106-.142-.023-.02-.053-.032-.076-.053-.057-.051-.024-.062-.064-.136-.019-.034-.052-.06-.07-.094-.015-.027-.01-.064-.029-.089-.065-.088-.117-.037-.158-.065-.016-.012-.02-.036-.035-.047-.012-.008-.034.005-.042-.007-.008-.011.018-.033.006-.04-.022-.016-.057 0-.082-.013-.017-.009-.019-.036-.035-.047-.011-.008-.03.001-.041-.006-.016-.012-.02-.035-.035-.048-.023-.02-.053-.032-.076-.053-.014-.013-.023-.032-.035-.047-.012-.016-.029-.029-.035-.048-.004-.012.01-.027.006-.04-.06-.184-.004.044-.076-.054s.13.022-.029-.088c-.272-.139.016.03-.187-.154-.046-.042-.112-.06-.152-.107-.046-.052-.058-.127-.1-.183-.018-.025-.052-.033-.075-.054-.015-.012-.024-.03-.035-.047l-.035-.047c-.012-.015-.024-.063-.036-.047-.023.034-.019.082-.018.123 0 .044.022.086.023.13.001.041-.029.083-.018.123.017.067.067.121.099.183.063.124.08.194.162.319.126.193.2.268.356.431.048.05.092.105.146.148.07.054.167.063.235.12.106.087.023.096.146.147.233.035.018-.025.076.053.016.023.066-.01.082.013.008.011-.01.027-.006.04.006.02.024.032.035.048-.006.041-.02.082-.018.123.003.16.036.113.086.266.027.083.018.175.046.259.015.047.044.089.064.135.011.029.015.06.029.089.008.017.026.03.034.047.014.028.016.06.03.088.008.018.026.03.035.047.013.029.013.062.028.089.34.46-.027-.068.134.23.019.035.055.058.07.094.017.04.01.088.023.13.006.019.026.03.035.047.013.029.014.062.029.089.019.034.047.063.07.094.012.016.032.028.035.048.005.027-.017.054-.012.082.003.02.026.03.035.047.013.028.02.06.029.089l.086.265c.01.03.016.06.03.088.007.018.026.03.034.047.013.028.014.061.029.089.019.034.051.06.07.094.015.027.014.061.029.089.018.034.053.058.07.094.006.013-.01.028-.007.041.018.053.088.089.106.142.004.013-.01.028-.007.041.007.019.027.03.035.048.04.083.052.18.087.265.02.046.048.088.064.135.013.042.006.09.022.13.015.036.055.058.07.094.017.04.01.088.023.13.012.037.058.057.07.094.005.013-.01.028-.006.042.006.018.027.029.035.047.013.028.01.063.029.088.008.012.031-.003.041.006.044.04.07.095.105.142.012.015.027.03.035.047.02.041.02.105.064.136.11.016-.012-.017.035.047.008.012.033-.006.041.006.009.012-.014.03-.006.041.008.012.03-.001.041.006.016.012.02.036.035.047.012.008.043-.007.041.007-.002.013-.028-.01-.04-.007-.06.02-.137.16-.114.194.125-.034.257 0 .382-.027.049-.01.087-.05.135-.064.085-.023.175-.02.26-.045.154-.044.244-.123.4-.15.07-.013.144.006.213-.01.078-.02.147-.069.223-.094.042-.013.087-.015.13-.022.16-.029.088-.01.218-.052.059-.02.116-.047.177-.058.013-.002.03.015.041.006.011-.008-.002-.03.006-.04.111-.159-.009.043.089-.03.01-.008-.005-.032.006-.04.01-.01.027.008.04.006.031-.006.059-.022.089-.03.043-.01.087-.01.13-.022.06-.015.115-.049.177-.057.404-.059.121.095.565-.126.052-.027.092-.074.142-.105.087-.055.2-.093.277-.17.022-.021.036-.05.054-.075l.053-.076c.018-.026.042-.048.054-.077.01-.025 0-.057.012-.082.009-.017.036-.019.047-.035.008-.01-.002-.03.006-.04.011-.017.036-.02.048-.036.007-.01-.005-.033.006-.04.022-.017.055.016.082.011.03-.005.057-.027.088-.029.042 0 .082.013.124.019l.123.018c.041.006.082.02.124.019.044-.001.085-.02.129-.023.055-.002.11.034.165.025.019-.003.028-.03.047-.035.013-.004.028.01.04.006.038-.012.06-.054.095-.07.029-.013.062-.014.089-.029.329-.178-.094.033.148-.146.098-.072-.023.13.088-.029.008-.01.005-.028.007-.041.004-.028 0-.057.012-.082.009-.017.031-.024.047-.035.031-.024.067-.042.094-.07.022-.022.033-.053.054-.076.013-.015.038-.018.047-.035.013-.025 0-.058.012-.083.01-.017.037-.018.048-.034.016-.023-.004-.06.012-.083.157-.116-.025.036.053-.076.06-.084.028-.01.089-.029.037-.012.056-.063.094-.07.02-.003.26.039.288.043.014.002.03.015.041.006 0 0 .031-.204.03-.205-.004-.03-.022-.058-.028-.089-.019-.109.077.055-.023-.13-.061-.113-.059-.075-.146-.147-.077-.063-.14-.144-.222-.201-.036-.025-.08-.038-.117-.06-.027-.016-.049-.039-.076-.053-.059-.03-.048.035-.124-.019-.011-.007.004-.027.006-.04.002-.014-.005-.034.007-.042.01-.008.027.009.04.007.169-.03.01-.041.172-.017.027.004.235.027.246.037.023.02.01.063.029.088l.124.018c.028.012.048.04.076.054.012.006.03-.002.04.006.095.066-.02.039.077.053l.041.006c.014.002.033-.005.041.007.008.011-.014.03-.006.04.008.013.03 0 .041.007.016.011.02.036.035.047.012.008.028.004.041.006.028.004.06-.003.083.012.01.008-.018.034-.007.042.024.017.141.007.165.024.016.012.02.036.035.047.003.002.161.026.165.025.018-.006.027-.032.047-.035.027-.005.055.017.082.012.02-.003.029-.029.047-.035.014-.004.028.01.041.006.019-.006.032-.023.048-.034.015-.012.036-.02.047-.036.008-.01-.005-.032.006-.04.011-.01.028.004.041.006l.042.006.37.055c.055.008.109.024.164.025.044 0 .086-.02.13-.023.023-.001.16.028.164.024.012-.008-.005-.033.007-.04.01-.01.027.003.04.005l.042.007.535.08c.068.01.14.007.205.03.03.01.048.042.076.054.052.02.113.006.165.024.041.015.077.043.117.06.013.005.028.004.041.006l.206.03c.088.014.254.049.33.05.043 0 .085-.023.128-.023.042-.001.083.02.124.018.031-.001.058-.027.089-.029.026-.002.214.043.246.037.054-.01.048-.04.053-.076.002-.013.009-.027.007-.04-.006-.031-.02-.06-.029-.09-.01-.029-.014-.06-.03-.088-.018-.034-.046-.063-.07-.094-.022-.032-.042-.066-.07-.095-.033-.036-.08-.06-.11-.1-.235-.5.075.101-.14-.19-.018-.024-.01-.063-.029-.088a2.393 2.393 0 0 0-.123-.018l-.37-.056c-.042-.006-.084-.005-.124-.018-.029-.01-.048-.04-.076-.053-.012-.007-.03.001-.041-.006-.016-.012-.019-.037-.035-.048-.011-.007-.03.002-.041-.006-.016-.011-.018-.038-.036-.047-.024-.013-.056 0-.082-.012-.029-.012-.049-.038-.076-.054-.037-.022-.08-.037-.117-.059-.027-.016-.05-.038-.076-.054-.116-.067-.145-.065-.276-.125-.04-.018-.075-.046-.117-.06-.04-.013-.085-.002-.124-.018-.018-.007-.018-.036-.034-.047-.012-.008-.03.002-.042-.006-.016-.012-.018-.036-.035-.048-.01-.007-.029 0-.04-.006-.028-.014-.048-.04-.077-.053-.031-.012-.204-.03-.247-.037-.027-.004-.06.003-.082-.012-.011-.008.017-.033.006-.041-.023-.016-.058 0-.082-.012-.018-.01-.023-.032-.035-.047-.025-.018-.047-.042-.076-.054-.026-.011-.055-.008-.082-.012-.026-.018-.048-.042-.076-.054-.026-.011-.055-.008-.083-.012l-.246-.037c-.055-.008-.112-.008-.165-.024-.054-.018-.103-.051-.158-.066-.067-.017-.138-.02-.206-.03l-.165-.025c-.32-.048.076.025-.24-.078-.066-.022-.138-.02-.206-.03l-.083-.013c-.013-.002-.036.006-.04-.006-.009-.027.008-.055.012-.083l.012-.081c.01-.063.014-.26.084-.282.019-.007.016.044.035.047.02.002.054-.016.048-.035-.01-.03-.047-.043-.076-.054-.04-.013-.083-.012-.124-.018-.15-.023-.3-.054-.453-.068-.39-.035-.552-.013-.964-.017-.223-.003-.447-.01-.67-.016-.126-.004-.251-.02-.377-.015-.41.016-.175.058-.423.021-.014-.002-.03 0-.042-.006-.055-.028-.101-.071-.152-.107-.276-.193.059.053-.11-.1-.024-.021-.054-.033-.077-.053-.015-.013-.023-.032-.035-.048-.024-.031-.054-.059-.07-.094-.012-.025.02-.056.012-.083-.006-.018-.029-.028-.035-.047-.004-.012.009-.027.007-.04-.006-.031-.024-.059-.03-.09-.002-.013.01-.027.007-.04-.013-.037-.058-.057-.07-.095-.009-.026.02-.056.012-.082-.006-.019-.029-.029-.035-.047-.004-.013.01-.028.006-.041-.006-.019-.027-.03-.035-.048-.013-.028-.01-.063-.029-.088-.018-.025-.053-.032-.076-.053-.033-.03-.04-.042-.035-.046a2.282 2.282 0 0 1-.158-.067c-.14-.063-.142-.09-.317-.132-.095-.021-.192-.028-.288-.043l-.494-.073-.247-.037c-.068-.01-.141-.004-.205-.03-.046-.02-.068-.076-.111-.101-.036-.021-.082-.013-.124-.019l-.123-.018a.805.805 0 0 1-.082-.018zm2.15.539c.066.024.01-.01 0 0zm2.32 1.675c.009-.003.019.003.029.005l.029.004.145.022c.02.003.04.001.058.008.02.01.034.03.054.038.036.015.08.003.117.017.145.06-.036.025.112.047.008-.006.03-.006.029.004-.002.01-.02-.003-.03-.004-.008.006.004.023-.004.029-.008.006-.02-.01-.029-.004-.008.006.004.023-.004.029-.016.01-.04-.017-.058-.009-.025.012-.04.043-.067.05-.029.006-.058-.014-.087-.013-.032 0-.061.01-.092.016l-.092.016c-.04.004-.08.004-.12.011-.194.034-.097.033-.246.053-.04.005-.081.003-.12.012-.15.032-.094.056-.246.052-.04-.001-.078-.011-.117-.017l-.262-.04-.145-.02c-.01-.002-.023.003-.03-.005a.026.026 0 0 1 .005-.03c.007-.004.1.022.117.018a.312.312 0 0 0 .045-.015c-.077-.01.133-.06.017-.005a.067.067 0 0 1-.016.005c.026.003.083.002.195-.008.035-.004.061-.038.096-.046.117-.025.16.01.27-.019.012-.002.022-.01.033-.015v-.01l.063-.02.188-.06.13-.07c.011-.008.02-.021.033-.025zm-.163.095c-.06.03-.127.036-.188.061l-.063.03c-.005.028-.004.027.059 0 .065-.029.128-.06.192-.09zm1.351.703c.02.004.04.01.058.012l.117.017.465.07.378.056c-.013.004-.02.02-.033.025-.01.003-.02-.003-.03-.004-.038-.006-.076-.018-.116-.018-.03.002-.06.016-.091.016-.03 0-.058-.016-.087-.013-.053.006-.102.032-.155.037-.058.006-.115-.028-.174-.026-.031.001-.06.015-.092.016-.029 0-.058-.009-.087-.013l-.116-.017c-.03-.005-.058-.014-.087-.013-.032 0-.061.015-.092.016-.03 0-.058-.01-.087-.013l-.204-.03c.008-.007.003-.02.004-.03l.063-.02c.067-.012-.014.036.062-.02.02-.004.04.005.059.008l.062-.02c.042-.014.082-.037.125-.041a.191.191 0 0 1 .058.005zm-1.621.026c.005 0 .009 0 .011.006.055.093.07.204.104.306-.007.001-.09.034-.122.018-.02-.01-.034-.03-.054-.038-.018-.007-.039-.006-.058-.008l-.058-.01-.059-.008c-.01-.001-.02-.01-.029-.004-.008.006.004.023-.004.029-.008.006-.02-.006-.03-.004-.02.004-.04.016-.062.02-.01.002-.02-.007-.029-.004-.013.004-.02.022-.033.024-.02.004-.039-.005-.058-.008-.03-.005-.058-.013-.088-.013-.03.001-.06.015-.091.016-.03 0-.058-.013-.087-.013-.124.002-.055.019-.154.036-.01.002-.02-.003-.03-.004l-.203-.03c-.01-.002-.023.004-.03-.005a.489.489 0 0 1 .014-.087c.008-.006.02.007.029.004.013-.004.02-.02.033-.024.062-.02.188-.022.242-.024.06-.001.12.008.178-.003.035-.005.062-.036.096-.045.06-.017.123-.022.184-.032.03-.006.06-.014.091-.016.05-.005.101.003.15-.008.034-.007.063-.031.096-.045.015-.007.036-.025.05-.026zm4.831.784c-.061.01-.121.026-.183.032-.02.002-.039-.006-.058-.008l-.233-.035c.031-.002.06-.015.092-.016.029 0 .058.008.087.013.1.015.194.04.295.014zm-4.262.464c-.005.04-.003.08-.017.117-.005.013-.022.016-.033.024-.078.058-.1.033-.188.062-.034.01-.062.034-.096.045-.05.016-.102.025-.154.036-.03.006-.063.004-.092.016-.265.116-.053.085-.316.132-.04.007-.082.002-.121.011-.014.004-.02.023-.034.025-.019.004-.039-.005-.058-.008-.01-.002-.023.004-.029-.005-.006-.008-.001-.02.004-.029.008-.01.026-.014.034-.025.006-.008-.002-.02.004-.029.008-.01.026-.013.034-.025.006-.008-.001-.02.004-.029a.91.91 0 0 1 .1-.074c.01-.003.022.01.03.004s-.004-.023.004-.029c.018-.013.041-.013.062-.02.021-.008.042-.014.063-.02.02-.008.041-.014.062-.021.021-.007.04-.017.063-.02.05-.006.1-.001.15-.008.021-.003.04-.018.062-.02.02-.002.039.01.058.009.044-.004.082-.031.125-.041.03-.008.063-.004.092-.016.202-.084-.11-.033.187-.062zm-4.691 3.066c.05.067.16.052.24.077z" fill="#fff" fill-opacity=".78022"/>
 <path id="path58" d="M17.473 9.453c.033.05.102-.003.144.022.022.012.035.036.056.05.03.021.064.038.096.056.02.01.041.017.06.03.046.033.074.077.107.121.018.024.04.045.053.071.002.007-.007.015-.003.021.004.007.016-.004.02.003s-.007.015-.003.02c.004.007.017-.003.02.004.005.005-.012.053-.008.061.003.01.015.015.017.024.002.014-.004.027-.006.041-.001.007-.005.014-.003.02.003.01.012.016.017.024.006.009.01.018.018.024.011.01.026.016.038.027.014.012.019.036.035.047.006.004.017-.004.02.003.005.007-.008.017-.003.02.012.008.028.005.042.007l.144.021.04.006c.008.001.016 0 .021.003.008.006.01.019.018.024.005.004.052.008.061.01l.144.02c.012.002.09.019.103.016.016-.004.03-.013.045-.014.027-.004.054.015.082.012.015 0 .029-.012.044-.014a1.1 1.1 0 0 1 .123.018c.01.004.01.02.018.024.012.006.027.004.041.006.007 0 .015-.001.02.003.009.005.01.018.018.023.015.01.046 0 .062.01.008.005.012.015.017.023.014.002.03 0 .042.006.008.005.009.018.017.024.015.01.046 0 .062.01.011.007.062.086.07.094.01.01.026.016.038.026.017.016.035.06.052.071.006.004.017-.003.02.003.005.007-.006.016-.002.021.01.012.026.016.038.027.007.007.01.018.017.023.006.004.014.002.021.003.013.01.027.016.038.027.007.007.01.018.018.024.007.005.058.004.061.009.004.005-.012.053-.009.062.01.03.034.026.059.03.007 0 .015-.001.02.003.009.005.01.018.018.023.006.004.014.002.02.003l.124.019c.007 0 .015.008.02.003.006-.005-.002-.017.004-.02.005-.006.014.007.02.002.005-.005-.003-.016.003-.02.005-.005.026-.002.02.003-.024.018-.06.014-.088.029-.05.027-.09.077-.141.105-.014.007-.03.007-.045.014l-.023.018c-.008.006-.017.01-.024.017-.01.012-.014.029-.027.038-.005.005-.014-.005-.02-.003-.01.003-.015.015-.024.018-.008.003-.057-.013-.062-.01-.005.006.003.017-.003.021-.005.005-.013-.002-.02-.003-.014-.002-.028-.01-.041-.006-.007.002.002.016-.004.02-.006.006-.014-.008-.02-.003s.003.019-.003.02c-.117-.016-.005-.013-.044.015-.006.006-.015-.008-.021-.003-.005.005.003.017-.003.02-.013.01-.032.007-.044.015-.007.005.002.017-.003.02-.007.006-.015-.007-.021-.002-.005.004-.004.054-.01.061-.005.009-.017.01-.023.018-.004.005.001.015-.003.02-.03.042-.014.004-.044.015-.01.003-.015.014-.024.017-.006.002-.014-.002-.02-.003-.008 0-.022.005-.021-.003.001-.01.016-.011.024-.017.048-.036-.006-.004.064-.012.016 0 .03-.011.045-.014.006 0 .014.005.02.003.01-.003.015-.015.024-.017.006-.002.014.002.02.003.014.002.028.008.042.006.01-.002.014-.015.023-.018.007-.002.014.002.02.003.014.002.028.009.042.006.01-.001.015-.013.024-.017a.165.165 0 0 1 .044-.015c.02-.003.042.013.062.01.01-.002.014-.015.023-.018.007-.002.014.005.02.003.01-.003.016-.013.024-.017.004-.003.087-.028.089-.03.006-.004-.003-.016.003-.02.012-.008.03-.007.044-.014.009-.005.014-.014.024-.018.013-.004.028.01.041.007.01-.004.014-.015.024-.018.006-.002.014.008.02.003.005-.005-.003-.016.003-.02.05-.037-.011.064.045-.015.007-.01-.002-.03.006-.041.006-.01.04-.025.047-.035.004-.005-.001-.015.003-.02.006-.009.018-.01.024-.018.005-.007.004-.058.009-.062.005-.005.015.008.02.003.012-.008-.002-.053.01-.061.005-.006.013.002.02.003.001-.008-.002-.017.003-.02.007-.006.015.007.02.002.007-.005-.001-.016.004-.02.004-.003.053.01.062.009.015-.004.029-.012.044-.015.006 0 .014.004.02.004.016-.004.03-.014.045-.015.034-.002.068.01.103.015.021.004.083.008.102.016.021.007.038.024.06.03.04.01.082.009.122.018.324.076-.083.009.244.057.004 0 .135.016.144.022.023.015.03.055.053.07.005.005.015 0 .02.004.015.013.021.033.035.047.011.01.027.016.038.027.014.014.022.033.035.047.037.04.054.05.094.077l.038.027c.013.01.024.021.038.027.027.01.072.01.103.015l.206.03c.034.006.07.005.102.016.015.004.025.019.039.027l.058.03c.027.015.048.04.076.053.013.005.028.001.041.006.021.008.038.022.06.03.012.005.027.001.04.006.015.005.025.02.038.027.013.006.028.004.042.006l.082.012.185.028.185.027c.01.002.076.015.082.012.01-.003.015-.014.024-.017.017-.005.044.014.062.01.01-.004.013-.017.023-.018.014-.003.028.008.041.006.01-.002.015-.015.024-.018.007-.002.014.005.02.003.02-.006.028-.033.048-.035.02-.003.04.01.062.01.015-.001.028-.013.044-.015.013 0 .027.009.041.006.01-.001.014-.014.024-.017.006-.002.014.005.02.003.01-.003.015-.015.024-.018.014-.004.068.017.082.013.05-.016.008-.013.027-.038.006-.009.016-.012.024-.018l.023-.017c.01-.013.014-.03.027-.039.005-.005.014.006.02.004.018-.005.03-.03.048-.035.013-.005.028.01.04.006.01-.003.015-.015.025-.018.006-.002.013.002.02.003.015-.005.03-.007.044-.014.01-.005.015-.014.024-.018.014-.007.032-.005.044-.014.032-.023-.04-.026.027-.038.014-.003.027.008.041.006.02-.003.029-.029.047-.035.006-.002.11.016.124.018.007.001.015.009.02.003.007-.005-.002-.016.004-.02.006-.005.013.005.02.003.019-.006.03-.027.047-.035.014-.007.03-.008.045-.014.008-.005.014-.015.023-.018.013-.004.03.015.041.006.006-.005-.002-.016.004-.02.01-.01.03.015.04.006.006-.006-.002-.017.004-.02.005-.006.015.007.02.002.005-.004.004-.054.01-.062.005-.008.018-.009.023-.017a.736.736 0 0 0 .012-.082c.003-.02.018-.09.016-.103-.002-.01-.015-.014-.018-.024-.002-.008.015-.057.01-.061-.033-.023-.056.005-.086.008-.013 0-.028-.01-.041-.006-.05.016-.05.06-.115.067-.014 0-.028-.009-.041-.006-.01.001-.015.013-.024.017-.014.007-.03.01-.044.014l-.044.015c-.022.004-.045.002-.065.011-.018.008-.03.026-.047.035l-.045.015c-.007-.001-.014-.005-.02-.003-.01.003-.015.014-.024.017-.006.002-.015-.008-.02-.003-.006.005.003.018-.004.02-.013.005-.027-.004-.04-.006-.014-.002-.029 0-.042-.006-.014-.005-.024-.02-.038-.026-.006-.003-.015 0-.02-.003-.009-.006-.01-.019-.018-.024-.006-.004-.014-.002-.02-.003l-.062-.01c-.014-.001-.028 0-.041-.005-.021-.008-.04-.02-.06-.03-.027-.004-.055-.006-.081-.013-.021-.006-.038-.022-.059-.03-.02-.005-.041-.005-.062-.009l-.185-.027c-.011-.002-.09-.018-.103-.015-.015.003-.029.011-.044.014-.014.002-.03-.015-.041-.006-.005.005.004.018-.003.02-.013.005-.028-.01-.041-.006-.019.007-.03.026-.048.035-.04.022-.064.012-.109.026-.01.003-.015.011-.023.018l-.044.014-.065.011c-.015.004-.029.014-.044.015-.021.001-.041-.012-.062-.01-.02.002-.029.03-.048.036-.013.004-.027-.009-.04-.006-.016.003-.03.013-.045.014-.02.003-.04-.012-.062-.01-.022.003-.042.012-.064.012-.021 0-.041-.01-.062-.01-.016.002-.029.015-.044.015-.023.002-.115-.017-.144-.021-.024-.004-.085-.008-.103-.015-.015-.006-.024-.02-.038-.027-.014-.007-.078-.006-.082-.012-.005-.007.005-.015.003-.021-.003-.01-.015-.014-.018-.024-.002-.006.002-.013.003-.02-.005-.014-.008-.03-.014-.044-.004-.009-.014-.014-.018-.024-.015-.033-.006-.045-.032-.068-.011-.01-.028-.015-.038-.027-.003-.006.004-.014.003-.02-.002-.016-.011-.03-.014-.044-.001-.007.002-.014.003-.021l.006-.041c.002-.013.008-.027.006-.041-.001-.016-.013-.03-.014-.044-.002-.014.004-.028.006-.042l.006-.04.003-.021c.001-.008-.003-.017.003-.02.002-.002.033.006.041.005.029-.001.057-.008.086-.008.02 0 .04.006.061.01.021.002.043 0 .062.008.015.006.024.021.038.027a.145.145 0 0 0 .041.006l-.144-.021c-.027-.004-.055-.006-.082-.013-.034-.008-.065-.027-.1-.036-.08-.02-.166-.017-.246-.036-.042-.01-.08-.03-.12-.04-.041-.008-.083-.012-.124-.018l-.144-.021-.124-.019-.04-.006c.237.036-.122-.012.126-.002.041.002.082.02.123.018.038-.001.072-.022.11-.025.02-.003.04.012.06.009.025-.004.044-.028.069-.032.02-.003.04.012.062.01.019-.002.027-.032.047-.036.014-.002.028.01.04.006.008-.002-.002-.017.004-.02.024-.06.058 0 .085-.009.01-.003.015-.014.024-.017.007-.002.014.005.02.003.01-.003.015-.015.024-.018.007-.002.014.002.02.004.014.002.028.008.042.006.01-.002.014-.015.024-.018.006-.002.013.002.02.003.02.003.041.01.062.01a.121.121 0 0 0 .044-.015c.106-.05-.087.015.065-.011.043-.007.012-.018.027-.038.005-.009.018-.01.023-.018.005-.005-.003-.016.003-.02.006-.006.015.008.021.003.012-.01-.003-.053.01-.062.004-.005.013.005.02.003.01-.003.015-.011.023-.017.009-.007.032-.012.024-.018-.017-.012-.043 0-.062-.01-.009-.004-.011-.014-.017-.023-.02-.01-.038-.023-.059-.03-.02-.006-.042-.003-.062-.009-.041-.014-.075-.046-.117-.06-.02-.005-.044.002-.062-.009-.017-.01-.018-.036-.035-.047-.01-.008-.028-.001-.04-.006-.015-.005-.024-.022-.039-.027-.02-.007-.043 0-.062-.009-.006-.002.008-.015.004-.02-.01-.012-.027-.016-.039-.027-.007-.007-.01-.017-.017-.024-.012-.01-.027-.016-.038-.027-.007-.007-.01-.017-.018-.023-.011-.01-.026-.016-.038-.027-.007-.007-.01-.018-.017-.024-.012-.007-.067-.003-.082-.012-.014-.008-.025-.02-.039-.027-.013-.006-.05-.001-.061-.009-.008-.005-.012-.015-.018-.023-.006-.009-.014-.015-.017-.024-.003-.006.002-.013.003-.02.005-.036-.002-.016.03-.06.009-.011.012-.03.026-.037.02-.01.044-.004.065-.012.034-.01.022-.034.05-.055.007-.005.014.005.021.003.019-.006.029-.03.047-.035.007-.002.015.008.02.003.012-.009-.006-.037.007-.041.013-.004.028.01.041.006.007-.002.009-.017.003-.02-.011-.008-.028-.002-.04-.007-.015-.005-.024-.022-.039-.026-.25-.075.008.023-.164-.025-.308-.11.077.02-.183-.048-.034-.008-.065-.026-.1-.036-.024-.007-.056-.009-.082-.012l-.02-.003c-.007-.002-.014-.006-.02-.004-.054.04.003.007-.045.015-.015.004-.029.012-.044.014-.007 0-.014-.005-.02-.003-.01.003-.015.016-.024.018-.013.002-.1-.015-.124-.019l-.061-.009c-.008 0-.027.002-.021-.003.012-.009.03-.009.044-.014.023-.01.044-.025.068-.032.02-.008.043-.007.065-.012.036-.008.072-.02.109-.025.028-.005.057 0 .085-.009.024-.007.045-.022.068-.032.014-.005.032-.005.044-.014.005-.005-.001-.015.003-.02.006-.009.016-.012.024-.018.008-.006.03-.01.024-.018-.009-.011-.028-.004-.042-.006l-.164-.024-.37-.056c-.035-.005-.069-.013-.103-.015-.042-.003-.085.005-.127.002-.034-.002-.068-.01-.102-.015-.014-.002-.028-.009-.042-.006-.01.001-.014.014-.023.017-.007.002-.014-.005-.02-.003-.093.03.021.002-.028.038-.005.005-.013-.002-.02-.003-.007 0-.014-.002-.02-.003l-.062-.01-.165-.024c-.034-.005-.07-.003-.103-.015-.014-.005-.024-.02-.038-.027-.013-.005-.027-.004-.041-.006l-.144-.021-.062-.01c-.01.01.005.033-.006.042-.012.008-.03.007-.044.014-.009.005-.015.013-.024.018a.165.165 0 0 1-.044.014c-.006 0-.014-.004-.02-.003-.022.003-.043.01-.065.011-.042.002-.082-.02-.124-.018-.022 0-.043.01-.064.011-.014.001-.028-.004-.042-.006l-.144-.021c-.02-.004-.04-.013-.061-.01-.01.002-.015.015-.024.018-.007.002-.014-.005-.02-.003a.047.047 0 0 0-.024.017c-.001.002-.013.08-.012.083.003.009.013.015.017.023.007.015.003.034.014.044.01.01.03 0 .042.007.008.004.01.018.017.023.006.004.015 0 .02.003a.595.595 0 0 1 .053.071c.003.007-.007.015-.003.02.005.007.017-.003.02.004.009.012-.01.028-.005.04.003.01.025.018.017.025-.017.013-.044.004-.065.01-.01.004-.014.017-.023.018-.021.003-.042-.013-.062-.009-.02.005-.028.03-.047.035-.02.005-.041-.01-.062-.009-.016 0-.029.012-.044.014-.028.005-.057.005-.086.009-.021.003-.042.01-.064.011-.014.001-.028-.004-.042-.006-.021.004-.042.01-.064.011l-.062-.009c-.006.005.004.019-.003.02-.013.005-.028-.003-.041-.005-.007-.002-.015-.009-.02-.004-.006.006.003.019-.004.021-.013.004-.028-.01-.041-.006-.007.002.002.016-.003.02-.006.006-.015-.008-.02-.003-.007.005 0 .016-.004.021a.496.496 0 0 1-.07.052.165.165 0 0 1-.045.015c-.027.005-.02-.02-.044.014-.005.006-.002.014-.003.02-.01.013-.017.027-.027.039-.007.007-.018.01-.024.017-.033.047.063-.01-.03.06-.006.004-.014-.01-.02-.004-.011.009.007.037-.006.041-.086.028-.003-.097-.074.073z" fill="#fff" fill-opacity=".21429"/>
 <path id="path59" d="M18.432 3.169c-.011 0-.02.007-.095.016-.04.005-.081.003-.12.012-.192.04-.06.056-.276.048-.25-.01.031-.04-.266-.01-.015 0-.13.02-.154.036-.008.007.004.024-.004.03.01.007.012.027.024.033.018.009.04.006.059.009l.058.009.523.078.233.034c.107.016.212.049.32.048.084-.001.163-.042.246-.052.059-.008.12.01.178-.004.048-.01.086-.049.13-.07.035-.054.082 0 .12-.011.01-.003-.004-.027.005-.03.019-.006.039.012.058.01.014-.003.02-.021.034-.026.01-.003.019.003.029.005.01-.009.02-.02.033-.025.016-.005.092.02.116.017.031-.003.06-.015.092-.016.03 0 .058.009.087.013l.175.026.058.01c.02.002.039.01.058.008.022-.003.041-.017.063-.02.019-.004.042.02.058.008.008-.006.01-.021.004-.03-.006-.008-.019-.002-.029-.003l-.233-.035-.494-.074c-.025-.004-.158-.03-.175-.026-.013.003-.02.02-.033.025-.01.003-.02-.008-.029-.005-.026.008-.04.045-.067.05-.02.003-.039-.01-.058-.009-.022.003-.041.017-.063.02-.025.005-.095-.024-.116-.017-.013.004-.02.02-.033.025a1.158 1.158 0 0 1-.117-.018l-.116-.017c-.02-.002-.04-.003-.058-.008-.039-.014-.075-.031-.112-.047-.087-.013-.101-.018-.113-.017zm-.915.131c-.008-.005-.028-.014-.03-.004 0 .01.022.01.03.004zm10.202-.023c-.014.002-.02.02-.033.024-.01.003-.02-.007-.03-.004-.012.004-.02.02-.033.025l.233.034c.058.009.118.01.174.027.048.013.093.039.141.05.077.018.155.023.233.035l.225.033a6.426 6.426 0 0 0-.353-.217.78.78 0 0 1-.174.02c-.387-.058.035-.01-.238-.006-.029 0-.058-.008-.087-.013-.02-.003-.039-.012-.058-.008zm-.828.664c-.061.046-.113.108-.184.136-.036.014-.077-.015-.116-.017a1.524 1.524 0 0 0-.179.003c-.08.005-.16.02-.241.023-.383.02-.04-.02-.387.002-.08.005-.16.02-.241.024-.023 0-.35-.005-.387.001-.065.012-.124.046-.188.061-.039.01-.08.007-.12.012-.03.005-.061.015-.092.016-.02 0-.038-.01-.058-.009-.022.003-.04.019-.062.021-.02.002-.04-.012-.059-.009-.014.003-.022.017-.033.025-.021.007-.041.017-.063.02-.01.002-.02-.007-.029-.004-.013.004-.02.019-.033.025-.084.04-.053.003-.154.037-.162.076-.029.023-.188.06-.021.005-.04.02-.063.021-.029.002-.057-.009-.086-.013-.02-.003-.04-.012-.059-.008-.014.002-.02.02-.033.024-.02.006-.081-.036-.063.02a.07.07 0 0 0 .025.034c.016.011.15.016.175.026.02.009.032.03.053.038.038.011.078.011.117.017l.349.052.29.043c.107.016.213.044.32.048.082.003.161-.018.242-.023.06-.004.12.006.179-.003.043-.007.082-.03.125-.04.01-.002.02.002.029.003.03-.006.063-.004.091-.016.13-.053.006-.048.13-.07.04-.007.08-.009.12-.011.05-.003.101.003.15-.008.035-.006.063-.034.096-.045.06-.02.124-.013.183-.032.013-.004.02-.022.034-.025.032-.006.084.023.116.018.022-.005.041-.017.063-.021.016-.004.106.016.116.018l.204.03c.019.003.039.011.058.008.022-.004.041-.016.063-.02.01-.001.019.003.028.004.012-.009.02-.02.034-.025.01-.003.021.011.029.005.03-.022-.019-.051-.05-.067-.008-.004-.023.004-.029-.004-.006-.009.003-.02.005-.03-.01 0-.024.005-.03-.004-.005-.008.013-.023.005-.029-.016-.011-.042.003-.058-.008-.008-.006.01-.021.004-.03-.013-.017-.04-.019-.054-.037-.006-.009.008-.02.004-.03-.042-.13-.003.032-.053-.037-.006-.009.007-.02.004-.03-.009-.026-.045-.039-.05-.066-.005-.034.001-.07.002-.104zm-6.064.091c-.053.001-.102.03-.154.037-.02.003-.039-.006-.058-.009-.01-.001-.028-.014-.03-.004-.006.048.038.026.054.038.012.007.013.026.025.033.018.008.04.001.058.008.04.017.068.06.108.076.018.007.039.006.058.009l.175.026.087.013c.03.004.058.013.087.013.04 0 .08-.014.12-.012.05.001.097.02.146.022.081.003.161-.02.242-.024.01 0 .084.016.087.013.008-.006-.004-.023.004-.029l.088.013c.03-.001.06-.015.091-.016.03 0 .058.013.087.013.04 0 .08-.012.12-.012.036 0 .18.033.204.03.035-.004.063-.033.096-.044.03-.01.061-.01.092-.016.03-.006.061-.015.092-.016.02 0 .039.011.058.008.014-.002.02-.02.033-.025.01-.003.02.006.03.004.176-.057-.045.004.12-.011.022-.003.041-.017.063-.02.01-.002.019.002.028.004-.011-.008-.016-.023-.025-.034l-.107-.075c-.129.006-.195.011-.328.01-.08 0-.158-.01-.237-.005-.072.003-.141.025-.213.028-.177.006-.355-.02-.532-.02-.11 0-.219.01-.328.01-.08 0-.159.001-.237-.005-.069-.006-.135-.033-.204-.03zm8.048.187c-.058.002.256.024-.023.03-.029 0-.058-.015-.087-.013-.044.002-.082.033-.125.04-.01.002-.02-.007-.029-.004-.013.004-.021.019-.034.025-.02.009-.05.003-.062.02-.008.011.014.024.025.033a.17.17 0 0 0 .054.038c.028.01.059.004.087.013.03.01.053.034.083.042.047.014.098.008.145.022.068.022.127.067.195.089.18.055.276.004.474.01.079.004.155.03.233.036.033.002.053-.001.08 0a6.506 6.506 0 0 0-.278-.297l-.025-.004-.203-.03-.175-.027c-.039-.005-.077-.016-.116-.017a4.79 4.79 0 0 0-.219-.006zm-3.413 1.426a8.642 8.642 0 0 0-.386.003c-.053.005-.101.032-.154.036-.04.003-.078-.016-.117-.017-.04 0-.08.012-.12.011-.04-.001-.077-.016-.117-.017-.04 0-.08.009-.12.012-.05.003-.1.008-.15.007-.059-.001-.143-.039-.15.007-.003.02.039.006.058.01l.116.016.291.044c.185.027.367.072.553.082.07.005.14-.027.212-.028.057 0 .255.046.32.048.04.002.08-.013.121-.012.049.002.097.015.145.022l.378.057.117.017c.02.003.039.01.058.008.022-.002.042-.013.063-.02.029.005.058.013.087.013.031-.001.06-.015.091-.016.04 0 .156.023.204.03.01.002.02.006.029.005.022-.005.041-.017.063-.02.019-.004.039.005.058.008l.029.004c.01.002.02.011.029.005.008-.007-.004-.023.005-.03.008-.006.02.008.028.005.013-.004.02-.02.034-.024-.055-.008-.03-.006-.07-.13-.151.03-.292-.026-.44-.036-.06-.003-.12.007-.18.003-.078-.006-.155-.023-.232-.035-.068-.01-.135-.03-.204-.03-.08-.002-.16.024-.241.023-.059 0-.116-.017-.174-.026-.078-.011-.155-.029-.234-.035zm5.465.548c-.036.005-.071.012-.107.014-.05.003-.1.009-.15.007-.029 0-.058-.016-.087-.013-.043.006-.083.03-.125.041a.47.47 0 0 1-.091.016c-.04.002-.079-.023-.117-.017-.014.003-.02.02-.033.025l.377.056.117.017c.039.006.077.017.116.018.058.009.114 0 .17-.009-.022-.052-.047-.104-.07-.155zm-3.375.39c.05.004.124.015-.124.04-.07.006-.14-.009-.208-.001-.083.009-.163.044-.246.052-.079.007-.158-.012-.237-.006-.092.008-.182.041-.275.049-.131.057-.254-.034-.382-.028-.02 0 .01.055-.009.058-.029.005-.058-.016-.087-.013-.014.001-.02.02-.033.025a.202.202 0 0 1-.063.02c-.02.002-.039-.005-.058-.008-.021.007-.041.016-.063.02-.036.007-.082-.028-.116-.017-.01.003.005.026-.004.029-.019.006-.04-.015-.058-.009-.01.003-.01.021-.005.03.006.008.02.002.03.004l.145.022c.029.004.058.013.087.012.031 0 .06-.012.091-.016.08-.01.162-.015.242-.023.04-.004.08-.012.12-.012.03 0 .059.009.088.013l.116.018.145.021c.03.005.058.014.088.013.03 0 .06-.016.092-.016.049.002.096.02.145.022.05.002.1-.009.15-.008.03.002.058.014.087.014.04 0 .08-.011.12-.012.02 0 .04.006.059.009l.087.013c.01.001.02.007.03.004.012-.004.02-.02.033-.025.015-.005.15.027.174.026.03-.001.061-.014.092-.016.02 0 .038.006.058.009.029.004.058.015.087.013.022-.001.04-.02.063-.02.029-.002.058.008.087.012.01.002.021.011.029.005.008-.006.003-.02.004-.03.002-.01.008-.02.005-.029a.07.07 0 0 0-.025-.033c-.037-.026-.031.031-.054-.038-.003-.01.013-.023.004-.029-.016-.011-.04-.001-.058-.009-.02-.009-.034-.027-.054-.037-.009-.005-.019-.003-.029-.004l-.103-.105c-.344-.009-.318-.013-.267-.01zm3.641.295c-.033.006-.063.013-.12.021-.078.012-.158-.013-.236-.006-.084.008-.163.04-.246.053-.054.008-.285.01-.329.01-.05.002-.1.009-.15.008-.059-.002-.115-.03-.174-.026-.022.001-.04.019-.062.02-.05.002-.098-.014-.146-.022l-.175-.026-.029-.004c-.01-.001-.02-.007-.029-.004-.013.004-.02.02-.033.025l.465.069c.058.008.116.02.174.026.137.013.275.019.412.032.097.008.195.029.291.043.03.004.058.016.088.013.021-.003.04-.016.062-.02.028-.005.154.032.174.026.013-.004.02-.02.034-.025.019-.006.04.015.058.009.012-.004.02-.02.032-.025a6.41 6.41 0 0 0-.06-.197zm-7.935.28c.023.006.06.018-.076.02-.03 0-.058-.012-.087-.012-.04 0-.08.013-.12.012-.04-.002-.078-.017-.117-.018-.04 0-.08.008-.121.012-.064.006-.211.022-.27.02-.06-.004-.116-.03-.175-.027-.044.003-.082.033-.125.041-.05.009-.1 0-.15.007-.022.003-.04.018-.062.02-.02.002-.04-.014-.058-.008-.01.003.001.021-.004.03-.008.01-.048.022-.034.024.022.003.056-.042.063-.02.006.02-.085.017-.063.02.04.006.08-.011.12-.012.02 0 .04.006.059.009l.087.013c.02.003.039.009.058.009.031-.002.061-.016.092-.016.049 0 .096.023.145.021.031-.001.06-.017.092-.016.049.001.096.02.145.022.074.017.142-.03.213-.028.049.001.096.02.145.022.04.001.08-.012.12-.012.03 0 .058.013.088.013.03-.002.06-.015.092-.016.033-.001.081.012.116.017l.058.01c.02.002.039.01.058.007.014-.002.02-.02.033-.024.01-.003.12.018.146.022l.116.017.03.004c.009.002.027.015.029.005.007-.049-.038-.027-.054-.038-.012-.008-.013-.026-.025-.034-.017-.011-.1-.005-.117-.017-.01-.007-.012-.025-.024-.033-.008-.006-.02-.003-.03-.005-.019-.002-.041.003-.057-.008-.03-.021.007-.032.026-.036v-.001c.02-.005.02-.003-.08-.001-.04 0-.08.007-.12.011-.194-.029-.185-.03-.162-.025zm-.46.603c-.183.096-.352.225-.549.29-.093.03-.196-.013-.295-.015-.138-.003-.277.003-.416-.003-.24.03-.467-.063-.702-.075-.09-.004-.18.017-.27.02-.168.004-.336-.024-.504-.016-.062.003-.122.025-.183.032-.05.006-.1.007-.15.007-.01 0-.021-.01-.029-.004a.024.024 0 0 0-.004.03c.04.054.058.028.112.046.061.02.056.02.076.028.037.005.091.015.24.05.554.123-.187.001.431.093l.379.057c.087.013.173.033.261.039.06.003.12-.004.18-.003.078 0 .157.013.236.005.083-.008.163-.04.246-.052 1.154-.137-.275.048.55-.097.049-.009.1.002.15-.007.027-.005.04-.041.066-.05.043-.014.02.04.062-.02.006-.008-.003-.024.005-.03.018-.012.045-.006.063-.02.008-.006-.004-.023.004-.028.008-.007.02.01.029.004.008-.007.003-.02.004-.03.002-.01.018-.114.017-.116-.006-.008-.023.004-.029-.004-.006-.009.003-.02.005-.03l.015-.1zm-2.914.34c-.11-.018.093.036 0 0zm8.287-.325c-.22.003-.422.125-.639.14-.098.008-.197-.004-.295-.013-.107-.01-.212-.043-.32-.048-.11-.006-.219.008-.329.01-.069.002-.139 0-.208-.001-.079-.001-.158-.015-.236-.006-.036.004-.064.032-.097.045-.173.072.041-.016-.12.012-.014.003-.02.02-.034.025-.021.007-.083-.035-.091.016-.002.01.02.003.029.005l.058.008.262.04c.57.084-.318-.033.416.002.117.005.232.039.349.052.156.017.313.022.47.04.136.016.27.05.406.06.366.03.501-.012.861.01.383.058.133.032.47.04l.03.005a.194.194 0 0 1 .02-.073v-.001c-.004-.006-.004-.002-.008-.013-.003-.01.01-.02.005-.029-.032-.043-.066-.04-.112-.046-.01-.002-.02 0-.03-.004-.019-.01-.033-.03-.054-.039-.022-.01-.143-.021-.174-.026-.02-.002-.04 0-.058-.008-.013-.007-.014-.025-.025-.033-.016-.012-.068-.004-.087-.014-.02-.01-.034-.028-.054-.038-.017-.008-.038-.005-.058-.008l-.116-.017c-.01-.002-.021 0-.03-.005-.037-.023-.07-.054-.105-.08v-.001a.559.559 0 0 0-.096-.007zm1.001.369c.025.06.019-.03 0 0zm-.02.073.029.005c.008-.007.014-.028.005-.03-.014-.002-.036.039-.034.025zm-9.437.457c-.04.007-.082.04-.124.05.01.002.02.005.03.003.047-.01.09-.032.134-.05a.07.07 0 0 0-.04-.003zm.04.004c-.145.09-.28.2-.435.272-.036.017-.078-.014-.117-.017-.06-.003-.119.002-.178.003-.06.002-.12-.003-.18.003-.388.038-.226.064-.632.055-.128-.004-.254-.026-.382-.028-.555-.007-.012.032-.483.047-.189.006-.044-.051-.237-.005-.014.004-.02.02-.034.024-.01.003-.02-.01-.029-.004-.008.006.002.02-.004.029-.008.01-.022.016-.033.024-.011.01-.02.02-.033.025-.01.003-.02-.005-.03-.004a.663.663 0 0 0-.091.016c-.021.004-.041.018-.063.02-.05.007-.1.004-.15.009-.07.007-.14.022-.212.027-.07.005-.139-.004-.208-.001-.03.001-.06.013-.091.016-.01.001-.035-.013-.03-.004.07.094.135.089.25.126.113.037.224.078.34.11.199.055.399.11.602.15.23.044.465.068.698.103l.698.105.582.086c.116.018.23.048.348.052.053.002.102-.031.155-.036.03-.003.057.014.087.013.022-.001.04-.017.062-.02.01-.002.02.007.03.004.013-.004.02-.02.033-.025.056-.026.092-.022.154-.037.022-.004.042-.015.063-.02.06-.014.122-.018.183-.032.021-.004.042-.014.062-.02.021-.008.044-.01.063-.02.024-.014.043-.037.067-.05.02-.011.043-.01.062-.021.037-.02.063-.056.1-.074.02-.009.043-.011.063-.02.012-.006.02-.021.033-.025.044-.014.021.039.063-.02.007-.01.019-.126.022-.146.001-.01.01-.021.004-.03-.047-.062-.053-.02-.112-.046-.152-.107.042.017-.112-.046-.02-.01-.035-.027-.054-.038-.054-.031-.11-.056-.166-.084-.028-.015-.054-.03-.083-.042-.056-.023-.004.03-.087-.013-.012-.006-.013-.026-.024-.034-.016-.01-.041 0-.059-.008-.02-.01-.034-.028-.054-.038-.017-.009-.042.003-.058-.009-.011-.008-.012-.027-.024-.033-.018-.009-.041 0-.059-.009-.012-.006-.014-.024-.024-.033-.133-.12 0 0-.083-.043-.056-.028-.071-.07-.137-.08l-.029-.003c-.02-.003-.057.01-.058-.01-.002-.034.084-.078.051-.091zm6.152.363c-.062 0-.121.03-.183.032-.04.002-.078-.011-.116-.017-.01-.001-.021-.01-.03-.005-.007.007.005.027-.004.03-.019.006-.039-.012-.058-.009-.014.003-.02.02-.033.025-.01.003-.02-.003-.03-.005-.01.01-.02.02-.033.025-.01.003-.021-.01-.029-.004s-.01.021-.004.029c.02.026.054-.018.062-.02.01-.003.02.002.03.004l.057.009.524.078c.73.109-.154-.004.59.028.089.004.174.032.262.04.275.023.133-.017.387-.002.049.003.096.022.145.022.022 0 .04-.019.063-.021.02-.002.039.01.058.009.022-.003.04-.019.063-.021.02-.002.039.006.058.009.04-.005.08-.003.12-.012.043-.009.082-.04.125-.04.079-.002.155.023.233.034.462.07-.087 0 .325.019.048.003.096.02.145.022.058.02.101-.036.154-.037.04 0 .077.018.117.017.03 0 .06-.015.091-.016.03 0 .058.009.087.013l.174.026.466.07c.058.009.116.023.175.026.05.003.1-.009.15-.008.029.002.057.01.086.013.01.002.02.008.03.005.013-.005.02-.02.033-.025.019-.006.04.012.058.009.033-.006.03-.007.043-.01a.706.706 0 0 0 .107.002c.031-.001.06-.016.092-.016.029 0 .187.035.203.03.013-.004.02-.02.034-.025.013-.004.134.02.145.022l.262.039.175.026c.02.003.038.01.058.009.022-.003.04-.018.062-.02.02-.002.04.005.059.008l.014-.004v-.386c-.006 0-.01.003-.016.004-.108.007-.217-.02-.325-.019-.13.002-.26.018-.39.031-.386.037-.625.086-1.024.085-.217 0-.432-.035-.649-.037-.438-.006-.876.047-1.315.041-.216-.002-.432-.025-.648-.037-.197-.01-.394-.016-.59-.028a9.725 9.725 0 0 1-.441-.036c-.068-.008-.135-.031-.204-.03zM24.2 10.125c-.082.105-.151.224-.242.32l.045.007c.01.002.02.008.029.005.013-.004.022-.016.034-.025.01-.009.025-.013.033-.025.005-.008-.004-.023.004-.028.008-.007.02.007.03.004.012-.004.02-.021.033-.026.01-.003.02.008.029.005.013-.004.02-.02.033-.025.01-.003.021.01.03.004.007-.006.002-.019.003-.029.002-.01.011-.021.005-.03-.006-.008-.024.005-.03-.003-.005-.009.014-.024.005-.03-.016-.01-.052.01-.058-.008-.012-.037.012-.077.018-.116zm-.242.32h-.013c-.022.002-.04.018-.063.02-.03 0-.058-.015-.087-.014-.022.002-.04.016-.062.02l.058.01c.038.005.086.042.116.017.018-.016.034-.035.05-.052zm-3.688-.281c-.04 0-.08.008-.121.01-.026.003-.232.01-.27.02a1.23 1.23 0 0 0-.17.055.376.376 0 0 0-.105-.007c-.154.003-.066.02-.06.02l.027.005.145.022.407.06.611.091.64.096c.194.029.386.068.582.087.167.016.335.009.503.015.108.005.216.022.324.019.097.053.163-.045.246-.053.039-.003.078.024.116.018.014-.003.02-.022.034-.025.02-.003.038.012.058.009.013-.003.02-.02.033-.025.01-.003.02.003.03.004l.062-.02.187-.061c.021-.008.041-.017.063-.02.04-.008.08-.006.12-.013l-.96-.143c-.125-.018-.25-.048-.378-.056-.109-.007-.219.017-.328.01-.669-.038.03-.066-.644-.066-.09 0-.18.022-.271.02-.078-.003-.154-.028-.233-.035-.078-.006-.158 0-.237-.006-.039-.003-.077-.016-.116-.018-.04 0-.08.01-.12.012a.154.154 0 0 1-.03-.004c-.048-.007-.096-.022-.145-.022zm-.775.088c-.006-.002-.011-.002-.012.001-.001.01.02.003.03.005l-.018-.006zm11.889.35c-.13.001-.26.027-.39.031-.215.008-.585-.013-.804 0-.111.006-.221.028-.333.039-.09.009-.18.013-.27.02-.05.002-.1.002-.15.007-.305.03.023-.007-.125.04-.01.004-.021-.01-.03-.004-.007.006.005.024-.003.03-.008.006-.021-.012-.03-.005-.007.006-.01.021-.003.03l.086.012c.049.007.097.022.146.022.031-.002.06-.016.092-.016.029 0 .058.008.087.013.04-.005.08-.01.12-.012.06-.003.12-.002.18-.003.077.011.154.038.232.034.084-.003.164-.034.246-.052.11-.003.219-.012.328-.01.337.006.373.05.711.016.013 0 .024-.005.036-.007v-.174c-.042-.004-.084-.01-.126-.01zm-5.066.077c-.111.007-.221.031-.333.04-.109.008-.22.002-.328.01-.112.008-.222.032-.334.04-.119.008-.238-.001-.357.006-.121.007-.242.024-.362.035-.13.011-.261.018-.391.031-.715.07-.069.002-.487.076a.715.715 0 0 1-.121.011c-.02 0-.04-.015-.058-.008-.01.003-.013.023-.004.029.016.011.038.006.058.009l.116.017.582.087c.194.029.387.066.582.086.215.022.432.025.648.038.417.024.741.048 1.151.053.12.001.24-.005.359-.006.24-.002.138.023.27-.02.02-.007.043-.01.062-.02.025-.012.04-.045.067-.05.02-.002.039.006.058.01.01 0 .02.007.03.004.026-.008.04-.041.067-.05.022-.007.082.041.091-.016.003-.022-.038-.023-.054-.038-.048-.043.003-.037-.078-.07-.018-.008-.04-.004-.059-.01-.029-.01-.053-.031-.082-.041-.019-.006-.04-.002-.059-.01-.145-.06.035-.024-.112-.046l-.116-.017c-.01-.002-.026.005-.03-.004-.012-.039-.007-.08-.011-.12-.108-.006-.212-.042-.32-.049-.07-.004-.138 0-.208 0-.079-.002-.158-.011-.237-.007z" fill="#e7fbfa"/>
 <path id="path60" d="M8.871 2.43c-.348 0-.69.028-1.023.08-.551.941.335 2.1.688 3.022-.227.988-1.568 1.061-2.418.98-1.22.006-2.523.204-3.495.896-.013.007-.024.017-.037.025a6.508 6.508 0 0 0-.164 1.446v.178a.9.9 0 0 0 .59.213c.8.41 1.664.716 2.414 1.071.343 1.259 1.832 1.167 2.73 1.794.664.78 1.652.86 2.599.995.79.095 2.575.607 1.052 1.305-.646.73.344 1.944-.852 2.333-.309.874-1.421.977-2.202 1.184-1.232.533-2.433 1.15-3.724 1.533-.791.235-2.01 1.614-.46 1.687.91.225 1.876.199 2.698-.293 1.225-.443 2.488-.893 3.774-1.042.673-.079 2.056.176 1.44 1.039-.063.744.269 1.595.234 2.248-1.044-.235-2.126-.119-3.182.048-.52.08-1.767.54-1.697.831 1.222-.19 2.498-.064 3.738-.115 1.045-.465 1.703.052 2.87.094.694.843-.24 2.363.68 3.017.334.577.346 1.063-.489.978-.548.328-.719.992-1.317 1.298l-.814.656-1.048.476-1.387.468-.386.026-.57.125-.75.183-.618.16-.178.016c.42.086.857.132 1.304.132h3.647c.419-.127.84-.177 1.268-.04l.14.04H25.06c.155 0 .308-.008.46-.018.379-.887-.277-2.081.01-2.982.563-1.486-.938-2.356-1.258-3.707-1.221-.371-4.185.062-3.561-1.966.797-.355 2.614-.559 1.706-1.84-.409.743-1.552 1.465-1.905.116.227-1.191-1.257-.913-1.568-1.685.941-.367.688-1.6 1.326-2.157.07-1.408-1.492-2.224-1.315-3.685-.338-1.087-.488-2.28-.525-3.364.837-1.243-2.388-.993-.638-1.79.898-.52 2.068.166 2.767-.8.976-.745 2.068-1.26 3.198-1.72l-.022-.02-.003.001c-.02.002-.039-.006-.058-.009l-.088-.013-.205-.031-.117-.018c-.006-.009-.005-.026.004-.03.02-.006.04.015.058.01.01-.004-.003-.024.005-.03.008-.006.02.007.03.005.022-.004.04-.017.062-.02.01-.002.02.005.03.004.03-.003.061-.01.092-.016l.022-.004c-.455-.395-1.052-.758-1.608-1.176l-.005.007c-.012.016.002.042-.01.058-.007.011-.025.014-.033.025-.011.016.003.043-.009.059-.008.01-.026.013-.034.025-.005.008.004.023-.004.03-.008.006-.021-.012-.03-.005-.007.006.002.02-.004.029-.008.01-.022.017-.033.025-.012.009-.021.02-.035.025-.009.003-.019-.007-.029-.005-.223.038.048-.002-.097.045-.01.004-.02-.007-.03-.004-.012.004-.019.022-.033.025-.02.003-.038-.01-.058-.01-.066.007-.094.052-.16.066-.388.082.026-.047-.244.023-.043.011-.083.03-.126.041-.06.016-.123.021-.185.032-.03.006-.061.015-.092.016-.03 0-.059-.009-.088-.013l-.088-.014c-.02-.003-.109-.012-.117-.018-.018-.012-.037-.04-.021-.063.008-.01.026-.013.034-.025.02-.029-.012-.03.009-.059.008-.01.025-.013.034-.024.011-.017-.003-.043.008-.059.008-.01.026-.013.034-.025.006-.008-.003-.023.005-.03.008-.005.02.012.03.006.007-.007-.004-.024.004-.03.008-.006.02.006.03.005.03-.003.061-.01.092-.016.501-.106-.282.05.374-.093.06-.014.124-.015.184-.032.056-.016.104-.055.16-.066.06-.012.121.006.18-.003.045-.005.084-.028.127-.04.058-.016.078-.02.105-.025a5.265 5.265 0 0 1-.62-.565c-.832.239-1.54-.094-2.348-.202-.311.492-2.226 1.138-1.66.104.8-.453.35-.046.26-.643l-.186-.453.428-.266Zm10.246 1.867c.023.043.055.083.07.13.003.01-.02-.01-.03-.004-.007.006.004.023-.004.03-.045.032-.021-.054-.033.024-.016.011-.04-.015-.06-.009-.013.004-.02.02-.033.025-.01.003-.02-.003-.03-.005l-.029-.004c-.075-.011-.044.028-.096.045-.01.003-.02-.007-.03-.004-.026.008-.04.047-.068.05-.03.003-.058-.014-.087-.014-.032.002-.062.016-.093.016-.04 0-.078-.012-.117-.018l-.205-.031-.176-.027c-.03-.005-.064.004-.088-.014-.011-.007.02-.02.034-.024.009-.004.02.006.03.004.03-.003.06-.01.092-.016.088-.015.119-.023.214-.027.14-.007.184.02.306-.043.037-.02.061-.062.101-.075.022-.007.327-.01.332-.01zm.77 1.047c-.005 0-.006.009.088.014.07.003.14 0 .21.002.09.003.179.01.268.01.22.001.506-.025.722-.01.118.01.234.042.352.054.04.004.453.017.507.018.05 0 .1-.003.151-.008.031-.003.06-.016.092-.016.04 0 .078.012.117.018-.143.106-.08.108-.164.095-.01-.001-.02-.007-.03-.004-.026.008-.04.04-.067.05-.018.006-.04-.016-.058-.01-.014.005-.02.021-.034.025-.01.004-.02-.007-.03-.004-.013.004-.02.02-.033.025-.01.003-.021-.01-.03-.005-.008.007.004.024-.004.03-.016.011-.043-.02-.059-.01-.008.007.005.027-.004.03-.02.006-.04-.01-.059-.009-.022.003-.042.016-.063.02-.01.002-.02-.006-.03-.004-.021.004-.04.02-.062.02-.03.002-.06-.009-.089-.013-.02.007-.04.018-.063.02-.02.002-.039-.006-.058-.009l-.264-.04c-.04-.006-.078-.018-.118-.018-.04 0-.08.013-.121.012-.04-.002-.078-.012-.117-.018l-.117-.018-.352-.054-.206-.031c-.029-.005-.06-.005-.087-.014-.03-.01-.054-.032-.084-.042-.028-.009-.06-.003-.088-.013-.136-.05-.074-.042-.083-.043.08-.038.071-.049.067-.05zm-1.253.35c.04.002.078.016.117.017.05.002.101-.008.152-.007.079.001.155.04.234.035-.035.035-.074.066-.106.104-.029.035.035.06.05.068.009.004.021-.001.03.005.01.008.012.027.024.033.018.009.039.006.059.01.01 0 .03-.007.029.004-.008.051-.07.009-.093.016-.107.035.087.043-.12.011-.07-.01-.138-.028-.207-.031-.05-.002-.1.009-.15.007-.04-.002-.078-.017-.118-.018-.05-.002-.1.01-.15.007-.04-.002-.078-.018-.118-.018-.031 0-.061.016-.093.016-.04 0-.078-.012-.117-.018l-.147-.022c-.029-.005-.06-.005-.087-.014-.19-.061-.022-.033-.113-.047-.01.003-.031.006-.03-.005.002-.01.02.004.03.005.015-.005.115-.084.135-.1.012-.008.02-.02.034-.024.019-.007.039.012.058.009.032-.006.03-.007.043-.01-.051-.006.075-.017 0 0a.712.712 0 0 0 .109.003c.031-.001.06-.011.092-.016l.122-.011a5 5 0 0 1 .33-.01zm3.906.355-.131.07c-.002.01.004.023-.004.029-.01.006-.127-.026-.147-.022-.106.018-.026.026-.093.016a1.285 1.285 0 0 0-.087-.014c-.009.006.003.024-.005.03-.008.006-.02-.007-.029-.005-.022.004-.042.016-.064.02-.01.002-.019-.006-.029-.004-.043.007-.082.033-.126.04-.026.004-.096-.025-.117-.017-.013.004-.02.022-.034.024-.02.004-.04-.015-.058-.008-.01.003.003.023-.005.029-.064.047-.058.005-.122.012-.022.002-.041.018-.063.02-.03.001-.058-.014-.088-.014-.031.002-.061.017-.092.016-.05-.001-.098-.015-.147-.022l-.117-.018c-.039-.006-.08-.006-.117-.018-.021-.006-.034-.03-.055-.038-.046-.017-.097-.015-.146-.023-.01-.001-.024.005-.03-.004-.006-.008-.003-.023.005-.03.003-.002.1.019.117.018.197-.009-.027-.039.244-.022.059.003.117.031.176.027.075-.006.143-.055.218-.057.1-.003.196.03.293.045.072-.01.143-.023.214-.028.07-.004.14.003.21.002.145-.002.29-.012.429-.054zm-2.455.945c.1-.004.2.007.298.016.075.005.112.01.13.015.018.003.017.005.016.007-.013.004-.02.02-.033.025-.01.003-.021-.011-.03-.005-.008.006.004.024-.004.03-.007.005-.076-.018-.088-.014-.014.004-.02.02-.034.025-.02.006-.127-.028-.147-.022-.013.004-.02.02-.033.024-.019.007-.043-.02-.06-.008-.007.006.004.023-.004.029-.016.01-.039-.012-.058-.01-.022.005-.041.019-.063.021-.02.002-.04-.006-.059-.009-.048-.007-.097-.024-.146-.022-.022.001-.041.019-.063.02-.03.002-.059-.013-.088-.013-.032.002-.061.015-.093.016-.03 0-.058-.015-.088-.014-.044.003-.082.034-.126.041-.01.002-.02-.007-.03-.004-.012.004-.02.019-.033.025-.163.076 0 0-.092.015-.022.005-.042.014-.063.021l-.063.02c-.021.008-.041.021-.063.02-.06 0-.118-.017-.177-.026l-.498-.076-.205-.032c-.03-.004-.06-.004-.088-.013-.03-.01-.054-.032-.083-.042-.029-.01-.064.004-.088-.014-.012-.008.02-.022.033-.025.02-.003.04.01.06.01.04 0 .08-.012.12-.012.596-.008-.138.013.503.046.177.01.601-.031.756-.034.15-.003.299.014.448.008.113-.004.224-.035.336-.039zm.594.031c-.04.005-.08.01-.12.012-.01 0-.02-.008-.03-.005 0 .003.005 0 .15-.007z" fill="url(#m)"/>
 <path id="path61" d="M10.687 2.923a.477.477 0 0 0-.09-.006c-.115.001-.228.035-.342.033-.11-.003-.218-.04-.329-.05a7.418 7.418 0 0 0-.465.015c-.03.005-.059.02-.088.029-.043.007-.086.019-.13.023-.013 0-.027-.009-.04-.006-.032.006-.06.021-.09.028-.042.01-.087.01-.129.023-.018.006-.028.029-.047.035-.013.004-.028-.01-.04-.006-.02.006-.03.029-.048.035-.014.004-.028-.01-.041-.006-.019.006-.029.031-.048.035-.027.005-.056-.02-.082-.012-.013.004.006.034-.006.04-.04.019-.087.013-.13.023-.03.008-.057.024-.088.029-.017.003-.116-.023-.123-.019-.012.01-.015.03-.007.042.008.011.03-.002.042.006.08.107-.01.009.076.053.055.028.093.088.152.107.053.017.11.016.165.024l.164.025.494.074c.055.008.109.022.164.024.278.01.129-.012.342-.033.013-.001.028.01.04.006.054-.017.09-.087.142-.105.013-.004.029.01.042.007.037-.013.056-.064.094-.07.028-.005.055.017.083.012.019-.003.029-.027.047-.035a1.002 1.002 0 0 1 .218-.051c.013-.002.03.014.04.005.012-.009-.004-.032.007-.04.022-.017.056.02.082.012.019-.006.029-.03.048-.035.013-.004.03.015.04.006.012-.01 0-.03.007-.041.03-.054.07-.102.106-.152-.091-.039-.15-.072-.232-.085zm-.225 1.523a2.24 2.24 0 0 0-.175-.02c-.084-.006-.168.005-.253.004-.112 0-.223-.008-.335-.008-.249.002-.485.064-.73.101-.1.016-.2.025-.3.04-.043.005-.088.009-.13.023-.047.015-.088.048-.135.064-.042.013-.088.008-.13.022-.019.006-.028.029-.047.035l.37.055.329.05.411.06c.292.044.405.064.488.08-.08-.023-.124-.053.183-.063.545.081.03.031.376.014.055-.002.11.03.165.025.03-.003.059-.02.088-.029.043-.007.086-.018.13-.023.013 0 .027.004.04.006.016-.01.03-.028.048-.034.013-.004.03.015.041.006.011-.01-.005-.033.006-.042.011-.008.03.015.042.007.01-.01-.005-.033.006-.041.01-.009.03.015.04.006.012-.009-.004-.033.007-.041.011-.01.027.008.041.006.03-.006.064-.01.089-.03.047-.035-.06-.106-.14-.188-.176-.015-.35-.058-.525-.084zm.448 2.007c-.087.015-.172.044-.26.046-.083 0-.163-.03-.246-.037a7.499 7.499 0 0 0-.588-.004c-.118.016-.231.052-.348.075-1.22.236.291-.044-.682.066-.118.013-.23.056-.348.074-.127.02-.221-.006-.341.033-.019.006-.029.03-.048.035-.013.004-.03-.015-.04-.006-.012.009-.015.03-.007.041.009.012.029 0 .041.006.028.015.049.04.076.054.013.006.028.004.042.006l.123.018c.168.025.325.056.5.033.092-.012.173-.075.265-.087.48-.063.178.036.54.039.032 0 .059-.024.09-.03.027-.004.055.021.082.013.037-.012.059-.053.094-.07.083-.039.182-.047.265-.086.018-.008.028-.032.048-.035.027-.005.054.017.082.012.019-.003.03-.026.047-.035.007-.078.1-.013.13-.023.018-.006.028-.028.047-.034.013-.004.03.015.041.006.011-.01-.005-.033.006-.041.014-.01.137.033.165.024.018-.006.029-.027.047-.035.057-.023.118-.038.177-.057zm-4.507.158c.002.046-.004.093.006.138.004.02.028.028.035.047.004.013-.005.028-.007.041l.124.019c.25.037.154.046-.158-.245zm.034.226-.082-.012c.012.006.038.081.076.053.011-.009.004-.027.006-.04zm-.631-.143a.095.095 0 0 0-.062-.002c-.013.004.007.037-.006.041-.026.008-.055-.008-.082-.012l-.082-.012c-.394-.059.089.032-.2-.072-.005-.002-.01-.002-.016-.003a7.644 7.644 0 0 0-.624.076c.054.016.102.049.157.065.04.012.082.012.123.019l.206.03c.027.004.057 0 .082.013.018.008.02.035.035.047.014.01.188.03.206.03.043-.002.086-.015.13-.022.043-.007.086-.013.129-.023.06-.014.115-.052.177-.058.028-.003.054.008.082.012.013.002.028.01.041.007.019-.007.029-.029.048-.035l.04.006c-.028-.012-.048-.04-.076-.054-.024-.012-.215-.032-.246-.036-.021-.003-.042-.011-.062-.017zm-.728 1.181a.149.149 0 0 0-.059.012c-.065.022-.114.109-.183.099.078-.03.164.037.247.036.014 0 .004-.027.006-.04l.041.006c.107.016-.006.01.046-.033a.115.115 0 0 1-.04-.008c-.046-.024-.023-.068-.058-.071Zm.098.08.043.004c.013.002-.03-.015-.041-.006-.002 0 0 .001-.002.002zm-.34.03zm0 .001c-.275-.03-.546-.107-.823-.123-.114-.006-.227.028-.34.033-.184.01-.328-.014-.507.009-.049.006-.125.028-.094.07.008.011.03-.002.041.006.016.011.017.038.035.047.017.009.272.04.288.043.165.025.328.063.494.074.084.006.168-.01.252-.005.102.008.396.082.5.033.073-.034.079-.158.154-.187zm0-.001-.146-.147c-.027-.004-.101-.032-.082-.012.065.066.136.145.227.159zm2.637.517H7.45c-.013-.003-.027-.01-.04-.007-.02.006-.029.032-.048.035-.02.003-.26-.038-.288-.043-.027-.004-.056-.02-.082-.012-.013.004.005.033-.006.04-.011.01-.028-.01-.041-.005-.053.017-.09.088-.143.105-.013.004-.027-.01-.04-.006-.01.003-.015.011-.022.018.257-.006.516.006.768.05l-.022-.128c.002-.014.014-.03.006-.042a.018.018 0 0 0-.019-.005zm-.733.126a6.12 6.12 0 0 0-.32.015l.041.006c.069.01.137.032.206.03.03 0 .05-.03.073-.051zm-.32.015c-.027-.006-.054-.013-.082-.012-.224.003-.123.024-.095.035.059-.01.118-.019.177-.023zm-.224.029c-.035 0-.08-.002-.2-.008-.543-.031.097-.07-.623-.052-.114.003-.227.03-.341.034-.112.004-.224-.015-.335-.008-.297.019-.176.047-.389.068-.07.007-.141.004-.212.01-.013.001.028.004.041.006.042.007.083.023.124.019.03-.003.058-.024.088-.03.115-.02.32-.022.424-.02.126.002.251.01.376.014.114-.01.227-.032.342-.033.153-.001.305.03.458.026a2.08 2.08 0 0 0 .247-.026zm2.125.759c-.136-.023-.257.064-.389.068-.083.002-.163-.03-.246-.037-.807-.02.133.017-.665-.057-.815-.076-.064-.002-.717.02-.056.002-.11-.024-.165-.025-.057-.001-.113.017-.17.016-.042 0-.083-.02-.124-.018-.03.001-.058.023-.088.028.142.018-.087-.022.158.066.04.013.082.012.123.019l.33.049c.15.022.3.06.452.067.127.006.255-.026.382-.027.466-.004.352.059.8-.006.02-.004.03-.027.047-.036.028-.013.06-.019.089-.028l.183-.1zm-2.564-.004-.042-.006c-.013-.002.028.008.041.006h.001zm3.323 1.081a.778.778 0 0 0-.119-.014c-.06.01-.118.038-.177.057l-.41-.061-.412-.061c-.082-.013-.164-.032-.247-.037-.07-.005-.141.015-.212.01-.097-.007-.19-.047-.288-.043-.131.005-.258.051-.388.068-.07.01-.142.004-.212.01-.044.004-.086.02-.13.023-.013.001-.028-.01-.041-.006-.019.006-.065.027-.047.035.064.026.137.02.205.03.069.01.137.024.206.031.933.105.846.105 1.705.129.21.006.42.004.63.01.125.002.25.018.376.013.098-.003.195-.027.293-.037a1.296 1.296 0 0 1-.158-.026c-.029-.011-.046-.043-.076-.053-.033-.013-.342-.051-.37-.055a8.48 8.48 0 0 1-.128-.022zm.732.157.09.012c.027.004-.055-.016-.083-.013h-.007zm-.14 1.403a.173.173 0 0 0-.062-.006c-.061.006-.115.047-.176.058-.028.005-.06-.029-.083-.012-.01.008.005.033-.006.04l-.123-.018c-.031.003-.06.02-.089.03-.059.019-.117.041-.177.057-.188.05-.391.094-.593.136.151.138.315.249.488.338.272.015-.056.008.591-.065.591-.067.03.077.512-.05.03-.007.058-.023.089-.028.027-.005.056.02.082.012.202-.066-.178-.01.135-.064.014-.003.028.01.042.006.018-.006.03-.023.047-.035.015-.011.044-.016.047-.035.013-.086-.055-.025-.076-.053-.008-.012.017-.034.006-.042-.007-.005-.281-.042-.288-.043l-.576-.086.395-.109c-.062.022-.123-.015-.185-.03zm2.91 4.6c-.52-.012.119.033-.301.04-.293.005.073-.067-.294-.002-.06.01-.116.043-.177.057-.042.01-.09.004-.13.023-.012.006-.004.027-.006.04-.002.014-.014.031-.006.042.008.012.028.004.042.006l.04.007.206.03.247.037c.11.016.218.048.33.05.157.002.312-.054.47-.056.028 0 .055.017.082.012.027-.004.11-.092.142-.105.057-.024.118-.039.177-.058l-.658-.098c-.055-.008-.11-.024-.165-.025zm2.587.975c-.149.043-.274-.02-.424.021-.274.076-.283.093-.254.094-.024.003-.046.002-.14.015a4.73 4.73 0 0 0-.389.069c-.03.006-.058.023-.088.028-.014.003-.028-.008-.042-.006-.03.006-.058.024-.088.029-.014.003-.027-.009-.04-.006-.032.006-.059.023-.09.028-.013.003-.03-.015-.04-.006-.098.073.13.017-.054.076-.013.005-.03-.015-.041-.006-.011.01-.004.028-.006.042-.002.013-.015.03-.006.04.008.012.027.004.04.007l.083.012.206.03c.142.022.133.03.294.003.03-.006.057-.028.088-.03.042 0 .082.026.123.019.05-.009.089-.048.136-.064.042-.013.087-.012.13-.022.03-.008.057-.026.088-.03.028-.003.055.016.082.013.031-.003.058-.022.089-.029.042-.01.087-.012.13-.022.06-.015.117-.04.176-.058.03-.01.058-.024.089-.03.013-.002.03.016.04.007.012-.009.012-.028.007-.041-.027-.064-.066-.122-.099-.183zm-3.072.717c-.064-.004-.123.008-.32.038-.087.013-.172.037-.26.046-.238.023-.24-.015-.464.014-.03.005-.058.027-.089.03-.027.003-.054-.016-.082-.013-.03.003-.059.02-.088.029l-.089.029c-.029.009-.06.015-.088.028-.018.008-.064.027-.047.036.05.025.11.016.165.024l.287.043.411.061c.042.006.082.02.124.019.182-.003.128-.074.265-.087.028-.003.055.016.083.012.03-.003.057-.025.088-.028.028-.004.055.017.082.012.02-.003.029-.03.047-.035.027-.008.056.02.083.012.018-.006.03-.026.047-.035a.358.358 0 0 1 .088-.029c.014-.002.033.017.041.007.033-.047.044-.106.066-.159-.217-.032-.286-.05-.35-.055zm1.959 1.388c-.084 0-.169-.002-.253.004-.044.002-.086.015-.13.023-.123.021-.167.033-.3.04-.277.013-.19-.01-.423.02-.044.006-.088.009-.13.022-.018.007-.063.024-.047.036.034.023.082.012.124.018.127.019.078.02.252-.004.044-.006.086-.02.13-.023.751-.053-.183.022.459.026.077.001.082-.033.135-.064.06-.035.122-.065.183-.098zm-5.45-.733c.018.009.048.034-.169.063-.041.006-.081-.021-.123-.019-.087.007-.172.035-.259.045-.07.009-.142.004-.212.011-.043.004-.086.019-.13.023-.013 0-.03-.015-.04-.006-.012.009.004.032-.007.04-.01.01-.03-.014-.041-.006a.96.96 0 0 0-.018.124c.022.015.056 0 .082.012.028.012.047.044.076.053.053.017.11.017.164.025l.206.03c.179.027.355.067.535.08.059.005.311-.017.382-.027.044-.005.088-.009.13-.022.048-.016.16-.087.224-.093.028-.003.056.02.082.012.013-.004-.005-.032.006-.04.012-.01.03.014.042.006.011-.01.017-.034.006-.042-.023-.015-.055-.008-.082-.012l-.289-.043c-.027-.004-.058.002-.082-.012-.081-.045-.152-.107-.228-.16-.274-.041-.271-.05-.254-.041zm6.29 1.653a.75.75 0 0 0-.093-.01c-.057-.002-.113.012-.17.016-.36.025-.066-.016-.47.056l-.13.023c-.044.007-.087.021-.13.022-.042.001-.082-.02-.124-.018-.103.001-.209.048-.306.08-.059.02-.12.032-.177.058-.018.008-.028.029-.047.035-.013.004-.03-.015-.041-.006-.012.009.005.032-.006.04-.012.01-.03-.014-.041-.005-.012.008-.015.03-.006.04.008.013.029 0 .04.007.112.079-.07.031.118.06.062.009.272.049.329.048a.768.768 0 0 0 .218-.051c.046-.02.088-.049.136-.064.172-.056.103.012.3-.04.048-.012.088-.048.135-.063.16-.028.088-.009.218-.051.03-.01.058-.028.088-.03.042 0 .083.023.124.019.034-.003.105-.096.142-.105.056-.013.114-.011.17-.016-.093 0-.184-.03-.277-.045zm.047 1.942a.39.39 0 0 0-.093-.01c-.044 0-.086.014-.13.022-.07.003-.14.01-.211.01-.069 0-.543-.016-.63-.01-.087.008-.172.036-.259.046-.07.008-.14.009-.211.01-.017 0-.079-.015-.083-.012-.067.05.07.05.077.053.016.012.016.04.034.047.039.017.083.013.124.019l.164.024c.165.025.328.064.494.074.192.011.066-.037.218-.051.028-.004.056.02.082.012.014-.004-.005-.033.007-.041.01-.009.027.009.04.006.031-.006.058-.024.089-.029.03-.006.193.04.206.03.011-.008-.002-.029.006-.04.059-.084.027-.01.088-.03.037-.011.057-.06.095-.07.055-.012.114-.01.17-.015-.094.017-.185-.025-.277-.045zm-3.561.313c-.055.02-.114.03-.163.06l-.001.001c.055-.02.109-.042.164-.06zm-.164.061c-.262.097-.52.207-.794.258.054.01.111.017.122.019l.042.006c.013.002.027.01.04.006.02-.006.029-.031.048-.035.046-.008.119.033.165.025.03-.006.058-.024.088-.03.014-.002.028.01.04.007a.973.973 0 0 0 .143-.105c.02-.023.029-.057.054-.076.01-.009.03.015.04.006.022-.016-.01-.066.012-.08zm-.794.258c-.073-.012-.149-.026-.165-.024a.094.094 0 0 0-.028.01.463.463 0 0 0 .192.016h.001zm-.193-.015c-.073-.018-.146-.041-.22-.045-.154-.008-.31.017-.464.015-.095-.001-.19-.01-.284-.017a3.71 3.71 0 0 0-.145.042c.12.003.164.04.376.051.057.003.113-.012.17-.016.07-.005.142-.002.212-.011.03-.004.057-.026.088-.029.043-.004.168.037.206.031.021-.004.041-.013.061-.02zm5.753 1.346a.074.074 0 0 0-.04-.002c-.014.004.004.033-.007.041-.01.009-.03-.015-.04-.006-.012.009-.015.03-.007.041.008.012.027.004.041.006l.082.013c.055.008.112.009.165.024.055.016.103.051.158.066.067.017.138.02.206.03l.165.025c.04.006.083.029.123.018.067-.017.114-.109.183-.098l-.452-.068-.206-.03-.33-.05c-.013-.002-.027-.007-.04-.01zm1.029.158c.104.015.173.122.27.166.012.005-.005-.033.006-.041.011-.009.03.015.04.006.012-.009.005-.027.007-.041.002-.013.014-.03.006-.041-.004-.007-.139-.02-.165-.025zm-.573 1.302c-.202.043-.381-.033-.582-.045-.07-.005-.14.013-.212.01a1.678 1.678 0 0 1-.199-.014c-.023.004-.028.006-.094.012-.014.001-.03-.015-.042-.006.016.003.058.068.03.089-.012.009-.03-.015-.042-.006-.011.008.007.037-.006.04-.145-.02-.03-.024-.13.023-.028.013-.114.011-.088.03.045.031.11.016.164.024l.206.03.658.099.576.086.082.012c.041.006.083.026.124.018.01-.001.01-.113.018-.123.012-.016.036-.019.047-.035.02-.029-.001-.075-.028-.088-.025-.013-.057-.001-.083-.013-.028-.011-.048-.04-.076-.053-.026-.013-.138-.016-.164-.025-.055-.017-.106-.043-.159-.065zm-1.129-.043c-.013-.002-.02.04-.006.042.014.002-.005-.033.006-.042zm.136-.006c.09-.014-.047-.01 0 0zM14.36 29.55c-.394.028-.024-.007-.465.015-.128.006-.254.03-.382.027a6.966 6.966 0 0 1-.624-.051l-.018-.004-.324.263-.24.11c.08-.008.159-.032.24-.042.186-.022.207.004.382-.027.03-.006.058-.023.088-.029.027-.004.056.02.082.013.019-.006.03-.027.048-.035.028-.013.059-.02.088-.029.03-.009.058-.027.089-.029.041-.001.081.02.123.018.044 0 .086-.018.13-.022.07-.007.141-.001.211-.01.03-.005.058-.027.089-.03.036-.003.18.04.205.031.019-.006.029-.029.047-.035.013-.004.03.015.042.007.011-.01-.005-.033.006-.042.056-.04.122-.065.183-.098z" fill="#ffede3"/>
 <path id="path62" d="M17.634 5.905c-.113.29-.252.571-.339.87-.007.027.055.008.083.013.641.095-.16.002.505-.01.084 0 .165.025.247.038l.247.037.74.11c.083.012.164.041.247.037.062-.003.115-.052.177-.058.077-.007.316.047.411.061.037.006.224.022.247.037.064.045.082.137.14.19.324.293-.021-.041.317.13.035.018.035.077.07.095.097.05.307.019.411.062.058.023.094.086.153.107.156.056.335.022.493.073.084.028.151.092.235.12.079.025.164.024.246.036l.247.037c.083.012.164.04.247.037.124-.006.232-.094.354-.116.027-.005.06.03.082.013.022-.017-.01-.066.012-.083.022-.016.055.009.082.013l.494.073.082.013c.028.004.06-.004.083.012.032.022.037.072.07.094.022.016.059-.003.082.013.032.022.038.072.07.094.023.016.06-.003.082.012.064.045.07.154.14.19.05.025.115-.001.165.024.035.017.035.077.07.095.049.025.112.006.164.024.168.006.249.169.387.226.065.027.455.046.493.074.065.045.076.144.14.189.023.015.06-.003.083.012.06.043.079.146.14.19.134.094.046-.119.152.106.026.056.02.127.058.177.016.022.057 0 .082.012.055.028.097.079.152.107.025.013.06-.003.082.012.032.023.038.072.07.095.046.032.132-.02.165.024.016.023-.029.06-.012.083.016.022.06-.004.082.012.032.022.047.063.07.094.023.032.053.06.07.095.026.056.02.127.058.177.036.05.106.065.152.107a.23.23 0 0 1 .07.094c.008.026-.035.066-.013.082.046.032.116 0 .165.025.07.035.076.144.14.189.045.032.131-.02.164.025.017.022-.02.055-.012.082.12.368.008-.089.152.107.017.022-.028.06-.012.082.145.195.032-.261.152.107.009.026-.028.06-.012.082.037.05.106.065.152.107.059.052.076.144.14.189.023.015.066-.01.083.012.016.022-.03.06-.013.082.145.196.032-.26.153.107.008.027-.021.056-.013.083.047.141.094.047.14.189.008.023-.042.286-.049.329-.006.043-.035.309-.049.329-.022.032-.072.038-.094.07-.016.022.01.066-.013.082-.022.017-.06-.029-.082-.012-.022.016.01.066-.012.082-.022.017-.056-.02-.082-.012-.075.024-.115.115-.19.14-.026.008-.056-.02-.082-.013a.19.19 0 0 0-.094.07c-.016.023.014.074-.013.083-.052.017-.111-.042-.164-.025-.026.008.01.066-.012.082-.05.037-.121.032-.177.058-.036.017-.057.058-.095.07-.026.008-.06-.029-.082-.012-.022.016.01.066-.012.082-.022.017-.06-.029-.082-.012-.023.016.003.06-.013.082-.022.032-.063.047-.094.07-.032.024-.057.058-.095.07-.083.027-.18.008-.259.046-.025.012.014.073-.012.082-.053.017-.112-.042-.165-.025-.026.008.01.066-.012.083-.369.273-.041-.026-.259.045-.037.012-.057.058-.095.07-.026.008-.056-.02-.082-.012-.037.012-.057.058-.094.07-.027.008-.056-.02-.082-.012-.038.012-.058.057-.095.07-.218.07.11-.228-.26.045-.021.017.014.07-.011.082-.096.242-.233-.002-.342.033-.037.013-.057.058-.094.07-.053.018-.12-.057-.165-.024-.022.016.014.074-.012.082-.053.017-.11-.034-.165-.024-.038.006-.057.057-.094.07-.026.008-.056-.02-.082-.013-.038.013-.058.058-.095.07-.052.017-.187-.047-.247-.036-.122.021-.23.103-.353.115-.055.005-.11-.034-.165-.025-.038.007-.063.047-.094.07-.06.02-.116.047-.177.058-.055.01-.112-.042-.165-.024-.037.012-.057.057-.094.07-.026.008-.056-.02-.082-.013-.038.013-.058.058-.095.07-.026.008-.056-.02-.082-.012-.038.012-.057.058-.095.07-.026.008-.055-.008-.082-.012-.059.02-.122.028-.177.058-.069.037-.12.102-.189.14-.036.019-.493.17-.53.173-.18.017-.163-.1-.342.033-.022.016.01.066-.012.082l-.247-.037c-.038.007-.055.067-.094.07-.083.008-.164-.045-.247-.036-.039.003-.063.046-.095.07l-.164-.025-.411-.061c-.028-.004-.056-.02-.083-.013-.037.013-.057.058-.094.07-.02.006-.31-.046-.33-.049l-.493-.073-.987-.148-.082-.012c-.028-.004-.066.01-.083-.012-.016-.023.009-.055.013-.083.012-.082.082-.445.073-.493-.006-.039-.057-.057-.07-.095-.008-.026.018-.055.013-.082-.011-.061-.047-.116-.058-.177-.005-.027.008-.055.012-.082.008-.055.034-.11.025-.165-.007-.038-.058-.057-.07-.094-.017-.053.042-.112.024-.165-.024-.074-.115-.114-.14-.189-.008-.026.021-.056.013-.082-.012-.037-.058-.057-.07-.095-.018-.055.067-.273.049-.329-.012-.037-.063-.055-.07-.094-.01-.055.034-.11.024-.165-.006-.038-.057-.057-.07-.094-.008-.027.018-.055.013-.082-.011-.062-.047-.116-.058-.177-.014-.078.05-.17.037-.247-.007-.039-.063-.056-.07-.095-.01-.054.03-.109.024-.164-.006-.062-.047-.116-.057-.177-.01-.06.054-.195.037-.247-.013-.037-.058-.057-.07-.094-.009-.027.02-.056.012-.083-.012-.037-.058-.057-.07-.094-.009-.026.02-.056.012-.082-.012-.038-.058-.058-.07-.095-.008-.026.029-.06.012-.082-.036-.05-.125-.05-.152-.107-.023-.05.017-.11.025-.165.004-.027.029-.06.012-.082-.037-.05-.126-.05-.152-.107-.024-.05.016-.11.024-.164l.074-.494.025-.164c.004-.028.017-.055.012-.083-.01-.06-.052-.115-.058-.176-.008-.083.025-.165.037-.247l.086-.576.098-.658c.003-.02.056-.31.05-.33-.013-.037-.059-.057-.07-.094-.018-.053.041-.112.024-.164-.012-.038-.058-.058-.07-.095-.017-.053.042-.112.024-.164-.012-.038-.057-.058-.07-.095-.011-.035.052-.227.037-.247-.016-.022-.066.01-.082-.012s.008-.055.012-.082c.004-.028-.015-.087.013-.083.027.004-.009.055-.013.083l.1-.402" fill="url(#n)"/>
 <path id="path63" d="m8.871 2.43a6.435 6.435 0 0 0-6.449 6.449v16.189a6.435 6.435 0 0 0 6.45 6.449h16.188a6.435 6.435 0 0 0 6.45-6.45v-16.187a6.435 6.435 0 0 0-6.45-6.45zm0.93 1.464h14.329a5.902 5.902 0 0 1 5.915 5.915v14.328a5.902 5.902 0 0 1-5.915 5.915h-14.33a5.902 5.902 0 0 1-5.915-5.915v-14.327a5.902 5.902 0 0 1 5.915-5.915z" fill="url(#o)" stroke-linecap="round" stroke-linejoin="round" stroke-width="2.6877"/>
 <circle id="circle63" cx="25.747" cy="24.339" r="7.716" fill="url(#p)" opacity=".245"/>
 <path id="path64" d="m25.06 16.189a8.68 8.68 0 0 0-8.68 8.679 8.68 8.68 0 0 0 8.68 8.68 8.68 8.68 0 0 0 8.679-8.68 8.68 8.68 0 0 0-8.68-8.68z" fill="url(#q)" stroke-width="2.0503"/>
 <path id="path65" d="m24.391 14.592a9.657 9.657 0 0 0-9.657 9.657 9.657 9.657 0 0 0 9.657 9.658 9.657 9.657 0 0 0 9.658-9.658 9.657 9.657 0 0 0-9.658-9.657z" fill="url(#r)" opacity=".172" stroke-width="2.2813"/>
 <path id="path66" d="m32.75 24.237a7.691 7.691 0 0 1-7.692 7.691 7.691 7.691 0 0 1-7.69-7.691 7.691 7.691 0 0 1 7.69-7.691 7.691 7.691 0 0 1 7.691 7.691z" fill="url(#s)" stroke-width="1.938"/>
 <path id="path67" d="M24.814 19.525a.185.185 0 0 0-.185.185v.93a3.627 3.627 0 0 0-.998.267l-.465-.805a.185.185 0 0 0-.253-.068l-.422.244a.185.185 0 0 0-.068.253l.465.805a3.627 3.627 0 0 0-.73.731l-.806-.465a.184.184 0 0 0-.253.068l-.244.422a.185.185 0 0 0 .068.253l.802.464a3.627 3.627 0 0 0-.265.999h-.929a.185.185 0 0 0-.185.185v.488c0 .103.082.185.185.185h.93a3.627 3.627 0 0 0 .267.998l-.805.465a.184.184 0 0 0-.068.253l.244.423a.185.185 0 0 0 .253.067l.805-.464a3.627 3.627 0 0 0 .731.73l-.465.805a.185.185 0 0 0 .068.253l.422.244a.185.185 0 0 0 .253-.068l.464-.802a3.627 3.627 0 0 0 1 .266v.928c0 .103.082.185.184.185h.488a.185.185 0 0 0 .185-.185v-.93a3.627 3.627 0 0 0 .998-.267l.465.805c.052.09.164.12.253.068l.423-.244a.185.185 0 0 0 .067-.253l-.464-.805a3.627 3.627 0 0 0 .73-.73l.806.464a.184.184 0 0 0 .252-.067l.244-.423a.185.185 0 0 0-.068-.253l-.802-.463a3.627 3.627 0 0 0 .266-1h.929a.185.185 0 0 0 .185-.185v-.488a.185.185 0 0 0-.185-.185h-.93a3.627 3.627 0 0 0-.268-.998l.805-.465a.185.185 0 0 0 .068-.253l-.244-.422a.184.184 0 0 0-.252-.068l-.805.465a3.627 3.627 0 0 0-.732-.73l.465-.806a.185.185 0 0 0-.067-.253l-.423-.244a.185.185 0 0 0-.253.068l-.463.802a3.627 3.627 0 0 0-1-.266v-.928a.185.185 0 0 0-.185-.185zm.244 2.692a2.02 2.02 0 0 1 2.02 2.02 2.02 2.02 0 0 1-2.02 2.02 2.02 2.02 0 0 1-2.02-2.02 2.02 2.02 0 0 1 2.02-2.02z" fill="#3c3c3c" fill-opacity=".9962" style="paint-order:fill markers stroke"/>
</svg>
