<?xml version="1.0" encoding="UTF-8"?>
<svg id="svg3" width="64" height="64" version="1.1" xmlns="http://www.w3.org/2000/svg">
 <defs id="defs3">
  <filter id="filter1057" x="-.027" y="-.027" width="1.054" height="1.054" color-interpolation-filters="sRGB">
   <feGaussianBlur id="feGaussianBlur251" stdDeviation="0.61875"/>
  </filter>
  <linearGradient id="linearGradient1053" x1="-127" x2="-127" y1="60" y2="5" gradientTransform="translate(203.93 -.054156)" gradientUnits="userSpaceOnUse">
   <stop id="stop254" stop-color="#1d2123" offset="0"/>
   <stop id="stop256" stop-color="#33393e" stop-opacity=".99608" offset="1"/>
  </linearGradient>
 </defs>
 <g id="g267" transform="translate(-72.44)">
  <rect id="rect261" x="76.935" y="4.9558" width="55" height="55" ry="15" fill="#141414" filter="url(#filter1057)" opacity=".3" stroke-linecap="round" stroke-width="2.7444"/>
  <rect id="rect263" x="76.935" y="4.9558" width="55" height="55" ry="15" fill="url(#linearGradient1053)" stroke-linecap="round" stroke-width="2.7444"/>
  <circle id="circle265" cx="104.44" cy="32" r="30.001" fill-opacity="0" stroke-width="1.5715"/>
 </g>
 <path id="path4" d="m16.152 20.261v11.739h9.391v-3.522h-5.87v-4.695h5.87v-3.523zm10.565 0v11.739h3.522v-4.696h1.174l2.347 4.696h3.522l-2.935-5.87h1.761v-5.869zm10.565 0v3.522h3.522v8.217h3.521v-8.217h3.522v-3.523zm-7.043 2.348h2.347v2.348h-2.347zm-14.087 11.739v11.739h9.39v-11.74z" fill="#f9b807"/>
</svg>
