<?xml version="1.0" encoding="UTF-8"?>
<svg id="svg3" width="64" height="64" version="1.1" viewBox="0 0 16.933 16.933" xml:space="preserve" xmlns="http://www.w3.org/2000/svg" xmlns:xlink="http://www.w3.org/1999/xlink"><defs id="defs3"><filter id="filter1057" x="-.027" y="-.027" width="1.054" height="1.054" color-interpolation-filters="sRGB"><feGaussianBlur id="feGaussianBlur1059" stdDeviation="0.61875"/></filter><filter id="h" x="-.06" y="-.06" width="1.12" height="1.12" color-interpolation-filters="sRGB"><feGaussianBlur id="feGaussianBlur2" stdDeviation="0.85"/></filter><linearGradient id="g" x1="32" x2="32" y1="15" y2="49" gradientTransform="scale(.26458)" gradientUnits="userSpaceOnUse"><stop id="stop5" stop-color="#303030" offset="0"/><stop id="stop7" stop-color="#424242" offset="1"/></linearGradient><linearGradient id="linearGradient8" x1="15.742" x2="1.1906" y1="1.1906" y2="15.742" gradientUnits="userSpaceOnUse"><stop id="stop6" stop-color="#f5f74b" offset="0"/><stop id="stop9" stop-color="#13c1a6" offset=".5"/><stop id="stop8" stop-color="#017dfa" offset="1"/></linearGradient></defs><rect id="rect1055" transform="scale(.26458)" x="4.5" y="4.5" width="55" height="55" ry="15" fill="#141414" filter="url(#filter1057)" opacity=".3" stroke-linecap="round" stroke-width="2.7444"/><rect id="rect1045" x="1.1906" y="1.1906" width="14.552" height="14.552" ry="3.9687" fill="url(#linearGradient8)"/><rect id="rect31" transform="matrix(.26458 0 0 .26458 -.042436 -.04234)" x="15.16" y="15.16" width="34" height="34" ry="5" fill="#303030" fill-rule="evenodd" filter="url(#h)" opacity=".5" style="paint-order:stroke fill markers"/><path id="path33" d="m5.2916 3.9687h6.3499c0.73289 0 1.3229 0.59001 1.3229 1.3229v6.3499c0 0.73289-0.59001 1.3229-1.3229 1.3229h-6.3499c-0.73289 0-1.3229-0.59001-1.3229-1.3229v-6.3499c0-0.73289 0.59001-1.3229 1.3229-1.3229z" fill="url(#g)" fill-rule="evenodd" stroke-width=".26458" style="paint-order:stroke fill markers"/><path id="path35" d="m5.2916 11.02h3.1059v0.62118h-3.1059z" fill="#f9f9f9" stroke-width=".26457"/><g id="g4" transform="matrix(1.069 0 0 1.069 -.58422 -.75114)" fill="#fff" stroke-width=".105" aria-label="DS"><path id="path4" d="m6.348 6.429v1.867h0.283q0.484 0 0.738-0.24 0.256-0.24 0.256-0.697 0-0.455-0.254-0.693t-0.74-0.237zm-0.789-0.597h0.832q0.697 0 1.037 0.1 0.343 0.1 0.587 0.337 0.215 0.207 0.32 0.477 0.104 0.271 0.104 0.613 0 0.347-0.105 0.62-0.104 0.27-0.32 0.477-0.245 0.238-0.59 0.338-0.344 0.098-1.033 0.098h-0.831zm5.614 0.096v0.648q-0.252-0.113-0.492-0.17t-0.453-0.057q-0.283 0-0.418 0.078t-0.135 0.241q0 0.123 0.09 0.193 0.092 0.068 0.332 0.117l0.336 0.068q0.51 0.102 0.726 0.311t0.215 0.595q0 0.506-0.302 0.754-0.299 0.246-0.916 0.246-0.29 0-0.584-0.056-0.293-0.055-0.586-0.164v-0.666q0.293 0.156 0.566 0.236 0.274 0.078 0.528 0.078 0.259 0 0.396-0.086t0.137-0.246q0-0.144-0.094-0.221-0.092-0.078-0.37-0.14l-0.306-0.068q-0.46-0.098-0.673-0.313-0.21-0.215-0.21-0.58 0-0.457 0.294-0.703 0.296-0.246 0.849-0.246 0.252 0 0.519 0.039 0.266 0.037 0.55 0.112z"/></g></svg>
