<?xml version="1.0" encoding="UTF-8"?>
<svg id="svg25" width="64" height="64" version="1.1" viewBox="0 0 64 64" xmlns="http://www.w3.org/2000/svg" xmlns:cc="http://creativecommons.org/ns#" xmlns:dc="http://purl.org/dc/elements/1.1/" xmlns:rdf="http://www.w3.org/1999/02/22-rdf-syntax-ns#">
 <metadata id="metadata29">
  <rdf:RDF>
   <cc:Work rdf:about="">
    <dc:format>image/svg+xml</dc:format>
    <dc:type rdf:resource="http://purl.org/dc/dcmitype/StillImage"/>
    <dc:title/>
   </cc:Work>
  </rdf:RDF>
 </metadata>
 <defs id="defs7">
  <style id="style856" type="text/css"/>
  <filter id="filter1057" x="-.027" y="-.027" width="1.054" height="1.054" color-interpolation-filters="sRGB">
   <feGaussianBlur id="feGaussianBlur858" stdDeviation="0.61875"/>
  </filter>
  <linearGradient id="linearGradient1053" x1="-127" x2="-127" y1="60" y2="5" gradientTransform="translate(131.5 -.51)" gradientUnits="userSpaceOnUse">
   <stop id="stop861" stop-color="#32d7ff" offset="0"/>
   <stop id="stop863" stop-color="#329bff" offset="1"/>
  </linearGradient>
  <style id="style866" type="text/css"/>
  <style id="style868" type="text/css"/>
  <style id="style870" type="text/css"/>
  <style id="style872" type="text/css"/>
  <style id="style874" type="text/css"/>
  <style id="style876" type="text/css"/>
  <style id="style878" type="text/css"/>
 </defs>
 <circle id="circle882" cx="-1124.8" cy="-1279.3" r="0" fill="#5e4aa6"/>
 <circle id="circle884" cx="-1006.3" cy="-1318.6" r="0" fill="#5e4aa6"/>
 <circle id="circle886" cx="93.192" cy="-53.109" r="0" fill="#5e4aa6" fill-rule="evenodd"/>
 <circle id="circle888" cx="-927.84" cy="-1390.1" r="0" fill="#5e4aa6"/>
 <circle id="circle890" cx="171.69" cy="-124.58" r="0" fill="#5e4aa6" fill-rule="evenodd"/>
 <rect id="rect894" x="4.5" y="4.5" width="55" height="55" ry="15" fill="#141414" filter="url(#filter1057)" opacity=".3" stroke-linecap="round" stroke-width="2.7444"/>
 <rect id="rect896" x="4.5" y="4.5" width="55" height="55" ry="15" fill="url(#linearGradient1053)" stroke-linecap="round" stroke-width="2.7444"/>
 <g id="g975" transform="matrix(1.3462 0 0 1.3462 -.38918 .42302)" fill="#fff">
  <path id="path21" d="m26.5 12c-2.4853 0-4.5 2.0147-4.5 4.5 0 0.84666 0.30718 1.6877 1 2.5 0 0 0.0012-0.69342 0-1 0-2.4853 1.567-4 3.5-4 1.213 0 2.5 0.72858 2.9082 2h8.5918v-0.5l-7.7812-1.4727c-0.79954-1.2144-2.1536-2.0273-3.7188-2.0273z" style="paint-order:normal"/>
  <path id="path23" d="m13 14c-0.64031 0.91229-1 2-1 3 0 3 1 4 2.5 5h-1.5c0 4 3 6 6 6h1v-0.5c-3.2656-0.5-4-2.5-4-3.5l7 1v-1s-6.0222-0.97828-7-2c-0.62399-0.65202-1-1.3269-1-2v-3l9 6v-1zm15 4v3c1 1 2 2 2 6 0 2.7614-2.2386 5-5 5h-5v6l2-4h3c3.866 0 7-3.134 7-7 0-4-2-5.3545-3-6.5v-1.5z" style="paint-order:normal"/>
 </g>
</svg>
