<?xml version="1.0" encoding="UTF-8" standalone="no"?>
<svg
   id="svg25"
   width="512"
   height="512"
   version="1.1"
   viewBox="0 0 64 64"
   sodipodi:docname="desktop-environment-lxqt.svg"
   inkscape:version="1.4.4 (dcaf3e7d9e, 2026-05-05)"
   xmlns:inkscape="http://www.inkscape.org/namespaces/inkscape"
   xmlns:sodipodi="http://sodipodi.sourceforge.net/DTD/sodipodi-0.dtd"
   xmlns="http://www.w3.org/2000/svg"
   xmlns:svg="http://www.w3.org/2000/svg"
   xmlns:rdf="http://www.w3.org/1999/02/22-rdf-syntax-ns#"
   xmlns:cc="http://creativecommons.org/ns#"
   xmlns:dc="http://purl.org/dc/elements/1.1/">
  <sodipodi:namedview
     id="namedview1"
     pagecolor="#ffffff"
     bordercolor="#999999"
     borderopacity="1"
     inkscape:showpageshadow="2"
     inkscape:pageopacity="0"
     inkscape:pagecheckerboard="0"
     inkscape:deskcolor="#d1d1d1"
     inkscape:zoom="2.2617188"
     inkscape:cx="256"
     inkscape:cy="256"
     inkscape:window-width="2560"
     inkscape:window-height="1371"
     inkscape:window-x="0"
     inkscape:window-y="0"
     inkscape:window-maximized="1"
     inkscape:current-layer="svg25" />
  <metadata
     id="metadata29">
    <rdf:RDF>
      <cc:Work
         rdf:about="">
        <dc:format>image/svg+xml</dc:format>
        <dc:type
           rdf:resource="http://purl.org/dc/dcmitype/StillImage" />
        <dc:title />
      </cc:Work>
    </rdf:RDF>
  </metadata>
  <defs
     id="defs7">
    <style
       id="style856"
       type="text/css" />
    <filter
       id="filter1057"
       x="-0.026999999"
       y="-0.026999999"
       width="1.054"
       height="1.054"
       color-interpolation-filters="sRGB">
      <feGaussianBlur
         id="feGaussianBlur858"
         stdDeviation="0.61875" />
    </filter>
    <linearGradient
       id="linearGradient1053"
       x1="-127"
       x2="-127"
       y1="60"
       y2="5"
       gradientTransform="translate(131.5 -.51)"
       gradientUnits="userSpaceOnUse">
      <stop
         id="stop861"
         stop-color="#32d7ff"
         offset="0"
         style="stop-color:#1a5fb4;stop-opacity:1" />
      <stop
         id="stop863"
         stop-color="#329bff"
         offset="1"
         style="stop-color:#62a0ea;stop-opacity:1" />
    </linearGradient>
    <style
       id="style866"
       type="text/css" />
    <style
       id="style868"
       type="text/css" />
    <style
       id="style870"
       type="text/css" />
    <style
       id="style872"
       type="text/css" />
    <style
       id="style874"
       type="text/css" />
    <style
       id="style876"
       type="text/css" />
    <style
       id="style878"
       type="text/css" />
    <filter
       inkscape:collect="always"
       style="color-interpolation-filters:sRGB"
       id="filter1"
       x="-0.074999998"
       y="-0.075000001"
       width="1.15"
       height="1.15">
      <feGaussianBlur
         inkscape:collect="always"
         stdDeviation="0.81250048"
         id="feGaussianBlur1" />
    </filter>
  </defs>
  <circle
     id="circle882"
     cx="-1124.8"
     cy="-1279.3"
     r="0"
     fill="#5e4aa6" />
  <circle
     id="circle884"
     cx="-1006.3"
     cy="-1318.6"
     r="0"
     fill="#5e4aa6" />
  <circle
     id="circle886"
     cx="93.192"
     cy="-53.109"
     r="0"
     fill="#5e4aa6"
     fill-rule="evenodd" />
  <circle
     id="circle888"
     cx="-927.84"
     cy="-1390.1"
     r="0"
     fill="#5e4aa6" />
  <circle
     id="circle890"
     cx="171.69"
     cy="-124.58"
     r="0"
     fill="#5e4aa6"
     fill-rule="evenodd" />
  <rect
     id="rect894"
     x="4.5"
     y="4.5"
     width="55"
     height="55"
     ry="15"
     fill="#141414"
     filter="url(#filter1057)"
     opacity=".3"
     stroke-linecap="round"
     stroke-width="2.7444" />
  <rect
     id="rect896"
     x="4.5"
     y="4.5"
     width="55"
     height="55"
     ry="15"
     fill="url(#linearGradient1053)"
     stroke-linecap="round"
     stroke-width="2.7444" />
  <g
     id="g975"
     transform="matrix(1.3462 0 0 1.3462 -.38918 .42302)"
     fill="#fff">
    <path
       id="path21"
       style="paint-order:normal;fill:#000000;filter:url(#filter1);opacity:0.35"
       d="m 26.500027,12.92852 c -2.4853,0 -4.499971,2.014671 -4.499971,4.499971 0,0.84666 0.307173,1.687684 0.999993,2.499984 0,0 0.0012,-0.693414 0,-0.999994 0,-2.4853 1.566978,-3.999974 3.499978,-3.999974 1.213,0 2.500015,0.728567 2.908215,1.999987 h 8.591712 v -0.499997 l -7.781235,-1.472605 c -0.79954,-1.2144 -2.153492,-2.027372 -3.718692,-2.027372 z m -13.500095,1.999987 c -0.64031,0.91229 -0.999994,1.999981 -0.999994,2.999981 0,3 0.999984,3.999968 2.499984,4.999968 h -1.49999 c 0,4 3.000143,6.000143 6.000143,6.000143 h 0.999993 v -0.499997 c -3.2656,-0.5 -4.000155,-2.499978 -4.000155,-3.499978 l 7.000136,0.999994 v -0.999994 c 0,0 -6.022336,-0.978448 -7.000136,-2.000168 -0.62399,-0.65202 -0.999994,-1.326887 -0.999994,-1.999987 v -2.999981 l 9.000124,5.999961 v -0.999993 z m 15.000085,3.999974 v 2.999981 c 1,1 1.999988,2.000143 1.999988,6.000143 0,2.7614 -2.238568,4.999968 -4.999968,4.999968 h -4.999969 v 5.999962 l 1.999988,-3.999974 h 2.999981 c 3.866,0 6.999955,-3.133956 6.999955,-6.999956 0,-4 -1.999981,-5.35464 -2.999981,-6.50014 v -1.49999 z" />
    <path
       id="path21-7"
       style="paint-order:normal"
       d="m 26.500027,11.99998 c -2.4853,0 -4.499971,2.014671 -4.499971,4.499971 0,0.84666 0.307173,1.687684 0.999993,2.499984 0,0 0.0012,-0.693414 0,-0.999994 0,-2.4853 1.566978,-3.999974 3.499978,-3.999974 1.213,0 2.500015,0.728567 2.908215,1.999987 h 8.591712 v -0.499997 l -7.781235,-1.472605 c -0.79954,-1.2144 -2.153492,-2.027372 -3.718692,-2.027372 z m -13.500095,1.999987 c -0.64031,0.91229 -0.999994,1.999981 -0.999994,2.999981 0,3 0.999984,3.999968 2.499984,4.999968 h -1.49999 c 0,4 3.000143,6.000143 6.000143,6.000143 h 0.999993 v -0.499997 c -3.2656,-0.5 -4.000155,-2.499978 -4.000155,-3.499978 l 7.000136,0.999994 v -0.999994 c 0,0 -6.022336,-0.978448 -7.000136,-2.000168 -0.62399,-0.65202 -0.999994,-1.326887 -0.999994,-1.999987 v -2.999981 l 9.000124,5.999961 v -0.999993 z m 15.000085,3.999974 v 2.999981 c 1,1 1.999988,2.000143 1.999988,6.000143 0,2.7614 -2.238568,4.999968 -4.999968,4.999968 h -4.999969 v 5.999962 l 1.999988,-3.999974 h 2.999981 c 3.866,0 6.999955,-3.133956 6.999955,-6.999956 0,-4 -1.999981,-5.35464 -2.999981,-6.50014 v -1.49999 z" />
  </g>
</svg>
