<?xml version="1.0" encoding="UTF-8" standalone="no"?>
<svg
   id="svg45"
   width="512"
   height="512"
   version="1.1"
   viewBox="0 0 64 64"
   sodipodi:docname="desktop-environment-unity.svg"
   inkscape:version="1.4.4 (dcaf3e7d9e, 2026-05-05)"
   xmlns:inkscape="http://www.inkscape.org/namespaces/inkscape"
   xmlns:sodipodi="http://sodipodi.sourceforge.net/DTD/sodipodi-0.dtd"
   xmlns="http://www.w3.org/2000/svg"
   xmlns:svg="http://www.w3.org/2000/svg"
   xmlns:rdf="http://www.w3.org/1999/02/22-rdf-syntax-ns#"
   xmlns:cc="http://creativecommons.org/ns#"
   xmlns:dc="http://purl.org/dc/elements/1.1/">
  <sodipodi:namedview
     id="namedview1"
     pagecolor="#ffffff"
     bordercolor="#999999"
     borderopacity="1"
     inkscape:showpageshadow="2"
     inkscape:pageopacity="0"
     inkscape:pagecheckerboard="0"
     inkscape:deskcolor="#d1d1d1"
     inkscape:zoom="2.2617188"
     inkscape:cx="256"
     inkscape:cy="256"
     inkscape:window-width="2560"
     inkscape:window-height="1371"
     inkscape:window-x="0"
     inkscape:window-y="0"
     inkscape:window-maximized="1"
     inkscape:current-layer="svg45" />
  <metadata
     id="metadata49">
    <rdf:RDF>
      <cc:Work
         rdf:about="">
        <dc:format>image/svg+xml</dc:format>
        <dc:type
           rdf:resource="http://purl.org/dc/dcmitype/StillImage" />
        <dc:title />
      </cc:Work>
    </rdf:RDF>
  </metadata>
  <defs
     id="defs7">
    <style
       id="style856"
       type="text/css" />
    <filter
       id="filter1057"
       x="-0.026999999"
       y="-0.026999999"
       width="1.054"
       height="1.054"
       color-interpolation-filters="sRGB">
      <feGaussianBlur
         id="feGaussianBlur858"
         stdDeviation="0.61875" />
    </filter>
    <linearGradient
       id="linearGradient1053"
       x1="-127"
       x2="-127"
       y1="60"
       y2="5"
       gradientTransform="translate(131.5 -.51)"
       gradientUnits="userSpaceOnUse">
      <stop
         id="stop861"
         stop-color="#32d7ff"
         offset="0"
         style="stop-color:#1a5fb4;stop-opacity:1" />
      <stop
         id="stop863"
         stop-color="#329bff"
         offset="1"
         style="stop-color:#62a0ea;stop-opacity:1" />
    </linearGradient>
    <style
       id="style866"
       type="text/css" />
    <style
       id="style868"
       type="text/css" />
    <style
       id="style870"
       type="text/css" />
    <style
       id="style872"
       type="text/css" />
    <style
       id="style874"
       type="text/css" />
    <style
       id="style876"
       type="text/css" />
    <style
       id="style878"
       type="text/css" />
    <filter
       inkscape:collect="always"
       style="color-interpolation-filters:sRGB"
       id="filter1"
       x="-0.082510873"
       y="-0.068742445"
       width="1.1650217"
       height="1.1374849">
      <feGaussianBlur
         inkscape:collect="always"
         stdDeviation="0.68745312"
         id="feGaussianBlur1" />
    </filter>
  </defs>
  <circle
     id="circle882"
     cx="-1124.8"
     cy="-1279.3"
     r="0"
     fill="#5e4aa6" />
  <circle
     id="circle884"
     cx="-1006.3"
     cy="-1318.6"
     r="0"
     fill="#5e4aa6" />
  <circle
     id="circle886"
     cx="93.192"
     cy="-53.109"
     r="0"
     fill="#5e4aa6"
     fill-rule="evenodd" />
  <circle
     id="circle888"
     cx="-927.84"
     cy="-1390.1"
     r="0"
     fill="#5e4aa6" />
  <circle
     id="circle890"
     cx="171.69"
     cy="-124.58"
     r="0"
     fill="#5e4aa6"
     fill-rule="evenodd" />
  <rect
     id="rect894"
     x="4.5"
     y="4.5"
     width="55"
     height="55"
     ry="15"
     fill="#141414"
     filter="url(#filter1057)"
     opacity=".3"
     stroke-linecap="round"
     stroke-width="2.7444" />
  <rect
     id="rect896"
     x="4.5"
     y="4.5"
     width="55"
     height="55"
     ry="15"
     fill="url(#linearGradient1053)"
     stroke-linecap="round"
     stroke-width="2.7444" />
  <g
     id="g39"
     transform="matrix(1.2767 0 0 1.2767 1.3636 .089492)">
    <g
       id="g37">
      <!-- color: #722953 -->
      <g
         id="g35">
        <path
           id="path33"
           d="m 14,13.979085 v 13.219 c 0,1.602 0.188,3.051 0.535,4.375 0.352,1.297 0.922,2.441 1.715,3.402 0.793,0.965 1.809,1.695 3.109,2.238 1.305,0.512 2.922,0.762 4.828,0.762 2.191,0 4.137,-0.086 5.789,-0.355 1.684,-0.273 3,-0.574 4.02,-0.813 v -22.832 h -4 v 19.793 c -0.156,0.063 -0.875,0.18 -1.254,0.242 -0.352,0.031 -0.73,0.09 -1.18,0.152 -0.445,0.027 -0.887,0.07 -1.391,0.102 -0.508,0.027 -1.023,0.051 -1.504,0.051 -2.254,0 -3.871,-0.645 -4.824,-1.883 -0.953,-1.234 -1.848,-3.203 -1.848,-6.06 v -12.398"
           fill="#f9f9f9"
           style="fill:#000000;filter:url(#filter1);opacity:0.35" />
        <path
           id="path33-7"
           d="m 14,13 v 13.219 c 0,1.602 0.188,3.051 0.535,4.375 0.352,1.297 0.922,2.441 1.715,3.402 0.793,0.965 1.809,1.695 3.109,2.238 1.305,0.512 2.922,0.762 4.828,0.762 2.191,0 4.137,-0.086 5.789,-0.355 1.684,-0.273 3,-0.574 4.02,-0.813 V 12.996 h -4 v 19.793 c -0.156,0.063 -0.875,0.18 -1.254,0.242 -0.352,0.031 -0.73,0.09 -1.18,0.152 -0.445,0.027 -0.887,0.07 -1.391,0.102 -0.508,0.027 -1.023,0.051 -1.504,0.051 -2.254,0 -3.871,-0.645 -4.824,-1.883 -0.953,-1.234 -1.848,-3.203 -1.848,-6.06 V 12.995"
           fill="#f9f9f9" />
      </g>
    </g>
  </g>
</svg>
