<?xml version="1.0" encoding="UTF-8"?>
<svg id="svg10" width="64" height="64" version="1.1" xmlns="http://www.w3.org/2000/svg" xmlns:cc="http://creativecommons.org/ns#" xmlns:dc="http://purl.org/dc/elements/1.1/" xmlns:rdf="http://www.w3.org/1999/02/22-rdf-syntax-ns#">
 <metadata id="metadata16">
  <rdf:RDF>
   <cc:Work rdf:about="">
    <dc:format>image/svg+xml</dc:format>
    <dc:type rdf:resource="http://purl.org/dc/dcmitype/StillImage"/>
    <dc:title/>
   </cc:Work>
  </rdf:RDF>
 </metadata>
 <defs id="defs14">
  <style id="style843" type="text/css"/>
  <style id="style845" type="text/css"/>
  <filter id="filter1057" x="-.027" y="-.027" width="1.054" height="1.054" color-interpolation-filters="sRGB">
   <feGaussianBlur id="feGaussianBlur847" stdDeviation="0.61875"/>
  </filter>
  <linearGradient id="linearGradient1053" x1="-127" x2="-127" y1="60" y2="5" gradientTransform="translate(131.5 -.51)" gradientUnits="userSpaceOnUse">
   <stop id="stop850" stop-color="#32d7ff" offset="0"/>
   <stop id="stop852" stop-color="#329bff" offset="1"/>
  </linearGradient>
  <style id="style855" type="text/css"/>
  <style id="style857" type="text/css"/>
  <style id="style859" type="text/css"/>
  <style id="style861" type="text/css"/>
  <style id="style863" type="text/css"/>
  <style id="style865" type="text/css"/>
  <style id="style867" type="text/css"/>
 </defs>
 <rect id="rect871" x="4.5" y="4.5" width="55" height="55" ry="15" fill="#141414" filter="url(#filter1057)" opacity=".3" stroke-linecap="round" stroke-width="2.7444"/>
 <rect id="rect873" x="4.5" y="4.5" width="55" height="55" ry="15" fill="url(#linearGradient1053)" stroke-linecap="round" stroke-width="2.7444"/>
 <g id="g8" transform="matrix(.64286 0 0 .64286 11.429 11.429)" fill="#fff">
  <path id="path4" d="m19.154 60c-1.7108 0-3.8095-1.2266-4.6638-2.7258l-12.85-22.548c-0.85427-1.4992-0.85427-3.9523 0-5.4515l12.85-22.548c0.85427-1.4992 2.953-2.7258 4.6638-2.7258h25.692c1.7108 0 3.8095 1.2266 4.6637 2.7258l12.85 22.548c0.85427 1.4992 0.85427 3.9523 0 5.4515l-12.85 22.548c-0.85415 1.4992-2.9529 2.7258-4.6637 2.7258z" opacity=".35"/>
  <path id="path6" d="m10.348 14-4.5625 8h36.812l-37.211 19.297 4.9609 8.7031h43.305l4.5625-8h-36.812l37.211-19.297-4.9609-8.7031z"/>
 </g>
 <g id="g895" transform="translate(-67.912)" fill="#5e4aa6">
  <circle id="circle875" cx="-1248.7" cy="-1241.6" r="0"/>
  <circle id="circle877" cx="-149.15" cy="23.855" r="0" fill-rule="evenodd"/>
  <circle id="circle879" cx="-1248.7" cy="-1241.6" r="0"/>
  <circle id="circle881" cx="-149.15" cy="23.855" r="0" fill-rule="evenodd"/>
  <circle id="circle883" cx="-1124.8" cy="-1279.3" r="0"/>
  <g id="g893" transform="matrix(3.7796,0,0,3.7796,123.83,-38.184)" stroke-width=".26458">
   <circle id="circle885" cx="-299.02" cy="-338.77" r="0"/>
   <circle id="circle887" cx="-8.1062" cy="-3.9487" r="0" fill-rule="evenodd"/>
   <circle id="circle889" cx="-278.25" cy="-357.69" r="0"/>
   <circle id="circle891" cx="12.663" cy="-22.859" r="0" fill-rule="evenodd"/>
  </g>
 </g>
 <circle id="circle903" cx="-1103" cy="-1279.3" r="0" fill="#5e4aa6"/>
 <g id="g913" transform="matrix(3.7796 0 0 3.7796 145.62 -38.184)" fill="#5e4aa6" stroke-width=".26458">
  <circle id="circle905" cx="-299.02" cy="-338.77" r="0"/>
  <circle id="circle907" cx="-8.1062" cy="-3.9487" r="0" fill-rule="evenodd"/>
  <circle id="circle909" cx="-278.25" cy="-357.69" r="0"/>
  <circle id="circle911" cx="12.663" cy="-22.859" r="0" fill-rule="evenodd"/>
 </g>
</svg>
