<?xml version="1.0" encoding="UTF-8"?>
<svg id="svg17" width="64" height="64" version="1.1" viewBox="0 0 16.933 16.933" xmlns="http://www.w3.org/2000/svg" xmlns:cc="http://creativecommons.org/ns#" xmlns:dc="http://purl.org/dc/elements/1.1/" xmlns:rdf="http://www.w3.org/1999/02/22-rdf-syntax-ns#" xmlns:xlink="http://www.w3.org/1999/xlink">
 <metadata id="metadata21">
  <rdf:RDF>
   <cc:Work rdf:about="">
    <dc:format>image/svg+xml</dc:format>
    <dc:type rdf:resource="http://purl.org/dc/dcmitype/StillImage"/>
    <dc:title/>
   </cc:Work>
  </rdf:RDF>
 </metadata>
 <defs id="defs7">
  <style id="style4" type="text/css"/>
  <filter id="filter1057" x="-.027" y="-.027" width="1.054" height="1.054" color-interpolation-filters="sRGB">
   <feGaussianBlur id="feGaussianBlur1059" stdDeviation="0.61875"/>
  </filter>
  <linearGradient id="linearGradient1053" x1="-127" x2="-127" y1="60" y2="5" gradientTransform="matrix(.26458 0 0 .26458 34.792 -.13493)" gradientUnits="userSpaceOnUse">
   <stop id="stop1047" stop-color="#32d7ff" offset="0"/>
   <stop id="stop1049" stop-color="#329bff" offset="1"/>
  </linearGradient>
  <style id="style872" type="text/css"/>
  <style id="style4-5" type="text/css"/>
  <style id="style6" type="text/css"/>
  <style id="style8" type="text/css"/>
  <style id="style872-0" type="text/css"/>
  <style id="style874" type="text/css"/>
  <style id="style876" type="text/css"/>
 </defs>
 <rect id="rect1055" transform="scale(.26458)" x="4.5" y="4.5" width="55" height="55" ry="15" fill="#141414" filter="url(#filter1057)" opacity=".3" stroke-linecap="round" stroke-width="2.7444"/>
 <rect id="rect1045" x="1.1906" y="1.1906" width="14.552" height="14.552" ry="3.9687" fill="url(#linearGradient1053)" stroke-linecap="round" stroke-width=".7261"/>
 <circle id="circle869" cx="-308.78" cy="-318.95" r="0" fill="#5e4aa6" stroke-width=".26458"/>
 <circle id="circle871" cx="-17.864" cy="15.866" r="0" fill="#5e4aa6" fill-rule="evenodd" stroke-width=".26458"/>
 <path id="path900" d="m7.818 3.767c0.224 0.599 0.49 1.281 0.887 1.8-0.437-0.216-0.923-0.36-1.303-0.668 0.047 0.12 0.03 0.249 0.026 0.35a5.317 5.317 0 0 1-0.952-0.377c0.08 0.15 0.093 0.31 0.073 0.45-0.326 0.03-0.679-0.072-0.98-0.126 0.138 0.125 0.203 0.29 0.259 0.456-0.322 0.056-0.654 0.115-0.98 0.146 0.138 0.093 0.24 0.228 0.319 0.357-0.253 0.212-0.573 0.403-0.834 0.563a0.638 0.638 0 0 1 0.463 0.125 9.444 9.444 0 0 1-0.563 0.88c0.164-0.039 0.312-0.073 0.49-0.073-0.062 0.352-0.106 0.72-0.238 1.052 0.147-0.107 0.306-0.161 0.47-0.218 0.157 0.267 0.173 0.703 0.231 0.938a0.498 0.498 0 0 1 0.258-0.29c1.78 1.748 4.71 1.442 4.967 4.034 0.08-1.01-0.398-1.724-0.952-2.215-0.46-0.408-2.555-1.378-2.653-1.442-1.801-1.194-1.558-2.807-0.29-3.215a2.727 2.727 0 0 1 3.015 0.946c0.176 0.223 0.427 0.631 0.662 0.807 0.445 0.334 2.036 1.109 1.409 2.03 0.545-0.14 0.961-0.53 1.098-1.077-0.427-0.183-1.07-0.57-1.019-1.112 0.062-0.026 0.13-0.02 0.199-0.02-1.436-2.5-1.819-1.63-3.261-3.955 0.18 0.644 0.572 1.438 1.044 1.879-0.783-0.47-1.291-1.313-1.845-2.025zm2.95 3.155c0.163 0.227 0.3 0.48 0.496 0.675-0.19-0.066-0.945-0.563-0.496-0.675z" fill="#fff"/>
 <circle id="circle16" cx="-319.2" cy="-341.43" r="0" fill="#5e4aa6" stroke-width=".26458"/>
 <g id="g26" transform="translate(11.16 -13.055)" fill="#5e4aa6" stroke-width=".26458">
  <circle id="circle18" cx="-299.02" cy="-338.77" r="0"/>
  <circle id="circle20" cx="-8.1062" cy="-3.9487" r="0" fill-rule="evenodd"/>
  <circle id="circle22" cx="-278.25" cy="-357.69" r="0"/>
  <circle id="circle24" cx="12.663" cy="-22.859" r="0" fill-rule="evenodd"/>
 </g>
</svg>
