<?xml version="1.0" encoding="UTF-8"?>
<svg id="svg1" width="64" height="64" version="1.1" viewBox="0 0 16.933 16.933" xmlns="http://www.w3.org/2000/svg" xmlns:xlink="http://www.w3.org/1999/xlink">
 <defs id="defs1">
  <filter id="filter1057" x="-.027" y="-.027" width="1.054" height="1.054" color-interpolation-filters="sRGB">
   <feGaussianBlur id="feGaussianBlur1059" stdDeviation="0.61875"/>
  </filter>
  <linearGradient id="linearGradient1053" x1="-127" x2="-127" y1="60" y2="5" gradientTransform="matrix(.26458 0 0 .26458 34.792 -.13493)" gradientUnits="userSpaceOnUse">
   <stop id="stop1047" stop-color="#323741" offset="0"/>
   <stop id="stop1049" stop-color="#465064" offset="1"/>
  </linearGradient>
 </defs>
 <rect id="rect1055" transform="scale(.26458)" x="4.5" y="4.5" width="55" height="55" ry="15" fill="#141414" filter="url(#filter1057)" opacity=".3" stroke-linecap="round" stroke-width="2.7444"/>
 <rect id="rect1045" x="1.1906" y="1.1906" width="14.552" height="14.552" ry="3.9687" fill="url(#linearGradient1053)" stroke-linecap="round" stroke-width=".7261"/>
 <path id="path2" d="m8.466 3.77c-0.377 0.924-0.604 1.529-1.024 2.425 0.257 0.273 0.573 0.59 1.086 0.95-0.552-0.228-0.928-0.455-1.209-0.692-0.537 1.12-1.378 2.717-3.086 5.785 1.342-0.775 2.383-1.252 3.352-1.435a2.457 2.457 0 0 1-0.063-0.574l1e-3 -0.043c0.021-0.86 0.469-1.521 0.999-1.476s0.941 0.778 0.92 1.638a2.427 2.427 0 0 1-0.054 0.462c0.959 0.188 1.988 0.664 3.312 1.428-0.261-0.48-0.494-0.913-0.717-1.326-0.35-0.272-0.716-0.625-1.461-1.008 0.512 0.133 0.88 0.287 1.165 0.459-2.262-4.212-2.445-4.772-3.221-6.593z" fill="#c8c8c8" fill-rule="evenodd"/>
</svg>
