<?xml version="1.0" encoding="UTF-8"?>
<svg id="svg1" width="64" height="64" version="1.1" xmlns="http://www.w3.org/2000/svg" xmlns:xlink="http://www.w3.org/1999/xlink">
 <defs id="defs1">
  <filter id="filter1057" x="-.027" y="-.027" width="1.054" height="1.054" color-interpolation-filters="sRGB">
   <feGaussianBlur id="feGaussianBlur1059" stdDeviation="0.61875"/>
  </filter>
  <linearGradient id="linearGradient1053" x1="-127" x2="-127" y1="60" y2="5" gradientTransform="translate(131.5 -.51)" gradientUnits="userSpaceOnUse">
   <stop id="stop1047" stop-color="#a0b9cd" offset="0"/>
   <stop id="stop934" stop-color="#96b4c8" offset=".48567"/>
   <stop id="stop1049" stop-color="#a0b9cd" offset="1"/>
  </linearGradient>
 </defs>
 <rect id="rect1055" x="4.5" y="4.5" width="55" height="55" ry="15" fill="#141414" filter="url(#filter1057)" opacity=".3" stroke-linecap="round" stroke-width="2.7444"/>
 <rect id="rect1045" x="4.5" y="4.5" width="55" height="55" ry="15" fill="url(#linearGradient1053)" stroke-linecap="round" stroke-width="2.7444"/>
 <path id="path1" d="M18 18.229c49.385 11.396 2.68 21.463 2.68 21.463-.924.148-1.557.632-2.119 1.36-.56.729-.59 1.873-.24 2.715.44 1.053 1.067 1.449 1.96 1.812.718.293 1.548.211 2.278 0 8.874-2.563 23.553-7.597 23.442-14.773-.054-3.462-7.487-10.298-28-12.577z" fill="#fff"/>
</svg>
