<?xml version="1.0" encoding="UTF-8"?>
<svg id="svg17" width="64" height="64" version="1.1" viewBox="0 0 16.933 16.933" xmlns="http://www.w3.org/2000/svg" xmlns:cc="http://creativecommons.org/ns#" xmlns:dc="http://purl.org/dc/elements/1.1/" xmlns:rdf="http://www.w3.org/1999/02/22-rdf-syntax-ns#" xmlns:xlink="http://www.w3.org/1999/xlink">
 <metadata id="metadata21">
  <rdf:RDF>
   <cc:Work rdf:about="">
    <dc:format>image/svg+xml</dc:format>
    <dc:type rdf:resource="http://purl.org/dc/dcmitype/StillImage"/>
    <dc:title/>
   </cc:Work>
  </rdf:RDF>
 </metadata>
 <defs id="defs7">
  <linearGradient id="d" x1="399.57" x2="399.57" y1="545.8" y2="517.8" gradientTransform="matrix(.56696 0 0 .56696 -218.64 -293.03)" gradientUnits="userSpaceOnUse">
   <stop id="stop851-3" stop-color="#3889e9" offset="0"/>
   <stop id="stop853" stop-color="#5ea5fb" offset="1"/>
  </linearGradient>
  <linearGradient id="linearGradient956" x1="399.57" x2="399.57" y1="545.8" y2="517.8" gradientTransform="matrix(.56696 0 0 .56696 -218.64 -293.16)" gradientUnits="userSpaceOnUse" xlink:href="#d"/>
  <style id="style4" type="text/css"/>
  <filter id="filter1057" x="-.027" y="-.027" width="1.054" height="1.054" color-interpolation-filters="sRGB">
   <feGaussianBlur id="feGaussianBlur1059" stdDeviation="0.61875"/>
  </filter>
  <linearGradient id="linearGradient1053" x1="-127" x2="-127" y1="60" y2="5" gradientTransform="matrix(.26458 0 0 .26458 34.792 -.13493)" gradientUnits="userSpaceOnUse">
   <stop id="stop1047" stop-color="#32d7ff" offset="0"/>
   <stop id="stop1049" stop-color="#329bff" offset="1"/>
  </linearGradient>
  <style id="style872" type="text/css"/>
  <style id="style4-5" type="text/css"/>
  <style id="style6" type="text/css"/>
  <style id="style8" type="text/css"/>
  <style id="style872-0" type="text/css"/>
  <style id="style874" type="text/css"/>
  <style id="style876" type="text/css"/>
 </defs>
 <rect id="rect1055" transform="scale(.26458)" x="4.5" y="4.5" width="55" height="55" ry="15" fill="#141414" filter="url(#filter1057)" opacity=".3" stroke-linecap="round" stroke-width="2.7444"/>
 <rect id="rect1045" x="1.1906" y="1.1906" width="14.552" height="14.552" ry="3.9687" fill="url(#linearGradient1053)" stroke-linecap="round" stroke-width=".7261"/>
 <circle id="circle870" cx="-308.78" cy="-318.95" r="0" fill="#5e4aa6" stroke-width=".26458"/>
 <circle id="circle872" cx="-17.864" cy="15.866" r="0" fill="#5e4aa6" fill-rule="evenodd" stroke-width=".26458"/>
 <circle id="circle873" cx="8.4665" cy="8.3344" r="7.9376" fill-opacity="0" stroke-width=".41578"/>
 <circle id="circle875" cx="8.4665" cy="8.3344" r="0" fill="url(#linearGradient956)" stroke-width=".41578"/>
 <circle id="circle910" cx="8.4665" cy="8.3344" r="0" fill="url(#linearGradient956)" stroke-width=".41578"/>
 <path id="path936" d="m9.596 4.233a3.104 3.104 0 0 0-3.01 2.355 3.104 3.104 0 0 0-2.353 3.008v3.104h3.105a3.104 3.104 0 0 0 3.01-2.354 3.104 3.104 0 0 0 2.352-3.008v-3.105zm0 0.444h2.66v2.66a2.661 2.661 0 0 1-1.827 2.524 3.104 3.104 0 0 0 0.013-0.265 3.104 3.104 0 0 0-3.104-3.106 3.104 3.104 0 0 0-0.268 0.013 2.661 2.661 0 0 1 2.526-1.827zm-2.258 2.258a2.661 2.661 0 0 1 2.66 2.66 2.661 2.661 0 0 1-0.03 0.374 2.661 2.661 0 0 1-0.372 0.03 2.661 2.661 0 0 1-2.661-2.661 2.661 2.661 0 0 1 0.03-0.374 2.661 2.661 0 0 1 0.373-0.03zm-0.834 0.137a3.104 3.104 0 0 0-0.013 0.266 3.104 3.104 0 0 0 3.105 3.104 3.104 3.104 0 0 0 0.267-0.013 2.661 2.661 0 0 1-2.525 1.827h-2.66v-2.66a2.661 2.661 0 0 1 1.826-2.524z" fill="#fff"/>
 <circle id="circle869" cx="-329.51" cy="-322.16" r="0" fill="#5e4aa6" stroke-width=".26458"/>
 <circle id="circle871" cx="-38.598" cy="12.663" r="0" fill="#5e4aa6" fill-rule="evenodd" stroke-width=".26458"/>
 <circle id="circle16" cx="-339.93" cy="-344.63" r="0" fill="#5e4aa6" stroke-width=".26458"/>
 <g id="g26" transform="translate(-9.5745 -16.258)" fill="#5e4aa6" stroke-width=".26458">
  <circle id="circle18" cx="-299.02" cy="-338.77" r="0"/>
  <circle id="circle20" cx="-8.1062" cy="-3.9487" r="0" fill-rule="evenodd"/>
  <circle id="circle22" cx="-278.25" cy="-357.69" r="0"/>
  <circle id="circle24" cx="12.663" cy="-22.859" r="0" fill-rule="evenodd"/>
 </g>
</svg>
