<?xml version="1.0" encoding="UTF-8" standalone="no"?>
<svg
   id="svg10"
   width="512"
   height="512"
   version="1.1"
   viewBox="0 0 64 64"
   sodipodi:docname="distributor-logo-zorin.svg"
   inkscape:version="1.4.4 (dcaf3e7d9e, 2026-05-05)"
   xmlns:inkscape="http://www.inkscape.org/namespaces/inkscape"
   xmlns:sodipodi="http://sodipodi.sourceforge.net/DTD/sodipodi-0.dtd"
   xmlns="http://www.w3.org/2000/svg"
   xmlns:svg="http://www.w3.org/2000/svg"
   xmlns:rdf="http://www.w3.org/1999/02/22-rdf-syntax-ns#"
   xmlns:cc="http://creativecommons.org/ns#"
   xmlns:dc="http://purl.org/dc/elements/1.1/">
  <sodipodi:namedview
     id="namedview1"
     pagecolor="#ffffff"
     bordercolor="#999999"
     borderopacity="1"
     inkscape:showpageshadow="2"
     inkscape:pageopacity="0"
     inkscape:pagecheckerboard="0"
     inkscape:deskcolor="#d1d1d1"
     inkscape:zoom="2.3242188"
     inkscape:cx="255.78487"
     inkscape:cy="256"
     inkscape:window-width="2560"
     inkscape:window-height="1403"
     inkscape:window-x="0"
     inkscape:window-y="0"
     inkscape:window-maximized="1"
     inkscape:current-layer="svg10" />
  <metadata
     id="metadata16">
    <rdf:RDF>
      <cc:Work
         rdf:about="">
        <dc:format>image/svg+xml</dc:format>
        <dc:type
           rdf:resource="http://purl.org/dc/dcmitype/StillImage" />
        <dc:title />
      </cc:Work>
    </rdf:RDF>
  </metadata>
  <defs
     id="defs14">
    <style
       id="style843"
       type="text/css" />
    <style
       id="style845"
       type="text/css" />
    <filter
       id="filter1057"
       x="-0.058079999"
       y="-0.058079999"
       width="1.11616"
       height="1.11616"
       color-interpolation-filters="sRGB">
      <feGaussianBlur
         id="feGaussianBlur847"
         stdDeviation="1.331" />
    </filter>
    <linearGradient
       id="linearGradient1053"
       x1="-127"
       x2="-127"
       y1="5"
       y2="60"
       gradientTransform="translate(131.5,-0.51)"
       gradientUnits="userSpaceOnUse">
      <stop
         id="stop850"
         stop-color="#32d7ff"
         offset="0" />
      <stop
         id="stop852"
         stop-color="#329bff"
         offset="1" />
    </linearGradient>
    <style
       id="style855"
       type="text/css" />
    <style
       id="style857"
       type="text/css" />
    <style
       id="style859"
       type="text/css" />
    <style
       id="style861"
       type="text/css" />
    <style
       id="style863"
       type="text/css" />
    <style
       id="style865"
       type="text/css" />
    <style
       id="style867"
       type="text/css" />
    <filter
       inkscape:collect="always"
       style="color-interpolation-filters:sRGB"
       id="filter1"
       x="-0.071369828"
       y="-0.079019256"
       width="1.1427397"
       height="1.1580385">
      <feGaussianBlur
         inkscape:collect="always"
         stdDeviation="1.8437494"
         id="feGaussianBlur1" />
    </filter>
  </defs>
  <rect
     id="rect871"
     x="4.5"
     y="5.75"
     width="55"
     height="55"
     ry="15"
     fill="#141414"
     filter="url(#filter1057)"
     opacity=".3"
     stroke-linecap="round"
     stroke-width="2.7444"
     style="opacity:0.15;filter:url(#filter1057)" />
  <rect
     id="rect873"
     x="4.5"
     y="4.5"
     width="55"
     height="55"
     ry="15"
     fill="url(#linearGradient1053)"
     stroke-linecap="round"
     stroke-width="2.7444" />
  <g
     id="g8"
     transform="matrix(.64286 0 0 .64286 11.429 11.429)"
     fill="#fff">
    <path
       id="path4"
       d="m 19.154142,5.9452706 c -1.7108,0 -3.809718,1.2268079 -4.663988,2.7260079 L 6.5354371,22.629061 10.347974,15.944303 h 43.305092 l 4.96097,8.703249 -37.21126,19.297006 h 36.811739 l 4.145218,-7.273785 c 0.85427,-1.4992 0.85427,-3.952436 0,-5.451636 L 49.509747,8.6712785 c -0.8542,-1.4992 -2.952808,-2.7260079 -4.663608,-2.7260079 z M 5.785766,23.944593 1.6401681,31.219137 c -0.85427004,1.4992 -0.85427004,3.952436 0,5.451636 l 12.8499859,22.54786 c 0.8543,1.4992 2.953188,2.725628 4.663988,2.725628 h 25.691997 c 1.7108,0 3.809458,-1.226428 4.663608,-2.725628 l 8.072067,-14.163999 -3.929507,6.889834 H 10.347215 L 5.3866249,43.241599 42.597506,23.944593 Z"
       style="fill:#000000;fill-opacity:1;filter:url(#filter1);opacity:0.35" />
    <path
       id="path4-7"
       d="m 19.154142,4.0008346 c -1.7108,0 -3.809718,1.2268079 -4.663988,2.7260079 L 6.535437,20.684626 10.347974,13.999868 h 43.305092 l 4.96097,8.703249 -37.21126,19.297006 h 36.811739 l 4.145218,-7.273785 c 0.85427,-1.4992 0.85427,-3.952436 0,-5.451636 L 49.509747,6.7268425 c -0.8542,-1.4992 -2.952808,-2.7260079 -4.663608,-2.7260079 z M 5.785766,22.000158 1.640168,29.274702 c -0.85427,1.4992 -0.85427,3.952436 0,5.451636 l 12.849986,22.54786 c 0.8543,1.4992 2.953188,2.725628 4.663988,2.725628 h 25.691997 c 1.7108,0 3.809458,-1.226428 4.663608,-2.725628 l 8.072067,-14.163999 -3.929507,6.889834 H 10.347215 L 5.386625,41.297164 42.597506,22.000158 Z" />
  </g>
</svg>
