<?xml version="1.0" encoding="UTF-8"?>
<svg id="svg1" width="64" height="64" version="1.1" viewBox="0 0 16.933 16.933" xmlns="http://www.w3.org/2000/svg">
 <defs id="defs1">
  <linearGradient id="linearGradient1053-6" x1="-127" x2="-127" y1="60" y2="5" gradientTransform="matrix(.26458 0 0 .26458 34.792 -.1351)" gradientUnits="userSpaceOnUse">
   <stop id="stop1" stop-color="#32507d" offset="0"/>
   <stop id="stop2" stop-color="#2878b9" stop-opacity=".99608" offset="1"/>
  </linearGradient>
  <filter id="filter1057-3" x="-.027" y="-.027" width="1.054" height="1.054" color-interpolation-filters="sRGB">
   <feGaussianBlur id="feGaussianBlur1" stdDeviation="0.61875"/>
  </filter>
 </defs>
 <rect id="rect8" transform="matrix(.26458 0 0 .26458 -6.0163e-5 -6.0163e-5)" x="4.5" y="4.5" width="55" height="55" ry="15" fill="#141414" filter="url(#filter1057-3)" opacity=".3" stroke-linecap="round" stroke-width="2.7444"/>
 <rect id="rect9" x="1.1905" y="1.1905" width="14.552" height="14.552" ry="3.9687" fill="url(#linearGradient1053-6)" stroke-linecap="round" stroke-width=".72611"/>
 <path id="path1" d="M8.665 4.353c-.944.03 2.513 4.66-.149 4.365 2.22.597 2.728-2.186 2.275-3.547-.45-1.348-.683-.507-2.021-.806a.421.421 0 0 0-.105-.012zm-2.646.645c-1.459-.002-.707.474-1.414 1.618-.675 1.092 5.333-.864 4.185 1.58C10.06 6.33 7.493 5 6.02 4.998zm1.027 2.09c-1.167-.001-2.342 1.286-2.67 2.264-.454 1.347.245.8 1.146 1.806.861.96.802-5.192 2.84-3.377-.403-.492-.859-.691-1.316-.692zm5.059.219c-.725-.055-3.695 3.664-4.185 1.32.1 2.234 2.983 1.844 4.176 1.005 1.182-.832.286-.787.165-2.116-.012-.139-.067-.202-.156-.21zm-4.28.74c-2.158.785-.885 3.326.306 4.168 1.18.835.86.02 2.123-.5 1.207-.499-4.837-2.346-2.43-3.667z" fill="#fff" fill-rule="evenodd"/>
</svg>
