<?xml version="1.0" encoding="UTF-8"?>
<svg id="svg3" width="64" height="64" version="1.1" xmlns="http://www.w3.org/2000/svg">
 <defs id="defs3">
  <filter id="filter1057" x="-.027" y="-.027" width="1.054" height="1.054" color-interpolation-filters="sRGB">
   <feGaussianBlur id="feGaussianBlur880" stdDeviation="0.61875"/>
  </filter>
  <linearGradient id="linearGradient1053" x1="-127" x2="-127" y1="60" y2="5" gradientTransform="translate(203.93 -.054156)" gradientUnits="userSpaceOnUse">
   <stop id="stop883" stop-color="#1d2123" offset="0"/>
   <stop id="stop885" stop-color="#33393e" stop-opacity=".99608" offset="1"/>
  </linearGradient>
 </defs>
 <g id="g896" transform="translate(-72.44)">
  <rect id="rect890" x="76.935" y="4.9558" width="55" height="55" ry="15" fill="#141414" filter="url(#filter1057)" opacity=".3" stroke-linecap="round" stroke-width="2.7444"/>
  <rect id="rect892" x="76.935" y="4.9558" width="55" height="55" ry="15" fill="url(#linearGradient1053)" stroke-linecap="round" stroke-width="2.7444"/>
  <circle id="circle894" cx="104.44" cy="32" r="30.001" fill-opacity="0" stroke-width="1.5715"/>
 </g>
 <g id="g4" transform="matrix(.80377 0 0 .80377 6.2793 6.2853)">
  <path id="path1" d="m47.501 36.954c1.422 9.935-5.223 22.371-8.031 23.025-1.302 0.279-15.526-8.14-17.239-17.9-0.16-0.91-4.249-7.288-2.375-5.296 2.665 2.832-2.754-5.598-1.547-8.193 1.78-3.826 11.657-4.387 16.283-4.387 4.222 0 9.171-1.918 11.291 0.495 1.778 2.024 1.003 7.956 1.618 12.256z" fill="#fec786"/>
  <g id="g3" fill="#4f4f4f">
   <path id="path2" d="m35 51.732c0-0.277 0.6-0.623 2.472-1.419 0.862-0.366 1.158-0.4 1.357-0.16 0.14 0.168 0.208 0.365 0.15 0.435-0.097 0.116-3.652 1.412-3.877 1.412-0.056 0-0.102-0.12-0.102-0.269zm0.929-3.355c-1.017-0.435-1.3-1.087-0.337-0.776 1.547 0.5 1.598 0.417 1.482-2.39-0.073-1.752 3e-3 -2.562 0.223-2.387 0.183 0.148 0.39 1.549 0.46 3.118 0.137 3.132 0.056 3.24-1.828 2.435zm-21.311-9.697c-0.954-0.651-1.734-1.236-1.732-1.3 2e-3 -0.063 0.497-0.518 1.1-1.011 1.044-0.854 1.184-1.606 1.182-2.197-2e-3 -0.32-3.873-5.666-6.29-8.686-0.934-1.169-1.766-2.31-1.847-2.537-0.092-0.256 0.025-0.638 0.31-1.01 0.954-1.246 2.57-3.232 3.462-4.94 0.885-1.694 1.947-3.085 2.13-2.79 0.263 0.428 0.53 0.16 2.63-2.651 2.113-2.826 3.844-5.466 4.267-5.466 0.478 0 0.28 0.475-0.628 1.508-1.622 1.731-2.127 4.122-2.13 5.685-0.143 2.949 2.256 5.073 4.868 6.274 3.344 0.788 6.457 0.435 7.045-2.358 0.488-2.322-1.154-3.746-3.056-4.318-0.464 0.212-1.81 1.635-2.239 2.99-0.149 0.474-0.579 0.299-0.579-0.235 0-1.112 1.254-3.945 1.919-5.155 0.933-1.696 1.952-1.779 2.788-1.611 0.467 0.094 0.822-0.198 1.246-0.535l0.593-0.467c2.066 1.52 4.38 2.635 6.585 3.919 2.474 1.759 4.856 2.752 4.882 3.003 0.015 0.148 5e-3 0.156-0.022 1.235-0.049 1.871-0.029 1.962 0.428 1.962 0.928 0 1.861-0.52 3.099-2.013 2.167-2.617 2.447-2.641 2.447-4.837 0.157-1.681-2.059-5.282-3.447-3.932-0.582 0.583-1.257 2.636-1.047 3.184 0.141 0.37 1.031 0.625 1.523 0.436 0.515-0.198 0.432 0.21-0.15 0.74-0.764 0.695-1.597 0.814-2.21 0.317-0.757-0.614-0.961-3.055-0.386-4.621 0.546-1.488 2.496-3.068 2.905-3.225 0.461-0.178 0.979 0.192 2.822 2.615 2.97 4.467 6.209 8.467 9.106 12.734 0.36 0.528 0.71 1.3 0.778 1.718 0.112 0.694-0.023 0.925-1.608 2.74-2.61 2.99-4.367 5.416-4.367 6.029 0 0.66 1.351 1.196 2.535 1.378 0.858 0.132 1.423 0.425 1.423 0.738-1.407 1.92-6.964 9.767-7.633 9.232-0.066-0.106-0.175-1.367-0.243-2.803-0.513-3.89-0.698-5.986-1.152-9.782-0.136-0.74-0.157-0.753-1.061-0.627-2.218 0.309-4.947 0.48-7.128 0.843-1.76 0.293-3.301 1.523-4.019 1.139-0.735-0.394-4.606-1.093-6.905-1.38-6.783-0.85-5.67-0.706-5.67 0.128l1.486 12.03s0.713 3.23 0.117 3.23c-3.235-1.234-5.608-3.586-8.127-5.322z"/>
   <circle id="circle2" cx="31" cy="42" r="2"/>
   <path id="path3" d="m25.55 38.001a0.777 0.777 0 0 0-0.266 0.034c-0.11 0.07-0.217 0.482-0.241 0.916l-0.043 0.79 2.758 0.133c1.553 0.132 3.28 0.168 4.739 0.068 0.513 0 0.57-0.04 0.449-0.301-0.328-0.7-0.848-1.104-1.468-1.14-0.34-0.02-1.828-0.162-3.306-0.315-1.27-0.132-2.19-0.196-2.622-0.186zm11.93-2.001c-0.196 0-0.316 0.02-0.344 0.042-0.107 0.098-0.162 0.575-0.124 1.058 0.062 0.797 0.117 0.874 0.61 0.841 1.374 0.07 2.759 0.058 4.157 0.058 1.097-0.044 2.449-0.74 3.221-1.117 0-0.112-0.103-0.204-0.231-0.204-0.129 0-1.856-0.184-3.837-0.407-1.587-0.18-2.865-0.278-3.452-0.27z"/>
   <circle id="circle3" cx="39" cy="40" r="2"/>
  </g>
 </g>
</svg>
