<?xml version="1.0" encoding="UTF-8" standalone="no"?>
<svg
   width="512"
   height="512"
   version="1.1"
   viewBox="0 0 64 64"
   id="svg15"
   sodipodi:docname="fonts.svg"
   inkscape:version="1.4.4 (dcaf3e7d9e, 2026-05-05)"
   xmlns:inkscape="http://www.inkscape.org/namespaces/inkscape"
   xmlns:sodipodi="http://sodipodi.sourceforge.net/DTD/sodipodi-0.dtd"
   xmlns="http://www.w3.org/2000/svg"
   xmlns:svg="http://www.w3.org/2000/svg">
  <sodipodi:namedview
     id="namedview15"
     pagecolor="#ffffff"
     bordercolor="#111111"
     borderopacity="1"
     inkscape:showpageshadow="0"
     inkscape:pageopacity="0"
     inkscape:pagecheckerboard="1"
     inkscape:deskcolor="#d1d1d1"
     inkscape:zoom="1"
     inkscape:cx="153"
     inkscape:cy="241"
     inkscape:window-width="2560"
     inkscape:window-height="1371"
     inkscape:window-x="0"
     inkscape:window-y="0"
     inkscape:window-maximized="1"
     inkscape:current-layer="svg15"
     showguides="false" />
  <defs
     id="defs9">
    <linearGradient
       id="linearGradient902"
       x1="136"
       x2="189"
       y1="30.5"
       y2="30.5"
       gradientTransform="matrix(1 0 0 1 -130.5 .4991)"
       gradientUnits="userSpaceOnUse">
      <stop
         stop-color="#543c2c"
         offset="0"
         id="stop1" />
      <stop
         stop-color="#766356"
         offset=".076733"
         id="stop2" />
      <stop
         stop-color="#d1d1c7"
         offset=".15604"
         id="stop3" />
      <stop
         stop-color="#d3cfc5"
         offset=".92868"
         id="stop4" />
      <stop
         stop-color="#7e5a4e"
         offset="1"
         id="stop5" />
    </linearGradient>
    <linearGradient
       id="linearGradient880"
       x1="150"
       x2="150"
       y1="9"
       y2="50.983"
       gradientTransform="matrix(1 0 0 1 -130.5 .4991)"
       gradientUnits="userSpaceOnUse">
      <stop
         stop-color="#66cdff"
         offset="0"
         id="stop6"
         style="stop-color:#dc8add;stop-opacity:1" />
      <stop
         stop-color="#0080cc"
         offset="1"
         id="stop7"
         style="stop-color:#9141ac;stop-opacity:1" />
    </linearGradient>
    <linearGradient
       id="linearGradient59957"
       x1="21.923"
       x2="21.923"
       y1="16.221"
       y2="2.7081"
       gradientTransform="matrix(1.9248 0 0 1.9248 -1.6767 -.35221)"
       gradientUnits="userSpaceOnUse">
      <stop
         stop-color="#99deff"
         offset="0"
         id="stop8" />
      <stop
         stop-color="#fff"
         offset="1"
         id="stop9" />
    </linearGradient>
  </defs>
  <g
     stroke-opacity="0.95294"
     id="g10"
     style="mix-blend-mode:exclusion">
    <rect
       x="4.4986"
       y="4.4990001"
       width="55.000999"
       height="55.000999"
       ry="13"
       fill="#0070b2"
       stroke-width="0.31428"
       id="rect9"
       style="display:inline;fill:#9141ac" />
    <rect
       x="5.4995999"
       y="5.4991002"
       width="53.000999"
       height="51.001999"
       ry="10"
       fill="url(#linearGradient902)"
       stroke-width="0.29708"
       id="rect10"
       style="display:inline" />
    <path
       d="m 17.499,4.499 c -7.202,0 -13,5.7983 -13,13 v 26.003 c 0,4.432 3.5681,8.0003 8.0003,8.0003 h 39.002 c 4.432,0 8.0003,-3.5681 8.0003,-8.0003 V 17.499 c 0,-7.202 -5.7983,-13 -13,-13 z"
       fill="url(#linearGradient880)"
       stroke-width="0.31428"
       id="path10"
       style="display:inline" />
  </g>
  <path
     d="m 9.4988,7.2532 c -1.13,0.88216 -2.1086,1.9473 -2.8946,3.1504 -0.031201,0.04798 -0.0592,0.09806 -0.089803,0.14649 -0.2161,0.34062 -0.41731,0.69148 -0.60156,1.0528 -0.045,0.08866 -0.085903,0.17971 -0.1289,0.26953 -0.15437,0.32083 -0.29574,0.64941 -0.42384,0.9844 -0.048802,0.12807 -0.095802,0.25672 -0.14063,0.38673 -0.10626,0.307 -0.19783,0.62038 -0.28126,0.93753 -0.039402,0.15069 -0.081103,0.30033 -0.11523,0.45314 -0.072602,0.3232 -0.12579,0.65429 -0.17383,0.98636 -0.020599,0.14288 -0.050503,0.28337 -0.0664,0.42774 -0.052869,0.47687 -0.084043,0.9596 -0.084043,1.4512 v 26.003 c 0,3.3689 2.0645,6.2333 5,7.4163 z"
     opacity="0.5"
     id="path11"
     style="fill:#813d9c;stroke-width:0.31428;stroke-opacity:0.95294" />
  <path
     d="m 4.4986,42.501 v 1.002 c 0,4.432 3.5681,8.0003 8.0003,8.0003 h 39.002 c 4.432,0 8.0003,-3.5681 8.0003,-8.0003 v -1.002 c 0,4.432 -3.5681,8.0003 -8.0003,8.0003 h -39.002 c -4.432,0 -8.0003,-3.5681 -8.0003,-8.0003 z"
     id="path12"
     style="fill:#613583;stroke-width:0.31428;stroke-opacity:0.95294" />
  <path
     d="m 4.4986,45.499 v 1.002 c 0,7.202 5.7983,13 13,13 h 29.002 c 7.202,0 13,-5.7983 13,-13 v -1.002 c 0,7.202 -5.7983,13 -13,13 h -29.002 c -7.202,0 -13,-5.7983 -13,-13 z"
     id="path13"
     style="fill:#613583;stroke-width:0.31428;stroke-opacity:0.95294" />
  <path
     d="m 58.495,47.43 c -0.07177,0.05953 -0.149393,0.11358 -0.222441,0.1719 -2.281567,3.3923 -7.124929,4.2736 -12.193415,4.2736 H 16.151248 c -4.17741,0 -8.630029,-0.61642 -10.9295197,-3.0606 -0.010928,0.02306 -0.023982,0.06202 -0.035673,0.08788 2.2880193,2.4771 6.7652207,3.0997 10.9643437,3.0997 h 29.927896 c 5.092863,0 9.953944,-0.92778 12.228238,-4.3397 -0.02632,0.05907 -0.0564,0.11566 -0.08393,0.17382 -2.153231,3.7223 -6.942513,5.0393 -12.144252,5.0393 h -29.92789 c -4.385635,0 -8.8870081,-0.98617 -11.0360399,-3.7989 -0.010638,0.02608 -0.01876,0.04853 -0.029375,0.07616 2.1341805,2.8493 6.6560379,3.8495 11.0657419,3.8495 h 29.927896 c 5.036735,0 9.676379,-1.2706 11.926092,-4.7109 -2.094646,3.8522 -6.706839,5.584 -11.926092,5.584 H 16.150788 c -4.636877,0 -9.1649824,-1.3523 -11.1282195,-4.5665 -0.00978,0.02948 -0.011753,0.0635 -0.020985,0.09373 1.9523804,3.2384 6.4965655,4.5998 11.1497285,4.5998 h 29.927895 c 5.218741,0 9.828169,-1.7573 11.926092,-5.5938 -2.049169,4.0831 -6.649482,6.4669 -11.926092,6.4669 H 16.151312 c -4.703862,0 -9.2501986,-2.0697 -11.1650923,-5.4082 -0.00871,0.03061 -0.013076,0.06248 -0.020985,0.09377 1.9028078,3.3586 6.4656333,5.4415 11.1845523,5.4415 h 29.927895 c 5.137417,0 9.630698,-2.2718 11.758119,-6.1524 -2.049579,4.153 -6.523708,7.0255 -11.758119,7.0255 H 16.149787 c -4.784776,0 -9.3205631,-2.5483 -11.1743104,-5.9884 -0.024509,-0.04547 -0.034488,-0.09657 -0.048262,-0.1465 -0.0044,0.02381 -0.011068,0.04641 -0.014687,0.0703 0.015922,0.06966 0.029406,0.1409 0.062953,0.20312 1.8540546,3.4402 6.3901484,5.9884 11.1743104,5.9884 h 29.927895 c 5.711496,0 10.518805,-3.4201 12.256917,-8.1915 0.04278,-0.10424 0.0864,-0.20826 0.125929,-0.31446 0.01084,-0.02192 0.02051,-0.04464 0.03136,-0.06641 z"
     opacity="0.15"
     stroke-width="1.03653"
     id="path14" />
  <path
     id="path1"
     style="fill:#613583;fill-opacity:1;stroke-width:0.824;stroke-linecap:square;stroke-linejoin:bevel;paint-order:markers fill stroke"
     d="m 4.4980469,43.503906 v 3.779297 l 0.2421875,1.738281 1.4433594,3.904297 3.3144531,3.800781 0.00781,-0.939453 C 9.4598544,55.798679 9.3510444,55.628768 9.3046875,55.628908 8.7020815,55.105471 8.21875,54.511535 8.21875,53.234377 c 0,-1.277158 0.5184877,-2.367187 1.1484375,-2.367187 0.4883296,0.178444 0.5205325,0.01758 0.1308594,-0.109378 L 8.5136719,50.09375 5.0742188,46.496094 Z"
     sodipodi:nodetypes="cccccccsccccc" />
  <path
     d="m 39.837365,43.199059 a 4.6680283,3.6073992 0 0 1 -2.727443,-1.167648 c -1.544744,-1.290755 -2.075751,-3.271655 -1.481989,-5.539802 0.212402,-0.80579 0.497215,-1.417592 1.018566,-2.197269 0.545489,-0.809519 1.081323,-1.354173 1.988861,-2.018203 1.10063,-0.805789 2.365391,-1.346713 3.84738,-1.656344 0.820648,-0.171604 3.113629,-0.175334 3.900484,-0.01123 2.191607,0.466314 3.755662,1.481012 3.379131,2.189807 -0.14482,0.268596 -0.395841,0.391704 -0.772373,0.391704 -0.255848,0 -0.429632,-0.07087 -0.931675,-0.380512 a 5.203862,4.0214854 0 0 0 -1.959896,-0.850553 c -2.486076,-0.58569 -5.310064,0.201446 -7.028592,1.962246 -1.834385,1.872712 -2.355738,4.532564 -1.245451,6.341859 0.304121,0.496157 1.013738,1.100499 1.559228,1.32806 1.873004,0.790868 4.354252,-0.09327 5.633493,-1.999549 a 7.8685483,6.0807244 0 0 0 0.917193,-2.107738 c 0.337913,-1.305676 0.88823,-3.003057 1.062013,-3.267923 0.178611,-0.279787 0.400668,-0.387972 0.79651,-0.387972 a 0.77237284,0.59688094 0 0 1 0.782026,0.421547 c 0.1062,0.249945 0.08207,0.343206 -0.535834,2.350218 -1.197177,3.864805 -0.772373,5.260013 1.568884,5.15929 a 2.5826217,1.9958205 0 0 0 1.230969,-0.235022 c 0.617899,-0.238752 0.999257,-0.261135 1.255106,-0.0746 0.337912,0.242483 0.347567,0.604342 0.02897,0.917704 -0.226885,0.223831 -1.028222,0.540922 -1.689565,0.671491 -0.74341,0.149221 -2.041962,0.10819 -2.703305,-0.08955 a 3.1377646,2.4248289 0 0 1 -1.921279,-1.604077 l -0.144819,-0.365588 -0.270331,0.283519 c -1.028221,1.081846 -2.264018,1.693648 -3.842555,1.902557 a 3.948756,3.0515539 0 0 1 -1.713699,0.02985 z M 11.645756,42.109751 v -0.902782 l 0.521352,-0.04476 a 8.9305609,6.9014357 0 0 1 0.878573,-0.04104 c 0.357223,0 0.362051,-0.0037 0.526179,-0.343207 l 2.283329,-4.566139 2.510211,-5.02499 0.391014,-0.794598 3.514296,0.0373 1.370962,2.727 2.669513,5.334624 c 0.796509,1.596657 1.341998,2.603894 1.414407,2.611353 0.06759,0.0075 0.482733,0.03357 0.936503,0.05595 l 0.820645,0.04477 v 1.809297 h -8.076123 v -1.801834 l 0.646863,-0.04477 a 13.082064,10.109672 0 0 1 0.965466,-0.04477 c 0.178611,0 0.323432,-0.01123 0.323432,-0.02611 0,-0.02612 -0.777201,-1.738417 -0.883402,-1.939864 -0.05309,-0.104459 -0.265504,-0.111919 -2.732269,-0.111919 -2.461939,0 -2.679168,0.01123 -2.732269,0.111919 l -0.424806,0.925166 -0.424805,0.928896 c -0.04828,0.100728 0.0097,0.11192 0.482733,0.11192 0.28964,0 0.786855,0.01865 1.100632,0.04477 l 0.564797,0.04477 v 1.801833 h -6.642405 z m 10.016709,-4.659403 c 0,-0.06715 -1.873004,-4.028946 -1.926103,-4.073711 -0.02897,-0.02612 -0.463425,0.850555 -0.970295,1.951054 l -0.95581,2.074161 c -0.02897,0.06341 0.386187,0.08207 1.906795,0.08207 1.066839,0 1.945413,-0.01123 1.945413,-0.0373 z m -7.98923,-13.344018 5.232825,-10.986341 0.690308,-1.447436 1.993688,0.03731 2.181954,4.581061 c 2.601931,5.465191 3.774972,7.938516 3.774972,7.972093 0,0.01123 -0.473079,0.02611 -1.042703,0.02611 h -1.042704 l -0.43446,-0.958741 C 24.785749,22.804384 24.414045,21.987403 24.206469,21.5099 l -0.386187,-0.861748 -6.483103,0.03731 -0.806165,1.801835 -0.806164,1.805564 h -2.138507 l 0.08689,-0.179065 z m 9.461567,-4.916807 A 282.0947,217.99957 0 0 0 20.614935,13.64599 c -0.02897,-0.02611 -0.06758,-0.0373 -0.08207,-0.01123 -0.01448,0.01123 -0.584107,1.268371 -1.269587,2.790419 l -1.288898,2.842646 c -0.02897,0.06341 0.521352,0.08207 2.587449,0.08207 h 2.626067 z m 12.068325,4.719088 v -0.38051 l 0.497215,-0.10819 c 0.675827,-0.14176 1.062013,-0.417817 1.399925,-0.984854 0.144821,-0.249944 1.351654,-2.775496 2.688825,-5.606949 l 2.413664,-5.15183 h 3.050873 l 2.3847,5.118253 c 1.313035,2.816534 2.534348,5.357007 2.712961,5.647987 0.381358,0.622994 0.670998,0.831902 1.346825,0.977393 l 0.492387,0.10819 v 0.757293 H 44.452291 V 23.52064 l 0.424805,-0.07087 c 0.917194,-0.149223 1.226143,-0.399164 1.148905,-0.910244 A 15.515039,11.989846 0 0 0 45.523959,21.15924 l -0.448942,-1.063196 -5.382472,-0.03731 -0.444115,1.089307 c -0.246194,0.596881 -0.468251,1.24226 -0.492388,1.428785 -0.04345,0.309631 -0.02415,0.354398 0.202749,0.529731 0.226884,0.179065 0.506868,0.264866 1.139248,0.36559 0.222058,0.0373 0.231713,0.05595 0.231713,0.425279 v 0.387972 h -5.126625 z m 9.398812,-4.775046 -1.115113,-2.566588 A 89.884889,69.462019 0 0 0 42.376539,14.101113 363.30487,280.75787 0 0 0 40.160795,19.1746 c 0,0.02612 1.013739,0.04104 2.239881,0.04104 1.757148,0 2.230227,-0.01865 2.201263,-0.07833 z"
     fill="#343434"
     id="path9"
     style="fill:#ffffff;fill-opacity:1;stroke-width:4.24363" />
</svg>
