<?xml version="1.0" encoding="UTF-8"?>
<svg id="svg6" width="512" height="512" version="1.1" viewBox="0 0 33.867 33.867" xmlns="http://www.w3.org/2000/svg" xmlns:cc="http://creativecommons.org/ns#" xmlns:dc="http://purl.org/dc/elements/1.1/" xmlns:rdf="http://www.w3.org/1999/02/22-rdf-syntax-ns#">
 <metadata id="metadata156">
  <rdf:RDF>
   <cc:Work rdf:about="">
    <dc:format>image/svg+xml</dc:format>
    <dc:type rdf:resource="http://purl.org/dc/dcmitype/StillImage"/>
   </cc:Work>
  </rdf:RDF>
 </metadata>
 <defs id="defs2">
  <linearGradient id="linearGradient1632" x1="132.21" x2="132.21" y1="42.152" y2="70.68" gradientTransform="matrix(.97573 0 0 .97573 -111.77 -37.203)" gradientUnits="userSpaceOnUse">
   <stop id="stop1626" stop-color="#ffa348" offset="0"/>
   <stop id="stop1628" stop-color="#613583" offset="1"/>
  </linearGradient>
  <filter id="filter1" x="-.08125" y="-.069643" width="1.1625" height="1.1393" color-interpolation-filters="sRGB">
   <feGaussianBlur id="feGaussianBlur1" stdDeviation="0.59885781"/>
  </filter>
 </defs>
 <rect id="rect849" x="2.4065" y="2.5186" width="29.087" height="29.087" rx="6.4495" ry="6.4495" fill="url(#linearGradient1632)" stroke-linecap="round" stroke-linejoin="round" stroke-width="2.6877"/>
 <path id="rect16" d="m9.5799 7.4051c-0.81665 0-1.4743 0.65768-1.4743 1.4743v10.81c0 0.81665 0.65768 1.4743 1.4743 1.4743 0.81665 0 1.4738-0.65768 1.4738-1.4743v-10.81c0-0.81665-0.65716-1.4743-1.4738-1.4743zm4.9134 3.931c-0.81665 0-1.4738 0.65768-1.4738 1.4743v13.758c0 0.81665 0.65716 1.4743 1.4738 1.4743s1.4743-0.65768 1.4743-1.4743v-13.758c0-0.81665-0.65768-1.4743-1.4743-1.4743zm4.9139 0c-0.81665 0-1.4743 0.65768-1.4743 1.4743v13.758c0 0.81665 0.65768 1.4743 1.4743 1.4743s1.4738-0.65768 1.4738-1.4743v-13.758c0-0.81665-0.65716-1.4743-1.4738-1.4743zm4.9134 0c-0.81665 0-1.4738 0.65768-1.4738 1.4743v6.8786c0 0.81665 0.65716 1.4743 1.4738 1.4743s1.4743-0.65768 1.4743-1.4743v-6.8786c0-0.81665-0.65768-1.4743-1.4743-1.4743z" filter="url(#filter1)" opacity=".35" stroke-width=".98273"/>
 <path id="rect16-7" d="m9.5799 6.7436c-0.81665 0-1.4743 0.65768-1.4743 1.4743v10.81c0 0.81665 0.65768 1.4743 1.4743 1.4743 0.81665 0 1.4738-0.65768 1.4738-1.4743v-10.81c0-0.81665-0.65716-1.4743-1.4738-1.4743zm4.9134 3.931c-0.81665 0-1.4738 0.65768-1.4738 1.4743v13.758c0 0.81665 0.65716 1.4743 1.4738 1.4743s1.4743-0.65768 1.4743-1.4743v-13.758c0-0.81665-0.65768-1.4743-1.4743-1.4743zm4.9139 0c-0.81665 0-1.4743 0.65768-1.4743 1.4743v13.758c0 0.81665 0.65768 1.4743 1.4743 1.4743s1.4738-0.65768 1.4738-1.4743v-13.758c0-0.81665-0.65716-1.4743-1.4738-1.4743zm4.9134 0c-0.81665 0-1.4738 0.65768-1.4738 1.4743v6.8786c0 0.81665 0.65716 1.4743 1.4738 1.4743s1.4743-0.65768 1.4743-1.4743v-6.8786c0-0.81665-0.65768-1.4743-1.4743-1.4743z" fill="#fff" stroke-width=".98273"/>
</svg>
