<?xml version="1.0" encoding="UTF-8" standalone="no"?>
<svg
   id="svg6"
   width="512"
   height="512"
   version="1.1"
   viewBox="0 0 33.867 33.867"
   sodipodi:docname="gitter.svg"
   inkscape:version="1.4.4 (dcaf3e7d9e, 2026-05-05)"
   xmlns:inkscape="http://www.inkscape.org/namespaces/inkscape"
   xmlns:sodipodi="http://sodipodi.sourceforge.net/DTD/sodipodi-0.dtd"
   xmlns="http://www.w3.org/2000/svg"
   xmlns:svg="http://www.w3.org/2000/svg"
   xmlns:rdf="http://www.w3.org/1999/02/22-rdf-syntax-ns#"
   xmlns:cc="http://creativecommons.org/ns#"
   xmlns:dc="http://purl.org/dc/elements/1.1/">
  <sodipodi:namedview
     id="namedview1"
     pagecolor="#ffffff"
     bordercolor="#999999"
     borderopacity="1"
     inkscape:showpageshadow="2"
     inkscape:pageopacity="0"
     inkscape:pagecheckerboard="0"
     inkscape:deskcolor="#d1d1d1"
     inkscape:zoom="2.2617188"
     inkscape:cx="256"
     inkscape:cy="256"
     inkscape:window-width="2560"
     inkscape:window-height="1371"
     inkscape:window-x="0"
     inkscape:window-y="0"
     inkscape:window-maximized="1"
     inkscape:current-layer="svg6" />
  <metadata
     id="metadata156">
    <rdf:RDF>
      <cc:Work
         rdf:about="">
        <dc:format>image/svg+xml</dc:format>
        <dc:type
           rdf:resource="http://purl.org/dc/dcmitype/StillImage" />
      </cc:Work>
    </rdf:RDF>
  </metadata>
  <defs
     id="defs2">
    <linearGradient
       id="linearGradient1632"
       x1="132.21"
       x2="132.21"
       y1="42.152"
       y2="70.68"
       gradientTransform="matrix(0.97573,0,0,0.97573,-111.77,-37.203)"
       gradientUnits="userSpaceOnUse">
      <stop
         id="stop1626"
         stop-color="#f37373"
         offset="0"
         style="stop-color:#ffa348;stop-opacity:1" />
      <stop
         id="stop1628"
         stop-color="#e84ba8"
         offset="1"
         style="stop-color:#613583;stop-opacity:1" />
    </linearGradient>
    <linearGradient
       id="linearGradient1151"
       x1="8.1056"
       x2="8.1056"
       y1="8.6618"
       y2="42.132"
       gradientUnits="userSpaceOnUse">
      <stop
         id="stop1145"
         stop-color="#fff"
         offset="0" />
      <stop
         id="stop1147"
         stop-color="#ea51a0"
         offset="1" />
    </linearGradient>
    <filter
       inkscape:collect="always"
       style="color-interpolation-filters:sRGB"
       id="filter1"
       x="-0.081250178"
       y="-0.069642728"
       width="1.1625004"
       height="1.1392855">
      <feGaussianBlur
         inkscape:collect="always"
         stdDeviation="0.59885781"
         id="feGaussianBlur1" />
    </filter>
  </defs>
  <rect
     id="rect849"
     x="2.4065001"
     y="2.5186"
     width="29.087"
     height="29.087"
     rx="6.4495001"
     ry="6.4495001"
     fill="url(#linearGradient1632)"
     stroke-linecap="round"
     stroke-linejoin="round"
     stroke-width="2.6877"
     style="fill:url(#linearGradient1632)" />
  <path
     id="rect16"
     d="m 9.5799,7.405065 c -0.81665,0 -1.4743,0.65768 -1.4743,1.4743 v 10.81 c 0,0.81665 0.65768,1.4743 1.4743,1.4743 0.81665,0 1.4738,-0.65768 1.4738,-1.4743 v -10.81 c 0,-0.81665 -0.65716,-1.4743 -1.4738,-1.4743 z m 4.9134,3.931 c -0.81665,0 -1.4738,0.65768 -1.4738,1.4743 v 13.758 c 0,0.81665 0.65716,1.4743 1.4738,1.4743 0.81664,0 1.4743,-0.65768 1.4743,-1.4743 v -13.758 c 0,-0.81665 -0.65768,-1.4743 -1.4743,-1.4743 z m 4.9139,0 c -0.81665,0 -1.4743,0.65768 -1.4743,1.4743 v 13.758 c 0,0.81665 0.65768,1.4743 1.4743,1.4743 0.81662,0 1.4738,-0.65768 1.4738,-1.4743 v -13.758 c 0,-0.81665 -0.65716,-1.4743 -1.4738,-1.4743 z m 4.9134,0 c -0.81665,0 -1.4738,0.65768 -1.4738,1.4743 v 6.8786 c 0,0.81665 0.65716,1.4743 1.4738,1.4743 0.81664,0 1.4743,-0.65768 1.4743,-1.4743 v -6.8786 c 0,-0.81665 -0.65768,-1.4743 -1.4743,-1.4743 z"
     fill="url(#linearGradient1151)"
     stroke-width="0.98273"
     style="fill:#000000;fill-opacity:1;filter:url(#filter1);opacity:0.35" />
  <path
     id="rect16-7"
     d="m 9.5799,6.7436 c -0.81665,0 -1.4743,0.65768 -1.4743,1.4743 v 10.81 c 0,0.81665 0.65768,1.4743 1.4743,1.4743 0.81665,0 1.4738,-0.65768 1.4738,-1.4743 v -10.81 c 0,-0.81665 -0.65716,-1.4743 -1.4738,-1.4743 z m 4.9134,3.931 c -0.81665,0 -1.4738,0.65768 -1.4738,1.4743 v 13.758 c 0,0.81665 0.65716,1.4743 1.4738,1.4743 0.81664,0 1.4743,-0.65768 1.4743,-1.4743 v -13.758 c 0,-0.81665 -0.65768,-1.4743 -1.4743,-1.4743 z m 4.9139,0 c -0.81665,0 -1.4743,0.65768 -1.4743,1.4743 v 13.758 c 0,0.81665 0.65768,1.4743 1.4743,1.4743 0.81662,0 1.4738,-0.65768 1.4738,-1.4743 v -13.758 c 0,-0.81665 -0.65716,-1.4743 -1.4738,-1.4743 z m 4.9134,0 c -0.81665,0 -1.4738,0.65768 -1.4738,1.4743 v 6.8786 c 0,0.81665 0.65716,1.4743 1.4738,1.4743 0.81664,0 1.4743,-0.65768 1.4743,-1.4743 v -6.8786 c 0,-0.81665 -0.65768,-1.4743 -1.4743,-1.4743 z"
     fill="url(#linearGradient1151)"
     stroke-width="0.98273"
     style="fill:#ffffff;fill-opacity:1" />
</svg>
