<?xml version="1.0" encoding="UTF-8" standalone="no"?>
<svg
   width="512"
   height="512"
   viewBox="0 0 32 32"
   version="1.1"
   id="svg3"
   sodipodi:docname="as-icon.svg"
   inkscape:version="1.4.4 (dcaf3e7d9e, 2026-05-05)"
   xmlns:inkscape="http://www.inkscape.org/namespaces/inkscape"
   xmlns:sodipodi="http://sodipodi.sourceforge.net/DTD/sodipodi-0.dtd"
   xmlns="http://www.w3.org/2000/svg"
   xmlns:svg="http://www.w3.org/2000/svg">
  <sodipodi:namedview
     id="namedview3"
     pagecolor="#ffffff"
     bordercolor="#999999"
     borderopacity="1"
     inkscape:showpageshadow="2"
     inkscape:pageopacity="0"
     inkscape:pagecheckerboard="0"
     inkscape:deskcolor="#d1d1d1"
     inkscape:zoom="2.2617188"
     inkscape:cx="256"
     inkscape:cy="256"
     inkscape:window-width="2560"
     inkscape:window-height="1371"
     inkscape:window-x="0"
     inkscape:window-y="0"
     inkscape:window-maximized="1"
     inkscape:current-layer="svg3" />
  <defs
     id="defs2">
    <linearGradient
       id="b"
       x1="10.434"
       x2="10.434"
       y1="26.717"
       y2="4.859"
       gradientUnits="userSpaceOnUse">
      <stop
         stop-color="#b90000"
         offset="0"
         id="stop1" />
      <stop
         stop-color="#f33"
         offset="1"
         id="stop2" />
    </linearGradient>
    <filter
       id="a"
       x="-0.048"
       y="-0.048"
       width="1.096"
       height="1.096"
       color-interpolation-filters="sRGB">
      <feGaussianBlur
         stdDeviation=".56"
         id="feGaussianBlur2" />
    </filter>
    <filter
       inkscape:collect="always"
       style="color-interpolation-filters:sRGB"
       id="filter3"
       x="-0.060837835"
       y="-0.09775624"
       width="1.1216757"
       height="1.1955125">
      <feGaussianBlur
         inkscape:collect="always"
         stdDeviation="0.600875"
         id="feGaussianBlur3" />
    </filter>
  </defs>
  <rect
     x="2"
     y="3"
     width="28"
     height="28"
     rx="5"
     ry="5"
     filter="url(#a)"
     opacity=".15"
     id="rect2" />
  <rect
     x="2"
     y="2"
     width="28"
     height="28"
     rx="5"
     ry="5"
     fill="url(#b)"
     id="rect3" />
  <path
     d="M 18.422,20.423 18.16,19.816 15.904,14.451 A 5.041,5.041 0 0 0 11.21,11.268 c -2.833,0 -5.13,2.398 -5.13,5.359 0,2.957 2.297,5.357 5.13,5.357 1.976,0 3.692,-1.167 4.549,-2.876 l 0.912,2.196 c -1.294,1.647 -3.262,2.697 -5.461,2.697 -3.901,0 -7.062,-3.3 -7.062,-7.374 0,-4.074 3.16,-7.378 7.062,-7.378 2.943,0 5.32,1.64 6.528,4.55 0.09,0.227 1.277,3.121 2.312,5.584 0.64,1.524 1.185,2.537 2.958,2.599 1.738,0.062 2.934,-1.042 2.934,-2.442 0,-1.366 -0.913,-1.694 -2.45,-2.228 -2.762,-0.95 -4.19,-1.905 -4.19,-4.194 0,-2.231 1.454,-3.72 3.818,-3.72 1.537,0 2.651,0.714 3.422,2.14 l -1.513,0.807 c -0.569,-0.83 -1.195,-1.16 -1.995,-1.16 -1.109,0 -1.898,0.806 -1.898,1.878 0,1.522 1.303,1.75 3.124,2.373 2.453,0.834 3.592,1.788 3.592,4.166 0,2.499 -2.052,4.319 -4.732,4.315 -2.47,-0.012 -3.787,-1.272 -4.698,-3.494"
     fill="#fff"
     id="path3"
     style="opacity:0.35;fill:#000000;fill-opacity:1;filter:url(#filter3)" />
  <path
     d="m 18.399,19.799 -0.262,-0.607 -2.256,-5.365 a 5.041,5.041 0 0 0 -4.694,-3.183 c -2.833,0 -5.13,2.398 -5.13,5.359 0,2.957 2.297,5.357 5.13,5.357 1.976,0 3.692,-1.167 4.549,-2.876 l 0.912,2.196 c -1.294,1.647 -3.262,2.697 -5.461,2.697 -3.901,0 -7.062,-3.3 -7.062,-7.374 0,-4.074 3.16,-7.378 7.062,-7.378 2.943,0 5.32,1.64 6.528,4.55 0.09,0.227 1.277,3.121 2.312,5.584 0.64,1.524 1.185,2.537 2.958,2.599 1.738,0.062 2.934,-1.042 2.934,-2.442 0,-1.366 -0.913,-1.694 -2.45,-2.228 -2.762,-0.95 -4.19,-1.905 -4.19,-4.194 0,-2.231 1.454,-3.72 3.818,-3.72 1.537,0 2.651,0.714 3.422,2.14 l -1.513,0.807 c -0.569,-0.83 -1.195,-1.16 -1.995,-1.16 -1.109,0 -1.898,0.806 -1.898,1.878 0,1.522 1.303,1.75 3.124,2.373 2.453,0.834 3.592,1.788 3.592,4.166 0,2.499 -2.052,4.319 -4.732,4.315 -2.47,-0.012 -3.787,-1.272 -4.698,-3.494"
     fill="#ffffff"
     id="path3-6" />
</svg>
