<?xml version="1.0" encoding="UTF-8" standalone="no"?>
<svg
   id="svg8"
   width="512"
   height="512"
   version="1.1"
   viewBox="0 0 16.933 16.933"
   sodipodi:docname="chrome-mkaakpdehdafacodkgkpghoibnmamcme.svg"
   inkscape:version="1.4.4 (dcaf3e7d9e, 2026-05-05)"
   xmlns:inkscape="http://www.inkscape.org/namespaces/inkscape"
   xmlns:sodipodi="http://sodipodi.sourceforge.net/DTD/sodipodi-0.dtd"
   xmlns="http://www.w3.org/2000/svg"
   xmlns:svg="http://www.w3.org/2000/svg"
   xmlns:rdf="http://www.w3.org/1999/02/22-rdf-syntax-ns#"
   xmlns:cc="http://creativecommons.org/ns#"
   xmlns:dc="http://purl.org/dc/elements/1.1/">
  <sodipodi:namedview
     id="namedview1"
     pagecolor="#ffffff"
     bordercolor="#999999"
     borderopacity="1"
     inkscape:showpageshadow="2"
     inkscape:pageopacity="0"
     inkscape:pagecheckerboard="0"
     inkscape:deskcolor="#d1d1d1"
     inkscape:zoom="2.2617188"
     inkscape:cx="256"
     inkscape:cy="256"
     inkscape:window-width="2560"
     inkscape:window-height="1371"
     inkscape:window-x="0"
     inkscape:window-y="0"
     inkscape:window-maximized="1"
     inkscape:current-layer="svg8" />
  <defs
     id="defs2">
    <linearGradient
       id="linearGradient1448"
       x1="3.9687"
       x2="3.9687"
       y1="16.323"
       y2="2.5603"
       gradientTransform="matrix(0.91668,0,0,0.91668,0.705,0.7054)"
       gradientUnits="userSpaceOnUse">
      <stop
         id="stop1"
         stop-color="#f50f2d"
         offset="0"
         style="stop-color:#a51d2d;stop-opacity:1" />
      <stop
         id="stop2"
         stop-color="#ff4b00"
         offset="1"
         style="stop-color:#ed333b;stop-opacity:1" />
    </linearGradient>
    <filter
       id="filter8"
       x="-0.067485367"
       y="-0.084397847"
       width="1.1349707"
       height="1.1687957"
       color-interpolation-filters="sRGB">
      <feGaussianBlur
         id="feGaussianBlur8"
         stdDeviation="0.30700359" />
    </filter>
  </defs>
  <metadata
     id="metadata2">
    <rdf:RDF>
      <cc:Work
         rdf:about="">
        <dc:format>image/svg+xml</dc:format>
        <dc:type
           rdf:resource="http://purl.org/dc/dcmitype/StillImage" />
        <dc:title />
      </cc:Work>
    </rdf:RDF>
  </metadata>
  <rect
     id="rect2"
     x="1.1899998"
     y="1.1905003"
     width="14.552"
     height="14.552"
     ry="3.4396"
     fill="url(#linearGradient1448)"
     stroke-opacity="0.95294"
     stroke-width="0.083154"
     style="fill:url(#linearGradient1448)" />
  <path
     id="rect3"
     d="m 10.684,4.4320225 a 3.2413,3.2413 0 0 0 -3.2413,3.2413 3.2413,3.2413 0 0 0 0.05598,0.56883 h -3.8869 c -0.33479,0 -0.60454,0.26923 -0.60454,0.60401 v 3.7115025 c 0,0.33479 0.26976,0.60454 0.60454,0.60454 h 5.2351 c 0.33479,0 0.60401,-0.26976 0.60401,-0.60454 v -1.8936 a 3.2413,3.2413 0 0 0 1.2331,0.25056 3.2413,3.2413 0 0 0 3.2413,-3.2413025 3.2413,3.2413 0 0 0 -3.2413,-3.2413 z"
     fill="#000000"
     filter="url(#filter8)"
     opacity="0.25"
     style="opacity:0.35;stroke-width:1.0316;filter:url(#filter8)" />
  <path
     id="rect3-6"
     d="M 10.684,4.1013 A 3.2413,3.2413 0 0 0 7.4427,7.3426 3.2413,3.2413 0 0 0 7.49868,7.91143 h -3.8869 c -0.33479,0 -0.60454,0.26923 -0.60454,0.60401 v 3.7115 c 0,0.33479 0.26976,0.60454 0.60454,0.60454 h 5.2351 c 0.33479,0 0.60401,-0.26976 0.60401,-0.60454 v -1.8936 a 3.2413,3.2413 0 0 0 1.2331,0.25056 3.2413,3.2413 0 0 0 3.2413,-3.2413 3.2413,3.2413 0 0 0 -3.2413,-3.2413 z"
     style="fill:#f5f5f5;stroke-width:1.0316" />
</svg>
