<?xml version="1.0" encoding="UTF-8" standalone="no"?>
<svg
   width="512"
   height="512"
   viewBox="0 0 33.867 33.867"
   version="1.1"
   id="svg32"
   sodipodi:docname="im.fluffychat.Fluffychat.svg"
   inkscape:version="1.4.4 (dcaf3e7d9e, 2026-05-05)"
   xmlns:inkscape="http://www.inkscape.org/namespaces/inkscape"
   xmlns:sodipodi="http://sodipodi.sourceforge.net/DTD/sodipodi-0.dtd"
   xmlns="http://www.w3.org/2000/svg"
   xmlns:svg="http://www.w3.org/2000/svg">
  <sodipodi:namedview
     id="namedview32"
     pagecolor="#ffffff"
     bordercolor="#999999"
     borderopacity="1"
     inkscape:showpageshadow="2"
     inkscape:pageopacity="0"
     inkscape:pagecheckerboard="0"
     inkscape:deskcolor="#d1d1d1"
     inkscape:zoom="2.3242188"
     inkscape:cx="255.78487"
     inkscape:cy="256"
     inkscape:window-width="2560"
     inkscape:window-height="1403"
     inkscape:window-x="0"
     inkscape:window-y="0"
     inkscape:window-maximized="1"
     inkscape:current-layer="svg32" />
  <defs
     id="defs4">
    <linearGradient
       id="d"
       x1="26.704"
       x2="26.704"
       y1="63.898"
       y2="173.1"
       gradientUnits="userSpaceOnUse">
      <stop
         stop-color="#fff"
         offset="0"
         id="stop1" />
      <stop
         stop-color="#932de5"
         stop-opacity=".97255"
         offset="1"
         id="stop2" />
    </linearGradient>
    <radialGradient
       id="c"
       cx="16.951"
       cy="2.51"
       r="14.544"
       gradientTransform="matrix(7.1386 0 0 2.2345 -104.06 -3.1)"
       gradientUnits="userSpaceOnUse">
      <stop
         stop-color="#db48ff"
         offset="0"
         id="stop3" />
      <stop
         stop-color="#8427df"
         stop-opacity=".96863"
         offset="1"
         id="stop4" />
    </radialGradient>
  </defs>
  <g
     transform="translate(-65.737 -37.183) scale(.97573)"
     fill="none"
     opacity=".295"
     stroke="#000"
     stroke-linecap="round"
     stroke-linejoin="round"
     stroke-opacity=".02"
     id="g25">
    <rect
       x="69.84"
       y="40.71"
       width="29.811"
       height="29.811"
       rx="6.61"
       ry="6.61"
       stroke-width=".1"
       id="rect4" />
    <rect
       x="69.84"
       y="40.71"
       width="29.811"
       height="29.811"
       rx="6.61"
       ry="6.61"
       stroke-width=".2"
       id="rect5" />
    <rect
       x="69.84"
       y="40.71"
       width="29.811"
       height="29.811"
       rx="6.61"
       ry="6.61"
       stroke-width=".3"
       id="rect6" />
    <rect
       x="69.84"
       y="40.71"
       width="29.811"
       height="29.811"
       rx="6.61"
       ry="6.61"
       stroke-width=".4"
       id="rect7" />
    <rect
       x="69.84"
       y="40.71"
       width="29.811"
       height="29.811"
       rx="6.61"
       ry="6.61"
       stroke-width=".5"
       id="rect8" />
    <rect
       x="69.84"
       y="40.71"
       width="29.811"
       height="29.811"
       rx="6.61"
       ry="6.61"
       stroke-width=".6"
       id="rect9" />
    <rect
       x="69.84"
       y="40.71"
       width="29.811"
       height="29.811"
       rx="6.61"
       ry="6.61"
       stroke-width=".7"
       id="rect10" />
    <rect
       x="69.84"
       y="40.71"
       width="29.811"
       height="29.811"
       rx="6.61"
       ry="6.61"
       stroke-width=".8"
       id="rect11" />
    <rect
       x="69.84"
       y="40.71"
       width="29.811"
       height="29.811"
       rx="6.61"
       ry="6.61"
       id="rect12" />
    <rect
       x="69.84"
       y="40.71"
       width="29.811"
       height="29.811"
       rx="6.61"
       ry="6.61"
       stroke-width="1.2"
       id="rect13" />
    <rect
       x="69.84"
       y="40.71"
       width="29.811"
       height="29.811"
       rx="6.61"
       ry="6.61"
       stroke-width="1.4"
       id="rect14" />
    <rect
       x="69.84"
       y="40.71"
       width="29.811"
       height="29.811"
       rx="6.61"
       ry="6.61"
       stroke-width="1.6"
       id="rect15" />
    <rect
       x="69.84"
       y="40.71"
       width="29.811"
       height="29.811"
       rx="6.61"
       ry="6.61"
       stroke-width="1.8"
       id="rect16" />
    <rect
       x="69.84"
       y="40.71"
       width="29.811"
       height="29.811"
       rx="6.61"
       ry="6.61"
       stroke-width="2"
       id="rect17" />
    <rect
       x="69.84"
       y="40.71"
       width="29.811"
       height="29.811"
       rx="6.61"
       ry="6.61"
       stroke-width="2.2"
       id="rect18" />
    <rect
       x="69.84"
       y="40.71"
       width="29.811"
       height="29.811"
       rx="6.61"
       ry="6.61"
       stroke-width="2.6"
       id="rect19" />
    <rect
       x="69.84"
       y="40.71"
       width="29.811"
       height="29.811"
       rx="6.61"
       ry="6.61"
       stroke-width="3"
       id="rect20" />
    <rect
       x="69.84"
       y="40.71"
       width="29.811"
       height="29.811"
       rx="6.61"
       ry="6.61"
       stroke-width="3.4"
       id="rect21" />
    <rect
       x="69.84"
       y="40.71"
       width="29.811"
       height="29.811"
       rx="6.61"
       ry="6.61"
       stroke-width="3.8"
       id="rect22" />
    <rect
       x="69.84"
       y="40.71"
       width="29.811"
       height="29.811"
       rx="6.61"
       ry="6.61"
       stroke-width="4.2"
       id="rect23" />
    <rect
       x="69.84"
       y="40.71"
       width="29.811"
       height="29.811"
       rx="6.61"
       ry="6.61"
       stroke-width="4.6"
       id="rect24" />
    <rect
       x="69.84"
       y="40.71"
       width="29.811"
       height="29.811"
       rx="6.61"
       ry="6.61"
       stroke-width="5"
       id="rect25" />
  </g>
  <rect
     x="2.407"
     y="2.539"
     width="29.087"
     height="29.087"
     rx="6.449"
     ry="6.449"
     fill="url(#c)"
     stroke-linecap="round"
     stroke-linejoin="round"
     stroke-width="2.6877"
     id="rect26" />
  <path
     d="M26.657 8.78c-1.5-.03-3.812 1.175-4.887 2.541a.309.309 0 0 1-.143-.253.988.988 0 0 0-.5-.957c-.643-.324-1.258 0-1.515.464-.072.113-.186.183-.286.141-.114 0-.215-.113-.215-.211a1.04 1.04 0 0 0-.614-.774c-.686-.281-1.4.113-1.515.746-.043.112-.115.21-.215.21-.114.043-.214-.041-.285-.14-.215-.323-.572-.535-.929-.535-.572 0-1.087.465-1.115 1.028v.084a.309.309 0 0 1-.143.254h-.043c-1.186-1.52-4.073-2.914-5.502-2.45-1.158.395-.614 5.996.572 7.515.214.282.4.493.543.633-.043.113-.143.212-.257.212a.808.808 0 0 0-.5.183c-.758.703-.33 1.703.428 1.885.114.043.214.141.214.254 0 .112-.07.253-.185.28-.143.071-.286.142-.4.282-.572.817 0 1.731.785 1.731.115 0 .215.07.258.183.043.113.043.211-.072.282-.214.21-.328.492-.285.774.042.394.285.746.685.914.215.113.43.113.644.07.114-.042.214 0 .285.113.072.07.072.211.043.281a.924.924 0 0 0-.071.704c.114.394.4.675.786.774.357.07.615-.042.786-.112.071-.042-.472 1.28-.858 2.167-.114.281.186.605.5.464 1.187-.535 3.173-1.45 3.173-1.38.072.747.93 1.281 1.758.747.186-.113.286-.324.33-.493.042-.112.142-.21.285-.21s.257.07.286.21c.042.183.114.324.257.422.829.634 1.758.113 1.83-.675a.27.27 0 0 1 .185-.253c.114-.043.215 0 .286.07.214.211.471.352.757.352.357 0 .715-.183.93-.535.142-.211.185-.422.142-.703a.39.39 0 0 1 .115-.282.22.22 0 0 1 .285 0c.215.113.472.183.715.113.4-.07.715-.394.829-.746a1.047 1.047 0 0 0-.071-.746c-.043-.113-.043-.21.043-.281a.458.458 0 0 1 .285-.113c.258.042.472.042.686-.07a1.04 1.04 0 0 0 .615-.774.98.98 0 0 0-.286-.915c-.072-.07-.114-.183-.072-.282.043-.098.143-.183.258-.183.257 0 .543-.07.714-.28.615-.634.329-1.492-.357-1.774-.114-.042-.186-.14-.186-.281 0-.127.1-.226.214-.226.215-.042.4-.14.543-.28.572-.747.115-1.661-.642-1.774-.115 0-.215-.113-.215-.211v-.07c.114-.113.214-.254.357-.465 1.158-1.52 1.687-7.12.543-7.557a2 2 0 0 0-.586-.092zm-.876 1.78c.093.008.181.024.262.05.643.212.529 3.012-.114 3.899a.84.84 0 0 1-.4.281c-.072 0-.1-.07-.143-.112a.212.212 0 0 1 0-.282.984.984 0 0 0 .185-.563c.043-.253-.071-.492-.214-.675a1.01 1.01 0 0 0-.83-.422c-.142 0-.285 0-.428.07-.1.042-.215 0-.286-.07-.071-.07-.114-.169-.071-.281a.963.963 0 0 0 0-.634c-.029-.183-.1-.296-.258-.366.7-.554 1.642-.946 2.297-.894zm-15.418.02c.664.02 1.577.424 2.216.938a1.07 1.07 0 0 0-.215.394.963.963 0 0 0 0 .633c.043.099 0 .211-.071.282-.072.07-.172.113-.286.07-.215-.084-.429-.112-.643-.042-.386.113-.715.422-.786.816-.043.281 0 .563.185.816a.25.25 0 0 1 0 .282l-.114.112c-.257-.042-.429-.14-.572-.352-.657-.886-.771-3.687-.128-3.898.12-.04.26-.055.414-.05zm3.387 7.38a1.412 1.412 0 0 1 .008 0 1.412 1.412 0 0 1 1.412 1.411 1.412 1.412 0 0 1-1.412 1.413 1.412 1.412 0 0 1-1.412-1.413 1.412 1.412 0 0 1 1.404-1.412zm8.473 0a1.412 1.412 0 0 1 .008 0 1.412 1.412 0 0 1 1.413 1.411 1.412 1.412 0 0 1-1.413 1.413 1.412 1.412 0 0 1-1.412-1.413 1.412 1.412 0 0 1 1.404-1.412zm-4.229.706c.706-.006 1.413.195 1.413.621 0 .853-.653 1.497-1.413 1.497-.805 0-1.412-.692-1.412-1.497 0-.402.706-.615 1.412-.621z"
     fill="#1b007e"
     fill-opacity=".073251"
     stroke-width=".35306"
     id="path26" />
  <path
     d="M26.128 7.753c-1.5-.031-3.811 1.174-4.887 2.541a.309.309 0 0 1-.142-.254.988.988 0 0 0-.5-.956c-.644-.324-1.259 0-1.516.464-.071.112-.186.183-.286.14a.228.228 0 0 1-.214-.21 1.04 1.04 0 0 0-.615-.774c-.686-.281-1.4.112-1.515.746-.043.112-.114.21-.214.21-.114.043-.214-.042-.286-.14-.214-.324-.571-.535-.929-.535-.571 0-1.086.465-1.115 1.027v.085a.309.309 0 0 1-.142.253h-.043C12.538 8.83 9.65 7.437 8.22 7.901c-1.157.394-.614 5.995.572 7.515.215.282.4.493.543.633-.042.113-.143.212-.257.212a.808.808 0 0 0-.5.183c-.758.703-.33 1.702.428 1.885.115.042.215.14.215.253 0 .113-.071.253-.186.282-.143.07-.286.14-.4.281-.572.816 0 1.73.786 1.73.114 0 .214.071.257.184.043.112.043.211-.071.281-.215.211-.329.493-.286.775.043.394.286.745.686.914.214.113.429.113.643.07.114-.042.214 0 .286.113.071.07.071.21.043.281a.924.924 0 0 0-.072.704c.115.394.4.675.786.774.358.07.615-.042.786-.112.072-.043-.471 1.28-.857 2.166-.115.282.185.606.5.465 1.186-.535 3.173-1.45 3.173-1.38.071.746.929 1.281 1.758.746.186-.112.286-.323.328-.492.043-.113.143-.211.286-.211s.257.07.286.21c.043.184.114.325.257.423.83.633 1.758.113 1.83-.675a.27.27 0 0 1 .185-.254c.115-.042.215 0 .287.07.214.212.47.353.757.353.357 0 .714-.183.929-.535.143-.211.186-.422.143-.704a.39.39 0 0 1 .114-.281.22.22 0 0 1 .286 0c.214.112.472.183.715.112.4-.07.714-.393.828-.745a1.047 1.047 0 0 0-.07-.746c-.044-.113-.044-.211.042-.282a.458.458 0 0 1 .286-.112c.257.042.471.042.686-.07a1.04 1.04 0 0 0 .614-.775.98.98 0 0 0-.286-.914c-.071-.07-.114-.183-.071-.282.043-.098.143-.183.257-.183.257 0 .543-.07.715-.281.614-.633.328-1.492-.358-1.773-.114-.042-.185-.14-.185-.282 0-.126.1-.225.214-.225.214-.042.4-.14.543-.281.572-.746.114-1.66-.643-1.773-.114 0-.214-.113-.214-.211v-.07c.114-.113.214-.254.357-.465 1.157-1.52 1.686-7.12.543-7.557a2 2 0 0 0-.587-.092zm-.876 1.78c.094.008.182.024.262.05.643.212.53 3.012-.114 3.898a.84.84 0 0 1-.4.282c-.072 0-.1-.07-.143-.113a.212.212 0 0 1 0-.281.984.984 0 0 0 .185-.563c.043-.253-.071-.492-.214-.675a1.01 1.01 0 0 0-.829-.423c-.143 0-.285 0-.428.07-.1.043-.215 0-.287-.07-.071-.07-.114-.168-.07-.28a.963.963 0 0 0 0-.634c-.03-.183-.101-.296-.258-.366.7-.554 1.641-.947 2.296-.895zm-15.418.02c.665.02 1.577.423 2.216.938-.1.112-.172.253-.214.394a.963.963 0 0 0 0 .633c.042.099 0 .211-.072.281-.071.07-.172.113-.286.071-.214-.084-.429-.113-.643-.042-.386.112-.714.422-.786.816-.043.281 0 .563.186.816a.25.25 0 0 1 0 .281l-.115.113c-.257-.042-.428-.14-.571-.352-.658-.886-.772-3.687-.129-3.898.12-.04.26-.055.414-.05Zm3.387 7.379a1.412 1.412 0 0 1 .008 0 1.412 1.412 0 0 1 1.413 1.412 1.412 1.412 0 0 1-1.413 1.413 1.412 1.412 0 0 1-1.412-1.413 1.412 1.412 0 0 1 1.404-1.412zm8.473 0a1.412 1.412 0 0 1 .009 0 1.412 1.412 0 0 1 1.412 1.412 1.412 1.412 0 0 1-1.412 1.413 1.412 1.412 0 0 1-1.413-1.413 1.412 1.412 0 0 1 1.404-1.412zm-4.228.706c.706-.006 1.412.195 1.412.622 0 .853-.653 1.497-1.412 1.497-.805 0-1.412-.692-1.412-1.497 0-.402.706-.616 1.412-.622z"
     fill="#1b007e"
     fill-opacity=".057433"
     stroke-width=".35306"
     id="path27" />
  <path
     d="M26.343 8.035c-1.5-.031-3.812 1.174-4.887 2.54a.309.309 0 0 1-.143-.253.988.988 0 0 0-.5-.957c-.643-.323-1.258 0-1.515.464-.072.113-.186.184-.286.142-.114 0-.215-.113-.215-.212a1.04 1.04 0 0 0-.614-.773c-.686-.282-1.4.112-1.515.745-.043.113-.115.211-.215.211-.114.042-.214-.042-.285-.14-.215-.324-.572-.535-.93-.535-.57 0-1.086.464-1.114 1.027v.084a.309.309 0 0 1-.143.254h-.043c-1.186-1.52-4.073-2.913-5.502-2.449-1.158.394-.614 5.995.572 7.515.214.281.4.492.543.633-.043.112-.143.211-.257.211a.808.808 0 0 0-.5.183c-.758.704-.33 1.703.428 1.886.114.042.214.14.214.253 0 .113-.071.253-.185.281-.143.07-.286.141-.4.282-.572.816 0 1.73.785 1.73.115 0 .215.07.258.183.042.113.043.212-.072.282-.214.211-.328.493-.286.774.043.394.286.746.686.915.215.112.43.112.644.07.114-.042.214 0 .285.113.072.07.072.21.043.28a.924.924 0 0 0-.071.705c.114.394.4.675.786.773.357.07.614-.041.786-.112.071-.042-.472 1.28-.858 2.167-.114.281.186.605.5.465 1.187-.535 3.173-1.45 3.173-1.38.072.746.93 1.28 1.758.746.186-.113.286-.324.329-.493.043-.112.143-.21.286-.21s.257.07.285.21c.043.183.115.324.258.423.829.633 1.758.112 1.83-.676a.27.27 0 0 1 .185-.253c.114-.042.215 0 .286.07.214.211.471.352.757.352.357 0 .715-.183.93-.535.142-.21.185-.421.142-.703a.39.39 0 0 1 .115-.282.22.22 0 0 1 .285 0c.215.113.472.183.715.113.4-.07.715-.394.829-.746a1.047 1.047 0 0 0-.071-.746c-.043-.112-.043-.21.042-.28a.458.458 0 0 1 .286-.114c.257.043.472.043.686-.07a1.04 1.04 0 0 0 .614-.774.98.98 0 0 0-.285-.915c-.072-.07-.115-.183-.072-.281.043-.099.143-.183.258-.183.257 0 .543-.07.714-.281.615-.634.329-1.492-.357-1.773-.115-.043-.186-.141-.186-.282 0-.127.1-.225.214-.225.215-.043.4-.14.543-.281.572-.746.115-1.66-.643-1.773-.114 0-.214-.113-.214-.212v-.07c.114-.113.214-.254.357-.465 1.158-1.52 1.687-7.12.543-7.556a2 2 0 0 0-.586-.092zm-.876 1.78c.093.007.181.024.262.05.643.211.529 3.012-.114 3.898a.84.84 0 0 1-.401.282c-.071 0-.1-.07-.143-.113a.212.212 0 0 1 0-.282.984.984 0 0 0 .186-.562c.043-.254-.072-.493-.215-.676a1.01 1.01 0 0 0-.828-.422c-.143 0-.286 0-.429.07-.1.043-.215 0-.286-.07-.072-.07-.114-.168-.071-.281a.963.963 0 0 0 0-.634c-.029-.183-.1-.295-.258-.365.7-.555 1.642-.947 2.297-.895zm-15.418.02c.664.02 1.577.423 2.215.938-.1.112-.171.253-.214.393a.963.963 0 0 0 0 .634c.043.098 0 .21-.071.281-.072.07-.172.113-.287.07-.214-.084-.428-.112-.642-.042-.386.113-.715.422-.786.816-.043.282 0 .564.185.817a.25.25 0 0 1 0 .281l-.114.113c-.257-.043-.429-.141-.572-.352-.657-.887-.771-3.687-.128-3.898.12-.04.26-.055.414-.05Zm3.386 7.379a1.412 1.412 0 0 1 .009 0 1.412 1.412 0 0 1 1.412 1.412 1.412 1.412 0 0 1-1.412 1.412 1.412 1.412 0 0 1-1.413-1.412 1.412 1.412 0 0 1 1.404-1.412zm8.474 0a1.412 1.412 0 0 1 .008 0 1.412 1.412 0 0 1 1.412 1.412 1.412 1.412 0 0 1-1.412 1.412 1.412 1.412 0 0 1-1.412-1.412 1.412 1.412 0 0 1 1.404-1.412zm-4.229.706c.706-.006 1.412.195 1.412.622 0 .853-.653 1.496-1.412 1.496-.805 0-1.412-.692-1.412-1.496 0-.403.706-.616 1.412-.622z"
     fill="#1b007e"
     fill-opacity=".10436"
     stroke-width=".35306"
     id="path28" />
  <path
     d="M25.87 7.387c-1.499-.03-3.81 1.174-4.886 2.541a.309.309 0 0 1-.143-.254.988.988 0 0 0-.5-.956c-.643-.324-1.258 0-1.515.464-.072.113-.186.183-.286.141-.114 0-.214-.113-.214-.211a1.04 1.04 0 0 0-.615-.774c-.686-.281-1.4.113-1.515.746-.043.112-.114.21-.214.21-.115.043-.215-.041-.286-.14-.215-.324-.572-.535-.929-.535-.572 0-1.086.465-1.115 1.028v.084a.309.309 0 0 1-.143.253h-.043c-1.186-1.52-4.073-2.913-5.502-2.448-1.158.394-.614 5.995.572 7.514.214.282.4.493.543.633-.043.113-.143.212-.257.212a.808.808 0 0 0-.5.183c-.758.703-.33 1.702.428 1.885.114.043.214.141.214.254 0 .112-.07.253-.185.28-.143.071-.286.142-.4.282-.572.816 0 1.73.785 1.73.115 0 .215.071.258.184.043.112.043.211-.072.282-.214.21-.328.492-.285.774.043.394.285.745.685.914.215.113.43.113.644.07.114-.042.214 0 .286.113.071.07.071.211.042.281a.924.924 0 0 0-.07.704c.113.394.4.675.785.774.357.07.615-.042.786-.112.072-.043-.472 1.28-.858 2.166-.114.282.186.606.5.465 1.187-.535 3.173-1.45 3.173-1.38.072.747.93 1.281 1.758.746.186-.112.286-.323.33-.492.042-.113.142-.21.285-.21s.257.07.286.21c.043.183.114.324.257.422.829.633 1.758.113 1.83-.675a.27.27 0 0 1 .185-.253c.114-.043.215 0 .286.07.215.21.471.352.757.352.358 0 .715-.183.93-.535.142-.211.185-.422.143-.703a.39.39 0 0 1 .114-.282.22.22 0 0 1 .285 0c.215.113.472.183.715.113.4-.07.715-.394.83-.746a1.047 1.047 0 0 0-.072-.746c-.043-.113-.043-.211.043-.281a.458.458 0 0 1 .285-.113c.258.042.472.042.686-.07a1.04 1.04 0 0 0 .615-.774.98.98 0 0 0-.286-.915c-.072-.07-.114-.183-.071-.282.042-.098.143-.183.257-.183.257 0 .543-.07.715-.28.614-.634.328-1.492-.358-1.774-.114-.042-.186-.14-.186-.281 0-.127.1-.226.214-.226.215-.042.4-.14.543-.28.572-.747.115-1.661-.642-1.774-.115 0-.215-.113-.215-.211v-.07a3.02 3.02 0 0 0 .357-.465c1.158-1.52 1.687-7.12.543-7.557a2 2 0 0 0-.586-.092zm-.875 1.78c.094.008.182.024.262.05.643.212.529 3.012-.114 3.899a.84.84 0 0 1-.4.281c-.072 0-.1-.07-.143-.112a.212.212 0 0 1 0-.282.984.984 0 0 0 .185-.563c.043-.253-.071-.492-.214-.675a1.01 1.01 0 0 0-.83-.422c-.142 0-.285 0-.428.07-.1.042-.214 0-.286-.07-.071-.07-.114-.169-.071-.282a.963.963 0 0 0 0-.633c-.029-.183-.1-.296-.258-.366.7-.554 1.642-.946 2.297-.895zm-15.418.02c.664.02 1.577.424 2.216.938a1.07 1.07 0 0 0-.215.394.963.963 0 0 0 0 .633c.043.099 0 .211-.071.281-.072.07-.172.114-.286.071-.215-.084-.429-.112-.643-.042-.386.113-.715.422-.786.816-.043.281 0 .563.185.816a.25.25 0 0 1 0 .282l-.114.112c-.257-.042-.429-.14-.571-.352-.658-.886-.772-3.687-.13-3.898.121-.04.261-.055.415-.05Zm3.387 7.379a1.412 1.412 0 0 1 .008 0 1.412 1.412 0 0 1 1.412 1.412 1.412 1.412 0 0 1-1.412 1.413 1.412 1.412 0 0 1-1.412-1.413 1.412 1.412 0 0 1 1.404-1.412zm8.473 0a1.412 1.412 0 0 1 .008 0 1.412 1.412 0 0 1 1.413 1.412 1.412 1.412 0 0 1-1.413 1.413 1.412 1.412 0 0 1-1.412-1.413 1.412 1.412 0 0 1 1.404-1.412zm-4.229.706c.706-.006 1.413.196 1.413.622 0 .853-.653 1.497-1.413 1.497-.804 0-1.411-.692-1.411-1.497 0-.402.705-.616 1.411-.622z"
     fill="#1b007e"
     fill-opacity=".23265"
     stroke-width=".35306"
     id="path29" />
  <path
     class="st3"
     d="M22.698 10.062a.962.962 0 0 1 0 .633c-.042.113 0 .211.072.282.071.07.186.112.286.07.143-.07.286-.07.428-.07.33 0 .615.14.83.422.142.183.257.422.214.675a.984.984 0 0 1-.186.563.212.212 0 0 0 0 .282c.043.042.071.112.143.112a.839.839 0 0 0 .4-.281c.643-.887.758-3.687.114-3.898-.643-.211-1.757.21-2.558.844.157.07.229.183.257.366zm-13.092 3.06.114-.112a.25.25 0 0 0 0-.282 1.062 1.062 0 0 1-.186-.816c.072-.394.4-.704.786-.816.215-.07.429-.042.643.042.115.042.215 0 .286-.07.072-.07.115-.183.072-.282a.962.962 0 0 1 0-.633c.043-.14.114-.281.214-.394-.786-.633-1.986-1.098-2.63-.886-.643.21-.528 3.011.129 3.897.143.212.314.31.572.352z"
     fill="#c23ef5"
     fill-opacity=".99216"
     stroke-width=".35306"
     id="path30" />
  <circle
     class="st3"
     cx="12.714"
     cy="17.612"
     r="1.412"
     fill="#b138f0"
     fill-opacity=".98431"
     stroke-width=".35306"
     id="circle30" />
  <path
     class="st3"
     d="m18.363 17.528c0 0.853-0.653 1.497-1.412 1.497-0.805 0-1.412-0.692-1.412-1.497s2.824-0.853 2.824 0z"
     fill="#b138f0"
     fill-opacity=".98431"
     stroke-width=".35306"
     id="path31" />
  <circle
     class="st3"
     cx="21.188"
     cy="17.612"
     r="1.412"
     fill="#b138f0"
     fill-opacity=".98431"
     stroke-width=".35306"
     id="circle31" />
  <path
     transform="scale(.26458)"
     d="M96.807 26.537c-5.668-.118-14.406 4.438-18.471 9.604a1.17 1.17 0 0 1-.54-.96c.163-1.595-.701-2.923-1.89-3.615-2.43-1.223-4.754 0-5.726 1.754-.27.426-.702.693-1.08.534-.433 0-.81-.427-.81-.8-.271-1.329-1.08-2.391-2.323-2.923-2.593-1.064-5.295.425-5.727 2.818-.162.426-.432.797-.81.797-.432.16-.81-.159-1.08-.531-.81-1.223-2.16-2.022-3.51-2.022-2.16 0-4.107 1.756-4.215 3.883v.319c0 .425-.269.799-.54.959h-.161c-4.484-5.745-15.395-11.011-20.797-9.256-4.375 1.489-2.321 22.658 2.162 28.402.81 1.064 1.513 1.86 2.053 2.393-.162.425-.54.798-.973.798-.702 0-1.35.266-1.89.692-2.863 2.66-1.244 6.435 1.619 7.127.432.16.81.531.81.957 0 .425-.269.956-.701 1.062-.54.266-1.082.533-1.514 1.065-2.16 3.085 0 6.54 2.971 6.54.432 0 .81.267.973.692.162.426.162.799-.27 1.065-.81.797-1.242 1.862-1.08 2.925a4.206 4.206 0 0 0 2.592 3.457c.81.426 1.621.426 2.432.266.432-.16.81 0 1.08.426.27.266.27.796.162 1.062a3.492 3.492 0 0 0-.27 2.66c.432 1.49 1.512 2.552 2.97 2.924 1.351.266 2.323-.158 2.972-.424.27-.16-1.784 4.84-3.243 8.19-.432 1.064.703 2.288 1.891 1.756 4.483-2.021 11.992-5.479 11.992-5.213.27 2.819 3.512 4.84 6.645 2.818.702-.425 1.08-1.223 1.242-1.861.162-.426.54-.797 1.08-.797s.972.265 1.08.797c.162.691.433 1.223.973 1.596 3.133 2.393 6.644.425 6.914-2.553 0-.426.269-.798.701-.957.432-.16.812 0 1.082.266.81.797 1.781 1.33 2.861 1.33 1.35 0 2.702-.692 3.512-2.022.54-.798.703-1.594.541-2.658 0-.426.162-.799.432-1.065.27-.265.81-.265 1.08 0 .81.426 1.783.692 2.701.426 1.512-.266 2.7-1.488 3.133-2.818.27-.957.162-1.863-.27-2.82-.162-.426-.162-.797.162-1.063.324-.266.702-.426 1.08-.426.973.16 1.782.16 2.592-.265 1.243-.532 2.052-1.596 2.323-2.926.27-1.33-.162-2.553-1.08-3.457-.27-.266-.432-.692-.27-1.065.162-.372.54-.691.973-.691.972 0 2.053-.265 2.7-1.063 2.323-2.393 1.242-5.637-1.35-6.7-.433-.16-.702-.533-.702-1.065 0-.479.376-.852.809-.852a4 4 0 0 0 2.052-1.062c2.161-2.819.433-6.276-2.43-6.701-.431 0-.81-.427-.81-.8v-.265c.432-.425.81-.958 1.35-1.756 4.375-5.744 6.374-26.911 2.052-28.56-.661-.22-1.407-.331-2.216-.348zm-3.31 6.729c.353.028.685.09.99.19 2.43.797 1.998 11.38-.432 14.731-.432.532-.974.905-1.514 1.065-.27 0-.377-.266-.539-.426-.27-.266-.27-.798 0-1.064.432-.639.701-1.33.701-2.127.162-.958-.27-1.862-.81-2.553-.81-1.064-1.89-1.596-3.133-1.596-.54 0-1.08 0-1.62.266-.377.16-.811 0-1.081-.266-.27-.266-.432-.637-.27-1.062a3.64 3.64 0 0 0 0-2.395c-.108-.691-.378-1.117-.973-1.383 2.647-2.094 6.204-3.577 8.68-3.38zm-58.274.076c2.512.075 5.96 1.598 8.375 3.543a4.023 4.023 0 0 0-.81 1.488 3.64 3.64 0 0 0 0 2.395c.161.372 0 .796-.27 1.062s-.65.427-1.082.268c-.81-.32-1.62-.426-2.43-.16-1.459.425-2.7 1.594-2.97 3.083-.163 1.064-.002 2.13.7 3.086.162.266.27.637 0 1.063l-.431.426c-.973-.16-1.62-.533-2.16-1.33-2.485-3.351-2.918-13.935-.487-14.733.456-.15.985-.208 1.565-.191zm12.8 27.887a5.338 5.338 0 0 1 .032 0 5.338 5.338 0 0 1 5.338 5.337 5.338 5.338 0 0 1-5.338 5.338 5.338 5.338 0 0 1-5.338-5.338 5.338 5.338 0 0 1 5.306-5.337zm32.026 0a5.338 5.338 0 0 1 .031 0 5.338 5.338 0 0 1 5.338 5.337 5.338 5.338 0 0 1-5.338 5.338 5.338 5.338 0 0 1-5.338-5.338 5.338 5.338 0 0 1 5.307-5.337zm-15.983 2.67c2.67-.023 5.338.737 5.338 2.349 0 3.224-2.468 5.656-5.338 5.656-3.041 0-5.336-2.615-5.336-5.656 0-1.52 2.668-2.327 5.336-2.35z"
     fill="url(#d)"
     stroke-width="1.3344"
     id="path32"
     style="fill:#ffffff;fill-opacity:1" />
</svg>
