<?xml version="1.0" encoding="UTF-8"?>
<svg id="svg8" width="64" height="64" version="1.1" viewBox="0 0 64 64" xmlns="http://www.w3.org/2000/svg">
 <defs id="defs12">
  <filter id="filter1057" x="-.027" y="-.027" width="1.054" height="1.054" color-interpolation-filters="sRGB">
   <feGaussianBlur id="feGaussianBlur11" stdDeviation="0.61875"/>
  </filter>
  <linearGradient id="linearGradient1053" x1="-127" x2="-127" y1="60" y2="5" gradientTransform="matrix(.26458 0 0 .26458 20.93 4.2443)" gradientUnits="userSpaceOnUse">
   <stop id="stop12" stop-color="#a53cff" offset="0"/>
   <stop id="stop13" stop-color="#b496ff" offset="1"/>
  </linearGradient>
 </defs>
 <g id="g14" transform="matrix(3.7796 0 0 3.7796 52.396 -16.552)" stroke-linecap="round">
  <rect id="rect13" transform="matrix(.26458 0 0 .26458 -13.863 4.3792)" x="4.5" y="4.5" width="55" height="55" ry="15" fill="#141414" filter="url(#filter1057)" opacity=".3" stroke-width="2.7444"/>
  <rect id="rect14" x="-12.672" y="5.5698" width="14.552" height="14.552" ry="3.9687" fill="url(#linearGradient1053)" stroke-width=".7261"/>
 </g>
 <g id="g6" transform="matrix(1.3043 0 0 1.3043 18.548 5.2125)">
  <path id="path4" d="m-1.1866 8.5373c-0.277 0-0.5 0.223-0.5 0.5v2c0 0.277 0.223 0.5 0.5 0.5h1.5v18h-1.5c-0.277 0-0.5 0.223-0.5 0.5v2c0 0.277 0.223 0.5 0.5 0.5h6c0.277 0 0.5-0.223 0.5-0.5v-2c0-0.277-0.223-0.5-0.5-0.5h-1.4473v-18h1.4473c0.277 0 0.5-0.223 0.5-0.5v-2c0-0.277-0.223-0.5-0.5-0.5zm10 0c-0.277 0-0.5 0.223-0.5 0.5v2c0 0.277 0.223 0.5 0.5 0.5h9c0.277 0 0.5-0.223 0.5-0.5v-2c0-0.277-0.223-0.5-0.5-0.5zm6 7c-0.277 0-0.5 0.223-0.5 0.5v2c0 0.277 0.223 0.5 0.5 0.5h7c0.277 0 0.5-0.223 0.5-0.5v-2c0-0.277-0.223-0.5-0.5-0.5zm0 7c-0.277 0-0.5 0.223-0.5 0.5v2c0 0.277 0.223 0.5 0.5 0.5h7c0.277 0 0.5-0.223 0.5-0.5v-2c0-0.277-0.223-0.5-0.5-0.5zm-6 7c-0.277 0-0.5 0.223-0.5 0.5v2c0 0.277 0.223 0.5 0.5 0.5h9c0.277 0 0.5-0.223 0.5-0.5v-2c0-0.277-0.223-0.5-0.5-0.5z" fill="#f9f9f9" stroke-linecap="round" stroke-opacity=".73902" stroke-width="2"/>
 </g>
</svg>
