<?xml version="1.0" encoding="UTF-8"?>
<svg id="svg15" width="64" height="64" version="1.1" viewBox="0 0 64 64" xmlns="http://www.w3.org/2000/svg">
 <defs id="defs9">
  <linearGradient id="linearGradient902" x1="136" x2="189" y1="30.5" y2="30.5" gradientTransform="translate(-130.5 .4991)" gradientUnits="userSpaceOnUse">
   <stop id="stop1" stop-color="#543c2c" offset="0"/>
   <stop id="stop2" stop-color="#766356" offset=".076733"/>
   <stop id="stop3" stop-color="#d1d1c7" offset=".15604"/>
   <stop id="stop4" stop-color="#d3cfc5" offset=".92868"/>
   <stop id="stop5" stop-color="#7e5a4e" offset="1"/>
  </linearGradient>
  <linearGradient id="linearGradient880" x1="150" x2="150" y1="9" y2="50.983" gradientTransform="translate(-130.5 .4991)" gradientUnits="userSpaceOnUse">
   <stop id="stop6" stop-color="#32c57f" offset="0"/>
   <stop id="stop7" stop-color="#55e188" offset="1"/>
  </linearGradient>
 </defs>
 <g id="g10" stroke-opacity=".95294" style="mix-blend-mode:exclusion">
  <rect id="rect9" x="4.4986" y="4.499" width="55.001" height="55.001" ry="13" fill="#26a269" stroke-width=".31428"/>
  <rect id="rect10" x="5.4996" y="5.4991" width="53.001" height="51.002" ry="10" fill="url(#linearGradient902)" stroke-width=".29708"/>
  <path id="path10" d="m17.499 4.499c-7.202 0-13 5.7983-13 13v26.003c0 4.432 3.5681 8.0003 8.0003 8.0003h39.002c4.432 0 8.0003-3.5681 8.0003-8.0003v-26.003c0-7.202-5.7983-13-13-13z" fill="url(#linearGradient880)" stroke-width=".31428"/>
 </g>
 <path id="path11" d="m9.4988 7.2532c-1.13 0.88216-2.1086 1.9473-2.8946 3.1504-0.031201 0.04798-0.0592 0.09806-0.089803 0.14649-0.2161 0.34062-0.41731 0.69148-0.60156 1.0528-0.045 0.08866-0.085903 0.17971-0.1289 0.26953-0.15437 0.32083-0.29574 0.64941-0.42384 0.9844-0.048802 0.12807-0.095802 0.25672-0.14063 0.38673-0.10626 0.307-0.19783 0.62038-0.28126 0.93753-0.039402 0.15069-0.081103 0.30033-0.11523 0.45314-0.072602 0.3232-0.12579 0.65429-0.17383 0.98636-0.020599 0.14288-0.050503 0.28337-0.0664 0.42774-0.052869 0.47687-0.084043 0.9596-0.084043 1.4512v26.003c0 3.3689 2.0645 6.2333 5 7.4163z" fill="#004066" opacity=".5" stroke-opacity=".95294" stroke-width=".31428"/>
 <path id="path12" d="m4.4986 42.501v1.002c0 4.432 3.5681 8.0003 8.0003 8.0003h39.002c4.432 0 8.0003-3.5681 8.0003-8.0003v-1.002c0 4.432-3.5681 8.0003-8.0003 8.0003h-39.002c-4.432 0-8.0003-3.5681-8.0003-8.0003z" fill="#228975" stroke-opacity=".95294" stroke-width=".31428"/>
 <path id="path13" d="m4.4986 45.499v1.002c0 7.202 5.7983 13 13 13h29.002c7.202 0 13-5.7983 13-13v-1.002c0 7.202-5.7983 13-13 13h-29.002c-7.202 0-13-5.7983-13-13z" fill="#248b75" stroke-opacity=".95294" stroke-width=".31428"/>
 <path id="path14" d="m58.495 47.43c-0.07177 0.05953-0.14939 0.11358-0.22244 0.1719-2.2816 3.3923-7.1249 4.2736-12.193 4.2736h-29.928c-4.1774 0-8.63-0.61642-10.93-3.0606-0.010928 0.02306-0.023982 0.06202-0.035673 0.08788 2.288 2.4771 6.7652 3.0997 10.964 3.0997h29.928c5.0929 0 9.9539-0.92778 12.228-4.3397-0.02632 0.05907-0.0564 0.11566-0.08393 0.17382-2.1532 3.7223-6.9425 5.0393-12.144 5.0393h-29.928c-4.3856 0-8.887-0.98617-11.036-3.7989-0.010638 0.02608-0.01876 0.04853-0.029375 0.07616 2.1342 2.8493 6.656 3.8495 11.066 3.8495h29.928c5.0367 0 9.6764-1.2706 11.926-4.7109-2.0946 3.8522-6.7068 5.584-11.926 5.584h-29.928c-4.6369 0-9.165-1.3523-11.128-4.5665-0.00978 0.02948-0.011753 0.0635-0.020985 0.09373 1.9524 3.2384 6.4966 4.5998 11.15 4.5998h29.928c5.2187 0 9.8282-1.7573 11.926-5.5938-2.0492 4.0831-6.6495 6.4669-11.926 6.4669h-29.928c-4.7039 0-9.2502-2.0697-11.165-5.4082-0.00871 0.03061-0.013076 0.06248-0.020985 0.09377 1.9028 3.3586 6.4656 5.4415 11.185 5.4415h29.928c5.1374 0 9.6307-2.2718 11.758-6.1524-2.0496 4.153-6.5237 7.0255-11.758 7.0255h-29.928c-4.7848 0-9.3206-2.5483-11.174-5.9884-0.024509-0.04547-0.034488-0.09657-0.048262-0.1465-0.0044 0.02381-0.011068 0.04641-0.014687 0.0703 0.015922 0.06966 0.029406 0.1409 0.062953 0.20312 1.8541 3.4402 6.3901 5.9884 11.174 5.9884h29.928c5.7115 0 10.519-3.4201 12.257-8.1915 0.04278-0.10424 0.0864-0.20826 0.12593-0.31446 0.01084-0.02192 0.02051-0.04464 0.03136-0.06641z" opacity=".15" stroke-width="1.0365"/>
 <path id="path1" d="m4.498 43.504v3.7793l0.24219 1.7383 1.4434 3.9043 3.3145 3.8008 0.00781-0.93945c-0.046002 0.01157-0.15481-0.15834-0.20117-0.1582-0.60261-0.52344-1.0859-1.1174-1.0859-2.3945s0.51849-2.3672 1.1484-2.3672c0.48833 0.17844 0.52053 0.01758 0.13086-0.10938l-0.98438-0.66406-3.4395-3.5977z" fill="#228a75" stroke-linecap="square" stroke-linejoin="bevel" stroke-width=".824" style="paint-order:markers fill stroke"/>
 <path id="path12-9" d="m14.859 32.919c-0.49174-0.01219-0.9713 0.17882-1.3208 0.50394-0.69088 0.67259-0.69088 1.7719 0 2.4445l4.7264 4.5212-4.7264 4.5192c-0.69088 0.67462-0.69088 1.7739 0 2.4465 0.70104 0.6604 1.8369 0.6604 2.538 0l5.9903-5.7424c0.70104-0.67462 0.70104-1.7739 0-2.4465l-5.9903-5.7424c-0.31496-0.30277-0.75997-0.48158-1.2172-0.50394zm10.434 11.777v2.8712h8.9855v-2.8712z" fill="#3d3846"/>
 <path id="path13-1" d="m14.853 31.314c-0.49174-0.01219-0.9713 0.17882-1.3208 0.50394-0.69088 0.67259-0.69088 1.7719 0 2.4445l4.7244 4.5212-4.7244 4.5192c-0.69088 0.67259-0.69088 1.7719 0 2.4465 0.70104 0.6604 1.8369 0.6604 2.538 0l5.9883-5.7445c0.70307-0.67259 0.70307-1.7719 0-2.4445l-5.9883-5.7424c-0.31699-0.30277-0.75997-0.48158-1.2172-0.50394zm10.434 11.775v2.8712h8.9855v-2.8712z" fill="#5e5c64"/>
</svg>
