<?xml version="1.0" encoding="UTF-8"?>
<svg id="svg57" width="64" height="64" version="1.1" viewBox="0 0 64 64" xmlns="http://www.w3.org/2000/svg" xmlns:cc="http://creativecommons.org/ns#" xmlns:dc="http://purl.org/dc/elements/1.1/" xmlns:rdf="http://www.w3.org/1999/02/22-rdf-syntax-ns#">
 <metadata id="metadata61">
  <rdf:RDF>
   <cc:Work rdf:about="">
    <dc:format>image/svg+xml</dc:format>
    <dc:type rdf:resource="http://purl.org/dc/dcmitype/StillImage"/>
    <dc:title/>
   </cc:Work>
  </rdf:RDF>
 </metadata>
 <defs id="defs7">
  <style id="style856" type="text/css"/>
  <filter id="filter1057" x="-.027" y="-.027" width="1.054" height="1.054" color-interpolation-filters="sRGB">
   <feGaussianBlur id="feGaussianBlur858" stdDeviation="0.61875"/>
  </filter>
  <linearGradient id="linearGradient1053" x1="-127" x2="-127" y1="60" y2="5" gradientTransform="translate(131.5 -.51)" gradientUnits="userSpaceOnUse">
   <stop id="stop861" stop-color="#32d7ff" offset="0"/>
   <stop id="stop863" stop-color="#329bff" offset="1"/>
  </linearGradient>
  <style id="style866" type="text/css"/>
  <style id="style868" type="text/css"/>
  <style id="style870" type="text/css"/>
  <style id="style872" type="text/css"/>
  <style id="style874" type="text/css"/>
  <style id="style876" type="text/css"/>
  <style id="style878" type="text/css"/>
  <style id="style986" type="text/css"/>
  <style id="style996" type="text/css"/>
  <style id="style998" type="text/css"/>
  <style id="style1000" type="text/css"/>
  <style id="style1002" type="text/css"/>
  <style id="style1004" type="text/css"/>
  <style id="style1006" type="text/css"/>
  <style id="style1008" type="text/css"/>
 </defs>
 <circle id="circle882" cx="-1124.8" cy="-1279.3" r="0" fill="#5e4aa6"/>
 <circle id="circle884" cx="-1006.3" cy="-1318.6" r="0" fill="#5e4aa6"/>
 <circle id="circle886" cx="93.192" cy="-53.109" r="0" fill="#5e4aa6" fill-rule="evenodd"/>
 <circle id="circle888" cx="-927.84" cy="-1390.1" r="0" fill="#5e4aa6"/>
 <circle id="circle890" cx="171.69" cy="-124.58" r="0" fill="#5e4aa6" fill-rule="evenodd"/>
 <rect id="rect894" x="4.5" y="4.5" width="55" height="55" ry="15" fill="#141414" filter="url(#filter1057)" opacity=".3" stroke-linecap="round" stroke-width="2.7444"/>
 <rect id="rect896" x="4.5" y="4.5" width="55" height="55" ry="15" fill="url(#linearGradient1053)" stroke-linecap="round" stroke-width="2.7444"/>
 <g id="g982" transform="matrix(1.2767 0 0 1.2767 -8.2145 -971.45)">
  <path id="path954" d="m23.5 788 4.103-1.017-1.103 8.303" fill="#98d8ff"/>
  <path id="path956" d="m22.5 793.5 1-5.5 7.5 4-1 5.5z" fill="#bae4ff"/>
  <path id="path958" d="m33 776.5 7-2-3 21-7 2z" fill="#fff"/>
  <circle id="circle960" cx="40" cy="774.5" r="1.5" fill="#bae4ff"/>
  <circle id="circle962" cx="40" cy="774.5" r=".5" fill="#f9f9f9"/>
  <circle id="circle964" cx="33" cy="776.5" r="1.5" fill="#bae4ff"/>
  <circle id="circle966" cx="33" cy="776.5" r=".5" fill="#f9f9f9"/>
  <circle id="circle968" cx="30" cy="797.5" r="1.5" fill="#bae4ff"/>
  <circle id="circle970" cx="30" cy="797.5" r=".5" fill="#f9f9f9"/>
  <circle id="circle972" cx="37" cy="795.5" r="1.5" fill="#bae4ff"/>
  <circle id="circle974" cx="37" cy="795.5" r=".5" fill="#f9f9f9"/>
  <circle id="circle976" cx="23.5" cy="788" r="1" fill="#fff"/>
  <circle id="circle978" cx="22.5" cy="793.5" r="1" fill="#fff"/>
  <circle id="circle980" cx="27.5" cy="787" r="1" fill="#fff"/>
 </g>
</svg>
