<?xml version="1.0" encoding="UTF-8"?>
<svg id="svg27" width="64" height="64" version="1.1" viewBox="0 0 64 64" xml:space="preserve" xmlns="http://www.w3.org/2000/svg" xmlns:xlink="http://www.w3.org/1999/xlink"><defs id="defs7"><linearGradient id="linearGradient3830" x1="-60.494" x2="-60.494" y1="19.689" y2="38.713" gradientTransform="matrix(1.4327 0 0 1.4327 13.075 -2.2976)" gradientUnits="userSpaceOnUse"><stop id="stop3824" stop-color="#ccd3d3" offset="0"/><stop id="stop3826" stop-color="#677979" offset="1"/></linearGradient><filter id="filter1057-3" x="-.027" y="-.027" width="1.054" height="1.054" color-interpolation-filters="sRGB"><feGaussianBlur id="feGaussianBlur11527" stdDeviation="0.61875"/></filter><linearGradient id="linearGradient11843" x1="4.4995" x2="59.5" y1="59.5" y2="4.4995" gradientUnits="userSpaceOnUse"><stop id="stop11837" stop-color="#e0e2e4" offset="0"/><stop id="stop11839" stop-color="#eff1f3" stop-opacity=".99608" offset="1"/></linearGradient></defs><rect id="rect11537" x="4.5" y="4.5" width="55" height="55" ry="15" fill="#141414" filter="url(#filter1057-3)" opacity=".3" stroke-linecap="round" stroke-width="2.7444"/><rect id="rect11539" x="4.4995" y="4.4995" width="55.001" height="55.001" ry="15" fill="url(#linearGradient11843)" stroke-linecap="round" stroke-width="2.7444"/><g id="g10510" transform="matrix(.71429 0 0 .71429 74.99 9.1429)"><path id="path21" d="m-84.826 17.44h49.258l-24.618 42.56-24.64-13.44z" fill="#394d4d" stroke-width="2.24"/><path id="path23" d="m-35.546 17.44-24.64 13.44v29.12l24.64-13.44z" fill="#1a2828" stroke-width="2.24"/><path id="path25" d="m-84.826 17.44 24.64-13.44 24.64 13.44-24.64 13.44z" fill="#2b3c3c" stroke-width="2.24"/><path id="path3663" d="m-79.461 25.911c-3.699-0.02398-3.5201 3.8839-3.5201 3.8839l5.4341 3.6488-0.1483-1.8664c5.7855 0.81044 9.1892 4.3295 9.1892 7.2585 0 2.929-7.1549 1.9531-7.1549 1.9531v2.468l5.5264 3.1927v-1.8608c0 2e-6 7.6222 1.4407 7.6222-3.9622 0-5.4029-8.5213-11.92-13.719-13.974-1.3167-0.52041-2.3755-0.73598-3.2291-0.74152zm3.6768 20.119v3.8699l5.6523 3.2655v-3.8335z" fill="url(#linearGradient3830)"/></g></svg>
