<?xml version="1.0" encoding="UTF-8"?>
<svg id="svg266" width="512" height="512" version="1.1" viewBox="0 0 64 64" xmlns="http://www.w3.org/2000/svg">
 <defs id="defs254">
  <linearGradient id="linearGradient1092" x1="7.9373" x2="7.9373" y1="15.081" y2="1.852" gradientTransform="scale(3.7796)" gradientUnits="userSpaceOnUse">
   <stop id="stop244" stop-color="#f4460c" offset=".01"/>
   <stop id="stop246" stop-color="#fba31f" offset=".99271"/>
  </linearGradient>
  <linearGradient id="linearGradient1138" x1="399.57" x2="399.57" y1="545.8" y2="517.8" gradientTransform="matrix(2.1429,0,0,2.1429,-826.36,-1107.5)" gradientUnits="userSpaceOnUse">
   <stop id="stop249" stop-color="#3889e9" offset="0"/>
   <stop id="stop251" stop-color="#5ea5fb" offset="1"/>
  </linearGradient>
  <filter id="filter3534" x="-.048" y="-.048" width="1.096" height="1.096" color-interpolation-filters="sRGB">
   <feGaussianBlur id="feGaussianBlur3536" stdDeviation="1.12004"/>
  </filter>
  <filter id="filter1045" x="-.065948" y="-.086932" width="1.1319" height="1.1739" color-interpolation-filters="sRGB">
   <feGaussianBlur id="feGaussianBlur1047" stdDeviation="0.85334969"/>
  </filter>
 </defs>
 <rect id="rect256" width="64" height="64" rx="0" ry="0" fill="none" stroke-linecap="round" stroke-linejoin="round" stroke-width="1.4464" style="paint-order:stroke fill markers"/>
 <rect id="rect260-5" x="3.999" y="3.999" width="56.002" height="56.002" rx="13.002" ry="13.002" filter="url(#filter3534)" opacity=".3" stroke-width="3.7796"/>
 <rect id="rect260" x="4" y="3.9686" width="56.002" height="56.002" rx="13.002" ry="13.002" fill="url(#linearGradient1092)" stroke-width="3.7796"/>
 <circle id="circle262" cx="32.02" cy="32.044" r="30.001" fill-opacity="0" stroke-width="1.5715"/>
 <circle id="circle264" cx="32.02" cy="32.044" r="0" fill="url(#linearGradient1138)" stroke-width="1.5715"/>
 <path id="path9-3" transform="matrix(1.3397 0 0 1.3397 -10.872 -11.296)" d="m43.244 21.47c-2.3495 0-4.2835 1.934-4.2835 4.2835s1.934 4.2835 4.2835 4.2835 4.2835-1.934 4.2835-4.2835-1.934-4.2835-4.2835-4.2835zm-9.5371 0.0771c-0.10173-0.0022-0.20239 0-0.30306 0.0042-1.4553 0.06854-2.78 0.87597-3.5082 2.1374-0.57291 0.99484-0.72176 2.1803-0.41442 3.2865l-5.6692 3.2747c-0.80529-0.82028-1.9072-1.2829-3.0563-1.284-2.3506 0-4.2835 1.934-4.2835 4.2835 0 2.3506 1.9329 4.2835 4.2835 4.2835 1.148-1e-3 2.2488-0.46368 3.053-1.284l5.6702 3.2758c-0.30734 1.1062-0.15742 2.2906 0.4155 3.2854 0.7646 1.3236 2.1814 2.1428 3.7106 2.1428 0.75175 0 1.4906-0.19811 2.1417-0.57398 1.3247-0.7646 2.1428-2.1814 2.1428-3.7106 0-0.75175-0.19811-1.4906-0.57398-2.1417-0.7646-1.3236-2.1814-2.1417-3.7095-2.1417-0.75175 0-1.4917 0.19811-2.1428 0.57506-0.33625 0.19383-0.64359 0.43156-0.91559 0.70891l-5.6702-3.2736c0.10494-0.37373 0.15956-0.75924 0.16063-1.1458 0-0.38765-0.05248-0.77316-0.15635-1.1458l5.6702-3.2736c0.26986 0.27628 0.5772 0.51509 0.91131 0.70891 0.65108 0.37694 1.3911 0.57506 2.1428 0.57506 1.5281 0 2.9449-0.81814 3.7095-2.1417 0.37587-0.65109 0.57398-1.39 0.57398-2.1417 0-1.5292-0.81814-2.946-2.1428-3.7105-0.6211-0.35874-1.3236-0.55578-2.0411-0.57291zm9.5371 14.915c-2.3505 0-4.2835 1.934-4.2835 4.2835 0 2.3506 1.9329 4.2835 4.2835 4.2835 2.3495 0 4.2835-1.9329 4.2835-4.2835 0-2.3495-1.934-4.2835-4.2835-4.2835z" fill="#090909" filter="url(#filter1045)" opacity=".35" stroke-width="1.0709"/>
 <path id="path9" d="m47.064 15.793c-3.1477 0-5.7388 2.5911-5.7388 5.7388s2.5911 5.7388 5.7388 5.7388 5.7388-2.5911 5.7388-5.7388-2.5911-5.7388-5.7388-5.7388zm-12.777 0.10329c-0.13629-0.0029-0.27115 0-0.40602 0.0056-1.9497 0.09183-3.7245 1.1736-4.7001 2.8636-0.76755 1.3328-0.96697 2.921-0.55521 4.403l-7.5952 4.3872c-1.0789-1.099-2.5551-1.7187-4.0946-1.7202-3.1492 0-5.7388 2.5911-5.7388 5.7388 0 3.1492 2.5896 5.7388 5.7388 5.7388 1.538-0.0013 3.0128-0.62121 4.0902-1.7202l7.5966 4.3887c-0.41176 1.482-0.2109 3.0688 0.55666 4.4016 1.0244 1.7733 2.9225 2.8708 4.9712 2.8708 1.0071 0 1.997-0.26542 2.8693-0.76898 1.7748-1.0244 2.8708-2.9225 2.8708-4.9712 0-1.0071-0.26542-1.997-0.76898-2.8693-1.0244-1.7733-2.9225-2.8693-4.9698-2.8693-1.0071 0-1.9985 0.26542-2.8708 0.77043-0.45049 0.25968-0.86224 0.57818-1.2267 0.94975l-7.5966-4.3858c0.14059-0.5007 0.21377-1.0172 0.2152-1.5351 0-0.51935-0.07031-1.0358-0.20947-1.5351l7.5966-4.3858c0.36154 0.37014 0.7733 0.69009 1.2209 0.94975 0.87228 0.505 1.8637 0.77043 2.8708 0.77043 2.0473 0 3.9454-1.0961 4.9698-2.8693 0.50357-0.87229 0.76898-1.8622 0.76898-2.8693 0-2.0487-1.0961-3.9469-2.8708-4.9711-0.83211-0.48062-1.7733-0.7446-2.7345-0.76755zm12.777 19.982c-3.1491 0-5.7388 2.5911-5.7388 5.7388 0 3.1492 2.5896 5.7388 5.7388 5.7388 3.1477 0 5.7388-2.5896 5.7388-5.7388 0-3.1477-2.5911-5.7388-5.7388-5.7388z" fill="#fff" stroke-width="1.0709"/>
</svg>
