<?xml version="1.0" encoding="UTF-8"?>
<svg id="svg65" width="64" height="64" version="1.1" viewBox="0 0 64 64" xmlns="http://www.w3.org/2000/svg" xmlns:cc="http://creativecommons.org/ns#" xmlns:dc="http://purl.org/dc/elements/1.1/" xmlns:rdf="http://www.w3.org/1999/02/22-rdf-syntax-ns#">
 <metadata id="metadata69">
  <rdf:RDF>
   <cc:Work rdf:about="">
    <dc:format>image/svg+xml</dc:format>
    <dc:type rdf:resource="http://purl.org/dc/dcmitype/StillImage"/>
    <dc:title/>
   </cc:Work>
  </rdf:RDF>
 </metadata>
 <defs id="defs7">
  <style id="style858" type="text/css"/>
  <filter id="filter1057" x="-.027" y="-.027" width="1.054" height="1.054" color-interpolation-filters="sRGB">
   <feGaussianBlur id="feGaussianBlur860" stdDeviation="0.61875"/>
  </filter>
  <linearGradient id="linearGradient1053" x1="-127" x2="-127" y1="60" y2="5" gradientTransform="translate(131.5 -.51)" gradientUnits="userSpaceOnUse">
   <stop id="stop863" stop-color="#32d7ff" offset="0"/>
   <stop id="stop865" stop-color="#329bff" offset="1"/>
  </linearGradient>
  <style id="style868" type="text/css"/>
  <style id="style870" type="text/css"/>
  <style id="style872" type="text/css"/>
  <style id="style874" type="text/css"/>
  <style id="style876" type="text/css"/>
  <style id="style878" type="text/css"/>
  <style id="style880" type="text/css"/>
 </defs>
 <circle id="circle884" cx="-1124.8" cy="-1279.3" r="0" fill="#5e4aa6"/>
 <g id="g894" transform="matrix(3.7796,0,0,3.7796,123.83,-38.184)" fill="#5e4aa6" stroke-width=".26458">
  <circle id="circle886" cx="-299.02" cy="-338.77" r="0"/>
  <circle id="circle888" cx="-8.1062" cy="-3.9487" r="0" fill-rule="evenodd"/>
  <circle id="circle890" cx="-278.25" cy="-357.69" r="0"/>
  <circle id="circle892" cx="12.663" cy="-22.859" r="0" fill-rule="evenodd"/>
 </g>
 <rect id="rect896" x="4.5" y="4.5" width="55" height="55" ry="15" fill="#141414" filter="url(#filter1057)" opacity=".3" stroke-linecap="round" stroke-width="2.7444"/>
 <rect id="rect898" x="4.5" y="4.5" width="55" height="55" ry="15" fill="url(#linearGradient1053)" stroke-linecap="round" stroke-width="2.7444"/>
 <g id="g985" transform="matrix(1.151 0 0 1.151 -77.03 -7.0253)" fill="#fff" stroke-width="1.0114">
  <path id="path957" d="m96.676 26.162c-0.28522-2.828-2.7663-5.2574-5.4021-5.2574-2.6924 0-5.1674 0.93153-7.1377 2.479-0.52291-0.01618-1.1207 0.04147-1.7447 0.19116-1.7569 0.41975-3.0353 1.3725-2.8553 2.1281 0.11935 0.50066 0.85365 0.78285 1.8398 0.79904-1.062 1.7498-1.6851 3.7939-1.6851 5.9857 0 4.244 2.303 7.9448 5.7166 9.9586-0.33984 0.36816-0.65238 0.884-0.87085 1.501-0.48549 1.3705-0.32164 2.6763 0.36311 2.918 0.68474 0.24274 1.6314-0.67159 2.1169-2.0411 0.10317-0.29534 0.17194-0.58562 0.21746-0.86478 0.26904 0.08901 0.5573 0.16385 0.8668 0.20836 1.4383 0.20734 2.6874-0.20734 2.7916-0.92648 0.10317-0.71812-0.97705-1.4706-2.4163-1.678-0.61596-0.08901-1.1925-0.05866-1.6638 0.05664-0.02124-0.07485-0.86781-1.6143-0.94165-2.8088-0.09508-1.5546 0.36816-3.0899 1.3766-4.2753 0.39446-0.46122 0.86882-0.83241 1.3745-1.148-0.09103 1.2178 0.19116 2.1675 0.76566 2.3111 0.75352 0.18914 1.7205-1.0802 2.1594-2.831 0.03742-0.1507 0.06473-0.29837 0.09204-0.44604l0.40053-0.06979c2.8431-0.60383 4.9368-3.2184 4.6364-6.19z"/>
  <path id="path959" d="m92.769 41.647c0.28522 2.828 2.7663 5.2574 5.4021 5.2574 2.6924 0 5.1674-0.93153 7.1377-2.479 0.52393 0.01618 1.1207-0.04147 1.7457-0.19015 1.7569-0.41975 3.0353-1.3735 2.8553-2.1291-0.11935-0.50066-0.85365-0.78285-1.8398-0.79904 1.062-1.7498 1.685-3.7929 1.685-5.9847 0-4.244-2.303-7.9448-5.7166-9.9586 0.33984-0.36816 0.65339-0.884 0.87085-1.501 0.48448-1.3705 0.32163-2.6763-0.36311-2.918-0.68474-0.24274-1.6314 0.67159-2.1169 2.0411-0.10316 0.29534-0.17194 0.58562-0.21746 0.86377-0.26904-0.08901-0.5573-0.16385-0.8668-0.20836-1.4383-0.20734-2.6874 0.20734-2.7916 0.92648-0.10317 0.71812 0.97705 1.4706 2.4163 1.678 0.61597 0.08901 1.1925 0.05866 1.6648-0.05664 0.0212 0.07485 0.86781 1.6143 0.94164 2.8088 0.0951 1.5546-0.36816 3.0899-1.3766 4.2753-0.39446 0.46223-0.86782 0.83444-1.3735 1.15 0.091-1.2178-0.19015-2.1675-0.76566-2.3111-0.75352-0.18813-1.7205 1.0802-2.1594 2.831-0.03742 0.1507-0.06473 0.29837-0.09204 0.44604l-0.40053 0.06979c-2.8472 0.6018-4.9399 3.2174-4.6395 6.188z"/>
 </g>
</svg>
