<?xml version="1.0" encoding="UTF-8"?>
<svg id="svg22" width="64" height="64" version="1.1" viewBox="0 0 64 64" xmlns="http://www.w3.org/2000/svg" xmlns:cc="http://creativecommons.org/ns#" xmlns:dc="http://purl.org/dc/elements/1.1/" xmlns:rdf="http://www.w3.org/1999/02/22-rdf-syntax-ns#" xmlns:xlink="http://www.w3.org/1999/xlink">
 <metadata id="metadata28">
  <rdf:RDF>
   <cc:Work rdf:about="">
    <dc:format>image/svg+xml</dc:format>
    <dc:type rdf:resource="http://purl.org/dc/dcmitype/StillImage"/>
    <dc:title/>
   </cc:Work>
  </rdf:RDF>
 </metadata>
 <defs id="defs26">
  <style id="style855" type="text/css"/>
  <style id="style857" type="text/css"/>
  <style id="style859" type="text/css"/>
  <style id="style864" type="text/css"/>
  <filter id="filter1057" x="-.027" y="-.027" width="1.054" height="1.054" color-interpolation-filters="sRGB">
   <feGaussianBlur id="feGaussianBlur866" stdDeviation="0.61875"/>
  </filter>
  <style id="style874" type="text/css"/>
  <style id="style876" type="text/css"/>
  <style id="style878" type="text/css"/>
  <style id="style880" type="text/css"/>
  <style id="style882" type="text/css"/>
  <style id="style884" type="text/css"/>
  <style id="style886" type="text/css"/>
  <linearGradient id="linearGradient2652" x1="59.5" x2="4.5" y1="4.5" y2="59.5" gradientUnits="userSpaceOnUse">
   <stop id="stop2646" stop-color="#ff6969" offset="0"/>
   <stop id="stop5558" stop-color="#ee528b" offset=".34635"/>
   <stop id="stop6286" stop-color="#766bd3" offset=".62106"/>
   <stop id="stop2648" stop-color="#2c7bff" offset="1"/>
  </linearGradient>
 </defs>
 <g id="g914" fill="#5e4aa6">
  <circle id="circle890" cx="-1202" cy="-1306.3" r="0"/>
  <g id="g900" transform="matrix(3.7796,0,0,3.7796,46.634,-65.215)" stroke-width=".26458">
   <circle id="circle892" cx="-299.02" cy="-338.77" r="0"/>
   <circle id="circle894" cx="-8.1062" cy="-3.9487" r="0" fill-rule="evenodd"/>
   <circle id="circle896" cx="-278.25" cy="-357.69" r="0"/>
   <circle id="circle898" cx="12.663" cy="-22.859" r="0" fill-rule="evenodd"/>
  </g>
  <circle id="circle902" cx="-1124.8" cy="-1279.3" r="0"/>
  <g id="g912">
   <circle id="circle904" cx="-1006.3" cy="-1318.6" r="0"/>
   <circle id="circle906" cx="93.192" cy="-53.109" r="0" fill-rule="evenodd"/>
   <circle id="circle908" cx="-927.84" cy="-1390.1" r="0"/>
   <circle id="circle910" cx="171.69" cy="-124.58" r="0" fill-rule="evenodd"/>
  </g>
 </g>
 <rect id="rect916" x="4.5" y="4.5" width="55" height="55" ry="15" fill="#141414" filter="url(#filter1057)" opacity=".3" stroke-linecap="round" stroke-width="2.7444"/>
 <rect id="rect918" x="4.5" y="4.5" width="55" height="55" ry="15" fill="url(#linearGradient2652)" stroke-linecap="round" stroke-width="2.744"/>
 <text id="text922" x="-4.9240799" y="16.420322"><tspan id="tspan920" x="-4.9240799" y="16.420322"/></text>
 <g id="g966" fill="#5e4aa6">
  <g id="g932" transform="matrix(3.7796 0 0 3.7796 .019246 -.0012424)" stroke-width=".26458">
   <circle id="circle924" cx="-330.35" cy="-328.38" r="0"/>
   <circle id="circle926" cx="-39.434" cy="6.44" r="0" fill-rule="evenodd"/>
   <circle id="circle928" cx="-330.38" cy="-328.5" r="0"/>
   <circle id="circle930" cx="-301.7" cy="-344.43" r="0"/>
  </g>
  <circle id="circle934" cx="-1274.8" cy="-1318.1" r="0"/>
  <g id="g944" transform="matrix(3.7796,0,0,3.7796,-112.84,-73.605)" image-rendering="optimizeSpeed" stroke-width=".26458">
   <circle id="circle936" cx="-330.35" cy="-328.38" r="0"/>
   <circle id="circle938" cx="-312.11" cy="-326.25" r="0"/>
   <circle id="circle940" cx="-306.02" cy="-333.07" r="0"/>
   <circle id="circle942" cx="-308.84" cy="-326.01" r="0"/>
  </g>
  <g id="g952" image-rendering="optimizeSpeed">
   <circle id="circle946" cx="-1160" cy="-1257.6" r="0"/>
   <circle id="circle948" cx="-1160" cy="-1257.6" r="0"/>
   <circle id="circle950" cx="-1244.2" cy="-1289.6" r="0"/>
  </g>
  <circle id="circle954" cx="-1124.8" cy="-1279.3" r="0" image-rendering="optimizeSpeed"/>
  <g id="g964" transform="matrix(3.7796,0,0,3.7796,123.83,-38.184)" image-rendering="optimizeSpeed" stroke-width=".26458">
   <circle id="circle956" cx="-299.02" cy="-338.77" r="0"/>
   <circle id="circle958" cx="-8.1062" cy="-3.9487" r="0" fill-rule="evenodd"/>
   <circle id="circle960" cx="-278.25" cy="-357.69" r="0"/>
   <circle id="circle962" cx="12.663" cy="-22.859" r="0" fill-rule="evenodd"/>
  </g>
 </g>
 <path id="path1106" d="m28.95 23.937-16.056 16.999 14.612-8.017 7.6345 8.017 15.965-16.999-14.45 7.8766z" fill="#fff" stroke-width="1.25"/>
</svg>
