<?xml version="1.0" encoding="UTF-8"?>
<svg id="svg32" width="64" height="64" enable-background="new 0 0 64 64" version="1.1" viewBox="0 0 64 64" xmlns="http://www.w3.org/2000/svg" xmlns:cc="http://creativecommons.org/ns#" xmlns:dc="http://purl.org/dc/elements/1.1/" xmlns:rdf="http://www.w3.org/1999/02/22-rdf-syntax-ns#" xmlns:xlink="http://www.w3.org/1999/xlink">
 <metadata id="metadata38">
  <rdf:RDF>
   <cc:Work rdf:about="">
    <dc:format>image/svg+xml</dc:format>
    <dc:type rdf:resource="http://purl.org/dc/dcmitype/StillImage"/>
    <dc:title/>
   </cc:Work>
  </rdf:RDF>
 </metadata>
 <defs id="defs36">
  <filter id="filter1057-2" x="-.027" y="-.027" width="1.054" height="1.054" color-interpolation-filters="sRGB">
   <feGaussianBlur id="feGaussianBlur1059-7" stdDeviation="0.61875"/>
  </filter>
  <linearGradient id="linearGradient1053-0" x1="-127" x2="-127" y1="60" y2="5" gradientTransform="translate(131.5 -.51)" gradientUnits="userSpaceOnUse">
   <stop id="stop1047" stop-color="#dee0e2" offset="0"/>
   <stop id="stop1049" stop-color="#f1f3f5" stop-opacity=".99608" offset="1"/>
  </linearGradient>
  <linearGradient id="linearGradient1001" x1="23.933" x2="8.7912" y1="46.116" y2="7.6057" gradientTransform="translate(98.93)" gradientUnits="userSpaceOnUse" xlink:href="#a"/>
 </defs>
 <linearGradient id="a" x1="23.933" x2="8.7912" y1="46.116" y2="7.6057" gradientUnits="userSpaceOnUse">
  <stop id="stop2" stop-color="#333" offset="0"/>
  <stop id="stop4" stop-color="#4d4d4d" offset="1"/>
 </linearGradient>
 <radialGradient id="b" cx="47.015" cy="40.967" r="15.734" gradientTransform="matrix(-.29612 -.086209 -.086209 .29612 154.08 17.681)" gradientUnits="userSpaceOnUse">
  <stop id="stop7" stop-color="#ffce31" offset="0"/>
  <stop id="stop9" stop-color="#ffd42a" offset="1"/>
 </radialGradient>
 <radialGradient id="c" cx="47.015" cy="40.967" r="15.734" gradientTransform="matrix(-.43611 -.12697 -.12697 .43611 162.31 13.869)" gradientUnits="userSpaceOnUse">
  <stop id="stop12" stop-color="#ed4c5c" offset="0"/>
  <stop id="stop14" stop-color="#f55" offset="1"/>
 </radialGradient>
 <linearGradient id="d" x1="29.598" x2="24.622" y1="26.466" y2="4.5897" gradientTransform="matrix(.67524 .66559 .71395 -.6295 91.942 14.254)" gradientUnits="userSpaceOnUse">
  <stop id="stop17" stop-color="#241f1c" offset="0"/>
  <stop id="stop19" stop-color="#4d4d4d" offset="1"/>
 </linearGradient>
 <rect id="rect1055-6" x="4.5" y="4.5" width="55" height="55" ry="15" fill="#141414" filter="url(#filter1057-2)" opacity=".3" stroke-linecap="round" stroke-width="2.7444"/>
 <rect id="rect1045-0" x="4.5" y="4.5" width="55" height="55" ry="15" fill="url(#linearGradient1053-0)" stroke-linecap="round" stroke-width="2.7444"/>
 <g id="g1021" transform="matrix(.81818 0 0 .81818 -66.99 12.364)">
  <circle id="circle22" cx="121.79" cy="26.346" r="19.654" fill="url(#linearGradient1001)"/>
  <path id="path24" d="m109.55 2.0708c6.7989-1.1201 19.345 11.247 27.654 23.419l-1.7076 0.87665c-7.8638-11.307-19.741-22.936-25.358-22.073-3.0828 0.51668-4.0765 4.804-3.8672 8.7078l-1.797 0.0088c-0.33276-7.3207 2.2808-10.227 5.0752-10.94z" fill="url(#d)"/>
  <path id="path26" d="m102.63 12.016 5.3601-5.2707 3.3947 3.3054-5.4494 5.2707z" fill="url(#linearGradient1001)"/>
  <path id="path28" d="m130.61 29.679c4e-3 0.0068 3.8887-1.1498 3.8952-1.145 7e-3 0.0048 0.0993 4.0942 0.1071 4.0965 8e-3 0.0022 2.2692-3.4064 2.2773-3.407 8e-3 -5.78e-4 2.6753 3.0505 2.6828 3.0472 7e-3 -0.0033-0.41208-4.0691-0.40623-4.0748 6e-3 -0.0057 3.9995 0.57944 4.0031 0.57206 4e-3 -0.0074-2.9006-2.8278-2.8997-2.8359 9e-4 -0.0081 3.4523-2.1628 3.4504-2.1707-2e-3 -0.0079-4.0318-0.26333-4.0363-0.27012-4e-3 -0.0068 1.2897-3.893 1.2832-3.8978-7e-3 -0.0048-3.2766 2.4243-3.2843 2.4221-8e-3 -0.0022-1.4764-3.8016-1.4844-3.8011-8e-3 5.78e-4 -0.98816 3.9776-0.99557 3.981-7e-3 0.0033-3.5516-1.9315-3.5575-1.9258-6e-3 0.0057 1.7626 3.6697 1.759 3.6771-4e-3 0.0074-3.965 0.84248-3.9659 0.85063-9e-4 0.0082 3.6886 1.6447 3.6906 1.6527 2e-3 0.0079-2.5232 3.2222-2.5187 3.229z" fill="url(#c)" stroke-width=".45764"/>
  <path id="path30" d="m132.56 28.416 2.6448-0.77747 0.0727 2.7815 1.5463-2.3133 1.8216 2.069-0.27582-2.7667 2.7181 0.38842-1.9688-1.9256 2.3428-1.4739-2.7406-0.18341 0.87126-2.6466-2.23 1.6446-1.0079-2.5809-0.67599 2.703-2.4155-1.3076 1.1944 2.4967-2.6928 0.57757 2.5059 1.1222z" fill="url(#b)" stroke-width=".31073"/>
 </g>
</svg>
