<?xml version="1.0" encoding="UTF-8"?>
<svg id="svg6" width="512" height="512" version="1.1" viewBox="0 0 33.867 33.867" xmlns="http://www.w3.org/2000/svg" xmlns:cc="http://creativecommons.org/ns#" xmlns:dc="http://purl.org/dc/elements/1.1/" xmlns:rdf="http://www.w3.org/1999/02/22-rdf-syntax-ns#">
 <metadata id="metadata43">
  <rdf:RDF>
   <cc:Work rdf:about="">
    <dc:format>image/svg+xml</dc:format>
    <dc:type rdf:resource="http://purl.org/dc/dcmitype/StillImage"/>
    <dc:title/>
   </cc:Work>
  </rdf:RDF>
 </metadata>
 <defs id="defs2">
  <linearGradient id="linearGradient912" x1="132.21" x2="132.21" y1="42.152" y2="70.68" gradientTransform="matrix(.97573 0 0 .97573 -111.88 -37.379)" gradientUnits="userSpaceOnUse">
   <stop id="stop1626" stop-color="#c061cb" offset="0"/>
   <stop id="stop1628" stop-color="#1a5fb4" offset="1"/>
  </linearGradient>
  <filter id="filter1" x="-.074999" y="-.075001" width="1.15" height="1.15" color-interpolation-filters="sRGB">
   <feGaussianBlur id="feGaussianBlur1" stdDeviation="0.77472336"/>
  </filter>
 </defs>
 <rect id="rect910" x="2.2943" y="2.3427" width="29.087" height="29.087" rx="6.4495" ry="6.4495" fill="url(#linearGradient912)" stroke-linecap="round" stroke-linejoin="round" stroke-width="2.6877"/>
 <path id="path1006" d="m13.488 5.7555a12.396 12.396 0 0 0-8.588 15.283 12.396 12.396 0 0 0 15.284 8.5867 12.396 12.396 0 0 0 8.587-15.282 12.396 12.396 0 0 0-15.282-8.587zm-2.1601 6.5065c1.5872-0.45111 4.3476-0.79598 5.3912-0.62372 0.35898 0.05547 0.45236 0.11009 0.70407 0.40079 0.63454 0.72485 1.4997 2.3033 1.6122 2.9313 0.08797 0.48811 0.01953 0.59819-0.42901 0.66654-0.50429 0.07463-1.3341 0.15343-2.1595 0.19693-0.68824 0.03378-0.9708 0.10452-0.48677 0.12104 0.13869 0.0069 0.75348 0.02206 1.3694 0.04353l1.1142 0.03423 0.39059 0.59065c0.69635 1.0532 1.072 1.8533 1.3802 2.9299 0.25388 0.8829 0.37406 1.6702 0.30614 1.9682-0.05731 0.24994-2.3733-0.75256-3.4657-1.4974-0.39023-0.26659-0.69786-0.44195-0.68271-0.38794 0.04506 0.16062 1.1177 1.0948 1.6674 1.4534 0.60202 0.39287 1.5004 0.79452 2.0732 0.92519l0.4028 0.09308-0.06185 0.58128c-0.07296 0.68165-0.26447 1.7791-0.34856 2.0001-0.05402 0.14257-0.29718 0.12091-3.9846-0.36914-2.1567-0.28776-3.9617-0.51821-4.0074-0.5178-0.05041 0.0026-0.94439 1.9663-1.6383 3.544a11.577 11.577 0 0 1-4.7863-6.5292 11.577 11.577 0 0 1-0.31496-1.5968c0.05752-0.02325 0.73681-0.4285 1.5553-0.92487l1.5171-0.92301 1.2529 0.14934c0.68583 0.085 1.2605 0.13294 1.2753 0.11091 0.0119-0.0243-0.54454-0.14765-1.2412-0.29335-1.4682-0.28976-2.1647-0.58358-2.643-1.1199-0.27974-0.31312-0.29589-0.35403-0.31781-0.73405-0.019056-0.39479 0.1859-1.1968 0.39642-1.5293 0.1057-0.16329 0.17753-0.17748 2.1717-0.46957 1.1386-0.16787 2.1144-0.32805 2.1846-0.36018 0.06019-0.03475-0.4093-0.0099-1.0459 0.04742-0.70677 0.06461-1.1238 0.07853-1.0831 0.02129 0.16188-0.17905 0.74219-0.50255 1.3327-0.73502 0.17042-0.06762 0.3725-0.13355 0.59924-0.198z" filter="url(#filter1)" opacity=".35" stroke-width=".62832"/>
 <path id="path1006-7" d="m13.488 5.094a12.396 12.396 0 0 0-8.588 15.283 12.396 12.396 0 0 0 15.284 8.5867 12.396 12.396 0 0 0 8.587-15.282 12.396 12.396 0 0 0-15.282-8.587zm-2.1601 6.5065c1.5872-0.45111 4.3476-0.79598 5.3912-0.62372 0.35898 0.05547 0.45236 0.11009 0.70407 0.40079 0.63454 0.72485 1.4997 2.3033 1.6122 2.9313 0.08797 0.48811 0.01953 0.59819-0.42901 0.66654-0.50429 0.07463-1.3341 0.15343-2.1595 0.19693-0.68824 0.03378-0.9708 0.10452-0.48677 0.12104 0.13869 0.0069 0.75348 0.02206 1.3694 0.04353l1.1142 0.03423 0.39059 0.59065c0.69635 1.0532 1.072 1.8533 1.3802 2.9299 0.25388 0.8829 0.37406 1.6702 0.30614 1.9682-0.05731 0.24994-2.3733-0.75256-3.4657-1.4974-0.39023-0.26659-0.69786-0.44195-0.68271-0.38794 0.04506 0.16062 1.1177 1.0948 1.6674 1.4534 0.60202 0.39287 1.5004 0.79452 2.0732 0.92519l0.4028 0.09308-0.06185 0.58128c-0.07296 0.68165-0.26447 1.7791-0.34856 2.0001-0.05402 0.14257-0.29718 0.12091-3.9846-0.36914-2.1567-0.28776-3.9617-0.51821-4.0074-0.5178-0.05041 0.0026-0.94439 1.9663-1.6383 3.544a11.577 11.577 0 0 1-4.7863-6.5292 11.577 11.577 0 0 1-0.31496-1.5968c0.05752-0.02325 0.73681-0.4285 1.5553-0.92487l1.5171-0.92301 1.2529 0.14934c0.68583 0.085 1.2605 0.13294 1.2753 0.11091 0.0119-0.0243-0.54454-0.14765-1.2412-0.29335-1.4682-0.28976-2.1647-0.58358-2.643-1.1199-0.27974-0.31312-0.29589-0.35403-0.31781-0.73405-0.019056-0.39479 0.1859-1.1968 0.39642-1.5293 0.1057-0.16329 0.17753-0.17748 2.1717-0.46957 1.1386-0.16787 2.1144-0.32805 2.1846-0.36018 0.06019-0.03475-0.4093-0.0099-1.0459 0.04742-0.70677 0.06461-1.1238 0.07853-1.0831 0.02129 0.16188-0.17905 0.74219-0.50255 1.3327-0.73502 0.17042-0.06762 0.3725-0.13355 0.59924-0.198z" fill="#fff" stroke-width=".62832"/>
</svg>
