<?xml version="1.0" encoding="UTF-8" standalone="no"?>
<svg
   id="svg6"
   width="512"
   height="512"
   version="1.1"
   viewBox="0 0 33.867 33.867"
   sodipodi:docname="mono.svg"
   inkscape:version="1.4.4 (dcaf3e7d9e, 2026-05-05)"
   xmlns:inkscape="http://www.inkscape.org/namespaces/inkscape"
   xmlns:sodipodi="http://sodipodi.sourceforge.net/DTD/sodipodi-0.dtd"
   xmlns="http://www.w3.org/2000/svg"
   xmlns:svg="http://www.w3.org/2000/svg"
   xmlns:rdf="http://www.w3.org/1999/02/22-rdf-syntax-ns#"
   xmlns:cc="http://creativecommons.org/ns#"
   xmlns:dc="http://purl.org/dc/elements/1.1/">
  <sodipodi:namedview
     id="namedview1"
     pagecolor="#ffffff"
     bordercolor="#999999"
     borderopacity="1"
     inkscape:showpageshadow="2"
     inkscape:pageopacity="0"
     inkscape:pagecheckerboard="0"
     inkscape:deskcolor="#d1d1d1"
     inkscape:zoom="2.3242188"
     inkscape:cx="255.78487"
     inkscape:cy="256"
     inkscape:window-width="2560"
     inkscape:window-height="1403"
     inkscape:window-x="0"
     inkscape:window-y="0"
     inkscape:window-maximized="1"
     inkscape:current-layer="svg6" />
  <metadata
     id="metadata43">
    <rdf:RDF>
      <cc:Work
         rdf:about="">
        <dc:format>image/svg+xml</dc:format>
        <dc:type
           rdf:resource="http://purl.org/dc/dcmitype/StillImage" />
        <dc:title />
      </cc:Work>
    </rdf:RDF>
  </metadata>
  <defs
     id="defs2">
    <linearGradient
       id="linearGradient912"
       x1="132.21"
       x2="132.21"
       y1="42.152"
       y2="70.68"
       gradientTransform="matrix(0.97573,0,0,0.97573,-111.88,-37.379298)"
       gradientUnits="userSpaceOnUse">
      <stop
         id="stop1626"
         stop-color="#b055eb"
         offset="0"
         style="stop-color:#c061cb;stop-opacity:1" />
      <stop
         id="stop1628"
         stop-color="#362ae0"
         offset="1"
         style="stop-color:#1a5fb4;stop-opacity:1" />
    </linearGradient>
    <linearGradient
       id="linearGradient1984"
       x1="39.794"
       x2="39.794"
       y1="21.372"
       y2="34.602"
       gradientTransform="translate(-15.032,-3.4396)"
       gradientUnits="userSpaceOnUse">
      <stop
         id="stop1978"
         stop-color="#fff"
         offset="0" />
      <stop
         id="stop1980"
         stop-color="#d8d8d8"
         offset="1" />
    </linearGradient>
    <linearGradient
       id="linearGradient2050"
       x1="55.195"
       x2="55.195"
       y1="11.817"
       y2="26.316"
       gradientTransform="translate(-32.215,5.7144)"
       gradientUnits="userSpaceOnUse">
      <stop
         id="stop2044"
         stop-color="#d9d9d9"
         offset="0" />
      <stop
         id="stop2046"
         stop-color="#fcfcfc"
         offset="1" />
    </linearGradient>
    <radialGradient
       id="radialGradient3815-1"
       cx="24.249"
       cy="24.25"
       r="9.6332"
       gradientTransform="matrix(1.0025,0,0,1.0025,-0.18613,0.24884)"
       gradientUnits="userSpaceOnUse">
      <stop
         id="stop5461"
         offset="0" />
      <stop
         id="stop5463"
         stop-opacity=".78764"
         offset=".71616" />
      <stop
         id="stop5515"
         stop-opacity=".67451"
         offset=".74621" />
      <stop
         id="stop5517"
         stop-opacity=".61961"
         offset=".76305" />
      <stop
         id="stop5513"
         stop-opacity=".5451"
         offset=".78595" />
      <stop
         id="stop5509"
         stop-opacity=".48627"
         offset=".80683" />
      <stop
         id="stop5505"
         stop-opacity=".29804"
         offset=".86207" />
      <stop
         id="stop5503"
         stop-opacity=".18824"
         offset=".89036" />
      <stop
         id="stop5495"
         stop-opacity=".082353"
         offset=".92404" />
      <stop
         id="stop5493"
         stop-opacity=".043137"
         offset=".9429" />
      <stop
         id="stop5481"
         stop-opacity=".031373"
         offset=".95596" />
      <stop
         id="stop5483"
         stop-opacity=".027451"
         offset=".96081" />
      <stop
         id="stop5485"
         stop-opacity="0"
         offset=".99197" />
      <stop
         id="stop5487"
         stop-opacity="0"
         offset="1" />
    </radialGradient>
    <radialGradient
       id="radialGradient3771-9"
       cx="24.249"
       cy="24.25"
       r="9.6332"
       gradientTransform="matrix(0.90099,0,0,0.90099,2.9439,3.3293)"
       gradientUnits="userSpaceOnUse">
      <stop
         id="stop1444-0"
         offset="0" />
      <stop
         id="stop1452-4"
         stop-opacity=".87843"
         offset=".59155" />
      <stop
         id="stop3720"
         stop-opacity=".56471"
         offset=".64784" />
      <stop
         id="stop3811"
         stop-opacity=".52549"
         offset=".6818" />
      <stop
         id="stop3809"
         stop-opacity=".44314"
         offset=".7275" />
      <stop
         id="stop3805"
         stop-opacity=".28627"
         offset=".79465" />
      <stop
         id="stop3801"
         stop-opacity=".18431"
         offset=".84312" />
      <stop
         id="stop3797"
         stop-opacity=".078431"
         offset=".90335" />
      <stop
         id="stop3787"
         stop-opacity=".062745"
         offset=".91996" />
      <stop
         id="stop3785"
         stop-opacity=".054902"
         offset=".93104" />
      <stop
         id="stop3783"
         stop-opacity=".031373"
         offset=".95596" />
      <stop
         id="stop3781"
         stop-opacity=".027451"
         offset=".96081" />
      <stop
         id="stop3779"
         stop-opacity="0"
         offset=".99197" />
      <stop
         id="stop1446-8"
         stop-opacity="0"
         offset="1" />
    </radialGradient>
    <filter
       inkscape:collect="always"
       style="color-interpolation-filters:sRGB"
       id="filter1"
       x="-0.074998856"
       y="-0.075001144"
       width="1.1499977"
       height="1.1500023">
      <feGaussianBlur
         inkscape:collect="always"
         stdDeviation="0.77472336"
         id="feGaussianBlur1" />
    </filter>
  </defs>
  <rect
     id="rect910"
     x="2.2943001"
     y="2.3427017"
     width="29.087"
     height="29.087"
     rx="6.4495001"
     ry="6.4495001"
     fill="url(#linearGradient912)"
     stroke-linecap="round"
     stroke-linejoin="round"
     stroke-width="2.6877"
     style="fill:url(#linearGradient912)" />
  <path
     id="path1006"
     d="M 13.488495,5.7554603 A 12.395911,12.395911 0 0 0 4.9004642,21.038226 12.395911,12.395911 0 0 0 20.183987,29.62491 12.395911,12.395911 0 0 0 28.770965,14.342439 12.395911,12.395911 0 0 0 13.488495,5.7554603 Z m -2.160077,6.5064667 c 1.587184,-0.451113 4.347581,-0.795984 5.391204,-0.623715 0.358976,0.05547 0.452357,0.110094 0.704067,0.400787 0.634536,0.724847 1.499732,2.303262 1.612201,2.931315 0.08797,0.488113 0.01953,0.598192 -0.42901,0.66654 -0.504288,0.07463 -1.334136,0.153434 -2.159483,0.196927 -0.688244,0.03378 -0.970803,0.104517 -0.48677,0.121038 0.138693,0.0069 0.753485,0.02206 1.369417,0.04353 l 1.114212,0.03423 0.390586,0.590654 c 0.696353,1.05325 1.072024,1.853263 1.380242,2.929899 0.253876,0.882905 0.37406,1.670232 0.306136,1.968204 -0.05731,0.249943 -2.373349,-0.752565 -3.46566,-1.497398 -0.390228,-0.266588 -0.697858,-0.441952 -0.68271,-0.387945 0.04506,0.160624 1.117699,1.094797 1.667383,1.453404 0.602016,0.39287 1.500432,0.794516 2.073196,0.925194 l 0.402801,0.09308 -0.06185,0.581279 c -0.07296,0.681654 -0.264471,1.779117 -0.348565,2.000053 -0.05402,0.142574 -0.297178,0.120906 -3.984569,-0.369135 -2.156746,-0.287763 -3.961717,-0.518207 -4.007438,-0.517804 -0.05041,0.0026 -0.944394,1.966322 -1.638287,3.543979 A 11.576653,11.576653 0 0 1 5.6892376,20.816864 11.576653,11.576653 0 0 1 5.3742781,19.220076 c 0.05752,-0.02325 0.7368089,-0.428496 1.555323,-0.924866 l 1.5171017,-0.923007 1.2528608,0.149344 c 0.6858254,0.085 1.2605114,0.132935 1.2753224,0.110913 0.0119,-0.0243 -0.544542,-0.147653 -1.2411813,-0.293348 C 8.2655524,17.049356 7.569028,16.755537 7.0907152,16.219215 6.8109721,15.906098 6.7948204,15.865181 6.772909,15.485165 6.753853,15.090376 6.9588055,14.288362 7.1693335,13.955835 7.2750371,13.792546 7.3468657,13.77836 9.3410003,13.486267 c 1.1385827,-0.167869 2.1143637,-0.328051 2.1845957,-0.360185 0.06019,-0.03475 -0.409305,-0.0099 -1.045873,0.04742 -0.7067664,0.06461 -1.1237615,0.07853 -1.0830941,0.02129 0.1618833,-0.179047 0.7421861,-0.502551 1.3327231,-0.735016 0.170416,-0.06762 0.372498,-0.133547 0.599239,-0.198 z"
     fill="#ffffff"
     opacity="0.99"
     stroke-width="0.628316"
     style="fill:#000000;fill-opacity:1;filter:url(#filter1);opacity:0.35" />
  <path
     id="path1006-7"
     d="M 13.488495,5.0939953 A 12.395911,12.395911 0 0 0 4.9004642,20.376761 12.395911,12.395911 0 0 0 20.183987,28.963445 12.395911,12.395911 0 0 0 28.770965,13.680974 12.395911,12.395911 0 0 0 13.488495,5.0939953 Z m -2.160077,6.5064667 c 1.587184,-0.451113 4.347581,-0.795984 5.391204,-0.623715 0.358976,0.05547 0.452357,0.110094 0.704067,0.400787 0.634536,0.724847 1.499732,2.303262 1.612201,2.931315 0.08797,0.488113 0.01953,0.598192 -0.42901,0.66654 -0.504288,0.07463 -1.334136,0.153434 -2.159483,0.196927 -0.688244,0.03378 -0.970803,0.104517 -0.48677,0.121038 0.138693,0.0069 0.753485,0.02206 1.369417,0.04353 l 1.114212,0.03423 0.390586,0.590654 c 0.696353,1.05325 1.072024,1.853263 1.380242,2.929899 0.253876,0.882905 0.37406,1.670232 0.306136,1.968204 -0.05731,0.249943 -2.373349,-0.752565 -3.46566,-1.497398 -0.390228,-0.266588 -0.697858,-0.441952 -0.68271,-0.387945 0.04506,0.160624 1.117699,1.094797 1.667383,1.453404 0.602016,0.39287 1.500432,0.794516 2.073196,0.925194 l 0.402801,0.09308 -0.06185,0.581279 c -0.07296,0.681654 -0.264471,1.779117 -0.348565,2.000053 -0.05402,0.142574 -0.297178,0.120906 -3.984569,-0.369135 -2.156746,-0.287763 -3.961717,-0.518207 -4.007438,-0.517804 -0.05041,0.0026 -0.944394,1.966322 -1.638287,3.543979 A 11.576653,11.576653 0 0 1 5.6892376,20.155399 11.576653,11.576653 0 0 1 5.3742781,18.558611 c 0.05752,-0.02325 0.7368089,-0.428496 1.555323,-0.924866 l 1.5171017,-0.923007 1.2528608,0.149344 c 0.6858254,0.085 1.2605114,0.132935 1.2753224,0.110913 0.0119,-0.0243 -0.544542,-0.147653 -1.2411813,-0.293348 C 8.2655524,16.387891 7.569028,16.094072 7.0907152,15.55775 6.8109721,15.244633 6.7948204,15.203716 6.772909,14.8237 6.753853,14.428911 6.9588055,13.626897 7.1693335,13.29437 c 0.1057036,-0.163289 0.1775322,-0.177475 2.1716668,-0.469568 1.1385827,-0.167869 2.1143637,-0.328051 2.1845957,-0.360185 0.06019,-0.03475 -0.409305,-0.0099 -1.045873,0.04742 -0.7067664,0.06461 -1.1237615,0.07853 -1.0830941,0.02129 0.1618833,-0.179047 0.7421861,-0.502551 1.3327231,-0.735016 0.170416,-0.06762 0.372498,-0.133547 0.599239,-0.198 z"
     fill="#ffffff"
     opacity="0.99"
     stroke-width="0.628316"
     style="opacity:1" />
</svg>
