<?xml version="1.0" encoding="UTF-8"?>
<svg id="svg13" width="64" height="64" version="1.1" xml:space="preserve" xmlns="http://www.w3.org/2000/svg" xmlns:cc="http://creativecommons.org/ns#" xmlns:dc="http://purl.org/dc/elements/1.1/" xmlns:rdf="http://www.w3.org/1999/02/22-rdf-syntax-ns#" xmlns:xlink="http://www.w3.org/1999/xlink"><metadata id="metadata19"><rdf:RDF><cc:Work rdf:about=""><dc:format>image/svg+xml</dc:format><dc:type rdf:resource="http://purl.org/dc/dcmitype/StillImage"/></cc:Work></rdf:RDF></metadata><defs id="defs17"><style id="style4" type="text/css"/><style id="style6" type="text/css"/><style id="style8" type="text/css"/><style id="style14" type="text/css"/><style id="style16" type="text/css"/><filter id="filter1057-2" x="-.027" y="-.027" width="1.054" height="1.054" color-interpolation-filters="sRGB"><feGaussianBlur id="feGaussianBlur1059-7" stdDeviation="0.61875"/></filter><linearGradient id="linearGradient1182" x1="-127" x2="-127" y1="60" y2="5" gradientTransform="translate(131.5 -.51)" gradientUnits="userSpaceOnUse"><stop id="stop1047-3" stop-color="#1d1f22" offset="0"/><stop id="stop1049-6" stop-color="#2e3f4d" stop-opacity=".99608" offset="1"/></linearGradient></defs><rect id="rect1055-1" x="4.5" y="4.5" width="55" height="55" ry="15" fill="#141414" filter="url(#filter1057-2)" opacity=".3" stroke-linecap="round" stroke-width="2.7444"/><rect id="rect1045-8" x="4.5" y="4.5" width="55" height="55" ry="15" fill="url(#linearGradient1182)" stroke-linecap="round" stroke-width="2.7444"/><g id="g13605" transform="matrix(1.0199 0 0 1.0199 .92471 -.6549)" fill="#fafafa"><path id="path569" d="m30.469 12.732c-10.642 0-19.285 8.6456-19.285 19.287s8.6436 19.285 19.285 19.285 19.287-8.6436 19.287-19.285-8.6456-19.287-19.287-19.287zm0 1.6387c9.7563 0 17.648 7.8921 17.648 17.648 0 9.7563-7.8921 17.646-17.648 17.646s-17.646-7.8902-17.646-17.646c0-9.7563 7.8902-17.648 17.646-17.648z" color="#000000" style="-inkscape-stroke:none"/><g id="path510"><path id="path13615" d="m34.725 17.728v6.1222h-4.2385c-1.8891-1.8878-3.7781-3.7759-5.6672-5.6637-4.3101 1.7416-7.9524 6.3935-8.9654 10.183l12.304 0.19674c1.8955 1.8942 3.7421 3.6952 5.6376 5.5893v12.683c4.3823-1.1652 8.7692-4.7257 10.368-8.4088l-5.2519-5.5767v-4.1345h6.2564c-0.92848-4.9438-6.0481-10.502-10.443-10.99zm-1.4893 8.2375c1.8212-3.25e-4 4.0362 2.475 3.1869 4.0618-0.37379 0.69844-1.4718 0.90129-2.4569 0.45397-1.953-0.88682-2.914-3.6118-1.5266-4.3292 0.24804-0.12826 0.51768-0.18652 0.7966-0.18657z" color="#000000" style="-inkscape-stroke:none"/><path id="path13617" d="m34.662 17.658v6.1289h-4.1523c-1.8826-1.8813-3.7639-3.7632-5.6465-5.6445l-0.0293-0.0293-0.03906 0.01563c-4.3346 1.7515-7.9826 6.4118-9.002 10.225l-0.02149 0.07617 12.361 0.19922c1.883 1.8813 3.7173 3.672 5.5996 5.5527v12.738l0.07813-0.02148c4.4029-1.1706 8.8006-4.7355 10.41-8.4434l0.01563-0.03906-5.2637-5.5879v-4.0469h6.2695l-0.01367-0.07422c-0.4673-2.4882-1.9852-5.1213-3.9375-7.1973s-4.3399-3.5969-6.5605-3.8438zm0.125 0.15625c2.1553 0.2654 4.4962 1.7419 6.4141 3.7812 1.919 2.0405 3.3998 4.6263 3.877 7.0605h-6.2285v4.2207l5.2344 5.5605c-1.5907 3.6241-5.9047 7.1309-10.227 8.3086v-12.617l-0.01758-0.01758c-1.8959-1.8945-3.7435-3.696-5.6387-5.5898l-0.01758-0.01758-12.238-0.19531c1.0311-3.7418 4.6206-8.3135 8.8633-10.045 1.878 1.8767 3.7548 3.7541 5.6328 5.6309l0.01953 0.01758h4.3262zm-1.5527 8.0879c-0.28761 5e-5 -0.56663 0.06016-0.82422 0.19336-0.36378 0.18812-0.57685 0.51352-0.6543 0.89844-0.07745 0.38491-0.02357 0.83029 0.13477 1.2793 0.31668 0.89802 1.0539 1.8119 2.0488 2.2637 0.50375 0.22875 1.0358 0.29368 1.4941 0.20898 0.45838-0.08469 0.84525-0.32002 1.043-0.68945 0.44166-0.82525 0.08718-1.8666-0.59766-2.6953-0.68483-0.82876-1.7056-1.4592-2.6445-1.459zm0 0.125c0.88231-1.58e-4 1.8812 0.60854 2.5469 1.4141s0.99352 1.7951 0.58594 2.5566c-0.17608 0.329-0.52474 0.54549-0.95508 0.625-0.43034 0.07951-0.94051 0.01936-1.4219-0.19922-0.95808-0.43505-1.6772-1.3259-1.9824-2.1914-0.15261-0.43276-0.20044-0.85738-0.12891-1.2129 0.07153-0.3555 0.258-0.6419 0.58789-0.8125 0.23849-0.12332 0.49735-0.17964 0.76758-0.17969z" color="#000000" style="-inkscape-stroke:none"/></g></g></svg>
