<?xml version="1.0" encoding="UTF-8" standalone="no"?>
<svg
   width="512"
   height="512"
   viewBox="0 0 33.867 33.867"
   version="1.1"
   id="svg25"
   sodipodi:docname="pcsxr.svg"
   inkscape:version="1.4.4 (dcaf3e7d9e, 2026-05-05)"
   xmlns:inkscape="http://www.inkscape.org/namespaces/inkscape"
   xmlns:sodipodi="http://sodipodi.sourceforge.net/DTD/sodipodi-0.dtd"
   xmlns="http://www.w3.org/2000/svg"
   xmlns:svg="http://www.w3.org/2000/svg">
  <sodipodi:namedview
     id="namedview25"
     pagecolor="#ffffff"
     bordercolor="#999999"
     borderopacity="1"
     inkscape:showpageshadow="2"
     inkscape:pageopacity="0"
     inkscape:pagecheckerboard="0"
     inkscape:deskcolor="#d1d1d1"
     inkscape:zoom="2.3242188"
     inkscape:cx="255.78487"
     inkscape:cy="256"
     inkscape:window-width="2560"
     inkscape:window-height="1403"
     inkscape:window-x="0"
     inkscape:window-y="0"
     inkscape:window-maximized="1"
     inkscape:current-layer="svg25" />
  <defs
     id="defs2">
    <linearGradient
       id="b"
       x1="132.21"
       x2="132.21"
       y1="42.152"
       y2="70.68"
       gradientTransform="translate(-111.78 -37.203) scale(.97573)"
       gradientUnits="userSpaceOnUse">
      <stop
         stop-color="#14afe1"
         offset="0"
         id="stop1" />
      <stop
         stop-color="#0d5fd1"
         offset="1"
         id="stop2" />
    </linearGradient>
    <filter
       inkscape:collect="always"
       style="color-interpolation-filters:sRGB"
       id="filter25"
       x="-0.066896747"
       y="-0.085336925"
       width="1.1337935"
       height="1.1706739">
      <feGaussianBlur
         inkscape:collect="always"
         stdDeviation="0.55273437"
         id="feGaussianBlur25" />
    </filter>
  </defs>
  <g
     transform="translate(-65.748 -37.203) scale(.97573)"
     fill="none"
     opacity=".29677"
     stroke="#000"
     stroke-linecap="round"
     stroke-linejoin="round"
     stroke-opacity=".02"
     id="g23">
    <rect
       x="69.84"
       y="40.71"
       width="29.811"
       height="29.811"
       rx="6.61"
       ry="6.61"
       stroke-width=".1"
       id="rect2" />
    <rect
       x="69.84"
       y="40.71"
       width="29.811"
       height="29.811"
       rx="6.61"
       ry="6.61"
       stroke-width=".2"
       id="rect3" />
    <rect
       x="69.84"
       y="40.71"
       width="29.811"
       height="29.811"
       rx="6.61"
       ry="6.61"
       stroke-width=".3"
       id="rect4" />
    <rect
       x="69.84"
       y="40.71"
       width="29.811"
       height="29.811"
       rx="6.61"
       ry="6.61"
       stroke-width=".4"
       id="rect5" />
    <rect
       x="69.84"
       y="40.71"
       width="29.811"
       height="29.811"
       rx="6.61"
       ry="6.61"
       stroke-width=".5"
       id="rect6" />
    <rect
       x="69.84"
       y="40.71"
       width="29.811"
       height="29.811"
       rx="6.61"
       ry="6.61"
       stroke-width=".6"
       id="rect7" />
    <rect
       x="69.84"
       y="40.71"
       width="29.811"
       height="29.811"
       rx="6.61"
       ry="6.61"
       stroke-width=".7"
       id="rect8" />
    <rect
       x="69.84"
       y="40.71"
       width="29.811"
       height="29.811"
       rx="6.61"
       ry="6.61"
       stroke-width=".8"
       id="rect9" />
    <rect
       x="69.84"
       y="40.71"
       width="29.811"
       height="29.811"
       rx="6.61"
       ry="6.61"
       id="rect10" />
    <rect
       x="69.84"
       y="40.71"
       width="29.811"
       height="29.811"
       rx="6.61"
       ry="6.61"
       stroke-width="1.2"
       id="rect11" />
    <rect
       x="69.84"
       y="40.71"
       width="29.811"
       height="29.811"
       rx="6.61"
       ry="6.61"
       stroke-width="1.4"
       id="rect12" />
    <rect
       x="69.84"
       y="40.71"
       width="29.811"
       height="29.811"
       rx="6.61"
       ry="6.61"
       stroke-width="1.6"
       id="rect13" />
    <rect
       x="69.84"
       y="40.71"
       width="29.811"
       height="29.811"
       rx="6.61"
       ry="6.61"
       stroke-width="1.8"
       id="rect14" />
    <rect
       x="69.84"
       y="40.71"
       width="29.811"
       height="29.811"
       rx="6.61"
       ry="6.61"
       stroke-width="2"
       id="rect15" />
    <rect
       x="69.84"
       y="40.71"
       width="29.811"
       height="29.811"
       rx="6.61"
       ry="6.61"
       stroke-width="2.2"
       id="rect16" />
    <rect
       x="69.84"
       y="40.71"
       width="29.811"
       height="29.811"
       rx="6.61"
       ry="6.61"
       stroke-width="2.6"
       id="rect17" />
    <rect
       x="69.84"
       y="40.71"
       width="29.811"
       height="29.811"
       rx="6.61"
       ry="6.61"
       stroke-width="3"
       id="rect18" />
    <rect
       x="69.84"
       y="40.71"
       width="29.811"
       height="29.811"
       rx="6.61"
       ry="6.61"
       stroke-width="3.4"
       id="rect19" />
    <rect
       x="69.84"
       y="40.71"
       width="29.811"
       height="29.811"
       rx="6.61"
       ry="6.61"
       stroke-width="3.8"
       id="rect20" />
    <rect
       x="69.84"
       y="40.71"
       width="29.811"
       height="29.811"
       rx="6.61"
       ry="6.61"
       stroke-width="4.2"
       id="rect21" />
    <rect
       x="69.84"
       y="40.71"
       width="29.811"
       height="29.811"
       rx="6.61"
       ry="6.61"
       stroke-width="4.6"
       id="rect22" />
    <rect
       x="69.84"
       y="40.71"
       width="29.811"
       height="29.811"
       rx="6.61"
       ry="6.61"
       stroke-width="5"
       id="rect23" />
  </g>
  <rect
     x="2.396"
     y="2.519"
     width="29.087"
     height="29.087"
     rx="6.449"
     ry="6.449"
     fill="url(#b)"
     stroke-linecap="round"
     stroke-linejoin="round"
     stroke-width="2.6877"
     id="rect24" />
  <path
     d="m 14.4725,9.951465 0.023,14.467 3.136,1.078 0.013,-12.362 v -0.002 c 10e-4,-1.204 1.306,-0.629 1.306,0.16 v 5.343 c 2.268,1.054 3.607,-0.064 3.633,-2.946 0.025,-2.478 -1.543,-3.893 -4.107,-4.62 z m -0.64,8.79 -0.472,0.153 -4.566,1.637 c -0.961,0.44 -1.765,0.726 -1.77,1.444 0.024,0.91 1.45,1.352 3.536,1.7 1.112,0.224 2.247,0.074 3.22,-0.132 v -1.713 c 0,0 -1.803,0.7 -2.231,0.759 l -0.867,-0.005 c -0.644,-0.003 -0.944,-0.417 -0.302,-0.638 l 3.452,-1.306 z m 8.114,0.772 0.001,0.001 c -1.199,-0.004 -2.86,0.322 -3.683,0.705 v 1.953 l 2.17,-0.794 1.72,-0.547 c 1.79,-0.295 2.502,0.331 0.758,0.853 l -4.648,1.7 -0.005,1.893 6.79,-2.442 c 0.75,-0.261 1.803,-0.789 1.805,-1.437 -0.182,-1.004 -1.692,-1.59 -4.037,-1.838 a 8.706,8.706 0 0 0 -0.632,-0.042 c -0.08,-0.002 -0.16,-0.005 -0.24,-0.005 z"
     fill="#ffffff"
     stroke-width="0.052761"
     id="path24-6"
     style="fill:#000000;fill-opacity:1;filter:url(#filter25);opacity:0.35" />
  <path
     d="m14.473 9.29.023 14.467 3.136 1.078.013-12.362v-.002c.001-1.204 1.306-.629 1.306.16v5.343c2.268 1.054 3.607-.064 3.633-2.946.025-2.478-1.543-3.893-4.107-4.62zm-.64 8.79-.472.153-4.566 1.637c-.961.44-1.765.726-1.77 1.444.024.91 1.45 1.352 3.536 1.7 1.112.224 2.247.074 3.22-.132v-1.713s-1.803.7-2.231.759l-.867-.005c-.644-.003-.944-.417-.302-.638l3.452-1.306zm8.114.772.001.001c-1.199-.004-2.86.322-3.683.705v1.953l2.17-.794 1.72-.547c1.79-.295 2.502.331.758.853l-4.648 1.7-.005 1.893 6.79-2.442c.75-.261 1.803-.789 1.805-1.437-.182-1.004-1.692-1.59-4.037-1.838a8.706 8.706 0 0 0-.632-.042c-.08-.002-.16-.005-.24-.005z"
     fill="#fff"
     stroke-width=".052761"
     id="path24" />
</svg>
