<?xml version="1.0" encoding="UTF-8"?>
<svg id="svg49" width="64" height="64" version="1.1" viewBox="0 0 16.933 16.933" xmlns="http://www.w3.org/2000/svg" xmlns:cc="http://creativecommons.org/ns#" xmlns:dc="http://purl.org/dc/elements/1.1/" xmlns:rdf="http://www.w3.org/1999/02/22-rdf-syntax-ns#" xmlns:xlink="http://www.w3.org/1999/xlink">
 <metadata id="metadata2">
  <rdf:RDF>
   <cc:Work rdf:about="">
    <dc:format>image/svg+xml</dc:format>
    <dc:type rdf:resource="http://purl.org/dc/dcmitype/StillImage"/>
   </cc:Work>
  </rdf:RDF>
 </metadata>
 <defs id="defs19">
  <filter id="filter1057" x="-.027" y="-.027" width="1.054" height="1.054" color-interpolation-filters="sRGB">
   <feGaussianBlur id="feGaussianBlur9" stdDeviation="0.61875"/>
  </filter>
  <linearGradient id="linearGradient1053" x1="-127" x2="-127" y1="60" y2="5" gradientTransform="matrix(.26939 0 0 .26939 35.27 -.2913)" gradientUnits="userSpaceOnUse">
   <stop id="stop12" stop-color="#32d7ff" offset="0"/>
   <stop id="stop14" stop-color="#329bff" offset="1"/>
  </linearGradient>
 </defs>
 <rect id="rect21" transform="scale(.26458)" x="4.5" y="4.5" width="55" height="55" ry="15" fill="#141414" filter="url(#filter1057)" opacity=".3" stroke-linecap="round" stroke-width="2.7444"/>
 <rect id="rect23" x="1.0583" y="1.0583" width="14.816" height="14.816" rx="3.4397" ry="3.4397" fill="url(#linearGradient1053)" stroke-linecap="round" stroke-width=".7393"/>
 <g id="g1401" transform="translate(8.9134 .27316)" fill="none" stroke-linecap="round" stroke-linejoin="round" stroke-width=".79373">
  <path id="path1195" d="m1.9343 2.3726c0 1.1112-3.2742 7.6728-5.5561 7.6728-1.141 0-1.5875-0.97894-1.5875-1.7198 0-0.74082 0.44648-1.7198 1.5875-1.7198 2.2966-0.00797 5.5561 6.5615 5.5561 7.6728" opacity=".2" stroke="#000"/>
  <path id="path1197" d="m1.9343 2.1081c0 1.1112-3.2742 7.6728-5.5561 7.6728-1.141 0-1.5875-0.97894-1.5875-1.7198 0-0.74082 0.44648-1.7198 1.5875-1.7198 2.2966-0.00797 5.5561 6.5615 5.5561 7.6728" stroke="#fff"/>
  <path id="path1199" d="m3.5218 3.4309c0 1.0722-2.6458 4.8947-2.6458 4.8947s2.656 3.9227 2.6458 4.8947" opacity=".2" stroke="#000"/>
  <path id="path1201" d="m3.5218 3.1664c0 1.0722-2.6458 4.8947-2.6458 4.8947s2.656 3.9227 2.6458 4.8947" stroke="#fff"/>
  <path id="path1203" d="m4.3155 5.5421c-0.13221 0.66145-1.5875 2.7781-1.5875 2.7781s1.4553 2.1166 1.5875 2.7781" opacity=".2" stroke="#000"/>
  <path id="path1205" d="m4.3155 5.283c-0.13221 0.66145-1.5875 2.7781-1.5875 2.7781s1.4553 2.1166 1.5875 2.7781" stroke="#fff"/>
 </g>
</svg>
