<?xml version="1.0" encoding="UTF-8"?>
<svg id="svg4" width="64" height="64" version="1.1" viewBox="0 0 64 64" xmlns="http://www.w3.org/2000/svg">
 <defs id="defs3">
  <filter id="filter1057-37" x="-.052417" y="-.052417" width="1.1048" height="1.1048" color-interpolation-filters="sRGB">
   <feGaussianBlur id="feGaussianBlur1" stdDeviation="1.223068"/>
  </filter>
  <linearGradient id="linearGradient1021" x1="-72.168" x2="-17.552" y1="59.492" y2="4.8762" gradientTransform="translate(76.449)" gradientUnits="userSpaceOnUse">
   <stop id="stop1" stop-color="#ff7832" offset="0"/>
   <stop id="stop2" stop-color="#ffbe37" offset=".50754"/>
   <stop id="stop3" stop-color="#ffdc32" offset="1"/>
  </linearGradient>
 </defs>
 <g id="g4">
  <rect id="rect3" x="4" y="4" width="56" height="56" ry="13" fill="#141414" filter="url(#filter1057-37)" opacity=".3" stroke-linecap="round" stroke-width="2.7444"/>
  <path id="path3" d="m17.502 4.5c-7.2031 0-13.002 5.7988-13.002 13.002v28.996c0 7.2031 5.7988 13.002 13.002 13.002h28.996c7.2031 0 13.002-5.7988 13.002-13.002v-28.996c0-7.2031-5.7988-13.002-13.002-13.002z" fill="url(#linearGradient1021)" stroke-linecap="round" stroke-width="4.648"/>
  <path id="path4" d="m22.625 17c-3.1062 0-5.625 2.5125-5.625 5.625 0 3.1062 2.5125 5.625 5.625 5.625h5.195l-7.93 7.8912c-2.1962 2.1962-2.1962 5.7725 0 7.9688s5.7725 2.1962 7.9688 0l7.8912-7.93v5.195c0 3.1062 2.5125 5.625 5.625 5.625 3.1062 0 5.625-2.5125 5.625-5.625v-18.75c0-3.1062-2.5125-5.625-5.625-5.625z" fill="#ff5326"/>
 </g>
</svg>
