<?xml version="1.0" encoding="UTF-8"?>
<svg id="svg1574" width="128" height="128" version="1.1" viewBox="0 0 33.867 33.867" xmlns="http://www.w3.org/2000/svg" xmlns:cc="http://creativecommons.org/ns#" xmlns:dc="http://purl.org/dc/elements/1.1/" xmlns:rdf="http://www.w3.org/1999/02/22-rdf-syntax-ns#">
 <metadata id="metadata1571">
  <rdf:RDF>
   <cc:Work rdf:about="">
    <dc:format>image/svg+xml</dc:format>
    <dc:type rdf:resource="http://purl.org/dc/dcmitype/StillImage"/>
    <dc:title/>
   </cc:Work>
  </rdf:RDF>
 </metadata>
 <g id="layer1">
  <g id="g1702" transform="matrix(.97573 0 0 .97573 -65.758 -37.259)" fill="none" opacity=".295" stroke="#000" stroke-linecap="round" stroke-linejoin="round" stroke-opacity=".02">
   <rect id="rect1634" x="69.84" y="40.71" width="29.811" height="29.811" rx="6.6099" ry="6.6099" stroke-width=".1"/>
   <rect id="rect1638" x="69.84" y="40.71" width="29.811" height="29.811" rx="6.6099" ry="6.6099" stroke-width=".2"/>
   <rect id="rect1640" x="69.84" y="40.71" width="29.811" height="29.811" rx="6.6099" ry="6.6099" stroke-width=".3"/>
   <rect id="rect1642" x="69.84" y="40.71" width="29.811" height="29.811" rx="6.6099" ry="6.6099" stroke-width=".4"/>
   <rect id="rect1644" x="69.84" y="40.71" width="29.811" height="29.811" rx="6.6099" ry="6.6099" stroke-width=".5"/>
   <rect id="rect1646" x="69.84" y="40.71" width="29.811" height="29.811" rx="6.6099" ry="6.6099" stroke-width=".6"/>
   <rect id="rect1648" x="69.84" y="40.71" width="29.811" height="29.811" rx="6.6099" ry="6.6099" stroke-width=".7"/>
   <rect id="rect1650" x="69.84" y="40.71" width="29.811" height="29.811" rx="6.6099" ry="6.6099" stroke-width=".8"/>
   <rect id="rect1652" x="69.84" y="40.71" width="29.811" height="29.811" rx="6.6099" ry="6.6099"/>
   <rect id="rect1654" x="69.84" y="40.71" width="29.811" height="29.811" rx="6.6099" ry="6.6099" stroke-width="1.2"/>
   <rect id="rect1656" x="69.84" y="40.71" width="29.811" height="29.811" rx="6.6099" ry="6.6099" stroke-width="1.4"/>
   <rect id="rect1658" x="69.84" y="40.71" width="29.811" height="29.811" rx="6.6099" ry="6.6099" stroke-width="1.6"/>
   <rect id="rect1660" x="69.84" y="40.71" width="29.811" height="29.811" rx="6.6099" ry="6.6099" stroke-width="1.8"/>
   <rect id="rect1662" x="69.84" y="40.71" width="29.811" height="29.811" rx="6.6099" ry="6.6099" stroke-width="2"/>
   <rect id="rect1664" x="69.84" y="40.71" width="29.811" height="29.811" rx="6.6099" ry="6.6099" stroke-width="2.2"/>
   <rect id="rect1666" x="69.84" y="40.71" width="29.811" height="29.811" rx="6.6099" ry="6.6099" stroke-width="2.6"/>
   <rect id="rect1668" x="69.84" y="40.71" width="29.811" height="29.811" rx="6.6099" ry="6.6099" stroke-width="3"/>
   <rect id="rect1670" x="69.84" y="40.71" width="29.811" height="29.811" rx="6.6099" ry="6.6099" stroke-width="3.4"/>
   <rect id="rect1672" x="69.84" y="40.71" width="29.811" height="29.811" rx="6.6099" ry="6.6099" stroke-width="3.8"/>
   <rect id="rect1674" x="69.84" y="40.71" width="29.811" height="29.811" rx="6.6099" ry="6.6099" stroke-width="4.2"/>
   <rect id="rect1676" x="69.84" y="40.71" width="29.811" height="29.811" rx="6.6099" ry="6.6099" stroke-width="4.6"/>
   <rect id="rect1678" x="69.84" y="40.71" width="29.811" height="29.811" rx="6.6099" ry="6.6099" stroke-width="5"/>
  </g>
  <rect id="rect849" x="2.3867" y="2.4623" width="29.087" height="29.087" rx="6.4495" ry="6.4495" fill="#415364" stroke-linecap="round" stroke-linejoin="round" stroke-width="2.688"/>
  <g id="g923" transform="matrix(.20482 0 0 .20482 -5.1074 6.925)" stroke-width="1.2918">
   <g id="g931" transform="matrix(.42822 0 0 .42822 -64.613 10.703)" stroke-width="1.2918">
    <path id="path890" class="st0" d="m511.08 56.624v63.7c0 0.5-0.3 1.1-0.8 1.3l-56 31.6c-0.5 0.3-1.1 0.3-1.6 0l-56.4-31.8c-0.5-0.3-0.8-0.8-0.8-1.3v-55.9c0-0.5-0.3-1.1-0.8-1.3l-15.5-8.7c-1-0.6-2.4 0.1-2.4 1.3v70.8c0 3.3 1.8 6.3 4.7 8l67.1 37.7c2.9 1.6 6.5 1.6 9.4 0l66.8-37.6c2.9-1.6 4.7-4.7 4.7-8v-75.9c0-3.3-1.8-6.3-4.7-8l-66.6-37.5c-2.9-1.6-6.5-1.6-9.4 0l-30.9 17.4c-1 0.6-1 2.1 0 2.7l15.5 8.7c0.5 0.3 1.1 0.3 1.6 0l17.8-10c0.5-0.3 1.1-0.3 1.6 0l56.1 31.5c0.3 0.2 0.6 0.7 0.6 1.3z" fill="#ff9e18"/>
    <ellipse id="ellipse892" class="st1" cx="484.98" cy="88.724" rx="10.6" ry="10.4" fill="#fff"/>
    <ellipse id="ellipse894" class="st1" cx="451.18" cy="88.724" rx="10.6" ry="10.4" fill="#fff"/>
    <path id="path896" class="st1" d="m293.28 120.22v-63.7c0-0.5 0.3-1.1 0.8-1.3l56-31.6c0.5-0.3 1.1-0.3 1.6 0l56.4 31.8c0.5 0.3 0.8 0.8 0.8 1.3v55.9c0 0.5 0.3 1.1 0.8 1.3l15.5 8.7c1 0.6 2.4-0.1 2.4-1.3v-70.7c0-3.3-1.8-6.3-4.7-8l-67.3-37.7c-2.9-1.6-6.5-1.6-9.4 0l-66.8 37.6c-2.9 1.6-4.7 4.7-4.7 8v75.8c0 3.3 1.8 6.3 4.7 8l66.8 37.6c2.9 1.6 6.5 1.6 9.4 0l30.9-17.4c1-0.6 1-2.1 0-2.7l-15.5-8.7c-0.5-0.3-1.1-0.3-1.6 0l-17.8 10c-0.5 0.3-1.1 0.3-1.6 0l-56.1-31.5c-0.3-0.3-0.6-0.8-0.6-1.4z" fill="#fff"/>
    <ellipse id="ellipse898" class="st0" cx="319.38" cy="88.124" rx="10.6" ry="10.4" fill="#ff9e18"/>
    <ellipse id="ellipse900" class="st0" cx="353.18" cy="88.124" rx="10.6" ry="10.4" fill="#ff9e18"/>
   </g>
  </g>
 </g>
</svg>
