<?xml version="1.0" encoding="UTF-8"?>
<svg id="svg29" width="64" height="64" version="1.1" viewBox="0 0 64 64" xmlns="http://www.w3.org/2000/svg" xmlns:cc="http://creativecommons.org/ns#" xmlns:dc="http://purl.org/dc/elements/1.1/" xmlns:rdf="http://www.w3.org/1999/02/22-rdf-syntax-ns#" xmlns:xlink="http://www.w3.org/1999/xlink">
 <metadata id="metadata33">
  <rdf:RDF>
   <cc:Work rdf:about="">
    <dc:format>image/svg+xml</dc:format>
    <dc:type rdf:resource="http://purl.org/dc/dcmitype/StillImage"/>
    <dc:title/>
   </cc:Work>
  </rdf:RDF>
 </metadata>
 <defs id="defs7">
  <filter id="filter1057" x="-.027" y="-.027" width="1.054" height="1.054" color-interpolation-filters="sRGB">
   <feGaussianBlur id="feGaussianBlur1059" stdDeviation="0.61875"/>
  </filter>
  <linearGradient id="linearGradient1053" x1="-127" x2="-127" y1="60" y2="5" gradientTransform="translate(131.5 -.51)" gradientUnits="userSpaceOnUse">
   <stop id="stop1047" stop-color="#df2a2a" offset="0"/>
   <stop id="stop1049" stop-color="#f83f3f" offset="1"/>
  </linearGradient>
 </defs>
 <g id="g30" fill="#5e4aa6">
  <circle id="circle24" cx="-1248.7" cy="-1241.6" r="0"/>
  <circle id="circle26" cx="-1140.3" cy="-1301.8" r="0"/>
  <circle id="circle28" cx="-1158.1" cy="-1246" r="0"/>
 </g>
 <circle id="circle36" cx="-1157.3" cy="-1267.7" r="0" fill="#5e4aa6"/>
 <circle id="circle38" cx="-57.756" cy="-2.1829" r="0" fill="#5e4aa6" fill-rule="evenodd"/>
 <rect id="rect1055" x="4.5" y="4.5" width="55" height="55" ry="15" fill="#141414" filter="url(#filter1057)" opacity=".3" stroke-linecap="round" stroke-width="2.7444"/>
 <rect id="rect1045" x="4.5" y="4.5" width="55" height="55" ry="15" fill="url(#linearGradient1053)" stroke-linecap="round" stroke-width="2.7444"/>
 <path id="path970" d="m29.408 14.5-1.2963 1.2963v2.5926h7.7778v-2.5926l-1.2963-1.2963zm-7.2587 1.8153-7.6487 7.9069 0.64815 0.64815h1.2963l1.2963 1.2963 6.4815-6.4815-1.2963-1.2963v-1.2963l-0.77727-0.77727zm19.702 0-0.77727 0.77727v1.2963l-1.2963 1.2963 6.4815 6.4815 1.2963-1.2963h1.2963l0.64815-0.64815-7.6487-7.9069z" fill="#fff" stroke-width="1.2963" style="paint-order:normal"/>
 <path id="path972" d="m24.222 18.389-7.7778 7.7778c-0.84367 2.0383-1.3187 4.2754-1.3191 6.4815-0.001815 9.307 7.5448 16.852 16.852 16.852 9.307 0 16.853-7.5448 16.852-16.852-3.43e-4 -2.2115-0.42616-4.4389-1.2735-6.4815l-7.7778-7.7778-3.8889-1.2963h-7.7778z" fill="#fff" opacity=".5" stroke-width="1.2963" style="paint-order:normal"/>
 <path id="path974" d="m21.63 27.463h20.741l1.2963 1.2963v7.7778l-1.2963 1.2963h-20.741l-1.2963-1.2963v-7.7778z" fill="#fff" opacity=".5" stroke-width="1.2963" style="paint-order:normal"/>
 <path id="path976" d="m22.278 28.759-0.64815 0.64815v6.4815l0.64815 0.64815h3.8889l0.64815-0.64815v-6.4815l-0.64815-0.64815zm9.0741 0-0.64815 0.64815v6.4815l0.64815 0.64815h3.8889l0.64815-0.64815v-6.4815l-0.64815-0.64815zm6.4815 0-0.64815 0.64815v0.64815h3.8889v6.4815h0.64815l0.64815-0.64815v-6.4815l-0.64815-0.64815zm-14.907 1.2963h2.5926v5.1852h-2.5926zm9.0741 0h2.5926v5.1852h-2.5926zm-3.8889 1.2963v1.2963h1.2963v-1.2963zm0 2.5926v1.2963h1.2963v-1.2963z" fill="#3e3e3e" stroke-width="1.2963" style="paint-order:normal"/>
</svg>
