<?xml version="1.0" encoding="UTF-8"?>
<svg id="svg29" width="64" height="64" version="1.1" viewBox="0 0 64 64" xml:space="preserve" xmlns="http://www.w3.org/2000/svg"><defs id="defs7"><filter id="filter1057" x="-.027" y="-.027" width="1.054" height="1.054" color-interpolation-filters="sRGB"><feGaussianBlur id="feGaussianBlur851" stdDeviation="0.61875"/></filter><linearGradient id="linearGradient1053" x1="-127" x2="-127" y1="60" y2="5" gradientTransform="matrix(1.0182 0 0 1.0182 133.31 -1.1011)" gradientUnits="userSpaceOnUse"><stop id="stop854" stop-color="#32d7ff" offset="0"/><stop id="stop856" stop-color="#329bff" offset="1"/></linearGradient></defs><rect id="rect887" x="4.5" y="4.5" width="55" height="55" ry="15" fill="#141414" filter="url(#filter1057)" opacity=".3" stroke-linecap="round" stroke-width="2.7444"/><rect id="rect889" x="4" y="4" width="56" height="56" rx="12.997" ry="12.997" fill="url(#linearGradient1053)" stroke-linecap="round" stroke-width="2.7943"/><g id="g2329" transform="matrix(1.3168 0 0 1.3168 62.322 4.6033)"><path id="path1905" d="m-29.373 18.937s-1.5539 7.157-6.1042 8.4282c0 0 4.2155 2.3805 8.4269-5.9644s-2.3227-2.4637-2.3227-2.4637z" fill="#f6ffd5"/><path id="path1907" d="m-16.23 18.937s1.5539 7.157 6.1042 8.4282c0 0-4.2155 2.3805-8.4269-5.9644s2.3227-2.4637 2.3227-2.4637z" fill="#f6ffd5"/><path id="path1854" d="m-27.708 18.937s-0.18617 7.6184 1.0695 11.455c1.2557 3.837 4.8539 6.8856 7.3067 7.2007 2.4528 0.31504 4.305-0.36962 5.4204-0.91142s2.9496-1.2335 3.7081-0.67175c0.75853 0.56174 1.3666-0.20714 1.1515-0.76772-0.25292-0.65895-0.69651-0.75325-1.2299-0.75898-0.53337-0.0057-0.37044-0.61369-0.19392-0.65423 0.29453-0.06765 0.80639-0.6291 0.38246-1.3094-0.42393-0.68035-1.4401-0.71584-1.5639-0.07251-0.12378 0.64333 0.30813 1.3425-0.07803 1.5602-0.38616 0.21774-2.1315 1.0425-3.2971 0.2143-1.1655-0.82822-3.1316-2.6943-3.2249-5.9673-0.09328-3.273-0.39858-7.6088 0-9.3173s-8.9566-1.0329-8.9566-1.0329z" fill="#4d4d4d"/><path id="path1248" d="m-34.178 7.2964c-1.589 0-2.8672 1.2801-2.8672 2.8691v2.2852c0-0.17848 0.0079-0.35364 0.02539-0.52734 0.01753-0.1737 0.0439-0.34559 0.07813-0.51367 0.03422-0.16808 0.0769-0.33254 0.12695-0.49414 0.05005-0.1616 0.10684-0.32033 0.17188-0.47461 0.06504-0.15428 0.13763-0.30507 0.2168-0.45117 0.07917-0.1461 0.16536-0.28676 0.25781-0.42383 0.09245-0.13707 0.19199-0.26929 0.29688-0.39648s0.21557-0.25072 0.33203-0.36719c0.11646-0.11646 0.23804-0.22715 0.36524-0.33203s0.25941-0.20247 0.39648-0.29492c0.13707-0.092451 0.27968-0.17864 0.42578-0.25781 0.1461-0.07917 0.2969-0.15176 0.45117-0.2168 0.15428-0.065037 0.31105-0.12377 0.47266-0.17383 0.1616-0.050054 0.32801-0.09078 0.49609-0.125s0.33801-0.06059 0.51172-0.078125c0.17371-0.017536 0.35082-0.027344 0.5293-0.027344zm2.2871 0c-0.17848 0-0.35559 0.00981-0.5293 0.027344-0.17371 0.017535-0.34364 0.043905-0.51172 0.078125s-0.33449 0.074946-0.49609 0.125c-0.1616 0.050054-0.31838 0.10879-0.47266 0.17383-0.15428 0.065037-0.30507 0.13763-0.45117 0.2168-0.1461 0.07917-0.28871 0.16536-0.42578 0.25781-0.13707 0.092452-0.26929 0.19004-0.39648 0.29492s-0.24877 0.21557-0.36524 0.33203c-0.11646 0.11646-0.22715 0.24-0.33203 0.36719s-0.20442 0.25941-0.29688 0.39648c-0.09245 0.13707-0.17864 0.27773-0.25781 0.42383-0.07917 0.1461-0.15176 0.29689-0.2168 0.45117-0.06504 0.15428-0.12182 0.313-0.17188 0.47461-0.05005 0.1616-0.09273 0.32606-0.12695 0.49414-0.03422 0.16808-0.06059 0.33997-0.07813 0.51367-0.01754 0.17371-0.02539 0.34886-0.02539 0.52734v1.332c0 0.17848 0.0079 0.35364 0.02539 0.52734 0.01753 0.1737 0.0439 0.34559 0.07813 0.51367 0.03422 0.16808 0.0769 0.33254 0.12695 0.49414 0.05005 0.1616 0.10684 0.32033 0.17188 0.47461 0.06504 0.15428 0.13763 0.30507 0.2168 0.45117 0.07917 0.1461 0.16536 0.28676 0.25781 0.42383 0.09245 0.13707 0.19199 0.26929 0.29688 0.39648 0.10488 0.12719 0.21557 0.25072 0.33203 0.36719 0.11646 0.11646 0.23804 0.22715 0.36524 0.33203 0.12719 0.10488 0.25941 0.20247 0.39648 0.29492 0.13707 0.09245 0.27968 0.17864 0.42578 0.25781 0.1461 0.07917 0.2969 0.15176 0.45117 0.2168 0.15428 0.06504 0.31105 0.12377 0.47266 0.17383 0.1616 0.05005 0.32801 0.09273 0.49609 0.12695 0.16808 0.03422 0.33801 0.05864 0.51172 0.07617 0.17371 0.01754 0.35082 0.02734 0.5293 0.02734h17.438c0.17848 0 0.35559-0.0098 0.5293-0.02734 0.1737-0.01754 0.34364-0.04195 0.51172-0.07617 0.16808-0.03422 0.33449-0.0769 0.49609-0.12695 0.1616-0.05005 0.31838-0.10879 0.47266-0.17383 0.15428-0.06504 0.30507-0.13763 0.45117-0.2168 0.1461-0.07917 0.28871-0.16536 0.42578-0.25781 0.13707-0.09245 0.26929-0.19004 0.39648-0.29492 0.12719-0.10488 0.24877-0.21557 0.36523-0.33203 0.11646-0.11646 0.22715-0.24 0.33203-0.36719 0.10488-0.12719 0.20442-0.25941 0.29688-0.39648 0.09245-0.13707 0.17864-0.27773 0.25781-0.42383 0.07917-0.1461 0.14981-0.29689 0.21484-0.45117 0.06504-0.15428 0.12377-0.313 0.17383-0.47461 0.05005-0.1616 0.09273-0.32606 0.12695-0.49414 0.03422-0.16808 0.06059-0.33997 0.07813-0.51367 0.01754-0.17371 0.02539-0.34886 0.02539-0.52734v-1.332c0-0.17848-0.0079-0.35364-0.02539-0.52734-0.01754-0.1737-0.04391-0.34559-0.07813-0.51367s-0.0769-0.33254-0.12695-0.49414c-0.05005-0.1616-0.10879-0.32033-0.17383-0.47461-0.06504-0.15428-0.13567-0.30507-0.21484-0.45117-0.07917-0.1461-0.16536-0.28676-0.25781-0.42383-0.09245-0.13707-0.19199-0.26929-0.29688-0.39648-0.10488-0.12719-0.21557-0.25072-0.33203-0.36719-0.11646-0.11646-0.23804-0.22715-0.36523-0.33203s-0.25941-0.20247-0.39648-0.29492c-0.13707-0.092451-0.27968-0.17864-0.42578-0.25781-0.1461-0.07917-0.2969-0.15176-0.45117-0.2168-0.15428-0.065037-0.31105-0.12377-0.47266-0.17383s-0.32801-0.09078-0.49609-0.125c-0.16808-0.03422-0.33801-0.06059-0.51172-0.078125-0.17371-0.017536-0.35082-0.027344-0.5293-0.027344zm22.592 6.4863c0 0.17848-0.0079 0.35364-0.02539 0.52734-0.01754 0.1737-0.04391 0.34559-0.07813 0.51367s-0.0769 0.33254-0.12695 0.49414c-0.05005 0.1616-0.10879 0.32033-0.17383 0.47461-0.06504 0.15428-0.13567 0.30507-0.21484 0.45117-0.07917 0.1461-0.16536 0.28676-0.25781 0.42383-0.09245 0.13707-0.19199 0.26929-0.29688 0.39648-0.10488 0.12719-0.21557 0.25072-0.33203 0.36719-0.11646 0.11646-0.23804 0.22715-0.36523 0.33203-0.12719 0.10488-0.25941 0.20247-0.39648 0.29492-0.13707 0.09245-0.27968 0.17864-0.42578 0.25781-0.1461 0.07917-0.2969 0.15176-0.45117 0.2168-0.15428 0.06504-0.31105 0.12377-0.47266 0.17383-0.1616 0.05005-0.32801 0.09273-0.49609 0.12695-0.16808 0.03422-0.33801 0.05864-0.51172 0.07617-0.17371 0.01754-0.35082 0.02734-0.5293 0.02734h2.2871c1.589 0 2.8672-1.2801 2.8672-2.8691z" fill="#4d4d4d" fill-rule="evenodd" stroke-linecap="round" stroke-linejoin="round" stroke-width="2.2202" style="paint-order:stroke fill markers"/><ellipse id="path1304" transform="rotate(-30)" cx="-29.801" cy="-1.5304" rx="1.6468" ry="2.0525" fill="#f6ffd5" fill-rule="evenodd" stroke-linecap="round" stroke-linejoin="round" stroke-width="1.04" style="paint-order:stroke fill markers"/><ellipse id="ellipse1306" transform="matrix(-.86603 -.5 -.5 .86603 0 0)" cx="9.8605" cy="21.368" rx="1.6468" ry="2.0525" fill="#f6ffd5" fill-rule="evenodd" stroke-linecap="round" stroke-linejoin="round" stroke-width="1.04" style="paint-order:stroke fill markers"/></g></svg>
