<?xml version="1.0" encoding="UTF-8"?>
<svg id="svg1443" width="128" height="128" version="1.1" viewBox="0 0 33.867 33.867" xmlns="http://www.w3.org/2000/svg" xmlns:cc="http://creativecommons.org/ns#" xmlns:dc="http://purl.org/dc/elements/1.1/" xmlns:rdf="http://www.w3.org/1999/02/22-rdf-syntax-ns#" xmlns:xlink="http://www.w3.org/1999/xlink">
 <defs id="defs1437">
  <linearGradient id="linearGradient1632" x1="132.21" x2="132.21" y1="40.049" y2="70.68" gradientTransform="matrix(.97573 0 0 .97573 -111.77 -37.183)" gradientUnits="userSpaceOnUse">
   <stop id="stop1626" stop-color="#fc8646" offset="0"/>
   <stop id="stop1628" stop-color="#f44e27" offset="1"/>
  </linearGradient>
  <filter id="filter6849" x="-.067519" y="-.053988" width="1.135" height="1.108" color-interpolation-filters="sRGB">
   <feGaussianBlur id="feGaussianBlur6851" stdDeviation="2.0878497"/>
  </filter>
  <linearGradient id="linearGradient5887" x1="152.29" x2="152.29" y1="1069" y2="1043.5" gradientUnits="userSpaceOnUse">
   <stop id="stop5891" stop-color="#0e0e0e" stop-opacity=".99216" offset="0"/>
   <stop id="stop5893" stop-color="#3f3f3f" stop-opacity=".84314" offset="1"/>
  </linearGradient>
  <linearGradient id="linearGradient5407" x1="142.13" x2="142.13" y1="1048.5" y2="955.14" gradientUnits="userSpaceOnUse">
   <stop id="stop5401" stop-color="#636363" offset="0"/>
   <stop id="stop5411" stop-color="#f3f3f3" offset=".65152"/>
   <stop id="stop5409" stop-color="#f8f8f8" offset=".74242"/>
   <stop id="stop5403" stop-color="#8c8c8c" offset="1"/>
  </linearGradient>
  <radialGradient id="radialGradient4671" cx="142.13" cy="957.52" r=".7513" gradientTransform="matrix(.93046 0 0 1.1429 9.8362 -136.76)" gradientUnits="userSpaceOnUse" xlink:href="#linearGradient4665"/>
  <linearGradient id="linearGradient4665">
   <stop id="stop4667" stop-color="#969696" offset="0"/>
   <stop id="stop4669" stop-color="#383838" offset="1"/>
  </linearGradient>
  <radialGradient id="radialGradient4688" cx="142.13" cy="957.52" r=".7513" gradientTransform="matrix(.93046 0 0 1.1429 16.352 -136.76)" gradientUnits="userSpaceOnUse" xlink:href="#linearGradient4665"/>
  <radialGradient id="radialGradient4694" cx="142.13" cy="957.52" r=".7513" gradientTransform="matrix(.93046 0 0 1.1429 9.8362 -129.2)" gradientUnits="userSpaceOnUse" xlink:href="#linearGradient4665"/>
  <radialGradient id="radialGradient4696" cx="142.13" cy="957.52" r=".7513" gradientTransform="matrix(.93046 0 0 1.1429 16.352 -129.2)" gradientUnits="userSpaceOnUse" xlink:href="#linearGradient4665"/>
  <linearGradient id="linearGradient5432" x1="111.41" x2="138.37" y1="964.34" y2="954.09" gradientUnits="userSpaceOnUse" xlink:href="#linearGradient5434"/>
  <linearGradient id="linearGradient5434">
   <stop id="stop5436" stop-color="#1d1d1d" offset="0"/>
   <stop id="stop5440" stop-color="#adadad" offset=".51662"/>
   <stop id="stop5438" stop-color="#3b3b3b" offset="1"/>
  </linearGradient>
  <linearGradient id="linearGradient5430" x1="182.12" x2="151.62" y1="966.11" y2="953.74" gradientUnits="userSpaceOnUse" xlink:href="#linearGradient5434"/>
  <linearGradient id="linearGradient5421" x1="161.88" x2="161.88" y1="968.24" y2="958.86" gradientUnits="userSpaceOnUse" xlink:href="#linearGradient5415"/>
  <linearGradient id="linearGradient5415">
   <stop id="stop5417" offset="0"/>
   <stop id="stop5419" stop-color="#373737" offset="1"/>
  </linearGradient>
  <linearGradient id="linearGradient5423" x1="130.24" x2="130.24" y1="968.76" y2="956.51" gradientUnits="userSpaceOnUse" xlink:href="#linearGradient5415"/>
 </defs>
 <metadata id="metadata1440">
  <rdf:RDF>
   <cc:Work rdf:about="">
    <dc:format>image/svg+xml</dc:format>
    <dc:type rdf:resource="http://purl.org/dc/dcmitype/StillImage"/>
    <dc:title/>
   </cc:Work>
  </rdf:RDF>
 </metadata>
 <g id="layer1">
  <g id="g1702" transform="matrix(.97573 0 0 .97573 -65.737 -37.183)" fill="none" opacity=".295" stroke="#000" stroke-linecap="round" stroke-linejoin="round" stroke-opacity=".02">
   <rect id="rect1634" x="69.84" y="40.71" width="29.811" height="29.811" rx="6.6099" ry="6.6099" stroke-width=".1"/>
   <rect id="rect1638" x="69.84" y="40.71" width="29.811" height="29.811" rx="6.6099" ry="6.6099" stroke-width=".2"/>
   <rect id="rect1640" x="69.84" y="40.71" width="29.811" height="29.811" rx="6.6099" ry="6.6099" stroke-width=".3"/>
   <rect id="rect1642" x="69.84" y="40.71" width="29.811" height="29.811" rx="6.6099" ry="6.6099" stroke-width=".4"/>
   <rect id="rect1644" x="69.84" y="40.71" width="29.811" height="29.811" rx="6.6099" ry="6.6099" stroke-width=".5"/>
   <rect id="rect1646" x="69.84" y="40.71" width="29.811" height="29.811" rx="6.6099" ry="6.6099" stroke-width=".6"/>
   <rect id="rect1648" x="69.84" y="40.71" width="29.811" height="29.811" rx="6.6099" ry="6.6099" stroke-width=".7"/>
   <rect id="rect1650" x="69.84" y="40.71" width="29.811" height="29.811" rx="6.6099" ry="6.6099" stroke-width=".8"/>
   <rect id="rect1652" x="69.84" y="40.71" width="29.811" height="29.811" rx="6.6099" ry="6.6099"/>
   <rect id="rect1654" x="69.84" y="40.71" width="29.811" height="29.811" rx="6.6099" ry="6.6099" stroke-width="1.2"/>
   <rect id="rect1656" x="69.84" y="40.71" width="29.811" height="29.811" rx="6.6099" ry="6.6099" stroke-width="1.4"/>
   <rect id="rect1658" x="69.84" y="40.71" width="29.811" height="29.811" rx="6.6099" ry="6.6099" stroke-width="1.6"/>
   <rect id="rect1660" x="69.84" y="40.71" width="29.811" height="29.811" rx="6.6099" ry="6.6099" stroke-width="1.8"/>
   <rect id="rect1662" x="69.84" y="40.71" width="29.811" height="29.811" rx="6.6099" ry="6.6099" stroke-width="2"/>
   <rect id="rect1664" x="69.84" y="40.71" width="29.811" height="29.811" rx="6.6099" ry="6.6099" stroke-width="2.2"/>
   <rect id="rect1666" x="69.84" y="40.71" width="29.811" height="29.811" rx="6.6099" ry="6.6099" stroke-width="2.6"/>
   <rect id="rect1668" x="69.84" y="40.71" width="29.811" height="29.811" rx="6.6099" ry="6.6099" stroke-width="3"/>
   <rect id="rect1670" x="69.84" y="40.71" width="29.811" height="29.811" rx="6.6099" ry="6.6099" stroke-width="3.4"/>
   <rect id="rect1672" x="69.84" y="40.71" width="29.811" height="29.811" rx="6.6099" ry="6.6099" stroke-width="3.8"/>
   <rect id="rect1674" x="69.84" y="40.71" width="29.811" height="29.811" rx="6.6099" ry="6.6099" stroke-width="4.2"/>
   <rect id="rect1676" x="69.84" y="40.71" width="29.811" height="29.811" rx="6.6099" ry="6.6099" stroke-width="4.6"/>
   <rect id="rect1678" x="69.84" y="40.71" width="29.811" height="29.811" rx="6.6099" ry="6.6099" stroke-width="5"/>
  </g>
  <rect id="rect849" x="2.4074" y="2.5392" width="29.087" height="29.087" rx="6.4495" ry="6.4495" fill="url(#linearGradient1632)" stroke-linecap="round" stroke-linejoin="round" stroke-width="2.6877"/>
  <path id="path4230" d="m16.951 6.0036c-6.1189 0-11.079 4.9603-11.079 11.079 0 6.1189 4.9603 11.079 11.079 11.079 6.1189 0 11.079-4.9603 11.079-11.079 0-6.1189-4.9603-11.079-11.079-11.079zm3.4434 3.2293c0.27886-0.01962 0.58282 0.03252 0.84352 0.18263 0.69378 0.40031 0.9235 1.2976 0.52249 1.9892-0.39959 0.69592-1.2829 0.92838-1.9766 0.52877-0.69519-0.40103-0.93467-1.2828-0.53506-1.9766 0.25064-0.43406 0.68092-0.69114 1.1457-0.72394zm-3.5944 1.536c0.5834 0 1.1563 0.09176 1.6934 0.23921 0.09543 0.5848 0.44399 1.1169 0.99458 1.4353 0.55064 0.31982 1.1784 0.35206 1.7311 0.14476 1.0735 1.0556 1.7733 2.4933 1.8759 4.0918l-2.0584 0.0251c-0.19083-2.169-2.0199-3.8651-4.2365-3.8651-0.63681 0-1.2324 0.1494-1.7752 0.40288l-1.0072-1.8192c0.84125-0.4174 1.7795-0.65468 2.7824-0.65468zm-3.4937 1.0639 1.0638 1.7752c-1.0905 0.76643-1.8003 2.0325-1.8003 3.4685 0 1.4346 0.70983 2.7021 1.8003 3.4686l-1.0638 1.7878c-1.2707-0.84836-2.2066-2.1443-2.5998-3.6637 0.46086-0.37608 0.73651-0.95656 0.73651-1.5926 0-0.64035-0.27636-1.1998-0.73651-1.5737 0.39321-1.5201 1.3291-2.8216 2.5998-3.67zm-3.8966 3.7959c0.8035 0 1.4541 0.64508 1.4541 1.4478 0 0.79992-0.65065 1.4479-1.4541 1.4479-0.80277 0-1.4479-0.64793-1.4479-1.4479 0-0.80276 0.6451-1.4478 1.4479-1.4478zm11.627 1.8318 2.0584 0.0314c-0.10273 1.5998-0.80245 3.0347-1.8759 4.0918-0.55275-0.21014-1.1791-0.17985-1.7311 0.13848-0.55129 0.31982-0.89914 0.85118-0.99458 1.4353-0.53708 0.14883-1.11 0.22662-1.6934 0.22662-1.0029 0-1.9412-0.22956-2.7824-0.6484l1.0072-1.8067c0.54276 0.25359 1.1377 0.3966 1.7752 0.3966 2.2167 0 4.0456-1.6997 4.2365-3.8651zm-0.63581 4.5765c0.07-0.0054 0.13787-0.0054 0.20773 0 0.46483 0.03251 0.90134 0.28986 1.152 0.72393 0.401 0.69378 0.1721 1.5763-0.5225 1.9766-0.69446 0.39959-1.5882 0.16711-1.9892-0.5288-0.3996-0.69235-0.16002-1.5722 0.53507-1.9703 0.19517-0.11319 0.40685-0.18355 0.61692-0.20144z" enable-background="new" fill="none" stroke="#f8ffff" stroke-dasharray="10.0021, 0.416754" stroke-opacity=".38318" stroke-width=".41675"/>
  <path id="path877" d="m16.862 6.2853c-6.1189 0-11.079 4.9603-11.079 11.079 0 6.1189 4.9603 11.079 11.079 11.079 6.1189 0 11.079-4.9603 11.079-11.079 0-6.1189-4.9603-11.079-11.079-11.079zm3.4434 3.2293c0.27886-0.01962 0.58282 0.03252 0.84352 0.18263 0.69378 0.40031 0.9235 1.2976 0.52249 1.9892-0.39959 0.69592-1.2829 0.92838-1.9766 0.52877-0.69519-0.40103-0.93467-1.2828-0.53506-1.9766 0.25064-0.43407 0.68092-0.69114 1.1457-0.72394zm-3.5944 1.536c0.5834 0 1.1563 0.09176 1.6934 0.23921 0.09543 0.5848 0.44399 1.1169 0.99458 1.4353 0.55064 0.31982 1.1784 0.35206 1.7311 0.14476 1.0735 1.0556 1.7733 2.4933 1.8759 4.0918l-2.0584 0.0251c-0.19083-2.169-2.0199-3.8651-4.2365-3.8651-0.63681 0-1.2324 0.1494-1.7752 0.40288l-1.0072-1.8192c0.84125-0.4174 1.7795-0.65468 2.7824-0.65468zm-3.4937 1.0639 1.0638 1.7752c-1.0905 0.76643-1.8003 2.0325-1.8003 3.4685 0 1.4346 0.70983 2.7021 1.8003 3.4686l-1.0638 1.7878c-1.2707-0.84836-2.2066-2.1443-2.5998-3.6637 0.46086-0.37608 0.73651-0.95656 0.73651-1.5926 0-0.64035-0.27636-1.1998-0.73651-1.5737 0.39321-1.5201 1.3291-2.8216 2.5998-3.67zm-3.8966 3.7959c0.8035 0 1.4541 0.64508 1.4541 1.4478 0 0.79992-0.65065 1.4479-1.4541 1.4479-0.80277 0-1.4479-0.64793-1.4479-1.4479 0-0.80276 0.6451-1.4478 1.4479-1.4478zm11.627 1.8318 2.0584 0.0314c-0.10273 1.5998-0.80245 3.0347-1.8759 4.0918-0.55275-0.21014-1.1791-0.17985-1.7311 0.13848-0.55129 0.31982-0.89914 0.85118-0.99458 1.4353-0.53708 0.14883-1.11 0.22662-1.6934 0.22662-1.0029 0-1.9412-0.22956-2.7824-0.6484l1.0072-1.8067c0.54276 0.25359 1.1377 0.3966 1.7752 0.3966 2.2167 0 4.0456-1.6997 4.2365-3.8651zm-0.63581 4.5765c0.07-0.0054 0.13787-0.0054 0.20773 0 0.46483 0.03251 0.90134 0.28986 1.152 0.72393 0.401 0.69378 0.1721 1.5763-0.5225 1.9766-0.69446 0.39959-1.5882 0.16711-1.9892-0.5288-0.3996-0.69235-0.16002-1.5722 0.53507-1.9703 0.19517-0.11319 0.40685-0.18355 0.61692-0.20144z" enable-background="new" fill="none" stroke="#f8ffff" stroke-dasharray="4.8, 0.2" stroke-opacity=".38318" stroke-width=".2"/>
  <g id="g6853" transform="matrix(.29616 -.079356 .079356 .29616 -75.065 -278.12)">
   <path id="rect6769" d="m41.73 959.54c-2.3332 0.11923-3.2012 1.9648-3.2012 1.9648l1.207 0.70117c-0.0022 2e-3 -0.0036 4e-3 -0.0059 6e-3l21.48 12.473-0.60742 1.0488-0.0078 0.0137-0.19336 0.33789-0.65039 1.123-0.20703 0.35938-0.0078 0.0156-0.49805 0.86328-0.19531 0.33789-0.0078 0.0117-0.0059 0.01-0.19336 0.33594-0.69336 1.2012-0.20703 0.35937-0.69336 1.1992-0.20703 0.35938-0.46289 0.80273-0.20703 0.35938-0.16406 0.28125-0.03125 0.0547-0.69336 1.2012-0.20703 0.35938-0.69336 1.1992-0.20703 0.35937-0.68164 1.1797-0.02344 0.043-0.0957 0.16602-0.09961 0.16992-0.5625 0.97656-0.05859 0.0996-0.19336 0.33594-0.69336 1.2012-0.01172 0.0215-0.19531 0.33789-0.69336 1.1992-0.20703 0.35938-0.69336 1.1992-0.20703 0.35937-0.6582 1.1406-0.20703 0.35937-0.69336 1.1992-0.20703 0.35937-0.69336 1.1992-0.20703 0.35938-0.62891 1.0898-0.07617 0.1328-0.19531 0.3379-0.6582 1.1406-0.01367 0.023-0.19336 0.3359-0.69336 1.1992-0.20703 0.3594-0.49805 0.8633-0.20703 0.3594-0.1582 0.2714-0.03711 0.064-0.69336 1.2012-0.20703 0.3593-0.6582 1.1387-0.20703 0.3594-0.49805 0.8633-0.20703 0.3593-0.11914 0.2051-0.07617 0.1309-0.66406 1.1504-0.0293 0.051h-2e-3l-0.01172 0.019-0.19336 0.3359-0.69336 1.1992-0.20703 0.3594-0.61524 1.0645-0.01367 0.025-0.19336 0.334-0.5 0.8652-0.20703 0.3594-0.16406 0.2852-0.0293 0.049-0.5 0.8672-0.19336 0.334-0.0059 0.01-0.0078 0.014-0.19336 0.3359-0.52344 0.9063-0.18359 0.3184-0.18945 0.3261-0.0039 0.01-0.6582 1.1426h-2e-3l-0.20703 0.3593-0.49805 0.8653-0.20703 0.3593-0.0625 0.1055-0.13281 0.2285h2e-3l-0.5 0.8672-0.20703 0.3594-0.19336 0.334-0.67773 1.1719-0.0293 0.053-0.19336 0.334-0.45703 0.791-0.20703 0.3594-0.1582 0.2734-0.03516 0.061-0.0098 0.016-0.49805 0.8652-0.20703 0.3594-0.19336 0.334-0.69336 1.1992-0.20703 0.3594-0.5 0.8671-0.20703 0.3594-0.13672 0.2363-0.05664 0.096-0.64258 1.1113-0.0293 0.055-0.19336 0.334-0.69336 1.1992-0.20703 0.3593-0.5 0.8672-0.19531 0.336-0.01172 0.023-0.19336 0.334-0.5 0.8652-0.20703 0.3594-0.13672 0.2383-0.05664 0.096-0.41406 0.7187-0.20703 0.3594-0.19336 0.334-0.50195 0.8672-0.20703 0.3594-0.19141 0.332-0.69727 1.209-0.01172 0.018-0.19141 0.332-0.69336 1.2012-0.20703 0.3593-1.5293 2.6485 0.2793 0.1601-0.16211 0.2813 9.4883 5.4765 41.584-72.027 21.264 12.207c8.1e-4 -3e-3 0.0011-5e-3 2e-3 -8e-3l1.209 0.69336s2.4644-3.5407-3.0469-6.7227c-9.6392-5.5652-13.551-16.99-13.551-16.99l0.0039-8e-3 -9.4883-5.4766-0.0039 6e-3s-11.849 2.325-21.488-3.2402c-1.7223-0.99436-3.0859-1.2964-4.1465-1.2422z" filter="url(#filter6849)" opacity=".3"/>
   <g id="g5897" transform="matrix(.7179 .41448 -.41448 .7179 363.02 218.39)">
    <rect id="rect4653" x="139.34" y="954.37" width="13.216" height="114.8" rx="0" ry="0" fill="url(#linearGradient5887)"/>
    <rect id="rect4651" x="138.95" y="953.98" width="13.216" height="114.8" rx="0" ry="0" fill="url(#linearGradient5407)"/>
    <circle id="circle4657" cx="145.56" cy="1063.1" r="1.3996" fill="#ccc"/>
    <circle id="path4661" cx="142.3" cy="957.83" r=".7513" fill="url(#radialGradient4671)"/>
    <circle id="circle4686" cx="148.82" cy="957.83" r=".7513" fill="url(#radialGradient4688)"/>
    <circle id="circle4690" cx="142.3" cy="965.4" r=".7513" fill="url(#radialGradient4694)"/>
    <circle id="circle4692" cx="148.82" cy="965.4" r=".7513" fill="url(#radialGradient4696)"/>
    <path id="path5428" d="m138.95 953.99s-10.977 9.5762-24.404 9.5762c-7.6769 0-7.2402 5.1856-7.2402 5.1856l31.645 0.0879v-14.85z" fill="url(#linearGradient5432)" fill-rule="evenodd"/>
    <path id="path5387" d="m152.17 953.99v14.85l31.643-0.0879s0.43863-5.1856-7.2383-5.1856c-13.427 0-24.404-9.5762-24.404-9.5762z" fill="url(#linearGradient5430)" fill-rule="evenodd"/>
    <path id="path5389" d="m152.17 968.84v-12.402c5.7864 4.1661 13.448 7.3322 21.297 8.3733 6.1621 0.56821 7.4678-0.56775 8.6673 3.9553z" fill="url(#linearGradient5421)" fill-rule="evenodd"/>
    <path id="path5393" d="m138.95 968.84v-12.402c-5.7864 4.1661-13.448 7.3322-21.297 8.3733-6.1621 0.56821-7.4678-0.56775-8.6673 3.9553z" fill="url(#linearGradient5423)" fill-rule="evenodd"/>
    <path id="circle5448" transform="translate(0 956.36)" d="m145.56 105.32a1.3996 1.3996 0 0 0-1.4004 1.3984 1.3996 1.3996 0 0 0 0.75586 1.2422 1.3996 1.3996 0 0 1-0.30079-0.86914 1.3996 1.3996 0 0 1 1.3984-1.3984 1.3996 1.3996 0 0 1 0.64258 0.15625 1.3996 1.3996 0 0 0-1.0957-0.52929z"/>
    <path id="path5883" transform="translate(0 956.36)" d="m138.95-1.666v0.5h0.68555v-0.5zm0 2.1719v0.5h1.2148v-0.5zm0 2.1719v0.5h0.68555v-0.5zm0 2.1719v0.5h2.9648v-0.5zm0 2.0898v0.5h0.68555v-0.5zm0 2.1719v0.5h1.2148v-0.5zm0 2.1719v0.5h0.68555v-0.5zm0 2.1719v0.5h2.9648v-0.5zm0 2.0664v0.52148h0.68555v-0.52149h-0.68555zm0 2.1934v0.5h1.2148v-0.5zm0 2.1719v0.5h0.68555v-0.5zm0 2.1719v0.5h2.9648v-0.5zm0 2.0879v0.5h0.68555v-0.5zm0 2.1719v0.5h1.2148v-0.5zm0 2.1719v0.5h0.68555v-0.5zm0 2.1719v0.5h2.9648v-0.5zm0 1.9668v0.5h0.68555v-0.5zm0 2.1719v0.5h1.2148v-0.5zm0 2.1719v0.5h0.68555v-0.5zm0 2.1719v0.5h2.9648v-0.5zm0 2.0879v0.5h0.68555v-0.5zm0 2.1719v0.5h1.2148v-0.5zm0 2.1719v0.5h0.68555v-0.5zm0 2.1719v0.5h2.9648v-0.5zm0 2.0898v0.5h0.68555v-0.5zm0 2.1719v0.5h1.2148v-0.5zm0 2.1719v0.5h0.68555v-0.5zm0 2.1719v0.5h2.9648v-0.5zm0 2.0879v0.5h0.68555v-0.5zm0 2.1719v0.5h1.2148v-0.5zm0 2.1738v0.5h0.68555v-0.5zm0 2.1719v0.5h2.9648v-0.5zm0 1.9863v0.5h0.68555v-0.5zm0 2.1719v0.5h1.2148v-0.5zm0 2.1719v0.5h0.68555v-0.5zm0 2.1719v0.5h2.9648v-0.5zm0 2.0898v0.5h0.68555v-0.5zm0 2.1719v0.5h1.2148v-0.5zm0 2.1738v0.5h0.68555v-0.5zm0 2.1719v0.5h2.9648v-0.5zm0 2.0664v0.52148h0.68555v-0.52148zm0 2.1934v0.5h1.2148v-0.5zm0 2.1719v0.5h0.68555v-0.5zm0 2.1719v0.5h2.9648v-0.5zm0 2.0879v0.5h0.68555v-0.5zm0 2.1719v0.5h1.2148v-0.5zm0 2.1719v0.5h0.68555v-0.5zm0 2.1719v0.5h2.9648v-0.5zm0 1.9668v0.5h0.68555v-0.5zm0 2.1738v0.5h1.2148v-0.5zm0 2.1719v0.5h0.68555v-0.5zm0 2.1719v0.5h2.9648v-0.5z" fill="#7d7d7d"/>
    <path id="path5881" d="m151.42 954.71v0.5h0.74414v-0.5zm0.32422 2.1719v0.5h0.41992v-0.5zm-1.3965 2.1719v0.5h1.8164v-0.5zm1.3965 2.0898v0.5h0.41992v-0.5zm-0.32422 2.1719v0.5h0.74414v-0.5zm0.32422 2.1719v0.5h0.41992v-0.5zm-1.3965 2.1719v0.5h1.8164v-0.5zm1.3965 2.0664v0.5215h0.41992v-0.5215zm-0.32422 2.1934v0.5h0.74414v-0.5zm0.32422 2.1719v0.5h0.41992v-0.5zm-1.3965 2.1719v0.5h1.8164v-0.5zm1.3965 2.0879v0.5h0.41992v-0.5zm-0.32422 2.1719v0.5h0.74414v-0.5zm0.32422 2.1719v0.5h0.41992v-0.5zm-1.3965 2.1719v0.5h1.8164v-0.5zm1.3965 1.9668v0.5h0.41992v-0.5zm-0.32422 2.1719v0.5h0.74414v-0.5zm0.32422 2.1719v0.5h0.41992v-0.5zm-1.3965 2.1719v0.5h1.8164v-0.5zm1.3965 2.0879v0.5h0.41992v-0.5zm-0.32422 2.1719v0.5h0.74414v-0.5zm0.32422 2.1719v0.5h0.41992v-0.5zm-1.3965 2.1719v0.5h1.8164v-0.5zm1.3965 2.0898v0.5h0.41992v-0.5zm-0.32422 2.1719v0.5h0.74414v-0.5zm0.32422 2.1719v0.5h0.41992v-0.5zm-1.3965 2.1718v0.5h1.8164v-0.5zm1.3965 2.0879v0.5h0.41992v-0.5zm-0.32422 2.1719v0.5h0.74414v-0.5zm0.32422 2.1738v0.5h0.41992v-0.5zm-1.3965 2.1719v0.5h1.8164v-0.5zm1.3965 1.9863v0.5h0.41992v-0.5zm-0.32422 2.1719v0.5h0.74414v-0.5zm0.32422 2.1719v0.5h0.41992v-0.5zm-1.3965 2.1719v0.5h1.8164v-0.5zm1.3965 2.0898v0.5h0.41992v-0.5zm-0.32422 2.1719v0.5h0.74414v-0.5zm0.32422 2.1738v0.5h0.41992v-0.5zm-1.3965 2.1719v0.5h1.8164v-0.5zm1.3965 2.0664v0.522h0.41992v-0.522zm-0.32422 2.1934v0.5h0.74414v-0.5zm0.32422 2.1718v0.5h0.41992v-0.5zm-1.3965 2.1719v0.5h1.8164v-0.5zm1.3965 2.0879v0.5h0.41992v-0.5zm-0.32422 2.1719v0.5h0.74414v-0.5zm0.32422 2.1718v0.5h0.41992v-0.5zm-1.3965 2.1739v0.5h1.8164v-0.5zm1.3965 1.9668v0.5h0.41992v-0.5zm-0.32422 2.1719v0.5h0.74414v-0.5zm0.32422 2.1718v0.5h0.41992v-0.5zm-1.3965 2.1719v0.5h1.8164v-0.5zm1.0723 2.6348v0.5h0.74414v-0.5z" fill="#484848"/>
    <path id="rect5453" d="m138.95 955.16v0.5h0.68555v-0.5zm0 2.1719v0.5h1.2148v-0.5zm0 2.1719v0.5h0.68555v-0.5zm0 2.1719v0.5h2.9648v-0.5zm0 2.0898v0.5h0.68555v-0.5zm0 2.1719v0.5h1.2148v-0.5zm0 2.1719v0.5h0.68555v-0.5zm0 2.1719v0.5h2.9648v-0.5zm0 2.0664v0.5215h0.68555v-0.5215zm0 2.1934v0.5h1.2148v-0.5zm0 2.1719v0.5h0.68555v-0.5zm0 2.1719v0.5h2.9648v-0.5zm0 2.0879v0.5h0.68555v-0.5zm0 2.1719v0.5h1.2148v-0.5zm0 2.1719v0.5h0.68555v-0.5zm0 2.1719v0.5h2.9648v-0.5zm0 1.9668v0.5h0.68555v-0.5zm0 2.1719v0.5h1.2148v-0.5zm0 2.1719v0.5h0.68555v-0.5zm0 2.1719v0.5h2.9648v-0.5zm0 2.0879v0.5h0.68555v-0.5zm0 2.1718v0.5h1.2148v-0.5zm0 2.1719v0.5h0.68555v-0.5zm0 2.1719v0.5h2.9648v-0.5zm0 2.0898v0.5h0.68555v-0.5zm0 2.1719v0.5h1.2148v-0.5zm0 2.1719v0.5h0.68555v-0.5zm0 2.1718v0.5h2.9648v-0.5zm0 2.0879v0.5h0.68555v-0.5zm0 2.1719v0.5h1.2148v-0.5zm0 2.1719v0.5h0.68555v-0.5zm0 2.1719v0.5h2.9648v-0.5zm0 1.9863v0.5h0.68555v-0.5zm0 2.1719v0.5h1.2148v-0.5zm0 2.1718v0.5h0.68555v-0.5zm0 2.1719v0.5h2.9648v-0.5zm0 2.0899v0.5h0.68555v-0.5zm0 2.1718v0.5h1.2148v-0.5zm0 2.1719v0.5h0.68555v-0.5zm0 2.1719v0.5h2.9648v-0.5zm0 2.0664v0.522h0.68555v-0.522zm0 2.1933v0.5h1.2148v-0.5zm0 2.1719v0.5h0.68555v-0.5zm0 2.1719v0.5h2.9648v-0.5zm0 2.0879v0.5h0.68555v-0.5zm0 2.1719v0.5h1.2148v-0.5zm0 2.1718v0.5h0.68555v-0.5zm0 2.1719v0.5h2.9648v-0.5zm0 1.9668v0.5h0.68555v-0.5zm0 2.1719v0.5h1.2148v-0.5zm0 2.1719v0.5h0.68555v-0.5zm0 2.1718v0.5h2.9648v-0.5z" fill="#c9c9c9" opacity=".75"/>
    <path id="path5643" d="m152.17 955.18v0.5h-0.74403v-0.5zm0 2.1719v0.5h-0.41986v-0.5zm0 2.1719v0.5h-1.8158v-0.5zm0 2.0898v0.5h-0.41986v-0.5zm0 2.1719v0.5h-0.74403v-0.5zm0 2.1719v0.5h-0.41986v-0.5zm0 2.1719v0.5h-1.8158v-0.5zm0 2.0664v0.5215h-0.41986v-0.5215zm0 2.1934v0.5h-0.74403v-0.5zm0 2.1719v0.5h-0.41986v-0.5zm0 2.1719v0.5h-1.8158v-0.5zm0 2.0879v0.5h-0.41986v-0.5zm0 2.1719v0.5h-0.74403v-0.5zm0 2.1719v0.5h-0.41986v-0.5zm0 2.1719v0.5h-1.8158v-0.5zm0 1.9668v0.5h-0.41986v-0.5zm0 2.1719v0.5h-0.74403v-0.5zm0 2.1719v0.5h-0.41986v-0.5zm0 2.1719v0.5h-1.8158v-0.5zm0 2.0879v0.5h-0.41986v-0.5zm0 2.1718v0.5h-0.74403v-0.5zm0 2.172v0.5h-0.41986v-0.5zm0 2.1719v0.5h-1.8158v-0.5zm0 2.0898v0.5h-0.41986v-0.5zm0 2.1719v0.5h-0.74403v-0.5zm0 2.1719v0.5h-0.41986v-0.5zm0 2.1718v0.5h-1.8158v-0.5zm0 2.0879v0.5h-0.41986v-0.5zm0 2.1719v0.5h-0.74403v-0.5zm0 2.1719v0.5h-0.41986v-0.5zm0 2.1719v0.5h-1.8158v-0.5zm0 1.9863v0.5h-0.41986v-0.5zm0 2.1719v0.5h-0.74403v-0.5zm0 2.1718v0.5h-0.41986v-0.5zm0 2.1719v0.5h-1.8158v-0.5zm0 2.0899v0.5h-0.41986v-0.5zm0 2.1718v0.5h-0.74403v-0.5zm0 2.1719v0.5h-0.41986v-0.5zm0 2.1719v0.5h-1.8158v-0.5zm0 2.0664v0.522h-0.41986v-0.522zm0 2.1933v0.5h-0.74403v-0.5zm0 2.1719v0.5h-0.41986v-0.5zm0 2.1719v0.5h-1.8158v-0.5zm0 2.0879v0.5h-0.41986v-0.5zm0 2.1719v0.5h-0.74403v-0.5zm0 2.1718v0.5h-0.41986v-0.5zm0 2.1719v0.5h-1.8158v-0.5zm0 1.9668v0.5h-0.41986v-0.5zm0 2.1719v0.5h-0.74403v-0.5zm0 2.1719v0.5h-0.41986v-0.5zm0 2.1718v0.5h-1.8158v-0.5z" fill="#ccc"/>
    <rect id="rect5895" x="138.95" y="953.98" width="13.216" height=".5" rx="0" ry="0" fill="#c5cad2"/>
   </g>
  </g>
 </g>
</svg>
