<?xml version="1.0" encoding="UTF-8"?>
<svg id="svg29" width="64" height="64" version="1.1" viewBox="0 0 64 64" xmlns="http://www.w3.org/2000/svg" xmlns:cc="http://creativecommons.org/ns#" xmlns:dc="http://purl.org/dc/elements/1.1/" xmlns:rdf="http://www.w3.org/1999/02/22-rdf-syntax-ns#" xmlns:xlink="http://www.w3.org/1999/xlink">
 <metadata id="metadata33">
  <rdf:RDF>
   <cc:Work rdf:about="">
    <dc:format>image/svg+xml</dc:format>
    <dc:type rdf:resource="http://purl.org/dc/dcmitype/StillImage"/>
    <dc:title/>
   </cc:Work>
  </rdf:RDF>
 </metadata>
 <defs id="defs7">
  <style id="style835" type="text/css"/>
  <style id="style837" type="text/css"/>
  <filter id="filter1057" x="-.027" y="-.027" width="1.054" height="1.054" color-interpolation-filters="sRGB">
   <feGaussianBlur id="feGaussianBlur839" stdDeviation="0.61875"/>
  </filter>
  <linearGradient id="linearGradient2447" x1="31.738" x2="31.738" y1="6.2139" y2="58.771" gradientUnits="userSpaceOnUse">
   <stop id="stop2441" stop-color="#1e1e1e" offset="0"/>
   <stop id="stop2443" stop-color="#3c3c3c" offset="1"/>
  </linearGradient>
 </defs>
 <g id="g867" fill="#5e4aa6">
  <g id="g861" transform="translate(-76.881,-23.026)">
   <circle id="circle849" cx="-1248.7" cy="-1241.6" r="0"/>
   <circle id="circle851" cx="-1140.3" cy="-1301.8" r="0"/>
   <circle id="circle853" cx="-978.95" cy="-1316.3" r="0"/>
   <circle id="circle855" cx="120.52" cy="-50.805" r="0" fill-rule="evenodd"/>
   <circle id="circle857" cx="-972.45" cy="-1325.3" r="0"/>
   <circle id="circle859" cx="127.04" cy="-59.816" r="0" fill-rule="evenodd"/>
  </g>
  <circle id="circle863" cx="-1248.7" cy="-1241.6" r="0"/>
  <circle id="circle865" cx="-149.15" cy="23.855" r="0" fill-rule="evenodd"/>
 </g>
 <rect id="rect869" x="4.5" y="4.5" width="55" height="55" ry="15" fill="#141414" filter="url(#filter1057)" opacity=".3" stroke-linecap="round" stroke-width="2.7444"/>
 <path id="rect2438" d="m19.5 4.5c-8.31 0-15 6.69-15 15v25c0 8.31 6.69 15 15 15h25c8.31 0 15-6.69 15-15v-25c0-8.31-6.69-15-15-15z" fill="url(#linearGradient2447)" stroke-linecap="round" stroke-linejoin="round" stroke-width="1.0016" style="paint-order:stroke fill markers"/>
 <path id="path964" d="m32 14.5-15 8.75v17.5l15 8.75 15-8.75v-17.5zm0 2.8125 12.5 7.1875v15l-12.5 7.1875-12.5-7.1875v-15m8.75 1.25c-2.0712 0-3.75 1.6788-3.75 3.75 0 4.125 5.375 6.25 7.5 10 2.125-3.75 7.5-5.875 7.5-10 0-2.0712-1.6788-3.75-3.75-3.75s-3.75 1.6788-3.75 3.75c0-2.0712-1.6788-3.75-3.75-3.75z" color="#000000" color-rendering="auto" fill="#e50914" fill-rule="evenodd" image-rendering="auto" shape-rendering="auto" solid-color="#000000" isolation="auto" mix-blend-mode="normal" white-space="normal"/>
</svg>
