<?xml version="1.0" encoding="UTF-8"?>
<svg id="svg43" width="64" height="64" version="1.1" viewBox="0 0 64 64" xmlns="http://www.w3.org/2000/svg" xmlns:cc="http://creativecommons.org/ns#" xmlns:dc="http://purl.org/dc/elements/1.1/" xmlns:rdf="http://www.w3.org/1999/02/22-rdf-syntax-ns#">
 <metadata id="metadata47">
  <rdf:RDF>
   <cc:Work rdf:about="">
    <dc:format>image/svg+xml</dc:format>
    <dc:type rdf:resource="http://purl.org/dc/dcmitype/StillImage"/>
    <dc:title/>
   </cc:Work>
  </rdf:RDF>
 </metadata>
 <defs id="defs7">
  <style id="style858" type="text/css"/>
  <style id="style860" type="text/css"/>
  <filter id="filter1057" x="-.027" y="-.027" width="1.054" height="1.054" color-interpolation-filters="sRGB">
   <feGaussianBlur id="feGaussianBlur862" stdDeviation="0.61875"/>
  </filter>
  <linearGradient id="linearGradient1053" x1="-127" x2="-127" y1="60" y2="5" gradientTransform="translate(131.5 -.51)" gradientUnits="userSpaceOnUse">
   <stop id="stop865" stop-color="#dee0e2" offset="0"/>
   <stop id="stop867" stop-color="#f1f3f5" stop-opacity=".99608" offset="1"/>
  </linearGradient>
 </defs>
 <rect id="rect872" x="4.5" y="4.5" width="55" height="55" ry="15" fill="#141414" filter="url(#filter1057)" opacity=".3" stroke-linecap="round" stroke-width="2.7444"/>
 <rect id="rect874" x="4.5" y="4.5" width="55" height="55" ry="15" fill="url(#linearGradient1053)" stroke-linecap="round" stroke-width="2.7444"/>
 <circle id="circle884" cx="-1190" cy="-1265.6" r="0" fill="#5e4aa6"/>
 <circle id="circle886" cx="-90.383" cy="-.15322" r="0" fill="#5e4aa6" fill-rule="evenodd"/>
 <g id="g981" transform="matrix(1.25 0 0 1.25 73.256 1.9994)">
  <path id="path957" d="m-40.665 22.24 0.705 1.03c-1.32 3.414 2.057 7.248 6.814 8.508 3.485 0.812 4.537 3.067 4.954 4.142 0.416 1.075-1.395-8.779-3.285-13.11-1.1-2.519-4.04-3.704-6.367-3.669-1.58 0.024-3.01 1.198-2.851 1.877 0.109 0.459 0.047 0.874 0.031 1.22z" fill="#f4be2d"/>
  <path id="path959" d="m-41.582 21.466c-5.858 2.296-7.424 2.954-7.424 2.954s6.719-1.648 7.814-1.256c0.922 0.331 0.901-2.205-0.39-1.699z" fill="#f4be2d"/>
  <path id="path961" d="m-32.727 21.515c-0.849 3.728 1.036 6.186 2.917 5.739 1.265-0.3 1.974-0.661 2.899-0.946l-0.787-0.31 1.146 0.206c0.612-0.163 1.344-0.291 2.376-0.351l-1.551-0.704 3.345 0.615c0.613-0.06 1.22-0.162 1.791-0.284l-1.697-0.771 2.774 0.511c1.405-0.38 2.404-0.799 2.404-0.799s1.059 0.377-3.567-1.437-12.05-1.47-12.05-1.47z" fill="#37b0d0"/>
  <path id="path963" d="m-41.231 23.09 0.986 0.945c-0.266 4.068 4.13 7.391 9.1 7.548 3.607-6e-3 5.289 2.188 6.01 3.255 0.72 1.068-3.944-9.233-7.05-13.477-1.807-2.47-5-3.01-7.235-2.376-1.519 0.431-2.555 2.081-2.199 2.781 0.241 0.474 0.304 0.943 0.39 1.325z" fill="#34badb"/>
  <path id="path965" d="m-19.496 12.03c-0.923 0.117-3.262 0.667-8.222 3.11-7.538 3.712-6.701 9.236-6.701 9.236 2.257 2.151 5.886 1.166 7.246-0.873 0.912-1.368 0.96-2.415 1.371-3.338l-1.868 0.411 2.053-0.771c0.211-0.357 0.506-0.698 0.963-1.036 0.659-0.488 0.937-0.884 1.276-1.433l-1.948 0.201 2.382-0.904c0.316-0.495 0.744-1.112 1.44-1.941l-1.715 0.042 2.241-0.648c0.527-0.593 1.176-1.279 1.989-2.081 0 0-0.145-0.021-0.506 0.025z" fill="#3ba2c1"/>
  <path id="path967" d="m-40.26 24.02 0.015 0.013c-0.238 3.646 3.267 6.692 7.573 7.398-1.327-4.644-4.684-6.613-6.212-7.132-0.45-0.153-0.93-0.236-1.376-0.279z" fill="#8eebf9"/>
  <ellipse id="ellipse969" cx="-38.691" cy="21.44" rx=".886" ry=".729" fill="#3695b2"/>
  <ellipse id="ellipse971" transform="matrix(.98977 -.14269 .14555 .98935 0 0)" cx="-41.582" cy="15.513" rx=".408" ry=".26" fill="#bff9f9"/>
 </g>
</svg>
