<?xml version="1.0" encoding="UTF-8"?>
<svg id="svg18" width="64" height="64" version="1" xmlns="http://www.w3.org/2000/svg" xmlns:cc="http://creativecommons.org/ns#" xmlns:dc="http://purl.org/dc/elements/1.1/" xmlns:rdf="http://www.w3.org/1999/02/22-rdf-syntax-ns#" xmlns:xlink="http://www.w3.org/1999/xlink">
 <metadata id="metadata24">
  <rdf:RDF>
   <cc:Work rdf:about="">
    <dc:format>image/svg+xml</dc:format>
    <dc:type rdf:resource="http://purl.org/dc/dcmitype/StillImage"/>
    <dc:title/>
   </cc:Work>
  </rdf:RDF>
 </metadata>
 <defs id="defs22">
  <style id="style950" type="text/css"/>
  <filter id="filter1057" x="-.027" y="-.027" width="1.054" height="1.054" color-interpolation-filters="sRGB">
   <feGaussianBlur id="feGaussianBlur904" stdDeviation="0.61875"/>
  </filter>
  <linearGradient id="linearGradient1079" x1="148.24" x2="93.894" y1="4.8554" y2="59.434" gradientTransform="translate(-88.965)" gradientUnits="userSpaceOnUse">
   <stop id="stop1073" stop-color="#7139d2" offset="0"/>
   <stop id="stop1075" stop-color="#a53cff" offset="1"/>
  </linearGradient>
 </defs>
 <circle id="circle994" cx="-1465.2" cy="-1305.7" r="0" fill="#5e4aa6"/>
 <circle id="circle996" cx="-365.66" cy="-40.192" r="0" fill="#5e4aa6" fill-rule="evenodd"/>
 <circle id="circle998" cx="-1405.8" cy="-1241.6" r="0" fill="#5e4aa6"/>
 <circle id="circle1000" cx="-1330.3" cy="-1243.8" r="0" fill="#5e4aa6"/>
 <circle id="circle1002" cx="-230.73" cy="21.658" r="0" fill="#5e4aa6" fill-rule="evenodd"/>
 <g id="g1018" transform="matrix(3.7796 0 0 3.7796 -81.685 -2.6826)" fill="#5e4aa6" stroke-width=".26458">
  <circle id="circle1004" cx="-305.05" cy="-323.78" r="0"/>
  <circle id="circle1006" cx="-312.62" cy="-328.61" r="0"/>
  <circle id="circle1008" cx="-312.62" cy="-328.61" r="0"/>
  <circle id="circle1010" cx="-294.38" cy="-326.48" r="0"/>
  <circle id="circle1012" cx="-288.29" cy="-333.3" r="0"/>
  <circle id="circle1014" cx="-291.11" cy="-326.24" r="0"/>
  <circle id="circle1016" cx="-311.07" cy="-330.68" r="0"/>
 </g>
 <circle id="circle1020" cx="-1465.2" cy="-1305.7" r="0" fill="#5e4aa6"/>
 <circle id="circle1022" cx="-365.66" cy="-40.192" r="0" fill="#5e4aa6" fill-rule="evenodd"/>
 <circle id="circle1026" cx="-1405.8" cy="-1241.6" r="0" fill="#5e4aa6"/>
 <circle id="circle1028" cx="-1405.8" cy="-1241.6" r="0" fill="#5e4aa6"/>
 <circle id="circle1030" cx="-306.21" cy="23.854" r="0" fill="#5e4aa6" fill-rule="evenodd"/>
 <g id="g924" fill="#5e4aa6">
  <circle id="circle914" cx="-1248.7" cy="-1241.6" r="0"/>
  <circle id="circle916" cx="-1140.3" cy="-1301.8" r="0"/>
  <circle id="circle918" cx="-1158.1" cy="-1246" r="0"/>
  <circle id="circle920" cx="-1157.3" cy="-1267.7" r="0"/>
  <circle id="circle922" cx="-57.756" cy="-2.1829" r="0" fill-rule="evenodd"/>
 </g>
 <rect id="rect926" x="4.5" y="4.5" width="55" height="55" ry="15" fill="#141414" filter="url(#filter1057)" opacity=".3" stroke-linecap="round" stroke-width="2.7444"/>
 <path id="rect1070" d="m19.5 4.5c-8.31 0-15 6.69-15 15v25c0 8.31 6.69 15 15 15h25c8.31 0 15-6.69 15-15v-25c0-8.31-6.69-15-15-15z" fill="url(#linearGradient1079)" stroke-linecap="round" stroke-linejoin="round" stroke-width="2" style="paint-order:stroke fill markers"/>
 <rect id="rect963" x="15" y="15" width="34" height="23" rx="1.417" ry="1.438" fill="#fff"/>
 <path id="path965" d="m18 18h28v4.125l-14 6.875-14-6.875z" fill="#a766fa"/>
 <path id="path969" d="m17.41 42.473c-7e-5 1.69e-4 -2.5e-4 3.34e-4 -3.3e-4 5.04e-4 -4.2e-4 -8.4e-5 -7.6e-4 -2.54e-4 -1e-3 -3.35e-4l6.6e-4 0.0013c-0.36523 0.67995-1.7074 2.8733-2.5623 4.2791-0.86742-1.4368-1.8943-3.095-2.5632-4.2804l-4e-3 0.0015 3e-3 -0.0015c-0.53056 0.11314-0.75245 0.12034-1.2819 0l3e-3 0.0032c-1e-3 -0.0011-3e-3 -0.0021-4e-3 -0.0032 1.0508 1.5834 2.7346 4.5992 3.3074 5.5893l-0.0769 4.1275 4e-3 -0.0021-3e-3 0.0021s0.36951-0.06206 0.61648-0.06206c0.27375 0 0.6142 0.06206 0.6142 0.06206l-1e-3 -0.0013 3e-3 0.0013-0.0769-4.1279-3e-3 -9.85e-4c1.0677-1.8733 2.8286-4.9267 3.3153-5.5857l3e-3 -0.0027c-2.5e-4 5.1e-5 -4.3e-4 8.6e-5 -6.8e-4 1.67e-4 6e-5 -8e-5 9e-5 -2.51e-4 1.8e-4 -3.35e-4 -1.8e-4 1.68e-4 -4.3e-4 1.68e-4 -6.9e-4 3.35e-4 -0.46031 0.10427-0.87557 0.1079-1.2878 5.06e-4zm34.917 0.10116c-0.30776 0-0.61288 0.18046-0.61288 0.64194-0.18252 2.3149-0.37254 4.6363-0.68496 6.8452l-1e-3 0.0015c5e-4 -9.3e-5 9.7e-4 -7.4e-5 1e-3 -1.7e-4 -3e-5 1.6e-4 1e-5 3.39e-4 0 4.98e-4l5e-3 -9.85e-4c0.18741-0.03141 0.33306 0.01752 0.4746 0.07457l-6.8e-4 -9.84e-4c0.3549-2.2437 1.1978-5.6049 1.4136-6.5562 0.031-0.13369 0.0772-0.2918 0.0772-0.40415 0-0.33944-0.21507-0.53669-0.53717-0.59054l-3.3e-4 3.37e-4s-0.0796-0.011-0.1335-0.011zm-6.9653 0.35735c-2.7083 0-4.7783 1.5378-4.7783 4.397 0 2.3558 1.3772 4.4289 4.8012 4.4289 2.8987 0 4.7913-1.5936 4.7913-4.3873 0-2.6346-1.7655-4.4386-4.8136-4.4386zm-9.3885 0.46327c-2.7195 0-4.1463 1.7243-4.1463 3.9595 0 2.4466 1.5576 3.9388 4.1423 3.9388 2.7944 0 4.1591-1.6818 4.1591-3.9132 0-2.488-1.6297-3.9852-4.155-3.9852zm9.3918 0.01511c2.0338 0 3.5318 1.2355 3.5318 3.9604 0 2.9621-1.8122 3.9228-3.5286 3.9228-1.8339 0-3.5045-1.0762-3.5045-3.9812 0-3.011 1.8518-3.9019 3.5014-3.9019zm-25.229 0.0854c-1.0324 2.5909-2.2218 5.5145-3.2915 7.6949v1.69e-4l-1.8e-4 8.43e-4 4e-3 -0.0018c-1e-3 2.53e-4 -1e-3 4.19e-4 -3e-3 6.71e-4l8e-3 -0.0027-4e-3 2e-3c0.48919-0.12144 0.9561-0.08404 1.2648-5.07e-4 -2e-3 -6.72e-4 -3e-3 -0.0015-4e-3 -0.0022l4e-3 0.0015c0.27291-0.68962 0.58252-1.4697 0.89337-2.2556l1e-3 0.0013c1.0505-0.02995 2.101-0.03399 3.1516 0 0.2989 0.75178 0.59829 1.5044 0.89057 2.2572 6.8e-4 -3.35e-4 1e-3 -6.71e-4 1e-3 -9.82e-4l-3.3e-4 8.39e-4c0.46841-0.12232 0.93461-0.08911 1.279-0.0022l-1e-3 -5.01e-4 1e-3 5.01e-4c-0.77053-1.4391-2.3175-5.2048-3.3006-7.6927l-8e-3 0.0032 6e-3 -0.0036c-0.31931 0.11152-0.57961 0.10509-0.89319 1.67e-4zm4.6568 0.0032v1.67e-4c0.11157 2.5682 0.10194 5.1317 0 7.6915 0.41626-0.10029 0.84248-0.10459 1.2801 1.71e-4l-3e-3 -0.0018 4e-3 0.0018c-0.0631-1.1935-0.095-2.3858-0.099-3.5772 1.4326-0.02001 2.8653-0.02086 4.298-0.0015-5e-3 1.192-0.036 2.3848-0.0991 3.5789l4e-3 -0.0015-3e-3 0.0015c0.43751-0.10473 0.86378-0.10038 1.2799-1.7e-4 1.6e-4 4.2e-5 3.4e-4 8.3e-5 5.1e-4 1.7e-4l-1.7e-4 -1.7e-4c-0.10194-2.5598-0.11159-5.1233 0-7.6915l1.7e-4 -1.67e-4c-5e-5 1.1e-5 -8e-5 -1.3e-5 -1.7e-4 0h-1.8e-4c-0.43487 0.10407-0.86182 0.10127-1.2816 0l6.7e-4 8.39e-4 -9.8e-4 -6.72e-4c0.0621 1.1955 0.0945 2.3921 0.099 3.5896-1.4339 0.03336-2.8668 0.03606-4.2978 0 5e-3 -1.1975 0.0369-2.394 0.099-3.5896l-9.9e-4 6.72e-4 6.8e-4 -8.39e-4c-0.41976 0.10127-0.84687 0.10407-1.2818 0zm11.114 0.36244h1.7e-4c0.0237-5.05e-4 0.0476 0 0.0713 0 1.6631 0 2.8844 1.1327 2.8844 3.4997 0 2.364-1.2198 3.4966-2.8813 3.4966-1.8128 0-2.878-1.2991-2.878-3.4902 0-2.478 1.3124-3.4756 2.8034-3.5061zm-15.324 0.96431c0.42464 1.1834 0.89177 2.376 1.3662 3.572l-5e-4 -1.67e-4c-0.90914 0.0315-1.8181 0.03196-2.7272 0l-1e-3 8.23e-4c0.55561-1.4092 1.0846-2.7707 1.3634-3.5726zm30.407 6.1664c-0.40329 0-0.6045 0.30769-0.6045 0.6385 0 0.39001 0.31162 0.58988 0.69679 0.58988 0.27858 0 0.5825-0.16938 0.5825-0.6288 0-0.36873-0.28879-0.59957-0.67479-0.59957z" fill="#fff"/>
</svg>
