<?xml version="1.0" encoding="UTF-8" standalone="no"?>
<svg
   id="svg18"
   width="512"
   height="512"
   version="1"
   viewBox="0 0 64 64"
   sodipodi:docname="yahoo-mail.svg"
   inkscape:version="1.4.4 (dcaf3e7d9e, 2026-05-05)"
   xmlns:inkscape="http://www.inkscape.org/namespaces/inkscape"
   xmlns:sodipodi="http://sodipodi.sourceforge.net/DTD/sodipodi-0.dtd"
   xmlns:xlink="http://www.w3.org/1999/xlink"
   xmlns="http://www.w3.org/2000/svg"
   xmlns:svg="http://www.w3.org/2000/svg"
   xmlns:rdf="http://www.w3.org/1999/02/22-rdf-syntax-ns#"
   xmlns:cc="http://creativecommons.org/ns#"
   xmlns:dc="http://purl.org/dc/elements/1.1/">
  <sodipodi:namedview
     id="namedview1"
     pagecolor="#ffffff"
     bordercolor="#999999"
     borderopacity="1"
     inkscape:showpageshadow="2"
     inkscape:pageopacity="0"
     inkscape:pagecheckerboard="0"
     inkscape:deskcolor="#d1d1d1"
     inkscape:zoom="2.2617187"
     inkscape:cx="236.76684"
     inkscape:cy="242.73575"
     inkscape:window-width="2560"
     inkscape:window-height="1371"
     inkscape:window-x="0"
     inkscape:window-y="0"
     inkscape:window-maximized="1"
     inkscape:current-layer="svg18" />
  <metadata
     id="metadata24">
    <rdf:RDF>
      <cc:Work
         rdf:about="">
        <dc:format>image/svg+xml</dc:format>
        <dc:type
           rdf:resource="http://purl.org/dc/dcmitype/StillImage" />
        <dc:title />
      </cc:Work>
    </rdf:RDF>
  </metadata>
  <defs
     id="defs22">
    <linearGradient
       id="linearGradient1"
       inkscape:collect="always">
      <stop
         style="stop-color:#ffffff;stop-opacity:1;"
         offset="0"
         id="stop1" />
      <stop
         style="stop-color:#ffffff;stop-opacity:0.89999998;"
         offset="1"
         id="stop2" />
    </linearGradient>
    <style
       id="style950"
       type="text/css" />
    <filter
       id="filter1057"
       x="-0.026999999"
       y="-0.026999999"
       width="1.054"
       height="1.054"
       color-interpolation-filters="sRGB">
      <feGaussianBlur
         id="feGaussianBlur904"
         stdDeviation="0.61875" />
    </filter>
    <linearGradient
       id="linearGradient1079"
       x1="120.965"
       x2="120.965"
       y1="59.5"
       y2="4.5"
       gradientTransform="translate(-88.965)"
       gradientUnits="userSpaceOnUse">
      <stop
         id="stop1073"
         stop-color="#7139d2"
         offset="0"
         style="stop-color:#613583;stop-opacity:1" />
      <stop
         id="stop1075"
         stop-color="#a53cff"
         offset="1"
         style="stop-color:#c061cb;stop-opacity:1" />
    </linearGradient>
    <linearGradient
       inkscape:collect="always"
       xlink:href="#linearGradient1"
       id="linearGradient3"
       gradientUnits="userSpaceOnUse"
       x1="32"
       y1="9.5"
       x2="32"
       y2="43.5" />
    <filter
       inkscape:collect="always"
       style="color-interpolation-filters:sRGB"
       id="filter4"
       x="-0.062867647"
       y="-0.092934783"
       width="1.1257353"
       height="1.1858696">
      <feGaussianBlur
         inkscape:collect="always"
         stdDeviation="0.890625"
         id="feGaussianBlur4" />
    </filter>
    <filter
       inkscape:collect="always"
       style="color-interpolation-filters:sRGB"
       id="filter5"
       x="-0.046203345"
       y="-0.19907578"
       width="1.0924067"
       height="1.3981516">
      <feGaussianBlur
         inkscape:collect="always"
         stdDeviation="0.80853834"
         id="feGaussianBlur5" />
    </filter>
  </defs>
  <rect
     id="rect926"
     x="4.5"
     y="4.5"
     width="55"
     height="55"
     ry="15"
     fill="#141414"
     filter="url(#filter1057)"
     opacity=".3"
     stroke-linecap="round"
     stroke-width="2.7444" />
  <path
     id="rect1070"
     d="m19.5 4.5c-8.31 0-15 6.69-15 15v25c0 8.31 6.69 15 15 15h25c8.31 0 15-6.69 15-15v-25c0-8.31-6.69-15-15-15z"
     fill="url(#linearGradient1079)"
     stroke-linecap="round"
     stroke-linejoin="round"
     stroke-width="2"
     style="paint-order:stroke fill markers;fill:url(#linearGradient1079)" />
  <path
     id="rect963"
     d="M 16.416992 15 C 15.631974 15 15 15.641336 15 16.437988 L 15 36.562012 C 15 37.358664 15.631974 38 16.416992 38 L 47.583008 38 C 48.368026 38 49 37.358664 49 36.562012 L 49 16.437988 C 49 15.641336 48.368026 15 47.583008 15 L 16.416992 15 z M 18 18 L 46 18 L 46 22.125 L 32 29 L 18 22.125 L 18 18 z "
     style="fill:#000000;fill-opacity:1;filter:url(#filter4);opacity:0.35" />
  <path
     id="rect963-2"
     d="M 16.416992,15 C 15.631974,15 15,15.641336 15,16.437988 V 36.562012 C 15,37.358664 15.631974,38 16.416992,38 H 47.583008 C 48.368026,38 49,37.358664 49,36.562012 V 16.437988 C 49,15.641336 48.368026,15 47.583008,15 Z M 18,18 h 28 v 4.125 L 32,29 18,22.125 Z"
     style="fill:url(#linearGradient3);fill-opacity:1" />
  <path
     id="path969"
     d="m17.41 42.473c-7e-5 1.69e-4 -2.5e-4 3.34e-4 -3.3e-4 5.04e-4 -4.2e-4 -8.4e-5 -7.6e-4 -2.54e-4 -1e-3 -3.35e-4l6.6e-4 0.0013c-0.36523 0.67995-1.7074 2.8733-2.5623 4.2791-0.86742-1.4368-1.8943-3.095-2.5632-4.2804l-4e-3 0.0015 3e-3 -0.0015c-0.53056 0.11314-0.75245 0.12034-1.2819 0l3e-3 0.0032c-1e-3 -0.0011-3e-3 -0.0021-4e-3 -0.0032 1.0508 1.5834 2.7346 4.5992 3.3074 5.5893l-0.0769 4.1275 4e-3 -0.0021-3e-3 0.0021s0.36951-0.06206 0.61648-0.06206c0.27375 0 0.6142 0.06206 0.6142 0.06206l-1e-3 -0.0013 3e-3 0.0013-0.0769-4.1279-3e-3 -9.85e-4c1.0677-1.8733 2.8286-4.9267 3.3153-5.5857l3e-3 -0.0027c-2.5e-4 5.1e-5 -4.3e-4 8.6e-5 -6.8e-4 1.67e-4 6e-5 -8e-5 9e-5 -2.51e-4 1.8e-4 -3.35e-4 -1.8e-4 1.68e-4 -4.3e-4 1.68e-4 -6.9e-4 3.35e-4 -0.46031 0.10427-0.87557 0.1079-1.2878 5.06e-4zm34.917 0.10116c-0.30776 0-0.61288 0.18046-0.61288 0.64194-0.18252 2.3149-0.37254 4.6363-0.68496 6.8452l-1e-3 0.0015c5e-4 -9.3e-5 9.7e-4 -7.4e-5 1e-3 -1.7e-4 -3e-5 1.6e-4 1e-5 3.39e-4 0 4.98e-4l5e-3 -9.85e-4c0.18741-0.03141 0.33306 0.01752 0.4746 0.07457l-6.8e-4 -9.84e-4c0.3549-2.2437 1.1978-5.6049 1.4136-6.5562 0.031-0.13369 0.0772-0.2918 0.0772-0.40415 0-0.33944-0.21507-0.53669-0.53717-0.59054l-3.3e-4 3.37e-4s-0.0796-0.011-0.1335-0.011zm-6.9653 0.35735c-2.7083 0-4.7783 1.5378-4.7783 4.397 0 2.3558 1.3772 4.4289 4.8012 4.4289 2.8987 0 4.7913-1.5936 4.7913-4.3873 0-2.6346-1.7655-4.4386-4.8136-4.4386zm-9.3885 0.46327c-2.7195 0-4.1463 1.7243-4.1463 3.9595 0 2.4466 1.5576 3.9388 4.1423 3.9388 2.7944 0 4.1591-1.6818 4.1591-3.9132 0-2.488-1.6297-3.9852-4.155-3.9852zm9.3918 0.01511c2.0338 0 3.5318 1.2355 3.5318 3.9604 0 2.9621-1.8122 3.9228-3.5286 3.9228-1.8339 0-3.5045-1.0762-3.5045-3.9812 0-3.011 1.8518-3.9019 3.5014-3.9019zm-25.229 0.0854c-1.0324 2.5909-2.2218 5.5145-3.2915 7.6949v1.69e-4l-1.8e-4 8.43e-4 4e-3 -0.0018c-1e-3 2.53e-4 -1e-3 4.19e-4 -3e-3 6.71e-4l8e-3 -0.0027-4e-3 2e-3c0.48919-0.12144 0.9561-0.08404 1.2648-5.07e-4 -2e-3 -6.72e-4 -3e-3 -0.0015-4e-3 -0.0022l4e-3 0.0015c0.27291-0.68962 0.58252-1.4697 0.89337-2.2556l1e-3 0.0013c1.0505-0.02995 2.101-0.03399 3.1516 0 0.2989 0.75178 0.59829 1.5044 0.89057 2.2572 6.8e-4 -3.35e-4 1e-3 -6.71e-4 1e-3 -9.82e-4l-3.3e-4 8.39e-4c0.46841-0.12232 0.93461-0.08911 1.279-0.0022l-1e-3 -5.01e-4 1e-3 5.01e-4c-0.77053-1.4391-2.3175-5.2048-3.3006-7.6927l-8e-3 0.0032 6e-3 -0.0036c-0.31931 0.11152-0.57961 0.10509-0.89319 1.67e-4zm4.6568 0.0032v1.67e-4c0.11157 2.5682 0.10194 5.1317 0 7.6915 0.41626-0.10029 0.84248-0.10459 1.2801 1.71e-4l-3e-3 -0.0018 4e-3 0.0018c-0.0631-1.1935-0.095-2.3858-0.099-3.5772 1.4326-0.02001 2.8653-0.02086 4.298-0.0015-5e-3 1.192-0.036 2.3848-0.0991 3.5789l4e-3 -0.0015-3e-3 0.0015c0.43751-0.10473 0.86378-0.10038 1.2799-1.7e-4 1.6e-4 4.2e-5 3.4e-4 8.3e-5 5.1e-4 1.7e-4l-1.7e-4 -1.7e-4c-0.10194-2.5598-0.11159-5.1233 0-7.6915l1.7e-4 -1.67e-4c-5e-5 1.1e-5 -8e-5 -1.3e-5 -1.7e-4 0h-1.8e-4c-0.43487 0.10407-0.86182 0.10127-1.2816 0l6.7e-4 8.39e-4 -9.8e-4 -6.72e-4c0.0621 1.1955 0.0945 2.3921 0.099 3.5896-1.4339 0.03336-2.8668 0.03606-4.2978 0 5e-3 -1.1975 0.0369-2.394 0.099-3.5896l-9.9e-4 6.72e-4 6.8e-4 -8.39e-4c-0.41976 0.10127-0.84687 0.10407-1.2818 0zm11.114 0.36244h1.7e-4c0.0237-5.05e-4 0.0476 0 0.0713 0 1.6631 0 2.8844 1.1327 2.8844 3.4997 0 2.364-1.2198 3.4966-2.8813 3.4966-1.8128 0-2.878-1.2991-2.878-3.4902 0-2.478 1.3124-3.4756 2.8034-3.5061zm-15.324 0.96431c0.42464 1.1834 0.89177 2.376 1.3662 3.572l-5e-4 -1.67e-4c-0.90914 0.0315-1.8181 0.03196-2.7272 0l-1e-3 8.23e-4c0.55561-1.4092 1.0846-2.7707 1.3634-3.5726zm30.407 6.1664c-0.40329 0-0.6045 0.30769-0.6045 0.6385 0 0.39001 0.31162 0.58988 0.69679 0.58988 0.27858 0 0.5825-0.16938 0.5825-0.6288 0-0.36873-0.28879-0.59957-0.67479-0.59957z"
     fill="#fff"
     style="fill:#000000;fill-opacity:1;filter:url(#filter5);opacity:0.35" />
  <path
     id="path969-2"
     d="m 17.41,42.473 c -7e-5,1.69e-4 -2.5e-4,3.34e-4 -3.3e-4,5.04e-4 -4.2e-4,-8.4e-5 -7.6e-4,-2.54e-4 -10e-4,-3.35e-4 l 6.6e-4,0.0013 c -0.36523,0.67995 -1.7074,2.8733 -2.5623,4.2791 -0.86742,-1.4368 -1.8943,-3.095 -2.5632,-4.2804 l -0.004,0.0015 0.003,-0.0015 c -0.53056,0.11314 -0.75245,0.12034 -1.2819,0 l 0.003,0.0032 c -0.001,-0.0011 -0.003,-0.0021 -0.004,-0.0032 1.0508,1.5834 2.7346,4.5992 3.3074,5.5893 l -0.0769,4.1275 0.004,-0.0021 -0.003,0.0021 c 0,0 0.36951,-0.06206 0.61648,-0.06206 0.27375,0 0.6142,0.06206 0.6142,0.06206 l -10e-4,-0.0013 0.003,0.0013 -0.0769,-4.1279 -0.003,-9.85e-4 c 1.0677,-1.8733 2.8286,-4.9267 3.3153,-5.5857 l 0.003,-0.0027 c -2.5e-4,5.1e-5 -4.3e-4,8.6e-5 -6.8e-4,1.67e-4 6e-5,-8e-5 9e-5,-2.51e-4 1.8e-4,-3.35e-4 -1.8e-4,1.68e-4 -4.3e-4,1.68e-4 -6.9e-4,3.35e-4 -0.46031,0.10427 -0.87557,0.1079 -1.2878,5.06e-4 z m 34.917,0.10116 c -0.30776,0 -0.61288,0.18046 -0.61288,0.64194 -0.18252,2.3149 -0.37254,4.6363 -0.68496,6.8452 l -10e-4,0.0015 c 5e-4,-9.3e-5 9.7e-4,-7.4e-5 10e-4,-1.7e-4 -3e-5,1.6e-4 1e-5,3.39e-4 0,4.98e-4 l 0.005,-9.85e-4 c 0.18741,-0.03141 0.33306,0.01752 0.4746,0.07457 l -6.8e-4,-9.84e-4 c 0.3549,-2.2437 1.1978,-5.6049 1.4136,-6.5562 0.031,-0.13369 0.0772,-0.2918 0.0772,-0.40415 0,-0.33944 -0.21507,-0.53669 -0.53717,-0.59054 l -3.3e-4,3.37e-4 c 0,0 -0.0796,-0.011 -0.1335,-0.011 z m -6.9653,0.35735 c -2.7083,0 -4.7783,1.5378 -4.7783,4.397 0,2.3558 1.3772,4.4289 4.8012,4.4289 2.8987,0 4.7913,-1.5936 4.7913,-4.3873 0,-2.6346 -1.7655,-4.4386 -4.8136,-4.4386 z m -9.3885,0.46327 c -2.7195,0 -4.1463,1.7243 -4.1463,3.9595 0,2.4466 1.5576,3.9388 4.1423,3.9388 2.7944,0 4.1591,-1.6818 4.1591,-3.9132 0,-2.488 -1.6297,-3.9852 -4.155,-3.9852 z m 9.3918,0.01511 c 2.0338,0 3.5318,1.2355 3.5318,3.9604 0,2.9621 -1.8122,3.9228 -3.5286,3.9228 -1.8339,0 -3.5045,-1.0762 -3.5045,-3.9812 0,-3.011 1.8518,-3.9019 3.5014,-3.9019 z m -25.229,0.0854 c -1.0324,2.5909 -2.2218,5.5145 -3.2915,7.6949 v 1.69e-4 l -1.8e-4,8.43e-4 0.004,-0.0018 c -0.001,2.53e-4 -0.001,4.19e-4 -0.003,6.71e-4 l 0.008,-0.0027 -0.004,0.002 c 0.48919,-0.12144 0.9561,-0.08404 1.2648,-5.07e-4 -0.002,-6.72e-4 -0.003,-0.0015 -0.004,-0.0022 l 0.004,0.0015 c 0.27291,-0.68962 0.58252,-1.4697 0.89337,-2.2556 l 10e-4,0.0013 c 1.0505,-0.02995 2.101,-0.03399 3.1516,0 0.2989,0.75178 0.59829,1.5044 0.89057,2.2572 6.8e-4,-3.35e-4 10e-4,-6.71e-4 10e-4,-9.82e-4 l -3.3e-4,8.39e-4 c 0.46841,-0.12232 0.93461,-0.08911 1.279,-0.0022 l -0.001,-5.01e-4 0.001,5.01e-4 c -0.77053,-1.4391 -2.3175,-5.2048 -3.3006,-7.6927 l -0.008,0.0032 0.006,-0.0036 c -0.31931,0.11152 -0.57961,0.10509 -0.89319,1.67e-4 z m 4.6568,0.0032 v 1.67e-4 c 0.11157,2.5682 0.10194,5.1317 0,7.6915 0.41626,-0.10029 0.84248,-0.10459 1.2801,1.71e-4 l -0.003,-0.0018 0.004,0.0018 c -0.0631,-1.1935 -0.095,-2.3858 -0.099,-3.5772 1.4326,-0.02001 2.8653,-0.02086 4.298,-0.0015 -0.005,1.192 -0.036,2.3848 -0.0991,3.5789 l 0.004,-0.0015 -0.003,0.0015 c 0.43751,-0.10473 0.86378,-0.10038 1.2799,-1.7e-4 1.6e-4,4.2e-5 3.4e-4,8.3e-5 5.1e-4,1.7e-4 l -1.7e-4,-1.7e-4 c -0.10194,-2.5598 -0.11159,-5.1233 0,-7.6915 l 1.7e-4,-1.67e-4 c -5e-5,1.1e-5 -8e-5,-1.3e-5 -1.7e-4,0 h -1.8e-4 c -0.43487,0.10407 -0.86182,0.10127 -1.2816,0 l 6.7e-4,8.39e-4 -9.8e-4,-6.72e-4 c 0.0621,1.1955 0.0945,2.3921 0.099,3.5896 -1.4339,0.03336 -2.8668,0.03606 -4.2978,0 0.005,-1.1975 0.0369,-2.394 0.099,-3.5896 l -9.9e-4,6.72e-4 6.8e-4,-8.39e-4 c -0.41976,0.10127 -0.84687,0.10407 -1.2818,0 z m 11.114,0.36244 h 1.7e-4 c 0.0237,-5.05e-4 0.0476,0 0.0713,0 1.6631,0 2.8844,1.1327 2.8844,3.4997 0,2.364 -1.2198,3.4966 -2.8813,3.4966 -1.8128,0 -2.878,-1.2991 -2.878,-3.4902 0,-2.478 1.3124,-3.4756 2.8034,-3.5061 z m -15.324,0.96431 c 0.42464,1.1834 0.89177,2.376 1.3662,3.572 l -5e-4,-1.67e-4 c -0.90914,0.0315 -1.8181,0.03196 -2.7272,0 l -10e-4,8.23e-4 c 0.55561,-1.4092 1.0846,-2.7707 1.3634,-3.5726 z m 30.407,6.1664 c -0.40329,0 -0.6045,0.30769 -0.6045,0.6385 0,0.39001 0.31162,0.58988 0.69679,0.58988 0.27858,0 0.5825,-0.16938 0.5825,-0.6288 0,-0.36873 -0.28879,-0.59957 -0.67479,-0.59957 z"
     fill="#ffffff" />
</svg>
