<?xml version="1.0" encoding="UTF-8" standalone="no"?>
<svg
   id="svg1443"
   width="512"
   height="512"
   version="1.1"
   viewBox="0 0 33.867 33.867"
   sodipodi:docname="youtube-music.svg"
   inkscape:version="1.4.4 (dcaf3e7d9e, 2026-05-05)"
   xmlns:inkscape="http://www.inkscape.org/namespaces/inkscape"
   xmlns:sodipodi="http://sodipodi.sourceforge.net/DTD/sodipodi-0.dtd"
   xmlns:xlink="http://www.w3.org/1999/xlink"
   xmlns="http://www.w3.org/2000/svg"
   xmlns:svg="http://www.w3.org/2000/svg"
   xmlns:rdf="http://www.w3.org/1999/02/22-rdf-syntax-ns#"
   xmlns:cc="http://creativecommons.org/ns#"
   xmlns:dc="http://purl.org/dc/elements/1.1/">
  <sodipodi:namedview
     id="namedview1"
     pagecolor="#ffffff"
     bordercolor="#999999"
     borderopacity="1"
     inkscape:showpageshadow="2"
     inkscape:pageopacity="0"
     inkscape:pagecheckerboard="0"
     inkscape:deskcolor="#d1d1d1"
     inkscape:zoom="2.3242188"
     inkscape:cx="255.78487"
     inkscape:cy="256"
     inkscape:window-width="2560"
     inkscape:window-height="1403"
     inkscape:window-x="0"
     inkscape:window-y="0"
     inkscape:window-maximized="1"
     inkscape:current-layer="svg1443" />
  <defs
     id="defs1437">
    <linearGradient
       id="linearGradient1632"
       x1="132.21"
       x2="132.21"
       y1="42.152"
       y2="70.68"
       gradientTransform="matrix(0.97573,0,0,0.97573,-111.77,-37.183)"
       gradientUnits="userSpaceOnUse">
      <stop
         id="stop1626"
         stop-color="#fafafc"
         offset="0"
         style="stop-color:#ffffff;stop-opacity:1;" />
      <stop
         id="stop1628"
         stop-color="#eae6e5"
         offset="1"
         style="stop-color:#ddd5d4;stop-opacity:1;" />
    </linearGradient>
    <linearGradient
       id="linearGradient845"
       x1="1454.9"
       x2="1454.9"
       y1="298.56"
       y2="671.68"
       gradientTransform="matrix(0.068047,0,0,0.068047,-40.847,-29.171)"
       gradientUnits="userSpaceOnUse">
      <stop
         id="stop839"
         stop-color="#e93728"
         offset="0" />
      <stop
         id="stop841"
         stop-color="#e43323"
         offset="1" />
    </linearGradient>
    <radialGradient
       id="radialGradient855"
       cx="1434.6"
       cy="482.54"
       r="204.26"
       gradientTransform="matrix(0.068047,0,0,0.065807,-40.847,-28.091)"
       gradientUnits="userSpaceOnUse">
      <stop
         id="stop849"
         stop-color="#e9e9e9"
         stop-opacity="0"
         offset="0" />
      <stop
         id="stop857"
         stop-color="#e9e9e9"
         stop-opacity="0"
         offset=".95778" />
      <stop
         id="stop851"
         stop-color="#e9e9e9"
         stop-opacity=".5"
         offset="1" />
    </radialGradient>
    <linearGradient
       id="linearGradient907"
       x1="1033.9"
       x2="1159.4"
       y1="484.02"
       y2="701.51"
       gradientUnits="userSpaceOnUse">
      <stop
         id="stop901"
         stop-color="#fff"
         offset="0" />
      <stop
         id="stop903"
         stop-color="#eb3223"
         offset="1" />
    </linearGradient>
    <linearGradient
       id="linearGradient877"
       x1="1058"
       x2="1072.6"
       y1="525.87"
       y2="551.17"
       gradientUnits="userSpaceOnUse">
      <stop
         id="stop871"
         stop-color="#ebebeb"
         stop-opacity="0"
         offset="0" />
      <stop
         id="stop873"
         stop-color="#e93122"
         offset="1" />
    </linearGradient>
    <radialGradient
       id="radialGradient1035"
       cx="955.95"
       cy="495.64"
       r="108.08"
       gradientTransform="matrix(0.070367,0,0,0.074188,-10.502,-32.124)"
       gradientUnits="userSpaceOnUse">
      <stop
         id="stop1027"
         stop-opacity="0"
         offset="0" />
      <stop
         id="stop1037"
         stop-opacity="0"
         offset=".88612" />
      <stop
         id="stop1069"
         stop-opacity=".027451"
         offset=".89661" />
      <stop
         id="stop1071"
         stop-opacity=".10588"
         offset=".91622" />
      <stop
         id="stop1065"
         stop-opacity=".14902"
         offset=".92321" />
      <stop
         id="stop1063"
         stop-opacity=".29804"
         offset=".94714" />
      <stop
         id="stop1029"
         stop-opacity=".92585"
         offset="1" />
    </radialGradient>
    <radialGradient
       id="radialGradient1085"
       cx="1440.1"
       cy="505.93"
       r="120.18"
       gradientTransform="matrix(0.068047,0,0,0.068047,-41.209,-29.08)"
       gradientUnits="userSpaceOnUse">
      <stop
         id="stop1079"
         offset="0" />
      <stop
         id="stop1087"
         stop-opacity=".6902"
         offset=".30891" />
      <stop
         id="stop1081"
         stop-opacity="0"
         offset="1" />
    </radialGradient>
    <radialGradient
       id="radialGradient1012"
       cx="674.38"
       cy="484.96"
       r="120.28"
       gradientTransform="matrix(0.068047,0,0,0.068047,10.875,-29.08)"
       gradientUnits="userSpaceOnUse">
      <stop
         id="stop1014"
         stop-color="#e93728"
         offset="0" />
      <stop
         id="stop1019"
         stop-color="#d47d79"
         offset=".82059" />
      <stop
         id="stop1021"
         stop-color="#eee"
         offset=".91177" />
      <stop
         id="stop1023"
         stop-color="#ededed"
         offset=".97072" />
      <stop
         id="stop1016"
         stop-color="#fdfbfc"
         offset="1" />
    </radialGradient>
    <radialGradient
       id="radialGradient1161"
       cx="17.3"
       cy="17.606"
       r="12.288"
       gradientUnits="userSpaceOnUse">
      <stop
         id="stop1155"
         stop-color="#e73626"
         offset="0" />
      <stop
         id="stop1157"
         stop-color="#e73626"
         stop-opacity="0"
         offset="1" />
    </radialGradient>
    <linearGradient
       inkscape:collect="always"
       xlink:href="#linearGradient907"
       id="linearGradient1"
       gradientUnits="userSpaceOnUse"
       x1="1033.9"
       y1="484.02"
       x2="1159.4"
       y2="701.51" />
    <linearGradient
       inkscape:collect="always"
       xlink:href="#linearGradient907"
       id="linearGradient2"
       gradientUnits="userSpaceOnUse"
       x1="1033.9"
       y1="484.02"
       x2="1159.4"
       y2="701.51" />
    <linearGradient
       inkscape:collect="always"
       xlink:href="#linearGradient907"
       id="linearGradient3"
       gradientUnits="userSpaceOnUse"
       x1="1033.9"
       y1="484.02"
       x2="1159.4"
       y2="701.51" />
    <linearGradient
       inkscape:collect="always"
       xlink:href="#linearGradient877"
       id="linearGradient4"
       gradientUnits="userSpaceOnUse"
       x1="1058"
       y1="525.87"
       x2="1072.6"
       y2="551.17" />
    <linearGradient
       inkscape:collect="always"
       xlink:href="#linearGradient877"
       id="linearGradient5"
       gradientUnits="userSpaceOnUse"
       x1="1058"
       y1="525.87"
       x2="1072.6"
       y2="551.17" />
    <linearGradient
       inkscape:collect="always"
       xlink:href="#linearGradient877"
       id="linearGradient6"
       gradientUnits="userSpaceOnUse"
       x1="1058"
       y1="525.87"
       x2="1072.6"
       y2="551.17" />
    <filter
       inkscape:collect="always"
       style="color-interpolation-filters:sRGB"
       id="filter6"
       x="-0.075"
       y="-0.075"
       width="1.15"
       height="1.15">
      <feGaussianBlur
         inkscape:collect="always"
         stdDeviation="0.86925"
         id="feGaussianBlur6" />
    </filter>
  </defs>
  <metadata
     id="metadata1440">
    <rdf:RDF>
      <cc:Work
         rdf:about="">
        <dc:format>image/svg+xml</dc:format>
        <dc:type
           rdf:resource="http://purl.org/dc/dcmitype/StillImage" />
        <dc:title />
      </cc:Work>
    </rdf:RDF>
  </metadata>
  <g
     id="g1702"
     transform="matrix(0.97573,0,0,0.96361,-65.737,-36.328)"
     fill="none"
     opacity="0.18754"
     stroke="#000000"
     stroke-linecap="round"
     stroke-linejoin="round"
     stroke-opacity="0.02">
    <rect
       id="rect1634"
       x="69.839996"
       y="40.709999"
       width="29.811001"
       height="29.811001"
       rx="6.6099"
       ry="6.6099"
       stroke-width="0.1" />
    <rect
       id="rect1638"
       x="69.839996"
       y="40.709999"
       width="29.811001"
       height="29.811001"
       rx="6.6099"
       ry="6.6099"
       stroke-width="0.2" />
    <rect
       id="rect1640"
       x="69.839996"
       y="40.709999"
       width="29.811001"
       height="29.811001"
       rx="6.6099"
       ry="6.6099"
       stroke-width="0.3" />
    <rect
       id="rect1642"
       x="69.839996"
       y="40.709999"
       width="29.811001"
       height="29.811001"
       rx="6.6099"
       ry="6.6099"
       stroke-width="0.4" />
    <rect
       id="rect1644"
       x="69.839996"
       y="40.709999"
       width="29.811001"
       height="29.811001"
       rx="6.6099"
       ry="6.6099"
       stroke-width="0.5" />
    <rect
       id="rect1646"
       x="69.839996"
       y="40.709999"
       width="29.811001"
       height="29.811001"
       rx="6.6099"
       ry="6.6099"
       stroke-width="0.6" />
    <rect
       id="rect1648"
       x="69.839996"
       y="40.709999"
       width="29.811001"
       height="29.811001"
       rx="6.6099"
       ry="6.6099"
       stroke-width="0.7" />
    <rect
       id="rect1650"
       x="69.839996"
       y="40.709999"
       width="29.811001"
       height="29.811001"
       rx="6.6099"
       ry="6.6099"
       stroke-width="0.8" />
    <rect
       id="rect1652"
       x="69.839996"
       y="40.709999"
       width="29.811001"
       height="29.811001"
       rx="6.6099"
       ry="6.6099" />
    <rect
       id="rect1654"
       x="69.839996"
       y="40.709999"
       width="29.811001"
       height="29.811001"
       rx="6.6099"
       ry="6.6099"
       stroke-width="1.2" />
    <rect
       id="rect1656"
       x="69.839996"
       y="40.709999"
       width="29.811001"
       height="29.811001"
       rx="6.6099"
       ry="6.6099"
       stroke-width="1.4" />
    <rect
       id="rect1658"
       x="69.839996"
       y="40.709999"
       width="29.811001"
       height="29.811001"
       rx="6.6099"
       ry="6.6099"
       stroke-width="1.6" />
    <rect
       id="rect1660"
       x="69.839996"
       y="40.709999"
       width="29.811001"
       height="29.811001"
       rx="6.6099"
       ry="6.6099"
       stroke-width="1.8" />
    <rect
       id="rect1662"
       x="69.839996"
       y="40.709999"
       width="29.811001"
       height="29.811001"
       rx="6.6099"
       ry="6.6099"
       stroke-width="2" />
    <rect
       id="rect1664"
       x="69.839996"
       y="40.709999"
       width="29.811001"
       height="29.811001"
       rx="6.6099"
       ry="6.6099"
       stroke-width="2.2" />
    <rect
       id="rect1666"
       x="69.839996"
       y="40.709999"
       width="29.811001"
       height="29.811001"
       rx="6.6099"
       ry="6.6099"
       stroke-width="2.6" />
    <rect
       id="rect1668"
       x="69.839996"
       y="40.709999"
       width="29.811001"
       height="29.811001"
       rx="6.6099"
       ry="6.6099"
       stroke-width="3" />
    <rect
       id="rect1670"
       x="69.839996"
       y="40.709999"
       width="29.811001"
       height="29.811001"
       rx="6.6099"
       ry="6.6099"
       stroke-width="3.4" />
    <rect
       id="rect1672"
       x="69.839996"
       y="40.709999"
       width="29.811001"
       height="29.811001"
       rx="6.6099"
       ry="6.6099"
       stroke-width="3.8" />
    <rect
       id="rect1674"
       x="69.839996"
       y="40.709999"
       width="29.811001"
       height="29.811001"
       rx="6.6099"
       ry="6.6099"
       stroke-width="4.2" />
    <rect
       id="rect1676"
       x="69.839996"
       y="40.709999"
       width="29.811001"
       height="29.811001"
       rx="6.6099"
       ry="6.6099"
       stroke-width="4.6" />
    <rect
       id="rect1678"
       x="69.839996"
       y="40.709999"
       width="29.811001"
       height="29.811001"
       rx="6.6099"
       ry="6.6099"
       stroke-width="5" />
  </g>
  <rect
     id="rect849"
     x="2.4073999"
     y="2.5392001"
     width="29.087"
     height="29.087"
     rx="6.4495001"
     ry="6.4495001"
     fill="url(#linearGradient1632)"
     stroke-linecap="round"
     stroke-linejoin="round"
     stroke-width="2.6877"
     style="fill:url(#linearGradient1632)" />
  <circle
     id="path1153"
     cx="17.299999"
     cy="17.606001"
     r="12.288"
     fill="url(#radialGradient1161)"
     style="fill:url(#radialGradient1161)" />
  <g
     id="g1151"
     transform="matrix(0.80024,0,0,0.80024,-28.479,13.801)">
    <circle
       id="path859"
       cx="56.771"
       cy="4.1009998"
       r="13.908"
       fill="#9d271d"
       fill-opacity="0.97184"
       style="filter:url(#filter6);fill:#000000;fill-opacity:0.97184002;opacity:0.35" />
    <ellipse
       id="path837"
       cx="56.771"
       cy="3.6638999"
       rx="13.899"
       ry="13.442"
       fill="url(#linearGradient845)"
       style="fill:url(#linearGradient845)" />
    <ellipse
       id="ellipse847"
       cx="56.771"
       cy="3.6638999"
       rx="13.899"
       ry="13.442"
       fill="url(#radialGradient855)"
       opacity="0.68704"
       style="fill:url(#radialGradient855)" />
    <circle
       id="path1025"
       cx="56.764"
       cy="3.9560001"
       r="7.3544002"
       fill="url(#radialGradient1035)"
       opacity="0.53632"
       style="fill:url(#radialGradient1035)" />
    <path
       id="circle1077"
       d="m 62.945,-0.030494 a 7.3544,7.3544 0 0 1 1.1742,3.9864 7.3544,7.3544 0 0 1 -7.3544,7.3544 7.3544,7.3544 0 0 1 -7.3545,-7.3544 7.3544,7.3544 0 0 1 1.0644,-3.8107 8.1776,8.1776 0 0 0 -1.868,5.2021 8.1776,8.1776 0 0 0 8.1776,8.1776 8.1776,8.1776 0 0 0 8.1777,-8.1776 8.1776,8.1776 0 0 0 -2.0171,-5.3778 z"
       fill="url(#radialGradient1085)"
       style="fill:url(#radialGradient1085)" />
    <circle
       id="path996"
       cx="56.764"
       cy="3.9203"
       r="7.7083001"
       fill-opacity="0.027571"
       stroke="url(#radialGradient1012)"
       stroke-linecap="round"
       stroke-linejoin="round"
       stroke-width="0.95265"
       style="stroke:url(#radialGradient1012)" />
    <g
       id="g962"
       transform="matrix(0.068047,0,0,0.068047,-16.059,-28.67)"
       opacity="0.32241"
       shape-rendering="auto">
      <g
         id="g913"
         transform="translate(1.1422,1.8048)"
         fill-opacity="0.10106"
         opacity="1">
        <path
           id="path909"
           d="m 1039.8,425.06 a 5.9114,5.9114 0 0 0 -5.9219,5.9102 v 106.11 a 5.9114,5.9114 0 0 0 8.8516,5.125 l 92.455,-53.053 a 5.9114,5.9114 0 0 0 0,-10.254 l -92.455,-53.053 a 5.9114,5.9114 0 0 0 -2.9297,-0.78515 z"
           color="#000000"
           color-rendering="auto"
           dominant-baseline="auto"
           image-rendering="auto"
           solid-color="#000000"
           stop-color="#000000"
           style="font-variant-ligatures:normal;font-variant-position:normal;font-variant-caps:normal;font-variant-numeric:normal;font-variant-alternates:normal;font-variant-east-asian:normal;font-feature-settings:normal;font-variation-settings:normal;text-indent:0;text-decoration-line:none;text-decoration-style:solid;text-decoration-color:#000000;text-transform:none;text-orientation:mixed;white-space:normal;shape-padding:0;shape-margin:0;inline-size:0;isolation:auto;mix-blend-mode:normal" />
        <path
           id="path911"
           d="m 1039.8,425.06 a 5.9114,5.9114 0 0 0 -5.9219,5.9102 v 106.11 a 5.9114,5.9114 0 0 0 8.8516,5.125 l 92.455,-53.053 a 5.9114,5.9114 0 0 0 0,-10.254 l -92.455,-53.053 a 5.9114,5.9114 0 0 0 -2.9297,-0.78515 z"
           color="#000000"
           color-rendering="auto"
           dominant-baseline="auto"
           image-rendering="auto"
           solid-color="#000000"
           stop-color="#000000"
           style="font-variant-ligatures:normal;font-variant-position:normal;font-variant-caps:normal;font-variant-numeric:normal;font-variant-alternates:normal;font-variant-east-asian:normal;font-feature-settings:normal;font-variation-settings:normal;text-indent:0;text-decoration-line:none;text-decoration-style:solid;text-decoration-color:#000000;text-transform:none;text-orientation:mixed;white-space:normal;shape-padding:0;shape-margin:0;inline-size:0;isolation:auto;mix-blend-mode:normal" />
      </g>
      <g
         id="g919"
         transform="translate(3.4508,1.6435)"
         fill-opacity="0.10106"
         opacity="1">
        <path
           id="path915"
           d="m 1039.8,425.06 a 5.9114,5.9114 0 0 0 -5.9219,5.9102 v 106.11 a 5.9114,5.9114 0 0 0 8.8516,5.125 l 92.455,-53.053 a 5.9114,5.9114 0 0 0 0,-10.254 l -92.455,-53.053 a 5.9114,5.9114 0 0 0 -2.9297,-0.78515 z"
           color="#000000"
           color-rendering="auto"
           dominant-baseline="auto"
           image-rendering="auto"
           solid-color="#000000"
           stop-color="#000000"
           style="font-variant-ligatures:normal;font-variant-position:normal;font-variant-caps:normal;font-variant-numeric:normal;font-variant-alternates:normal;font-variant-east-asian:normal;font-feature-settings:normal;font-variation-settings:normal;text-indent:0;text-decoration-line:none;text-decoration-style:solid;text-decoration-color:#000000;text-transform:none;text-orientation:mixed;white-space:normal;shape-padding:0;shape-margin:0;inline-size:0;isolation:auto;mix-blend-mode:normal" />
        <path
           id="path917"
           d="m 1039.8,425.06 a 5.9114,5.9114 0 0 0 -5.9219,5.9102 v 106.11 a 5.9114,5.9114 0 0 0 8.8516,5.125 l 92.455,-53.053 a 5.9114,5.9114 0 0 0 0,-10.254 l -92.455,-53.053 a 5.9114,5.9114 0 0 0 -2.9297,-0.78515 z"
           color="#000000"
           color-rendering="auto"
           dominant-baseline="auto"
           image-rendering="auto"
           solid-color="#000000"
           stop-color="#000000"
           style="font-variant-ligatures:normal;font-variant-position:normal;font-variant-caps:normal;font-variant-numeric:normal;font-variant-alternates:normal;font-variant-east-asian:normal;font-feature-settings:normal;font-variation-settings:normal;text-indent:0;text-decoration-line:none;text-decoration-style:solid;text-decoration-color:#000000;text-transform:none;text-orientation:mixed;white-space:normal;shape-padding:0;shape-margin:0;inline-size:0;isolation:auto;mix-blend-mode:normal" />
      </g>
      <g
         id="g925"
         transform="translate(5.8925,1.8389)"
         fill-opacity="0.064977"
         opacity="1">
        <path
           id="path921"
           d="m 1039.8,425.06 a 5.9114,5.9114 0 0 0 -5.9219,5.9102 v 106.11 a 5.9114,5.9114 0 0 0 8.8516,5.125 l 92.455,-53.053 a 5.9114,5.9114 0 0 0 0,-10.254 l -92.455,-53.053 a 5.9114,5.9114 0 0 0 -2.9297,-0.78515 z"
           color="#000000"
           color-rendering="auto"
           dominant-baseline="auto"
           image-rendering="auto"
           solid-color="#000000"
           stop-color="#000000"
           style="font-variant-ligatures:normal;font-variant-position:normal;font-variant-caps:normal;font-variant-numeric:normal;font-variant-alternates:normal;font-variant-east-asian:normal;font-feature-settings:normal;font-variation-settings:normal;text-indent:0;text-decoration-line:none;text-decoration-style:solid;text-decoration-color:#000000;text-transform:none;text-orientation:mixed;white-space:normal;shape-padding:0;shape-margin:0;inline-size:0;isolation:auto;mix-blend-mode:normal" />
        <path
           id="path923"
           d="m 1039.8,425.06 a 5.9114,5.9114 0 0 0 -5.9219,5.9102 v 106.11 a 5.9114,5.9114 0 0 0 8.8516,5.125 l 92.455,-53.053 a 5.9114,5.9114 0 0 0 0,-10.254 l -92.455,-53.053 a 5.9114,5.9114 0 0 0 -2.9297,-0.78515 z"
           color="#000000"
           color-rendering="auto"
           dominant-baseline="auto"
           image-rendering="auto"
           solid-color="#000000"
           stop-color="#000000"
           style="font-variant-ligatures:normal;font-variant-position:normal;font-variant-caps:normal;font-variant-numeric:normal;font-variant-alternates:normal;font-variant-east-asian:normal;font-feature-settings:normal;font-variation-settings:normal;text-indent:0;text-decoration-line:none;text-decoration-style:solid;text-decoration-color:#000000;text-transform:none;text-orientation:mixed;white-space:normal;shape-padding:0;shape-margin:0;inline-size:0;isolation:auto;mix-blend-mode:normal" />
      </g>
      <g
         id="g931"
         transform="translate(9.7516,3.0902)"
         fill-opacity="0.064977"
         opacity="1">
        <path
           id="path927"
           d="m 1039.8,425.06 a 5.9114,5.9114 0 0 0 -5.9219,5.9102 v 106.11 a 5.9114,5.9114 0 0 0 8.8516,5.125 l 92.455,-53.053 a 5.9114,5.9114 0 0 0 0,-10.254 l -92.455,-53.053 a 5.9114,5.9114 0 0 0 -2.9297,-0.78515 z"
           color="#000000"
           color-rendering="auto"
           dominant-baseline="auto"
           image-rendering="auto"
           solid-color="#000000"
           stop-color="#000000"
           style="font-variant-ligatures:normal;font-variant-position:normal;font-variant-caps:normal;font-variant-numeric:normal;font-variant-alternates:normal;font-variant-east-asian:normal;font-feature-settings:normal;font-variation-settings:normal;text-indent:0;text-decoration-line:none;text-decoration-style:solid;text-decoration-color:#000000;text-transform:none;text-orientation:mixed;white-space:normal;shape-padding:0;shape-margin:0;inline-size:0;isolation:auto;mix-blend-mode:normal" />
        <path
           id="path929"
           d="m 1039.8,425.06 a 5.9114,5.9114 0 0 0 -5.9219,5.9102 v 106.11 a 5.9114,5.9114 0 0 0 8.8516,5.125 l 92.455,-53.053 a 5.9114,5.9114 0 0 0 0,-10.254 l -92.455,-53.053 a 5.9114,5.9114 0 0 0 -2.9297,-0.78515 z"
           color="#000000"
           color-rendering="auto"
           dominant-baseline="auto"
           image-rendering="auto"
           solid-color="#000000"
           stop-color="#000000"
           style="font-variant-ligatures:normal;font-variant-position:normal;font-variant-caps:normal;font-variant-numeric:normal;font-variant-alternates:normal;font-variant-east-asian:normal;font-feature-settings:normal;font-variation-settings:normal;text-indent:0;text-decoration-line:none;text-decoration-style:solid;text-decoration-color:#000000;text-transform:none;text-orientation:mixed;white-space:normal;shape-padding:0;shape-margin:0;inline-size:0;isolation:auto;mix-blend-mode:normal" />
      </g>
      <g
         id="g937"
         transform="translate(14.245,4.3209)"
         fill-opacity="0.027571"
         opacity="1">
        <path
           id="path933"
           d="m 1039.8,425.06 a 5.9114,5.9114 0 0 0 -5.9219,5.9102 v 106.11 a 5.9114,5.9114 0 0 0 8.8516,5.125 l 92.455,-53.053 a 5.9114,5.9114 0 0 0 0,-10.254 l -92.455,-53.053 a 5.9114,5.9114 0 0 0 -2.9297,-0.78515 z"
           color="#000000"
           color-rendering="auto"
           dominant-baseline="auto"
           image-rendering="auto"
           solid-color="#000000"
           stop-color="#000000"
           style="font-variant-ligatures:normal;font-variant-position:normal;font-variant-caps:normal;font-variant-numeric:normal;font-variant-alternates:normal;font-variant-east-asian:normal;font-feature-settings:normal;font-variation-settings:normal;text-indent:0;text-decoration-line:none;text-decoration-style:solid;text-decoration-color:#000000;text-transform:none;text-orientation:mixed;white-space:normal;shape-padding:0;shape-margin:0;inline-size:0;isolation:auto;mix-blend-mode:normal" />
        <path
           id="path935"
           d="m 1039.8,425.06 a 5.9114,5.9114 0 0 0 -5.9219,5.9102 v 106.11 a 5.9114,5.9114 0 0 0 8.8516,5.125 l 92.455,-53.053 a 5.9114,5.9114 0 0 0 0,-10.254 l -92.455,-53.053 a 5.9114,5.9114 0 0 0 -2.9297,-0.78515 z"
           color="#000000"
           color-rendering="auto"
           dominant-baseline="auto"
           image-rendering="auto"
           solid-color="#000000"
           stop-color="#000000"
           style="font-variant-ligatures:normal;font-variant-position:normal;font-variant-caps:normal;font-variant-numeric:normal;font-variant-alternates:normal;font-variant-east-asian:normal;font-feature-settings:normal;font-variation-settings:normal;text-indent:0;text-decoration-line:none;text-decoration-style:solid;text-decoration-color:#000000;text-transform:none;text-orientation:mixed;white-space:normal;shape-padding:0;shape-margin:0;inline-size:0;isolation:auto;mix-blend-mode:normal" />
      </g>
    </g>
    <g
       id="g893"
       transform="matrix(0.068047,0,0,0.068047,-16.059,-28.67)"
       fill="url(#linearGradient907)"
       shape-rendering="auto"
       style="fill:url(#linearGradient3)">
      <path
         id="path889"
         d="m 1039.8,425.06 a 5.9114,5.9114 0 0 0 -5.9219,5.9102 v 106.11 a 5.9114,5.9114 0 0 0 8.8516,5.125 l 92.455,-53.053 a 5.9114,5.9114 0 0 0 0,-10.254 l -92.455,-53.053 a 5.9114,5.9114 0 0 0 -2.9297,-0.78515 z"
         color="#000000"
         color-rendering="auto"
         dominant-baseline="auto"
         image-rendering="auto"
         solid-color="#000000"
         stop-color="#000000"
         style="font-variant-ligatures:normal;font-variant-position:normal;font-variant-caps:normal;font-variant-numeric:normal;font-variant-alternates:normal;font-variant-east-asian:normal;font-feature-settings:normal;font-variation-settings:normal;text-indent:0;text-decoration-line:none;text-decoration-style:solid;text-decoration-color:#000000;text-transform:none;text-orientation:mixed;white-space:normal;shape-padding:0;shape-margin:0;inline-size:0;isolation:auto;mix-blend-mode:normal;fill:url(#linearGradient1)" />
      <path
         id="path891"
         d="m 1039.8,425.06 a 5.9114,5.9114 0 0 0 -5.9219,5.9102 v 106.11 a 5.9114,5.9114 0 0 0 8.8516,5.125 l 92.455,-53.053 a 5.9114,5.9114 0 0 0 0,-10.254 l -92.455,-53.053 a 5.9114,5.9114 0 0 0 -2.9297,-0.78515 z"
         color="#000000"
         color-rendering="auto"
         dominant-baseline="auto"
         image-rendering="auto"
         solid-color="#000000"
         stop-color="#000000"
         style="font-variant-ligatures:normal;font-variant-position:normal;font-variant-caps:normal;font-variant-numeric:normal;font-variant-alternates:normal;font-variant-east-asian:normal;font-feature-settings:normal;font-variation-settings:normal;text-indent:0;text-decoration-line:none;text-decoration-style:solid;text-decoration-color:#000000;text-transform:none;text-orientation:mixed;white-space:normal;shape-padding:0;shape-margin:0;inline-size:0;isolation:auto;mix-blend-mode:normal;fill:url(#linearGradient2)" />
    </g>
    <g
       id="path861"
       transform="matrix(0.068047,0,0,0.068047,-16.059,-28.67)"
       fill="url(#linearGradient877)"
       shape-rendering="auto"
       style="fill:url(#linearGradient6)">
      <path
         id="path879"
         d="m 1039.8,425.06 a 5.9114,5.9114 0 0 0 -5.9219,5.9102 v 106.11 a 5.9114,5.9114 0 0 0 8.8516,5.125 l 92.455,-53.053 a 5.9114,5.9114 0 0 0 0,-10.254 l -92.455,-53.053 a 5.9114,5.9114 0 0 0 -2.9297,-0.78515 z"
         color="#000000"
         color-rendering="auto"
         dominant-baseline="auto"
         image-rendering="auto"
         solid-color="#000000"
         stop-color="#000000"
         style="font-variant-ligatures:normal;font-variant-position:normal;font-variant-caps:normal;font-variant-numeric:normal;font-variant-alternates:normal;font-variant-east-asian:normal;font-feature-settings:normal;font-variation-settings:normal;text-indent:0;text-decoration-line:none;text-decoration-style:solid;text-decoration-color:#000000;text-transform:none;text-orientation:mixed;white-space:normal;shape-padding:0;shape-margin:0;inline-size:0;isolation:auto;mix-blend-mode:normal;fill:url(#linearGradient4)" />
      <path
         id="path866"
         d="m 1039.8,425.06 a 5.9114,5.9114 0 0 0 -5.9219,5.9102 v 106.11 a 5.9114,5.9114 0 0 0 8.8516,5.125 l 92.455,-53.053 a 5.9114,5.9114 0 0 0 0,-10.254 l -92.455,-53.053 a 5.9114,5.9114 0 0 0 -2.9297,-0.78515 z"
         color="#000000"
         color-rendering="auto"
         dominant-baseline="auto"
         image-rendering="auto"
         solid-color="#000000"
         stop-color="#000000"
         style="font-variant-ligatures:normal;font-variant-position:normal;font-variant-caps:normal;font-variant-numeric:normal;font-variant-alternates:normal;font-variant-east-asian:normal;font-feature-settings:normal;font-variation-settings:normal;text-indent:0;text-decoration-line:none;text-decoration-style:solid;text-decoration-color:#000000;text-transform:none;text-orientation:mixed;white-space:normal;shape-padding:0;shape-margin:0;inline-size:0;isolation:auto;mix-blend-mode:normal;fill:url(#linearGradient5)" />
    </g>
  </g>
</svg>
