<?xml version="1.0" encoding="UTF-8" standalone="no"?>
<svg
   width="512"
   height="512"
   viewBox="0 0 64 64"
   version="1.1"
   id="svg8"
   sodipodi:docname="zoom-videocam.svg"
   inkscape:version="1.4.4 (dcaf3e7d9e, 2026-05-05)"
   xmlns:inkscape="http://www.inkscape.org/namespaces/inkscape"
   xmlns:sodipodi="http://sodipodi.sourceforge.net/DTD/sodipodi-0.dtd"
   xmlns="http://www.w3.org/2000/svg"
   xmlns:svg="http://www.w3.org/2000/svg">
  <sodipodi:namedview
     id="namedview8"
     pagecolor="#ffffff"
     bordercolor="#999999"
     borderopacity="1"
     inkscape:showpageshadow="2"
     inkscape:pageopacity="0"
     inkscape:pagecheckerboard="0"
     inkscape:deskcolor="#d1d1d1"
     inkscape:zoom="2.3242188"
     inkscape:cx="255.78487"
     inkscape:cy="255.99999"
     inkscape:window-width="2560"
     inkscape:window-height="1371"
     inkscape:window-x="0"
     inkscape:window-y="0"
     inkscape:window-maximized="1"
     inkscape:current-layer="svg8" />
  <defs
     id="defs2">
    <linearGradient
       id="a"
       x1="7.937"
       x2="7.937"
       y1="15.081"
       y2="1.852"
       gradientTransform="scale(3.7796)"
       gradientUnits="userSpaceOnUse">
      <stop
         stop-color="#6083f1"
         offset="0"
         id="stop1"
         style="stop-color:#1a5fb4;stop-opacity:1" />
      <stop
         stop-color="#85b6ff"
         offset="1"
         id="stop2"
         style="stop-color:#62a0ea;stop-opacity:1" />
    </linearGradient>
    <filter
       id="b"
       x="-0.05892938"
       y="-0.10312253"
       width="1.1178588"
       height="1.2062451"
       color-interpolation-filters="sRGB">
      <feGaussianBlur
         stdDeviation="0.8593595"
         id="feGaussianBlur2" />
    </filter>
  </defs>
  <path
     transform="scale(3.7796)"
     d="M4.37.53C2.254.53.53 2.312.53 4.496v8.468c0 2.184 1.725 3.968 3.84 3.968h8.194c2.114 0 3.84-1.783 3.84-3.968V4.497c0-2.184-1.726-3.968-3.84-3.968zm.256.52h7.681c1.844 0 3.33 1.534 3.33 3.44v7.937c0 1.906-1.485 3.44-3.33 3.44h-7.68c-1.845 0-3.33-1.534-3.33-3.44V4.49c0-1.906 1.485-3.44 3.33-3.44z"
     opacity=".01"
     style="font-feature-settings:normal;font-variant-alternates:normal;font-variant-caps:normal;font-variant-east-asian:normal;font-variant-ligatures:normal;font-variant-numeric:normal;font-variant-position:normal;font-variation-settings:normal;inline-size:0;isolation:auto;mix-blend-mode:normal;shape-margin:0;shape-padding:0;text-decoration-color:#000;text-decoration-line:none;text-decoration-style:solid;text-indent:0;text-orientation:mixed;text-transform:none;white-space:normal"
     id="path2" />
  <path
     transform="scale(3.7796)"
     d="M4.359.794C2.392.794.795 2.447.795 4.48v8.5c0 2.035 1.597 3.688 3.564 3.688h8.216c1.967 0 3.564-1.653 3.564-3.688v-8.5c0-2.034-1.597-3.687-3.564-3.687zm.272.256h7.672c1.842 0 3.325 1.534 3.325 3.44v7.937c0 1.906-1.483 3.44-3.325 3.44H4.63c-1.842 0-3.325-1.534-3.325-3.44V4.49c0-1.906 1.483-3.44 3.325-3.44z"
     opacity=".01"
     style="font-feature-settings:normal;font-variant-alternates:normal;font-variant-caps:normal;font-variant-east-asian:normal;font-variant-ligatures:normal;font-variant-numeric:normal;font-variant-position:normal;font-variation-settings:normal;inline-size:0;isolation:auto;mix-blend-mode:normal;shape-margin:0;shape-padding:0;text-decoration-color:#000;text-decoration-line:none;text-decoration-style:solid;text-indent:0;text-orientation:mixed;text-transform:none;white-space:normal"
     id="path3" />
  <path
     transform="scale(3.7796)"
     d="M4.31 1.058c-1.866 0-3.375 1.539-3.375 3.44v8.467c0 1.9 1.57 3.439 3.435 3.439h8.2c1.866 0 3.427-1.538 3.427-3.44V4.498c0-1.9-1.51-3.439-3.375-3.439h-.097c1.794.087 3.214 1.582 3.214 3.432v7.937c0 1.906-1.506 3.44-3.377 3.44h-7.79c-1.871 0-3.377-1.534-3.377-3.44V4.49c0-1.85 1.42-3.345 3.214-3.432z"
     opacity=".03"
     style="font-feature-settings:normal;font-variant-alternates:normal;font-variant-caps:normal;font-variant-east-asian:normal;font-variant-ligatures:normal;font-variant-numeric:normal;font-variant-position:normal;font-variation-settings:normal;inline-size:0;isolation:auto;mix-blend-mode:normal;shape-margin:0;shape-padding:0;text-decoration-color:#000;text-decoration-line:none;text-decoration-style:solid;text-indent:0;text-orientation:mixed;text-transform:none;white-space:normal"
     id="path4" />
  <path
     d="M4 46.969V49c0 6.648 5.896 12 12.544 12h30.961C54.153 61 60 55.648 60 49v-1.992a12.972 12.972 0 0 1-13 12.963H17.002A12.973 12.973 0 0 1 4 46.969z"
     opacity=".03"
     style="font-feature-settings:normal;font-variant-alternates:normal;font-variant-caps:normal;font-variant-east-asian:normal;font-variant-ligatures:normal;font-variant-numeric:normal;font-variant-position:normal;font-variation-settings:normal;inline-size:0;isolation:auto;mix-blend-mode:normal;shape-margin:0;shape-padding:0;text-decoration-color:#000;text-decoration-line:none;text-decoration-style:solid;text-indent:0;text-orientation:mixed;text-transform:none;white-space:normal"
     id="path5" />
  <path
     transform="scale(3.7796)"
     d="M1.058 11.906v.592c0 1.939 1.573 3.5 3.332 3.5h8.16c1.76 0 3.325-1.561 3.325-3.5v-.58c-.006 2.095-1.537 3.78-3.44 3.78H4.498c-1.905 0-3.44-1.692-3.44-3.792z"
     opacity=".05"
     style="font-feature-settings:normal;font-variant-alternates:normal;font-variant-caps:normal;font-variant-east-asian:normal;font-variant-ligatures:normal;font-variant-numeric:normal;font-variant-position:normal;font-variation-settings:normal;inline-size:0;isolation:auto;mix-blend-mode:normal;shape-margin:0;shape-padding:0;text-decoration-color:#000;text-decoration-line:none;text-decoration-style:solid;text-indent:0;text-orientation:mixed;text-transform:none;white-space:normal"
     id="path6" />
  <rect
     x="4"
     y="3.969"
     width="56.002"
     height="56.002"
     rx="13.002"
     ry="13.002"
     fill="url(#a)"
     id="rect6" />
  <path
     d="M 17.166,24.25 A 2.15,2.15 0 0 0 15,26.393 v 12.143 c 0,3.164 2.576,5.714 5.777,5.714 H 38.834 A 2.15,2.15 0 0 0 41,42.108 V 29.965 C 41,26.799 38.424,24.25 35.223,24.25 H 20.778 Z m 31.564,0.004 c -0.425,-0.032 -0.908,0.176 -1.37,0.635 -1.62,1.614 -3.519,2.976 -4.847,4.906 -0.547,0.794 -0.51,1.846 -0.513,2.836 -0.003,0.543 0.002,1.083 0,1.619 0.002,0.536 -0.003,1.076 0,1.619 0.004,0.99 -0.034,2.041 0.513,2.836 1.328,1.93 3.228,3.292 4.848,4.906 0.46,0.46 0.944,0.666 1.369,0.635 0.708,-0.053 1.252,-0.771 1.252,-2.104 0,-2.608 0.038,-5.248 0,-7.892 0.038,-2.645 0,-5.284 0,-7.893 0,-1.332 -0.544,-2.051 -1.252,-2.103 z"
     filter="url(#b)"
     opacity="0.15"
     id="path7"
     style="display:inline;filter:url(#b);opacity:0.35" />
  <path
     d="M17.166 22A2.15 2.15 0 0 0 15 24.143v12.143C15 39.45 17.576 42 20.777 42h18.057A2.15 2.15 0 0 0 41 39.858V27.715C41 24.549 38.424 22 35.223 22H20.778zm31.564.004c-.425-.032-.908.176-1.37.635-1.62 1.614-3.519 2.976-4.847 4.906-.547.794-.51 1.846-.513 2.836-.003.543.002 1.083 0 1.619.002.536-.003 1.076 0 1.619.004.99-.034 2.041.513 2.836 1.328 1.93 3.228 3.292 4.848 4.906.46.46.944.666 1.369.635.708-.053 1.252-.771 1.252-2.104 0-2.608.038-5.248 0-7.892.038-2.645 0-5.284 0-7.893 0-1.332-.544-2.051-1.252-2.103z"
     fill="#fff"
     id="path8" />
</svg>
