<?xml version="1.0" encoding="UTF-8" standalone="no"?>
<svg
   width="512"
   height="512"
   viewBox="0 0 32 32"
   version="1.1"
   id="svg9"
   sodipodi:docname="dialog-warning.svg"
   inkscape:version="1.4.4 (dcaf3e7d9e, 2026-05-05)"
   xmlns:inkscape="http://www.inkscape.org/namespaces/inkscape"
   xmlns:sodipodi="http://sodipodi.sourceforge.net/DTD/sodipodi-0.dtd"
   xmlns="http://www.w3.org/2000/svg"
   xmlns:svg="http://www.w3.org/2000/svg">
  <sodipodi:namedview
     id="namedview9"
     pagecolor="#ffffff"
     bordercolor="#999999"
     borderopacity="1"
     inkscape:showpageshadow="2"
     inkscape:pageopacity="0"
     inkscape:pagecheckerboard="0"
     inkscape:deskcolor="#d1d1d1"
     inkscape:zoom="0.82173542"
     inkscape:cx="345.00156"
     inkscape:cy="449.04965"
     inkscape:window-width="2560"
     inkscape:window-height="1371"
     inkscape:window-x="0"
     inkscape:window-y="0"
     inkscape:window-maximized="1"
     inkscape:current-layer="svg9" />
  <defs
     id="defs5">
    <linearGradient
       id="d"
       x1="44.424"
       x2="44.424"
       y1="60.535"
       y2="-5.497"
       gradientTransform="translate(-6.723 1.226) scale(.50174)"
       gradientUnits="userSpaceOnUse">
      <stop
         stop-color="#634215"
         offset="0"
         id="stop1" />
      <stop
         stop-color="#93700d"
         offset="1"
         id="stop2" />
    </linearGradient>
    <linearGradient
       id="b"
       x1="16"
       x2="16"
       y1="2"
       y2="30"
       gradientUnits="userSpaceOnUse">
      <stop
         stop-color="#ffbf1d"
         offset="0"
         id="stop3"
         style="stop-color:#f8e45c;stop-opacity:1" />
      <stop
         stop-color="#eef052"
         offset="1"
         id="stop4"
         style="stop-color:#e5a50a;stop-opacity:1" />
    </linearGradient>
    <filter
       id="a"
       x="-0.034799598"
       y="-0.037285714"
       width="1.0695992"
       height="1.0745714"
       color-interpolation-filters="sRGB">
      <feGaussianBlur
         stdDeviation=".435"
         id="feGaussianBlur4" />
    </filter>
    <filter
       id="c"
       x="-0.11463373"
       y="-0.021289782"
       width="1.2292675"
       height="1.0425796"
       color-interpolation-filters="sRGB">
      <feGaussianBlur
         stdDeviation=".162"
         id="feGaussianBlur5" />
    </filter>
  </defs>
  <path
     d="m30.786 27.037-13.021-24C17.392 2.37 16.714 2 15.96 2c-.755 0-1.435.445-1.815 1.11l-12.924 24c-.304.594-.308 1.408.067 2.001.374.592.976.889 1.731.889h25.945c.753 0 1.434-.37 1.738-.964.38-.592.383-1.332.084-1.999z"
     filter="url(#a)"
     opacity=".25"
     id="path5" />
  <path
     d="M0 0h32v32H0z"
     fill="none"
     id="path6" />
  <path
     d="m30.786 27.037-13.021-24C17.392 2.37 16.714 2 15.96 2c-.755 0-1.435.445-1.815 1.11l-12.924 24c-.304.594-.308 1.408.067 2.001.374.592.976.889 1.731.889h25.945c.753 0 1.434-.37 1.738-.964.38-.592.383-1.332.084-1.999z"
     fill="url(#b)"
     id="path7" />
  <path
     transform="translate(.004)"
     d="M14.416 9.516c.375 3.666.805 7.307 1.125 10.987h1.02c.265-3.534.692-7.047 1-10.578.158-.835-.272-1.828-1.154-2.03-.873-.256-1.847.376-1.963 1.278-.02.113-.028.228-.028.343zm-.111 14.905c-.04 1.092 1.161 1.947 2.186 1.601.993-.253 1.516-1.501 1.007-2.389-.455-.917-1.791-1.219-2.56-.517-.388.32-.646.796-.633 1.305z"
     filter="url(#c)"
     font-family="Georgia"
     font-size="62.458"
     font-weight="400"
     opacity=".25"
     overflow="visible"
     id="path8" />
  <path
     transform="translate(.004)"
     d="M14.416 9.516c.375 3.666.805 7.307 1.125 10.987h1.02c.265-3.534.692-7.047 1-10.578.158-.835-.272-1.828-1.154-2.03-.873-.256-1.847.376-1.963 1.278-.02.113-.028.228-.028.343zm-.111 14.905c-.04 1.092 1.161 1.947 2.186 1.601.993-.253 1.516-1.501 1.007-2.389-.455-.917-1.791-1.219-2.56-.517-.388.32-.646.796-.633 1.305z"
     fill="url(#d)"
     font-family="Georgia"
     font-size="62.458"
     font-weight="400"
     overflow="visible"
     id="path9" />
</svg>
