<?xml version="1.0" encoding="UTF-8"?>
<svg id="svg2" width="16" height="16" version="1.1" xmlns="http://www.w3.org/2000/svg">
 <path id="path1" d="m7.9985 2e-3c-2.3634 0-4.2661 1.9027-4.2661 4.2661v0.94388l1.0665 1.0665v-2.0104c0-1.7726 1.427-3.1996 3.1996-3.1996s3.1996 1.427 3.1996 3.1996v2.1331h-6.2765l1.0665 1.0665h6.2765c0.59086 0 1.0665 0.47567 1.0665 1.0665v5.3327a1.0495 1.0495 0 0 1-0.26237 0.68152l0.76257 0.7615c0.34982-0.37969 0.56633-0.88416 0.56633-1.443v-5.3327c0-1.1817-0.95135-2.1331-2.1331-2.1331v-2.1331c0-2.3634-1.9027-4.2661-4.2661-4.2661zm-4.8634 6.4952a2.1203 2.1203 0 0 0-1.5358 2.0371v5.3327c0 1.1817 0.95135 2.1331 2.1331 2.1331h8.5323c0.11625 0 0.22824-0.016 0.33916-0.03306l-1.0324-1.0335h-7.839c-0.59086 0-1.0665-0.47567-1.0665-1.0665v-5.3327c0-0.59086 0.47567-1.0665 1.0665-1.0665h0.37329z" fill="#363636" stroke-width="1.0665"/>
 <rect id="rect2" transform="rotate(-45)" x="-2.2348" y="4.996" width="1.0665" height="15.689" ry=".49991" fill="#c6262e" stroke-linecap="round" stroke-linejoin="bevel" stroke-width="3.8192"/>
</svg>
