<?xml version="1.0" encoding="UTF-8" standalone="no"?>
<svg
   width="16"
   height="16"
   version="1.1"
   id="svg1"
   sodipodi:docname="ephy-download-symbolic.svg"
   inkscape:version="1.4.2 (ebf0e940d0, 2025-05-08)"
   xmlns:inkscape="http://www.inkscape.org/namespaces/inkscape"
   xmlns:sodipodi="http://sodipodi.sourceforge.net/DTD/sodipodi-0.dtd"
   xmlns="http://www.w3.org/2000/svg"
   xmlns:svg="http://www.w3.org/2000/svg">
  <defs
     id="defs1" />
  <sodipodi:namedview
     id="namedview1"
     pagecolor="#ffffff"
     bordercolor="#111111"
     borderopacity="1"
     inkscape:showpageshadow="0"
     inkscape:pageopacity="0"
     inkscape:pagecheckerboard="1"
     inkscape:deskcolor="#d1d1d1"
     inkscape:zoom="72.375"
     inkscape:cx="8"
     inkscape:cy="8"
     inkscape:window-width="2560"
     inkscape:window-height="1371"
     inkscape:window-x="0"
     inkscape:window-y="0"
     inkscape:window-maximized="1"
     inkscape:current-layer="svg1" />
  <path
     class="ColorScheme-Text"
     d="M 8,0 A 8,8 0 0 0 0,8 8,8 0 0 0 8,16 8,8 0 0 0 16,8 8,8 0 0 0 8,0 Z M 8,1.0666667 A 6.9333333,6.9333333 0 0 1 14.933333,8 6.9333333,6.9333333 0 0 1 8,14.933333 6.9333333,6.9333333 0 0 1 1.0666667,8 6.9333333,6.9333333 0 0 1 8,1.0666667 Z m 0,3.2 C 7.7045333,4.2666667 7.4666667,4.5045333 7.4666667,4.8 V 9.9125333 L 6.11456,8.5604267 c -0.208928,-0.208928 -0.5452373,-0.208928 -0.7541653,0 -0.208928,0.208928 -0.208928,0.5452373 0,0.7541653 l 2.2625066,2.262507 c 0.050146,0.05014 0.1101227,0.08968 0.177088,0.116672 0.1283627,0.05223 0.2716374,0.05223 0.4,0 0.066963,-0.02699 0.1269334,-0.06652 0.177088,-0.116672 L 10.639584,9.314592 c 0.208928,-0.208928 0.208928,-0.5452373 0,-0.7541653 -0.208928,-0.208928 -0.545237,-0.208928 -0.7541653,0 L 8.533312,9.9125333 V 4.8 c 0,-0.2954667 -0.2378667,-0.5333333 -0.5333333,-0.5333333 z"
     color="#363636"
     fill="currentColor"
     id="path1"
     style="stroke-width:1.06667" />
</svg>
