<?xml version="1.0" encoding="UTF-8" standalone="no"?>
<svg
   width="16"
   height="16"
   version="1.1"
   id="svg1"
   sodipodi:docname="rotation-locked-symbolic.svg"
   inkscape:version="1.4.2 (ebf0e940d0, 2025-05-08)"
   xmlns:inkscape="http://www.inkscape.org/namespaces/inkscape"
   xmlns:sodipodi="http://sodipodi.sourceforge.net/DTD/sodipodi-0.dtd"
   xmlns="http://www.w3.org/2000/svg"
   xmlns:svg="http://www.w3.org/2000/svg">
  <defs
     id="defs1" />
  <sodipodi:namedview
     id="namedview1"
     pagecolor="#ffffff"
     bordercolor="#111111"
     borderopacity="1"
     inkscape:showpageshadow="0"
     inkscape:pageopacity="0"
     inkscape:pagecheckerboard="1"
     inkscape:deskcolor="#d1d1d1"
     inkscape:zoom="72.375"
     inkscape:cx="8"
     inkscape:cy="8"
     inkscape:window-width="2560"
     inkscape:window-height="1371"
     inkscape:window-x="0"
     inkscape:window-y="0"
     inkscape:window-maximized="1"
     inkscape:current-layer="svg1" />
  <g
     transform="matrix(1.1427867,0,0,1.1427867,-930.22792,217.12984)"
     id="g1">
    <path
       d="M 821.488,-189.982 A 7.006,7.006 0 0 0 814,-183 a 7.006,7.006 0 0 0 5.192,6.762 c 3.059,0.819 6.293,-0.52 7.877,-3.262 a 0.50085527,0.50085527 0 1 0 -0.868,-0.5 5.999,5.999 0 0 1 -6.752,2.795 A 5.996,5.996 0 0 1 815,-183 a 5.996,5.996 0 0 1 10.71,-3.709 L 824,-185 h 4 v -4 l -1.58,1.58 a 7.012,7.012 0 0 0 -4.932,-2.562 z M 821,-187 c -1.108,0 -2,0.91 -2,2.031 V -184 h -0.5 c 0,0 -0.5,0 -0.5,0.5 v 3 c 0,0 0,0.5 0.5,0.5 h 5 c 0,0 0.5,0 0.5,-0.5 v -3 c 0,-0.5 -0.5,-0.5 -0.5,-0.5 H 823 v -0.969 c 0,-1.12 -0.892,-2.031 -2,-2.031 z m 0,1 c 0.554,0 1,0.442 1,1 v 1 h -2 v -1 c 0,-0.558 0.446,-1 1,-1 z"
       fill="#363636"
       font-family="sans-serif"
       font-weight="400"
       overflow="visible"
       style="font-variant-ligatures:normal;font-variant-position:normal;font-variant-caps:normal;font-variant-numeric:normal;font-variant-alternates:normal;font-feature-settings:normal;text-indent:0;text-decoration-line:none;text-decoration-style:solid;text-decoration-color:#000000;text-transform:none;text-orientation:mixed;shape-padding:0;isolation:auto;mix-blend-mode:normal"
       white-space="normal"
       id="path1" />
  </g>
</svg>
