<?xml version="1.0" encoding="UTF-8"?>
<svg id="svg6" width="24" height="24" version="1.1" xmlns="http://www.w3.org/2000/svg" xmlns:cc="http://creativecommons.org/ns#" xmlns:dc="http://purl.org/dc/elements/1.1/" xmlns:rdf="http://www.w3.org/1999/02/22-rdf-syntax-ns#">
 <metadata id="metadata12">
  <rdf:RDF>
   <cc:Work rdf:about="">
    <dc:format>image/svg+xml</dc:format>
    <dc:type rdf:resource="http://purl.org/dc/dcmitype/StillImage"/>
    <dc:title/>
   </cc:Work>
  </rdf:RDF>
 </metadata>
 <path id="path2" d="m6.3516 4.7363-0.93945 0.94141 8.125 8.125h-0.89844l1.4551 1.2598-2.0938 1.875v-3.3711l-1.5059-1.5059-2.1816 1.9082c-0.31044 0.27625-0.33842 0.75176-0.0625 1.0625 0.273 0.313 0.71825 0.36675 1.0312 0.09375l1.7207-1.5v4.875c0 0.277 0.222 0.5 0.5 0.5 0.282 0 0.4363-0.0195 0.6543-0.1875l3.5312-3.1562c0.10694-0.10178 0.18279-0.23182 0.21875-0.375 0.02829-0.09089 0.0389-0.18636 0.03125-0.28125-0.0046-0.05308-0.01511-0.10548-0.03125-0.15625-0.03596-0.14318-0.11182-0.27322-0.21875-0.375l-1.5-1.3164 0.29102-0.29102-1.209-1.209 2.418-2.1211c0.10694-0.10178 0.18279-0.23182 0.21875-0.375 0.04605-0.1422 0.04605-0.2953 0-0.4375-0.03596-0.14318-0.11182-0.27322-0.21875-0.375l-3.5312-3.1562c-0.199-0.16-0.42725-0.1875-0.65625-0.1875-0.277 0-0.5 0.223-0.5 0.5v3.8828zm5.6484 2.3262 2.0938 1.875-1.8965 1.6426-0.19727-0.19727z" color="#bebebe" fill="#fff"/>
</svg>
