<?xml version="1.0" encoding="UTF-8"?>
<svg id="svg6" width="24" height="24" version="1.1" xmlns="http://www.w3.org/2000/svg" xmlns:cc="http://creativecommons.org/ns#" xmlns:dc="http://purl.org/dc/elements/1.1/" xmlns:rdf="http://www.w3.org/1999/02/22-rdf-syntax-ns#">
 <metadata id="metadata12">
  <rdf:RDF>
   <cc:Work rdf:about="">
    <dc:format>image/svg+xml</dc:format>
    <dc:type rdf:resource="http://purl.org/dc/dcmitype/StillImage"/>
   </cc:Work>
  </rdf:RDF>
 </metadata>
 <path id="path2" d="m6.3516 4.7363-0.93945 0.94141 13.543 13.543 0.93945-0.94141-6.627-6.627 2.4199-2.1211c0.10694-0.10178 0.18279-0.23182 0.21875-0.375 0.04605-0.1422 0.04605-0.2953 0-0.4375-0.03596-0.14318-0.11182-0.27322-0.21875-0.375l-3.5312-3.1562c-0.199-0.16-0.42725-0.1875-0.65625-0.1875-0.277 0-0.5 0.223-0.5 0.5v3.8848zm5.6484 2.3262 2.0938 1.875-1.8984 1.6426-0.19531-0.19531zm-1.5156 5.0059-2.1719 1.9004c-0.31044 0.27625-0.33842 0.75176-0.0625 1.0625 0.273 0.313 0.71825 0.36675 1.0312 0.09375l1.7207-1.5v4.875c0 0.277 0.222 0.5 0.5 0.5 0.282 0 0.4363-0.0195 0.6543-0.1875l2.6777-2.3945-1.0645-1.0645-1.7695 1.584v-3.3535z" color="#bebebe" fill="#fff" opacity=".5"/>
</svg>
