<?xml version="1.0" encoding="UTF-8"?>
<svg id="svg6" width="24" height="24" version="1.1" xmlns="http://www.w3.org/2000/svg" xmlns:cc="http://creativecommons.org/ns#" xmlns:dc="http://purl.org/dc/elements/1.1/" xmlns:rdf="http://www.w3.org/1999/02/22-rdf-syntax-ns#">
 <metadata id="metadata12">
  <rdf:RDF>
   <cc:Work rdf:about="">
    <dc:format>image/svg+xml</dc:format>
    <dc:type rdf:resource="http://purl.org/dc/dcmitype/StillImage"/>
    <dc:title/>
   </cc:Work>
  </rdf:RDF>
 </metadata>
 <path id="path2" d="m6.3535 4.7363-0.94141 0.94141 12.729 12.729 0.94141-0.94141s-2.181-2.181-3.2715-3.2715c0.1235-0.38583 0.18739-0.78825 0.18945-1.1934v-2h1v-1h-2v3c0 0.11796-0.02889 0.22611-0.04297 0.33984l-0.95703-0.95703v-5.3828c0-1.108-0.892-2-2-2s-2 0.892-2 2v1.3828zm0.64648 5.2637v1h1v2c-0.00141 1.822 1.2342 3.4124 3 3.8613v2.1387h-1v1h4v-1h-1v-2.1387c0.54928-0.1413 1.062-0.39834 1.5039-0.75391l-0.71094-0.71094c-0.50056 0.37446-1.117 0.60352-1.793 0.60352-1.662 0-3-1.338-3-3v-2.3965l-0.60352-0.60352zm3 1.6035v1.3965c0 1.108 0.892 2 2 2 0.3989 0 0.76676-0.11868 1.0781-0.31836z" color="#bebebe" fill="#fff" style="isolation:auto;mix-blend-mode:normal"/>
</svg>
