<?xml version="1.0" encoding="UTF-8"?>
<svg id="svg6" width="24" height="24" version="1.1" xmlns="http://www.w3.org/2000/svg" xmlns:cc="http://creativecommons.org/ns#" xmlns:dc="http://purl.org/dc/elements/1.1/" xmlns:rdf="http://www.w3.org/1999/02/22-rdf-syntax-ns#">
 <metadata id="metadata12">
  <rdf:RDF>
   <cc:Work rdf:about="">
    <dc:format>image/svg+xml</dc:format>
    <dc:type rdf:resource="http://purl.org/dc/dcmitype/StillImage"/>
    <dc:title/>
   </cc:Work>
  </rdf:RDF>
 </metadata>
 <path id="path2-3" d="m6.3516 4.7363-0.93945 0.94141 13.543 13.543 0.93945-0.94141-4.084-4.084a3.981 3.981 0 0 0 0.18945-1.1953v-2h1v-1h-2v3c0 0.11828-0.02885 0.22775-0.042969 0.3418l-0.95703-0.95703v-5.3848c0-1.108-0.892-2-2-2s-2 0.892-2 2v1.3848l-3.6484-3.6484zm0.64844 5.2637v1h1v2a3.981 3.981 0 0 0 3 3.8613v2.1387h-1v1h4v-1h-1v-2.1387a3.981 3.981 0 0 0 1.5176-0.76367l-0.71289-0.71289c-0.5028 0.38048-1.1227 0.61523-1.8047 0.61523-1.662 0-3-1.338-3-3v-2.4199l-0.58008-0.58008h-1.4199zm3 1.5801v1.4199c0 1.108 0.892 2 2 2 0.40516 0 0.77941-0.12068 1.0938-0.32617l-3.0938-3.0938z" color="#bebebe" fill="#fff" opacity=".5" style="font-variant-east_asian:normal;isolation:auto;mix-blend-mode:normal"/>
</svg>
