<?xml version="1.0" encoding="UTF-8"?>
<svg id="svg8" width="24" height="24" version="1.1" xmlns="http://www.w3.org/2000/svg" xmlns:cc="http://creativecommons.org/ns#" xmlns:dc="http://purl.org/dc/elements/1.1/" xmlns:rdf="http://www.w3.org/1999/02/22-rdf-syntax-ns#">
 <metadata id="metadata14">
  <rdf:RDF>
   <cc:Work rdf:about="">
    <dc:format>image/svg+xml</dc:format>
    <dc:type rdf:resource="http://purl.org/dc/dcmitype/StillImage"/>
    <dc:title/>
   </cc:Work>
  </rdf:RDF>
 </metadata>
 <path id="path4" d="m9 11a1 1 0 1 0 0 2 1 1 0 0 0 0-2zm3 0a1 1 0 1 0 0 2 1 1 0 0 0 0-2zm3 0a1 1 0 1 0 0 2 1 1 0 0 0 0-2z" fill="#fff"/>
 <path id="path1088" d="m6.002 7a1 1 0 0 0-0.85352 0.47461l-2.8945 3.8613a1 1 0 0 0-0.25391 0.66211 1 1 0 0 0 0.20508 0.60742 1 1 0 0 0 0.029297 0.037109l2.9375 3.918a1 1 0 0 0 0.82617 0.43945 1 1 0 0 0 1.002-0.99805 1 1 0 0 0-0.19727-0.5957l0.0019531-0.001953-2.5508-3.4023 2.5508-3.4023-0.0039063-0.0019532a1 1 0 0 0 0.19922-0.5957 1 1 0 0 0-0.99805-1.002zm11.996 0a1 1 0 0 0-0.99805 1.002 1 1 0 0 0 0.19922 0.5957l-0.003907 0.0019532 2.5508 3.4023-2.5508 3.4023 0.001954 0.001953a1 1 0 0 0-0.19727 0.5957 1 1 0 0 0 1.002 0.99805 1 1 0 0 0 0.82617-0.43945l2.9375-3.918a1 1 0 0 0 0.029297-0.037109 1 1 0 0 0 0.20508-0.60742 1 1 0 0 0-0.25391-0.66211l-2.8945-3.8613a1 1 0 0 0-0.85352-0.47461z" fill="#fff" opacity=".35" style="font-variant-east_asian:normal;paint-order:normal"/>
</svg>
