<?xml version="1.0" encoding="UTF-8"?>
<svg id="svg6" width="24" height="24" version="1.1" xmlns="http://www.w3.org/2000/svg" xmlns:cc="http://creativecommons.org/ns#" xmlns:dc="http://purl.org/dc/elements/1.1/" xmlns:rdf="http://www.w3.org/1999/02/22-rdf-syntax-ns#">
 <metadata id="metadata12">
  <rdf:RDF>
   <cc:Work rdf:about="">
    <dc:format>image/svg+xml</dc:format>
    <dc:type rdf:resource="http://purl.org/dc/dcmitype/StillImage"/>
    <dc:title/>
   </cc:Work>
  </rdf:RDF>
 </metadata>
 <path id="path2" d="m20.5 8c-0.277 0-0.5 0.223-0.5 0.5v11c0 0.277 0.223 0.5 0.5 0.5h1c0.277 0 0.5-0.223 0.5-0.5v-11c0-0.277-0.223-0.5-0.5-0.5zm-19.031 4-0.46875 1 3 3v4h1v-4l3-3-0.375-1zm0.90625 1h1.625v1.625zm2.625 0h1.625l-1.625 1.625zm7.5 1c-0.277 0-0.5 0.223-0.5 0.5v5c0 0.277 0.223 0.5 0.5 0.5h0.77148c-0.17677-0.3037-0.27041-0.6486-0.27148-1-6.5e-5 -0.60033 0.26954-1.1689 0.73438-1.5488-0.41543-0.35882-0.68387-0.8784-0.67773-1.4902 0.0027-0.7914 0.33756-1.4199 0.68359-1.8535v-2e-3c0.0063-0.0079 0.01453-0.01415 0.02149-0.02149-0.077143-0.048547-0.16344-0.083932-0.26172-0.083932zm5.5 1.5703c-0.27844 0.28883-0.59814 0.55641-0.9668 0.83594-0.17391 0.13181-0.3137 0.2879-0.20312 0.14648-0.01614 0.02001-0.02789 0.03449-0.04883 0.05859-0.0097 0.01119-0.02343 0.02695-0.04883 0.05273-0.12019 0.29416-0.3041 0.53891-0.51758 0.75 0.49409 0.37781 0.78428 0.96397 0.78516 1.5859-4.81e-4 0.35122-0.09344 0.69612-0.26953 1h0.76953c0.277 0 0.5-0.223 0.5-0.5zm-9.5 1.4297c-0.277 0-0.5 0.223-0.5 0.5v2c0 0.277 0.223 0.5 0.5 0.5h1c0.277 0 0.5-0.223 0.5-0.5v-2c0-0.277-0.223-0.5-0.5-0.5z" color="#000000" fill="#fff" opacity=".4" style="isolation:auto;mix-blend-mode:normal"/>
 <path id="path4" d="m14.848 9.969c1.643-0.092 3.096 1.17 3.188 2.812 0 1.402-0.378 1.922-1.594 2.844-0.19 0.144-0.325 0.25-0.375 0.313-0.05 0.062-0.031 0.033-0.031 0.03 7e-3 0.529-0.472 1-1 1s-1.007-0.471-1-1c0-0.502 0.224-0.943 0.469-1.25a3.82 3.82 0 0 1 0.718-0.687c0.205-0.16 0.461-0.384 0.688-0.656 0.093-0.112 0.129-0.308 0.125-0.438v-0.03a0.988 0.988 0 0 0-1.063-0.938c-0.563 0.031-0.969 0.437-0.937 1h-2c-0.092-1.643 1.17-2.908 2.812-3zm0.188 8a1 1 0 1 1 0 2 1 1 0 0 1 0-2z" color="#bebebe" fill="#fff" overflow="visible"/>
</svg>
