<?xml version="1.0" encoding="UTF-8"?>
<svg id="svg4031" width="24" height="24" version="1.1" xmlns="http://www.w3.org/2000/svg" xmlns:cc="http://creativecommons.org/ns#" xmlns:dc="http://purl.org/dc/elements/1.1/" xmlns:rdf="http://www.w3.org/1999/02/22-rdf-syntax-ns#">
 <metadata id="metadata4036">
  <rdf:RDF>
   <cc:Work rdf:about="">
    <dc:format>image/svg+xml</dc:format>
    <dc:type rdf:resource="http://purl.org/dc/dcmitype/StillImage"/>
    <dc:title/>
   </cc:Work>
  </rdf:RDF>
 </metadata>
 <path id="path28" d="m11.25 3c-0.13807 0-0.25 0.11193-0.25 0.25v1.5c0 0.139 0.112 0.25 0.25 0.25h0.5c0.13807 0 0.25-0.11193 0.25-0.25v-1.5c0-0.13807-0.11193-0.25-0.25-0.25h-0.5zm-5.8965 2.2363-0.94141 0.94141 6.75 6.75h-0.62305c0.64811 1.0829 1.8199 1.8162 3.1738 1.8164 0.66424-0.0019 1.3158-0.18196 1.8867-0.52148-1.3566 3.2692-5.7994 3.7253-7.793 0.80078-0.9802-1.4379-0.97953-3.1253-0.30859-4.4805l-0.76953-0.76953c-0.46111 0.8044-0.72852 1.734-0.72852 2.7266 0 3.0347 2.4653 5.5 5.5 5.5 3.0347 0 5.5-2.4653 5.5-5.5 0-3.0347-2.4653-5.5-5.5-5.5-1.2327 0-2.3662 0.41256-3.2832 1.0996l-2.8633-2.8633zm12.508 0.29492c-0.0085 2.193e-4 -0.01696 8.743e-4 -0.02539 0.0019531-0.05623 0.00658-0.10857 0.032063-0.14844 0.072266l-1.0605 0.75817c-0.09829 0.40067-0.09758 0.55831 0 0.6559l0.35352 0.35352c0.09763 0.097605 0.25589 0.097605 0.35352 0l1.0605-1.0605c0.09761-0.097627 0.09761-0.25589 0-0.35352l-0.35352-0.35352c-0.04743-0.047969-0.11223-0.074735-0.17969-0.074219zm-6.4609 2.5312h0.001953c0.02799-2.639e-4 0.055994-2.639e-4 0.083984 0h0.00586c-0.66226 0.49474-1.1208 1.1947-1.3398 1.9727l-1.1875-1.1875c0.6781-0.47109 1.5021-0.76725 2.4355-0.78516zm-9.1504 3.9375c-0.13807 0-0.25 0.11193-0.25 0.25v0.5c0 0.139 0.112 0.25 0.25 0.25h1.5c0.13807 0 0.25-0.11193 0.25-0.25v-0.5c0-0.13807-0.11193-0.25-0.25-0.25h-1.5zm17 0c-0.13807 0-0.25 0.11193-0.25 0.25v0.5c0 0.139 0.112 0.25 0.25 0.25h1.5c0.13807 0 0.25-0.11193 0.25-0.25v-0.5c0-0.13807-0.11193-0.25-0.25-0.25h-1.5zm-13.41 5.5527c-0.065423 1e-3 -0.12783 0.027679-0.47621 0.074219l-0.75817 1.0605c-0.098288 0.09829-0.097581 0.25594 0 0.35352l0.35352 0.35352c0.097627 0.09761 0.25589 0.09761 0.35352 0l1.0605-1.0605c0.097605-0.09763 0.097605-0.25589 0-0.35352l-0.35352-0.35352c-0.047429-0.04797-0.11223-0.074739-0.17969-0.074219zm11.313 0c-0.06474 0.0015-0.12636 0.028149-0.17188 0.074219l-0.35352 0.35352c-0.09829 0.09829-0.09758 0.25593 0 0.35352l1.0605 1.0605c0.09763 0.09761 0.25589 0.09761 0.35352 0l0.35352-0.35352c0.09761-0.09763 0.09761-0.25589 0-0.35352l-1.0605-1.0605c-0.0479-0.04846-0.11351-0.075269-0.18164-0.074219zm-5.9023 2.4473c-0.13807 0-0.25 0.11193-0.25 0.25v1.5c0 0.139 0.112 0.25 0.25 0.25h0.5c0.13807 0 0.25-0.11193 0.25-0.25v-1.5c0-0.13807-0.11193-0.25-0.25-0.25h-0.5z" color="#000000" fill="#fff"/>
</svg>
