<?xml version="1.0" encoding="UTF-8"?>
<svg id="svg6" width="24" height="24" version="1.1" xmlns="http://www.w3.org/2000/svg" xmlns:cc="http://creativecommons.org/ns#" xmlns:dc="http://purl.org/dc/elements/1.1/" xmlns:rdf="http://www.w3.org/1999/02/22-rdf-syntax-ns#">
 <metadata id="metadata12">
  <rdf:RDF>
   <cc:Work rdf:about="">
    <dc:format>image/svg+xml</dc:format>
    <dc:type rdf:resource="http://purl.org/dc/dcmitype/StillImage"/>
    <dc:title/>
   </cc:Work>
  </rdf:RDF>
 </metadata>
 <path id="path2" d="m6.3535 4.7363-0.94141 0.94141 1.3496 1.3496 0.94141-0.94141-1.3496-1.3496zm5.6465 0.26367a1 1 0 0 0-1 1v0.0097656c-1.764 0.456-2.998 2.1682-3 3.9902 0 0-1.562e-4 5.0001-1.6602 5.6211-0.016 0.011-0.022063 0.030968-0.039063 0.042968a0.726 0.726 0 0 0-0.16211 0.17578c-0.018 0.027-0.038734 0.048172-0.052734 0.076172a0.738 0.738 0 0 0-0.085938 0.33398c0 0.11364 0.335 0.75 0.75 0.75h10.5c0.11364 0 0.75-0.63636 0.75-0.75a0.738 0.738 0 0 0-0.085938-0.33398c-0.014-0.028-0.035734-0.050172-0.052734-0.076172a0.725 0.725 0 0 0-0.16211-0.17578c-0.016-0.012-0.022063-0.031968-0.039063-0.042968-1.66-0.62-1.6602-5.6211-1.6602-5.6211-2e-3 -1.823-1.235-3.5352-3-3.9902v-0.0097656a1 1 0 0 0-1-1zm-1.9336 13a2 2 0 0 0 1.9336 1.5 2 2 0 0 0 1.9355-1.5h-3.8691z" color="#bebebe" fill="#fff" style="isolation:auto;mix-blend-mode:normal"/>
</svg>
