<?xml version="1.0" encoding="UTF-8"?>
<svg id="svg6" width="24" height="24" version="1.1" xmlns="http://www.w3.org/2000/svg" xmlns:cc="http://creativecommons.org/ns#" xmlns:dc="http://purl.org/dc/elements/1.1/" xmlns:rdf="http://www.w3.org/1999/02/22-rdf-syntax-ns#">
 <metadata id="metadata12">
  <rdf:RDF>
   <cc:Work rdf:about="">
    <dc:format>image/svg+xml</dc:format>
    <dc:type rdf:resource="http://purl.org/dc/dcmitype/StillImage"/>
    <dc:title/>
   </cc:Work>
  </rdf:RDF>
 </metadata>
 <path id="path2-6" d="m6.3516 4.7363-0.93945 0.94141 9.48 9.4803h-1.3008l-5.5582-5.5585c-0.013376 0.13326-0.033055 0.26546-0.033203 0.40039 0 0-1.563e-4 5.0001-1.6602 5.6211-0.016 0.011-0.022063 0.03097-0.039063 0.04297-0.063381 0.04923-0.11816 0.10863-0.16211 0.17578-0.018 0.027-0.038734 0.04817-0.052734 0.07617-0.05462 0.10298-0.08407 0.21743-0.085938 0.33398 0 0.11364 0.335 0.75 0.75 0.75h10.5c0.416 0 0.75-0.334 0.75-0.75-0.0019-0.11655-0.03132-0.231-0.08594-0.33398-0.014-0.028-0.03573-0.05017-0.05273-0.07617-0.04393-0.06716-0.09872-0.12656-0.16211-0.17578-0.016-0.012-0.02206-0.03197-0.03906-0.04297-1.66-0.62-1.6602-5.6211-1.6602-5.6211-2e-3 -1.823-1.235-3.5352-3-3.9902v-0.0097656c0-0.55228-0.44772-1-1-1s-1 0.44772-1 1v0.00977c-0.8193 0.21179-1.5162 0.70027-2.0352 1.3398zm3.7148 13.264c0.22773 0.88199 1.0227 1.4987 1.9336 1.5 0.91164-4.31e-4 1.7076-0.6173 1.9355-1.5z" color="#bebebe" fill="#fff" style="isolation:auto;mix-blend-mode:normal"/>
</svg>
