<?xml version="1.0" encoding="UTF-8"?>
<svg id="svg8" width="24" height="24" version="1.1" xmlns="http://www.w3.org/2000/svg" xmlns:cc="http://creativecommons.org/ns#" xmlns:dc="http://purl.org/dc/elements/1.1/" xmlns:rdf="http://www.w3.org/1999/02/22-rdf-syntax-ns#">
 <metadata id="metadata14">
  <rdf:RDF>
   <cc:Work rdf:about="">
    <dc:format>image/svg+xml</dc:format>
    <dc:type rdf:resource="http://purl.org/dc/dcmitype/StillImage"/>
   </cc:Work>
  </rdf:RDF>
 </metadata>
 <path id="path2-3-7-9-8-3-7-2" d="m11.545 5.7422c-1.2174 0.33135-2.2735 1.2292-2.7715 2.4277 0 0-1.9143 4.6201-3.6855 4.5586-0.019 4e-3 -0.032434 0.018857-0.052734 0.023437-0.0771 0.02152-0.15083 0.056212-0.2168 0.10156-0.027 0.01806-0.054525 0.028318-0.078125 0.048828-0.0899 0.07423-0.16068 0.16842-0.20703 0.27539-0.15919 0.38433 0.02285 0.82166 0.40625 0.98047l9.7012 4.0176c0.38434 0.1592 0.81932-0.01996 0.97852-0.4043 0.0429-0.10841 0.059828-0.22574 0.048828-0.3418-2e-3 -0.031231-0.013731-0.059314-0.019531-0.089844-0.014801-0.07891-0.042332-0.15482-0.082032-0.22461-0.0102-0.01721-0.008031-0.038027-0.019531-0.054687-0.77234-0.71972-0.40344-2.6425 0.019531-4.0859a5 5 0 0 1-4.5664-4.9746 5 5 0 0 1 0.54492-2.2578zm-1.1387 11.762c0.07357 0.93805 0.80192 1.7214 1.7715 1.8281 0.56969 0.06232 1.1074-0.12423 1.5117-0.46875l-3.2832-1.3594z" color="#bebebe" fill="#fff" style="isolation:auto;mix-blend-mode:normal"/>
 <path id="path4" class="error" d="m20 8a4 4 0 0 1-8 0 4 4 0 1 1 8 0z" color="#bebebe" fill="#d33636" overflow="visible" style="isolation:auto;mix-blend-mode:normal"/>
</svg>
