<?xml version="1.0" encoding="UTF-8"?>
<svg id="svg8" width="24" height="24" version="1.1" xmlns="http://www.w3.org/2000/svg" xmlns:cc="http://creativecommons.org/ns#" xmlns:dc="http://purl.org/dc/elements/1.1/" xmlns:rdf="http://www.w3.org/1999/02/22-rdf-syntax-ns#">
 <metadata id="metadata14">
  <rdf:RDF>
   <cc:Work rdf:about="">
    <dc:format>image/svg+xml</dc:format>
    <dc:type rdf:resource="http://purl.org/dc/dcmitype/StillImage"/>
    <dc:title/>
   </cc:Work>
  </rdf:RDF>
 </metadata>
 <path id="path2-3-5-2-2-5-7" d="m13.879 5.0117c-0.25373 0.033404-0.494 0.16373-0.66211 0.38281l-0.005859 0.0078126c-1.677-0.71208-3.6998-0.10443-4.8105 1.3398 0 0-3.0433 3.9671-4.7383 3.4492-0.0194-1e-3 -0.035841 0.010556-0.056641 0.009766-0.08 8.32e-4 -0.16086 0.014296-0.23633 0.041016-0.0307 0.01046-0.059791 0.013653-0.087891 0.027343-0.106 0.04846-0.19902 0.12157-0.27148 0.21289-0.25325 0.33004-0.19057 0.8001 0.13867 1.0527l8.3301 6.3906c0.33004 0.25324 0.79753 0.19136 1.0508-0.13867 0.0694-0.09369 0.11735-0.20147-0.16566-0.31641 0.30838-0.03074 0.30429-0.060817 0.30629-0.091797 6e-3 -0.08006-0.001084-0.16058-0.021484-0.23828-0.005001-0.01926 0.00114-0.039524-0.00586-0.058594-0.93953-1.5024 2.1055-5.4707 2.1055-5.4707 1.1082-1.4475 1.1721-3.5567 0.048828-4.9922l0.005859-0.0078125c0.3362-0.43816 0.2526-1.0642-0.18555-1.4004l0.001953-0.0019531c-0.21908-0.1681-0.4865-0.23067-0.74024-0.19727zm-10.709 7.8008c-0.12656 0.57612 0.0079975 1.1787 0.36719 1.6465 0.59035 0.76659 1.645 1.0002 2.5039 0.55469l-2.8711-2.2012z" color="#bebebe" fill="#fff" style="isolation:auto;mix-blend-mode:normal"/>
</svg>
