<?xml version="1.0" encoding="UTF-8"?>
<svg id="svg8" width="24" height="24" version="1.1" xmlns="http://www.w3.org/2000/svg" xmlns:cc="http://creativecommons.org/ns#" xmlns:dc="http://purl.org/dc/elements/1.1/" xmlns:rdf="http://www.w3.org/1999/02/22-rdf-syntax-ns#">
 <metadata id="metadata14">
  <rdf:RDF>
   <cc:Work rdf:about="">
    <dc:format>image/svg+xml</dc:format>
    <dc:type rdf:resource="http://purl.org/dc/dcmitype/StillImage"/>
    <dc:title/>
   </cc:Work>
  </rdf:RDF>
 </metadata>
 <path id="path2-3-7-9-8-3-7-2" d="m13.992 5.0039c-0.38969 0.0029001-0.75946 0.23646-0.91797 0.61914l-0.003907 0.0078125c-1.8043-0.25377-3.5978 0.85652-4.2969 2.5391 0 0-1.9143 4.6201-3.6855 4.5586-0.019 4e-3 -0.032434 0.018857-0.052734 0.023437-0.0771 0.02152-0.15083 0.05621-0.2168 0.10156-0.027 0.01806-0.054525 0.028318-0.078125 0.048828-0.0899 0.07423-0.16068 0.16842-0.20703 0.27539-0.15919 0.38433 0.02285 0.82166 0.40625 0.98047l9.7012 4.0176c0.38434 0.1592 0.81932-0.01996 0.97852-0.4043 0.0429-0.10841 0.059828-0.22574 0.048828-0.3418-2e-3 -0.031231-0.013732-0.059314-0.019531-0.089844-0.0148-0.07891-0.042332-0.15482-0.082032-0.22461-0.0102-0.01721-0.008001-0.038027-0.019531-0.054687-1.1804-1.1 0.24319-4.8704 0.51758-5.5645a3.5 3.5 0 0 1-3.5645-3.4961 3.5 3.5 0 0 1 1.6445-2.9648c-0.05125-0.0076299-0.10139-0.031629-0.15234-0.03125zm-4.377 12.174c-0.025202 0.96198 0.64124 1.8282 1.6172 2.0137 0.69318 0.1313 1.3661-0.11557 1.8184-0.5918l-3.4355-1.4219z" color="#bebebe" fill="#fff" style="isolation:auto;mix-blend-mode:normal"/>
 <path id="path4-7-9" class="error" d="m18.5 8a2.5 2.5 0 0 1-5 0 2.5 2.5 0 1 1 5 0z" color="#bebebe" fill="#d33636" overflow="visible" style="isolation:auto;mix-blend-mode:normal"/>
</svg>
