<?xml version="1.0" encoding="UTF-8"?>
<svg id="svg6" width="24" height="24" version="1.1" xmlns="http://www.w3.org/2000/svg" xmlns:cc="http://creativecommons.org/ns#" xmlns:dc="http://purl.org/dc/elements/1.1/" xmlns:rdf="http://www.w3.org/1999/02/22-rdf-syntax-ns#">
 <metadata id="metadata12">
  <rdf:RDF>
   <cc:Work rdf:about="">
    <dc:format>image/svg+xml</dc:format>
    <dc:type rdf:resource="http://purl.org/dc/dcmitype/StillImage"/>
    <dc:title/>
   </cc:Work>
  </rdf:RDF>
 </metadata>
 <path id="path2-6" d="m6.3516 4.7363v0.0019531l-0.93945 0.93945 4.0625 4.0625h-1.3008l-0.14062-0.14062c-0.013376 0.13326-0.033055 0.26546-0.033203 0.40039 0 0-1.564e-4 5.0001-1.6602 5.6211-0.016 0.011-0.022063 0.030968-0.039063 0.042968-0.063381 0.04923-0.11816 0.10863-0.16211 0.17578-0.018 0.027-0.038734 0.048172-0.052734 0.076172-0.05462 0.10298-0.08407 0.21743-0.085938 0.33398 0 0.11364 0.335 0.75 0.75 0.75h10.5c0.11364 0 0.75-0.63636 0.75-0.75-0.0019-0.11655-0.031318-0.231-0.085938-0.33398-0.013999-0.028-0.035734-0.050172-0.052734-0.076172-0.04393-0.06716-0.09872-0.12656-0.16211-0.17578-0.016-0.011999-0.022063-0.031968-0.039063-0.042968-1.66-0.62-1.6602-5.6211-1.6602-5.6211-2e-3 -1.823-1.235-3.5352-3-3.9902v-0.0097656c0-0.55228-0.44772-1-1-1s-1 0.44772-1 1v0.0097656c-0.81883 0.21167-1.5163 0.69886-2.0352 1.3379l-2.6113-2.6113h-0.0019531zm3.7148 13.264c0.22773 0.88199 1.0227 1.4987 1.9336 1.5 0.91164-4.31e-4 1.7076-0.6173 1.9355-1.5h-3.8691z" color="#bebebe" fill="#fff" style="isolation:auto;mix-blend-mode:normal"/>
</svg>
