<?xml version="1.0" encoding="UTF-8"?>
<svg id="svg8" width="24" height="24" version="1.1" xmlns="http://www.w3.org/2000/svg" xmlns:cc="http://creativecommons.org/ns#" xmlns:dc="http://purl.org/dc/elements/1.1/" xmlns:rdf="http://www.w3.org/1999/02/22-rdf-syntax-ns#">
 <metadata id="metadata14">
  <rdf:RDF>
   <cc:Work rdf:about="">
    <dc:format>image/svg+xml</dc:format>
    <dc:type rdf:resource="http://purl.org/dc/dcmitype/StillImage"/>
    <dc:title/>
   </cc:Work>
  </rdf:RDF>
 </metadata>
 <path id="path2-3-5-2-2-5-19" d="m13.49 5.0098c-0.38969 0.0029021-0.75946 0.2345-0.91797 0.61719l-0.003907 0.0078125c-1.8042-0.25377-3.5997 0.85652-4.2988 2.5391 0 0-1.9123 4.6201-3.6836 4.5586-0.019 4e-3 -0.034388 0.018857-0.054688 0.023437-0.0771 0.02152-0.14886 0.056212-0.21484 0.10156-0.027 0.01806-0.054525 0.028318-0.078125 0.048828-0.0898 0.07425-0.16067 0.17038-0.20703 0.27734-0.15919 0.38433 0.02285 0.8197 0.40625 0.97852l9.6992 4.0195c0.38434 0.1592 0.82127-0.021913 0.98047-0.40625 0.042799-0.41175 0.059828-0.22576 0.048828-0.3418-2e-3 -0.03123-0.013732-0.059324-0.019532-0.089844-0.0148-0.07891-0.042331-0.15481-0.082031-0.22461-0.0102-0.01721-0.009984-0.038028-0.021484-0.054688-1.2964-1.2081 0.61914-5.8281 0.61914-5.8281 0.69578-1.685 0.21043-3.7401-1.2461-4.8359l0.003906-0.0078125c0.21135-0.51024-0.030816-1.0953-0.54102-1.3066-0.12756-0.052837-0.25878-0.077139-0.38867-0.076172zm-6.3711 11.346c-0.12839 0.90213 0.36964 1.7769 1.2109 2.127 0.84287 0.34777 1.8143 0.08102 2.3613-0.64844l-3.5723-1.4785z" color="#bebebe" fill="#fff" style="isolation:auto;mix-blend-mode:normal"/>
</svg>
