<?xml version="1.0" encoding="UTF-8"?>
<svg width="24" height="24" version="1.1" xmlns="http://www.w3.org/2000/svg">
 <defs>
  <style id="current-color-scheme" type="text/css">.ColorScheme-Text { color:#ffffff; } .ColorScheme-Highlight { color:#4285f4; }</style>
 </defs>
 <path class="ColorScheme-Text" d="m7.4632 4.0002c0.79989-0.010607 1.5915 0.36267 2.084 1.0664 0.20076 0.28687 0.33321 0.60649 0.40039 0.93945h2.7324c2.0928 0 3.791 1.3955 3.791 3.4883 0 1.2469-0.61114 2.2371-1.541 2.8418l1.0098 1.4434c1.2547-1.0033 2.0605-2.5405 2.0605-4.2676 0-3.0242-2.4624-5.4766-5.5-5.4766h-4.5957c-0.14581-0.024641-0.29352-0.036509-0.44141-0.035156zm-2.459 2.5195-0.00391 0.00391v0.035156c-2.756e-4 -0.012969 0.00398-0.026075 0.00391-0.039063zm-0.00391 0.039063v10.916c-0.047813 3.3659 5.0478 3.3659 5 0v-2.4883h0.67969l-0.04883-0.07031a2.5002 2.5002 0 0 1-0.42578-1.9316h-2.4121v4.6875c0.00763 0.53942-0.80646 0.53942-0.79883 0v-8.7305c-0.60223-0.12509-1.1612-0.46501-1.541-1.0078-0.28718-0.41035-0.44273-0.88558-0.45312-1.375zm4.9707 0.24414c-0.00539 0.043712-0.00206 0.087156-0.00977 0.13086-0.116 0.65798-0.48055 1.2321-1.0273 1.6152-0.35052 0.24561-0.74278 0.37765-1.1406 0.42383v3.2129h2.7109a2.5002 2.5002 0 0 1 1.6621-1.1816h-2.166v-2.9863h2.5c0.87581 0 1.5 0.6222 1.5 1.4941 0 0.74513-0.45757 1.3017-1.1367 1.4492a2.5002 2.5002 0 0 1 1.584 0.74805c0.74126-0.4562 1.2246-1.2185 1.2246-2.2148 0-1.6617-1.3305-2.6914-2.9922-2.6914h-2.0957z" fill="currentColor" opacity=".3"/>
 <path class="ColorScheme-Text" d="m7.4554 4.0002c-0.48153 0.0078894-0.96533 0.15453-1.3887 0.45117-0.54694 0.38301-0.91148 0.9574-1.0273 1.6152-0.11601 0.65784 0.031161 1.3201 0.41406 1.8672 0.79048 1.1296 2.3516 1.4063 3.4805 0.61523 0.54679-0.38316 0.91134-0.95725 1.0273-1.6152 0.11586-0.65754-0.031161-1.3201-0.41406-1.8672-0.49405-0.70603-1.2893-1.0796-2.0918-1.0664zm5.1406 6.9531a2.5002 2.5002 0 0 0-1.9648 3.9629l2.793 3.9883a2.5002 2.5002 0 1 0 4.0957-2.8672l-2.791-3.9883a2.5002 2.5002 0 0 0-2.1328-1.0957z" fill="currentColor"/>
</svg>
