<?xml version="1.0" encoding="UTF-8" standalone="no"?>
<svg
   width="24"
   height="24"
   version="1.1"
   id="svg1"
   sodipodi:docname="start-here-symbolic.svg"
   inkscape:version="1.4.4 (dcaf3e7d9e, 2026-05-05)"
   xmlns:inkscape="http://www.inkscape.org/namespaces/inkscape"
   xmlns:sodipodi="http://sodipodi.sourceforge.net/DTD/sodipodi-0.dtd"
   xmlns="http://www.w3.org/2000/svg"
   xmlns:svg="http://www.w3.org/2000/svg">
  <sodipodi:namedview
     id="namedview1"
     pagecolor="#ffffff"
     bordercolor="#999999"
     borderopacity="1"
     inkscape:showpageshadow="2"
     inkscape:pageopacity="0"
     inkscape:pagecheckerboard="0"
     inkscape:deskcolor="#d1d1d1"
     inkscape:zoom="48.25"
     inkscape:cx="12"
     inkscape:cy="12"
     inkscape:window-width="2560"
     inkscape:window-height="1371"
     inkscape:window-x="0"
     inkscape:window-y="0"
     inkscape:window-maximized="1"
     inkscape:current-layer="svg1" />
  <defs
     id="defs1">
    <style
       id="current-color-scheme"
       type="text/css">.ColorScheme-Text { color:#f2f2f2; }</style>
  </defs>
  <path
     style="baseline-shift:baseline;display:inline;overflow:visible;fill:#f2f2f2;fill-opacity:1;stroke:#f2f2f2;stroke-width:0.281692;stroke-linecap:round;stroke-linejoin:round;stroke-dasharray:none;stroke-opacity:1;enable-background:accumulate;stop-color:#000000"
     d="m 11.872858,6.8889713 c 0.03851,0.019251 0.06932,0.065474 0.115537,0.065474 0.04237,0 0.10783,-0.015407 0.111677,-0.057765 0.0077,-0.053921 -0.07317,-0.088581 -0.123241,-0.1116838 -0.06546,-0.026959 -0.150195,-0.038514 -0.211814,-0.00389 -0.01541,0.00769 -0.03082,0.026959 -0.02311,0.042358 0.01155,0.050066 0.08858,0.042358 0.130945,0.065474 m -0.8434,0.065475 c 0.04621,0 0.07703,-0.046213 0.115536,-0.065474 0.04237,-0.023107 0.119382,-0.015407 0.134791,-0.061619 0.0077,-0.015407 -0.0077,-0.034659 -0.02311,-0.042358 -0.06162,-0.034659 -0.146345,-0.023107 -0.211814,0.00389 -0.05007,0.023106 -0.130945,0.057765 -0.12324,0.1116838 0.0038,0.038514 0.06932,0.057765 0.107831,0.053921 M 19.54396,17.690687 c -0.138649,-0.154046 -0.204111,-0.446734 -0.277285,-0.758677 -0.06931,-0.311944 -0.150194,-0.646993 -0.40437,-0.862659 -0.05007,-0.04235 -0.100127,-0.08087 -0.154046,-0.111677 -0.05007,-0.03082 -0.103972,-0.05776 -0.157897,-0.07703 0.354304,-1.051372 0.215664,-2.098884 -0.142494,-3.045885 C 17.968857,11.675563 17.202478,10.662711 16.617102,9.9698884 15.958555,9.1418904 15.319264,8.3562554 15.330816,7.197443 15.350066,5.429379 15.527225,2.1447303 12.412027,2.140879 8.4688325,2.133189 9.4547275,6.1225857 9.4123645,7.347253 9.3468945,8.2484224 9.1658915,8.9570354 8.5458555,9.8385644 7.8179885,10.705075 6.7935825,12.10304 6.3083371,13.562243 6.077268,14.251599 5.9694349,14.95251 6.0695651,15.614908 c -0.2503255,0.223368 -0.439031,0.566121 -0.6392914,0.777933 -0.1617489,0.165599 -0.3966688,0.227217 -0.6546958,0.319645 -0.258027,0.09242 -0.5391612,0.23107 -0.7124637,0.558419 -0.080874,0.150194 -0.1078317,0.311943 -0.1078317,0.477541 0,0.150195 0.023113,0.304241 0.046212,0.454437 0.046212,0.311944 0.096282,0.60463 0.030803,0.801038 -0.2002604,0.554567 -0.2272184,0.939683 -0.084719,1.220818 0.1463446,0.281134 0.439031,0.40437 0.7740825,0.473691 0.6662493,0.138648 1.5712692,0.103972 2.2837325,0.481393 0.762529,0.400521 1.53661,0.543013 2.152794,0.400521 0.446734,-0.100128 0.8125938,-0.36971 0.9974475,-0.777934 0.481395,-0.0039 1.012853,-0.207963 1.860108,-0.254176 0.57382,-0.04621 1.293987,0.204111 2.121984,0.157898 0.0231,0.08858 0.05392,0.177152 0.09628,0.258027 v 0.0039 c 0.319647,0.643142 0.916575,0.93583 1.552014,0.885765 0.639292,-0.05007 1.313245,-0.423625 1.860108,-1.074472 0.523757,-0.631588 1.386415,-0.893467 1.960237,-1.24007 0.284986,-0.173302 0.516054,-0.388967 0.53531,-0.704762 0.01425,-0.316179 -0.170607,-0.666249 -0.597698,-1.143793 M 11.984542,5.5025566 c 0.377412,-0.8549562 1.317094,-0.839551 1.694506,-0.015404 0.250324,0.5468638 0.138649,1.1900061 -0.165599,1.5558658 -0.06162,-0.03081 -0.227219,-0.1001305 -0.485246,-0.1887072 0.04237,-0.046214 0.119381,-0.1039809 0.150196,-0.1771528 0.184856,-0.4544366 -0.0077,-1.0398117 -0.350455,-1.0513648 -0.281134,-0.019255 -0.53531,0.4159243 -0.454437,0.885765 C 12.215611,6.4345356 12.0115,6.376769 11.872858,6.3421075 11.834351,6.0763788 11.861309,5.7798394 11.984549,5.5025566 M 10.417508,5.0596741 c 0.388965,0 0.801039,0.5468638 0.735569,1.2901362 -0.134789,0.038513 -0.273431,0.096278 -0.392818,0.1771526 0.04621,-0.3427524 -0.127085,-0.774081 -0.369709,-0.7548252 -0.323498,0.026961 -0.377414,0.8164439 -0.06932,1.0821735 0.03851,0.030804 0.07317,-0.00769 -0.227219,0.2118138 C 9.4932315,6.503856 9.6896405,5.0596741 10.417508,5.0596741 M 9.8937513,7.3973236 c 0.2387717,-0.1771527 0.5237567,-0.3851153 0.5430127,-0.404371 0.181004,-0.1694501 0.519905,-0.5468638 1.074472,-0.5468638 0.273431,0 0.600779,0.088581 0.997448,0.3427526 0.242623,0.1578972 0.43518,0.1694511 0.870361,0.3581579 0.323497,0.1347896 0.527607,0.3735614 0.404371,0.7009096 -0.100127,0.2734315 -0.423628,0.5545655 -0.874212,0.6970585 -0.427478,0.138641 -0.762529,0.616185 -1.47114,0.573822 -0.150195,-0.0077 -0.26958,-0.03851 -0.369712,-0.08087 C 10.76026,8.9031254 10.598513,8.6373954 10.298121,8.4602424 9.9669223,8.2753874 9.7897703,8.0597214 9.7320023,7.8710158 Q 9.6511285,7.5879557 9.8937513,7.3973236 M 10.020837,20.259019 C 9.9168503,21.610774 8.3301815,21.583816 7.1213045,20.952226 5.96981,20.343745 4.479799,20.701901 4.1755576,20.108824 4.0831345,19.927821 4.0831345,19.619729 4.275685,19.09212 v -0.0076 C 4.368108,18.791832 4.298798,18.468336 4.252572,18.164094 4.20636,17.863705 4.183248,17.586422 4.287234,17.393864 c 0.1347896,-0.258028 0.3273472,-0.350456 0.5699699,-0.43518 0.3966687,-0.142493 0.4544367,-0.13093 0.7548259,-0.381265 0.2118141,-0.219515 0.3658601,-0.496798 0.5507148,-0.693207 0.1964098,-0.211814 0.3851149,-0.311944 0.6816539,-0.26573 0.311944,0.04621 0.581525,0.261878 0.843402,0.616185 l 0.754826,1.371011 c 0.36509,0.766763 1.6590765,1.863957 1.5782025,2.653443 m -0.05391,-0.997545 C 9.8090223,19.0074 9.5972095,18.737821 9.4123535,18.50675 c 0.273433,0 0.5468638,-0.08472 0.6431415,-0.342753 0.08858,-0.23877 0,-0.57382 -0.2849847,-0.958937 -0.5199088,-0.700915 -1.4749948,-1.251631 -1.4749948,-1.251631 -0.519907,-0.323496 -0.812594,-0.720165 -0.947384,-1.151493 -0.13479,-0.43133 -0.115536,-0.89732 -0.01155,-1.355606 0.20026,-0.881916 0.716314,-1.740721 1.047513,-2.279884 0.08858,-0.06547 0.0308,0.123241 -0.33505,0.801041 -0.327348,0.620035 -0.939682,2.052664 -0.100127,3.172965 0.02311,-0.797189 0.211813,-1.609782 0.531458,-2.368074 0.462139,-1.055217 1.4364808,-2.8841286 1.5135038,-4.3398636 0.04237,0.03081 0.1771517,0.123234 0.2387707,0.157897 0.177154,0.103981 0.311945,0.258027 0.485246,0.396668 0.477542,0.385116 1.097578,0.354307 1.632889,0.04621 0.23877,-0.134792 0.431327,-0.288837 0.612332,-0.346604 0.381263,-0.119386 0.685505,-0.3312 0.858807,-0.577673 0.29654,1.17075 0.989746,2.8610206 1.432629,3.6851676 0.23492,0.439032 0.704762,1.367159 0.908872,2.487459 0.127086,-0.0039 0.269581,0.01541 0.419776,0.05392 0.53146,-1.374859 -0.450583,-2.857167 -0.897317,-3.269242 -0.181004,-0.177151 -0.188708,-0.254174 -0.100127,-0.250323 0.485245,0.431328 1.124537,1.297838 1.355606,2.27218 0.107831,0.446734 0.127085,0.912723 0.01541,1.374862 0.631589,0.261878 1.382564,0.689357 1.182304,1.340202 -0.08472,-0.0039 -0.123227,0 -0.161748,0 0.123226,-0.388968 -0.150195,-0.677805 -0.878063,-1.005153 -0.754826,-0.331198 -1.386415,-0.331198 -1.474992,0.481394 -0.46599,0.161751 -0.70476,0.566121 -0.824147,1.051365 -0.107832,0.431329 -0.138649,0.951237 -0.169452,1.536611 -0.01925,0.296539 -0.138649,0.693206 -0.261878,1.116834 -1.236605,0.881914 -2.954219,1.267029 -4.4018667,0.277282 M 19.87864,18.818688 c -0.03466,0.646993 -1.586675,0.76638 -2.433544,1.790786 -0.508351,0.604631 -1.132237,0.93968 -1.679101,0.982043 -0.546864,0.04235 -1.020557,-0.184855 -1.297841,-0.743272 -0.181002,-0.427478 -0.09242,-0.889617 0.04235,-1.397968 0.142494,-0.546864 0.354306,-1.109133 0.381264,-1.563568 0.0308,-0.585376 0.06546,-1.097579 0.161751,-1.490397 0.100127,-0.396669 0.254174,-0.662399 0.527606,-0.812593 0.01155,-0.0076 0.02696,-0.01155 0.03851,-0.01925 0.0308,0.508351 0.281134,1.024408 0.724017,1.13609 0.485244,0.127085 1.182304,-0.288837 1.478842,-0.627739 0.346604,-0.01155 0.604632,-0.03466 0.870361,0.19641 0.381264,0.327348 0.273431,1.1669 0.658546,1.602079 0.407838,0.447118 0.538778,0.750974 0.527223,0.947383 M 10.043945,7.8671647 c 0.07703,0.073172 0.181006,0.1733017 0.308095,0.2734317 0.254174,0.200259 0.60848,0.408222 1.051363,0.408222 0.446734,0 0.866508,-0.227218 1.224665,-0.415924 0.188707,-0.10013 0.419776,-0.2695812 0.569972,-0.4005199 0.150195,-0.1309403 0.227218,-0.2426226 0.119382,-0.2541767 -0.107833,-0.011549 -0.100129,0.1001302 -0.23107,0.1964086 -0.16945,0.1232374 -0.373562,0.2849853 -0.535311,0.377414 -0.284985,0.161748 -0.750973,0.392817 -1.151495,0.392817 -0.400518,0 -0.720164,-0.184856 -0.958935,-0.373562 -0.119382,-0.096278 -0.219517,-0.1925577 -0.296539,-0.2657293 -0.05776,-0.05392 -0.07317,-0.1771528 -0.1655997,-0.1887069 -0.05391,-0.00389 -0.06932,0.1424928 0.06547,0.2503255"
     id="path2" />
</svg>
